<?xml version="1.0" standalone="no"?><!DOCTYPE svg PUBLIC "-//W3C//DTD SVG 1.1//EN" "http://www.w3.org/Graphics/SVG/1.1/DTD/svg11.dtd"><svg xmlns="http://www.w3.org/2000/svg" version="1.1" width="894.3px" height="113.2px" viewBox="0 -25 894.3 113.2" style="top:-25px">  <desc>Promise vs. functionality</desc>  <defs/>  <g id="Polygon123917">    <path d="M 4.2 48.7 L 4.2 0 C 4.2 0 23.46 0 23.5 0 C 27.2 0 30.3 0.7 32.9 2.1 C 35.5 3.5 37.5 5.5 38.9 7.9 C 40.2 10.4 40.9 13.3 40.9 16.5 C 40.9 19.7 40.2 22.6 38.8 25.1 C 37.4 27.6 35.4 29.5 32.8 30.9 C 30.1 32.2 26.9 32.9 23.2 32.9 C 23.2 32.93 10.9 32.9 10.9 32.9 L 10.9 24.7 C 10.9 24.7 21.53 24.67 21.5 24.7 C 23.5 24.7 25.2 24.3 26.4 23.6 C 27.7 22.9 28.7 22 29.3 20.8 C 30 19.5 30.3 18.1 30.3 16.5 C 30.3 14.9 30 13.5 29.3 12.3 C 28.7 11.1 27.7 10.1 26.4 9.4 C 25.1 8.8 23.5 8.4 21.5 8.4 C 21.48 8.42 14.5 8.4 14.5 8.4 L 14.5 48.7 L 4.2 48.7 Z M 45.9 48.7 L 45.9 12.2 L 55.8 12.2 L 55.8 18.6 C 55.8 18.6 56.15 18.56 56.1 18.6 C 56.8 16.3 57.9 14.6 59.5 13.4 C 61.1 12.2 62.9 11.7 64.9 11.7 C 65.4 11.7 66 11.7 66.6 11.8 C 67.2 11.8 67.7 11.9 68.1 12 C 68.1 12 68.1 21 68.1 21 C 67.6 20.9 67 20.7 66.1 20.6 C 65.3 20.5 64.5 20.5 63.8 20.5 C 62.3 20.5 61 20.8 59.8 21.4 C 58.7 22.1 57.8 23 57.1 24.1 C 56.4 25.2 56.1 26.6 56.1 28.1 C 56.08 28.05 56.1 48.7 56.1 48.7 L 45.9 48.7 Z M 88.6 49.4 C 84.9 49.4 81.7 48.7 79 47.1 C 76.4 45.5 74.3 43.3 72.8 40.5 C 71.4 37.6 70.6 34.3 70.6 30.6 C 70.6 26.8 71.4 23.5 72.8 20.7 C 74.3 17.9 76.4 15.7 79 14.1 C 81.7 12.5 84.9 11.7 88.6 11.7 C 92.3 11.7 95.5 12.5 98.2 14.1 C 100.9 15.7 103 17.9 104.4 20.7 C 105.9 23.5 106.6 26.8 106.6 30.6 C 106.6 34.3 105.9 37.6 104.4 40.5 C 103 43.3 100.9 45.5 98.2 47.1 C 95.5 48.7 92.3 49.4 88.6 49.4 Z M 88.7 41.6 C 90.3 41.6 91.8 41.1 92.9 40.2 C 94 39.2 94.9 37.9 95.4 36.2 C 96 34.5 96.3 32.7 96.3 30.5 C 96.3 28.4 96 26.5 95.4 24.8 C 94.9 23.2 94 21.9 92.9 20.9 C 91.8 19.9 90.3 19.4 88.7 19.4 C 87 19.4 85.5 19.9 84.4 20.9 C 83.2 21.9 82.4 23.2 81.8 24.8 C 81.2 26.5 80.9 28.4 80.9 30.5 C 80.9 32.7 81.2 34.5 81.8 36.2 C 82.4 37.9 83.2 39.2 84.4 40.2 C 85.5 41.1 87 41.6 88.7 41.6 Z M 112.4 48.7 L 112.4 12.2 L 122 12.2 L 122 18.6 C 122 18.6 122.45 18.63 122.5 18.6 C 123.2 16.5 124.5 14.8 126.3 13.6 C 128 12.3 130.2 11.7 132.6 11.7 C 135.1 11.7 137.3 12.3 139 13.6 C 140.8 14.8 142 16.5 142.6 18.6 C 142.6 18.6 142.9 18.6 142.9 18.6 C 143.7 16.5 145 14.9 147 13.6 C 149 12.3 151.3 11.7 154 11.7 C 157.4 11.7 160.1 12.8 162.3 15 C 164.4 17.1 165.5 20.2 165.5 24.1 C 165.47 24.15 165.5 48.7 165.5 48.7 L 155.4 48.7 C 155.4 48.7 155.36 26.15 155.4 26.1 C 155.4 24.1 154.8 22.6 153.7 21.6 C 152.7 20.6 151.3 20.1 149.7 20.1 C 147.9 20.1 146.4 20.6 145.4 21.8 C 144.4 23 143.8 24.5 143.8 26.4 C 143.84 26.41 143.8 48.7 143.8 48.7 L 134 48.7 C 134 48.7 134.01 25.93 134 25.9 C 134 24.1 133.5 22.7 132.5 21.7 C 131.5 20.6 130.1 20.1 128.4 20.1 C 127.3 20.1 126.3 20.3 125.4 20.9 C 124.5 21.5 123.8 22.3 123.3 23.3 C 122.8 24.3 122.5 25.4 122.5 26.8 C 122.5 26.79 122.5 48.7 122.5 48.7 L 112.4 48.7 Z M 172.7 48.7 L 172.7 12.2 L 182.9 12.2 L 182.9 48.7 L 172.7 48.7 Z M 177.8 7.5 C 176.3 7.5 175 7 174 6 C 172.9 5 172.4 3.8 172.4 2.4 C 172.4 0.9 172.9 -0.3 174 -1.3 C 175 -2.3 176.3 -2.8 177.8 -2.8 C 179.3 -2.8 180.6 -2.3 181.7 -1.3 C 182.8 -0.3 183.3 0.9 183.3 2.3 C 183.3 3.7 182.8 5 181.7 6 C 180.6 7 179.3 7.5 177.8 7.5 Z M 220.4 22.6 C 220.4 22.6 211.1 23.2 211.1 23.2 C 211 22.4 210.6 21.7 210.1 21 C 209.6 20.4 208.9 19.9 208.1 19.5 C 207.2 19.1 206.2 18.9 205 18.9 C 203.4 18.9 202.1 19.2 201 19.9 C 200 20.5 199.4 21.4 199.4 22.5 C 199.4 23.4 199.8 24.1 200.5 24.7 C 201.2 25.3 202.4 25.8 204.1 26.2 C 204.1 26.2 210.7 27.5 210.7 27.5 C 214.2 28.2 216.9 29.4 218.6 31 C 220.4 32.6 221.2 34.8 221.2 37.4 C 221.2 39.8 220.5 41.9 219.1 43.7 C 217.7 45.5 215.8 46.9 213.4 47.9 C 210.9 48.9 208.1 49.4 205 49.4 C 200.1 49.4 196.3 48.4 193.4 46.4 C 190.6 44.4 188.9 41.6 188.4 38.1 C 188.4 38.1 198.4 37.6 198.4 37.6 C 198.7 39.1 199.4 40.2 200.5 41 C 201.7 41.8 203.2 42.1 205 42.1 C 206.8 42.1 208.2 41.8 209.3 41.1 C 210.4 40.4 210.9 39.5 210.9 38.4 C 210.9 37.5 210.5 36.7 209.8 36.2 C 209 35.6 207.8 35.1 206.3 34.8 C 206.3 34.8 199.9 33.5 199.9 33.5 C 196.4 32.8 193.7 31.6 192 29.8 C 190.2 28.1 189.4 25.8 189.4 23.1 C 189.4 20.7 190 18.7 191.3 17 C 192.6 15.3 194.4 14 196.7 13.1 C 199 12.2 201.7 11.7 204.9 11.7 C 209.5 11.7 213.1 12.7 215.8 14.6 C 218.4 16.6 220 19.2 220.4 22.6 Z M 243.1 49.4 C 239.4 49.4 236.1 48.7 233.4 47.1 C 230.7 45.6 228.6 43.4 227.2 40.6 C 225.7 37.8 225 34.5 225 30.6 C 225 26.9 225.7 23.6 227.2 20.7 C 228.6 17.9 230.7 15.7 233.4 14.1 C 236 12.5 239.1 11.7 242.7 11.7 C 245.1 11.7 247.4 12.1 249.5 12.9 C 251.5 13.6 253.4 14.8 254.9 16.3 C 256.5 17.9 257.7 19.8 258.6 22.1 C 259.5 24.4 259.9 27.2 259.9 30.3 C 259.89 30.26 259.9 33 259.9 33 L 229 33 L 229 26.8 C 229 26.8 250.35 26.77 250.4 26.8 C 250.4 25.3 250 24 249.4 22.9 C 248.8 21.8 247.9 20.9 246.8 20.2 C 245.7 19.6 244.4 19.3 242.9 19.3 C 241.3 19.3 240 19.6 238.8 20.3 C 237.6 21 236.7 22 236 23.2 C 235.4 24.3 235 25.7 235 27.1 C 235 27.1 235 33.1 235 33.1 C 235 34.9 235.3 36.4 236 37.8 C 236.7 39.1 237.6 40.1 238.9 40.8 C 240.1 41.5 241.6 41.9 243.3 41.9 C 244.4 41.9 245.4 41.7 246.4 41.4 C 247.3 41.1 248.1 40.6 248.8 40 C 249.4 39.3 250 38.6 250.3 37.6 C 250.3 37.6 259.7 38.3 259.7 38.3 C 259.2 40.5 258.2 42.5 256.8 44.1 C 255.3 45.8 253.4 47.1 251.1 48 C 248.8 49 246.1 49.4 243.1 49.4 Z M 316.1 12.2 L 303.3 48.7 L 291.9 48.7 L 279.1 12.2 L 289.8 12.2 L 297.4 38.3 L 297.8 38.3 L 305.4 12.2 L 316.1 12.2 Z M 349.5 22.6 C 349.5 22.6 340.2 23.2 340.2 23.2 C 340.1 22.4 339.7 21.7 339.2 21 C 338.7 20.4 338 19.9 337.1 19.5 C 336.3 19.1 335.3 18.9 334.1 18.9 C 332.5 18.9 331.2 19.2 330.1 19.9 C 329.1 20.5 328.5 21.4 328.5 22.5 C 328.5 23.4 328.9 24.1 329.6 24.7 C 330.3 25.3 331.5 25.8 333.2 26.2 C 333.2 26.2 339.8 27.5 339.8 27.5 C 343.3 28.2 346 29.4 347.7 31 C 349.5 32.6 350.3 34.8 350.3 37.4 C 350.3 39.8 349.6 41.9 348.2 43.7 C 346.8 45.5 344.9 46.9 342.5 47.9 C 340 48.9 337.2 49.4 334.1 49.4 C 329.2 49.4 325.4 48.4 322.5 46.4 C 319.6 44.4 318 41.6 317.5 38.1 C 317.5 38.1 327.4 37.6 327.4 37.6 C 327.7 39.1 328.5 40.2 329.6 41 C 330.8 41.8 332.3 42.1 334.1 42.1 C 335.9 42.1 337.3 41.8 338.4 41.1 C 339.5 40.4 340 39.5 340 38.4 C 340 37.5 339.6 36.7 338.9 36.2 C 338.1 35.6 336.9 35.1 335.3 34.8 C 335.3 34.8 329 33.5 329 33.5 C 325.4 32.8 322.8 31.6 321.1 29.8 C 319.3 28.1 318.4 25.8 318.4 23.1 C 318.4 20.7 319.1 18.7 320.4 17 C 321.6 15.3 323.4 14 325.8 13.1 C 328.1 12.2 330.8 11.7 333.9 11.7 C 338.6 11.7 342.2 12.7 344.8 14.6 C 347.5 16.6 349.1 19.2 349.5 22.6 Z M 361.6 49.3 C 360 49.3 358.7 48.8 357.6 47.7 C 356.5 46.6 355.9 45.2 355.9 43.6 C 355.9 42.1 356.5 40.7 357.6 39.6 C 358.7 38.5 360 38 361.6 38 C 363.1 38 364.5 38.5 365.6 39.6 C 366.7 40.7 367.3 42.1 367.3 43.6 C 367.3 44.7 367.1 45.6 366.5 46.5 C 366 47.4 365.3 48.1 364.4 48.6 C 363.6 49.1 362.6 49.3 361.6 49.3 Z M 410.8 12.2 L 410.8 19.8 L 388.3 19.8 L 388.3 12.2 L 410.8 12.2 Z M 393.4 48.7 C 393.4 48.7 393.42 9.54 393.4 9.5 C 393.4 6.9 393.9 4.7 395 3 C 396 1.2 397.4 -0.1 399.2 -1 C 401.1 -1.8 403.1 -2.3 405.4 -2.3 C 407 -2.3 408.4 -2.2 409.7 -1.9 C 411 -1.7 411.9 -1.5 412.6 -1.3 C 412.6 -1.3 410.8 6.3 410.8 6.3 C 410.4 6.2 409.9 6.1 409.3 6 C 408.7 5.9 408.1 5.8 407.5 5.8 C 406 5.8 405 6.2 404.4 6.8 C 403.8 7.5 403.5 8.5 403.5 9.7 C 403.53 9.73 403.5 48.7 403.5 48.7 L 393.4 48.7 Z M 438.7 33.2 C 438.74 33.17 438.7 12.2 438.7 12.2 L 448.9 12.2 L 448.9 48.7 L 439.1 48.7 L 439.1 42.1 C 439.1 42.1 438.76 42.09 438.8 42.1 C 437.9 44.2 436.6 46 434.7 47.3 C 432.7 48.6 430.4 49.2 427.7 49.2 C 425.2 49.2 423.1 48.6 421.2 47.5 C 419.4 46.4 417.9 44.8 416.9 42.8 C 415.8 40.8 415.3 38.3 415.3 35.5 C 415.3 35.45 415.3 12.2 415.3 12.2 L 425.4 12.2 C 425.4 12.2 425.44 33.64 425.4 33.6 C 425.5 35.8 426 37.5 427.2 38.8 C 428.3 40 429.8 40.6 431.8 40.6 C 433 40.6 434.1 40.4 435.2 39.8 C 436.3 39.2 437.1 38.4 437.8 37.3 C 438.4 36.2 438.8 34.8 438.7 33.2 Z M 466.5 27.6 C 466.48 27.6 466.5 48.7 466.5 48.7 L 456.3 48.7 L 456.3 12.2 L 466 12.2 L 466 18.6 C 466 18.6 466.43 18.63 466.4 18.6 C 467.2 16.5 468.6 14.8 470.5 13.6 C 472.4 12.3 474.7 11.7 477.4 11.7 C 480 11.7 482.2 12.3 484.1 13.4 C 486 14.5 487.4 16.1 488.5 18.1 C 489.5 20.2 490 22.6 490 25.5 C 490.04 25.46 490 48.7 490 48.7 L 479.9 48.7 C 479.9 48.7 479.9 27.27 479.9 27.3 C 479.9 25 479.3 23.3 478.2 22 C 477 20.8 475.4 20.1 473.4 20.1 C 472 20.1 470.8 20.4 469.8 21 C 468.8 21.6 468 22.4 467.4 23.6 C 466.8 24.7 466.5 26 466.5 27.6 Z M 513.6 49.4 C 509.9 49.4 506.6 48.6 504 47 C 501.3 45.5 499.2 43.2 497.8 40.4 C 496.3 37.6 495.6 34.3 495.6 30.6 C 495.6 26.9 496.3 23.6 497.8 20.7 C 499.2 17.9 501.3 15.7 504 14.1 C 506.7 12.5 509.9 11.7 513.6 11.7 C 516.7 11.7 519.5 12.3 521.9 13.4 C 524.3 14.6 526.2 16.2 527.6 18.3 C 529 20.4 529.8 22.9 529.9 25.7 C 529.9 25.7 520.4 25.7 520.4 25.7 C 520.1 23.9 519.4 22.4 518.2 21.3 C 517.1 20.2 515.6 19.6 513.7 19.6 C 512.1 19.6 510.8 20 509.6 20.9 C 508.4 21.7 507.5 23 506.9 24.6 C 506.2 26.2 505.9 28.2 505.9 30.5 C 505.9 32.8 506.2 34.8 506.9 36.4 C 507.5 38 508.4 39.3 509.6 40.1 C 510.8 41 512.1 41.4 513.7 41.4 C 514.9 41.4 515.9 41.2 516.8 40.7 C 517.8 40.2 518.5 39.5 519.2 38.6 C 519.8 37.7 520.2 36.6 520.4 35.3 C 520.4 35.3 529.9 35.3 529.9 35.3 C 529.8 38.1 529 40.6 527.6 42.7 C 526.3 44.8 524.4 46.5 522 47.7 C 519.7 48.8 516.9 49.4 513.6 49.4 Z M 554.8 12.2 L 554.8 19.8 L 532.8 19.8 L 532.8 12.2 L 554.8 12.2 Z M 537.8 3.4 L 547.9 3.4 C 547.9 3.4 547.95 37.5 547.9 37.5 C 547.9 38.4 548.1 39.2 548.4 39.7 C 548.7 40.2 549.1 40.6 549.6 40.8 C 550.1 41 550.7 41.1 551.4 41.1 C 551.8 41.1 552.3 41 552.8 40.9 C 553.3 40.8 553.6 40.8 553.9 40.7 C 553.9 40.7 555.5 48.3 555.5 48.3 C 555 48.4 554.3 48.6 553.3 48.8 C 552.4 49 551.3 49.2 550 49.2 C 547.5 49.3 545.4 49 543.6 48.3 C 541.7 47.5 540.3 46.3 539.3 44.8 C 538.3 43.2 537.8 41.2 537.8 38.8 C 537.81 38.83 537.8 3.4 537.8 3.4 Z M 560.4 48.7 L 560.4 12.2 L 570.6 12.2 L 570.6 48.7 L 560.4 48.7 Z M 565.5 7.5 C 564 7.5 562.7 7 561.7 6 C 560.6 5 560 3.8 560 2.4 C 560 0.9 560.6 -0.3 561.7 -1.3 C 562.7 -2.3 564 -2.8 565.5 -2.8 C 567 -2.8 568.3 -2.3 569.4 -1.3 C 570.5 -0.3 571 0.9 571 2.3 C 571 3.7 570.5 5 569.4 6 C 568.3 7 567 7.5 565.5 7.5 Z M 594.3 49.4 C 590.6 49.4 587.4 48.7 584.7 47.1 C 582 45.5 579.9 43.3 578.5 40.5 C 577 37.6 576.3 34.3 576.3 30.6 C 576.3 26.8 577 23.5 578.5 20.7 C 579.9 17.9 582 15.7 584.7 14.1 C 587.4 12.5 590.6 11.7 594.3 11.7 C 598 11.7 601.2 12.5 603.9 14.1 C 606.5 15.7 608.6 17.9 610.1 20.7 C 611.5 23.5 612.3 26.8 612.3 30.6 C 612.3 34.3 611.5 37.6 610.1 40.5 C 608.6 43.3 606.5 45.5 603.9 47.1 C 601.2 48.7 598 49.4 594.3 49.4 Z M 594.3 41.6 C 596 41.6 597.4 41.1 598.5 40.2 C 599.7 39.2 600.5 37.9 601.1 36.2 C 601.7 34.5 602 32.7 602 30.5 C 602 28.4 601.7 26.5 601.1 24.8 C 600.5 23.2 599.7 21.9 598.5 20.9 C 597.4 19.9 596 19.4 594.3 19.4 C 592.6 19.4 591.2 19.9 590.1 20.9 C 588.9 21.9 588 23.2 587.5 24.8 C 586.9 26.5 586.6 28.4 586.6 30.5 C 586.6 32.7 586.9 34.5 587.5 36.2 C 588 37.9 588.9 39.2 590.1 40.2 C 591.2 41.1 592.6 41.6 594.3 41.6 Z M 628.2 27.6 C 628.16 27.6 628.2 48.7 628.2 48.7 L 618 48.7 L 618 12.2 L 627.7 12.2 L 627.7 18.6 C 627.7 18.6 628.11 18.63 628.1 18.6 C 628.9 16.5 630.3 14.8 632.2 13.6 C 634.1 12.3 636.4 11.7 639.1 11.7 C 641.6 11.7 643.9 12.3 645.7 13.4 C 647.6 14.5 649.1 16.1 650.1 18.1 C 651.2 20.2 651.7 22.6 651.7 25.5 C 651.71 25.46 651.7 48.7 651.7 48.7 L 641.6 48.7 C 641.6 48.7 641.58 27.27 641.6 27.3 C 641.6 25 641 23.3 639.9 22 C 638.7 20.8 637.1 20.1 635.1 20.1 C 633.7 20.1 632.5 20.4 631.5 21 C 630.4 21.6 629.6 22.4 629 23.6 C 628.5 24.7 628.2 26 628.2 27.6 Z M 669.2 49.4 C 666.9 49.4 664.8 49 663 48.2 C 661.1 47.4 659.7 46.2 658.6 44.6 C 657.6 42.9 657.1 40.9 657.1 38.5 C 657.1 36.5 657.4 34.8 658.2 33.4 C 658.9 32 659.9 30.9 661.2 30.1 C 662.5 29.2 664 28.6 665.6 28.2 C 667.3 27.7 669 27.4 670.8 27.3 C 672.9 27 674.6 26.8 675.9 26.6 C 677.2 26.4 678.2 26.1 678.8 25.7 C 679.3 25.3 679.6 24.8 679.6 24 C 679.6 24 679.6 23.8 679.6 23.8 C 679.6 22.3 679.2 21.2 678.2 20.3 C 677.3 19.5 675.9 19.1 674.2 19.1 C 672.4 19.1 670.9 19.5 669.9 20.3 C 668.8 21.1 668.1 22.1 667.7 23.3 C 667.7 23.3 658.3 22.6 658.3 22.6 C 658.8 20.3 659.8 18.4 661.2 16.8 C 662.5 15.2 664.4 13.9 666.6 13 C 668.8 12.1 671.3 11.7 674.3 11.7 C 676.3 11.7 678.2 11.9 680.1 12.4 C 682 12.9 683.6 13.6 685.1 14.6 C 686.5 15.6 687.7 16.9 688.5 18.5 C 689.4 20 689.8 21.9 689.8 24.1 C 689.77 24.08 689.8 48.7 689.8 48.7 L 680.2 48.7 L 680.2 43.7 C 680.2 43.7 679.88 43.66 679.9 43.7 C 679.3 44.8 678.5 45.8 677.5 46.7 C 676.5 47.5 675.4 48.2 674 48.7 C 672.6 49.2 671 49.4 669.2 49.4 Z M 672.1 42.4 C 673.6 42.4 674.9 42.1 676 41.5 C 677.2 40.9 678.1 40.1 678.7 39.1 C 679.4 38.1 679.7 36.9 679.7 35.7 C 679.7 35.7 679.7 31.8 679.7 31.8 C 679.4 32 679 32.2 678.4 32.3 C 677.9 32.5 677.2 32.7 676.6 32.8 C 675.9 32.9 675.2 33.1 674.5 33.2 C 673.8 33.3 673.2 33.3 672.7 33.4 C 671.5 33.6 670.4 33.9 669.5 34.3 C 668.7 34.6 668 35.2 667.5 35.8 C 667 36.4 666.7 37.2 666.7 38.2 C 666.7 39.6 667.2 40.6 668.3 41.3 C 669.3 42.1 670.5 42.4 672.1 42.4 Z M 707.2 0 L 707.2 48.7 L 697.1 48.7 L 697.1 0 L 707.2 0 Z M 714.7 48.7 L 714.7 12.2 L 724.9 12.2 L 724.9 48.7 L 714.7 48.7 Z M 719.8 7.5 C 718.3 7.5 717 7 715.9 6 C 714.9 5 714.3 3.8 714.3 2.4 C 714.3 0.9 714.9 -0.3 716 -1.3 C 717 -2.3 718.3 -2.8 719.8 -2.8 C 721.3 -2.8 722.6 -2.3 723.7 -1.3 C 724.7 -0.3 725.3 0.9 725.3 2.3 C 725.3 3.7 724.7 5 723.7 6 C 722.6 7 721.3 7.5 719.8 7.5 Z M 751.1 12.2 L 751.1 19.8 L 729.1 19.8 L 729.1 12.2 L 751.1 12.2 Z M 734.1 3.4 L 744.2 3.4 C 744.2 3.4 744.24 37.5 744.2 37.5 C 744.2 38.4 744.4 39.2 744.7 39.7 C 745 40.2 745.4 40.6 745.9 40.8 C 746.4 41 747 41.1 747.7 41.1 C 748.1 41.1 748.6 41 749.1 40.9 C 749.6 40.8 749.9 40.8 750.2 40.7 C 750.2 40.7 751.8 48.3 751.8 48.3 C 751.3 48.4 750.6 48.6 749.6 48.8 C 748.7 49 747.6 49.2 746.3 49.2 C 743.8 49.3 741.7 49 739.9 48.3 C 738 47.5 736.6 46.3 735.6 44.8 C 734.6 43.2 734.1 41.2 734.1 38.8 C 734.1 38.83 734.1 3.4 734.1 3.4 Z M 763.6 62.4 C 762.3 62.4 761.1 62.3 760 62.1 C 758.9 61.9 758 61.7 757.3 61.4 C 757.3 61.4 759.5 53.8 759.5 53.8 C 760.7 54.2 761.8 54.4 762.8 54.4 C 763.7 54.4 764.6 54.2 765.3 53.7 C 766 53.3 766.5 52.5 767 51.3 C 766.98 51.32 767.6 49.8 767.6 49.8 L 754.5 12.2 L 765.1 12.2 L 772.7 39 L 773.1 39 L 780.7 12.2 L 791.4 12.2 C 791.4 12.2 777.24 52.68 777.2 52.7 C 776.6 54.6 775.6 56.4 774.5 57.8 C 773.3 59.3 771.8 60.4 770.1 61.2 C 768.3 62 766.1 62.4 763.6 62.4 Z " stroke="none" fill="#10283d"/>  </g></svg>