<?xml version="1.0" standalone="no"?><!DOCTYPE svg PUBLIC "-//W3C//DTD SVG 1.1//EN" "http://www.w3.org/Graphics/SVG/1.1/DTD/svg11.dtd"><svg xmlns="http://www.w3.org/2000/svg" version="1.1" width="228px" height="93.7px" viewBox="0 -13 228 93.7" style="top:-13px">  <desc>Incomplete data access</desc>  <defs/>  <g id="Polygon121632">    <path d="M 8.4 62 C 7 62 5.8 61.6 4.8 60.9 C 3.7 60.2 2.8 59.2 2.2 57.9 C 1.6 56.6 1.3 54.9 1.3 53 C 1.3 51 1.6 49.3 2.2 48 C 2.9 46.6 3.8 45.6 4.8 45 C 5.9 44.3 7.1 44 8.4 44 C 9.3 44 10.1 44.2 10.8 44.5 C 11.5 44.8 12 45.2 12.4 45.7 C 12.8 46.2 13.1 46.7 13.3 47.2 C 13.32 47.15 13.5 47.2 13.5 47.2 L 13.5 38.4 L 18.3 38.4 L 18.3 61.7 L 13.5 61.7 L 13.5 58.9 C 13.5 58.9 13.32 58.88 13.3 58.9 C 13.1 59.4 12.8 59.8 12.4 60.3 C 11.9 60.8 11.4 61.2 10.8 61.5 C 10.1 61.8 9.3 62 8.4 62 Z M 9.9 58.1 C 10.7 58.1 11.3 57.9 11.9 57.5 C 12.4 57 12.8 56.4 13.1 55.7 C 13.4 54.9 13.6 54 13.6 52.9 C 13.6 51.9 13.4 51 13.1 50.2 C 12.8 49.5 12.4 48.9 11.9 48.5 C 11.3 48.1 10.7 47.8 9.9 47.8 C 9.1 47.8 8.4 48.1 7.9 48.5 C 7.3 48.9 6.9 49.5 6.6 50.3 C 6.4 51.1 6.2 51.9 6.2 52.9 C 6.2 54 6.4 54.9 6.7 55.6 C 6.9 56.4 7.4 57 7.9 57.5 C 8.4 57.9 9.1 58.1 9.9 58.1 Z M 27.2 62 C 26 62 25.1 61.8 24.2 61.4 C 23.3 61 22.6 60.4 22.1 59.7 C 21.6 58.9 21.4 57.9 21.4 56.8 C 21.4 55.8 21.5 55 21.9 54.4 C 22.3 53.7 22.7 53.2 23.4 52.8 C 24 52.4 24.7 52.1 25.4 51.9 C 26.2 51.7 27.1 51.5 27.9 51.4 C 28.9 51.3 29.8 51.2 30.4 51.1 C 31 51 31.4 50.9 31.7 50.7 C 32 50.5 32.1 50.2 32.1 49.9 C 32.1 49.9 32.1 49.8 32.1 49.8 C 32.1 49.1 31.9 48.5 31.5 48.1 C 31 47.7 30.4 47.5 29.6 47.5 C 28.7 47.5 28 47.7 27.5 48.1 C 27 48.5 26.6 49 26.5 49.5 C 26.5 49.5 22 49.2 22 49.2 C 22.2 48.1 22.7 47.2 23.3 46.4 C 24 45.6 24.8 45 25.9 44.6 C 27 44.2 28.2 44 29.6 44 C 30.5 44 31.5 44.1 32.4 44.3 C 33.3 44.6 34.1 44.9 34.7 45.4 C 35.4 45.9 36 46.5 36.4 47.2 C 36.8 48 37 48.9 37 49.9 C 36.99 49.9 37 61.7 37 61.7 L 32.4 61.7 L 32.4 59.3 C 32.4 59.3 32.26 59.25 32.3 59.3 C 32 59.8 31.6 60.3 31.1 60.7 C 30.7 61.1 30.1 61.4 29.4 61.7 C 28.8 61.9 28 62 27.2 62 Z M 28.5 58.7 C 29.3 58.7 29.9 58.5 30.4 58.2 C 31 58 31.4 57.6 31.7 57.1 C 32 56.6 32.2 56 32.2 55.4 C 32.2 55.4 32.2 53.6 32.2 53.6 C 32 53.7 31.8 53.8 31.6 53.8 C 31.3 53.9 31 54 30.7 54.1 C 30.4 54.1 30 54.2 29.7 54.2 C 29.4 54.3 29.1 54.3 28.8 54.4 C 28.2 54.4 27.8 54.6 27.3 54.8 C 26.9 54.9 26.6 55.2 26.3 55.5 C 26.1 55.8 26 56.2 26 56.6 C 26 57.3 26.2 57.8 26.7 58.1 C 27.2 58.5 27.8 58.7 28.5 58.7 Z M 49.7 44.2 L 49.7 47.9 L 39.2 47.9 L 39.2 44.2 L 49.7 44.2 Z M 41.6 40 L 46.4 40 C 46.4 40 46.39 56.31 46.4 56.3 C 46.4 56.8 46.5 57.1 46.6 57.3 C 46.7 57.6 46.9 57.8 47.2 57.9 C 47.4 58 47.7 58 48 58 C 48.3 58 48.5 58 48.7 58 C 48.9 57.9 49.1 57.9 49.2 57.9 C 49.2 57.9 50 61.5 50 61.5 C 49.8 61.5 49.4 61.6 49 61.7 C 48.5 61.8 48 61.9 47.4 61.9 C 46.2 62 45.2 61.8 44.3 61.4 C 43.4 61.1 42.8 60.5 42.3 59.8 C 41.8 59 41.5 58.1 41.6 56.9 C 41.55 56.95 41.6 40 41.6 40 Z M 57.5 62 C 56.3 62 55.4 61.8 54.5 61.4 C 53.6 61 52.9 60.4 52.4 59.7 C 51.9 58.9 51.7 57.9 51.7 56.8 C 51.7 55.8 51.8 55 52.2 54.4 C 52.6 53.7 53 53.2 53.7 52.8 C 54.3 52.4 55 52.1 55.7 51.9 C 56.5 51.7 57.4 51.5 58.2 51.4 C 59.2 51.3 60.1 51.2 60.7 51.1 C 61.3 51 61.7 50.9 62 50.7 C 62.3 50.5 62.4 50.2 62.4 49.9 C 62.4 49.9 62.4 49.8 62.4 49.8 C 62.4 49.1 62.2 48.5 61.8 48.1 C 61.3 47.7 60.7 47.5 59.9 47.5 C 59 47.5 58.3 47.7 57.8 48.1 C 57.3 48.5 56.9 49 56.8 49.5 C 56.8 49.5 52.3 49.2 52.3 49.2 C 52.5 48.1 53 47.2 53.6 46.4 C 54.3 45.6 55.1 45 56.2 44.6 C 57.3 44.2 58.5 44 59.9 44 C 60.9 44 61.8 44.1 62.7 44.3 C 63.6 44.6 64.4 44.9 65 45.4 C 65.7 45.9 66.3 46.5 66.7 47.2 C 67.1 48 67.3 48.9 67.3 49.9 C 67.29 49.9 67.3 61.7 67.3 61.7 L 62.7 61.7 L 62.7 59.3 C 62.7 59.3 62.56 59.25 62.6 59.3 C 62.3 59.8 61.9 60.3 61.4 60.7 C 61 61.1 60.4 61.4 59.7 61.7 C 59.1 61.9 58.3 62 57.5 62 Z M 58.8 58.7 C 59.6 58.7 60.2 58.5 60.7 58.2 C 61.3 58 61.7 57.6 62 57.1 C 62.3 56.6 62.5 56 62.5 55.4 C 62.5 55.4 62.5 53.6 62.5 53.6 C 62.3 53.7 62.1 53.8 61.9 53.8 C 61.6 53.9 61.3 54 61 54.1 C 60.7 54.1 60.3 54.2 60 54.2 C 59.7 54.3 59.4 54.3 59.1 54.4 C 58.6 54.4 58.1 54.6 57.6 54.8 C 57.2 54.9 56.9 55.2 56.6 55.5 C 56.4 55.8 56.3 56.2 56.3 56.6 C 56.3 57.3 56.5 57.8 57 58.1 C 57.5 58.5 58.1 58.7 58.8 58.7 Z M 83.4 62 C 82.3 62 81.3 61.8 80.5 61.4 C 79.6 61 78.9 60.4 78.4 59.7 C 77.9 58.9 77.7 57.9 77.7 56.8 C 77.7 55.8 77.8 55 78.2 54.4 C 78.5 53.7 79 53.2 79.6 52.8 C 80.3 52.4 81 52.1 81.7 51.9 C 82.5 51.7 83.3 51.5 84.2 51.4 C 85.2 51.3 86 51.2 86.7 51.1 C 87.3 51 87.7 50.9 88 50.7 C 88.3 50.5 88.4 50.2 88.4 49.9 C 88.4 49.9 88.4 49.8 88.4 49.8 C 88.4 49.1 88.2 48.5 87.8 48.1 C 87.3 47.7 86.7 47.5 85.8 47.5 C 85 47.5 84.3 47.7 83.8 48.1 C 83.3 48.5 82.9 49 82.7 49.5 C 82.7 49.5 78.3 49.2 78.3 49.2 C 78.5 48.1 78.9 47.2 79.6 46.4 C 80.3 45.6 81.1 45 82.2 44.6 C 83.2 44.2 84.5 44 85.9 44 C 86.8 44 87.8 44.1 88.7 44.3 C 89.5 44.6 90.3 44.9 91 45.4 C 91.7 45.9 92.3 46.5 92.7 47.2 C 93.1 48 93.3 48.9 93.3 49.9 C 93.28 49.9 93.3 61.7 93.3 61.7 L 88.7 61.7 L 88.7 59.3 C 88.7 59.3 88.55 59.25 88.6 59.3 C 88.3 59.8 87.9 60.3 87.4 60.7 C 87 61.1 86.4 61.4 85.7 61.7 C 85.1 61.9 84.3 62 83.4 62 Z M 84.8 58.7 C 85.5 58.7 86.2 58.5 86.7 58.2 C 87.3 58 87.7 57.6 88 57.1 C 88.3 56.6 88.5 56 88.5 55.4 C 88.5 55.4 88.5 53.6 88.5 53.6 C 88.3 53.7 88.1 53.8 87.9 53.8 C 87.6 53.9 87.3 54 87 54.1 C 86.6 54.1 86.3 54.2 86 54.2 C 85.7 54.3 85.4 54.3 85.1 54.4 C 84.5 54.4 84 54.6 83.6 54.8 C 83.2 54.9 82.9 55.2 82.6 55.5 C 82.4 55.8 82.3 56.2 82.3 56.6 C 82.3 57.3 82.5 57.8 83 58.1 C 83.5 58.5 84.1 58.7 84.8 58.7 Z M 104.8 62 C 103 62 101.5 61.6 100.2 60.9 C 98.9 60.1 98 59.1 97.3 57.7 C 96.6 56.3 96.2 54.8 96.2 53 C 96.2 51.2 96.6 49.7 97.3 48.3 C 98 47 99 45.9 100.2 45.1 C 101.5 44.4 103 44 104.8 44 C 106.3 44 107.7 44.3 108.8 44.8 C 110 45.4 110.9 46.2 111.5 47.2 C 112.2 48.2 112.6 49.3 112.6 50.7 C 112.6 50.7 108.1 50.7 108.1 50.7 C 107.9 49.8 107.6 49.1 107 48.6 C 106.5 48 105.8 47.8 104.9 47.8 C 104.1 47.8 103.5 48 102.9 48.4 C 102.4 48.8 101.9 49.4 101.6 50.1 C 101.3 50.9 101.2 51.8 101.2 52.9 C 101.2 54.1 101.3 55 101.6 55.8 C 101.9 56.6 102.4 57.2 102.9 57.6 C 103.5 58 104.1 58.2 104.9 58.2 C 105.4 58.2 105.9 58.1 106.4 57.8 C 106.8 57.6 107.2 57.3 107.5 56.8 C 107.8 56.4 108 55.9 108.1 55.3 C 108.1 55.3 112.6 55.3 112.6 55.3 C 112.6 56.6 112.2 57.8 111.5 58.8 C 110.9 59.8 110 60.6 108.9 61.2 C 107.7 61.7 106.4 62 104.8 62 Z M 123.4 62 C 121.6 62 120.1 61.6 118.8 60.9 C 117.5 60.1 116.5 59.1 115.8 57.7 C 115.1 56.3 114.8 54.8 114.8 53 C 114.8 51.2 115.1 49.7 115.8 48.3 C 116.5 47 117.5 45.9 118.8 45.1 C 120.1 44.4 121.6 44 123.4 44 C 124.9 44 126.2 44.3 127.4 44.8 C 128.5 45.4 129.4 46.2 130.1 47.2 C 130.7 48.2 131.1 49.3 131.2 50.7 C 131.2 50.7 126.6 50.7 126.6 50.7 C 126.5 49.8 126.1 49.1 125.6 48.6 C 125 48 124.3 47.8 123.4 47.8 C 122.7 47.8 122 48 121.5 48.4 C 120.9 48.8 120.5 49.4 120.2 50.1 C 119.9 50.9 119.7 51.8 119.7 52.9 C 119.7 54.1 119.9 55 120.2 55.8 C 120.5 56.6 120.9 57.2 121.5 57.6 C 122 58 122.7 58.2 123.4 58.2 C 124 58.2 124.5 58.1 124.9 57.8 C 125.4 57.6 125.7 57.3 126 56.8 C 126.3 56.4 126.5 55.9 126.6 55.3 C 126.6 55.3 131.2 55.3 131.2 55.3 C 131.1 56.6 130.7 57.8 130.1 58.8 C 129.5 59.8 128.6 60.6 127.4 61.2 C 126.3 61.7 124.9 62 123.4 62 Z M 142 62 C 140.2 62 138.7 61.6 137.4 60.9 C 136.1 60.2 135.1 59.1 134.4 57.8 C 133.7 56.5 133.3 54.9 133.3 53 C 133.3 51.2 133.7 49.7 134.4 48.3 C 135.1 46.9 136.1 45.9 137.3 45.1 C 138.6 44.4 140.1 44 141.8 44 C 143 44 144 44.2 145 44.5 C 146 44.9 146.9 45.5 147.7 46.2 C 148.4 46.9 149 47.9 149.4 49 C 149.8 50.1 150 51.4 150 52.9 C 150.02 52.85 150 54.2 150 54.2 L 135.3 54.2 L 135.3 51.2 C 135.3 51.2 145.46 51.18 145.5 51.2 C 145.5 50.5 145.3 49.9 145 49.3 C 144.7 48.8 144.3 48.4 143.8 48.1 C 143.2 47.8 142.6 47.6 141.9 47.6 C 141.2 47.6 140.5 47.8 139.9 48.1 C 139.4 48.4 138.9 48.9 138.6 49.5 C 138.3 50 138.1 50.7 138.1 51.3 C 138.1 51.3 138.1 54.2 138.1 54.2 C 138.1 55.1 138.3 55.8 138.6 56.4 C 138.9 57.1 139.4 57.5 140 57.9 C 140.6 58.2 141.3 58.4 142.1 58.4 C 142.6 58.4 143.1 58.3 143.6 58.2 C 144 58 144.4 57.8 144.7 57.5 C 145 57.2 145.3 56.8 145.4 56.4 C 145.4 56.4 149.9 56.7 149.9 56.7 C 149.7 57.7 149.2 58.7 148.5 59.5 C 147.8 60.3 146.9 60.9 145.8 61.3 C 144.7 61.8 143.4 62 142 62 Z M 167.5 49.2 C 167.5 49.2 163.1 49.5 163.1 49.5 C 163 49.1 162.8 48.7 162.6 48.4 C 162.3 48.1 162 47.9 161.6 47.7 C 161.2 47.5 160.7 47.4 160.1 47.4 C 159.4 47.4 158.8 47.6 158.2 47.9 C 157.7 48.2 157.5 48.6 157.5 49.2 C 157.5 49.6 157.6 49.9 158 50.2 C 158.3 50.5 158.9 50.7 159.7 50.9 C 159.7 50.9 162.8 51.5 162.8 51.5 C 164.5 51.9 165.8 52.4 166.6 53.2 C 167.5 54 167.9 55 167.9 56.3 C 167.9 57.4 167.6 58.4 166.9 59.3 C 166.2 60.1 165.3 60.8 164.1 61.3 C 163 61.8 161.6 62 160.1 62 C 157.8 62 156 61.5 154.6 60.6 C 153.2 59.6 152.4 58.3 152.2 56.6 C 152.2 56.6 157 56.4 157 56.4 C 157.1 57.1 157.4 57.6 158 58 C 158.6 58.3 159.3 58.5 160.1 58.5 C 161 58.5 161.7 58.4 162.2 58 C 162.7 57.7 163 57.3 163 56.8 C 163 56.3 162.8 56 162.4 55.7 C 162 55.4 161.5 55.2 160.7 55 C 160.7 55 157.7 54.4 157.7 54.4 C 156 54.1 154.7 53.5 153.9 52.6 C 153.1 51.8 152.7 50.7 152.7 49.4 C 152.7 48.3 153 47.3 153.6 46.5 C 154.2 45.7 155 45.1 156.2 44.7 C 157.3 44.2 158.6 44 160.1 44 C 162.3 44 164 44.5 165.3 45.4 C 166.5 46.3 167.3 47.6 167.5 49.2 Z M 185.4 49.2 C 185.4 49.2 180.9 49.5 180.9 49.5 C 180.8 49.1 180.7 48.7 180.4 48.4 C 180.2 48.1 179.9 47.9 179.4 47.7 C 179 47.5 178.6 47.4 178 47.4 C 177.2 47.4 176.6 47.6 176.1 47.9 C 175.6 48.2 175.3 48.6 175.3 49.2 C 175.3 49.6 175.5 49.9 175.8 50.2 C 176.2 50.5 176.7 50.7 177.5 50.9 C 177.5 50.9 180.7 51.5 180.7 51.5 C 182.4 51.9 183.7 52.4 184.5 53.2 C 185.3 54 185.7 55 185.7 56.3 C 185.7 57.4 185.4 58.4 184.7 59.3 C 184.1 60.1 183.2 60.8 182 61.3 C 180.8 61.8 179.5 62 178 62 C 175.7 62 173.8 61.5 172.5 60.6 C 171.1 59.6 170.3 58.3 170.1 56.6 C 170.1 56.6 174.8 56.4 174.8 56.4 C 175 57.1 175.3 57.6 175.9 58 C 176.4 58.3 177.1 58.5 178 58.5 C 178.8 58.5 179.5 58.4 180 58 C 180.6 57.7 180.8 57.3 180.8 56.8 C 180.8 56.3 180.6 56 180.3 55.7 C 179.9 55.4 179.3 55.2 178.6 55 C 178.6 55 175.6 54.4 175.6 54.4 C 173.9 54.1 172.6 53.5 171.8 52.6 C 170.9 51.8 170.5 50.7 170.5 49.4 C 170.5 48.3 170.8 47.3 171.4 46.5 C 172 45.7 172.9 45.1 174 44.7 C 175.1 44.2 176.4 44 177.9 44 C 180.1 44 181.9 44.5 183.1 45.4 C 184.4 46.3 185.1 47.6 185.4 49.2 Z " stroke="none" fill="#ffffff"/>  </g>  <g id="Polygon121631">    <path d="M 6.9 0 L 6.9 23.3 L 2 23.3 L 2 0 L 6.9 0 Z M 16 13.2 C 15.98 13.18 16 23.3 16 23.3 L 11.1 23.3 L 11.1 5.8 L 15.8 5.8 L 15.8 8.9 C 15.8 8.9 15.96 8.9 16 8.9 C 16.3 7.9 17 7.1 17.9 6.5 C 18.8 5.9 19.9 5.6 21.2 5.6 C 22.4 5.6 23.5 5.9 24.4 6.4 C 25.3 6.9 26 7.7 26.5 8.7 C 27 9.6 27.2 10.8 27.2 12.2 C 27.23 12.16 27.2 23.3 27.2 23.3 L 22.4 23.3 C 22.4 23.3 22.39 13.02 22.4 13 C 22.4 12 22.1 11.1 21.6 10.5 C 21 9.9 20.3 9.6 19.3 9.6 C 18.6 9.6 18.1 9.8 17.6 10 C 17.1 10.3 16.7 10.7 16.4 11.3 C 16.1 11.8 16 12.4 16 13.2 Z M 38.8 23.6 C 37 23.6 35.5 23.2 34.2 22.5 C 32.9 21.7 31.9 20.7 31.2 19.3 C 30.6 17.9 30.2 16.4 30.2 14.6 C 30.2 12.8 30.6 11.3 31.3 9.9 C 32 8.6 32.9 7.5 34.2 6.7 C 35.5 6 37 5.6 38.8 5.6 C 40.3 5.6 41.6 5.9 42.8 6.4 C 43.9 7 44.8 7.8 45.5 8.8 C 46.2 9.8 46.5 10.9 46.6 12.3 C 46.6 12.3 42 12.3 42 12.3 C 41.9 11.4 41.6 10.7 41 10.2 C 40.5 9.6 39.8 9.4 38.9 9.4 C 38.1 9.4 37.5 9.6 36.9 10 C 36.4 10.4 35.9 11 35.6 11.7 C 35.3 12.5 35.1 13.4 35.1 14.5 C 35.1 15.7 35.3 16.6 35.6 17.4 C 35.9 18.2 36.3 18.8 36.9 19.2 C 37.5 19.6 38.1 19.8 38.9 19.8 C 39.4 19.8 39.9 19.7 40.4 19.4 C 40.8 19.2 41.2 18.9 41.5 18.4 C 41.8 18 41.9 17.5 42 16.9 C 42 16.9 46.6 16.9 46.6 16.9 C 46.5 18.2 46.2 19.4 45.5 20.4 C 44.9 21.4 44 22.2 42.8 22.8 C 41.7 23.3 40.4 23.6 38.8 23.6 Z M 57.4 23.6 C 55.6 23.6 54.1 23.2 52.8 22.5 C 51.5 21.7 50.5 20.7 49.8 19.3 C 49.1 18 48.8 16.4 48.8 14.6 C 48.8 12.8 49.1 11.2 49.8 9.9 C 50.5 8.5 51.5 7.5 52.8 6.7 C 54.1 6 55.6 5.6 57.4 5.6 C 59.1 5.6 60.7 6 61.9 6.7 C 63.2 7.5 64.2 8.5 64.9 9.9 C 65.6 11.2 66 12.8 66 14.6 C 66 16.4 65.6 18 64.9 19.3 C 64.2 20.7 63.2 21.7 61.9 22.5 C 60.7 23.2 59.1 23.6 57.4 23.6 Z M 57.4 19.9 C 58.2 19.9 58.9 19.6 59.4 19.2 C 59.9 18.7 60.3 18.1 60.6 17.3 C 60.9 16.5 61 15.6 61 14.6 C 61 13.6 60.9 12.7 60.6 11.9 C 60.3 11.1 59.9 10.4 59.4 10 C 58.9 9.5 58.2 9.3 57.4 9.3 C 56.6 9.3 55.9 9.5 55.3 10 C 54.8 10.4 54.4 11.1 54.1 11.9 C 53.8 12.7 53.7 13.6 53.7 14.6 C 53.7 15.6 53.8 16.5 54.1 17.3 C 54.4 18.1 54.8 18.7 55.3 19.2 C 55.9 19.6 56.6 19.9 57.4 19.9 Z M 69 23.3 L 69 5.8 L 73.6 5.8 L 73.6 8.9 C 73.6 8.9 73.84 8.9 73.8 8.9 C 74.2 7.9 74.8 7.1 75.7 6.5 C 76.5 5.9 77.5 5.6 78.7 5.6 C 79.9 5.6 80.9 5.9 81.8 6.5 C 82.6 7.1 83.2 7.9 83.4 8.9 C 83.4 8.9 83.6 8.9 83.6 8.9 C 84 7.9 84.6 7.1 85.6 6.5 C 86.5 5.9 87.6 5.6 88.9 5.6 C 90.5 5.6 91.8 6.1 92.9 7.1 C 93.9 8.2 94.4 9.6 94.4 11.5 C 94.39 11.53 94.4 23.3 94.4 23.3 L 89.6 23.3 C 89.6 23.3 89.56 12.49 89.6 12.5 C 89.6 11.5 89.3 10.8 88.8 10.3 C 88.3 9.8 87.6 9.6 86.9 9.6 C 86 9.6 85.3 9.9 84.8 10.4 C 84.3 11 84.1 11.7 84.1 12.6 C 84.06 12.61 84.1 23.3 84.1 23.3 L 79.4 23.3 C 79.4 23.3 79.37 12.39 79.4 12.4 C 79.4 11.5 79.1 10.8 78.6 10.3 C 78.1 9.8 77.5 9.6 76.7 9.6 C 76.2 9.6 75.7 9.7 75.3 10 C 74.8 10.3 74.5 10.6 74.2 11.1 C 74 11.6 73.9 12.2 73.9 12.8 C 73.87 12.8 73.9 23.3 73.9 23.3 L 69 23.3 Z M 98.2 29.8 L 98.2 5.8 L 103 5.8 L 103 8.8 C 103 8.8 103.21 8.75 103.2 8.8 C 103.4 8.3 103.7 7.8 104.1 7.3 C 104.5 6.8 105.1 6.4 105.7 6.1 C 106.4 5.8 107.2 5.6 108.2 5.6 C 109.4 5.6 110.6 5.9 111.7 6.6 C 112.8 7.2 113.6 8.2 114.3 9.6 C 114.9 10.9 115.2 12.6 115.2 14.6 C 115.2 16.5 114.9 18.2 114.3 19.5 C 113.7 20.8 112.8 21.8 111.8 22.5 C 110.7 23.2 109.5 23.6 108.2 23.6 C 107.2 23.6 106.4 23.4 105.8 23.1 C 105.1 22.8 104.6 22.4 104.2 21.9 C 103.7 21.4 103.4 21 103.2 20.5 C 103.21 20.48 103.1 20.5 103.1 20.5 L 103.1 29.8 L 98.2 29.8 Z M 103 14.5 C 103 15.6 103.1 16.5 103.4 17.3 C 103.7 18 104.1 18.6 104.6 19.1 C 105.2 19.5 105.8 19.7 106.6 19.7 C 107.4 19.7 108.1 19.5 108.6 19.1 C 109.2 18.6 109.6 18 109.9 17.2 C 110.2 16.5 110.3 15.6 110.3 14.5 C 110.3 13.5 110.2 12.7 109.9 11.9 C 109.6 11.1 109.2 10.5 108.6 10.1 C 108.1 9.7 107.4 9.4 106.6 9.4 C 105.8 9.4 105.2 9.7 104.6 10.1 C 104.1 10.5 103.7 11.1 103.4 11.8 C 103.1 12.6 103 13.5 103 14.5 Z M 123.3 0 L 123.3 23.3 L 118.5 23.3 L 118.5 0 L 123.3 0 Z M 135.1 23.6 C 133.3 23.6 131.7 23.2 130.5 22.5 C 129.2 21.8 128.2 20.7 127.5 19.4 C 126.8 18.1 126.4 16.5 126.4 14.6 C 126.4 12.8 126.8 11.3 127.5 9.9 C 128.2 8.5 129.1 7.5 130.4 6.7 C 131.7 6 133.2 5.6 134.9 5.6 C 136 5.6 137.1 5.8 138.1 6.1 C 139.1 6.5 140 7.1 140.7 7.8 C 141.5 8.5 142.1 9.5 142.5 10.6 C 142.9 11.7 143.1 13 143.1 14.5 C 143.09 14.45 143.1 15.8 143.1 15.8 L 128.4 15.8 L 128.4 12.8 C 128.4 12.8 138.54 12.78 138.5 12.8 C 138.5 12.1 138.4 11.5 138.1 10.9 C 137.8 10.4 137.4 10 136.8 9.7 C 136.3 9.4 135.7 9.2 135 9.2 C 134.2 9.2 133.6 9.4 133 9.7 C 132.5 10 132 10.5 131.7 11.1 C 131.4 11.6 131.2 12.3 131.2 12.9 C 131.2 12.9 131.2 15.8 131.2 15.8 C 131.2 16.7 131.4 17.4 131.7 18 C 132 18.7 132.5 19.1 133.1 19.5 C 133.7 19.8 134.4 20 135.2 20 C 135.7 20 136.2 19.9 136.6 19.8 C 137.1 19.6 137.5 19.4 137.8 19.1 C 138.1 18.8 138.3 18.4 138.5 18 C 138.5 18 143 18.3 143 18.3 C 142.8 19.3 142.3 20.3 141.6 21.1 C 140.9 21.9 140 22.5 138.9 22.9 C 137.8 23.4 136.5 23.6 135.1 23.6 Z M 155.1 5.8 L 155.1 9.5 L 144.6 9.5 L 144.6 5.8 L 155.1 5.8 Z M 147 1.6 L 151.8 1.6 C 151.8 1.6 151.84 17.91 151.8 17.9 C 151.8 18.4 151.9 18.7 152 18.9 C 152.2 19.2 152.4 19.4 152.6 19.5 C 152.9 19.6 153.2 19.6 153.5 19.6 C 153.7 19.6 153.9 19.6 154.2 19.6 C 154.4 19.5 154.6 19.5 154.7 19.5 C 154.7 19.5 155.4 23.1 155.4 23.1 C 155.2 23.1 154.9 23.2 154.4 23.3 C 154 23.4 153.4 23.5 152.8 23.5 C 151.7 23.6 150.6 23.4 149.8 23 C 148.9 22.7 148.2 22.1 147.7 21.4 C 147.2 20.6 147 19.7 147 18.5 C 147 18.55 147 1.6 147 1.6 Z M 165.6 23.6 C 163.8 23.6 162.2 23.2 160.9 22.5 C 159.6 21.8 158.6 20.7 157.9 19.4 C 157.3 18.1 156.9 16.5 156.9 14.6 C 156.9 12.8 157.3 11.3 157.9 9.9 C 158.6 8.5 159.6 7.5 160.9 6.7 C 162.2 6 163.7 5.6 165.4 5.6 C 166.5 5.6 167.6 5.8 168.6 6.1 C 169.6 6.5 170.5 7.1 171.2 7.8 C 171.9 8.5 172.5 9.5 172.9 10.6 C 173.4 11.7 173.6 13 173.6 14.5 C 173.57 14.45 173.6 15.8 173.6 15.8 L 158.8 15.8 L 158.8 12.8 C 158.8 12.8 169.02 12.78 169 12.8 C 169 12.1 168.9 11.5 168.6 10.9 C 168.3 10.4 167.8 10 167.3 9.7 C 166.8 9.4 166.2 9.2 165.4 9.2 C 164.7 9.2 164.1 9.4 163.5 9.7 C 162.9 10 162.5 10.5 162.2 11.1 C 161.9 11.6 161.7 12.3 161.7 12.9 C 161.7 12.9 161.7 15.8 161.7 15.8 C 161.7 16.7 161.8 17.4 162.2 18 C 162.5 18.7 162.9 19.1 163.5 19.5 C 164.1 19.8 164.8 20 165.6 20 C 166.2 20 166.7 19.9 167.1 19.8 C 167.6 19.6 167.9 19.4 168.3 19.1 C 168.6 18.8 168.8 18.4 169 18 C 169 18 173.5 18.3 173.5 18.3 C 173.2 19.3 172.8 20.3 172.1 21.1 C 171.4 21.9 170.5 22.5 169.4 22.9 C 168.3 23.4 167 23.6 165.6 23.6 Z " stroke="none" fill="#ffffff"/>  </g></svg>