<?xml version="1.0" standalone="no"?><!DOCTYPE svg PUBLIC "-//W3C//DTD SVG 1.1//EN" "http://www.w3.org/Graphics/SVG/1.1/DTD/svg11.dtd"><svg xmlns="http://www.w3.org/2000/svg" version="1.1" width="94px" height="35.7px" viewBox="0 -8 94 35.7" style="top:-8px">  <desc>Start now</desc>  <defs/>  <g id="Polygon107315">    <path d="M 8.8 4 C 8.7 3.5 8.5 3 8.1 2.7 C 7.7 2.4 7.1 2.3 6.4 2.3 C 5.9 2.3 5.5 2.3 5.2 2.5 C 4.8 2.6 4.6 2.8 4.4 3 C 4.2 3.3 4.2 3.5 4.2 3.8 C 4.1 4.1 4.2 4.3 4.3 4.5 C 4.4 4.7 4.6 4.8 4.8 5 C 5 5.1 5.2 5.2 5.5 5.3 C 5.8 5.4 6.1 5.5 6.4 5.6 C 6.4 5.6 7.6 5.9 7.6 5.9 C 8.2 6 8.8 6.2 9.3 6.4 C 9.8 6.6 10.2 6.9 10.6 7.3 C 11 7.6 11.3 8 11.5 8.4 C 11.7 8.9 11.8 9.4 11.8 10 C 11.8 10.8 11.6 11.6 11.2 12.2 C 10.7 12.8 10.1 13.3 9.3 13.6 C 8.5 14 7.5 14.2 6.4 14.2 C 5.3 14.2 4.3 14 3.4 13.6 C 2.6 13.3 2 12.8 1.5 12.1 C 1 11.4 0.8 10.6 0.8 9.6 C 0.8 9.6 3.6 9.6 3.6 9.6 C 3.7 10 3.8 10.4 4 10.7 C 4.3 11.1 4.6 11.3 5 11.5 C 5.4 11.6 5.8 11.7 6.4 11.7 C 6.9 11.7 7.3 11.6 7.7 11.5 C 8 11.3 8.3 11.1 8.5 10.9 C 8.7 10.6 8.8 10.3 8.8 10 C 8.8 9.7 8.7 9.4 8.6 9.2 C 8.4 9 8.1 8.8 7.7 8.6 C 7.4 8.5 7 8.3 6.5 8.2 C 6.5 8.2 4.9 7.8 4.9 7.8 C 3.8 7.6 2.8 7.1 2.1 6.5 C 1.5 5.9 1.1 5.1 1.1 4 C 1.1 3.2 1.4 2.5 1.8 1.8 C 2.3 1.2 2.9 0.7 3.7 0.3 C 4.5 0 5.4 -0.2 6.4 -0.2 C 7.5 -0.2 8.4 0 9.1 0.3 C 9.9 0.7 10.5 1.2 11 1.8 C 11.4 2.5 11.6 3.2 11.6 4 C 11.6 4 8.8 4 8.8 4 Z M 19.3 3.5 L 19.3 5.7 L 13 5.7 L 13 3.5 L 19.3 3.5 Z M 14.5 1 L 17.4 1 C 17.4 1 17.37 10.75 17.4 10.7 C 17.4 11 17.4 11.2 17.5 11.4 C 17.6 11.5 17.7 11.6 17.8 11.7 C 18 11.7 18.2 11.8 18.4 11.8 C 18.5 11.8 18.6 11.8 18.8 11.7 C 18.9 11.7 19 11.7 19.1 11.7 C 19.1 11.7 19.5 13.8 19.5 13.8 C 19.4 13.9 19.2 13.9 18.9 14 C 18.7 14.1 18.3 14.1 18 14.1 C 17.3 14.1 16.6 14 16.1 13.8 C 15.6 13.6 15.2 13.3 14.9 12.8 C 14.6 12.4 14.5 11.8 14.5 11.1 C 14.47 11.13 14.5 1 14.5 1 Z M 24 14.2 C 23.3 14.2 22.7 14 22.2 13.8 C 21.7 13.6 21.3 13.2 21 12.8 C 20.7 12.3 20.5 11.7 20.5 11 C 20.5 10.5 20.6 10 20.9 9.6 C 21.1 9.2 21.4 8.9 21.7 8.6 C 22.1 8.4 22.5 8.2 23 8.1 C 23.5 8 24 7.9 24.5 7.8 C 25.1 7.8 25.6 7.7 25.9 7.6 C 26.3 7.6 26.6 7.5 26.8 7.4 C 26.9 7.3 27 7.1 27 6.9 C 27 6.9 27 6.8 27 6.8 C 27 6.4 26.9 6.1 26.6 5.8 C 26.3 5.6 25.9 5.5 25.5 5.5 C 24.9 5.5 24.5 5.6 24.2 5.8 C 23.9 6 23.7 6.3 23.6 6.7 C 23.6 6.7 20.9 6.5 20.9 6.5 C 21 5.8 21.3 5.3 21.7 4.8 C 22.1 4.3 22.6 4 23.3 3.7 C 23.9 3.5 24.6 3.4 25.5 3.4 C 26 3.4 26.6 3.4 27.1 3.6 C 27.7 3.7 28.1 3.9 28.6 4.2 C 29 4.5 29.3 4.8 29.5 5.3 C 29.8 5.7 29.9 6.3 29.9 6.9 C 29.91 6.9 29.9 14 29.9 14 L 27.2 14 L 27.2 12.5 C 27.2 12.5 27.07 12.51 27.1 12.5 C 26.9 12.8 26.7 13.1 26.4 13.4 C 26.1 13.6 25.8 13.8 25.4 14 C 25 14.1 24.5 14.2 24 14.2 Z M 24.8 12.2 C 25.3 12.2 25.6 12.1 26 11.9 C 26.3 11.7 26.6 11.5 26.7 11.2 C 26.9 10.9 27 10.6 27 10.2 C 27 10.2 27 9.1 27 9.1 C 26.9 9.2 26.8 9.2 26.7 9.3 C 26.5 9.3 26.3 9.4 26.1 9.4 C 25.9 9.4 25.7 9.5 25.5 9.5 C 25.3 9.5 25.2 9.6 25 9.6 C 24.7 9.6 24.4 9.7 24.1 9.8 C 23.9 9.9 23.7 10.1 23.5 10.3 C 23.4 10.4 23.3 10.7 23.3 10.9 C 23.3 11.3 23.5 11.6 23.7 11.8 C 24 12.1 24.4 12.2 24.8 12.2 Z M 32.2 14 L 32.2 3.5 L 35 3.5 L 35 5.3 C 35 5.3 35.13 5.32 35.1 5.3 C 35.3 4.7 35.6 4.2 36.1 3.8 C 36.5 3.5 37.1 3.3 37.6 3.3 C 37.8 3.3 37.9 3.4 38.1 3.4 C 38.3 3.4 38.4 3.4 38.6 3.4 C 38.6 3.4 38.6 6 38.6 6 C 38.4 6 38.2 5.9 38 5.9 C 37.7 5.9 37.5 5.9 37.3 5.9 C 36.9 5.9 36.5 6 36.2 6.1 C 35.9 6.3 35.6 6.6 35.4 6.9 C 35.2 7.2 35.1 7.6 35.1 8 C 35.11 8.04 35.1 14 35.1 14 L 32.2 14 Z M 45.9 3.5 L 45.9 5.7 L 39.6 5.7 L 39.6 3.5 L 45.9 3.5 Z M 41 1 L 43.9 1 C 43.9 1 43.9 10.75 43.9 10.7 C 43.9 11 43.9 11.2 44 11.4 C 44.1 11.5 44.2 11.6 44.4 11.7 C 44.5 11.7 44.7 11.8 44.9 11.8 C 45 11.8 45.2 11.8 45.3 11.7 C 45.4 11.7 45.5 11.7 45.6 11.7 C 45.6 11.7 46.1 13.8 46.1 13.8 C 45.9 13.9 45.7 13.9 45.4 14 C 45.2 14.1 44.9 14.1 44.5 14.1 C 43.8 14.1 43.2 14 42.6 13.8 C 42.1 13.6 41.7 13.3 41.4 12.8 C 41.1 12.4 41 11.8 41 11.1 C 40.99 11.13 41 1 41 1 Z M 55.1 7.9 C 55.11 7.91 55.1 14 55.1 14 L 52.2 14 L 52.2 3.5 L 55 3.5 L 55 5.3 C 55 5.3 55.1 5.34 55.1 5.3 C 55.3 4.7 55.7 4.2 56.3 3.9 C 56.8 3.5 57.5 3.4 58.2 3.4 C 59 3.4 59.6 3.5 60.2 3.8 C 60.7 4.2 61.1 4.6 61.4 5.2 C 61.7 5.8 61.9 6.5 61.9 7.3 C 61.86 7.3 61.9 14 61.9 14 L 59 14 C 59 14 58.96 7.81 59 7.8 C 59 7.2 58.8 6.7 58.5 6.3 C 58.1 5.9 57.7 5.8 57.1 5.8 C 56.7 5.8 56.4 5.9 56.1 6 C 55.8 6.2 55.5 6.4 55.4 6.8 C 55.2 7.1 55.1 7.5 55.1 7.9 Z M 68.8 14.2 C 67.8 14.2 66.8 13.9 66.1 13.5 C 65.3 13 64.7 12.4 64.3 11.6 C 63.9 10.8 63.7 9.8 63.7 8.8 C 63.7 7.7 63.9 6.7 64.3 5.9 C 64.7 5.1 65.3 4.5 66.1 4 C 66.8 3.6 67.8 3.4 68.8 3.4 C 69.9 3.4 70.8 3.6 71.6 4 C 72.3 4.5 72.9 5.1 73.3 5.9 C 73.8 6.7 74 7.7 74 8.8 C 74 9.8 73.8 10.8 73.3 11.6 C 72.9 12.4 72.3 13 71.6 13.5 C 70.8 13.9 69.9 14.2 68.8 14.2 Z M 68.8 11.9 C 69.3 11.9 69.7 11.8 70 11.5 C 70.4 11.2 70.6 10.9 70.8 10.4 C 70.9 9.9 71 9.4 71 8.7 C 71 8.1 70.9 7.6 70.8 7.1 C 70.6 6.6 70.4 6.3 70 6 C 69.7 5.7 69.3 5.6 68.8 5.6 C 68.3 5.6 67.9 5.7 67.6 6 C 67.3 6.3 67 6.6 66.9 7.1 C 66.7 7.6 66.6 8.1 66.6 8.7 C 66.6 9.4 66.7 9.9 66.9 10.4 C 67 10.9 67.3 11.2 67.6 11.5 C 67.9 11.8 68.3 11.9 68.8 11.9 Z M 77.5 14 L 74.6 3.5 L 77.6 3.5 L 79.2 10.5 L 79.3 10.5 L 81 3.5 L 83.9 3.5 L 85.6 10.5 L 85.7 10.5 L 87.3 3.5 L 90.2 3.5 L 87.4 14 L 84.3 14 L 82.5 7.4 L 82.4 7.4 L 80.6 14 L 77.5 14 Z " stroke="none" fill="#10283d"/>  </g></svg>