<?xml version="1.0" standalone="no"?><!DOCTYPE svg PUBLIC "-//W3C//DTD SVG 1.1//EN" "http://www.w3.org/Graphics/SVG/1.1/DTD/svg11.dtd"><svg xmlns="http://www.w3.org/2000/svg" version="1.1" width="300px" height="98.8px" viewBox="0 -10 300 98.8" style="top:-10px">  <desc>Right fit, AI infused scenario planning and analysis must be able to:</desc>  <defs/>  <g id="Polygon125716">    <path d="M 17.4 75.4 C 16.5 75.4 15.8 75.2 15.1 74.9 C 14.4 74.6 13.9 74.1 13.5 73.5 C 13.1 72.9 12.9 72.2 12.9 71.3 C 12.9 70.6 13 70 13.3 69.5 C 13.6 69 14 68.7 14.5 68.4 C 15 68.1 15.6 67.9 16.2 67.8 C 16.8 67.7 17.4 67.6 18 67.5 C 18.8 67.4 19.4 67.3 19.9 67.3 C 20.4 67.2 20.8 67.1 21 67 C 21.2 66.8 21.3 66.6 21.3 66.3 C 21.3 66.3 21.3 66.2 21.3 66.2 C 21.3 65.4 21.1 64.7 20.7 64.3 C 20.2 63.8 19.5 63.6 18.6 63.6 C 17.6 63.6 16.9 63.8 16.3 64.2 C 15.8 64.6 15.4 65.1 15.2 65.5 C 15.2 65.5 13.3 64.9 13.3 64.9 C 13.6 64.1 14.1 63.4 14.6 63 C 15.2 62.6 15.8 62.2 16.5 62.1 C 17.2 61.9 17.9 61.8 18.5 61.8 C 18.9 61.8 19.4 61.8 20 61.9 C 20.5 62 21 62.2 21.6 62.6 C 22.1 62.9 22.5 63.3 22.8 63.9 C 23.2 64.6 23.4 65.4 23.4 66.4 C 23.35 66.43 23.4 75.1 23.4 75.1 L 21.3 75.1 L 21.3 73.3 C 21.3 73.3 21.24 73.28 21.2 73.3 C 21.1 73.6 20.9 73.9 20.6 74.2 C 20.2 74.5 19.8 74.8 19.3 75 C 18.8 75.2 18.1 75.4 17.4 75.4 Z M 17.7 73.6 C 18.5 73.6 19.1 73.4 19.7 73.1 C 20.2 72.8 20.6 72.4 20.9 71.9 C 21.2 71.4 21.3 70.9 21.3 70.3 C 21.3 70.3 21.3 68.5 21.3 68.5 C 21.3 68.6 21.1 68.7 20.8 68.8 C 20.5 68.8 20.2 68.9 19.8 69 C 19.4 69 19.1 69.1 18.7 69.1 C 18.4 69.2 18.1 69.2 17.9 69.2 C 17.3 69.3 16.9 69.4 16.4 69.6 C 16 69.7 15.6 69.9 15.3 70.2 C 15 70.5 14.9 70.9 14.9 71.4 C 14.9 72.1 15.2 72.7 15.7 73 C 16.2 73.4 16.9 73.6 17.7 73.6 Z M 29 67.2 C 28.96 67.18 29 75.1 29 75.1 L 26.9 75.1 L 26.9 62 L 28.9 62 L 28.9 64 C 28.9 64 29.06 64.01 29.1 64 C 29.4 63.3 29.8 62.8 30.5 62.4 C 31.1 62 31.9 61.8 32.9 61.8 C 33.8 61.8 34.5 62 35.2 62.3 C 35.9 62.7 36.4 63.2 36.8 64 C 37.1 64.7 37.3 65.6 37.3 66.7 C 37.31 66.74 37.3 75.1 37.3 75.1 L 35.3 75.1 C 35.3 75.1 35.3 66.87 35.3 66.9 C 35.3 65.8 35 65 34.5 64.5 C 34 63.9 33.2 63.6 32.3 63.6 C 31.7 63.6 31.1 63.7 30.6 64 C 30.1 64.3 29.7 64.7 29.4 65.2 C 29.1 65.8 29 66.4 29 67.2 Z M 44.6 75.4 C 43.8 75.4 43 75.2 42.4 74.9 C 41.7 74.6 41.2 74.1 40.8 73.5 C 40.4 72.9 40.2 72.2 40.2 71.3 C 40.2 70.6 40.3 70 40.6 69.5 C 40.9 69 41.3 68.7 41.8 68.4 C 42.3 68.1 42.8 67.9 43.4 67.8 C 44 67.7 44.6 67.6 45.2 67.5 C 46 67.4 46.7 67.3 47.2 67.3 C 47.7 67.2 48 67.1 48.3 67 C 48.5 66.8 48.6 66.6 48.6 66.3 C 48.6 66.3 48.6 66.2 48.6 66.2 C 48.6 65.4 48.4 64.7 47.9 64.3 C 47.5 63.8 46.8 63.6 45.9 63.6 C 44.9 63.6 44.1 63.8 43.6 64.2 C 43.1 64.6 42.7 65.1 42.4 65.5 C 42.4 65.5 40.5 64.9 40.5 64.9 C 40.9 64.1 41.3 63.4 41.9 63 C 42.5 62.6 43.1 62.2 43.8 62.1 C 44.5 61.9 45.1 61.8 45.8 61.8 C 46.2 61.8 46.7 61.8 47.2 61.9 C 47.8 62 48.3 62.2 48.8 62.6 C 49.4 62.9 49.8 63.3 50.1 63.9 C 50.5 64.6 50.6 65.4 50.6 66.4 C 50.63 66.43 50.6 75.1 50.6 75.1 L 48.6 75.1 L 48.6 73.3 C 48.6 73.3 48.52 73.28 48.5 73.3 C 48.4 73.6 48.2 73.9 47.8 74.2 C 47.5 74.5 47.1 74.8 46.6 75 C 46 75.2 45.4 75.4 44.6 75.4 Z M 44.9 73.6 C 45.7 73.6 46.4 73.4 47 73.1 C 47.5 72.8 47.9 72.4 48.2 71.9 C 48.5 71.4 48.6 70.9 48.6 70.3 C 48.6 70.3 48.6 68.5 48.6 68.5 C 48.5 68.6 48.3 68.7 48.1 68.8 C 47.8 68.8 47.4 68.9 47.1 69 C 46.7 69 46.3 69.1 46 69.1 C 45.6 69.2 45.4 69.2 45.1 69.2 C 44.6 69.3 44.1 69.4 43.7 69.6 C 43.2 69.7 42.9 69.9 42.6 70.2 C 42.3 70.5 42.2 70.9 42.2 71.4 C 42.2 72.1 42.4 72.7 43 73 C 43.5 73.4 44.1 73.6 44.9 73.6 Z M 56.2 57.6 L 56.2 75.1 L 54.2 75.1 L 54.2 57.6 L 56.2 57.6 Z M 61 80 C 60.7 80 60.4 79.9 60.1 79.9 C 59.8 79.8 59.6 79.8 59.5 79.7 C 59.5 79.7 60 78 60 78 C 60.5 78.1 61 78.1 61.3 78.1 C 61.7 78.1 62.1 77.9 62.3 77.6 C 62.6 77.3 62.9 76.8 63.2 76.1 C 63.15 76.15 63.5 75.1 63.5 75.1 L 58.7 62 L 60.9 62 L 64.5 72.4 L 64.6 72.4 L 68.2 62 L 70.4 62 C 70.4 62 64.86 76.96 64.9 77 C 64.6 77.6 64.3 78.2 63.9 78.6 C 63.6 79.1 63.1 79.4 62.6 79.6 C 62.2 79.9 61.6 80 61 80 Z M 81.8 64.9 C 81.8 64.9 80 65.4 80 65.4 C 79.8 65.1 79.7 64.8 79.5 64.5 C 79.2 64.2 78.9 64 78.6 63.8 C 78.2 63.6 77.7 63.5 77.1 63.5 C 76.3 63.5 75.7 63.7 75.1 64.1 C 74.6 64.4 74.3 64.9 74.3 65.5 C 74.3 66 74.5 66.4 74.9 66.7 C 75.2 66.9 75.8 67.2 76.6 67.4 C 76.6 67.4 78.5 67.9 78.5 67.9 C 79.7 68.1 80.6 68.6 81.1 69.2 C 81.7 69.7 82 70.5 82 71.4 C 82 72.2 81.8 72.8 81.4 73.4 C 80.9 74 80.3 74.5 79.6 74.8 C 78.8 75.2 77.9 75.3 76.9 75.3 C 75.6 75.3 74.4 75 73.6 74.5 C 72.7 73.9 72.1 73 71.9 71.9 C 71.9 71.9 73.8 71.4 73.8 71.4 C 74 72.1 74.3 72.7 74.9 73 C 75.4 73.4 76 73.6 76.9 73.6 C 77.8 73.6 78.5 73.4 79.1 73 C 79.6 72.6 79.9 72.1 79.9 71.5 C 79.9 71.1 79.8 70.7 79.4 70.4 C 79.1 70.1 78.6 69.8 78 69.7 C 78 69.7 75.8 69.2 75.8 69.2 C 74.6 68.9 73.7 68.4 73.2 67.8 C 72.6 67.2 72.3 66.5 72.3 65.6 C 72.3 64.8 72.5 64.2 72.9 63.6 C 73.4 63 73.9 62.6 74.7 62.3 C 75.4 62 76.2 61.8 77.1 61.8 C 78.4 61.8 79.4 62.1 80.2 62.6 C 80.9 63.2 81.5 64 81.8 64.9 Z M 84.9 75.1 L 84.9 62 L 86.9 62 L 86.9 75.1 L 84.9 75.1 Z M 85.9 59.8 C 85.5 59.8 85.2 59.6 84.9 59.4 C 84.6 59.1 84.4 58.8 84.4 58.4 C 84.4 58 84.6 57.7 84.9 57.5 C 85.2 57.2 85.5 57.1 85.9 57.1 C 86.3 57.1 86.6 57.2 86.9 57.5 C 87.2 57.7 87.3 58 87.3 58.4 C 87.3 58.8 87.2 59.1 86.9 59.4 C 86.6 59.6 86.3 59.8 85.9 59.8 Z M 99.6 64.9 C 99.6 64.9 97.8 65.4 97.8 65.4 C 97.7 65.1 97.5 64.8 97.3 64.5 C 97.1 64.2 96.8 64 96.4 63.8 C 96 63.6 95.6 63.5 95 63.5 C 94.2 63.5 93.5 63.7 93 64.1 C 92.4 64.4 92.2 64.9 92.2 65.5 C 92.2 66 92.4 66.4 92.7 66.7 C 93.1 66.9 93.7 67.2 94.4 67.4 C 94.4 67.4 96.4 67.9 96.4 67.9 C 97.5 68.1 98.4 68.6 99 69.2 C 99.6 69.7 99.9 70.5 99.9 71.4 C 99.9 72.2 99.6 72.8 99.2 73.4 C 98.8 74 98.2 74.5 97.4 74.8 C 96.6 75.2 95.8 75.3 94.7 75.3 C 93.4 75.3 92.3 75 91.4 74.5 C 90.5 73.9 90 73 89.8 71.9 C 89.8 71.9 91.7 71.4 91.7 71.4 C 91.9 72.1 92.2 72.7 92.7 73 C 93.2 73.4 93.9 73.6 94.7 73.6 C 95.6 73.6 96.4 73.4 96.9 73 C 97.5 72.6 97.8 72.1 97.8 71.5 C 97.8 71.1 97.6 70.7 97.3 70.4 C 97 70.1 96.5 69.8 95.8 69.7 C 95.8 69.7 93.6 69.2 93.6 69.2 C 92.5 68.9 91.6 68.4 91 67.8 C 90.5 67.2 90.2 66.5 90.2 65.6 C 90.2 64.8 90.4 64.2 90.8 63.6 C 91.2 63 91.8 62.6 92.5 62.3 C 93.2 62 94.1 61.8 95 61.8 C 96.3 61.8 97.3 62.1 98 62.6 C 98.8 63.2 99.3 64 99.6 64.9 Z M 109.6 75.1 L 109.6 62 L 111.6 62 L 111.6 64 C 111.6 64 111.75 64.01 111.8 64 C 112 63.3 112.5 62.8 113.1 62.4 C 113.7 62 114.4 61.8 115.3 61.8 C 116.1 61.8 116.8 62 117.4 62.4 C 118 62.8 118.5 63.3 118.8 64 C 118.8 64 118.9 64 118.9 64 C 119.2 63.3 119.7 62.8 120.4 62.4 C 121.1 62 121.9 61.8 122.8 61.8 C 124 61.8 125 62.2 125.7 62.9 C 126.4 63.6 126.8 64.8 126.8 66.3 C 126.82 66.29 126.8 75.1 126.8 75.1 L 124.8 75.1 C 124.8 75.1 124.81 66.29 124.8 66.3 C 124.8 65.3 124.5 64.6 124 64.2 C 123.5 63.8 122.9 63.6 122.1 63.6 C 121.2 63.6 120.5 63.9 120 64.4 C 119.5 65 119.3 65.7 119.3 66.5 C 119.25 66.53 119.3 75.1 119.3 75.1 L 117.2 75.1 C 117.2 75.1 117.21 66.09 117.2 66.1 C 117.2 65.3 117 64.7 116.5 64.3 C 116 63.8 115.4 63.6 114.6 63.6 C 114.1 63.6 113.6 63.7 113.2 64 C 112.7 64.3 112.3 64.7 112.1 65.2 C 111.8 65.7 111.6 66.2 111.6 66.9 C 111.65 66.87 111.6 75.1 111.6 75.1 L 109.6 75.1 Z M 138.6 69.7 C 138.57 69.7 138.6 62 138.6 62 L 140.6 62 L 140.6 75.1 L 138.6 75.1 L 138.6 72.8 C 138.6 72.8 138.44 72.84 138.4 72.8 C 138.1 73.5 137.7 74.1 137 74.5 C 136.4 75 135.5 75.2 134.6 75.2 C 133.7 75.2 133 75 132.4 74.7 C 131.7 74.3 131.2 73.8 130.9 73 C 130.5 72.3 130.3 71.4 130.3 70.3 C 130.32 70.28 130.3 62 130.3 62 L 132.3 62 C 132.3 62 132.34 70.15 132.3 70.1 C 132.3 71.1 132.6 71.9 133.1 72.4 C 133.7 73 134.4 73.3 135.2 73.3 C 135.7 73.3 136.2 73.2 136.7 72.9 C 137.2 72.6 137.7 72.3 138 71.7 C 138.4 71.2 138.6 70.5 138.6 69.7 Z M 153.3 64.9 C 153.3 64.9 151.5 65.4 151.5 65.4 C 151.4 65.1 151.2 64.8 151 64.5 C 150.8 64.2 150.5 64 150.1 63.8 C 149.8 63.6 149.3 63.5 148.7 63.5 C 147.9 63.5 147.2 63.7 146.7 64.1 C 146.2 64.4 145.9 64.9 145.9 65.5 C 145.9 66 146.1 66.4 146.4 66.7 C 146.8 66.9 147.4 67.2 148.1 67.4 C 148.1 67.4 150.1 67.9 150.1 67.9 C 151.3 68.1 152.1 68.6 152.7 69.2 C 153.3 69.7 153.6 70.5 153.6 71.4 C 153.6 72.2 153.3 72.8 152.9 73.4 C 152.5 74 151.9 74.5 151.1 74.8 C 150.4 75.2 149.5 75.3 148.4 75.3 C 147.1 75.3 146 75 145.1 74.5 C 144.3 73.9 143.7 73 143.5 71.9 C 143.5 71.9 145.4 71.4 145.4 71.4 C 145.6 72.1 145.9 72.7 146.4 73 C 146.9 73.4 147.6 73.6 148.4 73.6 C 149.3 73.6 150.1 73.4 150.6 73 C 151.2 72.6 151.5 72.1 151.5 71.5 C 151.5 71.1 151.3 70.7 151 70.4 C 150.7 70.1 150.2 69.8 149.5 69.7 C 149.5 69.7 147.4 69.2 147.4 69.2 C 146.2 68.9 145.3 68.4 144.7 67.8 C 144.2 67.2 143.9 66.5 143.9 65.6 C 143.9 64.8 144.1 64.2 144.5 63.6 C 144.9 63 145.5 62.6 146.2 62.3 C 146.9 62 147.8 61.8 148.7 61.8 C 150 61.8 151 62.1 151.7 62.6 C 152.5 63.2 153 64 153.3 64.9 Z M 162.1 62 L 162.1 63.7 L 155.3 63.7 L 155.3 62 L 162.1 62 Z M 157.3 58.8 L 159.3 58.8 C 159.3 58.8 159.33 71.3 159.3 71.3 C 159.3 71.9 159.4 72.3 159.6 72.6 C 159.7 72.9 160 73 160.2 73.1 C 160.5 73.2 160.8 73.3 161.1 73.3 C 161.3 73.3 161.5 73.3 161.6 73.2 C 161.8 73.2 161.9 73.2 162 73.2 C 162 73.2 162.4 75 162.4 75 C 162.2 75 162 75.1 161.8 75.1 C 161.5 75.2 161.2 75.2 160.9 75.2 C 160.3 75.2 159.7 75.1 159.2 74.9 C 158.7 74.6 158.2 74.2 157.8 73.7 C 157.5 73.2 157.3 72.6 157.3 71.9 C 157.31 71.85 157.3 58.8 157.3 58.8 Z M 172.2 75.1 L 172.2 57.6 L 174.2 57.6 L 174.2 64 C 174.2 64 174.36 64.04 174.4 64 C 174.5 63.8 174.7 63.5 175 63.2 C 175.2 62.8 175.6 62.5 176.1 62.2 C 176.6 61.9 177.3 61.8 178.1 61.8 C 179.2 61.8 180.2 62.1 181.1 62.6 C 181.9 63.2 182.6 64 183 65 C 183.5 66 183.7 67.2 183.7 68.5 C 183.7 69.9 183.5 71.1 183 72.1 C 182.6 73.2 181.9 73.9 181.1 74.5 C 180.2 75.1 179.3 75.3 178.2 75.3 C 177.3 75.3 176.7 75.2 176.2 74.9 C 175.7 74.6 175.3 74.3 175 73.9 C 174.7 73.6 174.5 73.3 174.4 73 C 174.36 73.04 174.1 73 174.1 73 L 174.1 75.1 L 172.2 75.1 Z M 174.2 68.5 C 174.2 69.5 174.3 70.4 174.6 71.1 C 174.9 71.9 175.3 72.5 175.9 72.9 C 176.4 73.3 177.1 73.5 177.9 73.5 C 178.7 73.5 179.4 73.3 180 72.9 C 180.6 72.4 181 71.8 181.3 71 C 181.6 70.3 181.7 69.4 181.7 68.5 C 181.7 67.6 181.6 66.8 181.3 66 C 181 65.3 180.6 64.7 180 64.3 C 179.5 63.8 178.8 63.6 177.9 63.6 C 177.1 63.6 176.4 63.8 175.8 64.2 C 175.3 64.6 174.9 65.2 174.6 65.9 C 174.3 66.7 174.2 67.5 174.2 68.5 Z M 192.2 75.3 C 190.9 75.3 189.8 75 188.9 74.5 C 188 73.9 187.3 73.1 186.8 72.1 C 186.3 71.1 186.1 70 186.1 68.6 C 186.1 67.3 186.3 66.1 186.8 65.1 C 187.3 64 188 63.2 188.9 62.7 C 189.8 62.1 190.8 61.8 192 61.8 C 192.7 61.8 193.3 61.9 194 62.1 C 194.7 62.4 195.3 62.7 195.8 63.2 C 196.4 63.7 196.8 64.4 197.1 65.3 C 197.4 66.1 197.6 67.1 197.6 68.3 C 197.61 68.34 197.6 69.2 197.6 69.2 L 187.5 69.2 L 187.5 67.5 C 187.5 67.5 195.56 67.45 195.6 67.5 C 195.6 66.7 195.4 66.1 195.1 65.5 C 194.8 64.9 194.4 64.4 193.9 64.1 C 193.3 63.8 192.7 63.6 192 63.6 C 191.2 63.6 190.5 63.8 189.9 64.2 C 189.3 64.6 188.9 65.1 188.6 65.7 C 188.3 66.4 188.1 67 188.1 67.8 C 188.1 67.8 188.1 68.9 188.1 68.9 C 188.1 69.9 188.3 70.7 188.6 71.4 C 189 72.1 189.4 72.6 190 73 C 190.7 73.3 191.4 73.5 192.2 73.5 C 192.7 73.5 193.2 73.4 193.6 73.3 C 194.1 73.1 194.4 72.9 194.7 72.6 C 195 72.3 195.3 71.9 195.5 71.5 C 195.5 71.5 197.4 72 197.4 72 C 197.2 72.7 196.9 73.3 196.4 73.8 C 195.9 74.3 195.3 74.6 194.6 74.9 C 193.9 75.2 193.1 75.3 192.2 75.3 Z M 211.3 75.4 C 210.4 75.4 209.7 75.2 209 74.9 C 208.3 74.6 207.8 74.1 207.4 73.5 C 207 72.9 206.8 72.2 206.8 71.3 C 206.8 70.6 207 70 207.3 69.5 C 207.5 69 207.9 68.7 208.4 68.4 C 208.9 68.1 209.5 67.9 210.1 67.8 C 210.7 67.7 211.3 67.6 211.9 67.5 C 212.7 67.4 213.3 67.3 213.8 67.3 C 214.3 67.2 214.7 67.1 214.9 67 C 215.2 66.8 215.3 66.6 215.3 66.3 C 215.3 66.3 215.3 66.2 215.3 66.2 C 215.3 65.4 215 64.7 214.6 64.3 C 214.1 63.8 213.4 63.6 212.5 63.6 C 211.5 63.6 210.8 63.8 210.2 64.2 C 209.7 64.6 209.3 65.1 209.1 65.5 C 209.1 65.5 207.2 64.9 207.2 64.9 C 207.5 64.1 208 63.4 208.6 63 C 209.1 62.6 209.7 62.2 210.4 62.1 C 211.1 61.9 211.8 61.8 212.4 61.8 C 212.9 61.8 213.3 61.8 213.9 61.9 C 214.4 62 215 62.2 215.5 62.6 C 216 62.9 216.4 63.3 216.8 63.9 C 217.1 64.6 217.3 65.4 217.3 66.4 C 217.28 66.43 217.3 75.1 217.3 75.1 L 215.3 75.1 L 215.3 73.3 C 215.3 73.3 215.16 73.28 215.2 73.3 C 215 73.6 214.8 73.9 214.5 74.2 C 214.2 74.5 213.7 74.8 213.2 75 C 212.7 75.2 212 75.4 211.3 75.4 Z M 211.6 73.6 C 212.4 73.6 213.1 73.4 213.6 73.1 C 214.1 72.8 214.6 72.4 214.8 71.9 C 215.1 71.4 215.3 70.9 215.3 70.3 C 215.3 70.3 215.3 68.5 215.3 68.5 C 215.2 68.6 215 68.7 214.7 68.8 C 214.4 68.8 214.1 68.9 213.7 69 C 213.3 69 213 69.1 212.6 69.1 C 212.3 69.2 212 69.2 211.8 69.2 C 211.3 69.3 210.8 69.4 210.3 69.6 C 209.9 69.7 209.5 69.9 209.2 70.2 C 209 70.5 208.8 70.9 208.8 71.4 C 208.8 72.1 209.1 72.7 209.6 73 C 210.1 73.4 210.8 73.6 211.6 73.6 Z M 221 75.1 L 221 57.6 L 223 57.6 L 223 64 C 223 64 223.18 64.04 223.2 64 C 223.3 63.8 223.5 63.5 223.8 63.2 C 224.1 62.8 224.4 62.5 224.9 62.2 C 225.4 61.9 226.1 61.8 227 61.8 C 228.1 61.8 229 62.1 229.9 62.6 C 230.7 63.2 231.4 64 231.8 65 C 232.3 66 232.6 67.2 232.6 68.5 C 232.6 69.9 232.3 71.1 231.8 72.1 C 231.4 73.2 230.7 73.9 229.9 74.5 C 229 75.1 228.1 75.3 227 75.3 C 226.2 75.3 225.5 75.2 225 74.9 C 224.5 74.6 224.1 74.3 223.8 73.9 C 223.5 73.6 223.3 73.3 223.2 73 C 223.18 73.04 222.9 73 222.9 73 L 222.9 75.1 L 221 75.1 Z M 223 68.5 C 223 69.5 223.1 70.4 223.4 71.1 C 223.7 71.9 224.1 72.5 224.7 72.9 C 225.2 73.3 225.9 73.5 226.7 73.5 C 227.6 73.5 228.3 73.3 228.8 72.9 C 229.4 72.4 229.8 71.8 230.1 71 C 230.4 70.3 230.5 69.4 230.5 68.5 C 230.5 67.6 230.4 66.8 230.1 66 C 229.8 65.3 229.4 64.7 228.8 64.3 C 228.3 63.8 227.6 63.6 226.7 63.6 C 225.9 63.6 225.2 63.8 224.7 64.2 C 224.1 64.6 223.7 65.2 223.4 65.9 C 223.1 66.7 223 67.5 223 68.5 Z M 237.6 57.6 L 237.6 75.1 L 235.6 75.1 L 235.6 57.6 L 237.6 57.6 Z M 246.7 75.3 C 245.4 75.3 244.3 75 243.4 74.5 C 242.5 73.9 241.8 73.1 241.3 72.1 C 240.8 71.1 240.6 70 240.6 68.6 C 240.6 67.3 240.8 66.1 241.3 65.1 C 241.8 64 242.5 63.2 243.4 62.7 C 244.3 62.1 245.3 61.8 246.5 61.8 C 247.2 61.8 247.8 61.9 248.5 62.1 C 249.2 62.4 249.8 62.7 250.3 63.2 C 250.9 63.7 251.3 64.4 251.6 65.3 C 252 66.1 252.1 67.1 252.1 68.3 C 252.11 68.34 252.1 69.2 252.1 69.2 L 242 69.2 L 242 67.5 C 242 67.5 250.07 67.45 250.1 67.5 C 250.1 66.7 249.9 66.1 249.6 65.5 C 249.3 64.9 248.9 64.4 248.4 64.1 C 247.8 63.8 247.2 63.6 246.5 63.6 C 245.7 63.6 245 63.8 244.4 64.2 C 243.8 64.6 243.4 65.1 243.1 65.7 C 242.8 66.4 242.6 67 242.6 67.8 C 242.6 67.8 242.6 68.9 242.6 68.9 C 242.6 69.9 242.8 70.7 243.1 71.4 C 243.5 72.1 243.9 72.6 244.6 73 C 245.2 73.3 245.9 73.5 246.7 73.5 C 247.2 73.5 247.7 73.4 248.1 73.3 C 248.6 73.1 248.9 72.9 249.2 72.6 C 249.6 72.3 249.8 71.9 250 71.5 C 250 71.5 251.9 72 251.9 72 C 251.7 72.7 251.4 73.3 250.9 73.8 C 250.4 74.3 249.8 74.6 249.1 74.9 C 248.4 75.2 247.6 75.3 246.7 75.3 Z M 267.6 62 L 267.6 63.7 L 260.8 63.7 L 260.8 62 L 267.6 62 Z M 262.8 58.8 L 264.8 58.8 C 264.8 58.8 264.83 71.3 264.8 71.3 C 264.8 71.9 264.9 72.3 265.1 72.6 C 265.2 72.9 265.5 73 265.7 73.1 C 266 73.2 266.3 73.3 266.6 73.3 C 266.8 73.3 267 73.3 267.1 73.2 C 267.3 73.2 267.4 73.2 267.5 73.2 C 267.5 73.2 267.9 75 267.9 75 C 267.7 75 267.5 75.1 267.3 75.1 C 267 75.2 266.7 75.2 266.4 75.2 C 265.8 75.2 265.2 75.1 264.7 74.9 C 264.2 74.6 263.7 74.2 263.3 73.7 C 263 73.2 262.8 72.6 262.8 71.9 C 262.82 71.85 262.8 58.8 262.8 58.8 Z M 275.2 75.3 C 274 75.3 273 75 272.1 74.5 C 271.2 73.9 270.5 73.1 270 72.1 C 269.5 71.1 269.3 69.9 269.3 68.6 C 269.3 67.2 269.5 66 270 65 C 270.5 64 271.2 63.2 272.1 62.6 C 273 62.1 274 61.8 275.2 61.8 C 276.4 61.8 277.4 62.1 278.3 62.6 C 279.2 63.2 279.9 64 280.4 65 C 280.9 66 281.2 67.2 281.2 68.6 C 281.2 69.9 280.9 71.1 280.4 72.1 C 279.9 73.1 279.2 73.9 278.3 74.5 C 277.4 75 276.4 75.3 275.2 75.3 Z M 275.2 73.5 C 276.1 73.5 276.9 73.3 277.4 72.8 C 278 72.4 278.4 71.8 278.7 71 C 279 70.3 279.1 69.5 279.1 68.6 C 279.1 67.7 279 66.9 278.7 66.1 C 278.4 65.4 278 64.8 277.4 64.3 C 276.9 63.8 276.1 63.6 275.2 63.6 C 274.3 63.6 273.6 63.8 273 64.3 C 272.4 64.8 272 65.4 271.7 66.1 C 271.4 66.9 271.3 67.7 271.3 68.6 C 271.3 69.5 271.4 70.3 271.7 71 C 272 71.8 272.4 72.4 273 72.8 C 273.6 73.3 274.3 73.5 275.2 73.5 Z M 285 75.2 C 284.6 75.2 284.3 75 284 74.7 C 283.6 74.4 283.5 74.1 283.5 73.7 C 283.5 73.2 283.6 72.9 284 72.6 C 284.3 72.3 284.6 72.1 285 72.1 C 285.5 72.1 285.8 72.3 286.1 72.6 C 286.4 72.9 286.6 73.2 286.6 73.7 C 286.6 73.9 286.5 74.2 286.4 74.4 C 286.2 74.7 286 74.8 285.8 75 C 285.6 75.1 285.3 75.2 285 75.2 Z M 285 65.5 C 284.6 65.5 284.3 65.3 284 65 C 283.6 64.7 283.5 64.4 283.5 63.9 C 283.5 63.5 283.6 63.2 284 62.9 C 284.3 62.6 284.6 62.4 285 62.4 C 285.5 62.4 285.8 62.6 286.1 62.9 C 286.4 63.2 286.6 63.5 286.6 63.9 C 286.6 64.2 286.5 64.5 286.4 64.7 C 286.2 64.9 286 65.1 285.8 65.3 C 285.6 65.4 285.3 65.5 285 65.5 Z " stroke="none" fill="#10283d"/>  </g>  <g id="Polygon125715">    <path d="M 37.7 36.1 C 37.7 36.1 35.9 36.6 35.9 36.6 C 35.8 36.3 35.6 36 35.4 35.7 C 35.2 35.4 34.9 35.2 34.5 35 C 34.1 34.8 33.6 34.7 33 34.7 C 32.2 34.7 31.6 34.9 31 35.3 C 30.5 35.6 30.3 36.1 30.3 36.7 C 30.3 37.2 30.4 37.6 30.8 37.9 C 31.2 38.1 31.7 38.4 32.5 38.6 C 32.5 38.6 34.4 39.1 34.4 39.1 C 35.6 39.3 36.5 39.8 37.1 40.4 C 37.6 40.9 37.9 41.7 37.9 42.6 C 37.9 43.4 37.7 44 37.3 44.6 C 36.8 45.2 36.3 45.7 35.5 46 C 34.7 46.4 33.8 46.5 32.8 46.5 C 31.5 46.5 30.4 46.2 29.5 45.7 C 28.6 45.1 28.1 44.2 27.8 43.1 C 27.8 43.1 29.7 42.6 29.7 42.6 C 29.9 43.3 30.3 43.9 30.8 44.2 C 31.3 44.6 31.9 44.8 32.8 44.8 C 33.7 44.8 34.5 44.6 35 44.2 C 35.6 43.8 35.8 43.3 35.8 42.7 C 35.8 42.3 35.7 41.9 35.4 41.6 C 35 41.3 34.6 41 33.9 40.9 C 33.9 40.9 31.7 40.4 31.7 40.4 C 30.5 40.1 29.6 39.6 29.1 39 C 28.5 38.4 28.2 37.7 28.2 36.8 C 28.2 36 28.4 35.4 28.9 34.8 C 29.3 34.2 29.9 33.8 30.6 33.5 C 31.3 33.2 32.1 33 33 33 C 34.3 33 35.4 33.3 36.1 33.8 C 36.8 34.4 37.4 35.2 37.7 36.1 Z M 46.1 46.5 C 44.9 46.5 43.8 46.2 42.9 45.7 C 42 45.1 41.3 44.3 40.9 43.3 C 40.4 42.2 40.2 41.1 40.2 39.8 C 40.2 38.4 40.4 37.3 40.9 36.3 C 41.4 35.2 42.1 34.4 43 33.9 C 43.8 33.3 44.9 33 46 33 C 47 33 47.8 33.2 48.5 33.5 C 49.3 33.8 49.9 34.3 50.4 34.9 C 50.8 35.5 51.1 36.3 51.2 37.1 C 51.2 37.1 49.2 37.1 49.2 37.1 C 49.1 36.5 48.7 36 48.2 35.5 C 47.7 35 47 34.8 46.1 34.8 C 45.3 34.8 44.6 35 44 35.4 C 43.4 35.8 43 36.4 42.7 37.1 C 42.3 37.9 42.2 38.7 42.2 39.7 C 42.2 40.7 42.3 41.6 42.6 42.4 C 43 43.1 43.4 43.7 44 44.1 C 44.6 44.5 45.3 44.7 46.1 44.7 C 46.6 44.7 47.1 44.6 47.5 44.4 C 47.9 44.3 48.3 44 48.6 43.7 C 48.9 43.3 49.1 42.9 49.2 42.4 C 49.2 42.4 51.2 42.4 51.2 42.4 C 51.1 43.2 50.8 43.9 50.4 44.5 C 49.9 45.1 49.4 45.6 48.6 46 C 47.9 46.3 47 46.5 46.1 46.5 Z M 59.5 46.5 C 58.2 46.5 57.1 46.2 56.2 45.7 C 55.3 45.1 54.6 44.3 54.1 43.3 C 53.6 42.3 53.4 41.2 53.4 39.8 C 53.4 38.5 53.6 37.3 54.1 36.3 C 54.6 35.2 55.3 34.4 56.2 33.9 C 57 33.3 58.1 33 59.3 33 C 59.9 33 60.6 33.1 61.3 33.3 C 61.9 33.6 62.6 33.9 63.1 34.4 C 63.6 34.9 64.1 35.6 64.4 36.5 C 64.7 37.3 64.9 38.3 64.9 39.5 C 64.89 39.54 64.9 40.4 64.9 40.4 L 54.8 40.4 L 54.8 38.7 C 54.8 38.7 62.84 38.65 62.8 38.7 C 62.8 37.9 62.7 37.3 62.4 36.7 C 62.1 36.1 61.7 35.6 61.2 35.3 C 60.6 35 60 34.8 59.3 34.8 C 58.5 34.8 57.8 35 57.2 35.4 C 56.6 35.8 56.2 36.3 55.8 36.9 C 55.5 37.6 55.4 38.2 55.4 39 C 55.4 39 55.4 40.1 55.4 40.1 C 55.4 41.1 55.5 41.9 55.9 42.6 C 56.2 43.3 56.7 43.8 57.3 44.2 C 57.9 44.5 58.7 44.7 59.5 44.7 C 60 44.7 60.5 44.6 60.9 44.5 C 61.3 44.3 61.7 44.1 62 43.8 C 62.3 43.5 62.6 43.1 62.7 42.7 C 62.7 42.7 64.7 43.2 64.7 43.2 C 64.5 43.9 64.1 44.5 63.7 45 C 63.2 45.5 62.6 45.8 61.9 46.1 C 61.2 46.4 60.4 46.5 59.5 46.5 Z M 69.9 38.4 C 69.89 38.38 69.9 46.3 69.9 46.3 L 67.9 46.3 L 67.9 33.2 L 69.8 33.2 L 69.8 35.2 C 69.8 35.2 70 35.21 70 35.2 C 70.3 34.5 70.8 34 71.4 33.6 C 72 33.2 72.8 33 73.8 33 C 74.7 33 75.5 33.2 76.1 33.5 C 76.8 33.9 77.3 34.4 77.7 35.2 C 78.1 35.9 78.2 36.8 78.2 37.9 C 78.25 37.94 78.2 46.3 78.2 46.3 L 76.2 46.3 C 76.2 46.3 76.24 38.07 76.2 38.1 C 76.2 37 76 36.2 75.4 35.7 C 74.9 35.1 74.2 34.8 73.2 34.8 C 72.6 34.8 72 34.9 71.5 35.2 C 71 35.5 70.6 35.9 70.3 36.4 C 70 37 69.9 37.6 69.9 38.4 Z M 85.6 46.6 C 84.7 46.6 84 46.4 83.3 46.1 C 82.6 45.8 82.1 45.3 81.7 44.7 C 81.3 44.1 81.1 43.4 81.1 42.5 C 81.1 41.8 81.3 41.2 81.5 40.7 C 81.8 40.2 82.2 39.9 82.7 39.6 C 83.2 39.3 83.8 39.1 84.4 39 C 85 38.9 85.6 38.8 86.2 38.7 C 87 38.6 87.6 38.5 88.1 38.5 C 88.6 38.4 89 38.3 89.2 38.2 C 89.4 38 89.6 37.8 89.6 37.5 C 89.6 37.5 89.6 37.4 89.6 37.4 C 89.6 36.6 89.3 35.9 88.9 35.5 C 88.4 35 87.7 34.8 86.8 34.8 C 85.8 34.8 85.1 35 84.5 35.4 C 84 35.8 83.6 36.3 83.4 36.7 C 83.4 36.7 81.5 36.1 81.5 36.1 C 81.8 35.3 82.3 34.6 82.8 34.2 C 83.4 33.8 84 33.4 84.7 33.3 C 85.4 33.1 86.1 33 86.7 33 C 87.1 33 87.6 33 88.2 33.1 C 88.7 33.2 89.3 33.4 89.8 33.8 C 90.3 34.1 90.7 34.5 91.1 35.1 C 91.4 35.8 91.6 36.6 91.6 37.6 C 91.57 37.63 91.6 46.3 91.6 46.3 L 89.6 46.3 L 89.6 44.5 C 89.6 44.5 89.46 44.48 89.5 44.5 C 89.3 44.8 89.1 45.1 88.8 45.4 C 88.5 45.7 88 46 87.5 46.2 C 87 46.4 86.3 46.6 85.6 46.6 Z M 85.9 44.8 C 86.7 44.8 87.3 44.6 87.9 44.3 C 88.4 44 88.9 43.6 89.1 43.1 C 89.4 42.6 89.6 42.1 89.6 41.5 C 89.6 41.5 89.6 39.7 89.6 39.7 C 89.5 39.8 89.3 39.9 89 40 C 88.7 40 88.4 40.1 88 40.2 C 87.6 40.2 87.3 40.3 86.9 40.3 C 86.6 40.4 86.3 40.4 86.1 40.4 C 85.6 40.5 85.1 40.6 84.6 40.8 C 84.2 40.9 83.8 41.1 83.5 41.4 C 83.3 41.7 83.1 42.1 83.1 42.6 C 83.1 43.3 83.4 43.9 83.9 44.2 C 84.4 44.6 85.1 44.8 85.9 44.8 Z M 95.2 46.3 L 95.2 33.2 L 97.1 33.2 L 97.1 35.1 C 97.1 35.1 97.24 35.14 97.2 35.1 C 97.5 34.5 97.9 34 98.5 33.6 C 99.2 33.2 99.9 33 100.6 33 C 100.8 33 101 33 101.2 33 C 101.4 33 101.6 33 101.7 33 C 101.7 33 101.7 35 101.7 35 C 101.6 35 101.5 35 101.2 35 C 101 34.9 100.7 34.9 100.5 34.9 C 99.8 34.9 99.3 35 98.8 35.3 C 98.3 35.6 97.9 35.9 97.6 36.4 C 97.3 36.9 97.2 37.4 97.2 38 C 97.17 37.97 97.2 46.3 97.2 46.3 L 95.2 46.3 Z M 104 46.3 L 104 33.2 L 106 33.2 L 106 46.3 L 104 46.3 Z M 105.1 31 C 104.7 31 104.3 30.8 104 30.6 C 103.8 30.3 103.6 30 103.6 29.6 C 103.6 29.2 103.8 28.9 104 28.7 C 104.3 28.4 104.7 28.3 105.1 28.3 C 105.4 28.3 105.8 28.4 106.1 28.7 C 106.3 28.9 106.5 29.2 106.5 29.6 C 106.5 30 106.3 30.3 106.1 30.6 C 105.8 30.8 105.4 31 105.1 31 Z M 114.9 46.5 C 113.7 46.5 112.7 46.2 111.8 45.7 C 110.9 45.1 110.2 44.3 109.7 43.3 C 109.2 42.3 109 41.1 109 39.8 C 109 38.4 109.2 37.2 109.7 36.2 C 110.2 35.2 110.9 34.4 111.8 33.8 C 112.7 33.3 113.7 33 114.9 33 C 116.1 33 117.1 33.3 118 33.8 C 118.9 34.4 119.6 35.2 120.1 36.2 C 120.6 37.2 120.8 38.4 120.8 39.8 C 120.8 41.1 120.6 42.3 120.1 43.3 C 119.6 44.3 118.9 45.1 118 45.7 C 117.1 46.2 116.1 46.5 114.9 46.5 Z M 114.9 44.7 C 115.8 44.7 116.5 44.5 117.1 44 C 117.7 43.6 118.1 43 118.4 42.2 C 118.7 41.5 118.8 40.7 118.8 39.8 C 118.8 38.9 118.7 38.1 118.4 37.3 C 118.1 36.6 117.7 36 117.1 35.5 C 116.5 35 115.8 34.8 114.9 34.8 C 114 34.8 113.3 35 112.7 35.5 C 112.1 36 111.7 36.6 111.4 37.3 C 111.1 38.1 111 38.9 111 39.8 C 111 40.7 111.1 41.5 111.4 42.2 C 111.7 43 112.1 43.6 112.7 44 C 113.3 44.5 114 44.7 114.9 44.7 Z M 130.6 51.2 L 130.6 33.2 L 132.6 33.2 L 132.6 35.2 C 132.6 35.2 132.83 35.24 132.8 35.2 C 133 35 133.2 34.7 133.4 34.4 C 133.7 34 134.1 33.7 134.6 33.4 C 135.1 33.1 135.8 33 136.6 33 C 137.7 33 138.7 33.3 139.5 33.8 C 140.4 34.4 141 35.2 141.5 36.2 C 142 37.2 142.2 38.4 142.2 39.7 C 142.2 41.1 142 42.3 141.5 43.3 C 141 44.4 140.4 45.1 139.5 45.7 C 138.7 46.3 137.7 46.5 136.6 46.5 C 135.8 46.5 135.1 46.4 134.6 46.1 C 134.1 45.8 133.7 45.5 133.5 45.1 C 133.2 44.8 133 44.5 132.8 44.2 C 132.83 44.24 132.7 44.2 132.7 44.2 L 132.7 51.2 L 130.6 51.2 Z M 132.6 39.7 C 132.6 40.7 132.8 41.6 133.1 42.3 C 133.4 43.1 133.8 43.7 134.3 44.1 C 134.9 44.5 135.6 44.7 136.4 44.7 C 137.2 44.7 137.9 44.5 138.5 44.1 C 139.1 43.6 139.5 43 139.8 42.2 C 140.1 41.5 140.2 40.6 140.2 39.7 C 140.2 38.8 140.1 38 139.8 37.2 C 139.5 36.5 139.1 35.9 138.5 35.5 C 137.9 35 137.2 34.8 136.4 34.8 C 135.6 34.8 134.9 35 134.3 35.4 C 133.8 35.8 133.3 36.4 133.1 37.1 C 132.8 37.9 132.6 38.7 132.6 39.7 Z M 147.2 28.8 L 147.2 46.3 L 145.2 46.3 L 145.2 28.8 L 147.2 28.8 Z M 154.7 46.6 C 153.8 46.6 153.1 46.4 152.4 46.1 C 151.7 45.8 151.2 45.3 150.8 44.7 C 150.4 44.1 150.2 43.4 150.2 42.5 C 150.2 41.8 150.4 41.2 150.7 40.7 C 151 40.2 151.3 39.9 151.8 39.6 C 152.3 39.3 152.9 39.1 153.5 39 C 154.1 38.9 154.7 38.8 155.3 38.7 C 156.1 38.6 156.7 38.5 157.2 38.5 C 157.7 38.4 158.1 38.3 158.3 38.2 C 158.6 38 158.7 37.8 158.7 37.5 C 158.7 37.5 158.7 37.4 158.7 37.4 C 158.7 36.6 158.4 35.9 158 35.5 C 157.5 35 156.8 34.8 155.9 34.8 C 154.9 34.8 154.2 35 153.6 35.4 C 153.1 35.8 152.7 36.3 152.5 36.7 C 152.5 36.7 150.6 36.1 150.6 36.1 C 150.9 35.3 151.4 34.6 152 34.2 C 152.5 33.8 153.2 33.4 153.8 33.3 C 154.5 33.1 155.2 33 155.8 33 C 156.3 33 156.7 33 157.3 33.1 C 157.8 33.2 158.4 33.4 158.9 33.8 C 159.4 34.1 159.8 34.5 160.2 35.1 C 160.5 35.8 160.7 36.6 160.7 37.6 C 160.68 37.63 160.7 46.3 160.7 46.3 L 158.7 46.3 L 158.7 44.5 C 158.7 44.5 158.56 44.48 158.6 44.5 C 158.4 44.8 158.2 45.1 157.9 45.4 C 157.6 45.7 157.1 46 156.6 46.2 C 156.1 46.4 155.4 46.6 154.7 46.6 Z M 155 44.8 C 155.8 44.8 156.5 44.6 157 44.3 C 157.5 44 158 43.6 158.2 43.1 C 158.5 42.6 158.7 42.1 158.7 41.5 C 158.7 41.5 158.7 39.7 158.7 39.7 C 158.6 39.8 158.4 39.9 158.1 40 C 157.8 40 157.5 40.1 157.1 40.2 C 156.7 40.2 156.4 40.3 156 40.3 C 155.7 40.4 155.4 40.4 155.2 40.4 C 154.7 40.5 154.2 40.6 153.7 40.8 C 153.3 40.9 152.9 41.1 152.6 41.4 C 152.4 41.7 152.2 42.1 152.2 42.6 C 152.2 43.3 152.5 43.9 153 44.2 C 153.5 44.6 154.2 44.8 155 44.8 Z M 166.3 38.4 C 166.28 38.38 166.3 46.3 166.3 46.3 L 164.3 46.3 L 164.3 33.2 L 166.2 33.2 L 166.2 35.2 C 166.2 35.2 166.38 35.21 166.4 35.2 C 166.7 34.5 167.2 34 167.8 33.6 C 168.4 33.2 169.2 33 170.2 33 C 171.1 33 171.9 33.2 172.5 33.5 C 173.2 33.9 173.7 34.4 174.1 35.2 C 174.4 35.9 174.6 36.8 174.6 37.9 C 174.63 37.94 174.6 46.3 174.6 46.3 L 172.6 46.3 C 172.6 46.3 172.62 38.07 172.6 38.1 C 172.6 37 172.4 36.2 171.8 35.7 C 171.3 35.1 170.6 34.8 169.6 34.8 C 169 34.8 168.4 34.9 167.9 35.2 C 167.4 35.5 167 35.9 166.7 36.4 C 166.4 37 166.3 37.6 166.3 38.4 Z M 180.2 38.4 C 180.23 38.38 180.2 46.3 180.2 46.3 L 178.2 46.3 L 178.2 33.2 L 180.2 33.2 L 180.2 35.2 C 180.2 35.2 180.33 35.21 180.3 35.2 C 180.6 34.5 181.1 34 181.7 33.6 C 182.4 33.2 183.2 33 184.2 33 C 185 33 185.8 33.2 186.5 33.5 C 187.1 33.9 187.7 34.4 188 35.2 C 188.4 35.9 188.6 36.8 188.6 37.9 C 188.58 37.94 188.6 46.3 188.6 46.3 L 186.6 46.3 C 186.6 46.3 186.57 38.07 186.6 38.1 C 186.6 37 186.3 36.2 185.8 35.7 C 185.2 35.1 184.5 34.8 183.6 34.8 C 182.9 34.8 182.4 34.9 181.9 35.2 C 181.4 35.5 181 35.9 180.7 36.4 C 180.4 37 180.2 37.6 180.2 38.4 Z M 192.1 46.3 L 192.1 33.2 L 194.1 33.2 L 194.1 46.3 L 192.1 46.3 Z M 193.1 31 C 192.8 31 192.4 30.8 192.1 30.6 C 191.9 30.3 191.7 30 191.7 29.6 C 191.7 29.2 191.9 28.9 192.1 28.7 C 192.4 28.4 192.8 28.3 193.1 28.3 C 193.5 28.3 193.9 28.4 194.2 28.7 C 194.4 28.9 194.6 29.2 194.6 29.6 C 194.6 30 194.4 30.3 194.2 30.6 C 193.9 30.8 193.5 31 193.1 31 Z M 199.8 38.4 C 199.77 38.38 199.8 46.3 199.8 46.3 L 197.8 46.3 L 197.8 33.2 L 199.7 33.2 L 199.7 35.2 C 199.7 35.2 199.87 35.21 199.9 35.2 C 200.2 34.5 200.6 34 201.3 33.6 C 201.9 33.2 202.7 33 203.7 33 C 204.6 33 205.4 33.2 206 33.5 C 206.7 33.9 207.2 34.4 207.6 35.2 C 207.9 35.9 208.1 36.8 208.1 37.9 C 208.12 37.94 208.1 46.3 208.1 46.3 L 206.1 46.3 C 206.1 46.3 206.11 38.07 206.1 38.1 C 206.1 37 205.8 36.2 205.3 35.7 C 204.8 35.1 204 34.8 203.1 34.8 C 202.5 34.8 201.9 34.9 201.4 35.2 C 200.9 35.5 200.5 35.9 200.2 36.4 C 199.9 37 199.8 37.6 199.8 38.4 Z M 216.9 51.4 C 215.9 51.4 215.1 51.3 214.4 51.1 C 213.7 50.8 213.1 50.5 212.7 50.1 C 212.2 49.7 211.8 49.3 211.6 48.8 C 211.6 48.8 213.2 47.7 213.2 47.7 C 213.4 47.9 213.6 48.2 213.9 48.5 C 214.1 48.8 214.5 49.1 215 49.3 C 215.5 49.5 216.1 49.7 216.9 49.7 C 218 49.7 218.8 49.4 219.5 48.9 C 220.2 48.4 220.6 47.6 220.6 46.5 C 220.57 46.49 220.6 43.8 220.6 43.8 C 220.6 43.8 220.4 43.83 220.4 43.8 C 220.2 44.1 220 44.4 219.8 44.7 C 219.5 45.1 219.1 45.4 218.6 45.6 C 218.1 45.9 217.4 46.1 216.6 46.1 C 215.5 46.1 214.6 45.8 213.7 45.3 C 212.9 44.8 212.2 44.1 211.8 43.1 C 211.3 42.2 211 41 211 39.6 C 211 38.3 211.3 37.1 211.7 36.1 C 212.2 35.1 212.9 34.4 213.7 33.8 C 214.5 33.3 215.5 33 216.6 33 C 217.5 33 218.1 33.1 218.6 33.4 C 219.1 33.7 219.5 34 219.8 34.4 C 220.1 34.7 220.3 35 220.4 35.2 C 220.43 35.24 220.6 35.2 220.6 35.2 L 220.6 33.2 L 222.6 33.2 C 222.6 33.2 222.58 46.63 222.6 46.6 C 222.6 47.8 222.3 48.7 221.8 49.4 C 221.3 50.1 220.6 50.6 219.8 50.9 C 218.9 51.3 218 51.4 216.9 51.4 Z M 216.9 44.2 C 217.7 44.2 218.3 44.1 218.9 43.7 C 219.5 43.3 219.9 42.8 220.2 42.1 C 220.5 41.4 220.6 40.6 220.6 39.6 C 220.6 38.7 220.5 37.8 220.2 37.1 C 219.9 36.4 219.5 35.8 218.9 35.4 C 218.4 35 217.7 34.8 216.9 34.8 C 216 34.8 215.3 35 214.7 35.4 C 214.2 35.9 213.7 36.5 213.5 37.2 C 213.2 37.9 213 38.7 213 39.6 C 213 40.5 213.2 41.3 213.5 42 C 213.8 42.7 214.2 43.3 214.7 43.7 C 215.3 44 216 44.2 216.9 44.2 Z M 236.9 46.6 C 236 46.6 235.3 46.4 234.6 46.1 C 233.9 45.8 233.4 45.3 233 44.7 C 232.6 44.1 232.4 43.4 232.4 42.5 C 232.4 41.8 232.5 41.2 232.8 40.7 C 233.1 40.2 233.5 39.9 234 39.6 C 234.5 39.3 235.1 39.1 235.7 39 C 236.3 38.9 236.9 38.8 237.5 38.7 C 238.3 38.6 238.9 38.5 239.4 38.5 C 239.9 38.4 240.3 38.3 240.5 38.2 C 240.7 38 240.9 37.8 240.9 37.5 C 240.9 37.5 240.9 37.4 240.9 37.4 C 240.9 36.6 240.6 35.9 240.2 35.5 C 239.7 35 239 34.8 238.1 34.8 C 237.1 34.8 236.4 35 235.8 35.4 C 235.3 35.8 234.9 36.3 234.7 36.7 C 234.7 36.7 232.8 36.1 232.8 36.1 C 233.1 35.3 233.6 34.6 234.1 34.2 C 234.7 33.8 235.3 33.4 236 33.3 C 236.7 33.1 237.4 33 238 33 C 238.4 33 238.9 33 239.5 33.1 C 240 33.2 240.6 33.4 241.1 33.8 C 241.6 34.1 242 34.5 242.4 35.1 C 242.7 35.8 242.9 36.6 242.9 37.6 C 242.86 37.63 242.9 46.3 242.9 46.3 L 240.9 46.3 L 240.9 44.5 C 240.9 44.5 240.75 44.48 240.8 44.5 C 240.6 44.8 240.4 45.1 240.1 45.4 C 239.7 45.7 239.3 46 238.8 46.2 C 238.3 46.4 237.6 46.6 236.9 46.6 Z M 237.2 44.8 C 238 44.8 238.6 44.6 239.2 44.3 C 239.7 44 240.1 43.6 240.4 43.1 C 240.7 42.6 240.9 42.1 240.9 41.5 C 240.9 41.5 240.9 39.7 240.9 39.7 C 240.8 39.8 240.6 39.9 240.3 40 C 240 40 239.7 40.1 239.3 40.2 C 238.9 40.2 238.6 40.3 238.2 40.3 C 237.9 40.4 237.6 40.4 237.4 40.4 C 236.9 40.5 236.4 40.6 235.9 40.8 C 235.5 40.9 235.1 41.1 234.8 41.4 C 234.5 41.7 234.4 42.1 234.4 42.6 C 234.4 43.3 234.7 43.9 235.2 44.2 C 235.7 44.6 236.4 44.8 237.2 44.8 Z M 248.5 38.4 C 248.47 38.38 248.5 46.3 248.5 46.3 L 246.5 46.3 L 246.5 33.2 L 248.4 33.2 L 248.4 35.2 C 248.4 35.2 248.57 35.21 248.6 35.2 C 248.9 34.5 249.3 34 250 33.6 C 250.6 33.2 251.4 33 252.4 33 C 253.3 33 254 33.2 254.7 33.5 C 255.4 33.9 255.9 34.4 256.3 35.2 C 256.6 35.9 256.8 36.8 256.8 37.9 C 256.82 37.94 256.8 46.3 256.8 46.3 L 254.8 46.3 C 254.8 46.3 254.81 38.07 254.8 38.1 C 254.8 37 254.5 36.2 254 35.7 C 253.5 35.1 252.7 34.8 251.8 34.8 C 251.2 34.8 250.6 34.9 250.1 35.2 C 249.6 35.5 249.2 35.9 248.9 36.4 C 248.6 37 248.5 37.6 248.5 38.4 Z M 265.3 46.5 C 264.2 46.5 263.3 46.3 262.4 45.7 C 261.6 45.1 260.9 44.4 260.5 43.3 C 260 42.3 259.8 41.1 259.8 39.7 C 259.8 38.4 260 37.2 260.5 36.2 C 260.9 35.2 261.6 34.4 262.4 33.8 C 263.3 33.3 264.2 33 265.4 33 C 266.2 33 266.9 33.1 267.4 33.4 C 267.9 33.7 268.3 34 268.5 34.4 C 268.8 34.7 269 35 269.1 35.2 C 269.14 35.24 269.3 35.2 269.3 35.2 L 269.3 28.8 L 271.3 28.8 L 271.3 46.3 L 269.4 46.3 L 269.4 44.2 C 269.4 44.2 269.14 44.24 269.1 44.2 C 269 44.5 268.8 44.8 268.5 45.1 C 268.2 45.5 267.8 45.8 267.3 46.1 C 266.8 46.4 266.2 46.5 265.3 46.5 Z M 265.6 44.7 C 266.4 44.7 267.1 44.5 267.6 44.1 C 268.2 43.7 268.6 43.1 268.9 42.3 C 269.2 41.6 269.3 40.7 269.3 39.7 C 269.3 38.7 269.2 37.9 268.9 37.1 C 268.6 36.4 268.2 35.8 267.7 35.4 C 267.1 35 266.4 34.8 265.6 34.8 C 264.7 34.8 264 35 263.5 35.5 C 262.9 35.9 262.5 36.5 262.2 37.2 C 261.9 38 261.8 38.8 261.8 39.7 C 261.8 40.6 261.9 41.5 262.2 42.2 C 262.5 43 262.9 43.6 263.5 44.1 C 264 44.5 264.7 44.7 265.6 44.7 Z " stroke="none" fill="#10283d"/>  </g>  <g id="Polygon125714">    <path d="M 43 17.5 L 43 0 C 43 0 48.86 0 48.9 0 C 50.2 0 51.3 0.2 52.2 0.7 C 53.1 1.2 53.7 1.8 54.2 2.6 C 54.6 3.4 54.8 4.3 54.8 5.4 C 54.8 6.4 54.6 7.3 54.2 8.1 C 53.7 8.9 53.1 9.5 52.2 10 C 51.4 10.4 50.2 10.6 48.9 10.6 C 48.89 10.64 44.1 10.6 44.1 10.6 L 44.1 8.7 C 44.1 8.7 48.82 8.73 48.8 8.7 C 49.8 8.7 50.5 8.6 51.1 8.3 C 51.6 8 52.1 7.7 52.3 7.2 C 52.6 6.7 52.7 6.1 52.7 5.4 C 52.7 4.7 52.6 4 52.3 3.5 C 52.1 3 51.6 2.6 51.1 2.3 C 50.5 2 49.7 1.9 48.8 1.9 C 48.79 1.88 45.1 1.9 45.1 1.9 L 45.1 17.5 L 43 17.5 Z M 51.2 9.6 L 55.5 17.5 L 53 17.5 L 48.8 9.6 L 51.2 9.6 Z M 58 17.5 L 58 4.4 L 60 4.4 L 60 17.5 L 58 17.5 Z M 59.1 2.2 C 58.7 2.2 58.3 2 58 1.8 C 57.8 1.5 57.6 1.2 57.6 0.8 C 57.6 0.4 57.8 0.1 58 -0.1 C 58.3 -0.4 58.7 -0.5 59.1 -0.5 C 59.4 -0.5 59.8 -0.4 60.1 -0.1 C 60.3 0.1 60.5 0.4 60.5 0.8 C 60.5 1.2 60.3 1.5 60.1 1.8 C 59.8 2 59.4 2.2 59.1 2.2 Z M 68.9 22.6 C 67.9 22.6 67.1 22.5 66.4 22.3 C 65.7 22 65.1 21.7 64.6 21.3 C 64.2 20.9 63.8 20.5 63.5 20 C 63.5 20 65.1 18.9 65.1 18.9 C 65.3 19.1 65.5 19.4 65.8 19.7 C 66.1 20 66.5 20.3 67 20.5 C 67.4 20.7 68.1 20.9 68.9 20.9 C 69.9 20.9 70.8 20.6 71.5 20.1 C 72.2 19.6 72.5 18.8 72.5 17.7 C 72.51 17.69 72.5 15 72.5 15 C 72.5 15 72.34 15.03 72.3 15 C 72.2 15.3 72 15.6 71.7 15.9 C 71.4 16.3 71.1 16.6 70.6 16.8 C 70.1 17.1 69.4 17.3 68.5 17.3 C 67.5 17.3 66.5 17 65.7 16.5 C 64.8 16 64.2 15.3 63.7 14.3 C 63.2 13.4 63 12.2 63 10.8 C 63 9.5 63.2 8.3 63.7 7.3 C 64.1 6.3 64.8 5.6 65.6 5 C 66.5 4.5 67.5 4.2 68.6 4.2 C 69.4 4.2 70.1 4.3 70.6 4.6 C 71.1 4.9 71.5 5.2 71.8 5.6 C 72 5.9 72.2 6.2 72.4 6.4 C 72.38 6.44 72.6 6.4 72.6 6.4 L 72.6 4.4 L 74.5 4.4 C 74.5 4.4 74.53 17.83 74.5 17.8 C 74.5 19 74.3 19.9 73.8 20.6 C 73.3 21.3 72.6 21.8 71.7 22.1 C 70.9 22.5 69.9 22.6 68.9 22.6 Z M 68.8 15.4 C 69.6 15.4 70.3 15.3 70.8 14.9 C 71.4 14.5 71.8 14 72.1 13.3 C 72.4 12.6 72.5 11.8 72.5 10.8 C 72.5 9.9 72.4 9 72.1 8.3 C 71.8 7.6 71.4 7 70.9 6.6 C 70.3 6.2 69.6 6 68.8 6 C 67.9 6 67.2 6.2 66.7 6.6 C 66.1 7.1 65.7 7.7 65.4 8.4 C 65.1 9.1 65 9.9 65 10.8 C 65 11.7 65.1 12.5 65.4 13.2 C 65.7 13.9 66.1 14.5 66.7 14.9 C 67.3 15.2 68 15.4 68.8 15.4 Z M 80.1 9.6 C 80.14 9.58 80.1 17.5 80.1 17.5 L 78.1 17.5 L 78.1 0 L 80.1 0 L 80.1 6.4 C 80.1 6.4 80.31 6.41 80.3 6.4 C 80.6 5.7 81.1 5.2 81.7 4.8 C 82.3 4.4 83.1 4.2 84.2 4.2 C 85.1 4.2 85.8 4.4 86.5 4.7 C 87.2 5.1 87.7 5.6 88.1 6.4 C 88.4 7.1 88.6 8 88.6 9.1 C 88.63 9.14 88.6 17.5 88.6 17.5 L 86.6 17.5 C 86.6 17.5 86.62 9.27 86.6 9.3 C 86.6 8.2 86.4 7.4 85.8 6.9 C 85.3 6.3 84.5 6 83.6 6 C 82.9 6 82.3 6.1 81.8 6.4 C 81.3 6.7 80.9 7.1 80.6 7.6 C 80.3 8.2 80.1 8.8 80.1 9.6 Z M 97.6 4.4 L 97.6 6.1 L 90.8 6.1 L 90.8 4.4 L 97.6 4.4 Z M 92.8 1.2 L 94.8 1.2 C 94.8 1.2 94.77 13.7 94.8 13.7 C 94.8 14.3 94.9 14.7 95 15 C 95.2 15.3 95.4 15.4 95.7 15.5 C 95.9 15.6 96.2 15.7 96.5 15.7 C 96.7 15.7 96.9 15.7 97.1 15.6 C 97.2 15.6 97.3 15.6 97.4 15.6 C 97.4 15.6 97.8 17.4 97.8 17.4 C 97.7 17.4 97.5 17.5 97.2 17.5 C 97 17.6 96.7 17.6 96.3 17.6 C 95.7 17.6 95.2 17.5 94.6 17.3 C 94.1 17 93.6 16.6 93.3 16.1 C 92.9 15.6 92.8 15 92.8 14.3 C 92.76 14.25 92.8 1.2 92.8 1.2 Z M 106.6 9 L 106.6 10.9 L 98.9 10.9 L 98.9 9 L 106.6 9 Z M 115.1 4.4 L 115.1 6.1 L 108 6.1 L 108 4.4 L 115.1 4.4 Z M 110.1 17.5 C 110.1 17.5 110.11 2.56 110.1 2.6 C 110.1 1.8 110.3 1.2 110.6 0.7 C 111 0.2 111.5 -0.2 112 -0.4 C 112.6 -0.7 113.2 -0.8 113.8 -0.8 C 114.3 -0.8 114.7 -0.8 115 -0.7 C 115.3 -0.6 115.6 -0.5 115.7 -0.5 C 115.7 -0.5 115.1 1.3 115.1 1.3 C 115 1.2 114.9 1.2 114.7 1.1 C 114.5 1.1 114.3 1.1 114 1.1 C 113.3 1.1 112.9 1.2 112.6 1.6 C 112.3 1.9 112.1 2.4 112.1 3 C 112.13 3.03 112.1 17.5 112.1 17.5 L 110.1 17.5 Z M 118 17.5 L 118 4.4 L 120 4.4 L 120 17.5 L 118 17.5 Z M 119 2.2 C 118.7 2.2 118.3 2 118 1.8 C 117.8 1.5 117.6 1.2 117.6 0.8 C 117.6 0.4 117.8 0.1 118 -0.1 C 118.3 -0.4 118.7 -0.5 119 -0.5 C 119.4 -0.5 119.8 -0.4 120.1 -0.1 C 120.3 0.1 120.5 0.4 120.5 0.8 C 120.5 1.2 120.3 1.5 120.1 1.8 C 119.8 2 119.4 2.2 119 2.2 Z M 129.2 4.4 L 129.2 6.1 L 122.5 6.1 L 122.5 4.4 L 129.2 4.4 Z M 124.4 1.2 L 126.4 1.2 C 126.4 1.2 126.44 13.7 126.4 13.7 C 126.4 14.3 126.5 14.7 126.7 15 C 126.9 15.3 127.1 15.4 127.3 15.5 C 127.6 15.6 127.9 15.7 128.2 15.7 C 128.4 15.7 128.6 15.7 128.7 15.6 C 128.9 15.6 129 15.6 129.1 15.6 C 129.1 15.6 129.5 17.4 129.5 17.4 C 129.3 17.4 129.2 17.5 128.9 17.5 C 128.7 17.6 128.4 17.6 128 17.6 C 127.4 17.6 126.9 17.5 126.3 17.3 C 125.8 17 125.3 16.6 125 16.1 C 124.6 15.6 124.4 15 124.4 14.3 C 124.43 14.25 124.4 1.2 124.4 1.2 Z M 134.8 15.1 C 134.8 15.1 134.71 15.99 134.7 16 C 134.6 16.6 134.5 17.3 134.3 18.1 C 134.1 18.8 133.9 19.5 133.7 20.2 C 133.4 20.8 133.3 21.3 133.1 21.7 C 133.1 21.7 131.6 21.7 131.6 21.7 C 131.7 21.4 131.8 20.9 131.9 20.3 C 132 19.7 132.1 19 132.3 18.3 C 132.4 17.5 132.5 16.8 132.6 16 C 132.56 16.02 132.7 15.1 132.7 15.1 L 134.8 15.1 Z M 146.3 17.5 L 144.1 17.5 L 150.5 0 L 152.7 0 L 159.1 17.5 L 156.9 17.5 L 151.6 2.8 L 151.5 2.8 L 146.3 17.5 Z M 147.1 10.6 L 156 10.6 L 156 12.5 L 147.1 12.5 L 147.1 10.6 Z M 163.9 0 L 163.9 17.5 L 161.8 17.5 L 161.8 0 L 163.9 0 Z M 175.3 9 L 175.3 10.9 L 167.6 10.9 L 167.6 9 L 175.3 9 Z M 178.4 17.5 L 178.4 4.4 L 180.5 4.4 L 180.5 17.5 L 178.4 17.5 Z M 179.5 2.2 C 179.1 2.2 178.7 2 178.5 1.8 C 178.2 1.5 178 1.2 178 0.8 C 178 0.4 178.2 0.1 178.5 -0.1 C 178.7 -0.4 179.1 -0.5 179.5 -0.5 C 179.9 -0.5 180.2 -0.4 180.5 -0.1 C 180.8 0.1 180.9 0.4 180.9 0.8 C 180.9 1.2 180.8 1.5 180.5 1.8 C 180.2 2 179.9 2.2 179.5 2.2 Z M 186.1 9.6 C 186.09 9.58 186.1 17.5 186.1 17.5 L 184.1 17.5 L 184.1 4.4 L 186 4.4 L 186 6.4 C 186 6.4 186.19 6.41 186.2 6.4 C 186.5 5.7 187 5.2 187.6 4.8 C 188.2 4.4 189 4.2 190 4.2 C 190.9 4.2 191.7 4.4 192.3 4.7 C 193 5.1 193.5 5.6 193.9 6.4 C 194.3 7.1 194.4 8 194.4 9.1 C 194.44 9.14 194.4 17.5 194.4 17.5 L 192.4 17.5 C 192.4 17.5 192.43 9.27 192.4 9.3 C 192.4 8.2 192.2 7.4 191.6 6.9 C 191.1 6.3 190.4 6 189.4 6 C 188.8 6 188.2 6.1 187.7 6.4 C 187.2 6.7 186.8 7.1 186.5 7.6 C 186.2 8.2 186.1 8.8 186.1 9.6 Z M 203.6 4.4 L 203.6 6.1 L 196.5 6.1 L 196.5 4.4 L 203.6 4.4 Z M 198.6 17.5 C 198.6 17.5 198.65 2.56 198.6 2.6 C 198.6 1.8 198.8 1.2 199.2 0.7 C 199.5 0.2 200 -0.2 200.5 -0.4 C 201.1 -0.7 201.7 -0.8 202.3 -0.8 C 202.8 -0.8 203.2 -0.8 203.5 -0.7 C 203.9 -0.6 204.1 -0.5 204.2 -0.5 C 204.2 -0.5 203.7 1.3 203.7 1.3 C 203.6 1.2 203.4 1.2 203.2 1.1 C 203.1 1.1 202.8 1.1 202.5 1.1 C 201.9 1.1 201.4 1.2 201.1 1.6 C 200.8 1.9 200.7 2.4 200.7 3 C 200.66 3.03 200.7 17.5 200.7 17.5 L 198.6 17.5 Z M 214.4 12.1 C 214.38 12.1 214.4 4.4 214.4 4.4 L 216.4 4.4 L 216.4 17.5 L 214.4 17.5 L 214.4 15.2 C 214.4 15.2 214.24 15.24 214.2 15.2 C 213.9 15.9 213.5 16.5 212.8 16.9 C 212.2 17.4 211.3 17.6 210.4 17.6 C 209.5 17.6 208.8 17.4 208.2 17.1 C 207.5 16.7 207 16.2 206.7 15.4 C 206.3 14.7 206.1 13.8 206.1 12.7 C 206.13 12.68 206.1 4.4 206.1 4.4 L 208.1 4.4 C 208.1 4.4 208.14 12.55 208.1 12.5 C 208.1 13.5 208.4 14.3 208.9 14.8 C 209.5 15.4 210.2 15.7 211 15.7 C 211.5 15.7 212 15.6 212.5 15.3 C 213.1 15 213.5 14.7 213.8 14.1 C 214.2 13.6 214.4 12.9 214.4 12.1 Z M 229.1 7.3 C 229.1 7.3 227.3 7.8 227.3 7.8 C 227.2 7.5 227 7.2 226.8 6.9 C 226.6 6.6 226.3 6.4 225.9 6.2 C 225.6 6 225.1 5.9 224.5 5.9 C 223.7 5.9 223 6.1 222.5 6.5 C 222 6.8 221.7 7.3 221.7 7.9 C 221.7 8.4 221.9 8.8 222.2 9.1 C 222.6 9.3 223.2 9.6 223.9 9.8 C 223.9 9.8 225.9 10.3 225.9 10.3 C 227.1 10.5 227.9 11 228.5 11.6 C 229.1 12.1 229.4 12.9 229.4 13.8 C 229.4 14.6 229.2 15.2 228.7 15.8 C 228.3 16.4 227.7 16.9 226.9 17.2 C 226.2 17.6 225.3 17.7 224.3 17.7 C 222.9 17.7 221.8 17.4 220.9 16.9 C 220.1 16.3 219.5 15.4 219.3 14.3 C 219.3 14.3 221.2 13.8 221.2 13.8 C 221.4 14.5 221.7 15.1 222.2 15.4 C 222.7 15.8 223.4 16 224.2 16 C 225.2 16 225.9 15.8 226.5 15.4 C 227 15 227.3 14.5 227.3 13.9 C 227.3 13.5 227.1 13.1 226.8 12.8 C 226.5 12.5 226 12.2 225.3 12.1 C 225.3 12.1 223.2 11.6 223.2 11.6 C 222 11.3 221.1 10.8 220.5 10.2 C 220 9.6 219.7 8.9 219.7 8 C 219.7 7.2 219.9 6.6 220.3 6 C 220.7 5.4 221.3 5 222 4.7 C 222.7 4.4 223.6 4.2 224.5 4.2 C 225.8 4.2 226.8 4.5 227.5 5 C 228.3 5.6 228.8 6.4 229.1 7.3 Z M 237.7 17.7 C 236.4 17.7 235.4 17.4 234.5 16.9 C 233.5 16.3 232.8 15.5 232.3 14.5 C 231.9 13.5 231.6 12.4 231.6 11 C 231.6 9.7 231.9 8.5 232.3 7.5 C 232.8 6.4 233.5 5.6 234.4 5.1 C 235.3 4.5 236.3 4.2 237.5 4.2 C 238.2 4.2 238.9 4.3 239.5 4.5 C 240.2 4.8 240.8 5.1 241.3 5.6 C 241.9 6.1 242.3 6.8 242.6 7.7 C 243 8.5 243.1 9.5 243.1 10.7 C 243.13 10.74 243.1 11.6 243.1 11.6 L 233 11.6 L 233 9.9 C 233 9.9 241.09 9.85 241.1 9.9 C 241.1 9.1 240.9 8.5 240.6 7.9 C 240.4 7.3 239.9 6.8 239.4 6.5 C 238.9 6.2 238.2 6 237.5 6 C 236.7 6 236 6.2 235.4 6.6 C 234.8 7 234.4 7.5 234.1 8.1 C 233.8 8.8 233.6 9.4 233.6 10.2 C 233.6 10.2 233.6 11.3 233.6 11.3 C 233.6 12.3 233.8 13.1 234.1 13.8 C 234.5 14.5 235 15 235.6 15.4 C 236.2 15.7 236.9 15.9 237.7 15.9 C 238.2 15.9 238.7 15.8 239.1 15.7 C 239.6 15.5 239.9 15.3 240.3 15 C 240.6 14.7 240.8 14.3 241 13.9 C 241 13.9 242.9 14.4 242.9 14.4 C 242.7 15.1 242.4 15.7 241.9 16.2 C 241.4 16.7 240.8 17 240.1 17.3 C 239.4 17.6 238.6 17.7 237.7 17.7 Z M 251 17.7 C 250 17.7 249 17.5 248.2 16.9 C 247.3 16.3 246.7 15.6 246.2 14.5 C 245.7 13.5 245.5 12.3 245.5 10.9 C 245.5 9.6 245.7 8.4 246.2 7.4 C 246.7 6.4 247.3 5.6 248.2 5 C 249 4.5 250 4.2 251.1 4.2 C 251.9 4.2 252.6 4.3 253.1 4.6 C 253.6 4.9 254 5.2 254.2 5.6 C 254.5 5.9 254.7 6.2 254.9 6.4 C 254.86 6.44 255 6.4 255 6.4 L 255 0 L 257 0 L 257 17.5 L 255.1 17.5 L 255.1 15.4 C 255.1 15.4 254.86 15.44 254.9 15.4 C 254.7 15.7 254.5 16 254.2 16.3 C 254 16.7 253.6 17 253.1 17.3 C 252.6 17.6 251.9 17.7 251 17.7 Z M 251.3 15.9 C 252.1 15.9 252.8 15.7 253.4 15.3 C 253.9 14.9 254.3 14.3 254.6 13.5 C 254.9 12.8 255.1 11.9 255.1 10.9 C 255.1 9.9 254.9 9.1 254.6 8.3 C 254.4 7.6 253.9 7 253.4 6.6 C 252.8 6.2 252.1 6 251.3 6 C 250.5 6 249.8 6.2 249.2 6.7 C 248.6 7.1 248.2 7.7 247.9 8.4 C 247.6 9.2 247.5 10 247.5 10.9 C 247.5 11.8 247.6 12.7 247.9 13.4 C 248.2 14.2 248.6 14.8 249.2 15.3 C 249.8 15.7 250.5 15.9 251.3 15.9 Z " stroke="none" fill="#10283d"/>  </g></svg>