<?xml version="1.0" standalone="no"?><!DOCTYPE svg PUBLIC "-//W3C//DTD SVG 1.1//EN" "http://www.w3.org/Graphics/SVG/1.1/DTD/svg11.dtd"><svg xmlns="http://www.w3.org/2000/svg" version="1.1" width="1060px" height="163.7px" viewBox="0 -16 1060 163.7" style="top:-16px">  <desc>What you need is a streamlined way to activate your data. And a practical way to leverage its value with AI. Making s...</desc>  <defs/>  <g id="Polygon110756">    <path d="M 46.5 96 L 50.7 96 L 60.6 120.1 L 61 120.1 L 70.8 96 L 75 96 L 75 125.1 L 71.8 125.1 L 71.8 103 L 71.5 103 L 62.4 125.1 L 59.2 125.1 L 50.1 103 L 49.8 103 L 49.8 125.1 L 46.5 125.1 L 46.5 96 Z M 87.7 125.6 C 86.3 125.6 85.1 125.3 84 124.8 C 82.8 124.3 81.9 123.5 81.3 122.5 C 80.6 121.5 80.3 120.3 80.3 118.9 C 80.3 117.6 80.5 116.6 81 115.9 C 81.5 115.1 82.2 114.5 83 114 C 83.8 113.6 84.7 113.2 85.7 113 C 86.7 112.8 87.7 112.6 88.7 112.5 C 90.1 112.3 91.1 112.2 92 112.1 C 92.8 112 93.4 111.8 93.8 111.6 C 94.2 111.4 94.4 111 94.4 110.5 C 94.4 110.5 94.4 110.4 94.4 110.4 C 94.4 109 94 107.9 93.2 107.1 C 92.5 106.3 91.3 105.9 89.8 105.9 C 88.2 105.9 86.9 106.3 86 107 C 85.1 107.7 84.5 108.4 84.1 109.2 C 84.1 109.2 80.9 108.1 80.9 108.1 C 81.5 106.8 82.2 105.7 83.2 105 C 84.1 104.3 85.2 103.7 86.3 103.4 C 87.4 103.1 88.6 103 89.7 103 C 90.4 103 91.2 103.1 92.1 103.2 C 93 103.4 93.9 103.7 94.7 104.3 C 95.6 104.8 96.3 105.5 96.9 106.6 C 97.4 107.6 97.7 109 97.7 110.7 C 97.72 110.72 97.7 125.1 97.7 125.1 L 94.4 125.1 L 94.4 122.1 C 94.4 122.1 94.2 122.14 94.2 122.1 C 94 122.6 93.6 123.1 93.1 123.7 C 92.5 124.2 91.8 124.7 90.9 125 C 90.1 125.4 89 125.6 87.7 125.6 Z M 88.2 122.6 C 89.6 122.6 90.7 122.3 91.6 121.8 C 92.5 121.3 93.2 120.6 93.7 119.8 C 94.1 119 94.4 118.1 94.4 117.2 C 94.4 117.2 94.4 114.1 94.4 114.1 C 94.2 114.3 93.9 114.4 93.4 114.6 C 93 114.7 92.4 114.8 91.8 114.9 C 91.2 115 90.6 115.1 90 115.2 C 89.4 115.3 88.9 115.3 88.6 115.4 C 87.7 115.5 86.9 115.7 86.1 115.9 C 85.4 116.2 84.8 116.5 84.3 117 C 83.9 117.5 83.6 118.2 83.6 119.1 C 83.6 120.2 84.1 121.1 84.9 121.7 C 85.8 122.3 86.9 122.6 88.2 122.6 Z M 106.6 117.1 L 106.5 113 L 107.2 113 L 116.8 103.3 L 120.9 103.3 L 110.8 113.6 L 110.5 113.6 L 106.6 117.1 Z M 103.5 125.1 L 103.5 96 L 106.8 96 L 106.8 125.1 L 103.5 125.1 Z M 117.3 125.1 L 108.8 114.3 L 111.2 112 L 121.6 125.1 L 117.3 125.1 Z M 125.1 125.1 L 125.1 103.3 L 128.4 103.3 L 128.4 125.1 L 125.1 125.1 Z M 126.8 99.6 C 126.1 99.6 125.6 99.4 125.1 99 C 124.6 98.5 124.4 98 124.4 97.4 C 124.4 96.7 124.6 96.2 125.1 95.8 C 125.6 95.3 126.1 95.1 126.8 95.1 C 127.4 95.1 128 95.3 128.5 95.8 C 128.9 96.2 129.2 96.7 129.2 97.4 C 129.2 98 128.9 98.5 128.5 99 C 128 99.4 127.4 99.6 126.8 99.6 Z M 137.6 112 C 137.61 111.97 137.6 125.1 137.6 125.1 L 134.3 125.1 L 134.3 103.3 L 137.5 103.3 L 137.5 106.7 C 137.5 106.7 137.78 106.68 137.8 106.7 C 138.3 105.6 139.1 104.7 140.1 104 C 141.1 103.3 142.5 103 144.1 103 C 145.6 103 146.9 103.3 148 103.9 C 149.1 104.5 150 105.4 150.6 106.6 C 151.2 107.8 151.5 109.4 151.5 111.2 C 151.53 111.23 151.5 125.1 151.5 125.1 L 148.2 125.1 C 148.2 125.1 148.17 111.45 148.2 111.5 C 148.2 109.7 147.7 108.4 146.8 107.4 C 145.9 106.5 144.7 106 143.2 106 C 142.1 106 141.1 106.2 140.3 106.7 C 139.5 107.2 138.8 107.8 138.3 108.7 C 137.8 109.6 137.6 110.7 137.6 112 Z M 166 133.7 C 164.3 133.7 163 133.5 161.8 133.1 C 160.6 132.7 159.7 132.2 158.9 131.5 C 158.1 130.8 157.5 130.1 157 129.4 C 157 129.4 159.7 127.5 159.7 127.5 C 160 127.9 160.4 128.3 160.9 128.8 C 161.3 129.4 162 129.8 162.8 130.2 C 163.6 130.6 164.7 130.8 166 130.8 C 167.7 130.8 169.2 130.3 170.3 129.5 C 171.5 128.6 172 127.3 172 125.5 C 172.05 125.49 172 121.1 172 121.1 C 172 121.1 171.76 121.06 171.8 121.1 C 171.5 121.5 171.2 121.9 170.7 122.5 C 170.3 123.1 169.6 123.6 168.8 124.1 C 168 124.5 166.8 124.8 165.4 124.8 C 163.6 124.8 162.1 124.3 160.7 123.5 C 159.3 122.7 158.2 121.5 157.4 119.9 C 156.5 118.3 156.1 116.3 156.1 114.1 C 156.1 111.8 156.5 109.9 157.3 108.2 C 158.1 106.6 159.2 105.3 160.6 104.4 C 162 103.4 163.6 103 165.5 103 C 166.9 103 168 103.2 168.8 103.7 C 169.7 104.2 170.3 104.7 170.8 105.3 C 171.2 105.9 171.6 106.4 171.8 106.7 C 171.82 106.74 172.2 106.7 172.2 106.7 L 172.2 103.3 L 175.4 103.3 C 175.4 103.3 175.4 125.72 175.4 125.7 C 175.4 127.6 175 129.1 174.1 130.3 C 173.3 131.5 172.1 132.3 170.7 132.9 C 169.3 133.5 167.7 133.7 166 133.7 Z M 165.9 121.7 C 167.2 121.7 168.3 121.4 169.3 120.8 C 170.2 120.2 170.9 119.3 171.4 118.2 C 171.9 117 172.1 115.6 172.1 114 C 172.1 112.4 171.9 111.1 171.4 109.8 C 170.9 108.6 170.2 107.7 169.3 107 C 168.4 106.3 167.2 106 165.9 106 C 164.4 106 163.3 106.4 162.3 107.1 C 161.4 107.8 160.7 108.8 160.2 110 C 159.7 111.2 159.5 112.5 159.5 114 C 159.5 115.5 159.7 116.9 160.2 118 C 160.7 119.2 161.4 120.1 162.3 120.8 C 163.3 121.4 164.5 121.7 165.9 121.7 Z M 208.2 108.2 C 208.2 108.2 205.2 109 205.2 109 C 205 108.5 204.8 108 204.4 107.5 C 204 107.1 203.5 106.7 202.9 106.4 C 202.3 106 201.5 105.9 200.5 105.9 C 199.2 105.9 198.1 106.2 197.2 106.8 C 196.3 107.4 195.9 108.2 195.9 109.1 C 195.9 110 196.2 110.6 196.8 111.1 C 197.4 111.6 198.3 112 199.6 112.3 C 199.6 112.3 202.8 113.1 202.8 113.1 C 204.8 113.6 206.2 114.3 207.2 115.3 C 208.2 116.2 208.6 117.5 208.6 119 C 208.6 120.3 208.3 121.4 207.6 122.4 C 206.9 123.3 205.9 124.1 204.6 124.7 C 203.3 125.3 201.8 125.5 200.1 125.5 C 197.9 125.5 196 125.1 194.6 124.1 C 193.1 123.1 192.2 121.7 191.8 119.9 C 191.8 119.9 195 119.1 195 119.1 C 195.3 120.2 195.9 121.1 196.7 121.7 C 197.6 122.3 198.7 122.6 200.1 122.6 C 201.6 122.6 202.9 122.3 203.8 121.6 C 204.7 120.9 205.2 120.1 205.2 119.2 C 205.2 118.4 204.9 117.8 204.4 117.3 C 203.8 116.8 203 116.4 201.9 116.1 C 201.9 116.1 198.3 115.3 198.3 115.3 C 196.3 114.8 194.8 114.1 193.9 113.1 C 193 112.1 192.5 110.8 192.5 109.3 C 192.5 108.1 192.9 107 193.5 106 C 194.2 105.1 195.2 104.3 196.4 103.8 C 197.6 103.3 199 103 200.5 103 C 202.7 103 204.4 103.5 205.6 104.4 C 206.8 105.4 207.7 106.6 208.2 108.2 Z M 226.8 116.2 C 226.84 116.17 226.8 103.3 226.8 103.3 L 230.2 103.3 L 230.2 125.1 L 226.8 125.1 L 226.8 121.4 C 226.8 121.4 226.61 121.4 226.6 121.4 C 226.1 122.5 225.3 123.4 224.2 124.2 C 223.1 125 221.8 125.4 220.1 125.4 C 218.8 125.4 217.6 125.1 216.5 124.5 C 215.4 123.9 214.6 123 214 121.7 C 213.4 120.5 213.1 119 213.1 117.1 C 213.09 117.14 213.1 103.3 213.1 103.3 L 216.4 103.3 C 216.4 103.3 216.44 116.91 216.4 116.9 C 216.4 118.5 216.9 119.8 217.8 120.7 C 218.7 121.7 219.8 122.1 221.2 122.1 C 222.1 122.1 222.9 121.9 223.8 121.5 C 224.6 121.1 225.4 120.4 226 119.5 C 226.5 118.7 226.8 117.5 226.8 116.2 Z M 236 125.1 L 236 103.3 L 239.2 103.3 L 239.2 106.6 C 239.2 106.6 239.46 106.57 239.5 106.6 C 239.9 105.5 240.6 104.6 241.6 103.9 C 242.7 103.3 243.8 102.9 245.1 102.9 C 245.4 102.9 245.7 102.9 246.1 102.9 C 246.4 103 246.7 103 246.9 103 C 246.9 103 246.9 106.4 246.9 106.4 C 246.8 106.4 246.5 106.3 246.1 106.3 C 245.7 106.2 245.3 106.2 244.9 106.2 C 243.8 106.2 242.8 106.4 242 106.8 C 241.2 107.3 240.5 107.9 240.1 108.6 C 239.6 109.4 239.3 110.3 239.3 111.3 C 239.34 111.28 239.3 125.1 239.3 125.1 L 236 125.1 Z M 259.2 125.5 C 257.1 125.5 255.3 125.1 253.8 124.1 C 252.3 123.2 251.1 121.9 250.3 120.2 C 249.4 118.5 249 116.6 249 114.4 C 249 112.1 249.4 110.1 250.3 108.4 C 251.1 106.7 252.2 105.4 253.7 104.4 C 255.2 103.5 256.9 103 258.9 103 C 260 103 261.1 103.2 262.2 103.6 C 263.3 103.9 264.3 104.5 265.3 105.4 C 266.2 106.2 266.9 107.4 267.4 108.8 C 268 110.1 268.2 111.9 268.2 113.9 C 268.24 113.9 268.2 115.3 268.2 115.3 L 251.4 115.3 L 251.4 112.4 C 251.4 112.4 264.83 112.42 264.8 112.4 C 264.8 111.2 264.6 110.1 264.1 109.1 C 263.6 108.2 262.9 107.4 262 106.8 C 261.1 106.3 260.1 106 258.9 106 C 257.5 106 256.4 106.3 255.4 107 C 254.4 107.6 253.7 108.5 253.2 109.6 C 252.6 110.6 252.4 111.7 252.4 112.9 C 252.4 112.9 252.4 114.9 252.4 114.9 C 252.4 116.5 252.7 117.9 253.2 119 C 253.8 120.2 254.6 121.1 255.6 121.6 C 256.7 122.2 257.9 122.5 259.2 122.5 C 260.1 122.5 260.9 122.4 261.6 122.2 C 262.3 121.9 262.9 121.5 263.5 121 C 264 120.5 264.4 119.9 264.7 119.1 C 264.7 119.1 267.9 120 267.9 120 C 267.6 121.1 267 122.1 266.2 122.9 C 265.4 123.8 264.4 124.4 263.2 124.9 C 262 125.3 260.7 125.5 259.2 125.5 Z M 286.8 133.3 C 286.2 133.3 285.7 133.2 285.2 133.1 C 284.8 133 284.5 133 284.3 132.9 C 284.3 132.9 285.2 129.9 285.2 129.9 C 286 130.1 286.7 130.2 287.3 130.1 C 288 130.1 288.5 129.8 289 129.3 C 289.5 128.8 289.9 128 290.3 126.9 C 290.34 126.91 291 125.2 291 125.2 L 282.9 103.3 L 286.5 103.3 L 292.6 120.7 L 292.8 120.7 L 298.8 103.3 L 302.4 103.3 C 302.4 103.3 293.18 128.27 293.2 128.3 C 292.8 129.4 292.2 130.3 291.6 131.1 C 291 131.8 290.3 132.4 289.5 132.7 C 288.7 133.1 287.8 133.3 286.8 133.3 Z M 314.3 125.5 C 312.3 125.5 310.6 125.1 309.1 124.1 C 307.6 123.2 306.5 121.9 305.6 120.2 C 304.8 118.5 304.4 116.5 304.4 114.3 C 304.4 112 304.8 110 305.6 108.3 C 306.5 106.6 307.6 105.3 309.1 104.4 C 310.6 103.5 312.3 103 314.3 103 C 316.2 103 318 103.5 319.4 104.4 C 320.9 105.3 322.1 106.6 322.9 108.3 C 323.7 110 324.2 112 324.2 114.3 C 324.2 116.5 323.7 118.5 322.9 120.2 C 322.1 121.9 320.9 123.2 319.4 124.1 C 318 125.1 316.2 125.5 314.3 125.5 Z M 314.3 122.5 C 315.8 122.5 317 122.2 318 121.4 C 318.9 120.6 319.6 119.6 320.1 118.4 C 320.6 117.1 320.8 115.8 320.8 114.3 C 320.8 112.8 320.6 111.5 320.1 110.2 C 319.6 109 318.9 107.9 318 107.2 C 317 106.4 315.8 106 314.3 106 C 312.8 106 311.5 106.4 310.6 107.2 C 309.6 107.9 308.9 109 308.4 110.2 C 308 111.5 307.7 112.8 307.7 114.3 C 307.7 115.8 308 117.1 308.4 118.4 C 308.9 119.6 309.6 120.6 310.6 121.4 C 311.5 122.2 312.8 122.5 314.3 122.5 Z M 342.5 116.2 C 342.53 116.17 342.5 103.3 342.5 103.3 L 345.9 103.3 L 345.9 125.1 L 342.5 125.1 L 342.5 121.4 C 342.5 121.4 342.3 121.4 342.3 121.4 C 341.8 122.5 341 123.4 339.9 124.2 C 338.8 125 337.5 125.4 335.8 125.4 C 334.5 125.4 333.3 125.1 332.2 124.5 C 331.1 123.9 330.3 123 329.7 121.7 C 329.1 120.5 328.8 119 328.8 117.1 C 328.78 117.14 328.8 103.3 328.8 103.3 L 332.1 103.3 C 332.1 103.3 332.13 116.91 332.1 116.9 C 332.1 118.5 332.6 119.8 333.5 120.7 C 334.4 121.7 335.5 122.1 336.9 122.1 C 337.7 122.1 338.6 121.9 339.5 121.5 C 340.3 121.1 341.1 120.4 341.6 119.5 C 342.2 118.7 342.5 117.5 342.5 116.2 Z M 366.6 112 C 366.62 111.97 366.6 125.1 366.6 125.1 L 363.3 125.1 L 363.3 96 L 366.6 96 L 366.6 106.7 C 366.6 106.7 366.91 106.68 366.9 106.7 C 367.4 105.6 368.2 104.7 369.2 104 C 370.2 103.3 371.6 103 373.3 103 C 374.8 103 376.1 103.3 377.2 103.9 C 378.4 104.5 379.2 105.4 379.8 106.6 C 380.5 107.8 380.8 109.4 380.8 111.2 C 380.77 111.23 380.8 125.1 380.8 125.1 L 377.4 125.1 C 377.4 125.1 377.42 111.45 377.4 111.5 C 377.4 109.7 377 108.4 376.1 107.4 C 375.2 106.5 373.9 106 372.4 106 C 371.3 106 370.3 106.2 369.4 106.7 C 368.5 107.2 367.9 107.8 367.4 108.7 C 366.9 109.6 366.6 110.7 366.6 112 Z M 392.8 125.6 C 391.4 125.6 390.1 125.3 389 124.8 C 387.9 124.3 387 123.5 386.3 122.5 C 385.6 121.5 385.3 120.3 385.3 118.9 C 385.3 117.6 385.6 116.6 386.1 115.9 C 386.5 115.1 387.2 114.5 388 114 C 388.9 113.6 389.8 113.2 390.8 113 C 391.8 112.8 392.8 112.6 393.8 112.5 C 395.1 112.3 396.2 112.2 397 112.1 C 397.8 112 398.4 111.8 398.8 111.6 C 399.2 111.4 399.4 111 399.4 110.5 C 399.4 110.5 399.4 110.4 399.4 110.4 C 399.4 109 399 107.9 398.3 107.1 C 397.5 106.3 396.3 105.9 394.8 105.9 C 393.2 105.9 391.9 106.3 391 107 C 390.1 107.7 389.5 108.4 389.1 109.2 C 389.1 109.2 385.9 108.1 385.9 108.1 C 386.5 106.8 387.3 105.7 388.2 105 C 389.2 104.3 390.2 103.7 391.3 103.4 C 392.5 103.1 393.6 103 394.7 103 C 395.4 103 396.2 103.1 397.1 103.2 C 398 103.4 398.9 103.7 399.8 104.3 C 400.6 104.8 401.3 105.5 401.9 106.6 C 402.5 107.6 402.8 109 402.8 110.7 C 402.76 110.72 402.8 125.1 402.8 125.1 L 399.4 125.1 L 399.4 122.1 C 399.4 122.1 399.24 122.14 399.2 122.1 C 399 122.6 398.6 123.1 398.1 123.7 C 397.6 124.2 396.9 124.7 396 125 C 395.1 125.4 394 125.6 392.8 125.6 Z M 393.3 122.6 C 394.6 122.6 395.7 122.3 396.6 121.8 C 397.5 121.3 398.2 120.6 398.7 119.8 C 399.2 119 399.4 118.1 399.4 117.2 C 399.4 117.2 399.4 114.1 399.4 114.1 C 399.3 114.3 399 114.4 398.5 114.6 C 398 114.7 397.4 114.8 396.8 114.9 C 396.2 115 395.6 115.1 395 115.2 C 394.4 115.3 394 115.3 393.6 115.4 C 392.7 115.5 391.9 115.7 391.2 115.9 C 390.4 116.2 389.8 116.5 389.4 117 C 388.9 117.5 388.7 118.2 388.7 119.1 C 388.7 120.2 389.1 121.1 390 121.7 C 390.8 122.3 391.9 122.6 393.3 122.6 Z M 425.3 103.3 L 417.2 125.1 L 413.8 125.1 L 405.7 103.3 L 409.4 103.3 L 415.4 120.7 L 415.6 120.7 L 421.7 103.3 L 425.3 103.3 Z M 437.4 125.5 C 435.3 125.5 433.5 125.1 431.9 124.1 C 430.4 123.2 429.3 121.9 428.4 120.2 C 427.6 118.5 427.2 116.6 427.2 114.4 C 427.2 112.1 427.6 110.1 428.4 108.4 C 429.3 106.7 430.4 105.4 431.9 104.4 C 433.3 103.5 435.1 103 437 103 C 438.2 103 439.3 103.2 440.4 103.6 C 441.5 103.9 442.5 104.5 443.4 105.4 C 444.3 106.2 445.1 107.4 445.6 108.8 C 446.1 110.1 446.4 111.9 446.4 113.9 C 446.41 113.9 446.4 115.3 446.4 115.3 L 429.6 115.3 L 429.6 112.4 C 429.6 112.4 443 112.42 443 112.4 C 443 111.2 442.8 110.1 442.3 109.1 C 441.8 108.2 441.1 107.4 440.2 106.8 C 439.3 106.3 438.3 106 437 106 C 435.7 106 434.5 106.3 433.6 107 C 432.6 107.6 431.9 108.5 431.3 109.6 C 430.8 110.6 430.6 111.7 430.6 112.9 C 430.6 112.9 430.6 114.9 430.6 114.9 C 430.6 116.5 430.8 117.9 431.4 119 C 432 120.2 432.8 121.1 433.8 121.6 C 434.8 122.2 436 122.5 437.4 122.5 C 438.3 122.5 439.1 122.4 439.8 122.2 C 440.5 121.9 441.1 121.5 441.6 121 C 442.1 120.5 442.5 119.9 442.8 119.1 C 442.8 119.1 446.1 120 446.1 120 C 445.7 121.1 445.2 122.1 444.4 122.9 C 443.5 123.8 442.6 124.4 441.4 124.9 C 440.2 125.3 438.9 125.5 437.4 125.5 Z M 472.3 103.3 L 472.3 106.1 L 461 106.1 L 461 103.3 L 472.3 103.3 Z M 464.3 98 L 467.6 98 C 467.6 98 467.61 118.84 467.6 118.8 C 467.6 119.8 467.7 120.5 468 121 C 468.3 121.4 468.7 121.7 469.1 121.9 C 469.5 122.1 470 122.1 470.5 122.1 C 470.9 122.1 471.2 122.1 471.4 122.1 C 471.6 122 471.8 122 472 122 C 472 122 472.7 125 472.7 125 C 472.4 125.1 472.1 125.1 471.7 125.2 C 471.3 125.3 470.8 125.4 470.2 125.4 C 469.2 125.4 468.3 125.2 467.4 124.8 C 466.5 124.4 465.7 123.7 465.1 122.9 C 464.5 122.1 464.3 121 464.3 119.8 C 464.25 119.75 464.3 98 464.3 98 Z M 480 112 C 479.99 111.97 480 125.1 480 125.1 L 476.6 125.1 L 476.6 96 L 480 96 L 480 106.7 C 480 106.7 480.27 106.68 480.3 106.7 C 480.8 105.6 481.6 104.7 482.6 104 C 483.6 103.3 485 103 486.7 103 C 488.2 103 489.5 103.3 490.6 103.9 C 491.7 104.5 492.6 105.4 493.2 106.6 C 493.8 107.8 494.1 109.4 494.1 111.2 C 494.13 111.23 494.1 125.1 494.1 125.1 L 490.8 125.1 C 490.8 125.1 490.78 111.45 490.8 111.5 C 490.8 109.7 490.3 108.4 489.4 107.4 C 488.5 106.5 487.3 106 485.7 106 C 484.6 106 483.6 106.2 482.8 106.7 C 481.9 107.2 481.2 107.8 480.7 108.7 C 480.2 109.6 480 110.7 480 112 Z M 509 125.5 C 506.9 125.5 505.1 125.1 503.6 124.1 C 502 123.2 500.9 121.9 500.1 120.2 C 499.2 118.5 498.8 116.6 498.8 114.4 C 498.8 112.1 499.2 110.1 500.1 108.4 C 500.9 106.7 502 105.4 503.5 104.4 C 505 103.5 506.7 103 508.7 103 C 509.8 103 510.9 103.2 512 103.6 C 513.1 103.9 514.1 104.5 515.1 105.4 C 516 106.2 516.7 107.4 517.2 108.8 C 517.8 110.1 518 111.9 518 113.9 C 518.04 113.9 518 115.3 518 115.3 L 501.2 115.3 L 501.2 112.4 C 501.2 112.4 514.63 112.42 514.6 112.4 C 514.6 111.2 514.4 110.1 513.9 109.1 C 513.4 108.2 512.7 107.4 511.8 106.8 C 510.9 106.3 509.9 106 508.7 106 C 507.3 106 506.2 106.3 505.2 107 C 504.2 107.6 503.5 108.5 503 109.6 C 502.4 110.6 502.2 111.7 502.2 112.9 C 502.2 112.9 502.2 114.9 502.2 114.9 C 502.2 116.5 502.5 117.9 503 119 C 503.6 120.2 504.4 121.1 505.4 121.6 C 506.5 122.2 507.6 122.5 509 122.5 C 509.9 122.5 510.7 122.4 511.4 122.2 C 512.1 121.9 512.7 121.5 513.2 121 C 513.8 120.5 514.2 119.9 514.5 119.1 C 514.5 119.1 517.7 120 517.7 120 C 517.4 121.1 516.8 122.1 516 122.9 C 515.2 123.8 514.2 124.4 513 124.9 C 511.8 125.3 510.5 125.5 509 125.5 Z M 534.4 125.1 L 534.4 103.3 L 537.6 103.3 L 537.6 106.6 C 537.6 106.6 537.86 106.57 537.9 106.6 C 538.3 105.5 539 104.6 540 103.9 C 541.1 103.3 542.2 102.9 543.5 102.9 C 543.8 102.9 544.1 102.9 544.5 102.9 C 544.8 103 545.1 103 545.3 103 C 545.3 103 545.3 106.4 545.3 106.4 C 545.2 106.4 544.9 106.3 544.5 106.3 C 544.1 106.2 543.7 106.2 543.3 106.2 C 542.2 106.2 541.3 106.4 540.4 106.8 C 539.6 107.3 538.9 107.9 538.5 108.6 C 538 109.4 537.8 110.3 537.8 111.3 C 537.75 111.28 537.8 125.1 537.8 125.1 L 534.4 125.1 Z M 549 125.1 L 549 103.3 L 552.3 103.3 L 552.3 125.1 L 549 125.1 Z M 550.7 99.6 C 550 99.6 549.5 99.4 549 99 C 548.5 98.5 548.3 98 548.3 97.4 C 548.3 96.7 548.5 96.2 549 95.8 C 549.5 95.3 550 95.1 550.7 95.1 C 551.3 95.1 551.9 95.3 552.4 95.8 C 552.8 96.2 553.1 96.7 553.1 97.4 C 553.1 98 552.8 98.5 552.4 99 C 551.9 99.4 551.3 99.6 550.7 99.6 Z M 566.8 133.7 C 565.2 133.7 563.8 133.5 562.6 133.1 C 561.5 132.7 560.5 132.2 559.7 131.5 C 559 130.8 558.3 130.1 557.9 129.4 C 557.9 129.4 560.6 127.5 560.6 127.5 C 560.9 127.9 561.2 128.3 561.7 128.8 C 562.2 129.4 562.8 129.8 563.6 130.2 C 564.4 130.6 565.5 130.8 566.8 130.8 C 568.6 130.8 570 130.3 571.2 129.5 C 572.3 128.6 572.9 127.3 572.9 125.5 C 572.88 125.49 572.9 121.1 572.9 121.1 C 572.9 121.1 572.6 121.06 572.6 121.1 C 572.4 121.5 572 121.9 571.6 122.5 C 571.1 123.1 570.5 123.6 569.6 124.1 C 568.8 124.5 567.7 124.8 566.2 124.8 C 564.5 124.8 562.9 124.3 561.5 123.5 C 560.1 122.7 559 121.5 558.2 119.9 C 557.4 118.3 557 116.3 557 114.1 C 557 111.8 557.4 109.9 558.2 108.2 C 558.9 106.6 560 105.3 561.4 104.4 C 562.8 103.4 564.5 103 566.3 103 C 567.7 103 568.8 103.2 569.7 103.7 C 570.5 104.2 571.2 104.7 571.6 105.3 C 572.1 105.9 572.4 106.4 572.7 106.7 C 572.66 106.74 573 106.7 573 106.7 L 573 103.3 L 576.2 103.3 C 576.2 103.3 576.24 125.72 576.2 125.7 C 576.2 127.6 575.8 129.1 575 130.3 C 574.1 131.5 573 132.3 571.6 132.9 C 570.1 133.5 568.5 133.7 566.8 133.7 Z M 566.7 121.7 C 568 121.7 569.2 121.4 570.1 120.8 C 571 120.2 571.7 119.3 572.2 118.2 C 572.7 117 572.9 115.6 572.9 114 C 572.9 112.4 572.7 111.1 572.2 109.8 C 571.8 108.6 571.1 107.7 570.1 107 C 569.2 106.3 568.1 106 566.7 106 C 565.3 106 564.1 106.4 563.1 107.1 C 562.2 107.8 561.5 108.8 561 110 C 560.6 111.2 560.3 112.5 560.3 114 C 560.3 115.5 560.6 116.9 561 118 C 561.5 119.2 562.2 120.1 563.2 120.8 C 564.1 121.4 565.3 121.7 566.7 121.7 Z M 585.4 112 C 585.38 111.97 585.4 125.1 585.4 125.1 L 582 125.1 L 582 96 L 585.4 96 L 585.4 106.7 C 585.4 106.7 585.66 106.68 585.7 106.7 C 586.2 105.6 586.9 104.7 588 104 C 589 103.3 590.4 103 592.1 103 C 593.6 103 594.9 103.3 596 103.9 C 597.1 104.5 598 105.4 598.6 106.6 C 599.2 107.8 599.5 109.4 599.5 111.2 C 599.52 111.23 599.5 125.1 599.5 125.1 L 596.2 125.1 C 596.2 125.1 596.17 111.45 596.2 111.5 C 596.2 109.7 595.7 108.4 594.8 107.4 C 593.9 106.5 592.7 106 591.1 106 C 590 106 589 106.2 588.2 106.7 C 587.3 107.2 586.6 107.8 586.1 108.7 C 585.6 109.6 585.4 110.7 585.4 112 Z M 614.2 103.3 L 614.2 106.1 L 602.9 106.1 L 602.9 103.3 L 614.2 103.3 Z M 606.2 98 L 609.5 98 C 609.5 98 609.53 118.84 609.5 118.8 C 609.5 119.8 609.7 120.5 609.9 121 C 610.2 121.4 610.6 121.7 611 121.9 C 611.5 122.1 611.9 122.1 612.4 122.1 C 612.8 122.1 613.1 122.1 613.3 122.1 C 613.6 122 613.8 122 613.9 122 C 613.9 122 614.6 125 614.6 125 C 614.4 125.1 614 125.1 613.6 125.2 C 613.2 125.3 612.7 125.4 612.1 125.4 C 611.1 125.4 610.2 125.2 609.3 124.8 C 608.4 124.4 607.7 123.7 607.1 122.9 C 606.5 122.1 606.2 121 606.2 119.8 C 606.17 119.75 606.2 98 606.2 98 Z M 632.1 125.1 L 628.4 125.1 L 639.1 96 L 642.8 96 L 653.4 125.1 L 649.8 125.1 L 641.1 100.6 L 640.8 100.6 L 632.1 125.1 Z M 633.5 113.7 L 648.4 113.7 L 648.4 116.9 L 633.5 116.9 L 633.5 113.7 Z M 661.2 96 L 661.2 125.1 L 657.7 125.1 L 657.7 96 L 661.2 96 Z M 688.8 103.3 L 688.8 106.1 L 677 106.1 L 677 103.3 L 688.8 103.3 Z M 680.5 125.1 C 680.5 125.1 680.52 100.26 680.5 100.3 C 680.5 99 680.8 98 681.4 97.1 C 682 96.3 682.7 95.7 683.7 95.3 C 684.6 94.8 685.6 94.6 686.7 94.6 C 687.5 94.6 688.1 94.7 688.7 94.8 C 689.2 95 689.6 95.1 689.8 95.2 C 689.8 95.2 688.9 98.1 688.9 98.1 C 688.7 98 688.5 98 688.2 97.9 C 687.9 97.8 687.5 97.8 687 97.8 C 685.9 97.8 685.1 98 684.6 98.6 C 684.1 99.2 683.9 100 683.9 101.1 C 683.87 101.06 683.9 125.1 683.9 125.1 L 680.5 125.1 Z M 701 125.5 C 699 125.5 697.3 125.1 695.8 124.1 C 694.3 123.2 693.2 121.9 692.3 120.2 C 691.5 118.5 691.1 116.5 691.1 114.3 C 691.1 112 691.5 110 692.3 108.3 C 693.2 106.6 694.3 105.3 695.8 104.4 C 697.3 103.5 699 103 701 103 C 702.9 103 704.7 103.5 706.2 104.4 C 707.6 105.3 708.8 106.6 709.6 108.3 C 710.4 110 710.9 112 710.9 114.3 C 710.9 116.5 710.4 118.5 709.6 120.2 C 708.8 121.9 707.6 123.2 706.2 124.1 C 704.7 125.1 702.9 125.5 701 125.5 Z M 701 122.5 C 702.5 122.5 703.7 122.2 704.7 121.4 C 705.6 120.6 706.4 119.6 706.8 118.4 C 707.3 117.1 707.5 115.8 707.5 114.3 C 707.5 112.8 707.3 111.5 706.8 110.2 C 706.4 109 705.6 107.9 704.7 107.2 C 703.7 106.4 702.5 106 701 106 C 699.5 106 698.3 106.4 697.3 107.2 C 696.3 107.9 695.6 109 695.1 110.2 C 694.7 111.5 694.4 112.8 694.4 114.3 C 694.4 115.8 694.7 117.1 695.1 118.4 C 695.6 119.6 696.3 120.6 697.3 121.4 C 698.3 122.2 699.5 122.5 701 122.5 Z M 715.6 125.1 L 715.6 103.3 L 718.9 103.3 L 718.9 106.6 C 718.9 106.6 719.1 106.57 719.1 106.6 C 719.5 105.5 720.2 104.6 721.3 103.9 C 722.3 103.3 723.5 102.9 724.8 102.9 C 725 102.9 725.3 102.9 725.7 102.9 C 726.1 103 726.4 103 726.5 103 C 726.5 103 726.5 106.4 726.5 106.4 C 726.4 106.4 726.2 106.3 725.8 106.3 C 725.4 106.2 724.9 106.2 724.5 106.2 C 723.4 106.2 722.5 106.4 721.7 106.8 C 720.8 107.3 720.2 107.9 719.7 108.6 C 719.2 109.4 719 110.3 719 111.3 C 718.99 111.28 719 125.1 719 125.1 L 715.6 125.1 Z M 750.9 125.5 C 748.8 125.5 747 125.1 745.5 124.1 C 744 123.2 742.8 121.9 742 120.2 C 741.2 118.5 740.7 116.6 740.7 114.4 C 740.7 112.1 741.2 110.1 742 108.4 C 742.8 106.7 743.9 105.4 745.4 104.4 C 746.9 103.5 748.6 103 750.6 103 C 751.7 103 752.8 103.2 753.9 103.6 C 755.1 103.9 756.1 104.5 757 105.4 C 757.9 106.2 758.6 107.4 759.1 108.8 C 759.7 110.1 760 111.9 760 113.9 C 759.95 113.9 760 115.3 760 115.3 L 743.1 115.3 L 743.1 112.4 C 743.1 112.4 756.54 112.42 756.5 112.4 C 756.5 111.2 756.3 110.1 755.8 109.1 C 755.3 108.2 754.6 107.4 753.7 106.8 C 752.8 106.3 751.8 106 750.6 106 C 749.2 106 748.1 106.3 747.1 107 C 746.1 107.6 745.4 108.5 744.9 109.6 C 744.4 110.6 744.1 111.7 744.1 112.9 C 744.1 112.9 744.1 114.9 744.1 114.9 C 744.1 116.5 744.4 117.9 745 119 C 745.5 120.2 746.3 121.1 747.4 121.6 C 748.4 122.2 749.6 122.5 750.9 122.5 C 751.8 122.5 752.6 122.4 753.3 122.2 C 754 121.9 754.6 121.5 755.2 121 C 755.7 120.5 756.1 119.9 756.4 119.1 C 756.4 119.1 759.6 120 759.6 120 C 759.3 121.1 758.7 122.1 757.9 122.9 C 757.1 123.8 756.1 124.4 754.9 124.9 C 753.7 125.3 752.4 125.5 750.9 125.5 Z M 781.6 103.3 L 773.5 125.1 L 770.1 125.1 L 762 103.3 L 765.6 103.3 L 771.7 120.7 L 771.9 120.7 L 777.9 103.3 L 781.6 103.3 Z M 793.6 125.5 C 791.5 125.5 789.7 125.1 788.2 124.1 C 786.7 123.2 785.5 121.9 784.7 120.2 C 783.9 118.5 783.5 116.6 783.5 114.4 C 783.5 112.1 783.9 110.1 784.7 108.4 C 785.5 106.7 786.7 105.4 788.1 104.4 C 789.6 103.5 791.3 103 793.3 103 C 794.4 103 795.6 103.2 796.7 103.6 C 797.8 103.9 798.8 104.5 799.7 105.4 C 800.6 106.2 801.3 107.4 801.9 108.8 C 802.4 110.1 802.7 111.9 802.7 113.9 C 802.68 113.9 802.7 115.3 802.7 115.3 L 785.9 115.3 L 785.9 112.4 C 785.9 112.4 799.27 112.42 799.3 112.4 C 799.3 111.2 799 110.1 798.5 109.1 C 798.1 108.2 797.4 107.4 796.5 106.8 C 795.6 106.3 794.5 106 793.3 106 C 792 106 790.8 106.3 789.8 107 C 788.9 107.6 788.1 108.5 787.6 109.6 C 787.1 110.6 786.8 111.7 786.8 112.9 C 786.8 112.9 786.8 114.9 786.8 114.9 C 786.8 116.5 787.1 117.9 787.7 119 C 788.3 120.2 789.1 121.1 790.1 121.6 C 791.1 122.2 792.3 122.5 793.6 122.5 C 794.5 122.5 795.3 122.4 796 122.2 C 796.8 121.9 797.4 121.5 797.9 121 C 798.4 120.5 798.8 119.9 799.1 119.1 C 799.1 119.1 802.3 120 802.3 120 C 802 121.1 801.4 122.1 800.6 122.9 C 799.8 123.8 798.8 124.4 797.6 124.9 C 796.5 125.3 795.1 125.5 793.6 125.5 Z M 807.5 125.1 L 807.5 103.3 L 810.7 103.3 L 810.7 106.6 C 810.7 106.6 810.92 106.57 810.9 106.6 C 811.3 105.5 812 104.6 813.1 103.9 C 814.1 103.3 815.3 102.9 816.6 102.9 C 816.8 102.9 817.2 102.9 817.5 102.9 C 817.9 103 818.2 103 818.4 103 C 818.4 103 818.4 106.4 818.4 106.4 C 818.2 106.4 818 106.3 817.6 106.3 C 817.2 106.2 816.8 106.2 816.3 106.2 C 815.3 106.2 814.3 106.4 813.5 106.8 C 812.7 107.3 812 107.9 811.5 108.6 C 811 109.4 810.8 110.3 810.8 111.3 C 810.8 111.28 810.8 125.1 810.8 125.1 L 807.5 125.1 Z M 825.1 133.3 C 824.5 133.3 824 133.2 823.5 133.1 C 823.1 133 822.8 133 822.6 132.9 C 822.6 132.9 823.5 129.9 823.5 129.9 C 824.3 130.1 825 130.2 825.6 130.1 C 826.3 130.1 826.8 129.8 827.3 129.3 C 827.8 128.8 828.2 128 828.6 126.9 C 828.64 126.91 829.3 125.2 829.3 125.2 L 821.2 103.3 L 824.8 103.3 L 830.9 120.7 L 831.1 120.7 L 837.1 103.3 L 840.7 103.3 C 840.7 103.3 831.48 128.27 831.5 128.3 C 831.1 129.4 830.5 130.3 829.9 131.1 C 829.3 131.8 828.6 132.4 827.8 132.7 C 827 133.1 826.1 133.3 825.1 133.3 Z M 856.4 133.3 L 856.4 103.3 L 859.7 103.3 L 859.7 106.7 C 859.7 106.7 860.06 106.74 860.1 106.7 C 860.3 106.4 860.6 105.9 861.1 105.3 C 861.5 104.7 862.2 104.2 863 103.7 C 863.8 103.2 864.9 103 866.4 103 C 868.2 103 869.8 103.4 871.2 104.4 C 872.6 105.3 873.7 106.6 874.5 108.3 C 875.3 110 875.7 111.9 875.7 114.2 C 875.7 116.5 875.3 118.5 874.5 120.2 C 873.7 121.9 872.6 123.2 871.2 124.2 C 869.8 125.1 868.2 125.5 866.4 125.5 C 865 125.5 863.9 125.3 863.1 124.8 C 862.2 124.4 861.6 123.8 861.1 123.2 C 860.7 122.6 860.3 122.1 860.1 121.7 C 860.06 121.74 859.8 121.7 859.8 121.7 L 859.8 133.3 L 856.4 133.3 Z M 859.7 114.2 C 859.7 115.8 860 117.3 860.4 118.5 C 860.9 119.8 861.6 120.8 862.6 121.5 C 863.5 122.2 864.6 122.5 866 122.5 C 867.4 122.5 868.5 122.2 869.5 121.4 C 870.4 120.7 871.1 119.7 871.6 118.4 C 872.1 117.1 872.3 115.7 872.3 114.2 C 872.3 112.6 872.1 111.3 871.6 110 C 871.2 108.8 870.5 107.8 869.5 107.1 C 868.6 106.4 867.4 106 866 106 C 864.6 106 863.5 106.3 862.5 107 C 861.6 107.7 860.9 108.7 860.4 109.9 C 860 111.1 859.7 112.6 859.7 114.2 Z M 880.5 125.1 L 880.5 103.3 L 883.7 103.3 L 883.7 106.6 C 883.7 106.6 883.92 106.57 883.9 106.6 C 884.3 105.5 885 104.6 886.1 103.9 C 887.1 103.3 888.3 102.9 889.6 102.9 C 889.8 102.9 890.2 102.9 890.5 102.9 C 890.9 103 891.2 103 891.4 103 C 891.4 103 891.4 106.4 891.4 106.4 C 891.3 106.4 891 106.3 890.6 106.3 C 890.2 106.2 889.8 106.2 889.3 106.2 C 888.3 106.2 887.3 106.4 886.5 106.8 C 885.7 107.3 885 107.9 884.5 108.6 C 884 109.4 883.8 110.3 883.8 111.3 C 883.81 111.28 883.8 125.1 883.8 125.1 L 880.5 125.1 Z M 903.4 125.5 C 901.4 125.5 899.7 125.1 898.2 124.1 C 896.7 123.2 895.6 121.9 894.7 120.2 C 893.9 118.5 893.5 116.5 893.5 114.3 C 893.5 112 893.9 110 894.7 108.3 C 895.6 106.6 896.7 105.3 898.2 104.4 C 899.7 103.5 901.4 103 903.4 103 C 905.4 103 907.1 103.5 908.6 104.4 C 910 105.3 911.2 106.6 912 108.3 C 912.9 110 913.3 112 913.3 114.3 C 913.3 116.5 912.9 118.5 912 120.2 C 911.2 121.9 910 123.2 908.6 124.1 C 907.1 125.1 905.4 125.5 903.4 125.5 Z M 903.4 122.5 C 904.9 122.5 906.1 122.2 907.1 121.4 C 908 120.6 908.8 119.6 909.2 118.4 C 909.7 117.1 909.9 115.8 909.9 114.3 C 909.9 112.8 909.7 111.5 909.2 110.2 C 908.8 109 908 107.9 907.1 107.2 C 906.1 106.4 904.9 106 903.4 106 C 901.9 106 900.7 106.4 899.7 107.2 C 898.7 107.9 898 109 897.5 110.2 C 897.1 111.5 896.9 112.8 896.9 114.3 C 896.9 115.8 897.1 117.1 897.5 118.4 C 898 119.6 898.7 120.6 899.7 121.4 C 900.7 122.2 901.9 122.5 903.4 122.5 Z M 918.2 125.1 L 918.2 96 L 921.6 96 L 921.6 106.7 C 921.6 106.7 921.88 106.74 921.9 106.7 C 922.1 106.4 922.5 105.9 922.9 105.3 C 923.4 104.7 924 104.2 924.8 103.7 C 925.6 103.2 926.8 103 928.2 103 C 930 103 931.6 103.4 933 104.4 C 934.4 105.3 935.5 106.6 936.3 108.3 C 937.1 110 937.5 111.9 937.5 114.2 C 937.5 116.5 937.1 118.5 936.3 120.2 C 935.5 121.9 934.5 123.2 933.1 124.2 C 931.7 125.1 930.1 125.5 928.2 125.5 C 926.8 125.5 925.7 125.3 924.9 124.8 C 924 124.4 923.4 123.8 922.9 123.2 C 922.5 122.6 922.1 122.1 921.9 121.7 C 921.88 121.74 921.5 121.7 921.5 121.7 L 921.5 125.1 L 918.2 125.1 Z M 921.5 114.2 C 921.5 115.8 921.8 117.3 922.3 118.5 C 922.7 119.8 923.5 120.8 924.4 121.5 C 925.3 122.2 926.4 122.5 927.8 122.5 C 929.2 122.5 930.4 122.2 931.3 121.4 C 932.2 120.7 933 119.7 933.4 118.4 C 933.9 117.1 934.2 115.7 934.2 114.2 C 934.2 112.6 933.9 111.3 933.4 110 C 933 108.8 932.3 107.8 931.3 107.1 C 930.4 106.4 929.2 106 927.8 106 C 926.4 106 925.3 106.3 924.4 107 C 923.4 107.7 922.7 108.7 922.2 109.9 C 921.8 111.1 921.5 112.6 921.5 114.2 Z M 945.7 96 L 945.7 125.1 L 942.3 125.1 L 942.3 96 L 945.7 96 Z M 960.6 125.5 C 958.5 125.5 956.7 125.1 955.2 124.1 C 953.7 123.2 952.5 121.9 951.7 120.2 C 950.9 118.5 950.5 116.6 950.5 114.4 C 950.5 112.1 950.9 110.1 951.7 108.4 C 952.5 106.7 953.7 105.4 955.1 104.4 C 956.6 103.5 958.3 103 960.3 103 C 961.4 103 962.6 103.2 963.7 103.6 C 964.8 103.9 965.8 104.5 966.7 105.4 C 967.6 106.2 968.3 107.4 968.9 108.8 C 969.4 110.1 969.7 111.9 969.7 113.9 C 969.67 113.9 969.7 115.3 969.7 115.3 L 952.9 115.3 L 952.9 112.4 C 952.9 112.4 966.26 112.42 966.3 112.4 C 966.3 111.2 966 110.1 965.5 109.1 C 965 108.2 964.3 107.4 963.5 106.8 C 962.6 106.3 961.5 106 960.3 106 C 959 106 957.8 106.3 956.8 107 C 955.9 107.6 955.1 108.5 954.6 109.6 C 954.1 110.6 953.8 111.7 953.8 112.9 C 953.8 112.9 953.8 114.9 953.8 114.9 C 953.8 116.5 954.1 117.9 954.7 119 C 955.2 120.2 956 121.1 957.1 121.6 C 958.1 122.2 959.3 122.5 960.6 122.5 C 961.5 122.5 962.3 122.4 963 122.2 C 963.7 121.9 964.4 121.5 964.9 121 C 965.4 120.5 965.8 119.9 966.1 119.1 C 966.1 119.1 969.3 120 969.3 120 C 969 121.1 968.4 122.1 967.6 122.9 C 966.8 123.8 965.8 124.4 964.6 124.9 C 963.4 125.3 962.1 125.5 960.6 125.5 Z M 974.4 125.1 L 974.4 103.3 L 977.7 103.3 L 977.7 106.7 C 977.7 106.7 977.96 106.68 978 106.7 C 978.4 105.5 979.2 104.6 980.2 104 C 981.2 103.3 982.4 103 983.8 103 C 985.3 103 986.5 103.3 987.4 104 C 988.4 104.6 989.1 105.5 989.7 106.7 C 989.7 106.7 989.9 106.7 989.9 106.7 C 990.5 105.6 991.3 104.7 992.4 104 C 993.5 103.3 994.9 103 996.4 103 C 998.4 103 1000 103.6 1001.2 104.8 C 1002.5 106 1003.1 107.9 1003.1 110.5 C 1003.08 110.49 1003.1 125.1 1003.1 125.1 L 999.7 125.1 C 999.7 125.1 999.73 110.49 999.7 110.5 C 999.7 108.9 999.3 107.7 998.4 107 C 997.5 106.3 996.5 106 995.3 106 C 993.8 106 992.6 106.5 991.7 107.4 C 990.9 108.3 990.5 109.5 990.5 110.9 C 990.46 110.89 990.5 125.1 990.5 125.1 L 987.1 125.1 C 987.1 125.1 987.06 110.15 987.1 110.1 C 987.1 108.9 986.7 107.9 985.8 107.1 C 985 106.4 984 106 982.7 106 C 981.9 106 981.1 106.2 980.3 106.7 C 979.5 107.2 978.9 107.8 978.5 108.6 C 978 109.4 977.8 110.4 977.8 111.5 C 977.79 111.45 977.8 125.1 977.8 125.1 L 974.4 125.1 Z M 1011.2 125.3 C 1010.5 125.3 1009.9 125.1 1009.4 124.6 C 1008.9 124.1 1008.7 123.5 1008.7 122.8 C 1008.7 122.1 1008.9 121.5 1009.4 121 C 1009.9 120.5 1010.5 120.2 1011.2 120.2 C 1011.9 120.2 1012.5 120.5 1013 121 C 1013.5 121.5 1013.8 122.1 1013.8 122.8 C 1013.8 123.2 1013.7 123.7 1013.4 124 C 1013.2 124.4 1012.9 124.7 1012.5 125 C 1012.1 125.2 1011.7 125.3 1011.2 125.3 Z " stroke="none" fill="#10283d"/>  </g>  <g id="Polygon110755">    <path d="M 40.7 77.5 C 38.8 77.5 37.2 77.1 35.8 76.2 C 34.4 75.2 33.4 73.9 32.6 72.2 C 31.8 70.5 31.4 68.5 31.4 66.2 C 31.4 63.9 31.8 62 32.6 60.3 C 33.4 58.6 34.5 57.3 35.9 56.4 C 37.3 55.4 38.9 55 40.7 55 C 42.1 55 43.3 55.2 44.1 55.7 C 44.9 56.2 45.5 56.7 46 57.3 C 46.4 57.9 46.8 58.4 47 58.7 C 47.02 58.74 47.3 58.7 47.3 58.7 L 47.3 48 L 50.7 48 L 50.7 77.1 L 47.4 77.1 L 47.4 73.7 C 47.4 73.7 47.02 73.74 47 73.7 C 46.8 74.1 46.4 74.6 46 75.2 C 45.5 75.8 44.9 76.4 44 76.8 C 43.2 77.3 42.1 77.5 40.7 77.5 Z M 41.1 74.5 C 42.5 74.5 43.6 74.2 44.5 73.5 C 45.4 72.8 46.2 71.8 46.6 70.5 C 47.1 69.3 47.4 67.8 47.4 66.2 C 47.4 64.6 47.1 63.1 46.6 61.9 C 46.2 60.7 45.5 59.7 44.5 59 C 43.6 58.3 42.5 58 41.1 58 C 39.7 58 38.5 58.4 37.6 59.1 C 36.6 59.8 35.9 60.8 35.4 62 C 35 63.3 34.7 64.6 34.7 66.2 C 34.7 67.7 35 69.1 35.5 70.4 C 35.9 71.7 36.7 72.7 37.6 73.4 C 38.5 74.2 39.7 74.5 41.1 74.5 Z M 63 77.6 C 61.6 77.6 60.4 77.3 59.2 76.8 C 58.1 76.3 57.2 75.5 56.5 74.5 C 55.9 73.5 55.6 72.3 55.6 70.9 C 55.6 69.6 55.8 68.6 56.3 67.9 C 56.8 67.1 57.4 66.5 58.3 66 C 59.1 65.6 60 65.2 61 65 C 62 64.8 63 64.6 64 64.5 C 65.3 64.3 66.4 64.2 67.3 64.1 C 68.1 64 68.7 63.8 69.1 63.6 C 69.5 63.4 69.6 63 69.6 62.5 C 69.6 62.5 69.6 62.4 69.6 62.4 C 69.6 61 69.3 59.9 68.5 59.1 C 67.7 58.3 66.6 57.9 65 57.9 C 63.4 57.9 62.2 58.3 61.3 59 C 60.4 59.7 59.7 60.4 59.4 61.2 C 59.4 61.2 56.2 60.1 56.2 60.1 C 56.7 58.8 57.5 57.7 58.5 57 C 59.4 56.3 60.5 55.7 61.6 55.4 C 62.7 55.1 63.8 55 64.9 55 C 65.6 55 66.4 55.1 67.4 55.2 C 68.3 55.4 69.1 55.7 70 56.3 C 70.9 56.8 71.6 57.5 72.1 58.6 C 72.7 59.6 73 61 73 62.7 C 73 62.72 73 77.1 73 77.1 L 69.6 77.1 L 69.6 74.1 C 69.6 74.1 69.47 74.14 69.5 74.1 C 69.2 74.6 68.9 75.1 68.3 75.7 C 67.8 76.2 67.1 76.7 66.2 77 C 65.3 77.4 64.3 77.6 63 77.6 Z M 63.5 74.6 C 64.8 74.6 66 74.3 66.9 73.8 C 67.8 73.3 68.5 72.6 68.9 71.8 C 69.4 71 69.6 70.1 69.6 69.2 C 69.6 69.2 69.6 66.1 69.6 66.1 C 69.5 66.3 69.2 66.4 68.7 66.6 C 68.2 66.7 67.7 66.8 67.1 66.9 C 66.4 67 65.8 67.1 65.3 67.2 C 64.7 67.3 64.2 67.3 63.8 67.4 C 63 67.5 62.2 67.7 61.4 67.9 C 60.7 68.2 60.1 68.5 59.6 69 C 59.1 69.5 58.9 70.2 58.9 71.1 C 58.9 72.2 59.3 73.1 60.2 73.7 C 61.1 74.3 62.2 74.6 63.5 74.6 Z M 87.7 55.3 L 87.7 58.1 L 76.4 58.1 L 76.4 55.3 L 87.7 55.3 Z M 79.7 50 L 83 50 C 83 50 83.04 70.84 83 70.8 C 83 71.8 83.2 72.5 83.5 73 C 83.7 73.4 84.1 73.7 84.5 73.9 C 85 74.1 85.4 74.1 85.9 74.1 C 86.3 74.1 86.6 74.1 86.8 74.1 C 87.1 74 87.3 74 87.4 74 C 87.4 74 88.1 77 88.1 77 C 87.9 77.1 87.6 77.1 87.1 77.2 C 86.7 77.3 86.2 77.4 85.6 77.4 C 84.6 77.4 83.7 77.2 82.8 76.8 C 81.9 76.4 81.2 75.7 80.6 74.9 C 80 74.1 79.7 73 79.7 71.8 C 79.69 71.75 79.7 50 79.7 50 Z M 98.5 77.6 C 97.1 77.6 95.8 77.3 94.7 76.8 C 93.6 76.3 92.7 75.5 92 74.5 C 91.4 73.5 91 72.3 91 70.9 C 91 69.6 91.3 68.6 91.8 67.9 C 92.3 67.1 92.9 66.5 93.7 66 C 94.6 65.6 95.5 65.2 96.5 65 C 97.5 64.8 98.5 64.6 99.5 64.5 C 100.8 64.3 101.9 64.2 102.7 64.1 C 103.5 64 104.2 63.8 104.5 63.6 C 104.9 63.4 105.1 63 105.1 62.5 C 105.1 62.5 105.1 62.4 105.1 62.4 C 105.1 61 104.7 59.9 104 59.1 C 103.2 58.3 102.1 57.9 100.5 57.9 C 98.9 57.9 97.7 58.3 96.7 59 C 95.8 59.7 95.2 60.4 94.8 61.2 C 94.8 61.2 91.6 60.1 91.6 60.1 C 92.2 58.8 93 57.7 93.9 57 C 94.9 56.3 95.9 55.7 97.1 55.4 C 98.2 55.1 99.3 55 100.4 55 C 101.1 55 101.9 55.1 102.8 55.2 C 103.7 55.4 104.6 55.7 105.5 56.3 C 106.3 56.8 107 57.5 107.6 58.6 C 108.2 59.6 108.5 61 108.5 62.7 C 108.47 62.72 108.5 77.1 108.5 77.1 L 105.1 77.1 L 105.1 74.1 C 105.1 74.1 104.94 74.14 104.9 74.1 C 104.7 74.6 104.3 75.1 103.8 75.7 C 103.3 76.2 102.6 76.7 101.7 77 C 100.8 77.4 99.7 77.6 98.5 77.6 Z M 99 74.6 C 100.3 74.6 101.4 74.3 102.3 73.8 C 103.3 73.3 103.9 72.6 104.4 71.8 C 104.9 71 105.1 70.1 105.1 69.2 C 105.1 69.2 105.1 66.1 105.1 66.1 C 105 66.3 104.7 66.4 104.2 66.6 C 103.7 66.7 103.2 66.8 102.5 66.9 C 101.9 67 101.3 67.1 100.7 67.2 C 100.1 67.3 99.7 67.3 99.3 67.4 C 98.4 67.5 97.6 67.7 96.9 67.9 C 96.1 68.2 95.5 68.5 95.1 69 C 94.6 69.5 94.4 70.2 94.4 71.1 C 94.4 72.2 94.8 73.1 95.7 73.7 C 96.5 74.3 97.6 74.6 99 74.6 Z M 116.6 77.3 C 115.9 77.3 115.3 77.1 114.8 76.6 C 114.3 76.1 114.1 75.5 114.1 74.8 C 114.1 74.1 114.3 73.5 114.8 73 C 115.3 72.5 115.9 72.2 116.6 72.2 C 117.3 72.2 117.9 72.5 118.4 73 C 118.9 73.5 119.2 74.1 119.2 74.8 C 119.2 75.2 119.1 75.7 118.8 76 C 118.6 76.4 118.3 76.7 117.9 77 C 117.5 77.2 117.1 77.3 116.6 77.3 Z M 138.1 77.1 L 134.4 77.1 L 145.1 48 L 148.7 48 L 159.4 77.1 L 155.7 77.1 L 147 52.6 L 146.8 52.6 L 138.1 77.1 Z M 139.5 65.7 L 154.4 65.7 L 154.4 68.9 L 139.5 68.9 L 139.5 65.7 Z M 166.6 64 C 166.63 63.97 166.6 77.1 166.6 77.1 L 163.3 77.1 L 163.3 55.3 L 166.5 55.3 L 166.5 58.7 C 166.5 58.7 166.8 58.68 166.8 58.7 C 167.3 57.6 168.1 56.7 169.1 56 C 170.2 55.3 171.5 55 173.2 55 C 174.6 55 175.9 55.3 177 55.9 C 178.1 56.5 179 57.4 179.6 58.6 C 180.2 59.8 180.5 61.4 180.5 63.2 C 180.55 63.23 180.5 77.1 180.5 77.1 L 177.2 77.1 C 177.2 77.1 177.2 63.45 177.2 63.5 C 177.2 61.7 176.8 60.4 175.9 59.4 C 175 58.5 173.7 58 172.2 58 C 171.1 58 170.2 58.2 169.3 58.7 C 168.5 59.2 167.8 59.8 167.4 60.7 C 166.9 61.6 166.6 62.7 166.6 64 Z M 194.5 77.5 C 192.7 77.5 191.1 77.1 189.7 76.2 C 188.3 75.2 187.2 73.9 186.4 72.2 C 185.6 70.5 185.2 68.5 185.2 66.2 C 185.2 63.9 185.6 62 186.4 60.3 C 187.2 58.6 188.3 57.3 189.7 56.4 C 191.1 55.4 192.7 55 194.6 55 C 196 55 197.1 55.2 197.9 55.7 C 198.8 56.2 199.4 56.7 199.8 57.3 C 200.3 57.9 200.6 58.4 200.9 58.7 C 200.86 58.74 201.1 58.7 201.1 58.7 L 201.1 48 L 204.5 48 L 204.5 77.1 L 201.3 77.1 L 201.3 73.7 C 201.3 73.7 200.86 73.74 200.9 73.7 C 200.6 74.1 200.3 74.6 199.8 75.2 C 199.4 75.8 198.7 76.4 197.9 76.8 C 197 77.3 195.9 77.5 194.5 77.5 Z M 195 74.5 C 196.3 74.5 197.4 74.2 198.4 73.5 C 199.3 72.8 200 71.8 200.5 70.5 C 201 69.3 201.2 67.8 201.2 66.2 C 201.2 64.6 201 63.1 200.5 61.9 C 200 60.7 199.3 59.7 198.4 59 C 197.5 58.3 196.3 58 195 58 C 193.5 58 192.4 58.4 191.4 59.1 C 190.5 59.8 189.8 60.8 189.3 62 C 188.8 63.3 188.6 64.6 188.6 66.2 C 188.6 67.7 188.8 69.1 189.3 70.4 C 189.8 71.7 190.5 72.7 191.4 73.4 C 192.4 74.2 193.6 74.5 195 74.5 Z M 228.8 77.6 C 227.4 77.6 226.1 77.3 225 76.8 C 223.9 76.3 223 75.5 222.3 74.5 C 221.6 73.5 221.3 72.3 221.3 70.9 C 221.3 69.6 221.6 68.6 222.1 67.9 C 222.5 67.1 223.2 66.5 224 66 C 224.9 65.6 225.8 65.2 226.8 65 C 227.8 64.8 228.8 64.6 229.8 64.5 C 231.1 64.3 232.2 64.2 233 64.1 C 233.8 64 234.4 63.8 234.8 63.6 C 235.2 63.4 235.4 63 235.4 62.5 C 235.4 62.5 235.4 62.4 235.4 62.4 C 235.4 61 235 59.9 234.3 59.1 C 233.5 58.3 232.3 57.9 230.8 57.9 C 229.2 57.9 228 58.3 227 59 C 226.1 59.7 225.5 60.4 225.1 61.2 C 225.1 61.2 221.9 60.1 221.9 60.1 C 222.5 58.8 223.3 57.7 224.2 57 C 225.2 56.3 226.2 55.7 227.3 55.4 C 228.5 55.1 229.6 55 230.7 55 C 231.4 55 232.2 55.1 233.1 55.2 C 234 55.4 234.9 55.7 235.8 56.3 C 236.6 56.8 237.3 57.5 237.9 58.6 C 238.5 59.6 238.8 61 238.8 62.7 C 238.76 62.72 238.8 77.1 238.8 77.1 L 235.4 77.1 L 235.4 74.1 C 235.4 74.1 235.24 74.14 235.2 74.1 C 235 74.6 234.6 75.1 234.1 75.7 C 233.6 76.2 232.9 76.7 232 77 C 231.1 77.4 230 77.6 228.8 77.6 Z M 229.3 74.6 C 230.6 74.6 231.7 74.3 232.6 73.8 C 233.5 73.3 234.2 72.6 234.7 71.8 C 235.2 71 235.4 70.1 235.4 69.2 C 235.4 69.2 235.4 66.1 235.4 66.1 C 235.3 66.3 235 66.4 234.5 66.6 C 234 66.7 233.5 66.8 232.8 66.9 C 232.2 67 231.6 67.1 231 67.2 C 230.4 67.3 230 67.3 229.6 67.4 C 228.7 67.5 227.9 67.7 227.2 67.9 C 226.4 68.2 225.8 68.5 225.4 69 C 224.9 69.5 224.7 70.2 224.7 71.1 C 224.7 72.2 225.1 73.1 226 73.7 C 226.8 74.3 227.9 74.6 229.3 74.6 Z M 256.1 85.3 L 256.1 55.3 L 259.4 55.3 L 259.4 58.7 C 259.4 58.7 259.78 58.74 259.8 58.7 C 260 58.4 260.4 57.9 260.8 57.3 C 261.3 56.7 261.9 56.2 262.7 55.7 C 263.5 55.2 264.7 55 266.1 55 C 267.9 55 269.5 55.4 270.9 56.4 C 272.3 57.3 273.4 58.6 274.2 60.3 C 275 62 275.4 63.9 275.4 66.2 C 275.4 68.5 275 70.5 274.2 72.2 C 273.4 73.9 272.4 75.2 271 76.2 C 269.6 77.1 268 77.5 266.1 77.5 C 264.7 77.5 263.6 77.3 262.8 76.8 C 261.9 76.4 261.3 75.8 260.8 75.2 C 260.4 74.6 260 74.1 259.8 73.7 C 259.78 73.74 259.5 73.7 259.5 73.7 L 259.5 85.3 L 256.1 85.3 Z M 259.4 66.2 C 259.4 67.8 259.7 69.3 260.2 70.5 C 260.7 71.8 261.4 72.8 262.3 73.5 C 263.2 74.2 264.3 74.5 265.7 74.5 C 267.1 74.5 268.3 74.2 269.2 73.4 C 270.2 72.7 270.9 71.7 271.3 70.4 C 271.8 69.1 272.1 67.7 272.1 66.2 C 272.1 64.6 271.8 63.3 271.4 62 C 270.9 60.8 270.2 59.8 269.2 59.1 C 268.3 58.4 267.1 58 265.7 58 C 264.3 58 263.2 58.3 262.3 59 C 261.3 59.7 260.6 60.7 260.2 61.9 C 259.7 63.1 259.4 64.6 259.4 66.2 Z M 280.2 77.1 L 280.2 55.3 L 283.4 55.3 L 283.4 58.6 C 283.4 58.6 283.65 58.57 283.6 58.6 C 284 57.5 284.8 56.6 285.8 55.9 C 286.8 55.3 288 54.9 289.3 54.9 C 289.6 54.9 289.9 54.9 290.3 54.9 C 290.6 55 290.9 55 291.1 55 C 291.1 55 291.1 58.4 291.1 58.4 C 291 58.4 290.7 58.3 290.3 58.3 C 289.9 58.2 289.5 58.2 289 58.2 C 288 58.2 287 58.4 286.2 58.8 C 285.4 59.3 284.7 59.9 284.3 60.6 C 283.8 61.4 283.5 62.3 283.5 63.3 C 283.53 63.28 283.5 77.1 283.5 77.1 L 280.2 77.1 Z M 301.1 77.6 C 299.7 77.6 298.5 77.3 297.3 76.8 C 296.2 76.3 295.3 75.5 294.7 74.5 C 294 73.5 293.7 72.3 293.7 70.9 C 293.7 69.6 293.9 68.6 294.4 67.9 C 294.9 67.1 295.6 66.5 296.4 66 C 297.2 65.6 298.1 65.2 299.1 65 C 300.1 64.8 301.1 64.6 302.1 64.5 C 303.5 64.3 304.5 64.2 305.4 64.1 C 306.2 64 306.8 63.8 307.2 63.6 C 307.6 63.4 307.8 63 307.8 62.5 C 307.8 62.5 307.8 62.4 307.8 62.4 C 307.8 61 307.4 59.9 306.6 59.1 C 305.8 58.3 304.7 57.9 303.1 57.9 C 301.5 57.9 300.3 58.3 299.4 59 C 298.5 59.7 297.8 60.4 297.5 61.2 C 297.5 61.2 294.3 60.1 294.3 60.1 C 294.9 58.8 295.6 57.7 296.6 57 C 297.5 56.3 298.6 55.7 299.7 55.4 C 300.8 55.1 301.9 55 303 55 C 303.7 55 304.5 55.1 305.5 55.2 C 306.4 55.4 307.3 55.7 308.1 56.3 C 309 56.8 309.7 57.5 310.3 58.6 C 310.8 59.6 311.1 61 311.1 62.7 C 311.1 62.72 311.1 77.1 311.1 77.1 L 307.8 77.1 L 307.8 74.1 C 307.8 74.1 307.58 74.14 307.6 74.1 C 307.4 74.6 307 75.1 306.4 75.7 C 305.9 76.2 305.2 76.7 304.3 77 C 303.4 77.4 302.4 77.6 301.1 77.6 Z M 301.6 74.6 C 302.9 74.6 304.1 74.3 305 73.8 C 305.9 73.3 306.6 72.6 307 71.8 C 307.5 71 307.8 70.1 307.8 69.2 C 307.8 69.2 307.8 66.1 307.8 66.1 C 307.6 66.3 307.3 66.4 306.8 66.6 C 306.3 66.7 305.8 66.8 305.2 66.9 C 304.6 67 304 67.1 303.4 67.2 C 302.8 67.3 302.3 67.3 302 67.4 C 301.1 67.5 300.3 67.7 299.5 67.9 C 298.8 68.2 298.2 68.5 297.7 69 C 297.2 69.5 297 70.2 297 71.1 C 297 72.2 297.4 73.1 298.3 73.7 C 299.2 74.3 300.3 74.6 301.6 74.6 Z M 325.7 77.5 C 323.6 77.5 321.9 77.1 320.4 76.1 C 318.9 75.1 317.8 73.8 317 72.1 C 316.2 70.4 315.8 68.5 315.8 66.3 C 315.8 64.1 316.2 62.1 317 60.4 C 317.8 58.7 319 57.4 320.5 56.4 C 321.9 55.5 323.7 55 325.6 55 C 327.2 55 328.5 55.3 329.8 55.8 C 331 56.4 332 57.2 332.8 58.2 C 333.6 59.3 334.1 60.4 334.3 61.8 C 334.3 61.8 330.9 61.8 330.9 61.8 C 330.7 60.8 330.1 59.9 329.2 59.2 C 328.3 58.4 327.2 58 325.7 58 C 324.4 58 323.2 58.3 322.3 59 C 321.3 59.7 320.5 60.6 320 61.9 C 319.4 63.1 319.2 64.5 319.2 66.2 C 319.2 67.9 319.4 69.3 320 70.6 C 320.5 71.8 321.2 72.8 322.2 73.5 C 323.2 74.2 324.4 74.5 325.7 74.5 C 326.6 74.5 327.3 74.4 328.1 74.1 C 328.8 73.8 329.4 73.3 329.9 72.8 C 330.4 72.2 330.7 71.5 330.9 70.7 C 330.9 70.7 334.3 70.7 334.3 70.7 C 334.1 72 333.6 73.2 332.9 74.2 C 332.1 75.2 331.1 76 329.9 76.6 C 328.7 77.2 327.3 77.5 325.7 77.5 Z M 348.2 55.3 L 348.2 58.1 L 336.9 58.1 L 336.9 55.3 L 348.2 55.3 Z M 340.2 50 L 343.5 50 C 343.5 50 343.53 70.84 343.5 70.8 C 343.5 71.8 343.7 72.5 343.9 73 C 344.2 73.4 344.6 73.7 345 73.9 C 345.5 74.1 345.9 74.1 346.4 74.1 C 346.8 74.1 347.1 74.1 347.3 74.1 C 347.6 74 347.8 74 347.9 74 C 347.9 74 348.6 77 348.6 77 C 348.4 77.1 348 77.1 347.6 77.2 C 347.2 77.3 346.7 77.4 346.1 77.4 C 345.1 77.4 344.2 77.2 343.3 76.8 C 342.4 76.4 341.7 75.7 341.1 74.9 C 340.5 74.1 340.2 73 340.2 71.8 C 340.18 71.75 340.2 50 340.2 50 Z M 352.6 77.1 L 352.6 55.3 L 355.9 55.3 L 355.9 77.1 L 352.6 77.1 Z M 354.3 51.6 C 353.6 51.6 353 51.4 352.6 51 C 352.1 50.5 351.9 50 351.9 49.4 C 351.9 48.7 352.1 48.2 352.6 47.8 C 353 47.3 353.6 47.1 354.3 47.1 C 354.9 47.1 355.5 47.3 355.9 47.8 C 356.4 48.2 356.6 48.7 356.6 49.4 C 356.6 50 356.4 50.5 355.9 51 C 355.5 51.4 354.9 51.6 354.3 51.6 Z M 370.5 77.5 C 368.4 77.5 366.6 77.1 365.2 76.1 C 363.7 75.1 362.6 73.8 361.8 72.1 C 361 70.4 360.6 68.5 360.6 66.3 C 360.6 64.1 361 62.1 361.8 60.4 C 362.6 58.7 363.8 57.4 365.2 56.4 C 366.7 55.5 368.4 55 370.4 55 C 371.9 55 373.3 55.3 374.5 55.8 C 375.8 56.4 376.8 57.2 377.6 58.2 C 378.4 59.3 378.8 60.4 379 61.8 C 379 61.8 375.7 61.8 375.7 61.8 C 375.4 60.8 374.9 59.9 374 59.2 C 373.1 58.4 371.9 58 370.5 58 C 369.1 58 368 58.3 367 59 C 366 59.7 365.3 60.6 364.7 61.9 C 364.2 63.1 363.9 64.5 363.9 66.2 C 363.9 67.9 364.2 69.3 364.7 70.6 C 365.3 71.8 366 72.8 367 73.5 C 368 74.2 369.1 74.5 370.5 74.5 C 371.3 74.5 372.1 74.4 372.8 74.1 C 373.5 73.8 374.1 73.3 374.6 72.8 C 375.1 72.2 375.5 71.5 375.7 70.7 C 375.7 70.7 379 70.7 379 70.7 C 378.8 72 378.4 73.2 377.6 74.2 C 376.9 75.2 375.9 76 374.7 76.6 C 373.5 77.2 372.1 77.5 370.5 77.5 Z M 390.1 77.6 C 388.7 77.6 387.4 77.3 386.3 76.8 C 385.2 76.3 384.3 75.5 383.6 74.5 C 382.9 73.5 382.6 72.3 382.6 70.9 C 382.6 69.6 382.9 68.6 383.4 67.9 C 383.8 67.1 384.5 66.5 385.3 66 C 386.2 65.6 387.1 65.2 388.1 65 C 389.1 64.8 390.1 64.6 391.1 64.5 C 392.4 64.3 393.5 64.2 394.3 64.1 C 395.1 64 395.7 63.8 396.1 63.6 C 396.5 63.4 396.7 63 396.7 62.5 C 396.7 62.5 396.7 62.4 396.7 62.4 C 396.7 61 396.3 59.9 395.6 59.1 C 394.8 58.3 393.6 57.9 392.1 57.9 C 390.5 57.9 389.2 58.3 388.3 59 C 387.4 59.7 386.8 60.4 386.4 61.2 C 386.4 61.2 383.2 60.1 383.2 60.1 C 383.8 58.8 384.6 57.7 385.5 57 C 386.5 56.3 387.5 55.7 388.6 55.4 C 389.8 55.1 390.9 55 392 55 C 392.7 55 393.5 55.1 394.4 55.2 C 395.3 55.4 396.2 55.7 397.1 56.3 C 397.9 56.8 398.6 57.5 399.2 58.6 C 399.8 59.6 400.1 61 400.1 62.7 C 400.06 62.72 400.1 77.1 400.1 77.1 L 396.7 77.1 L 396.7 74.1 C 396.7 74.1 396.53 74.14 396.5 74.1 C 396.3 74.6 395.9 75.1 395.4 75.7 C 394.9 76.2 394.2 76.7 393.3 77 C 392.4 77.4 391.3 77.6 390.1 77.6 Z M 390.6 74.6 C 391.9 74.6 393 74.3 393.9 73.8 C 394.8 73.3 395.5 72.6 396 71.8 C 396.5 71 396.7 70.1 396.7 69.2 C 396.7 69.2 396.7 66.1 396.7 66.1 C 396.6 66.3 396.3 66.4 395.8 66.6 C 395.3 66.7 394.7 66.8 394.1 66.9 C 393.5 67 392.9 67.1 392.3 67.2 C 391.7 67.3 391.3 67.3 390.9 67.4 C 390 67.5 389.2 67.7 388.5 67.9 C 387.7 68.2 387.1 68.5 386.7 69 C 386.2 69.5 386 70.2 386 71.1 C 386 72.2 386.4 73.1 387.3 73.7 C 388.1 74.3 389.2 74.6 390.6 74.6 Z M 409.2 48 L 409.2 77.1 L 405.8 77.1 L 405.8 48 L 409.2 48 Z M 431.5 77.1 L 424.9 55.3 L 428.4 55.3 L 433.1 72 L 433.3 72 L 438 55.3 L 441.6 55.3 L 446.2 71.9 L 446.4 71.9 L 451.1 55.3 L 454.6 55.3 L 448 77.1 L 444.7 77.1 L 439.9 60.3 L 439.6 60.3 L 434.8 77.1 L 431.5 77.1 Z M 464.5 77.6 C 463.1 77.6 461.8 77.3 460.7 76.8 C 459.6 76.3 458.7 75.5 458 74.5 C 457.4 73.5 457 72.3 457 70.9 C 457 69.6 457.3 68.6 457.8 67.9 C 458.3 67.1 458.9 66.5 459.7 66 C 460.6 65.6 461.5 65.2 462.5 65 C 463.5 64.8 464.5 64.6 465.5 64.5 C 466.8 64.3 467.9 64.2 468.7 64.1 C 469.5 64 470.2 63.8 470.5 63.6 C 470.9 63.4 471.1 63 471.1 62.5 C 471.1 62.5 471.1 62.4 471.1 62.4 C 471.1 61 470.7 59.9 470 59.1 C 469.2 58.3 468.1 57.9 466.5 57.9 C 464.9 57.9 463.7 58.3 462.7 59 C 461.8 59.7 461.2 60.4 460.8 61.2 C 460.8 61.2 457.6 60.1 457.6 60.1 C 458.2 58.8 459 57.7 459.9 57 C 460.9 56.3 461.9 55.7 463.1 55.4 C 464.2 55.1 465.3 55 466.4 55 C 467.1 55 467.9 55.1 468.8 55.2 C 469.7 55.4 470.6 55.7 471.5 56.3 C 472.3 56.8 473 57.5 473.6 58.6 C 474.2 59.6 474.5 61 474.5 62.7 C 474.46 62.72 474.5 77.1 474.5 77.1 L 471.1 77.1 L 471.1 74.1 C 471.1 74.1 470.94 74.14 470.9 74.1 C 470.7 74.6 470.3 75.1 469.8 75.7 C 469.3 76.2 468.6 76.7 467.7 77 C 466.8 77.4 465.7 77.6 464.5 77.6 Z M 465 74.6 C 466.3 74.6 467.4 74.3 468.3 73.8 C 469.2 73.3 469.9 72.6 470.4 71.8 C 470.9 71 471.1 70.1 471.1 69.2 C 471.1 69.2 471.1 66.1 471.1 66.1 C 471 66.3 470.7 66.4 470.2 66.6 C 469.7 66.7 469.2 66.8 468.5 66.9 C 467.9 67 467.3 67.1 466.7 67.2 C 466.1 67.3 465.7 67.3 465.3 67.4 C 464.4 67.5 463.6 67.7 462.9 67.9 C 462.1 68.2 461.5 68.5 461.1 69 C 460.6 69.5 460.4 70.2 460.4 71.1 C 460.4 72.2 460.8 73.1 461.7 73.7 C 462.5 74.3 463.6 74.6 465 74.6 Z M 481.3 85.3 C 480.7 85.3 480.2 85.2 479.8 85.1 C 479.3 85 479 85 478.9 84.9 C 478.9 84.9 479.7 81.9 479.7 81.9 C 480.5 82.1 481.3 82.2 481.9 82.1 C 482.5 82.1 483.1 81.8 483.5 81.3 C 484 80.8 484.5 80 484.9 78.9 C 484.89 78.91 485.5 77.2 485.5 77.2 L 477.4 55.3 L 481.1 55.3 L 487.1 72.7 L 487.3 72.7 L 493.4 55.3 L 497 55.3 C 497 55.3 487.73 80.27 487.7 80.3 C 487.3 81.4 486.8 82.3 486.2 83.1 C 485.6 83.8 484.9 84.4 484 84.7 C 483.2 85.1 482.3 85.3 481.3 85.3 Z M 522.2 55.3 L 522.2 58.1 L 510.9 58.1 L 510.9 55.3 L 522.2 55.3 Z M 514.2 50 L 517.5 50 C 517.5 50 517.5 70.84 517.5 70.8 C 517.5 71.8 517.6 72.5 517.9 73 C 518.2 73.4 518.6 73.7 519 73.9 C 519.4 74.1 519.9 74.1 520.4 74.1 C 520.8 74.1 521.1 74.1 521.3 74.1 C 521.5 74 521.7 74 521.9 74 C 521.9 74 522.6 77 522.6 77 C 522.3 77.1 522 77.1 521.6 77.2 C 521.2 77.3 520.7 77.4 520.1 77.4 C 519.1 77.4 518.2 77.2 517.3 76.8 C 516.4 76.4 515.6 75.7 515 74.9 C 514.4 74.1 514.2 73 514.2 71.8 C 514.15 71.75 514.2 50 514.2 50 Z M 534.6 77.5 C 532.6 77.5 530.9 77.1 529.4 76.1 C 527.9 75.2 526.8 73.9 525.9 72.2 C 525.1 70.5 524.7 68.5 524.7 66.3 C 524.7 64 525.1 62 525.9 60.3 C 526.8 58.6 527.9 57.3 529.4 56.4 C 530.9 55.5 532.6 55 534.6 55 C 536.5 55 538.3 55.5 539.8 56.4 C 541.2 57.3 542.4 58.6 543.2 60.3 C 544.1 62 544.5 64 544.5 66.3 C 544.5 68.5 544.1 70.5 543.2 72.2 C 542.4 73.9 541.2 75.2 539.8 76.1 C 538.3 77.1 536.5 77.5 534.6 77.5 Z M 534.6 74.5 C 536.1 74.5 537.3 74.2 538.3 73.4 C 539.2 72.6 540 71.6 540.4 70.4 C 540.9 69.1 541.1 67.8 541.1 66.3 C 541.1 64.8 540.9 63.5 540.4 62.2 C 540 61 539.2 59.9 538.3 59.2 C 537.3 58.4 536.1 58 534.6 58 C 533.1 58 531.9 58.4 530.9 59.2 C 529.9 59.9 529.2 61 528.7 62.2 C 528.3 63.5 528 64.8 528 66.3 C 528 67.8 528.3 69.1 528.7 70.4 C 529.2 71.6 529.9 72.6 530.9 73.4 C 531.9 74.2 533.1 74.5 534.6 74.5 Z M 564.2 48 L 564.2 77.1 L 560.8 77.1 L 560.8 48 L 564.2 48 Z M 579.2 77.5 C 577 77.5 575.2 77.1 573.7 76.1 C 572.2 75.2 571 73.9 570.2 72.2 C 569.4 70.5 569 68.6 569 66.4 C 569 64.1 569.4 62.1 570.2 60.4 C 571 58.7 572.2 57.4 573.6 56.4 C 575.1 55.5 576.8 55 578.8 55 C 579.9 55 581.1 55.2 582.2 55.6 C 583.3 55.9 584.3 56.5 585.2 57.4 C 586.1 58.2 586.8 59.4 587.4 60.8 C 587.9 62.1 588.2 63.9 588.2 65.9 C 588.18 65.9 588.2 67.3 588.2 67.3 L 571.4 67.3 L 571.4 64.4 C 571.4 64.4 584.78 64.42 584.8 64.4 C 584.8 63.2 584.5 62.1 584 61.1 C 583.6 60.2 582.9 59.4 582 58.8 C 581.1 58.3 580 58 578.8 58 C 577.5 58 576.3 58.3 575.4 59 C 574.4 59.6 573.6 60.5 573.1 61.6 C 572.6 62.6 572.3 63.7 572.3 64.9 C 572.3 64.9 572.3 66.9 572.3 66.9 C 572.3 68.5 572.6 69.9 573.2 71 C 573.8 72.2 574.6 73.1 575.6 73.6 C 576.6 74.2 577.8 74.5 579.2 74.5 C 580 74.5 580.8 74.4 581.5 74.2 C 582.3 73.9 582.9 73.5 583.4 73 C 583.9 72.5 584.3 71.9 584.6 71.1 C 584.6 71.1 587.8 72 587.8 72 C 587.5 73.1 586.9 74.1 586.1 74.9 C 585.3 75.8 584.3 76.4 583.1 76.9 C 582 77.3 580.6 77.5 579.2 77.5 Z M 609.8 55.3 L 601.7 77.1 L 598.3 77.1 L 590.2 55.3 L 593.9 55.3 L 599.9 72.7 L 600.1 72.7 L 606.2 55.3 L 609.8 55.3 Z M 621.9 77.5 C 619.8 77.5 618 77.1 616.4 76.1 C 614.9 75.2 613.8 73.9 612.9 72.2 C 612.1 70.5 611.7 68.6 611.7 66.4 C 611.7 64.1 612.1 62.1 612.9 60.4 C 613.8 58.7 614.9 57.4 616.4 56.4 C 617.8 55.5 619.6 55 621.5 55 C 622.7 55 623.8 55.2 624.9 55.6 C 626 55.9 627 56.5 627.9 57.4 C 628.8 58.2 629.6 59.4 630.1 60.8 C 630.6 62.1 630.9 63.9 630.9 65.9 C 630.91 65.9 630.9 67.3 630.9 67.3 L 614.1 67.3 L 614.1 64.4 C 614.1 64.4 627.5 64.42 627.5 64.4 C 627.5 63.2 627.3 62.1 626.8 61.1 C 626.3 60.2 625.6 59.4 624.7 58.8 C 623.8 58.3 622.7 58 621.5 58 C 620.2 58 619 58.3 618.1 59 C 617.1 59.6 616.4 60.5 615.8 61.6 C 615.3 62.6 615.1 63.7 615.1 64.9 C 615.1 64.9 615.1 66.9 615.1 66.9 C 615.1 68.5 615.3 69.9 615.9 71 C 616.5 72.2 617.3 73.1 618.3 73.6 C 619.3 74.2 620.5 74.5 621.9 74.5 C 622.8 74.5 623.6 74.4 624.3 74.2 C 625 73.9 625.6 73.5 626.1 73 C 626.6 72.5 627 71.9 627.3 71.1 C 627.3 71.1 630.6 72 630.6 72 C 630.2 73.1 629.7 74.1 628.9 74.9 C 628 75.8 627.1 76.4 625.9 76.9 C 624.7 77.3 623.4 77.5 621.9 77.5 Z M 635.7 77.1 L 635.7 55.3 L 638.9 55.3 L 638.9 58.6 C 638.9 58.6 639.15 58.57 639.2 58.6 C 639.5 57.5 640.3 56.6 641.3 55.9 C 642.4 55.3 643.5 54.9 644.8 54.9 C 645.1 54.9 645.4 54.9 645.8 54.9 C 646.1 55 646.4 55 646.6 55 C 646.6 55 646.6 58.4 646.6 58.4 C 646.5 58.4 646.2 58.3 645.8 58.3 C 645.4 58.2 645 58.2 644.5 58.2 C 643.5 58.2 642.5 58.4 641.7 58.8 C 640.9 59.3 640.2 59.9 639.8 60.6 C 639.3 61.4 639 62.3 639 63.3 C 639.04 63.28 639 77.1 639 77.1 L 635.7 77.1 Z M 656.6 77.6 C 655.2 77.6 654 77.3 652.8 76.8 C 651.7 76.3 650.8 75.5 650.2 74.5 C 649.5 73.5 649.2 72.3 649.2 70.9 C 649.2 69.6 649.4 68.6 649.9 67.9 C 650.4 67.1 651.1 66.5 651.9 66 C 652.7 65.6 653.6 65.2 654.6 65 C 655.6 64.8 656.6 64.6 657.6 64.5 C 659 64.3 660 64.2 660.9 64.1 C 661.7 64 662.3 63.8 662.7 63.6 C 663.1 63.4 663.3 63 663.3 62.5 C 663.3 62.5 663.3 62.4 663.3 62.4 C 663.3 61 662.9 59.9 662.1 59.1 C 661.3 58.3 660.2 57.9 658.7 57.9 C 657.1 57.9 655.8 58.3 654.9 59 C 654 59.7 653.3 60.4 653 61.2 C 653 61.2 649.8 60.1 649.8 60.1 C 650.4 58.8 651.1 57.7 652.1 57 C 653 56.3 654.1 55.7 655.2 55.4 C 656.3 55.1 657.4 55 658.5 55 C 659.2 55 660 55.1 661 55.2 C 661.9 55.4 662.8 55.7 663.6 56.3 C 664.5 56.8 665.2 57.5 665.8 58.6 C 666.3 59.6 666.6 61 666.6 62.7 C 666.61 62.72 666.6 77.1 666.6 77.1 L 663.3 77.1 L 663.3 74.1 C 663.3 74.1 663.09 74.14 663.1 74.1 C 662.9 74.6 662.5 75.1 661.9 75.7 C 661.4 76.2 660.7 76.7 659.8 77 C 659 77.4 657.9 77.6 656.6 77.6 Z M 657.1 74.6 C 658.4 74.6 659.6 74.3 660.5 73.8 C 661.4 73.3 662.1 72.6 662.6 71.8 C 663 71 663.3 70.1 663.3 69.2 C 663.3 69.2 663.3 66.1 663.3 66.1 C 663.1 66.3 662.8 66.4 662.3 66.6 C 661.8 66.7 661.3 66.8 660.7 66.9 C 660.1 67 659.5 67.1 658.9 67.2 C 658.3 67.3 657.8 67.3 657.5 67.4 C 656.6 67.5 655.8 67.7 655 67.9 C 654.3 68.2 653.7 68.5 653.2 69 C 652.7 69.5 652.5 70.2 652.5 71.1 C 652.5 72.2 653 73.1 653.8 73.7 C 654.7 74.3 655.8 74.6 657.1 74.6 Z M 681.1 85.7 C 679.5 85.7 678.1 85.5 677 85.1 C 675.8 84.7 674.8 84.2 674 83.5 C 673.3 82.8 672.7 82.1 672.2 81.4 C 672.2 81.4 674.9 79.5 674.9 79.5 C 675.2 79.9 675.6 80.3 676 80.8 C 676.5 81.4 677.1 81.8 677.9 82.2 C 678.8 82.6 679.8 82.8 681.1 82.8 C 682.9 82.8 684.3 82.3 685.5 81.5 C 686.6 80.6 687.2 79.3 687.2 77.5 C 687.21 77.49 687.2 73.1 687.2 73.1 C 687.2 73.1 686.93 73.06 686.9 73.1 C 686.7 73.5 686.3 73.9 685.9 74.5 C 685.4 75.1 684.8 75.6 684 76.1 C 683.1 76.5 682 76.8 680.6 76.8 C 678.8 76.8 677.2 76.3 675.8 75.5 C 674.4 74.7 673.3 73.5 672.5 71.9 C 671.7 70.3 671.3 68.3 671.3 66.1 C 671.3 63.8 671.7 61.9 672.5 60.2 C 673.3 58.6 674.4 57.3 675.8 56.4 C 677.2 55.4 678.8 55 680.6 55 C 682 55 683.2 55.2 684 55.7 C 684.8 56.2 685.5 56.7 685.9 57.3 C 686.4 57.9 686.7 58.4 687 58.7 C 686.98 58.74 687.3 58.7 687.3 58.7 L 687.3 55.3 L 690.6 55.3 C 690.6 55.3 690.56 77.72 690.6 77.7 C 690.6 79.6 690.1 81.1 689.3 82.3 C 688.4 83.5 687.3 84.3 685.9 84.9 C 684.5 85.5 682.9 85.7 681.1 85.7 Z M 681 73.7 C 682.4 73.7 683.5 73.4 684.4 72.8 C 685.4 72.2 686.1 71.3 686.5 70.2 C 687 69 687.3 67.6 687.3 66 C 687.3 64.4 687 63.1 686.6 61.8 C 686.1 60.6 685.4 59.7 684.5 59 C 683.5 58.3 682.4 58 681 58 C 679.6 58 678.4 58.4 677.5 59.1 C 676.5 59.8 675.8 60.8 675.4 62 C 674.9 63.2 674.7 64.5 674.7 66 C 674.7 67.5 674.9 68.9 675.4 70 C 675.8 71.2 676.6 72.1 677.5 72.8 C 678.4 73.4 679.6 73.7 681 73.7 Z M 705.5 77.5 C 703.4 77.5 701.6 77.1 700.1 76.1 C 698.5 75.2 697.4 73.9 696.5 72.2 C 695.7 70.5 695.3 68.6 695.3 66.4 C 695.3 64.1 695.7 62.1 696.5 60.4 C 697.4 58.7 698.5 57.4 700 56.4 C 701.5 55.5 703.2 55 705.1 55 C 706.3 55 707.4 55.2 708.5 55.6 C 709.6 55.9 710.6 56.5 711.5 57.4 C 712.4 58.2 713.2 59.4 713.7 60.8 C 714.3 62.1 714.5 63.9 714.5 65.9 C 714.52 65.9 714.5 67.3 714.5 67.3 L 697.7 67.3 L 697.7 64.4 C 697.7 64.4 711.11 64.42 711.1 64.4 C 711.1 63.2 710.9 62.1 710.4 61.1 C 709.9 60.2 709.2 59.4 708.3 58.8 C 707.4 58.3 706.4 58 705.1 58 C 703.8 58 702.7 58.3 701.7 59 C 700.7 59.6 700 60.5 699.4 61.6 C 698.9 62.6 698.7 63.7 698.7 64.9 C 698.7 64.9 698.7 66.9 698.7 66.9 C 698.7 68.5 699 69.9 699.5 71 C 700.1 72.2 700.9 73.1 701.9 73.6 C 702.9 74.2 704.1 74.5 705.5 74.5 C 706.4 74.5 707.2 74.4 707.9 74.2 C 708.6 73.9 709.2 73.5 709.7 73 C 710.3 72.5 710.7 71.9 710.9 71.1 C 710.9 71.1 714.2 72 714.2 72 C 713.8 73.1 713.3 74.1 712.5 74.9 C 711.7 75.8 710.7 76.4 709.5 76.9 C 708.3 77.3 707 77.5 705.5 77.5 Z M 730.9 77.1 L 730.9 55.3 L 734.2 55.3 L 734.2 77.1 L 730.9 77.1 Z M 732.6 51.6 C 731.9 51.6 731.4 51.4 730.9 51 C 730.4 50.5 730.2 50 730.2 49.4 C 730.2 48.7 730.4 48.2 730.9 47.8 C 731.4 47.3 731.9 47.1 732.6 47.1 C 733.2 47.1 733.8 47.3 734.3 47.8 C 734.7 48.2 735 48.7 735 49.4 C 735 50 734.7 50.5 734.3 51 C 733.8 51.4 733.2 51.6 732.6 51.6 Z M 749.3 55.3 L 749.3 58.1 L 738 58.1 L 738 55.3 L 749.3 55.3 Z M 741.3 50 L 744.7 50 C 744.7 50 744.69 70.84 744.7 70.8 C 744.7 71.8 744.8 72.5 745.1 73 C 745.4 73.4 745.7 73.7 746.2 73.9 C 746.6 74.1 747.1 74.1 747.6 74.1 C 748 74.1 748.3 74.1 748.5 74.1 C 748.7 74 748.9 74 749.1 74 C 749.1 74 749.7 77 749.7 77 C 749.5 77.1 749.2 77.1 748.8 77.2 C 748.4 77.3 747.9 77.4 747.2 77.4 C 746.3 77.4 745.4 77.2 744.5 76.8 C 743.6 76.4 742.8 75.7 742.2 74.9 C 741.6 74.1 741.3 73 741.3 71.8 C 741.34 71.75 741.3 50 741.3 50 Z M 769.1 60.2 C 769.1 60.2 766.1 61 766.1 61 C 765.9 60.5 765.6 60 765.2 59.5 C 764.9 59.1 764.4 58.7 763.8 58.4 C 763.1 58 762.3 57.9 761.4 57.9 C 760 57.9 758.9 58.2 758 58.8 C 757.1 59.4 756.7 60.2 756.7 61.1 C 756.7 62 757 62.6 757.6 63.1 C 758.2 63.6 759.2 64 760.5 64.3 C 760.5 64.3 763.7 65.1 763.7 65.1 C 765.6 65.6 767.1 66.3 768.1 67.3 C 769 68.2 769.5 69.5 769.5 71 C 769.5 72.3 769.1 73.4 768.4 74.4 C 767.7 75.3 766.7 76.1 765.4 76.7 C 764.1 77.3 762.7 77.5 761 77.5 C 758.7 77.5 756.9 77.1 755.4 76.1 C 754 75.1 753.1 73.7 752.7 71.9 C 752.7 71.9 755.9 71.1 755.9 71.1 C 756.2 72.2 756.7 73.1 757.6 73.7 C 758.4 74.3 759.5 74.6 760.9 74.6 C 762.5 74.6 763.7 74.3 764.6 73.6 C 765.6 72.9 766 72.1 766 71.2 C 766 70.4 765.8 69.8 765.2 69.3 C 764.7 68.8 763.9 68.4 762.8 68.1 C 762.8 68.1 759.1 67.3 759.1 67.3 C 757.1 66.8 755.7 66.1 754.7 65.1 C 753.8 64.1 753.4 62.8 753.4 61.3 C 753.4 60.1 753.7 59 754.4 58 C 755.1 57.1 756 56.3 757.2 55.8 C 758.5 55.3 759.8 55 761.4 55 C 763.5 55 765.2 55.5 766.5 56.4 C 767.7 57.4 768.6 58.6 769.1 60.2 Z M 803.6 55.3 L 795.6 77.1 L 792.2 77.1 L 784.1 55.3 L 787.7 55.3 L 793.7 72.7 L 794 72.7 L 800 55.3 L 803.6 55.3 Z M 813.3 77.6 C 812 77.6 810.7 77.3 809.6 76.8 C 808.4 76.3 807.5 75.5 806.9 74.5 C 806.2 73.5 805.9 72.3 805.9 70.9 C 805.9 69.6 806.1 68.6 806.6 67.9 C 807.1 67.1 807.8 66.5 808.6 66 C 809.4 65.6 810.3 65.2 811.3 65 C 812.3 64.8 813.3 64.6 814.4 64.5 C 815.7 64.3 816.8 64.2 817.6 64.1 C 818.4 64 819 63.8 819.4 63.6 C 819.8 63.4 820 63 820 62.5 C 820 62.5 820 62.4 820 62.4 C 820 61 819.6 59.9 818.8 59.1 C 818.1 58.3 816.9 57.9 815.4 57.9 C 813.8 57.9 812.5 58.3 811.6 59 C 810.7 59.7 810.1 60.4 809.7 61.2 C 809.7 61.2 806.5 60.1 806.5 60.1 C 807.1 58.8 807.8 57.7 808.8 57 C 809.7 56.3 810.8 55.7 811.9 55.4 C 813.1 55.1 814.2 55 815.3 55 C 816 55 816.8 55.1 817.7 55.2 C 818.6 55.4 819.5 55.7 820.3 56.3 C 821.2 56.8 821.9 57.5 822.5 58.6 C 823 59.6 823.3 61 823.3 62.7 C 823.33 62.72 823.3 77.1 823.3 77.1 L 820 77.1 L 820 74.1 C 820 74.1 819.81 74.14 819.8 74.1 C 819.6 74.6 819.2 75.1 818.7 75.7 C 818.1 76.2 817.4 76.7 816.6 77 C 815.7 77.4 814.6 77.6 813.3 77.6 Z M 813.8 74.6 C 815.2 74.6 816.3 74.3 817.2 73.8 C 818.1 73.3 818.8 72.6 819.3 71.8 C 819.7 71 820 70.1 820 69.2 C 820 69.2 820 66.1 820 66.1 C 819.8 66.3 819.5 66.4 819.1 66.6 C 818.6 66.7 818 66.8 817.4 66.9 C 816.8 67 816.2 67.1 815.6 67.2 C 815 67.3 814.5 67.3 814.2 67.4 C 813.3 67.5 812.5 67.7 811.8 67.9 C 811 68.2 810.4 68.5 809.9 69 C 809.5 69.5 809.2 70.2 809.2 71.1 C 809.2 72.2 809.7 73.1 810.5 73.7 C 811.4 74.3 812.5 74.6 813.8 74.6 Z M 832.5 48 L 832.5 77.1 L 829.1 77.1 L 829.1 48 L 832.5 48 Z M 852 68.2 C 851.96 68.17 852 55.3 852 55.3 L 855.3 55.3 L 855.3 77.1 L 852 77.1 L 852 73.4 C 852 73.4 851.74 73.4 851.7 73.4 C 851.2 74.5 850.4 75.4 849.4 76.2 C 848.3 77 846.9 77.4 845.3 77.4 C 843.9 77.4 842.7 77.1 841.6 76.5 C 840.6 75.9 839.7 75 839.1 73.7 C 838.5 72.5 838.2 71 838.2 69.1 C 838.21 69.14 838.2 55.3 838.2 55.3 L 841.6 55.3 C 841.6 55.3 841.57 68.91 841.6 68.9 C 841.6 70.5 842 71.8 842.9 72.7 C 843.8 73.7 844.9 74.1 846.3 74.1 C 847.2 74.1 848 73.9 848.9 73.5 C 849.8 73.1 850.5 72.4 851.1 71.5 C 851.7 70.7 852 69.5 852 68.2 Z M 870.2 77.5 C 868.1 77.5 866.3 77.1 864.8 76.1 C 863.3 75.2 862.1 73.9 861.3 72.2 C 860.5 70.5 860.1 68.6 860.1 66.4 C 860.1 64.1 860.5 62.1 861.3 60.4 C 862.1 58.7 863.3 57.4 864.7 56.4 C 866.2 55.5 867.9 55 869.9 55 C 871 55 872.2 55.2 873.3 55.6 C 874.4 55.9 875.4 56.5 876.3 57.4 C 877.2 58.2 877.9 59.4 878.5 60.8 C 879 62.1 879.3 63.9 879.3 65.9 C 879.28 65.9 879.3 67.3 879.3 67.3 L 862.5 67.3 L 862.5 64.4 C 862.5 64.4 875.87 64.42 875.9 64.4 C 875.9 63.2 875.6 62.1 875.1 61.1 C 874.7 60.2 874 59.4 873.1 58.8 C 872.2 58.3 871.1 58 869.9 58 C 868.6 58 867.4 58.3 866.4 59 C 865.5 59.6 864.7 60.5 864.2 61.6 C 863.7 62.6 863.4 63.7 863.4 64.9 C 863.4 64.9 863.4 66.9 863.4 66.9 C 863.4 68.5 863.7 69.9 864.3 71 C 864.9 72.2 865.7 73.1 866.7 73.6 C 867.7 74.2 868.9 74.5 870.2 74.5 C 871.1 74.5 871.9 74.4 872.6 74.2 C 873.4 73.9 874 73.5 874.5 73 C 875 72.5 875.4 71.9 875.7 71.1 C 875.7 71.1 878.9 72 878.9 72 C 878.6 73.1 878 74.1 877.2 74.9 C 876.4 75.8 875.4 76.4 874.2 76.9 C 873.1 77.3 871.7 77.5 870.2 77.5 Z M 900.6 77.1 L 893.9 55.3 L 897.5 55.3 L 902.2 72 L 902.4 72 L 907.1 55.3 L 910.6 55.3 L 915.2 71.9 L 915.5 71.9 L 920.2 55.3 L 923.7 55.3 L 917.1 77.1 L 913.8 77.1 L 909 60.3 L 908.7 60.3 L 903.9 77.1 L 900.6 77.1 Z M 927.6 77.1 L 927.6 55.3 L 930.9 55.3 L 930.9 77.1 L 927.6 77.1 Z M 929.3 51.6 C 928.6 51.6 928.1 51.4 927.6 51 C 927.1 50.5 926.9 50 926.9 49.4 C 926.9 48.7 927.1 48.2 927.6 47.8 C 928.1 47.3 928.6 47.1 929.3 47.1 C 929.9 47.1 930.5 47.3 931 47.8 C 931.4 48.2 931.7 48.7 931.7 49.4 C 931.7 50 931.4 50.5 931 51 C 930.5 51.4 929.9 51.6 929.3 51.6 Z M 946.1 55.3 L 946.1 58.1 L 934.7 58.1 L 934.7 55.3 L 946.1 55.3 Z M 938 50 L 941.4 50 C 941.4 50 941.39 70.84 941.4 70.8 C 941.4 71.8 941.5 72.5 941.8 73 C 942.1 73.4 942.5 73.7 942.9 73.9 C 943.3 74.1 943.8 74.1 944.3 74.1 C 944.7 74.1 945 74.1 945.2 74.1 C 945.4 74 945.6 74 945.8 74 C 945.8 74 946.4 77 946.4 77 C 946.2 77.1 945.9 77.1 945.5 77.2 C 945.1 77.3 944.6 77.4 943.9 77.4 C 943 77.4 942.1 77.2 941.2 76.8 C 940.3 76.4 939.5 75.7 938.9 74.9 C 938.3 74.1 938 73 938 71.8 C 938.04 71.75 938 50 938 50 Z M 953.8 64 C 953.77 63.97 953.8 77.1 953.8 77.1 L 950.4 77.1 L 950.4 48 L 953.8 48 L 953.8 58.7 C 953.8 58.7 954.06 58.68 954.1 58.7 C 954.6 57.6 955.3 56.7 956.4 56 C 957.4 55.3 958.8 55 960.5 55 C 962 55 963.3 55.3 964.4 55.9 C 965.5 56.5 966.4 57.4 967 58.6 C 967.6 59.8 967.9 61.4 967.9 63.2 C 967.92 63.23 967.9 77.1 967.9 77.1 L 964.6 77.1 C 964.6 77.1 964.57 63.45 964.6 63.5 C 964.6 61.7 964.1 60.4 963.2 59.4 C 962.3 58.5 961.1 58 959.5 58 C 958.4 58 957.4 58.2 956.6 58.7 C 955.7 59.2 955 59.8 954.5 60.7 C 954 61.6 953.8 62.7 953.8 64 Z M 987 77.1 L 983.3 77.1 L 993.9 48 L 997.6 48 L 1008.3 77.1 L 1004.6 77.1 L 995.9 52.6 L 995.6 52.6 L 987 77.1 Z M 988.3 65.7 L 1003.2 65.7 L 1003.2 68.9 L 988.3 68.9 L 988.3 65.7 Z M 1016 48 L 1016 77.1 L 1012.5 77.1 L 1012.5 48 L 1016 48 Z M 1024.9 77.3 C 1024.2 77.3 1023.6 77.1 1023.1 76.6 C 1022.6 76.1 1022.3 75.5 1022.3 74.8 C 1022.3 74.1 1022.6 73.5 1023.1 73 C 1023.6 72.5 1024.2 72.2 1024.9 72.2 C 1025.6 72.2 1026.2 72.5 1026.7 73 C 1027.2 73.5 1027.4 74.1 1027.4 74.8 C 1027.4 75.2 1027.3 75.7 1027.1 76 C 1026.9 76.4 1026.6 76.7 1026.2 77 C 1025.8 77.2 1025.4 77.3 1024.9 77.3 Z " stroke="none" fill="#10283d"/>  </g>  <g id="Polygon110754">    <path d="M 54.7 29.1 L 46.7 0 L 50.3 0 L 56.4 23.7 L 56.6 23.7 L 62.8 0 L 66.8 0 L 73 23.7 L 73.3 23.7 L 79.4 0 L 83 0 L 75 29.1 L 71.4 29.1 L 64.9 5.9 L 64.7 5.9 L 58.3 29.1 L 54.7 29.1 Z M 90.1 16 C 90.09 15.97 90.1 29.1 90.1 29.1 L 86.7 29.1 L 86.7 0 L 90.1 0 L 90.1 10.7 C 90.1 10.7 90.38 10.68 90.4 10.7 C 90.9 9.6 91.7 8.7 92.7 8 C 93.7 7.3 95.1 7 96.8 7 C 98.3 7 99.6 7.3 100.7 7.9 C 101.8 8.5 102.7 9.4 103.3 10.6 C 103.9 11.8 104.2 13.4 104.2 15.2 C 104.24 15.23 104.2 29.1 104.2 29.1 L 100.9 29.1 C 100.9 29.1 100.89 15.45 100.9 15.5 C 100.9 13.7 100.4 12.4 99.5 11.4 C 98.7 10.5 97.4 10 95.8 10 C 94.7 10 93.7 10.2 92.9 10.7 C 92 11.2 91.3 11.8 90.8 12.7 C 90.3 13.6 90.1 14.7 90.1 16 Z M 116.2 29.6 C 114.8 29.6 113.6 29.3 112.5 28.8 C 111.3 28.3 110.4 27.5 109.8 26.5 C 109.1 25.5 108.8 24.3 108.8 22.9 C 108.8 21.6 109 20.6 109.5 19.9 C 110 19.1 110.7 18.5 111.5 18 C 112.3 17.6 113.2 17.2 114.2 17 C 115.2 16.8 116.2 16.6 117.3 16.5 C 118.6 16.3 119.7 16.2 120.5 16.1 C 121.3 16 121.9 15.8 122.3 15.6 C 122.7 15.4 122.9 15 122.9 14.5 C 122.9 14.5 122.9 14.4 122.9 14.4 C 122.9 13 122.5 11.9 121.7 11.1 C 121 10.3 119.8 9.9 118.3 9.9 C 116.7 9.9 115.4 10.3 114.5 11 C 113.6 11.7 113 12.4 112.6 13.2 C 112.6 13.2 109.4 12.1 109.4 12.1 C 110 10.8 110.7 9.7 111.7 9 C 112.6 8.3 113.7 7.7 114.8 7.4 C 115.9 7.1 117.1 7 118.2 7 C 118.9 7 119.7 7.1 120.6 7.2 C 121.5 7.4 122.4 7.7 123.2 8.3 C 124.1 8.8 124.8 9.5 125.4 10.6 C 125.9 11.6 126.2 13 126.2 14.7 C 126.23 14.72 126.2 29.1 126.2 29.1 L 122.9 29.1 L 122.9 26.1 C 122.9 26.1 122.71 26.14 122.7 26.1 C 122.5 26.6 122.1 27.1 121.6 27.7 C 121 28.2 120.3 28.7 119.5 29 C 118.6 29.4 117.5 29.6 116.2 29.6 Z M 116.7 26.6 C 118.1 26.6 119.2 26.3 120.1 25.8 C 121 25.3 121.7 24.6 122.2 23.8 C 122.6 23 122.9 22.1 122.9 21.2 C 122.9 21.2 122.9 18.1 122.9 18.1 C 122.7 18.3 122.4 18.4 121.9 18.6 C 121.5 18.7 120.9 18.8 120.3 18.9 C 119.7 19 119.1 19.1 118.5 19.2 C 117.9 19.3 117.4 19.3 117.1 19.4 C 116.2 19.5 115.4 19.7 114.6 19.9 C 113.9 20.2 113.3 20.5 112.8 21 C 112.4 21.5 112.1 22.2 112.1 23.1 C 112.1 24.2 112.6 25.1 113.4 25.7 C 114.3 26.3 115.4 26.6 116.7 26.6 Z M 140.9 7.3 L 140.9 10.1 L 129.6 10.1 L 129.6 7.3 L 140.9 7.3 Z M 132.9 2 L 136.3 2 C 136.3 2 136.27 22.84 136.3 22.8 C 136.3 23.8 136.4 24.5 136.7 25 C 137 25.4 137.3 25.7 137.8 25.9 C 138.2 26.1 138.7 26.1 139.2 26.1 C 139.5 26.1 139.8 26.1 140.1 26.1 C 140.3 26 140.5 26 140.6 26 C 140.6 26 141.3 29 141.3 29 C 141.1 29.1 140.8 29.1 140.4 29.2 C 140 29.3 139.5 29.4 138.8 29.4 C 137.9 29.4 137 29.2 136 28.8 C 135.1 28.4 134.4 27.7 133.8 26.9 C 133.2 26.1 132.9 25 132.9 23.8 C 132.92 23.75 132.9 2 132.9 2 Z M 159.4 37.3 C 158.8 37.3 158.3 37.2 157.9 37.1 C 157.4 37 157.1 37 157 36.9 C 157 36.9 157.8 33.9 157.8 33.9 C 158.6 34.1 159.3 34.2 160 34.1 C 160.6 34.1 161.1 33.8 161.6 33.3 C 162.1 32.8 162.6 32 163 30.9 C 162.97 30.91 163.6 29.2 163.6 29.2 L 155.5 7.3 L 159.2 7.3 L 165.2 24.7 L 165.4 24.7 L 171.4 7.3 L 175.1 7.3 C 175.1 7.3 165.82 32.27 165.8 32.3 C 165.4 33.4 164.9 34.3 164.3 35.1 C 163.7 35.8 162.9 36.4 162.1 36.7 C 161.3 37.1 160.4 37.3 159.4 37.3 Z M 186.9 29.5 C 184.9 29.5 183.2 29.1 181.7 28.1 C 180.2 27.2 179.1 25.9 178.3 24.2 C 177.4 22.5 177 20.5 177 18.3 C 177 16 177.4 14 178.3 12.3 C 179.1 10.6 180.2 9.3 181.7 8.4 C 183.2 7.5 184.9 7 186.9 7 C 188.9 7 190.6 7.5 192.1 8.4 C 193.6 9.3 194.7 10.6 195.5 12.3 C 196.4 14 196.8 16 196.8 18.3 C 196.8 20.5 196.4 22.5 195.5 24.2 C 194.7 25.9 193.6 27.2 192.1 28.1 C 190.6 29.1 188.9 29.5 186.9 29.5 Z M 186.9 26.5 C 188.4 26.5 189.6 26.2 190.6 25.4 C 191.6 24.6 192.3 23.6 192.7 22.4 C 193.2 21.1 193.4 19.8 193.4 18.3 C 193.4 16.8 193.2 15.5 192.7 14.2 C 192.3 13 191.6 11.9 190.6 11.2 C 189.6 10.4 188.4 10 186.9 10 C 185.4 10 184.2 10.4 183.2 11.2 C 182.2 11.9 181.5 13 181.1 14.2 C 180.6 15.5 180.4 16.8 180.4 18.3 C 180.4 19.8 180.6 21.1 181.1 22.4 C 181.5 23.6 182.2 24.6 183.2 25.4 C 184.2 26.2 185.4 26.5 186.9 26.5 Z M 215.2 20.2 C 215.17 20.17 215.2 7.3 215.2 7.3 L 218.5 7.3 L 218.5 29.1 L 215.2 29.1 L 215.2 25.4 C 215.2 25.4 214.94 25.4 214.9 25.4 C 214.4 26.5 213.6 27.4 212.6 28.2 C 211.5 29 210.1 29.4 208.5 29.4 C 207.1 29.4 205.9 29.1 204.8 28.5 C 203.8 27.9 202.9 27 202.3 25.7 C 201.7 24.5 201.4 23 201.4 21.1 C 201.42 21.14 201.4 7.3 201.4 7.3 L 204.8 7.3 C 204.8 7.3 204.77 20.91 204.8 20.9 C 204.8 22.5 205.2 23.8 206.1 24.7 C 207 25.7 208.1 26.1 209.5 26.1 C 210.4 26.1 211.2 25.9 212.1 25.5 C 213 25.1 213.7 24.4 214.3 23.5 C 214.9 22.7 215.2 21.5 215.2 20.2 Z M 239.3 16 C 239.26 15.97 239.3 29.1 239.3 29.1 L 235.9 29.1 L 235.9 7.3 L 239.1 7.3 L 239.1 10.7 C 239.1 10.7 239.43 10.68 239.4 10.7 C 239.9 9.6 240.7 8.7 241.8 8 C 242.8 7.3 244.1 7 245.8 7 C 247.3 7 248.6 7.3 249.7 7.9 C 250.8 8.5 251.6 9.4 252.3 10.6 C 252.9 11.8 253.2 13.4 253.2 15.2 C 253.18 15.23 253.2 29.1 253.2 29.1 L 249.8 29.1 C 249.8 29.1 249.82 15.45 249.8 15.5 C 249.8 13.7 249.4 12.4 248.5 11.4 C 247.6 10.5 246.4 10 244.8 10 C 243.8 10 242.8 10.2 242 10.7 C 241.1 11.2 240.5 11.8 240 12.7 C 239.5 13.6 239.3 14.7 239.3 16 Z M 268 29.5 C 265.9 29.5 264.1 29.1 262.6 28.1 C 261.1 27.2 259.9 25.9 259.1 24.2 C 258.3 22.5 257.9 20.6 257.9 18.4 C 257.9 16.1 258.3 14.1 259.1 12.4 C 259.9 10.7 261.1 9.4 262.5 8.4 C 264 7.5 265.7 7 267.7 7 C 268.8 7 270 7.2 271.1 7.6 C 272.2 7.9 273.2 8.5 274.1 9.4 C 275 10.2 275.7 11.4 276.3 12.8 C 276.8 14.1 277.1 15.9 277.1 17.9 C 277.07 17.9 277.1 19.3 277.1 19.3 L 260.3 19.3 L 260.3 16.4 C 260.3 16.4 273.66 16.42 273.7 16.4 C 273.7 15.2 273.4 14.1 272.9 13.1 C 272.4 12.2 271.8 11.4 270.9 10.8 C 270 10.3 268.9 10 267.7 10 C 266.4 10 265.2 10.3 264.2 11 C 263.3 11.6 262.5 12.5 262 13.6 C 261.5 14.6 261.2 15.7 261.2 16.9 C 261.2 16.9 261.2 18.9 261.2 18.9 C 261.2 20.5 261.5 21.9 262.1 23 C 262.7 24.2 263.4 25.1 264.5 25.6 C 265.5 26.2 266.7 26.5 268 26.5 C 268.9 26.5 269.7 26.4 270.4 26.2 C 271.1 25.9 271.8 25.5 272.3 25 C 272.8 24.5 273.2 23.9 273.5 23.1 C 273.5 23.1 276.7 24 276.7 24 C 276.4 25.1 275.8 26.1 275 26.9 C 274.2 27.8 273.2 28.4 272 28.9 C 270.8 29.3 269.5 29.5 268 29.5 Z M 290.9 29.5 C 288.8 29.5 287 29.1 285.5 28.1 C 284 27.2 282.8 25.9 282 24.2 C 281.2 22.5 280.8 20.6 280.8 18.4 C 280.8 16.1 281.2 14.1 282 12.4 C 282.8 10.7 284 9.4 285.4 8.4 C 286.9 7.5 288.6 7 290.6 7 C 291.7 7 292.9 7.2 294 7.6 C 295.1 7.9 296.1 8.5 297 9.4 C 297.9 10.2 298.6 11.4 299.2 12.8 C 299.7 14.1 300 15.9 300 17.9 C 299.98 17.9 300 19.3 300 19.3 L 283.2 19.3 L 283.2 16.4 C 283.2 16.4 296.57 16.42 296.6 16.4 C 296.6 15.2 296.3 14.1 295.8 13.1 C 295.3 12.2 294.7 11.4 293.8 10.8 C 292.9 10.3 291.8 10 290.6 10 C 289.3 10 288.1 10.3 287.1 11 C 286.2 11.6 285.4 12.5 284.9 13.6 C 284.4 14.6 284.1 15.7 284.1 16.9 C 284.1 16.9 284.1 18.9 284.1 18.9 C 284.1 20.5 284.4 21.9 285 23 C 285.6 24.2 286.4 25.1 287.4 25.6 C 288.4 26.2 289.6 26.5 290.9 26.5 C 291.8 26.5 292.6 26.4 293.3 26.2 C 294.1 25.9 294.7 25.5 295.2 25 C 295.7 24.5 296.1 23.9 296.4 23.1 C 296.4 23.1 299.6 24 299.6 24 C 299.3 25.1 298.7 26.1 297.9 26.9 C 297.1 27.8 296.1 28.4 294.9 28.9 C 293.8 29.3 292.4 29.5 290.9 29.5 Z M 312.9 29.5 C 311.1 29.5 309.5 29.1 308.1 28.2 C 306.7 27.2 305.6 25.9 304.9 24.2 C 304.1 22.5 303.7 20.5 303.7 18.2 C 303.7 15.9 304.1 14 304.9 12.3 C 305.6 10.6 306.7 9.3 308.1 8.4 C 309.5 7.4 311.2 7 313 7 C 314.4 7 315.5 7.2 316.4 7.7 C 317.2 8.2 317.8 8.7 318.3 9.3 C 318.7 9.9 319.1 10.4 319.3 10.7 C 319.31 10.74 319.6 10.7 319.6 10.7 L 319.6 0 L 322.9 0 L 322.9 29.1 L 319.7 29.1 L 319.7 25.7 C 319.7 25.7 319.31 25.74 319.3 25.7 C 319.1 26.1 318.7 26.6 318.3 27.2 C 317.8 27.8 317.2 28.4 316.3 28.8 C 315.5 29.3 314.3 29.5 312.9 29.5 Z M 313.4 26.5 C 314.7 26.5 315.9 26.2 316.8 25.5 C 317.7 24.8 318.4 23.8 318.9 22.5 C 319.4 21.3 319.6 19.8 319.6 18.2 C 319.6 16.6 319.4 15.1 318.9 13.9 C 318.5 12.7 317.8 11.7 316.8 11 C 315.9 10.3 314.8 10 313.4 10 C 312 10 310.8 10.4 309.9 11.1 C 308.9 11.8 308.2 12.8 307.7 14 C 307.3 15.3 307 16.6 307 18.2 C 307 19.7 307.3 21.1 307.8 22.4 C 308.2 23.7 308.9 24.7 309.9 25.4 C 310.8 26.2 312 26.5 313.4 26.5 Z M 340.8 29.1 L 340.8 7.3 L 344.1 7.3 L 344.1 29.1 L 340.8 29.1 Z M 342.5 3.6 C 341.8 3.6 341.3 3.4 340.8 3 C 340.3 2.5 340.1 2 340.1 1.4 C 340.1 0.7 340.3 0.2 340.8 -0.2 C 341.3 -0.7 341.8 -0.9 342.5 -0.9 C 343.1 -0.9 343.7 -0.7 344.2 -0.2 C 344.6 0.2 344.9 0.7 344.9 1.4 C 344.9 2 344.6 2.5 344.2 3 C 343.7 3.4 343.1 3.6 342.5 3.6 Z M 365.2 12.2 C 365.2 12.2 362.1 13 362.1 13 C 362 12.5 361.7 12 361.3 11.5 C 360.9 11.1 360.5 10.7 359.8 10.4 C 359.2 10 358.4 9.9 357.4 9.9 C 356.1 9.9 355 10.2 354.1 10.8 C 353.2 11.4 352.8 12.2 352.8 13.1 C 352.8 14 353.1 14.6 353.7 15.1 C 354.3 15.6 355.2 16 356.5 16.3 C 356.5 16.3 359.8 17.1 359.8 17.1 C 361.7 17.6 363.2 18.3 364.1 19.3 C 365.1 20.2 365.6 21.5 365.6 23 C 365.6 24.3 365.2 25.4 364.5 26.4 C 363.8 27.3 362.8 28.1 361.5 28.7 C 360.2 29.3 358.7 29.5 357 29.5 C 354.8 29.5 353 29.1 351.5 28.1 C 350 27.1 349.1 25.7 348.7 23.9 C 348.7 23.9 351.9 23.1 351.9 23.1 C 352.2 24.2 352.8 25.1 353.6 25.7 C 354.5 26.3 355.6 26.6 357 26.6 C 358.5 26.6 359.8 26.3 360.7 25.6 C 361.6 24.9 362.1 24.1 362.1 23.2 C 362.1 22.4 361.8 21.8 361.3 21.3 C 360.8 20.8 359.9 20.4 358.8 20.1 C 358.8 20.1 355.2 19.3 355.2 19.3 C 353.2 18.8 351.7 18.1 350.8 17.1 C 349.9 16.1 349.4 14.8 349.4 13.3 C 349.4 12.1 349.8 11 350.5 10 C 351.2 9.1 352.1 8.3 353.3 7.8 C 354.5 7.3 355.9 7 357.4 7 C 359.6 7 361.3 7.5 362.5 8.4 C 363.8 9.4 364.6 10.6 365.2 12.2 Z M 388.3 29.6 C 386.9 29.6 385.6 29.3 384.5 28.8 C 383.4 28.3 382.5 27.5 381.8 26.5 C 381.2 25.5 380.8 24.3 380.8 22.9 C 380.8 21.6 381.1 20.6 381.6 19.9 C 382.1 19.1 382.7 18.5 383.5 18 C 384.4 17.6 385.3 17.2 386.3 17 C 387.3 16.8 388.3 16.6 389.3 16.5 C 390.6 16.3 391.7 16.2 392.5 16.1 C 393.4 16 394 15.8 394.4 15.6 C 394.7 15.4 394.9 15 394.9 14.5 C 394.9 14.5 394.9 14.4 394.9 14.4 C 394.9 13 394.5 11.9 393.8 11.1 C 393 10.3 391.9 9.9 390.3 9.9 C 388.7 9.9 387.5 10.3 386.6 11 C 385.7 11.7 385 12.4 384.6 13.2 C 384.6 13.2 381.5 12.1 381.5 12.1 C 382 10.8 382.8 9.7 383.7 9 C 384.7 8.3 385.7 7.7 386.9 7.4 C 388 7.1 389.1 7 390.2 7 C 390.9 7 391.7 7.1 392.6 7.2 C 393.5 7.4 394.4 7.7 395.3 8.3 C 396.1 8.8 396.9 9.5 397.4 10.6 C 398 11.6 398.3 13 398.3 14.7 C 398.28 14.72 398.3 29.1 398.3 29.1 L 394.9 29.1 L 394.9 26.1 C 394.9 26.1 394.76 26.14 394.8 26.1 C 394.5 26.6 394.1 27.1 393.6 27.7 C 393.1 28.2 392.4 28.7 391.5 29 C 390.6 29.4 389.5 29.6 388.3 29.6 Z M 388.8 26.6 C 390.1 26.6 391.2 26.3 392.1 25.8 C 393.1 25.3 393.8 24.6 394.2 23.8 C 394.7 23 394.9 22.1 394.9 21.2 C 394.9 21.2 394.9 18.1 394.9 18.1 C 394.8 18.3 394.5 18.4 394 18.6 C 393.5 18.7 393 18.8 392.3 18.9 C 391.7 19 391.1 19.1 390.5 19.2 C 390 19.3 389.5 19.3 389.1 19.4 C 388.3 19.5 387.4 19.7 386.7 19.9 C 385.9 20.2 385.3 20.5 384.9 21 C 384.4 21.5 384.2 22.2 384.2 23.1 C 384.2 24.2 384.6 25.1 385.5 25.7 C 386.4 26.3 387.5 26.6 388.8 26.6 Z M 431.1 12.2 C 431.1 12.2 428.1 13 428.1 13 C 427.9 12.5 427.6 12 427.3 11.5 C 426.9 11.1 426.4 10.7 425.8 10.4 C 425.2 10 424.4 9.9 423.4 9.9 C 422.1 9.9 420.9 10.2 420.1 10.8 C 419.2 11.4 418.7 12.2 418.7 13.1 C 418.7 14 419 14.6 419.6 15.1 C 420.2 15.6 421.2 16 422.5 16.3 C 422.5 16.3 425.7 17.1 425.7 17.1 C 427.7 17.6 429.1 18.3 430.1 19.3 C 431 20.2 431.5 21.5 431.5 23 C 431.5 24.3 431.2 25.4 430.4 26.4 C 429.7 27.3 428.7 28.1 427.5 28.7 C 426.2 29.3 424.7 29.5 423 29.5 C 420.8 29.5 418.9 29.1 417.5 28.1 C 416 27.1 415.1 25.7 414.7 23.9 C 414.7 23.9 417.9 23.1 417.9 23.1 C 418.2 24.2 418.8 25.1 419.6 25.7 C 420.5 26.3 421.6 26.6 422.9 26.6 C 424.5 26.6 425.7 26.3 426.7 25.6 C 427.6 24.9 428.1 24.1 428.1 23.2 C 428.1 22.4 427.8 21.8 427.3 21.3 C 426.7 20.8 425.9 20.4 424.8 20.1 C 424.8 20.1 421.2 19.3 421.2 19.3 C 419.2 18.8 417.7 18.1 416.8 17.1 C 415.8 16.1 415.4 14.8 415.4 13.3 C 415.4 12.1 415.7 11 416.4 10 C 417.1 9.1 418.1 8.3 419.3 7.8 C 420.5 7.3 421.9 7 423.4 7 C 425.6 7 427.2 7.5 428.5 8.4 C 429.7 9.4 430.6 10.6 431.1 12.2 Z M 445.6 7.3 L 445.6 10.1 L 434.3 10.1 L 434.3 7.3 L 445.6 7.3 Z M 437.6 2 L 440.9 2 C 440.9 2 440.9 22.84 440.9 22.8 C 440.9 23.8 441 24.5 441.3 25 C 441.6 25.4 442 25.7 442.4 25.9 C 442.8 26.1 443.3 26.1 443.8 26.1 C 444.2 26.1 444.5 26.1 444.7 26.1 C 444.9 26 445.1 26 445.3 26 C 445.3 26 446 29 446 29 C 445.7 29.1 445.4 29.1 445 29.2 C 444.6 29.3 444.1 29.4 443.5 29.4 C 442.5 29.4 441.6 29.2 440.7 28.8 C 439.8 28.4 439 27.7 438.4 26.9 C 437.8 26.1 437.6 25 437.6 23.8 C 437.55 23.75 437.6 2 437.6 2 Z M 449.9 29.1 L 449.9 7.3 L 453.2 7.3 L 453.2 10.6 C 453.2 10.6 453.4 10.57 453.4 10.6 C 453.8 9.5 454.5 8.6 455.6 7.9 C 456.6 7.3 457.8 6.9 459.1 6.9 C 459.3 6.9 459.6 6.9 460 6.9 C 460.4 7 460.7 7 460.8 7 C 460.8 7 460.8 10.4 460.8 10.4 C 460.7 10.4 460.5 10.3 460.1 10.3 C 459.7 10.2 459.2 10.2 458.8 10.2 C 457.7 10.2 456.8 10.4 456 10.8 C 455.1 11.3 454.5 11.9 454 12.6 C 453.5 13.4 453.3 14.3 453.3 15.3 C 453.28 15.28 453.3 29.1 453.3 29.1 L 449.9 29.1 Z M 473.1 29.5 C 471 29.5 469.2 29.1 467.7 28.1 C 466.2 27.2 465 25.9 464.2 24.2 C 463.4 22.5 463 20.6 463 18.4 C 463 16.1 463.4 14.1 464.2 12.4 C 465 10.7 466.2 9.4 467.6 8.4 C 469.1 7.5 470.8 7 472.8 7 C 473.9 7 475.1 7.2 476.2 7.6 C 477.3 7.9 478.3 8.5 479.2 9.4 C 480.1 10.2 480.8 11.4 481.4 12.8 C 481.9 14.1 482.2 15.9 482.2 17.9 C 482.18 17.9 482.2 19.3 482.2 19.3 L 465.4 19.3 L 465.4 16.4 C 465.4 16.4 478.77 16.42 478.8 16.4 C 478.8 15.2 478.5 14.1 478 13.1 C 477.6 12.2 476.9 11.4 476 10.8 C 475.1 10.3 474 10 472.8 10 C 471.5 10 470.3 10.3 469.3 11 C 468.4 11.6 467.6 12.5 467.1 13.6 C 466.6 14.6 466.3 15.7 466.3 16.9 C 466.3 16.9 466.3 18.9 466.3 18.9 C 466.3 20.5 466.6 21.9 467.2 23 C 467.8 24.2 468.6 25.1 469.6 25.6 C 470.6 26.2 471.8 26.5 473.1 26.5 C 474 26.5 474.8 26.4 475.5 26.2 C 476.3 25.9 476.9 25.5 477.4 25 C 477.9 24.5 478.3 23.9 478.6 23.1 C 478.6 23.1 481.8 24 481.8 24 C 481.5 25.1 480.9 26.1 480.1 26.9 C 479.3 27.8 478.3 28.4 477.1 28.9 C 476 29.3 474.6 29.5 473.1 29.5 Z M 493.1 29.6 C 491.8 29.6 490.5 29.3 489.4 28.8 C 488.2 28.3 487.4 27.5 486.7 26.5 C 486 25.5 485.7 24.3 485.7 22.9 C 485.7 21.6 485.9 20.6 486.4 19.9 C 486.9 19.1 487.6 18.5 488.4 18 C 489.2 17.6 490.1 17.2 491.1 17 C 492.1 16.8 493.1 16.6 494.2 16.5 C 495.5 16.3 496.6 16.2 497.4 16.1 C 498.2 16 498.8 15.8 499.2 15.6 C 499.6 15.4 499.8 15 499.8 14.5 C 499.8 14.5 499.8 14.4 499.8 14.4 C 499.8 13 499.4 11.9 498.6 11.1 C 497.9 10.3 496.7 9.9 495.2 9.9 C 493.6 9.9 492.3 10.3 491.4 11 C 490.5 11.7 489.9 12.4 489.5 13.2 C 489.5 13.2 486.3 12.1 486.3 12.1 C 486.9 10.8 487.6 9.7 488.6 9 C 489.5 8.3 490.6 7.7 491.7 7.4 C 492.9 7.1 494 7 495.1 7 C 495.8 7 496.6 7.1 497.5 7.2 C 498.4 7.4 499.3 7.7 500.1 8.3 C 501 8.8 501.7 9.5 502.3 10.6 C 502.9 11.6 503.1 13 503.1 14.7 C 503.14 14.72 503.1 29.1 503.1 29.1 L 499.8 29.1 L 499.8 26.1 C 499.8 26.1 499.61 26.14 499.6 26.1 C 499.4 26.6 499 27.1 498.5 27.7 C 497.9 28.2 497.2 28.7 496.4 29 C 495.5 29.4 494.4 29.6 493.1 29.6 Z M 493.6 26.6 C 495 26.6 496.1 26.3 497 25.8 C 497.9 25.3 498.6 24.6 499.1 23.8 C 499.5 23 499.8 22.1 499.8 21.2 C 499.8 21.2 499.8 18.1 499.8 18.1 C 499.6 18.3 499.3 18.4 498.9 18.6 C 498.4 18.7 497.8 18.8 497.2 18.9 C 496.6 19 496 19.1 495.4 19.2 C 494.8 19.3 494.3 19.3 494 19.4 C 493.1 19.5 492.3 19.7 491.6 19.9 C 490.8 20.2 490.2 20.5 489.7 21 C 489.3 21.5 489 22.2 489 23.1 C 489 24.2 489.5 25.1 490.3 25.7 C 491.2 26.3 492.3 26.6 493.6 26.6 Z M 508.9 29.1 L 508.9 7.3 L 512.1 7.3 L 512.1 10.7 C 512.1 10.7 512.42 10.68 512.4 10.7 C 512.9 9.5 513.6 8.6 514.6 8 C 515.6 7.3 516.9 7 518.3 7 C 519.7 7 520.9 7.3 521.9 8 C 522.8 8.6 523.6 9.5 524.1 10.7 C 524.1 10.7 524.4 10.7 524.4 10.7 C 524.9 9.6 525.7 8.7 526.9 8 C 528 7.3 529.3 7 530.9 7 C 532.8 7 534.4 7.6 535.7 8.8 C 536.9 10 537.5 11.9 537.5 14.5 C 537.53 14.49 537.5 29.1 537.5 29.1 L 534.2 29.1 C 534.2 29.1 534.18 14.49 534.2 14.5 C 534.2 12.9 533.7 11.7 532.9 11 C 532 10.3 530.9 10 529.7 10 C 528.2 10 527 10.5 526.2 11.4 C 525.3 12.3 524.9 13.5 524.9 14.9 C 524.92 14.89 524.9 29.1 524.9 29.1 L 521.5 29.1 C 521.5 29.1 521.51 14.15 521.5 14.1 C 521.5 12.9 521.1 11.9 520.3 11.1 C 519.5 10.4 518.5 10 517.2 10 C 516.3 10 515.5 10.2 514.8 10.7 C 514 11.2 513.4 11.8 512.9 12.6 C 512.5 13.4 512.2 14.4 512.2 15.5 C 512.25 15.45 512.2 29.1 512.2 29.1 L 508.9 29.1 Z M 546.6 0 L 546.6 29.1 L 543.3 29.1 L 543.3 0 L 546.6 0 Z M 552.5 29.1 L 552.5 7.3 L 555.8 7.3 L 555.8 29.1 L 552.5 29.1 Z M 554.2 3.6 C 553.5 3.6 553 3.4 552.5 3 C 552 2.5 551.8 2 551.8 1.4 C 551.8 0.7 552 0.2 552.5 -0.2 C 553 -0.7 553.5 -0.9 554.2 -0.9 C 554.8 -0.9 555.4 -0.7 555.9 -0.2 C 556.3 0.2 556.6 0.7 556.6 1.4 C 556.6 2 556.3 2.5 555.9 3 C 555.4 3.4 554.8 3.6 554.2 3.6 Z M 565 16 C 564.99 15.97 565 29.1 565 29.1 L 561.6 29.1 L 561.6 7.3 L 564.9 7.3 L 564.9 10.7 C 564.9 10.7 565.16 10.68 565.2 10.7 C 565.7 9.6 566.4 8.7 567.5 8 C 568.5 7.3 569.9 7 571.5 7 C 573 7 574.3 7.3 575.4 7.9 C 576.5 8.5 577.4 9.4 578 10.6 C 578.6 11.8 578.9 13.4 578.9 15.2 C 578.91 15.23 578.9 29.1 578.9 29.1 L 575.6 29.1 C 575.6 29.1 575.55 15.45 575.6 15.5 C 575.6 13.7 575.1 12.4 574.2 11.4 C 573.3 10.5 572.1 10 570.6 10 C 569.5 10 568.5 10.2 567.7 10.7 C 566.9 11.2 566.2 11.8 565.7 12.7 C 565.2 13.6 565 14.7 565 16 Z M 593.8 29.5 C 591.7 29.5 589.9 29.1 588.3 28.1 C 586.8 27.2 585.6 25.9 584.8 24.2 C 584 22.5 583.6 20.6 583.6 18.4 C 583.6 16.1 584 14.1 584.8 12.4 C 585.6 10.7 586.8 9.4 588.3 8.4 C 589.7 7.5 591.5 7 593.4 7 C 594.6 7 595.7 7.2 596.8 7.6 C 597.9 7.9 598.9 8.5 599.8 9.4 C 600.7 10.2 601.5 11.4 602 12.8 C 602.5 14.1 602.8 15.9 602.8 17.9 C 602.8 17.9 602.8 19.3 602.8 19.3 L 586 19.3 L 586 16.4 C 586 16.4 599.39 16.42 599.4 16.4 C 599.4 15.2 599.1 14.1 598.7 13.1 C 598.2 12.2 597.5 11.4 596.6 10.8 C 595.7 10.3 594.6 10 593.4 10 C 592.1 10 590.9 10.3 590 11 C 589 11.6 588.3 12.5 587.7 13.6 C 587.2 14.6 586.9 15.7 586.9 16.9 C 586.9 16.9 586.9 18.9 586.9 18.9 C 586.9 20.5 587.2 21.9 587.8 23 C 588.4 24.2 589.2 25.1 590.2 25.6 C 591.2 26.2 592.4 26.5 593.8 26.5 C 594.6 26.5 595.4 26.4 596.2 26.2 C 596.9 25.9 597.5 25.5 598 25 C 598.5 24.5 598.9 23.9 599.2 23.1 C 599.2 23.1 602.5 24 602.5 24 C 602.1 25.1 601.5 26.1 600.7 26.9 C 599.9 27.8 598.9 28.4 597.8 28.9 C 596.6 29.3 595.2 29.5 593.8 29.5 Z M 615.8 29.5 C 613.9 29.5 612.3 29.1 610.9 28.2 C 609.6 27.2 608.5 25.9 607.7 24.2 C 606.9 22.5 606.5 20.5 606.5 18.2 C 606.5 15.9 606.9 14 607.7 12.3 C 608.5 10.6 609.6 9.3 611 8.4 C 612.4 7.4 614 7 615.8 7 C 617.2 7 618.4 7.2 619.2 7.7 C 620 8.2 620.7 8.7 621.1 9.3 C 621.5 9.9 621.9 10.4 622.1 10.7 C 622.13 10.74 622.4 10.7 622.4 10.7 L 622.4 0 L 625.8 0 L 625.8 29.1 L 622.5 29.1 L 622.5 25.7 C 622.5 25.7 622.13 25.74 622.1 25.7 C 621.9 26.1 621.5 26.6 621.1 27.2 C 620.6 27.8 620 28.4 619.1 28.8 C 618.3 29.3 617.2 29.5 615.8 29.5 Z M 616.2 26.5 C 617.6 26.5 618.7 26.2 619.6 25.5 C 620.6 24.8 621.3 23.8 621.7 22.5 C 622.2 21.3 622.5 19.8 622.5 18.2 C 622.5 16.6 622.2 15.1 621.8 13.9 C 621.3 12.7 620.6 11.7 619.7 11 C 618.7 10.3 617.6 10 616.2 10 C 614.8 10 613.6 10.4 612.7 11.1 C 611.7 11.8 611 12.8 610.6 14 C 610.1 15.3 609.9 16.6 609.9 18.2 C 609.9 19.7 610.1 21.1 610.6 22.4 C 611.1 23.7 611.8 24.7 612.7 25.4 C 613.6 26.2 614.8 26.5 616.2 26.5 Z M 648.5 29.1 L 641.9 7.3 L 645.4 7.3 L 650.1 24 L 650.4 24 L 655 7.3 L 658.6 7.3 L 663.2 23.9 L 663.4 23.9 L 668.2 7.3 L 671.7 7.3 L 665 29.1 L 661.7 29.1 L 657 12.3 L 656.6 12.3 L 651.8 29.1 L 648.5 29.1 Z M 681.5 29.6 C 680.1 29.6 678.9 29.3 677.7 28.8 C 676.6 28.3 675.7 27.5 675.1 26.5 C 674.4 25.5 674.1 24.3 674.1 22.9 C 674.1 21.6 674.3 20.6 674.8 19.9 C 675.3 19.1 676 18.5 676.8 18 C 677.6 17.6 678.5 17.2 679.5 17 C 680.5 16.8 681.5 16.6 682.5 16.5 C 683.9 16.3 684.9 16.2 685.8 16.1 C 686.6 16 687.2 15.8 687.6 15.6 C 688 15.4 688.2 15 688.2 14.5 C 688.2 14.5 688.2 14.4 688.2 14.4 C 688.2 13 687.8 11.9 687 11.1 C 686.2 10.3 685.1 9.9 683.6 9.9 C 682 9.9 680.7 10.3 679.8 11 C 678.9 11.7 678.2 12.4 677.9 13.2 C 677.9 13.2 674.7 12.1 674.7 12.1 C 675.3 10.8 676 9.7 677 9 C 677.9 8.3 679 7.7 680.1 7.4 C 681.2 7.1 682.3 7 683.4 7 C 684.1 7 684.9 7.1 685.9 7.2 C 686.8 7.4 687.7 7.7 688.5 8.3 C 689.4 8.8 690.1 9.5 690.7 10.6 C 691.2 11.6 691.5 13 691.5 14.7 C 691.51 14.72 691.5 29.1 691.5 29.1 L 688.2 29.1 L 688.2 26.1 C 688.2 26.1 687.98 26.14 688 26.1 C 687.8 26.6 687.4 27.1 686.8 27.7 C 686.3 28.2 685.6 28.7 684.7 29 C 683.8 29.4 682.8 29.6 681.5 29.6 Z M 682 26.6 C 683.3 26.6 684.5 26.3 685.4 25.8 C 686.3 25.3 687 24.6 687.5 23.8 C 687.9 23 688.2 22.1 688.2 21.2 C 688.2 21.2 688.2 18.1 688.2 18.1 C 688 18.3 687.7 18.4 687.2 18.6 C 686.7 18.7 686.2 18.8 685.6 18.9 C 685 19 684.4 19.1 683.8 19.2 C 683.2 19.3 682.7 19.3 682.4 19.4 C 681.5 19.5 680.7 19.7 679.9 19.9 C 679.2 20.2 678.6 20.5 678.1 21 C 677.6 21.5 677.4 22.2 677.4 23.1 C 677.4 24.2 677.8 25.1 678.7 25.7 C 679.6 26.3 680.7 26.6 682 26.6 Z M 698.4 37.3 C 697.8 37.3 697.3 37.2 696.8 37.1 C 696.4 37 696.1 37 695.9 36.9 C 695.9 36.9 696.8 33.9 696.8 33.9 C 697.6 34.1 698.3 34.2 698.9 34.1 C 699.5 34.1 700.1 33.8 700.6 33.3 C 701.1 32.8 701.5 32 701.9 30.9 C 701.93 30.91 702.6 29.2 702.6 29.2 L 694.5 7.3 L 698.1 7.3 L 704.1 24.7 L 704.4 24.7 L 710.4 7.3 L 714 7.3 C 714 7.3 704.77 32.27 704.8 32.3 C 704.4 33.4 703.8 34.3 703.2 35.1 C 702.6 35.8 701.9 36.4 701.1 36.7 C 700.3 37.1 699.4 37.3 698.4 37.3 Z M 739.2 7.3 L 739.2 10.1 L 727.9 10.1 L 727.9 7.3 L 739.2 7.3 Z M 731.2 2 L 734.5 2 C 734.5 2 734.55 22.84 734.5 22.8 C 734.5 23.8 734.7 24.5 735 25 C 735.2 25.4 735.6 25.7 736 25.9 C 736.5 26.1 737 26.1 737.4 26.1 C 737.8 26.1 738.1 26.1 738.4 26.1 C 738.6 26 738.8 26 738.9 26 C 738.9 26 739.6 29 739.6 29 C 739.4 29.1 739.1 29.1 738.7 29.2 C 738.2 29.3 737.7 29.4 737.1 29.4 C 736.2 29.4 735.2 29.2 734.3 28.8 C 733.4 28.4 732.7 27.7 732.1 26.9 C 731.5 26.1 731.2 25 731.2 23.8 C 731.19 23.75 731.2 2 731.2 2 Z M 751.6 29.5 C 749.7 29.5 747.9 29.1 746.4 28.1 C 745 27.2 743.8 25.9 743 24.2 C 742.1 22.5 741.7 20.5 741.7 18.3 C 741.7 16 742.1 14 743 12.3 C 743.8 10.6 745 9.3 746.4 8.4 C 747.9 7.5 749.7 7 751.6 7 C 753.6 7 755.3 7.5 756.8 8.4 C 758.3 9.3 759.4 10.6 760.3 12.3 C 761.1 14 761.5 16 761.5 18.3 C 761.5 20.5 761.1 22.5 760.3 24.2 C 759.4 25.9 758.3 27.2 756.8 28.1 C 755.3 29.1 753.6 29.5 751.6 29.5 Z M 751.6 26.5 C 753.1 26.5 754.3 26.2 755.3 25.4 C 756.3 24.6 757 23.6 757.5 22.4 C 757.9 21.1 758.2 19.8 758.2 18.3 C 758.2 16.8 757.9 15.5 757.5 14.2 C 757 13 756.3 11.9 755.3 11.2 C 754.3 10.4 753.1 10 751.6 10 C 750.1 10 748.9 10.4 747.9 11.2 C 747 11.9 746.2 13 745.8 14.2 C 745.3 15.5 745.1 16.8 745.1 18.3 C 745.1 19.8 745.3 21.1 745.8 22.4 C 746.2 23.6 747 24.6 747.9 25.4 C 748.9 26.2 750.1 26.5 751.6 26.5 Z M 784.3 29.6 C 782.9 29.6 781.7 29.3 780.5 28.8 C 779.4 28.3 778.5 27.5 777.8 26.5 C 777.2 25.5 776.8 24.3 776.8 22.9 C 776.8 21.6 777.1 20.6 777.6 19.9 C 778.1 19.1 778.7 18.5 779.6 18 C 780.4 17.6 781.3 17.2 782.3 17 C 783.3 16.8 784.3 16.6 785.3 16.5 C 786.6 16.3 787.7 16.2 788.5 16.1 C 789.4 16 790 15.8 790.4 15.6 C 790.7 15.4 790.9 15 790.9 14.5 C 790.9 14.5 790.9 14.4 790.9 14.4 C 790.9 13 790.6 11.9 789.8 11.1 C 789 10.3 787.9 9.9 786.3 9.9 C 784.7 9.9 783.5 10.3 782.6 11 C 781.7 11.7 781 12.4 780.7 13.2 C 780.7 13.2 777.5 12.1 777.5 12.1 C 778 10.8 778.8 9.7 779.8 9 C 780.7 8.3 781.7 7.7 782.9 7.4 C 784 7.1 785.1 7 786.2 7 C 786.9 7 787.7 7.1 788.6 7.2 C 789.6 7.4 790.4 7.7 791.3 8.3 C 792.2 8.8 792.9 9.5 793.4 10.6 C 794 11.6 794.3 13 794.3 14.7 C 794.29 14.72 794.3 29.1 794.3 29.1 L 790.9 29.1 L 790.9 26.1 C 790.9 26.1 790.77 26.14 790.8 26.1 C 790.5 26.6 790.2 27.1 789.6 27.7 C 789.1 28.2 788.4 28.7 787.5 29 C 786.6 29.4 785.6 29.6 784.3 29.6 Z M 784.8 26.6 C 786.1 26.6 787.2 26.3 788.2 25.8 C 789.1 25.3 789.8 24.6 790.2 23.8 C 790.7 23 790.9 22.1 790.9 21.2 C 790.9 21.2 790.9 18.1 790.9 18.1 C 790.8 18.3 790.5 18.4 790 18.6 C 789.5 18.7 789 18.8 788.4 18.9 C 787.7 19 787.1 19.1 786.6 19.2 C 786 19.3 785.5 19.3 785.1 19.4 C 784.3 19.5 783.5 19.7 782.7 19.9 C 782 20.2 781.3 20.5 780.9 21 C 780.4 21.5 780.2 22.2 780.2 23.1 C 780.2 24.2 780.6 25.1 781.5 25.7 C 782.4 26.3 783.5 26.6 784.8 26.6 Z M 808.9 29.5 C 806.8 29.5 805.1 29.1 803.6 28.1 C 802.1 27.1 801 25.8 800.2 24.1 C 799.4 22.4 799 20.5 799 18.3 C 799 16.1 799.4 14.1 800.2 12.4 C 801 10.7 802.2 9.4 803.7 8.4 C 805.1 7.5 806.8 7 808.8 7 C 810.3 7 811.7 7.3 813 7.8 C 814.2 8.4 815.2 9.2 816 10.2 C 816.8 11.3 817.3 12.4 817.5 13.8 C 817.5 13.8 814.1 13.8 814.1 13.8 C 813.8 12.8 813.3 11.9 812.4 11.2 C 811.5 10.4 810.3 10 808.9 10 C 807.6 10 806.4 10.3 805.4 11 C 804.5 11.7 803.7 12.6 803.2 13.9 C 802.6 15.1 802.3 16.5 802.3 18.2 C 802.3 19.9 802.6 21.3 803.1 22.6 C 803.7 23.8 804.4 24.8 805.4 25.5 C 806.4 26.2 807.5 26.5 808.9 26.5 C 809.7 26.5 810.5 26.4 811.2 26.1 C 812 25.8 812.6 25.3 813 24.8 C 813.5 24.2 813.9 23.5 814.1 22.7 C 814.1 22.7 817.5 22.7 817.5 22.7 C 817.3 24 816.8 25.2 816.1 26.2 C 815.3 27.2 814.3 28 813.1 28.6 C 811.9 29.2 810.5 29.5 808.9 29.5 Z M 831.4 7.3 L 831.4 10.1 L 820.1 10.1 L 820.1 7.3 L 831.4 7.3 Z M 823.4 2 L 826.7 2 C 826.7 2 826.71 22.84 826.7 22.8 C 826.7 23.8 826.9 24.5 827.1 25 C 827.4 25.4 827.8 25.7 828.2 25.9 C 828.7 26.1 829.1 26.1 829.6 26.1 C 830 26.1 830.3 26.1 830.5 26.1 C 830.8 26 830.9 26 831.1 26 C 831.1 26 831.8 29 831.8 29 C 831.5 29.1 831.2 29.1 830.8 29.2 C 830.4 29.3 829.9 29.4 829.3 29.4 C 828.3 29.4 827.4 29.2 826.5 28.8 C 825.6 28.4 824.8 27.7 824.3 26.9 C 823.7 26.1 823.4 25 823.4 23.8 C 823.36 23.75 823.4 2 823.4 2 Z M 835.7 29.1 L 835.7 7.3 L 839.1 7.3 L 839.1 29.1 L 835.7 29.1 Z M 837.4 3.6 C 836.8 3.6 836.2 3.4 835.8 3 C 835.3 2.5 835.1 2 835.1 1.4 C 835.1 0.7 835.3 0.2 835.8 -0.2 C 836.2 -0.7 836.8 -0.9 837.4 -0.9 C 838.1 -0.9 838.7 -0.7 839.1 -0.2 C 839.6 0.2 839.8 0.7 839.8 1.4 C 839.8 2 839.6 2.5 839.1 3 C 838.7 3.4 838.1 3.6 837.4 3.6 Z M 862.5 7.3 L 854.4 29.1 L 851 29.1 L 843 7.3 L 846.6 7.3 L 852.6 24.7 L 852.8 24.7 L 858.9 7.3 L 862.5 7.3 Z M 872.2 29.6 C 870.8 29.6 869.6 29.3 868.4 28.8 C 867.3 28.3 866.4 27.5 865.8 26.5 C 865.1 25.5 864.8 24.3 864.8 22.9 C 864.8 21.6 865 20.6 865.5 19.9 C 866 19.1 866.6 18.5 867.5 18 C 868.3 17.6 869.2 17.2 870.2 17 C 871.2 16.8 872.2 16.6 873.2 16.5 C 874.5 16.3 875.6 16.2 876.5 16.1 C 877.3 16 877.9 15.8 878.3 15.6 C 878.7 15.4 878.8 15 878.8 14.5 C 878.8 14.5 878.8 14.4 878.8 14.4 C 878.8 13 878.5 11.9 877.7 11.1 C 876.9 10.3 875.8 9.9 874.2 9.9 C 872.6 9.9 871.4 10.3 870.5 11 C 869.6 11.7 868.9 12.4 868.6 13.2 C 868.6 13.2 865.4 12.1 865.4 12.1 C 865.9 10.8 866.7 9.7 867.7 9 C 868.6 8.3 869.7 7.7 870.8 7.4 C 871.9 7.1 873 7 874.1 7 C 874.8 7 875.6 7.1 876.6 7.2 C 877.5 7.4 878.4 7.7 879.2 8.3 C 880.1 8.8 880.8 9.5 881.3 10.6 C 881.9 11.6 882.2 13 882.2 14.7 C 882.2 14.72 882.2 29.1 882.2 29.1 L 878.8 29.1 L 878.8 26.1 C 878.8 26.1 878.68 26.14 878.7 26.1 C 878.4 26.6 878.1 27.1 877.5 27.7 C 877 28.2 876.3 28.7 875.4 29 C 874.5 29.4 873.5 29.6 872.2 29.6 Z M 872.7 26.6 C 874 26.6 875.2 26.3 876.1 25.8 C 877 25.3 877.7 24.6 878.1 23.8 C 878.6 23 878.8 22.1 878.8 21.2 C 878.8 21.2 878.8 18.1 878.8 18.1 C 878.7 18.3 878.4 18.4 877.9 18.6 C 877.4 18.7 876.9 18.8 876.3 18.9 C 875.6 19 875 19.1 874.5 19.2 C 873.9 19.3 873.4 19.3 873.1 19.4 C 872.2 19.5 871.4 19.7 870.6 19.9 C 869.9 20.2 869.3 20.5 868.8 21 C 868.3 21.5 868.1 22.2 868.1 23.1 C 868.1 24.2 868.5 25.1 869.4 25.7 C 870.3 26.3 871.4 26.6 872.7 26.6 Z M 896.9 7.3 L 896.9 10.1 L 885.6 10.1 L 885.6 7.3 L 896.9 7.3 Z M 888.9 2 L 892.2 2 C 892.2 2 892.24 22.84 892.2 22.8 C 892.2 23.8 892.4 24.5 892.7 25 C 892.9 25.4 893.3 25.7 893.7 25.9 C 894.2 26.1 894.6 26.1 895.1 26.1 C 895.5 26.1 895.8 26.1 896 26.1 C 896.3 26 896.5 26 896.6 26 C 896.6 26 897.3 29 897.3 29 C 897.1 29.1 896.8 29.1 896.3 29.2 C 895.9 29.3 895.4 29.4 894.8 29.4 C 893.9 29.4 892.9 29.2 892 28.8 C 891.1 28.4 890.4 27.7 889.8 26.9 C 889.2 26.1 888.9 25 888.9 23.8 C 888.89 23.75 888.9 2 888.9 2 Z M 909.6 29.5 C 907.5 29.5 905.7 29.1 904.2 28.1 C 902.6 27.2 901.5 25.9 900.7 24.2 C 899.8 22.5 899.4 20.6 899.4 18.4 C 899.4 16.1 899.8 14.1 900.7 12.4 C 901.5 10.7 902.6 9.4 904.1 8.4 C 905.6 7.5 907.3 7 909.3 7 C 910.4 7 911.5 7.2 912.6 7.6 C 913.7 7.9 914.7 8.5 915.7 9.4 C 916.6 10.2 917.3 11.4 917.8 12.8 C 918.4 14.1 918.6 15.9 918.6 17.9 C 918.64 17.9 918.6 19.3 918.6 19.3 L 901.8 19.3 L 901.8 16.4 C 901.8 16.4 915.23 16.42 915.2 16.4 C 915.2 15.2 915 14.1 914.5 13.1 C 914 12.2 913.3 11.4 912.4 10.8 C 911.5 10.3 910.5 10 909.3 10 C 907.9 10 906.8 10.3 905.8 11 C 904.8 11.6 904.1 12.5 903.6 13.6 C 903 14.6 902.8 15.7 902.8 16.9 C 902.8 16.9 902.8 18.9 902.8 18.9 C 902.8 20.5 903.1 21.9 903.6 23 C 904.2 24.2 905 25.1 906 25.6 C 907.1 26.2 908.2 26.5 909.6 26.5 C 910.5 26.5 911.3 26.4 912 26.2 C 912.7 25.9 913.3 25.5 913.8 25 C 914.4 24.5 914.8 23.9 915.1 23.1 C 915.1 23.1 918.3 24 918.3 24 C 918 25.1 917.4 26.1 916.6 26.9 C 915.8 27.8 914.8 28.4 913.6 28.9 C 912.4 29.3 911.1 29.5 909.6 29.5 Z M 937.2 37.3 C 936.6 37.3 936.1 37.2 935.6 37.1 C 935.2 37 934.9 37 934.7 36.9 C 934.7 36.9 935.6 33.9 935.6 33.9 C 936.4 34.1 937.1 34.2 937.7 34.1 C 938.4 34.1 938.9 33.8 939.4 33.3 C 939.9 32.8 940.3 32 940.7 30.9 C 940.74 30.91 941.4 29.2 941.4 29.2 L 933.3 7.3 L 936.9 7.3 L 943 24.7 L 943.2 24.7 L 949.2 7.3 L 952.8 7.3 C 952.8 7.3 943.58 32.27 943.6 32.3 C 943.2 33.4 942.6 34.3 942 35.1 C 941.4 35.8 940.7 36.4 939.9 36.7 C 939.1 37.1 938.2 37.3 937.2 37.3 Z M 964.7 29.5 C 962.7 29.5 961 29.1 959.5 28.1 C 958 27.2 956.9 25.9 956 24.2 C 955.2 22.5 954.8 20.5 954.8 18.3 C 954.8 16 955.2 14 956 12.3 C 956.9 10.6 958 9.3 959.5 8.4 C 961 7.5 962.7 7 964.7 7 C 966.6 7 968.4 7.5 969.8 8.4 C 971.3 9.3 972.5 10.6 973.3 12.3 C 974.1 14 974.6 16 974.6 18.3 C 974.6 20.5 974.1 22.5 973.3 24.2 C 972.5 25.9 971.3 27.2 969.8 28.1 C 968.4 29.1 966.6 29.5 964.7 29.5 Z M 964.7 26.5 C 966.2 26.5 967.4 26.2 968.4 25.4 C 969.3 24.6 970 23.6 970.5 22.4 C 971 21.1 971.2 19.8 971.2 18.3 C 971.2 16.8 971 15.5 970.5 14.2 C 970 13 969.3 11.9 968.4 11.2 C 967.4 10.4 966.2 10 964.7 10 C 963.2 10 961.9 10.4 961 11.2 C 960 11.9 959.3 13 958.8 14.2 C 958.4 15.5 958.1 16.8 958.1 18.3 C 958.1 19.8 958.4 21.1 958.8 22.4 C 959.3 23.6 960 24.6 961 25.4 C 961.9 26.2 963.2 26.5 964.7 26.5 Z M 992.9 20.2 C 992.93 20.17 992.9 7.3 992.9 7.3 L 996.3 7.3 L 996.3 29.1 L 992.9 29.1 L 992.9 25.4 C 992.9 25.4 992.7 25.4 992.7 25.4 C 992.2 26.5 991.4 27.4 990.3 28.2 C 989.2 29 987.9 29.4 986.2 29.4 C 984.9 29.4 983.6 29.1 982.6 28.5 C 981.5 27.9 980.7 27 980.1 25.7 C 979.5 24.5 979.2 23 979.2 21.1 C 979.18 21.14 979.2 7.3 979.2 7.3 L 982.5 7.3 C 982.5 7.3 982.53 20.91 982.5 20.9 C 982.5 22.5 983 23.8 983.9 24.7 C 984.8 25.7 985.9 26.1 987.3 26.1 C 988.1 26.1 989 25.9 989.9 25.5 C 990.7 25.1 991.4 24.4 992 23.5 C 992.6 22.7 992.9 21.5 992.9 20.2 Z M 1002.1 29.1 L 1002.1 7.3 L 1005.3 7.3 L 1005.3 10.6 C 1005.3 10.6 1005.54 10.57 1005.5 10.6 C 1005.9 9.5 1006.7 8.6 1007.7 7.9 C 1008.7 7.3 1009.9 6.9 1011.2 6.9 C 1011.5 6.9 1011.8 6.9 1012.1 6.9 C 1012.5 7 1012.8 7 1013 7 C 1013 7 1013 10.4 1013 10.4 C 1012.9 10.4 1012.6 10.3 1012.2 10.3 C 1011.8 10.2 1011.4 10.2 1010.9 10.2 C 1009.9 10.2 1008.9 10.4 1008.1 10.8 C 1007.3 11.3 1006.6 11.9 1006.1 12.6 C 1005.7 13.4 1005.4 14.3 1005.4 15.3 C 1005.43 15.28 1005.4 29.1 1005.4 29.1 L 1002.1 29.1 Z " stroke="none" fill="#10283d"/>  </g></svg>