<?xml version="1.0" standalone="no"?><!DOCTYPE svg PUBLIC "-//W3C//DTD SVG 1.1//EN" "http://www.w3.org/Graphics/SVG/1.1/DTD/svg11.dtd"><svg xmlns="http://www.w3.org/2000/svg" version="1.1" width="121px" height="25.4px" viewBox="0 -3 121 25.4" style="top:-3px">  <desc>17 / 19</desc>  <defs/>  <g id="Polygon124985">    <path d="M 44.1 3.4 L 44.1 13.6 L 42.9 13.6 L 42.9 4.7 L 42.9 4.7 L 40.4 6.3 L 40.4 5.1 L 42.9 3.4 L 44.1 3.4 Z M 46.9 13.6 L 51.5 4.6 L 51.5 4.5 L 46.2 4.5 L 46.2 3.4 L 52.8 3.4 L 52.8 4.5 L 48.2 13.6 L 46.9 13.6 Z M 62.2 2.9 L 58.9 15.1 L 57.8 15.1 L 61.1 2.9 L 62.2 2.9 Z M 71.1 3.4 L 71.1 13.6 L 69.8 13.6 L 69.8 4.7 L 69.8 4.7 L 67.3 6.3 L 67.3 5.1 L 69.8 3.4 L 71.1 3.4 Z M 76.9 3.2 C 77.3 3.2 77.8 3.3 78.2 3.5 C 78.6 3.6 79 3.9 79.3 4.3 C 79.7 4.6 79.9 5.1 80.2 5.7 C 80.4 6.3 80.5 7.1 80.5 8.1 C 80.5 9 80.4 9.8 80.2 10.5 C 80 11.2 79.8 11.8 79.5 12.2 C 79.2 12.7 78.8 13.1 78.3 13.3 C 77.9 13.6 77.3 13.7 76.8 13.7 C 76.2 13.7 75.7 13.6 75.2 13.4 C 74.8 13.1 74.4 12.8 74.2 12.4 C 73.9 12 73.7 11.5 73.6 11 C 73.6 11 74.8 11 74.8 11 C 74.9 11.5 75.2 11.8 75.5 12.2 C 75.8 12.5 76.2 12.6 76.8 12.6 C 77.6 12.6 78.2 12.3 78.6 11.6 C 79.1 10.9 79.3 9.9 79.3 8.7 C 79.3 8.7 79.2 8.7 79.2 8.7 C 79.1 8.9 78.8 9.2 78.6 9.4 C 78.3 9.6 78 9.7 77.7 9.9 C 77.4 10 77.1 10 76.7 10 C 76.1 10 75.6 9.9 75.1 9.6 C 74.6 9.3 74.3 8.9 74 8.4 C 73.7 7.9 73.5 7.3 73.5 6.6 C 73.5 6 73.7 5.4 74 4.9 C 74.2 4.4 74.6 4 75.1 3.7 C 75.6 3.4 76.2 3.2 76.9 3.2 Z M 76.9 4.3 C 76.5 4.3 76.1 4.4 75.8 4.6 C 75.5 4.9 75.2 5.1 75 5.5 C 74.8 5.8 74.7 6.2 74.7 6.6 C 74.7 7.1 74.8 7.5 75 7.8 C 75.2 8.1 75.4 8.4 75.8 8.6 C 76.1 8.8 76.5 8.9 76.9 8.9 C 77.2 8.9 77.5 8.9 77.8 8.7 C 78 8.6 78.3 8.4 78.5 8.2 C 78.7 8 78.8 7.8 79 7.5 C 79.1 7.2 79.1 6.9 79.1 6.6 C 79.1 6.2 79 5.9 78.9 5.5 C 78.7 5.2 78.4 4.9 78.1 4.7 C 77.7 4.4 77.4 4.3 76.9 4.3 Z " stroke="none" fill="#10283d"/>  </g></svg>