<?xml version="1.0" standalone="no"?><!DOCTYPE svg PUBLIC "-//W3C//DTD SVG 1.1//EN" "http://www.w3.org/Graphics/SVG/1.1/DTD/svg11.dtd"><svg xmlns="http://www.w3.org/2000/svg" version="1.1" width="422px" height="65.1px" viewBox="0 -1 422 65.1" style="top:-1px">  <desc>The industry leader’s playbook</desc>  <defs/>  <g id="Polygon104725">    <path d="M 1.1 37.4 L 1.1 35.7 L 12.6 35.7 L 12.6 37.4 L 7.8 37.4 L 7.8 51 L 5.9 51 L 5.9 37.4 L 1.1 37.4 Z M 15.4 51 L 15.4 35.7 L 17.3 35.7 L 17.3 42.5 L 25.4 42.5 L 25.4 35.7 L 27.3 35.7 L 27.3 51 L 25.4 51 L 25.4 44.2 L 17.3 44.2 L 17.3 51 L 15.4 51 Z M 31.2 51 L 31.2 35.7 L 40.5 35.7 L 40.5 37.4 L 33.1 37.4 L 33.1 42.5 L 40 42.5 L 40 44.2 L 33.1 44.2 L 33.1 49.4 L 40.6 49.4 L 40.6 51 L 31.2 51 Z M 51.8 35.7 L 51.8 51 L 49.9 51 L 49.9 35.7 L 51.8 35.7 Z M 67.9 35.7 L 67.9 51 L 66.1 51 L 57.8 39 L 57.6 39 L 57.6 51 L 55.8 51 L 55.8 35.7 L 57.6 35.7 L 65.9 47.7 L 66.1 47.7 L 66.1 35.7 L 67.9 35.7 Z M 76.6 51 C 76.56 51 71.8 51 71.8 51 L 71.8 35.7 C 71.8 35.7 76.77 35.73 76.8 35.7 C 78.3 35.7 79.5 36 80.6 36.6 C 81.6 37.2 82.4 38.1 83 39.3 C 83.6 40.4 83.8 41.8 83.8 43.3 C 83.8 44.9 83.6 46.3 83 47.4 C 82.4 48.6 81.6 49.5 80.5 50.1 C 79.4 50.7 78.1 51 76.6 51 Z M 73.7 49.4 C 73.7 49.4 76.44 49.36 76.4 49.4 C 77.7 49.4 78.8 49.1 79.6 48.6 C 80.4 48.1 81 47.4 81.4 46.5 C 81.8 45.6 82.1 44.6 82.1 43.3 C 82.1 42.1 81.8 41 81.4 40.1 C 81 39.3 80.4 38.6 79.6 38.1 C 78.8 37.6 77.8 37.4 76.7 37.4 C 76.65 37.37 73.7 37.4 73.7 37.4 L 73.7 49.4 Z M 97.1 35.7 L 98.9 35.7 C 98.9 35.7 98.93 45.84 98.9 45.8 C 98.9 46.9 98.7 47.8 98.2 48.6 C 97.7 49.5 97 50.1 96.1 50.6 C 95.2 51 94.2 51.3 93 51.3 C 91.8 51.3 90.7 51 89.9 50.6 C 89 50.1 88.3 49.5 87.8 48.6 C 87.3 47.8 87.1 46.9 87.1 45.8 C 87.06 45.84 87.1 35.7 87.1 35.7 L 88.9 35.7 C 88.9 35.7 88.9 45.69 88.9 45.7 C 88.9 46.4 89.1 47.1 89.4 47.7 C 89.7 48.3 90.2 48.7 90.8 49 C 91.4 49.4 92.1 49.5 93 49.5 C 93.8 49.5 94.6 49.4 95.2 49 C 95.8 48.7 96.3 48.3 96.6 47.7 C 96.9 47.1 97.1 46.4 97.1 45.7 C 97.08 45.69 97.1 35.7 97.1 35.7 Z M 111 39.5 C 110.9 38.8 110.5 38.2 109.9 37.8 C 109.3 37.4 108.5 37.2 107.6 37.2 C 106.9 37.2 106.3 37.3 105.8 37.5 C 105.3 37.7 104.9 38 104.6 38.4 C 104.3 38.8 104.2 39.2 104.2 39.7 C 104.2 40.1 104.3 40.5 104.5 40.7 C 104.7 41 104.9 41.3 105.2 41.5 C 105.5 41.7 105.9 41.8 106.2 41.9 C 106.5 42.1 106.9 42.2 107.1 42.2 C 107.1 42.2 108.7 42.6 108.7 42.6 C 109.1 42.8 109.5 42.9 110 43.1 C 110.5 43.3 111 43.5 111.4 43.8 C 111.9 44.1 112.2 44.5 112.5 45 C 112.8 45.5 113 46.1 113 46.9 C 113 47.7 112.8 48.4 112.3 49.1 C 111.9 49.8 111.3 50.3 110.5 50.7 C 109.6 51.1 108.6 51.3 107.5 51.3 C 106.4 51.3 105.4 51.1 104.6 50.7 C 103.8 50.4 103.2 49.9 102.7 49.3 C 102.3 48.6 102 47.9 102 47.1 C 102 47.1 103.9 47.1 103.9 47.1 C 103.9 47.6 104.1 48.1 104.5 48.5 C 104.8 48.9 105.2 49.1 105.8 49.3 C 106.3 49.5 106.9 49.6 107.5 49.6 C 108.2 49.6 108.8 49.5 109.4 49.3 C 109.9 49 110.4 48.7 110.7 48.3 C 111 47.9 111.2 47.4 111.2 46.8 C 111.2 46.3 111 45.9 110.8 45.6 C 110.5 45.3 110.1 45 109.6 44.8 C 109.2 44.6 108.7 44.4 108.1 44.3 C 108.1 44.3 106.3 43.8 106.3 43.8 C 105.1 43.4 104.1 42.9 103.4 42.3 C 102.7 41.6 102.4 40.8 102.4 39.8 C 102.4 38.9 102.6 38.2 103.1 37.5 C 103.6 36.9 104.2 36.4 105 36.1 C 105.8 35.7 106.6 35.5 107.6 35.5 C 108.6 35.5 109.5 35.7 110.2 36 C 111 36.4 111.6 36.9 112.1 37.5 C 112.5 38.1 112.7 38.8 112.8 39.5 C 112.8 39.5 111 39.5 111 39.5 Z M 115.1 37.4 L 115.1 35.7 L 126.6 35.7 L 126.6 37.4 L 121.8 37.4 L 121.8 51 L 119.9 51 L 119.9 37.4 L 115.1 37.4 Z M 129.4 51 L 129.4 35.7 C 129.4 35.7 134.59 35.73 134.6 35.7 C 135.8 35.7 136.8 35.9 137.5 36.3 C 138.3 36.7 138.9 37.3 139.2 38 C 139.6 38.7 139.8 39.5 139.8 40.4 C 139.8 41.3 139.6 42.1 139.2 42.8 C 138.9 43.5 138.3 44 137.5 44.4 C 136.8 44.8 135.8 45 134.6 45 C 134.62 45.03 130.4 45 130.4 45 L 130.4 43.4 C 130.4 43.4 134.56 43.36 134.6 43.4 C 135.4 43.4 136 43.2 136.5 43 C 137 42.8 137.4 42.4 137.6 42 C 137.8 41.5 138 41 138 40.4 C 138 39.8 137.8 39.3 137.6 38.8 C 137.4 38.3 137 38 136.5 37.7 C 136 37.5 135.4 37.4 134.5 37.4 C 134.53 37.37 131.3 37.4 131.3 37.4 L 131.3 51 L 129.4 51 Z M 136.6 44.1 L 140.4 51 L 138.2 51 L 134.5 44.1 L 136.6 44.1 Z M 141.2 35.7 L 143.3 35.7 L 147.6 42.9 L 147.8 42.9 L 152 35.7 L 154.1 35.7 L 148.6 44.7 L 148.6 51 L 146.7 51 L 146.7 44.7 L 141.2 35.7 Z M 161.1 42.5 L 161.1 44.2 L 154.4 44.2 L 154.4 42.5 L 161.1 42.5 Z M 164.5 51 L 164.5 35.7 L 166.3 35.7 L 166.3 49.4 L 173.4 49.4 L 173.4 51 L 164.5 51 Z M 176.3 51 L 176.3 35.7 L 185.5 35.7 L 185.5 37.4 L 178.1 37.4 L 178.1 42.5 L 185 42.5 L 185 44.2 L 178.1 44.2 L 178.1 49.4 L 185.6 49.4 L 185.6 51 L 176.3 51 Z M 189.9 51 L 188 51 L 193.6 35.7 L 195.5 35.7 L 201.1 51 L 199.2 51 L 194.6 38.1 L 194.5 38.1 L 189.9 51 Z M 190.6 45 L 198.5 45 L 198.5 46.7 L 190.6 46.7 L 190.6 45 Z M 208.4 51 C 208.44 51 203.7 51 203.7 51 L 203.7 35.7 C 203.7 35.7 208.65 35.73 208.6 35.7 C 210.1 35.7 211.4 36 212.5 36.6 C 213.5 37.2 214.3 38.1 214.9 39.3 C 215.4 40.4 215.7 41.8 215.7 43.3 C 215.7 44.9 215.4 46.3 214.9 47.4 C 214.3 48.6 213.5 49.5 212.4 50.1 C 211.3 50.7 210 51 208.4 51 Z M 205.6 49.4 C 205.6 49.4 208.32 49.36 208.3 49.4 C 209.6 49.4 210.6 49.1 211.5 48.6 C 212.3 48.1 212.9 47.4 213.3 46.5 C 213.7 45.6 213.9 44.6 213.9 43.3 C 213.9 42.1 213.7 41 213.3 40.1 C 212.9 39.3 212.3 38.6 211.5 38.1 C 210.7 37.6 209.7 37.4 208.5 37.4 C 208.53 37.37 205.6 37.4 205.6 37.4 L 205.6 49.4 Z M 219 51 L 219 35.7 L 228.2 35.7 L 228.2 37.4 L 220.9 37.4 L 220.9 42.5 L 227.8 42.5 L 227.8 44.2 L 220.9 44.2 L 220.9 49.4 L 228.4 49.4 L 228.4 51 L 219 51 Z M 231.4 51 L 231.4 35.7 C 231.4 35.7 236.59 35.73 236.6 35.7 C 237.8 35.7 238.8 35.9 239.5 36.3 C 240.3 36.7 240.9 37.3 241.2 38 C 241.6 38.7 241.8 39.5 241.8 40.4 C 241.8 41.3 241.6 42.1 241.2 42.8 C 240.9 43.5 240.3 44 239.5 44.4 C 238.8 44.8 237.8 45 236.6 45 C 236.62 45.03 232.4 45 232.4 45 L 232.4 43.4 C 232.4 43.4 236.56 43.36 236.6 43.4 C 237.4 43.4 238 43.2 238.5 43 C 239 42.8 239.4 42.4 239.6 42 C 239.8 41.5 240 41 240 40.4 C 240 39.8 239.8 39.3 239.6 38.8 C 239.4 38.3 239 38 238.5 37.7 C 238 37.5 237.4 37.4 236.5 37.4 C 236.53 37.37 233.3 37.4 233.3 37.4 L 233.3 51 L 231.4 51 Z M 238.6 44.1 L 242.4 51 L 240.2 51 L 236.5 44.1 L 238.6 44.1 Z M 246.8 35.7 C 246.8 35.7 246.82 37.07 246.8 37.1 C 246.8 37.5 246.7 37.9 246.6 38.4 C 246.5 38.8 246.2 39.3 246 39.7 C 245.7 40.1 245.3 40.5 244.9 40.8 C 244.9 40.8 244 40.1 244 40.1 C 244.3 39.6 244.6 39.1 244.8 38.7 C 245 38.2 245.1 37.7 245.1 37.1 C 245.15 37.1 245.1 35.7 245.1 35.7 L 246.8 35.7 Z M 258.1 39.5 C 258.1 38.8 257.7 38.2 257.1 37.8 C 256.4 37.4 255.6 37.2 254.7 37.2 C 254 37.2 253.4 37.3 252.9 37.5 C 252.4 37.7 252 38 251.8 38.4 C 251.5 38.8 251.3 39.2 251.3 39.7 C 251.3 40.1 251.4 40.5 251.6 40.7 C 251.8 41 252.1 41.3 252.4 41.5 C 252.7 41.7 253 41.8 253.4 41.9 C 253.7 42.1 254 42.2 254.3 42.2 C 254.3 42.2 255.8 42.6 255.8 42.6 C 256.2 42.8 256.7 42.9 257.2 43.1 C 257.7 43.3 258.1 43.5 258.6 43.8 C 259 44.1 259.4 44.5 259.7 45 C 260 45.5 260.1 46.1 260.1 46.9 C 260.1 47.7 259.9 48.4 259.5 49.1 C 259.1 49.8 258.4 50.3 257.6 50.7 C 256.8 51.1 255.8 51.3 254.6 51.3 C 253.5 51.3 252.6 51.1 251.8 50.7 C 251 50.4 250.4 49.9 249.9 49.3 C 249.5 48.6 249.2 47.9 249.1 47.1 C 249.1 47.1 251 47.1 251 47.1 C 251.1 47.6 251.3 48.1 251.6 48.5 C 252 48.9 252.4 49.1 252.9 49.3 C 253.5 49.5 254 49.6 254.6 49.6 C 255.3 49.6 256 49.5 256.5 49.3 C 257.1 49 257.5 48.7 257.9 48.3 C 258.2 47.9 258.4 47.4 258.4 46.8 C 258.4 46.3 258.2 45.9 257.9 45.6 C 257.6 45.3 257.3 45 256.8 44.8 C 256.3 44.6 255.8 44.4 255.3 44.3 C 255.3 44.3 253.4 43.8 253.4 43.8 C 252.2 43.4 251.3 42.9 250.6 42.3 C 249.9 41.6 249.6 40.8 249.6 39.8 C 249.6 38.9 249.8 38.2 250.2 37.5 C 250.7 36.9 251.3 36.4 252.1 36.1 C 252.9 35.7 253.8 35.5 254.8 35.5 C 255.8 35.5 256.6 35.7 257.4 36 C 258.2 36.4 258.8 36.9 259.2 37.5 C 259.7 38.1 259.9 38.8 259.9 39.5 C 259.9 39.5 258.1 39.5 258.1 39.5 Z M 269.3 51 L 269.3 35.7 C 269.3 35.7 274.49 35.73 274.5 35.7 C 275.7 35.7 276.7 35.9 277.4 36.4 C 278.2 36.8 278.8 37.4 279.1 38.1 C 279.5 38.8 279.7 39.7 279.7 40.6 C 279.7 41.5 279.5 42.3 279.1 43 C 278.8 43.7 278.2 44.3 277.4 44.8 C 276.7 45.2 275.7 45.4 274.5 45.4 C 274.52 45.42 270.8 45.4 270.8 45.4 L 270.8 43.8 C 270.8 43.8 274.46 43.78 274.5 43.8 C 275.3 43.8 275.9 43.6 276.4 43.4 C 276.9 43.1 277.3 42.7 277.5 42.2 C 277.7 41.7 277.9 41.2 277.9 40.6 C 277.9 39.9 277.7 39.4 277.5 38.9 C 277.3 38.4 276.9 38.1 276.4 37.8 C 275.9 37.5 275.3 37.4 274.4 37.4 C 274.43 37.37 271.2 37.4 271.2 37.4 L 271.2 51 L 269.3 51 Z M 282.6 51 L 282.6 35.7 L 284.4 35.7 L 284.4 49.4 L 291.5 49.4 L 291.5 51 L 282.6 51 Z M 295.7 51 L 293.7 51 L 299.3 35.7 L 301.2 35.7 L 306.9 51 L 304.9 51 L 300.3 38.1 L 300.2 38.1 L 295.7 51 Z M 296.4 45 L 304.2 45 L 304.2 46.7 L 296.4 46.7 L 296.4 45 Z M 306.2 35.7 L 308.3 35.7 L 312.5 42.9 L 312.7 42.9 L 317 35.7 L 319.1 35.7 L 313.6 44.7 L 313.6 51 L 311.7 51 L 311.7 44.7 L 306.2 35.7 Z M 321.7 51 L 321.7 35.7 C 321.7 35.7 327.03 35.73 327 35.7 C 328.1 35.7 329 35.9 329.7 36.3 C 330.4 36.6 330.9 37.1 331.2 37.7 C 331.5 38.4 331.7 39 331.7 39.8 C 331.7 40.4 331.6 41 331.4 41.4 C 331.1 41.8 330.8 42.2 330.5 42.4 C 330.1 42.7 329.7 42.9 329.2 43 C 329.2 43 329.2 43.1 329.2 43.1 C 329.7 43.2 330.2 43.3 330.6 43.6 C 331.1 43.9 331.5 44.3 331.8 44.9 C 332.2 45.5 332.3 46.1 332.3 46.9 C 332.3 47.7 332.1 48.4 331.8 49 C 331.4 49.6 330.9 50.1 330.1 50.5 C 329.4 50.8 328.4 51 327.2 51 C 327.21 51 321.7 51 321.7 51 Z M 323.5 49.4 C 323.5 49.4 327.21 49.36 327.2 49.4 C 328.4 49.4 329.3 49.1 329.8 48.7 C 330.3 48.2 330.5 47.6 330.5 46.9 C 330.5 46.4 330.4 45.9 330.2 45.5 C 329.9 45.1 329.5 44.7 329 44.4 C 328.5 44.2 328 44 327.3 44 C 327.3 44.05 323.5 44 323.5 44 L 323.5 49.4 Z M 323.5 42.4 C 323.5 42.4 326.97 42.44 327 42.4 C 327.5 42.4 328 42.3 328.5 42.1 C 328.9 41.9 329.3 41.6 329.6 41.2 C 329.8 40.8 330 40.3 330 39.8 C 330 39.1 329.7 38.5 329.3 38.1 C 328.8 37.6 328 37.4 327 37.4 C 327.03 37.37 323.5 37.4 323.5 37.4 L 323.5 42.4 Z M 348.3 43.4 C 348.3 45 348 46.4 347.4 47.5 C 346.9 48.7 346.1 49.6 345.1 50.3 C 344 50.9 342.9 51.2 341.6 51.2 C 340.3 51.2 339.1 50.9 338.1 50.3 C 337.1 49.6 336.3 48.7 335.7 47.5 C 335.1 46.4 334.8 45 334.8 43.4 C 334.8 41.8 335.1 40.4 335.7 39.2 C 336.3 38 337.1 37.1 338.1 36.5 C 339.1 35.8 340.3 35.5 341.6 35.5 C 342.9 35.5 344 35.8 345.1 36.5 C 346.1 37.1 346.9 38 347.4 39.2 C 348 40.4 348.3 41.8 348.3 43.4 Z M 346.5 43.4 C 346.5 42 346.3 40.9 345.9 40 C 345.4 39.1 344.8 38.4 344.1 37.9 C 343.3 37.5 342.5 37.2 341.6 37.2 C 340.7 37.2 339.8 37.5 339.1 37.9 C 338.3 38.4 337.7 39.1 337.3 40 C 336.8 40.9 336.6 42 336.6 43.4 C 336.6 44.7 336.8 45.8 337.3 46.7 C 337.7 47.6 338.3 48.3 339.1 48.8 C 339.8 49.2 340.7 49.5 341.6 49.5 C 342.5 49.5 343.3 49.2 344.1 48.8 C 344.8 48.3 345.4 47.6 345.9 46.7 C 346.3 45.8 346.5 44.7 346.5 43.4 Z M 364.5 43.4 C 364.5 45 364.2 46.4 363.6 47.5 C 363 48.7 362.2 49.6 361.2 50.3 C 360.2 50.9 359 51.2 357.7 51.2 C 356.4 51.2 355.3 50.9 354.3 50.3 C 353.2 49.6 352.4 48.7 351.9 47.5 C 351.3 46.4 351 45 351 43.4 C 351 41.8 351.3 40.4 351.9 39.2 C 352.4 38 353.2 37.1 354.3 36.5 C 355.3 35.8 356.4 35.5 357.7 35.5 C 359 35.5 360.2 35.8 361.2 36.5 C 362.2 37.1 363 38 363.6 39.2 C 364.2 40.4 364.5 41.8 364.5 43.4 Z M 362.7 43.4 C 362.7 42 362.5 40.9 362 40 C 361.6 39.1 361 38.4 360.2 37.9 C 359.5 37.5 358.7 37.2 357.7 37.2 C 356.8 37.2 356 37.5 355.2 37.9 C 354.5 38.4 353.9 39.1 353.4 40 C 353 40.9 352.8 42 352.8 43.4 C 352.8 44.7 353 45.8 353.4 46.7 C 353.9 47.6 354.5 48.3 355.2 48.8 C 356 49.2 356.8 49.5 357.7 49.5 C 358.7 49.5 359.5 49.2 360.2 48.8 C 361 48.3 361.6 47.6 362 46.7 C 362.5 45.8 362.7 44.7 362.7 43.4 Z M 367.8 51 L 367.8 35.7 L 369.7 35.7 L 369.7 43.3 L 369.8 43.3 L 376.7 35.7 L 379.1 35.7 L 372.7 42.6 L 379.1 51 L 376.9 51 L 371.6 43.9 L 369.7 46 L 369.7 51 L 367.8 51 Z " stroke="none" fill="#ffffff"/>  </g></svg>