<?xml version="1.0" standalone="no"?><!DOCTYPE svg PUBLIC "-//W3C//DTD SVG 1.1//EN" "http://www.w3.org/Graphics/SVG/1.1/DTD/svg11.dtd"><svg xmlns="http://www.w3.org/2000/svg" version="1.1" width="121px" height="25.4px" viewBox="0 -3 121 25.4" style="top:-3px">  <desc>18 / 19</desc>  <defs/>  <g id="Polygon125883">    <path d="M 43.7 3.4 L 43.7 13.6 L 42.5 13.6 L 42.5 4.7 L 42.5 4.7 L 40 6.3 L 40 5.1 L 42.5 3.4 L 43.7 3.4 Z M 49.6 13.7 C 49 13.7 48.4 13.6 47.8 13.3 C 47.3 13.1 46.9 12.8 46.6 12.3 C 46.3 11.9 46.2 11.4 46.2 10.9 C 46.2 10.4 46.3 10 46.4 9.7 C 46.6 9.3 46.8 9 47.1 8.7 C 47.4 8.5 47.8 8.3 48.1 8.3 C 48.1 8.3 48.1 8.2 48.1 8.2 C 47.7 8.1 47.3 7.8 47 7.4 C 46.7 7 46.6 6.5 46.6 5.9 C 46.6 5.4 46.7 5 47 4.6 C 47.2 4.2 47.6 3.8 48 3.6 C 48.5 3.4 49 3.2 49.6 3.2 C 50.2 3.2 50.8 3.4 51.2 3.6 C 51.7 3.8 52.1 4.2 52.3 4.6 C 52.6 5 52.7 5.4 52.7 5.9 C 52.7 6.5 52.6 7 52.3 7.4 C 52 7.8 51.6 8.1 51.1 8.2 C 51.1 8.2 51.1 8.3 51.1 8.3 C 51.5 8.3 51.8 8.5 52.1 8.7 C 52.4 9 52.7 9.3 52.8 9.7 C 53 10 53.1 10.4 53.1 10.9 C 53.1 11.4 52.9 11.9 52.7 12.3 C 52.4 12.8 52 13.1 51.4 13.3 C 50.9 13.6 50.3 13.7 49.6 13.7 Z M 49.6 12.6 C 50.1 12.6 50.5 12.5 50.8 12.4 C 51.2 12.2 51.4 12 51.6 11.8 C 51.8 11.5 51.9 11.2 51.9 10.8 C 51.9 10.4 51.8 10.1 51.6 9.8 C 51.4 9.5 51.1 9.3 50.8 9.1 C 50.5 8.9 50.1 8.8 49.6 8.8 C 49.2 8.8 48.8 8.9 48.5 9.1 C 48.1 9.3 47.9 9.5 47.7 9.8 C 47.5 10.1 47.4 10.4 47.4 10.8 C 47.4 11.2 47.5 11.5 47.7 11.8 C 47.8 12 48.1 12.2 48.4 12.4 C 48.8 12.5 49.2 12.6 49.6 12.6 Z M 49.6 7.8 C 50 7.8 50.3 7.7 50.6 7.6 C 50.9 7.4 51.1 7.2 51.3 6.9 C 51.4 6.7 51.5 6.4 51.5 6 C 51.5 5.7 51.4 5.4 51.3 5.1 C 51.1 4.9 50.9 4.7 50.6 4.5 C 50.3 4.4 50 4.3 49.6 4.3 C 49.3 4.3 48.9 4.4 48.6 4.5 C 48.4 4.7 48.1 4.9 48 5.1 C 47.8 5.4 47.7 5.7 47.8 6 C 47.7 6.4 47.8 6.7 48 6.9 C 48.1 7.2 48.4 7.4 48.7 7.6 C 48.9 7.7 49.3 7.8 49.6 7.8 Z M 62.6 2.9 L 59.3 15.1 L 58.2 15.1 L 61.5 2.9 L 62.6 2.9 Z M 71.5 3.4 L 71.5 13.6 L 70.2 13.6 L 70.2 4.7 L 70.2 4.7 L 67.7 6.3 L 67.7 5.1 L 70.2 3.4 L 71.5 3.4 Z M 77.3 3.2 C 77.7 3.2 78.2 3.3 78.6 3.5 C 79 3.6 79.4 3.9 79.7 4.3 C 80.1 4.6 80.3 5.1 80.6 5.7 C 80.8 6.3 80.9 7.1 80.9 8.1 C 80.9 9 80.8 9.8 80.6 10.5 C 80.4 11.2 80.2 11.8 79.9 12.2 C 79.6 12.7 79.2 13.1 78.7 13.3 C 78.3 13.6 77.7 13.7 77.2 13.7 C 76.6 13.7 76.1 13.6 75.6 13.4 C 75.2 13.1 74.8 12.8 74.6 12.4 C 74.3 12 74.1 11.5 74 11 C 74 11 75.2 11 75.2 11 C 75.3 11.5 75.6 11.8 75.9 12.2 C 76.2 12.5 76.6 12.6 77.2 12.6 C 78 12.6 78.6 12.3 79 11.6 C 79.5 10.9 79.7 9.9 79.7 8.7 C 79.7 8.7 79.6 8.7 79.6 8.7 C 79.5 8.9 79.2 9.2 79 9.4 C 78.7 9.6 78.4 9.7 78.1 9.9 C 77.8 10 77.5 10 77.1 10 C 76.5 10 76 9.9 75.5 9.6 C 75 9.3 74.7 8.9 74.4 8.4 C 74.1 7.9 73.9 7.3 73.9 6.6 C 73.9 6 74.1 5.4 74.4 4.9 C 74.6 4.4 75 4 75.5 3.7 C 76 3.4 76.6 3.2 77.3 3.2 Z M 77.3 4.3 C 76.9 4.3 76.5 4.4 76.2 4.6 C 75.9 4.9 75.6 5.1 75.4 5.5 C 75.2 5.8 75.1 6.2 75.1 6.6 C 75.1 7.1 75.2 7.5 75.4 7.8 C 75.6 8.1 75.8 8.4 76.2 8.6 C 76.5 8.8 76.9 8.9 77.3 8.9 C 77.6 8.9 77.9 8.9 78.2 8.7 C 78.4 8.6 78.7 8.4 78.9 8.2 C 79.1 8 79.2 7.8 79.4 7.5 C 79.5 7.2 79.5 6.9 79.5 6.6 C 79.5 6.2 79.4 5.9 79.3 5.5 C 79.1 5.2 78.8 4.9 78.5 4.7 C 78.1 4.4 77.8 4.3 77.3 4.3 Z " stroke="none" fill="#10283d"/>  </g></svg>