<?xml version="1.0" standalone="no"?><!DOCTYPE svg PUBLIC "-//W3C//DTD SVG 1.1//EN" "http://www.w3.org/Graphics/SVG/1.1/DTD/svg11.dtd"><svg xmlns="http://www.w3.org/2000/svg" version="1.1" width="834.1px" height="113.2px" viewBox="0 -25 834.1 113.2" style="top:-25px">  <desc>Disconnected intelligence</desc>  <defs/>  <g id="Polygon117035">    <path d="M 21.5 48.7 C 21.51 48.73 4.2 48.7 4.2 48.7 L 4.2 0 C 4.2 0 21.65 0 21.7 0 C 26.6 0 30.8 1 34.3 2.9 C 37.8 4.9 40.6 7.6 42.5 11.3 C 44.4 14.9 45.3 19.3 45.3 24.3 C 45.3 29.4 44.4 33.8 42.5 37.4 C 40.6 41.1 37.8 43.8 34.3 45.8 C 30.7 47.8 26.5 48.7 21.5 48.7 Z M 14.5 39.9 C 14.5 39.9 21.08 39.9 21.1 39.9 C 24.1 39.9 26.7 39.4 28.8 38.3 C 30.9 37.2 32.4 35.5 33.5 33.2 C 34.5 30.9 35.1 27.9 35.1 24.3 C 35.1 20.7 34.5 17.8 33.5 15.5 C 32.4 13.2 30.9 11.5 28.8 10.4 C 26.7 9.4 24.1 8.8 21.1 8.8 C 21.1 8.83 14.5 8.8 14.5 8.8 L 14.5 39.9 Z M 52.1 48.7 L 52.1 12.2 L 62.2 12.2 L 62.2 48.7 L 52.1 48.7 Z M 57.2 7.5 C 55.7 7.5 54.4 7 53.3 6 C 52.3 5 51.7 3.8 51.7 2.4 C 51.7 0.9 52.3 -0.3 53.3 -1.3 C 54.4 -2.3 55.7 -2.8 57.2 -2.8 C 58.7 -2.8 60 -2.3 61.1 -1.3 C 62.1 -0.3 62.7 0.9 62.7 2.3 C 62.7 3.7 62.1 5 61.1 6 C 60 7 58.7 7.5 57.2 7.5 Z M 99.8 22.6 C 99.8 22.6 90.5 23.2 90.5 23.2 C 90.3 22.4 90 21.7 89.5 21 C 89 20.4 88.3 19.9 87.4 19.5 C 86.6 19.1 85.6 18.9 84.4 18.9 C 82.8 18.9 81.5 19.2 80.4 19.9 C 79.3 20.5 78.8 21.4 78.8 22.5 C 78.8 23.4 79.1 24.1 79.8 24.7 C 80.5 25.3 81.7 25.8 83.4 26.2 C 83.4 26.2 90.1 27.5 90.1 27.5 C 93.6 28.2 96.3 29.4 98 31 C 99.7 32.6 100.6 34.8 100.6 37.4 C 100.6 39.8 99.9 41.9 98.5 43.7 C 97.1 45.5 95.2 46.9 92.8 47.9 C 90.3 48.9 87.5 49.4 84.3 49.4 C 79.5 49.4 75.7 48.4 72.8 46.4 C 69.9 44.4 68.2 41.6 67.8 38.1 C 67.8 38.1 77.7 37.6 77.7 37.6 C 78 39.1 78.8 40.2 79.9 41 C 81.1 41.8 82.6 42.1 84.4 42.1 C 86.1 42.1 87.6 41.8 88.7 41.1 C 89.7 40.4 90.3 39.5 90.3 38.4 C 90.3 37.5 89.9 36.7 89.1 36.2 C 88.4 35.6 87.2 35.1 85.6 34.8 C 85.6 34.8 79.3 33.5 79.3 33.5 C 75.7 32.8 73.1 31.6 71.3 29.8 C 69.6 28.1 68.7 25.8 68.7 23.1 C 68.7 20.7 69.4 18.7 70.6 17 C 71.9 15.3 73.7 14 76 13.1 C 78.4 12.2 81.1 11.7 84.2 11.7 C 88.8 11.7 92.5 12.7 95.1 14.6 C 97.8 16.6 99.3 19.2 99.8 22.6 Z M 122.3 49.4 C 118.6 49.4 115.4 48.6 112.7 47 C 110 45.5 107.9 43.2 106.5 40.4 C 105.1 37.6 104.4 34.3 104.4 30.6 C 104.4 26.9 105.1 23.6 106.5 20.7 C 108 17.9 110.1 15.7 112.7 14.1 C 115.4 12.5 118.6 11.7 122.3 11.7 C 125.5 11.7 128.3 12.3 130.7 13.4 C 133.1 14.6 135 16.2 136.4 18.3 C 137.8 20.4 138.5 22.9 138.7 25.7 C 138.7 25.7 129.1 25.7 129.1 25.7 C 128.8 23.9 128.1 22.4 127 21.3 C 125.8 20.2 124.3 19.6 122.5 19.6 C 120.9 19.6 119.5 20 118.4 20.9 C 117.2 21.7 116.3 23 115.6 24.6 C 115 26.2 114.7 28.2 114.7 30.5 C 114.7 32.8 115 34.8 115.6 36.4 C 116.3 38 117.2 39.3 118.3 40.1 C 119.5 41 120.9 41.4 122.5 41.4 C 123.6 41.4 124.7 41.2 125.6 40.7 C 126.5 40.2 127.3 39.5 127.9 38.6 C 128.5 37.7 128.9 36.6 129.1 35.3 C 129.1 35.3 138.7 35.3 138.7 35.3 C 138.5 38.1 137.8 40.6 136.4 42.7 C 135 44.8 133.2 46.5 130.8 47.7 C 128.4 48.8 125.6 49.4 122.3 49.4 Z M 160.5 49.4 C 156.8 49.4 153.6 48.7 150.9 47.1 C 148.2 45.5 146.2 43.3 144.7 40.5 C 143.2 37.6 142.5 34.3 142.5 30.6 C 142.5 26.8 143.2 23.5 144.7 20.7 C 146.2 17.9 148.2 15.7 150.9 14.1 C 153.6 12.5 156.8 11.7 160.5 11.7 C 164.2 11.7 167.4 12.5 170.1 14.1 C 172.8 15.7 174.8 17.9 176.3 20.7 C 177.8 23.5 178.5 26.8 178.5 30.6 C 178.5 34.3 177.8 37.6 176.3 40.5 C 174.8 43.3 172.8 45.5 170.1 47.1 C 167.4 48.7 164.2 49.4 160.5 49.4 Z M 160.5 41.6 C 162.2 41.6 163.6 41.1 164.8 40.2 C 165.9 39.2 166.7 37.9 167.3 36.2 C 167.9 34.5 168.2 32.7 168.2 30.5 C 168.2 28.4 167.9 26.5 167.3 24.8 C 166.7 23.2 165.9 21.9 164.8 20.9 C 163.6 19.9 162.2 19.4 160.5 19.4 C 158.8 19.4 157.4 19.9 156.3 20.9 C 155.1 21.9 154.3 23.2 153.7 24.8 C 153.1 26.5 152.8 28.4 152.8 30.5 C 152.8 32.7 153.1 34.5 153.7 36.2 C 154.3 37.9 155.1 39.2 156.3 40.2 C 157.4 41.1 158.8 41.6 160.5 41.6 Z M 194.4 27.6 C 194.37 27.6 194.4 48.7 194.4 48.7 L 184.2 48.7 L 184.2 12.2 L 193.9 12.2 L 193.9 18.6 C 193.9 18.6 194.33 18.63 194.3 18.6 C 195.1 16.5 196.5 14.8 198.4 13.6 C 200.3 12.3 202.6 11.7 205.3 11.7 C 207.9 11.7 210.1 12.3 212 13.4 C 213.8 14.5 215.3 16.1 216.4 18.1 C 217.4 20.2 217.9 22.6 217.9 25.5 C 217.93 25.46 217.9 48.7 217.9 48.7 L 207.8 48.7 C 207.8 48.7 207.79 27.27 207.8 27.3 C 207.8 25 207.2 23.3 206.1 22 C 204.9 20.8 203.3 20.1 201.3 20.1 C 199.9 20.1 198.7 20.4 197.7 21 C 196.7 21.6 195.8 22.4 195.3 23.6 C 194.7 24.7 194.4 26 194.4 27.6 Z M 235.4 27.6 C 235.4 27.6 235.4 48.7 235.4 48.7 L 225.3 48.7 L 225.3 12.2 L 234.9 12.2 L 234.9 18.6 C 234.9 18.6 235.36 18.63 235.4 18.6 C 236.2 16.5 237.5 14.8 239.4 13.6 C 241.3 12.3 243.6 11.7 246.3 11.7 C 248.9 11.7 251.1 12.3 253 13.4 C 254.9 14.5 256.3 16.1 257.4 18.1 C 258.4 20.2 259 22.6 259 25.5 C 258.96 25.46 259 48.7 259 48.7 L 248.8 48.7 C 248.8 48.7 248.82 27.27 248.8 27.3 C 248.8 25 248.3 23.3 247.1 22 C 246 20.8 244.4 20.1 242.3 20.1 C 241 20.1 239.8 20.4 238.7 21 C 237.7 21.6 236.9 22.4 236.3 23.6 C 235.7 24.7 235.4 26 235.4 27.6 Z M 282.7 49.4 C 278.9 49.4 275.7 48.7 273 47.1 C 270.3 45.6 268.2 43.4 266.7 40.6 C 265.3 37.8 264.5 34.5 264.5 30.6 C 264.5 26.9 265.3 23.6 266.7 20.7 C 268.2 17.9 270.2 15.7 272.9 14.1 C 275.6 12.5 278.7 11.7 282.3 11.7 C 284.7 11.7 286.9 12.1 289 12.9 C 291.1 13.6 292.9 14.8 294.5 16.3 C 296 17.9 297.3 19.8 298.1 22.1 C 299 24.4 299.4 27.2 299.4 30.3 C 299.44 30.26 299.4 33 299.4 33 L 268.6 33 L 268.6 26.8 C 268.6 26.8 289.9 26.77 289.9 26.8 C 289.9 25.3 289.6 24 288.9 22.9 C 288.3 21.8 287.4 20.9 286.3 20.2 C 285.2 19.6 283.9 19.3 282.4 19.3 C 280.9 19.3 279.5 19.6 278.3 20.3 C 277.2 21 276.2 22 275.6 23.2 C 274.9 24.3 274.6 25.7 274.6 27.1 C 274.6 27.1 274.6 33.1 274.6 33.1 C 274.6 34.9 274.9 36.4 275.6 37.8 C 276.2 39.1 277.2 40.1 278.4 40.8 C 279.7 41.5 281.1 41.9 282.8 41.9 C 284 41.9 285 41.7 285.9 41.4 C 286.9 41.1 287.7 40.6 288.3 40 C 289 39.3 289.5 38.6 289.9 37.6 C 289.9 37.6 299.2 38.3 299.2 38.3 C 298.7 40.5 297.8 42.5 296.3 44.1 C 294.8 45.8 293 47.1 290.6 48 C 288.3 49 285.7 49.4 282.7 49.4 Z M 321.6 49.4 C 317.9 49.4 314.7 48.6 312 47 C 309.3 45.5 307.2 43.2 305.8 40.4 C 304.4 37.6 303.6 34.3 303.6 30.6 C 303.6 26.9 304.4 23.6 305.8 20.7 C 307.3 17.9 309.3 15.7 312 14.1 C 314.7 12.5 317.9 11.7 321.6 11.7 C 324.8 11.7 327.6 12.3 330 13.4 C 332.4 14.6 334.3 16.2 335.6 18.3 C 337 20.4 337.8 22.9 338 25.7 C 338 25.7 328.4 25.7 328.4 25.7 C 328.1 23.9 327.4 22.4 326.3 21.3 C 325.1 20.2 323.6 19.6 321.8 19.6 C 320.2 19.6 318.8 20 317.6 20.9 C 316.5 21.7 315.6 23 314.9 24.6 C 314.3 26.2 313.9 28.2 313.9 30.5 C 313.9 32.8 314.3 34.8 314.9 36.4 C 315.6 38 316.5 39.3 317.6 40.1 C 318.8 41 320.2 41.4 321.8 41.4 C 322.9 41.4 324 41.2 324.9 40.7 C 325.8 40.2 326.6 39.5 327.2 38.6 C 327.8 37.7 328.2 36.6 328.4 35.3 C 328.4 35.3 338 35.3 338 35.3 C 337.8 38.1 337 40.6 335.7 42.7 C 334.3 44.8 332.5 46.5 330.1 47.7 C 327.7 48.8 324.9 49.4 321.6 49.4 Z M 362.9 12.2 L 362.9 19.8 L 340.8 19.8 L 340.8 12.2 L 362.9 12.2 Z M 345.8 3.4 L 356 3.4 C 356 3.4 355.98 37.5 356 37.5 C 356 38.4 356.1 39.2 356.4 39.7 C 356.7 40.2 357.1 40.6 357.6 40.8 C 358.1 41 358.7 41.1 359.4 41.1 C 359.9 41.1 360.4 41 360.8 40.9 C 361.3 40.8 361.7 40.8 361.9 40.7 C 361.9 40.7 363.5 48.3 363.5 48.3 C 363 48.4 362.3 48.6 361.4 48.8 C 360.5 49 359.3 49.2 358 49.2 C 355.6 49.3 353.4 49 351.6 48.3 C 349.8 47.5 348.4 46.3 347.3 44.8 C 346.3 43.2 345.8 41.2 345.8 38.8 C 345.84 38.83 345.8 3.4 345.8 3.4 Z M 383.9 49.4 C 380.2 49.4 377 48.7 374.3 47.1 C 371.5 45.6 369.5 43.4 368 40.6 C 366.5 37.8 365.8 34.5 365.8 30.6 C 365.8 26.9 366.5 23.6 368 20.7 C 369.5 17.9 371.5 15.7 374.2 14.1 C 376.8 12.5 380 11.7 383.5 11.7 C 386 11.7 388.2 12.1 390.3 12.9 C 392.4 13.6 394.2 14.8 395.8 16.3 C 397.3 17.9 398.5 19.8 399.4 22.1 C 400.3 24.4 400.7 27.2 400.7 30.3 C 400.72 30.26 400.7 33 400.7 33 L 369.9 33 L 369.9 26.8 C 369.9 26.8 391.18 26.77 391.2 26.8 C 391.2 25.3 390.9 24 390.2 22.9 C 389.6 21.8 388.7 20.9 387.6 20.2 C 386.5 19.6 385.2 19.3 383.7 19.3 C 382.2 19.3 380.8 19.6 379.6 20.3 C 378.4 21 377.5 22 376.9 23.2 C 376.2 24.3 375.9 25.7 375.8 27.1 C 375.8 27.1 375.8 33.1 375.8 33.1 C 375.8 34.9 376.2 36.4 376.8 37.8 C 377.5 39.1 378.5 40.1 379.7 40.8 C 381 41.5 382.4 41.9 384.1 41.9 C 385.2 41.9 386.3 41.7 387.2 41.4 C 388.1 41.1 388.9 40.6 389.6 40 C 390.3 39.3 390.8 38.6 391.1 37.6 C 391.1 37.6 400.5 38.3 400.5 38.3 C 400 40.5 399.1 42.5 397.6 44.1 C 396.1 45.8 394.2 47.1 391.9 48 C 389.6 49 387 49.4 383.9 49.4 Z M 420 49.3 C 417.2 49.3 414.7 48.6 412.4 47.2 C 410.2 45.7 408.4 43.6 407.1 40.8 C 405.8 38 405.1 34.6 405.1 30.5 C 405.1 26.3 405.8 22.8 407.2 20 C 408.5 17.3 410.3 15.2 412.5 13.8 C 414.8 12.4 417.3 11.7 419.9 11.7 C 422 11.7 423.7 12.1 425.1 12.7 C 426.4 13.4 427.5 14.3 428.4 15.3 C 429.2 16.3 429.9 17.3 430.3 18.3 C 430.33 18.32 430.6 18.3 430.6 18.3 L 430.6 0 L 440.8 0 L 440.8 48.7 L 430.8 48.7 L 430.8 42.9 C 430.8 42.9 430.33 42.87 430.3 42.9 C 429.9 43.9 429.2 44.9 428.3 45.9 C 427.5 46.9 426.3 47.7 425 48.3 C 423.6 49 421.9 49.3 420 49.3 Z M 423.2 41.3 C 424.8 41.3 426.2 40.8 427.3 39.9 C 428.5 39 429.3 37.8 429.9 36.1 C 430.6 34.5 430.9 32.6 430.9 30.5 C 430.9 28.3 430.6 26.4 430 24.8 C 429.3 23.2 428.5 22 427.3 21.1 C 426.2 20.2 424.8 19.8 423.2 19.8 C 421.5 19.8 420.1 20.2 419 21.1 C 417.8 22 417 23.3 416.4 24.9 C 415.8 26.5 415.5 28.3 415.5 30.5 C 415.5 32.6 415.8 34.5 416.4 36.1 C 417 37.7 417.8 39 419 39.9 C 420.1 40.8 421.5 41.3 423.2 41.3 Z M 464.6 48.7 L 464.6 12.2 L 474.7 12.2 L 474.7 48.7 L 464.6 48.7 Z M 469.7 7.5 C 468.2 7.5 466.9 7 465.8 6 C 464.7 5 464.2 3.8 464.2 2.4 C 464.2 0.9 464.8 -0.3 465.8 -1.3 C 466.9 -2.3 468.2 -2.8 469.7 -2.8 C 471.2 -2.8 472.5 -2.3 473.6 -1.3 C 474.6 -0.3 475.2 0.9 475.2 2.3 C 475.2 3.7 474.6 5 473.6 6 C 472.5 7 471.2 7.5 469.7 7.5 Z M 492.4 27.6 C 492.35 27.6 492.4 48.7 492.4 48.7 L 482.2 48.7 L 482.2 12.2 L 491.9 12.2 L 491.9 18.6 C 491.9 18.6 492.3 18.63 492.3 18.6 C 493.1 16.5 494.5 14.8 496.4 13.6 C 498.3 12.3 500.6 11.7 503.3 11.7 C 505.8 11.7 508 12.3 509.9 13.4 C 511.8 14.5 513.3 16.1 514.3 18.1 C 515.4 20.2 515.9 22.6 515.9 25.5 C 515.9 25.46 515.9 48.7 515.9 48.7 L 505.8 48.7 C 505.8 48.7 505.77 27.27 505.8 27.3 C 505.8 25 505.2 23.3 504.1 22 C 502.9 20.8 501.3 20.1 499.3 20.1 C 497.9 20.1 496.7 20.4 495.7 21 C 494.6 21.6 493.8 22.4 493.2 23.6 C 492.7 24.7 492.4 26 492.4 27.6 Z M 541.7 12.2 L 541.7 19.8 L 519.7 19.8 L 519.7 12.2 L 541.7 12.2 Z M 524.7 3.4 L 534.8 3.4 C 534.8 3.4 534.85 37.5 534.8 37.5 C 534.8 38.4 535 39.2 535.3 39.7 C 535.6 40.2 536 40.6 536.5 40.8 C 537 41 537.6 41.1 538.3 41.1 C 538.8 41.1 539.2 41 539.7 40.9 C 540.2 40.8 540.5 40.8 540.8 40.7 C 540.8 40.7 542.4 48.3 542.4 48.3 C 541.9 48.4 541.2 48.6 540.3 48.8 C 539.3 49 538.2 49.2 536.9 49.2 C 534.5 49.3 532.3 49 530.5 48.3 C 528.7 47.5 527.2 46.3 526.2 44.8 C 525.2 43.2 524.7 41.2 524.7 38.8 C 524.71 38.83 524.7 3.4 524.7 3.4 Z M 562.8 49.4 C 559.1 49.4 555.8 48.7 553.1 47.1 C 550.4 45.6 548.3 43.4 546.9 40.6 C 545.4 37.8 544.7 34.5 544.7 30.6 C 544.7 26.9 545.4 23.6 546.9 20.7 C 548.3 17.9 550.4 15.7 553.1 14.1 C 555.7 12.5 558.8 11.7 562.4 11.7 C 564.8 11.7 567.1 12.1 569.2 12.9 C 571.2 13.6 573.1 14.8 574.6 16.3 C 576.2 17.9 577.4 19.8 578.3 22.1 C 579.2 24.4 579.6 27.2 579.6 30.3 C 579.59 30.26 579.6 33 579.6 33 L 548.7 33 L 548.7 26.8 C 548.7 26.8 570.05 26.77 570.1 26.8 C 570.1 25.3 569.7 24 569.1 22.9 C 568.5 21.8 567.6 20.9 566.5 20.2 C 565.4 19.6 564.1 19.3 562.6 19.3 C 561 19.3 559.7 19.6 558.5 20.3 C 557.3 21 556.4 22 555.7 23.2 C 555.1 24.3 554.7 25.7 554.7 27.1 C 554.7 27.1 554.7 33.1 554.7 33.1 C 554.7 34.9 555 36.4 555.7 37.8 C 556.4 39.1 557.3 40.1 558.6 40.8 C 559.8 41.5 561.3 41.9 563 41.9 C 564.1 41.9 565.1 41.7 566.1 41.4 C 567 41.1 567.8 40.6 568.5 40 C 569.1 39.3 569.7 38.6 570 37.6 C 570 37.6 579.4 38.3 579.4 38.3 C 578.9 40.5 577.9 42.5 576.5 44.1 C 575 45.8 573.1 47.1 570.8 48 C 568.5 49 565.8 49.4 562.8 49.4 Z M 595.8 0 L 595.8 48.7 L 585.6 48.7 L 585.6 0 L 595.8 0 Z M 613.4 0 L 613.4 48.7 L 603.2 48.7 L 603.2 0 L 613.4 0 Z M 620.8 48.7 L 620.8 12.2 L 631 12.2 L 631 48.7 L 620.8 48.7 Z M 625.9 7.5 C 624.4 7.5 623.1 7 622.1 6 C 621 5 620.5 3.8 620.5 2.4 C 620.5 0.9 621 -0.3 622.1 -1.3 C 623.2 -2.3 624.4 -2.8 625.9 -2.8 C 627.4 -2.8 628.7 -2.3 629.8 -1.3 C 630.9 -0.3 631.4 0.9 631.4 2.3 C 631.4 3.7 630.9 5 629.8 6 C 628.7 7 627.4 7.5 625.9 7.5 Z M 654.6 63.2 C 651.3 63.2 648.5 62.7 646.1 61.8 C 643.8 61 641.9 59.7 640.6 58.2 C 639.2 56.7 638.3 54.9 637.9 53 C 637.9 53 647.2 51.7 647.2 51.7 C 647.5 52.5 648 53.2 648.6 53.8 C 649.2 54.4 650 54.9 651.1 55.3 C 652.1 55.7 653.3 55.9 654.8 55.9 C 657 55.9 658.8 55.4 660.3 54.3 C 661.7 53.2 662.4 51.4 662.4 48.9 C 662.42 48.94 662.4 42.3 662.4 42.3 C 662.4 42.3 661.99 42.26 662 42.3 C 661.6 43.3 660.9 44.2 660 45.1 C 659.1 46 658 46.8 656.6 47.3 C 655.2 47.9 653.5 48.2 651.6 48.2 C 648.8 48.2 646.3 47.6 644.1 46.3 C 641.8 45 640.1 43.1 638.7 40.4 C 637.4 37.8 636.8 34.4 636.8 30.4 C 636.8 26.2 637.4 22.8 638.8 20 C 640.1 17.2 641.9 15.2 644.2 13.8 C 646.4 12.4 648.9 11.7 651.5 11.7 C 653.6 11.7 655.3 12.1 656.7 12.7 C 658.1 13.4 659.2 14.3 660 15.3 C 660.9 16.3 661.5 17.3 662 18.3 C 661.99 18.32 662.4 18.3 662.4 18.3 L 662.4 12.2 L 672.4 12.2 C 672.4 12.2 672.44 49.08 672.4 49.1 C 672.4 52.2 671.7 54.8 670.2 56.9 C 668.6 59 666.5 60.6 663.8 61.6 C 661.2 62.7 658.1 63.2 654.6 63.2 Z M 654.8 40.6 C 656.4 40.6 657.8 40.2 658.9 39.4 C 660.1 38.5 660.9 37.4 661.6 35.8 C 662.2 34.3 662.5 32.5 662.5 30.3 C 662.5 28.2 662.2 26.3 661.6 24.8 C 661 23.2 660.1 22 658.9 21.1 C 657.8 20.2 656.4 19.8 654.8 19.8 C 653.1 19.8 651.7 20.2 650.6 21.1 C 649.4 22 648.6 23.3 648 24.8 C 647.4 26.4 647.1 28.3 647.1 30.3 C 647.1 32.4 647.4 34.3 648 35.8 C 648.6 37.3 649.5 38.5 650.6 39.3 C 651.7 40.2 653.1 40.6 654.8 40.6 Z M 696.4 49.4 C 692.7 49.4 689.4 48.7 686.7 47.1 C 684 45.6 681.9 43.4 680.5 40.6 C 679 37.8 678.3 34.5 678.3 30.6 C 678.3 26.9 679 23.6 680.5 20.7 C 681.9 17.9 684 15.7 686.7 14.1 C 689.3 12.5 692.4 11.7 696 11.7 C 698.4 11.7 700.7 12.1 702.8 12.9 C 704.9 13.6 706.7 14.8 708.2 16.3 C 709.8 17.9 711 19.8 711.9 22.1 C 712.8 24.4 713.2 27.2 713.2 30.3 C 713.2 30.26 713.2 33 713.2 33 L 682.3 33 L 682.3 26.8 C 682.3 26.8 703.66 26.77 703.7 26.8 C 703.7 25.3 703.3 24 702.7 22.9 C 702.1 21.8 701.2 20.9 700.1 20.2 C 699 19.6 697.7 19.3 696.2 19.3 C 694.6 19.3 693.3 19.6 692.1 20.3 C 690.9 21 690 22 689.3 23.2 C 688.7 24.3 688.3 25.7 688.3 27.1 C 688.3 27.1 688.3 33.1 688.3 33.1 C 688.3 34.9 688.7 36.4 689.3 37.8 C 690 39.1 691 40.1 692.2 40.8 C 693.4 41.5 694.9 41.9 696.6 41.9 C 697.7 41.9 698.8 41.7 699.7 41.4 C 700.6 41.1 701.4 40.6 702.1 40 C 702.8 39.3 703.3 38.6 703.6 37.6 C 703.6 37.6 713 38.3 713 38.3 C 712.5 40.5 711.5 42.5 710.1 44.1 C 708.6 45.8 706.7 47.1 704.4 48 C 702.1 49 699.4 49.4 696.4 49.4 Z M 729.3 27.6 C 729.33 27.6 729.3 48.7 729.3 48.7 L 719.2 48.7 L 719.2 12.2 L 728.9 12.2 L 728.9 18.6 C 728.9 18.6 729.28 18.63 729.3 18.6 C 730.1 16.5 731.4 14.8 733.3 13.6 C 735.3 12.3 737.6 11.7 740.3 11.7 C 742.8 11.7 745 12.3 746.9 13.4 C 748.8 14.5 750.3 16.1 751.3 18.1 C 752.4 20.2 752.9 22.6 752.9 25.5 C 752.88 25.46 752.9 48.7 752.9 48.7 L 742.7 48.7 C 742.7 48.7 742.75 27.27 742.7 27.3 C 742.8 25 742.2 23.3 741 22 C 739.9 20.8 738.3 20.1 736.3 20.1 C 734.9 20.1 733.7 20.4 732.6 21 C 731.6 21.6 730.8 22.4 730.2 23.6 C 729.6 24.7 729.3 26 729.3 27.6 Z M 776.4 49.4 C 772.7 49.4 769.5 48.6 766.8 47 C 764.1 45.5 762 43.2 760.6 40.4 C 759.2 37.6 758.5 34.3 758.5 30.6 C 758.5 26.9 759.2 23.6 760.6 20.7 C 762.1 17.9 764.2 15.7 766.8 14.1 C 769.5 12.5 772.7 11.7 776.4 11.7 C 779.6 11.7 782.4 12.3 784.8 13.4 C 787.2 14.6 789.1 16.2 790.5 18.3 C 791.9 20.4 792.6 22.9 792.8 25.7 C 792.8 25.7 783.2 25.7 783.2 25.7 C 782.9 23.9 782.2 22.4 781.1 21.3 C 779.9 20.2 778.4 19.6 776.6 19.6 C 775 19.6 773.6 20 772.5 20.9 C 771.3 21.7 770.4 23 769.7 24.6 C 769.1 26.2 768.8 28.2 768.8 30.5 C 768.8 32.8 769.1 34.8 769.7 36.4 C 770.4 38 771.3 39.3 772.4 40.1 C 773.6 41 775 41.4 776.6 41.4 C 777.7 41.4 778.8 41.2 779.7 40.7 C 780.6 40.2 781.4 39.5 782 38.6 C 782.6 37.7 783 36.6 783.2 35.3 C 783.2 35.3 792.8 35.3 792.8 35.3 C 792.6 38.1 791.9 40.6 790.5 42.7 C 789.1 44.8 787.3 46.5 784.9 47.7 C 782.5 48.8 779.7 49.4 776.4 49.4 Z M 814.7 49.4 C 811 49.4 807.7 48.7 805 47.1 C 802.3 45.6 800.3 43.4 798.8 40.6 C 797.3 37.8 796.6 34.5 796.6 30.6 C 796.6 26.9 797.3 23.6 798.8 20.7 C 800.3 17.9 802.3 15.7 805 14.1 C 807.6 12.5 810.7 11.7 814.3 11.7 C 816.7 11.7 819 12.1 821.1 12.9 C 823.2 13.6 825 14.8 826.5 16.3 C 828.1 17.9 829.3 19.8 830.2 22.1 C 831.1 24.4 831.5 27.2 831.5 30.3 C 831.51 30.26 831.5 33 831.5 33 L 800.7 33 L 800.7 26.8 C 800.7 26.8 821.97 26.77 822 26.8 C 822 25.3 821.7 24 821 22.9 C 820.4 21.8 819.5 20.9 818.4 20.2 C 817.3 19.6 816 19.3 814.5 19.3 C 813 19.3 811.6 19.6 810.4 20.3 C 809.2 21 808.3 22 807.6 23.2 C 807 24.3 806.6 25.7 806.6 27.1 C 806.6 27.1 806.6 33.1 806.6 33.1 C 806.6 34.9 807 36.4 807.6 37.8 C 808.3 39.1 809.3 40.1 810.5 40.8 C 811.7 41.5 813.2 41.9 814.9 41.9 C 816 41.9 817.1 41.7 818 41.4 C 818.9 41.1 819.7 40.6 820.4 40 C 821.1 39.3 821.6 38.6 821.9 37.6 C 821.9 37.6 831.3 38.3 831.3 38.3 C 830.8 40.5 829.8 42.5 828.4 44.1 C 826.9 45.8 825 47.1 822.7 48 C 820.4 49 817.7 49.4 814.7 49.4 Z " stroke="none" fill="#10283d"/>  </g></svg>