<?xml version="1.0" standalone="no"?><!DOCTYPE svg PUBLIC "-//W3C//DTD SVG 1.1//EN" "http://www.w3.org/Graphics/SVG/1.1/DTD/svg11.dtd"><svg xmlns="http://www.w3.org/2000/svg" version="1.1" width="894.3px" height="113.2px" viewBox="0 -25 894.3 113.2" style="top:-25px">  <desc>Difficult to use</desc>  <defs/>  <g id="Polygon120683">    <path d="M 21.5 48.7 C 21.51 48.73 4.2 48.7 4.2 48.7 L 4.2 0 C 4.2 0 21.65 0 21.7 0 C 26.6 0 30.8 1 34.3 2.9 C 37.8 4.9 40.6 7.6 42.5 11.3 C 44.4 14.9 45.3 19.3 45.3 24.3 C 45.3 29.4 44.4 33.8 42.5 37.4 C 40.6 41.1 37.8 43.8 34.3 45.8 C 30.7 47.8 26.5 48.7 21.5 48.7 Z M 14.5 39.9 C 14.5 39.9 21.08 39.9 21.1 39.9 C 24.1 39.9 26.7 39.4 28.8 38.3 C 30.9 37.2 32.4 35.5 33.5 33.2 C 34.5 30.9 35.1 27.9 35.1 24.3 C 35.1 20.7 34.5 17.8 33.5 15.5 C 32.4 13.2 30.9 11.5 28.8 10.4 C 26.7 9.4 24.1 8.8 21.1 8.8 C 21.1 8.83 14.5 8.8 14.5 8.8 L 14.5 39.9 Z M 52.1 48.7 L 52.1 12.2 L 62.2 12.2 L 62.2 48.7 L 52.1 48.7 Z M 57.2 7.5 C 55.7 7.5 54.4 7 53.3 6 C 52.3 5 51.7 3.8 51.7 2.4 C 51.7 0.9 52.3 -0.3 53.3 -1.3 C 54.4 -2.3 55.7 -2.8 57.2 -2.8 C 58.7 -2.8 60 -2.3 61.1 -1.3 C 62.1 -0.3 62.7 0.9 62.7 2.3 C 62.7 3.7 62.1 5 61.1 6 C 60 7 58.7 7.5 57.2 7.5 Z M 89.1 12.2 L 89.1 19.8 L 66.5 19.8 L 66.5 12.2 L 89.1 12.2 Z M 71.7 48.7 C 71.7 48.7 71.68 9.54 71.7 9.5 C 71.7 6.9 72.2 4.7 73.2 3 C 74.3 1.2 75.7 -0.1 77.5 -1 C 79.3 -1.8 81.4 -2.3 83.7 -2.3 C 85.2 -2.3 86.7 -2.2 87.9 -1.9 C 89.2 -1.7 90.2 -1.5 90.8 -1.3 C 90.8 -1.3 89 6.3 89 6.3 C 88.6 6.2 88.1 6.1 87.6 6 C 87 5.9 86.4 5.8 85.8 5.8 C 84.3 5.8 83.3 6.2 82.7 6.8 C 82.1 7.5 81.8 8.5 81.8 9.7 C 81.79 9.73 81.8 48.7 81.8 48.7 L 71.7 48.7 Z M 114.8 12.2 L 114.8 19.8 L 92.2 19.8 L 92.2 12.2 L 114.8 12.2 Z M 97.4 48.7 C 97.4 48.7 97.4 9.54 97.4 9.5 C 97.4 6.9 97.9 4.7 99 3 C 100 1.2 101.4 -0.1 103.2 -1 C 105 -1.8 107.1 -2.3 109.4 -2.3 C 110.9 -2.3 112.4 -2.2 113.7 -1.9 C 115 -1.7 115.9 -1.5 116.6 -1.3 C 116.6 -1.3 114.7 6.3 114.7 6.3 C 114.3 6.2 113.9 6.1 113.3 6 C 112.7 5.9 112.1 5.8 111.5 5.8 C 110 5.8 109 6.2 108.4 6.8 C 107.8 7.5 107.5 8.5 107.5 9.7 C 107.51 9.73 107.5 48.7 107.5 48.7 L 97.4 48.7 Z M 120.3 48.7 L 120.3 12.2 L 130.4 12.2 L 130.4 48.7 L 120.3 48.7 Z M 125.4 7.5 C 123.9 7.5 122.6 7 121.5 6 C 120.4 5 119.9 3.8 119.9 2.4 C 119.9 0.9 120.4 -0.3 121.5 -1.3 C 122.6 -2.3 123.9 -2.8 125.4 -2.8 C 126.9 -2.8 128.2 -2.3 129.2 -1.3 C 130.3 -0.3 130.8 0.9 130.8 2.3 C 130.8 3.7 130.3 5 129.2 6 C 128.2 7 126.9 7.5 125.4 7.5 Z M 154.1 49.4 C 150.4 49.4 147.2 48.6 144.5 47 C 141.8 45.5 139.7 43.2 138.3 40.4 C 136.9 37.6 136.1 34.3 136.1 30.6 C 136.1 26.9 136.9 23.6 138.3 20.7 C 139.8 17.9 141.8 15.7 144.5 14.1 C 147.2 12.5 150.4 11.7 154.1 11.7 C 157.3 11.7 160.1 12.3 162.5 13.4 C 164.8 14.6 166.7 16.2 168.1 18.3 C 169.5 20.4 170.3 22.9 170.4 25.7 C 170.4 25.7 160.9 25.7 160.9 25.7 C 160.6 23.9 159.9 22.4 158.8 21.3 C 157.6 20.2 156.1 19.6 154.2 19.6 C 152.7 19.6 151.3 20 150.1 20.9 C 149 21.7 148.1 23 147.4 24.6 C 146.8 26.2 146.4 28.2 146.4 30.5 C 146.4 32.8 146.8 34.8 147.4 36.4 C 148 38 149 39.3 150.1 40.1 C 151.3 41 152.7 41.4 154.2 41.4 C 155.4 41.4 156.4 41.2 157.4 40.7 C 158.3 40.2 159.1 39.5 159.7 38.6 C 160.3 37.7 160.7 36.6 160.9 35.3 C 160.9 35.3 170.4 35.3 170.4 35.3 C 170.3 38.1 169.5 40.6 168.2 42.7 C 166.8 44.8 165 46.5 162.6 47.7 C 160.2 48.8 157.4 49.4 154.1 49.4 Z M 199.3 33.2 C 199.32 33.17 199.3 12.2 199.3 12.2 L 209.5 12.2 L 209.5 48.7 L 199.7 48.7 L 199.7 42.1 C 199.7 42.1 199.35 42.09 199.3 42.1 C 198.5 44.2 197.2 46 195.2 47.3 C 193.3 48.6 191 49.2 188.3 49.2 C 185.8 49.2 183.7 48.6 181.8 47.5 C 180 46.4 178.5 44.8 177.5 42.8 C 176.4 40.8 175.9 38.3 175.9 35.5 C 175.89 35.45 175.9 12.2 175.9 12.2 L 186 12.2 C 186 12.2 186.02 33.64 186 33.6 C 186 35.8 186.6 37.5 187.8 38.8 C 188.9 40 190.4 40.6 192.4 40.6 C 193.6 40.6 194.7 40.4 195.8 39.8 C 196.8 39.2 197.7 38.4 198.4 37.3 C 199 36.2 199.3 34.8 199.3 33.2 Z M 227.1 0 L 227.1 48.7 L 216.9 48.7 L 216.9 0 L 227.1 0 Z M 253.7 12.2 L 253.7 19.8 L 231.7 19.8 L 231.7 12.2 L 253.7 12.2 Z M 236.7 3.4 L 246.8 3.4 C 246.8 3.4 246.83 37.5 246.8 37.5 C 246.8 38.4 247 39.2 247.3 39.7 C 247.5 40.2 247.9 40.6 248.5 40.8 C 249 41 249.6 41.1 250.3 41.1 C 250.7 41.1 251.2 41 251.7 40.9 C 252.2 40.8 252.5 40.8 252.8 40.7 C 252.8 40.7 254.4 48.3 254.4 48.3 C 253.9 48.4 253.2 48.6 252.2 48.8 C 251.3 49 250.2 49.2 248.9 49.2 C 246.4 49.3 244.3 49 242.5 48.3 C 240.6 47.5 239.2 46.3 238.2 44.8 C 237.2 43.2 236.7 41.2 236.7 38.8 C 236.7 38.83 236.7 3.4 236.7 3.4 Z M 295.3 12.2 L 295.3 19.8 L 273.3 19.8 L 273.3 12.2 L 295.3 12.2 Z M 278.3 3.4 L 288.4 3.4 C 288.4 3.4 288.4 37.5 288.4 37.5 C 288.4 38.4 288.5 39.2 288.8 39.7 C 289.1 40.2 289.5 40.6 290 40.8 C 290.5 41 291.1 41.1 291.8 41.1 C 292.3 41.1 292.8 41 293.3 40.9 C 293.7 40.8 294.1 40.8 294.3 40.7 C 294.3 40.7 295.9 48.3 295.9 48.3 C 295.4 48.4 294.7 48.6 293.8 48.8 C 292.9 49 291.8 49.2 290.4 49.2 C 288 49.3 285.9 49 284 48.3 C 282.2 47.5 280.8 46.3 279.8 44.8 C 278.7 43.2 278.2 41.2 278.3 38.8 C 278.26 38.83 278.3 3.4 278.3 3.4 Z M 316.2 49.4 C 312.5 49.4 309.3 48.7 306.7 47.1 C 304 45.5 301.9 43.3 300.4 40.5 C 299 37.6 298.2 34.3 298.2 30.6 C 298.2 26.8 299 23.5 300.4 20.7 C 301.9 17.9 304 15.7 306.7 14.1 C 309.3 12.5 312.5 11.7 316.2 11.7 C 319.9 11.7 323.1 12.5 325.8 14.1 C 328.5 15.7 330.6 17.9 332 20.7 C 333.5 23.5 334.2 26.8 334.2 30.6 C 334.2 34.3 333.5 37.6 332 40.5 C 330.6 43.3 328.5 45.5 325.8 47.1 C 323.1 48.7 319.9 49.4 316.2 49.4 Z M 316.3 41.6 C 318 41.6 319.4 41.1 320.5 40.2 C 321.6 39.2 322.5 37.9 323 36.2 C 323.6 34.5 323.9 32.7 323.9 30.5 C 323.9 28.4 323.6 26.5 323 24.8 C 322.5 23.2 321.6 21.9 320.5 20.9 C 319.4 19.9 318 19.4 316.3 19.4 C 314.6 19.4 313.2 19.9 312 20.9 C 310.9 21.9 310 23.2 309.4 24.8 C 308.8 26.5 308.5 28.4 308.5 30.5 C 308.5 32.7 308.8 34.5 309.4 36.2 C 310 37.9 310.9 39.2 312 40.2 C 313.2 41.1 314.6 41.6 316.3 41.6 Z M 379.8 33.2 C 379.8 33.17 379.8 12.2 379.8 12.2 L 389.9 12.2 L 389.9 48.7 L 380.2 48.7 L 380.2 42.1 C 380.2 42.1 379.82 42.09 379.8 42.1 C 379 44.2 377.6 46 375.7 47.3 C 373.8 48.6 371.5 49.2 368.7 49.2 C 366.3 49.2 364.1 48.6 362.3 47.5 C 360.4 46.4 359 44.8 357.9 42.8 C 356.9 40.8 356.4 38.3 356.4 35.5 C 356.37 35.45 356.4 12.2 356.4 12.2 L 366.5 12.2 C 366.5 12.2 366.5 33.64 366.5 33.6 C 366.5 35.8 367.1 37.5 368.2 38.8 C 369.4 40 370.9 40.6 372.8 40.6 C 374.1 40.6 375.2 40.4 376.3 39.8 C 377.3 39.2 378.2 38.4 378.8 37.3 C 379.5 36.2 379.8 34.8 379.8 33.2 Z M 427.5 22.6 C 427.5 22.6 418.2 23.2 418.2 23.2 C 418.1 22.4 417.7 21.7 417.2 21 C 416.7 20.4 416 19.9 415.2 19.5 C 414.3 19.1 413.3 18.9 412.1 18.9 C 410.6 18.9 409.2 19.2 408.1 19.9 C 407.1 20.5 406.5 21.4 406.5 22.5 C 406.5 23.4 406.9 24.1 407.6 24.7 C 408.3 25.3 409.5 25.8 411.2 26.2 C 411.2 26.2 417.8 27.5 417.8 27.5 C 421.3 28.2 424 29.4 425.7 31 C 427.5 32.6 428.3 34.8 428.3 37.4 C 428.3 39.8 427.6 41.9 426.2 43.7 C 424.8 45.5 422.9 46.9 420.5 47.9 C 418 48.9 415.2 49.4 412.1 49.4 C 407.2 49.4 403.4 48.4 400.5 46.4 C 397.7 44.4 396 41.6 395.5 38.1 C 395.5 38.1 405.5 37.6 405.5 37.6 C 405.8 39.1 406.5 40.2 407.6 41 C 408.8 41.8 410.3 42.1 412.1 42.1 C 413.9 42.1 415.3 41.8 416.4 41.1 C 417.5 40.4 418 39.5 418 38.4 C 418 37.5 417.6 36.7 416.9 36.2 C 416.1 35.6 414.9 35.1 413.4 34.8 C 413.4 34.8 407 33.5 407 33.5 C 403.5 32.8 400.8 31.6 399.1 29.8 C 397.3 28.1 396.5 25.8 396.5 23.1 C 396.5 20.7 397.1 18.7 398.4 17 C 399.7 15.3 401.5 14 403.8 13.1 C 406.1 12.2 408.8 11.7 412 11.7 C 416.6 11.7 420.2 12.7 422.9 14.6 C 425.5 16.6 427.1 19.2 427.5 22.6 Z M 450.2 49.4 C 446.5 49.4 443.2 48.7 440.5 47.1 C 437.8 45.6 435.7 43.4 434.3 40.6 C 432.8 37.8 432.1 34.5 432.1 30.6 C 432.1 26.9 432.8 23.6 434.3 20.7 C 435.7 17.9 437.8 15.7 440.5 14.1 C 443.1 12.5 446.2 11.7 449.8 11.7 C 452.2 11.7 454.5 12.1 456.6 12.9 C 458.6 13.6 460.5 14.8 462 16.3 C 463.6 17.9 464.8 19.8 465.7 22.1 C 466.6 24.4 467 27.2 467 30.3 C 467 30.26 467 33 467 33 L 436.1 33 L 436.1 26.8 C 436.1 26.8 457.46 26.77 457.5 26.8 C 457.5 25.3 457.1 24 456.5 22.9 C 455.9 21.8 455 20.9 453.9 20.2 C 452.8 19.6 451.5 19.3 450 19.3 C 448.4 19.3 447.1 19.6 445.9 20.3 C 444.7 21 443.8 22 443.1 23.2 C 442.5 24.3 442.1 25.7 442.1 27.1 C 442.1 27.1 442.1 33.1 442.1 33.1 C 442.1 34.9 442.4 36.4 443.1 37.8 C 443.8 39.1 444.8 40.1 446 40.8 C 447.2 41.5 448.7 41.9 450.4 41.9 C 451.5 41.9 452.5 41.7 453.5 41.4 C 454.4 41.1 455.2 40.6 455.9 40 C 456.6 39.3 457.1 38.6 457.4 37.6 C 457.4 37.6 466.8 38.3 466.8 38.3 C 466.3 40.5 465.3 42.5 463.9 44.1 C 462.4 45.8 460.5 47.1 458.2 48 C 455.9 49 453.2 49.4 450.2 49.4 Z " stroke="none" fill="#10283d"/>  </g></svg>