<?xml version="1.0" standalone="no"?><!DOCTYPE svg PUBLIC "-//W3C//DTD SVG 1.1//EN" "http://www.w3.org/Graphics/SVG/1.1/DTD/svg11.dtd"><svg xmlns="http://www.w3.org/2000/svg" version="1.1" width="300px" height="159.7px" viewBox="0 -16 300 159.7" style="top:-16px">  <desc>The problem with overhyped AI</desc>  <defs/>  <g id="Polygon111913">    <path d="M 7.5 121.1 L 1 121.1 L 11 92 L 18.9 92 L 28.9 121.1 L 22.4 121.1 L 15.1 98.6 L 14.8 98.6 L 7.5 121.1 Z M 7.1 109.7 L 22.7 109.7 L 22.7 114.5 L 7.1 114.5 L 7.1 109.7 Z M 38.5 92 L 38.5 121.1 L 32.3 121.1 L 32.3 92 L 38.5 92 Z " stroke="none" fill="#10283d"/>  </g>  <g id="Polygon111912">    <path d="M 6.7 75.1 L 0.8 53.3 L 6.9 53.3 L 10.3 67.9 L 10.5 67.9 L 14 53.3 L 20 53.3 L 23.6 67.8 L 23.8 67.8 L 27.1 53.3 L 33.2 53.3 L 27.3 75.1 L 20.9 75.1 L 17.1 61.4 L 16.9 61.4 L 13.1 75.1 L 6.7 75.1 Z M 36 75.1 L 36 53.3 L 42.1 53.3 L 42.1 75.1 L 36 75.1 Z M 39 50.5 C 38.1 50.5 37.4 50.2 36.7 49.6 C 36.1 49 35.8 48.2 35.8 47.4 C 35.8 46.6 36.1 45.8 36.7 45.2 C 37.4 44.6 38.2 44.3 39 44.3 C 39.9 44.3 40.7 44.6 41.4 45.2 C 42 45.8 42.3 46.5 42.3 47.4 C 42.3 48.2 42 49 41.4 49.6 C 40.7 50.2 39.9 50.5 39 50.5 Z M 58.1 53.3 L 58.1 57.8 L 44.9 57.8 L 44.9 53.3 L 58.1 53.3 Z M 47.9 48 L 53.9 48 C 53.9 48 53.95 68.39 53.9 68.4 C 53.9 68.9 54 69.4 54.2 69.7 C 54.4 70 54.6 70.2 54.9 70.3 C 55.2 70.5 55.6 70.5 56 70.5 C 56.3 70.5 56.6 70.5 56.8 70.4 C 57.1 70.4 57.3 70.3 57.5 70.3 C 57.5 70.3 58.5 74.8 58.5 74.8 C 58.1 74.9 57.7 75 57.2 75.2 C 56.6 75.3 56 75.4 55.2 75.4 C 53.7 75.4 52.4 75.3 51.3 74.8 C 50.2 74.4 49.4 73.7 48.8 72.7 C 48.2 71.8 47.9 70.6 47.9 69.2 C 47.9 69.18 47.9 48 47.9 48 Z M 67.7 62.5 C 67.73 62.48 67.7 75.1 67.7 75.1 L 61.7 75.1 L 61.7 46 L 67.6 46 L 67.6 57.1 C 67.6 57.1 67.82 57.12 67.8 57.1 C 68.3 55.8 69.1 54.8 70.2 54.1 C 71.3 53.4 72.7 53 74.3 53 C 75.9 53 77.2 53.3 78.3 54 C 79.4 54.6 80.3 55.6 80.9 56.8 C 81.6 58 81.9 59.5 81.9 61.2 C 81.88 61.2 81.9 75.1 81.9 75.1 L 75.8 75.1 C 75.8 75.1 75.83 62.28 75.8 62.3 C 75.8 60.9 75.5 59.9 74.8 59.1 C 74.1 58.4 73.2 58 71.9 58 C 71.1 58 70.4 58.2 69.8 58.5 C 69.1 58.9 68.6 59.4 68.3 60.1 C 67.9 60.7 67.7 61.5 67.7 62.5 Z M 105.8 75.5 C 103.6 75.5 101.7 75 100.1 74.1 C 98.5 73.2 97.2 71.8 96.4 70.2 C 95.5 68.5 95 66.5 95 64.3 C 95 62 95.5 60 96.4 58.4 C 97.2 56.7 98.5 55.3 100.1 54.4 C 101.7 53.5 103.6 53 105.8 53 C 108 53 109.9 53.5 111.5 54.4 C 113.1 55.3 114.3 56.7 115.2 58.4 C 116.1 60 116.5 62 116.5 64.3 C 116.5 66.5 116.1 68.5 115.2 70.2 C 114.3 71.8 113.1 73.2 111.5 74.1 C 109.9 75 108 75.5 105.8 75.5 Z M 105.8 70.8 C 106.8 70.8 107.7 70.5 108.3 70 C 109 69.4 109.5 68.6 109.9 67.6 C 110.2 66.6 110.4 65.5 110.4 64.2 C 110.4 63 110.2 61.8 109.9 60.8 C 109.5 59.8 109 59 108.3 58.5 C 107.7 57.9 106.8 57.6 105.8 57.6 C 104.8 57.6 103.9 57.9 103.3 58.5 C 102.6 59 102.1 59.8 101.7 60.8 C 101.4 61.8 101.2 63 101.2 64.2 C 101.2 65.5 101.4 66.6 101.7 67.6 C 102.1 68.6 102.6 69.4 103.3 70 C 103.9 70.5 104.8 70.8 105.8 70.8 Z M 139.5 53.3 L 131.9 75.1 L 125.1 75.1 L 117.5 53.3 L 123.9 53.3 L 128.4 68.9 L 128.6 68.9 L 133.1 53.3 L 139.5 53.3 Z M 151.3 75.5 C 149.1 75.5 147.1 75.1 145.5 74.1 C 143.9 73.2 142.7 71.9 141.8 70.3 C 140.9 68.6 140.5 66.6 140.5 64.3 C 140.5 62 140.9 60.1 141.8 58.4 C 142.7 56.7 143.9 55.4 145.5 54.4 C 147.1 53.5 148.9 53 151.1 53 C 152.5 53 153.9 53.2 155.1 53.7 C 156.3 54.1 157.4 54.8 158.4 55.7 C 159.3 56.7 160 57.8 160.5 59.2 C 161.1 60.6 161.3 62.2 161.3 64.1 C 161.33 64.07 161.3 65.7 161.3 65.7 L 142.9 65.7 L 142.9 62 C 142.9 62 155.63 61.98 155.6 62 C 155.6 61.1 155.4 60.3 155.1 59.7 C 154.7 59 154.2 58.5 153.5 58.1 C 152.8 57.7 152.1 57.5 151.2 57.5 C 150.3 57.5 149.4 57.7 148.7 58.1 C 148 58.6 147.5 59.1 147.1 59.8 C 146.7 60.5 146.5 61.3 146.5 62.2 C 146.5 62.2 146.5 65.7 146.5 65.7 C 146.5 66.8 146.7 67.8 147.1 68.5 C 147.5 69.3 148 69.9 148.8 70.4 C 149.5 70.8 150.4 71 151.4 71 C 152.1 71 152.7 70.9 153.3 70.7 C 153.8 70.5 154.3 70.2 154.7 69.9 C 155.1 69.5 155.4 69 155.6 68.5 C 155.6 68.5 161.2 68.8 161.2 68.8 C 160.9 70.2 160.3 71.4 159.5 72.4 C 158.6 73.4 157.5 74.1 156.1 74.7 C 154.7 75.2 153.1 75.5 151.3 75.5 Z M 165.2 75.1 L 165.2 53.3 L 171.1 53.3 L 171.1 57.1 C 171.1 57.1 171.3 57.08 171.3 57.1 C 171.7 55.7 172.4 54.7 173.3 54 C 174.2 53.3 175.3 53 176.5 53 C 176.8 53 177.2 53 177.5 53 C 177.9 53.1 178.2 53.1 178.4 53.2 C 178.4 53.2 178.4 58.5 178.4 58.5 C 178.2 58.5 177.8 58.4 177.3 58.3 C 176.8 58.2 176.3 58.2 175.9 58.2 C 175 58.2 174.2 58.4 173.5 58.8 C 172.8 59.2 172.3 59.7 171.9 60.4 C 171.5 61.1 171.3 61.9 171.3 62.7 C 171.25 62.75 171.3 75.1 171.3 75.1 L 165.2 75.1 Z M 187.2 62.5 C 187.24 62.48 187.2 75.1 187.2 75.1 L 181.2 75.1 L 181.2 46 L 187.1 46 L 187.1 57.1 C 187.1 57.1 187.32 57.12 187.3 57.1 C 187.8 55.8 188.6 54.8 189.7 54.1 C 190.8 53.4 192.2 53 193.8 53 C 195.4 53 196.7 53.3 197.8 54 C 198.9 54.6 199.8 55.6 200.5 56.8 C 201.1 58 201.4 59.5 201.4 61.2 C 201.38 61.2 201.4 75.1 201.4 75.1 L 195.3 75.1 C 195.3 75.1 195.33 62.28 195.3 62.3 C 195.3 60.9 195 59.9 194.3 59.1 C 193.6 58.4 192.7 58 191.4 58 C 190.6 58 189.9 58.2 189.3 58.5 C 188.6 58.9 188.1 59.4 187.8 60.1 C 187.4 60.7 187.2 61.5 187.2 62.5 Z M 208.7 83.3 C 208 83.3 207.3 83.2 206.6 83.1 C 205.9 83 205.4 82.8 204.9 82.6 C 204.9 82.6 206.3 78.1 206.3 78.1 C 207 78.3 207.7 78.5 208.2 78.5 C 208.8 78.5 209.3 78.4 209.7 78.1 C 210.1 77.8 210.5 77.3 210.8 76.6 C 210.75 76.64 211.1 75.7 211.1 75.7 L 203.3 53.3 L 209.6 53.3 L 214.2 69.3 L 214.4 69.3 L 218.9 53.3 L 225.4 53.3 C 225.4 53.3 216.87 77.45 216.9 77.4 C 216.5 78.6 215.9 79.6 215.2 80.5 C 214.5 81.4 213.6 82.1 212.6 82.6 C 211.5 83 210.2 83.3 208.7 83.3 Z M 228.1 83.3 L 228.1 53.3 L 234 53.3 L 234 56.9 C 234 56.9 234.31 56.94 234.3 56.9 C 234.6 56.4 235 55.8 235.5 55.1 C 236 54.5 236.6 54 237.5 53.6 C 238.3 53.2 239.3 53 240.5 53 C 242.1 53 243.6 53.4 244.9 54.2 C 246.3 55.1 247.3 56.3 248.1 58 C 249 59.6 249.4 61.7 249.4 64.2 C 249.4 66.6 249 68.7 248.2 70.4 C 247.4 72 246.3 73.3 245 74.2 C 243.7 75 242.2 75.4 240.5 75.4 C 239.3 75.4 238.3 75.3 237.5 74.9 C 236.7 74.5 236 74 235.5 73.4 C 235 72.8 234.6 72.2 234.3 71.6 C 234.31 71.6 234.1 71.6 234.1 71.6 L 234.1 83.3 L 228.1 83.3 Z M 234 64.2 C 234 65.5 234.2 66.6 234.5 67.6 C 234.9 68.5 235.4 69.3 236.1 69.8 C 236.8 70.4 237.6 70.6 238.6 70.6 C 239.6 70.6 240.4 70.4 241.1 69.8 C 241.8 69.3 242.3 68.5 242.6 67.5 C 243 66.6 243.2 65.5 243.2 64.2 C 243.2 62.9 243 61.8 242.7 60.9 C 242.3 59.9 241.8 59.2 241.1 58.6 C 240.4 58.1 239.6 57.8 238.6 57.8 C 237.6 57.8 236.8 58.1 236.1 58.6 C 235.4 59.1 234.9 59.8 234.5 60.8 C 234.2 61.8 234 62.9 234 64.2 Z M 263 75.5 C 260.8 75.5 258.9 75.1 257.2 74.1 C 255.6 73.2 254.4 71.9 253.5 70.3 C 252.6 68.6 252.2 66.6 252.2 64.3 C 252.2 62 252.6 60.1 253.5 58.4 C 254.4 56.7 255.6 55.4 257.2 54.4 C 258.8 53.5 260.7 53 262.8 53 C 264.2 53 265.6 53.2 266.8 53.7 C 268.1 54.1 269.2 54.8 270.1 55.7 C 271 56.7 271.7 57.8 272.3 59.2 C 272.8 60.6 273 62.2 273 64.1 C 273.05 64.07 273 65.7 273 65.7 L 254.6 65.7 L 254.6 62 C 254.6 62 267.35 61.98 267.4 62 C 267.4 61.1 267.2 60.3 266.8 59.7 C 266.4 59 265.9 58.5 265.2 58.1 C 264.5 57.7 263.8 57.5 262.9 57.5 C 262 57.5 261.2 57.7 260.5 58.1 C 259.8 58.6 259.2 59.1 258.8 59.8 C 258.4 60.5 258.2 61.3 258.2 62.2 C 258.2 62.2 258.2 65.7 258.2 65.7 C 258.2 66.8 258.4 67.8 258.8 68.5 C 259.2 69.3 259.8 69.9 260.5 70.4 C 261.2 70.8 262.1 71 263.1 71 C 263.8 71 264.4 70.9 265 70.7 C 265.5 70.5 266 70.2 266.4 69.9 C 266.8 69.5 267.1 69 267.3 68.5 C 267.3 68.5 272.9 68.8 272.9 68.8 C 272.6 70.2 272.1 71.4 271.2 72.4 C 270.3 73.4 269.2 74.1 267.8 74.7 C 266.4 75.2 264.8 75.5 263 75.5 Z M 284.8 75.4 C 283.2 75.4 281.7 75 280.3 74.2 C 279 73.3 277.9 72 277.2 70.4 C 276.4 68.7 276 66.6 276 64.2 C 276 61.7 276.4 59.6 277.2 58 C 278 56.3 279.1 55.1 280.4 54.2 C 281.8 53.4 283.2 53 284.8 53 C 286 53 287.1 53.2 287.9 53.6 C 288.7 54 289.4 54.5 289.9 55.1 C 290.4 55.8 290.8 56.4 291 56.9 C 291.03 56.94 291.2 56.9 291.2 56.9 L 291.2 46 L 297.3 46 L 297.3 75.1 L 291.3 75.1 L 291.3 71.6 C 291.3 71.6 291.03 71.6 291 71.6 C 290.8 72.2 290.3 72.8 289.8 73.4 C 289.3 74 288.7 74.5 287.8 74.9 C 287 75.3 286 75.4 284.8 75.4 Z M 286.8 70.6 C 287.7 70.6 288.6 70.4 289.2 69.8 C 289.9 69.3 290.4 68.5 290.8 67.6 C 291.2 66.6 291.3 65.5 291.3 64.2 C 291.3 62.9 291.2 61.8 290.8 60.8 C 290.4 59.8 289.9 59.1 289.2 58.6 C 288.6 58.1 287.7 57.8 286.8 57.8 C 285.8 57.8 284.9 58.1 284.2 58.6 C 283.6 59.2 283 59.9 282.7 60.9 C 282.3 61.8 282.2 62.9 282.2 64.2 C 282.2 65.5 282.3 66.6 282.7 67.5 C 283.1 68.5 283.6 69.3 284.3 69.8 C 284.9 70.4 285.8 70.6 286.8 70.6 Z " stroke="none" fill="#10283d"/>  </g>  <g id="Polygon111911">    <path d="M 1.4 5.1 L 1.4 0 L 25.3 0 L 25.3 5.1 L 16.4 5.1 L 16.4 29.1 L 10.3 29.1 L 10.3 5.1 L 1.4 5.1 Z M 34.7 16.5 C 34.67 16.48 34.7 29.1 34.7 29.1 L 28.6 29.1 L 28.6 0 L 34.5 0 L 34.5 11.1 C 34.5 11.1 34.76 11.12 34.8 11.1 C 35.2 9.8 36 8.8 37.1 8.1 C 38.2 7.4 39.6 7 41.3 7 C 42.8 7 44.1 7.3 45.2 8 C 46.4 8.6 47.3 9.6 47.9 10.8 C 48.5 12 48.8 13.5 48.8 15.2 C 48.82 15.2 48.8 29.1 48.8 29.1 L 42.8 29.1 C 42.8 29.1 42.77 16.28 42.8 16.3 C 42.8 14.9 42.4 13.9 41.8 13.1 C 41.1 12.4 40.1 12 38.9 12 C 38.1 12 37.3 12.2 36.7 12.5 C 36.1 12.9 35.6 13.4 35.2 14.1 C 34.9 14.7 34.7 15.5 34.7 16.5 Z M 63.3 29.5 C 61 29.5 59.1 29.1 57.5 28.1 C 55.9 27.2 54.6 25.9 53.8 24.3 C 52.9 22.6 52.5 20.6 52.5 18.3 C 52.5 16 52.9 14.1 53.8 12.4 C 54.6 10.7 55.9 9.4 57.5 8.4 C 59 7.5 60.9 7 63 7 C 64.5 7 65.8 7.2 67.1 7.7 C 68.3 8.1 69.4 8.8 70.3 9.7 C 71.3 10.7 72 11.8 72.5 13.2 C 73 14.6 73.3 16.2 73.3 18.1 C 73.3 18.07 73.3 19.7 73.3 19.7 L 54.9 19.7 L 54.9 16 C 54.9 16 67.6 15.98 67.6 16 C 67.6 15.1 67.4 14.3 67 13.7 C 66.7 13 66.1 12.5 65.5 12.1 C 64.8 11.7 64 11.5 63.1 11.5 C 62.2 11.5 61.4 11.7 60.7 12.1 C 60 12.6 59.5 13.1 59.1 13.8 C 58.7 14.5 58.5 15.3 58.4 16.2 C 58.4 16.2 58.4 19.7 58.4 19.7 C 58.4 20.8 58.6 21.8 59 22.5 C 59.4 23.3 60 23.9 60.8 24.4 C 61.5 24.8 62.4 25 63.4 25 C 64.1 25 64.7 24.9 65.2 24.7 C 65.8 24.5 66.3 24.2 66.7 23.9 C 67.1 23.5 67.4 23 67.6 22.5 C 67.6 22.5 73.2 22.8 73.2 22.8 C 72.9 24.2 72.3 25.4 71.4 26.4 C 70.6 27.4 69.4 28.1 68.1 28.7 C 66.7 29.2 65.1 29.5 63.3 29.5 Z M 86.5 37.3 L 86.5 7.3 L 92.5 7.3 L 92.5 10.9 C 92.5 10.9 92.76 10.94 92.8 10.9 C 93 10.4 93.4 9.8 93.9 9.1 C 94.4 8.5 95.1 8 95.9 7.6 C 96.7 7.2 97.7 7 99 7 C 100.6 7 102 7.4 103.4 8.2 C 104.7 9.1 105.8 10.3 106.6 12 C 107.4 13.6 107.8 15.7 107.8 18.2 C 107.8 20.6 107.4 22.7 106.6 24.4 C 105.8 26 104.8 27.3 103.4 28.2 C 102.1 29 100.6 29.4 99 29.4 C 97.8 29.4 96.8 29.3 96 28.9 C 95.1 28.5 94.5 28 94 27.4 C 93.4 26.8 93 26.2 92.8 25.6 C 92.76 25.6 92.6 25.6 92.6 25.6 L 92.6 37.3 L 86.5 37.3 Z M 92.4 18.2 C 92.4 19.5 92.6 20.6 93 21.6 C 93.3 22.5 93.9 23.3 94.6 23.8 C 95.2 24.4 96.1 24.6 97 24.6 C 98 24.6 98.9 24.4 99.5 23.8 C 100.2 23.3 100.7 22.5 101.1 21.5 C 101.4 20.6 101.6 19.5 101.6 18.2 C 101.6 16.9 101.4 15.8 101.1 14.9 C 100.7 13.9 100.2 13.2 99.6 12.6 C 98.9 12.1 98 11.8 97 11.8 C 96.1 11.8 95.2 12.1 94.5 12.6 C 93.9 13.1 93.3 13.8 93 14.8 C 92.6 15.8 92.4 16.9 92.4 18.2 Z M 111.7 29.1 L 111.7 7.3 L 117.6 7.3 L 117.6 11.1 C 117.6 11.1 117.81 11.08 117.8 11.1 C 118.2 9.7 118.9 8.7 119.8 8 C 120.7 7.3 121.8 7 123 7 C 123.4 7 123.7 7 124 7 C 124.4 7.1 124.7 7.1 125 7.2 C 125 7.2 125 12.5 125 12.5 C 124.7 12.5 124.3 12.4 123.8 12.3 C 123.3 12.2 122.8 12.2 122.4 12.2 C 121.5 12.2 120.7 12.4 120 12.8 C 119.3 13.2 118.8 13.7 118.4 14.4 C 118 15.1 117.8 15.9 117.8 16.7 C 117.77 16.75 117.8 29.1 117.8 29.1 L 111.7 29.1 Z M 137.5 29.5 C 135.3 29.5 133.4 29 131.8 28.1 C 130.2 27.2 128.9 25.8 128.1 24.2 C 127.2 22.5 126.8 20.5 126.8 18.3 C 126.8 16 127.2 14 128.1 12.4 C 128.9 10.7 130.2 9.3 131.8 8.4 C 133.4 7.5 135.3 7 137.5 7 C 139.7 7 141.6 7.5 143.2 8.4 C 144.8 9.3 146.1 10.7 146.9 12.4 C 147.8 14 148.2 16 148.2 18.3 C 148.2 20.5 147.8 22.5 146.9 24.2 C 146.1 25.8 144.8 27.2 143.2 28.1 C 141.6 29 139.7 29.5 137.5 29.5 Z M 137.5 24.8 C 138.5 24.8 139.4 24.5 140.1 24 C 140.7 23.4 141.2 22.6 141.6 21.6 C 141.9 20.6 142.1 19.5 142.1 18.2 C 142.1 17 141.9 15.8 141.6 14.8 C 141.2 13.8 140.7 13 140.1 12.5 C 139.4 11.9 138.5 11.6 137.5 11.6 C 136.5 11.6 135.7 11.9 135 12.5 C 134.3 13 133.8 13.8 133.4 14.8 C 133.1 15.8 132.9 17 132.9 18.2 C 132.9 19.5 133.1 20.6 133.4 21.6 C 133.8 22.6 134.3 23.4 135 24 C 135.7 24.5 136.5 24.8 137.5 24.8 Z M 152 29.1 L 152 0 L 158.1 0 L 158.1 10.9 C 158.1 10.9 158.28 10.94 158.3 10.9 C 158.5 10.4 158.9 9.8 159.4 9.1 C 159.9 8.5 160.6 8 161.4 7.6 C 162.2 7.2 163.3 7 164.5 7 C 166.1 7 167.5 7.4 168.9 8.2 C 170.2 9.1 171.3 10.3 172.1 12 C 172.9 13.6 173.3 15.7 173.3 18.2 C 173.3 20.6 172.9 22.7 172.1 24.4 C 171.4 26 170.3 27.3 169 28.2 C 167.6 29 166.1 29.4 164.5 29.4 C 163.3 29.4 162.3 29.3 161.5 28.9 C 160.7 28.5 160 28 159.5 27.4 C 159 26.8 158.6 26.2 158.3 25.6 C 158.28 25.6 158 25.6 158 25.6 L 158 29.1 L 152 29.1 Z M 158 18.2 C 158 19.5 158.1 20.6 158.5 21.6 C 158.9 22.5 159.4 23.3 160.1 23.8 C 160.7 24.4 161.6 24.6 162.6 24.6 C 163.5 24.6 164.4 24.4 165.1 23.8 C 165.7 23.3 166.3 22.5 166.6 21.5 C 167 20.6 167.1 19.5 167.1 18.2 C 167.1 16.9 167 15.8 166.6 14.9 C 166.3 13.9 165.7 13.2 165.1 12.6 C 164.4 12.1 163.5 11.8 162.6 11.8 C 161.6 11.8 160.7 12.1 160.1 12.6 C 159.4 13.1 158.9 13.8 158.5 14.8 C 158.1 15.8 158 16.9 158 18.2 Z M 183.3 0 L 183.3 29.1 L 177.2 29.1 L 177.2 0 L 183.3 0 Z M 197.9 29.5 C 195.6 29.5 193.7 29.1 192.1 28.1 C 190.5 27.2 189.2 25.9 188.4 24.3 C 187.5 22.6 187 20.6 187 18.3 C 187 16 187.5 14.1 188.4 12.4 C 189.2 10.7 190.5 9.4 192 8.4 C 193.6 7.5 195.5 7 197.6 7 C 199.1 7 200.4 7.2 201.7 7.7 C 202.9 8.1 204 8.8 204.9 9.7 C 205.9 10.7 206.6 11.8 207.1 13.2 C 207.6 14.6 207.9 16.2 207.9 18.1 C 207.89 18.07 207.9 19.7 207.9 19.7 L 189.5 19.7 L 189.5 16 C 189.5 16 202.19 15.98 202.2 16 C 202.2 15.1 202 14.3 201.6 13.7 C 201.2 13 200.7 12.5 200.1 12.1 C 199.4 11.7 198.6 11.5 197.7 11.5 C 196.8 11.5 196 11.7 195.3 12.1 C 194.6 12.6 194 13.1 193.6 13.8 C 193.2 14.5 193 15.3 193 16.2 C 193 16.2 193 19.7 193 19.7 C 193 20.8 193.2 21.8 193.6 22.5 C 194 23.3 194.6 23.9 195.3 24.4 C 196.1 24.8 197 25 198 25 C 198.6 25 199.3 24.9 199.8 24.7 C 200.4 24.5 200.9 24.2 201.3 23.9 C 201.6 23.5 202 23 202.2 22.5 C 202.2 22.5 207.8 22.8 207.8 22.8 C 207.5 24.2 206.9 25.4 206 26.4 C 205.1 27.4 204 28.1 202.6 28.7 C 201.3 29.2 199.7 29.5 197.9 29.5 Z M 211.8 29.1 L 211.8 7.3 L 217.5 7.3 L 217.5 11.1 C 217.5 11.1 217.79 11.12 217.8 11.1 C 218.2 9.8 219 8.8 220.1 8.1 C 221.1 7.4 222.4 7 223.9 7 C 225.4 7 226.6 7.4 227.7 8.1 C 228.7 8.8 229.4 9.9 229.8 11.1 C 229.8 11.1 230 11.1 230 11.1 C 230.5 9.9 231.3 8.9 232.4 8.1 C 233.6 7.4 235 7 236.6 7 C 238.6 7 240.3 7.6 241.6 8.9 C 242.8 10.2 243.5 12.1 243.5 14.4 C 243.47 14.42 243.5 29.1 243.5 29.1 L 237.4 29.1 C 237.4 29.1 237.43 15.61 237.4 15.6 C 237.4 14.4 237.1 13.5 236.5 12.9 C 235.8 12.3 235 12 234 12 C 233 12 232.1 12.3 231.5 13 C 230.9 13.7 230.6 14.6 230.6 15.8 C 230.56 15.77 230.6 29.1 230.6 29.1 L 224.7 29.1 C 224.7 29.1 224.69 15.48 224.7 15.5 C 224.7 14.4 224.4 13.6 223.8 12.9 C 223.2 12.3 222.4 12 221.4 12 C 220.7 12 220.1 12.1 219.6 12.5 C 219 12.8 218.6 13.3 218.3 13.9 C 218 14.5 217.8 15.2 217.8 16 C 217.81 15.99 217.8 29.1 217.8 29.1 L 211.8 29.1 Z " stroke="none" fill="#10283d"/>  </g></svg>