<?xml version="1.0" standalone="no"?><!DOCTYPE svg PUBLIC "-//W3C//DTD SVG 1.1//EN" "http://www.w3.org/Graphics/SVG/1.1/DTD/svg11.dtd"><svg xmlns="http://www.w3.org/2000/svg" version="1.1" width="225px" height="73px" viewBox="0 -10 225 73" style="top:-10px">  <desc>Disconnected intelligence ￼</desc>  <defs/>  <g id="Polygon115594">    <path d="M 1.5 48.2 L 1.5 34.5 L 5.3 34.5 L 5.3 48.2 L 1.5 48.2 Z M 3.4 32.8 C 2.8 32.8 2.4 32.6 2 32.2 C 1.6 31.9 1.4 31.4 1.4 30.9 C 1.4 30.4 1.6 29.9 2 29.5 C 2.4 29.1 2.9 29 3.4 29 C 4 29 4.5 29.1 4.9 29.5 C 5.3 29.9 5.5 30.3 5.5 30.9 C 5.5 31.4 5.3 31.8 4.9 32.2 C 4.5 32.6 4 32.8 3.4 32.8 Z M 12 40.3 C 12.02 40.3 12 48.2 12 48.2 L 8.2 48.2 L 8.2 34.5 L 11.8 34.5 L 11.8 37 C 11.8 37 12 36.95 12 37 C 12.3 36.2 12.8 35.5 13.5 35.1 C 14.2 34.6 15.1 34.4 16.1 34.4 C 17 34.4 17.9 34.6 18.6 35 C 19.3 35.4 19.8 36 20.2 36.8 C 20.6 37.5 20.8 38.4 20.8 39.5 C 20.81 39.5 20.8 48.2 20.8 48.2 L 17 48.2 C 17 48.2 17.02 40.17 17 40.2 C 17 39.3 16.8 38.7 16.4 38.2 C 16 37.7 15.4 37.5 14.6 37.5 C 14.1 37.5 13.6 37.6 13.3 37.8 C 12.9 38.1 12.6 38.4 12.3 38.8 C 12.1 39.2 12 39.7 12 40.3 Z M 30.6 34.5 L 30.6 37.4 L 22.3 37.4 L 22.3 34.5 L 30.6 34.5 Z M 24.2 31.3 L 28 31.3 C 28 31.3 27.99 43.99 28 44 C 28 44.3 28 44.6 28.2 44.8 C 28.3 45 28.4 45.1 28.6 45.2 C 28.8 45.3 29 45.3 29.3 45.3 C 29.5 45.3 29.6 45.3 29.8 45.3 C 30 45.2 30.1 45.2 30.2 45.2 C 30.2 45.2 30.8 48 30.8 48 C 30.6 48.1 30.4 48.1 30 48.2 C 29.7 48.3 29.2 48.4 28.8 48.4 C 27.8 48.4 27 48.3 26.4 48 C 25.7 47.7 25.2 47.3 24.8 46.7 C 24.4 46.1 24.2 45.4 24.2 44.5 C 24.21 44.49 24.2 31.3 24.2 31.3 Z M 38.4 48.4 C 37 48.4 35.8 48.2 34.8 47.6 C 33.8 47 33 46.2 32.5 45.2 C 31.9 44.1 31.7 42.9 31.7 41.4 C 31.7 40 31.9 38.8 32.5 37.7 C 33 36.7 33.8 35.8 34.8 35.3 C 35.8 34.7 36.9 34.4 38.3 34.4 C 39.2 34.4 40 34.5 40.8 34.8 C 41.6 35.1 42.3 35.5 42.8 36.1 C 43.4 36.7 43.9 37.4 44.2 38.3 C 44.5 39.1 44.7 40.1 44.7 41.3 C 44.69 41.29 44.7 42.3 44.7 42.3 L 33.2 42.3 L 33.2 40 C 33.2 40 41.13 39.99 41.1 40 C 41.1 39.4 41 39 40.8 38.5 C 40.5 38.1 40.2 37.8 39.8 37.6 C 39.4 37.3 38.9 37.2 38.3 37.2 C 37.8 37.2 37.3 37.3 36.8 37.6 C 36.4 37.8 36 38.2 35.8 38.6 C 35.5 39.1 35.4 39.6 35.4 40.1 C 35.4 40.1 35.4 42.3 35.4 42.3 C 35.4 43 35.5 43.6 35.8 44.1 C 36 44.6 36.4 45 36.9 45.2 C 37.3 45.5 37.9 45.6 38.5 45.6 C 38.9 45.6 39.3 45.6 39.7 45.4 C 40 45.3 40.3 45.2 40.5 44.9 C 40.8 44.7 41 44.4 41.1 44 C 41.1 44 44.6 44.3 44.6 44.3 C 44.4 45.1 44.1 45.8 43.5 46.5 C 43 47.1 42.3 47.6 41.4 47.9 C 40.6 48.3 39.6 48.4 38.4 48.4 Z M 50.9 30 L 50.9 48.2 L 47.1 48.2 L 47.1 30 L 50.9 30 Z M 57.6 30 L 57.6 48.2 L 53.8 48.2 L 53.8 30 L 57.6 30 Z M 60.5 48.2 L 60.5 34.5 L 64.3 34.5 L 64.3 48.2 L 60.5 48.2 Z M 62.4 32.8 C 61.9 32.8 61.4 32.6 61 32.2 C 60.6 31.9 60.4 31.4 60.4 30.9 C 60.4 30.4 60.6 29.9 61 29.5 C 61.4 29.1 61.9 29 62.4 29 C 63 29 63.5 29.1 63.9 29.5 C 64.3 29.9 64.5 30.3 64.5 30.9 C 64.5 31.4 64.3 31.8 63.9 32.2 C 63.5 32.6 63 32.8 62.4 32.8 Z M 73.3 53.6 C 72.1 53.6 71 53.4 70.2 53.1 C 69.3 52.7 68.6 52.3 68.1 51.7 C 67.6 51.1 67.2 50.5 67.1 49.8 C 67.1 49.8 70.6 49.3 70.6 49.3 C 70.7 49.6 70.9 49.8 71.1 50.1 C 71.3 50.3 71.6 50.5 72 50.6 C 72.4 50.8 72.9 50.9 73.4 50.9 C 74.2 50.9 74.9 50.7 75.4 50.3 C 76 49.9 76.2 49.2 76.2 48.3 C 76.25 48.26 76.2 45.8 76.2 45.8 C 76.2 45.8 76.09 45.77 76.1 45.8 C 75.9 46.1 75.7 46.5 75.3 46.8 C 75 47.2 74.6 47.5 74.1 47.7 C 73.5 47.9 72.9 48 72.2 48 C 71.2 48 70.2 47.7 69.4 47.3 C 68.6 46.8 67.9 46.1 67.4 45.1 C 66.9 44.1 66.7 42.8 66.7 41.3 C 66.7 39.8 66.9 38.5 67.4 37.5 C 67.9 36.4 68.6 35.7 69.4 35.1 C 70.3 34.6 71.2 34.4 72.2 34.4 C 73 34.4 73.6 34.5 74.1 34.8 C 74.6 35 75 35.3 75.4 35.7 C 75.7 36.1 75.9 36.5 76.1 36.8 C 76.09 36.84 76.2 36.8 76.2 36.8 L 76.2 34.5 L 80 34.5 C 80 34.5 79.99 48.31 80 48.3 C 80 49.5 79.7 50.4 79.1 51.2 C 78.6 52 77.8 52.6 76.8 53 C 75.8 53.4 74.6 53.6 73.3 53.6 Z M 73.4 45.1 C 74 45.1 74.5 45 74.9 44.7 C 75.4 44.4 75.7 43.9 75.9 43.4 C 76.2 42.8 76.3 42.1 76.3 41.3 C 76.3 40.5 76.2 39.8 75.9 39.2 C 75.7 38.6 75.4 38.2 75 37.9 C 74.5 37.5 74 37.4 73.4 37.4 C 72.8 37.4 72.3 37.5 71.8 37.9 C 71.4 38.2 71.1 38.7 70.9 39.3 C 70.6 39.9 70.5 40.5 70.5 41.3 C 70.5 42.1 70.6 42.8 70.9 43.4 C 71.1 43.9 71.4 44.4 71.8 44.7 C 72.3 45 72.8 45.1 73.4 45.1 Z M 89.1 48.4 C 87.7 48.4 86.5 48.2 85.5 47.6 C 84.5 47 83.7 46.2 83.2 45.2 C 82.6 44.1 82.4 42.9 82.4 41.4 C 82.4 40 82.6 38.8 83.2 37.7 C 83.7 36.7 84.5 35.8 85.5 35.3 C 86.5 34.7 87.6 34.4 89 34.4 C 89.9 34.4 90.7 34.5 91.5 34.8 C 92.3 35.1 92.9 35.5 93.5 36.1 C 94.1 36.7 94.6 37.4 94.9 38.3 C 95.2 39.1 95.4 40.1 95.4 41.3 C 95.38 41.29 95.4 42.3 95.4 42.3 L 83.9 42.3 L 83.9 40 C 83.9 40 91.82 39.99 91.8 40 C 91.8 39.4 91.7 39 91.5 38.5 C 91.2 38.1 90.9 37.8 90.5 37.6 C 90.1 37.3 89.6 37.2 89 37.2 C 88.5 37.2 87.9 37.3 87.5 37.6 C 87.1 37.8 86.7 38.2 86.5 38.6 C 86.2 39.1 86.1 39.6 86.1 40.1 C 86.1 40.1 86.1 42.3 86.1 42.3 C 86.1 43 86.2 43.6 86.5 44.1 C 86.7 44.6 87.1 45 87.5 45.2 C 88 45.5 88.5 45.6 89.2 45.6 C 89.6 45.6 90 45.6 90.3 45.4 C 90.7 45.3 91 45.2 91.2 44.9 C 91.5 44.7 91.7 44.4 91.8 44 C 91.8 44 95.3 44.3 95.3 44.3 C 95.1 45.1 94.8 45.8 94.2 46.5 C 93.7 47.1 93 47.6 92.1 47.9 C 91.2 48.3 90.2 48.4 89.1 48.4 Z M 101.5 40.3 C 101.54 40.3 101.5 48.2 101.5 48.2 L 97.8 48.2 L 97.8 34.5 L 101.4 34.5 L 101.4 37 C 101.4 37 101.52 36.95 101.5 37 C 101.8 36.2 102.3 35.5 103 35.1 C 103.8 34.6 104.6 34.4 105.6 34.4 C 106.6 34.4 107.4 34.6 108.1 35 C 108.8 35.4 109.4 36 109.7 36.8 C 110.1 37.5 110.3 38.4 110.3 39.5 C 110.33 39.5 110.3 48.2 110.3 48.2 L 106.5 48.2 C 106.5 48.2 106.55 40.17 106.5 40.2 C 106.6 39.3 106.3 38.7 105.9 38.2 C 105.5 37.7 104.9 37.5 104.1 37.5 C 103.6 37.5 103.2 37.6 102.8 37.8 C 102.4 38.1 102.1 38.4 101.9 38.8 C 101.7 39.2 101.5 39.7 101.5 40.3 Z M 119.3 48.4 C 117.9 48.4 116.7 48.2 115.7 47.6 C 114.7 47 113.9 46.1 113.4 45.1 C 112.8 44 112.6 42.8 112.6 41.4 C 112.6 40 112.8 38.8 113.4 37.7 C 113.9 36.7 114.7 35.9 115.7 35.3 C 116.7 34.7 117.9 34.4 119.3 34.4 C 120.5 34.4 121.5 34.6 122.4 35 C 123.3 35.4 124 36.1 124.5 36.8 C 125 37.6 125.3 38.5 125.4 39.6 C 125.4 39.6 121.8 39.6 121.8 39.6 C 121.7 38.9 121.4 38.4 121 37.9 C 120.6 37.5 120 37.3 119.3 37.3 C 118.7 37.3 118.2 37.5 117.8 37.8 C 117.4 38.1 117 38.6 116.8 39.2 C 116.5 39.8 116.4 40.5 116.4 41.4 C 116.4 42.2 116.5 43 116.8 43.6 C 117 44.2 117.4 44.7 117.8 45 C 118.2 45.3 118.7 45.5 119.3 45.5 C 119.8 45.5 120.1 45.4 120.5 45.2 C 120.8 45 121.1 44.8 121.4 44.4 C 121.6 44.1 121.7 43.7 121.8 43.2 C 121.8 43.2 125.4 43.2 125.4 43.2 C 125.3 44.2 125 45.1 124.5 45.9 C 124 46.7 123.3 47.3 122.4 47.8 C 121.5 48.2 120.5 48.4 119.3 48.4 Z M 133.8 48.4 C 132.4 48.4 131.2 48.2 130.2 47.6 C 129.2 47 128.4 46.2 127.9 45.2 C 127.3 44.1 127 42.9 127 41.4 C 127 40 127.3 38.8 127.9 37.7 C 128.4 36.7 129.2 35.8 130.2 35.3 C 131.2 34.7 132.3 34.4 133.7 34.4 C 134.6 34.4 135.4 34.5 136.2 34.8 C 137 35.1 137.6 35.5 138.2 36.1 C 138.8 36.7 139.3 37.4 139.6 38.3 C 139.9 39.1 140.1 40.1 140.1 41.3 C 140.07 41.29 140.1 42.3 140.1 42.3 L 128.6 42.3 L 128.6 40 C 128.6 40 136.51 39.99 136.5 40 C 136.5 39.4 136.4 39 136.2 38.5 C 135.9 38.1 135.6 37.8 135.2 37.6 C 134.8 37.3 134.3 37.2 133.7 37.2 C 133.2 37.2 132.6 37.3 132.2 37.6 C 131.8 37.8 131.4 38.2 131.2 38.6 C 130.9 39.1 130.8 39.6 130.8 40.1 C 130.8 40.1 130.8 42.3 130.8 42.3 C 130.8 43 130.9 43.6 131.2 44.1 C 131.4 44.6 131.8 45 132.2 45.2 C 132.7 45.5 133.2 45.6 133.9 45.6 C 134.3 45.6 134.7 45.6 135 45.4 C 135.4 45.3 135.7 45.2 135.9 44.9 C 136.2 44.7 136.4 44.4 136.5 44 C 136.5 44 140 44.3 140 44.3 C 139.8 45.1 139.5 45.8 138.9 46.5 C 138.4 47.1 137.7 47.6 136.8 47.9 C 135.9 48.3 134.9 48.4 133.8 48.4 Z " stroke="none" fill="#10283d"/>  </g>  <g id="Polygon115593">    <path d="M 8 18.2 C 8.03 18.18 1.6 18.2 1.6 18.2 L 1.6 0 C 1.6 0 8.08 0 8.1 0 C 9.9 0 11.5 0.4 12.8 1.1 C 14.1 1.8 15.1 2.9 15.9 4.2 C 16.6 5.6 16.9 7.2 16.9 9.1 C 16.9 11 16.6 12.6 15.9 14 C 15.1 15.3 14.1 16.4 12.8 17.1 C 11.5 17.8 9.9 18.2 8 18.2 Z M 5.4 14.9 C 5.4 14.9 7.87 14.89 7.9 14.9 C 9 14.9 10 14.7 10.7 14.3 C 11.5 13.9 12.1 13.2 12.5 12.4 C 12.9 11.5 13.1 10.4 13.1 9.1 C 13.1 7.7 12.9 6.6 12.5 5.8 C 12.1 4.9 11.5 4.3 10.7 3.9 C 10 3.5 9 3.3 7.9 3.3 C 7.87 3.29 5.4 3.3 5.4 3.3 L 5.4 14.9 Z M 19.6 18.2 L 19.6 4.5 L 23.4 4.5 L 23.4 18.2 L 19.6 18.2 Z M 21.5 2.8 C 21 2.8 20.5 2.6 20.1 2.2 C 19.7 1.9 19.5 1.4 19.5 0.9 C 19.5 0.4 19.7 -0.1 20.1 -0.5 C 20.5 -0.9 21 -1 21.5 -1 C 22.1 -1 22.6 -0.9 23 -0.5 C 23.4 -0.1 23.6 0.3 23.6 0.9 C 23.6 1.4 23.4 1.8 23 2.2 C 22.6 2.6 22.1 2.8 21.5 2.8 Z M 37.5 8.4 C 37.5 8.4 34.1 8.6 34.1 8.6 C 34 8.4 33.9 8.1 33.7 7.8 C 33.5 7.6 33.2 7.4 32.9 7.3 C 32.6 7.1 32.2 7 31.8 7 C 31.2 7 30.7 7.2 30.3 7.4 C 29.9 7.7 29.7 8 29.7 8.4 C 29.7 8.7 29.8 9 30.1 9.2 C 30.4 9.4 30.8 9.6 31.4 9.8 C 31.4 9.8 33.9 10.3 33.9 10.3 C 35.2 10.5 36.2 11 36.9 11.6 C 37.5 12.2 37.8 13 37.8 14 C 37.8 14.8 37.6 15.6 37.1 16.3 C 36.5 17 35.8 17.5 34.9 17.9 C 34 18.3 33 18.4 31.8 18.4 C 30 18.4 28.5 18.1 27.5 17.3 C 26.4 16.6 25.8 15.5 25.6 14.2 C 25.6 14.2 29.3 14 29.3 14 C 29.4 14.6 29.7 15 30.1 15.3 C 30.6 15.6 31.1 15.7 31.8 15.7 C 32.4 15.7 33 15.6 33.4 15.3 C 33.8 15.1 34 14.7 34 14.3 C 34 14 33.8 13.7 33.6 13.5 C 33.3 13.3 32.8 13.1 32.3 13 C 32.3 13 29.9 12.5 29.9 12.5 C 28.6 12.2 27.6 11.8 26.9 11.1 C 26.3 10.5 25.9 9.6 25.9 8.6 C 25.9 7.7 26.2 7 26.7 6.3 C 27.1 5.7 27.8 5.2 28.7 4.9 C 29.5 4.5 30.6 4.4 31.7 4.4 C 33.5 4.4 34.8 4.7 35.8 5.5 C 36.8 6.2 37.4 7.2 37.5 8.4 Z M 46.2 18.4 C 44.8 18.4 43.6 18.2 42.6 17.6 C 41.6 17 40.8 16.1 40.3 15.1 C 39.7 14 39.5 12.8 39.5 11.4 C 39.5 10 39.7 8.8 40.3 7.7 C 40.8 6.7 41.6 5.9 42.6 5.3 C 43.6 4.7 44.8 4.4 46.2 4.4 C 47.4 4.4 48.4 4.6 49.3 5 C 50.2 5.4 50.9 6.1 51.4 6.8 C 51.9 7.6 52.2 8.5 52.3 9.6 C 52.3 9.6 48.7 9.6 48.7 9.6 C 48.6 8.9 48.3 8.4 47.9 7.9 C 47.5 7.5 46.9 7.3 46.2 7.3 C 45.6 7.3 45.1 7.5 44.7 7.8 C 44.3 8.1 43.9 8.6 43.7 9.2 C 43.4 9.8 43.3 10.5 43.3 11.4 C 43.3 12.2 43.4 13 43.7 13.6 C 43.9 14.2 44.3 14.7 44.7 15 C 45.1 15.3 45.6 15.5 46.2 15.5 C 46.7 15.5 47 15.4 47.4 15.2 C 47.7 15 48 14.8 48.3 14.4 C 48.5 14.1 48.6 13.7 48.7 13.2 C 48.7 13.2 52.3 13.2 52.3 13.2 C 52.2 14.2 51.9 15.1 51.4 15.9 C 50.9 16.7 50.2 17.3 49.3 17.8 C 48.4 18.2 47.4 18.4 46.2 18.4 Z M 60.7 18.4 C 59.3 18.4 58.1 18.2 57.1 17.6 C 56.1 17 55.3 16.2 54.8 15.1 C 54.2 14 54 12.8 54 11.4 C 54 10 54.2 8.8 54.8 7.7 C 55.3 6.7 56.1 5.8 57.1 5.3 C 58.1 4.7 59.3 4.4 60.7 4.4 C 62 4.4 63.2 4.7 64.2 5.3 C 65.2 5.8 66 6.7 66.6 7.7 C 67.1 8.8 67.4 10 67.4 11.4 C 67.4 12.8 67.1 14 66.6 15.1 C 66 16.2 65.2 17 64.2 17.6 C 63.2 18.2 62 18.4 60.7 18.4 Z M 60.7 15.5 C 61.3 15.5 61.8 15.3 62.3 15 C 62.7 14.6 63 14.1 63.2 13.5 C 63.4 12.9 63.5 12.2 63.5 11.4 C 63.5 10.6 63.4 9.9 63.2 9.3 C 63 8.6 62.7 8.2 62.3 7.8 C 61.8 7.4 61.3 7.3 60.7 7.3 C 60.1 7.3 59.5 7.4 59.1 7.8 C 58.7 8.2 58.3 8.6 58.1 9.3 C 57.9 9.9 57.8 10.6 57.8 11.4 C 57.8 12.2 57.9 12.9 58.1 13.5 C 58.3 14.1 58.7 14.6 59.1 15 C 59.5 15.3 60.1 15.5 60.7 15.5 Z M 73.5 10.3 C 73.54 10.3 73.5 18.2 73.5 18.2 L 69.8 18.2 L 69.8 4.5 L 73.4 4.5 L 73.4 7 C 73.4 7 73.52 6.95 73.5 7 C 73.8 6.2 74.3 5.5 75 5.1 C 75.7 4.6 76.6 4.4 77.6 4.4 C 78.6 4.4 79.4 4.6 80.1 5 C 80.8 5.4 81.3 6 81.7 6.8 C 82.1 7.5 82.3 8.4 82.3 9.5 C 82.33 9.5 82.3 18.2 82.3 18.2 L 78.5 18.2 C 78.5 18.2 78.54 10.17 78.5 10.2 C 78.6 9.3 78.3 8.7 77.9 8.2 C 77.5 7.7 76.9 7.5 76.1 7.5 C 75.6 7.5 75.2 7.6 74.8 7.8 C 74.4 8.1 74.1 8.4 73.9 8.8 C 73.7 9.2 73.5 9.7 73.5 10.3 Z M 89 10.3 C 88.97 10.3 89 18.2 89 18.2 L 85.2 18.2 L 85.2 4.5 L 88.8 4.5 L 88.8 7 C 88.8 7 88.95 6.95 89 7 C 89.3 6.2 89.8 5.5 90.5 5.1 C 91.2 4.6 92 4.4 93.1 4.4 C 94 4.4 94.8 4.6 95.5 5 C 96.2 5.4 96.8 6 97.2 6.8 C 97.6 7.5 97.8 8.4 97.8 9.5 C 97.76 9.5 97.8 18.2 97.8 18.2 L 94 18.2 C 94 18.2 93.98 10.17 94 10.2 C 94 9.3 93.8 8.7 93.3 8.2 C 92.9 7.7 92.3 7.5 91.6 7.5 C 91 7.5 90.6 7.6 90.2 7.8 C 89.8 8.1 89.5 8.4 89.3 8.8 C 89.1 9.2 89 9.7 89 10.3 Z M 106.8 18.4 C 105.4 18.4 104.2 18.2 103.2 17.6 C 102.2 17 101.4 16.2 100.9 15.2 C 100.3 14.1 100 12.9 100 11.4 C 100 10 100.3 8.8 100.9 7.7 C 101.4 6.7 102.2 5.8 103.2 5.3 C 104.2 4.7 105.3 4.4 106.7 4.4 C 107.6 4.4 108.4 4.5 109.2 4.8 C 110 5.1 110.6 5.5 111.2 6.1 C 111.8 6.7 112.3 7.4 112.6 8.3 C 112.9 9.1 113.1 10.1 113.1 11.3 C 113.07 11.29 113.1 12.3 113.1 12.3 L 101.6 12.3 L 101.6 10 C 101.6 10 109.51 9.99 109.5 10 C 109.5 9.4 109.4 9 109.2 8.5 C 108.9 8.1 108.6 7.8 108.2 7.6 C 107.8 7.3 107.3 7.2 106.7 7.2 C 106.1 7.2 105.6 7.3 105.2 7.6 C 104.8 7.8 104.4 8.2 104.2 8.6 C 103.9 9.1 103.8 9.6 103.8 10.1 C 103.8 10.1 103.8 12.3 103.8 12.3 C 103.8 13 103.9 13.6 104.2 14.1 C 104.4 14.6 104.8 15 105.2 15.2 C 105.7 15.5 106.2 15.6 106.9 15.6 C 107.3 15.6 107.7 15.6 108 15.4 C 108.4 15.3 108.7 15.2 108.9 14.9 C 109.2 14.7 109.4 14.4 109.5 14 C 109.5 14 113 14.3 113 14.3 C 112.8 15.1 112.4 15.8 111.9 16.5 C 111.4 17.1 110.6 17.6 109.8 17.9 C 108.9 18.3 107.9 18.4 106.8 18.4 Z M 121.6 18.4 C 120.2 18.4 119 18.2 118 17.6 C 117 17 116.2 16.1 115.7 15.1 C 115.1 14 114.9 12.8 114.9 11.4 C 114.9 10 115.1 8.8 115.7 7.7 C 116.2 6.7 117 5.9 118 5.3 C 119 4.7 120.2 4.4 121.6 4.4 C 122.8 4.4 123.8 4.6 124.7 5 C 125.6 5.4 126.3 6.1 126.8 6.8 C 127.3 7.6 127.6 8.5 127.7 9.6 C 127.7 9.6 124.1 9.6 124.1 9.6 C 124 8.9 123.7 8.4 123.3 7.9 C 122.9 7.5 122.3 7.3 121.6 7.3 C 121 7.3 120.5 7.5 120.1 7.8 C 119.7 8.1 119.3 8.6 119.1 9.2 C 118.8 9.8 118.7 10.5 118.7 11.4 C 118.7 12.2 118.8 13 119.1 13.6 C 119.3 14.2 119.7 14.7 120.1 15 C 120.5 15.3 121 15.5 121.6 15.5 C 122.1 15.5 122.4 15.4 122.8 15.2 C 123.1 15 123.4 14.8 123.7 14.4 C 123.9 14.1 124 13.7 124.1 13.2 C 124.1 13.2 127.7 13.2 127.7 13.2 C 127.6 14.2 127.3 15.1 126.8 15.9 C 126.3 16.7 125.6 17.3 124.7 17.8 C 123.8 18.2 122.8 18.4 121.6 18.4 Z M 137.2 4.5 L 137.2 7.4 L 129 7.4 L 129 4.5 L 137.2 4.5 Z M 130.9 1.3 L 134.6 1.3 C 134.6 1.3 134.64 13.99 134.6 14 C 134.6 14.3 134.7 14.6 134.8 14.8 C 134.9 15 135.1 15.1 135.2 15.2 C 135.4 15.3 135.7 15.3 135.9 15.3 C 136.1 15.3 136.3 15.3 136.5 15.3 C 136.6 15.2 136.8 15.2 136.9 15.2 C 136.9 15.2 137.5 18 137.5 18 C 137.3 18.1 137 18.1 136.7 18.2 C 136.3 18.3 135.9 18.4 135.4 18.4 C 134.5 18.4 133.7 18.3 133 18 C 132.3 17.7 131.8 17.3 131.4 16.7 C 131 16.1 130.9 15.4 130.9 14.5 C 130.86 14.49 130.9 1.3 130.9 1.3 Z M 145.1 18.4 C 143.7 18.4 142.5 18.2 141.5 17.6 C 140.5 17 139.7 16.2 139.1 15.2 C 138.6 14.1 138.3 12.9 138.3 11.4 C 138.3 10 138.6 8.8 139.1 7.7 C 139.7 6.7 140.4 5.8 141.4 5.3 C 142.4 4.7 143.6 4.4 144.9 4.4 C 145.8 4.4 146.7 4.5 147.4 4.8 C 148.2 5.1 148.9 5.5 149.5 6.1 C 150.1 6.7 150.5 7.4 150.9 8.3 C 151.2 9.1 151.3 10.1 151.3 11.3 C 151.34 11.29 151.3 12.3 151.3 12.3 L 139.8 12.3 L 139.8 10 C 139.8 10 147.78 9.99 147.8 10 C 147.8 9.4 147.7 9 147.4 8.5 C 147.2 8.1 146.9 7.8 146.4 7.6 C 146 7.3 145.5 7.2 145 7.2 C 144.4 7.2 143.9 7.3 143.5 7.6 C 143 7.8 142.7 8.2 142.4 8.6 C 142.2 9.1 142.1 9.6 142.1 10.1 C 142.1 10.1 142.1 12.3 142.1 12.3 C 142.1 13 142.2 13.6 142.4 14.1 C 142.7 14.6 143 15 143.5 15.2 C 144 15.5 144.5 15.6 145.1 15.6 C 145.6 15.6 145.9 15.6 146.3 15.4 C 146.6 15.3 146.9 15.2 147.2 14.9 C 147.4 14.7 147.6 14.4 147.8 14 C 147.8 14 151.3 14.3 151.3 14.3 C 151.1 15.1 150.7 15.8 150.2 16.5 C 149.6 17.1 148.9 17.6 148.1 17.9 C 147.2 18.3 146.2 18.4 145.1 18.4 Z M 158.7 18.4 C 157.7 18.4 156.7 18.1 155.9 17.6 C 155.1 17.1 154.4 16.3 153.9 15.2 C 153.4 14.2 153.2 12.9 153.2 11.4 C 153.2 9.8 153.4 8.5 153.9 7.5 C 154.4 6.4 155.1 5.7 156 5.1 C 156.8 4.6 157.7 4.4 158.7 4.4 C 159.5 4.4 160.1 4.5 160.6 4.8 C 161.1 5 161.5 5.3 161.9 5.7 C 162.2 6.1 162.4 6.5 162.6 6.8 C 162.59 6.84 162.7 6.8 162.7 6.8 L 162.7 0 L 166.5 0 L 166.5 18.2 L 162.7 18.2 L 162.7 16 C 162.7 16 162.59 16 162.6 16 C 162.4 16.4 162.2 16.8 161.8 17.1 C 161.5 17.5 161.1 17.8 160.6 18 C 160.1 18.3 159.5 18.4 158.7 18.4 Z M 159.9 15.4 C 160.5 15.4 161 15.2 161.5 14.9 C 161.9 14.6 162.2 14.1 162.4 13.5 C 162.7 12.9 162.8 12.2 162.8 11.4 C 162.8 10.6 162.7 9.8 162.4 9.3 C 162.2 8.7 161.9 8.2 161.5 7.9 C 161 7.5 160.5 7.4 159.9 7.4 C 159.3 7.4 158.8 7.5 158.3 7.9 C 157.9 8.2 157.6 8.7 157.4 9.3 C 157.2 9.9 157 10.6 157 11.4 C 157 12.2 157.2 12.9 157.4 13.5 C 157.6 14.1 157.9 14.5 158.4 14.9 C 158.8 15.2 159.3 15.4 159.9 15.4 Z " stroke="none" fill="#10283d"/>  </g>  <g id="Polygon115595">    <path d="M 147.7 47.3 L 154.2 40.7 L 147.7 34.1 " style="stroke-width:1.8pt; stroke:#ff4f00;" fill="none"/>  </g></svg>