<?xml version="1.0" standalone="no"?><!DOCTYPE svg PUBLIC "-//W3C//DTD SVG 1.1//EN" "http://www.w3.org/Graphics/SVG/1.1/DTD/svg11.dtd"><svg xmlns="http://www.w3.org/2000/svg" version="1.1" width="259.3px" height="138.7px" viewBox="0 -5 259.3 138.7" style="top:-5px">  <desc>Provide trusted, actionable insights</desc>  <defs/>  <g id="Polygon125436">    <path d="M 69.2 115 L 69.2 97.5 L 74 97.5 L 74 115 L 69.2 115 Z M 71.6 95.3 C 70.9 95.3 70.3 95.1 69.8 94.6 C 69.3 94.1 69 93.5 69 92.9 C 69 92.2 69.3 91.6 69.8 91.1 C 70.3 90.6 70.9 90.4 71.6 90.4 C 72.4 90.4 73 90.6 73.5 91.1 C 74 91.6 74.2 92.2 74.2 92.8 C 74.2 93.5 74 94.1 73.5 94.6 C 73 95.1 72.4 95.3 71.6 95.3 Z M 82.8 104.9 C 82.78 104.91 82.8 115 82.8 115 L 77.9 115 L 77.9 97.5 L 82.6 97.5 L 82.6 100.6 C 82.6 100.6 82.76 100.62 82.8 100.6 C 83.1 99.6 83.8 98.8 84.7 98.2 C 85.6 97.6 86.7 97.3 88 97.3 C 89.2 97.3 90.3 97.6 91.2 98.1 C 92.1 98.6 92.8 99.4 93.3 100.4 C 93.8 101.4 94 102.5 94 103.9 C 94.03 103.89 94 115 94 115 L 89.2 115 C 89.2 115 89.19 104.75 89.2 104.7 C 89.2 103.7 88.9 102.8 88.4 102.2 C 87.8 101.6 87.1 101.3 86.1 101.3 C 85.4 101.3 84.9 101.5 84.4 101.8 C 83.9 102 83.5 102.4 83.2 103 C 82.9 103.5 82.8 104.2 82.8 104.9 Z M 112.2 102.5 C 112.2 102.5 107.7 102.8 107.7 102.8 C 107.6 102.4 107.5 102.1 107.2 101.8 C 107 101.5 106.7 101.2 106.3 101 C 105.8 100.8 105.4 100.7 104.8 100.7 C 104.1 100.7 103.4 100.9 102.9 101.2 C 102.4 101.5 102.1 102 102.1 102.5 C 102.1 102.9 102.3 103.2 102.6 103.5 C 103 103.8 103.5 104.1 104.3 104.2 C 104.3 104.2 107.5 104.9 107.5 104.9 C 109.2 105.2 110.5 105.8 111.3 106.5 C 112.1 107.3 112.6 108.3 112.6 109.6 C 112.6 110.7 112.2 111.7 111.5 112.6 C 110.9 113.5 110 114.1 108.8 114.6 C 107.6 115.1 106.3 115.3 104.8 115.3 C 102.5 115.3 100.6 114.9 99.3 113.9 C 97.9 112.9 97.1 111.6 96.9 109.9 C 96.9 109.9 101.6 109.7 101.6 109.7 C 101.8 110.4 102.1 110.9 102.7 111.3 C 103.2 111.7 103.9 111.9 104.8 111.9 C 105.6 111.9 106.3 111.7 106.8 111.4 C 107.4 111 107.6 110.6 107.6 110.1 C 107.6 109.6 107.4 109.3 107.1 109 C 106.7 108.7 106.2 108.5 105.4 108.3 C 105.4 108.3 102.4 107.7 102.4 107.7 C 100.7 107.4 99.4 106.8 98.6 106 C 97.7 105.1 97.3 104.1 97.3 102.7 C 97.3 101.6 97.6 100.7 98.2 99.9 C 98.8 99 99.7 98.4 100.8 98 C 101.9 97.5 103.2 97.3 104.7 97.3 C 106.9 97.3 108.7 97.8 109.9 98.7 C 111.2 99.6 111.9 100.9 112.2 102.5 Z M 115.6 115 L 115.6 97.5 L 120.4 97.5 L 120.4 115 L 115.6 115 Z M 118 95.3 C 117.3 95.3 116.6 95.1 116.1 94.6 C 115.6 94.1 115.4 93.5 115.4 92.9 C 115.4 92.2 115.6 91.6 116.1 91.1 C 116.7 90.6 117.3 90.4 118 90.4 C 118.7 90.4 119.3 90.6 119.8 91.1 C 120.3 91.6 120.6 92.2 120.6 92.8 C 120.6 93.5 120.3 94.1 119.8 94.6 C 119.3 95.1 118.7 95.3 118 95.3 Z M 132 121.9 C 130.4 121.9 129.1 121.7 128 121.3 C 126.8 120.8 126 120.3 125.3 119.5 C 124.6 118.8 124.2 118 124 117 C 124 117 128.5 116.4 128.5 116.4 C 128.6 116.8 128.8 117.1 129.1 117.4 C 129.4 117.7 129.8 118 130.3 118.2 C 130.8 118.3 131.4 118.4 132.1 118.4 C 133.2 118.4 134 118.2 134.7 117.7 C 135.4 117.2 135.7 116.3 135.7 115.1 C 135.74 115.1 135.7 111.9 135.7 111.9 C 135.7 111.9 135.54 111.91 135.5 111.9 C 135.3 112.4 135 112.9 134.6 113.3 C 134.2 113.7 133.6 114.1 132.9 114.3 C 132.3 114.6 131.5 114.7 130.6 114.7 C 129.2 114.7 128.1 114.4 127 113.8 C 125.9 113.2 125.1 112.3 124.4 111 C 123.8 109.8 123.5 108.2 123.5 106.2 C 123.5 104.3 123.8 102.6 124.4 101.3 C 125.1 100 125.9 99 127 98.3 C 128.1 97.6 129.3 97.3 130.5 97.3 C 131.5 97.3 132.3 97.5 133 97.8 C 133.7 98.1 134.2 98.6 134.6 99 C 135 99.5 135.3 100 135.5 100.5 C 135.54 100.48 135.7 100.5 135.7 100.5 L 135.7 97.5 L 140.5 97.5 C 140.5 97.5 140.53 115.17 140.5 115.2 C 140.5 116.7 140.2 117.9 139.4 118.9 C 138.7 119.9 137.7 120.6 136.4 121.2 C 135.1 121.7 133.7 121.9 132 121.9 Z M 132.1 111.1 C 132.9 111.1 133.5 110.9 134.1 110.5 C 134.6 110.1 135 109.6 135.3 108.8 C 135.6 108.1 135.8 107.2 135.8 106.2 C 135.8 105.2 135.6 104.3 135.3 103.6 C 135 102.8 134.6 102.2 134.1 101.8 C 133.5 101.4 132.9 101.2 132.1 101.2 C 131.3 101.2 130.6 101.4 130.1 101.8 C 129.5 102.2 129.1 102.8 128.8 103.6 C 128.6 104.3 128.4 105.2 128.4 106.2 C 128.4 107.2 128.6 108.1 128.8 108.8 C 129.1 109.6 129.5 110.1 130.1 110.5 C 130.6 110.9 131.3 111.1 132.1 111.1 Z M 149.3 104.9 C 149.25 104.91 149.3 115 149.3 115 L 144.4 115 L 144.4 91.7 L 149.1 91.7 L 149.1 100.6 C 149.1 100.6 149.32 100.62 149.3 100.6 C 149.7 99.6 150.4 98.8 151.2 98.2 C 152.1 97.6 153.2 97.3 154.5 97.3 C 155.7 97.3 156.8 97.6 157.7 98.1 C 158.6 98.6 159.3 99.4 159.8 100.4 C 160.3 101.4 160.6 102.5 160.6 103.9 C 160.57 103.89 160.6 115 160.6 115 L 155.7 115 C 155.7 115 155.73 104.75 155.7 104.7 C 155.7 103.7 155.5 102.8 154.9 102.2 C 154.4 101.6 153.6 101.3 152.6 101.3 C 152 101.3 151.4 101.5 150.9 101.8 C 150.4 102 150 102.4 149.7 103 C 149.4 103.5 149.3 104.2 149.3 104.9 Z M 173.3 97.5 L 173.3 101.2 L 162.7 101.2 L 162.7 97.5 L 173.3 97.5 Z M 165.1 93.4 L 170 93.4 C 170 93.4 169.97 109.64 170 109.6 C 170 110.1 170 110.4 170.2 110.7 C 170.3 110.9 170.5 111.1 170.7 111.2 C 171 111.3 171.3 111.3 171.6 111.3 C 171.8 111.3 172.1 111.3 172.3 111.3 C 172.5 111.2 172.7 111.2 172.8 111.2 C 172.8 111.2 173.6 114.8 173.6 114.8 C 173.3 114.9 173 114.9 172.5 115.1 C 172.1 115.2 171.6 115.2 170.9 115.2 C 169.8 115.3 168.8 115.1 167.9 114.8 C 167 114.4 166.3 113.9 165.8 113.1 C 165.4 112.4 165.1 111.4 165.1 110.3 C 165.13 110.27 165.1 93.4 165.1 93.4 Z M 190.5 102.5 C 190.5 102.5 186 102.8 186 102.8 C 186 102.4 185.8 102.1 185.5 101.8 C 185.3 101.5 185 101.2 184.6 101 C 184.2 100.8 183.7 100.7 183.1 100.7 C 182.4 100.7 181.7 100.9 181.2 101.2 C 180.7 101.5 180.4 102 180.4 102.5 C 180.4 102.9 180.6 103.2 180.9 103.5 C 181.3 103.8 181.8 104.1 182.7 104.2 C 182.7 104.2 185.8 104.9 185.8 104.9 C 187.5 105.2 188.8 105.8 189.6 106.5 C 190.4 107.3 190.9 108.3 190.9 109.6 C 190.9 110.7 190.5 111.7 189.9 112.6 C 189.2 113.5 188.3 114.1 187.1 114.6 C 185.9 115.1 184.6 115.3 183.1 115.3 C 180.8 115.3 178.9 114.9 177.6 113.9 C 176.2 112.9 175.4 111.6 175.2 109.9 C 175.2 109.9 179.9 109.7 179.9 109.7 C 180.1 110.4 180.4 110.9 181 111.3 C 181.5 111.7 182.2 111.9 183.1 111.9 C 184 111.9 184.6 111.7 185.2 111.4 C 185.7 111 185.9 110.6 185.9 110.1 C 185.9 109.6 185.7 109.3 185.4 109 C 185 108.7 184.5 108.5 183.7 108.3 C 183.7 108.3 180.7 107.7 180.7 107.7 C 179 107.4 177.7 106.8 176.9 106 C 176.1 105.1 175.6 104.1 175.6 102.7 C 175.6 101.6 175.9 100.7 176.6 99.9 C 177.2 99 178 98.4 179.1 98 C 180.2 97.5 181.5 97.3 183 97.3 C 185.2 97.3 187 97.8 188.2 98.7 C 189.5 99.6 190.3 100.9 190.5 102.5 Z " stroke="none" fill="#10283d"/>  </g>  <g id="Polygon125435">    <path d="M 54.5 73.3 C 53.4 73.3 52.4 73.1 51.6 72.7 C 50.7 72.4 50 71.8 49.5 71 C 49 70.2 48.7 69.3 48.7 68.1 C 48.7 67.2 48.9 66.3 49.3 65.7 C 49.6 65 50.1 64.5 50.7 64.1 C 51.4 63.7 52 63.4 52.8 63.2 C 53.6 63 54.4 62.8 55.3 62.7 C 56.3 62.6 57.1 62.5 57.8 62.4 C 58.4 62.4 58.8 62.2 59.1 62 C 59.4 61.8 59.5 61.6 59.5 61.2 C 59.5 61.2 59.5 61.1 59.5 61.1 C 59.5 60.4 59.3 59.8 58.9 59.4 C 58.4 59 57.8 58.9 56.9 58.9 C 56.1 58.9 55.4 59 54.9 59.4 C 54.3 59.8 54 60.3 53.8 60.9 C 53.8 60.9 49.4 60.5 49.4 60.5 C 49.6 59.4 50 58.5 50.7 57.7 C 51.4 57 52.2 56.4 53.3 55.9 C 54.3 55.5 55.6 55.3 57 55.3 C 57.9 55.3 58.9 55.4 59.8 55.7 C 60.6 55.9 61.4 56.2 62.1 56.7 C 62.8 57.2 63.4 57.8 63.8 58.6 C 64.2 59.3 64.4 60.2 64.4 61.2 C 64.37 61.23 64.4 73 64.4 73 L 59.8 73 L 59.8 70.6 C 59.8 70.6 59.65 70.58 59.6 70.6 C 59.4 71.1 59 71.6 58.5 72 C 58.1 72.4 57.5 72.8 56.8 73 C 56.2 73.2 55.4 73.3 54.5 73.3 Z M 55.9 70 C 56.6 70 57.3 69.8 57.8 69.6 C 58.4 69.3 58.8 68.9 59.1 68.4 C 59.4 67.9 59.6 67.4 59.6 66.8 C 59.6 66.8 59.6 64.9 59.6 64.9 C 59.4 65 59.2 65.1 58.9 65.2 C 58.7 65.3 58.4 65.3 58.1 65.4 C 57.7 65.5 57.4 65.5 57.1 65.6 C 56.8 65.6 56.5 65.7 56.2 65.7 C 55.6 65.8 55.1 65.9 54.7 66.1 C 54.3 66.3 54 66.5 53.7 66.8 C 53.5 67.1 53.4 67.5 53.4 68 C 53.4 68.6 53.6 69.1 54.1 69.5 C 54.6 69.8 55.2 70 55.9 70 Z M 75.9 73.3 C 74.1 73.3 72.6 73 71.3 72.2 C 70 71.4 69.1 70.4 68.4 69 C 67.7 67.7 67.3 66.1 67.3 64.3 C 67.3 62.6 67.7 61 68.4 59.6 C 69.1 58.3 70.1 57.2 71.3 56.5 C 72.6 55.7 74.1 55.3 75.9 55.3 C 77.4 55.3 78.8 55.6 79.9 56.1 C 81.1 56.7 82 57.5 82.6 58.5 C 83.3 59.5 83.7 60.7 83.7 62 C 83.7 62 79.2 62 79.2 62 C 79 61.1 78.7 60.4 78.1 59.9 C 77.6 59.4 76.9 59.1 76 59.1 C 75.2 59.1 74.6 59.3 74 59.7 C 73.5 60.1 73 60.7 72.7 61.5 C 72.4 62.2 72.3 63.2 72.3 64.3 C 72.3 65.4 72.4 66.3 72.7 67.1 C 73 67.9 73.5 68.5 74 68.9 C 74.6 69.3 75.2 69.5 76 69.5 C 76.5 69.5 77 69.4 77.5 69.2 C 77.9 68.9 78.3 68.6 78.6 68.2 C 78.9 67.7 79.1 67.2 79.2 66.6 C 79.2 66.6 83.7 66.6 83.7 66.6 C 83.7 67.9 83.3 69.1 82.6 70.1 C 82 71.1 81.1 71.9 80 72.5 C 78.8 73.1 77.5 73.3 75.9 73.3 Z M 95.9 55.5 L 95.9 59.2 L 85.4 59.2 L 85.4 55.5 L 95.9 55.5 Z M 87.8 51.4 L 92.7 51.4 C 92.7 51.4 92.66 67.64 92.7 67.6 C 92.7 68.1 92.7 68.4 92.9 68.7 C 93 68.9 93.2 69.1 93.4 69.2 C 93.7 69.3 94 69.3 94.3 69.3 C 94.5 69.3 94.8 69.3 95 69.3 C 95.2 69.2 95.4 69.2 95.5 69.2 C 95.5 69.2 96.3 72.8 96.3 72.8 C 96 72.9 95.7 72.9 95.2 73.1 C 94.8 73.2 94.3 73.2 93.6 73.2 C 92.5 73.3 91.5 73.1 90.6 72.8 C 89.7 72.4 89 71.9 88.5 71.1 C 88.1 70.4 87.8 69.4 87.8 68.3 C 87.82 68.27 87.8 51.4 87.8 51.4 Z M 99 73 L 99 55.5 L 103.8 55.5 L 103.8 73 L 99 73 Z M 101.4 53.3 C 100.7 53.3 100.1 53.1 99.5 52.6 C 99 52.1 98.8 51.5 98.8 50.9 C 98.8 50.2 99 49.6 99.5 49.1 C 100.1 48.6 100.7 48.4 101.4 48.4 C 102.1 48.4 102.7 48.6 103.2 49.1 C 103.7 49.6 104 50.2 104 50.8 C 104 51.5 103.7 52.1 103.2 52.6 C 102.7 53.1 102.1 53.3 101.4 53.3 Z M 115.5 73.3 C 113.7 73.3 112.2 73 110.9 72.2 C 109.6 71.5 108.6 70.4 107.9 69.1 C 107.2 67.7 106.9 66.1 106.9 64.3 C 106.9 62.5 107.2 61 107.9 59.6 C 108.6 58.3 109.6 57.2 110.9 56.4 C 112.2 55.7 113.7 55.3 115.5 55.3 C 117.2 55.3 118.7 55.7 120 56.4 C 121.3 57.2 122.3 58.3 123 59.6 C 123.7 61 124 62.5 124 64.3 C 124 66.1 123.7 67.7 123 69.1 C 122.3 70.4 121.3 71.5 120 72.2 C 118.7 73 117.2 73.3 115.5 73.3 Z M 115.5 69.6 C 116.3 69.6 116.9 69.4 117.5 68.9 C 118 68.4 118.4 67.8 118.7 67 C 119 66.2 119.1 65.3 119.1 64.3 C 119.1 63.3 119 62.4 118.7 61.6 C 118.4 60.8 118 60.2 117.5 59.7 C 116.9 59.2 116.3 59 115.5 59 C 114.7 59 114 59.2 113.4 59.7 C 112.9 60.2 112.5 60.8 112.2 61.6 C 111.9 62.4 111.8 63.3 111.8 64.3 C 111.8 65.3 111.9 66.2 112.2 67 C 112.5 67.8 112.9 68.4 113.4 68.9 C 114 69.4 114.7 69.6 115.5 69.6 Z M 132 62.9 C 131.96 62.91 132 73 132 73 L 127.1 73 L 127.1 55.5 L 131.7 55.5 L 131.7 58.6 C 131.7 58.6 131.93 58.62 131.9 58.6 C 132.3 57.6 133 56.8 133.9 56.2 C 134.8 55.6 135.9 55.3 137.2 55.3 C 138.4 55.3 139.5 55.6 140.4 56.1 C 141.3 56.6 142 57.4 142.5 58.4 C 143 59.4 143.2 60.5 143.2 61.9 C 143.21 61.89 143.2 73 143.2 73 L 138.4 73 C 138.4 73 138.37 62.75 138.4 62.7 C 138.4 61.7 138.1 60.8 137.5 60.2 C 137 59.6 136.2 59.3 135.3 59.3 C 134.6 59.3 134 59.5 133.5 59.8 C 133 60 132.7 60.4 132.4 61 C 132.1 61.5 132 62.2 132 62.9 Z M 151.9 73.3 C 150.8 73.3 149.8 73.1 148.9 72.7 C 148 72.4 147.3 71.8 146.8 71 C 146.3 70.2 146.1 69.3 146.1 68.1 C 146.1 67.2 146.3 66.3 146.6 65.7 C 147 65 147.5 64.5 148.1 64.1 C 148.7 63.7 149.4 63.4 150.2 63.2 C 151 63 151.8 62.8 152.6 62.7 C 153.7 62.6 154.5 62.5 155.1 62.4 C 155.7 62.4 156.2 62.2 156.5 62 C 156.7 61.8 156.9 61.6 156.9 61.2 C 156.9 61.2 156.9 61.1 156.9 61.1 C 156.9 60.4 156.6 59.8 156.2 59.4 C 155.7 59 155.1 58.9 154.3 58.9 C 153.4 58.9 152.7 59 152.2 59.4 C 151.7 59.8 151.3 60.3 151.2 60.9 C 151.2 60.9 146.7 60.5 146.7 60.5 C 146.9 59.4 147.4 58.5 148 57.7 C 148.7 57 149.6 56.4 150.6 55.9 C 151.7 55.5 152.9 55.3 154.3 55.3 C 155.3 55.3 156.2 55.4 157.1 55.7 C 158 55.9 158.8 56.2 159.5 56.7 C 160.2 57.2 160.7 57.8 161.1 58.6 C 161.5 59.3 161.7 60.2 161.7 61.2 C 161.71 61.23 161.7 73 161.7 73 L 157.1 73 L 157.1 70.6 C 157.1 70.6 156.98 70.58 157 70.6 C 156.7 71.1 156.3 71.6 155.9 72 C 155.4 72.4 154.8 72.8 154.2 73 C 153.5 73.2 152.7 73.3 151.9 73.3 Z M 153.3 70 C 154 70 154.6 69.8 155.2 69.6 C 155.7 69.3 156.1 68.9 156.4 68.4 C 156.7 67.9 156.9 67.4 156.9 66.8 C 156.9 66.8 156.9 64.9 156.9 64.9 C 156.8 65 156.5 65.1 156.3 65.2 C 156 65.3 155.7 65.3 155.4 65.4 C 155.1 65.5 154.8 65.5 154.4 65.6 C 154.1 65.6 153.8 65.7 153.5 65.7 C 153 65.8 152.5 65.9 152.1 66.1 C 151.6 66.3 151.3 66.5 151.1 66.8 C 150.8 67.1 150.7 67.5 150.7 68 C 150.7 68.6 151 69.1 151.4 69.5 C 151.9 69.8 152.5 70 153.3 70 Z M 165.6 73 L 165.6 49.7 L 170.4 49.7 L 170.4 58.5 C 170.4 58.5 170.56 58.48 170.6 58.5 C 170.8 58 171.1 57.5 171.5 57 C 171.9 56.6 172.4 56.1 173.1 55.8 C 173.7 55.5 174.5 55.3 175.5 55.3 C 176.8 55.3 178 55.6 179 56.3 C 180.1 57 181 58 181.6 59.3 C 182.3 60.6 182.6 62.3 182.6 64.3 C 182.6 66.2 182.3 67.9 181.7 69.2 C 181 70.6 180.2 71.6 179.1 72.3 C 178 72.9 176.8 73.3 175.5 73.3 C 174.6 73.3 173.8 73.1 173.1 72.8 C 172.5 72.5 171.9 72.1 171.5 71.6 C 171.1 71.2 170.8 70.7 170.6 70.2 C 170.56 70.2 170.3 70.2 170.3 70.2 L 170.3 73 L 165.6 73 Z M 170.3 64.3 C 170.3 65.3 170.5 66.2 170.7 67 C 171 67.8 171.4 68.4 172 68.8 C 172.5 69.2 173.2 69.4 174 69.4 C 174.8 69.4 175.4 69.2 176 68.8 C 176.5 68.3 176.9 67.7 177.2 67 C 177.5 66.2 177.6 65.3 177.6 64.3 C 177.6 63.3 177.5 62.4 177.2 61.6 C 176.9 60.8 176.5 60.2 176 59.8 C 175.4 59.4 174.8 59.2 174 59.2 C 173.2 59.2 172.5 59.4 172 59.8 C 171.4 60.2 171 60.8 170.7 61.6 C 170.5 62.3 170.3 63.2 170.3 64.3 Z M 190.6 49.7 L 190.6 73 L 185.8 73 L 185.8 49.7 L 190.6 49.7 Z M 202.4 73.3 C 200.6 73.3 199 73 197.8 72.2 C 196.5 71.5 195.5 70.5 194.8 69.1 C 194.1 67.8 193.7 66.2 193.7 64.4 C 193.7 62.6 194.1 61 194.8 59.6 C 195.5 58.3 196.5 57.2 197.7 56.5 C 199 55.7 200.5 55.3 202.2 55.3 C 203.3 55.3 204.4 55.5 205.4 55.9 C 206.4 56.2 207.3 56.8 208 57.5 C 208.8 58.3 209.4 59.2 209.8 60.3 C 210.2 61.4 210.4 62.7 210.4 64.2 C 210.4 64.18 210.4 65.5 210.4 65.5 L 195.7 65.5 L 195.7 62.5 C 195.7 62.5 205.84 62.51 205.8 62.5 C 205.8 61.8 205.7 61.2 205.4 60.7 C 205.1 60.1 204.7 59.7 204.1 59.4 C 203.6 59.1 203 58.9 202.3 58.9 C 201.5 58.9 200.9 59.1 200.3 59.4 C 199.8 59.8 199.3 60.2 199 60.8 C 198.7 61.4 198.5 62 198.5 62.7 C 198.5 62.7 198.5 65.5 198.5 65.5 C 198.5 66.4 198.7 67.1 199 67.8 C 199.3 68.4 199.8 68.9 200.4 69.2 C 201 69.6 201.7 69.7 202.5 69.7 C 203 69.7 203.5 69.7 203.9 69.5 C 204.4 69.3 204.8 69.1 205.1 68.8 C 205.4 68.5 205.7 68.1 205.8 67.7 C 205.8 67.7 210.3 68 210.3 68 C 210.1 69.1 209.6 70 208.9 70.8 C 208.2 71.6 207.3 72.2 206.2 72.7 C 205.1 73.1 203.8 73.3 202.4 73.3 Z " stroke="none" fill="#10283d"/>  </g>  <g id="Polygon125434">    <path d="M 7.2 31 L 7.2 7.7 C 7.2 7.7 16.38 7.73 16.4 7.7 C 18.1 7.7 19.7 8.1 20.9 8.7 C 22.1 9.4 23.1 10.3 23.7 11.5 C 24.4 12.7 24.7 14.1 24.7 15.6 C 24.7 17.2 24.4 18.5 23.7 19.7 C 23.1 20.9 22.1 21.8 20.8 22.5 C 19.6 23.1 18 23.5 16.3 23.5 C 16.26 23.45 10.4 23.5 10.4 23.5 L 10.4 19.5 C 10.4 19.5 15.46 19.51 15.5 19.5 C 16.4 19.5 17.2 19.3 17.8 19 C 18.4 18.7 18.9 18.2 19.2 17.6 C 19.5 17.1 19.7 16.4 19.7 15.6 C 19.7 14.8 19.5 14.2 19.2 13.6 C 18.9 13 18.4 12.6 17.8 12.2 C 17.2 11.9 16.4 11.7 15.4 11.7 C 15.44 11.75 12.1 11.7 12.1 11.7 L 12.1 31 L 7.2 31 Z M 27.5 31 L 27.5 13.5 L 32.2 13.5 L 32.2 16.6 C 32.2 16.6 32.35 16.59 32.4 16.6 C 32.7 15.5 33.2 14.7 34 14.1 C 34.7 13.6 35.6 13.3 36.5 13.3 C 36.8 13.3 37.1 13.3 37.3 13.3 C 37.6 13.4 37.9 13.4 38.1 13.5 C 38.1 13.5 38.1 17.8 38.1 17.8 C 37.8 17.7 37.5 17.6 37.1 17.6 C 36.7 17.5 36.4 17.5 36 17.5 C 35.3 17.5 34.7 17.7 34.1 18 C 33.6 18.3 33.1 18.7 32.8 19.2 C 32.5 19.8 32.3 20.4 32.3 21.1 C 32.32 21.12 32.3 31 32.3 31 L 27.5 31 Z M 48.2 31.3 C 46.4 31.3 44.9 31 43.6 30.2 C 42.3 29.5 41.4 28.4 40.7 27.1 C 40 25.7 39.6 24.1 39.6 22.3 C 39.6 20.5 40 19 40.7 17.6 C 41.4 16.3 42.3 15.2 43.6 14.4 C 44.9 13.7 46.4 13.3 48.2 13.3 C 50 13.3 51.5 13.7 52.8 14.4 C 54.1 15.2 55 16.3 55.7 17.6 C 56.4 19 56.8 20.5 56.8 22.3 C 56.8 24.1 56.4 25.7 55.7 27.1 C 55 28.4 54.1 29.5 52.8 30.2 C 51.5 31 50 31.3 48.2 31.3 Z M 48.2 27.6 C 49 27.6 49.7 27.4 50.2 26.9 C 50.8 26.4 51.2 25.8 51.5 25 C 51.7 24.2 51.9 23.3 51.9 22.3 C 51.9 21.3 51.7 20.4 51.5 19.6 C 51.2 18.8 50.8 18.2 50.2 17.7 C 49.7 17.2 49 17 48.2 17 C 47.4 17 46.7 17.2 46.2 17.7 C 45.6 18.2 45.2 18.8 44.9 19.6 C 44.7 20.4 44.5 21.3 44.5 22.3 C 44.5 23.3 44.7 24.2 44.9 25 C 45.2 25.8 45.6 26.4 46.2 26.9 C 46.7 27.4 47.4 27.6 48.2 27.6 Z M 75.3 13.5 L 69.2 31 L 63.7 31 L 57.6 13.5 L 62.8 13.5 L 66.4 26 L 66.6 26 L 70.2 13.5 L 75.3 13.5 Z M 77.6 31 L 77.6 13.5 L 82.4 13.5 L 82.4 31 L 77.6 31 Z M 80 11.3 C 79.3 11.3 78.7 11.1 78.1 10.6 C 77.6 10.1 77.4 9.5 77.4 8.9 C 77.4 8.2 77.6 7.6 78.1 7.1 C 78.7 6.6 79.3 6.4 80 6.4 C 80.7 6.4 81.3 6.6 81.8 7.1 C 82.3 7.6 82.6 8.2 82.6 8.8 C 82.6 9.5 82.3 10.1 81.8 10.6 C 81.3 11.1 80.7 11.3 80 11.3 Z M 92.6 31.3 C 91.3 31.3 90.1 30.9 89 30.3 C 88 29.6 87.1 28.6 86.5 27.2 C 85.9 25.9 85.5 24.2 85.5 22.3 C 85.5 20.3 85.9 18.6 86.5 17.3 C 87.2 16 88 15 89.1 14.3 C 90.2 13.6 91.3 13.3 92.6 13.3 C 93.6 13.3 94.4 13.5 95.1 13.8 C 95.7 14.1 96.2 14.6 96.7 15 C 97.1 15.5 97.4 16 97.6 16.5 C 97.58 16.48 97.7 16.5 97.7 16.5 L 97.7 7.7 L 102.6 7.7 L 102.6 31 L 97.8 31 L 97.8 28.2 C 97.8 28.2 97.58 28.2 97.6 28.2 C 97.4 28.7 97 29.2 96.6 29.6 C 96.2 30.1 95.7 30.5 95 30.8 C 94.4 31.1 93.6 31.3 92.6 31.3 Z M 94.2 27.4 C 94.9 27.4 95.6 27.2 96.1 26.8 C 96.7 26.4 97.1 25.8 97.4 25 C 97.7 24.2 97.8 23.3 97.8 22.3 C 97.8 21.2 97.7 20.3 97.4 19.6 C 97.1 18.8 96.7 18.2 96.1 17.8 C 95.6 17.4 94.9 17.2 94.2 17.2 C 93.4 17.2 92.7 17.4 92.1 17.8 C 91.6 18.2 91.2 18.8 90.9 19.6 C 90.6 20.4 90.5 21.3 90.5 22.3 C 90.5 23.3 90.6 24.2 90.9 25 C 91.2 25.7 91.6 26.3 92.2 26.8 C 92.7 27.2 93.4 27.4 94.2 27.4 Z M 114.4 31.3 C 112.6 31.3 111 31 109.8 30.2 C 108.5 29.5 107.5 28.5 106.8 27.1 C 106.1 25.8 105.7 24.2 105.7 22.4 C 105.7 20.6 106.1 19 106.8 17.6 C 107.5 16.3 108.5 15.2 109.7 14.5 C 111 13.7 112.5 13.3 114.2 13.3 C 115.3 13.3 116.4 13.5 117.4 13.9 C 118.4 14.2 119.3 14.8 120 15.5 C 120.8 16.3 121.4 17.2 121.8 18.3 C 122.2 19.4 122.4 20.7 122.4 22.2 C 122.4 22.18 122.4 23.5 122.4 23.5 L 107.7 23.5 L 107.7 20.5 C 107.7 20.5 117.84 20.51 117.8 20.5 C 117.8 19.8 117.7 19.2 117.4 18.7 C 117.1 18.1 116.7 17.7 116.1 17.4 C 115.6 17.1 115 16.9 114.3 16.9 C 113.5 16.9 112.9 17.1 112.3 17.4 C 111.8 17.8 111.3 18.2 111 18.8 C 110.7 19.4 110.5 20 110.5 20.7 C 110.5 20.7 110.5 23.5 110.5 23.5 C 110.5 24.4 110.7 25.1 111 25.8 C 111.3 26.4 111.8 26.9 112.4 27.2 C 113 27.6 113.7 27.7 114.5 27.7 C 115 27.7 115.5 27.7 115.9 27.5 C 116.4 27.3 116.8 27.1 117.1 26.8 C 117.4 26.5 117.6 26.1 117.8 25.7 C 117.8 25.7 122.3 26 122.3 26 C 122.1 27.1 121.6 28 120.9 28.8 C 120.2 29.6 119.3 30.2 118.2 30.7 C 117.1 31.1 115.8 31.3 114.4 31.3 Z M 142.3 13.5 L 142.3 17.2 L 131.7 17.2 L 131.7 13.5 L 142.3 13.5 Z M 134.1 9.4 L 139 9.4 C 139 9.4 138.97 25.64 139 25.6 C 139 26.1 139 26.4 139.2 26.7 C 139.3 26.9 139.5 27.1 139.8 27.2 C 140 27.3 140.3 27.3 140.6 27.3 C 140.8 27.3 141.1 27.3 141.3 27.3 C 141.5 27.2 141.7 27.2 141.8 27.2 C 141.8 27.2 142.6 30.8 142.6 30.8 C 142.3 30.9 142 30.9 141.6 31.1 C 141.1 31.2 140.6 31.2 140 31.2 C 138.8 31.3 137.8 31.1 136.9 30.8 C 136 30.4 135.3 29.9 134.8 29.1 C 134.4 28.4 134.1 27.4 134.1 26.3 C 134.13 26.27 134.1 9.4 134.1 9.4 Z M 145.2 31 L 145.2 13.5 L 149.9 13.5 L 149.9 16.6 C 149.9 16.6 150.12 16.59 150.1 16.6 C 150.4 15.5 151 14.7 151.7 14.1 C 152.5 13.6 153.3 13.3 154.3 13.3 C 154.6 13.3 154.8 13.3 155.1 13.3 C 155.4 13.4 155.6 13.4 155.8 13.5 C 155.8 13.5 155.8 17.8 155.8 17.8 C 155.6 17.7 155.3 17.6 154.9 17.6 C 154.5 17.5 154.1 17.5 153.8 17.5 C 153.1 17.5 152.4 17.7 151.9 18 C 151.3 18.3 150.9 18.7 150.6 19.2 C 150.2 19.8 150.1 20.4 150.1 21.1 C 150.08 21.12 150.1 31 150.1 31 L 145.2 31 Z M 169.3 23.6 C 169.3 23.57 169.3 13.5 169.3 13.5 L 174.1 13.5 L 174.1 31 L 169.5 31 L 169.5 27.8 C 169.5 27.8 169.31 27.83 169.3 27.8 C 168.9 28.9 168.3 29.7 167.3 30.3 C 166.4 30.9 165.3 31.2 164 31.2 C 162.8 31.2 161.8 31 160.9 30.4 C 160 29.9 159.4 29.1 158.9 28.2 C 158.4 27.2 158.1 26 158.1 24.7 C 158.1 24.66 158.1 13.5 158.1 13.5 L 162.9 13.5 C 162.9 13.5 162.95 23.8 162.9 23.8 C 163 24.8 163.2 25.6 163.8 26.2 C 164.3 26.8 165.1 27.1 166 27.1 C 166.6 27.1 167.1 27 167.6 26.7 C 168.1 26.5 168.5 26.1 168.8 25.5 C 169.2 25 169.3 24.3 169.3 23.6 Z M 192.4 18.5 C 192.4 18.5 188 18.8 188 18.8 C 187.9 18.4 187.7 18.1 187.5 17.8 C 187.2 17.5 186.9 17.2 186.5 17 C 186.1 16.8 185.6 16.7 185.1 16.7 C 184.3 16.7 183.7 16.9 183.2 17.2 C 182.6 17.5 182.4 18 182.4 18.5 C 182.4 18.9 182.6 19.2 182.9 19.5 C 183.2 19.8 183.8 20.1 184.6 20.2 C 184.6 20.2 187.8 20.9 187.8 20.9 C 189.5 21.2 190.7 21.8 191.6 22.5 C 192.4 23.3 192.8 24.3 192.8 25.6 C 192.8 26.7 192.5 27.7 191.8 28.6 C 191.1 29.5 190.2 30.1 189.1 30.6 C 187.9 31.1 186.6 31.3 185 31.3 C 182.7 31.3 180.9 30.9 179.5 29.9 C 178.2 28.9 177.4 27.6 177.1 25.9 C 177.1 25.9 181.9 25.7 181.9 25.7 C 182 26.4 182.4 26.9 182.9 27.3 C 183.5 27.7 184.2 27.9 185 27.9 C 185.9 27.9 186.6 27.7 187.1 27.4 C 187.6 27 187.9 26.6 187.9 26.1 C 187.9 25.6 187.7 25.3 187.3 25 C 187 24.7 186.4 24.5 185.7 24.3 C 185.7 24.3 182.6 23.7 182.6 23.7 C 180.9 23.4 179.7 22.8 178.8 22 C 178 21.1 177.6 20.1 177.6 18.7 C 177.6 17.6 177.9 16.7 178.5 15.9 C 179.1 15 180 14.4 181.1 14 C 182.2 13.5 183.5 13.3 185 13.3 C 187.2 13.3 188.9 13.8 190.2 14.7 C 191.5 15.6 192.2 16.9 192.4 18.5 Z M 205 13.5 L 205 17.2 L 194.4 17.2 L 194.4 13.5 L 205 13.5 Z M 196.8 9.4 L 201.7 9.4 C 201.7 9.4 201.67 25.64 201.7 25.6 C 201.7 26.1 201.7 26.4 201.9 26.7 C 202 26.9 202.2 27.1 202.4 27.2 C 202.7 27.3 203 27.3 203.3 27.3 C 203.5 27.3 203.8 27.3 204 27.3 C 204.2 27.2 204.4 27.2 204.5 27.2 C 204.5 27.2 205.3 30.8 205.3 30.8 C 205 30.9 204.7 30.9 204.2 31.1 C 203.8 31.2 203.3 31.2 202.6 31.2 C 201.5 31.3 200.5 31.1 199.6 30.8 C 198.7 30.4 198 29.9 197.5 29.1 C 197.1 28.4 196.8 27.4 196.8 26.3 C 196.83 26.27 196.8 9.4 196.8 9.4 Z M 215.4 31.3 C 213.6 31.3 212.1 31 210.8 30.2 C 209.5 29.5 208.5 28.5 207.8 27.1 C 207.1 25.8 206.7 24.2 206.7 22.4 C 206.7 20.6 207.1 19 207.8 17.6 C 208.5 16.3 209.5 15.2 210.7 14.5 C 212 13.7 213.5 13.3 215.2 13.3 C 216.3 13.3 217.4 13.5 218.4 13.9 C 219.4 14.2 220.3 14.8 221 15.5 C 221.8 16.3 222.4 17.2 222.8 18.3 C 223.2 19.4 223.4 20.7 223.4 22.2 C 223.4 22.18 223.4 23.5 223.4 23.5 L 208.7 23.5 L 208.7 20.5 C 208.7 20.5 218.84 20.51 218.8 20.5 C 218.8 19.8 218.7 19.2 218.4 18.7 C 218.1 18.1 217.7 17.7 217.1 17.4 C 216.6 17.1 216 16.9 215.3 16.9 C 214.5 16.9 213.9 17.1 213.3 17.4 C 212.8 17.8 212.3 18.2 212 18.8 C 211.7 19.4 211.5 20 211.5 20.7 C 211.5 20.7 211.5 23.5 211.5 23.5 C 211.5 24.4 211.7 25.1 212 25.8 C 212.3 26.4 212.8 26.9 213.4 27.2 C 214 27.6 214.7 27.7 215.5 27.7 C 216 27.7 216.5 27.7 216.9 27.5 C 217.4 27.3 217.8 27.1 218.1 26.8 C 218.4 26.5 218.7 26.1 218.8 25.7 C 218.8 25.7 223.3 26 223.3 26 C 223.1 27.1 222.6 28 221.9 28.8 C 221.2 29.6 220.3 30.2 219.2 30.7 C 218.1 31.1 216.8 31.3 215.4 31.3 Z M 232.9 31.3 C 231.6 31.3 230.4 30.9 229.3 30.3 C 228.2 29.6 227.4 28.6 226.8 27.2 C 226.1 25.9 225.8 24.2 225.8 22.3 C 225.8 20.3 226.2 18.6 226.8 17.3 C 227.4 16 228.3 15 229.4 14.3 C 230.4 13.6 231.6 13.3 232.9 13.3 C 233.9 13.3 234.7 13.5 235.4 13.8 C 236 14.1 236.5 14.6 236.9 15 C 237.3 15.5 237.7 16 237.9 16.5 C 237.87 16.48 238 16.5 238 16.5 L 238 7.7 L 242.8 7.7 L 242.8 31 L 238.1 31 L 238.1 28.2 C 238.1 28.2 237.87 28.2 237.9 28.2 C 237.6 28.7 237.3 29.2 236.9 29.6 C 236.5 30.1 236 30.5 235.3 30.8 C 234.7 31.1 233.9 31.3 232.9 31.3 Z M 234.4 27.4 C 235.2 27.4 235.9 27.2 236.4 26.8 C 237 26.4 237.4 25.8 237.7 25 C 238 24.2 238.1 23.3 238.1 22.3 C 238.1 21.2 238 20.3 237.7 19.6 C 237.4 18.8 237 18.2 236.4 17.8 C 235.9 17.4 235.2 17.2 234.4 17.2 C 233.7 17.2 233 17.4 232.4 17.8 C 231.9 18.2 231.5 18.8 231.2 19.6 C 230.9 20.4 230.8 21.3 230.8 22.3 C 230.8 23.3 230.9 24.2 231.2 25 C 231.5 25.7 231.9 26.3 232.4 26.8 C 233 27.2 233.7 27.4 234.4 27.4 Z M 251.6 27.8 C 251.6 27.8 251.46 29.07 251.5 29.1 C 251.4 30.1 251.2 31.1 250.9 32.1 C 250.6 33.1 250.3 34 250 34.8 C 249.7 35.6 249.5 36.2 249.3 36.7 C 249.3 36.7 246.2 36.7 246.2 36.7 C 246.3 36.2 246.4 35.6 246.6 34.8 C 246.8 34 247 33.1 247.2 32.1 C 247.4 31.1 247.5 30.1 247.5 29.1 C 247.52 29.09 247.6 27.8 247.6 27.8 L 251.6 27.8 Z " stroke="none" fill="#10283d"/>  </g></svg>