<?xml version="1.0" standalone="no"?><!DOCTYPE svg PUBLIC "-//W3C//DTD SVG 1.1//EN" "http://www.w3.org/Graphics/SVG/1.1/DTD/svg11.dtd"><svg xmlns="http://www.w3.org/2000/svg" version="1.1" width="121px" height="25.4px" viewBox="0 -3 121 25.4" style="top:-3px">  <desc>4 / 19</desc>  <defs/>  <g id="Polygon110701">    <path d="M 42.9 11.5 L 42.9 10.5 L 47.3 3.4 L 48.1 3.4 L 48.1 5 L 47.6 5 L 44.2 10.3 L 44.2 10.4 L 50.2 10.4 L 50.2 11.5 L 42.9 11.5 Z M 47.6 13.6 L 47.6 11.2 L 47.6 10.7 L 47.6 3.4 L 48.8 3.4 L 48.8 13.6 L 47.6 13.6 Z M 59.6 2.9 L 56.4 15.1 L 55.3 15.1 L 58.6 2.9 L 59.6 2.9 Z M 68.5 3.4 L 68.5 13.6 L 67.3 13.6 L 67.3 4.7 L 67.2 4.7 L 64.7 6.3 L 64.7 5.1 L 67.3 3.4 L 68.5 3.4 Z M 74.4 3.2 C 74.8 3.2 75.2 3.3 75.7 3.5 C 76.1 3.6 76.5 3.9 76.8 4.3 C 77.1 4.6 77.4 5.1 77.6 5.7 C 77.8 6.3 77.9 7.1 77.9 8.1 C 77.9 9 77.9 9.8 77.7 10.5 C 77.5 11.2 77.3 11.8 77 12.2 C 76.6 12.7 76.2 13.1 75.8 13.3 C 75.3 13.6 74.8 13.7 74.2 13.7 C 73.7 13.7 73.2 13.6 72.7 13.4 C 72.3 13.1 71.9 12.8 71.6 12.4 C 71.3 12 71.2 11.5 71.1 11 C 71.1 11 72.3 11 72.3 11 C 72.4 11.5 72.6 11.8 73 12.2 C 73.3 12.5 73.7 12.6 74.2 12.6 C 75 12.6 75.7 12.3 76.1 11.6 C 76.6 10.9 76.8 9.9 76.8 8.7 C 76.8 8.7 76.7 8.7 76.7 8.7 C 76.5 8.9 76.3 9.2 76 9.4 C 75.8 9.6 75.5 9.7 75.2 9.9 C 74.9 10 74.6 10 74.2 10 C 73.6 10 73.1 9.9 72.6 9.6 C 72.1 9.3 71.7 8.9 71.4 8.4 C 71.1 7.9 71 7.3 71 6.6 C 71 6 71.1 5.4 71.4 4.9 C 71.7 4.4 72.1 4 72.6 3.7 C 73.1 3.4 73.7 3.2 74.4 3.2 Z M 74.4 4.3 C 74 4.3 73.6 4.4 73.3 4.6 C 72.9 4.9 72.7 5.1 72.5 5.5 C 72.3 5.8 72.2 6.2 72.2 6.6 C 72.2 7.1 72.3 7.5 72.5 7.8 C 72.7 8.1 72.9 8.4 73.2 8.6 C 73.6 8.8 73.9 8.9 74.4 8.9 C 74.7 8.9 75 8.9 75.2 8.7 C 75.5 8.6 75.8 8.4 76 8.2 C 76.2 8 76.3 7.8 76.4 7.5 C 76.6 7.2 76.6 6.9 76.6 6.6 C 76.6 6.2 76.5 5.9 76.3 5.5 C 76.1 5.2 75.9 4.9 75.5 4.7 C 75.2 4.4 74.8 4.3 74.4 4.3 Z " stroke="none" fill="#10283d"/>  </g></svg>