<?xml version="1.0" standalone="no"?><!DOCTYPE svg PUBLIC "-//W3C//DTD SVG 1.1//EN" "http://www.w3.org/Graphics/SVG/1.1/DTD/svg11.dtd"><svg xmlns="http://www.w3.org/2000/svg" version="1.1" width="596px" height="184px" viewBox="0 -17 596 184" style="top:-17px">  <desc>Disconnected intelligence ￼ Siloed data leads to siloed insights that can’t be trusted. More about this ￼</desc>  <defs/>  <g id="Polygon113733">    <path d="M 1.6 133.1 L 6.3 133.1 L 11.3 145.3 L 11.5 145.3 L 16.5 133.1 L 21.3 133.1 L 21.3 151.3 L 17.6 151.3 L 17.6 139.4 L 17.4 139.4 L 12.7 151.2 L 10.2 151.2 L 5.5 139.4 L 5.3 139.4 L 5.3 151.3 L 1.6 151.3 L 1.6 133.1 Z M 30.5 151.5 C 29.1 151.5 27.9 151.2 26.9 150.7 C 25.9 150.1 25.1 149.2 24.6 148.2 C 24.1 147.1 23.8 145.9 23.8 144.5 C 23.8 143.1 24.1 141.9 24.6 140.8 C 25.1 139.8 25.9 138.9 26.9 138.3 C 27.9 137.8 29.1 137.5 30.5 137.5 C 31.9 137.5 33.1 137.8 34.1 138.3 C 35.1 138.9 35.8 139.8 36.4 140.8 C 36.9 141.9 37.2 143.1 37.2 144.5 C 37.2 145.9 36.9 147.1 36.4 148.2 C 35.8 149.2 35.1 150.1 34.1 150.7 C 33.1 151.2 31.9 151.5 30.5 151.5 Z M 30.5 148.6 C 31.1 148.6 31.7 148.4 32.1 148.1 C 32.5 147.7 32.8 147.2 33 146.6 C 33.3 146 33.4 145.3 33.4 144.5 C 33.4 143.7 33.3 143 33 142.4 C 32.8 141.7 32.5 141.2 32.1 140.9 C 31.7 140.5 31.1 140.3 30.5 140.3 C 29.9 140.3 29.4 140.5 28.9 140.9 C 28.5 141.2 28.2 141.7 28 142.4 C 27.7 143 27.6 143.7 27.6 144.5 C 27.6 145.3 27.7 146 28 146.6 C 28.2 147.2 28.5 147.7 28.9 148.1 C 29.4 148.4 29.9 148.6 30.5 148.6 Z M 39.6 151.3 L 39.6 137.6 L 43.3 137.6 L 43.3 140 C 43.3 140 43.4 140.02 43.4 140 C 43.6 139.2 44.1 138.5 44.6 138.1 C 45.2 137.7 45.9 137.4 46.7 137.4 C 46.9 137.4 47.1 137.5 47.3 137.5 C 47.5 137.5 47.7 137.5 47.9 137.6 C 47.9 137.6 47.9 140.9 47.9 140.9 C 47.7 140.9 47.4 140.8 47.1 140.8 C 46.8 140.7 46.5 140.7 46.3 140.7 C 45.7 140.7 45.2 140.8 44.8 141.1 C 44.3 141.3 44 141.7 43.7 142.1 C 43.5 142.5 43.4 143 43.4 143.6 C 43.37 143.56 43.4 151.3 43.4 151.3 L 39.6 151.3 Z M 55.6 151.5 C 54.2 151.5 53 151.3 52 150.7 C 51 150.1 50.2 149.3 49.7 148.2 C 49.1 147.2 48.9 146 48.9 144.5 C 48.9 143.1 49.1 141.9 49.7 140.8 C 50.2 139.8 51 138.9 52 138.3 C 53 137.8 54.2 137.5 55.5 137.5 C 56.4 137.5 57.2 137.6 58 137.9 C 58.8 138.2 59.5 138.6 60 139.2 C 60.6 139.8 61.1 140.5 61.4 141.3 C 61.7 142.2 61.9 143.2 61.9 144.4 C 61.9 144.38 61.9 145.4 61.9 145.4 L 50.4 145.4 L 50.4 143.1 C 50.4 143.1 58.34 143.08 58.3 143.1 C 58.3 142.5 58.2 142.1 58 141.6 C 57.7 141.2 57.4 140.9 57 140.6 C 56.6 140.4 56.1 140.3 55.6 140.3 C 55 140.3 54.5 140.4 54 140.7 C 53.6 140.9 53.2 141.3 53 141.7 C 52.7 142.2 52.6 142.7 52.6 143.2 C 52.6 143.2 52.6 145.4 52.6 145.4 C 52.6 146.1 52.7 146.7 53 147.2 C 53.2 147.7 53.6 148.1 54.1 148.3 C 54.5 148.6 55.1 148.7 55.7 148.7 C 56.1 148.7 56.5 148.7 56.9 148.5 C 57.2 148.4 57.5 148.2 57.8 148 C 58 147.8 58.2 147.5 58.3 147.1 C 58.3 147.1 61.8 147.4 61.8 147.4 C 61.6 148.2 61.3 148.9 60.7 149.6 C 60.2 150.2 59.5 150.7 58.6 151 C 57.8 151.4 56.8 151.5 55.6 151.5 Z M 74.1 151.5 C 73.2 151.5 72.4 151.4 71.7 151.1 C 71 150.8 70.5 150.3 70.1 149.7 C 69.7 149.1 69.5 148.4 69.5 147.5 C 69.5 146.7 69.7 146.1 69.9 145.6 C 70.2 145 70.6 144.6 71.1 144.3 C 71.6 144 72.1 143.8 72.7 143.6 C 73.3 143.4 74 143.3 74.6 143.3 C 75.4 143.2 76.1 143.1 76.6 143 C 77.1 143 77.4 142.8 77.6 142.7 C 77.8 142.5 78 142.3 78 142 C 78 142 78 142 78 142 C 78 141.4 77.8 141 77.4 140.7 C 77.1 140.4 76.6 140.2 75.9 140.2 C 75.2 140.2 74.7 140.4 74.3 140.7 C 73.9 141 73.6 141.3 73.5 141.8 C 73.5 141.8 70 141.5 70 141.5 C 70.2 140.7 70.5 140 71.1 139.4 C 71.6 138.7 72.2 138.3 73.1 138 C 73.9 137.6 74.9 137.5 75.9 137.5 C 76.7 137.5 77.4 137.5 78.1 137.7 C 78.8 137.9 79.4 138.2 80 138.6 C 80.5 138.9 80.9 139.4 81.3 140 C 81.6 140.6 81.7 141.3 81.7 142.1 C 81.73 142.08 81.7 151.3 81.7 151.3 L 78.1 151.3 L 78.1 149.4 C 78.1 149.4 78.04 149.38 78 149.4 C 77.8 149.8 77.5 150.2 77.2 150.5 C 76.8 150.8 76.4 151.1 75.8 151.3 C 75.3 151.4 74.7 151.5 74.1 151.5 Z M 75.1 148.9 C 75.7 148.9 76.2 148.8 76.6 148.6 C 77 148.4 77.4 148.1 77.6 147.7 C 77.9 147.3 78 146.9 78 146.4 C 78 146.4 78 145 78 145 C 77.9 145 77.7 145.1 77.5 145.2 C 77.3 145.2 77.1 145.3 76.8 145.3 C 76.6 145.4 76.3 145.4 76 145.5 C 75.8 145.5 75.6 145.5 75.4 145.6 C 74.9 145.6 74.5 145.7 74.2 145.9 C 73.9 146 73.6 146.2 73.4 146.4 C 73.2 146.7 73.1 147 73.1 147.3 C 73.1 147.9 73.3 148.2 73.7 148.5 C 74.1 148.8 74.6 148.9 75.1 148.9 Z M 84.5 151.3 L 84.5 133.1 L 88.3 133.1 L 88.3 139.9 C 88.3 139.9 88.38 139.93 88.4 139.9 C 88.5 139.6 88.8 139.2 89.1 138.8 C 89.4 138.4 89.8 138.1 90.3 137.8 C 90.9 137.6 91.5 137.5 92.3 137.5 C 93.3 137.5 94.2 137.7 95 138.2 C 95.9 138.8 96.5 139.5 97 140.6 C 97.5 141.6 97.8 142.9 97.8 144.5 C 97.8 146 97.5 147.3 97 148.3 C 96.6 149.4 95.9 150.2 95.1 150.7 C 94.2 151.2 93.3 151.5 92.3 151.5 C 91.5 151.5 90.9 151.4 90.4 151.1 C 89.9 150.9 89.5 150.6 89.1 150.2 C 88.8 149.8 88.6 149.5 88.4 149.1 C 88.38 149.09 88.2 149.1 88.2 149.1 L 88.2 151.3 L 84.5 151.3 Z M 88.2 144.5 C 88.2 145.3 88.3 146 88.5 146.6 C 88.7 147.2 89.1 147.6 89.5 148 C 89.9 148.3 90.4 148.5 91.1 148.5 C 91.7 148.5 92.2 148.3 92.6 148 C 93 147.6 93.4 147.2 93.6 146.6 C 93.8 145.9 93.9 145.2 93.9 144.5 C 93.9 143.7 93.8 143 93.6 142.4 C 93.4 141.8 93.1 141.3 92.6 141 C 92.2 140.6 91.7 140.5 91.1 140.5 C 90.4 140.5 89.9 140.6 89.5 141 C 89.1 141.3 88.7 141.7 88.5 142.3 C 88.3 142.9 88.2 143.6 88.2 144.5 Z M 106.3 151.5 C 105 151.5 103.8 151.2 102.8 150.7 C 101.8 150.1 101 149.2 100.4 148.2 C 99.9 147.1 99.6 145.9 99.6 144.5 C 99.6 143.1 99.9 141.9 100.4 140.8 C 101 139.8 101.8 138.9 102.8 138.3 C 103.8 137.8 105 137.5 106.3 137.5 C 107.7 137.5 108.9 137.8 109.9 138.3 C 110.9 138.9 111.7 139.8 112.2 140.8 C 112.8 141.9 113 143.1 113 144.5 C 113 145.9 112.8 147.1 112.2 148.2 C 111.7 149.2 110.9 150.1 109.9 150.7 C 108.9 151.2 107.7 151.5 106.3 151.5 Z M 106.4 148.6 C 107 148.6 107.5 148.4 107.9 148.1 C 108.3 147.7 108.7 147.2 108.9 146.6 C 109.1 146 109.2 145.3 109.2 144.5 C 109.2 143.7 109.1 143 108.9 142.4 C 108.7 141.7 108.3 141.2 107.9 140.9 C 107.5 140.5 107 140.3 106.4 140.3 C 105.7 140.3 105.2 140.5 104.8 140.9 C 104.3 141.2 104 141.7 103.8 142.4 C 103.6 143 103.5 143.7 103.5 144.5 C 103.5 145.3 103.6 146 103.8 146.6 C 104 147.2 104.3 147.7 104.8 148.1 C 105.2 148.4 105.7 148.6 106.4 148.6 Z M 124.1 145.5 C 124.08 145.47 124.1 137.6 124.1 137.6 L 127.9 137.6 L 127.9 151.3 L 124.2 151.3 L 124.2 148.8 C 124.2 148.8 124.09 148.8 124.1 148.8 C 123.8 149.6 123.3 150.2 122.6 150.7 C 121.8 151.2 121 151.5 120 151.5 C 119 151.5 118.2 151.2 117.6 150.8 C 116.9 150.4 116.3 149.8 115.9 149.1 C 115.5 148.3 115.3 147.4 115.3 146.3 C 115.34 146.32 115.3 137.6 115.3 137.6 L 119.1 137.6 C 119.1 137.6 119.12 145.64 119.1 145.6 C 119.1 146.4 119.3 147.1 119.8 147.6 C 120.2 148 120.8 148.3 121.5 148.3 C 121.9 148.3 122.4 148.1 122.8 147.9 C 123.2 147.7 123.5 147.4 123.7 147 C 124 146.6 124.1 146.1 124.1 145.5 Z M 138 137.6 L 138 140.5 L 129.7 140.5 L 129.7 137.6 L 138 137.6 Z M 131.6 134.4 L 135.4 134.4 C 135.4 134.4 135.38 147.08 135.4 147.1 C 135.4 147.4 135.4 147.7 135.5 147.9 C 135.7 148.1 135.8 148.2 136 148.3 C 136.2 148.4 136.4 148.4 136.7 148.4 C 136.8 148.4 137 148.4 137.2 148.4 C 137.4 148.3 137.5 148.3 137.6 148.3 C 137.6 148.3 138.2 151.1 138.2 151.1 C 138 151.2 137.7 151.2 137.4 151.3 C 137.1 151.4 136.6 151.4 136.1 151.5 C 135.2 151.5 134.4 151.4 133.8 151.1 C 133.1 150.8 132.5 150.4 132.2 149.8 C 131.8 149.2 131.6 148.5 131.6 147.6 C 131.6 147.58 131.6 134.4 131.6 134.4 Z M 153.5 137.6 L 153.5 140.5 L 145.2 140.5 L 145.2 137.6 L 153.5 137.6 Z M 147.1 134.4 L 150.9 134.4 C 150.9 134.4 150.89 147.08 150.9 147.1 C 150.9 147.4 150.9 147.7 151.1 147.9 C 151.2 148.1 151.3 148.2 151.5 148.3 C 151.7 148.4 151.9 148.4 152.2 148.4 C 152.4 148.4 152.5 148.4 152.7 148.4 C 152.9 148.3 153 148.3 153.1 148.3 C 153.1 148.3 153.7 151.1 153.7 151.1 C 153.5 151.2 153.3 151.2 152.9 151.3 C 152.6 151.4 152.1 151.4 151.7 151.5 C 150.7 151.5 149.9 151.4 149.3 151.1 C 148.6 150.8 148.1 150.4 147.7 149.8 C 147.3 149.2 147.1 148.5 147.1 147.6 C 147.11 147.58 147.1 134.4 147.1 134.4 Z M 159.4 143.4 C 159.4 143.39 159.4 151.3 159.4 151.3 L 155.6 151.3 L 155.6 133.1 L 159.3 133.1 L 159.3 140 C 159.3 140 159.46 140.04 159.5 140 C 159.8 139.2 160.3 138.6 160.9 138.1 C 161.6 137.7 162.5 137.5 163.5 137.5 C 164.5 137.5 165.3 137.7 166 138.1 C 166.7 138.5 167.3 139.1 167.7 139.8 C 168.1 140.6 168.3 141.5 168.2 142.6 C 168.25 142.59 168.2 151.3 168.2 151.3 L 164.5 151.3 C 164.5 151.3 164.46 143.26 164.5 143.3 C 164.5 142.4 164.3 141.8 163.8 141.3 C 163.4 140.8 162.8 140.6 162 140.6 C 161.5 140.6 161.1 140.7 160.7 140.9 C 160.3 141.1 160 141.5 159.7 141.9 C 159.5 142.3 159.4 142.8 159.4 143.4 Z M 171.1 151.3 L 171.1 137.6 L 174.9 137.6 L 174.9 151.3 L 171.1 151.3 Z M 173 135.9 C 172.4 135.9 171.9 135.7 171.5 135.3 C 171.1 134.9 170.9 134.5 170.9 134 C 170.9 133.4 171.1 133 171.5 132.6 C 171.9 132.2 172.4 132.1 173 132.1 C 173.5 132.1 174 132.2 174.4 132.6 C 174.8 133 175 133.4 175 134 C 175 134.5 174.8 134.9 174.4 135.3 C 174 135.7 173.5 135.9 173 135.9 Z M 189 141.5 C 189 141.5 185.5 141.7 185.5 141.7 C 185.5 141.4 185.3 141.2 185.1 140.9 C 184.9 140.7 184.7 140.5 184.4 140.4 C 184.1 140.2 183.7 140.1 183.2 140.1 C 182.7 140.1 182.2 140.3 181.8 140.5 C 181.4 140.8 181.2 141.1 181.2 141.5 C 181.2 141.8 181.3 142.1 181.5 142.3 C 181.8 142.5 182.3 142.7 182.9 142.9 C 182.9 142.9 185.4 143.4 185.4 143.4 C 186.7 143.6 187.7 144.1 188.3 144.7 C 189 145.3 189.3 146.1 189.3 147 C 189.3 147.9 189 148.7 188.5 149.4 C 188 150.1 187.3 150.6 186.4 151 C 185.5 151.4 184.4 151.5 183.2 151.5 C 181.4 151.5 180 151.2 178.9 150.4 C 177.8 149.7 177.2 148.6 177 147.3 C 177 147.3 180.8 147.1 180.8 147.1 C 180.9 147.7 181.1 148.1 181.6 148.4 C 182 148.7 182.6 148.8 183.2 148.8 C 183.9 148.8 184.4 148.7 184.8 148.4 C 185.2 148.2 185.5 147.8 185.5 147.4 C 185.5 147.1 185.3 146.8 185 146.6 C 184.7 146.4 184.3 146.2 183.7 146.1 C 183.7 146.1 181.3 145.6 181.3 145.6 C 180 145.3 179 144.9 178.4 144.2 C 177.7 143.6 177.4 142.7 177.4 141.7 C 177.4 140.8 177.6 140.1 178.1 139.4 C 178.6 138.8 179.3 138.3 180.1 138 C 181 137.6 182 137.5 183.2 137.5 C 184.9 137.5 186.3 137.8 187.3 138.6 C 188.2 139.3 188.8 140.3 189 141.5 Z " stroke="none" fill="#10283d"/>  </g>  <g id="Polygon113732">    <path d="M 7.5 105.6 C 6.2 105.6 5.1 105.3 4.2 104.7 C 3.2 104 2.5 103.2 2 102.2 C 1.5 101.1 1.3 99.9 1.3 98.5 C 1.3 97.1 1.5 95.9 2 94.9 C 2.6 93.8 3.3 93 4.2 92.4 C 5.1 91.8 6.2 91.5 7.4 91.5 C 8.4 91.5 9.2 91.6 10 92 C 10.8 92.3 11.4 92.8 11.9 93.5 C 12.4 94.1 12.7 94.9 12.8 95.7 C 12.8 95.7 10.7 95.7 10.7 95.7 C 10.6 95.1 10.2 94.5 9.7 94.1 C 9.1 93.6 8.4 93.3 7.5 93.3 C 6.6 93.3 5.9 93.6 5.3 94 C 4.7 94.4 4.2 95 3.9 95.8 C 3.5 96.5 3.4 97.4 3.4 98.5 C 3.4 99.5 3.5 100.4 3.9 101.2 C 4.2 102 4.7 102.6 5.3 103 C 5.9 103.5 6.6 103.7 7.5 103.7 C 8 103.7 8.5 103.6 8.9 103.4 C 9.4 103.2 9.8 102.9 10.1 102.6 C 10.4 102.2 10.6 101.8 10.7 101.3 C 10.7 101.3 12.8 101.3 12.8 101.3 C 12.7 102.1 12.4 102.8 11.9 103.5 C 11.5 104.1 10.9 104.6 10.1 105 C 9.3 105.4 8.5 105.6 7.5 105.6 Z M 19.8 105.6 C 19 105.6 18.2 105.4 17.5 105.1 C 16.8 104.8 16.2 104.3 15.8 103.7 C 15.4 103 15.2 102.3 15.2 101.4 C 15.2 100.6 15.3 100 15.6 99.5 C 16 99 16.4 98.6 16.9 98.3 C 17.4 98.1 18 97.9 18.6 97.7 C 19.2 97.6 19.8 97.5 20.5 97.4 C 21.3 97.3 22 97.2 22.5 97.1 C 23 97.1 23.4 97 23.6 96.9 C 23.9 96.7 24 96.5 24 96.1 C 24 96.1 24 96.1 24 96.1 C 24 95.2 23.8 94.5 23.3 94 C 22.8 93.5 22.1 93.3 21.1 93.3 C 20.1 93.3 19.3 93.5 18.8 94 C 18.2 94.4 17.8 94.9 17.6 95.4 C 17.6 95.4 15.6 94.7 15.6 94.7 C 15.9 93.8 16.4 93.2 17 92.7 C 17.6 92.3 18.2 91.9 19 91.7 C 19.7 91.6 20.4 91.5 21 91.5 C 21.5 91.5 22 91.5 22.6 91.6 C 23.1 91.7 23.7 91.9 24.2 92.2 C 24.8 92.6 25.2 93.1 25.6 93.7 C 25.9 94.3 26.1 95.2 26.1 96.3 C 26.09 96.29 26.1 105.3 26.1 105.3 L 24 105.3 L 24 103.4 C 24 103.4 23.88 103.43 23.9 103.4 C 23.7 103.7 23.5 104 23.2 104.4 C 22.8 104.7 22.4 105 21.9 105.2 C 21.3 105.5 20.6 105.6 19.8 105.6 Z M 20.2 103.7 C 21 103.7 21.7 103.5 22.3 103.2 C 22.8 102.9 23.3 102.5 23.6 102 C 23.8 101.4 24 100.9 24 100.3 C 24 100.3 24 98.4 24 98.4 C 23.9 98.5 23.7 98.6 23.4 98.7 C 23.1 98.8 22.8 98.9 22.4 98.9 C 22 99 21.6 99 21.3 99.1 C 20.9 99.1 20.6 99.2 20.4 99.2 C 19.8 99.3 19.3 99.4 18.8 99.5 C 18.4 99.7 18 99.9 17.7 100.2 C 17.4 100.6 17.3 101 17.3 101.5 C 17.3 102.2 17.6 102.8 18.1 103.2 C 18.6 103.5 19.3 103.7 20.2 103.7 Z M 31.9 97.1 C 31.91 97.07 31.9 105.3 31.9 105.3 L 29.8 105.3 L 29.8 91.6 L 31.8 91.6 L 31.8 93.8 C 31.8 93.8 32.02 93.77 32 93.8 C 32.3 93.1 32.8 92.5 33.5 92.1 C 34.1 91.7 35 91.5 36 91.5 C 36.9 91.5 37.7 91.6 38.4 92 C 39.1 92.4 39.6 93 40 93.7 C 40.4 94.5 40.6 95.4 40.6 96.6 C 40.61 96.61 40.6 105.3 40.6 105.3 L 38.5 105.3 C 38.5 105.3 38.51 96.75 38.5 96.8 C 38.5 95.7 38.2 94.8 37.7 94.2 C 37.1 93.6 36.4 93.3 35.4 93.3 C 34.7 93.3 34.1 93.5 33.6 93.8 C 33.1 94.1 32.7 94.5 32.4 95 C 32.1 95.6 31.9 96.3 31.9 97.1 Z M 46.1 87.1 C 46.1 87.1 46.08 88.69 46.1 88.7 C 46.1 89.2 46 89.7 45.8 90.2 C 45.6 90.8 45.4 91.3 45.1 91.8 C 44.7 92.3 44.3 92.8 43.8 93.2 C 43.8 93.2 42.7 92.2 42.7 92.2 C 43.1 91.7 43.4 91.2 43.7 90.6 C 44 90 44.1 89.4 44.1 88.7 C 44.09 88.72 44.1 87.1 44.1 87.1 L 46.1 87.1 Z M 55.2 91.6 L 55.2 93.4 L 48.1 93.4 L 48.1 91.6 L 55.2 91.6 Z M 50.2 88.4 L 52.3 88.4 C 52.3 88.4 52.26 101.37 52.3 101.4 C 52.3 102 52.3 102.4 52.5 102.7 C 52.7 103 52.9 103.2 53.2 103.3 C 53.5 103.4 53.8 103.4 54.1 103.4 C 54.3 103.4 54.5 103.4 54.6 103.4 C 54.8 103.4 54.9 103.3 55 103.3 C 55 103.3 55.4 105.2 55.4 105.2 C 55.3 105.3 55.1 105.3 54.8 105.4 C 54.6 105.4 54.2 105.5 53.9 105.5 C 53.3 105.5 52.7 105.3 52.1 105.1 C 51.6 104.8 51.1 104.4 50.7 103.9 C 50.3 103.4 50.2 102.7 50.2 101.9 C 50.16 101.93 50.2 88.4 50.2 88.4 Z M 65.6 105.3 L 65.6 87.1 L 67.7 87.1 L 67.7 93.8 C 67.7 93.8 67.92 93.8 67.9 93.8 C 68.1 93.6 68.3 93.3 68.6 92.9 C 68.8 92.5 69.2 92.2 69.8 91.9 C 70.3 91.6 71 91.5 71.9 91.5 C 73 91.5 74 91.7 74.9 92.3 C 75.8 92.9 76.5 93.7 76.9 94.8 C 77.4 95.8 77.7 97.1 77.7 98.5 C 77.7 99.9 77.4 101.2 76.9 102.2 C 76.5 103.3 75.8 104.1 74.9 104.7 C 74 105.3 73 105.6 71.9 105.6 C 71 105.6 70.3 105.4 69.8 105.1 C 69.3 104.8 68.9 104.5 68.6 104.1 C 68.3 103.7 68.1 103.4 67.9 103.2 C 67.92 103.18 67.7 103.2 67.7 103.2 L 67.7 105.3 L 65.6 105.3 Z M 67.7 98.5 C 67.7 99.5 67.9 100.4 68.2 101.2 C 68.5 102 68.9 102.6 69.5 103 C 70.1 103.5 70.8 103.7 71.6 103.7 C 72.5 103.7 73.2 103.4 73.8 103 C 74.4 102.5 74.8 101.9 75.1 101.1 C 75.4 100.3 75.6 99.4 75.6 98.5 C 75.6 97.5 75.4 96.6 75.2 95.9 C 74.9 95.1 74.4 94.5 73.8 94 C 73.2 93.6 72.5 93.3 71.6 93.3 C 70.8 93.3 70 93.6 69.5 94 C 68.9 94.4 68.4 95 68.2 95.8 C 67.9 96.5 67.7 97.4 67.7 98.5 Z M 86.5 105.6 C 85.2 105.6 84 105.3 83.1 104.7 C 82.1 104.1 81.4 103.3 80.9 102.2 C 80.4 101.2 80.1 100 80.1 98.6 C 80.1 97.2 80.4 95.9 80.9 94.9 C 81.4 93.8 82.1 93 83 92.4 C 84 91.8 85 91.5 86.3 91.5 C 87 91.5 87.7 91.6 88.4 91.8 C 89.1 92.1 89.7 92.4 90.3 93 C 90.8 93.5 91.3 94.2 91.6 95.1 C 92 95.9 92.1 97 92.1 98.3 C 92.12 98.28 92.1 99.2 92.1 99.2 L 81.6 99.2 L 81.6 97.4 C 81.6 97.4 89.99 97.35 90 97.4 C 90 96.6 89.8 95.9 89.5 95.3 C 89.2 94.7 88.8 94.2 88.2 93.9 C 87.7 93.5 87 93.3 86.3 93.3 C 85.4 93.3 84.7 93.5 84.1 94 C 83.5 94.4 83 94.9 82.7 95.6 C 82.4 96.2 82.2 96.9 82.2 97.7 C 82.2 97.7 82.2 98.9 82.2 98.9 C 82.2 99.9 82.4 100.8 82.8 101.5 C 83.1 102.2 83.6 102.8 84.2 103.1 C 84.9 103.5 85.6 103.7 86.5 103.7 C 87 103.7 87.5 103.6 88 103.4 C 88.4 103.3 88.8 103 89.1 102.7 C 89.5 102.4 89.7 102 89.9 101.5 C 89.9 101.5 91.9 102.1 91.9 102.1 C 91.7 102.8 91.3 103.4 90.8 103.9 C 90.3 104.4 89.7 104.8 89 105.1 C 88.2 105.4 87.4 105.6 86.5 105.6 Z M 108.3 91.6 L 108.3 93.4 L 101.2 93.4 L 101.2 91.6 L 108.3 91.6 Z M 103.3 88.4 L 105.4 88.4 C 105.4 88.4 105.37 101.37 105.4 101.4 C 105.4 102 105.5 102.4 105.6 102.7 C 105.8 103 106 103.2 106.3 103.3 C 106.6 103.4 106.9 103.4 107.2 103.4 C 107.4 103.4 107.6 103.4 107.7 103.4 C 107.9 103.4 108 103.3 108.1 103.3 C 108.1 103.3 108.5 105.2 108.5 105.2 C 108.4 105.3 108.2 105.3 107.9 105.4 C 107.7 105.4 107.4 105.5 107 105.5 C 106.4 105.5 105.8 105.3 105.2 105.1 C 104.7 104.8 104.2 104.4 103.8 103.9 C 103.5 103.4 103.3 102.7 103.3 101.9 C 103.27 101.93 103.3 88.4 103.3 88.4 Z M 111.1 105.3 L 111.1 91.6 L 113.2 91.6 L 113.2 93.7 C 113.2 93.7 113.31 93.7 113.3 93.7 C 113.6 93 114 92.5 114.7 92.1 C 115.3 91.6 116 91.4 116.9 91.4 C 117 91.4 117.2 91.4 117.4 91.4 C 117.7 91.4 117.8 91.4 118 91.5 C 118 91.5 118 93.6 118 93.6 C 117.9 93.6 117.7 93.5 117.5 93.5 C 117.2 93.5 117 93.4 116.7 93.4 C 116 93.4 115.4 93.6 114.9 93.9 C 114.4 94.1 114 94.5 113.7 95 C 113.4 95.5 113.2 96 113.2 96.6 C 113.24 96.64 113.2 105.3 113.2 105.3 L 111.1 105.3 Z M 129 99.7 C 128.97 99.7 129 91.6 129 91.6 L 131.1 91.6 L 131.1 105.3 L 129 105.3 L 129 103 C 129 103 128.83 102.96 128.8 103 C 128.5 103.7 128 104.2 127.3 104.7 C 126.7 105.2 125.8 105.5 124.8 105.5 C 123.9 105.5 123.2 105.3 122.5 104.9 C 121.8 104.5 121.3 103.9 120.9 103.2 C 120.6 102.4 120.4 101.5 120.4 100.3 C 120.37 100.3 120.4 91.6 120.4 91.6 L 122.5 91.6 C 122.5 91.6 122.47 100.16 122.5 100.2 C 122.5 101.2 122.7 101.9 123.3 102.5 C 123.9 103.1 124.6 103.4 125.5 103.4 C 126 103.4 126.5 103.3 127 103 C 127.6 102.8 128 102.4 128.4 101.8 C 128.8 101.3 129 100.5 129 99.7 Z M 144.3 94.7 C 144.3 94.7 142.4 95.2 142.4 95.2 C 142.3 94.9 142.1 94.6 141.9 94.3 C 141.7 94 141.4 93.8 141 93.6 C 140.6 93.4 140.1 93.3 139.5 93.3 C 138.7 93.3 138 93.5 137.4 93.8 C 136.9 94.2 136.6 94.7 136.6 95.3 C 136.6 95.8 136.8 96.2 137.1 96.5 C 137.5 96.8 138.1 97.1 138.9 97.3 C 138.9 97.3 140.9 97.8 140.9 97.8 C 142.2 98.1 143.1 98.5 143.7 99.1 C 144.3 99.7 144.6 100.5 144.6 101.5 C 144.6 102.3 144.3 103 143.9 103.6 C 143.4 104.2 142.8 104.7 142 105 C 141.2 105.4 140.3 105.6 139.2 105.6 C 137.8 105.6 136.7 105.3 135.8 104.7 C 134.9 104 134.3 103.2 134.1 102 C 134.1 102 136 101.5 136 101.5 C 136.2 102.2 136.6 102.8 137.1 103.2 C 137.7 103.5 138.3 103.7 139.2 103.7 C 140.2 103.7 141 103.5 141.5 103.1 C 142.1 102.7 142.4 102.2 142.4 101.6 C 142.4 101.1 142.2 100.7 141.9 100.4 C 141.6 100.1 141.1 99.8 140.4 99.7 C 140.4 99.7 138.1 99.1 138.1 99.1 C 136.9 98.8 135.9 98.4 135.4 97.7 C 134.8 97.1 134.5 96.3 134.5 95.4 C 134.5 94.6 134.7 94 135.1 93.4 C 135.6 92.8 136.2 92.3 136.9 92 C 137.7 91.6 138.5 91.5 139.5 91.5 C 140.8 91.5 141.9 91.8 142.7 92.3 C 143.4 92.9 144 93.7 144.3 94.7 Z M 153.5 91.6 L 153.5 93.4 L 146.4 93.4 L 146.4 91.6 L 153.5 91.6 Z M 148.5 88.4 L 150.6 88.4 C 150.6 88.4 150.56 101.37 150.6 101.4 C 150.6 102 150.6 102.4 150.8 102.7 C 151 103 151.2 103.2 151.5 103.3 C 151.8 103.4 152.1 103.4 152.4 103.4 C 152.6 103.4 152.8 103.4 152.9 103.4 C 153.1 103.4 153.2 103.3 153.3 103.3 C 153.3 103.3 153.7 105.2 153.7 105.2 C 153.6 105.3 153.4 105.3 153.1 105.4 C 152.9 105.4 152.5 105.5 152.2 105.5 C 151.6 105.5 151 105.3 150.4 105.1 C 149.9 104.8 149.4 104.4 149 103.9 C 148.6 103.4 148.5 102.7 148.5 101.9 C 148.46 101.93 148.5 88.4 148.5 88.4 Z M 161.6 105.6 C 160.2 105.6 159.1 105.3 158.2 104.7 C 157.2 104.1 156.5 103.3 156 102.2 C 155.5 101.2 155.2 100 155.2 98.6 C 155.2 97.2 155.5 95.9 156 94.9 C 156.5 93.8 157.2 93 158.1 92.4 C 159 91.8 160.1 91.5 161.3 91.5 C 162 91.5 162.7 91.6 163.4 91.8 C 164.1 92.1 164.8 92.4 165.3 93 C 165.9 93.5 166.4 94.2 166.7 95.1 C 167 95.9 167.2 97 167.2 98.3 C 167.2 98.28 167.2 99.2 167.2 99.2 L 156.7 99.2 L 156.7 97.4 C 156.7 97.4 165.07 97.35 165.1 97.4 C 165.1 96.6 164.9 95.9 164.6 95.3 C 164.3 94.7 163.9 94.2 163.3 93.9 C 162.8 93.5 162.1 93.3 161.3 93.3 C 160.5 93.3 159.8 93.5 159.2 94 C 158.6 94.4 158.1 94.9 157.8 95.6 C 157.5 96.2 157.3 96.9 157.3 97.7 C 157.3 97.7 157.3 98.9 157.3 98.9 C 157.3 99.9 157.5 100.8 157.8 101.5 C 158.2 102.2 158.7 102.8 159.3 103.1 C 160 103.5 160.7 103.7 161.6 103.7 C 162.1 103.7 162.6 103.6 163 103.4 C 163.5 103.3 163.9 103 164.2 102.7 C 164.5 102.4 164.8 102 165 101.5 C 165 101.5 167 102.1 167 102.1 C 166.8 102.8 166.4 103.4 165.9 103.9 C 165.4 104.4 164.8 104.8 164 105.1 C 163.3 105.4 162.5 105.6 161.6 105.6 Z M 175.4 105.6 C 174.3 105.6 173.3 105.3 172.4 104.7 C 171.5 104.1 170.9 103.3 170.4 102.2 C 169.9 101.2 169.6 99.9 169.6 98.5 C 169.6 97.1 169.9 95.8 170.4 94.8 C 170.9 93.7 171.6 92.9 172.4 92.3 C 173.3 91.7 174.3 91.5 175.5 91.5 C 176.4 91.5 177.1 91.6 177.6 91.9 C 178.1 92.2 178.5 92.5 178.8 92.9 C 179 93.3 179.3 93.6 179.4 93.8 C 179.4 93.8 179.6 93.8 179.6 93.8 L 179.6 87.1 L 181.7 87.1 L 181.7 105.3 L 179.7 105.3 L 179.7 103.2 C 179.7 103.2 179.4 103.18 179.4 103.2 C 179.3 103.4 179 103.7 178.7 104.1 C 178.5 104.5 178.1 104.8 177.5 105.1 C 177 105.4 176.3 105.6 175.4 105.6 Z M 175.7 103.7 C 176.6 103.7 177.3 103.5 177.8 103 C 178.4 102.6 178.9 102 179.2 101.2 C 179.5 100.4 179.6 99.5 179.6 98.5 C 179.6 97.4 179.5 96.5 179.2 95.8 C 178.9 95 178.4 94.4 177.9 94 C 177.3 93.6 176.6 93.3 175.7 93.3 C 174.8 93.3 174.1 93.6 173.5 94 C 172.9 94.5 172.5 95.1 172.2 95.9 C 171.9 96.6 171.7 97.5 171.7 98.5 C 171.7 99.4 171.9 100.3 172.2 101.1 C 172.5 101.9 172.9 102.5 173.5 103 C 174.1 103.4 174.8 103.7 175.7 103.7 Z M 187 105.4 C 186.6 105.4 186.2 105.3 185.9 104.9 C 185.6 104.6 185.4 104.3 185.4 103.8 C 185.4 103.4 185.6 103 185.9 102.7 C 186.2 102.4 186.6 102.2 187 102.2 C 187.5 102.2 187.9 102.4 188.2 102.7 C 188.5 103 188.6 103.4 188.6 103.8 C 188.6 104.1 188.6 104.4 188.4 104.6 C 188.3 104.9 188.1 105.1 187.8 105.2 C 187.6 105.3 187.3 105.4 187 105.4 Z " stroke="none" fill="#000"/>  </g>  <g id="Polygon113731">    <path d="M 12.1 59.6 C 12 58.7 11.6 58 10.8 57.5 C 10.1 57 9.2 56.8 8.1 56.8 C 7.3 56.8 6.6 56.9 6 57.2 C 5.4 57.4 4.9 57.8 4.5 58.3 C 4.2 58.7 4 59.2 4 59.8 C 4 60.3 4.2 60.7 4.4 61.1 C 4.6 61.4 4.9 61.7 5.3 61.9 C 5.7 62.2 6.1 62.3 6.5 62.5 C 6.9 62.6 7.2 62.7 7.6 62.8 C 7.6 62.8 9.4 63.3 9.4 63.3 C 9.9 63.5 10.4 63.6 11 63.8 C 11.6 64.1 12.1 64.4 12.7 64.7 C 13.2 65.1 13.7 65.6 14 66.2 C 14.3 66.8 14.5 67.5 14.5 68.3 C 14.5 69.3 14.3 70.2 13.8 71 C 13.2 71.8 12.5 72.4 11.5 72.9 C 10.5 73.4 9.4 73.6 8 73.6 C 6.7 73.6 5.5 73.4 4.6 73 C 3.6 72.5 2.9 72 2.3 71.2 C 1.8 70.5 1.5 69.6 1.4 68.6 C 1.4 68.6 3.7 68.6 3.7 68.6 C 3.8 69.3 4 69.8 4.4 70.3 C 4.8 70.7 5.3 71.1 5.9 71.3 C 6.6 71.5 7.2 71.6 8 71.6 C 8.8 71.6 9.5 71.5 10.2 71.2 C 10.9 70.9 11.4 70.5 11.8 70 C 12.2 69.5 12.4 69 12.4 68.3 C 12.4 67.7 12.2 67.2 11.9 66.8 C 11.6 66.4 11.1 66.1 10.6 65.9 C 10 65.7 9.4 65.5 8.8 65.3 C 8.8 65.3 6.5 64.6 6.5 64.6 C 5.1 64.2 4 63.7 3.2 62.9 C 2.3 62.1 1.9 61.1 1.9 59.9 C 1.9 58.9 2.2 58 2.7 57.3 C 3.3 56.5 4 55.9 5 55.5 C 5.9 55.1 7 54.8 8.1 54.8 C 9.3 54.8 10.3 55.1 11.3 55.5 C 12.2 55.9 12.9 56.5 13.4 57.2 C 14 57.9 14.2 58.7 14.3 59.6 C 14.3 59.6 12.1 59.6 12.1 59.6 Z M 17.8 73.3 L 17.8 59.6 L 19.9 59.6 L 19.9 73.3 L 17.8 73.3 Z M 18.8 57.4 C 18.4 57.4 18.1 57.2 17.8 56.9 C 17.5 56.7 17.3 56.3 17.3 55.9 C 17.3 55.6 17.5 55.2 17.8 54.9 C 18.1 54.7 18.4 54.5 18.8 54.5 C 19.2 54.5 19.6 54.7 19.9 54.9 C 20.2 55.2 20.3 55.6 20.3 55.9 C 20.3 56.3 20.2 56.7 19.9 56.9 C 19.6 57.2 19.2 57.4 18.8 57.4 Z M 25.7 55.1 L 25.7 73.3 L 23.6 73.3 L 23.6 55.1 L 25.7 55.1 Z M 35 73.6 C 33.8 73.6 32.7 73.3 31.8 72.7 C 30.8 72.1 30.1 71.3 29.6 70.2 C 29.1 69.2 28.8 67.9 28.8 66.5 C 28.8 65.1 29.1 63.9 29.6 62.8 C 30.1 61.7 30.8 60.9 31.8 60.3 C 32.7 59.8 33.8 59.5 35 59.5 C 36.2 59.5 37.3 59.8 38.2 60.3 C 39.2 60.9 39.9 61.7 40.4 62.8 C 40.9 63.9 41.2 65.1 41.2 66.5 C 41.2 67.9 40.9 69.2 40.4 70.2 C 39.9 71.3 39.2 72.1 38.2 72.7 C 37.3 73.3 36.2 73.6 35 73.6 Z M 35 71.7 C 35.9 71.7 36.7 71.4 37.3 71 C 37.9 70.5 38.4 69.8 38.6 69.1 C 38.9 68.3 39.1 67.4 39.1 66.5 C 39.1 65.6 38.9 64.8 38.6 64 C 38.4 63.2 37.9 62.6 37.3 62.1 C 36.7 61.6 35.9 61.3 35 61.3 C 34.1 61.3 33.3 61.6 32.7 62.1 C 32.1 62.6 31.6 63.2 31.3 64 C 31.1 64.8 30.9 65.6 30.9 66.5 C 30.9 67.4 31.1 68.3 31.3 69.1 C 31.6 69.8 32.1 70.5 32.7 71 C 33.3 71.4 34.1 71.7 35 71.7 Z M 50 73.6 C 48.7 73.6 47.5 73.3 46.6 72.7 C 45.6 72.1 44.9 71.3 44.4 70.2 C 43.9 69.2 43.6 68 43.6 66.6 C 43.6 65.2 43.9 63.9 44.4 62.9 C 44.9 61.8 45.6 61 46.5 60.4 C 47.4 59.8 48.5 59.5 49.8 59.5 C 50.5 59.5 51.2 59.6 51.9 59.8 C 52.6 60.1 53.2 60.4 53.8 61 C 54.3 61.5 54.8 62.2 55.1 63.1 C 55.4 63.9 55.6 65 55.6 66.3 C 55.62 66.28 55.6 67.2 55.6 67.2 L 45.1 67.2 L 45.1 65.4 C 45.1 65.4 53.49 65.35 53.5 65.4 C 53.5 64.6 53.3 63.9 53 63.3 C 52.7 62.7 52.3 62.2 51.7 61.9 C 51.2 61.5 50.5 61.3 49.8 61.3 C 48.9 61.3 48.2 61.5 47.6 62 C 47 62.4 46.5 62.9 46.2 63.6 C 45.9 64.2 45.7 64.9 45.7 65.7 C 45.7 65.7 45.7 66.9 45.7 66.9 C 45.7 67.9 45.9 68.8 46.2 69.5 C 46.6 70.2 47.1 70.8 47.7 71.1 C 48.4 71.5 49.1 71.7 50 71.7 C 50.5 71.7 51 71.6 51.5 71.4 C 51.9 71.3 52.3 71 52.6 70.7 C 52.9 70.4 53.2 70 53.4 69.5 C 53.4 69.5 55.4 70.1 55.4 70.1 C 55.2 70.8 54.8 71.4 54.3 71.9 C 53.8 72.4 53.2 72.8 52.5 73.1 C 51.7 73.4 50.9 73.6 50 73.6 Z M 63.8 73.6 C 62.7 73.6 61.7 73.3 60.8 72.7 C 60 72.1 59.3 71.3 58.8 70.2 C 58.3 69.2 58.1 67.9 58.1 66.5 C 58.1 65.1 58.3 63.8 58.8 62.8 C 59.3 61.7 60 60.9 60.8 60.3 C 61.7 59.7 62.7 59.5 63.9 59.5 C 64.8 59.5 65.5 59.6 66 59.9 C 66.5 60.2 66.9 60.5 67.2 60.9 C 67.5 61.3 67.7 61.6 67.8 61.8 C 67.82 61.8 68 61.8 68 61.8 L 68 55.1 L 70.1 55.1 L 70.1 73.3 L 68.1 73.3 L 68.1 71.2 C 68.1 71.2 67.82 71.18 67.8 71.2 C 67.7 71.4 67.5 71.7 67.2 72.1 C 66.9 72.5 66.5 72.8 66 73.1 C 65.4 73.4 64.7 73.6 63.8 73.6 Z M 64.1 71.7 C 65 71.7 65.7 71.5 66.3 71 C 66.8 70.6 67.3 70 67.6 69.2 C 67.9 68.4 68 67.5 68 66.5 C 68 65.4 67.9 64.5 67.6 63.8 C 67.3 63 66.9 62.4 66.3 62 C 65.7 61.6 65 61.3 64.1 61.3 C 63.2 61.3 62.5 61.6 61.9 62 C 61.3 62.5 60.9 63.1 60.6 63.9 C 60.3 64.6 60.2 65.5 60.2 66.5 C 60.2 67.4 60.3 68.3 60.6 69.1 C 60.9 69.9 61.3 70.5 61.9 71 C 62.5 71.4 63.3 71.7 64.1 71.7 Z M 86.4 73.6 C 85.3 73.6 84.3 73.3 83.4 72.7 C 82.5 72.1 81.8 71.3 81.3 70.2 C 80.9 69.2 80.6 67.9 80.6 66.5 C 80.6 65.1 80.9 63.8 81.3 62.8 C 81.8 61.7 82.5 60.9 83.4 60.3 C 84.3 59.7 85.3 59.5 86.4 59.5 C 87.3 59.5 88 59.6 88.5 59.9 C 89.1 60.2 89.5 60.5 89.7 60.9 C 90 61.3 90.2 61.6 90.4 61.8 C 90.37 61.8 90.6 61.8 90.6 61.8 L 90.6 55.1 L 92.6 55.1 L 92.6 73.3 L 90.6 73.3 L 90.6 71.2 C 90.6 71.2 90.37 71.18 90.4 71.2 C 90.2 71.4 90 71.7 89.7 72.1 C 89.4 72.5 89 72.8 88.5 73.1 C 88 73.4 87.3 73.6 86.4 73.6 Z M 86.7 71.7 C 87.5 71.7 88.2 71.5 88.8 71 C 89.4 70.6 89.8 70 90.1 69.2 C 90.4 68.4 90.6 67.5 90.6 66.5 C 90.6 65.4 90.4 64.5 90.1 63.8 C 89.8 63 89.4 62.4 88.8 62 C 88.2 61.6 87.5 61.3 86.7 61.3 C 85.8 61.3 85.1 61.6 84.5 62 C 83.9 62.5 83.4 63.1 83.1 63.9 C 82.8 64.6 82.7 65.5 82.7 66.5 C 82.7 67.4 82.9 68.3 83.2 69.1 C 83.4 69.9 83.9 70.5 84.5 71 C 85.1 71.4 85.8 71.7 86.7 71.7 Z M 100.5 73.6 C 99.6 73.6 98.8 73.4 98.1 73.1 C 97.4 72.8 96.9 72.3 96.5 71.7 C 96 71 95.8 70.3 95.8 69.4 C 95.8 68.6 96 68 96.3 67.5 C 96.6 67 97 66.6 97.5 66.3 C 98.1 66.1 98.6 65.9 99.2 65.7 C 99.9 65.6 100.5 65.5 101.1 65.4 C 102 65.3 102.6 65.2 103.2 65.1 C 103.7 65.1 104 65 104.3 64.9 C 104.5 64.7 104.6 64.5 104.6 64.1 C 104.6 64.1 104.6 64.1 104.6 64.1 C 104.6 63.2 104.4 62.5 103.9 62 C 103.5 61.5 102.7 61.3 101.8 61.3 C 100.8 61.3 100 61.5 99.4 62 C 98.8 62.4 98.5 62.9 98.2 63.4 C 98.2 63.4 96.2 62.7 96.2 62.7 C 96.6 61.8 97.1 61.2 97.7 60.7 C 98.3 60.3 98.9 59.9 99.6 59.7 C 100.3 59.6 101 59.5 101.7 59.5 C 102.1 59.5 102.6 59.5 103.2 59.6 C 103.8 59.7 104.3 59.9 104.9 60.2 C 105.4 60.6 105.9 61.1 106.2 61.7 C 106.6 62.3 106.7 63.2 106.7 64.3 C 106.74 64.29 106.7 73.3 106.7 73.3 L 104.6 73.3 L 104.6 71.4 C 104.6 71.4 104.54 71.43 104.5 71.4 C 104.4 71.7 104.2 72 103.8 72.4 C 103.5 72.7 103.1 73 102.5 73.2 C 102 73.5 101.3 73.6 100.5 73.6 Z M 100.8 71.7 C 101.6 71.7 102.3 71.5 102.9 71.2 C 103.5 70.9 103.9 70.5 104.2 70 C 104.5 69.4 104.6 68.9 104.6 68.3 C 104.6 68.3 104.6 66.4 104.6 66.4 C 104.6 66.5 104.4 66.6 104.1 66.7 C 103.8 66.8 103.4 66.9 103 66.9 C 102.6 67 102.3 67 101.9 67.1 C 101.5 67.1 101.2 67.2 101 67.2 C 100.5 67.3 100 67.4 99.5 67.5 C 99 67.7 98.7 67.9 98.4 68.2 C 98.1 68.6 97.9 69 97.9 69.5 C 97.9 70.2 98.2 70.8 98.7 71.2 C 99.3 71.5 100 71.7 100.8 71.7 Z M 116.1 59.6 L 116.1 61.4 L 109 61.4 L 109 59.6 L 116.1 59.6 Z M 111.1 56.4 L 113.2 56.4 C 113.2 56.4 113.15 69.37 113.2 69.4 C 113.2 70 113.2 70.4 113.4 70.7 C 113.6 71 113.8 71.2 114.1 71.3 C 114.4 71.4 114.7 71.4 115 71.4 C 115.2 71.4 115.4 71.4 115.5 71.4 C 115.7 71.4 115.8 71.3 115.9 71.3 C 115.9 71.3 116.3 73.2 116.3 73.2 C 116.2 73.3 116 73.3 115.7 73.4 C 115.5 73.4 115.1 73.5 114.8 73.5 C 114.2 73.5 113.6 73.3 113 73.1 C 112.5 72.8 112 72.4 111.6 71.9 C 111.2 71.4 111.1 70.7 111.1 69.9 C 111.06 69.93 111.1 56.4 111.1 56.4 Z M 122.9 73.6 C 122.1 73.6 121.3 73.4 120.6 73.1 C 119.9 72.8 119.3 72.3 118.9 71.7 C 118.5 71 118.3 70.3 118.3 69.4 C 118.3 68.6 118.4 68 118.7 67.5 C 119 67 119.5 66.6 120 66.3 C 120.5 66.1 121.1 65.9 121.7 65.7 C 122.3 65.6 122.9 65.5 123.6 65.4 C 124.4 65.3 125.1 65.2 125.6 65.1 C 126.1 65.1 126.5 65 126.7 64.9 C 127 64.7 127.1 64.5 127.1 64.1 C 127.1 64.1 127.1 64.1 127.1 64.1 C 127.1 63.2 126.8 62.5 126.4 62 C 125.9 61.5 125.2 61.3 124.2 61.3 C 123.2 61.3 122.4 61.5 121.9 62 C 121.3 62.4 120.9 62.9 120.7 63.4 C 120.7 63.4 118.7 62.7 118.7 62.7 C 119 61.8 119.5 61.2 120.1 60.7 C 120.7 60.3 121.3 59.9 122 59.7 C 122.7 59.6 123.4 59.5 124.1 59.5 C 124.6 59.5 125.1 59.5 125.6 59.6 C 126.2 59.7 126.8 59.9 127.3 60.2 C 127.8 60.6 128.3 61.1 128.6 61.7 C 129 62.3 129.2 63.2 129.2 64.3 C 129.18 64.29 129.2 73.3 129.2 73.3 L 127.1 73.3 L 127.1 71.4 C 127.1 71.4 126.97 71.43 127 71.4 C 126.8 71.7 126.6 72 126.3 72.4 C 125.9 72.7 125.5 73 124.9 73.2 C 124.4 73.5 123.7 73.6 122.9 73.6 Z M 123.2 71.7 C 124.1 71.7 124.8 71.5 125.3 71.2 C 125.9 70.9 126.3 70.5 126.6 70 C 126.9 69.4 127.1 68.9 127.1 68.3 C 127.1 68.3 127.1 66.4 127.1 66.4 C 127 66.5 126.8 66.6 126.5 66.7 C 126.2 66.8 125.9 66.9 125.5 66.9 C 125.1 67 124.7 67 124.3 67.1 C 124 67.1 123.7 67.2 123.5 67.2 C 122.9 67.3 122.4 67.4 121.9 67.5 C 121.5 67.7 121.1 67.9 120.8 68.2 C 120.5 68.6 120.4 69 120.4 69.5 C 120.4 70.2 120.6 70.8 121.2 71.2 C 121.7 71.5 122.4 71.7 123.2 71.7 Z M 142.1 55.1 L 142.1 73.3 L 140 73.3 L 140 55.1 L 142.1 55.1 Z M 151.6 73.6 C 150.3 73.6 149.2 73.3 148.2 72.7 C 147.3 72.1 146.5 71.3 146 70.2 C 145.5 69.2 145.3 68 145.3 66.6 C 145.3 65.2 145.5 63.9 146 62.9 C 146.5 61.8 147.3 61 148.2 60.4 C 149.1 59.8 150.2 59.5 151.4 59.5 C 152.1 59.5 152.8 59.6 153.5 59.8 C 154.2 60.1 154.8 60.4 155.4 61 C 156 61.5 156.4 62.2 156.8 63.1 C 157.1 63.9 157.3 65 157.3 66.3 C 157.26 66.28 157.3 67.2 157.3 67.2 L 146.8 67.2 L 146.8 65.4 C 146.8 65.4 155.13 65.35 155.1 65.4 C 155.1 64.6 155 63.9 154.7 63.3 C 154.4 62.7 153.9 62.2 153.4 61.9 C 152.8 61.5 152.2 61.3 151.4 61.3 C 150.6 61.3 149.8 61.5 149.2 62 C 148.6 62.4 148.2 62.9 147.8 63.6 C 147.5 64.2 147.4 64.9 147.4 65.7 C 147.4 65.7 147.4 66.9 147.4 66.9 C 147.4 67.9 147.5 68.8 147.9 69.5 C 148.3 70.2 148.8 70.8 149.4 71.1 C 150 71.5 150.8 71.7 151.6 71.7 C 152.2 71.7 152.7 71.6 153.1 71.4 C 153.6 71.3 153.9 71 154.3 70.7 C 154.6 70.4 154.8 70 155 69.5 C 155 69.5 157.1 70.1 157.1 70.1 C 156.8 70.8 156.5 71.4 156 71.9 C 155.5 72.4 154.9 72.8 154.1 73.1 C 153.4 73.4 152.5 73.6 151.6 73.6 Z M 164.2 73.6 C 163.4 73.6 162.6 73.4 161.9 73.1 C 161.2 72.8 160.6 72.3 160.2 71.7 C 159.8 71 159.6 70.3 159.6 69.4 C 159.6 68.6 159.7 68 160.1 67.5 C 160.4 67 160.8 66.6 161.3 66.3 C 161.8 66.1 162.4 65.9 163 65.7 C 163.6 65.6 164.2 65.5 164.9 65.4 C 165.7 65.3 166.4 65.2 166.9 65.1 C 167.4 65.1 167.8 65 168 64.9 C 168.3 64.7 168.4 64.5 168.4 64.1 C 168.4 64.1 168.4 64.1 168.4 64.1 C 168.4 63.2 168.2 62.5 167.7 62 C 167.2 61.5 166.5 61.3 165.5 61.3 C 164.5 61.3 163.7 61.5 163.2 62 C 162.6 62.4 162.2 62.9 162 63.4 C 162 63.4 160 62.7 160 62.7 C 160.3 61.8 160.8 61.2 161.4 60.7 C 162 60.3 162.7 59.9 163.4 59.7 C 164.1 59.6 164.8 59.5 165.5 59.5 C 165.9 59.5 166.4 59.5 167 59.6 C 167.5 59.7 168.1 59.9 168.6 60.2 C 169.2 60.6 169.6 61.1 170 61.7 C 170.3 62.3 170.5 63.2 170.5 64.3 C 170.49 64.29 170.5 73.3 170.5 73.3 L 168.4 73.3 L 168.4 71.4 C 168.4 71.4 168.29 71.43 168.3 71.4 C 168.1 71.7 167.9 72 167.6 72.4 C 167.2 72.7 166.8 73 166.3 73.2 C 165.7 73.5 165 73.6 164.2 73.6 Z M 164.6 71.7 C 165.4 71.7 166.1 71.5 166.7 71.2 C 167.2 70.9 167.7 70.5 168 70 C 168.3 69.4 168.4 68.9 168.4 68.3 C 168.4 68.3 168.4 66.4 168.4 66.4 C 168.3 66.5 168.1 66.6 167.8 66.7 C 167.5 66.8 167.2 66.9 166.8 66.9 C 166.4 67 166 67 165.7 67.1 C 165.3 67.1 165 67.2 164.8 67.2 C 164.2 67.3 163.7 67.4 163.3 67.5 C 162.8 67.7 162.4 67.9 162.1 68.2 C 161.8 68.6 161.7 69 161.7 69.5 C 161.7 70.2 162 70.8 162.5 71.2 C 163 71.5 163.7 71.7 164.6 71.7 Z M 179.3 73.6 C 178.2 73.6 177.2 73.3 176.3 72.7 C 175.5 72.1 174.8 71.3 174.3 70.2 C 173.8 69.2 173.6 67.9 173.6 66.5 C 173.6 65.1 173.8 63.8 174.3 62.8 C 174.8 61.7 175.5 60.9 176.3 60.3 C 177.2 59.7 178.2 59.5 179.4 59.5 C 180.3 59.5 181 59.6 181.5 59.9 C 182 60.2 182.4 60.5 182.7 60.9 C 183 61.3 183.2 61.6 183.3 61.8 C 183.32 61.8 183.5 61.8 183.5 61.8 L 183.5 55.1 L 185.6 55.1 L 185.6 73.3 L 183.6 73.3 L 183.6 71.2 C 183.6 71.2 183.32 71.18 183.3 71.2 C 183.2 71.4 182.9 71.7 182.7 72.1 C 182.4 72.5 182 72.8 181.4 73.1 C 180.9 73.4 180.2 73.6 179.3 73.6 Z M 179.6 71.7 C 180.5 71.7 181.2 71.5 181.8 71 C 182.3 70.6 182.8 70 183.1 69.2 C 183.4 68.4 183.5 67.5 183.5 66.5 C 183.5 65.4 183.4 64.5 183.1 63.8 C 182.8 63 182.4 62.4 181.8 62 C 181.2 61.6 180.5 61.3 179.6 61.3 C 178.7 61.3 178 61.6 177.4 62 C 176.8 62.5 176.4 63.1 176.1 63.9 C 175.8 64.6 175.6 65.5 175.6 66.5 C 175.6 67.4 175.8 68.3 176.1 69.1 C 176.4 69.9 176.8 70.5 177.4 71 C 178 71.4 178.8 71.7 179.6 71.7 Z M 199 62.7 C 199 62.7 197.1 63.2 197.1 63.2 C 197 62.9 196.8 62.6 196.6 62.3 C 196.3 62 196 61.8 195.6 61.6 C 195.3 61.4 194.8 61.3 194.1 61.3 C 193.3 61.3 192.6 61.5 192.1 61.8 C 191.5 62.2 191.2 62.7 191.2 63.3 C 191.2 63.8 191.4 64.2 191.8 64.5 C 192.2 64.8 192.8 65.1 193.6 65.3 C 193.6 65.3 195.6 65.8 195.6 65.8 C 196.8 66.1 197.7 66.5 198.3 67.1 C 198.9 67.7 199.2 68.5 199.2 69.5 C 199.2 70.3 199 71 198.6 71.6 C 198.1 72.2 197.5 72.7 196.7 73 C 195.9 73.4 195 73.6 193.9 73.6 C 192.5 73.6 191.4 73.3 190.4 72.7 C 189.5 72 189 71.2 188.7 70 C 188.7 70 190.7 69.5 190.7 69.5 C 190.9 70.2 191.3 70.8 191.8 71.2 C 192.3 71.5 193 71.7 193.9 71.7 C 194.8 71.7 195.6 71.5 196.2 71.1 C 196.8 70.7 197.1 70.2 197.1 69.6 C 197.1 69.1 196.9 68.7 196.6 68.4 C 196.2 68.1 195.7 67.8 195 67.7 C 195 67.7 192.8 67.1 192.8 67.1 C 191.5 66.8 190.6 66.4 190 65.7 C 189.4 65.1 189.1 64.3 189.1 63.4 C 189.1 62.6 189.4 62 189.8 61.4 C 190.2 60.8 190.8 60.3 191.6 60 C 192.3 59.6 193.2 59.5 194.1 59.5 C 195.5 59.5 196.6 59.8 197.3 60.3 C 198.1 60.9 198.7 61.7 199 62.7 Z M 215.3 59.6 L 215.3 61.4 L 208.3 61.4 L 208.3 59.6 L 215.3 59.6 Z M 210.3 56.4 L 212.4 56.4 C 212.4 56.4 212.44 69.37 212.4 69.4 C 212.4 70 212.5 70.4 212.7 70.7 C 212.9 71 213.1 71.2 213.4 71.3 C 213.6 71.4 213.9 71.4 214.2 71.4 C 214.5 71.4 214.7 71.4 214.8 71.4 C 215 71.4 215.1 71.3 215.2 71.3 C 215.2 71.3 215.6 73.2 215.6 73.2 C 215.5 73.3 215.3 73.3 215 73.4 C 214.7 73.4 214.4 73.5 214 73.5 C 213.4 73.5 212.9 73.3 212.3 73.1 C 211.7 72.8 211.3 72.4 210.9 71.9 C 210.5 71.4 210.3 70.7 210.3 69.9 C 210.34 69.93 210.3 56.4 210.3 56.4 Z M 223.3 73.6 C 222 73.6 220.9 73.3 220 72.7 C 219.1 72.1 218.4 71.3 217.8 70.2 C 217.3 69.2 217.1 67.9 217.1 66.5 C 217.1 65.1 217.3 63.9 217.8 62.8 C 218.4 61.7 219.1 60.9 220 60.3 C 220.9 59.8 222 59.5 223.3 59.5 C 224.5 59.5 225.6 59.8 226.5 60.3 C 227.4 60.9 228.1 61.7 228.7 62.8 C 229.2 63.9 229.4 65.1 229.4 66.5 C 229.4 67.9 229.2 69.2 228.7 70.2 C 228.1 71.3 227.4 72.1 226.5 72.7 C 225.6 73.3 224.5 73.6 223.3 73.6 Z M 223.3 71.7 C 224.2 71.7 225 71.4 225.6 71 C 226.2 70.5 226.6 69.8 226.9 69.1 C 227.2 68.3 227.3 67.4 227.3 66.5 C 227.3 65.6 227.2 64.8 226.9 64 C 226.6 63.2 226.2 62.6 225.6 62.1 C 225 61.6 224.2 61.3 223.3 61.3 C 222.3 61.3 221.5 61.6 220.9 62.1 C 220.3 62.6 219.9 63.2 219.6 64 C 219.3 64.8 219.2 65.6 219.2 66.5 C 219.2 67.4 219.3 68.3 219.6 69.1 C 219.9 69.8 220.3 70.5 220.9 71 C 221.5 71.4 222.3 71.7 223.3 71.7 Z M 249.3 62.7 C 249.3 62.7 247.4 63.2 247.4 63.2 C 247.3 62.9 247.1 62.6 246.9 62.3 C 246.7 62 246.4 61.8 246 61.6 C 245.6 61.4 245.1 61.3 244.5 61.3 C 243.7 61.3 243 61.5 242.4 61.8 C 241.9 62.2 241.6 62.7 241.6 63.3 C 241.6 63.8 241.8 64.2 242.1 64.5 C 242.5 64.8 243.1 65.1 243.9 65.3 C 243.9 65.3 245.9 65.8 245.9 65.8 C 247.2 66.1 248.1 66.5 248.7 67.1 C 249.3 67.7 249.6 68.5 249.6 69.5 C 249.6 70.3 249.3 71 248.9 71.6 C 248.4 72.2 247.8 72.7 247 73 C 246.2 73.4 245.3 73.6 244.2 73.6 C 242.8 73.6 241.7 73.3 240.8 72.7 C 239.9 72 239.3 71.2 239.1 70 C 239.1 70 241 69.5 241 69.5 C 241.2 70.2 241.6 70.8 242.1 71.2 C 242.7 71.5 243.3 71.7 244.2 71.7 C 245.2 71.7 246 71.5 246.5 71.1 C 247.1 70.7 247.4 70.2 247.4 69.6 C 247.4 69.1 247.2 68.7 246.9 68.4 C 246.6 68.1 246.1 67.8 245.4 67.7 C 245.4 67.7 243.1 67.1 243.1 67.1 C 241.9 66.8 240.9 66.4 240.4 65.7 C 239.8 65.1 239.5 64.3 239.5 63.4 C 239.5 62.6 239.7 62 240.1 61.4 C 240.6 60.8 241.2 60.3 241.9 60 C 242.7 59.6 243.5 59.5 244.5 59.5 C 245.8 59.5 246.9 59.8 247.7 60.3 C 248.4 60.9 249 61.7 249.3 62.7 Z M 252.5 73.3 L 252.5 59.6 L 254.6 59.6 L 254.6 73.3 L 252.5 73.3 Z M 253.6 57.4 C 253.2 57.4 252.8 57.2 252.5 56.9 C 252.2 56.7 252.1 56.3 252.1 55.9 C 252.1 55.6 252.2 55.2 252.5 54.9 C 252.8 54.7 253.2 54.5 253.6 54.5 C 254 54.5 254.4 54.7 254.6 54.9 C 254.9 55.2 255.1 55.6 255.1 55.9 C 255.1 56.3 254.9 56.7 254.6 56.9 C 254.4 57.2 254 57.4 253.6 57.4 Z M 260.5 55.1 L 260.5 73.3 L 258.4 73.3 L 258.4 55.1 L 260.5 55.1 Z M 269.8 73.6 C 268.5 73.6 267.5 73.3 266.5 72.7 C 265.6 72.1 264.9 71.3 264.4 70.2 C 263.8 69.2 263.6 67.9 263.6 66.5 C 263.6 65.1 263.8 63.9 264.4 62.8 C 264.9 61.7 265.6 60.9 266.5 60.3 C 267.5 59.8 268.5 59.5 269.8 59.5 C 271 59.5 272.1 59.8 273 60.3 C 273.9 60.9 274.6 61.7 275.2 62.8 C 275.7 63.9 275.9 65.1 275.9 66.5 C 275.9 67.9 275.7 69.2 275.2 70.2 C 274.6 71.3 273.9 72.1 273 72.7 C 272.1 73.3 271 73.6 269.8 73.6 Z M 269.8 71.7 C 270.7 71.7 271.5 71.4 272.1 71 C 272.7 70.5 273.1 69.8 273.4 69.1 C 273.7 68.3 273.8 67.4 273.8 66.5 C 273.8 65.6 273.7 64.8 273.4 64 C 273.1 63.2 272.7 62.6 272.1 62.1 C 271.5 61.6 270.7 61.3 269.8 61.3 C 268.8 61.3 268.1 61.6 267.5 62.1 C 266.9 62.6 266.4 63.2 266.1 64 C 265.8 64.8 265.7 65.6 265.7 66.5 C 265.7 67.4 265.8 68.3 266.1 69.1 C 266.4 69.8 266.9 70.5 267.5 71 C 268.1 71.4 268.8 71.7 269.8 71.7 Z M 284.7 73.6 C 283.4 73.6 282.3 73.3 281.3 72.7 C 280.4 72.1 279.7 71.3 279.2 70.2 C 278.6 69.2 278.4 68 278.4 66.6 C 278.4 65.2 278.6 63.9 279.2 62.9 C 279.7 61.8 280.4 61 281.3 60.4 C 282.2 59.8 283.3 59.5 284.5 59.5 C 285.2 59.5 285.9 59.6 286.6 59.8 C 287.3 60.1 288 60.4 288.5 61 C 289.1 61.5 289.5 62.2 289.9 63.1 C 290.2 63.9 290.4 65 290.4 66.3 C 290.39 66.28 290.4 67.2 290.4 67.2 L 279.9 67.2 L 279.9 65.4 C 279.9 65.4 288.26 65.35 288.3 65.4 C 288.3 64.6 288.1 63.9 287.8 63.3 C 287.5 62.7 287.1 62.2 286.5 61.9 C 285.9 61.5 285.3 61.3 284.5 61.3 C 283.7 61.3 283 61.5 282.4 62 C 281.8 62.4 281.3 62.9 281 63.6 C 280.6 64.2 280.5 64.9 280.5 65.7 C 280.5 65.7 280.5 66.9 280.5 66.9 C 280.5 67.9 280.7 68.8 281 69.5 C 281.4 70.2 281.9 70.8 282.5 71.1 C 283.2 71.5 283.9 71.7 284.7 71.7 C 285.3 71.7 285.8 71.6 286.2 71.4 C 286.7 71.3 287.1 71 287.4 70.7 C 287.7 70.4 288 70 288.1 69.5 C 288.1 69.5 290.2 70.1 290.2 70.1 C 290 70.8 289.6 71.4 289.1 71.9 C 288.6 72.4 288 72.8 287.2 73.1 C 286.5 73.4 285.7 73.6 284.7 73.6 Z M 298.6 73.6 C 297.5 73.6 296.5 73.3 295.6 72.7 C 294.7 72.1 294.1 71.3 293.6 70.2 C 293.1 69.2 292.8 67.9 292.8 66.5 C 292.8 65.1 293.1 63.8 293.6 62.8 C 294.1 61.7 294.7 60.9 295.6 60.3 C 296.5 59.7 297.5 59.5 298.7 59.5 C 299.5 59.5 300.2 59.6 300.8 59.9 C 301.3 60.2 301.7 60.5 302 60.9 C 302.2 61.3 302.4 61.6 302.6 61.8 C 302.59 61.8 302.8 61.8 302.8 61.8 L 302.8 55.1 L 304.9 55.1 L 304.9 73.3 L 302.8 73.3 L 302.8 71.2 C 302.8 71.2 302.59 71.18 302.6 71.2 C 302.4 71.4 302.2 71.7 301.9 72.1 C 301.7 72.5 301.2 72.8 300.7 73.1 C 300.2 73.4 299.5 73.6 298.6 73.6 Z M 298.9 71.7 C 299.7 71.7 300.5 71.5 301 71 C 301.6 70.6 302.1 70 302.4 69.2 C 302.7 68.4 302.8 67.5 302.8 66.5 C 302.8 65.4 302.7 64.5 302.4 63.8 C 302.1 63 301.6 62.4 301 62 C 300.5 61.6 299.8 61.3 298.9 61.3 C 298 61.3 297.3 61.6 296.7 62 C 296.1 62.5 295.7 63.1 295.4 63.9 C 295.1 64.6 294.9 65.5 294.9 66.5 C 294.9 67.4 295.1 68.3 295.4 69.1 C 295.7 69.9 296.1 70.5 296.7 71 C 297.3 71.4 298 71.7 298.9 71.7 Z M 316 73.3 L 316 59.6 L 318.1 59.6 L 318.1 73.3 L 316 73.3 Z M 317.1 57.4 C 316.7 57.4 316.3 57.2 316 56.9 C 315.7 56.7 315.6 56.3 315.6 55.9 C 315.6 55.6 315.7 55.2 316 54.9 C 316.3 54.7 316.7 54.5 317.1 54.5 C 317.5 54.5 317.8 54.7 318.1 54.9 C 318.4 55.2 318.6 55.6 318.6 55.9 C 318.6 56.3 318.4 56.7 318.1 56.9 C 317.8 57.2 317.5 57.4 317.1 57.4 Z M 324 65.1 C 323.97 65.07 324 73.3 324 73.3 L 321.9 73.3 L 321.9 59.6 L 323.9 59.6 L 323.9 61.8 C 323.9 61.8 324.07 61.77 324.1 61.8 C 324.4 61.1 324.9 60.5 325.5 60.1 C 326.2 59.7 327 59.5 328.1 59.5 C 329 59.5 329.8 59.6 330.5 60 C 331.2 60.4 331.7 61 332.1 61.7 C 332.5 62.5 332.7 63.4 332.7 64.6 C 332.67 64.61 332.7 73.3 332.7 73.3 L 330.6 73.3 C 330.6 73.3 330.57 64.75 330.6 64.8 C 330.6 63.7 330.3 62.8 329.7 62.2 C 329.2 61.6 328.4 61.3 327.4 61.3 C 326.8 61.3 326.2 61.5 325.7 61.8 C 325.1 62.1 324.7 62.5 324.4 63 C 324.1 63.6 324 64.3 324 65.1 Z M 345.9 62.7 C 345.9 62.7 344 63.2 344 63.2 C 343.9 62.9 343.7 62.6 343.5 62.3 C 343.2 62 342.9 61.8 342.5 61.6 C 342.1 61.4 341.6 61.3 341 61.3 C 340.2 61.3 339.5 61.5 339 61.8 C 338.4 62.2 338.1 62.7 338.1 63.3 C 338.1 63.8 338.3 64.2 338.7 64.5 C 339.1 64.8 339.7 65.1 340.5 65.3 C 340.5 65.3 342.5 65.8 342.5 65.8 C 343.7 66.1 344.6 66.5 345.2 67.1 C 345.8 67.7 346.1 68.5 346.1 69.5 C 346.1 70.3 345.9 71 345.4 71.6 C 345 72.2 344.4 72.7 343.6 73 C 342.8 73.4 341.8 73.6 340.8 73.6 C 339.4 73.6 338.2 73.3 337.3 72.7 C 336.4 72 335.8 71.2 335.6 70 C 335.6 70 337.6 69.5 337.6 69.5 C 337.8 70.2 338.1 70.8 338.7 71.2 C 339.2 71.5 339.9 71.7 340.8 71.7 C 341.7 71.7 342.5 71.5 343.1 71.1 C 343.7 70.7 343.9 70.2 343.9 69.6 C 343.9 69.1 343.8 68.7 343.5 68.4 C 343.1 68.1 342.6 67.8 341.9 67.7 C 341.9 67.7 339.7 67.1 339.7 67.1 C 338.4 66.8 337.5 66.4 336.9 65.7 C 336.3 65.1 336 64.3 336 63.4 C 336 62.6 336.2 62 336.7 61.4 C 337.1 60.8 337.7 60.3 338.5 60 C 339.2 59.6 340.1 59.5 341 59.5 C 342.4 59.5 343.4 59.8 344.2 60.3 C 345 60.9 345.5 61.7 345.9 62.7 Z M 349.1 73.3 L 349.1 59.6 L 351.2 59.6 L 351.2 73.3 L 349.1 73.3 Z M 350.1 57.4 C 349.7 57.4 349.4 57.2 349.1 56.9 C 348.8 56.7 348.7 56.3 348.7 55.9 C 348.7 55.6 348.8 55.2 349.1 54.9 C 349.4 54.7 349.7 54.5 350.1 54.5 C 350.6 54.5 350.9 54.7 351.2 54.9 C 351.5 55.2 351.6 55.6 351.6 55.9 C 351.6 56.3 351.5 56.7 351.2 56.9 C 350.9 57.2 350.6 57.4 350.1 57.4 Z M 360.4 78.7 C 359.3 78.7 358.5 78.5 357.7 78.3 C 357 78 356.4 77.7 355.9 77.3 C 355.4 76.9 355.1 76.4 354.8 75.9 C 354.8 75.9 356.4 74.8 356.4 74.8 C 356.6 75 356.9 75.3 357.2 75.6 C 357.5 75.9 357.9 76.2 358.4 76.5 C 358.9 76.7 359.5 76.8 360.4 76.8 C 361.5 76.8 362.4 76.6 363.1 76 C 363.8 75.5 364.2 74.7 364.2 73.5 C 364.15 73.52 364.2 70.8 364.2 70.8 C 364.2 70.8 363.98 70.75 364 70.8 C 363.8 71 363.6 71.3 363.3 71.7 C 363 72 362.6 72.4 362.1 72.6 C 361.6 72.9 360.9 73.1 360 73.1 C 358.9 73.1 357.9 72.8 357 72.3 C 356.2 71.8 355.5 71 355 70 C 354.5 69 354.2 67.8 354.2 66.4 C 354.2 65 354.5 63.8 354.9 62.7 C 355.4 61.7 356.1 60.9 357 60.3 C 357.9 59.7 358.9 59.5 360 59.5 C 360.9 59.5 361.6 59.6 362.2 59.9 C 362.7 60.2 363.1 60.5 363.4 60.9 C 363.6 61.3 363.9 61.6 364 61.8 C 364.01 61.8 364.2 61.8 364.2 61.8 L 364.2 59.6 L 366.2 59.6 C 366.2 59.6 366.25 73.66 366.2 73.7 C 366.2 74.8 366 75.8 365.5 76.5 C 364.9 77.3 364.2 77.8 363.3 78.2 C 362.4 78.5 361.4 78.7 360.4 78.7 Z M 360.3 71.2 C 361.1 71.2 361.8 71 362.4 70.6 C 363 70.2 363.4 69.7 363.7 68.9 C 364 68.2 364.2 67.4 364.2 66.3 C 364.2 65.4 364 64.5 363.7 63.7 C 363.4 63 363 62.4 362.4 62 C 361.9 61.6 361.1 61.3 360.3 61.3 C 359.4 61.3 358.7 61.6 358.1 62 C 357.5 62.5 357 63.1 356.7 63.8 C 356.5 64.6 356.3 65.4 356.3 66.3 C 356.3 67.3 356.5 68.1 356.8 68.9 C 357.1 69.6 357.5 70.1 358.1 70.6 C 358.7 71 359.4 71.2 360.3 71.2 Z M 372.1 65.1 C 372.09 65.07 372.1 73.3 372.1 73.3 L 370 73.3 L 370 55.1 L 372.1 55.1 L 372.1 61.8 C 372.1 61.8 372.26 61.77 372.3 61.8 C 372.6 61.1 373.1 60.5 373.7 60.1 C 374.3 59.7 375.2 59.5 376.3 59.5 C 377.2 59.5 378 59.6 378.7 60 C 379.4 60.4 380 60.9 380.3 61.7 C 380.7 62.5 380.9 63.4 380.9 64.6 C 380.93 64.61 380.9 73.3 380.9 73.3 L 378.8 73.3 C 378.8 73.3 378.83 64.75 378.8 64.8 C 378.8 63.7 378.6 62.8 378 62.2 C 377.4 61.6 376.7 61.3 375.7 61.3 C 375 61.3 374.4 61.5 373.8 61.8 C 373.3 62.1 372.9 62.5 372.6 63 C 372.2 63.6 372.1 64.3 372.1 65.1 Z M 390.2 59.6 L 390.2 61.4 L 383.2 61.4 L 383.2 59.6 L 390.2 59.6 Z M 385.2 56.4 L 387.3 56.4 C 387.3 56.4 387.32 69.37 387.3 69.4 C 387.3 70 387.4 70.4 387.6 70.7 C 387.8 71 388 71.2 388.3 71.3 C 388.5 71.4 388.8 71.4 389.1 71.4 C 389.4 71.4 389.5 71.4 389.7 71.4 C 389.8 71.4 390 71.3 390.1 71.3 C 390.1 71.3 390.5 73.2 390.5 73.2 C 390.3 73.3 390.1 73.3 389.9 73.4 C 389.6 73.4 389.3 73.5 388.9 73.5 C 388.3 73.5 387.7 73.3 387.2 73.1 C 386.6 72.8 386.1 72.4 385.8 71.9 C 385.4 71.4 385.2 70.7 385.2 69.9 C 385.22 69.93 385.2 56.4 385.2 56.4 Z M 402.7 62.7 C 402.7 62.7 400.8 63.2 400.8 63.2 C 400.7 62.9 400.5 62.6 400.3 62.3 C 400.1 62 399.8 61.8 399.4 61.6 C 399 61.4 398.5 61.3 397.9 61.3 C 397 61.3 396.3 61.5 395.8 61.8 C 395.2 62.2 395 62.7 395 63.3 C 395 63.8 395.1 64.2 395.5 64.5 C 395.9 64.8 396.5 65.1 397.3 65.3 C 397.3 65.3 399.3 65.8 399.3 65.8 C 400.5 66.1 401.5 66.5 402 67.1 C 402.6 67.7 402.9 68.5 402.9 69.5 C 402.9 70.3 402.7 71 402.3 71.6 C 401.8 72.2 401.2 72.7 400.4 73 C 399.6 73.4 398.7 73.6 397.6 73.6 C 396.2 73.6 395.1 73.3 394.2 72.7 C 393.3 72 392.7 71.2 392.4 70 C 392.4 70 394.4 69.5 394.4 69.5 C 394.6 70.2 395 70.8 395.5 71.2 C 396 71.5 396.7 71.7 397.6 71.7 C 398.6 71.7 399.3 71.5 399.9 71.1 C 400.5 70.7 400.8 70.2 400.8 69.6 C 400.8 69.1 400.6 68.7 400.3 68.4 C 400 68.1 399.4 67.8 398.8 67.7 C 398.8 67.7 396.5 67.1 396.5 67.1 C 395.2 66.8 394.3 66.4 393.7 65.7 C 393.2 65.1 392.9 64.3 392.9 63.4 C 392.9 62.6 393.1 62 393.5 61.4 C 393.9 60.8 394.5 60.3 395.3 60 C 396.1 59.6 396.9 59.5 397.9 59.5 C 399.2 59.5 400.3 59.8 401.1 60.3 C 401.8 60.9 402.4 61.7 402.7 62.7 Z M 419.1 59.6 L 419.1 61.4 L 412 61.4 L 412 59.6 L 419.1 59.6 Z M 414.1 56.4 L 416.2 56.4 C 416.2 56.4 416.16 69.37 416.2 69.4 C 416.2 70 416.2 70.4 416.4 70.7 C 416.6 71 416.8 71.2 417.1 71.3 C 417.4 71.4 417.7 71.4 418 71.4 C 418.2 71.4 418.4 71.4 418.5 71.4 C 418.7 71.4 418.8 71.3 418.9 71.3 C 418.9 71.3 419.3 73.2 419.3 73.2 C 419.2 73.3 419 73.3 418.7 73.4 C 418.5 73.4 418.1 73.5 417.8 73.5 C 417.2 73.5 416.6 73.3 416 73.1 C 415.5 72.8 415 72.4 414.6 71.9 C 414.2 71.4 414.1 70.7 414.1 69.9 C 414.06 69.93 414.1 56.4 414.1 56.4 Z M 424 65.1 C 424.03 65.07 424 73.3 424 73.3 L 421.9 73.3 L 421.9 55.1 L 424 55.1 L 424 61.8 C 424 61.8 424.2 61.77 424.2 61.8 C 424.5 61.1 425 60.5 425.6 60.1 C 426.3 59.7 427.1 59.5 428.2 59.5 C 429.1 59.5 430 59.6 430.7 60 C 431.4 60.4 431.9 60.9 432.3 61.7 C 432.7 62.5 432.9 63.4 432.9 64.6 C 432.87 64.61 432.9 73.3 432.9 73.3 L 430.8 73.3 C 430.8 73.3 430.77 64.75 430.8 64.8 C 430.8 63.7 430.5 62.8 429.9 62.2 C 429.4 61.6 428.6 61.3 427.6 61.3 C 426.9 61.3 426.3 61.5 425.8 61.8 C 425.2 62.1 424.8 62.5 424.5 63 C 424.2 63.6 424 64.3 424 65.1 Z M 440.5 73.6 C 439.6 73.6 438.8 73.4 438.1 73.1 C 437.4 72.8 436.9 72.3 436.5 71.7 C 436 71 435.8 70.3 435.8 69.4 C 435.8 68.6 436 68 436.3 67.5 C 436.6 67 437 66.6 437.5 66.3 C 438 66.1 438.6 65.9 439.2 65.7 C 439.9 65.6 440.5 65.5 441.1 65.4 C 442 65.3 442.6 65.2 443.1 65.1 C 443.7 65.1 444 65 444.3 64.9 C 444.5 64.7 444.6 64.5 444.6 64.1 C 444.6 64.1 444.6 64.1 444.6 64.1 C 444.6 63.2 444.4 62.5 443.9 62 C 443.5 61.5 442.7 61.3 441.8 61.3 C 440.8 61.3 440 61.5 439.4 62 C 438.8 62.4 438.4 62.9 438.2 63.4 C 438.2 63.4 436.2 62.7 436.2 62.7 C 436.6 61.8 437.1 61.2 437.7 60.7 C 438.2 60.3 438.9 59.9 439.6 59.7 C 440.3 59.6 441 59.5 441.7 59.5 C 442.1 59.5 442.6 59.5 443.2 59.6 C 443.8 59.7 444.3 59.9 444.9 60.2 C 445.4 60.6 445.9 61.1 446.2 61.7 C 446.6 62.3 446.7 63.2 446.7 64.3 C 446.74 64.29 446.7 73.3 446.7 73.3 L 444.6 73.3 L 444.6 71.4 C 444.6 71.4 444.54 71.43 444.5 71.4 C 444.4 71.7 444.2 72 443.8 72.4 C 443.5 72.7 443.1 73 442.5 73.2 C 442 73.5 441.3 73.6 440.5 73.6 Z M 440.8 71.7 C 441.6 71.7 442.3 71.5 442.9 71.2 C 443.5 70.9 443.9 70.5 444.2 70 C 444.5 69.4 444.6 68.9 444.6 68.3 C 444.6 68.3 444.6 66.4 444.6 66.4 C 444.6 66.5 444.4 66.6 444.1 66.7 C 443.8 66.8 443.4 66.9 443 66.9 C 442.6 67 442.3 67 441.9 67.1 C 441.5 67.1 441.2 67.2 441 67.2 C 440.5 67.3 440 67.4 439.5 67.5 C 439 67.7 438.6 67.9 438.4 68.2 C 438.1 68.6 437.9 69 437.9 69.5 C 437.9 70.2 438.2 70.8 438.7 71.2 C 439.3 71.5 440 71.7 440.8 71.7 Z M 456.1 59.6 L 456.1 61.4 L 449 61.4 L 449 59.6 L 456.1 59.6 Z M 451.1 56.4 L 453.2 56.4 C 453.2 56.4 453.15 69.37 453.2 69.4 C 453.2 70 453.2 70.4 453.4 70.7 C 453.6 71 453.8 71.2 454.1 71.3 C 454.4 71.4 454.7 71.4 455 71.4 C 455.2 71.4 455.4 71.4 455.5 71.4 C 455.7 71.4 455.8 71.3 455.9 71.3 C 455.9 71.3 456.3 73.2 456.3 73.2 C 456.2 73.3 456 73.3 455.7 73.4 C 455.5 73.4 455.1 73.5 454.7 73.5 C 454.2 73.5 453.6 73.3 453 73.1 C 452.4 72.8 452 72.4 451.6 71.9 C 451.2 71.4 451.1 70.7 451.1 69.9 C 451.05 69.93 451.1 56.4 451.1 56.4 Z " stroke="none" fill="#000"/>  </g>  <g id="Polygon113729">    <path d="M 13.8 31.3 C 13.8 31.27 2.7 31.3 2.7 31.3 L 2.7 0 C 2.7 0 13.9 0 13.9 0 C 17 0 19.7 0.6 22 1.9 C 24.3 3.1 26 4.9 27.3 7.2 C 28.5 9.6 29.1 12.4 29.1 15.6 C 29.1 18.9 28.5 21.7 27.3 24 C 26 26.3 24.3 28.1 22 29.4 C 19.7 30.6 17 31.3 13.8 31.3 Z M 9.3 25.6 C 9.3 25.6 13.53 25.61 13.5 25.6 C 15.5 25.6 17.1 25.3 18.5 24.6 C 19.8 23.9 20.8 22.8 21.5 21.3 C 22.2 19.8 22.5 17.9 22.5 15.6 C 22.5 13.3 22.2 11.4 21.5 9.9 C 20.8 8.5 19.8 7.4 18.5 6.7 C 17.1 6 15.5 5.7 13.5 5.7 C 13.54 5.67 9.3 5.7 9.3 5.7 L 9.3 25.6 Z M 33.7 31.3 L 33.7 7.8 L 40.2 7.8 L 40.2 31.3 L 33.7 31.3 Z M 37 4.8 C 36 4.8 35.2 4.5 34.5 3.8 C 33.8 3.2 33.5 2.4 33.5 1.5 C 33.5 0.6 33.8 -0.2 34.5 -0.8 C 35.2 -1.5 36.1 -1.8 37 -1.8 C 38 -1.8 38.8 -1.5 39.5 -0.8 C 40.2 -0.2 40.5 0.6 40.5 1.5 C 40.5 2.4 40.2 3.2 39.5 3.8 C 38.8 4.5 38 4.8 37 4.8 Z M 64.6 14.5 C 64.6 14.5 58.7 14.9 58.7 14.9 C 58.6 14.4 58.4 13.9 58 13.5 C 57.7 13.1 57.3 12.7 56.7 12.5 C 56.2 12.2 55.5 12.1 54.8 12.1 C 53.8 12.1 52.9 12.3 52.2 12.8 C 51.5 13.2 51.2 13.7 51.2 14.4 C 51.2 15 51.4 15.5 51.8 15.9 C 52.3 16.3 53.1 16.6 54.2 16.8 C 54.2 16.8 58.4 17.7 58.4 17.7 C 60.7 18.1 62.4 18.9 63.5 19.9 C 64.6 21 65.2 22.3 65.2 24 C 65.2 25.5 64.7 26.9 63.8 28.1 C 62.9 29.2 61.7 30.1 60.1 30.8 C 58.6 31.4 56.8 31.7 54.7 31.7 C 51.6 31.7 49.2 31.1 47.3 29.8 C 45.5 28.5 44.4 26.7 44.1 24.5 C 44.1 24.5 50.5 24.1 50.5 24.1 C 50.7 25.1 51.2 25.8 51.9 26.3 C 52.6 26.8 53.6 27 54.8 27 C 55.9 27 56.8 26.8 57.5 26.4 C 58.2 25.9 58.6 25.4 58.6 24.7 C 58.6 24.1 58.3 23.6 57.8 23.2 C 57.3 22.8 56.6 22.5 55.6 22.3 C 55.6 22.3 51.5 21.5 51.5 21.5 C 49.2 21.1 47.5 20.3 46.4 19.1 C 45.3 18 44.7 16.6 44.7 14.8 C 44.7 13.3 45.1 12 45.9 10.9 C 46.8 9.8 47.9 9 49.4 8.4 C 50.9 7.8 52.7 7.5 54.7 7.5 C 57.6 7.5 60 8.1 61.7 9.4 C 63.4 10.6 64.4 12.3 64.6 14.5 Z M 79.4 31.7 C 77 31.7 75 31.2 73.2 30.2 C 71.5 29.2 70.2 27.8 69.3 25.9 C 68.3 24.1 67.9 22 67.9 19.6 C 67.9 17.2 68.4 15.1 69.3 13.3 C 70.2 11.5 71.5 10.1 73.3 9 C 75 8 77 7.5 79.4 7.5 C 81.4 7.5 83.2 7.9 84.8 8.6 C 86.3 9.4 87.5 10.4 88.4 11.8 C 89.3 13.1 89.8 14.7 89.9 16.5 C 89.9 16.5 83.8 16.5 83.8 16.5 C 83.6 15.3 83.1 14.4 82.4 13.7 C 81.7 12.9 80.7 12.6 79.5 12.6 C 78.5 12.6 77.6 12.9 76.9 13.4 C 76.1 13.9 75.5 14.7 75.1 15.8 C 74.7 16.8 74.5 18.1 74.5 19.5 C 74.5 21 74.7 22.3 75.1 23.4 C 75.5 24.4 76.1 25.2 76.9 25.8 C 77.6 26.3 78.5 26.6 79.5 26.6 C 80.3 26.6 80.9 26.4 81.5 26.1 C 82.1 25.8 82.6 25.4 83 24.8 C 83.4 24.2 83.6 23.5 83.8 22.7 C 83.8 22.7 89.9 22.7 89.9 22.7 C 89.8 24.5 89.3 26 88.4 27.4 C 87.6 28.8 86.4 29.8 84.9 30.6 C 83.3 31.3 81.5 31.7 79.4 31.7 Z M 104.2 31.7 C 101.9 31.7 99.8 31.2 98.1 30.2 C 96.4 29.2 95 27.8 94.1 26 C 93.1 24.1 92.7 22 92.7 19.6 C 92.7 17.2 93.1 15.1 94.1 13.3 C 95 11.5 96.4 10 98.1 9 C 99.8 8 101.9 7.5 104.2 7.5 C 106.6 7.5 108.6 8 110.4 9 C 112.1 10 113.4 11.5 114.4 13.3 C 115.3 15.1 115.8 17.2 115.8 19.6 C 115.8 22 115.3 24.1 114.4 26 C 113.4 27.8 112.1 29.2 110.4 30.2 C 108.6 31.2 106.6 31.7 104.2 31.7 Z M 104.3 26.7 C 105.3 26.7 106.2 26.4 107 25.8 C 107.7 25.2 108.2 24.3 108.6 23.2 C 109 22.2 109.2 21 109.2 19.6 C 109.2 18.2 109 17 108.6 15.9 C 108.2 14.9 107.7 14 107 13.4 C 106.2 12.8 105.3 12.5 104.3 12.5 C 103.2 12.5 102.3 12.8 101.5 13.4 C 100.8 14 100.2 14.9 99.8 15.9 C 99.5 17 99.3 18.2 99.3 19.6 C 99.3 21 99.5 22.2 99.8 23.2 C 100.2 24.3 100.8 25.2 101.5 25.8 C 102.3 26.4 103.2 26.7 104.3 26.7 Z M 126.3 17.7 C 126.26 17.71 126.3 31.3 126.3 31.3 L 119.8 31.3 L 119.8 7.8 L 126 7.8 L 126 12 C 126 12 126.23 11.96 126.2 12 C 126.8 10.6 127.6 9.5 128.8 8.7 C 130.1 7.9 131.5 7.5 133.3 7.5 C 134.9 7.5 136.3 7.9 137.5 8.6 C 138.8 9.3 139.7 10.3 140.4 11.6 C 141 12.9 141.4 14.5 141.4 16.3 C 141.38 16.34 141.4 31.3 141.4 31.3 L 134.9 31.3 C 134.9 31.3 134.88 17.5 134.9 17.5 C 134.9 16.1 134.5 14.9 133.8 14.1 C 133 13.3 132 12.9 130.7 12.9 C 129.8 12.9 129.1 13.1 128.4 13.5 C 127.7 13.9 127.2 14.4 126.8 15.1 C 126.5 15.8 126.3 16.7 126.3 17.7 Z M 152.9 17.7 C 152.89 17.71 152.9 31.3 152.9 31.3 L 146.4 31.3 L 146.4 7.8 L 152.6 7.8 L 152.6 12 C 152.6 12 152.86 11.96 152.9 12 C 153.4 10.6 154.2 9.5 155.5 8.7 C 156.7 7.9 158.2 7.5 159.9 7.5 C 161.5 7.5 163 7.9 164.2 8.6 C 165.4 9.3 166.3 10.3 167 11.6 C 167.7 12.9 168 14.5 168 16.3 C 168.01 16.34 168 31.3 168 31.3 L 161.5 31.3 C 161.5 31.3 161.5 17.5 161.5 17.5 C 161.5 16.1 161.1 14.9 160.4 14.1 C 159.7 13.3 158.6 12.9 157.3 12.9 C 156.5 12.9 155.7 13.1 155 13.5 C 154.4 13.9 153.8 14.4 153.5 15.1 C 153.1 15.8 152.9 16.7 152.9 17.7 Z M 183.5 31.7 C 181.1 31.7 179 31.2 177.3 30.3 C 175.6 29.3 174.2 27.9 173.3 26.1 C 172.4 24.3 171.9 22.1 171.9 19.7 C 171.9 17.2 172.4 15.1 173.3 13.3 C 174.2 11.5 175.5 10.1 177.3 9 C 179 8 181 7.5 183.3 7.5 C 184.8 7.5 186.3 7.8 187.6 8.3 C 188.9 8.7 190.1 9.5 191.1 10.5 C 192.1 11.5 192.9 12.7 193.4 14.2 C 194 15.7 194.3 17.4 194.3 19.4 C 194.29 19.42 194.3 21.2 194.3 21.2 L 174.5 21.2 L 174.5 17.2 C 174.5 17.2 188.17 17.18 188.2 17.2 C 188.2 16.2 188 15.4 187.6 14.7 C 187.1 14 186.6 13.4 185.9 13 C 185.1 12.6 184.3 12.4 183.4 12.4 C 182.4 12.4 181.5 12.6 180.8 13 C 180 13.5 179.4 14.1 179 14.9 C 178.5 15.6 178.3 16.5 178.3 17.4 C 178.3 17.4 178.3 21.2 178.3 21.2 C 178.3 22.4 178.5 23.4 179 24.2 C 179.4 25.1 180 25.7 180.8 26.2 C 181.6 26.6 182.5 26.9 183.6 26.9 C 184.4 26.9 185 26.8 185.6 26.6 C 186.2 26.4 186.7 26.1 187.2 25.7 C 187.6 25.2 187.9 24.7 188.1 24.2 C 188.1 24.2 194.2 24.6 194.2 24.6 C 193.8 26 193.2 27.3 192.3 28.3 C 191.3 29.4 190.1 30.2 188.6 30.8 C 187.2 31.4 185.5 31.7 183.5 31.7 Z M 208.8 31.7 C 206.4 31.7 204.4 31.2 202.6 30.2 C 200.9 29.2 199.6 27.8 198.7 25.9 C 197.8 24.1 197.3 22 197.3 19.6 C 197.3 17.2 197.8 15.1 198.7 13.3 C 199.6 11.5 200.9 10.1 202.7 9 C 204.4 8 206.4 7.5 208.8 7.5 C 210.8 7.5 212.6 7.9 214.2 8.6 C 215.7 9.4 216.9 10.4 217.8 11.8 C 218.7 13.1 219.2 14.7 219.3 16.5 C 219.3 16.5 213.2 16.5 213.2 16.5 C 213 15.3 212.5 14.4 211.8 13.7 C 211.1 12.9 210.1 12.6 208.9 12.6 C 207.9 12.6 207 12.9 206.3 13.4 C 205.5 13.9 204.9 14.7 204.5 15.8 C 204.1 16.8 203.9 18.1 203.9 19.5 C 203.9 21 204.1 22.3 204.5 23.4 C 204.9 24.4 205.5 25.2 206.3 25.8 C 207 26.3 207.9 26.6 208.9 26.6 C 209.7 26.6 210.3 26.4 210.9 26.1 C 211.5 25.8 212 25.4 212.4 24.8 C 212.8 24.2 213 23.5 213.2 22.7 C 213.2 22.7 219.3 22.7 219.3 22.7 C 219.2 24.5 218.7 26 217.9 27.4 C 217 28.8 215.8 29.8 214.3 30.6 C 212.7 31.3 210.9 31.7 208.8 31.7 Z M 235.6 7.8 L 235.6 12.7 L 221.5 12.7 L 221.5 7.8 L 235.6 7.8 Z M 224.7 2.2 L 231.2 2.2 C 231.2 2.2 231.18 24.07 231.2 24.1 C 231.2 24.7 231.3 25.1 231.5 25.5 C 231.6 25.8 231.9 26 232.2 26.2 C 232.6 26.3 232.9 26.4 233.4 26.4 C 233.7 26.4 234 26.3 234.3 26.3 C 234.6 26.2 234.8 26.2 235 26.1 C 235 26.1 236 31 236 31 C 235.7 31.1 235.2 31.2 234.6 31.3 C 234.1 31.5 233.3 31.6 232.5 31.6 C 230.9 31.7 229.6 31.4 228.4 31 C 227.2 30.5 226.3 29.7 225.6 28.7 C 225 27.7 224.7 26.5 224.7 24.9 C 224.68 24.92 224.7 2.2 224.7 2.2 Z M 249.5 31.7 C 247.1 31.7 245 31.2 243.2 30.3 C 241.5 29.3 240.2 27.9 239.2 26.1 C 238.3 24.3 237.8 22.1 237.8 19.7 C 237.8 17.2 238.3 15.1 239.2 13.3 C 240.2 11.5 241.5 10.1 243.2 9 C 244.9 8 246.9 7.5 249.2 7.5 C 250.8 7.5 252.2 7.8 253.5 8.3 C 254.9 8.7 256 9.5 257 10.5 C 258 11.5 258.8 12.7 259.4 14.2 C 259.9 15.7 260.2 17.4 260.2 19.4 C 260.23 19.42 260.2 21.2 260.2 21.2 L 240.4 21.2 L 240.4 17.2 C 240.4 17.2 254.11 17.18 254.1 17.2 C 254.1 16.2 253.9 15.4 253.5 14.7 C 253.1 14 252.5 13.4 251.8 13 C 251.1 12.6 250.3 12.4 249.3 12.4 C 248.3 12.4 247.5 12.6 246.7 13 C 245.9 13.5 245.3 14.1 244.9 14.9 C 244.5 15.6 244.3 16.5 244.3 17.4 C 244.3 17.4 244.3 21.2 244.3 21.2 C 244.3 22.4 244.5 23.4 244.9 24.2 C 245.3 25.1 246 25.7 246.7 26.2 C 247.5 26.6 248.5 26.9 249.6 26.9 C 250.3 26.9 251 26.8 251.6 26.6 C 252.2 26.4 252.7 26.1 253.1 25.7 C 253.5 25.2 253.9 24.7 254.1 24.2 C 254.1 24.2 260.1 24.6 260.1 24.6 C 259.8 26 259.2 27.3 258.2 28.3 C 257.3 29.4 256.1 30.2 254.6 30.8 C 253.1 31.4 251.4 31.7 249.5 31.7 Z M 272.9 31.7 C 271.1 31.7 269.5 31.2 268 30.3 C 266.6 29.4 265.5 28 264.6 26.2 C 263.8 24.4 263.4 22.2 263.4 19.6 C 263.4 16.9 263.8 14.7 264.7 12.9 C 265.5 11.1 266.7 9.7 268.1 8.8 C 269.6 8 271.1 7.5 272.9 7.5 C 274.2 7.5 275.3 7.7 276.1 8.2 C 277 8.6 277.7 9.2 278.3 9.8 C 278.8 10.5 279.2 11.1 279.5 11.8 C 279.53 11.76 279.7 11.8 279.7 11.8 L 279.7 0 L 286.2 0 L 286.2 31.3 L 279.8 31.3 L 279.8 27.5 C 279.8 27.5 279.53 27.52 279.5 27.5 C 279.2 28.2 278.8 28.8 278.2 29.4 C 277.7 30.1 277 30.6 276.1 31 C 275.2 31.4 274.1 31.7 272.9 31.7 Z M 274.9 26.5 C 276 26.5 276.9 26.2 277.6 25.6 C 278.3 25 278.9 24.2 279.3 23.2 C 279.7 22.2 279.9 20.9 279.9 19.5 C 279.9 18.2 279.7 16.9 279.3 15.9 C 278.9 14.9 278.3 14.1 277.6 13.5 C 276.9 13 276 12.7 274.9 12.7 C 273.9 12.7 273 13 272.2 13.6 C 271.5 14.1 270.9 14.9 270.6 16 C 270.2 17 270 18.2 270 19.5 C 270 20.9 270.2 22.1 270.6 23.2 C 271 24.2 271.5 25 272.2 25.6 C 273 26.2 273.9 26.5 274.9 26.5 Z M 301.5 31.3 L 301.5 7.8 L 308 7.8 L 308 31.3 L 301.5 31.3 Z M 304.8 4.8 C 303.8 4.8 303 4.5 302.3 3.8 C 301.6 3.2 301.3 2.4 301.3 1.5 C 301.3 0.6 301.6 -0.2 302.3 -0.8 C 303 -1.5 303.8 -1.8 304.8 -1.8 C 305.8 -1.8 306.6 -1.5 307.3 -0.8 C 308 -0.2 308.3 0.6 308.3 1.5 C 308.3 2.4 308 3.2 307.3 3.8 C 306.6 4.5 305.8 4.8 304.8 4.8 Z M 319.6 17.7 C 319.62 17.71 319.6 31.3 319.6 31.3 L 313.1 31.3 L 313.1 7.8 L 319.3 7.8 L 319.3 12 C 319.3 12 319.59 11.96 319.6 12 C 320.1 10.6 321 9.5 322.2 8.7 C 323.4 7.9 324.9 7.5 326.6 7.5 C 328.3 7.5 329.7 7.9 330.9 8.6 C 332.1 9.3 333.1 10.3 333.7 11.6 C 334.4 12.9 334.7 14.5 334.7 16.3 C 334.74 16.34 334.7 31.3 334.7 31.3 L 328.2 31.3 C 328.2 31.3 328.24 17.5 328.2 17.5 C 328.2 16.1 327.9 14.9 327.1 14.1 C 326.4 13.3 325.4 12.9 324.1 12.9 C 323.2 12.9 322.4 13.1 321.8 13.5 C 321.1 13.9 320.6 14.4 320.2 15.1 C 319.8 15.8 319.6 16.7 319.6 17.7 Z M 351.6 7.8 L 351.6 12.7 L 337.5 12.7 L 337.5 7.8 L 351.6 7.8 Z M 340.7 2.2 L 347.2 2.2 C 347.2 2.2 347.22 24.07 347.2 24.1 C 347.2 24.7 347.3 25.1 347.5 25.5 C 347.7 25.8 347.9 26 348.3 26.2 C 348.6 26.3 349 26.4 349.4 26.4 C 349.7 26.4 350 26.3 350.3 26.3 C 350.6 26.2 350.9 26.2 351 26.1 C 351 26.1 352.1 31 352.1 31 C 351.7 31.1 351.3 31.2 350.7 31.3 C 350.1 31.5 349.4 31.6 348.5 31.6 C 347 31.7 345.6 31.4 344.4 31 C 343.2 30.5 342.3 29.7 341.7 28.7 C 341 27.7 340.7 26.5 340.7 24.9 C 340.71 24.92 340.7 2.2 340.7 2.2 Z M 365.5 31.7 C 363.1 31.7 361 31.2 359.3 30.3 C 357.5 29.3 356.2 27.9 355.3 26.1 C 354.3 24.3 353.9 22.1 353.9 19.7 C 353.9 17.2 354.3 15.1 355.3 13.3 C 356.2 11.5 357.5 10.1 359.2 9 C 360.9 8 362.9 7.5 365.2 7.5 C 366.8 7.5 368.2 7.8 369.6 8.3 C 370.9 8.7 372.1 9.5 373.1 10.5 C 374.1 11.5 374.9 12.7 375.4 14.2 C 376 15.7 376.3 17.4 376.3 19.4 C 376.27 19.42 376.3 21.2 376.3 21.2 L 356.5 21.2 L 356.5 17.2 C 356.5 17.2 370.14 17.18 370.1 17.2 C 370.1 16.2 369.9 15.4 369.5 14.7 C 369.1 14 368.6 13.4 367.8 13 C 367.1 12.6 366.3 12.4 365.3 12.4 C 364.4 12.4 363.5 12.6 362.7 13 C 362 13.5 361.4 14.1 360.9 14.9 C 360.5 15.6 360.3 16.5 360.3 17.4 C 360.3 17.4 360.3 21.2 360.3 21.2 C 360.3 22.4 360.5 23.4 360.9 24.2 C 361.4 25.1 362 25.7 362.8 26.2 C 363.6 26.6 364.5 26.9 365.6 26.9 C 366.3 26.9 367 26.8 367.6 26.6 C 368.2 26.4 368.7 26.1 369.1 25.7 C 369.6 25.2 369.9 24.7 370.1 24.2 C 370.1 24.2 376.1 24.6 376.1 24.6 C 375.8 26 375.2 27.3 374.3 28.3 C 373.3 29.4 372.1 30.2 370.6 30.8 C 369.1 31.4 367.4 31.7 365.5 31.7 Z M 387 0 L 387 31.3 L 380.4 31.3 L 380.4 0 L 387 0 Z M 398.5 0 L 398.5 31.3 L 392 31.3 L 392 0 L 398.5 0 Z M 403.6 31.3 L 403.6 7.8 L 410.1 7.8 L 410.1 31.3 L 403.6 31.3 Z M 406.9 4.8 C 405.9 4.8 405.1 4.5 404.4 3.8 C 403.7 3.2 403.4 2.4 403.4 1.5 C 403.4 0.6 403.7 -0.2 404.4 -0.8 C 405.1 -1.5 405.9 -1.8 406.9 -1.8 C 407.9 -1.8 408.7 -1.5 409.4 -0.8 C 410.1 -0.2 410.4 0.6 410.4 1.5 C 410.4 2.4 410.1 3.2 409.4 3.8 C 408.7 4.5 407.9 4.8 406.9 4.8 Z M 425.6 40.6 C 423.5 40.6 421.7 40.3 420.2 39.7 C 418.7 39.1 417.5 38.3 416.6 37.4 C 415.7 36.4 415.1 35.3 414.8 34 C 414.8 34 420.9 33.2 420.9 33.2 C 421 33.7 421.3 34.1 421.7 34.5 C 422.1 34.9 422.7 35.3 423.3 35.5 C 424 35.8 424.8 35.9 425.7 35.9 C 427.1 35.9 428.3 35.5 429.2 34.9 C 430.1 34.2 430.6 33 430.6 31.4 C 430.61 31.41 430.6 27.1 430.6 27.1 C 430.6 27.1 430.33 27.12 430.3 27.1 C 430 27.8 429.6 28.4 429 29 C 428.5 29.5 427.7 30 426.9 30.4 C 426 30.8 424.9 30.9 423.6 30.9 C 421.9 30.9 420.3 30.5 418.8 29.7 C 417.4 28.9 416.3 27.6 415.4 25.9 C 414.6 24.2 414.1 22.1 414.1 19.5 C 414.1 16.8 414.6 14.6 415.4 12.8 C 416.3 11.1 417.4 9.7 418.9 8.8 C 420.3 8 421.9 7.5 423.6 7.5 C 424.9 7.5 426 7.7 426.9 8.2 C 427.8 8.6 428.5 9.2 429.1 9.8 C 429.6 10.5 430 11.1 430.3 11.8 C 430.33 11.76 430.6 11.8 430.6 11.8 L 430.6 7.8 L 437 7.8 C 437 7.8 437.04 31.5 437 31.5 C 437 33.5 436.5 35.2 435.6 36.5 C 434.6 37.9 433.2 38.9 431.5 39.5 C 429.8 40.2 427.8 40.6 425.6 40.6 Z M 425.7 26.1 C 426.8 26.1 427.6 25.8 428.4 25.3 C 429.1 24.7 429.7 24 430 23 C 430.4 22 430.6 20.8 430.6 19.5 C 430.6 18.1 430.4 16.9 430.1 15.9 C 429.7 14.9 429.1 14.1 428.4 13.5 C 427.6 13 426.8 12.7 425.7 12.7 C 424.6 12.7 423.7 13 423 13.6 C 422.3 14.1 421.7 14.9 421.3 15.9 C 421 17 420.8 18.1 420.8 19.5 C 420.8 20.8 421 22 421.3 23 C 421.7 24 422.3 24.7 423 25.2 C 423.7 25.8 424.6 26.1 425.7 26.1 Z M 452.7 31.7 C 450.3 31.7 448.2 31.2 446.5 30.3 C 444.8 29.3 443.4 27.9 442.5 26.1 C 441.6 24.3 441.1 22.1 441.1 19.7 C 441.1 17.2 441.6 15.1 442.5 13.3 C 443.4 11.5 444.7 10.1 446.5 9 C 448.2 8 450.2 7.5 452.5 7.5 C 454 7.5 455.5 7.8 456.8 8.3 C 458.1 8.7 459.3 9.5 460.3 10.5 C 461.3 11.5 462.1 12.7 462.6 14.2 C 463.2 15.7 463.5 17.4 463.5 19.4 C 463.49 19.42 463.5 21.2 463.5 21.2 L 443.7 21.2 L 443.7 17.2 C 443.7 17.2 457.36 17.18 457.4 17.2 C 457.4 16.2 457.2 15.4 456.8 14.7 C 456.3 14 455.8 13.4 455.1 13 C 454.3 12.6 453.5 12.4 452.6 12.4 C 451.6 12.4 450.7 12.6 450 13 C 449.2 13.5 448.6 14.1 448.2 14.9 C 447.7 15.6 447.5 16.5 447.5 17.4 C 447.5 17.4 447.5 21.2 447.5 21.2 C 447.5 22.4 447.7 23.4 448.2 24.2 C 448.6 25.1 449.2 25.7 450 26.2 C 450.8 26.6 451.7 26.9 452.8 26.9 C 453.6 26.9 454.2 26.8 454.8 26.6 C 455.4 26.4 455.9 26.1 456.4 25.7 C 456.8 25.2 457.1 24.7 457.3 24.2 C 457.3 24.2 463.4 24.6 463.4 24.6 C 463 26 462.4 27.3 461.5 28.3 C 460.5 29.4 459.3 30.2 457.8 30.8 C 456.4 31.4 454.7 31.7 452.7 31.7 Z M 474.1 17.7 C 474.13 17.71 474.1 31.3 474.1 31.3 L 467.6 31.3 L 467.6 7.8 L 473.8 7.8 L 473.8 12 C 473.8 12 474.1 11.96 474.1 12 C 474.6 10.6 475.5 9.5 476.7 8.7 C 477.9 7.9 479.4 7.5 481.2 7.5 C 482.8 7.5 484.2 7.9 485.4 8.6 C 486.6 9.3 487.6 10.3 488.2 11.6 C 488.9 12.9 489.2 14.5 489.2 16.3 C 489.25 16.34 489.2 31.3 489.2 31.3 L 482.7 31.3 C 482.7 31.3 482.74 17.5 482.7 17.5 C 482.8 16.1 482.4 14.9 481.6 14.1 C 480.9 13.3 479.9 12.9 478.6 12.9 C 477.7 12.9 476.9 13.1 476.3 13.5 C 475.6 13.9 475.1 14.4 474.7 15.1 C 474.3 15.8 474.1 16.7 474.1 17.7 Z M 504.7 31.7 C 502.3 31.7 500.2 31.2 498.5 30.2 C 496.8 29.2 495.4 27.8 494.5 25.9 C 493.6 24.1 493.1 22 493.1 19.6 C 493.1 17.2 493.6 15.1 494.5 13.3 C 495.5 11.5 496.8 10.1 498.5 9 C 500.2 8 502.3 7.5 504.6 7.5 C 506.7 7.5 508.5 7.9 510 8.6 C 511.6 9.4 512.8 10.4 513.7 11.8 C 514.6 13.1 515.1 14.7 515.1 16.5 C 515.1 16.5 509 16.5 509 16.5 C 508.8 15.3 508.4 14.4 507.6 13.7 C 506.9 12.9 505.9 12.6 504.7 12.6 C 503.7 12.6 502.9 12.9 502.1 13.4 C 501.4 13.9 500.8 14.7 500.4 15.8 C 499.9 16.8 499.7 18.1 499.7 19.5 C 499.7 21 499.9 22.3 500.4 23.4 C 500.8 24.4 501.4 25.2 502.1 25.8 C 502.9 26.3 503.7 26.6 504.7 26.6 C 505.5 26.6 506.2 26.4 506.8 26.1 C 507.4 25.8 507.8 25.4 508.2 24.8 C 508.6 24.2 508.9 23.5 509 22.7 C 509 22.7 515.1 22.7 515.1 22.7 C 515 24.5 514.6 26 513.7 27.4 C 512.8 28.8 511.6 29.8 510.1 30.6 C 508.6 31.3 506.8 31.7 504.7 31.7 Z M 529.6 31.7 C 527.1 31.7 525.1 31.2 523.3 30.3 C 521.6 29.3 520.3 27.9 519.3 26.1 C 518.4 24.3 517.9 22.1 517.9 19.7 C 517.9 17.2 518.4 15.1 519.3 13.3 C 520.3 11.5 521.6 10.1 523.3 9 C 525 8 527 7.5 529.3 7.5 C 530.8 7.5 532.3 7.8 533.6 8.3 C 535 8.7 536.1 9.5 537.1 10.5 C 538.1 11.5 538.9 12.7 539.5 14.2 C 540 15.7 540.3 17.4 540.3 19.4 C 540.32 19.42 540.3 21.2 540.3 21.2 L 520.5 21.2 L 520.5 17.2 C 520.5 17.2 534.2 17.18 534.2 17.2 C 534.2 16.2 534 15.4 533.6 14.7 C 533.2 14 532.6 13.4 531.9 13 C 531.2 12.6 530.3 12.4 529.4 12.4 C 528.4 12.4 527.5 12.6 526.8 13 C 526 13.5 525.4 14.1 525 14.9 C 524.6 15.6 524.4 16.5 524.3 17.4 C 524.3 17.4 524.3 21.2 524.3 21.2 C 524.3 22.4 524.6 23.4 525 24.2 C 525.4 25.1 526 25.7 526.8 26.2 C 527.6 26.6 528.6 26.9 529.7 26.9 C 530.4 26.9 531 26.8 531.6 26.6 C 532.2 26.4 532.8 26.1 533.2 25.7 C 533.6 25.2 533.9 24.7 534.2 24.2 C 534.2 24.2 540.2 24.6 540.2 24.6 C 539.9 26 539.3 27.3 538.3 28.3 C 537.4 29.4 536.2 30.2 534.7 30.8 C 533.2 31.4 531.5 31.7 529.6 31.7 Z " stroke="none" fill="#10283d"/>  </g>  <g id="Polygon113730">    <path d="M 553.4 19 L 564.4 29.8 L 575.4 19 " style="stroke-width:3pt; stroke:#838f98;" fill="none"/>  </g>  <g id="Polygon113734">    <path d="M 248.5 139.8 L 203.3 139.8 M 237.6 150.9 L 248.6 139.9 L 237.6 129 " style="stroke-width:3pt; stroke:#ff4f00;" fill="none"/>  </g></svg>