<?xml version="1.0" standalone="no"?><!DOCTYPE svg PUBLIC "-//W3C//DTD SVG 1.1//EN" "http://www.w3.org/Graphics/SVG/1.1/DTD/svg11.dtd"><svg xmlns="http://www.w3.org/2000/svg" version="1.1" width="413.5px" height="46.5px" viewBox="0 -11 413.5 46.5" style="top:-11px">  <desc>Unclear application</desc>  <defs/>  <g id="Polygon109038">    <path d="M 53.3 0 L 55.6 0 C 55.6 0 55.64 13 55.6 13 C 55.6 14.3 55.3 15.5 54.7 16.6 C 54.1 17.6 53.2 18.5 52 19.1 C 50.9 19.7 49.6 20 48 20 C 46.5 20 45.1 19.7 44 19.1 C 42.8 18.5 42 17.6 41.3 16.6 C 40.7 15.5 40.4 14.3 40.4 13 C 40.38 13 40.4 0 40.4 0 L 42.8 0 C 42.8 0 42.76 12.81 42.8 12.8 C 42.8 13.8 43 14.6 43.4 15.4 C 43.8 16.1 44.4 16.7 45.2 17.1 C 46 17.5 46.9 17.8 48 17.8 C 49.1 17.8 50 17.5 50.8 17.1 C 51.6 16.7 52.2 16.1 52.6 15.4 C 53.1 14.6 53.3 13.8 53.3 12.8 C 53.26 12.81 53.3 0 53.3 0 Z M 62.2 10.8 C 62.21 10.78 62.2 19.6 62.2 19.6 L 59.9 19.6 L 59.9 4.9 L 62.1 4.9 L 62.1 7.2 C 62.1 7.2 62.33 7.21 62.3 7.2 C 62.7 6.5 63.2 5.9 63.9 5.4 C 64.6 4.9 65.5 4.7 66.6 4.7 C 67.6 4.7 68.5 4.9 69.2 5.3 C 70 5.7 70.6 6.3 71 7.2 C 71.4 8 71.6 9 71.6 10.3 C 71.61 10.28 71.6 19.6 71.6 19.6 L 69.3 19.6 C 69.3 19.6 69.34 10.43 69.3 10.4 C 69.3 9.3 69 8.4 68.4 7.7 C 67.8 7.1 67 6.8 66 6.8 C 65.2 6.8 64.6 6.9 64 7.2 C 63.5 7.5 63 8 62.7 8.6 C 62.4 9.2 62.2 9.9 62.2 10.8 Z M 81.5 19.9 C 80.1 19.9 78.9 19.6 77.9 19 C 77 18.3 76.2 17.4 75.6 16.3 C 75.1 15.1 74.8 13.8 74.8 12.3 C 74.8 10.9 75.1 9.5 75.7 8.4 C 76.2 7.2 77 6.3 78 5.7 C 79 5 80.1 4.7 81.5 4.7 C 82.5 4.7 83.4 4.9 84.3 5.3 C 85.1 5.7 85.8 6.2 86.3 6.9 C 86.8 7.6 87.2 8.4 87.3 9.3 C 87.3 9.3 85 9.3 85 9.3 C 84.9 8.6 84.5 8.1 83.9 7.5 C 83.3 7 82.5 6.8 81.5 6.8 C 80.6 6.8 79.9 7 79.2 7.4 C 78.5 7.9 78 8.5 77.7 9.4 C 77.3 10.2 77.1 11.2 77.1 12.3 C 77.1 13.4 77.3 14.4 77.6 15.2 C 78 16.1 78.5 16.7 79.2 17.2 C 79.8 17.7 80.6 17.9 81.5 17.9 C 82.1 17.9 82.6 17.8 83.1 17.6 C 83.6 17.4 84 17.1 84.3 16.7 C 84.7 16.3 84.9 15.9 85 15.3 C 85 15.3 87.3 15.3 87.3 15.3 C 87.2 16.2 86.9 17 86.4 17.7 C 85.9 18.4 85.2 18.9 84.4 19.3 C 83.6 19.7 82.6 19.9 81.5 19.9 Z M 92.7 0 L 92.7 19.6 L 90.5 19.6 L 90.5 0 L 92.7 0 Z M 102.9 19.9 C 101.5 19.9 100.3 19.6 99.3 19 C 98.3 18.4 97.5 17.5 96.9 16.4 C 96.4 15.2 96.1 13.9 96.1 12.4 C 96.1 10.9 96.4 9.5 96.9 8.4 C 97.5 7.2 98.2 6.3 99.2 5.7 C 100.2 5 101.4 4.7 102.7 4.7 C 103.5 4.7 104.2 4.8 105 5.1 C 105.7 5.4 106.4 5.8 107 6.3 C 107.6 6.9 108.1 7.7 108.5 8.6 C 108.9 9.5 109 10.7 109 12.1 C 109.04 12.08 109 13 109 13 L 97.7 13 L 97.7 11.1 C 97.7 11.1 106.74 11.08 106.7 11.1 C 106.7 10.3 106.6 9.5 106.2 8.9 C 105.9 8.2 105.5 7.7 104.8 7.3 C 104.2 6.9 103.5 6.8 102.7 6.8 C 101.8 6.8 101 7 100.4 7.4 C 99.7 7.9 99.2 8.4 98.9 9.1 C 98.5 9.9 98.3 10.6 98.3 11.4 C 98.3 11.4 98.3 12.7 98.3 12.7 C 98.3 13.8 98.5 14.8 98.9 15.6 C 99.3 16.3 99.8 16.9 100.5 17.3 C 101.2 17.7 102 17.9 102.9 17.9 C 103.5 17.9 104.1 17.8 104.6 17.7 C 105 17.5 105.5 17.2 105.8 16.9 C 106.2 16.5 106.4 16.1 106.6 15.6 C 106.6 15.6 108.8 16.2 108.8 16.2 C 108.6 17 108.2 17.6 107.7 18.2 C 107.1 18.7 106.4 19.2 105.6 19.5 C 104.8 19.8 103.9 19.9 102.9 19.9 Z M 116.6 20 C 115.6 20 114.8 19.8 114 19.4 C 113.3 19.1 112.7 18.6 112.2 17.9 C 111.8 17.2 111.5 16.4 111.5 15.5 C 111.5 14.6 111.7 13.9 112 13.4 C 112.4 12.9 112.8 12.5 113.4 12.2 C 113.9 11.9 114.5 11.6 115.2 11.5 C 115.9 11.3 116.6 11.2 117.3 11.1 C 118.2 11 118.9 10.9 119.4 10.9 C 120 10.8 120.4 10.7 120.7 10.5 C 120.9 10.4 121.1 10.1 121.1 9.8 C 121.1 9.8 121.1 9.7 121.1 9.7 C 121.1 8.8 120.8 8 120.3 7.5 C 119.8 7 119 6.7 117.9 6.7 C 116.9 6.7 116 6.9 115.4 7.4 C 114.8 7.9 114.4 8.4 114.1 8.9 C 114.1 8.9 112 8.2 112 8.2 C 112.3 7.3 112.9 6.6 113.5 6.1 C 114.1 5.6 114.8 5.2 115.6 5 C 116.4 4.8 117.1 4.7 117.9 4.7 C 118.3 4.7 118.9 4.8 119.5 4.9 C 120.1 5 120.7 5.2 121.3 5.6 C 121.9 5.9 122.4 6.4 122.7 7.1 C 123.1 7.8 123.3 8.8 123.3 9.9 C 123.32 9.93 123.3 19.6 123.3 19.6 L 121.1 19.6 L 121.1 17.6 C 121.1 17.6 120.94 17.64 120.9 17.6 C 120.8 18 120.5 18.3 120.2 18.7 C 119.8 19 119.3 19.3 118.7 19.6 C 118.1 19.9 117.4 20 116.6 20 Z M 116.9 17.9 C 117.8 17.9 118.6 17.8 119.2 17.4 C 119.8 17.1 120.3 16.6 120.6 16.1 C 120.9 15.5 121.1 14.9 121.1 14.3 C 121.1 14.3 121.1 12.2 121.1 12.2 C 121 12.3 120.7 12.5 120.4 12.5 C 120.1 12.6 119.7 12.7 119.3 12.8 C 118.9 12.9 118.5 12.9 118.1 13 C 117.7 13 117.4 13 117.1 13.1 C 116.6 13.2 116 13.3 115.5 13.4 C 115 13.6 114.6 13.9 114.3 14.2 C 114 14.5 113.8 15 113.8 15.6 C 113.8 16.4 114.1 17 114.7 17.3 C 115.3 17.7 116 17.9 116.9 17.9 Z M 127.3 19.6 L 127.3 4.9 L 129.5 4.9 L 129.5 7.1 C 129.5 7.1 129.67 7.13 129.7 7.1 C 129.9 6.4 130.4 5.8 131.1 5.4 C 131.8 4.9 132.6 4.7 133.5 4.7 C 133.7 4.7 133.9 4.7 134.1 4.7 C 134.4 4.7 134.6 4.7 134.7 4.7 C 134.7 4.7 134.7 7 134.7 7 C 134.6 7 134.4 7 134.2 6.9 C 133.9 6.9 133.6 6.9 133.3 6.9 C 132.6 6.9 132 7 131.4 7.3 C 130.8 7.6 130.4 8 130.1 8.5 C 129.8 9.1 129.6 9.7 129.6 10.3 C 129.59 10.32 129.6 19.6 129.6 19.6 L 127.3 19.6 Z M 149.3 20 C 148.4 20 147.5 19.8 146.8 19.4 C 146 19.1 145.4 18.6 145 17.9 C 144.5 17.2 144.3 16.4 144.3 15.5 C 144.3 14.6 144.4 13.9 144.8 13.4 C 145.1 12.9 145.6 12.5 146.1 12.2 C 146.7 11.9 147.3 11.6 148 11.5 C 148.6 11.3 149.3 11.2 150 11.1 C 150.9 11 151.6 10.9 152.2 10.9 C 152.7 10.8 153.1 10.7 153.4 10.5 C 153.7 10.4 153.8 10.1 153.8 9.8 C 153.8 9.8 153.8 9.7 153.8 9.7 C 153.8 8.8 153.5 8 153 7.5 C 152.5 7 151.7 6.7 150.7 6.7 C 149.6 6.7 148.8 6.9 148.1 7.4 C 147.5 7.9 147.1 8.4 146.8 8.9 C 146.8 8.9 144.7 8.2 144.7 8.2 C 145.1 7.3 145.6 6.6 146.2 6.1 C 146.9 5.6 147.6 5.2 148.3 5 C 149.1 4.8 149.9 4.7 150.6 4.7 C 151.1 4.7 151.6 4.8 152.2 4.9 C 152.9 5 153.5 5.2 154 5.6 C 154.6 5.9 155.1 6.4 155.5 7.1 C 155.9 7.8 156.1 8.8 156.1 9.9 C 156.05 9.93 156.1 19.6 156.1 19.6 L 153.8 19.6 L 153.8 17.6 C 153.8 17.6 153.68 17.64 153.7 17.6 C 153.5 18 153.3 18.3 152.9 18.7 C 152.6 19 152.1 19.3 151.5 19.6 C 150.9 19.9 150.2 20 149.3 20 Z M 149.6 17.9 C 150.5 17.9 151.3 17.8 151.9 17.4 C 152.5 17.1 153 16.6 153.3 16.1 C 153.6 15.5 153.8 14.9 153.8 14.3 C 153.8 14.3 153.8 12.2 153.8 12.2 C 153.7 12.3 153.5 12.5 153.2 12.5 C 152.8 12.6 152.5 12.7 152.1 12.8 C 151.6 12.9 151.2 12.9 150.8 13 C 150.4 13 150.1 13 149.9 13.1 C 149.3 13.2 148.7 13.3 148.2 13.4 C 147.7 13.6 147.3 13.9 147 14.2 C 146.7 14.5 146.5 15 146.5 15.6 C 146.5 16.4 146.8 17 147.4 17.3 C 148 17.7 148.7 17.9 149.6 17.9 Z M 160.1 25.2 L 160.1 4.9 L 162.3 4.9 L 162.3 7.2 C 162.3 7.2 162.52 7.25 162.5 7.2 C 162.7 7 162.9 6.7 163.2 6.3 C 163.5 5.9 163.9 5.5 164.5 5.2 C 165.1 4.9 165.8 4.7 166.8 4.7 C 168 4.7 169.1 5 170.1 5.6 C 171 6.3 171.7 7.1 172.3 8.3 C 172.8 9.4 173.1 10.8 173.1 12.3 C 173.1 13.9 172.8 15.2 172.3 16.4 C 171.7 17.5 171 18.4 170.1 19 C 169.1 19.6 168 19.9 166.8 19.9 C 165.9 19.9 165.1 19.8 164.5 19.5 C 164 19.2 163.5 18.8 163.2 18.4 C 162.9 18 162.7 17.6 162.5 17.4 C 162.52 17.37 162.3 17.4 162.3 17.4 L 162.3 25.2 L 160.1 25.2 Z M 162.3 12.3 C 162.3 13.4 162.5 14.4 162.8 15.2 C 163.1 16.1 163.6 16.7 164.2 17.2 C 164.8 17.7 165.6 17.9 166.5 17.9 C 167.5 17.9 168.2 17.7 168.9 17.2 C 169.5 16.7 170 16 170.3 15.1 C 170.6 14.3 170.8 13.3 170.8 12.3 C 170.8 11.2 170.6 10.3 170.3 9.5 C 170 8.6 169.5 8 168.9 7.5 C 168.3 7 167.5 6.8 166.5 6.8 C 165.6 6.8 164.8 7 164.2 7.4 C 163.6 7.9 163.1 8.6 162.8 9.4 C 162.4 10.2 162.3 11.2 162.3 12.3 Z M 176.4 25.2 L 176.4 4.9 L 178.6 4.9 L 178.6 7.2 C 178.6 7.2 178.87 7.25 178.9 7.2 C 179 7 179.3 6.7 179.6 6.3 C 179.9 5.9 180.3 5.5 180.8 5.2 C 181.4 4.9 182.2 4.7 183.1 4.7 C 184.4 4.7 185.5 5 186.4 5.6 C 187.3 6.3 188.1 7.1 188.6 8.3 C 189.1 9.4 189.4 10.8 189.4 12.3 C 189.4 13.9 189.1 15.2 188.6 16.4 C 188.1 17.5 187.4 18.4 186.4 19 C 185.5 19.6 184.4 19.9 183.2 19.9 C 182.2 19.9 181.5 19.8 180.9 19.5 C 180.3 19.2 179.9 18.8 179.6 18.4 C 179.3 18 179 17.6 178.9 17.4 C 178.87 17.37 178.7 17.4 178.7 17.4 L 178.7 25.2 L 176.4 25.2 Z M 178.6 12.3 C 178.6 13.4 178.8 14.4 179.1 15.2 C 179.5 16.1 179.9 16.7 180.6 17.2 C 181.2 17.7 181.9 17.9 182.9 17.9 C 183.8 17.9 184.6 17.7 185.2 17.2 C 185.9 16.7 186.3 16 186.7 15.1 C 187 14.3 187.1 13.3 187.1 12.3 C 187.1 11.2 187 10.3 186.7 9.5 C 186.4 8.6 185.9 8 185.2 7.5 C 184.6 7 183.8 6.8 182.9 6.8 C 181.9 6.8 181.2 7 180.5 7.4 C 179.9 7.9 179.4 8.6 179.1 9.4 C 178.8 10.2 178.6 11.2 178.6 12.3 Z M 195 0 L 195 19.6 L 192.8 19.6 L 192.8 0 L 195 0 Z M 199.1 19.6 L 199.1 4.9 L 201.4 4.9 L 201.4 19.6 L 199.1 19.6 Z M 200.2 2.5 C 199.8 2.5 199.4 2.3 199.1 2 C 198.8 1.7 198.6 1.3 198.6 0.9 C 198.6 0.5 198.8 0.1 199.1 -0.2 C 199.4 -0.5 199.8 -0.6 200.2 -0.6 C 200.7 -0.6 201.1 -0.5 201.4 -0.2 C 201.7 0.1 201.9 0.5 201.9 0.9 C 201.9 1.3 201.7 1.7 201.4 2 C 201.1 2.3 200.7 2.5 200.2 2.5 Z M 211.3 19.9 C 209.9 19.9 208.7 19.6 207.7 19 C 206.7 18.3 206 17.4 205.4 16.3 C 204.9 15.1 204.6 13.8 204.6 12.3 C 204.6 10.9 204.9 9.5 205.5 8.4 C 206 7.2 206.8 6.3 207.8 5.7 C 208.8 5 209.9 4.7 211.3 4.7 C 212.3 4.7 213.2 4.9 214.1 5.3 C 214.9 5.7 215.6 6.2 216.1 6.9 C 216.6 7.6 217 8.4 217.1 9.3 C 217.1 9.3 214.8 9.3 214.8 9.3 C 214.7 8.6 214.3 8.1 213.7 7.5 C 213.1 7 212.3 6.8 211.3 6.8 C 210.4 6.8 209.6 7 209 7.4 C 208.3 7.9 207.8 8.5 207.4 9.4 C 207.1 10.2 206.9 11.2 206.9 12.3 C 206.9 13.4 207.1 14.4 207.4 15.2 C 207.8 16.1 208.3 16.7 209 17.2 C 209.6 17.7 210.4 17.9 211.3 17.9 C 211.9 17.9 212.4 17.8 212.9 17.6 C 213.4 17.4 213.8 17.1 214.1 16.7 C 214.4 16.3 214.7 15.9 214.8 15.3 C 214.8 15.3 217.1 15.3 217.1 15.3 C 217 16.2 216.6 17 216.1 17.7 C 215.6 18.4 215 18.9 214.2 19.3 C 213.3 19.7 212.4 19.9 211.3 19.9 Z M 224.7 20 C 223.7 20 222.9 19.8 222.1 19.4 C 221.3 19.1 220.7 18.6 220.3 17.9 C 219.8 17.2 219.6 16.4 219.6 15.5 C 219.6 14.6 219.8 13.9 220.1 13.4 C 220.5 12.9 220.9 12.5 221.5 12.2 C 222 11.9 222.6 11.6 223.3 11.5 C 224 11.3 224.7 11.2 225.3 11.1 C 226.2 11 227 10.9 227.5 10.9 C 228.1 10.8 228.5 10.7 228.7 10.5 C 229 10.4 229.1 10.1 229.1 9.8 C 229.1 9.8 229.1 9.7 229.1 9.7 C 229.1 8.8 228.9 8 228.4 7.5 C 227.9 7 227.1 6.7 226 6.7 C 225 6.7 224.1 6.9 223.5 7.4 C 222.9 7.9 222.4 8.4 222.2 8.9 C 222.2 8.9 220 8.2 220 8.2 C 220.4 7.3 220.9 6.6 221.6 6.1 C 222.2 5.6 222.9 5.2 223.7 5 C 224.5 4.8 225.2 4.7 226 4.7 C 226.4 4.7 227 4.8 227.6 4.9 C 228.2 5 228.8 5.2 229.4 5.6 C 230 5.9 230.4 6.4 230.8 7.1 C 231.2 7.8 231.4 8.8 231.4 9.9 C 231.4 9.93 231.4 19.6 231.4 19.6 L 229.1 19.6 L 229.1 17.6 C 229.1 17.6 229.02 17.64 229 17.6 C 228.9 18 228.6 18.3 228.3 18.7 C 227.9 19 227.4 19.3 226.8 19.6 C 226.2 19.9 225.5 20 224.7 20 Z M 225 17.9 C 225.9 17.9 226.6 17.8 227.3 17.4 C 227.9 17.1 228.3 16.6 228.7 16.1 C 229 15.5 229.1 14.9 229.1 14.3 C 229.1 14.3 229.1 12.2 229.1 12.2 C 229 12.3 228.8 12.5 228.5 12.5 C 228.2 12.6 227.8 12.7 227.4 12.8 C 227 12.9 226.6 12.9 226.2 13 C 225.8 13 225.5 13 225.2 13.1 C 224.6 13.2 224.1 13.3 223.6 13.4 C 223.1 13.6 222.7 13.9 222.4 14.2 C 222 14.5 221.9 15 221.9 15.6 C 221.9 16.4 222.2 17 222.8 17.3 C 223.4 17.7 224.1 17.9 225 17.9 Z M 241.5 4.9 L 241.5 6.8 L 233.8 6.8 L 233.8 4.9 L 241.5 4.9 Z M 236 1.4 L 238.3 1.4 C 238.3 1.4 238.31 15.42 238.3 15.4 C 238.3 16.1 238.4 16.5 238.6 16.9 C 238.8 17.2 239 17.4 239.3 17.5 C 239.6 17.6 239.9 17.6 240.3 17.6 C 240.5 17.6 240.7 17.6 240.9 17.6 C 241 17.6 241.2 17.5 241.3 17.5 C 241.3 17.5 241.7 19.6 241.7 19.6 C 241.6 19.6 241.4 19.7 241.1 19.7 C 240.8 19.8 240.5 19.8 240 19.8 C 239.4 19.8 238.8 19.7 238.2 19.4 C 237.5 19.1 237 18.7 236.6 18.2 C 236.2 17.6 236 16.9 236 16 C 236.05 16.03 236 1.4 236 1.4 Z M 244.5 19.6 L 244.5 4.9 L 246.8 4.9 L 246.8 19.6 L 244.5 19.6 Z M 245.7 2.5 C 245.2 2.5 244.9 2.3 244.5 2 C 244.2 1.7 244.1 1.3 244.1 0.9 C 244.1 0.5 244.2 0.1 244.5 -0.2 C 244.9 -0.5 245.2 -0.6 245.7 -0.6 C 246.1 -0.6 246.5 -0.5 246.8 -0.2 C 247.1 0.1 247.3 0.5 247.3 0.9 C 247.3 1.3 247.1 1.7 246.8 2 C 246.5 2.3 246.1 2.5 245.7 2.5 Z M 256.7 19.9 C 255.4 19.9 254.2 19.6 253.2 19 C 252.2 18.4 251.5 17.5 250.9 16.3 C 250.3 15.2 250.1 13.9 250.1 12.3 C 250.1 10.8 250.3 9.5 250.9 8.3 C 251.5 7.2 252.2 6.3 253.2 5.7 C 254.2 5 255.4 4.7 256.7 4.7 C 258.1 4.7 259.2 5 260.2 5.7 C 261.2 6.3 262 7.2 262.6 8.3 C 263.1 9.5 263.4 10.8 263.4 12.3 C 263.4 13.9 263.1 15.2 262.6 16.3 C 262 17.5 261.2 18.4 260.2 19 C 259.2 19.6 258.1 19.9 256.7 19.9 Z M 256.7 17.9 C 257.7 17.9 258.6 17.7 259.2 17.1 C 259.9 16.6 260.4 15.9 260.7 15.1 C 261 14.2 261.1 13.3 261.1 12.3 C 261.1 11.4 261 10.4 260.7 9.6 C 260.4 8.7 259.9 8.1 259.2 7.5 C 258.6 7 257.7 6.8 256.7 6.8 C 255.7 6.8 254.9 7 254.2 7.5 C 253.6 8.1 253.1 8.7 252.8 9.6 C 252.5 10.4 252.3 11.4 252.3 12.3 C 252.3 13.3 252.5 14.2 252.8 15.1 C 253.1 15.9 253.6 16.6 254.2 17.1 C 254.9 17.7 255.7 17.9 256.7 17.9 Z M 269 10.8 C 269 10.78 269 19.6 269 19.6 L 266.7 19.6 L 266.7 4.9 L 268.9 4.9 L 268.9 7.2 C 268.9 7.2 269.12 7.21 269.1 7.2 C 269.5 6.5 270 5.9 270.7 5.4 C 271.4 4.9 272.3 4.7 273.4 4.7 C 274.4 4.7 275.3 4.9 276 5.3 C 276.8 5.7 277.4 6.3 277.8 7.2 C 278.2 8 278.4 9 278.4 10.3 C 278.4 10.28 278.4 19.6 278.4 19.6 L 276.1 19.6 C 276.1 19.6 276.14 10.43 276.1 10.4 C 276.1 9.3 275.8 8.4 275.2 7.7 C 274.6 7.1 273.8 6.8 272.8 6.8 C 272 6.8 271.4 6.9 270.8 7.2 C 270.3 7.5 269.8 8 269.5 8.6 C 269.2 9.2 269 9.9 269 10.8 Z " stroke="none" fill="#ffffff"/>  </g></svg>