<?xml version="1.0" standalone="no"?><!DOCTYPE svg PUBLIC "-//W3C//DTD SVG 1.1//EN" "http://www.w3.org/Graphics/SVG/1.1/DTD/svg11.dtd"><svg xmlns="http://www.w3.org/2000/svg" version="1.1" width="261px" height="194px" viewBox="0 -5 261 194" style="top:-5px">  <desc>“ AI provides trusted insights, giving you confidence in your decisions.”</desc>  <defs/>  <g id="Polygon121760">    <path d="M 13 177.8 C 12.6 177.8 12.2 177.8 11.9 177.7 C 11.6 177.6 11.4 177.6 11.2 177.5 C 11.2 177.5 11.9 175.4 11.9 175.4 C 12.4 175.5 13 175.6 13.4 175.5 C 13.9 175.5 14.3 175.3 14.6 174.9 C 15 174.6 15.3 174 15.6 173.2 C 15.58 173.21 16 172 16 172 L 10.2 156.2 L 12.8 156.2 L 17.2 168.7 L 17.3 168.7 L 21.7 156.2 L 24.3 156.2 C 24.3 156.2 17.63 174.19 17.6 174.2 C 17.3 175 17 175.7 16.5 176.2 C 16.1 176.7 15.6 177.1 15 177.4 C 14.4 177.7 13.7 177.8 13 177.8 Z M 32.9 172.2 C 31.5 172.2 30.3 171.9 29.2 171.2 C 28.1 170.5 27.3 169.6 26.7 168.4 C 26.1 167.2 25.8 165.8 25.8 164.1 C 25.8 162.5 26.1 161.1 26.7 159.8 C 27.3 158.6 28.1 157.7 29.2 157 C 30.3 156.3 31.5 156 32.9 156 C 34.4 156 35.6 156.3 36.7 157 C 37.7 157.7 38.6 158.6 39.2 159.8 C 39.8 161.1 40.1 162.5 40.1 164.1 C 40.1 165.8 39.8 167.2 39.2 168.4 C 38.6 169.6 37.7 170.5 36.7 171.2 C 35.6 171.9 34.4 172.2 32.9 172.2 Z M 32.9 170.1 C 34 170.1 34.9 169.8 35.6 169.2 C 36.3 168.7 36.8 168 37.1 167.1 C 37.5 166.2 37.6 165.2 37.6 164.1 C 37.6 163.1 37.5 162.1 37.1 161.2 C 36.8 160.3 36.3 159.6 35.6 159 C 34.9 158.4 34 158.2 32.9 158.2 C 31.9 158.2 31 158.4 30.3 159 C 29.6 159.6 29.1 160.3 28.7 161.2 C 28.4 162.1 28.2 163.1 28.2 164.1 C 28.2 165.2 28.4 166.2 28.7 167.1 C 29.1 168 29.6 168.7 30.3 169.2 C 31 169.8 31.9 170.1 32.9 170.1 Z M 53.4 165.5 C 53.39 165.48 53.4 156.2 53.4 156.2 L 55.8 156.2 L 55.8 171.9 L 53.4 171.9 L 53.4 169.2 C 53.4 169.2 53.23 169.24 53.2 169.2 C 52.9 170 52.3 170.7 51.5 171.3 C 50.7 171.8 49.7 172.1 48.6 172.1 C 47.6 172.1 46.7 171.9 45.9 171.5 C 45.2 171 44.6 170.4 44.1 169.5 C 43.7 168.6 43.5 167.5 43.5 166.2 C 43.49 166.17 43.5 156.2 43.5 156.2 L 45.9 156.2 C 45.9 156.2 45.9 166.01 45.9 166 C 45.9 167.2 46.2 168.1 46.9 168.8 C 47.5 169.4 48.3 169.8 49.3 169.8 C 49.9 169.8 50.6 169.6 51.2 169.3 C 51.8 169 52.3 168.5 52.8 167.9 C 53.2 167.3 53.4 166.5 53.4 165.5 Z M 60.1 171.9 L 60.1 156.2 L 62.4 156.2 L 62.4 158.6 C 62.4 158.6 62.58 158.56 62.6 158.6 C 62.9 157.8 63.4 157.2 64.1 156.7 C 64.9 156.2 65.7 155.9 66.7 155.9 C 66.8 155.9 67.1 155.9 67.3 156 C 67.6 156 67.8 156 67.9 156 C 67.9 156 67.9 158.4 67.9 158.4 C 67.9 158.4 67.7 158.4 67.4 158.3 C 67.1 158.3 66.8 158.3 66.5 158.3 C 65.7 158.3 65 158.4 64.4 158.8 C 63.8 159.1 63.4 159.5 63 160.1 C 62.7 160.6 62.5 161.3 62.5 162 C 62.5 161.96 62.5 171.9 62.5 171.9 L 60.1 171.9 Z M 84.8 172.2 C 83.5 172.2 82.4 171.9 81.4 171.2 C 80.4 170.6 79.6 169.6 79 168.4 C 78.4 167.2 78.2 165.8 78.2 164.1 C 78.2 162.4 78.4 161 79 159.8 C 79.6 158.6 80.4 157.6 81.4 157 C 82.4 156.3 83.6 156 84.9 156 C 85.9 156 86.7 156.2 87.3 156.5 C 87.9 156.8 88.4 157.2 88.7 157.6 C 89 158.1 89.2 158.4 89.4 158.7 C 89.42 158.69 89.6 158.7 89.6 158.7 L 89.6 151 L 92 151 L 92 171.9 L 89.7 171.9 L 89.7 169.5 C 89.7 169.5 89.42 169.49 89.4 169.5 C 89.2 169.8 89 170.1 88.7 170.6 C 88.3 171 87.9 171.4 87.3 171.7 C 86.7 172.1 85.8 172.2 84.8 172.2 Z M 85.2 170.1 C 86.1 170.1 86.9 169.8 87.6 169.3 C 88.3 168.8 88.8 168.1 89.1 167.2 C 89.5 166.3 89.7 165.2 89.7 164 C 89.7 162.9 89.5 161.8 89.1 161 C 88.8 160.1 88.3 159.4 87.6 158.9 C 87 158.4 86.1 158.2 85.2 158.2 C 84.1 158.2 83.3 158.4 82.6 158.9 C 81.9 159.5 81.4 160.2 81.1 161.1 C 80.7 161.9 80.6 162.9 80.6 164 C 80.6 165.2 80.8 166.2 81.1 167.1 C 81.4 168 82 168.7 82.6 169.3 C 83.3 169.8 84.2 170.1 85.2 170.1 Z M 103 172.2 C 101.5 172.2 100.2 171.9 99.1 171.2 C 98 170.5 97.2 169.6 96.6 168.4 C 96 167.2 95.7 165.8 95.7 164.2 C 95.7 162.6 96 161.1 96.6 159.9 C 97.2 158.7 98 157.7 99.1 157 C 100.1 156.3 101.4 156 102.8 156 C 103.6 156 104.4 156.1 105.2 156.4 C 106 156.7 106.7 157.1 107.4 157.7 C 108.1 158.3 108.6 159.1 109 160.1 C 109.4 161.1 109.5 162.4 109.5 163.8 C 109.55 163.84 109.5 164.9 109.5 164.9 L 97.4 164.9 L 97.4 162.8 C 97.4 162.8 107.09 162.78 107.1 162.8 C 107.1 161.9 106.9 161.1 106.6 160.4 C 106.2 159.7 105.7 159.2 105.1 158.8 C 104.4 158.4 103.7 158.2 102.8 158.2 C 101.8 158.2 101 158.4 100.3 158.9 C 99.6 159.3 99.1 160 98.7 160.7 C 98.3 161.5 98.1 162.3 98.1 163.1 C 98.1 163.1 98.1 164.5 98.1 164.5 C 98.1 165.7 98.3 166.7 98.8 167.5 C 99.2 168.4 99.7 169 100.5 169.4 C 101.2 169.8 102.1 170.1 103 170.1 C 103.7 170.1 104.3 170 104.8 169.8 C 105.3 169.6 105.7 169.3 106.1 169 C 106.5 168.6 106.8 168.2 107 167.6 C 107 167.6 109.3 168.3 109.3 168.3 C 109.1 169.1 108.6 169.7 108.1 170.3 C 107.5 170.9 106.8 171.4 105.9 171.7 C 105.1 172.1 104.1 172.2 103 172.2 Z M 119.4 172.2 C 118 172.2 116.7 171.9 115.6 171.2 C 114.6 170.5 113.8 169.5 113.2 168.3 C 112.6 167.1 112.3 165.7 112.3 164.1 C 112.3 162.5 112.6 161.1 113.2 159.9 C 113.8 158.7 114.6 157.7 115.7 157 C 116.7 156.3 118 156 119.4 156 C 120.5 156 121.5 156.2 122.4 156.6 C 123.3 157 124 157.6 124.6 158.3 C 125.1 159.1 125.5 159.9 125.6 160.9 C 125.6 160.9 123.2 160.9 123.2 160.9 C 123 160.2 122.6 159.5 122 159 C 121.3 158.4 120.5 158.2 119.4 158.2 C 118.5 158.2 117.7 158.4 117 158.9 C 116.3 159.4 115.7 160.1 115.3 160.9 C 114.9 161.8 114.7 162.9 114.7 164 C 114.7 165.3 114.9 166.3 115.3 167.2 C 115.7 168.1 116.2 168.8 116.9 169.3 C 117.7 169.8 118.5 170.1 119.4 170.1 C 120.1 170.1 120.6 170 121.1 169.7 C 121.7 169.5 122.1 169.2 122.4 168.8 C 122.8 168.4 123.1 167.9 123.2 167.3 C 123.2 167.3 125.6 167.3 125.6 167.3 C 125.5 168.2 125.1 169.1 124.6 169.8 C 124.1 170.6 123.4 171.1 122.5 171.6 C 121.6 172 120.6 172.2 119.4 172.2 Z M 128.9 171.9 L 128.9 156.2 L 131.3 156.2 L 131.3 171.9 L 128.9 171.9 Z M 130.1 153.6 C 129.7 153.6 129.3 153.4 128.9 153.1 C 128.6 152.8 128.4 152.4 128.4 151.9 C 128.4 151.5 128.6 151.1 128.9 150.8 C 129.3 150.5 129.7 150.3 130.1 150.3 C 130.6 150.3 131 150.5 131.4 150.8 C 131.7 151.1 131.9 151.5 131.9 151.9 C 131.9 152.4 131.7 152.8 131.4 153.1 C 131 153.4 130.6 153.6 130.1 153.6 Z M 146.6 159.7 C 146.6 159.7 144.4 160.3 144.4 160.3 C 144.3 160 144.1 159.6 143.8 159.3 C 143.5 158.9 143.2 158.6 142.7 158.4 C 142.3 158.2 141.7 158.1 141 158.1 C 140.1 158.1 139.3 158.3 138.6 158.7 C 138 159.2 137.7 159.7 137.7 160.4 C 137.7 161 137.9 161.5 138.3 161.8 C 138.7 162.2 139.4 162.5 140.4 162.7 C 140.4 162.7 142.7 163.3 142.7 163.3 C 144.1 163.6 145.1 164.1 145.8 164.8 C 146.5 165.5 146.9 166.4 146.9 167.5 C 146.9 168.4 146.6 169.2 146.1 169.9 C 145.6 170.6 144.9 171.2 143.9 171.6 C 143 172 141.9 172.2 140.7 172.2 C 139.1 172.2 137.8 171.9 136.7 171.2 C 135.7 170.5 135 169.5 134.8 168.1 C 134.8 168.1 137 167.6 137 167.6 C 137.3 168.4 137.7 169 138.3 169.5 C 138.9 169.9 139.7 170.1 140.7 170.1 C 141.8 170.1 142.7 169.9 143.4 169.4 C 144 168.9 144.4 168.3 144.4 167.6 C 144.4 167.1 144.2 166.6 143.8 166.3 C 143.4 165.9 142.8 165.6 142 165.4 C 142 165.4 139.4 164.8 139.4 164.8 C 138 164.5 136.9 164 136.3 163.2 C 135.6 162.5 135.2 161.6 135.2 160.5 C 135.2 159.6 135.5 158.9 136 158.2 C 136.5 157.5 137.2 157 138.1 156.6 C 138.9 156.2 139.9 156 141 156 C 142.6 156 143.8 156.3 144.7 157 C 145.6 157.7 146.2 158.6 146.6 159.7 Z M 150.2 171.9 L 150.2 156.2 L 152.7 156.2 L 152.7 171.9 L 150.2 171.9 Z M 151.5 153.6 C 151 153.6 150.6 153.4 150.3 153.1 C 149.9 152.8 149.7 152.4 149.7 151.9 C 149.7 151.5 149.9 151.1 150.3 150.8 C 150.6 150.5 151 150.3 151.5 150.3 C 151.9 150.3 152.3 150.5 152.7 150.8 C 153 151.1 153.2 151.5 153.2 151.9 C 153.2 152.4 153 152.8 152.7 153.1 C 152.3 153.4 151.9 153.6 151.5 153.6 Z M 163.2 172.2 C 161.8 172.2 160.6 171.9 159.5 171.2 C 158.4 170.5 157.6 169.6 157 168.4 C 156.4 167.2 156.1 165.8 156.1 164.1 C 156.1 162.5 156.4 161.1 157 159.8 C 157.6 158.6 158.4 157.7 159.5 157 C 160.6 156.3 161.8 156 163.2 156 C 164.6 156 165.9 156.3 167 157 C 168 157.7 168.9 158.6 169.5 159.8 C 170 161.1 170.3 162.5 170.3 164.1 C 170.3 165.8 170 167.2 169.5 168.4 C 168.9 169.6 168 170.5 167 171.2 C 165.9 171.9 164.6 172.2 163.2 172.2 Z M 163.2 170.1 C 164.3 170.1 165.2 169.8 165.9 169.2 C 166.6 168.7 167.1 168 167.4 167.1 C 167.8 166.2 167.9 165.2 167.9 164.1 C 167.9 163.1 167.8 162.1 167.4 161.2 C 167.1 160.3 166.6 159.6 165.9 159 C 165.2 158.4 164.3 158.2 163.2 158.2 C 162.2 158.2 161.3 158.4 160.6 159 C 159.9 159.6 159.4 160.3 159 161.2 C 158.7 162.1 158.5 163.1 158.5 164.1 C 158.5 165.2 158.7 166.2 159 167.1 C 159.4 168 159.9 168.7 160.6 169.2 C 161.3 169.8 162.2 170.1 163.2 170.1 Z M 176.3 162.5 C 176.3 162.45 176.3 171.9 176.3 171.9 L 173.9 171.9 L 173.9 156.2 L 176.2 156.2 L 176.2 158.6 C 176.2 158.6 176.43 158.65 176.4 158.6 C 176.8 157.8 177.4 157.2 178.1 156.7 C 178.9 156.2 179.8 156 181 156 C 182.1 156 183 156.2 183.8 156.6 C 184.6 157.1 185.2 157.7 185.7 158.6 C 186.1 159.5 186.3 160.6 186.3 161.9 C 186.33 161.92 186.3 171.9 186.3 171.9 L 183.9 171.9 C 183.9 171.9 183.91 162.08 183.9 162.1 C 183.9 160.8 183.6 159.9 183 159.2 C 182.3 158.5 181.4 158.2 180.3 158.2 C 179.5 158.2 178.9 158.3 178.3 158.7 C 177.6 159 177.2 159.5 176.8 160.1 C 176.5 160.8 176.3 161.5 176.3 162.5 Z M 201.5 159.7 C 201.5 159.7 199.3 160.3 199.3 160.3 C 199.2 160 199 159.6 198.7 159.3 C 198.5 158.9 198.1 158.6 197.7 158.4 C 197.2 158.2 196.6 158.1 195.9 158.1 C 195 158.1 194.2 158.3 193.5 158.7 C 192.9 159.2 192.6 159.7 192.6 160.4 C 192.6 161 192.8 161.5 193.2 161.8 C 193.7 162.2 194.3 162.5 195.3 162.7 C 195.3 162.7 197.6 163.3 197.6 163.3 C 199 163.6 200.1 164.1 200.7 164.8 C 201.4 165.5 201.8 166.4 201.8 167.5 C 201.8 168.4 201.5 169.2 201 169.9 C 200.5 170.6 199.8 171.2 198.9 171.6 C 197.9 172 196.9 172.2 195.6 172.2 C 194 172.2 192.7 171.9 191.7 171.2 C 190.6 170.5 189.9 169.5 189.7 168.1 C 189.7 168.1 192 167.6 192 167.6 C 192.2 168.4 192.6 169 193.2 169.5 C 193.8 169.9 194.6 170.1 195.6 170.1 C 196.7 170.1 197.6 169.9 198.3 169.4 C 198.9 168.9 199.3 168.3 199.3 167.6 C 199.3 167.1 199.1 166.6 198.7 166.3 C 198.3 165.9 197.7 165.6 196.9 165.4 C 196.9 165.4 194.3 164.8 194.3 164.8 C 192.9 164.5 191.8 164 191.2 163.2 C 190.5 162.5 190.2 161.6 190.2 160.5 C 190.2 159.6 190.4 158.9 190.9 158.2 C 191.4 157.5 192.1 157 193 156.6 C 193.8 156.2 194.8 156 195.9 156 C 197.5 156 198.7 156.3 199.6 157 C 200.5 157.7 201.1 158.6 201.5 159.7 Z M 207 172.1 C 206.4 172.1 206 171.9 205.7 171.5 C 205.3 171.2 205.1 170.7 205.1 170.2 C 205.1 169.7 205.3 169.3 205.7 168.9 C 206 168.6 206.4 168.4 207 168.4 C 207.5 168.4 207.9 168.6 208.3 168.9 C 208.6 169.3 208.8 169.7 208.8 170.2 C 208.8 170.6 208.7 170.9 208.5 171.1 C 208.4 171.4 208.2 171.6 207.9 171.8 C 207.6 172 207.3 172.1 207 172.1 Z M 213.7 151 C 213.7 151 213.68 152.8 213.7 152.8 C 213.7 153.4 213.6 153.9 213.4 154.6 C 213.2 155.2 212.9 155.8 212.5 156.4 C 212.1 157 211.6 157.5 211.1 158 C 211.1 158 209.8 156.9 209.8 156.9 C 210.2 156.3 210.6 155.6 210.9 155 C 211.2 154.3 211.4 153.6 211.4 152.8 C 211.39 152.84 211.4 151 211.4 151 L 213.7 151 Z M 218.9 151 C 218.9 151 218.92 152.8 218.9 152.8 C 218.9 153.4 218.8 153.9 218.6 154.6 C 218.4 155.2 218.1 155.8 217.7 156.4 C 217.4 157 216.9 157.5 216.3 158 C 216.3 158 215 156.9 215 156.9 C 215.5 156.3 215.8 155.6 216.2 155 C 216.5 154.3 216.6 153.6 216.6 152.8 C 216.63 152.84 216.6 151 216.6 151 L 218.9 151 Z " stroke="none" fill="#ffffff"/>  </g>  <g id="Polygon121759">    <path d="M 17.8 136.2 C 16.4 136.2 15.1 135.9 14 135.2 C 13 134.5 12.1 133.5 11.6 132.3 C 11 131.1 10.7 129.7 10.7 128.1 C 10.7 126.5 11 125.1 11.6 123.9 C 12.2 122.7 13 121.7 14.1 121 C 15.1 120.3 16.4 120 17.8 120 C 18.9 120 19.9 120.2 20.8 120.6 C 21.7 121 22.4 121.6 23 122.3 C 23.5 123.1 23.9 123.9 24 124.9 C 24 124.9 21.6 124.9 21.6 124.9 C 21.4 124.2 21 123.5 20.4 123 C 19.7 122.4 18.9 122.2 17.8 122.2 C 16.9 122.2 16.1 122.4 15.4 122.9 C 14.7 123.4 14.1 124.1 13.7 124.9 C 13.3 125.8 13.1 126.9 13.1 128 C 13.1 129.3 13.3 130.3 13.7 131.2 C 14.1 132.1 14.6 132.8 15.3 133.3 C 16 133.8 16.9 134.1 17.8 134.1 C 18.5 134.1 19 134 19.5 133.7 C 20.1 133.5 20.5 133.2 20.8 132.8 C 21.2 132.4 21.4 131.9 21.6 131.3 C 21.6 131.3 24 131.3 24 131.3 C 23.9 132.2 23.5 133.1 23 133.8 C 22.5 134.6 21.8 135.1 20.9 135.6 C 20 136 19 136.2 17.8 136.2 Z M 33.6 136.2 C 32.2 136.2 31 135.9 29.9 135.2 C 28.8 134.5 28 133.6 27.4 132.4 C 26.8 131.2 26.5 129.8 26.5 128.1 C 26.5 126.5 26.8 125.1 27.4 123.8 C 28 122.6 28.8 121.7 29.9 121 C 31 120.3 32.2 120 33.6 120 C 35.1 120 36.3 120.3 37.4 121 C 38.4 121.7 39.3 122.6 39.9 123.8 C 40.5 125.1 40.8 126.5 40.8 128.1 C 40.8 129.8 40.5 131.2 39.9 132.4 C 39.3 133.6 38.4 134.5 37.4 135.2 C 36.3 135.9 35.1 136.2 33.6 136.2 Z M 33.6 134.1 C 34.7 134.1 35.6 133.8 36.3 133.2 C 37 132.7 37.5 132 37.8 131.1 C 38.2 130.2 38.3 129.2 38.3 128.1 C 38.3 127.1 38.2 126.1 37.8 125.2 C 37.5 124.3 37 123.6 36.3 123 C 35.6 122.4 34.7 122.2 33.6 122.2 C 32.6 122.2 31.7 122.4 31 123 C 30.3 123.6 29.8 124.3 29.4 125.2 C 29.1 126.1 28.9 127.1 28.9 128.1 C 28.9 129.2 29.1 130.2 29.4 131.1 C 29.8 132 30.3 132.7 31 133.2 C 31.7 133.8 32.6 134.1 33.6 134.1 Z M 46.7 126.5 C 46.71 126.45 46.7 135.9 46.7 135.9 L 44.3 135.9 L 44.3 120.2 L 46.6 120.2 L 46.6 122.6 C 46.6 122.6 46.83 122.65 46.8 122.6 C 47.2 121.8 47.8 121.2 48.5 120.7 C 49.3 120.2 50.2 120 51.4 120 C 52.5 120 53.4 120.2 54.2 120.6 C 55 121.1 55.6 121.7 56.1 122.6 C 56.5 123.5 56.7 124.6 56.7 125.9 C 56.73 125.92 56.7 135.9 56.7 135.9 L 54.3 135.9 C 54.3 135.9 54.32 126.08 54.3 126.1 C 54.3 124.8 54 123.9 53.4 123.2 C 52.7 122.5 51.8 122.2 50.7 122.2 C 49.9 122.2 49.3 122.3 48.7 122.7 C 48.1 123 47.6 123.5 47.2 124.1 C 46.9 124.8 46.7 125.5 46.7 126.5 Z M 67.6 120.2 L 67.6 122.2 L 59.2 122.2 L 59.2 120.2 L 67.6 120.2 Z M 61.7 135.9 C 61.7 135.9 61.72 118.02 61.7 118 C 61.7 117.1 61.9 116.4 62.4 115.8 C 62.8 115.2 63.3 114.7 64 114.4 C 64.7 114.1 65.4 114 66.1 114 C 66.7 114 67.2 114 67.6 114.1 C 68 114.2 68.2 114.3 68.4 114.4 C 68.4 114.4 67.7 116.5 67.7 116.5 C 67.6 116.4 67.4 116.4 67.2 116.3 C 67 116.3 66.7 116.2 66.4 116.2 C 65.6 116.2 65 116.4 64.7 116.8 C 64.3 117.2 64.1 117.8 64.1 118.6 C 64.13 118.6 64.1 135.9 64.1 135.9 L 61.7 135.9 Z M 71.2 135.9 L 71.2 120.2 L 73.6 120.2 L 73.6 135.9 L 71.2 135.9 Z M 72.4 117.6 C 71.9 117.6 71.5 117.4 71.2 117.1 C 70.8 116.8 70.7 116.4 70.7 115.9 C 70.7 115.5 70.8 115.1 71.2 114.8 C 71.5 114.5 71.9 114.3 72.4 114.3 C 72.9 114.3 73.3 114.5 73.6 114.8 C 73.9 115.1 74.1 115.5 74.1 115.9 C 74.1 116.4 73.9 116.8 73.6 117.1 C 73.3 117.4 72.9 117.6 72.4 117.6 Z M 83.7 136.2 C 82.4 136.2 81.2 135.9 80.2 135.2 C 79.2 134.6 78.5 133.6 77.9 132.4 C 77.3 131.2 77 129.8 77 128.1 C 77 126.4 77.3 125 77.9 123.8 C 78.5 122.6 79.2 121.6 80.2 121 C 81.3 120.3 82.4 120 83.7 120 C 84.8 120 85.6 120.2 86.2 120.5 C 86.8 120.8 87.2 121.2 87.5 121.6 C 87.9 122.1 88.1 122.4 88.3 122.7 C 88.29 122.69 88.5 122.7 88.5 122.7 L 88.5 115 L 90.9 115 L 90.9 135.9 L 88.6 135.9 L 88.6 133.5 C 88.6 133.5 88.29 133.49 88.3 133.5 C 88.1 133.8 87.9 134.1 87.5 134.6 C 87.2 135 86.7 135.4 86.1 135.7 C 85.5 136.1 84.7 136.2 83.7 136.2 Z M 84 134.1 C 85 134.1 85.8 133.8 86.5 133.3 C 87.2 132.8 87.7 132.1 88 131.2 C 88.4 130.3 88.5 129.2 88.5 128 C 88.5 126.9 88.4 125.8 88 125 C 87.7 124.1 87.2 123.4 86.5 122.9 C 85.8 122.4 85 122.2 84 122.2 C 83 122.2 82.2 122.4 81.5 122.9 C 80.8 123.5 80.3 124.2 80 125.1 C 79.6 125.9 79.4 126.9 79.4 128 C 79.4 129.2 79.6 130.2 80 131.1 C 80.3 132 80.8 132.7 81.5 133.3 C 82.2 133.8 83 134.1 84 134.1 Z M 101.9 136.2 C 100.4 136.2 99.1 135.9 98 135.2 C 96.9 134.5 96.1 133.6 95.5 132.4 C 94.9 131.2 94.6 129.8 94.6 128.2 C 94.6 126.6 94.9 125.1 95.5 123.9 C 96.1 122.7 96.9 121.7 97.9 121 C 99 120.3 100.2 120 101.7 120 C 102.5 120 103.3 120.1 104.1 120.4 C 104.9 120.7 105.6 121.1 106.3 121.7 C 106.9 122.3 107.4 123.1 107.8 124.1 C 108.2 125.1 108.4 126.4 108.4 127.8 C 108.42 127.84 108.4 128.9 108.4 128.9 L 96.3 128.9 L 96.3 126.8 C 96.3 126.8 105.96 126.78 106 126.8 C 106 125.9 105.8 125.1 105.4 124.4 C 105.1 123.7 104.6 123.2 103.9 122.8 C 103.3 122.4 102.5 122.2 101.7 122.2 C 100.7 122.2 99.9 122.4 99.2 122.9 C 98.5 123.3 97.9 124 97.6 124.7 C 97.2 125.5 97 126.3 97 127.1 C 97 127.1 97 128.5 97 128.5 C 97 129.7 97.2 130.7 97.6 131.5 C 98 132.4 98.6 133 99.3 133.4 C 100.1 133.8 100.9 134.1 101.9 134.1 C 102.5 134.1 103.1 134 103.6 133.8 C 104.2 133.6 104.6 133.3 105 133 C 105.3 132.6 105.6 132.2 105.8 131.6 C 105.8 131.6 108.2 132.3 108.2 132.3 C 107.9 133.1 107.5 133.7 106.9 134.3 C 106.4 134.9 105.6 135.4 104.8 135.7 C 103.9 136.1 103 136.2 101.9 136.2 Z M 114.4 126.5 C 114.37 126.45 114.4 135.9 114.4 135.9 L 112 135.9 L 112 120.2 L 114.3 120.2 L 114.3 122.6 C 114.3 122.6 114.5 122.65 114.5 122.6 C 114.9 121.8 115.4 121.2 116.2 120.7 C 116.9 120.2 117.9 120 119.1 120 C 120.1 120 121.1 120.2 121.9 120.6 C 122.7 121.1 123.3 121.7 123.7 122.6 C 124.2 123.5 124.4 124.6 124.4 125.9 C 124.4 125.92 124.4 135.9 124.4 135.9 L 122 135.9 C 122 135.9 121.98 126.08 122 126.1 C 122 124.8 121.7 123.9 121 123.2 C 120.4 122.5 119.5 122.2 118.4 122.2 C 117.6 122.2 116.9 122.3 116.3 122.7 C 115.7 123 115.2 123.5 114.9 124.1 C 114.5 124.8 114.4 125.5 114.4 126.5 Z M 134.9 136.2 C 133.5 136.2 132.2 135.9 131.1 135.2 C 130.1 134.5 129.3 133.5 128.7 132.3 C 128.1 131.1 127.8 129.7 127.8 128.1 C 127.8 126.5 128.1 125.1 128.7 123.9 C 129.3 122.7 130.1 121.7 131.2 121 C 132.2 120.3 133.5 120 134.9 120 C 136 120 137 120.2 137.9 120.6 C 138.8 121 139.5 121.6 140.1 122.3 C 140.6 123.1 141 123.9 141.1 124.9 C 141.1 124.9 138.7 124.9 138.7 124.9 C 138.5 124.2 138.1 123.5 137.5 123 C 136.9 122.4 136 122.2 134.9 122.2 C 134 122.2 133.2 122.4 132.5 122.9 C 131.8 123.4 131.2 124.1 130.8 124.9 C 130.4 125.8 130.2 126.9 130.2 128 C 130.2 129.3 130.4 130.3 130.8 131.2 C 131.2 132.1 131.7 132.8 132.5 133.3 C 133.2 133.8 134 134.1 134.9 134.1 C 135.6 134.1 136.1 134 136.7 133.7 C 137.2 133.5 137.6 133.2 138 132.8 C 138.3 132.4 138.6 131.9 138.7 131.3 C 138.7 131.3 141.1 131.3 141.1 131.3 C 141 132.2 140.6 133.1 140.1 133.8 C 139.6 134.6 138.9 135.1 138 135.6 C 137.1 136 136.1 136.2 134.9 136.2 Z M 151 136.2 C 149.4 136.2 148.1 135.9 147 135.2 C 145.9 134.5 145.1 133.6 144.5 132.4 C 143.9 131.2 143.6 129.8 143.6 128.2 C 143.6 126.6 143.9 125.1 144.5 123.9 C 145.1 122.7 145.9 121.7 147 121 C 148 120.3 149.3 120 150.7 120 C 151.5 120 152.3 120.1 153.1 120.4 C 153.9 120.7 154.7 121.1 155.3 121.7 C 156 122.3 156.5 123.1 156.9 124.1 C 157.3 125.1 157.5 126.4 157.5 127.8 C 157.46 127.84 157.5 128.9 157.5 128.9 L 145.3 128.9 L 145.3 126.8 C 145.3 126.8 155 126.78 155 126.8 C 155 125.9 154.8 125.1 154.5 124.4 C 154.1 123.7 153.6 123.2 153 122.8 C 152.3 122.4 151.6 122.2 150.7 122.2 C 149.7 122.2 148.9 122.4 148.2 122.9 C 147.5 123.3 147 124 146.6 124.7 C 146.2 125.5 146 126.3 146 127.1 C 146 127.1 146 128.5 146 128.5 C 146 129.7 146.2 130.7 146.7 131.5 C 147.1 132.4 147.6 133 148.4 133.4 C 149.1 133.8 150 134.1 151 134.1 C 151.6 134.1 152.2 134 152.7 133.8 C 153.2 133.6 153.6 133.3 154 133 C 154.4 132.6 154.7 132.2 154.9 131.6 C 154.9 131.6 157.2 132.3 157.2 132.3 C 157 133.1 156.6 133.7 156 134.3 C 155.4 134.9 154.7 135.4 153.8 135.7 C 153 136.1 152 136.2 151 136.2 Z M 169.2 135.9 L 169.2 120.2 L 171.7 120.2 L 171.7 135.9 L 169.2 135.9 Z M 170.5 117.6 C 170 117.6 169.6 117.4 169.3 117.1 C 168.9 116.8 168.7 116.4 168.7 115.9 C 168.7 115.5 168.9 115.1 169.3 114.8 C 169.6 114.5 170 114.3 170.5 114.3 C 170.9 114.3 171.3 114.5 171.7 114.8 C 172 115.1 172.2 115.5 172.2 115.9 C 172.2 116.4 172 116.8 171.7 117.1 C 171.3 117.4 170.9 117.6 170.5 117.6 Z M 178.4 126.5 C 178.36 126.45 178.4 135.9 178.4 135.9 L 175.9 135.9 L 175.9 120.2 L 178.3 120.2 L 178.3 122.6 C 178.3 122.6 178.48 122.65 178.5 122.6 C 178.8 121.8 179.4 121.2 180.2 120.7 C 180.9 120.2 181.9 120 183.1 120 C 184.1 120 185.1 120.2 185.9 120.6 C 186.7 121.1 187.3 121.7 187.7 122.6 C 188.2 123.5 188.4 124.6 188.4 125.9 C 188.38 125.92 188.4 135.9 188.4 135.9 L 186 135.9 C 186 135.9 185.97 126.08 186 126.1 C 186 124.8 185.6 123.9 185 123.2 C 184.4 122.5 183.5 122.2 182.4 122.2 C 181.6 122.2 180.9 122.3 180.3 122.7 C 179.7 123 179.2 123.5 178.9 124.1 C 178.5 124.8 178.4 125.5 178.4 126.5 Z " stroke="none" fill="#ffffff"/>  </g>  <g id="Polygon121758">    <path d="M 17.8 106.1 C 16.6 106.1 15.6 106 14.8 105.7 C 13.9 105.4 13.2 105 12.7 104.5 C 12.1 104 11.7 103.5 11.4 103 C 11.4 103 13.3 101.6 13.3 101.6 C 13.5 101.9 13.8 102.2 14.1 102.6 C 14.5 103 14.9 103.3 15.5 103.6 C 16.1 103.9 16.8 104 17.8 104 C 19.1 104 20.1 103.7 20.9 103.1 C 21.8 102.5 22.2 101.5 22.2 100.2 C 22.17 100.19 22.2 97 22.2 97 C 22.2 97 21.96 97 22 97 C 21.8 97.3 21.5 97.6 21.2 98.1 C 20.9 98.5 20.4 98.8 19.8 99.2 C 19.2 99.5 18.4 99.7 17.4 99.7 C 16.1 99.7 15 99.4 14 98.8 C 13 98.2 12.2 97.3 11.6 96.1 C 11 95 10.7 93.6 10.7 92 C 10.7 90.4 11 89 11.6 87.8 C 12.1 86.6 12.9 85.6 13.9 85 C 14.9 84.3 16.1 84 17.4 84 C 18.4 84 19.3 84.2 19.9 84.5 C 20.5 84.8 20.9 85.2 21.3 85.6 C 21.6 86.1 21.8 86.4 22 86.7 C 22 86.69 22.3 86.7 22.3 86.7 L 22.3 84.2 L 24.6 84.2 C 24.6 84.2 24.58 100.35 24.6 100.3 C 24.6 101.7 24.3 102.8 23.7 103.6 C 23.1 104.5 22.2 105.1 21.2 105.5 C 20.2 105.9 19 106.1 17.8 106.1 Z M 17.7 97.5 C 18.7 97.5 19.5 97.3 20.2 96.8 C 20.8 96.4 21.3 95.7 21.7 94.9 C 22 94.1 22.2 93.1 22.2 91.9 C 22.2 90.8 22 89.8 21.7 88.9 C 21.4 88.1 20.9 87.4 20.2 86.9 C 19.5 86.4 18.7 86.2 17.7 86.2 C 16.7 86.2 15.8 86.4 15.2 86.9 C 14.5 87.5 14 88.1 13.6 89 C 13.3 89.9 13.1 90.9 13.1 91.9 C 13.1 93 13.3 94 13.6 94.8 C 14 95.6 14.5 96.3 15.2 96.8 C 15.9 97.2 16.7 97.5 17.7 97.5 Z M 28.9 99.9 L 28.9 84.2 L 31.3 84.2 L 31.3 99.9 L 28.9 99.9 Z M 30.1 81.6 C 29.6 81.6 29.2 81.4 28.9 81.1 C 28.5 80.8 28.4 80.4 28.4 79.9 C 28.4 79.5 28.5 79.1 28.9 78.8 C 29.2 78.5 29.6 78.3 30.1 78.3 C 30.6 78.3 31 78.5 31.3 78.8 C 31.6 79.1 31.8 79.5 31.8 79.9 C 31.8 80.4 31.6 80.8 31.3 81.1 C 31 81.4 30.6 81.6 30.1 81.6 Z M 48.2 84.2 L 42.4 99.9 L 40 99.9 L 34.2 84.2 L 36.8 84.2 L 41.1 96.7 L 41.3 96.7 L 45.6 84.2 L 48.2 84.2 Z M 51.1 99.9 L 51.1 84.2 L 53.5 84.2 L 53.5 99.9 L 51.1 99.9 Z M 52.4 81.6 C 51.9 81.6 51.5 81.4 51.1 81.1 C 50.8 80.8 50.6 80.4 50.6 79.9 C 50.6 79.5 50.8 79.1 51.1 78.8 C 51.5 78.5 51.9 78.3 52.4 78.3 C 52.8 78.3 53.2 78.5 53.6 78.8 C 53.9 79.1 54.1 79.5 54.1 79.9 C 54.1 80.4 53.9 80.8 53.6 81.1 C 53.2 81.4 52.8 81.6 52.4 81.6 Z M 60.2 90.5 C 60.24 90.45 60.2 99.9 60.2 99.9 L 57.8 99.9 L 57.8 84.2 L 60.2 84.2 L 60.2 86.6 C 60.2 86.6 60.37 86.65 60.4 86.6 C 60.7 85.8 61.3 85.2 62 84.7 C 62.8 84.2 63.8 84 64.9 84 C 66 84 66.9 84.2 67.7 84.6 C 68.5 85.1 69.2 85.7 69.6 86.6 C 70 87.5 70.3 88.6 70.3 89.9 C 70.27 89.92 70.3 99.9 70.3 99.9 L 67.9 99.9 C 67.9 99.9 67.85 90.08 67.9 90.1 C 67.9 88.8 67.5 87.9 66.9 87.2 C 66.3 86.5 65.4 86.2 64.3 86.2 C 63.5 86.2 62.8 86.3 62.2 86.7 C 61.6 87 61.1 87.5 60.8 88.1 C 60.4 88.8 60.2 89.5 60.2 90.5 Z M 80.8 106.1 C 79.6 106.1 78.6 106 77.8 105.7 C 76.9 105.4 76.2 105 75.7 104.5 C 75.1 104 74.7 103.5 74.3 103 C 74.3 103 76.3 101.6 76.3 101.6 C 76.5 101.9 76.8 102.2 77.1 102.6 C 77.4 103 77.9 103.3 78.5 103.6 C 79.1 103.9 79.8 104 80.8 104 C 82 104 83.1 103.7 83.9 103.1 C 84.7 102.5 85.1 101.5 85.1 100.2 C 85.15 100.19 85.1 97 85.1 97 C 85.1 97 84.94 97 84.9 97 C 84.8 97.3 84.5 97.6 84.2 98.1 C 83.9 98.5 83.4 98.8 82.8 99.2 C 82.2 99.5 81.4 99.7 80.4 99.7 C 79.1 99.7 78 99.4 77 98.8 C 75.9 98.2 75.2 97.3 74.6 96.1 C 74 95 73.7 93.6 73.7 92 C 73.7 90.4 74 89 74.5 87.8 C 75.1 86.6 75.9 85.6 76.9 85 C 77.9 84.3 79.1 84 80.4 84 C 81.4 84 82.2 84.2 82.8 84.5 C 83.4 84.8 83.9 85.2 84.2 85.6 C 84.6 86.1 84.8 86.4 85 86.7 C 84.99 86.69 85.2 86.7 85.2 86.7 L 85.2 84.2 L 87.6 84.2 C 87.6 84.2 87.56 100.35 87.6 100.3 C 87.6 101.7 87.3 102.8 86.6 103.6 C 86 104.5 85.2 105.1 84.2 105.5 C 83.2 105.9 82 106.1 80.8 106.1 Z M 80.7 97.5 C 81.7 97.5 82.5 97.3 83.1 96.8 C 83.8 96.4 84.3 95.7 84.7 94.9 C 85 94.1 85.2 93.1 85.2 91.9 C 85.2 90.8 85 89.8 84.7 88.9 C 84.3 88.1 83.8 87.4 83.2 86.9 C 82.5 86.4 81.7 86.2 80.7 86.2 C 79.7 86.2 78.8 86.4 78.1 86.9 C 77.5 87.5 77 88.1 76.6 89 C 76.3 89.9 76.1 90.9 76.1 91.9 C 76.1 93 76.3 94 76.6 94.8 C 77 95.6 77.5 96.3 78.2 96.8 C 78.8 97.2 79.7 97.5 80.7 97.5 Z M 101.6 105.8 C 101.2 105.8 100.9 105.8 100.5 105.7 C 100.2 105.6 100 105.6 99.9 105.5 C 99.9 105.5 100.5 103.4 100.5 103.4 C 101.1 103.5 101.6 103.6 102 103.5 C 102.5 103.5 102.9 103.3 103.2 102.9 C 103.6 102.6 103.9 102 104.2 101.2 C 104.21 101.21 104.7 100 104.7 100 L 98.9 84.2 L 101.5 84.2 L 105.8 96.7 L 106 96.7 L 110.3 84.2 L 112.9 84.2 C 112.9 84.2 106.26 102.19 106.3 102.2 C 106 103 105.6 103.7 105.1 104.2 C 104.7 104.7 104.2 105.1 103.6 105.4 C 103 105.7 102.4 105.8 101.6 105.8 Z M 121.6 100.2 C 120.1 100.2 118.9 99.9 117.8 99.2 C 116.8 98.5 115.9 97.6 115.3 96.4 C 114.7 95.2 114.4 93.8 114.4 92.1 C 114.4 90.5 114.7 89.1 115.3 87.8 C 115.9 86.6 116.8 85.7 117.8 85 C 118.9 84.3 120.1 84 121.6 84 C 123 84 124.2 84.3 125.3 85 C 126.4 85.7 127.2 86.6 127.8 87.8 C 128.4 89.1 128.7 90.5 128.7 92.1 C 128.7 93.8 128.4 95.2 127.8 96.4 C 127.2 97.6 126.4 98.5 125.3 99.2 C 124.2 99.9 123 100.2 121.6 100.2 Z M 121.6 98.1 C 122.6 98.1 123.5 97.8 124.2 97.2 C 124.9 96.7 125.4 96 125.8 95.1 C 126.1 94.2 126.3 93.2 126.3 92.1 C 126.3 91.1 126.1 90.1 125.8 89.2 C 125.4 88.3 124.9 87.6 124.2 87 C 123.5 86.4 122.6 86.2 121.6 86.2 C 120.5 86.2 119.6 86.4 118.9 87 C 118.2 87.6 117.7 88.3 117.4 89.2 C 117 90.1 116.9 91.1 116.9 92.1 C 116.9 93.2 117 94.2 117.4 95.1 C 117.7 96 118.2 96.7 118.9 97.2 C 119.6 97.8 120.5 98.1 121.6 98.1 Z M 142 93.5 C 142.02 93.48 142 84.2 142 84.2 L 144.4 84.2 L 144.4 99.9 L 142 99.9 L 142 97.2 C 142 97.2 141.86 97.24 141.9 97.2 C 141.5 98 140.9 98.7 140.1 99.3 C 139.4 99.8 138.4 100.1 137.2 100.1 C 136.2 100.1 135.3 99.9 134.6 99.5 C 133.8 99 133.2 98.4 132.8 97.5 C 132.3 96.6 132.1 95.5 132.1 94.2 C 132.12 94.17 132.1 84.2 132.1 84.2 L 134.5 84.2 C 134.5 84.2 134.53 94.01 134.5 94 C 134.5 95.2 134.9 96.1 135.5 96.8 C 136.1 97.4 137 97.8 138 97.8 C 138.6 97.8 139.2 97.6 139.8 97.3 C 140.4 97 141 96.5 141.4 95.9 C 141.8 95.3 142 94.5 142 93.5 Z " stroke="none" fill="#ffffff"/>  </g>  <g id="Polygon121757">    <path d="M 18.3 48.2 L 18.3 50.2 L 10.1 50.2 L 10.1 48.2 L 18.3 48.2 Z M 12.5 44.4 L 14.9 44.4 C 14.9 44.4 14.93 59.4 14.9 59.4 C 14.9 60.1 15 60.6 15.2 60.9 C 15.4 61.3 15.7 61.5 16 61.6 C 16.3 61.7 16.7 61.8 17 61.8 C 17.3 61.8 17.5 61.8 17.7 61.7 C 17.8 61.7 18 61.7 18.1 61.7 C 18.1 61.7 18.6 63.8 18.6 63.8 C 18.4 63.9 18.2 63.9 17.9 64 C 17.6 64.1 17.2 64.1 16.8 64.1 C 16.1 64.1 15.4 64 14.8 63.7 C 14.1 63.4 13.6 62.9 13.2 62.3 C 12.7 61.7 12.5 61 12.5 60.1 C 12.51 60.05 12.5 44.4 12.5 44.4 Z M 21.5 63.9 L 21.5 48.2 L 23.9 48.2 L 23.9 50.6 C 23.9 50.6 24.04 50.56 24 50.6 C 24.3 49.8 24.8 49.2 25.6 48.7 C 26.3 48.2 27.2 47.9 28.1 47.9 C 28.3 47.9 28.5 47.9 28.8 48 C 29.1 48 29.3 48 29.4 48 C 29.4 48 29.4 50.4 29.4 50.4 C 29.3 50.4 29.1 50.4 28.8 50.3 C 28.5 50.3 28.2 50.3 27.9 50.3 C 27.2 50.3 26.5 50.4 25.9 50.8 C 25.3 51.1 24.8 51.5 24.5 52.1 C 24.1 52.6 24 53.3 24 54 C 23.95 53.96 24 63.9 24 63.9 L 21.5 63.9 Z M 42 57.5 C 42.03 57.48 42 48.2 42 48.2 L 44.4 48.2 L 44.4 63.9 L 42 63.9 L 42 61.2 C 42 61.2 41.87 61.24 41.9 61.2 C 41.5 62 40.9 62.7 40.2 63.3 C 39.4 63.8 38.4 64.1 37.2 64.1 C 36.2 64.1 35.4 63.9 34.6 63.5 C 33.8 63 33.2 62.4 32.8 61.5 C 32.4 60.6 32.1 59.5 32.1 58.2 C 32.13 58.17 32.1 48.2 32.1 48.2 L 34.5 48.2 C 34.5 48.2 34.55 58.01 34.5 58 C 34.5 59.2 34.9 60.1 35.5 60.8 C 36.2 61.4 37 61.8 38 61.8 C 38.6 61.8 39.2 61.6 39.8 61.3 C 40.4 61 41 60.5 41.4 59.9 C 41.8 59.3 42 58.5 42 57.5 Z M 59.7 51.7 C 59.7 51.7 57.5 52.3 57.5 52.3 C 57.4 52 57.2 51.6 56.9 51.3 C 56.6 50.9 56.3 50.6 55.8 50.4 C 55.4 50.2 54.8 50.1 54.1 50.1 C 53.2 50.1 52.4 50.3 51.7 50.7 C 51.1 51.2 50.8 51.7 50.8 52.4 C 50.8 53 51 53.5 51.4 53.8 C 51.8 54.2 52.5 54.5 53.5 54.7 C 53.5 54.7 55.8 55.3 55.8 55.3 C 57.2 55.6 58.2 56.1 58.9 56.8 C 59.6 57.5 60 58.4 60 59.5 C 60 60.4 59.7 61.2 59.2 61.9 C 58.7 62.6 58 63.2 57 63.6 C 56.1 64 55 64.2 53.8 64.2 C 52.2 64.2 50.9 63.9 49.8 63.2 C 48.8 62.5 48.1 61.5 47.9 60.1 C 47.9 60.1 50.1 59.6 50.1 59.6 C 50.4 60.4 50.8 61 51.4 61.5 C 52 61.9 52.8 62.1 53.8 62.1 C 54.9 62.1 55.8 61.9 56.5 61.4 C 57.1 60.9 57.5 60.3 57.5 59.6 C 57.5 59.1 57.3 58.6 56.9 58.3 C 56.5 57.9 55.9 57.6 55.1 57.4 C 55.1 57.4 52.5 56.8 52.5 56.8 C 51.1 56.5 50 56 49.4 55.2 C 48.7 54.5 48.3 53.6 48.3 52.5 C 48.3 51.6 48.6 50.9 49.1 50.2 C 49.6 49.5 50.3 49 51.2 48.6 C 52 48.2 53 48 54.1 48 C 55.7 48 56.9 48.3 57.8 49 C 58.7 49.7 59.3 50.6 59.7 51.7 Z M 70.2 48.2 L 70.2 50.2 L 62 50.2 L 62 48.2 L 70.2 48.2 Z M 64.4 44.4 L 66.8 44.4 C 66.8 44.4 66.83 59.4 66.8 59.4 C 66.8 60.1 66.9 60.6 67.1 60.9 C 67.3 61.3 67.6 61.5 67.9 61.6 C 68.2 61.7 68.6 61.8 68.9 61.8 C 69.2 61.8 69.4 61.8 69.6 61.7 C 69.7 61.7 69.9 61.7 70 61.7 C 70 61.7 70.5 63.8 70.5 63.8 C 70.3 63.9 70.1 63.9 69.8 64 C 69.5 64.1 69.1 64.1 68.7 64.1 C 68 64.1 67.3 64 66.7 63.7 C 66 63.4 65.5 62.9 65.1 62.3 C 64.6 61.7 64.4 61 64.4 60.1 C 64.41 60.05 64.4 44.4 64.4 44.4 Z M 79.4 64.2 C 77.9 64.2 76.6 63.9 75.5 63.2 C 74.4 62.5 73.6 61.6 73 60.4 C 72.4 59.2 72.1 57.8 72.1 56.2 C 72.1 54.6 72.4 53.1 73 51.9 C 73.6 50.7 74.4 49.7 75.5 49 C 76.5 48.3 77.8 48 79.2 48 C 80 48 80.8 48.1 81.6 48.4 C 82.4 48.7 83.1 49.1 83.8 49.7 C 84.5 50.3 85 51.1 85.4 52.1 C 85.8 53.1 86 54.4 86 55.8 C 85.95 55.84 86 56.9 86 56.9 L 73.8 56.9 L 73.8 54.8 C 73.8 54.8 83.5 54.78 83.5 54.8 C 83.5 53.9 83.3 53.1 83 52.4 C 82.6 51.7 82.1 51.2 81.5 50.8 C 80.8 50.4 80.1 50.2 79.2 50.2 C 78.2 50.2 77.4 50.4 76.7 50.9 C 76 51.3 75.5 52 75.1 52.7 C 74.7 53.5 74.5 54.3 74.5 55.1 C 74.5 55.1 74.5 56.5 74.5 56.5 C 74.5 57.7 74.7 58.7 75.2 59.5 C 75.6 60.4 76.1 61 76.9 61.4 C 77.6 61.8 78.5 62.1 79.4 62.1 C 80.1 62.1 80.7 62 81.2 61.8 C 81.7 61.6 82.1 61.3 82.5 61 C 82.9 60.6 83.2 60.2 83.4 59.6 C 83.4 59.6 85.7 60.3 85.7 60.3 C 85.5 61.1 85 61.7 84.5 62.3 C 83.9 62.9 83.2 63.4 82.3 63.7 C 81.5 64.1 80.5 64.2 79.4 64.2 Z M 95.4 64.2 C 94.1 64.2 92.9 63.9 91.9 63.2 C 90.9 62.6 90.1 61.6 89.6 60.4 C 89 59.2 88.7 57.8 88.7 56.1 C 88.7 54.4 89 53 89.6 51.8 C 90.1 50.6 90.9 49.6 91.9 49 C 92.9 48.3 94.1 48 95.4 48 C 96.5 48 97.3 48.2 97.9 48.5 C 98.5 48.8 98.9 49.2 99.2 49.6 C 99.5 50.1 99.8 50.4 100 50.7 C 99.97 50.69 100.2 50.7 100.2 50.7 L 100.2 43 L 102.6 43 L 102.6 63.9 L 100.3 63.9 L 100.3 61.5 C 100.3 61.5 99.97 61.49 100 61.5 C 99.8 61.8 99.5 62.1 99.2 62.6 C 98.9 63 98.4 63.4 97.8 63.7 C 97.2 64.1 96.4 64.2 95.4 64.2 Z M 95.7 62.1 C 96.7 62.1 97.5 61.8 98.2 61.3 C 98.8 60.8 99.3 60.1 99.7 59.2 C 100 58.3 100.2 57.2 100.2 56 C 100.2 54.9 100 53.8 99.7 53 C 99.4 52.1 98.9 51.4 98.2 50.9 C 97.5 50.4 96.7 50.2 95.7 50.2 C 94.7 50.2 93.8 50.4 93.2 50.9 C 92.5 51.5 92 52.2 91.6 53.1 C 91.3 53.9 91.1 54.9 91.1 56 C 91.1 57.2 91.3 58.2 91.7 59.1 C 92 60 92.5 60.7 93.2 61.3 C 93.9 61.8 94.7 62.1 95.7 62.1 Z M 115.4 63.9 L 115.4 48.2 L 117.9 48.2 L 117.9 63.9 L 115.4 63.9 Z M 116.7 45.6 C 116.2 45.6 115.8 45.4 115.5 45.1 C 115.1 44.8 114.9 44.4 114.9 43.9 C 114.9 43.5 115.1 43.1 115.5 42.8 C 115.8 42.5 116.2 42.3 116.7 42.3 C 117.1 42.3 117.5 42.5 117.9 42.8 C 118.2 43.1 118.4 43.5 118.4 43.9 C 118.4 44.4 118.2 44.8 117.9 45.1 C 117.5 45.4 117.1 45.6 116.7 45.6 Z M 124.6 54.5 C 124.56 54.45 124.6 63.9 124.6 63.9 L 122.1 63.9 L 122.1 48.2 L 124.5 48.2 L 124.5 50.6 C 124.5 50.6 124.68 50.65 124.7 50.6 C 125 49.8 125.6 49.2 126.4 48.7 C 127.1 48.2 128.1 48 129.3 48 C 130.3 48 131.3 48.2 132.1 48.6 C 132.9 49.1 133.5 49.7 133.9 50.6 C 134.4 51.5 134.6 52.6 134.6 53.9 C 134.58 53.92 134.6 63.9 134.6 63.9 L 132.2 63.9 C 132.2 63.9 132.16 54.08 132.2 54.1 C 132.2 52.8 131.8 51.9 131.2 51.2 C 130.6 50.5 129.7 50.2 128.6 50.2 C 127.8 50.2 127.1 50.3 126.5 50.7 C 125.9 51 125.4 51.5 125.1 52.1 C 124.7 52.8 124.6 53.5 124.6 54.5 Z M 149.7 51.7 C 149.7 51.7 147.6 52.3 147.6 52.3 C 147.4 52 147.2 51.6 147 51.3 C 146.7 50.9 146.4 50.6 145.9 50.4 C 145.5 50.2 144.9 50.1 144.2 50.1 C 143.2 50.1 142.4 50.3 141.8 50.7 C 141.1 51.2 140.8 51.7 140.8 52.4 C 140.8 53 141 53.5 141.5 53.8 C 141.9 54.2 142.6 54.5 143.5 54.7 C 143.5 54.7 145.9 55.3 145.9 55.3 C 147.3 55.6 148.3 56.1 149 56.8 C 149.7 57.5 150 58.4 150 59.5 C 150 60.4 149.8 61.2 149.3 61.9 C 148.7 62.6 148 63.2 147.1 63.6 C 146.2 64 145.1 64.2 143.9 64.2 C 142.3 64.2 141 63.9 139.9 63.2 C 138.9 62.5 138.2 61.5 137.9 60.1 C 137.9 60.1 140.2 59.6 140.2 59.6 C 140.4 60.4 140.8 61 141.5 61.5 C 142.1 61.9 142.9 62.1 143.9 62.1 C 145 62.1 145.9 61.9 146.5 61.4 C 147.2 60.9 147.5 60.3 147.5 59.6 C 147.5 59.1 147.3 58.6 147 58.3 C 146.6 57.9 146 57.6 145.2 57.4 C 145.2 57.4 142.6 56.8 142.6 56.8 C 141.1 56.5 140.1 56 139.4 55.2 C 138.7 54.5 138.4 53.6 138.4 52.5 C 138.4 51.6 138.7 50.9 139.2 50.2 C 139.7 49.5 140.3 49 141.2 48.6 C 142.1 48.2 143.1 48 144.2 48 C 145.7 48 147 48.3 147.8 49 C 148.7 49.7 149.4 50.6 149.7 51.7 Z M 153.4 63.9 L 153.4 48.2 L 155.8 48.2 L 155.8 63.9 L 153.4 63.9 Z M 154.6 45.6 C 154.2 45.6 153.8 45.4 153.4 45.1 C 153.1 44.8 152.9 44.4 152.9 43.9 C 152.9 43.5 153.1 43.1 153.4 42.8 C 153.8 42.5 154.2 42.3 154.6 42.3 C 155.1 42.3 155.5 42.5 155.8 42.8 C 156.2 43.1 156.4 43.5 156.4 43.9 C 156.4 44.4 156.2 44.8 155.8 45.1 C 155.5 45.4 155.1 45.6 154.6 45.6 Z M 166.4 70.1 C 165.2 70.1 164.2 70 163.3 69.7 C 162.5 69.4 161.8 69 161.3 68.5 C 160.7 68 160.3 67.5 159.9 67 C 159.9 67 161.9 65.6 161.9 65.6 C 162.1 65.9 162.4 66.2 162.7 66.6 C 163 67 163.5 67.3 164.1 67.6 C 164.6 67.9 165.4 68 166.4 68 C 167.6 68 168.7 67.7 169.5 67.1 C 170.3 66.5 170.7 65.5 170.7 64.2 C 170.73 64.19 170.7 61 170.7 61 C 170.7 61 170.53 61 170.5 61 C 170.4 61.3 170.1 61.6 169.8 62.1 C 169.5 62.5 169 62.8 168.4 63.2 C 167.8 63.5 167 63.7 165.9 63.7 C 164.7 63.7 163.5 63.4 162.5 62.8 C 161.5 62.2 160.7 61.3 160.2 60.1 C 159.6 59 159.3 57.6 159.3 56 C 159.3 54.4 159.6 53 160.1 51.8 C 160.7 50.6 161.5 49.6 162.5 49 C 163.5 48.3 164.7 48 166 48 C 167 48 167.8 48.2 168.4 48.5 C 169 48.8 169.5 49.2 169.8 49.6 C 170.1 50.1 170.4 50.4 170.6 50.7 C 170.57 50.69 170.8 50.7 170.8 50.7 L 170.8 48.2 L 173.1 48.2 C 173.1 48.2 173.15 64.35 173.1 64.3 C 173.1 65.7 172.8 66.8 172.2 67.6 C 171.6 68.5 170.8 69.1 169.8 69.5 C 168.8 69.9 167.6 70.1 166.4 70.1 Z M 166.3 61.5 C 167.2 61.5 168.1 61.3 168.7 60.8 C 169.4 60.4 169.9 59.7 170.3 58.9 C 170.6 58.1 170.8 57.1 170.8 55.9 C 170.8 54.8 170.6 53.8 170.3 52.9 C 169.9 52.1 169.4 51.4 168.7 50.9 C 168.1 50.4 167.3 50.2 166.3 50.2 C 165.3 50.2 164.4 50.4 163.7 50.9 C 163 51.5 162.5 52.1 162.2 53 C 161.9 53.9 161.7 54.9 161.7 55.9 C 161.7 57 161.9 58 162.2 58.8 C 162.6 59.6 163.1 60.3 163.7 60.8 C 164.4 61.2 165.3 61.5 166.3 61.5 Z M 179.8 54.5 C 179.84 54.45 179.8 63.9 179.8 63.9 L 177.4 63.9 L 177.4 43 L 179.8 43 L 179.8 50.6 C 179.8 50.6 180.04 50.65 180 50.6 C 180.4 49.8 181 49.2 181.7 48.7 C 182.4 48.2 183.4 48 184.7 48 C 185.7 48 186.7 48.2 187.5 48.6 C 188.3 49.1 188.9 49.7 189.4 50.6 C 189.8 51.5 190 52.6 190 53.9 C 190.02 53.92 190 63.9 190 63.9 L 187.6 63.9 C 187.6 63.9 187.61 54.08 187.6 54.1 C 187.6 52.8 187.3 51.9 186.6 51.2 C 186 50.5 185.1 50.2 184 50.2 C 183.2 50.2 182.5 50.3 181.8 50.7 C 181.2 51 180.7 51.5 180.4 52.1 C 180 52.8 179.8 53.5 179.8 54.5 Z M 200.7 48.2 L 200.7 50.2 L 192.6 50.2 L 192.6 48.2 L 200.7 48.2 Z M 194.9 44.4 L 197.3 44.4 C 197.3 44.4 197.34 59.4 197.3 59.4 C 197.3 60.1 197.4 60.6 197.6 60.9 C 197.8 61.3 198.1 61.5 198.4 61.6 C 198.7 61.7 199.1 61.8 199.4 61.8 C 199.7 61.8 199.9 61.8 200.1 61.7 C 200.2 61.7 200.4 61.7 200.5 61.7 C 200.5 61.7 201 63.8 201 63.8 C 200.8 63.9 200.6 63.9 200.3 64 C 200 64.1 199.6 64.1 199.2 64.1 C 198.5 64.1 197.8 64 197.2 63.7 C 196.5 63.4 196 62.9 195.6 62.3 C 195.1 61.7 194.9 61 194.9 60.1 C 194.92 60.05 194.9 44.4 194.9 44.4 Z M 215 51.7 C 215 51.7 212.8 52.3 212.8 52.3 C 212.7 52 212.5 51.6 212.3 51.3 C 212 50.9 211.6 50.6 211.2 50.4 C 210.7 50.2 210.2 50.1 209.5 50.1 C 208.5 50.1 207.7 50.3 207.1 50.7 C 206.4 51.2 206.1 51.7 206.1 52.4 C 206.1 53 206.3 53.5 206.8 53.8 C 207.2 54.2 207.9 54.5 208.8 54.7 C 208.8 54.7 211.1 55.3 211.1 55.3 C 212.5 55.6 213.6 56.1 214.3 56.8 C 215 57.5 215.3 58.4 215.3 59.5 C 215.3 60.4 215 61.2 214.5 61.9 C 214 62.6 213.3 63.2 212.4 63.6 C 211.5 64 210.4 64.2 209.2 64.2 C 207.6 64.2 206.2 63.9 205.2 63.2 C 204.1 62.5 203.5 61.5 203.2 60.1 C 203.2 60.1 205.5 59.6 205.5 59.6 C 205.7 60.4 206.1 61 206.7 61.5 C 207.3 61.9 208.1 62.1 209.1 62.1 C 210.3 62.1 211.1 61.9 211.8 61.4 C 212.5 60.9 212.8 60.3 212.8 59.6 C 212.8 59.1 212.6 58.6 212.2 58.3 C 211.9 57.9 211.3 57.6 210.5 57.4 C 210.5 57.4 207.9 56.8 207.9 56.8 C 206.4 56.5 205.4 56 204.7 55.2 C 204 54.5 203.7 53.6 203.7 52.5 C 203.7 51.6 203.9 50.9 204.4 50.2 C 204.9 49.5 205.6 49 206.5 48.6 C 207.4 48.2 208.3 48 209.5 48 C 211 48 212.2 48.3 213.1 49 C 214 49.7 214.6 50.6 215 51.7 Z M 222.1 61 C 222.1 61 221.91 62.14 221.9 62.1 C 221.8 62.9 221.6 63.8 221.4 64.6 C 221.1 65.5 220.9 66.4 220.7 67.1 C 220.4 67.9 220.2 68.5 220 69 C 220 69 218.2 69 218.2 69 C 218.3 68.6 218.4 68 218.5 67.3 C 218.7 66.6 218.8 65.8 219 64.9 C 219.1 64 219.2 63.1 219.3 62.2 C 219.33 62.18 219.5 61 219.5 61 L 222.1 61 Z " stroke="none" fill="#ffffff"/>  </g>  <g id="Polygon121756">    <path d="M 1.4 13.5 C 1.4 13.5 1.39 11.66 1.4 11.7 C 1.4 11.1 1.5 10.5 1.7 9.9 C 1.9 9.2 2.2 8.6 2.6 8 C 3 7.5 3.4 6.9 4 6.5 C 4 6.5 5.3 7.6 5.3 7.6 C 4.8 8.2 4.5 8.8 4.2 9.5 C 3.8 10.2 3.7 10.9 3.7 11.6 C 3.68 11.62 3.7 13.5 3.7 13.5 L 1.4 13.5 Z M 6.6 13.5 C 6.6 13.5 6.63 11.66 6.6 11.7 C 6.6 11.1 6.7 10.5 6.9 9.9 C 7.1 9.2 7.4 8.6 7.8 8 C 8.2 7.5 8.7 6.9 9.2 6.5 C 9.2 6.5 10.5 7.6 10.5 7.6 C 10.1 8.2 9.7 8.8 9.4 9.5 C 9.1 10.2 8.9 10.9 8.9 11.6 C 8.92 11.62 8.9 13.5 8.9 13.5 L 6.6 13.5 Z M 12.6 27.9 L 10 27.9 L 17.7 7 L 20.3 7 L 28 27.9 L 25.3 27.9 L 19.1 10.3 L 18.9 10.3 L 12.6 27.9 Z M 13.6 19.7 L 24.3 19.7 L 24.3 22 L 13.6 22 L 13.6 19.7 Z M 33.7 7 L 33.7 27.9 L 31.1 27.9 L 31.1 7 L 33.7 7 Z M 46.5 33.8 L 46.5 12.2 L 48.9 12.2 L 48.9 14.7 C 48.9 14.7 49.14 14.69 49.1 14.7 C 49.3 14.4 49.6 14.1 49.9 13.6 C 50.2 13.2 50.7 12.8 51.3 12.5 C 51.8 12.2 52.7 12 53.7 12 C 55 12 56.2 12.3 57.2 13 C 58.2 13.6 59 14.6 59.5 15.8 C 60.1 17 60.4 18.4 60.4 20.1 C 60.4 21.8 60.1 23.2 59.5 24.4 C 59 25.6 58.2 26.6 57.2 27.2 C 56.2 27.9 55 28.2 53.7 28.2 C 52.7 28.2 51.9 28.1 51.3 27.7 C 50.7 27.4 50.2 27 49.9 26.6 C 49.6 26.1 49.3 25.8 49.1 25.5 C 49.14 25.49 48.9 25.5 48.9 25.5 L 48.9 33.8 L 46.5 33.8 Z M 48.9 20 C 48.9 21.2 49.1 22.3 49.4 23.2 C 49.8 24.1 50.3 24.8 50.9 25.3 C 51.6 25.8 52.4 26.1 53.4 26.1 C 54.4 26.1 55.2 25.8 55.9 25.3 C 56.6 24.7 57.1 24 57.5 23.1 C 57.8 22.2 58 21.2 58 20 C 58 18.9 57.8 17.9 57.5 17.1 C 57.1 16.2 56.6 15.5 55.9 14.9 C 55.3 14.4 54.4 14.2 53.4 14.2 C 52.4 14.2 51.6 14.4 50.9 14.9 C 50.3 15.4 49.7 16.1 49.4 17 C 49.1 17.8 48.9 18.9 48.9 20 Z M 63.9 27.9 L 63.9 12.2 L 66.3 12.2 L 66.3 14.6 C 66.3 14.6 66.43 14.56 66.4 14.6 C 66.7 13.8 67.2 13.2 68 12.7 C 68.7 12.2 69.6 11.9 70.5 11.9 C 70.7 11.9 70.9 11.9 71.2 12 C 71.5 12 71.7 12 71.8 12 C 71.8 12 71.8 14.4 71.8 14.4 C 71.7 14.4 71.5 14.4 71.2 14.3 C 70.9 14.3 70.6 14.3 70.3 14.3 C 69.6 14.3 68.9 14.4 68.3 14.8 C 67.7 15.1 67.2 15.5 66.9 16.1 C 66.5 16.6 66.3 17.3 66.3 18 C 66.35 17.96 66.3 27.9 66.3 27.9 L 63.9 27.9 Z M 80.6 28.2 C 79.1 28.2 77.9 27.9 76.8 27.2 C 75.8 26.5 74.9 25.6 74.3 24.4 C 73.7 23.2 73.4 21.8 73.4 20.1 C 73.4 18.5 73.7 17.1 74.3 15.8 C 74.9 14.6 75.8 13.7 76.8 13 C 77.9 12.3 79.1 12 80.6 12 C 82 12 83.2 12.3 84.3 13 C 85.3 13.7 86.2 14.6 86.8 15.8 C 87.4 17.1 87.7 18.5 87.7 20.1 C 87.7 21.8 87.4 23.2 86.8 24.4 C 86.2 25.6 85.3 26.5 84.3 27.2 C 83.2 27.9 82 28.2 80.6 28.2 Z M 80.6 26.1 C 81.6 26.1 82.5 25.8 83.2 25.2 C 83.9 24.7 84.4 24 84.8 23.1 C 85.1 22.2 85.3 21.2 85.3 20.1 C 85.3 19.1 85.1 18.1 84.8 17.2 C 84.4 16.3 83.9 15.6 83.2 15 C 82.5 14.4 81.6 14.2 80.6 14.2 C 79.5 14.2 78.6 14.4 77.9 15 C 77.2 15.6 76.7 16.3 76.3 17.2 C 76 18.1 75.8 19.1 75.8 20.1 C 75.8 21.2 76 22.2 76.3 23.1 C 76.7 24 77.2 24.7 77.9 25.2 C 78.6 25.8 79.5 26.1 80.6 26.1 Z M 103.3 12.2 L 97.4 27.9 L 95 27.9 L 89.2 12.2 L 91.8 12.2 L 96.1 24.7 L 96.3 24.7 L 100.6 12.2 L 103.3 12.2 Z M 106.1 27.9 L 106.1 12.2 L 108.6 12.2 L 108.6 27.9 L 106.1 27.9 Z M 107.4 9.6 C 106.9 9.6 106.5 9.4 106.2 9.1 C 105.8 8.8 105.7 8.4 105.7 7.9 C 105.7 7.5 105.8 7.1 106.2 6.8 C 106.5 6.5 106.9 6.3 107.4 6.3 C 107.8 6.3 108.2 6.5 108.6 6.8 C 108.9 7.1 109.1 7.5 109.1 7.9 C 109.1 8.4 108.9 8.8 108.6 9.1 C 108.2 9.4 107.8 9.6 107.4 9.6 Z M 118.7 28.2 C 117.4 28.2 116.2 27.9 115.2 27.2 C 114.2 26.6 113.4 25.6 112.9 24.4 C 112.3 23.2 112 21.8 112 20.1 C 112 18.4 112.3 17 112.9 15.8 C 113.4 14.6 114.2 13.6 115.2 13 C 116.2 12.3 117.4 12 118.7 12 C 119.8 12 120.6 12.2 121.2 12.5 C 121.8 12.8 122.2 13.2 122.5 13.6 C 122.8 14.1 123.1 14.4 123.3 14.7 C 123.27 14.69 123.5 14.7 123.5 14.7 L 123.5 7 L 125.9 7 L 125.9 27.9 L 123.6 27.9 L 123.6 25.5 C 123.6 25.5 123.27 25.49 123.3 25.5 C 123.1 25.8 122.8 26.1 122.5 26.6 C 122.2 27 121.7 27.4 121.1 27.7 C 120.5 28.1 119.7 28.2 118.7 28.2 Z M 119 26.1 C 120 26.1 120.8 25.8 121.5 25.3 C 122.1 24.8 122.6 24.1 123 23.2 C 123.3 22.3 123.5 21.2 123.5 20 C 123.5 18.9 123.3 17.8 123 17 C 122.7 16.1 122.2 15.4 121.5 14.9 C 120.8 14.4 120 14.2 119 14.2 C 118 14.2 117.1 14.4 116.5 14.9 C 115.8 15.5 115.3 16.2 114.9 17.1 C 114.6 17.9 114.4 18.9 114.4 20 C 114.4 21.2 114.6 22.2 115 23.1 C 115.3 24 115.8 24.7 116.5 25.3 C 117.2 25.8 118 26.1 119 26.1 Z M 136.9 28.2 C 135.4 28.2 134.1 27.9 133 27.2 C 131.9 26.5 131 25.6 130.5 24.4 C 129.9 23.2 129.6 21.8 129.6 20.2 C 129.6 18.6 129.9 17.1 130.5 15.9 C 131 14.7 131.9 13.7 132.9 13 C 134 12.3 135.2 12 136.7 12 C 137.5 12 138.3 12.1 139.1 12.4 C 139.9 12.7 140.6 13.1 141.3 13.7 C 141.9 14.3 142.4 15.1 142.8 16.1 C 143.2 17.1 143.4 18.4 143.4 19.8 C 143.4 19.84 143.4 20.9 143.4 20.9 L 131.3 20.9 L 131.3 18.8 C 131.3 18.8 140.95 18.78 140.9 18.8 C 140.9 17.9 140.8 17.1 140.4 16.4 C 140.1 15.7 139.6 15.2 138.9 14.8 C 138.3 14.4 137.5 14.2 136.7 14.2 C 135.7 14.2 134.9 14.4 134.2 14.9 C 133.5 15.3 132.9 16 132.6 16.7 C 132.2 17.5 132 18.3 132 19.1 C 132 19.1 132 20.5 132 20.5 C 132 21.7 132.2 22.7 132.6 23.5 C 133 24.4 133.6 25 134.3 25.4 C 135.1 25.8 135.9 26.1 136.9 26.1 C 137.5 26.1 138.1 26 138.6 25.8 C 139.1 25.6 139.6 25.3 140 25 C 140.3 24.6 140.6 24.2 140.8 23.6 C 140.8 23.6 143.2 24.3 143.2 24.3 C 142.9 25.1 142.5 25.7 141.9 26.3 C 141.3 26.9 140.6 27.4 139.8 27.7 C 138.9 28.1 138 28.2 136.9 28.2 Z M 157.9 15.7 C 157.9 15.7 155.7 16.3 155.7 16.3 C 155.6 16 155.4 15.6 155.1 15.3 C 154.9 14.9 154.5 14.6 154.1 14.4 C 153.6 14.2 153 14.1 152.3 14.1 C 151.4 14.1 150.6 14.3 149.9 14.7 C 149.3 15.2 149 15.7 149 16.4 C 149 17 149.2 17.5 149.6 17.8 C 150.1 18.2 150.7 18.5 151.7 18.7 C 151.7 18.7 154 19.3 154 19.3 C 155.4 19.6 156.5 20.1 157.1 20.8 C 157.8 21.5 158.2 22.4 158.2 23.5 C 158.2 24.4 157.9 25.2 157.4 25.9 C 156.9 26.6 156.2 27.2 155.3 27.6 C 154.3 28 153.3 28.2 152 28.2 C 150.4 28.2 149.1 27.9 148.1 27.2 C 147 26.5 146.3 25.5 146.1 24.1 C 146.1 24.1 148.4 23.6 148.4 23.6 C 148.6 24.4 149 25 149.6 25.5 C 150.2 25.9 151 26.1 152 26.1 C 153.1 26.1 154 25.9 154.7 25.4 C 155.4 24.9 155.7 24.3 155.7 23.6 C 155.7 23.1 155.5 22.6 155.1 22.3 C 154.7 21.9 154.1 21.6 153.4 21.4 C 153.4 21.4 150.7 20.8 150.7 20.8 C 149.3 20.5 148.2 20 147.6 19.2 C 146.9 18.5 146.6 17.6 146.6 16.5 C 146.6 15.6 146.8 14.9 147.3 14.2 C 147.8 13.5 148.5 13 149.4 12.6 C 150.2 12.2 151.2 12 152.3 12 C 153.9 12 155.1 12.3 156 13 C 156.9 13.7 157.5 14.6 157.9 15.7 Z " stroke="none" fill="#ffffff"/>  </g></svg>