<?xml version="1.0" standalone="no"?><!DOCTYPE svg PUBLIC "-//W3C//DTD SVG 1.1//EN" "http://www.w3.org/Graphics/SVG/1.1/DTD/svg11.dtd"><svg xmlns="http://www.w3.org/2000/svg" version="1.1" width="225px" height="143.6px" viewBox="0 -10 225 143.6" style="top:-10px">  <desc>Promise vs. functionality ￼ Immature AI delivers underwhelming results. More about this ￼</desc>  <defs/>  <g id="Polygon115053">    <path d="M 0.9 109.3 L 3.8 109.3 L 6.8 116.6 L 6.9 116.6 L 9.9 109.3 L 12.8 109.3 L 12.8 120.2 L 10.5 120.2 L 10.5 113.1 L 10.4 113.1 L 7.6 120.1 L 6.1 120.1 L 3.3 113.1 L 3.2 113.1 L 3.2 120.2 L 0.9 120.2 L 0.9 109.3 Z M 18.4 120.3 C 17.5 120.3 16.8 120.2 16.2 119.8 C 15.6 119.5 15.1 119 14.8 118.3 C 14.5 117.7 14.3 117 14.3 116.1 C 14.3 115.3 14.5 114.5 14.8 113.9 C 15.1 113.3 15.6 112.8 16.2 112.4 C 16.8 112.1 17.5 111.9 18.4 111.9 C 19.2 111.9 19.9 112.1 20.5 112.4 C 21.1 112.8 21.6 113.3 21.9 113.9 C 22.2 114.5 22.4 115.3 22.4 116.1 C 22.4 117 22.2 117.7 21.9 118.3 C 21.6 119 21.1 119.5 20.5 119.8 C 19.9 120.2 19.2 120.3 18.4 120.3 Z M 18.4 118.6 C 18.7 118.6 19.1 118.5 19.3 118.3 C 19.6 118 19.8 117.8 19.9 117.4 C 20 117 20.1 116.6 20.1 116.1 C 20.1 115.6 20 115.2 19.9 114.8 C 19.8 114.5 19.6 114.2 19.3 113.9 C 19.1 113.7 18.7 113.6 18.4 113.6 C 18 113.6 17.7 113.7 17.4 113.9 C 17.2 114.2 17 114.5 16.8 114.8 C 16.7 115.2 16.6 115.6 16.6 116.1 C 16.6 116.6 16.7 117 16.8 117.4 C 17 117.8 17.2 118 17.4 118.3 C 17.7 118.5 18 118.6 18.4 118.6 Z M 23.9 120.2 L 23.9 112 L 26.1 112 L 26.1 113.4 C 26.1 113.4 26.15 113.43 26.1 113.4 C 26.3 112.9 26.5 112.5 26.9 112.3 C 27.3 112 27.7 111.9 28.1 111.9 C 28.2 111.9 28.3 111.9 28.5 111.9 C 28.6 111.9 28.7 111.9 28.8 112 C 28.8 112 28.8 114 28.8 114 C 28.7 113.9 28.6 113.9 28.4 113.9 C 28.2 113.9 28 113.9 27.9 113.9 C 27.5 113.9 27.2 113.9 27 114.1 C 26.7 114.2 26.5 114.4 26.4 114.7 C 26.2 114.9 26.1 115.2 26.1 115.6 C 26.13 115.55 26.1 120.2 26.1 120.2 L 23.9 120.2 Z M 33.6 120.3 C 32.7 120.3 32 120.2 31.4 119.8 C 30.8 119.5 30.3 119 30 118.4 C 29.7 117.7 29.5 117 29.5 116.1 C 29.5 115.3 29.7 114.5 30 113.9 C 30.3 113.3 30.8 112.8 31.4 112.4 C 32 112.1 32.7 111.9 33.5 111.9 C 34 111.9 34.5 112 35 112.2 C 35.4 112.3 35.8 112.6 36.2 112.9 C 36.5 113.3 36.8 113.7 37 114.2 C 37.2 114.7 37.3 115.4 37.3 116 C 37.31 116.05 37.3 116.7 37.3 116.7 L 30.4 116.7 L 30.4 115.3 C 30.4 115.3 35.17 115.27 35.2 115.3 C 35.2 114.9 35.1 114.6 35 114.4 C 34.8 114.1 34.6 113.9 34.4 113.8 C 34.1 113.7 33.8 113.6 33.5 113.6 C 33.2 113.6 32.8 113.7 32.6 113.8 C 32.3 114 32.1 114.2 32 114.5 C 31.8 114.7 31.7 115 31.7 115.3 C 31.7 115.3 31.7 116.7 31.7 116.7 C 31.7 117.1 31.8 117.4 32 117.7 C 32.1 118 32.3 118.2 32.6 118.4 C 32.9 118.6 33.2 118.6 33.6 118.6 C 33.8 118.6 34.1 118.6 34.3 118.5 C 34.5 118.5 34.7 118.4 34.8 118.2 C 35 118.1 35.1 117.9 35.2 117.7 C 35.2 117.7 37.3 117.8 37.3 117.8 C 37.2 118.3 36.9 118.8 36.6 119.2 C 36.3 119.5 35.9 119.8 35.3 120 C 34.8 120.2 34.2 120.3 33.6 120.3 Z M 44.6 120.3 C 44.1 120.3 43.6 120.2 43.2 120.1 C 42.8 119.9 42.5 119.6 42.2 119.2 C 42 118.9 41.9 118.4 41.9 117.9 C 41.9 117.4 42 117.1 42.1 116.8 C 42.3 116.4 42.5 116.2 42.8 116 C 43.1 115.8 43.4 115.7 43.8 115.6 C 44.2 115.5 44.6 115.4 45 115.4 C 45.4 115.3 45.8 115.3 46.1 115.2 C 46.4 115.2 46.6 115.1 46.7 115 C 46.9 114.9 46.9 114.8 46.9 114.6 C 46.9 114.6 46.9 114.6 46.9 114.6 C 46.9 114.3 46.8 114 46.6 113.8 C 46.4 113.6 46.1 113.6 45.7 113.6 C 45.3 113.6 45 113.6 44.7 113.8 C 44.5 114 44.3 114.2 44.3 114.5 C 44.3 114.5 42.2 114.3 42.2 114.3 C 42.3 113.8 42.5 113.4 42.8 113 C 43.1 112.7 43.5 112.4 44 112.2 C 44.5 112 45.1 111.9 45.7 111.9 C 46.2 111.9 46.6 111.9 47 112.1 C 47.5 112.2 47.8 112.3 48.2 112.5 C 48.5 112.8 48.7 113.1 48.9 113.4 C 49.1 113.8 49.2 114.2 49.2 114.7 C 49.21 114.66 49.2 120.2 49.2 120.2 L 47.1 120.2 L 47.1 119 C 47.1 119 46.99 119.05 47 119 C 46.9 119.3 46.7 119.5 46.5 119.7 C 46.2 119.9 46 120.1 45.7 120.2 C 45.4 120.3 45 120.3 44.6 120.3 Z M 45.2 118.8 C 45.6 118.8 45.9 118.7 46.1 118.6 C 46.4 118.4 46.6 118.3 46.7 118 C 46.9 117.8 47 117.5 47 117.3 C 47 117.3 47 116.4 47 116.4 C 46.9 116.4 46.8 116.5 46.7 116.5 C 46.5 116.6 46.4 116.6 46.3 116.6 C 46.1 116.6 45.9 116.7 45.8 116.7 C 45.6 116.7 45.5 116.7 45.4 116.8 C 45.1 116.8 44.9 116.9 44.7 116.9 C 44.5 117 44.3 117.1 44.2 117.3 C 44.1 117.4 44.1 117.6 44.1 117.8 C 44.1 118.1 44.2 118.4 44.4 118.5 C 44.6 118.7 44.9 118.8 45.2 118.8 Z M 50.9 120.2 L 50.9 109.3 L 53.2 109.3 L 53.2 113.4 C 53.2 113.4 53.25 113.37 53.3 113.4 C 53.3 113.2 53.5 112.9 53.7 112.7 C 53.9 112.5 54.1 112.3 54.4 112.1 C 54.7 112 55.1 111.9 55.6 111.9 C 56.2 111.9 56.7 112 57.2 112.4 C 57.7 112.7 58.1 113.1 58.4 113.8 C 58.7 114.4 58.9 115.2 58.9 116.1 C 58.9 117 58.7 117.8 58.5 118.4 C 58.2 119 57.8 119.5 57.3 119.8 C 56.8 120.2 56.2 120.3 55.6 120.3 C 55.1 120.3 54.8 120.2 54.5 120.1 C 54.1 120 53.9 119.8 53.7 119.5 C 53.5 119.3 53.4 119.1 53.3 118.9 C 53.25 118.87 53.1 118.9 53.1 118.9 L 53.1 120.2 L 50.9 120.2 Z M 53.1 116.1 C 53.1 116.6 53.2 117 53.3 117.4 C 53.5 117.7 53.7 118 53.9 118.2 C 54.2 118.4 54.5 118.5 54.9 118.5 C 55.2 118.5 55.5 118.4 55.8 118.2 C 56 118 56.2 117.7 56.4 117.4 C 56.5 117 56.6 116.6 56.6 116.1 C 56.6 115.6 56.5 115.2 56.4 114.8 C 56.2 114.5 56.1 114.2 55.8 114 C 55.5 113.8 55.2 113.7 54.9 113.7 C 54.5 113.7 54.2 113.8 53.9 114 C 53.7 114.2 53.5 114.5 53.3 114.8 C 53.2 115.2 53.1 115.6 53.1 116.1 Z M 64.1 120.3 C 63.2 120.3 62.5 120.2 61.9 119.8 C 61.3 119.5 60.9 119 60.5 118.3 C 60.2 117.7 60.1 117 60.1 116.1 C 60.1 115.3 60.2 114.5 60.5 113.9 C 60.9 113.3 61.3 112.8 61.9 112.4 C 62.5 112.1 63.2 111.9 64.1 111.9 C 64.9 111.9 65.6 112.1 66.2 112.4 C 66.8 112.8 67.3 113.3 67.6 113.9 C 67.9 114.5 68.1 115.3 68.1 116.1 C 68.1 117 67.9 117.7 67.6 118.3 C 67.3 119 66.8 119.5 66.2 119.8 C 65.6 120.2 64.9 120.3 64.1 120.3 Z M 64.1 118.6 C 64.5 118.6 64.8 118.5 65 118.3 C 65.3 118 65.5 117.8 65.6 117.4 C 65.7 117 65.8 116.6 65.8 116.1 C 65.8 115.6 65.7 115.2 65.6 114.8 C 65.5 114.5 65.3 114.2 65 113.9 C 64.8 113.7 64.5 113.6 64.1 113.6 C 63.7 113.6 63.4 113.7 63.1 113.9 C 62.9 114.2 62.7 114.5 62.6 114.8 C 62.4 115.2 62.4 115.6 62.4 116.1 C 62.4 116.6 62.4 117 62.6 117.4 C 62.7 117.8 62.9 118 63.1 118.3 C 63.4 118.5 63.7 118.6 64.1 118.6 Z M 74.8 116.7 C 74.78 116.7 74.8 112 74.8 112 L 77 112 L 77 120.2 L 74.9 120.2 L 74.9 118.7 C 74.9 118.7 74.79 118.7 74.8 118.7 C 74.6 119.2 74.3 119.6 73.9 119.9 C 73.4 120.1 72.9 120.3 72.3 120.3 C 71.8 120.3 71.3 120.2 70.9 119.9 C 70.4 119.7 70.1 119.3 69.9 118.9 C 69.7 118.4 69.5 117.8 69.5 117.2 C 69.53 117.21 69.5 112 69.5 112 L 71.8 112 C 71.8 112 71.8 116.8 71.8 116.8 C 71.8 117.3 71.9 117.7 72.2 117.9 C 72.4 118.2 72.8 118.4 73.2 118.4 C 73.5 118.4 73.7 118.3 74 118.2 C 74.2 118.1 74.4 117.9 74.6 117.6 C 74.7 117.4 74.8 117.1 74.8 116.7 Z M 83.2 112 L 83.2 113.7 L 78.2 113.7 L 78.2 112 L 83.2 112 Z M 79.3 110 L 81.6 110 C 81.6 110 81.62 117.67 81.6 117.7 C 81.6 117.9 81.6 118 81.7 118.2 C 81.8 118.3 81.9 118.4 82 118.4 C 82.1 118.4 82.2 118.5 82.4 118.5 C 82.5 118.5 82.6 118.5 82.7 118.4 C 82.8 118.4 82.9 118.4 82.9 118.4 C 82.9 118.4 83.3 120.1 83.3 120.1 C 83.2 120.1 83 120.2 82.8 120.2 C 82.6 120.3 82.4 120.3 82.1 120.3 C 81.5 120.3 81 120.2 80.6 120.1 C 80.2 119.9 79.9 119.6 79.7 119.3 C 79.5 118.9 79.3 118.5 79.3 118 C 79.35 117.97 79.3 110 79.3 110 Z M 92.5 112 L 92.5 113.7 L 87.5 113.7 L 87.5 112 L 92.5 112 Z M 88.7 110 L 90.9 110 C 90.9 110 90.92 117.67 90.9 117.7 C 90.9 117.9 91 118 91 118.2 C 91.1 118.3 91.2 118.4 91.3 118.4 C 91.4 118.4 91.5 118.5 91.7 118.5 C 91.8 118.5 91.9 118.5 92 118.4 C 92.1 118.4 92.2 118.4 92.3 118.4 C 92.3 118.4 92.6 120.1 92.6 120.1 C 92.5 120.1 92.3 120.2 92.1 120.2 C 91.9 120.3 91.7 120.3 91.4 120.3 C 90.8 120.3 90.4 120.2 89.9 120.1 C 89.5 119.9 89.2 119.6 89 119.3 C 88.8 118.9 88.6 118.5 88.7 118 C 88.65 117.97 88.7 110 88.7 110 Z M 96.1 115.5 C 96.08 115.45 96.1 120.2 96.1 120.2 L 93.8 120.2 L 93.8 109.3 L 96 109.3 L 96 113.4 C 96 113.4 96.11 113.44 96.1 113.4 C 96.3 113 96.6 112.6 97 112.3 C 97.4 112 97.9 111.9 98.6 111.9 C 99.1 111.9 99.6 112 100 112.3 C 100.5 112.5 100.8 112.9 101 113.3 C 101.3 113.8 101.4 114.3 101.4 115 C 101.39 114.97 101.4 120.2 101.4 120.2 L 99.1 120.2 C 99.1 120.2 99.12 115.38 99.1 115.4 C 99.1 114.9 99 114.5 98.7 114.2 C 98.5 113.9 98.1 113.8 97.7 113.8 C 97.4 113.8 97.1 113.8 96.8 114 C 96.6 114.1 96.4 114.3 96.3 114.5 C 96.2 114.8 96.1 115.1 96.1 115.5 Z M 103.1 120.2 L 103.1 112 L 105.4 112 L 105.4 120.2 L 103.1 120.2 Z M 104.3 110.9 C 103.9 110.9 103.7 110.8 103.4 110.6 C 103.2 110.4 103.1 110.1 103.1 109.8 C 103.1 109.5 103.2 109.2 103.4 109 C 103.7 108.8 103.9 108.6 104.3 108.6 C 104.6 108.6 104.9 108.8 105.1 109 C 105.4 109.2 105.5 109.5 105.5 109.8 C 105.5 110.1 105.4 110.4 105.1 110.6 C 104.9 110.8 104.6 110.9 104.3 110.9 Z M 113.9 114.3 C 113.9 114.3 111.9 114.5 111.9 114.5 C 111.8 114.3 111.8 114.1 111.6 114 C 111.5 113.8 111.4 113.7 111.2 113.6 C 111 113.5 110.8 113.5 110.5 113.5 C 110.1 113.5 109.9 113.6 109.6 113.7 C 109.4 113.9 109.2 114.1 109.2 114.3 C 109.2 114.5 109.3 114.7 109.5 114.8 C 109.6 114.9 109.9 115.1 110.3 115.1 C 110.3 115.1 111.8 115.4 111.8 115.4 C 112.6 115.6 113.2 115.9 113.5 116.2 C 113.9 116.6 114.1 117.1 114.1 117.6 C 114.1 118.2 114 118.7 113.7 119.1 C 113.3 119.5 112.9 119.8 112.4 120 C 111.8 120.2 111.2 120.3 110.5 120.3 C 109.4 120.3 108.5 120.1 107.9 119.7 C 107.3 119.2 106.9 118.6 106.8 117.8 C 106.8 117.8 109 117.7 109 117.7 C 109.1 118 109.2 118.3 109.5 118.4 C 109.8 118.6 110.1 118.7 110.5 118.7 C 110.9 118.7 111.2 118.6 111.5 118.5 C 111.7 118.3 111.8 118.1 111.8 117.9 C 111.8 117.7 111.7 117.5 111.6 117.4 C 111.4 117.2 111.1 117.1 110.8 117.1 C 110.8 117.1 109.4 116.8 109.4 116.8 C 108.6 116.6 108 116.3 107.6 115.9 C 107.2 115.6 107 115.1 107 114.4 C 107 113.9 107.1 113.5 107.4 113.1 C 107.7 112.7 108.1 112.4 108.6 112.2 C 109.2 112 109.8 111.9 110.5 111.9 C 111.5 111.9 112.3 112.1 112.9 112.5 C 113.5 113 113.8 113.6 113.9 114.3 Z " stroke="none" fill="#10283d"/>  </g>  <g id="Polygon115052">    <path d="M 6.3 89.2 C 6.31 89.24 6.3 84.4 6.3 84.4 L 7.6 84.4 L 7.6 92.6 L 6.3 92.6 L 6.3 91.2 C 6.3 91.2 6.22 91.2 6.2 91.2 C 6 91.6 5.7 92 5.3 92.3 C 4.9 92.5 4.4 92.7 3.8 92.7 C 3.3 92.7 2.8 92.6 2.4 92.4 C 2 92.1 1.7 91.8 1.5 91.3 C 1.3 90.9 1.2 90.3 1.2 89.6 C 1.15 89.6 1.2 84.4 1.2 84.4 L 2.4 84.4 C 2.4 84.4 2.41 89.51 2.4 89.5 C 2.4 90.1 2.6 90.6 2.9 90.9 C 3.2 91.3 3.7 91.5 4.2 91.5 C 4.5 91.5 4.8 91.4 5.2 91.2 C 5.5 91.1 5.8 90.8 6 90.5 C 6.2 90.2 6.3 89.7 6.3 89.2 Z M 11.1 87.7 C 11.13 87.66 11.1 92.6 11.1 92.6 L 9.9 92.6 L 9.9 84.4 L 11.1 84.4 L 11.1 85.7 C 11.1 85.7 11.19 85.68 11.2 85.7 C 11.4 85.3 11.7 84.9 12.1 84.7 C 12.5 84.4 13 84.3 13.6 84.3 C 14.1 84.3 14.6 84.4 15 84.6 C 15.4 84.9 15.8 85.2 16 85.7 C 16.2 86.1 16.3 86.7 16.3 87.4 C 16.35 87.38 16.3 92.6 16.3 92.6 L 15.1 92.6 C 15.1 92.6 15.09 87.47 15.1 87.5 C 15.1 86.8 14.9 86.3 14.6 86 C 14.3 85.6 13.8 85.4 13.2 85.4 C 12.8 85.4 12.5 85.5 12.1 85.7 C 11.8 85.9 11.6 86.1 11.4 86.4 C 11.2 86.8 11.1 87.2 11.1 87.7 Z M 21.7 92.8 C 21 92.8 20.4 92.6 19.9 92.2 C 19.4 91.9 19 91.4 18.7 90.8 C 18.4 90.1 18.2 89.4 18.2 88.5 C 18.2 87.7 18.4 86.9 18.7 86.3 C 19 85.6 19.4 85.2 19.9 84.8 C 20.4 84.5 21 84.3 21.7 84.3 C 22.3 84.3 22.7 84.4 23 84.6 C 23.3 84.7 23.5 84.9 23.7 85.2 C 23.9 85.4 24 85.6 24.1 85.7 C 24.09 85.7 24.2 85.7 24.2 85.7 L 24.2 81.7 L 25.5 81.7 L 25.5 92.6 L 24.2 92.6 L 24.2 91.3 C 24.2 91.3 24.09 91.32 24.1 91.3 C 24 91.5 23.9 91.7 23.7 91.9 C 23.5 92.1 23.3 92.3 23 92.5 C 22.7 92.7 22.2 92.8 21.7 92.8 Z M 21.9 91.6 C 22.4 91.6 22.8 91.5 23.2 91.2 C 23.5 91 23.8 90.6 23.9 90.1 C 24.1 89.7 24.2 89.1 24.2 88.5 C 24.2 87.9 24.1 87.3 24 86.9 C 23.8 86.4 23.5 86.1 23.2 85.8 C 22.8 85.6 22.4 85.4 21.9 85.4 C 21.3 85.4 20.9 85.6 20.5 85.8 C 20.2 86.1 19.9 86.5 19.8 86.9 C 19.6 87.4 19.5 87.9 19.5 88.5 C 19.5 89.1 19.6 89.6 19.8 90.1 C 19.9 90.5 20.2 90.9 20.6 91.2 C 20.9 91.5 21.4 91.6 21.9 91.6 Z M 31.3 92.8 C 30.5 92.8 29.8 92.6 29.2 92.2 C 28.7 91.9 28.2 91.4 27.9 90.8 C 27.6 90.1 27.5 89.4 27.5 88.6 C 27.5 87.7 27.6 87 27.9 86.3 C 28.2 85.7 28.7 85.2 29.2 84.8 C 29.8 84.5 30.4 84.3 31.1 84.3 C 31.6 84.3 32 84.4 32.4 84.5 C 32.8 84.6 33.2 84.9 33.5 85.2 C 33.9 85.5 34.1 85.9 34.4 86.5 C 34.6 87 34.7 87.6 34.7 88.4 C 34.66 88.38 34.7 88.9 34.7 88.9 L 28.3 88.9 L 28.3 87.8 C 28.3 87.8 33.38 87.83 33.4 87.8 C 33.4 87.4 33.3 87 33.1 86.6 C 32.9 86.2 32.7 85.9 32.3 85.7 C 32 85.5 31.6 85.4 31.1 85.4 C 30.6 85.4 30.2 85.5 29.8 85.8 C 29.5 86 29.2 86.4 29 86.8 C 28.8 87.1 28.7 87.6 28.7 88 C 28.7 88 28.7 88.7 28.7 88.7 C 28.7 89.4 28.8 89.9 29 90.3 C 29.2 90.7 29.5 91.1 29.9 91.3 C 30.3 91.5 30.8 91.6 31.3 91.6 C 31.6 91.6 31.9 91.6 32.2 91.5 C 32.4 91.4 32.7 91.2 32.9 91.1 C 33.1 90.9 33.2 90.6 33.3 90.3 C 33.3 90.3 34.5 90.7 34.5 90.7 C 34.4 91.1 34.2 91.5 33.9 91.8 C 33.6 92.1 33.2 92.3 32.8 92.5 C 32.3 92.7 31.8 92.8 31.3 92.8 Z M 36.6 92.6 L 36.6 84.4 L 37.8 84.4 L 37.8 85.6 C 37.8 85.6 37.87 85.64 37.9 85.6 C 38 85.2 38.3 84.9 38.7 84.7 C 39.1 84.4 39.5 84.3 40 84.3 C 40.1 84.3 40.2 84.3 40.4 84.3 C 40.5 84.3 40.6 84.3 40.7 84.3 C 40.7 84.3 40.7 85.6 40.7 85.6 C 40.6 85.6 40.5 85.5 40.4 85.5 C 40.2 85.5 40.1 85.5 39.9 85.5 C 39.5 85.5 39.1 85.6 38.8 85.7 C 38.5 85.9 38.3 86.1 38.1 86.4 C 37.9 86.7 37.8 87 37.8 87.4 C 37.83 87.4 37.8 92.6 37.8 92.6 L 36.6 92.6 Z M 44.3 92.6 L 41.8 84.4 L 43.2 84.4 L 44.9 90.7 L 45 90.7 L 46.8 84.4 L 48.1 84.4 L 49.8 90.6 L 49.9 90.6 L 51.7 84.4 L 53 84.4 L 50.5 92.6 L 49.3 92.6 L 47.5 86.3 L 47.4 86.3 L 45.6 92.6 L 44.3 92.6 Z M 55.9 87.7 C 55.85 87.66 55.9 92.6 55.9 92.6 L 54.6 92.6 L 54.6 81.7 L 55.9 81.7 L 55.9 85.7 C 55.9 85.7 55.96 85.68 56 85.7 C 56.1 85.3 56.4 84.9 56.8 84.7 C 57.2 84.4 57.7 84.3 58.4 84.3 C 58.9 84.3 59.4 84.4 59.8 84.6 C 60.2 84.8 60.6 85.2 60.8 85.6 C 61 86.1 61.2 86.7 61.2 87.4 C 61.16 87.38 61.2 92.6 61.2 92.6 L 59.9 92.6 C 59.9 92.6 59.9 87.47 59.9 87.5 C 59.9 86.8 59.7 86.3 59.4 86 C 59.1 85.6 58.6 85.4 58 85.4 C 57.6 85.4 57.2 85.5 56.9 85.7 C 56.6 85.9 56.3 86.1 56.1 86.4 C 55.9 86.8 55.9 87.2 55.9 87.7 Z M 66.9 92.8 C 66.1 92.8 65.4 92.6 64.8 92.2 C 64.3 91.9 63.8 91.4 63.5 90.8 C 63.2 90.1 63 89.4 63 88.6 C 63 87.7 63.2 87 63.5 86.3 C 63.8 85.7 64.2 85.2 64.8 84.8 C 65.3 84.5 66 84.3 66.7 84.3 C 67.2 84.3 67.6 84.4 68 84.5 C 68.4 84.6 68.8 84.9 69.1 85.2 C 69.5 85.5 69.7 85.9 69.9 86.5 C 70.1 87 70.2 87.6 70.2 88.4 C 70.25 88.38 70.2 88.9 70.2 88.9 L 63.9 88.9 L 63.9 87.8 C 63.9 87.8 68.97 87.83 69 87.8 C 69 87.4 68.9 87 68.7 86.6 C 68.5 86.2 68.3 85.9 67.9 85.7 C 67.6 85.5 67.2 85.4 66.7 85.4 C 66.2 85.4 65.8 85.5 65.4 85.8 C 65.1 86 64.8 86.4 64.6 86.8 C 64.4 87.1 64.3 87.6 64.3 88 C 64.3 88 64.3 88.7 64.3 88.7 C 64.3 89.4 64.4 89.9 64.6 90.3 C 64.8 90.7 65.1 91.1 65.5 91.3 C 65.9 91.5 66.4 91.6 66.9 91.6 C 67.2 91.6 67.5 91.6 67.8 91.5 C 68 91.4 68.3 91.2 68.5 91.1 C 68.6 90.9 68.8 90.6 68.9 90.3 C 68.9 90.3 70.1 90.7 70.1 90.7 C 70 91.1 69.8 91.5 69.5 91.8 C 69.2 92.1 68.8 92.3 68.4 92.5 C 67.9 92.7 67.4 92.8 66.9 92.8 Z M 73.4 81.7 L 73.4 92.6 L 72.2 92.6 L 72.2 81.7 L 73.4 81.7 Z M 75.7 92.6 L 75.7 84.4 L 77 84.4 L 77 85.7 C 77 85.7 77.06 85.68 77.1 85.7 C 77.2 85.2 77.5 84.9 77.9 84.7 C 78.3 84.4 78.7 84.3 79.3 84.3 C 79.8 84.3 80.2 84.4 80.6 84.7 C 81 84.9 81.2 85.2 81.5 85.7 C 81.5 85.7 81.5 85.7 81.5 85.7 C 81.7 85.3 82.1 84.9 82.5 84.7 C 82.9 84.4 83.4 84.3 84 84.3 C 84.7 84.3 85.3 84.5 85.8 85 C 86.2 85.4 86.5 86.1 86.5 87.1 C 86.48 87.11 86.5 92.6 86.5 92.6 L 85.2 92.6 C 85.2 92.6 85.22 87.11 85.2 87.1 C 85.2 86.5 85.1 86.1 84.7 85.8 C 84.4 85.6 84 85.4 83.6 85.4 C 83 85.4 82.5 85.6 82.2 85.9 C 81.9 86.3 81.8 86.7 81.8 87.3 C 81.75 87.26 81.8 92.6 81.8 92.6 L 80.5 92.6 C 80.5 92.6 80.47 86.98 80.5 87 C 80.5 86.5 80.3 86.1 80 85.9 C 79.7 85.6 79.3 85.4 78.9 85.4 C 78.5 85.4 78.2 85.5 77.9 85.7 C 77.7 85.9 77.4 86.1 77.3 86.4 C 77.1 86.7 77 87.1 77 87.5 C 77 87.47 77 92.6 77 92.6 L 75.7 92.6 Z M 88.7 92.6 L 88.7 84.4 L 90 84.4 L 90 92.6 L 88.7 92.6 Z M 89.4 83 C 89.1 83 88.9 83 88.7 82.8 C 88.6 82.6 88.5 82.4 88.5 82.2 C 88.5 81.9 88.6 81.7 88.7 81.6 C 88.9 81.4 89.1 81.3 89.4 81.3 C 89.6 81.3 89.8 81.4 90 81.6 C 90.2 81.7 90.3 81.9 90.3 82.2 C 90.3 82.4 90.2 82.6 90 82.8 C 89.8 83 89.6 83 89.4 83 Z M 93.6 87.7 C 93.56 87.66 93.6 92.6 93.6 92.6 L 92.3 92.6 L 92.3 84.4 L 93.5 84.4 L 93.5 85.7 C 93.5 85.7 93.63 85.68 93.6 85.7 C 93.8 85.3 94.1 84.9 94.5 84.7 C 94.9 84.4 95.4 84.3 96 84.3 C 96.6 84.3 97.1 84.4 97.5 84.6 C 97.9 84.9 98.2 85.2 98.4 85.7 C 98.7 86.1 98.8 86.7 98.8 87.4 C 98.78 87.38 98.8 92.6 98.8 92.6 L 97.5 92.6 C 97.5 92.6 97.53 87.47 97.5 87.5 C 97.5 86.8 97.4 86.3 97 86 C 96.7 85.6 96.2 85.4 95.7 85.4 C 95.3 85.4 94.9 85.5 94.6 85.7 C 94.3 85.9 94 86.1 93.8 86.4 C 93.7 86.8 93.6 87.2 93.6 87.7 Z M 104.3 95.8 C 103.7 95.8 103.2 95.7 102.8 95.6 C 102.3 95.4 102 95.2 101.7 95 C 101.4 94.7 101.2 94.5 101 94.2 C 101 94.2 102 93.5 102 93.5 C 102.1 93.6 102.2 93.8 102.4 94 C 102.6 94.2 102.8 94.4 103.1 94.5 C 103.4 94.6 103.8 94.7 104.3 94.7 C 105 94.7 105.5 94.6 106 94.2 C 106.4 93.9 106.6 93.4 106.6 92.7 C 106.61 92.73 106.6 91.1 106.6 91.1 C 106.6 91.1 106.51 91.07 106.5 91.1 C 106.4 91.2 106.3 91.4 106.1 91.6 C 105.9 91.8 105.7 92 105.4 92.2 C 105.1 92.4 104.7 92.5 104.1 92.5 C 103.5 92.5 102.9 92.3 102.3 92 C 101.8 91.7 101.4 91.2 101.1 90.6 C 100.8 90 100.6 89.3 100.6 88.4 C 100.6 87.6 100.8 86.9 101.1 86.3 C 101.4 85.6 101.8 85.2 102.3 84.8 C 102.8 84.5 103.5 84.3 104.1 84.3 C 104.7 84.3 105.1 84.4 105.4 84.6 C 105.7 84.7 106 84.9 106.1 85.2 C 106.3 85.4 106.4 85.6 106.5 85.7 C 106.53 85.7 106.7 85.7 106.7 85.7 L 106.7 84.4 L 107.9 84.4 C 107.9 84.4 107.87 92.82 107.9 92.8 C 107.9 93.5 107.7 94.1 107.4 94.5 C 107.1 95 106.6 95.3 106.1 95.5 C 105.6 95.7 105 95.8 104.3 95.8 Z M 104.3 91.3 C 104.8 91.3 105.2 91.2 105.6 91 C 105.9 90.7 106.2 90.4 106.4 90 C 106.5 89.5 106.6 89 106.6 88.4 C 106.6 87.8 106.5 87.3 106.4 86.9 C 106.2 86.4 105.9 86.1 105.6 85.8 C 105.2 85.6 104.8 85.4 104.3 85.4 C 103.8 85.4 103.3 85.6 103 85.8 C 102.6 86.1 102.3 86.5 102.2 86.9 C 102 87.4 101.9 87.9 101.9 88.4 C 101.9 89 102 89.5 102.2 89.9 C 102.4 90.4 102.6 90.7 103 91 C 103.3 91.2 103.8 91.3 104.3 91.3 Z M 114.4 92.6 L 114.4 84.4 L 115.6 84.4 L 115.6 85.6 C 115.6 85.6 115.69 85.64 115.7 85.6 C 115.8 85.2 116.1 84.9 116.5 84.7 C 116.9 84.4 117.3 84.3 117.8 84.3 C 117.9 84.3 118 84.3 118.2 84.3 C 118.3 84.3 118.4 84.3 118.5 84.3 C 118.5 84.3 118.5 85.6 118.5 85.6 C 118.4 85.6 118.3 85.5 118.2 85.5 C 118 85.5 117.9 85.5 117.7 85.5 C 117.3 85.5 117 85.6 116.6 85.7 C 116.3 85.9 116.1 86.1 115.9 86.4 C 115.7 86.7 115.6 87 115.6 87.4 C 115.65 87.4 115.6 92.6 115.6 92.6 L 114.4 92.6 Z M 123.2 92.8 C 122.4 92.8 121.8 92.6 121.2 92.2 C 120.6 91.9 120.2 91.4 119.9 90.8 C 119.6 90.1 119.4 89.4 119.4 88.6 C 119.4 87.7 119.6 87 119.9 86.3 C 120.2 85.7 120.6 85.2 121.2 84.8 C 121.7 84.5 122.4 84.3 123.1 84.3 C 123.5 84.3 123.9 84.4 124.4 84.5 C 124.8 84.6 125.2 84.9 125.5 85.2 C 125.8 85.5 126.1 85.9 126.3 86.5 C 126.5 87 126.6 87.6 126.6 88.4 C 126.62 88.38 126.6 88.9 126.6 88.9 L 120.3 88.9 L 120.3 87.8 C 120.3 87.8 125.34 87.83 125.3 87.8 C 125.3 87.4 125.2 87 125.1 86.6 C 124.9 86.2 124.6 85.9 124.3 85.7 C 124 85.5 123.6 85.4 123.1 85.4 C 122.6 85.4 122.2 85.5 121.8 85.8 C 121.4 86 121.2 86.4 121 86.8 C 120.8 87.1 120.7 87.6 120.7 88 C 120.7 88 120.7 88.7 120.7 88.7 C 120.7 89.4 120.8 89.9 121 90.3 C 121.2 90.7 121.5 91.1 121.9 91.3 C 122.3 91.5 122.7 91.6 123.2 91.6 C 123.6 91.6 123.9 91.6 124.1 91.5 C 124.4 91.4 124.6 91.2 124.8 91.1 C 125 90.9 125.2 90.6 125.3 90.3 C 125.3 90.3 126.5 90.7 126.5 90.7 C 126.4 91.1 126.1 91.5 125.8 91.8 C 125.5 92.1 125.2 92.3 124.7 92.5 C 124.3 92.7 123.8 92.8 123.2 92.8 Z M 134.2 86.2 C 134.2 86.2 133.1 86.6 133.1 86.6 C 133 86.4 132.9 86.2 132.8 86 C 132.7 85.8 132.5 85.7 132.2 85.6 C 132 85.4 131.7 85.4 131.3 85.4 C 130.8 85.4 130.4 85.5 130.1 85.7 C 129.8 86 129.6 86.2 129.6 86.6 C 129.6 86.9 129.7 87.2 129.9 87.3 C 130.2 87.5 130.5 87.7 131 87.8 C 131 87.8 132.2 88.1 132.2 88.1 C 132.9 88.3 133.5 88.5 133.9 88.9 C 134.2 89.3 134.4 89.7 134.4 90.3 C 134.4 90.8 134.3 91.2 134 91.6 C 133.7 91.9 133.3 92.2 132.9 92.4 C 132.4 92.6 131.8 92.8 131.2 92.8 C 130.4 92.8 129.7 92.6 129.1 92.2 C 128.6 91.8 128.2 91.3 128.1 90.6 C 128.1 90.6 129.3 90.3 129.3 90.3 C 129.4 90.8 129.6 91.1 129.9 91.3 C 130.2 91.5 130.7 91.6 131.2 91.6 C 131.8 91.6 132.2 91.5 132.6 91.3 C 132.9 91 133.1 90.7 133.1 90.4 C 133.1 90.1 133 89.8 132.8 89.6 C 132.6 89.5 132.3 89.3 131.9 89.2 C 131.9 89.2 130.5 88.9 130.5 88.9 C 129.8 88.7 129.2 88.4 128.9 88.1 C 128.5 87.7 128.3 87.2 128.3 86.7 C 128.3 86.2 128.5 85.8 128.7 85.4 C 129 85.1 129.3 84.8 129.8 84.6 C 130.3 84.4 130.8 84.3 131.3 84.3 C 132.2 84.3 132.8 84.5 133.3 84.8 C 133.7 85.2 134 85.7 134.2 86.2 Z M 141.3 89.2 C 141.35 89.24 141.3 84.4 141.3 84.4 L 142.6 84.4 L 142.6 92.6 L 141.3 92.6 L 141.3 91.2 C 141.3 91.2 141.26 91.2 141.3 91.2 C 141.1 91.6 140.8 92 140.4 92.3 C 140 92.5 139.5 92.7 138.8 92.7 C 138.3 92.7 137.9 92.6 137.5 92.4 C 137.1 92.1 136.8 91.8 136.5 91.3 C 136.3 90.9 136.2 90.3 136.2 89.6 C 136.19 89.6 136.2 84.4 136.2 84.4 L 137.4 84.4 C 137.4 84.4 137.45 89.51 137.4 89.5 C 137.4 90.1 137.6 90.6 138 90.9 C 138.3 91.3 138.7 91.5 139.2 91.5 C 139.6 91.5 139.9 91.4 140.2 91.2 C 140.5 91.1 140.8 90.8 141 90.5 C 141.2 90.2 141.3 89.7 141.3 89.2 Z M 146.2 81.7 L 146.2 92.6 L 144.9 92.6 L 144.9 81.7 L 146.2 81.7 Z M 152 84.4 L 152 85.5 L 147.7 85.5 L 147.7 84.4 L 152 84.4 Z M 149 82.4 L 150.2 82.4 C 150.2 82.4 150.22 90.24 150.2 90.2 C 150.2 90.6 150.3 90.9 150.4 91 C 150.5 91.2 150.6 91.3 150.8 91.4 C 150.9 91.4 151.1 91.5 151.3 91.5 C 151.4 91.5 151.6 91.5 151.6 91.4 C 151.7 91.4 151.8 91.4 151.9 91.4 C 151.9 91.4 152.1 92.5 152.1 92.5 C 152 92.6 151.9 92.6 151.8 92.6 C 151.6 92.7 151.4 92.7 151.2 92.7 C 150.8 92.7 150.5 92.6 150.1 92.5 C 149.8 92.3 149.5 92.1 149.3 91.8 C 149.1 91.4 149 91.1 149 90.6 C 148.96 90.58 149 82.4 149 82.4 Z M 159.5 86.2 C 159.5 86.2 158.4 86.6 158.4 86.6 C 158.3 86.4 158.2 86.2 158.1 86 C 157.9 85.8 157.7 85.7 157.5 85.6 C 157.3 85.4 157 85.4 156.6 85.4 C 156.1 85.4 155.7 85.5 155.4 85.7 C 155 86 154.9 86.2 154.9 86.6 C 154.9 86.9 155 87.2 155.2 87.3 C 155.4 87.5 155.8 87.7 156.3 87.8 C 156.3 87.8 157.5 88.1 157.5 88.1 C 158.2 88.3 158.8 88.5 159.1 88.9 C 159.5 89.3 159.7 89.7 159.7 90.3 C 159.7 90.8 159.5 91.2 159.2 91.6 C 159 91.9 158.6 92.2 158.1 92.4 C 157.6 92.6 157.1 92.8 156.5 92.8 C 155.6 92.8 154.9 92.6 154.4 92.2 C 153.8 91.8 153.5 91.3 153.3 90.6 C 153.3 90.6 154.5 90.3 154.5 90.3 C 154.7 90.8 154.9 91.1 155.2 91.3 C 155.5 91.5 155.9 91.6 156.4 91.6 C 157 91.6 157.5 91.5 157.8 91.3 C 158.2 91 158.4 90.7 158.4 90.4 C 158.4 90.1 158.3 89.8 158.1 89.6 C 157.9 89.5 157.5 89.3 157.1 89.2 C 157.1 89.2 155.8 88.9 155.8 88.9 C 155 88.7 154.5 88.4 154.1 88.1 C 153.8 87.7 153.6 87.2 153.6 86.7 C 153.6 86.2 153.7 85.8 154 85.4 C 154.3 85.1 154.6 84.8 155.1 84.6 C 155.5 84.4 156 84.3 156.6 84.3 C 157.4 84.3 158.1 84.5 158.5 84.8 C 159 85.2 159.3 85.7 159.5 86.2 Z M 162.4 92.7 C 162.2 92.7 161.9 92.6 161.7 92.4 C 161.6 92.2 161.5 92 161.5 91.7 C 161.5 91.4 161.6 91.2 161.7 91 C 161.9 90.8 162.2 90.7 162.4 90.7 C 162.7 90.7 162.9 90.8 163.1 91 C 163.3 91.2 163.4 91.4 163.4 91.7 C 163.4 91.9 163.3 92 163.3 92.2 C 163.2 92.3 163 92.4 162.9 92.5 C 162.8 92.6 162.6 92.7 162.4 92.7 Z " stroke="none" fill="#000"/>  </g>  <g id="Polygon115051">    <path d="M 2.6 62.5 L 2.6 73.4 L 1.3 73.4 L 1.3 62.5 L 2.6 62.5 Z M 5.1 73.4 L 5.1 65.2 L 6.4 65.2 L 6.4 66.5 C 6.4 66.5 6.47 66.48 6.5 66.5 C 6.6 66 6.9 65.7 7.3 65.5 C 7.7 65.2 8.1 65.1 8.7 65.1 C 9.2 65.1 9.7 65.2 10 65.5 C 10.4 65.7 10.7 66 10.9 66.5 C 10.9 66.5 10.9 66.5 10.9 66.5 C 11.2 66.1 11.5 65.7 11.9 65.5 C 12.3 65.2 12.8 65.1 13.4 65.1 C 14.1 65.1 14.7 65.3 15.2 65.8 C 15.7 66.2 15.9 66.9 15.9 67.9 C 15.89 67.91 15.9 73.4 15.9 73.4 L 14.6 73.4 C 14.6 73.4 14.63 67.91 14.6 67.9 C 14.6 67.3 14.5 66.9 14.1 66.6 C 13.8 66.4 13.4 66.2 13 66.2 C 12.4 66.2 11.9 66.4 11.6 66.7 C 11.3 67.1 11.2 67.5 11.2 68.1 C 11.16 68.06 11.2 73.4 11.2 73.4 L 9.9 73.4 C 9.9 73.4 9.88 67.78 9.9 67.8 C 9.9 67.3 9.7 66.9 9.4 66.7 C 9.1 66.4 8.7 66.2 8.3 66.2 C 7.9 66.2 7.6 66.3 7.3 66.5 C 7.1 66.7 6.8 66.9 6.7 67.2 C 6.5 67.5 6.4 67.9 6.4 68.3 C 6.41 68.27 6.4 73.4 6.4 73.4 L 5.1 73.4 Z M 18.2 73.4 L 18.2 65.2 L 19.4 65.2 L 19.4 66.5 C 19.4 66.5 19.5 66.48 19.5 66.5 C 19.7 66 19.9 65.7 20.3 65.5 C 20.7 65.2 21.2 65.1 21.7 65.1 C 22.2 65.1 22.7 65.2 23 65.5 C 23.4 65.7 23.7 66 23.9 66.5 C 23.9 66.5 24 66.5 24 66.5 C 24.2 66.1 24.5 65.7 24.9 65.5 C 25.3 65.2 25.8 65.1 26.4 65.1 C 27.2 65.1 27.8 65.3 28.2 65.8 C 28.7 66.2 28.9 66.9 28.9 67.9 C 28.91 67.91 28.9 73.4 28.9 73.4 L 27.7 73.4 C 27.7 73.4 27.66 67.91 27.7 67.9 C 27.7 67.3 27.5 66.9 27.2 66.6 C 26.8 66.4 26.4 66.2 26 66.2 C 25.4 66.2 25 66.4 24.7 66.7 C 24.3 67.1 24.2 67.5 24.2 68.1 C 24.18 68.06 24.2 73.4 24.2 73.4 L 22.9 73.4 C 22.9 73.4 22.91 67.78 22.9 67.8 C 22.9 67.3 22.8 66.9 22.5 66.7 C 22.2 66.4 21.8 66.2 21.3 66.2 C 21 66.2 20.7 66.3 20.4 66.5 C 20.1 66.7 19.9 66.9 19.7 67.2 C 19.5 67.5 19.4 67.9 19.4 68.3 C 19.43 68.27 19.4 73.4 19.4 73.4 L 18.2 73.4 Z M 33.6 73.6 C 33 73.6 32.6 73.5 32.2 73.3 C 31.7 73.1 31.4 72.8 31.1 72.4 C 30.9 72 30.8 71.6 30.8 71.1 C 30.8 70.6 30.9 70.2 31.1 69.9 C 31.2 69.6 31.5 69.4 31.8 69.2 C 32.1 69.1 32.4 68.9 32.8 68.9 C 33.2 68.8 33.6 68.7 33.9 68.7 C 34.4 68.6 34.9 68.5 35.2 68.5 C 35.5 68.5 35.7 68.4 35.8 68.3 C 36 68.3 36.1 68.1 36.1 67.9 C 36.1 67.9 36.1 67.9 36.1 67.9 C 36.1 67.3 35.9 66.9 35.6 66.6 C 35.3 66.3 34.9 66.2 34.3 66.2 C 33.7 66.2 33.3 66.3 32.9 66.6 C 32.6 66.9 32.3 67.1 32.2 67.4 C 32.2 67.4 31 67 31 67 C 31.2 66.5 31.5 66.1 31.9 65.8 C 32.2 65.6 32.6 65.4 33 65.3 C 33.5 65.1 33.9 65.1 34.3 65.1 C 34.6 65.1 34.9 65.1 35.2 65.2 C 35.5 65.2 35.9 65.4 36.2 65.6 C 36.5 65.8 36.8 66 37 66.4 C 37.2 66.8 37.3 67.3 37.3 68 C 37.32 67.99 37.3 73.4 37.3 73.4 L 36.1 73.4 L 36.1 72.3 C 36.1 72.3 35.99 72.27 36 72.3 C 35.9 72.5 35.8 72.6 35.6 72.8 C 35.4 73 35.1 73.2 34.8 73.4 C 34.4 73.5 34 73.6 33.6 73.6 Z M 33.8 72.4 C 34.3 72.4 34.7 72.3 35 72.2 C 35.4 72 35.6 71.7 35.8 71.4 C 36 71.1 36.1 70.8 36.1 70.4 C 36.1 70.4 36.1 69.3 36.1 69.3 C 36 69.3 35.9 69.4 35.7 69.4 C 35.5 69.5 35.3 69.5 35.1 69.6 C 34.9 69.6 34.6 69.6 34.4 69.7 C 34.2 69.7 34 69.7 33.9 69.7 C 33.6 69.8 33.3 69.8 33 69.9 C 32.7 70 32.5 70.2 32.3 70.4 C 32.1 70.6 32 70.8 32 71.1 C 32 71.6 32.2 71.9 32.5 72.1 C 32.8 72.3 33.3 72.4 33.8 72.4 Z M 43 65.2 L 43 66.3 L 38.7 66.3 L 38.7 65.2 L 43 65.2 Z M 40 63.2 L 41.2 63.2 C 41.2 63.2 41.22 71.04 41.2 71 C 41.2 71.4 41.3 71.7 41.4 71.8 C 41.5 72 41.6 72.1 41.8 72.2 C 41.9 72.2 42.1 72.3 42.3 72.3 C 42.4 72.3 42.6 72.3 42.6 72.2 C 42.7 72.2 42.8 72.2 42.9 72.2 C 42.9 72.2 43.1 73.3 43.1 73.3 C 43 73.4 42.9 73.4 42.8 73.4 C 42.6 73.5 42.4 73.5 42.2 73.5 C 41.8 73.5 41.5 73.4 41.1 73.3 C 40.8 73.1 40.5 72.9 40.3 72.6 C 40.1 72.2 40 71.9 40 71.4 C 39.96 71.38 40 63.2 40 63.2 Z M 49.8 70 C 49.82 70.04 49.8 65.2 49.8 65.2 L 51.1 65.2 L 51.1 73.4 L 49.8 73.4 L 49.8 72 C 49.8 72 49.74 72 49.7 72 C 49.5 72.4 49.2 72.8 48.8 73.1 C 48.4 73.3 47.9 73.5 47.3 73.5 C 46.8 73.5 46.3 73.4 45.9 73.2 C 45.5 72.9 45.2 72.6 45 72.1 C 44.8 71.7 44.7 71.1 44.7 70.4 C 44.66 70.4 44.7 65.2 44.7 65.2 L 45.9 65.2 C 45.9 65.2 45.92 70.31 45.9 70.3 C 45.9 70.9 46.1 71.4 46.4 71.7 C 46.8 72.1 47.2 72.3 47.7 72.3 C 48 72.3 48.3 72.2 48.7 72 C 49 71.9 49.3 71.6 49.5 71.3 C 49.7 71 49.8 70.5 49.8 70 Z M 53.4 73.4 L 53.4 65.2 L 54.6 65.2 L 54.6 66.4 C 54.6 66.4 54.68 66.44 54.7 66.4 C 54.8 66 55.1 65.7 55.5 65.5 C 55.9 65.2 56.3 65.1 56.8 65.1 C 56.9 65.1 57 65.1 57.2 65.1 C 57.3 65.1 57.4 65.1 57.5 65.1 C 57.5 65.1 57.5 66.4 57.5 66.4 C 57.4 66.4 57.3 66.3 57.2 66.3 C 57 66.3 56.9 66.3 56.7 66.3 C 56.3 66.3 56 66.4 55.6 66.5 C 55.3 66.7 55.1 66.9 54.9 67.2 C 54.7 67.5 54.6 67.8 54.6 68.2 C 54.64 68.2 54.6 73.4 54.6 73.4 L 53.4 73.4 Z M 62.2 73.6 C 61.4 73.6 60.8 73.4 60.2 73 C 59.6 72.7 59.2 72.2 58.9 71.6 C 58.6 70.9 58.4 70.2 58.4 69.4 C 58.4 68.5 58.6 67.8 58.9 67.1 C 59.2 66.5 59.6 66 60.2 65.6 C 60.7 65.3 61.4 65.1 62.1 65.1 C 62.5 65.1 62.9 65.2 63.4 65.3 C 63.8 65.4 64.2 65.7 64.5 66 C 64.8 66.3 65.1 66.7 65.3 67.3 C 65.5 67.8 65.6 68.4 65.6 69.2 C 65.61 69.18 65.6 69.7 65.6 69.7 L 59.3 69.7 L 59.3 68.6 C 59.3 68.6 64.33 68.63 64.3 68.6 C 64.3 68.2 64.2 67.8 64.1 67.4 C 63.9 67 63.6 66.7 63.3 66.5 C 62.9 66.3 62.6 66.2 62.1 66.2 C 61.6 66.2 61.2 66.3 60.8 66.6 C 60.4 66.8 60.2 67.2 60 67.6 C 59.8 67.9 59.7 68.4 59.7 68.8 C 59.7 68.8 59.7 69.5 59.7 69.5 C 59.7 70.2 59.8 70.7 60 71.1 C 60.2 71.5 60.5 71.9 60.9 72.1 C 61.3 72.3 61.7 72.4 62.2 72.4 C 62.6 72.4 62.9 72.4 63.1 72.3 C 63.4 72.2 63.6 72 63.8 71.9 C 64 71.7 64.2 71.4 64.3 71.1 C 64.3 71.1 65.5 71.5 65.5 71.5 C 65.4 71.9 65.1 72.3 64.8 72.6 C 64.5 72.9 64.2 73.1 63.7 73.3 C 63.3 73.5 62.8 73.6 62.2 73.6 Z M 72.4 73.4 L 71 73.4 L 75 62.5 L 76.4 62.5 L 80.4 73.4 L 79 73.4 L 75.7 64.2 L 75.6 64.2 L 72.4 73.4 Z M 72.9 69.1 L 78.5 69.1 L 78.5 70.3 L 72.9 70.3 L 72.9 69.1 Z M 83.4 62.5 L 83.4 73.4 L 82.1 73.4 L 82.1 62.5 L 83.4 62.5 Z M 93.2 73.6 C 92.5 73.6 91.9 73.4 91.4 73 C 90.9 72.7 90.4 72.2 90.2 71.6 C 89.9 70.9 89.7 70.2 89.7 69.3 C 89.7 68.5 89.9 67.7 90.2 67.1 C 90.4 66.4 90.9 66 91.4 65.6 C 91.9 65.3 92.5 65.1 93.2 65.1 C 93.7 65.1 94.2 65.2 94.5 65.4 C 94.8 65.5 95 65.7 95.2 66 C 95.3 66.2 95.5 66.4 95.6 66.5 C 95.57 66.5 95.7 66.5 95.7 66.5 L 95.7 62.5 L 96.9 62.5 L 96.9 73.4 L 95.7 73.4 L 95.7 72.1 C 95.7 72.1 95.57 72.12 95.6 72.1 C 95.5 72.3 95.3 72.5 95.2 72.7 C 95 72.9 94.8 73.1 94.4 73.3 C 94.1 73.5 93.7 73.6 93.2 73.6 Z M 93.4 72.4 C 93.9 72.4 94.3 72.3 94.6 72 C 95 71.8 95.2 71.4 95.4 70.9 C 95.6 70.5 95.7 69.9 95.7 69.3 C 95.7 68.7 95.6 68.1 95.4 67.7 C 95.3 67.2 95 66.9 94.6 66.6 C 94.3 66.4 93.9 66.2 93.4 66.2 C 92.8 66.2 92.4 66.4 92 66.6 C 91.7 66.9 91.4 67.3 91.2 67.7 C 91.1 68.2 91 68.7 91 69.3 C 91 69.9 91.1 70.4 91.2 70.9 C 91.4 71.3 91.7 71.7 92 72 C 92.4 72.3 92.8 72.4 93.4 72.4 Z M 102.7 73.6 C 102 73.6 101.3 73.4 100.7 73 C 100.1 72.7 99.7 72.2 99.4 71.6 C 99.1 70.9 98.9 70.2 98.9 69.4 C 98.9 68.5 99.1 67.8 99.4 67.1 C 99.7 66.5 100.1 66 100.7 65.6 C 101.2 65.3 101.9 65.1 102.6 65.1 C 103 65.1 103.5 65.2 103.9 65.3 C 104.3 65.4 104.7 65.7 105 66 C 105.4 66.3 105.6 66.7 105.8 67.3 C 106 67.8 106.1 68.4 106.1 69.2 C 106.13 69.18 106.1 69.7 106.1 69.7 L 99.8 69.7 L 99.8 68.6 C 99.8 68.6 104.85 68.63 104.9 68.6 C 104.9 68.2 104.8 67.8 104.6 67.4 C 104.4 67 104.1 66.7 103.8 66.5 C 103.5 66.3 103.1 66.2 102.6 66.2 C 102.1 66.2 101.7 66.3 101.3 66.6 C 101 66.8 100.7 67.2 100.5 67.6 C 100.3 67.9 100.2 68.4 100.2 68.8 C 100.2 68.8 100.2 69.5 100.2 69.5 C 100.2 70.2 100.3 70.7 100.5 71.1 C 100.7 71.5 101 71.9 101.4 72.1 C 101.8 72.3 102.2 72.4 102.7 72.4 C 103.1 72.4 103.4 72.4 103.6 72.3 C 103.9 72.2 104.1 72 104.3 71.9 C 104.5 71.7 104.7 71.4 104.8 71.1 C 104.8 71.1 106 71.5 106 71.5 C 105.9 71.9 105.7 72.3 105.4 72.6 C 105.1 72.9 104.7 73.1 104.2 73.3 C 103.8 73.5 103.3 73.6 102.7 73.6 Z M 109.3 62.5 L 109.3 73.4 L 108.1 73.4 L 108.1 62.5 L 109.3 62.5 Z M 111.6 73.4 L 111.6 65.2 L 112.9 65.2 L 112.9 73.4 L 111.6 73.4 Z M 112.3 63.8 C 112 63.8 111.8 63.8 111.6 63.6 C 111.5 63.4 111.4 63.2 111.4 63 C 111.4 62.7 111.5 62.5 111.6 62.4 C 111.8 62.2 112 62.1 112.3 62.1 C 112.5 62.1 112.7 62.2 112.9 62.4 C 113.1 62.5 113.2 62.7 113.2 63 C 113.2 63.2 113.1 63.4 112.9 63.6 C 112.7 63.8 112.5 63.8 112.3 63.8 Z M 121.8 65.2 L 118.8 73.4 L 117.5 73.4 L 114.5 65.2 L 115.8 65.2 L 118.1 71.7 L 118.2 71.7 L 120.4 65.2 L 121.8 65.2 Z M 126.5 73.6 C 125.7 73.6 125 73.4 124.4 73 C 123.9 72.7 123.4 72.2 123.1 71.6 C 122.8 70.9 122.7 70.2 122.7 69.4 C 122.7 68.5 122.8 67.8 123.1 67.1 C 123.4 66.5 123.9 66 124.4 65.6 C 125 65.3 125.6 65.1 126.4 65.1 C 126.8 65.1 127.2 65.2 127.6 65.3 C 128 65.4 128.4 65.7 128.8 66 C 129.1 66.3 129.4 66.7 129.6 67.3 C 129.8 67.8 129.9 68.4 129.9 69.2 C 129.87 69.18 129.9 69.7 129.9 69.7 L 123.6 69.7 L 123.6 68.6 C 123.6 68.6 128.6 68.63 128.6 68.6 C 128.6 68.2 128.5 67.8 128.3 67.4 C 128.1 67 127.9 66.7 127.5 66.5 C 127.2 66.3 126.8 66.2 126.4 66.2 C 125.9 66.2 125.4 66.3 125.1 66.6 C 124.7 66.8 124.4 67.2 124.2 67.6 C 124 67.9 123.9 68.4 123.9 68.8 C 123.9 68.8 123.9 69.5 123.9 69.5 C 123.9 70.2 124 70.7 124.3 71.1 C 124.5 71.5 124.8 71.9 125.1 72.1 C 125.5 72.3 126 72.4 126.5 72.4 C 126.8 72.4 127.1 72.4 127.4 72.3 C 127.7 72.2 127.9 72 128.1 71.9 C 128.3 71.7 128.4 71.4 128.5 71.1 C 128.5 71.1 129.7 71.5 129.7 71.5 C 129.6 71.9 129.4 72.3 129.1 72.6 C 128.8 72.9 128.4 73.1 128 73.3 C 127.5 73.5 127 73.6 126.5 73.6 Z M 131.8 73.4 L 131.8 65.2 L 133 65.2 L 133 66.4 C 133 66.4 133.09 66.44 133.1 66.4 C 133.2 66 133.5 65.7 133.9 65.5 C 134.3 65.2 134.7 65.1 135.2 65.1 C 135.3 65.1 135.4 65.1 135.6 65.1 C 135.7 65.1 135.8 65.1 135.9 65.1 C 135.9 65.1 135.9 66.4 135.9 66.4 C 135.8 66.4 135.7 66.3 135.6 66.3 C 135.4 66.3 135.3 66.3 135.1 66.3 C 134.7 66.3 134.4 66.4 134.1 66.5 C 133.7 66.7 133.5 66.9 133.3 67.2 C 133.1 67.5 133.1 67.8 133.1 68.2 C 133.05 68.2 133.1 73.4 133.1 73.4 L 131.8 73.4 Z M 143.1 67 C 143.1 67 142 67.4 142 67.4 C 141.9 67.2 141.8 67 141.7 66.8 C 141.6 66.6 141.4 66.5 141.2 66.4 C 140.9 66.2 140.6 66.2 140.3 66.2 C 139.8 66.2 139.3 66.3 139 66.5 C 138.7 66.8 138.5 67 138.5 67.4 C 138.5 67.7 138.6 68 138.8 68.1 C 139.1 68.3 139.4 68.5 139.9 68.6 C 139.9 68.6 141.1 68.9 141.1 68.9 C 141.9 69.1 142.4 69.3 142.8 69.7 C 143.1 70.1 143.3 70.5 143.3 71.1 C 143.3 71.6 143.2 72 142.9 72.4 C 142.6 72.7 142.3 73 141.8 73.2 C 141.3 73.4 140.7 73.6 140.1 73.6 C 139.3 73.6 138.6 73.4 138 73 C 137.5 72.6 137.1 72.1 137 71.4 C 137 71.4 138.2 71.1 138.2 71.1 C 138.3 71.6 138.5 71.9 138.8 72.1 C 139.2 72.3 139.6 72.4 140.1 72.4 C 140.7 72.4 141.1 72.3 141.5 72.1 C 141.8 71.8 142 71.5 142 71.2 C 142 70.9 141.9 70.6 141.7 70.4 C 141.5 70.3 141.2 70.1 140.8 70 C 140.8 70 139.4 69.7 139.4 69.7 C 138.7 69.5 138.1 69.2 137.8 68.9 C 137.4 68.5 137.2 68 137.2 67.5 C 137.2 67 137.4 66.6 137.6 66.2 C 137.9 65.9 138.3 65.6 138.7 65.4 C 139.2 65.2 139.7 65.1 140.3 65.1 C 141.1 65.1 141.7 65.3 142.2 65.6 C 142.6 66 143 66.5 143.1 67 Z " stroke="none" fill="#000"/>  </g>  <g id="Polygon115049">    <path d="M 8.8 34.5 L 8.8 37.4 L 0.4 37.4 L 0.4 34.5 L 8.8 34.5 Z M 2.4 48.2 C 2.4 48.2 2.35 33.56 2.4 33.6 C 2.4 32.6 2.5 31.8 2.9 31.1 C 3.3 30.4 3.9 30 4.5 29.6 C 5.2 29.3 6 29.1 6.8 29.1 C 7.4 29.1 7.9 29.2 8.4 29.3 C 8.9 29.4 9.3 29.4 9.5 29.5 C 9.5 29.5 8.8 32.4 8.8 32.4 C 8.7 32.3 8.5 32.3 8.3 32.2 C 8.1 32.2 7.8 32.2 7.6 32.2 C 7.1 32.2 6.7 32.3 6.5 32.6 C 6.2 32.8 6.1 33.2 6.1 33.6 C 6.13 33.63 6.1 48.2 6.1 48.2 L 2.4 48.2 Z M 19.6 42.4 C 19.58 42.38 19.6 34.5 19.6 34.5 L 23.4 34.5 L 23.4 48.2 L 19.7 48.2 L 19.7 45.7 C 19.7 45.7 19.59 45.7 19.6 45.7 C 19.3 46.5 18.8 47.1 18.1 47.6 C 17.3 48.1 16.5 48.4 15.5 48.4 C 14.5 48.4 13.7 48.2 13 47.7 C 12.4 47.3 11.8 46.7 11.4 46 C 11 45.2 10.8 44.3 10.8 43.2 C 10.84 43.23 10.8 34.5 10.8 34.5 L 14.6 34.5 C 14.6 34.5 14.62 42.55 14.6 42.6 C 14.6 43.4 14.8 44 15.3 44.5 C 15.7 44.9 16.3 45.2 17 45.2 C 17.4 45.2 17.9 45.1 18.3 44.8 C 18.7 44.6 19 44.3 19.2 43.9 C 19.5 43.5 19.6 43 19.6 42.4 Z M 30.1 40.3 C 30.08 40.3 30.1 48.2 30.1 48.2 L 26.3 48.2 L 26.3 34.5 L 29.9 34.5 L 29.9 37 C 29.9 37 30.06 36.95 30.1 37 C 30.4 36.2 30.9 35.5 31.6 35.1 C 32.3 34.6 33.1 34.4 34.2 34.4 C 35.1 34.4 35.9 34.6 36.6 35 C 37.3 35.4 37.9 36 38.3 36.8 C 38.7 37.5 38.9 38.4 38.9 39.5 C 38.87 39.5 38.9 48.2 38.9 48.2 L 35.1 48.2 C 35.1 48.2 35.08 40.17 35.1 40.2 C 35.1 39.3 34.9 38.7 34.4 38.2 C 34 37.7 33.4 37.5 32.7 37.5 C 32.2 37.5 31.7 37.6 31.3 37.8 C 30.9 38.1 30.6 38.4 30.4 38.8 C 30.2 39.2 30.1 39.7 30.1 40.3 Z M 47.8 48.4 C 46.4 48.4 45.2 48.2 44.2 47.6 C 43.2 47 42.4 46.1 41.9 45.1 C 41.4 44 41.1 42.8 41.1 41.4 C 41.1 40 41.4 38.8 41.9 37.7 C 42.5 36.7 43.2 35.9 44.2 35.3 C 45.2 34.7 46.4 34.4 47.8 34.4 C 49 34.4 50 34.6 50.9 35 C 51.8 35.4 52.5 36.1 53 36.8 C 53.6 37.6 53.9 38.5 53.9 39.6 C 53.9 39.6 50.3 39.6 50.3 39.6 C 50.2 38.9 50 38.4 49.5 37.9 C 49.1 37.5 48.6 37.3 47.9 37.3 C 47.3 37.3 46.8 37.5 46.3 37.8 C 45.9 38.1 45.6 38.6 45.3 39.2 C 45.1 39.8 44.9 40.5 44.9 41.4 C 44.9 42.2 45.1 43 45.3 43.6 C 45.5 44.2 45.9 44.7 46.3 45 C 46.8 45.3 47.3 45.5 47.9 45.5 C 48.3 45.5 48.7 45.4 49 45.2 C 49.4 45 49.7 44.8 49.9 44.4 C 50.1 44.1 50.3 43.7 50.3 43.2 C 50.3 43.2 53.9 43.2 53.9 43.2 C 53.8 44.2 53.6 45.1 53.1 45.9 C 52.6 46.7 51.9 47.3 51 47.8 C 50.1 48.2 49 48.4 47.8 48.4 Z M 63.4 34.5 L 63.4 37.4 L 55.2 37.4 L 55.2 34.5 L 63.4 34.5 Z M 57.1 31.3 L 60.9 31.3 C 60.9 31.3 60.87 43.99 60.9 44 C 60.9 44.3 60.9 44.6 61 44.8 C 61.1 45 61.3 45.1 61.5 45.2 C 61.7 45.3 61.9 45.3 62.2 45.3 C 62.3 45.3 62.5 45.3 62.7 45.3 C 62.9 45.2 63 45.2 63.1 45.2 C 63.1 45.2 63.7 48 63.7 48 C 63.5 48.1 63.2 48.1 62.9 48.2 C 62.5 48.3 62.1 48.4 61.6 48.4 C 60.7 48.4 59.9 48.3 59.2 48 C 58.6 47.7 58 47.3 57.7 46.7 C 57.3 46.1 57.1 45.4 57.1 44.5 C 57.09 44.49 57.1 31.3 57.1 31.3 Z M 65.6 48.2 L 65.6 34.5 L 69.4 34.5 L 69.4 48.2 L 65.6 48.2 Z M 67.5 32.8 C 66.9 32.8 66.5 32.6 66.1 32.2 C 65.7 31.9 65.5 31.4 65.5 30.9 C 65.5 30.4 65.7 29.9 66.1 29.5 C 66.5 29.1 66.9 29 67.5 29 C 68.1 29 68.5 29.1 68.9 29.5 C 69.3 29.9 69.5 30.3 69.5 30.9 C 69.5 31.4 69.3 31.8 68.9 32.2 C 68.5 32.6 68.1 32.8 67.5 32.8 Z M 78.4 48.4 C 77 48.4 75.8 48.2 74.8 47.6 C 73.8 47 73 46.2 72.5 45.1 C 72 44 71.7 42.8 71.7 41.4 C 71.7 40 72 38.8 72.5 37.7 C 73 36.7 73.8 35.8 74.8 35.3 C 75.8 34.7 77 34.4 78.4 34.4 C 79.8 34.4 81 34.7 82 35.3 C 83 35.8 83.8 36.7 84.3 37.7 C 84.8 38.8 85.1 40 85.1 41.4 C 85.1 42.8 84.8 44 84.3 45.1 C 83.8 46.2 83 47 82 47.6 C 81 48.2 79.8 48.4 78.4 48.4 Z M 78.4 45.5 C 79 45.5 79.6 45.3 80 45 C 80.4 44.6 80.7 44.1 80.9 43.5 C 81.2 42.9 81.3 42.2 81.3 41.4 C 81.3 40.6 81.2 39.9 80.9 39.3 C 80.7 38.6 80.4 38.2 80 37.8 C 79.6 37.4 79 37.3 78.4 37.3 C 77.8 37.3 77.3 37.4 76.8 37.8 C 76.4 38.2 76.1 38.6 75.9 39.3 C 75.6 39.9 75.5 40.6 75.5 41.4 C 75.5 42.2 75.6 42.9 75.9 43.5 C 76.1 44.1 76.4 44.6 76.8 45 C 77.3 45.3 77.8 45.5 78.4 45.5 Z M 91.3 40.3 C 91.27 40.3 91.3 48.2 91.3 48.2 L 87.5 48.2 L 87.5 34.5 L 91.1 34.5 L 91.1 37 C 91.1 37 91.25 36.95 91.3 37 C 91.6 36.2 92.1 35.5 92.8 35.1 C 93.5 34.6 94.3 34.4 95.4 34.4 C 96.3 34.4 97.1 34.6 97.8 35 C 98.5 35.4 99.1 36 99.5 36.8 C 99.9 37.5 100.1 38.4 100.1 39.5 C 100.06 39.5 100.1 48.2 100.1 48.2 L 96.3 48.2 C 96.3 48.2 96.28 40.17 96.3 40.2 C 96.3 39.3 96.1 38.7 95.6 38.2 C 95.2 37.7 94.6 37.5 93.9 37.5 C 93.3 37.5 92.9 37.6 92.5 37.8 C 92.1 38.1 91.8 38.4 91.6 38.8 C 91.4 39.2 91.3 39.7 91.3 40.3 Z M 106.7 48.4 C 105.8 48.4 105 48.3 104.4 48 C 103.7 47.7 103.1 47.2 102.8 46.6 C 102.4 46 102.2 45.3 102.2 44.4 C 102.2 43.6 102.3 43 102.6 42.5 C 102.9 41.9 103.2 41.5 103.7 41.2 C 104.2 40.9 104.7 40.7 105.4 40.5 C 106 40.4 106.6 40.2 107.3 40.2 C 108.1 40.1 108.7 40 109.2 39.9 C 109.7 39.9 110 39.8 110.3 39.6 C 110.5 39.5 110.6 39.2 110.6 38.9 C 110.6 38.9 110.6 38.9 110.6 38.9 C 110.6 38.3 110.4 37.9 110.1 37.6 C 109.7 37.3 109.2 37.1 108.6 37.1 C 107.9 37.1 107.3 37.3 106.9 37.6 C 106.5 37.9 106.3 38.3 106.1 38.7 C 106.1 38.7 102.6 38.4 102.6 38.4 C 102.8 37.6 103.2 36.9 103.7 36.3 C 104.2 35.7 104.9 35.2 105.7 34.9 C 106.5 34.5 107.5 34.4 108.6 34.4 C 109.3 34.4 110.1 34.5 110.8 34.6 C 111.5 34.8 112.1 35.1 112.6 35.5 C 113.2 35.8 113.6 36.3 113.9 36.9 C 114.2 37.5 114.4 38.2 114.4 39 C 114.37 38.98 114.4 48.2 114.4 48.2 L 110.8 48.2 L 110.8 46.3 C 110.8 46.3 110.68 46.29 110.7 46.3 C 110.5 46.7 110.2 47.1 109.8 47.4 C 109.4 47.7 109 48 108.5 48.2 C 108 48.3 107.4 48.4 106.7 48.4 Z M 107.8 45.8 C 108.3 45.8 108.8 45.7 109.2 45.5 C 109.7 45.3 110 45 110.3 44.6 C 110.5 44.2 110.6 43.8 110.6 43.3 C 110.6 43.3 110.6 41.9 110.6 41.9 C 110.5 41.9 110.3 42 110.1 42.1 C 109.9 42.1 109.7 42.2 109.4 42.2 C 109.2 42.3 108.9 42.3 108.7 42.4 C 108.4 42.4 108.2 42.4 108 42.5 C 107.5 42.5 107.2 42.6 106.8 42.8 C 106.5 42.9 106.2 43.1 106.1 43.4 C 105.9 43.6 105.8 43.9 105.8 44.2 C 105.8 44.8 106 45.2 106.3 45.4 C 106.7 45.7 107.2 45.8 107.8 45.8 Z M 121 30 L 121 48.2 L 117.2 48.2 L 117.2 30 L 121 30 Z M 123.9 48.2 L 123.9 34.5 L 127.7 34.5 L 127.7 48.2 L 123.9 48.2 Z M 125.8 32.8 C 125.3 32.8 124.8 32.6 124.4 32.2 C 124 31.9 123.8 31.4 123.8 30.9 C 123.8 30.4 124 29.9 124.4 29.5 C 124.8 29.1 125.3 29 125.8 29 C 126.4 29 126.9 29.1 127.3 29.5 C 127.7 29.9 127.9 30.3 127.9 30.9 C 127.9 31.4 127.7 31.8 127.3 32.2 C 126.9 32.6 126.4 32.8 125.8 32.8 Z M 137.8 34.5 L 137.8 37.4 L 129.6 37.4 L 129.6 34.5 L 137.8 34.5 Z M 131.4 31.3 L 135.2 31.3 C 135.2 31.3 135.23 43.99 135.2 44 C 135.2 44.3 135.3 44.6 135.4 44.8 C 135.5 45 135.6 45.1 135.8 45.2 C 136 45.3 136.3 45.3 136.5 45.3 C 136.7 45.3 136.9 45.3 137 45.3 C 137.2 45.2 137.4 45.2 137.4 45.2 C 137.4 45.2 138 48 138 48 C 137.9 48.1 137.6 48.1 137.2 48.2 C 136.9 48.3 136.5 48.4 136 48.4 C 135.1 48.4 134.3 48.3 133.6 48 C 132.9 47.7 132.4 47.3 132 46.7 C 131.6 46.1 131.4 45.4 131.4 44.5 C 131.45 44.49 131.4 31.3 131.4 31.3 Z M 142.7 53.3 C 142.2 53.3 141.8 53.3 141.4 53.2 C 140.9 53.1 140.6 53 140.3 52.9 C 140.3 52.9 141.2 50.1 141.2 50.1 C 141.6 50.2 142 50.3 142.4 50.3 C 142.7 50.3 143 50.2 143.3 50.1 C 143.6 49.9 143.8 49.6 143.9 49.1 C 143.95 49.15 144.2 48.6 144.2 48.6 L 139.3 34.5 L 143.3 34.5 L 146.1 44.6 L 146.2 44.6 L 149.1 34.5 L 153.1 34.5 C 153.1 34.5 147.78 49.66 147.8 49.7 C 147.5 50.4 147.2 51 146.7 51.6 C 146.3 52.1 145.8 52.5 145.1 52.8 C 144.4 53.1 143.6 53.3 142.7 53.3 Z " stroke="none" fill="#10283d"/>  </g>  <g id="Polygon115048">    <path d="M 1.6 18.2 L 1.6 0 C 1.6 0 8.75 0 8.8 0 C 10.1 0 11.3 0.3 12.3 0.8 C 13.2 1.3 14 2 14.5 3 C 15 3.9 15.3 5 15.3 6.2 C 15.3 7.4 15 8.4 14.5 9.4 C 14 10.3 13.2 11 12.2 11.5 C 11.2 12 10.1 12.3 8.7 12.3 C 8.66 12.29 4.1 12.3 4.1 12.3 L 4.1 9.2 C 4.1 9.2 8.03 9.21 8 9.2 C 8.8 9.2 9.4 9.1 9.9 8.8 C 10.4 8.6 10.7 8.2 11 7.7 C 11.2 7.3 11.3 6.8 11.3 6.2 C 11.3 5.6 11.2 5 11 4.6 C 10.7 4.1 10.3 3.8 9.9 3.5 C 9.4 3.3 8.8 3.1 8 3.1 C 8.02 3.14 5.4 3.1 5.4 3.1 L 5.4 18.2 L 1.6 18.2 Z M 17.3 18.2 L 17.3 4.5 L 21 4.5 L 21 6.9 C 21 6.9 21.13 6.92 21.1 6.9 C 21.4 6.1 21.8 5.4 22.4 5 C 23 4.6 23.6 4.4 24.4 4.4 C 24.6 4.4 24.8 4.4 25 4.4 C 25.2 4.4 25.4 4.4 25.6 4.5 C 25.6 4.5 25.6 7.8 25.6 7.8 C 25.4 7.8 25.2 7.7 24.9 7.7 C 24.5 7.7 24.3 7.6 24 7.6 C 23.4 7.6 22.9 7.8 22.5 8 C 22.1 8.2 21.7 8.6 21.5 9 C 21.2 9.4 21.1 9.9 21.1 10.5 C 21.11 10.47 21.1 18.2 21.1 18.2 L 17.3 18.2 Z M 33.3 18.4 C 31.9 18.4 30.8 18.2 29.8 17.6 C 28.7 17 28 16.2 27.4 15.1 C 26.9 14 26.6 12.8 26.6 11.4 C 26.6 10 26.9 8.8 27.4 7.7 C 28 6.7 28.7 5.8 29.8 5.3 C 30.8 4.7 31.9 4.4 33.3 4.4 C 34.7 4.4 35.9 4.7 36.9 5.3 C 37.9 5.8 38.7 6.7 39.2 7.7 C 39.8 8.8 40 10 40 11.4 C 40 12.8 39.8 14 39.2 15.1 C 38.7 16.2 37.9 17 36.9 17.6 C 35.9 18.2 34.7 18.4 33.3 18.4 Z M 33.3 15.5 C 34 15.5 34.5 15.3 34.9 15 C 35.3 14.6 35.7 14.1 35.9 13.5 C 36.1 12.9 36.2 12.2 36.2 11.4 C 36.2 10.6 36.1 9.9 35.9 9.3 C 35.7 8.6 35.3 8.2 34.9 7.8 C 34.5 7.4 34 7.3 33.3 7.3 C 32.7 7.3 32.2 7.4 31.7 7.8 C 31.3 8.2 31 8.6 30.8 9.3 C 30.6 9.9 30.5 10.6 30.5 11.4 C 30.5 12.2 30.6 12.9 30.8 13.5 C 31 14.1 31.3 14.6 31.7 15 C 32.2 15.3 32.7 15.5 33.3 15.5 Z M 42.4 18.2 L 42.4 4.5 L 46 4.5 L 46 7 C 46 7 46.18 6.95 46.2 7 C 46.5 6.2 46.9 5.5 47.6 5.1 C 48.3 4.6 49.1 4.4 50 4.4 C 50.9 4.4 51.7 4.6 52.4 5.1 C 53 5.5 53.5 6.2 53.7 7 C 53.7 7 53.8 7 53.8 7 C 54.1 6.2 54.6 5.5 55.3 5.1 C 56.1 4.6 56.9 4.4 57.9 4.4 C 59.2 4.4 60.2 4.8 61 5.6 C 61.8 6.4 62.2 7.5 62.2 9 C 62.23 9.01 62.2 18.2 62.2 18.2 L 58.5 18.2 C 58.5 18.2 58.46 9.76 58.5 9.8 C 58.5 9 58.3 8.4 57.9 8.1 C 57.4 7.7 56.9 7.5 56.3 7.5 C 55.7 7.5 55.1 7.7 54.7 8.1 C 54.4 8.6 54.2 9.1 54.2 9.9 C 54.16 9.85 54.2 18.2 54.2 18.2 L 50.5 18.2 C 50.5 18.2 50.49 9.68 50.5 9.7 C 50.5 9 50.3 8.5 49.9 8.1 C 49.5 7.7 49 7.5 48.4 7.5 C 48 7.5 47.6 7.6 47.3 7.8 C 46.9 8 46.7 8.3 46.5 8.7 C 46.3 9.1 46.2 9.5 46.2 10 C 46.2 10 46.2 18.2 46.2 18.2 L 42.4 18.2 Z M 65 18.2 L 65 4.5 L 68.8 4.5 L 68.8 18.2 L 65 18.2 Z M 66.9 2.8 C 66.4 2.8 65.9 2.6 65.5 2.2 C 65.1 1.9 64.9 1.4 64.9 0.9 C 64.9 0.4 65.1 -0.1 65.5 -0.5 C 65.9 -0.9 66.4 -1 66.9 -1 C 67.5 -1 68 -0.9 68.4 -0.5 C 68.8 -0.1 69 0.3 69 0.9 C 69 1.4 68.8 1.8 68.4 2.2 C 68 2.6 67.5 2.8 66.9 2.8 Z M 83 8.4 C 83 8.4 79.5 8.6 79.5 8.6 C 79.4 8.4 79.3 8.1 79.1 7.8 C 78.9 7.6 78.7 7.4 78.4 7.3 C 78 7.1 77.7 7 77.2 7 C 76.6 7 76.1 7.2 75.7 7.4 C 75.3 7.7 75.1 8 75.1 8.4 C 75.1 8.7 75.3 9 75.5 9.2 C 75.8 9.4 76.2 9.6 76.9 9.8 C 76.9 9.8 79.3 10.3 79.3 10.3 C 80.7 10.5 81.6 11 82.3 11.6 C 83 12.2 83.3 13 83.3 14 C 83.3 14.8 83 15.6 82.5 16.3 C 82 17 81.3 17.5 80.3 17.9 C 79.4 18.3 78.4 18.4 77.2 18.4 C 75.4 18.4 74 18.1 72.9 17.3 C 71.8 16.6 71.2 15.5 71 14.2 C 71 14.2 74.7 14 74.7 14 C 74.8 14.6 75.1 15 75.6 15.3 C 76 15.6 76.5 15.7 77.2 15.7 C 77.9 15.7 78.4 15.6 78.8 15.3 C 79.2 15.1 79.4 14.7 79.4 14.3 C 79.4 14 79.3 13.7 79 13.5 C 78.7 13.3 78.3 13.1 77.7 13 C 77.7 13 75.3 12.5 75.3 12.5 C 74 12.2 73 11.8 72.4 11.1 C 71.7 10.5 71.4 9.6 71.4 8.6 C 71.4 7.7 71.6 7 72.1 6.3 C 72.6 5.7 73.2 5.2 74.1 4.9 C 75 4.5 76 4.4 77.2 4.4 C 78.9 4.4 80.2 4.7 81.2 5.5 C 82.2 6.2 82.8 7.2 83 8.4 Z M 91.7 18.4 C 90.3 18.4 89.1 18.2 88.1 17.6 C 87.1 17 86.3 16.2 85.7 15.2 C 85.2 14.1 84.9 12.9 84.9 11.4 C 84.9 10 85.2 8.8 85.7 7.7 C 86.3 6.7 87 5.8 88 5.3 C 89 4.7 90.2 4.4 91.5 4.4 C 92.4 4.4 93.3 4.5 94 4.8 C 94.8 5.1 95.5 5.5 96.1 6.1 C 96.7 6.7 97.1 7.4 97.5 8.3 C 97.8 9.1 97.9 10.1 97.9 11.3 C 97.94 11.29 97.9 12.3 97.9 12.3 L 86.4 12.3 L 86.4 10 C 86.4 10 94.38 9.99 94.4 10 C 94.4 9.4 94.3 9 94 8.5 C 93.8 8.1 93.5 7.8 93 7.6 C 92.6 7.3 92.1 7.2 91.6 7.2 C 91 7.2 90.5 7.3 90.1 7.6 C 89.6 7.8 89.3 8.2 89 8.6 C 88.8 9.1 88.7 9.6 88.7 10.1 C 88.7 10.1 88.7 12.3 88.7 12.3 C 88.7 13 88.8 13.6 89 14.1 C 89.3 14.6 89.6 15 90.1 15.2 C 90.6 15.5 91.1 15.6 91.7 15.6 C 92.2 15.6 92.5 15.6 92.9 15.4 C 93.2 15.3 93.5 15.2 93.8 14.9 C 94 14.7 94.2 14.4 94.4 14 C 94.4 14 97.9 14.3 97.9 14.3 C 97.7 15.1 97.3 15.8 96.8 16.5 C 96.2 17.1 95.5 17.6 94.7 17.9 C 93.8 18.3 92.8 18.4 91.7 18.4 Z M 118.9 4.5 L 114.2 18.2 L 109.9 18.2 L 105.1 4.5 L 109.1 4.5 L 111.9 14.3 L 112.1 14.3 L 114.9 4.5 L 118.9 4.5 Z M 131.6 8.4 C 131.6 8.4 128.1 8.6 128.1 8.6 C 128.1 8.4 127.9 8.1 127.7 7.8 C 127.5 7.6 127.3 7.4 127 7.3 C 126.7 7.1 126.3 7 125.8 7 C 125.2 7 124.8 7.2 124.4 7.4 C 124 7.7 123.7 8 123.7 8.4 C 123.7 8.7 123.9 9 124.1 9.2 C 124.4 9.4 124.8 9.6 125.5 9.8 C 125.5 9.8 127.9 10.3 127.9 10.3 C 129.3 10.5 130.3 11 130.9 11.6 C 131.6 12.2 131.9 13 131.9 14 C 131.9 14.8 131.6 15.6 131.1 16.3 C 130.6 17 129.9 17.5 129 17.9 C 128 18.3 127 18.4 125.8 18.4 C 124 18.4 122.6 18.1 121.5 17.3 C 120.4 16.6 119.8 15.5 119.6 14.2 C 119.6 14.2 123.3 14 123.3 14 C 123.5 14.6 123.7 15 124.2 15.3 C 124.6 15.6 125.2 15.7 125.8 15.7 C 126.5 15.7 127 15.6 127.4 15.3 C 127.8 15.1 128 14.7 128 14.3 C 128 14 127.9 13.7 127.6 13.5 C 127.3 13.3 126.9 13.1 126.3 13 C 126.3 13 123.9 12.5 123.9 12.5 C 122.6 12.2 121.6 11.8 121 11.1 C 120.3 10.5 120 9.6 120 8.6 C 120 7.7 120.2 7 120.7 6.3 C 121.2 5.7 121.9 5.2 122.7 4.9 C 123.6 4.5 124.6 4.4 125.8 4.4 C 127.5 4.4 128.9 4.7 129.8 5.5 C 130.8 6.2 131.4 7.2 131.6 8.4 Z M 136.3 18.4 C 135.7 18.4 135.2 18.2 134.8 17.8 C 134.4 17.4 134.2 16.9 134.2 16.3 C 134.2 15.7 134.4 15.2 134.8 14.8 C 135.2 14.4 135.7 14.2 136.3 14.2 C 136.9 14.2 137.4 14.4 137.8 14.8 C 138.2 15.2 138.5 15.7 138.5 16.3 C 138.5 16.7 138.4 17 138.2 17.4 C 138 17.7 137.7 17.9 137.4 18.1 C 137.1 18.3 136.7 18.4 136.3 18.4 Z " stroke="none" fill="#10283d"/>  </g>  <g id="Polygon115050">    <path d="M 160.2 40.8 L 166.8 47.3 L 173.4 40.8 " style="stroke-width:1.8pt; stroke:#838f98;" fill="none"/>  </g>  <g id="Polygon115054">    <path d="M 149.6 113.7 L 122.5 113.7 M 143.1 120.4 L 149.7 113.8 L 143.1 107.2 " style="stroke-width:1.8pt; stroke:#ff4f00;" fill="none"/>  </g></svg>