<?xml version="1.0" standalone="no"?><!DOCTYPE svg PUBLIC "-//W3C//DTD SVG 1.1//EN" "http://www.w3.org/Graphics/SVG/1.1/DTD/svg11.dtd"><svg xmlns="http://www.w3.org/2000/svg" version="1.1" width="61px" height="18.4px" viewBox="0 -5 61 18.4" style="top:-5px">  <desc>11 / 19</desc>  <defs/>  <g id="Polygon120429">    <path d="M 19.2 0 L 19.2 7.3 L 18.3 7.3 L 18.3 0.9 L 18.3 0.9 L 16.5 2.1 L 16.5 1.2 L 18.3 0 L 19.2 0 Z M 23.6 0 L 23.6 7.3 L 22.7 7.3 L 22.7 0.9 L 22.6 0.9 L 20.9 2.1 L 20.9 1.2 L 22.7 0 L 23.6 0 Z M 31.1 -0.3 L 28.7 8.4 L 27.9 8.4 L 30.3 -0.3 L 31.1 -0.3 Z M 37.4 0 L 37.4 7.3 L 36.5 7.3 L 36.5 0.9 L 36.5 0.9 L 34.7 2.1 L 34.7 1.2 L 36.5 0 L 37.4 0 Z M 41.7 -0.1 C 42 -0.1 42.3 0 42.6 0.1 C 42.9 0.2 43.2 0.4 43.4 0.6 C 43.7 0.9 43.9 1.2 44 1.7 C 44.2 2.1 44.2 2.7 44.2 3.3 C 44.2 4 44.2 4.6 44.1 5.1 C 43.9 5.6 43.8 6 43.5 6.3 C 43.3 6.7 43 6.9 42.7 7.1 C 42.4 7.3 42 7.4 41.6 7.4 C 41.2 7.4 40.8 7.3 40.5 7.1 C 40.2 7 39.9 6.7 39.7 6.5 C 39.5 6.2 39.4 5.8 39.3 5.4 C 39.3 5.4 40.2 5.4 40.2 5.4 C 40.3 5.8 40.4 6 40.7 6.3 C 40.9 6.5 41.2 6.6 41.6 6.6 C 42.2 6.6 42.6 6.3 42.9 5.9 C 43.3 5.4 43.4 4.7 43.4 3.8 C 43.4 3.8 43.4 3.8 43.4 3.8 C 43.2 4 43.1 4.1 42.9 4.3 C 42.7 4.4 42.5 4.5 42.3 4.6 C 42.1 4.7 41.8 4.7 41.6 4.7 C 41.2 4.7 40.8 4.6 40.4 4.4 C 40.1 4.2 39.8 3.9 39.6 3.6 C 39.4 3.2 39.3 2.8 39.3 2.3 C 39.3 1.9 39.4 1.5 39.6 1.1 C 39.8 0.7 40.1 0.4 40.4 0.2 C 40.8 0 41.2 -0.1 41.7 -0.1 Z M 41.7 0.7 C 41.4 0.7 41.2 0.8 40.9 0.9 C 40.7 1.1 40.5 1.3 40.3 1.5 C 40.2 1.8 40.1 2 40.1 2.3 C 40.1 2.6 40.2 2.9 40.3 3.2 C 40.5 3.4 40.7 3.6 40.9 3.7 C 41.1 3.9 41.4 4 41.7 4 C 41.9 4 42.1 3.9 42.3 3.8 C 42.5 3.7 42.7 3.6 42.8 3.5 C 43 3.3 43.1 3.1 43.2 2.9 C 43.3 2.7 43.3 2.5 43.3 2.3 C 43.3 2 43.2 1.8 43.1 1.5 C 43 1.3 42.8 1.1 42.5 0.9 C 42.3 0.8 42 0.7 41.7 0.7 Z " stroke="none" fill="#10283d"/>  </g></svg>