<?xml version="1.0" standalone="no"?><!DOCTYPE svg PUBLIC "-//W3C//DTD SVG 1.1//EN" "http://www.w3.org/Graphics/SVG/1.1/DTD/svg11.dtd"><svg xmlns="http://www.w3.org/2000/svg" version="1.1" width="590px" height="245.6px" viewBox="0 -7 590 245.6" style="top:-7px">  <desc>“ AI will provide immediate business value.”</desc>  <defs/>  <g id="Polygon123037">    <path d="M 19.2 106.5 L 19.2 71.6 L 23.2 71.6 L 23.2 84.5 C 23.2 84.5 23.57 84.48 23.6 84.5 C 23.9 84 24.3 83.4 24.8 82.7 C 25.3 82 26.1 81.4 27.1 80.8 C 28.1 80.3 29.4 80 31.1 80 C 33.3 80 35.3 80.5 37 81.6 C 38.6 82.7 40 84.3 40.9 86.3 C 41.8 88.3 42.3 90.7 42.3 93.5 C 42.3 96.3 41.8 98.7 40.9 100.7 C 40 102.7 38.7 104.3 37 105.4 C 35.3 106.5 33.4 107 31.2 107 C 29.5 107 28.2 106.8 27.2 106.2 C 26.2 105.6 25.4 105 24.8 104.3 C 24.3 103.6 23.9 103 23.6 102.5 C 23.57 102.48 23.1 102.5 23.1 102.5 L 23.1 106.5 L 19.2 106.5 Z M 23.2 93.4 C 23.2 95.4 23.5 97.1 24 98.6 C 24.6 100.1 25.5 101.3 26.6 102.2 C 27.7 103 29 103.4 30.7 103.4 C 32.3 103.4 33.7 103 34.9 102.1 C 36 101.2 36.9 100 37.4 98.5 C 38 97 38.3 95.3 38.3 93.4 C 38.3 91.6 38 89.9 37.5 88.4 C 36.9 86.9 36 85.8 34.9 84.9 C 33.8 84 32.4 83.6 30.7 83.6 C 29 83.6 27.7 84 26.5 84.8 C 25.4 85.7 24.6 86.8 24 88.3 C 23.4 89.7 23.2 91.5 23.2 93.4 Z M 64.3 95.8 C 64.33 95.8 64.3 80.3 64.3 80.3 L 68.4 80.3 L 68.4 106.5 L 64.3 106.5 L 64.3 102.1 C 64.3 102.1 64.05 102.07 64.1 102.1 C 63.4 103.4 62.5 104.5 61.2 105.5 C 59.9 106.4 58.3 106.8 56.3 106.8 C 54.6 106.8 53.2 106.5 51.9 105.8 C 50.6 105 49.6 103.9 48.9 102.5 C 48.2 101 47.8 99.2 47.8 97 C 47.83 96.95 47.8 80.3 47.8 80.3 L 51.9 80.3 C 51.9 80.3 51.85 96.68 51.9 96.7 C 51.9 98.6 52.4 100.1 53.5 101.3 C 54.5 102.4 55.9 103 57.6 103 C 58.6 103 59.6 102.7 60.6 102.2 C 61.7 101.7 62.6 100.9 63.3 99.8 C 64 98.8 64.3 97.4 64.3 95.8 Z M 93.4 86.2 C 93.4 86.2 89.8 87.2 89.8 87.2 C 89.6 86.6 89.2 86 88.8 85.4 C 88.4 84.9 87.8 84.4 87 84 C 86.3 83.6 85.3 83.5 84.1 83.5 C 82.5 83.5 81.2 83.8 80.1 84.6 C 79.1 85.3 78.6 86.2 78.6 87.3 C 78.6 88.3 78.9 89.1 79.6 89.7 C 80.4 90.3 81.5 90.8 83.1 91.2 C 83.1 91.2 86.9 92.1 86.9 92.1 C 89.3 92.7 91 93.5 92.2 94.7 C 93.3 95.9 93.9 97.4 93.9 99.2 C 93.9 100.7 93.5 102 92.6 103.2 C 91.7 104.4 90.6 105.3 89 106 C 87.5 106.7 85.7 107 83.7 107 C 81 107 78.8 106.5 77 105.3 C 75.3 104.1 74.2 102.5 73.7 100.2 C 73.7 100.2 77.5 99.3 77.5 99.3 C 77.9 100.7 78.6 101.7 79.6 102.4 C 80.6 103.1 81.9 103.5 83.6 103.5 C 85.5 103.5 87 103.1 88.1 102.3 C 89.2 101.5 89.7 100.5 89.7 99.4 C 89.7 98.5 89.4 97.7 88.8 97.1 C 88.1 96.5 87.2 96 85.8 95.7 C 85.8 95.7 81.5 94.7 81.5 94.7 C 79.1 94.1 77.3 93.3 76.2 92.1 C 75.1 90.9 74.5 89.4 74.5 87.5 C 74.5 86.1 74.9 84.8 75.8 83.6 C 76.6 82.5 77.8 81.6 79.2 80.9 C 80.7 80.3 82.3 80 84.1 80 C 86.7 80 88.8 80.5 90.3 81.7 C 91.7 82.8 92.8 84.3 93.4 86.2 Z M 99.2 106.5 L 99.2 80.3 L 103.2 80.3 L 103.2 106.5 L 99.2 106.5 Z M 101.2 76 C 100.5 76 99.8 75.7 99.2 75.2 C 98.7 74.6 98.4 74 98.4 73.2 C 98.4 72.5 98.7 71.8 99.2 71.3 C 99.8 70.8 100.5 70.5 101.2 70.5 C 102 70.5 102.7 70.8 103.3 71.3 C 103.8 71.8 104.1 72.5 104.1 73.2 C 104.1 74 103.8 74.6 103.3 75.2 C 102.7 75.7 102 76 101.2 76 Z M 114.1 90.8 C 114.1 90.75 114.1 106.5 114.1 106.5 L 110.1 106.5 L 110.1 80.3 L 114 80.3 L 114 84.4 C 114 84.4 114.3 84.41 114.3 84.4 C 114.9 83.1 115.8 82 117.1 81.2 C 118.3 80.4 120 80 121.9 80 C 123.7 80 125.3 80.3 126.6 81.1 C 127.9 81.8 129 82.9 129.7 84.3 C 130.4 85.8 130.8 87.6 130.8 89.9 C 130.8 89.86 130.8 106.5 130.8 106.5 L 126.8 106.5 C 126.8 106.5 126.78 90.14 126.8 90.1 C 126.8 88.1 126.2 86.5 125.2 85.3 C 124.1 84.2 122.6 83.6 120.8 83.6 C 119.5 83.6 118.3 83.9 117.3 84.4 C 116.3 85 115.5 85.8 115 86.9 C 114.4 87.9 114.1 89.2 114.1 90.8 Z M 148.5 107 C 146 107 143.8 106.5 142 105.4 C 140.2 104.2 138.8 102.7 137.8 100.7 C 136.8 98.6 136.3 96.3 136.3 93.6 C 136.3 90.9 136.8 88.6 137.8 86.5 C 138.8 84.5 140.1 82.9 141.9 81.7 C 143.7 80.6 145.7 80 148.1 80 C 149.5 80 150.8 80.2 152.1 80.7 C 153.5 81.1 154.7 81.8 155.8 82.9 C 156.9 83.9 157.7 85.2 158.4 86.9 C 159 88.6 159.3 90.6 159.3 93.1 C 159.34 93.07 159.3 94.8 159.3 94.8 L 139.2 94.8 L 139.2 91.3 C 139.2 91.3 155.25 91.3 155.2 91.3 C 155.2 89.8 155 88.5 154.4 87.3 C 153.8 86.2 153 85.3 151.9 84.6 C 150.8 83.9 149.5 83.6 148.1 83.6 C 146.5 83.6 145.1 84 143.9 84.8 C 142.8 85.6 141.9 86.6 141.3 87.9 C 140.6 89.1 140.3 90.5 140.3 91.9 C 140.3 91.9 140.3 94.2 140.3 94.2 C 140.3 96.2 140.7 97.9 141.3 99.2 C 142 100.6 143 101.7 144.2 102.4 C 145.4 103.1 146.9 103.4 148.5 103.4 C 149.6 103.4 150.5 103.3 151.4 103 C 152.2 102.7 153 102.2 153.6 101.6 C 154.2 101 154.7 100.3 155 99.3 C 155 99.3 158.9 100.4 158.9 100.4 C 158.5 101.8 157.8 102.9 156.9 103.9 C 155.9 104.9 154.7 105.7 153.3 106.2 C 151.9 106.8 150.3 107 148.5 107 Z M 183.2 86.2 C 183.2 86.2 179.6 87.2 179.6 87.2 C 179.3 86.6 179 86 178.6 85.4 C 178.1 84.9 177.5 84.4 176.8 84 C 176 83.6 175.1 83.5 173.9 83.5 C 172.3 83.5 171 83.8 169.9 84.6 C 168.8 85.3 168.3 86.2 168.3 87.3 C 168.3 88.3 168.7 89.1 169.4 89.7 C 170.1 90.3 171.3 90.8 172.8 91.2 C 172.8 91.2 176.7 92.1 176.7 92.1 C 179 92.7 180.8 93.5 181.9 94.7 C 183.1 95.9 183.6 97.4 183.6 99.2 C 183.6 100.7 183.2 102 182.4 103.2 C 181.5 104.4 180.3 105.3 178.8 106 C 177.2 106.7 175.5 107 173.4 107 C 170.8 107 168.5 106.5 166.8 105.3 C 165 104.1 163.9 102.5 163.5 100.2 C 163.5 100.2 167.3 99.3 167.3 99.3 C 167.6 100.7 168.3 101.7 169.4 102.4 C 170.4 103.1 171.7 103.5 173.4 103.5 C 175.2 103.5 176.7 103.1 177.8 102.3 C 178.9 101.5 179.5 100.5 179.5 99.4 C 179.5 98.5 179.2 97.7 178.5 97.1 C 177.9 96.5 176.9 96 175.6 95.7 C 175.6 95.7 171.2 94.7 171.2 94.7 C 168.8 94.1 167.1 93.3 166 92.1 C 164.8 90.9 164.3 89.4 164.3 87.5 C 164.3 86.1 164.7 84.8 165.5 83.6 C 166.4 82.5 167.5 81.6 169 80.9 C 170.4 80.3 172.1 80 173.9 80 C 176.5 80 178.5 80.5 180 81.7 C 181.5 82.8 182.5 84.3 183.2 86.2 Z M 207.7 86.2 C 207.7 86.2 204 87.2 204 87.2 C 203.8 86.6 203.5 86 203.1 85.4 C 202.6 84.9 202 84.4 201.3 84 C 200.5 83.6 199.6 83.5 198.4 83.5 C 196.8 83.5 195.5 83.8 194.4 84.6 C 193.3 85.3 192.8 86.2 192.8 87.3 C 192.8 88.3 193.2 89.1 193.9 89.7 C 194.6 90.3 195.8 90.8 197.3 91.2 C 197.3 91.2 201.2 92.1 201.2 92.1 C 203.5 92.7 205.3 93.5 206.4 94.7 C 207.6 95.9 208.1 97.4 208.1 99.2 C 208.1 100.7 207.7 102 206.9 103.2 C 206 104.4 204.8 105.3 203.3 106 C 201.7 106.7 199.9 107 197.9 107 C 195.2 107 193 106.5 191.3 105.3 C 189.5 104.1 188.4 102.5 188 100.2 C 188 100.2 191.8 99.3 191.8 99.3 C 192.1 100.7 192.8 101.7 193.8 102.4 C 194.9 103.1 196.2 103.5 197.8 103.5 C 199.7 103.5 201.2 103.1 202.3 102.3 C 203.4 101.5 204 100.5 204 99.4 C 204 98.5 203.7 97.7 203 97.1 C 202.4 96.5 201.4 96 200.1 95.7 C 200.1 95.7 195.7 94.7 195.7 94.7 C 193.3 94.1 191.6 93.3 190.5 92.1 C 189.3 90.9 188.8 89.4 188.8 87.5 C 188.8 86.1 189.2 84.8 190 83.6 C 190.9 82.5 192 81.6 193.5 80.9 C 194.9 80.3 196.5 80 198.4 80 C 201 80 203 80.5 204.5 81.7 C 206 82.8 207 84.3 207.7 86.2 Z M 249.1 80.3 L 239.4 106.5 L 235.3 106.5 L 225.7 80.3 L 230 80.3 L 237.3 101.2 L 237.5 101.2 L 244.8 80.3 L 249.1 80.3 Z M 260.6 107.1 C 259 107.1 257.5 106.8 256.1 106.2 C 254.7 105.5 253.7 104.6 252.9 103.4 C 252.1 102.2 251.7 100.8 251.7 99.1 C 251.7 97.6 252 96.3 252.6 95.4 C 253.2 94.5 254 93.7 254.9 93.2 C 255.9 92.7 257 92.3 258.2 92 C 259.4 91.7 260.6 91.5 261.8 91.4 C 263.4 91.2 264.7 91 265.7 90.9 C 266.7 90.8 267.4 90.6 267.9 90.3 C 268.4 90.1 268.6 89.6 268.6 89 C 268.6 89 268.6 88.8 268.6 88.8 C 268.6 87.2 268.1 85.9 267.2 84.9 C 266.3 84 264.9 83.5 263.1 83.5 C 261.2 83.5 259.6 83.9 258.6 84.8 C 257.5 85.6 256.7 86.5 256.3 87.5 C 256.3 87.5 252.4 86.1 252.4 86.1 C 253.1 84.5 254 83.3 255.2 82.4 C 256.3 81.5 257.6 80.9 258.9 80.5 C 260.3 80.2 261.6 80 262.9 80 C 263.8 80 264.7 80.1 265.8 80.3 C 266.9 80.5 268 80.9 269 81.5 C 270.1 82.1 270.9 83 271.6 84.3 C 272.3 85.5 272.6 87.2 272.6 89.3 C 272.62 89.25 272.6 106.5 272.6 106.5 L 268.6 106.5 L 268.6 103 C 268.6 103 268.39 102.95 268.4 103 C 268.1 103.5 267.7 104.1 267 104.8 C 266.4 105.4 265.5 106 264.5 106.4 C 263.4 106.9 262.1 107.1 260.6 107.1 Z M 261.2 103.5 C 262.8 103.5 264.2 103.2 265.3 102.6 C 266.4 101.9 267.2 101.1 267.8 100.1 C 268.3 99.2 268.6 98.1 268.6 97 C 268.6 97 268.6 93.3 268.6 93.3 C 268.4 93.5 268.1 93.7 267.5 93.9 C 266.9 94.1 266.2 94.2 265.5 94.3 C 264.8 94.4 264 94.5 263.3 94.6 C 262.6 94.7 262.1 94.8 261.6 94.8 C 260.6 95 259.6 95.2 258.7 95.5 C 257.8 95.8 257.1 96.2 256.5 96.8 C 256 97.4 255.7 98.3 255.7 99.3 C 255.7 100.7 256.2 101.7 257.3 102.4 C 258.3 103.1 259.6 103.5 261.2 103.5 Z M 283.4 71.6 L 283.4 106.5 L 279.4 106.5 L 279.4 71.6 L 283.4 71.6 Z M 306.7 95.8 C 306.71 95.8 306.7 80.3 306.7 80.3 L 310.7 80.3 L 310.7 106.5 L 306.7 106.5 L 306.7 102.1 C 306.7 102.1 306.44 102.07 306.4 102.1 C 305.8 103.4 304.9 104.5 303.6 105.5 C 302.3 106.4 300.6 106.8 298.7 106.8 C 297 106.8 295.6 106.5 294.3 105.8 C 293 105 292 103.9 291.3 102.5 C 290.6 101 290.2 99.2 290.2 97 C 290.21 96.95 290.2 80.3 290.2 80.3 L 294.2 80.3 C 294.2 80.3 294.24 96.68 294.2 96.7 C 294.2 98.6 294.8 100.1 295.8 101.3 C 296.9 102.4 298.3 103 300 103 C 301 103 302 102.7 303 102.2 C 304.1 101.7 304.9 100.9 305.6 99.8 C 306.4 98.8 306.7 97.4 306.7 95.8 Z M 328.5 107 C 326 107 323.8 106.5 322 105.4 C 320.2 104.2 318.8 102.7 317.8 100.7 C 316.8 98.6 316.3 96.3 316.3 93.6 C 316.3 90.9 316.8 88.6 317.8 86.5 C 318.8 84.5 320.2 82.9 321.9 81.7 C 323.7 80.6 325.8 80 328.1 80 C 329.5 80 330.8 80.2 332.2 80.7 C 333.5 81.1 334.7 81.8 335.8 82.9 C 336.9 83.9 337.8 85.2 338.4 86.9 C 339 88.6 339.4 90.6 339.4 93.1 C 339.37 93.07 339.4 94.8 339.4 94.8 L 319.2 94.8 L 319.2 91.3 C 319.2 91.3 335.28 91.3 335.3 91.3 C 335.3 89.8 335 88.5 334.4 87.3 C 333.8 86.2 333 85.3 331.9 84.6 C 330.8 83.9 329.6 83.6 328.1 83.6 C 326.5 83.6 325.1 84 324 84.8 C 322.8 85.6 321.9 86.6 321.3 87.9 C 320.7 89.1 320.3 90.5 320.3 91.9 C 320.3 91.9 320.3 94.2 320.3 94.2 C 320.3 96.2 320.7 97.9 321.4 99.2 C 322.1 100.6 323 101.7 324.3 102.4 C 325.5 103.1 326.9 103.4 328.5 103.4 C 329.6 103.4 330.5 103.3 331.4 103 C 332.3 102.7 333 102.2 333.6 101.6 C 334.3 101 334.7 100.3 335.1 99.3 C 335.1 99.3 339 100.4 339 100.4 C 338.6 101.8 337.9 102.9 336.9 103.9 C 335.9 104.9 334.7 105.7 333.3 106.2 C 331.9 106.8 330.3 107 328.5 107 Z M 347.4 106.8 C 346.5 106.8 345.8 106.5 345.2 105.9 C 344.6 105.3 344.3 104.5 344.3 103.7 C 344.3 102.9 344.6 102.1 345.2 101.5 C 345.8 100.9 346.5 100.6 347.4 100.6 C 348.2 100.6 348.9 100.9 349.5 101.5 C 350.1 102.1 350.4 102.9 350.4 103.7 C 350.4 104.3 350.3 104.8 350 105.2 C 349.7 105.7 349.4 106.1 348.9 106.4 C 348.4 106.6 347.9 106.8 347.4 106.8 Z M 358.2 71.6 C 358.2 71.6 358.16 74.66 358.2 74.7 C 358.2 75.6 358 76.6 357.7 77.6 C 357.3 78.7 356.8 79.7 356.2 80.7 C 355.5 81.7 354.8 82.5 353.9 83.3 C 353.9 83.3 351.7 81.5 351.7 81.5 C 352.4 80.5 353 79.4 353.5 78.3 C 354.1 77.2 354.3 76 354.3 74.7 C 354.34 74.73 354.3 71.6 354.3 71.6 L 358.2 71.6 Z M 366.9 71.6 C 366.9 71.6 366.88 74.66 366.9 74.7 C 366.9 75.6 366.7 76.6 366.4 77.6 C 366 78.7 365.6 79.7 364.9 80.7 C 364.3 81.7 363.5 82.5 362.6 83.3 C 362.6 83.3 360.4 81.5 360.4 81.5 C 361.1 80.5 361.7 79.4 362.3 78.3 C 362.8 77.2 363.1 76 363.1 74.7 C 363.07 74.73 363.1 71.6 363.1 71.6 L 366.9 71.6 Z " stroke="none" fill="#ffffff"/>  </g>  <g id="Polygon123036">    <path d="M 2.3 22.5 C 2.3 22.5 2.32 19.43 2.3 19.4 C 2.3 18.5 2.5 17.5 2.8 16.5 C 3.2 15.4 3.6 14.4 4.3 13.4 C 4.9 12.4 5.7 11.6 6.6 10.8 C 6.6 10.8 8.8 12.6 8.8 12.6 C 8.1 13.6 7.5 14.7 6.9 15.8 C 6.4 16.9 6.1 18.1 6.1 19.4 C 6.14 19.36 6.1 22.5 6.1 22.5 L 2.3 22.5 Z M 11 22.5 C 11 22.5 11.05 19.43 11 19.4 C 11 18.5 11.2 17.5 11.5 16.5 C 11.9 15.4 12.4 14.4 13 13.4 C 13.7 12.4 14.4 11.6 15.3 10.8 C 15.3 10.8 17.5 12.6 17.5 12.6 C 16.8 13.6 16.2 14.7 15.7 15.8 C 15.1 16.9 14.9 18.1 14.9 19.4 C 14.86 19.36 14.9 22.5 14.9 22.5 L 11 22.5 Z M 20.6 46.5 L 16.2 46.5 L 29 11.6 L 33.4 11.6 L 46.2 46.5 L 41.8 46.5 L 31.3 17.1 L 31.1 17.1 L 20.6 46.5 Z M 22.3 32.9 L 40.1 32.9 L 40.1 36.6 L 22.3 36.6 L 22.3 32.9 Z M 55.4 11.6 L 55.4 46.5 L 51.1 46.5 L 51.1 11.6 L 55.4 11.6 Z M 82.7 46.5 L 74.7 20.3 L 79 20.3 L 84.6 40.4 L 84.9 40.4 L 90.5 20.3 L 94.8 20.3 L 100.3 40.3 L 100.6 40.3 L 106.2 20.3 L 110.5 20.3 L 102.5 46.5 L 98.5 46.5 L 92.8 26.4 L 92.4 26.4 L 86.7 46.5 L 82.7 46.5 Z M 115 46.5 L 115 20.3 L 119 20.3 L 119 46.5 L 115 46.5 Z M 117 16 C 116.2 16 115.6 15.7 115 15.2 C 114.4 14.6 114.2 14 114.2 13.2 C 114.2 12.5 114.4 11.8 115 11.3 C 115.6 10.8 116.2 10.5 117 10.5 C 117.8 10.5 118.5 10.8 119 11.3 C 119.6 11.8 119.9 12.5 119.9 13.2 C 119.9 14 119.6 14.6 119 15.2 C 118.5 15.7 117.8 16 117 16 Z M 129.8 11.6 L 129.8 46.5 L 125.8 46.5 L 125.8 11.6 L 129.8 11.6 Z M 140.7 11.6 L 140.7 46.5 L 136.7 46.5 L 136.7 11.6 L 140.7 11.6 Z M 161.5 56.3 L 161.5 20.3 L 165.4 20.3 L 165.4 24.5 C 165.4 24.5 165.91 24.48 165.9 24.5 C 166.2 24 166.6 23.4 167.1 22.7 C 167.7 22 168.4 21.4 169.4 20.8 C 170.4 20.3 171.8 20 173.5 20 C 175.7 20 177.6 20.5 179.3 21.6 C 181 22.7 182.3 24.3 183.2 26.3 C 184.2 28.3 184.7 30.7 184.7 33.5 C 184.7 36.3 184.2 38.7 183.2 40.7 C 182.3 42.7 181 44.3 179.3 45.4 C 177.7 46.5 175.7 47 173.5 47 C 171.9 47 170.5 46.8 169.5 46.2 C 168.5 45.6 167.7 45 167.2 44.3 C 166.6 43.6 166.2 43 165.9 42.5 C 165.91 42.48 165.6 42.5 165.6 42.5 L 165.6 56.3 L 161.5 56.3 Z M 165.5 33.4 C 165.5 35.4 165.8 37.1 166.4 38.6 C 166.9 40.1 167.8 41.3 168.9 42.2 C 170 43 171.4 43.4 173 43.4 C 174.7 43.4 176.1 43 177.2 42.1 C 178.3 41.2 179.2 40 179.8 38.5 C 180.3 37 180.6 35.3 180.6 33.4 C 180.6 31.6 180.4 29.9 179.8 28.4 C 179.2 26.9 178.4 25.8 177.3 24.9 C 176.1 24 174.7 23.6 173 23.6 C 171.4 23.6 170 24 168.9 24.8 C 167.8 25.7 166.9 26.8 166.4 28.3 C 165.8 29.7 165.5 31.5 165.5 33.4 Z M 190.3 46.5 L 190.3 20.3 L 194.1 20.3 L 194.1 24.3 C 194.1 24.3 194.42 24.27 194.4 24.3 C 194.9 23 195.8 21.9 197 21.1 C 198.3 20.3 199.7 19.9 201.2 19.9 C 201.5 19.9 201.9 19.9 202.3 19.9 C 202.8 19.9 203.1 20 203.4 20 C 203.4 20 203.4 24.1 203.4 24.1 C 203.2 24 202.9 24 202.4 23.9 C 201.9 23.8 201.4 23.8 200.9 23.8 C 199.6 23.8 198.5 24.1 197.5 24.6 C 196.5 25.1 195.7 25.8 195.1 26.8 C 194.6 27.7 194.3 28.8 194.3 29.9 C 194.29 29.93 194.3 46.5 194.3 46.5 L 190.3 46.5 Z M 217.6 47 C 215.3 47 213.2 46.5 211.4 45.4 C 209.6 44.2 208.3 42.7 207.3 40.6 C 206.3 38.6 205.8 36.3 205.8 33.5 C 205.8 30.8 206.3 28.4 207.3 26.4 C 208.3 24.4 209.6 22.8 211.4 21.7 C 213.2 20.5 215.3 20 217.6 20 C 220 20 222.1 20.5 223.9 21.7 C 225.6 22.8 227 24.4 228 26.4 C 229 28.4 229.5 30.8 229.5 33.5 C 229.5 36.3 229 38.6 228 40.6 C 227 42.7 225.6 44.2 223.9 45.4 C 222.1 46.5 220 47 217.6 47 Z M 217.6 43.4 C 219.4 43.4 220.9 43 222.1 42.1 C 223.2 41.1 224.1 39.9 224.6 38.4 C 225.2 36.9 225.5 35.3 225.5 33.5 C 225.5 31.8 225.2 30.2 224.6 28.7 C 224.1 27.1 223.2 25.9 222.1 25 C 220.9 24.1 219.4 23.6 217.6 23.6 C 215.8 23.6 214.4 24.1 213.2 25 C 212 25.9 211.2 27.1 210.6 28.7 C 210.1 30.2 209.8 31.8 209.8 33.5 C 209.8 35.3 210.1 36.9 210.6 38.4 C 211.2 39.9 212 41.1 213.2 42.1 C 214.4 43 215.8 43.4 217.6 43.4 Z M 255.1 20.3 L 245.4 46.5 L 241.4 46.5 L 231.7 20.3 L 236 20.3 L 243.3 41.2 L 243.5 41.2 L 250.8 20.3 L 255.1 20.3 Z M 259.6 46.5 L 259.6 20.3 L 263.7 20.3 L 263.7 46.5 L 259.6 46.5 Z M 261.7 16 C 260.9 16 260.2 15.7 259.7 15.2 C 259.1 14.6 258.8 14 258.8 13.2 C 258.8 12.5 259.1 11.8 259.7 11.3 C 260.2 10.8 260.9 10.5 261.7 10.5 C 262.5 10.5 263.1 10.8 263.7 11.3 C 264.3 11.8 264.5 12.5 264.5 13.2 C 264.5 14 264.3 14.6 263.7 15.2 C 263.1 15.7 262.5 16 261.7 16 Z M 280.2 47 C 278 47 276.1 46.5 274.4 45.4 C 272.8 44.3 271.5 42.7 270.5 40.7 C 269.6 38.7 269.1 36.3 269.1 33.5 C 269.1 30.7 269.6 28.3 270.5 26.3 C 271.5 24.3 272.8 22.7 274.5 21.6 C 276.1 20.5 278.1 20 280.3 20 C 282 20 283.3 20.3 284.3 20.8 C 285.3 21.4 286.1 22 286.6 22.7 C 287.2 23.4 287.6 24 287.9 24.5 C 287.86 24.48 288.2 24.5 288.2 24.5 L 288.2 11.6 L 292.2 11.6 L 292.2 46.5 L 288.3 46.5 L 288.3 42.5 C 288.3 42.5 287.86 42.48 287.9 42.5 C 287.6 43 287.1 43.6 286.6 44.3 C 286.1 45 285.3 45.6 284.3 46.2 C 283.3 46.8 281.9 47 280.2 47 Z M 280.8 43.4 C 282.4 43.4 283.7 43 284.9 42.2 C 286 41.3 286.8 40.1 287.4 38.6 C 288 37.1 288.3 35.4 288.3 33.4 C 288.3 31.5 288 29.7 287.4 28.3 C 286.9 26.8 286 25.7 284.9 24.8 C 283.8 24 282.4 23.6 280.8 23.6 C 279.1 23.6 277.6 24 276.5 24.9 C 275.4 25.8 274.5 26.9 274 28.4 C 273.4 29.9 273.1 31.6 273.1 33.4 C 273.1 35.3 273.4 37 274 38.5 C 274.6 40 275.4 41.2 276.6 42.1 C 277.7 43 279.1 43.4 280.8 43.4 Z M 310.3 47 C 307.7 47 305.6 46.5 303.7 45.4 C 301.9 44.2 300.5 42.7 299.5 40.7 C 298.5 38.6 298.1 36.3 298.1 33.6 C 298.1 30.9 298.5 28.6 299.5 26.5 C 300.5 24.5 301.9 22.9 303.7 21.7 C 305.4 20.6 307.5 20 309.9 20 C 311.2 20 312.6 20.2 313.9 20.7 C 315.2 21.1 316.4 21.8 317.5 22.9 C 318.6 23.9 319.5 25.2 320.1 26.9 C 320.8 28.6 321.1 30.6 321.1 33.1 C 321.1 33.07 321.1 34.8 321.1 34.8 L 300.9 34.8 L 300.9 31.3 C 300.9 31.3 317.01 31.3 317 31.3 C 317 29.8 316.7 28.5 316.1 27.3 C 315.5 26.2 314.7 25.3 313.6 24.6 C 312.6 23.9 311.3 23.6 309.9 23.6 C 308.3 23.6 306.9 24 305.7 24.8 C 304.5 25.6 303.6 26.6 303 27.9 C 302.4 29.1 302.1 30.5 302.1 31.9 C 302.1 31.9 302.1 34.2 302.1 34.2 C 302.1 36.2 302.4 37.9 303.1 39.2 C 303.8 40.6 304.8 41.7 306 42.4 C 307.2 43.1 308.6 43.4 310.3 43.4 C 311.3 43.4 312.3 43.3 313.1 43 C 314 42.7 314.7 42.2 315.4 41.6 C 316 41 316.5 40.3 316.8 39.3 C 316.8 39.3 320.7 40.4 320.7 40.4 C 320.3 41.8 319.6 42.9 318.6 43.9 C 317.7 44.9 316.5 45.7 315.1 46.2 C 313.6 46.8 312 47 310.3 47 Z M 340.7 46.5 L 340.7 20.3 L 344.8 20.3 L 344.8 46.5 L 340.7 46.5 Z M 342.8 16 C 342 16 341.3 15.7 340.8 15.2 C 340.2 14.6 339.9 14 339.9 13.2 C 339.9 12.5 340.2 11.8 340.8 11.3 C 341.3 10.8 342 10.5 342.8 10.5 C 343.6 10.5 344.2 10.8 344.8 11.3 C 345.4 11.8 345.6 12.5 345.6 13.2 C 345.6 14 345.4 14.6 344.8 15.2 C 344.2 15.7 343.6 16 342.8 16 Z M 351.6 46.5 L 351.6 20.3 L 355.5 20.3 L 355.5 24.4 C 355.5 24.4 355.84 24.41 355.8 24.4 C 356.4 23 357.3 21.9 358.5 21.1 C 359.7 20.4 361.2 20 362.9 20 C 364.6 20 366 20.4 367.2 21.1 C 368.3 21.9 369.2 23 369.9 24.4 C 369.9 24.4 370.2 24.4 370.2 24.4 C 370.8 23.1 371.8 22 373.2 21.2 C 374.5 20.4 376.1 20 378 20 C 380.3 20 382.3 20.7 383.7 22.2 C 385.2 23.6 386 25.9 386 29 C 385.98 28.98 386 46.5 386 46.5 L 382 46.5 C 382 46.5 381.95 28.98 382 29 C 382 27 381.4 25.7 380.4 24.8 C 379.3 24 378.1 23.6 376.6 23.6 C 374.8 23.6 373.4 24.1 372.4 25.3 C 371.3 26.4 370.8 27.8 370.8 29.5 C 370.84 29.45 370.8 46.5 370.8 46.5 L 366.7 46.5 C 366.7 46.5 366.75 28.57 366.7 28.6 C 366.7 27.1 366.3 25.9 365.3 25 C 364.3 24 363.1 23.6 361.6 23.6 C 360.5 23.6 359.5 23.9 358.6 24.4 C 357.7 25 357 25.8 356.5 26.7 C 355.9 27.7 355.6 28.9 355.6 30.1 C 355.63 30.14 355.6 46.5 355.6 46.5 L 351.6 46.5 Z M 392.8 46.5 L 392.8 20.3 L 396.6 20.3 L 396.6 24.4 C 396.6 24.4 396.98 24.41 397 24.4 C 397.5 23 398.4 21.9 399.6 21.1 C 400.8 20.4 402.3 20 404 20 C 405.7 20 407.2 20.4 408.3 21.1 C 409.5 21.9 410.4 23 411 24.4 C 411 24.4 411.3 24.4 411.3 24.4 C 412 23.1 413 22 414.3 21.2 C 415.7 20.4 417.3 20 419.1 20 C 421.5 20 423.4 20.7 424.9 22.2 C 426.4 23.6 427.1 25.9 427.1 29 C 427.12 28.98 427.1 46.5 427.1 46.5 L 423.1 46.5 C 423.1 46.5 423.09 28.98 423.1 29 C 423.1 27 422.6 25.7 421.5 24.8 C 420.5 24 419.2 23.6 417.8 23.6 C 415.9 23.6 414.5 24.1 413.5 25.3 C 412.5 26.4 412 27.8 412 29.5 C 411.98 29.45 412 46.5 412 46.5 L 407.9 46.5 C 407.9 46.5 407.89 28.57 407.9 28.6 C 407.9 27.1 407.4 25.9 406.4 25 C 405.5 24 404.2 23.6 402.7 23.6 C 401.7 23.6 400.7 23.9 399.8 24.4 C 398.9 25 398.2 25.8 397.6 26.7 C 397.1 27.7 396.8 28.9 396.8 30.1 C 396.78 30.14 396.8 46.5 396.8 46.5 L 392.8 46.5 Z M 444.8 47 C 442.3 47 440.1 46.5 438.3 45.4 C 436.5 44.2 435.1 42.7 434.1 40.7 C 433.1 38.6 432.6 36.3 432.6 33.6 C 432.6 30.9 433.1 28.6 434.1 26.5 C 435.1 24.5 436.4 22.9 438.2 21.7 C 440 20.6 442 20 444.4 20 C 445.8 20 447.1 20.2 448.4 20.7 C 449.8 21.1 451 21.8 452.1 22.9 C 453.2 23.9 454 25.2 454.7 26.9 C 455.3 28.6 455.7 30.6 455.7 33.1 C 455.65 33.07 455.7 34.8 455.7 34.8 L 435.5 34.8 L 435.5 31.3 C 435.5 31.3 451.56 31.3 451.6 31.3 C 451.6 29.8 451.3 28.5 450.7 27.3 C 450.1 26.2 449.3 25.3 448.2 24.6 C 447.1 23.9 445.9 23.6 444.4 23.6 C 442.8 23.6 441.4 24 440.3 24.8 C 439.1 25.6 438.2 26.6 437.6 27.9 C 436.9 29.1 436.6 30.5 436.6 31.9 C 436.6 31.9 436.6 34.2 436.6 34.2 C 436.6 36.2 437 37.9 437.7 39.2 C 438.4 40.6 439.3 41.7 440.5 42.4 C 441.8 43.1 443.2 43.4 444.8 43.4 C 445.9 43.4 446.8 43.3 447.7 43 C 448.5 42.7 449.3 42.2 449.9 41.6 C 450.5 41 451 40.3 451.4 39.3 C 451.4 39.3 455.2 40.4 455.2 40.4 C 454.8 41.8 454.1 42.9 453.2 43.9 C 452.2 44.9 451 45.7 449.6 46.2 C 448.2 46.8 446.6 47 444.8 47 Z M 471.1 47 C 468.9 47 467 46.5 465.3 45.4 C 463.6 44.3 462.3 42.7 461.4 40.7 C 460.4 38.7 460 36.3 460 33.5 C 460 30.7 460.4 28.3 461.4 26.3 C 462.3 24.3 463.6 22.7 465.3 21.6 C 467 20.5 468.9 20 471.2 20 C 472.9 20 474.2 20.3 475.2 20.8 C 476.2 21.4 477 22 477.5 22.7 C 478 23.4 478.4 24 478.7 24.5 C 478.72 24.48 479.1 24.5 479.1 24.5 L 479.1 11.6 L 483.1 11.6 L 483.1 46.5 L 479.2 46.5 L 479.2 42.5 C 479.2 42.5 478.72 42.48 478.7 42.5 C 478.4 43 478 43.6 477.5 44.3 C 476.9 45 476.1 45.6 475.1 46.2 C 474.1 46.8 472.8 47 471.1 47 Z M 471.6 43.4 C 473.2 43.4 474.6 43 475.7 42.2 C 476.8 41.3 477.7 40.1 478.3 38.6 C 478.8 37.1 479.1 35.4 479.1 33.4 C 479.1 31.5 478.8 29.7 478.3 28.3 C 477.7 26.8 476.9 25.7 475.8 24.8 C 474.6 24 473.3 23.6 471.6 23.6 C 469.9 23.6 468.5 24 467.4 24.9 C 466.2 25.8 465.4 26.9 464.8 28.4 C 464.3 29.9 464 31.6 464 33.4 C 464 35.3 464.3 37 464.9 38.5 C 465.4 40 466.3 41.2 467.4 42.1 C 468.5 43 469.9 43.4 471.6 43.4 Z M 490.2 46.5 L 490.2 20.3 L 494.2 20.3 L 494.2 46.5 L 490.2 46.5 Z M 492.2 16 C 491.4 16 490.7 15.7 490.2 15.2 C 489.6 14.6 489.3 14 489.3 13.2 C 489.3 12.5 489.6 11.8 490.2 11.3 C 490.7 10.8 491.4 10.5 492.2 10.5 C 493 10.5 493.7 10.8 494.2 11.3 C 494.8 11.8 495.1 12.5 495.1 13.2 C 495.1 14 494.8 14.6 494.2 15.2 C 493.7 15.7 493 16 492.2 16 Z M 508.5 47.1 C 506.8 47.1 505.3 46.8 503.9 46.2 C 502.6 45.5 501.5 44.6 500.7 43.4 C 499.9 42.2 499.5 40.8 499.5 39.1 C 499.5 37.6 499.8 36.3 500.4 35.4 C 501 34.5 501.8 33.7 502.8 33.2 C 503.8 32.7 504.9 32.3 506.1 32 C 507.3 31.7 508.5 31.5 509.7 31.4 C 511.3 31.2 512.6 31 513.6 30.9 C 514.6 30.8 515.3 30.6 515.7 30.3 C 516.2 30.1 516.4 29.6 516.4 29 C 516.4 29 516.4 28.8 516.4 28.8 C 516.4 27.2 516 25.9 515.1 24.9 C 514.1 24 512.8 23.5 510.9 23.5 C 509 23.5 507.5 23.9 506.4 24.8 C 505.3 25.6 504.5 26.5 504.1 27.5 C 504.1 27.5 500.3 26.1 500.3 26.1 C 501 24.5 501.9 23.3 503 22.4 C 504.2 21.5 505.4 20.9 506.8 20.5 C 508.1 20.2 509.5 20 510.8 20 C 511.6 20 512.6 20.1 513.7 20.3 C 514.8 20.5 515.8 20.9 516.9 21.5 C 517.9 22.1 518.8 23 519.4 24.3 C 520.1 25.5 520.5 27.2 520.5 29.3 C 520.46 29.25 520.5 46.5 520.5 46.5 L 516.4 46.5 L 516.4 43 C 516.4 43 516.23 42.95 516.2 43 C 516 43.5 515.5 44.1 514.9 44.8 C 514.2 45.4 513.4 46 512.3 46.4 C 511.3 46.9 510 47.1 508.5 47.1 Z M 509.1 43.5 C 510.7 43.5 512 43.2 513.1 42.6 C 514.2 41.9 515 41.1 515.6 40.1 C 516.2 39.2 516.4 38.1 516.4 37 C 516.4 37 516.4 33.3 516.4 33.3 C 516.3 33.5 515.9 33.7 515.3 33.9 C 514.7 34.1 514.1 34.2 513.3 34.3 C 512.6 34.4 511.9 34.5 511.2 34.6 C 510.5 34.7 509.9 34.8 509.5 34.8 C 508.4 35 507.5 35.2 506.6 35.5 C 505.7 35.8 504.9 36.2 504.4 36.8 C 503.8 37.4 503.6 38.3 503.6 39.3 C 503.6 40.7 504.1 41.7 505.1 42.4 C 506.1 43.1 507.5 43.5 509.1 43.5 Z M 538 20.3 L 538 23.7 L 524.4 23.7 L 524.4 20.3 L 538 20.3 Z M 528.4 14 L 532.4 14 C 532.4 14 532.38 39 532.4 39 C 532.4 40.1 532.5 41 532.9 41.5 C 533.2 42.1 533.6 42.5 534.2 42.7 C 534.7 42.9 535.3 43 535.9 43 C 536.3 43 536.7 42.9 536.9 42.9 C 537.2 42.8 537.5 42.8 537.6 42.8 C 537.6 42.8 538.4 46.4 538.4 46.4 C 538.2 46.5 537.8 46.6 537.3 46.7 C 536.8 46.8 536.2 46.8 535.4 46.8 C 534.3 46.8 533.2 46.6 532.1 46.1 C 531 45.6 530.1 44.9 529.4 43.9 C 528.7 42.9 528.4 41.6 528.4 40.1 C 528.35 40.09 528.4 14 528.4 14 Z M 553.1 47 C 550.5 47 548.4 46.5 546.5 45.4 C 544.7 44.2 543.3 42.7 542.3 40.7 C 541.3 38.6 540.9 36.3 540.9 33.6 C 540.9 30.9 541.3 28.6 542.3 26.5 C 543.3 24.5 544.7 22.9 546.5 21.7 C 548.2 20.6 550.3 20 552.7 20 C 554 20 555.4 20.2 556.7 20.7 C 558 21.1 559.2 21.8 560.3 22.9 C 561.4 23.9 562.3 25.2 562.9 26.9 C 563.6 28.6 563.9 30.6 563.9 33.1 C 563.9 33.07 563.9 34.8 563.9 34.8 L 543.7 34.8 L 543.7 31.3 C 543.7 31.3 559.81 31.3 559.8 31.3 C 559.8 29.8 559.5 28.5 558.9 27.3 C 558.3 26.2 557.5 25.3 556.4 24.6 C 555.4 23.9 554.1 23.6 552.7 23.6 C 551.1 23.6 549.7 24 548.5 24.8 C 547.3 25.6 546.4 26.6 545.8 27.9 C 545.2 29.1 544.9 30.5 544.9 31.9 C 544.9 31.9 544.9 34.2 544.9 34.2 C 544.9 36.2 545.2 37.9 545.9 39.2 C 546.6 40.6 547.6 41.7 548.8 42.4 C 550 43.1 551.4 43.4 553.1 43.4 C 554.1 43.4 555.1 43.3 555.9 43 C 556.8 42.7 557.5 42.2 558.2 41.6 C 558.8 41 559.3 40.3 559.6 39.3 C 559.6 39.3 563.5 40.4 563.5 40.4 C 563.1 41.8 562.4 42.9 561.4 43.9 C 560.5 44.9 559.3 45.7 557.9 46.2 C 556.4 46.8 554.8 47 553.1 47 Z " stroke="none" fill="#ffffff"/>  </g></svg>