<?xml version="1.0" standalone="no"?><!DOCTYPE svg PUBLIC "-//W3C//DTD SVG 1.1//EN" "http://www.w3.org/Graphics/SVG/1.1/DTD/svg11.dtd"><svg xmlns="http://www.w3.org/2000/svg" version="1.1" width="894.3px" height="113.2px" viewBox="0 -25 894.3 113.2" style="top:-25px">  <desc>Unclear application</desc>  <defs/>  <g id="Polygon119243">    <path d="M 34.3 0 L 44.6 0 C 44.6 0 44.63 31.64 44.6 31.6 C 44.6 35.2 43.8 38.3 42.1 41 C 40.4 43.6 38.1 45.7 35 47.2 C 32 48.7 28.5 49.4 24.4 49.4 C 20.4 49.4 16.9 48.7 13.8 47.2 C 10.8 45.7 8.4 43.6 6.8 41 C 5.1 38.3 4.2 35.2 4.2 31.6 C 4.24 31.64 4.2 0 4.2 0 L 14.5 0 C 14.5 0 14.54 30.76 14.5 30.8 C 14.5 32.6 14.9 34.3 15.8 35.7 C 16.6 37.2 17.7 38.3 19.2 39.1 C 20.7 39.9 22.5 40.4 24.4 40.4 C 26.4 40.4 28.2 39.9 29.7 39.1 C 31.1 38.3 32.3 37.2 33.1 35.7 C 33.9 34.3 34.3 32.6 34.3 30.8 C 34.33 30.76 34.3 0 34.3 0 Z M 62.7 27.6 C 62.66 27.6 62.7 48.7 62.7 48.7 L 52.5 48.7 L 52.5 12.2 L 62.2 12.2 L 62.2 18.6 C 62.2 18.6 62.61 18.63 62.6 18.6 C 63.4 16.5 64.8 14.8 66.7 13.6 C 68.6 12.3 70.9 11.7 73.6 11.7 C 76.1 11.7 78.4 12.3 80.2 13.4 C 82.1 14.5 83.6 16.1 84.6 18.1 C 85.7 20.2 86.2 22.6 86.2 25.5 C 86.22 25.46 86.2 48.7 86.2 48.7 L 76.1 48.7 C 76.1 48.7 76.08 27.27 76.1 27.3 C 76.1 25 75.5 23.3 74.4 22 C 73.2 20.8 71.6 20.1 69.6 20.1 C 68.2 20.1 67 20.4 66 21 C 64.9 21.6 64.1 22.4 63.6 23.6 C 63 24.7 62.7 26 62.7 27.6 Z M 109.8 49.4 C 106 49.4 102.8 48.6 100.1 47 C 97.4 45.5 95.4 43.2 93.9 40.4 C 92.5 37.6 91.8 34.3 91.8 30.6 C 91.8 26.9 92.5 23.6 94 20.7 C 95.4 17.9 97.5 15.7 100.2 14.1 C 102.8 12.5 106 11.7 109.7 11.7 C 112.9 11.7 115.7 12.3 118.1 13.4 C 120.5 14.6 122.4 16.2 123.8 18.3 C 125.2 20.4 126 22.9 126.1 25.7 C 126.1 25.7 116.5 25.7 116.5 25.7 C 116.3 23.9 115.6 22.4 114.4 21.3 C 113.3 20.2 111.8 19.6 109.9 19.6 C 108.3 19.6 107 20 105.8 20.9 C 104.6 21.7 103.7 23 103.1 24.6 C 102.4 26.2 102.1 28.2 102.1 30.5 C 102.1 32.8 102.4 34.8 103.1 36.4 C 103.7 38 104.6 39.3 105.8 40.1 C 107 41 108.3 41.4 109.9 41.4 C 111.1 41.4 112.1 41.2 113 40.7 C 114 40.2 114.7 39.5 115.3 38.6 C 115.9 37.7 116.3 36.6 116.5 35.3 C 116.5 35.3 126.1 35.3 126.1 35.3 C 125.9 38.1 125.2 40.6 123.8 42.7 C 122.5 44.8 120.6 46.5 118.2 47.7 C 115.8 48.8 113 49.4 109.8 49.4 Z M 142 0 L 142 48.7 L 131.9 48.7 L 131.9 0 L 142 0 Z M 166 49.4 C 162.2 49.4 159 48.7 156.3 47.1 C 153.6 45.6 151.5 43.4 150 40.6 C 148.6 37.8 147.8 34.5 147.8 30.6 C 147.8 26.9 148.6 23.6 150 20.7 C 151.5 17.9 153.6 15.7 156.2 14.1 C 158.9 12.5 162 11.7 165.6 11.7 C 168 11.7 170.2 12.1 172.3 12.9 C 174.4 13.6 176.2 14.8 177.8 16.3 C 179.4 17.9 180.6 19.8 181.4 22.1 C 182.3 24.4 182.8 27.2 182.8 30.3 C 182.75 30.26 182.8 33 182.8 33 L 151.9 33 L 151.9 26.8 C 151.9 26.8 173.21 26.77 173.2 26.8 C 173.2 25.3 172.9 24 172.3 22.9 C 171.6 21.8 170.7 20.9 169.6 20.2 C 168.5 19.6 167.2 19.3 165.7 19.3 C 164.2 19.3 162.8 19.6 161.7 20.3 C 160.5 21 159.6 22 158.9 23.2 C 158.2 24.3 157.9 25.7 157.9 27.1 C 157.9 27.1 157.9 33.1 157.9 33.1 C 157.9 34.9 158.2 36.4 158.9 37.8 C 159.6 39.1 160.5 40.1 161.7 40.8 C 163 41.5 164.4 41.9 166.1 41.9 C 167.3 41.9 168.3 41.7 169.2 41.4 C 170.2 41.1 171 40.6 171.6 40 C 172.3 39.3 172.8 38.6 173.2 37.6 C 173.2 37.6 182.5 38.3 182.5 38.3 C 182.1 40.5 181.1 42.5 179.6 44.1 C 178.2 45.8 176.3 47.1 174 48 C 171.7 49 169 49.4 166 49.4 Z M 198.7 49.4 C 196.4 49.4 194.3 49 192.5 48.2 C 190.7 47.4 189.2 46.2 188.2 44.6 C 187.1 42.9 186.6 40.9 186.6 38.5 C 186.6 36.5 187 34.8 187.7 33.4 C 188.5 32 189.5 30.9 190.8 30.1 C 192 29.2 193.5 28.6 195.1 28.2 C 196.8 27.7 198.5 27.4 200.3 27.3 C 202.4 27 204.2 26.8 205.5 26.6 C 206.8 26.4 207.7 26.1 208.3 25.7 C 208.9 25.3 209.2 24.8 209.2 24 C 209.2 24 209.2 23.8 209.2 23.8 C 209.2 22.3 208.7 21.2 207.8 20.3 C 206.8 19.5 205.5 19.1 203.7 19.1 C 201.9 19.1 200.5 19.5 199.4 20.3 C 198.3 21.1 197.6 22.1 197.2 23.3 C 197.2 23.3 187.9 22.6 187.9 22.6 C 188.3 20.3 189.3 18.4 190.7 16.8 C 192.1 15.2 193.9 13.9 196.1 13 C 198.3 12.1 200.9 11.7 203.8 11.7 C 205.8 11.7 207.8 11.9 209.6 12.4 C 211.5 12.9 213.2 13.6 214.6 14.6 C 216.1 15.6 217.2 16.9 218 18.5 C 218.9 20 219.3 21.9 219.3 24.1 C 219.3 24.08 219.3 48.7 219.3 48.7 L 209.7 48.7 L 209.7 43.7 C 209.7 43.7 209.41 43.66 209.4 43.7 C 208.8 44.8 208 45.8 207.1 46.7 C 206.1 47.5 204.9 48.2 203.5 48.7 C 202.1 49.2 200.5 49.4 198.7 49.4 Z M 201.6 42.4 C 203.1 42.4 204.4 42.1 205.6 41.5 C 206.7 40.9 207.6 40.1 208.3 39.1 C 208.9 38.1 209.2 36.9 209.2 35.7 C 209.2 35.7 209.2 31.8 209.2 31.8 C 208.9 32 208.5 32.2 207.9 32.3 C 207.4 32.5 206.8 32.7 206.1 32.8 C 205.4 32.9 204.7 33.1 204.1 33.2 C 203.4 33.3 202.8 33.3 202.2 33.4 C 201 33.6 200 33.9 199.1 34.3 C 198.2 34.6 197.5 35.2 197 35.8 C 196.5 36.4 196.3 37.2 196.3 38.2 C 196.3 39.6 196.8 40.6 197.8 41.3 C 198.8 42.1 200.1 42.4 201.6 42.4 Z M 226.6 48.7 L 226.6 12.2 L 236.5 12.2 L 236.5 18.6 C 236.5 18.6 236.84 18.56 236.8 18.6 C 237.5 16.3 238.6 14.6 240.2 13.4 C 241.8 12.2 243.6 11.7 245.6 11.7 C 246.1 11.7 246.7 11.7 247.3 11.8 C 247.9 11.8 248.4 11.9 248.8 12 C 248.8 12 248.8 21 248.8 21 C 248.3 20.9 247.7 20.7 246.8 20.6 C 246 20.5 245.2 20.5 244.5 20.5 C 243 20.5 241.7 20.8 240.5 21.4 C 239.4 22.1 238.5 23 237.8 24.1 C 237.1 25.2 236.8 26.6 236.8 28.1 C 236.77 28.05 236.8 48.7 236.8 48.7 L 226.6 48.7 Z M 280 49.4 C 277.6 49.4 275.6 49 273.7 48.2 C 271.9 47.4 270.5 46.2 269.4 44.6 C 268.4 42.9 267.8 40.9 267.8 38.5 C 267.8 36.5 268.2 34.8 269 33.4 C 269.7 32 270.7 30.9 272 30.1 C 273.3 29.2 274.8 28.6 276.4 28.2 C 278 27.7 279.8 27.4 281.6 27.3 C 283.7 27 285.4 26.8 286.7 26.6 C 288 26.4 289 26.1 289.5 25.7 C 290.1 25.3 290.4 24.8 290.4 24 C 290.4 24 290.4 23.8 290.4 23.8 C 290.4 22.3 290 21.2 289 20.3 C 288.1 19.5 286.7 19.1 285 19.1 C 283.2 19.1 281.7 19.5 280.6 20.3 C 279.6 21.1 278.9 22.1 278.5 23.3 C 278.5 23.3 269.1 22.6 269.1 22.6 C 269.6 20.3 270.5 18.4 271.9 16.8 C 273.3 15.2 275.1 13.9 277.3 13 C 279.6 12.1 282.1 11.7 285 11.7 C 287.1 11.7 289 11.9 290.9 12.4 C 292.8 12.9 294.4 13.6 295.9 14.6 C 297.3 15.6 298.5 16.9 299.3 18.5 C 300.1 20 300.6 21.9 300.6 24.1 C 300.56 24.08 300.6 48.7 300.6 48.7 L 290.9 48.7 L 290.9 43.7 C 290.9 43.7 290.66 43.66 290.7 43.7 C 290.1 44.8 289.3 45.8 288.3 46.7 C 287.3 47.5 286.1 48.2 284.8 48.7 C 283.4 49.2 281.8 49.4 280 49.4 Z M 282.9 42.4 C 284.4 42.4 285.7 42.1 286.8 41.5 C 288 40.9 288.9 40.1 289.5 39.1 C 290.2 38.1 290.5 36.9 290.5 35.7 C 290.5 35.7 290.5 31.8 290.5 31.8 C 290.2 32 289.7 32.2 289.2 32.3 C 288.7 32.5 288 32.7 287.4 32.8 C 286.7 32.9 286 33.1 285.3 33.2 C 284.6 33.3 284 33.3 283.5 33.4 C 282.3 33.6 281.2 33.9 280.3 34.3 C 279.4 34.6 278.8 35.2 278.3 35.8 C 277.8 36.4 277.5 37.2 277.5 38.2 C 277.5 39.6 278 40.6 279 41.3 C 280 42.1 281.3 42.4 282.9 42.4 Z M 307.9 62.4 L 307.9 12.2 L 317.9 12.2 L 317.9 18.3 C 317.9 18.3 318.34 18.32 318.3 18.3 C 318.8 17.3 319.4 16.3 320.3 15.3 C 321.1 14.3 322.2 13.4 323.6 12.7 C 325 12.1 326.7 11.7 328.7 11.7 C 331.4 11.7 333.9 12.4 336.1 13.8 C 338.4 15.2 340.2 17.3 341.5 20 C 342.9 22.8 343.5 26.3 343.5 30.5 C 343.5 34.6 342.9 38 341.6 40.8 C 340.3 43.6 338.5 45.7 336.2 47.2 C 334 48.6 331.5 49.3 328.7 49.3 C 326.7 49.3 325.1 49 323.7 48.3 C 322.3 47.7 321.2 46.9 320.3 45.9 C 319.5 44.9 318.8 43.9 318.3 42.9 C 318.34 42.87 318 42.9 318 42.9 L 318 62.4 L 307.9 62.4 Z M 317.8 30.5 C 317.8 32.6 318.1 34.5 318.7 36.1 C 319.3 37.8 320.2 39 321.3 39.9 C 322.5 40.8 323.9 41.3 325.5 41.3 C 327.1 41.3 328.5 40.8 329.7 39.9 C 330.8 39 331.7 37.7 332.3 36.1 C 332.9 34.5 333.2 32.6 333.2 30.5 C 333.2 28.3 332.9 26.5 332.3 24.9 C 331.7 23.3 330.9 22 329.7 21.1 C 328.6 20.2 327.2 19.8 325.5 19.8 C 323.8 19.8 322.5 20.2 321.3 21.1 C 320.2 22 319.3 23.2 318.7 24.8 C 318.1 26.4 317.8 28.3 317.8 30.5 Z M 349.6 62.4 L 349.6 12.2 L 359.6 12.2 L 359.6 18.3 C 359.6 18.3 360.02 18.32 360 18.3 C 360.5 17.3 361.1 16.3 362 15.3 C 362.8 14.3 363.9 13.4 365.3 12.7 C 366.7 12.1 368.4 11.7 370.4 11.7 C 373.1 11.7 375.5 12.4 377.8 13.8 C 380 15.2 381.8 17.3 383.2 20 C 384.5 22.8 385.2 26.3 385.2 30.5 C 385.2 34.6 384.6 38 383.3 40.8 C 381.9 43.6 380.2 45.7 377.9 47.2 C 375.7 48.6 373.2 49.3 370.4 49.3 C 368.4 49.3 366.8 49 365.4 48.3 C 364 47.7 362.9 46.9 362 45.9 C 361.1 44.9 360.5 43.9 360 42.9 C 360.02 42.87 359.7 42.9 359.7 42.9 L 359.7 62.4 L 349.6 62.4 Z M 359.5 30.5 C 359.5 32.6 359.8 34.5 360.4 36.1 C 361 37.8 361.9 39 363 39.9 C 364.2 40.8 365.5 41.3 367.2 41.3 C 368.8 41.3 370.2 40.8 371.4 39.9 C 372.5 39 373.4 37.7 374 36.1 C 374.6 34.5 374.9 32.6 374.9 30.5 C 374.9 28.3 374.6 26.5 374 24.9 C 373.4 23.3 372.5 22 371.4 21.1 C 370.3 20.2 368.8 19.8 367.2 19.8 C 365.5 19.8 364.1 20.2 363 21.1 C 361.9 22 361 23.2 360.4 24.8 C 359.8 26.4 359.5 28.3 359.5 30.5 Z M 401.5 0 L 401.5 48.7 L 391.3 48.7 L 391.3 0 L 401.5 0 Z M 408.9 48.7 L 408.9 12.2 L 419.1 12.2 L 419.1 48.7 L 408.9 48.7 Z M 414 7.5 C 412.5 7.5 411.2 7 410.2 6 C 409.1 5 408.5 3.8 408.5 2.4 C 408.5 0.9 409.1 -0.3 410.2 -1.3 C 411.2 -2.3 412.5 -2.8 414 -2.8 C 415.5 -2.8 416.8 -2.3 417.9 -1.3 C 419 -0.3 419.5 0.9 419.5 2.3 C 419.5 3.7 419 5 417.9 6 C 416.8 7 415.5 7.5 414 7.5 Z M 442.8 49.4 C 439 49.4 435.8 48.6 433.1 47 C 430.4 45.5 428.4 43.2 426.9 40.4 C 425.5 37.6 424.8 34.3 424.8 30.6 C 424.8 26.9 425.5 23.6 427 20.7 C 428.4 17.9 430.5 15.7 433.2 14.1 C 435.8 12.5 439 11.7 442.7 11.7 C 445.9 11.7 448.7 12.3 451.1 13.4 C 453.5 14.6 455.4 16.2 456.8 18.3 C 458.2 20.4 459 22.9 459.1 25.7 C 459.1 25.7 449.5 25.7 449.5 25.7 C 449.3 23.9 448.6 22.4 447.4 21.3 C 446.3 20.2 444.8 19.6 442.9 19.6 C 441.3 19.6 440 20 438.8 20.9 C 437.6 21.7 436.7 23 436.1 24.6 C 435.4 26.2 435.1 28.2 435.1 30.5 C 435.1 32.8 435.4 34.8 436.1 36.4 C 436.7 38 437.6 39.3 438.8 40.1 C 440 41 441.3 41.4 442.9 41.4 C 444.1 41.4 445.1 41.2 446 40.7 C 447 40.2 447.7 39.5 448.3 38.6 C 448.9 37.7 449.3 36.6 449.5 35.3 C 449.5 35.3 459.1 35.3 459.1 35.3 C 458.9 38.1 458.2 40.6 456.8 42.7 C 455.5 44.8 453.6 46.5 451.2 47.7 C 448.8 48.8 446 49.4 442.8 49.4 Z M 475.1 49.4 C 472.7 49.4 470.6 49 468.8 48.2 C 467 47.4 465.6 46.2 464.5 44.6 C 463.4 42.9 462.9 40.9 462.9 38.5 C 462.9 36.5 463.3 34.8 464 33.4 C 464.8 32 465.8 30.9 467.1 30.1 C 468.4 29.2 469.8 28.6 471.5 28.2 C 473.1 27.7 474.8 27.4 476.6 27.3 C 478.8 27 480.5 26.8 481.8 26.6 C 483.1 26.4 484 26.1 484.6 25.7 C 485.2 25.3 485.5 24.8 485.5 24 C 485.5 24 485.5 23.8 485.5 23.8 C 485.5 22.3 485 21.2 484.1 20.3 C 483.1 19.5 481.8 19.1 480.1 19.1 C 478.3 19.1 476.8 19.5 475.7 20.3 C 474.6 21.1 473.9 22.1 473.6 23.3 C 473.6 23.3 464.2 22.6 464.2 22.6 C 464.7 20.3 465.6 18.4 467 16.8 C 468.4 15.2 470.2 13.9 472.4 13 C 474.6 12.1 477.2 11.7 480.1 11.7 C 482.2 11.7 484.1 11.9 486 12.4 C 487.8 12.9 489.5 13.6 490.9 14.6 C 492.4 15.6 493.5 16.9 494.4 18.5 C 495.2 20 495.6 21.9 495.6 24.1 C 495.64 24.08 495.6 48.7 495.6 48.7 L 486 48.7 L 486 43.7 C 486 43.7 485.74 43.66 485.7 43.7 C 485.2 44.8 484.4 45.8 483.4 46.7 C 482.4 47.5 481.2 48.2 479.8 48.7 C 478.5 49.2 476.9 49.4 475.1 49.4 Z M 478 42.4 C 479.4 42.4 480.8 42.1 481.9 41.5 C 483 40.9 483.9 40.1 484.6 39.1 C 485.2 38.1 485.6 36.9 485.6 35.7 C 485.6 35.7 485.6 31.8 485.6 31.8 C 485.3 32 484.8 32.2 484.3 32.3 C 483.7 32.5 483.1 32.7 482.4 32.8 C 481.7 32.9 481.1 33.1 480.4 33.2 C 479.7 33.3 479.1 33.3 478.5 33.4 C 477.3 33.6 476.3 33.9 475.4 34.3 C 474.5 34.6 473.8 35.2 473.3 35.8 C 472.9 36.4 472.6 37.2 472.6 38.2 C 472.6 39.6 473.1 40.6 474.1 41.3 C 475.1 42.1 476.4 42.4 478 42.4 Z M 521.5 12.2 L 521.5 19.8 L 499.5 19.8 L 499.5 12.2 L 521.5 12.2 Z M 504.5 3.4 L 514.6 3.4 C 514.6 3.4 514.62 37.5 514.6 37.5 C 514.6 38.4 514.8 39.2 515 39.7 C 515.3 40.2 515.7 40.6 516.2 40.8 C 516.8 41 517.4 41.1 518 41.1 C 518.5 41.1 519 41 519.5 40.9 C 519.9 40.8 520.3 40.8 520.6 40.7 C 520.6 40.7 522.2 48.3 522.2 48.3 C 521.7 48.4 520.9 48.6 520 48.8 C 519.1 49 518 49.2 516.7 49.2 C 514.2 49.3 512.1 49 510.3 48.3 C 508.4 47.5 507 46.3 506 44.8 C 505 43.2 504.5 41.2 504.5 38.8 C 504.48 38.83 504.5 3.4 504.5 3.4 Z M 527.1 48.7 L 527.1 12.2 L 537.2 12.2 L 537.2 48.7 L 527.1 48.7 Z M 532.2 7.5 C 530.7 7.5 529.4 7 528.3 6 C 527.3 5 526.7 3.8 526.7 2.4 C 526.7 0.9 527.3 -0.3 528.3 -1.3 C 529.4 -2.3 530.7 -2.8 532.2 -2.8 C 533.7 -2.8 535 -2.3 536.1 -1.3 C 537.1 -0.3 537.7 0.9 537.7 2.3 C 537.7 3.7 537.1 5 536.1 6 C 535 7 533.7 7.5 532.2 7.5 Z M 561 49.4 C 557.3 49.4 554.1 48.7 551.4 47.1 C 548.7 45.5 546.6 43.3 545.2 40.5 C 543.7 37.6 543 34.3 543 30.6 C 543 26.8 543.7 23.5 545.2 20.7 C 546.6 17.9 548.7 15.7 551.4 14.1 C 554.1 12.5 557.3 11.7 561 11.7 C 564.6 11.7 567.8 12.5 570.5 14.1 C 573.2 15.7 575.3 17.9 576.8 20.7 C 578.2 23.5 578.9 26.8 578.9 30.6 C 578.9 34.3 578.2 37.6 576.8 40.5 C 575.3 43.3 573.2 45.5 570.5 47.1 C 567.8 48.7 564.6 49.4 561 49.4 Z M 561 41.6 C 562.7 41.6 564.1 41.1 565.2 40.2 C 566.3 39.2 567.2 37.9 567.8 36.2 C 568.3 34.5 568.6 32.7 568.6 30.5 C 568.6 28.4 568.3 26.5 567.8 24.8 C 567.2 23.2 566.3 21.9 565.2 20.9 C 564.1 19.9 562.7 19.4 561 19.4 C 559.3 19.4 557.9 19.9 556.7 20.9 C 555.6 21.9 554.7 23.2 554.1 24.8 C 553.6 26.5 553.3 28.4 553.3 30.5 C 553.3 32.7 553.6 34.5 554.1 36.2 C 554.7 37.9 555.6 39.2 556.7 40.2 C 557.9 41.1 559.3 41.6 561 41.6 Z M 594.8 27.6 C 594.83 27.6 594.8 48.7 594.8 48.7 L 584.7 48.7 L 584.7 12.2 L 594.4 12.2 L 594.4 18.6 C 594.4 18.6 594.78 18.63 594.8 18.6 C 595.6 16.5 596.9 14.8 598.9 13.6 C 600.8 12.3 603.1 11.7 605.8 11.7 C 608.3 11.7 610.5 12.3 612.4 13.4 C 614.3 14.5 615.8 16.1 616.8 18.1 C 617.9 20.2 618.4 22.6 618.4 25.5 C 618.39 25.46 618.4 48.7 618.4 48.7 L 608.3 48.7 C 608.3 48.7 608.25 27.27 608.3 27.3 C 608.3 25 607.7 23.3 606.5 22 C 605.4 20.8 603.8 20.1 601.8 20.1 C 600.4 20.1 599.2 20.4 598.2 21 C 597.1 21.6 596.3 22.4 595.7 23.6 C 595.1 24.7 594.8 26 594.8 27.6 Z " stroke="none" fill="#ffffff"/>  </g></svg>