<?xml version="1.0" standalone="no"?><!DOCTYPE svg PUBLIC "-//W3C//DTD SVG 1.1//EN" "http://www.w3.org/Graphics/SVG/1.1/DTD/svg11.dtd"><svg xmlns="http://www.w3.org/2000/svg" version="1.1" width="175px" height="73px" viewBox="0 -10 175 73" style="top:-10px">  <desc>Incomplete data access ￼</desc>  <defs/>  <g id="Polygon116181">    <path d="M 6.5 48.4 C 5.5 48.4 4.6 48.1 3.7 47.6 C 2.9 47.1 2.2 46.3 1.7 45.2 C 1.2 44.2 1 42.9 1 41.4 C 1 39.8 1.3 38.5 1.8 37.5 C 2.3 36.4 2.9 35.7 3.8 35.1 C 4.6 34.6 5.5 34.4 6.5 34.4 C 7.3 34.4 7.9 34.5 8.4 34.8 C 9 35 9.4 35.3 9.7 35.7 C 10 36.1 10.2 36.5 10.4 36.8 C 10.4 36.84 10.5 36.8 10.5 36.8 L 10.5 30 L 14.3 30 L 14.3 48.2 L 10.6 48.2 L 10.6 46 C 10.6 46 10.4 46 10.4 46 C 10.2 46.4 10 46.8 9.7 47.1 C 9.3 47.5 8.9 47.8 8.4 48 C 7.9 48.3 7.3 48.4 6.5 48.4 Z M 7.7 45.4 C 8.3 45.4 8.9 45.2 9.3 44.9 C 9.7 44.6 10 44.1 10.3 43.5 C 10.5 42.9 10.6 42.2 10.6 41.4 C 10.6 40.6 10.5 39.8 10.3 39.3 C 10 38.7 9.7 38.2 9.3 37.9 C 8.9 37.5 8.3 37.4 7.7 37.4 C 7.1 37.4 6.6 37.5 6.2 37.9 C 5.7 38.2 5.4 38.7 5.2 39.3 C 5 39.9 4.9 40.6 4.9 41.4 C 4.9 42.2 5 42.9 5.2 43.5 C 5.4 44.1 5.7 44.5 6.2 44.9 C 6.6 45.2 7.1 45.4 7.7 45.4 Z M 21 48.4 C 20.1 48.4 19.3 48.3 18.7 48 C 18 47.7 17.5 47.2 17.1 46.6 C 16.7 46 16.5 45.3 16.5 44.4 C 16.5 43.6 16.6 43 16.9 42.5 C 17.2 41.9 17.5 41.5 18 41.2 C 18.5 40.9 19 40.7 19.7 40.5 C 20.3 40.4 20.9 40.2 21.6 40.2 C 22.4 40.1 23 40 23.5 39.9 C 24 39.9 24.3 39.8 24.6 39.6 C 24.8 39.5 24.9 39.2 24.9 38.9 C 24.9 38.9 24.9 38.9 24.9 38.9 C 24.9 38.3 24.7 37.9 24.4 37.6 C 24 37.3 23.5 37.1 22.9 37.1 C 22.2 37.1 21.6 37.3 21.2 37.6 C 20.8 37.9 20.6 38.3 20.4 38.7 C 20.4 38.7 16.9 38.4 16.9 38.4 C 17.1 37.6 17.5 36.9 18 36.3 C 18.5 35.7 19.2 35.2 20 34.9 C 20.8 34.5 21.8 34.4 22.9 34.4 C 23.6 34.4 24.4 34.5 25.1 34.6 C 25.8 34.8 26.4 35.1 26.9 35.5 C 27.5 35.8 27.9 36.3 28.2 36.9 C 28.5 37.5 28.7 38.2 28.7 39 C 28.67 38.98 28.7 48.2 28.7 48.2 L 25.1 48.2 L 25.1 46.3 C 25.1 46.3 24.98 46.29 25 46.3 C 24.8 46.7 24.5 47.1 24.1 47.4 C 23.7 47.7 23.3 48 22.8 48.2 C 22.3 48.3 21.7 48.4 21 48.4 Z M 22.1 45.8 C 22.6 45.8 23.1 45.7 23.6 45.5 C 24 45.3 24.3 45 24.6 44.6 C 24.8 44.2 24.9 43.8 24.9 43.3 C 24.9 43.3 24.9 41.9 24.9 41.9 C 24.8 41.9 24.6 42 24.4 42.1 C 24.2 42.1 24 42.2 23.7 42.2 C 23.5 42.3 23.2 42.3 23 42.4 C 22.7 42.4 22.5 42.4 22.3 42.5 C 21.8 42.5 21.5 42.6 21.1 42.8 C 20.8 42.9 20.5 43.1 20.4 43.4 C 20.2 43.6 20.1 43.9 20.1 44.2 C 20.1 44.8 20.3 45.2 20.6 45.4 C 21 45.7 21.5 45.8 22.1 45.8 Z M 38.4 34.5 L 38.4 37.4 L 30.2 37.4 L 30.2 34.5 L 38.4 34.5 Z M 32.1 31.3 L 35.9 31.3 C 35.9 31.3 35.86 43.99 35.9 44 C 35.9 44.3 35.9 44.6 36 44.8 C 36.1 45 36.3 45.1 36.5 45.2 C 36.7 45.3 36.9 45.3 37.1 45.3 C 37.3 45.3 37.5 45.3 37.7 45.3 C 37.8 45.2 38 45.2 38.1 45.2 C 38.1 45.2 38.7 48 38.7 48 C 38.5 48.1 38.2 48.1 37.9 48.2 C 37.5 48.3 37.1 48.4 36.6 48.4 C 35.7 48.4 34.9 48.3 34.2 48 C 33.5 47.7 33 47.3 32.6 46.7 C 32.3 46.1 32.1 45.4 32.1 44.5 C 32.08 44.49 32.1 31.3 32.1 31.3 Z M 44.5 48.4 C 43.6 48.4 42.8 48.3 42.1 48 C 41.5 47.7 40.9 47.2 40.5 46.6 C 40.1 46 39.9 45.3 39.9 44.4 C 39.9 43.6 40.1 43 40.3 42.5 C 40.6 41.9 41 41.5 41.5 41.2 C 42 40.9 42.5 40.7 43.1 40.5 C 43.7 40.4 44.4 40.2 45.1 40.2 C 45.8 40.1 46.5 40 47 39.9 C 47.5 39.9 47.8 39.8 48 39.6 C 48.2 39.5 48.4 39.2 48.4 38.9 C 48.4 38.9 48.4 38.9 48.4 38.9 C 48.4 38.3 48.2 37.9 47.8 37.6 C 47.5 37.3 47 37.1 46.3 37.1 C 45.7 37.1 45.1 37.3 44.7 37.6 C 44.3 37.9 44 38.3 43.9 38.7 C 43.9 38.7 40.4 38.4 40.4 38.4 C 40.6 37.6 40.9 36.9 41.5 36.3 C 42 35.7 42.7 35.2 43.5 34.9 C 44.3 34.5 45.3 34.4 46.3 34.4 C 47.1 34.4 47.8 34.5 48.5 34.6 C 49.2 34.8 49.8 35.1 50.4 35.5 C 50.9 35.8 51.4 36.3 51.7 36.9 C 52 37.5 52.1 38.2 52.1 39 C 52.14 38.98 52.1 48.2 52.1 48.2 L 48.6 48.2 L 48.6 46.3 C 48.6 46.3 48.44 46.29 48.4 46.3 C 48.2 46.7 47.9 47.1 47.6 47.4 C 47.2 47.7 46.8 48 46.2 48.2 C 45.7 48.3 45.1 48.4 44.5 48.4 Z M 45.5 45.8 C 46.1 45.8 46.6 45.7 47 45.5 C 47.4 45.3 47.8 45 48 44.6 C 48.3 44.2 48.4 43.8 48.4 43.3 C 48.4 43.3 48.4 41.9 48.4 41.9 C 48.3 41.9 48.1 42 47.9 42.1 C 47.7 42.1 47.5 42.2 47.2 42.2 C 47 42.3 46.7 42.3 46.4 42.4 C 46.2 42.4 46 42.4 45.8 42.5 C 45.3 42.5 44.9 42.6 44.6 42.8 C 44.3 42.9 44 43.1 43.8 43.4 C 43.6 43.6 43.5 43.9 43.5 44.2 C 43.5 44.8 43.7 45.2 44.1 45.4 C 44.5 45.7 45 45.8 45.5 45.8 Z M 64.8 48.4 C 63.9 48.4 63.1 48.3 62.4 48 C 61.8 47.7 61.2 47.2 60.8 46.6 C 60.4 46 60.2 45.3 60.2 44.4 C 60.2 43.6 60.4 43 60.7 42.5 C 60.9 41.9 61.3 41.5 61.8 41.2 C 62.3 40.9 62.8 40.7 63.4 40.5 C 64 40.4 64.7 40.2 65.4 40.2 C 66.1 40.1 66.8 40 67.3 39.9 C 67.8 39.9 68.1 39.8 68.3 39.6 C 68.5 39.5 68.7 39.2 68.7 38.9 C 68.7 38.9 68.7 38.9 68.7 38.9 C 68.7 38.3 68.5 37.9 68.1 37.6 C 67.8 37.3 67.3 37.1 66.6 37.1 C 66 37.1 65.4 37.3 65 37.6 C 64.6 37.9 64.3 38.3 64.2 38.7 C 64.2 38.7 60.7 38.4 60.7 38.4 C 60.9 37.6 61.2 36.9 61.8 36.3 C 62.3 35.7 63 35.2 63.8 34.9 C 64.6 34.5 65.6 34.4 66.7 34.4 C 67.4 34.4 68.1 34.5 68.8 34.6 C 69.5 34.8 70.1 35.1 70.7 35.5 C 71.2 35.8 71.7 36.3 72 36.9 C 72.3 37.5 72.4 38.2 72.4 39 C 72.44 38.98 72.4 48.2 72.4 48.2 L 68.9 48.2 L 68.9 46.3 C 68.9 46.3 68.75 46.29 68.7 46.3 C 68.5 46.7 68.2 47.1 67.9 47.4 C 67.5 47.7 67.1 48 66.5 48.2 C 66 48.3 65.4 48.4 64.8 48.4 Z M 65.8 45.8 C 66.4 45.8 66.9 45.7 67.3 45.5 C 67.7 45.3 68.1 45 68.3 44.6 C 68.6 44.2 68.7 43.8 68.7 43.3 C 68.7 43.3 68.7 41.9 68.7 41.9 C 68.6 41.9 68.4 42 68.2 42.1 C 68 42.1 67.8 42.2 67.5 42.2 C 67.3 42.3 67 42.3 66.8 42.4 C 66.5 42.4 66.3 42.4 66.1 42.5 C 65.6 42.5 65.2 42.6 64.9 42.8 C 64.6 42.9 64.3 43.1 64.1 43.4 C 63.9 43.6 63.8 43.9 63.8 44.2 C 63.8 44.8 64 45.2 64.4 45.4 C 64.8 45.7 65.3 45.8 65.8 45.8 Z M 81.4 48.4 C 80 48.4 78.8 48.2 77.8 47.6 C 76.8 47 76 46.1 75.5 45.1 C 75 44 74.7 42.8 74.7 41.4 C 74.7 40 75 38.8 75.5 37.7 C 76 36.7 76.8 35.9 77.8 35.3 C 78.8 34.7 80 34.4 81.4 34.4 C 82.6 34.4 83.6 34.6 84.5 35 C 85.4 35.4 86.1 36.1 86.6 36.8 C 87.2 37.6 87.4 38.5 87.5 39.6 C 87.5 39.6 83.9 39.6 83.9 39.6 C 83.8 38.9 83.6 38.4 83.1 37.9 C 82.7 37.5 82.1 37.3 81.4 37.3 C 80.9 37.3 80.4 37.5 79.9 37.8 C 79.5 38.1 79.1 38.6 78.9 39.2 C 78.7 39.8 78.5 40.5 78.5 41.4 C 78.5 42.2 78.7 43 78.9 43.6 C 79.1 44.2 79.5 44.7 79.9 45 C 80.4 45.3 80.9 45.5 81.4 45.5 C 81.9 45.5 82.3 45.4 82.6 45.2 C 83 45 83.3 44.8 83.5 44.4 C 83.7 44.1 83.9 43.7 83.9 43.2 C 83.9 43.2 87.5 43.2 87.5 43.2 C 87.4 44.2 87.2 45.1 86.6 45.9 C 86.1 46.7 85.4 47.3 84.6 47.8 C 83.7 48.2 82.6 48.4 81.4 48.4 Z M 95.9 48.4 C 94.5 48.4 93.3 48.2 92.3 47.6 C 91.3 47 90.5 46.1 90 45.1 C 89.4 44 89.2 42.8 89.2 41.4 C 89.2 40 89.4 38.8 90 37.7 C 90.5 36.7 91.3 35.9 92.3 35.3 C 93.3 34.7 94.5 34.4 95.9 34.4 C 97 34.4 98.1 34.6 99 35 C 99.9 35.4 100.6 36.1 101.1 36.8 C 101.6 37.6 101.9 38.5 102 39.6 C 102 39.6 98.4 39.6 98.4 39.6 C 98.3 38.9 98 38.4 97.6 37.9 C 97.2 37.5 96.6 37.3 95.9 37.3 C 95.3 37.3 94.8 37.5 94.4 37.8 C 94 38.1 93.6 38.6 93.4 39.2 C 93.1 39.8 93 40.5 93 41.4 C 93 42.2 93.1 43 93.4 43.6 C 93.6 44.2 93.9 44.7 94.4 45 C 94.8 45.3 95.3 45.5 95.9 45.5 C 96.4 45.5 96.7 45.4 97.1 45.2 C 97.4 45 97.7 44.8 97.9 44.4 C 98.2 44.1 98.3 43.7 98.4 43.2 C 98.4 43.2 102 43.2 102 43.2 C 101.9 44.2 101.6 45.1 101.1 45.9 C 100.6 46.7 99.9 47.3 99 47.8 C 98.1 48.2 97.1 48.4 95.9 48.4 Z M 110.4 48.4 C 109 48.4 107.8 48.2 106.8 47.6 C 105.8 47 105 46.2 104.5 45.2 C 103.9 44.1 103.6 42.9 103.6 41.4 C 103.6 40 103.9 38.8 104.5 37.7 C 105 36.7 105.8 35.8 106.8 35.3 C 107.8 34.7 108.9 34.4 110.3 34.4 C 111.2 34.4 112 34.5 112.8 34.8 C 113.6 35.1 114.2 35.5 114.8 36.1 C 115.4 36.7 115.9 37.4 116.2 38.3 C 116.5 39.1 116.7 40.1 116.7 41.3 C 116.67 41.29 116.7 42.3 116.7 42.3 L 105.2 42.3 L 105.2 40 C 105.2 40 113.11 39.99 113.1 40 C 113.1 39.4 113 39 112.8 38.5 C 112.5 38.1 112.2 37.8 111.8 37.6 C 111.4 37.3 110.9 37.2 110.3 37.2 C 109.7 37.2 109.2 37.3 108.8 37.6 C 108.4 37.8 108 38.2 107.8 38.6 C 107.5 39.1 107.4 39.6 107.4 40.1 C 107.4 40.1 107.4 42.3 107.4 42.3 C 107.4 43 107.5 43.6 107.8 44.1 C 108 44.6 108.4 45 108.8 45.2 C 109.3 45.5 109.8 45.6 110.5 45.6 C 110.9 45.6 111.3 45.6 111.6 45.4 C 112 45.3 112.3 45.2 112.5 44.9 C 112.8 44.7 113 44.4 113.1 44 C 113.1 44 116.6 44.3 116.6 44.3 C 116.4 45.1 116 45.8 115.5 46.5 C 115 47.1 114.2 47.6 113.4 47.9 C 112.5 48.3 111.5 48.4 110.4 48.4 Z M 130.2 38.4 C 130.2 38.4 126.8 38.6 126.8 38.6 C 126.7 38.4 126.6 38.1 126.4 37.8 C 126.2 37.6 125.9 37.4 125.6 37.3 C 125.3 37.1 124.9 37 124.5 37 C 123.9 37 123.4 37.2 123 37.4 C 122.6 37.7 122.4 38 122.4 38.4 C 122.4 38.7 122.5 39 122.8 39.2 C 123.1 39.4 123.5 39.6 124.1 39.8 C 124.1 39.8 126.6 40.3 126.6 40.3 C 127.9 40.5 128.9 41 129.6 41.6 C 130.2 42.2 130.6 43 130.6 44 C 130.6 44.8 130.3 45.6 129.8 46.3 C 129.2 47 128.5 47.5 127.6 47.9 C 126.7 48.3 125.7 48.4 124.5 48.4 C 122.7 48.4 121.2 48.1 120.2 47.3 C 119.1 46.6 118.5 45.5 118.3 44.2 C 118.3 44.2 122 44 122 44 C 122.1 44.6 122.4 45 122.8 45.3 C 123.3 45.6 123.8 45.7 124.5 45.7 C 125.1 45.7 125.7 45.6 126.1 45.3 C 126.5 45.1 126.7 44.7 126.7 44.3 C 126.7 44 126.6 43.7 126.3 43.5 C 126 43.3 125.5 43.1 125 43 C 125 43 122.6 42.5 122.6 42.5 C 121.3 42.2 120.3 41.8 119.6 41.1 C 119 40.5 118.7 39.6 118.7 38.6 C 118.7 37.7 118.9 37 119.4 36.3 C 119.8 35.7 120.5 35.2 121.4 34.9 C 122.3 34.5 123.3 34.4 124.4 34.4 C 126.2 34.4 127.5 34.7 128.5 35.5 C 129.5 36.2 130.1 37.2 130.2 38.4 Z M 144.2 38.4 C 144.2 38.4 140.7 38.6 140.7 38.6 C 140.6 38.4 140.5 38.1 140.3 37.8 C 140.1 37.6 139.9 37.4 139.6 37.3 C 139.2 37.1 138.9 37 138.4 37 C 137.8 37 137.3 37.2 136.9 37.4 C 136.5 37.7 136.3 38 136.3 38.4 C 136.3 38.7 136.5 39 136.7 39.2 C 137 39.4 137.4 39.6 138.1 39.8 C 138.1 39.8 140.5 40.3 140.5 40.3 C 141.9 40.5 142.8 41 143.5 41.6 C 144.1 42.2 144.5 43 144.5 44 C 144.5 44.8 144.2 45.6 143.7 46.3 C 143.2 47 142.4 47.5 141.5 47.9 C 140.6 48.3 139.6 48.4 138.4 48.4 C 136.6 48.4 135.2 48.1 134.1 47.3 C 133 46.6 132.4 45.5 132.2 44.2 C 132.2 44.2 135.9 44 135.9 44 C 136 44.6 136.3 45 136.8 45.3 C 137.2 45.6 137.7 45.7 138.4 45.7 C 139.1 45.7 139.6 45.6 140 45.3 C 140.4 45.1 140.6 44.7 140.6 44.3 C 140.6 44 140.5 43.7 140.2 43.5 C 139.9 43.3 139.5 43.1 138.9 43 C 138.9 43 136.5 42.5 136.5 42.5 C 135.2 42.2 134.2 41.8 133.6 41.1 C 132.9 40.5 132.6 39.6 132.6 38.6 C 132.6 37.7 132.8 37 133.3 36.3 C 133.8 35.7 134.4 35.2 135.3 34.9 C 136.2 34.5 137.2 34.4 138.4 34.4 C 140.1 34.4 141.4 34.7 142.4 35.5 C 143.4 36.2 144 37.2 144.2 38.4 Z " stroke="none" fill="#10283d"/>  </g>  <g id="Polygon116180">    <path d="M 5.4 0 L 5.4 18.2 L 1.6 18.2 L 1.6 0 L 5.4 0 Z M 12.3 10.3 C 12.27 10.3 12.3 18.2 12.3 18.2 L 8.5 18.2 L 8.5 4.5 L 12.1 4.5 L 12.1 7 C 12.1 7 12.25 6.95 12.3 7 C 12.6 6.2 13.1 5.5 13.8 5.1 C 14.5 4.6 15.3 4.4 16.4 4.4 C 17.3 4.4 18.1 4.6 18.8 5 C 19.5 5.4 20.1 6 20.5 6.8 C 20.9 7.5 21.1 8.4 21.1 9.5 C 21.06 9.5 21.1 18.2 21.1 18.2 L 17.3 18.2 C 17.3 18.2 17.28 10.17 17.3 10.2 C 17.3 9.3 17.1 8.7 16.6 8.2 C 16.2 7.7 15.6 7.5 14.9 7.5 C 14.3 7.5 13.9 7.6 13.5 7.8 C 13.1 8.1 12.8 8.4 12.6 8.8 C 12.4 9.2 12.3 9.7 12.3 10.3 Z M 30 18.4 C 28.6 18.4 27.4 18.2 26.4 17.6 C 25.4 17 24.6 16.1 24.1 15.1 C 23.6 14 23.3 12.8 23.3 11.4 C 23.3 10 23.6 8.8 24.1 7.7 C 24.7 6.7 25.4 5.9 26.4 5.3 C 27.4 4.7 28.6 4.4 30 4.4 C 31.2 4.4 32.2 4.6 33.1 5 C 34 5.4 34.7 6.1 35.2 6.8 C 35.8 7.6 36 8.5 36.1 9.6 C 36.1 9.6 32.5 9.6 32.5 9.6 C 32.4 8.9 32.2 8.4 31.7 7.9 C 31.3 7.5 30.7 7.3 30.1 7.3 C 29.5 7.3 29 7.5 28.5 7.8 C 28.1 8.1 27.7 8.6 27.5 9.2 C 27.3 9.8 27.1 10.5 27.1 11.4 C 27.1 12.2 27.3 13 27.5 13.6 C 27.7 14.2 28.1 14.7 28.5 15 C 29 15.3 29.5 15.5 30.1 15.5 C 30.5 15.5 30.9 15.4 31.2 15.2 C 31.6 15 31.9 14.8 32.1 14.4 C 32.3 14.1 32.5 13.7 32.5 13.2 C 32.5 13.2 36.1 13.2 36.1 13.2 C 36 14.2 35.8 15.1 35.3 15.9 C 34.7 16.7 34 17.3 33.2 17.8 C 32.3 18.2 31.2 18.4 30 18.4 Z M 44.5 18.4 C 43.1 18.4 41.9 18.2 40.9 17.6 C 39.9 17 39.1 16.2 38.6 15.1 C 38.1 14 37.8 12.8 37.8 11.4 C 37.8 10 38.1 8.8 38.6 7.7 C 39.1 6.7 39.9 5.8 40.9 5.3 C 41.9 4.7 43.1 4.4 44.5 4.4 C 45.9 4.4 47.1 4.7 48.1 5.3 C 49.1 5.8 49.8 6.7 50.4 7.7 C 50.9 8.8 51.2 10 51.2 11.4 C 51.2 12.8 50.9 14 50.4 15.1 C 49.8 16.2 49.1 17 48.1 17.6 C 47.1 18.2 45.9 18.4 44.5 18.4 Z M 44.5 15.5 C 45.1 15.5 45.7 15.3 46.1 15 C 46.5 14.6 46.8 14.1 47 13.5 C 47.2 12.9 47.4 12.2 47.4 11.4 C 47.4 10.6 47.2 9.9 47 9.3 C 46.8 8.6 46.5 8.2 46.1 7.8 C 45.7 7.4 45.1 7.3 44.5 7.3 C 43.9 7.3 43.3 7.4 42.9 7.8 C 42.5 8.2 42.2 8.6 41.9 9.3 C 41.7 9.9 41.6 10.6 41.6 11.4 C 41.6 12.2 41.7 12.9 41.9 13.5 C 42.2 14.1 42.5 14.6 42.9 15 C 43.3 15.3 43.9 15.5 44.5 15.5 Z M 53.6 18.2 L 53.6 4.5 L 57.2 4.5 L 57.2 7 C 57.2 7 57.34 6.95 57.3 7 C 57.6 6.2 58.1 5.5 58.8 5.1 C 59.4 4.6 60.2 4.4 61.1 4.4 C 62.1 4.4 62.9 4.6 63.5 5.1 C 64.2 5.5 64.6 6.2 64.8 7 C 64.8 7 65 7 65 7 C 65.3 6.2 65.8 5.5 66.5 5.1 C 67.2 4.6 68.1 4.4 69.1 4.4 C 70.4 4.4 71.4 4.8 72.2 5.6 C 73 6.4 73.4 7.5 73.4 9 C 73.4 9.01 73.4 18.2 73.4 18.2 L 69.6 18.2 C 69.6 18.2 69.62 9.76 69.6 9.8 C 69.6 9 69.4 8.4 69 8.1 C 68.6 7.7 68.1 7.5 67.5 7.5 C 66.8 7.5 66.3 7.7 65.9 8.1 C 65.5 8.6 65.3 9.1 65.3 9.9 C 65.33 9.85 65.3 18.2 65.3 18.2 L 61.7 18.2 C 61.7 18.2 61.66 9.68 61.7 9.7 C 61.7 9 61.5 8.5 61.1 8.1 C 60.7 7.7 60.2 7.5 59.6 7.5 C 59.2 7.5 58.8 7.6 58.4 7.8 C 58.1 8 57.8 8.3 57.7 8.7 C 57.5 9.1 57.4 9.5 57.4 10 C 57.36 10 57.4 18.2 57.4 18.2 L 53.6 18.2 Z M 76.3 23.3 L 76.3 4.5 L 80 4.5 L 80 6.8 C 80 6.8 80.16 6.84 80.2 6.8 C 80.3 6.5 80.6 6.1 80.9 5.7 C 81.2 5.3 81.6 5 82.1 4.8 C 82.6 4.5 83.3 4.4 84 4.4 C 85 4.4 86 4.6 86.8 5.1 C 87.6 5.7 88.3 6.4 88.8 7.5 C 89.3 8.5 89.6 9.8 89.6 11.4 C 89.6 12.9 89.3 14.2 88.8 15.2 C 88.3 16.3 87.7 17.1 86.8 17.6 C 86 18.1 85.1 18.4 84 18.4 C 83.3 18.4 82.7 18.3 82.2 18 C 81.7 17.8 81.2 17.5 80.9 17.1 C 80.6 16.8 80.3 16.4 80.2 16 C 80.16 16 80 16 80 16 L 80 23.3 L 76.3 23.3 Z M 80 11.4 C 80 12.2 80.1 12.9 80.3 13.5 C 80.5 14.1 80.9 14.6 81.3 14.9 C 81.7 15.2 82.2 15.4 82.8 15.4 C 83.5 15.4 84 15.2 84.4 14.9 C 84.8 14.5 85.1 14.1 85.4 13.5 C 85.6 12.9 85.7 12.2 85.7 11.4 C 85.7 10.6 85.6 9.9 85.4 9.3 C 85.2 8.7 84.8 8.2 84.4 7.9 C 84 7.5 83.5 7.4 82.8 7.4 C 82.2 7.4 81.7 7.5 81.3 7.9 C 80.9 8.2 80.5 8.7 80.3 9.3 C 80.1 9.8 80 10.6 80 11.4 Z M 95.8 0 L 95.8 18.2 L 92 18.2 L 92 0 L 95.8 0 Z M 105 18.4 C 103.6 18.4 102.3 18.2 101.3 17.6 C 100.3 17 99.6 16.2 99 15.2 C 98.5 14.1 98.2 12.9 98.2 11.4 C 98.2 10 98.5 8.8 99 7.7 C 99.6 6.7 100.3 5.8 101.3 5.3 C 102.3 4.7 103.5 4.4 104.8 4.4 C 105.7 4.4 106.5 4.5 107.3 4.8 C 108.1 5.1 108.8 5.5 109.4 6.1 C 109.9 6.7 110.4 7.4 110.7 8.3 C 111.1 9.1 111.2 10.1 111.2 11.3 C 111.22 11.29 111.2 12.3 111.2 12.3 L 99.7 12.3 L 99.7 10 C 99.7 10 107.66 9.99 107.7 10 C 107.7 9.4 107.5 9 107.3 8.5 C 107.1 8.1 106.7 7.8 106.3 7.6 C 105.9 7.3 105.4 7.2 104.9 7.2 C 104.3 7.2 103.8 7.3 103.3 7.6 C 102.9 7.8 102.6 8.2 102.3 8.6 C 102.1 9.1 101.9 9.6 101.9 10.1 C 101.9 10.1 101.9 12.3 101.9 12.3 C 101.9 13 102.1 13.6 102.3 14.1 C 102.6 14.6 102.9 15 103.4 15.2 C 103.8 15.5 104.4 15.6 105 15.6 C 105.4 15.6 105.8 15.6 106.2 15.4 C 106.5 15.3 106.8 15.2 107.1 14.9 C 107.3 14.7 107.5 14.4 107.6 14 C 107.6 14 111.1 14.3 111.1 14.3 C 111 15.1 110.6 15.8 110 16.5 C 109.5 17.1 108.8 17.6 107.9 17.9 C 107.1 18.3 106.1 18.4 105 18.4 Z M 120.5 4.5 L 120.5 7.4 L 112.3 7.4 L 112.3 4.5 L 120.5 4.5 Z M 114.1 1.3 L 117.9 1.3 C 117.9 1.3 117.91 13.99 117.9 14 C 117.9 14.3 118 14.6 118.1 14.8 C 118.2 15 118.3 15.1 118.5 15.2 C 118.7 15.3 118.9 15.3 119.2 15.3 C 119.4 15.3 119.5 15.3 119.7 15.3 C 119.9 15.2 120 15.2 120.1 15.2 C 120.1 15.2 120.7 18 120.7 18 C 120.5 18.1 120.3 18.1 119.9 18.2 C 119.6 18.3 119.2 18.4 118.7 18.4 C 117.8 18.4 117 18.3 116.3 18 C 115.6 17.7 115.1 17.3 114.7 16.7 C 114.3 16.1 114.1 15.4 114.1 14.5 C 114.13 14.49 114.1 1.3 114.1 1.3 Z M 128.4 18.4 C 127 18.4 125.7 18.2 124.7 17.6 C 123.7 17 123 16.2 122.4 15.2 C 121.9 14.1 121.6 12.9 121.6 11.4 C 121.6 10 121.9 8.8 122.4 7.7 C 123 6.7 123.7 5.8 124.7 5.3 C 125.7 4.7 126.9 4.4 128.2 4.4 C 129.1 4.4 129.9 4.5 130.7 4.8 C 131.5 5.1 132.2 5.5 132.8 6.1 C 133.3 6.7 133.8 7.4 134.1 8.3 C 134.5 9.1 134.6 10.1 134.6 11.3 C 134.61 11.29 134.6 12.3 134.6 12.3 L 123.1 12.3 L 123.1 10 C 123.1 10 131.05 9.99 131.1 10 C 131.1 9.4 130.9 9 130.7 8.5 C 130.5 8.1 130.1 7.8 129.7 7.6 C 129.3 7.3 128.8 7.2 128.3 7.2 C 127.7 7.2 127.2 7.3 126.7 7.6 C 126.3 7.8 126 8.2 125.7 8.6 C 125.5 9.1 125.3 9.6 125.3 10.1 C 125.3 10.1 125.3 12.3 125.3 12.3 C 125.3 13 125.5 13.6 125.7 14.1 C 126 14.6 126.3 15 126.8 15.2 C 127.2 15.5 127.8 15.6 128.4 15.6 C 128.8 15.6 129.2 15.6 129.6 15.4 C 129.9 15.3 130.2 15.2 130.5 14.9 C 130.7 14.7 130.9 14.4 131 14 C 131 14 134.5 14.3 134.5 14.3 C 134.4 15.1 134 15.8 133.4 16.5 C 132.9 17.1 132.2 17.6 131.3 17.9 C 130.5 18.3 129.5 18.4 128.4 18.4 Z " stroke="none" fill="#10283d"/>  </g>  <g id="Polygon116182">    <path d="M 152.1 47.3 L 158.5 40.7 L 152.1 34.1 " style="stroke-width:1.8pt; stroke:#ff4f00;" fill="none"/>  </g></svg>