<?xml version="1.0" standalone="no"?><!DOCTYPE svg PUBLIC "-//W3C//DTD SVG 1.1//EN" "http://www.w3.org/Graphics/SVG/1.1/DTD/svg11.dtd"><svg xmlns="http://www.w3.org/2000/svg" version="1.1" width="300px" height="269.5px" viewBox="0 -14 300 269.5" style="top:-14px">  <desc>Anaplan’s AI delivers precision and reliability for better decision making</desc>  <defs/>  <g id="Polygon124313">    <path d="M 9.1 235.8 C 7.7 235.8 6.4 235.4 5.2 234.6 C 4 233.9 3.1 232.8 2.4 231.3 C 1.7 229.9 1.4 228.1 1.4 225.9 C 1.4 223.7 1.8 221.9 2.5 220.5 C 3.2 219 4.1 217.9 5.3 217.2 C 6.4 216.5 7.7 216.1 9.1 216.1 C 10.2 216.1 11.1 216.3 11.8 216.7 C 12.5 217 13.1 217.5 13.6 218 C 14 218.5 14.3 219.1 14.6 219.6 C 14.57 219.57 14.7 219.6 14.7 219.6 L 14.7 210 L 20 210 L 20 235.5 L 14.8 235.5 L 14.8 232.4 C 14.8 232.4 14.57 232.4 14.6 232.4 C 14.3 232.9 14 233.5 13.5 234 C 13.1 234.5 12.5 234.9 11.8 235.3 C 11 235.6 10.2 235.8 9.1 235.8 Z M 10.8 231.6 C 11.7 231.6 12.4 231.3 13 230.8 C 13.6 230.4 14 229.7 14.4 228.9 C 14.7 228 14.8 227 14.8 225.9 C 14.8 224.8 14.7 223.8 14.4 223 C 14.1 222.1 13.6 221.5 13 221 C 12.4 220.6 11.7 220.3 10.8 220.3 C 10 220.3 9.2 220.6 8.6 221 C 8 221.5 7.6 222.2 7.3 223 C 7 223.8 6.8 224.8 6.8 225.9 C 6.8 227 7 228 7.3 228.8 C 7.6 229.7 8 230.4 8.6 230.8 C 9.2 231.3 10 231.6 10.8 231.6 Z M 32.9 235.8 C 31 235.8 29.3 235.4 27.9 234.6 C 26.4 233.8 25.3 232.7 24.6 231.2 C 23.8 229.8 23.4 228 23.4 226 C 23.4 224 23.8 222.3 24.6 220.8 C 25.3 219.3 26.4 218.2 27.8 217.4 C 29.2 216.5 30.8 216.1 32.7 216.1 C 34 216.1 35.1 216.3 36.2 216.7 C 37.3 217.1 38.3 217.7 39.1 218.5 C 39.9 219.3 40.5 220.3 41 221.6 C 41.4 222.8 41.7 224.2 41.7 225.8 C 41.68 225.81 41.7 227.3 41.7 227.3 L 25.6 227.3 L 25.6 224 C 25.6 224 36.69 223.98 36.7 224 C 36.7 223.2 36.5 222.5 36.2 222 C 35.9 221.4 35.4 220.9 34.8 220.6 C 34.2 220.2 33.6 220.1 32.8 220.1 C 32 220.1 31.3 220.3 30.7 220.6 C 30 221 29.6 221.5 29.2 222.1 C 28.9 222.7 28.7 223.4 28.7 224.2 C 28.7 224.2 28.7 227.3 28.7 227.3 C 28.7 228.2 28.9 229 29.2 229.7 C 29.6 230.4 30.1 230.9 30.7 231.3 C 31.3 231.7 32.1 231.9 33 231.9 C 33.6 231.9 34.1 231.8 34.6 231.6 C 35.1 231.5 35.5 231.2 35.9 230.9 C 36.2 230.5 36.5 230.1 36.7 229.7 C 36.7 229.7 41.6 230 41.6 230 C 41.3 231.2 40.8 232.2 40 233.1 C 39.3 233.9 38.3 234.6 37.1 235.1 C 35.9 235.6 34.5 235.8 32.9 235.8 Z M 53.6 235.8 C 51.6 235.8 50 235.4 48.6 234.6 C 47.1 233.7 46.1 232.6 45.3 231.1 C 44.6 229.6 44.2 227.9 44.2 226 C 44.2 224 44.6 222.3 45.3 220.8 C 46.1 219.4 47.2 218.2 48.6 217.4 C 50 216.5 51.6 216.1 53.6 216.1 C 55.2 216.1 56.7 216.4 57.9 217 C 59.2 217.6 60.2 218.5 60.9 219.6 C 61.6 220.7 62 221.9 62.1 223.4 C 62.1 223.4 57.1 223.4 57.1 223.4 C 57 222.5 56.6 221.7 56 221.1 C 55.4 220.5 54.6 220.2 53.7 220.2 C 52.8 220.2 52.1 220.5 51.5 220.9 C 50.9 221.3 50.4 222 50.1 222.8 C 49.7 223.7 49.6 224.7 49.6 225.9 C 49.6 227.1 49.7 228.2 50.1 229 C 50.4 229.9 50.9 230.5 51.5 231 C 52.1 231.4 52.8 231.6 53.7 231.6 C 54.3 231.6 54.8 231.5 55.3 231.3 C 55.8 231 56.2 230.7 56.5 230.2 C 56.8 229.7 57 229.1 57.1 228.5 C 57.1 228.5 62.1 228.5 62.1 228.5 C 62 229.9 61.6 231.2 60.9 232.3 C 60.2 233.4 59.2 234.3 58 234.9 C 56.8 235.5 55.3 235.8 53.6 235.8 Z M 65.4 235.5 L 65.4 216.4 L 70.7 216.4 L 70.7 235.5 L 65.4 235.5 Z M 68.1 213.9 C 67.3 213.9 66.6 213.6 66 213.1 C 65.5 212.6 65.2 212 65.2 211.2 C 65.2 210.5 65.5 209.9 66 209.3 C 66.6 208.8 67.3 208.5 68.1 208.5 C 68.8 208.5 69.5 208.8 70.1 209.3 C 70.6 209.9 70.9 210.5 70.9 211.2 C 70.9 212 70.6 212.6 70.1 213.1 C 69.5 213.6 68.8 213.9 68.1 213.9 Z M 90.6 221.8 C 90.6 221.8 85.8 222.1 85.8 222.1 C 85.7 221.7 85.5 221.3 85.2 221 C 85 220.6 84.6 220.4 84.2 220.2 C 83.7 220 83.2 219.9 82.6 219.9 C 81.8 219.9 81.1 220 80.5 220.4 C 79.9 220.7 79.7 221.2 79.7 221.8 C 79.7 222.2 79.8 222.6 80.2 222.9 C 80.6 223.2 81.2 223.5 82.1 223.7 C 82.1 223.7 85.5 224.4 85.5 224.4 C 87.4 224.7 88.8 225.4 89.7 226.2 C 90.6 227.1 91.1 228.2 91.1 229.5 C 91.1 230.8 90.7 231.9 90 232.8 C 89.2 233.8 88.2 234.5 87 235 C 85.7 235.6 84.2 235.8 82.6 235.8 C 80 235.8 78 235.3 76.5 234.2 C 75 233.2 74.2 231.7 73.9 229.9 C 73.9 229.9 79.1 229.7 79.1 229.7 C 79.3 230.4 79.6 231 80.3 231.4 C 80.9 231.8 81.6 232 82.6 232 C 83.5 232 84.3 231.8 84.8 231.5 C 85.4 231.1 85.7 230.6 85.7 230.1 C 85.7 229.6 85.5 229.2 85.1 228.9 C 84.7 228.6 84.1 228.3 83.2 228.2 C 83.2 228.2 79.9 227.5 79.9 227.5 C 78.1 227.1 76.7 226.5 75.8 225.6 C 74.9 224.7 74.4 223.5 74.4 222.1 C 74.4 220.8 74.7 219.8 75.4 218.9 C 76.1 218 77 217.3 78.2 216.8 C 79.4 216.4 80.9 216.1 82.5 216.1 C 84.9 216.1 86.8 216.6 88.2 217.6 C 89.6 218.7 90.4 220.1 90.6 221.8 Z M 94.3 235.5 L 94.3 216.4 L 99.6 216.4 L 99.6 235.5 L 94.3 235.5 Z M 97 213.9 C 96.2 213.9 95.5 213.6 95 213.1 C 94.4 212.6 94.1 212 94.1 211.2 C 94.1 210.5 94.4 209.9 95 209.3 C 95.5 208.8 96.2 208.5 97 208.5 C 97.8 208.5 98.4 208.8 99 209.3 C 99.6 209.9 99.8 210.5 99.8 211.2 C 99.8 212 99.6 212.6 99 213.1 C 98.4 213.6 97.8 213.9 97 213.9 Z M 112.3 235.8 C 110.4 235.8 108.7 235.4 107.3 234.6 C 105.9 233.8 104.8 232.6 104.1 231.1 C 103.3 229.7 102.9 227.9 102.9 226 C 102.9 224 103.3 222.3 104.1 220.8 C 104.8 219.3 105.9 218.2 107.3 217.4 C 108.7 216.5 110.4 216.1 112.3 216.1 C 114.3 216.1 115.9 216.5 117.3 217.4 C 118.7 218.2 119.8 219.3 120.6 220.8 C 121.3 222.3 121.7 224 121.7 226 C 121.7 227.9 121.3 229.7 120.6 231.1 C 119.8 232.6 118.7 233.8 117.3 234.6 C 115.9 235.4 114.3 235.8 112.3 235.8 Z M 112.3 231.7 C 113.2 231.7 114 231.5 114.5 231 C 115.1 230.5 115.6 229.8 115.9 228.9 C 116.2 228 116.3 227.1 116.3 225.9 C 116.3 224.8 116.2 223.8 115.9 223 C 115.6 222.1 115.1 221.4 114.5 220.9 C 114 220.4 113.2 220.2 112.3 220.2 C 111.5 220.2 110.7 220.4 110.1 220.9 C 109.5 221.4 109.1 222.1 108.8 223 C 108.5 223.8 108.3 224.8 108.3 225.9 C 108.3 227.1 108.5 228 108.8 228.9 C 109.1 229.8 109.5 230.5 110.1 231 C 110.7 231.5 111.5 231.7 112.3 231.7 Z M 130.3 224.4 C 130.34 224.42 130.3 235.5 130.3 235.5 L 125 235.5 L 125 216.4 L 130.1 216.4 L 130.1 219.7 C 130.1 219.7 130.31 219.73 130.3 219.7 C 130.7 218.6 131.4 217.7 132.4 217.1 C 133.4 216.4 134.6 216.1 136.1 216.1 C 137.4 216.1 138.5 216.4 139.5 217 C 140.5 217.6 141.3 218.4 141.8 219.5 C 142.4 220.5 142.6 221.8 142.6 223.3 C 142.64 223.3 142.6 235.5 142.6 235.5 L 137.3 235.5 C 137.3 235.5 137.35 224.24 137.3 224.2 C 137.4 223.1 137.1 222.2 136.5 221.5 C 135.8 220.8 135 220.5 134 220.5 C 133.2 220.5 132.6 220.7 132.1 221 C 131.5 221.3 131.1 221.7 130.8 222.3 C 130.5 222.9 130.3 223.6 130.3 224.4 Z M 158.7 222.9 L 158.7 227.1 L 147 227.1 L 147 222.9 L 158.7 222.9 Z M 163.1 235.5 L 163.1 216.4 L 168.1 216.4 L 168.1 219.7 C 168.1 219.7 168.36 219.73 168.4 219.7 C 168.8 218.6 169.4 217.7 170.3 217.1 C 171.3 216.4 172.4 216.1 173.7 216.1 C 175 216.1 176.1 216.4 177 217.1 C 177.9 217.7 178.6 218.6 178.9 219.7 C 178.9 219.7 179.1 219.7 179.1 219.7 C 179.4 218.6 180.2 217.8 181.2 217.1 C 182.2 216.4 183.4 216.1 184.8 216.1 C 186.6 216.1 188 216.7 189.2 217.8 C 190.3 218.9 190.8 220.5 190.8 222.6 C 190.83 222.62 190.8 235.5 190.8 235.5 L 185.5 235.5 C 185.5 235.5 185.55 223.66 185.5 223.7 C 185.5 222.6 185.3 221.8 184.7 221.3 C 184.1 220.7 183.4 220.5 182.6 220.5 C 181.6 220.5 180.9 220.8 180.3 221.4 C 179.8 222 179.5 222.8 179.5 223.8 C 179.53 223.8 179.5 235.5 179.5 235.5 L 174.4 235.5 C 174.4 235.5 174.4 223.55 174.4 223.5 C 174.4 222.6 174.1 221.9 173.6 221.3 C 173.1 220.8 172.4 220.5 171.5 220.5 C 170.9 220.5 170.4 220.6 169.9 220.9 C 169.4 221.2 169.1 221.6 168.8 222.1 C 168.5 222.7 168.4 223.3 168.4 224 C 168.38 224 168.4 235.5 168.4 235.5 L 163.1 235.5 Z M 200.3 235.8 C 199.1 235.8 198 235.6 197.1 235.2 C 196.1 234.7 195.4 234.1 194.8 233.3 C 194.3 232.4 194 231.4 194 230.1 C 194 229.1 194.2 228.2 194.6 227.5 C 195 226.7 195.5 226.1 196.2 225.7 C 196.9 225.3 197.6 224.9 198.5 224.7 C 199.3 224.5 200.2 224.3 201.2 224.2 C 202.3 224.1 203.2 224 203.9 223.9 C 204.5 223.8 205 223.7 205.3 223.4 C 205.6 223.2 205.8 222.9 205.8 222.5 C 205.8 222.5 205.8 222.5 205.8 222.5 C 205.8 221.7 205.6 221.1 205.1 220.6 C 204.6 220.2 203.9 220 203 220 C 202 220 201.3 220.2 200.7 220.6 C 200.1 221 199.8 221.6 199.6 222.2 C 199.6 222.2 194.7 221.8 194.7 221.8 C 194.9 220.6 195.4 219.6 196.1 218.8 C 196.9 217.9 197.8 217.3 199 216.8 C 200.1 216.3 201.5 216.1 203 216.1 C 204.1 216.1 205.1 216.2 206 216.5 C 207 216.7 207.9 217.1 208.6 217.6 C 209.4 218.2 210 218.8 210.4 219.7 C 210.9 220.5 211.1 221.4 211.1 222.6 C 211.09 222.58 211.1 235.5 211.1 235.5 L 206.1 235.5 L 206.1 232.8 C 206.1 232.8 205.92 232.81 205.9 232.8 C 205.6 233.4 205.2 233.9 204.7 234.4 C 204.2 234.8 203.6 235.2 202.8 235.4 C 202.1 235.7 201.3 235.8 200.3 235.8 Z M 201.9 232.2 C 202.6 232.2 203.3 232 203.9 231.7 C 204.5 231.4 205 231 205.3 230.4 C 205.7 229.9 205.8 229.3 205.8 228.6 C 205.8 228.6 205.8 226.6 205.8 226.6 C 205.7 226.7 205.4 226.8 205.2 226.9 C 204.9 227 204.6 227.1 204.2 227.1 C 203.8 227.2 203.5 227.3 203.1 227.3 C 202.8 227.4 202.4 227.4 202.2 227.5 C 201.5 227.6 201 227.7 200.5 227.9 C 200.1 228.1 199.7 228.4 199.4 228.7 C 199.2 229 199.1 229.5 199.1 229.9 C 199.1 230.7 199.3 231.2 199.9 231.6 C 200.4 232 201 232.2 201.9 232.2 Z M 220 230 L 220 223.6 L 220.8 223.6 L 226.9 216.4 L 233 216.4 L 224.8 226 L 223.5 226 L 220 230 Z M 215.2 235.5 L 215.2 210 L 220.5 210 L 220.5 235.5 L 215.2 235.5 Z M 227.2 235.5 L 221.6 227.1 L 225.1 223.4 L 233.4 235.5 L 227.2 235.5 Z M 235.6 235.5 L 235.6 216.4 L 240.9 216.4 L 240.9 235.5 L 235.6 235.5 Z M 238.2 213.9 C 237.5 213.9 236.8 213.6 236.2 213.1 C 235.7 212.6 235.4 212 235.4 211.2 C 235.4 210.5 235.7 209.9 236.2 209.3 C 236.8 208.8 237.5 208.5 238.2 208.5 C 239 208.5 239.7 208.8 240.3 209.3 C 240.8 209.9 241.1 210.5 241.1 211.2 C 241.1 212 240.8 212.6 240.3 213.1 C 239.7 213.6 239 213.9 238.2 213.9 Z M 250.4 224.4 C 250.4 224.42 250.4 235.5 250.4 235.5 L 245.1 235.5 L 245.1 216.4 L 250.2 216.4 L 250.2 219.7 C 250.2 219.7 250.38 219.73 250.4 219.7 C 250.8 218.6 251.5 217.7 252.5 217.1 C 253.5 216.4 254.7 216.1 256.1 216.1 C 257.4 216.1 258.6 216.4 259.6 217 C 260.6 217.6 261.3 218.4 261.9 219.5 C 262.4 220.5 262.7 221.8 262.7 223.3 C 262.71 223.3 262.7 235.5 262.7 235.5 L 257.4 235.5 C 257.4 235.5 257.41 224.24 257.4 224.2 C 257.4 223.1 257.1 222.2 256.5 221.5 C 255.9 220.8 255.1 220.5 254 220.5 C 253.3 220.5 252.7 220.7 252.1 221 C 251.6 221.3 251.2 221.7 250.9 222.3 C 250.6 222.9 250.4 223.6 250.4 224.4 Z M 275.3 243 C 273.6 243 272.2 242.8 270.9 242.3 C 269.7 241.8 268.7 241.2 268 240.4 C 267.3 239.6 266.8 238.7 266.6 237.7 C 266.6 237.7 271.5 237 271.5 237 C 271.7 237.4 271.9 237.8 272.2 238.1 C 272.5 238.4 273 238.7 273.5 238.9 C 274 239.1 274.7 239.2 275.5 239.2 C 276.6 239.2 277.6 238.9 278.3 238.4 C 279.1 237.8 279.4 236.9 279.4 235.6 C 279.44 235.57 279.4 232.1 279.4 232.1 C 279.4 232.1 279.22 232.07 279.2 232.1 C 279 232.6 278.6 233.1 278.2 233.6 C 277.7 234.1 277.1 234.4 276.4 234.7 C 275.7 235 274.8 235.2 273.8 235.2 C 272.3 235.2 271 234.8 269.9 234.2 C 268.7 233.5 267.8 232.5 267.1 231.1 C 266.4 229.7 266 228 266 225.9 C 266 223.7 266.4 221.9 267.1 220.5 C 267.8 219 268.7 217.9 269.9 217.2 C 271.1 216.5 272.4 216.1 273.8 216.1 C 274.8 216.1 275.7 216.3 276.4 216.7 C 277.2 217 277.8 217.5 278.2 218 C 278.6 218.5 279 219.1 279.2 219.6 C 279.22 219.57 279.4 219.6 279.4 219.6 L 279.4 216.4 L 284.7 216.4 C 284.7 216.4 284.68 235.64 284.7 235.6 C 284.7 237.3 284.3 238.6 283.5 239.7 C 282.7 240.8 281.6 241.6 280.2 242.2 C 278.8 242.7 277.2 243 275.3 243 Z M 275.5 231.2 C 276.3 231.2 277 231 277.6 230.6 C 278.2 230.1 278.7 229.5 279 228.7 C 279.3 227.9 279.5 227 279.5 225.8 C 279.5 224.7 279.3 223.8 279 222.9 C 278.7 222.1 278.2 221.5 277.6 221 C 277 220.6 276.3 220.3 275.5 220.3 C 274.6 220.3 273.9 220.6 273.3 221 C 272.7 221.5 272.2 222.1 271.9 223 C 271.6 223.8 271.4 224.8 271.4 225.8 C 271.4 226.9 271.6 227.9 271.9 228.7 C 272.2 229.5 272.7 230.1 273.3 230.6 C 273.9 231 274.6 231.2 275.5 231.2 Z " stroke="none" fill="#ffffff"/>  </g>  <g id="Polygon124312">    <path d="M 12.4 174.4 L 12.4 178.3 L 0.6 178.3 L 0.6 174.4 L 12.4 174.4 Z M 3.3 193.5 C 3.3 193.5 3.29 172.98 3.3 173 C 3.3 171.6 3.6 170.5 4.1 169.5 C 4.7 168.6 5.4 167.9 6.3 167.5 C 7.3 167 8.4 166.8 9.6 166.8 C 10.4 166.8 11.1 166.9 11.8 167 C 12.5 167.1 13 167.2 13.3 167.3 C 13.3 167.3 12.4 171.3 12.4 171.3 C 12.1 171.2 11.9 171.2 11.6 171.1 C 11.3 171.1 11 171 10.7 171 C 9.9 171 9.3 171.2 9 171.6 C 8.7 171.9 8.6 172.4 8.6 173.1 C 8.58 173.08 8.6 193.5 8.6 193.5 L 3.3 193.5 Z M 23.5 193.8 C 21.6 193.8 19.9 193.4 18.5 192.6 C 17.1 191.8 16 190.6 15.2 189.1 C 14.5 187.7 14.1 185.9 14.1 184 C 14.1 182 14.5 180.3 15.2 178.8 C 16 177.3 17.1 176.2 18.5 175.4 C 19.9 174.5 21.6 174.1 23.5 174.1 C 25.4 174.1 27.1 174.5 28.5 175.4 C 29.9 176.2 31 177.3 31.8 178.8 C 32.5 180.3 32.9 182 32.9 184 C 32.9 185.9 32.5 187.7 31.8 189.1 C 31 190.6 29.9 191.8 28.5 192.6 C 27.1 193.4 25.4 193.8 23.5 193.8 Z M 23.5 189.7 C 24.4 189.7 25.1 189.5 25.7 189 C 26.3 188.5 26.8 187.8 27.1 186.9 C 27.4 186 27.5 185.1 27.5 183.9 C 27.5 182.8 27.4 181.8 27.1 181 C 26.8 180.1 26.3 179.4 25.7 178.9 C 25.1 178.4 24.4 178.2 23.5 178.2 C 22.6 178.2 21.9 178.4 21.3 178.9 C 20.7 179.4 20.2 180.1 19.9 181 C 19.6 181.8 19.5 182.8 19.5 183.9 C 19.5 185.1 19.6 186 19.9 186.9 C 20.2 187.8 20.7 188.5 21.3 189 C 21.9 189.5 22.6 189.7 23.5 189.7 Z M 36.2 193.5 L 36.2 174.4 L 41.4 174.4 L 41.4 177.7 C 41.4 177.7 41.55 177.69 41.6 177.7 C 41.9 176.5 42.5 175.6 43.3 175 C 44.1 174.4 45.1 174.1 46.1 174.1 C 46.4 174.1 46.7 174.1 47 174.1 C 47.3 174.2 47.6 174.2 47.8 174.3 C 47.8 174.3 47.8 179 47.8 179 C 47.6 178.9 47.2 178.8 46.8 178.8 C 46.3 178.7 45.9 178.7 45.6 178.7 C 44.8 178.7 44.1 178.9 43.5 179.2 C 42.9 179.5 42.4 180 42 180.6 C 41.7 181.2 41.5 181.9 41.5 182.7 C 41.51 182.65 41.5 193.5 41.5 193.5 L 36.2 193.5 Z M 58.7 193.5 L 58.7 168 L 64 168 L 64 177.6 C 64 177.6 64.2 177.57 64.2 177.6 C 64.4 177.1 64.8 176.5 65.2 176 C 65.7 175.5 66.2 175 66.9 174.7 C 67.7 174.3 68.6 174.1 69.6 174.1 C 71 174.1 72.3 174.5 73.5 175.2 C 74.7 175.9 75.6 177 76.3 178.5 C 77 179.9 77.4 181.7 77.4 183.9 C 77.4 186.1 77 187.9 76.3 189.3 C 75.7 190.8 74.7 191.9 73.5 192.6 C 72.4 193.4 71.1 193.8 69.6 193.8 C 68.6 193.8 67.7 193.6 67 193.3 C 66.3 192.9 65.7 192.5 65.2 192 C 64.8 191.5 64.4 190.9 64.2 190.4 C 64.2 190.4 64 190.4 64 190.4 L 64 193.5 L 58.7 193.5 Z M 63.9 183.9 C 63.9 185 64.1 186 64.4 186.9 C 64.7 187.7 65.2 188.4 65.8 188.8 C 66.4 189.3 67.1 189.6 67.9 189.6 C 68.8 189.6 69.5 189.3 70.1 188.8 C 70.7 188.4 71.2 187.7 71.5 186.8 C 71.8 186 72 185 72 183.9 C 72 182.8 71.8 181.8 71.5 181 C 71.2 180.2 70.7 179.5 70.1 179 C 69.5 178.6 68.8 178.3 67.9 178.3 C 67.1 178.3 66.3 178.6 65.8 179 C 65.2 179.5 64.7 180.1 64.4 181 C 64.1 181.8 63.9 182.8 63.9 183.9 Z M 89.4 193.8 C 87.4 193.8 85.7 193.4 84.3 192.6 C 82.9 191.8 81.8 190.7 81.1 189.2 C 80.3 187.8 79.9 186 79.9 184 C 79.9 182 80.3 180.3 81.1 178.8 C 81.8 177.3 82.9 176.2 84.3 175.4 C 85.7 174.5 87.3 174.1 89.2 174.1 C 90.4 174.1 91.6 174.3 92.7 174.7 C 93.8 175.1 94.7 175.7 95.6 176.5 C 96.4 177.3 97 178.3 97.5 179.6 C 97.9 180.8 98.1 182.2 98.1 183.8 C 98.14 183.81 98.1 185.3 98.1 185.3 L 82 185.3 L 82 182 C 82 182 93.16 181.98 93.2 182 C 93.2 181.2 93 180.5 92.7 180 C 92.3 179.4 91.9 178.9 91.3 178.6 C 90.7 178.2 90 178.1 89.3 178.1 C 88.5 178.1 87.7 178.3 87.1 178.6 C 86.5 179 86 179.5 85.7 180.1 C 85.3 180.7 85.2 181.4 85.1 182.2 C 85.1 182.2 85.1 185.3 85.1 185.3 C 85.1 186.2 85.3 187 85.7 187.7 C 86 188.4 86.5 188.9 87.2 189.3 C 87.8 189.7 88.6 189.9 89.5 189.9 C 90.1 189.9 90.6 189.8 91.1 189.6 C 91.6 189.5 92 189.2 92.3 188.9 C 92.7 188.5 93 188.1 93.1 187.7 C 93.1 187.7 98 188 98 188 C 97.8 189.2 97.3 190.2 96.5 191.1 C 95.7 191.9 94.8 192.6 93.6 193.1 C 92.3 193.6 91 193.8 89.4 193.8 Z M 111.3 174.4 L 111.3 178.3 L 99.8 178.3 L 99.8 174.4 L 111.3 174.4 Z M 102.4 169.8 L 107.7 169.8 C 107.7 169.8 107.67 187.59 107.7 187.6 C 107.7 188.1 107.7 188.5 107.9 188.7 C 108 189 108.3 189.2 108.5 189.3 C 108.8 189.4 109.1 189.5 109.5 189.5 C 109.7 189.5 110 189.4 110.2 189.4 C 110.5 189.3 110.6 189.3 110.8 189.3 C 110.8 189.3 111.6 193.2 111.6 193.2 C 111.3 193.3 111 193.4 110.5 193.5 C 110 193.6 109.4 193.7 108.7 193.7 C 107.5 193.8 106.4 193.6 105.4 193.2 C 104.4 192.8 103.7 192.2 103.2 191.4 C 102.6 190.6 102.4 189.5 102.4 188.3 C 102.38 188.28 102.4 169.8 102.4 169.8 Z M 124.9 174.4 L 124.9 178.3 L 113.4 178.3 L 113.4 174.4 L 124.9 174.4 Z M 116 169.8 L 121.3 169.8 C 121.3 169.8 121.32 187.59 121.3 187.6 C 121.3 188.1 121.4 188.5 121.5 188.7 C 121.7 189 121.9 189.2 122.2 189.3 C 122.4 189.4 122.8 189.5 123.1 189.5 C 123.4 189.5 123.6 189.4 123.9 189.4 C 124.1 189.3 124.3 189.3 124.4 189.3 C 124.4 189.3 125.3 193.2 125.3 193.2 C 125 193.3 124.6 193.4 124.1 193.5 C 123.7 193.6 123.1 193.7 122.4 193.7 C 121.1 193.8 120 193.6 119 193.2 C 118.1 192.8 117.3 192.2 116.8 191.4 C 116.3 190.6 116 189.5 116 188.3 C 116.02 188.28 116 169.8 116 169.8 Z M 136.3 193.8 C 134.3 193.8 132.6 193.4 131.2 192.6 C 129.8 191.8 128.7 190.7 128 189.2 C 127.2 187.8 126.8 186 126.8 184 C 126.8 182 127.2 180.3 128 178.8 C 128.7 177.3 129.8 176.2 131.2 175.4 C 132.6 174.5 134.2 174.1 136.1 174.1 C 137.3 174.1 138.5 174.3 139.6 174.7 C 140.7 175.1 141.6 175.7 142.5 176.5 C 143.3 177.3 143.9 178.3 144.4 179.6 C 144.8 180.8 145.1 182.2 145.1 183.8 C 145.05 183.81 145.1 185.3 145.1 185.3 L 128.9 185.3 L 128.9 182 C 128.9 182 140.07 181.98 140.1 182 C 140.1 181.2 139.9 180.5 139.6 180 C 139.2 179.4 138.8 178.9 138.2 178.6 C 137.6 178.2 136.9 178.1 136.2 178.1 C 135.4 178.1 134.6 178.3 134 178.6 C 133.4 179 132.9 179.5 132.6 180.1 C 132.2 180.7 132.1 181.4 132.1 182.2 C 132.1 182.2 132.1 185.3 132.1 185.3 C 132.1 186.2 132.2 187 132.6 187.7 C 132.9 188.4 133.4 188.9 134.1 189.3 C 134.7 189.7 135.5 189.9 136.4 189.9 C 137 189.9 137.5 189.8 138 189.6 C 138.5 189.5 138.9 189.2 139.2 188.9 C 139.6 188.5 139.9 188.1 140 187.7 C 140 187.7 144.9 188 144.9 188 C 144.7 189.2 144.2 190.2 143.4 191.1 C 142.7 191.9 141.7 192.6 140.5 193.1 C 139.3 193.6 137.9 193.8 136.3 193.8 Z M 148.5 193.5 L 148.5 174.4 L 153.6 174.4 L 153.6 177.7 C 153.6 177.7 153.82 177.69 153.8 177.7 C 154.2 176.5 154.8 175.6 155.6 175 C 156.4 174.4 157.3 174.1 158.4 174.1 C 158.7 174.1 159 174.1 159.3 174.1 C 159.6 174.2 159.8 174.2 160.1 174.3 C 160.1 174.3 160.1 179 160.1 179 C 159.8 178.9 159.5 178.8 159 178.8 C 158.6 178.7 158.2 178.7 157.8 178.7 C 157.1 178.7 156.4 178.9 155.8 179.2 C 155.1 179.5 154.7 180 154.3 180.6 C 154 181.2 153.8 181.9 153.8 182.7 C 153.79 182.65 153.8 193.5 153.8 193.5 L 148.5 193.5 Z " stroke="none" fill="#ffffff"/>  </g>  <g id="Polygon124311">    <path d="M 7.6 151.8 C 6.3 151.8 5.3 151.6 4.3 151.2 C 3.3 150.7 2.6 150.1 2 149.3 C 1.5 148.4 1.2 147.4 1.2 146.1 C 1.2 145.1 1.4 144.2 1.8 143.5 C 2.2 142.7 2.7 142.1 3.4 141.7 C 4.1 141.3 4.8 140.9 5.7 140.7 C 6.5 140.5 7.4 140.3 8.4 140.2 C 9.5 140.1 10.4 140 11.1 139.9 C 11.8 139.8 12.2 139.7 12.6 139.4 C 12.9 139.2 13 138.9 13 138.5 C 13 138.5 13 138.5 13 138.5 C 13 137.7 12.8 137.1 12.3 136.6 C 11.8 136.2 11.1 136 10.2 136 C 9.2 136 8.5 136.2 7.9 136.6 C 7.3 137 7 137.6 6.8 138.2 C 6.8 138.2 1.9 137.8 1.9 137.8 C 2.1 136.6 2.6 135.6 3.4 134.8 C 4.1 133.9 5 133.3 6.2 132.8 C 7.3 132.3 8.7 132.1 10.2 132.1 C 11.3 132.1 12.3 132.2 13.3 132.5 C 14.2 132.7 15.1 133.1 15.9 133.6 C 16.6 134.2 17.2 134.8 17.6 135.7 C 18.1 136.5 18.3 137.4 18.3 138.6 C 18.31 138.58 18.3 151.5 18.3 151.5 L 13.3 151.5 L 13.3 148.8 C 13.3 148.8 13.14 148.81 13.1 148.8 C 12.8 149.4 12.4 149.9 11.9 150.4 C 11.4 150.8 10.8 151.2 10.1 151.4 C 9.3 151.7 8.5 151.8 7.6 151.8 Z M 9.1 148.2 C 9.9 148.2 10.5 148 11.1 147.7 C 11.7 147.4 12.2 147 12.5 146.4 C 12.9 145.9 13.1 145.3 13.1 144.6 C 13.1 144.6 13.1 142.6 13.1 142.6 C 12.9 142.7 12.7 142.8 12.4 142.9 C 12.1 143 11.8 143.1 11.4 143.1 C 11.1 143.2 10.7 143.3 10.3 143.3 C 10 143.4 9.7 143.4 9.4 143.5 C 8.8 143.6 8.2 143.7 7.7 143.9 C 7.3 144.1 6.9 144.4 6.7 144.7 C 6.4 145 6.3 145.5 6.3 145.9 C 6.3 146.7 6.5 147.2 7.1 147.6 C 7.6 148 8.3 148.2 9.1 148.2 Z M 27.7 140.4 C 27.75 140.42 27.7 151.5 27.7 151.5 L 22.5 151.5 L 22.5 132.4 L 27.5 132.4 L 27.5 135.7 C 27.5 135.7 27.72 135.73 27.7 135.7 C 28.1 134.6 28.9 133.7 29.8 133.1 C 30.8 132.4 32 132.1 33.5 132.1 C 34.8 132.1 35.9 132.4 36.9 133 C 37.9 133.6 38.7 134.4 39.2 135.5 C 39.8 136.5 40.1 137.8 40.1 139.3 C 40.05 139.3 40.1 151.5 40.1 151.5 L 34.8 151.5 C 34.8 151.5 34.76 140.24 34.8 140.2 C 34.8 139.1 34.5 138.2 33.9 137.5 C 33.3 136.8 32.4 136.5 31.4 136.5 C 30.7 136.5 30 136.7 29.5 137 C 28.9 137.3 28.5 137.7 28.2 138.3 C 27.9 138.9 27.8 139.6 27.7 140.4 Z M 51.1 151.8 C 49.7 151.8 48.4 151.4 47.2 150.6 C 46 149.9 45.1 148.8 44.4 147.3 C 43.7 145.9 43.4 144.1 43.4 141.9 C 43.4 139.7 43.7 137.9 44.4 136.5 C 45.1 135 46.1 133.9 47.2 133.2 C 48.4 132.5 49.7 132.1 51.1 132.1 C 52.2 132.1 53.1 132.3 53.8 132.7 C 54.5 133 55.1 133.5 55.5 134 C 56 134.5 56.3 135.1 56.5 135.6 C 56.54 135.57 56.7 135.6 56.7 135.6 L 56.7 126 L 62 126 L 62 151.5 L 56.8 151.5 L 56.8 148.4 C 56.8 148.4 56.54 148.4 56.5 148.4 C 56.3 148.9 55.9 149.5 55.5 150 C 55 150.5 54.5 150.9 53.7 151.3 C 53 151.6 52.1 151.8 51.1 151.8 Z M 52.8 147.6 C 53.7 147.6 54.4 147.3 55 146.8 C 55.6 146.4 56 145.7 56.3 144.9 C 56.7 144 56.8 143 56.8 141.9 C 56.8 140.8 56.7 139.8 56.3 139 C 56 138.1 55.6 137.5 55 137 C 54.4 136.6 53.7 136.3 52.8 136.3 C 51.9 136.3 51.2 136.6 50.6 137 C 50 137.5 49.6 138.2 49.2 139 C 48.9 139.8 48.8 140.8 48.8 141.9 C 48.8 143 48.9 144 49.3 144.8 C 49.6 145.7 50 146.4 50.6 146.8 C 51.2 147.3 51.9 147.6 52.8 147.6 Z M 74.4 151.5 L 74.4 132.4 L 79.6 132.4 L 79.6 135.7 C 79.6 135.7 79.77 135.69 79.8 135.7 C 80.1 134.5 80.7 133.6 81.5 133 C 82.3 132.4 83.3 132.1 84.4 132.1 C 84.6 132.1 84.9 132.1 85.2 132.1 C 85.5 132.2 85.8 132.2 86 132.3 C 86 132.3 86 137 86 137 C 85.8 136.9 85.4 136.8 85 136.8 C 84.6 136.7 84.1 136.7 83.8 136.7 C 83 136.7 82.3 136.9 81.7 137.2 C 81.1 137.5 80.6 138 80.3 138.6 C 79.9 139.2 79.7 139.9 79.7 140.7 C 79.73 140.65 79.7 151.5 79.7 151.5 L 74.4 151.5 Z M 97.1 151.8 C 95.2 151.8 93.5 151.4 92.1 150.6 C 90.7 149.8 89.6 148.7 88.8 147.2 C 88 145.8 87.7 144 87.7 142 C 87.7 140 88 138.3 88.8 136.8 C 89.6 135.3 90.6 134.2 92 133.4 C 93.4 132.5 95.1 132.1 96.9 132.1 C 98.2 132.1 99.4 132.3 100.4 132.7 C 101.5 133.1 102.5 133.7 103.3 134.5 C 104.1 135.3 104.8 136.3 105.2 137.6 C 105.7 138.8 105.9 140.2 105.9 141.8 C 105.9 141.81 105.9 143.3 105.9 143.3 L 89.8 143.3 L 89.8 140 C 89.8 140 100.91 139.98 100.9 140 C 100.9 139.2 100.7 138.5 100.4 138 C 100.1 137.4 99.6 136.9 99 136.6 C 98.5 136.2 97.8 136.1 97 136.1 C 96.2 136.1 95.5 136.3 94.9 136.6 C 94.3 137 93.8 137.5 93.4 138.1 C 93.1 138.7 92.9 139.4 92.9 140.2 C 92.9 140.2 92.9 143.3 92.9 143.3 C 92.9 144.2 93.1 145 93.4 145.7 C 93.8 146.4 94.3 146.9 94.9 147.3 C 95.6 147.7 96.3 147.9 97.2 147.9 C 97.8 147.9 98.3 147.8 98.8 147.6 C 99.3 147.5 99.7 147.2 100.1 146.9 C 100.4 146.5 100.7 146.1 100.9 145.7 C 100.9 145.7 105.8 146 105.8 146 C 105.5 147.2 105 148.2 104.3 149.1 C 103.5 149.9 102.5 150.6 101.3 151.1 C 100.1 151.6 98.7 151.8 97.1 151.8 Z M 114.7 126 L 114.7 151.5 L 109.4 151.5 L 109.4 126 L 114.7 126 Z M 118.9 151.5 L 118.9 132.4 L 124.2 132.4 L 124.2 151.5 L 118.9 151.5 Z M 121.5 129.9 C 120.8 129.9 120.1 129.6 119.5 129.1 C 119 128.6 118.7 128 118.7 127.2 C 118.7 126.5 119 125.9 119.5 125.3 C 120.1 124.8 120.8 124.5 121.5 124.5 C 122.3 124.5 123 124.8 123.6 125.3 C 124.1 125.9 124.4 126.5 124.4 127.2 C 124.4 128 124.1 128.6 123.6 129.1 C 123 129.6 122.3 129.9 121.5 129.9 Z M 133.7 151.8 C 132.5 151.8 131.4 151.6 130.5 151.2 C 129.5 150.7 128.8 150.1 128.2 149.3 C 127.7 148.4 127.4 147.4 127.4 146.1 C 127.4 145.1 127.6 144.2 128 143.5 C 128.3 142.7 128.9 142.1 129.6 141.7 C 130.2 141.3 131 140.9 131.8 140.7 C 132.7 140.5 133.6 140.3 134.5 140.2 C 135.7 140.1 136.6 140 137.2 139.9 C 137.9 139.8 138.4 139.7 138.7 139.4 C 139 139.2 139.2 138.9 139.2 138.5 C 139.2 138.5 139.2 138.5 139.2 138.5 C 139.2 137.7 138.9 137.1 138.4 136.6 C 137.9 136.2 137.2 136 136.3 136 C 135.4 136 134.6 136.2 134.1 136.6 C 133.5 137 133.1 137.6 132.9 138.2 C 132.9 138.2 128 137.8 128 137.8 C 128.3 136.6 128.8 135.6 129.5 134.8 C 130.2 133.9 131.2 133.3 132.3 132.8 C 133.5 132.3 134.8 132.1 136.4 132.1 C 137.4 132.1 138.4 132.2 139.4 132.5 C 140.4 132.7 141.3 133.1 142 133.6 C 142.8 134.2 143.4 134.8 143.8 135.7 C 144.2 136.5 144.5 137.4 144.5 138.6 C 144.47 138.58 144.5 151.5 144.5 151.5 L 139.4 151.5 L 139.4 148.8 C 139.4 148.8 139.29 148.81 139.3 148.8 C 139 149.4 138.6 149.9 138.1 150.4 C 137.6 150.8 136.9 151.2 136.2 151.4 C 135.5 151.7 134.7 151.8 133.7 151.8 Z M 135.2 148.2 C 136 148.2 136.7 148 137.3 147.7 C 137.9 147.4 138.4 147 138.7 146.4 C 139 145.9 139.2 145.3 139.2 144.6 C 139.2 144.6 139.2 142.6 139.2 142.6 C 139 142.7 138.8 142.8 138.5 142.9 C 138.2 143 137.9 143.1 137.6 143.1 C 137.2 143.2 136.9 143.3 136.5 143.3 C 136.1 143.4 135.8 143.4 135.5 143.5 C 134.9 143.6 134.4 143.7 133.9 143.9 C 133.4 144.1 133.1 144.4 132.8 144.7 C 132.6 145 132.4 145.5 132.4 145.9 C 132.4 146.7 132.7 147.2 133.2 147.6 C 133.7 148 134.4 148.2 135.2 148.2 Z M 148.7 151.5 L 148.7 126 L 153.9 126 L 153.9 135.6 C 153.9 135.6 154.11 135.57 154.1 135.6 C 154.3 135.1 154.7 134.5 155.1 134 C 155.6 133.5 156.1 133 156.9 132.7 C 157.6 132.3 158.5 132.1 159.5 132.1 C 160.9 132.1 162.2 132.5 163.4 133.2 C 164.6 133.9 165.5 135 166.2 136.5 C 166.9 137.9 167.3 139.7 167.3 141.9 C 167.3 144.1 166.9 145.9 166.2 147.3 C 165.6 148.8 164.6 149.9 163.5 150.6 C 162.3 151.4 161 151.8 159.5 151.8 C 158.5 151.8 157.6 151.6 156.9 151.3 C 156.2 150.9 155.6 150.5 155.2 150 C 154.7 149.5 154.4 148.9 154.1 148.4 C 154.11 148.4 153.9 148.4 153.9 148.4 L 153.9 151.5 L 148.7 151.5 Z M 153.8 141.9 C 153.8 143 154 144 154.3 144.9 C 154.6 145.7 155.1 146.4 155.7 146.8 C 156.3 147.3 157 147.6 157.9 147.6 C 158.7 147.6 159.4 147.3 160 146.8 C 160.6 146.4 161.1 145.7 161.4 144.8 C 161.7 144 161.9 143 161.9 141.9 C 161.9 140.8 161.7 139.8 161.4 139 C 161.1 138.2 160.6 137.5 160.1 137 C 159.5 136.6 158.7 136.3 157.9 136.3 C 157 136.3 156.3 136.6 155.7 137 C 155.1 137.5 154.6 138.1 154.3 139 C 154 139.8 153.8 140.8 153.8 141.9 Z M 170.7 151.5 L 170.7 132.4 L 176 132.4 L 176 151.5 L 170.7 151.5 Z M 173.3 129.9 C 172.5 129.9 171.9 129.6 171.3 129.1 C 170.8 128.6 170.5 128 170.5 127.2 C 170.5 126.5 170.8 125.9 171.3 125.3 C 171.9 124.8 172.6 124.5 173.3 124.5 C 174.1 124.5 174.8 124.8 175.4 125.3 C 175.9 125.9 176.2 126.5 176.2 127.2 C 176.2 128 175.9 128.6 175.4 129.1 C 174.8 129.6 174.1 129.9 173.3 129.9 Z M 185.5 126 L 185.5 151.5 L 180.2 151.5 L 180.2 126 L 185.5 126 Z M 189.7 151.5 L 189.7 132.4 L 195 132.4 L 195 151.5 L 189.7 151.5 Z M 192.4 129.9 C 191.6 129.9 190.9 129.6 190.4 129.1 C 189.8 128.6 189.5 128 189.5 127.2 C 189.5 126.5 189.8 125.9 190.4 125.3 C 190.9 124.8 191.6 124.5 192.4 124.5 C 193.2 124.5 193.8 124.8 194.4 125.3 C 195 125.9 195.2 126.5 195.2 127.2 C 195.2 128 195 128.6 194.4 129.1 C 193.8 129.6 193.2 129.9 192.4 129.9 Z M 209.1 132.4 L 209.1 136.3 L 197.6 136.3 L 197.6 132.4 L 209.1 132.4 Z M 200.2 127.8 L 205.5 127.8 C 205.5 127.8 205.47 145.59 205.5 145.6 C 205.5 146.1 205.5 146.5 205.7 146.7 C 205.8 147 206.1 147.2 206.3 147.3 C 206.6 147.4 206.9 147.5 207.3 147.5 C 207.5 147.5 207.8 147.4 208 147.4 C 208.3 147.3 208.4 147.3 208.6 147.3 C 208.6 147.3 209.4 151.2 209.4 151.2 C 209.1 151.3 208.8 151.4 208.3 151.5 C 207.8 151.6 207.2 151.7 206.5 151.7 C 205.3 151.8 204.2 151.6 203.2 151.2 C 202.2 150.8 201.5 150.2 201 149.4 C 200.4 148.6 200.2 147.5 200.2 146.3 C 200.18 146.28 200.2 127.8 200.2 127.8 Z M 215.9 158.6 C 215.2 158.6 214.6 158.6 214 158.5 C 213.4 158.4 213 158.2 212.6 158.1 C 212.6 158.1 213.8 154.1 213.8 154.1 C 214.4 154.3 215 154.4 215.5 154.4 C 216 154.4 216.4 154.3 216.8 154.1 C 217.1 153.8 217.4 153.4 217.7 152.8 C 217.67 152.81 218 152 218 152 L 211.1 132.4 L 216.7 132.4 L 220.7 146.4 L 220.8 146.4 L 224.8 132.4 L 230.4 132.4 C 230.4 132.4 223.02 153.52 223 153.5 C 222.7 154.5 222.2 155.4 221.6 156.2 C 221 157 220.2 157.6 219.3 158 C 218.3 158.4 217.2 158.6 215.9 158.6 Z " stroke="none" fill="#ffffff"/>  </g>  <g id="Polygon124310">    <path d="M 2.1 116.6 L 2.1 90.4 L 7.3 90.4 L 7.3 93.6 C 7.3 93.6 7.57 93.57 7.6 93.6 C 7.8 93.1 8.1 92.5 8.6 92 C 9 91.5 9.6 91 10.3 90.7 C 11 90.3 11.9 90.1 13 90.1 C 14.4 90.1 15.7 90.5 16.9 91.2 C 18 91.9 19 93 19.7 94.5 C 20.4 95.9 20.7 97.7 20.7 99.9 C 20.7 102.1 20.4 103.9 19.7 105.3 C 19 106.8 18.1 107.9 16.9 108.6 C 15.7 109.4 14.4 109.8 13 109.8 C 12 109.8 11.1 109.6 10.4 109.3 C 9.7 108.9 9.1 108.5 8.6 108 C 8.2 107.5 7.8 106.9 7.6 106.4 C 7.57 106.4 7.4 106.4 7.4 106.4 L 7.4 116.6 L 2.1 116.6 Z M 7.3 99.9 C 7.3 101 7.5 102 7.8 102.9 C 8.1 103.7 8.5 104.4 9.1 104.8 C 9.7 105.3 10.5 105.6 11.3 105.6 C 12.2 105.6 12.9 105.3 13.5 104.8 C 14.1 104.4 14.5 103.7 14.9 102.8 C 15.2 102 15.3 101 15.3 99.9 C 15.3 98.8 15.2 97.8 14.9 97 C 14.6 96.2 14.1 95.5 13.5 95 C 12.9 94.6 12.2 94.3 11.3 94.3 C 10.4 94.3 9.7 94.6 9.1 95 C 8.5 95.5 8.1 96.1 7.8 97 C 7.5 97.8 7.3 98.8 7.3 99.9 Z M 24.2 109.5 L 24.2 90.4 L 29.3 90.4 L 29.3 93.7 C 29.3 93.7 29.54 93.69 29.5 93.7 C 29.9 92.5 30.5 91.6 31.3 91 C 32.1 90.4 33.1 90.1 34.1 90.1 C 34.4 90.1 34.7 90.1 35 90.1 C 35.3 90.2 35.6 90.2 35.8 90.3 C 35.8 90.3 35.8 95 35.8 95 C 35.5 94.9 35.2 94.8 34.8 94.8 C 34.3 94.7 33.9 94.7 33.5 94.7 C 32.8 94.7 32.1 94.9 31.5 95.2 C 30.9 95.5 30.4 96 30 96.6 C 29.7 97.2 29.5 97.9 29.5 98.7 C 29.5 98.65 29.5 109.5 29.5 109.5 L 24.2 109.5 Z M 46.9 109.8 C 44.9 109.8 43.2 109.4 41.8 108.6 C 40.4 107.8 39.3 106.7 38.6 105.2 C 37.8 103.8 37.4 102 37.4 100 C 37.4 98 37.8 96.3 38.6 94.8 C 39.3 93.3 40.4 92.2 41.8 91.4 C 43.2 90.5 44.8 90.1 46.7 90.1 C 47.9 90.1 49.1 90.3 50.2 90.7 C 51.3 91.1 52.3 91.7 53.1 92.5 C 53.9 93.3 54.5 94.3 55 95.6 C 55.4 96.8 55.7 98.2 55.7 99.8 C 55.66 99.81 55.7 101.3 55.7 101.3 L 39.5 101.3 L 39.5 98 C 39.5 98 50.68 97.98 50.7 98 C 50.7 97.2 50.5 96.5 50.2 96 C 49.9 95.4 49.4 94.9 48.8 94.6 C 48.2 94.2 47.5 94.1 46.8 94.1 C 46 94.1 45.3 94.3 44.6 94.6 C 44 95 43.5 95.5 43.2 96.1 C 42.8 96.7 42.7 97.4 42.7 98.2 C 42.7 98.2 42.7 101.3 42.7 101.3 C 42.7 102.2 42.8 103 43.2 103.7 C 43.5 104.4 44 104.9 44.7 105.3 C 45.3 105.7 46.1 105.9 47 105.9 C 47.6 105.9 48.1 105.8 48.6 105.6 C 49.1 105.5 49.5 105.2 49.9 104.9 C 50.2 104.5 50.5 104.1 50.7 103.7 C 50.7 103.7 55.6 104 55.6 104 C 55.3 105.2 54.8 106.2 54 107.1 C 53.3 107.9 52.3 108.6 51.1 109.1 C 49.9 109.6 48.5 109.8 46.9 109.8 Z M 67.6 109.8 C 65.6 109.8 63.9 109.4 62.5 108.6 C 61.1 107.7 60.1 106.6 59.3 105.1 C 58.6 103.6 58.2 101.9 58.2 100 C 58.2 98 58.6 96.3 59.3 94.8 C 60.1 93.4 61.2 92.2 62.6 91.4 C 64 90.5 65.6 90.1 67.6 90.1 C 69.2 90.1 70.7 90.4 71.9 91 C 73.2 91.6 74.2 92.5 74.9 93.6 C 75.6 94.7 76 95.9 76.1 97.4 C 76.1 97.4 71.1 97.4 71.1 97.4 C 71 96.5 70.6 95.7 70 95.1 C 69.4 94.5 68.6 94.2 67.6 94.2 C 66.8 94.2 66.1 94.5 65.5 94.9 C 64.9 95.3 64.4 96 64.1 96.8 C 63.7 97.7 63.6 98.7 63.6 99.9 C 63.6 101.1 63.7 102.2 64.1 103 C 64.4 103.9 64.9 104.5 65.5 105 C 66.1 105.4 66.8 105.6 67.6 105.6 C 68.2 105.6 68.8 105.5 69.3 105.3 C 69.8 105 70.2 104.7 70.5 104.2 C 70.8 103.7 71 103.1 71.1 102.5 C 71.1 102.5 76.1 102.5 76.1 102.5 C 76 103.9 75.6 105.2 74.9 106.3 C 74.2 107.4 73.2 108.3 72 108.9 C 70.7 109.5 69.3 109.8 67.6 109.8 Z M 79.4 109.5 L 79.4 90.4 L 84.7 90.4 L 84.7 109.5 L 79.4 109.5 Z M 82 87.9 C 81.3 87.9 80.6 87.6 80 87.1 C 79.5 86.6 79.2 86 79.2 85.2 C 79.2 84.5 79.5 83.9 80 83.3 C 80.6 82.8 81.3 82.5 82 82.5 C 82.8 82.5 83.5 82.8 84.1 83.3 C 84.6 83.9 84.9 84.5 84.9 85.2 C 84.9 86 84.6 86.6 84.1 87.1 C 83.5 87.6 82.8 87.9 82 87.9 Z M 104.6 95.8 C 104.6 95.8 99.8 96.1 99.8 96.1 C 99.7 95.7 99.5 95.3 99.2 95 C 99 94.6 98.6 94.4 98.2 94.2 C 97.7 94 97.2 93.9 96.6 93.9 C 95.8 93.9 95.1 94 94.5 94.4 C 93.9 94.7 93.7 95.2 93.7 95.8 C 93.7 96.2 93.8 96.6 94.2 96.9 C 94.6 97.2 95.2 97.5 96.1 97.7 C 96.1 97.7 99.5 98.4 99.5 98.4 C 101.4 98.7 102.8 99.4 103.7 100.2 C 104.6 101.1 105 102.2 105 103.5 C 105 104.8 104.7 105.9 103.9 106.8 C 103.2 107.8 102.2 108.5 100.9 109 C 99.7 109.6 98.2 109.8 96.5 109.8 C 94 109.8 92 109.3 90.5 108.2 C 89 107.2 88.1 105.7 87.9 103.9 C 87.9 103.9 93.1 103.7 93.1 103.7 C 93.3 104.4 93.6 105 94.2 105.4 C 94.8 105.8 95.6 106 96.6 106 C 97.5 106 98.2 105.8 98.8 105.5 C 99.4 105.1 99.7 104.6 99.7 104.1 C 99.7 103.6 99.5 103.2 99.1 102.9 C 98.7 102.6 98 102.3 97.2 102.2 C 97.2 102.2 93.9 101.5 93.9 101.5 C 92 101.1 90.7 100.5 89.8 99.6 C 88.8 98.7 88.4 97.5 88.4 96.1 C 88.4 94.8 88.7 93.8 89.4 92.9 C 90.1 92 91 91.3 92.2 90.8 C 93.4 90.4 94.9 90.1 96.5 90.1 C 98.9 90.1 100.8 90.6 102.2 91.6 C 103.6 92.7 104.4 94.1 104.6 95.8 Z M 108.3 109.5 L 108.3 90.4 L 113.6 90.4 L 113.6 109.5 L 108.3 109.5 Z M 111 87.9 C 110.2 87.9 109.5 87.6 108.9 87.1 C 108.4 86.6 108.1 86 108.1 85.2 C 108.1 84.5 108.4 83.9 108.9 83.3 C 109.5 82.8 110.2 82.5 111 82.5 C 111.7 82.5 112.4 82.8 113 83.3 C 113.5 83.9 113.8 84.5 113.8 85.2 C 113.8 86 113.5 86.6 113 87.1 C 112.4 87.6 111.7 87.9 111 87.9 Z M 126.3 109.8 C 124.4 109.8 122.7 109.4 121.3 108.6 C 119.9 107.8 118.8 106.6 118.1 105.1 C 117.3 103.7 116.9 101.9 116.9 100 C 116.9 98 117.3 96.3 118.1 94.8 C 118.8 93.3 119.9 92.2 121.3 91.4 C 122.7 90.5 124.4 90.1 126.3 90.1 C 128.2 90.1 129.9 90.5 131.3 91.4 C 132.7 92.2 133.8 93.3 134.6 94.8 C 135.3 96.3 135.7 98 135.7 100 C 135.7 101.9 135.3 103.7 134.6 105.1 C 133.8 106.6 132.7 107.8 131.3 108.6 C 129.9 109.4 128.2 109.8 126.3 109.8 Z M 126.3 105.7 C 127.2 105.7 127.9 105.5 128.5 105 C 129.1 104.5 129.6 103.8 129.9 102.9 C 130.2 102 130.3 101.1 130.3 99.9 C 130.3 98.8 130.2 97.8 129.9 97 C 129.6 96.1 129.1 95.4 128.5 94.9 C 127.9 94.4 127.2 94.2 126.3 94.2 C 125.4 94.2 124.7 94.4 124.1 94.9 C 123.5 95.4 123 96.1 122.7 97 C 122.4 97.8 122.3 98.8 122.3 99.9 C 122.3 101.1 122.4 102 122.7 102.9 C 123 103.8 123.5 104.5 124.1 105 C 124.7 105.5 125.4 105.7 126.3 105.7 Z M 144.3 98.4 C 144.32 98.42 144.3 109.5 144.3 109.5 L 139 109.5 L 139 90.4 L 144.1 90.4 L 144.1 93.7 C 144.1 93.7 144.3 93.73 144.3 93.7 C 144.7 92.6 145.4 91.7 146.4 91.1 C 147.4 90.4 148.6 90.1 150 90.1 C 151.4 90.1 152.5 90.4 153.5 91 C 154.5 91.6 155.3 92.4 155.8 93.5 C 156.4 94.5 156.6 95.8 156.6 97.3 C 156.63 97.3 156.6 109.5 156.6 109.5 L 151.3 109.5 C 151.3 109.5 151.33 98.24 151.3 98.2 C 151.3 97.1 151 96.2 150.4 95.5 C 149.8 94.8 149 94.5 147.9 94.5 C 147.2 94.5 146.6 94.7 146.1 95 C 145.5 95.3 145.1 95.7 144.8 96.3 C 144.5 96.9 144.3 97.6 144.3 98.4 Z " stroke="none" fill="#ffffff"/>  </g>  <g id="Polygon124309">    <path d="M 6.6 67.5 L 0.8 67.5 L 9.6 42 L 16.6 42 L 25.3 67.5 L 19.6 67.5 L 13.2 47.8 L 13 47.8 L 6.6 67.5 Z M 6.2 57.4 L 19.9 57.4 L 19.9 61.7 L 6.2 61.7 L 6.2 57.4 Z M 33.7 42 L 33.7 67.5 L 28.3 67.5 L 28.3 42 L 33.7 42 Z M 53.2 67.8 C 51.8 67.8 50.4 67.4 49.3 66.6 C 48.1 65.9 47.2 64.8 46.5 63.3 C 45.8 61.9 45.5 60.1 45.5 57.9 C 45.5 55.7 45.8 53.9 46.5 52.5 C 47.2 51 48.2 49.9 49.3 49.2 C 50.5 48.5 51.8 48.1 53.2 48.1 C 54.3 48.1 55.2 48.3 55.9 48.7 C 56.6 49 57.2 49.5 57.6 50 C 58.1 50.5 58.4 51.1 58.6 51.6 C 58.63 51.57 58.8 51.6 58.8 51.6 L 58.8 42 L 64.1 42 L 64.1 67.5 L 58.9 67.5 L 58.9 64.4 C 58.9 64.4 58.63 64.4 58.6 64.4 C 58.4 64.9 58 65.5 57.6 66 C 57.1 66.5 56.5 66.9 55.8 67.3 C 55.1 67.6 54.2 67.8 53.2 67.8 Z M 54.9 63.6 C 55.7 63.6 56.5 63.3 57.1 62.8 C 57.6 62.4 58.1 61.7 58.4 60.9 C 58.7 60 58.9 59 58.9 57.9 C 58.9 56.8 58.7 55.8 58.4 55 C 58.1 54.1 57.7 53.5 57.1 53 C 56.5 52.6 55.7 52.3 54.9 52.3 C 54 52.3 53.3 52.6 52.7 53 C 52.1 53.5 51.6 54.2 51.3 55 C 51 55.8 50.9 56.8 50.9 57.9 C 50.9 59 51 60 51.3 60.8 C 51.6 61.7 52.1 62.4 52.7 62.8 C 53.3 63.3 54 63.6 54.9 63.6 Z M 77 67.8 C 75 67.8 73.3 67.4 71.9 66.6 C 70.5 65.8 69.4 64.7 68.6 63.2 C 67.9 61.8 67.5 60 67.5 58 C 67.5 56 67.9 54.3 68.6 52.8 C 69.4 51.3 70.5 50.2 71.9 49.4 C 73.3 48.5 74.9 48.1 76.8 48.1 C 78 48.1 79.2 48.3 80.3 48.7 C 81.4 49.1 82.3 49.7 83.1 50.5 C 84 51.3 84.6 52.3 85.1 53.6 C 85.5 54.8 85.7 56.2 85.7 57.8 C 85.74 57.81 85.7 59.3 85.7 59.3 L 69.6 59.3 L 69.6 56 C 69.6 56 80.75 55.98 80.8 56 C 80.8 55.2 80.6 54.5 80.3 54 C 79.9 53.4 79.5 52.9 78.9 52.6 C 78.3 52.2 77.6 52.1 76.9 52.1 C 76 52.1 75.3 52.3 74.7 52.6 C 74.1 53 73.6 53.5 73.3 54.1 C 72.9 54.7 72.7 55.4 72.7 56.2 C 72.7 56.2 72.7 59.3 72.7 59.3 C 72.7 60.2 72.9 61 73.3 61.7 C 73.6 62.4 74.1 62.9 74.8 63.3 C 75.4 63.7 76.2 63.9 77.1 63.9 C 77.7 63.9 78.2 63.8 78.7 63.6 C 79.2 63.5 79.6 63.2 79.9 62.9 C 80.3 62.5 80.5 62.1 80.7 61.7 C 80.7 61.7 85.6 62 85.6 62 C 85.4 63.2 84.9 64.2 84.1 65.1 C 83.3 65.9 82.4 66.6 81.1 67.1 C 79.9 67.6 78.6 67.8 77 67.8 Z M 94.5 42 L 94.5 67.5 L 89.2 67.5 L 89.2 42 L 94.5 42 Z M 98.7 67.5 L 98.7 48.4 L 104 48.4 L 104 67.5 L 98.7 67.5 Z M 101.4 45.9 C 100.6 45.9 99.9 45.6 99.4 45.1 C 98.8 44.6 98.5 44 98.5 43.2 C 98.5 42.5 98.8 41.9 99.4 41.3 C 99.9 40.8 100.6 40.5 101.4 40.5 C 102.2 40.5 102.8 40.8 103.4 41.3 C 104 41.9 104.2 42.5 104.2 43.2 C 104.2 44 104 44.6 103.4 45.1 C 102.8 45.6 102.2 45.9 101.4 45.9 Z M 125.8 48.4 L 119.1 67.5 L 113.1 67.5 L 106.5 48.4 L 112.1 48.4 L 116 62 L 116.2 62 L 120.2 48.4 L 125.8 48.4 Z M 136.1 67.8 C 134.2 67.8 132.5 67.4 131.1 66.6 C 129.7 65.8 128.6 64.7 127.8 63.2 C 127 61.8 126.7 60 126.7 58 C 126.7 56 127 54.3 127.8 52.8 C 128.6 51.3 129.6 50.2 131 49.4 C 132.4 48.5 134 48.1 135.9 48.1 C 137.2 48.1 138.4 48.3 139.4 48.7 C 140.5 49.1 141.5 49.7 142.3 50.5 C 143.1 51.3 143.8 52.3 144.2 53.6 C 144.7 54.8 144.9 56.2 144.9 57.8 C 144.89 57.81 144.9 59.3 144.9 59.3 L 128.8 59.3 L 128.8 56 C 128.8 56 139.91 55.98 139.9 56 C 139.9 55.2 139.7 54.5 139.4 54 C 139.1 53.4 138.6 52.9 138 52.6 C 137.5 52.2 136.8 52.1 136 52.1 C 135.2 52.1 134.5 52.3 133.9 52.6 C 133.3 53 132.8 53.5 132.4 54.1 C 132.1 54.7 131.9 55.4 131.9 56.2 C 131.9 56.2 131.9 59.3 131.9 59.3 C 131.9 60.2 132.1 61 132.4 61.7 C 132.8 62.4 133.3 62.9 133.9 63.3 C 134.6 63.7 135.3 63.9 136.2 63.9 C 136.8 63.9 137.3 63.8 137.8 63.6 C 138.3 63.5 138.7 63.2 139.1 62.9 C 139.4 62.5 139.7 62.1 139.9 61.7 C 139.9 61.7 144.8 62 144.8 62 C 144.5 63.2 144 64.2 143.3 65.1 C 142.5 65.9 141.5 66.6 140.3 67.1 C 139.1 67.6 137.7 67.8 136.1 67.8 Z M 148.3 67.5 L 148.3 48.4 L 153.5 48.4 L 153.5 51.7 C 153.5 51.7 153.67 51.69 153.7 51.7 C 154 50.5 154.6 49.6 155.4 49 C 156.2 48.4 157.2 48.1 158.3 48.1 C 158.5 48.1 158.8 48.1 159.1 48.1 C 159.4 48.2 159.7 48.2 159.9 48.3 C 159.9 48.3 159.9 53 159.9 53 C 159.7 52.9 159.3 52.8 158.9 52.8 C 158.4 52.7 158 52.7 157.7 52.7 C 156.9 52.7 156.2 52.9 155.6 53.2 C 155 53.5 154.5 54 154.2 54.6 C 153.8 55.2 153.6 55.9 153.6 56.7 C 153.63 56.65 153.6 67.5 153.6 67.5 L 148.3 67.5 Z M 178.4 53.8 C 178.4 53.8 173.6 54.1 173.6 54.1 C 173.5 53.7 173.3 53.3 173 53 C 172.8 52.6 172.4 52.4 172 52.2 C 171.5 52 171 51.9 170.4 51.9 C 169.6 51.9 168.9 52 168.3 52.4 C 167.7 52.7 167.5 53.2 167.5 53.8 C 167.5 54.2 167.6 54.6 168 54.9 C 168.4 55.2 169 55.5 169.9 55.7 C 169.9 55.7 173.3 56.4 173.3 56.4 C 175.2 56.7 176.6 57.4 177.5 58.2 C 178.4 59.1 178.9 60.2 178.9 61.5 C 178.9 62.8 178.5 63.9 177.8 64.8 C 177 65.8 176 66.5 174.7 67 C 173.5 67.6 172 67.8 170.4 67.8 C 167.8 67.8 165.8 67.3 164.3 66.2 C 162.8 65.2 161.9 63.7 161.7 61.9 C 161.7 61.9 166.9 61.7 166.9 61.7 C 167.1 62.4 167.4 63 168 63.4 C 168.6 63.8 169.4 64 170.4 64 C 171.3 64 172 63.8 172.6 63.5 C 173.2 63.1 173.5 62.6 173.5 62.1 C 173.5 61.6 173.3 61.2 172.9 60.9 C 172.5 60.6 171.9 60.3 171 60.2 C 171 60.2 167.7 59.5 167.7 59.5 C 165.9 59.1 164.5 58.5 163.6 57.6 C 162.7 56.7 162.2 55.5 162.2 54.1 C 162.2 52.8 162.5 51.8 163.2 50.9 C 163.9 50 164.8 49.3 166 48.8 C 167.2 48.4 168.7 48.1 170.3 48.1 C 172.7 48.1 174.6 48.6 176 49.6 C 177.4 50.7 178.2 52.1 178.4 53.8 Z " stroke="none" fill="#ffffff"/>  </g>  <g id="Polygon124308">    <path d="M 6.6 25.5 L 0.8 25.5 L 9.6 0 L 16.6 0 L 25.3 25.5 L 19.6 25.5 L 13.2 5.8 L 13 5.8 L 6.6 25.5 Z M 6.2 15.4 L 19.9 15.4 L 19.9 19.7 L 6.2 19.7 L 6.2 15.4 Z M 33.4 14.4 C 33.39 14.42 33.4 25.5 33.4 25.5 L 28.1 25.5 L 28.1 6.4 L 33.1 6.4 L 33.1 9.7 C 33.1 9.7 33.36 9.73 33.4 9.7 C 33.8 8.6 34.5 7.7 35.5 7.1 C 36.5 6.4 37.7 6.1 39.1 6.1 C 40.4 6.1 41.6 6.4 42.6 7 C 43.6 7.6 44.3 8.4 44.9 9.5 C 45.4 10.5 45.7 11.8 45.7 13.3 C 45.69 13.3 45.7 25.5 45.7 25.5 L 40.4 25.5 C 40.4 25.5 40.4 14.24 40.4 14.2 C 40.4 13.1 40.1 12.2 39.5 11.5 C 38.9 10.8 38.1 10.5 37 10.5 C 36.3 10.5 35.7 10.7 35.1 11 C 34.6 11.3 34.2 11.7 33.9 12.3 C 33.6 12.9 33.4 13.6 33.4 14.4 Z M 55.1 25.8 C 53.9 25.8 52.8 25.6 51.9 25.2 C 50.9 24.7 50.2 24.1 49.6 23.3 C 49.1 22.4 48.8 21.4 48.8 20.1 C 48.8 19.1 49 18.2 49.4 17.5 C 49.8 16.7 50.3 16.1 51 15.7 C 51.7 15.3 52.4 14.9 53.3 14.7 C 54.1 14.5 55 14.3 56 14.2 C 57.1 14.1 58 14 58.7 13.9 C 59.3 13.8 59.8 13.7 60.1 13.4 C 60.5 13.2 60.6 12.9 60.6 12.5 C 60.6 12.5 60.6 12.5 60.6 12.5 C 60.6 11.7 60.4 11.1 59.9 10.6 C 59.4 10.2 58.7 10 57.8 10 C 56.8 10 56.1 10.2 55.5 10.6 C 54.9 11 54.6 11.6 54.4 12.2 C 54.4 12.2 49.5 11.8 49.5 11.8 C 49.7 10.6 50.2 9.6 50.9 8.8 C 51.7 7.9 52.6 7.3 53.8 6.8 C 54.9 6.3 56.3 6.1 57.8 6.1 C 58.9 6.1 59.9 6.2 60.8 6.5 C 61.8 6.7 62.7 7.1 63.4 7.6 C 64.2 8.2 64.8 8.8 65.2 9.7 C 65.7 10.5 65.9 11.4 65.9 12.6 C 65.9 12.58 65.9 25.5 65.9 25.5 L 60.9 25.5 L 60.9 22.8 C 60.9 22.8 60.73 22.81 60.7 22.8 C 60.4 23.4 60 23.9 59.5 24.4 C 59 24.8 58.4 25.2 57.6 25.4 C 56.9 25.7 56.1 25.8 55.1 25.8 Z M 56.7 22.2 C 57.4 22.2 58.1 22 58.7 21.7 C 59.3 21.4 59.8 21 60.1 20.4 C 60.5 19.9 60.6 19.3 60.6 18.6 C 60.6 18.6 60.6 16.6 60.6 16.6 C 60.5 16.7 60.3 16.8 60 16.9 C 59.7 17 59.4 17.1 59 17.1 C 58.6 17.2 58.3 17.3 57.9 17.3 C 57.6 17.4 57.3 17.4 57 17.5 C 56.3 17.6 55.8 17.7 55.3 17.9 C 54.9 18.1 54.5 18.4 54.3 18.7 C 54 19 53.9 19.5 53.9 19.9 C 53.9 20.7 54.1 21.2 54.7 21.6 C 55.2 22 55.9 22.2 56.7 22.2 Z M 70 32.6 L 70 6.4 L 75.3 6.4 L 75.3 9.6 C 75.3 9.6 75.5 9.57 75.5 9.6 C 75.7 9.1 76.1 8.5 76.5 8 C 77 7.5 77.5 7 78.3 6.7 C 79 6.3 79.9 6.1 80.9 6.1 C 82.3 6.1 83.6 6.5 84.8 7.2 C 86 7.9 86.9 9 87.6 10.5 C 88.3 11.9 88.7 13.7 88.7 15.9 C 88.7 18.1 88.3 19.9 87.6 21.3 C 87 22.8 86 23.9 84.9 24.6 C 83.7 25.4 82.4 25.8 80.9 25.8 C 79.9 25.8 79 25.6 78.3 25.3 C 77.6 24.9 77 24.5 76.5 24 C 76.1 23.5 75.7 22.9 75.5 22.4 C 75.5 22.4 75.3 22.4 75.3 22.4 L 75.3 32.6 L 70 32.6 Z M 75.2 15.9 C 75.2 17 75.4 18 75.7 18.9 C 76 19.7 76.5 20.4 77.1 20.8 C 77.7 21.3 78.4 21.6 79.2 21.6 C 80.1 21.6 80.8 21.3 81.4 20.8 C 82 20.4 82.5 19.7 82.8 18.8 C 83.1 18 83.3 17 83.3 15.9 C 83.3 14.8 83.1 13.8 82.8 13 C 82.5 12.2 82 11.5 81.4 11 C 80.8 10.6 80.1 10.3 79.2 10.3 C 78.4 10.3 77.7 10.6 77.1 11 C 76.5 11.5 76 12.1 75.7 13 C 75.4 13.8 75.2 14.8 75.2 15.9 Z M 97.5 0 L 97.5 25.5 L 92.2 25.5 L 92.2 0 L 97.5 0 Z M 107.1 25.8 C 105.8 25.8 104.7 25.6 103.8 25.2 C 102.8 24.7 102.1 24.1 101.5 23.3 C 101 22.4 100.7 21.4 100.7 20.1 C 100.7 19.1 100.9 18.2 101.3 17.5 C 101.7 16.7 102.2 16.1 102.9 15.7 C 103.6 15.3 104.3 14.9 105.2 14.7 C 106 14.5 106.9 14.3 107.9 14.2 C 109 14.1 109.9 14 110.6 13.9 C 111.2 13.8 111.7 13.7 112 13.4 C 112.4 13.2 112.5 12.9 112.5 12.5 C 112.5 12.5 112.5 12.5 112.5 12.5 C 112.5 11.7 112.3 11.1 111.8 10.6 C 111.3 10.2 110.6 10 109.7 10 C 108.7 10 108 10.2 107.4 10.6 C 106.8 11 106.5 11.6 106.3 12.2 C 106.3 12.2 101.4 11.8 101.4 11.8 C 101.6 10.6 102.1 9.6 102.9 8.8 C 103.6 7.9 104.5 7.3 105.7 6.8 C 106.8 6.3 108.2 6.1 109.7 6.1 C 110.8 6.1 111.8 6.2 112.8 6.5 C 113.7 6.7 114.6 7.1 115.3 7.6 C 116.1 8.2 116.7 8.8 117.1 9.7 C 117.6 10.5 117.8 11.4 117.8 12.6 C 117.8 12.58 117.8 25.5 117.8 25.5 L 112.8 25.5 L 112.8 22.8 C 112.8 22.8 112.63 22.81 112.6 22.8 C 112.3 23.4 111.9 23.9 111.4 24.4 C 110.9 24.8 110.3 25.2 109.6 25.4 C 108.8 25.7 108 25.8 107.1 25.8 Z M 108.6 22.2 C 109.3 22.2 110 22 110.6 21.7 C 111.2 21.4 111.7 21 112 20.4 C 112.4 19.9 112.5 19.3 112.5 18.6 C 112.5 18.6 112.5 16.6 112.5 16.6 C 112.4 16.7 112.2 16.8 111.9 16.9 C 111.6 17 111.3 17.1 110.9 17.1 C 110.5 17.2 110.2 17.3 109.8 17.3 C 109.5 17.4 109.2 17.4 108.9 17.5 C 108.2 17.6 107.7 17.7 107.2 17.9 C 106.8 18.1 106.4 18.4 106.2 18.7 C 105.9 19 105.8 19.5 105.8 19.9 C 105.8 20.7 106 21.2 106.6 21.6 C 107.1 22 107.8 22.2 108.6 22.2 Z M 127.2 14.4 C 127.24 14.42 127.2 25.5 127.2 25.5 L 121.9 25.5 L 121.9 6.4 L 127 6.4 L 127 9.7 C 127 9.7 127.22 9.73 127.2 9.7 C 127.6 8.6 128.4 7.7 129.3 7.1 C 130.3 6.4 131.5 6.1 133 6.1 C 134.3 6.1 135.4 6.4 136.4 7 C 137.4 7.6 138.2 8.4 138.7 9.5 C 139.3 10.5 139.5 11.8 139.5 13.3 C 139.55 13.3 139.5 25.5 139.5 25.5 L 134.3 25.5 C 134.3 25.5 134.25 14.24 134.3 14.2 C 134.3 13.1 134 12.2 133.4 11.5 C 132.8 10.8 131.9 10.5 130.9 10.5 C 130.1 10.5 129.5 10.7 129 11 C 128.4 11.3 128 11.7 127.7 12.3 C 127.4 12.9 127.3 13.6 127.2 14.4 Z M 147.3 0 C 147.3 0 147.33 2.68 147.3 2.7 C 147.3 3.4 147.2 4.2 146.9 5 C 146.6 5.8 146.2 6.6 145.7 7.3 C 145.2 8 144.7 8.5 144.1 9 C 144.1 9 141.8 7.7 141.8 7.7 C 142.2 7 142.6 6.3 142.9 5.5 C 143.2 4.7 143.3 3.8 143.3 2.7 C 143.35 2.71 143.3 0 143.3 0 L 147.3 0 Z M 165.4 11.8 C 165.4 11.8 160.5 12.1 160.5 12.1 C 160.5 11.7 160.3 11.3 160 11 C 159.7 10.6 159.4 10.4 158.9 10.2 C 158.5 10 158 9.9 157.4 9.9 C 156.5 9.9 155.8 10 155.3 10.4 C 154.7 10.7 154.4 11.2 154.4 11.8 C 154.4 12.2 154.6 12.6 155 12.9 C 155.3 13.2 156 13.5 156.9 13.7 C 156.9 13.7 160.3 14.4 160.3 14.4 C 162.2 14.7 163.5 15.4 164.5 16.2 C 165.4 17.1 165.8 18.2 165.8 19.5 C 165.8 20.8 165.5 21.9 164.7 22.8 C 164 23.8 163 24.5 161.7 25 C 160.4 25.6 159 25.8 157.3 25.8 C 154.8 25.8 152.8 25.3 151.3 24.2 C 149.8 23.2 148.9 21.7 148.7 19.9 C 148.7 19.9 153.9 19.7 153.9 19.7 C 154 20.4 154.4 21 155 21.4 C 155.6 21.8 156.4 22 157.3 22 C 158.3 22 159 21.8 159.6 21.5 C 160.1 21.1 160.4 20.6 160.4 20.1 C 160.4 19.6 160.2 19.2 159.8 18.9 C 159.4 18.6 158.8 18.3 158 18.2 C 158 18.2 154.7 17.5 154.7 17.5 C 152.8 17.1 151.4 16.5 150.5 15.6 C 149.6 14.7 149.2 13.5 149.2 12.1 C 149.2 10.8 149.5 9.8 150.2 8.9 C 150.8 8 151.8 7.3 153 6.8 C 154.2 6.4 155.6 6.1 157.3 6.1 C 159.7 6.1 161.6 6.6 163 7.6 C 164.3 8.7 165.2 10.1 165.4 11.8 Z " stroke="none" fill="#ffffff"/>  </g></svg>