<?xml version="1.0" standalone="no"?><!DOCTYPE svg PUBLIC "-//W3C//DTD SVG 1.1//EN" "http://www.w3.org/Graphics/SVG/1.1/DTD/svg11.dtd"><svg xmlns="http://www.w3.org/2000/svg" version="1.1" width="524.1px" height="184px" viewBox="0 -17 524.1 184" style="top:-17px">  <desc>Difficult to use ￼ Deployment can be difficult and tools hard to understand. More about this ￼</desc>  <defs/>  <g id="Polygon112933">    <path d="M 1.6 133.1 L 6.3 133.1 L 11.3 145.3 L 11.5 145.3 L 16.5 133.1 L 21.3 133.1 L 21.3 151.3 L 17.6 151.3 L 17.6 139.4 L 17.4 139.4 L 12.7 151.2 L 10.2 151.2 L 5.5 139.4 L 5.3 139.4 L 5.3 151.3 L 1.6 151.3 L 1.6 133.1 Z M 30.5 151.5 C 29.1 151.5 27.9 151.2 26.9 150.7 C 25.9 150.1 25.1 149.2 24.6 148.2 C 24.1 147.1 23.8 145.9 23.8 144.5 C 23.8 143.1 24.1 141.9 24.6 140.8 C 25.1 139.8 25.9 138.9 26.9 138.3 C 27.9 137.8 29.1 137.5 30.5 137.5 C 31.9 137.5 33.1 137.8 34.1 138.3 C 35.1 138.9 35.8 139.8 36.4 140.8 C 36.9 141.9 37.2 143.1 37.2 144.5 C 37.2 145.9 36.9 147.1 36.4 148.2 C 35.8 149.2 35.1 150.1 34.1 150.7 C 33.1 151.2 31.9 151.5 30.5 151.5 Z M 30.5 148.6 C 31.1 148.6 31.7 148.4 32.1 148.1 C 32.5 147.7 32.8 147.2 33 146.6 C 33.3 146 33.4 145.3 33.4 144.5 C 33.4 143.7 33.3 143 33 142.4 C 32.8 141.7 32.5 141.2 32.1 140.9 C 31.7 140.5 31.1 140.3 30.5 140.3 C 29.9 140.3 29.4 140.5 28.9 140.9 C 28.5 141.2 28.2 141.7 28 142.4 C 27.7 143 27.6 143.7 27.6 144.5 C 27.6 145.3 27.7 146 28 146.6 C 28.2 147.2 28.5 147.7 28.9 148.1 C 29.4 148.4 29.9 148.6 30.5 148.6 Z M 39.6 151.3 L 39.6 137.6 L 43.3 137.6 L 43.3 140 C 43.3 140 43.4 140.02 43.4 140 C 43.6 139.2 44.1 138.5 44.6 138.1 C 45.2 137.7 45.9 137.4 46.7 137.4 C 46.9 137.4 47.1 137.5 47.3 137.5 C 47.5 137.5 47.7 137.5 47.9 137.6 C 47.9 137.6 47.9 140.9 47.9 140.9 C 47.7 140.9 47.4 140.8 47.1 140.8 C 46.8 140.7 46.5 140.7 46.3 140.7 C 45.7 140.7 45.2 140.8 44.8 141.1 C 44.3 141.3 44 141.7 43.7 142.1 C 43.5 142.5 43.4 143 43.4 143.6 C 43.37 143.56 43.4 151.3 43.4 151.3 L 39.6 151.3 Z M 55.6 151.5 C 54.2 151.5 53 151.3 52 150.7 C 51 150.1 50.2 149.3 49.7 148.2 C 49.1 147.2 48.9 146 48.9 144.5 C 48.9 143.1 49.1 141.9 49.7 140.8 C 50.2 139.8 51 138.9 52 138.3 C 53 137.8 54.2 137.5 55.5 137.5 C 56.4 137.5 57.2 137.6 58 137.9 C 58.8 138.2 59.5 138.6 60 139.2 C 60.6 139.8 61.1 140.5 61.4 141.3 C 61.7 142.2 61.9 143.2 61.9 144.4 C 61.9 144.38 61.9 145.4 61.9 145.4 L 50.4 145.4 L 50.4 143.1 C 50.4 143.1 58.34 143.08 58.3 143.1 C 58.3 142.5 58.2 142.1 58 141.6 C 57.7 141.2 57.4 140.9 57 140.6 C 56.6 140.4 56.1 140.3 55.6 140.3 C 55 140.3 54.5 140.4 54 140.7 C 53.6 140.9 53.2 141.3 53 141.7 C 52.7 142.2 52.6 142.7 52.6 143.2 C 52.6 143.2 52.6 145.4 52.6 145.4 C 52.6 146.1 52.7 146.7 53 147.2 C 53.2 147.7 53.6 148.1 54.1 148.3 C 54.5 148.6 55.1 148.7 55.7 148.7 C 56.1 148.7 56.5 148.7 56.9 148.5 C 57.2 148.4 57.5 148.2 57.8 148 C 58 147.8 58.2 147.5 58.3 147.1 C 58.3 147.1 61.8 147.4 61.8 147.4 C 61.6 148.2 61.3 148.9 60.7 149.6 C 60.2 150.2 59.5 150.7 58.6 151 C 57.8 151.4 56.8 151.5 55.6 151.5 Z M 74.1 151.5 C 73.2 151.5 72.4 151.4 71.7 151.1 C 71 150.8 70.5 150.3 70.1 149.7 C 69.7 149.1 69.5 148.4 69.5 147.5 C 69.5 146.7 69.7 146.1 69.9 145.6 C 70.2 145 70.6 144.6 71.1 144.3 C 71.6 144 72.1 143.8 72.7 143.6 C 73.3 143.4 74 143.3 74.6 143.3 C 75.4 143.2 76.1 143.1 76.6 143 C 77.1 143 77.4 142.8 77.6 142.7 C 77.8 142.5 78 142.3 78 142 C 78 142 78 142 78 142 C 78 141.4 77.8 141 77.4 140.7 C 77.1 140.4 76.6 140.2 75.9 140.2 C 75.2 140.2 74.7 140.4 74.3 140.7 C 73.9 141 73.6 141.3 73.5 141.8 C 73.5 141.8 70 141.5 70 141.5 C 70.2 140.7 70.5 140 71.1 139.4 C 71.6 138.7 72.2 138.3 73.1 138 C 73.9 137.6 74.9 137.5 75.9 137.5 C 76.7 137.5 77.4 137.5 78.1 137.7 C 78.8 137.9 79.4 138.2 80 138.6 C 80.5 138.9 80.9 139.4 81.3 140 C 81.6 140.6 81.7 141.3 81.7 142.1 C 81.73 142.08 81.7 151.3 81.7 151.3 L 78.1 151.3 L 78.1 149.4 C 78.1 149.4 78.04 149.38 78 149.4 C 77.8 149.8 77.5 150.2 77.2 150.5 C 76.8 150.8 76.4 151.1 75.8 151.3 C 75.3 151.4 74.7 151.5 74.1 151.5 Z M 75.1 148.9 C 75.7 148.9 76.2 148.8 76.6 148.6 C 77 148.4 77.4 148.1 77.6 147.7 C 77.9 147.3 78 146.9 78 146.4 C 78 146.4 78 145 78 145 C 77.9 145 77.7 145.1 77.5 145.2 C 77.3 145.2 77.1 145.3 76.8 145.3 C 76.6 145.4 76.3 145.4 76 145.5 C 75.8 145.5 75.6 145.5 75.4 145.6 C 74.9 145.6 74.5 145.7 74.2 145.9 C 73.9 146 73.6 146.2 73.4 146.4 C 73.2 146.7 73.1 147 73.1 147.3 C 73.1 147.9 73.3 148.2 73.7 148.5 C 74.1 148.8 74.6 148.9 75.1 148.9 Z M 84.5 151.3 L 84.5 133.1 L 88.3 133.1 L 88.3 139.9 C 88.3 139.9 88.38 139.93 88.4 139.9 C 88.5 139.6 88.8 139.2 89.1 138.8 C 89.4 138.4 89.8 138.1 90.3 137.8 C 90.9 137.6 91.5 137.5 92.3 137.5 C 93.3 137.5 94.2 137.7 95 138.2 C 95.9 138.8 96.5 139.5 97 140.6 C 97.5 141.6 97.8 142.9 97.8 144.5 C 97.8 146 97.5 147.3 97 148.3 C 96.6 149.4 95.9 150.2 95.1 150.7 C 94.2 151.2 93.3 151.5 92.3 151.5 C 91.5 151.5 90.9 151.4 90.4 151.1 C 89.9 150.9 89.5 150.6 89.1 150.2 C 88.8 149.8 88.6 149.5 88.4 149.1 C 88.38 149.09 88.2 149.1 88.2 149.1 L 88.2 151.3 L 84.5 151.3 Z M 88.2 144.5 C 88.2 145.3 88.3 146 88.5 146.6 C 88.7 147.2 89.1 147.6 89.5 148 C 89.9 148.3 90.4 148.5 91.1 148.5 C 91.7 148.5 92.2 148.3 92.6 148 C 93 147.6 93.4 147.2 93.6 146.6 C 93.8 145.9 93.9 145.2 93.9 144.5 C 93.9 143.7 93.8 143 93.6 142.4 C 93.4 141.8 93.1 141.3 92.6 141 C 92.2 140.6 91.7 140.5 91.1 140.5 C 90.4 140.5 89.9 140.6 89.5 141 C 89.1 141.3 88.7 141.7 88.5 142.3 C 88.3 142.9 88.2 143.6 88.2 144.5 Z M 106.3 151.5 C 105 151.5 103.8 151.2 102.8 150.7 C 101.8 150.1 101 149.2 100.4 148.2 C 99.9 147.1 99.6 145.9 99.6 144.5 C 99.6 143.1 99.9 141.9 100.4 140.8 C 101 139.8 101.8 138.9 102.8 138.3 C 103.8 137.8 105 137.5 106.3 137.5 C 107.7 137.5 108.9 137.8 109.9 138.3 C 110.9 138.9 111.7 139.8 112.2 140.8 C 112.8 141.9 113 143.1 113 144.5 C 113 145.9 112.8 147.1 112.2 148.2 C 111.7 149.2 110.9 150.1 109.9 150.7 C 108.9 151.2 107.7 151.5 106.3 151.5 Z M 106.4 148.6 C 107 148.6 107.5 148.4 107.9 148.1 C 108.3 147.7 108.7 147.2 108.9 146.6 C 109.1 146 109.2 145.3 109.2 144.5 C 109.2 143.7 109.1 143 108.9 142.4 C 108.7 141.7 108.3 141.2 107.9 140.9 C 107.5 140.5 107 140.3 106.4 140.3 C 105.7 140.3 105.2 140.5 104.8 140.9 C 104.3 141.2 104 141.7 103.8 142.4 C 103.6 143 103.5 143.7 103.5 144.5 C 103.5 145.3 103.6 146 103.8 146.6 C 104 147.2 104.3 147.7 104.8 148.1 C 105.2 148.4 105.7 148.6 106.4 148.6 Z M 124.1 145.5 C 124.08 145.47 124.1 137.6 124.1 137.6 L 127.9 137.6 L 127.9 151.3 L 124.2 151.3 L 124.2 148.8 C 124.2 148.8 124.09 148.8 124.1 148.8 C 123.8 149.6 123.3 150.2 122.6 150.7 C 121.8 151.2 121 151.5 120 151.5 C 119 151.5 118.2 151.2 117.6 150.8 C 116.9 150.4 116.3 149.8 115.9 149.1 C 115.5 148.3 115.3 147.4 115.3 146.3 C 115.34 146.32 115.3 137.6 115.3 137.6 L 119.1 137.6 C 119.1 137.6 119.12 145.64 119.1 145.6 C 119.1 146.4 119.3 147.1 119.8 147.6 C 120.2 148 120.8 148.3 121.5 148.3 C 121.9 148.3 122.4 148.1 122.8 147.9 C 123.2 147.7 123.5 147.4 123.7 147 C 124 146.6 124.1 146.1 124.1 145.5 Z M 138 137.6 L 138 140.5 L 129.7 140.5 L 129.7 137.6 L 138 137.6 Z M 131.6 134.4 L 135.4 134.4 C 135.4 134.4 135.38 147.08 135.4 147.1 C 135.4 147.4 135.4 147.7 135.5 147.9 C 135.7 148.1 135.8 148.2 136 148.3 C 136.2 148.4 136.4 148.4 136.7 148.4 C 136.8 148.4 137 148.4 137.2 148.4 C 137.4 148.3 137.5 148.3 137.6 148.3 C 137.6 148.3 138.2 151.1 138.2 151.1 C 138 151.2 137.7 151.2 137.4 151.3 C 137.1 151.4 136.6 151.4 136.1 151.5 C 135.2 151.5 134.4 151.4 133.8 151.1 C 133.1 150.8 132.5 150.4 132.2 149.8 C 131.8 149.2 131.6 148.5 131.6 147.6 C 131.6 147.58 131.6 134.4 131.6 134.4 Z M 153.5 137.6 L 153.5 140.5 L 145.2 140.5 L 145.2 137.6 L 153.5 137.6 Z M 147.1 134.4 L 150.9 134.4 C 150.9 134.4 150.89 147.08 150.9 147.1 C 150.9 147.4 150.9 147.7 151.1 147.9 C 151.2 148.1 151.3 148.2 151.5 148.3 C 151.7 148.4 151.9 148.4 152.2 148.4 C 152.4 148.4 152.5 148.4 152.7 148.4 C 152.9 148.3 153 148.3 153.1 148.3 C 153.1 148.3 153.7 151.1 153.7 151.1 C 153.5 151.2 153.3 151.2 152.9 151.3 C 152.6 151.4 152.1 151.4 151.7 151.5 C 150.7 151.5 149.9 151.4 149.3 151.1 C 148.6 150.8 148.1 150.4 147.7 149.8 C 147.3 149.2 147.1 148.5 147.1 147.6 C 147.11 147.58 147.1 134.4 147.1 134.4 Z M 159.4 143.4 C 159.4 143.39 159.4 151.3 159.4 151.3 L 155.6 151.3 L 155.6 133.1 L 159.3 133.1 L 159.3 140 C 159.3 140 159.46 140.04 159.5 140 C 159.8 139.2 160.3 138.6 160.9 138.1 C 161.6 137.7 162.5 137.5 163.5 137.5 C 164.5 137.5 165.3 137.7 166 138.1 C 166.7 138.5 167.3 139.1 167.7 139.8 C 168.1 140.6 168.3 141.5 168.2 142.6 C 168.25 142.59 168.2 151.3 168.2 151.3 L 164.5 151.3 C 164.5 151.3 164.46 143.26 164.5 143.3 C 164.5 142.4 164.3 141.8 163.8 141.3 C 163.4 140.8 162.8 140.6 162 140.6 C 161.5 140.6 161.1 140.7 160.7 140.9 C 160.3 141.1 160 141.5 159.7 141.9 C 159.5 142.3 159.4 142.8 159.4 143.4 Z M 171.1 151.3 L 171.1 137.6 L 174.9 137.6 L 174.9 151.3 L 171.1 151.3 Z M 173 135.9 C 172.4 135.9 171.9 135.7 171.5 135.3 C 171.1 134.9 170.9 134.5 170.9 134 C 170.9 133.4 171.1 133 171.5 132.6 C 171.9 132.2 172.4 132.1 173 132.1 C 173.5 132.1 174 132.2 174.4 132.6 C 174.8 133 175 133.4 175 134 C 175 134.5 174.8 134.9 174.4 135.3 C 174 135.7 173.5 135.9 173 135.9 Z M 189 141.5 C 189 141.5 185.5 141.7 185.5 141.7 C 185.5 141.4 185.3 141.2 185.1 140.9 C 184.9 140.7 184.7 140.5 184.4 140.4 C 184.1 140.2 183.7 140.1 183.2 140.1 C 182.7 140.1 182.2 140.3 181.8 140.5 C 181.4 140.8 181.2 141.1 181.2 141.5 C 181.2 141.8 181.3 142.1 181.5 142.3 C 181.8 142.5 182.3 142.7 182.9 142.9 C 182.9 142.9 185.4 143.4 185.4 143.4 C 186.7 143.6 187.7 144.1 188.3 144.7 C 189 145.3 189.3 146.1 189.3 147 C 189.3 147.9 189 148.7 188.5 149.4 C 188 150.1 187.3 150.6 186.4 151 C 185.5 151.4 184.4 151.5 183.2 151.5 C 181.4 151.5 180 151.2 178.9 150.4 C 177.8 149.7 177.2 148.6 177 147.3 C 177 147.3 180.8 147.1 180.8 147.1 C 180.9 147.7 181.1 148.1 181.6 148.4 C 182 148.7 182.6 148.8 183.2 148.8 C 183.9 148.8 184.4 148.7 184.8 148.4 C 185.2 148.2 185.5 147.8 185.5 147.4 C 185.5 147.1 185.3 146.8 185 146.6 C 184.7 146.4 184.3 146.2 183.7 146.1 C 183.7 146.1 181.3 145.6 181.3 145.6 C 180 145.3 179 144.9 178.4 144.2 C 177.7 143.6 177.4 142.7 177.4 141.7 C 177.4 140.8 177.6 140.1 178.1 139.4 C 178.6 138.8 179.3 138.3 180.1 138 C 181 137.6 182 137.5 183.2 137.5 C 184.9 137.5 186.3 137.8 187.3 138.6 C 188.2 139.3 188.8 140.3 189 141.5 Z " stroke="none" fill="#10283d"/>  </g>  <g id="Polygon112932">    <path d="M 5.9 105.6 C 5.1 105.6 4.3 105.4 3.6 105.1 C 2.9 104.8 2.3 104.3 1.9 103.7 C 1.5 103 1.3 102.3 1.3 101.4 C 1.3 100.6 1.4 100 1.7 99.5 C 2 99 2.5 98.6 3 98.3 C 3.5 98.1 4.1 97.9 4.7 97.7 C 5.3 97.6 5.9 97.5 6.6 97.4 C 7.4 97.3 8.1 97.2 8.6 97.1 C 9.1 97.1 9.5 97 9.7 96.9 C 10 96.7 10.1 96.5 10.1 96.1 C 10.1 96.1 10.1 96.1 10.1 96.1 C 10.1 95.2 9.8 94.5 9.4 94 C 8.9 93.5 8.2 93.3 7.2 93.3 C 6.2 93.3 5.4 93.5 4.9 94 C 4.3 94.4 3.9 94.9 3.7 95.4 C 3.7 95.4 1.7 94.7 1.7 94.7 C 2 93.8 2.5 93.2 3.1 92.7 C 3.7 92.3 4.3 91.9 5 91.7 C 5.8 91.6 6.5 91.5 7.1 91.5 C 7.6 91.5 8.1 91.5 8.7 91.6 C 9.2 91.7 9.8 91.9 10.3 92.2 C 10.8 92.6 11.3 93.1 11.6 93.7 C 12 94.3 12.2 95.2 12.2 96.3 C 12.18 96.29 12.2 105.3 12.2 105.3 L 10.1 105.3 L 10.1 103.4 C 10.1 103.4 9.98 103.43 10 103.4 C 9.8 103.7 9.6 104 9.3 104.4 C 8.9 104.7 8.5 105 7.9 105.2 C 7.4 105.5 6.7 105.6 5.9 105.6 Z M 6.2 103.7 C 7.1 103.7 7.8 103.5 8.3 103.2 C 8.9 102.9 9.4 102.5 9.6 102 C 9.9 101.4 10.1 100.9 10.1 100.3 C 10.1 100.3 10.1 98.4 10.1 98.4 C 10 98.5 9.8 98.6 9.5 98.7 C 9.2 98.8 8.9 98.9 8.5 98.9 C 8.1 99 7.7 99 7.3 99.1 C 7 99.1 6.7 99.2 6.5 99.2 C 5.9 99.3 5.4 99.4 4.9 99.5 C 4.5 99.7 4.1 99.9 3.8 100.2 C 3.5 100.6 3.4 101 3.4 101.5 C 3.4 102.2 3.6 102.8 4.2 103.2 C 4.7 103.5 5.4 103.7 6.2 103.7 Z M 18 97.1 C 18 97.07 18 105.3 18 105.3 L 15.9 105.3 L 15.9 91.6 L 17.9 91.6 L 17.9 93.8 C 17.9 93.8 18.11 93.77 18.1 93.8 C 18.4 93.1 18.9 92.5 19.6 92.1 C 20.2 91.7 21.1 91.5 22.1 91.5 C 23 91.5 23.8 91.6 24.5 92 C 25.2 92.4 25.7 93 26.1 93.7 C 26.5 94.5 26.7 95.4 26.7 96.6 C 26.7 96.61 26.7 105.3 26.7 105.3 L 24.6 105.3 C 24.6 105.3 24.61 96.75 24.6 96.8 C 24.6 95.7 24.3 94.8 23.8 94.2 C 23.2 93.6 22.5 93.3 21.5 93.3 C 20.8 93.3 20.2 93.5 19.7 93.8 C 19.2 94.1 18.8 94.5 18.5 95 C 18.2 95.6 18 96.3 18 97.1 Z M 35.5 105.6 C 34.4 105.6 33.4 105.3 32.5 104.7 C 31.7 104.1 31 103.3 30.5 102.2 C 30 101.2 29.8 99.9 29.8 98.5 C 29.8 97.1 30 95.8 30.5 94.8 C 31 93.7 31.7 92.9 32.5 92.3 C 33.4 91.7 34.4 91.5 35.6 91.5 C 36.5 91.5 37.2 91.6 37.7 91.9 C 38.2 92.2 38.6 92.5 38.9 92.9 C 39.2 93.3 39.4 93.6 39.5 93.8 C 39.53 93.8 39.7 93.8 39.7 93.8 L 39.7 87.1 L 41.8 87.1 L 41.8 105.3 L 39.8 105.3 L 39.8 103.2 C 39.8 103.2 39.53 103.18 39.5 103.2 C 39.4 103.4 39.2 103.7 38.9 104.1 C 38.6 104.5 38.2 104.8 37.7 105.1 C 37.1 105.4 36.4 105.6 35.5 105.6 Z M 35.8 103.7 C 36.7 103.7 37.4 103.5 38 103 C 38.5 102.6 39 102 39.3 101.2 C 39.6 100.4 39.7 99.5 39.7 98.5 C 39.7 97.4 39.6 96.5 39.3 95.8 C 39 95 38.6 94.4 38 94 C 37.4 93.6 36.7 93.3 35.8 93.3 C 34.9 93.3 34.2 93.6 33.6 94 C 33 94.5 32.6 95.1 32.3 95.9 C 32 96.6 31.9 97.5 31.9 98.5 C 31.9 99.4 32 100.3 32.3 101.1 C 32.6 101.9 33 102.5 33.6 103 C 34.2 103.4 35 103.7 35.8 103.7 Z M 58.9 91.6 L 58.9 93.4 L 51.8 93.4 L 51.8 91.6 L 58.9 91.6 Z M 53.9 88.4 L 56 88.4 C 56 88.4 55.97 101.37 56 101.4 C 56 102 56.1 102.4 56.2 102.7 C 56.4 103 56.6 103.2 56.9 103.3 C 57.2 103.4 57.5 103.4 57.8 103.4 C 58 103.4 58.2 103.4 58.3 103.4 C 58.5 103.4 58.6 103.3 58.7 103.3 C 58.7 103.3 59.1 105.2 59.1 105.2 C 59 105.3 58.8 105.3 58.5 105.4 C 58.3 105.4 58 105.5 57.6 105.5 C 57 105.5 56.4 105.3 55.8 105.1 C 55.3 104.8 54.8 104.4 54.4 103.9 C 54.1 103.4 53.9 102.7 53.9 101.9 C 53.87 101.93 53.9 88.4 53.9 88.4 Z M 66.8 105.6 C 65.6 105.6 64.5 105.3 63.5 104.7 C 62.6 104.1 61.9 103.3 61.4 102.2 C 60.9 101.2 60.6 99.9 60.6 98.5 C 60.6 97.1 60.9 95.9 61.4 94.8 C 61.9 93.7 62.6 92.9 63.5 92.3 C 64.5 91.8 65.6 91.5 66.8 91.5 C 68 91.5 69.1 91.8 70 92.3 C 70.9 92.9 71.7 93.7 72.2 94.8 C 72.7 95.9 73 97.1 73 98.5 C 73 99.9 72.7 101.2 72.2 102.2 C 71.7 103.3 70.9 104.1 70 104.7 C 69.1 105.3 68 105.6 66.8 105.6 Z M 66.8 103.7 C 67.7 103.7 68.5 103.4 69.1 103 C 69.7 102.5 70.1 101.8 70.4 101.1 C 70.7 100.3 70.9 99.4 70.9 98.5 C 70.9 97.6 70.7 96.8 70.4 96 C 70.1 95.2 69.7 94.6 69.1 94.1 C 68.5 93.6 67.7 93.3 66.8 93.3 C 65.8 93.3 65.1 93.6 64.5 94.1 C 63.9 94.6 63.4 95.2 63.1 96 C 62.8 96.8 62.7 97.6 62.7 98.5 C 62.7 99.4 62.8 100.3 63.1 101.1 C 63.4 101.8 63.9 102.5 64.5 103 C 65.1 103.4 65.8 103.7 66.8 103.7 Z M 81.6 105.6 C 80.3 105.6 79.3 105.3 78.3 104.7 C 77.4 104.1 76.7 103.3 76.2 102.2 C 75.7 101.2 75.4 99.9 75.4 98.5 C 75.4 97.1 75.7 95.9 76.2 94.8 C 76.7 93.7 77.4 92.9 78.3 92.3 C 79.3 91.8 80.3 91.5 81.6 91.5 C 82.8 91.5 83.9 91.8 84.8 92.3 C 85.7 92.9 86.5 93.7 87 94.8 C 87.5 95.9 87.8 97.1 87.8 98.5 C 87.8 99.9 87.5 101.2 87 102.2 C 86.5 103.3 85.7 104.1 84.8 104.7 C 83.9 105.3 82.8 105.6 81.6 105.6 Z M 81.6 103.7 C 82.5 103.7 83.3 103.4 83.9 103 C 84.5 102.5 84.9 101.8 85.2 101.1 C 85.5 100.3 85.7 99.4 85.7 98.5 C 85.7 97.6 85.5 96.8 85.2 96 C 84.9 95.2 84.5 94.6 83.9 94.1 C 83.3 93.6 82.5 93.3 81.6 93.3 C 80.6 93.3 79.9 93.6 79.3 94.1 C 78.7 94.6 78.2 95.2 77.9 96 C 77.6 96.8 77.5 97.6 77.5 98.5 C 77.5 99.4 77.6 100.3 77.9 101.1 C 78.2 101.8 78.7 102.5 79.3 103 C 79.9 103.4 80.6 103.7 81.6 103.7 Z M 93 87.1 L 93 105.3 L 90.9 105.3 L 90.9 87.1 L 93 87.1 Z M 106.3 94.7 C 106.3 94.7 104.4 95.2 104.4 95.2 C 104.3 94.9 104.1 94.6 103.9 94.3 C 103.6 94 103.3 93.8 102.9 93.6 C 102.6 93.4 102.1 93.3 101.4 93.3 C 100.6 93.3 99.9 93.5 99.4 93.8 C 98.8 94.2 98.5 94.7 98.5 95.3 C 98.5 95.8 98.7 96.2 99.1 96.5 C 99.5 96.8 100.1 97.1 100.9 97.3 C 100.9 97.3 102.9 97.8 102.9 97.8 C 104.1 98.1 105 98.5 105.6 99.1 C 106.2 99.7 106.5 100.5 106.5 101.5 C 106.5 102.3 106.3 103 105.8 103.6 C 105.4 104.2 104.8 104.7 104 105 C 103.2 105.4 102.3 105.6 101.2 105.6 C 99.8 105.6 98.6 105.3 97.7 104.7 C 96.8 104 96.2 103.2 96 102 C 96 102 98 101.5 98 101.5 C 98.2 102.2 98.5 102.8 99.1 103.2 C 99.6 103.5 100.3 103.7 101.2 103.7 C 102.1 103.7 102.9 103.5 103.5 103.1 C 104.1 102.7 104.4 102.2 104.4 101.6 C 104.4 101.1 104.2 100.7 103.9 100.4 C 103.5 100.1 103 99.8 102.3 99.7 C 102.3 99.7 100.1 99.1 100.1 99.1 C 98.8 98.8 97.9 98.4 97.3 97.7 C 96.7 97.1 96.4 96.3 96.4 95.4 C 96.4 94.6 96.7 94 97.1 93.4 C 97.5 92.8 98.1 92.3 98.9 92 C 99.6 91.6 100.5 91.5 101.4 91.5 C 102.8 91.5 103.9 91.8 104.6 92.3 C 105.4 92.9 105.9 93.7 106.3 94.7 Z M 118.8 97.1 C 118.81 97.07 118.8 105.3 118.8 105.3 L 116.7 105.3 L 116.7 87.1 L 118.8 87.1 L 118.8 93.8 C 118.8 93.8 118.98 93.77 119 93.8 C 119.3 93.1 119.8 92.5 120.4 92.1 C 121.1 91.7 121.9 91.5 123 91.5 C 123.9 91.5 124.7 91.6 125.4 92 C 126.1 92.4 126.7 92.9 127.1 93.7 C 127.5 94.5 127.6 95.4 127.6 96.6 C 127.65 96.61 127.6 105.3 127.6 105.3 L 125.6 105.3 C 125.6 105.3 125.55 96.75 125.6 96.8 C 125.6 95.7 125.3 94.8 124.7 94.2 C 124.2 93.6 123.4 93.3 122.4 93.3 C 121.7 93.3 121.1 93.5 120.6 93.8 C 120 94.1 119.6 94.5 119.3 95 C 119 95.6 118.8 96.3 118.8 97.1 Z M 135.3 105.6 C 134.4 105.6 133.6 105.4 132.9 105.1 C 132.2 104.8 131.7 104.3 131.2 103.7 C 130.8 103 130.6 102.3 130.6 101.4 C 130.6 100.6 130.8 100 131.1 99.5 C 131.4 99 131.8 98.6 132.3 98.3 C 132.8 98.1 133.4 97.9 134 97.7 C 134.6 97.6 135.3 97.5 135.9 97.4 C 136.7 97.3 137.4 97.2 137.9 97.1 C 138.4 97.1 138.8 97 139.1 96.9 C 139.3 96.7 139.4 96.5 139.4 96.1 C 139.4 96.1 139.4 96.1 139.4 96.1 C 139.4 95.2 139.2 94.5 138.7 94 C 138.2 93.5 137.5 93.3 136.5 93.3 C 135.5 93.3 134.8 93.5 134.2 94 C 133.6 94.4 133.2 94.9 133 95.4 C 133 95.4 131 94.7 131 94.7 C 131.4 93.8 131.8 93.2 132.4 92.7 C 133 92.3 133.7 91.9 134.4 91.7 C 135.1 91.6 135.8 91.5 136.5 91.5 C 136.9 91.5 137.4 91.5 138 91.6 C 138.6 91.7 139.1 91.9 139.6 92.2 C 140.2 92.6 140.6 93.1 141 93.7 C 141.3 94.3 141.5 95.2 141.5 96.3 C 141.52 96.29 141.5 105.3 141.5 105.3 L 139.4 105.3 L 139.4 103.4 C 139.4 103.4 139.32 103.43 139.3 103.4 C 139.2 103.7 138.9 104 138.6 104.4 C 138.3 104.7 137.8 105 137.3 105.2 C 136.7 105.5 136.1 105.6 135.3 105.6 Z M 135.6 103.7 C 136.4 103.7 137.1 103.5 137.7 103.2 C 138.3 102.9 138.7 102.5 139 102 C 139.3 101.4 139.4 100.9 139.4 100.3 C 139.4 100.3 139.4 98.4 139.4 98.4 C 139.3 98.5 139.1 98.6 138.8 98.7 C 138.5 98.8 138.2 98.9 137.8 98.9 C 137.4 99 137 99 136.7 99.1 C 136.3 99.1 136 99.2 135.8 99.2 C 135.3 99.3 134.7 99.4 134.3 99.5 C 133.8 99.7 133.4 99.9 133.1 100.2 C 132.9 100.6 132.7 101 132.7 101.5 C 132.7 102.2 133 102.8 133.5 103.2 C 134.1 103.5 134.8 103.7 135.6 103.7 Z M 145.2 105.3 L 145.2 91.6 L 147.3 91.6 L 147.3 93.7 C 147.3 93.7 147.41 93.7 147.4 93.7 C 147.7 93 148.1 92.5 148.8 92.1 C 149.4 91.6 150.1 91.4 151 91.4 C 151.1 91.4 151.3 91.4 151.5 91.4 C 151.8 91.4 151.9 91.4 152.1 91.5 C 152.1 91.5 152.1 93.6 152.1 93.6 C 152 93.6 151.8 93.5 151.6 93.5 C 151.3 93.5 151.1 93.4 150.8 93.4 C 150.1 93.4 149.5 93.6 149 93.9 C 148.5 94.1 148.1 94.5 147.8 95 C 147.5 95.5 147.3 96 147.3 96.6 C 147.34 96.64 147.3 105.3 147.3 105.3 L 145.2 105.3 Z M 159.4 105.6 C 158.2 105.6 157.2 105.3 156.4 104.7 C 155.5 104.1 154.8 103.3 154.3 102.2 C 153.8 101.2 153.6 99.9 153.6 98.5 C 153.6 97.1 153.8 95.8 154.3 94.8 C 154.8 93.7 155.5 92.9 156.4 92.3 C 157.2 91.7 158.3 91.5 159.4 91.5 C 160.3 91.5 161 91.6 161.5 91.9 C 162 92.2 162.4 92.5 162.7 92.9 C 163 93.3 163.2 93.6 163.3 93.8 C 163.35 93.8 163.5 93.8 163.5 93.8 L 163.5 87.1 L 165.6 87.1 L 165.6 105.3 L 163.6 105.3 L 163.6 103.2 C 163.6 103.2 163.35 103.18 163.3 103.2 C 163.2 103.4 163 103.7 162.7 104.1 C 162.4 104.5 162 104.8 161.5 105.1 C 160.9 105.4 160.2 105.6 159.4 105.6 Z M 159.7 103.7 C 160.5 103.7 161.2 103.5 161.8 103 C 162.4 102.6 162.8 102 163.1 101.2 C 163.4 100.4 163.6 99.5 163.6 98.5 C 163.6 97.4 163.4 96.5 163.1 95.8 C 162.8 95 162.4 94.4 161.8 94 C 161.2 93.6 160.5 93.3 159.7 93.3 C 158.8 93.3 158 93.6 157.4 94 C 156.8 94.5 156.4 95.1 156.1 95.9 C 155.8 96.6 155.7 97.5 155.7 98.5 C 155.7 99.4 155.8 100.3 156.1 101.1 C 156.4 101.9 156.9 102.5 157.5 103 C 158 103.4 158.8 103.7 159.7 103.7 Z M 182.7 91.6 L 182.7 93.4 L 175.6 93.4 L 175.6 91.6 L 182.7 91.6 Z M 177.7 88.4 L 179.8 88.4 C 179.8 88.4 179.79 101.37 179.8 101.4 C 179.8 102 179.9 102.4 180 102.7 C 180.2 103 180.4 103.2 180.7 103.3 C 181 103.4 181.3 103.4 181.6 103.4 C 181.8 103.4 182 103.4 182.2 103.4 C 182.3 103.4 182.4 103.3 182.5 103.3 C 182.5 103.3 182.9 105.2 182.9 105.2 C 182.8 105.3 182.6 105.3 182.4 105.4 C 182.1 105.4 181.8 105.5 181.4 105.5 C 180.8 105.5 180.2 105.3 179.6 105.1 C 179.1 104.8 178.6 104.4 178.2 103.9 C 177.9 103.4 177.7 102.7 177.7 101.9 C 177.69 101.93 177.7 88.4 177.7 88.4 Z M 190.6 105.6 C 189.4 105.6 188.3 105.3 187.4 104.7 C 186.4 104.1 185.7 103.3 185.2 102.2 C 184.7 101.2 184.4 99.9 184.4 98.5 C 184.4 97.1 184.7 95.9 185.2 94.8 C 185.7 93.7 186.4 92.9 187.4 92.3 C 188.3 91.8 189.4 91.5 190.6 91.5 C 191.8 91.5 192.9 91.8 193.8 92.3 C 194.8 92.9 195.5 93.7 196 94.8 C 196.5 95.9 196.8 97.1 196.8 98.5 C 196.8 99.9 196.5 101.2 196 102.2 C 195.5 103.3 194.8 104.1 193.8 104.7 C 192.9 105.3 191.8 105.6 190.6 105.6 Z M 190.6 103.7 C 191.5 103.7 192.3 103.4 192.9 103 C 193.5 102.5 194 101.8 194.3 101.1 C 194.5 100.3 194.7 99.4 194.7 98.5 C 194.7 97.6 194.5 96.8 194.3 96 C 194 95.2 193.5 94.6 192.9 94.1 C 192.3 93.6 191.5 93.3 190.6 93.3 C 189.7 93.3 188.9 93.6 188.3 94.1 C 187.7 94.6 187.2 95.2 187 96 C 186.7 96.8 186.5 97.6 186.5 98.5 C 186.5 99.4 186.7 100.3 187 101.1 C 187.2 101.8 187.7 102.5 188.3 103 C 188.9 103.4 189.7 103.7 190.6 103.7 Z M 215.6 99.7 C 215.6 99.7 215.6 91.6 215.6 91.6 L 217.7 91.6 L 217.7 105.3 L 215.6 105.3 L 215.6 103 C 215.6 103 215.46 102.96 215.5 103 C 215.1 103.7 214.6 104.2 214 104.7 C 213.3 105.2 212.4 105.5 211.4 105.5 C 210.6 105.5 209.8 105.3 209.1 104.9 C 208.5 104.5 208 103.9 207.6 103.2 C 207.2 102.4 207 101.5 207 100.3 C 207.01 100.3 207 91.6 207 91.6 L 209.1 91.6 C 209.1 91.6 209.1 100.16 209.1 100.2 C 209.1 101.2 209.4 101.9 209.9 102.5 C 210.5 103.1 211.2 103.4 212.1 103.4 C 212.6 103.4 213.1 103.3 213.7 103 C 214.2 102.8 214.7 102.4 215 101.8 C 215.4 101.3 215.6 100.5 215.6 99.7 Z M 223.5 97.1 C 223.54 97.07 223.5 105.3 223.5 105.3 L 221.4 105.3 L 221.4 91.6 L 223.5 91.6 L 223.5 93.8 C 223.5 93.8 223.65 93.77 223.6 93.8 C 224 93.1 224.5 92.5 225.1 92.1 C 225.8 91.7 226.6 91.5 227.6 91.5 C 228.5 91.5 229.4 91.6 230 92 C 230.7 92.4 231.3 93 231.7 93.7 C 232 94.5 232.2 95.4 232.2 96.6 C 232.24 96.61 232.2 105.3 232.2 105.3 L 230.1 105.3 C 230.1 105.3 230.14 96.75 230.1 96.8 C 230.1 95.7 229.9 94.8 229.3 94.2 C 228.8 93.6 228 93.3 227 93.3 C 226.4 93.3 225.8 93.5 225.2 93.8 C 224.7 94.1 224.3 94.5 224 95 C 223.7 95.6 223.5 96.3 223.5 97.1 Z M 241.1 105.6 C 239.9 105.6 238.9 105.3 238.1 104.7 C 237.2 104.1 236.5 103.3 236 102.2 C 235.5 101.2 235.3 99.9 235.3 98.5 C 235.3 97.1 235.5 95.8 236 94.8 C 236.5 93.7 237.2 92.9 238.1 92.3 C 239 91.7 240 91.5 241.1 91.5 C 242 91.5 242.7 91.6 243.2 91.9 C 243.7 92.2 244.1 92.5 244.4 92.9 C 244.7 93.3 244.9 93.6 245.1 93.8 C 245.06 93.8 245.2 93.8 245.2 93.8 L 245.2 87.1 L 247.3 87.1 L 247.3 105.3 L 245.3 105.3 L 245.3 103.2 C 245.3 103.2 245.06 103.18 245.1 103.2 C 244.9 103.4 244.7 103.7 244.4 104.1 C 244.1 104.5 243.7 104.8 243.2 105.1 C 242.7 105.4 242 105.6 241.1 105.6 Z M 241.4 103.7 C 242.2 103.7 242.9 103.5 243.5 103 C 244.1 102.6 244.5 102 244.8 101.2 C 245.1 100.4 245.3 99.5 245.3 98.5 C 245.3 97.4 245.1 96.5 244.8 95.8 C 244.5 95 244.1 94.4 243.5 94 C 242.9 93.6 242.2 93.3 241.4 93.3 C 240.5 93.3 239.7 93.6 239.2 94 C 238.6 94.5 238.1 95.1 237.8 95.9 C 237.5 96.6 237.4 97.5 237.4 98.5 C 237.4 99.4 237.5 100.3 237.8 101.1 C 238.1 101.9 238.6 102.5 239.2 103 C 239.8 103.4 240.5 103.7 241.4 103.7 Z M 256.9 105.6 C 255.6 105.6 254.5 105.3 253.5 104.7 C 252.6 104.1 251.8 103.3 251.3 102.2 C 250.8 101.2 250.6 100 250.6 98.6 C 250.6 97.2 250.8 95.9 251.3 94.9 C 251.8 93.8 252.6 93 253.5 92.4 C 254.4 91.8 255.5 91.5 256.7 91.5 C 257.4 91.5 258.1 91.6 258.8 91.8 C 259.5 92.1 260.1 92.4 260.7 93 C 261.3 93.5 261.7 94.2 262.1 95.1 C 262.4 95.9 262.6 97 262.6 98.3 C 262.57 98.28 262.6 99.2 262.6 99.2 L 252.1 99.2 L 252.1 97.4 C 252.1 97.4 260.44 97.35 260.4 97.4 C 260.4 96.6 260.3 95.9 260 95.3 C 259.7 94.7 259.2 94.2 258.7 93.9 C 258.1 93.5 257.5 93.3 256.7 93.3 C 255.9 93.3 255.2 93.5 254.6 94 C 253.9 94.4 253.5 94.9 253.2 95.6 C 252.8 96.2 252.7 96.9 252.7 97.7 C 252.7 97.7 252.7 98.9 252.7 98.9 C 252.7 99.9 252.8 100.8 253.2 101.5 C 253.6 102.2 254.1 102.8 254.7 103.1 C 255.3 103.5 256.1 103.7 256.9 103.7 C 257.5 103.7 258 103.6 258.4 103.4 C 258.9 103.3 259.3 103 259.6 102.7 C 259.9 102.4 260.2 102 260.3 101.5 C 260.3 101.5 262.4 102.1 262.4 102.1 C 262.1 102.8 261.8 103.4 261.3 103.9 C 260.8 104.4 260.2 104.8 259.4 105.1 C 258.7 105.4 257.8 105.6 256.9 105.6 Z M 265.7 105.3 L 265.7 91.6 L 267.7 91.6 L 267.7 93.7 C 267.7 93.7 267.85 93.7 267.8 93.7 C 268.1 93 268.5 92.5 269.2 92.1 C 269.8 91.6 270.6 91.4 271.4 91.4 C 271.6 91.4 271.7 91.4 272 91.4 C 272.2 91.4 272.4 91.4 272.5 91.5 C 272.5 91.5 272.5 93.6 272.5 93.6 C 272.4 93.6 272.3 93.5 272 93.5 C 271.8 93.5 271.5 93.4 271.2 93.4 C 270.6 93.4 270 93.6 269.4 93.9 C 268.9 94.1 268.5 94.5 268.2 95 C 267.9 95.5 267.8 96 267.8 96.6 C 267.78 96.64 267.8 105.3 267.8 105.3 L 265.7 105.3 Z M 284.5 94.7 C 284.5 94.7 282.6 95.2 282.6 95.2 C 282.5 94.9 282.3 94.6 282.1 94.3 C 281.9 94 281.6 93.8 281.2 93.6 C 280.8 93.4 280.3 93.3 279.7 93.3 C 278.9 93.3 278.2 93.5 277.6 93.8 C 277.1 94.2 276.8 94.7 276.8 95.3 C 276.8 95.8 277 96.2 277.3 96.5 C 277.7 96.8 278.3 97.1 279.1 97.3 C 279.1 97.3 281.1 97.8 281.1 97.8 C 282.4 98.1 283.3 98.5 283.9 99.1 C 284.5 99.7 284.8 100.5 284.8 101.5 C 284.8 102.3 284.5 103 284.1 103.6 C 283.6 104.2 283 104.7 282.2 105 C 281.4 105.4 280.5 105.6 279.4 105.6 C 278 105.6 276.9 105.3 276 104.7 C 275.1 104 274.5 103.2 274.3 102 C 274.3 102 276.2 101.5 276.2 101.5 C 276.4 102.2 276.8 102.8 277.3 103.2 C 277.9 103.5 278.5 103.7 279.4 103.7 C 280.4 103.7 281.2 103.5 281.7 103.1 C 282.3 102.7 282.6 102.2 282.6 101.6 C 282.6 101.1 282.4 100.7 282.1 100.4 C 281.8 100.1 281.3 99.8 280.6 99.7 C 280.6 99.7 278.3 99.1 278.3 99.1 C 277.1 98.8 276.1 98.4 275.6 97.7 C 275 97.1 274.7 96.3 274.7 95.4 C 274.7 94.6 274.9 94 275.3 93.4 C 275.8 92.8 276.4 92.3 277.1 92 C 277.9 91.6 278.7 91.5 279.7 91.5 C 281 91.5 282.1 91.8 282.9 92.3 C 283.6 92.9 284.2 93.7 284.5 94.7 Z M 293.7 91.6 L 293.7 93.4 L 286.6 93.4 L 286.6 91.6 L 293.7 91.6 Z M 288.7 88.4 L 290.8 88.4 C 290.8 88.4 290.76 101.37 290.8 101.4 C 290.8 102 290.8 102.4 291 102.7 C 291.2 103 291.4 103.2 291.7 103.3 C 292 103.4 292.3 103.4 292.6 103.4 C 292.8 103.4 293 103.4 293.1 103.4 C 293.3 103.4 293.4 103.3 293.5 103.3 C 293.5 103.3 293.9 105.2 293.9 105.2 C 293.8 105.3 293.6 105.3 293.3 105.4 C 293.1 105.4 292.7 105.5 292.4 105.5 C 291.8 105.5 291.2 105.3 290.6 105.1 C 290.1 104.8 289.6 104.4 289.2 103.9 C 288.9 103.4 288.7 102.7 288.7 101.9 C 288.67 101.93 288.7 88.4 288.7 88.4 Z M 300.5 105.6 C 299.7 105.6 298.9 105.4 298.2 105.1 C 297.5 104.8 296.9 104.3 296.5 103.7 C 296.1 103 295.9 102.3 295.9 101.4 C 295.9 100.6 296 100 296.3 99.5 C 296.7 99 297.1 98.6 297.6 98.3 C 298.1 98.1 298.7 97.9 299.3 97.7 C 299.9 97.6 300.5 97.5 301.2 97.4 C 302 97.3 302.7 97.2 303.2 97.1 C 303.7 97.1 304.1 97 304.3 96.9 C 304.6 96.7 304.7 96.5 304.7 96.1 C 304.7 96.1 304.7 96.1 304.7 96.1 C 304.7 95.2 304.4 94.5 304 94 C 303.5 93.5 302.8 93.3 301.8 93.3 C 300.8 93.3 300 93.5 299.5 94 C 298.9 94.4 298.5 94.9 298.3 95.4 C 298.3 95.4 296.3 94.7 296.3 94.7 C 296.6 93.8 297.1 93.2 297.7 92.7 C 298.3 92.3 298.9 91.9 299.6 91.7 C 300.4 91.6 301.1 91.5 301.7 91.5 C 302.2 91.5 302.7 91.5 303.3 91.6 C 303.8 91.7 304.4 91.9 304.9 92.2 C 305.5 92.6 305.9 93.1 306.3 93.7 C 306.6 94.3 306.8 95.2 306.8 96.3 C 306.78 96.29 306.8 105.3 306.8 105.3 L 304.7 105.3 L 304.7 103.4 C 304.7 103.4 304.58 103.43 304.6 103.4 C 304.4 103.7 304.2 104 303.9 104.4 C 303.5 104.7 303.1 105 302.5 105.2 C 302 105.5 301.3 105.6 300.5 105.6 Z M 300.9 103.7 C 301.7 103.7 302.4 103.5 303 103.2 C 303.5 102.9 304 102.5 304.2 102 C 304.5 101.4 304.7 100.9 304.7 100.3 C 304.7 100.3 304.7 98.4 304.7 98.4 C 304.6 98.5 304.4 98.6 304.1 98.7 C 303.8 98.8 303.5 98.9 303.1 98.9 C 302.7 99 302.3 99 301.9 99.1 C 301.6 99.1 301.3 99.2 301.1 99.2 C 300.5 99.3 300 99.4 299.5 99.5 C 299.1 99.7 298.7 99.9 298.4 100.2 C 298.1 100.6 298 101 298 101.5 C 298 102.2 298.2 102.8 298.8 103.2 C 299.3 103.5 300 103.7 300.9 103.7 Z M 312.6 97.1 C 312.61 97.07 312.6 105.3 312.6 105.3 L 310.5 105.3 L 310.5 91.6 L 312.5 91.6 L 312.5 93.8 C 312.5 93.8 312.71 93.77 312.7 93.8 C 313 93.1 313.5 92.5 314.2 92.1 C 314.8 91.7 315.7 91.5 316.7 91.5 C 317.6 91.5 318.4 91.6 319.1 92 C 319.8 92.4 320.3 93 320.7 93.7 C 321.1 94.5 321.3 95.4 321.3 96.6 C 321.31 96.61 321.3 105.3 321.3 105.3 L 319.2 105.3 C 319.2 105.3 319.21 96.75 319.2 96.8 C 319.2 95.7 318.9 94.8 318.4 94.2 C 317.8 93.6 317.1 93.3 316.1 93.3 C 315.4 93.3 314.8 93.5 314.3 93.8 C 313.8 94.1 313.4 94.5 313.1 95 C 312.8 95.6 312.6 96.3 312.6 97.1 Z M 330.2 105.6 C 329 105.6 328 105.3 327.1 104.7 C 326.3 104.1 325.6 103.3 325.1 102.2 C 324.6 101.2 324.4 99.9 324.4 98.5 C 324.4 97.1 324.6 95.8 325.1 94.8 C 325.6 93.7 326.3 92.9 327.1 92.3 C 328 91.7 329 91.5 330.2 91.5 C 331.1 91.5 331.8 91.6 332.3 91.9 C 332.8 92.2 333.2 92.5 333.5 92.9 C 333.8 93.3 334 93.6 334.1 93.8 C 334.13 93.8 334.3 93.8 334.3 93.8 L 334.3 87.1 L 336.4 87.1 L 336.4 105.3 L 334.4 105.3 L 334.4 103.2 C 334.4 103.2 334.13 103.18 334.1 103.2 C 334 103.4 333.8 103.7 333.5 104.1 C 333.2 104.5 332.8 104.8 332.3 105.1 C 331.7 105.4 331 105.6 330.2 105.6 Z M 330.4 103.7 C 331.3 103.7 332 103.5 332.6 103 C 333.1 102.6 333.6 102 333.9 101.2 C 334.2 100.4 334.3 99.5 334.3 98.5 C 334.3 97.4 334.2 96.5 333.9 95.8 C 333.6 95 333.2 94.4 332.6 94 C 332 93.6 331.3 93.3 330.4 93.3 C 329.5 93.3 328.8 93.6 328.2 94 C 327.6 94.5 327.2 95.1 326.9 95.9 C 326.6 96.6 326.5 97.5 326.5 98.5 C 326.5 99.4 326.6 100.3 326.9 101.1 C 327.2 101.9 327.6 102.5 328.2 103 C 328.8 103.4 329.6 103.7 330.4 103.7 Z M 341.8 105.4 C 341.3 105.4 341 105.3 340.6 104.9 C 340.3 104.6 340.2 104.3 340.2 103.8 C 340.2 103.4 340.3 103 340.6 102.7 C 341 102.4 341.3 102.2 341.8 102.2 C 342.2 102.2 342.6 102.4 342.9 102.7 C 343.2 103 343.4 103.4 343.4 103.8 C 343.4 104.1 343.3 104.4 343.1 104.6 C 343 104.9 342.8 105.1 342.6 105.2 C 342.3 105.3 342.1 105.4 341.8 105.4 Z " stroke="none" fill="#000"/>  </g>  <g id="Polygon112931">    <path d="M 7.8 73.3 C 7.81 73.27 2.2 73.3 2.2 73.3 L 2.2 55.1 C 2.2 55.1 8.06 55.09 8.1 55.1 C 9.8 55.1 11.3 55.5 12.6 56.2 C 13.8 56.9 14.8 57.9 15.5 59.3 C 16.1 60.6 16.5 62.3 16.5 64.1 C 16.5 66 16.1 67.7 15.5 69 C 14.8 70.4 13.8 71.4 12.5 72.2 C 11.2 72.9 9.7 73.3 7.8 73.3 Z M 4.4 71.3 C 4.4 71.3 7.67 71.32 7.7 71.3 C 9.2 71.3 10.4 71 11.4 70.4 C 12.4 69.9 13.1 69 13.6 68 C 14.1 66.9 14.3 65.6 14.3 64.1 C 14.3 62.7 14.1 61.4 13.6 60.4 C 13.1 59.3 12.4 58.5 11.5 57.9 C 10.5 57.3 9.3 57 7.9 57 C 7.92 57.04 4.4 57 4.4 57 L 4.4 71.3 Z M 25.5 73.6 C 24.2 73.6 23.1 73.3 22.1 72.7 C 21.2 72.1 20.4 71.3 19.9 70.2 C 19.4 69.2 19.2 68 19.2 66.6 C 19.2 65.2 19.4 63.9 19.9 62.9 C 20.4 61.8 21.2 61 22.1 60.4 C 23 59.8 24.1 59.5 25.3 59.5 C 26 59.5 26.7 59.6 27.4 59.8 C 28.1 60.1 28.7 60.4 29.3 61 C 29.9 61.5 30.3 62.2 30.7 63.1 C 31 63.9 31.2 65 31.2 66.3 C 31.16 66.28 31.2 67.2 31.2 67.2 L 20.7 67.2 L 20.7 65.4 C 20.7 65.4 29.03 65.35 29 65.4 C 29 64.6 28.9 63.9 28.6 63.3 C 28.3 62.7 27.8 62.2 27.3 61.9 C 26.7 61.5 26.1 61.3 25.3 61.3 C 24.5 61.3 23.7 61.5 23.1 62 C 22.5 62.4 22.1 62.9 21.7 63.6 C 21.4 64.2 21.3 64.9 21.3 65.7 C 21.3 65.7 21.3 66.9 21.3 66.9 C 21.3 67.9 21.4 68.8 21.8 69.5 C 22.1 70.2 22.6 70.8 23.3 71.1 C 23.9 71.5 24.7 71.7 25.5 71.7 C 26.1 71.7 26.6 71.6 27 71.4 C 27.5 71.3 27.8 71 28.2 70.7 C 28.5 70.4 28.7 70 28.9 69.5 C 28.9 69.5 30.9 70.1 30.9 70.1 C 30.7 70.8 30.4 71.4 29.9 71.9 C 29.4 72.4 28.8 72.8 28 73.1 C 27.3 73.4 26.4 73.6 25.5 73.6 Z M 34.3 78.4 L 34.3 59.6 L 36.3 59.6 L 36.3 61.8 C 36.3 61.8 36.54 61.8 36.5 61.8 C 36.7 61.6 36.9 61.3 37.2 60.9 C 37.5 60.5 37.9 60.2 38.4 59.9 C 38.9 59.6 39.6 59.5 40.5 59.5 C 41.6 59.5 42.6 59.7 43.5 60.3 C 44.4 60.9 45.1 61.7 45.6 62.8 C 46.1 63.8 46.3 65.1 46.3 66.5 C 46.3 67.9 46.1 69.2 45.6 70.2 C 45.1 71.3 44.4 72.1 43.5 72.7 C 42.7 73.3 41.7 73.6 40.5 73.6 C 39.6 73.6 38.9 73.4 38.4 73.1 C 37.9 72.8 37.5 72.5 37.2 72.1 C 36.9 71.7 36.7 71.4 36.5 71.2 C 36.54 71.18 36.4 71.2 36.4 71.2 L 36.4 78.4 L 34.3 78.4 Z M 36.3 66.5 C 36.3 67.5 36.5 68.4 36.8 69.2 C 37.1 70 37.5 70.6 38.1 71 C 38.7 71.5 39.4 71.7 40.2 71.7 C 41.1 71.7 41.8 71.4 42.4 71 C 43 70.5 43.5 69.9 43.8 69.1 C 44.1 68.3 44.2 67.4 44.2 66.5 C 44.2 65.5 44.1 64.6 43.8 63.9 C 43.5 63.1 43 62.5 42.5 62 C 41.9 61.6 41.1 61.3 40.2 61.3 C 39.4 61.3 38.7 61.6 38.1 62 C 37.5 62.4 37.1 63 36.8 63.8 C 36.5 64.5 36.3 65.4 36.3 66.5 Z M 51.5 55.1 L 51.5 73.3 L 49.4 73.3 L 49.4 55.1 L 51.5 55.1 Z M 60.8 73.6 C 59.6 73.6 58.5 73.3 57.6 72.7 C 56.7 72.1 56 71.3 55.4 70.2 C 54.9 69.2 54.7 67.9 54.7 66.5 C 54.7 65.1 54.9 63.9 55.4 62.8 C 56 61.7 56.7 60.9 57.6 60.3 C 58.5 59.8 59.6 59.5 60.8 59.5 C 62.1 59.5 63.2 59.8 64.1 60.3 C 65 60.9 65.7 61.7 66.2 62.8 C 66.8 63.9 67 65.1 67 66.5 C 67 67.9 66.8 69.2 66.2 70.2 C 65.7 71.3 65 72.1 64.1 72.7 C 63.2 73.3 62.1 73.6 60.8 73.6 Z M 60.8 71.7 C 61.8 71.7 62.5 71.4 63.2 71 C 63.8 70.5 64.2 69.8 64.5 69.1 C 64.8 68.3 64.9 67.4 64.9 66.5 C 64.9 65.6 64.8 64.8 64.5 64 C 64.2 63.2 63.8 62.6 63.2 62.1 C 62.5 61.6 61.8 61.3 60.8 61.3 C 59.9 61.3 59.1 61.6 58.5 62.1 C 57.9 62.6 57.5 63.2 57.2 64 C 56.9 64.8 56.8 65.6 56.8 66.5 C 56.8 67.4 56.9 68.3 57.2 69.1 C 57.5 69.8 57.9 70.5 58.5 71 C 59.1 71.4 59.9 71.7 60.8 71.7 Z M 70.8 78.4 C 70.4 78.4 70.1 78.4 69.8 78.3 C 69.6 78.2 69.4 78.2 69.3 78.1 C 69.3 78.1 69.8 76.3 69.8 76.3 C 70.3 76.4 70.8 76.5 71.2 76.4 C 71.5 76.4 71.9 76.2 72.2 75.9 C 72.5 75.6 72.8 75.1 73 74.4 C 73.03 74.41 73.4 73.3 73.4 73.3 L 68.4 59.6 L 70.7 59.6 L 74.4 70.5 L 74.6 70.5 L 78.3 59.6 L 80.6 59.6 C 80.6 59.6 74.81 75.26 74.8 75.3 C 74.5 76 74.2 76.6 73.8 77 C 73.5 77.5 73 77.8 72.5 78 C 72 78.3 71.4 78.4 70.8 78.4 Z M 83.1 73.3 L 83.1 59.6 L 85.2 59.6 L 85.2 61.8 C 85.2 61.8 85.34 61.77 85.3 61.8 C 85.6 61 86.1 60.5 86.7 60.1 C 87.4 59.7 88.1 59.5 89 59.5 C 89.9 59.5 90.7 59.7 91.3 60.1 C 91.9 60.5 92.3 61 92.7 61.8 C 92.7 61.8 92.8 61.8 92.8 61.8 C 93.2 61.1 93.7 60.5 94.4 60.1 C 95.1 59.7 95.9 59.5 96.9 59.5 C 98.1 59.5 99.1 59.8 99.9 60.6 C 100.7 61.4 101 62.5 101 64.1 C 101.04 64.15 101 73.3 101 73.3 L 98.9 73.3 C 98.9 73.3 98.95 64.15 98.9 64.1 C 98.9 63.1 98.7 62.4 98.1 62 C 97.6 61.6 96.9 61.3 96.2 61.3 C 95.2 61.3 94.5 61.6 93.9 62.2 C 93.4 62.8 93.2 63.5 93.2 64.4 C 93.16 64.39 93.2 73.3 93.2 73.3 L 91 73.3 C 91 73.3 91.03 63.93 91 63.9 C 91 63.2 90.8 62.5 90.3 62.1 C 89.8 61.6 89.1 61.3 88.3 61.3 C 87.8 61.3 87.3 61.5 86.8 61.8 C 86.3 62.1 86 62.5 85.7 63 C 85.4 63.5 85.2 64.1 85.2 64.8 C 85.24 64.75 85.2 73.3 85.2 73.3 L 83.1 73.3 Z M 110.5 73.6 C 109.1 73.6 108 73.3 107.1 72.7 C 106.1 72.1 105.4 71.3 104.9 70.2 C 104.4 69.2 104.1 68 104.1 66.6 C 104.1 65.2 104.4 63.9 104.9 62.9 C 105.4 61.8 106.1 61 107 60.4 C 107.9 59.8 109 59.5 110.2 59.5 C 111 59.5 111.7 59.6 112.3 59.8 C 113 60.1 113.7 60.4 114.2 61 C 114.8 61.5 115.3 62.2 115.6 63.1 C 115.9 63.9 116.1 65 116.1 66.3 C 116.1 66.28 116.1 67.2 116.1 67.2 L 105.6 67.2 L 105.6 65.4 C 105.6 65.4 113.97 65.35 114 65.4 C 114 64.6 113.8 63.9 113.5 63.3 C 113.2 62.7 112.8 62.2 112.2 61.9 C 111.7 61.5 111 61.3 110.2 61.3 C 109.4 61.3 108.7 61.5 108.1 62 C 107.5 62.4 107 62.9 106.7 63.6 C 106.4 64.2 106.2 64.9 106.2 65.7 C 106.2 65.7 106.2 66.9 106.2 66.9 C 106.2 67.9 106.4 68.8 106.7 69.5 C 107.1 70.2 107.6 70.8 108.2 71.1 C 108.9 71.5 109.6 71.7 110.5 71.7 C 111 71.7 111.5 71.6 111.9 71.4 C 112.4 71.3 112.8 71 113.1 70.7 C 113.4 70.4 113.7 70 113.9 69.5 C 113.9 69.5 115.9 70.1 115.9 70.1 C 115.7 70.8 115.3 71.4 114.8 71.9 C 114.3 72.4 113.7 72.8 112.9 73.1 C 112.2 73.4 111.4 73.6 110.5 73.6 Z M 121.3 65.1 C 121.3 65.07 121.3 73.3 121.3 73.3 L 119.2 73.3 L 119.2 59.6 L 121.2 59.6 L 121.2 61.8 C 121.2 61.8 121.41 61.77 121.4 61.8 C 121.7 61.1 122.2 60.5 122.9 60.1 C 123.5 59.7 124.4 59.5 125.4 59.5 C 126.3 59.5 127.1 59.6 127.8 60 C 128.5 60.4 129 61 129.4 61.7 C 129.8 62.5 130 63.4 130 64.6 C 130 64.61 130 73.3 130 73.3 L 127.9 73.3 C 127.9 73.3 127.91 64.75 127.9 64.8 C 127.9 63.7 127.6 62.8 127.1 62.2 C 126.5 61.6 125.8 61.3 124.8 61.3 C 124.1 61.3 123.5 61.5 123 61.8 C 122.5 62.1 122.1 62.5 121.8 63 C 121.5 63.6 121.3 64.3 121.3 65.1 Z M 139.3 59.6 L 139.3 61.4 L 132.2 61.4 L 132.2 59.6 L 139.3 59.6 Z M 134.3 56.4 L 136.4 56.4 C 136.4 56.4 136.38 69.37 136.4 69.4 C 136.4 70 136.5 70.4 136.6 70.7 C 136.8 71 137 71.2 137.3 71.3 C 137.6 71.4 137.9 71.4 138.2 71.4 C 138.4 71.4 138.6 71.4 138.8 71.4 C 138.9 71.4 139 71.3 139.1 71.3 C 139.1 71.3 139.5 73.2 139.5 73.2 C 139.4 73.3 139.2 73.3 138.9 73.4 C 138.7 73.4 138.4 73.5 138 73.5 C 137.4 73.5 136.8 73.3 136.2 73.1 C 135.7 72.8 135.2 72.4 134.8 71.9 C 134.5 71.4 134.3 70.7 134.3 69.9 C 134.29 69.93 134.3 56.4 134.3 56.4 Z M 155 73.6 C 153.7 73.6 152.6 73.3 151.7 72.7 C 150.8 72 150.1 71.2 149.6 70.2 C 149.1 69.1 148.8 67.9 148.8 66.5 C 148.8 65.1 149.1 63.9 149.6 62.9 C 150.1 61.8 150.8 61 151.8 60.4 C 152.7 59.8 153.8 59.5 155 59.5 C 156 59.5 156.8 59.6 157.6 60 C 158.4 60.3 159 60.8 159.5 61.5 C 160 62.1 160.3 62.9 160.4 63.7 C 160.4 63.7 158.3 63.7 158.3 63.7 C 158.1 63.1 157.8 62.5 157.2 62.1 C 156.7 61.6 156 61.3 155 61.3 C 154.2 61.3 153.5 61.6 152.9 62 C 152.3 62.4 151.8 63 151.5 63.8 C 151.1 64.5 150.9 65.4 150.9 66.5 C 150.9 67.5 151.1 68.4 151.4 69.2 C 151.8 70 152.3 70.6 152.9 71 C 153.5 71.5 154.2 71.7 155 71.7 C 155.6 71.7 156.1 71.6 156.5 71.4 C 157 71.2 157.3 70.9 157.6 70.6 C 157.9 70.2 158.2 69.8 158.3 69.3 C 158.3 69.3 160.4 69.3 160.4 69.3 C 160.3 70.1 160 70.8 159.5 71.5 C 159.1 72.1 158.4 72.6 157.7 73 C 156.9 73.4 156 73.6 155 73.6 Z M 167.4 73.6 C 166.5 73.6 165.8 73.4 165.1 73.1 C 164.3 72.8 163.8 72.3 163.4 71.7 C 163 71 162.8 70.3 162.8 69.4 C 162.8 68.6 162.9 68 163.2 67.5 C 163.5 67 163.9 66.6 164.5 66.3 C 165 66.1 165.5 65.9 166.2 65.7 C 166.8 65.6 167.4 65.5 168 65.4 C 168.9 65.3 169.5 65.2 170.1 65.1 C 170.6 65.1 171 65 171.2 64.9 C 171.4 64.7 171.6 64.5 171.6 64.1 C 171.6 64.1 171.6 64.1 171.6 64.1 C 171.6 63.2 171.3 62.5 170.8 62 C 170.4 61.5 169.6 61.3 168.7 61.3 C 167.7 61.3 166.9 61.5 166.3 62 C 165.8 62.4 165.4 62.9 165.1 63.4 C 165.1 63.4 163.1 62.7 163.1 62.7 C 163.5 61.8 164 61.2 164.6 60.7 C 165.2 60.3 165.8 59.9 166.5 59.7 C 167.2 59.6 167.9 59.5 168.6 59.5 C 169.1 59.5 169.6 59.5 170.1 59.6 C 170.7 59.7 171.3 59.9 171.8 60.2 C 172.3 60.6 172.8 61.1 173.1 61.7 C 173.5 62.3 173.7 63.2 173.7 64.3 C 173.66 64.29 173.7 73.3 173.7 73.3 L 171.6 73.3 L 171.6 71.4 C 171.6 71.4 171.45 71.43 171.5 71.4 C 171.3 71.7 171.1 72 170.7 72.4 C 170.4 72.7 170 73 169.4 73.2 C 168.9 73.5 168.2 73.6 167.4 73.6 Z M 167.7 71.7 C 168.6 71.7 169.3 71.5 169.8 71.2 C 170.4 70.9 170.8 70.5 171.1 70 C 171.4 69.4 171.6 68.9 171.6 68.3 C 171.6 68.3 171.6 66.4 171.6 66.4 C 171.5 66.5 171.3 66.6 171 66.7 C 170.7 66.8 170.3 66.9 169.9 66.9 C 169.6 67 169.2 67 168.8 67.1 C 168.5 67.1 168.2 67.2 167.9 67.2 C 167.4 67.3 166.9 67.4 166.4 67.5 C 165.9 67.7 165.6 67.9 165.3 68.2 C 165 68.6 164.8 69 164.8 69.5 C 164.8 70.2 165.1 70.8 165.7 71.2 C 166.2 71.5 166.9 71.7 167.7 71.7 Z M 179.5 65.1 C 179.48 65.07 179.5 73.3 179.5 73.3 L 177.4 73.3 L 177.4 59.6 L 179.4 59.6 L 179.4 61.8 C 179.4 61.8 179.59 61.77 179.6 61.8 C 179.9 61.1 180.4 60.5 181 60.1 C 181.7 59.7 182.5 59.5 183.6 59.5 C 184.5 59.5 185.3 59.6 186 60 C 186.7 60.4 187.2 61 187.6 61.7 C 188 62.5 188.2 63.4 188.2 64.6 C 188.18 64.61 188.2 73.3 188.2 73.3 L 186.1 73.3 C 186.1 73.3 186.08 64.75 186.1 64.8 C 186.1 63.7 185.8 62.8 185.2 62.2 C 184.7 61.6 183.9 61.3 183 61.3 C 182.3 61.3 181.7 61.5 181.2 61.8 C 180.6 62.1 180.2 62.5 179.9 63 C 179.6 63.6 179.5 64.3 179.5 65.1 Z M 199.3 73.3 L 199.3 55.1 L 201.4 55.1 L 201.4 61.8 C 201.4 61.8 201.6 61.8 201.6 61.8 C 201.8 61.6 202 61.3 202.2 60.9 C 202.5 60.5 202.9 60.2 203.4 59.9 C 204 59.6 204.7 59.5 205.5 59.5 C 206.7 59.5 207.7 59.7 208.6 60.3 C 209.5 60.9 210.1 61.7 210.6 62.8 C 211.1 63.8 211.4 65.1 211.4 66.5 C 211.4 67.9 211.1 69.2 210.6 70.2 C 210.1 71.3 209.5 72.1 208.6 72.7 C 207.7 73.3 206.7 73.6 205.6 73.6 C 204.7 73.6 204 73.4 203.5 73.1 C 202.9 72.8 202.5 72.5 202.3 72.1 C 202 71.7 201.8 71.4 201.6 71.2 C 201.6 71.18 201.4 71.2 201.4 71.2 L 201.4 73.3 L 199.3 73.3 Z M 201.4 66.5 C 201.4 67.5 201.5 68.4 201.8 69.2 C 202.1 70 202.6 70.6 203.2 71 C 203.7 71.5 204.5 71.7 205.3 71.7 C 206.2 71.7 206.9 71.4 207.5 71 C 208.1 70.5 208.5 69.9 208.8 69.1 C 209.1 68.3 209.3 67.4 209.3 66.5 C 209.3 65.5 209.1 64.6 208.8 63.9 C 208.5 63.1 208.1 62.5 207.5 62 C 206.9 61.6 206.2 61.3 205.3 61.3 C 204.4 61.3 203.7 61.6 203.1 62 C 202.6 62.4 202.1 63 201.8 63.8 C 201.5 64.5 201.4 65.4 201.4 66.5 Z M 220.2 73.6 C 218.8 73.6 217.7 73.3 216.8 72.7 C 215.8 72.1 215.1 71.3 214.6 70.2 C 214.1 69.2 213.8 68 213.8 66.6 C 213.8 65.2 214.1 63.9 214.6 62.9 C 215.1 61.8 215.8 61 216.7 60.4 C 217.6 59.8 218.7 59.5 219.9 59.5 C 220.7 59.5 221.4 59.6 222.1 59.8 C 222.7 60.1 223.4 60.4 223.9 61 C 224.5 61.5 225 62.2 225.3 63.1 C 225.6 63.9 225.8 65 225.8 66.3 C 225.81 66.28 225.8 67.2 225.8 67.2 L 215.3 67.2 L 215.3 65.4 C 215.3 65.4 223.68 65.35 223.7 65.4 C 223.7 64.6 223.5 63.9 223.2 63.3 C 222.9 62.7 222.5 62.2 221.9 61.9 C 221.4 61.5 220.7 61.3 219.9 61.3 C 219.1 61.3 218.4 61.5 217.8 62 C 217.2 62.4 216.7 62.9 216.4 63.6 C 216.1 64.2 215.9 64.9 215.9 65.7 C 215.9 65.7 215.9 66.9 215.9 66.9 C 215.9 67.9 216.1 68.8 216.4 69.5 C 216.8 70.2 217.3 70.8 217.9 71.1 C 218.6 71.5 219.3 71.7 220.2 71.7 C 220.7 71.7 221.2 71.6 221.7 71.4 C 222.1 71.3 222.5 71 222.8 70.7 C 223.1 70.4 223.4 70 223.6 69.5 C 223.6 69.5 225.6 70.1 225.6 70.1 C 225.4 70.8 225 71.4 224.5 71.9 C 224 72.4 223.4 72.8 222.7 73.1 C 221.9 73.4 221.1 73.6 220.2 73.6 Z M 241.2 73.6 C 240 73.6 239 73.3 238.2 72.7 C 237.3 72.1 236.6 71.3 236.1 70.2 C 235.6 69.2 235.4 67.9 235.4 66.5 C 235.4 65.1 235.6 63.8 236.1 62.8 C 236.6 61.7 237.3 60.9 238.2 60.3 C 239.1 59.7 240.1 59.5 241.2 59.5 C 242.1 59.5 242.8 59.6 243.3 59.9 C 243.8 60.2 244.2 60.5 244.5 60.9 C 244.8 61.3 245 61.6 245.2 61.8 C 245.16 61.8 245.3 61.8 245.3 61.8 L 245.3 55.1 L 247.4 55.1 L 247.4 73.3 L 245.4 73.3 L 245.4 71.2 C 245.4 71.2 245.16 71.18 245.2 71.2 C 245 71.4 244.8 71.7 244.5 72.1 C 244.2 72.5 243.8 72.8 243.3 73.1 C 242.8 73.4 242.1 73.6 241.2 73.6 Z M 241.5 71.7 C 242.3 71.7 243 71.5 243.6 71 C 244.2 70.6 244.6 70 244.9 69.2 C 245.2 68.4 245.4 67.5 245.4 66.5 C 245.4 65.4 245.2 64.5 244.9 63.8 C 244.6 63 244.2 62.4 243.6 62 C 243 61.6 242.3 61.3 241.5 61.3 C 240.6 61.3 239.8 61.6 239.3 62 C 238.7 62.5 238.2 63.1 237.9 63.9 C 237.6 64.6 237.5 65.5 237.5 66.5 C 237.5 67.4 237.6 68.3 237.9 69.1 C 238.2 69.9 238.7 70.5 239.3 71 C 239.9 71.4 240.6 71.7 241.5 71.7 Z M 251.3 73.3 L 251.3 59.6 L 253.4 59.6 L 253.4 73.3 L 251.3 73.3 Z M 252.4 57.4 C 252 57.4 251.6 57.2 251.3 56.9 C 251 56.7 250.9 56.3 250.9 55.9 C 250.9 55.6 251 55.2 251.3 54.9 C 251.6 54.7 252 54.5 252.4 54.5 C 252.8 54.5 253.1 54.7 253.4 54.9 C 253.7 55.2 253.9 55.6 253.9 55.9 C 253.9 56.3 253.7 56.7 253.4 56.9 C 253.1 57.2 252.8 57.4 252.4 57.4 Z M 263.2 59.6 L 263.2 61.4 L 255.9 61.4 L 255.9 59.6 L 263.2 59.6 Z M 258.1 73.3 C 258.1 73.3 258.06 57.75 258.1 57.8 C 258.1 57 258.2 56.3 258.6 55.8 C 259 55.3 259.5 54.9 260 54.6 C 260.6 54.4 261.2 54.2 261.9 54.2 C 262.4 54.2 262.8 54.3 263.2 54.4 C 263.5 54.4 263.7 54.5 263.9 54.6 C 263.9 54.6 263.3 56.4 263.3 56.4 C 263.2 56.4 263 56.3 262.8 56.3 C 262.7 56.2 262.4 56.2 262.1 56.2 C 261.4 56.2 260.9 56.4 260.6 56.7 C 260.3 57.1 260.2 57.6 260.2 58.3 C 260.15 58.25 260.2 73.3 260.2 73.3 L 258.1 73.3 Z M 272.6 59.6 L 272.6 61.4 L 265.2 61.4 L 265.2 59.6 L 272.6 59.6 Z M 267.4 73.3 C 267.4 73.3 267.41 57.75 267.4 57.8 C 267.4 57 267.6 56.3 268 55.8 C 268.3 55.3 268.8 54.9 269.4 54.6 C 270 54.4 270.6 54.2 271.2 54.2 C 271.8 54.2 272.2 54.3 272.5 54.4 C 272.8 54.4 273.1 54.5 273.2 54.6 C 273.2 54.6 272.6 56.4 272.6 56.4 C 272.5 56.4 272.4 56.3 272.2 56.3 C 272 56.2 271.8 56.2 271.5 56.2 C 270.8 56.2 270.3 56.4 270 56.7 C 269.7 57.1 269.5 57.6 269.5 58.3 C 269.51 58.25 269.5 73.3 269.5 73.3 L 267.4 73.3 Z M 275.6 73.3 L 275.6 59.6 L 277.7 59.6 L 277.7 73.3 L 275.6 73.3 Z M 276.7 57.4 C 276.3 57.4 276 57.2 275.7 56.9 C 275.4 56.7 275.2 56.3 275.2 55.9 C 275.2 55.6 275.4 55.2 275.7 54.9 C 276 54.7 276.3 54.5 276.7 54.5 C 277.1 54.5 277.5 54.7 277.8 54.9 C 278.1 55.2 278.2 55.6 278.2 55.9 C 278.2 56.3 278.1 56.7 277.8 56.9 C 277.5 57.2 277.1 57.4 276.7 57.4 Z M 287 73.6 C 285.7 73.6 284.6 73.3 283.7 72.7 C 282.7 72 282 71.2 281.5 70.2 C 281 69.1 280.8 67.9 280.8 66.5 C 280.8 65.1 281 63.9 281.5 62.9 C 282.1 61.8 282.8 61 283.7 60.4 C 284.6 59.8 285.7 59.5 286.9 59.5 C 287.9 59.5 288.7 59.6 289.5 60 C 290.3 60.3 290.9 60.8 291.4 61.5 C 291.9 62.1 292.2 62.9 292.3 63.7 C 292.3 63.7 290.2 63.7 290.2 63.7 C 290.1 63.1 289.7 62.5 289.2 62.1 C 288.6 61.6 287.9 61.3 287 61.3 C 286.1 61.3 285.4 61.6 284.8 62 C 284.2 62.4 283.7 63 283.4 63.8 C 283 64.5 282.9 65.4 282.9 66.5 C 282.9 67.5 283 68.4 283.4 69.2 C 283.7 70 284.2 70.6 284.8 71 C 285.4 71.5 286.1 71.7 287 71.7 C 287.5 71.7 288 71.6 288.4 71.4 C 288.9 71.2 289.3 70.9 289.6 70.6 C 289.9 70.2 290.1 69.8 290.2 69.3 C 290.2 69.3 292.3 69.3 292.3 69.3 C 292.2 70.1 291.9 70.8 291.4 71.5 C 291 72.1 290.4 72.6 289.6 73 C 288.8 73.4 288 73.6 287 73.6 Z M 303.8 67.7 C 303.76 67.7 303.8 59.6 303.8 59.6 L 305.9 59.6 L 305.9 73.3 L 303.8 73.3 L 303.8 71 C 303.8 71 303.62 70.96 303.6 71 C 303.3 71.7 302.8 72.2 302.1 72.7 C 301.5 73.2 300.6 73.5 299.6 73.5 C 298.7 73.5 298 73.3 297.3 72.9 C 296.6 72.5 296.1 71.9 295.7 71.2 C 295.4 70.4 295.2 69.5 295.2 68.3 C 295.17 68.3 295.2 59.6 295.2 59.6 L 297.3 59.6 C 297.3 59.6 297.26 68.16 297.3 68.2 C 297.3 69.2 297.5 69.9 298.1 70.5 C 298.7 71.1 299.4 71.4 300.2 71.4 C 300.8 71.4 301.3 71.3 301.8 71 C 302.4 70.8 302.8 70.4 303.2 69.8 C 303.6 69.3 303.8 68.5 303.8 67.7 Z M 311.7 55.1 L 311.7 73.3 L 309.6 73.3 L 309.6 55.1 L 311.7 55.1 Z M 321.3 59.6 L 321.3 61.4 L 314.2 61.4 L 314.2 59.6 L 321.3 59.6 Z M 316.3 56.4 L 318.4 56.4 C 318.4 56.4 318.36 69.37 318.4 69.4 C 318.4 70 318.4 70.4 318.6 70.7 C 318.8 71 319 71.2 319.3 71.3 C 319.6 71.4 319.9 71.4 320.2 71.4 C 320.4 71.4 320.6 71.4 320.7 71.4 C 320.9 71.4 321 71.3 321.1 71.3 C 321.1 71.3 321.5 73.2 321.5 73.2 C 321.4 73.3 321.2 73.3 320.9 73.4 C 320.7 73.4 320.3 73.5 320 73.5 C 319.4 73.5 318.8 73.3 318.2 73.1 C 317.7 72.8 317.2 72.4 316.8 71.9 C 316.4 71.4 316.3 70.7 316.3 69.9 C 316.26 69.93 316.3 56.4 316.3 56.4 Z " stroke="none" fill="#000"/>  </g>  <g id="Polygon112929">    <path d="M 13.8 31.3 C 13.8 31.27 2.7 31.3 2.7 31.3 L 2.7 0 C 2.7 0 13.9 0 13.9 0 C 17 0 19.7 0.6 22 1.9 C 24.3 3.1 26 4.9 27.3 7.2 C 28.5 9.6 29.1 12.4 29.1 15.6 C 29.1 18.9 28.5 21.7 27.3 24 C 26 26.3 24.3 28.1 22 29.4 C 19.7 30.6 17 31.3 13.8 31.3 Z M 9.3 25.6 C 9.3 25.6 13.53 25.61 13.5 25.6 C 15.5 25.6 17.1 25.3 18.5 24.6 C 19.8 23.9 20.8 22.8 21.5 21.3 C 22.2 19.8 22.5 17.9 22.5 15.6 C 22.5 13.3 22.2 11.4 21.5 9.9 C 20.8 8.5 19.8 7.4 18.5 6.7 C 17.1 6 15.5 5.7 13.5 5.7 C 13.54 5.67 9.3 5.7 9.3 5.7 L 9.3 25.6 Z M 33.7 31.3 L 33.7 7.8 L 40.2 7.8 L 40.2 31.3 L 33.7 31.3 Z M 37 4.8 C 36 4.8 35.2 4.5 34.5 3.8 C 33.8 3.2 33.5 2.4 33.5 1.5 C 33.5 0.6 33.8 -0.2 34.5 -0.8 C 35.2 -1.5 36.1 -1.8 37 -1.8 C 38 -1.8 38.8 -1.5 39.5 -0.8 C 40.2 -0.2 40.5 0.6 40.5 1.5 C 40.5 2.4 40.2 3.2 39.5 3.8 C 38.8 4.5 38 4.8 37 4.8 Z M 57.8 7.8 L 57.8 12.7 L 43.3 12.7 L 43.3 7.8 L 57.8 7.8 Z M 46.6 31.3 C 46.6 31.3 46.61 6.12 46.6 6.1 C 46.6 4.4 46.9 3 47.6 1.9 C 48.3 0.8 49.2 -0.1 50.4 -0.6 C 51.5 -1.2 52.8 -1.5 54.3 -1.5 C 55.3 -1.5 56.2 -1.4 57 -1.2 C 57.9 -1.1 58.5 -0.9 58.9 -0.8 C 58.9 -0.8 57.7 4.1 57.7 4.1 C 57.5 4 57.2 3.9 56.8 3.8 C 56.4 3.8 56.1 3.7 55.7 3.7 C 54.7 3.7 54 3.9 53.7 4.4 C 53.3 4.8 53.1 5.5 53.1 6.2 C 53.1 6.25 53.1 31.3 53.1 31.3 L 46.6 31.3 Z M 74.6 7.8 L 74.6 12.7 L 60.1 12.7 L 60.1 7.8 L 74.6 7.8 Z M 63.4 31.3 C 63.4 31.3 63.4 6.12 63.4 6.1 C 63.4 4.4 63.7 3 64.4 1.9 C 65.1 0.8 66 -0.1 67.1 -0.6 C 68.3 -1.2 69.6 -1.5 71.1 -1.5 C 72.1 -1.5 73 -1.4 73.8 -1.2 C 74.7 -1.1 75.3 -0.9 75.7 -0.8 C 75.7 -0.8 74.5 4.1 74.5 4.1 C 74.3 4 74 3.9 73.6 3.8 C 73.2 3.8 72.8 3.7 72.5 3.7 C 71.5 3.7 70.8 3.9 70.5 4.4 C 70.1 4.8 69.9 5.5 69.9 6.2 C 69.89 6.25 69.9 31.3 69.9 31.3 L 63.4 31.3 Z M 78.4 31.3 L 78.4 7.8 L 84.9 7.8 L 84.9 31.3 L 78.4 31.3 Z M 81.6 4.8 C 80.7 4.8 79.8 4.5 79.2 3.8 C 78.5 3.2 78.1 2.4 78.1 1.5 C 78.1 0.6 78.5 -0.2 79.2 -0.8 C 79.9 -1.5 80.7 -1.8 81.6 -1.8 C 82.6 -1.8 83.4 -1.5 84.1 -0.8 C 84.8 -0.2 85.2 0.6 85.2 1.5 C 85.2 2.4 84.8 3.2 84.1 3.8 C 83.4 4.5 82.6 4.8 81.6 4.8 Z M 100.4 31.7 C 98 31.7 95.9 31.2 94.2 30.2 C 92.5 29.2 91.2 27.8 90.2 25.9 C 89.3 24.1 88.9 22 88.9 19.6 C 88.9 17.2 89.3 15.1 90.3 13.3 C 91.2 11.5 92.5 10.1 94.2 9 C 96 8 98 7.5 100.4 7.5 C 102.4 7.5 104.2 7.9 105.7 8.6 C 107.3 9.4 108.5 10.4 109.4 11.8 C 110.3 13.1 110.8 14.7 110.9 16.5 C 110.9 16.5 104.7 16.5 104.7 16.5 C 104.6 15.3 104.1 14.4 103.4 13.7 C 102.6 12.9 101.7 12.6 100.5 12.6 C 99.5 12.6 98.6 12.9 97.8 13.4 C 97.1 13.9 96.5 14.7 96.1 15.8 C 95.7 16.8 95.5 18.1 95.5 19.5 C 95.5 21 95.7 22.3 96.1 23.4 C 96.5 24.4 97.1 25.2 97.8 25.8 C 98.6 26.3 99.5 26.6 100.5 26.6 C 101.2 26.6 101.9 26.4 102.5 26.1 C 103.1 25.8 103.6 25.4 104 24.8 C 104.4 24.2 104.6 23.5 104.7 22.7 C 104.7 22.7 110.9 22.7 110.9 22.7 C 110.8 24.5 110.3 26 109.4 27.4 C 108.5 28.8 107.3 29.8 105.8 30.6 C 104.3 31.3 102.5 31.7 100.4 31.7 Z M 129.7 21.3 C 129.71 21.29 129.7 7.8 129.7 7.8 L 136.2 7.8 L 136.2 31.3 L 130 31.3 L 130 27 C 130 27 129.73 27.01 129.7 27 C 129.2 28.4 128.3 29.5 127.1 30.3 C 125.9 31.2 124.4 31.6 122.6 31.6 C 121 31.6 119.7 31.2 118.5 30.5 C 117.3 29.8 116.4 28.8 115.7 27.5 C 115 26.2 114.7 24.6 114.7 22.8 C 114.67 22.75 114.7 7.8 114.7 7.8 L 121.2 7.8 C 121.2 7.8 121.18 21.59 121.2 21.6 C 121.2 23 121.6 24.1 122.3 24.9 C 123 25.7 124 26.1 125.2 26.1 C 126 26.1 126.8 25.9 127.4 25.5 C 128.1 25.2 128.7 24.6 129.1 23.9 C 129.5 23.2 129.7 22.3 129.7 21.3 Z M 147.8 0 L 147.8 31.3 L 141.3 31.3 L 141.3 0 L 147.8 0 Z M 165.2 7.8 L 165.2 12.7 L 151.1 12.7 L 151.1 7.8 L 165.2 7.8 Z M 154.3 2.2 L 160.8 2.2 C 160.8 2.2 160.8 24.07 160.8 24.1 C 160.8 24.7 160.9 25.1 161.1 25.5 C 161.3 25.8 161.5 26 161.8 26.2 C 162.2 26.3 162.6 26.4 163 26.4 C 163.3 26.4 163.6 26.3 163.9 26.3 C 164.2 26.2 164.5 26.2 164.6 26.1 C 164.6 26.1 165.6 31 165.6 31 C 165.3 31.1 164.9 31.2 164.3 31.3 C 163.7 31.5 163 31.6 162.1 31.6 C 160.5 31.7 159.2 31.4 158 31 C 156.8 30.5 155.9 29.7 155.3 28.7 C 154.6 27.7 154.3 26.5 154.3 24.9 C 154.3 24.92 154.3 2.2 154.3 2.2 Z M 191.9 7.8 L 191.9 12.7 L 177.8 12.7 L 177.8 7.8 L 191.9 7.8 Z M 181 2.2 L 187.5 2.2 C 187.5 2.2 187.48 24.07 187.5 24.1 C 187.5 24.7 187.6 25.1 187.8 25.5 C 187.9 25.8 188.2 26 188.5 26.2 C 188.9 26.3 189.2 26.4 189.7 26.4 C 190 26.4 190.3 26.3 190.6 26.3 C 190.9 26.2 191.1 26.2 191.3 26.1 C 191.3 26.1 192.3 31 192.3 31 C 192 31.1 191.5 31.2 190.9 31.3 C 190.4 31.5 189.6 31.6 188.8 31.6 C 187.2 31.7 185.9 31.4 184.7 31 C 183.5 30.5 182.6 29.7 181.9 28.7 C 181.3 27.7 181 26.5 181 24.9 C 180.97 24.92 181 2.2 181 2.2 Z M 205.7 31.7 C 203.3 31.7 201.2 31.2 199.5 30.2 C 197.8 29.2 196.5 27.8 195.5 26 C 194.6 24.1 194.1 22 194.1 19.6 C 194.1 17.2 194.6 15.1 195.5 13.3 C 196.5 11.5 197.8 10 199.5 9 C 201.2 8 203.3 7.5 205.7 7.5 C 208 7.5 210.1 8 211.8 9 C 213.5 10 214.9 11.5 215.8 13.3 C 216.7 15.1 217.2 17.2 217.2 19.6 C 217.2 22 216.7 24.1 215.8 26 C 214.9 27.8 213.5 29.2 211.8 30.2 C 210.1 31.2 208 31.7 205.7 31.7 Z M 205.7 26.7 C 206.8 26.7 207.7 26.4 208.4 25.8 C 209.1 25.2 209.7 24.3 210 23.2 C 210.4 22.2 210.6 21 210.6 19.6 C 210.6 18.2 210.4 17 210 15.9 C 209.7 14.9 209.1 14 208.4 13.4 C 207.7 12.8 206.8 12.5 205.7 12.5 C 204.6 12.5 203.7 12.8 203 13.4 C 202.2 14 201.7 14.9 201.3 15.9 C 200.9 17 200.7 18.2 200.7 19.6 C 200.7 21 200.9 22.2 201.3 23.2 C 201.7 24.3 202.2 25.2 203 25.8 C 203.7 26.4 204.6 26.7 205.7 26.7 Z M 246.5 21.3 C 246.47 21.29 246.5 7.8 246.5 7.8 L 253 7.8 L 253 31.3 L 246.7 31.3 L 246.7 27 C 246.7 27 246.49 27.01 246.5 27 C 246 28.4 245.1 29.5 243.9 30.3 C 242.6 31.2 241.1 31.6 239.4 31.6 C 237.8 31.6 236.4 31.2 235.2 30.5 C 234 29.8 233.1 28.8 232.4 27.5 C 231.8 26.2 231.4 24.6 231.4 22.8 C 231.43 22.75 231.4 7.8 231.4 7.8 L 237.9 7.8 C 237.9 7.8 237.93 21.59 237.9 21.6 C 237.9 23 238.3 24.1 239 24.9 C 239.8 25.7 240.8 26.1 242 26.1 C 242.8 26.1 243.5 25.9 244.2 25.5 C 244.9 25.2 245.4 24.6 245.9 23.9 C 246.3 23.2 246.5 22.3 246.5 21.3 Z M 277.4 14.5 C 277.4 14.5 271.4 14.9 271.4 14.9 C 271.3 14.4 271.1 13.9 270.8 13.5 C 270.4 13.1 270 12.7 269.5 12.5 C 268.9 12.2 268.3 12.1 267.5 12.1 C 266.5 12.1 265.7 12.3 265 12.8 C 264.3 13.2 263.9 13.7 263.9 14.4 C 263.9 15 264.1 15.5 264.6 15.9 C 265 16.3 265.8 16.6 266.9 16.8 C 266.9 16.8 271.1 17.7 271.1 17.7 C 273.4 18.1 275.1 18.9 276.2 19.9 C 277.4 21 277.9 22.3 277.9 24 C 277.9 25.5 277.5 26.9 276.6 28.1 C 275.7 29.2 274.4 30.1 272.9 30.8 C 271.3 31.4 269.5 31.7 267.5 31.7 C 264.4 31.7 261.9 31.1 260.1 29.8 C 258.2 28.5 257.2 26.7 256.8 24.5 C 256.8 24.5 263.2 24.1 263.2 24.1 C 263.4 25.1 263.9 25.8 264.6 26.3 C 265.4 26.8 266.3 27 267.5 27 C 268.6 27 269.6 26.8 270.3 26.4 C 271 25.9 271.3 25.4 271.3 24.7 C 271.3 24.1 271.1 23.6 270.6 23.2 C 270.1 22.8 269.3 22.5 268.3 22.3 C 268.3 22.3 264.2 21.5 264.2 21.5 C 262 21.1 260.3 20.3 259.1 19.1 C 258 18 257.5 16.6 257.5 14.8 C 257.5 13.3 257.9 12 258.7 10.9 C 259.5 9.8 260.7 9 262.2 8.4 C 263.7 7.8 265.4 7.5 267.4 7.5 C 270.4 7.5 272.7 8.1 274.4 9.4 C 276.1 10.6 277.1 12.3 277.4 14.5 Z M 292.3 31.7 C 289.9 31.7 287.8 31.2 286.1 30.3 C 284.3 29.3 283 27.9 282 26.1 C 281.1 24.3 280.6 22.1 280.6 19.7 C 280.6 17.2 281.1 15.1 282 13.3 C 283 11.5 284.3 10.1 286 9 C 287.7 8 289.7 7.5 292 7.5 C 293.6 7.5 295 7.8 296.3 8.3 C 297.7 8.7 298.9 9.5 299.9 10.5 C 300.9 11.5 301.6 12.7 302.2 14.2 C 302.8 15.7 303 17.4 303 19.4 C 303.04 19.42 303 21.2 303 21.2 L 283.2 21.2 L 283.2 17.2 C 283.2 17.2 296.91 17.18 296.9 17.2 C 296.9 16.2 296.7 15.4 296.3 14.7 C 295.9 14 295.3 13.4 294.6 13 C 293.9 12.6 293.1 12.4 292.1 12.4 C 291.1 12.4 290.3 12.6 289.5 13 C 288.7 13.5 288.1 14.1 287.7 14.9 C 287.3 15.6 287.1 16.5 287.1 17.4 C 287.1 17.4 287.1 21.2 287.1 21.2 C 287.1 22.4 287.3 23.4 287.7 24.2 C 288.1 25.1 288.8 25.7 289.6 26.2 C 290.3 26.6 291.3 26.9 292.4 26.9 C 293.1 26.9 293.8 26.8 294.4 26.6 C 295 26.4 295.5 26.1 295.9 25.7 C 296.3 25.2 296.7 24.7 296.9 24.2 C 296.9 24.2 302.9 24.6 302.9 24.6 C 302.6 26 302 27.3 301 28.3 C 300.1 29.4 298.9 30.2 297.4 30.8 C 295.9 31.4 294.2 31.7 292.3 31.7 Z " stroke="none" fill="#10283d"/>  </g>  <g id="Polygon112930">    <path d="M 316.2 19 L 327.2 29.8 L 338.2 19 " style="stroke-width:3pt; stroke:#838f98;" fill="none"/>  </g>  <g id="Polygon112934">    <path d="M 248.5 139.8 L 203.3 139.8 M 237.6 150.9 L 248.6 139.9 L 237.6 129 " style="stroke-width:3pt; stroke:#ff4f00;" fill="none"/>  </g></svg>