<?xml version="1.0" standalone="no"?><!DOCTYPE svg PUBLIC "-//W3C//DTD SVG 1.1//EN" "http://www.w3.org/Graphics/SVG/1.1/DTD/svg11.dtd"><svg xmlns="http://www.w3.org/2000/svg" version="1.1" width="445px" height="54.7px" viewBox="0 -13 445 54.7" style="top:-13px">  <desc>Explore Anaplan Intelligence</desc>  <defs/>  <g id="Polygon126141">    <path d="M 2 23.3 L 2 0 L 17.7 0 L 17.7 4.1 L 6.9 4.1 L 6.9 9.6 L 16.9 9.6 L 16.9 13.7 L 6.9 13.7 L 6.9 19.2 L 17.8 19.2 L 17.8 23.3 L 2 23.3 Z M 25.5 5.8 L 28.7 11.9 L 32 5.8 L 36.9 5.8 L 31.9 14.5 L 37.1 23.3 L 32.1 23.3 L 28.7 17.2 L 25.3 23.3 L 20.3 23.3 L 25.5 14.5 L 20.5 5.8 L 25.5 5.8 Z M 39.5 29.8 L 39.5 5.8 L 44.2 5.8 L 44.2 8.8 C 44.2 8.8 44.44 8.75 44.4 8.8 C 44.7 8.3 45 7.8 45.4 7.3 C 45.8 6.8 46.3 6.4 47 6.1 C 47.6 5.8 48.4 5.6 49.4 5.6 C 50.7 5.6 51.9 5.9 52.9 6.6 C 54 7.2 54.9 8.2 55.5 9.6 C 56.2 10.9 56.5 12.6 56.5 14.6 C 56.5 16.5 56.2 18.2 55.5 19.5 C 54.9 20.8 54.1 21.8 53 22.5 C 51.9 23.2 50.7 23.6 49.4 23.6 C 48.5 23.6 47.7 23.4 47 23.1 C 46.4 22.8 45.8 22.4 45.4 21.9 C 45 21.4 44.7 21 44.4 20.5 C 44.44 20.48 44.3 20.5 44.3 20.5 L 44.3 29.8 L 39.5 29.8 Z M 44.2 14.5 C 44.2 15.6 44.3 16.5 44.6 17.3 C 44.9 18 45.3 18.6 45.9 19.1 C 46.4 19.5 47.1 19.7 47.9 19.7 C 48.7 19.7 49.3 19.5 49.9 19.1 C 50.4 18.6 50.8 18 51.1 17.2 C 51.4 16.5 51.5 15.6 51.5 14.5 C 51.5 13.5 51.4 12.7 51.1 11.9 C 50.8 11.1 50.4 10.5 49.9 10.1 C 49.3 9.7 48.7 9.4 47.9 9.4 C 47.1 9.4 46.4 9.7 45.9 10.1 C 45.3 10.5 44.9 11.1 44.6 11.8 C 44.3 12.6 44.2 13.5 44.2 14.5 Z M 64.6 0 L 64.6 23.3 L 59.7 23.3 L 59.7 0 L 64.6 0 Z M 76.2 23.6 C 74.5 23.6 73 23.2 71.7 22.5 C 70.4 21.7 69.4 20.7 68.7 19.3 C 68 18 67.7 16.4 67.7 14.6 C 67.7 12.8 68 11.2 68.7 9.9 C 69.4 8.5 70.4 7.5 71.7 6.7 C 73 6 74.5 5.6 76.2 5.6 C 78 5.6 79.5 6 80.8 6.7 C 82.1 7.5 83.1 8.5 83.8 9.9 C 84.5 11.2 84.8 12.8 84.8 14.6 C 84.8 16.4 84.5 18 83.8 19.3 C 83.1 20.7 82.1 21.7 80.8 22.5 C 79.5 23.2 78 23.6 76.2 23.6 Z M 76.3 19.9 C 77.1 19.9 77.7 19.6 78.3 19.2 C 78.8 18.7 79.2 18.1 79.5 17.3 C 79.8 16.5 79.9 15.6 79.9 14.6 C 79.9 13.6 79.8 12.7 79.5 11.9 C 79.2 11.1 78.8 10.4 78.3 10 C 77.7 9.5 77.1 9.3 76.3 9.3 C 75.5 9.3 74.8 9.5 74.2 10 C 73.7 10.4 73.3 11.1 73 11.9 C 72.7 12.7 72.6 13.6 72.6 14.6 C 72.6 15.6 72.7 16.5 73 17.3 C 73.3 18.1 73.7 18.7 74.2 19.2 C 74.8 19.6 75.5 19.9 76.3 19.9 Z M 87.9 23.3 L 87.9 5.8 L 92.6 5.8 L 92.6 8.9 C 92.6 8.9 92.79 8.86 92.8 8.9 C 93.1 7.8 93.6 7 94.4 6.4 C 95.1 5.8 96 5.6 97 5.6 C 97.2 5.6 97.5 5.6 97.8 5.6 C 98 5.6 98.3 5.7 98.5 5.7 C 98.5 5.7 98.5 10 98.5 10 C 98.3 10 98 9.9 97.6 9.9 C 97.2 9.8 96.8 9.8 96.5 9.8 C 95.7 9.8 95.1 9.9 94.6 10.2 C 94 10.5 93.6 11 93.2 11.5 C 92.9 12.1 92.8 12.7 92.8 13.4 C 92.75 13.4 92.8 23.3 92.8 23.3 L 87.9 23.3 Z M 108.7 23.6 C 106.9 23.6 105.4 23.2 104.1 22.5 C 102.8 21.8 101.8 20.7 101.1 19.4 C 100.4 18.1 100 16.5 100 14.6 C 100 12.8 100.4 11.3 101.1 9.9 C 101.8 8.5 102.8 7.5 104 6.7 C 105.3 6 106.8 5.6 108.5 5.6 C 109.7 5.6 110.7 5.8 111.7 6.1 C 112.7 6.5 113.6 7.1 114.3 7.8 C 115.1 8.5 115.7 9.5 116.1 10.6 C 116.5 11.7 116.7 13 116.7 14.5 C 116.71 14.45 116.7 15.8 116.7 15.8 L 102 15.8 L 102 12.8 C 102 12.8 112.15 12.78 112.2 12.8 C 112.2 12.1 112 11.5 111.7 10.9 C 111.4 10.4 111 10 110.4 9.7 C 109.9 9.4 109.3 9.2 108.6 9.2 C 107.9 9.2 107.2 9.4 106.6 9.7 C 106.1 10 105.6 10.5 105.3 11.1 C 105 11.6 104.8 12.3 104.8 12.9 C 104.8 12.9 104.8 15.8 104.8 15.8 C 104.8 16.7 105 17.4 105.3 18 C 105.6 18.7 106.1 19.1 106.7 19.5 C 107.3 19.8 108 20 108.8 20 C 109.3 20 109.8 19.9 110.3 19.8 C 110.7 19.6 111.1 19.4 111.4 19.1 C 111.7 18.8 112 18.4 112.1 18 C 112.1 18 116.6 18.3 116.6 18.3 C 116.4 19.3 115.9 20.3 115.2 21.1 C 114.5 21.9 113.6 22.5 112.5 22.9 C 111.4 23.4 110.1 23.6 108.7 23.6 Z M 131.4 23.3 L 126.1 23.3 L 134.2 0 L 140.5 0 L 148.5 23.3 L 143.2 23.3 L 137.4 5.3 L 137.2 5.3 L 131.4 23.3 Z M 131.1 14.1 L 143.5 14.1 L 143.5 18 L 131.1 18 L 131.1 14.1 Z M 155.9 13.2 C 155.92 13.18 155.9 23.3 155.9 23.3 L 151.1 23.3 L 151.1 5.8 L 155.7 5.8 L 155.7 8.9 C 155.7 8.9 155.89 8.9 155.9 8.9 C 156.3 7.9 156.9 7.1 157.8 6.5 C 158.7 5.9 159.8 5.6 161.1 5.6 C 162.4 5.6 163.4 5.9 164.3 6.4 C 165.2 6.9 165.9 7.7 166.4 8.7 C 166.9 9.6 167.2 10.8 167.2 12.2 C 167.17 12.16 167.2 23.3 167.2 23.3 L 162.3 23.3 C 162.3 23.3 162.33 13.02 162.3 13 C 162.3 12 162.1 11.1 161.5 10.5 C 161 9.9 160.2 9.6 159.2 9.6 C 158.6 9.6 158 9.8 157.5 10 C 157 10.3 156.6 10.7 156.3 11.3 C 156.1 11.8 155.9 12.4 155.9 13.2 Z M 175.8 23.6 C 174.7 23.6 173.7 23.4 172.9 23 C 172 22.6 171.3 22 170.8 21.3 C 170.3 20.5 170 19.5 170 18.4 C 170 17.4 170.2 16.6 170.6 16 C 170.9 15.3 171.4 14.8 172 14.4 C 172.6 14 173.3 13.7 174.1 13.5 C 174.9 13.3 175.7 13.1 176.6 13 C 177.6 12.9 178.4 12.8 179.1 12.7 C 179.7 12.6 180.1 12.5 180.4 12.3 C 180.7 12.1 180.8 11.8 180.8 11.5 C 180.8 11.5 180.8 11.4 180.8 11.4 C 180.8 10.7 180.6 10.1 180.2 9.7 C 179.7 9.3 179.1 9.1 178.2 9.1 C 177.4 9.1 176.7 9.3 176.2 9.7 C 175.6 10.1 175.3 10.6 175.1 11.1 C 175.1 11.1 170.7 10.8 170.7 10.8 C 170.9 9.7 171.3 8.8 172 8 C 172.7 7.2 173.5 6.6 174.6 6.2 C 175.6 5.8 176.9 5.6 178.3 5.6 C 179.2 5.6 180.2 5.7 181.1 5.9 C 181.9 6.2 182.7 6.5 183.4 7 C 184.1 7.5 184.7 8.1 185.1 8.8 C 185.5 9.6 185.7 10.5 185.7 11.5 C 185.67 11.5 185.7 23.3 185.7 23.3 L 181.1 23.3 L 181.1 20.9 C 181.1 20.9 180.94 20.85 180.9 20.9 C 180.7 21.4 180.3 21.9 179.8 22.3 C 179.3 22.7 178.8 23 178.1 23.3 C 177.5 23.5 176.7 23.6 175.8 23.6 Z M 177.2 20.3 C 177.9 20.3 178.6 20.1 179.1 19.8 C 179.7 19.6 180.1 19.2 180.4 18.7 C 180.7 18.2 180.9 17.6 180.9 17 C 180.9 17 180.9 15.2 180.9 15.2 C 180.7 15.3 180.5 15.4 180.2 15.4 C 180 15.5 179.7 15.6 179.4 15.7 C 179 15.7 178.7 15.8 178.4 15.8 C 178.1 15.9 177.8 15.9 177.5 16 C 176.9 16 176.4 16.2 176 16.4 C 175.6 16.5 175.3 16.8 175 17.1 C 174.8 17.4 174.7 17.8 174.7 18.2 C 174.7 18.9 174.9 19.4 175.4 19.7 C 175.9 20.1 176.5 20.3 177.2 20.3 Z M 189.5 29.8 L 189.5 5.8 L 194.3 5.8 L 194.3 8.8 C 194.3 8.8 194.48 8.75 194.5 8.8 C 194.7 8.3 195 7.8 195.4 7.3 C 195.8 6.8 196.3 6.4 197 6.1 C 197.7 5.8 198.5 5.6 199.4 5.6 C 200.7 5.6 201.9 5.9 203 6.6 C 204 7.2 204.9 8.2 205.5 9.6 C 206.2 10.9 206.5 12.6 206.5 14.6 C 206.5 16.5 206.2 18.2 205.6 19.5 C 204.9 20.8 204.1 21.8 203 22.5 C 202 23.2 200.8 23.6 199.4 23.6 C 198.5 23.6 197.7 23.4 197 23.1 C 196.4 22.8 195.8 22.4 195.4 21.9 C 195 21.4 194.7 21 194.5 20.5 C 194.48 20.48 194.3 20.5 194.3 20.5 L 194.3 29.8 L 189.5 29.8 Z M 194.2 14.5 C 194.2 15.6 194.4 16.5 194.7 17.3 C 194.9 18 195.4 18.6 195.9 19.1 C 196.5 19.5 197.1 19.7 197.9 19.7 C 198.7 19.7 199.4 19.5 199.9 19.1 C 200.4 18.6 200.9 18 201.1 17.2 C 201.4 16.5 201.6 15.6 201.6 14.5 C 201.6 13.5 201.4 12.7 201.1 11.9 C 200.9 11.1 200.5 10.5 199.9 10.1 C 199.4 9.7 198.7 9.4 197.9 9.4 C 197.1 9.4 196.4 9.7 195.9 10.1 C 195.4 10.5 194.9 11.1 194.7 11.8 C 194.4 12.6 194.2 13.5 194.2 14.5 Z M 214.6 0 L 214.6 23.3 L 209.7 23.3 L 209.7 0 L 214.6 0 Z M 223.4 23.6 C 222.3 23.6 221.3 23.4 220.4 23 C 219.5 22.6 218.8 22 218.3 21.3 C 217.8 20.5 217.6 19.5 217.6 18.4 C 217.6 17.4 217.8 16.6 218.1 16 C 218.5 15.3 219 14.8 219.6 14.4 C 220.2 14 220.9 13.7 221.7 13.5 C 222.5 13.3 223.3 13.1 224.1 13 C 225.2 12.9 226 12.8 226.6 12.7 C 227.2 12.6 227.7 12.5 228 12.3 C 228.2 12.1 228.4 11.8 228.4 11.5 C 228.4 11.5 228.4 11.4 228.4 11.4 C 228.4 10.7 228.1 10.1 227.7 9.7 C 227.2 9.3 226.6 9.1 225.8 9.1 C 224.9 9.1 224.2 9.3 223.7 9.7 C 223.2 10.1 222.8 10.6 222.7 11.1 C 222.7 11.1 218.2 10.8 218.2 10.8 C 218.4 9.7 218.9 8.8 219.5 8 C 220.2 7.2 221.1 6.6 222.1 6.2 C 223.2 5.8 224.4 5.6 225.8 5.6 C 226.8 5.6 227.7 5.7 228.6 5.9 C 229.5 6.2 230.3 6.5 231 7 C 231.7 7.5 232.2 8.1 232.6 8.8 C 233 9.6 233.2 10.5 233.2 11.5 C 233.21 11.5 233.2 23.3 233.2 23.3 L 228.6 23.3 L 228.6 20.9 C 228.6 20.9 228.49 20.85 228.5 20.9 C 228.2 21.4 227.8 21.9 227.4 22.3 C 226.9 22.7 226.3 23 225.7 23.3 C 225 23.5 224.2 23.6 223.4 23.6 Z M 224.8 20.3 C 225.5 20.3 226.1 20.1 226.7 19.8 C 227.2 19.6 227.6 19.2 227.9 18.7 C 228.3 18.2 228.4 17.6 228.4 17 C 228.4 17 228.4 15.2 228.4 15.2 C 228.3 15.3 228 15.4 227.8 15.4 C 227.5 15.5 227.2 15.6 226.9 15.7 C 226.6 15.7 226.3 15.8 225.9 15.8 C 225.6 15.9 225.3 15.9 225 16 C 224.5 16 224 16.2 223.6 16.4 C 223.1 16.5 222.8 16.8 222.6 17.1 C 222.3 17.4 222.2 17.8 222.2 18.2 C 222.2 18.9 222.5 19.4 222.9 19.7 C 223.4 20.1 224 20.3 224.8 20.3 Z M 241.9 13.2 C 241.87 13.18 241.9 23.3 241.9 23.3 L 237 23.3 L 237 5.8 L 241.6 5.8 L 241.6 8.9 C 241.6 8.9 241.85 8.9 241.8 8.9 C 242.2 7.9 242.9 7.1 243.8 6.5 C 244.7 5.9 245.8 5.6 247.1 5.6 C 248.3 5.6 249.4 5.9 250.3 6.4 C 251.2 6.9 251.9 7.7 252.4 8.7 C 252.9 9.6 253.1 10.8 253.1 12.2 C 253.12 12.16 253.1 23.3 253.1 23.3 L 248.3 23.3 C 248.3 23.3 248.28 13.02 248.3 13 C 248.3 12 248 11.1 247.5 10.5 C 246.9 9.9 246.1 9.6 245.2 9.6 C 244.5 9.6 244 9.8 243.5 10 C 243 10.3 242.6 10.7 242.3 11.3 C 242 11.8 241.9 12.4 241.9 13.2 Z M 269.4 0 L 269.4 23.3 L 264.4 23.3 L 264.4 0 L 269.4 0 Z M 278.4 13.2 C 278.4 13.18 278.4 23.3 278.4 23.3 L 273.6 23.3 L 273.6 5.8 L 278.2 5.8 L 278.2 8.9 C 278.2 8.9 278.38 8.9 278.4 8.9 C 278.8 7.9 279.4 7.1 280.3 6.5 C 281.2 5.9 282.3 5.6 283.6 5.6 C 284.8 5.6 285.9 5.9 286.8 6.4 C 287.7 6.9 288.4 7.7 288.9 8.7 C 289.4 9.6 289.6 10.8 289.6 12.2 C 289.65 12.16 289.6 23.3 289.6 23.3 L 284.8 23.3 C 284.8 23.3 284.81 13.02 284.8 13 C 284.8 12 284.5 11.1 284 10.5 C 283.4 9.9 282.7 9.6 281.7 9.6 C 281.1 9.6 280.5 9.8 280 10 C 279.5 10.3 279.1 10.7 278.8 11.3 C 278.5 11.8 278.4 12.4 278.4 13.2 Z M 302.3 5.8 L 302.3 9.5 L 291.8 9.5 L 291.8 5.8 L 302.3 5.8 Z M 294.2 1.6 L 299 1.6 C 299 1.6 299.04 17.91 299 17.9 C 299 18.4 299.1 18.7 299.2 18.9 C 299.4 19.2 299.6 19.4 299.8 19.5 C 300.1 19.6 300.4 19.6 300.7 19.6 C 300.9 19.6 301.1 19.6 301.4 19.6 C 301.6 19.5 301.8 19.5 301.9 19.5 C 301.9 19.5 302.6 23.1 302.6 23.1 C 302.4 23.1 302.1 23.2 301.6 23.3 C 301.2 23.4 300.6 23.5 300 23.5 C 298.9 23.6 297.8 23.4 297 23 C 296.1 22.7 295.4 22.1 294.9 21.4 C 294.4 20.6 294.2 19.7 294.2 18.5 C 294.2 18.55 294.2 1.6 294.2 1.6 Z M 312.8 23.6 C 311 23.6 309.4 23.2 308.1 22.5 C 306.8 21.8 305.8 20.7 305.1 19.4 C 304.5 18.1 304.1 16.5 304.1 14.6 C 304.1 12.8 304.5 11.3 305.1 9.9 C 305.8 8.5 306.8 7.5 308.1 6.7 C 309.4 6 310.9 5.6 312.6 5.6 C 313.7 5.6 314.8 5.8 315.8 6.1 C 316.8 6.5 317.7 7.1 318.4 7.8 C 319.2 8.5 319.7 9.5 320.1 10.6 C 320.6 11.7 320.8 13 320.8 14.5 C 320.77 14.45 320.8 15.8 320.8 15.8 L 306 15.8 L 306 12.8 C 306 12.8 316.22 12.78 316.2 12.8 C 316.2 12.1 316.1 11.5 315.8 10.9 C 315.5 10.4 315 10 314.5 9.7 C 314 9.4 313.4 9.2 312.6 9.2 C 311.9 9.2 311.3 9.4 310.7 9.7 C 310.1 10 309.7 10.5 309.4 11.1 C 309.1 11.6 308.9 12.3 308.9 12.9 C 308.9 12.9 308.9 15.8 308.9 15.8 C 308.9 16.7 309 17.4 309.4 18 C 309.7 18.7 310.1 19.1 310.7 19.5 C 311.3 19.8 312 20 312.8 20 C 313.4 20 313.9 19.9 314.3 19.8 C 314.8 19.6 315.1 19.4 315.5 19.1 C 315.8 18.8 316 18.4 316.2 18 C 316.2 18 320.7 18.3 320.7 18.3 C 320.4 19.3 320 20.3 319.3 21.1 C 318.6 21.9 317.7 22.5 316.6 22.9 C 315.5 23.4 314.2 23.6 312.8 23.6 Z M 328.8 0 L 328.8 23.3 L 324 23.3 L 324 0 L 328.8 0 Z M 337.5 0 L 337.5 23.3 L 332.7 23.3 L 332.7 0 L 337.5 0 Z M 341.4 23.3 L 341.4 5.8 L 346.3 5.8 L 346.3 23.3 L 341.4 23.3 Z M 343.9 3.6 C 343.1 3.6 342.5 3.3 342 2.9 C 341.5 2.4 341.2 1.8 341.2 1.1 C 341.2 0.5 341.5 -0.1 342 -0.6 C 342.5 -1.1 343.1 -1.3 343.9 -1.3 C 344.6 -1.3 345.2 -1.1 345.7 -0.6 C 346.2 -0.1 346.5 0.4 346.5 1.1 C 346.5 1.8 346.2 2.4 345.7 2.8 C 345.2 3.3 344.6 3.6 343.9 3.6 Z M 357.9 30.2 C 356.3 30.2 355 30 353.8 29.5 C 352.7 29.1 351.8 28.5 351.2 27.8 C 350.5 27.1 350.1 26.2 349.9 25.3 C 349.9 25.3 354.4 24.7 354.4 24.7 C 354.5 25.1 354.7 25.4 355 25.7 C 355.3 26 355.7 26.2 356.2 26.4 C 356.7 26.6 357.3 26.7 358 26.7 C 359 26.7 359.9 26.4 360.6 25.9 C 361.3 25.4 361.6 24.6 361.6 23.4 C 361.62 23.38 361.6 20.2 361.6 20.2 C 361.6 20.2 361.42 20.18 361.4 20.2 C 361.2 20.7 360.9 21.1 360.5 21.6 C 360 22 359.5 22.3 358.8 22.6 C 358.2 22.9 357.4 23 356.4 23 C 355.1 23 353.9 22.7 352.9 22.1 C 351.8 21.5 350.9 20.6 350.3 19.3 C 349.7 18 349.4 16.4 349.4 14.5 C 349.4 12.5 349.7 10.9 350.3 9.6 C 351 8.2 351.8 7.2 352.9 6.6 C 354 5.9 355.1 5.6 356.4 5.6 C 357.4 5.6 358.2 5.8 358.9 6.1 C 359.5 6.4 360.1 6.8 360.5 7.3 C 360.9 7.8 361.2 8.3 361.4 8.8 C 361.42 8.75 361.6 8.8 361.6 8.8 L 361.6 5.8 L 366.4 5.8 C 366.4 5.8 366.4 23.44 366.4 23.4 C 366.4 24.9 366 26.2 365.3 27.2 C 364.6 28.2 363.6 28.9 362.3 29.4 C 361 29.9 359.5 30.2 357.9 30.2 Z M 358 19.4 C 358.8 19.4 359.4 19.2 360 18.8 C 360.5 18.4 360.9 17.9 361.2 17.1 C 361.5 16.4 361.6 15.5 361.6 14.5 C 361.6 13.5 361.5 12.6 361.2 11.8 C 360.9 11.1 360.5 10.5 360 10.1 C 359.4 9.7 358.8 9.4 358 9.4 C 357.2 9.4 356.5 9.7 356 10.1 C 355.4 10.5 355 11.1 354.7 11.9 C 354.4 12.6 354.3 13.5 354.3 14.5 C 354.3 15.5 354.4 16.4 354.7 17.1 C 355 17.8 355.4 18.4 356 18.8 C 356.5 19.2 357.2 19.4 358 19.4 Z M 378.2 23.6 C 376.4 23.6 374.8 23.2 373.5 22.5 C 372.3 21.8 371.3 20.7 370.6 19.4 C 369.9 18.1 369.5 16.5 369.5 14.6 C 369.5 12.8 369.9 11.3 370.6 9.9 C 371.3 8.5 372.2 7.5 373.5 6.7 C 374.8 6 376.3 5.6 378 5.6 C 379.1 5.6 380.2 5.8 381.2 6.1 C 382.2 6.5 383.1 7.1 383.8 7.8 C 384.6 8.5 385.2 9.5 385.6 10.6 C 386 11.7 386.2 13 386.2 14.5 C 386.19 14.45 386.2 15.8 386.2 15.8 L 371.5 15.8 L 371.5 12.8 C 371.5 12.8 381.64 12.78 381.6 12.8 C 381.6 12.1 381.5 11.5 381.2 10.9 C 380.9 10.4 380.5 10 379.9 9.7 C 379.4 9.4 378.8 9.2 378.1 9.2 C 377.3 9.2 376.7 9.4 376.1 9.7 C 375.6 10 375.1 10.5 374.8 11.1 C 374.5 11.6 374.3 12.3 374.3 12.9 C 374.3 12.9 374.3 15.8 374.3 15.8 C 374.3 16.7 374.5 17.4 374.8 18 C 375.1 18.7 375.6 19.1 376.2 19.5 C 376.7 19.8 377.4 20 378.3 20 C 378.8 20 379.3 19.9 379.7 19.8 C 380.2 19.6 380.6 19.4 380.9 19.1 C 381.2 18.8 381.4 18.4 381.6 18 C 381.6 18 386.1 18.3 386.1 18.3 C 385.9 19.3 385.4 20.3 384.7 21.1 C 384 21.9 383.1 22.5 382 22.9 C 380.9 23.4 379.6 23.6 378.2 23.6 Z M 394.2 13.2 C 394.21 13.18 394.2 23.3 394.2 23.3 L 389.4 23.3 L 389.4 5.8 L 394 5.8 L 394 8.9 C 394 8.9 394.19 8.9 394.2 8.9 C 394.6 7.9 395.2 7.1 396.1 6.5 C 397 5.9 398.1 5.6 399.4 5.6 C 400.7 5.6 401.7 5.9 402.6 6.4 C 403.5 6.9 404.2 7.7 404.7 8.7 C 405.2 9.6 405.5 10.8 405.5 12.2 C 405.46 12.16 405.5 23.3 405.5 23.3 L 400.6 23.3 C 400.6 23.3 400.62 13.02 400.6 13 C 400.6 12 400.4 11.1 399.8 10.5 C 399.2 9.9 398.5 9.6 397.5 9.6 C 396.9 9.6 396.3 9.8 395.8 10 C 395.3 10.3 394.9 10.7 394.6 11.3 C 394.4 11.8 394.2 12.4 394.2 13.2 Z M 417 23.6 C 415.3 23.6 413.7 23.2 412.4 22.5 C 411.2 21.7 410.2 20.7 409.5 19.3 C 408.8 17.9 408.5 16.4 408.5 14.6 C 408.5 12.8 408.8 11.3 409.5 9.9 C 410.2 8.6 411.2 7.5 412.5 6.7 C 413.7 6 415.3 5.6 417 5.6 C 418.5 5.6 419.9 5.9 421 6.4 C 422.2 7 423.1 7.8 423.7 8.8 C 424.4 9.8 424.8 10.9 424.8 12.3 C 424.8 12.3 420.3 12.3 420.3 12.3 C 420.1 11.4 419.8 10.7 419.3 10.2 C 418.7 9.6 418 9.4 417.1 9.4 C 416.3 9.4 415.7 9.6 415.1 10 C 414.6 10.4 414.1 11 413.8 11.7 C 413.5 12.5 413.4 13.4 413.4 14.5 C 413.4 15.7 413.5 16.6 413.8 17.4 C 414.1 18.2 414.6 18.8 415.1 19.2 C 415.7 19.6 416.3 19.8 417.1 19.8 C 417.7 19.8 418.2 19.7 418.6 19.4 C 419 19.2 419.4 18.9 419.7 18.4 C 420 18 420.2 17.5 420.3 16.9 C 420.3 16.9 424.8 16.9 424.8 16.9 C 424.8 18.2 424.4 19.4 423.8 20.4 C 423.1 21.4 422.2 22.2 421.1 22.8 C 419.9 23.3 418.6 23.6 417 23.6 Z M 435.7 23.6 C 433.9 23.6 432.3 23.2 431 22.5 C 429.7 21.8 428.7 20.7 428 19.4 C 427.4 18.1 427 16.5 427 14.6 C 427 12.8 427.4 11.3 428 9.9 C 428.7 8.5 429.7 7.5 431 6.7 C 432.3 6 433.8 5.6 435.5 5.6 C 436.6 5.6 437.7 5.8 438.7 6.1 C 439.7 6.5 440.6 7.1 441.3 7.8 C 442.1 8.5 442.6 9.5 443 10.6 C 443.5 11.7 443.7 13 443.7 14.5 C 443.67 14.45 443.7 15.8 443.7 15.8 L 428.9 15.8 L 428.9 12.8 C 428.9 12.8 439.12 12.78 439.1 12.8 C 439.1 12.1 439 11.5 438.7 10.9 C 438.4 10.4 437.9 10 437.4 9.7 C 436.9 9.4 436.3 9.2 435.5 9.2 C 434.8 9.2 434.2 9.4 433.6 9.7 C 433 10 432.6 10.5 432.3 11.1 C 432 11.6 431.8 12.3 431.8 12.9 C 431.8 12.9 431.8 15.8 431.8 15.8 C 431.8 16.7 431.9 17.4 432.3 18 C 432.6 18.7 433 19.1 433.6 19.5 C 434.2 19.8 434.9 20 435.7 20 C 436.3 20 436.8 19.9 437.2 19.8 C 437.7 19.6 438 19.4 438.4 19.1 C 438.7 18.8 438.9 18.4 439.1 18 C 439.1 18 443.6 18.3 443.6 18.3 C 443.3 19.3 442.9 20.3 442.2 21.1 C 441.5 21.9 440.6 22.5 439.5 22.9 C 438.4 23.4 437.1 23.6 435.7 23.6 Z " stroke="none" fill="#ffffff"/>  </g></svg>