<?xml version="1.0" standalone="no"?><!DOCTYPE svg PUBLIC "-//W3C//DTD SVG 1.1//EN" "http://www.w3.org/Graphics/SVG/1.1/DTD/svg11.dtd"><svg xmlns="http://www.w3.org/2000/svg" version="1.1" width="639px" height="163.7px" viewBox="0 -6 639 163.7" style="top:-6px">  <desc>Most AI fails to generate real business value. So, what’s behind today’s generic AI promises?</desc>  <defs/>  <g id="Polygon111737">    <path d="M 12.6 112.9 L 12.6 115.8 L 1.3 115.8 L 1.3 112.9 L 12.6 112.9 Z M 4.5 107.7 L 7.9 107.7 C 7.9 107.7 7.9 128.5 7.9 128.5 C 7.9 129.4 8 130.2 8.3 130.6 C 8.6 131.1 9 131.4 9.4 131.6 C 9.8 131.7 10.3 131.8 10.8 131.8 C 11.2 131.8 11.5 131.8 11.7 131.7 C 11.9 131.7 12.1 131.7 12.3 131.6 C 12.3 131.6 13 134.6 13 134.6 C 12.7 134.7 12.4 134.8 12 134.9 C 11.6 135 11.1 135 10.5 135 C 9.5 135 8.6 134.8 7.7 134.4 C 6.8 134 6 133.4 5.4 132.6 C 4.8 131.7 4.5 130.7 4.5 129.4 C 4.55 129.41 4.5 107.7 4.5 107.7 Z M 25.5 135.2 C 23.6 135.2 21.8 134.7 20.4 133.8 C 18.9 132.9 17.7 131.5 16.9 129.9 C 16.1 128.2 15.7 126.2 15.7 124 C 15.7 121.7 16.1 119.7 16.9 118 C 17.7 116.3 18.9 115 20.4 114.1 C 21.8 113.1 23.6 112.6 25.5 112.6 C 27.5 112.6 29.2 113.1 30.7 114.1 C 32.2 115 33.4 116.3 34.2 118 C 35 119.7 35.4 121.7 35.4 124 C 35.4 126.2 35 128.2 34.2 129.9 C 33.4 131.5 32.2 132.9 30.7 133.8 C 29.2 134.7 27.5 135.2 25.5 135.2 Z M 25.5 132.2 C 27 132.2 28.3 131.8 29.2 131 C 30.2 130.3 30.9 129.3 31.4 128 C 31.8 126.8 32.1 125.4 32.1 124 C 32.1 122.5 31.8 121.1 31.4 119.9 C 30.9 118.6 30.2 117.6 29.2 116.8 C 28.3 116 27 115.7 25.5 115.7 C 24 115.7 22.8 116 21.8 116.8 C 20.9 117.6 20.2 118.6 19.7 119.9 C 19.2 121.1 19 122.5 19 124 C 19 125.4 19.2 126.8 19.7 128 C 20.2 129.3 20.9 130.3 21.8 131 C 22.8 131.8 24 132.2 25.5 132.2 Z M 48.5 135.2 C 46.7 135.2 45.1 134.7 43.7 133.8 C 42.3 132.9 41.2 131.6 40.4 129.9 C 39.6 128.2 39.2 126.2 39.2 123.9 C 39.2 121.6 39.6 119.6 40.4 117.9 C 41.2 116.2 42.3 114.9 43.7 114 C 45.1 113.1 46.7 112.6 48.5 112.6 C 50 112.6 51.1 112.9 51.9 113.4 C 52.7 113.8 53.4 114.4 53.8 114.9 C 54.3 115.5 54.6 116 54.9 116.4 C 54.85 116.4 55.1 116.4 55.1 116.4 L 55.1 105.7 L 58.5 105.7 L 58.5 134.8 L 55.2 134.8 L 55.2 131.4 C 55.2 131.4 54.85 131.4 54.9 131.4 C 54.6 131.8 54.3 132.3 53.8 132.9 C 53.3 133.5 52.7 134 51.9 134.5 C 51 135 49.9 135.2 48.5 135.2 Z M 48.9 132.2 C 50.3 132.2 51.4 131.8 52.4 131.1 C 53.3 130.4 54 129.4 54.5 128.2 C 55 126.9 55.2 125.5 55.2 123.8 C 55.2 122.2 55 120.8 54.5 119.6 C 54 118.3 53.3 117.4 52.4 116.7 C 51.5 116 50.3 115.7 48.9 115.7 C 47.5 115.7 46.3 116 45.4 116.7 C 44.5 117.5 43.8 118.5 43.3 119.7 C 42.8 120.9 42.6 122.3 42.6 123.8 C 42.6 125.4 42.8 126.8 43.3 128.1 C 43.8 129.3 44.5 130.3 45.4 131.1 C 46.4 131.8 47.5 132.2 48.9 132.2 Z M 71.3 135.3 C 69.9 135.3 68.7 135 67.5 134.5 C 66.4 133.9 65.5 133.2 64.9 132.2 C 64.2 131.2 63.9 130 63.9 128.6 C 63.9 127.3 64.1 126.3 64.6 125.5 C 65.1 124.7 65.7 124.1 66.6 123.7 C 67.4 123.2 68.3 122.9 69.3 122.7 C 70.3 122.4 71.3 122.3 72.3 122.1 C 73.7 122 74.7 121.8 75.6 121.7 C 76.4 121.7 77 121.5 77.4 121.3 C 77.8 121.1 78 120.7 78 120.1 C 78 120.1 78 120 78 120 C 78 118.6 77.6 117.5 76.8 116.8 C 76 116 74.9 115.6 73.3 115.6 C 71.7 115.6 70.5 116 69.6 116.7 C 68.7 117.4 68 118.1 67.7 118.9 C 67.7 118.9 64.5 117.8 64.5 117.8 C 65.1 116.4 65.8 115.4 66.8 114.7 C 67.7 113.9 68.8 113.4 69.9 113.1 C 71 112.8 72.1 112.6 73.2 112.6 C 73.9 112.6 74.7 112.7 75.7 112.9 C 76.6 113.1 77.5 113.4 78.3 113.9 C 79.2 114.4 79.9 115.2 80.5 116.2 C 81 117.3 81.3 118.6 81.3 120.4 C 81.3 120.38 81.3 134.8 81.3 134.8 L 78 134.8 L 78 131.8 C 78 131.8 77.78 131.8 77.8 131.8 C 77.6 132.3 77.2 132.8 76.6 133.3 C 76.1 133.9 75.4 134.3 74.5 134.7 C 73.6 135.1 72.6 135.3 71.3 135.3 Z M 71.8 132.3 C 73.1 132.3 74.3 132 75.2 131.5 C 76.1 130.9 76.8 130.3 77.2 129.5 C 77.7 128.6 78 127.8 78 126.9 C 78 126.9 78 123.8 78 123.8 C 77.8 124 77.5 124.1 77 124.2 C 76.5 124.4 76 124.5 75.4 124.6 C 74.8 124.7 74.2 124.8 73.6 124.9 C 73 124.9 72.5 125 72.2 125 C 71.3 125.1 70.5 125.3 69.7 125.6 C 69 125.8 68.4 126.2 67.9 126.7 C 67.4 127.2 67.2 127.9 67.2 128.7 C 67.2 129.9 67.6 130.8 68.5 131.4 C 69.4 132 70.5 132.3 71.8 132.3 Z M 88.5 142.9 C 87.9 142.9 87.4 142.9 87 142.8 C 86.5 142.7 86.2 142.6 86.1 142.5 C 86.1 142.5 86.9 139.6 86.9 139.6 C 87.7 139.8 88.4 139.9 89.1 139.8 C 89.7 139.8 90.2 139.5 90.7 139 C 91.2 138.5 91.7 137.7 92.1 136.6 C 92.07 136.57 92.7 134.9 92.7 134.9 L 84.6 112.9 L 88.3 112.9 L 94.3 130.3 L 94.5 130.3 L 100.5 112.9 L 104.2 112.9 C 104.2 112.9 94.91 137.93 94.9 137.9 C 94.5 139.1 94 140 93.4 140.7 C 92.8 141.5 92 142 91.2 142.4 C 90.4 142.8 89.5 142.9 88.5 142.9 Z M 112 105.7 C 112 105.7 111.97 108.22 112 108.2 C 112 109 111.8 109.8 111.5 110.7 C 111.3 111.6 110.9 112.4 110.3 113.2 C 109.8 114.1 109.1 114.8 108.4 115.4 C 108.4 115.4 106.6 113.9 106.6 113.9 C 107.2 113 107.7 112.2 108.1 111.2 C 108.6 110.3 108.8 109.3 108.8 108.3 C 108.78 108.27 108.8 105.7 108.8 105.7 L 112 105.7 Z M 130.2 117.8 C 130.2 117.8 127.2 118.7 127.2 118.7 C 127 118.2 126.7 117.7 126.4 117.2 C 126 116.7 125.5 116.3 124.9 116 C 124.3 115.7 123.5 115.5 122.5 115.5 C 121.2 115.5 120.1 115.9 119.2 116.5 C 118.3 117.1 117.8 117.8 117.8 118.8 C 117.8 119.6 118.1 120.3 118.7 120.8 C 119.4 121.2 120.3 121.6 121.6 122 C 121.6 122 124.8 122.8 124.8 122.8 C 126.8 123.2 128.2 124 129.2 124.9 C 130.1 125.9 130.6 127.1 130.6 128.7 C 130.6 129.9 130.3 131 129.5 132 C 128.8 133 127.8 133.8 126.6 134.4 C 125.3 134.9 123.8 135.2 122.1 135.2 C 119.9 135.2 118 134.7 116.6 133.8 C 115.1 132.8 114.2 131.4 113.8 129.5 C 113.8 129.5 117 128.7 117 128.7 C 117.3 129.9 117.9 130.8 118.7 131.4 C 119.6 132 120.7 132.3 122 132.3 C 123.6 132.3 124.8 131.9 125.8 131.2 C 126.7 130.6 127.2 129.8 127.2 128.8 C 127.2 128.1 126.9 127.4 126.4 126.9 C 125.8 126.4 125 126 123.9 125.8 C 123.9 125.8 120.3 124.9 120.3 124.9 C 118.3 124.4 116.8 123.7 115.9 122.7 C 115 121.7 114.5 120.5 114.5 119 C 114.5 117.7 114.8 116.6 115.5 115.7 C 116.2 114.7 117.2 114 118.4 113.5 C 119.6 112.9 121 112.6 122.5 112.6 C 124.7 112.6 126.4 113.1 127.6 114.1 C 128.8 115 129.7 116.3 130.2 117.8 Z M 155.7 143.4 C 154.1 143.4 152.7 143.2 151.6 142.8 C 150.4 142.4 149.4 141.8 148.7 141.1 C 147.9 140.5 147.3 139.8 146.8 139 C 146.8 139 149.5 137.1 149.5 137.1 C 149.8 137.5 150.2 138 150.6 138.5 C 151.1 139 151.7 139.5 152.5 139.9 C 153.4 140.2 154.4 140.4 155.7 140.4 C 157.5 140.4 158.9 140 160.1 139.2 C 161.2 138.3 161.8 137 161.8 135.1 C 161.81 135.15 161.8 130.7 161.8 130.7 C 161.8 130.7 161.53 130.72 161.5 130.7 C 161.3 131.1 160.9 131.6 160.5 132.2 C 160 132.8 159.4 133.3 158.6 133.7 C 157.7 134.2 156.6 134.4 155.2 134.4 C 153.4 134.4 151.8 134 150.4 133.2 C 149 132.3 147.9 131.1 147.1 129.5 C 146.3 127.9 145.9 126 145.9 123.7 C 145.9 121.5 146.3 119.5 147.1 117.9 C 147.9 116.2 149 114.9 150.4 114 C 151.8 113.1 153.4 112.6 155.2 112.6 C 156.6 112.6 157.8 112.9 158.6 113.4 C 159.4 113.8 160.1 114.4 160.5 114.9 C 161 115.5 161.3 116 161.6 116.4 C 161.59 116.4 161.9 116.4 161.9 116.4 L 161.9 112.9 L 165.2 112.9 C 165.2 112.9 165.17 135.38 165.2 135.4 C 165.2 137.3 164.7 138.8 163.9 140 C 163 141.1 161.9 142 160.5 142.6 C 159.1 143.1 157.5 143.4 155.7 143.4 Z M 155.6 131.4 C 157 131.4 158.1 131.1 159 130.5 C 160 129.9 160.7 129 161.1 127.8 C 161.6 126.7 161.9 125.3 161.9 123.7 C 161.9 122.1 161.6 120.7 161.2 119.5 C 160.7 118.3 160 117.4 159.1 116.7 C 158.1 116 157 115.7 155.6 115.7 C 154.2 115.7 153 116 152.1 116.7 C 151.1 117.5 150.4 118.4 150 119.6 C 149.5 120.8 149.3 122.2 149.3 123.7 C 149.3 125.2 149.5 126.5 150 127.7 C 150.5 128.8 151.2 129.8 152.1 130.4 C 153 131.1 154.2 131.4 155.6 131.4 Z M 180.3 135.2 C 178.2 135.2 176.4 134.7 174.9 133.8 C 173.3 132.9 172.2 131.6 171.4 129.9 C 170.5 128.2 170.1 126.2 170.1 124 C 170.1 121.8 170.5 119.8 171.4 118.1 C 172.2 116.4 173.3 115.1 174.8 114.1 C 176.3 113.1 178 112.6 180 112.6 C 181.1 112.6 182.2 112.8 183.3 113.2 C 184.4 113.6 185.4 114.2 186.4 115.1 C 187.3 115.9 188 117 188.5 118.4 C 189.1 119.8 189.3 121.5 189.3 123.6 C 189.34 123.56 189.3 125 189.3 125 L 172.5 125 L 172.5 122.1 C 172.5 122.1 185.93 122.08 185.9 122.1 C 185.9 120.8 185.7 119.8 185.2 118.8 C 184.7 117.8 184 117.1 183.1 116.5 C 182.2 115.9 181.2 115.7 180 115.7 C 178.6 115.7 177.5 116 176.5 116.6 C 175.5 117.3 174.8 118.2 174.3 119.2 C 173.7 120.3 173.5 121.4 173.5 122.6 C 173.5 122.6 173.5 124.5 173.5 124.5 C 173.5 126.2 173.8 127.6 174.3 128.7 C 174.9 129.8 175.7 130.7 176.7 131.3 C 177.8 131.9 178.9 132.2 180.3 132.2 C 181.2 132.2 182 132.1 182.7 131.8 C 183.4 131.6 184 131.2 184.5 130.7 C 185.1 130.2 185.5 129.5 185.8 128.8 C 185.8 128.8 189 129.7 189 129.7 C 188.7 130.8 188.1 131.8 187.3 132.6 C 186.5 133.4 185.5 134.1 184.3 134.5 C 183.1 135 181.8 135.2 180.3 135.2 Z M 197.7 121.6 C 197.73 121.63 197.7 134.8 197.7 134.8 L 194.4 134.8 L 194.4 112.9 L 197.6 112.9 L 197.6 116.3 C 197.6 116.3 197.9 116.34 197.9 116.3 C 198.4 115.2 199.2 114.3 200.2 113.7 C 201.3 113 202.6 112.6 204.3 112.6 C 205.7 112.6 207 112.9 208.1 113.5 C 209.3 114.2 210.1 115.1 210.7 116.3 C 211.3 117.5 211.7 119 211.7 120.9 C 211.65 120.89 211.7 134.8 211.7 134.8 L 208.3 134.8 C 208.3 134.8 208.3 121.11 208.3 121.1 C 208.3 119.4 207.9 118.1 207 117.1 C 206.1 116.1 204.9 115.7 203.3 115.7 C 202.2 115.7 201.3 115.9 200.4 116.4 C 199.6 116.8 198.9 117.5 198.5 118.4 C 198 119.3 197.7 120.4 197.7 121.6 Z M 226.7 135.2 C 224.6 135.2 222.8 134.7 221.3 133.8 C 219.7 132.9 218.6 131.6 217.8 129.9 C 216.9 128.2 216.5 126.2 216.5 124 C 216.5 121.8 216.9 119.8 217.8 118.1 C 218.6 116.4 219.7 115.1 221.2 114.1 C 222.7 113.1 224.4 112.6 226.4 112.6 C 227.5 112.6 228.6 112.8 229.7 113.2 C 230.8 113.6 231.8 114.2 232.7 115.1 C 233.7 115.9 234.4 117 234.9 118.4 C 235.5 119.8 235.7 121.5 235.7 123.6 C 235.73 123.56 235.7 125 235.7 125 L 218.9 125 L 218.9 122.1 C 218.9 122.1 232.32 122.08 232.3 122.1 C 232.3 120.8 232.1 119.8 231.6 118.8 C 231.1 117.8 230.4 117.1 229.5 116.5 C 228.6 115.9 227.6 115.7 226.4 115.7 C 225 115.7 223.9 116 222.9 116.6 C 221.9 117.3 221.2 118.2 220.7 119.2 C 220.1 120.3 219.9 121.4 219.9 122.6 C 219.9 122.6 219.9 124.5 219.9 124.5 C 219.9 126.2 220.2 127.6 220.7 128.7 C 221.3 129.8 222.1 130.7 223.1 131.3 C 224.2 131.9 225.3 132.2 226.7 132.2 C 227.6 132.2 228.4 132.1 229.1 131.8 C 229.8 131.6 230.4 131.2 230.9 130.7 C 231.5 130.2 231.9 129.5 232.1 128.8 C 232.1 128.8 235.4 129.7 235.4 129.7 C 235 130.8 234.5 131.8 233.7 132.6 C 232.9 133.4 231.9 134.1 230.7 134.5 C 229.5 135 228.2 135.2 226.7 135.2 Z M 240.8 134.8 L 240.8 112.9 L 244 112.9 L 244 116.2 C 244 116.2 244.24 116.23 244.2 116.2 C 244.6 115.1 245.4 114.3 246.4 113.6 C 247.4 112.9 248.6 112.6 249.9 112.6 C 250.2 112.6 250.5 112.6 250.8 112.6 C 251.2 112.6 251.5 112.6 251.7 112.6 C 251.7 112.6 251.7 116.1 251.7 116.1 C 251.6 116 251.3 116 250.9 115.9 C 250.5 115.9 250.1 115.8 249.6 115.8 C 248.6 115.8 247.6 116 246.8 116.5 C 246 116.9 245.3 117.5 244.8 118.3 C 244.4 119.1 244.1 120 244.1 120.9 C 244.12 120.94 244.1 134.8 244.1 134.8 L 240.8 134.8 Z M 255.3 134.8 L 255.3 112.9 L 258.6 112.9 L 258.6 134.8 L 255.3 134.8 Z M 257 109.3 C 256.3 109.3 255.8 109.1 255.3 108.6 C 254.8 108.2 254.6 107.6 254.6 107 C 254.6 106.4 254.8 105.9 255.3 105.4 C 255.8 105 256.3 104.8 257 104.8 C 257.6 104.8 258.2 105 258.7 105.4 C 259.1 105.9 259.4 106.4 259.4 107 C 259.4 107.6 259.1 108.2 258.7 108.6 C 258.2 109.1 257.6 109.3 257 109.3 Z M 273.4 135.2 C 271.4 135.2 269.6 134.7 268.1 133.8 C 266.7 132.8 265.5 131.5 264.7 129.8 C 263.9 128.1 263.5 126.1 263.5 124 C 263.5 121.7 263.9 119.8 264.8 118.1 C 265.6 116.4 266.7 115.1 268.2 114.1 C 269.7 113.1 271.4 112.6 273.4 112.6 C 274.9 112.6 276.3 112.9 277.5 113.5 C 278.7 114.1 279.8 114.9 280.5 115.9 C 281.3 116.9 281.8 118.1 282 119.5 C 282 119.5 278.7 119.5 278.7 119.5 C 278.4 118.5 277.8 117.6 277 116.8 C 276.1 116 274.9 115.7 273.4 115.7 C 272.1 115.7 271 116 270 116.7 C 269 117.4 268.3 118.3 267.7 119.5 C 267.2 120.8 266.9 122.2 266.9 123.8 C 266.9 125.5 267.2 127 267.7 128.2 C 268.2 129.5 269 130.5 270 131.2 C 270.9 131.8 272.1 132.2 273.4 132.2 C 274.3 132.2 275.1 132 275.8 131.7 C 276.5 131.4 277.1 131 277.6 130.4 C 278.1 129.9 278.4 129.2 278.7 128.4 C 278.7 128.4 282 128.4 282 128.4 C 281.8 129.7 281.3 130.8 280.6 131.9 C 279.9 132.9 278.9 133.7 277.7 134.3 C 276.4 134.9 275 135.2 273.4 135.2 Z M 299.8 134.8 L 296.1 134.8 L 306.8 105.7 L 310.4 105.7 L 321.1 134.8 L 317.4 134.8 L 308.7 110.3 L 308.5 110.3 L 299.8 134.8 Z M 301.2 123.4 L 316 123.4 L 316 126.5 L 301.2 126.5 L 301.2 123.4 Z M 329 105.7 L 329 134.8 L 325.5 134.8 L 325.5 105.7 L 329 105.7 Z M 346.9 142.9 L 346.9 112.9 L 350.1 112.9 L 350.1 116.4 C 350.1 116.4 350.52 116.4 350.5 116.4 C 350.8 116 351.1 115.5 351.6 114.9 C 352 114.4 352.6 113.8 353.5 113.4 C 354.3 112.9 355.4 112.6 356.8 112.6 C 358.7 112.6 360.3 113.1 361.7 114 C 363.1 114.9 364.2 116.2 365 117.9 C 365.8 119.6 366.1 121.6 366.1 123.9 C 366.1 126.2 365.8 128.2 365 129.9 C 364.2 131.6 363.1 132.9 361.7 133.8 C 360.3 134.7 358.7 135.2 356.9 135.2 C 355.5 135.2 354.4 135 353.5 134.5 C 352.7 134 352 133.5 351.6 132.9 C 351.1 132.3 350.8 131.8 350.5 131.4 C 350.52 131.4 350.2 131.4 350.2 131.4 L 350.2 142.9 L 346.9 142.9 Z M 350.2 123.8 C 350.2 125.5 350.4 126.9 350.9 128.2 C 351.4 129.4 352.1 130.4 353 131.1 C 354 131.8 355.1 132.2 356.4 132.2 C 357.8 132.2 359 131.8 359.9 131.1 C 360.9 130.3 361.6 129.3 362.1 128.1 C 362.6 126.8 362.8 125.4 362.8 123.8 C 362.8 122.3 362.6 120.9 362.1 119.7 C 361.6 118.5 360.9 117.5 360 116.7 C 359 116 357.9 115.7 356.4 115.7 C 355.1 115.7 353.9 116 353 116.7 C 352.1 117.4 351.4 118.3 350.9 119.6 C 350.4 120.8 350.2 122.2 350.2 123.8 Z M 371.2 134.8 L 371.2 112.9 L 374.4 112.9 L 374.4 116.2 C 374.4 116.2 374.62 116.23 374.6 116.2 C 375 115.1 375.7 114.3 376.8 113.6 C 377.8 112.9 379 112.6 380.3 112.6 C 380.5 112.6 380.9 112.6 381.2 112.6 C 381.6 112.6 381.9 112.6 382.1 112.6 C 382.1 112.6 382.1 116.1 382.1 116.1 C 381.9 116 381.7 116 381.3 115.9 C 380.9 115.9 380.5 115.8 380 115.8 C 379 115.8 378 116 377.2 116.5 C 376.4 116.9 375.7 117.5 375.2 118.3 C 374.7 119.1 374.5 120 374.5 120.9 C 374.51 120.94 374.5 134.8 374.5 134.8 L 371.2 134.8 Z M 394.5 135.2 C 392.5 135.2 390.8 134.7 389.3 133.8 C 387.8 132.9 386.7 131.5 385.8 129.9 C 385 128.2 384.6 126.2 384.6 124 C 384.6 121.7 385 119.7 385.8 118 C 386.7 116.3 387.8 115 389.3 114.1 C 390.8 113.1 392.5 112.6 394.5 112.6 C 396.5 112.6 398.2 113.1 399.7 114.1 C 401.2 115 402.3 116.3 403.1 118 C 404 119.7 404.4 121.7 404.4 124 C 404.4 126.2 404 128.2 403.1 129.9 C 402.3 131.5 401.2 132.9 399.7 133.8 C 398.2 134.7 396.5 135.2 394.5 135.2 Z M 394.5 132.2 C 396 132.2 397.2 131.8 398.2 131 C 399.2 130.3 399.9 129.3 400.3 128 C 400.8 126.8 401 125.4 401 124 C 401 122.5 400.8 121.1 400.3 119.9 C 399.9 118.6 399.2 117.6 398.2 116.8 C 397.2 116 396 115.7 394.5 115.7 C 393 115.7 391.8 116 390.8 116.8 C 389.8 117.6 389.1 118.6 388.7 119.9 C 388.2 121.1 388 122.5 388 124 C 388 125.4 388.2 126.8 388.7 128 C 389.1 129.3 389.8 130.3 390.8 131 C 391.8 131.8 393 132.2 394.5 132.2 Z M 409.3 134.8 L 409.3 112.9 L 412.5 112.9 L 412.5 116.3 C 412.5 116.3 412.81 116.34 412.8 116.3 C 413.3 115.2 414 114.3 415 113.6 C 416 113 417.2 112.6 418.7 112.6 C 420.1 112.6 421.3 113 422.3 113.6 C 423.2 114.3 424 115.2 424.5 116.3 C 424.5 116.3 424.7 116.3 424.7 116.3 C 425.3 115.2 426.1 114.3 427.3 113.6 C 428.4 113 429.7 112.6 431.3 112.6 C 433.2 112.6 434.8 113.3 436.1 114.5 C 437.3 115.7 437.9 117.6 437.9 120.1 C 437.92 120.15 437.9 134.8 437.9 134.8 L 434.6 134.8 C 434.6 134.8 434.57 120.15 434.6 120.1 C 434.6 118.5 434.1 117.4 433.2 116.7 C 432.4 116 431.3 115.7 430.1 115.7 C 428.6 115.7 427.4 116.1 426.6 117 C 425.7 118 425.3 119.1 425.3 120.5 C 425.31 120.55 425.3 134.8 425.3 134.8 L 421.9 134.8 C 421.9 134.8 421.9 119.81 421.9 119.8 C 421.9 118.6 421.5 117.6 420.7 116.8 C 419.9 116 418.8 115.7 417.6 115.7 C 416.7 115.7 415.9 115.9 415.1 116.4 C 414.4 116.8 413.8 117.5 413.3 118.3 C 412.9 119.1 412.6 120 412.6 121.1 C 412.64 121.11 412.6 134.8 412.6 134.8 L 409.3 134.8 Z M 443.9 134.8 L 443.9 112.9 L 447.3 112.9 L 447.3 134.8 L 443.9 134.8 Z M 445.6 109.3 C 445 109.3 444.4 109.1 443.9 108.6 C 443.5 108.2 443.2 107.6 443.2 107 C 443.2 106.4 443.5 105.9 443.9 105.4 C 444.4 105 445 104.8 445.6 104.8 C 446.3 104.8 446.8 105 447.3 105.4 C 447.8 105.9 448 106.4 448 107 C 448 107.6 447.8 108.2 447.3 108.6 C 446.8 109.1 446.3 109.3 445.6 109.3 Z M 468.6 117.8 C 468.6 117.8 465.6 118.7 465.6 118.7 C 465.4 118.2 465.1 117.7 464.8 117.2 C 464.4 116.7 463.9 116.3 463.3 116 C 462.7 115.7 461.9 115.5 460.9 115.5 C 459.5 115.5 458.4 115.9 457.5 116.5 C 456.7 117.1 456.2 117.8 456.2 118.8 C 456.2 119.6 456.5 120.3 457.1 120.8 C 457.7 121.2 458.7 121.6 460 122 C 460 122 463.2 122.8 463.2 122.8 C 465.2 123.2 466.6 124 467.6 124.9 C 468.5 125.9 469 127.1 469 128.7 C 469 129.9 468.6 131 467.9 132 C 467.2 133 466.2 133.8 464.9 134.4 C 463.7 134.9 462.2 135.2 460.5 135.2 C 458.3 135.2 456.4 134.7 455 133.8 C 453.5 132.8 452.6 131.4 452.2 129.5 C 452.2 129.5 455.4 128.7 455.4 128.7 C 455.7 129.9 456.2 130.8 457.1 131.4 C 457.9 132 459.1 132.3 460.4 132.3 C 462 132.3 463.2 131.9 464.2 131.2 C 465.1 130.6 465.5 129.8 465.5 128.8 C 465.5 128.1 465.3 127.4 464.7 126.9 C 464.2 126.4 463.4 126 462.3 125.8 C 462.3 125.8 458.7 124.9 458.7 124.9 C 456.7 124.4 455.2 123.7 454.3 122.7 C 453.3 121.7 452.9 120.5 452.9 119 C 452.9 117.7 453.2 116.6 453.9 115.7 C 454.6 114.7 455.6 114 456.8 113.5 C 458 112.9 459.3 112.6 460.9 112.6 C 463 112.6 464.7 113.1 466 114.1 C 467.2 115 468.1 116.3 468.6 117.8 Z M 482.8 135.2 C 480.7 135.2 478.9 134.7 477.4 133.8 C 475.9 132.9 474.7 131.6 473.9 129.9 C 473.1 128.2 472.6 126.2 472.6 124 C 472.6 121.8 473.1 119.8 473.9 118.1 C 474.7 116.4 475.8 115.1 477.3 114.1 C 478.8 113.1 480.5 112.6 482.5 112.6 C 483.6 112.6 484.7 112.8 485.8 113.2 C 487 113.6 488 114.2 488.9 115.1 C 489.8 115.9 490.5 117 491 118.4 C 491.6 119.8 491.9 121.5 491.9 123.6 C 491.85 123.56 491.9 125 491.9 125 L 475 125 L 475 122.1 C 475 122.1 488.45 122.08 488.4 122.1 C 488.4 120.8 488.2 119.8 487.7 118.8 C 487.2 117.8 486.5 117.1 485.6 116.5 C 484.7 115.9 483.7 115.7 482.5 115.7 C 481.1 115.7 480 116 479 116.6 C 478 117.3 477.3 118.2 476.8 119.2 C 476.3 120.3 476 121.4 476 122.6 C 476 122.6 476 124.5 476 124.5 C 476 126.2 476.3 127.6 476.9 128.7 C 477.4 129.8 478.2 130.7 479.3 131.3 C 480.3 131.9 481.5 132.2 482.8 132.2 C 483.7 132.2 484.5 132.1 485.2 131.8 C 485.9 131.6 486.5 131.2 487.1 130.7 C 487.6 130.2 488 129.5 488.3 128.8 C 488.3 128.8 491.5 129.7 491.5 129.7 C 491.2 130.8 490.6 131.8 489.8 132.6 C 489 133.4 488 134.1 486.8 134.5 C 485.6 135 484.3 135.2 482.8 135.2 Z M 512.1 117.8 C 512.1 117.8 509 118.7 509 118.7 C 508.9 118.2 508.6 117.7 508.2 117.2 C 507.8 116.7 507.4 116.3 506.7 116 C 506.1 115.7 505.3 115.5 504.3 115.5 C 503 115.5 501.9 115.9 501 116.5 C 500.1 117.1 499.7 117.8 499.7 118.8 C 499.7 119.6 500 120.3 500.6 120.8 C 501.2 121.2 502.1 121.6 503.4 122 C 503.4 122 506.7 122.8 506.7 122.8 C 508.6 123.2 510.1 124 511 124.9 C 512 125.9 512.5 127.1 512.5 128.7 C 512.5 129.9 512.1 131 511.4 132 C 510.7 133 509.7 133.8 508.4 134.4 C 507.1 134.9 505.6 135.2 503.9 135.2 C 501.7 135.2 499.9 134.7 498.4 133.8 C 496.9 132.8 496 131.4 495.6 129.5 C 495.6 129.5 498.8 128.7 498.8 128.7 C 499.1 129.9 499.7 130.8 500.5 131.4 C 501.4 132 502.5 132.3 503.9 132.3 C 505.4 132.3 506.7 131.9 507.6 131.2 C 508.5 130.6 509 129.8 509 128.8 C 509 128.1 508.7 127.4 508.2 126.9 C 507.7 126.4 506.8 126 505.7 125.8 C 505.7 125.8 502.1 124.9 502.1 124.9 C 500.1 124.4 498.6 123.7 497.7 122.7 C 496.8 121.7 496.3 120.5 496.3 119 C 496.3 117.7 496.7 116.6 497.4 115.7 C 498.1 114.7 499 114 500.2 113.5 C 501.4 112.9 502.8 112.6 504.3 112.6 C 506.5 112.6 508.2 113.1 509.4 114.1 C 510.7 115 511.5 116.3 512.1 117.8 Z M 520.2 126.6 C 520.2 126.6 520.22 126.4 520.2 126.4 C 520.2 124.6 520.4 123.1 520.8 122.1 C 521.1 121 521.7 120.1 522.3 119.5 C 523 118.8 523.8 118.2 524.7 117.6 C 525.3 117.3 525.8 116.9 526.2 116.4 C 526.7 116 527 115.4 527.3 114.8 C 527.5 114.2 527.7 113.5 527.7 112.8 C 527.7 111.8 527.4 111 527 110.3 C 526.6 109.7 526 109.1 525.3 108.8 C 524.5 108.4 523.7 108.2 522.8 108.2 C 522.1 108.2 521.3 108.4 520.6 108.7 C 519.9 109 519.3 109.5 518.8 110.2 C 518.3 110.9 518 111.8 517.9 112.9 C 517.9 112.9 514.4 112.9 514.4 112.9 C 514.4 111.3 514.9 109.9 515.6 108.8 C 516.4 107.7 517.4 106.8 518.7 106.2 C 519.9 105.6 521.3 105.3 522.8 105.3 C 524.5 105.3 526 105.6 527.2 106.3 C 528.4 106.9 529.4 107.8 530.1 109 C 530.7 110.1 531.1 111.5 531.1 112.9 C 531.1 114 530.9 114.9 530.6 115.8 C 530.3 116.6 529.8 117.4 529.2 118 C 528.6 118.7 527.9 119.3 527.1 119.8 C 526.3 120.3 525.6 120.8 525.1 121.4 C 524.6 122 524.2 122.7 524 123.5 C 523.8 124.2 523.6 125.2 523.6 126.4 C 523.63 126.4 523.6 126.6 523.6 126.6 L 520.2 126.6 Z M 522 135 C 521.3 135 520.7 134.7 520.2 134.2 C 519.7 133.7 519.5 133.1 519.5 132.4 C 519.5 131.7 519.7 131.1 520.2 130.6 C 520.7 130.1 521.3 129.9 522 129.9 C 522.7 129.9 523.3 130.1 523.8 130.6 C 524.3 131.1 524.6 131.7 524.6 132.4 C 524.6 132.9 524.5 133.3 524.2 133.7 C 524 134.1 523.7 134.4 523.3 134.6 C 522.9 134.9 522.5 135 522 135 Z " stroke="none" fill="#10283d"/>  </g>  <g id="Polygon111736">    <path d="M 3.5 86.8 L 3.5 57.7 L 6.9 57.7 L 6.9 68.4 C 6.9 68.4 7.16 68.4 7.2 68.4 C 7.4 68 7.7 67.5 8.2 66.9 C 8.6 66.4 9.3 65.8 10.1 65.4 C 10.9 64.9 12 64.6 13.5 64.6 C 15.3 64.6 16.9 65.1 18.3 66 C 19.7 66.9 20.8 68.2 21.6 69.9 C 22.4 71.6 22.8 73.6 22.8 75.9 C 22.8 78.2 22.4 80.2 21.6 81.9 C 20.8 83.6 19.7 84.9 18.3 85.8 C 16.9 86.7 15.3 87.2 13.5 87.2 C 12.1 87.2 11 87 10.2 86.5 C 9.3 86 8.7 85.5 8.2 84.9 C 7.8 84.3 7.4 83.8 7.2 83.4 C 7.16 83.4 6.8 83.4 6.8 83.4 L 6.8 86.8 L 3.5 86.8 Z M 6.8 75.8 C 6.8 77.5 7.1 78.9 7.5 80.2 C 8 81.4 8.7 82.4 9.7 83.1 C 10.6 83.8 11.7 84.2 13.1 84.2 C 14.5 84.2 15.6 83.8 16.6 83.1 C 17.5 82.3 18.2 81.3 18.7 80.1 C 19.2 78.8 19.4 77.4 19.4 75.8 C 19.4 74.3 19.2 72.9 18.7 71.7 C 18.3 70.5 17.6 69.5 16.6 68.7 C 15.7 68 14.5 67.7 13.1 67.7 C 11.7 67.7 10.6 68 9.6 68.7 C 8.7 69.4 8 70.3 7.5 71.6 C 7.1 72.8 6.8 74.2 6.8 75.8 Z M 41.4 77.8 C 41.41 77.83 41.4 64.9 41.4 64.9 L 44.8 64.9 L 44.8 86.8 L 41.4 86.8 L 41.4 83.1 C 41.4 83.1 41.18 83.06 41.2 83.1 C 40.7 84.2 39.9 85.1 38.8 85.9 C 37.7 86.6 36.4 87 34.7 87 C 33.3 87 32.1 86.7 31.1 86.1 C 30 85.5 29.2 84.6 28.6 83.4 C 28 82.2 27.7 80.7 27.7 78.8 C 27.66 78.8 27.7 64.9 27.7 64.9 L 31 64.9 C 31 64.9 31.01 78.57 31 78.6 C 31 80.2 31.5 81.4 32.4 82.4 C 33.2 83.3 34.4 83.8 35.8 83.8 C 36.6 83.8 37.5 83.6 38.3 83.2 C 39.2 82.7 39.9 82.1 40.5 81.2 C 41.1 80.3 41.4 79.2 41.4 77.8 Z M 66.1 69.8 C 66.1 69.8 63.1 70.7 63.1 70.7 C 62.9 70.2 62.6 69.7 62.3 69.2 C 61.9 68.7 61.4 68.3 60.8 68 C 60.2 67.7 59.4 67.5 58.4 67.5 C 57 67.5 55.9 67.9 55.1 68.5 C 54.2 69.1 53.7 69.8 53.7 70.8 C 53.7 71.6 54 72.3 54.6 72.8 C 55.2 73.2 56.2 73.6 57.5 74 C 57.5 74 60.7 74.8 60.7 74.8 C 62.7 75.2 64.1 76 65.1 76.9 C 66 77.9 66.5 79.1 66.5 80.7 C 66.5 81.9 66.2 83 65.4 84 C 64.7 85 63.7 85.8 62.4 86.4 C 61.2 86.9 59.7 87.2 58 87.2 C 55.8 87.2 53.9 86.7 52.5 85.8 C 51 84.8 50.1 83.4 49.7 81.5 C 49.7 81.5 52.9 80.7 52.9 80.7 C 53.2 81.9 53.7 82.8 54.6 83.4 C 55.4 84 56.6 84.3 57.9 84.3 C 59.5 84.3 60.7 83.9 61.7 83.2 C 62.6 82.6 63 81.8 63 80.8 C 63 80.1 62.8 79.4 62.2 78.9 C 61.7 78.4 60.9 78 59.8 77.8 C 59.8 77.8 56.2 76.9 56.2 76.9 C 54.2 76.4 52.7 75.7 51.8 74.7 C 50.8 73.7 50.4 72.5 50.4 71 C 50.4 69.7 50.7 68.6 51.4 67.7 C 52.1 66.7 53.1 66 54.3 65.5 C 55.5 64.9 56.8 64.6 58.4 64.6 C 60.5 64.6 62.2 65.1 63.5 66.1 C 64.7 67 65.6 68.3 66.1 69.8 Z M 71.4 86.8 L 71.4 64.9 L 74.7 64.9 L 74.7 86.8 L 71.4 86.8 Z M 73.1 61.3 C 72.4 61.3 71.9 61.1 71.4 60.6 C 70.9 60.2 70.7 59.6 70.7 59 C 70.7 58.4 70.9 57.9 71.4 57.4 C 71.9 57 72.4 56.8 73.1 56.8 C 73.8 56.8 74.3 57 74.8 57.4 C 75.3 57.9 75.5 58.4 75.5 59 C 75.5 59.6 75.3 60.2 74.8 60.6 C 74.3 61.1 73.8 61.3 73.1 61.3 Z M 84.2 73.6 C 84.18 73.63 84.2 86.8 84.2 86.8 L 80.8 86.8 L 80.8 64.9 L 84.1 64.9 L 84.1 68.3 C 84.1 68.3 84.35 68.34 84.4 68.3 C 84.9 67.2 85.6 66.3 86.7 65.7 C 87.7 65 89.1 64.6 90.7 64.6 C 92.2 64.6 93.5 64.9 94.6 65.5 C 95.7 66.2 96.6 67.1 97.2 68.3 C 97.8 69.5 98.1 71 98.1 72.9 C 98.1 72.89 98.1 86.8 98.1 86.8 L 94.7 86.8 C 94.7 86.8 94.75 73.11 94.7 73.1 C 94.7 71.4 94.3 70.1 93.4 69.1 C 92.5 68.1 91.3 67.7 89.7 67.7 C 88.7 67.7 87.7 67.9 86.9 68.4 C 86 68.8 85.4 69.5 84.9 70.4 C 84.4 71.3 84.2 72.4 84.2 73.6 Z M 113.1 87.2 C 111 87.2 109.2 86.7 107.7 85.8 C 106.2 84.9 105 83.6 104.2 81.9 C 103.4 80.2 103 78.2 103 76 C 103 73.8 103.4 71.8 104.2 70.1 C 105 68.4 106.2 67.1 107.6 66.1 C 109.1 65.1 110.8 64.6 112.8 64.6 C 113.9 64.6 115.1 64.8 116.2 65.2 C 117.3 65.6 118.3 66.2 119.2 67.1 C 120.1 67.9 120.8 69 121.4 70.4 C 121.9 71.8 122.2 73.5 122.2 75.6 C 122.18 75.56 122.2 77 122.2 77 L 105.4 77 L 105.4 74.1 C 105.4 74.1 118.77 74.08 118.8 74.1 C 118.8 72.8 118.5 71.8 118 70.8 C 117.6 69.8 116.9 69.1 116 68.5 C 115.1 67.9 114 67.7 112.8 67.7 C 111.5 67.7 110.3 68 109.3 68.6 C 108.4 69.3 107.6 70.2 107.1 71.2 C 106.6 72.3 106.3 73.4 106.3 74.6 C 106.3 74.6 106.3 76.5 106.3 76.5 C 106.3 78.2 106.6 79.6 107.2 80.7 C 107.8 81.8 108.6 82.7 109.6 83.3 C 110.6 83.9 111.8 84.2 113.1 84.2 C 114 84.2 114.8 84.1 115.5 83.8 C 116.3 83.6 116.9 83.2 117.4 82.7 C 117.9 82.2 118.3 81.5 118.6 80.8 C 118.6 80.8 121.8 81.7 121.8 81.7 C 121.5 82.8 120.9 83.8 120.1 84.6 C 119.3 85.4 118.3 86.1 117.1 86.5 C 116 87 114.6 87.2 113.1 87.2 Z M 142.4 69.8 C 142.4 69.8 139.4 70.7 139.4 70.7 C 139.2 70.2 138.9 69.7 138.5 69.2 C 138.2 68.7 137.7 68.3 137.1 68 C 136.4 67.7 135.6 67.5 134.7 67.5 C 133.3 67.5 132.2 67.9 131.3 68.5 C 130.4 69.1 130 69.8 130 70.8 C 130 71.6 130.3 72.3 130.9 72.8 C 131.5 73.2 132.5 73.6 133.7 74 C 133.7 74 137 74.8 137 74.8 C 138.9 75.2 140.4 76 141.3 76.9 C 142.3 77.9 142.8 79.1 142.8 80.7 C 142.8 81.9 142.4 83 141.7 84 C 141 85 140 85.8 138.7 86.4 C 137.4 86.9 135.9 87.2 134.3 87.2 C 132 87.2 130.2 86.7 128.7 85.8 C 127.3 84.8 126.3 83.4 126 81.5 C 126 81.5 129.1 80.7 129.1 80.7 C 129.4 81.9 130 82.8 130.9 83.4 C 131.7 84 132.8 84.3 134.2 84.3 C 135.8 84.3 137 83.9 137.9 83.2 C 138.8 82.6 139.3 81.8 139.3 80.8 C 139.3 80.1 139 79.4 138.5 78.9 C 138 78.4 137.2 78 136.1 77.8 C 136.1 77.8 132.4 76.9 132.4 76.9 C 130.4 76.4 129 75.7 128 74.7 C 127.1 73.7 126.6 72.5 126.6 71 C 126.6 69.7 127 68.6 127.7 67.7 C 128.4 66.7 129.3 66 130.5 65.5 C 131.7 64.9 133.1 64.6 134.7 64.6 C 136.8 64.6 138.5 65.1 139.7 66.1 C 141 67 141.9 68.3 142.4 69.8 Z M 163 69.8 C 163 69.8 160 70.7 160 70.7 C 159.8 70.2 159.6 69.7 159.2 69.2 C 158.8 68.7 158.3 68.3 157.7 68 C 157.1 67.7 156.3 67.5 155.3 67.5 C 154 67.5 152.9 67.9 152 68.5 C 151.1 69.1 150.7 69.8 150.7 70.8 C 150.7 71.6 151 72.3 151.6 72.8 C 152.2 73.2 153.1 73.6 154.4 74 C 154.4 74 157.6 74.8 157.6 74.8 C 159.6 75.2 161.1 76 162 76.9 C 163 77.9 163.4 79.1 163.4 80.7 C 163.4 81.9 163.1 83 162.4 84 C 161.7 85 160.7 85.8 159.4 86.4 C 158.1 86.9 156.6 87.2 154.9 87.2 C 152.7 87.2 150.9 86.7 149.4 85.8 C 147.9 84.8 147 83.4 146.6 81.5 C 146.6 81.5 149.8 80.7 149.8 80.7 C 150.1 81.9 150.7 82.8 151.5 83.4 C 152.4 84 153.5 84.3 154.9 84.3 C 156.4 84.3 157.7 83.9 158.6 83.2 C 159.5 82.6 160 81.8 160 80.8 C 160 80.1 159.7 79.4 159.2 78.9 C 158.7 78.4 157.8 78 156.7 77.8 C 156.7 77.8 153.1 76.9 153.1 76.9 C 151.1 76.4 149.6 75.7 148.7 74.7 C 147.8 73.7 147.3 72.5 147.3 71 C 147.3 69.7 147.7 68.6 148.4 67.7 C 149 66.7 150 66 151.2 65.5 C 152.4 64.9 153.8 64.6 155.3 64.6 C 157.5 64.6 159.2 65.1 160.4 66.1 C 161.6 67 162.5 68.3 163 69.8 Z M 197.6 64.9 L 189.5 86.8 L 186.1 86.8 L 178 64.9 L 181.7 64.9 L 187.7 82.3 L 187.9 82.3 L 194 64.9 L 197.6 64.9 Z M 207.3 87.3 C 205.9 87.3 204.6 87 203.5 86.5 C 202.4 85.9 201.5 85.2 200.8 84.2 C 200.2 83.2 199.8 82 199.8 80.6 C 199.8 79.3 200.1 78.3 200.6 77.5 C 201.1 76.7 201.7 76.1 202.5 75.7 C 203.4 75.2 204.3 74.9 205.3 74.7 C 206.3 74.4 207.3 74.3 208.3 74.1 C 209.6 74 210.7 73.8 211.5 73.7 C 212.4 73.7 213 73.5 213.3 73.3 C 213.7 73.1 213.9 72.7 213.9 72.1 C 213.9 72.1 213.9 72 213.9 72 C 213.9 70.6 213.5 69.5 212.8 68.8 C 212 68 210.9 67.6 209.3 67.6 C 207.7 67.6 206.5 68 205.6 68.7 C 204.6 69.4 204 70.1 203.6 70.9 C 203.6 70.9 200.5 69.8 200.5 69.8 C 201 68.4 201.8 67.4 202.7 66.7 C 203.7 65.9 204.7 65.4 205.9 65.1 C 207 64.8 208.1 64.6 209.2 64.6 C 209.9 64.6 210.7 64.7 211.6 64.9 C 212.5 65.1 213.4 65.4 214.3 65.9 C 215.1 66.4 215.9 67.2 216.4 68.2 C 217 69.3 217.3 70.6 217.3 72.4 C 217.27 72.38 217.3 86.8 217.3 86.8 L 213.9 86.8 L 213.9 83.8 C 213.9 83.8 213.75 83.8 213.8 83.8 C 213.5 84.3 213.1 84.8 212.6 85.3 C 212.1 85.9 211.4 86.3 210.5 86.7 C 209.6 87.1 208.5 87.3 207.3 87.3 Z M 207.8 84.3 C 209.1 84.3 210.2 84 211.1 83.5 C 212.1 82.9 212.7 82.3 213.2 81.5 C 213.7 80.6 213.9 79.8 213.9 78.9 C 213.9 78.9 213.9 75.8 213.9 75.8 C 213.8 76 213.5 76.1 213 76.2 C 212.5 76.4 212 76.5 211.3 76.6 C 210.7 76.7 210.1 76.8 209.5 76.9 C 209 76.9 208.5 77 208.1 77 C 207.3 77.1 206.4 77.3 205.7 77.6 C 204.9 77.8 204.3 78.2 203.9 78.7 C 203.4 79.2 203.2 79.9 203.2 80.7 C 203.2 81.9 203.6 82.8 204.5 83.4 C 205.3 84 206.4 84.3 207.8 84.3 Z M 226.7 57.7 L 226.7 86.8 L 223.4 86.8 L 223.4 57.7 L 226.7 57.7 Z M 246.5 77.8 C 246.53 77.83 246.5 64.9 246.5 64.9 L 249.9 64.9 L 249.9 86.8 L 246.5 86.8 L 246.5 83.1 C 246.5 83.1 246.3 83.06 246.3 83.1 C 245.8 84.2 245 85.1 243.9 85.9 C 242.8 86.6 241.5 87 239.8 87 C 238.5 87 237.2 86.7 236.2 86.1 C 235.1 85.5 234.3 84.6 233.7 83.4 C 233.1 82.2 232.8 80.7 232.8 78.8 C 232.78 78.8 232.8 64.9 232.8 64.9 L 236.1 64.9 C 236.1 64.9 236.13 78.57 236.1 78.6 C 236.1 80.2 236.6 81.4 237.5 82.4 C 238.4 83.3 239.5 83.8 240.9 83.8 C 241.7 83.8 242.6 83.6 243.5 83.2 C 244.3 82.7 245 82.1 245.6 81.2 C 246.2 80.3 246.5 79.2 246.5 77.8 Z M 265 87.2 C 262.9 87.2 261.1 86.7 259.6 85.8 C 258.1 84.9 256.9 83.6 256.1 81.9 C 255.3 80.2 254.9 78.2 254.9 76 C 254.9 73.8 255.3 71.8 256.1 70.1 C 256.9 68.4 258 67.1 259.5 66.1 C 261 65.1 262.7 64.6 264.7 64.6 C 265.8 64.6 266.9 64.8 268.1 65.2 C 269.2 65.6 270.2 66.2 271.1 67.1 C 272 67.9 272.7 69 273.2 70.4 C 273.8 71.8 274.1 73.5 274.1 75.6 C 274.06 75.56 274.1 77 274.1 77 L 257.2 77 L 257.2 74.1 C 257.2 74.1 270.65 74.08 270.6 74.1 C 270.6 72.8 270.4 71.8 269.9 70.8 C 269.4 69.8 268.7 69.1 267.8 68.5 C 266.9 67.9 265.9 67.7 264.7 67.7 C 263.3 67.7 262.2 68 261.2 68.6 C 260.3 69.3 259.5 70.2 259 71.2 C 258.5 72.3 258.2 73.4 258.2 74.6 C 258.2 74.6 258.2 76.5 258.2 76.5 C 258.2 78.2 258.5 79.6 259.1 80.7 C 259.6 81.8 260.4 82.7 261.5 83.3 C 262.5 83.9 263.7 84.2 265 84.2 C 265.9 84.2 266.7 84.1 267.4 83.8 C 268.1 83.6 268.8 83.2 269.3 82.7 C 269.8 82.2 270.2 81.5 270.5 80.8 C 270.5 80.8 273.7 81.7 273.7 81.7 C 273.4 82.8 272.8 83.8 272 84.6 C 271.2 85.4 270.2 86.1 269 86.5 C 267.8 87 266.5 87.2 265 87.2 Z M 281.1 87 C 280.4 87 279.8 86.7 279.3 86.2 C 278.8 85.7 278.5 85.1 278.5 84.4 C 278.5 83.7 278.8 83.1 279.3 82.6 C 279.8 82.1 280.4 81.9 281.1 81.9 C 281.8 81.9 282.4 82.1 282.9 82.6 C 283.4 83.1 283.6 83.7 283.6 84.4 C 283.6 84.9 283.5 85.3 283.3 85.7 C 283.1 86.1 282.7 86.4 282.4 86.6 C 282 86.9 281.6 87 281.1 87 Z M 317.3 64.9 C 317.1 63.5 316.4 62.4 315.2 61.6 C 314 60.8 312.5 60.4 310.7 60.4 C 309.5 60.4 308.3 60.6 307.4 61 C 306.4 61.4 305.7 62 305.1 62.7 C 304.6 63.5 304.3 64.3 304.3 65.2 C 304.3 66 304.5 66.7 304.9 67.2 C 305.3 67.8 305.7 68.2 306.3 68.6 C 306.9 69 307.5 69.3 308.2 69.5 C 308.8 69.7 309.4 69.9 309.9 70 C 309.9 70 312.9 70.8 312.9 70.8 C 313.7 71 314.5 71.3 315.4 71.7 C 316.4 72 317.3 72.5 318.1 73.1 C 319 73.7 319.7 74.5 320.2 75.4 C 320.8 76.3 321.1 77.5 321.1 78.9 C 321.1 80.4 320.7 81.8 319.9 83.1 C 319 84.4 317.8 85.4 316.3 86.1 C 314.7 86.9 312.8 87.3 310.6 87.3 C 308.5 87.3 306.7 86.9 305.2 86.3 C 303.6 85.6 302.4 84.6 301.6 83.4 C 300.7 82.2 300.2 80.8 300.1 79.3 C 300.1 79.3 303.7 79.3 303.7 79.3 C 303.8 80.3 304.2 81.3 304.9 82 C 305.5 82.7 306.3 83.2 307.3 83.6 C 308.3 83.9 309.4 84.1 310.6 84.1 C 311.9 84.1 313.1 83.9 314.2 83.4 C 315.3 83 316.1 82.4 316.7 81.6 C 317.4 80.8 317.7 79.9 317.7 78.8 C 317.7 77.8 317.4 77 316.9 76.4 C 316.3 75.8 315.6 75.3 314.7 75 C 313.8 74.6 312.9 74.3 311.9 74 C 311.9 74 308.3 72.9 308.3 72.9 C 306 72.3 304.2 71.4 302.9 70.1 C 301.6 68.9 300.9 67.3 300.9 65.4 C 300.9 63.8 301.4 62.3 302.2 61.1 C 303.1 59.9 304.3 59 305.8 58.3 C 307.3 57.6 309 57.3 310.9 57.3 C 312.7 57.3 314.4 57.6 315.9 58.3 C 317.3 58.9 318.5 59.8 319.3 61 C 320.2 62.2 320.6 63.5 320.7 64.9 C 320.7 64.9 317.3 64.9 317.3 64.9 Z M 335.1 87.2 C 333.2 87.2 331.5 86.7 330 85.8 C 328.5 84.9 327.3 83.5 326.5 81.9 C 325.7 80.2 325.3 78.2 325.3 76 C 325.3 73.7 325.7 71.7 326.5 70 C 327.3 68.3 328.5 67 330 66.1 C 331.5 65.1 333.2 64.6 335.1 64.6 C 337.1 64.6 338.8 65.1 340.3 66.1 C 341.8 67 343 68.3 343.8 70 C 344.6 71.7 345 73.7 345 76 C 345 78.2 344.6 80.2 343.8 81.9 C 343 83.5 341.8 84.9 340.3 85.8 C 338.8 86.7 337.1 87.2 335.1 87.2 Z M 335.1 84.2 C 336.6 84.2 337.9 83.8 338.8 83 C 339.8 82.3 340.5 81.3 341 80 C 341.4 78.8 341.7 77.4 341.7 76 C 341.7 74.5 341.4 73.1 341 71.9 C 340.5 70.6 339.8 69.6 338.8 68.8 C 337.9 68 336.6 67.7 335.1 67.7 C 333.7 67.7 332.4 68 331.5 68.8 C 330.5 69.6 329.8 70.6 329.3 71.9 C 328.8 73.1 328.6 74.5 328.6 76 C 328.6 77.4 328.8 78.8 329.3 80 C 329.8 81.3 330.5 82.3 331.5 83 C 332.4 83.8 333.7 84.2 335.1 84.2 Z M 353.6 82.8 C 353.6 82.8 353.38 84.31 353.4 84.3 C 353.2 85.4 353 86.5 352.6 87.8 C 352.3 89 352 90.2 351.6 91.3 C 351.3 92.3 351 93.2 350.8 93.9 C 350.8 93.9 348.2 93.9 348.2 93.9 C 348.3 93.2 348.5 92.4 348.7 91.5 C 348.9 90.5 349.1 89.3 349.3 88.1 C 349.5 86.9 349.7 85.6 349.8 84.4 C 349.8 84.36 350 82.8 350 82.8 L 353.6 82.8 Z M 376 86.8 L 369.3 64.9 L 372.9 64.9 L 377.6 81.6 L 377.8 81.6 L 382.5 64.9 L 386 64.9 L 390.6 81.6 L 390.9 81.6 L 395.6 64.9 L 399.1 64.9 L 392.5 86.8 L 389.2 86.8 L 384.4 70 L 384.1 70 L 379.3 86.8 L 376 86.8 Z M 406.5 73.6 C 406.48 73.63 406.5 86.8 406.5 86.8 L 403.1 86.8 L 403.1 57.7 L 406.5 57.7 L 406.5 68.3 C 406.5 68.3 406.76 68.34 406.8 68.3 C 407.3 67.2 408 66.3 409.1 65.6 C 410.1 65 411.5 64.6 413.2 64.6 C 414.7 64.6 416 64.9 417.1 65.5 C 418.2 66.1 419.1 67 419.7 68.2 C 420.3 69.5 420.6 71 420.6 72.9 C 420.63 72.89 420.6 86.8 420.6 86.8 L 417.3 86.8 C 417.3 86.8 417.27 73.11 417.3 73.1 C 417.3 71.4 416.8 70 415.9 69.1 C 415 68.1 413.8 67.7 412.2 67.7 C 411.1 67.7 410.1 67.9 409.3 68.4 C 408.4 68.8 407.7 69.5 407.2 70.4 C 406.7 71.3 406.5 72.4 406.5 73.6 Z M 432.9 87.3 C 431.6 87.3 430.3 87 429.2 86.5 C 428.1 85.9 427.2 85.2 426.5 84.2 C 425.8 83.2 425.5 82 425.5 80.6 C 425.5 79.3 425.7 78.3 426.2 77.5 C 426.7 76.7 427.4 76.1 428.2 75.7 C 429 75.2 429.9 74.9 430.9 74.7 C 431.9 74.4 433 74.3 434 74.1 C 435.3 74 436.4 73.8 437.2 73.7 C 438 73.7 438.6 73.5 439 73.3 C 439.4 73.1 439.6 72.7 439.6 72.1 C 439.6 72.1 439.6 72 439.6 72 C 439.6 70.6 439.2 69.5 438.4 68.8 C 437.7 68 436.5 67.6 435 67.6 C 433.4 67.6 432.1 68 431.2 68.7 C 430.3 69.4 429.7 70.1 429.3 70.9 C 429.3 70.9 426.1 69.8 426.1 69.8 C 426.7 68.4 427.5 67.4 428.4 66.7 C 429.4 65.9 430.4 65.4 431.5 65.1 C 432.7 64.8 433.8 64.6 434.9 64.6 C 435.6 64.6 436.4 64.7 437.3 64.9 C 438.2 65.1 439.1 65.4 440 65.9 C 440.8 66.4 441.5 67.2 442.1 68.2 C 442.7 69.3 442.9 70.6 442.9 72.4 C 442.94 72.38 442.9 86.8 442.9 86.8 L 439.6 86.8 L 439.6 83.8 C 439.6 83.8 439.42 83.8 439.4 83.8 C 439.2 84.3 438.8 84.8 438.3 85.3 C 437.8 85.9 437 86.3 436.2 86.7 C 435.3 87.1 434.2 87.3 432.9 87.3 Z M 433.5 84.3 C 434.8 84.3 435.9 84 436.8 83.5 C 437.7 82.9 438.4 82.3 438.9 81.5 C 439.4 80.6 439.6 79.8 439.6 78.9 C 439.6 78.9 439.6 75.8 439.6 75.8 C 439.4 76 439.1 76.1 438.7 76.2 C 438.2 76.4 437.6 76.5 437 76.6 C 436.4 76.7 435.8 76.8 435.2 76.9 C 434.6 76.9 434.2 77 433.8 77 C 432.9 77.1 432.1 77.3 431.4 77.6 C 430.6 77.8 430 78.2 429.5 78.7 C 429.1 79.2 428.9 79.9 428.9 80.7 C 428.9 81.9 429.3 82.8 430.2 83.4 C 431 84 432.1 84.3 433.5 84.3 Z M 458 64.9 L 458 67.8 L 446.7 67.8 L 446.7 64.9 L 458 64.9 Z M 450 59.7 L 453.4 59.7 C 453.4 59.7 453.36 80.5 453.4 80.5 C 453.4 81.4 453.5 82.2 453.8 82.6 C 454.1 83.1 454.4 83.4 454.9 83.6 C 455.3 83.7 455.8 83.8 456.3 83.8 C 456.6 83.8 456.9 83.8 457.2 83.7 C 457.4 83.7 457.6 83.7 457.7 83.6 C 457.7 83.6 458.4 86.6 458.4 86.6 C 458.2 86.7 457.9 86.8 457.5 86.9 C 457.1 87 456.5 87 455.9 87 C 455 87 454 86.8 453.1 86.4 C 452.2 86 451.5 85.4 450.9 84.6 C 450.3 83.7 450 82.7 450 81.4 C 450.01 81.41 450 59.7 450 59.7 Z M 466.9 57.7 C 466.9 57.7 466.87 60.22 466.9 60.2 C 466.9 61 466.7 61.8 466.4 62.7 C 466.2 63.6 465.8 64.4 465.2 65.2 C 464.7 66.1 464 66.8 463.3 67.4 C 463.3 67.4 461.5 65.9 461.5 65.9 C 462.1 65 462.6 64.2 463 63.2 C 463.5 62.3 463.7 61.3 463.7 60.3 C 463.68 60.27 463.7 57.7 463.7 57.7 L 466.9 57.7 Z M 485.1 69.8 C 485.1 69.8 482.1 70.7 482.1 70.7 C 481.9 70.2 481.6 69.7 481.3 69.2 C 480.9 68.7 480.4 68.3 479.8 68 C 479.2 67.7 478.4 67.5 477.4 67.5 C 476.1 67.5 475 67.9 474.1 68.5 C 473.2 69.1 472.7 69.8 472.7 70.8 C 472.7 71.6 473 72.3 473.6 72.8 C 474.3 73.2 475.2 73.6 476.5 74 C 476.5 74 479.7 74.8 479.7 74.8 C 481.7 75.2 483.1 76 484.1 76.9 C 485 77.9 485.5 79.1 485.5 80.7 C 485.5 81.9 485.2 83 484.4 84 C 483.7 85 482.7 85.8 481.5 86.4 C 480.2 86.9 478.7 87.2 477 87.2 C 474.8 87.2 472.9 86.7 471.5 85.8 C 470 84.8 469.1 83.4 468.7 81.5 C 468.7 81.5 471.9 80.7 471.9 80.7 C 472.2 81.9 472.8 82.8 473.6 83.4 C 474.5 84 475.6 84.3 476.9 84.3 C 478.5 84.3 479.7 83.9 480.7 83.2 C 481.6 82.6 482.1 81.8 482.1 80.8 C 482.1 80.1 481.8 79.4 481.3 78.9 C 480.7 78.4 479.9 78 478.8 77.8 C 478.8 77.8 475.2 76.9 475.2 76.9 C 473.2 76.4 471.7 75.7 470.8 74.7 C 469.9 73.7 469.4 72.5 469.4 71 C 469.4 69.7 469.7 68.6 470.4 67.7 C 471.1 66.7 472.1 66 473.3 65.5 C 474.5 64.9 475.9 64.6 477.4 64.6 C 479.6 64.6 481.3 65.1 482.5 66.1 C 483.7 67 484.6 68.3 485.1 69.8 Z M 502.3 86.8 L 502.3 57.7 L 505.6 57.7 L 505.6 68.4 C 505.6 68.4 505.92 68.4 505.9 68.4 C 506.2 68 506.5 67.5 506.9 66.9 C 507.4 66.4 508 65.8 508.9 65.4 C 509.7 64.9 510.8 64.6 512.2 64.6 C 514.1 64.6 515.7 65.1 517.1 66 C 518.5 66.9 519.6 68.2 520.4 69.9 C 521.2 71.6 521.5 73.6 521.5 75.9 C 521.5 78.2 521.2 80.2 520.4 81.9 C 519.6 83.6 518.5 84.9 517.1 85.8 C 515.7 86.7 514.1 87.2 512.3 87.2 C 510.9 87.2 509.8 87 508.9 86.5 C 508.1 86 507.4 85.5 507 84.9 C 506.5 84.3 506.2 83.8 505.9 83.4 C 505.92 83.4 505.5 83.4 505.5 83.4 L 505.5 86.8 L 502.3 86.8 Z M 505.6 75.8 C 505.6 77.5 505.8 78.9 506.3 80.2 C 506.8 81.4 507.5 82.4 508.4 83.1 C 509.3 83.8 510.5 84.2 511.8 84.2 C 513.2 84.2 514.4 83.8 515.3 83.1 C 516.3 82.3 517 81.3 517.5 80.1 C 518 78.8 518.2 77.4 518.2 75.8 C 518.2 74.3 518 72.9 517.5 71.7 C 517 70.5 516.3 69.5 515.4 68.7 C 514.4 68 513.2 67.7 511.8 67.7 C 510.5 67.7 509.3 68 508.4 68.7 C 507.5 69.4 506.8 70.3 506.3 71.6 C 505.8 72.8 505.6 74.2 505.6 75.8 Z M 535.5 87.2 C 533.4 87.2 531.6 86.7 530.1 85.8 C 528.6 84.9 527.4 83.6 526.6 81.9 C 525.8 80.2 525.4 78.2 525.4 76 C 525.4 73.8 525.8 71.8 526.6 70.1 C 527.4 68.4 528.5 67.1 530 66.1 C 531.5 65.1 533.2 64.6 535.2 64.6 C 536.3 64.6 537.4 64.8 538.6 65.2 C 539.7 65.6 540.7 66.2 541.6 67.1 C 542.5 67.9 543.2 69 543.7 70.4 C 544.3 71.8 544.6 73.5 544.6 75.6 C 544.56 75.56 544.6 77 544.6 77 L 527.7 77 L 527.7 74.1 C 527.7 74.1 541.15 74.08 541.2 74.1 C 541.2 72.8 540.9 71.8 540.4 70.8 C 539.9 69.8 539.2 69.1 538.3 68.5 C 537.4 67.9 536.4 67.7 535.2 67.7 C 533.8 67.7 532.7 68 531.7 68.6 C 530.8 69.3 530 70.2 529.5 71.2 C 529 72.3 528.7 73.4 528.7 74.6 C 528.7 74.6 528.7 76.5 528.7 76.5 C 528.7 78.2 529 79.6 529.6 80.7 C 530.1 81.8 530.9 82.7 532 83.3 C 533 83.9 534.2 84.2 535.5 84.2 C 536.4 84.2 537.2 84.1 537.9 83.8 C 538.6 83.6 539.3 83.2 539.8 82.7 C 540.3 82.2 540.7 81.5 541 80.8 C 541 80.8 544.2 81.7 544.2 81.7 C 543.9 82.8 543.3 83.8 542.5 84.6 C 541.7 85.4 540.7 86.1 539.5 86.5 C 538.3 87 537 87.2 535.5 87.2 Z M 553 73.6 C 552.95 73.63 553 86.8 553 86.8 L 549.6 86.8 L 549.6 57.7 L 553 57.7 L 553 68.3 C 553 68.3 553.24 68.34 553.2 68.3 C 553.7 67.2 554.5 66.3 555.5 65.6 C 556.6 65 557.9 64.6 559.7 64.6 C 561.1 64.6 562.4 64.9 563.6 65.5 C 564.7 66.1 565.5 67 566.2 68.2 C 566.8 69.5 567.1 71 567.1 72.9 C 567.1 72.89 567.1 86.8 567.1 86.8 L 563.7 86.8 C 563.7 86.8 563.75 73.11 563.7 73.1 C 563.7 71.4 563.3 70 562.4 69.1 C 561.5 68.1 560.3 67.7 558.7 67.7 C 557.6 67.7 556.6 67.9 555.7 68.4 C 554.9 68.8 554.2 69.5 553.7 70.4 C 553.2 71.3 553 72.4 553 73.6 Z M 573.1 86.8 L 573.1 64.9 L 576.4 64.9 L 576.4 86.8 L 573.1 86.8 Z M 574.8 61.3 C 574.1 61.3 573.6 61.1 573.1 60.6 C 572.6 60.2 572.4 59.6 572.4 59 C 572.4 58.4 572.6 57.9 573.1 57.4 C 573.6 57 574.1 56.8 574.8 56.8 C 575.4 56.8 576 57 576.5 57.4 C 576.9 57.9 577.2 58.4 577.2 59 C 577.2 59.6 576.9 60.2 576.5 60.6 C 576 61.1 575.4 61.3 574.8 61.3 Z M 585.9 73.6 C 585.86 73.63 585.9 86.8 585.9 86.8 L 582.5 86.8 L 582.5 64.9 L 585.7 64.9 L 585.7 68.3 C 585.7 68.3 586.03 68.34 586 68.3 C 586.5 67.2 587.3 66.3 588.4 65.7 C 589.4 65 590.7 64.6 592.4 64.6 C 593.9 64.6 595.2 64.9 596.3 65.5 C 597.4 66.2 598.2 67.1 598.9 68.3 C 599.5 69.5 599.8 71 599.8 72.9 C 599.78 72.89 599.8 86.8 599.8 86.8 L 596.4 86.8 C 596.4 86.8 596.43 73.11 596.4 73.1 C 596.4 71.4 596 70.1 595.1 69.1 C 594.2 68.1 593 67.7 591.4 67.7 C 590.4 67.7 589.4 67.9 588.6 68.4 C 587.7 68.8 587.1 69.5 586.6 70.4 C 586.1 71.3 585.9 72.4 585.9 73.6 Z M 613.9 87.2 C 612.1 87.2 610.5 86.7 609.1 85.8 C 607.7 84.9 606.7 83.6 605.9 81.9 C 605.1 80.2 604.7 78.2 604.7 75.9 C 604.7 73.6 605.1 71.6 605.9 69.9 C 606.7 68.2 607.7 66.9 609.1 66 C 610.5 65.1 612.2 64.6 614 64.6 C 615.4 64.6 616.6 64.9 617.4 65.4 C 618.2 65.8 618.8 66.4 619.3 66.9 C 619.7 67.5 620.1 68 620.3 68.4 C 620.31 68.4 620.6 68.4 620.6 68.4 L 620.6 57.7 L 623.9 57.7 L 623.9 86.8 L 620.7 86.8 L 620.7 83.4 C 620.7 83.4 620.31 83.4 620.3 83.4 C 620.1 83.8 619.7 84.3 619.3 84.9 C 618.8 85.5 618.2 86 617.3 86.5 C 616.5 87 615.3 87.2 613.9 87.2 Z M 614.4 84.2 C 615.7 84.2 616.9 83.8 617.8 83.1 C 618.7 82.4 619.4 81.4 619.9 80.2 C 620.4 78.9 620.7 77.5 620.7 75.8 C 620.7 74.2 620.4 72.8 619.9 71.6 C 619.5 70.3 618.8 69.4 617.8 68.7 C 616.9 68 615.8 67.7 614.4 67.7 C 613 67.7 611.8 68 610.9 68.7 C 609.9 69.5 609.2 70.5 608.7 71.7 C 608.3 72.9 608 74.3 608 75.8 C 608 77.4 608.3 78.8 608.8 80.1 C 609.2 81.3 609.9 82.3 610.9 83.1 C 611.8 83.8 613 84.2 614.4 84.2 Z " stroke="none" fill="#10283d"/>  </g>  <g id="Polygon111735">    <path d="M 3.5 9.7 L 7.7 9.7 L 17.6 33.8 L 18 33.8 L 27.8 9.7 L 32 9.7 L 32 38.8 L 28.8 38.8 L 28.8 16.6 L 28.5 16.6 L 19.4 38.8 L 16.2 38.8 L 7.1 16.6 L 6.8 16.6 L 6.8 38.8 L 3.5 38.8 L 3.5 9.7 Z M 47.6 39.2 C 45.6 39.2 43.9 38.7 42.4 37.8 C 40.9 36.9 39.7 35.5 38.9 33.9 C 38.1 32.2 37.7 30.2 37.7 28 C 37.7 25.7 38.1 23.7 38.9 22 C 39.7 20.3 40.9 19 42.4 18.1 C 43.9 17.1 45.6 16.6 47.6 16.6 C 49.5 16.6 51.3 17.1 52.7 18.1 C 54.2 19 55.4 20.3 56.2 22 C 57 23.7 57.4 25.7 57.4 28 C 57.4 30.2 57 32.2 56.2 33.9 C 55.4 35.5 54.2 36.9 52.7 37.8 C 51.3 38.7 49.5 39.2 47.6 39.2 Z M 47.6 36.2 C 49.1 36.2 50.3 35.8 51.3 35 C 52.2 34.3 52.9 33.3 53.4 32 C 53.9 30.8 54.1 29.4 54.1 28 C 54.1 26.5 53.9 25.1 53.4 23.9 C 52.9 22.6 52.2 21.6 51.3 20.8 C 50.3 20 49.1 19.7 47.6 19.7 C 46.1 19.7 44.8 20 43.9 20.8 C 42.9 21.6 42.2 22.6 41.7 23.9 C 41.3 25.1 41 26.5 41 28 C 41 29.4 41.3 30.8 41.7 32 C 42.2 33.3 42.9 34.3 43.9 35 C 44.8 35.8 46.1 36.2 47.6 36.2 Z M 77.5 21.8 C 77.5 21.8 74.5 22.7 74.5 22.7 C 74.3 22.2 74 21.7 73.7 21.2 C 73.3 20.7 72.8 20.3 72.2 20 C 71.6 19.7 70.7 19.5 69.8 19.5 C 68.4 19.5 67.3 19.9 66.4 20.5 C 65.6 21.1 65.1 21.8 65.1 22.8 C 65.1 23.6 65.4 24.3 66 24.8 C 66.6 25.2 67.6 25.6 68.9 26 C 68.9 26 72.1 26.8 72.1 26.8 C 74.1 27.2 75.5 28 76.5 28.9 C 77.4 29.9 77.9 31.1 77.9 32.7 C 77.9 33.9 77.5 35 76.8 36 C 76.1 37 75.1 37.8 73.8 38.4 C 72.6 38.9 71.1 39.2 69.4 39.2 C 67.2 39.2 65.3 38.7 63.9 37.8 C 62.4 36.8 61.5 35.4 61.1 33.5 C 61.1 33.5 64.3 32.7 64.3 32.7 C 64.6 33.9 65.1 34.8 66 35.4 C 66.8 36 67.9 36.3 69.3 36.3 C 70.9 36.3 72.1 35.9 73 35.2 C 74 34.6 74.4 33.8 74.4 32.8 C 74.4 32.1 74.2 31.4 73.6 30.9 C 73.1 30.4 72.3 30 71.2 29.8 C 71.2 29.8 67.6 28.9 67.6 28.9 C 65.6 28.4 64.1 27.7 63.2 26.7 C 62.2 25.7 61.8 24.5 61.8 23 C 61.8 21.7 62.1 20.6 62.8 19.7 C 63.5 18.7 64.5 18 65.7 17.5 C 66.9 16.9 68.2 16.6 69.8 16.6 C 71.9 16.6 73.6 17.1 74.9 18.1 C 76.1 19 77 20.3 77.5 21.8 Z M 92.1 16.9 L 92.1 19.8 L 80.8 19.8 L 80.8 16.9 L 92.1 16.9 Z M 84.1 11.7 L 87.4 11.7 C 87.4 11.7 87.44 32.5 87.4 32.5 C 87.4 33.4 87.6 34.2 87.9 34.6 C 88.1 35.1 88.5 35.4 88.9 35.6 C 89.4 35.7 89.8 35.8 90.3 35.8 C 90.7 35.8 91 35.8 91.2 35.7 C 91.5 35.7 91.7 35.7 91.8 35.6 C 91.8 35.6 92.5 38.6 92.5 38.6 C 92.3 38.7 92 38.8 91.5 38.9 C 91.1 39 90.6 39 90 39 C 89.1 39 88.1 38.8 87.2 38.4 C 86.3 38 85.6 37.4 85 36.6 C 84.4 35.7 84.1 34.7 84.1 33.4 C 84.09 33.41 84.1 11.7 84.1 11.7 Z M 110.1 38.8 L 106.4 38.8 L 117 9.7 L 120.7 9.7 L 131.4 38.8 L 127.7 38.8 L 119 14.3 L 118.7 14.3 L 110.1 38.8 Z M 111.4 27.4 L 126.3 27.4 L 126.3 30.5 L 111.4 30.5 L 111.4 27.4 Z M 139.3 9.7 L 139.3 38.8 L 135.8 38.8 L 135.8 9.7 L 139.3 9.7 Z M 166.9 16.9 L 166.9 19.8 L 155.1 19.8 L 155.1 16.9 L 166.9 16.9 Z M 158.6 38.8 C 158.6 38.8 158.63 13.92 158.6 13.9 C 158.6 12.7 158.9 11.6 159.5 10.8 C 160.1 10 160.9 9.3 161.8 8.9 C 162.7 8.5 163.7 8.3 164.8 8.3 C 165.6 8.3 166.3 8.4 166.8 8.5 C 167.3 8.6 167.7 8.8 167.9 8.9 C 167.9 8.9 167 11.8 167 11.8 C 166.8 11.7 166.6 11.6 166.3 11.5 C 166 11.5 165.6 11.4 165.1 11.4 C 164 11.4 163.2 11.7 162.7 12.3 C 162.2 12.8 162 13.6 162 14.7 C 161.98 14.72 162 38.8 162 38.8 L 158.6 38.8 Z M 177.3 39.3 C 175.9 39.3 174.6 39 173.5 38.5 C 172.4 37.9 171.5 37.2 170.8 36.2 C 170.2 35.2 169.8 34 169.8 32.6 C 169.8 31.3 170.1 30.3 170.6 29.5 C 171.1 28.7 171.7 28.1 172.6 27.7 C 173.4 27.2 174.3 26.9 175.3 26.7 C 176.3 26.4 177.3 26.3 178.3 26.1 C 179.6 26 180.7 25.8 181.5 25.7 C 182.4 25.7 183 25.5 183.4 25.3 C 183.7 25.1 183.9 24.7 183.9 24.1 C 183.9 24.1 183.9 24 183.9 24 C 183.9 22.6 183.5 21.5 182.8 20.8 C 182 20 180.9 19.6 179.3 19.6 C 177.7 19.6 176.5 20 175.6 20.7 C 174.7 21.4 174 22.1 173.6 22.9 C 173.6 22.9 170.5 21.8 170.5 21.8 C 171 20.4 171.8 19.4 172.7 18.7 C 173.7 17.9 174.7 17.4 175.9 17.1 C 177 16.8 178.1 16.6 179.2 16.6 C 179.9 16.6 180.7 16.7 181.6 16.9 C 182.6 17.1 183.4 17.4 184.3 17.9 C 185.1 18.4 185.9 19.2 186.4 20.2 C 187 21.3 187.3 22.6 187.3 24.4 C 187.28 24.38 187.3 38.8 187.3 38.8 L 183.9 38.8 L 183.9 35.8 C 183.9 35.8 183.76 35.8 183.8 35.8 C 183.5 36.3 183.2 36.8 182.6 37.3 C 182.1 37.9 181.4 38.3 180.5 38.7 C 179.6 39.1 178.6 39.3 177.3 39.3 Z M 177.8 36.3 C 179.1 36.3 180.2 36 181.2 35.5 C 182.1 34.9 182.8 34.3 183.2 33.5 C 183.7 32.6 183.9 31.8 183.9 30.9 C 183.9 30.9 183.9 27.8 183.9 27.8 C 183.8 28 183.5 28.1 183 28.2 C 182.5 28.4 182 28.5 181.4 28.6 C 180.7 28.7 180.1 28.8 179.5 28.9 C 179 28.9 178.5 29 178.1 29 C 177.3 29.1 176.5 29.3 175.7 29.6 C 174.9 29.8 174.3 30.2 173.9 30.7 C 173.4 31.2 173.2 31.9 173.2 32.7 C 173.2 33.9 173.6 34.8 174.5 35.4 C 175.4 36 176.5 36.3 177.8 36.3 Z M 193.3 38.8 L 193.3 16.9 L 196.7 16.9 L 196.7 38.8 L 193.3 38.8 Z M 195.1 13.3 C 194.4 13.3 193.8 13.1 193.4 12.6 C 192.9 12.2 192.7 11.6 192.7 11 C 192.7 10.4 192.9 9.9 193.4 9.4 C 193.8 9 194.4 8.8 195.1 8.8 C 195.7 8.8 196.3 9 196.7 9.4 C 197.2 9.9 197.4 10.4 197.4 11 C 197.4 11.6 197.2 12.2 196.7 12.6 C 196.3 13.1 195.7 13.3 195.1 13.3 Z M 206.1 9.7 L 206.1 38.8 L 202.8 38.8 L 202.8 9.7 L 206.1 9.7 Z M 227.5 21.8 C 227.5 21.8 224.5 22.7 224.5 22.7 C 224.3 22.2 224 21.7 223.6 21.2 C 223.3 20.7 222.8 20.3 222.1 20 C 221.5 19.7 220.7 19.5 219.7 19.5 C 218.4 19.5 217.3 19.9 216.4 20.5 C 215.5 21.1 215.1 21.8 215.1 22.8 C 215.1 23.6 215.4 24.3 216 24.8 C 216.6 25.2 217.5 25.6 218.8 26 C 218.8 26 222.1 26.8 222.1 26.8 C 224 27.2 225.5 28 226.4 28.9 C 227.4 29.9 227.9 31.1 227.9 32.7 C 227.9 33.9 227.5 35 226.8 36 C 226.1 37 225.1 37.8 223.8 38.4 C 222.5 38.9 221 39.2 219.3 39.2 C 217.1 39.2 215.3 38.7 213.8 37.8 C 212.4 36.8 211.4 35.4 211.1 33.5 C 211.1 33.5 214.2 32.7 214.2 32.7 C 214.5 33.9 215.1 34.8 216 35.4 C 216.8 36 217.9 36.3 219.3 36.3 C 220.9 36.3 222.1 35.9 223 35.2 C 223.9 34.6 224.4 33.8 224.4 32.8 C 224.4 32.1 224.1 31.4 223.6 30.9 C 223.1 30.4 222.3 30 221.2 29.8 C 221.2 29.8 217.5 28.9 217.5 28.9 C 215.5 28.4 214.1 27.7 213.1 26.7 C 212.2 25.7 211.7 24.5 211.7 23 C 211.7 21.7 212.1 20.6 212.8 19.7 C 213.5 18.7 214.4 18 215.6 17.5 C 216.8 16.9 218.2 16.6 219.7 16.6 C 221.9 16.6 223.6 17.1 224.8 18.1 C 226.1 19 226.9 20.3 227.5 21.8 Z M 253.7 16.9 L 253.7 19.8 L 242.4 19.8 L 242.4 16.9 L 253.7 16.9 Z M 245.7 11.7 L 249 11.7 C 249 11.7 249 32.5 249 32.5 C 249 33.4 249.1 34.2 249.4 34.6 C 249.7 35.1 250.1 35.4 250.5 35.6 C 250.9 35.7 251.4 35.8 251.9 35.8 C 252.3 35.8 252.6 35.8 252.8 35.7 C 253 35.7 253.2 35.7 253.4 35.6 C 253.4 35.6 254.1 38.6 254.1 38.6 C 253.8 38.7 253.5 38.8 253.1 38.9 C 252.7 39 252.2 39 251.6 39 C 250.6 39 249.7 38.8 248.8 38.4 C 247.9 38 247.1 37.4 246.5 36.6 C 245.9 35.7 245.7 34.7 245.7 33.4 C 245.65 33.41 245.7 11.7 245.7 11.7 Z M 266.6 39.2 C 264.7 39.2 262.9 38.7 261.5 37.8 C 260 36.9 258.8 35.5 258 33.9 C 257.2 32.2 256.8 30.2 256.8 28 C 256.8 25.7 257.2 23.7 258 22 C 258.8 20.3 260 19 261.5 18.1 C 262.9 17.1 264.7 16.6 266.6 16.6 C 268.6 16.6 270.3 17.1 271.8 18.1 C 273.3 19 274.5 20.3 275.3 22 C 276.1 23.7 276.5 25.7 276.5 28 C 276.5 30.2 276.1 32.2 275.3 33.9 C 274.5 35.5 273.3 36.9 271.8 37.8 C 270.3 38.7 268.6 39.2 266.6 39.2 Z M 266.6 36.2 C 268.1 36.2 269.4 35.8 270.3 35 C 271.3 34.3 272 33.3 272.5 32 C 272.9 30.8 273.2 29.4 273.2 28 C 273.2 26.5 272.9 25.1 272.5 23.9 C 272 22.6 271.3 21.6 270.3 20.8 C 269.4 20 268.1 19.7 266.6 19.7 C 265.1 19.7 263.9 20 263 20.8 C 262 21.6 261.3 22.6 260.8 23.9 C 260.3 25.1 260.1 26.5 260.1 28 C 260.1 29.4 260.3 30.8 260.8 32 C 261.3 33.3 262 34.3 263 35 C 263.9 35.8 265.1 36.2 266.6 36.2 Z M 301.7 47.4 C 300.1 47.4 298.7 47.2 297.5 46.8 C 296.4 46.4 295.4 45.8 294.6 45.1 C 293.8 44.5 293.2 43.8 292.8 43 C 292.8 43 295.5 41.1 295.5 41.1 C 295.8 41.5 296.1 42 296.6 42.5 C 297.1 43 297.7 43.5 298.5 43.9 C 299.3 44.2 300.4 44.4 301.7 44.4 C 303.5 44.4 304.9 44 306.1 43.2 C 307.2 42.3 307.8 41 307.8 39.1 C 307.78 39.15 307.8 34.7 307.8 34.7 C 307.8 34.7 307.5 34.72 307.5 34.7 C 307.2 35.1 306.9 35.6 306.5 36.2 C 306 36.8 305.4 37.3 304.5 37.7 C 303.7 38.2 302.6 38.4 301.1 38.4 C 299.4 38.4 297.8 38 296.4 37.2 C 295 36.3 293.9 35.1 293.1 33.5 C 292.3 31.9 291.9 30 291.9 27.7 C 291.9 25.5 292.3 23.5 293 21.9 C 293.8 20.2 294.9 18.9 296.3 18 C 297.7 17.1 299.4 16.6 301.2 16.6 C 302.6 16.6 303.7 16.9 304.6 17.4 C 305.4 17.8 306.1 18.4 306.5 18.9 C 307 19.5 307.3 20 307.6 20.4 C 307.55 20.4 307.9 20.4 307.9 20.4 L 307.9 16.9 L 311.1 16.9 C 311.1 16.9 311.13 39.38 311.1 39.4 C 311.1 41.3 310.7 42.8 309.9 44 C 309 45.1 307.9 46 306.5 46.6 C 305 47.1 303.4 47.4 301.7 47.4 Z M 301.6 35.4 C 302.9 35.4 304.1 35.1 305 34.5 C 305.9 33.9 306.6 33 307.1 31.8 C 307.6 30.7 307.8 29.3 307.8 27.7 C 307.8 26.1 307.6 24.7 307.1 23.5 C 306.7 22.3 306 21.4 305 20.7 C 304.1 20 303 19.7 301.6 19.7 C 300.2 19.7 299 20 298 20.7 C 297.1 21.5 296.4 22.4 295.9 23.6 C 295.5 24.8 295.2 26.2 295.2 27.7 C 295.2 29.2 295.5 30.5 295.9 31.7 C 296.4 32.8 297.1 33.8 298.1 34.4 C 299 35.1 300.2 35.4 301.6 35.4 Z M 326.3 39.2 C 324.2 39.2 322.4 38.7 320.8 37.8 C 319.3 36.9 318.1 35.6 317.3 33.9 C 316.5 32.2 316.1 30.2 316.1 28 C 316.1 25.8 316.5 23.8 317.3 22.1 C 318.1 20.4 319.3 19.1 320.8 18.1 C 322.2 17.1 324 16.6 325.9 16.6 C 327.1 16.6 328.2 16.8 329.3 17.2 C 330.4 17.6 331.4 18.2 332.3 19.1 C 333.2 19.9 334 21 334.5 22.4 C 335 23.8 335.3 25.5 335.3 27.6 C 335.3 27.56 335.3 29 335.3 29 L 318.5 29 L 318.5 26.1 C 318.5 26.1 331.89 26.08 331.9 26.1 C 331.9 24.8 331.6 23.8 331.2 22.8 C 330.7 21.8 330 21.1 329.1 20.5 C 328.2 19.9 327.1 19.7 325.9 19.7 C 324.6 19.7 323.4 20 322.5 20.6 C 321.5 21.3 320.8 22.2 320.2 23.2 C 319.7 24.3 319.5 25.4 319.5 26.6 C 319.5 26.6 319.5 28.5 319.5 28.5 C 319.5 30.2 319.7 31.6 320.3 32.7 C 320.9 33.8 321.7 34.7 322.7 35.3 C 323.7 35.9 324.9 36.2 326.3 36.2 C 327.1 36.2 327.9 36.1 328.7 35.8 C 329.4 35.6 330 35.2 330.5 34.7 C 331 34.2 331.4 33.5 331.7 32.8 C 331.7 32.8 335 33.7 335 33.7 C 334.6 34.8 334 35.8 333.2 36.6 C 332.4 37.4 331.4 38.1 330.3 38.5 C 329.1 39 327.7 39.2 326.3 39.2 Z M 343.7 25.6 C 343.7 25.63 343.7 38.8 343.7 38.8 L 340.3 38.8 L 340.3 16.9 L 343.6 16.9 L 343.6 20.3 C 343.6 20.3 343.87 20.34 343.9 20.3 C 344.4 19.2 345.2 18.3 346.2 17.7 C 347.2 17 348.6 16.6 350.2 16.6 C 351.7 16.6 353 16.9 354.1 17.5 C 355.2 18.2 356.1 19.1 356.7 20.3 C 357.3 21.5 357.6 23 357.6 24.9 C 357.62 24.89 357.6 38.8 357.6 38.8 L 354.3 38.8 C 354.3 38.8 354.26 25.11 354.3 25.1 C 354.3 23.4 353.8 22.1 352.9 21.1 C 352 20.1 350.8 19.7 349.3 19.7 C 348.2 19.7 347.2 19.9 346.4 20.4 C 345.6 20.8 344.9 21.5 344.4 22.4 C 343.9 23.3 343.7 24.4 343.7 25.6 Z M 372.7 39.2 C 370.6 39.2 368.7 38.7 367.2 37.8 C 365.7 36.9 364.5 35.6 363.7 33.9 C 362.9 32.2 362.5 30.2 362.5 28 C 362.5 25.8 362.9 23.8 363.7 22.1 C 364.5 20.4 365.7 19.1 367.2 18.1 C 368.6 17.1 370.3 16.6 372.3 16.6 C 373.5 16.6 374.6 16.8 375.7 17.2 C 376.8 17.6 377.8 18.2 378.7 19.1 C 379.6 19.9 380.3 21 380.9 22.4 C 381.4 23.8 381.7 25.5 381.7 27.6 C 381.69 27.56 381.7 29 381.7 29 L 364.9 29 L 364.9 26.1 C 364.9 26.1 378.29 26.08 378.3 26.1 C 378.3 24.8 378 23.8 377.6 22.8 C 377.1 21.8 376.4 21.1 375.5 20.5 C 374.6 19.9 373.5 19.7 372.3 19.7 C 371 19.7 369.8 20 368.9 20.6 C 367.9 21.3 367.1 22.2 366.6 23.2 C 366.1 24.3 365.8 25.4 365.8 26.6 C 365.8 26.6 365.8 28.5 365.8 28.5 C 365.8 30.2 366.1 31.6 366.7 32.7 C 367.3 33.8 368.1 34.7 369.1 35.3 C 370.1 35.9 371.3 36.2 372.7 36.2 C 373.5 36.2 374.3 36.1 375.1 35.8 C 375.8 35.6 376.4 35.2 376.9 34.7 C 377.4 34.2 377.8 33.5 378.1 32.8 C 378.1 32.8 381.4 33.7 381.4 33.7 C 381 34.8 380.4 35.8 379.6 36.6 C 378.8 37.4 377.8 38.1 376.7 38.5 C 375.5 39 374.1 39.2 372.7 39.2 Z M 386.7 38.8 L 386.7 16.9 L 390 16.9 L 390 20.2 C 390 20.2 390.2 20.23 390.2 20.2 C 390.6 19.1 391.3 18.3 392.4 17.6 C 393.4 16.9 394.6 16.6 395.9 16.6 C 396.1 16.6 396.4 16.6 396.8 16.6 C 397.2 16.6 397.5 16.6 397.6 16.6 C 397.6 16.6 397.6 20.1 397.6 20.1 C 397.5 20 397.3 20 396.9 19.9 C 396.5 19.9 396 19.8 395.6 19.8 C 394.5 19.8 393.6 20 392.8 20.5 C 391.9 20.9 391.3 21.5 390.8 22.3 C 390.3 23.1 390.1 24 390.1 24.9 C 390.09 24.94 390.1 38.8 390.1 38.8 L 386.7 38.8 Z M 407.8 39.3 C 406.4 39.3 405.1 39 404 38.5 C 402.9 37.9 402 37.2 401.3 36.2 C 400.6 35.2 400.3 34 400.3 32.6 C 400.3 31.3 400.6 30.3 401.1 29.5 C 401.5 28.7 402.2 28.1 403 27.7 C 403.9 27.2 404.8 26.9 405.8 26.7 C 406.8 26.4 407.8 26.3 408.8 26.1 C 410.1 26 411.2 25.8 412 25.7 C 412.8 25.7 413.4 25.5 413.8 25.3 C 414.2 25.1 414.4 24.7 414.4 24.1 C 414.4 24.1 414.4 24 414.4 24 C 414.4 22.6 414 21.5 413.3 20.8 C 412.5 20 411.3 19.6 409.8 19.6 C 408.2 19.6 406.9 20 406 20.7 C 405.1 21.4 404.5 22.1 404.1 22.9 C 404.1 22.9 400.9 21.8 400.9 21.8 C 401.5 20.4 402.3 19.4 403.2 18.7 C 404.2 17.9 405.2 17.4 406.3 17.1 C 407.5 16.8 408.6 16.6 409.7 16.6 C 410.4 16.6 411.2 16.7 412.1 16.9 C 413 17.1 413.9 17.4 414.8 17.9 C 415.6 18.4 416.3 19.2 416.9 20.2 C 417.5 21.3 417.8 22.6 417.8 24.4 C 417.76 24.38 417.8 38.8 417.8 38.8 L 414.4 38.8 L 414.4 35.8 C 414.4 35.8 414.24 35.8 414.2 35.8 C 414 36.3 413.6 36.8 413.1 37.3 C 412.6 37.9 411.9 38.3 411 38.7 C 410.1 39.1 409 39.3 407.8 39.3 Z M 408.3 36.3 C 409.6 36.3 410.7 36 411.6 35.5 C 412.5 34.9 413.2 34.3 413.7 33.5 C 414.2 32.6 414.4 31.8 414.4 30.9 C 414.4 30.9 414.4 27.8 414.4 27.8 C 414.3 28 414 28.1 413.5 28.2 C 413 28.4 412.4 28.5 411.8 28.6 C 411.2 28.7 410.6 28.8 410 28.9 C 409.4 28.9 409 29 408.6 29 C 407.7 29.1 406.9 29.3 406.2 29.6 C 405.4 29.8 404.8 30.2 404.4 30.7 C 403.9 31.2 403.7 31.9 403.7 32.7 C 403.7 33.9 404.1 34.8 405 35.4 C 405.8 36 406.9 36.3 408.3 36.3 Z M 432.8 16.9 L 432.8 19.8 L 421.5 19.8 L 421.5 16.9 L 432.8 16.9 Z M 424.8 11.7 L 428.2 11.7 C 428.2 11.7 428.18 32.5 428.2 32.5 C 428.2 33.4 428.3 34.2 428.6 34.6 C 428.9 35.1 429.2 35.4 429.7 35.6 C 430.1 35.7 430.6 35.8 431.1 35.8 C 431.4 35.8 431.7 35.8 432 35.7 C 432.2 35.7 432.4 35.7 432.6 35.6 C 432.6 35.6 433.2 38.6 433.2 38.6 C 433 38.7 432.7 38.8 432.3 38.9 C 431.9 39 431.4 39 430.7 39 C 429.8 39 428.9 38.8 428 38.4 C 427.1 38 426.3 37.4 425.7 36.6 C 425.1 35.7 424.8 34.7 424.8 33.4 C 424.82 33.41 424.8 11.7 424.8 11.7 Z M 446.1 39.2 C 444 39.2 442.2 38.7 440.7 37.8 C 439.1 36.9 438 35.6 437.2 33.9 C 436.3 32.2 435.9 30.2 435.9 28 C 435.9 25.8 436.3 23.8 437.2 22.1 C 438 20.4 439.1 19.1 440.6 18.1 C 442.1 17.1 443.8 16.6 445.8 16.6 C 446.9 16.6 448 16.8 449.1 17.2 C 450.2 17.6 451.2 18.2 452.2 19.1 C 453.1 19.9 453.8 21 454.3 22.4 C 454.9 23.8 455.1 25.5 455.1 27.6 C 455.13 27.56 455.1 29 455.1 29 L 438.3 29 L 438.3 26.1 C 438.3 26.1 451.72 26.08 451.7 26.1 C 451.7 24.8 451.5 23.8 451 22.8 C 450.5 21.8 449.8 21.1 448.9 20.5 C 448 19.9 447 19.7 445.8 19.7 C 444.4 19.7 443.3 20 442.3 20.6 C 441.3 21.3 440.6 22.2 440.1 23.2 C 439.5 24.3 439.3 25.4 439.3 26.6 C 439.3 26.6 439.3 28.5 439.3 28.5 C 439.3 30.2 439.6 31.6 440.1 32.7 C 440.7 33.8 441.5 34.7 442.5 35.3 C 443.6 35.9 444.7 36.2 446.1 36.2 C 447 36.2 447.8 36.1 448.5 35.8 C 449.2 35.6 449.8 35.2 450.3 34.7 C 450.9 34.2 451.3 33.5 451.6 32.8 C 451.6 32.8 454.8 33.7 454.8 33.7 C 454.5 34.8 453.9 35.8 453.1 36.6 C 452.3 37.4 451.3 38.1 450.1 38.5 C 448.9 39 447.6 39.2 446.1 39.2 Z M 471.5 38.8 L 471.5 16.9 L 474.7 16.9 L 474.7 20.2 C 474.7 20.2 474.96 20.23 475 20.2 C 475.4 19.1 476.1 18.3 477.1 17.6 C 478.2 16.9 479.3 16.6 480.6 16.6 C 480.9 16.6 481.2 16.6 481.6 16.6 C 481.9 16.6 482.2 16.6 482.4 16.6 C 482.4 16.6 482.4 20.1 482.4 20.1 C 482.3 20 482 20 481.6 19.9 C 481.2 19.9 480.8 19.8 480.4 19.8 C 479.3 19.8 478.4 20 477.5 20.5 C 476.7 20.9 476 21.5 475.6 22.3 C 475.1 23.1 474.8 24 474.8 24.9 C 474.85 24.94 474.8 38.8 474.8 38.8 L 471.5 38.8 Z M 495.1 39.2 C 493 39.2 491.2 38.7 489.7 37.8 C 488.2 36.9 487 35.6 486.2 33.9 C 485.4 32.2 484.9 30.2 484.9 28 C 484.9 25.8 485.4 23.8 486.2 22.1 C 487 20.4 488.1 19.1 489.6 18.1 C 491.1 17.1 492.8 16.6 494.8 16.6 C 495.9 16.6 497 16.8 498.1 17.2 C 499.3 17.6 500.3 18.2 501.2 19.1 C 502.1 19.9 502.8 21 503.3 22.4 C 503.9 23.8 504.2 25.5 504.2 27.6 C 504.15 27.56 504.2 29 504.2 29 L 487.3 29 L 487.3 26.1 C 487.3 26.1 500.74 26.08 500.7 26.1 C 500.7 24.8 500.5 23.8 500 22.8 C 499.5 21.8 498.8 21.1 497.9 20.5 C 497 19.9 496 19.7 494.8 19.7 C 493.4 19.7 492.3 20 491.3 20.6 C 490.3 21.3 489.6 22.2 489.1 23.2 C 488.6 24.3 488.3 25.4 488.3 26.6 C 488.3 26.6 488.3 28.5 488.3 28.5 C 488.3 30.2 488.6 31.6 489.2 32.7 C 489.7 33.8 490.5 34.7 491.6 35.3 C 492.6 35.9 493.8 36.2 495.1 36.2 C 496 36.2 496.8 36.1 497.5 35.8 C 498.2 35.6 498.8 35.2 499.4 34.7 C 499.9 34.2 500.3 33.5 500.6 32.8 C 500.6 32.8 503.8 33.7 503.8 33.7 C 503.5 34.8 502.9 35.8 502.1 36.6 C 501.3 37.4 500.3 38.1 499.1 38.5 C 497.9 39 496.6 39.2 495.1 39.2 Z M 515.4 39.3 C 514 39.3 512.7 39 511.6 38.5 C 510.5 37.9 509.6 37.2 508.9 36.2 C 508.3 35.2 507.9 34 507.9 32.6 C 507.9 31.3 508.2 30.3 508.7 29.5 C 509.2 28.7 509.8 28.1 510.6 27.7 C 511.5 27.2 512.4 26.9 513.4 26.7 C 514.4 26.4 515.4 26.3 516.4 26.1 C 517.7 26 518.8 25.8 519.6 25.7 C 520.4 25.7 521.1 25.5 521.4 25.3 C 521.8 25.1 522 24.7 522 24.1 C 522 24.1 522 24 522 24 C 522 22.6 521.6 21.5 520.9 20.8 C 520.1 20 519 19.6 517.4 19.6 C 515.8 19.6 514.6 20 513.6 20.7 C 512.7 21.4 512.1 22.1 511.7 22.9 C 511.7 22.9 508.5 21.8 508.5 21.8 C 509.1 20.4 509.9 19.4 510.8 18.7 C 511.8 17.9 512.8 17.4 513.9 17.1 C 515.1 16.8 516.2 16.6 517.3 16.6 C 518 16.6 518.8 16.7 519.7 16.9 C 520.6 17.1 521.5 17.4 522.4 17.9 C 523.2 18.4 523.9 19.2 524.5 20.2 C 525.1 21.3 525.4 22.6 525.4 24.4 C 525.36 24.38 525.4 38.8 525.4 38.8 L 522 38.8 L 522 35.8 C 522 35.8 521.84 35.8 521.8 35.8 C 521.6 36.3 521.2 36.8 520.7 37.3 C 520.2 37.9 519.5 38.3 518.6 38.7 C 517.7 39.1 516.6 39.3 515.4 39.3 Z M 515.9 36.3 C 517.2 36.3 518.3 36 519.2 35.5 C 520.1 34.9 520.8 34.3 521.3 33.5 C 521.8 32.6 522 31.8 522 30.9 C 522 30.9 522 27.8 522 27.8 C 521.9 28 521.6 28.1 521.1 28.2 C 520.6 28.4 520.1 28.5 519.4 28.6 C 518.8 28.7 518.2 28.8 517.6 28.9 C 517 28.9 516.6 29 516.2 29 C 515.3 29.1 514.5 29.3 513.8 29.6 C 513 29.8 512.4 30.2 512 30.7 C 511.5 31.2 511.3 31.9 511.3 32.7 C 511.3 33.9 511.7 34.8 512.6 35.4 C 513.4 36 514.5 36.3 515.9 36.3 Z M 534.8 9.7 L 534.8 38.8 L 531.5 38.8 L 531.5 9.7 L 534.8 9.7 Z " stroke="none" fill="#10283d"/>  </g></svg>