<?xml version="1.0" standalone="no"?><!DOCTYPE svg PUBLIC "-//W3C//DTD SVG 1.1//EN" "http://www.w3.org/Graphics/SVG/1.1/DTD/svg11.dtd"><svg xmlns="http://www.w3.org/2000/svg" version="1.1" width="982.3px" height="139px" viewBox="0 -11 982.3 139" style="top:-11px">  <desc>Recognizing AI hype</desc>  <defs/>  <g id="Polygon109580">    <path d="M 91.5 80.4 L 91.5 20 C 91.5 20 115.35 20.04 115.3 20 C 119.9 20 123.8 20.9 127 22.5 C 130.3 24.1 132.7 26.4 134.4 29.3 C 136.1 32.3 137 35.8 137 39.8 C 137 43.8 136.1 47.2 134.4 50.1 C 132.7 53 130.2 55.2 126.9 56.7 C 123.6 58.2 119.7 59 115 59 C 115.02 59.01 99.1 59 99.1 59 L 99.1 48.8 C 99.1 48.8 112.96 48.75 113 48.8 C 115.4 48.8 117.4 48.4 119 47.7 C 120.6 47.1 121.8 46.1 122.6 44.7 C 123.4 43.4 123.8 41.7 123.8 39.8 C 123.8 37.8 123.4 36.1 122.6 34.7 C 121.8 33.3 120.6 32.3 119 31.6 C 117.4 30.8 115.4 30.5 112.9 30.5 C 112.9 30.48 104.3 30.5 104.3 30.5 L 104.3 80.4 L 91.5 80.4 Z M 124.1 52.9 L 139.1 80.4 L 125 80.4 L 110.4 52.9 L 124.1 52.9 Z M 164.7 81.3 C 160 81.3 156 80.3 152.7 78.4 C 149.3 76.6 146.7 73.9 144.9 70.4 C 143.1 66.9 142.2 62.8 142.2 58 C 142.2 53.3 143.1 49.2 144.9 45.7 C 146.7 42.2 149.3 39.5 152.6 37.5 C 155.9 35.5 159.7 34.5 164.2 34.5 C 167.2 34.5 169.9 35 172.5 36 C 175.1 36.9 177.4 38.4 179.3 40.3 C 181.2 42.2 182.8 44.6 183.8 47.4 C 184.9 50.3 185.5 53.7 185.5 57.5 C 185.46 57.53 185.5 61 185.5 61 L 147.2 61 L 147.2 53.2 C 147.2 53.2 173.64 53.2 173.6 53.2 C 173.6 51.4 173.2 49.8 172.5 48.4 C 171.7 47 170.6 45.9 169.2 45.1 C 167.8 44.3 166.2 43.9 164.4 43.9 C 162.5 43.9 160.8 44.4 159.3 45.2 C 157.9 46.1 156.7 47.3 155.9 48.7 C 155.1 50.2 154.6 51.8 154.6 53.6 C 154.6 53.6 154.6 61 154.6 61 C 154.6 63.3 155 65.2 155.9 66.8 C 156.7 68.4 157.9 69.7 159.4 70.6 C 161 71.5 162.8 71.9 164.9 71.9 C 166.3 71.9 167.6 71.7 168.7 71.3 C 169.9 70.9 170.9 70.3 171.7 69.6 C 172.5 68.8 173.1 67.8 173.6 66.7 C 173.6 66.7 185.2 67.4 185.2 67.4 C 184.6 70.2 183.4 72.7 181.6 74.7 C 179.8 76.8 177.4 78.4 174.6 79.6 C 171.7 80.7 168.4 81.3 164.7 81.3 Z M 212.8 81.3 C 208.2 81.3 204.2 80.3 200.9 78.3 C 197.6 76.4 195 73.6 193.2 70.1 C 191.5 66.6 190.6 62.5 190.6 57.9 C 190.6 53.3 191.5 49.2 193.3 45.7 C 195.1 42.2 197.6 39.5 200.9 37.5 C 204.3 35.5 208.2 34.5 212.8 34.5 C 216.7 34.5 220.2 35.3 223.2 36.7 C 226.1 38.1 228.5 40.1 230.2 42.7 C 231.9 45.3 232.9 48.4 233.1 51.9 C 233.1 51.9 221.2 51.9 221.2 51.9 C 220.9 49.6 220 47.8 218.6 46.4 C 217.2 45 215.3 44.3 213 44.3 C 211 44.3 209.4 44.9 207.9 45.9 C 206.5 47 205.3 48.5 204.5 50.5 C 203.7 52.5 203.3 54.9 203.3 57.8 C 203.3 60.7 203.7 63.1 204.5 65.1 C 205.3 67.2 206.4 68.7 207.9 69.8 C 209.3 70.8 211 71.4 213 71.4 C 214.4 71.4 215.7 71.1 216.9 70.5 C 218 69.9 219 69 219.7 67.9 C 220.5 66.8 221 65.4 221.2 63.8 C 221.2 63.8 233.1 63.8 233.1 63.8 C 232.9 67.3 231.9 70.3 230.3 72.9 C 228.6 75.6 226.3 77.6 223.3 79.1 C 220.4 80.6 216.9 81.3 212.8 81.3 Z M 260 81.3 C 255.4 81.3 251.5 80.3 248.1 78.4 C 244.8 76.4 242.2 73.7 240.4 70.2 C 238.6 66.7 237.7 62.6 237.7 57.9 C 237.7 53.3 238.6 49.2 240.4 45.7 C 242.2 42.2 244.8 39.4 248.1 37.5 C 251.5 35.5 255.4 34.5 260 34.5 C 264.6 34.5 268.5 35.5 271.9 37.5 C 275.2 39.4 277.8 42.2 279.6 45.7 C 281.4 49.2 282.3 53.3 282.3 57.9 C 282.3 62.6 281.4 66.7 279.6 70.2 C 277.8 73.7 275.2 76.4 271.9 78.4 C 268.5 80.3 264.6 81.3 260 81.3 Z M 260.1 71.6 C 262.1 71.6 263.9 71 265.3 69.8 C 266.7 68.6 267.7 67 268.4 64.9 C 269.2 62.8 269.5 60.5 269.5 57.9 C 269.5 55.2 269.2 52.9 268.4 50.8 C 267.7 48.8 266.7 47.1 265.3 45.9 C 263.9 44.7 262.1 44.1 260.1 44.1 C 258 44.1 256.2 44.7 254.8 45.9 C 253.3 47.1 252.3 48.8 251.5 50.8 C 250.8 52.9 250.5 55.2 250.5 57.9 C 250.5 60.5 250.8 62.8 251.5 64.9 C 252.3 67 253.3 68.6 254.8 69.8 C 256.2 71 258 71.6 260.1 71.6 Z M 309.5 98.3 C 305.4 98.3 302 97.8 299.1 96.7 C 296.2 95.6 293.9 94 292.2 92.1 C 290.4 90.2 289.3 88.1 288.8 85.7 C 288.8 85.7 300.4 84.1 300.4 84.1 C 300.8 85.1 301.3 85.9 302.1 86.7 C 302.9 87.5 303.9 88.1 305.2 88.6 C 306.4 89.1 308 89.3 309.8 89.3 C 312.5 89.3 314.8 88.6 316.6 87.3 C 318.4 86 319.2 83.8 319.2 80.7 C 319.24 80.67 319.2 72.4 319.2 72.4 C 319.2 72.4 318.71 72.39 318.7 72.4 C 318.2 73.6 317.3 74.8 316.2 76 C 315.1 77.1 313.7 78 312 78.7 C 310.3 79.4 308.2 79.8 305.8 79.8 C 302.4 79.8 299.3 79 296.5 77.4 C 293.7 75.8 291.5 73.4 289.9 70.1 C 288.3 66.8 287.4 62.7 287.4 57.7 C 287.4 52.6 288.3 48.3 289.9 44.8 C 291.6 41.4 293.8 38.8 296.6 37.1 C 299.4 35.4 302.4 34.5 305.8 34.5 C 308.3 34.5 310.4 35 312.1 35.8 C 313.8 36.7 315.2 37.7 316.3 39 C 317.3 40.3 318.1 41.5 318.7 42.7 C 318.71 42.74 319.2 42.7 319.2 42.7 L 319.2 35.1 L 331.6 35.1 C 331.6 35.1 331.65 80.85 331.6 80.8 C 331.6 84.7 330.7 87.9 328.8 90.5 C 326.9 93.1 324.3 95.1 321 96.4 C 317.7 97.7 313.8 98.3 309.5 98.3 Z M 309.8 70.3 C 311.8 70.3 313.5 69.8 314.9 68.8 C 316.3 67.8 317.4 66.3 318.2 64.4 C 318.9 62.5 319.3 60.3 319.3 57.6 C 319.3 55 318.9 52.7 318.2 50.7 C 317.4 48.8 316.4 47.2 314.9 46.2 C 313.5 45.1 311.8 44.5 309.8 44.5 C 307.7 44.5 306 45.1 304.6 46.2 C 303.1 47.3 302.1 48.8 301.3 50.8 C 300.6 52.8 300.3 55 300.3 57.6 C 300.3 60.2 300.6 62.5 301.4 64.4 C 302.1 66.3 303.2 67.7 304.6 68.8 C 306 69.8 307.7 70.3 309.8 70.3 Z M 353.3 54.2 C 353.35 54.23 353.3 80.4 353.3 80.4 L 340.8 80.4 L 340.8 35.1 L 352.8 35.1 L 352.8 43.1 C 352.8 43.1 353.29 43.12 353.3 43.1 C 354.3 40.5 356 38.4 358.3 36.9 C 360.7 35.3 363.5 34.5 366.9 34.5 C 370 34.5 372.8 35.2 375.1 36.6 C 377.5 38 379.3 39.9 380.6 42.5 C 381.9 45 382.5 48.1 382.5 51.6 C 382.53 51.58 382.5 80.4 382.5 80.4 L 370 80.4 C 370 80.4 369.97 53.82 370 53.8 C 370 51 369.3 48.9 367.8 47.3 C 366.4 45.8 364.4 45 361.9 45 C 360.2 45 358.7 45.3 357.5 46.1 C 356.2 46.8 355.2 47.9 354.5 49.2 C 353.7 50.6 353.4 52.3 353.3 54.2 Z M 391.3 80.4 L 391.3 35.1 L 403.9 35.1 L 403.9 80.4 L 391.3 80.4 Z M 397.7 29.3 C 395.8 29.3 394.2 28.7 392.9 27.4 C 391.5 26.2 390.9 24.7 390.9 23 C 390.9 21.2 391.5 19.7 392.9 18.5 C 394.2 17.2 395.8 16.6 397.7 16.6 C 399.5 16.6 401.1 17.2 402.4 18.5 C 403.8 19.7 404.4 21.2 404.4 22.9 C 404.4 24.7 403.8 26.2 402.4 27.4 C 401.1 28.7 399.5 29.3 397.7 29.3 Z M 411.4 80.4 L 411.4 72.9 L 433.6 45.5 L 433.6 45.2 L 412.2 45.2 L 412.2 35.1 L 448.7 35.1 L 448.7 43.3 L 427.9 70.1 L 427.9 70.4 L 449.5 70.4 L 449.5 80.4 L 411.4 80.4 Z M 457.1 80.4 L 457.1 35.1 L 469.6 35.1 L 469.6 80.4 L 457.1 80.4 Z M 463.4 29.3 C 461.5 29.3 459.9 28.7 458.6 27.4 C 457.3 26.2 456.6 24.7 456.6 23 C 456.6 21.2 457.3 19.7 458.6 18.5 C 459.9 17.2 461.5 16.6 463.4 16.6 C 465.2 16.6 466.8 17.2 468.2 18.5 C 469.5 19.7 470.2 21.2 470.2 22.9 C 470.2 24.7 469.5 26.2 468.2 27.4 C 466.8 28.7 465.2 29.3 463.4 29.3 Z M 491.4 54.2 C 491.36 54.23 491.4 80.4 491.4 80.4 L 478.8 80.4 L 478.8 35.1 L 490.8 35.1 L 490.8 43.1 C 490.8 43.1 491.3 43.12 491.3 43.1 C 492.3 40.5 494 38.4 496.3 36.9 C 498.7 35.3 501.6 34.5 504.9 34.5 C 508.1 34.5 510.8 35.2 513.1 36.6 C 515.5 38 517.3 39.9 518.6 42.5 C 519.9 45 520.5 48.1 520.5 51.6 C 520.54 51.58 520.5 80.4 520.5 80.4 L 508 80.4 C 508 80.4 507.99 53.82 508 53.8 C 508 51 507.3 48.9 505.9 47.3 C 504.4 45.8 502.5 45 499.9 45 C 498.2 45 496.8 45.3 495.5 46.1 C 494.2 46.8 493.2 47.9 492.5 49.2 C 491.7 50.6 491.4 52.3 491.4 54.2 Z M 549.6 98.3 C 545.6 98.3 542.1 97.8 539.2 96.7 C 536.3 95.6 534 94 532.3 92.1 C 530.6 90.2 529.5 88.1 528.9 85.7 C 528.9 85.7 540.6 84.1 540.6 84.1 C 540.9 85.1 541.5 85.9 542.2 86.7 C 543 87.5 544 88.1 545.3 88.6 C 546.6 89.1 548.1 89.3 549.9 89.3 C 552.7 89.3 554.9 88.6 556.7 87.3 C 558.5 86 559.4 83.8 559.4 80.7 C 559.36 80.67 559.4 72.4 559.4 72.4 C 559.4 72.4 558.83 72.39 558.8 72.4 C 558.3 73.6 557.5 74.8 556.4 76 C 555.3 77.1 553.8 78 552.1 78.7 C 550.4 79.4 548.3 79.8 545.9 79.8 C 542.5 79.8 539.4 79 536.6 77.4 C 533.9 75.8 531.7 73.4 530 70.1 C 528.4 66.8 527.6 62.7 527.6 57.7 C 527.6 52.6 528.4 48.3 530.1 44.8 C 531.7 41.4 534 38.8 536.7 37.1 C 539.5 35.4 542.6 34.5 545.9 34.5 C 548.4 34.5 550.5 35 552.3 35.8 C 554 36.7 555.3 37.7 556.4 39 C 557.4 40.3 558.3 41.5 558.8 42.7 C 558.83 42.74 559.3 42.7 559.3 42.7 L 559.3 35.1 L 571.8 35.1 C 571.8 35.1 571.77 80.85 571.8 80.8 C 571.8 84.7 570.8 87.9 568.9 90.5 C 567.1 93.1 564.4 95.1 561.1 96.4 C 557.8 97.7 554 98.3 549.6 98.3 Z M 549.9 70.3 C 551.9 70.3 553.6 69.8 555 68.8 C 556.4 67.8 557.5 66.3 558.3 64.4 C 559 62.5 559.4 60.3 559.4 57.6 C 559.4 55 559 52.7 558.3 50.7 C 557.6 48.8 556.5 47.2 555.1 46.2 C 553.6 45.1 551.9 44.5 549.9 44.5 C 547.8 44.5 546.1 45.1 544.7 46.2 C 543.3 47.3 542.2 48.8 541.5 50.8 C 540.7 52.8 540.4 55 540.4 57.6 C 540.4 60.2 540.7 62.5 541.5 64.4 C 542.2 66.3 543.3 67.7 544.7 68.8 C 546.1 69.8 547.8 70.3 549.9 70.3 Z M 611.7 80.4 L 598 80.4 L 618.8 20 L 635.3 20 L 656.1 80.4 L 642.4 80.4 L 627.3 33.8 L 626.8 33.8 L 611.7 80.4 Z M 610.8 56.7 L 643.1 56.7 L 643.1 66.6 L 610.8 66.6 L 610.8 56.7 Z M 675 20 L 675 80.4 L 662.3 80.4 L 662.3 20 L 675 20 Z M 717.1 54.2 C 717.12 54.23 717.1 80.4 717.1 80.4 L 704.6 80.4 L 704.6 20 L 716.8 20 L 716.8 43.1 C 716.8 43.1 717.29 43.12 717.3 43.1 C 718.3 40.4 720 38.4 722.2 36.8 C 724.5 35.3 727.4 34.5 730.8 34.5 C 734 34.5 736.7 35.2 739.1 36.6 C 741.4 38 743.2 39.9 744.5 42.5 C 745.8 45 746.5 48 746.5 51.6 C 746.47 51.58 746.5 80.4 746.5 80.4 L 733.9 80.4 C 733.9 80.4 733.92 53.82 733.9 53.8 C 733.9 51 733.2 48.9 731.8 47.3 C 730.4 45.8 728.4 45 725.8 45 C 724.1 45 722.6 45.3 721.3 46.1 C 720 46.8 719 47.9 718.3 49.2 C 717.5 50.6 717.1 52.3 717.1 54.2 Z M 760.9 97.4 C 759.3 97.4 757.8 97.3 756.4 97 C 755.1 96.8 753.9 96.5 753 96.1 C 753 96.1 755.8 86.7 755.8 86.7 C 757.3 87.2 758.6 87.4 759.8 87.5 C 761 87.5 762.1 87.2 762.9 86.6 C 763.8 86 764.5 85 765.1 83.6 C 765.06 83.62 765.8 81.7 765.8 81.7 L 749.6 35.1 L 762.8 35.1 L 772.1 68.4 L 772.6 68.4 L 782.1 35.1 L 795.4 35.1 C 795.4 35.1 777.77 85.3 777.8 85.3 C 776.9 87.7 775.8 89.9 774.3 91.7 C 772.9 93.5 771.1 94.9 768.9 95.9 C 766.7 96.9 764 97.4 760.9 97.4 Z M 800.3 97.4 L 800.3 35.1 L 812.6 35.1 L 812.6 42.7 C 812.6 42.7 813.19 42.74 813.2 42.7 C 813.7 41.5 814.5 40.3 815.6 39 C 816.6 37.7 818 36.7 819.7 35.8 C 821.4 35 823.5 34.5 826.1 34.5 C 829.4 34.5 832.4 35.4 835.2 37.1 C 838 38.8 840.2 41.4 841.9 44.9 C 843.6 48.3 844.4 52.6 844.4 57.8 C 844.4 62.9 843.6 67.1 842 70.6 C 840.4 74.1 838.2 76.7 835.4 78.5 C 832.6 80.3 829.5 81.1 826 81.1 C 823.6 81.1 821.5 80.7 819.8 79.9 C 818.1 79.1 816.7 78.1 815.7 76.9 C 814.6 75.7 813.8 74.4 813.2 73.2 C 813.19 73.16 812.8 73.2 812.8 73.2 L 812.8 97.4 L 800.3 97.4 Z M 812.5 57.8 C 812.5 60.5 812.9 62.8 813.7 64.8 C 814.4 66.8 815.5 68.4 816.9 69.5 C 818.3 70.6 820 71.2 822.1 71.2 C 824.1 71.2 825.8 70.6 827.3 69.5 C 828.7 68.3 829.7 66.8 830.5 64.7 C 831.2 62.7 831.6 60.4 831.6 57.8 C 831.6 55.2 831.2 52.9 830.5 50.9 C 829.8 48.9 828.7 47.3 827.3 46.2 C 825.9 45.1 824.1 44.5 822.1 44.5 C 820 44.5 818.3 45.1 816.9 46.2 C 815.5 47.2 814.4 48.8 813.7 50.8 C 812.9 52.7 812.5 55.1 812.5 57.8 Z M 872 81.3 C 867.4 81.3 863.4 80.3 860 78.4 C 856.7 76.6 854.1 73.9 852.3 70.4 C 850.5 66.9 849.6 62.8 849.6 58 C 849.6 53.3 850.5 49.2 852.3 45.7 C 854.1 42.2 856.6 39.5 859.9 37.5 C 863.2 35.5 867.1 34.5 871.5 34.5 C 874.5 34.5 877.3 35 879.9 36 C 882.5 36.9 884.7 38.4 886.7 40.3 C 888.6 42.2 890.1 44.6 891.2 47.4 C 892.3 50.3 892.8 53.7 892.8 57.5 C 892.81 57.53 892.8 61 892.8 61 L 854.6 61 L 854.6 53.2 C 854.6 53.2 880.99 53.2 881 53.2 C 881 51.4 880.6 49.8 879.8 48.4 C 879 47 877.9 45.9 876.6 45.1 C 875.2 44.3 873.6 43.9 871.7 43.9 C 869.8 43.9 868.1 44.4 866.7 45.2 C 865.2 46.1 864.1 47.3 863.2 48.7 C 862.4 50.2 862 51.8 862 53.6 C 862 53.6 862 61 862 61 C 862 63.3 862.4 65.2 863.2 66.8 C 864.1 68.4 865.3 69.7 866.8 70.6 C 868.3 71.5 870.1 71.9 872.2 71.9 C 873.6 71.9 874.9 71.7 876.1 71.3 C 877.2 70.9 878.2 70.3 879 69.6 C 879.9 68.8 880.5 67.8 880.9 66.7 C 880.9 66.7 892.5 67.4 892.5 67.4 C 892 70.2 890.8 72.7 888.9 74.7 C 887.1 76.8 884.8 78.4 881.9 79.6 C 879.1 80.7 875.8 81.3 872 81.3 Z " stroke="none" fill="#10283d"/>  </g></svg>