<?xml version="1.0" standalone="no"?><!DOCTYPE svg PUBLIC "-//W3C//DTD SVG 1.1//EN" "http://www.w3.org/Graphics/SVG/1.1/DTD/svg11.dtd"><svg xmlns="http://www.w3.org/2000/svg" version="1.1" width="61px" height="18.4px" viewBox="0 -5 61 18.4" style="top:-5px">  <desc>17 / 19</desc>  <defs/>  <g id="Polygon125830">    <path d="M 18.6 0 L 18.6 7.3 L 17.8 7.3 L 17.8 0.9 L 17.7 0.9 L 15.9 2.1 L 15.9 1.2 L 17.8 0 L 18.6 0 Z M 20.7 7.3 L 24 0.8 L 24 0.8 L 20.2 0.8 L 20.2 0 L 24.9 0 L 24.9 0.8 L 21.7 7.3 L 20.7 7.3 Z M 31.6 -0.3 L 29.3 8.4 L 28.5 8.4 L 30.9 -0.3 L 31.6 -0.3 Z M 38 0 L 38 7.3 L 37.1 7.3 L 37.1 0.9 L 37 0.9 L 35.3 2.1 L 35.3 1.2 L 37.1 0 L 38 0 Z M 42.3 -0.1 C 42.6 -0.1 42.9 0 43.2 0.1 C 43.5 0.2 43.7 0.4 44 0.6 C 44.2 0.9 44.4 1.2 44.6 1.7 C 44.7 2.1 44.8 2.7 44.8 3.3 C 44.8 4 44.7 4.6 44.6 5.1 C 44.5 5.6 44.3 6 44.1 6.3 C 43.9 6.7 43.6 6.9 43.3 7.1 C 42.9 7.3 42.6 7.4 42.2 7.4 C 41.8 7.4 41.4 7.3 41.1 7.1 C 40.8 7 40.5 6.7 40.3 6.5 C 40.1 6.2 40 5.8 39.9 5.4 C 39.9 5.4 40.8 5.4 40.8 5.4 C 40.9 5.8 41 6 41.2 6.3 C 41.5 6.5 41.8 6.6 42.2 6.6 C 42.7 6.6 43.2 6.3 43.5 5.9 C 43.8 5.4 44 4.7 44 3.8 C 44 3.8 43.9 3.8 43.9 3.8 C 43.8 4 43.6 4.1 43.5 4.3 C 43.3 4.4 43.1 4.5 42.9 4.6 C 42.6 4.7 42.4 4.7 42.1 4.7 C 41.7 4.7 41.3 4.6 41 4.4 C 40.6 4.2 40.4 3.9 40.2 3.6 C 40 3.2 39.9 2.8 39.9 2.3 C 39.9 1.9 40 1.5 40.2 1.1 C 40.4 0.7 40.6 0.4 41 0.2 C 41.4 0 41.8 -0.1 42.3 -0.1 Z M 42.3 0.7 C 42 0.7 41.7 0.8 41.5 0.9 C 41.2 1.1 41.1 1.3 40.9 1.5 C 40.8 1.8 40.7 2 40.7 2.3 C 40.7 2.6 40.8 2.9 40.9 3.2 C 41 3.4 41.2 3.6 41.5 3.7 C 41.7 3.9 42 4 42.3 4 C 42.5 4 42.7 3.9 42.9 3.8 C 43.1 3.7 43.2 3.6 43.4 3.5 C 43.5 3.3 43.7 3.1 43.7 2.9 C 43.8 2.7 43.9 2.5 43.9 2.3 C 43.9 2 43.8 1.8 43.7 1.5 C 43.5 1.3 43.3 1.1 43.1 0.9 C 42.9 0.8 42.6 0.7 42.3 0.7 Z " stroke="none" fill="#10283d"/>  </g></svg>