<?xml version="1.0" standalone="no"?><!DOCTYPE svg PUBLIC "-//W3C//DTD SVG 1.1//EN" "http://www.w3.org/Graphics/SVG/1.1/DTD/svg11.dtd"><svg xmlns="http://www.w3.org/2000/svg" version="1.1" width="304.2px" height="307.7px" viewBox="0 -16 304.2 307.7" style="top:-16px">  <desc>Everyone’s promising it will change the way you do business forever.</desc>  <defs/>  <g id="Polygon108202">    <path d="M 95.4 247.3 L 95.4 250.1 L 83.6 250.1 L 83.6 247.3 L 95.4 247.3 Z M 87.1 269.1 C 87.1 269.1 87.14 244.26 87.1 244.3 C 87.1 243 87.4 242 88 241.1 C 88.6 240.3 89.4 239.7 90.3 239.3 C 91.2 238.8 92.2 238.6 93.3 238.6 C 94.1 238.6 94.8 238.7 95.3 238.8 C 95.8 239 96.2 239.1 96.5 239.2 C 96.5 239.2 95.5 242.1 95.5 242.1 C 95.3 242 95.1 242 94.8 241.9 C 94.5 241.8 94.1 241.8 93.6 241.8 C 92.5 241.8 91.7 242 91.2 242.6 C 90.7 243.2 90.5 244 90.5 245.1 C 90.49 245.06 90.5 269.1 90.5 269.1 L 87.1 269.1 Z M 107.6 269.5 C 105.6 269.5 103.9 269.1 102.4 268.1 C 100.9 267.2 99.8 265.9 99 264.2 C 98.1 262.5 97.7 260.5 97.7 258.3 C 97.7 256 98.1 254 99 252.3 C 99.8 250.6 100.9 249.3 102.4 248.4 C 103.9 247.5 105.6 247 107.6 247 C 109.6 247 111.3 247.5 112.8 248.4 C 114.3 249.3 115.4 250.6 116.2 252.3 C 117.1 254 117.5 256 117.5 258.3 C 117.5 260.5 117.1 262.5 116.2 264.2 C 115.4 265.9 114.3 267.2 112.8 268.1 C 111.3 269.1 109.6 269.5 107.6 269.5 Z M 107.6 266.5 C 109.1 266.5 110.3 266.2 111.3 265.4 C 112.3 264.6 113 263.6 113.4 262.4 C 113.9 261.1 114.1 259.8 114.1 258.3 C 114.1 256.8 113.9 255.5 113.4 254.2 C 113 253 112.3 251.9 111.3 251.2 C 110.3 250.4 109.1 250 107.6 250 C 106.1 250 104.9 250.4 103.9 251.2 C 102.9 251.9 102.2 253 101.8 254.2 C 101.3 255.5 101.1 256.8 101.1 258.3 C 101.1 259.8 101.3 261.1 101.8 262.4 C 102.2 263.6 102.9 264.6 103.9 265.4 C 104.9 266.2 106.1 266.5 107.6 266.5 Z M 122.3 269.1 L 122.3 247.3 L 125.5 247.3 L 125.5 250.6 C 125.5 250.6 125.72 250.57 125.7 250.6 C 126.1 249.5 126.8 248.6 127.9 247.9 C 128.9 247.3 130.1 246.9 131.4 246.9 C 131.7 246.9 132 246.9 132.3 246.9 C 132.7 247 133 247 133.2 247 C 133.2 247 133.2 250.4 133.2 250.4 C 133.1 250.4 132.8 250.3 132.4 250.3 C 132 250.2 131.6 250.2 131.1 250.2 C 130.1 250.2 129.1 250.4 128.3 250.8 C 127.5 251.3 126.8 251.9 126.3 252.6 C 125.8 253.4 125.6 254.3 125.6 255.3 C 125.61 255.28 125.6 269.1 125.6 269.1 L 122.3 269.1 Z M 145.5 269.5 C 143.4 269.5 141.6 269.1 140 268.1 C 138.5 267.2 137.3 265.9 136.5 264.2 C 135.7 262.5 135.3 260.6 135.3 258.4 C 135.3 256.1 135.7 254.1 136.5 252.4 C 137.3 250.7 138.5 249.4 140 248.4 C 141.4 247.5 143.2 247 145.1 247 C 146.3 247 147.4 247.2 148.5 247.6 C 149.6 247.9 150.6 248.5 151.5 249.4 C 152.4 250.2 153.2 251.4 153.7 252.8 C 154.2 254.1 154.5 255.9 154.5 257.9 C 154.51 257.9 154.5 259.3 154.5 259.3 L 137.7 259.3 L 137.7 256.4 C 137.7 256.4 151.1 256.42 151.1 256.4 C 151.1 255.2 150.9 254.1 150.4 253.1 C 149.9 252.2 149.2 251.4 148.3 250.8 C 147.4 250.3 146.3 250 145.1 250 C 143.8 250 142.6 250.3 141.7 251 C 140.7 251.6 140 252.5 139.4 253.6 C 138.9 254.6 138.7 255.7 138.7 256.9 C 138.7 256.9 138.7 258.9 138.7 258.9 C 138.7 260.5 138.9 261.9 139.5 263 C 140.1 264.2 140.9 265.1 141.9 265.6 C 142.9 266.2 144.1 266.5 145.5 266.5 C 146.4 266.5 147.1 266.4 147.9 266.2 C 148.6 265.9 149.2 265.5 149.7 265 C 150.2 264.5 150.6 263.9 150.9 263.1 C 150.9 263.1 154.2 264 154.2 264 C 153.8 265.1 153.3 266.1 152.4 266.9 C 151.6 267.8 150.6 268.4 149.5 268.9 C 148.3 269.3 146.9 269.5 145.5 269.5 Z M 176.1 247.3 L 168 269.1 L 164.6 269.1 L 156.6 247.3 L 160.2 247.3 L 166.2 264.7 L 166.4 264.7 L 172.5 247.3 L 176.1 247.3 Z M 188.2 269.5 C 186.1 269.5 184.3 269.1 182.8 268.1 C 181.2 267.2 180.1 265.9 179.3 264.2 C 178.4 262.5 178 260.6 178 258.4 C 178 256.1 178.4 254.1 179.3 252.4 C 180.1 250.7 181.2 249.4 182.7 248.4 C 184.2 247.5 185.9 247 187.9 247 C 189 247 190.1 247.2 191.2 247.6 C 192.3 247.9 193.3 248.5 194.2 249.4 C 195.2 250.2 195.9 251.4 196.4 252.8 C 197 254.1 197.2 255.9 197.2 257.9 C 197.23 257.9 197.2 259.3 197.2 259.3 L 180.4 259.3 L 180.4 256.4 C 180.4 256.4 193.82 256.42 193.8 256.4 C 193.8 255.2 193.6 254.1 193.1 253.1 C 192.6 252.2 191.9 251.4 191 250.8 C 190.1 250.3 189.1 250 187.9 250 C 186.5 250 185.4 250.3 184.4 251 C 183.4 251.6 182.7 252.5 182.2 253.6 C 181.6 254.6 181.4 255.7 181.4 256.9 C 181.4 256.9 181.4 258.9 181.4 258.9 C 181.4 260.5 181.7 261.9 182.2 263 C 182.8 264.2 183.6 265.1 184.6 265.6 C 185.7 266.2 186.8 266.5 188.2 266.5 C 189.1 266.5 189.9 266.4 190.6 266.2 C 191.3 265.9 191.9 265.5 192.4 265 C 193 264.5 193.4 263.9 193.7 263.1 C 193.7 263.1 196.9 264 196.9 264 C 196.6 265.1 196 266.1 195.2 266.9 C 194.4 267.8 193.4 268.4 192.2 268.9 C 191 269.3 189.7 269.5 188.2 269.5 Z M 202 269.1 L 202 247.3 L 205.2 247.3 L 205.2 250.6 C 205.2 250.6 205.47 250.57 205.5 250.6 C 205.9 249.5 206.6 248.6 207.6 247.9 C 208.7 247.3 209.8 246.9 211.2 246.9 C 211.4 246.9 211.7 246.9 212.1 246.9 C 212.4 247 212.7 247 212.9 247 C 212.9 247 212.9 250.4 212.9 250.4 C 212.8 250.4 212.5 250.3 212.1 250.3 C 211.7 250.2 211.3 250.2 210.9 250.2 C 209.8 250.2 208.9 250.4 208 250.8 C 207.2 251.3 206.6 251.9 206.1 252.6 C 205.6 253.4 205.4 254.3 205.4 255.3 C 205.36 255.28 205.4 269.1 205.4 269.1 L 202 269.1 Z M 216.1 269.3 C 215.4 269.3 214.8 269.1 214.3 268.6 C 213.8 268.1 213.6 267.5 213.6 266.8 C 213.6 266.1 213.8 265.5 214.3 265 C 214.8 264.5 215.4 264.2 216.1 264.2 C 216.8 264.2 217.4 264.5 217.9 265 C 218.4 265.5 218.7 266.1 218.7 266.8 C 218.7 267.2 218.5 267.7 218.3 268 C 218.1 268.4 217.8 268.7 217.4 269 C 217 269.2 216.6 269.3 216.1 269.3 Z " stroke="none" fill="#ffffff"/>  </g>  <g id="Polygon108201">    <path d="M 51.9 221.5 C 50.1 221.5 48.5 221.1 47.1 220.2 C 45.7 219.2 44.6 217.9 43.8 216.2 C 43 214.5 42.6 212.5 42.6 210.2 C 42.6 207.9 43 206 43.8 204.3 C 44.6 202.6 45.7 201.3 47.1 200.4 C 48.5 199.4 50.1 199 51.9 199 C 53.4 199 54.5 199.2 55.3 199.7 C 56.1 200.2 56.8 200.7 57.2 201.3 C 57.7 201.9 58 202.4 58.2 202.7 C 58.25 202.74 58.5 202.7 58.5 202.7 L 58.5 192 L 61.9 192 L 61.9 221.1 L 58.6 221.1 L 58.6 217.7 C 58.6 217.7 58.25 217.74 58.2 217.7 C 58 218.1 57.6 218.6 57.2 219.2 C 56.7 219.8 56.1 220.4 55.2 220.8 C 54.4 221.3 53.3 221.5 51.9 221.5 Z M 52.3 218.5 C 53.7 218.5 54.8 218.2 55.7 217.5 C 56.7 216.8 57.4 215.8 57.9 214.5 C 58.3 213.3 58.6 211.8 58.6 210.2 C 58.6 208.6 58.4 207.1 57.9 205.9 C 57.4 204.7 56.7 203.7 55.8 203 C 54.8 202.3 53.7 202 52.3 202 C 50.9 202 49.7 202.4 48.8 203.1 C 47.9 203.8 47.1 204.8 46.7 206 C 46.2 207.3 46 208.6 46 210.2 C 46 211.7 46.2 213.1 46.7 214.4 C 47.2 215.7 47.9 216.7 48.8 217.4 C 49.8 218.2 50.9 218.5 52.3 218.5 Z M 76.7 221.5 C 74.8 221.5 73 221.1 71.6 220.1 C 70.1 219.2 68.9 217.9 68.1 216.2 C 67.3 214.5 66.9 212.5 66.9 210.3 C 66.9 208 67.3 206 68.1 204.3 C 68.9 202.6 70.1 201.3 71.6 200.4 C 73 199.5 74.8 199 76.7 199 C 78.7 199 80.4 199.5 81.9 200.4 C 83.4 201.3 84.6 202.6 85.4 204.3 C 86.2 206 86.6 208 86.6 210.3 C 86.6 212.5 86.2 214.5 85.4 216.2 C 84.6 217.9 83.4 219.2 81.9 220.1 C 80.4 221.1 78.7 221.5 76.7 221.5 Z M 76.7 218.5 C 78.2 218.5 79.5 218.2 80.4 217.4 C 81.4 216.6 82.1 215.6 82.6 214.4 C 83 213.1 83.3 211.8 83.3 210.3 C 83.3 208.8 83 207.5 82.6 206.2 C 82.1 205 81.4 203.9 80.4 203.2 C 79.5 202.4 78.2 202 76.7 202 C 75.2 202 74 202.4 73 203.2 C 72.1 203.9 71.4 205 70.9 206.2 C 70.4 207.5 70.2 208.8 70.2 210.3 C 70.2 211.8 70.4 213.1 70.9 214.4 C 71.4 215.6 72.1 216.6 73 217.4 C 74 218.2 75.2 218.5 76.7 218.5 Z M 103.4 221.1 L 103.4 192 L 106.8 192 L 106.8 202.7 C 106.8 202.7 107.08 202.74 107.1 202.7 C 107.3 202.4 107.7 201.9 108.1 201.3 C 108.5 200.7 109.2 200.2 110 199.7 C 110.8 199.2 112 199 113.4 199 C 115.2 199 116.8 199.4 118.2 200.4 C 119.6 201.3 120.7 202.6 121.5 204.3 C 122.3 206 122.7 207.9 122.7 210.2 C 122.7 212.5 122.3 214.5 121.5 216.2 C 120.7 217.9 119.6 219.2 118.3 220.2 C 116.9 221.1 115.3 221.5 113.4 221.5 C 112 221.5 110.9 221.3 110.1 220.8 C 109.2 220.4 108.6 219.8 108.1 219.2 C 107.7 218.6 107.3 218.1 107.1 217.7 C 107.08 217.74 106.7 217.7 106.7 217.7 L 106.7 221.1 L 103.4 221.1 Z M 106.7 210.2 C 106.7 211.8 107 213.3 107.5 214.5 C 107.9 215.8 108.6 216.8 109.6 217.5 C 110.5 218.2 111.6 218.5 113 218.5 C 114.4 218.5 115.6 218.2 116.5 217.4 C 117.4 216.7 118.2 215.7 118.6 214.4 C 119.1 213.1 119.4 211.7 119.4 210.2 C 119.4 208.6 119.1 207.3 118.6 206 C 118.2 204.8 117.5 203.8 116.5 203.1 C 115.6 202.4 114.4 202 113 202 C 111.6 202 110.5 202.3 109.5 203 C 108.6 203.7 107.9 204.7 107.4 205.9 C 107 207.1 106.7 208.6 106.7 210.2 Z M 141.1 212.2 C 141.15 212.17 141.1 199.3 141.1 199.3 L 144.5 199.3 L 144.5 221.1 L 141.1 221.1 L 141.1 217.4 C 141.1 217.4 140.92 217.4 140.9 217.4 C 140.4 218.5 139.6 219.4 138.5 220.2 C 137.5 221 136.1 221.4 134.4 221.4 C 133.1 221.4 131.9 221.1 130.8 220.5 C 129.7 219.9 128.9 219 128.3 217.7 C 127.7 216.5 127.4 215 127.4 213.1 C 127.4 213.14 127.4 199.3 127.4 199.3 L 130.8 199.3 C 130.8 199.3 130.75 212.91 130.8 212.9 C 130.8 214.5 131.2 215.8 132.1 216.7 C 133 217.7 134.1 218.1 135.5 218.1 C 136.4 218.1 137.2 217.9 138.1 217.5 C 138.9 217.1 139.7 216.4 140.3 215.5 C 140.9 214.7 141.1 213.5 141.1 212.2 Z M 165.5 204.2 C 165.5 204.2 162.5 205 162.5 205 C 162.3 204.5 162 204 161.7 203.5 C 161.3 203.1 160.8 202.7 160.2 202.4 C 159.5 202 158.7 201.9 157.8 201.9 C 156.4 201.9 155.3 202.2 154.4 202.8 C 153.6 203.4 153.1 204.2 153.1 205.1 C 153.1 206 153.4 206.6 154 207.1 C 154.6 207.6 155.6 208 156.9 208.3 C 156.9 208.3 160.1 209.1 160.1 209.1 C 162.1 209.6 163.5 210.3 164.5 211.3 C 165.4 212.2 165.9 213.5 165.9 215 C 165.9 216.3 165.5 217.4 164.8 218.4 C 164.1 219.3 163.1 220.1 161.8 220.7 C 160.6 221.3 159.1 221.5 157.4 221.5 C 155.2 221.5 153.3 221.1 151.8 220.1 C 150.4 219.1 149.5 217.7 149.1 215.9 C 149.1 215.9 152.3 215.1 152.3 215.1 C 152.6 216.2 153.1 217.1 154 217.7 C 154.8 218.3 155.9 218.6 157.3 218.6 C 158.9 218.6 160.1 218.3 161 217.6 C 162 216.9 162.4 216.1 162.4 215.2 C 162.4 214.4 162.2 213.8 161.6 213.3 C 161.1 212.8 160.3 212.4 159.2 212.1 C 159.2 212.1 155.6 211.3 155.6 211.3 C 153.6 210.8 152.1 210.1 151.2 209.1 C 150.2 208.1 149.8 206.8 149.8 205.3 C 149.8 204.1 150.1 203 150.8 202 C 151.5 201.1 152.5 200.3 153.7 199.8 C 154.9 199.3 156.2 199 157.8 199 C 159.9 199 161.6 199.5 162.9 200.4 C 164.1 201.4 165 202.6 165.5 204.2 Z M 170.4 221.1 L 170.4 199.3 L 173.8 199.3 L 173.8 221.1 L 170.4 221.1 Z M 172.1 195.6 C 171.5 195.6 170.9 195.4 170.5 195 C 170 194.5 169.8 194 169.8 193.4 C 169.8 192.7 170 192.2 170.5 191.8 C 170.9 191.3 171.5 191.1 172.1 191.1 C 172.8 191.1 173.4 191.3 173.8 191.8 C 174.3 192.2 174.5 192.7 174.5 193.4 C 174.5 194 174.3 194.5 173.8 195 C 173.4 195.4 172.8 195.6 172.1 195.6 Z M 183 208 C 182.95 207.97 183 221.1 183 221.1 L 179.6 221.1 L 179.6 199.3 L 182.8 199.3 L 182.8 202.7 C 182.8 202.7 183.12 202.68 183.1 202.7 C 183.6 201.6 184.4 200.7 185.5 200 C 186.5 199.3 187.8 199 189.5 199 C 191 199 192.3 199.3 193.4 199.9 C 194.5 200.5 195.3 201.4 195.9 202.6 C 196.6 203.8 196.9 205.4 196.9 207.2 C 196.87 207.23 196.9 221.1 196.9 221.1 L 193.5 221.1 C 193.5 221.1 193.52 207.45 193.5 207.5 C 193.5 205.7 193.1 204.4 192.2 203.4 C 191.3 202.5 190.1 202 188.5 202 C 187.4 202 186.5 202.2 185.7 202.7 C 184.8 203.2 184.2 203.8 183.7 204.7 C 183.2 205.6 183 206.7 183 208 Z M 211.7 221.5 C 209.6 221.5 207.8 221.1 206.3 220.1 C 204.8 219.2 203.6 217.9 202.8 216.2 C 202 214.5 201.6 212.6 201.6 210.4 C 201.6 208.1 202 206.1 202.8 204.4 C 203.6 202.7 204.8 201.4 206.2 200.4 C 207.7 199.5 209.4 199 211.4 199 C 212.5 199 213.6 199.2 214.8 199.6 C 215.9 199.9 216.9 200.5 217.8 201.4 C 218.7 202.2 219.4 203.4 220 204.8 C 220.5 206.1 220.8 207.9 220.8 209.9 C 220.77 209.9 220.8 211.3 220.8 211.3 L 203.9 211.3 L 203.9 208.4 C 203.9 208.4 217.36 208.42 217.4 208.4 C 217.4 207.2 217.1 206.1 216.6 205.1 C 216.1 204.2 215.4 203.4 214.6 202.8 C 213.7 202.3 212.6 202 211.4 202 C 210.1 202 208.9 202.3 207.9 203 C 207 203.6 206.2 204.5 205.7 205.6 C 205.2 206.6 204.9 207.7 204.9 208.9 C 204.9 208.9 204.9 210.9 204.9 210.9 C 204.9 212.5 205.2 213.9 205.8 215 C 206.3 216.2 207.1 217.1 208.2 217.6 C 209.2 218.2 210.4 218.5 211.7 218.5 C 212.6 218.5 213.4 218.4 214.1 218.2 C 214.8 217.9 215.5 217.5 216 217 C 216.5 216.5 216.9 215.9 217.2 215.1 C 217.2 215.1 220.4 216 220.4 216 C 220.1 217.1 219.5 218.1 218.7 218.9 C 217.9 219.8 216.9 220.4 215.7 220.9 C 214.5 221.3 213.2 221.5 211.7 221.5 Z M 240.7 204.2 C 240.7 204.2 237.7 205 237.7 205 C 237.5 204.5 237.3 204 236.9 203.5 C 236.5 203.1 236 202.7 235.4 202.4 C 234.8 202 234 201.9 233 201.9 C 231.7 201.9 230.6 202.2 229.7 202.8 C 228.8 203.4 228.4 204.2 228.4 205.1 C 228.4 206 228.7 206.6 229.3 207.1 C 229.9 207.6 230.8 208 232.1 208.3 C 232.1 208.3 235.3 209.1 235.3 209.1 C 237.3 209.6 238.7 210.3 239.7 211.3 C 240.7 212.2 241.1 213.5 241.1 215 C 241.1 216.3 240.8 217.4 240.1 218.4 C 239.3 219.3 238.4 220.1 237.1 220.7 C 235.8 221.3 234.3 221.5 232.6 221.5 C 230.4 221.5 228.5 221.1 227.1 220.1 C 225.6 219.1 224.7 217.7 224.3 215.9 C 224.3 215.9 227.5 215.1 227.5 215.1 C 227.8 216.2 228.4 217.1 229.2 217.7 C 230.1 218.3 231.2 218.6 232.6 218.6 C 234.1 218.6 235.4 218.3 236.3 217.6 C 237.2 216.9 237.7 216.1 237.7 215.2 C 237.7 214.4 237.4 213.8 236.9 213.3 C 236.3 212.8 235.5 212.4 234.4 212.1 C 234.4 212.1 230.8 211.3 230.8 211.3 C 228.8 210.8 227.3 210.1 226.4 209.1 C 225.5 208.1 225 206.8 225 205.3 C 225 204.1 225.3 203 226 202 C 226.7 201.1 227.7 200.3 228.9 199.8 C 230.1 199.3 231.5 199 233 199 C 235.2 199 236.9 199.5 238.1 200.4 C 239.3 201.4 240.2 202.6 240.7 204.2 Z M 261.3 204.2 C 261.3 204.2 258.2 205 258.2 205 C 258 204.5 257.8 204 257.4 203.5 C 257 203.1 256.5 202.7 255.9 202.4 C 255.3 202 254.5 201.9 253.5 201.9 C 252.2 201.9 251.1 202.2 250.2 202.8 C 249.3 203.4 248.9 204.2 248.9 205.1 C 248.9 206 249.2 206.6 249.8 207.1 C 250.4 207.6 251.3 208 252.6 208.3 C 252.6 208.3 255.9 209.1 255.9 209.1 C 257.8 209.6 259.3 210.3 260.2 211.3 C 261.2 212.2 261.6 213.5 261.6 215 C 261.6 216.3 261.3 217.4 260.6 218.4 C 259.9 219.3 258.9 220.1 257.6 220.7 C 256.3 221.3 254.8 221.5 253.1 221.5 C 250.9 221.5 249.1 221.1 247.6 220.1 C 246.1 219.1 245.2 217.7 244.8 215.9 C 244.8 215.9 248 215.1 248 215.1 C 248.3 216.2 248.9 217.1 249.7 217.7 C 250.6 218.3 251.7 218.6 253.1 218.6 C 254.6 218.6 255.9 218.3 256.8 217.6 C 257.7 216.9 258.2 216.1 258.2 215.2 C 258.2 214.4 257.9 213.8 257.4 213.3 C 256.9 212.8 256 212.4 254.9 212.1 C 254.9 212.1 251.3 211.3 251.3 211.3 C 249.3 210.8 247.8 210.1 246.9 209.1 C 246 208.1 245.5 206.8 245.5 205.3 C 245.5 204.1 245.9 203 246.6 202 C 247.3 201.1 248.2 200.3 249.4 199.8 C 250.6 199.3 252 199 253.5 199 C 255.7 199 257.4 199.5 258.6 200.4 C 259.9 201.4 260.7 202.6 261.3 204.2 Z " stroke="none" fill="#ffffff"/>  </g>  <g id="Polygon108200">    <path d="M 52.1 151.3 L 52.1 154.1 L 40.8 154.1 L 40.8 151.3 L 52.1 151.3 Z M 44.1 146 L 47.4 146 C 47.4 146 47.43 166.84 47.4 166.8 C 47.4 167.8 47.6 168.5 47.8 169 C 48.1 169.4 48.5 169.7 48.9 169.9 C 49.4 170.1 49.8 170.1 50.3 170.1 C 50.7 170.1 51 170.1 51.2 170.1 C 51.5 170 51.7 170 51.8 170 C 51.8 170 52.5 173 52.5 173 C 52.3 173.1 51.9 173.1 51.5 173.2 C 51.1 173.3 50.6 173.4 50 173.4 C 49 173.4 48.1 173.2 47.2 172.8 C 46.3 172.4 45.6 171.7 45 170.9 C 44.4 170.1 44.1 169 44.1 167.8 C 44.08 167.75 44.1 146 44.1 146 Z M 59.8 160 C 59.81 159.97 59.8 173.1 59.8 173.1 L 56.5 173.1 L 56.5 144 L 59.8 144 L 59.8 154.7 C 59.8 154.7 60.09 154.68 60.1 154.7 C 60.6 153.6 61.4 152.7 62.4 152 C 63.4 151.3 64.8 151 66.5 151 C 68 151 69.3 151.3 70.4 151.9 C 71.5 152.5 72.4 153.4 73 154.6 C 73.6 155.8 74 157.4 74 159.2 C 73.96 159.23 74 173.1 74 173.1 L 70.6 173.1 C 70.6 173.1 70.6 159.45 70.6 159.5 C 70.6 157.7 70.2 156.4 69.3 155.4 C 68.4 154.5 67.1 154 65.5 154 C 64.4 154 63.5 154.2 62.6 154.7 C 61.7 155.2 61.1 155.8 60.6 156.7 C 60.1 157.6 59.8 158.7 59.8 160 Z M 88.8 173.5 C 86.7 173.5 84.9 173.1 83.4 172.1 C 81.9 171.2 80.7 169.9 79.9 168.2 C 79.1 166.5 78.7 164.6 78.7 162.4 C 78.7 160.1 79.1 158.1 79.9 156.4 C 80.7 154.7 81.8 153.4 83.3 152.4 C 84.8 151.5 86.5 151 88.5 151 C 89.6 151 90.7 151.2 91.8 151.6 C 93 151.9 94 152.5 94.9 153.4 C 95.8 154.2 96.5 155.4 97 156.8 C 97.6 158.1 97.9 159.9 97.9 161.9 C 97.86 161.9 97.9 163.3 97.9 163.3 L 81 163.3 L 81 160.4 C 81 160.4 94.45 160.42 94.4 160.4 C 94.4 159.2 94.2 158.1 93.7 157.1 C 93.2 156.2 92.5 155.4 91.6 154.8 C 90.7 154.3 89.7 154 88.5 154 C 87.1 154 86 154.3 85 155 C 84.1 155.6 83.3 156.5 82.8 157.6 C 82.3 158.6 82 159.7 82 160.9 C 82 160.9 82 162.9 82 162.9 C 82 164.5 82.3 165.9 82.9 167 C 83.4 168.2 84.2 169.1 85.3 169.6 C 86.3 170.2 87.5 170.5 88.8 170.5 C 89.7 170.5 90.5 170.4 91.2 170.2 C 91.9 169.9 92.5 169.5 93.1 169 C 93.6 168.5 94 167.9 94.3 167.1 C 94.3 167.1 97.5 168 97.5 168 C 97.2 169.1 96.6 170.1 95.8 170.9 C 95 171.8 94 172.4 92.8 172.9 C 91.6 173.3 90.3 173.5 88.8 173.5 Z M 119.2 173.1 L 112.5 151.3 L 116 151.3 L 120.8 168 L 121 168 L 125.6 151.3 L 129.2 151.3 L 133.8 167.9 L 134.1 167.9 L 138.8 151.3 L 142.3 151.3 L 135.6 173.1 L 132.3 173.1 L 127.6 156.3 L 127.2 156.3 L 122.5 173.1 L 119.2 173.1 Z M 152.1 173.6 C 150.7 173.6 149.5 173.3 148.4 172.8 C 147.2 172.3 146.3 171.5 145.7 170.5 C 145 169.5 144.7 168.3 144.7 166.9 C 144.7 165.6 144.9 164.6 145.4 163.9 C 145.9 163.1 146.6 162.5 147.4 162 C 148.2 161.6 149.1 161.2 150.1 161 C 151.1 160.8 152.1 160.6 153.1 160.5 C 154.5 160.3 155.5 160.2 156.4 160.1 C 157.2 160 157.8 159.8 158.2 159.6 C 158.6 159.4 158.8 159 158.8 158.5 C 158.8 158.5 158.8 158.4 158.8 158.4 C 158.8 157 158.4 155.9 157.6 155.1 C 156.9 154.3 155.7 153.9 154.2 153.9 C 152.6 153.9 151.3 154.3 150.4 155 C 149.5 155.7 148.9 156.4 148.5 157.2 C 148.5 157.2 145.3 156.1 145.3 156.1 C 145.9 154.8 146.6 153.7 147.6 153 C 148.5 152.3 149.6 151.7 150.7 151.4 C 151.8 151.1 153 151 154.1 151 C 154.8 151 155.6 151.1 156.5 151.2 C 157.4 151.4 158.3 151.7 159.1 152.3 C 160 152.8 160.7 153.5 161.3 154.6 C 161.8 155.6 162.1 157 162.1 158.7 C 162.12 158.72 162.1 173.1 162.1 173.1 L 158.8 173.1 L 158.8 170.1 C 158.8 170.1 158.6 170.14 158.6 170.1 C 158.4 170.6 158 171.1 157.5 171.7 C 156.9 172.2 156.2 172.7 155.3 173 C 154.5 173.4 153.4 173.6 152.1 173.6 Z M 152.6 170.6 C 154 170.6 155.1 170.3 156 169.8 C 156.9 169.3 157.6 168.6 158.1 167.8 C 158.5 167 158.8 166.1 158.8 165.2 C 158.8 165.2 158.8 162.1 158.8 162.1 C 158.6 162.3 158.3 162.4 157.8 162.6 C 157.4 162.7 156.8 162.8 156.2 162.9 C 155.6 163 155 163.1 154.4 163.2 C 153.8 163.3 153.3 163.3 153 163.4 C 152.1 163.5 151.3 163.7 150.5 163.9 C 149.8 164.2 149.2 164.5 148.7 165 C 148.3 165.5 148 166.2 148 167.1 C 148 168.2 148.5 169.1 149.3 169.7 C 150.2 170.3 151.3 170.6 152.6 170.6 Z M 169 181.3 C 168.4 181.3 167.9 181.2 167.4 181.1 C 167 181 166.7 181 166.5 180.9 C 166.5 180.9 167.4 177.9 167.4 177.9 C 168.2 178.1 168.9 178.2 169.5 178.1 C 170.2 178.1 170.7 177.8 171.2 177.3 C 171.7 176.8 172.1 176 172.5 174.9 C 172.55 174.91 173.2 173.2 173.2 173.2 L 165.1 151.3 L 168.7 151.3 L 174.8 168.7 L 175 168.7 L 181 151.3 L 184.7 151.3 C 184.7 151.3 175.39 176.27 175.4 176.3 C 175 177.4 174.5 178.3 173.8 179.1 C 173.2 179.8 172.5 180.4 171.7 180.7 C 170.9 181.1 170 181.3 169 181.3 Z M 202.5 181.3 C 201.9 181.3 201.4 181.2 201 181.1 C 200.5 181 200.2 181 200 180.9 C 200 180.9 200.9 177.9 200.9 177.9 C 201.7 178.1 202.4 178.2 203.1 178.1 C 203.7 178.1 204.2 177.8 204.7 177.3 C 205.2 176.8 205.7 176 206.1 174.9 C 206.07 174.91 206.7 173.2 206.7 173.2 L 198.6 151.3 L 202.3 151.3 L 208.3 168.7 L 208.5 168.7 L 214.5 151.3 L 218.2 151.3 C 218.2 151.3 208.91 176.27 208.9 176.3 C 208.5 177.4 208 178.3 207.4 179.1 C 206.7 179.8 206 180.4 205.2 180.7 C 204.4 181.1 203.5 181.3 202.5 181.3 Z M 230 173.5 C 228 173.5 226.3 173.1 224.8 172.1 C 223.3 171.2 222.2 169.9 221.4 168.2 C 220.5 166.5 220.1 164.5 220.1 162.3 C 220.1 160 220.5 158 221.4 156.3 C 222.2 154.6 223.3 153.3 224.8 152.4 C 226.3 151.5 228 151 230 151 C 232 151 233.7 151.5 235.2 152.4 C 236.7 153.3 237.8 154.6 238.6 156.3 C 239.5 158 239.9 160 239.9 162.3 C 239.9 164.5 239.5 166.5 238.6 168.2 C 237.8 169.9 236.7 171.2 235.2 172.1 C 233.7 173.1 232 173.5 230 173.5 Z M 230 170.5 C 231.5 170.5 232.7 170.2 233.7 169.4 C 234.7 168.6 235.4 167.6 235.8 166.4 C 236.3 165.1 236.5 163.8 236.5 162.3 C 236.5 160.8 236.3 159.5 235.8 158.2 C 235.4 157 234.7 155.9 233.7 155.2 C 232.7 154.4 231.5 154 230 154 C 228.5 154 227.3 154.4 226.3 155.2 C 225.3 155.9 224.6 157 224.2 158.2 C 223.7 159.5 223.5 160.8 223.5 162.3 C 223.5 163.8 223.7 165.1 224.2 166.4 C 224.6 167.6 225.3 168.6 226.3 169.4 C 227.3 170.2 228.5 170.5 230 170.5 Z M 258.3 164.2 C 258.26 164.17 258.3 151.3 258.3 151.3 L 261.6 151.3 L 261.6 173.1 L 258.3 173.1 L 258.3 169.4 C 258.3 169.4 258.03 169.4 258 169.4 C 257.5 170.5 256.7 171.4 255.6 172.2 C 254.6 173 253.2 173.4 251.6 173.4 C 250.2 173.4 249 173.1 247.9 172.5 C 246.9 171.9 246 171 245.4 169.7 C 244.8 168.5 244.5 167 244.5 165.1 C 244.51 165.14 244.5 151.3 244.5 151.3 L 247.9 151.3 C 247.9 151.3 247.86 164.91 247.9 164.9 C 247.9 166.5 248.3 167.8 249.2 168.7 C 250.1 169.7 251.2 170.1 252.6 170.1 C 253.5 170.1 254.3 169.9 255.2 169.5 C 256.1 169.1 256.8 168.4 257.4 167.5 C 258 166.7 258.3 165.5 258.3 164.2 Z " stroke="none" fill="#ffffff"/>  </g>  <g id="Polygon108199">    <path d="M 55.9 125.1 L 49.3 103.3 L 52.8 103.3 L 57.5 120 L 57.7 120 L 62.4 103.3 L 66 103.3 L 70.6 119.9 L 70.8 119.9 L 75.5 103.3 L 79.1 103.3 L 72.4 125.1 L 69.1 125.1 L 64.3 108.3 L 64 108.3 L 59.2 125.1 L 55.9 125.1 Z M 82.9 125.1 L 82.9 103.3 L 86.3 103.3 L 86.3 125.1 L 82.9 125.1 Z M 84.6 99.6 C 84 99.6 83.4 99.4 82.9 99 C 82.5 98.5 82.2 98 82.2 97.4 C 82.2 96.7 82.5 96.2 82.9 95.8 C 83.4 95.3 84 95.1 84.6 95.1 C 85.3 95.1 85.8 95.3 86.3 95.8 C 86.8 96.2 87 96.7 87 97.4 C 87 98 86.8 98.5 86.3 99 C 85.8 99.4 85.3 99.6 84.6 99.6 Z M 95.4 96 L 95.4 125.1 L 92.1 125.1 L 92.1 96 L 95.4 96 Z M 104.6 96 L 104.6 125.1 L 101.2 125.1 L 101.2 96 L 104.6 96 Z M 130.8 125.5 C 128.8 125.5 127 125.1 125.5 124.1 C 124 123.1 122.9 121.8 122.1 120.1 C 121.3 118.4 120.9 116.5 120.9 114.3 C 120.9 112.1 121.3 110.1 122.1 108.4 C 123 106.7 124.1 105.4 125.6 104.4 C 127.1 103.5 128.8 103 130.7 103 C 132.3 103 133.7 103.3 134.9 103.8 C 136.1 104.4 137.1 105.2 137.9 106.2 C 138.7 107.3 139.2 108.4 139.4 109.8 C 139.4 109.8 136 109.8 136 109.8 C 135.8 108.8 135.2 107.9 134.3 107.2 C 133.5 106.4 132.3 106 130.8 106 C 129.5 106 128.4 106.3 127.4 107 C 126.4 107.7 125.6 108.6 125.1 109.9 C 124.5 111.1 124.3 112.5 124.3 114.2 C 124.3 115.9 124.5 117.3 125.1 118.6 C 125.6 119.8 126.4 120.8 127.3 121.5 C 128.3 122.2 129.5 122.5 130.8 122.5 C 131.7 122.5 132.5 122.4 133.2 122.1 C 133.9 121.8 134.5 121.3 135 120.8 C 135.5 120.2 135.8 119.5 136 118.7 C 136 118.7 139.4 118.7 139.4 118.7 C 139.2 120 138.7 121.2 138 122.2 C 137.2 123.2 136.3 124 135 124.6 C 133.8 125.2 132.4 125.5 130.8 125.5 Z M 147.2 112 C 147.25 111.97 147.2 125.1 147.2 125.1 L 143.9 125.1 L 143.9 96 L 147.2 96 L 147.2 106.7 C 147.2 106.7 147.53 106.68 147.5 106.7 C 148 105.6 148.8 104.7 149.8 104 C 150.9 103.3 152.2 103 154 103 C 155.4 103 156.7 103.3 157.9 103.9 C 159 104.5 159.8 105.4 160.5 106.6 C 161.1 107.8 161.4 109.4 161.4 111.2 C 161.39 111.23 161.4 125.1 161.4 125.1 L 158 125.1 C 158 125.1 158.04 111.45 158 111.5 C 158 109.7 157.6 108.4 156.7 107.4 C 155.8 106.5 154.6 106 153 106 C 151.9 106 150.9 106.2 150 106.7 C 149.2 107.2 148.5 107.8 148 108.7 C 147.5 109.6 147.2 110.7 147.2 112 Z M 173.4 125.6 C 172 125.6 170.7 125.3 169.6 124.8 C 168.5 124.3 167.6 123.5 166.9 122.5 C 166.3 121.5 165.9 120.3 165.9 118.9 C 165.9 117.6 166.2 116.6 166.7 115.9 C 167.2 115.1 167.8 114.5 168.7 114 C 169.5 113.6 170.4 113.2 171.4 113 C 172.4 112.8 173.4 112.6 174.4 112.5 C 175.7 112.3 176.8 112.2 177.6 112.1 C 178.5 112 179.1 111.8 179.5 111.6 C 179.8 111.4 180 111 180 110.5 C 180 110.5 180 110.4 180 110.4 C 180 109 179.6 107.9 178.9 107.1 C 178.1 106.3 177 105.9 175.4 105.9 C 173.8 105.9 172.6 106.3 171.7 107 C 170.8 107.7 170.1 108.4 169.7 109.2 C 169.7 109.2 166.6 108.1 166.6 108.1 C 167.1 106.8 167.9 105.7 168.8 105 C 169.8 104.3 170.8 103.7 172 103.4 C 173.1 103.1 174.2 103 175.3 103 C 176 103 176.8 103.1 177.7 103.2 C 178.7 103.4 179.5 103.7 180.4 104.3 C 181.3 104.8 182 105.5 182.5 106.6 C 183.1 107.6 183.4 109 183.4 110.7 C 183.38 110.72 183.4 125.1 183.4 125.1 L 180 125.1 L 180 122.1 C 180 122.1 179.86 122.14 179.9 122.1 C 179.6 122.6 179.3 123.1 178.7 123.7 C 178.2 124.2 177.5 124.7 176.6 125 C 175.7 125.4 174.7 125.6 173.4 125.6 Z M 173.9 122.6 C 175.2 122.6 176.3 122.3 177.3 121.8 C 178.2 121.3 178.9 120.6 179.3 119.8 C 179.8 119 180 118.1 180 117.2 C 180 117.2 180 114.1 180 114.1 C 179.9 114.3 179.6 114.4 179.1 114.6 C 178.6 114.7 178.1 114.8 177.5 114.9 C 176.8 115 176.2 115.1 175.6 115.2 C 175.1 115.3 174.6 115.3 174.2 115.4 C 173.4 115.5 172.6 115.7 171.8 115.9 C 171 116.2 170.4 116.5 170 117 C 169.5 117.5 169.3 118.2 169.3 119.1 C 169.3 120.2 169.7 121.1 170.6 121.7 C 171.5 122.3 172.6 122.6 173.9 122.6 Z M 192.5 112 C 192.5 111.97 192.5 125.1 192.5 125.1 L 189.1 125.1 L 189.1 103.3 L 192.4 103.3 L 192.4 106.7 C 192.4 106.7 192.67 106.68 192.7 106.7 C 193.2 105.6 194 104.7 195 104 C 196 103.3 197.4 103 199 103 C 200.5 103 201.8 103.3 202.9 103.9 C 204 104.5 204.9 105.4 205.5 106.6 C 206.1 107.8 206.4 109.4 206.4 111.2 C 206.42 111.23 206.4 125.1 206.4 125.1 L 203.1 125.1 C 203.1 125.1 203.06 111.45 203.1 111.5 C 203.1 109.7 202.6 108.4 201.7 107.4 C 200.8 106.5 199.6 106 198.1 106 C 197 106 196 106.2 195.2 106.7 C 194.4 107.2 193.7 107.8 193.2 108.7 C 192.7 109.6 192.5 110.7 192.5 112 Z M 220.9 133.7 C 219.2 133.7 217.8 133.5 216.7 133.1 C 215.5 132.7 214.5 132.2 213.8 131.5 C 213 130.8 212.4 130.1 211.9 129.4 C 211.9 129.4 214.6 127.5 214.6 127.5 C 214.9 127.9 215.3 128.3 215.8 128.8 C 216.2 129.4 216.9 129.8 217.7 130.2 C 218.5 130.6 219.5 130.8 220.9 130.8 C 222.6 130.8 224.1 130.3 225.2 129.5 C 226.4 128.6 226.9 127.3 226.9 125.5 C 226.94 125.49 226.9 121.1 226.9 121.1 C 226.9 121.1 226.65 121.06 226.7 121.1 C 226.4 121.5 226.1 121.9 225.6 122.5 C 225.2 123.1 224.5 123.6 223.7 124.1 C 222.8 124.5 221.7 124.8 220.3 124.8 C 218.5 124.8 217 124.3 215.6 123.5 C 214.2 122.7 213.1 121.5 212.2 119.9 C 211.4 118.3 211 116.3 211 114.1 C 211 111.8 211.4 109.9 212.2 108.2 C 213 106.6 214.1 105.3 215.5 104.4 C 216.9 103.4 218.5 103 220.3 103 C 221.8 103 222.9 103.2 223.7 103.7 C 224.6 104.2 225.2 104.7 225.7 105.3 C 226.1 105.9 226.5 106.4 226.7 106.7 C 226.71 106.74 227.1 106.7 227.1 106.7 L 227.1 103.3 L 230.3 103.3 C 230.3 103.3 230.29 125.72 230.3 125.7 C 230.3 127.6 229.9 129.1 229 130.3 C 228.2 131.5 227 132.3 225.6 132.9 C 224.2 133.5 222.6 133.7 220.9 133.7 Z M 220.7 121.7 C 222.1 121.7 223.2 121.4 224.2 120.8 C 225.1 120.2 225.8 119.3 226.3 118.2 C 226.8 117 227 115.6 227 114 C 227 112.4 226.8 111.1 226.3 109.8 C 225.8 108.6 225.1 107.7 224.2 107 C 223.3 106.3 222.1 106 220.7 106 C 219.3 106 218.1 106.4 217.2 107.1 C 216.3 107.8 215.6 108.8 215.1 110 C 214.6 111.2 214.4 112.5 214.4 114 C 214.4 115.5 214.6 116.9 215.1 118 C 215.6 119.2 216.3 120.1 217.2 120.8 C 218.2 121.4 219.3 121.7 220.7 121.7 Z M 245.2 125.5 C 243.1 125.5 241.3 125.1 239.8 124.1 C 238.3 123.2 237.1 121.9 236.3 120.2 C 235.5 118.5 235 116.6 235 114.4 C 235 112.1 235.5 110.1 236.3 108.4 C 237.1 106.7 238.2 105.4 239.7 104.4 C 241.2 103.5 242.9 103 244.9 103 C 246 103 247.1 103.2 248.2 103.6 C 249.3 103.9 250.4 104.5 251.3 105.4 C 252.2 106.2 252.9 107.4 253.4 108.8 C 254 110.1 254.2 111.9 254.2 113.9 C 254.25 113.9 254.2 115.3 254.2 115.3 L 237.4 115.3 L 237.4 112.4 C 237.4 112.4 250.84 112.42 250.8 112.4 C 250.8 111.2 250.6 110.1 250.1 109.1 C 249.6 108.2 248.9 107.4 248 106.8 C 247.1 106.3 246.1 106 244.9 106 C 243.5 106 242.4 106.3 241.4 107 C 240.4 107.6 239.7 108.5 239.2 109.6 C 238.7 110.6 238.4 111.7 238.4 112.9 C 238.4 112.9 238.4 114.9 238.4 114.9 C 238.4 116.5 238.7 117.9 239.3 119 C 239.8 120.2 240.6 121.1 241.6 121.6 C 242.7 122.2 243.9 122.5 245.2 122.5 C 246.1 122.5 246.9 122.4 247.6 122.2 C 248.3 121.9 248.9 121.5 249.5 121 C 250 120.5 250.4 119.9 250.7 119.1 C 250.7 119.1 253.9 120 253.9 120 C 253.6 121.1 253 122.1 252.2 122.9 C 251.4 123.8 250.4 124.4 249.2 124.9 C 248 125.3 246.7 125.5 245.2 125.5 Z " stroke="none" fill="#ffffff"/>  </g>  <g id="Polygon108198">    <path d="M 46.9 85.3 L 46.9 55.3 L 50.2 55.3 L 50.2 58.7 C 50.2 58.7 50.58 58.74 50.6 58.7 C 50.8 58.4 51.2 57.9 51.6 57.3 C 52.1 56.7 52.7 56.2 53.5 55.7 C 54.3 55.2 55.5 55 56.9 55 C 58.7 55 60.3 55.4 61.7 56.4 C 63.1 57.3 64.2 58.6 65 60.3 C 65.8 62 66.2 63.9 66.2 66.2 C 66.2 68.5 65.8 70.5 65 72.2 C 64.2 73.9 63.2 75.2 61.8 76.2 C 60.4 77.1 58.8 77.5 56.9 77.5 C 55.5 77.5 54.4 77.3 53.6 76.8 C 52.7 76.4 52.1 75.8 51.6 75.2 C 51.2 74.6 50.8 74.1 50.6 73.7 C 50.58 73.74 50.3 73.7 50.3 73.7 L 50.3 85.3 L 46.9 85.3 Z M 50.2 66.2 C 50.2 67.8 50.5 69.3 51 70.5 C 51.5 71.8 52.2 72.8 53.1 73.5 C 54 74.2 55.1 74.5 56.5 74.5 C 57.9 74.5 59.1 74.2 60 73.4 C 61 72.7 61.7 71.7 62.1 70.4 C 62.6 69.1 62.9 67.7 62.9 66.2 C 62.9 64.6 62.6 63.3 62.2 62 C 61.7 60.8 61 59.8 60 59.1 C 59.1 58.4 57.9 58 56.5 58 C 55.1 58 54 58.3 53.1 59 C 52.1 59.7 51.4 60.7 51 61.9 C 50.5 63.1 50.2 64.6 50.2 66.2 Z M 71 77.1 L 71 55.3 L 74.2 55.3 L 74.2 58.6 C 74.2 58.6 74.45 58.57 74.4 58.6 C 74.8 57.5 75.6 56.6 76.6 55.9 C 77.6 55.3 78.8 54.9 80.1 54.9 C 80.4 54.9 80.7 54.9 81.1 54.9 C 81.4 55 81.7 55 81.9 55 C 81.9 55 81.9 58.4 81.9 58.4 C 81.8 58.4 81.5 58.3 81.1 58.3 C 80.7 58.2 80.3 58.2 79.8 58.2 C 78.8 58.2 77.8 58.4 77 58.8 C 76.2 59.3 75.5 59.9 75.1 60.6 C 74.6 61.4 74.3 62.3 74.3 63.3 C 74.33 63.28 74.3 77.1 74.3 77.1 L 71 77.1 Z M 93.9 77.5 C 91.9 77.5 90.2 77.1 88.7 76.1 C 87.3 75.2 86.1 73.9 85.3 72.2 C 84.4 70.5 84 68.5 84 66.3 C 84 64 84.4 62 85.3 60.3 C 86.1 58.6 87.3 57.3 88.7 56.4 C 90.2 55.5 91.9 55 93.9 55 C 95.9 55 97.6 55.5 99.1 56.4 C 100.6 57.3 101.7 58.6 102.6 60.3 C 103.4 62 103.8 64 103.8 66.3 C 103.8 68.5 103.4 70.5 102.6 72.2 C 101.7 73.9 100.6 75.2 99.1 76.1 C 97.6 77.1 95.9 77.5 93.9 77.5 Z M 93.9 74.5 C 95.4 74.5 96.6 74.2 97.6 73.4 C 98.6 72.6 99.3 71.6 99.7 70.4 C 100.2 69.1 100.4 67.8 100.4 66.3 C 100.4 64.8 100.2 63.5 99.7 62.2 C 99.3 61 98.6 59.9 97.6 59.2 C 96.6 58.4 95.4 58 93.9 58 C 92.4 58 91.2 58.4 90.2 59.2 C 89.3 59.9 88.5 61 88.1 62.2 C 87.6 63.5 87.4 64.8 87.4 66.3 C 87.4 67.8 87.6 69.1 88.1 70.4 C 88.5 71.6 89.3 72.6 90.2 73.4 C 91.2 74.2 92.4 74.5 93.9 74.5 Z M 108.6 77.1 L 108.6 55.3 L 111.8 55.3 L 111.8 58.7 C 111.8 58.7 112.09 58.68 112.1 58.7 C 112.5 57.5 113.3 56.6 114.3 56 C 115.3 55.3 116.5 55 117.9 55 C 119.4 55 120.6 55.3 121.5 56 C 122.5 56.6 123.3 57.5 123.8 58.7 C 123.8 58.7 124 58.7 124 58.7 C 124.6 57.6 125.4 56.7 126.5 56 C 127.7 55.3 129 55 130.6 55 C 132.5 55 134.1 55.6 135.3 56.8 C 136.6 58 137.2 59.9 137.2 62.5 C 137.2 62.49 137.2 77.1 137.2 77.1 L 133.9 77.1 C 133.9 77.1 133.85 62.49 133.9 62.5 C 133.9 60.9 133.4 59.7 132.5 59 C 131.7 58.3 130.6 58 129.4 58 C 127.9 58 126.7 58.5 125.9 59.4 C 125 60.3 124.6 61.5 124.6 62.9 C 124.59 62.89 124.6 77.1 124.6 77.1 L 121.2 77.1 C 121.2 77.1 121.18 62.15 121.2 62.1 C 121.2 60.9 120.8 59.9 120 59.1 C 119.2 58.4 118.1 58 116.9 58 C 116 58 115.2 58.2 114.4 58.7 C 113.7 59.2 113.1 59.8 112.6 60.6 C 112.1 61.4 111.9 62.4 111.9 63.5 C 111.92 63.45 111.9 77.1 111.9 77.1 L 108.6 77.1 Z M 142.9 77.1 L 142.9 55.3 L 146.2 55.3 L 146.2 77.1 L 142.9 77.1 Z M 144.6 51.6 C 143.9 51.6 143.4 51.4 142.9 51 C 142.4 50.5 142.2 50 142.2 49.4 C 142.2 48.7 142.4 48.2 142.9 47.8 C 143.4 47.3 143.9 47.1 144.6 47.1 C 145.2 47.1 145.8 47.3 146.3 47.8 C 146.7 48.2 147 48.7 147 49.4 C 147 50 146.7 50.5 146.3 51 C 145.8 51.4 145.2 51.6 144.6 51.6 Z M 167.2 60.2 C 167.2 60.2 164.2 61 164.2 61 C 164 60.5 163.8 60 163.4 59.5 C 163 59.1 162.5 58.7 161.9 58.4 C 161.3 58 160.5 57.9 159.5 57.9 C 158.2 57.9 157.1 58.2 156.2 58.8 C 155.3 59.4 154.9 60.2 154.9 61.1 C 154.9 62 155.2 62.6 155.8 63.1 C 156.4 63.6 157.3 64 158.6 64.3 C 158.6 64.3 161.8 65.1 161.8 65.1 C 163.8 65.6 165.3 66.3 166.2 67.3 C 167.2 68.2 167.6 69.5 167.6 71 C 167.6 72.3 167.3 73.4 166.6 74.4 C 165.9 75.3 164.9 76.1 163.6 76.7 C 162.3 77.3 160.8 77.5 159.1 77.5 C 156.9 77.5 155.1 77.1 153.6 76.1 C 152.1 75.1 151.2 73.7 150.8 71.9 C 150.8 71.9 154 71.1 154 71.1 C 154.3 72.2 154.9 73.1 155.7 73.7 C 156.6 74.3 157.7 74.6 159.1 74.6 C 160.6 74.6 161.9 74.3 162.8 73.6 C 163.7 72.9 164.2 72.1 164.2 71.2 C 164.2 70.4 163.9 69.8 163.4 69.3 C 162.9 68.8 162 68.4 160.9 68.1 C 160.9 68.1 157.3 67.3 157.3 67.3 C 155.3 66.8 153.8 66.1 152.9 65.1 C 152 64.1 151.5 62.8 151.5 61.3 C 151.5 60.1 151.9 59 152.6 58 C 153.2 57.1 154.2 56.3 155.4 55.8 C 156.6 55.3 158 55 159.5 55 C 161.7 55 163.4 55.5 164.6 56.4 C 165.8 57.4 166.7 58.6 167.2 60.2 Z M 172.2 77.1 L 172.2 55.3 L 175.5 55.3 L 175.5 77.1 L 172.2 77.1 Z M 173.9 51.6 C 173.2 51.6 172.7 51.4 172.2 51 C 171.7 50.5 171.5 50 171.5 49.4 C 171.5 48.7 171.7 48.2 172.2 47.8 C 172.7 47.3 173.2 47.1 173.9 47.1 C 174.5 47.1 175.1 47.3 175.6 47.8 C 176 48.2 176.3 48.7 176.3 49.4 C 176.3 50 176 50.5 175.6 51 C 175.1 51.4 174.5 51.6 173.9 51.6 Z M 184.7 64 C 184.7 63.97 184.7 77.1 184.7 77.1 L 181.3 77.1 L 181.3 55.3 L 184.6 55.3 L 184.6 58.7 C 184.6 58.7 184.87 58.68 184.9 58.7 C 185.4 57.6 186.2 56.7 187.2 56 C 188.2 55.3 189.6 55 191.2 55 C 192.7 55 194 55.3 195.1 55.9 C 196.2 56.5 197.1 57.4 197.7 58.6 C 198.3 59.8 198.6 61.4 198.6 63.2 C 198.62 63.23 198.6 77.1 198.6 77.1 L 195.3 77.1 C 195.3 77.1 195.27 63.45 195.3 63.5 C 195.3 61.7 194.8 60.4 193.9 59.4 C 193 58.5 191.8 58 190.3 58 C 189.2 58 188.2 58.2 187.4 58.7 C 186.6 59.2 185.9 59.8 185.4 60.7 C 184.9 61.6 184.7 62.7 184.7 64 Z M 213.1 85.7 C 211.4 85.7 210.1 85.5 208.9 85.1 C 207.7 84.7 206.8 84.2 206 83.5 C 205.2 82.8 204.6 82.1 204.1 81.4 C 204.1 81.4 206.8 79.5 206.8 79.5 C 207.1 79.9 207.5 80.3 208 80.8 C 208.4 81.4 209.1 81.8 209.9 82.2 C 210.7 82.6 211.7 82.8 213.1 82.8 C 214.8 82.8 216.3 82.3 217.4 81.5 C 218.6 80.6 219.1 79.3 219.1 77.5 C 219.14 77.49 219.1 73.1 219.1 73.1 C 219.1 73.1 218.86 73.06 218.9 73.1 C 218.6 73.5 218.3 73.9 217.8 74.5 C 217.4 75.1 216.7 75.6 215.9 76.1 C 215 76.5 213.9 76.8 212.5 76.8 C 210.7 76.8 209.2 76.3 207.8 75.5 C 206.4 74.7 205.3 73.5 204.4 71.9 C 203.6 70.3 203.2 68.3 203.2 66.1 C 203.2 63.8 203.6 61.9 204.4 60.2 C 205.2 58.6 206.3 57.3 207.7 56.4 C 209.1 55.4 210.7 55 212.6 55 C 214 55 215.1 55.2 215.9 55.7 C 216.8 56.2 217.4 56.7 217.9 57.3 C 218.3 57.9 218.7 58.4 218.9 58.7 C 218.91 58.74 219.3 58.7 219.3 58.7 L 219.3 55.3 L 222.5 55.3 C 222.5 55.3 222.49 77.72 222.5 77.7 C 222.5 79.6 222.1 81.1 221.2 82.3 C 220.4 83.5 219.2 84.3 217.8 84.9 C 216.4 85.5 214.8 85.7 213.1 85.7 Z M 212.9 73.7 C 214.3 73.7 215.4 73.4 216.4 72.8 C 217.3 72.2 218 71.3 218.5 70.2 C 219 69 219.2 67.6 219.2 66 C 219.2 64.4 219 63.1 218.5 61.8 C 218 60.6 217.3 59.7 216.4 59 C 215.5 58.3 214.3 58 212.9 58 C 211.5 58 210.3 58.4 209.4 59.1 C 208.5 59.8 207.8 60.8 207.3 62 C 206.8 63.2 206.6 64.5 206.6 66 C 206.6 67.5 206.8 68.9 207.3 70 C 207.8 71.2 208.5 72.1 209.4 72.8 C 210.4 73.4 211.5 73.7 212.9 73.7 Z M 239.9 77.1 L 239.9 55.3 L 243.2 55.3 L 243.2 77.1 L 239.9 77.1 Z M 241.6 51.6 C 240.9 51.6 240.4 51.4 239.9 51 C 239.4 50.5 239.2 50 239.2 49.4 C 239.2 48.7 239.4 48.2 239.9 47.8 C 240.4 47.3 240.9 47.1 241.6 47.1 C 242.2 47.1 242.8 47.3 243.3 47.8 C 243.7 48.2 244 48.7 244 49.4 C 244 50 243.7 50.5 243.3 51 C 242.8 51.4 242.2 51.6 241.6 51.6 Z M 258.3 55.3 L 258.3 58.1 L 247 58.1 L 247 55.3 L 258.3 55.3 Z M 250.3 50 L 253.7 50 C 253.7 50 253.69 70.84 253.7 70.8 C 253.7 71.8 253.8 72.5 254.1 73 C 254.4 73.4 254.7 73.7 255.2 73.9 C 255.6 74.1 256.1 74.1 256.6 74.1 C 257 74.1 257.3 74.1 257.5 74.1 C 257.7 74 257.9 74 258.1 74 C 258.1 74 258.7 77 258.7 77 C 258.5 77.1 258.2 77.1 257.8 77.2 C 257.4 77.3 256.9 77.4 256.2 77.4 C 255.3 77.4 254.4 77.2 253.5 76.8 C 252.6 76.4 251.8 75.7 251.2 74.9 C 250.6 74.1 250.3 73 250.3 71.8 C 250.33 71.75 250.3 50 250.3 50 Z " stroke="none" fill="#ffffff"/>  </g>  <g id="Polygon108197">    <path d="M 56.5 29.1 L 56.5 0 L 74.1 0 L 74.1 3.1 L 60 3.1 L 60 13 L 73.2 13 L 73.2 16.1 L 60 16.1 L 60 26 L 74.3 26 L 74.3 29.1 L 56.5 29.1 Z M 96.1 7.3 L 88 29.1 L 84.6 29.1 L 76.5 7.3 L 80.2 7.3 L 86.2 24.7 L 86.4 24.7 L 92.4 7.3 L 96.1 7.3 Z M 108.2 29.5 C 106.1 29.5 104.3 29.1 102.7 28.1 C 101.2 27.2 100 25.9 99.2 24.2 C 98.4 22.5 98 20.6 98 18.4 C 98 16.1 98.4 14.1 99.2 12.4 C 100 10.7 101.2 9.4 102.7 8.4 C 104.1 7.5 105.9 7 107.8 7 C 109 7 110.1 7.2 111.2 7.6 C 112.3 7.9 113.3 8.5 114.2 9.4 C 115.1 10.2 115.9 11.4 116.4 12.8 C 116.9 14.1 117.2 15.9 117.2 17.9 C 117.21 17.9 117.2 19.3 117.2 19.3 L 100.4 19.3 L 100.4 16.4 C 100.4 16.4 113.8 16.42 113.8 16.4 C 113.8 15.2 113.6 14.1 113.1 13.1 C 112.6 12.2 111.9 11.4 111 10.8 C 110.1 10.3 109 10 107.8 10 C 106.5 10 105.3 10.3 104.4 11 C 103.4 11.6 102.7 12.5 102.1 13.6 C 101.6 14.6 101.4 15.7 101.4 16.9 C 101.4 16.9 101.4 18.9 101.4 18.9 C 101.4 20.5 101.6 21.9 102.2 23 C 102.8 24.2 103.6 25.1 104.6 25.6 C 105.6 26.2 106.8 26.5 108.2 26.5 C 109.1 26.5 109.9 26.4 110.6 26.2 C 111.3 25.9 111.9 25.5 112.4 25 C 112.9 24.5 113.3 23.9 113.6 23.1 C 113.6 23.1 116.9 24 116.9 24 C 116.5 25.1 116 26.1 115.1 26.9 C 114.3 27.8 113.3 28.4 112.2 28.9 C 111 29.3 109.6 29.5 108.2 29.5 Z M 122 29.1 L 122 7.3 L 125.2 7.3 L 125.2 10.6 C 125.2 10.6 125.45 10.57 125.4 10.6 C 125.8 9.5 126.6 8.6 127.6 7.9 C 128.6 7.3 129.8 6.9 131.1 6.9 C 131.4 6.9 131.7 6.9 132.1 6.9 C 132.4 7 132.7 7 132.9 7 C 132.9 7 132.9 10.4 132.9 10.4 C 132.8 10.4 132.5 10.3 132.1 10.3 C 131.7 10.2 131.3 10.2 130.8 10.2 C 129.8 10.2 128.8 10.4 128 10.8 C 127.2 11.3 126.5 11.9 126 12.6 C 125.6 13.4 125.3 14.3 125.3 15.3 C 125.33 15.28 125.3 29.1 125.3 29.1 L 122 29.1 Z M 139.6 37.3 C 139 37.3 138.5 37.2 138.1 37.1 C 137.6 37 137.3 37 137.1 36.9 C 137.1 36.9 138 33.9 138 33.9 C 138.8 34.1 139.5 34.2 140.2 34.1 C 140.8 34.1 141.3 33.8 141.8 33.3 C 142.3 32.8 142.8 32 143.2 30.9 C 143.16 30.91 143.8 29.2 143.8 29.2 L 135.7 7.3 L 139.4 7.3 L 145.4 24.7 L 145.6 24.7 L 151.6 7.3 L 155.3 7.3 C 155.3 7.3 146.01 32.27 146 32.3 C 145.6 33.4 145.1 34.3 144.5 35.1 C 143.8 35.8 143.1 36.4 142.3 36.7 C 141.5 37.1 140.6 37.3 139.6 37.3 Z M 167.1 29.5 C 165.1 29.5 163.4 29.1 161.9 28.1 C 160.4 27.2 159.3 25.9 158.5 24.2 C 157.6 22.5 157.2 20.5 157.2 18.3 C 157.2 16 157.6 14 158.5 12.3 C 159.3 10.6 160.4 9.3 161.9 8.4 C 163.4 7.5 165.1 7 167.1 7 C 169.1 7 170.8 7.5 172.3 8.4 C 173.8 9.3 174.9 10.6 175.7 12.3 C 176.6 14 177 16 177 18.3 C 177 20.5 176.6 22.5 175.7 24.2 C 174.9 25.9 173.8 27.2 172.3 28.1 C 170.8 29.1 169.1 29.5 167.1 29.5 Z M 167.1 26.5 C 168.6 26.5 169.8 26.2 170.8 25.4 C 171.8 24.6 172.5 23.6 172.9 22.4 C 173.4 21.1 173.6 19.8 173.6 18.3 C 173.6 16.8 173.4 15.5 172.9 14.2 C 172.5 13 171.8 11.9 170.8 11.2 C 169.8 10.4 168.6 10 167.1 10 C 165.6 10 164.4 10.4 163.4 11.2 C 162.4 11.9 161.7 13 161.3 14.2 C 160.8 15.5 160.6 16.8 160.6 18.3 C 160.6 19.8 160.8 21.1 161.3 22.4 C 161.7 23.6 162.4 24.6 163.4 25.4 C 164.4 26.2 165.6 26.5 167.1 26.5 Z M 185.1 16 C 185.1 15.97 185.1 29.1 185.1 29.1 L 181.7 29.1 L 181.7 7.3 L 185 7.3 L 185 10.7 C 185 10.7 185.27 10.68 185.3 10.7 C 185.8 9.6 186.6 8.7 187.6 8 C 188.6 7.3 190 7 191.6 7 C 193.1 7 194.4 7.3 195.5 7.9 C 196.6 8.5 197.5 9.4 198.1 10.6 C 198.7 11.8 199 13.4 199 15.2 C 199.02 15.23 199 29.1 199 29.1 L 195.7 29.1 C 195.7 29.1 195.67 15.45 195.7 15.5 C 195.7 13.7 195.2 12.4 194.3 11.4 C 193.4 10.5 192.2 10 190.7 10 C 189.6 10 188.6 10.2 187.8 10.7 C 187 11.2 186.3 11.8 185.8 12.7 C 185.3 13.6 185.1 14.7 185.1 16 Z M 213.9 29.5 C 211.8 29.5 210 29.1 208.4 28.1 C 206.9 27.2 205.8 25.9 204.9 24.2 C 204.1 22.5 203.7 20.6 203.7 18.4 C 203.7 16.1 204.1 14.1 204.9 12.4 C 205.8 10.7 206.9 9.4 208.4 8.4 C 209.9 7.5 211.6 7 213.5 7 C 214.7 7 215.8 7.2 216.9 7.6 C 218 7.9 219 8.5 219.9 9.4 C 220.8 10.2 221.6 11.4 222.1 12.8 C 222.6 14.1 222.9 15.9 222.9 17.9 C 222.92 17.9 222.9 19.3 222.9 19.3 L 206.1 19.3 L 206.1 16.4 C 206.1 16.4 219.51 16.42 219.5 16.4 C 219.5 15.2 219.3 14.1 218.8 13.1 C 218.3 12.2 217.6 11.4 216.7 10.8 C 215.8 10.3 214.8 10 213.5 10 C 212.2 10 211.1 10.3 210.1 11 C 209.1 11.6 208.4 12.5 207.8 13.6 C 207.3 14.6 207.1 15.7 207.1 16.9 C 207.1 16.9 207.1 18.9 207.1 18.9 C 207.1 20.5 207.4 21.9 207.9 23 C 208.5 24.2 209.3 25.1 210.3 25.6 C 211.3 26.2 212.5 26.5 213.9 26.5 C 214.8 26.5 215.6 26.4 216.3 26.2 C 217 25.9 217.6 25.5 218.1 25 C 218.7 24.5 219.1 23.9 219.3 23.1 C 219.3 23.1 222.6 24 222.6 24 C 222.2 25.1 221.7 26.1 220.9 26.9 C 220.1 27.8 219.1 28.4 217.9 28.9 C 216.7 29.3 215.4 29.5 213.9 29.5 Z M 230.5 0 C 230.5 0 230.47 2.56 230.5 2.6 C 230.5 3.3 230.3 4.2 230 5 C 229.8 5.9 229.4 6.8 228.8 7.6 C 228.3 8.4 227.6 9.1 226.9 9.7 C 226.9 9.7 225.1 8.2 225.1 8.2 C 225.7 7.4 226.2 6.5 226.6 5.6 C 227.1 4.7 227.3 3.7 227.3 2.6 C 227.29 2.61 227.3 0 227.3 0 L 230.5 0 Z M 248.8 12.2 C 248.8 12.2 245.8 13 245.8 13 C 245.6 12.5 245.4 12 245 11.5 C 244.6 11.1 244.1 10.7 243.5 10.4 C 242.9 10 242.1 9.9 241.1 9.9 C 239.8 9.9 238.7 10.2 237.8 10.8 C 236.9 11.4 236.5 12.2 236.5 13.1 C 236.5 14 236.8 14.6 237.4 15.1 C 238 15.6 238.9 16 240.2 16.3 C 240.2 16.3 243.4 17.1 243.4 17.1 C 245.4 17.6 246.9 18.3 247.8 19.3 C 248.8 20.2 249.2 21.5 249.2 23 C 249.2 24.3 248.9 25.4 248.2 26.4 C 247.5 27.3 246.5 28.1 245.2 28.7 C 243.9 29.3 242.4 29.5 240.7 29.5 C 238.5 29.5 236.7 29.1 235.2 28.1 C 233.7 27.1 232.8 25.7 232.4 23.9 C 232.4 23.9 235.6 23.1 235.6 23.1 C 235.9 24.2 236.5 25.1 237.3 25.7 C 238.2 26.3 239.3 26.6 240.7 26.6 C 242.2 26.6 243.5 26.3 244.4 25.6 C 245.3 24.9 245.8 24.1 245.8 23.2 C 245.8 22.4 245.5 21.8 245 21.3 C 244.5 20.8 243.6 20.4 242.5 20.1 C 242.5 20.1 238.9 19.3 238.9 19.3 C 236.9 18.8 235.4 18.1 234.5 17.1 C 233.6 16.1 233.1 14.8 233.1 13.3 C 233.1 12.1 233.5 11 234.2 10 C 234.8 9.1 235.8 8.3 237 7.8 C 238.2 7.3 239.6 7 241.1 7 C 243.3 7 245 7.5 246.2 8.4 C 247.4 9.4 248.3 10.6 248.8 12.2 Z " stroke="none" fill="#ffffff"/>  </g></svg>