<?xml version="1.0" standalone="no"?><!DOCTYPE svg PUBLIC "-//W3C//DTD SVG 1.1//EN" "http://www.w3.org/Graphics/SVG/1.1/DTD/svg11.dtd"><svg xmlns="http://www.w3.org/2000/svg" version="1.1" width="241.3px" height="180.7px" viewBox="0 -5 241.3 180.7" style="top:-5px">  <desc>Reduce the need for technical expertise</desc>  <defs/>  <g id="Polygon125493">    <path d="M 57.1 157.3 C 55.3 157.3 53.8 157 52.5 156.2 C 51.2 155.5 50.2 154.5 49.5 153.1 C 48.8 151.8 48.5 150.2 48.5 148.4 C 48.5 146.6 48.8 145 49.5 143.6 C 50.2 142.3 51.2 141.2 52.4 140.5 C 53.7 139.7 55.2 139.3 56.9 139.3 C 58.1 139.3 59.1 139.5 60.1 139.9 C 61.1 140.2 62 140.8 62.8 141.5 C 63.5 142.3 64.1 143.2 64.5 144.3 C 64.9 145.4 65.1 146.7 65.1 148.2 C 65.12 148.18 65.1 149.5 65.1 149.5 L 50.4 149.5 L 50.4 146.5 C 50.4 146.5 60.57 146.51 60.6 146.5 C 60.6 145.8 60.4 145.2 60.1 144.7 C 59.8 144.1 59.4 143.7 58.9 143.4 C 58.3 143.1 57.7 142.9 57 142.9 C 56.3 142.9 55.6 143.1 55.1 143.4 C 54.5 143.8 54 144.2 53.7 144.8 C 53.4 145.4 53.2 146 53.2 146.7 C 53.2 146.7 53.2 149.5 53.2 149.5 C 53.2 150.4 53.4 151.1 53.7 151.8 C 54 152.4 54.5 152.9 55.1 153.2 C 55.7 153.6 56.4 153.7 57.2 153.7 C 57.7 153.7 58.2 153.7 58.7 153.5 C 59.1 153.3 59.5 153.1 59.8 152.8 C 60.1 152.5 60.4 152.1 60.5 151.7 C 60.5 151.7 65 152 65 152 C 64.8 153.1 64.3 154 63.6 154.8 C 62.9 155.6 62 156.2 60.9 156.7 C 59.8 157.1 58.6 157.3 57.1 157.3 Z M 71.5 139.5 L 74.7 145.6 L 78 139.5 L 83 139.5 L 77.9 148.3 L 83.1 157 L 78.2 157 L 74.7 151 L 71.3 157 L 66.3 157 L 71.5 148.3 L 66.5 139.5 L 71.5 139.5 Z M 85.5 163.5 L 85.5 139.5 L 90.3 139.5 L 90.3 142.5 C 90.3 142.5 90.49 142.48 90.5 142.5 C 90.7 142 91 141.5 91.4 141 C 91.8 140.6 92.3 140.1 93 139.8 C 93.7 139.5 94.5 139.3 95.5 139.3 C 96.7 139.3 97.9 139.6 99 140.3 C 100.1 141 100.9 142 101.6 143.3 C 102.2 144.6 102.5 146.3 102.5 148.3 C 102.5 150.2 102.2 151.9 101.6 153.2 C 101 154.6 100.1 155.6 99 156.3 C 98 156.9 96.8 157.3 95.4 157.3 C 94.5 157.3 93.7 157.1 93 156.8 C 92.4 156.5 91.9 156.1 91.4 155.6 C 91 155.2 90.7 154.7 90.5 154.2 C 90.49 154.2 90.3 154.2 90.3 154.2 L 90.3 163.5 L 85.5 163.5 Z M 90.2 148.3 C 90.2 149.3 90.4 150.2 90.7 151 C 91 151.8 91.4 152.4 91.9 152.8 C 92.5 153.2 93.1 153.4 93.9 153.4 C 94.7 153.4 95.4 153.2 95.9 152.8 C 96.5 152.3 96.9 151.7 97.2 151 C 97.4 150.2 97.6 149.3 97.6 148.3 C 97.6 147.3 97.4 146.4 97.2 145.6 C 96.9 144.8 96.5 144.2 95.9 143.8 C 95.4 143.4 94.7 143.2 93.9 143.2 C 93.1 143.2 92.5 143.4 91.9 143.8 C 91.4 144.2 91 144.8 90.7 145.6 C 90.4 146.3 90.2 147.2 90.2 148.3 Z M 113.5 157.3 C 111.7 157.3 110.2 157 108.9 156.2 C 107.6 155.5 106.6 154.5 105.9 153.1 C 105.2 151.8 104.9 150.2 104.9 148.4 C 104.9 146.6 105.2 145 105.9 143.6 C 106.6 142.3 107.6 141.2 108.9 140.5 C 110.1 139.7 111.6 139.3 113.3 139.3 C 114.5 139.3 115.6 139.5 116.6 139.9 C 117.6 140.2 118.4 140.8 119.2 141.5 C 119.9 142.3 120.5 143.2 120.9 144.3 C 121.3 145.4 121.6 146.7 121.6 148.2 C 121.55 148.18 121.6 149.5 121.6 149.5 L 106.8 149.5 L 106.8 146.5 C 106.8 146.5 117 146.51 117 146.5 C 117 145.8 116.8 145.2 116.5 144.7 C 116.2 144.1 115.8 143.7 115.3 143.4 C 114.8 143.1 114.1 142.9 113.4 142.9 C 112.7 142.9 112 143.1 111.5 143.4 C 110.9 143.8 110.5 144.2 110.2 144.8 C 109.8 145.4 109.7 146 109.7 146.7 C 109.7 146.7 109.7 149.5 109.7 149.5 C 109.7 150.4 109.8 151.1 110.1 151.8 C 110.5 152.4 110.9 152.9 111.5 153.2 C 112.1 153.6 112.8 153.7 113.6 153.7 C 114.2 153.7 114.7 153.7 115.1 153.5 C 115.5 153.3 115.9 153.1 116.2 152.8 C 116.6 152.5 116.8 152.1 117 151.7 C 117 151.7 121.5 152 121.5 152 C 121.2 153.1 120.8 154 120.1 154.8 C 119.4 155.6 118.5 156.2 117.4 156.7 C 116.3 157.1 115 157.3 113.5 157.3 Z M 124.7 157 L 124.7 139.5 L 129.4 139.5 L 129.4 142.6 C 129.4 142.6 129.61 142.59 129.6 142.6 C 129.9 141.5 130.5 140.7 131.2 140.1 C 132 139.6 132.8 139.3 133.8 139.3 C 134 139.3 134.3 139.3 134.6 139.3 C 134.9 139.4 135.1 139.4 135.3 139.5 C 135.3 139.5 135.3 143.8 135.3 143.8 C 135.1 143.7 134.8 143.6 134.4 143.6 C 134 143.5 133.6 143.5 133.3 143.5 C 132.6 143.5 131.9 143.7 131.4 144 C 130.8 144.3 130.4 144.7 130.1 145.2 C 129.7 145.8 129.6 146.4 129.6 147.1 C 129.57 147.12 129.6 157 129.6 157 L 124.7 157 Z M 147.5 139.5 L 147.5 143.2 L 137 143.2 L 137 139.5 L 147.5 139.5 Z M 139.4 135.4 L 144.2 135.4 C 144.2 135.4 144.22 151.64 144.2 151.6 C 144.2 152.1 144.3 152.4 144.4 152.7 C 144.6 152.9 144.8 153.1 145 153.2 C 145.2 153.3 145.5 153.3 145.9 153.3 C 146.1 153.3 146.3 153.3 146.5 153.3 C 146.8 153.2 146.9 153.2 147.1 153.2 C 147.1 153.2 147.8 156.8 147.8 156.8 C 147.6 156.9 147.2 156.9 146.8 157.1 C 146.4 157.2 145.8 157.2 145.2 157.2 C 144 157.3 143 157.1 142.1 156.8 C 141.3 156.4 140.6 155.9 140.1 155.1 C 139.6 154.4 139.4 153.4 139.4 152.3 C 139.38 152.27 139.4 135.4 139.4 135.4 Z M 150.5 157 L 150.5 139.5 L 155.4 139.5 L 155.4 157 L 150.5 157 Z M 152.9 137.3 C 152.2 137.3 151.6 137.1 151.1 136.6 C 150.6 136.1 150.3 135.5 150.3 134.9 C 150.3 134.2 150.6 133.6 151.1 133.1 C 151.6 132.6 152.2 132.4 152.9 132.4 C 153.7 132.4 154.3 132.6 154.8 133.1 C 155.3 133.6 155.6 134.2 155.6 134.8 C 155.6 135.5 155.3 136.1 154.8 136.6 C 154.3 137.1 153.7 137.3 152.9 137.3 Z M 173.6 144.5 C 173.6 144.5 169.2 144.8 169.2 144.8 C 169.1 144.4 168.9 144.1 168.7 143.8 C 168.4 143.5 168.1 143.2 167.7 143 C 167.3 142.8 166.8 142.7 166.3 142.7 C 165.5 142.7 164.9 142.9 164.4 143.2 C 163.9 143.5 163.6 144 163.6 144.5 C 163.6 144.9 163.8 145.2 164.1 145.5 C 164.4 145.8 165 146.1 165.8 146.2 C 165.8 146.2 169 146.9 169 146.9 C 170.7 147.2 171.9 147.8 172.8 148.5 C 173.6 149.3 174 150.3 174 151.6 C 174 152.7 173.7 153.7 173 154.6 C 172.3 155.5 171.4 156.1 170.3 156.6 C 169.1 157.1 167.8 157.3 166.2 157.3 C 163.9 157.3 162.1 156.9 160.7 155.9 C 159.4 154.9 158.6 153.6 158.3 151.9 C 158.3 151.9 163.1 151.7 163.1 151.7 C 163.2 152.4 163.6 152.9 164.1 153.3 C 164.7 153.7 165.4 153.9 166.3 153.9 C 167.1 153.9 167.8 153.7 168.3 153.4 C 168.8 153 169.1 152.6 169.1 152.1 C 169.1 151.6 168.9 151.3 168.5 151 C 168.2 150.7 167.6 150.5 166.9 150.3 C 166.9 150.3 163.8 149.7 163.8 149.7 C 162.1 149.4 160.9 148.8 160 148 C 159.2 147.1 158.8 146.1 158.8 144.7 C 158.8 143.6 159.1 142.7 159.7 141.9 C 160.3 141 161.2 140.4 162.3 140 C 163.4 139.5 164.7 139.3 166.2 139.3 C 168.4 139.3 170.1 139.8 171.4 140.7 C 172.7 141.6 173.4 142.9 173.6 144.5 Z M 184.8 157.3 C 183 157.3 181.5 157 180.2 156.2 C 178.9 155.5 177.9 154.5 177.2 153.1 C 176.5 151.8 176.1 150.2 176.1 148.4 C 176.1 146.6 176.5 145 177.2 143.6 C 177.9 142.3 178.9 141.2 180.1 140.5 C 181.4 139.7 182.9 139.3 184.6 139.3 C 185.8 139.3 186.8 139.5 187.8 139.9 C 188.8 140.2 189.7 140.8 190.4 141.5 C 191.2 142.3 191.8 143.2 192.2 144.3 C 192.6 145.4 192.8 146.7 192.8 148.2 C 192.81 148.18 192.8 149.5 192.8 149.5 L 178.1 149.5 L 178.1 146.5 C 178.1 146.5 188.25 146.51 188.2 146.5 C 188.2 145.8 188.1 145.2 187.8 144.7 C 187.5 144.1 187.1 143.7 186.5 143.4 C 186 143.1 185.4 142.9 184.7 142.9 C 183.9 142.9 183.3 143.1 182.7 143.4 C 182.2 143.8 181.7 144.2 181.4 144.8 C 181.1 145.4 180.9 146 180.9 146.7 C 180.9 146.7 180.9 149.5 180.9 149.5 C 180.9 150.4 181.1 151.1 181.4 151.8 C 181.7 152.4 182.2 152.9 182.8 153.2 C 183.4 153.6 184.1 153.7 184.9 153.7 C 185.4 153.7 185.9 153.7 186.4 153.5 C 186.8 153.3 187.2 153.1 187.5 152.8 C 187.8 152.5 188.1 152.1 188.2 151.7 C 188.2 151.7 192.7 152 192.7 152 C 192.5 153.1 192 154 191.3 154.8 C 190.6 155.6 189.7 156.2 188.6 156.7 C 187.5 157.1 186.2 157.3 184.8 157.3 Z " stroke="none" fill="#10283d"/>  </g>  <g id="Polygon125492">    <path d="M 59.9 97.5 L 59.9 101.2 L 49.4 101.2 L 49.4 97.5 L 59.9 97.5 Z M 51.7 93.4 L 56.6 93.4 C 56.6 93.4 56.59 109.64 56.6 109.6 C 56.6 110.1 56.7 110.4 56.8 110.7 C 56.9 110.9 57.1 111.1 57.4 111.2 C 57.6 111.3 57.9 111.3 58.2 111.3 C 58.5 111.3 58.7 111.3 58.9 111.3 C 59.1 111.2 59.3 111.2 59.4 111.2 C 59.4 111.2 60.2 114.8 60.2 114.8 C 59.9 114.9 59.6 114.9 59.2 115.1 C 58.7 115.2 58.2 115.2 57.6 115.2 C 56.4 115.3 55.4 115.1 54.5 114.8 C 53.6 114.4 52.9 113.9 52.5 113.1 C 52 112.4 51.7 111.4 51.7 110.3 C 51.75 110.27 51.7 93.4 51.7 93.4 Z M 70.3 115.3 C 68.5 115.3 67 115 65.7 114.2 C 64.4 113.5 63.4 112.5 62.7 111.1 C 62 109.8 61.7 108.2 61.7 106.4 C 61.7 104.6 62 103 62.7 101.6 C 63.4 100.3 64.4 99.2 65.6 98.5 C 66.9 97.7 68.4 97.3 70.1 97.3 C 71.3 97.3 72.3 97.5 73.3 97.9 C 74.3 98.2 75.2 98.8 76 99.5 C 76.7 100.3 77.3 101.2 77.7 102.3 C 78.1 103.4 78.3 104.7 78.3 106.2 C 78.32 106.18 78.3 107.5 78.3 107.5 L 63.6 107.5 L 63.6 104.5 C 63.6 104.5 73.76 104.51 73.8 104.5 C 73.8 103.8 73.6 103.2 73.3 102.7 C 73 102.1 72.6 101.7 72.1 101.4 C 71.5 101.1 70.9 100.9 70.2 100.9 C 69.5 100.9 68.8 101.1 68.2 101.4 C 67.7 101.8 67.2 102.2 66.9 102.8 C 66.6 103.4 66.4 104 66.4 104.7 C 66.4 104.7 66.4 107.5 66.4 107.5 C 66.4 108.4 66.6 109.1 66.9 109.8 C 67.2 110.4 67.7 110.9 68.3 111.2 C 68.9 111.6 69.6 111.7 70.4 111.7 C 70.9 111.7 71.4 111.7 71.9 111.5 C 72.3 111.3 72.7 111.1 73 110.8 C 73.3 110.5 73.6 110.1 73.7 109.7 C 73.7 109.7 78.2 110 78.2 110 C 78 111.1 77.5 112 76.8 112.8 C 76.1 113.6 75.2 114.2 74.1 114.7 C 73 115.1 71.7 115.3 70.3 115.3 Z M 89.2 115.3 C 87.5 115.3 85.9 115 84.6 114.2 C 83.4 113.4 82.4 112.4 81.7 111 C 81 109.7 80.7 108.1 80.7 106.3 C 80.7 104.6 81 103 81.7 101.6 C 82.4 100.3 83.4 99.2 84.7 98.5 C 85.9 97.7 87.5 97.3 89.2 97.3 C 90.7 97.3 92.1 97.6 93.2 98.1 C 94.4 98.7 95.3 99.5 95.9 100.5 C 96.6 101.5 97 102.7 97 104 C 97 104 92.5 104 92.5 104 C 92.3 103.1 92 102.4 91.5 101.9 C 90.9 101.4 90.2 101.1 89.3 101.1 C 88.6 101.1 87.9 101.3 87.3 101.7 C 86.8 102.1 86.4 102.7 86 103.5 C 85.7 104.2 85.6 105.2 85.6 106.3 C 85.6 107.4 85.7 108.3 86 109.1 C 86.3 109.9 86.8 110.5 87.3 110.9 C 87.9 111.3 88.6 111.5 89.3 111.5 C 89.9 111.5 90.4 111.4 90.8 111.2 C 91.2 110.9 91.6 110.6 91.9 110.2 C 92.2 109.7 92.4 109.2 92.5 108.6 C 92.5 108.6 97 108.6 97 108.6 C 97 109.9 96.6 111.1 96 112.1 C 95.3 113.1 94.4 113.9 93.3 114.5 C 92.1 115.1 90.8 115.3 89.2 115.3 Z M 104.9 104.9 C 104.93 104.91 104.9 115 104.9 115 L 100.1 115 L 100.1 91.7 L 104.8 91.7 L 104.8 100.6 C 104.8 100.6 105 100.62 105 100.6 C 105.4 99.6 106 98.8 106.9 98.2 C 107.8 97.6 108.9 97.3 110.2 97.3 C 111.4 97.3 112.5 97.6 113.4 98.1 C 114.3 98.6 115 99.4 115.5 100.4 C 116 101.4 116.3 102.5 116.3 103.9 C 116.25 103.89 116.3 115 116.3 115 L 111.4 115 C 111.4 115 111.41 104.75 111.4 104.7 C 111.4 103.7 111.1 102.8 110.6 102.2 C 110 101.6 109.3 101.3 108.3 101.3 C 107.6 101.3 107.1 101.5 106.6 101.8 C 106 102 105.7 102.4 105.4 103 C 105.1 103.5 104.9 104.2 104.9 104.9 Z M 124.9 104.9 C 124.92 104.91 124.9 115 124.9 115 L 120.1 115 L 120.1 97.5 L 124.7 97.5 L 124.7 100.6 C 124.7 100.6 124.9 100.62 124.9 100.6 C 125.3 99.6 125.9 98.8 126.8 98.2 C 127.8 97.6 128.9 97.3 130.1 97.3 C 131.4 97.3 132.4 97.6 133.3 98.1 C 134.2 98.6 134.9 99.4 135.4 100.4 C 135.9 101.4 136.2 102.5 136.2 103.9 C 136.17 103.89 136.2 115 136.2 115 L 131.3 115 C 131.3 115 131.33 104.75 131.3 104.7 C 131.3 103.7 131.1 102.8 130.5 102.2 C 130 101.6 129.2 101.3 128.2 101.3 C 127.6 101.3 127 101.5 126.5 101.8 C 126 102 125.6 102.4 125.3 103 C 125.1 103.5 124.9 104.2 124.9 104.9 Z M 139.9 115 L 139.9 97.5 L 144.8 97.5 L 144.8 115 L 139.9 115 Z M 142.4 95.3 C 141.6 95.3 141 95.1 140.5 94.6 C 140 94.1 139.8 93.5 139.8 92.9 C 139.8 92.2 140 91.6 140.5 91.1 C 141 90.6 141.7 90.4 142.4 90.4 C 143.1 90.4 143.7 90.6 144.2 91.1 C 144.7 91.6 145 92.2 145 92.8 C 145 93.5 144.7 94.1 144.2 94.6 C 143.7 95.1 143.1 95.3 142.4 95.3 Z M 156.4 115.3 C 154.6 115.3 153.1 115 151.8 114.2 C 150.5 113.4 149.6 112.4 148.9 111 C 148.2 109.7 147.8 108.1 147.8 106.3 C 147.8 104.6 148.2 103 148.9 101.6 C 149.6 100.3 150.6 99.2 151.8 98.5 C 153.1 97.7 154.6 97.3 156.4 97.3 C 157.9 97.3 159.3 97.6 160.4 98.1 C 161.6 98.7 162.5 99.5 163.1 100.5 C 163.8 101.5 164.2 102.7 164.2 104 C 164.2 104 159.7 104 159.7 104 C 159.5 103.1 159.2 102.4 158.6 101.9 C 158.1 101.4 157.4 101.1 156.5 101.1 C 155.7 101.1 155.1 101.3 154.5 101.7 C 154 102.1 153.5 102.7 153.2 103.5 C 152.9 104.2 152.8 105.2 152.8 106.3 C 152.8 107.4 152.9 108.3 153.2 109.1 C 153.5 109.9 154 110.5 154.5 110.9 C 155.1 111.3 155.7 111.5 156.5 111.5 C 157 111.5 157.5 111.4 158 111.2 C 158.4 110.9 158.8 110.6 159.1 110.2 C 159.4 109.7 159.6 109.2 159.7 108.6 C 159.7 108.6 164.2 108.6 164.2 108.6 C 164.1 109.9 163.8 111.1 163.1 112.1 C 162.5 113.1 161.6 113.9 160.5 114.5 C 159.3 115.1 158 115.3 156.4 115.3 Z M 172.2 115.3 C 171.1 115.3 170.1 115.1 169.2 114.7 C 168.3 114.4 167.6 113.8 167.1 113 C 166.6 112.2 166.4 111.3 166.4 110.1 C 166.4 109.2 166.6 108.3 166.9 107.7 C 167.3 107 167.8 106.5 168.4 106.1 C 169 105.7 169.7 105.4 170.5 105.2 C 171.2 105 172.1 104.8 172.9 104.7 C 174 104.6 174.8 104.5 175.4 104.4 C 176 104.4 176.5 104.2 176.7 104 C 177 103.8 177.2 103.6 177.2 103.2 C 177.2 103.2 177.2 103.1 177.2 103.1 C 177.2 102.4 176.9 101.8 176.5 101.4 C 176 101 175.4 100.9 174.6 100.9 C 173.7 100.9 173 101 172.5 101.4 C 172 101.8 171.6 102.3 171.5 102.9 C 171.5 102.9 167 102.5 167 102.5 C 167.2 101.4 167.7 100.5 168.3 99.7 C 169 99 169.9 98.4 170.9 97.9 C 172 97.5 173.2 97.3 174.6 97.3 C 175.6 97.3 176.5 97.4 177.4 97.7 C 178.3 97.9 179.1 98.2 179.8 98.7 C 180.5 99.2 181 99.8 181.4 100.6 C 181.8 101.3 182 102.2 182 103.2 C 182.01 103.23 182 115 182 115 L 177.4 115 L 177.4 112.6 C 177.4 112.6 177.28 112.58 177.3 112.6 C 177 113.1 176.6 113.6 176.2 114 C 175.7 114.4 175.1 114.8 174.5 115 C 173.8 115.2 173 115.3 172.2 115.3 Z M 173.6 112 C 174.3 112 174.9 111.8 175.4 111.6 C 176 111.3 176.4 110.9 176.7 110.4 C 177 109.9 177.2 109.4 177.2 108.8 C 177.2 108.8 177.2 106.9 177.2 106.9 C 177 107 176.8 107.1 176.6 107.2 C 176.3 107.3 176 107.3 175.7 107.4 C 175.4 107.5 175 107.5 174.7 107.6 C 174.4 107.6 174.1 107.7 173.8 107.7 C 173.3 107.8 172.8 107.9 172.3 108.1 C 171.9 108.3 171.6 108.5 171.4 108.8 C 171.1 109.1 171 109.5 171 110 C 171 110.6 171.2 111.1 171.7 111.5 C 172.2 111.8 172.8 112 173.6 112 Z M 190.7 91.7 L 190.7 115 L 185.8 115 L 185.8 91.7 L 190.7 91.7 Z " stroke="none" fill="#10283d"/>  </g>  <g id="Polygon125491">    <path d="M 62.4 62.9 C 62.44 62.91 62.4 73 62.4 73 L 57.6 73 L 57.6 55.5 L 62.2 55.5 L 62.2 58.6 C 62.2 58.6 62.42 58.62 62.4 58.6 C 62.8 57.6 63.5 56.8 64.4 56.2 C 65.3 55.6 66.4 55.3 67.7 55.3 C 68.9 55.3 69.9 55.6 70.8 56.1 C 71.7 56.6 72.4 57.4 72.9 58.4 C 73.4 59.4 73.7 60.5 73.7 61.9 C 73.69 61.89 73.7 73 73.7 73 L 68.9 73 C 68.9 73 68.85 62.75 68.9 62.7 C 68.9 61.7 68.6 60.8 68 60.2 C 67.5 59.6 66.7 59.3 65.8 59.3 C 65.1 59.3 64.5 59.5 64 59.8 C 63.5 60 63.1 60.4 62.9 61 C 62.6 61.5 62.5 62.2 62.4 62.9 Z M 85.3 73.3 C 83.5 73.3 82 73 80.7 72.2 C 79.4 71.5 78.4 70.5 77.7 69.1 C 77 67.8 76.7 66.2 76.7 64.4 C 76.7 62.6 77 61 77.7 59.6 C 78.4 58.3 79.4 57.2 80.7 56.5 C 81.9 55.7 83.4 55.3 85.2 55.3 C 86.3 55.3 87.4 55.5 88.4 55.9 C 89.4 56.2 90.2 56.8 91 57.5 C 91.7 58.3 92.3 59.2 92.7 60.3 C 93.1 61.4 93.4 62.7 93.4 64.2 C 93.35 64.18 93.4 65.5 93.4 65.5 L 78.6 65.5 L 78.6 62.5 C 78.6 62.5 88.8 62.51 88.8 62.5 C 88.8 61.8 88.6 61.2 88.3 60.7 C 88 60.1 87.6 59.7 87.1 59.4 C 86.6 59.1 85.9 58.9 85.2 58.9 C 84.5 58.9 83.8 59.1 83.3 59.4 C 82.7 59.8 82.3 60.2 82 60.8 C 81.6 61.4 81.5 62 81.5 62.7 C 81.5 62.7 81.5 65.5 81.5 65.5 C 81.5 66.4 81.6 67.1 82 67.8 C 82.3 68.4 82.7 68.9 83.3 69.2 C 83.9 69.6 84.6 69.7 85.4 69.7 C 86 69.7 86.5 69.7 86.9 69.5 C 87.3 69.3 87.7 69.1 88 68.8 C 88.4 68.5 88.6 68.1 88.8 67.7 C 88.8 67.7 93.3 68 93.3 68 C 93 69.1 92.6 70 91.9 70.8 C 91.2 71.6 90.3 72.2 89.2 72.7 C 88.1 73.1 86.8 73.3 85.3 73.3 Z M 104.4 73.3 C 102.6 73.3 101 73 99.7 72.2 C 98.4 71.5 97.4 70.5 96.7 69.1 C 96 67.8 95.7 66.2 95.7 64.4 C 95.7 62.6 96 61 96.7 59.6 C 97.4 58.3 98.4 57.2 99.7 56.5 C 101 55.7 102.4 55.3 104.2 55.3 C 105.3 55.3 106.4 55.5 107.4 55.9 C 108.4 56.2 109.2 56.8 110 57.5 C 110.7 58.3 111.3 59.2 111.7 60.3 C 112.2 61.4 112.4 62.7 112.4 64.2 C 112.36 64.18 112.4 65.5 112.4 65.5 L 97.6 65.5 L 97.6 62.5 C 97.6 62.5 107.8 62.51 107.8 62.5 C 107.8 61.8 107.7 61.2 107.4 60.7 C 107 60.1 106.6 59.7 106.1 59.4 C 105.6 59.1 104.9 58.9 104.2 58.9 C 103.5 58.9 102.9 59.1 102.3 59.4 C 101.7 59.8 101.3 60.2 101 60.8 C 100.6 61.4 100.5 62 100.5 62.7 C 100.5 62.7 100.5 65.5 100.5 65.5 C 100.5 66.4 100.6 67.1 101 67.8 C 101.3 68.4 101.7 68.9 102.3 69.2 C 102.9 69.6 103.6 69.7 104.4 69.7 C 105 69.7 105.5 69.7 105.9 69.5 C 106.4 69.3 106.7 69.1 107.1 68.8 C 107.4 68.5 107.6 68.1 107.8 67.7 C 107.8 67.7 112.3 68 112.3 68 C 112 69.1 111.6 70 110.9 70.8 C 110.2 71.6 109.3 72.2 108.2 72.7 C 107.1 73.1 105.8 73.3 104.4 73.3 Z M 121.9 73.3 C 120.5 73.3 119.4 72.9 118.3 72.3 C 117.2 71.6 116.4 70.6 115.7 69.2 C 115.1 67.9 114.8 66.2 114.8 64.3 C 114.8 62.3 115.1 60.6 115.8 59.3 C 116.4 58 117.3 57 118.3 56.3 C 119.4 55.6 120.6 55.3 121.9 55.3 C 122.8 55.3 123.7 55.5 124.3 55.8 C 125 56.1 125.5 56.6 125.9 57 C 126.3 57.5 126.6 58 126.8 58.5 C 126.83 58.48 127 58.5 127 58.5 L 127 49.7 L 131.8 49.7 L 131.8 73 L 127 73 L 127 70.2 C 127 70.2 126.83 70.2 126.8 70.2 C 126.6 70.7 126.3 71.2 125.9 71.6 C 125.5 72.1 124.9 72.5 124.3 72.8 C 123.6 73.1 122.8 73.3 121.9 73.3 Z M 123.4 69.4 C 124.2 69.4 124.9 69.2 125.4 68.8 C 125.9 68.4 126.4 67.8 126.6 67 C 126.9 66.2 127.1 65.3 127.1 64.3 C 127.1 63.2 126.9 62.3 126.6 61.6 C 126.4 60.8 125.9 60.2 125.4 59.8 C 124.9 59.4 124.2 59.2 123.4 59.2 C 122.6 59.2 121.9 59.4 121.4 59.8 C 120.9 60.2 120.4 60.8 120.2 61.6 C 119.9 62.4 119.7 63.3 119.7 64.3 C 119.7 65.3 119.9 66.2 120.2 67 C 120.4 67.7 120.9 68.3 121.4 68.8 C 121.9 69.2 122.6 69.4 123.4 69.4 Z M 152.6 55.5 L 152.6 59.2 L 141.8 59.2 L 141.8 55.5 L 152.6 55.5 Z M 144.3 73 C 144.3 73 144.27 54.28 144.3 54.3 C 144.3 53 144.5 52 145 51.1 C 145.5 50.3 146.2 49.7 147.1 49.3 C 147.9 48.8 148.9 48.6 150 48.6 C 150.7 48.6 151.4 48.7 152 48.8 C 152.7 48.9 153.1 49 153.4 49.1 C 153.4 49.1 152.6 52.7 152.6 52.7 C 152.4 52.7 152.1 52.6 151.9 52.6 C 151.6 52.5 151.3 52.5 151 52.5 C 150.3 52.5 149.8 52.7 149.5 53 C 149.2 53.3 149.1 53.8 149.1 54.4 C 149.1 54.37 149.1 73 149.1 73 L 144.3 73 Z M 162.8 73.3 C 161 73.3 159.5 73 158.2 72.2 C 156.9 71.5 155.9 70.4 155.2 69.1 C 154.5 67.7 154.2 66.1 154.2 64.3 C 154.2 62.5 154.5 61 155.2 59.6 C 155.9 58.3 156.9 57.2 158.2 56.4 C 159.5 55.7 161 55.3 162.8 55.3 C 164.5 55.3 166.1 55.7 167.4 56.4 C 168.6 57.2 169.6 58.3 170.3 59.6 C 171 61 171.4 62.5 171.4 64.3 C 171.4 66.1 171 67.7 170.3 69.1 C 169.6 70.4 168.6 71.5 167.4 72.2 C 166.1 73 164.5 73.3 162.8 73.3 Z M 162.8 69.6 C 163.6 69.6 164.3 69.4 164.8 68.9 C 165.3 68.4 165.8 67.8 166 67 C 166.3 66.2 166.4 65.3 166.4 64.3 C 166.4 63.3 166.3 62.4 166 61.6 C 165.8 60.8 165.3 60.2 164.8 59.7 C 164.3 59.2 163.6 59 162.8 59 C 162 59 161.3 59.2 160.8 59.7 C 160.2 60.2 159.8 60.8 159.5 61.6 C 159.2 62.4 159.1 63.3 159.1 64.3 C 159.1 65.3 159.2 66.2 159.5 67 C 159.8 67.8 160.2 68.4 160.8 68.9 C 161.3 69.4 162 69.6 162.8 69.6 Z M 174.4 73 L 174.4 55.5 L 179.1 55.5 L 179.1 58.6 C 179.1 58.6 179.32 58.59 179.3 58.6 C 179.6 57.5 180.2 56.7 180.9 56.1 C 181.7 55.6 182.5 55.3 183.5 55.3 C 183.8 55.3 184 55.3 184.3 55.3 C 184.6 55.4 184.8 55.4 185 55.5 C 185 55.5 185 59.8 185 59.8 C 184.8 59.7 184.5 59.6 184.1 59.6 C 183.7 59.5 183.3 59.5 183 59.5 C 182.3 59.5 181.6 59.7 181.1 60 C 180.5 60.3 180.1 60.7 179.8 61.2 C 179.4 61.8 179.3 62.4 179.3 63.1 C 179.28 63.12 179.3 73 179.3 73 L 174.4 73 Z " stroke="none" fill="#10283d"/>  </g>  <g id="Polygon125490">    <path d="M 34.6 31 L 34.6 7.7 C 34.6 7.7 43.74 7.73 43.7 7.7 C 45.5 7.7 47 8 48.2 8.7 C 49.5 9.3 50.4 10.2 51.1 11.3 C 51.7 12.5 52.1 13.8 52.1 15.3 C 52.1 16.9 51.7 18.2 51.1 19.3 C 50.4 20.4 49.4 21.3 48.2 21.9 C 46.9 22.5 45.4 22.7 43.6 22.7 C 43.61 22.75 37.5 22.7 37.5 22.7 L 37.5 18.8 C 37.5 18.8 42.82 18.8 42.8 18.8 C 43.8 18.8 44.5 18.7 45.2 18.4 C 45.8 18.2 46.2 17.8 46.5 17.2 C 46.9 16.7 47 16.1 47 15.3 C 47 14.6 46.9 13.9 46.5 13.4 C 46.2 12.8 45.8 12.4 45.2 12.2 C 44.5 11.9 43.7 11.7 42.8 11.7 C 42.79 11.75 39.5 11.7 39.5 11.7 L 39.5 31 L 34.6 31 Z M 47.1 20.4 L 52.9 31 L 47.5 31 L 41.8 20.4 L 47.1 20.4 Z M 63.2 31.3 C 61.4 31.3 59.8 31 58.5 30.2 C 57.2 29.5 56.2 28.5 55.5 27.1 C 54.8 25.8 54.5 24.2 54.5 22.4 C 54.5 20.6 54.8 19 55.5 17.6 C 56.2 16.3 57.2 15.2 58.5 14.5 C 59.8 13.7 61.3 13.3 63 13.3 C 64.1 13.3 65.2 13.5 66.2 13.9 C 67.2 14.2 68.1 14.8 68.8 15.5 C 69.5 16.3 70.1 17.2 70.5 18.3 C 71 19.4 71.2 20.7 71.2 22.2 C 71.17 22.18 71.2 23.5 71.2 23.5 L 56.4 23.5 L 56.4 20.5 C 56.4 20.5 66.61 20.51 66.6 20.5 C 66.6 19.8 66.5 19.2 66.2 18.7 C 65.9 18.1 65.4 17.7 64.9 17.4 C 64.4 17.1 63.7 16.9 63 16.9 C 62.3 16.9 61.7 17.1 61.1 17.4 C 60.5 17.8 60.1 18.2 59.8 18.8 C 59.5 19.4 59.3 20 59.3 20.7 C 59.3 20.7 59.3 23.5 59.3 23.5 C 59.3 24.4 59.4 25.1 59.8 25.8 C 60.1 26.4 60.5 26.9 61.1 27.2 C 61.7 27.6 62.4 27.7 63.2 27.7 C 63.8 27.7 64.3 27.7 64.7 27.5 C 65.2 27.3 65.5 27.1 65.9 26.8 C 66.2 26.5 66.4 26.1 66.6 25.7 C 66.6 25.7 71.1 26 71.1 26 C 70.8 27.1 70.4 28 69.7 28.8 C 69 29.6 68.1 30.2 67 30.7 C 65.9 31.1 64.6 31.3 63.2 31.3 Z M 80.7 31.3 C 79.4 31.3 78.2 30.9 77.1 30.3 C 76 29.6 75.2 28.6 74.5 27.2 C 73.9 25.9 73.6 24.2 73.6 22.3 C 73.6 20.3 73.9 18.6 74.6 17.3 C 75.2 16 76.1 15 77.1 14.3 C 78.2 13.6 79.4 13.3 80.7 13.3 C 81.6 13.3 82.5 13.5 83.1 13.8 C 83.8 14.1 84.3 14.6 84.7 15 C 85.1 15.5 85.4 16 85.6 16.5 C 85.64 16.48 85.8 16.5 85.8 16.5 L 85.8 7.7 L 90.6 7.7 L 90.6 31 L 85.8 31 L 85.8 28.2 C 85.8 28.2 85.64 28.2 85.6 28.2 C 85.4 28.7 85.1 29.2 84.7 29.6 C 84.3 30.1 83.7 30.5 83.1 30.8 C 82.4 31.1 81.6 31.3 80.7 31.3 Z M 82.2 27.4 C 83 27.4 83.7 27.2 84.2 26.8 C 84.7 26.4 85.2 25.8 85.4 25 C 85.7 24.2 85.9 23.3 85.9 22.3 C 85.9 21.2 85.7 20.3 85.5 19.6 C 85.2 18.8 84.7 18.2 84.2 17.8 C 83.7 17.4 83 17.2 82.2 17.2 C 81.4 17.2 80.7 17.4 80.2 17.8 C 79.7 18.2 79.2 18.8 79 19.6 C 78.7 20.4 78.5 21.3 78.5 22.3 C 78.5 23.3 78.7 24.2 79 25 C 79.3 25.7 79.7 26.3 80.2 26.8 C 80.8 27.2 81.4 27.4 82.2 27.4 Z M 105.7 23.6 C 105.7 23.57 105.7 13.5 105.7 13.5 L 110.5 13.5 L 110.5 31 L 105.9 31 L 105.9 27.8 C 105.9 27.8 105.71 27.83 105.7 27.8 C 105.3 28.9 104.7 29.7 103.8 30.3 C 102.8 30.9 101.7 31.2 100.4 31.2 C 99.3 31.2 98.2 31 97.3 30.4 C 96.5 29.9 95.8 29.1 95.3 28.2 C 94.8 27.2 94.5 26 94.5 24.7 C 94.51 24.66 94.5 13.5 94.5 13.5 L 99.3 13.5 C 99.3 13.5 99.35 23.8 99.3 23.8 C 99.4 24.8 99.6 25.6 100.2 26.2 C 100.7 26.8 101.5 27.1 102.4 27.1 C 103 27.1 103.5 27 104 26.7 C 104.5 26.5 104.9 26.1 105.2 25.5 C 105.6 25 105.7 24.3 105.7 23.6 Z M 122.2 31.3 C 120.4 31.3 118.9 31 117.6 30.2 C 116.3 29.4 115.3 28.4 114.6 27 C 114 25.7 113.6 24.1 113.6 22.3 C 113.6 20.6 114 19 114.7 17.6 C 115.3 16.3 116.3 15.2 117.6 14.5 C 118.9 13.7 120.4 13.3 122.2 13.3 C 123.7 13.3 125 13.6 126.2 14.1 C 127.3 14.7 128.2 15.5 128.9 16.5 C 129.6 17.5 129.9 18.7 130 20 C 130 20 125.4 20 125.4 20 C 125.3 19.1 125 18.4 124.4 17.9 C 123.9 17.4 123.1 17.1 122.3 17.1 C 121.5 17.1 120.9 17.3 120.3 17.7 C 119.7 18.1 119.3 18.7 119 19.5 C 118.7 20.2 118.5 21.2 118.5 22.3 C 118.5 23.4 118.7 24.3 119 25.1 C 119.3 25.9 119.7 26.5 120.3 26.9 C 120.9 27.3 121.5 27.5 122.3 27.5 C 122.8 27.5 123.3 27.4 123.8 27.2 C 124.2 26.9 124.6 26.6 124.9 26.2 C 125.1 25.7 125.3 25.2 125.4 24.6 C 125.4 24.6 130 24.6 130 24.6 C 129.9 25.9 129.6 27.1 128.9 28.1 C 128.3 29.1 127.4 29.9 126.2 30.5 C 125.1 31.1 123.8 31.3 122.2 31.3 Z M 140.8 31.3 C 139 31.3 137.5 31 136.2 30.2 C 134.9 29.5 133.9 28.5 133.2 27.1 C 132.5 25.8 132.2 24.2 132.2 22.4 C 132.2 20.6 132.5 19 133.2 17.6 C 133.9 16.3 134.9 15.2 136.2 14.5 C 137.4 13.7 138.9 13.3 140.6 13.3 C 141.8 13.3 142.9 13.5 143.9 13.9 C 144.8 14.2 145.7 14.8 146.5 15.5 C 147.2 16.3 147.8 17.2 148.2 18.3 C 148.6 19.4 148.8 20.7 148.8 22.2 C 148.83 22.18 148.8 23.5 148.8 23.5 L 134.1 23.5 L 134.1 20.5 C 134.1 20.5 144.28 20.51 144.3 20.5 C 144.3 19.8 144.1 19.2 143.8 18.7 C 143.5 18.1 143.1 17.7 142.6 17.4 C 142 17.1 141.4 16.9 140.7 16.9 C 140 16.9 139.3 17.1 138.8 17.4 C 138.2 17.8 137.8 18.2 137.4 18.8 C 137.1 19.4 137 20 136.9 20.7 C 136.9 20.7 136.9 23.5 136.9 23.5 C 136.9 24.4 137.1 25.1 137.4 25.8 C 137.8 26.4 138.2 26.9 138.8 27.2 C 139.4 27.6 140.1 27.7 140.9 27.7 C 141.4 27.7 141.9 27.7 142.4 27.5 C 142.8 27.3 143.2 27.1 143.5 26.8 C 143.8 26.5 144.1 26.1 144.3 25.7 C 144.3 25.7 148.7 26 148.7 26 C 148.5 27.1 148 28 147.3 28.8 C 146.6 29.6 145.7 30.2 144.6 30.7 C 143.5 31.1 142.3 31.3 140.8 31.3 Z M 168.7 13.5 L 168.7 17.2 L 158.2 17.2 L 158.2 13.5 L 168.7 13.5 Z M 160.6 9.4 L 165.4 9.4 C 165.4 9.4 165.41 25.64 165.4 25.6 C 165.4 26.1 165.5 26.4 165.6 26.7 C 165.8 26.9 165.9 27.1 166.2 27.2 C 166.4 27.3 166.7 27.3 167.1 27.3 C 167.3 27.3 167.5 27.3 167.7 27.3 C 168 27.2 168.1 27.2 168.3 27.2 C 168.3 27.2 169 30.8 169 30.8 C 168.8 30.9 168.4 30.9 168 31.1 C 167.6 31.2 167 31.2 166.4 31.2 C 165.2 31.3 164.2 31.1 163.3 30.8 C 162.5 30.4 161.8 29.9 161.3 29.1 C 160.8 28.4 160.6 27.4 160.6 26.3 C 160.57 26.27 160.6 9.4 160.6 9.4 Z M 176.5 20.9 C 176.52 20.91 176.5 31 176.5 31 L 171.7 31 L 171.7 7.7 L 176.4 7.7 L 176.4 16.6 C 176.4 16.6 176.59 16.62 176.6 16.6 C 177 15.6 177.6 14.8 178.5 14.2 C 179.4 13.6 180.5 13.3 181.8 13.3 C 183 13.3 184.1 13.6 185 14.1 C 185.9 14.6 186.6 15.4 187.1 16.4 C 187.6 17.4 187.8 18.5 187.8 19.9 C 187.84 19.89 187.8 31 187.8 31 L 183 31 C 183 31 183 20.75 183 20.7 C 183 19.7 182.7 18.8 182.2 18.2 C 181.6 17.6 180.9 17.3 179.9 17.3 C 179.2 17.3 178.6 17.5 178.1 17.8 C 177.6 18 177.2 18.4 177 19 C 176.7 19.5 176.5 20.2 176.5 20.9 Z M 199.5 31.3 C 197.7 31.3 196.1 31 194.9 30.2 C 193.6 29.5 192.6 28.5 191.9 27.1 C 191.2 25.8 190.8 24.2 190.8 22.4 C 190.8 20.6 191.2 19 191.9 17.6 C 192.6 16.3 193.6 15.2 194.8 14.5 C 196.1 13.7 197.6 13.3 199.3 13.3 C 200.4 13.3 201.5 13.5 202.5 13.9 C 203.5 14.2 204.4 14.8 205.1 15.5 C 205.9 16.3 206.5 17.2 206.9 18.3 C 207.3 19.4 207.5 20.7 207.5 22.2 C 207.5 22.18 207.5 23.5 207.5 23.5 L 192.8 23.5 L 192.8 20.5 C 192.8 20.5 202.94 20.51 202.9 20.5 C 202.9 19.8 202.8 19.2 202.5 18.7 C 202.2 18.1 201.8 17.7 201.2 17.4 C 200.7 17.1 200.1 16.9 199.4 16.9 C 198.6 16.9 198 17.1 197.4 17.4 C 196.9 17.8 196.4 18.2 196.1 18.8 C 195.8 19.4 195.6 20 195.6 20.7 C 195.6 20.7 195.6 23.5 195.6 23.5 C 195.6 24.4 195.8 25.1 196.1 25.8 C 196.4 26.4 196.9 26.9 197.5 27.2 C 198.1 27.6 198.8 27.7 199.6 27.7 C 200.1 27.7 200.6 27.7 201 27.5 C 201.5 27.3 201.9 27.1 202.2 26.8 C 202.5 26.5 202.8 26.1 202.9 25.7 C 202.9 25.7 207.4 26 207.4 26 C 207.2 27.1 206.7 28 206 28.8 C 205.3 29.6 204.4 30.2 203.3 30.7 C 202.2 31.1 200.9 31.3 199.5 31.3 Z " stroke="none" fill="#10283d"/>  </g></svg>