<?xml version="1.0" standalone="no"?><!DOCTYPE svg PUBLIC "-//W3C//DTD SVG 1.1//EN" "http://www.w3.org/Graphics/SVG/1.1/DTD/svg11.dtd"><svg xmlns="http://www.w3.org/2000/svg" version="1.1" width="121px" height="25.4px" viewBox="0 -3 121 25.4" style="top:-3px">  <desc>5 / 19</desc>  <defs/>  <g id="Polygon111678">    <path d="M 46.5 13.7 C 45.9 13.7 45.4 13.6 44.9 13.4 C 44.5 13.1 44.1 12.8 43.8 12.4 C 43.5 12 43.4 11.5 43.4 11 C 43.4 11 44.5 11 44.5 11 C 44.6 11.5 44.8 11.9 45.2 12.2 C 45.5 12.5 46 12.6 46.5 12.6 C 46.9 12.6 47.3 12.5 47.6 12.3 C 48 12.1 48.2 11.8 48.4 11.5 C 48.6 11.2 48.7 10.8 48.7 10.3 C 48.7 9.9 48.6 9.5 48.4 9.2 C 48.2 8.8 47.9 8.5 47.6 8.3 C 47.3 8.1 46.9 8 46.4 8 C 46.1 8 45.8 8.1 45.5 8.2 C 45.1 8.3 44.9 8.4 44.7 8.5 C 44.66 8.53 43.5 8.4 43.5 8.4 L 44.1 3.4 L 49.4 3.4 L 49.4 4.5 L 45.2 4.5 L 44.8 7.5 C 44.8 7.5 44.86 7.48 44.9 7.5 C 45.1 7.3 45.3 7.2 45.6 7.1 C 46 7 46.3 6.9 46.6 6.9 C 47.3 6.9 47.8 7 48.3 7.3 C 48.8 7.6 49.2 8 49.5 8.6 C 49.7 9.1 49.9 9.7 49.9 10.3 C 49.9 11 49.7 11.5 49.4 12.1 C 49.1 12.6 48.8 13 48.2 13.3 C 47.7 13.6 47.2 13.7 46.5 13.7 Z M 59.4 2.9 L 56.1 15.1 L 55 15.1 L 58.3 2.9 L 59.4 2.9 Z M 68.3 3.4 L 68.3 13.6 L 67.1 13.6 L 67.1 4.7 L 67 4.7 L 64.5 6.3 L 64.5 5.1 L 67.1 3.4 L 68.3 3.4 Z M 74.2 3.2 C 74.6 3.2 75 3.3 75.4 3.5 C 75.8 3.6 76.2 3.9 76.6 4.3 C 76.9 4.6 77.2 5.1 77.4 5.7 C 77.6 6.3 77.7 7.1 77.7 8.1 C 77.7 9 77.6 9.8 77.4 10.5 C 77.3 11.2 77 11.8 76.7 12.2 C 76.4 12.7 76 13.1 75.6 13.3 C 75.1 13.6 74.6 13.7 74 13.7 C 73.4 13.7 72.9 13.6 72.5 13.4 C 72 13.1 71.7 12.8 71.4 12.4 C 71.1 12 70.9 11.5 70.8 11 C 70.8 11 72.1 11 72.1 11 C 72.2 11.5 72.4 11.8 72.7 12.2 C 73 12.5 73.5 12.6 74 12.6 C 74.8 12.6 75.4 12.3 75.9 11.6 C 76.3 10.9 76.6 9.9 76.6 8.7 C 76.6 8.7 76.5 8.7 76.5 8.7 C 76.3 8.9 76.1 9.2 75.8 9.4 C 75.6 9.6 75.3 9.7 75 9.9 C 74.6 10 74.3 10 74 10 C 73.4 10 72.8 9.9 72.4 9.6 C 71.9 9.3 71.5 8.9 71.2 8.4 C 70.9 7.9 70.8 7.3 70.8 6.6 C 70.8 6 70.9 5.4 71.2 4.9 C 71.5 4.4 71.9 4 72.4 3.7 C 72.9 3.4 73.5 3.2 74.2 3.2 Z M 74.2 4.3 C 73.7 4.3 73.4 4.4 73 4.6 C 72.7 4.9 72.4 5.1 72.2 5.5 C 72.1 5.8 72 6.2 72 6.6 C 72 7.1 72.1 7.5 72.2 7.8 C 72.4 8.1 72.7 8.4 73 8.6 C 73.3 8.8 73.7 8.9 74.1 8.9 C 74.4 8.9 74.7 8.9 75 8.7 C 75.3 8.6 75.5 8.4 75.7 8.2 C 75.9 8 76.1 7.8 76.2 7.5 C 76.3 7.2 76.4 6.9 76.4 6.6 C 76.4 6.2 76.3 5.9 76.1 5.5 C 75.9 5.2 75.6 4.9 75.3 4.7 C 75 4.4 74.6 4.3 74.2 4.3 Z " stroke="none" fill="#10283d"/>  </g></svg>