<?xml version="1.0" standalone="no"?><!DOCTYPE svg PUBLIC "-//W3C//DTD SVG 1.1//EN" "http://www.w3.org/Graphics/SVG/1.1/DTD/svg11.dtd"><svg xmlns="http://www.w3.org/2000/svg" version="1.1" width="563px" height="245.6px" viewBox="0 -7 563 245.6" style="top:-7px">  <desc>“ AI will provide business value right now.”</desc>  <defs/>  <g id="Polygon123727">    <path d="M 40.1 80.3 L 30.4 106.5 L 26.3 106.5 L 16.6 80.3 L 21 80.3 L 28.2 101.2 L 28.5 101.2 L 35.7 80.3 L 40.1 80.3 Z M 51.6 107.1 C 49.9 107.1 48.4 106.8 47.1 106.2 C 45.7 105.5 44.6 104.6 43.8 103.4 C 43 102.2 42.6 100.8 42.6 99.1 C 42.6 97.6 42.9 96.3 43.5 95.4 C 44.1 94.5 44.9 93.7 45.9 93.2 C 46.9 92.7 48 92.3 49.2 92 C 50.4 91.7 51.6 91.5 52.8 91.4 C 54.4 91.2 55.7 91 56.7 90.9 C 57.7 90.8 58.4 90.6 58.9 90.3 C 59.3 90.1 59.5 89.6 59.5 89 C 59.5 89 59.5 88.8 59.5 88.8 C 59.5 87.2 59.1 85.9 58.2 84.9 C 57.3 84 55.9 83.5 54 83.5 C 52.1 83.5 50.6 83.9 49.5 84.8 C 48.4 85.6 47.7 86.5 47.2 87.5 C 47.2 87.5 43.4 86.1 43.4 86.1 C 44.1 84.5 45 83.3 46.1 82.4 C 47.3 81.5 48.5 80.9 49.9 80.5 C 51.2 80.2 52.6 80 53.9 80 C 54.7 80 55.7 80.1 56.8 80.3 C 57.9 80.5 59 80.9 60 81.5 C 61 82.1 61.9 83 62.5 84.3 C 63.2 85.5 63.6 87.2 63.6 89.3 C 63.57 89.25 63.6 106.5 63.6 106.5 L 59.5 106.5 L 59.5 103 C 59.5 103 59.34 102.95 59.3 103 C 59.1 103.5 58.6 104.1 58 104.8 C 57.3 105.4 56.5 106 55.4 106.4 C 54.4 106.9 53.1 107.1 51.6 107.1 Z M 52.2 103.5 C 53.8 103.5 55.1 103.2 56.2 102.6 C 57.3 101.9 58.1 101.1 58.7 100.1 C 59.3 99.2 59.5 98.1 59.5 97 C 59.5 97 59.5 93.3 59.5 93.3 C 59.4 93.5 59 93.7 58.4 93.9 C 57.9 94.1 57.2 94.2 56.5 94.3 C 55.7 94.4 55 94.5 54.3 94.6 C 53.6 94.7 53 94.8 52.6 94.8 C 51.5 95 50.6 95.2 49.7 95.5 C 48.8 95.8 48 96.2 47.5 96.8 C 46.9 97.4 46.7 98.3 46.7 99.3 C 46.7 100.7 47.2 101.7 48.2 102.4 C 49.3 103.1 50.6 103.5 52.2 103.5 Z M 74.4 71.6 L 74.4 106.5 L 70.4 106.5 L 70.4 71.6 L 74.4 71.6 Z M 97.7 95.8 C 97.67 95.8 97.7 80.3 97.7 80.3 L 101.7 80.3 L 101.7 106.5 L 97.7 106.5 L 97.7 102.1 C 97.7 102.1 97.4 102.07 97.4 102.1 C 96.8 103.4 95.8 104.5 94.5 105.5 C 93.2 106.4 91.6 106.8 89.6 106.8 C 88 106.8 86.5 106.5 85.3 105.8 C 84 105 83 103.9 82.3 102.5 C 81.5 101 81.2 99.2 81.2 97 C 81.17 96.95 81.2 80.3 81.2 80.3 L 85.2 80.3 C 85.2 80.3 85.19 96.68 85.2 96.7 C 85.2 98.6 85.7 100.1 86.8 101.3 C 87.9 102.4 89.2 103 90.9 103 C 91.9 103 92.9 102.7 94 102.2 C 95 101.7 95.9 100.9 96.6 99.8 C 97.3 98.8 97.7 97.4 97.7 95.8 Z M 119.5 107 C 117 107 114.8 106.5 113 105.4 C 111.1 104.2 109.7 102.7 108.8 100.7 C 107.8 98.6 107.3 96.3 107.3 93.6 C 107.3 90.9 107.8 88.6 108.8 86.5 C 109.7 84.5 111.1 82.9 112.9 81.7 C 114.6 80.6 116.7 80 119.1 80 C 120.4 80 121.8 80.2 123.1 80.7 C 124.4 81.1 125.7 81.8 126.7 82.9 C 127.8 83.9 128.7 85.2 129.4 86.9 C 130 88.6 130.3 90.6 130.3 93.1 C 130.33 93.07 130.3 94.8 130.3 94.8 L 110.1 94.8 L 110.1 91.3 C 110.1 91.3 126.24 91.3 126.2 91.3 C 126.2 89.8 125.9 88.5 125.4 87.3 C 124.8 86.2 123.9 85.3 122.9 84.6 C 121.8 83.9 120.5 83.6 119.1 83.6 C 117.5 83.6 116.1 84 114.9 84.8 C 113.8 85.6 112.9 86.6 112.2 87.9 C 111.6 89.1 111.3 90.5 111.3 91.9 C 111.3 91.9 111.3 94.2 111.3 94.2 C 111.3 96.2 111.6 97.9 112.3 99.2 C 113 100.6 114 101.7 115.2 102.4 C 116.4 103.1 117.9 103.4 119.5 103.4 C 120.5 103.4 121.5 103.3 122.4 103 C 123.2 102.7 124 102.2 124.6 101.6 C 125.2 101 125.7 100.3 126 99.3 C 126 99.3 129.9 100.4 129.9 100.4 C 129.5 101.8 128.8 102.9 127.9 103.9 C 126.9 104.9 125.7 105.7 124.3 106.2 C 122.9 106.8 121.3 107 119.5 107 Z M 150 106.5 L 150 80.3 L 153.8 80.3 L 153.8 84.3 C 153.8 84.3 154.12 84.27 154.1 84.3 C 154.6 83 155.5 81.9 156.7 81.1 C 158 80.3 159.4 79.9 160.9 79.9 C 161.2 79.9 161.6 79.9 162 79.9 C 162.5 79.9 162.8 80 163.1 80 C 163.1 80 163.1 84.1 163.1 84.1 C 162.9 84 162.6 84 162.1 83.9 C 161.6 83.8 161.1 83.8 160.6 83.8 C 159.3 83.8 158.2 84.1 157.2 84.6 C 156.2 85.1 155.4 85.8 154.8 86.8 C 154.3 87.7 154 88.8 154 89.9 C 153.99 89.93 154 106.5 154 106.5 L 150 106.5 Z M 167.3 106.5 L 167.3 80.3 L 171.3 80.3 L 171.3 106.5 L 167.3 106.5 Z M 169.4 76 C 168.6 76 167.9 75.7 167.3 75.2 C 166.8 74.6 166.5 74 166.5 73.2 C 166.5 72.5 166.8 71.8 167.3 71.3 C 167.9 70.8 168.6 70.5 169.4 70.5 C 170.1 70.5 170.8 70.8 171.4 71.3 C 171.9 71.8 172.2 72.5 172.2 73.2 C 172.2 74 171.9 74.6 171.4 75.2 C 170.8 75.7 170.1 76 169.4 76 Z M 188.6 116.9 C 186.6 116.9 185 116.6 183.6 116.1 C 182.2 115.6 181 115 180.1 114.2 C 179.2 113.4 178.4 112.5 177.9 111.6 C 177.9 111.6 181.1 109.4 181.1 109.4 C 181.5 109.8 181.9 110.4 182.5 111 C 183 111.6 183.8 112.2 184.8 112.6 C 185.7 113.1 187 113.3 188.6 113.3 C 190.7 113.3 192.4 112.8 193.8 111.8 C 195.2 110.8 195.9 109.2 195.9 107 C 195.88 106.98 195.9 101.7 195.9 101.7 C 195.9 101.7 195.54 101.66 195.5 101.7 C 195.2 102.1 194.8 102.7 194.3 103.4 C 193.8 104.1 193 104.7 192 105.3 C 191 105.8 189.6 106.1 187.9 106.1 C 185.8 106.1 183.9 105.6 182.2 104.6 C 180.5 103.6 179.2 102.1 178.3 100.2 C 177.3 98.3 176.8 96 176.8 93.3 C 176.8 90.6 177.3 88.3 178.2 86.3 C 179.2 84.3 180.5 82.7 182.1 81.6 C 183.8 80.5 185.8 80 188 80 C 189.7 80 191 80.3 192 80.8 C 193 81.4 193.8 82 194.4 82.7 C 194.9 83.4 195.3 84 195.6 84.5 C 195.61 84.48 196 84.5 196 84.5 L 196 80.3 L 199.9 80.3 C 199.9 80.3 199.91 107.25 199.9 107.3 C 199.9 109.5 199.4 111.3 198.4 112.7 C 197.4 114.2 196 115.2 194.3 115.9 C 192.6 116.5 190.7 116.9 188.6 116.9 Z M 188.5 102.5 C 190.1 102.5 191.4 102.1 192.5 101.4 C 193.7 100.6 194.5 99.6 195.1 98.2 C 195.7 96.8 196 95.1 196 93.2 C 196 91.3 195.7 89.7 195.1 88.2 C 194.5 86.8 193.7 85.6 192.6 84.8 C 191.5 84 190.1 83.6 188.5 83.6 C 186.7 83.6 185.3 84 184.2 84.9 C 183.1 85.8 182.2 86.9 181.7 88.4 C 181.1 89.8 180.8 91.4 180.8 93.2 C 180.8 95 181.1 96.6 181.7 98 C 182.3 99.4 183.1 100.5 184.2 101.3 C 185.4 102.1 186.8 102.5 188.5 102.5 Z M 210.7 90.8 C 210.75 90.75 210.7 106.5 210.7 106.5 L 206.7 106.5 L 206.7 71.6 L 210.7 71.6 L 210.7 84.4 C 210.7 84.4 211.09 84.41 211.1 84.4 C 211.7 83.1 212.6 82 213.9 81.2 C 215.1 80.4 216.7 80 218.8 80 C 220.6 80 222.1 80.3 223.5 81 C 224.8 81.8 225.9 82.8 226.6 84.3 C 227.4 85.8 227.7 87.6 227.7 89.9 C 227.72 89.86 227.7 106.5 227.7 106.5 L 223.7 106.5 C 223.7 106.5 223.7 90.14 223.7 90.1 C 223.7 88.1 223.2 86.4 222.1 85.3 C 221 84.2 219.5 83.6 217.6 83.6 C 216.3 83.6 215.1 83.9 214.1 84.4 C 213.1 85 212.2 85.8 211.6 86.9 C 211 87.9 210.7 89.2 210.7 90.8 Z M 245.2 80.3 L 245.2 83.7 L 231.6 83.7 L 231.6 80.3 L 245.2 80.3 Z M 235.6 74 L 239.6 74 C 239.6 74 239.59 99 239.6 99 C 239.6 100.1 239.8 101 240.1 101.5 C 240.4 102.1 240.9 102.5 241.4 102.7 C 241.9 102.9 242.5 103 243.1 103 C 243.5 103 243.9 102.9 244.2 102.9 C 244.4 102.8 244.7 102.8 244.8 102.8 C 244.8 102.8 245.7 106.4 245.7 106.4 C 245.4 106.5 245 106.6 244.5 106.7 C 244 106.8 243.4 106.8 242.7 106.8 C 241.5 106.8 240.4 106.6 239.3 106.1 C 238.2 105.6 237.3 104.9 236.6 103.9 C 235.9 102.9 235.6 101.6 235.6 100.1 C 235.56 100.09 235.6 74 235.6 74 Z M 268.8 90.8 C 268.77 90.75 268.8 106.5 268.8 106.5 L 264.7 106.5 L 264.7 80.3 L 268.6 80.3 L 268.6 84.4 C 268.6 84.4 268.97 84.41 269 84.4 C 269.6 83.1 270.5 82 271.8 81.2 C 273 80.4 274.6 80 276.6 80 C 278.4 80 279.9 80.3 281.3 81.1 C 282.6 81.8 283.6 82.9 284.4 84.3 C 285.1 85.8 285.5 87.6 285.5 89.9 C 285.47 89.86 285.5 106.5 285.5 106.5 L 281.4 106.5 C 281.4 106.5 281.45 90.14 281.4 90.1 C 281.4 88.1 280.9 86.5 279.8 85.3 C 278.8 84.2 277.3 83.6 275.4 83.6 C 274.2 83.6 273 83.9 272 84.4 C 271 85 270.2 85.8 269.6 86.9 C 269.1 87.9 268.8 89.2 268.8 90.8 Z M 302.8 107 C 300.5 107 298.4 106.5 296.6 105.4 C 294.8 104.2 293.5 102.7 292.5 100.6 C 291.5 98.6 291 96.3 291 93.5 C 291 90.8 291.5 88.4 292.5 86.4 C 293.5 84.4 294.8 82.8 296.6 81.7 C 298.4 80.5 300.5 80 302.8 80 C 305.2 80 307.3 80.5 309 81.7 C 310.8 82.8 312.2 84.4 313.2 86.4 C 314.2 88.4 314.7 90.8 314.7 93.5 C 314.7 96.3 314.2 98.6 313.2 100.6 C 312.2 102.7 310.8 104.2 309 105.4 C 307.3 106.5 305.2 107 302.8 107 Z M 302.8 103.4 C 304.6 103.4 306.1 103 307.3 102.1 C 308.4 101.1 309.3 99.9 309.8 98.4 C 310.4 96.9 310.7 95.3 310.7 93.5 C 310.7 91.8 310.4 90.2 309.8 88.7 C 309.3 87.1 308.4 85.9 307.3 85 C 306.1 84.1 304.6 83.6 302.8 83.6 C 301 83.6 299.6 84.1 298.4 85 C 297.2 85.9 296.4 87.1 295.8 88.7 C 295.3 90.2 295 91.8 295 93.5 C 295 95.3 295.3 96.9 295.8 98.4 C 296.4 99.9 297.2 101.1 298.4 102.1 C 299.6 103 301 103.4 302.8 103.4 Z M 325.2 106.5 L 317.2 80.3 L 321.4 80.3 L 327.1 100.4 L 327.3 100.4 L 332.9 80.3 L 337.2 80.3 L 342.8 100.3 L 343 100.3 L 348.7 80.3 L 352.9 80.3 L 344.9 106.5 L 341 106.5 L 335.3 86.4 L 334.8 86.4 L 329.1 106.5 L 325.2 106.5 Z M 357.9 106.8 C 357.1 106.8 356.3 106.5 355.7 105.9 C 355.1 105.3 354.8 104.5 354.8 103.7 C 354.8 102.9 355.1 102.1 355.7 101.5 C 356.3 100.9 357.1 100.6 357.9 100.6 C 358.7 100.6 359.5 100.9 360.1 101.5 C 360.7 102.1 361 102.9 361 103.7 C 361 104.3 360.8 104.8 360.6 105.2 C 360.3 105.7 359.9 106.1 359.4 106.4 C 359 106.6 358.5 106.8 357.9 106.8 Z M 368.7 71.6 C 368.7 71.6 368.71 74.66 368.7 74.7 C 368.7 75.6 368.5 76.6 368.2 77.6 C 367.9 78.7 367.4 79.7 366.7 80.7 C 366.1 81.7 365.3 82.5 364.4 83.3 C 364.4 83.3 362.2 81.5 362.2 81.5 C 362.9 80.5 363.6 79.4 364.1 78.3 C 364.6 77.2 364.9 76 364.9 74.7 C 364.89 74.73 364.9 71.6 364.9 71.6 L 368.7 71.6 Z M 377.4 71.6 C 377.4 71.6 377.43 74.66 377.4 74.7 C 377.4 75.6 377.3 76.6 376.9 77.6 C 376.6 78.7 376.1 79.7 375.5 80.7 C 374.8 81.7 374 82.5 373.1 83.3 C 373.1 83.3 371 81.5 371 81.5 C 371.7 80.5 372.3 79.4 372.8 78.3 C 373.4 77.2 373.6 76 373.6 74.7 C 373.61 74.73 373.6 71.6 373.6 71.6 L 377.4 71.6 Z " stroke="none" fill="#ffffff"/>  </g>  <g id="Polygon123726">    <path d="M 2.3 22.5 C 2.3 22.5 2.32 19.43 2.3 19.4 C 2.3 18.5 2.5 17.5 2.8 16.5 C 3.2 15.4 3.6 14.4 4.3 13.4 C 4.9 12.4 5.7 11.6 6.6 10.8 C 6.6 10.8 8.8 12.6 8.8 12.6 C 8.1 13.6 7.5 14.7 6.9 15.8 C 6.4 16.9 6.1 18.1 6.1 19.4 C 6.14 19.36 6.1 22.5 6.1 22.5 L 2.3 22.5 Z M 11 22.5 C 11 22.5 11.05 19.43 11 19.4 C 11 18.5 11.2 17.5 11.5 16.5 C 11.9 15.4 12.4 14.4 13 13.4 C 13.7 12.4 14.4 11.6 15.3 10.8 C 15.3 10.8 17.5 12.6 17.5 12.6 C 16.8 13.6 16.2 14.7 15.7 15.8 C 15.1 16.9 14.9 18.1 14.9 19.4 C 14.86 19.36 14.9 22.5 14.9 22.5 L 11 22.5 Z M 20.6 46.5 L 16.2 46.5 L 29 11.6 L 33.4 11.6 L 46.2 46.5 L 41.8 46.5 L 31.3 17.1 L 31.1 17.1 L 20.6 46.5 Z M 22.3 32.9 L 40.1 32.9 L 40.1 36.6 L 22.3 36.6 L 22.3 32.9 Z M 55.4 11.6 L 55.4 46.5 L 51.1 46.5 L 51.1 11.6 L 55.4 11.6 Z M 82.7 46.5 L 74.7 20.3 L 79 20.3 L 84.6 40.4 L 84.9 40.4 L 90.5 20.3 L 94.8 20.3 L 100.3 40.3 L 100.6 40.3 L 106.2 20.3 L 110.5 20.3 L 102.5 46.5 L 98.5 46.5 L 92.8 26.4 L 92.4 26.4 L 86.7 46.5 L 82.7 46.5 Z M 115 46.5 L 115 20.3 L 119 20.3 L 119 46.5 L 115 46.5 Z M 117 16 C 116.2 16 115.6 15.7 115 15.2 C 114.4 14.6 114.2 14 114.2 13.2 C 114.2 12.5 114.4 11.8 115 11.3 C 115.6 10.8 116.2 10.5 117 10.5 C 117.8 10.5 118.5 10.8 119 11.3 C 119.6 11.8 119.9 12.5 119.9 13.2 C 119.9 14 119.6 14.6 119 15.2 C 118.5 15.7 117.8 16 117 16 Z M 129.8 11.6 L 129.8 46.5 L 125.8 46.5 L 125.8 11.6 L 129.8 11.6 Z M 140.7 11.6 L 140.7 46.5 L 136.7 46.5 L 136.7 11.6 L 140.7 11.6 Z M 161.5 56.3 L 161.5 20.3 L 165.4 20.3 L 165.4 24.5 C 165.4 24.5 165.91 24.48 165.9 24.5 C 166.2 24 166.6 23.4 167.1 22.7 C 167.7 22 168.4 21.4 169.4 20.8 C 170.4 20.3 171.8 20 173.5 20 C 175.7 20 177.6 20.5 179.3 21.6 C 181 22.7 182.3 24.3 183.2 26.3 C 184.2 28.3 184.7 30.7 184.7 33.5 C 184.7 36.3 184.2 38.7 183.2 40.7 C 182.3 42.7 181 44.3 179.3 45.4 C 177.7 46.5 175.7 47 173.5 47 C 171.9 47 170.5 46.8 169.5 46.2 C 168.5 45.6 167.7 45 167.2 44.3 C 166.6 43.6 166.2 43 165.9 42.5 C 165.91 42.48 165.6 42.5 165.6 42.5 L 165.6 56.3 L 161.5 56.3 Z M 165.5 33.4 C 165.5 35.4 165.8 37.1 166.4 38.6 C 166.9 40.1 167.8 41.3 168.9 42.2 C 170 43 171.4 43.4 173 43.4 C 174.7 43.4 176.1 43 177.2 42.1 C 178.3 41.2 179.2 40 179.8 38.5 C 180.3 37 180.6 35.3 180.6 33.4 C 180.6 31.6 180.4 29.9 179.8 28.4 C 179.2 26.9 178.4 25.8 177.3 24.9 C 176.1 24 174.7 23.6 173 23.6 C 171.4 23.6 170 24 168.9 24.8 C 167.8 25.7 166.9 26.8 166.4 28.3 C 165.8 29.7 165.5 31.5 165.5 33.4 Z M 190.3 46.5 L 190.3 20.3 L 194.1 20.3 L 194.1 24.3 C 194.1 24.3 194.42 24.27 194.4 24.3 C 194.9 23 195.8 21.9 197 21.1 C 198.3 20.3 199.7 19.9 201.2 19.9 C 201.5 19.9 201.9 19.9 202.3 19.9 C 202.8 19.9 203.1 20 203.4 20 C 203.4 20 203.4 24.1 203.4 24.1 C 203.2 24 202.9 24 202.4 23.9 C 201.9 23.8 201.4 23.8 200.9 23.8 C 199.6 23.8 198.5 24.1 197.5 24.6 C 196.5 25.1 195.7 25.8 195.1 26.8 C 194.6 27.7 194.3 28.8 194.3 29.9 C 194.29 29.93 194.3 46.5 194.3 46.5 L 190.3 46.5 Z M 217.6 47 C 215.3 47 213.2 46.5 211.4 45.4 C 209.6 44.2 208.3 42.7 207.3 40.6 C 206.3 38.6 205.8 36.3 205.8 33.5 C 205.8 30.8 206.3 28.4 207.3 26.4 C 208.3 24.4 209.6 22.8 211.4 21.7 C 213.2 20.5 215.3 20 217.6 20 C 220 20 222.1 20.5 223.9 21.7 C 225.6 22.8 227 24.4 228 26.4 C 229 28.4 229.5 30.8 229.5 33.5 C 229.5 36.3 229 38.6 228 40.6 C 227 42.7 225.6 44.2 223.9 45.4 C 222.1 46.5 220 47 217.6 47 Z M 217.6 43.4 C 219.4 43.4 220.9 43 222.1 42.1 C 223.2 41.1 224.1 39.9 224.6 38.4 C 225.2 36.9 225.5 35.3 225.5 33.5 C 225.5 31.8 225.2 30.2 224.6 28.7 C 224.1 27.1 223.2 25.9 222.1 25 C 220.9 24.1 219.4 23.6 217.6 23.6 C 215.8 23.6 214.4 24.1 213.2 25 C 212 25.9 211.2 27.1 210.6 28.7 C 210.1 30.2 209.8 31.8 209.8 33.5 C 209.8 35.3 210.1 36.9 210.6 38.4 C 211.2 39.9 212 41.1 213.2 42.1 C 214.4 43 215.8 43.4 217.6 43.4 Z M 255.1 20.3 L 245.4 46.5 L 241.4 46.5 L 231.7 20.3 L 236 20.3 L 243.3 41.2 L 243.5 41.2 L 250.8 20.3 L 255.1 20.3 Z M 259.6 46.5 L 259.6 20.3 L 263.7 20.3 L 263.7 46.5 L 259.6 46.5 Z M 261.7 16 C 260.9 16 260.2 15.7 259.7 15.2 C 259.1 14.6 258.8 14 258.8 13.2 C 258.8 12.5 259.1 11.8 259.7 11.3 C 260.2 10.8 260.9 10.5 261.7 10.5 C 262.5 10.5 263.1 10.8 263.7 11.3 C 264.3 11.8 264.5 12.5 264.5 13.2 C 264.5 14 264.3 14.6 263.7 15.2 C 263.1 15.7 262.5 16 261.7 16 Z M 280.2 47 C 278 47 276.1 46.5 274.4 45.4 C 272.8 44.3 271.5 42.7 270.5 40.7 C 269.6 38.7 269.1 36.3 269.1 33.5 C 269.1 30.7 269.6 28.3 270.5 26.3 C 271.5 24.3 272.8 22.7 274.5 21.6 C 276.1 20.5 278.1 20 280.3 20 C 282 20 283.3 20.3 284.3 20.8 C 285.3 21.4 286.1 22 286.6 22.7 C 287.2 23.4 287.6 24 287.9 24.5 C 287.86 24.48 288.2 24.5 288.2 24.5 L 288.2 11.6 L 292.2 11.6 L 292.2 46.5 L 288.3 46.5 L 288.3 42.5 C 288.3 42.5 287.86 42.48 287.9 42.5 C 287.6 43 287.1 43.6 286.6 44.3 C 286.1 45 285.3 45.6 284.3 46.2 C 283.3 46.8 281.9 47 280.2 47 Z M 280.8 43.4 C 282.4 43.4 283.7 43 284.9 42.2 C 286 41.3 286.8 40.1 287.4 38.6 C 288 37.1 288.3 35.4 288.3 33.4 C 288.3 31.5 288 29.7 287.4 28.3 C 286.9 26.8 286 25.7 284.9 24.8 C 283.8 24 282.4 23.6 280.8 23.6 C 279.1 23.6 277.6 24 276.5 24.9 C 275.4 25.8 274.5 26.9 274 28.4 C 273.4 29.9 273.1 31.6 273.1 33.4 C 273.1 35.3 273.4 37 274 38.5 C 274.6 40 275.4 41.2 276.6 42.1 C 277.7 43 279.1 43.4 280.8 43.4 Z M 310.3 47 C 307.7 47 305.6 46.5 303.7 45.4 C 301.9 44.2 300.5 42.7 299.5 40.7 C 298.5 38.6 298.1 36.3 298.1 33.6 C 298.1 30.9 298.5 28.6 299.5 26.5 C 300.5 24.5 301.9 22.9 303.7 21.7 C 305.4 20.6 307.5 20 309.9 20 C 311.2 20 312.6 20.2 313.9 20.7 C 315.2 21.1 316.4 21.8 317.5 22.9 C 318.6 23.9 319.5 25.2 320.1 26.9 C 320.8 28.6 321.1 30.6 321.1 33.1 C 321.1 33.07 321.1 34.8 321.1 34.8 L 300.9 34.8 L 300.9 31.3 C 300.9 31.3 317.01 31.3 317 31.3 C 317 29.8 316.7 28.5 316.1 27.3 C 315.5 26.2 314.7 25.3 313.6 24.6 C 312.6 23.9 311.3 23.6 309.9 23.6 C 308.3 23.6 306.9 24 305.7 24.8 C 304.5 25.6 303.6 26.6 303 27.9 C 302.4 29.1 302.1 30.5 302.1 31.9 C 302.1 31.9 302.1 34.2 302.1 34.2 C 302.1 36.2 302.4 37.9 303.1 39.2 C 303.8 40.6 304.8 41.7 306 42.4 C 307.2 43.1 308.6 43.4 310.3 43.4 C 311.3 43.4 312.3 43.3 313.1 43 C 314 42.7 314.7 42.2 315.4 41.6 C 316 41 316.5 40.3 316.8 39.3 C 316.8 39.3 320.7 40.4 320.7 40.4 C 320.3 41.8 319.6 42.9 318.6 43.9 C 317.7 44.9 316.5 45.7 315.1 46.2 C 313.6 46.8 312 47 310.3 47 Z M 341.3 46.5 L 341.3 11.6 L 345.3 11.6 L 345.3 24.5 C 345.3 24.5 345.65 24.48 345.6 24.5 C 345.9 24 346.4 23.4 346.9 22.7 C 347.4 22 348.2 21.4 349.2 20.8 C 350.2 20.3 351.5 20 353.2 20 C 355.4 20 357.4 20.5 359 21.6 C 360.7 22.7 362 24.3 363 26.3 C 363.9 28.3 364.4 30.7 364.4 33.5 C 364.4 36.3 363.9 38.7 363 40.7 C 362 42.7 360.7 44.3 359.1 45.4 C 357.4 46.5 355.5 47 353.3 47 C 351.6 47 350.3 46.8 349.2 46.2 C 348.2 45.6 347.5 45 346.9 44.3 C 346.4 43.6 345.9 43 345.6 42.5 C 345.65 42.48 345.2 42.5 345.2 42.5 L 345.2 46.5 L 341.3 46.5 Z M 345.2 33.4 C 345.2 35.4 345.5 37.1 346.1 38.6 C 346.7 40.1 347.5 41.3 348.6 42.2 C 349.8 43 351.1 43.4 352.7 43.4 C 354.4 43.4 355.8 43 357 42.1 C 358.1 41.2 358.9 40 359.5 38.5 C 360.1 37 360.4 35.3 360.4 33.4 C 360.4 31.6 360.1 29.9 359.5 28.4 C 359 26.9 358.1 25.8 357 24.9 C 355.9 24 354.4 23.6 352.7 23.6 C 351.1 23.6 349.7 24 348.6 24.8 C 347.5 25.7 346.7 26.8 346.1 28.3 C 345.5 29.7 345.2 31.5 345.2 33.4 Z M 386.4 35.8 C 386.41 35.8 386.4 20.3 386.4 20.3 L 390.4 20.3 L 390.4 46.5 L 386.4 46.5 L 386.4 42.1 C 386.4 42.1 386.13 42.07 386.1 42.1 C 385.5 43.4 384.6 44.5 383.3 45.5 C 382 46.4 380.3 46.8 378.4 46.8 C 376.7 46.8 375.3 46.5 374 45.8 C 372.7 45 371.7 43.9 371 42.5 C 370.3 41 369.9 39.2 369.9 37 C 369.91 36.95 369.9 20.3 369.9 20.3 L 373.9 20.3 C 373.9 20.3 373.93 36.68 373.9 36.7 C 373.9 38.6 374.5 40.1 375.5 41.3 C 376.6 42.4 378 43 379.7 43 C 380.7 43 381.7 42.7 382.7 42.2 C 383.8 41.7 384.6 40.9 385.3 39.8 C 386.1 38.8 386.4 37.4 386.4 35.8 Z M 415.5 26.2 C 415.5 26.2 411.9 27.2 411.9 27.2 C 411.7 26.6 411.3 26 410.9 25.4 C 410.4 24.9 409.9 24.4 409.1 24 C 408.4 23.6 407.4 23.5 406.2 23.5 C 404.6 23.5 403.3 23.8 402.2 24.6 C 401.2 25.3 400.6 26.2 400.6 27.3 C 400.6 28.3 401 29.1 401.7 29.7 C 402.4 30.3 403.6 30.8 405.1 31.2 C 405.1 31.2 409 32.1 409 32.1 C 411.4 32.7 413.1 33.5 414.2 34.7 C 415.4 35.9 416 37.4 416 39.2 C 416 40.7 415.5 42 414.7 43.2 C 413.8 44.4 412.6 45.3 411.1 46 C 409.6 46.7 407.8 47 405.7 47 C 403.1 47 400.9 46.5 399.1 45.3 C 397.4 44.1 396.3 42.5 395.8 40.2 C 395.8 40.2 399.6 39.3 399.6 39.3 C 400 40.7 400.7 41.7 401.7 42.4 C 402.7 43.1 404 43.5 405.7 43.5 C 407.5 43.5 409 43.1 410.1 42.3 C 411.3 41.5 411.8 40.5 411.8 39.4 C 411.8 38.5 411.5 37.7 410.9 37.1 C 410.2 36.5 409.2 36 407.9 35.7 C 407.9 35.7 403.6 34.7 403.6 34.7 C 401.2 34.1 399.4 33.3 398.3 32.1 C 397.2 30.9 396.6 29.4 396.6 27.5 C 396.6 26.1 397 24.8 397.9 23.6 C 398.7 22.5 399.8 21.6 401.3 20.9 C 402.7 20.3 404.4 20 406.2 20 C 408.8 20 410.8 20.5 412.3 21.7 C 413.8 22.8 414.9 24.3 415.5 26.2 Z M 421.3 46.5 L 421.3 20.3 L 425.3 20.3 L 425.3 46.5 L 421.3 46.5 Z M 423.3 16 C 422.5 16 421.9 15.7 421.3 15.2 C 420.7 14.6 420.5 14 420.5 13.2 C 420.5 12.5 420.7 11.8 421.3 11.3 C 421.9 10.8 422.5 10.5 423.3 10.5 C 424.1 10.5 424.8 10.8 425.3 11.3 C 425.9 11.8 426.2 12.5 426.2 13.2 C 426.2 14 425.9 14.6 425.3 15.2 C 424.8 15.7 424.1 16 423.3 16 Z M 436.2 30.8 C 436.17 30.75 436.2 46.5 436.2 46.5 L 432.2 46.5 L 432.2 20.3 L 436 20.3 L 436 24.4 C 436 24.4 436.38 24.41 436.4 24.4 C 437 23.1 437.9 22 439.2 21.2 C 440.4 20.4 442 20 444 20 C 445.8 20 447.3 20.3 448.7 21.1 C 450 21.8 451 22.9 451.8 24.3 C 452.5 25.8 452.9 27.6 452.9 29.9 C 452.88 29.86 452.9 46.5 452.9 46.5 L 448.9 46.5 C 448.9 46.5 448.86 30.14 448.9 30.1 C 448.9 28.1 448.3 26.5 447.3 25.3 C 446.2 24.2 444.7 23.6 442.9 23.6 C 441.6 23.6 440.4 23.9 439.4 24.4 C 438.4 25 437.6 25.8 437 26.9 C 436.5 27.9 436.2 29.2 436.2 30.8 Z M 470.6 47 C 468.1 47 465.9 46.5 464.1 45.4 C 462.2 44.2 460.8 42.7 459.8 40.7 C 458.9 38.6 458.4 36.3 458.4 33.6 C 458.4 30.9 458.9 28.6 459.8 26.5 C 460.8 24.5 462.2 22.9 464 21.7 C 465.7 20.6 467.8 20 470.2 20 C 471.5 20 472.9 20.2 474.2 20.7 C 475.5 21.1 476.7 21.8 477.8 22.9 C 478.9 23.9 479.8 25.2 480.4 26.9 C 481.1 28.6 481.4 30.6 481.4 33.1 C 481.42 33.07 481.4 34.8 481.4 34.8 L 461.2 34.8 L 461.2 31.3 C 461.2 31.3 477.33 31.3 477.3 31.3 C 477.3 29.8 477 28.5 476.4 27.3 C 475.9 26.2 475 25.3 474 24.6 C 472.9 23.9 471.6 23.6 470.2 23.6 C 468.6 23.6 467.2 24 466 24.8 C 464.9 25.6 464 26.6 463.3 27.9 C 462.7 29.1 462.4 30.5 462.4 31.9 C 462.4 31.9 462.4 34.2 462.4 34.2 C 462.4 36.2 462.7 37.9 463.4 39.2 C 464.1 40.6 465.1 41.7 466.3 42.4 C 467.5 43.1 469 43.4 470.6 43.4 C 471.6 43.4 472.6 43.3 473.4 43 C 474.3 42.7 475 42.2 475.7 41.6 C 476.3 41 476.8 40.3 477.1 39.3 C 477.1 39.3 481 40.4 481 40.4 C 480.6 41.8 479.9 42.9 478.9 43.9 C 478 44.9 476.8 45.7 475.4 46.2 C 473.9 46.8 472.3 47 470.6 47 Z M 505.2 26.2 C 505.2 26.2 501.6 27.2 501.6 27.2 C 501.4 26.6 501.1 26 500.6 25.4 C 500.2 24.9 499.6 24.4 498.9 24 C 498.1 23.6 497.1 23.5 496 23.5 C 494.4 23.5 493 23.8 492 24.6 C 490.9 25.3 490.4 26.2 490.4 27.3 C 490.4 28.3 490.7 29.1 491.5 29.7 C 492.2 30.3 493.3 30.8 494.9 31.2 C 494.9 31.2 498.8 32.1 498.8 32.1 C 501.1 32.7 502.9 33.5 504 34.7 C 505.2 35.9 505.7 37.4 505.7 39.2 C 505.7 40.7 505.3 42 504.4 43.2 C 503.6 44.4 502.4 45.3 500.9 46 C 499.3 46.7 497.5 47 495.5 47 C 492.8 47 490.6 46.5 488.9 45.3 C 487.1 44.1 486 42.5 485.5 40.2 C 485.5 40.2 489.4 39.3 489.4 39.3 C 489.7 40.7 490.4 41.7 491.4 42.4 C 492.5 43.1 493.8 43.5 495.4 43.5 C 497.3 43.5 498.8 43.1 499.9 42.3 C 501 41.5 501.6 40.5 501.6 39.4 C 501.6 38.5 501.2 37.7 500.6 37.1 C 500 36.5 499 36 497.7 35.7 C 497.7 35.7 493.3 34.7 493.3 34.7 C 490.9 34.1 489.2 33.3 488 32.1 C 486.9 30.9 486.4 29.4 486.4 27.5 C 486.4 26.1 486.8 24.8 487.6 23.6 C 488.5 22.5 489.6 21.6 491 20.9 C 492.5 20.3 494.1 20 496 20 C 498.6 20 500.6 20.5 502.1 21.7 C 503.6 22.8 504.6 24.3 505.2 26.2 Z M 529.7 26.2 C 529.7 26.2 526.1 27.2 526.1 27.2 C 525.9 26.6 525.6 26 525.1 25.4 C 524.7 24.9 524.1 24.4 523.3 24 C 522.6 23.6 521.6 23.5 520.5 23.5 C 518.9 23.5 517.5 23.8 516.5 24.6 C 515.4 25.3 514.9 26.2 514.9 27.3 C 514.9 28.3 515.2 29.1 516 29.7 C 516.7 30.3 517.8 30.8 519.4 31.2 C 519.4 31.2 523.3 32.1 523.3 32.1 C 525.6 32.7 527.3 33.5 528.5 34.7 C 529.6 35.9 530.2 37.4 530.2 39.2 C 530.2 40.7 529.8 42 528.9 43.2 C 528.1 44.4 526.9 45.3 525.3 46 C 523.8 46.7 522 47 520 47 C 517.3 47 515.1 46.5 513.4 45.3 C 511.6 44.1 510.5 42.5 510 40.2 C 510 40.2 513.9 39.3 513.9 39.3 C 514.2 40.7 514.9 41.7 515.9 42.4 C 516.9 43.1 518.3 43.5 519.9 43.5 C 521.8 43.5 523.3 43.1 524.4 42.3 C 525.5 41.5 526.1 40.5 526.1 39.4 C 526.1 38.5 525.7 37.7 525.1 37.1 C 524.5 36.5 523.5 36 522.2 35.7 C 522.2 35.7 517.8 34.7 517.8 34.7 C 515.4 34.1 513.7 33.3 512.5 32.1 C 511.4 30.9 510.9 29.4 510.9 27.5 C 510.9 26.1 511.3 24.8 512.1 23.6 C 512.9 22.5 514.1 21.6 515.5 20.9 C 517 20.3 518.6 20 520.5 20 C 523.1 20 525.1 20.5 526.6 21.7 C 528.1 22.8 529.1 24.3 529.7 26.2 Z " stroke="none" fill="#ffffff"/>  </g></svg>