<?xml version="1.0" standalone="no"?><!DOCTYPE svg PUBLIC "-//W3C//DTD SVG 1.1//EN" "http://www.w3.org/Graphics/SVG/1.1/DTD/svg11.dtd"><svg xmlns="http://www.w3.org/2000/svg" version="1.1" width="761px" height="113.2px" viewBox="0 -25 761 113.2" style="top:-25px">  <desc>Incomplete data access</desc>  <defs/>  <g id="Polygon121389">    <path d="M 14.5 0 L 14.5 48.7 L 4.2 48.7 L 4.2 0 L 14.5 0 Z M 32.8 27.6 C 32.78 27.6 32.8 48.7 32.8 48.7 L 22.6 48.7 L 22.6 12.2 L 32.3 12.2 L 32.3 18.6 C 32.3 18.6 32.73 18.63 32.7 18.6 C 33.5 16.5 34.9 14.8 36.8 13.6 C 38.7 12.3 41 11.7 43.7 11.7 C 46.3 11.7 48.5 12.3 50.4 13.4 C 52.3 14.5 53.7 16.1 54.8 18.1 C 55.8 20.2 56.3 22.6 56.3 25.5 C 56.34 25.46 56.3 48.7 56.3 48.7 L 46.2 48.7 C 46.2 48.7 46.2 27.27 46.2 27.3 C 46.2 25 45.6 23.3 44.5 22 C 43.3 20.8 41.7 20.1 39.7 20.1 C 38.3 20.1 37.1 20.4 36.1 21 C 35.1 21.6 34.3 22.4 33.7 23.6 C 33.1 24.7 32.8 26 32.8 27.6 Z M 79.9 49.4 C 76.2 49.4 72.9 48.6 70.3 47 C 67.6 45.5 65.5 43.2 64.1 40.4 C 62.6 37.6 61.9 34.3 61.9 30.6 C 61.9 26.9 62.6 23.6 64.1 20.7 C 65.5 17.9 67.6 15.7 70.3 14.1 C 73 12.5 76.2 11.7 79.9 11.7 C 83 11.7 85.8 12.3 88.2 13.4 C 90.6 14.6 92.5 16.2 93.9 18.3 C 95.3 20.4 96.1 22.9 96.2 25.7 C 96.2 25.7 86.7 25.7 86.7 25.7 C 86.4 23.9 85.7 22.4 84.5 21.3 C 83.4 20.2 81.9 19.6 80 19.6 C 78.4 19.6 77.1 20 75.9 20.9 C 74.7 21.7 73.8 23 73.2 24.6 C 72.5 26.2 72.2 28.2 72.2 30.5 C 72.2 32.8 72.5 34.8 73.2 36.4 C 73.8 38 74.7 39.3 75.9 40.1 C 77.1 41 78.4 41.4 80 41.4 C 81.2 41.4 82.2 41.2 83.1 40.7 C 84.1 40.2 84.8 39.5 85.5 38.6 C 86.1 37.7 86.5 36.6 86.7 35.3 C 86.7 35.3 96.2 35.3 96.2 35.3 C 96.1 38.1 95.3 40.6 94 42.7 C 92.6 44.8 90.7 46.5 88.3 47.7 C 86 48.8 83.2 49.4 79.9 49.4 Z M 118 49.4 C 114.4 49.4 111.2 48.7 108.5 47.1 C 105.8 45.5 103.7 43.3 102.2 40.5 C 100.8 37.6 100.1 34.3 100.1 30.6 C 100.1 26.8 100.8 23.5 102.2 20.7 C 103.7 17.9 105.8 15.7 108.5 14.1 C 111.2 12.5 114.4 11.7 118 11.7 C 121.7 11.7 124.9 12.5 127.6 14.1 C 130.3 15.7 132.4 17.9 133.8 20.7 C 135.3 23.5 136 26.8 136 30.6 C 136 34.3 135.3 37.6 133.8 40.5 C 132.4 43.3 130.3 45.5 127.6 47.1 C 124.9 48.7 121.7 49.4 118 49.4 Z M 118.1 41.6 C 119.8 41.6 121.2 41.1 122.3 40.2 C 123.4 39.2 124.3 37.9 124.9 36.2 C 125.4 34.5 125.7 32.7 125.7 30.5 C 125.7 28.4 125.4 26.5 124.9 24.8 C 124.3 23.2 123.4 21.9 122.3 20.9 C 121.2 19.9 119.8 19.4 118.1 19.4 C 116.4 19.4 115 19.9 113.8 20.9 C 112.7 21.9 111.8 23.2 111.2 24.8 C 110.7 26.5 110.4 28.4 110.4 30.5 C 110.4 32.7 110.7 34.5 111.2 36.2 C 111.8 37.9 112.7 39.2 113.8 40.2 C 115 41.1 116.4 41.6 118.1 41.6 Z M 141.8 48.7 L 141.8 12.2 L 151.5 12.2 L 151.5 18.6 C 151.5 18.6 151.88 18.63 151.9 18.6 C 152.6 16.5 153.9 14.8 155.7 13.6 C 157.5 12.3 159.6 11.7 162.1 11.7 C 164.6 11.7 166.7 12.3 168.5 13.6 C 170.2 14.8 171.4 16.5 172 18.6 C 172 18.6 172.4 18.6 172.4 18.6 C 173.1 16.5 174.5 14.9 176.4 13.6 C 178.4 12.3 180.7 11.7 183.4 11.7 C 186.8 11.7 189.6 12.8 191.7 15 C 193.8 17.1 194.9 20.2 194.9 24.1 C 194.9 24.15 194.9 48.7 194.9 48.7 L 184.8 48.7 C 184.8 48.7 184.78 26.15 184.8 26.1 C 184.8 24.1 184.2 22.6 183.2 21.6 C 182.1 20.6 180.7 20.1 179.1 20.1 C 177.3 20.1 175.8 20.6 174.8 21.8 C 173.8 23 173.3 24.5 173.3 26.4 C 173.27 26.41 173.3 48.7 173.3 48.7 L 163.4 48.7 C 163.4 48.7 163.44 25.93 163.4 25.9 C 163.4 24.1 162.9 22.7 161.9 21.7 C 160.9 20.6 159.5 20.1 157.9 20.1 C 156.7 20.1 155.7 20.3 154.8 20.9 C 153.9 21.5 153.2 22.3 152.7 23.3 C 152.2 24.3 151.9 25.4 151.9 26.8 C 151.93 26.79 151.9 48.7 151.9 48.7 L 141.8 48.7 Z M 202.2 62.4 L 202.2 12.2 L 212.2 12.2 L 212.2 18.3 C 212.2 18.3 212.69 18.32 212.7 18.3 C 213.1 17.3 213.8 16.3 214.6 15.3 C 215.5 14.3 216.6 13.4 218 12.7 C 219.3 12.1 221 11.7 223.1 11.7 C 225.8 11.7 228.2 12.4 230.5 13.8 C 232.7 15.2 234.5 17.3 235.9 20 C 237.2 22.8 237.9 26.3 237.9 30.5 C 237.9 34.6 237.2 38 235.9 40.8 C 234.6 43.6 232.8 45.7 230.6 47.2 C 228.4 48.6 225.8 49.3 223.1 49.3 C 221.1 49.3 219.4 49 218.1 48.3 C 216.7 47.7 215.6 46.9 214.7 45.9 C 213.8 44.9 213.2 43.9 212.7 42.9 C 212.69 42.87 212.4 42.9 212.4 42.9 L 212.4 62.4 L 202.2 62.4 Z M 212.2 30.5 C 212.2 32.6 212.5 34.5 213.1 36.1 C 213.7 37.8 214.5 39 215.7 39.9 C 216.8 40.8 218.2 41.3 219.9 41.3 C 221.5 41.3 222.9 40.8 224 39.9 C 225.2 39 226.1 37.7 226.6 36.1 C 227.2 34.5 227.5 32.6 227.5 30.5 C 227.5 28.3 227.2 26.5 226.7 24.9 C 226.1 23.3 225.2 22 224.1 21.1 C 222.9 20.2 221.5 19.8 219.9 19.8 C 218.2 19.8 216.8 20.2 215.7 21.1 C 214.5 22 213.7 23.2 213.1 24.8 C 212.5 26.4 212.2 28.3 212.2 30.5 Z M 254.1 0 L 254.1 48.7 L 244 48.7 L 244 0 L 254.1 0 Z M 278.1 49.4 C 274.3 49.4 271.1 48.7 268.4 47.1 C 265.7 45.6 263.6 43.4 262.1 40.6 C 260.7 37.8 259.9 34.5 259.9 30.6 C 259.9 26.9 260.7 23.6 262.1 20.7 C 263.6 17.9 265.7 15.7 268.3 14.1 C 271 12.5 274.1 11.7 277.7 11.7 C 280.1 11.7 282.3 12.1 284.4 12.9 C 286.5 13.6 288.3 14.8 289.9 16.3 C 291.5 17.9 292.7 19.8 293.5 22.1 C 294.4 24.4 294.9 27.2 294.9 30.3 C 294.85 30.26 294.9 33 294.9 33 L 264 33 L 264 26.8 C 264 26.8 285.31 26.77 285.3 26.8 C 285.3 25.3 285 24 284.4 22.9 C 283.7 21.8 282.9 20.9 281.7 20.2 C 280.6 19.6 279.3 19.3 277.8 19.3 C 276.3 19.3 274.9 19.6 273.8 20.3 C 272.6 21 271.7 22 271 23.2 C 270.3 24.3 270 25.7 270 27.1 C 270 27.1 270 33.1 270 33.1 C 270 34.9 270.3 36.4 271 37.8 C 271.7 39.1 272.6 40.1 273.8 40.8 C 275.1 41.5 276.5 41.9 278.2 41.9 C 279.4 41.9 280.4 41.7 281.3 41.4 C 282.3 41.1 283.1 40.6 283.7 40 C 284.4 39.3 284.9 38.6 285.3 37.6 C 285.3 37.6 294.6 38.3 294.6 38.3 C 294.2 40.5 293.2 42.5 291.7 44.1 C 290.3 45.8 288.4 47.1 286.1 48 C 283.8 49 281.1 49.4 278.1 49.4 Z M 319.3 12.2 L 319.3 19.8 L 297.3 19.8 L 297.3 12.2 L 319.3 12.2 Z M 302.3 3.4 L 312.4 3.4 C 312.4 3.4 312.45 37.5 312.4 37.5 C 312.4 38.4 312.6 39.2 312.9 39.7 C 313.2 40.2 313.6 40.6 314.1 40.8 C 314.6 41 315.2 41.1 315.9 41.1 C 316.4 41.1 316.8 41 317.3 40.9 C 317.8 40.8 318.1 40.8 318.4 40.7 C 318.4 40.7 320 48.3 320 48.3 C 319.5 48.4 318.8 48.6 317.9 48.8 C 316.9 49 315.8 49.2 314.5 49.2 C 312.1 49.3 309.9 49 308.1 48.3 C 306.3 47.5 304.8 46.3 303.8 44.8 C 302.8 43.2 302.3 41.2 302.3 38.8 C 302.31 38.83 302.3 3.4 302.3 3.4 Z M 340.4 49.4 C 336.7 49.4 333.4 48.7 330.7 47.1 C 328 45.6 325.9 43.4 324.5 40.6 C 323 37.8 322.3 34.5 322.3 30.6 C 322.3 26.9 323 23.6 324.5 20.7 C 325.9 17.9 328 15.7 330.7 14.1 C 333.3 12.5 336.4 11.7 340 11.7 C 342.4 11.7 344.7 12.1 346.8 12.9 C 348.8 13.6 350.7 14.8 352.2 16.3 C 353.8 17.9 355 19.8 355.9 22.1 C 356.8 24.4 357.2 27.2 357.2 30.3 C 357.19 30.26 357.2 33 357.2 33 L 326.3 33 L 326.3 26.8 C 326.3 26.8 347.65 26.77 347.7 26.8 C 347.7 25.3 347.3 24 346.7 22.9 C 346.1 21.8 345.2 20.9 344.1 20.2 C 343 19.6 341.7 19.3 340.2 19.3 C 338.6 19.3 337.3 19.6 336.1 20.3 C 334.9 21 334 22 333.3 23.2 C 332.7 24.3 332.3 25.7 332.3 27.1 C 332.3 27.1 332.3 33.1 332.3 33.1 C 332.3 34.9 332.6 36.4 333.3 37.8 C 334 39.1 334.9 40.1 336.2 40.8 C 337.4 41.5 338.9 41.9 340.6 41.9 C 341.7 41.9 342.7 41.7 343.7 41.4 C 344.6 41.1 345.4 40.6 346.1 40 C 346.7 39.3 347.3 38.6 347.6 37.6 C 347.6 37.6 357 38.3 357 38.3 C 356.5 40.5 355.5 42.5 354.1 44.1 C 352.6 45.8 350.7 47.1 348.4 48 C 346.1 49 343.4 49.4 340.4 49.4 Z M 392.8 49.3 C 390 49.3 387.5 48.6 385.3 47.2 C 383 45.7 381.3 43.6 380 40.8 C 378.6 38 378 34.6 378 30.5 C 378 26.3 378.7 22.8 380 20 C 381.4 17.3 383.2 15.2 385.4 13.8 C 387.6 12.4 390.1 11.7 392.8 11.7 C 394.8 11.7 396.5 12.1 397.9 12.7 C 399.3 13.4 400.4 14.3 401.2 15.3 C 402.1 16.3 402.7 17.3 403.2 18.3 C 403.18 18.32 403.5 18.3 403.5 18.3 L 403.5 0 L 413.6 0 L 413.6 48.7 L 403.6 48.7 L 403.6 42.9 C 403.6 42.9 403.18 42.87 403.2 42.9 C 402.7 43.9 402 44.9 401.2 45.9 C 400.3 46.9 399.2 47.7 397.8 48.3 C 396.4 49 394.8 49.3 392.8 49.3 Z M 396 41.3 C 397.7 41.3 399 40.8 400.2 39.9 C 401.3 39 402.2 37.8 402.8 36.1 C 403.4 34.5 403.7 32.6 403.7 30.5 C 403.7 28.3 403.4 26.4 402.8 24.8 C 402.2 23.2 401.3 22 400.2 21.1 C 399 20.2 397.7 19.8 396 19.8 C 394.4 19.8 393 20.2 391.8 21.1 C 390.7 22 389.8 23.3 389.2 24.9 C 388.6 26.5 388.3 28.3 388.3 30.5 C 388.3 32.6 388.6 34.5 389.2 36.1 C 389.8 37.7 390.7 39 391.8 39.9 C 393 40.8 394.4 41.3 396 41.3 Z M 431.5 49.4 C 429.2 49.4 427.1 49 425.3 48.2 C 423.4 47.4 422 46.2 420.9 44.6 C 419.9 42.9 419.4 40.9 419.4 38.5 C 419.4 36.5 419.7 34.8 420.5 33.4 C 421.2 32 422.2 30.9 423.5 30.1 C 424.8 29.2 426.3 28.6 427.9 28.2 C 429.5 27.7 431.3 27.4 433.1 27.3 C 435.2 27 436.9 26.8 438.2 26.6 C 439.5 26.4 440.5 26.1 441 25.7 C 441.6 25.3 441.9 24.8 441.9 24 C 441.9 24 441.9 23.8 441.9 23.8 C 441.9 22.3 441.5 21.2 440.5 20.3 C 439.6 19.5 438.2 19.1 436.5 19.1 C 434.7 19.1 433.2 19.5 432.2 20.3 C 431.1 21.1 430.4 22.1 430 23.3 C 430 23.3 420.6 22.6 420.6 22.6 C 421.1 20.3 422 18.4 423.4 16.8 C 424.8 15.2 426.6 13.9 428.9 13 C 431.1 12.1 433.6 11.7 436.6 11.7 C 438.6 11.7 440.5 11.9 442.4 12.4 C 444.3 12.9 445.9 13.6 447.4 14.6 C 448.8 15.6 450 16.9 450.8 18.5 C 451.6 20 452.1 21.9 452.1 24.1 C 452.07 24.08 452.1 48.7 452.1 48.7 L 442.5 48.7 L 442.5 43.7 C 442.5 43.7 442.17 43.66 442.2 43.7 C 441.6 44.8 440.8 45.8 439.8 46.7 C 438.8 47.5 437.6 48.2 436.3 48.7 C 434.9 49.2 433.3 49.4 431.5 49.4 Z M 434.4 42.4 C 435.9 42.4 437.2 42.1 438.3 41.5 C 439.5 40.9 440.4 40.1 441 39.1 C 441.7 38.1 442 36.9 442 35.7 C 442 35.7 442 31.8 442 31.8 C 441.7 32 441.3 32.2 440.7 32.3 C 440.2 32.5 439.5 32.7 438.9 32.8 C 438.2 32.9 437.5 33.1 436.8 33.2 C 436.1 33.3 435.5 33.3 435 33.4 C 433.8 33.6 432.7 33.9 431.8 34.3 C 431 34.6 430.3 35.2 429.8 35.8 C 429.3 36.4 429 37.2 429 38.2 C 429 39.6 429.5 40.6 430.5 41.3 C 431.6 42.1 432.8 42.4 434.4 42.4 Z M 477.9 12.2 L 477.9 19.8 L 455.9 19.8 L 455.9 12.2 L 477.9 12.2 Z M 460.9 3.4 L 471 3.4 C 471 3.4 471.05 37.5 471 37.5 C 471 38.4 471.2 39.2 471.5 39.7 C 471.8 40.2 472.2 40.6 472.7 40.8 C 473.2 41 473.8 41.1 474.5 41.1 C 475 41.1 475.4 41 475.9 40.9 C 476.4 40.8 476.7 40.8 477 40.7 C 477 40.7 478.6 48.3 478.6 48.3 C 478.1 48.4 477.4 48.6 476.4 48.8 C 475.5 49 474.4 49.2 473.1 49.2 C 470.7 49.3 468.5 49 466.7 48.3 C 464.9 47.5 463.4 46.3 462.4 44.8 C 461.4 43.2 460.9 41.2 460.9 38.8 C 460.91 38.83 460.9 3.4 460.9 3.4 Z M 493.5 49.4 C 491.2 49.4 489.1 49 487.3 48.2 C 485.4 47.4 484 46.2 483 44.6 C 481.9 42.9 481.4 40.9 481.4 38.5 C 481.4 36.5 481.7 34.8 482.5 33.4 C 483.2 32 484.2 30.9 485.5 30.1 C 486.8 29.2 488.3 28.6 489.9 28.2 C 491.6 27.7 493.3 27.4 495.1 27.3 C 497.2 27 498.9 26.8 500.2 26.6 C 501.5 26.4 502.5 26.1 503.1 25.7 C 503.7 25.3 503.9 24.8 503.9 24 C 503.9 24 503.9 23.8 503.9 23.8 C 503.9 22.3 503.5 21.2 502.5 20.3 C 501.6 19.5 500.3 19.1 498.5 19.1 C 496.7 19.1 495.2 19.5 494.2 20.3 C 493.1 21.1 492.4 22.1 492 23.3 C 492 23.3 482.7 22.6 482.7 22.6 C 483.1 20.3 484.1 18.4 485.5 16.8 C 486.9 15.2 488.7 13.9 490.9 13 C 493.1 12.1 495.7 11.7 498.6 11.7 C 500.6 11.7 502.5 11.9 504.4 12.4 C 506.3 12.9 507.9 13.6 509.4 14.6 C 510.8 15.6 512 16.9 512.8 18.5 C 513.7 20 514.1 21.9 514.1 24.1 C 514.08 24.08 514.1 48.7 514.1 48.7 L 504.5 48.7 L 504.5 43.7 C 504.5 43.7 504.19 43.66 504.2 43.7 C 503.6 44.8 502.8 45.8 501.8 46.7 C 500.8 47.5 499.7 48.2 498.3 48.7 C 496.9 49.2 495.3 49.4 493.5 49.4 Z M 496.4 42.4 C 497.9 42.4 499.2 42.1 500.4 41.5 C 501.5 40.9 502.4 40.1 503 39.1 C 503.7 38.1 504 36.9 504 35.7 C 504 35.7 504 31.8 504 31.8 C 503.7 32 503.3 32.2 502.7 32.3 C 502.2 32.5 501.6 32.7 500.9 32.8 C 500.2 32.9 499.5 33.1 498.8 33.2 C 498.1 33.3 497.5 33.3 497 33.4 C 495.8 33.6 494.7 33.9 493.9 34.3 C 493 34.6 492.3 35.2 491.8 35.8 C 491.3 36.4 491.1 37.2 491.1 38.2 C 491.1 39.6 491.6 40.6 492.6 41.3 C 493.6 42.1 494.9 42.4 496.4 42.4 Z M 547.9 49.4 C 545.6 49.4 543.5 49 541.7 48.2 C 539.9 47.4 538.4 46.2 537.4 44.6 C 536.3 42.9 535.8 40.9 535.8 38.5 C 535.8 36.5 536.2 34.8 536.9 33.4 C 537.6 32 538.7 30.9 539.9 30.1 C 541.2 29.2 542.7 28.6 544.3 28.2 C 546 27.7 547.7 27.4 549.5 27.3 C 551.6 27 553.3 26.8 554.6 26.6 C 555.9 26.4 556.9 26.1 557.5 25.7 C 558.1 25.3 558.4 24.8 558.4 24 C 558.4 24 558.4 23.8 558.4 23.8 C 558.4 22.3 557.9 21.2 556.9 20.3 C 556 19.5 554.7 19.1 552.9 19.1 C 551.1 19.1 549.7 19.5 548.6 20.3 C 547.5 21.1 546.8 22.1 546.4 23.3 C 546.4 23.3 537.1 22.6 537.1 22.6 C 537.5 20.3 538.5 18.4 539.9 16.8 C 541.3 15.2 543.1 13.9 545.3 13 C 547.5 12.1 550.1 11.7 553 11.7 C 555 11.7 557 11.9 558.8 12.4 C 560.7 12.9 562.3 13.6 563.8 14.6 C 565.2 15.6 566.4 16.9 567.2 18.5 C 568.1 20 568.5 21.9 568.5 24.1 C 568.5 24.08 568.5 48.7 568.5 48.7 L 558.9 48.7 L 558.9 43.7 C 558.9 43.7 558.6 43.66 558.6 43.7 C 558 44.8 557.2 45.8 556.2 46.7 C 555.3 47.5 554.1 48.2 552.7 48.7 C 551.3 49.2 549.7 49.4 547.9 49.4 Z M 550.8 42.4 C 552.3 42.4 553.6 42.1 554.8 41.5 C 555.9 40.9 556.8 40.1 557.5 39.1 C 558.1 38.1 558.4 36.9 558.4 35.7 C 558.4 35.7 558.4 31.8 558.4 31.8 C 558.1 32 557.7 32.2 557.1 32.3 C 556.6 32.5 556 32.7 555.3 32.8 C 554.6 32.9 553.9 33.1 553.2 33.2 C 552.6 33.3 551.9 33.3 551.4 33.4 C 550.2 33.6 549.2 33.9 548.3 34.3 C 547.4 34.6 546.7 35.2 546.2 35.8 C 545.7 36.4 545.5 37.2 545.5 38.2 C 545.5 39.6 546 40.6 547 41.3 C 548 42.1 549.3 42.4 550.8 42.4 Z M 592 49.4 C 588.3 49.4 585.1 48.6 582.4 47 C 579.7 45.5 577.6 43.2 576.2 40.4 C 574.7 37.6 574 34.3 574 30.6 C 574 26.9 574.8 23.6 576.2 20.7 C 577.7 17.9 579.7 15.7 582.4 14.1 C 585.1 12.5 588.3 11.7 592 11.7 C 595.2 11.7 598 12.3 600.3 13.4 C 602.7 14.6 604.6 16.2 606 18.3 C 607.4 20.4 608.2 22.9 608.3 25.7 C 608.3 25.7 598.8 25.7 598.8 25.7 C 598.5 23.9 597.8 22.4 596.6 21.3 C 595.5 20.2 594 19.6 592.1 19.6 C 590.6 19.6 589.2 20 588 20.9 C 586.9 21.7 586 23 585.3 24.6 C 584.7 26.2 584.3 28.2 584.3 30.5 C 584.3 32.8 584.7 34.8 585.3 36.4 C 585.9 38 586.8 39.3 588 40.1 C 589.2 41 590.6 41.4 592.1 41.4 C 593.3 41.4 594.3 41.2 595.3 40.7 C 596.2 40.2 597 39.5 597.6 38.6 C 598.2 37.7 598.6 36.6 598.8 35.3 C 598.8 35.3 608.3 35.3 608.3 35.3 C 608.2 38.1 607.4 40.6 606.1 42.7 C 604.7 44.8 602.8 46.5 600.5 47.7 C 598.1 48.8 595.3 49.4 592 49.4 Z M 630.2 49.4 C 626.4 49.4 623.2 48.6 620.5 47 C 617.8 45.5 615.8 43.2 614.3 40.4 C 612.9 37.6 612.2 34.3 612.2 30.6 C 612.2 26.9 612.9 23.6 614.4 20.7 C 615.8 17.9 617.9 15.7 620.6 14.1 C 623.2 12.5 626.4 11.7 630.1 11.7 C 633.3 11.7 636.1 12.3 638.5 13.4 C 640.9 14.6 642.8 16.2 644.2 18.3 C 645.6 20.4 646.3 22.9 646.5 25.7 C 646.5 25.7 636.9 25.7 636.9 25.7 C 636.7 23.9 635.9 22.4 634.8 21.3 C 633.6 20.2 632.1 19.6 630.3 19.6 C 628.7 19.6 627.3 20 626.2 20.9 C 625 21.7 624.1 23 623.5 24.6 C 622.8 26.2 622.5 28.2 622.5 30.5 C 622.5 32.8 622.8 34.8 623.4 36.4 C 624.1 38 625 39.3 626.2 40.1 C 627.3 41 628.7 41.4 630.3 41.4 C 631.4 41.4 632.5 41.2 633.4 40.7 C 634.3 40.2 635.1 39.5 635.7 38.6 C 636.3 37.7 636.7 36.6 636.9 35.3 C 636.9 35.3 646.5 35.3 646.5 35.3 C 646.3 38.1 645.6 40.6 644.2 42.7 C 642.9 44.8 641 46.5 638.6 47.7 C 636.2 48.8 633.4 49.4 630.2 49.4 Z M 668.5 49.4 C 664.7 49.4 661.5 48.7 658.8 47.1 C 656.1 45.6 654 43.4 652.5 40.6 C 651.1 37.8 650.3 34.5 650.3 30.6 C 650.3 26.9 651.1 23.6 652.5 20.7 C 654 17.9 656 15.7 658.7 14.1 C 661.3 12.5 664.5 11.7 668.1 11.7 C 670.5 11.7 672.7 12.1 674.8 12.9 C 676.9 13.6 678.7 14.8 680.3 16.3 C 681.8 17.9 683 19.8 683.9 22.1 C 684.8 24.4 685.2 27.2 685.2 30.3 C 685.23 30.26 685.2 33 685.2 33 L 654.4 33 L 654.4 26.8 C 654.4 26.8 675.69 26.77 675.7 26.8 C 675.7 25.3 675.4 24 674.7 22.9 C 674.1 21.8 673.2 20.9 672.1 20.2 C 671 19.6 669.7 19.3 668.2 19.3 C 666.7 19.3 665.3 19.6 664.1 20.3 C 663 21 662 22 661.4 23.2 C 660.7 24.3 660.4 25.7 660.3 27.1 C 660.3 27.1 660.3 33.1 660.3 33.1 C 660.3 34.9 660.7 36.4 661.4 37.8 C 662 39.1 663 40.1 664.2 40.8 C 665.5 41.5 666.9 41.9 668.6 41.9 C 669.7 41.9 670.8 41.7 671.7 41.4 C 672.7 41.1 673.5 40.6 674.1 40 C 674.8 39.3 675.3 38.6 675.6 37.6 C 675.6 37.6 685 38.3 685 38.3 C 684.5 40.5 683.6 42.5 682.1 44.1 C 680.6 45.8 678.7 47.1 676.4 48 C 674.1 49 671.5 49.4 668.5 49.4 Z M 721.1 22.6 C 721.1 22.6 711.8 23.2 711.8 23.2 C 711.7 22.4 711.3 21.7 710.8 21 C 710.3 20.4 709.6 19.9 708.8 19.5 C 707.9 19.1 706.9 18.9 705.7 18.9 C 704.1 18.9 702.8 19.2 701.7 19.9 C 700.7 20.5 700.1 21.4 700.1 22.5 C 700.1 23.4 700.5 24.1 701.2 24.7 C 701.9 25.3 703.1 25.8 704.8 26.2 C 704.8 26.2 711.4 27.5 711.4 27.5 C 714.9 28.2 717.6 29.4 719.3 31 C 721.1 32.6 721.9 34.8 721.9 37.4 C 721.9 39.8 721.2 41.9 719.8 43.7 C 718.4 45.5 716.5 46.9 714.1 47.9 C 711.6 48.9 708.8 49.4 705.7 49.4 C 700.8 49.4 697 48.4 694.1 46.4 C 691.3 44.4 689.6 41.6 689.1 38.1 C 689.1 38.1 699.1 37.6 699.1 37.6 C 699.4 39.1 700.1 40.2 701.2 41 C 702.4 41.8 703.9 42.1 705.7 42.1 C 707.5 42.1 708.9 41.8 710 41.1 C 711.1 40.4 711.6 39.5 711.6 38.4 C 711.6 37.5 711.2 36.7 710.5 36.2 C 709.7 35.6 708.5 35.1 707 34.8 C 707 34.8 700.6 33.5 700.6 33.5 C 697.1 32.8 694.4 31.6 692.7 29.8 C 690.9 28.1 690.1 25.8 690.1 23.1 C 690.1 20.7 690.7 18.7 692 17 C 693.3 15.3 695.1 14 697.4 13.1 C 699.7 12.2 702.4 11.7 705.6 11.7 C 710.2 11.7 713.8 12.7 716.5 14.6 C 719.1 16.6 720.7 19.2 721.1 22.6 Z M 757.8 22.6 C 757.8 22.6 748.5 23.2 748.5 23.2 C 748.4 22.4 748 21.7 747.5 21 C 747 20.4 746.3 19.9 745.5 19.5 C 744.6 19.1 743.6 18.9 742.4 18.9 C 740.9 18.9 739.5 19.2 738.5 19.9 C 737.4 20.5 736.8 21.4 736.8 22.5 C 736.8 23.4 737.2 24.1 737.9 24.7 C 738.6 25.3 739.8 25.8 741.5 26.2 C 741.5 26.2 748.1 27.5 748.1 27.5 C 751.6 28.2 754.3 29.4 756 31 C 757.8 32.6 758.7 34.8 758.7 37.4 C 758.7 39.8 758 41.9 756.6 43.7 C 755.1 45.5 753.2 46.9 750.8 47.9 C 748.4 48.9 745.6 49.4 742.4 49.4 C 737.5 49.4 733.7 48.4 730.8 46.4 C 728 44.4 726.3 41.6 725.8 38.1 C 725.8 38.1 735.8 37.6 735.8 37.6 C 736.1 39.1 736.8 40.2 738 41 C 739.1 41.8 740.6 42.1 742.4 42.1 C 744.2 42.1 745.6 41.8 746.7 41.1 C 747.8 40.4 748.3 39.5 748.4 38.4 C 748.3 37.5 748 36.7 747.2 36.2 C 746.4 35.6 745.3 35.1 743.7 34.8 C 743.7 34.8 737.3 33.5 737.3 33.5 C 733.8 32.8 731.1 31.6 729.4 29.8 C 727.6 28.1 726.8 25.8 726.8 23.1 C 726.8 20.7 727.4 18.7 728.7 17 C 730 15.3 731.8 14 734.1 13.1 C 736.4 12.2 739.1 11.7 742.3 11.7 C 746.9 11.7 750.5 12.7 753.2 14.6 C 755.8 16.6 757.4 19.2 757.8 22.6 Z " stroke="none" fill="#ffffff"/>  </g></svg>