<?xml version="1.0" standalone="no"?><!DOCTYPE svg PUBLIC "-//W3C//DTD SVG 1.1//EN" "http://www.w3.org/Graphics/SVG/1.1/DTD/svg11.dtd"><svg xmlns="http://www.w3.org/2000/svg" version="1.1" width="61px" height="18.4px" viewBox="0 -5 61 18.4" style="top:-5px">  <desc>4 / 19</desc>  <defs/>  <g id="Polygon111625">    <path d="M 17.8 5.8 L 17.8 5.1 L 21 0 L 21.5 0 L 21.5 1.1 L 21.1 1.1 L 18.7 4.9 L 18.7 5 L 23 5 L 23 5.8 L 17.8 5.8 Z M 21.2 7.3 L 21.2 5.6 L 21.2 5.2 L 21.2 0 L 22 0 L 22 7.3 L 21.2 7.3 Z M 29.8 -0.3 L 27.4 8.4 L 26.6 8.4 L 29 -0.3 L 29.8 -0.3 Z M 36.1 0 L 36.1 7.3 L 35.2 7.3 L 35.2 0.9 L 35.2 0.9 L 33.4 2.1 L 33.4 1.2 L 35.2 0 L 36.1 0 Z M 40.4 -0.1 C 40.7 -0.1 41 0 41.3 0.1 C 41.6 0.2 41.9 0.4 42.1 0.6 C 42.4 0.9 42.6 1.2 42.7 1.7 C 42.9 2.1 42.9 2.7 42.9 3.3 C 42.9 4 42.9 4.6 42.8 5.1 C 42.6 5.6 42.5 6 42.2 6.3 C 42 6.7 41.7 6.9 41.4 7.1 C 41.1 7.3 40.7 7.4 40.3 7.4 C 39.9 7.4 39.5 7.3 39.2 7.1 C 38.9 7 38.6 6.7 38.4 6.5 C 38.2 6.2 38.1 5.8 38 5.4 C 38 5.4 38.9 5.4 38.9 5.4 C 39 5.8 39.1 6 39.4 6.3 C 39.6 6.5 39.9 6.6 40.3 6.6 C 40.9 6.6 41.3 6.3 41.6 5.9 C 42 5.4 42.1 4.7 42.1 3.8 C 42.1 3.8 42.1 3.8 42.1 3.8 C 41.9 4 41.8 4.1 41.6 4.3 C 41.4 4.4 41.2 4.5 41 4.6 C 40.8 4.7 40.5 4.7 40.3 4.7 C 39.9 4.7 39.5 4.6 39.1 4.4 C 38.8 4.2 38.5 3.9 38.3 3.6 C 38.1 3.2 38 2.8 38 2.3 C 38 1.9 38.1 1.5 38.3 1.1 C 38.5 0.7 38.8 0.4 39.1 0.2 C 39.5 0 39.9 -0.1 40.4 -0.1 Z M 40.4 0.7 C 40.1 0.7 39.9 0.8 39.6 0.9 C 39.4 1.1 39.2 1.3 39.1 1.5 C 38.9 1.8 38.8 2 38.8 2.3 C 38.8 2.6 38.9 2.9 39 3.2 C 39.2 3.4 39.4 3.6 39.6 3.7 C 39.8 3.9 40.1 4 40.4 4 C 40.6 4 40.8 3.9 41 3.8 C 41.2 3.7 41.4 3.6 41.5 3.5 C 41.7 3.3 41.8 3.1 41.9 2.9 C 42 2.7 42 2.5 42 2.3 C 42 2 41.9 1.8 41.8 1.5 C 41.7 1.3 41.5 1.1 41.2 0.9 C 41 0.8 40.7 0.7 40.4 0.7 Z " stroke="none" fill="#10283d"/>  </g></svg>