<?xml version="1.0" standalone="no"?><!DOCTYPE svg PUBLIC "-//W3C//DTD SVG 1.1//EN" "http://www.w3.org/Graphics/SVG/1.1/DTD/svg11.dtd"><svg xmlns="http://www.w3.org/2000/svg" version="1.1" width="413.5px" height="46.5px" viewBox="0 -11 413.5 46.5" style="top:-11px">  <desc>Disconnected intelligence</desc>  <defs/>  <g id="Polygon108960">    <path d="M 46.4 19.6 C 46.44 19.64 40.4 19.6 40.4 19.6 L 40.4 0 C 40.4 0 46.71 0 46.7 0 C 48.6 0 50.2 0.4 51.6 1.2 C 53 2 54 3.1 54.7 4.5 C 55.4 6 55.8 7.7 55.8 9.8 C 55.8 11.8 55.4 13.6 54.7 15.1 C 54 16.5 52.9 17.7 51.5 18.5 C 50.1 19.2 48.4 19.6 46.4 19.6 Z M 42.8 17.5 C 42.8 17.5 46.28 17.53 46.3 17.5 C 47.9 17.5 49.3 17.2 50.3 16.6 C 51.4 16 52.2 15.1 52.7 13.9 C 53.2 12.8 53.5 11.4 53.5 9.8 C 53.5 8.2 53.2 6.8 52.7 5.7 C 52.2 4.5 51.4 3.7 50.4 3 C 49.4 2.4 48.1 2.1 46.6 2.1 C 46.55 2.11 42.8 2.1 42.8 2.1 L 42.8 17.5 Z M 59.4 19.6 L 59.4 4.9 L 61.6 4.9 L 61.6 19.6 L 59.4 19.6 Z M 60.5 2.5 C 60.1 2.5 59.7 2.3 59.4 2 C 59.1 1.7 58.9 1.3 58.9 0.9 C 58.9 0.5 59.1 0.1 59.4 -0.2 C 59.7 -0.5 60.1 -0.6 60.5 -0.6 C 61 -0.6 61.4 -0.5 61.7 -0.2 C 62 0.1 62.1 0.5 62.1 0.9 C 62.1 1.3 62 1.7 61.7 2 C 61.4 2.3 61 2.5 60.5 2.5 Z M 76 8.2 C 76 8.2 73.9 8.8 73.9 8.8 C 73.8 8.4 73.6 8.1 73.4 7.8 C 73.1 7.5 72.8 7.2 72.4 7 C 71.9 6.8 71.4 6.7 70.7 6.7 C 69.8 6.7 69.1 6.9 68.5 7.3 C 67.9 7.7 67.6 8.2 67.6 8.9 C 67.6 9.4 67.8 9.9 68.2 10.2 C 68.6 10.5 69.3 10.8 70.1 11 C 70.1 11 72.3 11.5 72.3 11.5 C 73.6 11.9 74.6 12.4 75.3 13 C 75.9 13.7 76.2 14.5 76.2 15.5 C 76.2 16.4 76 17.1 75.5 17.8 C 75 18.5 74.3 19 73.5 19.4 C 72.6 19.8 71.6 19.9 70.5 19.9 C 69 19.9 67.7 19.6 66.7 19 C 65.8 18.3 65.1 17.4 64.9 16.1 C 64.9 16.1 67 15.6 67 15.6 C 67.2 16.4 67.6 17 68.2 17.4 C 68.8 17.8 69.5 17.9 70.4 17.9 C 71.5 17.9 72.3 17.7 72.9 17.3 C 73.6 16.8 73.9 16.3 73.9 15.6 C 73.9 15.1 73.7 14.7 73.3 14.4 C 73 14 72.4 13.7 71.7 13.6 C 71.7 13.6 69.2 13 69.2 13 C 67.9 12.7 66.9 12.2 66.3 11.5 C 65.6 10.8 65.3 10 65.3 9 C 65.3 8.1 65.6 7.4 66 6.8 C 66.5 6.1 67.1 5.6 68 5.3 C 68.8 4.9 69.7 4.7 70.7 4.7 C 72.2 4.7 73.3 5 74.2 5.7 C 75 6.3 75.6 7.2 76 8.2 Z M 85.4 19.9 C 84 19.9 82.8 19.6 81.8 19 C 80.8 18.3 80 17.4 79.5 16.3 C 79 15.1 78.7 13.8 78.7 12.3 C 78.7 10.9 79 9.5 79.5 8.4 C 80.1 7.2 80.9 6.3 81.9 5.7 C 82.8 5 84 4.7 85.3 4.7 C 86.4 4.7 87.3 4.9 88.1 5.3 C 89 5.7 89.6 6.2 90.2 6.9 C 90.7 7.6 91 8.4 91.2 9.3 C 91.2 9.3 88.9 9.3 88.9 9.3 C 88.7 8.6 88.4 8.1 87.8 7.5 C 87.2 7 86.4 6.8 85.4 6.8 C 84.5 6.8 83.7 7 83.1 7.4 C 82.4 7.9 81.9 8.5 81.5 9.4 C 81.1 10.2 81 11.2 81 12.3 C 81 13.4 81.1 14.4 81.5 15.2 C 81.9 16.1 82.4 16.7 83 17.2 C 83.7 17.7 84.5 17.9 85.4 17.9 C 86 17.9 86.5 17.8 87 17.6 C 87.5 17.4 87.9 17.1 88.2 16.7 C 88.5 16.3 88.8 15.9 88.9 15.3 C 88.9 15.3 91.2 15.3 91.2 15.3 C 91 16.2 90.7 17 90.2 17.7 C 89.7 18.4 89.1 18.9 88.2 19.3 C 87.4 19.7 86.5 19.9 85.4 19.9 Z M 100.2 19.9 C 98.9 19.9 97.7 19.6 96.7 19 C 95.7 18.4 94.9 17.5 94.4 16.3 C 93.8 15.2 93.5 13.9 93.5 12.3 C 93.5 10.8 93.8 9.5 94.4 8.3 C 94.9 7.2 95.7 6.3 96.7 5.7 C 97.7 5 98.9 4.7 100.2 4.7 C 101.5 4.7 102.7 5 103.7 5.7 C 104.7 6.3 105.5 7.2 106 8.3 C 106.6 9.5 106.9 10.8 106.9 12.3 C 106.9 13.9 106.6 15.2 106 16.3 C 105.5 17.5 104.7 18.4 103.7 19 C 102.7 19.6 101.5 19.9 100.2 19.9 Z M 100.2 17.9 C 101.2 17.9 102.1 17.7 102.7 17.1 C 103.4 16.6 103.8 15.9 104.2 15.1 C 104.5 14.2 104.6 13.3 104.6 12.3 C 104.6 11.4 104.5 10.4 104.2 9.6 C 103.8 8.7 103.4 8.1 102.7 7.5 C 102.1 7 101.2 6.8 100.2 6.8 C 99.2 6.8 98.4 7 97.7 7.5 C 97.1 8.1 96.6 8.7 96.3 9.6 C 96 10.4 95.8 11.4 95.8 12.3 C 95.8 13.3 96 14.2 96.3 15.1 C 96.6 15.9 97.1 16.6 97.7 17.1 C 98.4 17.7 99.2 17.9 100.2 17.9 Z M 112.5 10.8 C 112.49 10.78 112.5 19.6 112.5 19.6 L 110.2 19.6 L 110.2 4.9 L 112.4 4.9 L 112.4 7.2 C 112.4 7.2 112.61 7.21 112.6 7.2 C 113 6.5 113.5 5.9 114.2 5.4 C 114.9 4.9 115.8 4.7 116.9 4.7 C 117.9 4.7 118.8 4.9 119.5 5.3 C 120.3 5.7 120.8 6.3 121.3 7.2 C 121.7 8 121.9 9 121.9 10.3 C 121.89 10.28 121.9 19.6 121.9 19.6 L 119.6 19.6 C 119.6 19.6 119.62 10.43 119.6 10.4 C 119.6 9.3 119.3 8.4 118.7 7.7 C 118.1 7.1 117.3 6.8 116.2 6.8 C 115.5 6.8 114.9 6.9 114.3 7.2 C 113.8 7.5 113.3 8 113 8.6 C 112.7 9.2 112.5 9.9 112.5 10.8 Z M 128.2 10.8 C 128.16 10.78 128.2 19.6 128.2 19.6 L 125.9 19.6 L 125.9 4.9 L 128.1 4.9 L 128.1 7.2 C 128.1 7.2 128.27 7.21 128.3 7.2 C 128.6 6.5 129.1 5.9 129.8 5.4 C 130.5 4.9 131.5 4.7 132.6 4.7 C 133.6 4.7 134.4 4.9 135.2 5.3 C 135.9 5.7 136.5 6.3 136.9 7.2 C 137.3 8 137.6 9 137.6 10.3 C 137.55 10.28 137.6 19.6 137.6 19.6 L 135.3 19.6 C 135.3 19.6 135.29 10.43 135.3 10.4 C 135.3 9.3 135 8.4 134.4 7.7 C 133.8 7.1 133 6.8 131.9 6.8 C 131.2 6.8 130.5 6.9 130 7.2 C 129.4 7.5 129 8 128.6 8.6 C 128.3 9.2 128.2 9.9 128.2 10.8 Z M 147.7 19.9 C 146.3 19.9 145.1 19.6 144 19 C 143 18.4 142.2 17.5 141.7 16.4 C 141.1 15.2 140.8 13.9 140.8 12.4 C 140.8 10.9 141.1 9.5 141.7 8.4 C 142.2 7.2 143 6.3 144 5.7 C 145 5 146.1 4.7 147.5 4.7 C 148.2 4.7 149 4.8 149.7 5.1 C 150.5 5.4 151.2 5.8 151.8 6.3 C 152.4 6.9 152.9 7.7 153.3 8.6 C 153.6 9.5 153.8 10.7 153.8 12.1 C 153.8 12.08 153.8 13 153.8 13 L 142.4 13 L 142.4 11.1 C 142.4 11.1 151.5 11.08 151.5 11.1 C 151.5 10.3 151.3 9.5 151 8.9 C 150.7 8.2 150.2 7.7 149.6 7.3 C 149 6.9 148.3 6.8 147.5 6.8 C 146.6 6.8 145.8 7 145.1 7.4 C 144.5 7.9 144 8.4 143.6 9.1 C 143.3 9.9 143.1 10.6 143.1 11.4 C 143.1 11.4 143.1 12.7 143.1 12.7 C 143.1 13.8 143.3 14.8 143.7 15.6 C 144.1 16.3 144.6 16.9 145.3 17.3 C 146 17.7 146.8 17.9 147.7 17.9 C 148.3 17.9 148.8 17.8 149.3 17.7 C 149.8 17.5 150.2 17.2 150.6 16.9 C 150.9 16.5 151.2 16.1 151.4 15.6 C 151.4 15.6 153.6 16.2 153.6 16.2 C 153.3 17 153 17.6 152.4 18.2 C 151.9 18.7 151.2 19.2 150.4 19.5 C 149.6 19.8 148.7 19.9 147.7 19.9 Z M 163.1 19.9 C 161.7 19.9 160.5 19.6 159.5 19 C 158.5 18.3 157.8 17.4 157.2 16.3 C 156.7 15.1 156.4 13.8 156.4 12.3 C 156.4 10.9 156.7 9.5 157.3 8.4 C 157.8 7.2 158.6 6.3 159.6 5.7 C 160.6 5 161.7 4.7 163.1 4.7 C 164.1 4.7 165 4.9 165.9 5.3 C 166.7 5.7 167.4 6.2 167.9 6.9 C 168.4 7.6 168.8 8.4 168.9 9.3 C 168.9 9.3 166.6 9.3 166.6 9.3 C 166.4 8.6 166.1 8.1 165.5 7.5 C 164.9 7 164.1 6.8 163.1 6.8 C 162.2 6.8 161.4 7 160.8 7.4 C 160.1 7.9 159.6 8.5 159.2 9.4 C 158.9 10.2 158.7 11.2 158.7 12.3 C 158.7 13.4 158.9 14.4 159.2 15.2 C 159.6 16.1 160.1 16.7 160.8 17.2 C 161.4 17.7 162.2 17.9 163.1 17.9 C 163.7 17.9 164.2 17.8 164.7 17.6 C 165.2 17.4 165.6 17.1 165.9 16.7 C 166.2 16.3 166.5 15.9 166.6 15.3 C 166.6 15.3 168.9 15.3 168.9 15.3 C 168.8 16.2 168.4 17 167.9 17.7 C 167.4 18.4 166.8 18.9 166 19.3 C 165.1 19.7 164.2 19.9 163.1 19.9 Z M 178.4 4.9 L 178.4 6.8 L 170.8 6.8 L 170.8 4.9 L 178.4 4.9 Z M 173 1.4 L 175.3 1.4 C 175.3 1.4 175.27 15.42 175.3 15.4 C 175.3 16.1 175.4 16.5 175.5 16.9 C 175.7 17.2 176 17.4 176.3 17.5 C 176.6 17.6 176.9 17.6 177.2 17.6 C 177.5 17.6 177.7 17.6 177.8 17.6 C 178 17.6 178.1 17.5 178.2 17.5 C 178.2 17.5 178.7 19.6 178.7 19.6 C 178.5 19.6 178.3 19.7 178 19.7 C 177.8 19.8 177.4 19.8 177 19.8 C 176.4 19.8 175.7 19.7 175.1 19.4 C 174.5 19.1 174 18.7 173.6 18.2 C 173.2 17.6 173 16.9 173 16 C 173 16.03 173 1.4 173 1.4 Z M 187.1 19.9 C 185.7 19.9 184.5 19.6 183.5 19 C 182.4 18.4 181.6 17.5 181.1 16.4 C 180.5 15.2 180.3 13.9 180.3 12.4 C 180.3 10.9 180.5 9.5 181.1 8.4 C 181.6 7.2 182.4 6.3 183.4 5.7 C 184.4 5 185.6 4.7 186.9 4.7 C 187.7 4.7 188.4 4.8 189.2 5.1 C 189.9 5.4 190.6 5.8 191.2 6.3 C 191.8 6.9 192.3 7.7 192.7 8.6 C 193 9.5 193.2 10.7 193.2 12.1 C 193.22 12.08 193.2 13 193.2 13 L 181.9 13 L 181.9 11.1 C 181.9 11.1 190.92 11.08 190.9 11.1 C 190.9 10.3 190.8 9.5 190.4 8.9 C 190.1 8.2 189.6 7.7 189 7.3 C 188.4 6.9 187.7 6.8 186.9 6.8 C 186 6.8 185.2 7 184.6 7.4 C 183.9 7.9 183.4 8.4 183 9.1 C 182.7 9.9 182.5 10.6 182.5 11.4 C 182.5 11.4 182.5 12.7 182.5 12.7 C 182.5 13.8 182.7 14.8 183.1 15.6 C 183.5 16.3 184 16.9 184.7 17.3 C 185.4 17.7 186.2 17.9 187.1 17.9 C 187.7 17.9 188.3 17.8 188.7 17.7 C 189.2 17.5 189.6 17.2 190 16.9 C 190.3 16.5 190.6 16.1 190.8 15.6 C 190.8 15.6 193 16.2 193 16.2 C 192.8 17 192.4 17.6 191.8 18.2 C 191.3 18.7 190.6 19.2 189.8 19.5 C 189 19.8 188.1 19.9 187.1 19.9 Z M 202.1 19.9 C 200.9 19.9 199.8 19.6 198.8 19 C 197.9 18.4 197.2 17.5 196.6 16.4 C 196.1 15.2 195.8 13.9 195.8 12.3 C 195.8 10.8 196.1 9.4 196.6 8.3 C 197.2 7.1 197.9 6.3 198.8 5.6 C 199.8 5 200.9 4.7 202.1 4.7 C 203.1 4.7 203.8 4.9 204.4 5.2 C 205 5.5 205.4 5.9 205.7 6.3 C 206 6.7 206.2 7 206.4 7.2 C 206.39 7.25 206.6 7.2 206.6 7.2 L 206.6 0 L 208.8 0 L 208.8 19.6 L 206.7 19.6 L 206.7 17.4 C 206.7 17.4 206.39 17.37 206.4 17.4 C 206.2 17.6 206 18 205.7 18.4 C 205.4 18.8 204.9 19.2 204.4 19.5 C 203.8 19.8 203 19.9 202.1 19.9 Z M 202.4 17.9 C 203.3 17.9 204.1 17.7 204.7 17.2 C 205.3 16.7 205.8 16.1 206.1 15.2 C 206.5 14.4 206.6 13.4 206.6 12.3 C 206.6 11.2 206.5 10.2 206.1 9.4 C 205.8 8.6 205.3 7.9 204.7 7.4 C 204.1 7 203.3 6.8 202.4 6.8 C 201.4 6.8 200.6 7 200 7.5 C 199.4 8 198.9 8.6 198.6 9.5 C 198.3 10.3 198.1 11.2 198.1 12.3 C 198.1 13.3 198.3 14.3 198.6 15.1 C 198.9 16 199.4 16.7 200 17.2 C 200.7 17.7 201.5 17.9 202.4 17.9 Z M 220.9 19.6 L 220.9 4.9 L 223.1 4.9 L 223.1 19.6 L 220.9 19.6 Z M 222 2.5 C 221.6 2.5 221.2 2.3 220.9 2 C 220.6 1.7 220.4 1.3 220.4 0.9 C 220.4 0.5 220.6 0.1 220.9 -0.2 C 221.2 -0.5 221.6 -0.6 222 -0.6 C 222.5 -0.6 222.9 -0.5 223.2 -0.2 C 223.5 0.1 223.6 0.5 223.6 0.9 C 223.6 1.3 223.5 1.7 223.2 2 C 222.9 2.3 222.5 2.5 222 2.5 Z M 229.5 10.8 C 229.45 10.78 229.5 19.6 229.5 19.6 L 227.2 19.6 L 227.2 4.9 L 229.4 4.9 L 229.4 7.2 C 229.4 7.2 229.57 7.21 229.6 7.2 C 229.9 6.5 230.4 5.9 231.1 5.4 C 231.8 4.9 232.7 4.7 233.9 4.7 C 234.9 4.7 235.7 4.9 236.5 5.3 C 237.2 5.7 237.8 6.3 238.2 7.2 C 238.6 8 238.8 9 238.8 10.3 C 238.85 10.28 238.8 19.6 238.8 19.6 L 236.6 19.6 C 236.6 19.6 236.58 10.43 236.6 10.4 C 236.6 9.3 236.3 8.4 235.7 7.7 C 235.1 7.1 234.3 6.8 233.2 6.8 C 232.5 6.8 231.8 6.9 231.3 7.2 C 230.7 7.5 230.3 8 229.9 8.6 C 229.6 9.2 229.5 9.9 229.5 10.8 Z M 248.9 4.9 L 248.9 6.8 L 241.2 6.8 L 241.2 4.9 L 248.9 4.9 Z M 243.5 1.4 L 245.7 1.4 C 245.7 1.4 245.72 15.42 245.7 15.4 C 245.7 16.1 245.8 16.5 246 16.9 C 246.2 17.2 246.4 17.4 246.7 17.5 C 247 17.6 247.3 17.6 247.7 17.6 C 247.9 17.6 248.1 17.6 248.3 17.6 C 248.5 17.6 248.6 17.5 248.7 17.5 C 248.7 17.5 249.1 19.6 249.1 19.6 C 249 19.6 248.8 19.7 248.5 19.7 C 248.2 19.8 247.9 19.8 247.4 19.8 C 246.8 19.8 246.2 19.7 245.6 19.4 C 245 19.1 244.5 18.7 244.1 18.2 C 243.7 17.6 243.5 16.9 243.5 16 C 243.46 16.03 243.5 1.4 243.5 1.4 Z M 257.6 19.9 C 256.2 19.9 254.9 19.6 253.9 19 C 252.9 18.4 252.1 17.5 251.5 16.4 C 251 15.2 250.7 13.9 250.7 12.4 C 250.7 10.9 251 9.5 251.5 8.4 C 252.1 7.2 252.9 6.3 253.9 5.7 C 254.9 5 256 4.7 257.3 4.7 C 258.1 4.7 258.9 4.8 259.6 5.1 C 260.4 5.4 261 5.8 261.7 6.3 C 262.3 6.9 262.8 7.7 263.1 8.6 C 263.5 9.5 263.7 10.7 263.7 12.1 C 263.68 12.08 263.7 13 263.7 13 L 252.3 13 L 252.3 11.1 C 252.3 11.1 261.37 11.08 261.4 11.1 C 261.4 10.3 261.2 9.5 260.9 8.9 C 260.6 8.2 260.1 7.7 259.5 7.3 C 258.9 6.9 258.2 6.8 257.3 6.8 C 256.4 6.8 255.7 7 255 7.4 C 254.4 7.9 253.9 8.4 253.5 9.1 C 253.2 9.9 253 10.6 253 11.4 C 253 11.4 253 12.7 253 12.7 C 253 13.8 253.2 14.8 253.6 15.6 C 253.9 16.3 254.5 16.9 255.2 17.3 C 255.9 17.7 256.7 17.9 257.6 17.9 C 258.2 17.9 258.7 17.8 259.2 17.7 C 259.7 17.5 260.1 17.2 260.4 16.9 C 260.8 16.5 261.1 16.1 261.3 15.6 C 261.3 15.6 263.4 16.2 263.4 16.2 C 263.2 17 262.8 17.6 262.3 18.2 C 261.7 18.7 261.1 19.2 260.3 19.5 C 259.5 19.8 258.6 19.9 257.6 19.9 Z M 269.3 0 L 269.3 19.6 L 267 19.6 L 267 0 L 269.3 0 Z M 275.6 0 L 275.6 19.6 L 273.3 19.6 L 273.3 0 L 275.6 0 Z M 279.6 19.6 L 279.6 4.9 L 281.9 4.9 L 281.9 19.6 L 279.6 19.6 Z M 280.8 2.5 C 280.4 2.5 280 2.3 279.7 2 C 279.3 1.7 279.2 1.3 279.2 0.9 C 279.2 0.5 279.3 0.1 279.7 -0.2 C 280 -0.5 280.4 -0.6 280.8 -0.6 C 281.2 -0.6 281.6 -0.5 281.9 -0.2 C 282.3 0.1 282.4 0.5 282.4 0.9 C 282.4 1.3 282.3 1.7 281.9 2 C 281.6 2.3 281.2 2.5 280.8 2.5 Z M 291.8 25.5 C 290.7 25.5 289.8 25.3 289 25 C 288.2 24.8 287.5 24.4 287 24 C 286.5 23.5 286.1 23 285.8 22.5 C 285.8 22.5 287.6 21.2 287.6 21.2 C 287.8 21.5 288.1 21.8 288.4 22.2 C 288.7 22.5 289.1 22.8 289.7 23.1 C 290.2 23.3 290.9 23.5 291.8 23.5 C 293 23.5 294 23.2 294.8 22.6 C 295.5 22 295.9 21.1 295.9 19.9 C 295.91 19.9 295.9 16.9 295.9 16.9 C 295.9 16.9 295.72 16.91 295.7 16.9 C 295.6 17.2 295.3 17.5 295 17.9 C 294.7 18.3 294.3 18.6 293.7 19 C 293.1 19.3 292.4 19.4 291.4 19.4 C 290.2 19.4 289.2 19.1 288.2 18.6 C 287.3 18 286.5 17.2 286 16.1 C 285.4 15 285.2 13.7 285.2 12.2 C 285.2 10.7 285.4 9.4 286 8.3 C 286.5 7.1 287.2 6.3 288.2 5.6 C 289.1 5 290.2 4.7 291.5 4.7 C 292.4 4.7 293.2 4.9 293.7 5.2 C 294.3 5.5 294.8 5.9 295.1 6.3 C 295.4 6.7 295.6 7 295.8 7.2 C 295.76 7.25 296 7.2 296 7.2 L 296 4.9 L 298.2 4.9 C 298.2 4.9 298.17 20.06 298.2 20.1 C 298.2 21.3 297.9 22.4 297.3 23.2 C 296.7 23.9 296 24.5 295 24.9 C 294.1 25.3 293 25.5 291.8 25.5 Z M 291.7 17.4 C 292.6 17.4 293.4 17.2 294 16.8 C 294.7 16.3 295.1 15.7 295.5 15 C 295.8 14.2 296 13.2 296 12.2 C 296 11.1 295.8 10.2 295.5 9.3 C 295.2 8.5 294.7 7.9 294.1 7.4 C 293.4 7 292.7 6.8 291.7 6.8 C 290.8 6.8 290 7 289.3 7.5 C 288.7 8 288.2 8.6 287.9 9.4 C 287.6 10.3 287.4 11.2 287.4 12.2 C 287.4 13.2 287.6 14.1 287.9 14.9 C 288.2 15.6 288.7 16.3 289.4 16.7 C 290 17.2 290.8 17.4 291.7 17.4 Z M 308.4 19.9 C 307 19.9 305.7 19.6 304.7 19 C 303.7 18.4 302.9 17.5 302.3 16.4 C 301.8 15.2 301.5 13.9 301.5 12.4 C 301.5 10.9 301.8 9.5 302.3 8.4 C 302.9 7.2 303.7 6.3 304.7 5.7 C 305.6 5 306.8 4.7 308.1 4.7 C 308.9 4.7 309.7 4.8 310.4 5.1 C 311.2 5.4 311.8 5.8 312.5 6.3 C 313.1 6.9 313.6 7.7 313.9 8.6 C 314.3 9.5 314.5 10.7 314.5 12.1 C 314.47 12.08 314.5 13 314.5 13 L 303.1 13 L 303.1 11.1 C 303.1 11.1 312.17 11.08 312.2 11.1 C 312.2 10.3 312 9.5 311.7 8.9 C 311.3 8.2 310.9 7.7 310.3 7.3 C 309.7 6.9 309 6.8 308.1 6.8 C 307.2 6.8 306.5 7 305.8 7.4 C 305.1 7.9 304.6 8.4 304.3 9.1 C 303.9 9.9 303.8 10.6 303.8 11.4 C 303.8 11.4 303.8 12.7 303.8 12.7 C 303.8 13.8 304 14.8 304.3 15.6 C 304.7 16.3 305.3 16.9 306 17.3 C 306.7 17.7 307.5 17.9 308.4 17.9 C 309 17.9 309.5 17.8 310 17.7 C 310.5 17.5 310.9 17.2 311.2 16.9 C 311.6 16.5 311.9 16.1 312.1 15.6 C 312.1 15.6 314.2 16.2 314.2 16.2 C 314 17 313.6 17.6 313.1 18.2 C 312.5 18.7 311.9 19.2 311.1 19.5 C 310.3 19.8 309.4 19.9 308.4 19.9 Z M 320.1 10.8 C 320.07 10.78 320.1 19.6 320.1 19.6 L 317.8 19.6 L 317.8 4.9 L 320 4.9 L 320 7.2 C 320 7.2 320.19 7.21 320.2 7.2 C 320.5 6.5 321.1 5.9 321.8 5.4 C 322.5 4.9 323.4 4.7 324.5 4.7 C 325.5 4.7 326.4 4.9 327.1 5.3 C 327.9 5.7 328.4 6.3 328.8 7.2 C 329.3 8 329.5 9 329.5 10.3 C 329.47 10.28 329.5 19.6 329.5 19.6 L 327.2 19.6 C 327.2 19.6 327.21 10.43 327.2 10.4 C 327.2 9.3 326.9 8.4 326.3 7.7 C 325.7 7.1 324.9 6.8 323.8 6.8 C 323.1 6.8 322.5 6.9 321.9 7.2 C 321.3 7.5 320.9 8 320.6 8.6 C 320.2 9.2 320.1 9.9 320.1 10.8 Z M 339.4 19.9 C 338 19.9 336.8 19.6 335.8 19 C 334.8 18.3 334 17.4 333.5 16.3 C 333 15.1 332.7 13.8 332.7 12.3 C 332.7 10.9 333 9.5 333.5 8.4 C 334.1 7.2 334.9 6.3 335.9 5.7 C 336.8 5 338 4.7 339.3 4.7 C 340.4 4.7 341.3 4.9 342.1 5.3 C 343 5.7 343.7 6.2 344.2 6.9 C 344.7 7.6 345 8.4 345.2 9.3 C 345.2 9.3 342.9 9.3 342.9 9.3 C 342.7 8.6 342.4 8.1 341.8 7.5 C 341.2 7 340.4 6.8 339.4 6.8 C 338.5 6.8 337.7 7 337.1 7.4 C 336.4 7.9 335.9 8.5 335.5 9.4 C 335.2 10.2 335 11.2 335 12.3 C 335 13.4 335.1 14.4 335.5 15.2 C 335.9 16.1 336.4 16.7 337 17.2 C 337.7 17.7 338.5 17.9 339.4 17.9 C 340 17.9 340.5 17.8 341 17.6 C 341.5 17.4 341.9 17.1 342.2 16.7 C 342.5 16.3 342.8 15.9 342.9 15.3 C 342.9 15.3 345.2 15.3 345.2 15.3 C 345 16.2 344.7 17 344.2 17.7 C 343.7 18.4 343.1 18.9 342.2 19.3 C 341.4 19.7 340.5 19.9 339.4 19.9 Z M 354.4 19.9 C 353 19.9 351.8 19.6 350.7 19 C 349.7 18.4 348.9 17.5 348.4 16.4 C 347.8 15.2 347.5 13.9 347.5 12.4 C 347.5 10.9 347.8 9.5 348.4 8.4 C 348.9 7.2 349.7 6.3 350.7 5.7 C 351.7 5 352.8 4.7 354.2 4.7 C 354.9 4.7 355.7 4.8 356.5 5.1 C 357.2 5.4 357.9 5.8 358.5 6.3 C 359.1 6.9 359.6 7.7 360 8.6 C 360.3 9.5 360.5 10.7 360.5 12.1 C 360.51 12.08 360.5 13 360.5 13 L 349.2 13 L 349.2 11.1 C 349.2 11.1 358.21 11.08 358.2 11.1 C 358.2 10.3 358 9.5 357.7 8.9 C 357.4 8.2 356.9 7.7 356.3 7.3 C 355.7 6.9 355 6.8 354.2 6.8 C 353.3 6.8 352.5 7 351.8 7.4 C 351.2 7.9 350.7 8.4 350.3 9.1 C 350 9.9 349.8 10.6 349.8 11.4 C 349.8 11.4 349.8 12.7 349.8 12.7 C 349.8 13.8 350 14.8 350.4 15.6 C 350.8 16.3 351.3 16.9 352 17.3 C 352.7 17.7 353.5 17.9 354.4 17.9 C 355 17.9 355.5 17.8 356 17.7 C 356.5 17.5 356.9 17.2 357.3 16.9 C 357.6 16.5 357.9 16.1 358.1 15.6 C 358.1 15.6 360.3 16.2 360.3 16.2 C 360 17 359.7 17.6 359.1 18.2 C 358.6 18.7 357.9 19.2 357.1 19.5 C 356.3 19.8 355.4 19.9 354.4 19.9 Z " stroke="none" fill="#ffffff"/>  </g></svg>