<?xml version="1.0" standalone="no"?><!DOCTYPE svg PUBLIC "-//W3C//DTD SVG 1.1//EN" "http://www.w3.org/Graphics/SVG/1.1/DTD/svg11.dtd"><svg xmlns="http://www.w3.org/2000/svg" version="1.1" width="225px" height="143.6px" viewBox="0 -10 225 143.6" style="top:-10px">  <desc>Difficult to use ￼ Deployment can be difficult and tools hard to understand. More about this ￼</desc>  <defs/>  <g id="Polygon115776">    <path d="M 0.9 109.3 L 3.8 109.3 L 6.8 116.6 L 6.9 116.6 L 9.9 109.3 L 12.8 109.3 L 12.8 120.2 L 10.5 120.2 L 10.5 113.1 L 10.4 113.1 L 7.6 120.1 L 6.1 120.1 L 3.3 113.1 L 3.2 113.1 L 3.2 120.2 L 0.9 120.2 L 0.9 109.3 Z M 18.4 120.3 C 17.5 120.3 16.8 120.2 16.2 119.8 C 15.6 119.5 15.1 119 14.8 118.3 C 14.5 117.7 14.3 117 14.3 116.1 C 14.3 115.3 14.5 114.5 14.8 113.9 C 15.1 113.3 15.6 112.8 16.2 112.4 C 16.8 112.1 17.5 111.9 18.4 111.9 C 19.2 111.9 19.9 112.1 20.5 112.4 C 21.1 112.8 21.6 113.3 21.9 113.9 C 22.2 114.5 22.4 115.3 22.4 116.1 C 22.4 117 22.2 117.7 21.9 118.3 C 21.6 119 21.1 119.5 20.5 119.8 C 19.9 120.2 19.2 120.3 18.4 120.3 Z M 18.4 118.6 C 18.7 118.6 19.1 118.5 19.3 118.3 C 19.6 118 19.8 117.8 19.9 117.4 C 20 117 20.1 116.6 20.1 116.1 C 20.1 115.6 20 115.2 19.9 114.8 C 19.8 114.5 19.6 114.2 19.3 113.9 C 19.1 113.7 18.7 113.6 18.4 113.6 C 18 113.6 17.7 113.7 17.4 113.9 C 17.2 114.2 17 114.5 16.8 114.8 C 16.7 115.2 16.6 115.6 16.6 116.1 C 16.6 116.6 16.7 117 16.8 117.4 C 17 117.8 17.2 118 17.4 118.3 C 17.7 118.5 18 118.6 18.4 118.6 Z M 23.9 120.2 L 23.9 112 L 26.1 112 L 26.1 113.4 C 26.1 113.4 26.15 113.43 26.1 113.4 C 26.3 112.9 26.5 112.5 26.9 112.3 C 27.3 112 27.7 111.9 28.1 111.9 C 28.2 111.9 28.3 111.9 28.5 111.9 C 28.6 111.9 28.7 111.9 28.8 112 C 28.8 112 28.8 114 28.8 114 C 28.7 113.9 28.6 113.9 28.4 113.9 C 28.2 113.9 28 113.9 27.9 113.9 C 27.5 113.9 27.2 113.9 27 114.1 C 26.7 114.2 26.5 114.4 26.4 114.7 C 26.2 114.9 26.1 115.2 26.1 115.6 C 26.13 115.55 26.1 120.2 26.1 120.2 L 23.9 120.2 Z M 33.6 120.3 C 32.7 120.3 32 120.2 31.4 119.8 C 30.8 119.5 30.3 119 30 118.4 C 29.7 117.7 29.5 117 29.5 116.1 C 29.5 115.3 29.7 114.5 30 113.9 C 30.3 113.3 30.8 112.8 31.4 112.4 C 32 112.1 32.7 111.9 33.5 111.9 C 34 111.9 34.5 112 35 112.2 C 35.4 112.3 35.8 112.6 36.2 112.9 C 36.5 113.3 36.8 113.7 37 114.2 C 37.2 114.7 37.3 115.4 37.3 116 C 37.31 116.05 37.3 116.7 37.3 116.7 L 30.4 116.7 L 30.4 115.3 C 30.4 115.3 35.17 115.27 35.2 115.3 C 35.2 114.9 35.1 114.6 35 114.4 C 34.8 114.1 34.6 113.9 34.4 113.8 C 34.1 113.7 33.8 113.6 33.5 113.6 C 33.2 113.6 32.8 113.7 32.6 113.8 C 32.3 114 32.1 114.2 32 114.5 C 31.8 114.7 31.7 115 31.7 115.3 C 31.7 115.3 31.7 116.7 31.7 116.7 C 31.7 117.1 31.8 117.4 32 117.7 C 32.1 118 32.3 118.2 32.6 118.4 C 32.9 118.6 33.2 118.6 33.6 118.6 C 33.8 118.6 34.1 118.6 34.3 118.5 C 34.5 118.5 34.7 118.4 34.8 118.2 C 35 118.1 35.1 117.9 35.2 117.7 C 35.2 117.7 37.3 117.8 37.3 117.8 C 37.2 118.3 36.9 118.8 36.6 119.2 C 36.3 119.5 35.9 119.8 35.3 120 C 34.8 120.2 34.2 120.3 33.6 120.3 Z M 44.6 120.3 C 44.1 120.3 43.6 120.2 43.2 120.1 C 42.8 119.9 42.5 119.6 42.2 119.2 C 42 118.9 41.9 118.4 41.9 117.9 C 41.9 117.4 42 117.1 42.1 116.8 C 42.3 116.4 42.5 116.2 42.8 116 C 43.1 115.8 43.4 115.7 43.8 115.6 C 44.2 115.5 44.6 115.4 45 115.4 C 45.4 115.3 45.8 115.3 46.1 115.2 C 46.4 115.2 46.6 115.1 46.7 115 C 46.9 114.9 46.9 114.8 46.9 114.6 C 46.9 114.6 46.9 114.6 46.9 114.6 C 46.9 114.3 46.8 114 46.6 113.8 C 46.4 113.6 46.1 113.6 45.7 113.6 C 45.3 113.6 45 113.6 44.7 113.8 C 44.5 114 44.3 114.2 44.3 114.5 C 44.3 114.5 42.2 114.3 42.2 114.3 C 42.3 113.8 42.5 113.4 42.8 113 C 43.1 112.7 43.5 112.4 44 112.2 C 44.5 112 45.1 111.9 45.7 111.9 C 46.2 111.9 46.6 111.9 47 112.1 C 47.5 112.2 47.8 112.3 48.2 112.5 C 48.5 112.8 48.7 113.1 48.9 113.4 C 49.1 113.8 49.2 114.2 49.2 114.7 C 49.21 114.66 49.2 120.2 49.2 120.2 L 47.1 120.2 L 47.1 119 C 47.1 119 46.99 119.05 47 119 C 46.9 119.3 46.7 119.5 46.5 119.7 C 46.2 119.9 46 120.1 45.7 120.2 C 45.4 120.3 45 120.3 44.6 120.3 Z M 45.2 118.8 C 45.6 118.8 45.9 118.7 46.1 118.6 C 46.4 118.4 46.6 118.3 46.7 118 C 46.9 117.8 47 117.5 47 117.3 C 47 117.3 47 116.4 47 116.4 C 46.9 116.4 46.8 116.5 46.7 116.5 C 46.5 116.6 46.4 116.6 46.3 116.6 C 46.1 116.6 45.9 116.7 45.8 116.7 C 45.6 116.7 45.5 116.7 45.4 116.8 C 45.1 116.8 44.9 116.9 44.7 116.9 C 44.5 117 44.3 117.1 44.2 117.3 C 44.1 117.4 44.1 117.6 44.1 117.8 C 44.1 118.1 44.2 118.4 44.4 118.5 C 44.6 118.7 44.9 118.8 45.2 118.8 Z M 50.9 120.2 L 50.9 109.3 L 53.2 109.3 L 53.2 113.4 C 53.2 113.4 53.25 113.37 53.3 113.4 C 53.3 113.2 53.5 112.9 53.7 112.7 C 53.9 112.5 54.1 112.3 54.4 112.1 C 54.7 112 55.1 111.9 55.6 111.9 C 56.2 111.9 56.7 112 57.2 112.4 C 57.7 112.7 58.1 113.1 58.4 113.8 C 58.7 114.4 58.9 115.2 58.9 116.1 C 58.9 117 58.7 117.8 58.5 118.4 C 58.2 119 57.8 119.5 57.3 119.8 C 56.8 120.2 56.2 120.3 55.6 120.3 C 55.1 120.3 54.8 120.2 54.5 120.1 C 54.1 120 53.9 119.8 53.7 119.5 C 53.5 119.3 53.4 119.1 53.3 118.9 C 53.25 118.87 53.1 118.9 53.1 118.9 L 53.1 120.2 L 50.9 120.2 Z M 53.1 116.1 C 53.1 116.6 53.2 117 53.3 117.4 C 53.5 117.7 53.7 118 53.9 118.2 C 54.2 118.4 54.5 118.5 54.9 118.5 C 55.2 118.5 55.5 118.4 55.8 118.2 C 56 118 56.2 117.7 56.4 117.4 C 56.5 117 56.6 116.6 56.6 116.1 C 56.6 115.6 56.5 115.2 56.4 114.8 C 56.2 114.5 56.1 114.2 55.8 114 C 55.5 113.8 55.2 113.7 54.9 113.7 C 54.5 113.7 54.2 113.8 53.9 114 C 53.7 114.2 53.5 114.5 53.3 114.8 C 53.2 115.2 53.1 115.6 53.1 116.1 Z M 64.1 120.3 C 63.2 120.3 62.5 120.2 61.9 119.8 C 61.3 119.5 60.9 119 60.5 118.3 C 60.2 117.7 60.1 117 60.1 116.1 C 60.1 115.3 60.2 114.5 60.5 113.9 C 60.9 113.3 61.3 112.8 61.9 112.4 C 62.5 112.1 63.2 111.9 64.1 111.9 C 64.9 111.9 65.6 112.1 66.2 112.4 C 66.8 112.8 67.3 113.3 67.6 113.9 C 67.9 114.5 68.1 115.3 68.1 116.1 C 68.1 117 67.9 117.7 67.6 118.3 C 67.3 119 66.8 119.5 66.2 119.8 C 65.6 120.2 64.9 120.3 64.1 120.3 Z M 64.1 118.6 C 64.5 118.6 64.8 118.5 65 118.3 C 65.3 118 65.5 117.8 65.6 117.4 C 65.7 117 65.8 116.6 65.8 116.1 C 65.8 115.6 65.7 115.2 65.6 114.8 C 65.5 114.5 65.3 114.2 65 113.9 C 64.8 113.7 64.5 113.6 64.1 113.6 C 63.7 113.6 63.4 113.7 63.1 113.9 C 62.9 114.2 62.7 114.5 62.6 114.8 C 62.4 115.2 62.4 115.6 62.4 116.1 C 62.4 116.6 62.4 117 62.6 117.4 C 62.7 117.8 62.9 118 63.1 118.3 C 63.4 118.5 63.7 118.6 64.1 118.6 Z M 74.8 116.7 C 74.78 116.7 74.8 112 74.8 112 L 77 112 L 77 120.2 L 74.9 120.2 L 74.9 118.7 C 74.9 118.7 74.79 118.7 74.8 118.7 C 74.6 119.2 74.3 119.6 73.9 119.9 C 73.4 120.1 72.9 120.3 72.3 120.3 C 71.8 120.3 71.3 120.2 70.9 119.9 C 70.4 119.7 70.1 119.3 69.9 118.9 C 69.7 118.4 69.5 117.8 69.5 117.2 C 69.53 117.21 69.5 112 69.5 112 L 71.8 112 C 71.8 112 71.8 116.8 71.8 116.8 C 71.8 117.3 71.9 117.7 72.2 117.9 C 72.4 118.2 72.8 118.4 73.2 118.4 C 73.5 118.4 73.7 118.3 74 118.2 C 74.2 118.1 74.4 117.9 74.6 117.6 C 74.7 117.4 74.8 117.1 74.8 116.7 Z M 83.2 112 L 83.2 113.7 L 78.2 113.7 L 78.2 112 L 83.2 112 Z M 79.3 110 L 81.6 110 C 81.6 110 81.62 117.67 81.6 117.7 C 81.6 117.9 81.6 118 81.7 118.2 C 81.8 118.3 81.9 118.4 82 118.4 C 82.1 118.4 82.2 118.5 82.4 118.5 C 82.5 118.5 82.6 118.5 82.7 118.4 C 82.8 118.4 82.9 118.4 82.9 118.4 C 82.9 118.4 83.3 120.1 83.3 120.1 C 83.2 120.1 83 120.2 82.8 120.2 C 82.6 120.3 82.4 120.3 82.1 120.3 C 81.5 120.3 81 120.2 80.6 120.1 C 80.2 119.9 79.9 119.6 79.7 119.3 C 79.5 118.9 79.3 118.5 79.3 118 C 79.35 117.97 79.3 110 79.3 110 Z M 92.5 112 L 92.5 113.7 L 87.5 113.7 L 87.5 112 L 92.5 112 Z M 88.7 110 L 90.9 110 C 90.9 110 90.92 117.67 90.9 117.7 C 90.9 117.9 91 118 91 118.2 C 91.1 118.3 91.2 118.4 91.3 118.4 C 91.4 118.4 91.5 118.5 91.7 118.5 C 91.8 118.5 91.9 118.5 92 118.4 C 92.1 118.4 92.2 118.4 92.3 118.4 C 92.3 118.4 92.6 120.1 92.6 120.1 C 92.5 120.1 92.3 120.2 92.1 120.2 C 91.9 120.3 91.7 120.3 91.4 120.3 C 90.8 120.3 90.4 120.2 89.9 120.1 C 89.5 119.9 89.2 119.6 89 119.3 C 88.8 118.9 88.6 118.5 88.7 118 C 88.65 117.97 88.7 110 88.7 110 Z M 96.1 115.5 C 96.08 115.45 96.1 120.2 96.1 120.2 L 93.8 120.2 L 93.8 109.3 L 96 109.3 L 96 113.4 C 96 113.4 96.11 113.44 96.1 113.4 C 96.3 113 96.6 112.6 97 112.3 C 97.4 112 97.9 111.9 98.6 111.9 C 99.1 111.9 99.6 112 100 112.3 C 100.5 112.5 100.8 112.9 101 113.3 C 101.3 113.8 101.4 114.3 101.4 115 C 101.39 114.97 101.4 120.2 101.4 120.2 L 99.1 120.2 C 99.1 120.2 99.12 115.38 99.1 115.4 C 99.1 114.9 99 114.5 98.7 114.2 C 98.5 113.9 98.1 113.8 97.7 113.8 C 97.4 113.8 97.1 113.8 96.8 114 C 96.6 114.1 96.4 114.3 96.3 114.5 C 96.2 114.8 96.1 115.1 96.1 115.5 Z M 103.1 120.2 L 103.1 112 L 105.4 112 L 105.4 120.2 L 103.1 120.2 Z M 104.3 110.9 C 103.9 110.9 103.7 110.8 103.4 110.6 C 103.2 110.4 103.1 110.1 103.1 109.8 C 103.1 109.5 103.2 109.2 103.4 109 C 103.7 108.8 103.9 108.6 104.3 108.6 C 104.6 108.6 104.9 108.8 105.1 109 C 105.4 109.2 105.5 109.5 105.5 109.8 C 105.5 110.1 105.4 110.4 105.1 110.6 C 104.9 110.8 104.6 110.9 104.3 110.9 Z M 113.9 114.3 C 113.9 114.3 111.9 114.5 111.9 114.5 C 111.8 114.3 111.8 114.1 111.6 114 C 111.5 113.8 111.4 113.7 111.2 113.6 C 111 113.5 110.8 113.5 110.5 113.5 C 110.1 113.5 109.9 113.6 109.6 113.7 C 109.4 113.9 109.2 114.1 109.2 114.3 C 109.2 114.5 109.3 114.7 109.5 114.8 C 109.6 114.9 109.9 115.1 110.3 115.1 C 110.3 115.1 111.8 115.4 111.8 115.4 C 112.6 115.6 113.2 115.9 113.5 116.2 C 113.9 116.6 114.1 117.1 114.1 117.6 C 114.1 118.2 114 118.7 113.7 119.1 C 113.3 119.5 112.9 119.8 112.4 120 C 111.8 120.2 111.2 120.3 110.5 120.3 C 109.4 120.3 108.5 120.1 107.9 119.7 C 107.3 119.2 106.9 118.6 106.8 117.8 C 106.8 117.8 109 117.7 109 117.7 C 109.1 118 109.2 118.3 109.5 118.4 C 109.8 118.6 110.1 118.7 110.5 118.7 C 110.9 118.7 111.2 118.6 111.5 118.5 C 111.7 118.3 111.8 118.1 111.8 117.9 C 111.8 117.7 111.7 117.5 111.6 117.4 C 111.4 117.2 111.1 117.1 110.8 117.1 C 110.8 117.1 109.4 116.8 109.4 116.8 C 108.6 116.6 108 116.3 107.6 115.9 C 107.2 115.6 107 115.1 107 114.4 C 107 113.9 107.1 113.5 107.4 113.1 C 107.7 112.7 108.1 112.4 108.6 112.2 C 109.2 112 109.8 111.9 110.5 111.9 C 111.5 111.9 112.3 112.1 112.9 112.5 C 113.5 113 113.8 113.6 113.9 114.3 Z " stroke="none" fill="#10283d"/>  </g>  <g id="Polygon115775">    <path d="M 3.6 92.8 C 3 92.8 2.6 92.7 2.1 92.5 C 1.7 92.3 1.4 92 1.1 91.6 C 0.9 91.2 0.8 90.8 0.8 90.3 C 0.8 89.8 0.9 89.4 1 89.1 C 1.2 88.8 1.5 88.6 1.8 88.4 C 2.1 88.3 2.4 88.1 2.8 88.1 C 3.2 88 3.6 87.9 3.9 87.9 C 4.4 87.8 4.8 87.7 5.2 87.7 C 5.5 87.7 5.7 87.6 5.8 87.5 C 6 87.5 6.1 87.3 6.1 87.1 C 6.1 87.1 6.1 87.1 6.1 87.1 C 6.1 86.5 5.9 86.1 5.6 85.8 C 5.3 85.5 4.9 85.4 4.3 85.4 C 3.7 85.4 3.3 85.5 2.9 85.8 C 2.6 86.1 2.3 86.3 2.2 86.6 C 2.2 86.6 1 86.2 1 86.2 C 1.2 85.7 1.5 85.3 1.9 85 C 2.2 84.8 2.6 84.6 3 84.5 C 3.5 84.3 3.9 84.3 4.3 84.3 C 4.5 84.3 4.8 84.3 5.2 84.4 C 5.5 84.4 5.9 84.6 6.2 84.8 C 6.5 85 6.8 85.2 7 85.6 C 7.2 86 7.3 86.5 7.3 87.2 C 7.31 87.19 7.3 92.6 7.3 92.6 L 6.1 92.6 L 6.1 91.5 C 6.1 91.5 5.99 91.47 6 91.5 C 5.9 91.7 5.8 91.8 5.6 92 C 5.4 92.2 5.1 92.4 4.8 92.6 C 4.4 92.7 4 92.8 3.6 92.8 Z M 3.8 91.6 C 4.2 91.6 4.7 91.5 5 91.4 C 5.4 91.2 5.6 90.9 5.8 90.6 C 6 90.3 6.1 90 6.1 89.6 C 6.1 89.6 6.1 88.5 6.1 88.5 C 6 88.5 5.9 88.6 5.7 88.6 C 5.5 88.7 5.3 88.7 5.1 88.8 C 4.9 88.8 4.6 88.8 4.4 88.9 C 4.2 88.9 4 88.9 3.9 88.9 C 3.6 89 3.2 89 3 89.1 C 2.7 89.2 2.5 89.4 2.3 89.6 C 2.1 89.8 2 90 2 90.3 C 2 90.8 2.2 91.1 2.5 91.3 C 2.8 91.5 3.2 91.6 3.8 91.6 Z M 10.9 87.7 C 10.86 87.66 10.9 92.6 10.9 92.6 L 9.6 92.6 L 9.6 84.4 L 10.8 84.4 L 10.8 85.7 C 10.8 85.7 10.92 85.68 10.9 85.7 C 11.1 85.3 11.4 84.9 11.8 84.7 C 12.2 84.4 12.7 84.3 13.3 84.3 C 13.9 84.3 14.3 84.4 14.8 84.6 C 15.2 84.9 15.5 85.2 15.7 85.7 C 16 86.1 16.1 86.7 16.1 87.4 C 16.08 87.38 16.1 92.6 16.1 92.6 L 14.8 92.6 C 14.8 92.6 14.82 87.47 14.8 87.5 C 14.8 86.8 14.7 86.3 14.3 86 C 14 85.6 13.5 85.4 12.9 85.4 C 12.5 85.4 12.2 85.5 11.9 85.7 C 11.6 85.9 11.3 86.1 11.1 86.4 C 10.9 86.8 10.9 87.2 10.9 87.7 Z M 21.4 92.8 C 20.8 92.8 20.2 92.6 19.6 92.2 C 19.1 91.9 18.7 91.4 18.4 90.8 C 18.1 90.1 18 89.4 18 88.5 C 18 87.7 18.1 86.9 18.4 86.3 C 18.7 85.6 19.1 85.2 19.6 84.8 C 20.2 84.5 20.8 84.3 21.5 84.3 C 22 84.3 22.4 84.4 22.7 84.6 C 23 84.7 23.3 84.9 23.4 85.2 C 23.6 85.4 23.7 85.6 23.8 85.7 C 23.83 85.7 23.9 85.7 23.9 85.7 L 23.9 81.7 L 25.2 81.7 L 25.2 92.6 L 24 92.6 L 24 91.3 C 24 91.3 23.83 91.32 23.8 91.3 C 23.7 91.5 23.6 91.7 23.4 91.9 C 23.3 92.1 23 92.3 22.7 92.5 C 22.4 92.7 22 92.8 21.4 92.8 Z M 21.6 91.6 C 22.1 91.6 22.5 91.5 22.9 91.2 C 23.2 91 23.5 90.6 23.7 90.1 C 23.9 89.7 24 89.1 24 88.5 C 24 87.9 23.9 87.3 23.7 86.9 C 23.5 86.4 23.2 86.1 22.9 85.8 C 22.6 85.6 22.1 85.4 21.6 85.4 C 21.1 85.4 20.6 85.6 20.3 85.8 C 19.9 86.1 19.7 86.5 19.5 86.9 C 19.3 87.4 19.2 87.9 19.2 88.5 C 19.2 89.1 19.3 89.6 19.5 90.1 C 19.7 90.5 19.9 90.9 20.3 91.2 C 20.6 91.5 21.1 91.6 21.6 91.6 Z M 35.4 84.4 L 35.4 85.5 L 31.2 85.5 L 31.2 84.4 L 35.4 84.4 Z M 32.4 82.4 L 33.7 82.4 C 33.7 82.4 33.69 90.24 33.7 90.2 C 33.7 90.6 33.7 90.9 33.8 91 C 34 91.2 34.1 91.3 34.3 91.4 C 34.4 91.4 34.6 91.5 34.8 91.5 C 34.9 91.5 35 91.5 35.1 91.4 C 35.2 91.4 35.3 91.4 35.3 91.4 C 35.3 91.4 35.6 92.5 35.6 92.5 C 35.5 92.6 35.4 92.6 35.2 92.6 C 35.1 92.7 34.9 92.7 34.6 92.7 C 34.3 92.7 33.9 92.6 33.6 92.5 C 33.3 92.3 33 92.1 32.8 91.8 C 32.5 91.4 32.4 91.1 32.4 90.6 C 32.43 90.58 32.4 82.4 32.4 82.4 Z M 40.2 92.8 C 39.5 92.8 38.9 92.6 38.3 92.2 C 37.7 91.9 37.3 91.4 37 90.7 C 36.7 90.1 36.5 89.4 36.5 88.5 C 36.5 87.7 36.7 86.9 37 86.3 C 37.3 85.7 37.7 85.2 38.3 84.8 C 38.9 84.5 39.5 84.3 40.2 84.3 C 41 84.3 41.6 84.5 42.2 84.8 C 42.7 85.2 43.2 85.7 43.5 86.3 C 43.8 86.9 43.9 87.7 43.9 88.5 C 43.9 89.4 43.8 90.1 43.5 90.7 C 43.2 91.4 42.7 91.9 42.2 92.2 C 41.6 92.6 41 92.8 40.2 92.8 Z M 40.2 91.6 C 40.8 91.6 41.3 91.5 41.6 91.2 C 42 90.9 42.3 90.5 42.4 90.1 C 42.6 89.6 42.7 89.1 42.7 88.5 C 42.7 88 42.6 87.5 42.4 87 C 42.3 86.5 42 86.2 41.6 85.9 C 41.3 85.6 40.8 85.4 40.2 85.4 C 39.7 85.4 39.2 85.6 38.9 85.9 C 38.5 86.2 38.2 86.5 38.1 87 C 37.9 87.5 37.8 88 37.8 88.5 C 37.8 89.1 37.9 89.6 38.1 90.1 C 38.2 90.5 38.5 90.9 38.9 91.2 C 39.2 91.5 39.7 91.6 40.2 91.6 Z M 49.2 92.8 C 48.4 92.8 47.8 92.6 47.2 92.2 C 46.7 91.9 46.2 91.4 45.9 90.7 C 45.6 90.1 45.5 89.4 45.5 88.5 C 45.5 87.7 45.6 86.9 45.9 86.3 C 46.2 85.7 46.7 85.2 47.2 84.8 C 47.8 84.5 48.4 84.3 49.2 84.3 C 49.9 84.3 50.6 84.5 51.1 84.8 C 51.7 85.2 52.1 85.7 52.4 86.3 C 52.7 86.9 52.9 87.7 52.9 88.5 C 52.9 89.4 52.7 90.1 52.4 90.7 C 52.1 91.4 51.7 91.9 51.1 92.2 C 50.6 92.6 49.9 92.8 49.2 92.8 Z M 49.2 91.6 C 49.7 91.6 50.2 91.5 50.6 91.2 C 50.9 90.9 51.2 90.5 51.4 90.1 C 51.5 89.6 51.6 89.1 51.6 88.5 C 51.6 88 51.5 87.5 51.4 87 C 51.2 86.5 50.9 86.2 50.6 85.9 C 50.2 85.6 49.7 85.4 49.2 85.4 C 48.6 85.4 48.2 85.6 47.8 85.9 C 47.4 86.2 47.2 86.5 47 87 C 46.8 87.5 46.7 88 46.7 88.5 C 46.7 89.1 46.8 89.6 47 90.1 C 47.2 90.5 47.4 90.9 47.8 91.2 C 48.2 91.5 48.6 91.6 49.2 91.6 Z M 56.1 81.7 L 56.1 92.6 L 54.8 92.6 L 54.8 81.7 L 56.1 81.7 Z M 64.1 86.2 C 64.1 86.2 63 86.6 63 86.6 C 62.9 86.4 62.8 86.2 62.7 86 C 62.5 85.8 62.3 85.7 62.1 85.6 C 61.9 85.4 61.6 85.4 61.2 85.4 C 60.7 85.4 60.3 85.5 60 85.7 C 59.6 86 59.5 86.2 59.5 86.6 C 59.5 86.9 59.6 87.2 59.8 87.3 C 60 87.5 60.4 87.7 60.9 87.8 C 60.9 87.8 62.1 88.1 62.1 88.1 C 62.8 88.3 63.4 88.5 63.7 88.9 C 64.1 89.3 64.2 89.7 64.2 90.3 C 64.2 90.8 64.1 91.2 63.8 91.6 C 63.6 91.9 63.2 92.2 62.7 92.4 C 62.2 92.6 61.7 92.8 61.1 92.8 C 60.2 92.8 59.5 92.6 59 92.2 C 58.4 91.8 58.1 91.3 57.9 90.6 C 57.9 90.6 59.1 90.3 59.1 90.3 C 59.2 90.8 59.5 91.1 59.8 91.3 C 60.1 91.5 60.5 91.6 61 91.6 C 61.6 91.6 62.1 91.5 62.4 91.3 C 62.8 91 62.9 90.7 62.9 90.4 C 62.9 90.1 62.8 89.8 62.6 89.6 C 62.5 89.5 62.1 89.3 61.7 89.2 C 61.7 89.2 60.4 88.9 60.4 88.9 C 59.6 88.7 59.1 88.4 58.7 88.1 C 58.4 87.7 58.2 87.2 58.2 86.7 C 58.2 86.2 58.3 85.8 58.6 85.4 C 58.8 85.1 59.2 84.8 59.7 84.6 C 60.1 84.4 60.6 84.3 61.2 84.3 C 62 84.3 62.6 84.5 63.1 84.8 C 63.6 85.2 63.9 85.7 64.1 86.2 Z M 71.6 87.7 C 71.62 87.66 71.6 92.6 71.6 92.6 L 70.4 92.6 L 70.4 81.7 L 71.6 81.7 L 71.6 85.7 C 71.6 85.7 71.73 85.68 71.7 85.7 C 71.9 85.3 72.2 84.9 72.6 84.7 C 73 84.4 73.5 84.3 74.1 84.3 C 74.7 84.3 75.2 84.4 75.6 84.6 C 76 84.8 76.3 85.2 76.6 85.6 C 76.8 86.1 76.9 86.7 76.9 87.4 C 76.92 87.38 76.9 92.6 76.9 92.6 L 75.7 92.6 C 75.7 92.6 75.67 87.47 75.7 87.5 C 75.7 86.8 75.5 86.3 75.2 86 C 74.8 85.6 74.4 85.4 73.8 85.4 C 73.4 85.4 73 85.5 72.7 85.7 C 72.3 85.9 72.1 86.1 71.9 86.4 C 71.7 86.8 71.6 87.2 71.6 87.7 Z M 81.6 92.8 C 81 92.8 80.6 92.7 80.1 92.5 C 79.7 92.3 79.4 92 79.1 91.6 C 78.9 91.2 78.8 90.8 78.8 90.3 C 78.8 89.8 78.9 89.4 79 89.1 C 79.2 88.8 79.5 88.6 79.8 88.4 C 80.1 88.3 80.4 88.1 80.8 88.1 C 81.2 88 81.6 87.9 81.9 87.9 C 82.4 87.8 82.8 87.7 83.1 87.7 C 83.5 87.7 83.7 87.6 83.8 87.5 C 84 87.5 84 87.3 84 87.1 C 84 87.1 84 87.1 84 87.1 C 84 86.5 83.9 86.1 83.6 85.8 C 83.3 85.5 82.9 85.4 82.3 85.4 C 81.7 85.4 81.2 85.5 80.9 85.8 C 80.6 86.1 80.3 86.3 80.2 86.6 C 80.2 86.6 79 86.2 79 86.2 C 79.2 85.7 79.5 85.3 79.9 85 C 80.2 84.8 80.6 84.6 81 84.5 C 81.4 84.3 81.9 84.3 82.3 84.3 C 82.5 84.3 82.8 84.3 83.2 84.4 C 83.5 84.4 83.9 84.6 84.2 84.8 C 84.5 85 84.8 85.2 85 85.6 C 85.2 86 85.3 86.5 85.3 87.2 C 85.3 87.19 85.3 92.6 85.3 92.6 L 84 92.6 L 84 91.5 C 84 91.5 83.98 91.47 84 91.5 C 83.9 91.7 83.8 91.8 83.6 92 C 83.4 92.2 83.1 92.4 82.8 92.6 C 82.4 92.7 82 92.8 81.6 92.8 Z M 81.7 91.6 C 82.2 91.6 82.7 91.5 83 91.4 C 83.3 91.2 83.6 90.9 83.8 90.6 C 84 90.3 84 90 84 89.6 C 84 89.6 84 88.5 84 88.5 C 84 88.5 83.9 88.6 83.7 88.6 C 83.5 88.7 83.3 88.7 83.1 88.8 C 82.8 88.8 82.6 88.8 82.4 88.9 C 82.2 88.9 82 88.9 81.9 88.9 C 81.5 89 81.2 89 81 89.1 C 80.7 89.2 80.4 89.4 80.3 89.6 C 80.1 89.8 80 90 80 90.3 C 80 90.8 80.2 91.1 80.5 91.3 C 80.8 91.5 81.2 91.6 81.7 91.6 Z M 87.6 92.6 L 87.6 84.4 L 88.8 84.4 L 88.8 85.6 C 88.8 85.6 88.89 85.64 88.9 85.6 C 89 85.2 89.3 84.9 89.7 84.7 C 90.1 84.4 90.5 84.3 91 84.3 C 91.1 84.3 91.2 84.3 91.4 84.3 C 91.5 84.3 91.6 84.3 91.7 84.3 C 91.7 84.3 91.7 85.6 91.7 85.6 C 91.6 85.6 91.5 85.5 91.4 85.5 C 91.2 85.5 91.1 85.5 90.9 85.5 C 90.5 85.5 90.2 85.6 89.9 85.7 C 89.5 85.9 89.3 86.1 89.1 86.4 C 88.9 86.7 88.9 87 88.9 87.4 C 88.85 87.4 88.9 92.6 88.9 92.6 L 87.6 92.6 Z M 96.1 92.8 C 95.4 92.8 94.8 92.6 94.3 92.2 C 93.8 91.9 93.4 91.4 93.1 90.8 C 92.8 90.1 92.7 89.4 92.7 88.5 C 92.7 87.7 92.8 86.9 93.1 86.3 C 93.4 85.6 93.8 85.2 94.3 84.8 C 94.9 84.5 95.5 84.3 96.1 84.3 C 96.7 84.3 97.1 84.4 97.4 84.6 C 97.7 84.7 98 84.9 98.1 85.2 C 98.3 85.4 98.4 85.6 98.5 85.7 C 98.51 85.7 98.6 85.7 98.6 85.7 L 98.6 81.7 L 99.9 81.7 L 99.9 92.6 L 98.7 92.6 L 98.7 91.3 C 98.7 91.3 98.51 91.32 98.5 91.3 C 98.4 91.5 98.3 91.7 98.1 91.9 C 97.9 92.1 97.7 92.3 97.4 92.5 C 97.1 92.7 96.7 92.8 96.1 92.8 Z M 96.3 91.6 C 96.8 91.6 97.2 91.5 97.6 91.2 C 97.9 91 98.2 90.6 98.4 90.1 C 98.5 89.7 98.6 89.1 98.6 88.5 C 98.6 87.9 98.6 87.3 98.4 86.9 C 98.2 86.4 97.9 86.1 97.6 85.8 C 97.2 85.6 96.8 85.4 96.3 85.4 C 95.8 85.4 95.3 85.6 95 85.8 C 94.6 86.1 94.3 86.5 94.2 86.9 C 94 87.4 93.9 87.9 93.9 88.5 C 93.9 89.1 94 89.6 94.2 90.1 C 94.4 90.5 94.6 90.9 95 91.2 C 95.3 91.5 95.8 91.6 96.3 91.6 Z M 110.1 84.4 L 110.1 85.5 L 105.9 85.5 L 105.9 84.4 L 110.1 84.4 Z M 107.1 82.4 L 108.4 82.4 C 108.4 82.4 108.38 90.24 108.4 90.2 C 108.4 90.6 108.4 90.9 108.5 91 C 108.6 91.2 108.8 91.3 108.9 91.4 C 109.1 91.4 109.3 91.5 109.5 91.5 C 109.6 91.5 109.7 91.5 109.8 91.4 C 109.9 91.4 110 91.4 110 91.4 C 110 91.4 110.3 92.5 110.3 92.5 C 110.2 92.6 110.1 92.6 109.9 92.6 C 109.8 92.7 109.6 92.7 109.3 92.7 C 109 92.7 108.6 92.6 108.3 92.5 C 108 92.3 107.7 92.1 107.5 91.8 C 107.2 91.4 107.1 91.1 107.1 90.6 C 107.12 90.58 107.1 82.4 107.1 82.4 Z M 114.9 92.8 C 114.2 92.8 113.5 92.6 113 92.2 C 112.4 91.9 112 91.4 111.7 90.7 C 111.4 90.1 111.2 89.4 111.2 88.5 C 111.2 87.7 111.4 86.9 111.7 86.3 C 112 85.7 112.4 85.2 113 84.8 C 113.5 84.5 114.2 84.3 114.9 84.3 C 115.7 84.3 116.3 84.5 116.9 84.8 C 117.4 85.2 117.9 85.7 118.2 86.3 C 118.5 86.9 118.6 87.7 118.6 88.5 C 118.6 89.4 118.5 90.1 118.2 90.7 C 117.9 91.4 117.4 91.9 116.9 92.2 C 116.3 92.6 115.7 92.8 114.9 92.8 Z M 114.9 91.6 C 115.5 91.6 115.9 91.5 116.3 91.2 C 116.7 90.9 116.9 90.5 117.1 90.1 C 117.3 89.6 117.4 89.1 117.4 88.5 C 117.4 88 117.3 87.5 117.1 87 C 116.9 86.5 116.7 86.2 116.3 85.9 C 115.9 85.6 115.5 85.4 114.9 85.4 C 114.4 85.4 113.9 85.6 113.5 85.9 C 113.2 86.2 112.9 86.5 112.7 87 C 112.6 87.5 112.5 88 112.5 88.5 C 112.5 89.1 112.6 89.6 112.7 90.1 C 112.9 90.5 113.2 90.9 113.5 91.2 C 113.9 91.5 114.4 91.6 114.9 91.6 Z M 129.9 89.2 C 129.93 89.24 129.9 84.4 129.9 84.4 L 131.2 84.4 L 131.2 92.6 L 129.9 92.6 L 129.9 91.2 C 129.9 91.2 129.84 91.2 129.8 91.2 C 129.6 91.6 129.4 92 128.9 92.3 C 128.5 92.5 128 92.7 127.4 92.7 C 126.9 92.7 126.4 92.6 126 92.4 C 125.7 92.1 125.3 91.8 125.1 91.3 C 124.9 90.9 124.8 90.3 124.8 89.6 C 124.77 89.6 124.8 84.4 124.8 84.4 L 126 84.4 C 126 84.4 126.03 89.51 126 89.5 C 126 90.1 126.2 90.6 126.5 90.9 C 126.9 91.3 127.3 91.5 127.8 91.5 C 128.1 91.5 128.4 91.4 128.8 91.2 C 129.1 91.1 129.4 90.8 129.6 90.5 C 129.8 90.2 129.9 89.7 129.9 89.2 Z M 134.7 87.7 C 134.74 87.66 134.7 92.6 134.7 92.6 L 133.5 92.6 L 133.5 84.4 L 134.7 84.4 L 134.7 85.7 C 134.7 85.7 134.81 85.68 134.8 85.7 C 135 85.3 135.3 84.9 135.7 84.7 C 136.1 84.4 136.6 84.3 137.2 84.3 C 137.7 84.3 138.2 84.4 138.6 84.6 C 139.1 84.9 139.4 85.2 139.6 85.7 C 139.8 86.1 140 86.7 140 87.4 C 139.97 87.38 140 92.6 140 92.6 L 138.7 92.6 C 138.7 92.6 138.71 87.47 138.7 87.5 C 138.7 86.8 138.5 86.3 138.2 86 C 137.9 85.6 137.4 85.4 136.8 85.4 C 136.4 85.4 136.1 85.5 135.8 85.7 C 135.4 85.9 135.2 86.1 135 86.4 C 134.8 86.8 134.7 87.2 134.7 87.7 Z M 145.3 92.8 C 144.6 92.8 144 92.6 143.5 92.2 C 143 91.9 142.6 91.4 142.3 90.8 C 142 90.1 141.9 89.4 141.9 88.5 C 141.9 87.7 142 86.9 142.3 86.3 C 142.6 85.6 143 85.2 143.5 84.8 C 144.1 84.5 144.7 84.3 145.3 84.3 C 145.9 84.3 146.3 84.4 146.6 84.6 C 146.9 84.7 147.2 84.9 147.3 85.2 C 147.5 85.4 147.6 85.6 147.7 85.7 C 147.71 85.7 147.8 85.7 147.8 85.7 L 147.8 81.7 L 149.1 81.7 L 149.1 92.6 L 147.9 92.6 L 147.9 91.3 C 147.9 91.3 147.71 91.32 147.7 91.3 C 147.6 91.5 147.5 91.7 147.3 91.9 C 147.1 92.1 146.9 92.3 146.6 92.5 C 146.3 92.7 145.9 92.8 145.3 92.8 Z M 145.5 91.6 C 146 91.6 146.4 91.5 146.8 91.2 C 147.1 91 147.4 90.6 147.6 90.1 C 147.8 89.7 147.8 89.1 147.8 88.5 C 147.8 87.9 147.8 87.3 147.6 86.9 C 147.4 86.4 147.1 86.1 146.8 85.8 C 146.4 85.6 146 85.4 145.5 85.4 C 145 85.4 144.5 85.6 144.2 85.8 C 143.8 86.1 143.6 86.5 143.4 86.9 C 143.2 87.4 143.1 87.9 143.1 88.5 C 143.1 89.1 143.2 89.6 143.4 90.1 C 143.6 90.5 143.8 90.9 144.2 91.2 C 144.5 91.5 145 91.6 145.5 91.6 Z M 154.9 92.8 C 154.1 92.8 153.4 92.6 152.8 92.2 C 152.3 91.9 151.8 91.4 151.5 90.8 C 151.2 90.1 151.1 89.4 151.1 88.6 C 151.1 87.7 151.2 87 151.5 86.3 C 151.8 85.7 152.3 85.2 152.8 84.8 C 153.4 84.5 154 84.3 154.8 84.3 C 155.2 84.3 155.6 84.4 156 84.5 C 156.4 84.6 156.8 84.9 157.2 85.2 C 157.5 85.5 157.8 85.9 158 86.5 C 158.2 87 158.3 87.6 158.3 88.4 C 158.28 88.38 158.3 88.9 158.3 88.9 L 152 88.9 L 152 87.8 C 152 87.8 157 87.83 157 87.8 C 157 87.4 156.9 87 156.7 86.6 C 156.5 86.2 156.3 85.9 155.9 85.7 C 155.6 85.5 155.2 85.4 154.8 85.4 C 154.3 85.4 153.8 85.5 153.5 85.8 C 153.1 86 152.8 86.4 152.6 86.8 C 152.4 87.1 152.3 87.6 152.3 88 C 152.3 88 152.3 88.7 152.3 88.7 C 152.3 89.4 152.4 89.9 152.7 90.3 C 152.9 90.7 153.2 91.1 153.6 91.3 C 153.9 91.5 154.4 91.6 154.9 91.6 C 155.2 91.6 155.5 91.6 155.8 91.5 C 156.1 91.4 156.3 91.2 156.5 91.1 C 156.7 90.9 156.8 90.6 156.9 90.3 C 156.9 90.3 158.1 90.7 158.1 90.7 C 158 91.1 157.8 91.5 157.5 91.8 C 157.2 92.1 156.8 92.3 156.4 92.5 C 155.9 92.7 155.4 92.8 154.9 92.8 Z M 160.2 92.6 L 160.2 84.4 L 161.4 84.4 L 161.4 85.6 C 161.4 85.6 161.49 85.64 161.5 85.6 C 161.6 85.2 161.9 84.9 162.3 84.7 C 162.7 84.4 163.1 84.3 163.6 84.3 C 163.7 84.3 163.8 84.3 164 84.3 C 164.1 84.3 164.2 84.3 164.3 84.3 C 164.3 84.3 164.3 85.6 164.3 85.6 C 164.2 85.6 164.1 85.5 164 85.5 C 163.8 85.5 163.7 85.5 163.5 85.5 C 163.1 85.5 162.8 85.6 162.5 85.7 C 162.1 85.9 161.9 86.1 161.7 86.4 C 161.5 86.7 161.5 87 161.5 87.4 C 161.45 87.4 161.5 92.6 161.5 92.6 L 160.2 92.6 Z M 171.6 86.2 C 171.6 86.2 170.4 86.6 170.4 86.6 C 170.4 86.4 170.2 86.2 170.1 86 C 170 85.8 169.8 85.7 169.6 85.6 C 169.3 85.4 169 85.4 168.7 85.4 C 168.2 85.4 167.7 85.5 167.4 85.7 C 167.1 86 166.9 86.2 166.9 86.6 C 166.9 86.9 167 87.2 167.2 87.3 C 167.5 87.5 167.8 87.7 168.3 87.8 C 168.3 87.8 169.5 88.1 169.5 88.1 C 170.3 88.3 170.8 88.5 171.2 88.9 C 171.5 89.3 171.7 89.7 171.7 90.3 C 171.7 90.8 171.6 91.2 171.3 91.6 C 171 91.9 170.7 92.2 170.2 92.4 C 169.7 92.6 169.1 92.8 168.5 92.8 C 167.7 92.8 167 92.6 166.4 92.2 C 165.9 91.8 165.5 91.3 165.4 90.6 C 165.4 90.6 166.6 90.3 166.6 90.3 C 166.7 90.8 166.9 91.1 167.2 91.3 C 167.6 91.5 168 91.6 168.5 91.6 C 169.1 91.6 169.5 91.5 169.9 91.3 C 170.2 91 170.4 90.7 170.4 90.4 C 170.4 90.1 170.3 89.8 170.1 89.6 C 169.9 89.5 169.6 89.3 169.2 89.2 C 169.2 89.2 167.8 88.9 167.8 88.9 C 167.1 88.7 166.5 88.4 166.2 88.1 C 165.8 87.7 165.6 87.2 165.6 86.7 C 165.6 86.2 165.8 85.8 166 85.4 C 166.3 85.1 166.7 84.8 167.1 84.6 C 167.6 84.4 168.1 84.3 168.7 84.3 C 169.5 84.3 170.1 84.5 170.6 84.8 C 171 85.2 171.4 85.7 171.6 86.2 Z M 177.1 84.4 L 177.1 85.5 L 172.9 85.5 L 172.9 84.4 L 177.1 84.4 Z M 174.1 82.4 L 175.4 82.4 C 175.4 82.4 175.35 90.24 175.4 90.2 C 175.4 90.6 175.4 90.9 175.5 91 C 175.6 91.2 175.7 91.3 175.9 91.4 C 176.1 91.4 176.3 91.5 176.4 91.5 C 176.6 91.5 176.7 91.5 176.8 91.4 C 176.9 91.4 176.9 91.4 177 91.4 C 177 91.4 177.2 92.5 177.2 92.5 C 177.2 92.6 177 92.6 176.9 92.6 C 176.7 92.7 176.5 92.7 176.3 92.7 C 176 92.7 175.6 92.6 175.3 92.5 C 174.9 92.3 174.6 92.1 174.4 91.8 C 174.2 91.4 174.1 91.1 174.1 90.6 C 174.09 90.58 174.1 82.4 174.1 82.4 Z M 181.3 92.8 C 180.8 92.8 180.3 92.7 179.9 92.5 C 179.4 92.3 179.1 92 178.9 91.6 C 178.6 91.2 178.5 90.8 178.5 90.3 C 178.5 89.8 178.6 89.4 178.8 89.1 C 178.9 88.8 179.2 88.6 179.5 88.4 C 179.8 88.3 180.1 88.1 180.5 88.1 C 180.9 88 181.3 87.9 181.7 87.9 C 182.2 87.8 182.6 87.7 182.9 87.7 C 183.2 87.7 183.4 87.6 183.5 87.5 C 183.7 87.5 183.8 87.3 183.8 87.1 C 183.8 87.1 183.8 87.1 183.8 87.1 C 183.8 86.5 183.6 86.1 183.3 85.8 C 183.1 85.5 182.6 85.4 182 85.4 C 181.4 85.4 181 85.5 180.6 85.8 C 180.3 86.1 180 86.3 179.9 86.6 C 179.9 86.6 178.7 86.2 178.7 86.2 C 178.9 85.7 179.2 85.3 179.6 85 C 179.9 84.8 180.3 84.6 180.7 84.5 C 181.2 84.3 181.6 84.3 182 84.3 C 182.3 84.3 182.6 84.3 182.9 84.4 C 183.2 84.4 183.6 84.6 183.9 84.8 C 184.2 85 184.5 85.2 184.7 85.6 C 184.9 86 185 86.5 185 87.2 C 185.02 87.19 185 92.6 185 92.6 L 183.8 92.6 L 183.8 91.5 C 183.8 91.5 183.7 91.47 183.7 91.5 C 183.6 91.7 183.5 91.8 183.3 92 C 183.1 92.2 182.8 92.4 182.5 92.6 C 182.2 92.7 181.7 92.8 181.3 92.8 Z M 181.5 91.6 C 182 91.6 182.4 91.5 182.7 91.4 C 183.1 91.2 183.3 90.9 183.5 90.6 C 183.7 90.3 183.8 90 183.8 89.6 C 183.8 89.6 183.8 88.5 183.8 88.5 C 183.7 88.5 183.6 88.6 183.4 88.6 C 183.2 88.7 183 88.7 182.8 88.8 C 182.6 88.8 182.3 88.8 182.1 88.9 C 181.9 88.9 181.7 88.9 181.6 88.9 C 181.3 89 181 89 180.7 89.1 C 180.4 89.2 180.2 89.4 180 89.6 C 179.8 89.8 179.7 90 179.7 90.3 C 179.7 90.8 179.9 91.1 180.2 91.3 C 180.6 91.5 181 91.6 181.5 91.6 Z M 188.6 87.7 C 188.57 87.66 188.6 92.6 188.6 92.6 L 187.3 92.6 L 187.3 84.4 L 188.5 84.4 L 188.5 85.7 C 188.5 85.7 188.64 85.68 188.6 85.7 C 188.8 85.3 189.1 84.9 189.5 84.7 C 189.9 84.4 190.4 84.3 191 84.3 C 191.6 84.3 192.1 84.4 192.5 84.6 C 192.9 84.9 193.2 85.2 193.4 85.7 C 193.7 86.1 193.8 86.7 193.8 87.4 C 193.79 87.38 193.8 92.6 193.8 92.6 L 192.5 92.6 C 192.5 92.6 192.53 87.47 192.5 87.5 C 192.5 86.8 192.4 86.3 192 86 C 191.7 85.6 191.2 85.4 190.7 85.4 C 190.3 85.4 189.9 85.5 189.6 85.7 C 189.3 85.9 189 86.1 188.8 86.4 C 188.7 86.8 188.6 87.2 188.6 87.7 Z M 199.2 92.8 C 198.5 92.8 197.9 92.6 197.3 92.2 C 196.8 91.9 196.4 91.4 196.1 90.8 C 195.8 90.1 195.7 89.4 195.7 88.5 C 195.7 87.7 195.8 86.9 196.1 86.3 C 196.4 85.6 196.8 85.2 197.4 84.8 C 197.9 84.5 198.5 84.3 199.2 84.3 C 199.7 84.3 200.1 84.4 200.4 84.6 C 200.8 84.7 201 84.9 201.2 85.2 C 201.3 85.4 201.4 85.6 201.5 85.7 C 201.54 85.7 201.6 85.7 201.6 85.7 L 201.6 81.7 L 202.9 81.7 L 202.9 92.6 L 201.7 92.6 L 201.7 91.3 C 201.7 91.3 201.54 91.32 201.5 91.3 C 201.4 91.5 201.3 91.7 201.1 91.9 C 201 92.1 200.7 92.3 200.4 92.5 C 200.1 92.7 199.7 92.8 199.2 92.8 Z M 199.3 91.6 C 199.8 91.6 200.3 91.5 200.6 91.2 C 201 91 201.2 90.6 201.4 90.1 C 201.6 89.7 201.7 89.1 201.7 88.5 C 201.7 87.9 201.6 87.3 201.4 86.9 C 201.2 86.4 201 86.1 200.6 85.8 C 200.3 85.6 199.8 85.4 199.3 85.4 C 198.8 85.4 198.3 85.6 198 85.8 C 197.6 86.1 197.4 86.5 197.2 86.9 C 197 87.4 196.9 87.9 196.9 88.5 C 196.9 89.1 197 89.6 197.2 90.1 C 197.4 90.5 197.7 90.9 198 91.2 C 198.4 91.5 198.8 91.6 199.3 91.6 Z M 206.2 92.7 C 205.9 92.7 205.7 92.6 205.5 92.4 C 205.3 92.2 205.2 92 205.2 91.7 C 205.2 91.4 205.3 91.2 205.5 91 C 205.7 90.8 205.9 90.7 206.2 90.7 C 206.4 90.7 206.7 90.8 206.9 91 C 207 91.2 207.1 91.4 207.1 91.7 C 207.1 91.9 207.1 92 207 92.2 C 206.9 92.3 206.8 92.4 206.7 92.5 C 206.5 92.6 206.4 92.7 206.2 92.7 Z " stroke="none" fill="#000"/>  </g>  <g id="Polygon115774">    <path d="M 4.7 73.4 C 4.69 73.38 1.3 73.4 1.3 73.4 L 1.3 62.5 C 1.3 62.5 4.84 62.47 4.8 62.5 C 5.9 62.5 6.8 62.7 7.6 63.1 C 8.3 63.6 8.9 64.2 9.3 65 C 9.7 65.8 9.9 66.8 9.9 67.9 C 9.9 69 9.7 70 9.3 70.8 C 8.9 71.7 8.3 72.3 7.5 72.7 C 6.7 73.2 5.8 73.4 4.7 73.4 Z M 2.6 72.2 C 2.6 72.2 4.6 72.21 4.6 72.2 C 5.5 72.2 6.3 72 6.8 71.7 C 7.4 71.3 7.9 70.8 8.2 70.2 C 8.5 69.6 8.6 68.8 8.6 67.9 C 8.6 67 8.5 66.3 8.2 65.6 C 7.9 65 7.5 64.5 6.9 64.2 C 6.3 63.8 5.6 63.6 4.8 63.6 C 4.75 63.64 2.6 63.6 2.6 63.6 L 2.6 72.2 Z M 15.4 73.6 C 14.6 73.6 13.9 73.4 13.3 73 C 12.8 72.7 12.3 72.2 12 71.6 C 11.7 70.9 11.6 70.2 11.6 69.4 C 11.6 68.5 11.7 67.8 12 67.1 C 12.3 66.5 12.8 66 13.3 65.6 C 13.9 65.3 14.5 65.1 15.2 65.1 C 15.7 65.1 16.1 65.2 16.5 65.3 C 16.9 65.4 17.3 65.7 17.6 66 C 18 66.3 18.2 66.7 18.5 67.3 C 18.7 67.8 18.8 68.4 18.8 69.2 C 18.75 69.18 18.8 69.7 18.8 69.7 L 12.4 69.7 L 12.4 68.6 C 12.4 68.6 17.48 68.63 17.5 68.6 C 17.5 68.2 17.4 67.8 17.2 67.4 C 17 67 16.8 66.7 16.4 66.5 C 16.1 66.3 15.7 66.2 15.2 66.2 C 14.7 66.2 14.3 66.3 13.9 66.6 C 13.6 66.8 13.3 67.2 13.1 67.6 C 12.9 67.9 12.8 68.4 12.8 68.8 C 12.8 68.8 12.8 69.5 12.8 69.5 C 12.8 70.2 12.9 70.7 13.1 71.1 C 13.3 71.5 13.6 71.9 14 72.1 C 14.4 72.3 14.9 72.4 15.4 72.4 C 15.7 72.4 16 72.4 16.3 72.3 C 16.5 72.2 16.8 72 17 71.9 C 17.2 71.7 17.3 71.4 17.4 71.1 C 17.4 71.1 18.6 71.5 18.6 71.5 C 18.5 71.9 18.3 72.3 18 72.6 C 17.7 72.9 17.3 73.1 16.9 73.3 C 16.4 73.5 15.9 73.6 15.4 73.6 Z M 20.7 76.5 L 20.7 65.2 L 21.9 65.2 L 21.9 66.5 C 21.9 66.5 22.04 66.5 22 66.5 C 22.1 66.4 22.3 66.2 22.4 66 C 22.6 65.7 22.8 65.5 23.1 65.4 C 23.4 65.2 23.9 65.1 24.4 65.1 C 25.1 65.1 25.7 65.3 26.2 65.6 C 26.7 66 27.2 66.4 27.5 67.1 C 27.7 67.7 27.9 68.5 27.9 69.3 C 27.9 70.2 27.7 70.9 27.5 71.6 C 27.2 72.2 26.8 72.7 26.2 73 C 25.7 73.4 25.1 73.6 24.4 73.6 C 23.9 73.6 23.5 73.5 23.2 73.3 C 22.8 73.1 22.6 72.9 22.4 72.7 C 22.3 72.5 22.1 72.3 22 72.1 C 22.04 72.12 21.9 72.1 21.9 72.1 L 21.9 76.5 L 20.7 76.5 Z M 21.9 69.3 C 21.9 69.9 22 70.5 22.2 70.9 C 22.4 71.4 22.6 71.8 23 72 C 23.3 72.3 23.7 72.4 24.3 72.4 C 24.8 72.4 25.2 72.3 25.6 72 C 25.9 71.7 26.2 71.3 26.4 70.9 C 26.5 70.4 26.6 69.9 26.6 69.3 C 26.6 68.7 26.6 68.2 26.4 67.7 C 26.2 67.3 25.9 66.9 25.6 66.6 C 25.2 66.4 24.8 66.2 24.3 66.2 C 23.7 66.2 23.3 66.4 23 66.6 C 22.6 66.9 22.4 67.2 22.2 67.7 C 22 68.1 21.9 68.7 21.9 69.3 Z M 31.1 62.5 L 31.1 73.4 L 29.8 73.4 L 29.8 62.5 L 31.1 62.5 Z M 36.7 73.6 C 36 73.6 35.3 73.4 34.8 73 C 34.2 72.7 33.8 72.2 33.5 71.5 C 33.2 70.9 33 70.2 33 69.3 C 33 68.5 33.2 67.7 33.5 67.1 C 33.8 66.5 34.2 66 34.8 65.6 C 35.3 65.3 36 65.1 36.7 65.1 C 37.5 65.1 38.1 65.3 38.7 65.6 C 39.2 66 39.7 66.5 40 67.1 C 40.3 67.7 40.4 68.5 40.4 69.3 C 40.4 70.2 40.3 70.9 40 71.5 C 39.7 72.2 39.2 72.7 38.7 73 C 38.1 73.4 37.5 73.6 36.7 73.6 Z M 36.7 72.4 C 37.3 72.4 37.7 72.3 38.1 72 C 38.5 71.7 38.7 71.3 38.9 70.9 C 39.1 70.4 39.2 69.9 39.2 69.3 C 39.2 68.8 39.1 68.3 38.9 67.8 C 38.7 67.3 38.5 67 38.1 66.7 C 37.7 66.4 37.3 66.2 36.7 66.2 C 36.2 66.2 35.7 66.4 35.3 66.7 C 35 67 34.7 67.3 34.5 67.8 C 34.4 68.3 34.3 68.8 34.3 69.3 C 34.3 69.9 34.4 70.4 34.5 70.9 C 34.7 71.3 35 71.7 35.3 72 C 35.7 72.3 36.2 72.4 36.7 72.4 Z M 42.8 76.5 C 42.5 76.5 42.4 76.4 42.2 76.4 C 42 76.4 41.9 76.3 41.8 76.3 C 41.8 76.3 42.2 75.2 42.2 75.2 C 42.5 75.3 42.7 75.3 43 75.3 C 43.2 75.3 43.4 75.2 43.6 75 C 43.8 74.8 43.9 74.5 44.1 74.1 C 44.1 74.06 44.3 73.4 44.3 73.4 L 41.3 65.2 L 42.7 65.2 L 44.9 71.7 L 45 71.7 L 47.3 65.2 L 48.6 65.2 C 48.6 65.2 45.17 74.58 45.2 74.6 C 45 75 44.8 75.3 44.6 75.6 C 44.4 75.9 44.1 76.1 43.8 76.2 C 43.5 76.4 43.1 76.5 42.8 76.5 Z M 50.2 73.4 L 50.2 65.2 L 51.4 65.2 L 51.4 66.5 C 51.4 66.5 51.54 66.48 51.5 66.5 C 51.7 66 52 65.7 52.4 65.5 C 52.7 65.2 53.2 65.1 53.7 65.1 C 54.3 65.1 54.7 65.2 55.1 65.5 C 55.4 65.7 55.7 66 55.9 66.5 C 55.9 66.5 56 66.5 56 66.5 C 56.2 66.1 56.5 65.7 57 65.5 C 57.4 65.2 57.9 65.1 58.5 65.1 C 59.2 65.1 59.8 65.3 60.3 65.8 C 60.7 66.2 61 66.9 61 67.9 C 60.96 67.91 61 73.4 61 73.4 L 59.7 73.4 C 59.7 73.4 59.7 67.91 59.7 67.9 C 59.7 67.3 59.5 66.9 59.2 66.6 C 58.9 66.4 58.5 66.2 58 66.2 C 57.5 66.2 57 66.4 56.7 66.7 C 56.4 67.1 56.2 67.5 56.2 68.1 C 56.23 68.06 56.2 73.4 56.2 73.4 L 55 73.4 C 55 73.4 54.95 67.78 55 67.8 C 55 67.3 54.8 66.9 54.5 66.7 C 54.2 66.4 53.8 66.2 53.3 66.2 C 53 66.2 52.7 66.3 52.4 66.5 C 52.1 66.7 51.9 66.9 51.7 67.2 C 51.6 67.5 51.5 67.9 51.5 68.3 C 51.48 68.27 51.5 73.4 51.5 73.4 L 50.2 73.4 Z M 66.7 73.6 C 65.9 73.6 65.2 73.4 64.6 73 C 64.1 72.7 63.6 72.2 63.3 71.6 C 63 70.9 62.8 70.2 62.8 69.4 C 62.8 68.5 63 67.8 63.3 67.1 C 63.6 66.5 64 66 64.6 65.6 C 65.1 65.3 65.8 65.1 66.5 65.1 C 67 65.1 67.4 65.2 67.8 65.3 C 68.2 65.4 68.6 65.7 68.9 66 C 69.3 66.3 69.5 66.7 69.7 67.3 C 69.9 67.8 70 68.4 70 69.2 C 70.05 69.18 70 69.7 70 69.7 L 63.7 69.7 L 63.7 68.6 C 63.7 68.6 68.77 68.63 68.8 68.6 C 68.8 68.2 68.7 67.8 68.5 67.4 C 68.3 67 68.1 66.7 67.7 66.5 C 67.4 66.3 67 66.2 66.5 66.2 C 66 66.2 65.6 66.3 65.2 66.6 C 64.9 66.8 64.6 67.2 64.4 67.6 C 64.2 67.9 64.1 68.4 64.1 68.8 C 64.1 68.8 64.1 69.5 64.1 69.5 C 64.1 70.2 64.2 70.7 64.4 71.1 C 64.6 71.5 64.9 71.9 65.3 72.1 C 65.7 72.3 66.2 72.4 66.7 72.4 C 67 72.4 67.3 72.4 67.6 72.3 C 67.8 72.2 68.1 72 68.3 71.9 C 68.4 71.7 68.6 71.4 68.7 71.1 C 68.7 71.1 69.9 71.5 69.9 71.5 C 69.8 71.9 69.6 72.3 69.3 72.6 C 69 72.9 68.6 73.1 68.2 73.3 C 67.7 73.5 67.2 73.6 66.7 73.6 Z M 73.2 68.5 C 73.23 68.46 73.2 73.4 73.2 73.4 L 72 73.4 L 72 65.2 L 73.2 65.2 L 73.2 66.5 C 73.2 66.5 73.29 66.48 73.3 66.5 C 73.5 66.1 73.8 65.7 74.2 65.5 C 74.6 65.2 75.1 65.1 75.7 65.1 C 76.2 65.1 76.7 65.2 77.1 65.4 C 77.5 65.7 77.9 66 78.1 66.5 C 78.3 66.9 78.4 67.5 78.4 68.2 C 78.45 68.18 78.4 73.4 78.4 73.4 L 77.2 73.4 C 77.2 73.4 77.19 68.27 77.2 68.3 C 77.2 67.6 77 67.1 76.7 66.8 C 76.4 66.4 75.9 66.2 75.3 66.2 C 74.9 66.2 74.6 66.3 74.2 66.5 C 73.9 66.7 73.7 66.9 73.5 67.2 C 73.3 67.6 73.2 68 73.2 68.5 Z M 84.1 65.2 L 84.1 66.3 L 79.8 66.3 L 79.8 65.2 L 84.1 65.2 Z M 81.1 63.2 L 82.3 63.2 C 82.3 63.2 82.33 71.04 82.3 71 C 82.3 71.4 82.4 71.7 82.5 71.8 C 82.6 72 82.7 72.1 82.9 72.2 C 83.1 72.2 83.2 72.3 83.4 72.3 C 83.6 72.3 83.7 72.3 83.8 72.2 C 83.8 72.2 83.9 72.2 84 72.2 C 84 72.2 84.2 73.3 84.2 73.3 C 84.1 73.4 84 73.4 83.9 73.4 C 83.7 73.5 83.5 73.5 83.3 73.5 C 82.9 73.5 82.6 73.4 82.2 73.3 C 81.9 73.1 81.6 72.9 81.4 72.6 C 81.2 72.2 81.1 71.9 81.1 71.4 C 81.07 71.38 81.1 63.2 81.1 63.2 Z M 93.5 73.6 C 92.8 73.6 92.1 73.4 91.5 73 C 91 72.6 90.6 72.1 90.3 71.5 C 90 70.9 89.8 70.2 89.8 69.3 C 89.8 68.5 90 67.8 90.3 67.1 C 90.6 66.5 91 66 91.6 65.6 C 92.1 65.3 92.8 65.1 93.5 65.1 C 94.1 65.1 94.6 65.2 95.1 65.4 C 95.5 65.6 95.9 65.9 96.2 66.3 C 96.5 66.7 96.7 67.1 96.7 67.7 C 96.7 67.7 95.5 67.7 95.5 67.7 C 95.4 67.3 95.2 66.9 94.8 66.7 C 94.5 66.4 94.1 66.2 93.5 66.2 C 93 66.2 92.6 66.3 92.2 66.6 C 91.9 66.9 91.6 67.2 91.4 67.7 C 91.2 68.1 91.1 68.7 91.1 69.3 C 91.1 69.9 91.2 70.5 91.4 70.9 C 91.6 71.4 91.9 71.8 92.2 72 C 92.6 72.3 93 72.4 93.5 72.4 C 93.8 72.4 94.1 72.4 94.4 72.3 C 94.7 72.1 94.9 72 95.1 71.8 C 95.3 71.5 95.4 71.3 95.5 71 C 95.5 71 96.7 71 96.7 71 C 96.7 71.5 96.5 71.9 96.2 72.3 C 95.9 72.7 95.6 73 95.1 73.2 C 94.7 73.4 94.1 73.6 93.5 73.6 Z M 101 73.6 C 100.5 73.6 100 73.5 99.6 73.3 C 99.2 73.1 98.8 72.8 98.6 72.4 C 98.3 72 98.2 71.6 98.2 71.1 C 98.2 70.6 98.3 70.2 98.5 69.9 C 98.7 69.6 98.9 69.4 99.2 69.2 C 99.5 69.1 99.9 68.9 100.3 68.9 C 100.6 68.8 101 68.7 101.4 68.7 C 101.9 68.6 102.3 68.5 102.6 68.5 C 102.9 68.5 103.1 68.4 103.3 68.3 C 103.4 68.3 103.5 68.1 103.5 67.9 C 103.5 67.9 103.5 67.9 103.5 67.9 C 103.5 67.3 103.3 66.9 103.1 66.6 C 102.8 66.3 102.3 66.2 101.8 66.2 C 101.2 66.2 100.7 66.3 100.4 66.6 C 100 66.9 99.8 67.1 99.6 67.4 C 99.6 67.4 98.4 67 98.4 67 C 98.7 66.5 98.9 66.1 99.3 65.8 C 99.7 65.6 100 65.4 100.5 65.3 C 100.9 65.1 101.3 65.1 101.7 65.1 C 102 65.1 102.3 65.1 102.6 65.2 C 103 65.2 103.3 65.4 103.6 65.6 C 103.9 65.8 104.2 66 104.4 66.4 C 104.6 66.8 104.7 67.3 104.7 68 C 104.75 67.99 104.7 73.4 104.7 73.4 L 103.5 73.4 L 103.5 72.3 C 103.5 72.3 103.43 72.27 103.4 72.3 C 103.3 72.5 103.2 72.6 103 72.8 C 102.8 73 102.5 73.2 102.2 73.4 C 101.9 73.5 101.5 73.6 101 73.6 Z M 101.2 72.4 C 101.7 72.4 102.1 72.3 102.5 72.2 C 102.8 72 103.1 71.7 103.2 71.4 C 103.4 71.1 103.5 70.8 103.5 70.4 C 103.5 70.4 103.5 69.3 103.5 69.3 C 103.4 69.3 103.3 69.4 103.1 69.4 C 103 69.5 102.8 69.5 102.5 69.6 C 102.3 69.6 102.1 69.6 101.8 69.7 C 101.6 69.7 101.5 69.7 101.3 69.7 C 101 69.8 100.7 69.8 100.4 69.9 C 100.1 70 99.9 70.2 99.7 70.4 C 99.6 70.6 99.5 70.8 99.5 71.1 C 99.5 71.6 99.6 71.9 100 72.1 C 100.3 72.3 100.7 72.4 101.2 72.4 Z M 108.3 68.5 C 108.3 68.46 108.3 73.4 108.3 73.4 L 107 73.4 L 107 65.2 L 108.3 65.2 L 108.3 66.5 C 108.3 66.5 108.36 66.48 108.4 66.5 C 108.6 66.1 108.8 65.7 109.2 65.5 C 109.6 65.2 110.1 65.1 110.7 65.1 C 111.3 65.1 111.8 65.2 112.2 65.4 C 112.6 65.7 112.9 66 113.2 66.5 C 113.4 66.9 113.5 67.5 113.5 68.2 C 113.52 68.18 113.5 73.4 113.5 73.4 L 112.3 73.4 C 112.3 73.4 112.26 68.27 112.3 68.3 C 112.3 67.6 112.1 67.1 111.8 66.8 C 111.4 66.4 111 66.2 110.4 66.2 C 110 66.2 109.6 66.3 109.3 66.5 C 109 66.7 108.8 66.9 108.6 67.2 C 108.4 67.6 108.3 68 108.3 68.5 Z M 120.2 73.4 L 120.2 62.5 L 121.5 62.5 L 121.5 66.5 C 121.5 66.5 121.57 66.5 121.6 66.5 C 121.7 66.4 121.8 66.2 122 66 C 122.1 65.7 122.4 65.5 122.7 65.4 C 123 65.2 123.4 65.1 123.9 65.1 C 124.6 65.1 125.2 65.3 125.8 65.6 C 126.3 66 126.7 66.4 127 67.1 C 127.3 67.7 127.4 68.5 127.4 69.3 C 127.4 70.2 127.3 70.9 127 71.6 C 126.7 72.2 126.3 72.7 125.8 73 C 125.2 73.4 124.6 73.6 124 73.6 C 123.4 73.6 123 73.5 122.7 73.3 C 122.4 73.1 122.1 72.9 122 72.7 C 121.8 72.5 121.7 72.3 121.6 72.1 C 121.57 72.12 121.4 72.1 121.4 72.1 L 121.4 73.4 L 120.2 73.4 Z M 121.4 69.3 C 121.4 69.9 121.5 70.5 121.7 70.9 C 121.9 71.4 122.2 71.8 122.5 72 C 122.9 72.3 123.3 72.4 123.8 72.4 C 124.3 72.4 124.8 72.3 125.1 72 C 125.5 71.7 125.7 71.3 125.9 70.9 C 126.1 70.4 126.2 69.9 126.2 69.3 C 126.2 68.7 126.1 68.2 125.9 67.7 C 125.7 67.3 125.5 66.9 125.1 66.6 C 124.8 66.4 124.3 66.2 123.8 66.2 C 123.3 66.2 122.8 66.4 122.5 66.6 C 122.2 66.9 121.9 67.2 121.7 67.7 C 121.5 68.1 121.4 68.7 121.4 69.3 Z M 132.8 73.6 C 132 73.6 131.3 73.4 130.7 73 C 130.2 72.7 129.7 72.2 129.4 71.6 C 129.1 70.9 128.9 70.2 128.9 69.4 C 128.9 68.5 129.1 67.8 129.4 67.1 C 129.7 66.5 130.1 66 130.7 65.6 C 131.2 65.3 131.9 65.1 132.6 65.1 C 133.1 65.1 133.5 65.2 133.9 65.3 C 134.3 65.4 134.7 65.7 135 66 C 135.4 66.3 135.6 66.7 135.8 67.3 C 136 67.8 136.1 68.4 136.1 69.2 C 136.15 69.18 136.1 69.7 136.1 69.7 L 129.8 69.7 L 129.8 68.6 C 129.8 68.6 134.87 68.63 134.9 68.6 C 134.9 68.2 134.8 67.8 134.6 67.4 C 134.4 67 134.2 66.7 133.8 66.5 C 133.5 66.3 133.1 66.2 132.6 66.2 C 132.1 66.2 131.7 66.3 131.3 66.6 C 131 66.8 130.7 67.2 130.5 67.6 C 130.3 67.9 130.2 68.4 130.2 68.8 C 130.2 68.8 130.2 69.5 130.2 69.5 C 130.2 70.2 130.3 70.7 130.5 71.1 C 130.7 71.5 131 71.9 131.4 72.1 C 131.8 72.3 132.3 72.4 132.8 72.4 C 133.1 72.4 133.4 72.4 133.7 72.3 C 133.9 72.2 134.2 72 134.4 71.9 C 134.5 71.7 134.7 71.4 134.8 71.1 C 134.8 71.1 136 71.5 136 71.5 C 135.9 71.9 135.7 72.3 135.4 72.6 C 135.1 72.9 134.7 73.1 134.3 73.3 C 133.8 73.5 133.3 73.6 132.8 73.6 Z M 145.4 73.6 C 144.7 73.6 144.1 73.4 143.6 73 C 143 72.7 142.6 72.2 142.3 71.6 C 142 70.9 141.9 70.2 141.9 69.3 C 141.9 68.5 142 67.7 142.3 67.1 C 142.6 66.4 143 66 143.6 65.6 C 144.1 65.3 144.7 65.1 145.4 65.1 C 145.9 65.1 146.4 65.2 146.7 65.4 C 147 65.5 147.2 65.7 147.4 66 C 147.5 66.2 147.7 66.4 147.8 66.5 C 147.76 66.5 147.9 66.5 147.9 66.5 L 147.9 62.5 L 149.1 62.5 L 149.1 73.4 L 147.9 73.4 L 147.9 72.1 C 147.9 72.1 147.76 72.12 147.8 72.1 C 147.7 72.3 147.5 72.5 147.4 72.7 C 147.2 72.9 147 73.1 146.6 73.3 C 146.3 73.5 145.9 73.6 145.4 73.6 Z M 145.5 72.4 C 146 72.4 146.5 72.3 146.8 72 C 147.2 71.8 147.4 71.4 147.6 70.9 C 147.8 70.5 147.9 69.9 147.9 69.3 C 147.9 68.7 147.8 68.1 147.6 67.7 C 147.4 67.2 147.2 66.9 146.8 66.6 C 146.5 66.4 146.1 66.2 145.5 66.2 C 145 66.2 144.6 66.4 144.2 66.6 C 143.9 66.9 143.6 67.3 143.4 67.7 C 143.2 68.2 143.2 68.7 143.2 69.3 C 143.2 69.9 143.2 70.4 143.4 70.9 C 143.6 71.3 143.9 71.7 144.2 72 C 144.6 72.3 145 72.4 145.5 72.4 Z M 151.5 73.4 L 151.5 65.2 L 152.8 65.2 L 152.8 73.4 L 151.5 73.4 Z M 152.1 63.8 C 151.9 63.8 151.7 63.8 151.5 63.6 C 151.3 63.4 151.3 63.2 151.3 63 C 151.3 62.7 151.3 62.5 151.5 62.4 C 151.7 62.2 151.9 62.1 152.1 62.1 C 152.4 62.1 152.6 62.2 152.8 62.4 C 153 62.5 153 62.7 153 63 C 153 63.2 153 63.4 152.8 63.6 C 152.6 63.8 152.4 63.8 152.1 63.8 Z M 158.7 65.2 L 158.7 66.3 L 154.3 66.3 L 154.3 65.2 L 158.7 65.2 Z M 155.6 73.4 C 155.6 73.4 155.61 64.07 155.6 64.1 C 155.6 63.6 155.7 63.2 155.9 62.9 C 156.2 62.6 156.4 62.4 156.8 62.2 C 157.1 62 157.5 62 157.9 62 C 158.2 62 158.5 62 158.7 62 C 158.9 62.1 159 62.1 159.1 62.2 C 159.1 62.2 158.7 63.3 158.7 63.3 C 158.7 63.2 158.6 63.2 158.5 63.2 C 158.4 63.1 158.2 63.1 158 63.1 C 157.6 63.1 157.3 63.2 157.1 63.4 C 157 63.7 156.9 64 156.9 64.4 C 156.87 64.37 156.9 73.4 156.9 73.4 L 155.6 73.4 Z M 164.4 65.2 L 164.4 66.3 L 160 66.3 L 160 65.2 L 164.4 65.2 Z M 161.3 73.4 C 161.3 73.4 161.27 64.07 161.3 64.1 C 161.3 63.6 161.4 63.2 161.6 62.9 C 161.8 62.6 162.1 62.4 162.5 62.2 C 162.8 62 163.2 62 163.6 62 C 163.9 62 164.1 62 164.3 62 C 164.5 62.1 164.7 62.1 164.8 62.2 C 164.8 62.2 164.4 63.3 164.4 63.3 C 164.3 63.2 164.3 63.2 164.1 63.2 C 164 63.1 163.9 63.1 163.7 63.1 C 163.3 63.1 163 63.2 162.8 63.4 C 162.6 63.7 162.5 64 162.5 64.4 C 162.53 64.37 162.5 73.4 162.5 73.4 L 161.3 73.4 Z M 166.3 73.4 L 166.3 65.2 L 167.5 65.2 L 167.5 73.4 L 166.3 73.4 Z M 166.9 63.8 C 166.7 63.8 166.5 63.8 166.3 63.6 C 166.1 63.4 166 63.2 166 63 C 166 62.7 166.1 62.5 166.3 62.4 C 166.5 62.2 166.7 62.1 166.9 62.1 C 167.2 62.1 167.4 62.2 167.5 62.4 C 167.7 62.5 167.8 62.7 167.8 63 C 167.8 63.2 167.7 63.4 167.5 63.6 C 167.4 63.8 167.2 63.8 166.9 63.8 Z M 173.1 73.6 C 172.3 73.6 171.7 73.4 171.1 73 C 170.6 72.6 170.1 72.1 169.8 71.5 C 169.5 70.9 169.4 70.2 169.4 69.3 C 169.4 68.5 169.6 67.8 169.9 67.1 C 170.2 66.5 170.6 66 171.2 65.6 C 171.7 65.3 172.3 65.1 173.1 65.1 C 173.7 65.1 174.2 65.2 174.6 65.4 C 175.1 65.6 175.5 65.9 175.8 66.3 C 176.1 66.7 176.3 67.1 176.3 67.7 C 176.3 67.7 175.1 67.7 175.1 67.7 C 175 67.3 174.8 66.9 174.4 66.7 C 174.1 66.4 173.7 66.2 173.1 66.2 C 172.6 66.2 172.2 66.3 171.8 66.6 C 171.5 66.9 171.2 67.2 171 67.7 C 170.8 68.1 170.7 68.7 170.7 69.3 C 170.7 69.9 170.8 70.5 171 70.9 C 171.2 71.4 171.4 71.8 171.8 72 C 172.2 72.3 172.6 72.4 173.1 72.4 C 173.4 72.4 173.7 72.4 174 72.3 C 174.3 72.1 174.5 72 174.7 71.8 C 174.9 71.5 175 71.3 175.1 71 C 175.1 71 176.3 71 176.3 71 C 176.3 71.5 176.1 71.9 175.8 72.3 C 175.5 72.7 175.2 73 174.7 73.2 C 174.2 73.4 173.7 73.6 173.1 73.6 Z M 183.2 70 C 183.25 70.04 183.2 65.2 183.2 65.2 L 184.5 65.2 L 184.5 73.4 L 183.2 73.4 L 183.2 72 C 183.2 72 183.16 72 183.2 72 C 183 72.4 182.7 72.8 182.3 73.1 C 181.9 73.3 181.3 73.5 180.7 73.5 C 180.2 73.5 179.8 73.4 179.4 73.2 C 179 72.9 178.7 72.6 178.4 72.1 C 178.2 71.7 178.1 71.1 178.1 70.4 C 178.09 70.4 178.1 65.2 178.1 65.2 L 179.3 65.2 C 179.3 65.2 179.35 70.31 179.3 70.3 C 179.3 70.9 179.5 71.4 179.9 71.7 C 180.2 72.1 180.6 72.3 181.1 72.3 C 181.4 72.3 181.8 72.2 182.1 72 C 182.4 71.9 182.7 71.6 182.9 71.3 C 183.1 71 183.2 70.5 183.2 70 Z M 188.1 62.5 L 188.1 73.4 L 186.8 73.4 L 186.8 62.5 L 188.1 62.5 Z M 193.9 65.2 L 193.9 66.3 L 189.6 66.3 L 189.6 65.2 L 193.9 65.2 Z M 190.9 63.2 L 192.1 63.2 C 192.1 63.2 192.12 71.04 192.1 71 C 192.1 71.4 192.2 71.7 192.3 71.8 C 192.4 72 192.5 72.1 192.7 72.2 C 192.8 72.2 193 72.3 193.2 72.3 C 193.3 72.3 193.5 72.3 193.5 72.2 C 193.6 72.2 193.7 72.2 193.8 72.2 C 193.8 72.2 194 73.3 194 73.3 C 193.9 73.4 193.8 73.4 193.7 73.4 C 193.5 73.5 193.3 73.5 193.1 73.5 C 192.7 73.5 192.4 73.4 192 73.3 C 191.7 73.1 191.4 72.9 191.2 72.6 C 191 72.2 190.9 71.9 190.9 71.4 C 190.86 71.38 190.9 63.2 190.9 63.2 Z " stroke="none" fill="#000"/>  </g>  <g id="Polygon115772">    <path d="M 8.8 34.5 L 8.8 37.4 L 0.6 37.4 L 0.6 34.5 L 8.8 34.5 Z M 2.4 31.3 L 6.2 31.3 C 6.2 31.3 6.2 43.99 6.2 44 C 6.2 44.3 6.3 44.6 6.4 44.8 C 6.5 45 6.6 45.1 6.8 45.2 C 7 45.3 7.2 45.3 7.5 45.3 C 7.7 45.3 7.8 45.3 8 45.3 C 8.2 45.2 8.3 45.2 8.4 45.2 C 8.4 45.2 9 48 9 48 C 8.8 48.1 8.6 48.1 8.2 48.2 C 7.9 48.3 7.5 48.4 7 48.4 C 6 48.4 5.3 48.3 4.6 48 C 3.9 47.7 3.4 47.3 3 46.7 C 2.6 46.1 2.4 45.4 2.4 44.5 C 2.41 44.49 2.4 31.3 2.4 31.3 Z M 16.6 48.4 C 15.2 48.4 14 48.2 13 47.6 C 12 47 11.2 46.2 10.7 45.1 C 10.1 44 9.9 42.8 9.9 41.4 C 9.9 40 10.1 38.8 10.7 37.7 C 11.2 36.7 12 35.8 13 35.3 C 14 34.7 15.2 34.4 16.6 34.4 C 18 34.4 19.2 34.7 20.2 35.3 C 21.2 35.8 21.9 36.7 22.5 37.7 C 23 38.8 23.3 40 23.3 41.4 C 23.3 42.8 23 44 22.5 45.1 C 21.9 46.2 21.2 47 20.2 47.6 C 19.2 48.2 18 48.4 16.6 48.4 Z M 16.6 45.5 C 17.2 45.5 17.8 45.3 18.2 45 C 18.6 44.6 18.9 44.1 19.1 43.5 C 19.3 42.9 19.5 42.2 19.5 41.4 C 19.5 40.6 19.3 39.9 19.1 39.3 C 18.9 38.6 18.6 38.2 18.2 37.8 C 17.8 37.4 17.2 37.3 16.6 37.3 C 16 37.3 15.4 37.4 15 37.8 C 14.6 38.2 14.3 38.6 14 39.3 C 13.8 39.9 13.7 40.6 13.7 41.4 C 13.7 42.2 13.8 42.9 14 43.5 C 14.3 44.1 14.6 44.6 15 45 C 15.4 45.3 16 45.5 16.6 45.5 Z M 40.3 42.4 C 40.31 42.38 40.3 34.5 40.3 34.5 L 44.1 34.5 L 44.1 48.2 L 40.5 48.2 L 40.5 45.7 C 40.5 45.7 40.32 45.7 40.3 45.7 C 40 46.5 39.5 47.1 38.8 47.6 C 38.1 48.1 37.2 48.4 36.2 48.4 C 35.3 48.4 34.5 48.2 33.8 47.7 C 33.1 47.3 32.5 46.7 32.2 46 C 31.8 45.2 31.6 44.3 31.6 43.2 C 31.56 43.23 31.6 34.5 31.6 34.5 L 35.3 34.5 C 35.3 34.5 35.34 42.55 35.3 42.6 C 35.3 43.4 35.6 44 36 44.5 C 36.4 44.9 37 45.2 37.7 45.2 C 38.2 45.2 38.6 45.1 39 44.8 C 39.4 44.6 39.7 44.3 39.9 43.9 C 40.2 43.5 40.3 43 40.3 42.4 Z M 58.2 38.4 C 58.2 38.4 54.8 38.6 54.8 38.6 C 54.7 38.4 54.6 38.1 54.4 37.8 C 54.2 37.6 53.9 37.4 53.6 37.3 C 53.3 37.1 52.9 37 52.5 37 C 51.9 37 51.4 37.2 51 37.4 C 50.6 37.7 50.4 38 50.4 38.4 C 50.4 38.7 50.5 39 50.8 39.2 C 51 39.4 51.5 39.6 52.1 39.8 C 52.1 39.8 54.6 40.3 54.6 40.3 C 55.9 40.5 56.9 41 57.5 41.6 C 58.2 42.2 58.5 43 58.5 44 C 58.5 44.8 58.3 45.6 57.7 46.3 C 57.2 47 56.5 47.5 55.6 47.9 C 54.7 48.3 53.6 48.4 52.5 48.4 C 50.6 48.4 49.2 48.1 48.1 47.3 C 47.1 46.6 46.4 45.5 46.3 44.2 C 46.3 44.2 50 44 50 44 C 50.1 44.6 50.4 45 50.8 45.3 C 51.2 45.6 51.8 45.7 52.5 45.7 C 53.1 45.7 53.7 45.6 54.1 45.3 C 54.5 45.1 54.7 44.7 54.7 44.3 C 54.7 44 54.5 43.7 54.2 43.5 C 54 43.3 53.5 43.1 52.9 43 C 52.9 43 50.6 42.5 50.6 42.5 C 49.2 42.2 48.2 41.8 47.6 41.1 C 47 40.5 46.6 39.6 46.6 38.6 C 46.6 37.7 46.9 37 47.3 36.3 C 47.8 35.7 48.5 35.2 49.4 34.9 C 50.2 34.5 51.2 34.4 52.4 34.4 C 54.1 34.4 55.5 34.7 56.5 35.5 C 57.5 36.2 58 37.2 58.2 38.4 Z M 66.9 48.4 C 65.5 48.4 64.3 48.2 63.3 47.6 C 62.3 47 61.5 46.2 61 45.2 C 60.4 44.1 60.2 42.9 60.2 41.4 C 60.2 40 60.4 38.8 61 37.7 C 61.5 36.7 62.3 35.8 63.3 35.3 C 64.3 34.7 65.4 34.4 66.8 34.4 C 67.7 34.4 68.5 34.5 69.3 34.8 C 70.1 35.1 70.8 35.5 71.3 36.1 C 71.9 36.7 72.4 37.4 72.7 38.3 C 73 39.1 73.2 40.1 73.2 41.3 C 73.19 41.29 73.2 42.3 73.2 42.3 L 61.7 42.3 L 61.7 40 C 61.7 40 69.63 39.99 69.6 40 C 69.6 39.4 69.5 39 69.3 38.5 C 69 38.1 68.7 37.8 68.3 37.6 C 67.9 37.3 67.4 37.2 66.8 37.2 C 66.3 37.2 65.8 37.3 65.3 37.6 C 64.9 37.8 64.5 38.2 64.3 38.6 C 64 39.1 63.9 39.6 63.9 40.1 C 63.9 40.1 63.9 42.3 63.9 42.3 C 63.9 43 64 43.6 64.3 44.1 C 64.5 44.6 64.9 45 65.3 45.2 C 65.8 45.5 66.4 45.6 67 45.6 C 67.4 45.6 67.8 45.6 68.1 45.4 C 68.5 45.3 68.8 45.2 69 44.9 C 69.3 44.7 69.5 44.4 69.6 44 C 69.6 44 73.1 44.3 73.1 44.3 C 72.9 45.1 72.6 45.8 72 46.5 C 71.5 47.1 70.8 47.6 69.9 47.9 C 69 48.3 68.1 48.4 66.9 48.4 Z " stroke="none" fill="#10283d"/>  </g>  <g id="Polygon115771">    <path d="M 8 18.2 C 8.03 18.18 1.6 18.2 1.6 18.2 L 1.6 0 C 1.6 0 8.08 0 8.1 0 C 9.9 0 11.5 0.4 12.8 1.1 C 14.1 1.8 15.1 2.9 15.9 4.2 C 16.6 5.6 16.9 7.2 16.9 9.1 C 16.9 11 16.6 12.6 15.9 14 C 15.1 15.3 14.1 16.4 12.8 17.1 C 11.5 17.8 9.9 18.2 8 18.2 Z M 5.4 14.9 C 5.4 14.9 7.87 14.89 7.9 14.9 C 9 14.9 10 14.7 10.7 14.3 C 11.5 13.9 12.1 13.2 12.5 12.4 C 12.9 11.5 13.1 10.4 13.1 9.1 C 13.1 7.7 12.9 6.6 12.5 5.8 C 12.1 4.9 11.5 4.3 10.7 3.9 C 10 3.5 9 3.3 7.9 3.3 C 7.87 3.29 5.4 3.3 5.4 3.3 L 5.4 14.9 Z M 19.6 18.2 L 19.6 4.5 L 23.4 4.5 L 23.4 18.2 L 19.6 18.2 Z M 21.5 2.8 C 21 2.8 20.5 2.6 20.1 2.2 C 19.7 1.9 19.5 1.4 19.5 0.9 C 19.5 0.4 19.7 -0.1 20.1 -0.5 C 20.5 -0.9 21 -1 21.5 -1 C 22.1 -1 22.6 -0.9 23 -0.5 C 23.4 -0.1 23.6 0.3 23.6 0.9 C 23.6 1.4 23.4 1.8 23 2.2 C 22.6 2.6 22.1 2.8 21.5 2.8 Z M 33.6 4.5 L 33.6 7.4 L 25.2 7.4 L 25.2 4.5 L 33.6 4.5 Z M 27.1 18.2 C 27.1 18.2 27.15 3.56 27.1 3.6 C 27.1 2.6 27.3 1.8 27.7 1.1 C 28.1 0.4 28.6 0 29.3 -0.4 C 30 -0.7 30.8 -0.9 31.6 -0.9 C 32.2 -0.9 32.7 -0.8 33.2 -0.7 C 33.7 -0.6 34.1 -0.6 34.3 -0.5 C 34.3 -0.5 33.6 2.4 33.6 2.4 C 33.5 2.3 33.3 2.3 33.1 2.2 C 32.9 2.2 32.6 2.2 32.4 2.2 C 31.9 2.2 31.5 2.3 31.2 2.6 C 31 2.8 30.9 3.2 30.9 3.6 C 30.92 3.63 30.9 18.2 30.9 18.2 L 27.1 18.2 Z M 43.6 4.5 L 43.6 7.4 L 35.2 7.4 L 35.2 4.5 L 43.6 4.5 Z M 37.1 18.2 C 37.1 18.2 37.13 3.56 37.1 3.6 C 37.1 2.6 37.3 1.8 37.7 1.1 C 38.1 0.4 38.6 0 39.3 -0.4 C 40 -0.7 40.7 -0.9 41.6 -0.9 C 42.2 -0.9 42.7 -0.8 43.2 -0.7 C 43.7 -0.6 44 -0.6 44.3 -0.5 C 44.3 -0.5 43.6 2.4 43.6 2.4 C 43.4 2.3 43.3 2.3 43.1 2.2 C 42.8 2.2 42.6 2.2 42.4 2.2 C 41.8 2.2 41.4 2.3 41.2 2.6 C 41 2.8 40.9 3.2 40.9 3.6 C 40.9 3.63 40.9 18.2 40.9 18.2 L 37.1 18.2 Z M 46.1 18.2 L 46.1 4.5 L 49.8 4.5 L 49.8 18.2 L 46.1 18.2 Z M 48 2.8 C 47.4 2.8 46.9 2.6 46.5 2.2 C 46.1 1.9 45.9 1.4 45.9 0.9 C 45.9 0.4 46.1 -0.1 46.5 -0.5 C 46.9 -0.9 47.4 -1 48 -1 C 48.5 -1 49 -0.9 49.4 -0.5 C 49.8 -0.1 50 0.3 50 0.9 C 50 1.4 49.8 1.8 49.4 2.2 C 49 2.6 48.5 2.8 48 2.8 Z M 58.9 18.4 C 57.5 18.4 56.3 18.2 55.3 17.6 C 54.3 17 53.5 16.1 53 15.1 C 52.4 14 52.1 12.8 52.1 11.4 C 52.1 10 52.4 8.8 53 7.7 C 53.5 6.7 54.3 5.9 55.3 5.3 C 56.3 4.7 57.5 4.4 58.8 4.4 C 60 4.4 61.1 4.6 62 5 C 62.9 5.4 63.6 6.1 64.1 6.8 C 64.6 7.6 64.9 8.5 64.9 9.6 C 64.9 9.6 61.4 9.6 61.4 9.6 C 61.3 8.9 61 8.4 60.6 7.9 C 60.2 7.5 59.6 7.3 58.9 7.3 C 58.3 7.3 57.8 7.5 57.4 7.8 C 56.9 8.1 56.6 8.6 56.4 9.2 C 56.1 9.8 56 10.5 56 11.4 C 56 12.2 56.1 13 56.4 13.6 C 56.6 14.2 56.9 14.7 57.4 15 C 57.8 15.3 58.3 15.5 58.9 15.5 C 59.3 15.5 59.7 15.4 60.1 15.2 C 60.4 15 60.7 14.8 60.9 14.4 C 61.2 14.1 61.3 13.7 61.4 13.2 C 61.4 13.2 64.9 13.2 64.9 13.2 C 64.9 14.2 64.6 15.1 64.1 15.9 C 63.6 16.7 62.9 17.3 62 17.8 C 61.1 18.2 60.1 18.4 58.9 18.4 Z M 75.9 12.4 C 75.92 12.38 75.9 4.5 75.9 4.5 L 79.7 4.5 L 79.7 18.2 L 76.1 18.2 L 76.1 15.7 C 76.1 15.7 75.93 15.7 75.9 15.7 C 75.6 16.5 75.1 17.1 74.4 17.6 C 73.7 18.1 72.8 18.4 71.8 18.4 C 70.9 18.4 70.1 18.2 69.4 17.7 C 68.7 17.3 68.2 16.7 67.8 16 C 67.4 15.2 67.2 14.3 67.2 13.2 C 67.18 13.23 67.2 4.5 67.2 4.5 L 71 4.5 C 71 4.5 70.96 12.55 71 12.6 C 71 13.4 71.2 14 71.6 14.5 C 72 14.9 72.6 15.2 73.3 15.2 C 73.8 15.2 74.2 15.1 74.6 14.8 C 75 14.6 75.3 14.3 75.6 13.9 C 75.8 13.5 75.9 13 75.9 12.4 Z M 86.4 0 L 86.4 18.2 L 82.6 18.2 L 82.6 0 L 86.4 0 Z M 96.5 4.5 L 96.5 7.4 L 88.3 7.4 L 88.3 4.5 L 96.5 4.5 Z M 90.1 1.3 L 93.9 1.3 C 93.9 1.3 93.93 13.99 93.9 14 C 93.9 14.3 94 14.6 94.1 14.8 C 94.2 15 94.3 15.1 94.5 15.2 C 94.7 15.3 95 15.3 95.2 15.3 C 95.4 15.3 95.6 15.3 95.7 15.3 C 95.9 15.2 96.1 15.2 96.1 15.2 C 96.1 15.2 96.7 18 96.7 18 C 96.6 18.1 96.3 18.1 95.9 18.2 C 95.6 18.3 95.2 18.4 94.7 18.4 C 93.8 18.4 93 18.3 92.3 18 C 91.6 17.7 91.1 17.3 90.7 16.7 C 90.3 16.1 90.1 15.4 90.1 14.5 C 90.15 14.49 90.1 1.3 90.1 1.3 Z " stroke="none" fill="#10283d"/>  </g>  <g id="Polygon115773">    <path d="M 80.8 40.8 L 87.4 47.3 L 94 40.8 " style="stroke-width:1.8pt; stroke:#838f98;" fill="none"/>  </g>  <g id="Polygon115777">    <path d="M 149.6 113.7 L 122.5 113.7 M 143.1 120.4 L 149.7 113.8 L 143.1 107.2 " style="stroke-width:1.8pt; stroke:#ff4f00;" fill="none"/>  </g></svg>