<?xml version="1.0" standalone="no"?><!DOCTYPE svg PUBLIC "-//W3C//DTD SVG 1.1//EN" "http://www.w3.org/Graphics/SVG/1.1/DTD/svg11.dtd"><svg xmlns="http://www.w3.org/2000/svg" version="1.1" width="192px" height="161.1px" viewBox="0 -5 192 161.1" style="top:-5px">  <desc>Pigment PREPARE FOR anything Pigment is an AI augmented planning platform built for agility and scale.</desc>  <defs/>  <g id="Polygon110588">    <path d="M 48.6 147.8 C 48.2 147.8 47.8 147.7 47.4 147.5 C 47.1 147.4 46.8 147.1 46.6 146.8 C 46.4 146.5 46.3 146.1 46.3 145.7 C 46.3 145.3 46.3 144.9 46.5 144.7 C 46.6 144.4 46.9 144.2 47.1 144.1 C 47.4 143.9 47.7 143.8 48 143.8 C 48.3 143.7 48.6 143.6 49 143.6 C 49.4 143.5 49.7 143.5 50 143.5 C 50.3 143.4 50.5 143.4 50.6 143.3 C 50.7 143.3 50.8 143.1 50.8 143 C 50.8 143 50.8 142.9 50.8 142.9 C 50.8 142.5 50.6 142.1 50.4 141.9 C 50.2 141.6 49.8 141.5 49.3 141.5 C 48.8 141.5 48.4 141.6 48.1 141.8 C 47.8 142.1 47.6 142.3 47.5 142.6 C 47.5 142.6 46.5 142.2 46.5 142.2 C 46.6 141.8 46.9 141.4 47.2 141.2 C 47.5 141 47.8 140.8 48.2 140.7 C 48.5 140.6 48.9 140.6 49.3 140.6 C 49.5 140.6 49.7 140.6 50 140.6 C 50.3 140.7 50.6 140.8 50.9 141 C 51.2 141.1 51.4 141.4 51.6 141.7 C 51.7 142 51.8 142.5 51.8 143 C 51.84 143.04 51.8 147.6 51.8 147.6 L 50.8 147.6 L 50.8 146.7 C 50.8 146.7 50.71 146.69 50.7 146.7 C 50.6 146.8 50.5 147 50.3 147.2 C 50.2 147.3 49.9 147.5 49.7 147.6 C 49.4 147.7 49 147.8 48.6 147.8 Z M 48.8 146.8 C 49.2 146.8 49.6 146.8 49.9 146.6 C 50.2 146.4 50.4 146.2 50.5 145.9 C 50.7 145.7 50.8 145.4 50.8 145.1 C 50.8 145.1 50.8 144.1 50.8 144.1 C 50.7 144.2 50.6 144.2 50.5 144.3 C 50.3 144.3 50.1 144.4 49.9 144.4 C 49.7 144.4 49.5 144.4 49.4 144.5 C 49.2 144.5 49 144.5 48.9 144.5 C 48.6 144.6 48.4 144.6 48.1 144.7 C 47.9 144.8 47.7 144.9 47.5 145.1 C 47.4 145.2 47.3 145.4 47.3 145.7 C 47.3 146.1 47.5 146.4 47.7 146.6 C 48 146.7 48.4 146.8 48.8 146.8 Z M 56.6 150.4 C 56.1 150.4 55.6 150.3 55.3 150.2 C 54.9 150.1 54.6 149.9 54.3 149.7 C 54.1 149.5 53.9 149.2 53.8 149 C 53.8 149 54.6 148.4 54.6 148.4 C 54.7 148.5 54.8 148.7 55 148.8 C 55.1 149 55.3 149.1 55.6 149.3 C 55.8 149.4 56.2 149.5 56.6 149.5 C 57.2 149.5 57.6 149.3 58 149 C 58.4 148.8 58.6 148.3 58.6 147.8 C 58.55 147.76 58.6 146.3 58.6 146.3 C 58.6 146.3 58.46 146.35 58.5 146.3 C 58.4 146.5 58.3 146.6 58.1 146.8 C 58 147 57.8 147.2 57.5 147.3 C 57.2 147.5 56.9 147.5 56.4 147.5 C 55.9 147.5 55.4 147.4 54.9 147.1 C 54.5 146.9 54.1 146.5 53.8 146 C 53.6 145.5 53.5 144.8 53.5 144.1 C 53.5 143.4 53.6 142.8 53.8 142.2 C 54.1 141.7 54.4 141.3 54.9 141 C 55.3 140.7 55.9 140.6 56.4 140.6 C 56.9 140.6 57.3 140.6 57.5 140.8 C 57.8 140.9 58 141.1 58.1 141.3 C 58.3 141.5 58.4 141.6 58.5 141.8 C 58.48 141.76 58.6 141.8 58.6 141.8 L 58.6 140.7 L 59.6 140.7 C 59.6 140.7 59.62 147.84 59.6 147.8 C 59.6 148.4 59.5 148.9 59.2 149.3 C 58.9 149.7 58.6 150 58.1 150.1 C 57.7 150.3 57.2 150.4 56.6 150.4 Z M 56.6 146.6 C 57 146.6 57.4 146.5 57.7 146.3 C 58 146.1 58.2 145.8 58.3 145.4 C 58.5 145 58.6 144.6 58.6 144.1 C 58.6 143.6 58.5 143.1 58.3 142.8 C 58.2 142.4 58 142.1 57.7 141.9 C 57.4 141.6 57 141.5 56.6 141.5 C 56.1 141.5 55.7 141.6 55.4 141.9 C 55.1 142.1 54.9 142.4 54.8 142.8 C 54.6 143.2 54.5 143.6 54.5 144.1 C 54.5 144.6 54.6 145 54.8 145.4 C 54.9 145.7 55.1 146 55.4 146.2 C 55.7 146.5 56.1 146.6 56.6 146.6 Z M 61.6 147.6 L 61.6 140.7 L 62.7 140.7 L 62.7 147.6 L 61.6 147.6 Z M 62.1 139.5 C 61.9 139.5 61.8 139.4 61.6 139.3 C 61.5 139.1 61.4 139 61.4 138.8 C 61.4 138.6 61.5 138.4 61.6 138.2 C 61.8 138.1 61.9 138 62.1 138 C 62.4 138 62.5 138.1 62.7 138.2 C 62.8 138.4 62.9 138.6 62.9 138.8 C 62.9 139 62.8 139.1 62.7 139.3 C 62.5 139.4 62.4 139.5 62.1 139.5 Z M 65.7 138.3 L 65.7 147.6 L 64.6 147.6 L 64.6 138.3 L 65.7 138.3 Z M 67.7 147.6 L 67.7 140.7 L 68.8 140.7 L 68.8 147.6 L 67.7 147.6 Z M 68.2 139.5 C 68 139.5 67.9 139.4 67.7 139.3 C 67.6 139.1 67.5 139 67.5 138.8 C 67.5 138.6 67.6 138.4 67.7 138.2 C 67.9 138.1 68 138 68.2 138 C 68.5 138 68.6 138.1 68.8 138.2 C 68.9 138.4 69 138.6 69 138.8 C 69 139 68.9 139.1 68.8 139.3 C 68.6 139.4 68.5 139.5 68.2 139.5 Z M 73.7 140.7 L 73.7 141.6 L 70.1 141.6 L 70.1 140.7 L 73.7 140.7 Z M 71.2 139 L 72.2 139 C 72.2 139 72.24 145.64 72.2 145.6 C 72.2 145.9 72.3 146.2 72.4 146.3 C 72.5 146.5 72.6 146.6 72.7 146.6 C 72.9 146.7 73 146.7 73.2 146.7 C 73.3 146.7 73.4 146.7 73.5 146.7 C 73.5 146.7 73.6 146.6 73.6 146.6 C 73.6 146.6 73.9 147.6 73.9 147.6 C 73.8 147.6 73.7 147.7 73.6 147.7 C 73.4 147.7 73.3 147.7 73.1 147.7 C 72.8 147.7 72.5 147.7 72.2 147.5 C 71.9 147.4 71.6 147.2 71.5 146.9 C 71.3 146.7 71.2 146.3 71.2 145.9 C 71.17 145.93 71.2 139 71.2 139 Z M 76.2 150.3 C 76 150.3 75.8 150.2 75.7 150.2 C 75.5 150.2 75.4 150.2 75.4 150.1 C 75.4 150.1 75.6 149.2 75.6 149.2 C 75.9 149.2 76.1 149.3 76.3 149.3 C 76.5 149.2 76.7 149.1 76.9 149 C 77 148.8 77.2 148.6 77.3 148.2 C 77.3 148.22 77.5 147.7 77.5 147.7 L 74.9 140.7 L 76.1 140.7 L 78 146.2 L 78.1 146.2 L 80 140.7 L 81.2 140.7 C 81.2 140.7 78.21 148.65 78.2 148.7 C 78.1 149 77.9 149.3 77.7 149.6 C 77.5 149.8 77.3 150 77 150.1 C 76.8 150.2 76.5 150.3 76.2 150.3 Z M 88.2 147.8 C 87.8 147.8 87.4 147.7 87 147.5 C 86.7 147.4 86.4 147.1 86.2 146.8 C 86 146.5 85.9 146.1 85.9 145.7 C 85.9 145.3 85.9 144.9 86.1 144.7 C 86.3 144.4 86.5 144.2 86.7 144.1 C 87 143.9 87.3 143.8 87.6 143.8 C 87.9 143.7 88.2 143.6 88.6 143.6 C 89 143.5 89.3 143.5 89.6 143.5 C 89.9 143.4 90.1 143.4 90.2 143.3 C 90.3 143.3 90.4 143.1 90.4 143 C 90.4 143 90.4 142.9 90.4 142.9 C 90.4 142.5 90.2 142.1 90 141.9 C 89.8 141.6 89.4 141.5 88.9 141.5 C 88.4 141.5 88 141.6 87.7 141.8 C 87.4 142.1 87.2 142.3 87.1 142.6 C 87.1 142.6 86.1 142.2 86.1 142.2 C 86.2 141.8 86.5 141.4 86.8 141.2 C 87.1 141 87.4 140.8 87.8 140.7 C 88.2 140.6 88.5 140.6 88.9 140.6 C 89.1 140.6 89.3 140.6 89.6 140.6 C 89.9 140.7 90.2 140.8 90.5 141 C 90.8 141.1 91 141.4 91.2 141.7 C 91.4 142 91.4 142.5 91.4 143 C 91.44 143.04 91.4 147.6 91.4 147.6 L 90.4 147.6 L 90.4 146.7 C 90.4 146.7 90.32 146.69 90.3 146.7 C 90.2 146.8 90.1 147 90 147.2 C 89.8 147.3 89.6 147.5 89.3 147.6 C 89 147.7 88.6 147.8 88.2 147.8 Z M 88.4 146.8 C 88.8 146.8 89.2 146.8 89.5 146.6 C 89.8 146.4 90 146.2 90.1 145.9 C 90.3 145.7 90.4 145.4 90.4 145.1 C 90.4 145.1 90.4 144.1 90.4 144.1 C 90.3 144.2 90.2 144.2 90.1 144.3 C 89.9 144.3 89.7 144.4 89.5 144.4 C 89.3 144.4 89.2 144.4 89 144.5 C 88.8 144.5 88.6 144.5 88.5 144.5 C 88.2 144.6 88 144.6 87.7 144.7 C 87.5 144.8 87.3 144.9 87.2 145.1 C 87 145.2 86.9 145.4 86.9 145.7 C 86.9 146.1 87.1 146.4 87.4 146.6 C 87.6 146.7 88 146.8 88.4 146.8 Z M 94.5 143.4 C 94.48 143.44 94.5 147.6 94.5 147.6 L 93.4 147.6 L 93.4 140.7 L 94.4 140.7 L 94.4 141.7 C 94.4 141.7 94.54 141.75 94.5 141.7 C 94.7 141.4 94.9 141.1 95.3 140.9 C 95.6 140.7 96 140.6 96.6 140.6 C 97 140.6 97.5 140.7 97.8 140.9 C 98.2 141 98.4 141.3 98.6 141.7 C 98.8 142.1 98.9 142.6 98.9 143.2 C 98.94 143.2 98.9 147.6 98.9 147.6 L 97.9 147.6 C 97.9 147.6 97.86 143.27 97.9 143.3 C 97.9 142.7 97.7 142.3 97.4 142 C 97.2 141.7 96.8 141.5 96.3 141.5 C 95.9 141.5 95.6 141.6 95.3 141.7 C 95.1 141.9 94.9 142.1 94.7 142.4 C 94.6 142.7 94.5 143 94.5 143.4 Z M 103.5 147.8 C 102.9 147.8 102.4 147.6 102 147.3 C 101.5 147 101.2 146.6 100.9 146.1 C 100.7 145.5 100.6 144.9 100.6 144.2 C 100.6 143.4 100.7 142.8 100.9 142.3 C 101.2 141.7 101.5 141.3 102 141 C 102.4 140.7 103 140.6 103.5 140.6 C 104 140.6 104.4 140.6 104.6 140.8 C 104.9 140.9 105.1 141.1 105.2 141.3 C 105.4 141.5 105.5 141.6 105.6 141.8 C 105.56 141.76 105.6 141.8 105.6 141.8 L 105.6 138.3 L 106.7 138.3 L 106.7 147.6 L 105.7 147.6 L 105.7 146.6 C 105.7 146.6 105.56 146.56 105.6 146.6 C 105.5 146.7 105.4 146.9 105.2 147 C 105.1 147.2 104.9 147.4 104.6 147.6 C 104.3 147.7 104 147.8 103.5 147.8 Z M 103.7 146.8 C 104.1 146.8 104.5 146.7 104.8 146.5 C 105.1 146.3 105.3 145.9 105.4 145.5 C 105.6 145.1 105.7 144.7 105.7 144.1 C 105.7 143.6 105.6 143.2 105.4 142.8 C 105.3 142.4 105.1 142.1 104.8 141.9 C 104.5 141.6 104.1 141.5 103.7 141.5 C 103.2 141.5 102.8 141.6 102.5 141.9 C 102.2 142.1 102 142.4 101.9 142.8 C 101.7 143.2 101.6 143.7 101.6 144.1 C 101.6 144.6 101.7 145.1 101.9 145.5 C 102 145.9 102.2 146.2 102.5 146.5 C 102.8 146.7 103.2 146.8 103.7 146.8 Z M 117.4 142.2 C 117.4 142.2 116.4 142.5 116.4 142.5 C 116.4 142.3 116.3 142.2 116.1 142 C 116 141.9 115.9 141.7 115.7 141.6 C 115.5 141.5 115.2 141.5 114.9 141.5 C 114.5 141.5 114.1 141.6 113.8 141.8 C 113.6 142 113.4 142.2 113.4 142.5 C 113.4 142.8 113.5 143 113.7 143.2 C 113.9 143.3 114.2 143.4 114.6 143.5 C 114.6 143.5 115.6 143.8 115.6 143.8 C 116.3 144 116.7 144.2 117 144.5 C 117.3 144.8 117.5 145.2 117.5 145.7 C 117.5 146.1 117.4 146.4 117.2 146.8 C 116.9 147.1 116.6 147.3 116.2 147.5 C 115.8 147.7 115.3 147.8 114.8 147.8 C 114.1 147.8 113.5 147.6 113 147.3 C 112.5 147 112.2 146.6 112.1 146 C 112.1 146 113.1 145.7 113.1 145.7 C 113.2 146.1 113.4 146.4 113.7 146.6 C 114 146.7 114.3 146.8 114.8 146.8 C 115.3 146.8 115.7 146.7 115.9 146.5 C 116.2 146.3 116.4 146 116.4 145.7 C 116.4 145.5 116.3 145.3 116.1 145.1 C 116 145 115.7 144.8 115.4 144.8 C 115.4 144.8 114.2 144.5 114.2 144.5 C 113.6 144.3 113.1 144.1 112.8 143.8 C 112.5 143.5 112.3 143.1 112.3 142.6 C 112.3 142.2 112.4 141.8 112.7 141.5 C 112.9 141.2 113.2 141 113.6 140.8 C 114 140.6 114.4 140.6 114.9 140.6 C 115.6 140.6 116.1 140.7 116.5 141 C 116.9 141.3 117.2 141.7 117.4 142.2 Z M 121.9 147.8 C 121.3 147.8 120.7 147.6 120.2 147.3 C 119.7 147 119.4 146.6 119.1 146 C 118.9 145.5 118.7 144.9 118.7 144.2 C 118.7 143.5 118.9 142.8 119.1 142.3 C 119.4 141.8 119.8 141.3 120.2 141 C 120.7 140.7 121.3 140.6 121.9 140.6 C 122.4 140.6 122.8 140.7 123.2 140.8 C 123.6 141 123.9 141.3 124.2 141.6 C 124.4 141.9 124.6 142.3 124.7 142.7 C 124.7 142.7 123.6 142.7 123.6 142.7 C 123.5 142.4 123.3 142.1 123 141.9 C 122.8 141.7 122.4 141.5 121.9 141.5 C 121.5 141.5 121.1 141.6 120.8 141.9 C 120.5 142.1 120.3 142.4 120.1 142.8 C 119.9 143.2 119.8 143.6 119.8 144.1 C 119.8 144.7 119.9 145.2 120.1 145.6 C 120.2 146 120.5 146.3 120.8 146.5 C 121.1 146.7 121.5 146.8 121.9 146.8 C 122.2 146.8 122.4 146.8 122.7 146.7 C 122.9 146.6 123.1 146.4 123.2 146.3 C 123.4 146.1 123.5 145.9 123.6 145.6 C 123.6 145.6 124.7 145.6 124.7 145.6 C 124.6 146 124.4 146.4 124.2 146.7 C 124 147 123.7 147.3 123.3 147.5 C 122.9 147.7 122.4 147.8 121.9 147.8 Z M 128.3 147.8 C 127.9 147.8 127.5 147.7 127.1 147.5 C 126.7 147.4 126.4 147.1 126.2 146.8 C 126 146.5 125.9 146.1 125.9 145.7 C 125.9 145.3 126 144.9 126.2 144.7 C 126.3 144.4 126.5 144.2 126.8 144.1 C 127 143.9 127.3 143.8 127.7 143.8 C 128 143.7 128.3 143.6 128.6 143.6 C 129.1 143.5 129.4 143.5 129.7 143.5 C 129.9 143.4 130.1 143.4 130.2 143.3 C 130.4 143.3 130.4 143.1 130.4 143 C 130.4 143 130.4 142.9 130.4 142.9 C 130.4 142.5 130.3 142.1 130.1 141.9 C 129.8 141.6 129.4 141.5 129 141.5 C 128.4 141.5 128 141.6 127.7 141.8 C 127.5 142.1 127.3 142.3 127.1 142.6 C 127.1 142.6 126.1 142.2 126.1 142.2 C 126.3 141.8 126.5 141.4 126.8 141.2 C 127.2 141 127.5 140.8 127.8 140.7 C 128.2 140.6 128.6 140.6 128.9 140.6 C 129.1 140.6 129.4 140.6 129.7 140.6 C 130 140.7 130.3 140.8 130.5 141 C 130.8 141.1 131 141.4 131.2 141.7 C 131.4 142 131.5 142.5 131.5 143 C 131.5 143.04 131.5 147.6 131.5 147.6 L 130.4 147.6 L 130.4 146.7 C 130.4 146.7 130.37 146.69 130.4 146.7 C 130.3 146.8 130.2 147 130 147.2 C 129.8 147.3 129.6 147.5 129.3 147.6 C 129 147.7 128.7 147.8 128.3 147.8 Z M 128.5 146.8 C 128.9 146.8 129.2 146.8 129.5 146.6 C 129.8 146.4 130.1 146.2 130.2 145.9 C 130.4 145.7 130.4 145.4 130.4 145.1 C 130.4 145.1 130.4 144.1 130.4 144.1 C 130.4 144.2 130.3 144.2 130.1 144.3 C 130 144.3 129.8 144.4 129.6 144.4 C 129.4 144.4 129.2 144.4 129 144.5 C 128.8 144.5 128.7 144.5 128.6 144.5 C 128.3 144.6 128 144.6 127.8 144.7 C 127.6 144.8 127.4 144.9 127.2 145.1 C 127.1 145.2 127 145.4 127 145.7 C 127 146.1 127.1 146.4 127.4 146.6 C 127.7 146.7 128 146.8 128.5 146.8 Z M 134.5 138.3 L 134.5 147.6 L 133.5 147.6 L 133.5 138.3 L 134.5 138.3 Z M 139.4 147.8 C 138.8 147.8 138.2 147.6 137.7 147.3 C 137.2 147 136.8 146.6 136.6 146.1 C 136.3 145.5 136.2 144.9 136.2 144.2 C 136.2 143.5 136.3 142.9 136.6 142.3 C 136.8 141.8 137.2 141.3 137.7 141 C 138.2 140.7 138.7 140.6 139.3 140.6 C 139.7 140.6 140.1 140.6 140.4 140.7 C 140.8 140.9 141.1 141.1 141.4 141.3 C 141.7 141.6 141.9 142 142.1 142.4 C 142.3 142.9 142.3 143.4 142.3 144.1 C 142.34 144.05 142.3 144.5 142.3 144.5 L 137 144.5 L 137 143.6 C 137 143.6 141.25 143.58 141.2 143.6 C 141.2 143.2 141.2 142.8 141 142.5 C 140.9 142.2 140.6 142 140.4 141.8 C 140.1 141.6 139.7 141.5 139.3 141.5 C 138.9 141.5 138.5 141.6 138.2 141.8 C 137.9 142.1 137.7 142.3 137.5 142.7 C 137.3 143 137.3 143.4 137.3 143.7 C 137.3 143.7 137.3 144.4 137.3 144.4 C 137.3 144.9 137.4 145.3 137.5 145.7 C 137.7 146.1 138 146.3 138.3 146.5 C 138.6 146.7 139 146.8 139.4 146.8 C 139.7 146.8 140 146.8 140.2 146.7 C 140.4 146.6 140.6 146.5 140.8 146.3 C 141 146.2 141.1 146 141.2 145.7 C 141.2 145.7 142.2 146 142.2 146 C 142.1 146.4 141.9 146.7 141.7 146.9 C 141.4 147.2 141.1 147.4 140.7 147.6 C 140.3 147.7 139.9 147.8 139.4 147.8 Z M 144.6 147.7 C 144.4 147.7 144.2 147.6 144.1 147.5 C 143.9 147.3 143.8 147.1 143.8 146.9 C 143.8 146.7 143.9 146.5 144.1 146.3 C 144.2 146.2 144.4 146.1 144.6 146.1 C 144.9 146.1 145.1 146.2 145.2 146.3 C 145.4 146.5 145.5 146.7 145.5 146.9 C 145.5 147 145.4 147.2 145.3 147.3 C 145.3 147.4 145.2 147.5 145 147.6 C 144.9 147.7 144.8 147.7 144.6 147.7 Z " stroke="none" fill="#10283d"/>  </g>  <g id="Polygon110587">    <path d="M 19.2 134.9 L 19.2 125.3 L 20.2 125.3 L 20.2 126.4 C 20.2 126.4 20.36 126.4 20.4 126.4 C 20.4 126.3 20.6 126.1 20.7 125.9 C 20.8 125.7 21 125.6 21.3 125.4 C 21.6 125.3 21.9 125.2 22.4 125.2 C 23 125.2 23.5 125.4 23.9 125.6 C 24.4 125.9 24.7 126.4 25 126.9 C 25.2 127.4 25.4 128.1 25.4 128.8 C 25.4 129.5 25.2 130.2 25 130.7 C 24.7 131.3 24.4 131.7 23.9 132 C 23.5 132.3 23 132.4 22.4 132.4 C 22 132.4 21.6 132.3 21.3 132.2 C 21.1 132 20.8 131.9 20.7 131.7 C 20.6 131.5 20.4 131.3 20.4 131.2 C 20.36 131.2 20.3 131.2 20.3 131.2 L 20.3 134.9 L 19.2 134.9 Z M 20.3 128.8 C 20.3 129.3 20.3 129.8 20.5 130.2 C 20.6 130.6 20.9 130.9 21.2 131.1 C 21.5 131.3 21.8 131.5 22.3 131.5 C 22.7 131.5 23.1 131.3 23.4 131.1 C 23.7 130.9 23.9 130.5 24.1 130.1 C 24.2 129.7 24.3 129.3 24.3 128.8 C 24.3 128.3 24.2 127.9 24.1 127.5 C 23.9 127.1 23.7 126.7 23.4 126.5 C 23.1 126.3 22.7 126.2 22.3 126.2 C 21.8 126.2 21.5 126.3 21.2 126.5 C 20.9 126.7 20.6 127 20.5 127.4 C 20.3 127.8 20.3 128.3 20.3 128.8 Z M 28.1 123 L 28.1 132.3 L 27 132.3 L 27 123 L 28.1 123 Z M 32.1 132.4 C 31.7 132.4 31.3 132.4 30.9 132.2 C 30.6 132 30.3 131.8 30.1 131.5 C 29.8 131.1 29.7 130.7 29.7 130.3 C 29.7 129.9 29.8 129.6 30 129.3 C 30.1 129.1 30.3 128.9 30.6 128.7 C 30.9 128.6 31.2 128.5 31.5 128.4 C 31.8 128.3 32.1 128.3 32.4 128.2 C 32.9 128.2 33.2 128.1 33.5 128.1 C 33.7 128.1 33.9 128 34.1 128 C 34.2 127.9 34.2 127.8 34.2 127.6 C 34.2 127.6 34.2 127.6 34.2 127.6 C 34.2 127.1 34.1 126.8 33.9 126.5 C 33.6 126.3 33.3 126.1 32.8 126.1 C 32.3 126.1 31.9 126.3 31.6 126.5 C 31.3 126.7 31.1 126.9 31 127.2 C 31 127.2 29.9 126.8 29.9 126.8 C 30.1 126.4 30.4 126.1 30.7 125.8 C 31 125.6 31.3 125.4 31.7 125.3 C 32 125.3 32.4 125.2 32.7 125.2 C 33 125.2 33.2 125.2 33.5 125.3 C 33.8 125.3 34.1 125.4 34.4 125.6 C 34.6 125.8 34.9 126 35 126.3 C 35.2 126.7 35.3 127.1 35.3 127.7 C 35.32 127.68 35.3 132.3 35.3 132.3 L 34.2 132.3 L 34.2 131.3 C 34.2 131.3 34.19 131.33 34.2 131.3 C 34.1 131.5 34 131.6 33.8 131.8 C 33.7 132 33.4 132.1 33.1 132.3 C 32.9 132.4 32.5 132.4 32.1 132.4 Z M 32.3 131.5 C 32.7 131.5 33.1 131.4 33.4 131.2 C 33.6 131.1 33.9 130.8 34 130.6 C 34.2 130.3 34.2 130 34.2 129.7 C 34.2 129.7 34.2 128.8 34.2 128.8 C 34.2 128.8 34.1 128.9 33.9 128.9 C 33.8 129 33.6 129 33.4 129 C 33.2 129.1 33 129.1 32.8 129.1 C 32.7 129.1 32.5 129.2 32.4 129.2 C 32.1 129.2 31.9 129.3 31.6 129.3 C 31.4 129.4 31.2 129.5 31 129.7 C 30.9 129.9 30.8 130.1 30.8 130.3 C 30.8 130.7 30.9 131 31.2 131.2 C 31.5 131.4 31.9 131.5 32.3 131.5 Z M 38.4 128.1 C 38.35 128.08 38.4 132.3 38.4 132.3 L 37.3 132.3 L 37.3 125.3 L 38.3 125.3 L 38.3 126.4 C 38.3 126.4 38.41 126.39 38.4 126.4 C 38.6 126 38.8 125.7 39.2 125.5 C 39.5 125.3 39.9 125.2 40.4 125.2 C 40.9 125.2 41.3 125.3 41.7 125.5 C 42 125.7 42.3 126 42.5 126.4 C 42.7 126.8 42.8 127.2 42.8 127.8 C 42.81 127.84 42.8 132.3 42.8 132.3 L 41.7 132.3 C 41.7 132.3 41.74 127.91 41.7 127.9 C 41.7 127.4 41.6 126.9 41.3 126.6 C 41 126.3 40.6 126.2 40.1 126.2 C 39.8 126.2 39.5 126.2 39.2 126.4 C 39 126.5 38.7 126.8 38.6 127 C 38.4 127.3 38.4 127.7 38.4 128.1 Z M 45.8 128.1 C 45.85 128.08 45.8 132.3 45.8 132.3 L 44.8 132.3 L 44.8 125.3 L 45.8 125.3 L 45.8 126.4 C 45.8 126.4 45.9 126.39 45.9 126.4 C 46.1 126 46.3 125.7 46.6 125.5 C 47 125.3 47.4 125.2 47.9 125.2 C 48.4 125.2 48.8 125.3 49.2 125.5 C 49.5 125.7 49.8 126 50 126.4 C 50.2 126.8 50.3 127.2 50.3 127.8 C 50.3 127.84 50.3 132.3 50.3 132.3 L 49.2 132.3 C 49.2 132.3 49.23 127.91 49.2 127.9 C 49.2 127.4 49.1 126.9 48.8 126.6 C 48.5 126.3 48.1 126.2 47.6 126.2 C 47.3 126.2 47 126.2 46.7 126.4 C 46.4 126.5 46.2 126.8 46.1 127 C 45.9 127.3 45.8 127.7 45.8 128.1 Z M 52.2 132.3 L 52.2 125.3 L 53.3 125.3 L 53.3 132.3 L 52.2 132.3 Z M 52.8 124.1 C 52.6 124.1 52.4 124.1 52.2 123.9 C 52.1 123.8 52 123.6 52 123.4 C 52 123.2 52.1 123 52.2 122.9 C 52.4 122.7 52.6 122.7 52.8 122.7 C 53 122.7 53.2 122.7 53.3 122.9 C 53.5 123 53.5 123.2 53.5 123.4 C 53.5 123.6 53.5 123.8 53.3 123.9 C 53.2 124.1 53 124.1 52.8 124.1 Z M 56.4 128.1 C 56.36 128.08 56.4 132.3 56.4 132.3 L 55.3 132.3 L 55.3 125.3 L 56.3 125.3 L 56.3 126.4 C 56.3 126.4 56.42 126.39 56.4 126.4 C 56.6 126 56.8 125.7 57.2 125.5 C 57.5 125.3 57.9 125.2 58.5 125.2 C 58.9 125.2 59.3 125.3 59.7 125.5 C 60 125.7 60.3 126 60.5 126.4 C 60.7 126.8 60.8 127.2 60.8 127.8 C 60.82 127.84 60.8 132.3 60.8 132.3 L 59.7 132.3 C 59.7 132.3 59.75 127.91 59.7 127.9 C 59.7 127.4 59.6 126.9 59.3 126.6 C 59 126.3 58.6 126.2 58.1 126.2 C 57.8 126.2 57.5 126.2 57.2 126.4 C 57 126.5 56.7 126.8 56.6 127 C 56.4 127.3 56.4 127.7 56.4 128.1 Z M 65.6 135 C 65 135 64.6 135 64.2 134.8 C 63.9 134.7 63.5 134.5 63.3 134.3 C 63 134.1 62.9 133.9 62.7 133.6 C 62.7 133.6 63.6 133 63.6 133 C 63.7 133.2 63.8 133.3 63.9 133.5 C 64.1 133.6 64.3 133.8 64.5 133.9 C 64.8 134 65.1 134.1 65.6 134.1 C 66.1 134.1 66.6 134 67 133.7 C 67.3 133.4 67.5 133 67.5 132.4 C 67.51 132.4 67.5 131 67.5 131 C 67.5 131 67.42 130.99 67.4 131 C 67.3 131.1 67.2 131.3 67.1 131.5 C 66.9 131.6 66.7 131.8 66.5 132 C 66.2 132.1 65.8 132.2 65.4 132.2 C 64.8 132.2 64.3 132 63.9 131.8 C 63.4 131.5 63.1 131.1 62.8 130.6 C 62.5 130.1 62.4 129.5 62.4 128.7 C 62.4 128 62.5 127.4 62.8 126.9 C 63 126.3 63.4 125.9 63.8 125.6 C 64.3 125.3 64.8 125.2 65.4 125.2 C 65.9 125.2 66.2 125.3 66.5 125.4 C 66.8 125.6 67 125.7 67.1 125.9 C 67.2 126.1 67.4 126.3 67.4 126.4 C 67.44 126.4 67.5 126.4 67.5 126.4 L 67.5 125.3 L 68.6 125.3 C 68.6 125.3 68.58 132.48 68.6 132.5 C 68.6 133.1 68.4 133.6 68.2 133.9 C 67.9 134.3 67.5 134.6 67.1 134.8 C 66.6 135 66.1 135 65.6 135 Z M 65.5 131.2 C 66 131.2 66.3 131.1 66.6 130.9 C 66.9 130.7 67.1 130.4 67.3 130.1 C 67.4 129.7 67.5 129.2 67.5 128.7 C 67.5 128.2 67.5 127.8 67.3 127.4 C 67.1 127 66.9 126.7 66.6 126.5 C 66.3 126.3 66 126.2 65.5 126.2 C 65.1 126.2 64.7 126.3 64.4 126.5 C 64.1 126.7 63.9 127.1 63.7 127.4 C 63.6 127.8 63.5 128.3 63.5 128.7 C 63.5 129.2 63.6 129.6 63.7 130 C 63.9 130.4 64.1 130.7 64.4 130.9 C 64.7 131.1 65.1 131.2 65.5 131.2 Z M 74.1 134.9 L 74.1 125.3 L 75.2 125.3 L 75.2 126.4 C 75.2 126.4 75.31 126.4 75.3 126.4 C 75.4 126.3 75.5 126.1 75.6 125.9 C 75.8 125.7 76 125.6 76.2 125.4 C 76.5 125.3 76.9 125.2 77.3 125.2 C 77.9 125.2 78.4 125.4 78.9 125.6 C 79.3 125.9 79.7 126.4 79.9 126.9 C 80.2 127.4 80.3 128.1 80.3 128.8 C 80.3 129.5 80.2 130.2 79.9 130.7 C 79.7 131.3 79.3 131.7 78.9 132 C 78.4 132.3 77.9 132.4 77.3 132.4 C 76.9 132.4 76.5 132.3 76.3 132.2 C 76 132 75.8 131.9 75.6 131.7 C 75.5 131.5 75.4 131.3 75.3 131.2 C 75.31 131.2 75.2 131.2 75.2 131.2 L 75.2 134.9 L 74.1 134.9 Z M 75.2 128.8 C 75.2 129.3 75.3 129.8 75.4 130.2 C 75.6 130.6 75.8 130.9 76.1 131.1 C 76.4 131.3 76.8 131.5 77.2 131.5 C 77.6 131.5 78 131.3 78.3 131.1 C 78.6 130.9 78.9 130.5 79 130.1 C 79.2 129.7 79.2 129.3 79.2 128.8 C 79.2 128.3 79.2 127.9 79 127.5 C 78.9 127.1 78.6 126.7 78.3 126.5 C 78 126.3 77.7 126.2 77.2 126.2 C 76.8 126.2 76.4 126.3 76.1 126.5 C 75.8 126.7 75.6 127 75.4 127.4 C 75.3 127.8 75.2 128.3 75.2 128.8 Z M 83 123 L 83 132.3 L 82 132.3 L 82 123 L 83 123 Z M 87.1 132.4 C 86.6 132.4 86.2 132.4 85.9 132.2 C 85.5 132 85.2 131.8 85 131.5 C 84.8 131.1 84.7 130.7 84.7 130.3 C 84.7 129.9 84.8 129.6 84.9 129.3 C 85.1 129.1 85.3 128.9 85.5 128.7 C 85.8 128.6 86.1 128.5 86.4 128.4 C 86.7 128.3 87.1 128.3 87.4 128.2 C 87.8 128.2 88.2 128.1 88.4 128.1 C 88.7 128.1 88.9 128 89 128 C 89.1 127.9 89.2 127.8 89.2 127.6 C 89.2 127.6 89.2 127.6 89.2 127.6 C 89.2 127.1 89.1 126.8 88.8 126.5 C 88.6 126.3 88.2 126.1 87.7 126.1 C 87.2 126.1 86.8 126.3 86.5 126.5 C 86.2 126.7 86 126.9 85.9 127.2 C 85.9 127.2 84.9 126.8 84.9 126.8 C 85.1 126.4 85.3 126.1 85.6 125.8 C 85.9 125.6 86.2 125.4 86.6 125.3 C 87 125.3 87.3 125.2 87.7 125.2 C 87.9 125.2 88.2 125.2 88.5 125.3 C 88.7 125.3 89 125.4 89.3 125.6 C 89.6 125.8 89.8 126 90 126.3 C 90.2 126.7 90.3 127.1 90.3 127.7 C 90.26 127.68 90.3 132.3 90.3 132.3 L 89.2 132.3 L 89.2 131.3 C 89.2 131.3 89.13 131.33 89.1 131.3 C 89.1 131.5 88.9 131.6 88.8 131.8 C 88.6 132 88.4 132.1 88.1 132.3 C 87.8 132.4 87.5 132.4 87.1 132.4 Z M 87.2 131.5 C 87.6 131.5 88 131.4 88.3 131.2 C 88.6 131.1 88.8 130.8 89 130.6 C 89.1 130.3 89.2 130 89.2 129.7 C 89.2 129.7 89.2 128.8 89.2 128.8 C 89.1 128.8 89 128.9 88.9 128.9 C 88.7 129 88.6 129 88.4 129 C 88.2 129.1 88 129.1 87.8 129.1 C 87.6 129.1 87.4 129.2 87.3 129.2 C 87.1 129.2 86.8 129.3 86.6 129.3 C 86.3 129.4 86.1 129.5 86 129.7 C 85.8 129.9 85.8 130.1 85.8 130.3 C 85.8 130.7 85.9 131 86.2 131.2 C 86.4 131.4 86.8 131.5 87.2 131.5 Z M 95.1 125.3 L 95.1 126.2 L 91.5 126.2 L 91.5 125.3 L 95.1 125.3 Z M 92.5 123.6 L 93.6 123.6 C 93.6 123.6 93.6 130.28 93.6 130.3 C 93.6 130.6 93.6 130.8 93.7 131 C 93.8 131.1 93.9 131.2 94.1 131.3 C 94.2 131.3 94.4 131.3 94.5 131.3 C 94.6 131.3 94.7 131.3 94.8 131.3 C 94.9 131.3 95 131.3 95 131.3 C 95 131.3 95.2 132.2 95.2 132.2 C 95.1 132.3 95 132.3 94.9 132.3 C 94.8 132.4 94.6 132.4 94.4 132.4 C 94.1 132.4 93.8 132.3 93.5 132.2 C 93.2 132 93 131.8 92.8 131.6 C 92.6 131.3 92.5 131 92.5 130.6 C 92.53 130.57 92.5 123.6 92.5 123.6 Z M 100 125.3 L 100 126.2 L 96.2 126.2 L 96.2 125.3 L 100 125.3 Z M 97.4 132.3 C 97.4 132.3 97.35 124.33 97.4 124.3 C 97.4 123.9 97.4 123.6 97.6 123.3 C 97.8 123.1 98.1 122.9 98.4 122.7 C 98.7 122.6 99 122.5 99.3 122.5 C 99.6 122.5 99.8 122.6 100 122.6 C 100.1 122.6 100.3 122.7 100.3 122.7 C 100.3 122.7 100 123.6 100 123.6 C 100 123.6 99.9 123.6 99.8 123.6 C 99.7 123.5 99.6 123.5 99.4 123.5 C 99.1 123.5 98.8 123.6 98.7 123.8 C 98.5 124 98.4 124.2 98.4 124.6 C 98.43 124.59 98.4 132.3 98.4 132.3 L 97.4 132.3 Z M 104 132.4 C 103.4 132.4 102.9 132.3 102.4 132 C 101.9 131.7 101.5 131.3 101.3 130.7 C 101 130.2 100.9 129.5 100.9 128.8 C 100.9 128.1 101 127.5 101.3 126.9 C 101.5 126.4 101.9 126 102.4 125.7 C 102.9 125.4 103.4 125.2 104 125.2 C 104.7 125.2 105.2 125.4 105.7 125.7 C 106.2 126 106.5 126.4 106.8 126.9 C 107.1 127.5 107.2 128.1 107.2 128.8 C 107.2 129.5 107.1 130.2 106.8 130.7 C 106.5 131.3 106.2 131.7 105.7 132 C 105.2 132.3 104.7 132.4 104 132.4 Z M 104 131.5 C 104.5 131.5 104.9 131.3 105.2 131.1 C 105.5 130.8 105.8 130.5 105.9 130.1 C 106.1 129.7 106.1 129.3 106.1 128.8 C 106.1 128.4 106.1 127.9 105.9 127.5 C 105.8 127.1 105.5 126.8 105.2 126.5 C 104.9 126.3 104.5 126.2 104 126.2 C 103.6 126.2 103.2 126.3 102.9 126.5 C 102.5 126.8 102.3 127.1 102.2 127.5 C 102 127.9 101.9 128.4 101.9 128.8 C 101.9 129.3 102 129.7 102.2 130.1 C 102.3 130.5 102.5 130.8 102.9 131.1 C 103.2 131.3 103.6 131.5 104 131.5 Z M 108.8 132.3 L 108.8 125.3 L 109.9 125.3 L 109.9 126.3 C 109.9 126.3 109.96 126.35 110 126.3 C 110.1 126 110.3 125.7 110.6 125.5 C 111 125.3 111.4 125.2 111.8 125.2 C 111.9 125.2 112 125.2 112.1 125.2 C 112.2 125.2 112.3 125.2 112.3 125.2 C 112.3 125.2 112.3 126.3 112.3 126.3 C 112.3 126.3 112.2 126.3 112.1 126.3 C 112 126.2 111.8 126.2 111.7 126.2 C 111.3 126.2 111 126.3 110.8 126.4 C 110.5 126.6 110.3 126.8 110.1 127 C 110 127.3 109.9 127.5 109.9 127.9 C 109.92 127.86 109.9 132.3 109.9 132.3 L 108.8 132.3 Z M 113.6 132.3 L 113.6 125.3 L 114.7 125.3 L 114.7 126.4 C 114.7 126.4 114.76 126.39 114.8 126.4 C 114.9 126 115.1 125.7 115.5 125.5 C 115.8 125.3 116.2 125.2 116.6 125.2 C 117.1 125.2 117.5 125.3 117.8 125.5 C 118.1 125.7 118.3 126 118.5 126.4 C 118.5 126.4 118.6 126.4 118.6 126.4 C 118.8 126 119 125.7 119.4 125.5 C 119.7 125.3 120.2 125.2 120.7 125.2 C 121.3 125.2 121.8 125.4 122.2 125.8 C 122.6 126.2 122.8 126.8 122.8 127.6 C 122.79 127.6 122.8 132.3 122.8 132.3 L 121.7 132.3 C 121.7 132.3 121.72 127.6 121.7 127.6 C 121.7 127.1 121.6 126.7 121.3 126.5 C 121 126.3 120.7 126.2 120.3 126.2 C 119.8 126.2 119.4 126.3 119.2 126.6 C 118.9 126.9 118.8 127.3 118.8 127.7 C 118.76 127.73 118.8 132.3 118.8 132.3 L 117.7 132.3 C 117.7 132.3 117.66 127.49 117.7 127.5 C 117.7 127.1 117.5 126.8 117.3 126.5 C 117 126.3 116.7 126.2 116.3 126.2 C 116 126.2 115.7 126.2 115.5 126.4 C 115.3 126.5 115.1 126.7 114.9 127 C 114.8 127.3 114.7 127.6 114.7 127.9 C 114.7 127.91 114.7 132.3 114.7 132.3 L 113.6 132.3 Z M 128.5 132.3 L 128.5 123 L 129.6 123 L 129.6 126.4 C 129.6 126.4 129.66 126.4 129.7 126.4 C 129.7 126.3 129.9 126.1 130 125.9 C 130.1 125.7 130.3 125.6 130.6 125.4 C 130.9 125.3 131.2 125.2 131.7 125.2 C 132.3 125.2 132.8 125.4 133.2 125.6 C 133.7 125.9 134 126.4 134.3 126.9 C 134.5 127.4 134.7 128.1 134.7 128.8 C 134.7 129.5 134.5 130.2 134.3 130.7 C 134 131.3 133.7 131.7 133.2 132 C 132.8 132.3 132.3 132.4 131.7 132.4 C 131.3 132.4 130.9 132.3 130.6 132.2 C 130.4 132 130.1 131.9 130 131.7 C 129.9 131.5 129.7 131.3 129.7 131.2 C 129.66 131.2 129.5 131.2 129.5 131.2 L 129.5 132.3 L 128.5 132.3 Z M 129.6 128.8 C 129.6 129.3 129.6 129.8 129.8 130.2 C 129.9 130.6 130.2 130.9 130.5 131.1 C 130.8 131.3 131.1 131.5 131.6 131.5 C 132 131.5 132.4 131.3 132.7 131.1 C 133 130.9 133.2 130.5 133.4 130.1 C 133.5 129.7 133.6 129.3 133.6 128.8 C 133.6 128.3 133.5 127.9 133.4 127.5 C 133.2 127.1 133 126.7 132.7 126.5 C 132.4 126.3 132 126.2 131.6 126.2 C 131.1 126.2 130.8 126.3 130.5 126.5 C 130.2 126.7 129.9 127 129.8 127.4 C 129.6 127.8 129.6 128.3 129.6 128.8 Z M 140.7 129.4 C 140.69 129.42 140.7 125.3 140.7 125.3 L 141.8 125.3 L 141.8 132.3 L 140.7 132.3 L 140.7 131.1 C 140.7 131.1 140.62 131.09 140.6 131.1 C 140.5 131.4 140.2 131.7 139.9 132 C 139.5 132.2 139.1 132.4 138.5 132.4 C 138.1 132.4 137.7 132.3 137.4 132.1 C 137 131.9 136.8 131.6 136.6 131.2 C 136.4 130.8 136.3 130.3 136.3 129.7 C 136.29 129.73 136.3 125.3 136.3 125.3 L 137.4 125.3 C 137.4 125.3 137.36 129.66 137.4 129.7 C 137.4 130.2 137.5 130.6 137.8 130.9 C 138.1 131.2 138.4 131.3 138.9 131.3 C 139.2 131.3 139.4 131.3 139.7 131.1 C 140 131 140.2 130.8 140.4 130.5 C 140.6 130.2 140.7 129.9 140.7 129.4 Z M 143.7 132.3 L 143.7 125.3 L 144.8 125.3 L 144.8 132.3 L 143.7 132.3 Z M 144.3 124.1 C 144.1 124.1 143.9 124.1 143.7 123.9 C 143.6 123.8 143.5 123.6 143.5 123.4 C 143.5 123.2 143.6 123 143.7 122.9 C 143.9 122.7 144.1 122.7 144.3 122.7 C 144.5 122.7 144.7 122.7 144.8 122.9 C 145 123 145 123.2 145 123.4 C 145 123.6 145 123.8 144.8 123.9 C 144.7 124.1 144.5 124.1 144.3 124.1 Z M 147.9 123 L 147.9 132.3 L 146.8 132.3 L 146.8 123 L 147.9 123 Z M 152.8 125.3 L 152.8 126.2 L 149.2 126.2 L 149.2 125.3 L 152.8 125.3 Z M 150.3 123.6 L 151.3 123.6 C 151.3 123.6 151.33 130.28 151.3 130.3 C 151.3 130.6 151.4 130.8 151.5 131 C 151.5 131.1 151.7 131.2 151.8 131.3 C 151.9 131.3 152.1 131.3 152.3 131.3 C 152.4 131.3 152.5 131.3 152.5 131.3 C 152.6 131.3 152.7 131.3 152.7 131.3 C 152.7 131.3 152.9 132.2 152.9 132.2 C 152.9 132.3 152.8 132.3 152.6 132.3 C 152.5 132.4 152.3 132.4 152.1 132.4 C 151.8 132.4 151.5 132.3 151.3 132.2 C 151 132 150.7 131.8 150.5 131.6 C 150.3 131.3 150.3 131 150.3 130.6 C 150.25 130.57 150.3 123.6 150.3 123.6 Z M 161.1 125.3 L 161.1 126.2 L 157.4 126.2 L 157.4 125.3 L 161.1 125.3 Z M 158.5 132.3 C 158.5 132.3 158.51 124.33 158.5 124.3 C 158.5 123.9 158.6 123.6 158.8 123.3 C 159 123.1 159.2 122.9 159.5 122.7 C 159.8 122.6 160.1 122.5 160.5 122.5 C 160.7 122.5 160.9 122.6 161.1 122.6 C 161.3 122.6 161.4 122.7 161.5 122.7 C 161.5 122.7 161.2 123.6 161.2 123.6 C 161.1 123.6 161.1 123.6 161 123.6 C 160.9 123.5 160.7 123.5 160.6 123.5 C 160.2 123.5 160 123.6 159.8 123.8 C 159.7 124 159.6 124.2 159.6 124.6 C 159.58 124.59 159.6 132.3 159.6 132.3 L 158.5 132.3 Z M 165.2 132.4 C 164.6 132.4 164 132.3 163.5 132 C 163.1 131.7 162.7 131.3 162.4 130.7 C 162.2 130.2 162 129.5 162 128.8 C 162 128.1 162.2 127.5 162.4 126.9 C 162.7 126.4 163.1 126 163.5 125.7 C 164 125.4 164.6 125.2 165.2 125.2 C 165.8 125.2 166.4 125.4 166.8 125.7 C 167.3 126 167.7 126.4 168 126.9 C 168.2 127.5 168.4 128.1 168.4 128.8 C 168.4 129.5 168.2 130.2 168 130.7 C 167.7 131.3 167.3 131.7 166.8 132 C 166.4 132.3 165.8 132.4 165.2 132.4 Z M 165.2 131.5 C 165.7 131.5 166.1 131.3 166.4 131.1 C 166.7 130.8 166.9 130.5 167.1 130.1 C 167.2 129.7 167.3 129.3 167.3 128.8 C 167.3 128.4 167.2 127.9 167.1 127.5 C 166.9 127.1 166.7 126.8 166.4 126.5 C 166.1 126.3 165.7 126.2 165.2 126.2 C 164.7 126.2 164.3 126.3 164 126.5 C 163.7 126.8 163.5 127.1 163.3 127.5 C 163.2 127.9 163.1 128.4 163.1 128.8 C 163.1 129.3 163.2 129.7 163.3 130.1 C 163.5 130.5 163.7 130.8 164 131.1 C 164.3 131.3 164.7 131.5 165.2 131.5 Z M 170 132.3 L 170 125.3 L 171 125.3 L 171 126.3 C 171 126.3 171.11 126.35 171.1 126.3 C 171.2 126 171.5 125.7 171.8 125.5 C 172.1 125.3 172.5 125.2 172.9 125.2 C 173 125.2 173.1 125.2 173.2 125.2 C 173.3 125.2 173.4 125.2 173.5 125.2 C 173.5 125.2 173.5 126.3 173.5 126.3 C 173.5 126.3 173.4 126.3 173.2 126.3 C 173.1 126.2 173 126.2 172.8 126.2 C 172.5 126.2 172.2 126.3 171.9 126.4 C 171.7 126.6 171.5 126.8 171.3 127 C 171.1 127.3 171.1 127.5 171.1 127.9 C 171.07 127.86 171.1 132.3 171.1 132.3 L 170 132.3 Z " stroke="none" fill="#10283d"/>  </g>  <g id="Polygon110586">    <path d="M 12 116.9 L 12 107.6 C 12 107.6 15.15 107.61 15.1 107.6 C 15.9 107.6 16.5 107.7 16.9 108 C 17.4 108.3 17.7 108.6 18 109.1 C 18.2 109.5 18.3 110 18.3 110.6 C 18.3 111.1 18.2 111.6 18 112 C 17.8 112.5 17.4 112.9 16.9 113.1 C 16.5 113.4 15.9 113.5 15.2 113.5 C 15.16 113.52 12.9 113.5 12.9 113.5 L 12.9 112.5 C 12.9 112.5 15.13 112.52 15.1 112.5 C 15.6 112.5 16 112.4 16.3 112.3 C 16.6 112.1 16.9 111.9 17 111.6 C 17.1 111.3 17.2 110.9 17.2 110.6 C 17.2 110.2 17.1 109.8 17 109.6 C 16.9 109.3 16.6 109 16.3 108.9 C 16 108.7 15.6 108.6 15.1 108.6 C 15.11 108.61 13.1 108.6 13.1 108.6 L 13.1 116.9 L 12 116.9 Z M 19.9 116.9 L 19.9 109.9 L 20.9 109.9 L 20.9 116.9 L 19.9 116.9 Z M 20.4 108.8 C 20.2 108.8 20 108.7 19.9 108.6 C 19.7 108.4 19.6 108.2 19.6 108 C 19.6 107.8 19.7 107.7 19.9 107.5 C 20 107.4 20.2 107.3 20.4 107.3 C 20.6 107.3 20.8 107.4 20.9 107.5 C 21.1 107.7 21.2 107.8 21.2 108 C 21.2 108.2 21.1 108.4 20.9 108.6 C 20.8 108.7 20.6 108.8 20.4 108.8 Z M 25.7 119.7 C 25.2 119.7 24.7 119.6 24.3 119.5 C 24 119.4 23.7 119.2 23.4 119 C 23.2 118.8 23 118.5 22.8 118.3 C 22.8 118.3 23.7 117.7 23.7 117.7 C 23.8 117.8 23.9 118 24 118.1 C 24.2 118.3 24.4 118.4 24.7 118.6 C 24.9 118.7 25.3 118.7 25.7 118.7 C 26.2 118.7 26.7 118.6 27.1 118.3 C 27.4 118.1 27.6 117.6 27.6 117 C 27.63 117.04 27.6 115.6 27.6 115.6 C 27.6 115.6 27.54 115.63 27.5 115.6 C 27.5 115.8 27.3 115.9 27.2 116.1 C 27.1 116.3 26.9 116.4 26.6 116.6 C 26.3 116.7 26 116.8 25.5 116.8 C 24.9 116.8 24.4 116.7 24 116.4 C 23.5 116.1 23.2 115.8 22.9 115.2 C 22.7 114.7 22.5 114.1 22.5 113.4 C 22.5 112.7 22.7 112.1 22.9 111.5 C 23.2 111 23.5 110.6 24 110.3 C 24.4 110 24.9 109.8 25.5 109.8 C 26 109.8 26.3 109.9 26.6 110.1 C 26.9 110.2 27.1 110.4 27.2 110.6 C 27.4 110.8 27.5 110.9 27.6 111 C 27.55 111.04 27.7 111 27.7 111 L 27.7 109.9 L 28.7 109.9 C 28.7 109.9 28.7 117.12 28.7 117.1 C 28.7 117.7 28.6 118.2 28.3 118.6 C 28 119 27.7 119.2 27.2 119.4 C 26.7 119.6 26.2 119.7 25.7 119.7 Z M 25.6 115.8 C 26.1 115.8 26.4 115.7 26.7 115.5 C 27 115.4 27.3 115.1 27.4 114.7 C 27.6 114.3 27.6 113.9 27.6 113.4 C 27.6 112.9 27.6 112.4 27.4 112 C 27.3 111.7 27 111.4 26.7 111.1 C 26.4 110.9 26.1 110.8 25.6 110.8 C 25.2 110.8 24.8 110.9 24.5 111.2 C 24.2 111.4 24 111.7 23.8 112.1 C 23.7 112.5 23.6 112.9 23.6 113.4 C 23.6 113.9 23.7 114.3 23.8 114.7 C 24 115 24.2 115.3 24.5 115.5 C 24.8 115.7 25.2 115.8 25.6 115.8 Z M 30.7 116.9 L 30.7 109.9 L 31.7 109.9 L 31.7 111 C 31.7 111 31.8 111.03 31.8 111 C 31.9 110.7 32.2 110.4 32.5 110.2 C 32.8 109.9 33.2 109.8 33.7 109.8 C 34.1 109.8 34.5 109.9 34.8 110.2 C 35.1 110.4 35.4 110.7 35.5 111 C 35.5 111 35.6 111 35.6 111 C 35.8 110.7 36.1 110.4 36.4 110.2 C 36.8 110 37.2 109.8 37.7 109.8 C 38.3 109.8 38.8 110 39.2 110.4 C 39.6 110.8 39.8 111.4 39.8 112.2 C 39.84 112.24 39.8 116.9 39.8 116.9 L 38.8 116.9 C 38.8 116.9 38.76 112.24 38.8 112.2 C 38.8 111.7 38.6 111.4 38.3 111.1 C 38.1 110.9 37.7 110.8 37.3 110.8 C 36.9 110.8 36.5 111 36.2 111.3 C 35.9 111.5 35.8 111.9 35.8 112.4 C 35.8 112.37 35.8 116.9 35.8 116.9 L 34.7 116.9 C 34.7 116.9 34.71 112.13 34.7 112.1 C 34.7 111.7 34.6 111.4 34.3 111.2 C 34.1 110.9 33.7 110.8 33.3 110.8 C 33 110.8 32.8 110.9 32.5 111 C 32.3 111.2 32.1 111.4 32 111.6 C 31.8 111.9 31.7 112.2 31.7 112.6 C 31.74 112.55 31.7 116.9 31.7 116.9 L 30.7 116.9 Z M 44.7 117.1 C 44 117.1 43.5 116.9 43 116.6 C 42.5 116.3 42.1 115.9 41.8 115.4 C 41.6 114.8 41.5 114.2 41.5 113.5 C 41.5 112.8 41.6 112.1 41.8 111.6 C 42.1 111 42.5 110.6 42.9 110.3 C 43.4 110 44 109.8 44.6 109.8 C 45 109.8 45.3 109.9 45.7 110 C 46 110.1 46.4 110.3 46.6 110.6 C 46.9 110.9 47.2 111.2 47.3 111.7 C 47.5 112.1 47.6 112.7 47.6 113.3 C 47.6 113.33 47.6 113.8 47.6 113.8 L 42.2 113.8 L 42.2 112.9 C 42.2 112.9 46.51 112.86 46.5 112.9 C 46.5 112.5 46.4 112.1 46.3 111.8 C 46.1 111.5 45.9 111.3 45.6 111.1 C 45.3 110.9 45 110.8 44.6 110.8 C 44.2 110.8 43.8 110.9 43.5 111.1 C 43.2 111.3 42.9 111.6 42.8 111.9 C 42.6 112.3 42.5 112.6 42.5 113 C 42.5 113 42.5 113.6 42.5 113.6 C 42.5 114.2 42.6 114.6 42.8 115 C 43 115.3 43.2 115.6 43.6 115.8 C 43.9 116 44.3 116.1 44.7 116.1 C 45 116.1 45.2 116.1 45.5 116 C 45.7 115.9 45.9 115.8 46.1 115.6 C 46.2 115.5 46.4 115.2 46.5 115 C 46.5 115 47.5 115.3 47.5 115.3 C 47.4 115.6 47.2 116 46.9 116.2 C 46.7 116.5 46.4 116.7 46 116.8 C 45.6 117 45.2 117.1 44.7 117.1 Z M 50.3 112.7 C 50.32 112.72 50.3 116.9 50.3 116.9 L 49.3 116.9 L 49.3 109.9 L 50.3 109.9 L 50.3 111 C 50.3 111 50.38 111.03 50.4 111 C 50.5 110.7 50.8 110.4 51.1 110.2 C 51.5 110 51.9 109.8 52.4 109.8 C 52.9 109.8 53.3 109.9 53.7 110.1 C 54 110.3 54.3 110.6 54.5 111 C 54.7 111.4 54.8 111.9 54.8 112.5 C 54.78 112.48 54.8 116.9 54.8 116.9 L 53.7 116.9 C 53.7 116.9 53.71 112.55 53.7 112.6 C 53.7 112 53.6 111.6 53.3 111.3 C 53 111 52.6 110.8 52.1 110.8 C 51.8 110.8 51.5 110.9 51.2 111 C 50.9 111.2 50.7 111.4 50.6 111.7 C 50.4 112 50.3 112.3 50.3 112.7 Z M 59.6 109.9 L 59.6 110.8 L 56 110.8 L 56 109.9 L 59.6 109.9 Z M 57 108.3 L 58.1 108.3 C 58.1 108.3 58.11 114.92 58.1 114.9 C 58.1 115.2 58.2 115.4 58.2 115.6 C 58.3 115.7 58.4 115.8 58.6 115.9 C 58.7 115.9 58.9 116 59 116 C 59.2 116 59.2 116 59.3 116 C 59.4 115.9 59.5 115.9 59.5 115.9 C 59.5 115.9 59.7 116.9 59.7 116.9 C 59.7 116.9 59.5 116.9 59.4 117 C 59.3 117 59.1 117 58.9 117 C 58.6 117 58.3 116.9 58 116.8 C 57.7 116.7 57.5 116.5 57.3 116.2 C 57.1 115.9 57 115.6 57 115.2 C 57.03 115.21 57 108.3 57 108.3 Z M 64.8 116.9 L 64.8 109.9 L 65.9 109.9 L 65.9 116.9 L 64.8 116.9 Z M 65.4 108.8 C 65.2 108.8 65 108.7 64.8 108.6 C 64.7 108.4 64.6 108.2 64.6 108 C 64.6 107.8 64.7 107.7 64.8 107.5 C 65 107.4 65.2 107.3 65.4 107.3 C 65.6 107.3 65.7 107.4 65.9 107.5 C 66 107.7 66.1 107.8 66.1 108 C 66.1 108.2 66 108.4 65.9 108.6 C 65.7 108.7 65.6 108.8 65.4 108.8 Z M 72.7 111.5 C 72.7 111.5 71.8 111.8 71.8 111.8 C 71.7 111.6 71.6 111.5 71.5 111.3 C 71.4 111.1 71.2 111 71 110.9 C 70.8 110.8 70.6 110.8 70.3 110.8 C 69.8 110.8 69.5 110.9 69.2 111.1 C 68.9 111.3 68.8 111.5 68.8 111.8 C 68.8 112.1 68.9 112.3 69.1 112.4 C 69.3 112.6 69.6 112.7 70 112.8 C 70 112.8 71 113.1 71 113.1 C 71.6 113.2 72.1 113.5 72.4 113.8 C 72.7 114.1 72.9 114.5 72.9 115 C 72.9 115.4 72.7 115.7 72.5 116 C 72.3 116.4 72 116.6 71.6 116.8 C 71.2 117 70.7 117.1 70.1 117.1 C 69.4 117.1 68.8 116.9 68.4 116.6 C 67.9 116.3 67.6 115.8 67.5 115.2 C 67.5 115.2 68.5 115 68.5 115 C 68.6 115.4 68.8 115.6 69.1 115.8 C 69.3 116 69.7 116.1 70.1 116.1 C 70.6 116.1 71 116 71.3 115.8 C 71.6 115.6 71.8 115.3 71.8 115 C 71.8 114.8 71.7 114.6 71.5 114.4 C 71.3 114.2 71.1 114.1 70.7 114 C 70.7 114 69.6 113.8 69.6 113.8 C 68.9 113.6 68.4 113.4 68.1 113.1 C 67.8 112.7 67.7 112.3 67.7 111.9 C 67.7 111.5 67.8 111.1 68 110.8 C 68.3 110.5 68.6 110.3 68.9 110.1 C 69.3 109.9 69.8 109.8 70.3 109.8 C 71 109.8 71.5 110 71.9 110.3 C 72.3 110.6 72.6 111 72.7 111.5 Z M 80.1 117.1 C 79.7 117.1 79.3 117 78.9 116.8 C 78.6 116.7 78.3 116.4 78.1 116.1 C 77.9 115.8 77.8 115.4 77.8 114.9 C 77.8 114.5 77.8 114.2 78 114 C 78.1 113.7 78.4 113.5 78.6 113.4 C 78.9 113.2 79.2 113.1 79.5 113.1 C 79.8 113 80.1 112.9 80.5 112.9 C 80.9 112.8 81.2 112.8 81.5 112.8 C 81.8 112.7 82 112.7 82.1 112.6 C 82.2 112.5 82.3 112.4 82.3 112.2 C 82.3 112.2 82.3 112.2 82.3 112.2 C 82.3 111.8 82.1 111.4 81.9 111.2 C 81.7 110.9 81.3 110.8 80.8 110.8 C 80.3 110.8 79.9 110.9 79.6 111.1 C 79.3 111.3 79.1 111.6 79 111.8 C 79 111.8 78 111.5 78 111.5 C 78.1 111.1 78.4 110.7 78.7 110.5 C 79 110.2 79.3 110.1 79.7 110 C 80 109.9 80.4 109.8 80.8 109.8 C 81 109.8 81.2 109.9 81.5 109.9 C 81.8 110 82.1 110.1 82.4 110.2 C 82.7 110.4 82.9 110.7 83.1 111 C 83.2 111.3 83.3 111.8 83.3 112.3 C 83.34 112.32 83.3 116.9 83.3 116.9 L 82.3 116.9 L 82.3 116 C 82.3 116 82.21 115.97 82.2 116 C 82.1 116.1 82 116.3 81.8 116.5 C 81.7 116.6 81.4 116.8 81.2 116.9 C 80.9 117 80.5 117.1 80.1 117.1 Z M 80.3 116.1 C 80.7 116.1 81.1 116 81.4 115.9 C 81.7 115.7 81.9 115.5 82 115.2 C 82.2 115 82.3 114.7 82.3 114.4 C 82.3 114.4 82.3 113.4 82.3 113.4 C 82.2 113.5 82.1 113.5 82 113.6 C 81.8 113.6 81.6 113.6 81.4 113.7 C 81.2 113.7 81 113.7 80.9 113.8 C 80.7 113.8 80.5 113.8 80.4 113.8 C 80.1 113.8 79.9 113.9 79.6 114 C 79.4 114.1 79.2 114.2 79 114.3 C 78.9 114.5 78.8 114.7 78.8 115 C 78.8 115.4 79 115.6 79.2 115.8 C 79.5 116 79.9 116.1 80.3 116.1 Z M 86.4 112.7 C 86.37 112.72 86.4 116.9 86.4 116.9 L 85.3 116.9 L 85.3 109.9 L 86.3 109.9 L 86.3 111 C 86.3 111 86.43 111.03 86.4 111 C 86.6 110.7 86.8 110.4 87.2 110.2 C 87.5 110 87.9 109.8 88.5 109.8 C 88.9 109.8 89.4 109.9 89.7 110.1 C 90.1 110.3 90.3 110.6 90.5 111 C 90.7 111.4 90.8 111.9 90.8 112.5 C 90.83 112.48 90.8 116.9 90.8 116.9 L 89.8 116.9 C 89.8 116.9 89.76 112.55 89.8 112.6 C 89.8 112 89.6 111.6 89.3 111.3 C 89 111 88.7 110.8 88.2 110.8 C 87.8 110.8 87.5 110.9 87.2 111 C 87 111.2 86.8 111.4 86.6 111.7 C 86.5 112 86.4 112.3 86.4 112.7 Z M 96.9 116.9 L 95.7 116.9 L 99.2 107.6 L 100.3 107.6 L 103.7 116.9 L 102.6 116.9 L 99.8 109.1 L 99.7 109.1 L 96.9 116.9 Z M 97.4 113.3 L 102.1 113.3 L 102.1 114.3 L 97.4 114.3 L 97.4 113.3 Z M 106.3 107.6 L 106.3 116.9 L 105.2 116.9 L 105.2 107.6 L 106.3 107.6 Z M 112.5 112.4 L 112.5 113.4 L 108.4 113.4 L 108.4 112.4 L 112.5 112.4 Z M 116.1 117.1 C 115.7 117.1 115.3 117 114.9 116.8 C 114.6 116.7 114.3 116.4 114.1 116.1 C 113.9 115.8 113.8 115.4 113.8 114.9 C 113.8 114.5 113.8 114.2 114 114 C 114.1 113.7 114.4 113.5 114.6 113.4 C 114.9 113.2 115.2 113.1 115.5 113.1 C 115.8 113 116.1 112.9 116.5 112.9 C 116.9 112.8 117.2 112.8 117.5 112.8 C 117.8 112.7 118 112.7 118.1 112.6 C 118.2 112.5 118.3 112.4 118.3 112.2 C 118.3 112.2 118.3 112.2 118.3 112.2 C 118.3 111.8 118.1 111.4 117.9 111.2 C 117.7 110.9 117.3 110.8 116.8 110.8 C 116.3 110.8 115.9 110.9 115.6 111.1 C 115.3 111.3 115.1 111.6 115 111.8 C 115 111.8 114 111.5 114 111.5 C 114.1 111.1 114.4 110.7 114.7 110.5 C 115 110.2 115.3 110.1 115.7 110 C 116 109.9 116.4 109.8 116.8 109.8 C 117 109.8 117.2 109.9 117.5 109.9 C 117.8 110 118.1 110.1 118.4 110.2 C 118.7 110.4 118.9 110.7 119.1 111 C 119.2 111.3 119.3 111.8 119.3 112.3 C 119.34 112.32 119.3 116.9 119.3 116.9 L 118.3 116.9 L 118.3 116 C 118.3 116 118.21 115.97 118.2 116 C 118.1 116.1 118 116.3 117.8 116.5 C 117.7 116.6 117.4 116.8 117.2 116.9 C 116.9 117 116.5 117.1 116.1 117.1 Z M 116.3 116.1 C 116.7 116.1 117.1 116 117.4 115.9 C 117.7 115.7 117.9 115.5 118 115.2 C 118.2 115 118.3 114.7 118.3 114.4 C 118.3 114.4 118.3 113.4 118.3 113.4 C 118.2 113.5 118.1 113.5 118 113.6 C 117.8 113.6 117.6 113.6 117.4 113.7 C 117.2 113.7 117 113.7 116.9 113.8 C 116.7 113.8 116.5 113.8 116.4 113.8 C 116.1 113.8 115.9 113.9 115.6 114 C 115.4 114.1 115.2 114.2 115 114.3 C 114.9 114.5 114.8 114.7 114.8 115 C 114.8 115.4 115 115.6 115.2 115.8 C 115.5 116 115.9 116.1 116.3 116.1 Z M 125.7 114.1 C 125.66 114.06 125.7 109.9 125.7 109.9 L 126.7 109.9 L 126.7 116.9 L 125.7 116.9 L 125.7 115.7 C 125.7 115.7 125.59 115.73 125.6 115.7 C 125.4 116.1 125.2 116.4 124.8 116.6 C 124.5 116.9 124 117 123.5 117 C 123.1 117 122.7 116.9 122.3 116.7 C 122 116.5 121.7 116.2 121.5 115.8 C 121.4 115.5 121.3 115 121.3 114.4 C 121.26 114.37 121.3 109.9 121.3 109.9 L 122.3 109.9 C 122.3 109.9 122.33 114.3 122.3 114.3 C 122.3 114.8 122.5 115.2 122.8 115.5 C 123 115.8 123.4 116 123.9 116 C 124.1 116 124.4 115.9 124.7 115.8 C 125 115.6 125.2 115.4 125.4 115.1 C 125.6 114.9 125.7 114.5 125.7 114.1 Z M 131.5 119.7 C 131 119.7 130.6 119.6 130.2 119.5 C 129.8 119.4 129.5 119.2 129.3 119 C 129 118.8 128.8 118.5 128.7 118.3 C 128.7 118.3 129.5 117.7 129.5 117.7 C 129.6 117.8 129.7 118 129.9 118.1 C 130 118.3 130.2 118.4 130.5 118.6 C 130.8 118.7 131.1 118.7 131.5 118.7 C 132.1 118.7 132.6 118.6 132.9 118.3 C 133.3 118.1 133.5 117.6 133.5 117 C 133.47 117.04 133.5 115.6 133.5 115.6 C 133.5 115.6 133.38 115.63 133.4 115.6 C 133.3 115.8 133.2 115.9 133 116.1 C 132.9 116.3 132.7 116.4 132.4 116.6 C 132.2 116.7 131.8 116.8 131.3 116.8 C 130.8 116.8 130.3 116.7 129.8 116.4 C 129.4 116.1 129 115.8 128.8 115.2 C 128.5 114.7 128.4 114.1 128.4 113.4 C 128.4 112.7 128.5 112.1 128.8 111.5 C 129 111 129.4 110.6 129.8 110.3 C 130.3 110 130.8 109.8 131.4 109.8 C 131.8 109.8 132.2 109.9 132.4 110.1 C 132.7 110.2 132.9 110.4 133.1 110.6 C 133.2 110.8 133.3 110.9 133.4 111 C 133.39 111.04 133.5 111 133.5 111 L 133.5 109.9 L 134.5 109.9 C 134.5 109.9 134.54 117.12 134.5 117.1 C 134.5 117.7 134.4 118.2 134.1 118.6 C 133.9 119 133.5 119.2 133 119.4 C 132.6 119.6 132.1 119.7 131.5 119.7 Z M 131.5 115.8 C 131.9 115.8 132.3 115.7 132.6 115.5 C 132.9 115.4 133.1 115.1 133.3 114.7 C 133.4 114.3 133.5 113.9 133.5 113.4 C 133.5 112.9 133.4 112.4 133.3 112 C 133.1 111.7 132.9 111.4 132.6 111.1 C 132.3 110.9 131.9 110.8 131.5 110.8 C 131 110.8 130.7 110.9 130.4 111.2 C 130 111.4 129.8 111.7 129.7 112.1 C 129.5 112.5 129.4 112.9 129.4 113.4 C 129.4 113.9 129.5 114.3 129.7 114.7 C 129.8 115 130.1 115.3 130.4 115.5 C 130.7 115.7 131 115.8 131.5 115.8 Z M 136.5 116.9 L 136.5 109.9 L 137.5 109.9 L 137.5 111 C 137.5 111 137.64 111.03 137.6 111 C 137.8 110.7 138 110.4 138.3 110.2 C 138.7 109.9 139.1 109.8 139.5 109.8 C 140 109.8 140.4 109.9 140.7 110.2 C 141 110.4 141.2 110.7 141.4 111 C 141.4 111 141.5 111 141.5 111 C 141.6 110.7 141.9 110.4 142.3 110.2 C 142.6 110 143 109.8 143.5 109.8 C 144.2 109.8 144.7 110 145.1 110.4 C 145.5 110.8 145.7 111.4 145.7 112.2 C 145.68 112.24 145.7 116.9 145.7 116.9 L 144.6 116.9 C 144.6 116.9 144.6 112.24 144.6 112.2 C 144.6 111.7 144.5 111.4 144.2 111.1 C 143.9 110.9 143.6 110.8 143.2 110.8 C 142.7 110.8 142.3 111 142 111.3 C 141.8 111.5 141.6 111.9 141.6 112.4 C 141.64 112.37 141.6 116.9 141.6 116.9 L 140.5 116.9 C 140.5 116.9 140.55 112.13 140.5 112.1 C 140.5 111.7 140.4 111.4 140.2 111.2 C 139.9 110.9 139.6 110.8 139.2 110.8 C 138.9 110.8 138.6 110.9 138.4 111 C 138.1 111.2 138 111.4 137.8 111.6 C 137.7 111.9 137.6 112.2 137.6 112.6 C 137.58 112.55 137.6 116.9 137.6 116.9 L 136.5 116.9 Z M 150.6 117.1 C 149.9 117.1 149.3 116.9 148.8 116.6 C 148.3 116.3 148 115.9 147.7 115.4 C 147.4 114.8 147.3 114.2 147.3 113.5 C 147.3 112.8 147.4 112.1 147.7 111.6 C 148 111 148.3 110.6 148.8 110.3 C 149.3 110 149.8 109.8 150.4 109.8 C 150.8 109.8 151.2 109.9 151.5 110 C 151.9 110.1 152.2 110.3 152.5 110.6 C 152.8 110.9 153 111.2 153.2 111.7 C 153.4 112.1 153.4 112.7 153.4 113.3 C 153.44 113.33 153.4 113.8 153.4 113.8 L 148.1 113.8 L 148.1 112.9 C 148.1 112.9 152.35 112.86 152.4 112.9 C 152.4 112.5 152.3 112.1 152.1 111.8 C 152 111.5 151.7 111.3 151.5 111.1 C 151.2 110.9 150.8 110.8 150.4 110.8 C 150 110.8 149.6 110.9 149.3 111.1 C 149 111.3 148.8 111.6 148.6 111.9 C 148.5 112.3 148.4 112.6 148.4 113 C 148.4 113 148.4 113.6 148.4 113.6 C 148.4 114.2 148.5 114.6 148.6 115 C 148.8 115.3 149.1 115.6 149.4 115.8 C 149.7 116 150.1 116.1 150.6 116.1 C 150.8 116.1 151.1 116.1 151.3 116 C 151.5 115.9 151.7 115.8 151.9 115.6 C 152.1 115.5 152.2 115.2 152.3 115 C 152.3 115 153.3 115.3 153.3 115.3 C 153.2 115.6 153 116 152.8 116.2 C 152.5 116.5 152.2 116.7 151.8 116.8 C 151.4 117 151 117.1 150.6 117.1 Z M 156.2 112.7 C 156.16 112.72 156.2 116.9 156.2 116.9 L 155.1 116.9 L 155.1 109.9 L 156.1 109.9 L 156.1 111 C 156.1 111 156.22 111.03 156.2 111 C 156.4 110.7 156.6 110.4 157 110.2 C 157.3 110 157.7 109.8 158.3 109.8 C 158.7 109.8 159.1 109.9 159.5 110.1 C 159.9 110.3 160.1 110.6 160.3 111 C 160.5 111.4 160.6 111.9 160.6 112.5 C 160.62 112.48 160.6 116.9 160.6 116.9 L 159.5 116.9 C 159.5 116.9 159.55 112.55 159.5 112.6 C 159.5 112 159.4 111.6 159.1 111.3 C 158.8 111 158.4 110.8 157.9 110.8 C 157.6 110.8 157.3 110.9 157 111 C 156.8 111.2 156.6 111.4 156.4 111.7 C 156.2 112 156.2 112.3 156.2 112.7 Z M 165.4 109.9 L 165.4 110.8 L 161.8 110.8 L 161.8 109.9 L 165.4 109.9 Z M 162.9 108.3 L 163.9 108.3 C 163.9 108.3 163.95 114.92 163.9 114.9 C 163.9 115.2 164 115.4 164.1 115.6 C 164.2 115.7 164.3 115.8 164.4 115.9 C 164.6 115.9 164.7 116 164.9 116 C 165 116 165.1 116 165.2 116 C 165.2 115.9 165.3 115.9 165.3 115.9 C 165.3 115.9 165.6 116.9 165.6 116.9 C 165.5 116.9 165.4 116.9 165.3 117 C 165.1 117 165 117 164.8 117 C 164.5 117 164.2 116.9 163.9 116.8 C 163.6 116.7 163.3 116.5 163.2 116.2 C 163 115.9 162.9 115.6 162.9 115.2 C 162.87 115.21 162.9 108.3 162.9 108.3 Z M 169.6 117.1 C 169 117.1 168.4 116.9 167.9 116.6 C 167.4 116.3 167 115.9 166.8 115.4 C 166.5 114.8 166.4 114.2 166.4 113.5 C 166.4 112.8 166.5 112.1 166.8 111.6 C 167 111 167.4 110.6 167.9 110.3 C 168.3 110 168.9 109.8 169.5 109.8 C 169.9 109.8 170.3 109.9 170.6 110 C 171 110.1 171.3 110.3 171.6 110.6 C 171.9 110.9 172.1 111.2 172.3 111.7 C 172.4 112.1 172.5 112.7 172.5 113.3 C 172.53 113.33 172.5 113.8 172.5 113.8 L 167.1 113.8 L 167.1 112.9 C 167.1 112.9 171.44 112.86 171.4 112.9 C 171.4 112.5 171.4 112.1 171.2 111.8 C 171 111.5 170.8 111.3 170.5 111.1 C 170.3 110.9 169.9 110.8 169.5 110.8 C 169.1 110.8 168.7 110.9 168.4 111.1 C 168.1 111.3 167.9 111.6 167.7 111.9 C 167.5 112.3 167.5 112.6 167.5 113 C 167.5 113 167.5 113.6 167.5 113.6 C 167.5 114.2 167.5 114.6 167.7 115 C 167.9 115.3 168.2 115.6 168.5 115.8 C 168.8 116 169.2 116.1 169.6 116.1 C 169.9 116.1 170.2 116.1 170.4 116 C 170.6 115.9 170.8 115.8 171 115.6 C 171.2 115.5 171.3 115.2 171.4 115 C 171.4 115 172.4 115.3 172.4 115.3 C 172.3 115.6 172.1 116 171.9 116.2 C 171.6 116.5 171.3 116.7 170.9 116.8 C 170.5 117 170.1 117.1 169.6 117.1 Z M 176.8 117.1 C 176.2 117.1 175.7 116.9 175.3 116.6 C 174.8 116.3 174.5 115.9 174.2 115.4 C 174 114.8 173.8 114.2 173.8 113.4 C 173.8 112.7 174 112.1 174.2 111.5 C 174.5 111 174.8 110.6 175.3 110.3 C 175.7 110 176.2 109.8 176.8 109.8 C 177.3 109.8 177.6 109.9 177.9 110.1 C 178.2 110.2 178.4 110.4 178.5 110.6 C 178.6 110.8 178.8 110.9 178.8 111 C 178.84 111.04 178.9 111 178.9 111 L 178.9 107.6 L 180 107.6 L 180 116.9 L 179 116.9 L 179 115.8 C 179 115.8 178.84 115.84 178.8 115.8 C 178.8 116 178.6 116.1 178.5 116.3 C 178.4 116.5 178.1 116.7 177.9 116.8 C 177.6 117 177.2 117.1 176.8 117.1 Z M 176.9 116.1 C 177.4 116.1 177.7 116 178 115.8 C 178.3 115.5 178.6 115.2 178.7 114.8 C 178.9 114.4 178.9 114 178.9 113.4 C 178.9 112.9 178.9 112.4 178.7 112.1 C 178.6 111.7 178.3 111.4 178 111.1 C 177.7 110.9 177.4 110.8 176.9 110.8 C 176.5 110.8 176.1 110.9 175.8 111.2 C 175.5 111.4 175.3 111.7 175.1 112.1 C 175 112.5 174.9 112.9 174.9 113.4 C 174.9 113.9 175 114.4 175.1 114.8 C 175.3 115.2 175.5 115.5 175.8 115.7 C 176.1 116 176.5 116.1 176.9 116.1 Z " stroke="none" fill="#10283d"/>  </g>  <g id="Polygon110585">    <path d="M 52.9 92.8 C 52.1 92.8 51.4 92.6 50.8 92.3 C 50.2 92 49.7 91.5 49.4 91 C 49.1 90.4 49.1 89.7 49.2 88.8 C 49.3 88.2 49.5 87.6 49.8 87.2 C 50.2 86.7 50.6 86.4 51.1 86.1 C 51.6 85.8 52.1 85.6 52.8 85.4 C 53.4 85.2 54.1 85.1 54.8 85 C 55.6 84.9 56.2 84.9 56.7 84.8 C 57.3 84.7 57.7 84.6 58 84.5 C 58.3 84.3 58.4 84.1 58.5 83.8 C 58.5 83.8 58.5 83.4 58.5 83.4 C 58.7 82.6 58.6 81.9 58.1 81.3 C 57.7 80.8 57 80.6 56 80.6 C 55.1 80.6 54.3 80.8 53.6 81.2 C 52.9 81.6 52.4 82.1 52 82.7 C 52 82.7 50.7 82.1 50.7 82.1 C 51.1 81.4 51.6 80.8 52.2 80.4 C 52.8 80 53.4 79.7 54.1 79.5 C 54.8 79.3 55.5 79.2 56.1 79.2 C 56.6 79.2 57.1 79.3 57.7 79.4 C 58.2 79.5 58.6 79.8 59.1 80.1 C 59.5 80.4 59.8 80.8 60 81.4 C 60.2 82 60.2 82.7 60 83.6 C 60.03 83.58 58.6 92.5 58.6 92.5 L 57 92.5 L 57.4 90.4 C 57.4 90.4 57.3 90.4 57.3 90.4 C 57.1 90.8 56.7 91.2 56.3 91.5 C 55.9 91.9 55.4 92.2 54.8 92.4 C 54.2 92.7 53.6 92.8 52.9 92.8 Z M 53.2 91.4 C 54 91.4 54.8 91.2 55.4 90.8 C 56.1 90.5 56.6 90 57.1 89.4 C 57.5 88.8 57.8 88.2 57.9 87.5 C 57.9 87.5 58.2 85.6 58.2 85.6 C 58.1 85.7 57.9 85.8 57.6 85.8 C 57.3 85.9 57 86 56.6 86.1 C 56.3 86.1 55.9 86.2 55.6 86.2 C 55.2 86.3 54.9 86.3 54.6 86.4 C 53.9 86.5 53.2 86.6 52.7 86.8 C 52.1 87 51.7 87.2 51.3 87.6 C 51 87.9 50.8 88.4 50.7 88.9 C 50.6 89.7 50.8 90.3 51.2 90.7 C 51.7 91.2 52.4 91.4 53.2 91.4 Z M 65.4 84.3 C 65.36 84.29 64 92.5 64 92.5 L 62.5 92.5 L 64.7 79.4 L 66.1 79.4 L 65.8 81.4 C 65.8 81.4 65.94 81.43 65.9 81.4 C 66.3 80.8 66.9 80.2 67.6 79.8 C 68.4 79.4 69.2 79.2 70.2 79.2 C 71 79.2 71.8 79.4 72.4 79.8 C 73 80.1 73.4 80.7 73.7 81.4 C 73.9 82.1 74 83 73.8 84 C 73.81 83.99 72.4 92.5 72.4 92.5 L 70.9 92.5 C 70.9 92.5 72.27 84.08 72.3 84.1 C 72.4 83 72.3 82.2 71.8 81.5 C 71.3 80.9 70.6 80.6 69.6 80.6 C 68.9 80.6 68.2 80.7 67.6 81 C 67.1 81.3 66.6 81.8 66.2 82.3 C 65.8 82.9 65.5 83.5 65.4 84.3 Z M 75.9 97.4 C 75.6 97.4 75.3 97.4 75 97.3 C 74.8 97.2 74.6 97.2 74.4 97.1 C 74.4 97.1 75.1 95.8 75.1 95.8 C 75.6 95.9 76 96 76.4 95.9 C 76.8 95.9 77.2 95.7 77.5 95.3 C 77.9 95 78.3 94.5 78.6 93.9 C 78.62 93.87 79.3 92.5 79.3 92.5 L 76.7 79.4 L 78.3 79.4 L 80.4 90.5 L 80.5 90.5 L 86.2 79.4 L 87.9 79.4 C 87.9 79.4 79.87 94.53 79.9 94.5 C 79.5 95.2 79.1 95.7 78.7 96.1 C 78.3 96.6 77.9 96.9 77.4 97.1 C 76.9 97.3 76.4 97.4 75.9 97.4 Z M 96.2 79.4 L 96 80.7 L 89.7 80.7 L 89.9 79.4 L 96.2 79.4 Z M 92.4 76.2 L 93.9 76.2 C 93.9 76.2 91.79 89.05 91.8 89.1 C 91.7 89.6 91.7 90 91.9 90.3 C 92 90.6 92.2 90.9 92.5 91 C 92.8 91.1 93.1 91.2 93.4 91.2 C 93.6 91.2 93.8 91.2 93.9 91.1 C 94.1 91.1 94.2 91.1 94.3 91.1 C 94.3 91.1 94.4 92.4 94.4 92.4 C 94.3 92.5 94.1 92.5 93.8 92.6 C 93.6 92.6 93.3 92.7 93 92.7 C 92.5 92.7 92 92.5 91.5 92.3 C 91 92.1 90.7 91.7 90.4 91.2 C 90.2 90.7 90.1 90.1 90.2 89.4 C 90.22 89.41 92.4 76.2 92.4 76.2 Z M 99.8 84.3 C 99.83 84.29 98.5 92.5 98.5 92.5 L 97 92.5 L 99.9 75 L 101.4 75 L 100.3 81.4 C 100.3 81.4 100.45 81.43 100.5 81.4 C 100.9 80.8 101.4 80.2 102.1 79.8 C 102.9 79.4 103.7 79.2 104.7 79.2 C 105.6 79.2 106.3 79.4 106.9 79.8 C 107.6 80.1 108 80.7 108.2 81.4 C 108.5 82.1 108.6 83 108.4 84 C 108.38 83.99 107 92.5 107 92.5 L 105.4 92.5 C 105.4 92.5 106.83 84.08 106.8 84.1 C 107 83 106.8 82.2 106.4 81.5 C 105.9 80.9 105.1 80.6 104.1 80.6 C 103.4 80.6 102.8 80.7 102.2 81 C 101.6 81.3 101.1 81.8 100.6 82.3 C 100.2 82.9 100 83.5 99.8 84.3 Z M 110.9 92.5 L 113 79.4 L 114.6 79.4 L 112.4 92.5 L 110.9 92.5 Z M 114.3 77.1 C 114 77.1 113.8 77 113.5 76.8 C 113.3 76.6 113.2 76.3 113.2 76 C 113.2 75.7 113.4 75.4 113.6 75.2 C 113.8 75 114.1 74.9 114.4 74.9 C 114.7 74.9 115 75 115.2 75.3 C 115.4 75.5 115.5 75.7 115.5 76 C 115.5 76.3 115.4 76.6 115.1 76.8 C 114.9 77 114.7 77.1 114.3 77.1 Z M 119.3 84.3 C 119.33 84.29 118 92.5 118 92.5 L 116.5 92.5 L 118.6 79.4 L 120.1 79.4 L 119.8 81.4 C 119.8 81.4 119.91 81.43 119.9 81.4 C 120.3 80.8 120.9 80.2 121.6 79.8 C 122.3 79.4 123.2 79.2 124.1 79.2 C 125 79.2 125.8 79.4 126.4 79.8 C 127 80.1 127.4 80.7 127.7 81.4 C 127.9 82.1 128 83 127.8 84 C 127.79 83.99 126.4 92.5 126.4 92.5 L 124.8 92.5 C 124.8 92.5 126.24 84.08 126.2 84.1 C 126.4 83 126.3 82.2 125.8 81.5 C 125.3 80.9 124.5 80.6 123.5 80.6 C 122.8 80.6 122.2 80.7 121.6 81 C 121 81.3 120.5 81.8 120.1 82.3 C 119.7 82.9 119.5 83.5 119.3 84.3 Z M 134.3 97.7 C 133.5 97.7 132.7 97.5 132.1 97.3 C 131.4 97.1 130.9 96.8 130.5 96.4 C 130.1 96 129.8 95.5 129.6 95 C 129.6 95 131 94.2 131 94.2 C 131.2 94.5 131.3 94.9 131.6 95.2 C 131.9 95.5 132.2 95.8 132.7 96 C 133.1 96.2 133.8 96.3 134.5 96.3 C 135.7 96.3 136.7 96 137.5 95.4 C 138.3 94.8 138.8 93.9 139 92.7 C 139.03 92.72 139.5 89.8 139.5 89.8 C 139.5 89.8 139.36 89.77 139.4 89.8 C 139.1 90.2 138.8 90.6 138.4 91 C 138 91.4 137.5 91.7 137 91.9 C 136.4 92.2 135.7 92.3 134.9 92.3 C 133.9 92.3 133 92.1 132.3 91.6 C 131.5 91 131 90.3 130.7 89.3 C 130.4 88.4 130.4 87.2 130.6 85.9 C 130.8 84.6 131.2 83.4 131.9 82.4 C 132.5 81.4 133.2 80.6 134.1 80 C 135.1 79.5 136 79.2 137.1 79.2 C 137.9 79.2 138.6 79.3 139.1 79.6 C 139.5 79.9 139.9 80.3 140.2 80.7 C 140.4 81.1 140.6 81.5 140.7 81.9 C 140.71 81.88 140.9 81.9 140.9 81.9 L 141.3 79.4 L 142.8 79.4 C 142.8 79.4 140.53 92.81 140.5 92.8 C 140.3 93.9 140 94.8 139.4 95.5 C 138.8 96.3 138.1 96.8 137.2 97.1 C 136.3 97.5 135.4 97.7 134.3 97.7 Z M 135.3 90.9 C 136.1 90.9 136.9 90.7 137.5 90.3 C 138.2 89.9 138.8 89.3 139.2 88.6 C 139.7 87.8 140 86.9 140.2 85.9 C 140.4 84.8 140.3 83.9 140.2 83.1 C 140 82.3 139.6 81.7 139.1 81.3 C 138.6 80.8 137.9 80.6 137 80.6 C 136.1 80.6 135.4 80.8 134.7 81.3 C 134 81.8 133.5 82.4 133 83.2 C 132.6 84 132.3 84.9 132.1 85.9 C 132 86.9 132 87.7 132.2 88.5 C 132.3 89.3 132.7 89.9 133.2 90.3 C 133.7 90.7 134.4 90.9 135.3 90.9 Z " stroke="none" fill="#10283d"/>  </g>  <g id="Polygon110584">    <path d="M 23.1 70.9 L 23.1 55.2 C 23.1 55.2 29.62 55.23 29.6 55.2 C 30.8 55.2 31.8 55.5 32.7 55.9 C 33.5 56.4 34.2 57 34.6 57.8 C 35.1 58.6 35.3 59.6 35.3 60.7 C 35.3 61.7 35.1 62.7 34.6 63.5 C 34.2 64.3 33.5 64.9 32.6 65.4 C 31.7 65.8 30.7 66.1 29.5 66.1 C 29.5 66.06 25.5 66.1 25.5 66.1 L 25.5 63.1 C 25.5 63.1 28.8 63.07 28.8 63.1 C 29.4 63.1 29.8 63 30.2 62.8 C 30.6 62.6 30.9 62.3 31.1 61.9 C 31.3 61.6 31.4 61.1 31.4 60.7 C 31.4 60.2 31.3 59.8 31.1 59.4 C 30.9 59 30.6 58.8 30.2 58.6 C 29.8 58.4 29.4 58.3 28.8 58.3 C 28.8 58.29 26.9 58.3 26.9 58.3 L 26.9 70.9 L 23.1 70.9 Z M 37.1 70.9 L 37.1 55.2 C 37.1 55.2 43.63 55.23 43.6 55.2 C 44.8 55.2 45.8 55.4 46.7 55.9 C 47.5 56.3 48.2 56.9 48.7 57.7 C 49.1 58.5 49.4 59.4 49.4 60.5 C 49.4 61.5 49.1 62.5 48.6 63.2 C 48.2 64 47.5 64.6 46.6 65 C 45.7 65.4 44.7 65.6 43.5 65.6 C 43.51 65.56 39.4 65.6 39.4 65.6 L 39.4 62.6 C 39.4 62.6 42.81 62.57 42.8 62.6 C 43.4 62.6 43.9 62.5 44.2 62.3 C 44.6 62.2 44.9 62 45.1 61.7 C 45.3 61.3 45.4 60.9 45.4 60.5 C 45.4 60 45.3 59.6 45.1 59.2 C 44.9 58.9 44.6 58.7 44.2 58.5 C 43.9 58.4 43.4 58.3 42.8 58.3 C 42.81 58.29 40.9 58.3 40.9 58.3 L 40.9 70.9 L 37.1 70.9 Z M 46 63.8 L 49.9 70.9 L 45.8 70.9 L 41.9 63.8 L 46 63.8 Z M 51.7 70.9 L 51.7 55.2 L 62.7 55.2 L 62.7 58.3 L 55.5 58.3 L 55.5 61.5 L 62.1 61.5 L 62.1 64.6 L 55.5 64.6 L 55.5 67.9 L 62.7 67.9 L 62.7 70.9 L 51.7 70.9 Z M 65.2 70.9 L 65.2 55.2 C 65.2 55.2 71.74 55.23 71.7 55.2 C 72.9 55.2 73.9 55.5 74.8 55.9 C 75.6 56.4 76.3 57 76.8 57.8 C 77.2 58.6 77.5 59.6 77.5 60.7 C 77.5 61.7 77.2 62.7 76.8 63.5 C 76.3 64.3 75.6 64.9 74.7 65.4 C 73.9 65.8 72.8 66.1 71.6 66.1 C 71.62 66.06 67.6 66.1 67.6 66.1 L 67.6 63.1 C 67.6 63.1 70.91 63.07 70.9 63.1 C 71.5 63.1 72 63 72.4 62.8 C 72.7 62.6 73 62.3 73.2 61.9 C 73.4 61.6 73.5 61.1 73.5 60.7 C 73.5 60.2 73.4 59.8 73.2 59.4 C 73 59 72.7 58.8 72.3 58.6 C 72 58.4 71.5 58.3 70.9 58.3 C 70.91 58.29 69 58.3 69 58.3 L 69 70.9 L 65.2 70.9 Z M 81.5 70.9 L 77.5 70.9 L 82.8 55.2 L 87.8 55.2 L 93.1 70.9 L 89 70.9 L 85.3 59.2 L 85.2 59.2 L 81.5 70.9 Z M 81 64.8 L 89.5 64.8 L 89.5 67.6 L 81 67.6 L 81 64.8 Z M 94.9 70.9 L 94.9 55.2 C 94.9 55.2 101.36 55.23 101.4 55.2 C 102.5 55.2 103.6 55.4 104.4 55.9 C 105.3 56.3 105.9 56.9 106.4 57.7 C 106.9 58.5 107.1 59.4 107.1 60.5 C 107.1 61.5 106.9 62.5 106.4 63.2 C 105.9 64 105.2 64.6 104.4 65 C 103.5 65.4 102.4 65.6 101.2 65.6 C 101.25 65.56 97.1 65.6 97.1 65.6 L 97.1 62.6 C 97.1 62.6 100.54 62.57 100.5 62.6 C 101.1 62.6 101.6 62.5 102 62.3 C 102.4 62.2 102.7 62 102.9 61.7 C 103.1 61.3 103.2 60.9 103.2 60.5 C 103.2 60 103.1 59.6 102.9 59.2 C 102.7 58.9 102.4 58.7 102 58.5 C 101.6 58.4 101.1 58.3 100.5 58.3 C 100.54 58.29 98.7 58.3 98.7 58.3 L 98.7 70.9 L 94.9 70.9 Z M 103.7 63.8 L 107.6 70.9 L 103.5 70.9 L 99.7 63.8 L 103.7 63.8 Z M 109.5 70.9 L 109.5 55.2 L 120.4 55.2 L 120.4 58.3 L 113.3 58.3 L 113.3 61.5 L 119.8 61.5 L 119.8 64.6 L 113.3 64.6 L 113.3 67.9 L 120.4 67.9 L 120.4 70.9 L 109.5 70.9 Z M 127.4 70.9 L 127.4 55.2 L 138.2 55.2 L 138.2 58.3 L 131.2 58.3 L 131.2 61.5 L 137.5 61.5 L 137.5 64.6 L 131.2 64.6 L 131.2 70.9 L 127.4 70.9 Z M 154.6 63.1 C 154.6 64.8 154.2 66.3 153.6 67.5 C 152.9 68.7 152 69.6 150.9 70.2 C 149.7 70.8 148.5 71.2 147.1 71.2 C 145.7 71.2 144.4 70.8 143.3 70.2 C 142.1 69.6 141.2 68.7 140.6 67.5 C 139.9 66.3 139.6 64.8 139.6 63.1 C 139.6 61.4 139.9 59.9 140.6 58.7 C 141.2 57.5 142.1 56.6 143.3 55.9 C 144.4 55.3 145.7 55 147.1 55 C 148.5 55 149.7 55.3 150.9 55.9 C 152 56.6 152.9 57.5 153.6 58.7 C 154.2 59.9 154.6 61.4 154.6 63.1 Z M 150.7 63.1 C 150.7 62.1 150.5 61.2 150.3 60.5 C 150 59.8 149.6 59.2 149 58.9 C 148.5 58.5 147.8 58.3 147.1 58.3 C 146.3 58.3 145.7 58.5 145.1 58.9 C 144.6 59.2 144.2 59.8 143.9 60.5 C 143.6 61.2 143.5 62.1 143.5 63.1 C 143.5 64.1 143.6 65 143.9 65.7 C 144.2 66.4 144.6 66.9 145.1 67.3 C 145.7 67.6 146.3 67.8 147.1 67.8 C 147.8 67.8 148.5 67.6 149 67.3 C 149.6 66.9 150 66.4 150.3 65.7 C 150.5 65 150.7 64.1 150.7 63.1 Z M 157 70.9 L 157 55.2 C 157 55.2 163.44 55.23 163.4 55.2 C 164.6 55.2 165.6 55.4 166.5 55.9 C 167.3 56.3 168 56.9 168.5 57.7 C 168.9 58.5 169.2 59.4 169.2 60.5 C 169.2 61.5 168.9 62.5 168.5 63.2 C 168 64 167.3 64.6 166.4 65 C 165.6 65.4 164.5 65.6 163.3 65.6 C 163.33 65.56 159.2 65.6 159.2 65.6 L 159.2 62.6 C 159.2 62.6 162.62 62.57 162.6 62.6 C 163.2 62.6 163.7 62.5 164.1 62.3 C 164.4 62.2 164.7 62 164.9 61.7 C 165.1 61.3 165.2 60.9 165.2 60.5 C 165.2 60 165.1 59.6 164.9 59.2 C 164.7 58.9 164.4 58.7 164.1 58.5 C 163.7 58.4 163.2 58.3 162.6 58.3 C 162.62 58.29 160.7 58.3 160.7 58.3 L 160.7 70.9 L 157 70.9 Z M 165.8 63.8 L 169.7 70.9 L 165.6 70.9 L 161.7 63.8 L 165.8 63.8 Z " stroke="none" fill="#10283d"/>  </g>  <g id="Polygon110583">    <path d="M 33.4 31 L 33.4 7.7 C 33.4 7.7 42.53 7.73 42.5 7.7 C 44.3 7.7 45.8 8.1 47 8.7 C 48.3 9.4 49.2 10.3 49.9 11.5 C 50.5 12.7 50.9 14.1 50.9 15.6 C 50.9 17.2 50.5 18.5 49.9 19.7 C 49.2 20.9 48.2 21.8 47 22.5 C 45.7 23.1 44.2 23.5 42.4 23.5 C 42.41 23.45 36.6 23.5 36.6 23.5 L 36.6 19.5 C 36.6 19.5 41.61 19.51 41.6 19.5 C 42.6 19.5 43.3 19.3 44 19 C 44.6 18.7 45 18.2 45.3 17.6 C 45.7 17.1 45.8 16.4 45.8 15.6 C 45.8 14.8 45.7 14.2 45.3 13.6 C 45 13 44.6 12.6 44 12.2 C 43.3 11.9 42.5 11.8 41.6 11.8 C 41.59 11.75 38.3 11.8 38.3 11.8 L 38.3 31 L 33.4 31 Z M 53.6 31 L 53.6 13.5 L 58.5 13.5 L 58.5 31 L 53.6 31 Z M 56.1 11.3 C 55.3 11.3 54.7 11.1 54.2 10.6 C 53.7 10.1 53.4 9.5 53.4 8.9 C 53.4 8.2 53.7 7.6 54.2 7.1 C 54.7 6.6 55.4 6.4 56.1 6.4 C 56.8 6.4 57.4 6.6 57.9 7.1 C 58.4 7.6 58.7 8.2 58.7 8.8 C 58.7 9.5 58.4 10.1 57.9 10.6 C 57.4 11.1 56.8 11.3 56.1 11.3 Z M 70.1 37.9 C 68.5 37.9 67.2 37.7 66 37.3 C 64.9 36.8 64 36.3 63.4 35.5 C 62.7 34.8 62.3 34 62.1 33 C 62.1 33 66.6 32.4 66.6 32.4 C 66.7 32.8 66.9 33.1 67.2 33.4 C 67.5 33.7 67.9 34 68.4 34.2 C 68.9 34.3 69.5 34.4 70.2 34.4 C 71.2 34.4 72.1 34.2 72.8 33.7 C 73.5 33.2 73.8 32.3 73.8 31.1 C 73.82 31.1 73.8 27.9 73.8 27.9 C 73.8 27.9 73.62 27.91 73.6 27.9 C 73.4 28.4 73.1 28.9 72.7 29.3 C 72.2 29.7 71.7 30.1 71 30.3 C 70.4 30.6 69.6 30.8 68.6 30.8 C 67.3 30.8 66.1 30.4 65.1 29.8 C 64 29.2 63.1 28.3 62.5 27 C 61.9 25.8 61.6 24.2 61.6 22.2 C 61.6 20.3 61.9 18.6 62.5 17.3 C 63.2 16 64 15 65.1 14.3 C 66.2 13.6 67.3 13.3 68.6 13.3 C 69.6 13.3 70.4 13.5 71.1 13.8 C 71.7 14.1 72.3 14.6 72.7 15 C 73.1 15.5 73.4 16 73.6 16.5 C 73.62 16.48 73.8 16.5 73.8 16.5 L 73.8 13.5 L 78.6 13.5 C 78.6 13.5 78.6 31.17 78.6 31.2 C 78.6 32.7 78.2 33.9 77.5 34.9 C 76.8 35.9 75.8 36.6 74.5 37.2 C 73.2 37.7 71.7 37.9 70.1 37.9 Z M 70.2 27.1 C 71 27.1 71.6 26.9 72.2 26.5 C 72.7 26.1 73.1 25.6 73.4 24.8 C 73.7 24.1 73.8 23.2 73.8 22.2 C 73.8 21.2 73.7 20.3 73.4 19.6 C 73.1 18.8 72.7 18.2 72.2 17.8 C 71.6 17.4 71 17.2 70.2 17.2 C 69.4 17.2 68.7 17.4 68.2 17.8 C 67.6 18.2 67.2 18.8 66.9 19.6 C 66.6 20.3 66.5 21.2 66.5 22.2 C 66.5 23.2 66.6 24.1 66.9 24.8 C 67.2 25.6 67.6 26.1 68.2 26.5 C 68.7 26.9 69.4 27.1 70.2 27.1 Z M 82.5 31 L 82.5 13.5 L 87.1 13.5 L 87.1 16.6 C 87.1 16.6 87.31 16.63 87.3 16.6 C 87.7 15.6 88.3 14.8 89.1 14.2 C 90 13.6 91 13.3 92.2 13.3 C 93.4 13.3 94.4 13.6 95.2 14.2 C 96.1 14.8 96.6 15.6 96.9 16.6 C 96.9 16.6 97.1 16.6 97.1 16.6 C 97.4 15.6 98.1 14.8 99 14.2 C 100 13.6 101.1 13.3 102.4 13.3 C 104 13.3 105.3 13.8 106.3 14.9 C 107.3 15.9 107.9 17.4 107.9 19.3 C 107.85 19.26 107.9 31 107.9 31 L 103 31 C 103 31 103.02 20.22 103 20.2 C 103 19.2 102.8 18.5 102.3 18 C 101.7 17.5 101.1 17.3 100.3 17.3 C 99.4 17.3 98.8 17.6 98.3 18.1 C 97.8 18.7 97.5 19.4 97.5 20.3 C 97.52 20.34 97.5 31 97.5 31 L 92.8 31 C 92.8 31 92.83 20.11 92.8 20.1 C 92.8 19.3 92.6 18.6 92.1 18.1 C 91.6 17.6 91 17.3 90.2 17.3 C 89.6 17.3 89.2 17.4 88.7 17.7 C 88.3 18 88 18.4 87.7 18.8 C 87.5 19.3 87.3 19.9 87.3 20.5 C 87.33 20.52 87.3 31 87.3 31 L 82.5 31 Z M 119.5 31.3 C 117.7 31.3 116.2 31 114.9 30.2 C 113.6 29.5 112.6 28.5 111.9 27.1 C 111.2 25.8 110.8 24.2 110.8 22.4 C 110.8 20.6 111.2 19 111.9 17.6 C 112.6 16.3 113.6 15.2 114.8 14.5 C 116.1 13.7 117.6 13.3 119.3 13.3 C 120.5 13.3 121.5 13.5 122.5 13.9 C 123.5 14.2 124.4 14.8 125.1 15.5 C 125.9 16.3 126.5 17.2 126.9 18.3 C 127.3 19.4 127.5 20.7 127.5 22.2 C 127.51 22.18 127.5 23.5 127.5 23.5 L 112.8 23.5 L 112.8 20.5 C 112.8 20.5 122.95 20.51 123 20.5 C 123 19.8 122.8 19.2 122.5 18.7 C 122.2 18.1 121.8 17.7 121.2 17.4 C 120.7 17.1 120.1 16.9 119.4 16.9 C 118.6 16.9 118 17.1 117.4 17.4 C 116.9 17.8 116.4 18.2 116.1 18.8 C 115.8 19.4 115.6 20 115.6 20.7 C 115.6 20.7 115.6 23.5 115.6 23.5 C 115.6 24.4 115.8 25.1 116.1 25.8 C 116.4 26.4 116.9 26.9 117.5 27.2 C 118.1 27.6 118.8 27.7 119.6 27.7 C 120.1 27.7 120.6 27.7 121.1 27.5 C 121.5 27.3 121.9 27.1 122.2 26.8 C 122.5 26.5 122.8 26.1 122.9 25.7 C 122.9 25.7 127.4 26 127.4 26 C 127.2 27.1 126.7 28 126 28.8 C 125.3 29.6 124.4 30.2 123.3 30.7 C 122.2 31.1 120.9 31.3 119.5 31.3 Z M 135.5 20.9 C 135.53 20.91 135.5 31 135.5 31 L 130.7 31 L 130.7 13.5 L 135.3 13.5 L 135.3 16.6 C 135.3 16.6 135.5 16.63 135.5 16.6 C 135.9 15.6 136.5 14.8 137.4 14.2 C 138.4 13.6 139.5 13.3 140.8 13.3 C 142 13.3 143 13.6 143.9 14.1 C 144.8 14.6 145.5 15.4 146 16.4 C 146.5 17.4 146.8 18.5 146.8 19.9 C 146.78 19.89 146.8 31 146.8 31 L 141.9 31 C 141.9 31 141.94 20.75 141.9 20.8 C 141.9 19.7 141.7 18.8 141.1 18.2 C 140.6 17.6 139.8 17.3 138.8 17.3 C 138.2 17.3 137.6 17.5 137.1 17.8 C 136.6 18 136.2 18.4 136 19 C 135.7 19.5 135.5 20.2 135.5 20.9 Z M 159.5 13.5 L 159.5 17.2 L 148.9 17.2 L 148.9 13.5 L 159.5 13.5 Z M 151.3 9.4 L 156.2 9.4 C 156.2 9.4 156.17 25.64 156.2 25.6 C 156.2 26.1 156.2 26.4 156.4 26.7 C 156.5 26.9 156.7 27.1 156.9 27.2 C 157.2 27.3 157.5 27.3 157.8 27.3 C 158 27.3 158.3 27.3 158.5 27.3 C 158.7 27.2 158.9 27.2 159 27.2 C 159 27.2 159.8 30.8 159.8 30.8 C 159.5 30.9 159.2 30.9 158.7 31.1 C 158.3 31.2 157.8 31.2 157.1 31.2 C 156 31.3 155 31.1 154.1 30.8 C 153.2 30.4 152.5 29.9 152 29.1 C 151.6 28.4 151.3 27.4 151.3 26.3 C 151.33 26.27 151.3 9.4 151.3 9.4 Z " stroke="none" fill="#10283d"/>  </g></svg>