<?xml version="1.0" standalone="no"?><!DOCTYPE svg PUBLIC "-//W3C//DTD SVG 1.1//EN" "http://www.w3.org/Graphics/SVG/1.1/DTD/svg11.dtd"><svg xmlns="http://www.w3.org/2000/svg" version="1.1" width="275px" height="34.8px" viewBox="0 -8 275 34.8" style="top:-8px">  <desc>Recognizing AI hype</desc>  <defs/>  <g id="Polygon106060">    <path d="M 1.3 14.5 L 1.3 0 C 1.3 0 7 0 7 0 C 8.1 0 9 0.2 9.8 0.6 C 10.6 1 11.2 1.5 11.6 2.2 C 12 3 12.2 3.8 12.2 4.8 C 12.2 5.7 12 6.5 11.6 7.2 C 11.2 7.9 10.6 8.5 9.8 8.8 C 9 9.2 8 9.4 6.9 9.4 C 6.92 9.39 3.1 9.4 3.1 9.4 L 3.1 6.9 C 3.1 6.9 6.43 6.92 6.4 6.9 C 7 6.9 7.5 6.8 7.9 6.7 C 8.3 6.5 8.6 6.3 8.8 6 C 9 5.6 9 5.2 9 4.8 C 9 4.3 9 3.9 8.8 3.5 C 8.6 3.2 8.3 2.9 7.9 2.8 C 7.5 2.6 7 2.5 6.4 2.5 C 6.41 2.51 4.3 2.5 4.3 2.5 L 4.3 14.5 L 1.3 14.5 Z M 9.1 7.9 L 12.7 14.5 L 9.3 14.5 L 5.8 7.9 L 9.1 7.9 Z M 19.2 14.8 C 18.1 14.8 17.1 14.5 16.3 14.1 C 15.5 13.6 14.9 13 14.5 12.1 C 14 11.3 13.8 10.3 13.8 9.1 C 13.8 8 14 7 14.5 6.2 C 14.9 5.3 15.5 4.7 16.3 4.2 C 17.1 3.7 18 3.5 19.1 3.5 C 19.8 3.5 20.5 3.6 21.1 3.8 C 21.7 4.1 22.3 4.4 22.7 4.9 C 23.2 5.3 23.6 5.9 23.8 6.6 C 24.1 7.3 24.2 8.1 24.2 9 C 24.23 9.03 24.2 9.9 24.2 9.9 L 15 9.9 L 15 8 C 15 8 21.38 7.99 21.4 8 C 21.4 7.6 21.3 7.2 21.1 6.8 C 20.9 6.5 20.6 6.2 20.3 6 C 20 5.8 19.6 5.8 19.1 5.8 C 18.7 5.8 18.3 5.9 17.9 6.1 C 17.6 6.3 17.3 6.6 17.1 6.9 C 16.9 7.3 16.8 7.7 16.8 8.1 C 16.8 8.1 16.8 9.9 16.8 9.9 C 16.8 10.4 16.9 10.9 17.1 11.3 C 17.3 11.7 17.6 12 18 12.2 C 18.3 12.4 18.8 12.5 19.3 12.5 C 19.6 12.5 19.9 12.5 20.2 12.4 C 20.5 12.3 20.7 12.1 20.9 11.9 C 21.1 11.7 21.3 11.5 21.4 11.2 C 21.4 11.2 24.2 11.4 24.2 11.4 C 24 12.1 23.7 12.7 23.3 13.2 C 22.9 13.7 22.3 14.1 21.6 14.3 C 20.9 14.6 20.1 14.8 19.2 14.8 Z M 31.1 14.8 C 30 14.8 29 14.5 28.2 14 C 27.4 13.6 26.8 12.9 26.4 12.1 C 26 11.2 25.8 10.2 25.8 9.1 C 25.8 8 26 7 26.4 6.2 C 26.8 5.3 27.5 4.7 28.3 4.2 C 29.1 3.7 30 3.5 31.1 3.5 C 32.1 3.5 32.9 3.7 33.6 4 C 34.3 4.4 34.9 4.8 35.3 5.5 C 35.7 6.1 36 6.8 36 7.7 C 36 7.7 33.1 7.7 33.1 7.7 C 33.1 7.1 32.8 6.7 32.5 6.4 C 32.2 6 31.7 5.9 31.2 5.9 C 30.7 5.9 30.3 6 29.9 6.2 C 29.6 6.5 29.3 6.9 29.1 7.3 C 28.9 7.8 28.8 8.4 28.8 9.1 C 28.8 9.8 28.9 10.4 29.1 10.9 C 29.3 11.4 29.6 11.7 29.9 12 C 30.3 12.2 30.7 12.4 31.2 12.4 C 31.5 12.4 31.8 12.3 32.1 12.2 C 32.4 12 32.6 11.8 32.8 11.5 C 33 11.3 33.1 10.9 33.1 10.5 C 33.1 10.5 36 10.5 36 10.5 C 35.9 11.4 35.7 12.1 35.3 12.7 C 34.9 13.4 34.4 13.9 33.6 14.2 C 32.9 14.6 32.1 14.8 31.1 14.8 Z M 42.8 14.8 C 41.7 14.8 40.7 14.5 39.9 14.1 C 39.1 13.6 38.5 12.9 38.1 12.1 C 37.6 11.2 37.4 10.3 37.4 9.1 C 37.4 8 37.6 7 38.1 6.2 C 38.5 5.3 39.1 4.7 39.9 4.2 C 40.7 3.7 41.7 3.5 42.8 3.5 C 43.9 3.5 44.8 3.7 45.7 4.2 C 46.5 4.7 47.1 5.3 47.5 6.2 C 47.9 7 48.2 8 48.2 9.1 C 48.2 10.3 47.9 11.2 47.5 12.1 C 47.1 12.9 46.5 13.6 45.7 14.1 C 44.8 14.5 43.9 14.8 42.8 14.8 Z M 42.8 12.4 C 43.3 12.4 43.7 12.3 44.1 12 C 44.4 11.7 44.7 11.3 44.8 10.8 C 45 10.3 45.1 9.7 45.1 9.1 C 45.1 8.5 45 7.9 44.8 7.4 C 44.7 6.9 44.4 6.5 44.1 6.2 C 43.7 5.9 43.3 5.8 42.8 5.8 C 42.3 5.8 41.9 5.9 41.5 6.2 C 41.2 6.5 40.9 6.9 40.8 7.4 C 40.6 7.9 40.5 8.5 40.5 9.1 C 40.5 9.7 40.6 10.3 40.8 10.8 C 40.9 11.3 41.2 11.7 41.5 12 C 41.9 12.3 42.3 12.4 42.8 12.4 Z M 55 18.9 C 54 18.9 53.2 18.7 52.5 18.5 C 51.8 18.2 51.3 17.8 50.8 17.4 C 50.4 16.9 50.2 16.4 50 15.8 C 50 15.8 52.8 15.4 52.8 15.4 C 52.9 15.7 53.1 15.9 53.2 16.1 C 53.4 16.2 53.7 16.4 54 16.5 C 54.3 16.6 54.7 16.7 55.1 16.7 C 55.8 16.7 56.3 16.5 56.7 16.2 C 57.2 15.9 57.4 15.4 57.4 14.6 C 57.37 14.61 57.4 12.6 57.4 12.6 C 57.4 12.6 57.24 12.61 57.2 12.6 C 57.1 12.9 56.9 13.2 56.6 13.5 C 56.4 13.7 56 14 55.6 14.1 C 55.2 14.3 54.7 14.4 54.1 14.4 C 53.3 14.4 52.6 14.2 51.9 13.8 C 51.2 13.4 50.7 12.9 50.3 12.1 C 49.9 11.3 49.7 10.3 49.7 9.1 C 49.7 7.8 49.9 6.8 50.3 6 C 50.7 5.1 51.3 4.5 51.9 4.1 C 52.6 3.7 53.3 3.5 54.1 3.5 C 54.7 3.5 55.2 3.6 55.7 3.8 C 56.1 4 56.4 4.3 56.7 4.6 C 56.9 4.9 57.1 5.2 57.2 5.5 C 57.24 5.47 57.4 5.5 57.4 5.5 L 57.4 3.6 L 60.4 3.6 C 60.4 3.6 60.36 14.65 60.4 14.7 C 60.4 15.6 60.1 16.4 59.7 17 C 59.2 17.6 58.6 18.1 57.8 18.4 C 57 18.7 56.1 18.9 55 18.9 Z M 55.1 12.1 C 55.6 12.1 56 12 56.3 11.8 C 56.7 11.5 56.9 11.2 57.1 10.7 C 57.3 10.2 57.4 9.7 57.4 9.1 C 57.4 8.4 57.3 7.9 57.1 7.4 C 56.9 6.9 56.7 6.6 56.3 6.3 C 56 6 55.6 5.9 55.1 5.9 C 54.6 5.9 54.2 6 53.8 6.3 C 53.5 6.6 53.2 6.9 53.1 7.4 C 52.9 7.9 52.8 8.4 52.8 9.1 C 52.8 9.7 52.9 10.2 53.1 10.7 C 53.2 11.1 53.5 11.5 53.8 11.7 C 54.2 12 54.6 12.1 55.1 12.1 Z M 65.9 8.2 C 65.88 8.24 65.9 14.5 65.9 14.5 L 62.9 14.5 L 62.9 3.6 L 65.7 3.6 L 65.7 5.6 C 65.7 5.6 65.87 5.56 65.9 5.6 C 66.1 4.9 66.5 4.4 67.1 4.1 C 67.7 3.7 68.3 3.5 69.2 3.5 C 69.9 3.5 70.6 3.7 71.1 4 C 71.7 4.3 72.1 4.8 72.4 5.4 C 72.8 6 72.9 6.8 72.9 7.6 C 72.92 7.6 72.9 14.5 72.9 14.5 L 69.9 14.5 C 69.9 14.5 69.89 8.14 69.9 8.1 C 69.9 7.5 69.7 6.9 69.4 6.6 C 69 6.2 68.6 6 68 6 C 67.5 6 67.2 6.1 66.9 6.3 C 66.6 6.4 66.3 6.7 66.2 7 C 66 7.4 65.9 7.8 65.9 8.2 Z M 75.3 14.5 L 75.3 3.6 L 78.4 3.6 L 78.4 14.5 L 75.3 14.5 Z M 76.9 2.2 C 76.4 2.2 76 2.1 75.7 1.8 C 75.4 1.5 75.2 1.1 75.2 0.7 C 75.2 0.3 75.4 -0.1 75.7 -0.4 C 76 -0.7 76.4 -0.8 76.9 -0.8 C 77.3 -0.8 77.7 -0.7 78 -0.4 C 78.3 -0.1 78.5 0.3 78.5 0.7 C 78.5 1.1 78.3 1.5 78 1.8 C 77.7 2.1 77.3 2.2 76.9 2.2 Z M 80.5 14.5 L 80.5 12.7 L 85.8 6.1 L 85.8 6.1 L 80.7 6.1 L 80.7 3.6 L 89.5 3.6 L 89.5 5.6 L 84.5 12.1 L 84.5 12.1 L 89.7 12.1 L 89.7 14.5 L 80.5 14.5 Z M 91.8 14.5 L 91.8 3.6 L 94.8 3.6 L 94.8 14.5 L 91.8 14.5 Z M 93.3 2.2 C 92.9 2.2 92.5 2.1 92.2 1.8 C 91.9 1.5 91.7 1.1 91.7 0.7 C 91.7 0.3 91.9 -0.1 92.2 -0.4 C 92.5 -0.7 92.9 -0.8 93.3 -0.8 C 93.8 -0.8 94.2 -0.7 94.5 -0.4 C 94.8 -0.1 95 0.3 95 0.7 C 95 1.1 94.8 1.5 94.5 1.8 C 94.2 2.1 93.8 2.2 93.3 2.2 Z M 100.4 8.2 C 100.36 8.24 100.4 14.5 100.4 14.5 L 97.3 14.5 L 97.3 3.6 L 100.2 3.6 L 100.2 5.6 C 100.2 5.6 100.35 5.56 100.4 5.6 C 100.6 4.9 101 4.4 101.6 4.1 C 102.1 3.7 102.8 3.5 103.6 3.5 C 104.4 3.5 105 3.7 105.6 4 C 106.2 4.3 106.6 4.8 106.9 5.4 C 107.2 6 107.4 6.8 107.4 7.6 C 107.4 7.6 107.4 14.5 107.4 14.5 L 104.4 14.5 C 104.4 14.5 104.37 8.14 104.4 8.1 C 104.4 7.5 104.2 6.9 103.9 6.6 C 103.5 6.2 103 6 102.4 6 C 102 6 101.7 6.1 101.4 6.3 C 101 6.4 100.8 6.7 100.6 7 C 100.5 7.4 100.4 7.8 100.4 8.2 Z M 114.7 18.9 C 113.7 18.9 112.9 18.7 112.2 18.5 C 111.5 18.2 110.9 17.8 110.5 17.4 C 110.1 16.9 109.8 16.4 109.7 15.8 C 109.7 15.8 112.5 15.4 112.5 15.4 C 112.6 15.7 112.7 15.9 112.9 16.1 C 113.1 16.2 113.4 16.4 113.7 16.5 C 114 16.6 114.3 16.7 114.8 16.7 C 115.4 16.7 116 16.5 116.4 16.2 C 116.8 15.9 117 15.4 117 14.6 C 117.05 14.61 117 12.6 117 12.6 C 117 12.6 116.92 12.61 116.9 12.6 C 116.8 12.9 116.6 13.2 116.3 13.5 C 116.1 13.7 115.7 14 115.3 14.1 C 114.9 14.3 114.4 14.4 113.8 14.4 C 113 14.4 112.2 14.2 111.6 13.8 C 110.9 13.4 110.4 12.9 110 12.1 C 109.6 11.3 109.4 10.3 109.4 9.1 C 109.4 7.8 109.6 6.8 110 6 C 110.4 5.1 110.9 4.5 111.6 4.1 C 112.3 3.7 113 3.5 113.8 3.5 C 114.4 3.5 114.9 3.6 115.3 3.8 C 115.7 4 116.1 4.3 116.3 4.6 C 116.6 4.9 116.8 5.2 116.9 5.5 C 116.92 5.47 117 5.5 117 5.5 L 117 3.6 L 120 3.6 C 120 3.6 120.04 14.65 120 14.7 C 120 15.6 119.8 16.4 119.4 17 C 118.9 17.6 118.3 18.1 117.5 18.4 C 116.7 18.7 115.7 18.9 114.7 18.9 Z M 114.8 12.1 C 115.3 12.1 115.7 12 116 11.8 C 116.3 11.5 116.6 11.2 116.8 10.7 C 117 10.2 117.1 9.7 117.1 9.1 C 117.1 8.4 117 7.9 116.8 7.4 C 116.6 6.9 116.4 6.6 116 6.3 C 115.7 6 115.3 5.9 114.8 5.9 C 114.3 5.9 113.9 6 113.5 6.3 C 113.2 6.6 112.9 6.9 112.7 7.4 C 112.6 7.9 112.5 8.4 112.5 9.1 C 112.5 9.7 112.6 10.2 112.7 10.7 C 112.9 11.1 113.2 11.5 113.5 11.7 C 113.9 12 114.3 12.1 114.8 12.1 Z M 129.7 14.5 L 126.4 14.5 L 131.4 0 L 135.3 0 L 140.4 14.5 L 137.1 14.5 L 133.4 3.3 L 133.3 3.3 L 129.7 14.5 Z M 129.4 8.8 L 137.2 8.8 L 137.2 11.2 L 129.4 11.2 L 129.4 8.8 Z M 145.3 0 L 145.3 14.5 L 142.2 14.5 L 142.2 0 L 145.3 0 Z M 155.4 8.2 C 155.4 8.24 155.4 14.5 155.4 14.5 L 152.4 14.5 L 152.4 0 L 155.3 0 L 155.3 5.6 C 155.3 5.6 155.44 5.56 155.4 5.6 C 155.7 4.9 156.1 4.4 156.6 4 C 157.2 3.7 157.9 3.5 158.7 3.5 C 159.5 3.5 160.1 3.7 160.7 4 C 161.2 4.3 161.7 4.8 162 5.4 C 162.3 6 162.5 6.7 162.5 7.6 C 162.47 7.6 162.5 14.5 162.5 14.5 L 159.4 14.5 C 159.4 14.5 159.44 8.14 159.4 8.1 C 159.4 7.5 159.3 6.9 158.9 6.6 C 158.6 6.2 158.1 6 157.5 6 C 157.1 6 156.7 6.1 156.4 6.3 C 156.1 6.4 155.8 6.7 155.7 7 C 155.5 7.4 155.4 7.8 155.4 8.2 Z M 166.3 18.6 C 165.9 18.6 165.5 18.6 165.2 18.5 C 164.9 18.5 164.6 18.4 164.4 18.3 C 164.4 18.3 165.1 16.1 165.1 16.1 C 165.4 16.2 165.7 16.2 166 16.2 C 166.3 16.3 166.6 16.2 166.8 16 C 167 15.9 167.2 15.7 167.3 15.3 C 167.28 15.32 167.5 14.9 167.5 14.9 L 163.5 3.6 L 166.7 3.6 L 169 11.6 L 169.1 11.6 L 171.4 3.6 L 174.6 3.6 C 174.6 3.6 170.35 15.72 170.3 15.7 C 170.1 16.3 169.9 16.8 169.5 17.3 C 169.2 17.7 168.7 18 168.2 18.3 C 167.7 18.5 167 18.6 166.3 18.6 Z M 176.1 18.6 L 176.1 3.6 L 179.1 3.6 L 179.1 5.5 C 179.1 5.5 179.19 5.47 179.2 5.5 C 179.3 5.2 179.5 4.9 179.8 4.6 C 180 4.3 180.3 4 180.8 3.8 C 181.2 3.6 181.7 3.5 182.3 3.5 C 183.1 3.5 183.8 3.7 184.5 4.1 C 185.2 4.5 185.7 5.2 186.1 6 C 186.5 6.8 186.7 7.9 186.7 9.1 C 186.7 10.3 186.5 11.3 186.1 12.2 C 185.7 13 185.2 13.7 184.5 14.1 C 183.9 14.5 183.1 14.7 182.3 14.7 C 181.7 14.7 181.2 14.6 180.8 14.4 C 180.4 14.2 180 14 179.8 13.7 C 179.5 13.4 179.3 13.1 179.2 12.8 C 179.19 12.8 179.1 12.8 179.1 12.8 L 179.1 18.6 L 176.1 18.6 Z M 179 9.1 C 179 9.7 179.1 10.3 179.3 10.8 C 179.5 11.3 179.7 11.6 180.1 11.9 C 180.4 12.2 180.8 12.3 181.3 12.3 C 181.8 12.3 182.2 12.2 182.6 11.9 C 182.9 11.6 183.2 11.3 183.4 10.8 C 183.5 10.3 183.6 9.7 183.6 9.1 C 183.6 8.5 183.5 7.9 183.4 7.4 C 183.2 7 182.9 6.6 182.6 6.3 C 182.2 6 181.8 5.9 181.3 5.9 C 180.8 5.9 180.4 6 180.1 6.3 C 179.7 6.6 179.5 6.9 179.3 7.4 C 179.1 7.9 179 8.4 179 9.1 Z M 193.7 14.8 C 192.5 14.8 191.6 14.5 190.8 14.1 C 190 13.6 189.3 13 188.9 12.1 C 188.5 11.3 188.3 10.3 188.3 9.1 C 188.3 8 188.5 7 188.9 6.2 C 189.3 5.3 190 4.7 190.8 4.2 C 191.5 3.7 192.5 3.5 193.5 3.5 C 194.3 3.5 194.9 3.6 195.6 3.8 C 196.2 4.1 196.7 4.4 197.2 4.9 C 197.7 5.3 198 5.9 198.3 6.6 C 198.5 7.3 198.7 8.1 198.7 9 C 198.67 9.03 198.7 9.9 198.7 9.9 L 189.5 9.9 L 189.5 8 C 189.5 8 195.83 7.99 195.8 8 C 195.8 7.6 195.7 7.2 195.5 6.8 C 195.4 6.5 195.1 6.2 194.8 6 C 194.4 5.8 194 5.8 193.6 5.8 C 193.1 5.8 192.7 5.9 192.4 6.1 C 192 6.3 191.7 6.6 191.6 6.9 C 191.4 7.3 191.2 7.7 191.2 8.1 C 191.2 8.1 191.2 9.9 191.2 9.9 C 191.2 10.4 191.3 10.9 191.5 11.3 C 191.7 11.7 192 12 192.4 12.2 C 192.8 12.4 193.2 12.5 193.7 12.5 C 194.1 12.5 194.4 12.5 194.6 12.4 C 194.9 12.3 195.2 12.1 195.4 11.9 C 195.6 11.7 195.7 11.5 195.8 11.2 C 195.8 11.2 198.6 11.4 198.6 11.4 C 198.5 12.1 198.2 12.7 197.7 13.2 C 197.3 13.7 196.7 14.1 196 14.3 C 195.4 14.6 194.6 14.8 193.7 14.8 Z " stroke="none" fill="#ffffff"/>  </g></svg>