<?xml version="1.0" standalone="no"?><!DOCTYPE svg PUBLIC "-//W3C//DTD SVG 1.1//EN" "http://www.w3.org/Graphics/SVG/1.1/DTD/svg11.dtd"><svg xmlns="http://www.w3.org/2000/svg" version="1.1" width="275px" height="58.8px" viewBox="0 -8 275 58.8" style="top:-8px">  <desc>The problem with overhyped AI</desc>  <defs/>  <g id="Polygon106765">    <path d="M 6.1 38.8 C 5 38.8 4.1 38.5 3.3 38.1 C 2.5 37.6 1.9 36.9 1.4 36.1 C 1 35.2 0.8 34.3 0.8 33.1 C 0.8 32 1 31 1.4 30.2 C 1.9 29.3 2.5 28.7 3.3 28.2 C 4.1 27.7 5 27.5 6.1 27.5 C 7.2 27.5 8.2 27.7 9 28.2 C 9.8 28.7 10.4 29.3 10.9 30.2 C 11.3 31 11.5 32 11.5 33.1 C 11.5 34.3 11.3 35.2 10.9 36.1 C 10.4 36.9 9.8 37.6 9 38.1 C 8.2 38.5 7.2 38.8 6.1 38.8 Z M 6.2 36.4 C 6.7 36.4 7.1 36.3 7.4 36 C 7.7 35.7 8 35.3 8.2 34.8 C 8.3 34.3 8.4 33.7 8.4 33.1 C 8.4 32.5 8.3 31.9 8.2 31.4 C 8 30.9 7.7 30.5 7.4 30.2 C 7.1 29.9 6.7 29.8 6.2 29.8 C 5.6 29.8 5.2 29.9 4.9 30.2 C 4.5 30.5 4.3 30.9 4.1 31.4 C 3.9 31.9 3.8 32.5 3.8 33.1 C 3.8 33.7 3.9 34.3 4.1 34.8 C 4.3 35.3 4.5 35.7 4.9 36 C 5.2 36.3 5.6 36.4 6.2 36.4 Z M 23.2 27.6 L 19.3 38.5 L 15.9 38.5 L 12.1 27.6 L 15.3 27.6 L 17.6 35.4 L 17.7 35.4 L 19.9 27.6 L 23.2 27.6 Z M 29.2 38.8 C 28.1 38.8 27.1 38.5 26.3 38.1 C 25.5 37.6 24.8 37 24.4 36.1 C 24 35.3 23.8 34.3 23.8 33.1 C 23.8 32 24 31 24.4 30.2 C 24.8 29.3 25.5 28.7 26.3 28.2 C 27 27.7 28 27.5 29.1 27.5 C 29.8 27.5 30.4 27.6 31.1 27.8 C 31.7 28.1 32.2 28.4 32.7 28.9 C 33.2 29.3 33.5 29.9 33.8 30.6 C 34 31.3 34.2 32.1 34.2 33 C 34.18 33.03 34.2 33.9 34.2 33.9 L 25 33.9 L 25 32 C 25 32 31.33 31.99 31.3 32 C 31.3 31.6 31.2 31.2 31 30.8 C 30.9 30.5 30.6 30.2 30.3 30 C 29.9 29.8 29.5 29.8 29.1 29.8 C 28.6 29.8 28.2 29.9 27.9 30.1 C 27.5 30.3 27.3 30.6 27.1 30.9 C 26.9 31.3 26.8 31.7 26.8 32.1 C 26.8 32.1 26.8 33.9 26.8 33.9 C 26.8 34.4 26.9 34.9 27.1 35.3 C 27.3 35.7 27.5 36 27.9 36.2 C 28.3 36.4 28.7 36.5 29.2 36.5 C 29.6 36.5 29.9 36.5 30.1 36.4 C 30.4 36.3 30.7 36.1 30.9 35.9 C 31.1 35.7 31.2 35.5 31.3 35.2 C 31.3 35.2 34.1 35.4 34.1 35.4 C 34 36.1 33.7 36.7 33.2 37.2 C 32.8 37.7 32.2 38.1 31.6 38.3 C 30.9 38.6 30.1 38.8 29.2 38.8 Z M 36.2 38.5 L 36.2 27.6 L 39.2 27.6 L 39.2 29.5 C 39.2 29.5 39.28 29.54 39.3 29.5 C 39.5 28.9 39.8 28.4 40.3 28 C 40.8 27.7 41.3 27.5 41.9 27.5 C 42.1 27.5 42.2 27.5 42.4 27.5 C 42.6 27.5 42.7 27.6 42.9 27.6 C 42.9 27.6 42.9 30.3 42.9 30.3 C 42.7 30.2 42.5 30.2 42.3 30.2 C 42 30.1 41.8 30.1 41.6 30.1 C 41.1 30.1 40.7 30.2 40.4 30.4 C 40 30.6 39.8 30.9 39.6 31.2 C 39.4 31.5 39.3 31.9 39.3 32.4 C 39.26 32.37 39.3 38.5 39.3 38.5 L 36.2 38.5 Z M 47.4 32.2 C 47.37 32.24 47.4 38.5 47.4 38.5 L 44.3 38.5 L 44.3 24 L 47.3 24 L 47.3 29.6 C 47.3 29.6 47.41 29.56 47.4 29.6 C 47.7 28.9 48.1 28.4 48.6 28 C 49.2 27.7 49.8 27.5 50.7 27.5 C 51.4 27.5 52.1 27.7 52.7 28 C 53.2 28.3 53.7 28.8 54 29.4 C 54.3 30 54.5 30.7 54.4 31.6 C 54.45 31.6 54.4 38.5 54.4 38.5 L 51.4 38.5 C 51.4 38.5 51.42 32.14 51.4 32.1 C 51.4 31.5 51.3 30.9 50.9 30.6 C 50.6 30.2 50.1 30 49.5 30 C 49.1 30 48.7 30.1 48.4 30.3 C 48.1 30.4 47.8 30.7 47.6 31 C 47.5 31.4 47.4 31.8 47.4 32.2 Z M 58.3 42.6 C 57.9 42.6 57.5 42.6 57.2 42.5 C 56.9 42.5 56.6 42.4 56.4 42.3 C 56.4 42.3 57 40.1 57 40.1 C 57.4 40.2 57.7 40.2 58 40.2 C 58.3 40.3 58.5 40.2 58.7 40 C 59 39.9 59.1 39.7 59.3 39.3 C 59.26 39.32 59.4 38.9 59.4 38.9 L 55.5 27.6 L 58.7 27.6 L 61 35.6 L 61.1 35.6 L 63.4 27.6 L 66.6 27.6 C 66.6 27.6 62.32 39.72 62.3 39.7 C 62.1 40.3 61.8 40.8 61.5 41.3 C 61.1 41.7 60.7 42 60.2 42.3 C 59.6 42.5 59 42.6 58.3 42.6 Z M 68 42.6 L 68 27.6 L 71 27.6 L 71 29.5 C 71 29.5 71.16 29.47 71.2 29.5 C 71.3 29.2 71.5 28.9 71.7 28.6 C 72 28.3 72.3 28 72.7 27.8 C 73.1 27.6 73.7 27.5 74.3 27.5 C 75.1 27.5 75.8 27.7 76.5 28.1 C 77.1 28.5 77.7 29.2 78.1 30 C 78.5 30.8 78.7 31.9 78.7 33.1 C 78.7 34.3 78.5 35.3 78.1 36.2 C 77.7 37 77.2 37.7 76.5 38.1 C 75.8 38.5 75.1 38.7 74.3 38.7 C 73.7 38.7 73.2 38.6 72.8 38.4 C 72.4 38.2 72 38 71.8 37.7 C 71.5 37.4 71.3 37.1 71.2 36.8 C 71.16 36.8 71.1 36.8 71.1 36.8 L 71.1 42.6 L 68 42.6 Z M 71 33.1 C 71 33.7 71.1 34.3 71.3 34.8 C 71.5 35.3 71.7 35.6 72.1 35.9 C 72.4 36.2 72.8 36.3 73.3 36.3 C 73.8 36.3 74.2 36.2 74.6 35.9 C 74.9 35.6 75.2 35.3 75.3 34.8 C 75.5 34.3 75.6 33.7 75.6 33.1 C 75.6 32.5 75.5 31.9 75.3 31.4 C 75.2 31 74.9 30.6 74.6 30.3 C 74.2 30 73.8 29.9 73.3 29.9 C 72.8 29.9 72.4 30 72.1 30.3 C 71.7 30.6 71.5 30.9 71.3 31.4 C 71.1 31.9 71 32.4 71 33.1 Z M 85.6 38.8 C 84.5 38.8 83.6 38.5 82.7 38.1 C 81.9 37.6 81.3 37 80.9 36.1 C 80.4 35.3 80.2 34.3 80.2 33.1 C 80.2 32 80.4 31 80.9 30.2 C 81.3 29.3 81.9 28.7 82.7 28.2 C 83.5 27.7 84.5 27.5 85.5 27.5 C 86.2 27.5 86.9 27.6 87.5 27.8 C 88.2 28.1 88.7 28.4 89.2 28.9 C 89.6 29.3 90 29.9 90.3 30.6 C 90.5 31.3 90.7 32.1 90.7 33 C 90.65 33.03 90.7 33.9 90.7 33.9 L 81.4 33.9 L 81.4 32 C 81.4 32 87.8 31.99 87.8 32 C 87.8 31.6 87.7 31.2 87.5 30.8 C 87.3 30.5 87.1 30.2 86.7 30 C 86.4 29.8 86 29.8 85.6 29.8 C 85.1 29.8 84.7 29.9 84.4 30.1 C 84 30.3 83.7 30.6 83.5 30.9 C 83.3 31.3 83.2 31.7 83.2 32.1 C 83.2 32.1 83.2 33.9 83.2 33.9 C 83.2 34.4 83.3 34.9 83.5 35.3 C 83.7 35.7 84 36 84.4 36.2 C 84.7 36.4 85.2 36.5 85.7 36.5 C 86 36.5 86.3 36.5 86.6 36.4 C 86.9 36.3 87.1 36.1 87.3 35.9 C 87.5 35.7 87.7 35.5 87.8 35.2 C 87.8 35.2 90.6 35.4 90.6 35.4 C 90.4 36.1 90.2 36.7 89.7 37.2 C 89.3 37.7 88.7 38.1 88 38.3 C 87.3 38.6 86.5 38.8 85.6 38.8 Z M 96.7 38.7 C 95.8 38.7 95.1 38.5 94.4 38.1 C 93.7 37.7 93.2 37 92.8 36.2 C 92.4 35.3 92.2 34.3 92.2 33.1 C 92.2 31.9 92.4 30.8 92.8 30 C 93.2 29.2 93.8 28.5 94.5 28.1 C 95.1 27.7 95.9 27.5 96.7 27.5 C 97.3 27.5 97.8 27.6 98.2 27.8 C 98.6 28 98.9 28.3 99.2 28.6 C 99.4 28.9 99.6 29.2 99.8 29.5 C 99.76 29.47 99.9 29.5 99.9 29.5 L 99.9 24 L 102.9 24 L 102.9 38.5 L 99.9 38.5 L 99.9 36.8 C 99.9 36.8 99.76 36.8 99.8 36.8 C 99.6 37.1 99.4 37.4 99.2 37.7 C 98.9 38 98.6 38.2 98.2 38.4 C 97.8 38.6 97.3 38.7 96.7 38.7 Z M 97.6 36.3 C 98.1 36.3 98.5 36.2 98.9 35.9 C 99.2 35.6 99.5 35.3 99.6 34.8 C 99.8 34.3 99.9 33.7 99.9 33.1 C 99.9 32.4 99.8 31.9 99.6 31.4 C 99.5 30.9 99.2 30.6 98.9 30.3 C 98.5 30 98.1 29.9 97.6 29.9 C 97.1 29.9 96.7 30 96.4 30.3 C 96 30.6 95.8 31 95.6 31.4 C 95.4 31.9 95.3 32.5 95.3 33.1 C 95.3 33.7 95.4 34.3 95.6 34.8 C 95.8 35.3 96 35.6 96.4 35.9 C 96.7 36.2 97.1 36.3 97.6 36.3 Z M 112.6 38.5 L 109.3 38.5 L 114.3 24 L 118.2 24 L 123.3 38.5 L 120 38.5 L 116.3 27.3 L 116.2 27.3 L 112.6 38.5 Z M 112.3 32.8 L 120.1 32.8 L 120.1 35.2 L 112.3 35.2 L 112.3 32.8 Z M 128.2 24 L 128.2 38.5 L 125.1 38.5 L 125.1 24 L 128.2 24 Z " stroke="none" fill="#ffffff"/>  </g>  <g id="Polygon106764">    <path d="M 0.7 2.5 L 0.7 0 L 12.7 0 L 12.7 2.5 L 8.2 2.5 L 8.2 14.5 L 5.2 14.5 L 5.2 2.5 L 0.7 2.5 Z M 17.5 8.2 C 17.47 8.24 17.5 14.5 17.5 14.5 L 14.4 14.5 L 14.4 0 L 17.4 0 L 17.4 5.6 C 17.4 5.6 17.51 5.56 17.5 5.6 C 17.8 4.9 18.2 4.4 18.7 4 C 19.3 3.7 19.9 3.5 20.8 3.5 C 21.5 3.5 22.2 3.7 22.8 4 C 23.3 4.3 23.8 4.8 24.1 5.4 C 24.4 6 24.5 6.7 24.5 7.6 C 24.54 7.6 24.5 14.5 24.5 14.5 L 21.5 14.5 C 21.5 14.5 21.52 8.14 21.5 8.1 C 21.5 7.5 21.4 6.9 21 6.6 C 20.7 6.2 20.2 6 19.6 6 C 19.2 6 18.8 6.1 18.5 6.3 C 18.2 6.4 17.9 6.7 17.7 7 C 17.6 7.4 17.5 7.8 17.5 8.2 Z M 31.9 14.8 C 30.8 14.8 29.8 14.5 29 14.1 C 28.2 13.6 27.6 13 27.1 12.1 C 26.7 11.3 26.5 10.3 26.5 9.1 C 26.5 8 26.7 7 27.1 6.2 C 27.6 5.3 28.2 4.7 29 4.2 C 29.8 3.7 30.7 3.5 31.8 3.5 C 32.5 3.5 33.2 3.6 33.8 3.8 C 34.4 4.1 35 4.4 35.4 4.9 C 35.9 5.3 36.3 5.9 36.5 6.6 C 36.8 7.3 36.9 8.1 36.9 9 C 36.9 9.03 36.9 9.9 36.9 9.9 L 27.7 9.9 L 27.7 8 C 27.7 8 34.05 7.99 34.1 8 C 34.1 7.6 34 7.2 33.8 6.8 C 33.6 6.5 33.3 6.2 33 6 C 32.7 5.8 32.3 5.8 31.8 5.8 C 31.4 5.8 31 5.9 30.6 6.1 C 30.3 6.3 30 6.6 29.8 6.9 C 29.6 7.3 29.5 7.7 29.5 8.1 C 29.5 8.1 29.5 9.9 29.5 9.9 C 29.5 10.4 29.6 10.9 29.8 11.3 C 30 11.7 30.3 12 30.6 12.2 C 31 12.4 31.4 12.5 31.9 12.5 C 32.3 12.5 32.6 12.5 32.9 12.4 C 33.1 12.3 33.4 12.1 33.6 11.9 C 33.8 11.7 33.9 11.5 34 11.2 C 34 11.2 36.8 11.4 36.8 11.4 C 36.7 12.1 36.4 12.7 36 13.2 C 35.5 13.7 35 14.1 34.3 14.3 C 33.6 14.6 32.8 14.8 31.9 14.8 Z M 43.5 18.6 L 43.5 3.6 L 46.5 3.6 L 46.5 5.5 C 46.5 5.5 46.63 5.47 46.6 5.5 C 46.8 5.2 47 4.9 47.2 4.6 C 47.5 4.3 47.8 4 48.2 3.8 C 48.6 3.6 49.1 3.5 49.7 3.5 C 50.5 3.5 51.3 3.7 51.9 4.1 C 52.6 4.5 53.1 5.2 53.5 6 C 54 6.8 54.2 7.9 54.2 9.1 C 54.2 10.3 54 11.3 53.6 12.2 C 53.2 13 52.6 13.7 52 14.1 C 51.3 14.5 50.6 14.7 49.7 14.7 C 49.1 14.7 48.6 14.6 48.2 14.4 C 47.8 14.2 47.5 14 47.2 13.7 C 47 13.4 46.8 13.1 46.6 12.8 C 46.63 12.8 46.5 12.8 46.5 12.8 L 46.5 18.6 L 43.5 18.6 Z M 46.5 9.1 C 46.5 9.7 46.6 10.3 46.7 10.8 C 46.9 11.3 47.2 11.6 47.5 11.9 C 47.9 12.2 48.3 12.3 48.8 12.3 C 49.3 12.3 49.7 12.2 50 11.9 C 50.4 11.6 50.6 11.3 50.8 10.8 C 51 10.3 51.1 9.7 51.1 9.1 C 51.1 8.5 51 7.9 50.8 7.4 C 50.6 7 50.4 6.6 50 6.3 C 49.7 6 49.3 5.9 48.8 5.9 C 48.3 5.9 47.9 6 47.5 6.3 C 47.2 6.6 46.9 6.9 46.7 7.4 C 46.6 7.9 46.5 8.4 46.5 9.1 Z M 56.2 14.5 L 56.2 3.6 L 59.2 3.6 L 59.2 5.5 C 59.2 5.5 59.27 5.54 59.3 5.5 C 59.5 4.9 59.8 4.4 60.3 4 C 60.7 3.7 61.3 3.5 61.9 3.5 C 62 3.5 62.2 3.5 62.4 3.5 C 62.6 3.5 62.7 3.6 62.8 3.6 C 62.8 3.6 62.8 6.3 62.8 6.3 C 62.7 6.2 62.5 6.2 62.3 6.2 C 62 6.1 61.8 6.1 61.6 6.1 C 61.1 6.1 60.7 6.2 60.4 6.4 C 60 6.6 59.8 6.9 59.6 7.2 C 59.4 7.5 59.3 7.9 59.3 8.4 C 59.25 8.37 59.3 14.5 59.3 14.5 L 56.2 14.5 Z M 69.2 14.8 C 68.1 14.8 67.2 14.5 66.4 14.1 C 65.6 13.6 65 12.9 64.5 12.1 C 64.1 11.2 63.9 10.3 63.9 9.1 C 63.9 8 64.1 7 64.5 6.2 C 65 5.3 65.6 4.7 66.4 4.2 C 67.2 3.7 68.1 3.5 69.2 3.5 C 70.3 3.5 71.3 3.7 72.1 4.2 C 72.9 4.7 73.5 5.3 74 6.2 C 74.4 7 74.6 8 74.6 9.1 C 74.6 10.3 74.4 11.2 74 12.1 C 73.5 12.9 72.9 13.6 72.1 14.1 C 71.3 14.5 70.3 14.8 69.2 14.8 Z M 69.3 12.4 C 69.8 12.4 70.2 12.3 70.5 12 C 70.9 11.7 71.1 11.3 71.3 10.8 C 71.5 10.3 71.5 9.7 71.5 9.1 C 71.5 8.5 71.5 7.9 71.3 7.4 C 71.1 6.9 70.9 6.5 70.5 6.2 C 70.2 5.9 69.8 5.8 69.3 5.8 C 68.8 5.8 68.3 5.9 68 6.2 C 67.6 6.5 67.4 6.9 67.2 7.4 C 67 7.9 67 8.5 67 9.1 C 67 9.7 67 10.3 67.2 10.8 C 67.4 11.3 67.6 11.7 68 12 C 68.3 12.3 68.8 12.4 69.3 12.4 Z M 76.6 14.5 L 76.6 0 L 79.7 0 L 79.7 5.5 C 79.7 5.5 79.75 5.47 79.7 5.5 C 79.9 5.2 80.1 4.9 80.3 4.6 C 80.6 4.3 80.9 4 81.3 3.8 C 81.7 3.6 82.2 3.5 82.9 3.5 C 83.6 3.5 84.4 3.7 85.1 4.1 C 85.7 4.5 86.3 5.2 86.7 6 C 87.1 6.8 87.3 7.9 87.3 9.1 C 87.3 10.3 87.1 11.3 86.7 12.2 C 86.3 13 85.8 13.7 85.1 14.1 C 84.4 14.5 83.7 14.7 82.8 14.7 C 82.3 14.7 81.8 14.6 81.3 14.4 C 80.9 14.2 80.6 14 80.3 13.7 C 80.1 13.4 79.9 13.1 79.7 12.8 C 79.75 12.8 79.6 12.8 79.6 12.8 L 79.6 14.5 L 76.6 14.5 Z M 79.6 9.1 C 79.6 9.7 79.7 10.3 79.9 10.8 C 80 11.3 80.3 11.6 80.6 11.9 C 81 12.2 81.4 12.3 81.9 12.3 C 82.4 12.3 82.8 12.2 83.1 11.9 C 83.5 11.6 83.7 11.3 83.9 10.8 C 84.1 10.3 84.2 9.7 84.2 9.1 C 84.2 8.5 84.1 7.9 83.9 7.4 C 83.7 7 83.5 6.6 83.1 6.3 C 82.8 6 82.4 5.9 81.9 5.9 C 81.4 5.9 81 6 80.6 6.3 C 80.3 6.6 80 6.9 79.9 7.4 C 79.7 7.9 79.6 8.4 79.6 9.1 Z M 92.4 0 L 92.4 14.5 L 89.3 14.5 L 89.3 0 L 92.4 0 Z M 99.8 14.8 C 98.7 14.8 97.7 14.5 96.9 14.1 C 96.1 13.6 95.5 13 95 12.1 C 94.6 11.3 94.4 10.3 94.4 9.1 C 94.4 8 94.6 7 95 6.2 C 95.5 5.3 96.1 4.7 96.9 4.2 C 97.7 3.7 98.6 3.5 99.7 3.5 C 100.4 3.5 101 3.6 101.7 3.8 C 102.3 4.1 102.8 4.4 103.3 4.9 C 103.8 5.3 104.1 5.9 104.4 6.6 C 104.7 7.3 104.8 8.1 104.8 9 C 104.78 9.03 104.8 9.9 104.8 9.9 L 95.6 9.9 L 95.6 8 C 95.6 8 101.94 7.99 101.9 8 C 101.9 7.6 101.8 7.2 101.7 6.8 C 101.5 6.5 101.2 6.2 100.9 6 C 100.5 5.8 100.1 5.8 99.7 5.8 C 99.2 5.8 98.8 5.9 98.5 6.1 C 98.1 6.3 97.9 6.6 97.7 6.9 C 97.5 7.3 97.4 7.7 97.4 8.1 C 97.4 8.1 97.4 9.9 97.4 9.9 C 97.4 10.4 97.5 10.9 97.7 11.3 C 97.9 11.7 98.1 12 98.5 12.2 C 98.9 12.4 99.3 12.5 99.8 12.5 C 100.2 12.5 100.5 12.5 100.8 12.4 C 101 12.3 101.3 12.1 101.5 11.9 C 101.7 11.7 101.8 11.5 101.9 11.2 C 101.9 11.2 104.7 11.4 104.7 11.4 C 104.6 12.1 104.3 12.7 103.9 13.2 C 103.4 13.7 102.8 14.1 102.2 14.3 C 101.5 14.6 100.7 14.8 99.8 14.8 Z M 106.8 14.5 L 106.8 3.6 L 109.7 3.6 L 109.7 5.6 C 109.7 5.6 109.85 5.56 109.9 5.6 C 110.1 4.9 110.5 4.4 111 4 C 111.5 3.7 112.2 3.5 112.9 3.5 C 113.6 3.5 114.3 3.7 114.8 4.1 C 115.3 4.4 115.7 4.9 115.9 5.6 C 115.9 5.6 116 5.6 116 5.6 C 116.2 4.9 116.6 4.4 117.2 4.1 C 117.8 3.7 118.5 3.5 119.3 3.5 C 120.3 3.5 121.1 3.8 121.7 4.5 C 122.4 5.1 122.7 6 122.7 7.2 C 122.69 7.21 122.7 14.5 122.7 14.5 L 119.7 14.5 C 119.7 14.5 119.68 7.81 119.7 7.8 C 119.7 7.2 119.5 6.7 119.2 6.4 C 118.9 6.1 118.5 6 118 6 C 117.4 6 117 6.2 116.7 6.5 C 116.4 6.9 116.2 7.3 116.2 7.9 C 116.24 7.88 116.2 14.5 116.2 14.5 L 113.3 14.5 C 113.3 14.5 113.3 7.74 113.3 7.7 C 113.3 7.2 113.2 6.8 112.8 6.5 C 112.5 6.1 112.1 6 111.6 6 C 111.3 6 111 6.1 110.7 6.2 C 110.5 6.4 110.3 6.6 110.1 6.9 C 109.9 7.2 109.9 7.6 109.9 8 C 109.87 8 109.9 14.5 109.9 14.5 L 106.8 14.5 Z M 131.9 14.5 L 128.9 3.6 L 132 3.6 L 133.7 11 L 133.8 11 L 135.5 3.6 L 138.5 3.6 L 140.3 10.9 L 140.4 10.9 L 142.1 3.6 L 145.1 3.6 L 142.2 14.5 L 139 14.5 L 137.1 7.7 L 136.9 7.7 L 135.1 14.5 L 131.9 14.5 Z M 146.6 14.5 L 146.6 3.6 L 149.7 3.6 L 149.7 14.5 L 146.6 14.5 Z M 148.2 2.2 C 147.7 2.2 147.3 2.1 147 1.8 C 146.7 1.5 146.5 1.1 146.5 0.7 C 146.5 0.3 146.7 -0.1 147 -0.4 C 147.3 -0.7 147.7 -0.8 148.2 -0.8 C 148.6 -0.8 149 -0.7 149.3 -0.4 C 149.6 -0.1 149.8 0.3 149.8 0.7 C 149.8 1.1 149.6 1.5 149.3 1.8 C 149 2.1 148.6 2.2 148.2 2.2 Z M 157.8 3.6 L 157.8 5.9 L 151.2 5.9 L 151.2 3.6 L 157.8 3.6 Z M 152.7 1 L 155.7 1 C 155.7 1 155.73 11.19 155.7 11.2 C 155.7 11.5 155.8 11.7 155.9 11.8 C 155.9 12 156.1 12.1 156.2 12.2 C 156.4 12.2 156.5 12.3 156.8 12.3 C 156.9 12.3 157 12.2 157.2 12.2 C 157.3 12.2 157.4 12.2 157.5 12.2 C 157.5 12.2 158 14.4 158 14.4 C 157.8 14.5 157.6 14.5 157.3 14.6 C 157.1 14.6 156.7 14.7 156.3 14.7 C 155.6 14.7 155 14.6 154.4 14.4 C 153.9 14.2 153.5 13.8 153.1 13.4 C 152.8 12.9 152.7 12.3 152.7 11.6 C 152.7 11.59 152.7 1 152.7 1 Z M 162.7 8.2 C 162.74 8.24 162.7 14.5 162.7 14.5 L 159.7 14.5 L 159.7 0 L 162.7 0 L 162.7 5.6 C 162.7 5.6 162.78 5.56 162.8 5.6 C 163 4.9 163.4 4.4 164 4 C 164.5 3.7 165.2 3.5 166 3.5 C 166.8 3.5 167.5 3.7 168 4 C 168.6 4.3 169 4.8 169.3 5.4 C 169.7 6 169.8 6.7 169.8 7.6 C 169.81 7.6 169.8 14.5 169.8 14.5 L 166.8 14.5 C 166.8 14.5 166.79 8.14 166.8 8.1 C 166.8 7.5 166.6 6.9 166.3 6.6 C 165.9 6.2 165.5 6 164.8 6 C 164.4 6 164.1 6.1 163.7 6.3 C 163.4 6.4 163.2 6.7 163 7 C 162.8 7.4 162.7 7.8 162.7 8.2 Z " stroke="none" fill="#ffffff"/>  </g></svg>