<?xml version="1.0" standalone="no"?><!DOCTYPE svg PUBLIC "-//W3C//DTD SVG 1.1//EN" "http://www.w3.org/Graphics/SVG/1.1/DTD/svg11.dtd"><svg xmlns="http://www.w3.org/2000/svg" version="1.1" width="555px" height="245.6px" viewBox="0 -7 555 245.6" style="top:-7px">  <desc>“ AI is simple to deploy and use.”</desc>  <defs/>  <g id="Polygon120070">    <path d="M 26.4 107.1 C 24.7 107.1 23.2 106.8 21.8 106.2 C 20.5 105.5 19.4 104.6 18.6 103.4 C 17.8 102.2 17.4 100.8 17.4 99.1 C 17.4 97.6 17.7 96.3 18.3 95.4 C 18.9 94.5 19.7 93.7 20.7 93.2 C 21.7 92.7 22.8 92.3 24 92 C 25.2 91.7 26.4 91.5 27.6 91.4 C 29.2 91.2 30.5 91 31.5 90.9 C 32.5 90.8 33.2 90.6 33.7 90.3 C 34.1 90.1 34.3 89.6 34.3 89 C 34.3 89 34.3 88.8 34.3 88.8 C 34.3 87.2 33.9 85.9 33 84.9 C 32.1 84 30.7 83.5 28.8 83.5 C 26.9 83.5 25.4 83.9 24.3 84.8 C 23.2 85.6 22.4 86.5 22 87.5 C 22 87.5 18.2 86.1 18.2 86.1 C 18.9 84.5 19.8 83.3 20.9 82.4 C 22.1 81.5 23.3 80.9 24.7 80.5 C 26 80.2 27.4 80 28.7 80 C 29.5 80 30.5 80.1 31.6 80.3 C 32.7 80.5 33.7 80.9 34.8 81.5 C 35.8 82.1 36.7 83 37.3 84.3 C 38 85.5 38.4 87.2 38.4 89.3 C 38.37 89.25 38.4 106.5 38.4 106.5 L 34.3 106.5 L 34.3 103 C 34.3 103 34.14 102.95 34.1 103 C 33.9 103.5 33.4 104.1 32.8 104.8 C 32.1 105.4 31.3 106 30.2 106.4 C 29.2 106.9 27.9 107.1 26.4 107.1 Z M 27 103.5 C 28.6 103.5 29.9 103.2 31 102.6 C 32.1 101.9 32.9 101.1 33.5 100.1 C 34.1 99.2 34.3 98.1 34.3 97 C 34.3 97 34.3 93.3 34.3 93.3 C 34.2 93.5 33.8 93.7 33.2 93.9 C 32.7 94.1 32 94.2 31.2 94.3 C 30.5 94.4 29.8 94.5 29.1 94.6 C 28.4 94.7 27.8 94.8 27.4 94.8 C 26.3 95 25.4 95.2 24.5 95.5 C 23.6 95.8 22.8 96.2 22.3 96.8 C 21.7 97.4 21.5 98.3 21.5 99.3 C 21.5 100.7 22 101.7 23 102.4 C 24.1 103.1 25.4 103.5 27 103.5 Z M 49.2 90.8 C 49.18 90.75 49.2 106.5 49.2 106.5 L 45.2 106.5 L 45.2 80.3 L 49 80.3 L 49 84.4 C 49 84.4 49.38 84.41 49.4 84.4 C 50 83.1 50.9 82 52.2 81.2 C 53.4 80.4 55 80 57 80 C 58.8 80 60.3 80.3 61.7 81.1 C 63 81.8 64 82.9 64.8 84.3 C 65.5 85.8 65.9 87.6 65.9 89.9 C 65.88 89.86 65.9 106.5 65.9 106.5 L 61.9 106.5 C 61.9 106.5 61.86 90.14 61.9 90.1 C 61.9 88.1 61.3 86.5 60.3 85.3 C 59.2 84.2 57.7 83.6 55.9 83.6 C 54.6 83.6 53.4 83.9 52.4 84.4 C 51.4 85 50.6 85.8 50 86.9 C 49.5 87.9 49.2 89.2 49.2 90.8 Z M 82.5 107 C 80.3 107 78.4 106.5 76.7 105.4 C 75 104.3 73.7 102.7 72.8 100.7 C 71.8 98.7 71.4 96.3 71.4 93.5 C 71.4 90.7 71.8 88.3 72.8 86.3 C 73.7 84.3 75 82.7 76.7 81.6 C 78.4 80.5 80.4 80 82.6 80 C 84.3 80 85.6 80.3 86.6 80.8 C 87.6 81.4 88.4 82 88.9 82.7 C 89.4 83.4 89.8 84 90.1 84.5 C 90.12 84.48 90.5 84.5 90.5 84.5 L 90.5 71.6 L 94.5 71.6 L 94.5 106.5 L 90.6 106.5 L 90.6 102.5 C 90.6 102.5 90.12 102.48 90.1 102.5 C 89.8 103 89.4 103.6 88.9 104.3 C 88.3 105 87.5 105.6 86.5 106.2 C 85.5 106.8 84.2 107 82.5 107 Z M 83 103.4 C 84.6 103.4 86 103 87.1 102.2 C 88.2 101.3 89.1 100.1 89.7 98.6 C 90.2 97.1 90.5 95.4 90.5 93.4 C 90.5 91.5 90.2 89.7 89.7 88.3 C 89.1 86.8 88.3 85.7 87.2 84.8 C 86 84 84.7 83.6 83 83.6 C 81.3 83.6 79.9 84 78.8 84.9 C 77.6 85.8 76.8 86.9 76.2 88.4 C 75.7 89.9 75.4 91.6 75.4 93.4 C 75.4 95.3 75.7 97 76.3 98.5 C 76.8 100 77.7 101.2 78.8 102.1 C 79.9 103 81.4 103.4 83 103.4 Z M 132.4 95.8 C 132.4 95.8 132.4 80.3 132.4 80.3 L 136.4 80.3 L 136.4 106.5 L 132.4 106.5 L 132.4 102.1 C 132.4 102.1 132.12 102.07 132.1 102.1 C 131.5 103.4 130.6 104.5 129.3 105.5 C 128 106.4 126.3 106.8 124.4 106.8 C 122.7 106.8 121.3 106.5 120 105.8 C 118.7 105 117.7 103.9 117 102.5 C 116.3 101 115.9 99.2 115.9 97 C 115.9 96.95 115.9 80.3 115.9 80.3 L 119.9 80.3 C 119.9 80.3 119.92 96.68 119.9 96.7 C 119.9 98.6 120.5 100.1 121.5 101.3 C 122.6 102.4 124 103 125.6 103 C 126.6 103 127.7 102.7 128.7 102.2 C 129.7 101.7 130.6 100.9 131.3 99.8 C 132 98.8 132.4 97.4 132.4 95.8 Z M 161.5 86.2 C 161.5 86.2 157.9 87.2 157.9 87.2 C 157.6 86.6 157.3 86 156.9 85.4 C 156.4 84.9 155.8 84.4 155.1 84 C 154.3 83.6 153.4 83.5 152.2 83.5 C 150.6 83.5 149.3 83.8 148.2 84.6 C 147.2 85.3 146.6 86.2 146.6 87.3 C 146.6 88.3 147 89.1 147.7 89.7 C 148.4 90.3 149.6 90.8 151.1 91.2 C 151.1 91.2 155 92.1 155 92.1 C 157.3 92.7 159.1 93.5 160.2 94.7 C 161.4 95.9 162 97.4 162 99.2 C 162 100.7 161.5 102 160.7 103.2 C 159.8 104.4 158.6 105.3 157.1 106 C 155.6 106.7 153.8 107 151.7 107 C 149.1 107 146.9 106.5 145.1 105.3 C 143.4 104.1 142.2 102.5 141.8 100.2 C 141.8 100.2 145.6 99.3 145.6 99.3 C 146 100.7 146.7 101.7 147.7 102.4 C 148.7 103.1 150 103.5 151.7 103.5 C 153.5 103.5 155 103.1 156.1 102.3 C 157.2 101.5 157.8 100.5 157.8 99.4 C 157.8 98.5 157.5 97.7 156.8 97.1 C 156.2 96.5 155.2 96 153.9 95.7 C 153.9 95.7 149.6 94.7 149.6 94.7 C 147.2 94.1 145.4 93.3 144.3 92.1 C 143.2 90.9 142.6 89.4 142.6 87.5 C 142.6 86.1 143 84.8 143.8 83.6 C 144.7 82.5 145.8 81.6 147.3 80.9 C 148.7 80.3 150.4 80 152.2 80 C 154.8 80 156.8 80.5 158.3 81.7 C 159.8 82.8 160.9 84.3 161.5 86.2 Z M 178.3 107 C 175.7 107 173.6 106.5 171.7 105.4 C 169.9 104.2 168.5 102.7 167.5 100.7 C 166.5 98.6 166 96.3 166 93.6 C 166 90.9 166.5 88.6 167.5 86.5 C 168.5 84.5 169.9 82.9 171.6 81.7 C 173.4 80.6 175.5 80 177.8 80 C 179.2 80 180.6 80.2 181.9 80.7 C 183.2 81.1 184.4 81.8 185.5 82.9 C 186.6 83.9 187.5 85.2 188.1 86.9 C 188.8 88.6 189.1 90.6 189.1 93.1 C 189.09 93.07 189.1 94.8 189.1 94.8 L 168.9 94.8 L 168.9 91.3 C 168.9 91.3 185 91.3 185 91.3 C 185 89.8 184.7 88.5 184.1 87.3 C 183.5 86.2 182.7 85.3 181.6 84.6 C 180.6 83.9 179.3 83.6 177.8 83.6 C 176.2 83.6 174.9 84 173.7 84.8 C 172.5 85.6 171.6 86.6 171 87.9 C 170.4 89.1 170.1 90.5 170.1 91.9 C 170.1 91.9 170.1 94.2 170.1 94.2 C 170.1 96.2 170.4 97.9 171.1 99.2 C 171.8 100.6 172.7 101.7 174 102.4 C 175.2 103.1 176.6 103.4 178.3 103.4 C 179.3 103.4 180.3 103.3 181.1 103 C 182 102.7 182.7 102.2 183.3 101.6 C 184 101 184.5 100.3 184.8 99.3 C 184.8 99.3 188.7 100.4 188.7 100.4 C 188.3 101.8 187.6 102.9 186.6 103.9 C 185.7 104.9 184.5 105.7 183 106.2 C 181.6 106.8 180 107 178.3 107 Z M 197.1 106.8 C 196.2 106.8 195.5 106.5 194.9 105.9 C 194.3 105.3 194 104.5 194 103.7 C 194 102.9 194.3 102.1 194.9 101.5 C 195.5 100.9 196.2 100.6 197.1 100.6 C 197.9 100.6 198.6 100.9 199.2 101.5 C 199.8 102.1 200.1 102.9 200.1 103.7 C 200.1 104.3 200 104.8 199.7 105.2 C 199.4 105.7 199.1 106.1 198.6 106.4 C 198.2 106.6 197.6 106.8 197.1 106.8 Z M 207.9 71.6 C 207.9 71.6 207.88 74.66 207.9 74.7 C 207.9 75.6 207.7 76.6 207.4 77.6 C 207 78.7 206.6 79.7 205.9 80.7 C 205.3 81.7 204.5 82.5 203.6 83.3 C 203.6 83.3 201.4 81.5 201.4 81.5 C 202.1 80.5 202.7 79.4 203.3 78.3 C 203.8 77.2 204.1 76 204.1 74.7 C 204.06 74.73 204.1 71.6 204.1 71.6 L 207.9 71.6 Z M 216.6 71.6 C 216.6 71.6 216.6 74.66 216.6 74.7 C 216.6 75.6 216.4 76.6 216.1 77.6 C 215.8 78.7 215.3 79.7 214.6 80.7 C 214 81.7 213.2 82.5 212.3 83.3 C 212.3 83.3 210.1 81.5 210.1 81.5 C 210.8 80.5 211.5 79.4 212 78.3 C 212.5 77.2 212.8 76 212.8 74.7 C 212.79 74.73 212.8 71.6 212.8 71.6 L 216.6 71.6 Z " stroke="none" fill="#ffffff"/>  </g>  <g id="Polygon120069">    <path d="M 2.3 22.5 C 2.3 22.5 2.32 19.43 2.3 19.4 C 2.3 18.5 2.5 17.5 2.8 16.5 C 3.2 15.4 3.6 14.4 4.3 13.4 C 4.9 12.4 5.7 11.6 6.6 10.8 C 6.6 10.8 8.8 12.6 8.8 12.6 C 8.1 13.6 7.5 14.7 6.9 15.8 C 6.4 16.9 6.1 18.1 6.1 19.4 C 6.14 19.36 6.1 22.5 6.1 22.5 L 2.3 22.5 Z M 11 22.5 C 11 22.5 11.05 19.43 11 19.4 C 11 18.5 11.2 17.5 11.5 16.5 C 11.9 15.4 12.4 14.4 13 13.4 C 13.7 12.4 14.4 11.6 15.3 10.8 C 15.3 10.8 17.5 12.6 17.5 12.6 C 16.8 13.6 16.2 14.7 15.7 15.8 C 15.1 16.9 14.9 18.1 14.9 19.4 C 14.86 19.36 14.9 22.5 14.9 22.5 L 11 22.5 Z M 20.6 46.5 L 16.2 46.5 L 29 11.6 L 33.4 11.6 L 46.2 46.5 L 41.8 46.5 L 31.3 17.1 L 31.1 17.1 L 20.6 46.5 Z M 22.3 32.9 L 40.1 32.9 L 40.1 36.6 L 22.3 36.6 L 22.3 32.9 Z M 55.4 11.6 L 55.4 46.5 L 51.1 46.5 L 51.1 11.6 L 55.4 11.6 Z M 76.8 46.5 L 76.8 20.3 L 80.8 20.3 L 80.8 46.5 L 76.8 46.5 Z M 78.8 16 C 78 16 77.4 15.7 76.8 15.2 C 76.2 14.6 76 14 76 13.2 C 76 12.5 76.2 11.8 76.8 11.3 C 77.4 10.8 78 10.5 78.8 10.5 C 79.6 10.5 80.3 10.8 80.8 11.3 C 81.4 11.8 81.7 12.5 81.7 13.2 C 81.7 14 81.4 14.6 80.8 15.2 C 80.3 15.7 79.6 16 78.8 16 Z M 105.9 26.2 C 105.9 26.2 102.3 27.2 102.3 27.2 C 102 26.6 101.7 26 101.3 25.4 C 100.8 24.9 100.2 24.4 99.5 24 C 98.7 23.6 97.8 23.5 96.6 23.5 C 95 23.5 93.7 23.8 92.6 24.6 C 91.6 25.3 91 26.2 91 27.3 C 91 28.3 91.4 29.1 92.1 29.7 C 92.8 30.3 94 30.8 95.5 31.2 C 95.5 31.2 99.4 32.1 99.4 32.1 C 101.8 32.7 103.5 33.5 104.6 34.7 C 105.8 35.9 106.4 37.4 106.4 39.2 C 106.4 40.7 105.9 42 105.1 43.2 C 104.2 44.4 103 45.3 101.5 46 C 100 46.7 98.2 47 96.1 47 C 93.5 47 91.3 46.5 89.5 45.3 C 87.8 44.1 86.7 42.5 86.2 40.2 C 86.2 40.2 90 39.3 90 39.3 C 90.4 40.7 91.1 41.7 92.1 42.4 C 93.1 43.1 94.4 43.5 96.1 43.5 C 97.9 43.5 99.4 43.1 100.5 42.3 C 101.7 41.5 102.2 40.5 102.2 39.4 C 102.2 38.5 101.9 37.7 101.3 37.1 C 100.6 36.5 99.6 36 98.3 35.7 C 98.3 35.7 94 34.7 94 34.7 C 91.6 34.1 89.8 33.3 88.7 32.1 C 87.6 30.9 87 29.4 87 27.5 C 87 26.1 87.4 24.8 88.3 23.6 C 89.1 22.5 90.2 21.6 91.7 20.9 C 93.1 20.3 94.8 20 96.6 20 C 99.2 20 101.2 20.5 102.7 21.7 C 104.2 22.8 105.3 24.3 105.9 26.2 Z M 144.5 26.2 C 144.5 26.2 140.9 27.2 140.9 27.2 C 140.6 26.6 140.3 26 139.9 25.4 C 139.4 24.9 138.8 24.4 138.1 24 C 137.3 23.6 136.4 23.5 135.2 23.5 C 133.6 23.5 132.3 23.8 131.2 24.6 C 130.1 25.3 129.6 26.2 129.6 27.3 C 129.6 28.3 130 29.1 130.7 29.7 C 131.4 30.3 132.6 30.8 134.1 31.2 C 134.1 31.2 138 32.1 138 32.1 C 140.3 32.7 142.1 33.5 143.2 34.7 C 144.4 35.9 145 37.4 145 39.2 C 145 40.7 144.5 42 143.7 43.2 C 142.8 44.4 141.6 45.3 140.1 46 C 138.5 46.7 136.8 47 134.7 47 C 132.1 47 129.8 46.5 128.1 45.3 C 126.3 44.1 125.2 42.5 124.8 40.2 C 124.8 40.2 128.6 39.3 128.6 39.3 C 129 40.7 129.6 41.7 130.7 42.4 C 131.7 43.1 133 43.5 134.7 43.5 C 136.5 43.5 138 43.1 139.1 42.3 C 140.2 41.5 140.8 40.5 140.8 39.4 C 140.8 38.5 140.5 37.7 139.8 37.1 C 139.2 36.5 138.2 36 136.9 35.7 C 136.9 35.7 132.5 34.7 132.5 34.7 C 130.2 34.1 128.4 33.3 127.3 32.1 C 126.2 30.9 125.6 29.4 125.6 27.5 C 125.6 26.1 126 24.8 126.8 23.6 C 127.7 22.5 128.8 21.6 130.3 20.9 C 131.7 20.3 133.4 20 135.2 20 C 137.8 20 139.8 20.5 141.3 21.7 C 142.8 22.8 143.9 24.3 144.5 26.2 Z M 150.3 46.5 L 150.3 20.3 L 154.3 20.3 L 154.3 46.5 L 150.3 46.5 Z M 152.3 16 C 151.5 16 150.9 15.7 150.3 15.2 C 149.7 14.6 149.4 14 149.4 13.2 C 149.4 12.5 149.7 11.8 150.3 11.3 C 150.9 10.8 151.5 10.5 152.3 10.5 C 153.1 10.5 153.8 10.8 154.3 11.3 C 154.9 11.8 155.2 12.5 155.2 13.2 C 155.2 14 154.9 14.6 154.3 15.2 C 153.8 15.7 153.1 16 152.3 16 Z M 161.1 46.5 L 161.1 20.3 L 165 20.3 L 165 24.4 C 165 24.4 165.37 24.41 165.4 24.4 C 165.9 23 166.8 21.9 168 21.1 C 169.2 20.4 170.7 20 172.4 20 C 174.1 20 175.6 20.4 176.7 21.1 C 177.9 21.9 178.8 23 179.4 24.4 C 179.4 24.4 179.7 24.4 179.7 24.4 C 180.4 23.1 181.4 22 182.7 21.2 C 184 20.4 185.7 20 187.5 20 C 189.9 20 191.8 20.7 193.3 22.2 C 194.8 23.6 195.5 25.9 195.5 29 C 195.5 28.98 195.5 46.5 195.5 46.5 L 191.5 46.5 C 191.5 46.5 191.48 28.98 191.5 29 C 191.5 27 191 25.7 189.9 24.8 C 188.8 24 187.6 23.6 186.2 23.6 C 184.3 23.6 182.9 24.1 181.9 25.3 C 180.9 26.4 180.4 27.8 180.4 29.5 C 180.37 29.45 180.4 46.5 180.4 46.5 L 176.3 46.5 C 176.3 46.5 176.28 28.57 176.3 28.6 C 176.3 27.1 175.8 25.9 174.8 25 C 173.9 24 172.6 23.6 171.1 23.6 C 170 23.6 169.1 23.9 168.2 24.4 C 167.3 25 166.5 25.8 166 26.7 C 165.4 27.7 165.2 28.9 165.2 30.1 C 165.16 30.14 165.2 46.5 165.2 46.5 L 161.1 46.5 Z M 202.3 56.3 L 202.3 20.3 L 206.2 20.3 L 206.2 24.5 C 206.2 24.5 206.64 24.48 206.6 24.5 C 206.9 24 207.4 23.4 207.9 22.7 C 208.4 22 209.2 21.4 210.2 20.8 C 211.2 20.3 212.5 20 214.2 20 C 216.4 20 218.4 20.5 220 21.6 C 221.7 22.7 223 24.3 224 26.3 C 224.9 28.3 225.4 30.7 225.4 33.5 C 225.4 36.3 224.9 38.7 224 40.7 C 223 42.7 221.7 44.3 220.1 45.4 C 218.4 46.5 216.5 47 214.3 47 C 212.6 47 211.3 46.8 210.2 46.2 C 209.2 45.6 208.5 45 207.9 44.3 C 207.4 43.6 206.9 43 206.6 42.5 C 206.64 42.48 206.3 42.5 206.3 42.5 L 206.3 56.3 L 202.3 56.3 Z M 206.2 33.4 C 206.2 35.4 206.5 37.1 207.1 38.6 C 207.7 40.1 208.5 41.3 209.6 42.2 C 210.8 43 212.1 43.4 213.7 43.4 C 215.4 43.4 216.8 43 218 42.1 C 219.1 41.2 219.9 40 220.5 38.5 C 221.1 37 221.4 35.3 221.4 33.4 C 221.4 31.6 221.1 29.9 220.5 28.4 C 220 26.9 219.1 25.8 218 24.9 C 216.9 24 215.4 23.6 213.7 23.6 C 212.1 23.6 210.7 24 209.6 24.8 C 208.5 25.7 207.7 26.8 207.1 28.3 C 206.5 29.7 206.2 31.5 206.2 33.4 Z M 235.1 11.6 L 235.1 46.5 L 231.1 46.5 L 231.1 11.6 L 235.1 11.6 Z M 252.9 47 C 250.4 47 248.2 46.5 246.4 45.4 C 244.6 44.2 243.2 42.7 242.2 40.7 C 241.2 38.6 240.7 36.3 240.7 33.6 C 240.7 30.9 241.2 28.6 242.2 26.5 C 243.2 24.5 244.5 22.9 246.3 21.7 C 248.1 20.6 250.1 20 252.5 20 C 253.9 20 255.2 20.2 256.5 20.7 C 257.9 21.1 259.1 21.8 260.2 22.9 C 261.3 23.9 262.1 25.2 262.8 26.9 C 263.4 28.6 263.8 30.6 263.8 33.1 C 263.75 33.07 263.8 34.8 263.8 34.8 L 243.6 34.8 L 243.6 31.3 C 243.6 31.3 259.66 31.3 259.7 31.3 C 259.7 29.8 259.4 28.5 258.8 27.3 C 258.2 26.2 257.4 25.3 256.3 24.6 C 255.2 23.9 254 23.6 252.5 23.6 C 250.9 23.6 249.5 24 248.4 24.8 C 247.2 25.6 246.3 26.6 245.7 27.9 C 245 29.1 244.7 30.5 244.7 31.9 C 244.7 31.9 244.7 34.2 244.7 34.2 C 244.7 36.2 245.1 37.9 245.8 39.2 C 246.4 40.6 247.4 41.7 248.6 42.4 C 249.9 43.1 251.3 43.4 252.9 43.4 C 254 43.4 254.9 43.3 255.8 43 C 256.6 42.7 257.4 42.2 258 41.6 C 258.6 41 259.1 40.3 259.5 39.3 C 259.5 39.3 263.3 40.4 263.3 40.4 C 262.9 41.8 262.2 42.9 261.3 43.9 C 260.3 44.9 259.1 45.7 257.7 46.2 C 256.3 46.8 254.7 47 252.9 47 Z M 294.8 20.3 L 294.8 23.7 L 281.2 23.7 L 281.2 20.3 L 294.8 20.3 Z M 285.2 14 L 289.2 14 C 289.2 14 289.18 39 289.2 39 C 289.2 40.1 289.4 41 289.7 41.5 C 290 42.1 290.5 42.5 291 42.7 C 291.5 42.9 292.1 43 292.7 43 C 293.1 43 293.5 42.9 293.8 42.9 C 294 42.8 294.3 42.8 294.4 42.8 C 294.4 42.8 295.3 46.4 295.3 46.4 C 295 46.5 294.6 46.6 294.1 46.7 C 293.6 46.8 293 46.8 292.3 46.8 C 291.1 46.8 290 46.6 288.9 46.1 C 287.8 45.6 286.9 44.9 286.2 43.9 C 285.5 42.9 285.2 41.6 285.2 40.1 C 285.16 40.09 285.2 14 285.2 14 Z M 309.5 47 C 307.2 47 305.1 46.5 303.3 45.4 C 301.5 44.2 300.2 42.7 299.2 40.6 C 298.2 38.6 297.7 36.3 297.7 33.5 C 297.7 30.8 298.2 28.4 299.2 26.4 C 300.2 24.4 301.5 22.8 303.3 21.7 C 305.1 20.5 307.2 20 309.5 20 C 311.9 20 314 20.5 315.7 21.7 C 317.5 22.8 318.9 24.4 319.9 26.4 C 320.9 28.4 321.4 30.8 321.4 33.5 C 321.4 36.3 320.9 38.6 319.9 40.6 C 318.9 42.7 317.5 44.2 315.7 45.4 C 314 46.5 311.9 47 309.5 47 Z M 309.5 43.4 C 311.3 43.4 312.8 43 314 42.1 C 315.1 41.1 316 39.9 316.5 38.4 C 317.1 36.9 317.4 35.3 317.4 33.5 C 317.4 31.8 317.1 30.2 316.5 28.7 C 316 27.1 315.1 25.9 314 25 C 312.8 24.1 311.3 23.6 309.5 23.6 C 307.7 23.6 306.3 24.1 305.1 25 C 303.9 25.9 303.1 27.1 302.5 28.7 C 302 30.2 301.7 31.8 301.7 33.5 C 301.7 35.3 302 36.9 302.5 38.4 C 303.1 39.9 303.9 41.1 305.1 42.1 C 306.3 43 307.7 43.4 309.5 43.4 Z M 350.9 47 C 348.7 47 346.8 46.5 345.1 45.4 C 343.5 44.3 342.2 42.7 341.2 40.7 C 340.3 38.7 339.8 36.3 339.8 33.5 C 339.8 30.7 340.3 28.3 341.2 26.3 C 342.2 24.3 343.5 22.7 345.2 21.6 C 346.8 20.5 348.8 20 351 20 C 352.7 20 354 20.3 355 20.8 C 356 21.4 356.8 22 357.3 22.7 C 357.8 23.4 358.3 24 358.6 24.5 C 358.55 24.48 358.9 24.5 358.9 24.5 L 358.9 11.6 L 362.9 11.6 L 362.9 46.5 L 359 46.5 L 359 42.5 C 359 42.5 358.55 42.48 358.6 42.5 C 358.3 43 357.8 43.6 357.3 44.3 C 356.7 45 356 45.6 355 46.2 C 353.9 46.8 352.6 47 350.9 47 Z M 351.5 43.4 C 353.1 43.4 354.4 43 355.6 42.2 C 356.7 41.3 357.5 40.1 358.1 38.6 C 358.7 37.1 359 35.4 359 33.4 C 359 31.5 358.7 29.7 358.1 28.3 C 357.5 26.8 356.7 25.7 355.6 24.8 C 354.5 24 353.1 23.6 351.5 23.6 C 349.8 23.6 348.3 24 347.2 24.9 C 346.1 25.8 345.2 26.9 344.7 28.4 C 344.1 29.9 343.8 31.6 343.8 33.4 C 343.8 35.3 344.1 37 344.7 38.5 C 345.3 40 346.1 41.2 347.2 42.1 C 348.4 43 349.8 43.4 351.5 43.4 Z M 381 47 C 378.4 47 376.3 46.5 374.4 45.4 C 372.6 44.2 371.2 42.7 370.2 40.7 C 369.2 38.6 368.7 36.3 368.7 33.6 C 368.7 30.9 369.2 28.6 370.2 26.5 C 371.2 24.5 372.6 22.9 374.3 21.7 C 376.1 20.6 378.2 20 380.5 20 C 381.9 20 383.3 20.2 384.6 20.7 C 385.9 21.1 387.1 21.8 388.2 22.9 C 389.3 23.9 390.2 25.2 390.8 26.9 C 391.5 28.6 391.8 30.6 391.8 33.1 C 391.79 33.07 391.8 34.8 391.8 34.8 L 371.6 34.8 L 371.6 31.3 C 371.6 31.3 387.7 31.3 387.7 31.3 C 387.7 29.8 387.4 28.5 386.8 27.3 C 386.2 26.2 385.4 25.3 384.3 24.6 C 383.3 23.9 382 23.6 380.5 23.6 C 378.9 23.6 377.6 24 376.4 24.8 C 375.2 25.6 374.3 26.6 373.7 27.9 C 373.1 29.1 372.8 30.5 372.8 31.9 C 372.8 31.9 372.8 34.2 372.8 34.2 C 372.8 36.2 373.1 37.9 373.8 39.2 C 374.5 40.6 375.4 41.7 376.7 42.4 C 377.9 43.1 379.3 43.4 381 43.4 C 382 43.4 383 43.3 383.8 43 C 384.7 42.7 385.4 42.2 386 41.6 C 386.7 41 387.2 40.3 387.5 39.3 C 387.5 39.3 391.4 40.4 391.4 40.4 C 391 41.8 390.3 42.9 389.3 43.9 C 388.4 44.9 387.2 45.7 385.7 46.2 C 384.3 46.8 382.7 47 381 47 Z M 397.4 56.3 L 397.4 20.3 L 401.3 20.3 L 401.3 24.5 C 401.3 24.5 401.76 24.48 401.8 24.5 C 402.1 24 402.5 23.4 403 22.7 C 403.5 22 404.3 21.4 405.3 20.8 C 406.3 20.3 407.6 20 409.3 20 C 411.5 20 413.5 20.5 415.2 21.6 C 416.8 22.7 418.2 24.3 419.1 26.3 C 420 28.3 420.5 30.7 420.5 33.5 C 420.5 36.3 420 38.7 419.1 40.7 C 418.2 42.7 416.8 44.3 415.2 45.4 C 413.5 46.5 411.6 47 409.4 47 C 407.7 47 406.4 46.8 405.4 46.2 C 404.3 45.6 403.6 45 403 44.3 C 402.5 43.6 402.1 43 401.8 42.5 C 401.76 42.48 401.4 42.5 401.4 42.5 L 401.4 56.3 L 397.4 56.3 Z M 401.4 33.4 C 401.4 35.4 401.6 37.1 402.2 38.6 C 402.8 40.1 403.6 41.3 404.8 42.2 C 405.9 43 407.2 43.4 408.9 43.4 C 410.5 43.4 411.9 43 413.1 42.1 C 414.2 41.2 415.1 40 415.6 38.5 C 416.2 37 416.5 35.3 416.5 33.4 C 416.5 31.6 416.2 29.9 415.6 28.4 C 415.1 26.9 414.2 25.8 413.1 24.9 C 412 24 410.6 23.6 408.9 23.6 C 407.2 23.6 405.8 24 404.7 24.8 C 403.6 25.7 402.8 26.8 402.2 28.3 C 401.6 29.7 401.4 31.5 401.4 33.4 Z M 430.2 11.6 L 430.2 46.5 L 426.2 46.5 L 426.2 11.6 L 430.2 11.6 Z M 447.7 47 C 445.3 47 443.2 46.5 441.5 45.4 C 439.7 44.2 438.3 42.7 437.3 40.6 C 436.3 38.6 435.8 36.3 435.8 33.5 C 435.8 30.8 436.3 28.4 437.3 26.4 C 438.3 24.4 439.7 22.8 441.5 21.7 C 443.2 20.5 445.3 20 447.7 20 C 450 20 452.1 20.5 453.9 21.7 C 455.7 22.8 457.1 24.4 458.1 26.4 C 459.1 28.4 459.5 30.8 459.5 33.5 C 459.5 36.3 459.1 38.6 458.1 40.6 C 457.1 42.7 455.7 44.2 453.9 45.4 C 452.1 46.5 450 47 447.7 47 Z M 447.7 43.4 C 449.5 43.4 451 43 452.1 42.1 C 453.3 41.1 454.1 39.9 454.7 38.4 C 455.2 36.9 455.5 35.3 455.5 33.5 C 455.5 31.8 455.2 30.2 454.7 28.7 C 454.1 27.1 453.3 25.9 452.1 25 C 451 24.1 449.5 23.6 447.7 23.6 C 445.9 23.6 444.4 24.1 443.3 25 C 442.1 25.9 441.2 27.1 440.7 28.7 C 440.1 30.2 439.8 31.8 439.8 33.5 C 439.8 35.3 440.1 36.9 440.7 38.4 C 441.2 39.9 442.1 41.1 443.3 42.1 C 444.4 43 445.9 43.4 447.7 43.4 Z M 466.4 56.3 C 465.7 56.3 465.1 56.3 464.6 56.2 C 464 56 463.7 55.9 463.4 55.8 C 463.4 55.8 464.5 52.3 464.5 52.3 C 465.4 52.5 466.3 52.6 467.1 52.6 C 467.8 52.5 468.5 52.2 469.1 51.6 C 469.6 51 470.2 50 470.7 48.7 C 470.67 48.68 471.4 46.6 471.4 46.6 L 461.7 20.3 L 466.1 20.3 L 473.3 41.2 L 473.6 41.2 L 480.8 20.3 L 485.2 20.3 C 485.2 20.3 474.08 50.32 474.1 50.3 C 473.6 51.7 473 52.8 472.2 53.7 C 471.5 54.6 470.6 55.2 469.7 55.7 C 468.7 56.1 467.6 56.3 466.4 56.3 Z " stroke="none" fill="#ffffff"/>  </g></svg>