<?xml version="1.0" standalone="no"?><!DOCTYPE svg PUBLIC "-//W3C//DTD SVG 1.1//EN" "http://www.w3.org/Graphics/SVG/1.1/DTD/svg11.dtd"><svg xmlns="http://www.w3.org/2000/svg" version="1.1" width="300px" height="115.7px" viewBox="0 -16 300 115.7" style="top:-16px">  <desc>Everyone’s selling it.</desc>  <defs/>  <g id="Polygon108085">    <path d="M 86.9 60.2 C 86.9 60.2 83.9 61 83.9 61 C 83.7 60.5 83.4 60 83 59.5 C 82.7 59.1 82.2 58.7 81.5 58.4 C 80.9 58 80.1 57.9 79.1 57.9 C 77.8 57.9 76.7 58.2 75.8 58.8 C 74.9 59.4 74.5 60.2 74.5 61.1 C 74.5 62 74.8 62.6 75.4 63.1 C 76 63.6 76.9 64 78.2 64.3 C 78.2 64.3 81.5 65.1 81.5 65.1 C 83.4 65.6 84.9 66.3 85.8 67.3 C 86.8 68.2 87.3 69.5 87.3 71 C 87.3 72.3 86.9 73.4 86.2 74.4 C 85.5 75.3 84.5 76.1 83.2 76.7 C 81.9 77.3 80.4 77.5 78.7 77.5 C 76.5 77.5 74.7 77.1 73.2 76.1 C 71.8 75.1 70.8 73.7 70.4 71.9 C 70.4 71.9 73.6 71.1 73.6 71.1 C 73.9 72.2 74.5 73.1 75.4 73.7 C 76.2 74.3 77.3 74.6 78.7 74.6 C 80.2 74.6 81.5 74.3 82.4 73.6 C 83.3 72.9 83.8 72.1 83.8 71.2 C 83.8 70.4 83.5 69.8 83 69.3 C 82.5 68.8 81.7 68.4 80.6 68.1 C 80.6 68.1 76.9 67.3 76.9 67.3 C 74.9 66.8 73.5 66.1 72.5 65.1 C 71.6 64.1 71.1 62.8 71.1 61.3 C 71.1 60.1 71.5 59 72.2 58 C 72.9 57.1 73.8 56.3 75 55.8 C 76.2 55.3 77.6 55 79.1 55 C 81.3 55 83 55.5 84.2 56.4 C 85.5 57.4 86.3 58.6 86.9 60.2 Z M 100.9 77.5 C 98.8 77.5 97 77.1 95.5 76.1 C 94 75.2 92.8 73.9 92 72.2 C 91.2 70.5 90.8 68.6 90.8 66.4 C 90.8 64.1 91.2 62.1 92 60.4 C 92.8 58.7 94 57.4 95.4 56.4 C 96.9 55.5 98.6 55 100.6 55 C 101.7 55 102.9 55.2 104 55.6 C 105.1 55.9 106.1 56.5 107 57.4 C 107.9 58.2 108.6 59.4 109.2 60.8 C 109.7 62.1 110 63.9 110 65.9 C 109.97 65.9 110 67.3 110 67.3 L 93.2 67.3 L 93.2 64.4 C 93.2 64.4 106.57 64.42 106.6 64.4 C 106.6 63.2 106.3 62.1 105.8 61.1 C 105.3 60.2 104.7 59.4 103.8 58.8 C 102.9 58.3 101.8 58 100.6 58 C 99.3 58 98.1 58.3 97.1 59 C 96.2 59.6 95.4 60.5 94.9 61.6 C 94.4 62.6 94.1 63.7 94.1 64.9 C 94.1 64.9 94.1 66.9 94.1 66.9 C 94.1 68.5 94.4 69.9 95 71 C 95.6 72.2 96.4 73.1 97.4 73.6 C 98.4 74.2 99.6 74.5 100.9 74.5 C 101.8 74.5 102.6 74.4 103.3 74.2 C 104 73.9 104.7 73.5 105.2 73 C 105.7 72.5 106.1 71.9 106.4 71.1 C 106.4 71.1 109.6 72 109.6 72 C 109.3 73.1 108.7 74.1 107.9 74.9 C 107.1 75.8 106.1 76.4 104.9 76.9 C 103.7 77.3 102.4 77.5 100.9 77.5 Z M 118.1 48 L 118.1 77.1 L 114.8 77.1 L 114.8 48 L 118.1 48 Z M 127.3 48 L 127.3 77.1 L 123.9 77.1 L 123.9 48 L 127.3 48 Z M 133.1 77.1 L 133.1 55.3 L 136.4 55.3 L 136.4 77.1 L 133.1 77.1 Z M 134.8 51.6 C 134.1 51.6 133.6 51.4 133.1 51 C 132.7 50.5 132.4 50 132.4 49.4 C 132.4 48.7 132.7 48.2 133.1 47.8 C 133.6 47.3 134.1 47.1 134.8 47.1 C 135.5 47.1 136 47.3 136.5 47.8 C 137 48.2 137.2 48.7 137.2 49.4 C 137.2 50 137 50.5 136.5 51 C 136 51.4 135.5 51.6 134.8 51.6 Z M 145.6 64 C 145.61 63.97 145.6 77.1 145.6 77.1 L 142.3 77.1 L 142.3 55.3 L 145.5 55.3 L 145.5 58.7 C 145.5 58.7 145.78 58.68 145.8 58.7 C 146.3 57.6 147.1 56.7 148.1 56 C 149.2 55.3 150.5 55 152.1 55 C 153.6 55 154.9 55.3 156 55.9 C 157.1 56.5 158 57.4 158.6 58.6 C 159.2 59.8 159.5 61.4 159.5 63.2 C 159.53 63.23 159.5 77.1 159.5 77.1 L 156.2 77.1 C 156.2 77.1 156.18 63.45 156.2 63.5 C 156.2 61.7 155.7 60.4 154.8 59.4 C 154 58.5 152.7 58 151.2 58 C 150.1 58 149.2 58.2 148.3 58.7 C 147.5 59.2 146.8 59.8 146.3 60.7 C 145.9 61.6 145.6 62.7 145.6 64 Z M 174 85.7 C 172.4 85.7 171 85.5 169.8 85.1 C 168.6 84.7 167.7 84.2 166.9 83.5 C 166.1 82.8 165.5 82.1 165.1 81.4 C 165.1 81.4 167.7 79.5 167.7 79.5 C 168 79.9 168.4 80.3 168.9 80.8 C 169.3 81.4 170 81.8 170.8 82.2 C 171.6 82.6 172.7 82.8 174 82.8 C 175.7 82.8 177.2 82.3 178.3 81.5 C 179.5 80.6 180.1 79.3 180.1 77.5 C 180.06 77.49 180.1 73.1 180.1 73.1 C 180.1 73.1 179.77 73.06 179.8 73.1 C 179.5 73.5 179.2 73.9 178.7 74.5 C 178.3 75.1 177.6 75.6 176.8 76.1 C 176 76.5 174.8 76.8 173.4 76.8 C 171.6 76.8 170.1 76.3 168.7 75.5 C 167.3 74.7 166.2 73.5 165.4 71.9 C 164.6 70.3 164.1 68.3 164.1 66.1 C 164.1 63.8 164.5 61.9 165.3 60.2 C 166.1 58.6 167.2 57.3 168.6 56.4 C 170 55.4 171.6 55 173.5 55 C 174.9 55 176 55.2 176.9 55.7 C 177.7 56.2 178.3 56.7 178.8 57.3 C 179.2 57.9 179.6 58.4 179.8 58.7 C 179.83 58.74 180.2 58.7 180.2 58.7 L 180.2 55.3 L 183.4 55.3 C 183.4 55.3 183.41 77.72 183.4 77.7 C 183.4 79.6 183 81.1 182.1 82.3 C 181.3 83.5 180.2 84.3 178.7 84.9 C 177.3 85.5 175.7 85.7 174 85.7 Z M 173.9 73.7 C 175.2 73.7 176.3 73.4 177.3 72.8 C 178.2 72.2 178.9 71.3 179.4 70.2 C 179.9 69 180.1 67.6 180.1 66 C 180.1 64.4 179.9 63.1 179.4 61.8 C 178.9 60.6 178.2 59.7 177.3 59 C 176.4 58.3 175.2 58 173.9 58 C 172.4 58 171.3 58.4 170.3 59.1 C 169.4 59.8 168.7 60.8 168.2 62 C 167.7 63.2 167.5 64.5 167.5 66 C 167.5 67.5 167.7 68.9 168.2 70 C 168.7 71.2 169.4 72.1 170.3 72.8 C 171.3 73.4 172.5 73.7 173.9 73.7 Z M 200.8 77.1 L 200.8 55.3 L 204.1 55.3 L 204.1 77.1 L 200.8 77.1 Z M 202.5 51.6 C 201.8 51.6 201.3 51.4 200.8 51 C 200.3 50.5 200.1 50 200.1 49.4 C 200.1 48.7 200.3 48.2 200.8 47.8 C 201.3 47.3 201.8 47.1 202.5 47.1 C 203.2 47.1 203.7 47.3 204.2 47.8 C 204.7 48.2 204.9 48.7 204.9 49.4 C 204.9 50 204.7 50.5 204.2 51 C 203.7 51.4 203.2 51.6 202.5 51.6 Z M 219.3 55.3 L 219.3 58.1 L 208 58.1 L 208 55.3 L 219.3 55.3 Z M 211.2 50 L 214.6 50 C 214.6 50 214.6 70.84 214.6 70.8 C 214.6 71.8 214.7 72.5 215 73 C 215.3 73.4 215.7 73.7 216.1 73.9 C 216.5 74.1 217 74.1 217.5 74.1 C 217.9 74.1 218.2 74.1 218.4 74.1 C 218.6 74 218.8 74 219 74 C 219 74 219.7 77 219.7 77 C 219.4 77.1 219.1 77.1 218.7 77.2 C 218.3 77.3 217.8 77.4 217.2 77.4 C 216.2 77.4 215.3 77.2 214.4 76.8 C 213.5 76.4 212.7 75.7 212.1 74.9 C 211.5 74.1 211.2 73 211.2 71.8 C 211.25 71.75 211.2 50 211.2 50 Z M 226.1 77.3 C 225.4 77.3 224.8 77.1 224.3 76.6 C 223.8 76.1 223.6 75.5 223.6 74.8 C 223.6 74.1 223.8 73.5 224.3 73 C 224.8 72.5 225.4 72.2 226.1 72.2 C 226.8 72.2 227.5 72.5 228 73 C 228.5 73.5 228.7 74.1 228.7 74.8 C 228.7 75.2 228.6 75.7 228.4 76 C 228.1 76.4 227.8 76.7 227.4 77 C 227.1 77.2 226.6 77.3 226.1 77.3 Z " stroke="none" fill="#ffffff"/>  </g>  <g id="Polygon108084">    <path d="M 54.4 29.1 L 54.4 0 L 72 0 L 72 3.1 L 57.9 3.1 L 57.9 13 L 71 13 L 71 16.1 L 57.9 16.1 L 57.9 26 L 72.2 26 L 72.2 29.1 L 54.4 29.1 Z M 94 7.3 L 85.9 29.1 L 82.5 29.1 L 74.4 7.3 L 78.1 7.3 L 84.1 24.7 L 84.3 24.7 L 90.3 7.3 L 94 7.3 Z M 106.1 29.5 C 104 29.5 102.2 29.1 100.6 28.1 C 99.1 27.2 97.9 25.9 97.1 24.2 C 96.3 22.5 95.9 20.6 95.9 18.4 C 95.9 16.1 96.3 14.1 97.1 12.4 C 97.9 10.7 99.1 9.4 100.6 8.4 C 102 7.5 103.8 7 105.7 7 C 106.9 7 108 7.2 109.1 7.6 C 110.2 7.9 111.2 8.5 112.1 9.4 C 113 10.2 113.8 11.4 114.3 12.8 C 114.8 14.1 115.1 15.9 115.1 17.9 C 115.1 17.9 115.1 19.3 115.1 19.3 L 98.3 19.3 L 98.3 16.4 C 98.3 16.4 111.69 16.42 111.7 16.4 C 111.7 15.2 111.4 14.1 111 13.1 C 110.5 12.2 109.8 11.4 108.9 10.8 C 108 10.3 106.9 10 105.7 10 C 104.4 10 103.2 10.3 102.3 11 C 101.3 11.6 100.6 12.5 100 13.6 C 99.5 14.6 99.2 15.7 99.2 16.9 C 99.2 16.9 99.2 18.9 99.2 18.9 C 99.2 20.5 99.5 21.9 100.1 23 C 100.7 24.2 101.5 25.1 102.5 25.6 C 103.5 26.2 104.7 26.5 106.1 26.5 C 106.9 26.5 107.7 26.4 108.5 26.2 C 109.2 25.9 109.8 25.5 110.3 25 C 110.8 24.5 111.2 23.9 111.5 23.1 C 111.5 23.1 114.8 24 114.8 24 C 114.4 25.1 113.8 26.1 113 26.9 C 112.2 27.8 111.2 28.4 110.1 28.9 C 108.9 29.3 107.5 29.5 106.1 29.5 Z M 119.9 29.1 L 119.9 7.3 L 123.1 7.3 L 123.1 10.6 C 123.1 10.6 123.34 10.57 123.3 10.6 C 123.7 9.5 124.5 8.6 125.5 7.9 C 126.5 7.3 127.7 6.9 129 6.9 C 129.3 6.9 129.6 6.9 129.9 6.9 C 130.3 7 130.6 7 130.8 7 C 130.8 7 130.8 10.4 130.8 10.4 C 130.7 10.4 130.4 10.3 130 10.3 C 129.6 10.2 129.2 10.2 128.7 10.2 C 127.7 10.2 126.7 10.4 125.9 10.8 C 125.1 11.3 124.4 11.9 123.9 12.6 C 123.5 13.4 123.2 14.3 123.2 15.3 C 123.23 15.28 123.2 29.1 123.2 29.1 L 119.9 29.1 Z M 137.5 37.3 C 136.9 37.3 136.4 37.2 136 37.1 C 135.5 37 135.2 37 135 36.9 C 135 36.9 135.9 33.9 135.9 33.9 C 136.7 34.1 137.4 34.2 138 34.1 C 138.7 34.1 139.2 33.8 139.7 33.3 C 140.2 32.8 140.7 32 141.1 30.9 C 141.06 30.91 141.7 29.2 141.7 29.2 L 133.6 7.3 L 137.3 7.3 L 143.3 24.7 L 143.5 24.7 L 149.5 7.3 L 153.2 7.3 C 153.2 7.3 143.9 32.27 143.9 32.3 C 143.5 33.4 143 34.3 142.4 35.1 C 141.7 35.8 141 36.4 140.2 36.7 C 139.4 37.1 138.5 37.3 137.5 37.3 Z M 165 29.5 C 163 29.5 161.3 29.1 159.8 28.1 C 158.3 27.2 157.2 25.9 156.3 24.2 C 155.5 22.5 155.1 20.5 155.1 18.3 C 155.1 16 155.5 14 156.3 12.3 C 157.2 10.6 158.3 9.3 159.8 8.4 C 161.3 7.5 163 7 165 7 C 167 7 168.7 7.5 170.2 8.4 C 171.6 9.3 172.8 10.6 173.6 12.3 C 174.5 14 174.9 16 174.9 18.3 C 174.9 20.5 174.5 22.5 173.6 24.2 C 172.8 25.9 171.6 27.2 170.2 28.1 C 168.7 29.1 167 29.5 165 29.5 Z M 165 26.5 C 166.5 26.5 167.7 26.2 168.7 25.4 C 169.6 24.6 170.4 23.6 170.8 22.4 C 171.3 21.1 171.5 19.8 171.5 18.3 C 171.5 16.8 171.3 15.5 170.8 14.2 C 170.4 13 169.6 11.9 168.7 11.2 C 167.7 10.4 166.5 10 165 10 C 163.5 10 162.3 10.4 161.3 11.2 C 160.3 11.9 159.6 13 159.1 14.2 C 158.7 15.5 158.5 16.8 158.5 18.3 C 158.5 19.8 158.7 21.1 159.1 22.4 C 159.6 23.6 160.3 24.6 161.3 25.4 C 162.3 26.2 163.5 26.5 165 26.5 Z M 183 16 C 183 15.97 183 29.1 183 29.1 L 179.6 29.1 L 179.6 7.3 L 182.9 7.3 L 182.9 10.7 C 182.9 10.7 183.17 10.68 183.2 10.7 C 183.7 9.6 184.5 8.7 185.5 8 C 186.5 7.3 187.9 7 189.5 7 C 191 7 192.3 7.3 193.4 7.9 C 194.5 8.5 195.4 9.4 196 10.6 C 196.6 11.8 196.9 13.4 196.9 15.2 C 196.92 15.23 196.9 29.1 196.9 29.1 L 193.6 29.1 C 193.6 29.1 193.56 15.45 193.6 15.5 C 193.6 13.7 193.1 12.4 192.2 11.4 C 191.3 10.5 190.1 10 188.6 10 C 187.5 10 186.5 10.2 185.7 10.7 C 184.9 11.2 184.2 11.8 183.7 12.7 C 183.2 13.6 183 14.7 183 16 Z M 211.8 29.5 C 209.7 29.5 207.9 29.1 206.3 28.1 C 204.8 27.2 203.7 25.9 202.8 24.2 C 202 22.5 201.6 20.6 201.6 18.4 C 201.6 16.1 202 14.1 202.8 12.4 C 203.7 10.7 204.8 9.4 206.3 8.4 C 207.7 7.5 209.5 7 211.4 7 C 212.6 7 213.7 7.2 214.8 7.6 C 215.9 7.9 216.9 8.5 217.8 9.4 C 218.7 10.2 219.5 11.4 220 12.8 C 220.5 14.1 220.8 15.9 220.8 17.9 C 220.81 17.9 220.8 19.3 220.8 19.3 L 204 19.3 L 204 16.4 C 204 16.4 217.4 16.42 217.4 16.4 C 217.4 15.2 217.2 14.1 216.7 13.1 C 216.2 12.2 215.5 11.4 214.6 10.8 C 213.7 10.3 212.6 10 211.4 10 C 210.1 10 208.9 10.3 208 11 C 207 11.6 206.3 12.5 205.7 13.6 C 205.2 14.6 205 15.7 205 16.9 C 205 16.9 205 18.9 205 18.9 C 205 20.5 205.2 21.9 205.8 23 C 206.4 24.2 207.2 25.1 208.2 25.6 C 209.2 26.2 210.4 26.5 211.8 26.5 C 212.7 26.5 213.5 26.4 214.2 26.2 C 214.9 25.9 215.5 25.5 216 25 C 216.5 24.5 216.9 23.9 217.2 23.1 C 217.2 23.1 220.5 24 220.5 24 C 220.1 25.1 219.6 26.1 218.8 26.9 C 217.9 27.8 217 28.4 215.8 28.9 C 214.6 29.3 213.3 29.5 211.8 29.5 Z M 228.4 0 C 228.4 0 228.36 2.56 228.4 2.6 C 228.4 3.3 228.2 4.2 227.9 5 C 227.7 5.9 227.3 6.8 226.7 7.6 C 226.2 8.4 225.5 9.1 224.8 9.7 C 224.8 9.7 223 8.2 223 8.2 C 223.6 7.4 224.1 6.5 224.5 5.6 C 225 4.7 225.2 3.7 225.2 2.6 C 225.18 2.61 225.2 0 225.2 0 L 228.4 0 Z M 246.7 12.2 C 246.7 12.2 243.7 13 243.7 13 C 243.5 12.5 243.3 12 242.9 11.5 C 242.5 11.1 242 10.7 241.4 10.4 C 240.8 10 240 9.9 239 9.9 C 237.7 9.9 236.6 10.2 235.7 10.8 C 234.8 11.4 234.4 12.2 234.4 13.1 C 234.4 14 234.7 14.6 235.3 15.1 C 235.9 15.6 236.8 16 238.1 16.3 C 238.1 16.3 241.3 17.1 241.3 17.1 C 243.3 17.6 244.7 18.3 245.7 19.3 C 246.7 20.2 247.1 21.5 247.1 23 C 247.1 24.3 246.8 25.4 246.1 26.4 C 245.4 27.3 244.4 28.1 243.1 28.7 C 241.8 29.3 240.3 29.5 238.6 29.5 C 236.4 29.5 234.5 29.1 233.1 28.1 C 231.6 27.1 230.7 25.7 230.3 23.9 C 230.3 23.9 233.5 23.1 233.5 23.1 C 233.8 24.2 234.4 25.1 235.2 25.7 C 236.1 26.3 237.2 26.6 238.6 26.6 C 240.1 26.6 241.4 26.3 242.3 25.6 C 243.2 24.9 243.7 24.1 243.7 23.2 C 243.7 22.4 243.4 21.8 242.9 21.3 C 242.3 20.8 241.5 20.4 240.4 20.1 C 240.4 20.1 236.8 19.3 236.8 19.3 C 234.8 18.8 233.3 18.1 232.4 17.1 C 231.5 16.1 231 14.8 231 13.3 C 231 12.1 231.3 11 232 10 C 232.7 9.1 233.7 8.3 234.9 7.8 C 236.1 7.3 237.5 7 239 7 C 241.2 7 242.9 7.5 244.1 8.4 C 245.3 9.4 246.2 10.6 246.7 12.2 Z " stroke="none" fill="#ffffff"/>  </g></svg>