<?xml version="1.0" standalone="no"?><!DOCTYPE svg PUBLIC "-//W3C//DTD SVG 1.1//EN" "http://www.w3.org/Graphics/SVG/1.1/DTD/svg11.dtd"><svg xmlns="http://www.w3.org/2000/svg" version="1.1" width="228px" height="93.7px" viewBox="0 -13 228 93.7" style="top:-13px">  <desc>Disconnected intelligence</desc>  <defs/>  <g id="Polygon117278">    <path d="M 1.9 61.7 L 1.9 44.2 L 6.8 44.2 L 6.8 61.7 L 1.9 61.7 Z M 4.4 42 C 3.6 42 3 41.7 2.5 41.3 C 2 40.8 1.7 40.2 1.7 39.5 C 1.7 38.9 2 38.3 2.5 37.8 C 3 37.3 3.7 37.1 4.4 37.1 C 5.1 37.1 5.7 37.3 6.2 37.8 C 6.7 38.3 7 38.8 7 39.5 C 7 40.2 6.7 40.8 6.2 41.2 C 5.7 41.7 5.1 42 4.4 42 Z M 15.5 51.6 C 15.51 51.58 15.5 61.7 15.5 61.7 L 10.7 61.7 L 10.7 44.2 L 15.3 44.2 L 15.3 47.3 C 15.3 47.3 15.49 47.3 15.5 47.3 C 15.9 46.3 16.5 45.5 17.4 44.9 C 18.3 44.3 19.4 44 20.7 44 C 21.9 44 23 44.3 23.9 44.8 C 24.8 45.3 25.5 46.1 26 47.1 C 26.5 48 26.8 49.2 26.8 50.6 C 26.76 50.56 26.8 61.7 26.8 61.7 L 21.9 61.7 C 21.9 61.7 21.92 51.42 21.9 51.4 C 21.9 50.4 21.7 49.5 21.1 48.9 C 20.5 48.3 19.8 48 18.8 48 C 18.2 48 17.6 48.2 17.1 48.4 C 16.6 48.7 16.2 49.1 15.9 49.7 C 15.7 50.2 15.5 50.8 15.5 51.6 Z M 39.4 44.2 L 39.4 47.9 L 28.9 47.9 L 28.9 44.2 L 39.4 44.2 Z M 31.3 40 L 36.2 40 C 36.2 40 36.15 56.31 36.2 56.3 C 36.2 56.8 36.2 57.1 36.4 57.3 C 36.5 57.6 36.7 57.8 36.9 57.9 C 37.2 58 37.5 58 37.8 58 C 38 58 38.2 58 38.5 58 C 38.7 57.9 38.9 57.9 39 57.9 C 39 57.9 39.8 61.5 39.8 61.5 C 39.5 61.5 39.2 61.6 38.7 61.7 C 38.3 61.8 37.8 61.9 37.1 61.9 C 36 62 34.9 61.8 34.1 61.4 C 33.2 61.1 32.5 60.5 32 59.8 C 31.5 59 31.3 58.1 31.3 56.9 C 31.31 56.95 31.3 40 31.3 40 Z M 49.9 62 C 48.1 62 46.5 61.6 45.2 60.9 C 44 60.2 43 59.1 42.3 57.8 C 41.6 56.5 41.2 54.9 41.2 53 C 41.2 51.2 41.6 49.7 42.3 48.3 C 43 46.9 43.9 45.9 45.2 45.1 C 46.5 44.4 48 44 49.7 44 C 50.8 44 51.9 44.2 52.9 44.5 C 53.9 44.9 54.8 45.5 55.5 46.2 C 56.3 46.9 56.8 47.9 57.3 49 C 57.7 50.1 57.9 51.4 57.9 52.9 C 57.88 52.85 57.9 54.2 57.9 54.2 L 43.1 54.2 L 43.1 51.2 C 43.1 51.2 53.33 51.18 53.3 51.2 C 53.3 50.5 53.2 49.9 52.9 49.3 C 52.6 48.8 52.2 48.4 51.6 48.1 C 51.1 47.8 50.5 47.6 49.8 47.6 C 49 47.6 48.4 47.8 47.8 48.1 C 47.2 48.4 46.8 48.9 46.5 49.5 C 46.2 50 46 50.7 46 51.3 C 46 51.3 46 54.2 46 54.2 C 46 55.1 46.2 55.8 46.5 56.4 C 46.8 57.1 47.3 57.5 47.9 57.9 C 48.4 58.2 49.1 58.4 50 58.4 C 50.5 58.4 51 58.3 51.4 58.2 C 51.9 58 52.3 57.8 52.6 57.5 C 52.9 57.2 53.1 56.8 53.3 56.4 C 53.3 56.4 57.8 56.7 57.8 56.7 C 57.6 57.7 57.1 58.7 56.4 59.5 C 55.7 60.3 54.8 60.9 53.7 61.3 C 52.6 61.8 51.3 62 49.9 62 Z M 65.9 38.4 L 65.9 61.7 L 61.1 61.7 L 61.1 38.4 L 65.9 38.4 Z M 74.7 38.4 L 74.7 61.7 L 69.8 61.7 L 69.8 38.4 L 74.7 38.4 Z M 78.5 61.7 L 78.5 44.2 L 83.4 44.2 L 83.4 61.7 L 78.5 61.7 Z M 81 42 C 80.3 42 79.6 41.7 79.1 41.3 C 78.6 40.8 78.4 40.2 78.4 39.5 C 78.4 38.9 78.6 38.3 79.1 37.8 C 79.6 37.3 80.3 37.1 81 37.1 C 81.7 37.1 82.3 37.3 82.8 37.8 C 83.3 38.3 83.6 38.8 83.6 39.5 C 83.6 40.2 83.3 40.8 82.8 41.2 C 82.3 41.7 81.7 42 81 42 Z M 95 68.6 C 93.4 68.6 92.1 68.4 91 67.9 C 89.8 67.5 88.9 66.9 88.3 66.2 C 87.6 65.5 87.2 64.6 87 63.7 C 87 63.7 91.5 63.1 91.5 63.1 C 91.6 63.5 91.8 63.8 92.1 64.1 C 92.4 64.4 92.8 64.6 93.3 64.8 C 93.8 65 94.4 65.1 95.1 65.1 C 96.1 65.1 97 64.8 97.7 64.3 C 98.4 63.8 98.7 63 98.7 61.8 C 98.73 61.78 98.7 58.6 98.7 58.6 C 98.7 58.6 98.53 58.58 98.5 58.6 C 98.3 59.1 98 59.5 97.6 60 C 97.1 60.4 96.6 60.7 95.9 61 C 95.3 61.3 94.5 61.4 93.5 61.4 C 92.2 61.4 91 61.1 90 60.5 C 88.9 59.9 88.1 59 87.4 57.7 C 86.8 56.4 86.5 54.8 86.5 52.9 C 86.5 50.9 86.8 49.3 87.4 48 C 88.1 46.6 88.9 45.6 90 45 C 91.1 44.3 92.3 44 93.5 44 C 94.5 44 95.3 44.2 96 44.5 C 96.7 44.8 97.2 45.2 97.6 45.7 C 98 46.2 98.3 46.7 98.5 47.2 C 98.53 47.15 98.7 47.2 98.7 47.2 L 98.7 44.2 L 103.5 44.2 C 103.5 44.2 103.52 61.84 103.5 61.8 C 103.5 63.3 103.2 64.6 102.4 65.6 C 101.7 66.6 100.7 67.3 99.4 67.8 C 98.1 68.3 96.6 68.6 95 68.6 Z M 95.1 57.8 C 95.9 57.8 96.5 57.6 97.1 57.2 C 97.6 56.8 98 56.3 98.3 55.5 C 98.6 54.8 98.8 53.9 98.8 52.9 C 98.8 51.9 98.6 51 98.3 50.2 C 98 49.5 97.6 48.9 97.1 48.5 C 96.5 48.1 95.9 47.8 95.1 47.8 C 94.3 47.8 93.6 48.1 93.1 48.5 C 92.5 48.9 92.1 49.5 91.8 50.3 C 91.6 51 91.4 51.9 91.4 52.9 C 91.4 53.9 91.6 54.8 91.8 55.5 C 92.1 56.2 92.5 56.8 93.1 57.2 C 93.6 57.6 94.3 57.8 95.1 57.8 Z M 115.3 62 C 113.5 62 112 61.6 110.7 60.9 C 109.4 60.2 108.4 59.1 107.7 57.8 C 107 56.5 106.6 54.9 106.6 53 C 106.6 51.2 107 49.7 107.7 48.3 C 108.4 46.9 109.4 45.9 110.6 45.1 C 111.9 44.4 113.4 44 115.1 44 C 116.2 44 117.3 44.2 118.3 44.5 C 119.3 44.9 120.2 45.5 120.9 46.2 C 121.7 46.9 122.3 47.9 122.7 49 C 123.1 50.1 123.3 51.4 123.3 52.9 C 123.3 52.85 123.3 54.2 123.3 54.2 L 108.6 54.2 L 108.6 51.2 C 108.6 51.2 118.75 51.18 118.7 51.2 C 118.7 50.5 118.6 49.9 118.3 49.3 C 118 48.8 117.6 48.4 117 48.1 C 116.5 47.8 115.9 47.6 115.2 47.6 C 114.4 47.6 113.8 47.8 113.2 48.1 C 112.7 48.4 112.2 48.9 111.9 49.5 C 111.6 50 111.4 50.7 111.4 51.3 C 111.4 51.3 111.4 54.2 111.4 54.2 C 111.4 55.1 111.6 55.8 111.9 56.4 C 112.2 57.1 112.7 57.5 113.3 57.9 C 113.9 58.2 114.6 58.4 115.4 58.4 C 115.9 58.4 116.4 58.3 116.8 58.2 C 117.3 58 117.7 57.8 118 57.5 C 118.3 57.2 118.6 56.8 118.7 56.4 C 118.7 56.4 123.2 56.7 123.2 56.7 C 123 57.7 122.5 58.7 121.8 59.5 C 121.1 60.3 120.2 60.9 119.1 61.3 C 118 61.8 116.7 62 115.3 62 Z M 131.3 51.6 C 131.32 51.58 131.3 61.7 131.3 61.7 L 126.5 61.7 L 126.5 44.2 L 131.1 44.2 L 131.1 47.3 C 131.1 47.3 131.3 47.3 131.3 47.3 C 131.7 46.3 132.3 45.5 133.2 44.9 C 134.2 44.3 135.3 44 136.5 44 C 137.8 44 138.8 44.3 139.7 44.8 C 140.6 45.3 141.3 46.1 141.8 47.1 C 142.3 48 142.6 49.2 142.6 50.6 C 142.57 50.56 142.6 61.7 142.6 61.7 L 137.7 61.7 C 137.7 61.7 137.73 51.42 137.7 51.4 C 137.7 50.4 137.5 49.5 136.9 48.9 C 136.4 48.3 135.6 48 134.6 48 C 134 48 133.4 48.2 132.9 48.4 C 132.4 48.7 132 49.1 131.7 49.7 C 131.5 50.2 131.3 50.8 131.3 51.6 Z M 154.2 62 C 152.4 62 150.8 61.6 149.5 60.9 C 148.3 60.1 147.3 59.1 146.6 57.7 C 145.9 56.3 145.6 54.8 145.6 53 C 145.6 51.2 145.9 49.7 146.6 48.3 C 147.3 47 148.3 45.9 149.6 45.1 C 150.8 44.4 152.4 44 154.1 44 C 155.7 44 157 44.3 158.1 44.8 C 159.3 45.4 160.2 46.2 160.8 47.2 C 161.5 48.2 161.9 49.3 161.9 50.7 C 161.9 50.7 157.4 50.7 157.4 50.7 C 157.3 49.8 156.9 49.1 156.4 48.6 C 155.8 48 155.1 47.8 154.2 47.8 C 153.5 47.8 152.8 48 152.2 48.4 C 151.7 48.8 151.3 49.4 150.9 50.1 C 150.6 50.9 150.5 51.8 150.5 52.9 C 150.5 54.1 150.6 55 150.9 55.8 C 151.2 56.6 151.7 57.2 152.2 57.6 C 152.8 58 153.5 58.2 154.2 58.2 C 154.8 58.2 155.3 58.1 155.7 57.8 C 156.1 57.6 156.5 57.3 156.8 56.8 C 157.1 56.4 157.3 55.9 157.4 55.3 C 157.4 55.3 161.9 55.3 161.9 55.3 C 161.9 56.6 161.5 57.8 160.9 58.8 C 160.2 59.8 159.3 60.6 158.2 61.2 C 157.1 61.7 155.7 62 154.2 62 Z M 172.8 62 C 171 62 169.4 61.6 168.1 60.9 C 166.9 60.2 165.9 59.1 165.2 57.8 C 164.5 56.5 164.1 54.9 164.1 53 C 164.1 51.2 164.5 49.7 165.2 48.3 C 165.9 46.9 166.8 45.9 168.1 45.1 C 169.4 44.4 170.9 44 172.6 44 C 173.7 44 174.8 44.2 175.8 44.5 C 176.8 44.9 177.7 45.5 178.4 46.2 C 179.2 46.9 179.7 47.9 180.2 49 C 180.6 50.1 180.8 51.4 180.8 52.9 C 180.78 52.85 180.8 54.2 180.8 54.2 L 166 54.2 L 166 51.2 C 166 51.2 176.23 51.18 176.2 51.2 C 176.2 50.5 176.1 49.9 175.8 49.3 C 175.5 48.8 175.1 48.4 174.5 48.1 C 174 47.8 173.4 47.6 172.7 47.6 C 171.9 47.6 171.3 47.8 170.7 48.1 C 170.1 48.4 169.7 48.9 169.4 49.5 C 169.1 50 168.9 50.7 168.9 51.3 C 168.9 51.3 168.9 54.2 168.9 54.2 C 168.9 55.1 169.1 55.8 169.4 56.4 C 169.7 57.1 170.2 57.5 170.8 57.9 C 171.3 58.2 172 58.4 172.9 58.4 C 173.4 58.4 173.9 58.3 174.3 58.2 C 174.8 58 175.2 57.8 175.5 57.5 C 175.8 57.2 176 56.8 176.2 56.4 C 176.2 56.4 180.7 56.7 180.7 56.7 C 180.5 57.7 180 58.7 179.3 59.5 C 178.6 60.3 177.7 60.9 176.6 61.3 C 175.5 61.8 174.2 62 172.8 62 Z " stroke="none" fill="#10283d"/>  </g>  <g id="Polygon117277">    <path d="M 10.3 23.3 C 10.27 23.27 2 23.3 2 23.3 L 2 0 C 2 0 10.34 0 10.3 0 C 12.7 0 14.7 0.5 16.4 1.4 C 18.1 2.3 19.4 3.7 20.3 5.4 C 21.2 7.1 21.7 9.2 21.7 11.6 C 21.7 14 21.2 16.1 20.3 17.9 C 19.4 19.6 18.1 20.9 16.4 21.9 C 14.7 22.8 12.6 23.3 10.3 23.3 Z M 6.9 19.1 C 6.9 19.1 10.07 19.06 10.1 19.1 C 11.5 19.1 12.7 18.8 13.7 18.3 C 14.7 17.8 15.5 17 16 15.9 C 16.5 14.8 16.7 13.3 16.7 11.6 C 16.7 9.9 16.5 8.5 16 7.4 C 15.5 6.3 14.7 5.5 13.7 5 C 12.8 4.5 11.5 4.2 10.1 4.2 C 10.08 4.22 6.9 4.2 6.9 4.2 L 6.9 19.1 Z M 25.2 23.3 L 25.2 5.8 L 30.1 5.8 L 30.1 23.3 L 25.2 23.3 Z M 27.7 3.6 C 26.9 3.6 26.3 3.3 25.8 2.9 C 25.3 2.4 25 1.8 25 1.1 C 25 0.5 25.3 -0.1 25.8 -0.6 C 26.3 -1.1 26.9 -1.3 27.7 -1.3 C 28.4 -1.3 29 -1.1 29.5 -0.6 C 30 -0.1 30.3 0.4 30.3 1.1 C 30.3 1.8 30 2.4 29.5 2.8 C 29 3.3 28.4 3.6 27.7 3.6 Z M 48.3 10.8 C 48.3 10.8 43.9 11.1 43.9 11.1 C 43.8 10.7 43.6 10.3 43.4 10 C 43.1 9.7 42.8 9.5 42.4 9.3 C 42 9.1 41.5 9 41 9 C 40.2 9 39.6 9.2 39.1 9.5 C 38.6 9.8 38.3 10.2 38.3 10.8 C 38.3 11.2 38.5 11.5 38.8 11.8 C 39.1 12.1 39.7 12.3 40.5 12.5 C 40.5 12.5 43.7 13.1 43.7 13.1 C 45.4 13.5 46.6 14 47.5 14.8 C 48.3 15.6 48.7 16.6 48.7 17.9 C 48.7 19 48.4 20 47.7 20.9 C 47 21.7 46.1 22.4 45 22.9 C 43.8 23.4 42.5 23.6 40.9 23.6 C 38.6 23.6 36.8 23.1 35.4 22.2 C 34.1 21.2 33.3 19.9 33 18.2 C 33 18.2 37.8 18 37.8 18 C 37.9 18.7 38.3 19.2 38.8 19.6 C 39.4 19.9 40.1 20.1 41 20.1 C 41.8 20.1 42.5 20 43 19.6 C 43.5 19.3 43.8 18.9 43.8 18.4 C 43.8 17.9 43.6 17.6 43.2 17.3 C 42.9 17 42.3 16.8 41.6 16.6 C 41.6 16.6 38.5 16 38.5 16 C 36.8 15.7 35.6 15.1 34.7 14.2 C 33.9 13.4 33.5 12.3 33.5 11 C 33.5 9.9 33.8 8.9 34.4 8.1 C 35 7.3 35.9 6.7 37 6.3 C 38.1 5.8 39.4 5.6 40.9 5.6 C 43.1 5.6 44.8 6.1 46.1 7 C 47.4 7.9 48.1 9.2 48.3 10.8 Z M 59.4 23.6 C 57.6 23.6 56.1 23.2 54.8 22.5 C 53.5 21.7 52.6 20.7 51.9 19.3 C 51.2 17.9 50.8 16.4 50.8 14.6 C 50.8 12.8 51.2 11.3 51.9 9.9 C 52.6 8.6 53.6 7.5 54.8 6.7 C 56.1 6 57.6 5.6 59.4 5.6 C 60.9 5.6 62.3 5.9 63.4 6.4 C 64.6 7 65.5 7.8 66.1 8.8 C 66.8 9.8 67.2 10.9 67.2 12.3 C 67.2 12.3 62.7 12.3 62.7 12.3 C 62.5 11.4 62.2 10.7 61.6 10.2 C 61.1 9.6 60.4 9.4 59.5 9.4 C 58.7 9.4 58.1 9.6 57.5 10 C 57 10.4 56.5 11 56.2 11.7 C 55.9 12.5 55.8 13.4 55.8 14.5 C 55.8 15.7 55.9 16.6 56.2 17.4 C 56.5 18.2 57 18.8 57.5 19.2 C 58.1 19.6 58.7 19.8 59.5 19.8 C 60 19.8 60.5 19.7 61 19.4 C 61.4 19.2 61.8 18.9 62.1 18.4 C 62.4 18 62.6 17.5 62.7 16.9 C 62.7 16.9 67.2 16.9 67.2 16.9 C 67.1 18.2 66.8 19.4 66.1 20.4 C 65.5 21.4 64.6 22.2 63.5 22.8 C 62.3 23.3 61 23.6 59.4 23.6 Z M 78 23.6 C 76.2 23.6 74.7 23.2 73.4 22.5 C 72.1 21.7 71.1 20.7 70.4 19.3 C 69.7 18 69.4 16.4 69.4 14.6 C 69.4 12.8 69.7 11.2 70.4 9.9 C 71.1 8.5 72.1 7.5 73.4 6.7 C 74.7 6 76.2 5.6 78 5.6 C 79.7 5.6 81.3 6 82.6 6.7 C 83.8 7.5 84.8 8.5 85.5 9.9 C 86.2 11.2 86.6 12.8 86.6 14.6 C 86.6 16.4 86.2 18 85.5 19.3 C 84.8 20.7 83.8 21.7 82.6 22.5 C 81.3 23.2 79.7 23.6 78 23.6 Z M 78 19.9 C 78.8 19.9 79.5 19.6 80 19.2 C 80.6 18.7 81 18.1 81.2 17.3 C 81.5 16.5 81.7 15.6 81.7 14.6 C 81.7 13.6 81.5 12.7 81.2 11.9 C 81 11.1 80.6 10.4 80 10 C 79.5 9.5 78.8 9.3 78 9.3 C 77.2 9.3 76.5 9.5 76 10 C 75.4 10.4 75 11.1 74.7 11.9 C 74.4 12.7 74.3 13.6 74.3 14.6 C 74.3 15.6 74.4 16.5 74.7 17.3 C 75 18.1 75.4 18.7 76 19.2 C 76.5 19.6 77.2 19.9 78 19.9 Z M 94.5 13.2 C 94.49 13.18 94.5 23.3 94.5 23.3 L 89.6 23.3 L 89.6 5.8 L 94.3 5.8 L 94.3 8.9 C 94.3 8.9 94.46 8.9 94.5 8.9 C 94.8 7.9 95.5 7.1 96.4 6.5 C 97.3 5.9 98.4 5.6 99.7 5.6 C 100.9 5.6 102 5.9 102.9 6.4 C 103.8 6.9 104.5 7.7 105 8.7 C 105.5 9.6 105.7 10.8 105.7 12.2 C 105.74 12.16 105.7 23.3 105.7 23.3 L 100.9 23.3 C 100.9 23.3 100.9 13.02 100.9 13 C 100.9 12 100.6 11.1 100.1 10.5 C 99.5 9.9 98.8 9.6 97.8 9.6 C 97.1 9.6 96.6 9.8 96.1 10 C 95.6 10.3 95.2 10.7 94.9 11.3 C 94.6 11.8 94.5 12.4 94.5 13.2 Z M 114.4 13.2 C 114.4 13.18 114.4 23.3 114.4 23.3 L 109.6 23.3 L 109.6 5.8 L 114.2 5.8 L 114.2 8.9 C 114.2 8.9 114.38 8.9 114.4 8.9 C 114.8 7.9 115.4 7.1 116.3 6.5 C 117.2 5.9 118.3 5.6 119.6 5.6 C 120.8 5.6 121.9 5.9 122.8 6.4 C 123.7 6.9 124.4 7.7 124.9 8.7 C 125.4 9.6 125.7 10.8 125.7 12.2 C 125.65 12.16 125.7 23.3 125.7 23.3 L 120.8 23.3 C 120.8 23.3 120.81 13.02 120.8 13 C 120.8 12 120.5 11.1 120 10.5 C 119.4 9.9 118.7 9.6 117.7 9.6 C 117.1 9.6 116.5 9.8 116 10 C 115.5 10.3 115.1 10.7 114.8 11.3 C 114.6 11.8 114.4 12.4 114.4 13.2 Z M 137.3 23.6 C 135.5 23.6 134 23.2 132.7 22.5 C 131.4 21.8 130.4 20.7 129.7 19.4 C 129 18.1 128.6 16.5 128.6 14.6 C 128.6 12.8 129 11.3 129.7 9.9 C 130.4 8.5 131.4 7.5 132.6 6.7 C 133.9 6 135.4 5.6 137.1 5.6 C 138.3 5.6 139.3 5.8 140.3 6.1 C 141.3 6.5 142.2 7.1 142.9 7.8 C 143.7 8.5 144.3 9.5 144.7 10.6 C 145.1 11.7 145.3 13 145.3 14.5 C 145.31 14.45 145.3 15.8 145.3 15.8 L 130.6 15.8 L 130.6 12.8 C 130.6 12.8 140.76 12.78 140.8 12.8 C 140.8 12.1 140.6 11.5 140.3 10.9 C 140 10.4 139.6 10 139 9.7 C 138.5 9.4 137.9 9.2 137.2 9.2 C 136.5 9.2 135.8 9.4 135.2 9.7 C 134.7 10 134.2 10.5 133.9 11.1 C 133.6 11.6 133.4 12.3 133.4 12.9 C 133.4 12.9 133.4 15.8 133.4 15.8 C 133.4 16.7 133.6 17.4 133.9 18 C 134.2 18.7 134.7 19.1 135.3 19.5 C 135.9 19.8 136.6 20 137.4 20 C 137.9 20 138.4 19.9 138.9 19.8 C 139.3 19.6 139.7 19.4 140 19.1 C 140.3 18.8 140.6 18.4 140.7 18 C 140.7 18 145.2 18.3 145.2 18.3 C 145 19.3 144.5 20.3 143.8 21.1 C 143.1 21.9 142.2 22.5 141.1 22.9 C 140 23.4 138.7 23.6 137.3 23.6 Z M 156.2 23.6 C 154.5 23.6 152.9 23.2 151.6 22.5 C 150.3 21.7 149.4 20.7 148.7 19.3 C 148 17.9 147.6 16.4 147.6 14.6 C 147.6 12.8 148 11.3 148.7 9.9 C 149.4 8.6 150.4 7.5 151.6 6.7 C 152.9 6 154.5 5.6 156.2 5.6 C 157.7 5.6 159.1 5.9 160.2 6.4 C 161.4 7 162.3 7.8 162.9 8.8 C 163.6 9.8 164 10.9 164 12.3 C 164 12.3 159.5 12.3 159.5 12.3 C 159.3 11.4 159 10.7 158.5 10.2 C 157.9 9.6 157.2 9.4 156.3 9.4 C 155.5 9.4 154.9 9.6 154.3 10 C 153.8 10.4 153.3 11 153 11.7 C 152.7 12.5 152.6 13.4 152.6 14.5 C 152.6 15.7 152.7 16.6 153 17.4 C 153.3 18.2 153.8 18.8 154.3 19.2 C 154.9 19.6 155.5 19.8 156.3 19.8 C 156.8 19.8 157.3 19.7 157.8 19.4 C 158.2 19.2 158.6 18.9 158.9 18.4 C 159.2 18 159.4 17.5 159.5 16.9 C 159.5 16.9 164 16.9 164 16.9 C 164 18.2 163.6 19.4 163 20.4 C 162.3 21.4 161.4 22.2 160.3 22.8 C 159.1 23.3 157.8 23.6 156.2 23.6 Z M 176.3 5.8 L 176.3 9.5 L 165.7 9.5 L 165.7 5.8 L 176.3 5.8 Z M 168.1 1.6 L 173 1.6 C 173 1.6 172.97 17.91 173 17.9 C 173 18.4 173 18.7 173.2 18.9 C 173.3 19.2 173.5 19.4 173.8 19.5 C 174 19.6 174.3 19.6 174.6 19.6 C 174.8 19.6 175.1 19.6 175.3 19.6 C 175.5 19.5 175.7 19.5 175.8 19.5 C 175.8 19.5 176.6 23.1 176.6 23.1 C 176.3 23.1 176 23.2 175.6 23.3 C 175.1 23.4 174.6 23.5 174 23.5 C 172.8 23.6 171.8 23.4 170.9 23 C 170 22.7 169.3 22.1 168.8 21.4 C 168.4 20.6 168.1 19.7 168.1 18.5 C 168.13 18.55 168.1 1.6 168.1 1.6 Z M 186.7 23.6 C 184.9 23.6 183.4 23.2 182.1 22.5 C 180.8 21.8 179.8 20.7 179.1 19.4 C 178.4 18.1 178 16.5 178 14.6 C 178 12.8 178.4 11.3 179.1 9.9 C 179.8 8.5 180.8 7.5 182 6.7 C 183.3 6 184.8 5.6 186.5 5.6 C 187.7 5.6 188.7 5.8 189.7 6.1 C 190.7 6.5 191.6 7.1 192.3 7.8 C 193.1 8.5 193.7 9.5 194.1 10.6 C 194.5 11.7 194.7 13 194.7 14.5 C 194.71 14.45 194.7 15.8 194.7 15.8 L 180 15.8 L 180 12.8 C 180 12.8 190.15 12.78 190.1 12.8 C 190.1 12.1 190 11.5 189.7 10.9 C 189.4 10.4 189 10 188.4 9.7 C 187.9 9.4 187.3 9.2 186.6 9.2 C 185.8 9.2 185.2 9.4 184.6 9.7 C 184.1 10 183.6 10.5 183.3 11.1 C 183 11.6 182.8 12.3 182.8 12.9 C 182.8 12.9 182.8 15.8 182.8 15.8 C 182.8 16.7 183 17.4 183.3 18 C 183.6 18.7 184.1 19.1 184.7 19.5 C 185.3 19.8 186 20 186.8 20 C 187.3 20 187.8 19.9 188.3 19.8 C 188.7 19.6 189.1 19.4 189.4 19.1 C 189.7 18.8 190 18.4 190.1 18 C 190.1 18 194.6 18.3 194.6 18.3 C 194.4 19.3 193.9 20.3 193.2 21.1 C 192.5 21.9 191.6 22.5 190.5 22.9 C 189.4 23.4 188.1 23.6 186.7 23.6 Z M 204.2 23.6 C 202.9 23.6 201.7 23.2 200.6 22.5 C 199.6 21.8 198.7 20.8 198.1 19.5 C 197.5 18.2 197.1 16.5 197.1 14.6 C 197.1 12.6 197.5 10.9 198.1 9.6 C 198.7 8.2 199.6 7.2 200.7 6.6 C 201.8 5.9 202.9 5.6 204.2 5.6 C 205.2 5.6 206 5.8 206.7 6.1 C 207.3 6.4 207.8 6.8 208.2 7.3 C 208.7 7.8 209 8.3 209.2 8.8 C 209.17 8.75 209.3 8.8 209.3 8.8 L 209.3 0 L 214.2 0 L 214.2 23.3 L 209.4 23.3 L 209.4 20.5 C 209.4 20.5 209.17 20.48 209.2 20.5 C 208.9 21 208.6 21.4 208.2 21.9 C 207.8 22.4 207.3 22.8 206.6 23.1 C 206 23.4 205.2 23.6 204.2 23.6 Z M 205.8 19.7 C 206.5 19.7 207.2 19.5 207.7 19.1 C 208.3 18.6 208.7 18 209 17.3 C 209.3 16.5 209.4 15.6 209.4 14.5 C 209.4 13.5 209.3 12.6 209 11.8 C 208.7 11.1 208.3 10.5 207.7 10.1 C 207.2 9.7 206.5 9.4 205.8 9.4 C 205 9.4 204.3 9.7 203.7 10.1 C 203.2 10.5 202.8 11.1 202.5 11.9 C 202.2 12.7 202.1 13.5 202.1 14.5 C 202.1 15.6 202.2 16.5 202.5 17.2 C 202.8 18 203.2 18.6 203.7 19.1 C 204.3 19.5 205 19.7 205.8 19.7 Z " stroke="none" fill="#10283d"/>  </g></svg>