<?xml version="1.0" standalone="no"?><!DOCTYPE svg PUBLIC "-//W3C//DTD SVG 1.1//EN" "http://www.w3.org/Graphics/SVG/1.1/DTD/svg11.dtd"><svg xmlns="http://www.w3.org/2000/svg" version="1.1" width="605.4px" height="152px" viewBox="0 -17 605.4 152" style="top:-17px">  <desc>Promise vs. functionality ￼ Immature AI delivers underwhelming results. More about this ￼</desc>  <defs/>  <g id="Polygon112323">    <path d="M 1.6 101.1 L 6.3 101.1 L 11.3 113.3 L 11.5 113.3 L 16.5 101.1 L 21.3 101.1 L 21.3 119.3 L 17.6 119.3 L 17.6 107.4 L 17.4 107.4 L 12.7 119.2 L 10.2 119.2 L 5.5 107.4 L 5.3 107.4 L 5.3 119.3 L 1.6 119.3 L 1.6 101.1 Z M 30.5 119.5 C 29.1 119.5 27.9 119.2 26.9 118.7 C 25.9 118.1 25.1 117.2 24.6 116.2 C 24.1 115.1 23.8 113.9 23.8 112.5 C 23.8 111.1 24.1 109.9 24.6 108.8 C 25.1 107.8 25.9 106.9 26.9 106.3 C 27.9 105.8 29.1 105.5 30.5 105.5 C 31.9 105.5 33.1 105.8 34.1 106.3 C 35.1 106.9 35.8 107.8 36.4 108.8 C 36.9 109.9 37.2 111.1 37.2 112.5 C 37.2 113.9 36.9 115.1 36.4 116.2 C 35.8 117.2 35.1 118.1 34.1 118.7 C 33.1 119.2 31.9 119.5 30.5 119.5 Z M 30.5 116.6 C 31.1 116.6 31.7 116.4 32.1 116.1 C 32.5 115.7 32.8 115.2 33 114.6 C 33.3 114 33.4 113.3 33.4 112.5 C 33.4 111.7 33.3 111 33 110.4 C 32.8 109.7 32.5 109.2 32.1 108.9 C 31.7 108.5 31.1 108.3 30.5 108.3 C 29.9 108.3 29.4 108.5 28.9 108.9 C 28.5 109.2 28.2 109.7 28 110.4 C 27.7 111 27.6 111.7 27.6 112.5 C 27.6 113.3 27.7 114 28 114.6 C 28.2 115.2 28.5 115.7 28.9 116.1 C 29.4 116.4 29.9 116.6 30.5 116.6 Z M 39.6 119.3 L 39.6 105.6 L 43.3 105.6 L 43.3 108 C 43.3 108 43.4 108.02 43.4 108 C 43.6 107.2 44.1 106.5 44.6 106.1 C 45.2 105.7 45.9 105.4 46.7 105.4 C 46.9 105.4 47.1 105.5 47.3 105.5 C 47.5 105.5 47.7 105.5 47.9 105.6 C 47.9 105.6 47.9 108.9 47.9 108.9 C 47.7 108.9 47.4 108.8 47.1 108.8 C 46.8 108.7 46.5 108.7 46.3 108.7 C 45.7 108.7 45.2 108.8 44.8 109.1 C 44.3 109.3 44 109.7 43.7 110.1 C 43.5 110.5 43.4 111 43.4 111.6 C 43.37 111.56 43.4 119.3 43.4 119.3 L 39.6 119.3 Z M 55.6 119.5 C 54.2 119.5 53 119.3 52 118.7 C 51 118.1 50.2 117.3 49.7 116.2 C 49.1 115.2 48.9 114 48.9 112.5 C 48.9 111.1 49.1 109.9 49.7 108.8 C 50.2 107.8 51 106.9 52 106.3 C 53 105.8 54.2 105.5 55.5 105.5 C 56.4 105.5 57.2 105.6 58 105.9 C 58.8 106.2 59.5 106.6 60 107.2 C 60.6 107.8 61.1 108.5 61.4 109.3 C 61.7 110.2 61.9 111.2 61.9 112.4 C 61.9 112.38 61.9 113.4 61.9 113.4 L 50.4 113.4 L 50.4 111.1 C 50.4 111.1 58.34 111.08 58.3 111.1 C 58.3 110.5 58.2 110.1 58 109.6 C 57.7 109.2 57.4 108.9 57 108.6 C 56.6 108.4 56.1 108.3 55.6 108.3 C 55 108.3 54.5 108.4 54 108.7 C 53.6 108.9 53.2 109.3 53 109.7 C 52.7 110.2 52.6 110.7 52.6 111.2 C 52.6 111.2 52.6 113.4 52.6 113.4 C 52.6 114.1 52.7 114.7 53 115.2 C 53.2 115.7 53.6 116.1 54.1 116.3 C 54.5 116.6 55.1 116.7 55.7 116.7 C 56.1 116.7 56.5 116.7 56.9 116.5 C 57.2 116.4 57.5 116.2 57.8 116 C 58 115.8 58.2 115.5 58.3 115.1 C 58.3 115.1 61.8 115.4 61.8 115.4 C 61.6 116.2 61.3 116.9 60.7 117.6 C 60.2 118.2 59.5 118.7 58.6 119 C 57.8 119.4 56.8 119.5 55.6 119.5 Z M 74.1 119.5 C 73.2 119.5 72.4 119.4 71.7 119.1 C 71 118.8 70.5 118.3 70.1 117.7 C 69.7 117.1 69.5 116.4 69.5 115.5 C 69.5 114.7 69.7 114.1 69.9 113.6 C 70.2 113 70.6 112.6 71.1 112.3 C 71.6 112 72.1 111.8 72.7 111.6 C 73.3 111.4 74 111.3 74.6 111.3 C 75.4 111.2 76.1 111.1 76.6 111 C 77.1 111 77.4 110.8 77.6 110.7 C 77.8 110.5 78 110.3 78 110 C 78 110 78 110 78 110 C 78 109.4 77.8 109 77.4 108.7 C 77.1 108.4 76.6 108.2 75.9 108.2 C 75.2 108.2 74.7 108.4 74.3 108.7 C 73.9 109 73.6 109.3 73.5 109.8 C 73.5 109.8 70 109.5 70 109.5 C 70.2 108.7 70.5 108 71.1 107.4 C 71.6 106.7 72.2 106.3 73.1 106 C 73.9 105.6 74.9 105.5 75.9 105.5 C 76.7 105.5 77.4 105.5 78.1 105.7 C 78.8 105.9 79.4 106.2 80 106.6 C 80.5 106.9 80.9 107.4 81.3 108 C 81.6 108.6 81.7 109.3 81.7 110.1 C 81.73 110.08 81.7 119.3 81.7 119.3 L 78.1 119.3 L 78.1 117.4 C 78.1 117.4 78.04 117.38 78 117.4 C 77.8 117.8 77.5 118.2 77.2 118.5 C 76.8 118.8 76.4 119.1 75.8 119.3 C 75.3 119.4 74.7 119.5 74.1 119.5 Z M 75.1 116.9 C 75.7 116.9 76.2 116.8 76.6 116.6 C 77 116.4 77.4 116.1 77.6 115.7 C 77.9 115.3 78 114.9 78 114.4 C 78 114.4 78 113 78 113 C 77.9 113 77.7 113.1 77.5 113.2 C 77.3 113.2 77.1 113.3 76.8 113.3 C 76.6 113.4 76.3 113.4 76 113.5 C 75.8 113.5 75.6 113.5 75.4 113.6 C 74.9 113.6 74.5 113.7 74.2 113.9 C 73.9 114 73.6 114.2 73.4 114.4 C 73.2 114.7 73.1 115 73.1 115.3 C 73.1 115.9 73.3 116.2 73.7 116.5 C 74.1 116.8 74.6 116.9 75.1 116.9 Z M 84.5 119.3 L 84.5 101.1 L 88.3 101.1 L 88.3 107.9 C 88.3 107.9 88.38 107.93 88.4 107.9 C 88.5 107.6 88.8 107.2 89.1 106.8 C 89.4 106.4 89.8 106.1 90.3 105.8 C 90.9 105.6 91.5 105.5 92.3 105.5 C 93.3 105.5 94.2 105.7 95 106.2 C 95.9 106.8 96.5 107.5 97 108.6 C 97.5 109.6 97.8 110.9 97.8 112.5 C 97.8 114 97.5 115.3 97 116.3 C 96.6 117.4 95.9 118.2 95.1 118.7 C 94.2 119.2 93.3 119.5 92.3 119.5 C 91.5 119.5 90.9 119.4 90.4 119.1 C 89.9 118.9 89.5 118.6 89.1 118.2 C 88.8 117.8 88.6 117.5 88.4 117.1 C 88.38 117.09 88.2 117.1 88.2 117.1 L 88.2 119.3 L 84.5 119.3 Z M 88.2 112.5 C 88.2 113.3 88.3 114 88.5 114.6 C 88.7 115.2 89.1 115.6 89.5 116 C 89.9 116.3 90.4 116.5 91.1 116.5 C 91.7 116.5 92.2 116.3 92.6 116 C 93 115.6 93.4 115.2 93.6 114.6 C 93.8 113.9 93.9 113.2 93.9 112.5 C 93.9 111.7 93.8 111 93.6 110.4 C 93.4 109.8 93.1 109.3 92.6 109 C 92.2 108.6 91.7 108.5 91.1 108.5 C 90.4 108.5 89.9 108.6 89.5 109 C 89.1 109.3 88.7 109.7 88.5 110.3 C 88.3 110.9 88.2 111.6 88.2 112.5 Z M 106.3 119.5 C 105 119.5 103.8 119.2 102.8 118.7 C 101.8 118.1 101 117.2 100.4 116.2 C 99.9 115.1 99.6 113.9 99.6 112.5 C 99.6 111.1 99.9 109.9 100.4 108.8 C 101 107.8 101.8 106.9 102.8 106.3 C 103.8 105.8 105 105.5 106.3 105.5 C 107.7 105.5 108.9 105.8 109.9 106.3 C 110.9 106.9 111.7 107.8 112.2 108.8 C 112.8 109.9 113 111.1 113 112.5 C 113 113.9 112.8 115.1 112.2 116.2 C 111.7 117.2 110.9 118.1 109.9 118.7 C 108.9 119.2 107.7 119.5 106.3 119.5 Z M 106.4 116.6 C 107 116.6 107.5 116.4 107.9 116.1 C 108.3 115.7 108.7 115.2 108.9 114.6 C 109.1 114 109.2 113.3 109.2 112.5 C 109.2 111.7 109.1 111 108.9 110.4 C 108.7 109.7 108.3 109.2 107.9 108.9 C 107.5 108.5 107 108.3 106.4 108.3 C 105.7 108.3 105.2 108.5 104.8 108.9 C 104.3 109.2 104 109.7 103.8 110.4 C 103.6 111 103.5 111.7 103.5 112.5 C 103.5 113.3 103.6 114 103.8 114.6 C 104 115.2 104.3 115.7 104.8 116.1 C 105.2 116.4 105.7 116.6 106.4 116.6 Z M 124.1 113.5 C 124.08 113.47 124.1 105.6 124.1 105.6 L 127.9 105.6 L 127.9 119.3 L 124.2 119.3 L 124.2 116.8 C 124.2 116.8 124.09 116.8 124.1 116.8 C 123.8 117.6 123.3 118.2 122.6 118.7 C 121.8 119.2 121 119.5 120 119.5 C 119 119.5 118.2 119.2 117.6 118.8 C 116.9 118.4 116.3 117.8 115.9 117.1 C 115.5 116.3 115.3 115.4 115.3 114.3 C 115.34 114.32 115.3 105.6 115.3 105.6 L 119.1 105.6 C 119.1 105.6 119.12 113.64 119.1 113.6 C 119.1 114.4 119.3 115.1 119.8 115.6 C 120.2 116 120.8 116.3 121.5 116.3 C 121.9 116.3 122.4 116.1 122.8 115.9 C 123.2 115.7 123.5 115.4 123.7 115 C 124 114.6 124.1 114.1 124.1 113.5 Z M 138 105.6 L 138 108.5 L 129.7 108.5 L 129.7 105.6 L 138 105.6 Z M 131.6 102.4 L 135.4 102.4 C 135.4 102.4 135.38 115.08 135.4 115.1 C 135.4 115.4 135.4 115.7 135.5 115.9 C 135.7 116.1 135.8 116.2 136 116.3 C 136.2 116.4 136.4 116.4 136.7 116.4 C 136.8 116.4 137 116.4 137.2 116.4 C 137.4 116.3 137.5 116.3 137.6 116.3 C 137.6 116.3 138.2 119.1 138.2 119.1 C 138 119.2 137.7 119.2 137.4 119.3 C 137.1 119.4 136.6 119.4 136.1 119.5 C 135.2 119.5 134.4 119.4 133.8 119.1 C 133.1 118.8 132.5 118.4 132.2 117.8 C 131.8 117.2 131.6 116.5 131.6 115.6 C 131.6 115.58 131.6 102.4 131.6 102.4 Z M 153.5 105.6 L 153.5 108.5 L 145.2 108.5 L 145.2 105.6 L 153.5 105.6 Z M 147.1 102.4 L 150.9 102.4 C 150.9 102.4 150.89 115.08 150.9 115.1 C 150.9 115.4 150.9 115.7 151.1 115.9 C 151.2 116.1 151.3 116.2 151.5 116.3 C 151.7 116.4 151.9 116.4 152.2 116.4 C 152.4 116.4 152.5 116.4 152.7 116.4 C 152.9 116.3 153 116.3 153.1 116.3 C 153.1 116.3 153.7 119.1 153.7 119.1 C 153.5 119.2 153.3 119.2 152.9 119.3 C 152.6 119.4 152.1 119.4 151.7 119.5 C 150.7 119.5 149.9 119.4 149.3 119.1 C 148.6 118.8 148.1 118.4 147.7 117.8 C 147.3 117.2 147.1 116.5 147.1 115.6 C 147.11 115.58 147.1 102.4 147.1 102.4 Z M 159.4 111.4 C 159.4 111.39 159.4 119.3 159.4 119.3 L 155.6 119.3 L 155.6 101.1 L 159.3 101.1 L 159.3 108 C 159.3 108 159.46 108.04 159.5 108 C 159.8 107.2 160.3 106.6 160.9 106.1 C 161.6 105.7 162.5 105.5 163.5 105.5 C 164.5 105.5 165.3 105.7 166 106.1 C 166.7 106.5 167.3 107.1 167.7 107.8 C 168.1 108.6 168.3 109.5 168.2 110.6 C 168.25 110.59 168.2 119.3 168.2 119.3 L 164.5 119.3 C 164.5 119.3 164.46 111.26 164.5 111.3 C 164.5 110.4 164.3 109.8 163.8 109.3 C 163.4 108.8 162.8 108.6 162 108.6 C 161.5 108.6 161.1 108.7 160.7 108.9 C 160.3 109.1 160 109.5 159.7 109.9 C 159.5 110.3 159.4 110.8 159.4 111.4 Z M 171.1 119.3 L 171.1 105.6 L 174.9 105.6 L 174.9 119.3 L 171.1 119.3 Z M 173 103.9 C 172.4 103.9 171.9 103.7 171.5 103.3 C 171.1 102.9 170.9 102.5 170.9 102 C 170.9 101.4 171.1 101 171.5 100.6 C 171.9 100.2 172.4 100.1 173 100.1 C 173.5 100.1 174 100.2 174.4 100.6 C 174.8 101 175 101.4 175 102 C 175 102.5 174.8 102.9 174.4 103.3 C 174 103.7 173.5 103.9 173 103.9 Z M 189 109.5 C 189 109.5 185.5 109.7 185.5 109.7 C 185.5 109.4 185.3 109.2 185.1 108.9 C 184.9 108.7 184.7 108.5 184.4 108.4 C 184.1 108.2 183.7 108.1 183.2 108.1 C 182.7 108.1 182.2 108.3 181.8 108.5 C 181.4 108.8 181.2 109.1 181.2 109.5 C 181.2 109.8 181.3 110.1 181.5 110.3 C 181.8 110.5 182.3 110.7 182.9 110.9 C 182.9 110.9 185.4 111.4 185.4 111.4 C 186.7 111.6 187.7 112.1 188.3 112.7 C 189 113.3 189.3 114.1 189.3 115 C 189.3 115.9 189 116.7 188.5 117.4 C 188 118.1 187.3 118.6 186.4 119 C 185.5 119.4 184.4 119.5 183.2 119.5 C 181.4 119.5 180 119.2 178.9 118.4 C 177.8 117.7 177.2 116.6 177 115.3 C 177 115.3 180.8 115.1 180.8 115.1 C 180.9 115.7 181.1 116.1 181.6 116.4 C 182 116.7 182.6 116.8 183.2 116.8 C 183.9 116.8 184.4 116.7 184.8 116.4 C 185.2 116.2 185.5 115.8 185.5 115.4 C 185.5 115.1 185.3 114.8 185 114.6 C 184.7 114.4 184.3 114.2 183.7 114.1 C 183.7 114.1 181.3 113.6 181.3 113.6 C 180 113.3 179 112.9 178.4 112.2 C 177.7 111.6 177.4 110.7 177.4 109.7 C 177.4 108.8 177.6 108.1 178.1 107.4 C 178.6 106.8 179.3 106.3 180.1 106 C 181 105.6 182 105.5 183.2 105.5 C 184.9 105.5 186.3 105.8 187.3 106.6 C 188.2 107.3 188.8 108.3 189 109.5 Z " stroke="none" fill="#10283d"/>  </g>  <g id="Polygon112322">    <path d="M 4.4 55.1 L 4.4 73.3 L 2.2 73.3 L 2.2 55.1 L 4.4 55.1 Z M 8.5 73.3 L 8.5 59.6 L 10.5 59.6 L 10.5 61.8 C 10.5 61.8 10.69 61.77 10.7 61.8 C 11 61 11.4 60.5 12.1 60.1 C 12.7 59.7 13.5 59.5 14.3 59.5 C 15.2 59.5 16 59.7 16.6 60.1 C 17.2 60.5 17.7 61 18 61.8 C 18 61.8 18.1 61.8 18.1 61.8 C 18.5 61.1 19 60.5 19.7 60.1 C 20.4 59.7 21.3 59.5 22.2 59.5 C 23.4 59.5 24.4 59.8 25.2 60.6 C 26 61.4 26.4 62.5 26.4 64.1 C 26.39 64.15 26.4 73.3 26.4 73.3 L 24.3 73.3 C 24.3 73.3 24.29 64.15 24.3 64.1 C 24.3 63.1 24 62.4 23.5 62 C 22.9 61.6 22.3 61.3 21.5 61.3 C 20.6 61.3 19.8 61.6 19.3 62.2 C 18.8 62.8 18.5 63.5 18.5 64.4 C 18.5 64.39 18.5 73.3 18.5 73.3 L 16.4 73.3 C 16.4 73.3 16.37 63.93 16.4 63.9 C 16.4 63.2 16.1 62.5 15.6 62.1 C 15.1 61.6 14.5 61.3 13.7 61.3 C 13.1 61.3 12.6 61.5 12.1 61.8 C 11.7 62.1 11.3 62.5 11 63 C 10.7 63.5 10.6 64.1 10.6 64.8 C 10.58 64.75 10.6 73.3 10.6 73.3 L 8.5 73.3 Z M 30.1 73.3 L 30.1 59.6 L 32.1 59.6 L 32.1 61.8 C 32.1 61.8 32.31 61.77 32.3 61.8 C 32.6 61 33.1 60.5 33.7 60.1 C 34.3 59.7 35.1 59.5 36 59.5 C 36.9 59.5 37.6 59.7 38.2 60.1 C 38.8 60.5 39.3 61 39.6 61.8 C 39.6 61.8 39.8 61.8 39.8 61.8 C 40.1 61.1 40.6 60.5 41.3 60.1 C 42 59.7 42.9 59.5 43.9 59.5 C 45.1 59.5 46.1 59.8 46.8 60.6 C 47.6 61.4 48 62.5 48 64.1 C 48.01 64.15 48 73.3 48 73.3 L 45.9 73.3 C 45.9 73.3 45.91 64.15 45.9 64.1 C 45.9 63.1 45.6 62.4 45.1 62 C 44.5 61.6 43.9 61.3 43.1 61.3 C 42.2 61.3 41.4 61.6 40.9 62.2 C 40.4 62.8 40.1 63.5 40.1 64.4 C 40.12 64.39 40.1 73.3 40.1 73.3 L 38 73.3 C 38 73.3 37.99 63.93 38 63.9 C 38 63.2 37.7 62.5 37.2 62.1 C 36.7 61.6 36.1 61.3 35.3 61.3 C 34.7 61.3 34.2 61.5 33.8 61.8 C 33.3 62.1 32.9 62.5 32.6 63 C 32.3 63.5 32.2 64.1 32.2 64.8 C 32.2 64.75 32.2 73.3 32.2 73.3 L 30.1 73.3 Z M 55.7 73.6 C 54.8 73.6 54 73.4 53.3 73.1 C 52.6 72.8 52.1 72.3 51.6 71.7 C 51.2 71 51 70.3 51 69.4 C 51 68.6 51.2 68 51.5 67.5 C 51.8 67 52.2 66.6 52.7 66.3 C 53.2 66.1 53.8 65.9 54.4 65.7 C 55 65.6 55.7 65.5 56.3 65.4 C 57.1 65.3 57.8 65.2 58.3 65.1 C 58.8 65.1 59.2 65 59.5 64.9 C 59.7 64.7 59.8 64.5 59.8 64.1 C 59.8 64.1 59.8 64.1 59.8 64.1 C 59.8 63.2 59.6 62.5 59.1 62 C 58.6 61.5 57.9 61.3 56.9 61.3 C 55.9 61.3 55.2 61.5 54.6 62 C 54 62.4 53.6 62.9 53.4 63.4 C 53.4 63.4 51.4 62.7 51.4 62.7 C 51.8 61.8 52.2 61.2 52.8 60.7 C 53.4 60.3 54.1 59.9 54.8 59.7 C 55.5 59.6 56.2 59.5 56.9 59.5 C 57.3 59.5 57.8 59.5 58.4 59.6 C 59 59.7 59.5 59.9 60 60.2 C 60.6 60.6 61 61.1 61.4 61.7 C 61.7 62.3 61.9 63.2 61.9 64.3 C 61.92 64.29 61.9 73.3 61.9 73.3 L 59.8 73.3 L 59.8 71.4 C 59.8 71.4 59.72 71.43 59.7 71.4 C 59.6 71.7 59.3 72 59 72.4 C 58.7 72.7 58.2 73 57.7 73.2 C 57.1 73.5 56.5 73.6 55.7 73.6 Z M 56 71.7 C 56.8 71.7 57.5 71.5 58.1 71.2 C 58.7 70.9 59.1 70.5 59.4 70 C 59.7 69.4 59.8 68.9 59.8 68.3 C 59.8 68.3 59.8 66.4 59.8 66.4 C 59.7 66.5 59.5 66.6 59.2 66.7 C 58.9 66.8 58.6 66.9 58.2 66.9 C 57.8 67 57.4 67 57.1 67.1 C 56.7 67.1 56.4 67.2 56.2 67.2 C 55.7 67.3 55.1 67.4 54.7 67.5 C 54.2 67.7 53.8 67.9 53.5 68.2 C 53.3 68.6 53.1 69 53.1 69.5 C 53.1 70.2 53.4 70.8 53.9 71.2 C 54.5 71.5 55.2 71.7 56 71.7 Z M 71.2 59.6 L 71.2 61.4 L 64.2 61.4 L 64.2 59.6 L 71.2 59.6 Z M 66.2 56.4 L 68.3 56.4 C 68.3 56.4 68.33 69.37 68.3 69.4 C 68.3 70 68.4 70.4 68.6 70.7 C 68.8 71 69 71.2 69.3 71.3 C 69.5 71.4 69.8 71.4 70.1 71.4 C 70.4 71.4 70.6 71.4 70.7 71.4 C 70.9 71.4 71 71.3 71.1 71.3 C 71.1 71.3 71.5 73.2 71.5 73.2 C 71.3 73.3 71.1 73.3 70.9 73.4 C 70.6 73.4 70.3 73.5 69.9 73.5 C 69.3 73.5 68.8 73.3 68.2 73.1 C 67.6 72.8 67.2 72.4 66.8 71.9 C 66.4 71.4 66.2 70.7 66.2 69.9 C 66.23 69.93 66.2 56.4 66.2 56.4 Z M 82.6 67.7 C 82.57 67.7 82.6 59.6 82.6 59.6 L 84.7 59.6 L 84.7 73.3 L 82.6 73.3 L 82.6 71 C 82.6 71 82.43 70.96 82.4 71 C 82.1 71.7 81.6 72.2 80.9 72.7 C 80.3 73.2 79.4 73.5 78.4 73.5 C 77.5 73.5 76.8 73.3 76.1 72.9 C 75.4 72.5 74.9 71.9 74.5 71.2 C 74.2 70.4 74 69.5 74 68.3 C 73.98 68.3 74 59.6 74 59.6 L 76.1 59.6 C 76.1 59.6 76.07 68.16 76.1 68.2 C 76.1 69.2 76.4 69.9 76.9 70.5 C 77.5 71.1 78.2 71.4 79.1 71.4 C 79.6 71.4 80.1 71.3 80.6 71 C 81.2 70.8 81.6 70.4 82 69.8 C 82.4 69.3 82.6 68.5 82.6 67.7 Z M 88.4 73.3 L 88.4 59.6 L 90.4 59.6 L 90.4 61.7 C 90.4 61.7 90.58 61.7 90.6 61.7 C 90.8 61 91.3 60.5 91.9 60.1 C 92.6 59.6 93.3 59.4 94.1 59.4 C 94.3 59.4 94.5 59.4 94.7 59.4 C 94.9 59.4 95.1 59.4 95.2 59.5 C 95.2 59.5 95.2 61.6 95.2 61.6 C 95.2 61.6 95 61.5 94.7 61.5 C 94.5 61.5 94.2 61.4 94 61.4 C 93.3 61.4 92.7 61.6 92.2 61.9 C 91.7 62.1 91.3 62.5 91 63 C 90.7 63.5 90.5 64 90.5 64.6 C 90.51 64.64 90.5 73.3 90.5 73.3 L 88.4 73.3 Z M 103.1 73.6 C 101.7 73.6 100.6 73.3 99.7 72.7 C 98.7 72.1 98 71.3 97.5 70.2 C 97 69.2 96.7 68 96.7 66.6 C 96.7 65.2 97 63.9 97.5 62.9 C 98 61.8 98.7 61 99.6 60.4 C 100.5 59.8 101.6 59.5 102.8 59.5 C 103.6 59.5 104.3 59.6 104.9 59.8 C 105.6 60.1 106.3 60.4 106.8 61 C 107.4 61.5 107.9 62.2 108.2 63.1 C 108.5 63.9 108.7 65 108.7 66.3 C 108.7 66.28 108.7 67.2 108.7 67.2 L 98.2 67.2 L 98.2 65.4 C 98.2 65.4 106.57 65.35 106.6 65.4 C 106.6 64.6 106.4 63.9 106.1 63.3 C 105.8 62.7 105.4 62.2 104.8 61.9 C 104.3 61.5 103.6 61.3 102.8 61.3 C 102 61.3 101.3 61.5 100.7 62 C 100.1 62.4 99.6 62.9 99.3 63.6 C 99 64.2 98.8 64.9 98.8 65.7 C 98.8 65.7 98.8 66.9 98.8 66.9 C 98.8 67.9 99 68.8 99.3 69.5 C 99.7 70.2 100.2 70.8 100.8 71.1 C 101.5 71.5 102.2 71.7 103.1 71.7 C 103.6 71.7 104.1 71.6 104.6 71.4 C 105 71.3 105.4 71 105.7 70.7 C 106 70.4 106.3 70 106.5 69.5 C 106.5 69.5 108.5 70.1 108.5 70.1 C 108.3 70.8 107.9 71.4 107.4 71.9 C 106.9 72.4 106.3 72.8 105.5 73.1 C 104.8 73.4 104 73.6 103.1 73.6 Z M 120 73.3 L 117.6 73.3 L 124.3 55.1 L 126.6 55.1 L 133.3 73.3 L 131 73.3 L 125.5 58 L 125.4 58 L 120 73.3 Z M 120.8 66.2 L 130.1 66.2 L 130.1 68.1 L 120.8 68.1 L 120.8 66.2 Z M 138.3 55.1 L 138.3 73.3 L 136.1 73.3 L 136.1 55.1 L 138.3 55.1 Z M 154.6 73.6 C 153.4 73.6 152.4 73.3 151.5 72.7 C 150.7 72.1 150 71.3 149.5 70.2 C 149 69.2 148.8 67.9 148.8 66.5 C 148.8 65.1 149 63.8 149.5 62.8 C 150 61.7 150.7 60.9 151.6 60.3 C 152.4 59.7 153.4 59.5 154.6 59.5 C 155.5 59.5 156.2 59.6 156.7 59.9 C 157.2 60.2 157.6 60.5 157.9 60.9 C 158.2 61.3 158.4 61.6 158.5 61.8 C 158.53 61.8 158.7 61.8 158.7 61.8 L 158.7 55.1 L 160.8 55.1 L 160.8 73.3 L 158.8 73.3 L 158.8 71.2 C 158.8 71.2 158.53 71.18 158.5 71.2 C 158.4 71.4 158.2 71.7 157.9 72.1 C 157.6 72.5 157.2 72.8 156.7 73.1 C 156.1 73.4 155.4 73.6 154.6 73.6 Z M 154.8 71.7 C 155.7 71.7 156.4 71.5 157 71 C 157.5 70.6 158 70 158.3 69.2 C 158.6 68.4 158.7 67.5 158.7 66.5 C 158.7 65.4 158.6 64.5 158.3 63.8 C 158 63 157.6 62.4 157 62 C 156.4 61.6 155.7 61.3 154.8 61.3 C 153.9 61.3 153.2 61.6 152.6 62 C 152 62.5 151.6 63.1 151.3 63.9 C 151 64.6 150.9 65.5 150.9 66.5 C 150.9 67.4 151 68.3 151.3 69.1 C 151.6 69.9 152.1 70.5 152.6 71 C 153.2 71.4 154 71.7 154.8 71.7 Z M 170.4 73.6 C 169.1 73.6 167.9 73.3 167 72.7 C 166 72.1 165.3 71.3 164.8 70.2 C 164.3 69.2 164 68 164 66.6 C 164 65.2 164.3 63.9 164.8 62.9 C 165.3 61.8 166 61 167 60.4 C 167.9 59.8 169 59.5 170.2 59.5 C 170.9 59.5 171.6 59.6 172.3 59.8 C 173 60.1 173.6 60.4 174.2 61 C 174.7 61.5 175.2 62.2 175.5 63.1 C 175.9 63.9 176 65 176 66.3 C 176.04 66.28 176 67.2 176 67.2 L 165.5 67.2 L 165.5 65.4 C 165.5 65.4 173.91 65.35 173.9 65.4 C 173.9 64.6 173.8 63.9 173.5 63.3 C 173.1 62.7 172.7 62.2 172.2 61.9 C 171.6 61.5 170.9 61.3 170.2 61.3 C 169.3 61.3 168.6 61.5 168 62 C 167.4 62.4 166.9 62.9 166.6 63.6 C 166.3 64.2 166.1 64.9 166.1 65.7 C 166.1 65.7 166.1 66.9 166.1 66.9 C 166.1 67.9 166.3 68.8 166.7 69.5 C 167 70.2 167.5 70.8 168.2 71.1 C 168.8 71.5 169.5 71.7 170.4 71.7 C 170.9 71.7 171.4 71.6 171.9 71.4 C 172.3 71.3 172.7 71 173 70.7 C 173.4 70.4 173.6 70 173.8 69.5 C 173.8 69.5 175.8 70.1 175.8 70.1 C 175.6 70.8 175.3 71.4 174.8 71.9 C 174.3 72.4 173.6 72.8 172.9 73.1 C 172.1 73.4 171.3 73.6 170.4 73.6 Z M 181.3 55.1 L 181.3 73.3 L 179.2 73.3 L 179.2 55.1 L 181.3 55.1 Z M 185 73.3 L 185 59.6 L 187.1 59.6 L 187.1 73.3 L 185 73.3 Z M 186.1 57.4 C 185.7 57.4 185.3 57.2 185.1 56.9 C 184.8 56.7 184.6 56.3 184.6 55.9 C 184.6 55.6 184.8 55.2 185.1 54.9 C 185.3 54.7 185.7 54.5 186.1 54.5 C 186.5 54.5 186.9 54.7 187.2 54.9 C 187.4 55.2 187.6 55.6 187.6 55.9 C 187.6 56.3 187.4 56.7 187.2 56.9 C 186.9 57.2 186.5 57.4 186.1 57.4 Z M 201.9 59.6 L 196.8 73.3 L 194.7 73.3 L 189.7 59.6 L 191.9 59.6 L 195.7 70.5 L 195.9 70.5 L 199.6 59.6 L 201.9 59.6 Z M 209.6 73.6 C 208.3 73.6 207.1 73.3 206.2 72.7 C 205.2 72.1 204.5 71.3 204 70.2 C 203.5 69.2 203.2 68 203.2 66.6 C 203.2 65.2 203.5 63.9 204 62.9 C 204.5 61.8 205.2 61 206.2 60.4 C 207.1 59.8 208.1 59.5 209.4 59.5 C 210.1 59.5 210.8 59.6 211.5 59.8 C 212.2 60.1 212.8 60.4 213.4 61 C 213.9 61.5 214.4 62.2 214.7 63.1 C 215.1 63.9 215.2 65 215.2 66.3 C 215.24 66.28 215.2 67.2 215.2 67.2 L 204.7 67.2 L 204.7 65.4 C 204.7 65.4 213.11 65.35 213.1 65.4 C 213.1 64.6 213 63.9 212.6 63.3 C 212.3 62.7 211.9 62.2 211.4 61.9 C 210.8 61.5 210.1 61.3 209.4 61.3 C 208.5 61.3 207.8 61.5 207.2 62 C 206.6 62.4 206.1 62.9 205.8 63.6 C 205.5 64.2 205.3 64.9 205.3 65.7 C 205.3 65.7 205.3 66.9 205.3 66.9 C 205.3 67.9 205.5 68.8 205.9 69.5 C 206.2 70.2 206.7 70.8 207.4 71.1 C 208 71.5 208.7 71.7 209.6 71.7 C 210.1 71.7 210.6 71.6 211.1 71.4 C 211.5 71.3 211.9 71 212.2 70.7 C 212.6 70.4 212.8 70 213 69.5 C 213 69.5 215 70.1 215 70.1 C 214.8 70.8 214.5 71.4 213.9 71.9 C 213.4 72.4 212.8 72.8 212.1 73.1 C 211.3 73.4 210.5 73.6 209.6 73.6 Z M 218.3 73.3 L 218.3 59.6 L 220.4 59.6 L 220.4 61.7 C 220.4 61.7 220.51 61.7 220.5 61.7 C 220.8 61 221.2 60.5 221.9 60.1 C 222.5 59.6 223.2 59.4 224.1 59.4 C 224.2 59.4 224.4 59.4 224.6 59.4 C 224.9 59.4 225 59.4 225.2 59.5 C 225.2 59.5 225.2 61.6 225.2 61.6 C 225.1 61.6 224.9 61.5 224.7 61.5 C 224.4 61.5 224.2 61.4 223.9 61.4 C 223.2 61.4 222.6 61.6 222.1 61.9 C 221.6 62.1 221.2 62.5 220.9 63 C 220.6 63.5 220.4 64 220.4 64.6 C 220.44 64.64 220.4 73.3 220.4 73.3 L 218.3 73.3 Z M 237.2 62.7 C 237.2 62.7 235.3 63.2 235.3 63.2 C 235.2 62.9 235 62.6 234.8 62.3 C 234.6 62 234.2 61.8 233.9 61.6 C 233.5 61.4 233 61.3 232.4 61.3 C 231.5 61.3 230.8 61.5 230.3 61.8 C 229.7 62.2 229.4 62.7 229.4 63.3 C 229.4 63.8 229.6 64.2 230 64.5 C 230.4 64.8 231 65.1 231.8 65.3 C 231.8 65.3 233.8 65.8 233.8 65.8 C 235 66.1 235.9 66.5 236.5 67.1 C 237.1 67.7 237.4 68.5 237.4 69.5 C 237.4 70.3 237.2 71 236.8 71.6 C 236.3 72.2 235.7 72.7 234.9 73 C 234.1 73.4 233.2 73.6 232.1 73.6 C 230.7 73.6 229.6 73.3 228.7 72.7 C 227.7 72 227.2 71.2 226.9 70 C 226.9 70 228.9 69.5 228.9 69.5 C 229.1 70.2 229.5 70.8 230 71.2 C 230.5 71.5 231.2 71.7 232.1 71.7 C 233 71.7 233.8 71.5 234.4 71.1 C 235 70.7 235.3 70.2 235.3 69.6 C 235.3 69.1 235.1 68.7 234.8 68.4 C 234.4 68.1 233.9 67.8 233.2 67.7 C 233.2 67.7 231 67.1 231 67.1 C 229.7 66.8 228.8 66.4 228.2 65.7 C 227.6 65.1 227.3 64.3 227.3 63.4 C 227.3 62.6 227.6 62 228 61.4 C 228.4 60.8 229 60.3 229.8 60 C 230.5 59.6 231.4 59.5 232.4 59.5 C 233.7 59.5 234.8 59.8 235.5 60.3 C 236.3 60.9 236.9 61.7 237.2 62.7 Z M 256.2 67.7 C 256.22 67.7 256.2 59.6 256.2 59.6 L 258.3 59.6 L 258.3 73.3 L 256.2 73.3 L 256.2 71 C 256.2 71 256.07 70.96 256.1 71 C 255.8 71.7 255.3 72.2 254.6 72.7 C 253.9 73.2 253.1 73.5 252 73.5 C 251.2 73.5 250.4 73.3 249.8 72.9 C 249.1 72.5 248.6 71.9 248.2 71.2 C 247.8 70.4 247.6 69.5 247.6 68.3 C 247.62 68.3 247.6 59.6 247.6 59.6 L 249.7 59.6 C 249.7 59.6 249.72 68.16 249.7 68.2 C 249.7 69.2 250 69.9 250.6 70.5 C 251.1 71.1 251.8 71.4 252.7 71.4 C 253.2 71.4 253.8 71.3 254.3 71 C 254.8 70.8 255.3 70.4 255.7 69.8 C 256 69.3 256.2 68.5 256.2 67.7 Z M 264.2 65.1 C 264.15 65.07 264.2 73.3 264.2 73.3 L 262.1 73.3 L 262.1 59.6 L 264.1 59.6 L 264.1 61.8 C 264.1 61.8 264.26 61.77 264.3 61.8 C 264.6 61.1 265.1 60.5 265.7 60.1 C 266.4 59.7 267.2 59.5 268.2 59.5 C 269.2 59.5 270 59.6 270.7 60 C 271.4 60.4 271.9 61 272.3 61.7 C 272.7 62.5 272.9 63.4 272.9 64.6 C 272.86 64.61 272.9 73.3 272.9 73.3 L 270.8 73.3 C 270.8 73.3 270.76 64.75 270.8 64.8 C 270.8 63.7 270.5 62.8 269.9 62.2 C 269.4 61.6 268.6 61.3 267.6 61.3 C 267 61.3 266.4 61.5 265.8 61.8 C 265.3 62.1 264.9 62.5 264.6 63 C 264.3 63.6 264.2 64.3 264.2 65.1 Z M 281.7 73.6 C 280.6 73.6 279.6 73.3 278.7 72.7 C 277.8 72.1 277.1 71.3 276.6 70.2 C 276.2 69.2 275.9 67.9 275.9 66.5 C 275.9 65.1 276.2 63.8 276.6 62.8 C 277.1 61.7 277.8 60.9 278.7 60.3 C 279.6 59.7 280.6 59.5 281.7 59.5 C 282.6 59.5 283.3 59.6 283.8 59.9 C 284.4 60.2 284.8 60.5 285 60.9 C 285.3 61.3 285.5 61.6 285.7 61.8 C 285.68 61.8 285.9 61.8 285.9 61.8 L 285.9 55.1 L 287.9 55.1 L 287.9 73.3 L 285.9 73.3 L 285.9 71.2 C 285.9 71.2 285.68 71.18 285.7 71.2 C 285.5 71.4 285.3 71.7 285 72.1 C 284.7 72.5 284.3 72.8 283.8 73.1 C 283.3 73.4 282.6 73.6 281.7 73.6 Z M 282 71.7 C 282.8 71.7 283.5 71.5 284.1 71 C 284.7 70.6 285.1 70 285.4 69.2 C 285.7 68.4 285.9 67.5 285.9 66.5 C 285.9 65.4 285.7 64.5 285.4 63.8 C 285.1 63 284.7 62.4 284.1 62 C 283.6 61.6 282.8 61.3 282 61.3 C 281.1 61.3 280.4 61.6 279.8 62 C 279.2 62.5 278.7 63.1 278.4 63.9 C 278.2 64.6 278 65.5 278 66.5 C 278 67.4 278.2 68.3 278.5 69.1 C 278.8 69.9 279.2 70.5 279.8 71 C 280.4 71.4 281.1 71.7 282 71.7 Z M 297.5 73.6 C 296.2 73.6 295.1 73.3 294.1 72.7 C 293.2 72.1 292.5 71.3 292 70.2 C 291.4 69.2 291.2 68 291.2 66.6 C 291.2 65.2 291.4 63.9 292 62.9 C 292.5 61.8 293.2 61 294.1 60.4 C 295 59.8 296.1 59.5 297.3 59.5 C 298 59.5 298.7 59.6 299.4 59.8 C 300.1 60.1 300.8 60.4 301.3 61 C 301.9 61.5 302.3 62.2 302.7 63.1 C 303 63.9 303.2 65 303.2 66.3 C 303.19 66.28 303.2 67.2 303.2 67.2 L 292.7 67.2 L 292.7 65.4 C 292.7 65.4 301.06 65.35 301.1 65.4 C 301.1 64.6 300.9 63.9 300.6 63.3 C 300.3 62.7 299.9 62.2 299.3 61.9 C 298.7 61.5 298.1 61.3 297.3 61.3 C 296.5 61.3 295.8 61.5 295.2 62 C 294.6 62.4 294.1 62.9 293.8 63.6 C 293.4 64.2 293.3 64.9 293.3 65.7 C 293.3 65.7 293.3 66.9 293.3 66.9 C 293.3 67.9 293.5 68.8 293.8 69.5 C 294.2 70.2 294.7 70.8 295.3 71.1 C 296 71.5 296.7 71.7 297.5 71.7 C 298.1 71.7 298.6 71.6 299 71.4 C 299.5 71.3 299.9 71 300.2 70.7 C 300.5 70.4 300.8 70 300.9 69.5 C 300.9 69.5 303 70.1 303 70.1 C 302.8 70.8 302.4 71.4 301.9 71.9 C 301.4 72.4 300.8 72.8 300 73.1 C 299.3 73.4 298.5 73.6 297.5 73.6 Z M 306.3 73.3 L 306.3 59.6 L 308.3 59.6 L 308.3 61.7 C 308.3 61.7 308.46 61.7 308.5 61.7 C 308.7 61 309.2 60.5 309.8 60.1 C 310.5 59.6 311.2 59.4 312 59.4 C 312.2 59.4 312.4 59.4 312.6 59.4 C 312.8 59.4 313 59.4 313.1 59.5 C 313.1 59.5 313.1 61.6 313.1 61.6 C 313 61.6 312.9 61.5 312.6 61.5 C 312.4 61.5 312.1 61.4 311.8 61.4 C 311.2 61.4 310.6 61.6 310.1 61.9 C 309.5 62.1 309.1 62.5 308.8 63 C 308.5 63.5 308.4 64 308.4 64.6 C 308.39 64.64 308.4 73.3 308.4 73.3 L 306.3 73.3 Z M 319.2 73.3 L 315 59.6 L 317.2 59.6 L 320.1 70.1 L 320.3 70.1 L 323.2 59.6 L 325.4 59.6 L 328.3 70 L 328.5 70 L 331.4 59.6 L 333.6 59.6 L 329.4 73.3 L 327.4 73.3 L 324.4 62.8 L 324.2 62.8 L 321.2 73.3 L 319.2 73.3 Z M 338.2 65.1 C 338.25 65.07 338.2 73.3 338.2 73.3 L 336.2 73.3 L 336.2 55.1 L 338.2 55.1 L 338.2 61.8 C 338.2 61.8 338.43 61.77 338.4 61.8 C 338.7 61.1 339.2 60.5 339.9 60.1 C 340.5 59.7 341.4 59.5 342.4 59.5 C 343.4 59.5 344.2 59.6 344.9 60 C 345.6 60.4 346.1 60.9 346.5 61.7 C 346.9 62.5 347.1 63.4 347.1 64.6 C 347.09 64.61 347.1 73.3 347.1 73.3 L 345 73.3 C 345 73.3 345 64.75 345 64.8 C 345 63.7 344.7 62.8 344.2 62.2 C 343.6 61.6 342.8 61.3 341.8 61.3 C 341.1 61.3 340.5 61.5 340 61.8 C 339.5 62.1 339 62.5 338.7 63 C 338.4 63.6 338.2 64.3 338.2 65.1 Z M 356.5 73.6 C 355.2 73.6 354.1 73.3 353.1 72.7 C 352.2 72.1 351.4 71.3 350.9 70.2 C 350.4 69.2 350.2 68 350.2 66.6 C 350.2 65.2 350.4 63.9 350.9 62.9 C 351.4 61.8 352.1 61 353.1 60.4 C 354 59.8 355.1 59.5 356.3 59.5 C 357 59.5 357.7 59.6 358.4 59.8 C 359.1 60.1 359.7 60.4 360.3 61 C 360.9 61.5 361.3 62.2 361.6 63.1 C 362 63.9 362.2 65 362.2 66.3 C 362.16 66.28 362.2 67.2 362.2 67.2 L 351.6 67.2 L 351.6 65.4 C 351.6 65.4 360.02 65.35 360 65.4 C 360 64.6 359.9 63.9 359.6 63.3 C 359.3 62.7 358.8 62.2 358.3 61.9 C 357.7 61.5 357.1 61.3 356.3 61.3 C 355.5 61.3 354.7 61.5 354.1 62 C 353.5 62.4 353.1 62.9 352.7 63.6 C 352.4 64.2 352.2 64.9 352.2 65.7 C 352.2 65.7 352.2 66.9 352.2 66.9 C 352.2 67.9 352.4 68.8 352.8 69.5 C 353.1 70.2 353.6 70.8 354.3 71.1 C 354.9 71.5 355.7 71.7 356.5 71.7 C 357.1 71.7 357.6 71.6 358 71.4 C 358.5 71.3 358.8 71 359.2 70.7 C 359.5 70.4 359.7 70 359.9 69.5 C 359.9 69.5 361.9 70.1 361.9 70.1 C 361.7 70.8 361.4 71.4 360.9 71.9 C 360.4 72.4 359.7 72.8 359 73.1 C 358.3 73.4 357.4 73.6 356.5 73.6 Z M 367.4 55.1 L 367.4 73.3 L 365.3 73.3 L 365.3 55.1 L 367.4 55.1 Z M 371.1 73.3 L 371.1 59.6 L 373.2 59.6 L 373.2 61.8 C 373.2 61.8 373.33 61.77 373.3 61.8 C 373.6 61 374.1 60.5 374.7 60.1 C 375.3 59.7 376.1 59.5 377 59.5 C 377.9 59.5 378.6 59.7 379.2 60.1 C 379.8 60.5 380.3 61 380.6 61.8 C 380.6 61.8 380.8 61.8 380.8 61.8 C 381.1 61.1 381.7 60.5 382.4 60.1 C 383.1 59.7 383.9 59.5 384.9 59.5 C 386.1 59.5 387.1 59.8 387.9 60.6 C 388.6 61.4 389 62.5 389 64.1 C 389.03 64.15 389 73.3 389 73.3 L 386.9 73.3 C 386.9 73.3 386.93 64.15 386.9 64.1 C 386.9 63.1 386.7 62.4 386.1 62 C 385.6 61.6 384.9 61.3 384.2 61.3 C 383.2 61.3 382.5 61.6 381.9 62.2 C 381.4 62.8 381.1 63.5 381.1 64.4 C 381.15 64.39 381.1 73.3 381.1 73.3 L 379 73.3 C 379 73.3 379.01 63.93 379 63.9 C 379 63.2 378.8 62.5 378.3 62.1 C 377.8 61.6 377.1 61.3 376.3 61.3 C 375.8 61.3 375.3 61.5 374.8 61.8 C 374.3 62.1 373.9 62.5 373.7 63 C 373.4 63.5 373.2 64.1 373.2 64.8 C 373.23 64.75 373.2 73.3 373.2 73.3 L 371.1 73.3 Z M 392.7 73.3 L 392.7 59.6 L 394.8 59.6 L 394.8 73.3 L 392.7 73.3 Z M 393.8 57.4 C 393.4 57.4 393 57.2 392.7 56.9 C 392.4 56.7 392.3 56.3 392.3 55.9 C 392.3 55.6 392.4 55.2 392.7 54.9 C 393 54.7 393.4 54.5 393.8 54.5 C 394.2 54.5 394.5 54.7 394.8 54.9 C 395.1 55.2 395.3 55.6 395.3 55.9 C 395.3 56.3 395.1 56.7 394.8 56.9 C 394.5 57.2 394.2 57.4 393.8 57.4 Z M 400.7 65.1 C 400.65 65.07 400.7 73.3 400.7 73.3 L 398.6 73.3 L 398.6 59.6 L 400.6 59.6 L 400.6 61.8 C 400.6 61.8 400.76 61.77 400.8 61.8 C 401.1 61.1 401.6 60.5 402.2 60.1 C 402.9 59.7 403.7 59.5 404.7 59.5 C 405.7 59.5 406.5 59.6 407.2 60 C 407.9 60.4 408.4 61 408.8 61.7 C 409.2 62.5 409.4 63.4 409.4 64.6 C 409.35 64.61 409.4 73.3 409.4 73.3 L 407.3 73.3 C 407.3 73.3 407.26 64.75 407.3 64.8 C 407.3 63.7 407 62.8 406.4 62.2 C 405.9 61.6 405.1 61.3 404.1 61.3 C 403.5 61.3 402.9 61.5 402.3 61.8 C 401.8 62.1 401.4 62.5 401.1 63 C 400.8 63.6 400.7 64.3 400.7 65.1 Z M 418.5 78.7 C 417.5 78.7 416.6 78.5 415.9 78.3 C 415.2 78 414.6 77.7 414.1 77.3 C 413.6 76.9 413.2 76.4 412.9 75.9 C 412.9 75.9 414.6 74.8 414.6 74.8 C 414.8 75 415 75.3 415.3 75.6 C 415.6 75.9 416 76.2 416.5 76.5 C 417 76.7 417.7 76.8 418.5 76.8 C 419.6 76.8 420.5 76.6 421.2 76 C 421.9 75.5 422.3 74.7 422.3 73.5 C 422.31 73.52 422.3 70.8 422.3 70.8 C 422.3 70.8 422.13 70.75 422.1 70.8 C 422 71 421.8 71.3 421.5 71.7 C 421.2 72 420.8 72.4 420.3 72.6 C 419.7 72.9 419 73.1 418.2 73.1 C 417.1 73.1 416.1 72.8 415.2 72.3 C 414.3 71.8 413.6 71 413.1 70 C 412.6 69 412.4 67.8 412.4 66.4 C 412.4 65 412.6 63.8 413.1 62.7 C 413.6 61.7 414.3 60.9 415.2 60.3 C 416 59.7 417 59.5 418.2 59.5 C 419.1 59.5 419.8 59.6 420.3 59.9 C 420.8 60.2 421.2 60.5 421.5 60.9 C 421.8 61.3 422 61.6 422.2 61.8 C 422.16 61.8 422.4 61.8 422.4 61.8 L 422.4 59.6 L 424.4 59.6 C 424.4 59.6 424.4 73.66 424.4 73.7 C 424.4 74.8 424.1 75.8 423.6 76.5 C 423.1 77.3 422.4 77.8 421.5 78.2 C 420.6 78.5 419.6 78.7 418.5 78.7 Z M 418.4 71.2 C 419.3 71.2 420 71 420.6 70.6 C 421.1 70.2 421.6 69.7 421.9 68.9 C 422.2 68.2 422.3 67.4 422.3 66.3 C 422.3 65.4 422.2 64.5 421.9 63.7 C 421.6 63 421.2 62.4 420.6 62 C 420 61.6 419.3 61.3 418.4 61.3 C 417.5 61.3 416.8 61.6 416.2 62 C 415.6 62.5 415.2 63.1 414.9 63.8 C 414.6 64.6 414.5 65.4 414.5 66.3 C 414.5 67.3 414.6 68.1 414.9 68.9 C 415.2 69.6 415.6 70.1 416.2 70.6 C 416.8 71 417.6 71.2 418.4 71.2 Z M 435.3 73.3 L 435.3 59.6 L 437.3 59.6 L 437.3 61.7 C 437.3 61.7 437.43 61.7 437.4 61.7 C 437.7 61 438.1 60.5 438.8 60.1 C 439.4 59.6 440.2 59.4 441 59.4 C 441.1 59.4 441.3 59.4 441.6 59.4 C 441.8 59.4 442 59.4 442.1 59.5 C 442.1 59.5 442.1 61.6 442.1 61.6 C 442 61.6 441.9 61.5 441.6 61.5 C 441.4 61.5 441.1 61.4 440.8 61.4 C 440.1 61.4 439.6 61.6 439 61.9 C 438.5 62.1 438.1 62.5 437.8 63 C 437.5 63.5 437.4 64 437.4 64.6 C 437.36 64.64 437.4 73.3 437.4 73.3 L 435.3 73.3 Z M 449.9 73.6 C 448.6 73.6 447.5 73.3 446.5 72.7 C 445.6 72.1 444.8 71.3 444.3 70.2 C 443.8 69.2 443.6 68 443.6 66.6 C 443.6 65.2 443.8 63.9 444.3 62.9 C 444.8 61.8 445.5 61 446.5 60.4 C 447.4 59.8 448.5 59.5 449.7 59.5 C 450.4 59.5 451.1 59.6 451.8 59.8 C 452.5 60.1 453.1 60.4 453.7 61 C 454.3 61.5 454.7 62.2 455 63.1 C 455.4 63.9 455.6 65 455.6 66.3 C 455.56 66.28 455.6 67.2 455.6 67.2 L 445 67.2 L 445 65.4 C 445 65.4 453.42 65.35 453.4 65.4 C 453.4 64.6 453.3 63.9 453 63.3 C 452.7 62.7 452.2 62.2 451.7 61.9 C 451.1 61.5 450.5 61.3 449.7 61.3 C 448.9 61.3 448.1 61.5 447.5 62 C 446.9 62.4 446.5 62.9 446.1 63.6 C 445.8 64.2 445.6 64.9 445.6 65.7 C 445.6 65.7 445.6 66.9 445.6 66.9 C 445.6 67.9 445.8 68.8 446.2 69.5 C 446.5 70.2 447 70.8 447.7 71.1 C 448.3 71.5 449.1 71.7 449.9 71.7 C 450.5 71.7 451 71.6 451.4 71.4 C 451.9 71.3 452.2 71 452.6 70.7 C 452.9 70.4 453.1 70 453.3 69.5 C 453.3 69.5 455.3 70.1 455.3 70.1 C 455.1 70.8 454.8 71.4 454.3 71.9 C 453.8 72.4 453.1 72.8 452.4 73.1 C 451.7 73.4 450.8 73.6 449.9 73.6 Z M 468.2 62.7 C 468.2 62.7 466.3 63.2 466.3 63.2 C 466.2 62.9 466 62.6 465.8 62.3 C 465.5 62 465.2 61.8 464.8 61.6 C 464.4 61.4 463.9 61.3 463.3 61.3 C 462.5 61.3 461.8 61.5 461.3 61.8 C 460.7 62.2 460.4 62.7 460.4 63.3 C 460.4 63.8 460.6 64.2 461 64.5 C 461.4 64.8 462 65.1 462.8 65.3 C 462.8 65.3 464.8 65.8 464.8 65.8 C 466 66.1 466.9 66.5 467.5 67.1 C 468.1 67.7 468.4 68.5 468.4 69.5 C 468.4 70.3 468.2 71 467.7 71.6 C 467.3 72.2 466.7 72.7 465.9 73 C 465.1 73.4 464.1 73.6 463.1 73.6 C 461.7 73.6 460.5 73.3 459.6 72.7 C 458.7 72 458.1 71.2 457.9 70 C 457.9 70 459.9 69.5 459.9 69.5 C 460.1 70.2 460.4 70.8 461 71.2 C 461.5 71.5 462.2 71.7 463.1 71.7 C 464 71.7 464.8 71.5 465.4 71.1 C 466 70.7 466.3 70.2 466.3 69.6 C 466.3 69.1 466.1 68.7 465.8 68.4 C 465.4 68.1 464.9 67.8 464.2 67.7 C 464.2 67.7 462 67.1 462 67.1 C 460.7 66.8 459.8 66.4 459.2 65.7 C 458.6 65.1 458.3 64.3 458.3 63.4 C 458.3 62.6 458.5 62 459 61.4 C 459.4 60.8 460 60.3 460.8 60 C 461.5 59.6 462.4 59.5 463.3 59.5 C 464.7 59.5 465.7 59.8 466.5 60.3 C 467.3 60.9 467.8 61.7 468.2 62.7 Z M 479.9 67.7 C 479.92 67.7 479.9 59.6 479.9 59.6 L 482 59.6 L 482 73.3 L 479.9 73.3 L 479.9 71 C 479.9 71 479.78 70.96 479.8 71 C 479.5 71.7 479 72.2 478.3 72.7 C 477.6 73.2 476.8 73.5 475.7 73.5 C 474.9 73.5 474.1 73.3 473.5 72.9 C 472.8 72.5 472.3 71.9 471.9 71.2 C 471.5 70.4 471.3 69.5 471.3 68.3 C 471.33 68.3 471.3 59.6 471.3 59.6 L 473.4 59.6 C 473.4 59.6 473.42 68.16 473.4 68.2 C 473.4 69.2 473.7 69.9 474.3 70.5 C 474.8 71.1 475.5 71.4 476.4 71.4 C 476.9 71.4 477.5 71.3 478 71 C 478.5 70.8 479 70.4 479.4 69.8 C 479.7 69.3 479.9 68.5 479.9 67.7 Z M 487.9 55.1 L 487.9 73.3 L 485.8 73.3 L 485.8 55.1 L 487.9 55.1 Z M 497.4 59.6 L 497.4 61.4 L 490.4 61.4 L 490.4 59.6 L 497.4 59.6 Z M 492.4 56.4 L 494.5 56.4 C 494.5 56.4 494.52 69.37 494.5 69.4 C 494.5 70 494.6 70.4 494.8 70.7 C 495 71 495.2 71.2 495.5 71.3 C 495.7 71.4 496 71.4 496.3 71.4 C 496.6 71.4 496.8 71.4 496.9 71.4 C 497 71.4 497.2 71.3 497.3 71.3 C 497.3 71.3 497.7 73.2 497.7 73.2 C 497.5 73.3 497.3 73.3 497.1 73.4 C 496.8 73.4 496.5 73.5 496.1 73.5 C 495.5 73.5 494.9 73.3 494.4 73.1 C 493.8 72.8 493.3 72.4 493 71.9 C 492.6 71.4 492.4 70.7 492.4 69.9 C 492.42 69.93 492.4 56.4 492.4 56.4 Z M 509.9 62.7 C 509.9 62.7 508 63.2 508 63.2 C 507.9 62.9 507.7 62.6 507.5 62.3 C 507.3 62 507 61.8 506.6 61.6 C 506.2 61.4 505.7 61.3 505.1 61.3 C 504.2 61.3 503.5 61.5 503 61.8 C 502.4 62.2 502.2 62.7 502.2 63.3 C 502.2 63.8 502.3 64.2 502.7 64.5 C 503.1 64.8 503.7 65.1 504.5 65.3 C 504.5 65.3 506.5 65.8 506.5 65.8 C 507.7 66.1 508.7 66.5 509.3 67.1 C 509.9 67.7 510.1 68.5 510.1 69.5 C 510.1 70.3 509.9 71 509.5 71.6 C 509 72.2 508.4 72.7 507.6 73 C 506.8 73.4 505.9 73.6 504.8 73.6 C 503.4 73.6 502.3 73.3 501.4 72.7 C 500.5 72 499.9 71.2 499.6 70 C 499.6 70 501.6 69.5 501.6 69.5 C 501.8 70.2 502.2 70.8 502.7 71.2 C 503.2 71.5 503.9 71.7 504.8 71.7 C 505.8 71.7 506.5 71.5 507.1 71.1 C 507.7 70.7 508 70.2 508 69.6 C 508 69.1 507.8 68.7 507.5 68.4 C 507.2 68.1 506.6 67.8 506 67.7 C 506 67.7 503.7 67.1 503.7 67.1 C 502.4 66.8 501.5 66.4 500.9 65.7 C 500.4 65.1 500.1 64.3 500.1 63.4 C 500.1 62.6 500.3 62 500.7 61.4 C 501.2 60.8 501.7 60.3 502.5 60 C 503.3 59.6 504.1 59.5 505.1 59.5 C 506.4 59.5 507.5 59.8 508.3 60.3 C 509 60.9 509.6 61.7 509.9 62.7 Z M 514.7 73.4 C 514.2 73.4 513.9 73.3 513.5 72.9 C 513.2 72.6 513.1 72.3 513.1 71.8 C 513.1 71.4 513.2 71 513.5 70.7 C 513.9 70.4 514.2 70.2 514.7 70.2 C 515.1 70.2 515.5 70.4 515.8 70.7 C 516.1 71 516.3 71.4 516.3 71.8 C 516.3 72.1 516.2 72.4 516.1 72.6 C 515.9 72.9 515.7 73.1 515.5 73.2 C 515.2 73.3 515 73.4 514.7 73.4 Z " stroke="none" fill="#000"/>  </g>  <g id="Polygon112320">    <path d="M 2.7 31.3 L 2.7 0 C 2.7 0 15.06 0 15.1 0 C 17.4 0 19.4 0.5 21.1 1.4 C 22.8 2.3 24.1 3.5 24.9 5.1 C 25.8 6.7 26.3 8.5 26.3 10.6 C 26.3 12.7 25.8 14.5 24.9 16.1 C 24 17.7 22.7 18.9 21 19.8 C 19.3 20.7 17.3 21.1 14.9 21.1 C 14.89 21.13 7 21.1 7 21.1 L 7 15.8 C 7 15.8 13.82 15.83 13.8 15.8 C 15.1 15.8 16.1 15.6 17 15.2 C 17.8 14.7 18.4 14.1 18.8 13.3 C 19.2 12.5 19.5 11.6 19.5 10.6 C 19.5 9.6 19.2 8.7 18.8 7.9 C 18.4 7.1 17.8 6.5 17 6.1 C 16.1 5.6 15.1 5.4 13.8 5.4 C 13.79 5.41 9.3 5.4 9.3 5.4 L 9.3 31.3 L 2.7 31.3 Z M 29.8 31.3 L 29.8 7.8 L 36.1 7.8 L 36.1 11.9 C 36.1 11.9 36.36 11.91 36.4 11.9 C 36.8 10.5 37.5 9.4 38.5 8.6 C 39.5 7.9 40.7 7.5 42 7.5 C 42.3 7.5 42.7 7.5 43.1 7.5 C 43.4 7.6 43.8 7.6 44 7.7 C 44 7.7 44 13.5 44 13.5 C 43.7 13.4 43.3 13.3 42.8 13.2 C 42.2 13.2 41.7 13.1 41.3 13.1 C 40.3 13.1 39.5 13.3 38.7 13.8 C 38 14.2 37.4 14.7 37 15.5 C 36.5 16.2 36.3 17 36.3 18 C 36.32 18 36.3 31.3 36.3 31.3 L 29.8 31.3 Z M 57.5 31.7 C 55.1 31.7 53.1 31.2 51.4 30.2 C 49.6 29.2 48.3 27.8 47.4 26 C 46.4 24.1 46 22 46 19.6 C 46 17.2 46.4 15.1 47.4 13.3 C 48.3 11.5 49.6 10 51.4 9 C 53.1 8 55.1 7.5 57.5 7.5 C 59.9 7.5 61.9 8 63.7 9 C 65.4 10 66.7 11.5 67.7 13.3 C 68.6 15.1 69.1 17.2 69.1 19.6 C 69.1 22 68.6 24.1 67.7 26 C 66.7 27.8 65.4 29.2 63.7 30.2 C 61.9 31.2 59.9 31.7 57.5 31.7 Z M 57.5 26.7 C 58.6 26.7 59.5 26.4 60.2 25.8 C 61 25.2 61.5 24.3 61.9 23.2 C 62.3 22.2 62.4 21 62.4 19.6 C 62.4 18.2 62.3 17 61.9 15.9 C 61.5 14.9 61 14 60.2 13.4 C 59.5 12.8 58.6 12.5 57.5 12.5 C 56.5 12.5 55.5 12.8 54.8 13.4 C 54.1 14 53.5 14.9 53.1 15.9 C 52.8 17 52.6 18.2 52.6 19.6 C 52.6 21 52.8 22.2 53.1 23.2 C 53.5 24.3 54.1 25.2 54.8 25.8 C 55.5 26.4 56.5 26.7 57.5 26.7 Z M 73 31.3 L 73 7.8 L 79.2 7.8 L 79.2 12 C 79.2 12 79.52 11.96 79.5 12 C 80 10.6 80.8 9.5 82 8.7 C 83.1 7.9 84.5 7.5 86.1 7.5 C 87.7 7.5 89 7.9 90.2 8.7 C 91.3 9.5 92 10.6 92.4 12 C 92.4 12 92.7 12 92.7 12 C 93.1 10.6 94 9.5 95.3 8.7 C 96.5 7.9 98 7.5 99.7 7.5 C 101.9 7.5 103.7 8.2 105.1 9.6 C 106.4 11 107.1 13 107.1 15.5 C 107.13 15.5 107.1 31.3 107.1 31.3 L 100.6 31.3 C 100.6 31.3 100.64 16.78 100.6 16.8 C 100.6 15.5 100.3 14.5 99.6 13.8 C 98.9 13.2 98 12.9 97 12.9 C 95.8 12.9 94.9 13.2 94.2 14 C 93.6 14.7 93.2 15.7 93.2 16.9 C 93.25 16.95 93.2 31.3 93.2 31.3 L 86.9 31.3 C 86.9 31.3 86.94 16.64 86.9 16.6 C 86.9 15.5 86.6 14.6 86 13.9 C 85.3 13.2 84.4 12.9 83.4 12.9 C 82.6 12.9 82 13.1 81.4 13.4 C 80.8 13.8 80.4 14.3 80.1 14.9 C 79.7 15.6 79.6 16.3 79.6 17.2 C 79.55 17.19 79.6 31.3 79.6 31.3 L 73 31.3 Z M 112.1 31.3 L 112.1 7.8 L 118.6 7.8 L 118.6 31.3 L 112.1 31.3 Z M 115.4 4.8 C 114.4 4.8 113.6 4.5 112.9 3.8 C 112.2 3.2 111.8 2.4 111.8 1.5 C 111.8 0.6 112.2 -0.2 112.9 -0.8 C 113.6 -1.5 114.4 -1.8 115.4 -1.8 C 116.3 -1.8 117.1 -1.5 117.8 -0.8 C 118.5 -0.2 118.9 0.6 118.9 1.5 C 118.9 2.4 118.5 3.2 117.8 3.8 C 117.1 4.5 116.3 4.8 115.4 4.8 Z M 143 14.5 C 143 14.5 137 14.9 137 14.9 C 136.9 14.4 136.7 13.9 136.4 13.5 C 136 13.1 135.6 12.7 135.1 12.5 C 134.5 12.2 133.9 12.1 133.1 12.1 C 132.1 12.1 131.3 12.3 130.6 12.8 C 129.9 13.2 129.5 13.7 129.5 14.4 C 129.5 15 129.7 15.5 130.2 15.9 C 130.6 16.3 131.4 16.6 132.5 16.8 C 132.5 16.8 136.7 17.7 136.7 17.7 C 139 18.1 140.7 18.9 141.8 19.9 C 143 21 143.5 22.3 143.5 24 C 143.5 25.5 143.1 26.9 142.2 28.1 C 141.3 29.2 140 30.1 138.5 30.8 C 136.9 31.4 135.1 31.7 133.1 31.7 C 130 31.7 127.5 31.1 125.7 29.8 C 123.8 28.5 122.8 26.7 122.4 24.5 C 122.4 24.5 128.8 24.1 128.8 24.1 C 129 25.1 129.5 25.8 130.2 26.3 C 131 26.8 131.9 27 133.1 27 C 134.2 27 135.2 26.8 135.8 26.4 C 136.5 25.9 136.9 25.4 136.9 24.7 C 136.9 24.1 136.7 23.6 136.2 23.2 C 135.7 22.8 134.9 22.5 133.9 22.3 C 133.9 22.3 129.8 21.5 129.8 21.5 C 127.6 21.1 125.8 20.3 124.7 19.1 C 123.6 18 123.1 16.6 123.1 14.8 C 123.1 13.3 123.5 12 124.3 10.9 C 125.1 9.8 126.3 9 127.8 8.4 C 129.2 7.8 131 7.5 133 7.5 C 136 7.5 138.3 8.1 140 9.4 C 141.7 10.6 142.7 12.3 143 14.5 Z M 157.9 31.7 C 155.5 31.7 153.4 31.2 151.6 30.3 C 149.9 29.3 148.6 27.9 147.6 26.1 C 146.7 24.3 146.2 22.1 146.2 19.7 C 146.2 17.2 146.7 15.1 147.6 13.3 C 148.6 11.5 149.9 10.1 151.6 9 C 153.3 8 155.3 7.5 157.6 7.5 C 159.2 7.5 160.6 7.8 161.9 8.3 C 163.3 8.7 164.4 9.5 165.4 10.5 C 166.5 11.5 167.2 12.7 167.8 14.2 C 168.4 15.7 168.6 17.4 168.6 19.4 C 168.63 19.42 168.6 21.2 168.6 21.2 L 148.8 21.2 L 148.8 17.2 C 148.8 17.2 162.51 17.18 162.5 17.2 C 162.5 16.2 162.3 15.4 161.9 14.7 C 161.5 14 160.9 13.4 160.2 13 C 159.5 12.6 158.7 12.4 157.7 12.4 C 156.7 12.4 155.9 12.6 155.1 13 C 154.3 13.5 153.7 14.1 153.3 14.9 C 152.9 15.6 152.7 16.5 152.7 17.4 C 152.7 17.4 152.7 21.2 152.7 21.2 C 152.7 22.4 152.9 23.4 153.3 24.2 C 153.7 25.1 154.4 25.7 155.1 26.2 C 155.9 26.6 156.9 26.9 158 26.9 C 158.7 26.9 159.4 26.8 160 26.6 C 160.6 26.4 161.1 26.1 161.5 25.7 C 161.9 25.2 162.3 24.7 162.5 24.2 C 162.5 24.2 168.5 24.6 168.5 24.6 C 168.2 26 167.6 27.3 166.6 28.3 C 165.7 29.4 164.5 30.2 163 30.8 C 161.5 31.4 159.8 31.7 157.9 31.7 Z M 204.7 7.8 L 196.5 31.3 L 189.2 31.3 L 181 7.8 L 187.9 7.8 L 192.7 24.6 L 193 24.6 L 197.8 7.8 L 204.7 7.8 Z M 226.5 14.5 C 226.5 14.5 220.5 14.9 220.5 14.9 C 220.4 14.4 220.2 13.9 219.9 13.5 C 219.5 13.1 219.1 12.7 218.5 12.5 C 218 12.2 217.3 12.1 216.6 12.1 C 215.6 12.1 214.7 12.3 214 12.8 C 213.3 13.2 213 13.7 213 14.4 C 213 15 213.2 15.5 213.7 15.9 C 214.1 16.3 214.9 16.6 216 16.8 C 216 16.8 220.2 17.7 220.2 17.7 C 222.5 18.1 224.2 18.9 225.3 19.9 C 226.4 21 227 22.3 227 24 C 227 25.5 226.6 26.9 225.6 28.1 C 224.7 29.2 223.5 30.1 222 30.8 C 220.4 31.4 218.6 31.7 216.6 31.7 C 213.5 31.7 211 31.1 209.1 29.8 C 207.3 28.5 206.2 26.7 205.9 24.5 C 205.9 24.5 212.3 24.1 212.3 24.1 C 212.5 25.1 213 25.8 213.7 26.3 C 214.5 26.8 215.4 27 216.6 27 C 217.7 27 218.6 26.8 219.3 26.4 C 220 25.9 220.4 25.4 220.4 24.7 C 220.4 24.1 220.1 23.6 219.6 23.2 C 219.2 22.8 218.4 22.5 217.4 22.3 C 217.4 22.3 213.3 21.5 213.3 21.5 C 211 21.1 209.3 20.3 208.2 19.1 C 207.1 18 206.5 16.6 206.5 14.8 C 206.5 13.3 206.9 12 207.8 10.9 C 208.6 9.8 209.7 9 211.2 8.4 C 212.7 7.8 214.5 7.5 216.5 7.5 C 219.4 7.5 221.8 8.1 223.5 9.4 C 225.2 10.6 226.2 12.3 226.5 14.5 Z M 234.6 31.7 C 233.6 31.7 232.7 31.3 232 30.6 C 231.3 29.9 230.9 29 230.9 28 C 230.9 27 231.3 26.2 232 25.4 C 232.7 24.7 233.6 24.4 234.6 24.4 C 235.5 24.4 236.4 24.7 237.1 25.4 C 237.9 26.2 238.2 27 238.2 28 C 238.2 28.7 238.1 29.3 237.7 29.8 C 237.4 30.4 236.9 30.8 236.4 31.2 C 235.8 31.5 235.2 31.7 234.6 31.7 Z M 266.1 7.8 L 266.1 12.7 L 251.7 12.7 L 251.7 7.8 L 266.1 7.8 Z M 255 31.3 C 255 31.3 254.97 6.12 255 6.1 C 255 4.4 255.3 3 256 1.9 C 256.6 0.8 257.6 -0.1 258.7 -0.6 C 259.9 -1.2 261.2 -1.5 262.7 -1.5 C 263.7 -1.5 264.6 -1.4 265.4 -1.2 C 266.2 -1.1 266.9 -0.9 267.3 -0.8 C 267.3 -0.8 266.1 4.1 266.1 4.1 C 265.9 4 265.5 3.9 265.2 3.8 C 264.8 3.8 264.4 3.7 264 3.7 C 263.1 3.7 262.4 3.9 262 4.4 C 261.7 4.8 261.5 5.5 261.5 6.2 C 261.46 6.25 261.5 31.3 261.5 31.3 L 255 31.3 Z M 284.4 21.3 C 284.38 21.29 284.4 7.8 284.4 7.8 L 290.9 7.8 L 290.9 31.3 L 284.6 31.3 L 284.6 27 C 284.6 27 284.39 27.01 284.4 27 C 283.9 28.4 283 29.5 281.8 30.3 C 280.5 31.2 279 31.6 277.3 31.6 C 275.7 31.6 274.3 31.2 273.1 30.5 C 271.9 29.8 271 28.8 270.4 27.5 C 269.7 26.2 269.3 24.6 269.3 22.8 C 269.34 22.75 269.3 7.8 269.3 7.8 L 275.8 7.8 C 275.8 7.8 275.84 21.59 275.8 21.6 C 275.9 23 276.2 24.1 277 24.9 C 277.7 25.7 278.7 26.1 279.9 26.1 C 280.7 26.1 281.4 25.9 282.1 25.5 C 282.8 25.2 283.3 24.6 283.8 23.9 C 284.2 23.2 284.4 22.3 284.4 21.3 Z M 302.5 17.7 C 302.48 17.71 302.5 31.3 302.5 31.3 L 296 31.3 L 296 7.8 L 302.2 7.8 L 302.2 12 C 302.2 12 302.45 11.96 302.4 12 C 303 10.6 303.8 9.5 305.1 8.7 C 306.3 7.9 307.8 7.5 309.5 7.5 C 311.1 7.5 312.6 7.9 313.8 8.6 C 315 9.3 315.9 10.3 316.6 11.6 C 317.3 12.9 317.6 14.5 317.6 16.3 C 317.6 16.34 317.6 31.3 317.6 31.3 L 311.1 31.3 C 311.1 31.3 311.09 17.5 311.1 17.5 C 311.1 16.1 310.7 14.9 310 14.1 C 309.2 13.3 308.2 12.9 306.9 12.9 C 306 12.9 305.3 13.1 304.6 13.5 C 303.9 13.9 303.4 14.4 303.1 15.1 C 302.7 15.8 302.5 16.7 302.5 17.7 Z M 333 31.7 C 330.6 31.7 328.6 31.2 326.8 30.2 C 325.1 29.2 323.8 27.8 322.9 25.9 C 321.9 24.1 321.5 22 321.5 19.6 C 321.5 17.2 321.9 15.1 322.9 13.3 C 323.8 11.5 325.1 10.1 326.9 9 C 328.6 8 330.6 7.5 333 7.5 C 335 7.5 336.8 7.9 338.4 8.6 C 339.9 9.4 341.1 10.4 342 11.8 C 342.9 13.1 343.4 14.7 343.5 16.5 C 343.5 16.5 337.4 16.5 337.4 16.5 C 337.2 15.3 336.7 14.4 336 13.7 C 335.3 12.9 334.3 12.6 333.1 12.6 C 332.1 12.6 331.2 12.9 330.5 13.4 C 329.7 13.9 329.1 14.7 328.7 15.8 C 328.3 16.8 328.1 18.1 328.1 19.5 C 328.1 21 328.3 22.3 328.7 23.4 C 329.1 24.4 329.7 25.2 330.5 25.8 C 331.2 26.3 332.1 26.6 333.1 26.6 C 333.8 26.6 334.5 26.4 335.1 26.1 C 335.7 25.8 336.2 25.4 336.6 24.8 C 337 24.2 337.2 23.5 337.4 22.7 C 337.4 22.7 343.5 22.7 343.5 22.7 C 343.4 24.5 342.9 26 342 27.4 C 341.2 28.8 340 29.8 338.4 30.6 C 336.9 31.3 335.1 31.7 333 31.7 Z M 359.8 7.8 L 359.8 12.7 L 345.7 12.7 L 345.7 7.8 L 359.8 7.8 Z M 348.9 2.2 L 355.4 2.2 C 355.4 2.2 355.37 24.07 355.4 24.1 C 355.4 24.7 355.5 25.1 355.6 25.5 C 355.8 25.8 356.1 26 356.4 26.2 C 356.7 26.3 357.1 26.4 357.6 26.4 C 357.9 26.4 358.2 26.3 358.5 26.3 C 358.8 26.2 359 26.2 359.2 26.1 C 359.2 26.1 360.2 31 360.2 31 C 359.9 31.1 359.4 31.2 358.8 31.3 C 358.2 31.5 357.5 31.6 356.7 31.6 C 355.1 31.7 353.7 31.4 352.6 31 C 351.4 30.5 350.5 29.7 349.8 28.7 C 349.2 27.7 348.9 26.5 348.9 24.9 C 348.86 24.92 348.9 2.2 348.9 2.2 Z M 363.7 31.3 L 363.7 7.8 L 370.2 7.8 L 370.2 31.3 L 363.7 31.3 Z M 366.9 4.8 C 366 4.8 365.2 4.5 364.5 3.8 C 363.8 3.2 363.4 2.4 363.4 1.5 C 363.4 0.6 363.8 -0.2 364.5 -0.8 C 365.2 -1.5 366 -1.8 366.9 -1.8 C 367.9 -1.8 368.7 -1.5 369.4 -0.8 C 370.1 -0.2 370.5 0.6 370.5 1.5 C 370.5 2.4 370.1 3.2 369.4 3.8 C 368.7 4.5 367.9 4.8 366.9 4.8 Z M 385.7 31.7 C 383.3 31.7 381.3 31.2 379.6 30.2 C 377.8 29.2 376.5 27.8 375.6 26 C 374.6 24.1 374.2 22 374.2 19.6 C 374.2 17.2 374.6 15.1 375.6 13.3 C 376.5 11.5 377.8 10 379.6 9 C 381.3 8 383.3 7.5 385.7 7.5 C 388.1 7.5 390.1 8 391.9 9 C 393.6 10 394.9 11.5 395.8 13.3 C 396.8 15.1 397.3 17.2 397.3 19.6 C 397.3 22 396.8 24.1 395.8 26 C 394.9 27.8 393.6 29.2 391.9 30.2 C 390.1 31.2 388.1 31.7 385.7 31.7 Z M 385.7 26.7 C 386.8 26.7 387.7 26.4 388.4 25.8 C 389.2 25.2 389.7 24.3 390.1 23.2 C 390.5 22.2 390.6 21 390.6 19.6 C 390.6 18.2 390.5 17 390.1 15.9 C 389.7 14.9 389.2 14 388.4 13.4 C 387.7 12.8 386.8 12.5 385.7 12.5 C 384.6 12.5 383.7 12.8 383 13.4 C 382.3 14 381.7 14.9 381.3 15.9 C 381 17 380.8 18.2 380.8 19.6 C 380.8 21 381 22.2 381.3 23.2 C 381.7 24.3 382.3 25.2 383 25.8 C 383.7 26.4 384.6 26.7 385.7 26.7 Z M 407.7 17.7 C 407.75 17.71 407.7 31.3 407.7 31.3 L 401.2 31.3 L 401.2 7.8 L 407.4 7.8 L 407.4 12 C 407.4 12 407.72 11.96 407.7 12 C 408.2 10.6 409.1 9.5 410.3 8.7 C 411.5 7.9 413 7.5 414.8 7.5 C 416.4 7.5 417.8 7.9 419 8.6 C 420.2 9.3 421.2 10.3 421.9 11.6 C 422.5 12.9 422.9 14.5 422.9 16.3 C 422.86 16.34 422.9 31.3 422.9 31.3 L 416.4 31.3 C 416.4 31.3 416.36 17.5 416.4 17.5 C 416.4 16.1 416 14.9 415.3 14.1 C 414.5 13.3 413.5 12.9 412.2 12.9 C 411.3 12.9 410.5 13.1 409.9 13.5 C 409.2 13.9 408.7 14.4 408.3 15.1 C 407.9 15.8 407.8 16.7 407.7 17.7 Z M 434.4 31.7 C 432.9 31.7 431.6 31.5 430.4 30.9 C 429.2 30.4 428.3 29.6 427.6 28.6 C 426.9 27.6 426.6 26.3 426.6 24.7 C 426.6 23.4 426.8 22.3 427.3 21.4 C 427.8 20.6 428.4 19.8 429.3 19.3 C 430.1 18.8 431 18.4 432.1 18.1 C 433.1 17.8 434.2 17.6 435.4 17.5 C 436.8 17.4 437.9 17.2 438.7 17.1 C 439.5 17 440.1 16.8 440.5 16.5 C 440.9 16.3 441.1 15.9 441.1 15.4 C 441.1 15.4 441.1 15.3 441.1 15.3 C 441.1 14.3 440.8 13.6 440.2 13.1 C 439.6 12.5 438.7 12.3 437.6 12.3 C 436.4 12.3 435.5 12.5 434.8 13 C 434.1 13.5 433.7 14.2 433.4 15 C 433.4 15 427.4 14.5 427.4 14.5 C 427.7 13.1 428.3 11.8 429.2 10.8 C 430.1 9.7 431.3 8.9 432.7 8.4 C 434.1 7.8 435.8 7.5 437.6 7.5 C 438.9 7.5 440.2 7.7 441.4 8 C 442.6 8.3 443.6 8.7 444.6 9.4 C 445.5 10 446.2 10.9 446.8 11.9 C 447.3 12.9 447.6 14.1 447.6 15.5 C 447.59 15.45 447.6 31.3 447.6 31.3 L 441.4 31.3 L 441.4 28 C 441.4 28 441.24 28.02 441.2 28 C 440.9 28.8 440.4 29.4 439.7 30 C 439.1 30.5 438.3 30.9 437.5 31.2 C 436.6 31.6 435.5 31.7 434.4 31.7 Z M 436.2 27.2 C 437.2 27.2 438 27 438.8 26.7 C 439.5 26.3 440.1 25.8 440.5 25.1 C 440.9 24.5 441.1 23.7 441.1 22.9 C 441.1 22.9 441.1 20.4 441.1 20.4 C 440.9 20.5 440.7 20.7 440.3 20.8 C 439.9 20.9 439.6 21 439.1 21 C 438.7 21.1 438.2 21.2 437.8 21.3 C 437.4 21.3 437 21.4 436.6 21.5 C 435.8 21.6 435.2 21.7 434.6 22 C 434 22.2 433.6 22.6 433.3 23 C 433 23.4 432.8 23.9 432.8 24.5 C 432.8 25.4 433.1 26.1 433.8 26.5 C 434.4 27 435.2 27.2 436.2 27.2 Z M 459.1 0 L 459.1 31.3 L 452.6 31.3 L 452.6 0 L 459.1 0 Z M 464.2 31.3 L 464.2 7.8 L 470.7 7.8 L 470.7 31.3 L 464.2 31.3 Z M 467.5 4.8 C 466.5 4.8 465.7 4.5 465 3.8 C 464.3 3.2 463.9 2.4 463.9 1.5 C 463.9 0.6 464.3 -0.2 465 -0.8 C 465.7 -1.5 466.5 -1.8 467.5 -1.8 C 468.4 -1.8 469.2 -1.5 469.9 -0.8 C 470.6 -0.2 471 0.6 471 1.5 C 471 2.4 470.6 3.2 469.9 3.8 C 469.2 4.5 468.4 4.8 467.5 4.8 Z M 487.9 7.8 L 487.9 12.7 L 473.7 12.7 L 473.7 7.8 L 487.9 7.8 Z M 476.9 2.2 L 483.4 2.2 C 483.4 2.2 483.44 24.07 483.4 24.1 C 483.4 24.7 483.5 25.1 483.7 25.5 C 483.9 25.8 484.2 26 484.5 26.2 C 484.8 26.3 485.2 26.4 485.6 26.4 C 485.9 26.4 486.3 26.3 486.6 26.3 C 486.9 26.2 487.1 26.2 487.3 26.1 C 487.3 26.1 488.3 31 488.3 31 C 488 31.1 487.5 31.2 486.9 31.3 C 486.3 31.5 485.6 31.6 484.8 31.6 C 483.2 31.7 481.8 31.4 480.6 31 C 479.5 30.5 478.6 29.7 477.9 28.7 C 477.2 27.7 476.9 26.5 476.9 24.9 C 476.94 24.92 476.9 2.2 476.9 2.2 Z M 496.2 40.1 C 495.3 40.1 494.6 40 493.9 39.9 C 493.1 39.7 492.6 39.6 492.1 39.4 C 492.1 39.4 493.5 34.5 493.5 34.5 C 494.3 34.8 495 34.9 495.6 34.9 C 496.2 34.9 496.8 34.8 497.2 34.5 C 497.7 34.2 498 33.7 498.3 32.9 C 498.33 32.94 498.7 31.9 498.7 31.9 L 490.3 7.8 L 497.1 7.8 L 502 25 L 502.2 25 L 507.1 7.8 L 514 7.8 C 514 7.8 504.91 33.81 504.9 33.8 C 504.5 35.1 503.9 36.2 503.1 37.1 C 502.4 38.1 501.4 38.8 500.3 39.3 C 499.2 39.8 497.8 40.1 496.2 40.1 Z " stroke="none" fill="#10283d"/>  </g>  <g id="Polygon112321">    <path d="M 526.2 19 L 537.2 29.8 L 548.2 19 " style="stroke-width:3pt; stroke:#838f98;" fill="none"/>  </g>  <g id="Polygon112324">    <path d="M 248.5 107.8 L 203.3 107.8 M 237.6 118.9 L 248.6 107.9 L 237.6 97 " style="stroke-width:3pt; stroke:#ff4f00;" fill="none"/>  </g></svg>