<?xml version="1.0" standalone="no"?><!DOCTYPE svg PUBLIC "-//W3C//DTD SVG 1.1//EN" "http://www.w3.org/Graphics/SVG/1.1/DTD/svg11.dtd"><svg xmlns="http://www.w3.org/2000/svg" version="1.1" width="413.5px" height="51.2px" viewBox="0 -12 413.5 51.2" style="top:-12px">  <desc>Introduction</desc>  <defs/>  <g id="Polygon108648">    <path d="M 6.5 0 L 6.5 21.8 L 1.9 21.8 L 1.9 0 L 6.5 0 Z M 15 12.4 C 15 12.36 15 21.8 15 21.8 L 10.5 21.8 L 10.5 5.5 L 14.8 5.5 L 14.8 8.3 C 14.8 8.3 14.98 8.34 15 8.3 C 15.3 7.4 15.9 6.6 16.8 6.1 C 17.7 5.5 18.7 5.2 19.9 5.2 C 21 5.2 22 5.5 22.9 6 C 23.7 6.5 24.4 7.2 24.8 8.1 C 25.3 9 25.5 10.1 25.5 11.4 C 25.55 11.4 25.5 21.8 25.5 21.8 L 21 21.8 C 21 21.8 21.01 12.21 21 12.2 C 21 11.2 20.8 10.4 20.2 9.9 C 19.7 9.3 19 9 18.1 9 C 17.5 9 17 9.1 16.5 9.4 C 16 9.7 15.7 10.1 15.4 10.6 C 15.1 11.1 15 11.7 15 12.4 Z M 37.4 5.5 L 37.4 8.9 L 27.6 8.9 L 27.6 5.5 L 37.4 5.5 Z M 29.8 1.5 L 34.4 1.5 C 34.4 1.5 34.37 16.79 34.4 16.8 C 34.4 17.2 34.4 17.5 34.6 17.8 C 34.7 18 34.9 18.2 35.1 18.2 C 35.3 18.3 35.6 18.4 35.9 18.4 C 36.1 18.4 36.3 18.4 36.5 18.3 C 36.8 18.3 36.9 18.3 37 18.2 C 37 18.2 37.7 21.6 37.7 21.6 C 37.5 21.7 37.2 21.8 36.8 21.9 C 36.4 22 35.9 22 35.3 22 C 34.2 22.1 33.2 21.9 32.4 21.6 C 31.6 21.3 31 20.8 30.5 20 C 30 19.3 29.8 18.5 29.8 17.4 C 29.83 17.39 29.8 1.5 29.8 1.5 Z M 40.3 21.8 L 40.3 5.5 L 44.7 5.5 L 44.7 8.3 C 44.7 8.3 44.83 8.31 44.8 8.3 C 45.1 7.3 45.6 6.5 46.3 6 C 47 5.5 47.8 5.2 48.8 5.2 C 49 5.2 49.2 5.2 49.5 5.3 C 49.8 5.3 50 5.3 50.2 5.4 C 50.2 5.4 50.2 9.4 50.2 9.4 C 50 9.3 49.7 9.3 49.3 9.2 C 48.9 9.2 48.6 9.2 48.3 9.2 C 47.6 9.2 47 9.3 46.5 9.6 C 46 9.9 45.6 10.3 45.3 10.8 C 44.9 11.3 44.8 11.9 44.8 12.6 C 44.8 12.56 44.8 21.8 44.8 21.8 L 40.3 21.8 Z M 59.7 22.1 C 58 22.1 56.6 21.8 55.4 21.1 C 54.2 20.4 53.3 19.4 52.6 18.1 C 52 16.8 51.6 15.4 51.6 13.7 C 51.6 12 52 10.5 52.6 9.3 C 53.3 8 54.2 7 55.4 6.3 C 56.6 5.6 58 5.2 59.7 5.2 C 61.4 5.2 62.8 5.6 64 6.3 C 65.2 7 66.1 8 66.8 9.3 C 67.4 10.5 67.7 12 67.7 13.7 C 67.7 15.4 67.4 16.8 66.8 18.1 C 66.1 19.4 65.2 20.4 64 21.1 C 62.8 21.8 61.4 22.1 59.7 22.1 Z M 59.7 18.6 C 60.5 18.6 61.1 18.4 61.6 18 C 62.1 17.5 62.5 17 62.7 16.2 C 63 15.5 63.1 14.6 63.1 13.7 C 63.1 12.7 63 11.9 62.7 11.1 C 62.5 10.4 62.1 9.8 61.6 9.4 C 61.1 8.9 60.5 8.7 59.7 8.7 C 59 8.7 58.3 8.9 57.8 9.4 C 57.3 9.8 56.9 10.4 56.6 11.1 C 56.4 11.9 56.3 12.7 56.3 13.7 C 56.3 14.6 56.4 15.5 56.6 16.2 C 56.9 17 57.3 17.5 57.8 18 C 58.3 18.4 59 18.6 59.7 18.6 Z M 76.6 22.1 C 75.4 22.1 74.2 21.8 73.2 21.1 C 72.2 20.5 71.4 19.5 70.9 18.3 C 70.3 17 70 15.5 70 13.7 C 70 11.8 70.3 10.2 70.9 9 C 71.5 7.7 72.3 6.8 73.3 6.2 C 74.3 5.6 75.4 5.2 76.6 5.2 C 77.5 5.2 78.3 5.4 78.9 5.7 C 79.5 6 80 6.4 80.4 6.9 C 80.8 7.3 81.1 7.8 81.3 8.2 C 81.26 8.2 81.4 8.2 81.4 8.2 L 81.4 0 L 85.9 0 L 85.9 21.8 L 81.5 21.8 L 81.5 19.2 C 81.5 19.2 81.26 19.2 81.3 19.2 C 81 19.7 80.7 20.1 80.4 20.5 C 80 21 79.5 21.4 78.9 21.6 C 78.2 21.9 77.5 22.1 76.6 22.1 Z M 78.1 18.5 C 78.8 18.5 79.4 18.3 79.9 17.9 C 80.4 17.5 80.8 16.9 81.1 16.2 C 81.4 15.5 81.5 14.6 81.5 13.6 C 81.5 12.7 81.4 11.8 81.1 11.1 C 80.8 10.4 80.4 9.8 79.9 9.4 C 79.4 9 78.8 8.9 78.1 8.9 C 77.3 8.9 76.7 9.1 76.2 9.5 C 75.7 9.9 75.3 10.4 75 11.1 C 74.7 11.9 74.6 12.7 74.6 13.6 C 74.6 14.6 74.7 15.4 75 16.2 C 75.3 16.9 75.7 17.5 76.2 17.9 C 76.7 18.3 77.3 18.5 78.1 18.5 Z M 100.1 14.9 C 100.09 14.85 100.1 5.5 100.1 5.5 L 104.6 5.5 L 104.6 21.8 L 100.3 21.8 L 100.3 18.8 C 100.3 18.8 100.1 18.85 100.1 18.8 C 99.7 19.8 99.1 20.6 98.3 21.2 C 97.4 21.7 96.4 22 95.1 22 C 94 22 93.1 21.8 92.2 21.3 C 91.4 20.8 90.8 20.1 90.3 19.2 C 89.8 18.2 89.6 17.2 89.6 15.9 C 89.59 15.87 89.6 5.5 89.6 5.5 L 94.1 5.5 C 94.1 5.5 94.13 15.06 94.1 15.1 C 94.1 16 94.4 16.8 94.9 17.4 C 95.4 17.9 96.1 18.2 97 18.2 C 97.5 18.2 98 18.1 98.5 17.8 C 99 17.6 99.4 17.2 99.7 16.7 C 99.9 16.2 100.1 15.6 100.1 14.9 Z M 115.6 22.1 C 113.9 22.1 112.5 21.8 111.3 21.1 C 110.1 20.4 109.1 19.4 108.5 18.1 C 107.8 16.8 107.5 15.4 107.5 13.7 C 107.5 12 107.8 10.6 108.5 9.3 C 109.1 8 110.1 7 111.3 6.3 C 112.5 5.6 113.9 5.2 115.6 5.2 C 117 5.2 118.2 5.5 119.3 6 C 120.4 6.5 121.2 7.3 121.8 8.2 C 122.5 9.1 122.8 10.2 122.9 11.5 C 122.9 11.5 118.6 11.5 118.6 11.5 C 118.5 10.7 118.2 10 117.6 9.5 C 117.1 9 116.5 8.8 115.6 8.8 C 114.9 8.8 114.3 9 113.8 9.3 C 113.3 9.7 112.9 10.3 112.6 11 C 112.3 11.7 112.1 12.6 112.1 13.6 C 112.1 14.7 112.3 15.6 112.6 16.3 C 112.9 17 113.3 17.6 113.8 18 C 114.3 18.4 114.9 18.5 115.6 18.5 C 116.1 18.5 116.6 18.4 117 18.2 C 117.4 18 117.8 17.7 118.1 17.3 C 118.3 16.9 118.5 16.4 118.6 15.8 C 118.6 15.8 122.9 15.8 122.9 15.8 C 122.8 17.1 122.5 18.2 121.9 19.1 C 121.3 20.1 120.4 20.8 119.4 21.3 C 118.3 21.9 117 22.1 115.6 22.1 Z M 134.4 5.5 L 134.4 8.9 L 124.5 8.9 L 124.5 5.5 L 134.4 5.5 Z M 126.7 1.5 L 131.3 1.5 C 131.3 1.5 131.28 16.79 131.3 16.8 C 131.3 17.2 131.3 17.5 131.5 17.8 C 131.6 18 131.8 18.2 132 18.2 C 132.2 18.3 132.5 18.4 132.8 18.4 C 133 18.4 133.2 18.4 133.5 18.3 C 133.7 18.3 133.8 18.3 133.9 18.2 C 133.9 18.2 134.7 21.6 134.7 21.6 C 134.4 21.7 134.1 21.8 133.7 21.9 C 133.3 22 132.8 22 132.2 22 C 131.1 22.1 130.1 21.9 129.3 21.6 C 128.5 21.3 127.9 20.8 127.4 20 C 127 19.3 126.7 18.5 126.7 17.4 C 126.74 17.39 126.7 1.5 126.7 1.5 Z M 137.2 21.8 L 137.2 5.5 L 141.7 5.5 L 141.7 21.8 L 137.2 21.8 Z M 139.5 3.3 C 138.8 3.3 138.2 3.1 137.7 2.7 C 137.3 2.2 137 1.7 137 1.1 C 137 0.4 137.3 -0.1 137.7 -0.6 C 138.2 -1 138.8 -1.2 139.5 -1.2 C 140.1 -1.2 140.7 -1 141.2 -0.6 C 141.7 -0.1 141.9 0.4 141.9 1 C 141.9 1.7 141.7 2.2 141.2 2.7 C 140.7 3.1 140.1 3.3 139.5 3.3 Z M 152.7 22.1 C 151 22.1 149.6 21.8 148.4 21.1 C 147.2 20.4 146.3 19.4 145.6 18.1 C 144.9 16.8 144.6 15.4 144.6 13.7 C 144.6 12 144.9 10.5 145.6 9.3 C 146.3 8 147.2 7 148.4 6.3 C 149.6 5.6 151 5.2 152.7 5.2 C 154.3 5.2 155.8 5.6 157 6.3 C 158.2 7 159.1 8 159.7 9.3 C 160.4 10.5 160.7 12 160.7 13.7 C 160.7 15.4 160.4 16.8 159.7 18.1 C 159.1 19.4 158.2 20.4 157 21.1 C 155.8 21.8 154.3 22.1 152.7 22.1 Z M 152.7 18.6 C 153.4 18.6 154.1 18.4 154.6 18 C 155.1 17.5 155.5 17 155.7 16.2 C 156 15.5 156.1 14.6 156.1 13.7 C 156.1 12.7 156 11.9 155.7 11.1 C 155.5 10.4 155.1 9.8 154.6 9.4 C 154.1 8.9 153.4 8.7 152.7 8.7 C 151.9 8.7 151.3 8.9 150.8 9.4 C 150.3 9.8 149.9 10.4 149.6 11.1 C 149.4 11.9 149.2 12.7 149.2 13.7 C 149.2 14.6 149.4 15.5 149.6 16.2 C 149.9 17 150.3 17.5 150.8 18 C 151.3 18.4 151.9 18.6 152.7 18.6 Z M 168.2 12.4 C 168.16 12.36 168.2 21.8 168.2 21.8 L 163.6 21.8 L 163.6 5.5 L 168 5.5 L 168 8.3 C 168 8.3 168.14 8.34 168.1 8.3 C 168.5 7.4 169.1 6.6 170 6.1 C 170.8 5.5 171.9 5.2 173.1 5.2 C 174.2 5.2 175.2 5.5 176 6 C 176.9 6.5 177.5 7.2 178 8.1 C 178.5 9 178.7 10.1 178.7 11.4 C 178.71 11.4 178.7 21.8 178.7 21.8 L 174.2 21.8 C 174.2 21.8 174.17 12.21 174.2 12.2 C 174.2 11.2 173.9 10.4 173.4 9.9 C 172.9 9.3 172.2 9 171.3 9 C 170.7 9 170.1 9.1 169.7 9.4 C 169.2 9.7 168.8 10.1 168.6 10.6 C 168.3 11.1 168.2 11.7 168.2 12.4 Z " stroke="none" fill="#ffffff"/>  </g></svg>