<?xml version="1.0" standalone="no"?><!DOCTYPE svg PUBLIC "-//W3C//DTD SVG 1.1//EN" "http://www.w3.org/Graphics/SVG/1.1/DTD/svg11.dtd"><svg xmlns="http://www.w3.org/2000/svg" version="1.1" width="261px" height="184px" viewBox="0 -5 261 184" style="top:-5px">  <desc>“ Our AI can solve your business problem.”</desc>  <defs/>  <g id="Polygon118874">    <path d="M 13.1 105.8 L 13.1 84.2 L 15.5 84.2 L 15.5 86.7 C 15.5 86.7 15.75 86.69 15.8 86.7 C 15.9 86.4 16.2 86.1 16.5 85.6 C 16.8 85.2 17.3 84.8 17.9 84.5 C 18.5 84.2 19.3 84 20.3 84 C 21.6 84 22.8 84.3 23.8 85 C 24.8 85.6 25.6 86.6 26.2 87.8 C 26.7 89 27 90.4 27 92.1 C 27 93.8 26.7 95.2 26.2 96.4 C 25.6 97.6 24.8 98.6 23.8 99.2 C 22.8 99.9 21.6 100.2 20.3 100.2 C 19.3 100.2 18.5 100.1 17.9 99.7 C 17.3 99.4 16.8 99 16.5 98.6 C 16.2 98.1 15.9 97.8 15.8 97.5 C 15.75 97.49 15.5 97.5 15.5 97.5 L 15.5 105.8 L 13.1 105.8 Z M 15.5 92 C 15.5 93.2 15.7 94.3 16 95.2 C 16.4 96.1 16.9 96.8 17.6 97.3 C 18.2 97.8 19 98.1 20 98.1 C 21 98.1 21.9 97.8 22.5 97.3 C 23.2 96.7 23.7 96 24.1 95.1 C 24.4 94.2 24.6 93.2 24.6 92 C 24.6 90.9 24.4 89.9 24.1 89.1 C 23.7 88.2 23.2 87.5 22.6 86.9 C 21.9 86.4 21 86.2 20 86.2 C 19 86.2 18.2 86.4 17.5 86.9 C 16.9 87.4 16.4 88.1 16 89 C 15.7 89.8 15.5 90.9 15.5 92 Z M 30.5 99.9 L 30.5 84.2 L 32.9 84.2 L 32.9 86.6 C 32.9 86.6 33.04 86.56 33 86.6 C 33.3 85.8 33.8 85.2 34.6 84.7 C 35.3 84.2 36.2 83.9 37.1 83.9 C 37.3 83.9 37.5 83.9 37.8 84 C 38.1 84 38.3 84 38.4 84 C 38.4 84 38.4 86.4 38.4 86.4 C 38.3 86.4 38.1 86.4 37.8 86.3 C 37.6 86.3 37.2 86.3 36.9 86.3 C 36.2 86.3 35.5 86.4 34.9 86.8 C 34.3 87.1 33.8 87.5 33.5 88.1 C 33.1 88.6 33 89.3 33 90 C 32.96 89.96 33 99.9 33 99.9 L 30.5 99.9 Z M 47.2 100.2 C 45.7 100.2 44.5 99.9 43.4 99.2 C 42.4 98.5 41.5 97.6 40.9 96.4 C 40.3 95.2 40 93.8 40 92.1 C 40 90.5 40.3 89.1 40.9 87.8 C 41.5 86.6 42.4 85.7 43.4 85 C 44.5 84.3 45.7 84 47.2 84 C 48.6 84 49.8 84.3 50.9 85 C 52 85.7 52.8 86.6 53.4 87.8 C 54 89.1 54.3 90.5 54.3 92.1 C 54.3 93.8 54 95.2 53.4 96.4 C 52.8 97.6 52 98.5 50.9 99.2 C 49.8 99.9 48.6 100.2 47.2 100.2 Z M 47.2 98.1 C 48.2 98.1 49.1 97.8 49.8 97.2 C 50.5 96.7 51 96 51.4 95.1 C 51.7 94.2 51.9 93.2 51.9 92.1 C 51.9 91.1 51.7 90.1 51.4 89.2 C 51 88.3 50.5 87.6 49.8 87 C 49.1 86.4 48.2 86.2 47.2 86.2 C 46.1 86.2 45.2 86.4 44.5 87 C 43.8 87.6 43.3 88.3 43 89.2 C 42.6 90.1 42.5 91.1 42.5 92.1 C 42.5 93.2 42.6 94.2 43 95.1 C 43.3 96 43.8 96.7 44.5 97.2 C 45.2 97.8 46.1 98.1 47.2 98.1 Z M 58 99.9 L 58 79 L 60.4 79 L 60.4 86.7 C 60.4 86.7 60.59 86.69 60.6 86.7 C 60.8 86.4 61 86.1 61.3 85.6 C 61.6 85.2 62.1 84.8 62.7 84.5 C 63.3 84.2 64.1 84 65.1 84 C 66.5 84 67.6 84.3 68.6 85 C 69.6 85.6 70.4 86.6 71 87.8 C 71.6 89 71.8 90.4 71.8 92.1 C 71.8 93.8 71.6 95.2 71 96.4 C 70.4 97.6 69.6 98.6 68.6 99.2 C 67.6 99.9 66.5 100.2 65.2 100.2 C 64.2 100.2 63.4 100.1 62.7 99.7 C 62.1 99.4 61.7 99 61.3 98.6 C 61 98.1 60.8 97.8 60.6 97.5 C 60.59 97.49 60.3 97.5 60.3 97.5 L 60.3 99.9 L 58 99.9 Z M 60.3 92 C 60.3 93.2 60.5 94.3 60.9 95.2 C 61.2 96.1 61.7 96.8 62.4 97.3 C 63.1 97.8 63.9 98.1 64.8 98.1 C 65.9 98.1 66.7 97.8 67.4 97.3 C 68.1 96.7 68.6 96 68.9 95.1 C 69.3 94.2 69.4 93.2 69.4 92 C 69.4 90.9 69.3 89.9 68.9 89.1 C 68.6 88.2 68.1 87.5 67.4 86.9 C 66.7 86.4 65.9 86.2 64.8 86.2 C 63.9 86.2 63 86.4 62.4 86.9 C 61.7 87.4 61.2 88.1 60.9 89 C 60.5 89.8 60.3 90.9 60.3 92 Z M 77.8 79 L 77.8 99.9 L 75.4 99.9 L 75.4 79 L 77.8 79 Z M 88.7 100.2 C 87.2 100.2 85.9 99.9 84.8 99.2 C 83.7 98.5 82.9 97.6 82.3 96.4 C 81.7 95.2 81.4 93.8 81.4 92.2 C 81.4 90.6 81.7 89.1 82.3 87.9 C 82.9 86.7 83.7 85.7 84.7 85 C 85.8 84.3 87 84 88.5 84 C 89.3 84 90.1 84.1 90.9 84.4 C 91.7 84.7 92.4 85.1 93.1 85.7 C 93.7 86.3 94.2 87.1 94.6 88.1 C 95 89.1 95.2 90.4 95.2 91.8 C 95.21 91.84 95.2 92.9 95.2 92.9 L 83.1 92.9 L 83.1 90.8 C 83.1 90.8 92.75 90.78 92.8 90.8 C 92.8 89.9 92.6 89.1 92.2 88.4 C 91.9 87.7 91.4 87.2 90.7 86.8 C 90.1 86.4 89.3 86.2 88.5 86.2 C 87.5 86.2 86.7 86.4 86 86.9 C 85.3 87.3 84.7 88 84.4 88.7 C 84 89.5 83.8 90.3 83.8 91.1 C 83.8 91.1 83.8 92.5 83.8 92.5 C 83.8 93.7 84 94.7 84.4 95.5 C 84.8 96.4 85.4 97 86.1 97.4 C 86.9 97.8 87.7 98.1 88.7 98.1 C 89.3 98.1 89.9 98 90.4 97.8 C 90.9 97.6 91.4 97.3 91.8 97 C 92.1 96.6 92.4 96.2 92.6 95.6 C 92.6 95.6 95 96.3 95 96.3 C 94.7 97.1 94.3 97.7 93.7 98.3 C 93.1 98.9 92.4 99.4 91.6 99.7 C 90.7 100.1 89.8 100.2 88.7 100.2 Z M 98.8 99.9 L 98.8 84.2 L 101.1 84.2 L 101.1 86.6 C 101.1 86.6 101.29 86.65 101.3 86.6 C 101.6 85.8 102.1 85.2 102.9 84.7 C 103.6 84.2 104.5 84 105.5 84 C 106.5 84 107.4 84.2 108.1 84.7 C 108.8 85.2 109.3 85.8 109.7 86.6 C 109.7 86.6 109.9 86.6 109.9 86.6 C 110.3 85.8 110.9 85.2 111.7 84.7 C 112.5 84.2 113.5 84 114.6 84 C 116 84 117.1 84.4 118 85.3 C 118.9 86.2 119.4 87.5 119.4 89.4 C 119.37 89.39 119.4 99.9 119.4 99.9 L 117 99.9 C 117 99.9 116.96 89.39 117 89.4 C 117 88.2 116.6 87.4 116 86.9 C 115.4 86.4 114.6 86.2 113.8 86.2 C 112.7 86.2 111.8 86.5 111.2 87.2 C 110.6 87.8 110.3 88.7 110.3 89.7 C 110.29 89.67 110.3 99.9 110.3 99.9 L 107.8 99.9 C 107.8 99.9 107.83 89.14 107.8 89.1 C 107.8 88.2 107.5 87.5 107 87 C 106.4 86.4 105.6 86.2 104.7 86.2 C 104.1 86.2 103.5 86.3 103 86.7 C 102.4 87 102 87.5 101.7 88 C 101.3 88.6 101.2 89.3 101.2 90.1 C 101.17 90.08 101.2 99.9 101.2 99.9 L 98.8 99.9 Z M 125.4 100.1 C 124.9 100.1 124.4 99.9 124.1 99.5 C 123.7 99.2 123.5 98.7 123.5 98.2 C 123.5 97.7 123.7 97.3 124.1 96.9 C 124.4 96.6 124.9 96.4 125.4 96.4 C 125.9 96.4 126.3 96.6 126.7 96.9 C 127 97.3 127.2 97.7 127.2 98.2 C 127.2 98.6 127.1 98.9 126.9 99.1 C 126.8 99.4 126.6 99.6 126.3 99.8 C 126 100 125.7 100.1 125.4 100.1 Z M 132.1 79 C 132.1 79 132.08 80.8 132.1 80.8 C 132.1 81.4 132 81.9 131.8 82.6 C 131.6 83.2 131.3 83.8 130.9 84.4 C 130.5 85 130.1 85.5 129.5 86 C 129.5 86 128.2 84.9 128.2 84.9 C 128.6 84.3 129 83.6 129.3 83 C 129.6 82.3 129.8 81.6 129.8 80.8 C 129.79 80.84 129.8 79 129.8 79 L 132.1 79 Z M 137.3 79 C 137.3 79 137.32 80.8 137.3 80.8 C 137.3 81.4 137.2 81.9 137 82.6 C 136.8 83.2 136.5 83.8 136.1 84.4 C 135.8 85 135.3 85.5 134.7 86 C 134.7 86 133.4 84.9 133.4 84.9 C 133.9 84.3 134.2 83.6 134.6 83 C 134.9 82.3 135 81.6 135 80.8 C 135.03 80.84 135 79 135 79 L 137.3 79 Z " stroke="none" fill="#ffffff"/>  </g>  <g id="Polygon118873">    <path d="M 14.7 69.8 C 14.3 69.8 13.9 69.8 13.6 69.7 C 13.3 69.6 13.1 69.6 12.9 69.5 C 12.9 69.5 13.5 67.4 13.5 67.4 C 14.1 67.5 14.6 67.6 15.1 67.5 C 15.5 67.5 15.9 67.3 16.3 66.9 C 16.6 66.6 17 66 17.3 65.2 C 17.26 65.21 17.7 64 17.7 64 L 11.9 48.2 L 14.5 48.2 L 18.9 60.7 L 19 60.7 L 23.4 48.2 L 26 48.2 C 26 48.2 19.31 66.19 19.3 66.2 C 19 67 18.6 67.7 18.2 68.2 C 17.8 68.7 17.2 69.1 16.7 69.4 C 16.1 69.7 15.4 69.8 14.7 69.8 Z M 34.6 64.2 C 33.2 64.2 32 63.9 30.9 63.2 C 29.8 62.5 29 61.6 28.4 60.4 C 27.8 59.2 27.5 57.8 27.5 56.1 C 27.5 54.5 27.8 53.1 28.4 51.8 C 29 50.6 29.8 49.7 30.9 49 C 32 48.3 33.2 48 34.6 48 C 36 48 37.3 48.3 38.3 49 C 39.4 49.7 40.2 50.6 40.8 51.8 C 41.4 53.1 41.7 54.5 41.7 56.1 C 41.7 57.8 41.4 59.2 40.8 60.4 C 40.2 61.6 39.4 62.5 38.3 63.2 C 37.3 63.9 36 64.2 34.6 64.2 Z M 34.6 62.1 C 35.7 62.1 36.6 61.8 37.3 61.2 C 38 60.7 38.5 60 38.8 59.1 C 39.2 58.2 39.3 57.2 39.3 56.1 C 39.3 55.1 39.2 54.1 38.8 53.2 C 38.5 52.3 38 51.6 37.3 51 C 36.6 50.4 35.7 50.2 34.6 50.2 C 33.5 50.2 32.7 50.4 32 51 C 31.3 51.6 30.7 52.3 30.4 53.2 C 30.1 54.1 29.9 55.1 29.9 56.1 C 29.9 57.2 30.1 58.2 30.4 59.1 C 30.7 60 31.3 60.7 32 61.2 C 32.7 61.8 33.5 62.1 34.6 62.1 Z M 55.1 57.5 C 55.07 57.48 55.1 48.2 55.1 48.2 L 57.5 48.2 L 57.5 63.9 L 55.1 63.9 L 55.1 61.2 C 55.1 61.2 54.91 61.24 54.9 61.2 C 54.5 62 54 62.7 53.2 63.3 C 52.4 63.8 51.4 64.1 50.2 64.1 C 49.3 64.1 48.4 63.9 47.6 63.5 C 46.9 63 46.3 62.4 45.8 61.5 C 45.4 60.6 45.2 59.5 45.2 58.2 C 45.17 58.17 45.2 48.2 45.2 48.2 L 47.6 48.2 C 47.6 48.2 47.59 58.01 47.6 58 C 47.6 59.2 47.9 60.1 48.6 60.8 C 49.2 61.4 50 61.8 51 61.8 C 51.6 61.8 52.2 61.6 52.9 61.3 C 53.5 61 54 60.5 54.4 59.9 C 54.9 59.3 55.1 58.5 55.1 57.5 Z M 61.8 63.9 L 61.8 48.2 L 64.1 48.2 L 64.1 50.6 C 64.1 50.6 64.26 50.56 64.3 50.6 C 64.5 49.8 65.1 49.2 65.8 48.7 C 66.6 48.2 67.4 47.9 68.4 47.9 C 68.5 47.9 68.8 47.9 69 48 C 69.3 48 69.5 48 69.6 48 C 69.6 48 69.6 50.4 69.6 50.4 C 69.5 50.4 69.4 50.4 69.1 50.3 C 68.8 50.3 68.5 50.3 68.1 50.3 C 67.4 50.3 66.7 50.4 66.1 50.8 C 65.5 51.1 65 51.5 64.7 52.1 C 64.4 52.6 64.2 53.3 64.2 54 C 64.18 53.96 64.2 63.9 64.2 63.9 L 61.8 63.9 Z M 80.9 63.9 L 80.9 43 L 83.3 43 L 83.3 50.7 C 83.3 50.7 83.53 50.69 83.5 50.7 C 83.7 50.4 84 50.1 84.3 49.6 C 84.6 49.2 85 48.8 85.6 48.5 C 86.2 48.2 87 48 88.1 48 C 89.4 48 90.6 48.3 91.6 49 C 92.6 49.6 93.4 50.6 93.9 51.8 C 94.5 53 94.8 54.4 94.8 56.1 C 94.8 57.8 94.5 59.2 93.9 60.4 C 93.4 61.6 92.6 62.6 91.6 63.2 C 90.6 63.9 89.4 64.2 88.1 64.2 C 87.1 64.2 86.3 64.1 85.7 63.7 C 85.1 63.4 84.6 63 84.3 62.6 C 84 62.1 83.7 61.8 83.5 61.5 C 83.53 61.49 83.2 61.5 83.2 61.5 L 83.2 63.9 L 80.9 63.9 Z M 83.3 56 C 83.3 57.2 83.5 58.3 83.8 59.2 C 84.2 60.1 84.7 60.8 85.3 61.3 C 86 61.8 86.8 62.1 87.8 62.1 C 88.8 62.1 89.6 61.8 90.3 61.3 C 91 60.7 91.5 60 91.8 59.1 C 92.2 58.2 92.4 57.2 92.4 56 C 92.4 54.9 92.2 53.9 91.9 53.1 C 91.5 52.2 91 51.5 90.3 50.9 C 89.7 50.4 88.8 50.2 87.8 50.2 C 86.8 50.2 86 50.4 85.3 50.9 C 84.6 51.4 84.1 52.1 83.8 53 C 83.5 53.8 83.3 54.9 83.3 56 Z M 108.2 57.5 C 108.17 57.48 108.2 48.2 108.2 48.2 L 110.6 48.2 L 110.6 63.9 L 108.2 63.9 L 108.2 61.2 C 108.2 61.2 108 61.24 108 61.2 C 107.6 62 107.1 62.7 106.3 63.3 C 105.5 63.8 104.5 64.1 103.3 64.1 C 102.4 64.1 101.5 63.9 100.7 63.5 C 100 63 99.4 62.4 98.9 61.5 C 98.5 60.6 98.3 59.5 98.3 58.2 C 98.27 58.17 98.3 48.2 98.3 48.2 L 100.7 48.2 C 100.7 48.2 100.68 58.01 100.7 58 C 100.7 59.2 101 60.1 101.6 60.8 C 102.3 61.4 103.1 61.8 104.1 61.8 C 104.7 61.8 105.3 61.6 106 61.3 C 106.6 61 107.1 60.5 107.5 59.9 C 108 59.3 108.2 58.5 108.2 57.5 Z M 125.8 51.7 C 125.8 51.7 123.6 52.3 123.6 52.3 C 123.5 52 123.3 51.6 123 51.3 C 122.8 50.9 122.4 50.6 122 50.4 C 121.5 50.2 120.9 50.1 120.2 50.1 C 119.3 50.1 118.5 50.3 117.8 50.7 C 117.2 51.2 116.9 51.7 116.9 52.4 C 116.9 53 117.1 53.5 117.5 53.8 C 118 54.2 118.7 54.5 119.6 54.7 C 119.6 54.7 121.9 55.3 121.9 55.3 C 123.3 55.6 124.4 56.1 125.1 56.8 C 125.8 57.5 126.1 58.4 126.1 59.5 C 126.1 60.4 125.8 61.2 125.3 61.9 C 124.8 62.6 124.1 63.2 123.2 63.6 C 122.3 64 121.2 64.2 120 64.2 C 118.4 64.2 117 63.9 116 63.2 C 114.9 62.5 114.3 61.5 114 60.1 C 114 60.1 116.3 59.6 116.3 59.6 C 116.5 60.4 116.9 61 117.5 61.5 C 118.1 61.9 118.9 62.1 119.9 62.1 C 121 62.1 121.9 61.9 122.6 61.4 C 123.3 60.9 123.6 60.3 123.6 59.6 C 123.6 59.1 123.4 58.6 123 58.3 C 122.6 57.9 122.1 57.6 121.3 57.4 C 121.3 57.4 118.7 56.8 118.7 56.8 C 117.2 56.5 116.2 56 115.5 55.2 C 114.8 54.5 114.5 53.6 114.5 52.5 C 114.5 51.6 114.7 50.9 115.2 50.2 C 115.7 49.5 116.4 49 117.3 48.6 C 118.2 48.2 119.1 48 120.2 48 C 121.8 48 123 48.3 123.9 49 C 124.8 49.7 125.4 50.6 125.8 51.7 Z M 129.5 63.9 L 129.5 48.2 L 131.9 48.2 L 131.9 63.9 L 129.5 63.9 Z M 130.7 45.6 C 130.2 45.6 129.8 45.4 129.5 45.1 C 129.1 44.8 129 44.4 129 43.9 C 129 43.5 129.1 43.1 129.5 42.8 C 129.8 42.5 130.2 42.3 130.7 42.3 C 131.2 42.3 131.6 42.5 131.9 42.8 C 132.2 43.1 132.4 43.5 132.4 43.9 C 132.4 44.4 132.2 44.8 131.9 45.1 C 131.6 45.4 131.2 45.6 130.7 45.6 Z M 138.6 54.5 C 138.59 54.45 138.6 63.9 138.6 63.9 L 136.2 63.9 L 136.2 48.2 L 138.5 48.2 L 138.5 50.6 C 138.5 50.6 138.71 50.65 138.7 50.6 C 139.1 49.8 139.6 49.2 140.4 48.7 C 141.1 48.2 142.1 48 143.3 48 C 144.4 48 145.3 48.2 146.1 48.6 C 146.9 49.1 147.5 49.7 147.9 50.6 C 148.4 51.5 148.6 52.6 148.6 53.9 C 148.61 53.92 148.6 63.9 148.6 63.9 L 146.2 63.9 C 146.2 63.9 146.2 54.08 146.2 54.1 C 146.2 52.8 145.9 51.9 145.2 51.2 C 144.6 50.5 143.7 50.2 142.6 50.2 C 141.8 50.2 141.1 50.3 140.5 50.7 C 139.9 51 139.5 51.5 139.1 52.1 C 138.8 52.8 138.6 53.5 138.6 54.5 Z M 159.4 64.2 C 157.9 64.2 156.6 63.9 155.5 63.2 C 154.4 62.5 153.6 61.6 153 60.4 C 152.4 59.2 152.1 57.8 152.1 56.2 C 152.1 54.6 152.4 53.1 153 51.9 C 153.6 50.7 154.4 49.7 155.5 49 C 156.5 48.3 157.8 48 159.2 48 C 160 48 160.8 48.1 161.6 48.4 C 162.4 48.7 163.1 49.1 163.8 49.7 C 164.4 50.3 164.9 51.1 165.3 52.1 C 165.7 53.1 165.9 54.4 165.9 55.8 C 165.92 55.84 165.9 56.9 165.9 56.9 L 153.8 56.9 L 153.8 54.8 C 153.8 54.8 163.47 54.78 163.5 54.8 C 163.5 53.9 163.3 53.1 162.9 52.4 C 162.6 51.7 162.1 51.2 161.4 50.8 C 160.8 50.4 160 50.2 159.2 50.2 C 158.2 50.2 157.4 50.4 156.7 50.9 C 156 51.3 155.4 52 155.1 52.7 C 154.7 53.5 154.5 54.3 154.5 55.1 C 154.5 55.1 154.5 56.5 154.5 56.5 C 154.5 57.7 154.7 58.7 155.1 59.5 C 155.5 60.4 156.1 61 156.8 61.4 C 157.6 61.8 158.4 62.1 159.4 62.1 C 160 62.1 160.6 62 161.1 61.8 C 161.7 61.6 162.1 61.3 162.5 61 C 162.8 60.6 163.1 60.2 163.3 59.6 C 163.3 59.6 165.7 60.3 165.7 60.3 C 165.4 61.1 165 61.7 164.4 62.3 C 163.9 62.9 163.1 63.4 162.3 63.7 C 161.4 64.1 160.5 64.2 159.4 64.2 Z M 180.4 51.7 C 180.4 51.7 178.2 52.3 178.2 52.3 C 178.1 52 177.9 51.6 177.6 51.3 C 177.4 50.9 177 50.6 176.6 50.4 C 176.1 50.2 175.5 50.1 174.8 50.1 C 173.9 50.1 173.1 50.3 172.4 50.7 C 171.8 51.2 171.5 51.7 171.5 52.4 C 171.5 53 171.7 53.5 172.1 53.8 C 172.6 54.2 173.3 54.5 174.2 54.7 C 174.2 54.7 176.5 55.3 176.5 55.3 C 177.9 55.6 179 56.1 179.7 56.8 C 180.4 57.5 180.7 58.4 180.7 59.5 C 180.7 60.4 180.4 61.2 179.9 61.9 C 179.4 62.6 178.7 63.2 177.8 63.6 C 176.9 64 175.8 64.2 174.6 64.2 C 173 64.2 171.6 63.9 170.6 63.2 C 169.5 62.5 168.9 61.5 168.6 60.1 C 168.6 60.1 170.9 59.6 170.9 59.6 C 171.1 60.4 171.5 61 172.1 61.5 C 172.7 61.9 173.5 62.1 174.5 62.1 C 175.6 62.1 176.5 61.9 177.2 61.4 C 177.9 60.9 178.2 60.3 178.2 59.6 C 178.2 59.1 178 58.6 177.6 58.3 C 177.2 57.9 176.7 57.6 175.9 57.4 C 175.9 57.4 173.3 56.8 173.3 56.8 C 171.8 56.5 170.8 56 170.1 55.2 C 169.4 54.5 169.1 53.6 169.1 52.5 C 169.1 51.6 169.3 50.9 169.8 50.2 C 170.3 49.5 171 49 171.9 48.6 C 172.8 48.2 173.7 48 174.8 48 C 176.4 48 177.6 48.3 178.5 49 C 179.4 49.7 180 50.6 180.4 51.7 Z M 195.3 51.7 C 195.3 51.7 193.1 52.3 193.1 52.3 C 193 52 192.8 51.6 192.5 51.3 C 192.3 50.9 191.9 50.6 191.5 50.4 C 191 50.2 190.4 50.1 189.7 50.1 C 188.8 50.1 188 50.3 187.3 50.7 C 186.7 51.2 186.4 51.7 186.4 52.4 C 186.4 53 186.6 53.5 187 53.8 C 187.5 54.2 188.1 54.5 189.1 54.7 C 189.1 54.7 191.4 55.3 191.4 55.3 C 192.8 55.6 193.9 56.1 194.5 56.8 C 195.2 57.5 195.6 58.4 195.6 59.5 C 195.6 60.4 195.3 61.2 194.8 61.9 C 194.3 62.6 193.6 63.2 192.6 63.6 C 191.7 64 190.7 64.2 189.4 64.2 C 187.8 64.2 186.5 63.9 185.5 63.2 C 184.4 62.5 183.7 61.5 183.5 60.1 C 183.5 60.1 185.8 59.6 185.8 59.6 C 186 60.4 186.4 61 187 61.5 C 187.6 61.9 188.4 62.1 189.4 62.1 C 190.5 62.1 191.4 61.9 192.1 61.4 C 192.7 60.9 193.1 60.3 193.1 59.6 C 193.1 59.1 192.9 58.6 192.5 58.3 C 192.1 57.9 191.5 57.6 190.7 57.4 C 190.7 57.4 188.1 56.8 188.1 56.8 C 186.7 56.5 185.6 56 185 55.2 C 184.3 54.5 184 53.6 184 52.5 C 184 51.6 184.2 50.9 184.7 50.2 C 185.2 49.5 185.9 49 186.8 48.6 C 187.6 48.2 188.6 48 189.7 48 C 191.3 48 192.5 48.3 193.4 49 C 194.3 49.7 194.9 50.6 195.3 51.7 Z " stroke="none" fill="#ffffff"/>  </g>  <g id="Polygon118872">    <path d="M 1.4 13.5 C 1.4 13.5 1.39 11.66 1.4 11.7 C 1.4 11.1 1.5 10.5 1.7 9.9 C 1.9 9.2 2.2 8.6 2.6 8 C 3 7.5 3.4 6.9 4 6.5 C 4 6.5 5.3 7.6 5.3 7.6 C 4.8 8.2 4.5 8.8 4.2 9.5 C 3.8 10.2 3.7 10.9 3.7 11.6 C 3.68 11.62 3.7 13.5 3.7 13.5 L 1.4 13.5 Z M 6.6 13.5 C 6.6 13.5 6.63 11.66 6.6 11.7 C 6.6 11.1 6.7 10.5 6.9 9.9 C 7.1 9.2 7.4 8.6 7.8 8 C 8.2 7.5 8.7 6.9 9.2 6.5 C 9.2 6.5 10.5 7.6 10.5 7.6 C 10.1 8.2 9.7 8.8 9.4 9.5 C 9.1 10.2 8.9 10.9 8.9 11.6 C 8.92 11.62 8.9 13.5 8.9 13.5 L 6.6 13.5 Z M 31.1 17.4 C 31.1 19.6 30.7 21.5 29.9 23.2 C 29.1 24.8 28 26 26.7 26.9 C 25.3 27.8 23.7 28.2 21.9 28.2 C 20.1 28.2 18.5 27.8 17.1 26.9 C 15.7 26 14.6 24.8 13.8 23.2 C 13 21.5 12.6 19.6 12.6 17.4 C 12.6 15.2 13 13.3 13.8 11.7 C 14.6 10.1 15.7 8.9 17.1 8 C 18.5 7.1 20.1 6.7 21.9 6.7 C 23.7 6.7 25.3 7.1 26.7 8 C 28 8.9 29.1 10.1 29.9 11.7 C 30.7 13.3 31.1 15.2 31.1 17.4 Z M 28.7 17.4 C 28.7 15.6 28.4 14.1 27.8 12.8 C 27.2 11.6 26.4 10.6 25.3 10 C 24.3 9.4 23.2 9 21.9 9 C 20.6 9 19.5 9.4 18.4 10 C 17.4 10.6 16.6 11.6 16 12.8 C 15.4 14.1 15.1 15.6 15.1 17.4 C 15.1 19.2 15.4 20.8 16 22 C 16.6 23.3 17.4 24.2 18.4 24.9 C 19.5 25.5 20.6 25.8 21.9 25.8 C 23.2 25.8 24.3 25.5 25.3 24.9 C 26.4 24.2 27.2 23.3 27.8 22 C 28.4 20.8 28.7 19.2 28.7 17.4 Z M 44.9 21.5 C 44.92 21.48 44.9 12.2 44.9 12.2 L 47.3 12.2 L 47.3 27.9 L 44.9 27.9 L 44.9 25.2 C 44.9 25.2 44.75 25.24 44.8 25.2 C 44.4 26 43.8 26.7 43 27.3 C 42.3 27.8 41.3 28.1 40.1 28.1 C 39.1 28.1 38.2 27.9 37.5 27.5 C 36.7 27 36.1 26.4 35.7 25.5 C 35.2 24.6 35 23.5 35 22.2 C 35.02 22.17 35 12.2 35 12.2 L 37.4 12.2 C 37.4 12.2 37.43 22.01 37.4 22 C 37.4 23.2 37.8 24.1 38.4 24.8 C 39 25.4 39.9 25.8 40.9 25.8 C 41.5 25.8 42.1 25.6 42.7 25.3 C 43.3 25 43.9 24.5 44.3 23.9 C 44.7 23.3 44.9 22.5 44.9 21.5 Z M 51.6 27.9 L 51.6 12.2 L 53.9 12.2 L 53.9 14.6 C 53.9 14.6 54.1 14.56 54.1 14.6 C 54.4 13.8 54.9 13.2 55.7 12.7 C 56.4 12.2 57.3 11.9 58.2 11.9 C 58.4 11.9 58.6 11.9 58.9 12 C 59.1 12 59.3 12 59.5 12 C 59.5 12 59.5 14.4 59.5 14.4 C 59.4 14.4 59.2 14.4 58.9 14.3 C 58.6 14.3 58.3 14.3 58 14.3 C 57.2 14.3 56.5 14.4 56 14.8 C 55.4 15.1 54.9 15.5 54.5 16.1 C 54.2 16.6 54 17.3 54 18 C 54.02 17.96 54 27.9 54 27.9 L 51.6 27.9 Z M 71.6 27.9 L 69 27.9 L 76.6 7 L 79.3 7 L 87 27.9 L 84.3 27.9 L 78 10.3 L 77.9 10.3 L 71.6 27.9 Z M 72.6 19.7 L 83.3 19.7 L 83.3 22 L 72.6 22 L 72.6 19.7 Z M 92.7 7 L 92.7 27.9 L 90.1 27.9 L 90.1 7 L 92.7 7 Z M 111.9 28.2 C 110.4 28.2 109.1 27.9 108.1 27.2 C 107 26.5 106.2 25.5 105.6 24.3 C 105 23.1 104.8 21.7 104.8 20.1 C 104.8 18.5 105.1 17.1 105.6 15.9 C 106.2 14.7 107.1 13.7 108.1 13 C 109.2 12.3 110.4 12 111.8 12 C 112.9 12 113.9 12.2 114.8 12.6 C 115.7 13 116.4 13.6 117 14.3 C 117.6 15.1 117.9 15.9 118.1 16.9 C 118.1 16.9 115.6 16.9 115.6 16.9 C 115.5 16.2 115.1 15.5 114.4 15 C 113.8 14.4 112.9 14.2 111.9 14.2 C 110.9 14.2 110.1 14.4 109.4 14.9 C 108.7 15.4 108.2 16.1 107.8 16.9 C 107.4 17.8 107.2 18.9 107.2 20 C 107.2 21.3 107.4 22.3 107.8 23.2 C 108.1 24.1 108.7 24.8 109.4 25.3 C 110.1 25.8 110.9 26.1 111.9 26.1 C 112.5 26.1 113.1 26 113.6 25.7 C 114.1 25.5 114.5 25.2 114.9 24.8 C 115.2 24.4 115.5 23.9 115.6 23.3 C 115.6 23.3 118.1 23.3 118.1 23.3 C 117.9 24.2 117.6 25.1 117.1 25.8 C 116.5 26.6 115.8 27.1 114.9 27.6 C 114.1 28 113 28.2 111.9 28.2 Z M 126.1 28.3 C 125.1 28.3 124.2 28.1 123.4 27.7 C 122.6 27.3 121.9 26.8 121.5 26.1 C 121 25.3 120.7 24.5 120.7 23.4 C 120.7 22.5 120.9 21.8 121.3 21.2 C 121.6 20.7 122.1 20.2 122.7 19.9 C 123.3 19.6 123.9 19.4 124.7 19.2 C 125.4 19 126.1 18.9 126.8 18.8 C 127.8 18.7 128.6 18.6 129.2 18.5 C 129.8 18.5 130.2 18.4 130.5 18.2 C 130.8 18 130.9 17.8 130.9 17.4 C 130.9 17.4 130.9 17.3 130.9 17.3 C 130.9 16.3 130.6 15.5 130.1 15 C 129.5 14.4 128.7 14.1 127.6 14.1 C 126.4 14.1 125.5 14.4 124.9 14.9 C 124.2 15.4 123.8 15.9 123.5 16.5 C 123.5 16.5 121.2 15.7 121.2 15.7 C 121.6 14.7 122.2 14 122.8 13.4 C 123.5 12.9 124.3 12.5 125.1 12.3 C 125.9 12.1 126.7 12 127.5 12 C 128 12 128.6 12 129.2 12.2 C 129.9 12.3 130.5 12.5 131.2 12.9 C 131.8 13.3 132.3 13.8 132.7 14.6 C 133.1 15.3 133.3 16.3 133.3 17.6 C 133.3 17.55 133.3 27.9 133.3 27.9 L 130.9 27.9 L 130.9 25.8 C 130.9 25.8 130.77 25.77 130.8 25.8 C 130.6 26.1 130.3 26.5 129.9 26.9 C 129.6 27.3 129.1 27.6 128.4 27.9 C 127.8 28.1 127 28.3 126.1 28.3 Z M 126.5 26.1 C 127.4 26.1 128.2 25.9 128.9 25.5 C 129.5 25.2 130 24.7 130.4 24.1 C 130.7 23.5 130.9 22.9 130.9 22.2 C 130.9 22.2 130.9 20 130.9 20 C 130.8 20.1 130.6 20.2 130.2 20.3 C 129.9 20.4 129.5 20.5 129 20.6 C 128.6 20.7 128.2 20.7 127.7 20.8 C 127.3 20.8 127 20.9 126.7 20.9 C 126.1 21 125.5 21.1 125 21.3 C 124.4 21.5 124 21.7 123.7 22.1 C 123.3 22.5 123.2 23 123.2 23.6 C 123.2 24.4 123.5 25 124.1 25.5 C 124.7 25.9 125.5 26.1 126.5 26.1 Z M 140 18.5 C 139.97 18.45 140 27.9 140 27.9 L 137.6 27.9 L 137.6 12.2 L 139.9 12.2 L 139.9 14.6 C 139.9 14.6 140.1 14.65 140.1 14.6 C 140.5 13.8 141 13.2 141.8 12.7 C 142.5 12.2 143.5 12 144.7 12 C 145.7 12 146.7 12.2 147.5 12.6 C 148.3 13.1 148.9 13.7 149.3 14.6 C 149.8 15.5 150 16.6 150 17.9 C 150 17.92 150 27.9 150 27.9 L 147.6 27.9 C 147.6 27.9 147.58 18.08 147.6 18.1 C 147.6 16.8 147.3 15.9 146.6 15.2 C 146 14.5 145.1 14.2 144 14.2 C 143.2 14.2 142.5 14.3 141.9 14.7 C 141.3 15 140.8 15.5 140.5 16.1 C 140.1 16.8 140 17.5 140 18.5 Z M 173.6 15.7 C 173.6 15.7 171.5 16.3 171.5 16.3 C 171.3 16 171.1 15.6 170.9 15.3 C 170.6 14.9 170.3 14.6 169.8 14.4 C 169.4 14.2 168.8 14.1 168.1 14.1 C 167.1 14.1 166.3 14.3 165.7 14.7 C 165 15.2 164.7 15.7 164.7 16.4 C 164.7 17 164.9 17.5 165.4 17.8 C 165.8 18.2 166.5 18.5 167.4 18.7 C 167.4 18.7 169.8 19.3 169.8 19.3 C 171.2 19.6 172.2 20.1 172.9 20.8 C 173.6 21.5 173.9 22.4 173.9 23.5 C 173.9 24.4 173.7 25.2 173.2 25.9 C 172.6 26.6 171.9 27.2 171 27.6 C 170.1 28 169 28.2 167.8 28.2 C 166.2 28.2 164.9 27.9 163.8 27.2 C 162.8 26.5 162.1 25.5 161.8 24.1 C 161.8 24.1 164.1 23.6 164.1 23.6 C 164.3 24.4 164.7 25 165.4 25.5 C 166 25.9 166.8 26.1 167.8 26.1 C 168.9 26.1 169.8 25.9 170.4 25.4 C 171.1 24.9 171.4 24.3 171.4 23.6 C 171.4 23.1 171.2 22.6 170.9 22.3 C 170.5 21.9 169.9 21.6 169.1 21.4 C 169.1 21.4 166.5 20.8 166.5 20.8 C 165 20.5 164 20 163.3 19.2 C 162.6 18.5 162.3 17.6 162.3 16.5 C 162.3 15.6 162.6 14.9 163.1 14.2 C 163.6 13.5 164.2 13 165.1 12.6 C 166 12.2 167 12 168.1 12 C 169.6 12 170.9 12.3 171.7 13 C 172.6 13.7 173.3 14.6 173.6 15.7 Z M 183.7 28.2 C 182.3 28.2 181 27.9 179.9 27.2 C 178.9 26.5 178 25.6 177.4 24.4 C 176.9 23.2 176.6 21.8 176.6 20.1 C 176.6 18.5 176.9 17.1 177.4 15.8 C 178 14.6 178.9 13.7 179.9 13 C 181 12.3 182.3 12 183.7 12 C 185.1 12 186.3 12.3 187.4 13 C 188.5 13.7 189.3 14.6 189.9 15.8 C 190.5 17.1 190.8 18.5 190.8 20.1 C 190.8 21.8 190.5 23.2 189.9 24.4 C 189.3 25.6 188.5 26.5 187.4 27.2 C 186.3 27.9 185.1 28.2 183.7 28.2 Z M 183.7 26.1 C 184.7 26.1 185.6 25.8 186.3 25.2 C 187 24.7 187.5 24 187.9 23.1 C 188.2 22.2 188.4 21.2 188.4 20.1 C 188.4 19.1 188.2 18.1 187.9 17.2 C 187.5 16.3 187 15.6 186.3 15 C 185.6 14.4 184.7 14.2 183.7 14.2 C 182.6 14.2 181.7 14.4 181 15 C 180.3 15.6 179.8 16.3 179.5 17.2 C 179.1 18.1 179 19.1 179 20.1 C 179 21.2 179.1 22.2 179.5 23.1 C 179.8 24 180.3 24.7 181 25.2 C 181.7 25.8 182.6 26.1 183.7 26.1 Z M 196.8 7 L 196.8 27.9 L 194.4 27.9 L 194.4 7 L 196.8 7 Z M 213.7 12.2 L 207.9 27.9 L 205.5 27.9 L 199.7 12.2 L 202.3 12.2 L 206.6 24.7 L 206.8 24.7 L 211.1 12.2 L 213.7 12.2 Z M 222.6 28.2 C 221 28.2 219.7 27.9 218.7 27.2 C 217.6 26.5 216.7 25.6 216.1 24.4 C 215.5 23.2 215.2 21.8 215.2 20.2 C 215.2 18.6 215.5 17.1 216.1 15.9 C 216.7 14.7 217.5 13.7 218.6 13 C 219.7 12.3 220.9 12 222.3 12 C 223.1 12 223.9 12.1 224.7 12.4 C 225.5 12.7 226.3 13.1 226.9 13.7 C 227.6 14.3 228.1 15.1 228.5 16.1 C 228.9 17.1 229.1 18.4 229.1 19.8 C 229.07 19.84 229.1 20.9 229.1 20.9 L 217 20.9 L 217 18.8 C 217 18.8 226.61 18.78 226.6 18.8 C 226.6 17.9 226.4 17.1 226.1 16.4 C 225.7 15.7 225.2 15.2 224.6 14.8 C 223.9 14.4 223.2 14.2 222.3 14.2 C 221.4 14.2 220.5 14.4 219.8 14.9 C 219.1 15.3 218.6 16 218.2 16.7 C 217.8 17.5 217.7 18.3 217.7 19.1 C 217.7 19.1 217.7 20.5 217.7 20.5 C 217.7 21.7 217.9 22.7 218.3 23.5 C 218.7 24.4 219.3 25 220 25.4 C 220.7 25.8 221.6 26.1 222.6 26.1 C 223.2 26.1 223.8 26 224.3 25.8 C 224.8 25.6 225.2 25.3 225.6 25 C 226 24.6 226.3 24.2 226.5 23.6 C 226.5 23.6 228.8 24.3 228.8 24.3 C 228.6 25.1 228.2 25.7 227.6 26.3 C 227 26.9 226.3 27.4 225.4 27.7 C 224.6 28.1 223.6 28.2 222.6 28.2 Z " stroke="none" fill="#ffffff"/>  </g></svg>