<?xml version="1.0" standalone="no"?><!DOCTYPE svg PUBLIC "-//W3C//DTD SVG 1.1//EN" "http://www.w3.org/Graphics/SVG/1.1/DTD/svg11.dtd"><svg xmlns="http://www.w3.org/2000/svg" version="1.1" width="275px" height="31.3px" viewBox="0 -8 275 31.3" style="top:-8px">  <desc>Promise vs. functionality</desc>  <defs/>  <g id="Polygon106608">    <path d="M 27.5 13.1 L 27.5 0 C 27.5 0 31.87 0 31.9 0 C 32.9 0 33.7 0.2 34.4 0.6 C 35 0.9 35.5 1.4 35.8 2 C 36.2 2.7 36.3 3.4 36.3 4.1 C 36.3 4.9 36.2 5.6 35.9 6.2 C 35.5 6.9 35.1 7.4 34.4 7.8 C 33.8 8.1 32.9 8.3 31.9 8.3 C 31.9 8.31 28.7 8.3 28.7 8.3 L 28.7 6.9 C 28.7 6.9 31.85 6.9 31.8 6.9 C 32.6 6.9 33.1 6.8 33.5 6.5 C 34 6.3 34.3 6 34.5 5.6 C 34.7 5.1 34.8 4.7 34.8 4.1 C 34.8 3.6 34.7 3.1 34.5 2.7 C 34.3 2.3 34 2 33.5 1.8 C 33.1 1.5 32.5 1.4 31.8 1.4 C 31.82 1.41 29 1.4 29 1.4 L 29 13.1 L 27.5 13.1 Z M 38.5 13.1 L 38.5 3.3 L 39.9 3.3 L 39.9 4.8 C 39.9 4.8 40.01 4.76 40 4.8 C 40.2 4.3 40.5 3.9 41 3.6 C 41.5 3.3 42 3.1 42.6 3.1 C 42.7 3.1 42.8 3.1 43 3.1 C 43.2 3.1 43.3 3.1 43.4 3.1 C 43.4 3.1 43.4 4.7 43.4 4.7 C 43.3 4.7 43.2 4.6 43 4.6 C 42.8 4.6 42.6 4.6 42.4 4.6 C 42 4.6 41.5 4.7 41.2 4.9 C 40.8 5.1 40.5 5.3 40.3 5.7 C 40.1 6 40 6.4 40 6.9 C 39.96 6.88 40 13.1 40 13.1 L 38.5 13.1 Z M 48.9 13.3 C 48 13.3 47.3 13.1 46.6 12.7 C 45.9 12.2 45.4 11.7 45 10.9 C 44.7 10.1 44.5 9.2 44.5 8.2 C 44.5 7.2 44.7 6.3 45 5.6 C 45.4 4.8 45.9 4.2 46.6 3.8 C 47.3 3.4 48 3.1 48.9 3.1 C 49.8 3.1 50.6 3.4 51.2 3.8 C 51.9 4.2 52.4 4.8 52.8 5.6 C 53.2 6.3 53.4 7.2 53.4 8.2 C 53.4 9.2 53.2 10.1 52.8 10.9 C 52.4 11.7 51.9 12.2 51.2 12.7 C 50.6 13.1 49.8 13.3 48.9 13.3 Z M 48.9 11.9 C 49.6 11.9 50.1 11.8 50.6 11.4 C 51 11.1 51.3 10.6 51.5 10.1 C 51.8 9.5 51.9 8.9 51.9 8.2 C 51.9 7.6 51.8 7 51.5 6.4 C 51.3 5.8 51 5.4 50.6 5 C 50.1 4.7 49.6 4.5 48.9 4.5 C 48.2 4.5 47.7 4.7 47.3 5 C 46.8 5.4 46.5 5.8 46.3 6.4 C 46.1 7 46 7.6 46 8.2 C 46 8.9 46.1 9.5 46.3 10.1 C 46.5 10.6 46.8 11.1 47.3 11.4 C 47.7 11.8 48.2 11.9 48.9 11.9 Z M 55.6 13.1 L 55.6 3.3 L 57.1 3.3 L 57.1 4.8 C 57.1 4.8 57.23 4.81 57.2 4.8 C 57.4 4.3 57.8 3.9 58.2 3.6 C 58.7 3.3 59.2 3.1 59.9 3.1 C 60.5 3.1 61.1 3.3 61.5 3.6 C 61.9 3.9 62.3 4.3 62.5 4.8 C 62.5 4.8 62.6 4.8 62.6 4.8 C 62.9 4.3 63.2 3.9 63.7 3.6 C 64.2 3.3 64.8 3.1 65.5 3.1 C 66.4 3.1 67.1 3.4 67.7 4 C 68.3 4.5 68.5 5.4 68.5 6.5 C 68.53 6.52 68.5 13.1 68.5 13.1 L 67 13.1 C 67 13.1 67.03 6.52 67 6.5 C 67 5.8 66.8 5.3 66.4 5 C 66 4.7 65.6 4.5 65 4.5 C 64.3 4.5 63.8 4.7 63.4 5.1 C 63 5.5 62.9 6.1 62.9 6.7 C 62.86 6.7 62.9 13.1 62.9 13.1 L 61.3 13.1 C 61.3 13.1 61.32 6.37 61.3 6.4 C 61.3 5.8 61.1 5.4 60.8 5 C 60.4 4.7 60 4.5 59.4 4.5 C 59 4.5 58.6 4.6 58.3 4.8 C 57.9 5 57.7 5.3 57.5 5.7 C 57.3 6 57.2 6.5 57.2 7 C 57.16 6.95 57.2 13.1 57.2 13.1 L 55.6 13.1 Z M 71.2 13.1 L 71.2 3.3 L 72.7 3.3 L 72.7 13.1 L 71.2 13.1 Z M 72 1.6 C 71.7 1.6 71.4 1.5 71.2 1.3 C 71 1.1 70.9 0.9 70.9 0.6 C 70.9 0.3 71 0.1 71.2 -0.1 C 71.4 -0.3 71.7 -0.4 72 -0.4 C 72.3 -0.4 72.5 -0.3 72.8 -0.1 C 73 0.1 73.1 0.3 73.1 0.6 C 73.1 0.9 73 1.1 72.8 1.3 C 72.5 1.5 72.3 1.6 72 1.6 Z M 82.3 5.5 C 82.3 5.5 81 5.9 81 5.9 C 80.9 5.6 80.8 5.4 80.6 5.2 C 80.4 5 80.2 4.8 79.9 4.7 C 79.7 4.5 79.3 4.4 78.9 4.4 C 78.3 4.4 77.8 4.6 77.4 4.9 C 77 5.1 76.8 5.5 76.8 5.9 C 76.8 6.3 76.9 6.6 77.2 6.8 C 77.4 7 77.9 7.2 78.4 7.3 C 78.4 7.3 79.9 7.7 79.9 7.7 C 80.8 7.9 81.4 8.2 81.9 8.7 C 82.3 9.1 82.5 9.7 82.5 10.4 C 82.5 10.9 82.4 11.4 82 11.9 C 81.7 12.3 81.3 12.7 80.7 12.9 C 80.1 13.2 79.4 13.3 78.7 13.3 C 77.7 13.3 76.8 13.1 76.2 12.6 C 75.5 12.2 75.1 11.6 74.9 10.7 C 74.9 10.7 76.4 10.4 76.4 10.4 C 76.5 10.9 76.8 11.3 77.2 11.6 C 77.5 11.8 78 12 78.7 12 C 79.4 12 79.9 11.8 80.3 11.5 C 80.7 11.2 81 10.9 81 10.4 C 81 10.1 80.8 9.8 80.6 9.6 C 80.4 9.3 80 9.2 79.5 9.1 C 79.5 9.1 77.9 8.7 77.9 8.7 C 77 8.5 76.3 8.1 75.9 7.7 C 75.5 7.2 75.3 6.7 75.3 6 C 75.3 5.4 75.4 4.9 75.7 4.5 C 76 4.1 76.5 3.8 77 3.5 C 77.5 3.3 78.2 3.1 78.9 3.1 C 79.8 3.1 80.6 3.4 81.1 3.8 C 81.7 4.2 82.1 4.8 82.3 5.5 Z M 88.8 13.3 C 87.9 13.3 87.1 13.1 86.4 12.7 C 85.7 12.2 85.2 11.7 84.8 10.9 C 84.4 10.1 84.2 9.3 84.2 8.3 C 84.2 7.3 84.4 6.4 84.8 5.6 C 85.2 4.8 85.7 4.2 86.3 3.8 C 87 3.4 87.8 3.1 88.7 3.1 C 89.2 3.1 89.7 3.2 90.2 3.4 C 90.7 3.6 91.1 3.8 91.5 4.2 C 91.9 4.6 92.3 5.1 92.5 5.7 C 92.8 6.4 92.9 7.1 92.9 8.1 C 92.88 8.05 92.9 8.7 92.9 8.7 L 85.3 8.7 L 85.3 7.4 C 85.3 7.4 91.34 7.39 91.3 7.4 C 91.3 6.8 91.2 6.3 91 5.9 C 90.8 5.5 90.5 5.1 90.1 4.9 C 89.7 4.6 89.2 4.5 88.7 4.5 C 88.1 4.5 87.5 4.6 87.1 4.9 C 86.7 5.2 86.3 5.6 86.1 6.1 C 85.9 6.6 85.7 7.1 85.7 7.6 C 85.7 7.6 85.7 8.5 85.7 8.5 C 85.7 9.2 85.9 9.9 86.1 10.4 C 86.4 10.9 86.7 11.3 87.2 11.5 C 87.7 11.8 88.2 11.9 88.8 11.9 C 89.2 11.9 89.6 11.9 89.9 11.8 C 90.2 11.7 90.5 11.5 90.7 11.3 C 91 11 91.1 10.7 91.3 10.4 C 91.3 10.4 92.7 10.8 92.7 10.8 C 92.6 11.3 92.3 11.7 91.9 12.1 C 91.6 12.5 91.1 12.8 90.6 13 C 90.1 13.2 89.5 13.3 88.8 13.3 Z M 108.3 3.3 L 104.6 13.1 L 103.1 13.1 L 99.5 3.3 L 101.1 3.3 L 103.8 11.1 L 103.9 11.1 L 106.6 3.3 L 108.3 3.3 Z M 116.8 5.5 C 116.8 5.5 115.5 5.9 115.5 5.9 C 115.4 5.6 115.3 5.4 115.1 5.2 C 114.9 5 114.7 4.8 114.4 4.7 C 114.1 4.5 113.8 4.4 113.3 4.4 C 112.7 4.4 112.2 4.6 111.8 4.9 C 111.4 5.1 111.2 5.5 111.2 5.9 C 111.2 6.3 111.4 6.6 111.7 6.8 C 111.9 7 112.4 7.2 112.9 7.3 C 112.9 7.3 114.4 7.7 114.4 7.7 C 115.3 7.9 115.9 8.2 116.4 8.7 C 116.8 9.1 117 9.7 117 10.4 C 117 10.9 116.8 11.4 116.5 11.9 C 116.2 12.3 115.7 12.7 115.2 12.9 C 114.6 13.2 113.9 13.3 113.2 13.3 C 112.2 13.3 111.3 13.1 110.7 12.6 C 110 12.2 109.6 11.6 109.4 10.7 C 109.4 10.7 110.9 10.4 110.9 10.4 C 111 10.9 111.3 11.3 111.6 11.6 C 112 11.8 112.5 12 113.1 12 C 113.8 12 114.4 11.8 114.8 11.5 C 115.2 11.2 115.4 10.9 115.4 10.4 C 115.4 10.1 115.3 9.8 115.1 9.6 C 114.8 9.3 114.5 9.2 114 9.1 C 114 9.1 112.3 8.7 112.3 8.7 C 111.4 8.5 110.8 8.1 110.4 7.7 C 109.9 7.2 109.7 6.7 109.7 6 C 109.7 5.4 109.9 4.9 110.2 4.5 C 110.5 4.1 111 3.8 111.5 3.5 C 112 3.3 112.7 3.1 113.3 3.1 C 114.3 3.1 115.1 3.4 115.6 3.8 C 116.2 4.2 116.6 4.8 116.8 5.5 Z M 120.3 13.2 C 120 13.2 119.7 13.1 119.5 12.9 C 119.3 12.6 119.2 12.4 119.2 12 C 119.2 11.7 119.3 11.5 119.5 11.2 C 119.7 11 120 10.9 120.3 10.9 C 120.6 10.9 120.9 11 121.1 11.2 C 121.3 11.5 121.5 11.7 121.5 12 C 121.5 12.3 121.4 12.4 121.3 12.6 C 121.2 12.8 121.1 12.9 120.9 13 C 120.7 13.1 120.5 13.2 120.3 13.2 Z M 133.6 3.3 L 133.6 4.6 L 128.3 4.6 L 128.3 3.3 L 133.6 3.3 Z M 129.9 13.1 C 129.9 13.1 129.89 1.92 129.9 1.9 C 129.9 1.4 130 0.9 130.3 0.5 C 130.6 0.1 130.9 -0.1 131.3 -0.3 C 131.7 -0.5 132.2 -0.6 132.7 -0.6 C 133 -0.6 133.3 -0.6 133.6 -0.5 C 133.8 -0.5 134 -0.4 134.1 -0.4 C 134.1 -0.4 133.7 0.9 133.7 0.9 C 133.6 0.9 133.5 0.9 133.3 0.9 C 133.2 0.8 133 0.8 132.8 0.8 C 132.3 0.8 132 0.9 131.7 1.2 C 131.5 1.4 131.4 1.8 131.4 2.3 C 131.4 2.28 131.4 13.1 131.4 13.1 L 129.9 13.1 Z M 141.7 9.1 C 141.74 9.08 141.7 3.3 141.7 3.3 L 143.2 3.3 L 143.2 13.1 L 141.7 13.1 L 141.7 11.4 C 141.7 11.4 141.63 11.43 141.6 11.4 C 141.4 11.9 141 12.4 140.6 12.7 C 140.1 13 139.5 13.2 138.7 13.2 C 138.1 13.2 137.6 13.1 137.1 12.8 C 136.6 12.5 136.2 12.1 136 11.6 C 135.7 11 135.5 10.3 135.5 9.5 C 135.55 9.51 135.5 3.3 135.5 3.3 L 137.1 3.3 C 137.1 3.3 137.06 9.41 137.1 9.4 C 137.1 10.1 137.3 10.7 137.7 11.1 C 138.1 11.5 138.6 11.8 139.2 11.8 C 139.6 11.8 140 11.7 140.4 11.5 C 140.7 11.3 141.1 11 141.3 10.6 C 141.6 10.2 141.7 9.7 141.7 9.1 Z M 147.5 7.2 C 147.5 7.18 147.5 13.1 147.5 13.1 L 146 13.1 L 146 3.3 L 147.4 3.3 L 147.4 4.8 C 147.4 4.8 147.57 4.81 147.6 4.8 C 147.8 4.3 148.2 3.9 148.6 3.6 C 149.1 3.3 149.7 3.1 150.4 3.1 C 151.1 3.1 151.7 3.3 152.2 3.6 C 152.7 3.8 153.1 4.2 153.3 4.8 C 153.6 5.3 153.8 6 153.8 6.9 C 153.76 6.85 153.8 13.1 153.8 13.1 L 152.3 13.1 C 152.3 13.1 152.25 6.95 152.3 7 C 152.3 6.2 152.1 5.6 151.7 5.1 C 151.3 4.7 150.7 4.5 150 4.5 C 149.5 4.5 149.1 4.6 148.7 4.8 C 148.3 5 148 5.3 147.8 5.7 C 147.6 6.1 147.5 6.6 147.5 7.2 Z M 160.4 13.3 C 159.5 13.3 158.7 13.1 158 12.6 C 157.4 12.2 156.9 11.6 156.5 10.8 C 156.2 10.1 156 9.2 156 8.2 C 156 7.2 156.2 6.4 156.5 5.6 C 156.9 4.8 157.4 4.2 158.1 3.8 C 158.7 3.4 159.5 3.1 160.4 3.1 C 161.1 3.1 161.7 3.3 162.3 3.5 C 162.8 3.8 163.3 4.1 163.6 4.6 C 164 5.1 164.2 5.6 164.3 6.2 C 164.3 6.2 162.8 6.2 162.8 6.2 C 162.7 5.8 162.4 5.4 162 5 C 161.6 4.7 161.1 4.5 160.4 4.5 C 159.8 4.5 159.3 4.7 158.9 5 C 158.4 5.3 158.1 5.7 157.9 6.2 C 157.6 6.8 157.5 7.4 157.5 8.2 C 157.5 8.9 157.6 9.6 157.8 10.2 C 158.1 10.7 158.4 11.2 158.9 11.5 C 159.3 11.8 159.8 11.9 160.4 11.9 C 160.8 11.9 161.2 11.9 161.5 11.7 C 161.8 11.6 162.1 11.4 162.3 11.1 C 162.5 10.9 162.7 10.6 162.8 10.2 C 162.8 10.2 164.3 10.2 164.3 10.2 C 164.2 10.8 164 11.3 163.7 11.8 C 163.3 12.3 162.9 12.6 162.3 12.9 C 161.8 13.2 161.2 13.3 160.4 13.3 Z M 170.7 3.3 L 170.7 4.6 L 165.6 4.6 L 165.6 3.3 L 170.7 3.3 Z M 167.1 0.9 L 168.6 0.9 C 168.6 0.9 168.6 10.28 168.6 10.3 C 168.6 10.7 168.7 11 168.8 11.2 C 168.9 11.4 169.1 11.6 169.3 11.7 C 169.5 11.7 169.7 11.8 169.9 11.8 C 170.1 11.8 170.2 11.8 170.3 11.7 C 170.4 11.7 170.5 11.7 170.6 11.7 C 170.6 11.7 170.9 13 170.9 13 C 170.8 13.1 170.6 13.1 170.4 13.2 C 170.3 13.2 170 13.2 169.7 13.2 C 169.3 13.2 168.9 13.1 168.5 12.9 C 168.1 12.8 167.8 12.5 167.5 12.1 C 167.2 11.7 167.1 11.3 167.1 10.7 C 167.09 10.69 167.1 0.9 167.1 0.9 Z M 172.8 13.1 L 172.8 3.3 L 174.3 3.3 L 174.3 13.1 L 172.8 13.1 Z M 173.6 1.6 C 173.3 1.6 173 1.5 172.8 1.3 C 172.6 1.1 172.5 0.9 172.5 0.6 C 172.5 0.3 172.6 0.1 172.8 -0.1 C 173 -0.3 173.3 -0.4 173.6 -0.4 C 173.9 -0.4 174.1 -0.3 174.3 -0.1 C 174.5 0.1 174.6 0.3 174.6 0.6 C 174.6 0.9 174.5 1.1 174.3 1.3 C 174.1 1.5 173.9 1.6 173.6 1.6 Z M 181 13.3 C 180.1 13.3 179.3 13.1 178.7 12.7 C 178 12.2 177.5 11.7 177.1 10.9 C 176.7 10.1 176.5 9.2 176.5 8.2 C 176.5 7.2 176.7 6.3 177.1 5.6 C 177.5 4.8 178 4.2 178.7 3.8 C 179.3 3.4 180.1 3.1 181 3.1 C 181.9 3.1 182.7 3.4 183.3 3.8 C 184 4.2 184.5 4.8 184.9 5.6 C 185.3 6.3 185.4 7.2 185.4 8.2 C 185.4 9.2 185.3 10.1 184.9 10.9 C 184.5 11.7 184 12.2 183.3 12.7 C 182.7 13.1 181.9 13.3 181 13.3 Z M 181 11.9 C 181.7 11.9 182.2 11.8 182.7 11.4 C 183.1 11.1 183.4 10.6 183.6 10.1 C 183.8 9.5 183.9 8.9 183.9 8.2 C 183.9 7.6 183.8 7 183.6 6.4 C 183.4 5.8 183.1 5.4 182.7 5 C 182.2 4.7 181.7 4.5 181 4.5 C 180.3 4.5 179.8 4.7 179.3 5 C 178.9 5.4 178.6 5.8 178.4 6.4 C 178.2 7 178.1 7.6 178.1 8.2 C 178.1 8.9 178.2 9.5 178.4 10.1 C 178.6 10.6 178.9 11.1 179.3 11.4 C 179.8 11.8 180.3 11.9 181 11.9 Z M 189.2 7.2 C 189.23 7.18 189.2 13.1 189.2 13.1 L 187.7 13.1 L 187.7 3.3 L 189.2 3.3 L 189.2 4.8 C 189.2 4.8 189.31 4.81 189.3 4.8 C 189.5 4.3 189.9 3.9 190.4 3.6 C 190.8 3.3 191.4 3.1 192.2 3.1 C 192.8 3.1 193.4 3.3 193.9 3.6 C 194.4 3.8 194.8 4.2 195.1 4.8 C 195.4 5.3 195.5 6 195.5 6.9 C 195.5 6.85 195.5 13.1 195.5 13.1 L 194 13.1 C 194 13.1 193.99 6.95 194 7 C 194 6.2 193.8 5.6 193.4 5.1 C 193 4.7 192.4 4.5 191.7 4.5 C 191.3 4.5 190.8 4.6 190.5 4.8 C 190.1 5 189.8 5.3 189.6 5.7 C 189.3 6.1 189.2 6.6 189.2 7.2 Z M 201 13.3 C 200.4 13.3 199.8 13.2 199.3 13 C 198.8 12.7 198.4 12.4 198.1 11.9 C 197.8 11.5 197.7 10.9 197.7 10.3 C 197.7 9.7 197.8 9.3 198 8.9 C 198.2 8.6 198.5 8.3 198.9 8.1 C 199.3 7.9 199.7 7.8 200.1 7.7 C 200.6 7.6 201 7.5 201.5 7.4 C 202.1 7.3 202.6 7.3 202.9 7.2 C 203.3 7.2 203.6 7.1 203.8 7 C 203.9 6.9 204 6.8 204 6.5 C 204 6.5 204 6.5 204 6.5 C 204 5.8 203.8 5.3 203.5 5 C 203.2 4.6 202.6 4.5 201.9 4.5 C 201.2 4.5 200.7 4.6 200.3 4.9 C 199.8 5.3 199.6 5.6 199.4 6 C 199.4 6 198 5.4 198 5.4 C 198.2 4.8 198.6 4.4 199 4 C 199.4 3.7 199.9 3.5 200.4 3.3 C 200.9 3.2 201.4 3.1 201.9 3.1 C 202.2 3.1 202.6 3.2 203 3.3 C 203.4 3.3 203.8 3.5 204.2 3.7 C 204.6 3.9 204.9 4.3 205.1 4.8 C 205.4 5.2 205.5 5.8 205.5 6.6 C 205.53 6.62 205.5 13.1 205.5 13.1 L 204 13.1 L 204 11.8 C 204 11.8 203.94 11.76 203.9 11.8 C 203.8 12 203.7 12.2 203.4 12.4 C 203.2 12.7 202.9 12.9 202.5 13.1 C 202.1 13.2 201.6 13.3 201 13.3 Z M 201.3 12 C 201.9 12 202.4 11.8 202.8 11.6 C 203.2 11.4 203.5 11.1 203.7 10.7 C 203.9 10.3 204 9.9 204 9.5 C 204 9.5 204 8.2 204 8.2 C 204 8.2 203.8 8.3 203.6 8.4 C 203.4 8.4 203.1 8.5 202.9 8.5 C 202.6 8.6 202.3 8.6 202 8.6 C 201.8 8.7 201.6 8.7 201.4 8.7 C 201 8.8 200.7 8.9 200.3 9 C 200 9.1 199.7 9.2 199.5 9.5 C 199.3 9.7 199.2 10 199.2 10.4 C 199.2 10.9 199.4 11.3 199.8 11.6 C 200.2 11.8 200.7 12 201.3 12 Z M 209.8 0 L 209.8 13.1 L 208.3 13.1 L 208.3 0 L 209.8 0 Z M 212.5 13.1 L 212.5 3.3 L 214 3.3 L 214 13.1 L 212.5 13.1 Z M 213.3 1.6 C 213 1.6 212.7 1.5 212.5 1.3 C 212.3 1.1 212.2 0.9 212.2 0.6 C 212.2 0.3 212.3 0.1 212.5 -0.1 C 212.7 -0.3 213 -0.4 213.3 -0.4 C 213.6 -0.4 213.8 -0.3 214.1 -0.1 C 214.3 0.1 214.4 0.3 214.4 0.6 C 214.4 0.9 214.3 1.1 214.1 1.3 C 213.8 1.5 213.6 1.6 213.3 1.6 Z M 221 3.3 L 221 4.6 L 215.9 4.6 L 215.9 3.3 L 221 3.3 Z M 217.4 0.9 L 218.9 0.9 C 218.9 0.9 218.88 10.28 218.9 10.3 C 218.9 10.7 218.9 11 219.1 11.2 C 219.2 11.4 219.4 11.6 219.6 11.7 C 219.8 11.7 220 11.8 220.2 11.8 C 220.3 11.8 220.5 11.8 220.6 11.7 C 220.7 11.7 220.8 11.7 220.8 11.7 C 220.8 11.7 221.2 13 221.2 13 C 221.1 13.1 220.9 13.1 220.7 13.2 C 220.5 13.2 220.3 13.2 220 13.2 C 219.6 13.2 219.2 13.1 218.8 12.9 C 218.4 12.8 218 12.5 217.8 12.1 C 217.5 11.7 217.4 11.3 217.4 10.7 C 217.37 10.69 217.4 0.9 217.4 0.9 Z M 224.3 16.8 C 224.1 16.8 223.9 16.8 223.7 16.7 C 223.5 16.7 223.3 16.6 223.2 16.6 C 223.2 16.6 223.6 15.3 223.6 15.3 C 224 15.4 224.3 15.4 224.6 15.4 C 224.9 15.3 225.1 15.2 225.4 15 C 225.6 14.8 225.8 14.4 226 13.9 C 225.96 13.91 226.2 13.1 226.2 13.1 L 222.6 3.3 L 224.2 3.3 L 227 11.1 L 227.1 11.1 L 229.8 3.3 L 231.4 3.3 C 231.4 3.3 227.23 14.52 227.2 14.5 C 227 15 226.8 15.5 226.5 15.8 C 226.3 16.1 225.9 16.4 225.6 16.5 C 225.2 16.7 224.8 16.8 224.3 16.8 Z " stroke="none" fill="#ffffff"/>  </g></svg>