<?xml version="1.0" standalone="no"?><!DOCTYPE svg PUBLIC "-//W3C//DTD SVG 1.1//EN" "http://www.w3.org/Graphics/SVG/1.1/DTD/svg11.dtd"><svg xmlns="http://www.w3.org/2000/svg" version="1.1" width="241.3px" height="182.7px" viewBox="0 -5 241.3 182.7" style="top:-5px">  <desc>Drive clear value</desc>  <defs/>  <g id="Polygon125210">    <path d="M 96.7 55.5 L 90.6 73 L 85.2 73 L 79.1 55.5 L 84.2 55.5 L 87.8 68 L 88 68 L 91.6 55.5 L 96.7 55.5 Z M 103.3 73.3 C 102.2 73.3 101.2 73.1 100.4 72.7 C 99.5 72.4 98.8 71.8 98.3 71 C 97.8 70.2 97.5 69.3 97.5 68.1 C 97.5 67.2 97.7 66.3 98.1 65.7 C 98.4 65 98.9 64.5 99.5 64.1 C 100.1 63.7 100.8 63.4 101.6 63.2 C 102.4 63 103.2 62.8 104.1 62.8 C 105.1 62.6 105.9 62.5 106.5 62.4 C 107.2 62.4 107.6 62.2 107.9 62 C 108.2 61.8 108.3 61.6 108.3 61.2 C 108.3 61.2 108.3 61.1 108.3 61.1 C 108.3 60.4 108.1 59.8 107.6 59.4 C 107.2 59 106.6 58.9 105.7 58.9 C 104.9 58.9 104.2 59 103.6 59.4 C 103.1 59.8 102.8 60.3 102.6 60.9 C 102.6 60.9 98.1 60.5 98.1 60.5 C 98.4 59.4 98.8 58.5 99.5 57.7 C 100.2 57 101 56.4 102.1 55.9 C 103.1 55.5 104.4 55.3 105.7 55.3 C 106.7 55.3 107.6 55.4 108.5 55.7 C 109.4 55.9 110.2 56.2 110.9 56.7 C 111.6 57.2 112.2 57.8 112.6 58.6 C 113 59.3 113.2 60.2 113.2 61.2 C 113.16 61.23 113.2 73 113.2 73 L 108.6 73 L 108.6 70.6 C 108.6 70.6 108.43 70.58 108.4 70.6 C 108.2 71.1 107.8 71.6 107.3 72 C 106.8 72.4 106.3 72.8 105.6 73 C 105 73.2 104.2 73.3 103.3 73.3 Z M 104.7 70 C 105.4 70 106.1 69.8 106.6 69.6 C 107.1 69.3 107.6 68.9 107.9 68.4 C 108.2 67.9 108.4 67.4 108.4 66.8 C 108.4 66.8 108.4 64.9 108.4 64.9 C 108.2 65 108 65.1 107.7 65.2 C 107.5 65.3 107.2 65.3 106.9 65.4 C 106.5 65.5 106.2 65.5 105.9 65.6 C 105.5 65.6 105.3 65.7 105 65.7 C 104.4 65.8 103.9 65.9 103.5 66.1 C 103.1 66.3 102.7 66.5 102.5 66.8 C 102.3 67.1 102.2 67.5 102.2 68 C 102.2 68.6 102.4 69.1 102.9 69.5 C 103.4 69.8 104 70 104.7 70 Z M 121.8 49.7 L 121.8 73 L 117 73 L 117 49.7 L 121.8 49.7 Z M 136.9 65.6 C 136.88 65.57 136.9 55.5 136.9 55.5 L 141.7 55.5 L 141.7 73 L 137.1 73 L 137.1 69.8 C 137.1 69.8 136.89 69.83 136.9 69.8 C 136.5 70.9 135.8 71.7 134.9 72.3 C 134 72.9 132.9 73.2 131.6 73.2 C 130.4 73.2 129.4 73 128.5 72.4 C 127.6 71.9 126.9 71.1 126.4 70.2 C 125.9 69.2 125.7 68 125.7 66.7 C 125.69 66.66 125.7 55.5 125.7 55.5 L 130.5 55.5 C 130.5 55.5 130.53 65.8 130.5 65.8 C 130.5 66.8 130.8 67.6 131.4 68.2 C 131.9 68.8 132.6 69.1 133.6 69.1 C 134.1 69.1 134.7 69 135.2 68.7 C 135.7 68.5 136.1 68.1 136.4 67.5 C 136.7 67 136.9 66.3 136.9 65.6 Z M 153.5 73.3 C 151.7 73.3 150.2 73 148.9 72.2 C 147.6 71.5 146.6 70.5 145.9 69.1 C 145.2 67.8 144.8 66.2 144.8 64.4 C 144.8 62.6 145.2 61 145.9 59.6 C 146.6 58.3 147.6 57.2 148.8 56.5 C 150.1 55.7 151.6 55.3 153.3 55.3 C 154.5 55.3 155.5 55.5 156.5 55.9 C 157.5 56.2 158.4 56.8 159.1 57.5 C 159.9 58.3 160.5 59.2 160.9 60.3 C 161.3 61.4 161.5 62.7 161.5 64.2 C 161.52 64.18 161.5 65.5 161.5 65.5 L 146.8 65.5 L 146.8 62.5 C 146.8 62.5 156.96 62.51 157 62.5 C 157 61.8 156.8 61.2 156.5 60.7 C 156.2 60.1 155.8 59.7 155.2 59.4 C 154.7 59.1 154.1 58.9 153.4 58.9 C 152.7 58.9 152 59.1 151.4 59.4 C 150.9 59.8 150.4 60.2 150.1 60.8 C 149.8 61.4 149.6 62 149.6 62.7 C 149.6 62.7 149.6 65.5 149.6 65.5 C 149.6 66.4 149.8 67.1 150.1 67.8 C 150.4 68.4 150.9 68.9 151.5 69.2 C 152.1 69.6 152.8 69.7 153.6 69.7 C 154.1 69.7 154.6 69.7 155.1 69.5 C 155.5 69.3 155.9 69.1 156.2 68.8 C 156.5 68.5 156.8 68.1 156.9 67.7 C 156.9 67.7 161.4 68 161.4 68 C 161.2 69.1 160.7 70 160 70.8 C 159.3 71.6 158.4 72.2 157.3 72.7 C 156.2 73.1 154.9 73.3 153.5 73.3 Z " stroke="none" fill="#10283d"/>  </g>  <g id="Polygon125209">    <path d="M 47.4 31 C 47.36 31 39.1 31 39.1 31 L 39.1 7.7 C 39.1 7.7 47.43 7.73 47.4 7.7 C 49.8 7.7 51.8 8.2 53.5 9.1 C 55.2 10 56.5 11.4 57.4 13.1 C 58.3 14.8 58.7 16.9 58.7 19.3 C 58.7 21.8 58.3 23.8 57.4 25.6 C 56.5 27.3 55.2 28.7 53.5 29.6 C 51.8 30.5 49.7 31 47.4 31 Z M 44 26.8 C 44 26.8 47.15 26.78 47.2 26.8 C 48.6 26.8 49.8 26.5 50.8 26 C 51.8 25.5 52.6 24.7 53.1 23.6 C 53.6 22.5 53.8 21.1 53.8 19.3 C 53.8 17.6 53.6 16.2 53.1 15.1 C 52.6 14 51.8 13.2 50.8 12.7 C 49.8 12.2 48.6 11.9 47.2 11.9 C 47.17 11.94 44 11.9 44 11.9 L 44 26.8 Z M 62.3 31 L 62.3 13.5 L 67 13.5 L 67 16.6 C 67 16.6 67.19 16.59 67.2 16.6 C 67.5 15.5 68 14.7 68.8 14.1 C 69.5 13.6 70.4 13.3 71.4 13.3 C 71.6 13.3 71.9 13.3 72.2 13.3 C 72.5 13.4 72.7 13.4 72.9 13.5 C 72.9 13.5 72.9 17.8 72.9 17.8 C 72.7 17.7 72.4 17.6 72 17.6 C 71.6 17.5 71.2 17.5 70.9 17.5 C 70.2 17.5 69.5 17.7 69 18 C 68.4 18.3 68 18.7 67.6 19.2 C 67.3 19.8 67.2 20.4 67.2 21.1 C 67.16 21.13 67.2 31 67.2 31 L 62.3 31 Z M 75.2 31 L 75.2 13.5 L 80 13.5 L 80 31 L 75.2 31 Z M 77.6 11.3 C 76.9 11.3 76.3 11.1 75.8 10.6 C 75.3 10.1 75 9.5 75 8.9 C 75 8.2 75.3 7.6 75.8 7.1 C 76.3 6.6 76.9 6.4 77.6 6.4 C 78.3 6.4 79 6.6 79.5 7.1 C 80 7.6 80.2 8.2 80.2 8.8 C 80.2 9.5 80 10.1 79.5 10.6 C 79 11.1 78.3 11.3 77.6 11.3 Z M 99.9 13.5 L 93.8 31 L 88.4 31 L 82.3 13.5 L 87.4 13.5 L 91 26 L 91.2 26 L 94.8 13.5 L 99.9 13.5 Z M 109.4 31.3 C 107.7 31.3 106.1 31 104.8 30.2 C 103.5 29.5 102.5 28.5 101.8 27.1 C 101.1 25.8 100.8 24.2 100.8 22.4 C 100.8 20.6 101.1 19 101.8 17.6 C 102.5 16.3 103.5 15.2 104.8 14.5 C 106.1 13.7 107.5 13.3 109.3 13.3 C 110.4 13.3 111.5 13.5 112.5 13.9 C 113.5 14.2 114.3 14.8 115.1 15.5 C 115.8 16.3 116.4 17.2 116.8 18.3 C 117.3 19.4 117.5 20.7 117.5 22.2 C 117.46 22.18 117.5 23.5 117.5 23.5 L 102.7 23.5 L 102.7 20.5 C 102.7 20.5 112.9 20.51 112.9 20.5 C 112.9 19.8 112.8 19.2 112.4 18.7 C 112.1 18.1 111.7 17.7 111.2 17.4 C 110.7 17.1 110 16.9 109.3 16.9 C 108.6 16.9 107.9 17.1 107.4 17.4 C 106.8 17.8 106.4 18.2 106.1 18.8 C 105.7 19.4 105.6 20 105.6 20.7 C 105.6 20.7 105.6 23.5 105.6 23.5 C 105.6 24.4 105.7 25.1 106.1 25.8 C 106.4 26.4 106.8 26.9 107.4 27.2 C 108 27.6 108.7 27.7 109.5 27.7 C 110.1 27.7 110.6 27.7 111 27.5 C 111.5 27.3 111.8 27.1 112.2 26.8 C 112.5 26.5 112.7 26.1 112.9 25.7 C 112.9 25.7 117.4 26 117.4 26 C 117.1 27.1 116.7 28 116 28.8 C 115.3 29.6 114.4 30.2 113.3 30.7 C 112.2 31.1 110.9 31.3 109.4 31.3 Z M 135.9 31.3 C 134.1 31.3 132.6 31 131.3 30.2 C 130 29.4 129 28.4 128.4 27 C 127.7 25.7 127.3 24.1 127.3 22.3 C 127.3 20.6 127.7 19 128.4 17.6 C 129.1 16.3 130.1 15.2 131.3 14.5 C 132.6 13.7 134.1 13.3 135.9 13.3 C 137.4 13.3 138.8 13.6 139.9 14.1 C 141 14.7 142 15.5 142.6 16.5 C 143.3 17.5 143.7 18.7 143.7 20 C 143.7 20 139.2 20 139.2 20 C 139 19.1 138.7 18.4 138.1 17.9 C 137.6 17.4 136.9 17.1 136 17.1 C 135.2 17.1 134.6 17.3 134 17.7 C 133.5 18.1 133 18.7 132.7 19.5 C 132.4 20.2 132.3 21.2 132.3 22.3 C 132.3 23.4 132.4 24.3 132.7 25.1 C 133 25.9 133.5 26.5 134 26.9 C 134.6 27.3 135.2 27.5 136 27.5 C 136.5 27.5 137 27.4 137.5 27.2 C 137.9 26.9 138.3 26.6 138.6 26.2 C 138.9 25.7 139.1 25.2 139.2 24.6 C 139.2 24.6 143.7 24.6 143.7 24.6 C 143.6 25.9 143.3 27.1 142.6 28.1 C 142 29.1 141.1 29.9 140 30.5 C 138.8 31.1 137.5 31.3 135.9 31.3 Z M 151.6 7.7 L 151.6 31 L 146.8 31 L 146.8 7.7 L 151.6 7.7 Z M 163.4 31.3 C 161.6 31.3 160.1 31 158.8 30.2 C 157.5 29.5 156.5 28.5 155.8 27.1 C 155.1 25.8 154.8 24.2 154.8 22.4 C 154.8 20.6 155.1 19 155.8 17.6 C 156.5 16.3 157.5 15.2 158.7 14.5 C 160 13.7 161.5 13.3 163.2 13.3 C 164.4 13.3 165.4 13.5 166.4 13.9 C 167.4 14.2 168.3 14.8 169.1 15.5 C 169.8 16.3 170.4 17.2 170.8 18.3 C 171.2 19.4 171.4 20.7 171.4 22.2 C 171.42 22.18 171.4 23.5 171.4 23.5 L 156.7 23.5 L 156.7 20.5 C 156.7 20.5 166.86 20.51 166.9 20.5 C 166.9 19.8 166.7 19.2 166.4 18.7 C 166.1 18.1 165.7 17.7 165.2 17.4 C 164.6 17.1 164 16.9 163.3 16.9 C 162.6 16.9 161.9 17.1 161.3 17.4 C 160.8 17.8 160.3 18.2 160 18.8 C 159.7 19.4 159.5 20 159.5 20.7 C 159.5 20.7 159.5 23.5 159.5 23.5 C 159.5 24.4 159.7 25.1 160 25.8 C 160.3 26.4 160.8 26.9 161.4 27.2 C 162 27.6 162.7 27.7 163.5 27.7 C 164 27.7 164.5 27.7 165 27.5 C 165.4 27.3 165.8 27.1 166.1 26.8 C 166.4 26.5 166.7 26.1 166.8 25.7 C 166.8 25.7 171.3 26 171.3 26 C 171.1 27.1 170.6 28 169.9 28.8 C 169.2 29.6 168.3 30.2 167.2 30.7 C 166.1 31.1 164.8 31.3 163.4 31.3 Z M 179.4 31.3 C 178.3 31.3 177.3 31.1 176.4 30.7 C 175.5 30.4 174.8 29.8 174.3 29 C 173.8 28.2 173.6 27.3 173.6 26.1 C 173.6 25.2 173.8 24.3 174.1 23.7 C 174.5 23 175 22.5 175.6 22.1 C 176.2 21.7 176.9 21.4 177.7 21.2 C 178.5 21 179.3 20.8 180.1 20.8 C 181.2 20.6 182 20.5 182.6 20.4 C 183.2 20.4 183.7 20.2 183.9 20 C 184.2 19.8 184.4 19.6 184.4 19.2 C 184.4 19.2 184.4 19.1 184.4 19.1 C 184.4 18.4 184.1 17.8 183.7 17.4 C 183.2 17 182.6 16.9 181.8 16.9 C 180.9 16.9 180.2 17 179.7 17.4 C 179.2 17.8 178.8 18.3 178.7 18.9 C 178.7 18.9 174.2 18.5 174.2 18.5 C 174.4 17.4 174.9 16.5 175.5 15.7 C 176.2 15 177.1 14.4 178.1 13.9 C 179.2 13.5 180.4 13.3 181.8 13.3 C 182.8 13.3 183.7 13.4 184.6 13.7 C 185.5 13.9 186.3 14.2 187 14.7 C 187.7 15.2 188.2 15.8 188.6 16.6 C 189 17.3 189.2 18.2 189.2 19.2 C 189.21 19.23 189.2 31 189.2 31 L 184.6 31 L 184.6 28.6 C 184.6 28.6 184.48 28.58 184.5 28.6 C 184.2 29.1 183.8 29.6 183.4 30 C 182.9 30.4 182.3 30.8 181.7 31 C 181 31.2 180.2 31.3 179.4 31.3 Z M 180.8 28 C 181.5 28 182.1 27.8 182.7 27.6 C 183.2 27.3 183.6 26.9 183.9 26.4 C 184.2 25.9 184.4 25.4 184.4 24.8 C 184.4 24.8 184.4 22.9 184.4 22.9 C 184.2 23 184 23.1 183.8 23.2 C 183.5 23.3 183.2 23.3 182.9 23.4 C 182.6 23.5 182.2 23.5 181.9 23.6 C 181.6 23.6 181.3 23.7 181 23.7 C 180.5 23.8 180 23.9 179.5 24.1 C 179.1 24.3 178.8 24.5 178.6 24.8 C 178.3 25.1 178.2 25.5 178.2 26 C 178.2 26.6 178.4 27.1 178.9 27.5 C 179.4 27.8 180 28 180.8 28 Z M 193 31 L 193 13.5 L 197.7 13.5 L 197.7 16.6 C 197.7 16.6 197.9 16.59 197.9 16.6 C 198.2 15.5 198.8 14.7 199.5 14.1 C 200.3 13.6 201.1 13.3 202.1 13.3 C 202.3 13.3 202.6 13.3 202.9 13.3 C 203.2 13.4 203.4 13.4 203.6 13.5 C 203.6 13.5 203.6 17.8 203.6 17.8 C 203.4 17.7 203.1 17.6 202.7 17.6 C 202.3 17.5 201.9 17.5 201.6 17.5 C 200.9 17.5 200.2 17.7 199.7 18 C 199.1 18.3 198.7 18.7 198.3 19.2 C 198 19.8 197.9 20.4 197.9 21.1 C 197.87 21.13 197.9 31 197.9 31 L 193 31 Z " stroke="none" fill="#10283d"/>  </g></svg>