<?xml version="1.0" standalone="no"?><!DOCTYPE svg PUBLIC "-//W3C//DTD SVG 1.1//EN" "http://www.w3.org/Graphics/SVG/1.1/DTD/svg11.dtd"><svg xmlns="http://www.w3.org/2000/svg" version="1.1" width="300px" height="163.7px" viewBox="0 -16 300 163.7" style="top:-16px">  <desc>But is anyone telling you how?</desc>  <defs/>  <g id="Polygon108258">    <path d="M 106.1 112.5 C 106.08 112.48 106.1 125.1 106.1 125.1 L 100 125.1 L 100 96 L 105.9 96 L 105.9 107.1 C 105.9 107.1 106.17 107.12 106.2 107.1 C 106.7 105.8 107.5 104.8 108.6 104.1 C 109.7 103.4 111 103 112.7 103 C 114.2 103 115.5 103.3 116.7 104 C 117.8 104.6 118.7 105.6 119.3 106.8 C 119.9 108 120.2 109.5 120.2 111.2 C 120.23 111.2 120.2 125.1 120.2 125.1 L 114.2 125.1 C 114.2 125.1 114.18 112.28 114.2 112.3 C 114.2 110.9 113.8 109.9 113.2 109.1 C 112.5 108.4 111.5 108 110.3 108 C 109.5 108 108.7 108.2 108.1 108.5 C 107.5 108.9 107 109.4 106.6 110.1 C 106.3 110.7 106.1 111.5 106.1 112.5 Z M 134.4 125.5 C 132.2 125.5 130.3 125 128.7 124.1 C 127.1 123.2 125.9 121.8 125 120.2 C 124.1 118.5 123.7 116.5 123.7 114.3 C 123.7 112 124.1 110 125 108.4 C 125.9 106.7 127.1 105.3 128.7 104.4 C 130.3 103.5 132.2 103 134.4 103 C 136.6 103 138.6 103.5 140.2 104.4 C 141.8 105.3 143 106.7 143.9 108.4 C 144.7 110 145.2 112 145.2 114.3 C 145.2 116.5 144.7 118.5 143.9 120.2 C 143 121.8 141.8 123.2 140.2 124.1 C 138.6 125 136.6 125.5 134.4 125.5 Z M 134.5 120.8 C 135.5 120.8 136.3 120.5 137 120 C 137.7 119.4 138.2 118.6 138.5 117.6 C 138.9 116.6 139 115.5 139 114.2 C 139 113 138.9 111.8 138.5 110.8 C 138.2 109.8 137.7 109 137 108.5 C 136.3 107.9 135.5 107.6 134.5 107.6 C 133.5 107.6 132.6 107.9 131.9 108.5 C 131.2 109 130.7 109.8 130.4 110.8 C 130 111.8 129.9 113 129.9 114.2 C 129.9 115.5 130 116.6 130.4 117.6 C 130.7 118.6 131.2 119.4 131.9 120 C 132.6 120.5 133.5 120.8 134.5 120.8 Z M 152.2 125.1 L 146.3 103.3 L 152.4 103.3 L 155.8 117.9 L 156 117.9 L 159.5 103.3 L 165.5 103.3 L 169.1 117.8 L 169.3 117.8 L 172.6 103.3 L 178.7 103.3 L 172.8 125.1 L 166.4 125.1 L 162.6 111.4 L 162.4 111.4 L 158.6 125.1 L 152.2 125.1 Z M 187.5 116.4 C 187.5 116.4 187.5 115.89 187.5 115.9 C 187.5 114.2 187.7 112.9 187.9 111.9 C 188.2 110.9 188.7 110.1 189.2 109.5 C 189.8 108.9 190.4 108.4 191.2 107.9 C 191.8 107.5 192.3 107.1 192.8 106.7 C 193.3 106.3 193.6 105.9 193.9 105.4 C 194.2 104.9 194.3 104.3 194.3 103.7 C 194.3 103 194.2 102.5 193.9 102 C 193.5 101.5 193.1 101.1 192.6 100.8 C 192.1 100.6 191.5 100.4 190.9 100.4 C 190.2 100.4 189.7 100.6 189.1 100.8 C 188.6 101.1 188.1 101.5 187.8 102 C 187.4 102.6 187.2 103.2 187.2 104 C 187.2 104 181.4 104 181.4 104 C 181.5 102.1 181.9 100.5 182.8 99.3 C 183.6 98.1 184.8 97.1 186.2 96.5 C 187.6 95.9 189.2 95.6 190.9 95.6 C 192.8 95.6 194.4 95.9 195.9 96.5 C 197.3 97.2 198.5 98.1 199.3 99.2 C 200.1 100.4 200.5 101.8 200.5 103.5 C 200.5 104.6 200.4 105.6 200 106.4 C 199.6 107.3 199.1 108 198.5 108.7 C 197.8 109.4 197 109.9 196.1 110.5 C 195.4 110.9 194.8 111.4 194.3 111.9 C 193.8 112.3 193.5 112.9 193.2 113.5 C 193 114.2 192.9 115 192.9 115.9 C 192.88 115.89 192.9 116.4 192.9 116.4 L 187.5 116.4 Z M 190.3 125.5 C 189.4 125.5 188.6 125.1 187.9 124.5 C 187.2 123.8 186.9 123 186.9 122.1 C 186.9 121.1 187.2 120.3 187.9 119.7 C 188.6 119 189.4 118.7 190.3 118.7 C 191.2 118.7 192 119 192.7 119.7 C 193.4 120.3 193.7 121.1 193.7 122.1 C 193.7 122.7 193.5 123.2 193.2 123.8 C 192.9 124.3 192.5 124.7 192 125 C 191.5 125.3 190.9 125.5 190.3 125.5 Z " stroke="none" fill="#ffffff"/>  </g>  <g id="Polygon108257">    <path d="M 67.8 55.3 L 67.8 58.1 L 56.5 58.1 L 56.5 55.3 L 67.8 55.3 Z M 59.8 50 L 63.2 50 C 63.2 50 63.17 70.84 63.2 70.8 C 63.2 71.8 63.3 72.5 63.6 73 C 63.9 73.4 64.2 73.7 64.7 73.9 C 65.1 74.1 65.6 74.1 66.1 74.1 C 66.4 74.1 66.7 74.1 67 74.1 C 67.2 74 67.4 74 67.5 74 C 67.5 74 68.2 77 68.2 77 C 68 77.1 67.7 77.1 67.3 77.2 C 66.9 77.3 66.3 77.4 65.7 77.4 C 64.8 77.4 63.9 77.2 62.9 76.8 C 62 76.4 61.3 75.7 60.7 74.9 C 60.1 74.1 59.8 73 59.8 71.8 C 59.81 71.75 59.8 50 59.8 50 Z M 80.5 77.5 C 78.4 77.5 76.6 77.1 75.1 76.1 C 73.6 75.2 72.4 73.9 71.6 72.2 C 70.8 70.5 70.4 68.6 70.4 66.4 C 70.4 64.1 70.8 62.1 71.6 60.4 C 72.4 58.7 73.5 57.4 75 56.4 C 76.5 55.5 78.2 55 80.2 55 C 81.3 55 82.4 55.2 83.6 55.6 C 84.7 55.9 85.7 56.5 86.6 57.4 C 87.5 58.2 88.2 59.4 88.8 60.8 C 89.3 62.1 89.6 63.9 89.6 65.9 C 89.56 65.9 89.6 67.3 89.6 67.3 L 72.7 67.3 L 72.7 64.4 C 72.7 64.4 86.15 64.42 86.2 64.4 C 86.2 63.2 85.9 62.1 85.4 61.1 C 84.9 60.2 84.2 59.4 83.3 58.8 C 82.5 58.3 81.4 58 80.2 58 C 78.8 58 77.7 58.3 76.7 59 C 75.8 59.6 75 60.5 74.5 61.6 C 74 62.6 73.7 63.7 73.7 64.9 C 73.7 64.9 73.7 66.9 73.7 66.9 C 73.7 68.5 74 69.9 74.6 71 C 75.1 72.2 75.9 73.1 77 73.6 C 78 74.2 79.2 74.5 80.5 74.5 C 81.4 74.5 82.2 74.4 82.9 74.2 C 83.6 73.9 84.3 73.5 84.8 73 C 85.3 72.5 85.7 71.9 86 71.1 C 86 71.1 89.2 72 89.2 72 C 88.9 73.1 88.3 74.1 87.5 74.9 C 86.7 75.8 85.7 76.4 84.5 76.9 C 83.3 77.3 82 77.5 80.5 77.5 Z M 97.7 48 L 97.7 77.1 L 94.4 77.1 L 94.4 48 L 97.7 48 Z M 106.9 48 L 106.9 77.1 L 103.5 77.1 L 103.5 48 L 106.9 48 Z M 112.7 77.1 L 112.7 55.3 L 116 55.3 L 116 77.1 L 112.7 77.1 Z M 114.4 51.6 C 113.7 51.6 113.2 51.4 112.7 51 C 112.2 50.5 112 50 112 49.4 C 112 48.7 112.2 48.2 112.7 47.8 C 113.2 47.3 113.7 47.1 114.4 47.1 C 115 47.1 115.6 47.3 116.1 47.8 C 116.5 48.2 116.8 48.7 116.8 49.4 C 116.8 50 116.5 50.5 116.1 51 C 115.6 51.4 115 51.6 114.4 51.6 Z M 125.2 64 C 125.2 63.97 125.2 77.1 125.2 77.1 L 121.8 77.1 L 121.8 55.3 L 125.1 55.3 L 125.1 58.7 C 125.1 58.7 125.37 58.68 125.4 58.7 C 125.9 57.6 126.7 56.7 127.7 56 C 128.7 55.3 130.1 55 131.7 55 C 133.2 55 134.5 55.3 135.6 55.9 C 136.7 56.5 137.6 57.4 138.2 58.6 C 138.8 59.8 139.1 61.4 139.1 63.2 C 139.12 63.23 139.1 77.1 139.1 77.1 L 135.8 77.1 C 135.8 77.1 135.77 63.45 135.8 63.5 C 135.8 61.7 135.3 60.4 134.4 59.4 C 133.5 58.5 132.3 58 130.8 58 C 129.7 58 128.7 58.2 127.9 58.7 C 127.1 59.2 126.4 59.8 125.9 60.7 C 125.4 61.6 125.2 62.7 125.2 64 Z M 153.6 85.7 C 151.9 85.7 150.6 85.5 149.4 85.1 C 148.2 84.7 147.3 84.2 146.5 83.5 C 145.7 82.8 145.1 82.1 144.6 81.4 C 144.6 81.4 147.3 79.5 147.3 79.5 C 147.6 79.9 148 80.3 148.5 80.8 C 148.9 81.4 149.6 81.8 150.4 82.2 C 151.2 82.6 152.2 82.8 153.6 82.8 C 155.3 82.8 156.8 82.3 157.9 81.5 C 159.1 80.6 159.6 79.3 159.6 77.5 C 159.64 77.49 159.6 73.1 159.6 73.1 C 159.6 73.1 159.36 73.06 159.4 73.1 C 159.1 73.5 158.8 73.9 158.3 74.5 C 157.9 75.1 157.2 75.6 156.4 76.1 C 155.5 76.5 154.4 76.8 153 76.8 C 151.2 76.8 149.7 76.3 148.3 75.5 C 146.9 74.7 145.8 73.5 144.9 71.9 C 144.1 70.3 143.7 68.3 143.7 66.1 C 143.7 63.8 144.1 61.9 144.9 60.2 C 145.7 58.6 146.8 57.3 148.2 56.4 C 149.6 55.4 151.2 55 153.1 55 C 154.5 55 155.6 55.2 156.4 55.7 C 157.3 56.2 157.9 56.7 158.4 57.3 C 158.8 57.9 159.2 58.4 159.4 58.7 C 159.42 58.74 159.8 58.7 159.8 58.7 L 159.8 55.3 L 163 55.3 C 163 55.3 162.99 77.72 163 77.7 C 163 79.6 162.6 81.1 161.7 82.3 C 160.9 83.5 159.7 84.3 158.3 84.9 C 156.9 85.5 155.3 85.7 153.6 85.7 Z M 153.4 73.7 C 154.8 73.7 155.9 73.4 156.9 72.8 C 157.8 72.2 158.5 71.3 159 70.2 C 159.5 69 159.7 67.6 159.7 66 C 159.7 64.4 159.5 63.1 159 61.8 C 158.5 60.6 157.8 59.7 156.9 59 C 156 58.3 154.8 58 153.4 58 C 152 58 150.8 58.4 149.9 59.1 C 149 59.8 148.3 60.8 147.8 62 C 147.3 63.2 147.1 64.5 147.1 66 C 147.1 67.5 147.3 68.9 147.8 70 C 148.3 71.2 149 72.1 149.9 72.8 C 150.9 73.4 152 73.7 153.4 73.7 Z M 182.5 85.3 C 182 85.3 181.5 85.2 181 85.1 C 180.6 85 180.3 85 180.1 84.9 C 180.1 84.9 180.9 81.9 180.9 81.9 C 181.8 82.1 182.5 82.2 183.1 82.1 C 183.7 82.1 184.3 81.8 184.8 81.3 C 185.3 80.8 185.7 80 186.1 78.9 C 186.12 78.91 186.7 77.2 186.7 77.2 L 178.7 55.3 L 182.3 55.3 L 188.3 72.7 L 188.6 72.7 L 194.6 55.3 L 198.2 55.3 C 198.2 55.3 188.96 80.27 189 80.3 C 188.5 81.4 188 82.3 187.4 83.1 C 186.8 83.8 186.1 84.4 185.3 84.7 C 184.5 85.1 183.6 85.3 182.5 85.3 Z M 210 77.5 C 208.1 77.5 206.4 77.1 204.9 76.1 C 203.4 75.2 202.2 73.9 201.4 72.2 C 200.6 70.5 200.2 68.5 200.2 66.3 C 200.2 64 200.6 62 201.4 60.3 C 202.2 58.6 203.4 57.3 204.9 56.4 C 206.4 55.5 208.1 55 210 55 C 212 55 213.7 55.5 215.2 56.4 C 216.7 57.3 217.9 58.6 218.7 60.3 C 219.5 62 219.9 64 219.9 66.3 C 219.9 68.5 219.5 70.5 218.7 72.2 C 217.9 73.9 216.7 75.2 215.2 76.1 C 213.7 77.1 212 77.5 210 77.5 Z M 210 74.5 C 211.5 74.5 212.8 74.2 213.7 73.4 C 214.7 72.6 215.4 71.6 215.9 70.4 C 216.4 69.1 216.6 67.8 216.6 66.3 C 216.6 64.8 216.4 63.5 215.9 62.2 C 215.4 61 214.7 59.9 213.7 59.2 C 212.8 58.4 211.5 58 210 58 C 208.6 58 207.3 58.4 206.4 59.2 C 205.4 59.9 204.7 61 204.2 62.2 C 203.7 63.5 203.5 64.8 203.5 66.3 C 203.5 67.8 203.7 69.1 204.2 70.4 C 204.7 71.6 205.4 72.6 206.4 73.4 C 207.3 74.2 208.6 74.5 210 74.5 Z M 238.3 68.2 C 238.31 68.17 238.3 55.3 238.3 55.3 L 241.7 55.3 L 241.7 77.1 L 238.3 77.1 L 238.3 73.4 C 238.3 73.4 238.08 73.4 238.1 73.4 C 237.6 74.5 236.8 75.4 235.7 76.2 C 234.6 77 233.3 77.4 231.6 77.4 C 230.2 77.4 229 77.1 228 76.5 C 226.9 75.9 226.1 75 225.5 73.7 C 224.9 72.5 224.6 71 224.6 69.1 C 224.56 69.14 224.6 55.3 224.6 55.3 L 227.9 55.3 C 227.9 55.3 227.91 68.91 227.9 68.9 C 227.9 70.5 228.4 71.8 229.3 72.7 C 230.2 73.7 231.3 74.1 232.7 74.1 C 233.5 74.1 234.4 73.9 235.2 73.5 C 236.1 73.1 236.8 72.4 237.4 71.5 C 238 70.7 238.3 69.5 238.3 68.2 Z " stroke="none" fill="#ffffff"/>  </g>  <g id="Polygon108256">    <path d="M 28.5 29.1 L 28.5 0 C 28.5 0 38.69 0 38.7 0 C 40.7 0 42.4 0.3 43.7 1 C 45 1.7 46 2.7 46.6 3.8 C 47.3 5 47.6 6.3 47.6 7.7 C 47.6 9 47.4 10 46.9 10.8 C 46.5 11.6 45.9 12.3 45.2 12.8 C 44.5 13.2 43.7 13.6 42.9 13.8 C 42.9 13.8 42.9 14.1 42.9 14.1 C 43.8 14.1 44.7 14.5 45.6 15 C 46.5 15.6 47.2 16.4 47.8 17.5 C 48.4 18.5 48.7 19.8 48.7 21.4 C 48.7 22.8 48.4 24.1 47.8 25.3 C 47.1 26.5 46 27.4 44.6 28.1 C 43.2 28.8 41.3 29.1 39 29.1 C 39.03 29.09 28.5 29.1 28.5 29.1 Z M 32 26 C 32 26 39.03 25.97 39 26 C 41.3 26 43 25.5 43.9 24.6 C 44.9 23.7 45.4 22.6 45.4 21.4 C 45.4 20.4 45.1 19.5 44.6 18.6 C 44.1 17.8 43.4 17.1 42.5 16.6 C 41.6 16.1 40.5 15.9 39.2 15.9 C 39.2 15.85 32 15.9 32 15.9 L 32 26 Z M 32 12.8 C 32 12.8 38.58 12.78 38.6 12.8 C 39.6 12.8 40.6 12.6 41.5 12.2 C 42.3 11.7 43 11.2 43.5 10.4 C 44 9.6 44.3 8.8 44.3 7.7 C 44.3 6.4 43.8 5.4 42.9 4.5 C 42 3.6 40.6 3.1 38.7 3.1 C 38.69 3.13 32 3.1 32 3.1 L 32 12.8 Z M 67.5 20.2 C 67.54 20.17 67.5 7.3 67.5 7.3 L 70.9 7.3 L 70.9 29.1 L 67.5 29.1 L 67.5 25.4 C 67.5 25.4 67.31 25.4 67.3 25.4 C 66.8 26.5 66 27.4 64.9 28.2 C 63.8 29 62.5 29.4 60.8 29.4 C 59.5 29.4 58.3 29.1 57.2 28.5 C 56.1 27.9 55.3 27 54.7 25.7 C 54.1 24.5 53.8 23 53.8 21.1 C 53.79 21.14 53.8 7.3 53.8 7.3 L 57.1 7.3 C 57.1 7.3 57.14 20.91 57.1 20.9 C 57.1 22.5 57.6 23.8 58.5 24.7 C 59.4 25.7 60.5 26.1 61.9 26.1 C 62.7 26.1 63.6 25.9 64.5 25.5 C 65.3 25.1 66.1 24.4 66.6 23.5 C 67.2 22.7 67.5 21.5 67.5 20.2 Z M 86 7.3 L 86 10.1 L 74.7 10.1 L 74.7 7.3 L 86 7.3 Z M 78 2 L 81.4 2 C 81.4 2 81.35 22.84 81.4 22.8 C 81.4 23.8 81.5 24.5 81.8 25 C 82 25.4 82.4 25.7 82.8 25.9 C 83.3 26.1 83.8 26.1 84.2 26.1 C 84.6 26.1 84.9 26.1 85.2 26.1 C 85.4 26 85.6 26 85.7 26 C 85.7 26 86.4 29 86.4 29 C 86.2 29.1 85.9 29.1 85.5 29.2 C 85 29.3 84.5 29.4 83.9 29.4 C 83 29.4 82 29.2 81.1 28.8 C 80.2 28.4 79.5 27.7 78.9 26.9 C 78.3 26.1 78 25 78 23.8 C 78 23.75 78 2 78 2 Z M 102.3 29.1 L 102.3 7.3 L 105.7 7.3 L 105.7 29.1 L 102.3 29.1 Z M 104 3.6 C 103.4 3.6 102.8 3.4 102.3 3 C 101.9 2.5 101.6 2 101.6 1.4 C 101.6 0.7 101.9 0.2 102.3 -0.2 C 102.8 -0.7 103.4 -0.9 104 -0.9 C 104.7 -0.9 105.2 -0.7 105.7 -0.2 C 106.2 0.2 106.4 0.7 106.4 1.4 C 106.4 2 106.2 2.5 105.7 3 C 105.2 3.4 104.7 3.6 104 3.6 Z M 126.7 12.2 C 126.7 12.2 123.7 13 123.7 13 C 123.5 12.5 123.2 12 122.8 11.5 C 122.5 11.1 122 10.7 121.4 10.4 C 120.7 10 119.9 9.9 119 9.9 C 117.6 9.9 116.5 10.2 115.6 10.8 C 114.7 11.4 114.3 12.2 114.3 13.1 C 114.3 14 114.6 14.6 115.2 15.1 C 115.8 15.6 116.8 16 118.1 16.3 C 118.1 16.3 121.3 17.1 121.3 17.1 C 123.2 17.6 124.7 18.3 125.6 19.3 C 126.6 20.2 127.1 21.5 127.1 23 C 127.1 24.3 126.7 25.4 126 26.4 C 125.3 27.3 124.3 28.1 123 28.7 C 121.7 29.3 120.3 29.5 118.6 29.5 C 116.3 29.5 114.5 29.1 113 28.1 C 111.6 27.1 110.7 25.7 110.3 23.9 C 110.3 23.9 113.4 23.1 113.4 23.1 C 113.8 24.2 114.3 25.1 115.2 25.7 C 116 26.3 117.1 26.6 118.5 26.6 C 120.1 26.6 121.3 26.3 122.2 25.6 C 123.2 24.9 123.6 24.1 123.6 23.2 C 123.6 22.4 123.4 21.8 122.8 21.3 C 122.3 20.8 121.5 20.4 120.4 20.1 C 120.4 20.1 116.7 19.3 116.7 19.3 C 114.7 18.8 113.3 18.1 112.3 17.1 C 111.4 16.1 110.9 14.8 110.9 13.3 C 110.9 12.1 111.3 11 112 10 C 112.7 9.1 113.6 8.3 114.8 7.8 C 116.1 7.3 117.4 7 119 7 C 121.1 7 122.8 7.5 124.1 8.4 C 125.3 9.4 126.2 10.6 126.7 12.2 Z M 149.8 29.6 C 148.4 29.6 147.2 29.3 146 28.8 C 144.9 28.3 144 27.5 143.4 26.5 C 142.7 25.5 142.4 24.3 142.4 22.9 C 142.4 21.6 142.6 20.6 143.1 19.9 C 143.6 19.1 144.3 18.5 145.1 18 C 145.9 17.6 146.8 17.2 147.8 17 C 148.8 16.8 149.8 16.6 150.8 16.5 C 152.2 16.3 153.2 16.2 154.1 16.1 C 154.9 16 155.5 15.8 155.9 15.6 C 156.3 15.4 156.5 15 156.5 14.5 C 156.5 14.5 156.5 14.4 156.5 14.4 C 156.5 13 156.1 11.9 155.3 11.1 C 154.6 10.3 153.4 9.9 151.9 9.9 C 150.3 9.9 149 10.3 148.1 11 C 147.2 11.7 146.5 12.4 146.2 13.2 C 146.2 13.2 143 12.1 143 12.1 C 143.6 10.8 144.3 9.7 145.3 9 C 146.2 8.3 147.3 7.7 148.4 7.4 C 149.5 7.1 150.6 7 151.7 7 C 152.4 7 153.3 7.1 154.2 7.2 C 155.1 7.4 156 7.7 156.8 8.3 C 157.7 8.8 158.4 9.5 159 10.6 C 159.5 11.6 159.8 13 159.8 14.7 C 159.81 14.72 159.8 29.1 159.8 29.1 L 156.5 29.1 L 156.5 26.1 C 156.5 26.1 156.29 26.14 156.3 26.1 C 156.1 26.6 155.7 27.1 155.2 27.7 C 154.6 28.2 153.9 28.7 153 29 C 152.2 29.4 151.1 29.6 149.8 29.6 Z M 150.3 26.6 C 151.6 26.6 152.8 26.3 153.7 25.8 C 154.6 25.3 155.3 24.6 155.8 23.8 C 156.2 23 156.5 22.1 156.5 21.2 C 156.5 21.2 156.5 18.1 156.5 18.1 C 156.3 18.3 156 18.4 155.5 18.6 C 155.1 18.7 154.5 18.8 153.9 18.9 C 153.3 19 152.7 19.1 152.1 19.2 C 151.5 19.3 151 19.3 150.7 19.4 C 149.8 19.5 149 19.7 148.2 19.9 C 147.5 20.2 146.9 20.5 146.4 21 C 146 21.5 145.7 22.2 145.7 23.1 C 145.7 24.2 146.2 25.1 147 25.7 C 147.9 26.3 149 26.6 150.3 26.6 Z M 168.9 16 C 168.92 15.97 168.9 29.1 168.9 29.1 L 165.6 29.1 L 165.6 7.3 L 168.8 7.3 L 168.8 10.7 C 168.8 10.7 169.09 10.68 169.1 10.7 C 169.6 9.6 170.4 8.7 171.4 8 C 172.5 7.3 173.8 7 175.5 7 C 176.9 7 178.2 7.3 179.3 7.9 C 180.4 8.5 181.3 9.4 181.9 10.6 C 182.5 11.8 182.8 13.4 182.8 15.2 C 182.84 15.23 182.8 29.1 182.8 29.1 L 179.5 29.1 C 179.5 29.1 179.49 15.45 179.5 15.5 C 179.5 13.7 179 12.4 178.2 11.4 C 177.3 10.5 176 10 174.5 10 C 173.4 10 172.5 10.2 171.6 10.7 C 170.8 11.2 170.1 11.8 169.6 12.7 C 169.2 13.6 168.9 14.7 168.9 16 Z M 189.6 37.3 C 189.1 37.3 188.6 37.2 188.1 37.1 C 187.7 37 187.4 37 187.2 36.9 C 187.2 36.9 188 33.9 188 33.9 C 188.9 34.1 189.6 34.2 190.2 34.1 C 190.8 34.1 191.4 33.8 191.9 33.3 C 192.4 32.8 192.8 32 193.2 30.9 C 193.21 30.91 193.8 29.2 193.8 29.2 L 185.8 7.3 L 189.4 7.3 L 195.4 24.7 L 195.7 24.7 L 201.7 7.3 L 205.3 7.3 C 205.3 7.3 196.05 32.27 196 32.3 C 195.6 33.4 195.1 34.3 194.5 35.1 C 193.9 35.8 193.2 36.4 192.4 36.7 C 191.6 37.1 190.6 37.3 189.6 37.3 Z M 217.1 29.5 C 215.2 29.5 213.4 29.1 212 28.1 C 210.5 27.2 209.3 25.9 208.5 24.2 C 207.7 22.5 207.3 20.5 207.3 18.3 C 207.3 16 207.7 14 208.5 12.3 C 209.3 10.6 210.5 9.3 212 8.4 C 213.4 7.5 215.2 7 217.1 7 C 219.1 7 220.8 7.5 222.3 8.4 C 223.8 9.3 225 10.6 225.8 12.3 C 226.6 14 227 16 227 18.3 C 227 20.5 226.6 22.5 225.8 24.2 C 225 25.9 223.8 27.2 222.3 28.1 C 220.8 29.1 219.1 29.5 217.1 29.5 Z M 217.1 26.5 C 218.6 26.5 219.9 26.2 220.8 25.4 C 221.8 24.6 222.5 23.6 223 22.4 C 223.4 21.1 223.7 19.8 223.7 18.3 C 223.7 16.8 223.4 15.5 223 14.2 C 222.5 13 221.8 11.9 220.8 11.2 C 219.9 10.4 218.6 10 217.1 10 C 215.6 10 214.4 10.4 213.4 11.2 C 212.5 11.9 211.8 13 211.3 14.2 C 210.8 15.5 210.6 16.8 210.6 18.3 C 210.6 19.8 210.8 21.1 211.3 22.4 C 211.8 23.6 212.5 24.6 213.4 25.4 C 214.4 26.2 215.6 26.5 217.1 26.5 Z M 235.1 16 C 235.14 15.97 235.1 29.1 235.1 29.1 L 231.8 29.1 L 231.8 7.3 L 235 7.3 L 235 10.7 C 235 10.7 235.32 10.68 235.3 10.7 C 235.8 9.6 236.6 8.7 237.6 8 C 238.7 7.3 240 7 241.7 7 C 243.2 7 244.4 7.3 245.6 7.9 C 246.7 8.5 247.5 9.4 248.1 10.6 C 248.8 11.8 249.1 13.4 249.1 15.2 C 249.07 15.23 249.1 29.1 249.1 29.1 L 245.7 29.1 C 245.7 29.1 245.71 15.45 245.7 15.5 C 245.7 13.7 245.3 12.4 244.4 11.4 C 243.5 10.5 242.3 10 240.7 10 C 239.6 10 238.7 10.2 237.9 10.7 C 237 11.2 236.4 11.8 235.9 12.7 C 235.4 13.6 235.1 14.7 235.1 16 Z M 263.9 29.5 C 261.8 29.5 260 29.1 258.5 28.1 C 257 27.2 255.8 25.9 255 24.2 C 254.2 22.5 253.8 20.6 253.8 18.4 C 253.8 16.1 254.2 14.1 255 12.4 C 255.8 10.7 256.9 9.4 258.4 8.4 C 259.9 7.5 261.6 7 263.6 7 C 264.7 7 265.8 7.2 267 7.6 C 268.1 7.9 269.1 8.5 270 9.4 C 270.9 10.2 271.6 11.4 272.1 12.8 C 272.7 14.1 273 15.9 273 17.9 C 272.96 17.9 273 19.3 273 19.3 L 256.1 19.3 L 256.1 16.4 C 256.1 16.4 269.55 16.42 269.6 16.4 C 269.6 15.2 269.3 14.1 268.8 13.1 C 268.3 12.2 267.6 11.4 266.7 10.8 C 265.8 10.3 264.8 10 263.6 10 C 262.2 10 261.1 10.3 260.1 11 C 259.2 11.6 258.4 12.5 257.9 13.6 C 257.4 14.6 257.1 15.7 257.1 16.9 C 257.1 16.9 257.1 18.9 257.1 18.9 C 257.1 20.5 257.4 21.9 258 23 C 258.5 24.2 259.3 25.1 260.4 25.6 C 261.4 26.2 262.6 26.5 263.9 26.5 C 264.8 26.5 265.6 26.4 266.3 26.2 C 267 25.9 267.7 25.5 268.2 25 C 268.7 24.5 269.1 23.9 269.4 23.1 C 269.4 23.1 272.6 24 272.6 24 C 272.3 25.1 271.7 26.1 270.9 26.9 C 270.1 27.8 269.1 28.4 267.9 28.9 C 266.7 29.3 265.4 29.5 263.9 29.5 Z " stroke="none" fill="#ffffff"/>  </g></svg>