<?xml version="1.0" standalone="no"?><!DOCTYPE svg PUBLIC "-//W3C//DTD SVG 1.1//EN" "http://www.w3.org/Graphics/SVG/1.1/DTD/svg11.dtd"><svg xmlns="http://www.w3.org/2000/svg" version="1.1" width="759px" height="325px" viewBox="0 -11 759 325" style="top:-11px">  <desc>Why does so much AI fail to live up to the hype?</desc>  <defs/>  <g id="Polygon112081">    <path d="M 29.1 221.1 L 29.1 230.6 L 1.8 230.6 L 1.8 221.1 L 29.1 221.1 Z M 8 210.3 L 20.6 210.3 C 20.6 210.3 20.57 252.49 20.6 252.5 C 20.6 253.7 20.8 254.6 21.1 255.2 C 21.5 255.8 22 256.3 22.6 256.5 C 23.2 256.8 24 256.9 24.8 256.9 C 25.4 256.9 26 256.9 26.6 256.8 C 27.2 256.6 27.6 256.6 27.9 256.5 C 27.9 256.5 29.9 265.8 29.9 265.8 C 29.3 266 28.4 266.3 27.3 266.5 C 26.1 266.8 24.7 267 23.1 267 C 20.1 267.1 17.4 266.7 15.2 265.8 C 12.9 264.9 11.1 263.5 9.9 261.5 C 8.6 259.6 8 257.1 8 254.1 C 8.02 254.14 8 210.3 8 210.3 Z M 48.4 240.2 C 48.41 240.23 48.4 266.4 48.4 266.4 L 35.9 266.4 L 35.9 206 L 48.1 206 L 48.1 229.1 C 48.1 229.1 48.59 229.12 48.6 229.1 C 49.6 226.4 51.3 224.4 53.5 222.8 C 55.8 221.3 58.7 220.5 62.1 220.5 C 65.3 220.5 68 221.2 70.4 222.6 C 72.7 224 74.5 225.9 75.8 228.5 C 77.1 231 77.8 234 77.8 237.6 C 77.77 237.58 77.8 266.4 77.8 266.4 L 65.2 266.4 C 65.2 266.4 65.21 239.82 65.2 239.8 C 65.2 237 64.5 234.9 63.1 233.3 C 61.7 231.8 59.7 231 57.1 231 C 55.4 231 53.9 231.3 52.6 232.1 C 51.3 232.8 50.3 233.9 49.5 235.2 C 48.8 236.6 48.4 238.3 48.4 240.2 Z M 107 267.3 C 102.4 267.3 98.4 266.3 95 264.4 C 91.7 262.6 89.1 259.9 87.3 256.4 C 85.5 252.9 84.6 248.8 84.6 244 C 84.6 239.3 85.5 235.2 87.3 231.7 C 89.1 228.2 91.6 225.5 94.9 223.5 C 98.2 221.5 102.1 220.5 106.5 220.5 C 109.5 220.5 112.3 221 114.9 222 C 117.5 222.9 119.7 224.4 121.7 226.3 C 123.6 228.2 125.1 230.6 126.2 233.4 C 127.3 236.3 127.8 239.7 127.8 243.5 C 127.81 243.53 127.8 247 127.8 247 L 89.6 247 L 89.6 239.2 C 89.6 239.2 115.99 239.2 116 239.2 C 116 237.4 115.6 235.8 114.8 234.4 C 114 233 112.9 231.9 111.6 231.1 C 110.2 230.3 108.6 229.9 106.7 229.9 C 104.8 229.9 103.1 230.4 101.7 231.2 C 100.2 232.1 99.1 233.3 98.2 234.7 C 97.4 236.2 97 237.8 97 239.6 C 97 239.6 97 247 97 247 C 97 249.3 97.4 251.2 98.2 252.8 C 99.1 254.4 100.3 255.7 101.8 256.6 C 103.3 257.5 105.1 257.9 107.2 257.9 C 108.6 257.9 109.9 257.7 111.1 257.3 C 112.2 256.9 113.2 256.3 114 255.6 C 114.9 254.8 115.5 253.8 115.9 252.7 C 115.9 252.7 127.5 253.4 127.5 253.4 C 127 256.2 125.8 258.7 123.9 260.7 C 122.1 262.8 119.8 264.4 116.9 265.6 C 114.1 266.7 110.8 267.3 107 267.3 Z M 167.8 240.2 C 167.81 240.23 167.8 266.4 167.8 266.4 L 155.3 266.4 L 155.3 206 L 167.5 206 L 167.5 229.1 C 167.5 229.1 167.98 229.12 168 229.1 C 169 226.4 170.7 224.4 172.9 222.8 C 175.2 221.3 178.1 220.5 181.5 220.5 C 184.7 220.5 187.4 221.2 189.8 222.6 C 192.1 224 193.9 225.9 195.2 228.5 C 196.5 231 197.2 234 197.2 237.6 C 197.16 237.58 197.2 266.4 197.2 266.4 L 184.6 266.4 C 184.6 266.4 184.61 239.82 184.6 239.8 C 184.6 237 183.9 234.9 182.5 233.3 C 181.1 231.8 179.1 231 176.5 231 C 174.8 231 173.3 231.3 172 232.1 C 170.7 232.8 169.7 233.9 168.9 235.2 C 168.2 236.6 167.8 238.3 167.8 240.2 Z M 211.6 283.4 C 210 283.4 208.5 283.3 207.1 283 C 205.7 282.8 204.6 282.5 203.7 282.1 C 203.7 282.1 206.5 272.7 206.5 272.7 C 208 273.2 209.3 273.4 210.5 273.5 C 211.7 273.5 212.7 273.2 213.6 272.6 C 214.5 272 215.2 271 215.8 269.6 C 215.75 269.62 216.5 267.7 216.5 267.7 L 200.2 221.1 L 213.5 221.1 L 222.8 254.4 L 223.3 254.4 L 232.8 221.1 L 246.1 221.1 C 246.1 221.1 228.46 271.3 228.5 271.3 C 227.6 273.7 226.5 275.9 225 277.7 C 223.6 279.5 221.8 280.9 219.6 281.9 C 217.4 282.9 214.7 283.4 211.6 283.4 Z M 250.9 283.4 L 250.9 221.1 L 263.3 221.1 L 263.3 228.7 C 263.3 228.7 263.88 228.74 263.9 228.7 C 264.4 227.5 265.2 226.3 266.3 225 C 267.3 223.7 268.7 222.7 270.4 221.8 C 272.1 221 274.2 220.5 276.8 220.5 C 280.1 220.5 283.1 221.4 285.9 223.1 C 288.7 224.8 290.9 227.4 292.6 230.9 C 294.3 234.3 295.1 238.6 295.1 243.8 C 295.1 248.9 294.3 253.1 292.7 256.6 C 291 260.1 288.8 262.7 286.1 264.5 C 283.3 266.3 280.2 267.1 276.7 267.1 C 274.3 267.1 272.2 266.7 270.5 265.9 C 268.8 265.1 267.4 264.1 266.4 262.9 C 265.3 261.7 264.5 260.4 263.9 259.2 C 263.88 259.16 263.5 259.2 263.5 259.2 L 263.5 283.4 L 250.9 283.4 Z M 263.2 243.8 C 263.2 246.5 263.6 248.8 264.4 250.8 C 265.1 252.8 266.2 254.4 267.6 255.5 C 269 256.6 270.7 257.2 272.8 257.2 C 274.8 257.2 276.5 256.6 277.9 255.5 C 279.4 254.3 280.4 252.8 281.2 250.7 C 281.9 248.7 282.3 246.4 282.3 243.8 C 282.3 241.2 281.9 238.9 281.2 236.9 C 280.5 234.9 279.4 233.3 278 232.2 C 276.6 231.1 274.8 230.5 272.8 230.5 C 270.7 230.5 269 231.1 267.6 232.2 C 266.2 233.2 265.1 234.8 264.4 236.8 C 263.6 238.7 263.2 241.1 263.2 243.8 Z M 322.7 267.3 C 318.1 267.3 314.1 266.3 310.7 264.4 C 307.4 262.6 304.8 259.9 303 256.4 C 301.2 252.9 300.3 248.8 300.3 244 C 300.3 239.3 301.2 235.2 303 231.7 C 304.8 228.2 307.3 225.5 310.6 223.5 C 313.9 221.5 317.8 220.5 322.2 220.5 C 325.2 220.5 328 221 330.6 222 C 333.2 222.9 335.4 224.4 337.4 226.3 C 339.3 228.2 340.8 230.6 341.9 233.4 C 343 236.3 343.5 239.7 343.5 243.5 C 343.5 243.53 343.5 247 343.5 247 L 305.3 247 L 305.3 239.2 C 305.3 239.2 331.68 239.2 331.7 239.2 C 331.7 237.4 331.3 235.8 330.5 234.4 C 329.7 233 328.6 231.9 327.2 231.1 C 325.9 230.3 324.3 229.9 322.4 229.9 C 320.5 229.9 318.8 230.4 317.4 231.2 C 315.9 232.1 314.8 233.3 313.9 234.7 C 313.1 236.2 312.7 237.8 312.7 239.6 C 312.7 239.6 312.7 247 312.7 247 C 312.7 249.3 313.1 251.2 313.9 252.8 C 314.8 254.4 315.9 255.7 317.5 256.6 C 319 257.5 320.8 257.9 322.9 257.9 C 324.3 257.9 325.6 257.7 326.8 257.3 C 327.9 256.9 328.9 256.3 329.7 255.6 C 330.6 254.8 331.2 253.8 331.6 252.7 C 331.6 252.7 343.2 253.4 343.2 253.4 C 342.6 256.2 341.4 258.7 339.6 260.7 C 337.8 262.8 335.5 264.4 332.6 265.6 C 329.8 266.7 326.5 267.3 322.7 267.3 Z M 357.4 248.3 C 357.4 248.3 357.41 247.31 357.4 247.3 C 357.4 243.9 357.7 241.1 358.3 239.1 C 358.9 237 359.8 235.4 361 234.1 C 362.1 232.9 363.5 231.7 365.2 230.7 C 366.4 229.9 367.5 229.1 368.4 228.3 C 369.4 227.4 370.2 226.5 370.7 225.5 C 371.3 224.4 371.6 223.3 371.6 222 C 371.6 220.6 371.3 219.4 370.6 218.4 C 370 217.4 369.1 216.6 368 216.1 C 366.9 215.5 365.7 215.2 364.4 215.2 C 363.1 215.2 361.9 215.5 360.8 216.1 C 359.6 216.6 358.7 217.5 358 218.6 C 357.2 219.6 356.9 221 356.8 222.6 C 356.8 222.6 344.8 222.6 344.8 222.6 C 344.9 218.7 345.8 215.4 347.6 212.9 C 349.4 210.3 351.8 208.4 354.7 207.1 C 357.6 205.9 360.9 205.2 364.5 205.2 C 368.4 205.2 371.8 205.9 374.8 207.1 C 377.8 208.4 380.2 210.3 381.9 212.7 C 383.6 215.2 384.5 218.1 384.5 221.5 C 384.5 223.8 384.1 225.9 383.3 227.7 C 382.6 229.4 381.5 231 380.2 232.4 C 378.8 233.7 377.2 235 375.4 236.1 C 373.8 237 372.5 238 371.5 239 C 370.6 240 369.8 241.1 369.3 242.4 C 368.9 243.8 368.6 245.4 368.6 247.3 C 368.58 247.31 368.6 248.3 368.6 248.3 L 357.4 248.3 Z M 363.2 267.2 C 361.3 267.2 359.6 266.5 358.2 265.1 C 356.8 263.7 356.2 262 356.2 260.1 C 356.2 258.2 356.8 256.5 358.2 255.1 C 359.6 253.8 361.3 253.1 363.2 253.1 C 365.1 253.1 366.8 253.8 368.2 255.1 C 369.6 256.5 370.3 258.2 370.3 260.1 C 370.3 261.4 370 262.6 369.3 263.7 C 368.6 264.7 367.8 265.6 366.7 266.2 C 365.7 266.9 364.5 267.2 363.2 267.2 Z " stroke="none" fill="#10283d"/>  </g>  <g id="Polygon112080">    <path d="M 15.7 173.4 L 2 173.4 L 22.8 113 L 39.3 113 L 60.1 173.4 L 46.4 173.4 L 31.3 126.8 L 30.8 126.8 L 15.7 173.4 Z M 14.8 149.7 L 47.1 149.7 L 47.1 159.6 L 14.8 159.6 L 14.8 149.7 Z M 79 113 L 79 173.4 L 66.2 173.4 L 66.2 113 L 79 113 Z M 132.9 128.1 L 132.9 137.6 L 104.9 137.6 L 104.9 128.1 L 132.9 128.1 Z M 111.3 173.4 C 111.3 173.4 111.34 124.86 111.3 124.9 C 111.3 121.6 112 118.9 113.3 116.7 C 114.6 114.5 116.3 112.9 118.6 111.8 C 120.8 110.8 123.3 110.2 126.2 110.2 C 128.1 110.2 129.9 110.4 131.5 110.7 C 133.1 110.9 134.3 111.2 135.1 111.5 C 135.1 111.5 132.8 120.9 132.8 120.9 C 132.3 120.7 131.7 120.6 131 120.4 C 130.3 120.3 129.6 120.2 128.8 120.2 C 127 120.2 125.7 120.7 125 121.5 C 124.2 122.4 123.9 123.6 123.9 125.1 C 123.86 125.1 123.9 173.4 123.9 173.4 L 111.3 173.4 Z M 151.2 174.3 C 148.3 174.3 145.7 173.8 143.4 172.7 C 141.2 171.7 139.4 170.2 138.1 168.2 C 136.8 166.2 136.1 163.7 136.1 160.8 C 136.1 158.2 136.6 156.1 137.5 154.4 C 138.4 152.7 139.7 151.3 141.3 150.3 C 142.9 149.3 144.7 148.5 146.7 147.9 C 148.8 147.4 150.9 147 153.1 146.8 C 155.8 146.5 157.9 146.3 159.5 146 C 161.1 145.8 162.3 145.4 163 144.9 C 163.7 144.4 164.1 143.7 164.1 142.8 C 164.1 142.8 164.1 142.6 164.1 142.6 C 164.1 140.7 163.5 139.3 162.3 138.2 C 161.2 137.2 159.5 136.7 157.4 136.7 C 155.1 136.7 153.3 137.2 152 138.2 C 150.6 139.2 149.8 140.4 149.3 141.9 C 149.3 141.9 137.7 141 137.7 141 C 138.3 138.2 139.5 135.9 141.2 133.8 C 142.9 131.8 145.2 130.3 147.9 129.2 C 150.6 128.1 153.8 127.5 157.4 127.5 C 159.9 127.5 162.4 127.8 164.7 128.4 C 167 129 169 129.9 170.8 131.2 C 172.6 132.4 174 134 175.1 135.9 C 176.1 137.9 176.7 140.2 176.7 142.9 C 176.65 142.87 176.7 173.4 176.7 173.4 L 164.7 173.4 L 164.7 167.1 C 164.7 167.1 164.39 167.13 164.4 167.1 C 163.7 168.5 162.7 169.8 161.5 170.9 C 160.3 171.9 158.8 172.8 157.1 173.4 C 155.4 174 153.4 174.3 151.2 174.3 Z M 154.8 165.6 C 156.6 165.6 158.2 165.2 159.6 164.5 C 161.1 163.8 162.2 162.8 163 161.5 C 163.8 160.2 164.2 158.8 164.2 157.2 C 164.2 157.2 164.2 152.4 164.2 152.4 C 163.8 152.7 163.3 152.9 162.6 153.1 C 161.9 153.3 161.1 153.5 160.3 153.7 C 159.4 153.8 158.6 154 157.8 154.1 C 156.9 154.2 156.1 154.4 155.5 154.5 C 154 154.7 152.7 155 151.6 155.5 C 150.5 156 149.6 156.6 149 157.4 C 148.4 158.2 148.1 159.2 148.1 160.3 C 148.1 162.1 148.7 163.4 150 164.3 C 151.2 165.1 152.8 165.6 154.8 165.6 Z M 185.5 173.4 L 185.5 128.1 L 198.1 128.1 L 198.1 173.4 L 185.5 173.4 Z M 191.8 122.3 C 190 122.3 188.4 121.7 187 120.4 C 185.7 119.2 185 117.7 185 116 C 185 114.2 185.7 112.7 187.1 111.5 C 188.4 110.2 190 109.6 191.8 109.6 C 193.7 109.6 195.3 110.2 196.6 111.5 C 197.9 112.7 198.6 114.2 198.6 115.9 C 198.6 117.7 197.9 119.2 196.6 120.4 C 195.3 121.7 193.7 122.3 191.8 122.3 Z M 219.8 113 L 219.8 173.4 L 207.3 173.4 L 207.3 113 L 219.8 113 Z M 273.2 128.1 L 273.2 137.6 L 245.9 137.6 L 245.9 128.1 L 273.2 128.1 Z M 252.1 117.3 L 264.7 117.3 C 264.7 117.3 264.66 159.49 264.7 159.5 C 264.7 160.7 264.8 161.6 265.2 162.2 C 265.5 162.8 266 163.3 266.7 163.5 C 267.3 163.8 268.1 163.9 268.9 163.9 C 269.5 163.9 270.1 163.9 270.7 163.8 C 271.3 163.6 271.7 163.6 272 163.5 C 272 163.5 274 172.8 274 172.8 C 273.4 173 272.5 173.3 271.3 173.5 C 270.2 173.8 268.8 174 267.2 174 C 264.2 174.1 261.5 173.7 259.2 172.8 C 257 171.9 255.2 170.5 254 168.5 C 252.7 166.6 252.1 164.1 252.1 161.1 C 252.1 161.14 252.1 117.3 252.1 117.3 Z M 299 174.3 C 294.4 174.3 290.5 173.3 287.2 171.4 C 283.8 169.4 281.3 166.7 279.5 163.2 C 277.6 159.7 276.7 155.6 276.7 150.9 C 276.7 146.3 277.6 142.2 279.5 138.7 C 281.3 135.2 283.8 132.4 287.2 130.5 C 290.5 128.5 294.4 127.5 299 127.5 C 303.6 127.5 307.6 128.5 310.9 130.5 C 314.2 132.4 316.8 135.2 318.6 138.7 C 320.4 142.2 321.3 146.3 321.3 150.9 C 321.3 155.6 320.4 159.7 318.6 163.2 C 316.8 166.7 314.2 169.4 310.9 171.4 C 307.6 173.3 303.6 174.3 299 174.3 Z M 299.1 164.6 C 301.2 164.6 302.9 164 304.3 162.8 C 305.7 161.6 306.7 160 307.5 157.9 C 308.2 155.8 308.5 153.5 308.5 150.9 C 308.5 148.2 308.2 145.9 307.5 143.8 C 306.7 141.8 305.7 140.1 304.3 138.9 C 302.9 137.7 301.2 137.1 299.1 137.1 C 297 137.1 295.2 137.7 293.8 138.9 C 292.4 140.1 291.3 141.8 290.6 143.8 C 289.9 145.9 289.5 148.2 289.5 150.9 C 289.5 153.5 289.9 155.8 290.6 157.9 C 291.3 160 292.4 161.6 293.8 162.8 C 295.2 164 297 164.6 299.1 164.6 Z M 361.3 113 L 361.3 173.4 L 348.7 173.4 L 348.7 113 L 361.3 113 Z M 370.5 173.4 L 370.5 128.1 L 383 128.1 L 383 173.4 L 370.5 173.4 Z M 376.8 122.3 C 374.9 122.3 373.3 121.7 372 120.4 C 370.6 119.2 370 117.7 370 116 C 370 114.2 370.6 112.7 372 111.5 C 373.3 110.2 374.9 109.6 376.8 109.6 C 378.6 109.6 380.2 110.2 381.5 111.5 C 382.9 112.7 383.5 114.2 383.5 115.9 C 383.5 117.7 382.9 119.2 381.5 120.4 C 380.2 121.7 378.6 122.3 376.8 122.3 Z M 433.7 128.1 L 417.9 173.4 L 403.7 173.4 L 387.9 128.1 L 401.2 128.1 L 410.6 160.5 L 411 160.5 L 420.4 128.1 L 433.7 128.1 Z M 457.3 174.3 C 452.6 174.3 448.6 173.3 445.3 171.4 C 441.9 169.6 439.3 166.9 437.5 163.4 C 435.7 159.9 434.8 155.8 434.8 151 C 434.8 146.3 435.7 142.2 437.5 138.7 C 439.3 135.2 441.9 132.5 445.2 130.5 C 448.5 128.5 452.3 127.5 456.8 127.5 C 459.7 127.5 462.5 128 465.1 129 C 467.7 129.9 470 131.4 471.9 133.3 C 473.8 135.2 475.3 137.6 476.4 140.4 C 477.5 143.3 478 146.7 478 150.5 C 478.04 150.53 478 154 478 154 L 439.8 154 L 439.8 146.2 C 439.8 146.2 466.22 146.2 466.2 146.2 C 466.2 144.4 465.8 142.8 465 141.4 C 464.3 140 463.2 138.9 461.8 138.1 C 460.4 137.3 458.8 136.9 457 136.9 C 455.1 136.9 453.4 137.4 451.9 138.2 C 450.4 139.1 449.3 140.3 448.5 141.7 C 447.7 143.2 447.2 144.8 447.2 146.6 C 447.2 146.6 447.2 154 447.2 154 C 447.2 156.3 447.6 158.2 448.5 159.8 C 449.3 161.4 450.5 162.7 452 163.6 C 453.5 164.5 455.4 164.9 457.5 164.9 C 458.9 164.9 460.1 164.7 461.3 164.3 C 462.5 163.9 463.5 163.3 464.3 162.6 C 465.1 161.8 465.7 160.8 466.2 159.7 C 466.2 159.7 477.8 160.4 477.8 160.4 C 477.2 163.2 476 165.7 474.2 167.7 C 472.3 169.8 470 171.4 467.2 172.6 C 464.3 173.7 461 174.3 457.3 174.3 Z M 534.5 154.1 C 534.51 154.13 534.5 128.1 534.5 128.1 L 547.1 128.1 L 547.1 173.4 L 535 173.4 L 535 165.2 C 535 165.2 534.54 165.18 534.5 165.2 C 533.5 167.8 531.8 170 529.5 171.6 C 527.1 173.2 524.2 174 520.8 174 C 517.8 174 515.1 173.3 512.8 171.9 C 510.5 170.6 508.7 168.6 507.4 166.1 C 506.2 163.5 505.5 160.5 505.5 157 C 505.48 156.96 505.5 128.1 505.5 128.1 L 518 128.1 C 518 128.1 518.04 154.72 518 154.7 C 518.1 157.4 518.8 159.5 520.2 161.1 C 521.6 162.6 523.5 163.4 525.9 163.4 C 527.4 163.4 528.8 163 530.1 162.3 C 531.4 161.6 532.5 160.6 533.3 159.2 C 534.1 157.9 534.5 156.2 534.5 154.1 Z M 556.2 190.4 L 556.2 128.1 L 568.6 128.1 L 568.6 135.7 C 568.6 135.7 569.17 135.74 569.2 135.7 C 569.7 134.5 570.5 133.3 571.6 132 C 572.6 130.7 574 129.7 575.7 128.8 C 577.4 128 579.5 127.5 582 127.5 C 585.3 127.5 588.4 128.4 591.2 130.1 C 594 131.8 596.2 134.4 597.9 137.9 C 599.5 141.3 600.4 145.6 600.4 150.8 C 600.4 155.9 599.6 160.1 597.9 163.6 C 596.3 167.1 594.1 169.7 591.3 171.5 C 588.6 173.3 585.5 174.1 582 174.1 C 579.6 174.1 577.5 173.7 575.8 172.9 C 574.1 172.1 572.7 171.1 571.6 169.9 C 570.6 168.7 569.7 167.4 569.2 166.2 C 569.17 166.16 568.8 166.2 568.8 166.2 L 568.8 190.4 L 556.2 190.4 Z M 568.5 150.8 C 568.5 153.5 568.9 155.8 569.6 157.8 C 570.4 159.8 571.5 161.4 572.9 162.5 C 574.3 163.6 576 164.2 578 164.2 C 580.1 164.2 581.8 163.6 583.2 162.5 C 584.6 161.3 585.7 159.8 586.5 157.7 C 587.2 155.7 587.6 153.4 587.6 150.8 C 587.6 148.2 587.2 145.9 586.5 143.9 C 585.7 141.9 584.7 140.3 583.3 139.2 C 581.8 138.1 580.1 137.5 578 137.5 C 576 137.5 574.3 138.1 572.9 139.2 C 571.5 140.2 570.4 141.8 569.6 143.8 C 568.9 145.7 568.5 148.1 568.5 150.8 Z M 652 128.1 L 652 137.6 L 624.8 137.6 L 624.8 128.1 L 652 128.1 Z M 631 117.3 L 643.5 117.3 C 643.5 117.3 643.53 159.49 643.5 159.5 C 643.5 160.7 643.7 161.6 644.1 162.2 C 644.4 162.8 644.9 163.3 645.5 163.5 C 646.2 163.8 646.9 163.9 647.8 163.9 C 648.4 163.9 649 163.9 649.5 163.8 C 650.1 163.6 650.6 163.6 650.9 163.5 C 650.9 163.5 652.9 172.8 652.9 172.8 C 652.2 173 651.4 173.3 650.2 173.5 C 649.1 173.8 647.7 174 646.1 174 C 643 174.1 640.4 173.7 638.1 172.8 C 635.9 171.9 634.1 170.5 632.8 168.5 C 631.6 166.6 631 164.1 631 161.1 C 630.97 161.14 631 117.3 631 117.3 Z M 677.9 174.3 C 673.3 174.3 669.4 173.3 666 171.4 C 662.7 169.4 660.1 166.7 658.3 163.2 C 656.5 159.7 655.6 155.6 655.6 150.9 C 655.6 146.3 656.5 142.2 658.3 138.7 C 660.1 135.2 662.7 132.4 666 130.5 C 669.4 128.5 673.3 127.5 677.9 127.5 C 682.5 127.5 686.4 128.5 689.8 130.5 C 693.1 132.4 695.7 135.2 697.5 138.7 C 699.3 142.2 700.2 146.3 700.2 150.9 C 700.2 155.6 699.3 159.7 697.5 163.2 C 695.7 166.7 693.1 169.4 689.8 171.4 C 686.4 173.3 682.5 174.3 677.9 174.3 Z M 678 164.6 C 680 164.6 681.8 164 683.2 162.8 C 684.6 161.6 685.6 160 686.3 157.9 C 687.1 155.8 687.4 153.5 687.4 150.9 C 687.4 148.2 687.1 145.9 686.3 143.8 C 685.6 141.8 684.6 140.1 683.2 138.9 C 681.8 137.7 680 137.1 678 137.1 C 675.9 137.1 674.1 137.7 672.7 138.9 C 671.2 140.1 670.2 141.8 669.5 143.8 C 668.7 145.9 668.4 148.2 668.4 150.9 C 668.4 153.5 668.7 155.8 669.5 157.9 C 670.2 160 671.2 161.6 672.7 162.8 C 674.1 164 675.9 164.6 678 164.6 Z " stroke="none" fill="#10283d"/>  </g>  <g id="Polygon112079">    <path d="M 18.8 80.4 L 1.6 20 L 15.5 20 L 25.5 62 L 26 62 L 37 20 L 49 20 L 60 62.1 L 60.5 62.1 L 70.5 20 L 84.4 20 L 67.1 80.4 L 54.7 80.4 L 43.2 40.9 L 42.7 40.9 L 31.3 80.4 L 18.8 80.4 Z M 102.4 54.2 C 102.42 54.23 102.4 80.4 102.4 80.4 L 89.9 80.4 L 89.9 20 L 102.1 20 L 102.1 43.1 C 102.1 43.1 102.6 43.12 102.6 43.1 C 103.6 40.4 105.3 38.4 107.6 36.8 C 109.8 35.3 112.7 34.5 116.1 34.5 C 119.3 34.5 122 35.2 124.4 36.6 C 126.7 38 128.5 39.9 129.8 42.5 C 131.2 45 131.8 48 131.8 51.6 C 131.78 51.58 131.8 80.4 131.8 80.4 L 119.2 80.4 C 119.2 80.4 119.22 53.82 119.2 53.8 C 119.2 51 118.5 48.9 117.1 47.3 C 115.7 45.8 113.7 45 111.1 45 C 109.4 45 107.9 45.3 106.6 46.1 C 105.3 46.8 104.3 47.9 103.6 49.2 C 102.8 50.6 102.4 52.3 102.4 54.2 Z M 146.2 97.4 C 144.6 97.4 143.1 97.3 141.7 97 C 140.4 96.8 139.2 96.5 138.3 96.1 C 138.3 96.1 141.1 86.7 141.1 86.7 C 142.6 87.2 143.9 87.4 145.1 87.5 C 146.3 87.5 147.4 87.2 148.2 86.6 C 149.1 86 149.8 85 150.4 83.6 C 150.37 83.62 151.1 81.7 151.1 81.7 L 134.9 35.1 L 148.1 35.1 L 157.4 68.4 L 157.9 68.4 L 167.4 35.1 L 180.7 35.1 C 180.7 35.1 163.07 85.3 163.1 85.3 C 162.2 87.7 161.1 89.9 159.6 91.7 C 158.2 93.5 156.4 94.9 154.2 95.9 C 152 96.9 149.3 97.4 146.2 97.4 Z M 223 81.1 C 219.6 81.1 216.5 80.3 213.7 78.5 C 210.9 76.7 208.7 74.1 207.1 70.6 C 205.5 67.1 204.7 62.9 204.7 57.8 C 204.7 52.6 205.5 48.3 207.2 44.9 C 208.8 41.4 211.1 38.8 213.8 37.1 C 216.6 35.4 219.7 34.5 223 34.5 C 225.5 34.5 227.6 35 229.3 35.8 C 231 36.7 232.4 37.7 233.5 39 C 234.5 40.3 235.3 41.5 235.9 42.7 C 235.87 42.74 236.3 42.7 236.3 42.7 L 236.3 20 L 248.8 20 L 248.8 80.4 L 236.4 80.4 L 236.4 73.2 C 236.4 73.2 235.87 73.16 235.9 73.2 C 235.3 74.4 234.5 75.7 233.4 76.9 C 232.3 78.1 230.9 79.1 229.2 79.9 C 227.5 80.7 225.5 81.1 223 81.1 Z M 227 71.2 C 229 71.2 230.7 70.6 232.1 69.5 C 233.6 68.4 234.6 66.8 235.4 64.8 C 236.1 62.8 236.5 60.5 236.5 57.8 C 236.5 55.1 236.1 52.7 235.4 50.8 C 234.7 48.8 233.6 47.2 232.2 46.2 C 230.7 45.1 229 44.5 227 44.5 C 224.9 44.5 223.2 45.1 221.8 46.2 C 220.4 47.3 219.3 48.9 218.6 50.9 C 217.8 52.9 217.5 55.2 217.5 57.8 C 217.5 60.4 217.9 62.7 218.6 64.7 C 219.3 66.8 220.4 68.3 221.8 69.5 C 223.2 70.6 224.9 71.2 227 71.2 Z M 278.2 81.3 C 273.6 81.3 269.7 80.3 266.3 78.4 C 263 76.4 260.4 73.7 258.6 70.2 C 256.8 66.7 255.9 62.6 255.9 57.9 C 255.9 53.3 256.8 49.2 258.6 45.7 C 260.4 42.2 263 39.4 266.3 37.5 C 269.7 35.5 273.6 34.5 278.2 34.5 C 282.8 34.5 286.7 35.5 290.1 37.5 C 293.4 39.4 296 42.2 297.8 45.7 C 299.6 49.2 300.5 53.3 300.5 57.9 C 300.5 62.6 299.6 66.7 297.8 70.2 C 296 73.7 293.4 76.4 290.1 78.4 C 286.7 80.3 282.8 81.3 278.2 81.3 Z M 278.2 71.6 C 280.3 71.6 282.1 71 283.5 69.8 C 284.9 68.6 285.9 67 286.6 64.9 C 287.4 62.8 287.7 60.5 287.7 57.9 C 287.7 55.2 287.4 52.9 286.6 50.8 C 285.9 48.8 284.9 47.1 283.5 45.9 C 282.1 44.7 280.3 44.1 278.2 44.1 C 276.1 44.1 274.4 44.7 273 45.9 C 271.5 47.1 270.5 48.8 269.7 50.8 C 269 52.9 268.7 55.2 268.7 57.9 C 268.7 60.5 269 62.8 269.7 64.9 C 270.5 67 271.5 68.6 273 69.8 C 274.4 71 276.1 71.6 278.2 71.6 Z M 327.8 81.3 C 323.2 81.3 319.2 80.3 315.8 78.4 C 312.5 76.6 309.9 73.9 308.1 70.4 C 306.3 66.9 305.4 62.8 305.4 58 C 305.4 53.3 306.3 49.2 308.1 45.7 C 309.9 42.2 312.4 39.5 315.7 37.5 C 319 35.5 322.9 34.5 327.3 34.5 C 330.3 34.5 333.1 35 335.7 36 C 338.3 36.9 340.5 38.4 342.5 40.3 C 344.4 42.2 345.9 44.6 347 47.4 C 348.1 50.3 348.6 53.7 348.6 57.5 C 348.6 57.53 348.6 61 348.6 61 L 310.4 61 L 310.4 53.2 C 310.4 53.2 336.78 53.2 336.8 53.2 C 336.8 51.4 336.4 49.8 335.6 48.4 C 334.8 47 333.7 45.9 332.3 45.1 C 331 44.3 329.4 43.9 327.5 43.9 C 325.6 43.9 323.9 44.4 322.5 45.2 C 321 46.1 319.9 47.3 319 48.7 C 318.2 50.2 317.8 51.8 317.8 53.6 C 317.8 53.6 317.8 61 317.8 61 C 317.8 63.3 318.2 65.2 319 66.8 C 319.9 68.4 321 69.7 322.6 70.6 C 324.1 71.5 325.9 71.9 328 71.9 C 329.4 71.9 330.7 71.7 331.9 71.3 C 333 70.9 334 70.3 334.8 69.6 C 335.7 68.8 336.3 67.8 336.7 66.7 C 336.7 66.7 348.3 67.4 348.3 67.4 C 347.7 70.2 346.5 72.7 344.7 74.7 C 342.9 76.8 340.6 78.4 337.7 79.6 C 334.8 80.7 331.6 81.3 327.8 81.3 Z M 392.9 48 C 392.9 48 381.4 48.8 381.4 48.8 C 381.3 47.8 380.8 46.9 380.2 46.1 C 379.5 45.3 378.7 44.6 377.6 44.2 C 376.6 43.7 375.3 43.4 373.9 43.4 C 371.9 43.4 370.3 43.9 369 44.7 C 367.6 45.5 366.9 46.6 366.9 47.9 C 366.9 49 367.4 49.9 368.2 50.7 C 369.1 51.4 370.6 52 372.7 52.5 C 372.7 52.5 380.9 54.1 380.9 54.1 C 385.3 55 388.6 56.5 390.7 58.5 C 392.9 60.5 394 63.1 394 66.4 C 394 69.3 393.1 71.9 391.4 74.2 C 389.6 76.4 387.2 78.2 384.2 79.4 C 381.2 80.7 377.7 81.3 373.8 81.3 C 367.8 81.3 363.1 80 359.5 77.5 C 356 75 353.9 71.6 353.3 67.3 C 353.3 67.3 365.6 66.6 365.6 66.6 C 366 68.5 366.9 69.9 368.3 70.8 C 369.8 71.8 371.6 72.2 373.8 72.2 C 376 72.2 377.8 71.8 379.2 71 C 380.5 70.1 381.2 69 381.2 67.6 C 381.2 66.5 380.7 65.6 379.8 64.8 C 378.8 64.1 377.4 63.5 375.4 63.1 C 375.4 63.1 367.6 61.6 367.6 61.6 C 363.1 60.7 359.9 59.2 357.7 57 C 355.6 54.8 354.5 52 354.5 48.6 C 354.5 45.7 355.3 43.2 356.9 41.1 C 358.4 39 360.7 37.4 363.5 36.3 C 366.4 35.1 369.8 34.5 373.7 34.5 C 379.4 34.5 383.9 35.8 387.2 38.2 C 390.5 40.6 392.4 43.9 392.9 48 Z M 458.8 48 C 458.8 48 447.3 48.8 447.3 48.8 C 447.1 47.8 446.7 46.9 446.1 46.1 C 445.4 45.3 444.6 44.6 443.5 44.2 C 442.5 43.7 441.2 43.4 439.7 43.4 C 437.8 43.4 436.2 43.9 434.8 44.7 C 433.5 45.5 432.8 46.6 432.8 47.9 C 432.8 49 433.3 49.9 434.1 50.7 C 435 51.4 436.5 52 438.6 52.5 C 438.6 52.5 446.8 54.1 446.8 54.1 C 451.2 55 454.4 56.5 456.6 58.5 C 458.8 60.5 459.8 63.1 459.8 66.4 C 459.8 69.3 459 71.9 457.2 74.2 C 455.5 76.4 453.1 78.2 450.1 79.4 C 447.1 80.7 443.6 81.3 439.7 81.3 C 433.7 81.3 428.9 80 425.4 77.5 C 421.8 75 419.8 71.6 419.1 67.3 C 419.1 67.3 431.5 66.6 431.5 66.6 C 431.9 68.5 432.8 69.9 434.2 70.8 C 435.6 71.8 437.5 72.2 439.7 72.2 C 441.9 72.2 443.7 71.8 445 71 C 446.4 70.1 447.1 69 447.1 67.6 C 447.1 66.5 446.6 65.6 445.6 64.8 C 444.7 64.1 443.2 63.5 441.3 63.1 C 441.3 63.1 433.4 61.6 433.4 61.6 C 429 60.7 425.7 59.2 423.6 57 C 421.4 54.8 420.4 52 420.4 48.6 C 420.4 45.7 421.1 43.2 422.7 41.1 C 424.3 39 426.5 37.4 429.4 36.3 C 432.3 35.1 435.7 34.5 439.5 34.5 C 445.3 34.5 449.8 35.8 453.1 38.2 C 456.3 40.6 458.3 43.9 458.8 48 Z M 486.7 81.3 C 482.1 81.3 478.1 80.3 474.8 78.4 C 471.5 76.4 468.9 73.7 467.1 70.2 C 465.3 66.7 464.4 62.6 464.4 57.9 C 464.4 53.3 465.3 49.2 467.1 45.7 C 468.9 42.2 471.5 39.4 474.8 37.5 C 478.1 35.5 482.1 34.5 486.7 34.5 C 491.2 34.5 495.2 35.5 498.5 37.5 C 501.9 39.4 504.4 42.2 506.2 45.7 C 508 49.2 508.9 53.3 508.9 57.9 C 508.9 62.6 508 66.7 506.2 70.2 C 504.4 73.7 501.9 76.4 498.5 78.4 C 495.2 80.3 491.2 81.3 486.7 81.3 Z M 486.7 71.6 C 488.8 71.6 490.5 71 491.9 69.8 C 493.3 68.6 494.4 67 495.1 64.9 C 495.8 62.8 496.2 60.5 496.2 57.9 C 496.2 55.2 495.8 52.9 495.1 50.8 C 494.4 48.8 493.3 47.1 491.9 45.9 C 490.5 44.7 488.8 44.1 486.7 44.1 C 484.6 44.1 482.9 44.7 481.4 45.9 C 480 47.1 478.9 48.8 478.2 50.8 C 477.5 52.9 477.1 55.2 477.1 57.9 C 477.1 60.5 477.5 62.8 478.2 64.9 C 478.9 67 480 68.6 481.4 69.8 C 482.9 71 484.6 71.6 486.7 71.6 Z M 536.4 80.4 L 536.4 35.1 L 548.4 35.1 L 548.4 43.1 C 548.4 43.1 548.88 43.12 548.9 43.1 C 549.8 40.5 551.4 38.4 553.6 36.8 C 555.8 35.3 558.4 34.5 561.5 34.5 C 564.6 34.5 567.2 35.3 569.4 36.9 C 571.6 38.4 573.1 40.5 573.8 43.1 C 573.8 43.1 574.3 43.1 574.3 43.1 C 575.2 40.5 576.9 38.4 579.3 36.9 C 581.7 35.3 584.6 34.5 587.9 34.5 C 592.1 34.5 595.6 35.9 598.2 38.6 C 600.9 41.2 602.2 45 602.2 50 C 602.17 49.96 602.2 80.4 602.2 80.4 L 589.6 80.4 C 589.6 80.4 589.65 52.44 589.6 52.4 C 589.6 49.9 589 48 587.6 46.8 C 586.3 45.5 584.6 44.9 582.6 44.9 C 580.4 44.9 578.6 45.6 577.3 47.1 C 576 48.5 575.4 50.4 575.4 52.8 C 575.38 52.76 575.4 80.4 575.4 80.4 L 563.2 80.4 C 563.2 80.4 563.21 52.17 563.2 52.2 C 563.2 49.9 562.6 48.2 561.3 46.9 C 560 45.5 558.4 44.9 556.3 44.9 C 554.9 44.9 553.7 45.2 552.6 45.9 C 551.4 46.6 550.6 47.6 549.9 48.9 C 549.3 50.1 548.9 51.6 548.9 53.2 C 548.94 53.23 548.9 80.4 548.9 80.4 L 536.4 80.4 Z M 639.9 61.1 C 639.91 61.13 639.9 35.1 639.9 35.1 L 652.5 35.1 L 652.5 80.4 L 640.4 80.4 L 640.4 72.2 C 640.4 72.2 639.94 72.18 639.9 72.2 C 638.9 74.8 637.2 77 634.9 78.6 C 632.5 80.2 629.6 81 626.2 81 C 623.2 81 620.5 80.3 618.2 78.9 C 615.9 77.6 614.1 75.6 612.8 73.1 C 611.6 70.5 610.9 67.5 610.9 64 C 610.88 63.96 610.9 35.1 610.9 35.1 L 623.4 35.1 C 623.4 35.1 623.44 61.72 623.4 61.7 C 623.5 64.4 624.2 66.5 625.6 68.1 C 627 69.6 628.9 70.4 631.3 70.4 C 632.8 70.4 634.2 70 635.5 69.3 C 636.8 68.6 637.9 67.6 638.7 66.2 C 639.5 64.9 639.9 63.2 639.9 61.1 Z M 681.8 81.3 C 677.1 81.3 673.1 80.3 669.8 78.3 C 666.5 76.4 663.9 73.6 662.2 70.1 C 660.4 66.6 659.5 62.5 659.5 57.9 C 659.5 53.3 660.4 49.2 662.2 45.7 C 664 42.2 666.5 39.5 669.9 37.5 C 673.2 35.5 677.1 34.5 681.7 34.5 C 685.7 34.5 689.1 35.3 692.1 36.7 C 695 38.1 697.4 40.1 699.1 42.7 C 700.9 45.3 701.8 48.4 702 51.9 C 702 51.9 690.1 51.9 690.1 51.9 C 689.8 49.6 688.9 47.8 687.5 46.4 C 686.1 45 684.2 44.3 681.9 44.3 C 680 44.3 678.3 44.9 676.8 45.9 C 675.4 47 674.3 48.5 673.5 50.5 C 672.6 52.5 672.2 54.9 672.2 57.8 C 672.2 60.7 672.6 63.1 673.4 65.1 C 674.2 67.2 675.4 68.7 676.8 69.8 C 678.3 70.8 680 71.4 681.9 71.4 C 683.3 71.4 684.6 71.1 685.8 70.5 C 686.9 69.9 687.9 69 688.6 67.9 C 689.4 66.8 689.9 65.4 690.1 63.8 C 690.1 63.8 702 63.8 702 63.8 C 701.8 67.3 700.9 70.3 699.2 72.9 C 697.5 75.6 695.2 77.6 692.2 79.1 C 689.3 80.6 685.8 81.3 681.8 81.3 Z M 721.5 54.2 C 721.51 54.23 721.5 80.4 721.5 80.4 L 708.9 80.4 L 708.9 20 L 721.2 20 L 721.2 43.1 C 721.2 43.1 721.68 43.12 721.7 43.1 C 722.7 40.4 724.4 38.4 726.6 36.8 C 728.9 35.3 731.8 34.5 735.2 34.5 C 738.4 34.5 741.1 35.2 743.4 36.6 C 745.8 38 747.6 39.9 748.9 42.5 C 750.2 45 750.9 48 750.9 51.6 C 750.86 51.58 750.9 80.4 750.9 80.4 L 738.3 80.4 C 738.3 80.4 738.31 53.82 738.3 53.8 C 738.3 51 737.6 48.9 736.2 47.3 C 734.8 45.8 732.8 45 730.2 45 C 728.5 45 727 45.3 725.7 46.1 C 724.4 46.8 723.4 47.9 722.6 49.2 C 721.9 50.6 721.5 52.3 721.5 54.2 Z " stroke="none" fill="#10283d"/>  </g></svg>