<?xml version="1.0" standalone="no"?><!DOCTYPE svg PUBLIC "-//W3C//DTD SVG 1.1//EN" "http://www.w3.org/Graphics/SVG/1.1/DTD/svg11.dtd"><svg xmlns="http://www.w3.org/2000/svg" version="1.1" width="98px" height="35.7px" viewBox="0 -8 98 35.7" style="top:-8px">  <desc>Continue</desc>  <defs/>  <g id="Polygon110260">    <path d="M 13.5 4.9 C 13.5 4.9 10.5 4.9 10.5 4.9 C 10.5 4.5 10.4 4.2 10.2 3.9 C 10 3.6 9.8 3.3 9.6 3.1 C 9.3 2.9 9 2.7 8.7 2.6 C 8.3 2.5 7.9 2.4 7.5 2.4 C 6.8 2.4 6.2 2.6 5.7 3 C 5.1 3.3 4.7 3.8 4.4 4.5 C 4.1 5.2 4 6 4 7 C 4 8 4.1 8.8 4.4 9.5 C 4.7 10.2 5.1 10.7 5.7 11 C 6.2 11.4 6.8 11.5 7.5 11.5 C 7.9 11.5 8.3 11.5 8.6 11.4 C 9 11.3 9.3 11.1 9.5 10.9 C 9.8 10.7 10 10.5 10.2 10.2 C 10.4 9.9 10.5 9.6 10.5 9.2 C 10.5 9.2 13.5 9.2 13.5 9.2 C 13.5 9.8 13.3 10.5 13 11.1 C 12.7 11.6 12.2 12.2 11.7 12.6 C 11.2 13.1 10.6 13.5 9.9 13.7 C 9.2 14 8.4 14.2 7.5 14.2 C 6.2 14.2 5.1 13.9 4.1 13.3 C 3.2 12.7 2.4 11.9 1.8 10.9 C 1.3 9.8 1 8.5 1 7 C 1 5.5 1.3 4.2 1.8 3.1 C 2.4 2 3.2 1.2 4.2 0.7 C 5.1 0.1 6.2 -0.2 7.5 -0.2 C 8.3 -0.2 9 -0.1 9.7 0.1 C 10.4 0.4 11 0.7 11.6 1.1 C 12.1 1.6 12.5 2.1 12.9 2.7 C 13.2 3.4 13.4 4.1 13.5 4.9 Z M 20.2 14.2 C 19.2 14.2 18.3 13.9 17.5 13.5 C 16.7 13 16.1 12.4 15.7 11.6 C 15.3 10.8 15.1 9.8 15.1 8.8 C 15.1 7.7 15.3 6.7 15.7 5.9 C 16.1 5.1 16.7 4.5 17.5 4 C 18.3 3.6 19.2 3.4 20.2 3.4 C 21.3 3.4 22.2 3.6 23 4 C 23.7 4.5 24.3 5.1 24.8 5.9 C 25.2 6.7 25.4 7.7 25.4 8.8 C 25.4 9.8 25.2 10.8 24.8 11.6 C 24.3 12.4 23.7 13 23 13.5 C 22.2 13.9 21.3 14.2 20.2 14.2 Z M 20.2 11.9 C 20.7 11.9 21.1 11.8 21.5 11.5 C 21.8 11.2 22 10.9 22.2 10.4 C 22.3 9.9 22.4 9.4 22.4 8.7 C 22.4 8.1 22.3 7.6 22.2 7.1 C 22 6.6 21.8 6.3 21.5 6 C 21.1 5.7 20.7 5.6 20.2 5.6 C 19.8 5.6 19.3 5.7 19 6 C 18.7 6.3 18.4 6.6 18.3 7.1 C 18.1 7.6 18 8.1 18 8.7 C 18 9.4 18.1 9.9 18.3 10.4 C 18.4 10.9 18.7 11.2 19 11.5 C 19.3 11.8 19.8 11.9 20.2 11.9 Z M 30.1 7.9 C 30.13 7.91 30.1 14 30.1 14 L 27.2 14 L 27.2 3.5 L 30 3.5 L 30 5.3 C 30 5.3 30.12 5.34 30.1 5.3 C 30.4 4.7 30.7 4.2 31.3 3.9 C 31.8 3.5 32.5 3.4 33.3 3.4 C 34 3.4 34.6 3.5 35.2 3.8 C 35.7 4.2 36.1 4.6 36.4 5.2 C 36.7 5.8 36.9 6.5 36.9 7.3 C 36.88 7.3 36.9 14 36.9 14 L 34 14 C 34 14 33.98 7.81 34 7.8 C 34 7.2 33.8 6.7 33.5 6.3 C 33.2 5.9 32.7 5.8 32.1 5.8 C 31.7 5.8 31.4 5.9 31.1 6 C 30.8 6.2 30.6 6.4 30.4 6.8 C 30.2 7.1 30.1 7.5 30.1 7.9 Z M 44.5 3.5 L 44.5 5.7 L 38.2 5.7 L 38.2 3.5 L 44.5 3.5 Z M 39.6 1 L 42.5 1 C 42.5 1 42.52 10.75 42.5 10.7 C 42.5 11 42.6 11.2 42.6 11.4 C 42.7 11.5 42.8 11.6 43 11.7 C 43.1 11.7 43.3 11.8 43.5 11.8 C 43.6 11.8 43.8 11.8 43.9 11.7 C 44 11.7 44.2 11.7 44.2 11.7 C 44.2 11.7 44.7 13.8 44.7 13.8 C 44.5 13.9 44.3 13.9 44.1 14 C 43.8 14.1 43.5 14.1 43.1 14.1 C 42.4 14.1 41.8 14 41.3 13.8 C 40.7 13.6 40.3 13.3 40 12.8 C 39.8 12.4 39.6 11.8 39.6 11.1 C 39.61 11.13 39.6 1 39.6 1 Z M 46.3 14 L 46.3 3.5 L 49.2 3.5 L 49.2 14 L 46.3 14 Z M 47.8 2.1 C 47.3 2.1 47 2 46.6 1.7 C 46.3 1.4 46.2 1.1 46.2 0.7 C 46.2 0.3 46.3 -0.1 46.6 -0.4 C 47 -0.7 47.3 -0.8 47.8 -0.8 C 48.2 -0.8 48.6 -0.7 48.9 -0.4 C 49.2 -0.1 49.3 0.3 49.3 0.7 C 49.3 1.1 49.2 1.4 48.9 1.7 C 48.6 2 48.2 2.1 47.8 2.1 Z M 54.4 7.9 C 54.44 7.91 54.4 14 54.4 14 L 51.5 14 L 51.5 3.5 L 54.3 3.5 L 54.3 5.3 C 54.3 5.3 54.43 5.34 54.4 5.3 C 54.7 4.7 55 4.2 55.6 3.9 C 56.1 3.5 56.8 3.4 57.6 3.4 C 58.3 3.4 58.9 3.5 59.5 3.8 C 60 4.2 60.4 4.6 60.7 5.2 C 61 5.8 61.2 6.5 61.2 7.3 C 61.19 7.3 61.2 14 61.2 14 L 58.3 14 C 58.3 14 58.29 7.81 58.3 7.8 C 58.3 7.2 58.1 6.7 57.8 6.3 C 57.5 5.9 57 5.8 56.4 5.8 C 56 5.8 55.7 5.9 55.4 6 C 55.1 6.2 54.9 6.4 54.7 6.8 C 54.5 7.1 54.4 7.5 54.4 7.9 Z M 70.1 9.5 C 70.13 9.5 70.1 3.5 70.1 3.5 L 73 3.5 L 73 14 L 70.2 14 L 70.2 12.1 C 70.2 12.1 70.13 12.06 70.1 12.1 C 69.9 12.7 69.5 13.2 69 13.5 C 68.4 13.9 67.7 14.1 67 14.1 C 66.3 14.1 65.6 13.9 65.1 13.6 C 64.6 13.3 64.2 12.9 63.9 12.3 C 63.6 11.7 63.4 11 63.4 10.2 C 63.41 10.16 63.4 3.5 63.4 3.5 L 66.3 3.5 C 66.3 3.5 66.32 9.64 66.3 9.6 C 66.3 10.3 66.5 10.7 66.8 11.1 C 67.1 11.5 67.6 11.6 68.1 11.6 C 68.5 11.6 68.8 11.6 69.1 11.4 C 69.4 11.2 69.7 11 69.9 10.7 C 70 10.4 70.1 10 70.1 9.5 Z M 80.1 14.2 C 79 14.2 78.1 13.9 77.3 13.5 C 76.5 13.1 76 12.4 75.5 11.6 C 75.1 10.8 74.9 9.9 74.9 8.8 C 74.9 7.7 75.1 6.8 75.5 5.9 C 76 5.1 76.5 4.5 77.3 4 C 78.1 3.6 79 3.4 80 3.4 C 80.7 3.4 81.3 3.5 81.9 3.7 C 82.5 3.9 83 4.2 83.5 4.7 C 83.9 5.1 84.3 5.7 84.5 6.3 C 84.8 7 84.9 7.8 84.9 8.7 C 84.91 8.67 84.9 9.5 84.9 9.5 L 76.1 9.5 L 76.1 7.7 C 76.1 7.7 82.17 7.67 82.2 7.7 C 82.2 7.3 82.1 6.9 81.9 6.6 C 81.7 6.2 81.5 6 81.1 5.8 C 80.8 5.6 80.5 5.5 80 5.5 C 79.6 5.5 79.2 5.6 78.9 5.8 C 78.5 6 78.3 6.3 78.1 6.6 C 77.9 7 77.8 7.4 77.8 7.8 C 77.8 7.8 77.8 9.5 77.8 9.5 C 77.8 10 77.9 10.4 78.1 10.8 C 78.3 11.2 78.5 11.5 78.9 11.7 C 79.2 11.9 79.7 12 80.1 12 C 80.5 12 80.8 12 81 11.9 C 81.3 11.8 81.5 11.6 81.7 11.5 C 81.9 11.3 82.1 11.1 82.2 10.8 C 82.2 10.8 84.8 11 84.8 11 C 84.7 11.6 84.4 12.2 84 12.7 C 83.6 13.1 83.1 13.5 82.4 13.8 C 81.7 14 81 14.2 80.1 14.2 Z " stroke="none" fill="#ffffff"/>  </g></svg>