<?xml version="1.0" standalone="no"?><!DOCTYPE svg PUBLIC "-//W3C//DTD SVG 1.1//EN" "http://www.w3.org/Graphics/SVG/1.1/DTD/svg11.dtd"><svg xmlns="http://www.w3.org/2000/svg" version="1.1" width="225px" height="163.6px" viewBox="0 -10 225 163.6" style="top:-10px">  <desc>Incomplete data access ￼ Without access to all available data, AI driven insights can’t be trusted. More about this ￼</desc>  <defs/>  <g id="Polygon115415">    <path d="M 0.9 128.5 L 3.8 128.5 L 6.8 135.8 L 6.9 135.8 L 9.9 128.5 L 12.8 128.5 L 12.8 139.4 L 10.5 139.4 L 10.5 132.3 L 10.4 132.3 L 7.6 139.3 L 6.1 139.3 L 3.3 132.3 L 3.2 132.3 L 3.2 139.4 L 0.9 139.4 L 0.9 128.5 Z M 18.4 139.5 C 17.5 139.5 16.8 139.4 16.2 139 C 15.6 138.7 15.1 138.2 14.8 137.5 C 14.5 136.9 14.3 136.2 14.3 135.3 C 14.3 134.5 14.5 133.7 14.8 133.1 C 15.1 132.5 15.6 132 16.2 131.6 C 16.8 131.3 17.5 131.1 18.4 131.1 C 19.2 131.1 19.9 131.3 20.5 131.6 C 21.1 132 21.6 132.5 21.9 133.1 C 22.2 133.7 22.4 134.5 22.4 135.3 C 22.4 136.2 22.2 136.9 21.9 137.5 C 21.6 138.2 21.1 138.7 20.5 139 C 19.9 139.4 19.2 139.5 18.4 139.5 Z M 18.4 137.8 C 18.7 137.8 19.1 137.7 19.3 137.5 C 19.6 137.2 19.8 137 19.9 136.6 C 20 136.2 20.1 135.8 20.1 135.3 C 20.1 134.8 20 134.4 19.9 134 C 19.8 133.7 19.6 133.4 19.3 133.1 C 19.1 132.9 18.7 132.8 18.4 132.8 C 18 132.8 17.7 132.9 17.4 133.1 C 17.2 133.4 17 133.7 16.8 134 C 16.7 134.4 16.6 134.8 16.6 135.3 C 16.6 135.8 16.7 136.2 16.8 136.6 C 17 137 17.2 137.2 17.4 137.5 C 17.7 137.7 18 137.8 18.4 137.8 Z M 23.9 139.4 L 23.9 131.2 L 26.1 131.2 L 26.1 132.6 C 26.1 132.6 26.15 132.63 26.1 132.6 C 26.3 132.1 26.5 131.7 26.9 131.5 C 27.3 131.2 27.7 131.1 28.1 131.1 C 28.2 131.1 28.3 131.1 28.5 131.1 C 28.6 131.1 28.7 131.1 28.8 131.2 C 28.8 131.2 28.8 133.2 28.8 133.2 C 28.7 133.1 28.6 133.1 28.4 133.1 C 28.2 133.1 28 133.1 27.9 133.1 C 27.5 133.1 27.2 133.1 27 133.3 C 26.7 133.4 26.5 133.6 26.4 133.9 C 26.2 134.1 26.1 134.4 26.1 134.8 C 26.13 134.75 26.1 139.4 26.1 139.4 L 23.9 139.4 Z M 33.6 139.5 C 32.7 139.5 32 139.4 31.4 139 C 30.8 138.7 30.3 138.2 30 137.6 C 29.7 136.9 29.5 136.2 29.5 135.3 C 29.5 134.5 29.7 133.7 30 133.1 C 30.3 132.5 30.8 132 31.4 131.6 C 32 131.3 32.7 131.1 33.5 131.1 C 34 131.1 34.5 131.2 35 131.4 C 35.4 131.5 35.8 131.8 36.2 132.1 C 36.5 132.5 36.8 132.9 37 133.4 C 37.2 133.9 37.3 134.6 37.3 135.2 C 37.31 135.25 37.3 135.9 37.3 135.9 L 30.4 135.9 L 30.4 134.5 C 30.4 134.5 35.17 134.47 35.2 134.5 C 35.2 134.1 35.1 133.8 35 133.6 C 34.8 133.3 34.6 133.1 34.4 133 C 34.1 132.9 33.8 132.8 33.5 132.8 C 33.2 132.8 32.8 132.9 32.6 133 C 32.3 133.2 32.1 133.4 32 133.7 C 31.8 133.9 31.7 134.2 31.7 134.5 C 31.7 134.5 31.7 135.9 31.7 135.9 C 31.7 136.3 31.8 136.6 32 136.9 C 32.1 137.2 32.3 137.4 32.6 137.6 C 32.9 137.8 33.2 137.8 33.6 137.8 C 33.8 137.8 34.1 137.8 34.3 137.7 C 34.5 137.7 34.7 137.6 34.8 137.4 C 35 137.3 35.1 137.1 35.2 136.9 C 35.2 136.9 37.3 137 37.3 137 C 37.2 137.5 36.9 138 36.6 138.4 C 36.3 138.7 35.9 139 35.3 139.2 C 34.8 139.4 34.2 139.5 33.6 139.5 Z M 44.6 139.5 C 44.1 139.5 43.6 139.4 43.2 139.3 C 42.8 139.1 42.5 138.8 42.2 138.4 C 42 138.1 41.9 137.6 41.9 137.1 C 41.9 136.6 42 136.3 42.1 136 C 42.3 135.6 42.5 135.4 42.8 135.2 C 43.1 135 43.4 134.9 43.8 134.8 C 44.2 134.7 44.6 134.6 45 134.6 C 45.4 134.5 45.8 134.5 46.1 134.4 C 46.4 134.4 46.6 134.3 46.7 134.2 C 46.9 134.1 46.9 134 46.9 133.8 C 46.9 133.8 46.9 133.8 46.9 133.8 C 46.9 133.5 46.8 133.2 46.6 133 C 46.4 132.8 46.1 132.8 45.7 132.8 C 45.3 132.8 45 132.8 44.7 133 C 44.5 133.2 44.3 133.4 44.3 133.7 C 44.3 133.7 42.2 133.5 42.2 133.5 C 42.3 133 42.5 132.6 42.8 132.2 C 43.1 131.9 43.5 131.6 44 131.4 C 44.5 131.2 45.1 131.1 45.7 131.1 C 46.2 131.1 46.6 131.1 47 131.3 C 47.5 131.4 47.8 131.5 48.2 131.7 C 48.5 132 48.7 132.3 48.9 132.6 C 49.1 133 49.2 133.4 49.2 133.9 C 49.21 133.86 49.2 139.4 49.2 139.4 L 47.1 139.4 L 47.1 138.2 C 47.1 138.2 46.99 138.25 47 138.2 C 46.9 138.5 46.7 138.7 46.5 138.9 C 46.2 139.1 46 139.3 45.7 139.4 C 45.4 139.5 45 139.5 44.6 139.5 Z M 45.2 138 C 45.6 138 45.9 137.9 46.1 137.8 C 46.4 137.6 46.6 137.5 46.7 137.2 C 46.9 137 47 136.7 47 136.5 C 47 136.5 47 135.6 47 135.6 C 46.9 135.6 46.8 135.7 46.7 135.7 C 46.5 135.8 46.4 135.8 46.3 135.8 C 46.1 135.8 45.9 135.9 45.8 135.9 C 45.6 135.9 45.5 135.9 45.4 136 C 45.1 136 44.9 136.1 44.7 136.1 C 44.5 136.2 44.3 136.3 44.2 136.5 C 44.1 136.6 44.1 136.8 44.1 137 C 44.1 137.3 44.2 137.6 44.4 137.7 C 44.6 137.9 44.9 138 45.2 138 Z M 50.9 139.4 L 50.9 128.5 L 53.2 128.5 L 53.2 132.6 C 53.2 132.6 53.25 132.57 53.3 132.6 C 53.3 132.4 53.5 132.1 53.7 131.9 C 53.9 131.7 54.1 131.5 54.4 131.3 C 54.7 131.2 55.1 131.1 55.6 131.1 C 56.2 131.1 56.7 131.2 57.2 131.6 C 57.7 131.9 58.1 132.3 58.4 133 C 58.7 133.6 58.9 134.4 58.9 135.3 C 58.9 136.2 58.7 137 58.5 137.6 C 58.2 138.2 57.8 138.7 57.3 139 C 56.8 139.4 56.2 139.5 55.6 139.5 C 55.1 139.5 54.8 139.4 54.5 139.3 C 54.1 139.2 53.9 139 53.7 138.7 C 53.5 138.5 53.4 138.3 53.3 138.1 C 53.25 138.07 53.1 138.1 53.1 138.1 L 53.1 139.4 L 50.9 139.4 Z M 53.1 135.3 C 53.1 135.8 53.2 136.2 53.3 136.6 C 53.5 136.9 53.7 137.2 53.9 137.4 C 54.2 137.6 54.5 137.7 54.9 137.7 C 55.2 137.7 55.5 137.6 55.8 137.4 C 56 137.2 56.2 136.9 56.4 136.6 C 56.5 136.2 56.6 135.8 56.6 135.3 C 56.6 134.8 56.5 134.4 56.4 134 C 56.2 133.7 56.1 133.4 55.8 133.2 C 55.5 133 55.2 132.9 54.9 132.9 C 54.5 132.9 54.2 133 53.9 133.2 C 53.7 133.4 53.5 133.7 53.3 134 C 53.2 134.4 53.1 134.8 53.1 135.3 Z M 64.1 139.5 C 63.2 139.5 62.5 139.4 61.9 139 C 61.3 138.7 60.9 138.2 60.5 137.5 C 60.2 136.9 60.1 136.2 60.1 135.3 C 60.1 134.5 60.2 133.7 60.5 133.1 C 60.9 132.5 61.3 132 61.9 131.6 C 62.5 131.3 63.2 131.1 64.1 131.1 C 64.9 131.1 65.6 131.3 66.2 131.6 C 66.8 132 67.3 132.5 67.6 133.1 C 67.9 133.7 68.1 134.5 68.1 135.3 C 68.1 136.2 67.9 136.9 67.6 137.5 C 67.3 138.2 66.8 138.7 66.2 139 C 65.6 139.4 64.9 139.5 64.1 139.5 Z M 64.1 137.8 C 64.5 137.8 64.8 137.7 65 137.5 C 65.3 137.2 65.5 137 65.6 136.6 C 65.7 136.2 65.8 135.8 65.8 135.3 C 65.8 134.8 65.7 134.4 65.6 134 C 65.5 133.7 65.3 133.4 65 133.1 C 64.8 132.9 64.5 132.8 64.1 132.8 C 63.7 132.8 63.4 132.9 63.1 133.1 C 62.9 133.4 62.7 133.7 62.6 134 C 62.4 134.4 62.4 134.8 62.4 135.3 C 62.4 135.8 62.4 136.2 62.6 136.6 C 62.7 137 62.9 137.2 63.1 137.5 C 63.4 137.7 63.7 137.8 64.1 137.8 Z M 74.8 135.9 C 74.78 135.9 74.8 131.2 74.8 131.2 L 77 131.2 L 77 139.4 L 74.9 139.4 L 74.9 137.9 C 74.9 137.9 74.79 137.9 74.8 137.9 C 74.6 138.4 74.3 138.8 73.9 139.1 C 73.4 139.3 72.9 139.5 72.3 139.5 C 71.8 139.5 71.3 139.4 70.9 139.1 C 70.4 138.9 70.1 138.5 69.9 138.1 C 69.7 137.6 69.5 137 69.5 136.4 C 69.53 136.41 69.5 131.2 69.5 131.2 L 71.8 131.2 C 71.8 131.2 71.8 136 71.8 136 C 71.8 136.5 71.9 136.9 72.2 137.1 C 72.4 137.4 72.8 137.6 73.2 137.6 C 73.5 137.6 73.7 137.5 74 137.4 C 74.2 137.3 74.4 137.1 74.6 136.8 C 74.7 136.6 74.8 136.3 74.8 135.9 Z M 83.2 131.2 L 83.2 132.9 L 78.2 132.9 L 78.2 131.2 L 83.2 131.2 Z M 79.3 129.2 L 81.6 129.2 C 81.6 129.2 81.62 136.87 81.6 136.9 C 81.6 137.1 81.6 137.2 81.7 137.4 C 81.8 137.5 81.9 137.6 82 137.6 C 82.1 137.6 82.2 137.7 82.4 137.7 C 82.5 137.7 82.6 137.7 82.7 137.6 C 82.8 137.6 82.9 137.6 82.9 137.6 C 82.9 137.6 83.3 139.3 83.3 139.3 C 83.2 139.3 83 139.4 82.8 139.4 C 82.6 139.5 82.4 139.5 82.1 139.5 C 81.5 139.5 81 139.4 80.6 139.3 C 80.2 139.1 79.9 138.8 79.7 138.5 C 79.5 138.1 79.3 137.7 79.3 137.2 C 79.35 137.17 79.3 129.2 79.3 129.2 Z M 92.5 131.2 L 92.5 132.9 L 87.5 132.9 L 87.5 131.2 L 92.5 131.2 Z M 88.7 129.2 L 90.9 129.2 C 90.9 129.2 90.92 136.87 90.9 136.9 C 90.9 137.1 91 137.2 91 137.4 C 91.1 137.5 91.2 137.6 91.3 137.6 C 91.4 137.6 91.5 137.7 91.7 137.7 C 91.8 137.7 91.9 137.7 92 137.6 C 92.1 137.6 92.2 137.6 92.3 137.6 C 92.3 137.6 92.6 139.3 92.6 139.3 C 92.5 139.3 92.3 139.4 92.1 139.4 C 91.9 139.5 91.7 139.5 91.4 139.5 C 90.8 139.5 90.4 139.4 89.9 139.3 C 89.5 139.1 89.2 138.8 89 138.5 C 88.8 138.1 88.6 137.7 88.7 137.2 C 88.65 137.17 88.7 129.2 88.7 129.2 Z M 96.1 134.7 C 96.08 134.65 96.1 139.4 96.1 139.4 L 93.8 139.4 L 93.8 128.5 L 96 128.5 L 96 132.6 C 96 132.6 96.11 132.64 96.1 132.6 C 96.3 132.2 96.6 131.8 97 131.5 C 97.4 131.2 97.9 131.1 98.6 131.1 C 99.1 131.1 99.6 131.2 100 131.5 C 100.5 131.7 100.8 132.1 101 132.5 C 101.3 133 101.4 133.5 101.4 134.2 C 101.39 134.17 101.4 139.4 101.4 139.4 L 99.1 139.4 C 99.1 139.4 99.12 134.58 99.1 134.6 C 99.1 134.1 99 133.7 98.7 133.4 C 98.5 133.1 98.1 133 97.7 133 C 97.4 133 97.1 133 96.8 133.2 C 96.6 133.3 96.4 133.5 96.3 133.7 C 96.2 134 96.1 134.3 96.1 134.7 Z M 103.1 139.4 L 103.1 131.2 L 105.4 131.2 L 105.4 139.4 L 103.1 139.4 Z M 104.3 130.1 C 103.9 130.1 103.7 130 103.4 129.8 C 103.2 129.6 103.1 129.3 103.1 129 C 103.1 128.7 103.2 128.4 103.4 128.2 C 103.7 128 103.9 127.8 104.3 127.8 C 104.6 127.8 104.9 128 105.1 128.2 C 105.4 128.4 105.5 128.7 105.5 129 C 105.5 129.3 105.4 129.6 105.1 129.8 C 104.9 130 104.6 130.1 104.3 130.1 Z M 113.9 133.5 C 113.9 133.5 111.9 133.7 111.9 133.7 C 111.8 133.5 111.8 133.3 111.6 133.2 C 111.5 133 111.4 132.9 111.2 132.8 C 111 132.7 110.8 132.7 110.5 132.7 C 110.1 132.7 109.9 132.8 109.6 132.9 C 109.4 133.1 109.2 133.3 109.2 133.5 C 109.2 133.7 109.3 133.9 109.5 134 C 109.6 134.1 109.9 134.3 110.3 134.3 C 110.3 134.3 111.8 134.6 111.8 134.6 C 112.6 134.8 113.2 135.1 113.5 135.4 C 113.9 135.8 114.1 136.3 114.1 136.8 C 114.1 137.4 114 137.9 113.7 138.3 C 113.3 138.7 112.9 139 112.4 139.2 C 111.8 139.4 111.2 139.5 110.5 139.5 C 109.4 139.5 108.5 139.3 107.9 138.9 C 107.3 138.4 106.9 137.8 106.8 137 C 106.8 137 109 136.9 109 136.9 C 109.1 137.2 109.2 137.5 109.5 137.6 C 109.8 137.8 110.1 137.9 110.5 137.9 C 110.9 137.9 111.2 137.8 111.5 137.7 C 111.7 137.5 111.8 137.3 111.8 137.1 C 111.8 136.9 111.7 136.7 111.6 136.6 C 111.4 136.4 111.1 136.3 110.8 136.3 C 110.8 136.3 109.4 136 109.4 136 C 108.6 135.8 108 135.5 107.6 135.1 C 107.2 134.8 107 134.3 107 133.6 C 107 133.1 107.1 132.7 107.4 132.3 C 107.7 131.9 108.1 131.6 108.6 131.4 C 109.2 131.2 109.8 131.1 110.5 131.1 C 111.5 131.1 112.3 131.3 112.9 131.7 C 113.5 132.2 113.8 132.8 113.9 133.5 Z " stroke="none" fill="#10283d"/>  </g>  <g id="Polygon115414">    <path d="M 1.2 111.8 L 1.2 103.6 L 2.4 103.6 L 2.4 111.8 L 1.2 111.8 Z M 1.8 102.2 C 1.5 102.2 1.3 102.2 1.2 102 C 1 101.8 0.9 101.6 0.9 101.4 C 0.9 101.1 1 100.9 1.2 100.8 C 1.3 100.6 1.5 100.5 1.8 100.5 C 2 100.5 2.2 100.6 2.4 100.8 C 2.6 100.9 2.7 101.1 2.7 101.4 C 2.7 101.6 2.6 101.8 2.4 102 C 2.2 102.2 2 102.2 1.8 102.2 Z M 6 106.9 C 5.97 106.86 6 111.8 6 111.8 L 4.7 111.8 L 4.7 103.6 L 5.9 103.6 L 5.9 104.9 C 5.9 104.9 6.04 104.88 6 104.9 C 6.2 104.5 6.5 104.1 6.9 103.9 C 7.3 103.6 7.8 103.5 8.4 103.5 C 9 103.5 9.5 103.6 9.9 103.8 C 10.3 104.1 10.6 104.4 10.8 104.9 C 11.1 105.3 11.2 105.9 11.2 106.6 C 11.2 106.58 11.2 111.8 11.2 111.8 L 9.9 111.8 C 9.9 111.8 9.94 106.67 9.9 106.7 C 9.9 106 9.8 105.5 9.4 105.2 C 9.1 104.8 8.6 104.6 8.1 104.6 C 7.7 104.6 7.3 104.7 7 104.9 C 6.7 105.1 6.4 105.3 6.2 105.6 C 6.1 106 6 106.4 6 106.9 Z M 19.2 105.4 C 19.2 105.4 18 105.8 18 105.8 C 18 105.6 17.9 105.4 17.7 105.2 C 17.6 105 17.4 104.9 17.2 104.8 C 16.9 104.6 16.6 104.6 16.3 104.6 C 15.8 104.6 15.4 104.7 15 104.9 C 14.7 105.2 14.5 105.4 14.5 105.8 C 14.5 106.1 14.6 106.4 14.9 106.5 C 15.1 106.7 15.4 106.9 15.9 107 C 15.9 107 17.1 107.3 17.1 107.3 C 17.9 107.5 18.4 107.7 18.8 108.1 C 19.1 108.5 19.3 108.9 19.3 109.5 C 19.3 110 19.2 110.4 18.9 110.8 C 18.7 111.1 18.3 111.4 17.8 111.6 C 17.3 111.8 16.8 112 16.1 112 C 15.3 112 14.6 111.8 14.1 111.4 C 13.5 111 13.2 110.5 13 109.8 C 13 109.8 14.2 109.5 14.2 109.5 C 14.3 110 14.5 110.3 14.9 110.5 C 15.2 110.7 15.6 110.8 16.1 110.8 C 16.7 110.8 17.2 110.7 17.5 110.5 C 17.8 110.2 18 109.9 18 109.6 C 18 109.3 17.9 109 17.7 108.8 C 17.5 108.7 17.2 108.5 16.8 108.4 C 16.8 108.4 15.4 108.1 15.4 108.1 C 14.7 107.9 14.1 107.6 13.8 107.3 C 13.4 106.9 13.3 106.4 13.3 105.9 C 13.3 105.4 13.4 105 13.7 104.6 C 13.9 104.3 14.3 104 14.7 103.8 C 15.2 103.6 15.7 103.5 16.3 103.5 C 17.1 103.5 17.7 103.7 18.2 104 C 18.6 104.4 19 104.9 19.2 105.4 Z M 21.2 111.8 L 21.2 103.6 L 22.4 103.6 L 22.4 111.8 L 21.2 111.8 Z M 21.8 102.2 C 21.5 102.2 21.3 102.2 21.2 102 C 21 101.8 20.9 101.6 20.9 101.4 C 20.9 101.1 21 100.9 21.2 100.8 C 21.3 100.6 21.5 100.5 21.8 100.5 C 22 100.5 22.2 100.6 22.4 100.8 C 22.6 100.9 22.7 101.1 22.7 101.4 C 22.7 101.6 22.6 101.8 22.4 102 C 22.2 102.2 22 102.2 21.8 102.2 Z M 28 115 C 27.4 115 26.8 114.9 26.4 114.8 C 26 114.6 25.6 114.4 25.3 114.2 C 25 113.9 24.8 113.7 24.6 113.4 C 24.6 113.4 25.6 112.7 25.6 112.7 C 25.7 112.8 25.9 113 26.1 113.2 C 26.2 113.4 26.5 113.6 26.8 113.7 C 27.1 113.8 27.5 113.9 28 113.9 C 28.6 113.9 29.2 113.8 29.6 113.4 C 30 113.1 30.3 112.6 30.3 111.9 C 30.25 111.93 30.3 110.3 30.3 110.3 C 30.3 110.3 30.15 110.27 30.1 110.3 C 30.1 110.4 29.9 110.6 29.8 110.8 C 29.6 111 29.3 111.2 29 111.4 C 28.7 111.6 28.3 111.7 27.8 111.7 C 27.1 111.7 26.5 111.5 26 111.2 C 25.5 110.9 25 110.4 24.7 109.8 C 24.4 109.2 24.3 108.5 24.3 107.6 C 24.3 106.8 24.4 106.1 24.7 105.5 C 25 104.8 25.4 104.4 26 104 C 26.5 103.7 27.1 103.5 27.8 103.5 C 28.3 103.5 28.7 103.6 29.1 103.8 C 29.4 103.9 29.6 104.1 29.8 104.4 C 29.9 104.6 30.1 104.8 30.2 104.9 C 30.17 104.9 30.3 104.9 30.3 104.9 L 30.3 103.6 L 31.5 103.6 C 31.5 103.6 31.51 112.02 31.5 112 C 31.5 112.7 31.4 113.3 31 113.7 C 30.7 114.2 30.3 114.5 29.8 114.7 C 29.2 114.9 28.6 115 28 115 Z M 27.9 110.5 C 28.4 110.5 28.9 110.4 29.2 110.2 C 29.6 109.9 29.8 109.6 30 109.2 C 30.2 108.7 30.3 108.2 30.3 107.6 C 30.3 107 30.2 106.5 30 106.1 C 29.8 105.6 29.6 105.3 29.2 105 C 28.9 104.8 28.4 104.6 27.9 104.6 C 27.4 104.6 27 104.8 26.6 105 C 26.2 105.3 26 105.7 25.8 106.1 C 25.6 106.6 25.5 107.1 25.5 107.6 C 25.5 108.2 25.6 108.7 25.8 109.1 C 26 109.6 26.3 109.9 26.6 110.2 C 27 110.4 27.4 110.5 27.9 110.5 Z M 35.1 106.9 C 35.07 106.86 35.1 111.8 35.1 111.8 L 33.8 111.8 L 33.8 100.9 L 35.1 100.9 L 35.1 104.9 C 35.1 104.9 35.18 104.88 35.2 104.9 C 35.4 104.5 35.7 104.1 36 103.9 C 36.4 103.6 36.9 103.5 37.6 103.5 C 38.1 103.5 38.6 103.6 39 103.8 C 39.5 104 39.8 104.4 40 104.8 C 40.3 105.3 40.4 105.9 40.4 106.6 C 40.37 106.58 40.4 111.8 40.4 111.8 L 39.1 111.8 C 39.1 111.8 39.12 106.67 39.1 106.7 C 39.1 106 38.9 105.5 38.6 105.2 C 38.3 104.8 37.8 104.6 37.2 104.6 C 36.8 104.6 36.4 104.7 36.1 104.9 C 35.8 105.1 35.5 105.3 35.3 105.6 C 35.2 106 35.1 106.4 35.1 106.9 Z M 46 103.6 L 46 104.7 L 41.8 104.7 L 41.8 103.6 L 46 103.6 Z M 43 101.6 L 44.3 101.6 C 44.3 101.6 44.26 109.44 44.3 109.4 C 44.3 109.8 44.3 110.1 44.4 110.2 C 44.5 110.4 44.7 110.5 44.8 110.6 C 45 110.6 45.2 110.7 45.3 110.7 C 45.5 110.7 45.6 110.7 45.7 110.6 C 45.8 110.6 45.9 110.6 45.9 110.6 C 45.9 110.6 46.2 111.7 46.2 111.7 C 46.1 111.8 46 111.8 45.8 111.8 C 45.6 111.9 45.5 111.9 45.2 111.9 C 44.9 111.9 44.5 111.8 44.2 111.7 C 43.8 111.5 43.6 111.3 43.3 111 C 43.1 110.6 43 110.3 43 109.8 C 43.01 109.78 43 101.6 43 101.6 Z M 53.5 105.4 C 53.5 105.4 52.4 105.8 52.4 105.8 C 52.3 105.6 52.2 105.4 52.1 105.2 C 52 105 51.8 104.9 51.6 104.8 C 51.3 104.6 51 104.6 50.7 104.6 C 50.2 104.6 49.7 104.7 49.4 104.9 C 49.1 105.2 48.9 105.4 48.9 105.8 C 48.9 106.1 49 106.4 49.2 106.5 C 49.5 106.7 49.8 106.9 50.3 107 C 50.3 107 51.5 107.3 51.5 107.3 C 52.3 107.5 52.8 107.7 53.2 108.1 C 53.5 108.5 53.7 108.9 53.7 109.5 C 53.7 110 53.6 110.4 53.3 110.8 C 53 111.1 52.7 111.4 52.2 111.6 C 51.7 111.8 51.1 112 50.5 112 C 49.7 112 49 111.8 48.4 111.4 C 47.9 111 47.5 110.5 47.4 109.8 C 47.4 109.8 48.6 109.5 48.6 109.5 C 48.7 110 48.9 110.3 49.2 110.5 C 49.5 110.7 50 110.8 50.5 110.8 C 51.1 110.8 51.5 110.7 51.9 110.5 C 52.2 110.2 52.4 109.9 52.4 109.6 C 52.4 109.3 52.3 109 52.1 108.8 C 51.9 108.7 51.6 108.5 51.2 108.4 C 51.2 108.4 49.8 108.1 49.8 108.1 C 49.1 107.9 48.5 107.6 48.2 107.3 C 47.8 106.9 47.6 106.4 47.6 105.9 C 47.6 105.4 47.8 105 48 104.6 C 48.3 104.3 48.7 104 49.1 103.8 C 49.6 103.6 50.1 103.5 50.7 103.5 C 51.5 103.5 52.1 103.7 52.6 104 C 53 104.4 53.4 104.9 53.5 105.4 Z M 63.1 112 C 62.4 112 61.7 111.8 61.2 111.4 C 60.6 111 60.2 110.5 59.9 109.9 C 59.6 109.3 59.4 108.6 59.4 107.7 C 59.4 106.9 59.6 106.2 59.9 105.5 C 60.2 104.9 60.6 104.4 61.2 104 C 61.7 103.7 62.4 103.5 63.1 103.5 C 63.7 103.5 64.2 103.6 64.7 103.8 C 65.1 104 65.5 104.3 65.8 104.7 C 66.1 105.1 66.3 105.5 66.4 106.1 C 66.4 106.1 65.1 106.1 65.1 106.1 C 65 105.7 64.8 105.3 64.5 105.1 C 64.1 104.8 63.7 104.6 63.1 104.6 C 62.6 104.6 62.2 104.7 61.9 105 C 61.5 105.3 61.2 105.6 61 106.1 C 60.8 106.5 60.7 107.1 60.7 107.7 C 60.7 108.3 60.8 108.9 61 109.3 C 61.2 109.8 61.5 110.2 61.8 110.4 C 62.2 110.7 62.6 110.8 63.1 110.8 C 63.5 110.8 63.8 110.8 64 110.7 C 64.3 110.5 64.5 110.4 64.7 110.2 C 64.9 109.9 65 109.7 65.1 109.4 C 65.1 109.4 66.4 109.4 66.4 109.4 C 66.3 109.9 66.1 110.3 65.8 110.7 C 65.6 111.1 65.2 111.4 64.7 111.6 C 64.3 111.8 63.7 112 63.1 112 Z M 70.6 112 C 70.1 112 69.6 111.9 69.2 111.7 C 68.8 111.5 68.4 111.2 68.2 110.8 C 68 110.4 67.8 110 67.8 109.5 C 67.8 109 67.9 108.6 68.1 108.3 C 68.3 108 68.5 107.8 68.8 107.6 C 69.2 107.5 69.5 107.3 69.9 107.3 C 70.2 107.2 70.6 107.1 71 107.1 C 71.5 107 71.9 106.9 72.2 106.9 C 72.5 106.9 72.8 106.8 72.9 106.7 C 73 106.7 73.1 106.5 73.1 106.3 C 73.1 106.3 73.1 106.3 73.1 106.3 C 73.1 105.7 73 105.3 72.7 105 C 72.4 104.7 72 104.6 71.4 104.6 C 70.8 104.6 70.3 104.7 70 105 C 69.6 105.3 69.4 105.5 69.3 105.8 C 69.3 105.8 68.1 105.4 68.1 105.4 C 68.3 104.9 68.6 104.5 68.9 104.2 C 69.3 104 69.7 103.8 70.1 103.7 C 70.5 103.5 70.9 103.5 71.3 103.5 C 71.6 103.5 71.9 103.5 72.3 103.6 C 72.6 103.6 72.9 103.8 73.2 104 C 73.6 104.2 73.8 104.4 74 104.8 C 74.3 105.2 74.4 105.7 74.4 106.4 C 74.37 106.39 74.4 111.8 74.4 111.8 L 73.1 111.8 L 73.1 110.7 C 73.1 110.7 73.05 110.67 73 110.7 C 73 110.9 72.8 111 72.6 111.2 C 72.4 111.4 72.2 111.6 71.8 111.8 C 71.5 111.9 71.1 112 70.6 112 Z M 70.8 110.8 C 71.3 110.8 71.7 110.7 72.1 110.6 C 72.4 110.4 72.7 110.1 72.8 109.8 C 73 109.5 73.1 109.2 73.1 108.8 C 73.1 108.8 73.1 107.7 73.1 107.7 C 73.1 107.7 72.9 107.8 72.8 107.8 C 72.6 107.9 72.4 107.9 72.1 108 C 71.9 108 71.7 108 71.5 108.1 C 71.2 108.1 71.1 108.1 70.9 108.1 C 70.6 108.2 70.3 108.2 70 108.3 C 69.7 108.4 69.5 108.6 69.3 108.8 C 69.2 109 69.1 109.2 69.1 109.5 C 69.1 110 69.2 110.3 69.6 110.5 C 69.9 110.7 70.3 110.8 70.8 110.8 Z M 77.9 106.9 C 77.92 106.86 77.9 111.8 77.9 111.8 L 76.7 111.8 L 76.7 103.6 L 77.9 103.6 L 77.9 104.9 C 77.9 104.9 77.98 104.88 78 104.9 C 78.2 104.5 78.5 104.1 78.9 103.9 C 79.2 103.6 79.7 103.5 80.4 103.5 C 80.9 103.5 81.4 103.6 81.8 103.8 C 82.2 104.1 82.6 104.4 82.8 104.9 C 83 105.3 83.1 105.9 83.1 106.6 C 83.14 106.58 83.1 111.8 83.1 111.8 L 81.9 111.8 C 81.9 111.8 81.88 106.67 81.9 106.7 C 81.9 106 81.7 105.5 81.4 105.2 C 81 104.8 80.6 104.6 80 104.6 C 79.6 104.6 79.2 104.7 78.9 104.9 C 78.6 105.1 78.4 105.3 78.2 105.6 C 78 106 77.9 106.4 77.9 106.9 Z M 86.5 100.9 C 86.5 100.9 86.48 101.83 86.5 101.8 C 86.5 102.1 86.4 102.4 86.3 102.8 C 86.2 103.1 86.1 103.4 85.9 103.7 C 85.7 104 85.4 104.3 85.1 104.5 C 85.1 104.5 84.5 104 84.5 104 C 84.7 103.6 84.9 103.3 85 103 C 85.2 102.6 85.3 102.2 85.3 101.9 C 85.28 101.85 85.3 100.9 85.3 100.9 L 86.5 100.9 Z M 92 103.6 L 92 104.7 L 87.7 104.7 L 87.7 103.6 L 92 103.6 Z M 89 101.6 L 90.2 101.6 C 90.2 101.6 90.24 109.44 90.2 109.4 C 90.2 109.8 90.3 110.1 90.4 110.2 C 90.5 110.4 90.6 110.5 90.8 110.6 C 91 110.6 91.1 110.7 91.3 110.7 C 91.5 110.7 91.6 110.7 91.7 110.6 C 91.8 110.6 91.8 110.6 91.9 110.6 C 91.9 110.6 92.1 111.7 92.1 111.7 C 92 111.8 91.9 111.8 91.8 111.8 C 91.6 111.9 91.4 111.9 91.2 111.9 C 90.8 111.9 90.5 111.8 90.2 111.7 C 89.8 111.5 89.5 111.3 89.3 111 C 89.1 110.6 89 110.3 89 109.8 C 88.98 109.78 89 101.6 89 101.6 Z M 98.3 111.8 L 98.3 100.9 L 99.5 100.9 L 99.5 104.9 C 99.5 104.9 99.63 104.9 99.6 104.9 C 99.7 104.8 99.9 104.6 100 104.4 C 100.2 104.1 100.4 103.9 100.7 103.8 C 101 103.6 101.5 103.5 102 103.5 C 102.7 103.5 103.3 103.7 103.8 104 C 104.3 104.4 104.8 104.8 105.1 105.5 C 105.3 106.1 105.5 106.9 105.5 107.7 C 105.5 108.6 105.3 109.3 105.1 110 C 104.8 110.6 104.3 111.1 103.8 111.4 C 103.3 111.8 102.7 112 102 112 C 101.5 112 101.1 111.9 100.8 111.7 C 100.4 111.5 100.2 111.3 100 111.1 C 99.9 110.9 99.7 110.7 99.6 110.5 C 99.63 110.52 99.5 110.5 99.5 110.5 L 99.5 111.8 L 98.3 111.8 Z M 99.5 107.7 C 99.5 108.3 99.6 108.9 99.8 109.3 C 100 109.8 100.2 110.2 100.6 110.4 C 100.9 110.7 101.3 110.8 101.9 110.8 C 102.4 110.8 102.8 110.7 103.2 110.4 C 103.5 110.1 103.8 109.7 104 109.3 C 104.1 108.8 104.2 108.3 104.2 107.7 C 104.2 107.1 104.1 106.6 104 106.1 C 103.8 105.7 103.5 105.3 103.2 105 C 102.8 104.8 102.4 104.6 101.9 104.6 C 101.3 104.6 100.9 104.8 100.6 105 C 100.2 105.3 100 105.6 99.8 106.1 C 99.6 106.5 99.5 107.1 99.5 107.7 Z M 110.8 112 C 110 112 109.4 111.8 108.8 111.4 C 108.2 111.1 107.8 110.6 107.5 110 C 107.2 109.3 107 108.6 107 107.8 C 107 106.9 107.2 106.2 107.5 105.5 C 107.8 104.9 108.2 104.4 108.8 104 C 109.3 103.7 110 103.5 110.7 103.5 C 111.1 103.5 111.5 103.6 112 103.7 C 112.4 103.8 112.8 104.1 113.1 104.4 C 113.4 104.7 113.7 105.1 113.9 105.7 C 114.1 106.2 114.2 106.8 114.2 107.6 C 114.21 107.58 114.2 108.1 114.2 108.1 L 107.9 108.1 L 107.9 107 C 107.9 107 112.93 107.03 112.9 107 C 112.9 106.6 112.8 106.2 112.7 105.8 C 112.5 105.4 112.2 105.1 111.9 104.9 C 111.5 104.7 111.2 104.6 110.7 104.6 C 110.2 104.6 109.8 104.7 109.4 105 C 109 105.2 108.8 105.6 108.6 106 C 108.4 106.3 108.3 106.8 108.3 107.2 C 108.3 107.2 108.3 107.9 108.3 107.9 C 108.3 108.6 108.4 109.1 108.6 109.5 C 108.8 109.9 109.1 110.3 109.5 110.5 C 109.9 110.7 110.3 110.8 110.8 110.8 C 111.2 110.8 111.5 110.8 111.7 110.7 C 112 110.6 112.2 110.4 112.4 110.3 C 112.6 110.1 112.8 109.8 112.9 109.5 C 112.9 109.5 114.1 109.9 114.1 109.9 C 114 110.3 113.7 110.7 113.4 111 C 113.1 111.3 112.8 111.5 112.3 111.7 C 111.9 111.9 111.4 112 110.8 112 Z M 123.9 103.6 L 123.9 104.7 L 119.7 104.7 L 119.7 103.6 L 123.9 103.6 Z M 120.9 101.6 L 122.2 101.6 C 122.2 101.6 122.16 109.44 122.2 109.4 C 122.2 109.8 122.2 110.1 122.3 110.2 C 122.4 110.4 122.6 110.5 122.7 110.6 C 122.9 110.6 123.1 110.7 123.2 110.7 C 123.4 110.7 123.5 110.7 123.6 110.6 C 123.7 110.6 123.7 110.6 123.8 110.6 C 123.8 110.6 124.1 111.7 124.1 111.7 C 124 111.8 123.9 111.8 123.7 111.8 C 123.5 111.9 123.4 111.9 123.1 111.9 C 122.8 111.9 122.4 111.8 122.1 111.7 C 121.7 111.5 121.5 111.3 121.2 111 C 121 110.6 120.9 110.3 120.9 109.8 C 120.9 109.78 120.9 101.6 120.9 101.6 Z M 125.7 111.8 L 125.7 103.6 L 126.9 103.6 L 126.9 104.8 C 126.9 104.8 126.98 104.84 127 104.8 C 127.1 104.4 127.4 104.1 127.8 103.9 C 128.2 103.6 128.6 103.5 129.1 103.5 C 129.2 103.5 129.3 103.5 129.5 103.5 C 129.6 103.5 129.7 103.5 129.8 103.5 C 129.8 103.5 129.8 104.8 129.8 104.8 C 129.7 104.8 129.6 104.7 129.5 104.7 C 129.3 104.7 129.2 104.7 129 104.7 C 128.6 104.7 128.3 104.8 127.9 104.9 C 127.6 105.1 127.4 105.3 127.2 105.6 C 127 105.9 126.9 106.2 126.9 106.6 C 126.94 106.6 126.9 111.8 126.9 111.8 L 125.7 111.8 Z M 136.4 108.4 C 136.43 108.44 136.4 103.6 136.4 103.6 L 137.7 103.6 L 137.7 111.8 L 136.4 111.8 L 136.4 110.4 C 136.4 110.4 136.34 110.4 136.3 110.4 C 136.1 110.8 135.9 111.2 135.4 111.5 C 135 111.7 134.5 111.9 133.9 111.9 C 133.4 111.9 132.9 111.8 132.5 111.6 C 132.2 111.3 131.8 111 131.6 110.5 C 131.4 110.1 131.3 109.5 131.3 108.8 C 131.27 108.8 131.3 103.6 131.3 103.6 L 132.5 103.6 C 132.5 103.6 132.53 108.71 132.5 108.7 C 132.5 109.3 132.7 109.8 133 110.1 C 133.4 110.5 133.8 110.7 134.3 110.7 C 134.6 110.7 134.9 110.6 135.3 110.4 C 135.6 110.3 135.9 110 136.1 109.7 C 136.3 109.4 136.4 108.9 136.4 108.4 Z M 145.7 105.4 C 145.7 105.4 144.6 105.8 144.6 105.8 C 144.5 105.6 144.4 105.4 144.2 105.2 C 144.1 105 143.9 104.9 143.7 104.8 C 143.5 104.6 143.2 104.6 142.8 104.6 C 142.3 104.6 141.9 104.7 141.5 104.9 C 141.2 105.2 141 105.4 141 105.8 C 141 106.1 141.2 106.4 141.4 106.5 C 141.6 106.7 142 106.9 142.5 107 C 142.5 107 143.7 107.3 143.7 107.3 C 144.4 107.5 144.9 107.7 145.3 108.1 C 145.7 108.5 145.8 108.9 145.8 109.5 C 145.8 110 145.7 110.4 145.4 110.8 C 145.2 111.1 144.8 111.4 144.3 111.6 C 143.8 111.8 143.3 112 142.6 112 C 141.8 112 141.1 111.8 140.6 111.4 C 140 111 139.7 110.5 139.5 109.8 C 139.5 109.8 140.7 109.5 140.7 109.5 C 140.8 110 141.1 110.3 141.4 110.5 C 141.7 110.7 142.1 110.8 142.6 110.8 C 143.2 110.8 143.7 110.7 144 110.5 C 144.4 110.2 144.5 109.9 144.5 109.6 C 144.5 109.3 144.4 109 144.2 108.8 C 144 108.7 143.7 108.5 143.3 108.4 C 143.3 108.4 142 108.1 142 108.1 C 141.2 107.9 140.7 107.6 140.3 107.3 C 140 106.9 139.8 106.4 139.8 105.9 C 139.8 105.4 139.9 105 140.2 104.6 C 140.4 104.3 140.8 104 141.3 103.8 C 141.7 103.6 142.2 103.5 142.8 103.5 C 143.6 103.5 144.2 103.7 144.7 104 C 145.2 104.4 145.5 104.9 145.7 105.4 Z M 151.2 103.6 L 151.2 104.7 L 147 104.7 L 147 103.6 L 151.2 103.6 Z M 148.2 101.6 L 149.5 101.6 C 149.5 101.6 149.49 109.44 149.5 109.4 C 149.5 109.8 149.5 110.1 149.6 110.2 C 149.8 110.4 149.9 110.5 150.1 110.6 C 150.2 110.6 150.4 110.7 150.6 110.7 C 150.7 110.7 150.8 110.7 150.9 110.6 C 151 110.6 151.1 110.6 151.1 110.6 C 151.1 110.6 151.4 111.7 151.4 111.7 C 151.3 111.8 151.2 111.8 151 111.8 C 150.9 111.9 150.7 111.9 150.5 111.9 C 150.1 111.9 149.7 111.8 149.4 111.7 C 149.1 111.5 148.8 111.3 148.6 111 C 148.3 110.6 148.2 110.3 148.2 109.8 C 148.23 109.78 148.2 101.6 148.2 101.6 Z M 156.1 112 C 155.4 112 154.7 111.8 154.1 111.4 C 153.5 111.1 153.1 110.6 152.8 110 C 152.5 109.3 152.3 108.6 152.3 107.8 C 152.3 106.9 152.5 106.2 152.8 105.5 C 153.1 104.9 153.5 104.4 154.1 104 C 154.6 103.7 155.3 103.5 156 103.5 C 156.4 103.5 156.9 103.6 157.3 103.7 C 157.7 103.8 158.1 104.1 158.4 104.4 C 158.8 104.7 159 105.1 159.2 105.7 C 159.4 106.2 159.5 106.8 159.5 107.6 C 159.54 107.58 159.5 108.1 159.5 108.1 L 153.2 108.1 L 153.2 107 C 153.2 107 158.26 107.03 158.3 107 C 158.3 106.6 158.2 106.2 158 105.8 C 157.8 105.4 157.5 105.1 157.2 104.9 C 156.9 104.7 156.5 104.6 156 104.6 C 155.5 104.6 155.1 104.7 154.7 105 C 154.4 105.2 154.1 105.6 153.9 106 C 153.7 106.3 153.6 106.8 153.6 107.2 C 153.6 107.2 153.6 107.9 153.6 107.9 C 153.6 108.6 153.7 109.1 153.9 109.5 C 154.1 109.9 154.4 110.3 154.8 110.5 C 155.2 110.7 155.6 110.8 156.1 110.8 C 156.5 110.8 156.8 110.8 157 110.7 C 157.3 110.6 157.5 110.4 157.7 110.3 C 157.9 110.1 158.1 109.8 158.2 109.5 C 158.2 109.5 159.4 109.9 159.4 109.9 C 159.3 110.3 159.1 110.7 158.8 111 C 158.5 111.3 158.1 111.5 157.6 111.7 C 157.2 111.9 156.7 112 156.1 112 Z M 164.5 112 C 163.8 112 163.2 111.8 162.7 111.4 C 162.2 111.1 161.8 110.6 161.5 110 C 161.2 109.3 161.1 108.6 161.1 107.7 C 161.1 106.9 161.2 106.1 161.5 105.5 C 161.8 104.8 162.2 104.4 162.7 104 C 163.3 103.7 163.9 103.5 164.5 103.5 C 165.1 103.5 165.5 103.6 165.8 103.8 C 166.1 103.9 166.4 104.1 166.5 104.4 C 166.7 104.6 166.8 104.8 166.9 104.9 C 166.91 104.9 167 104.9 167 104.9 L 167 100.9 L 168.3 100.9 L 168.3 111.8 L 167.1 111.8 L 167.1 110.5 C 167.1 110.5 166.91 110.52 166.9 110.5 C 166.8 110.7 166.7 110.9 166.5 111.1 C 166.3 111.3 166.1 111.5 165.8 111.7 C 165.5 111.9 165.1 112 164.5 112 Z M 164.7 110.8 C 165.2 110.8 165.6 110.7 166 110.4 C 166.3 110.2 166.6 109.8 166.8 109.3 C 167 108.9 167 108.3 167 107.7 C 167 107.1 167 106.5 166.8 106.1 C 166.6 105.6 166.3 105.3 166 105 C 165.6 104.8 165.2 104.6 164.7 104.6 C 164.2 104.6 163.7 104.8 163.4 105 C 163 105.3 162.8 105.7 162.6 106.1 C 162.4 106.6 162.3 107.1 162.3 107.7 C 162.3 108.3 162.4 108.8 162.6 109.3 C 162.8 109.7 163 110.1 163.4 110.4 C 163.7 110.7 164.2 110.8 164.7 110.8 Z M 171.6 111.9 C 171.3 111.9 171.1 111.8 170.9 111.6 C 170.7 111.4 170.6 111.2 170.6 110.9 C 170.6 110.6 170.7 110.4 170.9 110.2 C 171.1 110 171.3 109.9 171.6 109.9 C 171.8 109.9 172 110 172.2 110.2 C 172.4 110.4 172.5 110.6 172.5 110.9 C 172.5 111.1 172.5 111.2 172.4 111.4 C 172.3 111.5 172.2 111.6 172 111.7 C 171.9 111.8 171.7 111.9 171.6 111.9 Z " stroke="none" fill="#000"/>  </g>  <g id="Polygon115413">    <path d="M 3.6 92.8 C 3 92.8 2.6 92.7 2.1 92.5 C 1.7 92.3 1.4 92 1.1 91.6 C 0.9 91.2 0.8 90.8 0.8 90.3 C 0.8 89.8 0.9 89.4 1 89.1 C 1.2 88.8 1.5 88.6 1.8 88.4 C 2.1 88.3 2.4 88.1 2.8 88.1 C 3.2 88 3.6 87.9 3.9 87.9 C 4.4 87.8 4.8 87.7 5.2 87.7 C 5.5 87.7 5.7 87.6 5.8 87.5 C 6 87.5 6.1 87.3 6.1 87.1 C 6.1 87.1 6.1 87.1 6.1 87.1 C 6.1 86.5 5.9 86.1 5.6 85.8 C 5.3 85.5 4.9 85.4 4.3 85.4 C 3.7 85.4 3.3 85.5 2.9 85.8 C 2.6 86.1 2.3 86.3 2.2 86.6 C 2.2 86.6 1 86.2 1 86.2 C 1.2 85.7 1.5 85.3 1.9 85 C 2.2 84.8 2.6 84.6 3 84.5 C 3.5 84.3 3.9 84.3 4.3 84.3 C 4.5 84.3 4.8 84.3 5.2 84.4 C 5.5 84.4 5.9 84.6 6.2 84.8 C 6.5 85 6.8 85.2 7 85.6 C 7.2 86 7.3 86.5 7.3 87.2 C 7.31 87.19 7.3 92.6 7.3 92.6 L 6.1 92.6 L 6.1 91.5 C 6.1 91.5 5.99 91.47 6 91.5 C 5.9 91.7 5.8 91.8 5.6 92 C 5.4 92.2 5.1 92.4 4.8 92.6 C 4.4 92.7 4 92.8 3.6 92.8 Z M 3.8 91.6 C 4.2 91.6 4.7 91.5 5 91.4 C 5.4 91.2 5.6 90.9 5.8 90.6 C 6 90.3 6.1 90 6.1 89.6 C 6.1 89.6 6.1 88.5 6.1 88.5 C 6 88.5 5.9 88.6 5.7 88.6 C 5.5 88.7 5.3 88.7 5.1 88.8 C 4.9 88.8 4.6 88.8 4.4 88.9 C 4.2 88.9 4 88.9 3.9 88.9 C 3.6 89 3.2 89 3 89.1 C 2.7 89.2 2.5 89.4 2.3 89.6 C 2.1 89.8 2 90 2 90.3 C 2 90.8 2.2 91.1 2.5 91.3 C 2.8 91.5 3.2 91.6 3.8 91.6 Z M 15.9 84.4 L 12.9 92.6 L 11.6 92.6 L 8.6 84.4 L 9.9 84.4 L 12.2 90.9 L 12.3 90.9 L 14.5 84.4 L 15.9 84.4 Z M 19.7 92.8 C 19.2 92.8 18.7 92.7 18.3 92.5 C 17.8 92.3 17.5 92 17.3 91.6 C 17 91.2 16.9 90.8 16.9 90.3 C 16.9 89.8 17 89.4 17.2 89.1 C 17.4 88.8 17.6 88.6 17.9 88.4 C 18.2 88.3 18.6 88.1 18.9 88.1 C 19.3 88 19.7 87.9 20.1 87.9 C 20.6 87.8 21 87.7 21.3 87.7 C 21.6 87.7 21.8 87.6 22 87.5 C 22.1 87.5 22.2 87.3 22.2 87.1 C 22.2 87.1 22.2 87.1 22.2 87.1 C 22.2 86.5 22 86.1 21.7 85.8 C 21.5 85.5 21 85.4 20.5 85.4 C 19.9 85.4 19.4 85.5 19 85.8 C 18.7 86.1 18.5 86.3 18.3 86.6 C 18.3 86.6 17.1 86.2 17.1 86.2 C 17.3 85.7 17.6 85.3 18 85 C 18.3 84.8 18.7 84.6 19.2 84.5 C 19.6 84.3 20 84.3 20.4 84.3 C 20.7 84.3 21 84.3 21.3 84.4 C 21.7 84.4 22 84.6 22.3 84.8 C 22.6 85 22.9 85.2 23.1 85.6 C 23.3 86 23.4 86.5 23.4 87.2 C 23.43 87.19 23.4 92.6 23.4 92.6 L 22.2 92.6 L 22.2 91.5 C 22.2 91.5 22.11 91.47 22.1 91.5 C 22 91.7 21.9 91.8 21.7 92 C 21.5 92.2 21.2 92.4 20.9 92.6 C 20.6 92.7 20.2 92.8 19.7 92.8 Z M 19.9 91.6 C 20.4 91.6 20.8 91.5 21.1 91.4 C 21.5 91.2 21.7 90.9 21.9 90.6 C 22.1 90.3 22.2 90 22.2 89.6 C 22.2 89.6 22.2 88.5 22.2 88.5 C 22.1 88.5 22 88.6 21.8 88.6 C 21.6 88.7 21.4 88.7 21.2 88.8 C 21 88.8 20.8 88.8 20.5 88.9 C 20.3 88.9 20.1 88.9 20 88.9 C 19.7 89 19.4 89 19.1 89.1 C 18.8 89.2 18.6 89.4 18.4 89.6 C 18.2 89.8 18.1 90 18.1 90.3 C 18.1 90.8 18.3 91.1 18.6 91.3 C 19 91.5 19.4 91.6 19.9 91.6 Z M 25.7 92.6 L 25.7 84.4 L 27 84.4 L 27 92.6 L 25.7 92.6 Z M 26.3 83 C 26.1 83 25.9 83 25.7 82.8 C 25.5 82.6 25.4 82.4 25.4 82.2 C 25.4 81.9 25.5 81.7 25.7 81.6 C 25.9 81.4 26.1 81.3 26.3 81.3 C 26.6 81.3 26.8 81.4 27 81.6 C 27.1 81.7 27.2 81.9 27.2 82.2 C 27.2 82.4 27.1 82.6 27 82.8 C 26.8 83 26.6 83 26.3 83 Z M 30.5 81.7 L 30.5 92.6 L 29.3 92.6 L 29.3 81.7 L 30.5 81.7 Z M 35.2 92.8 C 34.7 92.8 34.2 92.7 33.8 92.5 C 33.4 92.3 33 92 32.8 91.6 C 32.5 91.2 32.4 90.8 32.4 90.3 C 32.4 89.8 32.5 89.4 32.7 89.1 C 32.9 88.8 33.1 88.6 33.4 88.4 C 33.7 88.3 34.1 88.1 34.5 88.1 C 34.8 88 35.2 87.9 35.6 87.9 C 36.1 87.8 36.5 87.7 36.8 87.7 C 37.1 87.7 37.3 87.6 37.5 87.5 C 37.6 87.5 37.7 87.3 37.7 87.1 C 37.7 87.1 37.7 87.1 37.7 87.1 C 37.7 86.5 37.6 86.1 37.3 85.8 C 37 85.5 36.6 85.4 36 85.4 C 35.4 85.4 34.9 85.5 34.6 85.8 C 34.2 86.1 34 86.3 33.8 86.6 C 33.8 86.6 32.7 86.2 32.7 86.2 C 32.9 85.7 33.2 85.3 33.5 85 C 33.9 84.8 34.3 84.6 34.7 84.5 C 35.1 84.3 35.5 84.3 35.9 84.3 C 36.2 84.3 36.5 84.3 36.8 84.4 C 37.2 84.4 37.5 84.6 37.8 84.8 C 38.2 85 38.4 85.2 38.6 85.6 C 38.9 86 39 86.5 39 87.2 C 38.96 87.19 39 92.6 39 92.6 L 37.7 92.6 L 37.7 91.5 C 37.7 91.5 37.64 91.47 37.6 91.5 C 37.6 91.7 37.4 91.8 37.2 92 C 37 92.2 36.7 92.4 36.4 92.6 C 36.1 92.7 35.7 92.8 35.2 92.8 Z M 35.4 91.6 C 35.9 91.6 36.3 91.5 36.7 91.4 C 37 91.2 37.3 90.9 37.4 90.6 C 37.6 90.3 37.7 90 37.7 89.6 C 37.7 89.6 37.7 88.5 37.7 88.5 C 37.6 88.5 37.5 88.6 37.4 88.6 C 37.2 88.7 37 88.7 36.7 88.8 C 36.5 88.8 36.3 88.8 36.1 88.9 C 35.8 88.9 35.7 88.9 35.5 88.9 C 35.2 89 34.9 89 34.6 89.1 C 34.3 89.2 34.1 89.4 33.9 89.6 C 33.8 89.8 33.7 90 33.7 90.3 C 33.7 90.8 33.8 91.1 34.2 91.3 C 34.5 91.5 34.9 91.6 35.4 91.6 Z M 41.3 92.6 L 41.3 81.7 L 42.6 81.7 L 42.6 85.7 C 42.6 85.7 42.69 85.7 42.7 85.7 C 42.8 85.6 42.9 85.4 43.1 85.2 C 43.2 84.9 43.5 84.7 43.8 84.6 C 44.1 84.4 44.5 84.3 45.1 84.3 C 45.7 84.3 46.4 84.5 46.9 84.8 C 47.4 85.2 47.8 85.6 48.1 86.3 C 48.4 86.9 48.6 87.7 48.6 88.5 C 48.6 89.4 48.4 90.1 48.1 90.8 C 47.8 91.4 47.4 91.9 46.9 92.2 C 46.4 92.6 45.8 92.8 45.1 92.8 C 44.6 92.8 44.1 92.7 43.8 92.5 C 43.5 92.3 43.3 92.1 43.1 91.9 C 42.9 91.7 42.8 91.5 42.7 91.3 C 42.69 91.32 42.5 91.3 42.5 91.3 L 42.5 92.6 L 41.3 92.6 Z M 42.6 88.5 C 42.6 89.1 42.7 89.7 42.8 90.1 C 43 90.6 43.3 91 43.6 91.2 C 44 91.5 44.4 91.6 44.9 91.6 C 45.4 91.6 45.9 91.5 46.2 91.2 C 46.6 90.9 46.8 90.5 47 90.1 C 47.2 89.6 47.3 89.1 47.3 88.5 C 47.3 87.9 47.2 87.4 47 86.9 C 46.9 86.5 46.6 86.1 46.2 85.8 C 45.9 85.6 45.4 85.4 44.9 85.4 C 44.4 85.4 44 85.6 43.6 85.8 C 43.3 86.1 43 86.4 42.8 86.9 C 42.7 87.3 42.6 87.9 42.6 88.5 Z M 51.7 81.7 L 51.7 92.6 L 50.5 92.6 L 50.5 81.7 L 51.7 81.7 Z M 57.5 92.8 C 56.7 92.8 56 92.6 55.4 92.2 C 54.9 91.9 54.4 91.4 54.1 90.8 C 53.8 90.1 53.7 89.4 53.7 88.6 C 53.7 87.7 53.8 87 54.1 86.3 C 54.4 85.7 54.9 85.2 55.4 84.8 C 56 84.5 56.6 84.3 57.4 84.3 C 57.8 84.3 58.2 84.4 58.6 84.5 C 59 84.6 59.4 84.9 59.8 85.2 C 60.1 85.5 60.4 85.9 60.6 86.5 C 60.8 87 60.9 87.6 60.9 88.4 C 60.87 88.38 60.9 88.9 60.9 88.9 L 54.6 88.9 L 54.6 87.8 C 54.6 87.8 59.6 87.83 59.6 87.8 C 59.6 87.4 59.5 87 59.3 86.6 C 59.1 86.2 58.9 85.9 58.5 85.7 C 58.2 85.5 57.8 85.4 57.4 85.4 C 56.9 85.4 56.4 85.5 56.1 85.8 C 55.7 86 55.4 86.4 55.2 86.8 C 55 87.1 54.9 87.6 54.9 88 C 54.9 88 54.9 88.7 54.9 88.7 C 54.9 89.4 55 89.9 55.3 90.3 C 55.5 90.7 55.8 91.1 56.1 91.3 C 56.5 91.5 57 91.6 57.5 91.6 C 57.8 91.6 58.1 91.6 58.4 91.5 C 58.7 91.4 58.9 91.2 59.1 91.1 C 59.3 90.9 59.4 90.6 59.5 90.3 C 59.5 90.3 60.7 90.7 60.7 90.7 C 60.6 91.1 60.4 91.5 60.1 91.8 C 59.8 92.1 59.4 92.3 59 92.5 C 58.5 92.7 58 92.8 57.5 92.8 Z M 70.1 92.8 C 69.4 92.8 68.8 92.6 68.3 92.2 C 67.8 91.9 67.4 91.4 67.1 90.8 C 66.8 90.1 66.6 89.4 66.6 88.5 C 66.6 87.7 66.8 86.9 67.1 86.3 C 67.4 85.6 67.8 85.2 68.3 84.8 C 68.8 84.5 69.4 84.3 70.1 84.3 C 70.7 84.3 71.1 84.4 71.4 84.6 C 71.7 84.7 71.9 84.9 72.1 85.2 C 72.3 85.4 72.4 85.6 72.5 85.7 C 72.49 85.7 72.6 85.7 72.6 85.7 L 72.6 81.7 L 73.9 81.7 L 73.9 92.6 L 72.6 92.6 L 72.6 91.3 C 72.6 91.3 72.49 91.32 72.5 91.3 C 72.4 91.5 72.3 91.7 72.1 91.9 C 71.9 92.1 71.7 92.3 71.4 92.5 C 71 92.7 70.6 92.8 70.1 92.8 Z M 70.3 91.6 C 70.8 91.6 71.2 91.5 71.5 91.2 C 71.9 91 72.2 90.6 72.3 90.1 C 72.5 89.7 72.6 89.1 72.6 88.5 C 72.6 87.9 72.5 87.3 72.3 86.9 C 72.2 86.4 71.9 86.1 71.6 85.8 C 71.2 85.6 70.8 85.4 70.3 85.4 C 69.7 85.4 69.3 85.6 68.9 85.8 C 68.6 86.1 68.3 86.5 68.1 86.9 C 68 87.4 67.9 87.9 67.9 88.5 C 67.9 89.1 68 89.6 68.2 90.1 C 68.3 90.5 68.6 90.9 69 91.2 C 69.3 91.5 69.7 91.6 70.3 91.6 Z M 78.6 92.8 C 78.1 92.8 77.6 92.7 77.2 92.5 C 76.8 92.3 76.4 92 76.2 91.6 C 75.9 91.2 75.8 90.8 75.8 90.3 C 75.8 89.8 75.9 89.4 76.1 89.1 C 76.3 88.8 76.5 88.6 76.8 88.4 C 77.1 88.3 77.5 88.1 77.9 88.1 C 78.2 88 78.6 87.9 79 87.9 C 79.5 87.8 79.9 87.7 80.2 87.7 C 80.5 87.7 80.7 87.6 80.9 87.5 C 81 87.5 81.1 87.3 81.1 87.1 C 81.1 87.1 81.1 87.1 81.1 87.1 C 81.1 86.5 81 86.1 80.7 85.8 C 80.4 85.5 80 85.4 79.4 85.4 C 78.8 85.4 78.3 85.5 78 85.8 C 77.6 86.1 77.4 86.3 77.2 86.6 C 77.2 86.6 76.1 86.2 76.1 86.2 C 76.3 85.7 76.6 85.3 76.9 85 C 77.3 84.8 77.7 84.6 78.1 84.5 C 78.5 84.3 78.9 84.3 79.3 84.3 C 79.6 84.3 79.9 84.3 80.2 84.4 C 80.6 84.4 80.9 84.6 81.2 84.8 C 81.6 85 81.8 85.2 82 85.6 C 82.3 86 82.4 86.5 82.4 87.2 C 82.36 87.19 82.4 92.6 82.4 92.6 L 81.1 92.6 L 81.1 91.5 C 81.1 91.5 81.04 91.47 81 91.5 C 81 91.7 80.8 91.8 80.6 92 C 80.4 92.2 80.2 92.4 79.8 92.6 C 79.5 92.7 79.1 92.8 78.6 92.8 Z M 78.8 91.6 C 79.3 91.6 79.7 91.5 80.1 91.4 C 80.4 91.2 80.7 90.9 80.8 90.6 C 81 90.3 81.1 90 81.1 89.6 C 81.1 89.6 81.1 88.5 81.1 88.5 C 81.1 88.5 80.9 88.6 80.8 88.6 C 80.6 88.7 80.4 88.7 80.1 88.8 C 79.9 88.8 79.7 88.8 79.5 88.9 C 79.2 88.9 79.1 88.9 78.9 88.9 C 78.6 89 78.3 89 78 89.1 C 77.7 89.2 77.5 89.4 77.3 89.6 C 77.2 89.8 77.1 90 77.1 90.3 C 77.1 90.8 77.2 91.1 77.6 91.3 C 77.9 91.5 78.3 91.6 78.8 91.6 Z M 88 84.4 L 88 85.5 L 83.8 85.5 L 83.8 84.4 L 88 84.4 Z M 85 82.4 L 86.3 82.4 C 86.3 82.4 86.27 90.24 86.3 90.2 C 86.3 90.6 86.3 90.9 86.4 91 C 86.5 91.2 86.7 91.3 86.8 91.4 C 87 91.4 87.2 91.5 87.4 91.5 C 87.5 91.5 87.6 91.5 87.7 91.4 C 87.8 91.4 87.9 91.4 87.9 91.4 C 87.9 91.4 88.2 92.5 88.2 92.5 C 88.1 92.6 88 92.6 87.8 92.6 C 87.7 92.7 87.5 92.7 87.2 92.7 C 86.9 92.7 86.5 92.6 86.2 92.5 C 85.8 92.3 85.6 92.1 85.3 91.8 C 85.1 91.4 85 91.1 85 90.6 C 85.01 90.58 85 82.4 85 82.4 Z M 92.2 92.8 C 91.7 92.8 91.2 92.7 90.8 92.5 C 90.4 92.3 90 92 89.8 91.6 C 89.5 91.2 89.4 90.8 89.4 90.3 C 89.4 89.8 89.5 89.4 89.7 89.1 C 89.9 88.8 90.1 88.6 90.4 88.4 C 90.7 88.3 91.1 88.1 91.4 88.1 C 91.8 88 92.2 87.9 92.6 87.9 C 93.1 87.8 93.5 87.7 93.8 87.7 C 94.1 87.7 94.3 87.6 94.5 87.5 C 94.6 87.5 94.7 87.3 94.7 87.1 C 94.7 87.1 94.7 87.1 94.7 87.1 C 94.7 86.5 94.5 86.1 94.3 85.8 C 94 85.5 93.5 85.4 93 85.4 C 92.4 85.4 91.9 85.5 91.5 85.8 C 91.2 86.1 91 86.3 90.8 86.6 C 90.8 86.6 89.6 86.2 89.6 86.2 C 89.8 85.7 90.1 85.3 90.5 85 C 90.8 84.8 91.2 84.6 91.7 84.5 C 92.1 84.3 92.5 84.3 92.9 84.3 C 93.2 84.3 93.5 84.3 93.8 84.4 C 94.2 84.4 94.5 84.6 94.8 84.8 C 95.1 85 95.4 85.2 95.6 85.6 C 95.8 86 95.9 86.5 95.9 87.2 C 95.94 87.19 95.9 92.6 95.9 92.6 L 94.7 92.6 L 94.7 91.5 C 94.7 91.5 94.62 91.47 94.6 91.5 C 94.5 91.7 94.4 91.8 94.2 92 C 94 92.2 93.7 92.4 93.4 92.6 C 93.1 92.7 92.7 92.8 92.2 92.8 Z M 92.4 91.6 C 92.9 91.6 93.3 91.5 93.6 91.4 C 94 91.2 94.2 90.9 94.4 90.6 C 94.6 90.3 94.7 90 94.7 89.6 C 94.7 89.6 94.7 88.5 94.7 88.5 C 94.6 88.5 94.5 88.6 94.3 88.6 C 94.2 88.7 93.9 88.7 93.7 88.8 C 93.5 88.8 93.3 88.8 93 88.9 C 92.8 88.9 92.6 88.9 92.5 88.9 C 92.2 89 91.9 89 91.6 89.1 C 91.3 89.2 91.1 89.4 90.9 89.6 C 90.7 89.8 90.7 90 90.7 90.3 C 90.7 90.8 90.8 91.1 91.1 91.3 C 91.5 91.5 91.9 91.6 92.4 91.6 Z M 100 91.1 C 100 91.1 99.87 91.67 99.9 91.7 C 99.8 92.1 99.7 92.5 99.6 93 C 99.5 93.4 99.3 93.9 99.2 94.3 C 99.1 94.7 99 95 98.9 95.2 C 98.9 95.2 97.9 95.2 97.9 95.2 C 98 95 98 94.7 98.1 94.3 C 98.2 94 98.3 93.6 98.3 93.1 C 98.4 92.6 98.5 92.2 98.5 91.7 C 98.53 91.69 98.6 91.1 98.6 91.1 L 100 91.1 Z M 107.1 92.6 L 105.7 92.6 L 109.7 81.7 L 111.1 81.7 L 115.1 92.6 L 113.7 92.6 L 110.5 83.4 L 110.4 83.4 L 107.1 92.6 Z M 107.6 88.3 L 113.2 88.3 L 113.2 89.5 L 107.6 89.5 L 107.6 88.3 Z M 118.2 81.7 L 118.2 92.6 L 116.8 92.6 L 116.8 81.7 L 118.2 81.7 Z M 125.3 87.3 L 125.3 88.5 L 120.5 88.5 L 120.5 87.3 L 125.3 87.3 Z M 130.7 92.8 C 130 92.8 129.4 92.6 128.9 92.2 C 128.3 91.9 127.9 91.4 127.6 90.8 C 127.3 90.1 127.2 89.4 127.2 88.5 C 127.2 87.7 127.3 86.9 127.6 86.3 C 127.9 85.6 128.3 85.2 128.9 84.8 C 129.4 84.5 130 84.3 130.7 84.3 C 131.2 84.3 131.6 84.4 132 84.6 C 132.3 84.7 132.5 84.9 132.7 85.2 C 132.8 85.4 133 85.6 133.1 85.7 C 133.05 85.7 133.2 85.7 133.2 85.7 L 133.2 81.7 L 134.4 81.7 L 134.4 92.6 L 133.2 92.6 L 133.2 91.3 C 133.2 91.3 133.05 91.32 133.1 91.3 C 133 91.5 132.8 91.7 132.7 91.9 C 132.5 92.1 132.2 92.3 131.9 92.5 C 131.6 92.7 131.2 92.8 130.7 92.8 Z M 130.8 91.6 C 131.3 91.6 131.8 91.5 132.1 91.2 C 132.5 91 132.7 90.6 132.9 90.1 C 133.1 89.7 133.2 89.1 133.2 88.5 C 133.2 87.9 133.1 87.3 132.9 86.9 C 132.7 86.4 132.5 86.1 132.1 85.8 C 131.8 85.6 131.4 85.4 130.8 85.4 C 130.3 85.4 129.9 85.6 129.5 85.8 C 129.2 86.1 128.9 86.5 128.7 86.9 C 128.5 87.4 128.5 87.9 128.5 88.5 C 128.5 89.1 128.5 89.6 128.7 90.1 C 128.9 90.5 129.2 90.9 129.5 91.2 C 129.9 91.5 130.3 91.6 130.8 91.6 Z M 136.8 92.6 L 136.8 84.4 L 138 84.4 L 138 85.6 C 138 85.6 138.1 85.64 138.1 85.6 C 138.3 85.2 138.5 84.9 138.9 84.7 C 139.3 84.4 139.7 84.3 140.2 84.3 C 140.3 84.3 140.4 84.3 140.6 84.3 C 140.7 84.3 140.8 84.3 140.9 84.3 C 140.9 84.3 140.9 85.6 140.9 85.6 C 140.9 85.6 140.8 85.5 140.6 85.5 C 140.5 85.5 140.3 85.5 140.1 85.5 C 139.7 85.5 139.4 85.6 139.1 85.7 C 138.8 85.9 138.5 86.1 138.3 86.4 C 138.1 86.7 138.1 87 138.1 87.4 C 138.06 87.4 138.1 92.6 138.1 92.6 L 136.8 92.6 Z M 142.4 92.6 L 142.4 84.4 L 143.7 84.4 L 143.7 92.6 L 142.4 92.6 Z M 143 83 C 142.8 83 142.6 83 142.4 82.8 C 142.2 82.6 142.1 82.4 142.1 82.2 C 142.1 81.9 142.2 81.7 142.4 81.6 C 142.6 81.4 142.8 81.3 143 81.3 C 143.3 81.3 143.5 81.4 143.7 81.6 C 143.8 81.7 143.9 81.9 143.9 82.2 C 143.9 82.4 143.8 82.6 143.7 82.8 C 143.5 83 143.3 83 143 83 Z M 152.6 84.4 L 149.5 92.6 L 148.3 92.6 L 145.2 84.4 L 146.6 84.4 L 148.9 90.9 L 148.9 90.9 L 151.2 84.4 L 152.6 84.4 Z M 157.2 92.8 C 156.5 92.8 155.8 92.6 155.2 92.2 C 154.6 91.9 154.2 91.4 153.9 90.8 C 153.6 90.1 153.4 89.4 153.4 88.6 C 153.4 87.7 153.6 87 153.9 86.3 C 154.2 85.7 154.6 85.2 155.2 84.8 C 155.7 84.5 156.4 84.3 157.1 84.3 C 157.5 84.3 158 84.4 158.4 84.5 C 158.8 84.6 159.2 84.9 159.5 85.2 C 159.9 85.5 160.1 85.9 160.3 86.5 C 160.5 87 160.6 87.6 160.6 88.4 C 160.63 88.38 160.6 88.9 160.6 88.9 L 154.3 88.9 L 154.3 87.8 C 154.3 87.8 159.35 87.83 159.4 87.8 C 159.4 87.4 159.3 87 159.1 86.6 C 158.9 86.2 158.6 85.9 158.3 85.7 C 158 85.5 157.6 85.4 157.1 85.4 C 156.6 85.4 156.2 85.5 155.8 85.8 C 155.5 86 155.2 86.4 155 86.8 C 154.8 87.1 154.7 87.6 154.7 88 C 154.7 88 154.7 88.7 154.7 88.7 C 154.7 89.4 154.8 89.9 155 90.3 C 155.2 90.7 155.5 91.1 155.9 91.3 C 156.3 91.5 156.7 91.6 157.2 91.6 C 157.6 91.6 157.9 91.6 158.1 91.5 C 158.4 91.4 158.6 91.2 158.8 91.1 C 159 90.9 159.2 90.6 159.3 90.3 C 159.3 90.3 160.5 90.7 160.5 90.7 C 160.4 91.1 160.2 91.5 159.9 91.8 C 159.6 92.1 159.2 92.3 158.7 92.5 C 158.3 92.7 157.8 92.8 157.2 92.8 Z M 163.8 87.7 C 163.81 87.66 163.8 92.6 163.8 92.6 L 162.5 92.6 L 162.5 84.4 L 163.8 84.4 L 163.8 85.7 C 163.8 85.7 163.87 85.68 163.9 85.7 C 164.1 85.3 164.4 84.9 164.7 84.7 C 165.1 84.4 165.6 84.3 166.3 84.3 C 166.8 84.3 167.3 84.4 167.7 84.6 C 168.1 84.9 168.4 85.2 168.7 85.7 C 168.9 86.1 169 86.7 169 87.4 C 169.03 87.38 169 92.6 169 92.6 L 167.8 92.6 C 167.8 92.6 167.77 87.47 167.8 87.5 C 167.8 86.8 167.6 86.3 167.3 86 C 166.9 85.6 166.5 85.4 165.9 85.4 C 165.5 85.4 165.1 85.5 164.8 85.7 C 164.5 85.9 164.3 86.1 164.1 86.4 C 163.9 86.8 163.8 87.2 163.8 87.7 Z " stroke="none" fill="#000"/>  </g>  <g id="Polygon115412">    <path d="M 3.3 73.4 L 0.3 62.5 L 1.7 62.5 L 3.9 71.4 L 4 71.4 L 6.4 62.5 L 7.9 62.5 L 10.2 71.4 L 10.3 71.4 L 12.6 62.5 L 13.9 62.5 L 10.9 73.4 L 9.6 73.4 L 7.2 64.7 L 7.1 64.7 L 4.7 73.4 L 3.3 73.4 Z M 15.6 73.4 L 15.6 65.2 L 16.8 65.2 L 16.8 73.4 L 15.6 73.4 Z M 16.2 63.8 C 16 63.8 15.8 63.8 15.6 63.6 C 15.4 63.4 15.3 63.2 15.3 63 C 15.3 62.7 15.4 62.5 15.6 62.4 C 15.8 62.2 16 62.1 16.2 62.1 C 16.5 62.1 16.7 62.2 16.8 62.4 C 17 62.5 17.1 62.7 17.1 63 C 17.1 63.2 17 63.4 16.8 63.6 C 16.7 63.8 16.5 63.8 16.2 63.8 Z M 22.6 65.2 L 22.6 66.3 L 18.4 66.3 L 18.4 65.2 L 22.6 65.2 Z M 19.6 63.2 L 20.9 63.2 C 20.9 63.2 20.88 71.04 20.9 71 C 20.9 71.4 20.9 71.7 21 71.8 C 21.1 72 21.3 72.1 21.4 72.2 C 21.6 72.2 21.8 72.3 22 72.3 C 22.1 72.3 22.2 72.3 22.3 72.2 C 22.4 72.2 22.5 72.2 22.5 72.2 C 22.5 72.2 22.8 73.3 22.8 73.3 C 22.7 73.4 22.6 73.4 22.4 73.4 C 22.3 73.5 22.1 73.5 21.8 73.5 C 21.5 73.5 21.1 73.4 20.8 73.3 C 20.5 73.1 20.2 72.9 20 72.6 C 19.7 72.2 19.6 71.9 19.6 71.4 C 19.62 71.38 19.6 63.2 19.6 63.2 Z M 25.7 68.5 C 25.66 68.46 25.7 73.4 25.7 73.4 L 24.4 73.4 L 24.4 62.5 L 25.7 62.5 L 25.7 66.5 C 25.7 66.5 25.77 66.48 25.8 66.5 C 26 66.1 26.2 65.7 26.6 65.5 C 27 65.2 27.5 65.1 28.2 65.1 C 28.7 65.1 29.2 65.2 29.6 65.4 C 30.1 65.6 30.4 66 30.6 66.4 C 30.8 66.9 31 67.5 31 68.2 C 30.96 68.18 31 73.4 31 73.4 L 29.7 73.4 C 29.7 73.4 29.71 68.27 29.7 68.3 C 29.7 67.6 29.5 67.1 29.2 66.8 C 28.9 66.4 28.4 66.2 27.8 66.2 C 27.4 66.2 27 66.3 26.7 66.5 C 26.4 66.7 26.1 66.9 25.9 67.2 C 25.8 67.6 25.7 68 25.7 68.5 Z M 36.6 73.6 C 35.8 73.6 35.2 73.4 34.6 73 C 34.1 72.7 33.6 72.2 33.3 71.5 C 33 70.9 32.9 70.2 32.9 69.3 C 32.9 68.5 33 67.7 33.3 67.1 C 33.6 66.5 34.1 66 34.6 65.6 C 35.2 65.3 35.8 65.1 36.6 65.1 C 37.3 65.1 37.9 65.3 38.5 65.6 C 39.1 66 39.5 66.5 39.8 67.1 C 40.1 67.7 40.3 68.5 40.3 69.3 C 40.3 70.2 40.1 70.9 39.8 71.5 C 39.5 72.2 39.1 72.7 38.5 73 C 37.9 73.4 37.3 73.6 36.6 73.6 Z M 36.6 72.4 C 37.1 72.4 37.6 72.3 37.9 72 C 38.3 71.7 38.6 71.3 38.8 70.9 C 38.9 70.4 39 69.9 39 69.3 C 39 68.8 38.9 68.3 38.8 67.8 C 38.6 67.3 38.3 67 37.9 66.7 C 37.6 66.4 37.1 66.2 36.6 66.2 C 36 66.2 35.5 66.4 35.2 66.7 C 34.8 67 34.5 67.3 34.4 67.8 C 34.2 68.3 34.1 68.8 34.1 69.3 C 34.1 69.9 34.2 70.4 34.4 70.9 C 34.5 71.3 34.8 71.7 35.2 72 C 35.5 72.3 36 72.4 36.6 72.4 Z M 47.3 70 C 47.29 70.04 47.3 65.2 47.3 65.2 L 48.6 65.2 L 48.6 73.4 L 47.3 73.4 L 47.3 72 C 47.3 72 47.21 72 47.2 72 C 47 72.4 46.7 72.8 46.3 73.1 C 45.9 73.3 45.4 73.5 44.8 73.5 C 44.3 73.5 43.8 73.4 43.4 73.2 C 43 72.9 42.7 72.6 42.5 72.1 C 42.3 71.7 42.1 71.1 42.1 70.4 C 42.14 70.4 42.1 65.2 42.1 65.2 L 43.4 65.2 C 43.4 65.2 43.39 70.31 43.4 70.3 C 43.4 70.9 43.6 71.4 43.9 71.7 C 44.2 72.1 44.7 72.3 45.2 72.3 C 45.5 72.3 45.8 72.2 46.1 72 C 46.5 71.9 46.7 71.6 47 71.3 C 47.2 71 47.3 70.5 47.3 70 Z M 54.4 65.2 L 54.4 66.3 L 50.1 66.3 L 50.1 65.2 L 54.4 65.2 Z M 51.3 63.2 L 52.6 63.2 C 52.6 63.2 52.61 71.04 52.6 71 C 52.6 71.4 52.7 71.7 52.8 71.8 C 52.9 72 53 72.1 53.2 72.2 C 53.3 72.2 53.5 72.3 53.7 72.3 C 53.8 72.3 53.9 72.3 54 72.2 C 54.1 72.2 54.2 72.2 54.2 72.2 C 54.2 72.2 54.5 73.3 54.5 73.3 C 54.4 73.4 54.3 73.4 54.1 73.4 C 54 73.5 53.8 73.5 53.6 73.5 C 53.2 73.5 52.9 73.4 52.5 73.3 C 52.2 73.1 51.9 72.9 51.7 72.6 C 51.5 72.2 51.3 71.9 51.3 71.4 C 51.35 71.38 51.3 63.2 51.3 63.2 Z M 62.9 73.6 C 62.4 73.6 61.9 73.5 61.5 73.3 C 61 73.1 60.7 72.8 60.5 72.4 C 60.2 72 60.1 71.6 60.1 71.1 C 60.1 70.6 60.2 70.2 60.4 69.9 C 60.5 69.6 60.8 69.4 61.1 69.2 C 61.4 69.1 61.8 68.9 62.1 68.9 C 62.5 68.8 62.9 68.7 63.3 68.7 C 63.8 68.6 64.2 68.5 64.5 68.5 C 64.8 68.5 65 68.4 65.2 68.3 C 65.3 68.3 65.4 68.1 65.4 67.9 C 65.4 67.9 65.4 67.9 65.4 67.9 C 65.4 67.3 65.2 66.9 64.9 66.6 C 64.7 66.3 64.2 66.2 63.6 66.2 C 63 66.2 62.6 66.3 62.2 66.6 C 61.9 66.9 61.7 67.1 61.5 67.4 C 61.5 67.4 60.3 67 60.3 67 C 60.5 66.5 60.8 66.1 61.2 65.8 C 61.5 65.6 61.9 65.4 62.3 65.3 C 62.8 65.1 63.2 65.1 63.6 65.1 C 63.9 65.1 64.2 65.1 64.5 65.2 C 64.9 65.2 65.2 65.4 65.5 65.6 C 65.8 65.8 66.1 66 66.3 66.4 C 66.5 66.8 66.6 67.3 66.6 68 C 66.63 67.99 66.6 73.4 66.6 73.4 L 65.4 73.4 L 65.4 72.3 C 65.4 72.3 65.31 72.27 65.3 72.3 C 65.2 72.5 65.1 72.6 64.9 72.8 C 64.7 73 64.4 73.2 64.1 73.4 C 63.8 73.5 63.4 73.6 62.9 73.6 Z M 63.1 72.4 C 63.6 72.4 64 72.3 64.3 72.2 C 64.7 72 64.9 71.7 65.1 71.4 C 65.3 71.1 65.4 70.8 65.4 70.4 C 65.4 70.4 65.4 69.3 65.4 69.3 C 65.3 69.3 65.2 69.4 65 69.4 C 64.8 69.5 64.6 69.5 64.4 69.6 C 64.2 69.6 63.9 69.6 63.7 69.7 C 63.5 69.7 63.3 69.7 63.2 69.7 C 62.9 69.8 62.6 69.8 62.3 69.9 C 62 70 61.8 70.2 61.6 70.4 C 61.4 70.6 61.3 70.8 61.3 71.1 C 61.3 71.6 61.5 71.9 61.8 72.1 C 62.2 72.3 62.6 72.4 63.1 72.4 Z M 72.2 73.6 C 71.5 73.6 70.8 73.4 70.2 73 C 69.7 72.6 69.3 72.1 69 71.5 C 68.7 70.9 68.5 70.2 68.5 69.3 C 68.5 68.5 68.7 67.8 69 67.1 C 69.3 66.5 69.7 66 70.3 65.6 C 70.8 65.3 71.5 65.1 72.2 65.1 C 72.8 65.1 73.3 65.2 73.8 65.4 C 74.2 65.6 74.6 65.9 74.9 66.3 C 75.2 66.7 75.4 67.1 75.4 67.7 C 75.4 67.7 74.2 67.7 74.2 67.7 C 74.1 67.3 73.9 66.9 73.5 66.7 C 73.2 66.4 72.8 66.2 72.2 66.2 C 71.7 66.2 71.3 66.3 70.9 66.6 C 70.6 66.9 70.3 67.2 70.1 67.7 C 69.9 68.1 69.8 68.7 69.8 69.3 C 69.8 69.9 69.9 70.5 70.1 70.9 C 70.3 71.4 70.6 71.8 70.9 72 C 71.3 72.3 71.7 72.4 72.2 72.4 C 72.6 72.4 72.8 72.4 73.1 72.3 C 73.4 72.1 73.6 72 73.8 71.8 C 74 71.5 74.1 71.3 74.2 71 C 74.2 71 75.4 71 75.4 71 C 75.4 71.5 75.2 71.9 74.9 72.3 C 74.6 72.7 74.3 73 73.8 73.2 C 73.4 73.4 72.8 73.6 72.2 73.6 Z M 80.5 73.6 C 79.8 73.6 79.1 73.4 78.5 73 C 78 72.6 77.6 72.1 77.3 71.5 C 77 70.9 76.8 70.2 76.8 69.3 C 76.8 68.5 77 67.8 77.3 67.1 C 77.6 66.5 78 66 78.6 65.6 C 79.1 65.3 79.8 65.1 80.5 65.1 C 81.1 65.1 81.6 65.2 82.1 65.4 C 82.5 65.6 82.9 65.9 83.2 66.3 C 83.5 66.7 83.7 67.1 83.7 67.7 C 83.7 67.7 82.5 67.7 82.5 67.7 C 82.4 67.3 82.2 66.9 81.8 66.7 C 81.5 66.4 81.1 66.2 80.5 66.2 C 80 66.2 79.6 66.3 79.2 66.6 C 78.9 66.9 78.6 67.2 78.4 67.7 C 78.2 68.1 78.1 68.7 78.1 69.3 C 78.1 69.9 78.2 70.5 78.4 70.9 C 78.6 71.4 78.9 71.8 79.2 72 C 79.6 72.3 80 72.4 80.5 72.4 C 80.9 72.4 81.1 72.4 81.4 72.3 C 81.7 72.1 81.9 72 82.1 71.8 C 82.3 71.5 82.4 71.3 82.5 71 C 82.5 71 83.7 71 83.7 71 C 83.7 71.5 83.5 71.9 83.2 72.3 C 82.9 72.7 82.6 73 82.1 73.2 C 81.7 73.4 81.1 73.6 80.5 73.6 Z M 88.9 73.6 C 88.1 73.6 87.5 73.4 86.9 73 C 86.3 72.7 85.9 72.2 85.6 71.6 C 85.3 70.9 85.1 70.2 85.1 69.4 C 85.1 68.5 85.3 67.8 85.6 67.1 C 85.9 66.5 86.3 66 86.9 65.6 C 87.4 65.3 88.1 65.1 88.8 65.1 C 89.2 65.1 89.7 65.2 90.1 65.3 C 90.5 65.4 90.9 65.7 91.2 66 C 91.5 66.3 91.8 66.7 92 67.3 C 92.2 67.8 92.3 68.4 92.3 69.2 C 92.33 69.18 92.3 69.7 92.3 69.7 L 86 69.7 L 86 68.6 C 86 68.6 91.05 68.63 91 68.6 C 91 68.2 91 67.8 90.8 67.4 C 90.6 67 90.3 66.7 90 66.5 C 89.7 66.3 89.3 66.2 88.8 66.2 C 88.3 66.2 87.9 66.3 87.5 66.6 C 87.1 66.8 86.9 67.2 86.7 67.6 C 86.5 67.9 86.4 68.4 86.4 68.8 C 86.4 68.8 86.4 69.5 86.4 69.5 C 86.4 70.2 86.5 70.7 86.7 71.1 C 86.9 71.5 87.2 71.9 87.6 72.1 C 88 72.3 88.4 72.4 88.9 72.4 C 89.3 72.4 89.6 72.4 89.8 72.3 C 90.1 72.2 90.3 72 90.5 71.9 C 90.7 71.7 90.9 71.4 91 71.1 C 91 71.1 92.2 71.5 92.2 71.5 C 92.1 71.9 91.9 72.3 91.6 72.6 C 91.3 72.9 90.9 73.1 90.4 73.3 C 90 73.5 89.5 73.6 88.9 73.6 Z M 99.9 67 C 99.9 67 98.8 67.4 98.8 67.4 C 98.7 67.2 98.6 67 98.5 66.8 C 98.4 66.6 98.2 66.5 98 66.4 C 97.7 66.2 97.4 66.2 97.1 66.2 C 96.6 66.2 96.1 66.3 95.8 66.5 C 95.5 66.8 95.3 67 95.3 67.4 C 95.3 67.7 95.4 68 95.6 68.1 C 95.9 68.3 96.2 68.5 96.7 68.6 C 96.7 68.6 97.9 68.9 97.9 68.9 C 98.7 69.1 99.2 69.3 99.6 69.7 C 99.9 70.1 100.1 70.5 100.1 71.1 C 100.1 71.6 100 72 99.7 72.4 C 99.4 72.7 99.1 73 98.6 73.2 C 98.1 73.4 97.5 73.6 96.9 73.6 C 96.1 73.6 95.4 73.4 94.8 73 C 94.3 72.6 93.9 72.1 93.8 71.4 C 93.8 71.4 95 71.1 95 71.1 C 95.1 71.6 95.3 71.9 95.6 72.1 C 95.9 72.3 96.4 72.4 96.9 72.4 C 97.5 72.4 97.9 72.3 98.3 72.1 C 98.6 71.8 98.8 71.5 98.8 71.2 C 98.8 70.9 98.7 70.6 98.5 70.4 C 98.3 70.3 98 70.1 97.6 70 C 97.6 70 96.2 69.7 96.2 69.7 C 95.5 69.5 94.9 69.2 94.6 68.9 C 94.2 68.5 94 68 94 67.5 C 94 67 94.2 66.6 94.4 66.2 C 94.7 65.9 95.1 65.6 95.5 65.4 C 96 65.2 96.5 65.1 97.1 65.1 C 97.9 65.1 98.5 65.3 99 65.6 C 99.4 66 99.8 66.5 99.9 67 Z M 107.8 67 C 107.8 67 106.6 67.4 106.6 67.4 C 106.6 67.2 106.5 67 106.3 66.8 C 106.2 66.6 106 66.5 105.8 66.4 C 105.5 66.2 105.2 66.2 104.9 66.2 C 104.4 66.2 104 66.3 103.6 66.5 C 103.3 66.8 103.1 67 103.1 67.4 C 103.1 67.7 103.2 68 103.5 68.1 C 103.7 68.3 104 68.5 104.5 68.6 C 104.5 68.6 105.7 68.9 105.7 68.9 C 106.5 69.1 107 69.3 107.4 69.7 C 107.7 70.1 107.9 70.5 107.9 71.1 C 107.9 71.6 107.8 72 107.5 72.4 C 107.3 72.7 106.9 73 106.4 73.2 C 105.9 73.4 105.4 73.6 104.7 73.6 C 103.9 73.6 103.2 73.4 102.7 73 C 102.1 72.6 101.8 72.1 101.6 71.4 C 101.6 71.4 102.8 71.1 102.8 71.1 C 102.9 71.6 103.1 71.9 103.5 72.1 C 103.8 72.3 104.2 72.4 104.7 72.4 C 105.3 72.4 105.8 72.3 106.1 72.1 C 106.4 71.8 106.6 71.5 106.6 71.2 C 106.6 70.9 106.5 70.6 106.3 70.4 C 106.1 70.3 105.8 70.1 105.4 70 C 105.4 70 104 69.7 104 69.7 C 103.3 69.5 102.7 69.2 102.4 68.9 C 102 68.5 101.9 68 101.9 67.5 C 101.9 67 102 66.6 102.3 66.2 C 102.5 65.9 102.9 65.6 103.3 65.4 C 103.8 65.2 104.3 65.1 104.9 65.1 C 105.7 65.1 106.3 65.3 106.8 65.6 C 107.2 66 107.6 66.5 107.8 67 Z M 117.6 65.2 L 117.6 66.3 L 113.4 66.3 L 113.4 65.2 L 117.6 65.2 Z M 114.6 63.2 L 115.8 63.2 C 115.8 63.2 115.85 71.04 115.8 71 C 115.8 71.4 115.9 71.7 116 71.8 C 116.1 72 116.2 72.1 116.4 72.2 C 116.6 72.2 116.7 72.3 116.9 72.3 C 117.1 72.3 117.2 72.3 117.3 72.2 C 117.4 72.2 117.4 72.2 117.5 72.2 C 117.5 72.2 117.7 73.3 117.7 73.3 C 117.7 73.4 117.5 73.4 117.4 73.4 C 117.2 73.5 117 73.5 116.8 73.5 C 116.5 73.5 116.1 73.4 115.8 73.3 C 115.4 73.1 115.1 72.9 114.9 72.6 C 114.7 72.2 114.6 71.9 114.6 71.4 C 114.59 71.38 114.6 63.2 114.6 63.2 Z M 122.4 73.6 C 121.7 73.6 121 73.4 120.5 73 C 119.9 72.7 119.5 72.2 119.2 71.5 C 118.8 70.9 118.7 70.2 118.7 69.3 C 118.7 68.5 118.8 67.7 119.2 67.1 C 119.5 66.5 119.9 66 120.5 65.6 C 121 65.3 121.7 65.1 122.4 65.1 C 123.1 65.1 123.8 65.3 124.3 65.6 C 124.9 66 125.3 66.5 125.6 67.1 C 125.9 67.7 126.1 68.5 126.1 69.3 C 126.1 70.2 125.9 70.9 125.6 71.5 C 125.3 72.2 124.9 72.7 124.3 73 C 123.8 73.4 123.1 73.6 122.4 73.6 Z M 122.4 72.4 C 123 72.4 123.4 72.3 123.8 72 C 124.1 71.7 124.4 71.3 124.6 70.9 C 124.8 70.4 124.8 69.9 124.8 69.3 C 124.8 68.8 124.8 68.3 124.6 67.8 C 124.4 67.3 124.1 67 123.8 66.7 C 123.4 66.4 123 66.2 122.4 66.2 C 121.8 66.2 121.4 66.4 121 66.7 C 120.6 67 120.4 67.3 120.2 67.8 C 120 68.3 119.9 68.8 119.9 69.3 C 119.9 69.9 120 70.4 120.2 70.9 C 120.4 71.3 120.6 71.7 121 72 C 121.4 72.3 121.8 72.4 122.4 72.4 Z M 134.6 73.6 C 134.1 73.6 133.7 73.5 133.2 73.3 C 132.8 73.1 132.5 72.8 132.2 72.4 C 132 72 131.9 71.6 131.9 71.1 C 131.9 70.6 131.9 70.2 132.1 69.9 C 132.3 69.6 132.6 69.4 132.9 69.2 C 133.2 69.1 133.5 68.9 133.9 68.9 C 134.3 68.8 134.7 68.7 135 68.7 C 135.5 68.6 135.9 68.5 136.2 68.5 C 136.6 68.5 136.8 68.4 136.9 68.3 C 137.1 68.3 137.1 68.1 137.1 67.9 C 137.1 67.9 137.1 67.9 137.1 67.9 C 137.1 67.3 137 66.9 136.7 66.6 C 136.4 66.3 136 66.2 135.4 66.2 C 134.8 66.2 134.3 66.3 134 66.6 C 133.7 66.9 133.4 67.1 133.3 67.4 C 133.3 67.4 132.1 67 132.1 67 C 132.3 66.5 132.6 66.1 132.9 65.8 C 133.3 65.6 133.7 65.4 134.1 65.3 C 134.5 65.1 135 65.1 135.4 65.1 C 135.6 65.1 135.9 65.1 136.3 65.2 C 136.6 65.2 137 65.4 137.3 65.6 C 137.6 65.8 137.9 66 138.1 66.4 C 138.3 66.8 138.4 67.3 138.4 68 C 138.4 67.99 138.4 73.4 138.4 73.4 L 137.1 73.4 L 137.1 72.3 C 137.1 72.3 137.08 72.27 137.1 72.3 C 137 72.5 136.9 72.6 136.7 72.8 C 136.5 73 136.2 73.2 135.9 73.4 C 135.5 73.5 135.1 73.6 134.6 73.6 Z M 134.8 72.4 C 135.3 72.4 135.8 72.3 136.1 72.2 C 136.4 72 136.7 71.7 136.9 71.4 C 137.1 71.1 137.1 70.8 137.1 70.4 C 137.1 70.4 137.1 69.3 137.1 69.3 C 137.1 69.3 137 69.4 136.8 69.4 C 136.6 69.5 136.4 69.5 136.2 69.6 C 135.9 69.6 135.7 69.6 135.5 69.7 C 135.3 69.7 135.1 69.7 135 69.7 C 134.6 69.8 134.3 69.8 134.1 69.9 C 133.8 70 133.5 70.2 133.4 70.4 C 133.2 70.6 133.1 70.8 133.1 71.1 C 133.1 71.6 133.3 71.9 133.6 72.1 C 133.9 72.3 134.3 72.4 134.8 72.4 Z M 141.9 62.5 L 141.9 73.4 L 140.7 73.4 L 140.7 62.5 L 141.9 62.5 Z M 145.5 62.5 L 145.5 73.4 L 144.2 73.4 L 144.2 62.5 L 145.5 62.5 Z " stroke="none" fill="#000"/>  </g>  <g id="Polygon115410">    <path d="M 6.5 48.4 C 5.5 48.4 4.6 48.1 3.7 47.6 C 2.9 47.1 2.2 46.3 1.7 45.2 C 1.2 44.2 1 42.9 1 41.4 C 1 39.8 1.3 38.5 1.8 37.5 C 2.3 36.4 2.9 35.7 3.8 35.1 C 4.6 34.6 5.5 34.4 6.5 34.4 C 7.3 34.4 7.9 34.5 8.4 34.8 C 9 35 9.4 35.3 9.7 35.7 C 10 36.1 10.2 36.5 10.4 36.8 C 10.4 36.84 10.5 36.8 10.5 36.8 L 10.5 30 L 14.3 30 L 14.3 48.2 L 10.6 48.2 L 10.6 46 C 10.6 46 10.4 46 10.4 46 C 10.2 46.4 10 46.8 9.7 47.1 C 9.3 47.5 8.9 47.8 8.4 48 C 7.9 48.3 7.3 48.4 6.5 48.4 Z M 7.7 45.4 C 8.3 45.4 8.9 45.2 9.3 44.9 C 9.7 44.6 10 44.1 10.3 43.5 C 10.5 42.9 10.6 42.2 10.6 41.4 C 10.6 40.6 10.5 39.8 10.3 39.3 C 10 38.7 9.7 38.2 9.3 37.9 C 8.9 37.5 8.3 37.4 7.7 37.4 C 7.1 37.4 6.6 37.5 6.2 37.9 C 5.7 38.2 5.4 38.7 5.2 39.3 C 5 39.9 4.9 40.6 4.9 41.4 C 4.9 42.2 5 42.9 5.2 43.5 C 5.4 44.1 5.7 44.5 6.2 44.9 C 6.6 45.2 7.1 45.4 7.7 45.4 Z M 21 48.4 C 20.1 48.4 19.3 48.3 18.7 48 C 18 47.7 17.5 47.2 17.1 46.6 C 16.7 46 16.5 45.3 16.5 44.4 C 16.5 43.6 16.6 43 16.9 42.5 C 17.2 41.9 17.5 41.5 18 41.2 C 18.5 40.9 19 40.7 19.7 40.5 C 20.3 40.4 20.9 40.2 21.6 40.2 C 22.4 40.1 23 40 23.5 39.9 C 24 39.9 24.3 39.8 24.6 39.6 C 24.8 39.5 24.9 39.2 24.9 38.9 C 24.9 38.9 24.9 38.9 24.9 38.9 C 24.9 38.3 24.7 37.9 24.4 37.6 C 24 37.3 23.5 37.1 22.9 37.1 C 22.2 37.1 21.6 37.3 21.2 37.6 C 20.8 37.9 20.6 38.3 20.4 38.7 C 20.4 38.7 16.9 38.4 16.9 38.4 C 17.1 37.6 17.5 36.9 18 36.3 C 18.5 35.7 19.2 35.2 20 34.9 C 20.8 34.5 21.8 34.4 22.9 34.4 C 23.6 34.4 24.4 34.5 25.1 34.6 C 25.8 34.8 26.4 35.1 26.9 35.5 C 27.5 35.8 27.9 36.3 28.2 36.9 C 28.5 37.5 28.7 38.2 28.7 39 C 28.67 38.98 28.7 48.2 28.7 48.2 L 25.1 48.2 L 25.1 46.3 C 25.1 46.3 24.98 46.29 25 46.3 C 24.8 46.7 24.5 47.1 24.1 47.4 C 23.7 47.7 23.3 48 22.8 48.2 C 22.3 48.3 21.7 48.4 21 48.4 Z M 22.1 45.8 C 22.6 45.8 23.1 45.7 23.6 45.5 C 24 45.3 24.3 45 24.6 44.6 C 24.8 44.2 24.9 43.8 24.9 43.3 C 24.9 43.3 24.9 41.9 24.9 41.9 C 24.8 41.9 24.6 42 24.4 42.1 C 24.2 42.1 24 42.2 23.7 42.2 C 23.5 42.3 23.2 42.3 23 42.4 C 22.7 42.4 22.5 42.4 22.3 42.5 C 21.8 42.5 21.5 42.6 21.1 42.8 C 20.8 42.9 20.5 43.1 20.4 43.4 C 20.2 43.6 20.1 43.9 20.1 44.2 C 20.1 44.8 20.3 45.2 20.6 45.4 C 21 45.7 21.5 45.8 22.1 45.8 Z M 38.4 34.5 L 38.4 37.4 L 30.2 37.4 L 30.2 34.5 L 38.4 34.5 Z M 32.1 31.3 L 35.9 31.3 C 35.9 31.3 35.86 43.99 35.9 44 C 35.9 44.3 35.9 44.6 36 44.8 C 36.1 45 36.3 45.1 36.5 45.2 C 36.7 45.3 36.9 45.3 37.1 45.3 C 37.3 45.3 37.5 45.3 37.7 45.3 C 37.8 45.2 38 45.2 38.1 45.2 C 38.1 45.2 38.7 48 38.7 48 C 38.5 48.1 38.2 48.1 37.9 48.2 C 37.5 48.3 37.1 48.4 36.6 48.4 C 35.7 48.4 34.9 48.3 34.2 48 C 33.5 47.7 33 47.3 32.6 46.7 C 32.3 46.1 32.1 45.4 32.1 44.5 C 32.08 44.49 32.1 31.3 32.1 31.3 Z M 44.5 48.4 C 43.6 48.4 42.8 48.3 42.1 48 C 41.5 47.7 40.9 47.2 40.5 46.6 C 40.1 46 39.9 45.3 39.9 44.4 C 39.9 43.6 40.1 43 40.3 42.5 C 40.6 41.9 41 41.5 41.5 41.2 C 42 40.9 42.5 40.7 43.1 40.5 C 43.7 40.4 44.4 40.2 45.1 40.2 C 45.8 40.1 46.5 40 47 39.9 C 47.5 39.9 47.8 39.8 48 39.6 C 48.2 39.5 48.4 39.2 48.4 38.9 C 48.4 38.9 48.4 38.9 48.4 38.9 C 48.4 38.3 48.2 37.9 47.8 37.6 C 47.5 37.3 47 37.1 46.3 37.1 C 45.7 37.1 45.1 37.3 44.7 37.6 C 44.3 37.9 44 38.3 43.9 38.7 C 43.9 38.7 40.4 38.4 40.4 38.4 C 40.6 37.6 40.9 36.9 41.5 36.3 C 42 35.7 42.7 35.2 43.5 34.9 C 44.3 34.5 45.3 34.4 46.3 34.4 C 47.1 34.4 47.8 34.5 48.5 34.6 C 49.2 34.8 49.8 35.1 50.4 35.5 C 50.9 35.8 51.4 36.3 51.7 36.9 C 52 37.5 52.1 38.2 52.1 39 C 52.14 38.98 52.1 48.2 52.1 48.2 L 48.6 48.2 L 48.6 46.3 C 48.6 46.3 48.44 46.29 48.4 46.3 C 48.2 46.7 47.9 47.1 47.6 47.4 C 47.2 47.7 46.8 48 46.2 48.2 C 45.7 48.3 45.1 48.4 44.5 48.4 Z M 45.5 45.8 C 46.1 45.8 46.6 45.7 47 45.5 C 47.4 45.3 47.8 45 48 44.6 C 48.3 44.2 48.4 43.8 48.4 43.3 C 48.4 43.3 48.4 41.9 48.4 41.9 C 48.3 41.9 48.1 42 47.9 42.1 C 47.7 42.1 47.5 42.2 47.2 42.2 C 47 42.3 46.7 42.3 46.4 42.4 C 46.2 42.4 46 42.4 45.8 42.5 C 45.3 42.5 44.9 42.6 44.6 42.8 C 44.3 42.9 44 43.1 43.8 43.4 C 43.6 43.6 43.5 43.9 43.5 44.2 C 43.5 44.8 43.7 45.2 44.1 45.4 C 44.5 45.7 45 45.8 45.5 45.8 Z M 64.8 48.4 C 63.9 48.4 63.1 48.3 62.4 48 C 61.8 47.7 61.2 47.2 60.8 46.6 C 60.4 46 60.2 45.3 60.2 44.4 C 60.2 43.6 60.4 43 60.7 42.5 C 60.9 41.9 61.3 41.5 61.8 41.2 C 62.3 40.9 62.8 40.7 63.4 40.5 C 64 40.4 64.7 40.2 65.4 40.2 C 66.1 40.1 66.8 40 67.3 39.9 C 67.8 39.9 68.1 39.8 68.3 39.6 C 68.5 39.5 68.7 39.2 68.7 38.9 C 68.7 38.9 68.7 38.9 68.7 38.9 C 68.7 38.3 68.5 37.9 68.1 37.6 C 67.8 37.3 67.3 37.1 66.6 37.1 C 66 37.1 65.4 37.3 65 37.6 C 64.6 37.9 64.3 38.3 64.2 38.7 C 64.2 38.7 60.7 38.4 60.7 38.4 C 60.9 37.6 61.2 36.9 61.8 36.3 C 62.3 35.7 63 35.2 63.8 34.9 C 64.6 34.5 65.6 34.4 66.7 34.4 C 67.4 34.4 68.1 34.5 68.8 34.6 C 69.5 34.8 70.1 35.1 70.7 35.5 C 71.2 35.8 71.7 36.3 72 36.9 C 72.3 37.5 72.4 38.2 72.4 39 C 72.44 38.98 72.4 48.2 72.4 48.2 L 68.9 48.2 L 68.9 46.3 C 68.9 46.3 68.75 46.29 68.7 46.3 C 68.5 46.7 68.2 47.1 67.9 47.4 C 67.5 47.7 67.1 48 66.5 48.2 C 66 48.3 65.4 48.4 64.8 48.4 Z M 65.8 45.8 C 66.4 45.8 66.9 45.7 67.3 45.5 C 67.7 45.3 68.1 45 68.3 44.6 C 68.6 44.2 68.7 43.8 68.7 43.3 C 68.7 43.3 68.7 41.9 68.7 41.9 C 68.6 41.9 68.4 42 68.2 42.1 C 68 42.1 67.8 42.2 67.5 42.2 C 67.3 42.3 67 42.3 66.8 42.4 C 66.5 42.4 66.3 42.4 66.1 42.5 C 65.6 42.5 65.2 42.6 64.9 42.8 C 64.6 42.9 64.3 43.1 64.1 43.4 C 63.9 43.6 63.8 43.9 63.8 44.2 C 63.8 44.8 64 45.2 64.4 45.4 C 64.8 45.7 65.3 45.8 65.8 45.8 Z M 81.4 48.4 C 80 48.4 78.8 48.2 77.8 47.6 C 76.8 47 76 46.1 75.5 45.1 C 75 44 74.7 42.8 74.7 41.4 C 74.7 40 75 38.8 75.5 37.7 C 76 36.7 76.8 35.9 77.8 35.3 C 78.8 34.7 80 34.4 81.4 34.4 C 82.6 34.4 83.6 34.6 84.5 35 C 85.4 35.4 86.1 36.1 86.6 36.8 C 87.2 37.6 87.4 38.5 87.5 39.6 C 87.5 39.6 83.9 39.6 83.9 39.6 C 83.8 38.9 83.6 38.4 83.1 37.9 C 82.7 37.5 82.1 37.3 81.4 37.3 C 80.9 37.3 80.4 37.5 79.9 37.8 C 79.5 38.1 79.1 38.6 78.9 39.2 C 78.7 39.8 78.5 40.5 78.5 41.4 C 78.5 42.2 78.7 43 78.9 43.6 C 79.1 44.2 79.5 44.7 79.9 45 C 80.4 45.3 80.9 45.5 81.4 45.5 C 81.9 45.5 82.3 45.4 82.6 45.2 C 83 45 83.3 44.8 83.5 44.4 C 83.7 44.1 83.9 43.7 83.9 43.2 C 83.9 43.2 87.5 43.2 87.5 43.2 C 87.4 44.2 87.2 45.1 86.6 45.9 C 86.1 46.7 85.4 47.3 84.6 47.8 C 83.7 48.2 82.6 48.4 81.4 48.4 Z M 95.9 48.4 C 94.5 48.4 93.3 48.2 92.3 47.6 C 91.3 47 90.5 46.1 90 45.1 C 89.4 44 89.2 42.8 89.2 41.4 C 89.2 40 89.4 38.8 90 37.7 C 90.5 36.7 91.3 35.9 92.3 35.3 C 93.3 34.7 94.5 34.4 95.9 34.4 C 97 34.4 98.1 34.6 99 35 C 99.9 35.4 100.6 36.1 101.1 36.8 C 101.6 37.6 101.9 38.5 102 39.6 C 102 39.6 98.4 39.6 98.4 39.6 C 98.3 38.9 98 38.4 97.6 37.9 C 97.2 37.5 96.6 37.3 95.9 37.3 C 95.3 37.3 94.8 37.5 94.4 37.8 C 94 38.1 93.6 38.6 93.4 39.2 C 93.1 39.8 93 40.5 93 41.4 C 93 42.2 93.1 43 93.4 43.6 C 93.6 44.2 93.9 44.7 94.4 45 C 94.8 45.3 95.3 45.5 95.9 45.5 C 96.4 45.5 96.7 45.4 97.1 45.2 C 97.4 45 97.7 44.8 97.9 44.4 C 98.2 44.1 98.3 43.7 98.4 43.2 C 98.4 43.2 102 43.2 102 43.2 C 101.9 44.2 101.6 45.1 101.1 45.9 C 100.6 46.7 99.9 47.3 99 47.8 C 98.1 48.2 97.1 48.4 95.9 48.4 Z M 110.4 48.4 C 109 48.4 107.8 48.2 106.8 47.6 C 105.8 47 105 46.2 104.5 45.2 C 103.9 44.1 103.6 42.9 103.6 41.4 C 103.6 40 103.9 38.8 104.5 37.7 C 105 36.7 105.8 35.8 106.8 35.3 C 107.8 34.7 108.9 34.4 110.3 34.4 C 111.2 34.4 112 34.5 112.8 34.8 C 113.6 35.1 114.2 35.5 114.8 36.1 C 115.4 36.7 115.9 37.4 116.2 38.3 C 116.5 39.1 116.7 40.1 116.7 41.3 C 116.67 41.29 116.7 42.3 116.7 42.3 L 105.2 42.3 L 105.2 40 C 105.2 40 113.11 39.99 113.1 40 C 113.1 39.4 113 39 112.8 38.5 C 112.5 38.1 112.2 37.8 111.8 37.6 C 111.4 37.3 110.9 37.2 110.3 37.2 C 109.7 37.2 109.2 37.3 108.8 37.6 C 108.4 37.8 108 38.2 107.8 38.6 C 107.5 39.1 107.4 39.6 107.4 40.1 C 107.4 40.1 107.4 42.3 107.4 42.3 C 107.4 43 107.5 43.6 107.8 44.1 C 108 44.6 108.4 45 108.8 45.2 C 109.3 45.5 109.8 45.6 110.5 45.6 C 110.9 45.6 111.3 45.6 111.6 45.4 C 112 45.3 112.3 45.2 112.5 44.9 C 112.8 44.7 113 44.4 113.1 44 C 113.1 44 116.6 44.3 116.6 44.3 C 116.4 45.1 116 45.8 115.5 46.5 C 115 47.1 114.2 47.6 113.4 47.9 C 112.5 48.3 111.5 48.4 110.4 48.4 Z M 130.2 38.4 C 130.2 38.4 126.8 38.6 126.8 38.6 C 126.7 38.4 126.6 38.1 126.4 37.8 C 126.2 37.6 125.9 37.4 125.6 37.3 C 125.3 37.1 124.9 37 124.5 37 C 123.9 37 123.4 37.2 123 37.4 C 122.6 37.7 122.4 38 122.4 38.4 C 122.4 38.7 122.5 39 122.8 39.2 C 123.1 39.4 123.5 39.6 124.1 39.8 C 124.1 39.8 126.6 40.3 126.6 40.3 C 127.9 40.5 128.9 41 129.6 41.6 C 130.2 42.2 130.6 43 130.6 44 C 130.6 44.8 130.3 45.6 129.8 46.3 C 129.2 47 128.5 47.5 127.6 47.9 C 126.7 48.3 125.7 48.4 124.5 48.4 C 122.7 48.4 121.2 48.1 120.2 47.3 C 119.1 46.6 118.5 45.5 118.3 44.2 C 118.3 44.2 122 44 122 44 C 122.1 44.6 122.4 45 122.8 45.3 C 123.3 45.6 123.8 45.7 124.5 45.7 C 125.1 45.7 125.7 45.6 126.1 45.3 C 126.5 45.1 126.7 44.7 126.7 44.3 C 126.7 44 126.6 43.7 126.3 43.5 C 126 43.3 125.5 43.1 125 43 C 125 43 122.6 42.5 122.6 42.5 C 121.3 42.2 120.3 41.8 119.6 41.1 C 119 40.5 118.7 39.6 118.7 38.6 C 118.7 37.7 118.9 37 119.4 36.3 C 119.8 35.7 120.5 35.2 121.4 34.9 C 122.3 34.5 123.3 34.4 124.4 34.4 C 126.2 34.4 127.5 34.7 128.5 35.5 C 129.5 36.2 130.1 37.2 130.2 38.4 Z M 144.2 38.4 C 144.2 38.4 140.7 38.6 140.7 38.6 C 140.6 38.4 140.5 38.1 140.3 37.8 C 140.1 37.6 139.9 37.4 139.6 37.3 C 139.2 37.1 138.9 37 138.4 37 C 137.8 37 137.3 37.2 136.9 37.4 C 136.5 37.7 136.3 38 136.3 38.4 C 136.3 38.7 136.5 39 136.7 39.2 C 137 39.4 137.4 39.6 138.1 39.8 C 138.1 39.8 140.5 40.3 140.5 40.3 C 141.9 40.5 142.8 41 143.5 41.6 C 144.1 42.2 144.5 43 144.5 44 C 144.5 44.8 144.2 45.6 143.7 46.3 C 143.2 47 142.4 47.5 141.5 47.9 C 140.6 48.3 139.6 48.4 138.4 48.4 C 136.6 48.4 135.2 48.1 134.1 47.3 C 133 46.6 132.4 45.5 132.2 44.2 C 132.2 44.2 135.9 44 135.9 44 C 136 44.6 136.3 45 136.8 45.3 C 137.2 45.6 137.7 45.7 138.4 45.7 C 139.1 45.7 139.6 45.6 140 45.3 C 140.4 45.1 140.6 44.7 140.6 44.3 C 140.6 44 140.5 43.7 140.2 43.5 C 139.9 43.3 139.5 43.1 138.9 43 C 138.9 43 136.5 42.5 136.5 42.5 C 135.2 42.2 134.2 41.8 133.6 41.1 C 132.9 40.5 132.6 39.6 132.6 38.6 C 132.6 37.7 132.8 37 133.3 36.3 C 133.8 35.7 134.4 35.2 135.3 34.9 C 136.2 34.5 137.2 34.4 138.4 34.4 C 140.1 34.4 141.4 34.7 142.4 35.5 C 143.4 36.2 144 37.2 144.2 38.4 Z " stroke="none" fill="#10283d"/>  </g>  <g id="Polygon115409">    <path d="M 5.4 0 L 5.4 18.2 L 1.6 18.2 L 1.6 0 L 5.4 0 Z M 12.3 10.3 C 12.27 10.3 12.3 18.2 12.3 18.2 L 8.5 18.2 L 8.5 4.5 L 12.1 4.5 L 12.1 7 C 12.1 7 12.25 6.95 12.3 7 C 12.6 6.2 13.1 5.5 13.8 5.1 C 14.5 4.6 15.3 4.4 16.4 4.4 C 17.3 4.4 18.1 4.6 18.8 5 C 19.5 5.4 20.1 6 20.5 6.8 C 20.9 7.5 21.1 8.4 21.1 9.5 C 21.06 9.5 21.1 18.2 21.1 18.2 L 17.3 18.2 C 17.3 18.2 17.28 10.17 17.3 10.2 C 17.3 9.3 17.1 8.7 16.6 8.2 C 16.2 7.7 15.6 7.5 14.9 7.5 C 14.3 7.5 13.9 7.6 13.5 7.8 C 13.1 8.1 12.8 8.4 12.6 8.8 C 12.4 9.2 12.3 9.7 12.3 10.3 Z M 30 18.4 C 28.6 18.4 27.4 18.2 26.4 17.6 C 25.4 17 24.6 16.1 24.1 15.1 C 23.6 14 23.3 12.8 23.3 11.4 C 23.3 10 23.6 8.8 24.1 7.7 C 24.7 6.7 25.4 5.9 26.4 5.3 C 27.4 4.7 28.6 4.4 30 4.4 C 31.2 4.4 32.2 4.6 33.1 5 C 34 5.4 34.7 6.1 35.2 6.8 C 35.8 7.6 36 8.5 36.1 9.6 C 36.1 9.6 32.5 9.6 32.5 9.6 C 32.4 8.9 32.2 8.4 31.7 7.9 C 31.3 7.5 30.7 7.3 30.1 7.3 C 29.5 7.3 29 7.5 28.5 7.8 C 28.1 8.1 27.7 8.6 27.5 9.2 C 27.3 9.8 27.1 10.5 27.1 11.4 C 27.1 12.2 27.3 13 27.5 13.6 C 27.7 14.2 28.1 14.7 28.5 15 C 29 15.3 29.5 15.5 30.1 15.5 C 30.5 15.5 30.9 15.4 31.2 15.2 C 31.6 15 31.9 14.8 32.1 14.4 C 32.3 14.1 32.5 13.7 32.5 13.2 C 32.5 13.2 36.1 13.2 36.1 13.2 C 36 14.2 35.8 15.1 35.3 15.9 C 34.7 16.7 34 17.3 33.2 17.8 C 32.3 18.2 31.2 18.4 30 18.4 Z M 44.5 18.4 C 43.1 18.4 41.9 18.2 40.9 17.6 C 39.9 17 39.1 16.2 38.6 15.1 C 38.1 14 37.8 12.8 37.8 11.4 C 37.8 10 38.1 8.8 38.6 7.7 C 39.1 6.7 39.9 5.8 40.9 5.3 C 41.9 4.7 43.1 4.4 44.5 4.4 C 45.9 4.4 47.1 4.7 48.1 5.3 C 49.1 5.8 49.8 6.7 50.4 7.7 C 50.9 8.8 51.2 10 51.2 11.4 C 51.2 12.8 50.9 14 50.4 15.1 C 49.8 16.2 49.1 17 48.1 17.6 C 47.1 18.2 45.9 18.4 44.5 18.4 Z M 44.5 15.5 C 45.1 15.5 45.7 15.3 46.1 15 C 46.5 14.6 46.8 14.1 47 13.5 C 47.2 12.9 47.4 12.2 47.4 11.4 C 47.4 10.6 47.2 9.9 47 9.3 C 46.8 8.6 46.5 8.2 46.1 7.8 C 45.7 7.4 45.1 7.3 44.5 7.3 C 43.9 7.3 43.3 7.4 42.9 7.8 C 42.5 8.2 42.2 8.6 41.9 9.3 C 41.7 9.9 41.6 10.6 41.6 11.4 C 41.6 12.2 41.7 12.9 41.9 13.5 C 42.2 14.1 42.5 14.6 42.9 15 C 43.3 15.3 43.9 15.5 44.5 15.5 Z M 53.6 18.2 L 53.6 4.5 L 57.2 4.5 L 57.2 7 C 57.2 7 57.34 6.95 57.3 7 C 57.6 6.2 58.1 5.5 58.8 5.1 C 59.4 4.6 60.2 4.4 61.1 4.4 C 62.1 4.4 62.9 4.6 63.5 5.1 C 64.2 5.5 64.6 6.2 64.8 7 C 64.8 7 65 7 65 7 C 65.3 6.2 65.8 5.5 66.5 5.1 C 67.2 4.6 68.1 4.4 69.1 4.4 C 70.4 4.4 71.4 4.8 72.2 5.6 C 73 6.4 73.4 7.5 73.4 9 C 73.4 9.01 73.4 18.2 73.4 18.2 L 69.6 18.2 C 69.6 18.2 69.62 9.76 69.6 9.8 C 69.6 9 69.4 8.4 69 8.1 C 68.6 7.7 68.1 7.5 67.5 7.5 C 66.8 7.5 66.3 7.7 65.9 8.1 C 65.5 8.6 65.3 9.1 65.3 9.9 C 65.33 9.85 65.3 18.2 65.3 18.2 L 61.7 18.2 C 61.7 18.2 61.66 9.68 61.7 9.7 C 61.7 9 61.5 8.5 61.1 8.1 C 60.7 7.7 60.2 7.5 59.6 7.5 C 59.2 7.5 58.8 7.6 58.4 7.8 C 58.1 8 57.8 8.3 57.7 8.7 C 57.5 9.1 57.4 9.5 57.4 10 C 57.36 10 57.4 18.2 57.4 18.2 L 53.6 18.2 Z M 76.3 23.3 L 76.3 4.5 L 80 4.5 L 80 6.8 C 80 6.8 80.16 6.84 80.2 6.8 C 80.3 6.5 80.6 6.1 80.9 5.7 C 81.2 5.3 81.6 5 82.1 4.8 C 82.6 4.5 83.3 4.4 84 4.4 C 85 4.4 86 4.6 86.8 5.1 C 87.6 5.7 88.3 6.4 88.8 7.5 C 89.3 8.5 89.6 9.8 89.6 11.4 C 89.6 12.9 89.3 14.2 88.8 15.2 C 88.3 16.3 87.7 17.1 86.8 17.6 C 86 18.1 85.1 18.4 84 18.4 C 83.3 18.4 82.7 18.3 82.2 18 C 81.7 17.8 81.2 17.5 80.9 17.1 C 80.6 16.8 80.3 16.4 80.2 16 C 80.16 16 80 16 80 16 L 80 23.3 L 76.3 23.3 Z M 80 11.4 C 80 12.2 80.1 12.9 80.3 13.5 C 80.5 14.1 80.9 14.6 81.3 14.9 C 81.7 15.2 82.2 15.4 82.8 15.4 C 83.5 15.4 84 15.2 84.4 14.9 C 84.8 14.5 85.1 14.1 85.4 13.5 C 85.6 12.9 85.7 12.2 85.7 11.4 C 85.7 10.6 85.6 9.9 85.4 9.3 C 85.2 8.7 84.8 8.2 84.4 7.9 C 84 7.5 83.5 7.4 82.8 7.4 C 82.2 7.4 81.7 7.5 81.3 7.9 C 80.9 8.2 80.5 8.7 80.3 9.3 C 80.1 9.8 80 10.6 80 11.4 Z M 95.8 0 L 95.8 18.2 L 92 18.2 L 92 0 L 95.8 0 Z M 105 18.4 C 103.6 18.4 102.3 18.2 101.3 17.6 C 100.3 17 99.6 16.2 99 15.2 C 98.5 14.1 98.2 12.9 98.2 11.4 C 98.2 10 98.5 8.8 99 7.7 C 99.6 6.7 100.3 5.8 101.3 5.3 C 102.3 4.7 103.5 4.4 104.8 4.4 C 105.7 4.4 106.5 4.5 107.3 4.8 C 108.1 5.1 108.8 5.5 109.4 6.1 C 109.9 6.7 110.4 7.4 110.7 8.3 C 111.1 9.1 111.2 10.1 111.2 11.3 C 111.22 11.29 111.2 12.3 111.2 12.3 L 99.7 12.3 L 99.7 10 C 99.7 10 107.66 9.99 107.7 10 C 107.7 9.4 107.5 9 107.3 8.5 C 107.1 8.1 106.7 7.8 106.3 7.6 C 105.9 7.3 105.4 7.2 104.9 7.2 C 104.3 7.2 103.8 7.3 103.3 7.6 C 102.9 7.8 102.6 8.2 102.3 8.6 C 102.1 9.1 101.9 9.6 101.9 10.1 C 101.9 10.1 101.9 12.3 101.9 12.3 C 101.9 13 102.1 13.6 102.3 14.1 C 102.6 14.6 102.9 15 103.4 15.2 C 103.8 15.5 104.4 15.6 105 15.6 C 105.4 15.6 105.8 15.6 106.2 15.4 C 106.5 15.3 106.8 15.2 107.1 14.9 C 107.3 14.7 107.5 14.4 107.6 14 C 107.6 14 111.1 14.3 111.1 14.3 C 111 15.1 110.6 15.8 110 16.5 C 109.5 17.1 108.8 17.6 107.9 17.9 C 107.1 18.3 106.1 18.4 105 18.4 Z M 120.5 4.5 L 120.5 7.4 L 112.3 7.4 L 112.3 4.5 L 120.5 4.5 Z M 114.1 1.3 L 117.9 1.3 C 117.9 1.3 117.91 13.99 117.9 14 C 117.9 14.3 118 14.6 118.1 14.8 C 118.2 15 118.3 15.1 118.5 15.2 C 118.7 15.3 118.9 15.3 119.2 15.3 C 119.4 15.3 119.5 15.3 119.7 15.3 C 119.9 15.2 120 15.2 120.1 15.2 C 120.1 15.2 120.7 18 120.7 18 C 120.5 18.1 120.3 18.1 119.9 18.2 C 119.6 18.3 119.2 18.4 118.7 18.4 C 117.8 18.4 117 18.3 116.3 18 C 115.6 17.7 115.1 17.3 114.7 16.7 C 114.3 16.1 114.1 15.4 114.1 14.5 C 114.13 14.49 114.1 1.3 114.1 1.3 Z M 128.4 18.4 C 127 18.4 125.7 18.2 124.7 17.6 C 123.7 17 123 16.2 122.4 15.2 C 121.9 14.1 121.6 12.9 121.6 11.4 C 121.6 10 121.9 8.8 122.4 7.7 C 123 6.7 123.7 5.8 124.7 5.3 C 125.7 4.7 126.9 4.4 128.2 4.4 C 129.1 4.4 129.9 4.5 130.7 4.8 C 131.5 5.1 132.2 5.5 132.8 6.1 C 133.3 6.7 133.8 7.4 134.1 8.3 C 134.5 9.1 134.6 10.1 134.6 11.3 C 134.61 11.29 134.6 12.3 134.6 12.3 L 123.1 12.3 L 123.1 10 C 123.1 10 131.05 9.99 131.1 10 C 131.1 9.4 130.9 9 130.7 8.5 C 130.5 8.1 130.1 7.8 129.7 7.6 C 129.3 7.3 128.8 7.2 128.3 7.2 C 127.7 7.2 127.2 7.3 126.7 7.6 C 126.3 7.8 126 8.2 125.7 8.6 C 125.5 9.1 125.3 9.6 125.3 10.1 C 125.3 10.1 125.3 12.3 125.3 12.3 C 125.3 13 125.5 13.6 125.7 14.1 C 126 14.6 126.3 15 126.8 15.2 C 127.2 15.5 127.8 15.6 128.4 15.6 C 128.8 15.6 129.2 15.6 129.6 15.4 C 129.9 15.3 130.2 15.2 130.5 14.9 C 130.7 14.7 130.9 14.4 131 14 C 131 14 134.5 14.3 134.5 14.3 C 134.4 15.1 134 15.8 133.4 16.5 C 132.9 17.1 132.2 17.6 131.3 17.9 C 130.5 18.3 129.5 18.4 128.4 18.4 Z " stroke="none" fill="#10283d"/>  </g>  <g id="Polygon115411">    <path d="M 152.1 40.8 L 158.7 47.3 L 165.3 40.8 " style="stroke-width:1.8pt; stroke:#838f98;" fill="none"/>  </g>  <g id="Polygon115416">    <path d="M 149.6 132.9 L 122.5 132.9 M 143.1 139.6 L 149.7 133 L 143.1 126.4 " style="stroke-width:1.8pt; stroke:#ff4f00;" fill="none"/>  </g></svg>