<?xml version="1.0" standalone="no"?><!DOCTYPE svg PUBLIC "-//W3C//DTD SVG 1.1//EN" "http://www.w3.org/Graphics/SVG/1.1/DTD/svg11.dtd"><svg xmlns="http://www.w3.org/2000/svg" version="1.1" width="563px" height="261.6px" viewBox="0 -7 563 261.6" style="top:-7px">  <desc>“ AI automatically incorporates data and information from across the company.”</desc>  <defs/>  <g id="Polygon117216">    <path d="M 30 200.3 L 30 203.7 L 16.5 203.7 L 16.5 200.3 L 30 200.3 Z M 20.4 194 L 24.5 194 C 24.5 194 24.46 219 24.5 219 C 24.5 220.1 24.6 221 25 221.5 C 25.3 222.1 25.7 222.5 26.3 222.7 C 26.8 222.9 27.3 223 27.9 223 C 28.4 223 28.7 222.9 29 222.9 C 29.3 222.8 29.5 222.8 29.7 222.8 C 29.7 222.8 30.5 226.4 30.5 226.4 C 30.3 226.5 29.9 226.6 29.4 226.7 C 28.9 226.8 28.3 226.8 27.5 226.8 C 26.4 226.8 25.3 226.6 24.2 226.1 C 23.1 225.6 22.2 224.9 21.5 223.9 C 20.8 222.9 20.4 221.6 20.4 220.1 C 20.43 220.09 20.4 194 20.4 194 Z M 39.2 210.8 C 39.18 210.75 39.2 226.5 39.2 226.5 L 35.2 226.5 L 35.2 191.6 L 39.2 191.6 L 39.2 204.4 C 39.2 204.4 39.52 204.41 39.5 204.4 C 40.1 203.1 41.1 202 42.3 201.2 C 43.5 200.4 45.2 200 47.2 200 C 49 200 50.6 200.3 51.9 201 C 53.3 201.8 54.3 202.8 55 204.3 C 55.8 205.8 56.2 207.6 56.2 209.9 C 56.16 209.86 56.2 226.5 56.2 226.5 L 52.1 226.5 C 52.1 226.5 52.14 210.14 52.1 210.1 C 52.1 208.1 51.6 206.4 50.5 205.3 C 49.5 204.2 48 203.6 46.1 203.6 C 44.8 203.6 43.6 203.9 42.5 204.4 C 41.5 205 40.7 205.8 40.1 206.9 C 39.5 207.9 39.2 209.2 39.2 210.8 Z M 73.9 227 C 71.3 227 69.2 226.5 67.3 225.4 C 65.5 224.2 64.1 222.7 63.1 220.7 C 62.2 218.6 61.7 216.3 61.7 213.6 C 61.7 210.9 62.2 208.6 63.1 206.5 C 64.1 204.5 65.5 202.9 67.3 201.7 C 69 200.6 71.1 200 73.5 200 C 74.8 200 76.2 200.2 77.5 200.7 C 78.8 201.1 80 201.8 81.1 202.9 C 82.2 203.9 83.1 205.2 83.7 206.9 C 84.4 208.6 84.7 210.6 84.7 213.1 C 84.71 213.07 84.7 214.8 84.7 214.8 L 64.5 214.8 L 64.5 211.3 C 64.5 211.3 80.62 211.3 80.6 211.3 C 80.6 209.8 80.3 208.5 79.7 207.3 C 79.2 206.2 78.3 205.3 77.3 204.6 C 76.2 203.9 74.9 203.6 73.5 203.6 C 71.9 203.6 70.5 204 69.3 204.8 C 68.1 205.6 67.2 206.6 66.6 207.9 C 66 209.1 65.7 210.5 65.7 211.9 C 65.7 211.9 65.7 214.2 65.7 214.2 C 65.7 216.2 66 217.9 66.7 219.2 C 67.4 220.6 68.4 221.7 69.6 222.4 C 70.8 223.1 72.2 223.4 73.9 223.4 C 74.9 223.4 75.9 223.3 76.7 223 C 77.6 222.7 78.3 222.2 79 221.6 C 79.6 221 80.1 220.3 80.4 219.3 C 80.4 219.3 84.3 220.4 84.3 220.4 C 83.9 221.8 83.2 222.9 82.2 223.9 C 81.3 224.9 80.1 225.7 78.7 226.2 C 77.2 226.8 75.6 227 73.9 227 Z M 115 227 C 112.5 227 110.4 226.5 108.6 225.3 C 106.9 224.1 105.5 222.6 104.5 220.5 C 103.6 218.5 103.1 216.2 103.1 213.5 C 103.1 210.9 103.6 208.5 104.6 206.5 C 105.6 204.5 106.9 202.9 108.7 201.7 C 110.5 200.6 112.5 200 114.9 200 C 116.8 200 118.4 200.3 119.9 201 C 121.4 201.7 122.6 202.6 123.5 203.9 C 124.5 205.1 125 206.5 125.3 208.2 C 125.3 208.2 121.3 208.2 121.3 208.2 C 120.9 207 120.3 205.9 119.2 205 C 118.2 204.1 116.8 203.6 115 203.6 C 113.4 203.6 112 204 110.9 204.8 C 109.7 205.6 108.8 206.8 108.1 208.2 C 107.5 209.7 107.1 211.4 107.1 213.4 C 107.1 215.4 107.5 217.2 108.1 218.7 C 108.7 220.2 109.7 221.4 110.8 222.2 C 112 223 113.4 223.4 115 223.4 C 116 223.4 117 223.3 117.8 222.9 C 118.7 222.5 119.4 222 120 221.3 C 120.6 220.6 121 219.8 121.3 218.9 C 121.3 218.9 125.3 218.9 125.3 218.9 C 125 220.4 124.5 221.8 123.6 223 C 122.7 224.3 121.5 225.2 120.1 226 C 118.6 226.7 116.9 227 115 227 Z M 141 227 C 138.6 227 136.6 226.5 134.8 225.4 C 133 224.2 131.6 222.7 130.6 220.6 C 129.6 218.6 129.1 216.3 129.1 213.5 C 129.1 210.8 129.6 208.4 130.6 206.4 C 131.6 204.4 133 202.8 134.8 201.7 C 136.6 200.5 138.6 200 141 200 C 143.4 200 145.4 200.5 147.2 201.7 C 149 202.8 150.4 204.4 151.4 206.4 C 152.4 208.4 152.9 210.8 152.9 213.5 C 152.9 216.3 152.4 218.6 151.4 220.6 C 150.4 222.7 149 224.2 147.2 225.4 C 145.4 226.5 143.4 227 141 227 Z M 141 223.4 C 142.8 223.4 144.3 223 145.4 222.1 C 146.6 221.1 147.5 219.9 148 218.4 C 148.6 216.9 148.8 215.3 148.8 213.5 C 148.8 211.8 148.6 210.2 148 208.7 C 147.5 207.1 146.6 205.9 145.4 205 C 144.3 204.1 142.8 203.6 141 203.6 C 139.2 203.6 137.7 204.1 136.6 205 C 135.4 205.9 134.6 207.1 134 208.7 C 133.4 210.2 133.2 211.8 133.2 213.5 C 133.2 215.3 133.4 216.9 134 218.4 C 134.6 219.9 135.4 221.1 136.6 222.1 C 137.7 223 139.2 223.4 141 223.4 Z M 158.5 226.5 L 158.5 200.3 L 162.4 200.3 L 162.4 204.4 C 162.4 204.4 162.69 204.41 162.7 204.4 C 163.2 203 164.1 201.9 165.3 201.1 C 166.6 200.4 168 200 169.7 200 C 171.4 200 172.9 200.4 174 201.1 C 175.2 201.9 176.1 203 176.7 204.4 C 176.7 204.4 177 204.4 177 204.4 C 177.7 203.1 178.7 202 180 201.2 C 181.4 200.4 183 200 184.9 200 C 187.2 200 189.1 200.7 190.6 202.2 C 192.1 203.6 192.8 205.9 192.8 209 C 192.83 208.98 192.8 226.5 192.8 226.5 L 188.8 226.5 C 188.8 226.5 188.81 208.98 188.8 209 C 188.8 207 188.3 205.7 187.2 204.8 C 186.2 204 184.9 203.6 183.5 203.6 C 181.6 203.6 180.2 204.1 179.2 205.3 C 178.2 206.4 177.7 207.8 177.7 209.5 C 177.69 209.45 177.7 226.5 177.7 226.5 L 173.6 226.5 C 173.6 226.5 173.6 208.57 173.6 208.6 C 173.6 207.1 173.1 205.9 172.2 205 C 171.2 204 169.9 203.6 168.4 203.6 C 167.4 203.6 166.4 203.9 165.5 204.4 C 164.6 205 163.9 205.8 163.3 206.7 C 162.8 207.7 162.5 208.9 162.5 210.1 C 162.49 210.14 162.5 226.5 162.5 226.5 L 158.5 226.5 Z M 199.6 236.3 L 199.6 200.3 L 203.5 200.3 L 203.5 204.5 C 203.5 204.5 203.97 204.48 204 204.5 C 204.3 204 204.7 203.4 205.2 202.7 C 205.7 202 206.5 201.4 207.5 200.8 C 208.5 200.3 209.8 200 211.5 200 C 213.7 200 215.7 200.5 217.4 201.6 C 219 202.7 220.4 204.3 221.3 206.3 C 222.2 208.3 222.7 210.7 222.7 213.5 C 222.7 216.3 222.2 218.7 221.3 220.7 C 220.4 222.7 219.1 224.3 217.4 225.4 C 215.7 226.5 213.8 227 211.6 227 C 209.9 227 208.6 226.8 207.6 226.2 C 206.6 225.6 205.8 225 205.2 224.3 C 204.7 223.6 204.3 223 204 222.5 C 203.97 222.48 203.6 222.5 203.6 222.5 L 203.6 236.3 L 199.6 236.3 Z M 203.6 213.4 C 203.6 215.4 203.9 217.1 204.4 218.6 C 205 220.1 205.9 221.3 207 222.2 C 208.1 223 209.4 223.4 211.1 223.4 C 212.7 223.4 214.1 223 215.3 222.1 C 216.4 221.2 217.3 220 217.8 218.5 C 218.4 217 218.7 215.3 218.7 213.4 C 218.7 211.6 218.4 209.9 217.9 208.4 C 217.3 206.9 216.4 205.8 215.3 204.9 C 214.2 204 212.8 203.6 211.1 203.6 C 209.4 203.6 208 204 206.9 204.8 C 205.8 205.7 205 206.8 204.4 208.3 C 203.8 209.7 203.6 211.5 203.6 213.4 Z M 235.8 227.1 C 234.1 227.1 232.6 226.8 231.3 226.2 C 229.9 225.5 228.8 224.6 228 223.4 C 227.3 222.2 226.9 220.8 226.9 219.1 C 226.9 217.6 227.2 216.3 227.7 215.4 C 228.3 214.5 229.1 213.7 230.1 213.2 C 231.1 212.7 232.2 212.3 233.4 212 C 234.6 211.7 235.8 211.5 237 211.4 C 238.6 211.2 239.9 211 240.9 210.9 C 241.9 210.8 242.6 210.6 243.1 210.3 C 243.5 210.1 243.8 209.6 243.8 209 C 243.8 209 243.8 208.8 243.8 208.8 C 243.8 207.2 243.3 205.9 242.4 204.9 C 241.5 204 240.1 203.5 238.2 203.5 C 236.3 203.5 234.8 203.9 233.7 204.8 C 232.6 205.6 231.9 206.5 231.4 207.5 C 231.4 207.5 227.6 206.1 227.6 206.1 C 228.3 204.5 229.2 203.3 230.3 202.4 C 231.5 201.5 232.7 200.9 234.1 200.5 C 235.4 200.2 236.8 200 238.1 200 C 238.9 200 239.9 200.1 241 200.3 C 242.1 200.5 243.2 200.9 244.2 201.5 C 245.2 202.1 246.1 203 246.8 204.3 C 247.4 205.5 247.8 207.2 247.8 209.3 C 247.79 209.25 247.8 226.5 247.8 226.5 L 243.8 226.5 L 243.8 223 C 243.8 223 243.56 222.95 243.6 223 C 243.3 223.5 242.8 224.1 242.2 224.8 C 241.6 225.4 240.7 226 239.7 226.4 C 238.6 226.9 237.3 227.1 235.8 227.1 Z M 236.4 223.5 C 238 223.5 239.3 223.2 240.4 222.6 C 241.5 221.9 242.4 221.1 242.9 220.1 C 243.5 219.2 243.8 218.1 243.8 217 C 243.8 217 243.8 213.3 243.8 213.3 C 243.6 213.5 243.2 213.7 242.6 213.9 C 242.1 214.1 241.4 214.2 240.7 214.3 C 239.9 214.4 239.2 214.5 238.5 214.6 C 237.8 214.7 237.2 214.8 236.8 214.8 C 235.8 215 234.8 215.2 233.9 215.5 C 233 215.8 232.3 216.2 231.7 216.8 C 231.2 217.4 230.9 218.3 230.9 219.3 C 230.9 220.7 231.4 221.7 232.4 222.4 C 233.5 223.1 234.8 223.5 236.4 223.5 Z M 258.6 210.8 C 258.6 210.75 258.6 226.5 258.6 226.5 L 254.6 226.5 L 254.6 200.3 L 258.5 200.3 L 258.5 204.4 C 258.5 204.4 258.8 204.41 258.8 204.4 C 259.4 203.1 260.3 202 261.6 201.2 C 262.8 200.4 264.5 200 266.4 200 C 268.2 200 269.8 200.3 271.1 201.1 C 272.4 201.8 273.5 202.9 274.2 204.3 C 274.9 205.8 275.3 207.6 275.3 209.9 C 275.3 209.86 275.3 226.5 275.3 226.5 L 271.3 226.5 C 271.3 226.5 271.28 210.14 271.3 210.1 C 271.3 208.1 270.7 206.5 269.7 205.3 C 268.6 204.2 267.1 203.6 265.3 203.6 C 264 203.6 262.9 203.9 261.8 204.4 C 260.8 205 260 205.8 259.5 206.9 C 258.9 207.9 258.6 209.2 258.6 210.8 Z M 283.3 236.3 C 282.6 236.3 282 236.3 281.5 236.2 C 280.9 236 280.6 235.9 280.4 235.8 C 280.4 235.8 281.4 232.3 281.4 232.3 C 282.4 232.5 283.2 232.6 284 232.6 C 284.7 232.5 285.4 232.2 286 231.6 C 286.6 231 287.1 230 287.6 228.7 C 287.59 228.68 288.3 226.6 288.3 226.6 L 278.7 200.3 L 283 200.3 L 290.2 221.2 L 290.5 221.2 L 297.7 200.3 L 302.1 200.3 C 302.1 200.3 291 230.32 291 230.3 C 290.5 231.7 289.9 232.8 289.1 233.7 C 288.4 234.6 287.5 235.2 286.6 235.7 C 285.6 236.1 284.5 236.3 283.3 236.3 Z M 306.5 226.8 C 305.6 226.8 304.9 226.5 304.3 225.9 C 303.7 225.3 303.4 224.5 303.4 223.7 C 303.4 222.9 303.7 222.1 304.3 221.5 C 304.9 220.9 305.6 220.6 306.5 220.6 C 307.3 220.6 308 220.9 308.6 221.5 C 309.2 222.1 309.5 222.9 309.5 223.7 C 309.5 224.3 309.4 224.8 309.1 225.2 C 308.8 225.7 308.5 226.1 308 226.4 C 307.5 226.6 307 226.8 306.5 226.8 Z M 317.3 191.6 C 317.3 191.6 317.26 194.66 317.3 194.7 C 317.3 195.6 317.1 196.6 316.8 197.6 C 316.4 198.7 315.9 199.7 315.3 200.7 C 314.6 201.7 313.9 202.5 313 203.3 C 313 203.3 310.8 201.5 310.8 201.5 C 311.5 200.5 312.1 199.4 312.6 198.3 C 313.2 197.2 313.4 196 313.4 194.7 C 313.44 194.73 313.4 191.6 313.4 191.6 L 317.3 191.6 Z M 326 191.6 C 326 191.6 325.98 194.66 326 194.7 C 326 195.6 325.8 196.6 325.5 197.6 C 325.1 198.7 324.7 199.7 324 200.7 C 323.4 201.7 322.6 202.5 321.7 203.3 C 321.7 203.3 319.5 201.5 319.5 201.5 C 320.2 200.5 320.8 199.4 321.4 198.3 C 321.9 197.2 322.2 196 322.2 194.7 C 322.17 194.73 322.2 191.6 322.2 191.6 L 326 191.6 Z " stroke="none" fill="#ffffff"/>  </g>  <g id="Polygon117215">    <path d="M 18.7 166.5 L 18.7 140.3 L 22.7 140.3 L 22.7 166.5 L 18.7 166.5 Z M 20.7 136 C 19.9 136 19.2 135.7 18.7 135.2 C 18.1 134.6 17.8 134 17.8 133.2 C 17.8 132.5 18.1 131.8 18.7 131.3 C 19.2 130.8 19.9 130.5 20.7 130.5 C 21.5 130.5 22.2 130.8 22.7 131.3 C 23.3 131.8 23.6 132.5 23.6 133.2 C 23.6 134 23.3 134.6 22.7 135.2 C 22.2 135.7 21.5 136 20.7 136 Z M 33.6 150.8 C 33.56 150.75 33.6 166.5 33.6 166.5 L 29.5 166.5 L 29.5 140.3 L 33.4 140.3 L 33.4 144.4 C 33.4 144.4 33.76 144.41 33.8 144.4 C 34.4 143.1 35.3 142 36.6 141.2 C 37.8 140.4 39.4 140 41.4 140 C 43.2 140 44.7 140.3 46.1 141.1 C 47.4 141.8 48.4 142.9 49.2 144.3 C 49.9 145.8 50.3 147.6 50.3 149.9 C 50.26 149.86 50.3 166.5 50.3 166.5 L 46.2 166.5 C 46.2 166.5 46.24 150.14 46.2 150.1 C 46.2 148.1 45.7 146.5 44.6 145.3 C 43.6 144.2 42.1 143.6 40.2 143.6 C 39 143.6 37.8 143.9 36.8 144.4 C 35.8 145 35 145.8 34.4 146.9 C 33.8 147.9 33.6 149.2 33.6 150.8 Z M 68.1 140.3 L 68.1 143.7 L 54 143.7 L 54 140.3 L 68.1 140.3 Z M 58.2 166.5 C 58.2 166.5 58.25 136.7 58.2 136.7 C 58.2 135.2 58.6 134 59.3 133 C 60 132 60.9 131.2 62 130.7 C 63.2 130.2 64.4 130 65.6 130 C 66.6 130 67.4 130 68 130.2 C 68.7 130.4 69.1 130.5 69.4 130.6 C 69.4 130.6 68.3 134.1 68.3 134.1 C 68.1 134 67.8 134 67.4 133.9 C 67.1 133.8 66.6 133.7 66 133.7 C 64.7 133.7 63.7 134 63.1 134.7 C 62.6 135.4 62.3 136.4 62.3 137.7 C 62.27 137.66 62.3 166.5 62.3 166.5 L 58.2 166.5 Z M 82.7 167 C 80.3 167 78.2 166.5 76.4 165.4 C 74.7 164.2 73.3 162.7 72.3 160.6 C 71.3 158.6 70.8 156.3 70.8 153.5 C 70.8 150.8 71.3 148.4 72.3 146.4 C 73.3 144.4 74.7 142.8 76.4 141.7 C 78.2 140.5 80.3 140 82.7 140 C 85 140 87.1 140.5 88.9 141.7 C 90.6 142.8 92 144.4 93 146.4 C 94 148.4 94.5 150.8 94.5 153.5 C 94.5 156.3 94 158.6 93 160.6 C 92 162.7 90.6 164.2 88.9 165.4 C 87.1 166.5 85 167 82.7 167 Z M 82.7 163.4 C 84.4 163.4 85.9 163 87.1 162.1 C 88.2 161.1 89.1 159.9 89.7 158.4 C 90.2 156.9 90.5 155.3 90.5 153.5 C 90.5 151.8 90.2 150.2 89.7 148.7 C 89.1 147.1 88.2 145.9 87.1 145 C 85.9 144.1 84.4 143.6 82.7 143.6 C 80.9 143.6 79.4 144.1 78.2 145 C 77.1 145.9 76.2 147.1 75.6 148.7 C 75.1 150.2 74.8 151.8 74.8 153.5 C 74.8 155.3 75.1 156.9 75.6 158.4 C 76.2 159.9 77.1 161.1 78.2 162.1 C 79.4 163 80.9 163.4 82.7 163.4 Z M 100.1 166.5 L 100.1 140.3 L 104 140.3 L 104 144.3 C 104 144.3 104.27 144.27 104.3 144.3 C 104.7 143 105.6 141.9 106.9 141.1 C 108.1 140.3 109.5 139.9 111.1 139.9 C 111.4 139.9 111.8 139.9 112.2 139.9 C 112.6 139.9 113 140 113.2 140 C 113.2 140 113.2 144.1 113.2 144.1 C 113.1 144 112.8 144 112.3 143.9 C 111.8 143.8 111.3 143.8 110.7 143.8 C 109.5 143.8 108.3 144.1 107.3 144.6 C 106.4 145.1 105.6 145.8 105 146.8 C 104.4 147.7 104.1 148.8 104.1 149.9 C 104.14 149.93 104.1 166.5 104.1 166.5 L 100.1 166.5 Z M 117.5 166.5 L 117.5 140.3 L 121.3 140.3 L 121.3 144.4 C 121.3 144.4 121.69 144.41 121.7 144.4 C 122.2 143 123.1 141.9 124.3 141.1 C 125.5 140.4 127 140 128.7 140 C 130.4 140 131.9 140.4 133 141.1 C 134.2 141.9 135.1 143 135.7 144.4 C 135.7 144.4 136 144.4 136 144.4 C 136.7 143.1 137.7 142 139 141.2 C 140.4 140.4 142 140 143.8 140 C 146.2 140 148.1 140.7 149.6 142.2 C 151.1 143.6 151.8 145.9 151.8 149 C 151.83 148.98 151.8 166.5 151.8 166.5 L 147.8 166.5 C 147.8 166.5 147.8 148.98 147.8 149 C 147.8 147 147.3 145.7 146.2 144.8 C 145.2 144 143.9 143.6 142.5 143.6 C 140.6 143.6 139.2 144.1 138.2 145.3 C 137.2 146.4 136.7 147.8 136.7 149.5 C 136.69 149.45 136.7 166.5 136.7 166.5 L 132.6 166.5 C 132.6 166.5 132.6 148.57 132.6 148.6 C 132.6 147.1 132.1 145.9 131.2 145 C 130.2 144 128.9 143.6 127.4 143.6 C 126.4 143.6 125.4 143.9 124.5 144.4 C 123.6 145 122.9 145.8 122.3 146.7 C 121.8 147.7 121.5 148.9 121.5 150.1 C 121.49 150.14 121.5 166.5 121.5 166.5 L 117.5 166.5 Z M 166.2 167.1 C 164.5 167.1 163 166.8 161.6 166.2 C 160.3 165.5 159.2 164.6 158.4 163.4 C 157.6 162.2 157.2 160.8 157.2 159.1 C 157.2 157.6 157.5 156.3 158.1 155.4 C 158.7 154.5 159.5 153.7 160.5 153.2 C 161.5 152.7 162.6 152.3 163.8 152 C 165 151.7 166.2 151.5 167.4 151.4 C 169 151.2 170.3 151 171.3 150.9 C 172.3 150.8 173 150.6 173.5 150.3 C 173.9 150.1 174.1 149.6 174.1 149 C 174.1 149 174.1 148.8 174.1 148.8 C 174.1 147.2 173.7 145.9 172.8 144.9 C 171.9 144 170.5 143.5 168.6 143.5 C 166.7 143.5 165.2 143.9 164.1 144.8 C 163 145.6 162.2 146.5 161.8 147.5 C 161.8 147.5 158 146.1 158 146.1 C 158.7 144.5 159.6 143.3 160.7 142.4 C 161.9 141.5 163.1 140.9 164.5 140.5 C 165.8 140.2 167.2 140 168.5 140 C 169.3 140 170.3 140.1 171.4 140.3 C 172.5 140.5 173.5 140.9 174.6 141.5 C 175.6 142.1 176.5 143 177.1 144.3 C 177.8 145.5 178.2 147.2 178.2 149.3 C 178.16 149.25 178.2 166.5 178.2 166.5 L 174.1 166.5 L 174.1 163 C 174.1 163 173.94 162.95 173.9 163 C 173.7 163.5 173.2 164.1 172.6 164.8 C 171.9 165.4 171.1 166 170 166.4 C 169 166.9 167.7 167.1 166.2 167.1 Z M 166.8 163.5 C 168.4 163.5 169.7 163.2 170.8 162.6 C 171.9 161.9 172.7 161.1 173.3 160.1 C 173.9 159.2 174.1 158.1 174.1 157 C 174.1 157 174.1 153.3 174.1 153.3 C 174 153.5 173.6 153.7 173 153.9 C 172.5 154.1 171.8 154.2 171 154.3 C 170.3 154.4 169.6 154.5 168.9 154.6 C 168.2 154.7 167.6 154.8 167.2 154.8 C 166.1 155 165.2 155.2 164.3 155.5 C 163.4 155.8 162.6 156.2 162.1 156.8 C 161.5 157.4 161.3 158.3 161.3 159.3 C 161.3 160.7 161.8 161.7 162.8 162.4 C 163.9 163.1 165.2 163.5 166.8 163.5 Z M 195.7 140.3 L 195.7 143.7 L 182.1 143.7 L 182.1 140.3 L 195.7 140.3 Z M 186.1 134 L 190.1 134 C 190.1 134 190.08 159 190.1 159 C 190.1 160.1 190.2 161 190.6 161.5 C 190.9 162.1 191.4 162.5 191.9 162.7 C 192.4 162.9 193 163 193.6 163 C 194 163 194.4 162.9 194.6 162.9 C 194.9 162.8 195.2 162.8 195.3 162.8 C 195.3 162.8 196.1 166.4 196.1 166.4 C 195.9 166.5 195.5 166.6 195 166.7 C 194.5 166.8 193.9 166.8 193.1 166.8 C 192 166.8 190.9 166.6 189.8 166.1 C 188.7 165.6 187.8 164.9 187.1 163.9 C 186.4 162.9 186.1 161.6 186.1 160.1 C 186.06 160.09 186.1 134 186.1 134 Z M 200.8 166.5 L 200.8 140.3 L 204.8 140.3 L 204.8 166.5 L 200.8 166.5 Z M 202.8 136 C 202 136 201.4 135.7 200.8 135.2 C 200.2 134.6 200 134 200 133.2 C 200 132.5 200.2 131.8 200.8 131.3 C 201.4 130.8 202 130.5 202.8 130.5 C 203.6 130.5 204.3 130.8 204.8 131.3 C 205.4 131.8 205.7 132.5 205.7 133.2 C 205.7 134 205.4 134.6 204.8 135.2 C 204.3 135.7 203.6 136 202.8 136 Z M 222.1 167 C 219.8 167 217.7 166.5 215.9 165.4 C 214.1 164.2 212.8 162.7 211.8 160.6 C 210.8 158.6 210.3 156.3 210.3 153.5 C 210.3 150.8 210.8 148.4 211.8 146.4 C 212.8 144.4 214.1 142.8 215.9 141.7 C 217.7 140.5 219.8 140 222.1 140 C 224.5 140 226.6 140.5 228.3 141.7 C 230.1 142.8 231.5 144.4 232.5 146.4 C 233.5 148.4 234 150.8 234 153.5 C 234 156.3 233.5 158.6 232.5 160.6 C 231.5 162.7 230.1 164.2 228.3 165.4 C 226.6 166.5 224.5 167 222.1 167 Z M 222.1 163.4 C 223.9 163.4 225.4 163 226.6 162.1 C 227.7 161.1 228.6 159.9 229.1 158.4 C 229.7 156.9 230 155.3 230 153.5 C 230 151.8 229.7 150.2 229.1 148.7 C 228.6 147.1 227.7 145.9 226.6 145 C 225.4 144.1 223.9 143.6 222.1 143.6 C 220.3 143.6 218.9 144.1 217.7 145 C 216.5 145.9 215.7 147.1 215.1 148.7 C 214.6 150.2 214.3 151.8 214.3 153.5 C 214.3 155.3 214.6 156.9 215.1 158.4 C 215.7 159.9 216.5 161.1 217.7 162.1 C 218.9 163 220.3 163.4 222.1 163.4 Z M 243.6 150.8 C 243.61 150.75 243.6 166.5 243.6 166.5 L 239.6 166.5 L 239.6 140.3 L 243.5 140.3 L 243.5 144.4 C 243.5 144.4 243.82 144.41 243.8 144.4 C 244.4 143.1 245.4 142 246.6 141.2 C 247.9 140.4 249.5 140 251.5 140 C 253.2 140 254.8 140.3 256.1 141.1 C 257.4 141.8 258.5 142.9 259.2 144.3 C 260 145.8 260.3 147.6 260.3 149.9 C 260.32 149.86 260.3 166.5 260.3 166.5 L 256.3 166.5 C 256.3 166.5 256.3 150.14 256.3 150.1 C 256.3 148.1 255.8 146.5 254.7 145.3 C 253.6 144.2 252.2 143.6 250.3 143.6 C 249 143.6 247.9 143.9 246.9 144.4 C 245.9 145 245.1 145.8 244.5 146.9 C 243.9 147.9 243.6 149.2 243.6 150.8 Z M 292.8 140.3 L 292.8 143.7 L 278.7 143.7 L 278.7 140.3 L 292.8 140.3 Z M 283 166.5 C 283 166.5 282.96 136.7 283 136.7 C 283 135.2 283.3 134 284 133 C 284.7 132 285.6 131.2 286.8 130.7 C 287.9 130.2 289.1 130 290.3 130 C 291.3 130 292.1 130 292.7 130.2 C 293.4 130.4 293.8 130.5 294.1 130.6 C 294.1 130.6 293 134.1 293 134.1 C 292.8 134 292.5 134 292.1 133.9 C 291.8 133.8 291.3 133.7 290.7 133.7 C 289.4 133.7 288.4 134 287.9 134.7 C 287.3 135.4 287 136.4 287 137.7 C 286.98 137.66 287 166.5 287 166.5 L 283 166.5 Z M 297.5 166.5 L 297.5 140.3 L 301.4 140.3 L 301.4 144.3 C 301.4 144.3 301.68 144.27 301.7 144.3 C 302.2 143 303 141.9 304.3 141.1 C 305.5 140.3 306.9 139.9 308.5 139.9 C 308.8 139.9 309.2 139.9 309.6 139.9 C 310 139.9 310.4 140 310.6 140 C 310.6 140 310.6 144.1 310.6 144.1 C 310.5 144 310.2 144 309.7 143.9 C 309.2 143.8 308.7 143.8 308.2 143.8 C 306.9 143.8 305.7 144.1 304.8 144.6 C 303.8 145.1 303 145.8 302.4 146.8 C 301.8 147.7 301.5 148.8 301.5 149.9 C 301.54 149.93 301.5 166.5 301.5 166.5 L 297.5 166.5 Z M 324.9 167 C 322.5 167 320.5 166.5 318.7 165.4 C 316.9 164.2 315.5 162.7 314.5 160.6 C 313.5 158.6 313 156.3 313 153.5 C 313 150.8 313.5 148.4 314.5 146.4 C 315.5 144.4 316.9 142.8 318.7 141.7 C 320.5 140.5 322.5 140 324.9 140 C 327.3 140 329.3 140.5 331.1 141.7 C 332.9 142.8 334.3 144.4 335.3 146.4 C 336.3 148.4 336.8 150.8 336.8 153.5 C 336.8 156.3 336.3 158.6 335.3 160.6 C 334.3 162.7 332.9 164.2 331.1 165.4 C 329.3 166.5 327.3 167 324.9 167 Z M 324.9 163.4 C 326.7 163.4 328.2 163 329.3 162.1 C 330.5 161.1 331.3 159.9 331.9 158.4 C 332.5 156.9 332.7 155.3 332.7 153.5 C 332.7 151.8 332.5 150.2 331.9 148.7 C 331.3 147.1 330.5 145.9 329.3 145 C 328.2 144.1 326.7 143.6 324.9 143.6 C 323.1 143.6 321.6 144.1 320.5 145 C 319.3 145.9 318.4 147.1 317.9 148.7 C 317.3 150.2 317.1 151.8 317.1 153.5 C 317.1 155.3 317.3 156.9 317.9 158.4 C 318.4 159.9 319.3 161.1 320.5 162.1 C 321.6 163 323.1 163.4 324.9 163.4 Z M 342.4 166.5 L 342.4 140.3 L 346.2 140.3 L 346.2 144.4 C 346.2 144.4 346.58 144.41 346.6 144.4 C 347.1 143 348 141.9 349.2 141.1 C 350.4 140.4 351.9 140 353.6 140 C 355.3 140 356.8 140.4 357.9 141.1 C 359.1 141.9 360 143 360.6 144.4 C 360.6 144.4 360.9 144.4 360.9 144.4 C 361.6 143.1 362.6 142 363.9 141.2 C 365.3 140.4 366.9 140 368.7 140 C 371.1 140 373 140.7 374.5 142.2 C 376 143.6 376.7 145.9 376.7 149 C 376.72 148.98 376.7 166.5 376.7 166.5 L 372.7 166.5 C 372.7 166.5 372.7 148.98 372.7 149 C 372.7 147 372.2 145.7 371.1 144.8 C 370.1 144 368.8 143.6 367.4 143.6 C 365.5 143.6 364.1 144.1 363.1 145.3 C 362.1 146.4 361.6 147.8 361.6 149.5 C 361.58 149.45 361.6 166.5 361.6 166.5 L 357.5 166.5 C 357.5 166.5 357.49 148.57 357.5 148.6 C 357.5 147.1 357 145.9 356 145 C 355.1 144 353.8 143.6 352.3 143.6 C 351.3 143.6 350.3 143.9 349.4 144.4 C 348.5 145 347.8 145.8 347.2 146.7 C 346.7 147.7 346.4 148.9 346.4 150.1 C 346.38 150.14 346.4 166.5 346.4 166.5 L 342.4 166.5 Z M 405.3 167.1 C 403.6 167.1 402.1 166.8 400.8 166.2 C 399.4 165.5 398.3 164.6 397.5 163.4 C 396.8 162.2 396.4 160.8 396.4 159.1 C 396.4 157.6 396.7 156.3 397.2 155.4 C 397.8 154.5 398.6 153.7 399.6 153.2 C 400.6 152.7 401.7 152.3 402.9 152 C 404.1 151.7 405.3 151.5 406.5 151.4 C 408.1 151.2 409.4 151 410.4 150.9 C 411.4 150.8 412.1 150.6 412.6 150.3 C 413 150.1 413.3 149.6 413.3 149 C 413.3 149 413.3 148.8 413.3 148.8 C 413.3 147.2 412.8 145.9 411.9 144.9 C 411 144 409.6 143.5 407.7 143.5 C 405.8 143.5 404.3 143.9 403.2 144.8 C 402.1 145.6 401.4 146.5 400.9 147.5 C 400.9 147.5 397.1 146.1 397.1 146.1 C 397.8 144.5 398.7 143.3 399.8 142.4 C 401 141.5 402.2 140.9 403.6 140.5 C 404.9 140.2 406.3 140 407.6 140 C 408.4 140 409.4 140.1 410.5 140.3 C 411.6 140.5 412.7 140.9 413.7 141.5 C 414.7 142.1 415.6 143 416.3 144.3 C 416.9 145.5 417.3 147.2 417.3 149.3 C 417.29 149.25 417.3 166.5 417.3 166.5 L 413.3 166.5 L 413.3 163 C 413.3 163 413.06 162.95 413.1 163 C 412.8 163.5 412.3 164.1 411.7 164.8 C 411.1 165.4 410.2 166 409.2 166.4 C 408.1 166.9 406.8 167.1 405.3 167.1 Z M 405.9 163.5 C 407.5 163.5 408.8 163.2 409.9 162.6 C 411 161.9 411.9 161.1 412.4 160.1 C 413 159.2 413.3 158.1 413.3 157 C 413.3 157 413.3 153.3 413.3 153.3 C 413.1 153.5 412.7 153.7 412.1 153.9 C 411.6 154.1 410.9 154.2 410.2 154.3 C 409.4 154.4 408.7 154.5 408 154.6 C 407.3 154.7 406.7 154.8 406.3 154.8 C 405.3 155 404.3 155.2 403.4 155.5 C 402.5 155.8 401.8 156.2 401.2 156.8 C 400.7 157.4 400.4 158.3 400.4 159.3 C 400.4 160.7 400.9 161.7 401.9 162.4 C 403 163.1 404.3 163.5 405.9 163.5 Z M 434.7 167 C 432.2 167 430.1 166.5 428.3 165.3 C 426.5 164.1 425.2 162.6 424.2 160.5 C 423.3 158.5 422.8 156.2 422.8 153.5 C 422.8 150.9 423.3 148.5 424.3 146.5 C 425.2 144.5 426.6 142.9 428.4 141.7 C 430.2 140.6 432.2 140 434.6 140 C 436.4 140 438.1 140.3 439.6 141 C 441 141.7 442.2 142.6 443.2 143.9 C 444.1 145.1 444.7 146.5 444.9 148.2 C 444.9 148.2 440.9 148.2 440.9 148.2 C 440.6 147 439.9 145.9 438.9 145 C 437.8 144.1 436.4 143.6 434.7 143.6 C 433.1 143.6 431.7 144 430.5 144.8 C 429.4 145.6 428.4 146.8 427.8 148.2 C 427.1 149.7 426.8 151.4 426.8 153.4 C 426.8 155.4 427.1 157.2 427.8 158.7 C 428.4 160.2 429.3 161.4 430.5 162.2 C 431.7 163 433.1 163.4 434.7 163.4 C 435.7 163.4 436.6 163.3 437.5 162.9 C 438.4 162.5 439.1 162 439.7 161.3 C 440.3 160.6 440.7 159.8 440.9 158.9 C 440.9 158.9 444.9 158.9 444.9 158.9 C 444.7 160.4 444.2 161.8 443.3 163 C 442.4 164.3 441.2 165.2 439.7 166 C 438.3 166.7 436.6 167 434.7 167 Z M 450.2 166.5 L 450.2 140.3 L 454.1 140.3 L 454.1 144.3 C 454.1 144.3 454.39 144.27 454.4 144.3 C 454.9 143 455.7 141.9 457 141.1 C 458.2 140.3 459.6 139.9 461.2 139.9 C 461.5 139.9 461.9 139.9 462.3 139.9 C 462.8 139.9 463.1 140 463.3 140 C 463.3 140 463.3 144.1 463.3 144.1 C 463.2 144 462.9 144 462.4 143.9 C 461.9 143.8 461.4 143.8 460.9 143.8 C 459.6 143.8 458.5 144.1 457.5 144.6 C 456.5 145.1 455.7 145.8 455.1 146.8 C 454.5 147.7 454.3 148.8 454.3 149.9 C 454.26 149.93 454.3 166.5 454.3 166.5 L 450.2 166.5 Z M 477.6 167 C 475.2 167 473.2 166.5 471.4 165.4 C 469.6 164.2 468.2 162.7 467.2 160.6 C 466.2 158.6 465.7 156.3 465.7 153.5 C 465.7 150.8 466.2 148.4 467.2 146.4 C 468.2 144.4 469.6 142.8 471.4 141.7 C 473.2 140.5 475.2 140 477.6 140 C 480 140 482 140.5 483.8 141.7 C 485.6 142.8 487 144.4 488 146.4 C 489 148.4 489.5 150.8 489.5 153.5 C 489.5 156.3 489 158.6 488 160.6 C 487 162.7 485.6 164.2 483.8 165.4 C 482 166.5 480 167 477.6 167 Z M 477.6 163.4 C 479.4 163.4 480.9 163 482 162.1 C 483.2 161.1 484.1 159.9 484.6 158.4 C 485.2 156.9 485.5 155.3 485.5 153.5 C 485.5 151.8 485.2 150.2 484.6 148.7 C 484.1 147.1 483.2 145.9 482 145 C 480.9 144.1 479.4 143.6 477.6 143.6 C 475.8 143.6 474.3 144.1 473.2 145 C 472 145.9 471.2 147.1 470.6 148.7 C 470 150.2 469.8 151.8 469.8 153.5 C 469.8 155.3 470 156.9 470.6 158.4 C 471.2 159.9 472 161.1 473.2 162.1 C 474.3 163 475.8 163.4 477.6 163.4 Z M 513 146.2 C 513 146.2 509.4 147.2 509.4 147.2 C 509.2 146.6 508.9 146 508.4 145.4 C 508 144.9 507.4 144.4 506.7 144 C 505.9 143.6 504.9 143.5 503.8 143.5 C 502.2 143.5 500.8 143.8 499.8 144.6 C 498.7 145.3 498.2 146.2 498.2 147.3 C 498.2 148.3 498.5 149.1 499.3 149.7 C 500 150.3 501.1 150.8 502.7 151.2 C 502.7 151.2 506.6 152.1 506.6 152.1 C 508.9 152.7 510.7 153.5 511.8 154.7 C 513 155.9 513.5 157.4 513.5 159.2 C 513.5 160.7 513.1 162 512.2 163.2 C 511.4 164.4 510.2 165.3 508.7 166 C 507.1 166.7 505.3 167 503.3 167 C 500.6 167 498.4 166.5 496.7 165.3 C 494.9 164.1 493.8 162.5 493.3 160.2 C 493.3 160.2 497.2 159.3 497.2 159.3 C 497.5 160.7 498.2 161.7 499.2 162.4 C 500.2 163.1 501.6 163.5 503.2 163.5 C 505.1 163.5 506.6 163.1 507.7 162.3 C 508.8 161.5 509.4 160.5 509.4 159.4 C 509.4 158.5 509 157.7 508.4 157.1 C 507.8 156.5 506.8 156 505.5 155.7 C 505.5 155.7 501.1 154.7 501.1 154.7 C 498.7 154.1 497 153.3 495.8 152.1 C 494.7 150.9 494.2 149.4 494.2 147.5 C 494.2 146.1 494.6 144.8 495.4 143.6 C 496.3 142.5 497.4 141.6 498.8 140.9 C 500.3 140.3 501.9 140 503.8 140 C 506.4 140 508.4 140.5 509.9 141.7 C 511.4 142.8 512.4 144.3 513 146.2 Z M 537.5 146.2 C 537.5 146.2 533.9 147.2 533.9 147.2 C 533.7 146.6 533.4 146 532.9 145.4 C 532.5 144.9 531.9 144.4 531.1 144 C 530.4 143.6 529.4 143.5 528.3 143.5 C 526.7 143.5 525.3 143.8 524.3 144.6 C 523.2 145.3 522.7 146.2 522.7 147.3 C 522.7 148.3 523 149.1 523.8 149.7 C 524.5 150.3 525.6 150.8 527.2 151.2 C 527.2 151.2 531.1 152.1 531.1 152.1 C 533.4 152.7 535.1 153.5 536.3 154.7 C 537.4 155.9 538 157.4 538 159.2 C 538 160.7 537.6 162 536.7 163.2 C 535.9 164.4 534.7 165.3 533.1 166 C 531.6 166.7 529.8 167 527.8 167 C 525.1 167 522.9 166.5 521.2 165.3 C 519.4 164.1 518.3 162.5 517.8 160.2 C 517.8 160.2 521.7 159.3 521.7 159.3 C 522 160.7 522.7 161.7 523.7 162.4 C 524.7 163.1 526.1 163.5 527.7 163.5 C 529.6 163.5 531.1 163.1 532.2 162.3 C 533.3 161.5 533.9 160.5 533.9 159.4 C 533.9 158.5 533.5 157.7 532.9 157.1 C 532.3 156.5 531.3 156 530 155.7 C 530 155.7 525.6 154.7 525.6 154.7 C 523.2 154.1 521.5 153.3 520.3 152.1 C 519.2 150.9 518.7 149.4 518.7 147.5 C 518.7 146.1 519.1 144.8 519.9 143.6 C 520.7 142.5 521.9 141.6 523.3 140.9 C 524.8 140.3 526.4 140 528.3 140 C 530.9 140 532.9 140.5 534.4 141.7 C 535.9 142.8 536.9 144.3 537.5 146.2 Z " stroke="none" fill="#ffffff"/>  </g>  <g id="Polygon117214">    <path d="M 18.7 106.5 L 18.7 80.3 L 22.7 80.3 L 22.7 106.5 L 18.7 106.5 Z M 20.7 76 C 19.9 76 19.2 75.7 18.7 75.2 C 18.1 74.6 17.8 74 17.8 73.2 C 17.8 72.5 18.1 71.8 18.7 71.3 C 19.2 70.8 19.9 70.5 20.7 70.5 C 21.5 70.5 22.2 70.8 22.7 71.3 C 23.3 71.8 23.6 72.5 23.6 73.2 C 23.6 74 23.3 74.6 22.7 75.2 C 22.2 75.7 21.5 76 20.7 76 Z M 33.6 90.8 C 33.56 90.75 33.6 106.5 33.6 106.5 L 29.5 106.5 L 29.5 80.3 L 33.4 80.3 L 33.4 84.4 C 33.4 84.4 33.76 84.41 33.8 84.4 C 34.4 83.1 35.3 82 36.6 81.2 C 37.8 80.4 39.4 80 41.4 80 C 43.2 80 44.7 80.3 46.1 81.1 C 47.4 81.8 48.4 82.9 49.2 84.3 C 49.9 85.8 50.3 87.6 50.3 89.9 C 50.26 89.86 50.3 106.5 50.3 106.5 L 46.2 106.5 C 46.2 106.5 46.24 90.14 46.2 90.1 C 46.2 88.1 45.7 86.5 44.6 85.3 C 43.6 84.2 42.1 83.6 40.2 83.6 C 39 83.6 37.8 83.9 36.8 84.4 C 35.8 85 35 85.8 34.4 86.9 C 33.8 87.9 33.6 89.2 33.6 90.8 Z M 67.5 107 C 65.1 107 63 106.5 61.2 105.3 C 59.4 104.1 58.1 102.6 57.1 100.5 C 56.1 98.5 55.7 96.2 55.7 93.5 C 55.7 90.9 56.2 88.5 57.1 86.5 C 58.1 84.5 59.5 82.9 61.3 81.7 C 63 80.6 65.1 80 67.5 80 C 69.3 80 71 80.3 72.4 81 C 73.9 81.7 75.1 82.6 76.1 83.9 C 77 85.1 77.6 86.5 77.8 88.2 C 77.8 88.2 73.8 88.2 73.8 88.2 C 73.5 87 72.8 85.9 71.8 85 C 70.7 84.1 69.3 83.6 67.5 83.6 C 66 83.6 64.6 84 63.4 84.8 C 62.2 85.6 61.3 86.8 60.7 88.2 C 60 89.7 59.7 91.4 59.7 93.4 C 59.7 95.4 60 97.2 60.7 98.7 C 61.3 100.2 62.2 101.4 63.4 102.2 C 64.6 103 65.9 103.4 67.5 103.4 C 68.6 103.4 69.5 103.3 70.4 102.9 C 71.2 102.5 72 102 72.5 101.3 C 73.1 100.6 73.6 99.8 73.8 98.9 C 73.8 98.9 77.8 98.9 77.8 98.9 C 77.6 100.4 77 101.8 76.1 103 C 75.3 104.3 74.1 105.2 72.6 106 C 71.2 106.7 69.5 107 67.5 107 Z M 93.6 107 C 91.2 107 89.1 106.5 87.3 105.4 C 85.6 104.2 84.2 102.7 83.2 100.6 C 82.2 98.6 81.7 96.3 81.7 93.5 C 81.7 90.8 82.2 88.4 83.2 86.4 C 84.2 84.4 85.6 82.8 87.3 81.7 C 89.1 80.5 91.2 80 93.6 80 C 95.9 80 98 80.5 99.8 81.7 C 101.5 82.8 102.9 84.4 103.9 86.4 C 104.9 88.4 105.4 90.8 105.4 93.5 C 105.4 96.3 104.9 98.6 103.9 100.6 C 102.9 102.7 101.5 104.2 99.8 105.4 C 98 106.5 95.9 107 93.6 107 Z M 93.6 103.4 C 95.3 103.4 96.8 103 98 102.1 C 99.1 101.1 100 99.9 100.6 98.4 C 101.1 96.9 101.4 95.3 101.4 93.5 C 101.4 91.8 101.1 90.2 100.6 88.7 C 100 87.1 99.1 85.9 98 85 C 96.8 84.1 95.3 83.6 93.6 83.6 C 91.8 83.6 90.3 84.1 89.1 85 C 88 85.9 87.1 87.1 86.5 88.7 C 86 90.2 85.7 91.8 85.7 93.5 C 85.7 95.3 86 96.9 86.5 98.4 C 87.1 99.9 88 101.1 89.1 102.1 C 90.3 103 91.8 103.4 93.6 103.4 Z M 111 106.5 L 111 80.3 L 114.9 80.3 L 114.9 84.3 C 114.9 84.3 115.17 84.27 115.2 84.3 C 115.7 83 116.5 81.9 117.8 81.1 C 119 80.3 120.4 79.9 122 79.9 C 122.3 79.9 122.7 79.9 123.1 79.9 C 123.5 79.9 123.9 80 124.1 80 C 124.1 80 124.1 84.1 124.1 84.1 C 124 84 123.7 84 123.2 83.9 C 122.7 83.8 122.2 83.8 121.7 83.8 C 120.4 83.8 119.2 84.1 118.3 84.6 C 117.3 85.1 116.5 85.8 115.9 86.8 C 115.3 87.7 115 88.8 115 89.9 C 115.04 89.93 115 106.5 115 106.5 L 111 106.5 Z M 128.4 116.3 L 128.4 80.3 L 132.3 80.3 L 132.3 84.5 C 132.3 84.5 132.73 84.48 132.7 84.5 C 133 84 133.4 83.4 134 82.7 C 134.5 82 135.3 81.4 136.2 80.8 C 137.2 80.3 138.6 80 140.3 80 C 142.5 80 144.4 80.5 146.1 81.6 C 147.8 82.7 149.1 84.3 150.1 86.3 C 151 88.3 151.5 90.7 151.5 93.5 C 151.5 96.3 151 98.7 150.1 100.7 C 149.1 102.7 147.8 104.3 146.1 105.4 C 144.5 106.5 142.5 107 140.4 107 C 138.7 107 137.3 106.8 136.3 106.2 C 135.3 105.6 134.5 105 134 104.3 C 133.4 103.6 133 103 132.7 102.5 C 132.73 102.48 132.4 102.5 132.4 102.5 L 132.4 116.3 L 128.4 116.3 Z M 132.3 93.4 C 132.3 95.4 132.6 97.1 133.2 98.6 C 133.8 100.1 134.6 101.3 135.7 102.2 C 136.8 103 138.2 103.4 139.8 103.4 C 141.5 103.4 142.9 103 144 102.1 C 145.2 101.2 146 100 146.6 98.5 C 147.2 97 147.5 95.3 147.5 93.4 C 147.5 91.6 147.2 89.9 146.6 88.4 C 146 86.9 145.2 85.8 144.1 84.9 C 142.9 84 141.5 83.6 139.8 83.6 C 138.2 83.6 136.8 84 135.7 84.8 C 134.6 85.7 133.7 86.8 133.2 88.3 C 132.6 89.7 132.3 91.5 132.3 93.4 Z M 167.7 107 C 165.3 107 163.2 106.5 161.4 105.4 C 159.7 104.2 158.3 102.7 157.3 100.6 C 156.3 98.6 155.8 96.3 155.8 93.5 C 155.8 90.8 156.3 88.4 157.3 86.4 C 158.3 84.4 159.7 82.8 161.4 81.7 C 163.2 80.5 165.3 80 167.7 80 C 170 80 172.1 80.5 173.9 81.7 C 175.6 82.8 177 84.4 178 86.4 C 179 88.4 179.5 90.8 179.5 93.5 C 179.5 96.3 179 98.6 178 100.6 C 177 102.7 175.6 104.2 173.9 105.4 C 172.1 106.5 170 107 167.7 107 Z M 167.7 103.4 C 169.5 103.4 170.9 103 172.1 102.1 C 173.2 101.1 174.1 99.9 174.7 98.4 C 175.2 96.9 175.5 95.3 175.5 93.5 C 175.5 91.8 175.2 90.2 174.7 88.7 C 174.1 87.1 173.2 85.9 172.1 85 C 170.9 84.1 169.5 83.6 167.7 83.6 C 165.9 83.6 164.4 84.1 163.2 85 C 162.1 85.9 161.2 87.1 160.7 88.7 C 160.1 90.2 159.8 91.8 159.8 93.5 C 159.8 95.3 160.1 96.9 160.7 98.4 C 161.2 99.9 162.1 101.1 163.2 102.1 C 164.4 103 165.9 103.4 167.7 103.4 Z M 185.1 106.5 L 185.1 80.3 L 189 80.3 L 189 84.3 C 189 84.3 189.28 84.27 189.3 84.3 C 189.8 83 190.6 81.9 191.9 81.1 C 193.1 80.3 194.5 79.9 196.1 79.9 C 196.4 79.9 196.8 79.9 197.2 79.9 C 197.6 79.9 198 80 198.2 80 C 198.2 80 198.2 84.1 198.2 84.1 C 198.1 84 197.8 84 197.3 83.9 C 196.8 83.8 196.3 83.8 195.8 83.8 C 194.5 83.8 193.3 84.1 192.4 84.6 C 191.4 85.1 190.6 85.8 190 86.8 C 189.4 87.7 189.1 88.8 189.1 89.9 C 189.14 89.93 189.1 106.5 189.1 106.5 L 185.1 106.5 Z M 210.1 107.1 C 208.4 107.1 206.9 106.8 205.6 106.2 C 204.2 105.5 203.2 104.6 202.4 103.4 C 201.6 102.2 201.2 100.8 201.2 99.1 C 201.2 97.6 201.5 96.3 202.1 95.4 C 202.6 94.5 203.4 93.7 204.4 93.2 C 205.4 92.7 206.5 92.3 207.7 92 C 208.9 91.7 210.1 91.5 211.3 91.4 C 212.9 91.2 214.2 91 215.2 90.9 C 216.2 90.8 216.9 90.6 217.4 90.3 C 217.8 90.1 218.1 89.6 218.1 89 C 218.1 89 218.1 88.8 218.1 88.8 C 218.1 87.2 217.6 85.9 216.7 84.9 C 215.8 84 214.4 83.5 212.6 83.5 C 210.6 83.5 209.1 83.9 208 84.8 C 206.9 85.6 206.2 86.5 205.7 87.5 C 205.7 87.5 201.9 86.1 201.9 86.1 C 202.6 84.5 203.5 83.3 204.7 82.4 C 205.8 81.5 207 80.9 208.4 80.5 C 209.8 80.2 211.1 80 212.4 80 C 213.3 80 214.2 80.1 215.3 80.3 C 216.4 80.5 217.5 80.9 218.5 81.5 C 219.5 82.1 220.4 83 221.1 84.3 C 221.8 85.5 222.1 87.2 222.1 89.3 C 222.1 89.25 222.1 106.5 222.1 106.5 L 218.1 106.5 L 218.1 103 C 218.1 103 217.87 102.95 217.9 103 C 217.6 103.5 217.1 104.1 216.5 104.8 C 215.9 105.4 215 106 214 106.4 C 212.9 106.9 211.6 107.1 210.1 107.1 Z M 210.7 103.5 C 212.3 103.5 213.6 103.2 214.7 102.6 C 215.8 101.9 216.7 101.1 217.2 100.1 C 217.8 99.2 218.1 98.1 218.1 97 C 218.1 97 218.1 93.3 218.1 93.3 C 217.9 93.5 217.5 93.7 217 93.9 C 216.4 94.1 215.7 94.2 215 94.3 C 214.2 94.4 213.5 94.5 212.8 94.6 C 212.1 94.7 211.6 94.8 211.1 94.8 C 210.1 95 209.1 95.2 208.2 95.5 C 207.3 95.8 206.6 96.2 206 96.8 C 205.5 97.4 205.2 98.3 205.2 99.3 C 205.2 100.7 205.7 101.7 206.8 102.4 C 207.8 103.1 209.1 103.5 210.7 103.5 Z M 239.6 80.3 L 239.6 83.7 L 226 83.7 L 226 80.3 L 239.6 80.3 Z M 230 74 L 234 74 C 234 74 234.02 99 234 99 C 234 100.1 234.2 101 234.5 101.5 C 234.9 102.1 235.3 102.5 235.8 102.7 C 236.3 102.9 236.9 103 237.5 103 C 237.9 103 238.3 102.9 238.6 102.9 C 238.9 102.8 239.1 102.8 239.3 102.8 C 239.3 102.8 240.1 106.4 240.1 106.4 C 239.8 106.5 239.4 106.6 238.9 106.7 C 238.5 106.8 237.8 106.8 237.1 106.8 C 235.9 106.8 234.8 106.6 233.8 106.1 C 232.7 105.6 231.8 104.9 231.1 103.9 C 230.3 102.9 230 101.6 230 100.1 C 229.99 100.09 230 74 230 74 Z M 254.7 107 C 252.2 107 250 106.5 248.2 105.4 C 246.4 104.2 245 102.7 244 100.7 C 243 98.6 242.5 96.3 242.5 93.6 C 242.5 90.9 243 88.6 244 86.5 C 245 84.5 246.3 82.9 248.1 81.7 C 249.9 80.6 251.9 80 254.3 80 C 255.7 80 257 80.2 258.3 80.7 C 259.7 81.1 260.9 81.8 262 82.9 C 263.1 83.9 263.9 85.2 264.6 86.9 C 265.2 88.6 265.5 90.6 265.5 93.1 C 265.54 93.07 265.5 94.8 265.5 94.8 L 245.4 94.8 L 245.4 91.3 C 245.4 91.3 261.45 91.3 261.5 91.3 C 261.5 89.8 261.2 88.5 260.6 87.3 C 260 86.2 259.2 85.3 258.1 84.6 C 257 83.9 255.7 83.6 254.3 83.6 C 252.7 83.6 251.3 84 250.1 84.8 C 249 85.6 248.1 86.6 247.5 87.9 C 246.8 89.1 246.5 90.5 246.5 91.9 C 246.5 91.9 246.5 94.2 246.5 94.2 C 246.5 96.2 246.9 97.9 247.6 99.2 C 248.2 100.6 249.2 101.7 250.4 102.4 C 251.7 103.1 253.1 103.4 254.7 103.4 C 255.8 103.4 256.7 103.3 257.6 103 C 258.4 102.7 259.2 102.2 259.8 101.6 C 260.4 101 260.9 100.3 261.2 99.3 C 261.2 99.3 265.1 100.4 265.1 100.4 C 264.7 101.8 264 102.9 263.1 103.9 C 262.1 104.9 260.9 105.7 259.5 106.2 C 258.1 106.8 256.5 107 254.7 107 Z M 289.4 86.2 C 289.4 86.2 285.8 87.2 285.8 87.2 C 285.5 86.6 285.2 86 284.8 85.4 C 284.3 84.9 283.7 84.4 283 84 C 282.2 83.6 281.3 83.5 280.1 83.5 C 278.5 83.5 277.2 83.8 276.1 84.6 C 275 85.3 274.5 86.2 274.5 87.3 C 274.5 88.3 274.9 89.1 275.6 89.7 C 276.3 90.3 277.5 90.8 279 91.2 C 279 91.2 282.9 92.1 282.9 92.1 C 285.2 92.7 287 93.5 288.1 94.7 C 289.3 95.9 289.9 97.4 289.9 99.2 C 289.9 100.7 289.4 102 288.6 103.2 C 287.7 104.4 286.5 105.3 285 106 C 283.4 106.7 281.7 107 279.6 107 C 277 107 274.7 106.5 273 105.3 C 271.2 104.1 270.1 102.5 269.7 100.2 C 269.7 100.2 273.5 99.3 273.5 99.3 C 273.9 100.7 274.5 101.7 275.6 102.4 C 276.6 103.1 277.9 103.5 279.6 103.5 C 281.4 103.5 282.9 103.1 284 102.3 C 285.1 101.5 285.7 100.5 285.7 99.4 C 285.7 98.5 285.4 97.7 284.7 97.1 C 284.1 96.5 283.1 96 281.8 95.7 C 281.8 95.7 277.4 94.7 277.4 94.7 C 275 94.1 273.3 93.3 272.2 92.1 C 271.1 90.9 270.5 89.4 270.5 87.5 C 270.5 86.1 270.9 84.8 271.7 83.6 C 272.6 82.5 273.7 81.6 275.2 80.9 C 276.6 80.3 278.3 80 280.1 80 C 282.7 80 284.7 80.5 286.2 81.7 C 287.7 82.8 288.8 84.3 289.4 86.2 Z M 319.3 107 C 317.1 107 315.2 106.5 313.5 105.4 C 311.9 104.3 310.6 102.7 309.6 100.7 C 308.7 98.7 308.2 96.3 308.2 93.5 C 308.2 90.7 308.7 88.3 309.6 86.3 C 310.6 84.3 311.9 82.7 313.5 81.6 C 315.2 80.5 317.2 80 319.4 80 C 321.1 80 322.4 80.3 323.4 80.8 C 324.4 81.4 325.2 82 325.7 82.7 C 326.2 83.4 326.6 84 326.9 84.5 C 326.94 84.48 327.3 84.5 327.3 84.5 L 327.3 71.6 L 331.3 71.6 L 331.3 106.5 L 327.4 106.5 L 327.4 102.5 C 327.4 102.5 326.94 102.48 326.9 102.5 C 326.6 103 326.2 103.6 325.7 104.3 C 325.1 105 324.4 105.6 323.3 106.2 C 322.3 106.8 321 107 319.3 107 Z M 319.9 103.4 C 321.5 103.4 322.8 103 323.9 102.2 C 325.1 101.3 325.9 100.1 326.5 98.6 C 327.1 97.1 327.4 95.4 327.4 93.4 C 327.4 91.5 327.1 89.7 326.5 88.3 C 325.9 86.8 325.1 85.7 324 84.8 C 322.9 84 321.5 83.6 319.9 83.6 C 318.1 83.6 316.7 84 315.6 84.9 C 314.5 85.8 313.6 86.9 313.1 88.4 C 312.5 89.9 312.2 91.6 312.2 93.4 C 312.2 95.3 312.5 97 313.1 98.5 C 313.7 100 314.5 101.2 315.6 102.1 C 316.8 103 318.2 103.4 319.9 103.4 Z M 346 107.1 C 344.3 107.1 342.8 106.8 341.5 106.2 C 340.1 105.5 339 104.6 338.2 103.4 C 337.5 102.2 337.1 100.8 337.1 99.1 C 337.1 97.6 337.3 96.3 337.9 95.4 C 338.5 94.5 339.3 93.7 340.3 93.2 C 341.3 92.7 342.4 92.3 343.6 92 C 344.8 91.7 346 91.5 347.2 91.4 C 348.8 91.2 350.1 91 351.1 90.9 C 352.1 90.8 352.8 90.6 353.3 90.3 C 353.7 90.1 354 89.6 354 89 C 354 89 354 88.8 354 88.8 C 354 87.2 353.5 85.9 352.6 84.9 C 351.7 84 350.3 83.5 348.4 83.5 C 346.5 83.5 345 83.9 343.9 84.8 C 342.8 85.6 342.1 86.5 341.6 87.5 C 341.6 87.5 337.8 86.1 337.8 86.1 C 338.5 84.5 339.4 83.3 340.5 82.4 C 341.7 81.5 342.9 80.9 344.3 80.5 C 345.6 80.2 347 80 348.3 80 C 349.1 80 350.1 80.1 351.2 80.3 C 352.3 80.5 353.4 80.9 354.4 81.5 C 355.4 82.1 356.3 83 357 84.3 C 357.6 85.5 358 87.2 358 89.3 C 357.99 89.25 358 106.5 358 106.5 L 354 106.5 L 354 103 C 354 103 353.76 102.95 353.8 103 C 353.5 103.5 353 104.1 352.4 104.8 C 351.8 105.4 350.9 106 349.9 106.4 C 348.8 106.9 347.5 107.1 346 107.1 Z M 346.6 103.5 C 348.2 103.5 349.5 103.2 350.6 102.6 C 351.7 101.9 352.6 101.1 353.1 100.1 C 353.7 99.2 354 98.1 354 97 C 354 97 354 93.3 354 93.3 C 353.8 93.5 353.4 93.7 352.8 93.9 C 352.3 94.1 351.6 94.2 350.9 94.3 C 350.1 94.4 349.4 94.5 348.7 94.6 C 348 94.7 347.4 94.8 347 94.8 C 346 95 345 95.2 344.1 95.5 C 343.2 95.8 342.5 96.2 341.9 96.8 C 341.4 97.4 341.1 98.3 341.1 99.3 C 341.1 100.7 341.6 101.7 342.6 102.4 C 343.7 103.1 345 103.5 346.6 103.5 Z M 375.5 80.3 L 375.5 83.7 L 361.9 83.7 L 361.9 80.3 L 375.5 80.3 Z M 365.9 74 L 369.9 74 C 369.9 74 369.9 99 369.9 99 C 369.9 100.1 370.1 101 370.4 101.5 C 370.7 102.1 371.2 102.5 371.7 102.7 C 372.2 102.9 372.8 103 373.4 103 C 373.8 103 374.2 102.9 374.5 102.9 C 374.8 102.8 375 102.8 375.2 102.8 C 375.2 102.8 376 106.4 376 106.4 C 375.7 106.5 375.3 106.6 374.8 106.7 C 374.3 106.8 373.7 106.8 373 106.8 C 371.8 106.8 370.7 106.6 369.6 106.1 C 368.6 105.6 367.7 104.9 366.9 103.9 C 366.2 102.9 365.9 101.6 365.9 100.1 C 365.88 100.09 365.9 74 365.9 74 Z M 388.3 107.1 C 386.6 107.1 385.1 106.8 383.8 106.2 C 382.4 105.5 381.3 104.6 380.5 103.4 C 379.7 102.2 379.3 100.8 379.3 99.1 C 379.3 97.6 379.6 96.3 380.2 95.4 C 380.8 94.5 381.6 93.7 382.6 93.2 C 383.6 92.7 384.7 92.3 385.9 92 C 387.1 91.7 388.3 91.5 389.5 91.4 C 391.1 91.2 392.4 91 393.4 90.9 C 394.4 90.8 395.1 90.6 395.6 90.3 C 396 90.1 396.3 89.6 396.3 89 C 396.3 89 396.3 88.8 396.3 88.8 C 396.3 87.2 395.8 85.9 394.9 84.9 C 394 84 392.6 83.5 390.7 83.5 C 388.8 83.5 387.3 83.9 386.2 84.8 C 385.1 85.6 384.4 86.5 383.9 87.5 C 383.9 87.5 380.1 86.1 380.1 86.1 C 380.8 84.5 381.7 83.3 382.8 82.4 C 384 81.5 385.2 80.9 386.6 80.5 C 387.9 80.2 389.3 80 390.6 80 C 391.4 80 392.4 80.1 393.5 80.3 C 394.6 80.5 395.7 80.9 396.7 81.5 C 397.7 82.1 398.6 83 399.3 84.3 C 399.9 85.5 400.3 87.2 400.3 89.3 C 400.28 89.25 400.3 106.5 400.3 106.5 L 396.3 106.5 L 396.3 103 C 396.3 103 396.05 102.95 396.1 103 C 395.8 103.5 395.3 104.1 394.7 104.8 C 394.1 105.4 393.2 106 392.1 106.4 C 391.1 106.9 389.8 107.1 388.3 107.1 Z M 388.9 103.5 C 390.5 103.5 391.8 103.2 392.9 102.6 C 394 101.9 394.9 101.1 395.4 100.1 C 396 99.2 396.3 98.1 396.3 97 C 396.3 97 396.3 93.3 396.3 93.3 C 396.1 93.5 395.7 93.7 395.1 93.9 C 394.6 94.1 393.9 94.2 393.2 94.3 C 392.4 94.4 391.7 94.5 391 94.6 C 390.3 94.7 389.7 94.8 389.3 94.8 C 388.3 95 387.3 95.2 386.4 95.5 C 385.5 95.8 384.7 96.2 384.2 96.8 C 383.6 97.4 383.4 98.3 383.4 99.3 C 383.4 100.7 383.9 101.7 384.9 102.4 C 386 103.1 387.3 103.5 388.9 103.5 Z M 428.8 107.1 C 427.2 107.1 425.7 106.8 424.3 106.2 C 423 105.5 421.9 104.6 421.1 103.4 C 420.3 102.2 419.9 100.8 419.9 99.1 C 419.9 97.6 420.2 96.3 420.8 95.4 C 421.4 94.5 422.2 93.7 423.2 93.2 C 424.2 92.7 425.3 92.3 426.5 92 C 427.7 91.7 428.9 91.5 430.1 91.4 C 431.7 91.2 433 91 434 90.9 C 434.9 90.8 435.7 90.6 436.1 90.3 C 436.6 90.1 436.8 89.6 436.8 89 C 436.8 89 436.8 88.8 436.8 88.8 C 436.8 87.2 436.4 85.9 435.5 84.9 C 434.5 84 433.2 83.5 431.3 83.5 C 429.4 83.5 427.9 83.9 426.8 84.8 C 425.7 85.6 424.9 86.5 424.5 87.5 C 424.5 87.5 420.7 86.1 420.7 86.1 C 421.3 84.5 422.3 83.3 423.4 82.4 C 424.5 81.5 425.8 80.9 427.2 80.5 C 428.5 80.2 429.8 80 431.2 80 C 432 80 433 80.1 434.1 80.3 C 435.2 80.5 436.2 80.9 437.3 81.5 C 438.3 82.1 439.1 83 439.8 84.3 C 440.5 85.5 440.8 87.2 440.8 89.3 C 440.85 89.25 440.8 106.5 440.8 106.5 L 436.8 106.5 L 436.8 103 C 436.8 103 436.62 102.95 436.6 103 C 436.3 103.5 435.9 104.1 435.3 104.8 C 434.6 105.4 433.8 106 432.7 106.4 C 431.7 106.9 430.4 107.1 428.8 107.1 Z M 429.5 103.5 C 431.1 103.5 432.4 103.2 433.5 102.6 C 434.6 101.9 435.4 101.1 436 100.1 C 436.5 99.2 436.8 98.1 436.8 97 C 436.8 97 436.8 93.3 436.8 93.3 C 436.7 93.5 436.3 93.7 435.7 93.9 C 435.1 94.1 434.5 94.2 433.7 94.3 C 433 94.4 432.3 94.5 431.6 94.6 C 430.9 94.7 430.3 94.8 429.9 94.8 C 428.8 95 427.9 95.2 426.9 95.5 C 426 95.8 425.3 96.2 424.8 96.8 C 424.2 97.4 423.9 98.3 423.9 99.3 C 423.9 100.7 424.5 101.7 425.5 102.4 C 426.5 103.1 427.9 103.5 429.5 103.5 Z M 451.7 90.8 C 451.66 90.75 451.7 106.5 451.7 106.5 L 447.6 106.5 L 447.6 80.3 L 451.5 80.3 L 451.5 84.4 C 451.5 84.4 451.86 84.41 451.9 84.4 C 452.5 83.1 453.4 82 454.7 81.2 C 455.9 80.4 457.5 80 459.5 80 C 461.3 80 462.8 80.3 464.2 81.1 C 465.5 81.8 466.5 82.9 467.3 84.3 C 468 85.8 468.4 87.6 468.4 89.9 C 468.36 89.86 468.4 106.5 468.4 106.5 L 464.3 106.5 C 464.3 106.5 464.34 90.14 464.3 90.1 C 464.3 88.1 463.8 86.5 462.7 85.3 C 461.7 84.2 460.2 83.6 458.3 83.6 C 457.1 83.6 455.9 83.9 454.9 84.4 C 453.9 85 453.1 85.8 452.5 86.9 C 451.9 87.9 451.7 89.2 451.7 90.8 Z M 485 107 C 482.8 107 480.9 106.5 479.2 105.4 C 477.5 104.3 476.2 102.7 475.3 100.7 C 474.3 98.7 473.9 96.3 473.9 93.5 C 473.9 90.7 474.3 88.3 475.3 86.3 C 476.2 84.3 477.5 82.7 479.2 81.6 C 480.9 80.5 482.8 80 485 80 C 486.7 80 488.1 80.3 489.1 80.8 C 490.1 81.4 490.8 82 491.4 82.7 C 491.9 83.4 492.3 84 492.6 84.5 C 492.61 84.48 492.9 84.5 492.9 84.5 L 492.9 71.6 L 497 71.6 L 497 106.5 L 493.1 106.5 L 493.1 102.5 C 493.1 102.5 492.61 102.48 492.6 102.5 C 492.3 103 491.9 103.6 491.3 104.3 C 490.8 105 490 105.6 489 106.2 C 488 106.8 486.7 107 485 107 Z M 485.5 103.4 C 487.1 103.4 488.5 103 489.6 102.2 C 490.7 101.3 491.6 100.1 492.1 98.6 C 492.7 97.1 493 95.4 493 93.4 C 493 91.5 492.7 89.7 492.2 88.3 C 491.6 86.8 490.8 85.7 489.6 84.8 C 488.5 84 487.2 83.6 485.5 83.6 C 483.8 83.6 482.4 84 481.3 84.9 C 480.1 85.8 479.3 86.9 478.7 88.4 C 478.2 89.9 477.9 91.6 477.9 93.4 C 477.9 95.3 478.2 97 478.7 98.5 C 479.3 100 480.2 101.2 481.3 102.1 C 482.4 103 483.8 103.4 485.5 103.4 Z " stroke="none" fill="#ffffff"/>  </g>  <g id="Polygon117213">    <path d="M 2.3 22.5 C 2.3 22.5 2.32 19.43 2.3 19.4 C 2.3 18.5 2.5 17.5 2.8 16.5 C 3.2 15.4 3.6 14.4 4.3 13.4 C 4.9 12.4 5.7 11.6 6.6 10.8 C 6.6 10.8 8.8 12.6 8.8 12.6 C 8.1 13.6 7.5 14.7 6.9 15.8 C 6.4 16.9 6.1 18.1 6.1 19.4 C 6.14 19.36 6.1 22.5 6.1 22.5 L 2.3 22.5 Z M 11 22.5 C 11 22.5 11.05 19.43 11 19.4 C 11 18.5 11.2 17.5 11.5 16.5 C 11.9 15.4 12.4 14.4 13 13.4 C 13.7 12.4 14.4 11.6 15.3 10.8 C 15.3 10.8 17.5 12.6 17.5 12.6 C 16.8 13.6 16.2 14.7 15.7 15.8 C 15.1 16.9 14.9 18.1 14.9 19.4 C 14.86 19.36 14.9 22.5 14.9 22.5 L 11 22.5 Z M 20.6 46.5 L 16.2 46.5 L 29 11.6 L 33.4 11.6 L 46.2 46.5 L 41.8 46.5 L 31.3 17.1 L 31.1 17.1 L 20.6 46.5 Z M 22.3 32.9 L 40.1 32.9 L 40.1 36.6 L 22.3 36.6 L 22.3 32.9 Z M 55.4 11.6 L 55.4 46.5 L 51.1 46.5 L 51.1 11.6 L 55.4 11.6 Z M 84.5 47.1 C 82.8 47.1 81.3 46.8 80 46.2 C 78.6 45.5 77.5 44.6 76.7 43.4 C 75.9 42.2 75.6 40.8 75.6 39.1 C 75.6 37.6 75.8 36.3 76.4 35.4 C 77 34.5 77.8 33.7 78.8 33.2 C 79.8 32.7 80.9 32.3 82.1 32 C 83.3 31.7 84.5 31.5 85.7 31.4 C 87.3 31.2 88.6 31 89.6 30.9 C 90.6 30.8 91.3 30.6 91.8 30.3 C 92.2 30.1 92.5 29.6 92.5 29 C 92.5 29 92.5 28.8 92.5 28.8 C 92.5 27.2 92 25.9 91.1 24.9 C 90.2 24 88.8 23.5 86.9 23.5 C 85 23.5 83.5 23.9 82.4 24.8 C 81.3 25.6 80.6 26.5 80.1 27.5 C 80.1 27.5 76.3 26.1 76.3 26.1 C 77 24.5 77.9 23.3 79 22.4 C 80.2 21.5 81.4 20.9 82.8 20.5 C 84.1 20.2 85.5 20 86.8 20 C 87.6 20 88.6 20.1 89.7 20.3 C 90.8 20.5 91.9 20.9 92.9 21.5 C 93.9 22.1 94.8 23 95.5 24.3 C 96.1 25.5 96.5 27.2 96.5 29.3 C 96.48 29.25 96.5 46.5 96.5 46.5 L 92.5 46.5 L 92.5 43 C 92.5 43 92.26 42.95 92.3 43 C 92 43.5 91.5 44.1 90.9 44.8 C 90.3 45.4 89.4 46 88.4 46.4 C 87.3 46.9 86 47.1 84.5 47.1 Z M 85.1 43.5 C 86.7 43.5 88 43.2 89.1 42.6 C 90.2 41.9 91.1 41.1 91.6 40.1 C 92.2 39.2 92.5 38.1 92.5 37 C 92.5 37 92.5 33.3 92.5 33.3 C 92.3 33.5 91.9 33.7 91.3 33.9 C 90.8 34.1 90.1 34.2 89.4 34.3 C 88.6 34.4 87.9 34.5 87.2 34.6 C 86.5 34.7 85.9 34.8 85.5 34.8 C 84.5 35 83.5 35.2 82.6 35.5 C 81.7 35.8 81 36.2 80.4 36.8 C 79.8 37.4 79.6 38.3 79.6 39.3 C 79.6 40.7 80.1 41.7 81.1 42.4 C 82.2 43.1 83.5 43.5 85.1 43.5 Z M 119.6 35.8 C 119.6 35.8 119.6 20.3 119.6 20.3 L 123.6 20.3 L 123.6 46.5 L 119.6 46.5 L 119.6 42.1 C 119.6 42.1 119.33 42.07 119.3 42.1 C 118.7 43.4 117.8 44.5 116.5 45.5 C 115.2 46.4 113.5 46.8 111.6 46.8 C 109.9 46.8 108.5 46.5 107.2 45.8 C 105.9 45 104.9 43.9 104.2 42.5 C 103.5 41 103.1 39.2 103.1 37 C 103.1 36.95 103.1 20.3 103.1 20.3 L 107.1 20.3 C 107.1 20.3 107.13 36.68 107.1 36.7 C 107.1 38.6 107.7 40.1 108.7 41.3 C 109.8 42.4 111.2 43 112.9 43 C 113.9 43 114.9 42.7 115.9 42.2 C 117 41.7 117.8 40.9 118.5 39.8 C 119.2 38.8 119.6 37.4 119.6 35.8 Z M 141.6 20.3 L 141.6 23.7 L 128.1 23.7 L 128.1 20.3 L 141.6 20.3 Z M 132 14 L 136 14 C 136 14 136.05 39 136 39 C 136 40.1 136.2 41 136.6 41.5 C 136.9 42.1 137.3 42.5 137.8 42.7 C 138.4 42.9 138.9 43 139.5 43 C 140 43 140.3 42.9 140.6 42.9 C 140.9 42.8 141.1 42.8 141.3 42.8 C 141.3 42.8 142.1 46.4 142.1 46.4 C 141.8 46.5 141.5 46.6 141 46.7 C 140.5 46.8 139.9 46.8 139.1 46.8 C 138 46.8 136.9 46.6 135.8 46.1 C 134.7 45.6 133.8 44.9 133.1 43.9 C 132.4 42.9 132 41.6 132 40.1 C 132.03 40.09 132 14 132 14 Z M 156.4 47 C 154 47 152 46.5 150.2 45.4 C 148.4 44.2 147 42.7 146 40.6 C 145 38.6 144.5 36.3 144.5 33.5 C 144.5 30.8 145 28.4 146 26.4 C 147 24.4 148.4 22.8 150.2 21.7 C 152 20.5 154 20 156.4 20 C 158.8 20 160.8 20.5 162.6 21.7 C 164.4 22.8 165.8 24.4 166.8 26.4 C 167.8 28.4 168.3 30.8 168.3 33.5 C 168.3 36.3 167.8 38.6 166.8 40.6 C 165.8 42.7 164.4 44.2 162.6 45.4 C 160.8 46.5 158.8 47 156.4 47 Z M 156.4 43.4 C 158.2 43.4 159.7 43 160.8 42.1 C 162 41.1 162.8 39.9 163.4 38.4 C 164 36.9 164.2 35.3 164.2 33.5 C 164.2 31.8 164 30.2 163.4 28.7 C 162.8 27.1 162 25.9 160.8 25 C 159.7 24.1 158.2 23.6 156.4 23.6 C 154.6 23.6 153.1 24.1 152 25 C 150.8 25.9 149.9 27.1 149.4 28.7 C 148.8 30.2 148.6 31.8 148.6 33.5 C 148.6 35.3 148.8 36.9 149.4 38.4 C 149.9 39.9 150.8 41.1 152 42.1 C 153.1 43 154.6 43.4 156.4 43.4 Z M 173.9 46.5 L 173.9 20.3 L 177.7 20.3 L 177.7 24.4 C 177.7 24.4 178.09 24.41 178.1 24.4 C 178.6 23 179.5 21.9 180.7 21.1 C 181.9 20.4 183.4 20 185.1 20 C 186.8 20 188.3 20.4 189.4 21.1 C 190.6 21.9 191.5 23 192.1 24.4 C 192.1 24.4 192.4 24.4 192.4 24.4 C 193.1 23.1 194.1 22 195.4 21.2 C 196.8 20.4 198.4 20 200.2 20 C 202.6 20 204.5 20.7 206 22.2 C 207.5 23.6 208.2 25.9 208.2 29 C 208.22 28.98 208.2 46.5 208.2 46.5 L 204.2 46.5 C 204.2 46.5 204.2 28.98 204.2 29 C 204.2 27 203.7 25.7 202.6 24.8 C 201.6 24 200.3 23.6 198.9 23.6 C 197 23.6 195.6 24.1 194.6 25.3 C 193.6 26.4 193.1 27.8 193.1 29.5 C 193.09 29.45 193.1 46.5 193.1 46.5 L 189 46.5 C 189 46.5 189 28.57 189 28.6 C 189 27.1 188.5 25.9 187.5 25 C 186.6 24 185.3 23.6 183.8 23.6 C 182.8 23.6 181.8 23.9 180.9 24.4 C 180 25 179.3 25.8 178.7 26.7 C 178.2 27.7 177.9 28.9 177.9 30.1 C 177.88 30.14 177.9 46.5 177.9 46.5 L 173.9 46.5 Z M 222.6 47.1 C 220.9 47.1 219.4 46.8 218 46.2 C 216.7 45.5 215.6 44.6 214.8 43.4 C 214 42.2 213.6 40.8 213.6 39.1 C 213.6 37.6 213.9 36.3 214.5 35.4 C 215.1 34.5 215.9 33.7 216.9 33.2 C 217.9 32.7 219 32.3 220.2 32 C 221.4 31.7 222.6 31.5 223.8 31.4 C 225.4 31.2 226.7 31 227.7 30.9 C 228.7 30.8 229.4 30.6 229.8 30.3 C 230.3 30.1 230.5 29.6 230.5 29 C 230.5 29 230.5 28.8 230.5 28.8 C 230.5 27.2 230.1 25.9 229.2 24.9 C 228.3 24 226.9 23.5 225 23.5 C 223.1 23.5 221.6 23.9 220.5 24.8 C 219.4 25.6 218.6 26.5 218.2 27.5 C 218.2 27.5 214.4 26.1 214.4 26.1 C 215.1 24.5 216 23.3 217.1 22.4 C 218.3 21.5 219.5 20.9 220.9 20.5 C 222.2 20.2 223.6 20 224.9 20 C 225.7 20 226.7 20.1 227.8 20.3 C 228.9 20.5 229.9 20.9 231 21.5 C 232 22.1 232.9 23 233.5 24.3 C 234.2 25.5 234.6 27.2 234.6 29.3 C 234.56 29.25 234.6 46.5 234.6 46.5 L 230.5 46.5 L 230.5 43 C 230.5 43 230.33 42.95 230.3 43 C 230.1 43.5 229.6 44.1 229 44.8 C 228.3 45.4 227.5 46 226.4 46.4 C 225.4 46.9 224.1 47.1 222.6 47.1 Z M 223.2 43.5 C 224.8 43.5 226.1 43.2 227.2 42.6 C 228.3 41.9 229.1 41.1 229.7 40.1 C 230.3 39.2 230.5 38.1 230.5 37 C 230.5 37 230.5 33.3 230.5 33.3 C 230.4 33.5 230 33.7 229.4 33.9 C 228.8 34.1 228.2 34.2 227.4 34.3 C 226.7 34.4 226 34.5 225.3 34.6 C 224.6 34.7 224 34.8 223.6 34.8 C 222.5 35 221.6 35.2 220.7 35.5 C 219.8 35.8 219 36.2 218.5 36.8 C 217.9 37.4 217.7 38.3 217.7 39.3 C 217.7 40.7 218.2 41.7 219.2 42.4 C 220.3 43.1 221.6 43.5 223.2 43.5 Z M 252.1 20.3 L 252.1 23.7 L 238.5 23.7 L 238.5 20.3 L 252.1 20.3 Z M 242.5 14 L 246.5 14 C 246.5 14 246.48 39 246.5 39 C 246.5 40.1 246.6 41 247 41.5 C 247.3 42.1 247.7 42.5 248.3 42.7 C 248.8 42.9 249.4 43 250 43 C 250.4 43 250.8 42.9 251 42.9 C 251.3 42.8 251.6 42.8 251.7 42.8 C 251.7 42.8 252.5 46.4 252.5 46.4 C 252.3 46.5 251.9 46.6 251.4 46.7 C 250.9 46.8 250.3 46.8 249.5 46.8 C 248.4 46.8 247.3 46.6 246.2 46.1 C 245.1 45.6 244.2 44.9 243.5 43.9 C 242.8 42.9 242.5 41.6 242.5 40.1 C 242.45 40.09 242.5 14 242.5 14 Z M 257.2 46.5 L 257.2 20.3 L 261.2 20.3 L 261.2 46.5 L 257.2 46.5 Z M 259.2 16 C 258.4 16 257.8 15.7 257.2 15.2 C 256.6 14.6 256.4 14 256.4 13.2 C 256.4 12.5 256.6 11.8 257.2 11.3 C 257.8 10.8 258.4 10.5 259.2 10.5 C 260 10.5 260.7 10.8 261.2 11.3 C 261.8 11.8 262.1 12.5 262.1 13.2 C 262.1 14 261.8 14.6 261.2 15.2 C 260.7 15.7 260 16 259.2 16 Z M 278.5 47 C 276.1 47 274 46.5 272.2 45.3 C 270.4 44.1 269 42.6 268.1 40.5 C 267.1 38.5 266.7 36.2 266.7 33.5 C 266.7 30.9 267.2 28.5 268.1 26.5 C 269.1 24.5 270.5 22.9 272.3 21.7 C 274 20.6 276.1 20 278.5 20 C 280.3 20 282 20.3 283.4 21 C 284.9 21.7 286.1 22.6 287.1 23.9 C 288 25.1 288.6 26.5 288.8 28.2 C 288.8 28.2 284.8 28.2 284.8 28.2 C 284.5 27 283.8 25.9 282.8 25 C 281.7 24.1 280.3 23.6 278.5 23.6 C 277 23.6 275.6 24 274.4 24.8 C 273.2 25.6 272.3 26.8 271.7 28.2 C 271 29.7 270.7 31.4 270.7 33.4 C 270.7 35.4 271 37.2 271.6 38.7 C 272.3 40.2 273.2 41.4 274.4 42.2 C 275.6 43 276.9 43.4 278.5 43.4 C 279.6 43.4 280.5 43.3 281.4 42.9 C 282.2 42.5 282.9 42 283.5 41.3 C 284.1 40.6 284.5 39.8 284.8 38.9 C 284.8 38.9 288.8 38.9 288.8 38.9 C 288.6 40.4 288 41.8 287.1 43 C 286.3 44.3 285.1 45.2 283.6 46 C 282.2 46.7 280.5 47 278.5 47 Z M 301.9 47.1 C 300.3 47.1 298.8 46.8 297.4 46.2 C 296.1 45.5 295 44.6 294.2 43.4 C 293.4 42.2 293 40.8 293 39.1 C 293 37.6 293.3 36.3 293.9 35.4 C 294.5 34.5 295.3 33.7 296.2 33.2 C 297.2 32.7 298.3 32.3 299.5 32 C 300.7 31.7 301.9 31.5 303.2 31.4 C 304.7 31.2 306 31 307 30.9 C 308 30.8 308.7 30.6 309.2 30.3 C 309.7 30.1 309.9 29.6 309.9 29 C 309.9 29 309.9 28.8 309.9 28.8 C 309.9 27.2 309.4 25.9 308.5 24.9 C 307.6 24 306.2 23.5 304.4 23.5 C 302.5 23.5 301 23.9 299.9 24.8 C 298.8 25.6 298 26.5 297.6 27.5 C 297.6 27.5 293.7 26.1 293.7 26.1 C 294.4 24.5 295.3 23.3 296.5 22.4 C 297.6 21.5 298.9 20.9 300.2 20.5 C 301.6 20.2 302.9 20 304.2 20 C 305.1 20 306.1 20.1 307.1 20.3 C 308.2 20.5 309.3 20.9 310.3 21.5 C 311.4 22.1 312.2 23 312.9 24.3 C 313.6 25.5 313.9 27.2 313.9 29.3 C 313.92 29.25 313.9 46.5 313.9 46.5 L 309.9 46.5 L 309.9 43 C 309.9 43 309.7 42.95 309.7 43 C 309.4 43.5 309 44.1 308.3 44.8 C 307.7 45.4 306.8 46 305.8 46.4 C 304.7 46.9 303.4 47.1 301.9 47.1 Z M 302.5 43.5 C 304.1 43.5 305.5 43.2 306.6 42.6 C 307.7 41.9 308.5 41.1 309.1 40.1 C 309.6 39.2 309.9 38.1 309.9 37 C 309.9 37 309.9 33.3 309.9 33.3 C 309.7 33.5 309.4 33.7 308.8 33.9 C 308.2 34.1 307.6 34.2 306.8 34.3 C 306.1 34.4 305.3 34.5 304.6 34.6 C 303.9 34.7 303.4 34.8 302.9 34.8 C 301.9 35 300.9 35.2 300 35.5 C 299.1 35.8 298.4 36.2 297.8 36.8 C 297.3 37.4 297 38.3 297 39.3 C 297 40.7 297.5 41.7 298.6 42.4 C 299.6 43.1 300.9 43.5 302.5 43.5 Z M 324.7 11.6 L 324.7 46.5 L 320.7 46.5 L 320.7 11.6 L 324.7 11.6 Z M 335.6 11.6 L 335.6 46.5 L 331.5 46.5 L 331.5 11.6 L 335.6 11.6 Z M 344.7 56.3 C 344 56.3 343.4 56.3 342.9 56.2 C 342.3 56 342 55.9 341.8 55.8 C 341.8 55.8 342.8 52.3 342.8 52.3 C 343.8 52.5 344.6 52.6 345.4 52.6 C 346.1 52.5 346.8 52.2 347.4 51.6 C 348 51 348.5 50 349 48.7 C 349 48.68 349.8 46.6 349.8 46.6 L 340.1 20.3 L 344.4 20.3 L 351.7 41.2 L 351.9 41.2 L 359.2 20.3 L 363.5 20.3 C 363.5 20.3 352.41 50.32 352.4 50.3 C 351.9 51.7 351.3 52.8 350.6 53.7 C 349.8 54.6 349 55.2 348 55.7 C 347 56.1 345.9 56.3 344.7 56.3 Z " stroke="none" fill="#ffffff"/>  </g></svg>