<?xml version="1.0" standalone="no"?><!DOCTYPE svg PUBLIC "-//W3C//DTD SVG 1.1//EN" "http://www.w3.org/Graphics/SVG/1.1/DTD/svg11.dtd"><svg xmlns="http://www.w3.org/2000/svg" version="1.1" width="321px" height="227.5px" viewBox="0 -14 321 227.5" style="top:-14px">  <desc>Anaplan simplifies data management for trusted, actionable insights</desc>  <defs/>  <g id="Polygon122540">    <path d="M 2.1 193.5 L 2.1 174.4 L 7.4 174.4 L 7.4 193.5 L 2.1 193.5 Z M 4.8 171.9 C 4 171.9 3.3 171.6 2.8 171.1 C 2.2 170.6 1.9 170 1.9 169.2 C 1.9 168.5 2.2 167.9 2.8 167.3 C 3.3 166.8 4 166.5 4.8 166.5 C 5.6 166.5 6.2 166.8 6.8 167.3 C 7.4 167.9 7.6 168.5 7.6 169.2 C 7.6 170 7.4 170.6 6.8 171.1 C 6.2 171.6 5.6 171.9 4.8 171.9 Z M 16.5 182.4 C 16.51 182.42 16.5 193.5 16.5 193.5 L 11.2 193.5 L 11.2 174.4 L 16.3 174.4 L 16.3 177.7 C 16.3 177.7 16.49 177.73 16.5 177.7 C 16.9 176.6 17.6 175.7 18.6 175.1 C 19.6 174.4 20.8 174.1 22.2 174.1 C 23.6 174.1 24.7 174.4 25.7 175 C 26.7 175.6 27.4 176.4 28 177.5 C 28.5 178.5 28.8 179.8 28.8 181.3 C 28.82 181.3 28.8 193.5 28.8 193.5 L 23.5 193.5 C 23.5 193.5 23.52 182.24 23.5 182.2 C 23.5 181.1 23.2 180.2 22.6 179.5 C 22 178.8 21.2 178.5 20.1 178.5 C 19.4 178.5 18.8 178.7 18.2 179 C 17.7 179.3 17.3 179.7 17 180.3 C 16.7 180.9 16.5 181.6 16.5 182.4 Z M 48.2 179.8 C 48.2 179.8 43.3 180.1 43.3 180.1 C 43.3 179.7 43.1 179.3 42.8 179 C 42.5 178.6 42.2 178.4 41.7 178.2 C 41.3 178 40.8 177.9 40.1 177.9 C 39.3 177.9 38.6 178 38.1 178.4 C 37.5 178.7 37.2 179.2 37.2 179.8 C 37.2 180.2 37.4 180.6 37.8 180.9 C 38.1 181.2 38.8 181.5 39.6 181.7 C 39.6 181.7 43.1 182.4 43.1 182.4 C 45 182.7 46.3 183.4 47.3 184.2 C 48.2 185.1 48.6 186.2 48.6 187.5 C 48.6 188.8 48.3 189.9 47.5 190.8 C 46.8 191.8 45.8 192.5 44.5 193 C 43.2 193.6 41.8 193.8 40.1 193.8 C 37.6 193.8 35.6 193.3 34.1 192.2 C 32.6 191.2 31.7 189.7 31.5 187.9 C 31.5 187.9 36.7 187.7 36.7 187.7 C 36.8 188.4 37.2 189 37.8 189.4 C 38.4 189.8 39.2 190 40.1 190 C 41.1 190 41.8 189.8 42.4 189.5 C 42.9 189.1 43.2 188.6 43.2 188.1 C 43.2 187.6 43 187.2 42.6 186.9 C 42.2 186.6 41.6 186.3 40.8 186.2 C 40.8 186.2 37.5 185.5 37.5 185.5 C 35.6 185.1 34.2 184.5 33.3 183.6 C 32.4 182.7 32 181.5 32 180.1 C 32 178.8 32.3 177.8 33 176.9 C 33.6 176 34.6 175.3 35.8 174.8 C 37 174.4 38.4 174.1 40.1 174.1 C 42.5 174.1 44.4 174.6 45.8 175.6 C 47.1 176.7 48 178.1 48.2 179.8 Z M 51.4 193.5 L 51.4 174.4 L 56.7 174.4 L 56.7 193.5 L 51.4 193.5 Z M 54.1 171.9 C 53.3 171.9 52.6 171.6 52.1 171.1 C 51.5 170.6 51.2 170 51.2 169.2 C 51.2 168.5 51.5 167.9 52.1 167.3 C 52.7 166.8 53.3 166.5 54.1 166.5 C 54.9 166.5 55.6 166.8 56.1 167.3 C 56.7 167.9 57 168.5 57 169.2 C 57 170 56.7 170.6 56.1 171.1 C 55.6 171.6 54.9 171.9 54.1 171.9 Z M 69 201 C 67.3 201 65.8 200.8 64.6 200.3 C 63.3 199.8 62.4 199.2 61.7 198.4 C 60.9 197.6 60.5 196.7 60.2 195.7 C 60.2 195.7 65.1 195 65.1 195 C 65.3 195.4 65.5 195.8 65.9 196.1 C 66.2 196.4 66.6 196.7 67.1 196.9 C 67.7 197.1 68.3 197.2 69.1 197.2 C 70.3 197.2 71.2 196.9 72 196.4 C 72.7 195.8 73.1 194.9 73.1 193.6 C 73.08 193.57 73.1 190.1 73.1 190.1 C 73.1 190.1 72.85 190.07 72.9 190.1 C 72.6 190.6 72.3 191.1 71.8 191.6 C 71.3 192.1 70.7 192.4 70 192.7 C 69.3 193 68.4 193.2 67.4 193.2 C 66 193.2 64.7 192.8 63.5 192.2 C 62.3 191.5 61.4 190.5 60.7 189.1 C 60 187.7 59.7 186 59.7 183.9 C 59.7 181.7 60 179.9 60.7 178.5 C 61.4 177 62.4 175.9 63.5 175.2 C 64.7 174.5 66 174.1 67.4 174.1 C 68.5 174.1 69.4 174.3 70.1 174.7 C 70.8 175 71.4 175.5 71.8 176 C 72.3 176.5 72.6 177.1 72.9 177.6 C 72.85 177.57 73.1 177.6 73.1 177.6 L 73.1 174.4 L 78.3 174.4 C 78.3 174.4 78.31 193.64 78.3 193.6 C 78.3 195.3 77.9 196.6 77.1 197.7 C 76.3 198.8 75.2 199.6 73.8 200.2 C 72.4 200.7 70.8 201 69 201 Z M 69.1 189.2 C 69.9 189.2 70.7 189 71.3 188.6 C 71.8 188.1 72.3 187.5 72.6 186.7 C 72.9 185.9 73.1 185 73.1 183.8 C 73.1 182.7 72.9 181.8 72.6 180.9 C 72.3 180.1 71.9 179.5 71.3 179 C 70.7 178.6 69.9 178.3 69.1 178.3 C 68.2 178.3 67.5 178.6 66.9 179 C 66.3 179.5 65.8 180.1 65.5 181 C 65.2 181.8 65.1 182.8 65.1 183.8 C 65.1 184.9 65.2 185.9 65.5 186.7 C 65.8 187.5 66.3 188.1 66.9 188.6 C 67.5 189 68.2 189.2 69.1 189.2 Z M 87.4 182.4 C 87.4 182.42 87.4 193.5 87.4 193.5 L 82.1 193.5 L 82.1 168 L 87.2 168 L 87.2 177.7 C 87.2 177.7 87.47 177.73 87.5 177.7 C 87.9 176.6 88.6 175.7 89.6 175.1 C 90.5 174.4 91.7 174.1 93.2 174.1 C 94.5 174.1 95.7 174.4 96.7 175 C 97.6 175.6 98.4 176.4 99 177.5 C 99.5 178.5 99.8 179.8 99.8 181.3 C 99.78 181.3 99.8 193.5 99.8 193.5 L 94.5 193.5 C 94.5 193.5 94.48 182.24 94.5 182.2 C 94.5 181.1 94.2 180.2 93.6 179.5 C 93 178.8 92.2 178.5 91.1 178.5 C 90.4 178.5 89.7 178.7 89.2 179 C 88.6 179.3 88.2 179.7 87.9 180.3 C 87.6 180.9 87.4 181.6 87.4 182.4 Z M 113.2 174.4 L 113.2 178.3 L 101.7 178.3 L 101.7 174.4 L 113.2 174.4 Z M 104.3 169.8 L 109.6 169.8 C 109.6 169.8 109.6 187.59 109.6 187.6 C 109.6 188.1 109.7 188.5 109.8 188.7 C 110 189 110.2 189.2 110.5 189.3 C 110.7 189.4 111 189.5 111.4 189.5 C 111.6 189.5 111.9 189.4 112.1 189.4 C 112.4 189.3 112.6 189.3 112.7 189.3 C 112.7 189.3 113.5 193.2 113.5 193.2 C 113.3 193.3 112.9 193.4 112.4 193.5 C 111.9 193.6 111.4 193.7 110.7 193.7 C 109.4 193.8 108.3 193.6 107.3 193.2 C 106.4 192.8 105.6 192.2 105.1 191.4 C 104.6 190.6 104.3 189.5 104.3 188.3 C 104.3 188.28 104.3 169.8 104.3 169.8 Z M 131.6 179.8 C 131.6 179.8 126.7 180.1 126.7 180.1 C 126.6 179.7 126.5 179.3 126.2 179 C 125.9 178.6 125.5 178.4 125.1 178.2 C 124.7 178 124.1 177.9 123.5 177.9 C 122.7 177.9 122 178 121.4 178.4 C 120.9 178.7 120.6 179.2 120.6 179.8 C 120.6 180.2 120.8 180.6 121.1 180.9 C 121.5 181.2 122.1 181.5 123 181.7 C 123 181.7 126.5 182.4 126.5 182.4 C 128.3 182.7 129.7 183.4 130.6 184.2 C 131.5 185.1 132 186.2 132 187.5 C 132 188.8 131.6 189.9 130.9 190.8 C 130.2 191.8 129.2 192.5 127.9 193 C 126.6 193.6 125.2 193.8 123.5 193.8 C 121 193.8 119 193.3 117.5 192.2 C 116 191.2 115.1 189.7 114.8 187.9 C 114.8 187.9 120 187.7 120 187.7 C 120.2 188.4 120.6 189 121.2 189.4 C 121.8 189.8 122.6 190 123.5 190 C 124.4 190 125.2 189.8 125.8 189.5 C 126.3 189.1 126.6 188.6 126.6 188.1 C 126.6 187.6 126.4 187.2 126 186.9 C 125.6 186.6 125 186.3 124.2 186.2 C 124.2 186.2 120.9 185.5 120.9 185.5 C 119 185.1 117.6 184.5 116.7 183.6 C 115.8 182.7 115.3 181.5 115.3 180.1 C 115.3 178.8 115.7 177.8 116.3 176.9 C 117 176 118 175.3 119.2 174.8 C 120.4 174.4 121.8 174.1 123.4 174.1 C 125.8 174.1 127.7 174.6 129.1 175.6 C 130.5 176.7 131.3 178.1 131.6 179.8 Z " stroke="none" fill="#ffffff"/>  </g>  <g id="Polygon122539">    <path d="M 12.3 132.4 L 12.3 136.3 L 0.8 136.3 L 0.8 132.4 L 12.3 132.4 Z M 3.4 127.8 L 8.7 127.8 C 8.7 127.8 8.68 145.59 8.7 145.6 C 8.7 146.1 8.8 146.5 8.9 146.7 C 9 147 9.3 147.2 9.5 147.3 C 9.8 147.4 10.1 147.5 10.5 147.5 C 10.7 147.5 11 147.4 11.2 147.4 C 11.5 147.3 11.7 147.3 11.8 147.3 C 11.8 147.3 12.6 151.2 12.6 151.2 C 12.4 151.3 12 151.4 11.5 151.5 C 11 151.6 10.4 151.7 9.7 151.7 C 8.5 151.8 7.4 151.6 6.4 151.2 C 5.4 150.8 4.7 150.2 4.2 149.4 C 3.6 148.6 3.4 147.5 3.4 146.3 C 3.38 146.28 3.4 127.8 3.4 127.8 Z M 14.8 151.5 L 14.8 132.4 L 19.9 132.4 L 19.9 135.7 C 19.9 135.7 20.12 135.69 20.1 135.7 C 20.5 134.5 21.1 133.6 21.9 133 C 22.7 132.4 23.6 132.1 24.7 132.1 C 25 132.1 25.3 132.1 25.6 132.1 C 25.9 132.2 26.1 132.2 26.4 132.3 C 26.4 132.3 26.4 137 26.4 137 C 26.1 136.9 25.8 136.8 25.3 136.8 C 24.9 136.7 24.5 136.7 24.1 136.7 C 23.4 136.7 22.7 136.9 22.1 137.2 C 21.4 137.5 21 138 20.6 138.6 C 20.3 139.2 20.1 139.9 20.1 140.7 C 20.08 140.65 20.1 151.5 20.1 151.5 L 14.8 151.5 Z M 40.4 143.3 C 40.37 143.33 40.4 132.4 40.4 132.4 L 45.7 132.4 L 45.7 151.5 L 40.6 151.5 L 40.6 148 C 40.6 148 40.38 147.99 40.4 148 C 39.9 149.1 39.2 150 38.2 150.7 C 37.2 151.4 36 151.7 34.6 151.7 C 33.3 151.7 32.2 151.4 31.2 150.8 C 30.3 150.3 29.5 149.4 29 148.4 C 28.4 147.3 28.1 146 28.1 144.5 C 28.13 144.52 28.1 132.4 28.1 132.4 L 33.4 132.4 C 33.4 132.4 33.42 143.57 33.4 143.6 C 33.4 144.7 33.7 145.6 34.3 146.2 C 34.9 146.9 35.7 147.2 36.7 147.2 C 37.4 147.2 38 147.1 38.5 146.8 C 39.1 146.5 39.5 146.1 39.9 145.5 C 40.2 144.9 40.4 144.2 40.4 143.3 Z M 64.9 137.8 C 64.9 137.8 60.1 138.1 60.1 138.1 C 60 137.7 59.8 137.3 59.5 137 C 59.3 136.6 58.9 136.4 58.5 136.2 C 58 136 57.5 135.9 56.9 135.9 C 56.1 135.9 55.4 136 54.8 136.4 C 54.2 136.7 54 137.2 54 137.8 C 54 138.2 54.1 138.6 54.5 138.9 C 54.9 139.2 55.5 139.5 56.4 139.7 C 56.4 139.7 59.8 140.4 59.8 140.4 C 61.7 140.7 63.1 141.4 64 142.2 C 64.9 143.1 65.3 144.2 65.3 145.5 C 65.3 146.8 65 147.9 64.2 148.8 C 63.5 149.8 62.5 150.5 61.2 151 C 60 151.6 58.5 151.8 56.8 151.8 C 54.3 151.8 52.3 151.3 50.8 150.2 C 49.3 149.2 48.4 147.7 48.2 145.9 C 48.2 145.9 53.4 145.7 53.4 145.7 C 53.6 146.4 53.9 147 54.5 147.4 C 55.1 147.8 55.9 148 56.9 148 C 57.8 148 58.5 147.8 59.1 147.5 C 59.7 147.1 60 146.6 60 146.1 C 60 145.6 59.8 145.2 59.4 144.9 C 59 144.6 58.3 144.3 57.5 144.2 C 57.5 144.2 54.2 143.5 54.2 143.5 C 52.3 143.1 51 142.5 50.1 141.6 C 49.1 140.7 48.7 139.5 48.7 138.1 C 48.7 136.8 49 135.8 49.7 134.9 C 50.4 134 51.3 133.3 52.5 132.8 C 53.7 132.4 55.2 132.1 56.8 132.1 C 59.2 132.1 61.1 132.6 62.5 133.6 C 63.9 134.7 64.7 136.1 64.9 137.8 Z M 77.9 132.4 L 77.9 136.3 L 66.4 136.3 L 66.4 132.4 L 77.9 132.4 Z M 69 127.8 L 74.3 127.8 C 74.3 127.8 74.3 145.59 74.3 145.6 C 74.3 146.1 74.4 146.5 74.5 146.7 C 74.7 147 74.9 147.2 75.2 147.3 C 75.4 147.4 75.7 147.5 76.1 147.5 C 76.3 147.5 76.6 147.4 76.8 147.4 C 77.1 147.3 77.3 147.3 77.4 147.3 C 77.4 147.3 78.2 151.2 78.2 151.2 C 78 151.3 77.6 151.4 77.1 151.5 C 76.6 151.6 76.1 151.7 75.4 151.7 C 74.1 151.8 73 151.6 72 151.2 C 71.1 150.8 70.3 150.2 69.8 149.4 C 69.3 148.6 69 147.5 69 146.3 C 69.01 146.28 69 127.8 69 127.8 Z M 88.6 151.8 C 86.6 151.8 84.9 151.4 83.5 150.6 C 82.1 149.8 81 148.7 80.2 147.2 C 79.5 145.8 79.1 144 79.1 142 C 79.1 140 79.5 138.3 80.2 136.8 C 81 135.3 82.1 134.2 83.5 133.4 C 84.9 132.5 86.5 132.1 88.4 132.1 C 89.6 132.1 90.8 132.3 91.9 132.7 C 93 133.1 93.9 133.7 94.7 134.5 C 95.6 135.3 96.2 136.3 96.7 137.6 C 97.1 138.8 97.3 140.2 97.3 141.8 C 97.34 141.81 97.3 143.3 97.3 143.3 L 81.2 143.3 L 81.2 140 C 81.2 140 92.35 139.98 92.4 140 C 92.4 139.2 92.2 138.5 91.9 138 C 91.5 137.4 91.1 136.9 90.5 136.6 C 89.9 136.2 89.2 136.1 88.5 136.1 C 87.6 136.1 86.9 136.3 86.3 136.6 C 85.7 137 85.2 137.5 84.9 138.1 C 84.5 138.7 84.3 139.4 84.3 140.2 C 84.3 140.2 84.3 143.3 84.3 143.3 C 84.3 144.2 84.5 145 84.9 145.7 C 85.2 146.4 85.7 146.9 86.4 147.3 C 87 147.7 87.8 147.9 88.7 147.9 C 89.3 147.9 89.8 147.8 90.3 147.6 C 90.8 147.5 91.2 147.2 91.5 146.9 C 91.9 146.5 92.1 146.1 92.3 145.7 C 92.3 145.7 97.2 146 97.2 146 C 97 147.2 96.5 148.2 95.7 149.1 C 94.9 149.9 94 150.6 92.7 151.1 C 91.5 151.6 90.1 151.8 88.6 151.8 Z M 107 151.8 C 105.6 151.8 104.2 151.4 103.1 150.6 C 101.9 149.9 101 148.8 100.3 147.3 C 99.6 145.9 99.3 144.1 99.3 141.9 C 99.3 139.7 99.6 137.9 100.3 136.5 C 101 135 102 133.9 103.1 133.2 C 104.3 132.5 105.6 132.1 107 132.1 C 108.1 132.1 109 132.3 109.7 132.7 C 110.4 133 111 133.5 111.4 134 C 111.9 134.5 112.2 135.1 112.4 135.6 C 112.43 135.57 112.6 135.6 112.6 135.6 L 112.6 126 L 117.9 126 L 117.9 151.5 L 112.7 151.5 L 112.7 148.4 C 112.7 148.4 112.43 148.4 112.4 148.4 C 112.2 148.9 111.8 149.5 111.4 150 C 110.9 150.5 110.3 150.9 109.6 151.3 C 108.9 151.6 108 151.8 107 151.8 Z M 108.7 147.6 C 109.5 147.6 110.3 147.3 110.9 146.8 C 111.4 146.4 111.9 145.7 112.2 144.9 C 112.5 144 112.7 143 112.7 141.9 C 112.7 140.8 112.5 139.8 112.2 139 C 111.9 138.1 111.5 137.5 110.9 137 C 110.3 136.6 109.5 136.3 108.7 136.3 C 107.8 136.3 107.1 136.6 106.5 137 C 105.9 137.5 105.4 138.2 105.1 139 C 104.8 139.8 104.7 140.8 104.7 141.9 C 104.7 143 104.8 144 105.1 144.8 C 105.4 145.7 105.9 146.4 106.5 146.8 C 107.1 147.3 107.8 147.6 108.7 147.6 Z M 126.7 148 C 126.7 148 126.55 149.34 126.6 149.3 C 126.4 150.4 126.2 151.5 125.9 152.6 C 125.6 153.7 125.3 154.7 125 155.6 C 124.7 156.5 124.4 157.2 124.2 157.7 C 124.2 157.7 120.8 157.7 120.8 157.7 C 120.9 157.2 121.1 156.5 121.3 155.6 C 121.5 154.8 121.7 153.8 121.9 152.7 C 122.1 151.6 122.2 150.5 122.3 149.4 C 122.25 149.37 122.3 148 122.3 148 L 126.7 148 Z M 143.7 151.8 C 142.5 151.8 141.4 151.6 140.4 151.2 C 139.5 150.7 138.7 150.1 138.2 149.3 C 137.6 148.4 137.4 147.4 137.4 146.1 C 137.4 145.1 137.6 144.2 137.9 143.5 C 138.3 142.7 138.9 142.1 139.5 141.7 C 140.2 141.3 141 140.9 141.8 140.7 C 142.7 140.5 143.6 140.3 144.5 140.2 C 145.6 140.1 146.5 140 147.2 139.9 C 147.9 139.8 148.4 139.7 148.7 139.4 C 149 139.2 149.2 138.9 149.2 138.5 C 149.2 138.5 149.2 138.5 149.2 138.5 C 149.2 137.7 148.9 137.1 148.4 136.6 C 147.9 136.2 147.2 136 146.3 136 C 145.4 136 144.6 136.2 144 136.6 C 143.5 137 143.1 137.6 142.9 138.2 C 142.9 138.2 138 137.8 138 137.8 C 138.3 136.6 138.8 135.6 139.5 134.8 C 140.2 133.9 141.2 133.3 142.3 132.8 C 143.5 132.3 144.8 132.1 146.3 132.1 C 147.4 132.1 148.4 132.2 149.4 132.5 C 150.4 132.7 151.2 133.1 152 133.6 C 152.8 134.2 153.3 134.8 153.8 135.7 C 154.2 136.5 154.4 137.4 154.4 138.6 C 154.45 138.58 154.4 151.5 154.4 151.5 L 149.4 151.5 L 149.4 148.8 C 149.4 148.8 149.28 148.81 149.3 148.8 C 149 149.4 148.6 149.9 148 150.4 C 147.5 150.8 146.9 151.2 146.2 151.4 C 145.5 151.7 144.6 151.8 143.7 151.8 Z M 145.2 148.2 C 146 148.2 146.7 148 147.3 147.7 C 147.9 147.4 148.3 147 148.7 146.4 C 149 145.9 149.2 145.3 149.2 144.6 C 149.2 144.6 149.2 142.6 149.2 142.6 C 149 142.7 148.8 142.8 148.5 142.9 C 148.2 143 147.9 143.1 147.5 143.1 C 147.2 143.2 146.8 143.3 146.5 143.3 C 146.1 143.4 145.8 143.4 145.5 143.5 C 144.9 143.6 144.3 143.7 143.9 143.9 C 143.4 144.1 143.1 144.4 142.8 144.7 C 142.5 145 142.4 145.5 142.4 145.9 C 142.4 146.7 142.7 147.2 143.2 147.6 C 143.7 148 144.4 148.2 145.2 148.2 Z M 166.4 151.8 C 164.4 151.8 162.7 151.4 161.3 150.6 C 159.9 149.7 158.8 148.6 158.1 147.1 C 157.3 145.6 157 143.9 157 142 C 157 140 157.3 138.3 158.1 136.8 C 158.9 135.4 159.9 134.2 161.3 133.4 C 162.7 132.5 164.4 132.1 166.3 132.1 C 168 132.1 169.5 132.4 170.7 133 C 172 133.6 172.9 134.5 173.7 135.6 C 174.4 136.7 174.8 137.9 174.9 139.4 C 174.9 139.4 169.9 139.4 169.9 139.4 C 169.7 138.5 169.4 137.7 168.8 137.1 C 168.2 136.5 167.4 136.2 166.4 136.2 C 165.6 136.2 164.9 136.5 164.3 136.9 C 163.7 137.3 163.2 138 162.9 138.8 C 162.5 139.7 162.3 140.7 162.3 141.9 C 162.3 143.1 162.5 144.2 162.8 145 C 163.2 145.9 163.7 146.5 164.3 147 C 164.9 147.4 165.6 147.6 166.4 147.6 C 167 147.6 167.6 147.5 168.1 147.3 C 168.5 147 168.9 146.7 169.3 146.2 C 169.6 145.7 169.8 145.1 169.9 144.5 C 169.9 144.5 174.9 144.5 174.9 144.5 C 174.8 145.9 174.4 147.2 173.7 148.3 C 173 149.4 172 150.3 170.8 150.9 C 169.5 151.5 168.1 151.8 166.4 151.8 Z M 187.5 132.4 L 187.5 136.3 L 176 136.3 L 176 132.4 L 187.5 132.4 Z M 178.6 127.8 L 183.9 127.8 C 183.9 127.8 183.93 145.59 183.9 145.6 C 183.9 146.1 184 146.5 184.2 146.7 C 184.3 147 184.5 147.2 184.8 147.3 C 185 147.4 185.4 147.5 185.7 147.5 C 186 147.5 186.2 147.4 186.5 147.4 C 186.7 147.3 186.9 147.3 187 147.3 C 187 147.3 187.9 151.2 187.9 151.2 C 187.6 151.3 187.2 151.4 186.7 151.5 C 186.3 151.6 185.7 151.7 185 151.7 C 183.7 151.8 182.6 151.6 181.6 151.2 C 180.7 150.8 179.9 150.2 179.4 149.4 C 178.9 148.6 178.6 147.5 178.6 146.3 C 178.63 146.28 178.6 127.8 178.6 127.8 Z M 190.1 151.5 L 190.1 132.4 L 195.4 132.4 L 195.4 151.5 L 190.1 151.5 Z M 192.7 129.9 C 191.9 129.9 191.3 129.6 190.7 129.1 C 190.2 128.6 189.9 128 189.9 127.2 C 189.9 126.5 190.2 125.9 190.7 125.3 C 191.3 124.8 192 124.5 192.7 124.5 C 193.5 124.5 194.2 124.8 194.8 125.3 C 195.3 125.9 195.6 126.5 195.6 127.2 C 195.6 128 195.3 128.6 194.8 129.1 C 194.2 129.6 193.5 129.9 192.7 129.9 Z M 207.4 151.8 C 205.5 151.8 203.8 151.4 202.4 150.6 C 201 149.8 199.9 148.6 199.1 147.1 C 198.4 145.7 198 143.9 198 142 C 198 140 198.4 138.3 199.1 136.8 C 199.9 135.3 201 134.2 202.4 133.4 C 203.8 132.5 205.5 132.1 207.4 132.1 C 209.3 132.1 211 132.5 212.4 133.4 C 213.8 134.2 214.9 135.3 215.6 136.8 C 216.4 138.3 216.8 140 216.8 142 C 216.8 143.9 216.4 145.7 215.6 147.1 C 214.9 148.6 213.8 149.8 212.4 150.6 C 211 151.4 209.3 151.8 207.4 151.8 Z M 207.4 147.7 C 208.3 147.7 209 147.5 209.6 147 C 210.2 146.5 210.6 145.8 210.9 144.9 C 211.2 144 211.4 143.1 211.4 141.9 C 211.4 140.8 211.2 139.8 210.9 139 C 210.6 138.1 210.2 137.4 209.6 136.9 C 209 136.4 208.3 136.2 207.4 136.2 C 206.5 136.2 205.8 136.4 205.2 136.9 C 204.6 137.4 204.1 138.1 203.8 139 C 203.5 139.8 203.4 140.8 203.4 141.9 C 203.4 143.1 203.5 144 203.8 144.9 C 204.1 145.8 204.6 146.5 205.2 147 C 205.8 147.5 206.5 147.7 207.4 147.7 Z M 224.7 140.4 C 224.7 140.42 224.7 151.5 224.7 151.5 L 219.4 151.5 L 219.4 132.4 L 224.5 132.4 L 224.5 135.7 C 224.5 135.7 224.68 135.73 224.7 135.7 C 225.1 134.6 225.8 133.7 226.8 133.1 C 227.8 132.4 229 132.1 230.4 132.1 C 231.7 132.1 232.9 132.4 233.9 133 C 234.9 133.6 235.6 134.4 236.2 135.5 C 236.7 136.5 237 137.8 237 139.3 C 237.01 139.3 237 151.5 237 151.5 L 231.7 151.5 C 231.7 151.5 231.71 140.24 231.7 140.2 C 231.7 139.1 231.4 138.2 230.8 137.5 C 230.2 136.8 229.4 136.5 228.3 136.5 C 227.6 136.5 227 136.7 226.4 137 C 225.9 137.3 225.5 137.7 225.2 138.3 C 224.9 138.9 224.7 139.6 224.7 140.4 Z M 245.8 151.8 C 244.5 151.8 243.5 151.6 242.5 151.2 C 241.6 150.7 240.8 150.1 240.3 149.3 C 239.7 148.4 239.4 147.4 239.4 146.1 C 239.4 145.1 239.6 144.2 240 143.5 C 240.4 142.7 240.9 142.1 241.6 141.7 C 242.3 141.3 243 140.9 243.9 140.7 C 244.8 140.5 245.7 140.3 246.6 140.2 C 247.7 140.1 248.6 140 249.3 139.9 C 250 139.8 250.5 139.7 250.8 139.4 C 251.1 139.2 251.2 138.9 251.2 138.5 C 251.2 138.5 251.2 138.5 251.2 138.5 C 251.2 137.7 251 137.1 250.5 136.6 C 250 136.2 249.3 136 248.4 136 C 247.4 136 246.7 136.2 246.1 136.6 C 245.5 137 245.2 137.6 245 138.2 C 245 138.2 240.1 137.8 240.1 137.8 C 240.3 136.6 240.8 135.6 241.6 134.8 C 242.3 133.9 243.2 133.3 244.4 132.8 C 245.5 132.3 246.9 132.1 248.4 132.1 C 249.5 132.1 250.5 132.2 251.5 132.5 C 252.4 132.7 253.3 133.1 254.1 133.6 C 254.8 134.2 255.4 134.8 255.9 135.7 C 256.3 136.5 256.5 137.4 256.5 138.6 C 256.52 138.58 256.5 151.5 256.5 151.5 L 251.5 151.5 L 251.5 148.8 C 251.5 148.8 251.35 148.81 251.3 148.8 C 251 149.4 250.6 149.9 250.1 150.4 C 249.6 150.8 249 151.2 248.3 151.4 C 247.5 151.7 246.7 151.8 245.8 151.8 Z M 247.3 148.2 C 248.1 148.2 248.7 148 249.3 147.7 C 249.9 147.4 250.4 147 250.7 146.4 C 251.1 145.9 251.3 145.3 251.3 144.6 C 251.3 144.6 251.3 142.6 251.3 142.6 C 251.1 142.7 250.9 142.8 250.6 142.9 C 250.3 143 250 143.1 249.6 143.1 C 249.3 143.2 248.9 143.3 248.5 143.3 C 248.2 143.4 247.9 143.4 247.6 143.5 C 247 143.6 246.4 143.7 246 143.9 C 245.5 144.1 245.1 144.4 244.9 144.7 C 244.6 145 244.5 145.5 244.5 145.9 C 244.5 146.7 244.7 147.2 245.3 147.6 C 245.8 148 246.5 148.2 247.3 148.2 Z M 260 151.5 L 260 126 L 265.3 126 L 265.3 135.6 C 265.3 135.6 265.46 135.57 265.5 135.6 C 265.7 135.1 266 134.5 266.5 134 C 266.9 133.5 267.5 133 268.2 132.7 C 268.9 132.3 269.8 132.1 270.9 132.1 C 272.3 132.1 273.6 132.5 274.7 133.2 C 275.9 133.9 276.9 135 277.6 136.5 C 278.3 137.9 278.6 139.7 278.6 141.9 C 278.6 144.1 278.3 145.9 277.6 147.3 C 276.9 148.8 276 149.9 274.8 150.6 C 273.6 151.4 272.3 151.8 270.9 151.8 C 269.9 151.8 269 151.6 268.3 151.3 C 267.5 150.9 267 150.5 266.5 150 C 266 149.5 265.7 148.9 265.5 148.4 C 265.46 148.4 265.2 148.4 265.2 148.4 L 265.2 151.5 L 260 151.5 Z M 265.2 141.9 C 265.2 143 265.3 144 265.7 144.9 C 266 145.7 266.4 146.4 267 146.8 C 267.6 147.3 268.3 147.6 269.2 147.6 C 270.1 147.6 270.8 147.3 271.4 146.8 C 272 146.4 272.4 145.7 272.7 144.8 C 273.1 144 273.2 143 273.2 141.9 C 273.2 140.8 273.1 139.8 272.8 139 C 272.4 138.2 272 137.5 271.4 137 C 270.8 136.6 270.1 136.3 269.2 136.3 C 268.3 136.3 267.6 136.6 267 137 C 266.4 137.5 266 138.1 265.7 139 C 265.3 139.8 265.2 140.8 265.2 141.9 Z M 286.7 126 L 286.7 151.5 L 281.4 151.5 L 281.4 126 L 286.7 126 Z M 298.8 151.8 C 296.8 151.8 295.2 151.4 293.7 150.6 C 292.3 149.8 291.2 148.7 290.5 147.2 C 289.7 145.8 289.3 144 289.3 142 C 289.3 140 289.7 138.3 290.5 136.8 C 291.2 135.3 292.3 134.2 293.7 133.4 C 295.1 132.5 296.7 132.1 298.6 132.1 C 299.9 132.1 301 132.3 302.1 132.7 C 303.2 133.1 304.2 133.7 305 134.5 C 305.8 135.3 306.4 136.3 306.9 137.6 C 307.3 138.8 307.6 140.2 307.6 141.8 C 307.57 141.81 307.6 143.3 307.6 143.3 L 291.4 143.3 L 291.4 140 C 291.4 140 302.58 139.98 302.6 140 C 302.6 139.2 302.4 138.5 302.1 138 C 301.8 137.4 301.3 136.9 300.7 136.6 C 300.1 136.2 299.5 136.1 298.7 136.1 C 297.9 136.1 297.2 136.3 296.6 136.6 C 295.9 137 295.5 137.5 295.1 138.1 C 294.8 138.7 294.6 139.4 294.6 140.2 C 294.6 140.2 294.6 143.3 294.6 143.3 C 294.6 144.2 294.7 145 295.1 145.7 C 295.4 146.4 295.9 146.9 296.6 147.3 C 297.2 147.7 298 147.9 298.9 147.9 C 299.5 147.9 300 147.8 300.5 147.6 C 301 147.5 301.4 147.2 301.8 146.9 C 302.1 146.5 302.4 146.1 302.6 145.7 C 302.6 145.7 307.5 146 307.5 146 C 307.2 147.2 306.7 148.2 305.9 149.1 C 305.2 149.9 304.2 150.6 303 151.1 C 301.8 151.6 300.4 151.8 298.8 151.8 Z " stroke="none" fill="#ffffff"/>  </g>  <g id="Polygon122538">    <path d="M 2.1 109.5 L 2.1 90.4 L 7.2 90.4 L 7.2 93.7 C 7.2 93.7 7.38 93.73 7.4 93.7 C 7.8 92.6 8.4 91.7 9.4 91.1 C 10.3 90.4 11.4 90.1 12.7 90.1 C 14 90.1 15.1 90.4 16 91.1 C 17 91.7 17.6 92.6 17.9 93.7 C 17.9 93.7 18.1 93.7 18.1 93.7 C 18.5 92.6 19.2 91.8 20.2 91.1 C 21.2 90.4 22.4 90.1 23.8 90.1 C 25.6 90.1 27.1 90.7 28.2 91.8 C 29.3 92.9 29.9 94.5 29.9 96.6 C 29.85 96.62 29.9 109.5 29.9 109.5 L 24.6 109.5 C 24.6 109.5 24.57 97.66 24.6 97.7 C 24.6 96.6 24.3 95.8 23.7 95.3 C 23.2 94.7 22.5 94.5 21.6 94.5 C 20.7 94.5 19.9 94.8 19.4 95.4 C 18.8 96 18.6 96.8 18.6 97.8 C 18.56 97.8 18.6 109.5 18.6 109.5 L 13.4 109.5 C 13.4 109.5 13.42 97.55 13.4 97.5 C 13.4 96.6 13.2 95.9 12.6 95.3 C 12.1 94.8 11.4 94.5 10.5 94.5 C 9.9 94.5 9.4 94.6 8.9 94.9 C 8.5 95.2 8.1 95.6 7.8 96.1 C 7.5 96.7 7.4 97.3 7.4 98 C 7.41 98 7.4 109.5 7.4 109.5 L 2.1 109.5 Z M 38.9 109.8 C 37.7 109.8 36.6 109.6 35.7 109.2 C 34.7 108.7 34 108.1 33.4 107.3 C 32.9 106.4 32.6 105.4 32.6 104.1 C 32.6 103.1 32.8 102.2 33.2 101.5 C 33.6 100.7 34.1 100.1 34.8 99.7 C 35.5 99.3 36.2 98.9 37.1 98.7 C 37.9 98.5 38.8 98.3 39.8 98.2 C 40.9 98.1 41.8 98 42.5 97.9 C 43.1 97.8 43.6 97.7 43.9 97.4 C 44.3 97.2 44.4 96.9 44.4 96.5 C 44.4 96.5 44.4 96.5 44.4 96.5 C 44.4 95.7 44.2 95.1 43.7 94.6 C 43.2 94.2 42.5 94 41.6 94 C 40.6 94 39.9 94.2 39.3 94.6 C 38.7 95 38.4 95.6 38.2 96.2 C 38.2 96.2 33.3 95.8 33.3 95.8 C 33.5 94.6 34 93.6 34.7 92.8 C 35.5 91.9 36.4 91.3 37.6 90.8 C 38.7 90.3 40.1 90.1 41.6 90.1 C 42.7 90.1 43.7 90.2 44.6 90.5 C 45.6 90.7 46.5 91.1 47.2 91.6 C 48 92.2 48.6 92.8 49 93.7 C 49.5 94.5 49.7 95.4 49.7 96.6 C 49.7 96.58 49.7 109.5 49.7 109.5 L 44.7 109.5 L 44.7 106.8 C 44.7 106.8 44.53 106.81 44.5 106.8 C 44.2 107.4 43.8 107.9 43.3 108.4 C 42.8 108.8 42.2 109.2 41.4 109.4 C 40.7 109.7 39.9 109.8 38.9 109.8 Z M 40.5 106.2 C 41.2 106.2 41.9 106 42.5 105.7 C 43.1 105.4 43.6 105 43.9 104.4 C 44.3 103.9 44.4 103.3 44.4 102.6 C 44.4 102.6 44.4 100.6 44.4 100.6 C 44.3 100.7 44.1 100.8 43.8 100.9 C 43.5 101 43.2 101.1 42.8 101.1 C 42.4 101.2 42.1 101.3 41.7 101.3 C 41.4 101.4 41.1 101.4 40.8 101.5 C 40.1 101.6 39.6 101.7 39.1 101.9 C 38.7 102.1 38.3 102.4 38.1 102.7 C 37.8 103 37.7 103.5 37.7 103.9 C 37.7 104.7 37.9 105.2 38.5 105.6 C 39 106 39.7 106.2 40.5 106.2 Z M 58.7 98.4 C 58.72 98.42 58.7 109.5 58.7 109.5 L 53.4 109.5 L 53.4 90.4 L 58.5 90.4 L 58.5 93.7 C 58.5 93.7 58.7 93.73 58.7 93.7 C 59.1 92.6 59.8 91.7 60.8 91.1 C 61.8 90.4 63 90.1 64.4 90.1 C 65.8 90.1 66.9 90.4 67.9 91 C 68.9 91.6 69.7 92.4 70.2 93.5 C 70.8 94.5 71 95.8 71 97.3 C 71.02 97.3 71 109.5 71 109.5 L 65.7 109.5 C 65.7 109.5 65.73 98.24 65.7 98.2 C 65.7 97.1 65.4 96.2 64.8 95.5 C 64.2 94.8 63.4 94.5 62.3 94.5 C 61.6 94.5 61 94.7 60.5 95 C 59.9 95.3 59.5 95.7 59.2 96.3 C 58.9 96.9 58.7 97.6 58.7 98.4 Z M 80.1 109.8 C 78.8 109.8 77.8 109.6 76.8 109.2 C 75.9 108.7 75.1 108.1 74.5 107.3 C 74 106.4 73.7 105.4 73.7 104.1 C 73.7 103.1 73.9 102.2 74.3 101.5 C 74.7 100.7 75.2 100.1 75.9 99.7 C 76.6 99.3 77.3 98.9 78.2 98.7 C 79 98.5 79.9 98.3 80.9 98.2 C 82 98.1 82.9 98 83.6 97.9 C 84.3 97.8 84.8 97.7 85.1 97.4 C 85.4 97.2 85.5 96.9 85.5 96.5 C 85.5 96.5 85.5 96.5 85.5 96.5 C 85.5 95.7 85.3 95.1 84.8 94.6 C 84.3 94.2 83.6 94 82.7 94 C 81.7 94 81 94.2 80.4 94.6 C 79.8 95 79.5 95.6 79.3 96.2 C 79.3 96.2 74.4 95.8 74.4 95.8 C 74.6 94.6 75.1 93.6 75.9 92.8 C 76.6 91.9 77.5 91.3 78.7 90.8 C 79.8 90.3 81.2 90.1 82.7 90.1 C 83.8 90.1 84.8 90.2 85.8 90.5 C 86.7 90.7 87.6 91.1 88.4 91.6 C 89.1 92.2 89.7 92.8 90.2 93.7 C 90.6 94.5 90.8 95.4 90.8 96.6 C 90.81 96.58 90.8 109.5 90.8 109.5 L 85.8 109.5 L 85.8 106.8 C 85.8 106.8 85.64 106.81 85.6 106.8 C 85.3 107.4 84.9 107.9 84.4 108.4 C 83.9 108.8 83.3 109.2 82.6 109.4 C 81.8 109.7 81 109.8 80.1 109.8 Z M 81.6 106.2 C 82.4 106.2 83 106 83.6 105.7 C 84.2 105.4 84.7 105 85 104.4 C 85.4 103.9 85.6 103.3 85.6 102.6 C 85.6 102.6 85.6 100.6 85.6 100.6 C 85.4 100.7 85.2 100.8 84.9 100.9 C 84.6 101 84.3 101.1 83.9 101.1 C 83.6 101.2 83.2 101.3 82.8 101.3 C 82.5 101.4 82.2 101.4 81.9 101.5 C 81.3 101.6 80.7 101.7 80.2 101.9 C 79.8 102.1 79.4 102.4 79.2 102.7 C 78.9 103 78.8 103.5 78.8 103.9 C 78.8 104.7 79 105.2 79.6 105.6 C 80.1 106 80.8 106.2 81.6 106.2 Z M 103 117 C 101.3 117 99.8 116.8 98.6 116.3 C 97.4 115.8 96.4 115.2 95.7 114.4 C 95 113.6 94.5 112.7 94.3 111.7 C 94.3 111.7 99.2 111 99.2 111 C 99.3 111.4 99.6 111.8 99.9 112.1 C 100.2 112.4 100.6 112.7 101.2 112.9 C 101.7 113.1 102.4 113.2 103.1 113.2 C 104.3 113.2 105.2 112.9 106 112.4 C 106.7 111.8 107.1 110.9 107.1 109.6 C 107.11 109.57 107.1 106.1 107.1 106.1 C 107.1 106.1 106.88 106.07 106.9 106.1 C 106.7 106.6 106.3 107.1 105.8 107.6 C 105.4 108.1 104.8 108.4 104 108.7 C 103.3 109 102.5 109.2 101.4 109.2 C 100 109.2 98.7 108.8 97.5 108.2 C 96.4 107.5 95.4 106.5 94.7 105.1 C 94 103.7 93.7 102 93.7 99.9 C 93.7 97.7 94 95.9 94.8 94.5 C 95.5 93 96.4 91.9 97.6 91.2 C 98.7 90.5 100 90.1 101.4 90.1 C 102.5 90.1 103.4 90.3 104.1 90.7 C 104.8 91 105.4 91.5 105.9 92 C 106.3 92.5 106.6 93.1 106.9 93.6 C 106.88 93.57 107.1 93.6 107.1 93.6 L 107.1 90.4 L 112.3 90.4 C 112.3 90.4 112.34 109.64 112.3 109.6 C 112.3 111.3 111.9 112.6 111.1 113.7 C 110.4 114.8 109.3 115.6 107.8 116.2 C 106.4 116.7 104.8 117 103 117 Z M 103.1 105.2 C 104 105.2 104.7 105 105.3 104.6 C 105.9 104.1 106.3 103.5 106.7 102.7 C 107 101.9 107.1 101 107.1 99.8 C 107.1 98.7 107 97.8 106.7 96.9 C 106.3 96.1 105.9 95.5 105.3 95 C 104.7 94.6 104 94.3 103.1 94.3 C 102.2 94.3 101.5 94.6 100.9 95 C 100.3 95.5 99.9 96.1 99.6 97 C 99.3 97.8 99.1 98.8 99.1 99.8 C 99.1 100.9 99.3 101.9 99.6 102.7 C 99.9 103.5 100.3 104.1 100.9 104.6 C 101.5 105 102.2 105.2 103.1 105.2 Z M 124.8 109.8 C 122.8 109.8 121.1 109.4 119.7 108.6 C 118.3 107.8 117.2 106.7 116.4 105.2 C 115.7 103.8 115.3 102 115.3 100 C 115.3 98 115.7 96.3 116.4 94.8 C 117.2 93.3 118.3 92.2 119.7 91.4 C 121.1 90.5 122.7 90.1 124.6 90.1 C 125.8 90.1 127 90.3 128.1 90.7 C 129.2 91.1 130.1 91.7 130.9 92.5 C 131.8 93.3 132.4 94.3 132.8 95.6 C 133.3 96.8 133.5 98.2 133.5 99.8 C 133.53 99.81 133.5 101.3 133.5 101.3 L 117.4 101.3 L 117.4 98 C 117.4 98 128.55 97.98 128.5 98 C 128.5 97.2 128.4 96.5 128.1 96 C 127.7 95.4 127.3 94.9 126.7 94.6 C 126.1 94.2 125.4 94.1 124.6 94.1 C 123.8 94.1 123.1 94.3 122.5 94.6 C 121.9 95 121.4 95.5 121.1 96.1 C 120.7 96.7 120.5 97.4 120.5 98.2 C 120.5 98.2 120.5 101.3 120.5 101.3 C 120.5 102.2 120.7 103 121.1 103.7 C 121.4 104.4 121.9 104.9 122.6 105.3 C 123.2 105.7 124 105.9 124.9 105.9 C 125.4 105.9 126 105.8 126.5 105.6 C 127 105.5 127.4 105.2 127.7 104.9 C 128.1 104.5 128.3 104.1 128.5 103.7 C 128.5 103.7 133.4 104 133.4 104 C 133.2 105.2 132.7 106.2 131.9 107.1 C 131.1 107.9 130.1 108.6 128.9 109.1 C 127.7 109.6 126.3 109.8 124.8 109.8 Z M 136.6 109.5 L 136.6 90.4 L 141.6 90.4 L 141.6 93.7 C 141.6 93.7 141.82 93.73 141.8 93.7 C 142.2 92.6 142.9 91.7 143.8 91.1 C 144.7 90.4 145.8 90.1 147.1 90.1 C 148.5 90.1 149.6 90.4 150.5 91.1 C 151.4 91.7 152 92.6 152.3 93.7 C 152.3 93.7 152.5 93.7 152.5 93.7 C 152.9 92.6 153.6 91.8 154.6 91.1 C 155.7 90.4 156.9 90.1 158.3 90.1 C 160.1 90.1 161.5 90.7 162.6 91.8 C 163.7 92.9 164.3 94.5 164.3 96.6 C 164.29 96.62 164.3 109.5 164.3 109.5 L 159 109.5 C 159 109.5 159.01 97.66 159 97.7 C 159 96.6 158.7 95.8 158.2 95.3 C 157.6 94.7 156.9 94.5 156.1 94.5 C 155.1 94.5 154.3 94.8 153.8 95.4 C 153.3 96 153 96.8 153 97.8 C 153 97.8 153 109.5 153 109.5 L 147.9 109.5 C 147.9 109.5 147.86 97.55 147.9 97.5 C 147.9 96.6 147.6 95.9 147.1 95.3 C 146.5 94.8 145.8 94.5 145 94.5 C 144.4 94.5 143.8 94.6 143.4 94.9 C 142.9 95.2 142.5 95.6 142.3 96.1 C 142 96.7 141.8 97.3 141.8 98 C 141.85 98 141.8 109.5 141.8 109.5 L 136.6 109.5 Z M 176.6 109.8 C 174.6 109.8 172.9 109.4 171.5 108.6 C 170.1 107.8 169 106.7 168.2 105.2 C 167.5 103.8 167.1 102 167.1 100 C 167.1 98 167.5 96.3 168.2 94.8 C 169 93.3 170.1 92.2 171.5 91.4 C 172.9 90.5 174.5 90.1 176.4 90.1 C 177.6 90.1 178.8 90.3 179.9 90.7 C 181 91.1 181.9 91.7 182.7 92.5 C 183.6 93.3 184.2 94.3 184.7 95.6 C 185.1 96.8 185.3 98.2 185.3 99.8 C 185.33 99.81 185.3 101.3 185.3 101.3 L 169.2 101.3 L 169.2 98 C 169.2 98 180.35 97.98 180.4 98 C 180.4 97.2 180.2 96.5 179.9 96 C 179.5 95.4 179.1 94.9 178.5 94.6 C 177.9 94.2 177.2 94.1 176.4 94.1 C 175.6 94.1 174.9 94.3 174.3 94.6 C 173.7 95 173.2 95.5 172.9 96.1 C 172.5 96.7 172.3 97.4 172.3 98.2 C 172.3 98.2 172.3 101.3 172.3 101.3 C 172.3 102.2 172.5 103 172.9 103.7 C 173.2 104.4 173.7 104.9 174.4 105.3 C 175 105.7 175.8 105.9 176.7 105.9 C 177.2 105.9 177.8 105.8 178.3 105.6 C 178.8 105.5 179.2 105.2 179.5 104.9 C 179.9 104.5 180.1 104.1 180.3 103.7 C 180.3 103.7 185.2 104 185.2 104 C 185 105.2 184.5 106.2 183.7 107.1 C 182.9 107.9 181.9 108.6 180.7 109.1 C 179.5 109.6 178.1 109.8 176.6 109.8 Z M 193.7 98.4 C 193.65 98.42 193.7 109.5 193.7 109.5 L 188.4 109.5 L 188.4 90.4 L 193.4 90.4 L 193.4 93.7 C 193.4 93.7 193.63 93.73 193.6 93.7 C 194 92.6 194.8 91.7 195.8 91.1 C 196.7 90.4 198 90.1 199.4 90.1 C 200.7 90.1 201.8 90.4 202.8 91 C 203.8 91.6 204.6 92.4 205.1 93.5 C 205.7 94.5 206 95.8 206 97.3 C 205.95 97.3 206 109.5 206 109.5 L 200.7 109.5 C 200.7 109.5 200.66 98.24 200.7 98.2 C 200.7 97.1 200.4 96.2 199.8 95.5 C 199.2 94.8 198.3 94.5 197.3 94.5 C 196.6 94.5 195.9 94.7 195.4 95 C 194.8 95.3 194.4 95.7 194.1 96.3 C 193.8 96.9 193.7 97.6 193.7 98.4 Z M 219.4 90.4 L 219.4 94.3 L 207.9 94.3 L 207.9 90.4 L 219.4 90.4 Z M 210.5 85.8 L 215.8 85.8 C 215.8 85.8 215.77 103.59 215.8 103.6 C 215.8 104.1 215.8 104.5 216 104.7 C 216.1 105 216.4 105.2 216.6 105.3 C 216.9 105.4 217.2 105.5 217.6 105.5 C 217.8 105.5 218.1 105.4 218.3 105.4 C 218.6 105.3 218.7 105.3 218.9 105.3 C 218.9 105.3 219.7 109.2 219.7 109.2 C 219.4 109.3 219.1 109.4 218.6 109.5 C 218.1 109.6 217.5 109.7 216.8 109.7 C 215.6 109.8 214.4 109.6 213.5 109.2 C 212.5 108.8 211.8 108.2 211.3 107.4 C 210.7 106.6 210.5 105.5 210.5 104.3 C 210.48 104.28 210.5 85.8 210.5 85.8 Z M 240.3 90.4 L 240.3 94.3 L 228.6 94.3 L 228.6 90.4 L 240.3 90.4 Z M 231.3 109.5 C 231.3 109.5 231.26 88.98 231.3 89 C 231.3 87.6 231.5 86.5 232.1 85.5 C 232.6 84.6 233.4 83.9 234.3 83.5 C 235.3 83 236.3 82.8 237.5 82.8 C 238.3 82.8 239.1 82.9 239.8 83 C 240.4 83.1 240.9 83.2 241.3 83.3 C 241.3 83.3 240.3 87.3 240.3 87.3 C 240.1 87.2 239.9 87.2 239.6 87.1 C 239.3 87.1 238.9 87 238.6 87 C 237.9 87 237.3 87.2 237 87.6 C 236.7 87.9 236.5 88.4 236.5 89.1 C 236.54 89.08 236.5 109.5 236.5 109.5 L 231.3 109.5 Z M 251 109.8 C 249.1 109.8 247.4 109.4 246 108.6 C 244.6 107.8 243.6 106.6 242.8 105.1 C 242 103.7 241.7 101.9 241.7 100 C 241.7 98 242 96.3 242.8 94.8 C 243.6 93.3 244.6 92.2 246 91.4 C 247.4 90.5 249.1 90.1 251 90.1 C 253 90.1 254.6 90.5 256 91.4 C 257.5 92.2 258.5 93.3 259.3 94.8 C 260.1 96.3 260.4 98 260.4 100 C 260.4 101.9 260.1 103.7 259.3 105.1 C 258.5 106.6 257.5 107.8 256 108.6 C 254.6 109.4 253 109.8 251 109.8 Z M 251.1 105.7 C 251.9 105.7 252.7 105.5 253.3 105 C 253.9 104.5 254.3 103.8 254.6 102.9 C 254.9 102 255.1 101.1 255.1 99.9 C 255.1 98.8 254.9 97.8 254.6 97 C 254.3 96.1 253.9 95.4 253.3 94.9 C 252.7 94.4 251.9 94.2 251.1 94.2 C 250.2 94.2 249.4 94.4 248.8 94.9 C 248.2 95.4 247.8 96.1 247.5 97 C 247.2 97.8 247 98.8 247 99.9 C 247 101.1 247.2 102 247.5 102.9 C 247.8 103.8 248.2 104.5 248.8 105 C 249.4 105.5 250.2 105.7 251.1 105.7 Z M 263.3 109.5 L 263.3 90.4 L 268.5 90.4 L 268.5 93.7 C 268.5 93.7 268.68 93.69 268.7 93.7 C 269 92.5 269.6 91.6 270.4 91 C 271.3 90.4 272.2 90.1 273.3 90.1 C 273.5 90.1 273.8 90.1 274.1 90.1 C 274.4 90.2 274.7 90.2 274.9 90.3 C 274.9 90.3 274.9 95 274.9 95 C 274.7 94.9 274.3 94.8 273.9 94.8 C 273.5 94.7 273.1 94.7 272.7 94.7 C 271.9 94.7 271.2 94.9 270.6 95.2 C 270 95.5 269.5 96 269.2 96.6 C 268.8 97.2 268.6 97.9 268.6 98.7 C 268.64 98.65 268.6 109.5 268.6 109.5 L 263.3 109.5 Z " stroke="none" fill="#ffffff"/>  </g>  <g id="Polygon122537">    <path d="M 18 53.8 C 18 53.8 13.1 54.1 13.1 54.1 C 13.1 53.7 12.9 53.3 12.6 53 C 12.3 52.6 12 52.4 11.5 52.2 C 11.1 52 10.6 51.9 10 51.9 C 9.1 51.9 8.4 52 7.9 52.4 C 7.3 52.7 7 53.2 7 53.8 C 7 54.2 7.2 54.6 7.6 54.9 C 7.9 55.2 8.6 55.5 9.5 55.7 C 9.5 55.7 12.9 56.4 12.9 56.4 C 14.8 56.7 16.2 57.4 17.1 58.2 C 18 59.1 18.4 60.2 18.4 61.5 C 18.4 62.8 18.1 63.9 17.3 64.8 C 16.6 65.8 15.6 66.5 14.3 67 C 13.1 67.6 11.6 67.8 9.9 67.8 C 7.4 67.8 5.4 67.3 3.9 66.2 C 2.4 65.2 1.5 63.7 1.3 61.9 C 1.3 61.9 6.5 61.7 6.5 61.7 C 6.6 62.4 7 63 7.6 63.4 C 8.2 63.8 9 64 9.9 64 C 10.9 64 11.6 63.8 12.2 63.5 C 12.8 63.1 13 62.6 13.1 62.1 C 13 61.6 12.8 61.2 12.4 60.9 C 12 60.6 11.4 60.3 10.6 60.2 C 10.6 60.2 7.3 59.5 7.3 59.5 C 5.4 59.1 4 58.5 3.1 57.6 C 2.2 56.7 1.8 55.5 1.8 54.1 C 1.8 52.8 2.1 51.8 2.8 50.9 C 3.4 50 4.4 49.3 5.6 48.8 C 6.8 48.4 8.2 48.1 9.9 48.1 C 12.3 48.1 14.2 48.6 15.6 49.6 C 17 50.7 17.8 52.1 18 53.8 Z M 21.3 67.5 L 21.3 48.4 L 26.6 48.4 L 26.6 67.5 L 21.3 67.5 Z M 23.9 45.9 C 23.1 45.9 22.5 45.6 21.9 45.1 C 21.3 44.6 21.1 44 21.1 43.2 C 21.1 42.5 21.3 41.9 21.9 41.3 C 22.5 40.8 23.1 40.5 23.9 40.5 C 24.7 40.5 25.4 40.8 25.9 41.3 C 26.5 41.9 26.8 42.5 26.8 43.2 C 26.8 44 26.5 44.6 25.9 45.1 C 25.4 45.6 24.7 45.9 23.9 45.9 Z M 30.4 67.5 L 30.4 48.4 L 35.4 48.4 L 35.4 51.7 C 35.4 51.7 35.63 51.73 35.6 51.7 C 36 50.6 36.7 49.7 37.6 49.1 C 38.6 48.4 39.7 48.1 41 48.1 C 42.3 48.1 43.4 48.4 44.3 49.1 C 45.2 49.7 45.8 50.6 46.1 51.7 C 46.1 51.7 46.3 51.7 46.3 51.7 C 46.7 50.6 47.4 49.8 48.5 49.1 C 49.5 48.4 50.7 48.1 52.1 48.1 C 53.9 48.1 55.3 48.7 56.4 49.8 C 57.5 50.9 58.1 52.5 58.1 54.6 C 58.11 54.62 58.1 67.5 58.1 67.5 L 52.8 67.5 C 52.8 67.5 52.82 55.66 52.8 55.7 C 52.8 54.6 52.5 53.8 52 53.3 C 51.4 52.7 50.7 52.5 49.9 52.5 C 48.9 52.5 48.2 52.8 47.6 53.4 C 47.1 54 46.8 54.8 46.8 55.8 C 46.81 55.8 46.8 67.5 46.8 67.5 L 41.7 67.5 C 41.7 67.5 41.67 55.55 41.7 55.5 C 41.7 54.6 41.4 53.9 40.9 53.3 C 40.3 52.8 39.6 52.5 38.8 52.5 C 38.2 52.5 37.6 52.6 37.2 52.9 C 36.7 53.2 36.3 53.6 36.1 54.1 C 35.8 54.7 35.7 55.3 35.7 56 C 35.66 56 35.7 67.5 35.7 67.5 L 30.4 67.5 Z M 61.8 74.6 L 61.8 48.4 L 67.1 48.4 L 67.1 51.6 C 67.1 51.6 67.3 51.57 67.3 51.6 C 67.5 51.1 67.9 50.5 68.3 50 C 68.8 49.5 69.3 49 70.1 48.7 C 70.8 48.3 71.7 48.1 72.7 48.1 C 74.1 48.1 75.4 48.5 76.6 49.2 C 77.8 49.9 78.7 51 79.4 52.5 C 80.1 53.9 80.5 55.7 80.5 57.9 C 80.5 60.1 80.1 61.9 79.4 63.3 C 78.8 64.8 77.8 65.9 76.7 66.6 C 75.5 67.4 74.2 67.8 72.7 67.8 C 71.7 67.8 70.8 67.6 70.1 67.3 C 69.4 66.9 68.8 66.5 68.3 66 C 67.9 65.5 67.5 64.9 67.3 64.4 C 67.3 64.4 67.1 64.4 67.1 64.4 L 67.1 74.6 L 61.8 74.6 Z M 67 57.9 C 67 59 67.2 60 67.5 60.9 C 67.8 61.7 68.3 62.4 68.9 62.8 C 69.5 63.3 70.2 63.6 71 63.6 C 71.9 63.6 72.6 63.3 73.2 62.8 C 73.8 62.4 74.3 61.7 74.6 60.8 C 74.9 60 75.1 59 75.1 57.9 C 75.1 56.8 74.9 55.8 74.6 55 C 74.3 54.2 73.8 53.5 73.2 53 C 72.6 52.6 71.9 52.3 71 52.3 C 70.2 52.3 69.5 52.6 68.9 53 C 68.3 53.5 67.8 54.1 67.5 55 C 67.2 55.8 67 56.8 67 57.9 Z M 88.8 42 L 88.8 67.5 L 83.5 67.5 L 83.5 42 L 88.8 42 Z M 92.6 67.5 L 92.6 48.4 L 97.9 48.4 L 97.9 67.5 L 92.6 67.5 Z M 95.3 45.9 C 94.5 45.9 93.8 45.6 93.3 45.1 C 92.7 44.6 92.4 44 92.4 43.2 C 92.4 42.5 92.7 41.9 93.3 41.3 C 93.9 40.8 94.5 40.5 95.3 40.5 C 96.1 40.5 96.8 40.8 97.3 41.3 C 97.9 41.9 98.2 42.5 98.2 43.2 C 98.2 44 97.9 44.6 97.3 45.1 C 96.8 45.6 96.1 45.9 95.3 45.9 Z M 111.9 48.4 L 111.9 52.3 L 100.1 52.3 L 100.1 48.4 L 111.9 48.4 Z M 102.8 67.5 C 102.8 67.5 102.78 46.98 102.8 47 C 102.8 45.6 103 44.5 103.6 43.5 C 104.1 42.6 104.9 41.9 105.8 41.5 C 106.8 41 107.8 40.8 109 40.8 C 109.9 40.8 110.6 40.9 111.3 41 C 111.9 41.1 112.5 41.2 112.8 41.3 C 112.8 41.3 111.8 45.3 111.8 45.3 C 111.6 45.2 111.4 45.2 111.1 45.1 C 110.8 45.1 110.5 45 110.1 45 C 109.4 45 108.8 45.2 108.5 45.6 C 108.2 45.9 108.1 46.4 108.1 47.1 C 108.06 47.08 108.1 67.5 108.1 67.5 L 102.8 67.5 Z M 114.6 67.5 L 114.6 48.4 L 119.9 48.4 L 119.9 67.5 L 114.6 67.5 Z M 117.3 45.9 C 116.5 45.9 115.8 45.6 115.3 45.1 C 114.7 44.6 114.4 44 114.4 43.2 C 114.4 42.5 114.7 41.9 115.3 41.3 C 115.8 40.8 116.5 40.5 117.3 40.5 C 118.1 40.5 118.7 40.8 119.3 41.3 C 119.9 41.9 120.1 42.5 120.1 43.2 C 120.1 44 119.9 44.6 119.3 45.1 C 118.7 45.6 118.1 45.9 117.3 45.9 Z M 132.3 67.8 C 130.3 67.8 128.6 67.4 127.2 66.6 C 125.8 65.8 124.7 64.7 124 63.2 C 123.2 61.8 122.8 60 122.8 58 C 122.8 56 123.2 54.3 124 52.8 C 124.7 51.3 125.8 50.2 127.2 49.4 C 128.6 48.5 130.2 48.1 132.1 48.1 C 133.3 48.1 134.5 48.3 135.6 48.7 C 136.7 49.1 137.6 49.7 138.5 50.5 C 139.3 51.3 139.9 52.3 140.4 53.6 C 140.8 54.8 141.1 56.2 141.1 57.8 C 141.05 57.81 141.1 59.3 141.1 59.3 L 124.9 59.3 L 124.9 56 C 124.9 56 136.07 55.98 136.1 56 C 136.1 55.2 135.9 54.5 135.6 54 C 135.2 53.4 134.8 52.9 134.2 52.6 C 133.6 52.2 132.9 52.1 132.2 52.1 C 131.4 52.1 130.6 52.3 130 52.6 C 129.4 53 128.9 53.5 128.6 54.1 C 128.2 54.7 128.1 55.4 128.1 56.2 C 128.1 56.2 128.1 59.3 128.1 59.3 C 128.1 60.2 128.2 61 128.6 61.7 C 128.9 62.4 129.4 62.9 130.1 63.3 C 130.7 63.7 131.5 63.9 132.4 63.9 C 133 63.9 133.5 63.8 134 63.6 C 134.5 63.5 134.9 63.2 135.2 62.9 C 135.6 62.5 135.9 62.1 136 61.7 C 136 61.7 140.9 62 140.9 62 C 140.7 63.2 140.2 64.2 139.4 65.1 C 138.6 65.9 137.7 66.6 136.5 67.1 C 135.3 67.6 133.9 67.8 132.3 67.8 Z M 159.7 53.8 C 159.7 53.8 154.9 54.1 154.9 54.1 C 154.8 53.7 154.6 53.3 154.3 53 C 154 52.6 153.7 52.4 153.2 52.2 C 152.8 52 152.3 51.9 151.7 51.9 C 150.8 51.9 150.1 52 149.6 52.4 C 149 52.7 148.7 53.2 148.7 53.8 C 148.7 54.2 148.9 54.6 149.3 54.9 C 149.6 55.2 150.3 55.5 151.2 55.7 C 151.2 55.7 154.6 56.4 154.6 56.4 C 156.5 56.7 157.9 57.4 158.8 58.2 C 159.7 59.1 160.1 60.2 160.1 61.5 C 160.1 62.8 159.8 63.9 159 64.8 C 158.3 65.8 157.3 66.5 156 67 C 154.8 67.6 153.3 67.8 151.6 67.8 C 149.1 67.8 147.1 67.3 145.6 66.2 C 144.1 65.2 143.2 63.7 143 61.9 C 143 61.9 148.2 61.7 148.2 61.7 C 148.3 62.4 148.7 63 149.3 63.4 C 149.9 63.8 150.7 64 151.6 64 C 152.6 64 153.3 63.8 153.9 63.5 C 154.5 63.1 154.7 62.6 154.8 62.1 C 154.7 61.6 154.5 61.2 154.1 60.9 C 153.7 60.6 153.1 60.3 152.3 60.2 C 152.3 60.2 149 59.5 149 59.5 C 147.1 59.1 145.7 58.5 144.8 57.6 C 143.9 56.7 143.5 55.5 143.5 54.1 C 143.5 52.8 143.8 51.8 144.5 50.9 C 145.1 50 146.1 49.3 147.3 48.8 C 148.5 48.4 149.9 48.1 151.6 48.1 C 154 48.1 155.9 48.6 157.3 49.6 C 158.7 50.7 159.5 52.1 159.7 53.8 Z M 177.8 67.8 C 176.3 67.8 175 67.4 173.9 66.6 C 172.7 65.9 171.8 64.8 171.1 63.3 C 170.4 61.9 170 60.1 170 57.9 C 170 55.7 170.4 53.9 171.1 52.5 C 171.8 51 172.7 49.9 173.9 49.2 C 175.1 48.5 176.4 48.1 177.8 48.1 C 178.8 48.1 179.7 48.3 180.5 48.7 C 181.2 49 181.8 49.5 182.2 50 C 182.6 50.5 183 51.1 183.2 51.6 C 183.21 51.57 183.4 51.6 183.4 51.6 L 183.4 42 L 188.7 42 L 188.7 67.5 L 183.4 67.5 L 183.4 64.4 C 183.4 64.4 183.21 64.4 183.2 64.4 C 183 64.9 182.6 65.5 182.2 66 C 181.7 66.5 181.1 66.9 180.4 67.3 C 179.7 67.6 178.8 67.8 177.8 67.8 Z M 179.5 63.6 C 180.3 63.6 181 63.3 181.6 62.8 C 182.2 62.4 182.7 61.7 183 60.9 C 183.3 60 183.5 59 183.5 57.9 C 183.5 56.8 183.3 55.8 183 55 C 182.7 54.1 182.2 53.5 181.6 53 C 181 52.6 180.3 52.3 179.5 52.3 C 178.6 52.3 177.9 52.6 177.3 53 C 176.7 53.5 176.2 54.2 175.9 55 C 175.6 55.8 175.5 56.8 175.5 57.9 C 175.5 59 175.6 60 175.9 60.8 C 176.2 61.7 176.7 62.4 177.3 62.8 C 177.9 63.3 178.6 63.6 179.5 63.6 Z M 197.9 67.8 C 196.7 67.8 195.6 67.6 194.6 67.2 C 193.7 66.7 192.9 66.1 192.4 65.3 C 191.8 64.4 191.6 63.4 191.6 62.1 C 191.6 61.1 191.8 60.2 192.1 59.5 C 192.5 58.7 193.1 58.1 193.7 57.7 C 194.4 57.3 195.2 56.9 196 56.7 C 196.9 56.5 197.8 56.3 198.7 56.2 C 199.8 56.1 200.7 56 201.4 55.9 C 202.1 55.8 202.6 55.7 202.9 55.4 C 203.2 55.2 203.4 54.9 203.4 54.5 C 203.4 54.5 203.4 54.5 203.4 54.5 C 203.4 53.7 203.1 53.1 202.6 52.6 C 202.1 52.2 201.4 52 200.5 52 C 199.6 52 198.8 52.2 198.2 52.6 C 197.7 53 197.3 53.6 197.1 54.2 C 197.1 54.2 192.2 53.8 192.2 53.8 C 192.5 52.6 193 51.6 193.7 50.8 C 194.4 49.9 195.4 49.3 196.5 48.8 C 197.7 48.3 199 48.1 200.5 48.1 C 201.6 48.1 202.6 48.2 203.6 48.5 C 204.6 48.7 205.4 49.1 206.2 49.6 C 206.9 50.2 207.5 50.8 208 51.7 C 208.4 52.5 208.6 53.4 208.6 54.6 C 208.65 54.58 208.6 67.5 208.6 67.5 L 203.6 67.5 L 203.6 64.8 C 203.6 64.8 203.48 64.81 203.5 64.8 C 203.2 65.4 202.8 65.9 202.2 66.4 C 201.7 66.8 201.1 67.2 200.4 67.4 C 199.7 67.7 198.8 67.8 197.9 67.8 Z M 199.4 64.2 C 200.2 64.2 200.9 64 201.5 63.7 C 202.1 63.4 202.5 63 202.9 62.4 C 203.2 61.9 203.4 61.3 203.4 60.6 C 203.4 60.6 203.4 58.6 203.4 58.6 C 203.2 58.7 203 58.8 202.7 58.9 C 202.4 59 202.1 59.1 201.7 59.1 C 201.4 59.2 201 59.3 200.7 59.3 C 200.3 59.4 200 59.4 199.7 59.5 C 199.1 59.6 198.5 59.7 198.1 59.9 C 197.6 60.1 197.3 60.4 197 60.7 C 196.7 61 196.6 61.5 196.6 61.9 C 196.6 62.7 196.9 63.2 197.4 63.6 C 197.9 64 198.6 64.2 199.4 64.2 Z M 222.1 48.4 L 222.1 52.3 L 210.6 52.3 L 210.6 48.4 L 222.1 48.4 Z M 213.2 43.8 L 218.5 43.8 C 218.5 43.8 218.48 61.59 218.5 61.6 C 218.5 62.1 218.6 62.5 218.7 62.7 C 218.9 63 219.1 63.2 219.3 63.3 C 219.6 63.4 219.9 63.5 220.3 63.5 C 220.5 63.5 220.8 63.4 221 63.4 C 221.3 63.3 221.5 63.3 221.6 63.3 C 221.6 63.3 222.4 67.2 222.4 67.2 C 222.2 67.3 221.8 67.4 221.3 67.5 C 220.8 67.6 220.2 67.7 219.5 67.7 C 218.3 67.8 217.2 67.6 216.2 67.2 C 215.2 66.8 214.5 66.2 214 65.4 C 213.4 64.6 213.2 63.5 213.2 62.3 C 213.18 62.28 213.2 43.8 213.2 43.8 Z M 230.1 67.8 C 228.9 67.8 227.8 67.6 226.9 67.2 C 225.9 66.7 225.2 66.1 224.6 65.3 C 224.1 64.4 223.8 63.4 223.8 62.1 C 223.8 61.1 224 60.2 224.4 59.5 C 224.8 58.7 225.3 58.1 226 57.7 C 226.6 57.3 227.4 56.9 228.3 56.7 C 229.1 56.5 230 56.3 231 56.2 C 232.1 56.1 233 56 233.6 55.9 C 234.3 55.8 234.8 55.7 235.1 55.4 C 235.4 55.2 235.6 54.9 235.6 54.5 C 235.6 54.5 235.6 54.5 235.6 54.5 C 235.6 53.7 235.3 53.1 234.8 52.6 C 234.4 52.2 233.7 52 232.8 52 C 231.8 52 231 52.2 230.5 52.6 C 229.9 53 229.5 53.6 229.4 54.2 C 229.4 54.2 224.5 53.8 224.5 53.8 C 224.7 52.6 225.2 51.6 225.9 50.8 C 226.7 49.9 227.6 49.3 228.8 48.8 C 229.9 48.3 231.3 48.1 232.8 48.1 C 233.8 48.1 234.9 48.2 235.8 48.5 C 236.8 48.7 237.7 49.1 238.4 49.6 C 239.2 50.2 239.8 50.8 240.2 51.7 C 240.7 52.5 240.9 53.4 240.9 54.6 C 240.88 54.58 240.9 67.5 240.9 67.5 L 235.9 67.5 L 235.9 64.8 C 235.9 64.8 235.71 64.81 235.7 64.8 C 235.4 65.4 235 65.9 234.5 66.4 C 234 66.8 233.3 67.2 232.6 67.4 C 231.9 67.7 231.1 67.8 230.1 67.8 Z M 231.6 64.2 C 232.4 64.2 233.1 64 233.7 63.7 C 234.3 63.4 234.8 63 235.1 62.4 C 235.5 61.9 235.6 61.3 235.6 60.6 C 235.6 60.6 235.6 58.6 235.6 58.6 C 235.5 58.7 235.2 58.8 234.9 58.9 C 234.7 59 234.3 59.1 234 59.1 C 233.6 59.2 233.3 59.3 232.9 59.3 C 232.6 59.4 232.2 59.4 231.9 59.5 C 231.3 59.6 230.8 59.7 230.3 59.9 C 229.8 60.1 229.5 60.4 229.2 60.7 C 229 61 228.8 61.5 228.8 61.9 C 228.8 62.7 229.1 63.2 229.6 63.6 C 230.2 64 230.8 64.2 231.6 64.2 Z " stroke="none" fill="#ffffff"/>  </g>  <g id="Polygon122536">    <path d="M 6.6 25.5 L 0.8 25.5 L 9.6 0 L 16.6 0 L 25.3 25.5 L 19.6 25.5 L 13.2 5.8 L 13 5.8 L 6.6 25.5 Z M 6.2 15.4 L 19.9 15.4 L 19.9 19.7 L 6.2 19.7 L 6.2 15.4 Z M 33 14.4 C 32.97 14.42 33 25.5 33 25.5 L 27.7 25.5 L 27.7 6.4 L 32.7 6.4 L 32.7 9.7 C 32.7 9.7 32.94 9.73 32.9 9.7 C 33.4 8.6 34.1 7.7 35.1 7.1 C 36.1 6.4 37.3 6.1 38.7 6.1 C 40 6.1 41.2 6.4 42.2 7 C 43.1 7.6 43.9 8.4 44.5 9.5 C 45 10.5 45.3 11.8 45.3 13.3 C 45.27 13.3 45.3 25.5 45.3 25.5 L 40 25.5 C 40 25.5 39.98 14.24 40 14.2 C 40 13.1 39.7 12.2 39.1 11.5 C 38.5 10.8 37.6 10.5 36.6 10.5 C 35.9 10.5 35.2 10.7 34.7 11 C 34.2 11.3 33.7 11.7 33.4 12.3 C 33.1 12.9 33 13.6 33 14.4 Z M 54.3 25.8 C 53.1 25.8 52 25.6 51.1 25.2 C 50.1 24.7 49.3 24.1 48.8 23.3 C 48.2 22.4 48 21.4 48 20.1 C 48 19.1 48.2 18.2 48.6 17.5 C 48.9 16.7 49.5 16.1 50.1 15.7 C 50.8 15.3 51.6 14.9 52.4 14.7 C 53.3 14.5 54.2 14.3 55.1 14.2 C 56.3 14.1 57.1 14 57.8 13.9 C 58.5 13.8 59 13.7 59.3 13.4 C 59.6 13.2 59.8 12.9 59.8 12.5 C 59.8 12.5 59.8 12.5 59.8 12.5 C 59.8 11.7 59.5 11.1 59 10.6 C 58.5 10.2 57.8 10 56.9 10 C 56 10 55.2 10.2 54.7 10.6 C 54.1 11 53.7 11.6 53.5 12.2 C 53.5 12.2 48.6 11.8 48.6 11.8 C 48.9 10.6 49.4 9.6 50.1 8.8 C 50.8 7.9 51.8 7.3 52.9 6.8 C 54.1 6.3 55.4 6.1 57 6.1 C 58 6.1 59 6.2 60 6.5 C 61 6.7 61.8 7.1 62.6 7.6 C 63.4 8.2 64 8.8 64.4 9.7 C 64.8 10.5 65.1 11.4 65.1 12.6 C 65.06 12.58 65.1 25.5 65.1 25.5 L 60 25.5 L 60 22.8 C 60 22.8 59.89 22.81 59.9 22.8 C 59.6 23.4 59.2 23.9 58.7 24.4 C 58.1 24.8 57.5 25.2 56.8 25.4 C 56.1 25.7 55.3 25.8 54.3 25.8 Z M 55.8 22.2 C 56.6 22.2 57.3 22 57.9 21.7 C 58.5 21.4 59 21 59.3 20.4 C 59.6 19.9 59.8 19.3 59.8 18.6 C 59.8 18.6 59.8 16.6 59.8 16.6 C 59.6 16.7 59.4 16.8 59.1 16.9 C 58.8 17 58.5 17.1 58.2 17.1 C 57.8 17.2 57.4 17.3 57.1 17.3 C 56.7 17.4 56.4 17.4 56.1 17.5 C 55.5 17.6 55 17.7 54.5 17.9 C 54 18.1 53.7 18.4 53.4 18.7 C 53.2 19 53 19.5 53 19.9 C 53 20.7 53.3 21.2 53.8 21.6 C 54.3 22 55 22.2 55.8 22.2 Z M 68.8 32.6 L 68.8 6.4 L 74 6.4 L 74 9.6 C 74 9.6 74.24 9.57 74.2 9.6 C 74.5 9.1 74.8 8.5 75.3 8 C 75.7 7.5 76.3 7 77 6.7 C 77.7 6.3 78.6 6.1 79.7 6.1 C 81.1 6.1 82.3 6.5 83.5 7.2 C 84.7 7.9 85.6 9 86.3 10.5 C 87.1 11.9 87.4 13.7 87.4 15.9 C 87.4 18.1 87.1 19.9 86.4 21.3 C 85.7 22.8 84.8 23.9 83.6 24.6 C 82.4 25.4 81.1 25.8 79.7 25.8 C 78.6 25.8 77.8 25.6 77 25.3 C 76.3 24.9 75.7 24.5 75.3 24 C 74.8 23.5 74.5 22.9 74.2 22.4 C 74.24 22.4 74.1 22.4 74.1 22.4 L 74.1 32.6 L 68.8 32.6 Z M 74 15.9 C 74 17 74.1 18 74.4 18.9 C 74.8 19.7 75.2 20.4 75.8 20.8 C 76.4 21.3 77.1 21.6 78 21.6 C 78.8 21.6 79.6 21.3 80.2 20.8 C 80.8 20.4 81.2 19.7 81.5 18.8 C 81.8 18 82 17 82 15.9 C 82 14.8 81.8 13.8 81.5 13 C 81.2 12.2 80.8 11.5 80.2 11 C 79.6 10.6 78.9 10.3 78 10.3 C 77.1 10.3 76.4 10.6 75.8 11 C 75.2 11.5 74.8 12.1 74.4 13 C 74.1 13.8 74 14.8 74 15.9 Z M 95.8 0 L 95.8 25.5 L 90.5 25.5 L 90.5 0 L 95.8 0 Z M 105 25.8 C 103.7 25.8 102.6 25.6 101.7 25.2 C 100.7 24.7 100 24.1 99.4 23.3 C 98.9 22.4 98.6 21.4 98.6 20.1 C 98.6 19.1 98.8 18.2 99.2 17.5 C 99.6 16.7 100.1 16.1 100.8 15.7 C 101.5 15.3 102.2 14.9 103.1 14.7 C 103.9 14.5 104.8 14.3 105.8 14.2 C 106.9 14.1 107.8 14 108.5 13.9 C 109.1 13.8 109.6 13.7 109.9 13.4 C 110.3 13.2 110.4 12.9 110.4 12.5 C 110.4 12.5 110.4 12.5 110.4 12.5 C 110.4 11.7 110.2 11.1 109.7 10.6 C 109.2 10.2 108.5 10 107.6 10 C 106.6 10 105.9 10.2 105.3 10.6 C 104.7 11 104.4 11.6 104.2 12.2 C 104.2 12.2 99.3 11.8 99.3 11.8 C 99.5 10.6 100 9.6 100.8 8.8 C 101.5 7.9 102.4 7.3 103.6 6.8 C 104.7 6.3 106.1 6.1 107.6 6.1 C 108.7 6.1 109.7 6.2 110.7 6.5 C 111.6 6.7 112.5 7.1 113.2 7.6 C 114 8.2 114.6 8.8 115 9.7 C 115.5 10.5 115.7 11.4 115.7 12.6 C 115.7 12.58 115.7 25.5 115.7 25.5 L 110.7 25.5 L 110.7 22.8 C 110.7 22.8 110.53 22.81 110.5 22.8 C 110.2 23.4 109.8 23.9 109.3 24.4 C 108.8 24.8 108.2 25.2 107.5 25.4 C 106.7 25.7 105.9 25.8 105 25.8 Z M 106.5 22.2 C 107.2 22.2 107.9 22 108.5 21.7 C 109.1 21.4 109.6 21 109.9 20.4 C 110.3 19.9 110.4 19.3 110.4 18.6 C 110.4 18.6 110.4 16.6 110.4 16.6 C 110.3 16.7 110.1 16.8 109.8 16.9 C 109.5 17 109.2 17.1 108.8 17.1 C 108.4 17.2 108.1 17.3 107.7 17.3 C 107.4 17.4 107.1 17.4 106.8 17.5 C 106.1 17.6 105.6 17.7 105.1 17.9 C 104.7 18.1 104.3 18.4 104.1 18.7 C 103.8 19 103.7 19.5 103.7 19.9 C 103.7 20.7 103.9 21.2 104.5 21.6 C 105 22 105.7 22.2 106.5 22.2 Z M 124.7 14.4 C 124.72 14.42 124.7 25.5 124.7 25.5 L 119.4 25.5 L 119.4 6.4 L 124.5 6.4 L 124.5 9.7 C 124.5 9.7 124.7 9.73 124.7 9.7 C 125.1 8.6 125.8 7.7 126.8 7.1 C 127.8 6.4 129 6.1 130.4 6.1 C 131.8 6.1 132.9 6.4 133.9 7 C 134.9 7.6 135.7 8.4 136.2 9.5 C 136.8 10.5 137 11.8 137 13.3 C 137.03 13.3 137 25.5 137 25.5 L 131.7 25.5 C 131.7 25.5 131.73 14.24 131.7 14.2 C 131.7 13.1 131.4 12.2 130.8 11.5 C 130.2 10.8 129.4 10.5 128.3 10.5 C 127.6 10.5 127 10.7 126.5 11 C 125.9 11.3 125.5 11.7 125.2 12.3 C 124.9 12.9 124.7 13.6 124.7 14.4 Z " stroke="none" fill="#ffffff"/>  </g></svg>