<?xml version="1.0" standalone="no"?><!DOCTYPE svg PUBLIC "-//W3C//DTD SVG 1.1//EN" "http://www.w3.org/Graphics/SVG/1.1/DTD/svg11.dtd"><svg xmlns="http://www.w3.org/2000/svg" version="1.1" width="413.5px" height="51.2px" viewBox="0 -12 413.5 51.2" style="top:-12px">  <desc>Download as PDF</desc>  <defs/>  <g id="Polygon105015">    <path d="M 9.6 21.8 C 9.63 21.82 1.9 21.8 1.9 21.8 L 1.9 0 C 1.9 0 9.69 0 9.7 0 C 11.9 0 13.8 0.4 15.4 1.3 C 16.9 2.2 18.2 3.4 19 5 C 19.9 6.7 20.3 8.6 20.3 10.9 C 20.3 13.2 19.9 15.1 19 16.7 C 18.2 18.4 16.9 19.6 15.3 20.5 C 13.8 21.4 11.8 21.8 9.6 21.8 Z M 6.5 17.9 C 6.5 17.9 9.44 17.87 9.4 17.9 C 10.8 17.9 12 17.6 12.9 17.1 C 13.8 16.6 14.5 15.9 15 14.9 C 15.5 13.8 15.7 12.5 15.7 10.9 C 15.7 9.3 15.5 8 15 6.9 C 14.5 5.9 13.8 5.2 12.9 4.7 C 12 4.2 10.8 4 9.4 4 C 9.45 3.95 6.5 4 6.5 4 L 6.5 17.9 Z M 30.9 22.1 C 29.3 22.1 27.8 21.8 26.6 21.1 C 25.4 20.4 24.5 19.4 23.8 18.1 C 23.2 16.8 22.9 15.4 22.9 13.7 C 22.9 12 23.2 10.5 23.8 9.3 C 24.5 8 25.4 7 26.6 6.3 C 27.8 5.6 29.3 5.2 30.9 5.2 C 32.6 5.2 34 5.6 35.2 6.3 C 36.4 7 37.3 8 38 9.3 C 38.6 10.5 39 12 39 13.7 C 39 15.4 38.6 16.8 38 18.1 C 37.3 19.4 36.4 20.4 35.2 21.1 C 34 21.8 32.6 22.1 30.9 22.1 Z M 30.9 18.6 C 31.7 18.6 32.3 18.4 32.8 18 C 33.3 17.5 33.7 17 34 16.2 C 34.2 15.5 34.4 14.6 34.4 13.7 C 34.4 12.7 34.2 11.9 34 11.1 C 33.7 10.4 33.3 9.8 32.8 9.4 C 32.3 8.9 31.7 8.7 30.9 8.7 C 30.2 8.7 29.5 8.9 29 9.4 C 28.5 9.8 28.1 10.4 27.9 11.1 C 27.6 11.9 27.5 12.7 27.5 13.7 C 27.5 14.6 27.6 15.5 27.9 16.2 C 28.1 17 28.5 17.5 29 18 C 29.5 18.4 30.2 18.6 30.9 18.6 Z M 44.5 21.8 L 40 5.5 L 44.6 5.5 L 47.2 16.4 L 47.3 16.4 L 50 5.5 L 54.5 5.5 L 57.1 16.4 L 57.3 16.4 L 59.8 5.5 L 64.4 5.5 L 59.9 21.8 L 55.1 21.8 L 52.3 11.5 L 52.1 11.5 L 49.3 21.8 L 44.5 21.8 Z M 71.1 12.4 C 71.08 12.36 71.1 21.8 71.1 21.8 L 66.5 21.8 L 66.5 5.5 L 70.9 5.5 L 70.9 8.3 C 70.9 8.3 71.06 8.34 71.1 8.3 C 71.4 7.4 72 6.6 72.9 6.1 C 73.7 5.5 74.8 5.2 76 5.2 C 77.1 5.2 78.1 5.5 79 6 C 79.8 6.5 80.5 7.2 80.9 8.1 C 81.4 9 81.6 10.1 81.6 11.4 C 81.63 11.4 81.6 21.8 81.6 21.8 L 77.1 21.8 C 77.1 21.8 77.09 12.21 77.1 12.2 C 77.1 11.2 76.8 10.4 76.3 9.9 C 75.8 9.3 75.1 9 74.2 9 C 73.6 9 73 9.1 72.6 9.4 C 72.1 9.7 71.7 10.1 71.5 10.6 C 71.2 11.1 71.1 11.7 71.1 12.4 Z M 89.8 0 L 89.8 21.8 L 85.2 21.8 L 85.2 0 L 89.8 0 Z M 100.8 22.1 C 99.1 22.1 97.7 21.8 96.5 21.1 C 95.3 20.4 94.3 19.4 93.7 18.1 C 93 16.8 92.7 15.4 92.7 13.7 C 92.7 12 93 10.5 93.7 9.3 C 94.3 8 95.3 7 96.5 6.3 C 97.7 5.6 99.1 5.2 100.8 5.2 C 102.4 5.2 103.8 5.6 105.1 6.3 C 106.3 7 107.2 8 107.8 9.3 C 108.5 10.5 108.8 12 108.8 13.7 C 108.8 15.4 108.5 16.8 107.8 18.1 C 107.2 19.4 106.3 20.4 105.1 21.1 C 103.8 21.8 102.4 22.1 100.8 22.1 Z M 100.8 18.6 C 101.5 18.6 102.2 18.4 102.7 18 C 103.2 17.5 103.6 17 103.8 16.2 C 104.1 15.5 104.2 14.6 104.2 13.7 C 104.2 12.7 104.1 11.9 103.8 11.1 C 103.6 10.4 103.2 9.8 102.7 9.4 C 102.2 8.9 101.5 8.7 100.8 8.7 C 100 8.7 99.4 8.9 98.9 9.4 C 98.4 9.8 98 10.4 97.7 11.1 C 97.5 11.9 97.3 12.7 97.3 13.7 C 97.3 14.6 97.5 15.5 97.7 16.2 C 98 17 98.4 17.5 98.9 18 C 99.4 18.4 100 18.6 100.8 18.6 Z M 116.2 22.1 C 115.2 22.1 114.2 21.9 113.4 21.6 C 112.6 21.2 111.9 20.7 111.5 19.9 C 111 19.2 110.8 18.3 110.8 17.2 C 110.8 16.3 110.9 15.6 111.3 15 C 111.6 14.3 112.1 13.8 112.6 13.5 C 113.2 13.1 113.9 12.8 114.6 12.6 C 115.3 12.4 116.1 12.3 116.9 12.2 C 117.9 12.1 118.6 12 119.2 11.9 C 119.8 11.8 120.2 11.7 120.5 11.5 C 120.7 11.3 120.9 11.1 120.9 10.7 C 120.9 10.7 120.9 10.7 120.9 10.7 C 120.9 10 120.7 9.5 120.2 9.1 C 119.8 8.7 119.2 8.6 118.4 8.6 C 117.6 8.6 117 8.7 116.5 9.1 C 116 9.5 115.7 9.9 115.5 10.4 C 115.5 10.4 111.3 10.1 111.3 10.1 C 111.6 9.1 112 8.2 112.6 7.5 C 113.2 6.8 114 6.2 115 5.8 C 116 5.4 117.2 5.2 118.5 5.2 C 119.4 5.2 120.3 5.3 121.1 5.6 C 121.9 5.8 122.7 6.1 123.3 6.6 C 124 7 124.5 7.6 124.9 8.3 C 125.2 9 125.4 9.8 125.4 10.8 C 125.42 10.78 125.4 21.8 125.4 21.8 L 121.1 21.8 L 121.1 19.5 C 121.1 19.5 120.98 19.55 121 19.5 C 120.7 20.1 120.4 20.5 119.9 20.9 C 119.5 21.3 119 21.6 118.3 21.8 C 117.7 22 117 22.1 116.2 22.1 Z M 117.5 19 C 118.2 19 118.8 18.9 119.3 18.6 C 119.8 18.3 120.2 18 120.5 17.5 C 120.8 17.1 120.9 16.5 120.9 16 C 120.9 16 120.9 14.2 120.9 14.2 C 120.8 14.3 120.6 14.4 120.3 14.5 C 120.1 14.6 119.8 14.6 119.5 14.7 C 119.2 14.7 118.9 14.8 118.6 14.8 C 118.3 14.9 118 14.9 117.8 15 C 117.2 15 116.8 15.2 116.4 15.3 C 116 15.5 115.7 15.7 115.4 16 C 115.2 16.3 115.1 16.7 115.1 17.1 C 115.1 17.7 115.3 18.2 115.8 18.5 C 116.2 18.8 116.8 19 117.5 19 Z M 134.9 22.1 C 133.7 22.1 132.6 21.8 131.6 21.1 C 130.6 20.5 129.8 19.5 129.2 18.3 C 128.6 17 128.3 15.5 128.3 13.7 C 128.3 11.8 128.6 10.2 129.2 9 C 129.8 7.7 130.6 6.8 131.6 6.2 C 132.6 5.6 133.7 5.2 134.9 5.2 C 135.8 5.2 136.6 5.4 137.2 5.7 C 137.8 6 138.3 6.4 138.7 6.9 C 139.1 7.3 139.4 7.8 139.6 8.2 C 139.57 8.2 139.7 8.2 139.7 8.2 L 139.7 0 L 144.2 0 L 144.2 21.8 L 139.8 21.8 L 139.8 19.2 C 139.8 19.2 139.57 19.2 139.6 19.2 C 139.4 19.7 139.1 20.1 138.7 20.5 C 138.3 21 137.8 21.4 137.2 21.6 C 136.6 21.9 135.8 22.1 134.9 22.1 Z M 136.4 18.5 C 137.1 18.5 137.7 18.3 138.2 17.9 C 138.7 17.5 139.1 16.9 139.4 16.2 C 139.7 15.5 139.8 14.6 139.8 13.6 C 139.8 12.7 139.7 11.8 139.4 11.1 C 139.1 10.4 138.7 9.8 138.2 9.4 C 137.7 9 137.1 8.9 136.4 8.9 C 135.6 8.9 135 9.1 134.5 9.5 C 134 9.9 133.6 10.4 133.3 11.1 C 133.1 11.9 132.9 12.7 132.9 13.6 C 132.9 14.6 133.1 15.4 133.3 16.2 C 133.6 16.9 134 17.5 134.5 17.9 C 135 18.3 135.6 18.5 136.4 18.5 Z M 159.6 22.1 C 158.5 22.1 157.6 21.9 156.8 21.6 C 156 21.2 155.3 20.7 154.9 19.9 C 154.4 19.2 154.1 18.3 154.1 17.2 C 154.1 16.3 154.3 15.6 154.6 15 C 155 14.3 155.4 13.8 156 13.5 C 156.6 13.1 157.2 12.8 158 12.6 C 158.7 12.4 159.5 12.3 160.3 12.2 C 161.2 12.1 162 12 162.6 11.9 C 163.2 11.8 163.6 11.7 163.9 11.5 C 164.1 11.3 164.3 11.1 164.3 10.7 C 164.3 10.7 164.3 10.7 164.3 10.7 C 164.3 10 164 9.5 163.6 9.1 C 163.2 8.7 162.6 8.6 161.8 8.6 C 161 8.6 160.4 8.7 159.9 9.1 C 159.4 9.5 159.1 9.9 158.9 10.4 C 158.9 10.4 154.7 10.1 154.7 10.1 C 154.9 9.1 155.4 8.2 156 7.5 C 156.6 6.8 157.4 6.2 158.4 5.8 C 159.4 5.4 160.5 5.2 161.9 5.2 C 162.8 5.2 163.6 5.3 164.5 5.6 C 165.3 5.8 166 6.1 166.7 6.6 C 167.3 7 167.9 7.6 168.2 8.3 C 168.6 9 168.8 9.8 168.8 10.8 C 168.8 10.78 168.8 21.8 168.8 21.8 L 164.5 21.8 L 164.5 19.5 C 164.5 19.5 164.36 19.55 164.4 19.5 C 164.1 20.1 163.8 20.5 163.3 20.9 C 162.9 21.3 162.3 21.6 161.7 21.8 C 161.1 22 160.4 22.1 159.6 22.1 Z M 160.9 19 C 161.5 19 162.1 18.9 162.6 18.6 C 163.2 18.3 163.6 18 163.9 17.5 C 164.1 17.1 164.3 16.5 164.3 16 C 164.3 16 164.3 14.2 164.3 14.2 C 164.1 14.3 164 14.4 163.7 14.5 C 163.5 14.6 163.2 14.6 162.9 14.7 C 162.6 14.7 162.3 14.8 162 14.8 C 161.7 14.9 161.4 14.9 161.1 15 C 160.6 15 160.1 15.2 159.7 15.3 C 159.3 15.5 159 15.7 158.8 16 C 158.6 16.3 158.5 16.7 158.5 17.1 C 158.5 17.7 158.7 18.2 159.2 18.5 C 159.6 18.8 160.2 19 160.9 19 Z M 185.8 10.1 C 185.8 10.1 181.6 10.4 181.6 10.4 C 181.6 10 181.4 9.7 181.2 9.4 C 180.9 9.1 180.6 8.9 180.3 8.7 C 179.9 8.5 179.4 8.5 178.9 8.5 C 178.2 8.5 177.6 8.6 177.1 8.9 C 176.6 9.2 176.4 9.6 176.4 10.1 C 176.4 10.5 176.5 10.8 176.9 11.1 C 177.2 11.3 177.7 11.6 178.5 11.7 C 178.5 11.7 181.4 12.3 181.4 12.3 C 183 12.6 184.2 13.2 185 13.9 C 185.8 14.6 186.2 15.6 186.2 16.7 C 186.2 17.8 185.8 18.8 185.2 19.6 C 184.6 20.4 183.7 21 182.6 21.5 C 181.5 21.9 180.3 22.1 178.9 22.1 C 176.7 22.1 175 21.7 173.7 20.8 C 172.4 19.9 171.7 18.6 171.4 17.1 C 171.4 17.1 175.9 16.8 175.9 16.8 C 176 17.5 176.4 18 176.9 18.4 C 177.4 18.7 178.1 18.9 178.9 18.9 C 179.7 18.9 180.3 18.7 180.8 18.4 C 181.3 18.1 181.5 17.7 181.5 17.2 C 181.5 16.8 181.4 16.5 181 16.2 C 180.7 15.9 180.2 15.7 179.4 15.6 C 179.4 15.6 176.6 15 176.6 15 C 175 14.7 173.8 14.1 173 13.3 C 172.3 12.6 171.9 11.6 171.9 10.3 C 171.9 9.3 172.2 8.4 172.7 7.6 C 173.3 6.9 174.1 6.3 175.2 5.9 C 176.2 5.4 177.4 5.2 178.8 5.2 C 180.9 5.2 182.5 5.7 183.7 6.6 C 184.9 7.4 185.6 8.6 185.8 10.1 Z M 196.1 21.8 L 196.1 0 C 196.1 0 204.67 0 204.7 0 C 206.3 0 207.7 0.3 208.9 0.9 C 210.1 1.6 211 2.4 211.6 3.6 C 212.2 4.7 212.5 5.9 212.5 7.4 C 212.5 8.8 212.2 10.1 211.6 11.2 C 210.9 12.3 210 13.2 208.8 13.8 C 207.7 14.4 206.2 14.7 204.6 14.7 C 204.56 14.74 199.1 14.7 199.1 14.7 L 199.1 11 C 199.1 11 203.81 11.05 203.8 11 C 204.7 11 205.4 10.9 206 10.6 C 206.6 10.3 207 9.8 207.3 9.3 C 207.6 8.7 207.7 8.1 207.7 7.4 C 207.7 6.7 207.6 6 207.3 5.5 C 207 4.9 206.6 4.5 206 4.2 C 205.4 3.9 204.7 3.8 203.8 3.8 C 203.79 3.77 200.7 3.8 200.7 3.8 L 200.7 21.8 L 196.1 21.8 Z M 223 21.8 C 223.05 21.82 215.3 21.8 215.3 21.8 L 215.3 0 C 215.3 0 223.11 0 223.1 0 C 225.3 0 227.2 0.4 228.8 1.3 C 230.4 2.2 231.6 3.4 232.4 5 C 233.3 6.7 233.7 8.6 233.7 10.9 C 233.7 13.2 233.3 15.1 232.4 16.7 C 231.6 18.4 230.4 19.6 228.8 20.5 C 227.2 21.4 225.3 21.8 223 21.8 Z M 219.9 17.9 C 219.9 17.9 222.85 17.87 222.9 17.9 C 224.2 17.9 225.4 17.6 226.3 17.1 C 227.2 16.6 227.9 15.9 228.4 14.9 C 228.9 13.8 229.1 12.5 229.1 10.9 C 229.1 9.3 228.9 8 228.4 6.9 C 227.9 5.9 227.2 5.2 226.3 4.7 C 225.4 4.2 224.2 4 222.9 4 C 222.86 3.95 219.9 4 219.9 4 L 219.9 17.9 Z M 237.2 21.8 L 237.2 0 L 251.7 0 L 251.7 3.8 L 241.8 3.8 L 241.8 9 L 250.7 9 L 250.7 12.8 L 241.8 12.8 L 241.8 21.8 L 237.2 21.8 Z " stroke="none" fill="#ffffff"/>  </g></svg>