<?xml version="1.0" standalone="no"?><!DOCTYPE svg PUBLIC "-//W3C//DTD SVG 1.1//EN" "http://www.w3.org/Graphics/SVG/1.1/DTD/svg11.dtd"><svg xmlns="http://www.w3.org/2000/svg" version="1.1" width="1100px" height="117.7px" viewBox="0 -6 1100 117.7" style="top:-6px">  <desc>Use this guide to cut through the AI noise and find your way to increased profitability and better outcomes.</desc>  <defs/>  <g id="Polygon107860">    <path d="M 86.1 88.8 L 79.4 66.9 L 82.9 66.9 L 87.7 83.6 L 87.9 83.6 L 92.5 66.9 L 96.1 66.9 L 100.7 83.6 L 100.9 83.6 L 105.7 66.9 L 109.2 66.9 L 102.5 88.8 L 99.2 88.8 L 94.5 72 L 94.1 72 L 89.4 88.8 L 86.1 88.8 Z M 119 89.3 C 117.6 89.3 116.4 89 115.3 88.5 C 114.1 87.9 113.2 87.2 112.6 86.2 C 111.9 85.2 111.6 84 111.6 82.6 C 111.6 81.3 111.8 80.3 112.3 79.5 C 112.8 78.7 113.5 78.1 114.3 77.7 C 115.1 77.2 116 76.9 117 76.7 C 118 76.4 119 76.3 120 76.1 C 121.4 76 122.4 75.8 123.3 75.7 C 124.1 75.7 124.7 75.5 125.1 75.3 C 125.5 75.1 125.7 74.7 125.7 74.1 C 125.7 74.1 125.7 74 125.7 74 C 125.7 72.6 125.3 71.5 124.5 70.8 C 123.8 70 122.6 69.6 121.1 69.6 C 119.5 69.6 118.2 70 117.3 70.7 C 116.4 71.4 115.8 72.1 115.4 72.9 C 115.4 72.9 112.2 71.8 112.2 71.8 C 112.8 70.4 113.5 69.4 114.5 68.7 C 115.4 67.9 116.5 67.4 117.6 67.1 C 118.7 66.8 119.9 66.6 121 66.6 C 121.7 66.6 122.5 66.7 123.4 66.9 C 124.3 67.1 125.2 67.4 126 67.9 C 126.9 68.4 127.6 69.2 128.2 70.2 C 128.7 71.3 129 72.6 129 74.4 C 129.02 74.38 129 88.8 129 88.8 L 125.7 88.8 L 125.7 85.8 C 125.7 85.8 125.5 85.8 125.5 85.8 C 125.3 86.3 124.9 86.8 124.4 87.3 C 123.8 87.9 123.1 88.3 122.2 88.7 C 121.4 89.1 120.3 89.3 119 89.3 Z M 119.5 86.3 C 120.9 86.3 122 86 122.9 85.5 C 123.8 84.9 124.5 84.3 125 83.5 C 125.4 82.6 125.7 81.8 125.7 80.9 C 125.7 80.9 125.7 77.8 125.7 77.8 C 125.5 78 125.2 78.1 124.7 78.2 C 124.3 78.4 123.7 78.5 123.1 78.6 C 122.5 78.7 121.9 78.8 121.3 78.9 C 120.7 78.9 120.2 79 119.9 79 C 119 79.1 118.2 79.3 117.4 79.6 C 116.7 79.8 116.1 80.2 115.6 80.7 C 115.2 81.2 114.9 81.9 114.9 82.7 C 114.9 83.9 115.4 84.8 116.2 85.4 C 117.1 86 118.2 86.3 119.5 86.3 Z M 135.9 96.9 C 135.3 96.9 134.8 96.9 134.3 96.8 C 133.9 96.7 133.6 96.6 133.4 96.5 C 133.4 96.5 134.3 93.6 134.3 93.6 C 135.1 93.8 135.8 93.9 136.4 93.8 C 137.1 93.8 137.6 93.5 138.1 93 C 138.6 92.5 139 91.7 139.4 90.6 C 139.45 90.57 140.1 88.9 140.1 88.9 L 132 66.9 L 135.6 66.9 L 141.7 84.3 L 141.9 84.3 L 147.9 66.9 L 151.5 66.9 C 151.5 66.9 142.29 91.93 142.3 91.9 C 141.9 93.1 141.4 94 140.7 94.7 C 140.1 95.5 139.4 96 138.6 96.4 C 137.8 96.8 136.9 96.9 135.9 96.9 Z M 176.7 66.9 L 176.7 69.8 L 165.4 69.8 L 165.4 66.9 L 176.7 66.9 Z M 168.7 61.7 L 172.1 61.7 C 172.1 61.7 172.06 82.5 172.1 82.5 C 172.1 83.4 172.2 84.2 172.5 84.6 C 172.8 85.1 173.1 85.4 173.6 85.6 C 174 85.7 174.5 85.8 175 85.8 C 175.3 85.8 175.6 85.8 175.9 85.7 C 176.1 85.7 176.3 85.7 176.4 85.6 C 176.4 85.6 177.1 88.6 177.1 88.6 C 176.9 88.7 176.6 88.8 176.2 88.9 C 175.8 89 175.2 89 174.6 89 C 173.7 89 172.7 88.8 171.8 88.4 C 170.9 88 170.2 87.4 169.6 86.6 C 169 85.7 168.7 84.7 168.7 83.4 C 168.71 83.41 168.7 61.7 168.7 61.7 Z M 189.1 89.2 C 187.2 89.2 185.4 88.7 184 87.8 C 182.5 86.9 181.3 85.5 180.5 83.9 C 179.7 82.2 179.2 80.2 179.2 78 C 179.2 75.7 179.7 73.7 180.5 72 C 181.3 70.3 182.5 69 184 68.1 C 185.4 67.1 187.2 66.6 189.1 66.6 C 191.1 66.6 192.8 67.1 194.3 68.1 C 195.8 69 196.9 70.3 197.8 72 C 198.6 73.7 199 75.7 199 78 C 199 80.2 198.6 82.2 197.8 83.9 C 196.9 85.5 195.8 86.9 194.3 87.8 C 192.8 88.7 191.1 89.2 189.1 89.2 Z M 189.1 86.2 C 190.6 86.2 191.9 85.8 192.8 85 C 193.8 84.3 194.5 83.3 195 82 C 195.4 80.8 195.7 79.4 195.7 78 C 195.7 76.5 195.4 75.1 195 73.9 C 194.5 72.6 193.8 71.6 192.8 70.8 C 191.9 70 190.6 69.7 189.1 69.7 C 187.6 69.7 186.4 70 185.4 70.8 C 184.5 71.6 183.8 72.6 183.3 73.9 C 182.8 75.1 182.6 76.5 182.6 78 C 182.6 79.4 182.8 80.8 183.3 82 C 183.8 83.3 184.5 84.3 185.4 85 C 186.4 85.8 187.6 86.2 189.1 86.2 Z M 215.4 88.8 L 215.4 66.9 L 218.7 66.9 L 218.7 88.8 L 215.4 88.8 Z M 217.1 63.3 C 216.4 63.3 215.9 63.1 215.4 62.6 C 214.9 62.2 214.7 61.6 214.7 61 C 214.7 60.4 214.9 59.9 215.4 59.4 C 215.9 59 216.4 58.8 217.1 58.8 C 217.7 58.8 218.3 59 218.8 59.4 C 219.2 59.9 219.5 60.4 219.5 61 C 219.5 61.6 219.2 62.2 218.8 62.6 C 218.3 63.1 217.7 63.3 217.1 63.3 Z M 227.9 75.6 C 227.9 75.63 227.9 88.8 227.9 88.8 L 224.5 88.8 L 224.5 66.9 L 227.8 66.9 L 227.8 70.3 C 227.8 70.3 228.07 70.34 228.1 70.3 C 228.6 69.2 229.4 68.3 230.4 67.7 C 231.4 67 232.8 66.6 234.4 66.6 C 235.9 66.6 237.2 66.9 238.3 67.5 C 239.4 68.2 240.3 69.1 240.9 70.3 C 241.5 71.5 241.8 73 241.8 74.9 C 241.82 74.89 241.8 88.8 241.8 88.8 L 238.5 88.8 C 238.5 88.8 238.47 75.11 238.5 75.1 C 238.5 73.4 238 72.1 237.1 71.1 C 236.2 70.1 235 69.7 233.5 69.7 C 232.4 69.7 231.4 69.9 230.6 70.4 C 229.8 70.8 229.1 71.5 228.6 72.4 C 228.1 73.3 227.9 74.4 227.9 75.6 Z M 256.3 89.2 C 254.3 89.2 252.5 88.7 251 87.8 C 249.6 86.8 248.4 85.5 247.6 83.8 C 246.8 82.1 246.4 80.1 246.4 78 C 246.4 75.7 246.8 73.8 247.7 72.1 C 248.5 70.4 249.6 69.1 251.1 68.1 C 252.6 67.1 254.3 66.6 256.3 66.6 C 257.8 66.6 259.2 66.9 260.4 67.5 C 261.6 68.1 262.7 68.9 263.4 69.9 C 264.2 70.9 264.7 72.1 264.9 73.5 C 264.9 73.5 261.5 73.5 261.5 73.5 C 261.3 72.5 260.7 71.6 259.9 70.8 C 259 70 257.8 69.7 256.3 69.7 C 255 69.7 253.9 70 252.9 70.7 C 251.9 71.4 251.1 72.3 250.6 73.5 C 250.1 74.8 249.8 76.2 249.8 77.8 C 249.8 79.5 250.1 81 250.6 82.2 C 251.1 83.5 251.9 84.5 252.9 85.2 C 253.8 85.8 255 86.2 256.3 86.2 C 257.2 86.2 258 86 258.7 85.7 C 259.4 85.4 260 85 260.5 84.4 C 261 83.9 261.3 83.2 261.5 82.4 C 261.5 82.4 264.9 82.4 264.9 82.4 C 264.7 83.7 264.2 84.8 263.5 85.9 C 262.8 86.9 261.8 87.7 260.6 88.3 C 259.3 88.9 257.9 89.2 256.3 89.2 Z M 269.4 88.8 L 269.4 66.9 L 272.6 66.9 L 272.6 70.2 C 272.6 70.2 272.88 70.23 272.9 70.2 C 273.3 69.1 274 68.3 275 67.6 C 276.1 66.9 277.3 66.6 278.6 66.6 C 278.8 66.6 279.1 66.6 279.5 66.6 C 279.9 66.6 280.1 66.6 280.3 66.6 C 280.3 66.6 280.3 70.1 280.3 70.1 C 280.2 70 279.9 70 279.5 69.9 C 279.1 69.9 278.7 69.8 278.3 69.8 C 277.2 69.8 276.3 70 275.4 70.5 C 274.6 70.9 274 71.5 273.5 72.3 C 273 73.1 272.8 74 272.8 74.9 C 272.76 74.94 272.8 88.8 272.8 88.8 L 269.4 88.8 Z M 292.6 89.2 C 290.5 89.2 288.7 88.7 287.2 87.8 C 285.7 86.9 284.5 85.6 283.7 83.9 C 282.9 82.2 282.5 80.2 282.5 78 C 282.5 75.8 282.9 73.8 283.7 72.1 C 284.5 70.4 285.6 69.1 287.1 68.1 C 288.6 67.1 290.3 66.6 292.3 66.6 C 293.4 66.6 294.5 66.8 295.6 67.2 C 296.8 67.6 297.8 68.2 298.7 69.1 C 299.6 69.9 300.3 71 300.8 72.4 C 301.4 73.8 301.7 75.5 301.7 77.6 C 301.66 77.56 301.7 79 301.7 79 L 284.8 79 L 284.8 76.1 C 284.8 76.1 298.25 76.08 298.2 76.1 C 298.2 74.8 298 73.8 297.5 72.8 C 297 71.8 296.3 71.1 295.4 70.5 C 294.5 69.9 293.5 69.7 292.3 69.7 C 290.9 69.7 289.8 70 288.8 70.6 C 287.9 71.3 287.1 72.2 286.6 73.2 C 286.1 74.3 285.8 75.4 285.8 76.6 C 285.8 76.6 285.8 78.5 285.8 78.5 C 285.8 80.2 286.1 81.6 286.7 82.7 C 287.2 83.8 288 84.7 289.1 85.3 C 290.1 85.9 291.3 86.2 292.6 86.2 C 293.5 86.2 294.3 86.1 295 85.8 C 295.7 85.6 296.4 85.2 296.9 84.7 C 297.4 84.2 297.8 83.5 298.1 82.8 C 298.1 82.8 301.3 83.7 301.3 83.7 C 301 84.8 300.4 85.8 299.6 86.6 C 298.8 87.4 297.8 88.1 296.6 88.5 C 295.4 89 294.1 89.2 292.6 89.2 Z M 312.6 89.3 C 311.2 89.3 310 89 308.9 88.5 C 307.7 87.9 306.8 87.2 306.2 86.2 C 305.5 85.2 305.2 84 305.2 82.6 C 305.2 81.3 305.4 80.3 305.9 79.5 C 306.4 78.7 307.1 78.1 307.9 77.7 C 308.7 77.2 309.6 76.9 310.6 76.7 C 311.6 76.4 312.6 76.3 313.6 76.1 C 315 76 316 75.8 316.9 75.7 C 317.7 75.7 318.3 75.5 318.7 75.3 C 319.1 75.1 319.3 74.7 319.3 74.1 C 319.3 74.1 319.3 74 319.3 74 C 319.3 72.6 318.9 71.5 318.1 70.8 C 317.4 70 316.2 69.6 314.7 69.6 C 313.1 69.6 311.8 70 310.9 70.7 C 310 71.4 309.3 72.1 309 72.9 C 309 72.9 305.8 71.8 305.8 71.8 C 306.4 70.4 307.1 69.4 308.1 68.7 C 309 67.9 310.1 67.4 311.2 67.1 C 312.3 66.8 313.4 66.6 314.5 66.6 C 315.2 66.6 316.1 66.7 317 66.9 C 317.9 67.1 318.8 67.4 319.6 67.9 C 320.5 68.4 321.2 69.2 321.8 70.2 C 322.3 71.3 322.6 72.6 322.6 74.4 C 322.62 74.38 322.6 88.8 322.6 88.8 L 319.3 88.8 L 319.3 85.8 C 319.3 85.8 319.09 85.8 319.1 85.8 C 318.9 86.3 318.5 86.8 318 87.3 C 317.4 87.9 316.7 88.3 315.8 88.7 C 315 89.1 313.9 89.3 312.6 89.3 Z M 313.1 86.3 C 314.5 86.3 315.6 86 316.5 85.5 C 317.4 84.9 318.1 84.3 318.6 83.5 C 319 82.6 319.3 81.8 319.3 80.9 C 319.3 80.9 319.3 77.8 319.3 77.8 C 319.1 78 318.8 78.1 318.3 78.2 C 317.9 78.4 317.3 78.5 316.7 78.6 C 316.1 78.7 315.5 78.8 314.9 78.9 C 314.3 78.9 313.8 79 313.5 79 C 312.6 79.1 311.8 79.3 311 79.6 C 310.3 79.8 309.7 80.2 309.2 80.7 C 308.8 81.2 308.5 81.9 308.5 82.7 C 308.5 83.9 309 84.8 309.8 85.4 C 310.7 86 311.8 86.3 313.1 86.3 Z M 343.5 71.8 C 343.5 71.8 340.5 72.7 340.5 72.7 C 340.3 72.2 340.1 71.7 339.7 71.2 C 339.3 70.7 338.8 70.3 338.2 70 C 337.6 69.7 336.8 69.5 335.8 69.5 C 334.5 69.5 333.4 69.9 332.5 70.5 C 331.6 71.1 331.1 71.8 331.1 72.8 C 331.1 73.6 331.5 74.3 332.1 74.8 C 332.7 75.2 333.6 75.6 334.9 76 C 334.9 76 338.1 76.8 338.1 76.8 C 340.1 77.2 341.5 78 342.5 78.9 C 343.5 79.9 343.9 81.1 343.9 82.7 C 343.9 83.9 343.6 85 342.9 86 C 342.1 87 341.1 87.8 339.9 88.4 C 338.6 88.9 337.1 89.2 335.4 89.2 C 333.2 89.2 331.3 88.7 329.9 87.8 C 328.4 86.8 327.5 85.4 327.1 83.5 C 327.1 83.5 330.3 82.7 330.3 82.7 C 330.6 83.9 331.2 84.8 332 85.4 C 332.9 86 334 86.3 335.4 86.3 C 336.9 86.3 338.2 85.9 339.1 85.2 C 340 84.6 340.5 83.8 340.5 82.8 C 340.5 82.1 340.2 81.4 339.7 80.9 C 339.1 80.4 338.3 80 337.2 79.8 C 337.2 79.8 333.6 78.9 333.6 78.9 C 331.6 78.4 330.1 77.7 329.2 76.7 C 328.3 75.7 327.8 74.5 327.8 73 C 327.8 71.7 328.1 70.6 328.8 69.7 C 329.5 68.7 330.5 68 331.7 67.5 C 332.9 66.9 334.3 66.6 335.8 66.6 C 338 66.6 339.7 67.1 340.9 68.1 C 342.1 69 343 70.3 343.5 71.8 Z M 357.6 89.2 C 355.5 89.2 353.7 88.7 352.2 87.8 C 350.7 86.9 349.5 85.6 348.7 83.9 C 347.9 82.2 347.4 80.2 347.4 78 C 347.4 75.8 347.9 73.8 348.7 72.1 C 349.5 70.4 350.6 69.1 352.1 68.1 C 353.6 67.1 355.3 66.6 357.3 66.6 C 358.4 66.6 359.5 66.8 360.6 67.2 C 361.7 67.6 362.8 68.2 363.7 69.1 C 364.6 69.9 365.3 71 365.8 72.4 C 366.4 73.8 366.6 75.5 366.6 77.6 C 366.65 77.56 366.6 79 366.6 79 L 349.8 79 L 349.8 76.1 C 349.8 76.1 363.24 76.08 363.2 76.1 C 363.2 74.8 363 73.8 362.5 72.8 C 362 71.8 361.3 71.1 360.4 70.5 C 359.5 69.9 358.5 69.7 357.3 69.7 C 355.9 69.7 354.8 70 353.8 70.6 C 352.8 71.3 352.1 72.2 351.6 73.2 C 351.1 74.3 350.8 75.4 350.8 76.6 C 350.8 76.6 350.8 78.5 350.8 78.5 C 350.8 80.2 351.1 81.6 351.7 82.7 C 352.2 83.8 353 84.7 354 85.3 C 355.1 85.9 356.3 86.2 357.6 86.2 C 358.5 86.2 359.3 86.1 360 85.8 C 360.7 85.6 361.3 85.2 361.9 84.7 C 362.4 84.2 362.8 83.5 363.1 82.8 C 363.1 82.8 366.3 83.7 366.3 83.7 C 366 84.8 365.4 85.8 364.6 86.6 C 363.8 87.4 362.8 88.1 361.6 88.5 C 360.4 89 359.1 89.2 357.6 89.2 Z M 379.6 89.2 C 377.8 89.2 376.2 88.7 374.8 87.8 C 373.4 86.9 372.3 85.6 371.5 83.9 C 370.7 82.2 370.3 80.2 370.3 77.9 C 370.3 75.6 370.7 73.6 371.5 71.9 C 372.3 70.2 373.4 68.9 374.8 68 C 376.2 67.1 377.8 66.6 379.7 66.6 C 381.1 66.6 382.2 66.9 383 67.4 C 383.9 67.8 384.5 68.4 384.9 68.9 C 385.4 69.5 385.7 70 386 70.4 C 385.97 70.4 386.3 70.4 386.3 70.4 L 386.3 59.7 L 389.6 59.7 L 389.6 88.8 L 386.4 88.8 L 386.4 85.4 C 386.4 85.4 385.97 85.4 386 85.4 C 385.7 85.8 385.4 86.3 384.9 86.9 C 384.5 87.5 383.8 88 383 88.5 C 382.1 89 381 89.2 379.6 89.2 Z M 380.1 86.2 C 381.4 86.2 382.5 85.8 383.5 85.1 C 384.4 84.4 385.1 83.4 385.6 82.2 C 386.1 80.9 386.3 79.5 386.3 77.8 C 386.3 76.2 386.1 74.8 385.6 73.6 C 385.1 72.3 384.4 71.4 383.5 70.7 C 382.6 70 381.4 69.7 380.1 69.7 C 378.6 69.7 377.5 70 376.5 70.7 C 375.6 71.5 374.9 72.5 374.4 73.7 C 373.9 74.9 373.7 76.3 373.7 77.8 C 373.7 79.4 373.9 80.8 374.4 82.1 C 374.9 83.3 375.6 84.3 376.6 85.1 C 377.5 85.8 378.7 86.2 380.1 86.2 Z M 407.5 96.9 L 407.5 66.9 L 410.7 66.9 L 410.7 70.4 C 410.7 70.4 411.09 70.4 411.1 70.4 C 411.3 70 411.7 69.5 412.1 68.9 C 412.6 68.4 413.2 67.8 414 67.4 C 414.8 66.9 416 66.6 417.4 66.6 C 419.2 66.6 420.9 67.1 422.3 68 C 423.7 68.9 424.7 70.2 425.5 71.9 C 426.3 73.6 426.7 75.6 426.7 77.9 C 426.7 80.2 426.3 82.2 425.5 83.9 C 424.7 85.6 423.7 86.9 422.3 87.8 C 420.9 88.7 419.3 89.2 417.5 89.2 C 416.1 89.2 414.9 89 414.1 88.5 C 413.2 88 412.6 87.5 412.1 86.9 C 411.7 86.3 411.3 85.8 411.1 85.4 C 411.09 85.4 410.8 85.4 410.8 85.4 L 410.8 96.9 L 407.5 96.9 Z M 410.7 77.8 C 410.7 79.5 411 80.9 411.5 82.2 C 412 83.4 412.7 84.4 413.6 85.1 C 414.5 85.8 415.7 86.2 417 86.2 C 418.4 86.2 419.6 85.8 420.5 85.1 C 421.5 84.3 422.2 83.3 422.6 82.1 C 423.1 80.8 423.4 79.4 423.4 77.8 C 423.4 76.3 423.1 74.9 422.7 73.7 C 422.2 72.5 421.5 71.5 420.5 70.7 C 419.6 70 418.4 69.7 417 69.7 C 415.6 69.7 414.5 70 413.6 70.7 C 412.6 71.4 411.9 72.3 411.5 73.6 C 411 74.8 410.7 76.2 410.7 77.8 Z M 431.5 88.8 L 431.5 66.9 L 434.7 66.9 L 434.7 70.2 C 434.7 70.2 434.95 70.23 435 70.2 C 435.4 69.1 436.1 68.3 437.1 67.6 C 438.2 66.9 439.3 66.6 440.6 66.6 C 440.9 66.6 441.2 66.6 441.6 66.6 C 441.9 66.6 442.2 66.6 442.4 66.6 C 442.4 66.6 442.4 70.1 442.4 70.1 C 442.3 70 442 70 441.6 69.9 C 441.2 69.9 440.8 69.8 440.4 69.8 C 439.3 69.8 438.3 70 437.5 70.5 C 436.7 70.9 436 71.5 435.6 72.3 C 435.1 73.1 434.8 74 434.8 74.9 C 434.84 74.94 434.8 88.8 434.8 88.8 L 431.5 88.8 Z M 454.4 89.2 C 452.4 89.2 450.7 88.7 449.2 87.8 C 447.8 86.9 446.6 85.5 445.8 83.9 C 444.9 82.2 444.5 80.2 444.5 78 C 444.5 75.7 444.9 73.7 445.8 72 C 446.6 70.3 447.8 69 449.2 68.1 C 450.7 67.1 452.4 66.6 454.4 66.6 C 456.4 66.6 458.1 67.1 459.6 68.1 C 461.1 69 462.2 70.3 463.1 72 C 463.9 73.7 464.3 75.7 464.3 78 C 464.3 80.2 463.9 82.2 463.1 83.9 C 462.2 85.5 461.1 86.9 459.6 87.8 C 458.1 88.7 456.4 89.2 454.4 89.2 Z M 454.4 86.2 C 455.9 86.2 457.1 85.8 458.1 85 C 459.1 84.3 459.8 83.3 460.3 82 C 460.7 80.8 461 79.4 461 78 C 461 76.5 460.7 75.1 460.3 73.9 C 459.8 72.6 459.1 71.6 458.1 70.8 C 457.1 70 455.9 69.7 454.4 69.7 C 452.9 69.7 451.7 70 450.7 70.8 C 449.8 71.6 449 72.6 448.6 73.9 C 448.1 75.1 447.9 76.5 447.9 78 C 447.9 79.4 448.1 80.8 448.6 82 C 449 83.3 449.8 84.3 450.7 85 C 451.7 85.8 452.9 86.2 454.4 86.2 Z M 478.1 66.9 L 478.1 69.8 L 466.4 69.8 L 466.4 66.9 L 478.1 66.9 Z M 469.9 88.8 C 469.9 88.8 469.87 63.92 469.9 63.9 C 469.9 62.7 470.2 61.6 470.8 60.8 C 471.3 60 472.1 59.3 473 58.9 C 474 58.5 475 58.3 476 58.3 C 476.8 58.3 477.5 58.4 478 58.5 C 478.5 58.6 478.9 58.8 479.2 58.9 C 479.2 58.9 478.2 61.8 478.2 61.8 C 478.1 61.7 477.8 61.6 477.5 61.5 C 477.2 61.5 476.8 61.4 476.4 61.4 C 475.2 61.4 474.4 61.7 474 62.3 C 473.5 62.8 473.2 63.6 473.2 64.7 C 473.23 64.72 473.2 88.8 473.2 88.8 L 469.9 88.8 Z M 482.9 88.8 L 482.9 66.9 L 486.2 66.9 L 486.2 88.8 L 482.9 88.8 Z M 484.6 63.3 C 483.9 63.3 483.3 63.1 482.9 62.6 C 482.4 62.2 482.2 61.6 482.2 61 C 482.2 60.4 482.4 59.9 482.9 59.4 C 483.3 59 483.9 58.8 484.6 58.8 C 485.2 58.8 485.8 59 486.2 59.4 C 486.7 59.9 486.9 60.4 486.9 61 C 486.9 61.6 486.7 62.2 486.2 62.6 C 485.8 63.1 485.2 63.3 484.6 63.3 Z M 501.3 66.9 L 501.3 69.8 L 490 69.8 L 490 66.9 L 501.3 66.9 Z M 493.3 61.7 L 496.7 61.7 C 496.7 61.7 496.66 82.5 496.7 82.5 C 496.7 83.4 496.8 84.2 497.1 84.6 C 497.4 85.1 497.7 85.4 498.2 85.6 C 498.6 85.7 499.1 85.8 499.6 85.8 C 499.9 85.8 500.2 85.8 500.5 85.7 C 500.7 85.7 500.9 85.7 501 85.6 C 501 85.6 501.7 88.6 501.7 88.6 C 501.5 88.7 501.2 88.8 500.8 88.9 C 500.4 89 499.8 89 499.2 89 C 498.3 89 497.3 88.8 496.4 88.4 C 495.5 88 494.8 87.4 494.2 86.6 C 493.6 85.7 493.3 84.7 493.3 83.4 C 493.31 83.41 493.3 61.7 493.3 61.7 Z M 512.1 89.3 C 510.7 89.3 509.4 89 508.3 88.5 C 507.2 87.9 506.3 87.2 505.6 86.2 C 505 85.2 504.6 84 504.6 82.6 C 504.6 81.3 504.9 80.3 505.4 79.5 C 505.9 78.7 506.5 78.1 507.4 77.7 C 508.2 77.2 509.1 76.9 510.1 76.7 C 511.1 76.4 512.1 76.3 513.1 76.1 C 514.4 76 515.5 75.8 516.3 75.7 C 517.2 75.7 517.8 75.5 518.2 75.3 C 518.5 75.1 518.7 74.7 518.7 74.1 C 518.7 74.1 518.7 74 518.7 74 C 518.7 72.6 518.4 71.5 517.6 70.8 C 516.8 70 515.7 69.6 514.1 69.6 C 512.5 69.6 511.3 70 510.4 70.7 C 509.5 71.4 508.8 72.1 508.4 72.9 C 508.4 72.9 505.3 71.8 505.3 71.8 C 505.8 70.4 506.6 69.4 507.5 68.7 C 508.5 67.9 509.5 67.4 510.7 67.1 C 511.8 66.8 512.9 66.6 514 66.6 C 514.7 66.6 515.5 66.7 516.4 66.9 C 517.4 67.1 518.2 67.4 519.1 67.9 C 520 68.4 520.7 69.2 521.2 70.2 C 521.8 71.3 522.1 72.6 522.1 74.4 C 522.09 74.38 522.1 88.8 522.1 88.8 L 518.7 88.8 L 518.7 85.8 C 518.7 85.8 518.56 85.8 518.6 85.8 C 518.3 86.3 518 86.8 517.4 87.3 C 516.9 87.9 516.2 88.3 515.3 88.7 C 514.4 89.1 513.4 89.3 512.1 89.3 Z M 512.6 86.3 C 513.9 86.3 515 86 516 85.5 C 516.9 84.9 517.6 84.3 518 83.5 C 518.5 82.6 518.7 81.8 518.7 80.9 C 518.7 80.9 518.7 77.8 518.7 77.8 C 518.6 78 518.3 78.1 517.8 78.2 C 517.3 78.4 516.8 78.5 516.2 78.6 C 515.5 78.7 514.9 78.8 514.4 78.9 C 513.8 78.9 513.3 79 512.9 79 C 512.1 79.1 511.3 79.3 510.5 79.6 C 509.7 79.8 509.1 80.2 508.7 80.7 C 508.2 81.2 508 81.9 508 82.7 C 508 83.9 508.4 84.8 509.3 85.4 C 510.2 86 511.3 86.3 512.6 86.3 Z M 528 88.8 L 528 59.7 L 531.4 59.7 L 531.4 70.4 C 531.4 70.4 531.69 70.4 531.7 70.4 C 531.9 70 532.3 69.5 532.7 68.9 C 533.2 68.4 533.8 67.8 534.6 67.4 C 535.4 66.9 536.6 66.6 538 66.6 C 539.8 66.6 541.4 67.1 542.9 68 C 544.3 68.9 545.3 70.2 546.1 71.9 C 546.9 73.6 547.3 75.6 547.3 77.9 C 547.3 80.2 546.9 82.2 546.1 83.9 C 545.3 85.6 544.3 86.9 542.9 87.8 C 541.5 88.7 539.9 89.2 538 89.2 C 536.6 89.2 535.5 89 534.7 88.5 C 533.8 88 533.2 87.5 532.7 86.9 C 532.3 86.3 531.9 85.8 531.7 85.4 C 531.69 85.4 531.3 85.4 531.3 85.4 L 531.3 88.8 L 528 88.8 Z M 531.3 77.8 C 531.3 79.5 531.6 80.9 532.1 82.2 C 532.6 83.4 533.3 84.4 534.2 85.1 C 535.1 85.8 536.2 86.2 537.6 86.2 C 539 86.2 540.2 85.8 541.1 85.1 C 542.1 84.3 542.8 83.3 543.2 82.1 C 543.7 80.8 544 79.4 544 77.8 C 544 76.3 543.7 74.9 543.3 73.7 C 542.8 72.5 542.1 71.5 541.1 70.7 C 540.2 70 539 69.7 537.6 69.7 C 536.2 69.7 535.1 70 534.2 70.7 C 533.2 71.4 532.5 72.3 532.1 73.6 C 531.6 74.8 531.3 76.2 531.3 77.8 Z M 552 88.8 L 552 66.9 L 555.3 66.9 L 555.3 88.8 L 552 88.8 Z M 553.7 63.3 C 553 63.3 552.4 63.1 552 62.6 C 551.5 62.2 551.3 61.6 551.3 61 C 551.3 60.4 551.5 59.9 552 59.4 C 552.4 59 553 58.8 553.7 58.8 C 554.3 58.8 554.9 59 555.3 59.4 C 555.8 59.9 556 60.4 556 61 C 556 61.6 555.8 62.2 555.3 62.6 C 554.9 63.1 554.3 63.3 553.7 63.3 Z M 564.5 59.7 L 564.5 88.8 L 561.1 88.8 L 561.1 59.7 L 564.5 59.7 Z M 570.3 88.8 L 570.3 66.9 L 573.6 66.9 L 573.6 88.8 L 570.3 88.8 Z M 572 63.3 C 571.3 63.3 570.8 63.1 570.3 62.6 C 569.8 62.2 569.6 61.6 569.6 61 C 569.6 60.4 569.8 59.9 570.3 59.4 C 570.8 59 571.3 58.8 572 58.8 C 572.6 58.8 573.2 59 573.7 59.4 C 574.1 59.9 574.4 60.4 574.4 61 C 574.4 61.6 574.1 62.2 573.7 62.6 C 573.2 63.1 572.6 63.3 572 63.3 Z M 588.7 66.9 L 588.7 69.8 L 577.4 69.8 L 577.4 66.9 L 588.7 66.9 Z M 580.7 61.7 L 584.1 61.7 C 584.1 61.7 584.08 82.5 584.1 82.5 C 584.1 83.4 584.2 84.2 584.5 84.6 C 584.8 85.1 585.1 85.4 585.6 85.6 C 586 85.7 586.5 85.8 587 85.8 C 587.3 85.8 587.6 85.8 587.9 85.7 C 588.1 85.7 588.3 85.7 588.5 85.6 C 588.5 85.6 589.1 88.6 589.1 88.6 C 588.9 88.7 588.6 88.8 588.2 88.9 C 587.8 89 587.3 89 586.6 89 C 585.7 89 584.8 88.8 583.9 88.4 C 583 88 582.2 87.4 581.6 86.6 C 581 85.7 580.7 84.7 580.7 83.4 C 580.73 83.41 580.7 61.7 580.7 61.7 Z M 595.9 96.9 C 595.4 96.9 594.9 96.9 594.4 96.8 C 594 96.7 593.7 96.6 593.5 96.5 C 593.5 96.5 594.3 93.6 594.3 93.6 C 595.2 93.8 595.9 93.9 596.5 93.8 C 597.1 93.8 597.7 93.5 598.2 93 C 598.7 92.5 599.1 91.7 599.5 90.6 C 599.52 90.57 600.1 88.9 600.1 88.9 L 592.1 66.9 L 595.7 66.9 L 601.7 84.3 L 602 84.3 L 608 66.9 L 611.6 66.9 C 611.6 66.9 602.36 91.93 602.4 91.9 C 601.9 93.1 601.4 94 600.8 94.7 C 600.2 95.5 599.5 96 598.7 96.4 C 597.9 96.8 597 96.9 595.9 96.9 Z M 633.7 89.3 C 632.3 89.3 631.1 89 630 88.5 C 628.8 87.9 627.9 87.2 627.3 86.2 C 626.6 85.2 626.3 84 626.3 82.6 C 626.3 81.3 626.5 80.3 627 79.5 C 627.5 78.7 628.2 78.1 629 77.7 C 629.8 77.2 630.7 76.9 631.7 76.7 C 632.7 76.4 633.7 76.3 634.7 76.1 C 636.1 76 637.1 75.8 638 75.7 C 638.8 75.7 639.4 75.5 639.8 75.3 C 640.2 75.1 640.4 74.7 640.4 74.1 C 640.4 74.1 640.4 74 640.4 74 C 640.4 72.6 640 71.5 639.2 70.8 C 638.5 70 637.3 69.6 635.8 69.6 C 634.2 69.6 632.9 70 632 70.7 C 631.1 71.4 630.5 72.1 630.1 72.9 C 630.1 72.9 626.9 71.8 626.9 71.8 C 627.5 70.4 628.2 69.4 629.2 68.7 C 630.1 67.9 631.2 67.4 632.3 67.1 C 633.4 66.8 634.6 66.6 635.7 66.6 C 636.4 66.6 637.2 66.7 638.1 66.9 C 639 67.1 639.9 67.4 640.7 67.9 C 641.6 68.4 642.3 69.2 642.9 70.2 C 643.4 71.3 643.7 72.6 643.7 74.4 C 643.72 74.38 643.7 88.8 643.7 88.8 L 640.4 88.8 L 640.4 85.8 C 640.4 85.8 640.2 85.8 640.2 85.8 C 640 86.3 639.6 86.8 639.1 87.3 C 638.5 87.9 637.8 88.3 636.9 88.7 C 636.1 89.1 635 89.3 633.7 89.3 Z M 634.2 86.3 C 635.6 86.3 636.7 86 637.6 85.5 C 638.5 84.9 639.2 84.3 639.7 83.5 C 640.1 82.6 640.4 81.8 640.4 80.9 C 640.4 80.9 640.4 77.8 640.4 77.8 C 640.2 78 639.9 78.1 639.4 78.2 C 639 78.4 638.4 78.5 637.8 78.6 C 637.2 78.7 636.6 78.8 636 78.9 C 635.4 78.9 634.9 79 634.6 79 C 633.7 79.1 632.9 79.3 632.1 79.6 C 631.4 79.8 630.8 80.2 630.3 80.7 C 629.9 81.2 629.6 81.9 629.6 82.7 C 629.6 83.9 630.1 84.8 630.9 85.4 C 631.8 86 632.9 86.3 634.2 86.3 Z M 652.8 75.6 C 652.83 75.63 652.8 88.8 652.8 88.8 L 649.5 88.8 L 649.5 66.9 L 652.7 66.9 L 652.7 70.3 C 652.7 70.3 653 70.34 653 70.3 C 653.5 69.2 654.3 68.3 655.3 67.7 C 656.4 67 657.7 66.6 659.4 66.6 C 660.8 66.6 662.1 66.9 663.2 67.5 C 664.4 68.2 665.2 69.1 665.8 70.3 C 666.4 71.5 666.8 73 666.8 74.9 C 666.75 74.89 666.8 88.8 666.8 88.8 L 663.4 88.8 C 663.4 88.8 663.4 75.11 663.4 75.1 C 663.4 73.4 663 72.1 662.1 71.1 C 661.2 70.1 660 69.7 658.4 69.7 C 657.3 69.7 656.4 69.9 655.5 70.4 C 654.7 70.8 654 71.5 653.6 72.4 C 653.1 73.3 652.8 74.4 652.8 75.6 Z M 680.7 89.2 C 678.9 89.2 677.3 88.7 675.9 87.8 C 674.5 86.9 673.4 85.6 672.6 83.9 C 671.8 82.2 671.4 80.2 671.4 77.9 C 671.4 75.6 671.8 73.6 672.6 71.9 C 673.4 70.2 674.5 68.9 675.9 68 C 677.3 67.1 678.9 66.6 680.8 66.6 C 682.2 66.6 683.3 66.9 684.1 67.4 C 685 67.8 685.6 68.4 686 68.9 C 686.5 69.5 686.8 70 687.1 70.4 C 687.07 70.4 687.4 70.4 687.4 70.4 L 687.4 59.7 L 690.7 59.7 L 690.7 88.8 L 687.5 88.8 L 687.5 85.4 C 687.5 85.4 687.07 85.4 687.1 85.4 C 686.8 85.8 686.5 86.3 686 86.9 C 685.6 87.5 684.9 88 684.1 88.5 C 683.2 89 682.1 89.2 680.7 89.2 Z M 681.2 86.2 C 682.5 86.2 683.6 85.8 684.6 85.1 C 685.5 84.4 686.2 83.4 686.7 82.2 C 687.2 80.9 687.4 79.5 687.4 77.8 C 687.4 76.2 687.2 74.8 686.7 73.6 C 686.2 72.3 685.5 71.4 684.6 70.7 C 683.7 70 682.5 69.7 681.2 69.7 C 679.7 69.7 678.6 70 677.6 70.7 C 676.7 71.5 676 72.5 675.5 73.7 C 675 74.9 674.8 76.3 674.8 77.8 C 674.8 79.4 675 80.8 675.5 82.1 C 676 83.3 676.7 84.3 677.6 85.1 C 678.6 85.8 679.8 86.2 681.2 86.2 Z M 709 88.8 L 709 59.7 L 712.4 59.7 L 712.4 70.4 C 712.4 70.4 712.64 70.4 712.6 70.4 C 712.9 70 713.2 69.5 713.7 68.9 C 714.1 68.4 714.7 67.8 715.6 67.4 C 716.4 66.9 717.5 66.6 718.9 66.6 C 720.8 66.6 722.4 67.1 723.8 68 C 725.2 68.9 726.3 70.2 727.1 71.9 C 727.9 73.6 728.3 75.6 728.3 77.9 C 728.3 80.2 727.9 82.2 727.1 83.9 C 726.3 85.6 725.2 86.9 723.8 87.8 C 722.4 88.7 720.8 89.2 719 89.2 C 717.6 89.2 716.5 89 715.6 88.5 C 714.8 88 714.1 87.5 713.7 86.9 C 713.2 86.3 712.9 85.8 712.6 85.4 C 712.64 85.4 712.2 85.4 712.2 85.4 L 712.2 88.8 L 709 88.8 Z M 712.3 77.8 C 712.3 79.5 712.5 80.9 713 82.2 C 713.5 83.4 714.2 84.4 715.1 85.1 C 716.1 85.8 717.2 86.2 718.5 86.2 C 719.9 86.2 721.1 85.8 722.1 85.1 C 723 84.3 723.7 83.3 724.2 82.1 C 724.7 80.8 724.9 79.4 724.9 77.8 C 724.9 76.3 724.7 74.9 724.2 73.7 C 723.7 72.5 723 71.5 722.1 70.7 C 721.1 70 720 69.7 718.5 69.7 C 717.2 69.7 716 70 715.1 70.7 C 714.2 71.4 713.5 72.3 713 73.6 C 712.5 74.8 712.3 76.2 712.3 77.8 Z M 742.1 89.2 C 740 89.2 738.2 88.7 736.7 87.8 C 735.2 86.9 734 85.6 733.2 83.9 C 732.4 82.2 732 80.2 732 78 C 732 75.8 732.4 73.8 733.2 72.1 C 734 70.4 735.1 69.1 736.6 68.1 C 738.1 67.1 739.8 66.6 741.8 66.6 C 742.9 66.6 744 66.8 745.2 67.2 C 746.3 67.6 747.3 68.2 748.2 69.1 C 749.1 69.9 749.8 71 750.4 72.4 C 750.9 73.8 751.2 75.5 751.2 77.6 C 751.16 77.56 751.2 79 751.2 79 L 734.3 79 L 734.3 76.1 C 734.3 76.1 747.75 76.08 747.8 76.1 C 747.8 74.8 747.5 73.8 747 72.8 C 746.5 71.8 745.8 71.1 744.9 70.5 C 744.1 69.9 743 69.7 741.8 69.7 C 740.5 69.7 739.3 70 738.3 70.6 C 737.4 71.3 736.6 72.2 736.1 73.2 C 735.6 74.3 735.3 75.4 735.3 76.6 C 735.3 76.6 735.3 78.5 735.3 78.5 C 735.3 80.2 735.6 81.6 736.2 82.7 C 736.7 83.8 737.5 84.7 738.6 85.3 C 739.6 85.9 740.8 86.2 742.1 86.2 C 743 86.2 743.8 86.1 744.5 85.8 C 745.2 85.6 745.9 85.2 746.4 84.7 C 746.9 84.2 747.3 83.5 747.6 82.8 C 747.6 82.8 750.8 83.7 750.8 83.7 C 750.5 84.8 749.9 85.8 749.1 86.6 C 748.3 87.4 747.3 88.1 746.1 88.5 C 744.9 89 743.6 89.2 742.1 89.2 Z M 764.8 66.9 L 764.8 69.8 L 753.5 69.8 L 753.5 66.9 L 764.8 66.9 Z M 756.8 61.7 L 760.2 61.7 C 760.2 61.7 760.15 82.5 760.2 82.5 C 760.2 83.4 760.3 84.2 760.6 84.6 C 760.8 85.1 761.2 85.4 761.6 85.6 C 762.1 85.7 762.6 85.8 763 85.8 C 763.4 85.8 763.7 85.8 764 85.7 C 764.2 85.7 764.4 85.7 764.5 85.6 C 764.5 85.6 765.2 88.6 765.2 88.6 C 765 88.7 764.7 88.8 764.3 88.9 C 763.8 89 763.3 89 762.7 89 C 761.8 89 760.8 88.8 759.9 88.4 C 759 88 758.3 87.4 757.7 86.6 C 757.1 85.7 756.8 84.7 756.8 83.4 C 756.8 83.41 756.8 61.7 756.8 61.7 Z M 779.4 66.9 L 779.4 69.8 L 768.1 69.8 L 768.1 66.9 L 779.4 66.9 Z M 771.4 61.7 L 774.7 61.7 C 774.7 61.7 774.74 82.5 774.7 82.5 C 774.7 83.4 774.9 84.2 775.2 84.6 C 775.4 85.1 775.8 85.4 776.2 85.6 C 776.7 85.7 777.1 85.8 777.6 85.8 C 778 85.8 778.3 85.8 778.6 85.7 C 778.8 85.7 779 85.7 779.1 85.6 C 779.1 85.6 779.8 88.6 779.8 88.6 C 779.6 88.7 779.3 88.8 778.8 88.9 C 778.4 89 777.9 89 777.3 89 C 776.4 89 775.4 88.8 774.5 88.4 C 773.6 88 772.9 87.4 772.3 86.6 C 771.7 85.7 771.4 84.7 771.4 83.4 C 771.39 83.41 771.4 61.7 771.4 61.7 Z M 792.1 89.2 C 790 89.2 788.2 88.7 786.7 87.8 C 785.2 86.9 784 85.6 783.2 83.9 C 782.3 82.2 781.9 80.2 781.9 78 C 781.9 75.8 782.3 73.8 783.2 72.1 C 784 70.4 785.1 69.1 786.6 68.1 C 788.1 67.1 789.8 66.6 791.8 66.6 C 792.9 66.6 794 66.8 795.1 67.2 C 796.2 67.6 797.2 68.2 798.2 69.1 C 799.1 69.9 799.8 71 800.3 72.4 C 800.9 73.8 801.1 75.5 801.1 77.6 C 801.14 77.56 801.1 79 801.1 79 L 784.3 79 L 784.3 76.1 C 784.3 76.1 797.73 76.08 797.7 76.1 C 797.7 74.8 797.5 73.8 797 72.8 C 796.5 71.8 795.8 71.1 794.9 70.5 C 794 69.9 793 69.7 791.8 69.7 C 790.4 69.7 789.3 70 788.3 70.6 C 787.3 71.3 786.6 72.2 786.1 73.2 C 785.5 74.3 785.3 75.4 785.3 76.6 C 785.3 76.6 785.3 78.5 785.3 78.5 C 785.3 80.2 785.6 81.6 786.1 82.7 C 786.7 83.8 787.5 84.7 788.5 85.3 C 789.6 85.9 790.7 86.2 792.1 86.2 C 793 86.2 793.8 86.1 794.5 85.8 C 795.2 85.6 795.8 85.2 796.4 84.7 C 796.9 84.2 797.3 83.5 797.6 82.8 C 797.6 82.8 800.8 83.7 800.8 83.7 C 800.5 84.8 799.9 85.8 799.1 86.6 C 798.3 87.4 797.3 88.1 796.1 88.5 C 794.9 89 793.6 89.2 792.1 89.2 Z M 805.9 88.8 L 805.9 66.9 L 809.2 66.9 L 809.2 70.2 C 809.2 70.2 809.38 70.23 809.4 70.2 C 809.8 69.1 810.5 68.3 811.5 67.6 C 812.6 66.9 813.8 66.6 815.1 66.6 C 815.3 66.6 815.6 66.6 816 66.6 C 816.4 66.6 816.6 66.6 816.8 66.6 C 816.8 66.6 816.8 70.1 816.8 70.1 C 816.7 70 816.4 70 816 69.9 C 815.6 69.9 815.2 69.8 814.8 69.8 C 813.7 69.8 812.8 70 811.9 70.5 C 811.1 70.9 810.5 71.5 810 72.3 C 809.5 73.1 809.3 74 809.3 74.9 C 809.26 74.94 809.3 88.8 809.3 88.8 L 805.9 88.8 Z M 840.9 89.2 C 838.9 89.2 837.2 88.7 835.7 87.8 C 834.3 86.9 833.1 85.5 832.3 83.9 C 831.4 82.2 831 80.2 831 78 C 831 75.7 831.4 73.7 832.3 72 C 833.1 70.3 834.3 69 835.7 68.1 C 837.2 67.1 838.9 66.6 840.9 66.6 C 842.9 66.6 844.6 67.1 846.1 68.1 C 847.6 69 848.7 70.3 849.6 72 C 850.4 73.7 850.8 75.7 850.8 78 C 850.8 80.2 850.4 82.2 849.6 83.9 C 848.7 85.5 847.6 86.9 846.1 87.8 C 844.6 88.7 842.9 89.2 840.9 89.2 Z M 840.9 86.2 C 842.4 86.2 843.6 85.8 844.6 85 C 845.6 84.3 846.3 83.3 846.7 82 C 847.2 80.8 847.4 79.4 847.4 78 C 847.4 76.5 847.2 75.1 846.7 73.9 C 846.3 72.6 845.6 71.6 844.6 70.8 C 843.6 70 842.4 69.7 840.9 69.7 C 839.4 69.7 838.2 70 837.2 70.8 C 836.3 71.6 835.5 72.6 835.1 73.9 C 834.6 75.1 834.4 76.5 834.4 78 C 834.4 79.4 834.6 80.8 835.1 82 C 835.5 83.3 836.3 84.3 837.2 85 C 838.2 85.8 839.4 86.2 840.9 86.2 Z M 869.2 79.8 C 869.17 79.83 869.2 66.9 869.2 66.9 L 872.5 66.9 L 872.5 88.8 L 869.2 88.8 L 869.2 85.1 C 869.2 85.1 868.95 85.06 868.9 85.1 C 868.4 86.2 867.6 87.1 866.6 87.9 C 865.5 88.6 864.1 89 862.5 89 C 861.1 89 859.9 88.7 858.8 88.1 C 857.8 87.5 856.9 86.6 856.3 85.4 C 855.7 84.2 855.4 82.7 855.4 80.8 C 855.42 80.8 855.4 66.9 855.4 66.9 L 858.8 66.9 C 858.8 66.9 858.78 80.57 858.8 80.6 C 858.8 82.2 859.2 83.4 860.1 84.4 C 861 85.3 862.2 85.8 863.5 85.8 C 864.4 85.8 865.2 85.6 866.1 85.2 C 867 84.7 867.7 84.1 868.3 83.2 C 868.9 82.3 869.2 81.2 869.2 79.8 Z M 887.6 66.9 L 887.6 69.8 L 876.3 69.8 L 876.3 66.9 L 887.6 66.9 Z M 879.6 61.7 L 883 61.7 C 883 61.7 882.99 82.5 883 82.5 C 883 83.4 883.1 84.2 883.4 84.6 C 883.7 85.1 884 85.4 884.5 85.6 C 884.9 85.7 885.4 85.8 885.9 85.8 C 886.3 85.8 886.6 85.8 886.8 85.7 C 887 85.7 887.2 85.7 887.4 85.6 C 887.4 85.6 888 88.6 888 88.6 C 887.8 88.7 887.5 88.8 887.1 88.9 C 886.7 89 886.2 89 885.5 89 C 884.6 89 883.7 88.8 882.8 88.4 C 881.9 88 881.1 87.4 880.5 86.6 C 879.9 85.7 879.6 84.7 879.6 83.4 C 879.63 83.41 879.6 61.7 879.6 61.7 Z M 900.1 89.2 C 898 89.2 896.3 88.7 894.8 87.8 C 893.3 86.8 892.2 85.5 891.4 83.8 C 890.6 82.1 890.2 80.1 890.2 78 C 890.2 75.7 890.6 73.8 891.4 72.1 C 892.2 70.4 893.4 69.1 894.8 68.1 C 896.3 67.1 898 66.6 900 66.6 C 901.5 66.6 902.9 66.9 904.2 67.5 C 905.4 68.1 906.4 68.9 907.2 69.9 C 908 70.9 908.5 72.1 908.6 73.5 C 908.6 73.5 905.3 73.5 905.3 73.5 C 905 72.5 904.5 71.6 903.6 70.8 C 902.7 70 901.5 69.7 900.1 69.7 C 898.8 69.7 897.6 70 896.6 70.7 C 895.7 71.4 894.9 72.3 894.3 73.5 C 893.8 74.8 893.5 76.2 893.5 77.8 C 893.5 79.5 893.8 81 894.3 82.2 C 894.9 83.5 895.6 84.5 896.6 85.2 C 897.6 85.8 898.7 86.2 900.1 86.2 C 900.9 86.2 901.7 86 902.4 85.7 C 903.1 85.4 903.7 85 904.2 84.4 C 904.7 83.9 905.1 83.2 905.3 82.4 C 905.3 82.4 908.6 82.4 908.6 82.4 C 908.5 83.7 908 84.8 907.2 85.9 C 906.5 86.9 905.5 87.7 904.3 88.3 C 903.1 88.9 901.7 89.2 900.1 89.2 Z M 921.9 89.2 C 919.9 89.2 918.2 88.7 916.7 87.8 C 915.2 86.9 914 85.5 913.2 83.9 C 912.4 82.2 912 80.2 912 78 C 912 75.7 912.4 73.7 913.2 72 C 914 70.3 915.2 69 916.7 68.1 C 918.2 67.1 919.9 66.6 921.9 66.6 C 923.8 66.6 925.6 67.1 927 68.1 C 928.5 69 929.7 70.3 930.5 72 C 931.3 73.7 931.7 75.7 931.7 78 C 931.7 80.2 931.3 82.2 930.5 83.9 C 929.7 85.5 928.5 86.9 927 87.8 C 925.6 88.7 923.8 89.2 921.9 89.2 Z M 921.9 86.2 C 923.4 86.2 924.6 85.8 925.6 85 C 926.5 84.3 927.2 83.3 927.7 82 C 928.2 80.8 928.4 79.4 928.4 78 C 928.4 76.5 928.2 75.1 927.7 73.9 C 927.2 72.6 926.5 71.6 925.6 70.8 C 924.6 70 923.4 69.7 921.9 69.7 C 920.4 69.7 919.1 70 918.2 70.8 C 917.2 71.6 916.5 72.6 916 73.9 C 915.6 75.1 915.3 76.5 915.3 78 C 915.3 79.4 915.6 80.8 916 82 C 916.5 83.3 917.2 84.3 918.2 85 C 919.1 85.8 920.4 86.2 921.9 86.2 Z M 936.5 88.8 L 936.5 66.9 L 939.8 66.9 L 939.8 70.3 C 939.8 70.3 940.04 70.34 940 70.3 C 940.5 69.2 941.2 68.3 942.2 67.6 C 943.3 67 944.5 66.6 945.9 66.6 C 947.3 66.6 948.5 67 949.5 67.6 C 950.5 68.3 951.2 69.2 951.7 70.3 C 951.7 70.3 952 70.3 952 70.3 C 952.5 69.2 953.4 68.3 954.5 67.6 C 955.6 67 956.9 66.6 958.5 66.6 C 960.5 66.6 962.1 67.3 963.3 68.5 C 964.5 69.7 965.2 71.6 965.2 74.1 C 965.15 74.15 965.2 88.8 965.2 88.8 L 961.8 88.8 C 961.8 88.8 961.8 74.15 961.8 74.1 C 961.8 72.5 961.4 71.4 960.5 70.7 C 959.6 70 958.6 69.7 957.4 69.7 C 955.8 69.7 954.6 70.1 953.8 71 C 953 72 952.5 73.1 952.5 74.5 C 952.54 74.55 952.5 88.8 952.5 88.8 L 949.1 88.8 C 949.1 88.8 949.13 73.81 949.1 73.8 C 949.1 72.6 948.7 71.6 947.9 70.8 C 947.1 70 946.1 69.7 944.8 69.7 C 943.9 69.7 943.1 69.9 942.4 70.4 C 941.6 70.8 941 71.5 940.6 72.3 C 940.1 73.1 939.9 74 939.9 75.1 C 939.87 75.11 939.9 88.8 939.9 88.8 L 936.5 88.8 Z M 980 89.2 C 977.9 89.2 976.1 88.7 974.6 87.8 C 973.1 86.9 971.9 85.6 971.1 83.9 C 970.2 82.2 969.8 80.2 969.8 78 C 969.8 75.8 970.2 73.8 971.1 72.1 C 971.9 70.4 973 69.1 974.5 68.1 C 976 67.1 977.7 66.6 979.7 66.6 C 980.8 66.6 981.9 66.8 983 67.2 C 984.1 67.6 985.1 68.2 986.1 69.1 C 987 69.9 987.7 71 988.2 72.4 C 988.8 73.8 989 75.5 989 77.6 C 989.04 77.56 989 79 989 79 L 972.2 79 L 972.2 76.1 C 972.2 76.1 985.63 76.08 985.6 76.1 C 985.6 74.8 985.4 73.8 984.9 72.8 C 984.4 71.8 983.7 71.1 982.8 70.5 C 981.9 69.9 980.9 69.7 979.7 69.7 C 978.3 69.7 977.2 70 976.2 70.6 C 975.2 71.3 974.5 72.2 974 73.2 C 973.4 74.3 973.2 75.4 973.2 76.6 C 973.2 76.6 973.2 78.5 973.2 78.5 C 973.2 80.2 973.5 81.6 974 82.7 C 974.6 83.8 975.4 84.7 976.4 85.3 C 977.5 85.9 978.7 86.2 980 86.2 C 980.9 86.2 981.7 86.1 982.4 85.8 C 983.1 85.6 983.7 85.2 984.3 84.7 C 984.8 84.2 985.2 83.5 985.5 82.8 C 985.5 82.8 988.7 83.7 988.7 83.7 C 988.4 84.8 987.8 85.8 987 86.6 C 986.2 87.4 985.2 88.1 984 88.5 C 982.8 89 981.5 89.2 980 89.2 Z M 1009 71.8 C 1009 71.8 1006 72.7 1006 72.7 C 1005.8 72.2 1005.5 71.7 1005.2 71.2 C 1004.8 70.7 1004.3 70.3 1003.7 70 C 1003.1 69.7 1002.3 69.5 1001.3 69.5 C 1000 69.5 998.8 69.9 998 70.5 C 997.1 71.1 996.6 71.8 996.6 72.8 C 996.6 73.6 996.9 74.3 997.5 74.8 C 998.1 75.2 999.1 75.6 1000.4 76 C 1000.4 76 1003.6 76.8 1003.6 76.8 C 1005.6 77.2 1007 78 1008 78.9 C 1008.9 79.9 1009.4 81.1 1009.4 82.7 C 1009.4 83.9 1009.1 85 1008.3 86 C 1007.6 87 1006.6 87.8 1005.3 88.4 C 1004.1 88.9 1002.6 89.2 1000.9 89.2 C 998.7 89.2 996.8 88.7 995.4 87.8 C 993.9 86.8 993 85.4 992.6 83.5 C 992.6 83.5 995.8 82.7 995.8 82.7 C 996.1 83.9 996.7 84.8 997.5 85.4 C 998.3 86 999.5 86.3 1000.8 86.3 C 1002.4 86.3 1003.6 85.9 1004.6 85.2 C 1005.5 84.6 1005.9 83.8 1005.9 82.8 C 1005.9 82.1 1005.7 81.4 1005.2 80.9 C 1004.6 80.4 1003.8 80 1002.7 79.8 C 1002.7 79.8 999.1 78.9 999.1 78.9 C 997.1 78.4 995.6 77.7 994.7 76.7 C 993.7 75.7 993.3 74.5 993.3 73 C 993.3 71.7 993.6 70.6 994.3 69.7 C 995 68.7 996 68 997.2 67.5 C 998.4 66.9 999.8 66.6 1001.3 66.6 C 1003.4 66.6 1005.1 67.1 1006.4 68.1 C 1007.6 69 1008.5 70.3 1009 71.8 Z M 1016.4 89 C 1015.7 89 1015.1 88.7 1014.6 88.2 C 1014.1 87.7 1013.9 87.1 1013.9 86.4 C 1013.9 85.7 1014.1 85.1 1014.6 84.6 C 1015.1 84.1 1015.7 83.9 1016.4 83.9 C 1017.1 83.9 1017.7 84.1 1018.2 84.6 C 1018.7 85.1 1019 85.7 1019 86.4 C 1019 86.9 1018.9 87.3 1018.6 87.7 C 1018.4 88.1 1018.1 88.4 1017.7 88.6 C 1017.3 88.9 1016.9 89 1016.4 89 Z " stroke="none" fill="#ffffff"/>  </g>  <g id="Polygon107859">    <path d="M 58.8 9.7 L 62.3 9.7 C 62.3 9.7 62.31 28.92 62.3 28.9 C 62.3 30.9 61.8 32.7 60.9 34.2 C 60 35.8 58.7 37 57 37.9 C 55.3 38.8 53.3 39.3 51 39.3 C 48.7 39.3 46.7 38.8 45 37.9 C 43.3 37 42 35.8 41.1 34.2 C 40.2 32.7 39.7 30.9 39.7 28.9 C 39.7 28.92 39.7 9.7 39.7 9.7 L 43.2 9.7 C 43.2 9.7 43.22 28.64 43.2 28.6 C 43.2 30.1 43.5 31.3 44.2 32.4 C 44.8 33.5 45.7 34.4 46.8 35 C 48 35.7 49.4 36 51 36 C 52.6 36 54 35.7 55.2 35 C 56.3 34.4 57.2 33.5 57.9 32.4 C 58.5 31.3 58.8 30.1 58.8 28.6 C 58.79 28.64 58.8 9.7 58.8 9.7 Z M 83.5 21.8 C 83.5 21.8 80.5 22.7 80.5 22.7 C 80.3 22.2 80 21.7 79.6 21.2 C 79.3 20.7 78.8 20.3 78.2 20 C 77.5 19.7 76.7 19.5 75.8 19.5 C 74.4 19.5 73.3 19.9 72.4 20.5 C 71.5 21.1 71.1 21.8 71.1 22.8 C 71.1 23.6 71.4 24.3 72 24.8 C 72.6 25.2 73.6 25.6 74.8 26 C 74.8 26 78.1 26.8 78.1 26.8 C 80 27.2 81.5 28 82.4 28.9 C 83.4 29.9 83.9 31.1 83.9 32.7 C 83.9 33.9 83.5 35 82.8 36 C 82.1 37 81.1 37.8 79.8 38.4 C 78.5 38.9 77.1 39.2 75.4 39.2 C 73.1 39.2 71.3 38.7 69.8 37.8 C 68.4 36.8 67.5 35.4 67.1 33.5 C 67.1 33.5 70.2 32.7 70.2 32.7 C 70.5 33.9 71.1 34.8 72 35.4 C 72.8 36 73.9 36.3 75.3 36.3 C 76.9 36.3 78.1 35.9 79 35.2 C 80 34.6 80.4 33.8 80.4 32.8 C 80.4 32.1 80.2 31.4 79.6 30.9 C 79.1 30.4 78.3 30 77.2 29.8 C 77.2 29.8 73.5 28.9 73.5 28.9 C 71.5 28.4 70.1 27.7 69.1 26.7 C 68.2 25.7 67.7 24.5 67.7 23 C 67.7 21.7 68.1 20.6 68.8 19.7 C 69.5 18.7 70.4 18 71.6 17.5 C 72.9 16.9 74.2 16.6 75.8 16.6 C 77.9 16.6 79.6 17.1 80.8 18.1 C 82.1 19 83 20.3 83.5 21.8 Z M 97.6 39.2 C 95.5 39.2 93.6 38.7 92.1 37.8 C 90.6 36.9 89.4 35.6 88.6 33.9 C 87.8 32.2 87.4 30.2 87.4 28 C 87.4 25.8 87.8 23.8 88.6 22.1 C 89.4 20.4 90.6 19.1 92.1 18.1 C 93.5 17.1 95.3 16.6 97.2 16.6 C 98.4 16.6 99.5 16.8 100.6 17.2 C 101.7 17.6 102.7 18.2 103.6 19.1 C 104.5 19.9 105.2 21 105.8 22.4 C 106.3 23.8 106.6 25.5 106.6 27.6 C 106.6 27.56 106.6 29 106.6 29 L 89.8 29 L 89.8 26.1 C 89.8 26.1 103.19 26.08 103.2 26.1 C 103.2 24.8 102.9 23.8 102.5 22.8 C 102 21.8 101.3 21.1 100.4 20.5 C 99.5 19.9 98.4 19.7 97.2 19.7 C 95.9 19.7 94.7 20 93.8 20.6 C 92.8 21.3 92 22.2 91.5 23.2 C 91 24.3 90.7 25.4 90.7 26.6 C 90.7 26.6 90.7 28.5 90.7 28.5 C 90.7 30.2 91 31.6 91.6 32.7 C 92.2 33.8 93 34.7 94 35.3 C 95 35.9 96.2 36.2 97.6 36.2 C 98.4 36.2 99.2 36.1 100 35.8 C 100.7 35.6 101.3 35.2 101.8 34.7 C 102.3 34.2 102.7 33.5 103 32.8 C 103 32.8 106.3 33.7 106.3 33.7 C 105.9 34.8 105.3 35.8 104.5 36.6 C 103.7 37.4 102.7 38.1 101.6 38.5 C 100.4 39 99 39.2 97.6 39.2 Z M 132.4 16.9 L 132.4 19.8 L 121.1 19.8 L 121.1 16.9 L 132.4 16.9 Z M 124.4 11.7 L 127.8 11.7 C 127.8 11.7 127.79 32.5 127.8 32.5 C 127.8 33.4 127.9 34.2 128.2 34.6 C 128.5 35.1 128.8 35.4 129.3 35.6 C 129.7 35.7 130.2 35.8 130.7 35.8 C 131.1 35.8 131.4 35.8 131.6 35.7 C 131.8 35.7 132 35.7 132.2 35.6 C 132.2 35.6 132.8 38.6 132.8 38.6 C 132.6 38.7 132.3 38.8 131.9 38.9 C 131.5 39 131 39 130.3 39 C 129.4 39 128.5 38.8 127.6 38.4 C 126.7 38 125.9 37.4 125.3 36.6 C 124.7 35.7 124.4 34.7 124.4 33.4 C 124.44 33.41 124.4 11.7 124.4 11.7 Z M 140.2 25.6 C 140.17 25.63 140.2 38.8 140.2 38.8 L 136.8 38.8 L 136.8 9.7 L 140.2 9.7 L 140.2 20.3 C 140.2 20.3 140.45 20.34 140.5 20.3 C 141 19.2 141.7 18.3 142.8 17.6 C 143.8 17 145.2 16.6 146.9 16.6 C 148.4 16.6 149.7 16.9 150.8 17.5 C 151.9 18.1 152.8 19 153.4 20.2 C 154 21.5 154.3 23 154.3 24.9 C 154.32 24.89 154.3 38.8 154.3 38.8 L 151 38.8 C 151 38.8 150.96 25.11 151 25.1 C 151 23.4 150.5 22 149.6 21.1 C 148.7 20.1 147.5 19.7 145.9 19.7 C 144.8 19.7 143.8 19.9 143 20.4 C 142.1 20.8 141.4 21.5 140.9 22.4 C 140.4 23.3 140.2 24.4 140.2 25.6 Z M 160 38.8 L 160 16.9 L 163.4 16.9 L 163.4 38.8 L 160 38.8 Z M 161.7 13.3 C 161.1 13.3 160.5 13.1 160 12.6 C 159.6 12.2 159.3 11.6 159.3 11 C 159.3 10.4 159.6 9.9 160 9.4 C 160.5 9 161.1 8.8 161.7 8.8 C 162.4 8.8 162.9 9 163.4 9.4 C 163.9 9.9 164.1 10.4 164.1 11 C 164.1 11.6 163.9 12.2 163.4 12.6 C 162.9 13.1 162.4 13.3 161.7 13.3 Z M 184.4 21.8 C 184.4 21.8 181.4 22.7 181.4 22.7 C 181.2 22.2 180.9 21.7 180.5 21.2 C 180.2 20.7 179.7 20.3 179 20 C 178.4 19.7 177.6 19.5 176.6 19.5 C 175.3 19.5 174.2 19.9 173.3 20.5 C 172.4 21.1 172 21.8 172 22.8 C 172 23.6 172.3 24.3 172.9 24.8 C 173.5 25.2 174.4 25.6 175.7 26 C 175.7 26 179 26.8 179 26.8 C 180.9 27.2 182.4 28 183.3 28.9 C 184.3 29.9 184.8 31.1 184.8 32.7 C 184.8 33.9 184.4 35 183.7 36 C 183 37 182 37.8 180.7 38.4 C 179.4 38.9 177.9 39.2 176.2 39.2 C 174 39.2 172.2 38.7 170.7 37.8 C 169.3 36.8 168.3 35.4 168 33.5 C 168 33.5 171.1 32.7 171.1 32.7 C 171.4 33.9 172 34.8 172.9 35.4 C 173.7 36 174.8 36.3 176.2 36.3 C 177.8 36.3 179 35.9 179.9 35.2 C 180.8 34.6 181.3 33.8 181.3 32.8 C 181.3 32.1 181 31.4 180.5 30.9 C 180 30.4 179.2 30 178.1 29.8 C 178.1 29.8 174.4 28.9 174.4 28.9 C 172.4 28.4 171 27.7 170 26.7 C 169.1 25.7 168.6 24.5 168.6 23 C 168.6 21.7 169 20.6 169.7 19.7 C 170.4 18.7 171.3 18 172.5 17.5 C 173.7 16.9 175.1 16.6 176.6 16.6 C 178.8 16.6 180.5 17.1 181.7 18.1 C 183 19 183.9 20.3 184.4 21.8 Z M 209.9 47.4 C 208.3 47.4 206.9 47.2 205.7 46.8 C 204.5 46.4 203.6 45.8 202.8 45.1 C 202 44.5 201.4 43.8 201 43 C 201 43 203.6 41.1 203.6 41.1 C 203.9 41.5 204.3 42 204.8 42.5 C 205.2 43 205.9 43.5 206.7 43.9 C 207.5 44.2 208.6 44.4 209.9 44.4 C 211.6 44.4 213.1 44 214.2 43.2 C 215.4 42.3 216 41 216 39.1 C 215.96 39.15 216 34.7 216 34.7 C 216 34.7 215.68 34.72 215.7 34.7 C 215.4 35.1 215.1 35.6 214.6 36.2 C 214.2 36.8 213.5 37.3 212.7 37.7 C 211.9 38.2 210.7 38.4 209.3 38.4 C 207.6 38.4 206 38 204.6 37.2 C 203.2 36.3 202.1 35.1 201.3 33.5 C 200.5 31.9 200.1 30 200.1 27.7 C 200.1 25.5 200.4 23.5 201.2 21.9 C 202 20.2 203.1 18.9 204.5 18 C 205.9 17.1 207.5 16.6 209.4 16.6 C 210.8 16.6 211.9 16.9 212.8 17.4 C 213.6 17.8 214.2 18.4 214.7 18.9 C 215.1 19.5 215.5 20 215.7 20.4 C 215.74 20.4 216.1 20.4 216.1 20.4 L 216.1 16.9 L 219.3 16.9 C 219.3 16.9 219.31 39.38 219.3 39.4 C 219.3 41.3 218.9 42.8 218 44 C 217.2 45.1 216.1 46 214.6 46.6 C 213.2 47.1 211.6 47.4 209.9 47.4 Z M 209.8 35.4 C 211.1 35.4 212.3 35.1 213.2 34.5 C 214.1 33.9 214.8 33 215.3 31.8 C 215.8 30.7 216 29.3 216 27.7 C 216 26.1 215.8 24.7 215.3 23.5 C 214.8 22.3 214.1 21.4 213.2 20.7 C 212.3 20 211.1 19.7 209.8 19.7 C 208.3 19.7 207.2 20 206.2 20.7 C 205.3 21.5 204.6 22.4 204.1 23.6 C 203.6 24.8 203.4 26.2 203.4 27.7 C 203.4 29.2 203.6 30.5 204.1 31.7 C 204.6 32.8 205.3 33.8 206.3 34.4 C 207.2 35.1 208.4 35.4 209.8 35.4 Z M 238.8 29.8 C 238.8 29.83 238.8 16.9 238.8 16.9 L 242.2 16.9 L 242.2 38.8 L 238.8 38.8 L 238.8 35.1 C 238.8 35.1 238.57 35.06 238.6 35.1 C 238.1 36.2 237.3 37.1 236.2 37.9 C 235.1 38.6 233.7 39 232.1 39 C 230.7 39 229.5 38.7 228.5 38.1 C 227.4 37.5 226.6 36.6 226 35.4 C 225.4 34.2 225.1 32.7 225.1 30.8 C 225.05 30.8 225.1 16.9 225.1 16.9 L 228.4 16.9 C 228.4 16.9 228.4 30.57 228.4 30.6 C 228.4 32.2 228.9 33.4 229.7 34.4 C 230.6 35.3 231.8 35.8 233.2 35.8 C 234 35.8 234.9 35.6 235.7 35.2 C 236.6 34.7 237.3 34.1 237.9 33.2 C 238.5 32.3 238.8 31.2 238.8 29.8 Z M 247.9 38.8 L 247.9 16.9 L 251.3 16.9 L 251.3 38.8 L 247.9 38.8 Z M 249.7 13.3 C 249 13.3 248.4 13.1 248 12.6 C 247.5 12.2 247.3 11.6 247.3 11 C 247.3 10.4 247.5 9.9 248 9.4 C 248.4 9 249 8.8 249.7 8.8 C 250.3 8.8 250.9 9 251.3 9.4 C 251.8 9.9 252 10.4 252 11 C 252 11.6 251.8 12.2 251.3 12.6 C 250.9 13.1 250.3 13.3 249.7 13.3 Z M 265.2 39.2 C 263.4 39.2 261.8 38.7 260.4 37.8 C 259 36.9 257.9 35.6 257.1 33.9 C 256.4 32.2 256 30.2 256 27.9 C 256 25.6 256.4 23.6 257.1 21.9 C 257.9 20.2 259 18.9 260.4 18 C 261.8 17.1 263.4 16.6 265.3 16.6 C 266.7 16.6 267.8 16.9 268.7 17.4 C 269.5 17.8 270.1 18.4 270.6 18.9 C 271 19.5 271.3 20 271.6 20.4 C 271.58 20.4 271.9 20.4 271.9 20.4 L 271.9 9.7 L 275.2 9.7 L 275.2 38.8 L 272 38.8 L 272 35.4 C 272 35.4 271.58 35.4 271.6 35.4 C 271.3 35.8 271 36.3 270.5 36.9 C 270.1 37.5 269.4 38 268.6 38.5 C 267.7 39 266.6 39.2 265.2 39.2 Z M 265.7 36.2 C 267 36.2 268.2 35.8 269.1 35.1 C 270 34.4 270.7 33.4 271.2 32.2 C 271.7 30.9 271.9 29.5 271.9 27.8 C 271.9 26.2 271.7 24.8 271.2 23.6 C 270.7 22.3 270 21.4 269.1 20.7 C 268.2 20 267 19.7 265.7 19.7 C 264.3 19.7 263.1 20 262.1 20.7 C 261.2 21.5 260.5 22.5 260 23.7 C 259.5 24.9 259.3 26.3 259.3 27.8 C 259.3 29.4 259.6 30.8 260 32.1 C 260.5 33.3 261.2 34.3 262.2 35.1 C 263.1 35.8 264.3 36.2 265.7 36.2 Z M 290.4 39.2 C 288.3 39.2 286.4 38.7 284.9 37.8 C 283.4 36.9 282.2 35.6 281.4 33.9 C 280.6 32.2 280.2 30.2 280.2 28 C 280.2 25.8 280.6 23.8 281.4 22.1 C 282.2 20.4 283.4 19.1 284.9 18.1 C 286.3 17.1 288 16.6 290 16.6 C 291.2 16.6 292.3 16.8 293.4 17.2 C 294.5 17.6 295.5 18.2 296.4 19.1 C 297.3 19.9 298 21 298.6 22.4 C 299.1 23.8 299.4 25.5 299.4 27.6 C 299.39 27.56 299.4 29 299.4 29 L 282.6 29 L 282.6 26.1 C 282.6 26.1 295.98 26.08 296 26.1 C 296 24.8 295.7 23.8 295.3 22.8 C 294.8 21.8 294.1 21.1 293.2 20.5 C 292.3 19.9 291.2 19.7 290 19.7 C 288.7 19.7 287.5 20 286.6 20.6 C 285.6 21.3 284.8 22.2 284.3 23.2 C 283.8 24.3 283.5 25.4 283.5 26.6 C 283.5 26.6 283.5 28.5 283.5 28.5 C 283.5 30.2 283.8 31.6 284.4 32.7 C 285 33.8 285.8 34.7 286.8 35.3 C 287.8 35.9 289 36.2 290.4 36.2 C 291.2 36.2 292 36.1 292.8 35.8 C 293.5 35.6 294.1 35.2 294.6 34.7 C 295.1 34.2 295.5 33.5 295.8 32.8 C 295.8 32.8 299.1 33.7 299.1 33.7 C 298.7 34.8 298.1 35.8 297.3 36.6 C 296.5 37.4 295.5 38.1 294.4 38.5 C 293.2 39 291.8 39.2 290.4 39.2 Z M 325.2 16.9 L 325.2 19.8 L 313.9 19.8 L 313.9 16.9 L 325.2 16.9 Z M 317.2 11.7 L 320.6 11.7 C 320.6 11.7 320.59 32.5 320.6 32.5 C 320.6 33.4 320.7 34.2 321 34.6 C 321.3 35.1 321.6 35.4 322.1 35.6 C 322.5 35.7 323 35.8 323.5 35.8 C 323.9 35.8 324.2 35.8 324.4 35.7 C 324.6 35.7 324.8 35.7 325 35.6 C 325 35.6 325.6 38.6 325.6 38.6 C 325.4 38.7 325.1 38.8 324.7 38.9 C 324.3 39 323.8 39 323.1 39 C 322.2 39 321.3 38.8 320.4 38.4 C 319.5 38 318.7 37.4 318.1 36.6 C 317.5 35.7 317.2 34.7 317.2 33.4 C 317.23 33.41 317.2 11.7 317.2 11.7 Z M 337.7 39.2 C 335.7 39.2 334 38.7 332.5 37.8 C 331 36.9 329.8 35.5 329 33.9 C 328.2 32.2 327.8 30.2 327.8 28 C 327.8 25.7 328.2 23.7 329 22 C 329.8 20.3 331 19 332.5 18.1 C 334 17.1 335.7 16.6 337.7 16.6 C 339.6 16.6 341.4 17.1 342.8 18.1 C 344.3 19 345.5 20.3 346.3 22 C 347.1 23.7 347.5 25.7 347.5 28 C 347.5 30.2 347.1 32.2 346.3 33.9 C 345.5 35.5 344.3 36.9 342.8 37.8 C 341.4 38.7 339.6 39.2 337.7 39.2 Z M 337.7 36.2 C 339.2 36.2 340.4 35.8 341.4 35 C 342.3 34.3 343 33.3 343.5 32 C 344 30.8 344.2 29.4 344.2 28 C 344.2 26.5 344 25.1 343.5 23.9 C 343 22.6 342.3 21.6 341.4 20.8 C 340.4 20 339.2 19.7 337.7 19.7 C 336.2 19.7 334.9 20 334 20.8 C 333 21.6 332.3 22.6 331.8 23.9 C 331.4 25.1 331.1 26.5 331.1 28 C 331.1 29.4 331.4 30.8 331.8 32 C 332.3 33.3 333 34.3 334 35 C 334.9 35.8 336.2 36.2 337.7 36.2 Z M 372.8 39.2 C 370.7 39.2 369 38.7 367.5 37.8 C 366 36.8 364.9 35.5 364.1 33.8 C 363.3 32.1 362.9 30.1 362.9 28 C 362.9 25.7 363.3 23.8 364.1 22.1 C 364.9 20.4 366.1 19.1 367.6 18.1 C 369 17.1 370.7 16.6 372.7 16.6 C 374.3 16.6 375.6 16.9 376.9 17.5 C 378.1 18.1 379.1 18.9 379.9 19.9 C 380.7 20.9 381.2 22.1 381.4 23.5 C 381.4 23.5 378 23.5 378 23.5 C 377.7 22.5 377.2 21.6 376.3 20.8 C 375.4 20 374.3 19.7 372.8 19.7 C 371.5 19.7 370.3 20 369.3 20.7 C 368.4 21.4 367.6 22.3 367.1 23.5 C 366.5 24.8 366.2 26.2 366.2 27.8 C 366.2 29.5 366.5 31 367 32.2 C 367.6 33.5 368.3 34.5 369.3 35.2 C 370.3 35.8 371.4 36.2 372.8 36.2 C 373.6 36.2 374.4 36 375.1 35.7 C 375.9 35.4 376.5 35 377 34.4 C 377.4 33.9 377.8 33.2 378 32.4 C 378 32.4 381.4 32.4 381.4 32.4 C 381.2 33.7 380.7 34.8 380 35.9 C 379.2 36.9 378.2 37.7 377 38.3 C 375.8 38.9 374.4 39.2 372.8 39.2 Z M 399.5 29.8 C 399.46 29.83 399.5 16.9 399.5 16.9 L 402.8 16.9 L 402.8 38.8 L 399.5 38.8 L 399.5 35.1 C 399.5 35.1 399.23 35.06 399.2 35.1 C 398.7 36.2 397.9 37.1 396.8 37.9 C 395.8 38.6 394.4 39 392.8 39 C 391.4 39 390.2 38.7 389.1 38.1 C 388.1 37.5 387.2 36.6 386.6 35.4 C 386 34.2 385.7 32.7 385.7 30.8 C 385.71 30.8 385.7 16.9 385.7 16.9 L 389.1 16.9 C 389.1 16.9 389.06 30.57 389.1 30.6 C 389.1 32.2 389.5 33.4 390.4 34.4 C 391.3 35.3 392.4 35.8 393.8 35.8 C 394.7 35.8 395.5 35.6 396.4 35.2 C 397.2 34.7 398 34.1 398.6 33.2 C 399.2 32.3 399.5 31.2 399.5 29.8 Z M 417.9 16.9 L 417.9 19.8 L 406.6 19.8 L 406.6 16.9 L 417.9 16.9 Z M 409.9 11.7 L 413.3 11.7 C 413.3 11.7 413.27 32.5 413.3 32.5 C 413.3 33.4 413.4 34.2 413.7 34.6 C 414 35.1 414.3 35.4 414.8 35.6 C 415.2 35.7 415.7 35.8 416.2 35.8 C 416.5 35.8 416.8 35.8 417.1 35.7 C 417.3 35.7 417.5 35.7 417.6 35.6 C 417.6 35.6 418.3 38.6 418.3 38.6 C 418.1 38.7 417.8 38.8 417.4 38.9 C 417 39 416.5 39 415.8 39 C 414.9 39 414 38.8 413.1 38.4 C 412.1 38 411.4 37.4 410.8 36.6 C 410.2 35.7 409.9 34.7 409.9 33.4 C 409.92 33.41 409.9 11.7 409.9 11.7 Z M 443.7 16.9 L 443.7 19.8 L 432.4 19.8 L 432.4 16.9 L 443.7 16.9 Z M 435.7 11.7 L 439.1 11.7 C 439.1 11.7 439.07 32.5 439.1 32.5 C 439.1 33.4 439.2 34.2 439.5 34.6 C 439.8 35.1 440.1 35.4 440.6 35.6 C 441 35.7 441.5 35.8 442 35.8 C 442.3 35.8 442.6 35.8 442.9 35.7 C 443.1 35.7 443.3 35.7 443.4 35.6 C 443.4 35.6 444.1 38.6 444.1 38.6 C 443.9 38.7 443.6 38.8 443.2 38.9 C 442.8 39 442.2 39 441.6 39 C 440.7 39 439.8 38.8 438.8 38.4 C 437.9 38 437.2 37.4 436.6 36.6 C 436 35.7 435.7 34.7 435.7 33.4 C 435.72 33.41 435.7 11.7 435.7 11.7 Z M 451.4 25.6 C 451.45 25.63 451.4 38.8 451.4 38.8 L 448.1 38.8 L 448.1 9.7 L 451.4 9.7 L 451.4 20.3 C 451.4 20.3 451.73 20.34 451.7 20.3 C 452.2 19.2 453 18.3 454 17.6 C 455.1 17 456.4 16.6 458.2 16.6 C 459.6 16.6 460.9 16.9 462.1 17.5 C 463.2 18.1 464 19 464.7 20.2 C 465.3 21.5 465.6 23 465.6 24.9 C 465.6 24.89 465.6 38.8 465.6 38.8 L 462.2 38.8 C 462.2 38.8 462.24 25.11 462.2 25.1 C 462.2 23.4 461.8 22 460.9 21.1 C 460 20.1 458.8 19.7 457.2 19.7 C 456.1 19.7 455.1 19.9 454.2 20.4 C 453.4 20.8 452.7 21.5 452.2 22.4 C 451.7 23.3 451.4 24.4 451.4 25.6 Z M 471.4 38.8 L 471.4 16.9 L 474.6 16.9 L 474.6 20.2 C 474.6 20.2 474.83 20.23 474.8 20.2 C 475.2 19.1 475.9 18.3 477 17.6 C 478 16.9 479.2 16.6 480.5 16.6 C 480.8 16.6 481.1 16.6 481.4 16.6 C 481.8 16.6 482.1 16.6 482.3 16.6 C 482.3 16.6 482.3 20.1 482.3 20.1 C 482.2 20 481.9 20 481.5 19.9 C 481.1 19.9 480.7 19.8 480.2 19.8 C 479.2 19.8 478.2 20 477.4 20.5 C 476.6 20.9 475.9 21.5 475.4 22.3 C 475 23.1 474.7 24 474.7 24.9 C 474.71 24.94 474.7 38.8 474.7 38.8 L 471.4 38.8 Z M 494.3 39.2 C 492.3 39.2 490.6 38.7 489.1 37.8 C 487.6 36.9 486.5 35.5 485.6 33.9 C 484.8 32.2 484.4 30.2 484.4 28 C 484.4 25.7 484.8 23.7 485.6 22 C 486.5 20.3 487.6 19 489.1 18.1 C 490.6 17.1 492.3 16.6 494.3 16.6 C 496.3 16.6 498 17.1 499.5 18.1 C 500.9 19 502.1 20.3 502.9 22 C 503.8 23.7 504.2 25.7 504.2 28 C 504.2 30.2 503.8 32.2 502.9 33.9 C 502.1 35.5 500.9 36.9 499.5 37.8 C 498 38.7 496.3 39.2 494.3 39.2 Z M 494.3 36.2 C 495.8 36.2 497 35.8 498 35 C 498.9 34.3 499.7 33.3 500.1 32 C 500.6 30.8 500.8 29.4 500.8 28 C 500.8 26.5 500.6 25.1 500.1 23.9 C 499.7 22.6 498.9 21.6 498 20.8 C 497 20 495.8 19.7 494.3 19.7 C 492.8 19.7 491.6 20 490.6 20.8 C 489.6 21.6 488.9 22.6 488.5 23.9 C 488 25.1 487.8 26.5 487.8 28 C 487.8 29.4 488 30.8 488.5 32 C 488.9 33.3 489.6 34.3 490.6 35 C 491.6 35.8 492.8 36.2 494.3 36.2 Z M 522.6 29.8 C 522.55 29.83 522.6 16.9 522.6 16.9 L 525.9 16.9 L 525.9 38.8 L 522.6 38.8 L 522.6 35.1 C 522.6 35.1 522.32 35.06 522.3 35.1 C 521.8 36.2 521 37.1 519.9 37.9 C 518.9 38.6 517.5 39 515.8 39 C 514.5 39 513.3 38.7 512.2 38.1 C 511.1 37.5 510.3 36.6 509.7 35.4 C 509.1 34.2 508.8 32.7 508.8 30.8 C 508.8 30.8 508.8 16.9 508.8 16.9 L 512.2 16.9 C 512.2 16.9 512.15 30.57 512.2 30.6 C 512.2 32.2 512.6 33.4 513.5 34.4 C 514.4 35.3 515.5 35.8 516.9 35.8 C 517.8 35.8 518.6 35.6 519.5 35.2 C 520.3 34.7 521.1 34.1 521.7 33.2 C 522.3 32.3 522.6 31.2 522.6 29.8 Z M 540.5 47.4 C 538.9 47.4 537.5 47.2 536.3 46.8 C 535.2 46.4 534.2 45.8 533.4 45.1 C 532.6 44.5 532 43.8 531.6 43 C 531.6 43 534.2 41.1 534.2 41.1 C 534.5 41.5 534.9 42 535.4 42.5 C 535.9 43 536.5 43.5 537.3 43.9 C 538.1 44.2 539.2 44.4 540.5 44.4 C 542.3 44.4 543.7 44 544.9 43.2 C 546 42.3 546.6 41 546.6 39.1 C 546.57 39.15 546.6 34.7 546.6 34.7 C 546.6 34.7 546.29 34.72 546.3 34.7 C 546 35.1 545.7 35.6 545.2 36.2 C 544.8 36.8 544.2 37.3 543.3 37.7 C 542.5 38.2 541.3 38.4 539.9 38.4 C 538.2 38.4 536.6 38 535.2 37.2 C 533.8 36.3 532.7 35.1 531.9 33.5 C 531.1 31.9 530.7 30 530.7 27.7 C 530.7 25.5 531.1 23.5 531.8 21.9 C 532.6 20.2 533.7 18.9 535.1 18 C 536.5 17.1 538.1 16.6 540 16.6 C 541.4 16.6 542.5 16.9 543.4 17.4 C 544.2 17.8 544.9 18.4 545.3 18.9 C 545.8 19.5 546.1 20 546.3 20.4 C 546.35 20.4 546.7 20.4 546.7 20.4 L 546.7 16.9 L 549.9 16.9 C 549.9 16.9 549.93 39.38 549.9 39.4 C 549.9 41.3 549.5 42.8 548.7 44 C 547.8 45.1 546.7 46 545.2 46.6 C 543.8 47.1 542.2 47.4 540.5 47.4 Z M 540.4 35.4 C 541.7 35.4 542.9 35.1 543.8 34.5 C 544.7 33.9 545.4 33 545.9 31.8 C 546.4 30.7 546.6 29.3 546.6 27.7 C 546.6 26.1 546.4 24.7 545.9 23.5 C 545.4 22.3 544.7 21.4 543.8 20.7 C 542.9 20 541.7 19.7 540.4 19.7 C 539 19.7 537.8 20 536.8 20.7 C 535.9 21.5 535.2 22.4 534.7 23.6 C 534.3 24.8 534 26.2 534 27.7 C 534 29.2 534.3 30.5 534.7 31.7 C 535.2 32.8 535.9 33.8 536.9 34.4 C 537.8 35.1 539 35.4 540.4 35.4 Z M 559.1 25.6 C 559.07 25.63 559.1 38.8 559.1 38.8 L 555.7 38.8 L 555.7 9.7 L 559.1 9.7 L 559.1 20.3 C 559.1 20.3 559.35 20.34 559.4 20.3 C 559.9 19.2 560.6 18.3 561.7 17.6 C 562.7 17 564.1 16.6 565.8 16.6 C 567.3 16.6 568.6 16.9 569.7 17.5 C 570.8 18.1 571.7 19 572.3 20.2 C 572.9 21.5 573.2 23 573.2 24.9 C 573.21 24.89 573.2 38.8 573.2 38.8 L 569.9 38.8 C 569.9 38.8 569.86 25.11 569.9 25.1 C 569.9 23.4 569.4 22 568.5 21.1 C 567.6 20.1 566.4 19.7 564.8 19.7 C 563.7 19.7 562.7 19.9 561.9 20.4 C 561 20.8 560.3 21.5 559.8 22.4 C 559.3 23.3 559.1 24.4 559.1 25.6 Z M 600.1 16.9 L 600.1 19.8 L 588.8 19.8 L 588.8 16.9 L 600.1 16.9 Z M 592.1 11.7 L 595.4 11.7 C 595.4 11.7 595.43 32.5 595.4 32.5 C 595.4 33.4 595.6 34.2 595.8 34.6 C 596.1 35.1 596.5 35.4 596.9 35.6 C 597.4 35.7 597.8 35.8 598.3 35.8 C 598.7 35.8 599 35.8 599.2 35.7 C 599.5 35.7 599.7 35.7 599.8 35.6 C 599.8 35.6 600.5 38.6 600.5 38.6 C 600.3 38.7 599.9 38.8 599.5 38.9 C 599.1 39 598.6 39 598 39 C 597 39 596.1 38.8 595.2 38.4 C 594.3 38 593.6 37.4 593 36.6 C 592.4 35.7 592.1 34.7 592.1 33.4 C 592.08 33.41 592.1 11.7 592.1 11.7 Z M 607.8 25.6 C 607.81 25.63 607.8 38.8 607.8 38.8 L 604.5 38.8 L 604.5 9.7 L 607.8 9.7 L 607.8 20.3 C 607.8 20.3 608.09 20.34 608.1 20.3 C 608.6 19.2 609.4 18.3 610.4 17.6 C 611.4 17 612.8 16.6 614.5 16.6 C 616 16.6 617.3 16.9 618.4 17.5 C 619.5 18.1 620.4 19 621 20.2 C 621.6 21.5 622 23 622 24.9 C 621.96 24.89 622 38.8 622 38.8 L 618.6 38.8 C 618.6 38.8 618.61 25.11 618.6 25.1 C 618.6 23.4 618.2 22 617.3 21.1 C 616.4 20.1 615.1 19.7 613.5 19.7 C 612.4 19.7 611.5 19.9 610.6 20.4 C 609.7 20.8 609.1 21.5 608.6 22.4 C 608.1 23.3 607.8 24.4 607.8 25.6 Z M 636.8 39.2 C 634.7 39.2 632.9 38.7 631.4 37.8 C 629.9 36.9 628.7 35.6 627.9 33.9 C 627.1 32.2 626.7 30.2 626.7 28 C 626.7 25.8 627.1 23.8 627.9 22.1 C 628.7 20.4 629.8 19.1 631.3 18.1 C 632.8 17.1 634.5 16.6 636.5 16.6 C 637.6 16.6 638.7 16.8 639.9 17.2 C 641 17.6 642 18.2 642.9 19.1 C 643.8 19.9 644.5 21 645 22.4 C 645.6 23.8 645.9 25.5 645.9 27.6 C 645.86 27.56 645.9 29 645.9 29 L 629 29 L 629 26.1 C 629 26.1 642.45 26.08 642.5 26.1 C 642.5 24.8 642.2 23.8 641.7 22.8 C 641.2 21.8 640.5 21.1 639.6 20.5 C 638.7 19.9 637.7 19.7 636.5 19.7 C 635.1 19.7 634 20 633 20.6 C 632.1 21.3 631.3 22.2 630.8 23.2 C 630.3 24.3 630 25.4 630 26.6 C 630 26.6 630 28.5 630 28.5 C 630 30.2 630.3 31.6 630.9 32.7 C 631.4 33.8 632.2 34.7 633.3 35.3 C 634.3 35.9 635.5 36.2 636.8 36.2 C 637.7 36.2 638.5 36.1 639.2 35.8 C 639.9 35.6 640.6 35.2 641.1 34.7 C 641.6 34.2 642 33.5 642.3 32.8 C 642.3 32.8 645.5 33.7 645.5 33.7 C 645.2 34.8 644.6 35.8 643.8 36.6 C 643 37.4 642 38.1 640.8 38.5 C 639.6 39 638.3 39.2 636.8 39.2 Z M 663.9 38.8 L 660.2 38.8 L 670.9 9.7 L 674.5 9.7 L 685.2 38.8 L 681.5 38.8 L 672.8 14.3 L 672.6 14.3 L 663.9 38.8 Z M 665.2 27.4 L 680.1 27.4 L 680.1 30.5 L 665.2 30.5 L 665.2 27.4 Z M 692.9 9.7 L 692.9 38.8 L 689.4 38.8 L 689.4 9.7 L 692.9 9.7 Z M 714.1 25.6 C 714.12 25.63 714.1 38.8 714.1 38.8 L 710.8 38.8 L 710.8 16.9 L 714 16.9 L 714 20.3 C 714 20.3 714.29 20.34 714.3 20.3 C 714.8 19.2 715.6 18.3 716.6 17.7 C 717.7 17 719 16.6 720.7 16.6 C 722.1 16.6 723.4 16.9 724.5 17.5 C 725.6 18.2 726.5 19.1 727.1 20.3 C 727.7 21.5 728 23 728 24.9 C 728.04 24.89 728 38.8 728 38.8 L 724.7 38.8 C 724.7 38.8 724.69 25.11 724.7 25.1 C 724.7 23.4 724.2 22.1 723.4 21.1 C 722.5 20.1 721.2 19.7 719.7 19.7 C 718.6 19.7 717.7 19.9 716.8 20.4 C 716 20.8 715.3 21.5 714.8 22.4 C 714.4 23.3 714.1 24.4 714.1 25.6 Z M 742.6 39.2 C 740.6 39.2 738.9 38.7 737.4 37.8 C 736 36.9 734.8 35.5 734 33.9 C 733.1 32.2 732.7 30.2 732.7 28 C 732.7 25.7 733.1 23.7 734 22 C 734.8 20.3 736 19 737.4 18.1 C 738.9 17.1 740.6 16.6 742.6 16.6 C 744.6 16.6 746.3 17.1 747.8 18.1 C 749.3 19 750.4 20.3 751.3 22 C 752.1 23.7 752.5 25.7 752.5 28 C 752.5 30.2 752.1 32.2 751.3 33.9 C 750.4 35.5 749.3 36.9 747.8 37.8 C 746.3 38.7 744.6 39.2 742.6 39.2 Z M 742.6 36.2 C 744.1 36.2 745.3 35.8 746.3 35 C 747.3 34.3 748 33.3 748.5 32 C 748.9 30.8 749.2 29.4 749.2 28 C 749.2 26.5 748.9 25.1 748.5 23.9 C 748 22.6 747.3 21.6 746.3 20.8 C 745.3 20 744.1 19.7 742.6 19.7 C 741.1 19.7 739.9 20 738.9 20.8 C 738 21.6 737.2 22.6 736.8 23.9 C 736.3 25.1 736.1 26.5 736.1 28 C 736.1 29.4 736.3 30.8 736.8 32 C 737.2 33.3 738 34.3 738.9 35 C 739.9 35.8 741.1 36.2 742.6 36.2 Z M 757.2 38.8 L 757.2 16.9 L 760.5 16.9 L 760.5 38.8 L 757.2 38.8 Z M 758.9 13.3 C 758.2 13.3 757.6 13.1 757.2 12.6 C 756.7 12.2 756.5 11.6 756.5 11 C 756.5 10.4 756.7 9.9 757.2 9.4 C 757.6 9 758.2 8.8 758.9 8.8 C 759.5 8.8 760.1 9 760.5 9.4 C 761 9.9 761.2 10.4 761.2 11 C 761.2 11.6 761 12.2 760.5 12.6 C 760.1 13.1 759.5 13.3 758.9 13.3 Z M 781.5 21.8 C 781.5 21.8 778.5 22.7 778.5 22.7 C 778.3 22.2 778 21.7 777.7 21.2 C 777.3 20.7 776.8 20.3 776.2 20 C 775.6 19.7 774.8 19.5 773.8 19.5 C 772.5 19.5 771.4 19.9 770.5 20.5 C 769.6 21.1 769.1 21.8 769.1 22.8 C 769.1 23.6 769.4 24.3 770 24.8 C 770.7 25.2 771.6 25.6 772.9 26 C 772.9 26 776.1 26.8 776.1 26.8 C 778.1 27.2 779.5 28 780.5 28.9 C 781.4 29.9 781.9 31.1 781.9 32.7 C 781.9 33.9 781.6 35 780.9 36 C 780.1 37 779.1 37.8 777.9 38.4 C 776.6 38.9 775.1 39.2 773.4 39.2 C 771.2 39.2 769.3 38.7 767.9 37.8 C 766.4 36.8 765.5 35.4 765.1 33.5 C 765.1 33.5 768.3 32.7 768.3 32.7 C 768.6 33.9 769.2 34.8 770 35.4 C 770.9 36 772 36.3 773.3 36.3 C 774.9 36.3 776.1 35.9 777.1 35.2 C 778 34.6 778.5 33.8 778.5 32.8 C 778.5 32.1 778.2 31.4 777.7 30.9 C 777.1 30.4 776.3 30 775.2 29.8 C 775.2 29.8 771.6 28.9 771.6 28.9 C 769.6 28.4 768.1 27.7 767.2 26.7 C 766.3 25.7 765.8 24.5 765.8 23 C 765.8 21.7 766.1 20.6 766.8 19.7 C 767.5 18.7 768.5 18 769.7 17.5 C 770.9 16.9 772.3 16.6 773.8 16.6 C 776 16.6 777.7 17.1 778.9 18.1 C 780.1 19 781 20.3 781.5 21.8 Z M 795.6 39.2 C 793.5 39.2 791.7 38.7 790.2 37.8 C 788.6 36.9 787.5 35.6 786.7 33.9 C 785.8 32.2 785.4 30.2 785.4 28 C 785.4 25.8 785.8 23.8 786.7 22.1 C 787.5 20.4 788.6 19.1 790.1 18.1 C 791.6 17.1 793.3 16.6 795.3 16.6 C 796.4 16.6 797.5 16.8 798.6 17.2 C 799.7 17.6 800.7 18.2 801.7 19.1 C 802.6 19.9 803.3 21 803.8 22.4 C 804.4 23.8 804.6 25.5 804.6 27.6 C 804.64 27.56 804.6 29 804.6 29 L 787.8 29 L 787.8 26.1 C 787.8 26.1 801.23 26.08 801.2 26.1 C 801.2 24.8 801 23.8 800.5 22.8 C 800 21.8 799.3 21.1 798.4 20.5 C 797.5 19.9 796.5 19.7 795.3 19.7 C 793.9 19.7 792.8 20 791.8 20.6 C 790.8 21.3 790.1 22.2 789.6 23.2 C 789 24.3 788.8 25.4 788.8 26.6 C 788.8 26.6 788.8 28.5 788.8 28.5 C 788.8 30.2 789.1 31.6 789.6 32.7 C 790.2 33.8 791 34.7 792 35.3 C 793.1 35.9 794.2 36.2 795.6 36.2 C 796.5 36.2 797.3 36.1 798 35.8 C 798.7 35.6 799.3 35.2 799.9 34.7 C 800.4 34.2 800.8 33.5 801.1 32.8 C 801.1 32.8 804.3 33.7 804.3 33.7 C 804 34.8 803.4 35.8 802.6 36.6 C 801.8 37.4 800.8 38.1 799.6 38.5 C 798.4 39 797.1 39.2 795.6 39.2 Z M 827.4 39.3 C 826 39.3 824.8 39 823.7 38.5 C 822.5 37.9 821.6 37.2 821 36.2 C 820.3 35.2 820 34 820 32.6 C 820 31.3 820.2 30.3 820.7 29.5 C 821.2 28.7 821.9 28.1 822.7 27.7 C 823.5 27.2 824.4 26.9 825.4 26.7 C 826.4 26.4 827.4 26.3 828.4 26.1 C 829.8 26 830.8 25.8 831.7 25.7 C 832.5 25.7 833.1 25.5 833.5 25.3 C 833.9 25.1 834.1 24.7 834.1 24.1 C 834.1 24.1 834.1 24 834.1 24 C 834.1 22.6 833.7 21.5 832.9 20.8 C 832.2 20 831 19.6 829.5 19.6 C 827.9 19.6 826.6 20 825.7 20.7 C 824.8 21.4 824.2 22.1 823.8 22.9 C 823.8 22.9 820.6 21.8 820.6 21.8 C 821.2 20.4 821.9 19.4 822.9 18.7 C 823.8 17.9 824.9 17.4 826 17.1 C 827.1 16.8 828.3 16.6 829.4 16.6 C 830.1 16.6 830.9 16.7 831.8 16.9 C 832.7 17.1 833.6 17.4 834.4 17.9 C 835.3 18.4 836 19.2 836.6 20.2 C 837.1 21.3 837.4 22.6 837.4 24.4 C 837.42 24.38 837.4 38.8 837.4 38.8 L 834.1 38.8 L 834.1 35.8 C 834.1 35.8 833.9 35.8 833.9 35.8 C 833.7 36.3 833.3 36.8 832.8 37.3 C 832.2 37.9 831.5 38.3 830.6 38.7 C 829.8 39.1 828.7 39.3 827.4 39.3 Z M 827.9 36.3 C 829.3 36.3 830.4 36 831.3 35.5 C 832.2 34.9 832.9 34.3 833.4 33.5 C 833.8 32.6 834.1 31.8 834.1 30.9 C 834.1 30.9 834.1 27.8 834.1 27.8 C 833.9 28 833.6 28.1 833.1 28.2 C 832.7 28.4 832.1 28.5 831.5 28.6 C 830.9 28.7 830.3 28.8 829.7 28.9 C 829.1 28.9 828.6 29 828.3 29 C 827.4 29.1 826.6 29.3 825.8 29.6 C 825.1 29.8 824.5 30.2 824 30.7 C 823.6 31.2 823.3 31.9 823.3 32.7 C 823.3 33.9 823.8 34.8 824.6 35.4 C 825.5 36 826.6 36.3 827.9 36.3 Z M 846.5 25.6 C 846.53 25.63 846.5 38.8 846.5 38.8 L 843.2 38.8 L 843.2 16.9 L 846.4 16.9 L 846.4 20.3 C 846.4 20.3 846.7 20.34 846.7 20.3 C 847.2 19.2 848 18.3 849 17.7 C 850.1 17 851.4 16.6 853.1 16.6 C 854.5 16.6 855.8 16.9 856.9 17.5 C 858.1 18.2 858.9 19.1 859.5 20.3 C 860.1 21.5 860.5 23 860.5 24.9 C 860.45 24.89 860.5 38.8 860.5 38.8 L 857.1 38.8 C 857.1 38.8 857.1 25.11 857.1 25.1 C 857.1 23.4 856.7 22.1 855.8 21.1 C 854.9 20.1 853.7 19.7 852.1 19.7 C 851 19.7 850.1 19.9 849.2 20.4 C 848.4 20.8 847.7 21.5 847.3 22.4 C 846.8 23.3 846.5 24.4 846.5 25.6 Z M 874.4 39.2 C 872.6 39.2 871 38.7 869.6 37.8 C 868.2 36.9 867.1 35.6 866.3 33.9 C 865.5 32.2 865.1 30.2 865.1 27.9 C 865.1 25.6 865.5 23.6 866.3 21.9 C 867.1 20.2 868.2 18.9 869.6 18 C 871 17.1 872.6 16.6 874.5 16.6 C 875.9 16.6 877 16.9 877.8 17.4 C 878.7 17.8 879.3 18.4 879.7 18.9 C 880.2 19.5 880.5 20 880.8 20.4 C 880.77 20.4 881.1 20.4 881.1 20.4 L 881.1 9.7 L 884.4 9.7 L 884.4 38.8 L 881.2 38.8 L 881.2 35.4 C 881.2 35.4 880.77 35.4 880.8 35.4 C 880.5 35.8 880.2 36.3 879.7 36.9 C 879.3 37.5 878.6 38 877.8 38.5 C 876.9 39 875.8 39.2 874.4 39.2 Z M 874.9 36.2 C 876.2 36.2 877.3 35.8 878.3 35.1 C 879.2 34.4 879.9 33.4 880.4 32.2 C 880.9 30.9 881.1 29.5 881.1 27.8 C 881.1 26.2 880.9 24.8 880.4 23.6 C 879.9 22.3 879.2 21.4 878.3 20.7 C 877.4 20 876.2 19.7 874.9 19.7 C 873.4 19.7 872.3 20 871.3 20.7 C 870.4 21.5 869.7 22.5 869.2 23.7 C 868.7 24.9 868.5 26.3 868.5 27.8 C 868.5 29.4 868.7 30.8 869.2 32.1 C 869.7 33.3 870.4 34.3 871.3 35.1 C 872.3 35.8 873.5 36.2 874.9 36.2 Z M 912 16.9 L 912 19.8 L 900.2 19.8 L 900.2 16.9 L 912 16.9 Z M 903.7 38.8 C 903.7 38.8 903.72 13.92 903.7 13.9 C 903.7 12.7 904 11.6 904.6 10.8 C 905.2 10 906 9.3 906.9 8.9 C 907.8 8.5 908.8 8.3 909.9 8.3 C 910.7 8.3 911.4 8.4 911.9 8.5 C 912.4 8.6 912.8 8.8 913 8.9 C 913 8.9 912.1 11.8 912.1 11.8 C 911.9 11.7 911.7 11.6 911.4 11.5 C 911.1 11.5 910.7 11.4 910.2 11.4 C 909.1 11.4 908.3 11.7 907.8 12.3 C 907.3 12.8 907.1 13.6 907.1 14.7 C 907.07 14.72 907.1 38.8 907.1 38.8 L 903.7 38.8 Z M 916.7 38.8 L 916.7 16.9 L 920.1 16.9 L 920.1 38.8 L 916.7 38.8 Z M 918.4 13.3 C 917.8 13.3 917.2 13.1 916.7 12.6 C 916.3 12.2 916 11.6 916 11 C 916 10.4 916.3 9.9 916.7 9.4 C 917.2 9 917.8 8.8 918.4 8.8 C 919.1 8.8 919.6 9 920.1 9.4 C 920.6 9.9 920.8 10.4 920.8 11 C 920.8 11.6 920.6 12.2 920.1 12.6 C 919.6 13.1 919.1 13.3 918.4 13.3 Z M 929.2 25.6 C 929.22 25.63 929.2 38.8 929.2 38.8 L 925.9 38.8 L 925.9 16.9 L 929.1 16.9 L 929.1 20.3 C 929.1 20.3 929.39 20.34 929.4 20.3 C 929.9 19.2 930.7 18.3 931.7 17.7 C 932.8 17 934.1 16.6 935.8 16.6 C 937.2 16.6 938.5 16.9 939.6 17.5 C 940.7 18.2 941.6 19.1 942.2 20.3 C 942.8 21.5 943.1 23 943.1 24.9 C 943.14 24.89 943.1 38.8 943.1 38.8 L 939.8 38.8 C 939.8 38.8 939.79 25.11 939.8 25.1 C 939.8 23.4 939.3 22.1 938.5 21.1 C 937.6 20.1 936.3 19.7 934.8 19.7 C 933.7 19.7 932.8 19.9 931.9 20.4 C 931.1 20.8 930.4 21.5 929.9 22.4 C 929.5 23.3 929.2 24.4 929.2 25.6 Z M 957.1 39.2 C 955.3 39.2 953.7 38.7 952.3 37.8 C 950.9 36.9 949.8 35.6 949 33.9 C 948.2 32.2 947.8 30.2 947.8 27.9 C 947.8 25.6 948.2 23.6 949 21.9 C 949.8 20.2 950.9 18.9 952.3 18 C 953.7 17.1 955.3 16.6 957.1 16.6 C 958.6 16.6 959.7 16.9 960.5 17.4 C 961.3 17.8 962 18.4 962.4 18.9 C 962.9 19.5 963.2 20 963.5 20.4 C 963.45 20.4 963.7 20.4 963.7 20.4 L 963.7 9.7 L 967.1 9.7 L 967.1 38.8 L 963.9 38.8 L 963.9 35.4 C 963.9 35.4 963.45 35.4 963.5 35.4 C 963.2 35.8 962.9 36.3 962.4 36.9 C 961.9 37.5 961.3 38 960.5 38.5 C 959.6 39 958.5 39.2 957.1 39.2 Z M 957.5 36.2 C 958.9 36.2 960 35.8 961 35.1 C 961.9 34.4 962.6 33.4 963.1 32.2 C 963.6 30.9 963.8 29.5 963.8 27.8 C 963.8 26.2 963.6 24.8 963.1 23.6 C 962.6 22.3 961.9 21.4 961 20.7 C 960.1 20 958.9 19.7 957.5 19.7 C 956.1 19.7 954.9 20 954 20.7 C 953.1 21.5 952.4 22.5 951.9 23.7 C 951.4 24.9 951.2 26.3 951.2 27.8 C 951.2 29.4 951.4 30.8 951.9 32.1 C 952.4 33.3 953.1 34.3 954 35.1 C 955 35.8 956.1 36.2 957.5 36.2 Z M 987.1 46.9 C 986.5 46.9 986 46.9 985.6 46.8 C 985.1 46.7 984.8 46.6 984.6 46.5 C 984.6 46.5 985.5 43.6 985.5 43.6 C 986.3 43.8 987 43.9 987.7 43.8 C 988.3 43.8 988.8 43.5 989.3 43 C 989.8 42.5 990.3 41.7 990.7 40.6 C 990.67 40.57 991.3 38.9 991.3 38.9 L 983.2 16.9 L 986.9 16.9 L 992.9 34.3 L 993.1 34.3 L 999.1 16.9 L 1002.8 16.9 C 1002.8 16.9 993.51 41.93 993.5 41.9 C 993.1 43.1 992.6 44 992 44.7 C 991.3 45.5 990.6 46 989.8 46.4 C 989 46.8 988.1 46.9 987.1 46.9 Z M 1014.6 39.2 C 1012.6 39.2 1010.9 38.7 1009.4 37.8 C 1007.9 36.9 1006.8 35.5 1006 33.9 C 1005.1 32.2 1004.7 30.2 1004.7 28 C 1004.7 25.7 1005.1 23.7 1006 22 C 1006.8 20.3 1007.9 19 1009.4 18.1 C 1010.9 17.1 1012.6 16.6 1014.6 16.6 C 1016.6 16.6 1018.3 17.1 1019.8 18.1 C 1021.3 19 1022.4 20.3 1023.2 22 C 1024.1 23.7 1024.5 25.7 1024.5 28 C 1024.5 30.2 1024.1 32.2 1023.2 33.9 C 1022.4 35.5 1021.3 36.9 1019.8 37.8 C 1018.3 38.7 1016.6 39.2 1014.6 39.2 Z M 1014.6 36.2 C 1016.1 36.2 1017.3 35.8 1018.3 35 C 1019.3 34.3 1020 33.3 1020.4 32 C 1020.9 30.8 1021.1 29.4 1021.1 28 C 1021.1 26.5 1020.9 25.1 1020.4 23.9 C 1020 22.6 1019.3 21.6 1018.3 20.8 C 1017.3 20 1016.1 19.7 1014.6 19.7 C 1013.1 19.7 1011.9 20 1010.9 20.8 C 1009.9 21.6 1009.2 22.6 1008.8 23.9 C 1008.3 25.1 1008.1 26.5 1008.1 28 C 1008.1 29.4 1008.3 30.8 1008.8 32 C 1009.2 33.3 1009.9 34.3 1010.9 35 C 1011.9 35.8 1013.1 36.2 1014.6 36.2 Z M 1042.9 29.8 C 1042.86 29.83 1042.9 16.9 1042.9 16.9 L 1046.2 16.9 L 1046.2 38.8 L 1042.9 38.8 L 1042.9 35.1 C 1042.9 35.1 1042.63 35.06 1042.6 35.1 C 1042.1 36.2 1041.3 37.1 1040.2 37.9 C 1039.2 38.6 1037.8 39 1036.2 39 C 1034.8 39 1033.6 38.7 1032.5 38.1 C 1031.5 37.5 1030.6 36.6 1030 35.4 C 1029.4 34.2 1029.1 32.7 1029.1 30.8 C 1029.11 30.8 1029.1 16.9 1029.1 16.9 L 1032.5 16.9 C 1032.5 16.9 1032.46 30.57 1032.5 30.6 C 1032.5 32.2 1032.9 33.4 1033.8 34.4 C 1034.7 35.3 1035.8 35.8 1037.2 35.8 C 1038.1 35.8 1038.9 35.6 1039.8 35.2 C 1040.7 34.7 1041.4 34.1 1042 33.2 C 1042.6 32.3 1042.9 31.2 1042.9 29.8 Z M 1052 38.8 L 1052 16.9 L 1055.2 16.9 L 1055.2 20.2 C 1055.2 20.2 1055.47 20.23 1055.5 20.2 C 1055.9 19.1 1056.6 18.3 1057.6 17.6 C 1058.7 16.9 1059.8 16.6 1061.2 16.6 C 1061.4 16.6 1061.7 16.6 1062.1 16.6 C 1062.4 16.6 1062.7 16.6 1062.9 16.6 C 1062.9 16.6 1062.9 20.1 1062.9 20.1 C 1062.8 20 1062.5 20 1062.1 19.9 C 1061.7 19.9 1061.3 19.8 1060.9 19.8 C 1059.8 19.8 1058.9 20 1058 20.5 C 1057.2 20.9 1056.6 21.5 1056.1 22.3 C 1055.6 23.1 1055.4 24 1055.4 24.9 C 1055.36 24.94 1055.4 38.8 1055.4 38.8 L 1052 38.8 Z " stroke="none" fill="#ffffff"/>  </g></svg>