<?xml version="1.0" standalone="no"?><!DOCTYPE svg PUBLIC "-//W3C//DTD SVG 1.1//EN" "http://www.w3.org/Graphics/SVG/1.1/DTD/svg11.dtd"><svg xmlns="http://www.w3.org/2000/svg" version="1.1" width="1408px" height="230.3px" viewBox="0 -11 1408 230.3" style="top:-11px">  <desc>Everyone’s promising it will change the way you do business forever.</desc>  <defs/>  <g id="Polygon107699">    <path d="M 128.7 129.9 L 128.7 135.5 L 106.1 135.5 L 106.1 129.9 L 128.7 129.9 Z M 112.7 119.4 L 119.4 119.4 C 119.4 119.4 119.39 161 119.4 161 C 119.4 162.9 119.7 164.3 120.2 165.2 C 120.8 166.2 121.5 166.8 122.4 167.1 C 123.3 167.4 124.2 167.6 125.2 167.6 C 125.9 167.6 126.5 167.5 127 167.5 C 127.5 167.4 127.9 167.3 128.1 167.3 C 128.1 167.3 129.5 173.3 129.5 173.3 C 129 173.4 128.4 173.6 127.6 173.8 C 126.8 174 125.7 174.1 124.5 174.1 C 122.6 174.1 120.8 173.7 118.9 172.8 C 117.1 172 115.6 170.8 114.5 169.1 C 113.3 167.5 112.7 165.4 112.7 162.8 C 112.68 162.82 112.7 119.4 112.7 119.4 Z M 143.3 147.3 C 143.28 147.25 143.3 173.5 143.3 173.5 L 136.6 173.5 L 136.6 115.3 L 143.3 115.3 L 143.3 136.7 C 143.3 136.7 143.85 136.68 143.9 136.7 C 144.9 134.4 146.4 132.6 148.5 131.3 C 150.5 130 153.3 129.3 156.7 129.3 C 159.7 129.3 162.3 129.9 164.5 131.1 C 166.7 132.3 168.5 134.1 169.7 136.5 C 171 138.9 171.6 142 171.6 145.8 C 171.58 145.77 171.6 173.5 171.6 173.5 L 164.9 173.5 C 164.9 173.5 164.87 146.23 164.9 146.2 C 164.9 142.8 164 140.1 162.2 138.2 C 160.4 136.3 157.9 135.3 154.8 135.3 C 152.6 135.3 150.6 135.8 148.9 136.7 C 147.1 137.6 145.8 139 144.8 140.8 C 143.8 142.6 143.3 144.7 143.3 147.3 Z M 200.5 174.4 C 196.3 174.4 192.6 173.5 189.6 171.6 C 186.6 169.7 184.2 167.1 182.6 163.8 C 180.9 160.4 180.1 156.5 180.1 152 C 180.1 147.6 180.9 143.6 182.6 140.2 C 184.2 136.8 186.5 134.1 189.5 132.2 C 192.4 130.3 195.8 129.3 199.8 129.3 C 202.1 129.3 204.3 129.7 206.5 130.4 C 208.7 131.2 210.7 132.4 212.6 134.1 C 214.4 135.8 215.8 138 216.9 140.8 C 218 143.6 218.5 147 218.5 151.1 C 218.53 151.11 218.5 154 218.5 154 L 184.9 154 L 184.9 148.2 C 184.9 148.2 211.71 148.16 211.7 148.2 C 211.7 145.7 211.2 143.5 210.3 141.6 C 209.3 139.6 207.9 138.1 206.1 137 C 204.3 135.9 202.2 135.3 199.8 135.3 C 197.1 135.3 194.8 136 192.9 137.3 C 190.9 138.6 189.4 140.3 188.4 142.4 C 187.3 144.5 186.8 146.8 186.8 149.2 C 186.8 149.2 186.8 153 186.8 153 C 186.8 156.3 187.4 159.1 188.5 161.4 C 189.7 163.7 191.3 165.4 193.3 166.6 C 195.4 167.8 197.8 168.4 200.5 168.4 C 202.2 168.4 203.8 168.1 205.3 167.6 C 206.7 167.1 207.9 166.4 209 165.4 C 210 164.3 210.8 163.1 211.4 161.6 C 211.4 161.6 217.9 163.4 217.9 163.4 C 217.2 165.6 216 167.5 214.4 169.2 C 212.8 170.8 210.8 172.1 208.4 173 C 206.1 173.9 203.4 174.4 200.5 174.4 Z M 261.1 173.5 L 247.9 129.9 L 254.9 129.9 L 264.3 163.3 L 264.8 163.3 L 274.1 129.9 L 281.3 129.9 L 290.5 163.2 L 290.9 163.2 L 300.4 129.9 L 307.4 129.9 L 294.1 173.5 L 287.5 173.5 L 278 140 L 277.3 140 L 267.7 173.5 L 261.1 173.5 Z M 326.2 174.5 C 323.4 174.5 320.9 174 318.6 172.9 C 316.4 171.9 314.6 170.4 313.3 168.4 C 311.9 166.4 311.3 164 311.3 161.1 C 311.3 158.6 311.8 156.6 312.8 155 C 313.7 153.5 315.1 152.2 316.7 151.3 C 318.4 150.5 320.2 149.8 322.2 149.3 C 324.2 148.9 326.2 148.5 328.2 148.3 C 330.9 147.9 333 147.7 334.7 147.5 C 336.3 147.3 337.5 147 338.3 146.6 C 339.1 146.1 339.5 145.4 339.5 144.3 C 339.5 144.3 339.5 144.1 339.5 144.1 C 339.5 141.3 338.7 139.1 337.2 137.5 C 335.6 136 333.3 135.2 330.3 135.2 C 327.1 135.2 324.5 135.9 322.7 137.3 C 320.9 138.7 319.6 140.2 318.9 141.8 C 318.9 141.8 312.5 139.5 312.5 139.5 C 313.7 136.9 315.2 134.8 317.1 133.3 C 319 131.8 321.1 130.8 323.3 130.2 C 325.6 129.6 327.8 129.3 330 129.3 C 331.4 129.3 333 129.5 334.9 129.8 C 336.7 130.1 338.5 130.8 340.2 131.8 C 341.9 132.8 343.3 134.4 344.5 136.5 C 345.6 138.5 346.2 141.3 346.2 144.8 C 346.16 144.75 346.2 173.5 346.2 173.5 L 339.5 173.5 L 339.5 167.6 C 339.5 167.6 339.12 167.59 339.1 167.6 C 338.7 168.5 337.9 169.6 336.8 170.6 C 335.8 171.7 334.4 172.6 332.6 173.4 C 330.9 174.1 328.7 174.5 326.2 174.5 Z M 327.2 168.5 C 329.8 168.5 332.1 168 333.9 166.9 C 335.7 165.9 337.1 164.6 338.1 162.9 C 339 161.3 339.5 159.5 339.5 157.7 C 339.5 157.7 339.5 151.6 339.5 151.6 C 339.2 151.9 338.6 152.2 337.6 152.5 C 336.6 152.8 335.5 153 334.3 153.2 C 333.1 153.4 331.9 153.6 330.7 153.7 C 329.5 153.9 328.6 154 327.9 154.1 C 326.1 154.3 324.5 154.7 323 155.2 C 321.5 155.7 320.3 156.4 319.4 157.4 C 318.4 158.4 318 159.8 318 161.5 C 318 163.8 318.8 165.5 320.6 166.7 C 322.3 167.9 324.5 168.5 327.2 168.5 Z M 358.9 189.9 C 357.8 189.9 356.8 189.8 355.9 189.6 C 355 189.4 354.4 189.2 354 189.1 C 354 189.1 355.7 183.2 355.7 183.2 C 357.4 183.6 358.8 183.7 360.1 183.6 C 361.3 183.5 362.4 182.9 363.4 182 C 364.4 181 365.3 179.4 366.1 177.1 C 366.07 177.14 367.3 173.7 367.3 173.7 L 351.2 129.9 L 358.5 129.9 L 370.5 164.6 L 371 164.6 L 383 129.9 L 390.3 129.9 C 390.3 129.9 371.76 179.86 371.8 179.9 C 370.9 182.1 369.9 184 368.7 185.5 C 367.4 187 366 188.1 364.4 188.8 C 362.8 189.5 360.9 189.9 358.9 189.9 Z M 426 189.9 C 424.8 189.9 423.8 189.8 422.9 189.6 C 422 189.4 421.4 189.2 421.1 189.1 C 421.1 189.1 422.8 183.2 422.8 183.2 C 424.4 183.6 425.8 183.7 427.1 183.6 C 428.3 183.5 429.5 182.9 430.4 182 C 431.4 181 432.3 179.4 433.1 177.1 C 433.12 177.14 434.4 173.7 434.4 173.7 L 418.2 129.9 L 425.5 129.9 L 437.6 164.6 L 438 164.6 L 450.1 129.9 L 457.3 129.9 C 457.3 129.9 438.8 179.86 438.8 179.9 C 438 182.1 436.9 184 435.7 185.5 C 434.5 187 433 188.1 431.4 188.8 C 429.8 189.5 428 189.9 426 189.9 Z M 480 174.4 C 476.1 174.4 472.6 173.5 469.7 171.6 C 466.7 169.7 464.4 167.1 462.7 163.7 C 461.1 160.4 460.3 156.4 460.3 151.9 C 460.3 147.4 461.1 143.4 462.7 140 C 464.4 136.6 466.7 134 469.7 132.1 C 472.6 130.2 476.1 129.3 480 129.3 C 484 129.3 487.4 130.2 490.4 132.1 C 493.4 134 495.7 136.6 497.3 140 C 499 143.4 499.8 147.4 499.8 151.9 C 499.8 156.4 499 160.4 497.3 163.7 C 495.7 167.1 493.4 169.7 490.4 171.6 C 487.4 173.5 484 174.4 480 174.4 Z M 480 168.4 C 483 168.4 485.5 167.6 487.4 166.1 C 489.4 164.6 490.8 162.5 491.7 160 C 492.6 157.5 493.1 154.8 493.1 151.9 C 493.1 149 492.6 146.3 491.7 143.8 C 490.8 141.2 489.4 139.2 487.4 137.6 C 485.5 136.1 483 135.3 480 135.3 C 477 135.3 474.6 136.1 472.6 137.6 C 470.7 139.2 469.3 141.2 468.4 143.8 C 467.4 146.3 467 149 467 151.9 C 467 154.8 467.4 157.5 468.4 160 C 469.3 162.5 470.7 164.6 472.6 166.1 C 474.6 167.6 477 168.4 480 168.4 Z M 535.7 155.7 C 535.72 155.66 535.7 129.9 535.7 129.9 L 542.4 129.9 L 542.4 173.5 L 535.7 173.5 L 535.7 166.1 C 535.7 166.1 535.26 166.11 535.3 166.1 C 534.2 168.3 532.6 170.2 530.5 171.8 C 528.3 173.3 525.6 174.1 522.3 174.1 C 519.6 174.1 517.2 173.5 515 172.3 C 512.9 171.1 511.2 169.2 510 166.8 C 508.8 164.4 508.2 161.3 508.2 157.6 C 508.22 157.59 508.2 129.9 508.2 129.9 L 514.9 129.9 C 514.9 129.9 514.92 157.14 514.9 157.1 C 514.9 160.3 515.8 162.9 517.6 164.8 C 519.4 166.6 521.7 167.6 524.5 167.6 C 526.1 167.6 527.8 167.2 529.6 166.3 C 531.3 165.5 532.8 164.2 533.9 162.4 C 535.1 160.6 535.7 158.4 535.7 155.7 Z M 593.7 174.4 C 590 174.4 586.8 173.5 584 171.6 C 581.3 169.8 579.1 167.2 577.5 163.8 C 575.9 160.4 575.1 156.4 575.1 151.8 C 575.1 147.2 575.9 143.2 577.5 139.9 C 579.1 136.5 581.3 133.9 584.1 132.1 C 586.9 130.2 590.1 129.3 593.8 129.3 C 596.6 129.3 598.9 129.8 600.5 130.7 C 602.2 131.6 603.5 132.7 604.3 133.9 C 605.2 135.1 605.9 136 606.4 136.8 C 606.4 136.8 607 136.8 607 136.8 L 607 115.3 L 613.7 115.3 L 613.7 173.5 L 607.2 173.5 L 607.2 166.8 C 607.2 166.8 606.4 166.8 606.4 166.8 C 605.9 167.6 605.2 168.6 604.3 169.8 C 603.4 171 602.1 172.1 600.4 173 C 598.7 173.9 596.5 174.4 593.7 174.4 Z M 594.6 168.4 C 597.3 168.4 599.5 167.7 601.4 166.3 C 603.3 164.9 604.7 162.9 605.6 160.4 C 606.6 157.9 607.1 155 607.1 151.7 C 607.1 148.4 606.6 145.6 605.7 143.1 C 604.7 140.7 603.3 138.8 601.5 137.4 C 599.6 136 597.3 135.3 594.6 135.3 C 591.7 135.3 589.4 136 587.5 137.5 C 585.6 138.9 584.2 140.9 583.3 143.4 C 582.3 145.8 581.9 148.6 581.9 151.7 C 581.9 154.8 582.3 157.6 583.3 160.1 C 584.2 162.7 585.7 164.7 587.5 166.2 C 589.4 167.6 591.8 168.4 594.6 168.4 Z M 642.5 174.4 C 638.6 174.4 635.1 173.5 632.2 171.6 C 629.2 169.7 626.9 167.1 625.2 163.7 C 623.6 160.4 622.8 156.4 622.8 151.9 C 622.8 147.4 623.6 143.4 625.2 140 C 626.9 136.6 629.2 134 632.2 132.1 C 635.1 130.2 638.6 129.3 642.5 129.3 C 646.5 129.3 649.9 130.2 652.9 132.1 C 655.8 134 658.2 136.6 659.8 140 C 661.5 143.4 662.3 147.4 662.3 151.9 C 662.3 156.4 661.5 160.4 659.8 163.7 C 658.2 167.1 655.8 169.7 652.9 171.6 C 649.9 173.5 646.5 174.4 642.5 174.4 Z M 642.5 168.4 C 645.5 168.4 648 167.6 649.9 166.1 C 651.8 164.6 653.3 162.5 654.2 160 C 655.1 157.5 655.6 154.8 655.6 151.9 C 655.6 149 655.1 146.3 654.2 143.8 C 653.3 141.2 651.8 139.2 649.9 137.6 C 648 136.1 645.5 135.3 642.5 135.3 C 639.5 135.3 637.1 136.1 635.1 137.6 C 633.2 139.2 631.8 141.2 630.8 143.8 C 629.9 146.3 629.5 149 629.5 151.9 C 629.5 154.8 629.9 157.5 630.8 160 C 631.8 162.5 633.2 164.6 635.1 166.1 C 637.1 167.6 639.5 168.4 642.5 168.4 Z M 695.9 173.5 L 695.9 115.3 L 702.6 115.3 L 702.6 136.8 C 702.6 136.8 703.21 136.8 703.2 136.8 C 703.7 136 704.4 135.1 705.3 133.9 C 706.1 132.7 707.4 131.6 709.1 130.7 C 710.7 129.8 713 129.3 715.8 129.3 C 719.5 129.3 722.7 130.2 725.5 132.1 C 728.3 133.9 730.5 136.5 732.1 139.9 C 733.7 143.2 734.5 147.2 734.5 151.8 C 734.5 156.4 733.7 160.4 732.1 163.8 C 730.5 167.2 728.3 169.8 725.6 171.6 C 722.8 173.5 719.6 174.4 715.9 174.4 C 713.1 174.4 710.9 173.9 709.2 173 C 707.5 172.1 706.2 171 705.3 169.8 C 704.4 168.6 703.7 167.6 703.2 166.8 C 703.21 166.8 702.4 166.8 702.4 166.8 L 702.4 173.5 L 695.9 173.5 Z M 702.5 151.7 C 702.5 155 703 157.9 704 160.4 C 704.9 162.9 706.3 164.9 708.2 166.3 C 710.1 167.7 712.3 168.4 715 168.4 C 717.8 168.4 720.2 167.6 722.1 166.2 C 723.9 164.7 725.4 162.7 726.3 160.1 C 727.3 157.6 727.8 154.8 727.8 151.7 C 727.8 148.6 727.3 145.8 726.3 143.4 C 725.4 140.9 724 138.9 722.1 137.5 C 720.2 136 717.9 135.3 715 135.3 C 712.3 135.3 710 136 708.1 137.4 C 706.3 138.8 704.9 140.7 703.9 143.1 C 703 145.6 702.5 148.4 702.5 151.7 Z M 770.5 155.7 C 770.51 155.66 770.5 129.9 770.5 129.9 L 777.2 129.9 L 777.2 173.5 L 770.5 173.5 L 770.5 166.1 C 770.5 166.1 770.06 166.11 770.1 166.1 C 769 168.3 767.4 170.2 765.3 171.8 C 763.1 173.3 760.4 174.1 757.1 174.1 C 754.4 174.1 751.9 173.5 749.8 172.3 C 747.7 171.1 746 169.2 744.8 166.8 C 743.6 164.4 743 161.3 743 157.6 C 743.01 157.59 743 129.9 743 129.9 L 749.7 129.9 C 749.7 129.9 749.71 157.14 749.7 157.1 C 749.7 160.3 750.6 162.9 752.4 164.8 C 754.2 166.6 756.5 167.6 759.3 167.6 C 760.9 167.6 762.6 167.2 764.4 166.3 C 766.1 165.5 767.6 164.2 768.7 162.4 C 769.9 160.6 770.5 158.4 770.5 155.7 Z M 818.3 139.6 C 818.3 139.6 812.3 141.3 812.3 141.3 C 811.9 140.3 811.4 139.4 810.7 138.4 C 809.9 137.4 808.9 136.7 807.7 136 C 806.4 135.4 804.8 135.1 802.9 135.1 C 800.2 135.1 798 135.7 796.2 136.9 C 794.5 138.1 793.6 139.7 793.6 141.6 C 793.6 143.2 794.2 144.6 795.4 145.5 C 796.6 146.5 798.5 147.3 801.1 147.9 C 801.1 147.9 807.6 149.5 807.6 149.5 C 811.5 150.5 814.4 151.9 816.3 153.9 C 818.2 155.8 819.1 158.3 819.1 161.3 C 819.1 163.8 818.4 166.1 817 168 C 815.6 170 813.6 171.6 811 172.7 C 808.5 173.8 805.5 174.4 802.1 174.4 C 797.6 174.4 794 173.4 791 171.5 C 788.1 169.6 786.3 166.8 785.5 163 C 785.5 163 791.9 161.5 791.9 161.5 C 792.5 163.8 793.6 165.6 795.3 166.7 C 797 167.9 799.2 168.5 802 168.5 C 805.1 168.5 807.6 167.8 809.4 166.5 C 811.3 165.2 812.2 163.6 812.2 161.7 C 812.2 160.2 811.7 158.9 810.6 157.9 C 809.6 156.8 807.9 156.1 805.7 155.5 C 805.7 155.5 798.5 153.8 798.5 153.8 C 794.5 152.9 791.5 151.4 789.7 149.4 C 787.8 147.4 786.9 144.9 786.9 141.9 C 786.9 139.4 787.6 137.3 789 135.4 C 790.4 133.5 792.3 132 794.7 130.9 C 797.1 129.8 799.8 129.3 802.9 129.3 C 807.2 129.3 810.6 130.2 813.1 132.1 C 815.5 134 817.3 136.5 818.3 139.6 Z M 827.4 173.5 L 827.4 129.9 L 834.1 129.9 L 834.1 173.5 L 827.4 173.5 Z M 830.8 122.6 C 829.5 122.6 828.3 122.1 827.4 121.3 C 826.5 120.4 826 119.3 826 118 C 826 116.8 826.5 115.7 827.4 114.8 C 828.3 113.9 829.5 113.5 830.8 113.5 C 832.1 113.5 833.2 113.9 834.1 114.8 C 835.1 115.7 835.5 116.8 835.5 118 C 835.5 119.3 835.1 120.4 834.1 121.3 C 833.2 122.1 832.1 122.6 830.8 122.6 Z M 851.6 147.3 C 851.56 147.25 851.6 173.5 851.6 173.5 L 844.9 173.5 L 844.9 129.9 L 851.3 129.9 L 851.3 136.7 C 851.3 136.7 851.9 136.68 851.9 136.7 C 852.9 134.5 854.5 132.7 856.6 131.3 C 858.6 130 861.3 129.3 864.6 129.3 C 867.6 129.3 870.2 129.9 872.4 131.1 C 874.6 132.3 876.3 134.1 877.6 136.6 C 878.8 139 879.4 142.1 879.4 145.8 C 879.4 145.77 879.4 173.5 879.4 173.5 L 872.7 173.5 C 872.7 173.5 872.7 146.23 872.7 146.2 C 872.7 142.8 871.8 140.1 870 138.2 C 868.2 136.3 865.8 135.3 862.7 135.3 C 860.6 135.3 858.7 135.8 857 136.7 C 855.3 137.6 854 139 853 140.8 C 852 142.6 851.6 144.7 851.6 147.3 Z M 908.3 174.4 C 904.1 174.4 900.4 173.5 897.4 171.6 C 894.4 169.7 892 167.1 890.4 163.8 C 888.8 160.4 887.9 156.5 887.9 152 C 887.9 147.6 888.8 143.6 890.4 140.2 C 892 136.8 894.3 134.1 897.3 132.2 C 900.2 130.3 903.7 129.3 907.6 129.3 C 909.9 129.3 912.1 129.7 914.3 130.4 C 916.5 131.2 918.6 132.4 920.4 134.1 C 922.2 135.8 923.6 138 924.7 140.8 C 925.8 143.6 926.3 147 926.3 151.1 C 926.34 151.11 926.3 154 926.3 154 L 892.7 154 L 892.7 148.2 C 892.7 148.2 919.52 148.16 919.5 148.2 C 919.5 145.7 919 143.5 918.1 141.6 C 917.1 139.6 915.7 138.1 913.9 137 C 912.1 135.9 910 135.3 907.6 135.3 C 904.9 135.3 902.6 136 900.7 137.3 C 898.7 138.6 897.2 140.3 896.2 142.4 C 895.2 144.5 894.6 146.8 894.6 149.2 C 894.6 149.2 894.6 153 894.6 153 C 894.6 156.3 895.2 159.1 896.4 161.4 C 897.5 163.7 899.1 165.4 901.1 166.6 C 903.2 167.8 905.6 168.4 908.3 168.4 C 910 168.4 911.6 168.1 913.1 167.6 C 914.5 167.1 915.7 166.4 916.8 165.4 C 917.8 164.3 918.6 163.1 919.2 161.6 C 919.2 161.6 925.7 163.4 925.7 163.4 C 925 165.6 923.8 167.5 922.2 169.2 C 920.6 170.8 918.6 172.1 916.3 173 C 913.9 173.9 911.2 174.4 908.3 174.4 Z M 965.4 139.6 C 965.4 139.6 959.4 141.3 959.4 141.3 C 959 140.3 958.5 139.4 957.7 138.4 C 957 137.4 956 136.7 954.8 136 C 953.5 135.4 951.9 135.1 950 135.1 C 947.3 135.1 945.1 135.7 943.3 136.9 C 941.5 138.1 940.7 139.7 940.7 141.6 C 940.7 143.2 941.3 144.6 942.5 145.5 C 943.7 146.5 945.6 147.3 948.2 147.9 C 948.2 147.9 954.6 149.5 954.6 149.5 C 958.5 150.5 961.4 151.9 963.4 153.9 C 965.3 155.8 966.2 158.3 966.2 161.3 C 966.2 163.8 965.5 166.1 964.1 168 C 962.7 170 960.7 171.6 958.1 172.7 C 955.5 173.8 952.6 174.4 949.2 174.4 C 944.7 174.4 941 173.4 938.1 171.5 C 935.2 169.6 933.4 166.8 932.6 163 C 932.6 163 939 161.5 939 161.5 C 939.6 163.8 940.7 165.6 942.4 166.7 C 944.1 167.9 946.3 168.5 949.1 168.5 C 952.2 168.5 954.7 167.8 956.5 166.5 C 958.4 165.2 959.3 163.6 959.3 161.7 C 959.3 160.2 958.8 158.9 957.7 157.9 C 956.6 156.8 955 156.1 952.8 155.5 C 952.8 155.5 945.5 153.8 945.5 153.8 C 941.5 152.9 938.6 151.4 936.8 149.4 C 934.9 147.4 934 144.9 934 141.9 C 934 139.4 934.6 137.3 936 135.4 C 937.4 133.5 939.3 132 941.8 130.9 C 944.2 129.8 946.9 129.3 950 129.3 C 954.3 129.3 957.7 130.2 960.2 132.1 C 962.6 134 964.4 136.5 965.4 139.6 Z M 1005.6 139.6 C 1005.6 139.6 999.6 141.3 999.6 141.3 C 999.2 140.3 998.7 139.4 997.9 138.4 C 997.2 137.4 996.2 136.7 995 136 C 993.7 135.4 992.1 135.1 990.2 135.1 C 987.5 135.1 985.3 135.7 983.5 136.9 C 981.7 138.1 980.9 139.7 980.9 141.6 C 980.9 143.2 981.5 144.6 982.7 145.5 C 983.9 146.5 985.8 147.3 988.4 147.9 C 988.4 147.9 994.8 149.5 994.8 149.5 C 998.7 150.5 1001.6 151.9 1003.6 153.9 C 1005.5 155.8 1006.4 158.3 1006.4 161.3 C 1006.4 163.8 1005.7 166.1 1004.3 168 C 1002.8 170 1000.9 171.6 998.3 172.7 C 995.7 173.8 992.8 174.4 989.4 174.4 C 984.9 174.4 981.2 173.4 978.3 171.5 C 975.4 169.6 973.6 166.8 972.8 163 C 972.8 163 979.1 161.5 979.1 161.5 C 979.8 163.8 980.9 165.6 982.6 166.7 C 984.3 167.9 986.5 168.5 989.3 168.5 C 992.4 168.5 994.9 167.8 996.7 166.5 C 998.6 165.2 999.5 163.6 999.5 161.7 C 999.5 160.2 999 158.9 997.9 157.9 C 996.8 156.8 995.2 156.1 993 155.5 C 993 155.5 985.7 153.8 985.7 153.8 C 981.7 152.9 978.8 151.4 976.9 149.4 C 975.1 147.4 974.1 144.9 974.1 141.9 C 974.1 139.4 974.8 137.3 976.2 135.4 C 977.6 133.5 979.5 132 981.9 130.9 C 984.4 129.8 987.1 129.3 990.2 129.3 C 994.5 129.3 997.9 130.2 1000.4 132.1 C 1002.8 134 1004.6 136.5 1005.6 139.6 Z M 1058.5 129.9 L 1058.5 135.5 L 1034.9 135.5 L 1034.9 129.9 L 1058.5 129.9 Z M 1042 173.5 C 1042 173.5 1041.99 123.84 1042 123.8 C 1042 121.3 1042.6 119.3 1043.7 117.6 C 1044.9 115.9 1046.4 114.7 1048.3 113.8 C 1050.2 113 1052.2 112.6 1054.3 112.6 C 1055.9 112.6 1057.3 112.7 1058.3 113 C 1059.3 113.3 1060.1 113.5 1060.6 113.7 C 1060.6 113.7 1058.7 119.5 1058.7 119.5 C 1058.4 119.4 1057.9 119.3 1057.3 119.1 C 1056.7 118.9 1055.9 118.8 1054.9 118.8 C 1052.7 118.8 1051.1 119.4 1050.2 120.5 C 1049.2 121.6 1048.7 123.3 1048.7 125.4 C 1048.69 125.43 1048.7 173.5 1048.7 173.5 L 1042 173.5 Z M 1082 174.4 C 1078 174.4 1074.6 173.5 1071.6 171.6 C 1068.7 169.7 1066.3 167.1 1064.7 163.7 C 1063 160.4 1062.2 156.4 1062.2 151.9 C 1062.2 147.4 1063 143.4 1064.7 140 C 1066.3 136.6 1068.7 134 1071.6 132.1 C 1074.6 130.2 1078 129.3 1082 129.3 C 1085.9 129.3 1089.4 130.2 1092.3 132.1 C 1095.3 134 1097.6 136.6 1099.3 140 C 1100.9 143.4 1101.7 147.4 1101.7 151.9 C 1101.7 156.4 1100.9 160.4 1099.3 163.7 C 1097.6 167.1 1095.3 169.7 1092.3 171.6 C 1089.4 173.5 1085.9 174.4 1082 174.4 Z M 1082 168.4 C 1085 168.4 1087.4 167.6 1089.4 166.1 C 1091.3 164.6 1092.7 162.5 1093.7 160 C 1094.6 157.5 1095 154.8 1095 151.9 C 1095 149 1094.6 146.3 1093.7 143.8 C 1092.7 141.2 1091.3 139.2 1089.4 137.6 C 1087.4 136.1 1085 135.3 1082 135.3 C 1079 135.3 1076.5 136.1 1074.6 137.6 C 1072.7 139.2 1071.2 141.2 1070.3 143.8 C 1069.4 146.3 1068.9 149 1068.9 151.9 C 1068.9 154.8 1069.4 157.5 1070.3 160 C 1071.2 162.5 1072.7 164.6 1074.6 166.1 C 1076.5 167.6 1079 168.4 1082 168.4 Z M 1110.5 173.5 L 1110.5 129.9 L 1116.9 129.9 L 1116.9 136.5 C 1116.9 136.5 1117.39 136.45 1117.4 136.5 C 1118.2 134.3 1119.6 132.5 1121.7 131.2 C 1123.8 129.9 1126.1 129.2 1128.8 129.2 C 1129.2 129.2 1129.9 129.2 1130.6 129.2 C 1131.3 129.2 1131.9 129.3 1132.3 129.3 C 1132.3 129.3 1132.3 136.1 1132.3 136.1 C 1132 136.1 1131.5 136 1130.7 135.8 C 1129.9 135.7 1129.1 135.7 1128.2 135.7 C 1126.1 135.7 1124.2 136.1 1122.5 137 C 1120.9 137.9 1119.6 139.1 1118.6 140.6 C 1117.6 142.2 1117.2 143.9 1117.2 145.9 C 1117.16 145.89 1117.2 173.5 1117.2 173.5 L 1110.5 173.5 Z M 1156 174.4 C 1151.8 174.4 1148.2 173.5 1145.1 171.6 C 1142.1 169.7 1139.7 167.1 1138.1 163.8 C 1136.5 160.4 1135.7 156.5 1135.7 152 C 1135.7 147.6 1136.5 143.6 1138.1 140.2 C 1139.7 136.8 1142 134.1 1145 132.2 C 1147.9 130.3 1151.4 129.3 1155.3 129.3 C 1157.6 129.3 1159.8 129.7 1162 130.4 C 1164.3 131.2 1166.3 132.4 1168.1 134.1 C 1169.9 135.8 1171.4 138 1172.4 140.8 C 1173.5 143.6 1174.1 147 1174.1 151.1 C 1174.06 151.11 1174.1 154 1174.1 154 L 1140.4 154 L 1140.4 148.2 C 1140.4 148.2 1167.24 148.16 1167.2 148.2 C 1167.2 145.7 1166.8 143.5 1165.8 141.6 C 1164.8 139.6 1163.4 138.1 1161.6 137 C 1159.8 135.9 1157.7 135.3 1155.3 135.3 C 1152.6 135.3 1150.3 136 1148.4 137.3 C 1146.5 138.6 1145 140.3 1143.9 142.4 C 1142.9 144.5 1142.4 146.8 1142.4 149.2 C 1142.4 149.2 1142.4 153 1142.4 153 C 1142.4 156.3 1142.9 159.1 1144.1 161.4 C 1145.2 163.7 1146.8 165.4 1148.9 166.6 C 1150.9 167.8 1153.3 168.4 1156 168.4 C 1157.8 168.4 1159.4 168.1 1160.8 167.6 C 1162.2 167.1 1163.4 166.4 1164.5 165.4 C 1165.5 164.3 1166.3 163.1 1166.9 161.6 C 1166.9 161.6 1173.4 163.4 1173.4 163.4 C 1172.7 165.6 1171.6 167.5 1169.9 169.2 C 1168.3 170.8 1166.3 172.1 1164 173 C 1161.6 173.9 1158.9 174.4 1156 174.4 Z M 1216.3 129.9 L 1200.2 173.5 L 1193.4 173.5 L 1177.2 129.9 L 1184.5 129.9 L 1196.6 164.6 L 1197 164.6 L 1209.1 129.9 L 1216.3 129.9 Z M 1239.6 174.4 C 1235.4 174.4 1231.8 173.5 1228.7 171.6 C 1225.7 169.7 1223.3 167.1 1221.7 163.8 C 1220.1 160.4 1219.2 156.5 1219.2 152 C 1219.2 147.6 1220.1 143.6 1221.7 140.2 C 1223.3 136.8 1225.6 134.1 1228.6 132.2 C 1231.5 130.3 1235 129.3 1238.9 129.3 C 1241.2 129.3 1243.4 129.7 1245.6 130.4 C 1247.8 131.2 1249.9 132.4 1251.7 134.1 C 1253.5 135.8 1254.9 138 1256 140.8 C 1257.1 143.6 1257.6 147 1257.6 151.1 C 1257.65 151.11 1257.6 154 1257.6 154 L 1224 154 L 1224 148.2 C 1224 148.2 1250.83 148.16 1250.8 148.2 C 1250.8 145.7 1250.3 143.5 1249.4 141.6 C 1248.4 139.6 1247 138.1 1245.2 137 C 1243.4 135.9 1241.3 135.3 1238.9 135.3 C 1236.2 135.3 1233.9 136 1232 137.3 C 1230 138.6 1228.5 140.3 1227.5 142.4 C 1226.5 144.5 1225.9 146.8 1225.9 149.2 C 1225.9 149.2 1225.9 153 1225.9 153 C 1225.9 156.3 1226.5 159.1 1227.7 161.4 C 1228.8 163.7 1230.4 165.4 1232.4 166.6 C 1234.5 167.8 1236.9 168.4 1239.6 168.4 C 1241.3 168.4 1242.9 168.1 1244.4 167.6 C 1245.8 167.1 1247 166.4 1248.1 165.4 C 1249.1 164.3 1249.9 163.1 1250.5 161.6 C 1250.5 161.6 1257 163.4 1257 163.4 C 1256.3 165.6 1255.1 167.5 1253.5 169.2 C 1251.9 170.8 1249.9 172.1 1247.6 173 C 1245.2 173.9 1242.5 174.4 1239.6 174.4 Z M 1266.4 173.5 L 1266.4 129.9 L 1272.8 129.9 L 1272.8 136.5 C 1272.8 136.5 1273.29 136.45 1273.3 136.5 C 1274.1 134.3 1275.5 132.5 1277.6 131.2 C 1279.7 129.9 1282 129.2 1284.7 129.2 C 1285.1 129.2 1285.8 129.2 1286.5 129.2 C 1287.2 129.2 1287.8 129.3 1288.2 129.3 C 1288.2 129.3 1288.2 136.1 1288.2 136.1 C 1288 136.1 1287.4 136 1286.6 135.8 C 1285.8 135.7 1285 135.7 1284.1 135.7 C 1282 135.7 1280.1 136.1 1278.4 137 C 1276.8 137.9 1275.5 139.1 1274.5 140.6 C 1273.5 142.2 1273.1 143.9 1273.1 145.9 C 1273.07 145.89 1273.1 173.5 1273.1 173.5 L 1266.4 173.5 Z M 1293.4 174 C 1292 174 1290.8 173.5 1289.8 172.4 C 1288.8 171.4 1288.3 170.2 1288.3 168.8 C 1288.3 167.4 1288.8 166.2 1289.8 165.2 C 1290.8 164.2 1292 163.7 1293.4 163.7 C 1294.8 163.7 1296 164.2 1297 165.2 C 1298 166.2 1298.5 167.4 1298.5 168.8 C 1298.5 169.8 1298.3 170.6 1297.8 171.4 C 1297.3 172.2 1296.7 172.8 1296 173.3 C 1295.2 173.7 1294.3 174 1293.4 174 Z " stroke="none" fill="#ffffff"/>  </g>  <g id="Polygon107698">    <path d="M 76.7 77.5 L 76.7 19.3 L 111.8 19.3 L 111.8 25.6 L 83.7 25.6 L 83.7 45.2 L 110 45.2 L 110 51.5 L 83.7 51.5 L 83.7 71.3 L 112.2 71.3 L 112.2 77.5 L 76.7 77.5 Z M 154.8 33.9 L 138.7 77.5 L 131.9 77.5 L 115.7 33.9 L 123 33.9 L 135 68.6 L 135.5 68.6 L 147.5 33.9 L 154.8 33.9 Z M 178 78.4 C 173.8 78.4 170.2 77.5 167.2 75.6 C 164.1 73.7 161.8 71.1 160.2 67.8 C 158.5 64.4 157.7 60.5 157.7 56 C 157.7 51.6 158.5 47.6 160.2 44.2 C 161.8 40.8 164.1 38.1 167 36.2 C 170 34.3 173.4 33.3 177.4 33.3 C 179.6 33.3 181.9 33.7 184.1 34.4 C 186.3 35.2 188.3 36.4 190.1 38.1 C 192 39.8 193.4 42 194.5 44.8 C 195.6 47.6 196.1 51 196.1 55.1 C 196.11 55.11 196.1 58 196.1 58 L 162.5 58 L 162.5 52.2 C 162.5 52.2 189.3 52.16 189.3 52.2 C 189.3 49.7 188.8 47.5 187.8 45.6 C 186.9 43.6 185.5 42.1 183.7 41 C 181.9 39.9 179.8 39.3 177.4 39.3 C 174.7 39.3 172.4 40 170.4 41.3 C 168.5 42.6 167 44.3 166 46.4 C 164.9 48.5 164.4 50.8 164.4 53.2 C 164.4 53.2 164.4 57 164.4 57 C 164.4 60.3 165 63.1 166.1 65.4 C 167.3 67.7 168.9 69.4 170.9 70.6 C 173 71.8 175.3 72.4 178 72.4 C 179.8 72.4 181.4 72.1 182.8 71.6 C 184.3 71.1 185.5 70.4 186.5 69.4 C 187.6 68.3 188.4 67.1 189 65.6 C 189 65.6 195.4 67.4 195.4 67.4 C 194.8 69.6 193.6 71.5 192 73.2 C 190.4 74.8 188.4 76.1 186 77 C 183.7 77.9 181 78.4 178 78.4 Z M 204.8 77.5 L 204.8 33.9 L 211.3 33.9 L 211.3 40.5 C 211.3 40.5 211.76 40.45 211.8 40.5 C 212.6 38.3 214 36.5 216.1 35.2 C 218.2 33.9 220.5 33.2 223.1 33.2 C 223.6 33.2 224.2 33.2 225 33.2 C 225.7 33.2 226.3 33.3 226.6 33.3 C 226.6 33.3 226.6 40.1 226.6 40.1 C 226.4 40.1 225.9 40 225.1 39.8 C 224.3 39.7 223.4 39.7 222.6 39.7 C 220.4 39.7 218.5 40.1 216.9 41 C 215.2 41.9 213.9 43.1 213 44.6 C 212 46.2 211.5 47.9 211.5 49.9 C 211.53 49.89 211.5 77.5 211.5 77.5 L 204.8 77.5 Z M 239.3 93.9 C 238.2 93.9 237.1 93.8 236.3 93.6 C 235.4 93.4 234.7 93.2 234.4 93.1 C 234.4 93.1 236.1 87.2 236.1 87.2 C 237.7 87.6 239.2 87.7 240.4 87.6 C 241.7 87.5 242.8 86.9 243.8 86 C 244.7 85 245.6 83.4 246.5 81.1 C 246.45 81.14 247.7 77.7 247.7 77.7 L 231.6 33.9 L 238.8 33.9 L 250.9 68.6 L 251.3 68.6 L 263.4 33.9 L 270.7 33.9 C 270.7 33.9 252.14 83.86 252.1 83.9 C 251.3 86.1 250.3 88 249 89.5 C 247.8 91 246.4 92.1 244.8 92.8 C 243.1 93.5 241.3 93.9 239.3 93.9 Z M 293.4 78.4 C 289.4 78.4 286 77.5 283 75.6 C 280 73.7 277.7 71.1 276.1 67.7 C 274.4 64.4 273.6 60.4 273.6 55.9 C 273.6 51.4 274.4 47.4 276.1 44 C 277.7 40.6 280 38 283 36.1 C 286 34.2 289.4 33.3 293.4 33.3 C 297.3 33.3 300.8 34.2 303.7 36.1 C 306.7 38 309 40.6 310.7 44 C 312.3 47.4 313.1 51.4 313.1 55.9 C 313.1 60.4 312.3 64.4 310.7 67.7 C 309 71.1 306.7 73.7 303.7 75.6 C 300.8 77.5 297.3 78.4 293.4 78.4 Z M 293.4 72.4 C 296.4 72.4 298.8 71.6 300.8 70.1 C 302.7 68.6 304.1 66.5 305 64 C 306 61.5 306.4 58.8 306.4 55.9 C 306.4 53 306 50.3 305 47.8 C 304.1 45.2 302.7 43.2 300.8 41.6 C 298.8 40.1 296.4 39.3 293.4 39.3 C 290.4 39.3 287.9 40.1 286 41.6 C 284.1 43.2 282.6 45.2 281.7 47.8 C 280.8 50.3 280.3 53 280.3 55.9 C 280.3 58.8 280.8 61.5 281.7 64 C 282.6 66.5 284.1 68.6 286 70.1 C 287.9 71.6 290.4 72.4 293.4 72.4 Z M 328.6 51.3 C 328.55 51.25 328.6 77.5 328.6 77.5 L 321.8 77.5 L 321.8 33.9 L 328.3 33.9 L 328.3 40.7 C 328.3 40.7 328.89 40.68 328.9 40.7 C 329.9 38.5 331.5 36.7 333.6 35.3 C 335.6 34 338.3 33.3 341.6 33.3 C 344.6 33.3 347.2 33.9 349.4 35.1 C 351.6 36.3 353.3 38.1 354.5 40.6 C 355.8 43 356.4 46.1 356.4 49.8 C 356.39 49.77 356.4 77.5 356.4 77.5 L 349.7 77.5 C 349.7 77.5 349.69 50.23 349.7 50.2 C 349.7 46.8 348.8 44.1 347 42.2 C 345.2 40.3 342.8 39.3 339.7 39.3 C 337.5 39.3 335.6 39.8 334 40.7 C 332.3 41.6 331 43 330 44.8 C 329 46.6 328.6 48.7 328.6 51.3 Z M 385.3 78.4 C 381.1 78.4 377.4 77.5 374.4 75.6 C 371.4 73.7 369 71.1 367.4 67.8 C 365.7 64.4 364.9 60.5 364.9 56 C 364.9 51.6 365.7 47.6 367.4 44.2 C 369 40.8 371.3 38.1 374.3 36.2 C 377.2 34.3 380.6 33.3 384.6 33.3 C 386.9 33.3 389.1 33.7 391.3 34.4 C 393.5 35.2 395.5 36.4 397.4 38.1 C 399.2 39.8 400.6 42 401.7 44.8 C 402.8 47.6 403.3 51 403.3 55.1 C 403.33 55.11 403.3 58 403.3 58 L 369.7 58 L 369.7 52.2 C 369.7 52.2 396.52 52.16 396.5 52.2 C 396.5 49.7 396 47.5 395.1 45.6 C 394.1 43.6 392.7 42.1 390.9 41 C 389.1 39.9 387 39.3 384.6 39.3 C 381.9 39.3 379.6 40 377.7 41.3 C 375.7 42.6 374.2 44.3 373.2 46.4 C 372.2 48.5 371.6 50.8 371.6 53.2 C 371.6 53.2 371.6 57 371.6 57 C 371.6 60.3 372.2 63.1 373.3 65.4 C 374.5 67.7 376.1 69.4 378.1 70.6 C 380.2 71.8 382.6 72.4 385.3 72.4 C 387 72.4 388.6 72.1 390.1 71.6 C 391.5 71.1 392.7 70.4 393.8 69.4 C 394.8 68.3 395.6 67.1 396.2 65.6 C 396.2 65.6 402.7 67.4 402.7 67.4 C 402 69.6 400.8 71.5 399.2 73.2 C 397.6 74.8 395.6 76.1 393.2 77 C 390.9 77.9 388.2 78.4 385.3 78.4 Z M 417.5 19.3 C 417.5 19.3 417.55 24.43 417.5 24.4 C 417.5 26 417.3 27.6 416.7 29.4 C 416.2 31.1 415.3 32.8 414.3 34.5 C 413.2 36.1 411.9 37.5 410.4 38.8 C 410.4 38.8 406.8 35.8 406.8 35.8 C 407.9 34.1 409 32.3 409.9 30.5 C 410.7 28.6 411.2 26.6 411.2 24.5 C 411.19 24.55 411.2 19.3 411.2 19.3 L 417.5 19.3 Z M 453.3 43.6 C 453.3 43.6 447.3 45.3 447.3 45.3 C 446.9 44.3 446.4 43.4 445.6 42.4 C 444.9 41.4 443.9 40.7 442.7 40 C 441.4 39.4 439.8 39.1 437.9 39.1 C 435.2 39.1 433 39.7 431.2 40.9 C 429.4 42.1 428.5 43.7 428.5 45.6 C 428.5 47.2 429.2 48.6 430.4 49.5 C 431.6 50.5 433.5 51.3 436 51.9 C 436 51.9 442.5 53.5 442.5 53.5 C 446.4 54.5 449.3 55.9 451.2 57.9 C 453.2 59.8 454.1 62.3 454.1 65.3 C 454.1 67.8 453.4 70.1 452 72 C 450.5 74 448.5 75.6 446 76.7 C 443.4 77.8 440.5 78.4 437.1 78.4 C 432.6 78.4 428.9 77.4 426 75.5 C 423.1 73.6 421.3 70.8 420.5 67 C 420.5 67 426.8 65.5 426.8 65.5 C 427.5 67.8 428.6 69.6 430.3 70.7 C 432 71.9 434.2 72.5 437 72.5 C 440.1 72.5 442.6 71.8 444.4 70.5 C 446.3 69.2 447.2 67.6 447.2 65.7 C 447.2 64.2 446.7 62.9 445.6 61.9 C 444.5 60.8 442.9 60.1 440.7 59.5 C 440.7 59.5 433.4 57.8 433.4 57.8 C 429.4 56.9 426.5 55.4 424.6 53.4 C 422.8 51.4 421.8 48.9 421.8 45.9 C 421.8 43.4 422.5 41.3 423.9 39.4 C 425.3 37.5 427.2 36 429.6 34.9 C 432.1 33.8 434.8 33.3 437.9 33.3 C 442.2 33.3 445.6 34.2 448.1 36.1 C 450.5 38 452.3 40.5 453.3 43.6 Z M 486.7 93.9 L 486.7 33.9 L 493.2 33.9 L 493.2 40.8 C 493.2 40.8 494 40.8 494 40.8 C 494.5 40 495.2 39.1 496.1 37.9 C 496.9 36.7 498.2 35.6 499.9 34.7 C 501.5 33.8 503.8 33.3 506.6 33.3 C 510.3 33.3 513.5 34.2 516.3 36.1 C 519.1 37.9 521.3 40.5 522.9 43.9 C 524.5 47.2 525.3 51.2 525.3 55.8 C 525.3 60.4 524.5 64.4 522.9 67.8 C 521.3 71.2 519.1 73.8 516.4 75.6 C 513.6 77.5 510.4 78.4 506.7 78.4 C 503.9 78.4 501.7 77.9 500 77 C 498.3 76.1 497 75 496.1 73.8 C 495.2 72.6 494.5 71.6 494 70.8 C 494 70.8 493.4 70.8 493.4 70.8 L 493.4 93.9 L 486.7 93.9 Z M 493.3 55.7 C 493.3 59 493.8 61.9 494.8 64.4 C 495.7 66.9 497.1 68.9 499 70.3 C 500.9 71.7 503.1 72.4 505.8 72.4 C 508.6 72.4 511 71.6 512.9 70.2 C 514.7 68.7 516.2 66.7 517.1 64.1 C 518.1 61.6 518.5 58.8 518.5 55.7 C 518.5 52.6 518.1 49.8 517.1 47.4 C 516.2 44.9 514.8 42.9 512.9 41.5 C 511 40 508.7 39.3 505.8 39.3 C 503.1 39.3 500.8 40 498.9 41.4 C 497.1 42.8 495.7 44.7 494.7 47.1 C 493.8 49.6 493.3 52.4 493.3 55.7 Z M 534 77.5 L 534 33.9 L 540.4 33.9 L 540.4 40.5 C 540.4 40.5 540.9 40.45 540.9 40.5 C 541.7 38.3 543.1 36.5 545.2 35.2 C 547.3 33.9 549.6 33.2 552.3 33.2 C 552.8 33.2 553.4 33.2 554.1 33.2 C 554.8 33.2 555.4 33.3 555.8 33.3 C 555.8 33.3 555.8 40.1 555.8 40.1 C 555.6 40.1 555 40 554.2 39.8 C 553.4 39.7 552.6 39.7 551.7 39.7 C 549.6 39.7 547.7 40.1 546 41 C 544.4 41.9 543.1 43.1 542.1 44.6 C 541.2 46.2 540.7 47.9 540.7 49.9 C 540.67 49.89 540.7 77.5 540.7 77.5 L 534 77.5 Z M 578.9 78.4 C 575 78.4 571.5 77.5 568.6 75.6 C 565.6 73.7 563.3 71.1 561.7 67.7 C 560 64.4 559.2 60.4 559.2 55.9 C 559.2 51.4 560 47.4 561.7 44 C 563.3 40.6 565.6 38 568.6 36.1 C 571.5 34.2 575 33.3 578.9 33.3 C 582.9 33.3 586.3 34.2 589.3 36.1 C 592.3 38 594.6 40.6 596.2 44 C 597.9 47.4 598.7 51.4 598.7 55.9 C 598.7 60.4 597.9 64.4 596.2 67.7 C 594.6 71.1 592.3 73.7 589.3 75.6 C 586.3 77.5 582.9 78.4 578.9 78.4 Z M 578.9 72.4 C 581.9 72.4 584.4 71.6 586.3 70.1 C 588.3 68.6 589.7 66.5 590.6 64 C 591.5 61.5 592 58.8 592 55.9 C 592 53 591.5 50.3 590.6 47.8 C 589.7 45.2 588.3 43.2 586.3 41.6 C 584.4 40.1 581.9 39.3 578.9 39.3 C 575.9 39.3 573.5 40.1 571.6 41.6 C 569.6 43.2 568.2 45.2 567.3 47.8 C 566.3 50.3 565.9 53 565.9 55.9 C 565.9 58.8 566.3 61.5 567.3 64 C 568.2 66.5 569.6 68.6 571.6 70.1 C 573.5 71.6 575.9 72.4 578.9 72.4 Z M 607.4 77.5 L 607.4 33.9 L 613.9 33.9 L 613.9 40.7 C 613.9 40.7 614.46 40.68 614.5 40.7 C 615.4 38.4 616.8 36.5 618.9 35.2 C 620.9 33.9 623.3 33.3 626.2 33.3 C 629 33.3 631.4 33.9 633.4 35.2 C 635.3 36.5 636.8 38.4 637.9 40.7 C 637.9 40.7 638.3 40.7 638.3 40.7 C 639.4 38.4 641.1 36.6 643.4 35.3 C 645.6 34 648.3 33.3 651.4 33.3 C 655.3 33.3 658.5 34.5 661 36.9 C 663.5 39.4 664.7 43.2 664.7 48.3 C 664.69 48.3 664.7 77.5 664.7 77.5 L 658 77.5 C 658 77.5 657.99 48.3 658 48.3 C 658 45.1 657.1 42.8 655.3 41.4 C 653.6 40 651.5 39.3 649.1 39.3 C 646.1 39.3 643.7 40.2 642 42.1 C 640.3 43.9 639.5 46.3 639.5 49.1 C 639.46 49.09 639.5 77.5 639.5 77.5 L 632.6 77.5 C 632.6 77.5 632.65 47.61 632.6 47.6 C 632.6 45.1 631.8 43.1 630.2 41.6 C 628.6 40.1 626.5 39.3 624 39.3 C 622.3 39.3 620.6 39.8 619.1 40.7 C 617.6 41.6 616.4 42.9 615.5 44.6 C 614.6 46.2 614.1 48.1 614.1 50.2 C 614.12 50.23 614.1 77.5 614.1 77.5 L 607.4 77.5 Z M 675.2 77.5 L 675.2 33.9 L 681.9 33.9 L 681.9 77.5 L 675.2 77.5 Z M 678.6 26.6 C 677.3 26.6 676.2 26.1 675.2 25.3 C 674.3 24.4 673.8 23.3 673.8 22 C 673.8 20.8 674.3 19.7 675.2 18.8 C 676.2 17.9 677.3 17.5 678.6 17.5 C 679.9 17.5 681 17.9 682 18.8 C 682.9 19.7 683.4 20.8 683.4 22 C 683.4 23.3 682.9 24.4 682 25.3 C 681 26.1 679.9 26.6 678.6 26.6 Z M 723.1 43.6 C 723.1 43.6 717 45.3 717 45.3 C 716.7 44.3 716.1 43.4 715.4 42.4 C 714.7 41.4 713.7 40.7 712.4 40 C 711.2 39.4 709.6 39.1 707.6 39.1 C 704.9 39.1 702.7 39.7 700.9 40.9 C 699.2 42.1 698.3 43.7 698.3 45.6 C 698.3 47.2 698.9 48.6 700.1 49.5 C 701.3 50.5 703.2 51.3 705.8 51.9 C 705.8 51.9 712.3 53.5 712.3 53.5 C 716.2 54.5 719.1 55.9 721 57.9 C 722.9 59.8 723.9 62.3 723.9 65.3 C 723.9 67.8 723.1 70.1 721.7 72 C 720.3 74 718.3 75.6 715.7 76.7 C 713.2 77.8 710.2 78.4 706.8 78.4 C 702.4 78.4 698.7 77.4 695.8 75.5 C 692.8 73.6 691 70.8 690.2 67 C 690.2 67 696.6 65.5 696.6 65.5 C 697.2 67.8 698.3 69.6 700 70.7 C 701.7 71.9 704 72.5 706.7 72.5 C 709.8 72.5 712.3 71.8 714.2 70.5 C 716 69.2 716.9 67.6 716.9 65.7 C 716.9 64.2 716.4 62.9 715.3 61.9 C 714.3 60.8 712.6 60.1 710.5 59.5 C 710.5 59.5 703.2 57.8 703.2 57.8 C 699.2 56.9 696.3 55.4 694.4 53.4 C 692.5 51.4 691.6 48.9 691.6 45.9 C 691.6 43.4 692.3 41.3 693.7 39.4 C 695.1 37.5 697 36 699.4 34.9 C 701.8 33.8 704.5 33.3 707.6 33.3 C 711.9 33.3 715.3 34.2 717.8 36.1 C 720.3 38 722 40.5 723.1 43.6 Z M 732.1 77.5 L 732.1 33.9 L 738.8 33.9 L 738.8 77.5 L 732.1 77.5 Z M 735.5 26.6 C 734.2 26.6 733.1 26.1 732.1 25.3 C 731.2 24.4 730.7 23.3 730.7 22 C 730.7 20.8 731.2 19.7 732.1 18.8 C 733.1 17.9 734.2 17.5 735.5 17.5 C 736.8 17.5 737.9 17.9 738.9 18.8 C 739.8 19.7 740.3 20.8 740.3 22 C 740.3 23.3 739.8 24.4 738.9 25.3 C 737.9 26.1 736.8 26.6 735.5 26.6 Z M 756.3 51.3 C 756.28 51.25 756.3 77.5 756.3 77.5 L 749.6 77.5 L 749.6 33.9 L 756.1 33.9 L 756.1 40.7 C 756.1 40.7 756.62 40.68 756.6 40.7 C 757.6 38.5 759.2 36.7 761.3 35.3 C 763.4 34 766.1 33.3 769.3 33.3 C 772.3 33.3 774.9 33.9 777.1 35.1 C 779.3 36.3 781 38.1 782.3 40.6 C 783.5 43 784.1 46.1 784.1 49.8 C 784.12 49.77 784.1 77.5 784.1 77.5 L 777.4 77.5 C 777.4 77.5 777.42 50.23 777.4 50.2 C 777.4 46.8 776.5 44.1 774.7 42.2 C 773 40.3 770.5 39.3 767.4 39.3 C 765.3 39.3 763.4 39.8 761.7 40.7 C 760 41.6 758.7 43 757.7 44.8 C 756.8 46.6 756.3 48.7 756.3 51.3 Z M 812.2 94.8 C 808.9 94.8 806.1 94.4 803.8 93.5 C 801.5 92.7 799.5 91.6 798 90.3 C 796.5 89 795.2 87.5 794.3 86 C 794.3 86 799.7 82.3 799.7 82.3 C 800.3 83.1 801 84 802 85 C 802.9 86 804.2 86.9 805.8 87.7 C 807.4 88.5 809.5 88.9 812.2 88.9 C 815.7 88.9 818.6 88 820.9 86.3 C 823.2 84.6 824.3 81.9 824.3 78.3 C 824.32 78.3 824.3 69.4 824.3 69.4 C 824.3 69.4 823.75 69.43 823.7 69.4 C 823.3 70.2 822.6 71.2 821.7 72.4 C 820.8 73.5 819.5 74.6 817.8 75.5 C 816.1 76.4 813.9 76.8 811 76.8 C 807.5 76.8 804.3 76 801.5 74.3 C 798.8 72.7 796.5 70.2 794.9 67 C 793.3 63.9 792.5 60 792.5 55.5 C 792.5 51 793.3 47.1 794.9 43.8 C 796.4 40.4 798.6 37.9 801.4 36 C 804.2 34.2 807.5 33.3 811.1 33.3 C 814 33.3 816.2 33.8 817.9 34.7 C 819.6 35.6 820.9 36.7 821.8 37.9 C 822.7 39.1 823.4 40 823.9 40.8 C 823.86 40.8 824.5 40.8 824.5 40.8 L 824.5 33.9 L 831 33.9 C 831 33.9 831.02 78.75 831 78.8 C 831 82.5 830.2 85.6 828.5 87.9 C 826.8 90.3 824.5 92 821.7 93.1 C 818.8 94.2 815.6 94.8 812.2 94.8 Z M 811.9 70.8 C 814.6 70.8 816.9 70.2 818.7 68.9 C 820.6 67.7 822 65.9 823 63.6 C 823.9 61.3 824.4 58.6 824.4 55.3 C 824.4 52.2 824 49.4 823 47 C 822.1 44.6 820.7 42.7 818.8 41.4 C 817 40 814.7 39.3 811.9 39.3 C 809.1 39.3 806.7 40 804.8 41.5 C 803 42.9 801.5 44.8 800.6 47.3 C 799.7 49.7 799.2 52.4 799.2 55.3 C 799.2 58.4 799.7 61 800.6 63.4 C 801.6 65.7 803 67.5 804.9 68.8 C 806.8 70.1 809.1 70.8 811.9 70.8 Z M 865.8 77.5 L 865.8 33.9 L 872.5 33.9 L 872.5 77.5 L 865.8 77.5 Z M 869.2 26.6 C 867.9 26.6 866.8 26.1 865.8 25.3 C 864.9 24.4 864.4 23.3 864.4 22 C 864.4 20.8 864.9 19.7 865.8 18.8 C 866.8 17.9 867.9 17.5 869.2 17.5 C 870.5 17.5 871.6 17.9 872.6 18.8 C 873.5 19.7 874 20.8 874 22 C 874 23.3 873.5 24.4 872.6 25.3 C 871.6 26.1 870.5 26.6 869.2 26.6 Z M 901.9 33.9 L 901.9 39.5 L 879.3 39.5 L 879.3 33.9 L 901.9 33.9 Z M 885.9 23.4 L 892.6 23.4 C 892.6 23.4 892.56 65 892.6 65 C 892.6 66.9 892.8 68.3 893.4 69.2 C 894 70.2 894.7 70.8 895.6 71.1 C 896.4 71.4 897.4 71.6 898.4 71.6 C 899.1 71.6 899.7 71.5 900.2 71.5 C 900.6 71.4 901 71.3 901.3 71.3 C 901.3 71.3 902.7 77.3 902.7 77.3 C 902.2 77.4 901.6 77.6 900.8 77.8 C 900 78 898.9 78.1 897.7 78.1 C 895.8 78.1 893.9 77.7 892.1 76.8 C 890.3 76 888.8 74.8 887.6 73.1 C 886.4 71.5 885.9 69.4 885.9 66.8 C 885.85 66.82 885.9 23.4 885.9 23.4 Z M 944.4 77.5 L 931.1 33.9 L 938.1 33.9 L 947.6 67.3 L 948 67.3 L 957.3 33.9 L 964.5 33.9 L 973.7 67.2 L 974.1 67.2 L 983.6 33.9 L 990.6 33.9 L 977.3 77.5 L 970.7 77.5 L 961.2 44 L 960.5 44 L 951 77.5 L 944.4 77.5 Z M 997.5 77.5 L 997.5 33.9 L 1004.2 33.9 L 1004.2 77.5 L 997.5 77.5 Z M 1000.9 26.6 C 999.6 26.6 998.5 26.1 997.6 25.3 C 996.6 24.4 996.2 23.3 996.2 22 C 996.2 20.8 996.6 19.7 997.6 18.8 C 998.5 17.9 999.6 17.5 1000.9 17.5 C 1002.2 17.5 1003.4 17.9 1004.3 18.8 C 1005.2 19.7 1005.7 20.8 1005.7 22 C 1005.7 23.3 1005.2 24.4 1004.3 25.3 C 1003.4 26.1 1002.2 26.6 1000.9 26.6 Z M 1021.7 19.3 L 1021.7 77.5 L 1015 77.5 L 1015 19.3 L 1021.7 19.3 Z M 1039.1 19.3 L 1039.1 77.5 L 1032.4 77.5 L 1032.4 19.3 L 1039.1 19.3 Z M 1091.6 78.4 C 1087.5 78.4 1084 77.4 1081 75.5 C 1078.1 73.6 1075.8 70.9 1074.2 67.5 C 1072.6 64.1 1071.8 60.3 1071.8 55.9 C 1071.8 51.5 1072.7 47.6 1074.3 44.2 C 1075.9 40.8 1078.2 38.1 1081.2 36.2 C 1084.1 34.3 1087.6 33.3 1091.5 33.3 C 1094.6 33.3 1097.3 33.9 1099.8 35 C 1102.3 36.1 1104.3 37.7 1105.8 39.8 C 1107.4 41.8 1108.4 44.2 1108.8 46.9 C 1108.8 46.9 1102.1 46.9 1102.1 46.9 C 1101.6 44.9 1100.4 43.2 1098.7 41.6 C 1096.9 40.1 1094.6 39.3 1091.6 39.3 C 1089 39.3 1086.7 40 1084.8 41.3 C 1082.8 42.7 1081.3 44.6 1080.2 47.1 C 1079.1 49.5 1078.5 52.4 1078.5 55.7 C 1078.5 59.1 1079.1 62 1080.2 64.5 C 1081.2 67 1082.7 68.9 1084.7 70.3 C 1086.7 71.7 1089 72.4 1091.6 72.4 C 1093.4 72.4 1094.9 72.1 1096.4 71.5 C 1097.8 70.9 1099 70 1100 68.9 C 1101 67.7 1101.7 66.4 1102.1 64.8 C 1102.1 64.8 1108.8 64.8 1108.8 64.8 C 1108.4 67.3 1107.5 69.7 1106 71.7 C 1104.5 73.8 1102.5 75.4 1100.1 76.6 C 1097.7 77.8 1094.8 78.4 1091.6 78.4 Z M 1123.7 51.3 C 1123.67 51.25 1123.7 77.5 1123.7 77.5 L 1117 77.5 L 1117 19.3 L 1123.7 19.3 L 1123.7 40.7 C 1123.7 40.7 1124.24 40.68 1124.2 40.7 C 1125.3 38.4 1126.8 36.6 1128.9 35.3 C 1130.9 34 1133.6 33.3 1137.1 33.3 C 1140.1 33.3 1142.7 33.9 1144.9 35.1 C 1147.1 36.3 1148.9 38.1 1150.1 40.5 C 1151.3 42.9 1152 46 1152 49.8 C 1151.96 49.77 1152 77.5 1152 77.5 L 1145.3 77.5 C 1145.3 77.5 1145.26 50.23 1145.3 50.2 C 1145.3 46.8 1144.4 44.1 1142.6 42.2 C 1140.8 40.3 1138.3 39.3 1135.1 39.3 C 1132.9 39.3 1131 39.8 1129.3 40.7 C 1127.5 41.6 1126.2 43 1125.2 44.8 C 1124.2 46.6 1123.7 48.7 1123.7 51.3 Z M 1175.1 78.5 C 1172.3 78.5 1169.8 78 1167.5 76.9 C 1165.3 75.9 1163.5 74.4 1162.2 72.4 C 1160.9 70.4 1160.2 68 1160.2 65.1 C 1160.2 62.6 1160.7 60.6 1161.7 59 C 1162.7 57.5 1164 56.2 1165.6 55.3 C 1167.3 54.5 1169.1 53.8 1171.1 53.3 C 1173.1 52.9 1175.1 52.5 1177.1 52.3 C 1179.8 51.9 1181.9 51.7 1183.6 51.5 C 1185.2 51.3 1186.5 51 1187.2 50.6 C 1188 50.1 1188.4 49.4 1188.4 48.3 C 1188.4 48.3 1188.4 48.1 1188.4 48.1 C 1188.4 45.3 1187.6 43.1 1186.1 41.5 C 1184.6 40 1182.3 39.2 1179.2 39.2 C 1176 39.2 1173.5 39.9 1171.6 41.3 C 1169.8 42.7 1168.5 44.2 1167.8 45.8 C 1167.8 45.8 1161.4 43.5 1161.4 43.5 C 1162.6 40.9 1164.1 38.8 1166 37.3 C 1167.9 35.8 1170 34.8 1172.2 34.2 C 1174.5 33.6 1176.7 33.3 1178.9 33.3 C 1180.3 33.3 1182 33.5 1183.8 33.8 C 1185.6 34.1 1187.4 34.8 1189.1 35.8 C 1190.8 36.8 1192.2 38.4 1193.4 40.5 C 1194.5 42.5 1195.1 45.3 1195.1 48.8 C 1195.08 48.75 1195.1 77.5 1195.1 77.5 L 1188.4 77.5 L 1188.4 71.6 C 1188.4 71.6 1188.03 71.59 1188 71.6 C 1187.6 72.5 1186.8 73.6 1185.8 74.6 C 1184.7 75.7 1183.3 76.6 1181.5 77.4 C 1179.8 78.1 1177.6 78.5 1175.1 78.5 Z M 1176.1 72.5 C 1178.8 72.5 1181 72 1182.8 70.9 C 1184.6 69.9 1186 68.6 1187 66.9 C 1187.9 65.3 1188.4 63.5 1188.4 61.7 C 1188.4 61.7 1188.4 55.6 1188.4 55.6 C 1188.1 55.9 1187.5 56.2 1186.5 56.5 C 1185.6 56.8 1184.5 57 1183.2 57.2 C 1182 57.4 1180.8 57.6 1179.6 57.7 C 1178.4 57.9 1177.5 58 1176.8 58.1 C 1175 58.3 1173.4 58.7 1171.9 59.2 C 1170.4 59.7 1169.2 60.4 1168.3 61.4 C 1167.4 62.4 1166.9 63.8 1166.9 65.5 C 1166.9 67.8 1167.8 69.5 1169.5 70.7 C 1171.2 71.9 1173.4 72.5 1176.1 72.5 Z M 1212.5 51.3 C 1212.47 51.25 1212.5 77.5 1212.5 77.5 L 1205.8 77.5 L 1205.8 33.9 L 1212.2 33.9 L 1212.2 40.7 C 1212.2 40.7 1212.81 40.68 1212.8 40.7 C 1213.8 38.5 1215.4 36.7 1217.5 35.3 C 1219.6 34 1222.2 33.3 1225.5 33.3 C 1228.5 33.3 1231.1 33.9 1233.3 35.1 C 1235.5 36.3 1237.2 38.1 1238.5 40.6 C 1239.7 43 1240.3 46.1 1240.3 49.8 C 1240.31 49.77 1240.3 77.5 1240.3 77.5 L 1233.6 77.5 C 1233.6 77.5 1233.61 50.23 1233.6 50.2 C 1233.6 46.8 1232.7 44.1 1230.9 42.2 C 1229.2 40.3 1226.7 39.3 1223.6 39.3 C 1221.5 39.3 1219.6 39.8 1217.9 40.7 C 1216.2 41.6 1214.9 43 1213.9 44.8 C 1213 46.6 1212.5 48.7 1212.5 51.3 Z M 1268.3 94.8 C 1265.1 94.8 1262.3 94.4 1260 93.5 C 1257.7 92.7 1255.7 91.6 1254.2 90.3 C 1252.6 89 1251.4 87.5 1250.5 86 C 1250.5 86 1255.8 82.3 1255.8 82.3 C 1256.5 83.1 1257.2 84 1258.1 85 C 1259.1 86 1260.4 86.9 1262 87.7 C 1263.6 88.5 1265.7 88.9 1268.3 88.9 C 1271.9 88.9 1274.8 88 1277.1 86.3 C 1279.4 84.6 1280.5 81.9 1280.5 78.3 C 1280.51 78.3 1280.5 69.4 1280.5 69.4 C 1280.5 69.4 1279.94 69.43 1279.9 69.4 C 1279.4 70.2 1278.8 71.2 1277.9 72.4 C 1277 73.5 1275.7 74.6 1274 75.5 C 1272.3 76.4 1270.1 76.8 1267.2 76.8 C 1263.7 76.8 1260.5 76 1257.7 74.3 C 1254.9 72.7 1252.7 70.2 1251.1 67 C 1249.5 63.9 1248.7 60 1248.7 55.5 C 1248.7 51 1249.5 47.1 1251 43.8 C 1252.6 40.4 1254.8 37.9 1257.6 36 C 1260.4 34.2 1263.7 33.3 1267.3 33.3 C 1270.2 33.3 1272.4 33.8 1274.1 34.7 C 1275.8 35.6 1277.1 36.7 1278 37.9 C 1278.9 39.1 1279.6 40 1280.1 40.8 C 1280.05 40.8 1280.7 40.8 1280.7 40.8 L 1280.7 33.9 L 1287.2 33.9 C 1287.2 33.9 1287.21 78.75 1287.2 78.8 C 1287.2 82.5 1286.4 85.6 1284.7 87.9 C 1283 90.3 1280.7 92 1277.9 93.1 C 1275 94.2 1271.8 94.8 1268.3 94.8 Z M 1268.1 70.8 C 1270.8 70.8 1273.1 70.2 1274.9 68.9 C 1276.8 67.7 1278.2 65.9 1279.2 63.6 C 1280.1 61.3 1280.6 58.6 1280.6 55.3 C 1280.6 52.2 1280.1 49.4 1279.2 47 C 1278.3 44.6 1276.9 42.7 1275 41.4 C 1273.1 40 1270.8 39.3 1268.1 39.3 C 1265.3 39.3 1262.9 40 1261 41.5 C 1259.1 42.9 1257.7 44.8 1256.8 47.3 C 1255.9 49.7 1255.4 52.4 1255.4 55.3 C 1255.4 58.4 1255.9 61 1256.8 63.4 C 1257.8 65.7 1259.2 67.5 1261.1 68.8 C 1263 70.1 1265.3 70.8 1268.1 70.8 Z M 1316.2 78.4 C 1312 78.4 1308.4 77.5 1305.4 75.6 C 1302.3 73.7 1300 71.1 1298.3 67.8 C 1296.7 64.4 1295.9 60.5 1295.9 56 C 1295.9 51.6 1296.7 47.6 1298.3 44.2 C 1300 40.8 1302.3 38.1 1305.2 36.2 C 1308.2 34.3 1311.6 33.3 1315.5 33.3 C 1317.8 33.3 1320.1 33.7 1322.3 34.4 C 1324.5 35.2 1326.5 36.4 1328.3 38.1 C 1330.1 39.8 1331.6 42 1332.7 44.8 C 1333.7 47.6 1334.3 51 1334.3 55.1 C 1334.29 55.11 1334.3 58 1334.3 58 L 1300.7 58 L 1300.7 52.2 C 1300.7 52.2 1327.47 52.16 1327.5 52.2 C 1327.5 49.7 1327 47.5 1326 45.6 C 1325 43.6 1323.6 42.1 1321.9 41 C 1320.1 39.9 1318 39.3 1315.5 39.3 C 1312.9 39.3 1310.6 40 1308.6 41.3 C 1306.7 42.6 1305.2 44.3 1304.1 46.4 C 1303.1 48.5 1302.6 50.8 1302.6 53.2 C 1302.6 53.2 1302.6 57 1302.6 57 C 1302.6 60.3 1303.2 63.1 1304.3 65.4 C 1305.4 67.7 1307 69.4 1309.1 70.6 C 1311.1 71.8 1313.5 72.4 1316.2 72.4 C 1318 72.4 1319.6 72.1 1321 71.6 C 1322.4 71.1 1323.7 70.4 1324.7 69.4 C 1325.8 68.3 1326.6 67.1 1327.1 65.6 C 1327.1 65.6 1333.6 67.4 1333.6 67.4 C 1332.9 69.6 1331.8 71.5 1330.2 73.2 C 1328.6 74.8 1326.6 76.1 1324.2 77 C 1321.8 77.9 1319.2 78.4 1316.2 78.4 Z " stroke="none" fill="#ffffff"/>  </g></svg>