<?xml version="1.0" standalone="no"?><!DOCTYPE svg PUBLIC "-//W3C//DTD SVG 1.1//EN" "http://www.w3.org/Graphics/SVG/1.1/DTD/svg11.dtd"><svg xmlns="http://www.w3.org/2000/svg" version="1.1" width="413.5px" height="46.5px" viewBox="0 -11 413.5 46.5" style="top:-11px">  <desc>Difficult to use</desc>  <defs/>  <g id="Polygon105249">    <path d="M 46.4 19.6 C 46.44 19.64 40.4 19.6 40.4 19.6 L 40.4 0 C 40.4 0 46.71 0 46.7 0 C 48.6 0 50.2 0.4 51.6 1.2 C 53 2 54 3.1 54.7 4.5 C 55.4 6 55.8 7.7 55.8 9.8 C 55.8 11.8 55.4 13.6 54.7 15.1 C 54 16.5 52.9 17.7 51.5 18.5 C 50.1 19.2 48.4 19.6 46.4 19.6 Z M 42.8 17.5 C 42.8 17.5 46.28 17.53 46.3 17.5 C 47.9 17.5 49.3 17.2 50.3 16.6 C 51.4 16 52.2 15.1 52.7 13.9 C 53.2 12.8 53.5 11.4 53.5 9.8 C 53.5 8.2 53.2 6.8 52.7 5.7 C 52.2 4.5 51.4 3.7 50.4 3 C 49.4 2.4 48.1 2.1 46.6 2.1 C 46.55 2.11 42.8 2.1 42.8 2.1 L 42.8 17.5 Z M 59.4 19.6 L 59.4 4.9 L 61.6 4.9 L 61.6 19.6 L 59.4 19.6 Z M 60.5 2.5 C 60.1 2.5 59.7 2.3 59.4 2 C 59.1 1.7 58.9 1.3 58.9 0.9 C 58.9 0.5 59.1 0.1 59.4 -0.2 C 59.7 -0.5 60.1 -0.6 60.5 -0.6 C 61 -0.6 61.4 -0.5 61.7 -0.2 C 62 0.1 62.1 0.5 62.1 0.9 C 62.1 1.3 62 1.7 61.7 2 C 61.4 2.3 61 2.5 60.5 2.5 Z M 72.2 4.9 L 72.2 6.8 L 64.3 6.8 L 64.3 4.9 L 72.2 4.9 Z M 66.6 19.6 C 66.6 19.6 66.65 2.88 66.6 2.9 C 66.6 2 66.8 1.3 67.2 0.8 C 67.6 0.2 68.2 -0.2 68.8 -0.5 C 69.4 -0.8 70.1 -0.9 70.8 -0.9 C 71.3 -0.9 71.8 -0.9 72.2 -0.8 C 72.5 -0.7 72.8 -0.6 72.9 -0.5 C 72.9 -0.5 72.3 1.4 72.3 1.4 C 72.2 1.4 72 1.3 71.8 1.3 C 71.6 1.2 71.3 1.2 71 1.2 C 70.3 1.2 69.7 1.4 69.4 1.8 C 69.1 2.1 68.9 2.7 68.9 3.4 C 68.91 3.41 68.9 19.6 68.9 19.6 L 66.6 19.6 Z M 82.3 4.9 L 82.3 6.8 L 74.4 6.8 L 74.4 4.9 L 82.3 4.9 Z M 76.7 19.6 C 76.7 19.6 76.74 2.88 76.7 2.9 C 76.7 2 76.9 1.3 77.3 0.8 C 77.7 0.2 78.2 -0.2 78.9 -0.5 C 79.5 -0.8 80.2 -0.9 80.9 -0.9 C 81.4 -0.9 81.9 -0.9 82.2 -0.8 C 82.6 -0.7 82.9 -0.6 83 -0.5 C 83 -0.5 82.4 1.4 82.4 1.4 C 82.3 1.4 82.1 1.3 81.9 1.3 C 81.7 1.2 81.4 1.2 81.1 1.2 C 80.4 1.2 79.8 1.4 79.5 1.8 C 79.2 2.1 79 2.7 79 3.4 C 79 3.41 79 19.6 79 19.6 L 76.7 19.6 Z M 85.6 19.6 L 85.6 4.9 L 87.9 4.9 L 87.9 19.6 L 85.6 19.6 Z M 86.8 2.5 C 86.3 2.5 85.9 2.3 85.6 2 C 85.3 1.7 85.2 1.3 85.2 0.9 C 85.2 0.5 85.3 0.1 85.6 -0.2 C 85.9 -0.5 86.3 -0.6 86.8 -0.6 C 87.2 -0.6 87.6 -0.5 87.9 -0.2 C 88.2 0.1 88.4 0.5 88.4 0.9 C 88.4 1.3 88.2 1.7 87.9 2 C 87.6 2.3 87.2 2.5 86.8 2.5 Z M 97.8 19.9 C 96.4 19.9 95.2 19.6 94.3 19 C 93.3 18.3 92.5 17.4 91.9 16.3 C 91.4 15.1 91.1 13.8 91.1 12.3 C 91.1 10.9 91.4 9.5 92 8.4 C 92.5 7.2 93.3 6.3 94.3 5.7 C 95.3 5 96.4 4.7 97.8 4.7 C 98.8 4.7 99.7 4.9 100.6 5.3 C 101.4 5.7 102.1 6.2 102.6 6.9 C 103.2 7.6 103.5 8.4 103.6 9.3 C 103.6 9.3 101.3 9.3 101.3 9.3 C 101.2 8.6 100.8 8.1 100.2 7.5 C 99.6 7 98.8 6.8 97.8 6.8 C 96.9 6.8 96.2 7 95.5 7.4 C 94.8 7.9 94.3 8.5 94 9.4 C 93.6 10.2 93.4 11.2 93.4 12.3 C 93.4 13.4 93.6 14.4 93.9 15.2 C 94.3 16.1 94.8 16.7 95.5 17.2 C 96.1 17.7 96.9 17.9 97.8 17.9 C 98.4 17.9 98.9 17.8 99.4 17.6 C 99.9 17.4 100.3 17.1 100.6 16.7 C 101 16.3 101.2 15.9 101.3 15.3 C 101.3 15.3 103.6 15.3 103.6 15.3 C 103.5 16.2 103.2 17 102.7 17.7 C 102.2 18.4 101.5 18.9 100.7 19.3 C 99.9 19.7 98.9 19.9 97.8 19.9 Z M 116 13.6 C 115.95 13.62 116 4.9 116 4.9 L 118.2 4.9 L 118.2 19.6 L 116 19.6 L 116 17.1 C 116 17.1 115.8 17.14 115.8 17.1 C 115.5 17.9 114.9 18.5 114.2 19 C 113.5 19.6 112.5 19.8 111.4 19.8 C 110.5 19.8 109.7 19.6 109 19.2 C 108.3 18.8 107.7 18.2 107.3 17.4 C 106.9 16.6 106.7 15.5 106.7 14.3 C 106.67 14.27 106.7 4.9 106.7 4.9 L 108.9 4.9 C 108.9 4.9 108.93 14.11 108.9 14.1 C 108.9 15.2 109.2 16 109.8 16.7 C 110.4 17.3 111.2 17.6 112.2 17.6 C 112.7 17.6 113.3 17.5 113.9 17.2 C 114.5 16.9 115 16.5 115.4 15.9 C 115.8 15.3 116 14.5 116 13.6 Z M 124.5 0 L 124.5 19.6 L 122.2 19.6 L 122.2 0 L 124.5 0 Z M 134.8 4.9 L 134.8 6.8 L 127.2 6.8 L 127.2 4.9 L 134.8 4.9 Z M 129.4 1.4 L 131.7 1.4 C 131.7 1.4 131.69 15.42 131.7 15.4 C 131.7 16.1 131.8 16.5 132 16.9 C 132.2 17.2 132.4 17.4 132.7 17.5 C 133 17.6 133.3 17.6 133.6 17.6 C 133.9 17.6 134.1 17.6 134.3 17.6 C 134.4 17.6 134.5 17.5 134.6 17.5 C 134.6 17.5 135.1 19.6 135.1 19.6 C 135 19.6 134.7 19.7 134.5 19.7 C 134.2 19.8 133.8 19.8 133.4 19.8 C 132.8 19.8 132.2 19.7 131.5 19.4 C 130.9 19.1 130.4 18.7 130 18.2 C 129.6 17.6 129.4 16.9 129.4 16 C 129.43 16.03 129.4 1.4 129.4 1.4 Z M 152.2 4.9 L 152.2 6.8 L 144.6 6.8 L 144.6 4.9 L 152.2 4.9 Z M 146.8 1.4 L 149.1 1.4 C 149.1 1.4 149.1 15.42 149.1 15.4 C 149.1 16.1 149.2 16.5 149.4 16.9 C 149.6 17.2 149.8 17.4 150.1 17.5 C 150.4 17.6 150.7 17.6 151.1 17.6 C 151.3 17.6 151.5 17.6 151.7 17.6 C 151.8 17.6 152 17.5 152.1 17.5 C 152.1 17.5 152.5 19.6 152.5 19.6 C 152.4 19.6 152.1 19.7 151.9 19.7 C 151.6 19.8 151.2 19.8 150.8 19.8 C 150.2 19.8 149.6 19.7 149 19.4 C 148.3 19.1 147.8 18.7 147.4 18.2 C 147 17.6 146.8 16.9 146.8 16 C 146.84 16.03 146.8 1.4 146.8 1.4 Z M 160.8 19.9 C 159.4 19.9 158.3 19.6 157.3 19 C 156.3 18.4 155.5 17.5 154.9 16.3 C 154.4 15.2 154.1 13.9 154.1 12.3 C 154.1 10.8 154.4 9.5 154.9 8.3 C 155.5 7.2 156.3 6.3 157.3 5.7 C 158.3 5 159.4 4.7 160.8 4.7 C 162.1 4.7 163.3 5 164.3 5.7 C 165.3 6.3 166 7.2 166.6 8.3 C 167.2 9.5 167.4 10.8 167.4 12.3 C 167.4 13.9 167.2 15.2 166.6 16.3 C 166 17.5 165.3 18.4 164.3 19 C 163.3 19.6 162.1 19.9 160.8 19.9 Z M 160.8 17.9 C 161.8 17.9 162.6 17.7 163.3 17.1 C 163.9 16.6 164.4 15.9 164.7 15.1 C 165 14.2 165.2 13.3 165.2 12.3 C 165.2 11.4 165 10.4 164.7 9.6 C 164.4 8.7 163.9 8.1 163.3 7.5 C 162.6 7 161.8 6.8 160.8 6.8 C 159.8 6.8 158.9 7 158.3 7.5 C 157.6 8.1 157.1 8.7 156.8 9.6 C 156.5 10.4 156.4 11.4 156.4 12.3 C 156.4 13.3 156.5 14.2 156.8 15.1 C 157.1 15.9 157.6 16.6 158.3 17.1 C 158.9 17.7 159.8 17.9 160.8 17.9 Z M 187.8 13.6 C 187.77 13.62 187.8 4.9 187.8 4.9 L 190 4.9 L 190 19.6 L 187.8 19.6 L 187.8 17.1 C 187.8 17.1 187.61 17.14 187.6 17.1 C 187.3 17.9 186.7 18.5 186 19 C 185.3 19.6 184.4 19.8 183.2 19.8 C 182.3 19.8 181.5 19.6 180.8 19.2 C 180.1 18.8 179.5 18.2 179.1 17.4 C 178.7 16.6 178.5 15.5 178.5 14.3 C 178.48 14.27 178.5 4.9 178.5 4.9 L 180.7 4.9 C 180.7 4.9 180.75 14.11 180.7 14.1 C 180.7 15.2 181 16 181.7 16.7 C 182.3 17.3 183 17.6 184 17.6 C 184.5 17.6 185.1 17.5 185.7 17.2 C 186.3 16.9 186.8 16.5 187.2 15.9 C 187.6 15.3 187.8 14.5 187.8 13.6 Z M 204.3 8.2 C 204.3 8.2 202.3 8.8 202.3 8.8 C 202.2 8.4 202 8.1 201.7 7.8 C 201.5 7.5 201.2 7.2 200.7 7 C 200.3 6.8 199.8 6.7 199.1 6.7 C 198.2 6.7 197.5 6.9 196.9 7.3 C 196.3 7.7 196 8.2 196 8.9 C 196 9.4 196.2 9.9 196.6 10.2 C 197 10.5 197.6 10.8 198.5 11 C 198.5 11 200.7 11.5 200.7 11.5 C 202 11.9 203 12.4 203.6 13 C 204.3 13.7 204.6 14.5 204.6 15.5 C 204.6 16.4 204.4 17.1 203.9 17.8 C 203.4 18.5 202.7 19 201.9 19.4 C 201 19.8 200 19.9 198.8 19.9 C 197.3 19.9 196.1 19.6 195.1 19 C 194.1 18.3 193.5 17.4 193.2 16.1 C 193.2 16.1 195.4 15.6 195.4 15.6 C 195.6 16.4 196 17 196.6 17.4 C 197.1 17.8 197.9 17.9 198.8 17.9 C 199.9 17.9 200.7 17.7 201.3 17.3 C 201.9 16.8 202.3 16.3 202.3 15.6 C 202.3 15.1 202.1 14.7 201.7 14.4 C 201.4 14 200.8 13.7 200.1 13.6 C 200.1 13.6 197.6 13 197.6 13 C 196.3 12.7 195.3 12.2 194.6 11.5 C 194 10.8 193.7 10 193.7 9 C 193.7 8.1 193.9 7.4 194.4 6.8 C 194.9 6.1 195.5 5.6 196.3 5.3 C 197.2 4.9 198.1 4.7 199.1 4.7 C 200.6 4.7 201.7 5 202.5 5.7 C 203.4 6.3 204 7.2 204.3 8.2 Z M 214 19.9 C 212.5 19.9 211.3 19.6 210.3 19 C 209.3 18.4 208.5 17.5 207.9 16.4 C 207.4 15.2 207.1 13.9 207.1 12.4 C 207.1 10.9 207.4 9.5 207.9 8.4 C 208.5 7.2 209.2 6.3 210.2 5.7 C 211.2 5 212.4 4.7 213.7 4.7 C 214.5 4.7 215.2 4.8 216 5.1 C 216.7 5.4 217.4 5.8 218 6.3 C 218.7 6.9 219.1 7.7 219.5 8.6 C 219.9 9.5 220.1 10.7 220.1 12.1 C 220.05 12.08 220.1 13 220.1 13 L 208.7 13 L 208.7 11.1 C 208.7 11.1 217.75 11.08 217.8 11.1 C 217.8 10.3 217.6 9.5 217.3 8.9 C 216.9 8.2 216.5 7.7 215.9 7.3 C 215.3 6.9 214.5 6.8 213.7 6.8 C 212.8 6.8 212 7 211.4 7.4 C 210.7 7.9 210.2 8.4 209.9 9.1 C 209.5 9.9 209.4 10.6 209.4 11.4 C 209.4 11.4 209.4 12.7 209.4 12.7 C 209.4 13.8 209.5 14.8 209.9 15.6 C 210.3 16.3 210.9 16.9 211.5 17.3 C 212.2 17.7 213 17.9 214 17.9 C 214.5 17.9 215.1 17.8 215.6 17.7 C 216.1 17.5 216.5 17.2 216.8 16.9 C 217.2 16.5 217.4 16.1 217.6 15.6 C 217.6 15.6 219.8 16.2 219.8 16.2 C 219.6 17 219.2 17.6 218.7 18.2 C 218.1 18.7 217.4 19.2 216.6 19.5 C 215.8 19.8 215 19.9 214 19.9 Z " stroke="none" fill="#ffffff"/>  </g></svg>