<?xml version="1.0" standalone="no"?><!DOCTYPE svg PUBLIC "-//W3C//DTD SVG 1.1//EN" "http://www.w3.org/Graphics/SVG/1.1/DTD/svg11.dtd"><svg xmlns="http://www.w3.org/2000/svg" version="1.1" width="259px" height="180.7px" viewBox="0 -5 259 180.7" style="top:-5px">  <desc>Simplify how you transform and activate your data</desc>  <defs/>  <g id="Polygon125550">    <path d="M 60.9 163.5 C 60.2 163.5 59.7 163.5 59.1 163.4 C 58.6 163.3 58.2 163.2 57.8 163 C 57.8 163 58.9 159.4 58.9 159.4 C 59.5 159.6 60 159.7 60.4 159.7 C 60.9 159.7 61.3 159.6 61.6 159.4 C 62 159.2 62.3 158.8 62.5 158.2 C 62.46 158.24 62.7 157.5 62.7 157.5 L 56.5 139.5 L 61.6 139.5 L 65.2 152.4 L 65.4 152.4 L 69 139.5 L 74.1 139.5 C 74.1 139.5 67.36 158.89 67.4 158.9 C 67 159.8 66.6 160.6 66 161.3 C 65.5 162 64.8 162.6 63.9 163 C 63.1 163.4 62.1 163.5 60.9 163.5 Z M 83.6 157.3 C 81.8 157.3 80.3 157 79 156.2 C 77.7 155.5 76.7 154.4 76 153.1 C 75.3 151.7 75 150.1 75 148.3 C 75 146.5 75.3 145 76 143.6 C 76.7 142.3 77.7 141.2 79 140.4 C 80.3 139.7 81.8 139.3 83.6 139.3 C 85.3 139.3 86.9 139.7 88.2 140.4 C 89.4 141.2 90.4 142.3 91.1 143.6 C 91.8 145 92.2 146.5 92.2 148.3 C 92.2 150.1 91.8 151.7 91.1 153.1 C 90.4 154.4 89.4 155.5 88.2 156.2 C 86.9 157 85.3 157.3 83.6 157.3 Z M 83.6 153.6 C 84.4 153.6 85.1 153.4 85.6 152.9 C 86.2 152.4 86.6 151.8 86.8 151 C 87.1 150.2 87.3 149.3 87.3 148.3 C 87.3 147.3 87.1 146.4 86.8 145.6 C 86.6 144.8 86.2 144.2 85.6 143.7 C 85.1 143.2 84.4 143 83.6 143 C 82.8 143 82.1 143.2 81.6 143.7 C 81 144.2 80.6 144.8 80.3 145.6 C 80 146.4 79.9 147.3 79.9 148.3 C 79.9 149.3 80 150.2 80.3 151 C 80.6 151.8 81 152.4 81.6 152.9 C 82.1 153.4 82.8 153.6 83.6 153.6 Z M 106.4 149.6 C 106.38 149.57 106.4 139.5 106.4 139.5 L 111.2 139.5 L 111.2 157 L 106.6 157 L 106.6 153.8 C 106.6 153.8 106.39 153.83 106.4 153.8 C 106 154.9 105.3 155.7 104.4 156.3 C 103.5 156.9 102.4 157.2 101.1 157.2 C 99.9 157.2 98.9 157 98 156.4 C 97.1 155.9 96.4 155.1 95.9 154.2 C 95.4 153.2 95.2 152 95.2 150.7 C 95.19 150.66 95.2 139.5 95.2 139.5 L 100 139.5 C 100 139.5 100.03 149.8 100 149.8 C 100 150.8 100.3 151.6 100.9 152.2 C 101.4 152.8 102.1 153.1 103.1 153.1 C 103.6 153.1 104.2 153 104.7 152.7 C 105.2 152.5 105.6 152.1 105.9 151.5 C 106.2 151 106.4 150.3 106.4 149.6 Z M 115.1 157 L 115.1 139.5 L 119.8 139.5 L 119.8 142.6 C 119.8 142.6 119.99 142.59 120 142.6 C 120.3 141.5 120.8 140.7 121.6 140.1 C 122.3 139.6 123.2 139.3 124.2 139.3 C 124.4 139.3 124.7 139.3 125 139.3 C 125.2 139.4 125.5 139.4 125.7 139.5 C 125.7 139.5 125.7 143.8 125.7 143.8 C 125.5 143.7 125.2 143.6 124.8 143.6 C 124.4 143.5 124 143.5 123.7 143.5 C 122.9 143.5 122.3 143.7 121.8 144 C 121.2 144.3 120.8 144.7 120.4 145.2 C 120.1 145.8 120 146.4 120 147.1 C 119.95 147.12 120 157 120 157 L 115.1 157 Z M 142 157.3 C 140.7 157.3 139.5 156.9 138.4 156.3 C 137.4 155.6 136.5 154.6 135.9 153.2 C 135.3 151.9 135 150.2 135 148.3 C 135 146.3 135.3 144.6 135.9 143.3 C 136.6 142 137.4 141 138.5 140.3 C 139.6 139.6 140.8 139.3 142 139.3 C 143 139.3 143.8 139.5 144.5 139.8 C 145.1 140.1 145.7 140.6 146.1 141 C 146.5 141.5 146.8 142 147 142.5 C 147 142.48 147.1 142.5 147.1 142.5 L 147.1 133.7 L 152 133.7 L 152 157 L 147.2 157 L 147.2 154.2 C 147.2 154.2 147 154.2 147 154.2 C 146.8 154.7 146.5 155.2 146 155.6 C 145.6 156.1 145.1 156.5 144.4 156.8 C 143.8 157.1 143 157.3 142 157.3 Z M 143.6 153.4 C 144.4 153.4 145 153.2 145.6 152.8 C 146.1 152.4 146.5 151.8 146.8 151 C 147.1 150.2 147.2 149.3 147.2 148.3 C 147.2 147.2 147.1 146.3 146.8 145.6 C 146.5 144.8 146.1 144.2 145.6 143.8 C 145 143.4 144.4 143.2 143.6 143.2 C 142.8 143.2 142.1 143.4 141.6 143.8 C 141 144.2 140.6 144.8 140.3 145.6 C 140 146.4 139.9 147.3 139.9 148.3 C 139.9 149.3 140 150.2 140.3 151 C 140.6 151.7 141 152.3 141.6 152.8 C 142.1 153.2 142.8 153.4 143.6 153.4 Z M 160.8 157.3 C 159.7 157.3 158.7 157.1 157.9 156.7 C 157 156.4 156.3 155.8 155.8 155 C 155.3 154.2 155 153.3 155 152.1 C 155 151.2 155.2 150.3 155.6 149.7 C 155.9 149 156.4 148.5 157 148.1 C 157.6 147.7 158.3 147.4 159.1 147.2 C 159.9 147 160.7 146.8 161.6 146.7 C 162.6 146.6 163.4 146.5 164.1 146.4 C 164.7 146.4 165.1 146.2 165.4 146 C 165.7 145.8 165.8 145.6 165.8 145.2 C 165.8 145.2 165.8 145.1 165.8 145.1 C 165.8 144.4 165.6 143.8 165.2 143.4 C 164.7 143 164.1 142.9 163.2 142.9 C 162.4 142.9 161.7 143 161.2 143.4 C 160.6 143.8 160.3 144.3 160.1 144.9 C 160.1 144.9 155.7 144.5 155.7 144.5 C 155.9 143.4 156.3 142.5 157 141.7 C 157.7 141 158.5 140.4 159.6 139.9 C 160.6 139.5 161.9 139.3 163.3 139.3 C 164.2 139.3 165.2 139.4 166 139.7 C 166.9 139.9 167.7 140.2 168.4 140.7 C 169.1 141.2 169.7 141.8 170.1 142.6 C 170.5 143.3 170.7 144.2 170.7 145.2 C 170.67 145.23 170.7 157 170.7 157 L 166.1 157 L 166.1 154.6 C 166.1 154.6 165.94 154.58 165.9 154.6 C 165.7 155.1 165.3 155.6 164.8 156 C 164.3 156.4 163.8 156.8 163.1 157 C 162.5 157.2 161.7 157.3 160.8 157.3 Z M 162.2 154 C 162.9 154 163.6 153.8 164.1 153.6 C 164.7 153.3 165.1 152.9 165.4 152.4 C 165.7 151.9 165.9 151.4 165.9 150.8 C 165.9 150.8 165.9 148.9 165.9 148.9 C 165.7 149 165.5 149.1 165.2 149.2 C 165 149.3 164.7 149.3 164.4 149.4 C 164 149.5 163.7 149.5 163.4 149.6 C 163.1 149.6 162.8 149.7 162.5 149.7 C 161.9 149.8 161.4 149.9 161 150.1 C 160.6 150.3 160.3 150.5 160 150.8 C 159.8 151.1 159.7 151.5 159.7 152 C 159.7 152.6 159.9 153.1 160.4 153.5 C 160.9 153.8 161.5 154 162.2 154 Z M 183.4 139.5 L 183.4 143.2 L 172.8 143.2 L 172.8 139.5 L 183.4 139.5 Z M 175.2 135.4 L 180.1 135.4 C 180.1 135.4 180.07 151.64 180.1 151.6 C 180.1 152.1 180.1 152.4 180.3 152.7 C 180.4 152.9 180.6 153.1 180.9 153.2 C 181.1 153.3 181.4 153.3 181.7 153.3 C 181.9 153.3 182.2 153.3 182.4 153.3 C 182.6 153.2 182.8 153.2 182.9 153.2 C 182.9 153.2 183.7 156.8 183.7 156.8 C 183.4 156.9 183.1 156.9 182.7 157.1 C 182.2 157.2 181.7 157.2 181.1 157.2 C 179.9 157.3 178.9 157.1 178 156.8 C 177.1 156.4 176.4 155.9 175.9 155.1 C 175.5 154.4 175.2 153.4 175.2 152.3 C 175.23 152.27 175.2 135.4 175.2 135.4 Z M 191.1 157.3 C 190 157.3 189 157.1 188.2 156.7 C 187.3 156.4 186.6 155.8 186.1 155 C 185.6 154.2 185.3 153.3 185.3 152.1 C 185.3 151.2 185.5 150.3 185.9 149.7 C 186.2 149 186.7 148.5 187.3 148.1 C 187.9 147.7 188.6 147.4 189.4 147.2 C 190.2 147 191 146.8 191.9 146.7 C 192.9 146.6 193.7 146.5 194.4 146.4 C 195 146.4 195.4 146.2 195.7 146 C 196 145.8 196.1 145.6 196.1 145.2 C 196.1 145.2 196.1 145.1 196.1 145.1 C 196.1 144.4 195.9 143.8 195.5 143.4 C 195 143 194.4 142.9 193.5 142.9 C 192.7 142.9 192 143 191.5 143.4 C 190.9 143.8 190.6 144.3 190.4 144.9 C 190.4 144.9 186 144.5 186 144.5 C 186.2 143.4 186.6 142.5 187.3 141.7 C 188 141 188.8 140.4 189.9 139.9 C 190.9 139.5 192.2 139.3 193.6 139.3 C 194.5 139.3 195.5 139.4 196.4 139.7 C 197.2 139.9 198 140.2 198.7 140.7 C 199.4 141.2 200 141.8 200.4 142.6 C 200.8 143.3 201 144.2 201 145.2 C 200.97 145.23 201 157 201 157 L 196.4 157 L 196.4 154.6 C 196.4 154.6 196.24 154.58 196.2 154.6 C 196 155.1 195.6 155.6 195.1 156 C 194.6 156.4 194.1 156.8 193.4 157 C 192.8 157.2 192 157.3 191.1 157.3 Z M 192.5 154 C 193.2 154 193.9 153.8 194.4 153.6 C 195 153.3 195.4 152.9 195.7 152.4 C 196 151.9 196.2 151.4 196.2 150.8 C 196.2 150.8 196.2 148.9 196.2 148.9 C 196 149 195.8 149.1 195.5 149.2 C 195.3 149.3 195 149.3 194.7 149.4 C 194.3 149.5 194 149.5 193.7 149.6 C 193.4 149.6 193.1 149.7 192.8 149.7 C 192.2 149.8 191.7 149.9 191.3 150.1 C 190.9 150.3 190.6 150.5 190.3 150.8 C 190.1 151.1 190 151.5 190 152 C 190 152.6 190.2 153.1 190.7 153.5 C 191.2 153.8 191.8 154 192.5 154 Z " stroke="none" fill="#10283d"/>  </g>  <g id="Polygon125549">    <path d="M 40.7 115.3 C 39.6 115.3 38.6 115.1 37.8 114.7 C 36.9 114.4 36.2 113.8 35.7 113 C 35.2 112.2 35 111.3 35 110.1 C 35 109.2 35.1 108.3 35.5 107.7 C 35.8 107 36.3 106.5 36.9 106.1 C 37.6 105.7 38.3 105.4 39 105.2 C 39.8 105 40.6 104.8 41.5 104.7 C 42.5 104.6 43.3 104.5 44 104.4 C 44.6 104.4 45 104.2 45.3 104 C 45.6 103.8 45.7 103.6 45.7 103.2 C 45.7 103.2 45.7 103.1 45.7 103.1 C 45.7 102.4 45.5 101.8 45.1 101.4 C 44.6 101 44 100.9 43.1 100.9 C 42.3 100.9 41.6 101 41.1 101.4 C 40.5 101.8 40.2 102.3 40 102.9 C 40 102.9 35.6 102.5 35.6 102.5 C 35.8 101.4 36.2 100.5 36.9 99.7 C 37.6 99 38.4 98.4 39.5 97.9 C 40.5 97.5 41.8 97.3 43.2 97.3 C 44.1 97.3 45.1 97.4 46 97.7 C 46.8 97.9 47.6 98.2 48.3 98.7 C 49 99.2 49.6 99.8 50 100.6 C 50.4 101.3 50.6 102.2 50.6 103.2 C 50.58 103.23 50.6 115 50.6 115 L 46 115 L 46 112.6 C 46 112.6 45.85 112.58 45.8 112.6 C 45.6 113.1 45.2 113.6 44.7 114 C 44.3 114.4 43.7 114.8 43 115 C 42.4 115.2 41.6 115.3 40.7 115.3 Z M 42.1 112 C 42.8 112 43.5 111.8 44 111.6 C 44.6 111.3 45 110.9 45.3 110.4 C 45.6 109.9 45.8 109.4 45.8 108.8 C 45.8 108.8 45.8 106.9 45.8 106.9 C 45.6 107 45.4 107.1 45.1 107.2 C 44.9 107.3 44.6 107.3 44.3 107.4 C 43.9 107.5 43.6 107.5 43.3 107.6 C 43 107.6 42.7 107.7 42.4 107.7 C 41.8 107.8 41.3 107.9 40.9 108.1 C 40.5 108.3 40.2 108.5 39.9 108.8 C 39.7 109.1 39.6 109.5 39.6 110 C 39.6 110.6 39.8 111.1 40.3 111.5 C 40.8 111.8 41.4 112 42.1 112 Z M 59.2 104.9 C 59.23 104.91 59.2 115 59.2 115 L 54.4 115 L 54.4 97.5 L 59 97.5 L 59 100.6 C 59 100.6 59.21 100.62 59.2 100.6 C 59.6 99.6 60.2 98.8 61.2 98.2 C 62.1 97.6 63.2 97.3 64.5 97.3 C 65.7 97.3 66.7 97.6 67.6 98.1 C 68.5 98.6 69.2 99.4 69.7 100.4 C 70.2 101.4 70.5 102.5 70.5 103.9 C 70.48 103.89 70.5 115 70.5 115 L 65.6 115 C 65.6 115 65.64 104.75 65.6 104.7 C 65.7 103.7 65.4 102.8 64.8 102.2 C 64.3 101.6 63.5 101.3 62.5 101.3 C 61.9 101.3 61.3 101.5 60.8 101.8 C 60.3 102 59.9 102.4 59.7 103 C 59.4 103.5 59.2 104.2 59.2 104.9 Z M 80.6 115.3 C 79.3 115.3 78.1 114.9 77 114.3 C 76 113.6 75.1 112.6 74.5 111.2 C 73.9 109.9 73.6 108.2 73.6 106.3 C 73.6 104.3 73.9 102.6 74.5 101.3 C 75.2 100 76 99 77.1 98.3 C 78.2 97.6 79.3 97.3 80.6 97.3 C 81.6 97.3 82.4 97.5 83.1 97.8 C 83.7 98.1 84.3 98.6 84.7 99 C 85.1 99.5 85.4 100 85.6 100.5 C 85.59 100.48 85.7 100.5 85.7 100.5 L 85.7 91.7 L 90.6 91.7 L 90.6 115 L 85.8 115 L 85.8 112.2 C 85.8 112.2 85.59 112.2 85.6 112.2 C 85.4 112.7 85 113.2 84.6 113.6 C 84.2 114.1 83.7 114.5 83 114.8 C 82.4 115.1 81.6 115.3 80.6 115.3 Z M 82.2 111.4 C 82.9 111.4 83.6 111.2 84.2 110.8 C 84.7 110.4 85.1 109.8 85.4 109 C 85.7 108.2 85.8 107.3 85.8 106.3 C 85.8 105.2 85.7 104.3 85.4 103.6 C 85.1 102.8 84.7 102.2 84.2 101.8 C 83.6 101.4 82.9 101.2 82.2 101.2 C 81.4 101.2 80.7 101.4 80.2 101.8 C 79.6 102.2 79.2 102.8 78.9 103.6 C 78.6 104.4 78.5 105.3 78.5 106.3 C 78.5 107.3 78.6 108.2 78.9 109 C 79.2 109.7 79.6 110.3 80.2 110.8 C 80.7 111.2 81.4 111.4 82.2 111.4 Z M 106.9 115.3 C 105.8 115.3 104.8 115.1 104 114.7 C 103.1 114.4 102.4 113.8 101.9 113 C 101.4 112.2 101.1 111.3 101.1 110.1 C 101.1 109.2 101.3 108.3 101.7 107.7 C 102 107 102.5 106.5 103.1 106.1 C 103.7 105.7 104.4 105.4 105.2 105.2 C 106 105 106.8 104.8 107.7 104.7 C 108.7 104.6 109.5 104.5 110.1 104.4 C 110.8 104.4 111.2 104.2 111.5 104 C 111.8 103.8 111.9 103.6 111.9 103.2 C 111.9 103.2 111.9 103.1 111.9 103.1 C 111.9 102.4 111.7 101.8 111.2 101.4 C 110.8 101 110.2 100.9 109.3 100.9 C 108.5 100.9 107.8 101 107.2 101.4 C 106.7 101.8 106.4 102.3 106.2 102.9 C 106.2 102.9 101.7 102.5 101.7 102.5 C 102 101.4 102.4 100.5 103.1 99.7 C 103.8 99 104.6 98.4 105.7 97.9 C 106.7 97.5 108 97.3 109.3 97.3 C 110.3 97.3 111.2 97.4 112.1 97.7 C 113 97.9 113.8 98.2 114.5 98.7 C 115.2 99.2 115.8 99.8 116.2 100.6 C 116.6 101.3 116.8 102.2 116.8 103.2 C 116.76 103.23 116.8 115 116.8 115 L 112.2 115 L 112.2 112.6 C 112.2 112.6 112.03 112.58 112 112.6 C 111.8 113.1 111.4 113.6 110.9 114 C 110.4 114.4 109.9 114.8 109.2 115 C 108.6 115.2 107.8 115.3 106.9 115.3 Z M 108.3 112 C 109 112 109.7 111.8 110.2 111.6 C 110.7 111.3 111.2 110.9 111.5 110.4 C 111.8 109.9 112 109.4 112 108.8 C 112 108.8 112 106.9 112 106.9 C 111.8 107 111.6 107.1 111.3 107.2 C 111.1 107.3 110.8 107.3 110.5 107.4 C 110.1 107.5 109.8 107.5 109.5 107.6 C 109.1 107.6 108.9 107.7 108.6 107.7 C 108 107.8 107.5 107.9 107.1 108.1 C 106.7 108.3 106.3 108.5 106.1 108.8 C 105.9 109.1 105.8 109.5 105.8 110 C 105.8 110.6 106 111.1 106.5 111.5 C 107 111.8 107.6 112 108.3 112 Z M 128.3 115.3 C 126.5 115.3 125 115 123.7 114.2 C 122.4 113.4 121.4 112.4 120.8 111 C 120.1 109.7 119.7 108.1 119.7 106.3 C 119.7 104.6 120.1 103 120.8 101.6 C 121.5 100.3 122.4 99.2 123.7 98.5 C 125 97.7 126.5 97.3 128.3 97.3 C 129.8 97.3 131.1 97.6 132.3 98.1 C 133.4 98.7 134.3 99.5 135 100.5 C 135.7 101.5 136 102.7 136.1 104 C 136.1 104 131.5 104 131.5 104 C 131.4 103.1 131.1 102.4 130.5 101.9 C 130 101.4 129.3 101.1 128.4 101.1 C 127.6 101.1 127 101.3 126.4 101.7 C 125.9 102.1 125.4 102.7 125.1 103.5 C 124.8 104.2 124.6 105.2 124.6 106.3 C 124.6 107.4 124.8 108.3 125.1 109.1 C 125.4 109.9 125.8 110.5 126.4 110.9 C 127 111.3 127.6 111.5 128.4 111.5 C 128.9 111.5 129.4 111.4 129.9 111.2 C 130.3 110.9 130.7 110.6 131 110.2 C 131.3 109.7 131.5 109.2 131.5 108.6 C 131.5 108.6 136.1 108.6 136.1 108.6 C 136 109.9 135.7 111.1 135 112.1 C 134.4 113.1 133.5 113.9 132.4 114.5 C 131.2 115.1 129.9 115.3 128.3 115.3 Z M 148.3 97.5 L 148.3 101.2 L 137.8 101.2 L 137.8 97.5 L 148.3 97.5 Z M 140.2 93.4 L 145 93.4 C 145 93.4 145.05 109.64 145 109.6 C 145 110.1 145.1 110.4 145.3 110.7 C 145.4 110.9 145.6 111.1 145.8 111.2 C 146.1 111.3 146.4 111.3 146.7 111.3 C 146.9 111.3 147.1 111.3 147.4 111.3 C 147.6 111.2 147.8 111.2 147.9 111.2 C 147.9 111.2 148.7 114.8 148.7 114.8 C 148.4 114.9 148.1 114.9 147.6 115.1 C 147.2 115.2 146.7 115.2 146 115.2 C 144.9 115.3 143.8 115.1 143 114.8 C 142.1 114.4 141.4 113.9 140.9 113.1 C 140.4 112.4 140.2 111.4 140.2 110.3 C 140.21 110.27 140.2 93.4 140.2 93.4 Z M 151.3 115 L 151.3 97.5 L 156.2 97.5 L 156.2 115 L 151.3 115 Z M 153.8 95.3 C 153.1 95.3 152.4 95.1 151.9 94.6 C 151.4 94.1 151.2 93.5 151.2 92.9 C 151.2 92.2 151.4 91.6 151.9 91.1 C 152.4 90.6 153.1 90.4 153.8 90.4 C 154.5 90.4 155.1 90.6 155.6 91.1 C 156.1 91.6 156.4 92.2 156.4 92.8 C 156.4 93.5 156.1 94.1 155.6 94.6 C 155.1 95.1 154.5 95.3 153.8 95.3 Z M 176.1 97.5 L 170 115 L 164.5 115 L 158.4 97.5 L 163.6 97.5 L 167.2 110 L 167.4 110 L 171 97.5 L 176.1 97.5 Z M 182.7 115.3 C 181.6 115.3 180.6 115.1 179.7 114.7 C 178.9 114.4 178.2 113.8 177.7 113 C 177.2 112.2 176.9 111.3 176.9 110.1 C 176.9 109.2 177.1 108.3 177.4 107.7 C 177.8 107 178.3 106.5 178.9 106.1 C 179.5 105.7 180.2 105.4 181 105.2 C 181.8 105 182.6 104.8 183.5 104.7 C 184.5 104.6 185.3 104.5 185.9 104.4 C 186.5 104.4 187 104.2 187.3 104 C 187.6 103.8 187.7 103.6 187.7 103.2 C 187.7 103.2 187.7 103.1 187.7 103.1 C 187.7 102.4 187.5 101.8 187 101.4 C 186.6 101 185.9 100.9 185.1 100.9 C 184.2 100.9 183.5 101 183 101.4 C 182.5 101.8 182.2 102.3 182 102.9 C 182 102.9 177.5 102.5 177.5 102.5 C 177.8 101.4 178.2 100.5 178.9 99.7 C 179.5 99 180.4 98.4 181.5 97.9 C 182.5 97.5 183.7 97.3 185.1 97.3 C 186.1 97.3 187 97.4 187.9 97.7 C 188.8 97.9 189.6 98.2 190.3 98.7 C 191 99.2 191.5 99.8 191.9 100.6 C 192.3 101.3 192.5 102.2 192.5 103.2 C 192.54 103.23 192.5 115 192.5 115 L 187.9 115 L 187.9 112.6 C 187.9 112.6 187.81 112.58 187.8 112.6 C 187.5 113.1 187.2 113.6 186.7 114 C 186.2 114.4 185.7 114.8 185 115 C 184.3 115.2 183.6 115.3 182.7 115.3 Z M 184.1 112 C 184.8 112 185.4 111.8 186 111.6 C 186.5 111.3 187 110.9 187.3 110.4 C 187.6 109.9 187.7 109.4 187.7 108.8 C 187.7 108.8 187.7 106.9 187.7 106.9 C 187.6 107 187.4 107.1 187.1 107.2 C 186.9 107.3 186.6 107.3 186.2 107.4 C 185.9 107.5 185.6 107.5 185.3 107.6 C 184.9 107.6 184.6 107.7 184.4 107.7 C 183.8 107.8 183.3 107.9 182.9 108.1 C 182.5 108.3 182.1 108.5 181.9 108.8 C 181.7 109.1 181.5 109.5 181.5 110 C 181.5 110.6 181.8 111.1 182.3 111.5 C 182.7 111.8 183.4 112 184.1 112 Z M 205.2 97.5 L 205.2 101.2 L 194.7 101.2 L 194.7 97.5 L 205.2 97.5 Z M 197.1 93.4 L 201.9 93.4 C 201.9 93.4 201.94 109.64 201.9 109.6 C 201.9 110.1 202 110.4 202.1 110.7 C 202.3 110.9 202.5 111.1 202.7 111.2 C 203 111.3 203.3 111.3 203.6 111.3 C 203.8 111.3 204 111.3 204.3 111.3 C 204.5 111.2 204.7 111.2 204.8 111.2 C 204.8 111.2 205.5 114.8 205.5 114.8 C 205.3 114.9 205 114.9 204.5 115.1 C 204.1 115.2 203.6 115.2 202.9 115.2 C 201.8 115.3 200.7 115.1 199.9 114.8 C 199 114.4 198.3 113.9 197.8 113.1 C 197.3 112.4 197.1 111.4 197.1 110.3 C 197.1 110.27 197.1 93.4 197.1 93.4 Z M 215.7 115.3 C 213.9 115.3 212.3 115 211 114.2 C 209.7 113.5 208.7 112.5 208.1 111.1 C 207.4 109.8 207 108.2 207 106.4 C 207 104.6 207.4 103 208.1 101.6 C 208.7 100.3 209.7 99.2 211 98.5 C 212.3 97.7 213.8 97.3 215.5 97.3 C 216.6 97.3 217.7 97.5 218.7 97.9 C 219.7 98.2 220.6 98.8 221.3 99.5 C 222.1 100.3 222.6 101.2 223.1 102.3 C 223.5 103.4 223.7 104.7 223.7 106.2 C 223.68 106.18 223.7 107.5 223.7 107.5 L 208.9 107.5 L 208.9 104.5 C 208.9 104.5 219.12 104.51 219.1 104.5 C 219.1 103.8 219 103.2 218.7 102.7 C 218.4 102.1 217.9 101.7 217.4 101.4 C 216.9 101.1 216.3 100.9 215.6 100.9 C 214.8 100.9 214.2 101.1 213.6 101.4 C 213 101.8 212.6 102.2 212.3 102.8 C 212 103.4 211.8 104 211.8 104.7 C 211.8 104.7 211.8 107.5 211.8 107.5 C 211.8 108.4 212 109.1 212.3 109.8 C 212.6 110.4 213.1 110.9 213.6 111.2 C 214.2 111.6 214.9 111.7 215.7 111.7 C 216.3 111.7 216.8 111.7 217.2 111.5 C 217.7 111.3 218.1 111.1 218.4 110.8 C 218.7 110.5 218.9 110.1 219.1 109.7 C 219.1 109.7 223.6 110 223.6 110 C 223.3 111.1 222.9 112 222.2 112.8 C 221.5 113.6 220.6 114.2 219.5 114.7 C 218.4 115.1 217.1 115.3 215.7 115.3 Z " stroke="none" fill="#10283d"/>  </g>  <g id="Polygon125548">    <path d="M 24.6 79.5 C 24 79.5 23.5 79.5 22.9 79.4 C 22.4 79.3 21.9 79.2 21.6 79 C 21.6 79 22.7 75.4 22.7 75.4 C 23.3 75.6 23.8 75.7 24.2 75.7 C 24.7 75.7 25.1 75.6 25.4 75.4 C 25.8 75.2 26 74.8 26.2 74.2 C 26.24 74.24 26.5 73.5 26.5 73.5 L 20.3 55.5 L 25.4 55.5 L 29 68.4 L 29.2 68.4 L 32.8 55.5 L 37.9 55.5 C 37.9 55.5 31.14 74.89 31.1 74.9 C 30.8 75.8 30.4 76.6 29.8 77.3 C 29.3 78 28.6 78.6 27.7 79 C 26.9 79.4 25.8 79.5 24.6 79.5 Z M 47.4 73.3 C 45.6 73.3 44.1 73 42.8 72.2 C 41.5 71.5 40.5 70.4 39.8 69.1 C 39.1 67.7 38.8 66.1 38.8 64.3 C 38.8 62.5 39.1 61 39.8 59.6 C 40.5 58.3 41.5 57.2 42.8 56.4 C 44.1 55.7 45.6 55.3 47.4 55.3 C 49.1 55.3 50.7 55.7 51.9 56.4 C 53.2 57.2 54.2 58.3 54.9 59.6 C 55.6 61 56 62.5 56 64.3 C 56 66.1 55.6 67.7 54.9 69.1 C 54.2 70.4 53.2 71.5 51.9 72.2 C 50.7 73 49.1 73.3 47.4 73.3 Z M 47.4 69.6 C 48.2 69.6 48.9 69.4 49.4 68.9 C 49.9 68.4 50.3 67.8 50.6 67 C 50.9 66.2 51 65.3 51 64.3 C 51 63.3 50.9 62.4 50.6 61.6 C 50.3 60.8 49.9 60.2 49.4 59.7 C 48.9 59.2 48.2 59 47.4 59 C 46.6 59 45.9 59.2 45.3 59.7 C 44.8 60.2 44.4 60.8 44.1 61.6 C 43.8 62.4 43.7 63.3 43.7 64.3 C 43.7 65.3 43.8 66.2 44.1 67 C 44.4 67.8 44.8 68.4 45.3 68.9 C 45.9 69.4 46.6 69.6 47.4 69.6 Z M 70.2 65.6 C 70.16 65.57 70.2 55.5 70.2 55.5 L 75 55.5 L 75 73 L 70.4 73 L 70.4 69.8 C 70.4 69.8 70.17 69.83 70.2 69.8 C 69.8 70.9 69.1 71.7 68.2 72.3 C 67.3 72.9 66.2 73.2 64.9 73.2 C 63.7 73.2 62.7 73 61.8 72.4 C 60.9 71.9 60.2 71.1 59.7 70.2 C 59.2 69.2 59 68 59 66.7 C 58.97 66.66 59 55.5 59 55.5 L 63.8 55.5 C 63.8 55.5 63.81 65.8 63.8 65.8 C 63.8 66.8 64.1 67.6 64.6 68.2 C 65.2 68.8 65.9 69.1 66.8 69.1 C 67.4 69.1 68 69 68.5 68.7 C 69 68.5 69.4 68.1 69.7 67.5 C 70 67 70.2 66.3 70.2 65.6 Z M 95.6 55.5 L 95.6 59.2 L 85.1 59.2 L 85.1 55.5 L 95.6 55.5 Z M 87.4 51.4 L 92.3 51.4 C 92.3 51.4 92.28 67.64 92.3 67.6 C 92.3 68.1 92.4 68.4 92.5 68.7 C 92.6 68.9 92.8 69.1 93.1 69.2 C 93.3 69.3 93.6 69.3 93.9 69.3 C 94.1 69.3 94.4 69.3 94.6 69.3 C 94.8 69.2 95 69.2 95.1 69.2 C 95.1 69.2 95.9 72.8 95.9 72.8 C 95.6 72.9 95.3 72.9 94.9 73.1 C 94.4 73.2 93.9 73.2 93.3 73.2 C 92.1 73.3 91.1 73.1 90.2 72.8 C 89.3 72.4 88.6 71.9 88.2 71.1 C 87.7 70.4 87.4 69.4 87.4 68.3 C 87.44 68.27 87.4 51.4 87.4 51.4 Z M 98.5 73 L 98.5 55.5 L 103.2 55.5 L 103.2 58.6 C 103.2 58.6 103.42 58.59 103.4 58.6 C 103.7 57.5 104.3 56.7 105 56.1 C 105.8 55.6 106.6 55.3 107.6 55.3 C 107.9 55.3 108.1 55.3 108.4 55.3 C 108.7 55.4 108.9 55.4 109.1 55.5 C 109.1 55.5 109.1 59.8 109.1 59.8 C 108.9 59.7 108.6 59.6 108.2 59.6 C 107.8 59.5 107.4 59.5 107.1 59.5 C 106.4 59.5 105.7 59.7 105.2 60 C 104.6 60.3 104.2 60.7 103.9 61.2 C 103.6 61.8 103.4 62.4 103.4 63.1 C 103.39 63.12 103.4 73 103.4 73 L 98.5 73 Z M 116.5 73.3 C 115.3 73.3 114.3 73.1 113.5 72.7 C 112.6 72.4 111.9 71.8 111.4 71 C 110.9 70.2 110.7 69.3 110.7 68.1 C 110.7 67.2 110.8 66.3 111.2 65.7 C 111.5 65 112 64.5 112.6 64.1 C 113.3 63.7 114 63.4 114.7 63.2 C 115.5 63 116.4 62.8 117.2 62.7 C 118.2 62.6 119 62.5 119.7 62.4 C 120.3 62.4 120.7 62.2 121 62 C 121.3 61.8 121.4 61.6 121.4 61.2 C 121.4 61.2 121.4 61.1 121.4 61.1 C 121.4 60.4 121.2 59.8 120.8 59.4 C 120.3 59 119.7 58.9 118.9 58.9 C 118 58.9 117.3 59 116.8 59.4 C 116.3 59.8 115.9 60.3 115.8 60.9 C 115.8 60.9 111.3 60.5 111.3 60.5 C 111.5 59.4 111.9 58.5 112.6 57.7 C 113.3 57 114.1 56.4 115.2 55.9 C 116.3 55.5 117.5 55.3 118.9 55.3 C 119.8 55.3 120.8 55.4 121.7 55.7 C 122.6 55.9 123.3 56.2 124 56.7 C 124.7 57.2 125.3 57.8 125.7 58.6 C 126.1 59.3 126.3 60.2 126.3 61.2 C 126.28 61.23 126.3 73 126.3 73 L 121.7 73 L 121.7 70.6 C 121.7 70.6 121.56 70.58 121.6 70.6 C 121.3 71.1 120.9 71.6 120.4 72 C 120 72.4 119.4 72.8 118.7 73 C 118.1 73.2 117.3 73.3 116.5 73.3 Z M 117.8 70 C 118.6 70 119.2 69.8 119.7 69.6 C 120.3 69.3 120.7 68.9 121 68.4 C 121.3 67.9 121.5 67.4 121.5 66.8 C 121.5 66.8 121.5 64.9 121.5 64.9 C 121.3 65 121.1 65.1 120.9 65.2 C 120.6 65.3 120.3 65.3 120 65.4 C 119.7 65.5 119.3 65.5 119 65.6 C 118.7 65.6 118.4 65.7 118.1 65.7 C 117.5 65.8 117 65.9 116.6 66.1 C 116.2 66.3 115.9 66.5 115.6 66.8 C 115.4 67.1 115.3 67.5 115.3 68 C 115.3 68.6 115.5 69.1 116 69.5 C 116.5 69.8 117.1 70 117.8 70 Z M 134.9 62.9 C 134.94 62.91 134.9 73 134.9 73 L 130.1 73 L 130.1 55.5 L 134.7 55.5 L 134.7 58.6 C 134.7 58.6 134.92 58.62 134.9 58.6 C 135.3 57.6 136 56.8 136.9 56.2 C 137.8 55.6 138.9 55.3 140.2 55.3 C 141.4 55.3 142.4 55.6 143.3 56.1 C 144.2 56.6 144.9 57.4 145.4 58.4 C 145.9 59.4 146.2 60.5 146.2 61.9 C 146.19 61.89 146.2 73 146.2 73 L 141.4 73 C 141.4 73 141.35 62.75 141.4 62.7 C 141.4 61.7 141.1 60.8 140.5 60.2 C 140 59.6 139.2 59.3 138.3 59.3 C 137.6 59.3 137 59.5 136.5 59.8 C 136 60 135.6 60.4 135.4 61 C 135.1 61.5 135 62.2 134.9 62.9 Z M 164.3 60.5 C 164.3 60.5 159.9 60.8 159.9 60.8 C 159.8 60.4 159.6 60.1 159.4 59.8 C 159.1 59.5 158.8 59.2 158.4 59 C 158 58.8 157.5 58.7 157 58.7 C 156.2 58.7 155.6 58.9 155.1 59.2 C 154.6 59.5 154.3 60 154.3 60.5 C 154.3 60.9 154.5 61.2 154.8 61.5 C 155.1 61.8 155.7 62.1 156.5 62.2 C 156.5 62.2 159.7 62.9 159.7 62.9 C 161.4 63.2 162.6 63.8 163.5 64.5 C 164.3 65.3 164.7 66.3 164.7 67.6 C 164.7 68.7 164.4 69.7 163.7 70.6 C 163 71.5 162.1 72.1 161 72.6 C 159.8 73.1 158.5 73.3 156.9 73.3 C 154.6 73.3 152.8 72.9 151.4 71.9 C 150.1 70.9 149.3 69.6 149 67.9 C 149 67.9 153.8 67.7 153.8 67.7 C 153.9 68.4 154.3 68.9 154.8 69.3 C 155.4 69.7 156.1 69.9 157 69.9 C 157.8 69.9 158.5 69.7 159 69.4 C 159.5 69 159.8 68.6 159.8 68.1 C 159.8 67.6 159.6 67.3 159.2 67 C 158.9 66.7 158.3 66.5 157.6 66.3 C 157.6 66.3 154.5 65.7 154.5 65.7 C 152.8 65.4 151.6 64.8 150.7 64 C 149.9 63.1 149.5 62.1 149.5 60.7 C 149.5 59.6 149.8 58.7 150.4 57.9 C 151 57 151.9 56.4 153 56 C 154.1 55.5 155.4 55.3 156.9 55.3 C 159.1 55.3 160.8 55.8 162.1 56.7 C 163.4 57.6 164.1 58.9 164.3 60.5 Z M 177 55.5 L 177 59.2 L 166.3 59.2 L 166.3 55.5 L 177 55.5 Z M 168.7 73 C 168.7 73 168.74 54.28 168.7 54.3 C 168.7 53 169 52 169.5 51.1 C 170 50.3 170.7 49.7 171.5 49.3 C 172.4 48.8 173.4 48.6 174.5 48.6 C 175.2 48.6 175.9 48.7 176.5 48.8 C 177.1 48.9 177.6 49 177.9 49.1 C 177.9 49.1 177 52.7 177 52.7 C 176.8 52.7 176.6 52.6 176.3 52.6 C 176 52.5 175.8 52.5 175.5 52.5 C 174.8 52.5 174.3 52.7 174 53 C 173.7 53.3 173.6 53.8 173.6 54.4 C 173.57 54.37 173.6 73 173.6 73 L 168.7 73 Z M 187.2 73.3 C 185.5 73.3 184 73 182.7 72.2 C 181.4 71.5 180.4 70.4 179.7 69.1 C 179 67.7 178.7 66.1 178.7 64.3 C 178.7 62.5 179 61 179.7 59.6 C 180.4 58.3 181.4 57.2 182.7 56.4 C 184 55.7 185.5 55.3 187.2 55.3 C 189 55.3 190.5 55.7 191.8 56.4 C 193.1 57.2 194.1 58.3 194.8 59.6 C 195.5 61 195.8 62.5 195.8 64.3 C 195.8 66.1 195.5 67.7 194.8 69.1 C 194.1 70.4 193.1 71.5 191.8 72.2 C 190.5 73 189 73.3 187.2 73.3 Z M 187.3 69.6 C 188.1 69.6 188.7 69.4 189.3 68.9 C 189.8 68.4 190.2 67.8 190.5 67 C 190.8 66.2 190.9 65.3 190.9 64.3 C 190.9 63.3 190.8 62.4 190.5 61.6 C 190.2 60.8 189.8 60.2 189.3 59.7 C 188.7 59.2 188.1 59 187.3 59 C 186.5 59 185.8 59.2 185.2 59.7 C 184.7 60.2 184.3 60.8 184 61.6 C 183.7 62.4 183.6 63.3 183.6 64.3 C 183.6 65.3 183.7 66.2 184 67 C 184.3 67.8 184.7 68.4 185.2 68.9 C 185.8 69.4 186.5 69.6 187.3 69.6 Z M 198.9 73 L 198.9 55.5 L 203.6 55.5 L 203.6 58.6 C 203.6 58.6 203.78 58.59 203.8 58.6 C 204.1 57.5 204.6 56.7 205.4 56.1 C 206.1 55.6 207 55.3 208 55.3 C 208.2 55.3 208.5 55.3 208.8 55.3 C 209 55.4 209.3 55.4 209.5 55.5 C 209.5 55.5 209.5 59.8 209.5 59.8 C 209.3 59.7 209 59.6 208.6 59.6 C 208.2 59.5 207.8 59.5 207.5 59.5 C 206.7 59.5 206.1 59.7 205.5 60 C 205 60.3 204.6 60.7 204.2 61.2 C 203.9 61.8 203.7 62.4 203.7 63.1 C 203.75 63.12 203.7 73 203.7 73 L 198.9 73 Z M 211.8 73 L 211.8 55.5 L 216.4 55.5 L 216.4 58.6 C 216.4 58.6 216.59 58.62 216.6 58.6 C 217 57.6 217.6 56.8 218.4 56.2 C 219.3 55.6 220.3 55.3 221.5 55.3 C 222.6 55.3 223.7 55.6 224.5 56.2 C 225.3 56.8 225.9 57.6 226.2 58.6 C 226.2 58.6 226.4 58.6 226.4 58.6 C 226.7 57.6 227.4 56.8 228.3 56.2 C 229.2 55.6 230.4 55.3 231.6 55.3 C 233.3 55.3 234.6 55.8 235.6 56.9 C 236.6 57.9 237.1 59.4 237.1 61.3 C 237.13 61.26 237.1 73 237.1 73 L 232.3 73 C 232.3 73 232.3 62.22 232.3 62.2 C 232.3 61.2 232 60.5 231.5 60 C 231 59.5 230.4 59.3 229.6 59.3 C 228.7 59.3 228 59.6 227.5 60.1 C 227.1 60.7 226.8 61.4 226.8 62.3 C 226.8 62.34 226.8 73 226.8 73 L 222.1 73 C 222.1 73 222.11 62.11 222.1 62.1 C 222.1 61.3 221.9 60.6 221.4 60.1 C 220.9 59.6 220.2 59.3 219.5 59.3 C 218.9 59.3 218.4 59.4 218 59.7 C 217.6 60 217.2 60.4 217 60.8 C 216.7 61.3 216.6 61.9 216.6 62.5 C 216.61 62.52 216.6 73 216.6 73 L 211.8 73 Z " stroke="none" fill="#10283d"/>  </g>  <g id="Polygon125547">    <path d="M 43.3 14.4 C 43.3 13.5 42.9 12.8 42.2 12.3 C 41.5 11.8 40.6 11.5 39.4 11.5 C 38.6 11.5 37.9 11.6 37.3 11.9 C 36.8 12.1 36.4 12.4 36.1 12.8 C 35.8 13.2 35.6 13.6 35.6 14.1 C 35.6 14.5 35.7 14.9 35.9 15.2 C 36.1 15.5 36.4 15.8 36.7 16 C 37 16.2 37.4 16.4 37.9 16.6 C 38.3 16.8 38.8 16.9 39.3 17 C 39.3 17 41.4 17.5 41.4 17.5 C 42.4 17.7 43.4 18 44.2 18.4 C 45 18.8 45.8 19.3 46.4 19.8 C 47 20.4 47.5 21 47.9 21.8 C 48.2 22.5 48.4 23.4 48.4 24.4 C 48.4 25.8 48 27 47.3 28.1 C 46.6 29.1 45.6 29.9 44.2 30.5 C 42.9 31 41.2 31.3 39.3 31.3 C 37.5 31.3 35.8 31 34.4 30.5 C 33.1 29.9 32 29 31.2 27.9 C 30.4 26.8 30 25.4 30 23.7 C 30 23.7 34.7 23.7 34.7 23.7 C 34.8 24.5 35 25.1 35.4 25.6 C 35.8 26.2 36.3 26.6 37 26.8 C 37.7 27.1 38.4 27.2 39.3 27.2 C 40.1 27.2 40.9 27.1 41.5 26.8 C 42.1 26.6 42.6 26.3 42.9 25.8 C 43.2 25.4 43.4 24.9 43.4 24.3 C 43.4 23.8 43.3 23.4 43 23 C 42.6 22.7 42.2 22.4 41.6 22.1 C 41 21.9 40.3 21.6 39.5 21.4 C 39.5 21.4 36.9 20.8 36.9 20.8 C 35 20.3 33.4 19.6 32.3 18.6 C 31.1 17.5 30.6 16.2 30.6 14.5 C 30.6 13 31 11.8 31.7 10.8 C 32.5 9.7 33.5 8.9 34.9 8.3 C 36.2 7.7 37.7 7.4 39.4 7.4 C 41.1 7.4 42.6 7.7 43.9 8.3 C 45.2 8.9 46.2 9.7 47 10.8 C 47.7 11.8 48 13 48.1 14.4 C 48.1 14.4 43.3 14.4 43.3 14.4 Z M 51.7 31 L 51.7 13.5 L 56.6 13.5 L 56.6 31 L 51.7 31 Z M 54.2 11.3 C 53.4 11.3 52.8 11.1 52.3 10.6 C 51.8 10.1 51.5 9.5 51.5 8.9 C 51.5 8.2 51.8 7.6 52.3 7.1 C 52.8 6.6 53.5 6.4 54.2 6.4 C 54.9 6.4 55.5 6.6 56 7.1 C 56.5 7.6 56.8 8.2 56.8 8.8 C 56.8 9.5 56.5 10.1 56 10.6 C 55.5 11.1 54.9 11.3 54.2 11.3 Z M 60.5 31 L 60.5 13.5 L 65.1 13.5 L 65.1 16.6 C 65.1 16.6 65.29 16.62 65.3 16.6 C 65.6 15.6 66.3 14.8 67.1 14.2 C 68 13.6 69 13.3 70.1 13.3 C 71.3 13.3 72.4 13.6 73.2 14.2 C 74 14.8 74.6 15.6 74.9 16.6 C 74.9 16.6 75.1 16.6 75.1 16.6 C 75.4 15.6 76.1 14.8 77 14.2 C 77.9 13.6 79.1 13.3 80.3 13.3 C 82 13.3 83.3 13.8 84.3 14.9 C 85.3 15.9 85.8 17.4 85.8 19.3 C 85.83 19.26 85.8 31 85.8 31 L 81 31 C 81 31 81 20.22 81 20.2 C 81 19.2 80.7 18.5 80.2 18 C 79.7 17.5 79.1 17.3 78.3 17.3 C 77.4 17.3 76.7 17.6 76.2 18.1 C 75.7 18.7 75.5 19.4 75.5 20.3 C 75.5 20.34 75.5 31 75.5 31 L 70.8 31 C 70.8 31 70.81 20.11 70.8 20.1 C 70.8 19.3 70.6 18.6 70.1 18.1 C 69.6 17.6 68.9 17.3 68.1 17.3 C 67.6 17.3 67.1 17.4 66.7 17.7 C 66.3 18 65.9 18.4 65.7 18.8 C 65.4 19.3 65.3 19.9 65.3 20.5 C 65.31 20.52 65.3 31 65.3 31 L 60.5 31 Z M 89.7 37.5 L 89.7 13.5 L 94.4 13.5 L 94.4 16.5 C 94.4 16.5 94.65 16.48 94.7 16.5 C 94.9 16 95.2 15.5 95.6 15 C 96 14.6 96.5 14.1 97.2 13.8 C 97.8 13.5 98.6 13.3 99.6 13.3 C 100.9 13.3 102.1 13.6 103.1 14.3 C 104.2 15 105.1 16 105.7 17.3 C 106.4 18.6 106.7 20.3 106.7 22.3 C 106.7 24.2 106.4 25.9 105.7 27.2 C 105.1 28.6 104.3 29.6 103.2 30.3 C 102.1 30.9 100.9 31.3 99.6 31.3 C 98.7 31.3 97.9 31.1 97.2 30.8 C 96.6 30.5 96 30.1 95.6 29.6 C 95.2 29.2 94.9 28.7 94.7 28.2 C 94.65 28.2 94.5 28.2 94.5 28.2 L 94.5 37.5 L 89.7 37.5 Z M 94.4 22.3 C 94.4 23.3 94.5 24.2 94.8 25 C 95.1 25.8 95.5 26.4 96.1 26.8 C 96.6 27.2 97.3 27.4 98.1 27.4 C 98.9 27.4 99.5 27.2 100.1 26.8 C 100.6 26.3 101 25.7 101.3 25 C 101.6 24.2 101.7 23.3 101.7 22.3 C 101.7 21.3 101.6 20.4 101.3 19.6 C 101 18.8 100.6 18.2 100.1 17.8 C 99.5 17.4 98.9 17.2 98.1 17.2 C 97.3 17.2 96.6 17.4 96.1 17.8 C 95.5 18.2 95.1 18.8 94.8 19.6 C 94.5 20.3 94.4 21.2 94.4 22.3 Z M 114.8 7.7 L 114.8 31 L 109.9 31 L 109.9 7.7 L 114.8 7.7 Z M 118.6 31 L 118.6 13.5 L 123.5 13.5 L 123.5 31 L 118.6 31 Z M 121.1 11.3 C 120.4 11.3 119.7 11.1 119.2 10.6 C 118.7 10.1 118.5 9.5 118.5 8.9 C 118.5 8.2 118.7 7.6 119.2 7.1 C 119.8 6.6 120.4 6.4 121.1 6.4 C 121.8 6.4 122.4 6.6 122.9 7.1 C 123.4 7.6 123.7 8.2 123.7 8.8 C 123.7 9.5 123.4 10.1 122.9 10.6 C 122.4 11.1 121.8 11.3 121.1 11.3 Z M 136.6 13.5 L 136.6 17.2 L 125.9 17.2 L 125.9 13.5 L 136.6 13.5 Z M 128.3 31 C 128.3 31 128.33 12.28 128.3 12.3 C 128.3 11 128.6 10 129.1 9.1 C 129.6 8.3 130.2 7.7 131.1 7.3 C 132 6.8 133 6.6 134.1 6.6 C 134.8 6.6 135.5 6.7 136.1 6.8 C 136.7 6.9 137.2 7 137.5 7.1 C 137.5 7.1 136.6 10.7 136.6 10.7 C 136.4 10.7 136.2 10.6 135.9 10.6 C 135.6 10.5 135.4 10.5 135.1 10.5 C 134.4 10.5 133.9 10.7 133.6 11 C 133.3 11.3 133.2 11.8 133.2 12.4 C 133.16 12.37 133.2 31 133.2 31 L 128.3 31 Z M 142.8 37.5 C 142.2 37.5 141.6 37.5 141.1 37.4 C 140.6 37.3 140.1 37.2 139.8 37 C 139.8 37 140.9 33.4 140.9 33.4 C 141.4 33.6 142 33.7 142.4 33.7 C 142.9 33.7 143.3 33.6 143.6 33.4 C 143.9 33.2 144.2 32.8 144.4 32.2 C 144.43 32.24 144.7 31.5 144.7 31.5 L 138.5 13.5 L 143.5 13.5 L 147.2 26.4 L 147.3 26.4 L 151 13.5 L 156.1 13.5 C 156.1 13.5 149.33 32.89 149.3 32.9 C 149 33.8 148.6 34.6 148 35.3 C 147.4 36 146.7 36.6 145.9 37 C 145 37.4 144 37.5 142.8 37.5 Z M 170.8 20.9 C 170.85 20.91 170.8 31 170.8 31 L 166 31 L 166 7.7 L 170.7 7.7 L 170.7 16.6 C 170.7 16.6 170.92 16.62 170.9 16.6 C 171.3 15.6 171.9 14.8 172.8 14.2 C 173.7 13.6 174.8 13.3 176.1 13.3 C 177.3 13.3 178.4 13.6 179.3 14.1 C 180.2 14.6 180.9 15.4 181.4 16.4 C 181.9 17.4 182.2 18.5 182.2 19.9 C 182.17 19.89 182.2 31 182.2 31 L 177.3 31 C 177.3 31 177.33 20.75 177.3 20.7 C 177.3 19.7 177.1 18.8 176.5 18.2 C 176 17.6 175.2 17.3 174.2 17.3 C 173.6 17.3 173 17.5 172.5 17.8 C 172 18 171.6 18.4 171.3 19 C 171 19.5 170.9 20.2 170.8 20.9 Z M 193.7 31.3 C 192 31.3 190.5 31 189.2 30.2 C 187.9 29.5 186.9 28.4 186.2 27.1 C 185.5 25.7 185.2 24.1 185.2 22.3 C 185.2 20.5 185.5 19 186.2 17.6 C 186.9 16.3 187.9 15.2 189.2 14.4 C 190.5 13.7 192 13.3 193.7 13.3 C 195.5 13.3 197 13.7 198.3 14.4 C 199.6 15.2 200.6 16.3 201.3 17.6 C 202 19 202.3 20.5 202.3 22.3 C 202.3 24.1 202 25.7 201.3 27.1 C 200.6 28.4 199.6 29.5 198.3 30.2 C 197 31 195.5 31.3 193.7 31.3 Z M 193.8 27.6 C 194.6 27.6 195.2 27.4 195.8 26.9 C 196.3 26.4 196.7 25.8 197 25 C 197.3 24.2 197.4 23.3 197.4 22.3 C 197.4 21.3 197.3 20.4 197 19.6 C 196.7 18.8 196.3 18.2 195.8 17.7 C 195.2 17.2 194.6 17 193.8 17 C 193 17 192.3 17.2 191.7 17.7 C 191.2 18.2 190.8 18.8 190.5 19.6 C 190.2 20.4 190.1 21.3 190.1 22.3 C 190.1 23.3 190.2 24.2 190.5 25 C 190.8 25.8 191.2 26.4 191.7 26.9 C 192.3 27.4 193 27.6 193.8 27.6 Z M 208.2 31 L 203.5 13.5 L 208.4 13.5 L 211.1 25.3 L 211.2 25.3 L 214 13.5 L 218.8 13.5 L 221.7 25.2 L 221.9 25.2 L 224.5 13.5 L 229.4 13.5 L 224.7 31 L 219.5 31 L 216.5 20 L 216.3 20 L 213.3 31 L 208.2 31 Z " stroke="none" fill="#10283d"/>  </g></svg>