<?xml version="1.0" standalone="no"?><!DOCTYPE svg PUBLIC "-//W3C//DTD SVG 1.1//EN" "http://www.w3.org/Graphics/SVG/1.1/DTD/svg11.dtd"><svg xmlns="http://www.w3.org/2000/svg" version="1.1" width="241.3px" height="182.7px" viewBox="0 -5 241.3 182.7" style="top:-5px">  <desc>Simplify how you transform and activate your data</desc>  <defs/>  <g id="Polygon125154">    <path d="M 52.1 163.5 C 51.5 163.5 50.9 163.5 50.4 163.4 C 49.9 163.3 49.4 163.2 49.1 163 C 49.1 163 50.2 159.4 50.2 159.4 C 50.7 159.6 51.2 159.7 51.7 159.7 C 52.2 159.7 52.6 159.6 52.9 159.4 C 53.2 159.2 53.5 158.8 53.7 158.2 C 53.72 158.24 54 157.5 54 157.5 L 47.7 139.5 L 52.8 139.5 L 56.5 152.4 L 56.6 152.4 L 60.3 139.5 L 65.4 139.5 C 65.4 139.5 58.62 158.89 58.6 158.9 C 58.3 159.8 57.9 160.6 57.3 161.3 C 56.7 162 56 162.6 55.2 163 C 54.3 163.4 53.3 163.5 52.1 163.5 Z M 74.8 157.3 C 73.1 157.3 71.6 157 70.3 156.2 C 69 155.5 68 154.4 67.3 153.1 C 66.6 151.7 66.2 150.1 66.2 148.3 C 66.2 146.5 66.6 145 67.3 143.6 C 68 142.3 69 141.2 70.3 140.4 C 71.6 139.7 73.1 139.3 74.8 139.3 C 76.6 139.3 78.1 139.7 79.4 140.4 C 80.7 141.2 81.7 142.3 82.4 143.6 C 83.1 145 83.4 146.5 83.4 148.3 C 83.4 150.1 83.1 151.7 82.4 153.1 C 81.7 154.4 80.7 155.5 79.4 156.2 C 78.1 157 76.6 157.3 74.8 157.3 Z M 74.9 153.6 C 75.7 153.6 76.3 153.4 76.9 152.9 C 77.4 152.4 77.8 151.8 78.1 151 C 78.4 150.2 78.5 149.3 78.5 148.3 C 78.5 147.3 78.4 146.4 78.1 145.6 C 77.8 144.8 77.4 144.2 76.9 143.7 C 76.3 143.2 75.7 143 74.9 143 C 74.1 143 73.4 143.2 72.8 143.7 C 72.3 144.2 71.9 144.8 71.6 145.6 C 71.3 146.4 71.2 147.3 71.2 148.3 C 71.2 149.3 71.3 150.2 71.6 151 C 71.9 151.8 72.3 152.4 72.8 152.9 C 73.4 153.4 74.1 153.6 74.9 153.6 Z M 97.6 149.6 C 97.64 149.57 97.6 139.5 97.6 139.5 L 102.5 139.5 L 102.5 157 L 97.8 157 L 97.8 153.8 C 97.8 153.8 97.65 153.83 97.7 153.8 C 97.3 154.9 96.6 155.7 95.7 156.3 C 94.8 156.9 93.7 157.2 92.4 157.2 C 91.2 157.2 90.2 157 89.3 156.4 C 88.4 155.9 87.7 155.1 87.2 154.2 C 86.7 153.2 86.5 152 86.4 150.7 C 86.45 150.66 86.4 139.5 86.4 139.5 L 91.3 139.5 C 91.3 139.5 91.29 149.8 91.3 149.8 C 91.3 150.8 91.6 151.6 92.1 152.2 C 92.7 152.8 93.4 153.1 94.3 153.1 C 94.9 153.1 95.4 153 95.9 152.7 C 96.5 152.5 96.9 152.1 97.2 151.5 C 97.5 151 97.6 150.3 97.6 149.6 Z M 106.4 157 L 106.4 139.5 L 111.1 139.5 L 111.1 142.6 C 111.1 142.6 111.25 142.59 111.2 142.6 C 111.6 141.5 112.1 140.7 112.9 140.1 C 113.6 139.6 114.5 139.3 115.4 139.3 C 115.7 139.3 115.9 139.3 116.2 139.3 C 116.5 139.4 116.8 139.4 117 139.5 C 117 139.5 117 143.8 117 143.8 C 116.7 143.7 116.4 143.6 116 143.6 C 115.6 143.5 115.3 143.5 114.9 143.5 C 114.2 143.5 113.6 143.7 113 144 C 112.5 144.3 112 144.7 111.7 145.2 C 111.4 145.8 111.2 146.4 111.2 147.1 C 111.21 147.13 111.2 157 111.2 157 L 106.4 157 Z M 133.3 157.3 C 132 157.3 130.8 156.9 129.7 156.3 C 128.6 155.6 127.8 154.6 127.2 153.2 C 126.5 151.9 126.2 150.2 126.2 148.3 C 126.2 146.3 126.5 144.6 127.2 143.3 C 127.8 142 128.7 141 129.8 140.3 C 130.8 139.6 132 139.3 133.3 139.3 C 134.3 139.3 135.1 139.5 135.7 139.8 C 136.4 140.1 136.9 140.6 137.3 141 C 137.7 141.5 138 142 138.3 142.5 C 138.26 142.48 138.4 142.5 138.4 142.5 L 138.4 133.7 L 143.2 133.7 L 143.2 157 L 138.5 157 L 138.5 154.2 C 138.5 154.2 138.26 154.2 138.3 154.2 C 138 154.7 137.7 155.2 137.3 155.6 C 136.9 156.1 136.4 156.5 135.7 156.8 C 135 157.1 134.2 157.3 133.3 157.3 Z M 134.8 153.4 C 135.6 153.4 136.3 153.2 136.8 152.8 C 137.4 152.4 137.8 151.8 138.1 151 C 138.4 150.2 138.5 149.3 138.5 148.3 C 138.5 147.2 138.4 146.3 138.1 145.6 C 137.8 144.8 137.4 144.2 136.8 143.8 C 136.3 143.4 135.6 143.2 134.8 143.2 C 134 143.2 133.4 143.4 132.8 143.8 C 132.3 144.3 131.9 144.8 131.6 145.6 C 131.3 146.4 131.2 147.3 131.2 148.3 C 131.2 149.3 131.3 150.2 131.6 151 C 131.9 151.7 132.3 152.3 132.8 152.8 C 133.4 153.2 134 153.4 134.8 153.4 Z M 152.1 157.3 C 151 157.3 150 157.1 149.1 156.7 C 148.3 156.4 147.6 155.8 147.1 155 C 146.6 154.2 146.3 153.3 146.3 152.1 C 146.3 151.2 146.5 150.3 146.8 149.7 C 147.2 149 147.7 148.5 148.3 148.1 C 148.9 147.7 149.6 147.4 150.4 147.2 C 151.2 147 152 146.8 152.9 146.8 C 153.9 146.6 154.7 146.5 155.3 146.4 C 155.9 146.4 156.4 146.2 156.7 146 C 156.9 145.8 157.1 145.6 157.1 145.2 C 157.1 145.2 157.1 145.1 157.1 145.1 C 157.1 144.4 156.9 143.8 156.4 143.4 C 156 143 155.3 142.9 154.5 142.9 C 153.6 142.9 152.9 143 152.4 143.4 C 151.9 143.8 151.6 144.3 151.4 144.9 C 151.4 144.9 146.9 144.5 146.9 144.5 C 147.1 143.4 147.6 142.5 148.3 141.7 C 148.9 141 149.8 140.4 150.8 139.9 C 151.9 139.5 153.1 139.3 154.5 139.3 C 155.5 139.3 156.4 139.4 157.3 139.7 C 158.2 139.9 159 140.2 159.7 140.7 C 160.4 141.2 160.9 141.8 161.3 142.6 C 161.7 143.3 161.9 144.2 161.9 145.2 C 161.93 145.23 161.9 157 161.9 157 L 157.3 157 L 157.3 154.6 C 157.3 154.6 157.2 154.58 157.2 154.6 C 156.9 155.1 156.5 155.6 156.1 156 C 155.6 156.4 155 156.8 154.4 157 C 153.7 157.2 153 157.3 152.1 157.3 Z M 153.5 154 C 154.2 154 154.8 153.8 155.4 153.6 C 155.9 153.3 156.3 152.9 156.7 152.4 C 157 151.9 157.1 151.4 157.1 150.8 C 157.1 150.8 157.1 148.9 157.1 148.9 C 157 149 156.8 149.1 156.5 149.2 C 156.2 149.3 155.9 149.3 155.6 149.4 C 155.3 149.5 155 149.5 154.6 149.6 C 154.3 149.6 154 149.7 153.8 149.7 C 153.2 149.8 152.7 149.9 152.3 150.1 C 151.8 150.3 151.5 150.5 151.3 150.8 C 151 151.1 150.9 151.5 150.9 152 C 150.9 152.6 151.2 153.1 151.6 153.5 C 152.1 153.8 152.7 154 153.5 154 Z M 174.6 139.5 L 174.6 143.2 L 164.1 143.2 L 164.1 139.5 L 174.6 139.5 Z M 166.5 135.4 L 171.3 135.4 C 171.3 135.4 171.33 151.64 171.3 151.6 C 171.3 152.1 171.4 152.4 171.5 152.7 C 171.7 152.9 171.9 153.1 172.1 153.2 C 172.4 153.3 172.6 153.3 173 153.3 C 173.2 153.3 173.4 153.3 173.7 153.3 C 173.9 153.2 174.1 153.2 174.2 153.2 C 174.2 153.2 174.9 156.8 174.9 156.8 C 174.7 156.9 174.4 156.9 173.9 157.1 C 173.5 157.2 172.9 157.2 172.3 157.2 C 171.1 157.3 170.1 157.1 169.2 156.8 C 168.4 156.4 167.7 155.9 167.2 155.1 C 166.7 154.4 166.5 153.4 166.5 152.3 C 166.49 152.27 166.5 135.4 166.5 135.4 Z M 182.4 157.3 C 181.3 157.3 180.3 157.1 179.4 156.7 C 178.6 156.4 177.9 155.8 177.4 155 C 176.9 154.2 176.6 153.3 176.6 152.1 C 176.6 151.2 176.8 150.3 177.1 149.7 C 177.5 149 178 148.5 178.6 148.1 C 179.2 147.7 179.9 147.4 180.7 147.2 C 181.5 147 182.3 146.8 183.2 146.8 C 184.2 146.6 185 146.5 185.6 146.4 C 186.2 146.4 186.7 146.2 187 146 C 187.2 145.8 187.4 145.6 187.4 145.2 C 187.4 145.2 187.4 145.1 187.4 145.1 C 187.4 144.4 187.2 143.8 186.7 143.4 C 186.3 143 185.6 142.9 184.8 142.9 C 183.9 142.9 183.2 143 182.7 143.4 C 182.2 143.8 181.9 144.3 181.7 144.9 C 181.7 144.9 177.2 144.5 177.2 144.5 C 177.4 143.4 177.9 142.5 178.6 141.7 C 179.2 141 180.1 140.4 181.1 139.9 C 182.2 139.5 183.4 139.3 184.8 139.3 C 185.8 139.3 186.7 139.4 187.6 139.7 C 188.5 139.9 189.3 140.2 190 140.7 C 190.7 141.2 191.2 141.8 191.6 142.6 C 192 143.3 192.2 144.2 192.2 145.2 C 192.23 145.23 192.2 157 192.2 157 L 187.6 157 L 187.6 154.6 C 187.6 154.6 187.5 154.58 187.5 154.6 C 187.2 155.1 186.8 155.6 186.4 156 C 185.9 156.4 185.3 156.8 184.7 157 C 184 157.2 183.3 157.3 182.4 157.3 Z M 183.8 154 C 184.5 154 185.1 153.8 185.7 153.6 C 186.2 153.3 186.6 152.9 187 152.4 C 187.3 151.9 187.4 151.4 187.4 150.8 C 187.4 150.8 187.4 148.9 187.4 148.9 C 187.3 149 187.1 149.1 186.8 149.2 C 186.5 149.3 186.2 149.3 185.9 149.4 C 185.6 149.5 185.3 149.5 184.9 149.6 C 184.6 149.6 184.3 149.7 184.1 149.7 C 183.5 149.8 183 149.9 182.6 150.1 C 182.1 150.3 181.8 150.5 181.6 150.8 C 181.3 151.1 181.2 151.5 181.2 152 C 181.2 152.6 181.5 153.1 182 153.5 C 182.4 153.8 183 154 183.8 154 Z " stroke="none" fill="#10283d"/>  </g>  <g id="Polygon125153">    <path d="M 32 115.3 C 30.9 115.3 29.9 115.1 29 114.7 C 28.2 114.4 27.5 113.8 27 113 C 26.5 112.2 26.2 111.3 26.2 110.1 C 26.2 109.2 26.4 108.3 26.7 107.7 C 27.1 107 27.6 106.5 28.2 106.1 C 28.8 105.7 29.5 105.4 30.3 105.2 C 31.1 105 31.9 104.8 32.8 104.8 C 33.8 104.6 34.6 104.5 35.2 104.4 C 35.8 104.4 36.3 104.2 36.6 104 C 36.9 103.8 37 103.6 37 103.2 C 37 103.2 37 103.1 37 103.1 C 37 102.4 36.8 101.8 36.3 101.4 C 35.9 101 35.2 100.9 34.4 100.9 C 33.5 100.9 32.8 101 32.3 101.4 C 31.8 101.8 31.5 102.3 31.3 102.9 C 31.3 102.9 26.8 102.5 26.8 102.5 C 27.1 101.4 27.5 100.5 28.2 99.7 C 28.8 99 29.7 98.4 30.7 97.9 C 31.8 97.5 33 97.3 34.4 97.3 C 35.4 97.3 36.3 97.4 37.2 97.7 C 38.1 97.9 38.9 98.2 39.6 98.7 C 40.3 99.2 40.8 99.8 41.2 100.6 C 41.6 101.3 41.8 102.2 41.8 103.2 C 41.84 103.23 41.8 115 41.8 115 L 37.2 115 L 37.2 112.6 C 37.2 112.6 37.11 112.58 37.1 112.6 C 36.8 113.1 36.5 113.6 36 114 C 35.5 114.4 34.9 114.8 34.3 115 C 33.6 115.2 32.9 115.3 32 115.3 Z M 33.4 112 C 34.1 112 34.7 111.8 35.3 111.6 C 35.8 111.3 36.3 110.9 36.6 110.4 C 36.9 109.9 37 109.4 37 108.8 C 37 108.8 37 106.9 37 106.9 C 36.9 107 36.7 107.1 36.4 107.2 C 36.1 107.3 35.9 107.3 35.5 107.4 C 35.2 107.5 34.9 107.5 34.6 107.6 C 34.2 107.6 33.9 107.7 33.7 107.7 C 33.1 107.8 32.6 107.9 32.2 108.1 C 31.8 108.3 31.4 108.5 31.2 108.8 C 31 109.1 30.8 109.5 30.8 110 C 30.8 110.6 31.1 111.1 31.6 111.5 C 32 111.8 32.6 112 33.4 112 Z M 50.5 104.9 C 50.49 104.91 50.5 115 50.5 115 L 45.7 115 L 45.7 97.5 L 50.3 97.5 L 50.3 100.6 C 50.3 100.6 50.47 100.63 50.5 100.6 C 50.9 99.6 51.5 98.8 52.4 98.2 C 53.3 97.6 54.4 97.3 55.7 97.3 C 56.9 97.3 58 97.6 58.9 98.1 C 59.8 98.6 60.5 99.4 61 100.4 C 61.5 101.4 61.7 102.5 61.7 103.9 C 61.74 103.89 61.7 115 61.7 115 L 56.9 115 C 56.9 115 56.9 104.75 56.9 104.8 C 56.9 103.7 56.6 102.8 56.1 102.2 C 55.5 101.6 54.8 101.3 53.8 101.3 C 53.1 101.3 52.6 101.5 52.1 101.8 C 51.6 102 51.2 102.4 50.9 103 C 50.6 103.5 50.5 104.2 50.5 104.9 Z M 71.9 115.3 C 70.6 115.3 69.4 114.9 68.3 114.3 C 67.2 113.6 66.4 112.6 65.8 111.2 C 65.1 109.9 64.8 108.2 64.8 106.3 C 64.8 104.3 65.1 102.6 65.8 101.3 C 66.4 100 67.3 99 68.4 98.3 C 69.4 97.6 70.6 97.3 71.9 97.3 C 72.9 97.3 73.7 97.5 74.3 97.8 C 75 98.1 75.5 98.6 75.9 99 C 76.3 99.5 76.6 100 76.8 100.5 C 76.85 100.48 77 100.5 77 100.5 L 77 91.7 L 81.8 91.7 L 81.8 115 L 77.1 115 L 77.1 112.2 C 77.1 112.2 76.85 112.2 76.8 112.2 C 76.6 112.7 76.3 113.2 75.9 113.6 C 75.5 114.1 74.9 114.5 74.3 114.8 C 73.6 115.1 72.8 115.3 71.9 115.3 Z M 73.4 111.4 C 74.2 111.4 74.9 111.2 75.4 110.8 C 76 110.4 76.4 109.8 76.7 109 C 77 108.2 77.1 107.3 77.1 106.3 C 77.1 105.2 77 104.3 76.7 103.6 C 76.4 102.8 76 102.2 75.4 101.8 C 74.9 101.4 74.2 101.2 73.4 101.2 C 72.6 101.2 72 101.4 71.4 101.8 C 70.9 102.3 70.5 102.8 70.2 103.6 C 69.9 104.4 69.8 105.3 69.8 106.3 C 69.8 107.3 69.9 108.2 70.2 109 C 70.5 109.7 70.9 110.3 71.4 110.8 C 72 111.2 72.6 111.4 73.4 111.4 Z M 98.2 115.3 C 97.1 115.3 96.1 115.1 95.2 114.7 C 94.3 114.4 93.7 113.8 93.1 113 C 92.6 112.2 92.4 111.3 92.4 110.1 C 92.4 109.2 92.6 108.3 92.9 107.7 C 93.3 107 93.8 106.5 94.4 106.1 C 95 105.7 95.7 105.4 96.5 105.2 C 97.3 105 98.1 104.8 98.9 104.8 C 100 104.6 100.8 104.5 101.4 104.4 C 102 104.4 102.5 104.2 102.8 104 C 103 103.8 103.2 103.6 103.2 103.2 C 103.2 103.2 103.2 103.1 103.2 103.1 C 103.2 102.4 103 101.8 102.5 101.4 C 102.1 101 101.4 100.9 100.6 100.9 C 99.7 100.9 99 101 98.5 101.4 C 98 101.8 97.7 102.3 97.5 102.9 C 97.5 102.9 93 102.5 93 102.5 C 93.2 101.4 93.7 100.5 94.3 99.7 C 95 99 95.9 98.4 96.9 97.9 C 98 97.5 99.2 97.3 100.6 97.3 C 101.6 97.3 102.5 97.4 103.4 97.7 C 104.3 97.9 105.1 98.2 105.8 98.7 C 106.5 99.2 107 99.8 107.4 100.6 C 107.8 101.3 108 102.2 108 103.2 C 108.02 103.23 108 115 108 115 L 103.4 115 L 103.4 112.6 C 103.4 112.6 103.29 112.58 103.3 112.6 C 103 113.1 102.6 113.6 102.2 114 C 101.7 114.4 101.1 114.8 100.5 115 C 99.8 115.2 99.1 115.3 98.2 115.3 Z M 99.6 112 C 100.3 112 100.9 111.8 101.5 111.6 C 102 111.3 102.4 110.9 102.7 110.4 C 103.1 109.9 103.2 109.4 103.2 108.8 C 103.2 108.8 103.2 106.9 103.2 106.9 C 103.1 107 102.9 107.1 102.6 107.2 C 102.3 107.3 102 107.3 101.7 107.4 C 101.4 107.5 101.1 107.5 100.7 107.6 C 100.4 107.6 100.1 107.7 99.8 107.7 C 99.3 107.8 98.8 107.9 98.4 108.1 C 97.9 108.3 97.6 108.5 97.4 108.8 C 97.1 109.1 97 109.5 97 110 C 97 110.6 97.3 111.1 97.7 111.5 C 98.2 111.8 98.8 112 99.6 112 Z M 119.6 115.3 C 117.8 115.3 116.3 115 115 114.2 C 113.7 113.4 112.7 112.4 112 111 C 111.3 109.7 111 108.1 111 106.3 C 111 104.6 111.3 103 112 101.6 C 112.7 100.3 113.7 99.2 115 98.5 C 116.3 97.7 117.8 97.3 119.6 97.3 C 121.1 97.3 122.4 97.6 123.6 98.1 C 124.7 98.7 125.6 99.5 126.3 100.5 C 126.9 101.5 127.3 102.7 127.4 104 C 127.4 104 122.8 104 122.8 104 C 122.7 103.1 122.3 102.4 121.8 101.9 C 121.2 101.4 120.5 101.1 119.6 101.1 C 118.9 101.1 118.2 101.3 117.7 101.7 C 117.1 102.1 116.7 102.7 116.4 103.5 C 116.1 104.2 115.9 105.2 115.9 106.3 C 115.9 107.4 116.1 108.3 116.4 109.1 C 116.7 109.9 117.1 110.5 117.7 110.9 C 118.2 111.3 118.9 111.5 119.6 111.5 C 120.2 111.5 120.7 111.4 121.1 111.2 C 121.6 110.9 121.9 110.6 122.2 110.2 C 122.5 109.7 122.7 109.2 122.8 108.6 C 122.8 108.6 127.4 108.6 127.4 108.6 C 127.3 109.9 126.9 111.1 126.3 112.1 C 125.6 113.1 124.7 113.9 123.6 114.5 C 122.5 115.1 121.1 115.3 119.6 115.3 Z M 139.6 97.5 L 139.6 101.2 L 129.1 101.2 L 129.1 97.5 L 139.6 97.5 Z M 131.5 93.4 L 136.3 93.4 C 136.3 93.4 136.31 109.64 136.3 109.6 C 136.3 110.1 136.4 110.4 136.5 110.7 C 136.6 110.9 136.8 111.1 137.1 111.2 C 137.3 111.3 137.6 111.3 137.9 111.3 C 138.2 111.3 138.4 111.3 138.6 111.3 C 138.9 111.2 139 111.2 139.1 111.2 C 139.1 111.2 139.9 114.8 139.9 114.8 C 139.7 114.9 139.3 114.9 138.9 115.1 C 138.4 115.2 137.9 115.2 137.3 115.2 C 136.1 115.3 135.1 115.1 134.2 114.8 C 133.3 114.4 132.7 113.9 132.2 113.1 C 131.7 112.4 131.5 111.4 131.5 110.3 C 131.47 110.27 131.5 93.4 131.5 93.4 Z M 142.6 115 L 142.6 97.5 L 147.4 97.5 L 147.4 115 L 142.6 115 Z M 145 95.3 C 144.3 95.3 143.7 95.1 143.2 94.6 C 142.7 94.1 142.4 93.5 142.4 92.9 C 142.4 92.2 142.7 91.6 143.2 91.1 C 143.7 90.6 144.3 90.4 145 90.4 C 145.8 90.4 146.4 90.6 146.9 91.1 C 147.4 91.6 147.6 92.2 147.6 92.8 C 147.6 93.5 147.4 94.1 146.9 94.6 C 146.4 95.1 145.8 95.3 145 95.3 Z M 167.4 97.5 L 161.3 115 L 155.8 115 L 149.7 97.5 L 154.8 97.5 L 158.4 110 L 158.6 110 L 162.2 97.5 L 167.4 97.5 Z M 174 115.3 C 172.9 115.3 171.9 115.1 171 114.7 C 170.1 114.4 169.4 113.8 168.9 113 C 168.4 112.2 168.2 111.3 168.2 110.1 C 168.2 109.2 168.4 108.3 168.7 107.7 C 169.1 107 169.5 106.5 170.2 106.1 C 170.8 105.7 171.5 105.4 172.3 105.2 C 173 105 173.9 104.8 174.7 104.8 C 175.7 104.6 176.6 104.5 177.2 104.4 C 177.8 104.4 178.3 104.2 178.5 104 C 178.8 103.8 179 103.6 179 103.2 C 179 103.2 179 103.1 179 103.1 C 179 102.4 178.7 101.8 178.3 101.4 C 177.8 101 177.2 100.9 176.4 100.9 C 175.5 100.9 174.8 101 174.3 101.4 C 173.8 101.8 173.4 102.3 173.3 102.9 C 173.3 102.9 168.8 102.5 168.8 102.5 C 169 101.4 169.5 100.5 170.1 99.7 C 170.8 99 171.7 98.4 172.7 97.9 C 173.8 97.5 175 97.3 176.4 97.3 C 177.4 97.3 178.3 97.4 179.2 97.7 C 180.1 97.9 180.9 98.2 181.6 98.7 C 182.2 99.2 182.8 99.8 183.2 100.6 C 183.6 101.3 183.8 102.2 183.8 103.2 C 183.8 103.23 183.8 115 183.8 115 L 179.2 115 L 179.2 112.6 C 179.2 112.6 179.07 112.58 179.1 112.6 C 178.8 113.1 178.4 113.6 177.9 114 C 177.5 114.4 176.9 114.8 176.3 115 C 175.6 115.2 174.8 115.3 174 115.3 Z M 175.4 112 C 176.1 112 176.7 111.8 177.2 111.6 C 177.8 111.3 178.2 110.9 178.5 110.4 C 178.8 109.9 179 109.4 179 108.8 C 179 108.8 179 106.9 179 106.9 C 178.8 107 178.6 107.1 178.4 107.2 C 178.1 107.3 177.8 107.3 177.5 107.4 C 177.2 107.5 176.8 107.5 176.5 107.6 C 176.2 107.6 175.9 107.7 175.6 107.7 C 175.1 107.8 174.6 107.9 174.1 108.1 C 173.7 108.3 173.4 108.5 173.2 108.8 C 172.9 109.1 172.8 109.5 172.8 110 C 172.8 110.6 173 111.1 173.5 111.5 C 174 111.8 174.6 112 175.4 112 Z M 196.5 97.5 L 196.5 101.2 L 186 101.2 L 186 97.5 L 196.5 97.5 Z M 188.4 93.4 L 193.2 93.4 C 193.2 93.4 193.2 109.64 193.2 109.6 C 193.2 110.1 193.3 110.4 193.4 110.7 C 193.5 110.9 193.7 111.1 194 111.2 C 194.2 111.3 194.5 111.3 194.8 111.3 C 195.1 111.3 195.3 111.3 195.5 111.3 C 195.7 111.2 195.9 111.2 196 111.2 C 196 111.2 196.8 114.8 196.8 114.8 C 196.6 114.9 196.2 114.9 195.8 115.1 C 195.3 115.2 194.8 115.2 194.2 115.2 C 193 115.3 192 115.1 191.1 114.8 C 190.2 114.4 189.6 113.9 189.1 113.1 C 188.6 112.4 188.4 111.4 188.4 110.3 C 188.36 110.27 188.4 93.4 188.4 93.4 Z M 206.9 115.3 C 205.1 115.3 203.6 115 202.3 114.2 C 201 113.5 200 112.5 199.3 111.1 C 198.6 109.8 198.3 108.2 198.3 106.4 C 198.3 104.6 198.6 103 199.3 101.6 C 200 100.3 201 99.2 202.3 98.5 C 203.5 97.7 205 97.3 206.7 97.3 C 207.9 97.3 209 97.5 210 97.9 C 210.9 98.2 211.8 98.8 212.6 99.5 C 213.3 100.3 213.9 101.2 214.3 102.3 C 214.7 103.4 214.9 104.7 214.9 106.2 C 214.94 106.18 214.9 107.5 214.9 107.5 L 200.2 107.5 L 200.2 104.5 C 200.2 104.5 210.38 104.51 210.4 104.5 C 210.4 103.8 210.2 103.2 209.9 102.7 C 209.6 102.1 209.2 101.7 208.7 101.4 C 208.1 101.1 207.5 100.9 206.8 100.9 C 206.1 100.9 205.4 101.1 204.9 101.4 C 204.3 101.8 203.9 102.2 203.5 102.8 C 203.2 103.4 203.1 104 203 104.7 C 203 104.7 203 107.5 203 107.5 C 203 108.4 203.2 109.1 203.5 109.8 C 203.9 110.4 204.3 110.9 204.9 111.2 C 205.5 111.6 206.2 111.7 207 111.7 C 207.5 111.7 208 111.7 208.5 111.5 C 208.9 111.3 209.3 111.1 209.6 110.8 C 209.9 110.5 210.2 110.1 210.4 109.7 C 210.4 109.7 214.8 110 214.8 110 C 214.6 111.1 214.1 112 213.4 112.8 C 212.7 113.6 211.8 114.2 210.7 114.7 C 209.6 115.1 208.4 115.3 206.9 115.3 Z " stroke="none" fill="#10283d"/>  </g>  <g id="Polygon125152">    <path d="M 15.9 79.5 C 15.3 79.5 14.7 79.5 14.2 79.4 C 13.6 79.3 13.2 79.2 12.9 79 C 12.9 79 13.9 75.4 13.9 75.4 C 14.5 75.6 15 75.7 15.5 75.7 C 15.9 75.7 16.3 75.6 16.7 75.4 C 17 75.2 17.3 74.8 17.5 74.2 C 17.5 74.24 17.8 73.5 17.8 73.5 L 11.5 55.5 L 16.6 55.5 L 20.2 68.4 L 20.4 68.4 L 24.1 55.5 L 29.2 55.5 C 29.2 55.5 22.4 74.89 22.4 74.9 C 22.1 75.8 21.6 76.6 21.1 77.3 C 20.5 78 19.8 78.6 19 79 C 18.1 79.4 17.1 79.5 15.9 79.5 Z M 38.6 73.3 C 36.9 73.3 35.3 73 34 72.2 C 32.8 71.5 31.8 70.4 31.1 69.1 C 30.4 67.7 30 66.1 30 64.3 C 30 62.5 30.4 61 31.1 59.6 C 31.8 58.3 32.8 57.2 34 56.4 C 35.3 55.7 36.9 55.3 38.6 55.3 C 40.4 55.3 41.9 55.7 43.2 56.4 C 44.5 57.2 45.5 58.3 46.2 59.6 C 46.9 61 47.2 62.5 47.2 64.3 C 47.2 66.1 46.9 67.7 46.2 69.1 C 45.5 70.4 44.5 71.5 43.2 72.2 C 41.9 73 40.4 73.3 38.6 73.3 Z M 38.6 69.6 C 39.4 69.6 40.1 69.4 40.7 68.9 C 41.2 68.4 41.6 67.8 41.9 67 C 42.2 66.2 42.3 65.3 42.3 64.3 C 42.3 63.3 42.2 62.4 41.9 61.6 C 41.6 60.8 41.2 60.2 40.7 59.7 C 40.1 59.2 39.4 59 38.6 59 C 37.8 59 37.2 59.2 36.6 59.7 C 36.1 60.2 35.6 60.8 35.4 61.6 C 35.1 62.4 34.9 63.3 34.9 64.3 C 34.9 65.3 35.1 66.2 35.4 67 C 35.6 67.8 36.1 68.4 36.6 68.9 C 37.2 69.4 37.8 69.6 38.6 69.6 Z M 61.4 65.6 C 61.42 65.57 61.4 55.5 61.4 55.5 L 66.3 55.5 L 66.3 73 L 61.6 73 L 61.6 69.8 C 61.6 69.8 61.43 69.83 61.4 69.8 C 61 70.9 60.4 71.7 59.5 72.3 C 58.6 72.9 57.4 73.2 56.1 73.2 C 55 73.2 53.9 73 53.1 72.4 C 52.2 71.9 51.5 71.1 51 70.2 C 50.5 69.2 50.2 68 50.2 66.7 C 50.23 66.66 50.2 55.5 50.2 55.5 L 55.1 55.5 C 55.1 55.5 55.07 65.8 55.1 65.8 C 55.1 66.8 55.4 67.6 55.9 68.2 C 56.4 68.8 57.2 69.1 58.1 69.1 C 58.7 69.1 59.2 69 59.7 68.7 C 60.2 68.5 60.6 68.1 61 67.5 C 61.3 67 61.4 66.3 61.4 65.6 Z M 86.8 55.5 L 86.8 59.2 L 76.3 59.2 L 76.3 55.5 L 86.8 55.5 Z M 78.7 51.4 L 83.5 51.4 C 83.5 51.4 83.54 67.64 83.5 67.6 C 83.5 68.1 83.6 68.4 83.7 68.7 C 83.9 68.9 84.1 69.1 84.3 69.2 C 84.6 69.3 84.9 69.3 85.2 69.3 C 85.4 69.3 85.6 69.3 85.9 69.3 C 86.1 69.2 86.3 69.2 86.4 69.2 C 86.4 69.2 87.1 72.8 87.1 72.8 C 86.9 72.9 86.6 72.9 86.1 73.1 C 85.7 73.2 85.1 73.2 84.5 73.2 C 83.4 73.3 82.3 73.1 81.5 72.8 C 80.6 72.4 79.9 71.9 79.4 71.1 C 78.9 70.4 78.7 69.4 78.7 68.3 C 78.7 68.27 78.7 51.4 78.7 51.4 Z M 89.8 73 L 89.8 55.5 L 94.5 55.5 L 94.5 58.6 C 94.5 58.6 94.68 58.59 94.7 58.6 C 95 57.5 95.5 56.7 96.3 56.1 C 97 55.6 97.9 55.3 98.9 55.3 C 99.1 55.3 99.4 55.3 99.7 55.3 C 99.9 55.4 100.2 55.4 100.4 55.5 C 100.4 55.5 100.4 59.8 100.4 59.8 C 100.2 59.7 99.9 59.6 99.5 59.6 C 99.1 59.5 98.7 59.5 98.4 59.5 C 97.6 59.5 97 59.7 96.5 60 C 95.9 60.3 95.5 60.7 95.1 61.2 C 94.8 61.8 94.7 62.4 94.7 63.1 C 94.65 63.13 94.7 73 94.7 73 L 89.8 73 Z M 107.7 73.3 C 106.6 73.3 105.6 73.1 104.7 72.7 C 103.9 72.4 103.2 71.8 102.7 71 C 102.2 70.2 101.9 69.3 101.9 68.1 C 101.9 67.2 102.1 66.3 102.5 65.7 C 102.8 65 103.3 64.5 103.9 64.1 C 104.5 63.7 105.2 63.4 106 63.2 C 106.8 63 107.6 62.8 108.5 62.8 C 109.5 62.6 110.3 62.5 110.9 62.4 C 111.6 62.4 112 62.2 112.3 62 C 112.6 61.8 112.7 61.6 112.7 61.2 C 112.7 61.2 112.7 61.1 112.7 61.1 C 112.7 60.4 112.5 59.8 112 59.4 C 111.6 59 110.9 58.9 110.1 58.9 C 109.2 58.9 108.5 59 108 59.4 C 107.5 59.8 107.2 60.3 107 60.9 C 107 60.9 102.5 60.5 102.5 60.5 C 102.8 59.4 103.2 58.5 103.9 57.7 C 104.5 57 105.4 56.4 106.5 55.9 C 107.5 55.5 108.7 55.3 110.1 55.3 C 111.1 55.3 112 55.4 112.9 55.7 C 113.8 55.9 114.6 56.2 115.3 56.7 C 116 57.2 116.5 57.8 116.9 58.6 C 117.3 59.3 117.5 60.2 117.5 61.2 C 117.54 61.23 117.5 73 117.5 73 L 113 73 L 113 70.6 C 113 70.6 112.82 70.58 112.8 70.6 C 112.5 71.1 112.2 71.6 111.7 72 C 111.2 72.4 110.7 72.8 110 73 C 109.3 73.2 108.6 73.3 107.7 73.3 Z M 109.1 70 C 109.8 70 110.4 69.8 111 69.6 C 111.5 69.3 112 68.9 112.3 68.4 C 112.6 67.9 112.7 67.4 112.7 66.8 C 112.7 66.8 112.7 64.9 112.7 64.9 C 112.6 65 112.4 65.1 112.1 65.2 C 111.9 65.3 111.6 65.3 111.2 65.4 C 110.9 65.5 110.6 65.5 110.3 65.6 C 109.9 65.6 109.6 65.7 109.4 65.7 C 108.8 65.8 108.3 65.9 107.9 66.1 C 107.5 66.3 107.1 66.5 106.9 66.8 C 106.7 67.1 106.5 67.5 106.5 68 C 106.5 68.6 106.8 69.1 107.3 69.5 C 107.7 69.8 108.4 70 109.1 70 Z M 126.2 62.9 C 126.2 62.91 126.2 73 126.2 73 L 121.4 73 L 121.4 55.5 L 126 55.5 L 126 58.6 C 126 58.6 126.18 58.63 126.2 58.6 C 126.6 57.6 127.2 56.8 128.1 56.2 C 129 55.6 130.1 55.3 131.4 55.3 C 132.6 55.3 133.7 55.6 134.6 56.1 C 135.5 56.6 136.2 57.4 136.7 58.4 C 137.2 59.4 137.5 60.5 137.5 61.9 C 137.45 61.89 137.5 73 137.5 73 L 132.6 73 C 132.6 73 132.61 62.75 132.6 62.8 C 132.6 61.7 132.3 60.8 131.8 60.2 C 131.2 59.6 130.5 59.3 129.5 59.3 C 128.9 59.3 128.3 59.5 127.8 59.8 C 127.3 60 126.9 60.4 126.6 61 C 126.4 61.5 126.2 62.2 126.2 62.9 Z M 155.6 60.5 C 155.6 60.5 151.1 60.8 151.1 60.8 C 151.1 60.4 150.9 60.1 150.7 59.8 C 150.4 59.5 150.1 59.2 149.7 59 C 149.3 58.8 148.8 58.8 148.2 58.8 C 147.5 58.8 146.8 58.9 146.3 59.2 C 145.8 59.5 145.6 60 145.6 60.5 C 145.6 60.9 145.7 61.2 146.1 61.5 C 146.4 61.8 147 62.1 147.8 62.2 C 147.8 62.2 150.9 62.9 150.9 62.9 C 152.6 63.2 153.9 63.8 154.7 64.5 C 155.6 65.3 156 66.3 156 67.6 C 156 68.7 155.6 69.7 155 70.6 C 154.3 71.5 153.4 72.1 152.2 72.6 C 151.1 73.1 149.7 73.3 148.2 73.3 C 145.9 73.3 144.1 72.9 142.7 71.9 C 141.3 70.9 140.5 69.6 140.3 67.9 C 140.3 67.9 145 67.7 145 67.7 C 145.2 68.4 145.5 68.9 146.1 69.3 C 146.6 69.7 147.4 69.9 148.2 69.9 C 149.1 69.9 149.7 69.7 150.3 69.4 C 150.8 69 151 68.6 151.1 68.1 C 151 67.6 150.9 67.3 150.5 67 C 150.1 66.7 149.6 66.5 148.8 66.3 C 148.8 66.3 145.8 65.7 145.8 65.7 C 144.1 65.4 142.8 64.8 142 64 C 141.2 63.1 140.7 62.1 140.7 60.8 C 140.7 59.6 141.1 58.7 141.7 57.9 C 142.3 57 143.1 56.4 144.2 56 C 145.4 55.5 146.7 55.3 148.1 55.3 C 150.4 55.3 152.1 55.8 153.4 56.7 C 154.6 57.6 155.4 58.9 155.6 60.5 Z M 168.3 55.5 L 168.3 59.2 L 157.5 59.2 L 157.5 55.5 L 168.3 55.5 Z M 160 73 C 160 73 160 54.28 160 54.3 C 160 53 160.2 52 160.7 51.1 C 161.2 50.3 161.9 49.7 162.8 49.3 C 163.6 48.8 164.6 48.6 165.7 48.6 C 166.5 48.6 167.1 48.7 167.8 48.8 C 168.4 48.9 168.8 49 169.1 49.1 C 169.1 49.1 168.3 52.8 168.3 52.8 C 168.1 52.7 167.9 52.6 167.6 52.6 C 167.3 52.5 167 52.5 166.7 52.5 C 166 52.5 165.5 52.7 165.2 53 C 165 53.3 164.8 53.8 164.8 54.4 C 164.83 54.38 164.8 73 164.8 73 L 160 73 Z M 178.5 73.3 C 176.7 73.3 175.2 73 173.9 72.2 C 172.6 71.5 171.7 70.4 171 69.1 C 170.3 67.7 169.9 66.1 169.9 64.3 C 169.9 62.5 170.3 61 171 59.6 C 171.7 58.3 172.6 57.2 173.9 56.4 C 175.2 55.7 176.7 55.3 178.5 55.3 C 180.3 55.3 181.8 55.7 183.1 56.4 C 184.4 57.2 185.4 58.3 186 59.6 C 186.7 61 187.1 62.5 187.1 64.3 C 187.1 66.1 186.7 67.7 186 69.1 C 185.4 70.4 184.4 71.5 183.1 72.2 C 181.8 73 180.3 73.3 178.5 73.3 Z M 178.5 69.6 C 179.3 69.6 180 69.4 180.5 68.9 C 181.1 68.4 181.5 67.8 181.8 67 C 182 66.2 182.2 65.3 182.2 64.3 C 182.2 63.3 182 62.4 181.8 61.6 C 181.5 60.8 181.1 60.2 180.5 59.7 C 180 59.2 179.3 59 178.5 59 C 177.7 59 177 59.2 176.5 59.7 C 175.9 60.2 175.5 60.8 175.2 61.6 C 175 62.4 174.8 63.3 174.8 64.3 C 174.8 65.3 175 66.2 175.2 67 C 175.5 67.8 175.9 68.4 176.5 68.9 C 177 69.4 177.7 69.6 178.5 69.6 Z M 190.2 73 L 190.2 55.5 L 194.9 55.5 L 194.9 58.6 C 194.9 58.6 195.04 58.59 195 58.6 C 195.4 57.5 195.9 56.7 196.6 56.1 C 197.4 55.6 198.3 55.3 199.2 55.3 C 199.5 55.3 199.7 55.3 200 55.3 C 200.3 55.4 200.5 55.4 200.8 55.5 C 200.8 55.5 200.8 59.8 200.8 59.8 C 200.5 59.7 200.2 59.6 199.8 59.6 C 199.4 59.5 199 59.5 198.7 59.5 C 198 59.5 197.4 59.7 196.8 60 C 196.3 60.3 195.8 60.7 195.5 61.2 C 195.2 61.8 195 62.4 195 63.1 C 195.01 63.13 195 73 195 73 L 190.2 73 Z M 203 73 L 203 55.5 L 207.6 55.5 L 207.6 58.6 C 207.6 58.6 207.85 58.63 207.8 58.6 C 208.2 57.6 208.8 56.8 209.7 56.2 C 210.5 55.6 211.5 55.3 212.7 55.3 C 213.9 55.3 214.9 55.6 215.8 56.2 C 216.6 56.8 217.2 57.6 217.5 58.6 C 217.5 58.6 217.6 58.6 217.6 58.6 C 218 57.6 218.6 56.8 219.6 56.2 C 220.5 55.6 221.6 55.3 222.9 55.3 C 224.5 55.3 225.8 55.8 226.9 56.9 C 227.9 57.9 228.4 59.4 228.4 61.3 C 228.39 61.26 228.4 73 228.4 73 L 223.6 73 C 223.6 73 223.56 62.22 223.6 62.2 C 223.6 61.2 223.3 60.5 222.8 60 C 222.3 59.5 221.6 59.3 220.9 59.3 C 220 59.3 219.3 59.6 218.8 60.1 C 218.3 60.7 218.1 61.4 218.1 62.3 C 218.06 62.34 218.1 73 218.1 73 L 213.4 73 C 213.4 73 213.37 62.11 213.4 62.1 C 213.4 61.3 213.1 60.6 212.6 60.1 C 212.1 59.6 211.5 59.3 210.7 59.3 C 210.2 59.3 209.7 59.4 209.3 59.7 C 208.8 60 208.5 60.4 208.2 60.8 C 208 61.3 207.9 61.9 207.9 62.5 C 207.87 62.52 207.9 73 207.9 73 L 203 73 Z " stroke="none" fill="#10283d"/>  </g>  <g id="Polygon125151">    <path d="M 34.6 14.4 C 34.5 13.5 34.1 12.8 33.4 12.3 C 32.7 11.8 31.8 11.5 30.6 11.5 C 29.8 11.5 29.2 11.6 28.6 11.9 C 28 12.1 27.6 12.4 27.3 12.8 C 27 13.2 26.9 13.6 26.9 14.1 C 26.9 14.5 27 14.9 27.2 15.2 C 27.4 15.5 27.6 15.8 28 16 C 28.3 16.2 28.7 16.4 29.1 16.6 C 29.6 16.8 30.1 16.9 30.6 17 C 30.6 17 32.7 17.5 32.7 17.5 C 33.7 17.7 34.6 18 35.5 18.4 C 36.3 18.8 37 19.3 37.7 19.8 C 38.3 20.4 38.8 21 39.1 21.8 C 39.5 22.5 39.6 23.4 39.6 24.4 C 39.6 25.8 39.3 27 38.6 28.1 C 37.8 29.1 36.8 29.9 35.5 30.5 C 34.1 31 32.5 31.3 30.6 31.3 C 28.7 31.3 27.1 31 25.7 30.5 C 24.3 29.9 23.2 29 22.5 27.9 C 21.7 26.8 21.3 25.4 21.2 23.7 C 21.2 23.7 26 23.7 26 23.7 C 26 24.5 26.3 25.1 26.7 25.6 C 27.1 26.2 27.6 26.6 28.3 26.8 C 28.9 27.1 29.7 27.2 30.6 27.2 C 31.4 27.2 32.1 27.1 32.7 26.8 C 33.3 26.6 33.8 26.3 34.2 25.8 C 34.5 25.4 34.7 24.9 34.7 24.3 C 34.7 23.8 34.5 23.4 34.2 23 C 33.9 22.7 33.5 22.4 32.9 22.1 C 32.3 21.9 31.6 21.6 30.7 21.4 C 30.7 21.4 28.2 20.8 28.2 20.8 C 26.2 20.3 24.7 19.6 23.5 18.6 C 22.4 17.5 21.8 16.2 21.8 14.5 C 21.8 13 22.2 11.8 23 10.8 C 23.7 9.7 24.8 8.9 26.1 8.3 C 27.5 7.7 29 7.4 30.7 7.4 C 32.4 7.4 33.9 7.7 35.2 8.3 C 36.5 8.9 37.5 9.7 38.2 10.8 C 38.9 11.8 39.3 13 39.3 14.4 C 39.3 14.4 34.6 14.4 34.6 14.4 Z M 43 31 L 43 13.5 L 47.8 13.5 L 47.8 31 L 43 31 Z M 45.4 11.3 C 44.7 11.3 44.1 11.1 43.6 10.6 C 43.1 10.1 42.8 9.5 42.8 8.9 C 42.8 8.2 43.1 7.6 43.6 7.1 C 44.1 6.6 44.7 6.4 45.4 6.4 C 46.1 6.4 46.8 6.6 47.3 7.1 C 47.8 7.6 48 8.2 48 8.8 C 48 9.5 47.8 10.1 47.3 10.6 C 46.8 11.1 46.1 11.3 45.4 11.3 Z M 51.7 31 L 51.7 13.5 L 56.3 13.5 L 56.3 16.6 C 56.3 16.6 56.55 16.63 56.5 16.6 C 56.9 15.6 57.5 14.8 58.4 14.2 C 59.2 13.6 60.2 13.3 61.4 13.3 C 62.6 13.3 63.6 13.6 64.5 14.2 C 65.3 14.8 65.9 15.6 66.1 16.6 C 66.1 16.6 66.3 16.6 66.3 16.6 C 66.7 15.6 67.3 14.8 68.3 14.2 C 69.2 13.6 70.3 13.3 71.6 13.3 C 73.2 13.3 74.5 13.8 75.6 14.9 C 76.6 15.9 77.1 17.4 77.1 19.3 C 77.09 19.26 77.1 31 77.1 31 L 72.3 31 C 72.3 31 72.26 20.22 72.3 20.2 C 72.3 19.2 72 18.5 71.5 18 C 71 17.5 70.3 17.3 69.6 17.3 C 68.7 17.3 68 17.6 67.5 18.1 C 67 18.7 66.8 19.4 66.8 20.3 C 66.76 20.34 66.8 31 66.8 31 L 62.1 31 C 62.1 31 62.07 20.11 62.1 20.1 C 62.1 19.3 61.8 18.6 61.3 18.1 C 60.8 17.6 60.2 17.3 59.4 17.3 C 58.9 17.3 58.4 17.4 58 17.7 C 57.5 18 57.2 18.4 56.9 18.8 C 56.7 19.3 56.6 19.9 56.6 20.5 C 56.57 20.52 56.6 31 56.6 31 L 51.7 31 Z M 80.9 37.5 L 80.9 13.5 L 85.7 13.5 L 85.7 16.5 C 85.7 16.5 85.91 16.48 85.9 16.5 C 86.1 16 86.4 15.5 86.8 15 C 87.2 14.6 87.8 14.1 88.4 13.8 C 89.1 13.5 89.9 13.3 90.9 13.3 C 92.1 13.3 93.3 13.6 94.4 14.3 C 95.5 15 96.3 16 97 17.3 C 97.6 18.6 97.9 20.3 97.9 22.3 C 97.9 24.2 97.6 25.9 97 27.2 C 96.4 28.6 95.5 29.6 94.5 30.3 C 93.4 30.9 92.2 31.3 90.9 31.3 C 89.9 31.3 89.1 31.1 88.5 30.8 C 87.8 30.5 87.3 30.1 86.9 29.6 C 86.4 29.2 86.1 28.7 85.9 28.2 C 85.91 28.2 85.8 28.2 85.8 28.2 L 85.8 37.5 L 80.9 37.5 Z M 85.7 22.3 C 85.7 23.3 85.8 24.2 86.1 25 C 86.4 25.8 86.8 26.4 87.3 26.8 C 87.9 27.2 88.5 27.4 89.3 27.4 C 90.1 27.4 90.8 27.2 91.3 26.8 C 91.9 26.3 92.3 25.7 92.6 25 C 92.9 24.2 93 23.3 93 22.3 C 93 21.3 92.9 20.4 92.6 19.6 C 92.3 18.8 91.9 18.3 91.3 17.8 C 90.8 17.4 90.1 17.2 89.3 17.2 C 88.5 17.2 87.9 17.4 87.3 17.8 C 86.8 18.2 86.4 18.8 86.1 19.6 C 85.8 20.3 85.7 21.2 85.7 22.3 Z M 106 7.7 L 106 31 L 101.2 31 L 101.2 7.7 L 106 7.7 Z M 109.9 31 L 109.9 13.5 L 114.7 13.5 L 114.7 31 L 109.9 31 Z M 112.3 11.3 C 111.6 11.3 111 11.1 110.5 10.6 C 110 10.1 109.7 9.5 109.7 8.9 C 109.7 8.2 110 7.6 110.5 7.1 C 111 6.6 111.6 6.4 112.3 6.4 C 113.1 6.4 113.7 6.6 114.2 7.1 C 114.7 7.6 115 8.2 115 8.8 C 115 9.5 114.7 10.1 114.2 10.6 C 113.7 11.1 113.1 11.3 112.3 11.3 Z M 127.9 13.5 L 127.9 17.2 L 117.1 17.2 L 117.1 13.5 L 127.9 13.5 Z M 119.6 31 C 119.6 31 119.59 12.28 119.6 12.3 C 119.6 11 119.8 10 120.3 9.1 C 120.8 8.3 121.5 7.7 122.4 7.3 C 123.2 6.8 124.2 6.6 125.3 6.6 C 126.1 6.6 126.7 6.7 127.4 6.8 C 128 6.9 128.4 7 128.7 7.1 C 128.7 7.1 127.9 10.8 127.9 10.8 C 127.7 10.7 127.4 10.6 127.2 10.6 C 126.9 10.5 126.6 10.5 126.3 10.5 C 125.6 10.5 125.1 10.7 124.8 11 C 124.6 11.3 124.4 11.8 124.4 12.4 C 124.42 12.38 124.4 31 124.4 31 L 119.6 31 Z M 134.1 37.5 C 133.5 37.5 132.9 37.5 132.4 37.4 C 131.8 37.3 131.4 37.2 131 37 C 131 37 132.1 33.4 132.1 33.4 C 132.7 33.6 133.2 33.7 133.7 33.7 C 134.1 33.7 134.5 33.6 134.9 33.4 C 135.2 33.2 135.5 32.8 135.7 32.2 C 135.69 32.24 136 31.5 136 31.5 L 129.7 13.5 L 134.8 13.5 L 138.4 26.4 L 138.6 26.4 L 142.2 13.5 L 147.4 13.5 C 147.4 13.5 140.59 32.89 140.6 32.9 C 140.3 33.8 139.8 34.6 139.3 35.3 C 138.7 36 138 36.6 137.2 37 C 136.3 37.4 135.3 37.5 134.1 37.5 Z M 162.1 20.9 C 162.11 20.91 162.1 31 162.1 31 L 157.3 31 L 157.3 7.7 L 162 7.7 L 162 16.6 C 162 16.6 162.18 16.63 162.2 16.6 C 162.6 15.6 163.2 14.8 164.1 14.2 C 165 13.6 166.1 13.3 167.4 13.3 C 168.6 13.3 169.7 13.6 170.6 14.1 C 171.5 14.6 172.2 15.4 172.7 16.4 C 173.2 17.4 173.4 18.5 173.4 19.9 C 173.43 19.89 173.4 31 173.4 31 L 168.6 31 C 168.6 31 168.59 20.75 168.6 20.8 C 168.6 19.7 168.3 18.8 167.8 18.2 C 167.2 17.6 166.5 17.3 165.5 17.3 C 164.8 17.3 164.2 17.5 163.7 17.8 C 163.2 18 162.8 18.4 162.5 19 C 162.3 19.5 162.1 20.2 162.1 20.9 Z M 185 31.3 C 183.2 31.3 181.7 31 180.4 30.2 C 179.2 29.5 178.2 28.4 177.5 27.1 C 176.8 25.7 176.4 24.1 176.4 22.3 C 176.4 20.5 176.8 19 177.5 17.6 C 178.2 16.3 179.2 15.2 180.4 14.4 C 181.7 13.7 183.2 13.3 185 13.3 C 186.8 13.3 188.3 13.7 189.6 14.4 C 190.9 15.2 191.9 16.3 192.6 17.6 C 193.3 19 193.6 20.5 193.6 22.3 C 193.6 24.1 193.3 25.7 192.6 27.1 C 191.9 28.4 190.9 29.5 189.6 30.2 C 188.3 31 186.8 31.3 185 31.3 Z M 185 27.6 C 185.8 27.6 186.5 27.4 187 26.9 C 187.6 26.4 188 25.8 188.3 25 C 188.5 24.2 188.7 23.3 188.7 22.3 C 188.7 21.3 188.5 20.4 188.3 19.6 C 188 18.8 187.6 18.2 187 17.7 C 186.5 17.2 185.8 17 185 17 C 184.2 17 183.5 17.2 183 17.7 C 182.4 18.2 182 18.8 181.8 19.6 C 181.5 20.4 181.3 21.3 181.3 22.3 C 181.3 23.3 181.5 24.2 181.8 25 C 182 25.8 182.4 26.4 183 26.9 C 183.5 27.4 184.2 27.6 185 27.6 Z M 199.5 31 L 194.7 13.5 L 199.6 13.5 L 202.3 25.3 L 202.5 25.3 L 205.3 13.5 L 210.1 13.5 L 213 25.2 L 213.1 25.2 L 215.8 13.5 L 220.7 13.5 L 215.9 31 L 210.8 31 L 207.8 20 L 207.6 20 L 204.6 31 L 199.5 31 Z " stroke="none" fill="#10283d"/>  </g></svg>