<?xml version="1.0" standalone="no"?><!DOCTYPE svg PUBLIC "-//W3C//DTD SVG 1.1//EN" "http://www.w3.org/Graphics/SVG/1.1/DTD/svg11.dtd"><svg xmlns="http://www.w3.org/2000/svg" version="1.1" width="300px" height="161.8px" viewBox="0 -4 300 161.8" style="top:-4px">  <desc>Use this guide to cut through the AI noise and find your way to increased profitability and better outcomes.</desc>  <defs/>  <g id="Polygon108316">    <path d="M 99.7 143.5 C 98.5 143.5 97.5 143.2 96.6 142.7 C 95.7 142.1 95 141.3 94.5 140.3 C 94 139.3 93.7 138.1 93.7 136.8 C 93.7 135.4 94 134.2 94.5 133.2 C 95 132.2 95.7 131.4 96.6 130.8 C 97.5 130.3 98.5 130 99.7 130 C 100.9 130 101.9 130.3 102.8 130.8 C 103.7 131.4 104.4 132.2 104.9 133.2 C 105.4 134.2 105.6 135.4 105.6 136.8 C 105.6 138.1 105.4 139.3 104.9 140.3 C 104.4 141.3 103.7 142.1 102.8 142.7 C 101.9 143.2 100.9 143.5 99.7 143.5 Z M 99.7 141.7 C 100.6 141.7 101.3 141.5 101.9 141 C 102.5 140.6 102.9 140 103.2 139.2 C 103.5 138.5 103.6 137.6 103.6 136.8 C 103.6 135.9 103.5 135.1 103.2 134.3 C 102.9 133.6 102.5 133 101.9 132.5 C 101.3 132 100.6 131.8 99.7 131.8 C 98.8 131.8 98 132 97.5 132.5 C 96.9 133 96.5 133.6 96.2 134.3 C 95.9 135.1 95.8 135.9 95.8 136.8 C 95.8 137.6 95.9 138.5 96.2 139.2 C 96.5 140 96.9 140.6 97.5 141 C 98 141.5 98.8 141.7 99.7 141.7 Z M 116.5 137.9 C 116.53 137.9 116.5 130.2 116.5 130.2 L 118.5 130.2 L 118.5 143.3 L 116.5 143.3 L 116.5 141 C 116.5 141 116.4 141.03 116.4 141 C 116.1 141.7 115.6 142.3 115 142.7 C 114.3 143.2 113.5 143.4 112.5 143.4 C 111.7 143.4 111 143.2 110.3 142.9 C 109.7 142.5 109.2 142 108.8 141.2 C 108.5 140.5 108.3 139.6 108.3 138.5 C 108.28 138.48 108.3 130.2 108.3 130.2 L 110.3 130.2 C 110.3 130.2 110.3 138.34 110.3 138.3 C 110.3 139.3 110.6 140.1 111.1 140.6 C 111.6 141.2 112.3 141.5 113.2 141.5 C 113.7 141.5 114.2 141.3 114.7 141.1 C 115.2 140.8 115.6 140.4 116 139.9 C 116.4 139.4 116.5 138.7 116.5 137.9 Z M 127.5 130.2 L 127.5 131.9 L 120.7 131.9 L 120.7 130.2 L 127.5 130.2 Z M 122.7 127 L 124.7 127 C 124.7 127 124.72 139.5 124.7 139.5 C 124.7 140.1 124.8 140.5 125 140.8 C 125.1 141.1 125.4 141.2 125.6 141.3 C 125.9 141.4 126.2 141.5 126.5 141.5 C 126.7 141.5 126.9 141.5 127 141.4 C 127.1 141.4 127.3 141.4 127.3 141.4 C 127.3 141.4 127.8 143.2 127.8 143.2 C 127.6 143.2 127.4 143.3 127.2 143.3 C 126.9 143.4 126.6 143.4 126.3 143.4 C 125.7 143.4 125.1 143.3 124.6 143.1 C 124 142.8 123.6 142.4 123.2 141.9 C 122.9 141.4 122.7 140.8 122.7 140 C 122.71 140.05 122.7 127 122.7 127 Z M 134.9 143.5 C 133.6 143.5 132.6 143.2 131.7 142.7 C 130.8 142.1 130.1 141.3 129.7 140.3 C 129.2 139.2 128.9 138.1 128.9 136.8 C 128.9 135.4 129.2 134.3 129.7 133.2 C 130.2 132.2 130.9 131.4 131.7 130.9 C 132.6 130.3 133.7 130 134.8 130 C 135.8 130 136.6 130.2 137.3 130.5 C 138.1 130.8 138.7 131.3 139.1 131.9 C 139.6 132.5 139.9 133.3 140 134.1 C 140 134.1 138 134.1 138 134.1 C 137.9 133.5 137.5 133 137 132.5 C 136.5 132 135.8 131.8 134.9 131.8 C 134.1 131.8 133.4 132 132.8 132.4 C 132.2 132.8 131.8 133.4 131.4 134.1 C 131.1 134.9 131 135.7 131 136.7 C 131 137.7 131.1 138.6 131.4 139.3 C 131.8 140.1 132.2 140.7 132.8 141.1 C 133.4 141.5 134.1 141.7 134.9 141.7 C 135.4 141.7 135.9 141.6 136.3 141.4 C 136.7 141.3 137.1 141 137.4 140.7 C 137.7 140.3 137.9 139.9 138 139.4 C 138 139.4 140 139.4 140 139.4 C 139.9 140.2 139.6 140.9 139.2 141.5 C 138.7 142.1 138.1 142.6 137.4 143 C 136.7 143.3 135.8 143.5 134.9 143.5 Z M 147.8 143.5 C 146.7 143.5 145.6 143.2 144.7 142.7 C 143.9 142.1 143.2 141.3 142.7 140.3 C 142.2 139.3 141.9 138.1 141.9 136.8 C 141.9 135.4 142.2 134.2 142.7 133.2 C 143.2 132.2 143.9 131.4 144.7 130.8 C 145.6 130.3 146.7 130 147.8 130 C 149 130 150.1 130.3 151 130.8 C 151.8 131.4 152.5 132.2 153 133.2 C 153.5 134.2 153.8 135.4 153.8 136.8 C 153.8 138.1 153.5 139.3 153 140.3 C 152.5 141.3 151.8 142.1 151 142.7 C 150.1 143.2 149 143.5 147.8 143.5 Z M 147.8 141.7 C 148.7 141.7 149.5 141.5 150.1 141 C 150.6 140.6 151.1 140 151.3 139.2 C 151.6 138.5 151.8 137.6 151.8 136.8 C 151.8 135.9 151.6 135.1 151.3 134.3 C 151.1 133.6 150.6 133 150.1 132.5 C 149.5 132 148.7 131.8 147.8 131.8 C 146.9 131.8 146.2 132 145.6 132.5 C 145.1 133 144.6 133.6 144.3 134.3 C 144.1 135.1 143.9 135.9 143.9 136.8 C 143.9 137.6 144.1 138.5 144.3 139.2 C 144.6 140 145.1 140.6 145.6 141 C 146.2 141.5 146.9 141.7 147.8 141.7 Z M 156.5 143.3 L 156.5 130.2 L 158.5 130.2 L 158.5 132.2 C 158.5 132.2 158.65 132.2 158.6 132.2 C 158.9 131.5 159.4 131 160 130.6 C 160.6 130.2 161.3 130 162.2 130 C 163 130 163.7 130.2 164.3 130.6 C 164.9 131 165.3 131.5 165.7 132.2 C 165.7 132.2 165.8 132.2 165.8 132.2 C 166.1 131.5 166.6 131 167.3 130.6 C 168 130.2 168.8 130 169.7 130 C 170.9 130 171.9 130.4 172.6 131.1 C 173.3 131.8 173.7 132.9 173.7 134.5 C 173.71 134.49 173.7 143.3 173.7 143.3 L 171.7 143.3 C 171.7 143.3 171.7 134.49 171.7 134.5 C 171.7 133.5 171.4 132.8 170.9 132.4 C 170.4 132 169.8 131.8 169 131.8 C 168.1 131.8 167.4 132.1 166.9 132.6 C 166.4 133.2 166.1 133.9 166.1 134.7 C 166.15 134.73 166.1 143.3 166.1 143.3 L 164.1 143.3 C 164.1 143.3 164.1 134.28 164.1 134.3 C 164.1 133.5 163.9 132.9 163.4 132.5 C 162.9 132 162.3 131.8 161.5 131.8 C 161 131.8 160.5 131.9 160 132.2 C 159.6 132.5 159.2 132.9 159 133.4 C 158.7 133.9 158.5 134.4 158.5 135.1 C 158.54 135.07 158.5 143.3 158.5 143.3 L 156.5 143.3 Z M 182.5 143.5 C 181.3 143.5 180.2 143.2 179.3 142.7 C 178.3 142.1 177.6 141.3 177.2 140.3 C 176.7 139.3 176.4 138.1 176.4 136.8 C 176.4 135.5 176.7 134.3 177.2 133.3 C 177.6 132.2 178.3 131.4 179.2 130.9 C 180.1 130.3 181.1 130 182.3 130 C 183 130 183.7 130.1 184.3 130.3 C 185 130.6 185.6 130.9 186.1 131.4 C 186.7 131.9 187.1 132.6 187.5 133.4 C 187.8 134.3 187.9 135.3 187.9 136.5 C 187.94 136.53 187.9 137.4 187.9 137.4 L 177.8 137.4 L 177.8 135.6 C 177.8 135.6 185.89 135.65 185.9 135.6 C 185.9 134.9 185.7 134.3 185.5 133.7 C 185.2 133.1 184.7 132.6 184.2 132.3 C 183.7 132 183 131.8 182.3 131.8 C 181.5 131.8 180.8 132 180.2 132.4 C 179.7 132.8 179.2 133.3 178.9 133.9 C 178.6 134.6 178.4 135.2 178.4 136 C 178.4 136 178.4 137.1 178.4 137.1 C 178.4 138.1 178.6 138.9 178.9 139.6 C 179.3 140.3 179.8 140.8 180.4 141.2 C 181 141.5 181.7 141.7 182.5 141.7 C 183 141.7 183.5 141.6 184 141.5 C 184.4 141.3 184.8 141.1 185.1 140.8 C 185.4 140.5 185.6 140.1 185.8 139.7 C 185.8 139.7 187.7 140.2 187.7 140.2 C 187.5 140.9 187.2 141.5 186.7 142 C 186.2 142.4 185.6 142.8 184.9 143.1 C 184.2 143.4 183.4 143.5 182.5 143.5 Z M 199.8 133.1 C 199.8 133.1 198 133.6 198 133.6 C 197.9 133.3 197.7 133 197.5 132.7 C 197.3 132.4 197 132.2 196.6 132 C 196.2 131.8 195.8 131.7 195.2 131.7 C 194.4 131.7 193.7 131.9 193.2 132.3 C 192.7 132.6 192.4 133.1 192.4 133.7 C 192.4 134.2 192.6 134.6 192.9 134.9 C 193.3 135.1 193.9 135.4 194.6 135.6 C 194.6 135.6 196.6 136.1 196.6 136.1 C 197.7 136.3 198.6 136.8 199.2 137.4 C 199.8 137.9 200.1 138.7 200.1 139.6 C 200.1 140.4 199.8 141 199.4 141.6 C 199 142.2 198.4 142.7 197.6 143 C 196.9 143.4 196 143.5 194.9 143.5 C 193.6 143.5 192.5 143.2 191.6 142.7 C 190.8 142.1 190.2 141.2 190 140.1 C 190 140.1 191.9 139.6 191.9 139.6 C 192.1 140.3 192.4 140.9 192.9 141.2 C 193.4 141.6 194.1 141.8 194.9 141.8 C 195.8 141.8 196.6 141.5 197.1 141.1 C 197.7 140.7 198 140.3 198 139.7 C 198 139.3 197.8 138.9 197.5 138.6 C 197.2 138.2 196.7 138 196 137.9 C 196 137.9 193.9 137.4 193.9 137.4 C 192.7 137.1 191.8 136.6 191.2 136 C 190.7 135.4 190.4 134.7 190.4 133.8 C 190.4 133 190.6 132.4 191 131.8 C 191.4 131.2 192 130.8 192.7 130.5 C 193.4 130.2 194.3 130 195.2 130 C 196.5 130 197.5 130.3 198.2 130.8 C 199 131.4 199.5 132.2 199.8 133.1 Z M 204.2 143.4 C 203.8 143.4 203.4 143.2 203.1 142.9 C 202.8 142.6 202.6 142.3 202.6 141.9 C 202.6 141.4 202.8 141.1 203.1 140.8 C 203.4 140.5 203.8 140.3 204.2 140.3 C 204.6 140.3 205 140.5 205.3 140.8 C 205.6 141.1 205.7 141.4 205.7 141.9 C 205.7 142.1 205.6 142.4 205.5 142.6 C 205.4 142.9 205.2 143 204.9 143.2 C 204.7 143.3 204.5 143.4 204.2 143.4 Z " stroke="none" fill="#ffffff"/>  </g>  <g id="Polygon108315">    <path d="M 29.3 118.2 L 29.3 100.2 L 31.3 100.2 L 31.3 102.2 C 31.3 102.2 31.5 102.24 31.5 102.2 C 31.7 102 31.9 101.7 32.1 101.4 C 32.4 101 32.8 100.7 33.3 100.4 C 33.8 100.1 34.4 100 35.3 100 C 36.4 100 37.4 100.3 38.2 100.8 C 39 101.4 39.7 102.1 40.2 103.2 C 40.6 104.2 40.9 105.4 40.9 106.7 C 40.9 108.1 40.6 109.3 40.2 110.3 C 39.7 111.4 39 112.1 38.2 112.7 C 37.4 113.2 36.4 113.5 35.3 113.5 C 34.5 113.5 33.8 113.4 33.3 113.1 C 32.8 112.8 32.4 112.5 32.1 112.1 C 31.9 111.8 31.7 111.5 31.5 111.2 C 31.5 111.24 31.3 111.2 31.3 111.2 L 31.3 118.2 L 29.3 118.2 Z M 31.3 106.7 C 31.3 107.7 31.4 108.6 31.7 109.3 C 32 110.1 32.4 110.7 33 111.1 C 33.6 111.5 34.2 111.7 35 111.7 C 35.9 111.7 36.6 111.5 37.2 111 C 37.7 110.6 38.1 110 38.4 109.2 C 38.7 108.5 38.9 107.6 38.9 106.7 C 38.9 105.8 38.7 105 38.4 104.2 C 38.2 103.5 37.7 102.9 37.2 102.4 C 36.6 102 35.9 101.8 35 101.8 C 34.2 101.8 33.5 102 33 102.4 C 32.4 102.8 32 103.4 31.7 104.1 C 31.4 104.9 31.3 105.7 31.3 106.7 Z M 43.6 113.3 L 43.6 100.2 L 45.6 100.2 L 45.6 102.1 C 45.6 102.1 45.71 102.14 45.7 102.1 C 46 101.5 46.4 101 47 100.6 C 47.6 100.2 48.3 100 49.1 100 C 49.3 100 49.5 100 49.7 100 C 49.9 100 50.1 100 50.2 100 C 50.2 100 50.2 102 50.2 102 C 50.1 102 50 102 49.7 102 C 49.5 101.9 49.2 101.9 49 101.9 C 48.3 101.9 47.7 102 47.3 102.3 C 46.8 102.6 46.4 102.9 46.1 103.4 C 45.8 103.8 45.6 104.4 45.6 105 C 45.65 104.97 45.6 113.3 45.6 113.3 L 43.6 113.3 Z M 57.3 113.5 C 56.1 113.5 55.1 113.2 54.2 112.7 C 53.3 112.1 52.6 111.3 52.1 110.3 C 51.6 109.3 51.4 108.1 51.4 106.8 C 51.4 105.4 51.6 104.2 52.1 103.2 C 52.6 102.2 53.3 101.4 54.2 100.8 C 55.1 100.3 56.1 100 57.3 100 C 58.5 100 59.5 100.3 60.4 100.8 C 61.3 101.4 62 102.2 62.5 103.2 C 63 104.2 63.2 105.4 63.2 106.8 C 63.2 108.1 63 109.3 62.5 110.3 C 62 111.3 61.3 112.1 60.4 112.7 C 59.5 113.2 58.5 113.5 57.3 113.5 Z M 57.3 111.7 C 58.2 111.7 58.9 111.5 59.5 111 C 60.1 110.6 60.5 110 60.8 109.2 C 61.1 108.5 61.2 107.6 61.2 106.8 C 61.2 105.9 61.1 105.1 60.8 104.3 C 60.5 103.6 60.1 103 59.5 102.5 C 58.9 102 58.2 101.8 57.3 101.8 C 56.4 101.8 55.7 102 55.1 102.5 C 54.5 103 54.1 103.6 53.8 104.3 C 53.5 105.1 53.4 105.9 53.4 106.8 C 53.4 107.6 53.5 108.5 53.8 109.2 C 54.1 110 54.5 110.6 55.1 111 C 55.7 111.5 56.4 111.7 57.3 111.7 Z M 71.4 100.2 L 71.4 101.9 L 64.4 101.9 L 64.4 100.2 L 71.4 100.2 Z M 66.5 113.3 C 66.5 113.3 66.46 98.35 66.5 98.4 C 66.5 97.6 66.6 97 67 96.5 C 67.3 96 67.8 95.6 68.4 95.4 C 68.9 95.1 69.5 95 70.1 95 C 70.6 95 71 95 71.4 95.1 C 71.7 95.2 71.9 95.3 72.1 95.3 C 72.1 95.3 71.5 97.1 71.5 97.1 C 71.4 97 71.2 97 71.1 96.9 C 70.9 96.9 70.6 96.9 70.4 96.9 C 69.7 96.9 69.2 97 68.9 97.4 C 68.6 97.7 68.5 98.2 68.5 98.8 C 68.48 98.83 68.5 113.3 68.5 113.3 L 66.5 113.3 Z M 74.1 113.3 L 74.1 100.2 L 76.1 100.2 L 76.1 113.3 L 74.1 113.3 Z M 75.2 98 C 74.8 98 74.4 97.8 74.1 97.6 C 73.9 97.3 73.7 97 73.7 96.6 C 73.7 96.2 73.9 95.9 74.1 95.7 C 74.4 95.4 74.8 95.3 75.2 95.3 C 75.6 95.3 75.9 95.4 76.2 95.7 C 76.5 95.9 76.6 96.2 76.6 96.6 C 76.6 97 76.5 97.3 76.2 97.6 C 75.9 97.8 75.6 98 75.2 98 Z M 85.1 100.2 L 85.1 101.9 L 78.3 101.9 L 78.3 100.2 L 85.1 100.2 Z M 80.3 97 L 82.3 97 C 82.3 97 82.31 109.5 82.3 109.5 C 82.3 110.1 82.4 110.5 82.6 110.8 C 82.7 111.1 82.9 111.2 83.2 111.3 C 83.5 111.4 83.8 111.5 84.1 111.5 C 84.3 111.5 84.5 111.5 84.6 111.4 C 84.7 111.4 84.9 111.4 84.9 111.4 C 84.9 111.4 85.3 113.2 85.3 113.2 C 85.2 113.2 85 113.3 84.8 113.3 C 84.5 113.4 84.2 113.4 83.8 113.4 C 83.3 113.4 82.7 113.3 82.2 113.1 C 81.6 112.8 81.2 112.4 80.8 111.9 C 80.5 111.4 80.3 110.8 80.3 110 C 80.3 110.05 80.3 97 80.3 97 Z M 91.5 113.6 C 90.6 113.6 89.9 113.4 89.2 113.1 C 88.5 112.8 88 112.3 87.6 111.7 C 87.2 111.1 87 110.4 87 109.5 C 87 108.8 87.2 108.2 87.4 107.7 C 87.7 107.2 88.1 106.9 88.6 106.6 C 89.1 106.3 89.7 106.1 90.3 106 C 90.9 105.9 91.5 105.8 92.1 105.7 C 92.9 105.6 93.5 105.5 94 105.4 C 94.5 105.4 94.9 105.3 95.1 105.2 C 95.3 105 95.5 104.8 95.5 104.5 C 95.5 104.5 95.5 104.4 95.5 104.4 C 95.5 103.6 95.2 102.9 94.8 102.5 C 94.3 102 93.6 101.8 92.7 101.8 C 91.7 101.8 91 102 90.4 102.4 C 89.9 102.8 89.5 103.3 89.3 103.7 C 89.3 103.7 87.4 103.1 87.4 103.1 C 87.7 102.3 88.2 101.6 88.7 101.2 C 89.3 100.7 89.9 100.4 90.6 100.3 C 91.3 100.1 92 100 92.6 100 C 93 100 93.5 100 94.1 100.1 C 94.6 100.2 95.2 100.4 95.7 100.7 C 96.2 101.1 96.6 101.5 97 102.1 C 97.3 102.8 97.5 103.6 97.5 104.6 C 97.47 104.63 97.5 113.3 97.5 113.3 L 95.5 113.3 L 95.5 111.5 C 95.5 111.5 95.35 111.48 95.4 111.5 C 95.2 111.8 95 112.1 94.7 112.4 C 94.4 112.7 93.9 113 93.4 113.2 C 92.9 113.4 92.2 113.6 91.5 113.6 Z M 91.8 111.8 C 92.6 111.8 93.2 111.6 93.8 111.3 C 94.3 111 94.8 110.6 95 110.1 C 95.3 109.6 95.5 109.1 95.5 108.5 C 95.5 108.5 95.5 106.7 95.5 106.7 C 95.4 106.8 95.2 106.9 94.9 106.9 C 94.6 107 94.3 107.1 93.9 107.2 C 93.5 107.2 93.2 107.3 92.8 107.3 C 92.5 107.4 92.2 107.4 92 107.4 C 91.5 107.5 91 107.6 90.5 107.7 C 90.1 107.9 89.7 108.1 89.4 108.4 C 89.2 108.7 89 109.1 89 109.6 C 89 110.3 89.3 110.9 89.8 111.2 C 90.3 111.6 91 111.8 91.8 111.8 Z M 100.9 113.3 L 100.9 95.8 L 103 95.8 L 103 102.2 C 103 102.2 103.13 102.24 103.1 102.2 C 103.3 102 103.5 101.7 103.7 101.4 C 104 101 104.4 100.7 104.9 100.4 C 105.4 100.1 106.1 100 106.9 100 C 108 100 109 100.3 109.8 100.8 C 110.7 101.4 111.3 102.1 111.8 103.2 C 112.3 104.2 112.5 105.4 112.5 106.7 C 112.5 108.1 112.3 109.3 111.8 110.3 C 111.3 111.4 110.7 112.1 109.8 112.7 C 109 113.2 108 113.5 106.9 113.5 C 106.1 113.5 105.4 113.4 104.9 113.1 C 104.4 112.8 104 112.5 103.8 112.1 C 103.5 111.8 103.3 111.5 103.1 111.2 C 103.13 111.24 102.9 111.2 102.9 111.2 L 102.9 113.3 L 100.9 113.3 Z M 102.9 106.7 C 102.9 107.7 103.1 108.6 103.4 109.3 C 103.6 110.1 104.1 110.7 104.6 111.1 C 105.2 111.5 105.9 111.7 106.7 111.7 C 107.5 111.7 108.2 111.5 108.8 111 C 109.3 110.6 109.8 110 110.1 109.2 C 110.3 108.5 110.5 107.6 110.5 106.7 C 110.5 105.8 110.4 105 110.1 104.2 C 109.8 103.5 109.4 102.9 108.8 102.4 C 108.2 102 107.5 101.8 106.7 101.8 C 105.9 101.8 105.2 102 104.6 102.4 C 104.1 102.8 103.6 103.4 103.3 104.1 C 103.1 104.9 102.9 105.7 102.9 106.7 Z M 115.2 113.3 L 115.2 100.2 L 117.2 100.2 L 117.2 113.3 L 115.2 113.3 Z M 116.2 98 C 115.8 98 115.5 97.8 115.2 97.6 C 114.9 97.3 114.8 97 114.8 96.6 C 114.8 96.2 114.9 95.9 115.2 95.7 C 115.5 95.4 115.8 95.3 116.2 95.3 C 116.6 95.3 116.9 95.4 117.2 95.7 C 117.5 95.9 117.6 96.2 117.6 96.6 C 117.6 97 117.5 97.3 117.2 97.6 C 116.9 97.8 116.6 98 116.2 98 Z M 122.6 95.8 L 122.6 113.3 L 120.6 113.3 L 120.6 95.8 L 122.6 95.8 Z M 126 113.3 L 126 100.2 L 128 100.2 L 128 113.3 L 126 113.3 Z M 127 98 C 126.6 98 126.3 97.8 126 97.6 C 125.7 97.3 125.6 97 125.6 96.6 C 125.6 96.2 125.7 95.9 126 95.7 C 126.3 95.4 126.6 95.3 127 95.3 C 127.4 95.3 127.7 95.4 128 95.7 C 128.3 95.9 128.4 96.2 128.4 96.6 C 128.4 97 128.3 97.3 128 97.6 C 127.7 97.8 127.4 98 127 98 Z M 136.9 100.2 L 136.9 101.9 L 130.1 101.9 L 130.1 100.2 L 136.9 100.2 Z M 132.1 97 L 134.1 97 C 134.1 97 134.14 109.5 134.1 109.5 C 134.1 110.1 134.2 110.5 134.4 110.8 C 134.6 111.1 134.8 111.2 135 111.3 C 135.3 111.4 135.6 111.5 135.9 111.5 C 136.1 111.5 136.3 111.5 136.4 111.4 C 136.6 111.4 136.7 111.4 136.8 111.4 C 136.8 111.4 137.2 113.2 137.2 113.2 C 137 113.2 136.8 113.3 136.6 113.3 C 136.4 113.4 136 113.4 135.7 113.4 C 135.1 113.4 134.5 113.3 134 113.1 C 133.5 112.8 133 112.4 132.7 111.9 C 132.3 111.4 132.1 110.8 132.1 110 C 132.13 110.05 132.1 97 132.1 97 Z M 141.1 118.2 C 140.8 118.2 140.5 118.1 140.2 118.1 C 140 118 139.8 118 139.7 117.9 C 139.7 117.9 140.2 116.1 140.2 116.1 C 140.7 116.3 141.1 116.3 141.5 116.3 C 141.9 116.3 142.2 116.1 142.5 115.8 C 142.8 115.5 143 115 143.3 114.3 C 143.29 114.34 143.7 113.3 143.7 113.3 L 138.8 100.2 L 141 100.2 L 144.6 110.6 L 144.8 110.6 L 148.4 100.2 L 150.6 100.2 C 150.6 100.2 144.99 115.16 145 115.2 C 144.7 115.8 144.4 116.4 144.1 116.8 C 143.7 117.3 143.3 117.6 142.8 117.8 C 142.3 118.1 141.7 118.2 141.1 118.2 Z M 163.3 113.6 C 162.5 113.6 161.7 113.4 161.1 113.1 C 160.4 112.8 159.9 112.3 159.5 111.7 C 159.1 111.1 158.9 110.4 158.9 109.5 C 158.9 108.8 159 108.2 159.3 107.7 C 159.6 107.2 160 106.9 160.5 106.6 C 161 106.3 161.5 106.1 162.1 106 C 162.7 105.9 163.3 105.8 163.9 105.7 C 164.7 105.6 165.4 105.5 165.9 105.4 C 166.4 105.4 166.7 105.3 167 105.2 C 167.2 105 167.3 104.8 167.3 104.5 C 167.3 104.5 167.3 104.4 167.3 104.4 C 167.3 103.6 167.1 102.9 166.6 102.5 C 166.2 102 165.5 101.8 164.6 101.8 C 163.6 101.8 162.8 102 162.3 102.4 C 161.8 102.8 161.4 103.3 161.1 103.7 C 161.1 103.7 159.2 103.1 159.2 103.1 C 159.6 102.3 160 101.6 160.6 101.2 C 161.2 100.7 161.8 100.4 162.5 100.3 C 163.2 100.1 163.8 100 164.5 100 C 164.9 100 165.4 100 165.9 100.1 C 166.5 100.2 167 100.4 167.5 100.7 C 168.1 101.1 168.5 101.5 168.8 102.1 C 169.2 102.8 169.3 103.6 169.3 104.6 C 169.33 104.63 169.3 113.3 169.3 113.3 L 167.3 113.3 L 167.3 111.5 C 167.3 111.5 167.22 111.48 167.2 111.5 C 167.1 111.8 166.9 112.1 166.5 112.4 C 166.2 112.7 165.8 113 165.3 113.2 C 164.7 113.4 164.1 113.6 163.3 113.6 Z M 163.6 111.8 C 164.4 111.8 165.1 111.6 165.7 111.3 C 166.2 111 166.6 110.6 166.9 110.1 C 167.2 109.6 167.3 109.1 167.3 108.5 C 167.3 108.5 167.3 106.7 167.3 106.7 C 167.2 106.8 167 106.9 166.8 106.9 C 166.5 107 166.1 107.1 165.8 107.2 C 165.4 107.2 165 107.3 164.7 107.3 C 164.3 107.4 164.1 107.4 163.8 107.4 C 163.3 107.5 162.8 107.6 162.4 107.7 C 161.9 107.9 161.6 108.1 161.3 108.4 C 161 108.7 160.9 109.1 160.9 109.6 C 160.9 110.3 161.1 110.9 161.7 111.2 C 162.2 111.6 162.8 111.8 163.6 111.8 Z M 174.7 105.4 C 174.69 105.38 174.7 113.3 174.7 113.3 L 172.7 113.3 L 172.7 100.2 L 174.6 100.2 L 174.6 102.2 C 174.6 102.2 174.8 102.2 174.8 102.2 C 175.1 101.5 175.6 101 176.2 100.6 C 176.8 100.2 177.6 100 178.6 100 C 179.5 100 180.3 100.2 180.9 100.5 C 181.6 100.9 182.1 101.4 182.5 102.2 C 182.9 102.9 183 103.8 183 104.9 C 183.05 104.93 183 113.3 183 113.3 L 181 113.3 C 181 113.3 181.03 105.07 181 105.1 C 181 104 180.8 103.2 180.2 102.7 C 179.7 102.1 179 101.8 178 101.8 C 177.4 101.8 176.8 101.9 176.3 102.2 C 175.8 102.5 175.4 102.9 175.1 103.4 C 174.8 104 174.7 104.6 174.7 105.4 Z M 191.3 113.5 C 190.2 113.5 189.3 113.2 188.4 112.7 C 187.6 112.1 186.9 111.4 186.5 110.3 C 186 109.3 185.7 108.1 185.7 106.7 C 185.7 105.4 186 104.2 186.5 103.2 C 186.9 102.1 187.6 101.4 188.4 100.8 C 189.3 100.3 190.2 100 191.3 100 C 192.2 100 192.9 100.1 193.4 100.4 C 193.9 100.7 194.2 101 194.5 101.4 C 194.8 101.7 195 102 195.1 102.2 C 195.12 102.24 195.3 102.2 195.3 102.2 L 195.3 95.8 L 197.3 95.8 L 197.3 113.3 L 195.4 113.3 L 195.4 111.2 C 195.4 111.2 195.12 111.24 195.1 111.2 C 195 111.5 194.8 111.8 194.5 112.1 C 194.2 112.5 193.8 112.8 193.3 113.1 C 192.8 113.4 192.1 113.5 191.3 113.5 Z M 191.6 111.7 C 192.4 111.7 193.1 111.5 193.6 111.1 C 194.2 110.7 194.6 110.1 194.9 109.3 C 195.2 108.6 195.3 107.7 195.3 106.7 C 195.3 105.7 195.2 104.9 194.9 104.1 C 194.6 103.4 194.2 102.8 193.6 102.4 C 193.1 102 192.4 101.8 191.6 101.8 C 190.7 101.8 190 102 189.5 102.4 C 188.9 102.9 188.5 103.5 188.2 104.2 C 187.9 105 187.8 105.8 187.8 106.7 C 187.8 107.6 187.9 108.5 188.2 109.2 C 188.5 110 188.9 110.6 189.5 111 C 190 111.5 190.7 111.7 191.6 111.7 Z M 207.8 113.3 L 207.8 95.8 L 209.8 95.8 L 209.8 102.2 C 209.8 102.2 209.98 102.24 210 102.2 C 210.1 102 210.3 101.7 210.6 101.4 C 210.9 101 211.2 100.7 211.7 100.4 C 212.2 100.1 212.9 100 213.8 100 C 214.9 100 215.8 100.3 216.7 100.8 C 217.5 101.4 218.2 102.1 218.7 103.2 C 219.1 104.2 219.4 105.4 219.4 106.7 C 219.4 108.1 219.1 109.3 218.7 110.3 C 218.2 111.4 217.5 112.1 216.7 112.7 C 215.9 113.2 214.9 113.5 213.8 113.5 C 213 113.5 212.3 113.4 211.8 113.1 C 211.3 112.8 210.9 112.5 210.6 112.1 C 210.3 111.8 210.1 111.5 210 111.2 C 209.98 111.24 209.7 111.2 209.7 111.2 L 209.7 113.3 L 207.8 113.3 Z M 209.8 106.7 C 209.8 107.7 209.9 108.6 210.2 109.3 C 210.5 110.1 210.9 110.7 211.5 111.1 C 212 111.5 212.7 111.7 213.5 111.7 C 214.4 111.7 215.1 111.5 215.6 111 C 216.2 110.6 216.6 110 216.9 109.2 C 217.2 108.5 217.3 107.6 217.3 106.7 C 217.3 105.8 217.2 105 216.9 104.2 C 216.6 103.5 216.2 102.9 215.7 102.4 C 215.1 102 214.4 101.8 213.5 101.8 C 212.7 101.8 212 102 211.5 102.4 C 210.9 102.8 210.5 103.4 210.2 104.1 C 209.9 104.9 209.8 105.7 209.8 106.7 Z M 227.6 113.5 C 226.3 113.5 225.2 113.2 224.3 112.7 C 223.4 112.1 222.7 111.3 222.2 110.3 C 221.7 109.3 221.5 108.1 221.5 106.8 C 221.5 105.5 221.7 104.3 222.2 103.3 C 222.7 102.2 223.4 101.4 224.3 100.9 C 225.2 100.3 226.2 100 227.4 100 C 228 100 228.7 100.1 229.4 100.3 C 230.1 100.6 230.7 100.9 231.2 101.4 C 231.7 101.9 232.2 102.6 232.5 103.4 C 232.8 104.3 233 105.3 233 106.5 C 232.99 106.53 233 107.4 233 107.4 L 222.9 107.4 L 222.9 105.6 C 222.9 105.6 230.95 105.65 230.9 105.6 C 230.9 104.9 230.8 104.3 230.5 103.7 C 230.2 103.1 229.8 102.6 229.3 102.3 C 228.7 102 228.1 101.8 227.4 101.8 C 226.6 101.8 225.9 102 225.3 102.4 C 224.7 102.8 224.3 103.3 223.9 103.9 C 223.6 104.6 223.5 105.2 223.5 106 C 223.5 106 223.5 107.1 223.5 107.1 C 223.5 108.1 223.7 108.9 224 109.6 C 224.3 110.3 224.8 110.8 225.4 111.2 C 226 111.5 226.8 111.7 227.6 111.7 C 228.1 111.7 228.6 111.6 229 111.5 C 229.4 111.3 229.8 111.1 230.1 110.8 C 230.4 110.5 230.7 110.1 230.8 109.7 C 230.8 109.7 232.8 110.2 232.8 110.2 C 232.6 110.9 232.2 111.5 231.8 112 C 231.3 112.4 230.7 112.8 230 113.1 C 229.3 113.4 228.5 113.5 227.6 113.5 Z M 241.1 100.2 L 241.1 101.9 L 234.3 101.9 L 234.3 100.2 L 241.1 100.2 Z M 236.3 97 L 238.3 97 C 238.3 97 238.28 109.5 238.3 109.5 C 238.3 110.1 238.4 110.5 238.5 110.8 C 238.7 111.1 238.9 111.2 239.2 111.3 C 239.4 111.4 239.7 111.5 240 111.5 C 240.2 111.5 240.4 111.5 240.6 111.4 C 240.7 111.4 240.8 111.4 240.9 111.4 C 240.9 111.4 241.3 113.2 241.3 113.2 C 241.2 113.2 241 113.3 240.7 113.3 C 240.5 113.4 240.2 113.4 239.8 113.4 C 239.3 113.4 238.7 113.3 238.2 113.1 C 237.6 112.8 237.2 112.4 236.8 111.9 C 236.5 111.4 236.3 110.8 236.3 110 C 236.27 110.05 236.3 97 236.3 97 Z M 249.7 100.2 L 249.7 101.9 L 242.9 101.9 L 242.9 100.2 L 249.7 100.2 Z M 244.9 97 L 246.9 97 C 246.9 97 246.93 109.5 246.9 109.5 C 246.9 110.1 247 110.5 247.2 110.8 C 247.3 111.1 247.6 111.2 247.8 111.3 C 248.1 111.4 248.4 111.5 248.7 111.5 C 248.9 111.5 249.1 111.5 249.2 111.4 C 249.4 111.4 249.5 111.4 249.6 111.4 C 249.6 111.4 250 113.2 250 113.2 C 249.8 113.2 249.6 113.3 249.4 113.3 C 249.1 113.4 248.8 113.4 248.5 113.4 C 247.9 113.4 247.3 113.3 246.8 113.1 C 246.3 112.8 245.8 112.4 245.4 111.9 C 245.1 111.4 244.9 110.8 244.9 110 C 244.91 110.05 244.9 97 244.9 97 Z M 257.3 113.5 C 256 113.5 254.9 113.2 254 112.7 C 253.1 112.1 252.4 111.3 251.9 110.3 C 251.4 109.3 251.1 108.1 251.1 106.8 C 251.1 105.5 251.4 104.3 251.9 103.3 C 252.4 102.2 253.1 101.4 253.9 100.9 C 254.8 100.3 255.9 100 257 100 C 257.7 100 258.4 100.1 259.1 100.3 C 259.7 100.6 260.3 100.9 260.9 101.4 C 261.4 101.9 261.9 102.6 262.2 103.4 C 262.5 104.3 262.7 105.3 262.7 106.5 C 262.67 106.53 262.7 107.4 262.7 107.4 L 252.6 107.4 L 252.6 105.6 C 252.6 105.6 260.63 105.65 260.6 105.6 C 260.6 104.9 260.5 104.3 260.2 103.7 C 259.9 103.1 259.5 102.6 258.9 102.3 C 258.4 102 257.8 101.8 257 101.8 C 256.2 101.8 255.6 102 255 102.4 C 254.4 102.8 253.9 103.3 253.6 103.9 C 253.3 104.6 253.2 105.2 253.2 106 C 253.2 106 253.2 107.1 253.2 107.1 C 253.2 108.1 253.3 108.9 253.7 109.6 C 254 110.3 254.5 110.8 255.1 111.2 C 255.7 111.5 256.4 111.7 257.3 111.7 C 257.8 111.7 258.3 111.6 258.7 111.5 C 259.1 111.3 259.5 111.1 259.8 110.8 C 260.1 110.5 260.4 110.1 260.5 109.7 C 260.5 109.7 262.5 110.2 262.5 110.2 C 262.3 110.9 261.9 111.5 261.4 112 C 261 112.4 260.4 112.8 259.6 113.1 C 258.9 113.4 258.1 113.5 257.3 113.5 Z M 265.4 113.3 L 265.4 100.2 L 267.4 100.2 L 267.4 102.1 C 267.4 102.1 267.51 102.14 267.5 102.1 C 267.7 101.5 268.2 101 268.8 100.6 C 269.4 100.2 270.1 100 270.9 100 C 271.1 100 271.2 100 271.5 100 C 271.7 100 271.9 100 272 100 C 272 100 272 102 272 102 C 271.9 102 271.8 102 271.5 102 C 271.3 101.9 271 101.9 270.7 101.9 C 270.1 101.9 269.5 102 269 102.3 C 268.5 102.6 268.2 102.9 267.9 103.4 C 267.6 103.8 267.4 104.4 267.4 105 C 267.44 104.97 267.4 113.3 267.4 113.3 L 265.4 113.3 Z " stroke="none" fill="#ffffff"/>  </g>  <g id="Polygon108314">    <path d="M 12.2 70.2 L 12.2 71.9 L 5.2 71.9 L 5.2 70.2 L 12.2 70.2 Z M 7.3 83.3 C 7.3 83.3 7.27 68.35 7.3 68.4 C 7.3 67.6 7.4 67 7.8 66.5 C 8.1 66 8.6 65.6 9.2 65.4 C 9.7 65.1 10.3 65 10.9 65 C 11.4 65 11.8 65 12.2 65.1 C 12.5 65.2 12.7 65.3 12.9 65.3 C 12.9 65.3 12.3 67.1 12.3 67.1 C 12.2 67 12 67 11.9 66.9 C 11.7 66.9 11.4 66.9 11.2 66.9 C 10.5 66.9 10 67 9.7 67.4 C 9.4 67.7 9.3 68.2 9.3 68.8 C 9.28 68.83 9.3 83.3 9.3 83.3 L 7.3 83.3 Z M 14.9 83.3 L 14.9 70.2 L 16.9 70.2 L 16.9 83.3 L 14.9 83.3 Z M 16 68 C 15.6 68 15.2 67.8 15 67.6 C 14.7 67.3 14.5 67 14.5 66.6 C 14.5 66.2 14.7 65.9 15 65.7 C 15.2 65.4 15.6 65.3 16 65.3 C 16.4 65.3 16.7 65.4 17 65.7 C 17.3 65.9 17.4 66.2 17.4 66.6 C 17.4 67 17.3 67.3 17 67.6 C 16.7 67.8 16.4 68 16 68 Z M 22.3 75.4 C 22.34 75.38 22.3 83.3 22.3 83.3 L 20.3 83.3 L 20.3 70.2 L 22.3 70.2 L 22.3 72.2 C 22.3 72.2 22.44 72.2 22.4 72.2 C 22.8 71.5 23.2 71 23.8 70.6 C 24.5 70.2 25.3 70 26.3 70 C 27.1 70 27.9 70.2 28.6 70.5 C 29.3 70.9 29.8 71.4 30.1 72.2 C 30.5 72.9 30.7 73.8 30.7 74.9 C 30.69 74.93 30.7 83.3 30.7 83.3 L 28.7 83.3 C 28.7 83.3 28.68 75.07 28.7 75.1 C 28.7 74 28.4 73.2 27.9 72.7 C 27.3 72.1 26.6 71.8 25.7 71.8 C 25 71.8 24.5 71.9 24 72.2 C 23.5 72.5 23.1 72.9 22.8 73.4 C 22.5 74 22.3 74.6 22.3 75.4 Z M 39 83.5 C 37.9 83.5 36.9 83.2 36.1 82.7 C 35.2 82.1 34.6 81.4 34.1 80.3 C 33.6 79.3 33.4 78.1 33.4 76.7 C 33.4 75.4 33.6 74.2 34.1 73.2 C 34.6 72.1 35.2 71.4 36.1 70.8 C 36.9 70.3 37.9 70 39 70 C 39.8 70 40.5 70.1 41 70.4 C 41.5 70.7 41.9 71 42.2 71.4 C 42.4 71.7 42.6 72 42.8 72.2 C 42.77 72.24 42.9 72.2 42.9 72.2 L 42.9 65.8 L 45 65.8 L 45 83.3 L 43 83.3 L 43 81.2 C 43 81.2 42.77 81.24 42.8 81.2 C 42.6 81.5 42.4 81.8 42.1 82.1 C 41.9 82.5 41.5 82.8 41 83.1 C 40.5 83.4 39.8 83.5 39 83.5 Z M 39.2 81.7 C 40 81.7 40.7 81.5 41.3 81.1 C 41.8 80.7 42.3 80.1 42.5 79.3 C 42.8 78.6 43 77.7 43 76.7 C 43 75.7 42.8 74.9 42.6 74.1 C 42.3 73.4 41.8 72.8 41.3 72.4 C 40.7 72 40 71.8 39.2 71.8 C 38.4 71.8 37.7 72 37.1 72.4 C 36.5 72.9 36.1 73.5 35.8 74.2 C 35.6 75 35.4 75.8 35.4 76.7 C 35.4 77.6 35.6 78.5 35.8 79.2 C 36.1 80 36.6 80.6 37.1 81 C 37.7 81.5 38.4 81.7 39.2 81.7 Z M 56.5 88.2 C 56.1 88.2 55.8 88.1 55.6 88.1 C 55.3 88 55.1 88 55 87.9 C 55 87.9 55.5 86.1 55.5 86.1 C 56 86.3 56.4 86.3 56.8 86.3 C 57.2 86.3 57.5 86.1 57.8 85.8 C 58.1 85.5 58.4 85 58.6 84.3 C 58.62 84.34 59 83.3 59 83.3 L 54.2 70.2 L 56.3 70.2 L 60 80.6 L 60.1 80.6 L 63.7 70.2 L 65.9 70.2 C 65.9 70.2 60.33 85.16 60.3 85.2 C 60.1 85.8 59.8 86.4 59.4 86.8 C 59 87.3 58.6 87.6 58.1 87.8 C 57.6 88.1 57.1 88.2 56.5 88.2 Z M 72.9 83.5 C 71.7 83.5 70.7 83.2 69.8 82.7 C 68.9 82.1 68.2 81.3 67.7 80.3 C 67.2 79.3 67 78.1 67 76.8 C 67 75.4 67.2 74.2 67.7 73.2 C 68.2 72.2 68.9 71.4 69.8 70.8 C 70.7 70.3 71.7 70 72.9 70 C 74.1 70 75.1 70.3 76 70.8 C 76.9 71.4 77.6 72.2 78.1 73.2 C 78.6 74.2 78.8 75.4 78.8 76.8 C 78.8 78.1 78.6 79.3 78.1 80.3 C 77.6 81.3 76.9 82.1 76 82.7 C 75.1 83.2 74.1 83.5 72.9 83.5 Z M 72.9 81.7 C 73.8 81.7 74.5 81.5 75.1 81 C 75.7 80.6 76.1 80 76.4 79.2 C 76.7 78.5 76.8 77.6 76.8 76.8 C 76.8 75.9 76.7 75.1 76.4 74.3 C 76.1 73.6 75.7 73 75.1 72.5 C 74.5 72 73.8 71.8 72.9 71.8 C 72 71.8 71.3 72 70.7 72.5 C 70.1 73 69.7 73.6 69.4 74.3 C 69.1 75.1 69 75.9 69 76.8 C 69 77.6 69.1 78.5 69.4 79.2 C 69.7 80 70.1 80.6 70.7 81 C 71.3 81.5 72 81.7 72.9 81.7 Z M 89.7 77.9 C 89.75 77.9 89.7 70.2 89.7 70.2 L 91.8 70.2 L 91.8 83.3 L 89.7 83.3 L 89.7 81 C 89.7 81 89.61 81.03 89.6 81 C 89.3 81.7 88.8 82.3 88.2 82.7 C 87.5 83.2 86.7 83.4 85.7 83.4 C 84.9 83.4 84.2 83.2 83.5 82.9 C 82.9 82.5 82.4 82 82 81.2 C 81.7 80.5 81.5 79.6 81.5 78.5 C 81.5 78.48 81.5 70.2 81.5 70.2 L 83.5 70.2 C 83.5 70.2 83.51 78.34 83.5 78.3 C 83.5 79.3 83.8 80.1 84.3 80.6 C 84.8 81.2 85.5 81.5 86.4 81.5 C 86.9 81.5 87.4 81.3 87.9 81.1 C 88.4 80.8 88.9 80.4 89.2 79.9 C 89.6 79.4 89.7 78.7 89.7 77.9 Z M 95.1 83.3 L 95.1 70.2 L 97.1 70.2 L 97.1 72.1 C 97.1 72.1 97.21 72.14 97.2 72.1 C 97.4 71.5 97.9 71 98.5 70.6 C 99.1 70.2 99.8 70 100.6 70 C 100.8 70 100.9 70 101.2 70 C 101.4 70 101.6 70 101.7 70 C 101.7 70 101.7 72 101.7 72 C 101.6 72 101.4 72 101.2 72 C 101 71.9 100.7 71.9 100.4 71.9 C 99.8 71.9 99.2 72 98.7 72.3 C 98.2 72.6 97.9 72.9 97.6 73.4 C 97.3 73.8 97.1 74.4 97.1 75 C 97.14 74.97 97.1 83.3 97.1 83.3 L 95.1 83.3 Z M 113.3 83.3 L 109.3 70.2 L 111.4 70.2 L 114.2 80.2 L 114.4 80.2 L 117.2 70.2 L 119.3 70.2 L 122.1 80.1 L 122.2 80.1 L 125.1 70.2 L 127.2 70.2 L 123.2 83.3 L 121.2 83.3 L 118.3 73.2 L 118.1 73.2 L 115.3 83.3 L 113.3 83.3 Z M 133 83.6 C 132.1 83.6 131.4 83.4 130.7 83.1 C 130 82.8 129.5 82.3 129.1 81.7 C 128.7 81.1 128.5 80.4 128.5 79.5 C 128.5 78.8 128.7 78.2 128.9 77.7 C 129.2 77.2 129.6 76.9 130.1 76.6 C 130.6 76.3 131.2 76.1 131.8 76 C 132.4 75.9 133 75.8 133.6 75.7 C 134.4 75.6 135 75.5 135.5 75.4 C 136 75.4 136.4 75.3 136.6 75.2 C 136.8 75 137 74.8 137 74.5 C 137 74.5 137 74.4 137 74.4 C 137 73.6 136.7 72.9 136.3 72.5 C 135.8 72 135.1 71.8 134.2 71.8 C 133.2 71.8 132.5 72 131.9 72.4 C 131.4 72.8 131 73.3 130.8 73.7 C 130.8 73.7 128.9 73.1 128.9 73.1 C 129.2 72.3 129.7 71.6 130.2 71.2 C 130.8 70.7 131.4 70.4 132.1 70.3 C 132.8 70.1 133.5 70 134.1 70 C 134.5 70 135 70 135.6 70.1 C 136.1 70.2 136.7 70.4 137.2 70.7 C 137.7 71.1 138.1 71.5 138.5 72.1 C 138.8 72.8 139 73.6 139 74.6 C 138.97 74.63 139 83.3 139 83.3 L 137 83.3 L 137 81.5 C 137 81.5 136.86 81.48 136.9 81.5 C 136.7 81.8 136.5 82.1 136.2 82.4 C 135.9 82.7 135.4 83 134.9 83.2 C 134.4 83.4 133.7 83.6 133 83.6 Z M 133.3 81.8 C 134.1 81.8 134.7 81.6 135.3 81.3 C 135.8 81 136.3 80.6 136.5 80.1 C 136.8 79.6 137 79.1 137 78.5 C 137 78.5 137 76.7 137 76.7 C 136.9 76.8 136.7 76.9 136.4 76.9 C 136.1 77 135.8 77.1 135.4 77.2 C 135 77.2 134.7 77.3 134.3 77.3 C 134 77.4 133.7 77.4 133.5 77.4 C 133 77.5 132.5 77.6 132 77.7 C 131.6 77.9 131.2 78.1 130.9 78.4 C 130.7 78.7 130.5 79.1 130.5 79.6 C 130.5 80.3 130.8 80.9 131.3 81.2 C 131.8 81.6 132.5 81.8 133.3 81.8 Z M 143 88.2 C 142.6 88.2 142.3 88.1 142.1 88.1 C 141.8 88 141.6 88 141.5 87.9 C 141.5 87.9 142 86.1 142 86.1 C 142.5 86.3 143 86.3 143.3 86.3 C 143.7 86.3 144 86.1 144.3 85.8 C 144.6 85.5 144.9 85 145.1 84.3 C 145.14 84.34 145.5 83.3 145.5 83.3 L 140.7 70.2 L 142.9 70.2 L 146.5 80.6 L 146.6 80.6 L 150.2 70.2 L 152.4 70.2 C 152.4 70.2 146.84 85.16 146.8 85.2 C 146.6 85.8 146.3 86.4 145.9 86.8 C 145.5 87.3 145.1 87.6 144.6 87.8 C 144.1 88.1 143.6 88.2 143 88.2 Z M 167 70.2 L 167 71.9 L 160.2 71.9 L 160.2 70.2 L 167 70.2 Z M 162.2 67 L 164.2 67 C 164.2 67 164.22 79.5 164.2 79.5 C 164.2 80.1 164.3 80.5 164.5 80.8 C 164.6 81.1 164.9 81.2 165.1 81.3 C 165.4 81.4 165.7 81.5 166 81.5 C 166.2 81.5 166.4 81.5 166.5 81.4 C 166.7 81.4 166.8 81.4 166.8 81.4 C 166.8 81.4 167.3 83.2 167.3 83.2 C 167.1 83.2 166.9 83.3 166.7 83.3 C 166.4 83.4 166.1 83.4 165.8 83.4 C 165.2 83.4 164.6 83.3 164.1 83.1 C 163.6 82.8 163.1 82.4 162.7 81.9 C 162.4 81.4 162.2 80.8 162.2 80 C 162.21 80.05 162.2 67 162.2 67 Z M 174.4 83.5 C 173.2 83.5 172.2 83.2 171.3 82.7 C 170.4 82.1 169.7 81.3 169.2 80.3 C 168.7 79.3 168.4 78.1 168.4 76.8 C 168.4 75.4 168.7 74.2 169.2 73.2 C 169.7 72.2 170.4 71.4 171.3 70.8 C 172.2 70.3 173.2 70 174.4 70 C 175.6 70 176.6 70.3 177.5 70.8 C 178.4 71.4 179.1 72.2 179.6 73.2 C 180.1 74.2 180.3 75.4 180.3 76.8 C 180.3 78.1 180.1 79.3 179.6 80.3 C 179.1 81.3 178.4 82.1 177.5 82.7 C 176.6 83.2 175.6 83.5 174.4 83.5 Z M 174.4 81.7 C 175.3 81.7 176 81.5 176.6 81 C 177.2 80.6 177.6 80 177.9 79.2 C 178.2 78.5 178.3 77.6 178.3 76.8 C 178.3 75.9 178.2 75.1 177.9 74.3 C 177.6 73.6 177.2 73 176.6 72.5 C 176 72 175.3 71.8 174.4 71.8 C 173.5 71.8 172.7 72 172.2 72.5 C 171.6 73 171.2 73.6 170.9 74.3 C 170.6 75.1 170.5 75.9 170.5 76.8 C 170.5 77.6 170.6 78.5 170.9 79.2 C 171.2 80 171.6 80.6 172.2 81 C 172.7 81.5 173.5 81.7 174.4 81.7 Z M 189.7 83.3 L 189.7 70.2 L 191.7 70.2 L 191.7 83.3 L 189.7 83.3 Z M 190.7 68 C 190.3 68 189.9 67.8 189.7 67.6 C 189.4 67.3 189.2 67 189.2 66.6 C 189.2 66.2 189.4 65.9 189.7 65.7 C 189.9 65.4 190.3 65.3 190.7 65.3 C 191.1 65.3 191.4 65.4 191.7 65.7 C 192 65.9 192.1 66.2 192.1 66.6 C 192.1 67 192 67.3 191.7 67.6 C 191.4 67.8 191.1 68 190.7 68 Z M 197.1 75.4 C 197.06 75.38 197.1 83.3 197.1 83.3 L 195 83.3 L 195 70.2 L 197 70.2 L 197 72.2 C 197 72.2 197.16 72.2 197.2 72.2 C 197.5 71.5 197.9 71 198.6 70.6 C 199.2 70.2 200 70 201 70 C 201.9 70 202.6 70.2 203.3 70.5 C 204 70.9 204.5 71.4 204.9 72.2 C 205.2 72.9 205.4 73.8 205.4 74.9 C 205.41 74.93 205.4 83.3 205.4 83.3 L 203.4 83.3 C 203.4 83.3 203.4 75.07 203.4 75.1 C 203.4 74 203.1 73.2 202.6 72.7 C 202.1 72.1 201.3 71.8 200.4 71.8 C 199.8 71.8 199.2 71.9 198.7 72.2 C 198.2 72.5 197.8 72.9 197.5 73.4 C 197.2 74 197.1 74.6 197.1 75.4 Z M 214 83.5 C 212.8 83.5 211.7 83.2 210.8 82.7 C 209.9 82.1 209.3 81.3 208.8 80.3 C 208.3 79.2 208.1 78.1 208.1 76.8 C 208.1 75.4 208.3 74.3 208.8 73.2 C 209.3 72.2 210 71.4 210.9 70.9 C 211.8 70.3 212.8 70 214 70 C 214.9 70 215.7 70.2 216.5 70.5 C 217.2 70.8 217.8 71.3 218.3 71.9 C 218.7 72.5 219 73.3 219.2 74.1 C 219.2 74.1 217.1 74.1 217.1 74.1 C 217 73.5 216.6 73 216.1 72.5 C 215.6 72 214.9 71.8 214 71.8 C 213.2 71.8 212.5 72 211.9 72.4 C 211.4 72.8 210.9 73.4 210.6 74.1 C 210.2 74.9 210.1 75.7 210.1 76.7 C 210.1 77.7 210.2 78.6 210.6 79.3 C 210.9 80.1 211.3 80.7 211.9 81.1 C 212.5 81.5 213.2 81.7 214 81.7 C 214.5 81.7 215 81.6 215.4 81.4 C 215.9 81.3 216.2 81 216.5 80.7 C 216.8 80.3 217 79.9 217.1 79.4 C 217.1 79.4 219.2 79.4 219.2 79.4 C 219 80.2 218.8 80.9 218.3 81.5 C 217.9 82.1 217.3 82.6 216.5 83 C 215.8 83.3 215 83.5 214 83.5 Z M 221.8 83.3 L 221.8 70.2 L 223.7 70.2 L 223.7 72.1 C 223.7 72.1 223.83 72.14 223.8 72.1 C 224.1 71.5 224.5 71 225.1 70.6 C 225.8 70.2 226.5 70 227.2 70 C 227.4 70 227.6 70 227.8 70 C 228 70 228.2 70 228.3 70 C 228.3 70 228.3 72 228.3 72 C 228.2 72 228.1 72 227.8 72 C 227.6 71.9 227.3 71.9 227.1 71.9 C 226.4 71.9 225.9 72 225.4 72.3 C 224.9 72.6 224.5 72.9 224.2 73.4 C 223.9 73.8 223.8 74.4 223.8 75 C 223.76 74.97 223.8 83.3 223.8 83.3 L 221.8 83.3 Z M 235.6 83.5 C 234.3 83.5 233.2 83.2 232.3 82.7 C 231.4 82.1 230.7 81.3 230.2 80.3 C 229.7 79.3 229.5 78.1 229.5 76.8 C 229.5 75.5 229.7 74.3 230.2 73.3 C 230.7 72.2 231.4 71.4 232.3 70.9 C 233.2 70.3 234.2 70 235.4 70 C 236.1 70 236.7 70.1 237.4 70.3 C 238.1 70.6 238.7 70.9 239.2 71.4 C 239.8 71.9 240.2 72.6 240.5 73.4 C 240.8 74.3 241 75.3 241 76.5 C 241 76.53 241 77.4 241 77.4 L 230.9 77.4 L 230.9 75.6 C 230.9 75.6 238.95 75.65 239 75.6 C 239 74.9 238.8 74.3 238.5 73.7 C 238.2 73.1 237.8 72.6 237.3 72.3 C 236.7 72 236.1 71.8 235.4 71.8 C 234.6 71.8 233.9 72 233.3 72.4 C 232.7 72.8 232.3 73.3 232 73.9 C 231.6 74.6 231.5 75.2 231.5 76 C 231.5 76 231.5 77.1 231.5 77.1 C 231.5 78.1 231.7 78.9 232 79.6 C 232.3 80.3 232.8 80.8 233.4 81.2 C 234 81.5 234.8 81.7 235.6 81.7 C 236.1 81.7 236.6 81.6 237 81.5 C 237.4 81.3 237.8 81.1 238.1 80.8 C 238.4 80.5 238.7 80.1 238.8 79.7 C 238.8 79.7 240.8 80.2 240.8 80.2 C 240.6 80.9 240.2 81.5 239.8 82 C 239.3 82.4 238.7 82.8 238 83.1 C 237.3 83.4 236.5 83.5 235.6 83.5 Z M 247.5 83.6 C 246.6 83.6 245.9 83.4 245.2 83.1 C 244.5 82.8 244 82.3 243.6 81.7 C 243.2 81.1 243 80.4 243 79.5 C 243 78.8 243.1 78.2 243.4 77.7 C 243.7 77.2 244.1 76.9 244.6 76.6 C 245.1 76.3 245.7 76.1 246.3 76 C 246.9 75.9 247.5 75.8 248.1 75.7 C 248.9 75.6 249.5 75.5 250 75.4 C 250.5 75.4 250.9 75.3 251.1 75.2 C 251.3 75 251.5 74.8 251.5 74.5 C 251.5 74.5 251.5 74.4 251.5 74.4 C 251.5 73.6 251.2 72.9 250.8 72.5 C 250.3 72 249.6 71.8 248.7 71.8 C 247.7 71.8 247 72 246.4 72.4 C 245.9 72.8 245.5 73.3 245.3 73.7 C 245.3 73.7 243.4 73.1 243.4 73.1 C 243.7 72.3 244.2 71.6 244.7 71.2 C 245.3 70.7 245.9 70.4 246.6 70.3 C 247.3 70.1 248 70 248.6 70 C 249 70 249.5 70 250.1 70.1 C 250.6 70.2 251.2 70.4 251.7 70.7 C 252.2 71.1 252.6 71.5 253 72.1 C 253.3 72.8 253.5 73.6 253.5 74.6 C 253.46 74.63 253.5 83.3 253.5 83.3 L 251.5 83.3 L 251.5 81.5 C 251.5 81.5 251.35 81.48 251.4 81.5 C 251.2 81.8 251 82.1 250.7 82.4 C 250.4 82.7 249.9 83 249.4 83.2 C 248.9 83.4 248.2 83.6 247.5 83.6 Z M 247.8 81.8 C 248.6 81.8 249.2 81.6 249.8 81.3 C 250.3 81 250.8 80.6 251 80.1 C 251.3 79.6 251.5 79.1 251.5 78.5 C 251.5 78.5 251.5 76.7 251.5 76.7 C 251.4 76.8 251.2 76.9 250.9 76.9 C 250.6 77 250.3 77.1 249.9 77.2 C 249.5 77.2 249.2 77.3 248.8 77.3 C 248.5 77.4 248.2 77.4 248 77.4 C 247.5 77.5 247 77.6 246.5 77.7 C 246.1 77.9 245.7 78.1 245.4 78.4 C 245.1 78.7 245 79.1 245 79.6 C 245 80.3 245.3 80.9 245.8 81.2 C 246.3 81.6 247 81.8 247.8 81.8 Z M 265.9 73.1 C 265.9 73.1 264.1 73.6 264.1 73.6 C 264 73.3 263.8 73 263.6 72.7 C 263.4 72.4 263.1 72.2 262.7 72 C 262.3 71.8 261.9 71.7 261.3 71.7 C 260.5 71.7 259.8 71.9 259.3 72.3 C 258.7 72.6 258.5 73.1 258.5 73.7 C 258.5 74.2 258.7 74.6 259 74.9 C 259.4 75.1 260 75.4 260.7 75.6 C 260.7 75.6 262.7 76.1 262.7 76.1 C 263.8 76.3 264.7 76.8 265.3 77.4 C 265.9 77.9 266.2 78.7 266.2 79.6 C 266.2 80.4 265.9 81 265.5 81.6 C 265.1 82.2 264.5 82.7 263.7 83 C 262.9 83.4 262.1 83.5 261 83.5 C 259.7 83.5 258.6 83.2 257.7 82.7 C 256.8 82.1 256.3 81.2 256.1 80.1 C 256.1 80.1 258 79.6 258 79.6 C 258.2 80.3 258.5 80.9 259 81.2 C 259.5 81.6 260.2 81.8 261 81.8 C 261.9 81.8 262.7 81.5 263.2 81.1 C 263.8 80.7 264.1 80.3 264.1 79.7 C 264.1 79.3 263.9 78.9 263.6 78.6 C 263.3 78.2 262.8 78 262.1 77.9 C 262.1 77.9 259.9 77.4 259.9 77.4 C 258.7 77.1 257.9 76.6 257.3 76 C 256.7 75.4 256.5 74.7 256.5 73.8 C 256.5 73 256.7 72.4 257.1 71.8 C 257.5 71.2 258.1 70.8 258.8 70.5 C 259.5 70.2 260.4 70 261.3 70 C 262.6 70 263.6 70.3 264.3 70.8 C 265.1 71.4 265.6 72.2 265.9 73.1 Z M 274.3 83.5 C 273 83.5 271.9 83.2 271 82.7 C 270.1 82.1 269.4 81.3 268.9 80.3 C 268.4 79.3 268.2 78.1 268.2 76.8 C 268.2 75.5 268.4 74.3 268.9 73.3 C 269.4 72.2 270.1 71.4 271 70.9 C 271.8 70.3 272.9 70 274.1 70 C 274.7 70 275.4 70.1 276.1 70.3 C 276.7 70.6 277.3 70.9 277.9 71.4 C 278.4 71.9 278.9 72.6 279.2 73.4 C 279.5 74.3 279.7 75.3 279.7 76.5 C 279.68 76.53 279.7 77.4 279.7 77.4 L 269.6 77.4 L 269.6 75.6 C 269.6 75.6 277.63 75.65 277.6 75.6 C 277.6 74.9 277.5 74.3 277.2 73.7 C 276.9 73.1 276.5 72.6 275.9 72.3 C 275.4 72 274.8 71.8 274.1 71.8 C 273.3 71.8 272.6 72 272 72.4 C 271.4 72.8 270.9 73.3 270.6 73.9 C 270.3 74.6 270.2 75.2 270.2 76 C 270.2 76 270.2 77.1 270.2 77.1 C 270.2 78.1 270.3 78.9 270.7 79.6 C 271 80.3 271.5 80.8 272.1 81.2 C 272.7 81.5 273.4 81.7 274.3 81.7 C 274.8 81.7 275.3 81.6 275.7 81.5 C 276.1 81.3 276.5 81.1 276.8 80.8 C 277.1 80.5 277.4 80.1 277.5 79.7 C 277.5 79.7 279.5 80.2 279.5 80.2 C 279.3 80.9 278.9 81.5 278.4 82 C 278 82.4 277.4 82.8 276.7 83.1 C 275.9 83.4 275.1 83.5 274.3 83.5 Z M 287.3 83.5 C 286.3 83.5 285.3 83.2 284.5 82.7 C 283.6 82.1 283 81.4 282.5 80.3 C 282 79.3 281.8 78.1 281.8 76.7 C 281.8 75.4 282 74.2 282.5 73.2 C 283 72.1 283.6 71.4 284.5 70.8 C 285.3 70.3 286.3 70 287.4 70 C 288.2 70 288.9 70.1 289.4 70.4 C 289.9 70.7 290.3 71 290.5 71.4 C 290.8 71.7 291 72 291.2 72.2 C 291.17 72.24 291.3 72.2 291.3 72.2 L 291.3 65.8 L 293.3 65.8 L 293.3 83.3 L 291.4 83.3 L 291.4 81.2 C 291.4 81.2 291.17 81.24 291.2 81.2 C 291 81.5 290.8 81.8 290.5 82.1 C 290.3 82.5 289.9 82.8 289.4 83.1 C 288.9 83.4 288.2 83.5 287.3 83.5 Z M 287.6 81.7 C 288.4 81.7 289.1 81.5 289.7 81.1 C 290.2 80.7 290.6 80.1 290.9 79.3 C 291.2 78.6 291.4 77.7 291.4 76.7 C 291.4 75.7 291.2 74.9 290.9 74.1 C 290.7 73.4 290.2 72.8 289.7 72.4 C 289.1 72 288.4 71.8 287.6 71.8 C 286.8 71.8 286.1 72 285.5 72.4 C 284.9 72.9 284.5 73.5 284.2 74.2 C 283.9 75 283.8 75.8 283.8 76.7 C 283.8 77.6 283.9 78.5 284.2 79.2 C 284.5 80 284.9 80.6 285.5 81 C 286.1 81.5 286.8 81.7 287.6 81.7 Z " stroke="none" fill="#ffffff"/>  </g>  <g id="Polygon108313">    <path d="M 22.3 40.2 L 22.3 41.9 L 15.5 41.9 L 15.5 40.2 L 22.3 40.2 Z M 17.4 37 L 19.5 37 C 19.5 37 19.46 49.5 19.5 49.5 C 19.5 50.1 19.5 50.5 19.7 50.8 C 19.9 51.1 20.1 51.2 20.4 51.3 C 20.6 51.4 20.9 51.5 21.2 51.5 C 21.4 51.5 21.6 51.5 21.7 51.4 C 21.9 51.4 22 51.4 22.1 51.4 C 22.1 51.4 22.5 53.2 22.5 53.2 C 22.4 53.2 22.2 53.3 21.9 53.3 C 21.7 53.4 21.4 53.4 21 53.4 C 20.4 53.4 19.9 53.3 19.3 53.1 C 18.8 52.8 18.3 52.4 18 51.9 C 17.6 51.4 17.4 50.8 17.4 50 C 17.45 50.05 17.4 37 17.4 37 Z M 26.8 45.4 C 26.79 45.38 26.8 53.3 26.8 53.3 L 24.8 53.3 L 24.8 35.8 L 26.8 35.8 L 26.8 42.2 C 26.8 42.2 26.96 42.2 27 42.2 C 27.3 41.5 27.7 41 28.3 40.6 C 29 40.2 29.8 40 30.8 40 C 31.7 40 32.5 40.2 33.2 40.5 C 33.8 40.9 34.3 41.4 34.7 42.1 C 35.1 42.9 35.3 43.8 35.3 44.9 C 35.28 44.93 35.3 53.3 35.3 53.3 L 33.3 53.3 C 33.3 53.3 33.27 45.07 33.3 45.1 C 33.3 44 33 43.2 32.5 42.7 C 31.9 42.1 31.2 41.8 30.2 41.8 C 29.6 41.8 29 41.9 28.5 42.2 C 27.9 42.5 27.5 42.9 27.2 43.4 C 26.9 44 26.8 44.6 26.8 45.4 Z M 38.6 53.3 L 38.6 40.2 L 40.6 40.2 L 40.6 42.1 C 40.6 42.1 40.71 42.14 40.7 42.1 C 40.9 41.5 41.4 41 42 40.6 C 42.6 40.2 43.3 40 44.1 40 C 44.3 40 44.5 40 44.7 40 C 44.9 40 45.1 40 45.2 40 C 45.2 40 45.2 42 45.2 42 C 45.1 42 45 42 44.7 42 C 44.5 41.9 44.2 41.9 43.9 41.9 C 43.3 41.9 42.7 42 42.2 42.3 C 41.8 42.6 41.4 42.9 41.1 43.4 C 40.8 43.8 40.6 44.4 40.6 45 C 40.64 44.97 40.6 53.3 40.6 53.3 L 38.6 53.3 Z M 52.3 53.5 C 51.1 53.5 50.1 53.2 49.2 52.7 C 48.3 52.1 47.6 51.3 47.1 50.3 C 46.6 49.3 46.4 48.1 46.4 46.8 C 46.4 45.4 46.6 44.2 47.1 43.2 C 47.6 42.2 48.3 41.4 49.2 40.8 C 50.1 40.3 51.1 40 52.3 40 C 53.5 40 54.5 40.3 55.4 40.8 C 56.3 41.4 57 42.2 57.5 43.2 C 58 44.2 58.2 45.4 58.2 46.8 C 58.2 48.1 58 49.3 57.5 50.3 C 57 51.3 56.3 52.1 55.4 52.7 C 54.5 53.2 53.5 53.5 52.3 53.5 Z M 52.3 51.7 C 53.2 51.7 53.9 51.5 54.5 51 C 55.1 50.6 55.5 50 55.8 49.2 C 56.1 48.5 56.2 47.6 56.2 46.8 C 56.2 45.9 56.1 45.1 55.8 44.3 C 55.5 43.6 55.1 43 54.5 42.5 C 53.9 42 53.2 41.8 52.3 41.8 C 51.4 41.8 50.6 42 50.1 42.5 C 49.5 43 49.1 43.6 48.8 44.3 C 48.5 45.1 48.4 45.9 48.4 46.8 C 48.4 47.6 48.5 48.5 48.8 49.2 C 49.1 50 49.5 50.6 50.1 51 C 50.6 51.5 51.4 51.7 52.3 51.7 Z M 69.1 47.9 C 69.14 47.9 69.1 40.2 69.1 40.2 L 71.1 40.2 L 71.1 53.3 L 69.1 53.3 L 69.1 51 C 69.1 51 69 51.03 69 51 C 68.7 51.7 68.2 52.3 67.6 52.7 C 66.9 53.2 66.1 53.4 65.1 53.4 C 64.3 53.4 63.6 53.2 62.9 52.9 C 62.3 52.5 61.8 52 61.4 51.2 C 61.1 50.5 60.9 49.6 60.9 48.5 C 60.89 48.48 60.9 40.2 60.9 40.2 L 62.9 40.2 C 62.9 40.2 62.9 48.34 62.9 48.3 C 62.9 49.3 63.2 50.1 63.7 50.6 C 64.2 51.2 64.9 51.5 65.8 51.5 C 66.3 51.5 66.8 51.3 67.3 51.1 C 67.8 50.8 68.3 50.4 68.6 49.9 C 69 49.4 69.1 48.7 69.1 47.9 Z M 79.8 58.4 C 78.8 58.4 78 58.3 77.3 58.1 C 76.6 57.8 76 57.5 75.5 57.1 C 75.1 56.7 74.7 56.3 74.4 55.8 C 74.4 55.8 76 54.7 76 54.7 C 76.2 54.9 76.5 55.2 76.7 55.5 C 77 55.8 77.4 56.1 77.9 56.3 C 78.4 56.5 79 56.7 79.8 56.7 C 80.9 56.7 81.7 56.4 82.4 55.9 C 83.1 55.4 83.4 54.6 83.4 53.5 C 83.44 53.49 83.4 50.8 83.4 50.8 C 83.4 50.8 83.27 50.83 83.3 50.8 C 83.1 51.1 82.9 51.4 82.6 51.7 C 82.4 52.1 82 52.4 81.5 52.6 C 81 52.9 80.3 53 79.5 53 C 78.4 53 77.5 52.8 76.6 52.3 C 75.8 51.8 75.1 51.1 74.6 50.1 C 74.1 49.2 73.9 48 73.9 46.6 C 73.9 45.3 74.1 44.1 74.6 43.1 C 75.1 42.1 75.7 41.4 76.6 40.8 C 77.4 40.3 78.4 40 79.5 40 C 80.3 40 81 40.1 81.5 40.4 C 82 40.7 82.4 41 82.7 41.4 C 83 41.7 83.2 42 83.3 42.2 C 83.31 42.24 83.5 42.2 83.5 42.2 L 83.5 40.2 L 85.5 40.2 C 85.5 40.2 85.46 53.63 85.5 53.6 C 85.5 54.8 85.2 55.7 84.7 56.4 C 84.2 57.1 83.5 57.6 82.6 57.9 C 81.8 58.3 80.8 58.4 79.8 58.4 Z M 79.7 51.2 C 80.5 51.2 81.2 51.1 81.8 50.7 C 82.3 50.3 82.8 49.8 83 49.1 C 83.3 48.4 83.5 47.6 83.5 46.6 C 83.5 45.7 83.3 44.8 83.1 44.1 C 82.8 43.4 82.3 42.8 81.8 42.4 C 81.2 42 80.5 41.8 79.7 41.8 C 78.9 41.8 78.2 42 77.6 42.4 C 77 42.9 76.6 43.5 76.3 44.2 C 76.1 44.9 75.9 45.7 75.9 46.6 C 75.9 47.5 76.1 48.3 76.3 49 C 76.6 49.7 77.1 50.3 77.6 50.6 C 78.2 51 78.9 51.2 79.7 51.2 Z M 90.8 45.4 C 90.83 45.38 90.8 53.3 90.8 53.3 L 88.8 53.3 L 88.8 35.8 L 90.8 35.8 L 90.8 42.2 C 90.8 42.2 91 42.2 91 42.2 C 91.3 41.5 91.8 41 92.4 40.6 C 93 40.2 93.8 40 94.9 40 C 95.7 40 96.5 40.2 97.2 40.5 C 97.9 40.9 98.4 41.4 98.8 42.1 C 99.1 42.9 99.3 43.8 99.3 44.9 C 99.32 44.93 99.3 53.3 99.3 53.3 L 97.3 53.3 C 97.3 53.3 97.31 45.07 97.3 45.1 C 97.3 44 97 43.2 96.5 42.7 C 96 42.1 95.2 41.8 94.3 41.8 C 93.6 41.8 93 41.9 92.5 42.2 C 92 42.5 91.6 42.9 91.3 43.4 C 91 44 90.8 44.6 90.8 45.4 Z M 115 40.2 L 115 41.9 L 108.2 41.9 L 108.2 40.2 L 115 40.2 Z M 110.2 37 L 112.2 37 C 112.2 37 112.17 49.5 112.2 49.5 C 112.2 50.1 112.3 50.5 112.4 50.8 C 112.6 51.1 112.8 51.2 113.1 51.3 C 113.3 51.4 113.6 51.5 113.9 51.5 C 114.1 51.5 114.3 51.5 114.5 51.4 C 114.6 51.4 114.7 51.4 114.8 51.4 C 114.8 51.4 115.2 53.2 115.2 53.2 C 115.1 53.2 114.9 53.3 114.6 53.3 C 114.4 53.4 114.1 53.4 113.7 53.4 C 113.1 53.4 112.6 53.3 112 53.1 C 111.5 52.8 111 52.4 110.7 51.9 C 110.3 51.4 110.2 50.8 110.2 50 C 110.16 50.05 110.2 37 110.2 37 Z M 119.5 45.4 C 119.5 45.38 119.5 53.3 119.5 53.3 L 117.5 53.3 L 117.5 35.8 L 119.5 35.8 L 119.5 42.2 C 119.5 42.2 119.67 42.2 119.7 42.2 C 120 41.5 120.4 41 121.1 40.6 C 121.7 40.2 122.5 40 123.5 40 C 124.4 40 125.2 40.2 125.9 40.5 C 126.5 40.9 127.1 41.4 127.4 42.1 C 127.8 42.9 128 43.8 128 44.9 C 127.99 44.93 128 53.3 128 53.3 L 126 53.3 C 126 53.3 125.97 45.07 126 45.1 C 126 44 125.7 43.2 125.2 42.7 C 124.6 42.1 123.9 41.8 122.9 41.8 C 122.3 41.8 121.7 41.9 121.2 42.2 C 120.7 42.5 120.2 42.9 119.9 43.4 C 119.6 44 119.5 44.6 119.5 45.4 Z M 136.8 53.5 C 135.5 53.5 134.4 53.2 133.5 52.7 C 132.6 52.1 131.9 51.3 131.4 50.3 C 130.9 49.3 130.7 48.1 130.7 46.8 C 130.7 45.5 130.9 44.3 131.4 43.3 C 131.9 42.2 132.6 41.4 133.5 40.9 C 134.4 40.3 135.4 40 136.6 40 C 137.3 40 137.9 40.1 138.6 40.3 C 139.3 40.6 139.9 40.9 140.4 41.4 C 141 41.9 141.4 42.6 141.7 43.4 C 142.1 44.3 142.2 45.3 142.2 46.5 C 142.22 46.53 142.2 47.4 142.2 47.4 L 132.1 47.4 L 132.1 45.6 C 132.1 45.6 140.17 45.65 140.2 45.6 C 140.2 44.9 140 44.3 139.7 43.7 C 139.4 43.1 139 42.6 138.5 42.3 C 138 42 137.3 41.8 136.6 41.8 C 135.8 41.8 135.1 42 134.5 42.4 C 133.9 42.8 133.5 43.3 133.2 43.9 C 132.9 44.6 132.7 45.2 132.7 46 C 132.7 46 132.7 47.1 132.7 47.1 C 132.7 48.1 132.9 48.9 133.2 49.6 C 133.6 50.3 134 50.8 134.7 51.2 C 135.3 51.5 136 51.7 136.8 51.7 C 137.3 51.7 137.8 51.6 138.2 51.5 C 138.7 51.3 139 51.1 139.3 50.8 C 139.7 50.5 139.9 50.1 140.1 49.7 C 140.1 49.7 142 50.2 142 50.2 C 141.8 50.9 141.5 51.5 141 52 C 140.5 52.4 139.9 52.8 139.2 53.1 C 138.5 53.4 137.7 53.5 136.8 53.5 Z M 152.5 53.3 L 150.3 53.3 L 156.7 35.8 L 158.9 35.8 L 165.3 53.3 L 163.1 53.3 L 157.9 38.6 L 157.8 38.6 L 152.5 53.3 Z M 153.4 46.4 L 162.3 46.4 L 162.3 48.3 L 153.4 48.3 L 153.4 46.4 Z M 169.9 35.8 L 169.9 53.3 L 167.8 53.3 L 167.8 35.8 L 169.9 35.8 Z M 182.1 45.4 C 182.12 45.38 182.1 53.3 182.1 53.3 L 180.1 53.3 L 180.1 40.2 L 182 40.2 L 182 42.2 C 182 42.2 182.22 42.2 182.2 42.2 C 182.5 41.5 183 41 183.6 40.6 C 184.2 40.2 185 40 186 40 C 186.9 40 187.7 40.2 188.4 40.5 C 189 40.9 189.5 41.4 189.9 42.2 C 190.3 42.9 190.5 43.8 190.5 44.9 C 190.47 44.93 190.5 53.3 190.5 53.3 L 188.5 53.3 C 188.5 53.3 188.46 45.07 188.5 45.1 C 188.5 44 188.2 43.2 187.7 42.7 C 187.1 42.1 186.4 41.8 185.5 41.8 C 184.8 41.8 184.2 41.9 183.7 42.2 C 183.2 42.5 182.8 42.9 182.5 43.4 C 182.3 44 182.1 44.6 182.1 45.4 Z M 199.1 53.5 C 197.9 53.5 196.9 53.2 196 52.7 C 195.1 52.1 194.4 51.3 193.9 50.3 C 193.4 49.3 193.2 48.1 193.2 46.8 C 193.2 45.4 193.4 44.2 193.9 43.2 C 194.4 42.2 195.1 41.4 196 40.8 C 196.9 40.3 197.9 40 199.1 40 C 200.3 40 201.3 40.3 202.2 40.8 C 203.1 41.4 203.8 42.2 204.3 43.2 C 204.8 44.2 205 45.4 205 46.8 C 205 48.1 204.8 49.3 204.3 50.3 C 203.8 51.3 203.1 52.1 202.2 52.7 C 201.3 53.2 200.3 53.5 199.1 53.5 Z M 199.1 51.7 C 200 51.7 200.7 51.5 201.3 51 C 201.9 50.6 202.3 50 202.6 49.2 C 202.9 48.5 203 47.6 203 46.8 C 203 45.9 202.9 45.1 202.6 44.3 C 202.3 43.6 201.9 43 201.3 42.5 C 200.7 42 200 41.8 199.1 41.8 C 198.2 41.8 197.5 42 196.9 42.5 C 196.3 43 195.9 43.6 195.6 44.3 C 195.3 45.1 195.2 45.9 195.2 46.8 C 195.2 47.6 195.3 48.5 195.6 49.2 C 195.9 50 196.3 50.6 196.9 51 C 197.5 51.5 198.2 51.7 199.1 51.7 Z M 207.7 53.3 L 207.7 40.2 L 209.7 40.2 L 209.7 53.3 L 207.7 53.3 Z M 208.7 38 C 208.3 38 208 37.8 207.7 37.6 C 207.4 37.3 207.3 37 207.3 36.6 C 207.3 36.2 207.4 35.9 207.7 35.7 C 208 35.4 208.3 35.3 208.7 35.3 C 209.1 35.3 209.5 35.4 209.8 35.7 C 210 35.9 210.2 36.2 210.2 36.6 C 210.2 37 210 37.3 209.8 37.6 C 209.5 37.8 209.1 38 208.7 38 Z M 222.2 43.1 C 222.2 43.1 220.4 43.6 220.4 43.6 C 220.3 43.3 220.1 43 219.9 42.7 C 219.7 42.4 219.4 42.2 219 42 C 218.7 41.8 218.2 41.7 217.6 41.7 C 216.8 41.7 216.1 41.9 215.6 42.3 C 215.1 42.6 214.8 43.1 214.8 43.7 C 214.8 44.2 215 44.6 215.3 44.9 C 215.7 45.1 216.3 45.4 217.1 45.6 C 217.1 45.6 219 46.1 219 46.1 C 220.2 46.3 221 46.8 221.6 47.4 C 222.2 47.9 222.5 48.7 222.5 49.6 C 222.5 50.4 222.3 51 221.8 51.6 C 221.4 52.2 220.8 52.7 220 53 C 219.3 53.4 218.4 53.5 217.4 53.5 C 216 53.5 214.9 53.2 214 52.7 C 213.2 52.1 212.6 51.2 212.4 50.1 C 212.4 50.1 214.3 49.6 214.3 49.6 C 214.5 50.3 214.8 50.9 215.3 51.2 C 215.8 51.6 216.5 51.8 217.3 51.8 C 218.3 51.8 219 51.5 219.6 51.1 C 220.1 50.7 220.4 50.3 220.4 49.7 C 220.4 49.3 220.2 48.9 219.9 48.6 C 219.6 48.2 219.1 48 218.5 47.9 C 218.5 47.9 216.3 47.4 216.3 47.4 C 215.1 47.1 214.2 46.6 213.6 46 C 213.1 45.4 212.8 44.7 212.8 43.8 C 212.8 43 213 42.4 213.4 41.8 C 213.8 41.2 214.4 40.8 215.1 40.5 C 215.9 40.2 216.7 40 217.6 40 C 218.9 40 219.9 40.3 220.7 40.8 C 221.4 41.4 221.9 42.2 222.2 43.1 Z M 230.6 53.5 C 229.3 53.5 228.2 53.2 227.3 52.7 C 226.4 52.1 225.7 51.3 225.2 50.3 C 224.7 49.3 224.5 48.1 224.5 46.8 C 224.5 45.5 224.7 44.3 225.2 43.3 C 225.7 42.2 226.4 41.4 227.3 40.9 C 228.2 40.3 229.2 40 230.4 40 C 231.1 40 231.7 40.1 232.4 40.3 C 233.1 40.6 233.7 40.9 234.2 41.4 C 234.8 41.9 235.2 42.6 235.5 43.4 C 235.8 44.3 236 45.3 236 46.5 C 236 46.53 236 47.4 236 47.4 L 225.9 47.4 L 225.9 45.6 C 225.9 45.6 233.95 45.65 234 45.6 C 234 44.9 233.8 44.3 233.5 43.7 C 233.2 43.1 232.8 42.6 232.3 42.3 C 231.7 42 231.1 41.8 230.4 41.8 C 229.6 41.8 228.9 42 228.3 42.4 C 227.7 42.8 227.3 43.3 227 43.9 C 226.6 44.6 226.5 45.2 226.5 46 C 226.5 46 226.5 47.1 226.5 47.1 C 226.5 48.1 226.7 48.9 227 49.6 C 227.3 50.3 227.8 50.8 228.4 51.2 C 229.1 51.5 229.8 51.7 230.6 51.7 C 231.1 51.7 231.6 51.6 232 51.5 C 232.4 51.3 232.8 51.1 233.1 50.8 C 233.4 50.5 233.7 50.1 233.9 49.7 C 233.9 49.7 235.8 50.2 235.8 50.2 C 235.6 50.9 235.2 51.5 234.8 52 C 234.3 52.4 233.7 52.8 233 53.1 C 232.3 53.4 231.5 53.5 230.6 53.5 Z M 249.2 53.6 C 248.4 53.6 247.6 53.4 246.9 53.1 C 246.3 52.8 245.7 52.3 245.3 51.7 C 244.9 51.1 244.7 50.4 244.7 49.5 C 244.7 48.8 244.9 48.2 245.2 47.7 C 245.5 47.2 245.9 46.9 246.4 46.6 C 246.8 46.3 247.4 46.1 248 46 C 248.6 45.9 249.2 45.8 249.8 45.7 C 250.6 45.6 251.2 45.5 251.7 45.4 C 252.2 45.4 252.6 45.3 252.8 45.2 C 253.1 45 253.2 44.8 253.2 44.5 C 253.2 44.5 253.2 44.4 253.2 44.4 C 253.2 43.6 252.9 42.9 252.5 42.5 C 252 42 251.3 41.8 250.4 41.8 C 249.5 41.8 248.7 42 248.2 42.4 C 247.6 42.8 247.2 43.3 247 43.7 C 247 43.7 245.1 43.1 245.1 43.1 C 245.4 42.3 245.9 41.6 246.5 41.2 C 247 40.7 247.7 40.4 248.3 40.3 C 249 40.1 249.7 40 250.3 40 C 250.8 40 251.3 40 251.8 40.1 C 252.4 40.2 252.9 40.4 253.4 40.7 C 253.9 41.1 254.3 41.5 254.7 42.1 C 255 42.8 255.2 43.6 255.2 44.6 C 255.19 44.63 255.2 53.3 255.2 53.3 L 253.2 53.3 L 253.2 51.5 C 253.2 51.5 253.08 51.48 253.1 51.5 C 252.9 51.8 252.7 52.1 252.4 52.4 C 252.1 52.7 251.7 53 251.1 53.2 C 250.6 53.4 250 53.6 249.2 53.6 Z M 249.5 51.8 C 250.3 51.8 251 51.6 251.5 51.3 C 252.1 51 252.5 50.6 252.8 50.1 C 253 49.6 253.2 49.1 253.2 48.5 C 253.2 48.5 253.2 46.7 253.2 46.7 C 253.1 46.8 252.9 46.9 252.6 46.9 C 252.3 47 252 47.1 251.6 47.2 C 251.3 47.2 250.9 47.3 250.5 47.3 C 250.2 47.4 249.9 47.4 249.7 47.4 C 249.2 47.5 248.7 47.6 248.2 47.7 C 247.8 47.9 247.4 48.1 247.1 48.4 C 246.9 48.7 246.7 49.1 246.7 49.6 C 246.7 50.3 247 50.9 247.5 51.2 C 248 51.6 248.7 51.8 249.5 51.8 Z M 260.6 45.4 C 260.55 45.38 260.6 53.3 260.6 53.3 L 258.5 53.3 L 258.5 40.2 L 260.5 40.2 L 260.5 42.2 C 260.5 42.2 260.65 42.2 260.7 42.2 C 261 41.5 261.4 41 262.1 40.6 C 262.7 40.2 263.5 40 264.5 40 C 265.4 40 266.1 40.2 266.8 40.5 C 267.5 40.9 268 41.4 268.4 42.2 C 268.7 42.9 268.9 43.8 268.9 44.9 C 268.9 44.93 268.9 53.3 268.9 53.3 L 266.9 53.3 C 266.9 53.3 266.89 45.07 266.9 45.1 C 266.9 44 266.6 43.2 266.1 42.7 C 265.6 42.1 264.8 41.8 263.9 41.8 C 263.3 41.8 262.7 41.9 262.2 42.2 C 261.7 42.5 261.3 42.9 261 43.4 C 260.7 44 260.6 44.6 260.6 45.4 Z M 277.2 53.5 C 276.1 53.5 275.1 53.2 274.3 52.7 C 273.4 52.1 272.8 51.4 272.3 50.3 C 271.8 49.3 271.6 48.1 271.6 46.7 C 271.6 45.4 271.8 44.2 272.3 43.2 C 272.8 42.1 273.4 41.4 274.3 40.8 C 275.1 40.3 276.1 40 277.2 40 C 278.1 40 278.7 40.1 279.2 40.4 C 279.7 40.7 280.1 41 280.4 41.4 C 280.6 41.7 280.8 42 281 42.2 C 280.98 42.24 281.2 42.2 281.2 42.2 L 281.2 35.8 L 283.2 35.8 L 283.2 53.3 L 281.2 53.3 L 281.2 51.2 C 281.2 51.2 280.98 51.24 281 51.2 C 280.8 51.5 280.6 51.8 280.4 52.1 C 280.1 52.5 279.7 52.8 279.2 53.1 C 278.7 53.4 278 53.5 277.2 53.5 Z M 277.4 51.7 C 278.2 51.7 278.9 51.5 279.5 51.1 C 280 50.7 280.5 50.1 280.8 49.3 C 281 48.6 281.2 47.7 281.2 46.7 C 281.2 45.7 281 44.9 280.8 44.1 C 280.5 43.4 280.1 42.8 279.5 42.4 C 278.9 42 278.3 41.8 277.4 41.8 C 276.6 41.8 275.9 42 275.3 42.4 C 274.7 42.9 274.3 43.5 274 44.2 C 273.8 45 273.6 45.8 273.6 46.7 C 273.6 47.6 273.8 48.5 274 49.2 C 274.3 50 274.8 50.6 275.3 51 C 275.9 51.5 276.6 51.7 277.4 51.7 Z " stroke="none" fill="#ffffff"/>  </g>  <g id="Polygon108312">    <path d="M 50 5.8 L 52.1 5.8 C 52.1 5.8 52.14 17.35 52.1 17.4 C 52.1 18.5 51.9 19.6 51.3 20.5 C 50.7 21.5 49.9 22.2 48.9 22.8 C 47.9 23.3 46.7 23.6 45.4 23.6 C 44 23.6 42.8 23.3 41.8 22.8 C 40.8 22.2 40 21.5 39.4 20.5 C 38.8 19.6 38.6 18.5 38.6 17.4 C 38.57 17.35 38.6 5.8 38.6 5.8 L 40.7 5.8 C 40.7 5.8 40.68 17.18 40.7 17.2 C 40.7 18 40.9 18.8 41.2 19.5 C 41.6 20.1 42.2 20.6 42.9 21 C 43.5 21.4 44.4 21.6 45.4 21.6 C 46.3 21.6 47.2 21.4 47.9 21 C 48.6 20.6 49.1 20.1 49.5 19.5 C 49.8 18.8 50 18 50 17.2 C 50.02 17.18 50 5.8 50 5.8 Z M 64.7 13.1 C 64.7 13.1 62.9 13.6 62.9 13.6 C 62.8 13.3 62.7 13 62.4 12.7 C 62.2 12.4 61.9 12.2 61.5 12 C 61.2 11.8 60.7 11.7 60.1 11.7 C 59.3 11.7 58.6 11.9 58.1 12.3 C 57.6 12.6 57.3 13.1 57.3 13.7 C 57.3 14.2 57.5 14.6 57.9 14.9 C 58.2 15.1 58.8 15.4 59.6 15.6 C 59.6 15.6 61.5 16.1 61.5 16.1 C 62.7 16.3 63.5 16.8 64.1 17.4 C 64.7 17.9 65 18.7 65 19.6 C 65 20.4 64.8 21 64.3 21.6 C 63.9 22.2 63.3 22.7 62.5 23 C 61.8 23.4 60.9 23.5 59.9 23.5 C 58.5 23.5 57.4 23.2 56.6 22.7 C 55.7 22.1 55.1 21.2 54.9 20.1 C 54.9 20.1 56.8 19.6 56.8 19.6 C 57 20.3 57.3 20.9 57.8 21.2 C 58.3 21.6 59 21.8 59.8 21.8 C 60.8 21.8 61.5 21.5 62.1 21.1 C 62.6 20.7 62.9 20.3 62.9 19.7 C 62.9 19.3 62.7 18.9 62.4 18.6 C 62.1 18.2 61.6 18 61 17.9 C 61 17.9 58.8 17.4 58.8 17.4 C 57.6 17.1 56.7 16.6 56.1 16 C 55.6 15.4 55.3 14.7 55.3 13.8 C 55.3 13 55.5 12.4 55.9 11.8 C 56.3 11.2 56.9 10.8 57.6 10.5 C 58.4 10.2 59.2 10 60.1 10 C 61.4 10 62.4 10.3 63.2 10.8 C 63.9 11.4 64.4 12.2 64.7 13.1 Z M 73.1 23.5 C 71.8 23.5 70.7 23.2 69.8 22.7 C 68.9 22.1 68.2 21.3 67.7 20.3 C 67.2 19.3 67 18.1 67 16.8 C 67 15.5 67.2 14.3 67.7 13.3 C 68.2 12.2 68.9 11.4 69.8 10.9 C 70.7 10.3 71.7 10 72.9 10 C 73.6 10 74.2 10.1 74.9 10.3 C 75.6 10.6 76.2 10.9 76.7 11.4 C 77.3 11.9 77.7 12.6 78 13.4 C 78.3 14.3 78.5 15.3 78.5 16.5 C 78.51 16.53 78.5 17.4 78.5 17.4 L 68.4 17.4 L 68.4 15.6 C 68.4 15.6 76.46 15.65 76.5 15.6 C 76.5 14.9 76.3 14.3 76 13.7 C 75.7 13.1 75.3 12.6 74.8 12.3 C 74.2 12 73.6 11.8 72.9 11.8 C 72.1 11.8 71.4 12 70.8 12.4 C 70.2 12.8 69.8 13.3 69.5 13.9 C 69.2 14.6 69 15.2 69 16 C 69 16 69 17.1 69 17.1 C 69 18.1 69.2 18.9 69.5 19.6 C 69.9 20.3 70.3 20.8 70.9 21.2 C 71.6 21.5 72.3 21.7 73.1 21.7 C 73.6 21.7 74.1 21.6 74.5 21.5 C 75 21.3 75.3 21.1 75.6 20.8 C 75.9 20.5 76.2 20.1 76.4 19.7 C 76.4 19.7 78.3 20.2 78.3 20.2 C 78.1 20.9 77.8 21.5 77.3 22 C 76.8 22.4 76.2 22.8 75.5 23.1 C 74.8 23.4 74 23.5 73.1 23.5 Z M 93.5 10.2 L 93.5 11.9 L 86.8 11.9 L 86.8 10.2 L 93.5 10.2 Z M 88.7 7 L 90.7 7 C 90.7 7 90.74 19.5 90.7 19.5 C 90.7 20.1 90.8 20.5 91 20.8 C 91.2 21.1 91.4 21.2 91.6 21.3 C 91.9 21.4 92.2 21.5 92.5 21.5 C 92.7 21.5 92.9 21.5 93 21.4 C 93.2 21.4 93.3 21.4 93.4 21.4 C 93.4 21.4 93.8 23.2 93.8 23.2 C 93.6 23.2 93.5 23.3 93.2 23.3 C 93 23.4 92.7 23.4 92.3 23.4 C 91.7 23.4 91.2 23.3 90.6 23.1 C 90.1 22.8 89.6 22.4 89.3 21.9 C 88.9 21.4 88.7 20.8 88.7 20 C 88.73 20.05 88.7 7 88.7 7 Z M 98.1 15.4 C 98.07 15.38 98.1 23.3 98.1 23.3 L 96.1 23.3 L 96.1 5.8 L 98.1 5.8 L 98.1 12.2 C 98.1 12.2 98.24 12.2 98.2 12.2 C 98.5 11.5 99 11 99.6 10.6 C 100.2 10.2 101.1 10 102.1 10 C 103 10 103.8 10.2 104.4 10.5 C 105.1 10.9 105.6 11.4 106 12.1 C 106.4 12.9 106.6 13.8 106.6 14.9 C 106.56 14.93 106.6 23.3 106.6 23.3 L 104.5 23.3 C 104.5 23.3 104.55 15.07 104.5 15.1 C 104.5 14 104.3 13.2 103.7 12.7 C 103.2 12.1 102.5 11.8 101.5 11.8 C 100.9 11.8 100.3 11.9 99.7 12.2 C 99.2 12.5 98.8 12.9 98.5 13.4 C 98.2 14 98.1 14.6 98.1 15.4 Z M 109.9 23.3 L 109.9 10.2 L 111.9 10.2 L 111.9 23.3 L 109.9 23.3 Z M 110.9 8 C 110.5 8 110.2 7.8 109.9 7.6 C 109.6 7.3 109.5 7 109.5 6.6 C 109.5 6.2 109.6 5.9 109.9 5.7 C 110.2 5.4 110.5 5.3 110.9 5.3 C 111.3 5.3 111.6 5.4 111.9 5.7 C 112.2 5.9 112.3 6.2 112.3 6.6 C 112.3 7 112.2 7.3 111.9 7.6 C 111.6 7.8 111.3 8 110.9 8 Z M 124.4 13.1 C 124.4 13.1 122.6 13.6 122.6 13.6 C 122.5 13.3 122.3 13 122.1 12.7 C 121.9 12.4 121.6 12.2 121.2 12 C 120.8 11.8 120.3 11.7 119.7 11.7 C 118.9 11.7 118.3 11.9 117.7 12.3 C 117.2 12.6 116.9 13.1 116.9 13.7 C 116.9 14.2 117.1 14.6 117.5 14.9 C 117.9 15.1 118.4 15.4 119.2 15.6 C 119.2 15.6 121.1 16.1 121.1 16.1 C 122.3 16.3 123.2 16.8 123.8 17.4 C 124.3 17.9 124.6 18.7 124.6 19.6 C 124.6 20.4 124.4 21 124 21.6 C 123.5 22.2 122.9 22.7 122.2 23 C 121.4 23.4 120.5 23.5 119.5 23.5 C 118.2 23.5 117.1 23.2 116.2 22.7 C 115.3 22.1 114.8 21.2 114.5 20.1 C 114.5 20.1 116.4 19.6 116.4 19.6 C 116.6 20.3 117 20.9 117.5 21.2 C 118 21.6 118.6 21.8 119.5 21.8 C 120.4 21.8 121.2 21.5 121.7 21.1 C 122.3 20.7 122.5 20.3 122.5 19.7 C 122.5 19.3 122.4 18.9 122.1 18.6 C 121.7 18.2 121.3 18 120.6 17.9 C 120.6 17.9 118.4 17.4 118.4 17.4 C 117.2 17.1 116.3 16.6 115.8 16 C 115.2 15.4 114.9 14.7 114.9 13.8 C 114.9 13 115.1 12.4 115.6 11.8 C 116 11.2 116.6 10.8 117.3 10.5 C 118 10.2 118.8 10 119.7 10 C 121 10 122.1 10.3 122.8 10.8 C 123.5 11.4 124.1 12.2 124.4 13.1 Z M 139.2 28.4 C 138.2 28.4 137.4 28.3 136.7 28.1 C 136 27.8 135.4 27.5 135 27.1 C 134.5 26.7 134.1 26.3 133.9 25.8 C 133.9 25.8 135.5 24.7 135.5 24.7 C 135.6 24.9 135.9 25.2 136.1 25.5 C 136.4 25.8 136.8 26.1 137.3 26.3 C 137.8 26.5 138.4 26.7 139.2 26.7 C 140.3 26.7 141.1 26.4 141.8 25.9 C 142.5 25.4 142.9 24.6 142.9 23.5 C 142.86 23.49 142.9 20.8 142.9 20.8 C 142.9 20.8 142.69 20.83 142.7 20.8 C 142.5 21.1 142.3 21.4 142.1 21.7 C 141.8 22.1 141.4 22.4 140.9 22.6 C 140.4 22.9 139.7 23 138.9 23 C 137.8 23 136.9 22.8 136 22.3 C 135.2 21.8 134.5 21.1 134 20.1 C 133.6 19.2 133.3 18 133.3 16.6 C 133.3 15.3 133.5 14.1 134 13.1 C 134.5 12.1 135.1 11.4 136 10.8 C 136.8 10.3 137.8 10 138.9 10 C 139.8 10 140.4 10.1 140.9 10.4 C 141.4 10.7 141.8 11 142.1 11.4 C 142.4 11.7 142.6 12 142.7 12.2 C 142.72 12.24 142.9 12.2 142.9 12.2 L 142.9 10.2 L 144.9 10.2 C 144.9 10.2 144.87 23.63 144.9 23.6 C 144.9 24.8 144.6 25.7 144.1 26.4 C 143.6 27.1 142.9 27.6 142.1 27.9 C 141.2 28.3 140.3 28.4 139.2 28.4 Z M 139.1 21.2 C 139.9 21.2 140.6 21.1 141.2 20.7 C 141.7 20.3 142.2 19.8 142.5 19.1 C 142.7 18.4 142.9 17.6 142.9 16.6 C 142.9 15.7 142.7 14.8 142.5 14.1 C 142.2 13.4 141.8 12.8 141.2 12.4 C 140.6 12 140 11.8 139.1 11.8 C 138.3 11.8 137.6 12 137 12.4 C 136.4 12.9 136 13.5 135.7 14.2 C 135.5 14.9 135.3 15.7 135.3 16.6 C 135.3 17.5 135.5 18.3 135.8 19 C 136 19.7 136.5 20.3 137 20.6 C 137.6 21 138.3 21.2 139.1 21.2 Z M 156.5 17.9 C 156.45 17.9 156.5 10.2 156.5 10.2 L 158.5 10.2 L 158.5 23.3 L 156.5 23.3 L 156.5 21 C 156.5 21 156.31 21.03 156.3 21 C 156 21.7 155.5 22.3 154.9 22.7 C 154.2 23.2 153.4 23.4 152.4 23.4 C 151.6 23.4 150.9 23.2 150.2 22.9 C 149.6 22.5 149.1 22 148.7 21.2 C 148.4 20.5 148.2 19.6 148.2 18.5 C 148.2 18.48 148.2 10.2 148.2 10.2 L 150.2 10.2 C 150.2 10.2 150.21 18.34 150.2 18.3 C 150.2 19.3 150.5 20.1 151 20.6 C 151.6 21.2 152.2 21.5 153.1 21.5 C 153.6 21.5 154.1 21.3 154.6 21.1 C 155.1 20.8 155.6 20.4 155.9 19.9 C 156.3 19.4 156.5 18.7 156.5 17.9 Z M 161.8 23.3 L 161.8 10.2 L 163.8 10.2 L 163.8 23.3 L 161.8 23.3 Z M 162.9 8 C 162.5 8 162.1 7.8 161.8 7.6 C 161.6 7.3 161.4 7 161.4 6.6 C 161.4 6.2 161.6 5.9 161.8 5.7 C 162.1 5.4 162.5 5.3 162.9 5.3 C 163.2 5.3 163.6 5.4 163.9 5.7 C 164.1 5.9 164.3 6.2 164.3 6.6 C 164.3 7 164.1 7.3 163.9 7.6 C 163.6 7.8 163.2 8 162.9 8 Z M 172.1 23.5 C 171 23.5 170 23.2 169.2 22.7 C 168.4 22.1 167.7 21.4 167.2 20.3 C 166.8 19.3 166.5 18.1 166.5 16.7 C 166.5 15.4 166.8 14.2 167.2 13.2 C 167.7 12.1 168.4 11.4 169.2 10.8 C 170 10.3 171 10 172.1 10 C 173 10 173.7 10.1 174.1 10.4 C 174.6 10.7 175 11 175.3 11.4 C 175.6 11.7 175.8 12 175.9 12.2 C 175.91 12.24 176.1 12.2 176.1 12.2 L 176.1 5.8 L 178.1 5.8 L 178.1 23.3 L 176.1 23.3 L 176.1 21.2 C 176.1 21.2 175.91 21.24 175.9 21.2 C 175.8 21.5 175.5 21.8 175.3 22.1 C 175 22.5 174.6 22.8 174.1 23.1 C 173.6 23.4 172.9 23.5 172.1 23.5 Z M 172.4 21.7 C 173.2 21.7 173.9 21.5 174.4 21.1 C 175 20.7 175.4 20.1 175.7 19.3 C 176 18.6 176.1 17.7 176.1 16.7 C 176.1 15.7 176 14.9 175.7 14.1 C 175.4 13.4 175 12.8 174.4 12.4 C 173.9 12 173.2 11.8 172.4 11.8 C 171.5 11.8 170.8 12 170.2 12.4 C 169.7 12.9 169.2 13.5 169 14.2 C 168.7 15 168.5 15.8 168.5 16.7 C 168.5 17.6 168.7 18.5 169 19.2 C 169.3 20 169.7 20.6 170.3 21 C 170.8 21.5 171.5 21.7 172.4 21.7 Z M 187.1 23.5 C 185.8 23.5 184.7 23.2 183.8 22.7 C 182.9 22.1 182.2 21.3 181.7 20.3 C 181.2 19.3 181 18.1 181 16.8 C 181 15.5 181.2 14.3 181.7 13.3 C 182.2 12.2 182.9 11.4 183.8 10.9 C 184.6 10.3 185.7 10 186.9 10 C 187.5 10 188.2 10.1 188.9 10.3 C 189.5 10.6 190.2 10.9 190.7 11.4 C 191.2 11.9 191.7 12.6 192 13.4 C 192.3 14.3 192.5 15.3 192.5 16.5 C 192.49 16.53 192.5 17.4 192.5 17.4 L 182.4 17.4 L 182.4 15.6 C 182.4 15.6 190.44 15.65 190.4 15.6 C 190.4 14.9 190.3 14.3 190 13.7 C 189.7 13.1 189.3 12.6 188.8 12.3 C 188.2 12 187.6 11.8 186.9 11.8 C 186.1 11.8 185.4 12 184.8 12.4 C 184.2 12.8 183.8 13.3 183.4 13.9 C 183.1 14.6 183 15.2 183 16 C 183 16 183 17.1 183 17.1 C 183 18.1 183.1 18.9 183.5 19.6 C 183.8 20.3 184.3 20.8 184.9 21.2 C 185.5 21.5 186.3 21.7 187.1 21.7 C 187.6 21.7 188.1 21.6 188.5 21.5 C 188.9 21.3 189.3 21.1 189.6 20.8 C 189.9 20.5 190.2 20.1 190.3 19.7 C 190.3 19.7 192.3 20.2 192.3 20.2 C 192.1 20.9 191.7 21.5 191.3 22 C 190.8 22.4 190.2 22.8 189.5 23.1 C 188.8 23.4 188 23.5 187.1 23.5 Z M 207.5 10.2 L 207.5 11.9 L 200.7 11.9 L 200.7 10.2 L 207.5 10.2 Z M 202.7 7 L 204.7 7 C 204.7 7 204.73 19.5 204.7 19.5 C 204.7 20.1 204.8 20.5 205 20.8 C 205.1 21.1 205.4 21.2 205.6 21.3 C 205.9 21.4 206.2 21.5 206.5 21.5 C 206.7 21.5 206.9 21.5 207 21.4 C 207.2 21.4 207.3 21.4 207.4 21.4 C 207.4 21.4 207.8 23.2 207.8 23.2 C 207.6 23.2 207.4 23.3 207.2 23.3 C 206.9 23.4 206.6 23.4 206.3 23.4 C 205.7 23.4 205.1 23.3 204.6 23.1 C 204.1 22.8 203.6 22.4 203.2 21.9 C 202.9 21.4 202.7 20.8 202.7 20 C 202.71 20.05 202.7 7 202.7 7 Z M 214.9 23.5 C 213.7 23.5 212.7 23.2 211.8 22.7 C 210.9 22.1 210.2 21.3 209.7 20.3 C 209.2 19.3 208.9 18.1 208.9 16.8 C 208.9 15.4 209.2 14.2 209.7 13.2 C 210.2 12.2 210.9 11.4 211.8 10.8 C 212.7 10.3 213.7 10 214.9 10 C 216.1 10 217.1 10.3 218 10.8 C 218.9 11.4 219.6 12.2 220.1 13.2 C 220.6 14.2 220.8 15.4 220.8 16.8 C 220.8 18.1 220.6 19.3 220.1 20.3 C 219.6 21.3 218.9 22.1 218 22.7 C 217.1 23.2 216.1 23.5 214.9 23.5 Z M 214.9 21.7 C 215.8 21.7 216.5 21.5 217.1 21 C 217.7 20.6 218.1 20 218.4 19.2 C 218.7 18.5 218.8 17.6 218.8 16.8 C 218.8 15.9 218.7 15.1 218.4 14.3 C 218.1 13.6 217.7 13 217.1 12.5 C 216.5 12 215.8 11.8 214.9 11.8 C 214 11.8 213.2 12 212.7 12.5 C 212.1 13 211.7 13.6 211.4 14.3 C 211.1 15.1 211 15.9 211 16.8 C 211 17.6 211.1 18.5 211.4 19.2 C 211.7 20 212.1 20.6 212.7 21 C 213.2 21.5 214 21.7 214.9 21.7 Z M 235.5 23.5 C 234.2 23.5 233.2 23.2 232.3 22.7 C 231.4 22.1 230.7 21.3 230.3 20.3 C 229.8 19.2 229.5 18.1 229.5 16.8 C 229.5 15.4 229.8 14.3 230.3 13.2 C 230.8 12.2 231.5 11.4 232.3 10.9 C 233.2 10.3 234.3 10 235.4 10 C 236.4 10 237.2 10.2 237.9 10.5 C 238.7 10.8 239.3 11.3 239.7 11.9 C 240.2 12.5 240.5 13.3 240.6 14.1 C 240.6 14.1 238.6 14.1 238.6 14.1 C 238.5 13.5 238.1 13 237.6 12.5 C 237.1 12 236.4 11.8 235.5 11.8 C 234.7 11.8 234 12 233.4 12.4 C 232.8 12.8 232.4 13.4 232 14.1 C 231.7 14.9 231.5 15.7 231.5 16.7 C 231.5 17.7 231.7 18.6 232 19.3 C 232.4 20.1 232.8 20.7 233.4 21.1 C 234 21.5 234.7 21.7 235.5 21.7 C 236 21.7 236.5 21.6 236.9 21.4 C 237.3 21.3 237.7 21 238 20.7 C 238.3 20.3 238.5 19.9 238.6 19.4 C 238.6 19.4 240.6 19.4 240.6 19.4 C 240.5 20.2 240.2 20.9 239.8 21.5 C 239.3 22.1 238.7 22.6 238 23 C 237.3 23.3 236.4 23.5 235.5 23.5 Z M 251.4 17.9 C 251.37 17.9 251.4 10.2 251.4 10.2 L 253.4 10.2 L 253.4 23.3 L 251.4 23.3 L 251.4 21 C 251.4 21 251.24 21.03 251.2 21 C 250.9 21.7 250.5 22.3 249.8 22.7 C 249.2 23.2 248.3 23.4 247.4 23.4 C 246.5 23.4 245.8 23.2 245.2 22.9 C 244.5 22.5 244 22 243.7 21.2 C 243.3 20.5 243.1 19.6 243.1 18.5 C 243.12 18.48 243.1 10.2 243.1 10.2 L 245.1 10.2 C 245.1 10.2 245.14 18.34 245.1 18.3 C 245.1 19.3 245.4 20.1 245.9 20.6 C 246.5 21.2 247.2 21.5 248 21.5 C 248.5 21.5 249 21.3 249.5 21.1 C 250 20.8 250.5 20.4 250.8 19.9 C 251.2 19.4 251.4 18.7 251.4 17.9 Z M 262.4 10.2 L 262.4 11.9 L 255.6 11.9 L 255.6 10.2 L 262.4 10.2 Z M 257.5 7 L 259.6 7 C 259.6 7 259.56 19.5 259.6 19.5 C 259.6 20.1 259.6 20.5 259.8 20.8 C 260 21.1 260.2 21.2 260.5 21.3 C 260.7 21.4 261 21.5 261.3 21.5 C 261.5 21.5 261.7 21.5 261.8 21.4 C 262 21.4 262.1 21.4 262.2 21.4 C 262.2 21.4 262.6 23.2 262.6 23.2 C 262.5 23.2 262.3 23.3 262 23.3 C 261.8 23.4 261.5 23.4 261.1 23.4 C 260.5 23.4 260 23.3 259.4 23.1 C 258.9 22.8 258.4 22.4 258.1 21.9 C 257.7 21.4 257.5 20.8 257.5 20 C 257.55 20.05 257.5 7 257.5 7 Z " stroke="none" fill="#ffffff"/>  </g></svg>