<?xml version="1.0" standalone="no"?><!DOCTYPE svg PUBLIC "-//W3C//DTD SVG 1.1//EN" "http://www.w3.org/Graphics/SVG/1.1/DTD/svg11.dtd"><svg xmlns="http://www.w3.org/2000/svg" version="1.1" width="985px" height="115.7px" viewBox="0 -6 985 115.7" style="top:-6px">  <desc>Right fit, AI infused scenario planning and analysis must be able to:</desc>  <defs/>  <g id="Polygon125318">    <path d="M 273 87.3 C 271.7 87.3 270.4 87 269.3 86.5 C 268.1 85.9 267.3 85.2 266.6 84.2 C 265.9 83.2 265.6 82 265.6 80.6 C 265.6 79.3 265.8 78.3 266.3 77.5 C 266.8 76.7 267.5 76.1 268.3 75.7 C 269.1 75.2 270 74.9 271 74.7 C 272 74.4 273 74.3 274.1 74.1 C 275.4 74 276.5 73.8 277.3 73.7 C 278.1 73.7 278.7 73.5 279.1 73.3 C 279.5 73.1 279.7 72.7 279.7 72.1 C 279.7 72.1 279.7 72 279.7 72 C 279.7 70.6 279.3 69.5 278.5 68.8 C 277.8 68 276.6 67.6 275.1 67.6 C 273.5 67.6 272.2 68 271.3 68.7 C 270.4 69.4 269.8 70.1 269.4 70.9 C 269.4 70.9 266.2 69.8 266.2 69.8 C 266.8 68.4 267.5 67.4 268.5 66.7 C 269.5 65.9 270.5 65.4 271.6 65.1 C 272.8 64.8 273.9 64.6 275 64.6 C 275.7 64.6 276.5 64.7 277.4 64.9 C 278.3 65.1 279.2 65.4 280 65.9 C 280.9 66.4 281.6 67.2 282.2 68.2 C 282.8 69.3 283 70.6 283 72.4 C 283.04 72.38 283 86.8 283 86.8 L 279.7 86.8 L 279.7 83.8 C 279.7 83.8 279.52 83.8 279.5 83.8 C 279.3 84.3 278.9 84.8 278.4 85.3 C 277.9 85.9 277.1 86.3 276.3 86.7 C 275.4 87.1 274.3 87.3 273 87.3 Z M 273.6 84.3 C 274.9 84.3 276 84 276.9 83.5 C 277.8 82.9 278.5 82.3 279 81.5 C 279.5 80.6 279.7 79.8 279.7 78.9 C 279.7 78.9 279.7 75.8 279.7 75.8 C 279.5 76 279.2 76.1 278.8 76.2 C 278.3 76.4 277.7 76.5 277.1 76.6 C 276.5 76.7 275.9 76.8 275.3 76.9 C 274.7 76.9 274.3 77 273.9 77 C 273 77.1 272.2 77.3 271.5 77.6 C 270.7 77.8 270.1 78.2 269.6 78.7 C 269.2 79.2 268.9 79.9 268.9 80.7 C 268.9 81.9 269.4 82.8 270.2 83.4 C 271.1 84 272.2 84.3 273.6 84.3 Z M 292.2 73.6 C 292.15 73.63 292.2 86.8 292.2 86.8 L 288.8 86.8 L 288.8 64.9 L 292 64.9 L 292 68.3 C 292 68.3 292.32 68.34 292.3 68.3 C 292.8 67.2 293.6 66.3 294.7 65.7 C 295.7 65 297 64.6 298.7 64.6 C 300.2 64.6 301.5 64.9 302.6 65.5 C 303.7 66.2 304.5 67.1 305.1 68.3 C 305.8 69.5 306.1 71 306.1 72.9 C 306.07 72.89 306.1 86.8 306.1 86.8 L 302.7 86.8 C 302.7 86.8 302.72 73.11 302.7 73.1 C 302.7 71.4 302.3 70.1 301.4 69.1 C 300.5 68.1 299.3 67.7 297.7 67.7 C 296.7 67.7 295.7 67.9 294.9 68.4 C 294 68.8 293.4 69.5 292.9 70.4 C 292.4 71.3 292.2 72.4 292.2 73.6 Z M 318.1 87.3 C 316.7 87.3 315.4 87 314.3 86.5 C 313.2 85.9 312.3 85.2 311.6 84.2 C 310.9 83.2 310.6 82 310.6 80.6 C 310.6 79.3 310.9 78.3 311.3 77.5 C 311.8 76.7 312.5 76.1 313.3 75.7 C 314.1 75.2 315.1 74.9 316.1 74.7 C 317.1 74.4 318.1 74.3 319.1 74.1 C 320.4 74 321.5 73.8 322.3 73.7 C 323.1 73.7 323.7 73.5 324.1 73.3 C 324.5 73.1 324.7 72.7 324.7 72.1 C 324.7 72.1 324.7 72 324.7 72 C 324.7 70.6 324.3 69.5 323.6 68.8 C 322.8 68 321.6 67.6 320.1 67.6 C 318.5 67.6 317.2 68 316.3 68.7 C 315.4 69.4 314.8 70.1 314.4 70.9 C 314.4 70.9 311.2 69.8 311.2 69.8 C 311.8 68.4 312.6 67.4 313.5 66.7 C 314.5 65.9 315.5 65.4 316.6 65.1 C 317.8 64.8 318.9 64.6 320 64.6 C 320.7 64.6 321.5 64.7 322.4 64.9 C 323.3 65.1 324.2 65.4 325.1 65.9 C 325.9 66.4 326.6 67.2 327.2 68.2 C 327.8 69.3 328.1 70.6 328.1 72.4 C 328.05 72.38 328.1 86.8 328.1 86.8 L 324.7 86.8 L 324.7 83.8 C 324.7 83.8 324.53 83.8 324.5 83.8 C 324.3 84.3 323.9 84.8 323.4 85.3 C 322.9 85.9 322.2 86.3 321.3 86.7 C 320.4 87.1 319.3 87.3 318.1 87.3 Z M 318.6 84.3 C 319.9 84.3 321 84 321.9 83.5 C 322.8 82.9 323.5 82.3 324 81.5 C 324.5 80.6 324.7 79.8 324.7 78.9 C 324.7 78.9 324.7 75.8 324.7 75.8 C 324.6 76 324.2 76.1 323.8 76.2 C 323.3 76.4 322.7 76.5 322.1 76.6 C 321.5 76.7 320.9 76.8 320.3 76.9 C 319.7 76.9 319.3 77 318.9 77 C 318 77.1 317.2 77.3 316.5 77.6 C 315.7 77.8 315.1 78.2 314.7 78.7 C 314.2 79.2 314 79.9 314 80.7 C 314 81.9 314.4 82.8 315.3 83.4 C 316.1 84 317.2 84.3 318.6 84.3 Z M 337.2 57.7 L 337.2 86.8 L 333.8 86.8 L 333.8 57.7 L 337.2 57.7 Z M 344.9 94.9 C 344.3 94.9 343.8 94.9 343.4 94.8 C 342.9 94.7 342.6 94.6 342.5 94.5 C 342.5 94.5 343.3 91.6 343.3 91.6 C 344.1 91.8 344.8 91.9 345.5 91.8 C 346.1 91.8 346.6 91.5 347.1 91 C 347.6 90.5 348.1 89.7 348.5 88.6 C 348.47 88.57 349.1 86.9 349.1 86.9 L 341 64.9 L 344.7 64.9 L 350.7 82.3 L 350.9 82.3 L 356.9 64.9 L 360.6 64.9 C 360.6 64.9 351.31 89.93 351.3 89.9 C 350.9 91.1 350.4 92 349.8 92.7 C 349.1 93.5 348.4 94 347.6 94.4 C 346.8 94.8 345.9 94.9 344.9 94.9 Z M 379.2 69.8 C 379.2 69.8 376.2 70.7 376.2 70.7 C 376 70.2 375.8 69.7 375.4 69.2 C 375 68.7 374.5 68.3 373.9 68 C 373.3 67.7 372.5 67.5 371.5 67.5 C 370.2 67.5 369.1 67.9 368.2 68.5 C 367.3 69.1 366.9 69.8 366.9 70.8 C 366.9 71.6 367.2 72.3 367.8 72.8 C 368.4 73.2 369.3 73.6 370.6 74 C 370.6 74 373.8 74.8 373.8 74.8 C 375.8 75.2 377.3 76 378.2 76.9 C 379.2 77.9 379.6 79.1 379.6 80.7 C 379.6 81.9 379.3 83 378.6 84 C 377.9 85 376.9 85.8 375.6 86.4 C 374.3 86.9 372.8 87.2 371.1 87.2 C 368.9 87.2 367.1 86.7 365.6 85.8 C 364.1 84.8 363.2 83.4 362.8 81.5 C 362.8 81.5 366 80.7 366 80.7 C 366.3 81.9 366.9 82.8 367.7 83.4 C 368.6 84 369.7 84.3 371.1 84.3 C 372.6 84.3 373.9 83.9 374.8 83.2 C 375.7 82.6 376.2 81.8 376.2 80.8 C 376.2 80.1 375.9 79.4 375.4 78.9 C 374.9 78.4 374 78 372.9 77.8 C 372.9 77.8 369.3 76.9 369.3 76.9 C 367.3 76.4 365.8 75.7 364.9 74.7 C 364 73.7 363.5 72.5 363.5 71 C 363.5 69.7 363.9 68.6 364.6 67.7 C 365.2 66.7 366.2 66 367.4 65.5 C 368.6 64.9 370 64.6 371.5 64.6 C 373.7 64.6 375.4 65.1 376.6 66.1 C 377.8 67 378.7 68.3 379.2 69.8 Z M 384.2 86.8 L 384.2 64.9 L 387.5 64.9 L 387.5 86.8 L 384.2 86.8 Z M 385.9 61.3 C 385.2 61.3 384.7 61.1 384.2 60.6 C 383.7 60.2 383.5 59.6 383.5 59 C 383.5 58.4 383.7 57.9 384.2 57.4 C 384.7 57 385.2 56.8 385.9 56.8 C 386.5 56.8 387.1 57 387.6 57.4 C 388 57.9 388.3 58.4 388.3 59 C 388.3 59.6 388 60.2 387.6 60.6 C 387.1 61.1 386.5 61.3 385.9 61.3 Z M 408.6 69.8 C 408.6 69.8 405.5 70.7 405.5 70.7 C 405.3 70.2 405.1 69.7 404.7 69.2 C 404.3 68.7 403.8 68.3 403.2 68 C 402.6 67.7 401.8 67.5 400.8 67.5 C 399.5 67.5 398.4 67.9 397.5 68.5 C 396.6 69.1 396.2 69.8 396.2 70.8 C 396.2 71.6 396.5 72.3 397.1 72.8 C 397.7 73.2 398.6 73.6 399.9 74 C 399.9 74 403.2 74.8 403.2 74.8 C 405.1 75.2 406.6 76 407.5 76.9 C 408.5 77.9 408.9 79.1 408.9 80.7 C 408.9 81.9 408.6 83 407.9 84 C 407.2 85 406.2 85.8 404.9 86.4 C 403.6 86.9 402.1 87.2 400.4 87.2 C 398.2 87.2 396.4 86.7 394.9 85.8 C 393.4 84.8 392.5 83.4 392.1 81.5 C 392.1 81.5 395.3 80.7 395.3 80.7 C 395.6 81.9 396.2 82.8 397 83.4 C 397.9 84 399 84.3 400.4 84.3 C 401.9 84.3 403.2 83.9 404.1 83.2 C 405 82.6 405.5 81.8 405.5 80.8 C 405.5 80.1 405.2 79.4 404.7 78.9 C 404.2 78.4 403.3 78 402.2 77.8 C 402.2 77.8 398.6 76.9 398.6 76.9 C 396.6 76.4 395.1 75.7 394.2 74.7 C 393.3 73.7 392.8 72.5 392.8 71 C 392.8 69.7 393.2 68.6 393.9 67.7 C 394.6 66.7 395.5 66 396.7 65.5 C 397.9 64.9 399.3 64.6 400.8 64.6 C 403 64.6 404.7 65.1 405.9 66.1 C 407.2 67 408 68.3 408.6 69.8 Z M 425.3 86.8 L 425.3 64.9 L 428.5 64.9 L 428.5 68.3 C 428.5 68.3 428.78 68.34 428.8 68.3 C 429.2 67.2 430 66.3 431 65.6 C 432 65 433.2 64.6 434.6 64.6 C 436.1 64.6 437.3 65 438.2 65.6 C 439.2 66.3 439.9 67.2 440.5 68.3 C 440.5 68.3 440.7 68.3 440.7 68.3 C 441.3 67.2 442.1 66.3 443.2 65.6 C 444.3 65 445.7 64.6 447.2 64.6 C 449.2 64.6 450.8 65.3 452 66.5 C 453.3 67.7 453.9 69.6 453.9 72.1 C 453.89 72.15 453.9 86.8 453.9 86.8 L 450.5 86.8 C 450.5 86.8 450.54 72.15 450.5 72.1 C 450.5 70.5 450.1 69.4 449.2 68.7 C 448.3 68 447.3 67.7 446.1 67.7 C 444.6 67.7 443.4 68.1 442.5 69 C 441.7 70 441.3 71.1 441.3 72.5 C 441.28 72.55 441.3 86.8 441.3 86.8 L 437.9 86.8 C 437.9 86.8 437.87 71.81 437.9 71.8 C 437.9 70.6 437.5 69.6 436.7 68.8 C 435.9 68 434.8 67.7 433.6 67.7 C 432.7 67.7 431.9 67.9 431.1 68.4 C 430.4 68.8 429.8 69.5 429.3 70.3 C 428.8 71.1 428.6 72 428.6 73.1 C 428.61 73.11 428.6 86.8 428.6 86.8 L 425.3 86.8 Z M 473.3 77.8 C 473.26 77.83 473.3 64.9 473.3 64.9 L 476.6 64.9 L 476.6 86.8 L 473.3 86.8 L 473.3 83.1 C 473.3 83.1 473.03 83.06 473 83.1 C 472.5 84.2 471.7 85.1 470.6 85.9 C 469.6 86.6 468.2 87 466.6 87 C 465.2 87 464 86.7 462.9 86.1 C 461.9 85.5 461 84.6 460.4 83.4 C 459.8 82.2 459.5 80.7 459.5 78.8 C 459.51 78.8 459.5 64.9 459.5 64.9 L 462.9 64.9 C 462.9 64.9 462.86 78.57 462.9 78.6 C 462.9 80.2 463.3 81.4 464.2 82.4 C 465.1 83.3 466.2 83.8 467.6 83.8 C 468.5 83.8 469.3 83.6 470.2 83.2 C 471 82.7 471.8 82.1 472.4 81.2 C 473 80.3 473.3 79.2 473.3 77.8 Z M 497.6 69.8 C 497.6 69.8 494.6 70.7 494.6 70.7 C 494.4 70.2 494.1 69.7 493.8 69.2 C 493.4 68.7 492.9 68.3 492.3 68 C 491.7 67.7 490.9 67.5 489.9 67.5 C 488.5 67.5 487.4 67.9 486.6 68.5 C 485.7 69.1 485.2 69.8 485.2 70.8 C 485.2 71.6 485.5 72.3 486.1 72.8 C 486.7 73.2 487.7 73.6 489 74 C 489 74 492.2 74.8 492.2 74.8 C 494.2 75.2 495.6 76 496.6 76.9 C 497.5 77.9 498 79.1 498 80.7 C 498 81.9 497.6 83 496.9 84 C 496.2 85 495.2 85.8 493.9 86.4 C 492.7 86.9 491.2 87.2 489.5 87.2 C 487.3 87.2 485.4 86.7 484 85.8 C 482.5 84.8 481.6 83.4 481.2 81.5 C 481.2 81.5 484.4 80.7 484.4 80.7 C 484.7 81.9 485.2 82.8 486.1 83.4 C 486.9 84 488.1 84.3 489.4 84.3 C 491 84.3 492.2 83.9 493.2 83.2 C 494.1 82.6 494.5 81.8 494.5 80.8 C 494.5 80.1 494.3 79.4 493.7 78.9 C 493.2 78.4 492.4 78 491.3 77.8 C 491.3 77.8 487.7 76.9 487.7 76.9 C 485.7 76.4 484.2 75.7 483.3 74.7 C 482.3 73.7 481.9 72.5 481.9 71 C 481.9 69.7 482.2 68.6 482.9 67.7 C 483.6 66.7 484.6 66 485.8 65.5 C 487 64.9 488.3 64.6 489.9 64.6 C 492 64.6 493.7 65.1 495 66.1 C 496.2 67 497.1 68.3 497.6 69.8 Z M 512.1 64.9 L 512.1 67.8 L 500.7 67.8 L 500.7 64.9 L 512.1 64.9 Z M 504 59.7 L 507.4 59.7 C 507.4 59.7 507.39 80.5 507.4 80.5 C 507.4 81.4 507.5 82.2 507.8 82.6 C 508.1 83.1 508.5 83.4 508.9 83.6 C 509.3 83.7 509.8 83.8 510.3 83.8 C 510.7 83.8 511 83.8 511.2 83.7 C 511.4 83.7 511.6 83.7 511.8 83.6 C 511.8 83.6 512.4 86.6 512.4 86.6 C 512.2 86.7 511.9 86.8 511.5 86.9 C 511.1 87 510.6 87 509.9 87 C 509 87 508.1 86.8 507.2 86.4 C 506.3 86 505.5 85.4 504.9 84.6 C 504.3 83.7 504 82.7 504 81.4 C 504.04 81.41 504 59.7 504 59.7 Z M 528.8 86.8 L 528.8 57.7 L 532.2 57.7 L 532.2 68.4 C 532.2 68.4 532.45 68.4 532.4 68.4 C 532.7 68 533 67.5 533.5 66.9 C 533.9 66.4 534.6 65.8 535.4 65.4 C 536.2 64.9 537.3 64.6 538.8 64.6 C 540.6 64.6 542.2 65.1 543.6 66 C 545 66.9 546.1 68.2 546.9 69.9 C 547.7 71.6 548.1 73.6 548.1 75.9 C 548.1 78.2 547.7 80.2 546.9 81.9 C 546.1 83.6 545 84.9 543.6 85.8 C 542.2 86.7 540.6 87.2 538.8 87.2 C 537.4 87.2 536.3 87 535.4 86.5 C 534.6 86 534 85.5 533.5 84.9 C 533 84.3 532.7 83.8 532.4 83.4 C 532.45 83.4 532.1 83.4 532.1 83.4 L 532.1 86.8 L 528.8 86.8 Z M 532.1 75.8 C 532.1 77.5 532.3 78.9 532.8 80.2 C 533.3 81.4 534 82.4 534.9 83.1 C 535.9 83.8 537 84.2 538.4 84.2 C 539.8 84.2 540.9 83.8 541.9 83.1 C 542.8 82.3 543.5 81.3 544 80.1 C 544.5 78.8 544.7 77.4 544.7 75.8 C 544.7 74.3 544.5 72.9 544 71.7 C 543.5 70.5 542.8 69.5 541.9 68.7 C 541 68 539.8 67.7 538.4 67.7 C 537 67.7 535.8 68 534.9 68.7 C 534 69.4 533.3 70.3 532.8 71.6 C 532.3 72.8 532.1 74.2 532.1 75.8 Z M 561.9 87.2 C 559.8 87.2 558 86.7 556.5 85.8 C 555 84.9 553.8 83.6 553 81.9 C 552.2 80.2 551.8 78.2 551.8 76 C 551.8 73.8 552.2 71.8 553 70.1 C 553.8 68.4 555 67.1 556.4 66.1 C 557.9 65.1 559.6 64.6 561.6 64.6 C 562.7 64.6 563.9 64.8 565 65.2 C 566.1 65.6 567.1 66.2 568 67.1 C 568.9 67.9 569.6 69 570.2 70.4 C 570.7 71.8 571 73.5 571 75.6 C 570.97 75.56 571 77 571 77 L 554.2 77 L 554.2 74.1 C 554.2 74.1 567.56 74.08 567.6 74.1 C 567.6 72.8 567.3 71.8 566.8 70.8 C 566.3 69.8 565.7 69.1 564.8 68.5 C 563.9 67.9 562.8 67.7 561.6 67.7 C 560.3 67.7 559.1 68 558.1 68.6 C 557.2 69.3 556.4 70.2 555.9 71.2 C 555.4 72.3 555.1 73.4 555.1 74.6 C 555.1 74.6 555.1 76.5 555.1 76.5 C 555.1 78.2 555.4 79.6 556 80.7 C 556.6 81.8 557.4 82.7 558.4 83.3 C 559.4 83.9 560.6 84.2 561.9 84.2 C 562.8 84.2 563.6 84.1 564.3 83.8 C 565 83.6 565.7 83.2 566.2 82.7 C 566.7 82.2 567.1 81.5 567.4 80.8 C 567.4 80.8 570.6 81.7 570.6 81.7 C 570.3 82.8 569.7 83.8 568.9 84.6 C 568.1 85.4 567.1 86.1 565.9 86.5 C 564.7 87 563.4 87.2 561.9 87.2 Z M 593.8 87.3 C 592.4 87.3 591.1 87 590 86.5 C 588.9 85.9 588 85.2 587.3 84.2 C 586.6 83.2 586.3 82 586.3 80.6 C 586.3 79.3 586.6 78.3 587.1 77.5 C 587.5 76.7 588.2 76.1 589 75.7 C 589.9 75.2 590.8 74.9 591.8 74.7 C 592.8 74.4 593.8 74.3 594.8 74.1 C 596.1 74 597.2 73.8 598 73.7 C 598.8 73.7 599.4 73.5 599.8 73.3 C 600.2 73.1 600.4 72.7 600.4 72.1 C 600.4 72.1 600.4 72 600.4 72 C 600.4 70.6 600 69.5 599.3 68.8 C 598.5 68 597.3 67.6 595.8 67.6 C 594.2 67.6 592.9 68 592 68.7 C 591.1 69.4 590.5 70.1 590.1 70.9 C 590.1 70.9 586.9 69.8 586.9 69.8 C 587.5 68.4 588.3 67.4 589.2 66.7 C 590.2 65.9 591.2 65.4 592.3 65.1 C 593.5 64.8 594.6 64.6 595.7 64.6 C 596.4 64.6 597.2 64.7 598.1 64.9 C 599 65.1 599.9 65.4 600.8 65.9 C 601.6 66.4 602.3 67.2 602.9 68.2 C 603.5 69.3 603.8 70.6 603.8 72.4 C 603.76 72.38 603.8 86.8 603.8 86.8 L 600.4 86.8 L 600.4 83.8 C 600.4 83.8 600.23 83.8 600.2 83.8 C 600 84.3 599.6 84.8 599.1 85.3 C 598.6 85.9 597.9 86.3 597 86.7 C 596.1 87.1 595 87.3 593.8 87.3 Z M 594.3 84.3 C 595.6 84.3 596.7 84 597.6 83.5 C 598.5 82.9 599.2 82.3 599.7 81.5 C 600.2 80.6 600.4 79.8 600.4 78.9 C 600.4 78.9 600.4 75.8 600.4 75.8 C 600.3 76 600 76.1 599.5 76.2 C 599 76.4 598.4 76.5 597.8 76.6 C 597.2 76.7 596.6 76.8 596 76.9 C 595.4 76.9 595 77 594.6 77 C 593.7 77.1 592.9 77.3 592.2 77.6 C 591.4 77.8 590.8 78.2 590.4 78.7 C 589.9 79.2 589.7 79.9 589.7 80.7 C 589.7 81.9 590.1 82.8 591 83.4 C 591.8 84 592.9 84.3 594.3 84.3 Z M 609.7 86.8 L 609.7 57.7 L 613.1 57.7 L 613.1 68.4 C 613.1 68.4 613.36 68.4 613.4 68.4 C 613.6 68 613.9 67.5 614.4 66.9 C 614.8 66.4 615.5 65.8 616.3 65.4 C 617.1 64.9 618.2 64.6 619.7 64.6 C 621.5 64.6 623.1 65.1 624.5 66 C 625.9 66.9 627 68.2 627.8 69.9 C 628.6 71.6 629 73.6 629 75.9 C 629 78.2 628.6 80.2 627.8 81.9 C 627 83.6 625.9 84.9 624.5 85.8 C 623.1 86.7 621.5 87.2 619.7 87.2 C 618.3 87.2 617.2 87 616.4 86.5 C 615.5 86 614.9 85.5 614.4 84.9 C 614 84.3 613.6 83.8 613.4 83.4 C 613.36 83.4 613 83.4 613 83.4 L 613 86.8 L 609.7 86.8 Z M 613 75.8 C 613 77.5 613.3 78.9 613.7 80.2 C 614.2 81.4 614.9 82.4 615.9 83.1 C 616.8 83.8 617.9 84.2 619.3 84.2 C 620.7 84.2 621.8 83.8 622.8 83.1 C 623.7 82.3 624.4 81.3 624.9 80.1 C 625.4 78.8 625.6 77.4 625.6 75.8 C 625.6 74.3 625.4 72.9 624.9 71.7 C 624.5 70.5 623.8 69.5 622.8 68.7 C 621.9 68 620.7 67.7 619.3 67.7 C 617.9 67.7 616.8 68 615.8 68.7 C 614.9 69.4 614.2 70.3 613.7 71.6 C 613.3 72.8 613 74.2 613 75.8 Z M 637.1 57.7 L 637.1 86.8 L 633.8 86.8 L 633.8 57.7 L 637.1 57.7 Z M 652.1 87.2 C 650 87.2 648.2 86.7 646.7 85.8 C 645.2 84.9 644 83.6 643.2 81.9 C 642.3 80.2 641.9 78.2 641.9 76 C 641.9 73.8 642.3 71.8 643.2 70.1 C 644 68.4 645.1 67.1 646.6 66.1 C 648.1 65.1 649.8 64.6 651.8 64.6 C 652.9 64.6 654 64.8 655.1 65.2 C 656.2 65.6 657.3 66.2 658.2 67.1 C 659.1 67.9 659.8 69 660.3 70.4 C 660.9 71.8 661.1 73.5 661.1 75.6 C 661.14 75.56 661.1 77 661.1 77 L 644.3 77 L 644.3 74.1 C 644.3 74.1 657.74 74.08 657.7 74.1 C 657.7 72.8 657.5 71.8 657 70.8 C 656.5 69.8 655.8 69.1 654.9 68.5 C 654 67.9 653 67.7 651.8 67.7 C 650.4 67.7 649.3 68 648.3 68.6 C 647.3 69.3 646.6 70.2 646.1 71.2 C 645.6 72.3 645.3 73.4 645.3 74.6 C 645.3 74.6 645.3 76.5 645.3 76.5 C 645.3 78.2 645.6 79.6 646.2 80.7 C 646.7 81.8 647.5 82.7 648.5 83.3 C 649.6 83.9 650.8 84.2 652.1 84.2 C 653 84.2 653.8 84.1 654.5 83.8 C 655.2 83.6 655.8 83.2 656.4 82.7 C 656.9 82.2 657.3 81.5 657.6 80.8 C 657.6 80.8 660.8 81.7 660.8 81.7 C 660.5 82.8 659.9 83.8 659.1 84.6 C 658.3 85.4 657.3 86.1 656.1 86.5 C 654.9 87 653.6 87.2 652.1 87.2 Z M 687 64.9 L 687 67.8 L 675.7 67.8 L 675.7 64.9 L 687 64.9 Z M 679 59.7 L 682.3 59.7 C 682.3 59.7 682.34 80.5 682.3 80.5 C 682.3 81.4 682.5 82.2 682.8 82.6 C 683 83.1 683.4 83.4 683.8 83.6 C 684.3 83.7 684.7 83.8 685.2 83.8 C 685.6 83.8 685.9 83.8 686.1 83.7 C 686.4 83.7 686.6 83.7 686.7 83.6 C 686.7 83.6 687.4 86.6 687.4 86.6 C 687.2 86.7 686.8 86.8 686.4 86.9 C 686 87 685.5 87 684.9 87 C 683.9 87 683 86.8 682.1 86.4 C 681.2 86 680.5 85.4 679.9 84.6 C 679.3 83.7 679 82.7 679 81.4 C 678.99 81.41 679 59.7 679 59.7 Z M 699.4 87.2 C 697.4 87.2 695.7 86.7 694.2 85.8 C 692.8 84.9 691.6 83.5 690.8 81.9 C 689.9 80.2 689.5 78.2 689.5 76 C 689.5 73.7 689.9 71.7 690.8 70 C 691.6 68.3 692.8 67 694.2 66.1 C 695.7 65.1 697.4 64.6 699.4 64.6 C 701.4 64.6 703.1 65.1 704.6 66.1 C 706.1 67 707.2 68.3 708.1 70 C 708.9 71.7 709.3 73.7 709.3 76 C 709.3 78.2 708.9 80.2 708.1 81.9 C 707.2 83.5 706.1 84.9 704.6 85.8 C 703.1 86.7 701.4 87.2 699.4 87.2 Z M 699.4 84.2 C 700.9 84.2 702.1 83.8 703.1 83 C 704.1 82.3 704.8 81.3 705.3 80 C 705.7 78.8 705.9 77.4 705.9 76 C 705.9 74.5 705.7 73.1 705.3 71.9 C 704.8 70.6 704.1 69.6 703.1 68.8 C 702.1 68 700.9 67.7 699.4 67.7 C 697.9 67.7 696.7 68 695.7 68.8 C 694.8 69.6 694 70.6 693.6 71.9 C 693.1 73.1 692.9 74.5 692.9 76 C 692.9 77.4 693.1 78.8 693.6 80 C 694 81.3 694.8 82.3 695.7 83 C 696.7 83.8 697.9 84.2 699.4 84.2 Z M 715.5 87 C 714.8 87 714.2 86.7 713.7 86.2 C 713.2 85.7 713 85.1 713 84.4 C 713 83.7 713.2 83.1 713.7 82.6 C 714.2 82.1 714.8 81.9 715.5 81.9 C 716.2 81.9 716.8 82.1 717.3 82.6 C 717.8 83.1 718.1 83.7 718.1 84.4 C 718.1 84.9 717.9 85.3 717.7 85.7 C 717.5 86.1 717.2 86.4 716.8 86.6 C 716.4 86.9 716 87 715.5 87 Z M 715.5 70.8 C 714.8 70.8 714.2 70.5 713.7 70 C 713.2 69.5 713 68.9 713 68.2 C 713 67.5 713.2 66.9 713.7 66.4 C 714.2 65.9 714.8 65.7 715.5 65.7 C 716.2 65.7 716.8 65.9 717.3 66.4 C 717.8 66.9 718.1 67.5 718.1 68.2 C 718.1 68.7 717.9 69.1 717.7 69.5 C 717.5 69.9 717.2 70.2 716.8 70.4 C 716.4 70.7 716 70.8 715.5 70.8 Z " stroke="none" fill="#10283d"/>  </g>  <g id="Polygon125317">    <path d="M 106.4 38.8 L 106.4 9.7 C 106.4 9.7 116.25 9.66 116.2 9.7 C 118.5 9.7 120.4 10 121.8 10.8 C 123.3 11.6 124.4 12.6 125.1 14 C 125.8 15.3 126.1 16.9 126.1 18.6 C 126.1 20.3 125.8 21.8 125.1 23.1 C 124.4 24.5 123.3 25.5 121.9 26.3 C 120.4 27 118.6 27.4 116.3 27.4 C 116.31 27.39 108.4 27.4 108.4 27.4 L 108.4 24.2 C 108.4 24.2 116.19 24.2 116.2 24.2 C 117.7 24.2 119 24 119.9 23.5 C 120.9 23.1 121.6 22.4 122 21.6 C 122.5 20.7 122.7 19.7 122.7 18.6 C 122.7 17.4 122.5 16.4 122 15.5 C 121.6 14.7 120.9 14 119.9 13.5 C 119 13 117.7 12.8 116.1 12.8 C 116.14 12.78 109.9 12.8 109.9 12.8 L 109.9 38.8 L 106.4 38.8 Z M 120.1 25.7 L 127.3 38.8 L 123.2 38.8 L 116.1 25.7 L 120.1 25.7 Z M 131.3 38.8 L 131.3 16.9 L 134.7 16.9 L 134.7 38.8 L 131.3 38.8 Z M 133 13.3 C 132.4 13.3 131.8 13.1 131.3 12.6 C 130.9 12.2 130.6 11.6 130.6 11 C 130.6 10.4 130.9 9.9 131.3 9.4 C 131.8 9 132.4 8.8 133 8.8 C 133.7 8.8 134.2 9 134.7 9.4 C 135.2 9.9 135.4 10.4 135.4 11 C 135.4 11.6 135.2 12.2 134.7 12.6 C 134.2 13.1 133.7 13.3 133 13.3 Z M 149.2 47.4 C 147.5 47.4 146.1 47.2 145 46.8 C 143.8 46.4 142.8 45.8 142.1 45.1 C 141.3 44.5 140.7 43.8 140.2 43 C 140.2 43 142.9 41.1 142.9 41.1 C 143.2 41.5 143.6 42 144.1 42.5 C 144.5 43 145.2 43.5 146 43.9 C 146.8 44.2 147.8 44.4 149.2 44.4 C 150.9 44.4 152.4 44 153.5 43.2 C 154.7 42.3 155.2 41 155.2 39.1 C 155.23 39.15 155.2 34.7 155.2 34.7 C 155.2 34.7 154.95 34.72 154.9 34.7 C 154.7 35.1 154.4 35.6 153.9 36.2 C 153.5 36.8 152.8 37.3 152 37.7 C 151.1 38.2 150 38.4 148.6 38.4 C 146.8 38.4 145.2 38 143.8 37.2 C 142.5 36.3 141.3 35.1 140.5 33.5 C 139.7 31.9 139.3 30 139.3 27.7 C 139.3 25.5 139.7 23.5 140.5 21.9 C 141.3 20.2 142.4 18.9 143.8 18 C 145.2 17.1 146.8 16.6 148.6 16.6 C 150.1 16.6 151.2 16.9 152 17.4 C 152.9 17.8 153.5 18.4 154 18.9 C 154.4 19.5 154.8 20 155 20.4 C 155 20.4 155.3 20.4 155.3 20.4 L 155.3 16.9 L 158.6 16.9 C 158.6 16.9 158.58 39.38 158.6 39.4 C 158.6 41.3 158.2 42.8 157.3 44 C 156.5 45.1 155.3 46 153.9 46.6 C 152.5 47.1 150.9 47.4 149.2 47.4 Z M 149 35.4 C 150.4 35.4 151.5 35.1 152.4 34.5 C 153.4 33.9 154.1 33 154.6 31.8 C 155 30.7 155.3 29.3 155.3 27.7 C 155.3 26.1 155.1 24.7 154.6 23.5 C 154.1 22.3 153.4 21.4 152.5 20.7 C 151.5 20 150.4 19.7 149 19.7 C 147.6 19.7 146.4 20 145.5 20.7 C 144.6 21.5 143.8 22.4 143.4 23.6 C 142.9 24.8 142.7 26.2 142.7 27.7 C 142.7 29.2 142.9 30.5 143.4 31.7 C 143.9 32.8 144.6 33.8 145.5 34.4 C 146.5 35.1 147.6 35.4 149 35.4 Z M 167.7 25.6 C 167.72 25.63 167.7 38.8 167.7 38.8 L 164.4 38.8 L 164.4 9.7 L 167.7 9.7 L 167.7 20.3 C 167.7 20.3 168.01 20.34 168 20.3 C 168.5 19.2 169.3 18.3 170.3 17.6 C 171.3 17 172.7 16.6 174.4 16.6 C 175.9 16.6 177.2 16.9 178.3 17.5 C 179.5 18.1 180.3 19 180.9 20.2 C 181.6 21.5 181.9 23 181.9 24.9 C 181.87 24.89 181.9 38.8 181.9 38.8 L 178.5 38.8 C 178.5 38.8 178.52 25.11 178.5 25.1 C 178.5 23.4 178.1 22 177.2 21.1 C 176.3 20.1 175 19.7 173.5 19.7 C 172.4 19.7 171.4 19.9 170.5 20.4 C 169.6 20.8 169 21.5 168.5 22.4 C 168 23.3 167.7 24.4 167.7 25.6 Z M 196.5 16.9 L 196.5 19.8 L 185.2 19.8 L 185.2 16.9 L 196.5 16.9 Z M 188.5 11.7 L 191.9 11.7 C 191.9 11.7 191.87 32.5 191.9 32.5 C 191.9 33.4 192 34.2 192.3 34.6 C 192.6 35.1 192.9 35.4 193.4 35.6 C 193.8 35.7 194.3 35.8 194.8 35.8 C 195.1 35.8 195.4 35.8 195.7 35.7 C 195.9 35.7 196.1 35.7 196.2 35.6 C 196.2 35.6 196.9 38.6 196.9 38.6 C 196.7 38.7 196.4 38.8 196 38.9 C 195.6 39 195.1 39 194.4 39 C 193.5 39 192.6 38.8 191.7 38.4 C 190.7 38 190 37.4 189.4 36.6 C 188.8 35.7 188.5 34.7 188.5 33.4 C 188.52 33.41 188.5 11.7 188.5 11.7 Z M 211.2 24.7 L 211.2 27.8 L 198.5 27.8 L 198.5 24.7 L 211.2 24.7 Z M 225.1 16.9 L 225.1 19.8 L 213.4 19.8 L 213.4 16.9 L 225.1 16.9 Z M 216.9 38.8 C 216.9 38.8 216.89 13.92 216.9 13.9 C 216.9 12.7 217.2 11.6 217.8 10.8 C 218.4 10 219.1 9.3 220.1 8.9 C 221 8.5 222 8.3 223 8.3 C 223.9 8.3 224.5 8.4 225 8.5 C 225.6 8.6 226 8.8 226.2 8.9 C 226.2 8.9 225.2 11.8 225.2 11.8 C 225.1 11.7 224.8 11.6 224.5 11.5 C 224.2 11.5 223.9 11.4 223.4 11.4 C 222.3 11.4 221.5 11.7 221 12.3 C 220.5 12.8 220.2 13.6 220.2 14.7 C 220.24 14.72 220.2 38.8 220.2 38.8 L 216.9 38.8 Z M 229.9 38.8 L 229.9 16.9 L 233.2 16.9 L 233.2 38.8 L 229.9 38.8 Z M 231.6 13.3 C 230.9 13.3 230.4 13.1 229.9 12.6 C 229.4 12.2 229.2 11.6 229.2 11 C 229.2 10.4 229.4 9.9 229.9 9.4 C 230.4 9 230.9 8.8 231.6 8.8 C 232.2 8.8 232.8 9 233.3 9.4 C 233.7 9.9 234 10.4 234 11 C 234 11.6 233.7 12.2 233.3 12.6 C 232.8 13.1 232.2 13.3 231.6 13.3 Z M 248.3 16.9 L 248.3 19.8 L 237 19.8 L 237 16.9 L 248.3 16.9 Z M 240.3 11.7 L 243.7 11.7 C 243.7 11.7 243.68 32.5 243.7 32.5 C 243.7 33.4 243.8 34.2 244.1 34.6 C 244.4 35.1 244.7 35.4 245.2 35.6 C 245.6 35.7 246.1 35.8 246.6 35.8 C 246.9 35.8 247.2 35.8 247.5 35.7 C 247.7 35.7 247.9 35.7 248.1 35.6 C 248.1 35.6 248.7 38.6 248.7 38.6 C 248.5 38.7 248.2 38.8 247.8 38.9 C 247.4 39 246.9 39 246.2 39 C 245.3 39 244.4 38.8 243.5 38.4 C 242.6 38 241.8 37.4 241.2 36.6 C 240.6 35.7 240.3 34.7 240.3 33.4 C 240.32 33.41 240.3 11.7 240.3 11.7 Z M 257.4 34.8 C 257.4 34.8 257.2 36.31 257.2 36.3 C 257 37.4 256.8 38.5 256.5 39.8 C 256.1 41 255.8 42.2 255.5 43.3 C 255.1 44.3 254.8 45.2 254.6 45.9 C 254.6 45.9 252 45.9 252 45.9 C 252.2 45.2 252.3 44.4 252.5 43.5 C 252.7 42.5 252.9 41.3 253.1 40.1 C 253.3 38.9 253.5 37.6 253.6 36.4 C 253.62 36.36 253.8 34.8 253.8 34.8 L 257.4 34.8 Z M 276.5 38.8 L 272.8 38.8 L 283.5 9.7 L 287.1 9.7 L 297.8 38.8 L 294.1 38.8 L 285.4 14.3 L 285.2 14.3 L 276.5 38.8 Z M 277.9 27.4 L 292.8 27.4 L 292.8 30.5 L 277.9 30.5 L 277.9 27.4 Z M 305.6 9.7 L 305.6 38.8 L 302.1 38.8 L 302.1 9.7 L 305.6 9.7 Z M 324.3 24.7 L 324.3 27.8 L 311.6 27.8 L 311.6 24.7 L 324.3 24.7 Z M 329.4 38.8 L 329.4 16.9 L 332.7 16.9 L 332.7 38.8 L 329.4 38.8 Z M 331.1 13.3 C 330.4 13.3 329.9 13.1 329.4 12.6 C 328.9 12.2 328.7 11.6 328.7 11 C 328.7 10.4 328.9 9.9 329.4 9.4 C 329.9 9 330.4 8.8 331.1 8.8 C 331.7 8.8 332.3 9 332.8 9.4 C 333.2 9.9 333.5 10.4 333.5 11 C 333.5 11.6 333.2 12.2 332.8 12.6 C 332.3 13.1 331.7 13.3 331.1 13.3 Z M 341.9 25.6 C 341.91 25.63 341.9 38.8 341.9 38.8 L 338.6 38.8 L 338.6 16.9 L 341.8 16.9 L 341.8 20.3 C 341.8 20.3 342.08 20.34 342.1 20.3 C 342.6 19.2 343.4 18.3 344.4 17.7 C 345.4 17 346.8 16.6 348.4 16.6 C 349.9 16.6 351.2 16.9 352.3 17.5 C 353.4 18.2 354.3 19.1 354.9 20.3 C 355.5 21.5 355.8 23 355.8 24.9 C 355.83 24.89 355.8 38.8 355.8 38.8 L 352.5 38.8 C 352.5 38.8 352.47 25.11 352.5 25.1 C 352.5 23.4 352 22.1 351.1 21.1 C 350.2 20.1 349 19.7 347.5 19.7 C 346.4 19.7 345.4 19.9 344.6 20.4 C 343.8 20.8 343.1 21.5 342.6 22.4 C 342.1 23.3 341.9 24.4 341.9 25.6 Z M 370.8 16.9 L 370.8 19.8 L 359.1 19.8 L 359.1 16.9 L 370.8 16.9 Z M 362.6 38.8 C 362.6 38.8 362.6 13.92 362.6 13.9 C 362.6 12.7 362.9 11.6 363.5 10.8 C 364.1 10 364.8 9.3 365.8 8.9 C 366.7 8.5 367.7 8.3 368.7 8.3 C 369.6 8.3 370.2 8.4 370.7 8.5 C 371.3 8.6 371.7 8.8 371.9 8.9 C 371.9 8.9 370.9 11.8 370.9 11.8 C 370.8 11.7 370.5 11.6 370.2 11.5 C 369.9 11.5 369.6 11.4 369.1 11.4 C 368 11.4 367.2 11.7 366.7 12.3 C 366.2 12.8 365.9 13.6 365.9 14.7 C 365.95 14.72 365.9 38.8 365.9 38.8 L 362.6 38.8 Z M 388.6 29.8 C 388.59 29.83 388.6 16.9 388.6 16.9 L 391.9 16.9 L 391.9 38.8 L 388.6 38.8 L 388.6 35.1 C 388.6 35.1 388.36 35.06 388.4 35.1 C 387.9 36.2 387.1 37.1 386 37.9 C 384.9 38.6 383.5 39 381.9 39 C 380.5 39 379.3 38.7 378.3 38.1 C 377.2 37.5 376.4 36.6 375.8 35.4 C 375.1 34.2 374.8 32.7 374.8 30.8 C 374.84 30.8 374.8 16.9 374.8 16.9 L 378.2 16.9 C 378.2 16.9 378.19 30.57 378.2 30.6 C 378.2 32.2 378.6 33.4 379.5 34.4 C 380.4 35.3 381.6 35.8 383 35.8 C 383.8 35.8 384.6 35.6 385.5 35.2 C 386.4 34.7 387.1 34.1 387.7 33.2 C 388.3 32.3 388.6 31.2 388.6 29.8 Z M 412.9 21.8 C 412.9 21.8 409.9 22.7 409.9 22.7 C 409.7 22.2 409.5 21.7 409.1 21.2 C 408.7 20.7 408.2 20.3 407.6 20 C 407 19.7 406.2 19.5 405.2 19.5 C 403.9 19.5 402.8 19.9 401.9 20.5 C 401 21.1 400.6 21.8 400.6 22.8 C 400.6 23.6 400.9 24.3 401.5 24.8 C 402.1 25.2 403 25.6 404.3 26 C 404.3 26 407.5 26.8 407.5 26.8 C 409.5 27.2 410.9 28 411.9 28.9 C 412.9 29.9 413.3 31.1 413.3 32.7 C 413.3 33.9 413 35 412.3 36 C 411.6 37 410.6 37.8 409.3 38.4 C 408 38.9 406.5 39.2 404.8 39.2 C 402.6 39.2 400.8 38.7 399.3 37.8 C 397.8 36.8 396.9 35.4 396.5 33.5 C 396.5 33.5 399.7 32.7 399.7 32.7 C 400 33.9 400.6 34.8 401.4 35.4 C 402.3 36 403.4 36.3 404.8 36.3 C 406.3 36.3 407.6 35.9 408.5 35.2 C 409.4 34.6 409.9 33.8 409.9 32.8 C 409.9 32.1 409.6 31.4 409.1 30.9 C 408.5 30.4 407.7 30 406.6 29.8 C 406.6 29.8 403 28.9 403 28.9 C 401 28.4 399.5 27.7 398.6 26.7 C 397.7 25.7 397.2 24.5 397.2 23 C 397.2 21.7 397.6 20.6 398.2 19.7 C 398.9 18.7 399.9 18 401.1 17.5 C 402.3 16.9 403.7 16.6 405.2 16.6 C 407.4 16.6 409.1 17.1 410.3 18.1 C 411.5 19 412.4 20.3 412.9 21.8 Z M 427 39.2 C 424.9 39.2 423.1 38.7 421.6 37.8 C 420.1 36.9 418.9 35.6 418.1 33.9 C 417.3 32.2 416.9 30.2 416.9 28 C 416.9 25.8 417.3 23.8 418.1 22.1 C 418.9 20.4 420 19.1 421.5 18.1 C 423 17.1 424.7 16.6 426.7 16.6 C 427.8 16.6 428.9 16.8 430 17.2 C 431.2 17.6 432.2 18.2 433.1 19.1 C 434 19.9 434.7 21 435.2 22.4 C 435.8 23.8 436.1 25.5 436.1 27.6 C 436.05 27.56 436.1 29 436.1 29 L 419.2 29 L 419.2 26.1 C 419.2 26.1 432.65 26.08 432.6 26.1 C 432.6 24.8 432.4 23.8 431.9 22.8 C 431.4 21.8 430.7 21.1 429.8 20.5 C 428.9 19.9 427.9 19.7 426.7 19.7 C 425.3 19.7 424.2 20 423.2 20.6 C 422.3 21.3 421.5 22.2 421 23.2 C 420.5 24.3 420.2 25.4 420.2 26.6 C 420.2 26.6 420.2 28.5 420.2 28.5 C 420.2 30.2 420.5 31.6 421.1 32.7 C 421.6 33.8 422.4 34.7 423.5 35.3 C 424.5 35.9 425.7 36.2 427 36.2 C 427.9 36.2 428.7 36.1 429.4 35.8 C 430.1 35.6 430.7 35.2 431.3 34.7 C 431.8 34.2 432.2 33.5 432.5 32.8 C 432.5 32.8 435.7 33.7 435.7 33.7 C 435.4 34.8 434.8 35.8 434 36.6 C 433.2 37.4 432.2 38.1 431 38.5 C 429.8 39 428.5 39.2 427 39.2 Z M 449 39.2 C 447.2 39.2 445.6 38.7 444.2 37.8 C 442.8 36.9 441.7 35.6 440.9 33.9 C 440.2 32.2 439.8 30.2 439.8 27.9 C 439.8 25.6 440.2 23.6 440.9 21.9 C 441.7 20.2 442.8 18.9 444.2 18 C 445.6 17.1 447.2 16.6 449.1 16.6 C 450.5 16.6 451.6 16.9 452.4 17.4 C 453.3 17.8 453.9 18.4 454.4 18.9 C 454.8 19.5 455.1 20 455.4 20.4 C 455.38 20.4 455.7 20.4 455.7 20.4 L 455.7 9.7 L 459 9.7 L 459 38.8 L 455.8 38.8 L 455.8 35.4 C 455.8 35.4 455.38 35.4 455.4 35.4 C 455.1 35.8 454.8 36.3 454.3 36.9 C 453.9 37.5 453.2 38 452.4 38.5 C 451.5 39 450.4 39.2 449 39.2 Z M 449.5 36.2 C 450.8 36.2 452 35.8 452.9 35.1 C 453.8 34.4 454.5 33.4 455 32.2 C 455.5 30.9 455.7 29.5 455.7 27.8 C 455.7 26.2 455.5 24.8 455 23.6 C 454.5 22.3 453.8 21.4 452.9 20.7 C 452 20 450.8 19.7 449.5 19.7 C 448.1 19.7 446.9 20 445.9 20.7 C 445 21.5 444.3 22.5 443.8 23.7 C 443.3 24.9 443.1 26.3 443.1 27.8 C 443.1 29.4 443.3 30.8 443.8 32.1 C 444.3 33.3 445 34.3 446 35.1 C 446.9 35.8 448.1 36.2 449.5 36.2 Z M 492.3 21.8 C 492.3 21.8 489.3 22.7 489.3 22.7 C 489.1 22.2 488.8 21.7 488.5 21.2 C 488.1 20.7 487.6 20.3 487 20 C 486.4 19.7 485.6 19.5 484.6 19.5 C 483.3 19.5 482.1 19.9 481.3 20.5 C 480.4 21.1 479.9 21.8 479.9 22.8 C 479.9 23.6 480.2 24.3 480.8 24.8 C 481.4 25.2 482.4 25.6 483.7 26 C 483.7 26 486.9 26.8 486.9 26.8 C 488.9 27.2 490.3 28 491.3 28.9 C 492.2 29.9 492.7 31.1 492.7 32.7 C 492.7 33.9 492.4 35 491.6 36 C 490.9 37 489.9 37.8 488.6 38.4 C 487.4 38.9 485.9 39.2 484.2 39.2 C 482 39.2 480.1 38.7 478.7 37.8 C 477.2 36.8 476.3 35.4 475.9 33.5 C 475.9 33.5 479.1 32.7 479.1 32.7 C 479.4 33.9 480 34.8 480.8 35.4 C 481.6 36 482.8 36.3 484.1 36.3 C 485.7 36.3 486.9 35.9 487.9 35.2 C 488.8 34.6 489.2 33.8 489.2 32.8 C 489.2 32.1 489 31.4 488.5 30.9 C 487.9 30.4 487.1 30 486 29.8 C 486 29.8 482.4 28.9 482.4 28.9 C 480.4 28.4 478.9 27.7 478 26.7 C 477 25.7 476.6 24.5 476.6 23 C 476.6 21.7 476.9 20.6 477.6 19.7 C 478.3 18.7 479.3 18 480.5 17.5 C 481.7 16.9 483.1 16.6 484.6 16.6 C 486.7 16.6 488.4 17.1 489.7 18.1 C 490.9 19 491.8 20.3 492.3 21.8 Z M 506.1 39.2 C 504 39.2 502.3 38.7 500.8 37.8 C 499.3 36.8 498.2 35.5 497.4 33.8 C 496.6 32.1 496.2 30.1 496.2 28 C 496.2 25.7 496.6 23.8 497.4 22.1 C 498.2 20.4 499.4 19.1 500.9 18.1 C 502.3 17.1 504.1 16.6 506 16.6 C 507.6 16.6 508.9 16.9 510.2 17.5 C 511.4 18.1 512.4 18.9 513.2 19.9 C 514 20.9 514.5 22.1 514.7 23.5 C 514.7 23.5 511.3 23.5 511.3 23.5 C 511.1 22.5 510.5 21.6 509.6 20.8 C 508.7 20 507.6 19.7 506.1 19.7 C 504.8 19.7 503.6 20 502.7 20.7 C 501.7 21.4 500.9 22.3 500.4 23.5 C 499.8 24.8 499.6 26.2 499.6 27.8 C 499.6 29.5 499.8 31 500.4 32.2 C 500.9 33.5 501.6 34.5 502.6 35.2 C 503.6 35.8 504.8 36.2 506.1 36.2 C 507 36.2 507.7 36 508.5 35.7 C 509.2 35.4 509.8 35 510.3 34.4 C 510.8 33.9 511.1 33.2 511.3 32.4 C 511.3 32.4 514.7 32.4 514.7 32.4 C 514.5 33.7 514 34.8 513.3 35.9 C 512.5 36.9 511.5 37.7 510.3 38.3 C 509.1 38.9 507.7 39.2 506.1 39.2 Z M 528.2 39.2 C 526.1 39.2 524.3 38.7 522.7 37.8 C 521.2 36.9 520 35.6 519.2 33.9 C 518.4 32.2 518 30.2 518 28 C 518 25.8 518.4 23.8 519.2 22.1 C 520 20.4 521.2 19.1 522.7 18.1 C 524.1 17.1 525.9 16.6 527.8 16.6 C 529 16.6 530.1 16.8 531.2 17.2 C 532.3 17.6 533.3 18.2 534.2 19.1 C 535.1 19.9 535.9 21 536.4 22.4 C 536.9 23.8 537.2 25.5 537.2 27.6 C 537.2 27.56 537.2 29 537.2 29 L 520.4 29 L 520.4 26.1 C 520.4 26.1 533.79 26.08 533.8 26.1 C 533.8 24.8 533.6 23.8 533.1 22.8 C 532.6 21.8 531.9 21.1 531 20.5 C 530.1 19.9 529 19.7 527.8 19.7 C 526.5 19.7 525.3 20 524.4 20.6 C 523.4 21.3 522.7 22.2 522.1 23.2 C 521.6 24.3 521.4 25.4 521.4 26.6 C 521.4 26.6 521.4 28.5 521.4 28.5 C 521.4 30.2 521.6 31.6 522.2 32.7 C 522.8 33.8 523.6 34.7 524.6 35.3 C 525.6 35.9 526.8 36.2 528.2 36.2 C 529 36.2 529.8 36.1 530.6 35.8 C 531.3 35.6 531.9 35.2 532.4 34.7 C 532.9 34.2 533.3 33.5 533.6 32.8 C 533.6 32.8 536.9 33.7 536.9 33.7 C 536.5 34.8 535.9 35.8 535.1 36.6 C 534.3 37.4 533.3 38.1 532.2 38.5 C 531 39 529.6 39.2 528.2 39.2 Z M 545.3 25.6 C 545.33 25.63 545.3 38.8 545.3 38.8 L 542 38.8 L 542 16.9 L 545.2 16.9 L 545.2 20.3 C 545.2 20.3 545.5 20.34 545.5 20.3 C 546 19.2 546.8 18.3 547.8 17.7 C 548.9 17 550.2 16.6 551.9 16.6 C 553.3 16.6 554.6 16.9 555.7 17.5 C 556.8 18.2 557.7 19.1 558.3 20.3 C 558.9 21.5 559.2 23 559.2 24.9 C 559.25 24.89 559.2 38.8 559.2 38.8 L 555.9 38.8 C 555.9 38.8 555.9 25.11 555.9 25.1 C 555.9 23.4 555.5 22.1 554.6 21.1 C 553.7 20.1 552.5 19.7 550.9 19.7 C 549.8 19.7 548.9 19.9 548 20.4 C 547.2 20.8 546.5 21.5 546.1 22.4 C 545.6 23.3 545.3 24.4 545.3 25.6 Z M 571.2 39.3 C 569.8 39.3 568.6 39 567.5 38.5 C 566.3 37.9 565.4 37.2 564.8 36.2 C 564.1 35.2 563.8 34 563.8 32.6 C 563.8 31.3 564 30.3 564.5 29.5 C 565 28.7 565.7 28.1 566.5 27.7 C 567.3 27.2 568.2 26.9 569.2 26.7 C 570.2 26.4 571.2 26.3 572.3 26.1 C 573.6 26 574.7 25.8 575.5 25.7 C 576.3 25.7 576.9 25.5 577.3 25.3 C 577.7 25.1 577.9 24.7 577.9 24.1 C 577.9 24.1 577.9 24 577.9 24 C 577.9 22.6 577.5 21.5 576.7 20.8 C 576 20 574.8 19.6 573.3 19.6 C 571.7 19.6 570.4 20 569.5 20.7 C 568.6 21.4 568 22.1 567.6 22.9 C 567.6 22.9 564.4 21.8 564.4 21.8 C 565 20.4 565.7 19.4 566.7 18.7 C 567.6 17.9 568.7 17.4 569.8 17.1 C 570.9 16.8 572.1 16.6 573.2 16.6 C 573.9 16.6 574.7 16.7 575.6 16.9 C 576.5 17.1 577.4 17.4 578.2 17.9 C 579.1 18.4 579.8 19.2 580.4 20.2 C 580.9 21.3 581.2 22.6 581.2 24.4 C 581.23 24.38 581.2 38.8 581.2 38.8 L 577.9 38.8 L 577.9 35.8 C 577.9 35.8 577.71 35.8 577.7 35.8 C 577.5 36.3 577.1 36.8 576.6 37.3 C 576 37.9 575.3 38.3 574.5 38.7 C 573.6 39.1 572.5 39.3 571.2 39.3 Z M 571.7 36.3 C 573.1 36.3 574.2 36 575.1 35.5 C 576 34.9 576.7 34.3 577.2 33.5 C 577.6 32.6 577.9 31.8 577.9 30.9 C 577.9 30.9 577.9 27.8 577.9 27.8 C 577.7 28 577.4 28.1 576.9 28.2 C 576.5 28.4 575.9 28.5 575.3 28.6 C 574.7 28.7 574.1 28.8 573.5 28.9 C 572.9 28.9 572.4 29 572.1 29 C 571.2 29.1 570.4 29.3 569.6 29.6 C 568.9 29.8 568.3 30.2 567.8 30.7 C 567.4 31.2 567.1 31.9 567.1 32.7 C 567.1 33.9 567.6 34.8 568.4 35.4 C 569.3 36 570.4 36.3 571.7 36.3 Z M 587 38.8 L 587 16.9 L 590.2 16.9 L 590.2 20.2 C 590.2 20.2 590.46 20.23 590.5 20.2 C 590.9 19.1 591.6 18.3 592.6 17.6 C 593.7 16.9 594.8 16.6 596.1 16.6 C 596.4 16.6 596.7 16.6 597.1 16.6 C 597.4 16.6 597.7 16.6 597.9 16.6 C 597.9 16.6 597.9 20.1 597.9 20.1 C 597.8 20 597.5 20 597.1 19.9 C 596.7 19.9 596.3 19.8 595.9 19.8 C 594.8 19.8 593.8 20 593 20.5 C 592.2 20.9 591.5 21.5 591.1 22.3 C 590.6 23.1 590.3 24 590.3 24.9 C 590.34 24.94 590.3 38.8 590.3 38.8 L 587 38.8 Z M 601.6 38.8 L 601.6 16.9 L 604.9 16.9 L 604.9 38.8 L 601.6 38.8 Z M 603.3 13.3 C 602.6 13.3 602 13.1 601.6 12.6 C 601.1 12.2 600.9 11.6 600.9 11 C 600.9 10.4 601.1 9.9 601.6 9.4 C 602 9 602.6 8.8 603.3 8.8 C 603.9 8.8 604.5 9 604.9 9.4 C 605.4 9.9 605.6 10.4 605.6 11 C 605.6 11.6 605.4 12.2 604.9 12.6 C 604.5 13.1 603.9 13.3 603.3 13.3 Z M 619.5 39.2 C 617.5 39.2 615.8 38.7 614.3 37.8 C 612.8 36.9 611.6 35.5 610.8 33.9 C 610 32.2 609.6 30.2 609.6 28 C 609.6 25.7 610 23.7 610.8 22 C 611.6 20.3 612.8 19 614.3 18.1 C 615.8 17.1 617.5 16.6 619.5 16.6 C 621.4 16.6 623.1 17.1 624.6 18.1 C 626.1 19 627.3 20.3 628.1 22 C 628.9 23.7 629.3 25.7 629.3 28 C 629.3 30.2 628.9 32.2 628.1 33.9 C 627.3 35.5 626.1 36.9 624.6 37.8 C 623.1 38.7 621.4 39.2 619.5 39.2 Z M 619.5 36.2 C 620.9 36.2 622.2 35.8 623.1 35 C 624.1 34.3 624.8 33.3 625.3 32 C 625.8 30.8 626 29.4 626 28 C 626 26.5 625.8 25.1 625.3 23.9 C 624.8 22.6 624.1 21.6 623.1 20.8 C 622.2 20 620.9 19.7 619.5 19.7 C 618 19.7 616.7 20 615.8 20.8 C 614.8 21.6 614.1 22.6 613.6 23.9 C 613.2 25.1 612.9 26.5 612.9 28 C 612.9 29.4 613.2 30.8 613.6 32 C 614.1 33.3 614.8 34.3 615.8 35 C 616.7 35.8 618 36.2 619.5 36.2 Z M 645.7 46.9 L 645.7 16.9 L 648.9 16.9 L 648.9 20.4 C 648.9 20.4 649.34 20.4 649.3 20.4 C 649.6 20 649.9 19.5 650.4 18.9 C 650.8 18.4 651.4 17.8 652.3 17.4 C 653.1 16.9 654.2 16.6 655.6 16.6 C 657.5 16.6 659.1 17.1 660.5 18 C 661.9 18.9 663 20.2 663.8 21.9 C 664.6 23.6 665 25.6 665 27.9 C 665 30.2 664.6 32.2 663.8 33.9 C 663 35.6 661.9 36.9 660.5 37.8 C 659.1 38.7 657.5 39.2 655.7 39.2 C 654.3 39.2 653.2 39 652.3 38.5 C 651.5 38 650.8 37.5 650.4 36.9 C 649.9 36.3 649.6 35.8 649.3 35.4 C 649.34 35.4 649.1 35.4 649.1 35.4 L 649.1 46.9 L 645.7 46.9 Z M 649 27.8 C 649 29.5 649.2 30.9 649.7 32.2 C 650.2 33.4 650.9 34.4 651.8 35.1 C 652.8 35.8 653.9 36.2 655.2 36.2 C 656.6 36.2 657.8 35.8 658.8 35.1 C 659.7 34.3 660.4 33.3 660.9 32.1 C 661.4 30.8 661.6 29.4 661.6 27.8 C 661.6 26.3 661.4 24.9 660.9 23.7 C 660.4 22.5 659.7 21.5 658.8 20.7 C 657.8 20 656.7 19.7 655.2 19.7 C 653.9 19.7 652.7 20 651.8 20.7 C 650.9 21.4 650.2 22.3 649.7 23.6 C 649.2 24.8 649 26.2 649 27.8 Z M 673.1 9.7 L 673.1 38.8 L 669.8 38.8 L 669.8 9.7 L 673.1 9.7 Z M 685.3 39.3 C 683.9 39.3 682.7 39 681.5 38.5 C 680.4 37.9 679.5 37.2 678.9 36.2 C 678.2 35.2 677.9 34 677.9 32.6 C 677.9 31.3 678.1 30.3 678.6 29.5 C 679.1 28.7 679.8 28.1 680.6 27.7 C 681.4 27.2 682.3 26.9 683.3 26.7 C 684.3 26.4 685.3 26.3 686.3 26.1 C 687.7 26 688.7 25.8 689.6 25.7 C 690.4 25.7 691 25.5 691.4 25.3 C 691.8 25.1 692 24.7 692 24.1 C 692 24.1 692 24 692 24 C 692 22.6 691.6 21.5 690.8 20.8 C 690.1 20 688.9 19.6 687.4 19.6 C 685.8 19.6 684.5 20 683.6 20.7 C 682.7 21.4 682 22.1 681.7 22.9 C 681.7 22.9 678.5 21.8 678.5 21.8 C 679.1 20.4 679.8 19.4 680.8 18.7 C 681.7 17.9 682.8 17.4 683.9 17.1 C 685 16.8 686.1 16.6 687.2 16.6 C 687.9 16.6 688.7 16.7 689.7 16.9 C 690.6 17.1 691.5 17.4 692.3 17.9 C 693.2 18.4 693.9 19.2 694.5 20.2 C 695 21.3 695.3 22.6 695.3 24.4 C 695.31 24.38 695.3 38.8 695.3 38.8 L 692 38.8 L 692 35.8 C 692 35.8 691.79 35.8 691.8 35.8 C 691.6 36.3 691.2 36.8 690.7 37.3 C 690.1 37.9 689.4 38.3 688.5 38.7 C 687.7 39.1 686.6 39.3 685.3 39.3 Z M 685.8 36.3 C 687.1 36.3 688.3 36 689.2 35.5 C 690.1 34.9 690.8 34.3 691.3 33.5 C 691.7 32.6 692 31.8 692 30.9 C 692 30.9 692 27.8 692 27.8 C 691.8 28 691.5 28.1 691 28.2 C 690.5 28.4 690 28.5 689.4 28.6 C 688.8 28.7 688.2 28.8 687.6 28.9 C 687 28.9 686.5 29 686.2 29 C 685.3 29.1 684.5 29.3 683.7 29.6 C 683 29.8 682.4 30.2 681.9 30.7 C 681.4 31.2 681.2 31.9 681.2 32.7 C 681.2 33.9 681.7 34.8 682.5 35.4 C 683.4 36 684.5 36.3 685.8 36.3 Z M 704.4 25.6 C 704.42 25.63 704.4 38.8 704.4 38.8 L 701.1 38.8 L 701.1 16.9 L 704.3 16.9 L 704.3 20.3 C 704.3 20.3 704.59 20.34 704.6 20.3 C 705.1 19.2 705.9 18.3 706.9 17.7 C 708 17 709.3 16.6 711 16.6 C 712.4 16.6 713.7 16.9 714.8 17.5 C 715.9 18.2 716.8 19.1 717.4 20.3 C 718 21.5 718.3 23 718.3 24.9 C 718.34 24.89 718.3 38.8 718.3 38.8 L 715 38.8 C 715 38.8 714.99 25.11 715 25.1 C 715 23.4 714.5 22.1 713.7 21.1 C 712.8 20.1 711.5 19.7 710 19.7 C 708.9 19.7 708 19.9 707.1 20.4 C 706.3 20.8 705.6 21.5 705.1 22.4 C 704.7 23.3 704.4 24.4 704.4 25.6 Z M 727.5 25.6 C 727.45 25.63 727.5 38.8 727.5 38.8 L 724.1 38.8 L 724.1 16.9 L 727.3 16.9 L 727.3 20.3 C 727.3 20.3 727.62 20.34 727.6 20.3 C 728.1 19.2 728.9 18.3 730 17.7 C 731 17 732.3 16.6 734 16.6 C 735.5 16.6 736.8 16.9 737.9 17.5 C 739 18.2 739.8 19.1 740.4 20.3 C 741.1 21.5 741.4 23 741.4 24.9 C 741.37 24.89 741.4 38.8 741.4 38.8 L 738 38.8 C 738 38.8 738.02 25.11 738 25.1 C 738 23.4 737.6 22.1 736.7 21.1 C 735.8 20.1 734.6 19.7 733 19.7 C 731.9 19.7 731 19.9 730.2 20.4 C 729.3 20.8 728.7 21.5 728.2 22.4 C 727.7 23.3 727.5 24.4 727.5 25.6 Z M 747 38.8 L 747 16.9 L 750.4 16.9 L 750.4 38.8 L 747 38.8 Z M 748.8 13.3 C 748.1 13.3 747.5 13.1 747.1 12.6 C 746.6 12.2 746.4 11.6 746.4 11 C 746.4 10.4 746.6 9.9 747.1 9.4 C 747.5 9 748.1 8.8 748.8 8.8 C 749.4 8.8 750 9 750.4 9.4 C 750.9 9.9 751.1 10.4 751.1 11 C 751.1 11.6 750.9 12.2 750.4 12.6 C 750 13.1 749.4 13.3 748.8 13.3 Z M 759.6 25.6 C 759.56 25.63 759.6 38.8 759.6 38.8 L 756.2 38.8 L 756.2 16.9 L 759.5 16.9 L 759.5 20.3 C 759.5 20.3 759.74 20.34 759.7 20.3 C 760.2 19.2 761 18.3 762.1 17.7 C 763.1 17 764.5 16.6 766.1 16.6 C 767.6 16.6 768.9 16.9 770 17.5 C 771.1 18.2 771.9 19.1 772.6 20.3 C 773.2 21.5 773.5 23 773.5 24.9 C 773.49 24.89 773.5 38.8 773.5 38.8 L 770.1 38.8 C 770.1 38.8 770.13 25.11 770.1 25.1 C 770.1 23.4 769.7 22.1 768.8 21.1 C 767.9 20.1 766.7 19.7 765.1 19.7 C 764.1 19.7 763.1 19.9 762.3 20.4 C 761.4 20.8 760.8 21.5 760.3 22.4 C 759.8 23.3 759.6 24.4 759.6 25.6 Z M 787.9 47.4 C 786.3 47.4 784.9 47.2 783.8 46.8 C 782.6 46.4 781.6 45.8 780.8 45.1 C 780.1 44.5 779.5 43.8 779 43 C 779 43 781.7 41.1 781.7 41.1 C 782 41.5 782.4 42 782.8 42.5 C 783.3 43 783.9 43.5 784.7 43.9 C 785.5 44.2 786.6 44.4 787.9 44.4 C 789.7 44.4 791.1 44 792.3 43.2 C 793.4 42.3 794 41 794 39.1 C 794.01 39.15 794 34.7 794 34.7 C 794 34.7 793.72 34.72 793.7 34.7 C 793.5 35.1 793.1 35.6 792.7 36.2 C 792.2 36.8 791.6 37.3 790.7 37.7 C 789.9 38.2 788.8 38.4 787.4 38.4 C 785.6 38.4 784 38 782.6 37.2 C 781.2 36.3 780.1 35.1 779.3 33.5 C 778.5 31.9 778.1 30 778.1 27.7 C 778.1 25.5 778.5 23.5 779.3 21.9 C 780.1 20.2 781.2 18.9 782.6 18 C 784 17.1 785.6 16.6 787.4 16.6 C 788.8 16.6 790 16.9 790.8 17.4 C 791.6 17.8 792.3 18.4 792.7 18.9 C 793.2 19.5 793.5 20 793.8 20.4 C 793.78 20.4 794.1 20.4 794.1 20.4 L 794.1 16.9 L 797.4 16.9 C 797.4 16.9 797.36 39.38 797.4 39.4 C 797.4 41.3 796.9 42.8 796.1 44 C 795.2 45.1 794.1 46 792.7 46.6 C 791.3 47.1 789.7 47.4 787.9 47.4 Z M 787.8 35.4 C 789.2 35.4 790.3 35.1 791.2 34.5 C 792.2 33.9 792.9 33 793.3 31.8 C 793.8 30.7 794.1 29.3 794.1 27.7 C 794.1 26.1 793.8 24.7 793.4 23.5 C 792.9 22.3 792.2 21.4 791.3 20.7 C 790.3 20 789.2 19.7 787.8 19.7 C 786.4 19.7 785.2 20 784.3 20.7 C 783.3 21.5 782.6 22.4 782.2 23.6 C 781.7 24.8 781.5 26.2 781.5 27.7 C 781.5 29.2 781.7 30.5 782.2 31.7 C 782.6 32.8 783.4 33.8 784.3 34.4 C 785.2 35.1 786.4 35.4 787.8 35.4 Z M 821.2 39.3 C 819.8 39.3 818.5 39 817.4 38.5 C 816.3 37.9 815.4 37.2 814.7 36.2 C 814.1 35.2 813.7 34 813.7 32.6 C 813.7 31.3 814 30.3 814.5 29.5 C 815 28.7 815.6 28.1 816.4 27.7 C 817.3 27.2 818.2 26.9 819.2 26.7 C 820.2 26.4 821.2 26.3 822.2 26.1 C 823.5 26 824.6 25.8 825.4 25.7 C 826.2 25.7 826.9 25.5 827.2 25.3 C 827.6 25.1 827.8 24.7 827.8 24.1 C 827.8 24.1 827.8 24 827.8 24 C 827.8 22.6 827.4 21.5 826.7 20.8 C 825.9 20 824.8 19.6 823.2 19.6 C 821.6 19.6 820.4 20 819.4 20.7 C 818.5 21.4 817.9 22.1 817.5 22.9 C 817.5 22.9 814.3 21.8 814.3 21.8 C 814.9 20.4 815.7 19.4 816.6 18.7 C 817.6 17.9 818.6 17.4 819.8 17.1 C 820.9 16.8 822 16.6 823.1 16.6 C 823.8 16.6 824.6 16.7 825.5 16.9 C 826.4 17.1 827.3 17.4 828.2 17.9 C 829 18.4 829.7 19.2 830.3 20.2 C 830.9 21.3 831.2 22.6 831.2 24.4 C 831.17 24.38 831.2 38.8 831.2 38.8 L 827.8 38.8 L 827.8 35.8 C 827.8 35.8 827.64 35.8 827.6 35.8 C 827.4 36.3 827 36.8 826.5 37.3 C 826 37.9 825.3 38.3 824.4 38.7 C 823.5 39.1 822.4 39.3 821.2 39.3 Z M 821.7 36.3 C 823 36.3 824.1 36 825 35.5 C 826 34.9 826.6 34.3 827.1 33.5 C 827.6 32.6 827.8 31.8 827.8 30.9 C 827.8 30.9 827.8 27.8 827.8 27.8 C 827.7 28 827.4 28.1 826.9 28.2 C 826.4 28.4 825.9 28.5 825.2 28.6 C 824.6 28.7 824 28.8 823.4 28.9 C 822.9 28.9 822.4 29 822 29 C 821.1 29.1 820.3 29.3 819.6 29.6 C 818.8 29.8 818.2 30.2 817.8 30.7 C 817.3 31.2 817.1 31.9 817.1 32.7 C 817.1 33.9 817.5 34.8 818.4 35.4 C 819.2 36 820.3 36.3 821.7 36.3 Z M 840.3 25.6 C 840.28 25.63 840.3 38.8 840.3 38.8 L 836.9 38.8 L 836.9 16.9 L 840.2 16.9 L 840.2 20.3 C 840.2 20.3 840.45 20.34 840.4 20.3 C 841 19.2 841.7 18.3 842.8 17.7 C 843.8 17 845.2 16.6 846.8 16.6 C 848.3 16.6 849.6 16.9 850.7 17.5 C 851.8 18.2 852.7 19.1 853.3 20.3 C 853.9 21.5 854.2 23 854.2 24.9 C 854.2 24.89 854.2 38.8 854.2 38.8 L 850.8 38.8 C 850.8 38.8 850.85 25.11 850.8 25.1 C 850.8 23.4 850.4 22.1 849.5 21.1 C 848.6 20.1 847.4 19.7 845.8 19.7 C 844.8 19.7 843.8 19.9 843 20.4 C 842.1 20.8 841.5 21.5 841 22.4 C 840.5 23.3 840.3 24.4 840.3 25.6 Z M 868.2 39.2 C 866.3 39.2 864.7 38.7 863.3 37.8 C 861.9 36.9 860.9 35.6 860.1 33.9 C 859.3 32.2 858.9 30.2 858.9 27.9 C 858.9 25.6 859.3 23.6 860.1 21.9 C 860.9 20.2 861.9 18.9 863.3 18 C 864.8 17.1 866.4 16.6 868.2 16.6 C 869.6 16.6 870.8 16.9 871.6 17.4 C 872.4 17.8 873 18.4 873.5 18.9 C 873.9 19.5 874.3 20 874.5 20.4 C 874.51 20.4 874.8 20.4 874.8 20.4 L 874.8 9.7 L 878.2 9.7 L 878.2 38.8 L 874.9 38.8 L 874.9 35.4 C 874.9 35.4 874.51 35.4 874.5 35.4 C 874.3 35.8 873.9 36.3 873.5 36.9 C 873 37.5 872.4 38 871.5 38.5 C 870.7 39 869.6 39.2 868.2 39.2 Z M 868.6 36.2 C 869.9 36.2 871.1 35.8 872 35.1 C 872.9 34.4 873.6 33.4 874.1 32.2 C 874.6 30.9 874.9 29.5 874.9 27.8 C 874.9 26.2 874.6 24.8 874.1 23.6 C 873.7 22.3 873 21.4 872 20.7 C 871.1 20 870 19.7 868.6 19.7 C 867.2 19.7 866 20 865.1 20.7 C 864.1 21.5 863.4 22.5 862.9 23.7 C 862.5 24.9 862.2 26.3 862.2 27.8 C 862.2 29.4 862.5 30.8 863 32.1 C 863.4 33.3 864.1 34.3 865.1 35.1 C 866 35.8 867.2 36.2 868.6 36.2 Z " stroke="none" fill="#10283d"/>  </g></svg>