<?xml version="1.0" standalone="no"?><!DOCTYPE svg PUBLIC "-//W3C//DTD SVG 1.1//EN" "http://www.w3.org/Graphics/SVG/1.1/DTD/svg11.dtd"><svg xmlns="http://www.w3.org/2000/svg" version="1.1" width="538.5px" height="73.4px" viewBox="0 -17 538.5 73.4" style="top:-17px">  <desc>Promise vs. functionality ￼</desc>  <defs/>  <g id="Polygon113540">    <path d="M 2.7 31.3 L 2.7 0 C 2.7 0 15.06 0 15.1 0 C 17.4 0 19.4 0.5 21.1 1.4 C 22.8 2.3 24.1 3.5 24.9 5.1 C 25.8 6.7 26.3 8.5 26.3 10.6 C 26.3 12.7 25.8 14.5 24.9 16.1 C 24 17.7 22.7 18.9 21 19.8 C 19.3 20.7 17.3 21.1 14.9 21.1 C 14.89 21.13 7 21.1 7 21.1 L 7 15.8 C 7 15.8 13.82 15.83 13.8 15.8 C 15.1 15.8 16.1 15.6 17 15.2 C 17.8 14.7 18.4 14.1 18.8 13.3 C 19.2 12.5 19.5 11.6 19.5 10.6 C 19.5 9.6 19.2 8.7 18.8 7.9 C 18.4 7.1 17.8 6.5 17 6.1 C 16.1 5.6 15.1 5.4 13.8 5.4 C 13.79 5.41 9.3 5.4 9.3 5.4 L 9.3 31.3 L 2.7 31.3 Z M 29.8 31.3 L 29.8 7.8 L 36.1 7.8 L 36.1 11.9 C 36.1 11.9 36.36 11.91 36.4 11.9 C 36.8 10.5 37.5 9.4 38.5 8.6 C 39.5 7.9 40.7 7.5 42 7.5 C 42.3 7.5 42.7 7.5 43.1 7.5 C 43.4 7.6 43.8 7.6 44 7.7 C 44 7.7 44 13.5 44 13.5 C 43.7 13.4 43.3 13.3 42.8 13.2 C 42.2 13.2 41.7 13.1 41.3 13.1 C 40.3 13.1 39.5 13.3 38.7 13.8 C 38 14.2 37.4 14.7 37 15.5 C 36.5 16.2 36.3 17 36.3 18 C 36.32 18 36.3 31.3 36.3 31.3 L 29.8 31.3 Z M 57.5 31.7 C 55.1 31.7 53.1 31.2 51.4 30.2 C 49.6 29.2 48.3 27.8 47.4 26 C 46.4 24.1 46 22 46 19.6 C 46 17.2 46.4 15.1 47.4 13.3 C 48.3 11.5 49.6 10 51.4 9 C 53.1 8 55.1 7.5 57.5 7.5 C 59.9 7.5 61.9 8 63.7 9 C 65.4 10 66.7 11.5 67.7 13.3 C 68.6 15.1 69.1 17.2 69.1 19.6 C 69.1 22 68.6 24.1 67.7 26 C 66.7 27.8 65.4 29.2 63.7 30.2 C 61.9 31.2 59.9 31.7 57.5 31.7 Z M 57.5 26.7 C 58.6 26.7 59.5 26.4 60.2 25.8 C 61 25.2 61.5 24.3 61.9 23.2 C 62.3 22.2 62.4 21 62.4 19.6 C 62.4 18.2 62.3 17 61.9 15.9 C 61.5 14.9 61 14 60.2 13.4 C 59.5 12.8 58.6 12.5 57.5 12.5 C 56.5 12.5 55.5 12.8 54.8 13.4 C 54.1 14 53.5 14.9 53.1 15.9 C 52.8 17 52.6 18.2 52.6 19.6 C 52.6 21 52.8 22.2 53.1 23.2 C 53.5 24.3 54.1 25.2 54.8 25.8 C 55.5 26.4 56.5 26.7 57.5 26.7 Z M 73 31.3 L 73 7.8 L 79.2 7.8 L 79.2 12 C 79.2 12 79.52 11.96 79.5 12 C 80 10.6 80.8 9.5 82 8.7 C 83.1 7.9 84.5 7.5 86.1 7.5 C 87.7 7.5 89 7.9 90.2 8.7 C 91.3 9.5 92 10.6 92.4 12 C 92.4 12 92.7 12 92.7 12 C 93.1 10.6 94 9.5 95.3 8.7 C 96.5 7.9 98 7.5 99.7 7.5 C 101.9 7.5 103.7 8.2 105.1 9.6 C 106.4 11 107.1 13 107.1 15.5 C 107.13 15.5 107.1 31.3 107.1 31.3 L 100.6 31.3 C 100.6 31.3 100.64 16.78 100.6 16.8 C 100.6 15.5 100.3 14.5 99.6 13.8 C 98.9 13.2 98 12.9 97 12.9 C 95.8 12.9 94.9 13.2 94.2 14 C 93.6 14.7 93.2 15.7 93.2 16.9 C 93.25 16.95 93.2 31.3 93.2 31.3 L 86.9 31.3 C 86.9 31.3 86.94 16.64 86.9 16.6 C 86.9 15.5 86.6 14.6 86 13.9 C 85.3 13.2 84.4 12.9 83.4 12.9 C 82.6 12.9 82 13.1 81.4 13.4 C 80.8 13.8 80.4 14.3 80.1 14.9 C 79.7 15.6 79.6 16.3 79.6 17.2 C 79.55 17.19 79.6 31.3 79.6 31.3 L 73 31.3 Z M 112.1 31.3 L 112.1 7.8 L 118.6 7.8 L 118.6 31.3 L 112.1 31.3 Z M 115.4 4.8 C 114.4 4.8 113.6 4.5 112.9 3.8 C 112.2 3.2 111.8 2.4 111.8 1.5 C 111.8 0.6 112.2 -0.2 112.9 -0.8 C 113.6 -1.5 114.4 -1.8 115.4 -1.8 C 116.3 -1.8 117.1 -1.5 117.8 -0.8 C 118.5 -0.2 118.9 0.6 118.9 1.5 C 118.9 2.4 118.5 3.2 117.8 3.8 C 117.1 4.5 116.3 4.8 115.4 4.8 Z M 143 14.5 C 143 14.5 137 14.9 137 14.9 C 136.9 14.4 136.7 13.9 136.4 13.5 C 136 13.1 135.6 12.7 135.1 12.5 C 134.5 12.2 133.9 12.1 133.1 12.1 C 132.1 12.1 131.3 12.3 130.6 12.8 C 129.9 13.2 129.5 13.7 129.5 14.4 C 129.5 15 129.7 15.5 130.2 15.9 C 130.6 16.3 131.4 16.6 132.5 16.8 C 132.5 16.8 136.7 17.7 136.7 17.7 C 139 18.1 140.7 18.9 141.8 19.9 C 143 21 143.5 22.3 143.5 24 C 143.5 25.5 143.1 26.9 142.2 28.1 C 141.3 29.2 140 30.1 138.5 30.8 C 136.9 31.4 135.1 31.7 133.1 31.7 C 130 31.7 127.5 31.1 125.7 29.8 C 123.8 28.5 122.8 26.7 122.4 24.5 C 122.4 24.5 128.8 24.1 128.8 24.1 C 129 25.1 129.5 25.8 130.2 26.3 C 131 26.8 131.9 27 133.1 27 C 134.2 27 135.2 26.8 135.8 26.4 C 136.5 25.9 136.9 25.4 136.9 24.7 C 136.9 24.1 136.7 23.6 136.2 23.2 C 135.7 22.8 134.9 22.5 133.9 22.3 C 133.9 22.3 129.8 21.5 129.8 21.5 C 127.6 21.1 125.8 20.3 124.7 19.1 C 123.6 18 123.1 16.6 123.1 14.8 C 123.1 13.3 123.5 12 124.3 10.9 C 125.1 9.8 126.3 9 127.8 8.4 C 129.2 7.8 131 7.5 133 7.5 C 136 7.5 138.3 8.1 140 9.4 C 141.7 10.6 142.7 12.3 143 14.5 Z M 157.9 31.7 C 155.5 31.7 153.4 31.2 151.6 30.3 C 149.9 29.3 148.6 27.9 147.6 26.1 C 146.7 24.3 146.2 22.1 146.2 19.7 C 146.2 17.2 146.7 15.1 147.6 13.3 C 148.6 11.5 149.9 10.1 151.6 9 C 153.3 8 155.3 7.5 157.6 7.5 C 159.2 7.5 160.6 7.8 161.9 8.3 C 163.3 8.7 164.4 9.5 165.4 10.5 C 166.5 11.5 167.2 12.7 167.8 14.2 C 168.4 15.7 168.6 17.4 168.6 19.4 C 168.63 19.42 168.6 21.2 168.6 21.2 L 148.8 21.2 L 148.8 17.2 C 148.8 17.2 162.51 17.18 162.5 17.2 C 162.5 16.2 162.3 15.4 161.9 14.7 C 161.5 14 160.9 13.4 160.2 13 C 159.5 12.6 158.7 12.4 157.7 12.4 C 156.7 12.4 155.9 12.6 155.1 13 C 154.3 13.5 153.7 14.1 153.3 14.9 C 152.9 15.6 152.7 16.5 152.7 17.4 C 152.7 17.4 152.7 21.2 152.7 21.2 C 152.7 22.4 152.9 23.4 153.3 24.2 C 153.7 25.1 154.4 25.7 155.1 26.2 C 155.9 26.6 156.9 26.9 158 26.9 C 158.7 26.9 159.4 26.8 160 26.6 C 160.6 26.4 161.1 26.1 161.5 25.7 C 161.9 25.2 162.3 24.7 162.5 24.2 C 162.5 24.2 168.5 24.6 168.5 24.6 C 168.2 26 167.6 27.3 166.6 28.3 C 165.7 29.4 164.5 30.2 163 30.8 C 161.5 31.4 159.8 31.7 157.9 31.7 Z M 204.7 7.8 L 196.5 31.3 L 189.2 31.3 L 181 7.8 L 187.9 7.8 L 192.7 24.6 L 193 24.6 L 197.8 7.8 L 204.7 7.8 Z M 226.5 14.5 C 226.5 14.5 220.5 14.9 220.5 14.9 C 220.4 14.4 220.2 13.9 219.9 13.5 C 219.5 13.1 219.1 12.7 218.5 12.5 C 218 12.2 217.3 12.1 216.6 12.1 C 215.6 12.1 214.7 12.3 214 12.8 C 213.3 13.2 213 13.7 213 14.4 C 213 15 213.2 15.5 213.7 15.9 C 214.1 16.3 214.9 16.6 216 16.8 C 216 16.8 220.2 17.7 220.2 17.7 C 222.5 18.1 224.2 18.9 225.3 19.9 C 226.4 21 227 22.3 227 24 C 227 25.5 226.6 26.9 225.6 28.1 C 224.7 29.2 223.5 30.1 222 30.8 C 220.4 31.4 218.6 31.7 216.6 31.7 C 213.5 31.7 211 31.1 209.1 29.8 C 207.3 28.5 206.2 26.7 205.9 24.5 C 205.9 24.5 212.3 24.1 212.3 24.1 C 212.5 25.1 213 25.8 213.7 26.3 C 214.5 26.8 215.4 27 216.6 27 C 217.7 27 218.6 26.8 219.3 26.4 C 220 25.9 220.4 25.4 220.4 24.7 C 220.4 24.1 220.1 23.6 219.6 23.2 C 219.2 22.8 218.4 22.5 217.4 22.3 C 217.4 22.3 213.3 21.5 213.3 21.5 C 211 21.1 209.3 20.3 208.2 19.1 C 207.1 18 206.5 16.6 206.5 14.8 C 206.5 13.3 206.9 12 207.8 10.9 C 208.6 9.8 209.7 9 211.2 8.4 C 212.7 7.8 214.5 7.5 216.5 7.5 C 219.4 7.5 221.8 8.1 223.5 9.4 C 225.2 10.6 226.2 12.3 226.5 14.5 Z M 234.6 31.7 C 233.6 31.7 232.7 31.3 232 30.6 C 231.3 29.9 230.9 29 230.9 28 C 230.9 27 231.3 26.2 232 25.4 C 232.7 24.7 233.6 24.4 234.6 24.4 C 235.5 24.4 236.4 24.7 237.1 25.4 C 237.9 26.2 238.2 27 238.2 28 C 238.2 28.7 238.1 29.3 237.7 29.8 C 237.4 30.4 236.9 30.8 236.4 31.2 C 235.8 31.5 235.2 31.7 234.6 31.7 Z M 266.1 7.8 L 266.1 12.7 L 251.7 12.7 L 251.7 7.8 L 266.1 7.8 Z M 255 31.3 C 255 31.3 254.97 6.12 255 6.1 C 255 4.4 255.3 3 256 1.9 C 256.6 0.8 257.6 -0.1 258.7 -0.6 C 259.9 -1.2 261.2 -1.5 262.7 -1.5 C 263.7 -1.5 264.6 -1.4 265.4 -1.2 C 266.2 -1.1 266.9 -0.9 267.3 -0.8 C 267.3 -0.8 266.1 4.1 266.1 4.1 C 265.9 4 265.5 3.9 265.2 3.8 C 264.8 3.8 264.4 3.7 264 3.7 C 263.1 3.7 262.4 3.9 262 4.4 C 261.7 4.8 261.5 5.5 261.5 6.2 C 261.46 6.25 261.5 31.3 261.5 31.3 L 255 31.3 Z M 284.4 21.3 C 284.38 21.29 284.4 7.8 284.4 7.8 L 290.9 7.8 L 290.9 31.3 L 284.6 31.3 L 284.6 27 C 284.6 27 284.39 27.01 284.4 27 C 283.9 28.4 283 29.5 281.8 30.3 C 280.5 31.2 279 31.6 277.3 31.6 C 275.7 31.6 274.3 31.2 273.1 30.5 C 271.9 29.8 271 28.8 270.4 27.5 C 269.7 26.2 269.3 24.6 269.3 22.8 C 269.34 22.75 269.3 7.8 269.3 7.8 L 275.8 7.8 C 275.8 7.8 275.84 21.59 275.8 21.6 C 275.9 23 276.2 24.1 277 24.9 C 277.7 25.7 278.7 26.1 279.9 26.1 C 280.7 26.1 281.4 25.9 282.1 25.5 C 282.8 25.2 283.3 24.6 283.8 23.9 C 284.2 23.2 284.4 22.3 284.4 21.3 Z M 302.5 17.7 C 302.48 17.71 302.5 31.3 302.5 31.3 L 296 31.3 L 296 7.8 L 302.2 7.8 L 302.2 12 C 302.2 12 302.45 11.96 302.4 12 C 303 10.6 303.8 9.5 305.1 8.7 C 306.3 7.9 307.8 7.5 309.5 7.5 C 311.1 7.5 312.6 7.9 313.8 8.6 C 315 9.3 315.9 10.3 316.6 11.6 C 317.3 12.9 317.6 14.5 317.6 16.3 C 317.6 16.34 317.6 31.3 317.6 31.3 L 311.1 31.3 C 311.1 31.3 311.09 17.5 311.1 17.5 C 311.1 16.1 310.7 14.9 310 14.1 C 309.2 13.3 308.2 12.9 306.9 12.9 C 306 12.9 305.3 13.1 304.6 13.5 C 303.9 13.9 303.4 14.4 303.1 15.1 C 302.7 15.8 302.5 16.7 302.5 17.7 Z M 333 31.7 C 330.6 31.7 328.6 31.2 326.8 30.2 C 325.1 29.2 323.8 27.8 322.9 25.9 C 321.9 24.1 321.5 22 321.5 19.6 C 321.5 17.2 321.9 15.1 322.9 13.3 C 323.8 11.5 325.1 10.1 326.9 9 C 328.6 8 330.6 7.5 333 7.5 C 335 7.5 336.8 7.9 338.4 8.6 C 339.9 9.4 341.1 10.4 342 11.8 C 342.9 13.1 343.4 14.7 343.5 16.5 C 343.5 16.5 337.4 16.5 337.4 16.5 C 337.2 15.3 336.7 14.4 336 13.7 C 335.3 12.9 334.3 12.6 333.1 12.6 C 332.1 12.6 331.2 12.9 330.5 13.4 C 329.7 13.9 329.1 14.7 328.7 15.8 C 328.3 16.8 328.1 18.1 328.1 19.5 C 328.1 21 328.3 22.3 328.7 23.4 C 329.1 24.4 329.7 25.2 330.5 25.8 C 331.2 26.3 332.1 26.6 333.1 26.6 C 333.8 26.6 334.5 26.4 335.1 26.1 C 335.7 25.8 336.2 25.4 336.6 24.8 C 337 24.2 337.2 23.5 337.4 22.7 C 337.4 22.7 343.5 22.7 343.5 22.7 C 343.4 24.5 342.9 26 342 27.4 C 341.2 28.8 340 29.8 338.4 30.6 C 336.9 31.3 335.1 31.7 333 31.7 Z M 359.8 7.8 L 359.8 12.7 L 345.7 12.7 L 345.7 7.8 L 359.8 7.8 Z M 348.9 2.2 L 355.4 2.2 C 355.4 2.2 355.37 24.07 355.4 24.1 C 355.4 24.7 355.5 25.1 355.6 25.5 C 355.8 25.8 356.1 26 356.4 26.2 C 356.7 26.3 357.1 26.4 357.6 26.4 C 357.9 26.4 358.2 26.3 358.5 26.3 C 358.8 26.2 359 26.2 359.2 26.1 C 359.2 26.1 360.2 31 360.2 31 C 359.9 31.1 359.4 31.2 358.8 31.3 C 358.2 31.5 357.5 31.6 356.7 31.6 C 355.1 31.7 353.7 31.4 352.6 31 C 351.4 30.5 350.5 29.7 349.8 28.7 C 349.2 27.7 348.9 26.5 348.9 24.9 C 348.86 24.92 348.9 2.2 348.9 2.2 Z M 363.7 31.3 L 363.7 7.8 L 370.2 7.8 L 370.2 31.3 L 363.7 31.3 Z M 366.9 4.8 C 366 4.8 365.2 4.5 364.5 3.8 C 363.8 3.2 363.4 2.4 363.4 1.5 C 363.4 0.6 363.8 -0.2 364.5 -0.8 C 365.2 -1.5 366 -1.8 366.9 -1.8 C 367.9 -1.8 368.7 -1.5 369.4 -0.8 C 370.1 -0.2 370.5 0.6 370.5 1.5 C 370.5 2.4 370.1 3.2 369.4 3.8 C 368.7 4.5 367.9 4.8 366.9 4.8 Z M 385.7 31.7 C 383.3 31.7 381.3 31.2 379.6 30.2 C 377.8 29.2 376.5 27.8 375.6 26 C 374.6 24.1 374.2 22 374.2 19.6 C 374.2 17.2 374.6 15.1 375.6 13.3 C 376.5 11.5 377.8 10 379.6 9 C 381.3 8 383.3 7.5 385.7 7.5 C 388.1 7.5 390.1 8 391.9 9 C 393.6 10 394.9 11.5 395.8 13.3 C 396.8 15.1 397.3 17.2 397.3 19.6 C 397.3 22 396.8 24.1 395.8 26 C 394.9 27.8 393.6 29.2 391.9 30.2 C 390.1 31.2 388.1 31.7 385.7 31.7 Z M 385.7 26.7 C 386.8 26.7 387.7 26.4 388.4 25.8 C 389.2 25.2 389.7 24.3 390.1 23.2 C 390.5 22.2 390.6 21 390.6 19.6 C 390.6 18.2 390.5 17 390.1 15.9 C 389.7 14.9 389.2 14 388.4 13.4 C 387.7 12.8 386.8 12.5 385.7 12.5 C 384.6 12.5 383.7 12.8 383 13.4 C 382.3 14 381.7 14.9 381.3 15.9 C 381 17 380.8 18.2 380.8 19.6 C 380.8 21 381 22.2 381.3 23.2 C 381.7 24.3 382.3 25.2 383 25.8 C 383.7 26.4 384.6 26.7 385.7 26.7 Z M 407.7 17.7 C 407.75 17.71 407.7 31.3 407.7 31.3 L 401.2 31.3 L 401.2 7.8 L 407.4 7.8 L 407.4 12 C 407.4 12 407.72 11.96 407.7 12 C 408.2 10.6 409.1 9.5 410.3 8.7 C 411.5 7.9 413 7.5 414.8 7.5 C 416.4 7.5 417.8 7.9 419 8.6 C 420.2 9.3 421.2 10.3 421.9 11.6 C 422.5 12.9 422.9 14.5 422.9 16.3 C 422.86 16.34 422.9 31.3 422.9 31.3 L 416.4 31.3 C 416.4 31.3 416.36 17.5 416.4 17.5 C 416.4 16.1 416 14.9 415.3 14.1 C 414.5 13.3 413.5 12.9 412.2 12.9 C 411.3 12.9 410.5 13.1 409.9 13.5 C 409.2 13.9 408.7 14.4 408.3 15.1 C 407.9 15.8 407.8 16.7 407.7 17.7 Z M 434.4 31.7 C 432.9 31.7 431.6 31.5 430.4 30.9 C 429.2 30.4 428.3 29.6 427.6 28.6 C 426.9 27.6 426.6 26.3 426.6 24.7 C 426.6 23.4 426.8 22.3 427.3 21.4 C 427.8 20.6 428.4 19.8 429.3 19.3 C 430.1 18.8 431 18.4 432.1 18.1 C 433.1 17.8 434.2 17.6 435.4 17.5 C 436.8 17.4 437.9 17.2 438.7 17.1 C 439.5 17 440.1 16.8 440.5 16.5 C 440.9 16.3 441.1 15.9 441.1 15.4 C 441.1 15.4 441.1 15.3 441.1 15.3 C 441.1 14.3 440.8 13.6 440.2 13.1 C 439.6 12.5 438.7 12.3 437.6 12.3 C 436.4 12.3 435.5 12.5 434.8 13 C 434.1 13.5 433.7 14.2 433.4 15 C 433.4 15 427.4 14.5 427.4 14.5 C 427.7 13.1 428.3 11.8 429.2 10.8 C 430.1 9.7 431.3 8.9 432.7 8.4 C 434.1 7.8 435.8 7.5 437.6 7.5 C 438.9 7.5 440.2 7.7 441.4 8 C 442.6 8.3 443.6 8.7 444.6 9.4 C 445.5 10 446.2 10.9 446.8 11.9 C 447.3 12.9 447.6 14.1 447.6 15.5 C 447.59 15.45 447.6 31.3 447.6 31.3 L 441.4 31.3 L 441.4 28 C 441.4 28 441.24 28.02 441.2 28 C 440.9 28.8 440.4 29.4 439.7 30 C 439.1 30.5 438.3 30.9 437.5 31.2 C 436.6 31.6 435.5 31.7 434.4 31.7 Z M 436.2 27.2 C 437.2 27.2 438 27 438.8 26.7 C 439.5 26.3 440.1 25.8 440.5 25.1 C 440.9 24.5 441.1 23.7 441.1 22.9 C 441.1 22.9 441.1 20.4 441.1 20.4 C 440.9 20.5 440.7 20.7 440.3 20.8 C 439.9 20.9 439.6 21 439.1 21 C 438.7 21.1 438.2 21.2 437.8 21.3 C 437.4 21.3 437 21.4 436.6 21.5 C 435.8 21.6 435.2 21.7 434.6 22 C 434 22.2 433.6 22.6 433.3 23 C 433 23.4 432.8 23.9 432.8 24.5 C 432.8 25.4 433.1 26.1 433.8 26.5 C 434.4 27 435.2 27.2 436.2 27.2 Z M 459.1 0 L 459.1 31.3 L 452.6 31.3 L 452.6 0 L 459.1 0 Z M 464.2 31.3 L 464.2 7.8 L 470.7 7.8 L 470.7 31.3 L 464.2 31.3 Z M 467.5 4.8 C 466.5 4.8 465.7 4.5 465 3.8 C 464.3 3.2 463.9 2.4 463.9 1.5 C 463.9 0.6 464.3 -0.2 465 -0.8 C 465.7 -1.5 466.5 -1.8 467.5 -1.8 C 468.4 -1.8 469.2 -1.5 469.9 -0.8 C 470.6 -0.2 471 0.6 471 1.5 C 471 2.4 470.6 3.2 469.9 3.8 C 469.2 4.5 468.4 4.8 467.5 4.8 Z M 487.9 7.8 L 487.9 12.7 L 473.7 12.7 L 473.7 7.8 L 487.9 7.8 Z M 476.9 2.2 L 483.4 2.2 C 483.4 2.2 483.44 24.07 483.4 24.1 C 483.4 24.7 483.5 25.1 483.7 25.5 C 483.9 25.8 484.2 26 484.5 26.2 C 484.8 26.3 485.2 26.4 485.6 26.4 C 485.9 26.4 486.3 26.3 486.6 26.3 C 486.9 26.2 487.1 26.2 487.3 26.1 C 487.3 26.1 488.3 31 488.3 31 C 488 31.1 487.5 31.2 486.9 31.3 C 486.3 31.5 485.6 31.6 484.8 31.6 C 483.2 31.7 481.8 31.4 480.6 31 C 479.5 30.5 478.6 29.7 477.9 28.7 C 477.2 27.7 476.9 26.5 476.9 24.9 C 476.94 24.92 476.9 2.2 476.9 2.2 Z M 496.2 40.1 C 495.3 40.1 494.6 40 493.9 39.9 C 493.1 39.7 492.6 39.6 492.1 39.4 C 492.1 39.4 493.5 34.5 493.5 34.5 C 494.3 34.8 495 34.9 495.6 34.9 C 496.2 34.9 496.8 34.8 497.2 34.5 C 497.7 34.2 498 33.7 498.3 32.9 C 498.33 32.94 498.7 31.9 498.7 31.9 L 490.3 7.8 L 497.1 7.8 L 502 25 L 502.2 25 L 507.1 7.8 L 514 7.8 C 514 7.8 504.91 33.81 504.9 33.8 C 504.5 35.1 503.9 36.2 503.1 37.1 C 502.4 38.1 501.4 38.8 500.3 39.3 C 499.2 39.8 497.8 40.1 496.2 40.1 Z " stroke="none" fill="#10283d"/>  </g>  <g id="Polygon113541">    <path d="M 526.2 29.8 L 537 18.8 L 526.2 7.8 " style="stroke-width:3pt; stroke:#ff4f00;" fill="none"/>  </g></svg>