<?xml version="1.0" standalone="no"?><!DOCTYPE svg PUBLIC "-//W3C//DTD SVG 1.1//EN" "http://www.w3.org/Graphics/SVG/1.1/DTD/svg11.dtd"><svg xmlns="http://www.w3.org/2000/svg" version="1.1" width="121px" height="25.4px" viewBox="0 -3 121 25.4" style="top:-3px">  <desc>11 / 19</desc>  <defs/>  <g id="Polygon119899">    <path d="M 44.9 3.4 L 44.9 13.6 L 43.7 13.6 L 43.7 4.7 L 43.6 4.7 L 41.2 6.3 L 41.2 5.1 L 43.7 3.4 L 44.9 3.4 Z M 50.9 3.4 L 50.9 13.6 L 49.7 13.6 L 49.7 4.7 L 49.6 4.7 L 47.1 6.3 L 47.1 5.1 L 49.7 3.4 L 50.9 3.4 Z M 61.4 2.9 L 58.1 15.1 L 57 15.1 L 60.3 2.9 L 61.4 2.9 Z M 70.3 3.4 L 70.3 13.6 L 69 13.6 L 69 4.7 L 69 4.7 L 66.5 6.3 L 66.5 5.1 L 69 3.4 L 70.3 3.4 Z M 76.1 3.2 C 76.6 3.2 77 3.3 77.4 3.5 C 77.8 3.6 78.2 3.9 78.5 4.3 C 78.9 4.6 79.2 5.1 79.4 5.7 C 79.6 6.3 79.7 7.1 79.7 8.1 C 79.7 9 79.6 9.8 79.4 10.5 C 79.3 11.2 79 11.8 78.7 12.2 C 78.4 12.7 78 13.1 77.5 13.3 C 77.1 13.6 76.6 13.7 76 13.7 C 75.4 13.7 74.9 13.6 74.5 13.4 C 74 13.1 73.6 12.8 73.4 12.4 C 73.1 12 72.9 11.5 72.8 11 C 72.8 11 74 11 74 11 C 74.1 11.5 74.4 11.8 74.7 12.2 C 75 12.5 75.4 12.6 76 12.6 C 76.8 12.6 77.4 12.3 77.8 11.6 C 78.3 10.9 78.5 9.9 78.5 8.7 C 78.5 8.7 78.4 8.7 78.4 8.7 C 78.3 8.9 78 9.2 77.8 9.4 C 77.5 9.6 77.2 9.7 76.9 9.9 C 76.6 10 76.3 10 75.9 10 C 75.4 10 74.8 9.9 74.3 9.6 C 73.9 9.3 73.5 8.9 73.2 8.4 C 72.9 7.9 72.7 7.3 72.7 6.6 C 72.7 6 72.9 5.4 73.2 4.9 C 73.4 4.4 73.8 4 74.3 3.7 C 74.9 3.4 75.5 3.2 76.1 3.2 Z M 76.1 4.3 C 75.7 4.3 75.3 4.4 75 4.6 C 74.7 4.9 74.4 5.1 74.2 5.5 C 74 5.8 73.9 6.2 73.9 6.6 C 73.9 7.1 74 7.5 74.2 7.8 C 74.4 8.1 74.7 8.4 75 8.6 C 75.3 8.8 75.7 8.9 76.1 8.9 C 76.4 8.9 76.7 8.9 77 8.7 C 77.3 8.6 77.5 8.4 77.7 8.2 C 77.9 8 78.1 7.8 78.2 7.5 C 78.3 7.2 78.3 6.9 78.3 6.6 C 78.3 6.2 78.3 5.9 78.1 5.5 C 77.9 5.2 77.6 4.9 77.3 4.7 C 76.9 4.4 76.6 4.3 76.1 4.3 Z " stroke="none" fill="#ffffff"/>  </g></svg>