<?xml version="1.0" standalone="no"?><!DOCTYPE svg PUBLIC "-//W3C//DTD SVG 1.1//EN" "http://www.w3.org/Graphics/SVG/1.1/DTD/svg11.dtd"><svg xmlns="http://www.w3.org/2000/svg" version="1.1" width="1018.2px" height="139px" viewBox="0 -11 1018.2 139" style="top:-11px">  <desc>Discerning real value</desc>  <defs/>  <g id="Polygon125264">    <path d="M 119.4 80.4 C 119.35 80.41 98 80.4 98 80.4 L 98 20 C 98 20 119.53 20.04 119.5 20 C 125.6 20 130.8 21.2 135.2 23.7 C 139.6 26.1 143 29.5 145.3 34 C 147.7 38.5 148.9 43.9 148.9 50.2 C 148.9 56.5 147.7 61.9 145.3 66.4 C 143 70.9 139.6 74.4 135.2 76.8 C 130.8 79.2 125.5 80.4 119.4 80.4 Z M 110.7 69.5 C 110.7 69.5 118.82 69.47 118.8 69.5 C 122.6 69.5 125.8 68.8 128.4 67.5 C 130.9 66.1 132.9 64 134.2 61.2 C 135.5 58.3 136.2 54.7 136.2 50.2 C 136.2 45.7 135.5 42.1 134.2 39.2 C 132.9 36.4 130.9 34.3 128.4 33 C 125.8 31.6 122.6 31 118.8 31 C 118.85 30.98 110.7 31 110.7 31 L 110.7 69.5 Z M 157.1 80.4 L 157.1 35.1 L 169.7 35.1 L 169.7 80.4 L 157.1 80.4 Z M 163.4 29.3 C 161.6 29.3 160 28.7 158.6 27.4 C 157.3 26.2 156.7 24.7 156.7 23 C 156.7 21.2 157.3 19.7 158.7 18.5 C 160 17.2 161.6 16.6 163.4 16.6 C 165.3 16.6 166.9 17.2 168.2 18.5 C 169.5 19.7 170.2 21.2 170.2 22.9 C 170.2 24.7 169.5 26.2 168.2 27.4 C 166.9 28.7 165.3 29.3 163.4 29.3 Z M 216.1 48 C 216.1 48 204.6 48.8 204.6 48.8 C 204.4 47.8 204 46.9 203.3 46.1 C 202.7 45.3 201.8 44.6 200.8 44.2 C 199.7 43.7 198.5 43.4 197 43.4 C 195.1 43.4 193.4 43.9 192.1 44.7 C 190.8 45.5 190.1 46.6 190.1 47.9 C 190.1 49 190.5 49.9 191.4 50.7 C 192.2 51.4 193.7 52 195.8 52.5 C 195.8 52.5 204 54.1 204 54.1 C 208.4 55 211.7 56.5 213.9 58.5 C 216 60.5 217.1 63.1 217.1 66.4 C 217.1 69.3 216.2 71.9 214.5 74.2 C 212.8 76.4 210.4 78.2 207.4 79.4 C 204.4 80.7 200.9 81.3 197 81.3 C 191 81.3 186.2 80 182.6 77.5 C 179.1 75 177 71.6 176.4 67.3 C 176.4 67.3 188.8 66.6 188.8 66.6 C 189.1 68.5 190 69.9 191.5 70.8 C 192.9 71.8 194.7 72.2 197 72.2 C 199.2 72.2 201 71.8 202.3 71 C 203.6 70.1 204.3 69 204.4 67.6 C 204.3 66.5 203.9 65.6 202.9 64.8 C 202 64.1 200.5 63.5 198.5 63.1 C 198.5 63.1 190.7 61.6 190.7 61.6 C 186.3 60.7 183 59.2 180.8 57 C 178.7 54.8 177.6 52 177.6 48.6 C 177.6 45.7 178.4 43.2 180 41.1 C 181.6 39 183.8 37.4 186.7 36.3 C 189.6 35.1 192.9 34.5 196.8 34.5 C 202.5 34.5 207 35.8 210.3 38.2 C 213.6 40.6 215.5 43.9 216.1 48 Z M 243.9 81.3 C 239.3 81.3 235.3 80.3 232 78.3 C 228.6 76.4 226.1 73.6 224.3 70.1 C 222.5 66.6 221.6 62.5 221.6 57.9 C 221.6 53.3 222.5 49.2 224.3 45.7 C 226.1 42.2 228.7 39.5 232 37.5 C 235.3 35.5 239.3 34.5 243.9 34.5 C 247.8 34.5 251.3 35.3 254.2 36.7 C 257.2 38.1 259.6 40.1 261.3 42.7 C 263 45.3 264 48.4 264.1 51.9 C 264.1 51.9 252.3 51.9 252.3 51.9 C 252 49.6 251.1 47.8 249.7 46.4 C 248.2 45 246.4 44.3 244.1 44.3 C 242.1 44.3 240.4 44.9 239 45.9 C 237.5 47 236.4 48.5 235.6 50.5 C 234.8 52.5 234.4 54.9 234.4 57.8 C 234.4 60.7 234.8 63.1 235.6 65.1 C 236.4 67.2 237.5 68.7 239 69.8 C 240.4 70.8 242.1 71.4 244.1 71.4 C 245.5 71.4 246.8 71.1 248 70.5 C 249.1 69.9 250.1 69 250.8 67.9 C 251.6 66.8 252.1 65.4 252.3 63.8 C 252.3 63.8 264.1 63.8 264.1 63.8 C 264 67.3 263 70.3 261.3 72.9 C 259.7 75.6 257.3 77.6 254.4 79.1 C 251.4 80.6 248 81.3 243.9 81.3 Z M 291.3 81.3 C 286.6 81.3 282.6 80.3 279.2 78.4 C 275.9 76.6 273.3 73.9 271.5 70.4 C 269.7 66.9 268.8 62.8 268.8 58 C 268.8 53.3 269.7 49.2 271.5 45.7 C 273.3 42.2 275.9 39.5 279.2 37.5 C 282.4 35.5 286.3 34.5 290.8 34.5 C 293.7 34.5 296.5 35 299.1 36 C 301.7 36.9 304 38.4 305.9 40.3 C 307.8 42.2 309.3 44.6 310.4 47.4 C 311.5 50.3 312 53.7 312 57.5 C 312.03 57.53 312 61 312 61 L 273.8 61 L 273.8 53.2 C 273.8 53.2 300.21 53.2 300.2 53.2 C 300.2 51.4 299.8 49.8 299 48.4 C 298.2 47 297.2 45.9 295.8 45.1 C 294.4 44.3 292.8 43.9 291 43.9 C 289.1 43.9 287.4 44.4 285.9 45.2 C 284.4 46.1 283.3 47.3 282.5 48.7 C 281.6 50.2 281.2 51.8 281.2 53.6 C 281.2 53.6 281.2 61 281.2 61 C 281.2 63.3 281.6 65.2 282.5 66.8 C 283.3 68.4 284.5 69.7 286 70.6 C 287.5 71.5 289.4 71.9 291.5 71.9 C 292.9 71.9 294.1 71.7 295.3 71.3 C 296.5 70.9 297.4 70.3 298.3 69.6 C 299.1 68.8 299.7 67.8 300.2 66.7 C 300.2 66.7 311.8 67.4 311.8 67.4 C 311.2 70.2 310 72.7 308.2 74.7 C 306.3 76.8 304 78.4 301.1 79.6 C 298.3 80.7 295 81.3 291.3 81.3 Z M 319.3 80.4 L 319.3 35.1 L 331.5 35.1 L 331.5 43 C 331.5 43 331.99 43.03 332 43 C 332.8 40.2 334.2 38.1 336.1 36.7 C 338.1 35.2 340.3 34.5 342.9 34.5 C 343.5 34.5 344.2 34.5 344.9 34.6 C 345.6 34.7 346.3 34.8 346.8 34.9 C 346.8 34.9 346.8 46.1 346.8 46.1 C 346.2 45.9 345.4 45.7 344.4 45.6 C 343.3 45.5 342.4 45.4 341.5 45.4 C 339.7 45.4 338 45.8 336.6 46.6 C 335.1 47.4 334 48.5 333.2 49.9 C 332.3 51.3 331.9 52.9 331.9 54.8 C 331.9 54.79 331.9 80.4 331.9 80.4 L 319.3 80.4 Z M 364.3 54.2 C 364.3 54.23 364.3 80.4 364.3 80.4 L 351.7 80.4 L 351.7 35.1 L 363.7 35.1 L 363.7 43.1 C 363.7 43.1 364.24 43.12 364.2 43.1 C 365.2 40.5 366.9 38.4 369.3 36.9 C 371.6 35.3 374.5 34.5 377.9 34.5 C 381 34.5 383.7 35.2 386.1 36.6 C 388.4 38 390.2 39.9 391.5 42.5 C 392.8 45 393.5 48.1 393.5 51.6 C 393.48 51.58 393.5 80.4 393.5 80.4 L 380.9 80.4 C 380.9 80.4 380.92 53.82 380.9 53.8 C 380.9 51 380.2 48.9 378.8 47.3 C 377.4 45.8 375.4 45 372.9 45 C 371.2 45 369.7 45.3 368.4 46.1 C 367.1 46.8 366.1 47.9 365.4 49.2 C 364.7 50.6 364.3 52.3 364.3 54.2 Z M 402.3 80.4 L 402.3 35.1 L 414.9 35.1 L 414.9 80.4 L 402.3 80.4 Z M 408.6 29.3 C 406.7 29.3 405.1 28.7 403.8 27.4 C 402.5 26.2 401.8 24.7 401.8 23 C 401.8 21.2 402.5 19.7 403.8 18.5 C 405.2 17.2 406.8 16.6 408.6 16.6 C 410.5 16.6 412.1 17.2 413.4 18.5 C 414.7 19.7 415.4 21.2 415.4 22.9 C 415.4 24.7 414.7 26.2 413.4 27.4 C 412.1 28.7 410.5 29.3 408.6 29.3 Z M 436.6 54.2 C 436.59 54.23 436.6 80.4 436.6 80.4 L 424 80.4 L 424 35.1 L 436 35.1 L 436 43.1 C 436 43.1 436.53 43.12 436.5 43.1 C 437.5 40.5 439.2 38.4 441.6 36.9 C 443.9 35.3 446.8 34.5 450.1 34.5 C 453.3 34.5 456 35.2 458.4 36.6 C 460.7 38 462.5 39.9 463.8 42.5 C 465.1 45 465.8 48.1 465.8 51.6 C 465.76 51.58 465.8 80.4 465.8 80.4 L 453.2 80.4 C 453.2 80.4 453.21 53.82 453.2 53.8 C 453.2 51 452.5 48.9 451.1 47.3 C 449.7 45.8 447.7 45 445.2 45 C 443.5 45 442 45.3 440.7 46.1 C 439.4 46.8 438.4 47.9 437.7 49.2 C 437 50.6 436.6 52.3 436.6 54.2 Z M 494.9 98.3 C 490.8 98.3 487.3 97.8 484.4 96.7 C 481.5 95.6 479.2 94 477.5 92.1 C 475.8 90.2 474.7 88.1 474.2 85.7 C 474.2 85.7 485.8 84.1 485.8 84.1 C 486.1 85.1 486.7 85.9 487.5 86.7 C 488.2 87.5 489.2 88.1 490.5 88.6 C 491.8 89.1 493.3 89.3 495.2 89.3 C 497.9 89.3 500.1 88.6 501.9 87.3 C 503.7 86 504.6 83.8 504.6 80.7 C 504.58 80.67 504.6 72.4 504.6 72.4 C 504.6 72.4 504.05 72.39 504.1 72.4 C 503.5 73.6 502.7 74.8 501.6 76 C 500.5 77.1 499.1 78 497.3 78.7 C 495.6 79.4 493.5 79.8 491.1 79.8 C 487.7 79.8 484.7 79 481.9 77.4 C 479.1 75.8 476.9 73.4 475.2 70.1 C 473.6 66.8 472.8 62.7 472.8 57.7 C 472.8 52.6 473.6 48.3 475.3 44.8 C 477 41.4 479.2 38.8 482 37.1 C 484.7 35.4 487.8 34.5 491.1 34.5 C 493.6 34.5 495.8 35 497.5 35.8 C 499.2 36.7 500.6 37.7 501.6 39 C 502.7 40.3 503.5 41.5 504.1 42.7 C 504.05 42.74 504.5 42.7 504.5 42.7 L 504.5 35.1 L 517 35.1 C 517 35.1 516.99 80.85 517 80.8 C 517 84.7 516 87.9 514.2 90.5 C 512.3 93.1 509.7 95.1 506.3 96.4 C 503 97.7 499.2 98.3 494.9 98.3 Z M 495.1 70.3 C 497.1 70.3 498.9 69.8 500.3 68.8 C 501.7 67.8 502.7 66.3 503.5 64.4 C 504.3 62.5 504.6 60.3 504.6 57.6 C 504.6 55 504.3 52.7 503.5 50.7 C 502.8 48.8 501.7 47.2 500.3 46.2 C 498.9 45.1 497.1 44.5 495.1 44.5 C 493.1 44.5 491.3 45.1 489.9 46.2 C 488.5 47.3 487.4 48.8 486.7 50.8 C 486 52.8 485.6 55 485.6 57.6 C 485.6 60.2 486 62.5 486.7 64.4 C 487.4 66.3 488.5 67.7 489.9 68.8 C 491.3 69.8 493.1 70.3 495.1 70.3 Z M 546.3 80.4 L 546.3 35.1 L 558.4 35.1 L 558.4 43 C 558.4 43 558.9 43.03 558.9 43 C 559.7 40.2 561.1 38.1 563.1 36.7 C 565 35.2 567.2 34.5 569.8 34.5 C 570.4 34.5 571.1 34.5 571.8 34.6 C 572.5 34.7 573.2 34.8 573.7 34.9 C 573.7 34.9 573.7 46.1 573.7 46.1 C 573.1 45.9 572.3 45.7 571.3 45.6 C 570.2 45.5 569.3 45.4 568.4 45.4 C 566.6 45.4 564.9 45.8 563.5 46.6 C 562 47.4 560.9 48.5 560.1 49.9 C 559.2 51.3 558.8 52.9 558.8 54.8 C 558.81 54.79 558.8 80.4 558.8 80.4 L 546.3 80.4 Z M 599.2 81.3 C 594.5 81.3 590.5 80.3 587.2 78.4 C 583.8 76.6 581.3 73.9 579.4 70.4 C 577.6 66.9 576.7 62.8 576.7 58 C 576.7 53.3 577.6 49.2 579.4 45.7 C 581.3 42.2 583.8 39.5 587.1 37.5 C 590.4 35.5 594.3 34.5 598.7 34.5 C 601.7 34.5 604.5 35 607.1 36 C 609.6 36.9 611.9 38.4 613.8 40.3 C 615.8 42.2 617.3 44.6 618.4 47.4 C 619.4 50.3 620 53.7 620 57.5 C 619.98 57.53 620 61 620 61 L 581.7 61 L 581.7 53.2 C 581.7 53.2 608.16 53.2 608.2 53.2 C 608.2 51.4 607.8 49.8 607 48.4 C 606.2 47 605.1 45.9 603.7 45.1 C 602.3 44.3 600.7 43.9 598.9 43.9 C 597 43.9 595.3 44.4 593.8 45.2 C 592.4 46.1 591.2 47.3 590.4 48.7 C 589.6 50.2 589.2 51.8 589.1 53.6 C 589.1 53.6 589.1 61 589.1 61 C 589.1 63.3 589.6 65.2 590.4 66.8 C 591.2 68.4 592.4 69.7 593.9 70.6 C 595.5 71.5 597.3 71.9 599.4 71.9 C 600.8 71.9 602.1 71.7 603.2 71.3 C 604.4 70.9 605.4 70.3 606.2 69.6 C 607 68.8 607.7 67.8 608.1 66.7 C 608.1 66.7 619.7 67.4 619.7 67.4 C 619.1 70.2 617.9 72.7 616.1 74.7 C 614.3 76.8 611.9 78.4 609.1 79.6 C 606.2 80.7 602.9 81.3 599.2 81.3 Z M 639.7 81.3 C 636.8 81.3 634.2 80.8 631.9 79.7 C 629.7 78.7 627.9 77.2 626.6 75.2 C 625.3 73.2 624.6 70.7 624.6 67.8 C 624.6 65.2 625.1 63.1 626 61.4 C 626.9 59.7 628.2 58.3 629.8 57.3 C 631.4 56.3 633.2 55.5 635.2 54.9 C 637.2 54.4 639.4 54 641.6 53.8 C 644.3 53.5 646.4 53.3 648 53 C 649.6 52.8 650.8 52.4 651.5 51.9 C 652.2 51.4 652.6 50.7 652.6 49.8 C 652.6 49.8 652.6 49.6 652.6 49.6 C 652.6 47.7 652 46.3 650.8 45.2 C 649.7 44.2 648 43.7 645.9 43.7 C 643.6 43.7 641.8 44.2 640.5 45.2 C 639.1 46.2 638.3 47.4 637.8 48.9 C 637.8 48.9 626.2 48 626.2 48 C 626.8 45.2 628 42.9 629.7 40.8 C 631.4 38.8 633.7 37.3 636.4 36.2 C 639.1 35.1 642.3 34.5 645.9 34.5 C 648.4 34.5 650.9 34.8 653.2 35.4 C 655.5 36 657.5 36.9 659.3 38.2 C 661.1 39.4 662.5 41 663.6 42.9 C 664.6 44.9 665.1 47.2 665.1 49.9 C 665.15 49.87 665.1 80.4 665.1 80.4 L 653.2 80.4 L 653.2 74.1 C 653.2 74.1 652.89 74.13 652.9 74.1 C 652.2 75.5 651.2 76.8 650 77.9 C 648.7 78.9 647.3 79.8 645.6 80.4 C 643.9 81 641.9 81.3 639.7 81.3 Z M 643.2 72.6 C 645.1 72.6 646.7 72.2 648.1 71.5 C 649.6 70.8 650.7 69.8 651.5 68.5 C 652.3 67.2 652.7 65.8 652.7 64.2 C 652.7 64.2 652.7 59.4 652.7 59.4 C 652.3 59.7 651.8 59.9 651.1 60.1 C 650.4 60.3 649.6 60.5 648.8 60.7 C 647.9 60.8 647.1 61 646.3 61.1 C 645.4 61.2 644.6 61.4 644 61.5 C 642.5 61.7 641.2 62 640.1 62.5 C 639 63 638.1 63.6 637.5 64.4 C 636.9 65.2 636.6 66.2 636.6 67.3 C 636.6 69.1 637.2 70.4 638.5 71.3 C 639.7 72.1 641.3 72.6 643.2 72.6 Z M 686.7 20 L 686.7 80.4 L 674.1 80.4 L 674.1 20 L 686.7 20 Z M 758.2 35.1 L 742.3 80.4 L 728.2 80.4 L 712.4 35.1 L 725.6 35.1 L 735 67.5 L 735.5 67.5 L 744.9 35.1 L 758.2 35.1 Z M 774.2 81.3 C 771.3 81.3 768.8 80.8 766.5 79.7 C 764.3 78.7 762.5 77.2 761.2 75.2 C 759.9 73.2 759.2 70.7 759.2 67.8 C 759.2 65.2 759.7 63.1 760.6 61.4 C 761.5 59.7 762.8 58.3 764.4 57.3 C 766 56.3 767.8 55.5 769.8 54.9 C 771.8 54.4 774 54 776.2 53.8 C 778.8 53.5 781 53.3 782.6 53 C 784.2 52.8 785.4 52.4 786.1 51.9 C 786.8 51.4 787.2 50.7 787.2 49.8 C 787.2 49.8 787.2 49.6 787.2 49.6 C 787.2 47.7 786.6 46.3 785.4 45.2 C 784.3 44.2 782.6 43.7 780.5 43.7 C 778.2 43.7 776.4 44.2 775.1 45.2 C 773.7 46.2 772.8 47.4 772.4 48.9 C 772.4 48.9 760.8 48 760.8 48 C 761.4 45.2 762.5 42.9 764.3 40.8 C 766 38.8 768.2 37.3 771 36.2 C 773.7 35.1 776.9 34.5 780.5 34.5 C 783 34.5 785.4 34.8 787.7 35.4 C 790.1 36 792.1 36.9 793.9 38.2 C 795.7 39.4 797.1 41 798.2 42.9 C 799.2 44.9 799.7 47.2 799.7 49.9 C 799.73 49.87 799.7 80.4 799.7 80.4 L 787.8 80.4 L 787.8 74.1 C 787.8 74.1 787.47 74.13 787.5 74.1 C 786.7 75.5 785.8 76.8 784.6 77.9 C 783.3 78.9 781.9 79.8 780.2 80.4 C 778.4 81 776.5 81.3 774.2 81.3 Z M 777.8 72.6 C 779.7 72.6 781.3 72.2 782.7 71.5 C 784.1 70.8 785.2 69.8 786.1 68.5 C 786.9 67.2 787.3 65.8 787.3 64.2 C 787.3 64.2 787.3 59.4 787.3 59.4 C 786.9 59.7 786.3 59.9 785.7 60.1 C 785 60.3 784.2 60.5 783.4 60.7 C 782.5 60.8 781.7 61 780.8 61.1 C 780 61.2 779.2 61.4 778.5 61.5 C 777.1 61.7 775.8 62 774.7 62.5 C 773.6 63 772.7 63.6 772.1 64.4 C 771.5 65.2 771.2 66.2 771.2 67.3 C 771.2 69.1 771.8 70.4 773.1 71.3 C 774.3 72.1 775.9 72.6 777.8 72.6 Z M 821.3 20 L 821.3 80.4 L 808.7 80.4 L 808.7 20 L 821.3 20 Z M 859.4 61.1 C 859.39 61.13 859.4 35.1 859.4 35.1 L 871.9 35.1 L 871.9 80.4 L 859.9 80.4 L 859.9 72.2 C 859.9 72.2 859.42 72.18 859.4 72.2 C 858.4 74.8 856.7 77 854.3 78.6 C 852 80.2 849.1 81 845.7 81 C 842.7 81 840 80.3 837.7 78.9 C 835.4 77.6 833.6 75.6 832.3 73.1 C 831 70.5 830.4 67.5 830.4 64 C 830.36 63.96 830.4 35.1 830.4 35.1 L 842.9 35.1 C 842.9 35.1 842.92 61.72 842.9 61.7 C 842.9 64.4 843.7 66.5 845.1 68.1 C 846.5 69.6 848.4 70.4 850.8 70.4 C 852.3 70.4 853.7 70 855 69.3 C 856.3 68.6 857.4 67.6 858.2 66.2 C 859 64.9 859.4 63.2 859.4 61.1 Z M 901.6 81.3 C 896.9 81.3 892.9 80.3 889.6 78.4 C 886.2 76.6 883.6 73.9 881.8 70.4 C 880 66.9 879.1 62.8 879.1 58 C 879.1 53.3 880 49.2 881.8 45.7 C 883.6 42.2 886.2 39.5 889.5 37.5 C 892.8 35.5 896.6 34.5 901.1 34.5 C 904.1 34.5 906.8 35 909.4 36 C 912 36.9 914.3 38.4 916.2 40.3 C 918.1 42.2 919.6 44.6 920.7 47.4 C 921.8 50.3 922.4 53.7 922.4 57.5 C 922.35 57.53 922.4 61 922.4 61 L 884.1 61 L 884.1 53.2 C 884.1 53.2 910.53 53.2 910.5 53.2 C 910.5 51.4 910.1 49.8 909.4 48.4 C 908.6 47 907.5 45.9 906.1 45.1 C 904.7 44.3 903.1 43.9 901.3 43.9 C 899.4 43.9 897.7 44.4 896.2 45.2 C 894.8 46.1 893.6 47.3 892.8 48.7 C 892 50.2 891.5 51.8 891.5 53.6 C 891.5 53.6 891.5 61 891.5 61 C 891.5 63.3 891.9 65.2 892.8 66.8 C 893.6 68.4 894.8 69.7 896.3 70.6 C 897.9 71.5 899.7 71.9 901.8 71.9 C 903.2 71.9 904.4 71.7 905.6 71.3 C 906.8 70.9 907.8 70.3 908.6 69.6 C 909.4 68.8 910 67.8 910.5 66.7 C 910.5 66.7 922.1 67.4 922.1 67.4 C 921.5 70.2 920.3 72.7 918.5 74.7 C 916.7 76.8 914.3 78.4 911.5 79.6 C 908.6 80.7 905.3 81.3 901.6 81.3 Z " stroke="none" fill="#10283d"/>  </g></svg>