<?xml version="1.0" standalone="no"?><!DOCTYPE svg PUBLIC "-//W3C//DTD SVG 1.1//EN" "http://www.w3.org/Graphics/SVG/1.1/DTD/svg11.dtd"><svg xmlns="http://www.w3.org/2000/svg" version="1.1" width="121px" height="25.4px" viewBox="0 -3 121 25.4" style="top:-3px">  <desc>19 / 19</desc>  <defs/>  <g id="Polygon126535">    <path d="M 43.7 3.4 L 43.7 13.6 L 42.5 13.6 L 42.5 4.7 L 42.4 4.7 L 39.9 6.3 L 39.9 5.1 L 42.5 3.4 L 43.7 3.4 Z M 49.6 3.2 C 50 3.2 50.4 3.3 50.8 3.5 C 51.2 3.6 51.6 3.9 52 4.3 C 52.3 4.6 52.6 5.1 52.8 5.7 C 53 6.3 53.1 7.1 53.1 8.1 C 53.1 9 53 9.8 52.9 10.5 C 52.7 11.2 52.4 11.8 52.1 12.2 C 51.8 12.7 51.4 13.1 51 13.3 C 50.5 13.6 50 13.7 49.4 13.7 C 48.8 13.7 48.3 13.6 47.9 13.4 C 47.4 13.1 47.1 12.8 46.8 12.4 C 46.5 12 46.3 11.5 46.3 11 C 46.3 11 47.5 11 47.5 11 C 47.6 11.5 47.8 11.8 48.1 12.2 C 48.4 12.5 48.9 12.6 49.4 12.6 C 50.2 12.6 50.8 12.3 51.3 11.6 C 51.7 10.9 52 9.9 52 8.7 C 52 8.7 51.9 8.7 51.9 8.7 C 51.7 8.9 51.5 9.2 51.2 9.4 C 51 9.6 50.7 9.7 50.4 9.9 C 50.1 10 49.7 10 49.4 10 C 48.8 10 48.3 9.9 47.8 9.6 C 47.3 9.3 46.9 8.9 46.6 8.4 C 46.3 7.9 46.2 7.3 46.2 6.6 C 46.2 6 46.3 5.4 46.6 4.9 C 46.9 4.4 47.3 4 47.8 3.7 C 48.3 3.4 48.9 3.2 49.6 3.2 Z M 49.6 4.3 C 49.2 4.3 48.8 4.4 48.4 4.6 C 48.1 4.9 47.8 5.1 47.7 5.5 C 47.5 5.8 47.4 6.2 47.4 6.6 C 47.4 7.1 47.5 7.5 47.6 7.8 C 47.8 8.1 48.1 8.4 48.4 8.6 C 48.7 8.8 49.1 8.9 49.5 8.9 C 49.8 8.9 50.1 8.9 50.4 8.7 C 50.7 8.6 50.9 8.4 51.1 8.2 C 51.3 8 51.5 7.8 51.6 7.5 C 51.7 7.2 51.8 6.9 51.8 6.6 C 51.8 6.2 51.7 5.9 51.5 5.5 C 51.3 5.2 51 4.9 50.7 4.7 C 50.4 4.4 50 4.3 49.6 4.3 Z M 62.6 2.9 L 59.3 15.1 L 58.3 15.1 L 61.5 2.9 L 62.6 2.9 Z M 71.5 3.4 L 71.5 13.6 L 70.3 13.6 L 70.3 4.7 L 70.2 4.7 L 67.7 6.3 L 67.7 5.1 L 70.3 3.4 L 71.5 3.4 Z M 77.4 3.2 C 77.8 3.2 78.2 3.3 78.6 3.5 C 79.1 3.6 79.4 3.9 79.8 4.3 C 80.1 4.6 80.4 5.1 80.6 5.7 C 80.8 6.3 80.9 7.1 80.9 8.1 C 80.9 9 80.8 9.8 80.7 10.5 C 80.5 11.2 80.2 11.8 79.9 12.2 C 79.6 12.7 79.2 13.1 78.8 13.3 C 78.3 13.6 77.8 13.7 77.2 13.7 C 76.7 13.7 76.1 13.6 75.7 13.4 C 75.3 13.1 74.9 12.8 74.6 12.4 C 74.3 12 74.1 11.5 74.1 11 C 74.1 11 75.3 11 75.3 11 C 75.4 11.5 75.6 11.8 75.9 12.2 C 76.3 12.5 76.7 12.6 77.2 12.6 C 78 12.6 78.6 12.3 79.1 11.6 C 79.5 10.9 79.8 9.9 79.8 8.7 C 79.8 8.7 79.7 8.7 79.7 8.7 C 79.5 8.9 79.3 9.2 79 9.4 C 78.8 9.6 78.5 9.7 78.2 9.9 C 77.9 10 77.5 10 77.2 10 C 76.6 10 76.1 9.9 75.6 9.6 C 75.1 9.3 74.7 8.9 74.4 8.4 C 74.1 7.9 74 7.3 74 6.6 C 74 6 74.1 5.4 74.4 4.9 C 74.7 4.4 75.1 4 75.6 3.7 C 76.1 3.4 76.7 3.2 77.4 3.2 Z M 77.4 4.3 C 77 4.3 76.6 4.4 76.3 4.6 C 75.9 4.9 75.7 5.1 75.5 5.5 C 75.3 5.8 75.2 6.2 75.2 6.6 C 75.2 7.1 75.3 7.5 75.5 7.8 C 75.6 8.1 75.9 8.4 76.2 8.6 C 76.6 8.8 76.9 8.9 77.3 8.9 C 77.7 8.9 78 8.9 78.2 8.7 C 78.5 8.6 78.7 8.4 78.9 8.2 C 79.1 8 79.3 7.8 79.4 7.5 C 79.5 7.2 79.6 6.9 79.6 6.6 C 79.6 6.2 79.5 5.9 79.3 5.5 C 79.1 5.2 78.9 4.9 78.5 4.7 C 78.2 4.4 77.8 4.3 77.4 4.3 Z " stroke="none" fill="#ffffff"/>  </g></svg>