<?xml version="1.0" standalone="no"?><!DOCTYPE svg PUBLIC "-//W3C//DTD SVG 1.1//EN" "http://www.w3.org/Graphics/SVG/1.1/DTD/svg11.dtd"><svg xmlns="http://www.w3.org/2000/svg" version="1.1" width="413.5px" height="46.5px" viewBox="0 -11 413.5 46.5" style="top:-11px">  <desc>Promise vs. functionality</desc>  <defs/>  <g id="Polygon109194">    <path d="M 40.4 19.6 L 40.4 0 C 40.4 0 47.01 0 47 0 C 48.6 0 49.8 0.3 50.8 0.8 C 51.8 1.4 52.5 2.1 53 3.1 C 53.4 4 53.7 5.1 53.7 6.2 C 53.7 7.4 53.5 8.4 53 9.4 C 52.5 10.3 51.8 11.1 50.8 11.6 C 49.8 12.2 48.6 12.5 47.1 12.5 C 47.05 12.46 42.3 12.5 42.3 12.5 L 42.3 10.4 C 42.3 10.4 46.97 10.36 47 10.4 C 48 10.4 48.9 10.2 49.5 9.8 C 50.2 9.4 50.6 9 50.9 8.3 C 51.2 7.7 51.3 7 51.3 6.2 C 51.3 5.4 51.2 4.7 50.9 4.1 C 50.6 3.5 50.2 3 49.5 2.6 C 48.9 2.3 48 2.1 46.9 2.1 C 46.94 2.11 42.8 2.1 42.8 2.1 L 42.8 19.6 L 40.4 19.6 Z M 56.8 19.6 L 56.8 4.9 L 59 4.9 L 59 7.1 C 59 7.1 59.13 7.13 59.1 7.1 C 59.4 6.4 59.9 5.8 60.6 5.4 C 61.3 4.9 62.1 4.7 63 4.7 C 63.1 4.7 63.3 4.7 63.6 4.7 C 63.8 4.7 64 4.7 64.2 4.7 C 64.2 4.7 64.2 7 64.2 7 C 64.1 7 63.9 7 63.6 6.9 C 63.4 6.9 63.1 6.9 62.8 6.9 C 62.1 6.9 61.4 7 60.9 7.3 C 60.3 7.6 59.9 8 59.5 8.5 C 59.2 9.1 59.1 9.7 59.1 10.3 C 59.05 10.32 59.1 19.6 59.1 19.6 L 56.8 19.6 Z M 72.4 19.9 C 71.1 19.9 69.9 19.6 68.9 19 C 67.9 18.4 67.1 17.5 66.6 16.3 C 66 15.2 65.7 13.9 65.7 12.3 C 65.7 10.8 66 9.5 66.6 8.3 C 67.1 7.2 67.9 6.3 68.9 5.7 C 69.9 5 71.1 4.7 72.4 4.7 C 73.7 4.7 74.9 5 75.9 5.7 C 76.9 6.3 77.7 7.2 78.2 8.3 C 78.8 9.5 79.1 10.8 79.1 12.3 C 79.1 13.9 78.8 15.2 78.2 16.3 C 77.7 17.5 76.9 18.4 75.9 19 C 74.9 19.6 73.7 19.9 72.4 19.9 Z M 72.4 17.9 C 73.4 17.9 74.2 17.7 74.9 17.1 C 75.5 16.6 76 15.9 76.3 15.1 C 76.6 14.2 76.8 13.3 76.8 12.3 C 76.8 11.4 76.6 10.4 76.3 9.6 C 76 8.7 75.5 8.1 74.9 7.5 C 74.2 7 73.4 6.8 72.4 6.8 C 71.4 6.8 70.5 7 69.9 7.5 C 69.2 8.1 68.8 8.7 68.4 9.6 C 68.1 10.4 68 11.4 68 12.3 C 68 13.3 68.1 14.2 68.4 15.1 C 68.8 15.9 69.2 16.6 69.9 17.1 C 70.5 17.7 71.4 17.9 72.4 17.9 Z M 82.4 19.6 L 82.4 4.9 L 84.6 4.9 L 84.6 7.2 C 84.6 7.2 84.78 7.21 84.8 7.2 C 85.1 6.4 85.6 5.8 86.3 5.4 C 87 4.9 87.8 4.7 88.7 4.7 C 89.7 4.7 90.5 4.9 91.2 5.4 C 91.8 5.8 92.3 6.4 92.7 7.2 C 92.7 7.2 92.8 7.2 92.8 7.2 C 93.2 6.4 93.8 5.8 94.5 5.4 C 95.3 4.9 96.2 4.7 97.2 4.7 C 98.6 4.7 99.6 5.1 100.5 5.9 C 101.3 6.8 101.7 8 101.7 9.8 C 101.73 9.78 101.7 19.6 101.7 19.6 L 99.5 19.6 C 99.5 19.6 99.47 9.78 99.5 9.8 C 99.5 8.7 99.2 7.9 98.6 7.4 C 98 7 97.3 6.8 96.5 6.8 C 95.4 6.8 94.6 7.1 94.1 7.7 C 93.5 8.3 93.2 9.1 93.2 10 C 93.22 10.05 93.2 19.6 93.2 19.6 L 90.9 19.6 C 90.9 19.6 90.92 9.55 90.9 9.5 C 90.9 8.7 90.6 8 90.1 7.5 C 89.6 7 88.9 6.8 88 6.8 C 87.4 6.8 86.9 6.9 86.4 7.2 C 85.9 7.5 85.4 8 85.1 8.5 C 84.8 9.1 84.7 9.7 84.7 10.4 C 84.67 10.43 84.7 19.6 84.7 19.6 L 82.4 19.6 Z M 105.7 19.6 L 105.7 4.9 L 107.9 4.9 L 107.9 19.6 L 105.7 19.6 Z M 106.8 2.5 C 106.4 2.5 106 2.3 105.7 2 C 105.4 1.7 105.2 1.3 105.2 0.9 C 105.2 0.5 105.4 0.1 105.7 -0.2 C 106 -0.5 106.4 -0.6 106.8 -0.6 C 107.3 -0.6 107.7 -0.5 108 -0.2 C 108.3 0.1 108.4 0.5 108.4 0.9 C 108.4 1.3 108.3 1.7 108 2 C 107.7 2.3 107.3 2.5 106.8 2.5 Z M 122.3 8.2 C 122.3 8.2 120.2 8.8 120.2 8.8 C 120.1 8.4 119.9 8.1 119.7 7.8 C 119.4 7.5 119.1 7.2 118.7 7 C 118.2 6.8 117.7 6.7 117 6.7 C 116.1 6.7 115.4 6.9 114.8 7.3 C 114.2 7.7 113.9 8.2 113.9 8.9 C 113.9 9.4 114.1 9.9 114.5 10.2 C 114.9 10.5 115.6 10.8 116.4 11 C 116.4 11 118.6 11.5 118.6 11.5 C 119.9 11.9 120.9 12.4 121.6 13 C 122.2 13.7 122.5 14.5 122.5 15.5 C 122.5 16.4 122.3 17.1 121.8 17.8 C 121.3 18.5 120.6 19 119.8 19.4 C 118.9 19.8 117.9 19.9 116.8 19.9 C 115.3 19.9 114 19.6 113 19 C 112.1 18.3 111.4 17.4 111.2 16.1 C 111.2 16.1 113.3 15.6 113.3 15.6 C 113.5 16.4 113.9 17 114.5 17.4 C 115.1 17.8 115.8 17.9 116.7 17.9 C 117.8 17.9 118.6 17.7 119.3 17.3 C 119.9 16.8 120.2 16.3 120.2 15.6 C 120.2 15.1 120 14.7 119.6 14.4 C 119.3 14 118.7 13.7 118 13.6 C 118 13.6 115.5 13 115.5 13 C 114.2 12.7 113.2 12.2 112.6 11.5 C 111.9 10.8 111.6 10 111.6 9 C 111.6 8.1 111.9 7.4 112.3 6.8 C 112.8 6.1 113.5 5.6 114.3 5.3 C 115.1 4.9 116 4.7 117 4.7 C 118.5 4.7 119.6 5 120.5 5.7 C 121.3 6.3 121.9 7.2 122.3 8.2 Z M 131.9 19.9 C 130.5 19.9 129.2 19.6 128.2 19 C 127.2 18.4 126.4 17.5 125.8 16.4 C 125.3 15.2 125 13.9 125 12.4 C 125 10.9 125.3 9.5 125.8 8.4 C 126.4 7.2 127.2 6.3 128.2 5.7 C 129.2 5 130.3 4.7 131.7 4.7 C 132.4 4.7 133.2 4.8 133.9 5.1 C 134.7 5.4 135.4 5.8 136 6.3 C 136.6 6.9 137.1 7.7 137.4 8.6 C 137.8 9.5 138 10.7 138 12.1 C 137.98 12.08 138 13 138 13 L 126.6 13 L 126.6 11.1 C 126.6 11.1 135.68 11.08 135.7 11.1 C 135.7 10.3 135.5 9.5 135.2 8.9 C 134.9 8.2 134.4 7.7 133.8 7.3 C 133.2 6.9 132.5 6.8 131.7 6.8 C 130.8 6.8 130 7 129.3 7.4 C 128.7 7.9 128.2 8.4 127.8 9.1 C 127.5 9.9 127.3 10.6 127.3 11.4 C 127.3 11.4 127.3 12.7 127.3 12.7 C 127.3 13.8 127.5 14.8 127.9 15.6 C 128.2 16.3 128.8 16.9 129.5 17.3 C 130.2 17.7 131 17.9 131.9 17.9 C 132.5 17.9 133 17.8 133.5 17.7 C 134 17.5 134.4 17.2 134.8 16.9 C 135.1 16.5 135.4 16.1 135.6 15.6 C 135.6 15.6 137.8 16.2 137.8 16.2 C 137.5 17 137.1 17.6 136.6 18.2 C 136 18.7 135.4 19.2 134.6 19.5 C 133.8 19.8 132.9 19.9 131.9 19.9 Z M 161.1 4.9 L 155.6 19.6 L 153.3 19.6 L 147.9 4.9 L 150.3 4.9 L 154.4 16.6 L 154.6 16.6 L 158.6 4.9 L 161.1 4.9 Z M 173.8 8.2 C 173.8 8.2 171.8 8.8 171.8 8.8 C 171.6 8.4 171.5 8.1 171.2 7.8 C 171 7.5 170.6 7.2 170.2 7 C 169.8 6.8 169.2 6.7 168.6 6.7 C 167.7 6.7 166.9 6.9 166.3 7.3 C 165.7 7.7 165.4 8.2 165.4 8.9 C 165.4 9.4 165.6 9.9 166.1 10.2 C 166.5 10.5 167.1 10.8 168 11 C 168 11 170.2 11.5 170.2 11.5 C 171.5 11.9 172.5 12.4 173.1 13 C 173.8 13.7 174.1 14.5 174.1 15.5 C 174.1 16.4 173.8 17.1 173.3 17.8 C 172.9 18.5 172.2 19 171.3 19.4 C 170.5 19.8 169.5 19.9 168.3 19.9 C 166.8 19.9 165.6 19.6 164.6 19 C 163.6 18.3 163 17.4 162.7 16.1 C 162.7 16.1 164.9 15.6 164.9 15.6 C 165.1 16.4 165.5 17 166 17.4 C 166.6 17.8 167.4 17.9 168.3 17.9 C 169.3 17.9 170.2 17.7 170.8 17.3 C 171.4 16.8 171.7 16.3 171.7 15.6 C 171.7 15.1 171.6 14.7 171.2 14.4 C 170.8 14 170.3 13.7 169.5 13.6 C 169.5 13.6 167.1 13 167.1 13 C 165.7 12.7 164.8 12.2 164.1 11.5 C 163.5 10.8 163.2 10 163.2 9 C 163.2 8.1 163.4 7.4 163.9 6.8 C 164.4 6.1 165 5.6 165.8 5.3 C 166.6 4.9 167.6 4.7 168.6 4.7 C 170 4.7 171.2 5 172 5.7 C 172.9 6.3 173.5 7.2 173.8 8.2 Z M 178.9 19.8 C 178.5 19.8 178.1 19.6 177.7 19.3 C 177.4 18.9 177.2 18.5 177.2 18.1 C 177.2 17.6 177.4 17.2 177.7 16.8 C 178.1 16.5 178.5 16.3 178.9 16.3 C 179.4 16.3 179.8 16.5 180.2 16.8 C 180.5 17.2 180.7 17.6 180.7 18.1 C 180.7 18.4 180.6 18.7 180.4 18.9 C 180.3 19.2 180.1 19.4 179.8 19.6 C 179.6 19.7 179.3 19.8 178.9 19.8 Z M 198.9 4.9 L 198.9 6.8 L 190.9 6.8 L 190.9 4.9 L 198.9 4.9 Z M 193.3 19.6 C 193.3 19.6 193.33 2.88 193.3 2.9 C 193.3 2 193.5 1.3 193.9 0.8 C 194.3 0.2 194.8 -0.2 195.5 -0.5 C 196.1 -0.8 196.8 -0.9 197.5 -0.9 C 198 -0.9 198.5 -0.9 198.8 -0.8 C 199.2 -0.7 199.4 -0.6 199.6 -0.5 C 199.6 -0.5 199 1.4 199 1.4 C 198.8 1.4 198.7 1.3 198.5 1.3 C 198.3 1.2 198 1.2 197.7 1.2 C 197 1.2 196.4 1.4 196.1 1.8 C 195.8 2.1 195.6 2.7 195.6 3.4 C 195.59 3.41 195.6 19.6 195.6 19.6 L 193.3 19.6 Z M 211 13.6 C 211 13.62 211 4.9 211 4.9 L 213.3 4.9 L 213.3 19.6 L 211 19.6 L 211 17.1 C 211 17.1 210.84 17.14 210.8 17.1 C 210.5 17.9 210 18.5 209.2 19 C 208.5 19.6 207.6 19.8 206.5 19.8 C 205.6 19.8 204.7 19.6 204 19.2 C 203.3 18.8 202.7 18.2 202.3 17.4 C 201.9 16.6 201.7 15.5 201.7 14.3 C 201.72 14.27 201.7 4.9 201.7 4.9 L 204 4.9 C 204 4.9 203.98 14.11 204 14.1 C 204 15.2 204.3 16 204.9 16.7 C 205.5 17.3 206.3 17.6 207.2 17.6 C 207.8 17.6 208.3 17.5 208.9 17.2 C 209.5 16.9 210 16.5 210.4 15.9 C 210.8 15.3 211 14.5 211 13.6 Z M 219.6 10.8 C 219.56 10.78 219.6 19.6 219.6 19.6 L 217.3 19.6 L 217.3 4.9 L 219.5 4.9 L 219.5 7.2 C 219.5 7.2 219.67 7.21 219.7 7.2 C 220 6.5 220.5 5.9 221.2 5.4 C 221.9 4.9 222.9 4.7 224 4.7 C 225 4.7 225.8 4.9 226.6 5.3 C 227.3 5.7 227.9 6.3 228.3 7.2 C 228.7 8 229 9 229 10.3 C 228.95 10.28 229 19.6 229 19.6 L 226.7 19.6 C 226.7 19.6 226.69 10.43 226.7 10.4 C 226.7 9.3 226.4 8.4 225.8 7.7 C 225.2 7.1 224.4 6.8 223.3 6.8 C 222.6 6.8 221.9 6.9 221.4 7.2 C 220.8 7.5 220.4 8 220 8.6 C 219.7 9.2 219.6 9.9 219.6 10.8 Z M 238.9 19.9 C 237.5 19.9 236.3 19.6 235.3 19 C 234.3 18.3 233.5 17.4 233 16.3 C 232.5 15.1 232.2 13.8 232.2 12.3 C 232.2 10.9 232.5 9.5 233 8.4 C 233.6 7.2 234.3 6.3 235.3 5.7 C 236.3 5 237.5 4.7 238.8 4.7 C 239.9 4.7 240.8 4.9 241.6 5.3 C 242.5 5.7 243.1 6.2 243.7 6.9 C 244.2 7.6 244.5 8.4 244.7 9.3 C 244.7 9.3 242.4 9.3 242.4 9.3 C 242.2 8.6 241.8 8.1 241.2 7.5 C 240.7 7 239.9 6.8 238.9 6.8 C 238 6.8 237.2 7 236.5 7.4 C 235.9 7.9 235.4 8.5 235 9.4 C 234.6 10.2 234.5 11.2 234.5 12.3 C 234.5 13.4 234.6 14.4 235 15.2 C 235.4 16.1 235.9 16.7 236.5 17.2 C 237.2 17.7 238 17.9 238.9 17.9 C 239.5 17.9 240 17.8 240.5 17.6 C 240.9 17.4 241.3 17.1 241.7 16.7 C 242 16.3 242.3 15.9 242.4 15.3 C 242.4 15.3 244.7 15.3 244.7 15.3 C 244.5 16.2 244.2 17 243.7 17.7 C 243.2 18.4 242.5 18.9 241.7 19.3 C 240.9 19.7 239.9 19.9 238.9 19.9 Z M 254.2 4.9 L 254.2 6.8 L 246.5 6.8 L 246.5 4.9 L 254.2 4.9 Z M 248.8 1.4 L 251 1.4 C 251 1.4 251.03 15.42 251 15.4 C 251 16.1 251.1 16.5 251.3 16.9 C 251.5 17.2 251.7 17.4 252 17.5 C 252.3 17.6 252.7 17.6 253 17.6 C 253.2 17.6 253.4 17.6 253.6 17.6 C 253.8 17.6 253.9 17.5 254 17.5 C 254 17.5 254.4 19.6 254.4 19.6 C 254.3 19.6 254.1 19.7 253.8 19.7 C 253.5 19.8 253.2 19.8 252.8 19.8 C 252.1 19.8 251.5 19.7 250.9 19.4 C 250.3 19.1 249.8 18.7 249.4 18.2 C 249 17.6 248.8 16.9 248.8 16 C 248.77 16.03 248.8 1.4 248.8 1.4 Z M 257.3 19.6 L 257.3 4.9 L 259.5 4.9 L 259.5 19.6 L 257.3 19.6 Z M 258.4 2.5 C 258 2.5 257.6 2.3 257.3 2 C 257 1.7 256.8 1.3 256.8 0.9 C 256.8 0.5 257 0.1 257.3 -0.2 C 257.6 -0.5 258 -0.6 258.4 -0.6 C 258.8 -0.6 259.2 -0.5 259.5 -0.2 C 259.9 0.1 260 0.5 260 0.9 C 260 1.3 259.9 1.7 259.5 2 C 259.2 2.3 258.8 2.5 258.4 2.5 Z M 269.5 19.9 C 268.1 19.9 267 19.6 266 19 C 265 18.4 264.2 17.5 263.6 16.3 C 263.1 15.2 262.8 13.9 262.8 12.3 C 262.8 10.8 263.1 9.5 263.6 8.3 C 264.2 7.2 265 6.3 266 5.7 C 267 5 268.1 4.7 269.5 4.7 C 270.8 4.7 271.9 5 272.9 5.7 C 273.9 6.3 274.7 7.2 275.3 8.3 C 275.8 9.5 276.1 10.8 276.1 12.3 C 276.1 13.9 275.8 15.2 275.3 16.3 C 274.7 17.5 273.9 18.4 272.9 19 C 271.9 19.6 270.8 19.9 269.5 19.9 Z M 269.5 17.9 C 270.5 17.9 271.3 17.7 271.9 17.1 C 272.6 16.6 273.1 15.9 273.4 15.1 C 273.7 14.2 273.9 13.3 273.9 12.3 C 273.9 11.4 273.7 10.4 273.4 9.6 C 273.1 8.7 272.6 8.1 271.9 7.5 C 271.3 7 270.5 6.8 269.5 6.8 C 268.4 6.8 267.6 7 267 7.5 C 266.3 8.1 265.8 8.7 265.5 9.6 C 265.2 10.4 265 11.4 265 12.3 C 265 13.3 265.2 14.2 265.5 15.1 C 265.8 15.9 266.3 16.6 267 17.1 C 267.6 17.7 268.4 17.9 269.5 17.9 Z M 281.7 10.8 C 281.73 10.78 281.7 19.6 281.7 19.6 L 279.5 19.6 L 279.5 4.9 L 281.7 4.9 L 281.7 7.2 C 281.7 7.2 281.84 7.21 281.8 7.2 C 282.2 6.5 282.7 5.9 283.4 5.4 C 284.1 4.9 285 4.7 286.1 4.7 C 287.1 4.7 288 4.9 288.8 5.3 C 289.5 5.7 290.1 6.3 290.5 7.2 C 290.9 8 291.1 9 291.1 10.3 C 291.13 10.28 291.1 19.6 291.1 19.6 L 288.9 19.6 C 288.9 19.6 288.86 10.43 288.9 10.4 C 288.9 9.3 288.6 8.4 288 7.7 C 287.4 7.1 286.5 6.8 285.5 6.8 C 284.8 6.8 284.1 6.9 283.6 7.2 C 283 7.5 282.5 8 282.2 8.6 C 281.9 9.2 281.7 9.9 281.7 10.8 Z M 299.3 20 C 298.4 20 297.6 19.8 296.8 19.4 C 296 19.1 295.4 18.6 295 17.9 C 294.5 17.2 294.3 16.4 294.3 15.5 C 294.3 14.6 294.5 13.9 294.8 13.4 C 295.1 12.9 295.6 12.5 296.1 12.2 C 296.7 11.9 297.3 11.6 298 11.5 C 298.7 11.3 299.3 11.2 300 11.1 C 300.9 11 301.6 10.9 302.2 10.9 C 302.8 10.8 303.2 10.7 303.4 10.5 C 303.7 10.4 303.8 10.1 303.8 9.8 C 303.8 9.8 303.8 9.7 303.8 9.7 C 303.8 8.8 303.6 8 303 7.5 C 302.5 7 301.8 6.7 300.7 6.7 C 299.6 6.7 298.8 6.9 298.2 7.4 C 297.6 7.9 297.1 8.4 296.9 8.9 C 296.9 8.9 294.7 8.2 294.7 8.2 C 295.1 7.3 295.6 6.6 296.3 6.1 C 296.9 5.6 297.6 5.2 298.4 5 C 299.1 4.8 299.9 4.7 300.6 4.7 C 301.1 4.7 301.7 4.8 302.3 4.9 C 302.9 5 303.5 5.2 304.1 5.6 C 304.6 5.9 305.1 6.4 305.5 7.1 C 305.9 7.8 306.1 8.8 306.1 9.9 C 306.08 9.93 306.1 19.6 306.1 19.6 L 303.8 19.6 L 303.8 17.6 C 303.8 17.6 303.71 17.64 303.7 17.6 C 303.6 18 303.3 18.3 302.9 18.7 C 302.6 19 302.1 19.3 301.5 19.6 C 300.9 19.9 300.2 20 299.3 20 Z M 299.7 17.9 C 300.6 17.9 301.3 17.8 301.9 17.4 C 302.6 17.1 303 16.6 303.3 16.1 C 303.7 15.5 303.8 14.9 303.8 14.3 C 303.8 14.3 303.8 12.2 303.8 12.2 C 303.7 12.3 303.5 12.5 303.2 12.5 C 302.9 12.6 302.5 12.7 302.1 12.8 C 301.7 12.9 301.3 12.9 300.9 13 C 300.5 13 300.2 13 299.9 13.1 C 299.3 13.2 298.8 13.3 298.3 13.4 C 297.8 13.6 297.3 13.9 297 14.2 C 296.7 14.5 296.6 15 296.6 15.6 C 296.6 16.4 296.9 17 297.5 17.3 C 298 17.7 298.8 17.9 299.7 17.9 Z M 312.4 0 L 312.4 19.6 L 310.1 19.6 L 310.1 0 L 312.4 0 Z M 316.4 19.6 L 316.4 4.9 L 318.7 4.9 L 318.7 19.6 L 316.4 19.6 Z M 317.6 2.5 C 317.1 2.5 316.7 2.3 316.4 2 C 316.1 1.7 316 1.3 316 0.9 C 316 0.5 316.1 0.1 316.4 -0.2 C 316.7 -0.5 317.1 -0.6 317.6 -0.6 C 318 -0.6 318.4 -0.5 318.7 -0.2 C 319 0.1 319.2 0.5 319.2 0.9 C 319.2 1.3 319 1.7 318.7 2 C 318.4 2.3 318 2.5 317.6 2.5 Z M 329 4.9 L 329 6.8 L 321.4 6.8 L 321.4 4.9 L 329 4.9 Z M 323.6 1.4 L 325.9 1.4 C 325.9 1.4 325.86 15.42 325.9 15.4 C 325.9 16.1 326 16.5 326.1 16.9 C 326.3 17.2 326.6 17.4 326.9 17.5 C 327.2 17.6 327.5 17.6 327.8 17.6 C 328.1 17.6 328.3 17.6 328.4 17.6 C 328.6 17.6 328.7 17.5 328.8 17.5 C 328.8 17.5 329.3 19.6 329.3 19.6 C 329.1 19.6 328.9 19.7 328.6 19.7 C 328.4 19.8 328 19.8 327.6 19.8 C 326.9 19.8 326.3 19.7 325.7 19.4 C 325.1 19.1 324.6 18.7 324.2 18.2 C 323.8 17.6 323.6 16.9 323.6 16 C 323.59 16.03 323.6 1.4 323.6 1.4 Z M 334 25.2 C 333.6 25.2 333.3 25.1 333 25.1 C 332.7 25 332.4 24.9 332.3 24.9 C 332.3 24.9 332.9 22.9 332.9 22.9 C 333.5 23 333.9 23.1 334.4 23 C 334.8 23 335.2 22.8 335.5 22.5 C 335.8 22.2 336.1 21.6 336.4 20.9 C 336.39 20.86 336.8 19.7 336.8 19.7 L 331.4 4.9 L 333.8 4.9 L 337.9 16.6 L 338 16.6 L 342.1 4.9 L 344.6 4.9 C 344.6 4.9 338.31 21.78 338.3 21.8 C 338 22.5 337.7 23.2 337.3 23.7 C 336.8 24.2 336.4 24.6 335.8 24.8 C 335.3 25 334.7 25.2 334 25.2 Z " stroke="none" fill="#ffffff"/>  </g></svg>