<?xml version="1.0" standalone="no"?><!DOCTYPE svg PUBLIC "-//W3C//DTD SVG 1.1//EN" "http://www.w3.org/Graphics/SVG/1.1/DTD/svg11.dtd"><svg xmlns="http://www.w3.org/2000/svg" version="1.1" width="1274px" height="193.2px" viewBox="0 -25 1274 193.2" style="top:-25px">  <desc>Anaplan provides the right AI for scenario planning challenges</desc>  <defs/>  <g id="Polygon119350">    <path d="M 34.5 103 C 34.5 103 25.2 103.6 25.2 103.6 C 25 102.8 24.7 102.1 24.1 101.4 C 23.6 100.8 22.9 100.3 22.1 99.9 C 21.2 99.5 20.2 99.3 19.1 99.3 C 17.5 99.3 16.2 99.6 15.1 100.3 C 14 100.9 13.5 101.8 13.5 102.9 C 13.5 103.8 13.8 104.5 14.5 105.1 C 15.2 105.7 16.4 106.2 18.1 106.6 C 18.1 106.6 24.7 107.9 24.7 107.9 C 28.3 108.6 30.9 109.8 32.7 111.4 C 34.4 113 35.3 115.2 35.3 117.8 C 35.3 120.2 34.6 122.3 33.2 124.1 C 31.8 125.9 29.9 127.3 27.4 128.3 C 25 129.3 22.2 129.8 19 129.8 C 14.2 129.8 10.3 128.8 7.5 126.8 C 4.6 124.8 2.9 122 2.4 118.5 C 2.4 118.5 12.4 118 12.4 118 C 12.7 119.5 13.4 120.6 14.6 121.4 C 15.7 122.2 17.2 122.5 19 122.5 C 20.8 122.5 22.2 122.2 23.3 121.5 C 24.4 120.8 25 119.9 25 118.8 C 25 117.9 24.6 117.1 23.8 116.6 C 23.1 116 21.9 115.5 20.3 115.2 C 20.3 115.2 14 113.9 14 113.9 C 10.4 113.2 7.7 112 6 110.2 C 4.3 108.5 3.4 106.2 3.4 103.5 C 3.4 101.1 4 99.1 5.3 97.4 C 6.6 95.7 8.4 94.4 10.7 93.5 C 13 92.6 15.8 92.1 18.9 92.1 C 23.5 92.1 27.1 93.1 29.8 95 C 32.5 97 34 99.6 34.5 103 Z M 55.7 129.8 C 51.9 129.8 48.7 129 46 127.4 C 43.3 125.9 41.3 123.6 39.8 120.8 C 38.4 118 37.7 114.7 37.7 111 C 37.7 107.3 38.4 104 39.9 101.1 C 41.3 98.3 43.4 96.1 46.1 94.5 C 48.7 92.9 51.9 92.1 55.6 92.1 C 58.8 92.1 61.6 92.7 64 93.8 C 66.4 95 68.3 96.6 69.7 98.7 C 71.1 100.8 71.9 103.3 72 106.1 C 72 106.1 62.4 106.1 62.4 106.1 C 62.2 104.3 61.5 102.8 60.3 101.7 C 59.2 100.6 57.7 100 55.8 100 C 54.2 100 52.9 100.4 51.7 101.3 C 50.5 102.1 49.6 103.4 49 105 C 48.3 106.6 48 108.6 48 110.9 C 48 113.2 48.3 115.2 49 116.8 C 49.6 118.4 50.5 119.7 51.7 120.5 C 52.9 121.4 54.2 121.8 55.8 121.8 C 57 121.8 58 121.6 58.9 121.1 C 59.9 120.6 60.6 119.9 61.2 119 C 61.8 118.1 62.2 117 62.4 115.7 C 62.4 115.7 72 115.7 72 115.7 C 71.8 118.5 71.1 121 69.7 123.1 C 68.4 125.2 66.5 126.9 64.1 128.1 C 61.7 129.2 58.9 129.8 55.7 129.8 Z M 92.6 129.8 C 88.9 129.8 85.6 129.1 82.9 127.5 C 80.2 126 78.1 123.8 76.7 121 C 75.2 118.2 74.5 114.9 74.5 111 C 74.5 107.3 75.2 104 76.7 101.1 C 78.1 98.3 80.2 96.1 82.9 94.5 C 85.5 92.9 88.6 92.1 92.2 92.1 C 94.6 92.1 96.9 92.5 99 93.3 C 101.1 94 102.9 95.2 104.4 96.7 C 106 98.3 107.2 100.2 108.1 102.5 C 109 104.8 109.4 107.6 109.4 110.7 C 109.4 110.66 109.4 113.4 109.4 113.4 L 78.5 113.4 L 78.5 107.2 C 78.5 107.2 99.86 107.17 99.9 107.2 C 99.9 105.7 99.5 104.4 98.9 103.3 C 98.3 102.2 97.4 101.3 96.3 100.6 C 95.2 100 93.9 99.7 92.4 99.7 C 90.9 99.7 89.5 100 88.3 100.7 C 87.1 101.4 86.2 102.4 85.5 103.6 C 84.9 104.7 84.5 106.1 84.5 107.5 C 84.5 107.5 84.5 113.5 84.5 113.5 C 84.5 115.3 84.9 116.8 85.5 118.2 C 86.2 119.5 87.2 120.5 88.4 121.2 C 89.6 121.9 91.1 122.3 92.8 122.3 C 93.9 122.3 95 122.1 95.9 121.8 C 96.8 121.5 97.6 121 98.3 120.4 C 99 119.7 99.5 119 99.8 118 C 99.8 118 109.2 118.7 109.2 118.7 C 108.7 120.9 107.7 122.9 106.3 124.5 C 104.8 126.2 102.9 127.5 100.6 128.4 C 98.3 129.4 95.6 129.8 92.6 129.8 Z M 124.2 108 C 124.19 108 124.2 129.1 124.2 129.1 L 114.1 129.1 L 114.1 92.6 L 123.7 92.6 L 123.7 99 C 123.7 99 124.14 99.03 124.1 99 C 124.9 96.9 126.3 95.2 128.2 94 C 130.1 92.7 132.4 92.1 135.1 92.1 C 137.7 92.1 139.9 92.7 141.8 93.8 C 143.7 94.9 145.1 96.5 146.2 98.5 C 147.2 100.6 147.7 103 147.7 105.9 C 147.74 105.86 147.7 129.1 147.7 129.1 L 137.6 129.1 C 137.6 129.1 137.61 107.67 137.6 107.7 C 137.6 105.4 137.1 103.7 135.9 102.4 C 134.7 101.2 133.1 100.5 131.1 100.5 C 129.7 100.5 128.5 100.8 127.5 101.4 C 126.5 102 125.7 102.8 125.1 104 C 124.5 105.1 124.2 106.4 124.2 108 Z M 163.9 129.8 C 161.6 129.8 159.5 129.4 157.6 128.6 C 155.8 127.8 154.4 126.6 153.3 125 C 152.3 123.3 151.7 121.3 151.7 118.9 C 151.7 116.9 152.1 115.2 152.9 113.8 C 153.6 112.4 154.6 111.3 155.9 110.5 C 157.2 109.6 158.7 109 160.3 108.6 C 161.9 108.1 163.7 107.8 165.5 107.7 C 167.6 107.4 169.3 107.2 170.6 107 C 171.9 106.8 172.9 106.5 173.4 106.1 C 174 105.7 174.3 105.2 174.3 104.4 C 174.3 104.4 174.3 104.2 174.3 104.2 C 174.3 102.7 173.9 101.6 172.9 100.7 C 172 99.9 170.6 99.5 168.9 99.5 C 167.1 99.5 165.6 99.9 164.5 100.7 C 163.5 101.5 162.8 102.5 162.4 103.7 C 162.4 103.7 153 103 153 103 C 153.5 100.7 154.4 98.8 155.8 97.2 C 157.2 95.6 159 94.3 161.3 93.4 C 163.5 92.5 166 92.1 168.9 92.1 C 171 92.1 172.9 92.3 174.8 92.8 C 176.7 93.3 178.3 94 179.8 95 C 181.2 96 182.4 97.3 183.2 98.9 C 184 100.4 184.5 102.3 184.5 104.5 C 184.46 104.48 184.5 129.1 184.5 129.1 L 174.9 129.1 L 174.9 124.1 C 174.9 124.1 174.56 124.06 174.6 124.1 C 174 125.2 173.2 126.2 172.2 127.1 C 171.2 127.9 170 128.6 168.7 129.1 C 167.3 129.6 165.7 129.8 163.9 129.8 Z M 166.8 122.8 C 168.3 122.8 169.6 122.5 170.7 121.9 C 171.9 121.3 172.8 120.5 173.4 119.5 C 174.1 118.5 174.4 117.3 174.4 116.1 C 174.4 116.1 174.4 112.2 174.4 112.2 C 174.1 112.4 173.6 112.6 173.1 112.7 C 172.6 112.9 171.9 113.1 171.3 113.2 C 170.6 113.3 169.9 113.5 169.2 113.6 C 168.5 113.7 167.9 113.7 167.4 113.8 C 166.2 114 165.1 114.3 164.2 114.7 C 163.4 115 162.7 115.6 162.2 116.2 C 161.7 116.8 161.4 117.6 161.4 118.6 C 161.4 120 161.9 121 162.9 121.7 C 163.9 122.5 165.2 122.8 166.8 122.8 Z M 190.5 129.1 L 190.5 92.6 L 200.3 92.6 L 200.3 99 C 200.3 99 200.66 98.96 200.7 99 C 201.3 96.7 202.4 95 204 93.8 C 205.6 92.6 207.4 92.1 209.4 92.1 C 209.9 92.1 210.5 92.1 211.1 92.2 C 211.7 92.2 212.2 92.3 212.6 92.4 C 212.6 92.4 212.6 101.4 212.6 101.4 C 212.2 101.3 211.5 101.1 210.7 101 C 209.8 100.9 209 100.9 208.3 100.9 C 206.9 100.9 205.5 101.2 204.4 101.8 C 203.2 102.5 202.3 103.4 201.6 104.5 C 200.9 105.6 200.6 107 200.6 108.5 C 200.59 108.45 200.6 129.1 200.6 129.1 L 190.5 129.1 Z M 215.4 129.1 L 215.4 92.6 L 225.5 92.6 L 225.5 129.1 L 215.4 129.1 Z M 220.4 87.9 C 218.9 87.9 217.6 87.4 216.6 86.4 C 215.5 85.4 215 84.2 215 82.8 C 215 81.3 215.5 80.1 216.6 79.1 C 217.7 78.1 219 77.6 220.4 77.6 C 222 77.6 223.2 78.1 224.3 79.1 C 225.4 80.1 225.9 81.3 225.9 82.7 C 225.9 84.1 225.4 85.4 224.3 86.4 C 223.2 87.4 222 87.9 220.4 87.9 Z M 247.9 129.8 C 244.2 129.8 241 129.1 238.3 127.5 C 235.6 125.9 233.5 123.7 232.1 120.9 C 230.6 118 229.9 114.7 229.9 111 C 229.9 107.2 230.6 103.9 232.1 101.1 C 233.5 98.3 235.6 96.1 238.3 94.5 C 241 92.9 244.2 92.1 247.9 92.1 C 251.6 92.1 254.8 92.9 257.4 94.5 C 260.1 96.1 262.2 98.3 263.7 101.1 C 265.1 103.9 265.9 107.2 265.9 111 C 265.9 114.7 265.1 118 263.7 120.9 C 262.2 123.7 260.1 125.9 257.4 127.5 C 254.8 129.1 251.6 129.8 247.9 129.8 Z M 247.9 122 C 249.6 122 251 121.5 252.1 120.6 C 253.3 119.6 254.1 118.3 254.7 116.6 C 255.3 114.9 255.6 113.1 255.6 110.9 C 255.6 108.8 255.3 106.9 254.7 105.2 C 254.1 103.6 253.3 102.3 252.1 101.3 C 251 100.3 249.6 99.8 247.9 99.8 C 246.2 99.8 244.8 100.3 243.6 101.3 C 242.5 102.3 241.6 103.6 241 105.2 C 240.5 106.9 240.2 108.8 240.2 110.9 C 240.2 113.1 240.5 114.9 241 116.6 C 241.6 118.3 242.5 119.6 243.6 120.6 C 244.8 121.5 246.2 122 247.9 122 Z M 285.3 142.8 L 285.3 92.6 L 295.3 92.6 L 295.3 98.7 C 295.3 98.7 295.77 98.72 295.8 98.7 C 296.2 97.7 296.9 96.7 297.7 95.7 C 298.6 94.7 299.7 93.8 301 93.1 C 302.4 92.5 304.1 92.1 306.2 92.1 C 308.8 92.1 311.3 92.8 313.5 94.2 C 315.8 95.6 317.6 97.7 318.9 100.4 C 320.3 103.2 321 106.7 321 110.9 C 321 115 320.3 118.4 319 121.2 C 317.7 124 315.9 126.1 313.7 127.6 C 311.4 129 308.9 129.7 306.1 129.7 C 304.2 129.7 302.5 129.4 301.1 128.7 C 299.8 128.1 298.6 127.3 297.8 126.3 C 296.9 125.3 296.2 124.3 295.8 123.3 C 295.77 123.27 295.5 123.3 295.5 123.3 L 295.5 142.8 L 285.3 142.8 Z M 295.2 110.9 C 295.2 113 295.5 114.9 296.1 116.5 C 296.8 118.2 297.6 119.4 298.8 120.3 C 299.9 121.2 301.3 121.7 302.9 121.7 C 304.6 121.7 306 121.2 307.1 120.3 C 308.3 119.4 309.1 118.1 309.7 116.5 C 310.3 114.9 310.6 113 310.6 110.9 C 310.6 108.7 310.3 106.9 309.7 105.3 C 309.1 103.7 308.3 102.4 307.1 101.5 C 306 100.6 304.6 100.2 302.9 100.2 C 301.3 100.2 299.9 100.6 298.8 101.5 C 297.6 102.4 296.8 103.6 296.1 105.2 C 295.5 106.8 295.2 108.7 295.2 110.9 Z M 335.9 80.4 L 335.9 129.1 L 325.7 129.1 L 325.7 80.4 L 335.9 80.4 Z M 352.3 129.8 C 349.9 129.8 347.9 129.4 346 128.6 C 344.2 127.8 342.8 126.6 341.7 125 C 340.7 123.3 340.1 121.3 340.1 118.9 C 340.1 116.9 340.5 115.2 341.3 113.8 C 342 112.4 343 111.3 344.3 110.5 C 345.6 109.6 347 109 348.7 108.6 C 350.3 108.1 352.1 107.8 353.9 107.7 C 356 107.4 357.7 107.2 359 107 C 360.3 106.8 361.2 106.5 361.8 106.1 C 362.4 105.7 362.7 105.2 362.7 104.4 C 362.7 104.4 362.7 104.2 362.7 104.2 C 362.7 102.7 362.2 101.6 361.3 100.7 C 360.4 99.9 359 99.5 357.3 99.5 C 355.5 99.5 354 99.9 352.9 100.7 C 351.9 101.5 351.1 102.5 350.8 103.7 C 350.8 103.7 341.4 103 341.4 103 C 341.9 100.7 342.8 98.8 344.2 97.2 C 345.6 95.6 347.4 94.3 349.6 93.4 C 351.9 92.5 354.4 92.1 357.3 92.1 C 359.4 92.1 361.3 92.3 363.2 92.8 C 365 93.3 366.7 94 368.2 95 C 369.6 96 370.7 97.3 371.6 98.9 C 372.4 100.4 372.8 102.3 372.8 104.5 C 372.85 104.48 372.8 129.1 372.8 129.1 L 363.2 129.1 L 363.2 124.1 C 363.2 124.1 362.95 124.06 363 124.1 C 362.4 125.2 361.6 126.2 360.6 127.1 C 359.6 127.9 358.4 128.6 357.1 129.1 C 355.7 129.6 354.1 129.8 352.3 129.8 Z M 355.2 122.8 C 356.7 122.8 358 122.5 359.1 121.9 C 360.3 121.3 361.2 120.5 361.8 119.5 C 362.5 118.5 362.8 117.3 362.8 116.1 C 362.8 116.1 362.8 112.2 362.8 112.2 C 362.5 112.4 362 112.6 361.5 112.7 C 360.9 112.9 360.3 113.1 359.6 113.2 C 359 113.3 358.3 113.5 357.6 113.6 C 356.9 113.7 356.3 113.7 355.7 113.8 C 354.6 114 353.5 114.3 352.6 114.7 C 351.7 115 351 115.6 350.6 116.2 C 350.1 116.8 349.8 117.6 349.8 118.6 C 349.8 120 350.3 121 351.3 121.7 C 352.3 122.5 353.6 122.8 355.2 122.8 Z M 389 108 C 388.98 108 389 129.1 389 129.1 L 378.8 129.1 L 378.8 92.6 L 388.5 92.6 L 388.5 99 C 388.5 99 388.93 99.03 388.9 99 C 389.7 96.9 391.1 95.2 393 94 C 394.9 92.7 397.2 92.1 399.9 92.1 C 402.5 92.1 404.7 92.7 406.6 93.8 C 408.4 94.9 409.9 96.5 411 98.5 C 412 100.6 412.5 103 412.5 105.9 C 412.53 105.86 412.5 129.1 412.5 129.1 L 402.4 129.1 C 402.4 129.1 402.4 107.67 402.4 107.7 C 402.4 105.4 401.8 103.7 400.7 102.4 C 399.5 101.2 397.9 100.5 395.9 100.5 C 394.5 100.5 393.3 100.8 392.3 101.4 C 391.3 102 390.4 102.8 389.9 104 C 389.3 105.1 389 106.4 389 108 Z M 428.7 108 C 428.67 108 428.7 129.1 428.7 129.1 L 418.5 129.1 L 418.5 92.6 L 428.2 92.6 L 428.2 99 C 428.2 99 428.62 99.03 428.6 99 C 429.4 96.9 430.8 95.2 432.7 94 C 434.6 92.7 436.9 92.1 439.6 92.1 C 442.1 92.1 444.4 92.7 446.3 93.8 C 448.1 94.9 449.6 96.5 450.7 98.5 C 451.7 100.6 452.2 103 452.2 105.9 C 452.22 105.86 452.2 129.1 452.2 129.1 L 442.1 129.1 C 442.1 129.1 442.09 107.67 442.1 107.7 C 442.1 105.4 441.5 103.7 440.4 102.4 C 439.2 101.2 437.6 100.5 435.6 100.5 C 434.2 100.5 433 100.8 432 101.4 C 430.9 102 430.1 102.8 429.6 104 C 429 105.1 428.7 106.4 428.7 108 Z M 458.1 129.1 L 458.1 92.6 L 468.2 92.6 L 468.2 129.1 L 458.1 129.1 Z M 463.2 87.9 C 461.7 87.9 460.4 87.4 459.3 86.4 C 458.2 85.4 457.7 84.2 457.7 82.8 C 457.7 81.3 458.2 80.1 459.3 79.1 C 460.4 78.1 461.7 77.6 463.2 77.6 C 464.7 77.6 466 78.1 467 79.1 C 468.1 80.1 468.7 81.3 468.7 82.7 C 468.7 84.1 468.1 85.4 467 86.4 C 466 87.4 464.7 87.9 463.2 87.9 Z M 484.5 108 C 484.51 108 484.5 129.1 484.5 129.1 L 474.4 129.1 L 474.4 92.6 L 484 92.6 L 484 99 C 484 99 484.46 99.03 484.5 99 C 485.3 96.9 486.6 95.2 488.5 94 C 490.4 92.7 492.7 92.1 495.4 92.1 C 498 92.1 500.2 92.7 502.1 93.8 C 504 94.9 505.4 96.5 506.5 98.5 C 507.5 100.6 508.1 103 508.1 105.9 C 508.06 105.86 508.1 129.1 508.1 129.1 L 497.9 129.1 C 497.9 129.1 497.92 107.67 497.9 107.7 C 497.9 105.4 497.4 103.7 496.2 102.4 C 495.1 101.2 493.5 100.5 491.4 100.5 C 490.1 100.5 488.9 100.8 487.8 101.4 C 486.8 102 486 102.8 485.4 104 C 484.8 105.1 484.5 106.4 484.5 108 Z M 530.3 143.6 C 527 143.6 524.2 143.1 521.9 142.2 C 519.5 141.4 517.7 140.1 516.3 138.6 C 514.9 137.1 514 135.3 513.6 133.4 C 513.6 133.4 523 132.1 523 132.1 C 523.2 132.9 523.7 133.6 524.3 134.2 C 524.9 134.8 525.8 135.3 526.8 135.7 C 527.8 136.1 529.1 136.3 530.5 136.3 C 532.7 136.3 534.6 135.8 536 134.7 C 537.4 133.6 538.1 131.8 538.1 129.3 C 538.14 129.34 538.1 122.7 538.1 122.7 C 538.1 122.7 537.71 122.66 537.7 122.7 C 537.3 123.7 536.6 124.6 535.7 125.5 C 534.8 126.4 533.7 127.2 532.3 127.7 C 530.9 128.3 529.2 128.6 527.3 128.6 C 524.5 128.6 522.1 128 519.8 126.7 C 517.6 125.4 515.8 123.5 514.5 120.8 C 513.1 118.2 512.5 114.8 512.5 110.8 C 512.5 106.6 513.1 103.2 514.5 100.4 C 515.8 97.6 517.6 95.6 519.9 94.2 C 522.1 92.8 524.6 92.1 527.3 92.1 C 529.3 92.1 531 92.5 532.4 93.1 C 533.8 93.8 534.9 94.7 535.8 95.7 C 536.6 96.7 537.3 97.7 537.7 98.7 C 537.71 98.72 538.1 98.7 538.1 98.7 L 538.1 92.6 L 548.2 92.6 C 548.2 92.6 548.16 129.48 548.2 129.5 C 548.2 132.6 547.4 135.2 545.9 137.3 C 544.4 139.4 542.2 141 539.6 142 C 536.9 143.1 533.8 143.6 530.3 143.6 Z M 530.5 121 C 532.1 121 533.5 120.6 534.7 119.8 C 535.8 118.9 536.7 117.8 537.3 116.2 C 537.9 114.7 538.2 112.9 538.2 110.7 C 538.2 108.6 537.9 106.7 537.3 105.2 C 536.7 103.6 535.8 102.4 534.7 101.5 C 533.5 100.6 532.1 100.2 530.5 100.2 C 528.8 100.2 527.4 100.6 526.3 101.5 C 525.2 102.4 524.3 103.7 523.7 105.2 C 523.1 106.8 522.8 108.7 522.8 110.7 C 522.8 112.8 523.1 114.7 523.7 116.2 C 524.3 117.7 525.2 118.9 526.3 119.7 C 527.4 120.6 528.8 121 530.5 121 Z M 585.6 129.8 C 581.9 129.8 578.7 129 576 127.4 C 573.3 125.9 571.2 123.6 569.8 120.8 C 568.3 118 567.6 114.7 567.6 111 C 567.6 107.3 568.4 104 569.8 101.1 C 571.3 98.3 573.3 96.1 576 94.5 C 578.7 92.9 581.9 92.1 585.6 92.1 C 588.8 92.1 591.5 92.7 593.9 93.8 C 596.3 95 598.2 96.6 599.6 98.7 C 601 100.8 601.8 103.3 601.9 106.1 C 601.9 106.1 592.4 106.1 592.4 106.1 C 592.1 104.3 591.4 102.8 590.2 101.7 C 589.1 100.6 587.6 100 585.7 100 C 584.2 100 582.8 100.4 581.6 101.3 C 580.5 102.1 579.6 103.4 578.9 105 C 578.3 106.6 577.9 108.6 577.9 110.9 C 577.9 113.2 578.3 115.2 578.9 116.8 C 579.5 118.4 580.4 119.7 581.6 120.5 C 582.8 121.4 584.2 121.8 585.7 121.8 C 586.9 121.8 587.9 121.6 588.9 121.1 C 589.8 120.6 590.6 119.9 591.2 119 C 591.8 118.1 592.2 117 592.4 115.7 C 592.4 115.7 601.9 115.7 601.9 115.7 C 601.8 118.5 601 121 599.7 123.1 C 598.3 125.2 596.4 126.9 594.1 128.1 C 591.7 129.2 588.9 129.8 585.6 129.8 Z M 616.4 108 C 616.44 108 616.4 129.1 616.4 129.1 L 606.3 129.1 L 606.3 80.4 L 616.2 80.4 L 616.2 99 C 616.2 99 616.58 99.03 616.6 99 C 617.4 96.9 618.7 95.2 620.6 93.9 C 622.4 92.7 624.7 92.1 627.5 92.1 C 630 92.1 632.3 92.7 634.2 93.8 C 636.1 94.9 637.5 96.4 638.6 98.5 C 639.6 100.5 640.2 103 640.1 105.9 C 640.14 105.86 640.1 129.1 640.1 129.1 L 630 129.1 C 630 129.1 630 107.67 630 107.7 C 630 105.4 629.5 103.7 628.3 102.4 C 627.2 101.2 625.5 100.5 623.5 100.5 C 622.1 100.5 620.9 100.8 619.8 101.4 C 618.8 102 618 102.8 617.4 104 C 616.8 105.1 616.5 106.4 616.4 108 Z M 656.3 129.8 C 654 129.8 651.9 129.4 650 128.6 C 648.2 127.8 646.8 126.6 645.7 125 C 644.7 123.3 644.1 121.3 644.1 118.9 C 644.1 116.9 644.5 115.2 645.3 113.8 C 646 112.4 647 111.3 648.3 110.5 C 649.6 109.6 651.1 109 652.7 108.6 C 654.3 108.1 656.1 107.8 657.9 107.7 C 660 107.4 661.7 107.2 663 107 C 664.3 106.8 665.3 106.5 665.8 106.1 C 666.4 105.7 666.7 105.2 666.7 104.4 C 666.7 104.4 666.7 104.2 666.7 104.2 C 666.7 102.7 666.3 101.6 665.3 100.7 C 664.4 99.9 663 99.5 661.3 99.5 C 659.5 99.5 658 99.9 656.9 100.7 C 655.9 101.5 655.2 102.5 654.8 103.7 C 654.8 103.7 645.4 103 645.4 103 C 645.9 100.7 646.8 98.8 648.2 97.2 C 649.6 95.6 651.4 94.3 653.7 93.4 C 655.9 92.5 658.4 92.1 661.4 92.1 C 663.4 92.1 665.3 92.3 667.2 92.8 C 669.1 93.3 670.7 94 672.2 95 C 673.6 96 674.8 97.3 675.6 98.9 C 676.4 100.4 676.9 102.3 676.9 104.5 C 676.86 104.48 676.9 129.1 676.9 129.1 L 667.3 129.1 L 667.3 124.1 C 667.3 124.1 666.97 124.06 667 124.1 C 666.4 125.2 665.6 126.2 664.6 127.1 C 663.6 127.9 662.4 128.6 661.1 129.1 C 659.7 129.6 658.1 129.8 656.3 129.8 Z M 659.2 122.8 C 660.7 122.8 662 122.5 663.1 121.9 C 664.3 121.3 665.2 120.5 665.8 119.5 C 666.5 118.5 666.8 117.3 666.8 116.1 C 666.8 116.1 666.8 112.2 666.8 112.2 C 666.5 112.4 666 112.6 665.5 112.7 C 665 112.9 664.3 113.1 663.7 113.2 C 663 113.3 662.3 113.5 661.6 113.6 C 660.9 113.7 660.3 113.7 659.8 113.8 C 658.6 114 657.5 114.3 656.6 114.7 C 655.8 115 655.1 115.6 654.6 116.2 C 654.1 116.8 653.8 117.6 653.8 118.6 C 653.8 120 654.3 121 655.3 121.7 C 656.4 122.5 657.6 122.8 659.2 122.8 Z M 693 80.4 L 693 129.1 L 682.9 129.1 L 682.9 80.4 L 693 80.4 Z M 709.2 80.4 L 709.2 129.1 L 699.1 129.1 L 699.1 80.4 L 709.2 80.4 Z M 731.9 129.8 C 728.1 129.8 724.9 129.1 722.2 127.5 C 719.5 126 717.4 123.8 715.9 121 C 714.5 118.2 713.7 114.9 713.7 111 C 713.7 107.3 714.5 104 715.9 101.1 C 717.4 98.3 719.4 96.1 722.1 94.5 C 724.7 92.9 727.9 92.1 731.5 92.1 C 733.9 92.1 736.1 92.5 738.2 93.3 C 740.3 94 742.1 95.2 743.7 96.7 C 745.2 98.3 746.5 100.2 747.3 102.5 C 748.2 104.8 748.6 107.6 748.6 110.7 C 748.63 110.66 748.6 113.4 748.6 113.4 L 717.8 113.4 L 717.8 107.2 C 717.8 107.2 739.09 107.17 739.1 107.2 C 739.1 105.7 738.8 104.4 738.1 103.3 C 737.5 102.2 736.6 101.3 735.5 100.6 C 734.4 100 733.1 99.7 731.6 99.7 C 730.1 99.7 728.7 100 727.5 100.7 C 726.4 101.4 725.4 102.4 724.8 103.6 C 724.1 104.7 723.8 106.1 723.7 107.5 C 723.7 107.5 723.7 113.5 723.7 113.5 C 723.7 115.3 724.1 116.8 724.8 118.2 C 725.4 119.5 726.4 120.5 727.6 121.2 C 728.9 121.9 730.3 122.3 732 122.3 C 733.2 122.3 734.2 122.1 735.1 121.8 C 736.1 121.5 736.9 121 737.5 120.4 C 738.2 119.7 738.7 119 739 118 C 739 118 748.4 118.7 748.4 118.7 C 747.9 120.9 747 122.9 745.5 124.5 C 744 126.2 742.1 127.5 739.8 128.4 C 737.5 129.4 734.9 129.8 731.9 129.8 Z M 763.4 108 C 763.42 108 763.4 129.1 763.4 129.1 L 753.3 129.1 L 753.3 92.6 L 762.9 92.6 L 762.9 99 C 762.9 99 763.37 99.03 763.4 99 C 764.2 96.9 765.5 95.2 767.4 94 C 769.3 92.7 771.7 92.1 774.4 92.1 C 776.9 92.1 779.1 92.7 781 93.8 C 782.9 94.9 784.4 96.5 785.4 98.5 C 786.5 100.6 787 103 787 105.9 C 786.97 105.86 787 129.1 787 129.1 L 776.8 129.1 C 776.8 129.1 776.84 107.67 776.8 107.7 C 776.9 105.4 776.3 103.7 775.1 102.4 C 774 101.2 772.4 100.5 770.3 100.5 C 769 100.5 767.8 100.8 766.7 101.4 C 765.7 102 764.9 102.8 764.3 104 C 763.7 105.1 763.4 106.4 763.4 108 Z M 809.2 143.6 C 805.9 143.6 803.1 143.1 800.8 142.2 C 798.4 141.4 796.6 140.1 795.2 138.6 C 793.8 137.1 792.9 135.3 792.5 133.4 C 792.5 133.4 801.9 132.1 801.9 132.1 C 802.2 132.9 802.6 133.6 803.2 134.2 C 803.9 134.8 804.7 135.3 805.7 135.7 C 806.7 136.1 808 136.3 809.4 136.3 C 811.6 136.3 813.5 135.8 814.9 134.7 C 816.3 133.6 817.1 131.8 817.1 129.3 C 817.06 129.34 817.1 122.7 817.1 122.7 C 817.1 122.7 816.63 122.66 816.6 122.7 C 816.2 123.7 815.5 124.6 814.6 125.5 C 813.7 126.4 812.6 127.2 811.2 127.7 C 809.8 128.3 808.1 128.6 806.2 128.6 C 803.5 128.6 801 128 798.7 126.7 C 796.5 125.4 794.7 123.5 793.4 120.8 C 792 118.2 791.4 114.8 791.4 110.8 C 791.4 106.6 792.1 103.2 793.4 100.4 C 794.8 97.6 796.5 95.6 798.8 94.2 C 801 92.8 803.5 92.1 806.2 92.1 C 808.2 92.1 809.9 92.5 811.3 93.1 C 812.7 93.8 813.8 94.7 814.7 95.7 C 815.5 96.7 816.2 97.7 816.6 98.7 C 816.63 98.72 817 98.7 817 98.7 L 817 92.6 L 827.1 92.6 C 827.1 92.6 827.07 129.48 827.1 129.5 C 827.1 132.6 826.3 135.2 824.8 137.3 C 823.3 139.4 821.2 141 818.5 142 C 815.8 143.1 812.7 143.6 809.2 143.6 Z M 809.4 121 C 811.1 121 812.4 120.6 813.6 119.8 C 814.7 118.9 815.6 117.8 816.2 116.2 C 816.8 114.7 817.1 112.9 817.1 110.7 C 817.1 108.6 816.8 106.7 816.2 105.2 C 815.6 103.6 814.7 102.4 813.6 101.5 C 812.4 100.6 811.1 100.2 809.4 100.2 C 807.8 100.2 806.3 100.6 805.2 101.5 C 804.1 102.4 803.2 103.7 802.6 105.2 C 802 106.8 801.7 108.7 801.7 110.7 C 801.7 112.8 802 114.7 802.6 116.2 C 803.2 117.7 804.1 118.9 805.2 119.7 C 806.4 120.6 807.8 121 809.4 121 Z M 849.7 129.8 C 846 129.8 842.7 129.1 840 127.5 C 837.3 126 835.2 123.8 833.8 121 C 832.3 118.2 831.6 114.9 831.6 111 C 831.6 107.3 832.3 104 833.8 101.1 C 835.2 98.3 837.3 96.1 840 94.5 C 842.6 92.9 845.7 92.1 849.3 92.1 C 851.7 92.1 854 92.5 856.1 93.3 C 858.1 94 860 95.2 861.5 96.7 C 863.1 98.3 864.3 100.2 865.2 102.5 C 866.1 104.8 866.5 107.6 866.5 110.7 C 866.49 110.66 866.5 113.4 866.5 113.4 L 835.6 113.4 L 835.6 107.2 C 835.6 107.2 856.95 107.17 857 107.2 C 857 105.7 856.6 104.4 856 103.3 C 855.4 102.2 854.5 101.3 853.4 100.6 C 852.3 100 851 99.7 849.5 99.7 C 847.9 99.7 846.6 100 845.4 100.7 C 844.2 101.4 843.3 102.4 842.6 103.6 C 842 104.7 841.6 106.1 841.6 107.5 C 841.6 107.5 841.6 113.5 841.6 113.5 C 841.6 115.3 841.9 116.8 842.6 118.2 C 843.3 119.5 844.2 120.5 845.5 121.2 C 846.7 121.9 848.2 122.3 849.9 122.3 C 851 122.3 852 122.1 853 121.8 C 853.9 121.5 854.7 121 855.4 120.4 C 856 119.7 856.6 119 856.9 118 C 856.9 118 866.3 118.7 866.3 118.7 C 865.8 120.9 864.8 122.9 863.4 124.5 C 861.9 126.2 860 127.5 857.7 128.4 C 855.4 129.4 852.7 129.8 849.7 129.8 Z M 901 103 C 901 103 891.8 103.6 891.8 103.6 C 891.6 102.8 891.3 102.1 890.7 101.4 C 890.2 100.8 889.5 100.3 888.7 99.9 C 887.8 99.5 886.8 99.3 885.6 99.3 C 884.1 99.3 882.7 99.6 881.7 100.3 C 880.6 100.9 880.1 101.8 880.1 102.9 C 880.1 103.8 880.4 104.5 881.1 105.1 C 881.8 105.7 883 106.2 884.7 106.6 C 884.7 106.6 891.3 107.9 891.3 107.9 C 894.9 108.6 897.5 109.8 899.3 111.4 C 901 113 901.9 115.2 901.9 117.8 C 901.9 120.2 901.2 122.3 899.8 124.1 C 898.4 125.9 896.4 127.3 894 128.3 C 891.6 129.3 888.8 129.8 885.6 129.8 C 880.8 129.8 876.9 128.8 874 126.8 C 871.2 124.8 869.5 122 869 118.5 C 869 118.5 879 118 879 118 C 879.3 119.5 880 120.6 881.2 121.4 C 882.3 122.2 883.8 122.5 885.6 122.5 C 887.4 122.5 888.8 122.2 889.9 121.5 C 891 120.8 891.5 119.9 891.6 118.8 C 891.5 117.9 891.2 117.1 890.4 116.6 C 889.6 116 888.5 115.5 886.9 115.2 C 886.9 115.2 880.5 113.9 880.5 113.9 C 877 113.2 874.3 112 872.6 110.2 C 870.9 108.5 870 106.2 870 103.5 C 870 101.1 870.6 99.1 871.9 97.4 C 873.2 95.7 875 94.4 877.3 93.5 C 879.6 92.6 882.3 92.1 885.5 92.1 C 890.1 92.1 893.7 93.1 896.4 95 C 899 97 900.6 99.6 901 103 Z " stroke="none" fill="#ffffff"/>  </g>  <g id="Polygon119349">    <path d="M 12.6 48.7 L 1.6 48.7 L 18.4 0 L 31.7 0 L 48.5 48.7 L 37.4 48.7 L 25.2 11.1 L 24.9 11.1 L 12.6 48.7 Z M 11.9 29.6 L 38 29.6 L 38 37.6 L 11.9 37.6 L 11.9 29.6 Z M 61.9 27.6 C 61.92 27.6 61.9 48.7 61.9 48.7 L 51.8 48.7 L 51.8 12.2 L 61.4 12.2 L 61.4 18.6 C 61.4 18.6 61.87 18.63 61.9 18.6 C 62.7 16.5 64 14.8 65.9 13.6 C 67.8 12.3 70.1 11.7 72.9 11.7 C 75.4 11.7 77.6 12.3 79.5 13.4 C 81.4 14.5 82.9 16.1 83.9 18.1 C 84.9 20.2 85.5 22.6 85.5 25.5 C 85.47 25.46 85.5 48.7 85.5 48.7 L 75.3 48.7 C 75.3 48.7 75.33 27.27 75.3 27.3 C 75.4 25 74.8 23.3 73.6 22 C 72.5 20.8 70.9 20.1 68.8 20.1 C 67.5 20.1 66.3 20.4 65.2 21 C 64.2 21.6 63.4 22.4 62.8 23.6 C 62.2 24.7 61.9 26 61.9 27.6 Z M 101.6 49.4 C 99.3 49.4 97.2 49 95.4 48.2 C 93.6 47.4 92.1 46.2 91.1 44.6 C 90 42.9 89.5 40.9 89.5 38.5 C 89.5 36.5 89.8 34.8 90.6 33.4 C 91.3 32 92.4 30.9 93.6 30.1 C 94.9 29.2 96.4 28.6 98 28.2 C 99.7 27.7 101.4 27.4 103.2 27.3 C 105.3 27 107 26.8 108.3 26.6 C 109.6 26.4 110.6 26.1 111.2 25.7 C 111.8 25.3 112.1 24.8 112.1 24 C 112.1 24 112.1 23.8 112.1 23.8 C 112.1 22.3 111.6 21.2 110.6 20.3 C 109.7 19.5 108.4 19.1 106.6 19.1 C 104.8 19.1 103.4 19.5 102.3 20.3 C 101.2 21.1 100.5 22.1 100.1 23.3 C 100.1 23.3 90.8 22.6 90.8 22.6 C 91.2 20.3 92.2 18.4 93.6 16.8 C 95 15.2 96.8 13.9 99 13 C 101.2 12.1 103.8 11.7 106.7 11.7 C 108.7 11.7 110.7 11.9 112.5 12.4 C 114.4 12.9 116 13.6 117.5 14.6 C 118.9 15.6 120.1 16.9 120.9 18.5 C 121.8 20 122.2 21.9 122.2 24.1 C 122.19 24.08 122.2 48.7 122.2 48.7 L 112.6 48.7 L 112.6 43.7 C 112.6 43.7 112.29 43.66 112.3 43.7 C 111.7 44.8 110.9 45.8 109.9 46.7 C 109 47.5 107.8 48.2 106.4 48.7 C 105 49.2 103.4 49.4 101.6 49.4 Z M 104.5 42.4 C 106 42.4 107.3 42.1 108.5 41.5 C 109.6 40.9 110.5 40.1 111.2 39.1 C 111.8 38.1 112.1 36.9 112.1 35.7 C 112.1 35.7 112.1 31.8 112.1 31.8 C 111.8 32 111.4 32.2 110.8 32.3 C 110.3 32.5 109.7 32.7 109 32.8 C 108.3 32.9 107.6 33.1 106.9 33.2 C 106.3 33.3 105.6 33.3 105.1 33.4 C 103.9 33.6 102.9 33.9 102 34.3 C 101.1 34.6 100.4 35.2 99.9 35.8 C 99.4 36.4 99.2 37.2 99.2 38.2 C 99.2 39.6 99.7 40.6 100.7 41.3 C 101.7 42.1 103 42.4 104.5 42.4 Z M 128.2 62.4 L 128.2 12.2 L 138.2 12.2 L 138.2 18.3 C 138.2 18.3 138.63 18.32 138.6 18.3 C 139.1 17.3 139.7 16.3 140.6 15.3 C 141.4 14.3 142.5 13.4 143.9 12.7 C 145.3 12.1 147 11.7 149 11.7 C 151.7 11.7 154.1 12.4 156.4 13.8 C 158.7 15.2 160.5 17.3 161.8 20 C 163.1 22.8 163.8 26.3 163.8 30.5 C 163.8 34.6 163.2 38 161.9 40.8 C 160.6 43.6 158.8 45.7 156.5 47.2 C 154.3 48.6 151.8 49.3 149 49.3 C 147 49.3 145.4 49 144 48.3 C 142.6 47.7 141.5 46.9 140.6 45.9 C 139.8 44.9 139.1 43.9 138.6 42.9 C 138.63 42.87 138.3 42.9 138.3 42.9 L 138.3 62.4 L 128.2 62.4 Z M 138.1 30.5 C 138.1 32.6 138.4 34.5 139 36.1 C 139.6 37.8 140.5 39 141.6 39.9 C 142.8 40.8 144.2 41.3 145.8 41.3 C 147.4 41.3 148.8 40.8 150 39.9 C 151.1 39 152 37.7 152.6 36.1 C 153.2 34.5 153.5 32.6 153.5 30.5 C 153.5 28.3 153.2 26.5 152.6 24.9 C 152 23.3 151.1 22 150 21.1 C 148.9 20.2 147.5 19.8 145.8 19.8 C 144.1 19.8 142.7 20.2 141.6 21.1 C 140.5 22 139.6 23.2 139 24.8 C 138.4 26.4 138.1 28.3 138.1 30.5 Z M 178.7 0 L 178.7 48.7 L 168.6 48.7 L 168.6 0 L 178.7 0 Z M 195.1 49.4 C 192.8 49.4 190.7 49 188.9 48.2 C 187.1 47.4 185.6 46.2 184.6 44.6 C 183.5 42.9 183 40.9 183 38.5 C 183 36.5 183.4 34.8 184.1 33.4 C 184.9 32 185.9 30.9 187.2 30.1 C 188.4 29.2 189.9 28.6 191.5 28.2 C 193.2 27.7 194.9 27.4 196.7 27.3 C 198.8 27 200.6 26.8 201.9 26.6 C 203.2 26.4 204.1 26.1 204.7 25.7 C 205.3 25.3 205.6 24.8 205.6 24 C 205.6 24 205.6 23.8 205.6 23.8 C 205.6 22.3 205.1 21.2 204.2 20.3 C 203.2 19.5 201.9 19.1 200.1 19.1 C 198.3 19.1 196.9 19.5 195.8 20.3 C 194.7 21.1 194 22.1 193.7 23.3 C 193.7 23.3 184.3 22.6 184.3 22.6 C 184.8 20.3 185.7 18.4 187.1 16.8 C 188.5 15.2 190.3 13.9 192.5 13 C 194.7 12.1 197.3 11.7 200.2 11.7 C 202.2 11.7 204.2 11.9 206 12.4 C 207.9 12.9 209.6 13.6 211 14.6 C 212.5 15.6 213.6 16.9 214.4 18.5 C 215.3 20 215.7 21.9 215.7 24.1 C 215.71 24.08 215.7 48.7 215.7 48.7 L 206.1 48.7 L 206.1 43.7 C 206.1 43.7 205.81 43.66 205.8 43.7 C 205.2 44.8 204.4 45.8 203.5 46.7 C 202.5 47.5 201.3 48.2 199.9 48.7 C 198.5 49.2 196.9 49.4 195.1 49.4 Z M 198 42.4 C 199.5 42.4 200.8 42.1 202 41.5 C 203.1 40.9 204 40.1 204.7 39.1 C 205.3 38.1 205.6 36.9 205.6 35.7 C 205.6 35.7 205.6 31.8 205.6 31.8 C 205.3 32 204.9 32.2 204.3 32.3 C 203.8 32.5 203.2 32.7 202.5 32.8 C 201.8 32.9 201.1 33.1 200.5 33.2 C 199.8 33.3 199.2 33.3 198.6 33.4 C 197.4 33.6 196.4 33.9 195.5 34.3 C 194.6 34.6 193.9 35.2 193.4 35.8 C 192.9 36.4 192.7 37.2 192.7 38.2 C 192.7 39.6 193.2 40.6 194.2 41.3 C 195.2 42.1 196.5 42.4 198 42.4 Z M 231.8 27.6 C 231.84 27.6 231.8 48.7 231.8 48.7 L 221.7 48.7 L 221.7 12.2 L 231.4 12.2 L 231.4 18.6 C 231.4 18.6 231.79 18.63 231.8 18.6 C 232.6 16.5 234 14.8 235.9 13.6 C 237.8 12.3 240.1 11.7 242.8 11.7 C 245.3 11.7 247.5 12.3 249.4 13.4 C 251.3 14.5 252.8 16.1 253.8 18.1 C 254.9 20.2 255.4 22.6 255.4 25.5 C 255.39 25.46 255.4 48.7 255.4 48.7 L 245.3 48.7 C 245.3 48.7 245.26 27.27 245.3 27.3 C 245.3 25 244.7 23.3 243.5 22 C 242.4 20.8 240.8 20.1 238.8 20.1 C 237.4 20.1 236.2 20.4 235.2 21 C 234.1 21.6 233.3 22.4 232.7 23.6 C 232.1 24.7 231.9 26 231.8 27.6 Z M 276.2 62.4 L 276.2 12.2 L 286.2 12.2 L 286.2 18.3 C 286.2 18.3 286.66 18.32 286.7 18.3 C 287.1 17.3 287.8 16.3 288.6 15.3 C 289.5 14.3 290.6 13.4 291.9 12.7 C 293.3 12.1 295 11.7 297.1 11.7 C 299.7 11.7 302.2 12.4 304.4 13.8 C 306.7 15.2 308.5 17.3 309.8 20 C 311.2 22.8 311.9 26.3 311.9 30.5 C 311.9 34.6 311.2 38 309.9 40.8 C 308.6 43.6 306.8 45.7 304.6 47.2 C 302.3 48.6 299.8 49.3 297 49.3 C 295.1 49.3 293.4 49 292 48.3 C 290.7 47.7 289.5 46.9 288.7 45.9 C 287.8 44.9 287.1 43.9 286.7 42.9 C 286.66 42.87 286.4 42.9 286.4 42.9 L 286.4 62.4 L 276.2 62.4 Z M 286.1 30.5 C 286.1 32.6 286.4 34.5 287 36.1 C 287.6 37.8 288.5 39 289.7 39.9 C 290.8 40.8 292.2 41.3 293.8 41.3 C 295.5 41.3 296.9 40.8 298 39.9 C 299.2 39 300 37.7 300.6 36.1 C 301.2 34.5 301.5 32.6 301.5 30.5 C 301.5 28.3 301.2 26.5 300.6 24.9 C 300 23.3 299.2 22 298 21.1 C 296.9 20.2 295.5 19.8 293.8 19.8 C 292.2 19.8 290.8 20.2 289.6 21.1 C 288.5 22 287.6 23.2 287 24.8 C 286.4 26.4 286.1 28.3 286.1 30.5 Z M 316.6 48.7 L 316.6 12.2 L 326.4 12.2 L 326.4 18.6 C 326.4 18.6 326.77 18.56 326.8 18.6 C 327.4 16.3 328.6 14.6 330.1 13.4 C 331.7 12.2 333.5 11.7 335.5 11.7 C 336.1 11.7 336.6 11.7 337.2 11.8 C 337.8 11.8 338.3 11.9 338.7 12 C 338.7 12 338.7 21 338.7 21 C 338.3 20.9 337.6 20.7 336.8 20.6 C 335.9 20.5 335.2 20.5 334.5 20.5 C 333 20.5 331.6 20.8 330.5 21.4 C 329.3 22.1 328.4 23 327.7 24.1 C 327 25.2 326.7 26.6 326.7 28.1 C 326.7 28.05 326.7 48.7 326.7 48.7 L 316.6 48.7 Z M 357.9 49.4 C 354.2 49.4 351 48.7 348.3 47.1 C 345.6 45.5 343.6 43.3 342.1 40.5 C 340.6 37.6 339.9 34.3 339.9 30.6 C 339.9 26.8 340.6 23.5 342.1 20.7 C 343.6 17.9 345.6 15.7 348.3 14.1 C 351 12.5 354.2 11.7 357.9 11.7 C 361.6 11.7 364.8 12.5 367.5 14.1 C 370.2 15.7 372.2 17.9 373.7 20.7 C 375.2 23.5 375.9 26.8 375.9 30.6 C 375.9 34.3 375.2 37.6 373.7 40.5 C 372.2 43.3 370.2 45.5 367.5 47.1 C 364.8 48.7 361.6 49.4 357.9 49.4 Z M 357.9 41.6 C 359.6 41.6 361 41.1 362.2 40.2 C 363.3 39.2 364.1 37.9 364.7 36.2 C 365.3 34.5 365.6 32.7 365.6 30.5 C 365.6 28.4 365.3 26.5 364.7 24.8 C 364.1 23.2 363.3 21.9 362.2 20.9 C 361 19.9 359.6 19.4 357.9 19.4 C 356.2 19.4 354.8 19.9 353.7 20.9 C 352.5 21.9 351.7 23.2 351.1 24.8 C 350.5 26.5 350.2 28.4 350.2 30.5 C 350.2 32.7 350.5 34.5 351.1 36.2 C 351.7 37.9 352.5 39.2 353.7 40.2 C 354.8 41.1 356.2 41.6 357.9 41.6 Z M 412.5 12.2 L 399.7 48.7 L 388.3 48.7 L 375.5 12.2 L 386.2 12.2 L 393.8 38.3 L 394.2 38.3 L 401.8 12.2 L 412.5 12.2 Z M 415.2 48.7 L 415.2 12.2 L 425.3 12.2 L 425.3 48.7 L 415.2 48.7 Z M 420.3 7.5 C 418.8 7.5 417.5 7 416.4 6 C 415.4 5 414.8 3.8 414.8 2.4 C 414.8 0.9 415.4 -0.3 416.4 -1.3 C 417.5 -2.3 418.8 -2.8 420.3 -2.8 C 421.8 -2.8 423.1 -2.3 424.2 -1.3 C 425.2 -0.3 425.8 0.9 425.8 2.3 C 425.8 3.7 425.2 5 424.2 6 C 423.1 7 421.8 7.5 420.3 7.5 Z M 444.7 49.3 C 442 49.3 439.4 48.6 437.2 47.2 C 435 45.7 433.2 43.6 431.9 40.8 C 430.6 38 429.9 34.6 429.9 30.5 C 429.9 26.3 430.6 22.8 431.9 20 C 433.3 17.3 435.1 15.2 437.3 13.8 C 439.6 12.4 442 11.7 444.7 11.7 C 446.8 11.7 448.5 12.1 449.8 12.7 C 451.2 13.4 452.3 14.3 453.2 15.3 C 454 16.3 454.7 17.3 455.1 18.3 C 455.11 18.32 455.4 18.3 455.4 18.3 L 455.4 0 L 465.5 0 L 465.5 48.7 L 455.5 48.7 L 455.5 42.9 C 455.5 42.9 455.11 42.87 455.1 42.9 C 454.6 43.9 454 44.9 453.1 45.9 C 452.2 46.9 451.1 47.7 449.7 48.3 C 448.4 49 446.7 49.3 444.7 49.3 Z M 447.9 41.3 C 449.6 41.3 451 40.8 452.1 39.9 C 453.2 39 454.1 37.8 454.7 36.1 C 455.3 34.5 455.6 32.6 455.6 30.5 C 455.6 28.3 455.3 26.4 454.7 24.8 C 454.1 23.2 453.2 22 452.1 21.1 C 451 20.2 449.6 19.8 447.9 19.8 C 446.3 19.8 444.9 20.2 443.7 21.1 C 442.6 22 441.7 23.3 441.1 24.9 C 440.6 26.5 440.3 28.3 440.3 30.5 C 440.3 32.6 440.6 34.5 441.2 36.1 C 441.7 37.7 442.6 39 443.7 39.9 C 444.9 40.8 446.3 41.3 447.9 41.3 Z M 488.3 49.4 C 484.5 49.4 481.3 48.7 478.6 47.1 C 475.9 45.6 473.8 43.4 472.3 40.6 C 470.9 37.8 470.1 34.5 470.1 30.6 C 470.1 26.9 470.9 23.6 472.3 20.7 C 473.8 17.9 475.8 15.7 478.5 14.1 C 481.2 12.5 484.3 11.7 487.9 11.7 C 490.3 11.7 492.5 12.1 494.6 12.9 C 496.7 13.6 498.5 14.8 500.1 16.3 C 501.6 17.9 502.9 19.8 503.7 22.1 C 504.6 24.4 505 27.2 505 30.3 C 505.05 30.26 505 33 505 33 L 474.2 33 L 474.2 26.8 C 474.2 26.8 495.51 26.77 495.5 26.8 C 495.5 25.3 495.2 24 494.6 22.9 C 493.9 21.8 493 20.9 491.9 20.2 C 490.8 19.6 489.5 19.3 488 19.3 C 486.5 19.3 485.1 19.6 484 20.3 C 482.8 21 481.8 22 481.2 23.2 C 480.5 24.3 480.2 25.7 480.2 27.1 C 480.2 27.1 480.2 33.1 480.2 33.1 C 480.2 34.9 480.5 36.4 481.2 37.8 C 481.8 39.1 482.8 40.1 484 40.8 C 485.3 41.5 486.7 41.9 488.4 41.9 C 489.6 41.9 490.6 41.7 491.5 41.4 C 492.5 41.1 493.3 40.6 493.9 40 C 494.6 39.3 495.1 38.6 495.5 37.6 C 495.5 37.6 504.8 38.3 504.8 38.3 C 504.4 40.5 503.4 42.5 501.9 44.1 C 500.5 45.8 498.6 47.1 496.3 48 C 493.9 49 491.3 49.4 488.3 49.4 Z M 539.6 22.6 C 539.6 22.6 530.3 23.2 530.3 23.2 C 530.2 22.4 529.8 21.7 529.3 21 C 528.8 20.4 528.1 19.9 527.2 19.5 C 526.4 19.1 525.4 18.9 524.2 18.9 C 522.6 18.9 521.3 19.2 520.2 19.9 C 519.1 20.5 518.6 21.4 518.6 22.5 C 518.6 23.4 519 24.1 519.7 24.7 C 520.3 25.3 521.5 25.8 523.2 26.2 C 523.2 26.2 529.9 27.5 529.9 27.5 C 533.4 28.2 536.1 29.4 537.8 31 C 539.5 32.6 540.4 34.8 540.4 37.4 C 540.4 39.8 539.7 41.9 538.3 43.7 C 536.9 45.5 535 46.9 532.6 47.9 C 530.1 48.9 527.3 49.4 524.1 49.4 C 519.3 49.4 515.5 48.4 512.6 46.4 C 509.7 44.4 508.1 41.6 507.6 38.1 C 507.6 38.1 517.5 37.6 517.5 37.6 C 517.8 39.1 518.6 40.2 519.7 41 C 520.9 41.8 522.4 42.1 524.2 42.1 C 525.9 42.1 527.4 41.8 528.5 41.1 C 529.6 40.4 530.1 39.5 530.1 38.4 C 530.1 37.5 529.7 36.7 529 36.2 C 528.2 35.6 527 35.1 525.4 34.8 C 525.4 34.8 519.1 33.5 519.1 33.5 C 515.5 32.8 512.9 31.6 511.1 29.8 C 509.4 28.1 508.5 25.8 508.5 23.1 C 508.5 20.7 509.2 18.7 510.5 17 C 511.7 15.3 513.5 14 515.9 13.1 C 518.2 12.2 520.9 11.7 524 11.7 C 528.6 11.7 532.3 12.7 534.9 14.6 C 537.6 16.6 539.1 19.2 539.6 22.6 Z M 579.1 12.2 L 579.1 19.8 L 557.1 19.8 L 557.1 12.2 L 579.1 12.2 Z M 562.1 3.4 L 572.2 3.4 C 572.2 3.4 572.24 37.5 572.2 37.5 C 572.2 38.4 572.4 39.2 572.7 39.7 C 573 40.2 573.4 40.6 573.9 40.8 C 574.4 41 575 41.1 575.7 41.1 C 576.1 41.1 576.6 41 577.1 40.9 C 577.6 40.8 577.9 40.8 578.2 40.7 C 578.2 40.7 579.8 48.3 579.8 48.3 C 579.3 48.4 578.6 48.6 577.6 48.8 C 576.7 49 575.6 49.2 574.3 49.2 C 571.8 49.3 569.7 49 567.9 48.3 C 566 47.5 564.6 46.3 563.6 44.8 C 562.6 43.2 562.1 41.2 562.1 38.8 C 562.11 38.83 562.1 3.4 562.1 3.4 Z M 593.5 27.6 C 593.46 27.6 593.5 48.7 593.5 48.7 L 583.3 48.7 L 583.3 0 L 593.2 0 L 593.2 18.6 C 593.2 18.6 593.6 18.63 593.6 18.6 C 594.4 16.5 595.8 14.8 597.6 13.5 C 599.4 12.3 601.7 11.7 604.5 11.7 C 607.1 11.7 609.3 12.3 611.2 13.4 C 613.1 14.5 614.5 16 615.6 18.1 C 616.7 20.1 617.2 22.6 617.2 25.5 C 617.15 25.46 617.2 48.7 617.2 48.7 L 607 48.7 C 607 48.7 607.02 27.27 607 27.3 C 607 25 606.5 23.3 605.3 22 C 604.2 20.8 602.6 20.1 600.5 20.1 C 599.1 20.1 597.9 20.4 596.8 21 C 595.8 21.6 595 22.4 594.4 23.6 C 593.8 24.7 593.5 26 593.5 27.6 Z M 639.5 49.4 C 635.8 49.4 632.5 48.7 629.8 47.1 C 627.1 45.6 625 43.4 623.6 40.6 C 622.1 37.8 621.4 34.5 621.4 30.6 C 621.4 26.9 622.1 23.6 623.6 20.7 C 625 17.9 627.1 15.7 629.8 14.1 C 632.4 12.5 635.5 11.7 639.1 11.7 C 641.5 11.7 643.8 12.1 645.9 12.9 C 648 13.6 649.8 14.8 651.3 16.3 C 652.9 17.9 654.1 19.8 655 22.1 C 655.9 24.4 656.3 27.2 656.3 30.3 C 656.3 30.26 656.3 33 656.3 33 L 625.4 33 L 625.4 26.8 C 625.4 26.8 646.76 26.77 646.8 26.8 C 646.8 25.3 646.4 24 645.8 22.9 C 645.2 21.8 644.3 20.9 643.2 20.2 C 642.1 19.6 640.8 19.3 639.3 19.3 C 637.7 19.3 636.4 19.6 635.2 20.3 C 634 21 633.1 22 632.4 23.2 C 631.8 24.3 631.4 25.7 631.4 27.1 C 631.4 27.1 631.4 33.1 631.4 33.1 C 631.4 34.9 631.7 36.4 632.4 37.8 C 633.1 39.1 634.1 40.1 635.3 40.8 C 636.5 41.5 638 41.9 639.7 41.9 C 640.8 41.9 641.8 41.7 642.8 41.4 C 643.7 41.1 644.5 40.6 645.2 40 C 645.9 39.3 646.4 38.6 646.7 37.6 C 646.7 37.6 656.1 38.3 656.1 38.3 C 655.6 40.5 654.6 42.5 653.2 44.1 C 651.7 45.8 649.8 47.1 647.5 48 C 645.2 49 642.5 49.4 639.5 49.4 Z M 675.8 48.7 L 675.8 12.2 L 685.6 12.2 L 685.6 18.6 C 685.6 18.6 685.98 18.56 686 18.6 C 686.6 16.3 687.8 14.6 689.3 13.4 C 690.9 12.2 692.7 11.7 694.8 11.7 C 695.3 11.7 695.8 11.7 696.4 11.8 C 697 11.8 697.5 11.9 697.9 12 C 697.9 12 697.9 21 697.9 21 C 697.5 20.9 696.8 20.7 696 20.6 C 695.1 20.5 694.4 20.5 693.7 20.5 C 692.2 20.5 690.8 20.8 689.7 21.4 C 688.5 22.1 687.6 23 686.9 24.1 C 686.2 25.2 685.9 26.6 685.9 28.1 C 685.91 28.05 685.9 48.7 685.9 48.7 L 675.8 48.7 Z M 700.7 48.7 L 700.7 12.2 L 710.8 12.2 L 710.8 48.7 L 700.7 48.7 Z M 705.8 7.5 C 704.3 7.5 703 7 701.9 6 C 700.8 5 700.3 3.8 700.3 2.4 C 700.3 0.9 700.8 -0.3 701.9 -1.3 C 703 -2.3 704.3 -2.8 705.8 -2.8 C 707.3 -2.8 708.6 -2.3 709.6 -1.3 C 710.7 -0.3 711.2 0.9 711.2 2.3 C 711.2 3.7 710.7 5 709.6 6 C 708.6 7 707.3 7.5 705.8 7.5 Z M 733.1 63.2 C 729.8 63.2 727 62.7 724.6 61.8 C 722.3 61 720.4 59.7 719 58.2 C 717.7 56.7 716.8 54.9 716.4 53 C 716.4 53 725.7 51.7 725.7 51.7 C 726 52.5 726.5 53.2 727.1 53.8 C 727.7 54.4 728.5 54.9 729.5 55.3 C 730.6 55.7 731.8 55.9 733.3 55.9 C 735.5 55.9 737.3 55.4 738.8 54.3 C 740.2 53.2 740.9 51.4 740.9 48.9 C 740.91 48.94 740.9 42.3 740.9 42.3 C 740.9 42.3 740.48 42.26 740.5 42.3 C 740 43.3 739.4 44.2 738.5 45.1 C 737.6 46 736.5 46.8 735.1 47.3 C 733.7 47.9 732 48.2 730.1 48.2 C 727.3 48.2 724.8 47.6 722.6 46.3 C 720.3 45 718.5 43.1 717.2 40.4 C 715.9 37.8 715.2 34.4 715.2 30.4 C 715.2 26.2 715.9 22.8 717.3 20 C 718.6 17.2 720.4 15.2 722.7 13.8 C 724.9 12.4 727.4 11.7 730 11.7 C 732.1 11.7 733.8 12.1 735.2 12.7 C 736.6 13.4 737.7 14.3 738.5 15.3 C 739.4 16.3 740 17.3 740.5 18.3 C 740.48 18.32 740.9 18.3 740.9 18.3 L 740.9 12.2 L 750.9 12.2 C 750.9 12.2 750.93 49.08 750.9 49.1 C 750.9 52.2 750.2 54.8 748.6 56.9 C 747.1 59 745 60.6 742.3 61.6 C 739.6 62.7 736.5 63.2 733.1 63.2 Z M 733.3 40.6 C 734.9 40.6 736.3 40.2 737.4 39.4 C 738.6 38.5 739.4 37.4 740 35.8 C 740.7 34.3 741 32.5 741 30.3 C 741 28.2 740.7 26.3 740.1 24.8 C 739.5 23.2 738.6 22 737.4 21.1 C 736.3 20.2 734.9 19.8 733.3 19.8 C 731.6 19.8 730.2 20.2 729.1 21.1 C 727.9 22 727.1 23.3 726.5 24.8 C 725.9 26.4 725.6 28.3 725.6 30.3 C 725.6 32.4 725.9 34.3 726.5 35.8 C 727.1 37.3 727.9 38.5 729.1 39.3 C 730.2 40.2 731.6 40.6 733.3 40.6 Z M 767.2 27.6 C 767.18 27.6 767.2 48.7 767.2 48.7 L 757 48.7 L 757 0 L 766.9 0 L 766.9 18.6 C 766.9 18.6 767.33 18.63 767.3 18.6 C 768.2 16.5 769.5 14.8 771.3 13.5 C 773.2 12.3 775.5 11.7 778.2 11.7 C 780.8 11.7 783 12.3 784.9 13.4 C 786.8 14.5 788.3 16 789.3 18.1 C 790.4 20.1 790.9 22.6 790.9 25.5 C 790.88 25.46 790.9 48.7 790.9 48.7 L 780.7 48.7 C 780.7 48.7 780.74 27.27 780.7 27.3 C 780.8 25 780.2 23.3 779 22 C 777.9 20.8 776.3 20.1 774.2 20.1 C 772.8 20.1 771.6 20.4 770.6 21 C 769.5 21.6 768.7 22.4 768.1 23.6 C 767.5 24.7 767.2 26 767.2 27.6 Z M 815.4 12.2 L 815.4 19.8 L 793.4 19.8 L 793.4 12.2 L 815.4 12.2 Z M 798.4 3.4 L 808.5 3.4 C 808.5 3.4 808.5 37.5 808.5 37.5 C 808.5 38.4 808.6 39.2 808.9 39.7 C 809.2 40.2 809.6 40.6 810.1 40.8 C 810.6 41 811.2 41.1 811.9 41.1 C 812.4 41.1 812.9 41 813.3 40.9 C 813.8 40.8 814.2 40.8 814.4 40.7 C 814.4 40.7 816 48.3 816 48.3 C 815.5 48.4 814.8 48.6 813.9 48.8 C 813 49 811.9 49.2 810.5 49.2 C 808.1 49.3 806 49 804.1 48.3 C 802.3 47.5 800.9 46.3 799.9 44.8 C 798.8 43.2 798.3 41.2 798.4 38.8 C 798.36 38.83 798.4 3.4 798.4 3.4 Z M 843.4 48.7 L 832.4 48.7 L 849.2 0 L 862.5 0 L 879.3 48.7 L 868.2 48.7 L 856 11.1 L 855.6 11.1 L 843.4 48.7 Z M 842.7 29.6 L 868.8 29.6 L 868.8 37.6 L 842.7 37.6 L 842.7 29.6 Z M 893.3 0 L 893.3 48.7 L 883 48.7 L 883 0 L 893.3 0 Z M 934.1 12.2 L 934.1 19.8 L 911.6 19.8 L 911.6 12.2 L 934.1 12.2 Z M 916.7 48.7 C 916.7 48.7 916.73 9.54 916.7 9.5 C 916.7 6.9 917.2 4.7 918.3 3 C 919.3 1.2 920.7 -0.1 922.6 -1 C 924.4 -1.8 926.4 -2.3 928.7 -2.3 C 930.3 -2.3 931.7 -2.2 933 -1.9 C 934.3 -1.7 935.2 -1.5 935.9 -1.3 C 935.9 -1.3 934.1 6.3 934.1 6.3 C 933.7 6.2 933.2 6.1 932.6 6 C 932 5.9 931.4 5.8 930.8 5.8 C 929.3 5.8 928.3 6.2 927.7 6.8 C 927.1 7.5 926.8 8.5 926.8 9.7 C 926.84 9.73 926.8 48.7 926.8 48.7 L 916.7 48.7 Z M 953.4 49.4 C 949.7 49.4 946.5 48.7 943.8 47.1 C 941.1 45.5 939 43.3 937.6 40.5 C 936.1 37.6 935.4 34.3 935.4 30.6 C 935.4 26.8 936.1 23.5 937.6 20.7 C 939 17.9 941.1 15.7 943.8 14.1 C 946.5 12.5 949.7 11.7 953.4 11.7 C 957.1 11.7 960.3 12.5 963 14.1 C 965.6 15.7 967.7 17.9 969.2 20.7 C 970.6 23.5 971.4 26.8 971.4 30.6 C 971.4 34.3 970.6 37.6 969.2 40.5 C 967.7 43.3 965.6 45.5 963 47.1 C 960.3 48.7 957.1 49.4 953.4 49.4 Z M 953.4 41.6 C 955.1 41.6 956.5 41.1 957.6 40.2 C 958.8 39.2 959.6 37.9 960.2 36.2 C 960.8 34.5 961.1 32.7 961.1 30.5 C 961.1 28.4 960.8 26.5 960.2 24.8 C 959.6 23.2 958.8 21.9 957.6 20.9 C 956.5 19.9 955.1 19.4 953.4 19.4 C 951.7 19.4 950.3 19.9 949.2 20.9 C 948 21.9 947.1 23.2 946.6 24.8 C 946 26.5 945.7 28.4 945.7 30.5 C 945.7 32.7 946 34.5 946.6 36.2 C 947.1 37.9 948 39.2 949.2 40.2 C 950.3 41.1 951.7 41.6 953.4 41.6 Z M 975.8 48.7 L 975.8 12.2 L 985.6 12.2 L 985.6 18.6 C 985.6 18.6 985.99 18.56 986 18.6 C 986.7 16.3 987.8 14.6 989.3 13.4 C 990.9 12.2 992.7 11.7 994.8 11.7 C 995.3 11.7 995.8 11.7 996.4 11.8 C 997 11.8 997.5 11.9 998 12 C 998 12 998 21 998 21 C 997.5 20.9 996.8 20.7 996 20.6 C 995.1 20.5 994.4 20.5 993.7 20.5 C 992.2 20.5 990.9 20.8 989.7 21.4 C 988.5 22.1 987.6 23 986.9 24.1 C 986.3 25.2 985.9 26.6 985.9 28.1 C 985.92 28.05 985.9 48.7 985.9 48.7 L 975.8 48.7 Z " stroke="none" fill="#ffffff"/>  </g></svg>