<?xml version="1.0" standalone="no"?><!DOCTYPE svg PUBLIC "-//W3C//DTD SVG 1.1//EN" "http://www.w3.org/Graphics/SVG/1.1/DTD/svg11.dtd"><svg xmlns="http://www.w3.org/2000/svg" version="1.1" width="275px" height="31.3px" viewBox="0 -8 275 31.3" style="top:-8px">  <desc>Incomplete data access</desc>  <defs/>  <g id="Polygon106686">    <path d="M 29 0 L 29 13.1 L 27.5 13.1 L 27.5 0 L 29 0 Z M 33.5 7.2 C 33.53 7.18 33.5 13.1 33.5 13.1 L 32 13.1 L 32 3.3 L 33.5 3.3 L 33.5 4.8 C 33.5 4.8 33.61 4.81 33.6 4.8 C 33.8 4.3 34.2 3.9 34.7 3.6 C 35.1 3.3 35.7 3.1 36.5 3.1 C 37.1 3.1 37.7 3.3 38.2 3.6 C 38.7 3.8 39.1 4.2 39.4 4.8 C 39.7 5.3 39.8 6 39.8 6.9 C 39.8 6.85 39.8 13.1 39.8 13.1 L 38.3 13.1 C 38.3 13.1 38.29 6.95 38.3 7 C 38.3 6.2 38.1 5.6 37.7 5.1 C 37.3 4.7 36.7 4.5 36 4.5 C 35.6 4.5 35.1 4.6 34.8 4.8 C 34.4 5 34.1 5.3 33.9 5.7 C 33.6 6.1 33.5 6.6 33.5 7.2 Z M 46.5 13.3 C 45.5 13.3 44.7 13.1 44.1 12.6 C 43.4 12.2 42.9 11.6 42.6 10.8 C 42.2 10.1 42 9.2 42 8.2 C 42 7.2 42.2 6.4 42.6 5.6 C 42.9 4.8 43.5 4.2 44.1 3.8 C 44.8 3.4 45.6 3.1 46.4 3.1 C 47.1 3.1 47.7 3.3 48.3 3.5 C 48.9 3.8 49.3 4.1 49.7 4.6 C 50 5.1 50.2 5.6 50.3 6.2 C 50.3 6.2 48.8 6.2 48.8 6.2 C 48.7 5.8 48.4 5.4 48.1 5 C 47.7 4.7 47.1 4.5 46.5 4.5 C 45.9 4.5 45.4 4.7 44.9 5 C 44.5 5.3 44.1 5.7 43.9 6.2 C 43.6 6.8 43.5 7.4 43.5 8.2 C 43.5 8.9 43.6 9.6 43.9 10.2 C 44.1 10.7 44.5 11.2 44.9 11.5 C 45.3 11.8 45.9 11.9 46.5 11.9 C 46.9 11.9 47.2 11.9 47.5 11.7 C 47.8 11.6 48.1 11.4 48.3 11.1 C 48.6 10.9 48.7 10.6 48.8 10.2 C 48.8 10.2 50.3 10.2 50.3 10.2 C 50.2 10.8 50 11.3 49.7 11.8 C 49.4 12.3 48.9 12.6 48.4 12.9 C 47.8 13.2 47.2 13.3 46.5 13.3 Z M 56.4 13.3 C 55.5 13.3 54.7 13.1 54.1 12.7 C 53.4 12.2 52.9 11.7 52.5 10.9 C 52.1 10.1 52 9.2 52 8.2 C 52 7.2 52.1 6.3 52.5 5.6 C 52.9 4.8 53.4 4.2 54.1 3.8 C 54.7 3.4 55.5 3.1 56.4 3.1 C 57.3 3.1 58.1 3.4 58.7 3.8 C 59.4 4.2 59.9 4.8 60.3 5.6 C 60.7 6.3 60.9 7.2 60.9 8.2 C 60.9 9.2 60.7 10.1 60.3 10.9 C 59.9 11.7 59.4 12.2 58.7 12.7 C 58.1 13.1 57.3 13.3 56.4 13.3 Z M 56.4 11.9 C 57.1 11.9 57.6 11.8 58.1 11.4 C 58.5 11.1 58.8 10.6 59 10.1 C 59.2 9.5 59.4 8.9 59.4 8.2 C 59.4 7.6 59.2 7 59 6.4 C 58.8 5.8 58.5 5.4 58.1 5 C 57.6 4.7 57.1 4.5 56.4 4.5 C 55.7 4.5 55.2 4.7 54.7 5 C 54.3 5.4 54 5.8 53.8 6.4 C 53.6 7 53.5 7.6 53.5 8.2 C 53.5 8.9 53.6 9.5 53.8 10.1 C 54 10.6 54.3 11.1 54.7 11.4 C 55.2 11.8 55.7 11.9 56.4 11.9 Z M 63.1 13.1 L 63.1 3.3 L 64.6 3.3 L 64.6 4.8 C 64.6 4.8 64.73 4.81 64.7 4.8 C 64.9 4.3 65.3 3.9 65.7 3.6 C 66.2 3.3 66.7 3.1 67.4 3.1 C 68 3.1 68.5 3.3 69 3.6 C 69.4 3.9 69.8 4.3 70 4.8 C 70 4.8 70.1 4.8 70.1 4.8 C 70.3 4.3 70.7 3.9 71.2 3.6 C 71.7 3.3 72.3 3.1 73 3.1 C 73.9 3.1 74.6 3.4 75.2 4 C 75.7 4.5 76 5.4 76 6.5 C 76.03 6.52 76 13.1 76 13.1 L 74.5 13.1 C 74.5 13.1 74.52 6.52 74.5 6.5 C 74.5 5.8 74.3 5.3 73.9 5 C 73.5 4.7 73.1 4.5 72.5 4.5 C 71.8 4.5 71.3 4.7 70.9 5.1 C 70.5 5.5 70.4 6.1 70.4 6.7 C 70.35 6.7 70.4 13.1 70.4 13.1 L 68.8 13.1 C 68.8 13.1 68.82 6.37 68.8 6.4 C 68.8 5.8 68.6 5.4 68.3 5 C 67.9 4.7 67.4 4.5 66.9 4.5 C 66.5 4.5 66.1 4.6 65.8 4.8 C 65.4 5 65.2 5.3 65 5.7 C 64.8 6 64.7 6.5 64.7 7 C 64.65 6.95 64.7 13.1 64.7 13.1 L 63.1 13.1 Z M 78.8 16.8 L 78.8 3.3 L 80.2 3.3 L 80.2 4.8 C 80.2 4.8 80.39 4.83 80.4 4.8 C 80.5 4.7 80.7 4.4 80.9 4.2 C 81.1 3.9 81.3 3.7 81.7 3.5 C 82.1 3.3 82.6 3.1 83.2 3.1 C 84.1 3.1 84.8 3.4 85.4 3.8 C 86 4.2 86.5 4.8 86.9 5.5 C 87.2 6.3 87.4 7.2 87.4 8.2 C 87.4 9.2 87.2 10.1 86.9 10.9 C 86.5 11.7 86 12.3 85.4 12.7 C 84.8 13.1 84.1 13.3 83.3 13.3 C 82.6 13.3 82.1 13.2 81.7 13 C 81.4 12.8 81.1 12.5 80.9 12.3 C 80.7 12 80.5 11.8 80.4 11.6 C 80.39 11.58 80.3 11.6 80.3 11.6 L 80.3 16.8 L 78.8 16.8 Z M 80.2 8.2 C 80.2 8.9 80.3 9.6 80.6 10.1 C 80.8 10.7 81.1 11.1 81.5 11.5 C 81.9 11.8 82.4 11.9 83.1 11.9 C 83.7 11.9 84.2 11.8 84.6 11.4 C 85.1 11.1 85.4 10.7 85.6 10.1 C 85.8 9.5 85.9 8.9 85.9 8.2 C 85.9 7.5 85.8 6.9 85.6 6.3 C 85.4 5.8 85.1 5.3 84.6 5 C 84.2 4.7 83.7 4.5 83.1 4.5 C 82.4 4.5 81.9 4.7 81.5 5 C 81.1 5.3 80.8 5.7 80.6 6.3 C 80.3 6.8 80.2 7.4 80.2 8.2 Z M 91.2 0 L 91.2 13.1 L 89.7 13.1 L 89.7 0 L 91.2 0 Z M 98.1 13.3 C 97.2 13.3 96.3 13.1 95.7 12.7 C 95 12.2 94.5 11.7 94.1 10.9 C 93.7 10.1 93.5 9.3 93.5 8.3 C 93.5 7.3 93.7 6.4 94.1 5.6 C 94.5 4.8 95 4.2 95.6 3.8 C 96.3 3.4 97.1 3.1 98 3.1 C 98.5 3.1 99 3.2 99.5 3.4 C 100 3.6 100.4 3.8 100.8 4.2 C 101.2 4.6 101.6 5.1 101.8 5.7 C 102.1 6.4 102.2 7.1 102.2 8.1 C 102.18 8.05 102.2 8.7 102.2 8.7 L 94.6 8.7 L 94.6 7.4 C 94.6 7.4 100.64 7.39 100.6 7.4 C 100.6 6.8 100.5 6.3 100.3 5.9 C 100.1 5.5 99.8 5.1 99.4 4.9 C 99 4.6 98.5 4.5 98 4.5 C 97.4 4.5 96.8 4.6 96.4 4.9 C 96 5.2 95.6 5.6 95.4 6.1 C 95.2 6.6 95 7.1 95 7.6 C 95 7.6 95 8.5 95 8.5 C 95 9.2 95.2 9.9 95.4 10.4 C 95.7 10.9 96 11.3 96.5 11.5 C 97 11.8 97.5 11.9 98.1 11.9 C 98.5 11.9 98.9 11.9 99.2 11.8 C 99.5 11.7 99.8 11.5 100 11.3 C 100.3 11 100.4 10.7 100.6 10.4 C 100.6 10.4 102 10.8 102 10.8 C 101.9 11.3 101.6 11.7 101.2 12.1 C 100.9 12.5 100.4 12.8 99.9 13 C 99.4 13.2 98.8 13.3 98.1 13.3 Z M 108.5 3.3 L 108.5 4.6 L 103.4 4.6 L 103.4 3.3 L 108.5 3.3 Z M 104.9 0.9 L 106.4 0.9 C 106.4 0.9 106.37 10.28 106.4 10.3 C 106.4 10.7 106.4 11 106.6 11.2 C 106.7 11.4 106.8 11.6 107 11.7 C 107.2 11.7 107.4 11.8 107.7 11.8 C 107.8 11.8 108 11.8 108.1 11.7 C 108.2 11.7 108.3 11.7 108.3 11.7 C 108.3 11.7 108.6 13 108.6 13 C 108.5 13.1 108.4 13.1 108.2 13.2 C 108 13.2 107.8 13.2 107.5 13.2 C 107.1 13.2 106.7 13.1 106.3 12.9 C 105.9 12.8 105.5 12.5 105.3 12.1 C 105 11.7 104.9 11.3 104.9 10.7 C 104.86 10.69 104.9 0.9 104.9 0.9 Z M 114.3 13.3 C 113.4 13.3 112.6 13.1 111.9 12.7 C 111.2 12.2 110.7 11.7 110.3 10.9 C 109.9 10.1 109.8 9.3 109.8 8.3 C 109.8 7.3 109.9 6.4 110.3 5.6 C 110.7 4.8 111.2 4.2 111.9 3.8 C 112.5 3.4 113.3 3.1 114.2 3.1 C 114.7 3.1 115.2 3.2 115.7 3.4 C 116.2 3.6 116.6 3.8 117.1 4.2 C 117.5 4.6 117.8 5.1 118 5.7 C 118.3 6.4 118.4 7.1 118.4 8.1 C 118.4 8.05 118.4 8.7 118.4 8.7 L 110.8 8.7 L 110.8 7.4 C 110.8 7.4 116.87 7.39 116.9 7.4 C 116.9 6.8 116.8 6.3 116.5 5.9 C 116.3 5.5 116 5.1 115.6 4.9 C 115.2 4.6 114.7 4.5 114.2 4.5 C 113.6 4.5 113.1 4.6 112.6 4.9 C 112.2 5.2 111.9 5.6 111.6 6.1 C 111.4 6.6 111.3 7.1 111.3 7.6 C 111.3 7.6 111.3 8.5 111.3 8.5 C 111.3 9.2 111.4 9.9 111.7 10.4 C 111.9 10.9 112.3 11.3 112.7 11.5 C 113.2 11.8 113.7 11.9 114.3 11.9 C 114.7 11.9 115.1 11.9 115.4 11.8 C 115.7 11.7 116 11.5 116.2 11.3 C 116.5 11 116.7 10.7 116.8 10.4 C 116.8 10.4 118.2 10.8 118.2 10.8 C 118.1 11.3 117.8 11.7 117.5 12.1 C 117.1 12.5 116.7 12.8 116.1 13 C 115.6 13.2 115 13.3 114.3 13.3 Z M 129.5 13.3 C 128.7 13.3 127.9 13.1 127.3 12.7 C 126.7 12.3 126.2 11.7 125.8 10.9 C 125.5 10.1 125.3 9.2 125.3 8.2 C 125.3 7.2 125.5 6.3 125.8 5.5 C 126.2 4.8 126.7 4.2 127.3 3.8 C 127.9 3.4 128.7 3.1 129.5 3.1 C 130.1 3.1 130.6 3.3 131 3.5 C 131.4 3.7 131.7 3.9 131.9 4.2 C 132.1 4.4 132.2 4.7 132.3 4.8 C 132.34 4.83 132.5 4.8 132.5 4.8 L 132.5 0 L 134 0 L 134 13.1 L 132.5 13.1 L 132.5 11.6 C 132.5 11.6 132.34 11.58 132.3 11.6 C 132.2 11.8 132.1 12 131.9 12.3 C 131.7 12.5 131.4 12.8 131 13 C 130.6 13.2 130.1 13.3 129.5 13.3 Z M 129.7 11.9 C 130.3 11.9 130.8 11.8 131.2 11.5 C 131.6 11.1 131.9 10.7 132.2 10.1 C 132.4 9.6 132.5 8.9 132.5 8.2 C 132.5 7.4 132.4 6.8 132.2 6.3 C 132 5.7 131.6 5.3 131.2 5 C 130.8 4.7 130.3 4.5 129.7 4.5 C 129 4.5 128.5 4.7 128.1 5 C 127.7 5.3 127.3 5.8 127.1 6.3 C 126.9 6.9 126.8 7.5 126.8 8.2 C 126.8 8.9 126.9 9.5 127.1 10.1 C 127.4 10.7 127.7 11.1 128.1 11.4 C 128.5 11.8 129 11.9 129.7 11.9 Z M 139.7 13.3 C 139 13.3 138.5 13.2 138 13 C 137.5 12.7 137.1 12.4 136.8 11.9 C 136.5 11.5 136.3 10.9 136.3 10.3 C 136.3 9.7 136.4 9.3 136.7 8.9 C 136.9 8.6 137.2 8.3 137.5 8.1 C 137.9 7.9 138.3 7.8 138.8 7.7 C 139.2 7.6 139.7 7.5 140.1 7.4 C 140.7 7.3 141.2 7.3 141.6 7.2 C 142 7.2 142.2 7.1 142.4 7 C 142.6 6.9 142.7 6.8 142.7 6.5 C 142.7 6.5 142.7 6.5 142.7 6.5 C 142.7 5.8 142.5 5.3 142.1 5 C 141.8 4.6 141.3 4.5 140.6 4.5 C 139.9 4.5 139.3 4.6 138.9 4.9 C 138.5 5.3 138.2 5.6 138 6 C 138 6 136.6 5.4 136.6 5.4 C 136.9 4.8 137.2 4.4 137.6 4 C 138.1 3.7 138.5 3.5 139 3.3 C 139.5 3.2 140 3.1 140.5 3.1 C 140.9 3.1 141.2 3.2 141.6 3.3 C 142 3.3 142.4 3.5 142.8 3.7 C 143.2 3.9 143.5 4.3 143.8 4.8 C 144 5.2 144.2 5.8 144.2 6.6 C 144.17 6.62 144.2 13.1 144.2 13.1 L 142.7 13.1 L 142.7 11.8 C 142.7 11.8 142.58 11.76 142.6 11.8 C 142.5 12 142.3 12.2 142.1 12.4 C 141.8 12.7 141.5 12.9 141.1 13.1 C 140.7 13.2 140.2 13.3 139.7 13.3 Z M 139.9 12 C 140.5 12 141 11.8 141.4 11.6 C 141.8 11.4 142.1 11.1 142.3 10.7 C 142.6 10.3 142.7 9.9 142.7 9.5 C 142.7 9.5 142.7 8.2 142.7 8.2 C 142.6 8.2 142.5 8.3 142.2 8.4 C 142 8.4 141.8 8.5 141.5 8.5 C 141.2 8.6 141 8.6 140.7 8.6 C 140.4 8.7 140.2 8.7 140.1 8.7 C 139.7 8.8 139.3 8.9 139 9 C 138.6 9.1 138.3 9.2 138.1 9.5 C 137.9 9.7 137.8 10 137.8 10.4 C 137.8 10.9 138 11.3 138.4 11.6 C 138.8 11.8 139.3 12 139.9 12 Z M 150.9 3.3 L 150.9 4.6 L 145.8 4.6 L 145.8 3.3 L 150.9 3.3 Z M 147.3 0.9 L 148.8 0.9 C 148.8 0.9 148.83 10.28 148.8 10.3 C 148.8 10.7 148.9 11 149 11.2 C 149.1 11.4 149.3 11.6 149.5 11.7 C 149.7 11.7 149.9 11.8 150.1 11.8 C 150.3 11.8 150.4 11.8 150.5 11.7 C 150.7 11.7 150.7 11.7 150.8 11.7 C 150.8 11.7 151.1 13 151.1 13 C 151 13.1 150.9 13.1 150.7 13.2 C 150.5 13.2 150.3 13.2 150 13.2 C 149.6 13.2 149.1 13.1 148.7 12.9 C 148.3 12.8 148 12.5 147.7 12.1 C 147.5 11.7 147.3 11.3 147.3 10.7 C 147.32 10.69 147.3 0.9 147.3 0.9 Z M 155.9 13.3 C 155.3 13.3 154.7 13.2 154.2 13 C 153.7 12.7 153.3 12.4 153 11.9 C 152.7 11.5 152.6 10.9 152.6 10.3 C 152.6 9.7 152.7 9.3 152.9 8.9 C 153.1 8.6 153.4 8.3 153.8 8.1 C 154.2 7.9 154.6 7.8 155 7.7 C 155.5 7.6 155.9 7.5 156.4 7.4 C 157 7.3 157.5 7.3 157.8 7.2 C 158.2 7.2 158.5 7.1 158.7 7 C 158.8 6.9 158.9 6.8 158.9 6.5 C 158.9 6.5 158.9 6.5 158.9 6.5 C 158.9 5.8 158.7 5.3 158.4 5 C 158.1 4.6 157.5 4.5 156.8 4.5 C 156.1 4.5 155.6 4.6 155.1 4.9 C 154.7 5.3 154.4 5.6 154.3 6 C 154.3 6 152.9 5.4 152.9 5.4 C 153.1 4.8 153.4 4.4 153.9 4 C 154.3 3.7 154.8 3.5 155.3 3.3 C 155.8 3.2 156.3 3.1 156.8 3.1 C 157.1 3.1 157.5 3.2 157.9 3.3 C 158.3 3.3 158.7 3.5 159.1 3.7 C 159.5 3.9 159.8 4.3 160 4.8 C 160.3 5.2 160.4 5.8 160.4 6.6 C 160.42 6.62 160.4 13.1 160.4 13.1 L 158.9 13.1 L 158.9 11.8 C 158.9 11.8 158.83 11.76 158.8 11.8 C 158.7 12 158.6 12.2 158.3 12.4 C 158.1 12.7 157.8 12.9 157.4 13.1 C 157 13.2 156.5 13.3 155.9 13.3 Z M 156.2 12 C 156.7 12 157.3 11.8 157.7 11.6 C 158.1 11.4 158.4 11.1 158.6 10.7 C 158.8 10.3 158.9 9.9 158.9 9.5 C 158.9 9.5 158.9 8.2 158.9 8.2 C 158.8 8.2 158.7 8.3 158.5 8.4 C 158.3 8.4 158 8.5 157.8 8.5 C 157.5 8.6 157.2 8.6 156.9 8.6 C 156.7 8.7 156.5 8.7 156.3 8.7 C 155.9 8.8 155.5 8.9 155.2 9 C 154.9 9.1 154.6 9.2 154.4 9.5 C 154.2 9.7 154.1 10 154.1 10.4 C 154.1 10.9 154.3 11.3 154.7 11.6 C 155.1 11.8 155.5 12 156.2 12 Z M 171.1 13.3 C 170.5 13.3 169.9 13.2 169.4 13 C 168.9 12.7 168.5 12.4 168.2 11.9 C 167.9 11.5 167.8 10.9 167.8 10.3 C 167.8 9.7 167.9 9.3 168.1 8.9 C 168.3 8.6 168.6 8.3 169 8.1 C 169.4 7.9 169.8 7.8 170.2 7.7 C 170.7 7.6 171.1 7.5 171.6 7.4 C 172.2 7.3 172.7 7.3 173 7.2 C 173.4 7.2 173.7 7.1 173.9 7 C 174 6.9 174.1 6.8 174.1 6.5 C 174.1 6.5 174.1 6.5 174.1 6.5 C 174.1 5.8 174 5.3 173.6 5 C 173.3 4.6 172.7 4.5 172.1 4.5 C 171.3 4.5 170.8 4.6 170.4 4.9 C 170 5.3 169.7 5.6 169.5 6 C 169.5 6 168.1 5.4 168.1 5.4 C 168.3 4.8 168.7 4.4 169.1 4 C 169.5 3.7 170 3.5 170.5 3.3 C 171 3.2 171.5 3.1 172 3.1 C 172.3 3.1 172.7 3.2 173.1 3.3 C 173.5 3.3 173.9 3.5 174.3 3.7 C 174.7 3.9 175 4.3 175.2 4.8 C 175.5 5.2 175.6 5.8 175.6 6.6 C 175.63 6.62 175.6 13.1 175.6 13.1 L 174.1 13.1 L 174.1 11.8 C 174.1 11.8 174.05 11.76 174 11.8 C 173.9 12 173.8 12.2 173.5 12.4 C 173.3 12.7 173 12.9 172.6 13.1 C 172.2 13.2 171.7 13.3 171.1 13.3 Z M 171.4 12 C 172 12 172.5 11.8 172.9 11.6 C 173.3 11.4 173.6 11.1 173.8 10.7 C 174 10.3 174.1 9.9 174.1 9.5 C 174.1 9.5 174.1 8.2 174.1 8.2 C 174.1 8.2 173.9 8.3 173.7 8.4 C 173.5 8.4 173.2 8.5 173 8.5 C 172.7 8.6 172.4 8.6 172.2 8.6 C 171.9 8.7 171.7 8.7 171.5 8.7 C 171.1 8.8 170.8 8.9 170.4 9 C 170.1 9.1 169.8 9.2 169.6 9.5 C 169.4 9.7 169.3 10 169.3 10.4 C 169.3 10.9 169.5 11.3 169.9 11.6 C 170.3 11.8 170.8 12 171.4 12 Z M 182.3 13.3 C 181.4 13.3 180.6 13.1 180 12.6 C 179.3 12.2 178.8 11.6 178.4 10.8 C 178.1 10.1 177.9 9.2 177.9 8.2 C 177.9 7.2 178.1 6.4 178.4 5.6 C 178.8 4.8 179.3 4.2 180 3.8 C 180.6 3.4 181.4 3.1 182.3 3.1 C 183 3.1 183.6 3.3 184.2 3.5 C 184.7 3.8 185.2 4.1 185.5 4.6 C 185.9 5.1 186.1 5.6 186.2 6.2 C 186.2 6.2 184.7 6.2 184.7 6.2 C 184.6 5.8 184.3 5.4 183.9 5 C 183.5 4.7 183 4.5 182.3 4.5 C 181.7 4.5 181.2 4.7 180.8 5 C 180.3 5.3 180 5.7 179.8 6.2 C 179.5 6.8 179.4 7.4 179.4 8.2 C 179.4 8.9 179.5 9.6 179.8 10.2 C 180 10.7 180.3 11.2 180.8 11.5 C 181.2 11.8 181.7 11.9 182.3 11.9 C 182.7 11.9 183.1 11.9 183.4 11.7 C 183.7 11.6 184 11.4 184.2 11.1 C 184.4 10.9 184.6 10.6 184.7 10.2 C 184.7 10.2 186.2 10.2 186.2 10.2 C 186.1 10.8 185.9 11.3 185.6 11.8 C 185.2 12.3 184.8 12.6 184.2 12.9 C 183.7 13.2 183.1 13.3 182.3 13.3 Z M 192.3 13.3 C 191.3 13.3 190.6 13.1 189.9 12.6 C 189.2 12.2 188.7 11.6 188.4 10.8 C 188 10.1 187.8 9.2 187.8 8.2 C 187.8 7.2 188 6.4 188.4 5.6 C 188.7 4.8 189.3 4.2 189.9 3.8 C 190.6 3.4 191.4 3.1 192.2 3.1 C 192.9 3.1 193.6 3.3 194.1 3.5 C 194.7 3.8 195.1 4.1 195.5 4.6 C 195.8 5.1 196 5.6 196.1 6.2 C 196.1 6.2 194.6 6.2 194.6 6.2 C 194.5 5.8 194.3 5.4 193.9 5 C 193.5 4.7 192.9 4.5 192.3 4.5 C 191.7 4.5 191.2 4.7 190.7 5 C 190.3 5.3 189.9 5.7 189.7 6.2 C 189.5 6.8 189.3 7.4 189.3 8.2 C 189.3 8.9 189.4 9.6 189.7 10.2 C 189.9 10.7 190.3 11.2 190.7 11.5 C 191.2 11.8 191.7 11.9 192.3 11.9 C 192.7 11.9 193 11.9 193.3 11.7 C 193.7 11.6 193.9 11.4 194.1 11.1 C 194.4 10.9 194.5 10.6 194.6 10.2 C 194.6 10.2 196.1 10.2 196.1 10.2 C 196 10.8 195.8 11.3 195.5 11.8 C 195.2 12.3 194.7 12.6 194.2 12.9 C 193.6 13.2 193 13.3 192.3 13.3 Z M 202.3 13.3 C 201.4 13.3 200.6 13.1 199.9 12.7 C 199.2 12.2 198.7 11.7 198.3 10.9 C 198 10.1 197.8 9.3 197.8 8.3 C 197.8 7.3 198 6.4 198.3 5.6 C 198.7 4.8 199.2 4.2 199.9 3.8 C 200.5 3.4 201.3 3.1 202.2 3.1 C 202.7 3.1 203.2 3.2 203.7 3.4 C 204.2 3.6 204.7 3.8 205.1 4.2 C 205.5 4.6 205.8 5.1 206 5.7 C 206.3 6.4 206.4 7.1 206.4 8.1 C 206.41 8.05 206.4 8.7 206.4 8.7 L 198.8 8.7 L 198.8 7.4 C 198.8 7.4 204.88 7.39 204.9 7.4 C 204.9 6.8 204.8 6.3 204.5 5.9 C 204.3 5.5 204 5.1 203.6 4.9 C 203.2 4.6 202.7 4.5 202.2 4.5 C 201.6 4.5 201.1 4.6 200.6 4.9 C 200.2 5.2 199.9 5.6 199.6 6.1 C 199.4 6.6 199.3 7.1 199.3 7.6 C 199.3 7.6 199.3 8.5 199.3 8.5 C 199.3 9.2 199.4 9.9 199.7 10.4 C 199.9 10.9 200.3 11.3 200.7 11.5 C 201.2 11.8 201.7 11.9 202.3 11.9 C 202.7 11.9 203.1 11.9 203.4 11.8 C 203.7 11.7 204 11.5 204.3 11.3 C 204.5 11 204.7 10.7 204.8 10.4 C 204.8 10.4 206.3 10.8 206.3 10.8 C 206.1 11.3 205.8 11.7 205.5 12.1 C 205.1 12.5 204.7 12.8 204.1 13 C 203.6 13.2 203 13.3 202.3 13.3 Z M 215.5 5.5 C 215.5 5.5 214.2 5.9 214.2 5.9 C 214.1 5.6 214 5.4 213.8 5.2 C 213.6 5 213.4 4.8 213.1 4.7 C 212.9 4.5 212.5 4.4 212.1 4.4 C 211.5 4.4 211 4.6 210.6 4.9 C 210.2 5.1 210 5.5 210 5.9 C 210 6.3 210.1 6.6 210.4 6.8 C 210.6 7 211.1 7.2 211.7 7.3 C 211.7 7.3 213.1 7.7 213.1 7.7 C 214 7.9 214.6 8.2 215.1 8.7 C 215.5 9.1 215.7 9.7 215.7 10.4 C 215.7 10.9 215.6 11.4 215.2 11.9 C 214.9 12.3 214.5 12.7 213.9 12.9 C 213.3 13.2 212.6 13.3 211.9 13.3 C 210.9 13.3 210.1 13.1 209.4 12.6 C 208.7 12.2 208.3 11.6 208.1 10.7 C 208.1 10.7 209.6 10.4 209.6 10.4 C 209.7 10.9 210 11.3 210.4 11.6 C 210.7 11.8 211.2 12 211.9 12 C 212.6 12 213.1 11.8 213.5 11.5 C 213.9 11.2 214.2 10.9 214.2 10.4 C 214.2 10.1 214 9.8 213.8 9.6 C 213.6 9.3 213.2 9.2 212.7 9.1 C 212.7 9.1 211.1 8.7 211.1 8.7 C 210.2 8.5 209.5 8.1 209.1 7.7 C 208.7 7.2 208.5 6.7 208.5 6 C 208.5 5.4 208.6 4.9 208.9 4.5 C 209.2 4.1 209.7 3.8 210.2 3.5 C 210.8 3.3 211.4 3.1 212.1 3.1 C 213 3.1 213.8 3.4 214.4 3.8 C 214.9 4.2 215.3 4.8 215.5 5.5 Z M 224.9 5.5 C 224.9 5.5 223.6 5.9 223.6 5.9 C 223.5 5.6 223.3 5.4 223.2 5.2 C 223 5 222.8 4.8 222.5 4.7 C 222.2 4.5 221.9 4.4 221.4 4.4 C 220.8 4.4 220.3 4.6 219.9 4.9 C 219.5 5.1 219.3 5.5 219.3 5.9 C 219.3 6.3 219.5 6.6 219.7 6.8 C 220 7 220.4 7.2 221 7.3 C 221 7.3 222.5 7.7 222.5 7.7 C 223.4 7.9 224 8.2 224.4 8.7 C 224.9 9.1 225.1 9.7 225.1 10.4 C 225.1 10.9 224.9 11.4 224.6 11.9 C 224.3 12.3 223.8 12.7 223.3 12.9 C 222.7 13.2 222 13.3 221.3 13.3 C 220.2 13.3 219.4 13.1 218.8 12.6 C 218.1 12.2 217.7 11.6 217.5 10.7 C 217.5 10.7 218.9 10.4 218.9 10.4 C 219.1 10.9 219.3 11.3 219.7 11.6 C 220.1 11.8 220.6 12 221.2 12 C 221.9 12 222.5 11.8 222.9 11.5 C 223.3 11.2 223.5 10.9 223.5 10.4 C 223.5 10.1 223.4 9.8 223.2 9.6 C 222.9 9.3 222.6 9.2 222.1 9.1 C 222.1 9.1 220.4 8.7 220.4 8.7 C 219.5 8.5 218.9 8.1 218.5 7.7 C 218 7.2 217.8 6.7 217.8 6 C 217.8 5.4 218 4.9 218.3 4.5 C 218.6 4.1 219 3.8 219.6 3.5 C 220.1 3.3 220.7 3.1 221.4 3.1 C 222.4 3.1 223.2 3.4 223.7 3.8 C 224.3 4.2 224.7 4.8 224.9 5.5 Z " stroke="none" fill="#ffffff"/>  </g></svg>