<?xml version="1.0" standalone="no"?><!DOCTYPE svg PUBLIC "-//W3C//DTD SVG 1.1//EN" "http://www.w3.org/Graphics/SVG/1.1/DTD/svg11.dtd"><svg xmlns="http://www.w3.org/2000/svg" version="1.1" width="275px" height="31.3px" viewBox="0 -8 275 31.3" style="top:-8px">  <desc>Unclear application</desc>  <defs/>  <g id="Polygon106452">    <path d="M 36 0 L 37.6 0 C 37.6 0 37.63 8.67 37.6 8.7 C 37.6 9.6 37.4 10.4 37 11.1 C 36.6 11.8 36 12.3 35.2 12.7 C 34.5 13.1 33.6 13.3 32.5 13.3 C 31.5 13.3 30.6 13.1 29.9 12.7 C 29.1 12.3 28.5 11.8 28.1 11.1 C 27.7 10.4 27.5 9.6 27.5 8.7 C 27.45 8.67 27.5 0 27.5 0 L 29 0 C 29 0 29.04 8.54 29 8.5 C 29 9.2 29.2 9.7 29.5 10.2 C 29.7 10.7 30.1 11.1 30.7 11.4 C 31.2 11.7 31.8 11.8 32.5 11.8 C 33.3 11.8 33.9 11.7 34.4 11.4 C 34.9 11.1 35.3 10.7 35.6 10.2 C 35.9 9.7 36 9.2 36 8.5 C 36.04 8.54 36 0 36 0 Z M 42.1 7.2 C 42.06 7.18 42.1 13.1 42.1 13.1 L 40.6 13.1 L 40.6 3.3 L 42 3.3 L 42 4.8 C 42 4.8 42.14 4.81 42.1 4.8 C 42.4 4.3 42.7 3.9 43.2 3.6 C 43.7 3.3 44.3 3.1 45 3.1 C 45.7 3.1 46.3 3.3 46.8 3.6 C 47.2 3.8 47.6 4.2 47.9 4.8 C 48.2 5.3 48.3 6 48.3 6.9 C 48.33 6.85 48.3 13.1 48.3 13.1 L 46.8 13.1 C 46.8 13.1 46.82 6.95 46.8 7 C 46.8 6.2 46.6 5.6 46.2 5.1 C 45.8 4.7 45.3 4.5 44.6 4.5 C 44.1 4.5 43.7 4.6 43.3 4.8 C 42.9 5 42.6 5.3 42.4 5.7 C 42.2 6.1 42.1 6.6 42.1 7.2 Z M 55 13.3 C 54.1 13.3 53.3 13.1 52.6 12.6 C 52 12.2 51.4 11.6 51.1 10.8 C 50.7 10.1 50.5 9.2 50.5 8.2 C 50.5 7.2 50.7 6.4 51.1 5.6 C 51.5 4.8 52 4.2 52.6 3.8 C 53.3 3.4 54.1 3.1 55 3.1 C 55.7 3.1 56.3 3.3 56.8 3.5 C 57.4 3.8 57.8 4.1 58.2 4.6 C 58.6 5.1 58.8 5.6 58.9 6.2 C 58.9 6.2 57.3 6.2 57.3 6.2 C 57.2 5.8 57 5.4 56.6 5 C 56.2 4.7 55.7 4.5 55 4.5 C 54.4 4.5 53.9 4.7 53.5 5 C 53 5.3 52.7 5.7 52.4 6.2 C 52.2 6.8 52.1 7.4 52.1 8.2 C 52.1 8.9 52.2 9.6 52.4 10.2 C 52.7 10.7 53 11.2 53.4 11.5 C 53.9 11.8 54.4 11.9 55 11.9 C 55.4 11.9 55.7 11.9 56.1 11.7 C 56.4 11.6 56.7 11.4 56.9 11.1 C 57.1 10.9 57.3 10.6 57.3 10.2 C 57.3 10.2 58.9 10.2 58.9 10.2 C 58.8 10.8 58.6 11.3 58.2 11.8 C 57.9 12.3 57.4 12.6 56.9 12.9 C 56.4 13.2 55.7 13.3 55 13.3 Z M 62.5 0 L 62.5 13.1 L 61 13.1 L 61 0 L 62.5 0 Z M 69.4 13.3 C 68.5 13.3 67.6 13.1 67 12.7 C 66.3 12.2 65.7 11.7 65.4 10.9 C 65 10.1 64.8 9.3 64.8 8.3 C 64.8 7.3 65 6.4 65.4 5.6 C 65.7 4.8 66.3 4.2 66.9 3.8 C 67.6 3.4 68.4 3.1 69.2 3.1 C 69.8 3.1 70.3 3.2 70.8 3.4 C 71.3 3.6 71.7 3.8 72.1 4.2 C 72.5 4.6 72.9 5.1 73.1 5.7 C 73.3 6.4 73.5 7.1 73.5 8.1 C 73.46 8.05 73.5 8.7 73.5 8.7 L 65.9 8.7 L 65.9 7.4 C 65.9 7.4 71.93 7.39 71.9 7.4 C 71.9 6.8 71.8 6.3 71.6 5.9 C 71.4 5.5 71.1 5.1 70.7 4.9 C 70.3 4.6 69.8 4.5 69.2 4.5 C 68.6 4.5 68.1 4.6 67.7 4.9 C 67.3 5.2 66.9 5.6 66.7 6.1 C 66.4 6.6 66.3 7.1 66.3 7.6 C 66.3 7.6 66.3 8.5 66.3 8.5 C 66.3 9.2 66.5 9.9 66.7 10.4 C 67 10.9 67.3 11.3 67.8 11.5 C 68.3 11.8 68.8 11.9 69.4 11.9 C 69.8 11.9 70.2 11.9 70.5 11.8 C 70.8 11.7 71.1 11.5 71.3 11.3 C 71.5 11 71.7 10.7 71.9 10.4 C 71.9 10.4 73.3 10.8 73.3 10.8 C 73.2 11.3 72.9 11.7 72.5 12.1 C 72.2 12.5 71.7 12.8 71.2 13 C 70.7 13.2 70.1 13.3 69.4 13.3 Z M 78.5 13.3 C 77.9 13.3 77.3 13.2 76.8 13 C 76.3 12.7 75.9 12.4 75.6 11.9 C 75.3 11.5 75.2 10.9 75.2 10.3 C 75.2 9.7 75.3 9.3 75.5 8.9 C 75.7 8.6 76 8.3 76.4 8.1 C 76.8 7.9 77.2 7.8 77.6 7.7 C 78.1 7.6 78.5 7.5 79 7.4 C 79.6 7.3 80.1 7.3 80.4 7.2 C 80.8 7.2 81.1 7.1 81.3 7 C 81.4 6.9 81.5 6.8 81.5 6.5 C 81.5 6.5 81.5 6.5 81.5 6.5 C 81.5 5.8 81.4 5.3 81 5 C 80.7 4.6 80.1 4.5 79.5 4.5 C 78.7 4.5 78.2 4.6 77.8 4.9 C 77.4 5.3 77.1 5.6 76.9 6 C 76.9 6 75.5 5.4 75.5 5.4 C 75.7 4.8 76.1 4.4 76.5 4 C 76.9 3.7 77.4 3.5 77.9 3.3 C 78.4 3.2 78.9 3.1 79.4 3.1 C 79.7 3.1 80.1 3.2 80.5 3.3 C 80.9 3.3 81.3 3.5 81.7 3.7 C 82.1 3.9 82.4 4.3 82.7 4.8 C 82.9 5.2 83 5.8 83 6.6 C 83.03 6.62 83 13.1 83 13.1 L 81.5 13.1 L 81.5 11.8 C 81.5 11.8 81.45 11.76 81.4 11.8 C 81.3 12 81.2 12.2 80.9 12.4 C 80.7 12.7 80.4 12.9 80 13.1 C 79.6 13.2 79.1 13.3 78.5 13.3 Z M 78.8 12 C 79.4 12 79.9 11.8 80.3 11.6 C 80.7 11.4 81 11.1 81.2 10.7 C 81.4 10.3 81.5 9.9 81.5 9.5 C 81.5 9.5 81.5 8.2 81.5 8.2 C 81.5 8.2 81.3 8.3 81.1 8.4 C 80.9 8.4 80.6 8.5 80.4 8.5 C 80.1 8.6 79.8 8.6 79.6 8.6 C 79.3 8.7 79.1 8.7 78.9 8.7 C 78.5 8.8 78.2 8.9 77.8 9 C 77.5 9.1 77.2 9.2 77 9.5 C 76.8 9.7 76.7 10 76.7 10.4 C 76.7 10.9 76.9 11.3 77.3 11.6 C 77.7 11.8 78.2 12 78.8 12 Z M 85.8 13.1 L 85.8 3.3 L 87.2 3.3 L 87.2 4.8 C 87.2 4.8 87.32 4.76 87.3 4.8 C 87.5 4.3 87.8 3.9 88.3 3.6 C 88.8 3.3 89.3 3.1 89.9 3.1 C 90 3.1 90.1 3.1 90.3 3.1 C 90.5 3.1 90.6 3.1 90.7 3.1 C 90.7 3.1 90.7 4.7 90.7 4.7 C 90.6 4.7 90.5 4.6 90.3 4.6 C 90.1 4.6 90 4.6 89.8 4.6 C 89.3 4.6 88.9 4.7 88.5 4.9 C 88.1 5.1 87.8 5.3 87.6 5.7 C 87.4 6 87.3 6.4 87.3 6.9 C 87.27 6.88 87.3 13.1 87.3 13.1 L 85.8 13.1 Z M 100.4 13.3 C 99.8 13.3 99.2 13.2 98.7 13 C 98.2 12.7 97.8 12.4 97.5 11.9 C 97.2 11.5 97.1 10.9 97.1 10.3 C 97.1 9.7 97.2 9.3 97.4 8.9 C 97.6 8.6 97.9 8.3 98.3 8.1 C 98.7 7.9 99.1 7.8 99.5 7.7 C 100 7.6 100.4 7.5 100.9 7.4 C 101.5 7.3 102 7.3 102.3 7.2 C 102.7 7.2 103 7.1 103.1 7 C 103.3 6.9 103.4 6.8 103.4 6.5 C 103.4 6.5 103.4 6.5 103.4 6.5 C 103.4 5.8 103.2 5.3 102.9 5 C 102.5 4.6 102 4.5 101.3 4.5 C 100.6 4.5 100.1 4.6 99.6 4.9 C 99.2 5.3 98.9 5.6 98.8 6 C 98.8 6 97.3 5.4 97.3 5.4 C 97.6 4.8 97.9 4.4 98.4 4 C 98.8 3.7 99.3 3.5 99.8 3.3 C 100.3 3.2 100.8 3.1 101.3 3.1 C 101.6 3.1 102 3.2 102.4 3.3 C 102.8 3.3 103.2 3.5 103.6 3.7 C 104 3.9 104.3 4.3 104.5 4.8 C 104.8 5.2 104.9 5.8 104.9 6.6 C 104.91 6.62 104.9 13.1 104.9 13.1 L 103.4 13.1 L 103.4 11.8 C 103.4 11.8 103.33 11.76 103.3 11.8 C 103.2 12 103.1 12.2 102.8 12.4 C 102.6 12.7 102.3 12.9 101.9 13.1 C 101.5 13.2 101 13.3 100.4 13.3 Z M 100.6 12 C 101.2 12 101.7 11.8 102.2 11.6 C 102.6 11.4 102.9 11.1 103.1 10.7 C 103.3 10.3 103.4 9.9 103.4 9.5 C 103.4 9.5 103.4 8.2 103.4 8.2 C 103.3 8.2 103.2 8.3 103 8.4 C 102.8 8.4 102.5 8.5 102.2 8.5 C 102 8.6 101.7 8.6 101.4 8.6 C 101.2 8.7 101 8.7 100.8 8.7 C 100.4 8.8 100 8.9 99.7 9 C 99.4 9.1 99.1 9.2 98.9 9.5 C 98.7 9.7 98.6 10 98.6 10.4 C 98.6 10.9 98.8 11.3 99.2 11.6 C 99.5 11.8 100 12 100.6 12 Z M 107.6 16.8 L 107.6 3.3 L 109.1 3.3 L 109.1 4.8 C 109.1 4.8 109.28 4.83 109.3 4.8 C 109.4 4.7 109.5 4.4 109.7 4.2 C 109.9 3.9 110.2 3.7 110.6 3.5 C 111 3.3 111.5 3.1 112.1 3.1 C 112.9 3.1 113.7 3.4 114.3 3.8 C 114.9 4.2 115.4 4.8 115.8 5.5 C 116.1 6.3 116.3 7.2 116.3 8.2 C 116.3 9.2 116.1 10.1 115.8 10.9 C 115.4 11.7 114.9 12.3 114.3 12.7 C 113.7 13.1 113 13.3 112.1 13.3 C 111.5 13.3 111 13.2 110.6 13 C 110.3 12.8 110 12.5 109.8 12.3 C 109.6 12 109.4 11.8 109.3 11.6 C 109.28 11.58 109.2 11.6 109.2 11.6 L 109.2 16.8 L 107.6 16.8 Z M 109.1 8.2 C 109.1 8.9 109.2 9.6 109.5 10.1 C 109.7 10.7 110 11.1 110.4 11.5 C 110.8 11.8 111.3 11.9 111.9 11.9 C 112.6 11.9 113.1 11.8 113.5 11.4 C 113.9 11.1 114.3 10.7 114.5 10.1 C 114.7 9.5 114.8 8.9 114.8 8.2 C 114.8 7.5 114.7 6.9 114.5 6.3 C 114.3 5.8 114 5.3 113.5 5 C 113.1 4.7 112.6 4.5 111.9 4.5 C 111.3 4.5 110.8 4.7 110.4 5 C 110 5.3 109.7 5.7 109.4 6.3 C 109.2 6.8 109.1 7.4 109.1 8.2 Z M 118.6 16.8 L 118.6 3.3 L 120.1 3.3 L 120.1 4.8 C 120.1 4.8 120.23 4.83 120.2 4.8 C 120.3 4.7 120.5 4.4 120.7 4.2 C 120.9 3.9 121.2 3.7 121.6 3.5 C 121.9 3.3 122.4 3.1 123.1 3.1 C 123.9 3.1 124.6 3.4 125.3 3.8 C 125.9 4.2 126.4 4.8 126.7 5.5 C 127.1 6.3 127.3 7.2 127.3 8.2 C 127.3 9.2 127.1 10.1 126.7 10.9 C 126.4 11.7 125.9 12.3 125.3 12.7 C 124.6 13.1 123.9 13.3 123.1 13.3 C 122.5 13.3 122 13.2 121.6 13 C 121.2 12.8 120.9 12.5 120.7 12.3 C 120.5 12 120.3 11.8 120.2 11.6 C 120.23 11.58 120.1 11.6 120.1 11.6 L 120.1 16.8 L 118.6 16.8 Z M 120.1 8.2 C 120.1 8.9 120.2 9.6 120.4 10.1 C 120.6 10.7 120.9 11.1 121.4 11.5 C 121.8 11.8 122.3 11.9 122.9 11.9 C 123.5 11.9 124.1 11.8 124.5 11.4 C 124.9 11.1 125.2 10.7 125.4 10.1 C 125.6 9.5 125.8 8.9 125.8 8.2 C 125.8 7.5 125.7 6.9 125.4 6.3 C 125.2 5.8 124.9 5.3 124.5 5 C 124.1 4.7 123.5 4.5 122.9 4.5 C 122.3 4.5 121.8 4.7 121.3 5 C 120.9 5.3 120.6 5.7 120.4 6.3 C 120.2 6.8 120.1 7.4 120.1 8.2 Z M 131.1 0 L 131.1 13.1 L 129.6 13.1 L 129.6 0 L 131.1 0 Z M 133.8 13.1 L 133.8 3.3 L 135.3 3.3 L 135.3 13.1 L 133.8 13.1 Z M 134.6 1.6 C 134.3 1.6 134.1 1.5 133.8 1.3 C 133.6 1.1 133.5 0.9 133.5 0.6 C 133.5 0.3 133.6 0.1 133.8 -0.1 C 134.1 -0.3 134.3 -0.4 134.6 -0.4 C 134.9 -0.4 135.1 -0.3 135.4 -0.1 C 135.6 0.1 135.7 0.3 135.7 0.6 C 135.7 0.9 135.6 1.1 135.4 1.3 C 135.1 1.5 134.9 1.6 134.6 1.6 Z M 142 13.3 C 141.1 13.3 140.3 13.1 139.6 12.6 C 139 12.2 138.5 11.6 138.1 10.8 C 137.8 10.1 137.6 9.2 137.6 8.2 C 137.6 7.2 137.8 6.4 138.1 5.6 C 138.5 4.8 139 4.2 139.7 3.8 C 140.3 3.4 141.1 3.1 142 3.1 C 142.7 3.1 143.3 3.3 143.9 3.5 C 144.4 3.8 144.9 4.1 145.2 4.6 C 145.6 5.1 145.8 5.6 145.9 6.2 C 145.9 6.2 144.4 6.2 144.4 6.2 C 144.3 5.8 144 5.4 143.6 5 C 143.2 4.7 142.7 4.5 142 4.5 C 141.4 4.5 140.9 4.7 140.5 5 C 140 5.3 139.7 5.7 139.5 6.2 C 139.2 6.8 139.1 7.4 139.1 8.2 C 139.1 8.9 139.2 9.6 139.4 10.2 C 139.7 10.7 140 11.2 140.5 11.5 C 140.9 11.8 141.4 11.9 142 11.9 C 142.4 11.9 142.8 11.9 143.1 11.7 C 143.4 11.6 143.7 11.4 143.9 11.1 C 144.1 10.9 144.3 10.6 144.4 10.2 C 144.4 10.2 145.9 10.2 145.9 10.2 C 145.8 10.8 145.6 11.3 145.3 11.8 C 144.9 12.3 144.5 12.6 143.9 12.9 C 143.4 13.2 142.8 13.3 142 13.3 Z M 151 13.3 C 150.4 13.3 149.8 13.2 149.3 13 C 148.8 12.7 148.4 12.4 148.1 11.9 C 147.8 11.5 147.6 10.9 147.6 10.3 C 147.6 9.7 147.7 9.3 148 8.9 C 148.2 8.6 148.5 8.3 148.9 8.1 C 149.2 7.9 149.6 7.8 150.1 7.7 C 150.5 7.6 151 7.5 151.4 7.4 C 152 7.3 152.5 7.3 152.9 7.2 C 153.3 7.2 153.5 7.1 153.7 7 C 153.9 6.9 154 6.8 154 6.5 C 154 6.5 154 6.5 154 6.5 C 154 5.8 153.8 5.3 153.5 5 C 153.1 4.6 152.6 4.5 151.9 4.5 C 151.2 4.5 150.6 4.6 150.2 4.9 C 149.8 5.3 149.5 5.6 149.3 6 C 149.3 6 147.9 5.4 147.9 5.4 C 148.2 4.8 148.5 4.4 148.9 4 C 149.4 3.7 149.8 3.5 150.3 3.3 C 150.9 3.2 151.4 3.1 151.9 3.1 C 152.2 3.1 152.5 3.2 152.9 3.3 C 153.4 3.3 153.8 3.5 154.1 3.7 C 154.5 3.9 154.8 4.3 155.1 4.8 C 155.4 5.2 155.5 5.8 155.5 6.6 C 155.48 6.62 155.5 13.1 155.5 13.1 L 154 13.1 L 154 11.8 C 154 11.8 153.9 11.76 153.9 11.8 C 153.8 12 153.6 12.2 153.4 12.4 C 153.1 12.7 152.8 12.9 152.4 13.1 C 152 13.2 151.6 13.3 151 13.3 Z M 151.2 12 C 151.8 12 152.3 11.8 152.7 11.6 C 153.1 11.4 153.4 11.1 153.7 10.7 C 153.9 10.3 154 9.9 154 9.5 C 154 9.5 154 8.2 154 8.2 C 153.9 8.2 153.8 8.3 153.6 8.4 C 153.3 8.4 153.1 8.5 152.8 8.5 C 152.5 8.6 152.3 8.6 152 8.6 C 151.7 8.7 151.5 8.7 151.4 8.7 C 151 8.8 150.6 8.9 150.3 9 C 149.9 9.1 149.7 9.2 149.5 9.5 C 149.2 9.7 149.1 10 149.1 10.4 C 149.1 10.9 149.3 11.3 149.7 11.6 C 150.1 11.8 150.6 12 151.2 12 Z M 162.2 3.3 L 162.2 4.6 L 157.2 4.6 L 157.2 3.3 L 162.2 3.3 Z M 158.6 0.9 L 160.1 0.9 C 160.1 0.9 160.15 10.28 160.1 10.3 C 160.1 10.7 160.2 11 160.3 11.2 C 160.5 11.4 160.6 11.6 160.8 11.7 C 161 11.7 161.2 11.8 161.5 11.8 C 161.6 11.8 161.8 11.8 161.9 11.7 C 162 11.7 162.1 11.7 162.1 11.7 C 162.1 11.7 162.4 13 162.4 13 C 162.3 13.1 162.2 13.1 162 13.2 C 161.8 13.2 161.6 13.2 161.3 13.2 C 160.9 13.2 160.5 13.1 160 12.9 C 159.6 12.8 159.3 12.5 159 12.1 C 158.8 11.7 158.6 11.3 158.6 10.7 C 158.64 10.69 158.6 0.9 158.6 0.9 Z M 164.4 13.1 L 164.4 3.3 L 165.9 3.3 L 165.9 13.1 L 164.4 13.1 Z M 165.1 1.6 C 164.8 1.6 164.6 1.5 164.4 1.3 C 164.2 1.1 164 0.9 164 0.6 C 164 0.3 164.2 0.1 164.4 -0.1 C 164.6 -0.3 164.8 -0.4 165.1 -0.4 C 165.4 -0.4 165.7 -0.3 165.9 -0.1 C 166.1 0.1 166.2 0.3 166.2 0.6 C 166.2 0.9 166.1 1.1 165.9 1.3 C 165.7 1.5 165.4 1.6 165.1 1.6 Z M 172.5 13.3 C 171.7 13.3 170.9 13.1 170.2 12.7 C 169.5 12.2 169 11.7 168.7 10.9 C 168.3 10.1 168.1 9.2 168.1 8.2 C 168.1 7.2 168.3 6.3 168.7 5.6 C 169 4.8 169.5 4.2 170.2 3.8 C 170.9 3.4 171.7 3.1 172.5 3.1 C 173.4 3.1 174.2 3.4 174.9 3.8 C 175.5 4.2 176.1 4.8 176.4 5.6 C 176.8 6.3 177 7.2 177 8.2 C 177 9.2 176.8 10.1 176.4 10.9 C 176.1 11.7 175.5 12.2 174.9 12.7 C 174.2 13.1 173.4 13.3 172.5 13.3 Z M 172.5 11.9 C 173.2 11.9 173.8 11.8 174.2 11.4 C 174.6 11.1 175 10.6 175.2 10.1 C 175.4 9.5 175.5 8.9 175.5 8.2 C 175.5 7.6 175.4 7 175.2 6.4 C 175 5.8 174.6 5.4 174.2 5 C 173.8 4.7 173.2 4.5 172.5 4.5 C 171.9 4.5 171.3 4.7 170.9 5 C 170.4 5.4 170.1 5.8 169.9 6.4 C 169.7 7 169.6 7.6 169.6 8.2 C 169.6 8.9 169.7 9.5 169.9 10.1 C 170.1 10.6 170.4 11.1 170.9 11.4 C 171.3 11.8 171.9 11.9 172.5 11.9 Z M 180.8 7.2 C 180.79 7.18 180.8 13.1 180.8 13.1 L 179.3 13.1 L 179.3 3.3 L 180.7 3.3 L 180.7 4.8 C 180.7 4.8 180.86 4.81 180.9 4.8 C 181.1 4.3 181.4 3.9 181.9 3.6 C 182.4 3.3 183 3.1 183.7 3.1 C 184.4 3.1 185 3.3 185.5 3.6 C 186 3.8 186.4 4.2 186.6 4.8 C 186.9 5.3 187.1 6 187.1 6.9 C 187.05 6.85 187.1 13.1 187.1 13.1 L 185.5 13.1 C 185.5 13.1 185.54 6.95 185.5 7 C 185.5 6.2 185.3 5.6 184.9 5.1 C 184.5 4.7 184 4.5 183.3 4.5 C 182.8 4.5 182.4 4.6 182 4.8 C 181.6 5 181.3 5.3 181.1 5.7 C 180.9 6.1 180.8 6.6 180.8 7.2 Z " stroke="none" fill="#ffffff"/>  </g></svg>