<?xml version="1.0" standalone="no"?><!DOCTYPE svg PUBLIC "-//W3C//DTD SVG 1.1//EN" "http://www.w3.org/Graphics/SVG/1.1/DTD/svg11.dtd"><svg xmlns="http://www.w3.org/2000/svg" version="1.1" width="275px" height="34.8px" viewBox="0 -8 275 34.8" style="top:-8px">  <desc>Discerning real value</desc>  <defs/>  <g id="Polygon106138">    <path d="M 6.4 14.5 C 6.42 14.55 1.3 14.5 1.3 14.5 L 1.3 0 C 1.3 0 6.46 0 6.5 0 C 7.9 0 9.2 0.3 10.2 0.9 C 11.3 1.5 12.1 2.3 12.7 3.4 C 13.3 4.5 13.5 5.7 13.5 7.3 C 13.5 8.8 13.3 10.1 12.7 11.2 C 12.1 12.3 11.3 13.1 10.2 13.7 C 9.2 14.3 7.9 14.5 6.4 14.5 Z M 4.3 11.9 C 4.3 11.9 6.29 11.91 6.3 11.9 C 7.2 11.9 8 11.7 8.6 11.4 C 9.2 11.1 9.7 10.6 10 9.9 C 10.3 9.2 10.5 8.3 10.5 7.3 C 10.5 6.2 10.3 5.3 10 4.6 C 9.7 3.9 9.2 3.4 8.6 3.1 C 8 2.8 7.2 2.6 6.3 2.6 C 6.3 2.63 4.3 2.6 4.3 2.6 L 4.3 11.9 Z M 15.8 14.5 L 15.8 3.6 L 18.9 3.6 L 18.9 14.5 L 15.8 14.5 Z M 17.4 2.2 C 16.9 2.2 16.5 2.1 16.2 1.8 C 15.9 1.5 15.7 1.1 15.7 0.7 C 15.7 0.3 15.9 -0.1 16.2 -0.4 C 16.5 -0.7 16.9 -0.8 17.4 -0.8 C 17.8 -0.8 18.2 -0.7 18.5 -0.4 C 18.8 -0.1 19 0.3 19 0.7 C 19 1.1 18.8 1.5 18.5 1.8 C 18.2 2.1 17.8 2.2 17.4 2.2 Z M 30.3 6.7 C 30.3 6.7 27.6 6.9 27.6 6.9 C 27.5 6.7 27.4 6.5 27.3 6.3 C 27.1 6.1 26.9 5.9 26.7 5.8 C 26.4 5.7 26.1 5.6 25.7 5.6 C 25.3 5.6 24.9 5.7 24.6 5.9 C 24.2 6.1 24.1 6.4 24.1 6.7 C 24.1 7 24.2 7.2 24.4 7.4 C 24.6 7.6 25 7.7 25.5 7.8 C 25.5 7.8 27.4 8.2 27.4 8.2 C 28.5 8.4 29.3 8.8 29.8 9.3 C 30.3 9.7 30.6 10.4 30.6 11.2 C 30.6 11.9 30.4 12.5 30 13 C 29.5 13.6 29 14 28.2 14.3 C 27.5 14.6 26.7 14.8 25.7 14.8 C 24.3 14.8 23.1 14.5 22.3 13.9 C 21.4 13.2 20.9 12.4 20.8 11.4 C 20.8 11.4 23.8 11.2 23.8 11.2 C 23.8 11.7 24.1 12 24.4 12.2 C 24.8 12.5 25.2 12.6 25.7 12.6 C 26.3 12.6 26.7 12.5 27 12.3 C 27.3 12.1 27.5 11.8 27.5 11.5 C 27.5 11.2 27.4 11 27.2 10.8 C 26.9 10.6 26.6 10.5 26.1 10.4 C 26.1 10.4 24.2 10 24.2 10 C 23.2 9.8 22.4 9.4 21.9 8.9 C 21.3 8.4 21.1 7.7 21.1 6.9 C 21.1 6.2 21.3 5.6 21.6 5.1 C 22 4.6 22.6 4.2 23.3 3.9 C 24 3.6 24.8 3.5 25.7 3.5 C 27.1 3.5 28.2 3.8 29 4.4 C 29.7 5 30.2 5.7 30.3 6.7 Z M 37.4 14.8 C 36.2 14.8 35.3 14.5 34.5 14 C 33.7 13.6 33.1 12.9 32.6 12.1 C 32.2 11.2 32 10.2 32 9.1 C 32 8 32.2 7 32.6 6.2 C 33.1 5.3 33.7 4.7 34.5 4.2 C 35.3 3.7 36.2 3.5 37.3 3.5 C 38.3 3.5 39.1 3.7 39.8 4 C 40.6 4.4 41.1 4.8 41.5 5.5 C 42 6.1 42.2 6.8 42.2 7.7 C 42.2 7.7 39.4 7.7 39.4 7.7 C 39.3 7.1 39.1 6.7 38.7 6.4 C 38.4 6 37.9 5.9 37.4 5.9 C 36.9 5.9 36.5 6 36.2 6.2 C 35.8 6.5 35.6 6.9 35.4 7.3 C 35.2 7.8 35.1 8.4 35.1 9.1 C 35.1 9.8 35.2 10.4 35.4 10.9 C 35.5 11.4 35.8 11.7 36.2 12 C 36.5 12.2 36.9 12.4 37.4 12.4 C 37.7 12.4 38.1 12.3 38.3 12.2 C 38.6 12 38.8 11.8 39 11.5 C 39.2 11.3 39.3 10.9 39.4 10.5 C 39.4 10.5 42.2 10.5 42.2 10.5 C 42.2 11.4 42 12.1 41.6 12.7 C 41.1 13.4 40.6 13.9 39.9 14.2 C 39.2 14.6 38.3 14.8 37.4 14.8 Z M 49.1 14.8 C 47.9 14.8 47 14.5 46.2 14.1 C 45.4 13.6 44.7 13 44.3 12.1 C 43.9 11.3 43.7 10.3 43.7 9.1 C 43.7 8 43.9 7 44.3 6.2 C 44.7 5.3 45.4 4.7 46.2 4.2 C 46.9 3.7 47.9 3.5 49 3.5 C 49.7 3.5 50.3 3.6 51 3.8 C 51.6 4.1 52.1 4.4 52.6 4.9 C 53.1 5.3 53.4 5.9 53.7 6.6 C 53.9 7.3 54.1 8.1 54.1 9 C 54.08 9.03 54.1 9.9 54.1 9.9 L 44.9 9.9 L 44.9 8 C 44.9 8 51.23 7.99 51.2 8 C 51.2 7.6 51.1 7.2 50.9 6.8 C 50.8 6.5 50.5 6.2 50.2 6 C 49.8 5.8 49.4 5.8 49 5.8 C 48.5 5.8 48.1 5.9 47.8 6.1 C 47.4 6.3 47.2 6.6 47 6.9 C 46.8 7.3 46.7 7.7 46.6 8.1 C 46.6 8.1 46.6 9.9 46.6 9.9 C 46.6 10.4 46.7 10.9 47 11.3 C 47.2 11.7 47.4 12 47.8 12.2 C 48.2 12.4 48.6 12.5 49.1 12.5 C 49.5 12.5 49.8 12.5 50 12.4 C 50.3 12.3 50.6 12.1 50.8 11.9 C 51 11.7 51.1 11.5 51.2 11.2 C 51.2 11.2 54 11.4 54 11.4 C 53.9 12.1 53.6 12.7 53.1 13.2 C 52.7 13.7 52.1 14.1 51.5 14.3 C 50.8 14.6 50 14.8 49.1 14.8 Z M 56.1 14.5 L 56.1 3.6 L 59.1 3.6 L 59.1 5.5 C 59.1 5.5 59.18 5.54 59.2 5.5 C 59.4 4.9 59.7 4.4 60.2 4 C 60.7 3.7 61.2 3.5 61.8 3.5 C 62 3.5 62.1 3.5 62.3 3.5 C 62.5 3.5 62.6 3.6 62.8 3.6 C 62.8 3.6 62.8 6.3 62.8 6.3 C 62.6 6.2 62.4 6.2 62.2 6.2 C 61.9 6.1 61.7 6.1 61.5 6.1 C 61 6.1 60.6 6.2 60.3 6.4 C 59.9 6.6 59.7 6.9 59.5 7.2 C 59.3 7.5 59.2 7.9 59.2 8.4 C 59.16 8.37 59.2 14.5 59.2 14.5 L 56.1 14.5 Z M 67.3 8.2 C 67.27 8.24 67.3 14.5 67.3 14.5 L 64.2 14.5 L 64.2 3.6 L 67.1 3.6 L 67.1 5.6 C 67.1 5.6 67.26 5.56 67.3 5.6 C 67.5 4.9 67.9 4.4 68.5 4.1 C 69 3.7 69.7 3.5 70.5 3.5 C 71.3 3.5 72 3.7 72.5 4 C 73.1 4.3 73.5 4.8 73.8 5.4 C 74.1 6 74.3 6.8 74.3 7.6 C 74.3 7.6 74.3 14.5 74.3 14.5 L 71.3 14.5 C 71.3 14.5 71.28 8.14 71.3 8.1 C 71.3 7.5 71.1 6.9 70.8 6.6 C 70.4 6.2 69.9 6 69.3 6 C 68.9 6 68.6 6.1 68.3 6.3 C 68 6.4 67.7 6.7 67.5 7 C 67.4 7.4 67.3 7.8 67.3 8.2 Z M 76.7 14.5 L 76.7 3.6 L 79.8 3.6 L 79.8 14.5 L 76.7 14.5 Z M 78.2 2.2 C 77.8 2.2 77.4 2.1 77.1 1.8 C 76.8 1.5 76.6 1.1 76.6 0.7 C 76.6 0.3 76.8 -0.1 77.1 -0.4 C 77.4 -0.7 77.8 -0.8 78.2 -0.8 C 78.7 -0.8 79.1 -0.7 79.4 -0.4 C 79.7 -0.1 79.9 0.3 79.9 0.7 C 79.9 1.1 79.7 1.5 79.4 1.8 C 79.1 2.1 78.7 2.2 78.2 2.2 Z M 85.3 8.2 C 85.28 8.24 85.3 14.5 85.3 14.5 L 82.3 14.5 L 82.3 3.6 L 85.1 3.6 L 85.1 5.6 C 85.1 5.6 85.26 5.56 85.3 5.6 C 85.5 4.9 85.9 4.4 86.5 4.1 C 87 3.7 87.7 3.5 88.5 3.5 C 89.3 3.5 90 3.7 90.5 4 C 91.1 4.3 91.5 4.8 91.8 5.4 C 92.2 6 92.3 6.8 92.3 7.6 C 92.31 7.6 92.3 14.5 92.3 14.5 L 89.3 14.5 C 89.3 14.5 89.28 8.14 89.3 8.1 C 89.3 7.5 89.1 6.9 88.8 6.6 C 88.4 6.2 88 6 87.3 6 C 86.9 6 86.6 6.1 86.3 6.3 C 86 6.4 85.7 6.7 85.5 7 C 85.4 7.4 85.3 7.8 85.3 8.2 Z M 99.6 18.9 C 98.6 18.9 97.8 18.7 97.1 18.5 C 96.4 18.2 95.8 17.8 95.4 17.4 C 95 16.9 94.8 16.4 94.6 15.8 C 94.6 15.8 97.4 15.4 97.4 15.4 C 97.5 15.7 97.7 15.9 97.8 16.1 C 98 16.2 98.3 16.4 98.6 16.5 C 98.9 16.6 99.2 16.7 99.7 16.7 C 100.3 16.7 100.9 16.5 101.3 16.2 C 101.7 15.9 102 15.4 102 14.6 C 101.96 14.61 102 12.6 102 12.6 C 102 12.6 101.83 12.61 101.8 12.6 C 101.7 12.9 101.5 13.2 101.2 13.5 C 101 13.7 100.6 14 100.2 14.1 C 99.8 14.3 99.3 14.4 98.7 14.4 C 97.9 14.4 97.2 14.2 96.5 13.8 C 95.8 13.4 95.3 12.9 94.9 12.1 C 94.5 11.3 94.3 10.3 94.3 9.1 C 94.3 7.8 94.5 6.8 94.9 6 C 95.3 5.1 95.8 4.5 96.5 4.1 C 97.2 3.7 97.9 3.5 98.7 3.5 C 99.3 3.5 99.8 3.6 100.2 3.8 C 100.7 4 101 4.3 101.2 4.6 C 101.5 4.9 101.7 5.2 101.8 5.5 C 101.83 5.47 101.9 5.5 101.9 5.5 L 101.9 3.6 L 105 3.6 C 105 3.6 104.95 14.65 105 14.7 C 105 15.6 104.7 16.4 104.3 17 C 103.8 17.6 103.2 18.1 102.4 18.4 C 101.6 18.7 100.7 18.9 99.6 18.9 Z M 99.7 12.1 C 100.2 12.1 100.6 12 100.9 11.8 C 101.3 11.5 101.5 11.2 101.7 10.7 C 101.9 10.2 102 9.7 102 9.1 C 102 8.4 101.9 7.9 101.7 7.4 C 101.5 6.9 101.3 6.6 100.9 6.3 C 100.6 6 100.2 5.9 99.7 5.9 C 99.2 5.9 98.8 6 98.4 6.3 C 98.1 6.6 97.8 6.9 97.7 7.4 C 97.5 7.9 97.4 8.4 97.4 9.1 C 97.4 9.7 97.5 10.2 97.7 10.7 C 97.8 11.1 98.1 11.5 98.4 11.7 C 98.8 12 99.2 12.1 99.7 12.1 Z M 112 14.5 L 112 3.6 L 114.9 3.6 L 114.9 5.5 C 114.9 5.5 115.05 5.54 115.1 5.5 C 115.2 4.9 115.6 4.4 116.1 4 C 116.5 3.7 117.1 3.5 117.7 3.5 C 117.8 3.5 118 3.5 118.2 3.5 C 118.3 3.5 118.5 3.6 118.6 3.6 C 118.6 3.6 118.6 6.3 118.6 6.3 C 118.5 6.2 118.3 6.2 118 6.2 C 117.8 6.1 117.6 6.1 117.3 6.1 C 116.9 6.1 116.5 6.2 116.2 6.4 C 115.8 6.6 115.5 6.9 115.3 7.2 C 115.1 7.5 115 7.9 115 8.4 C 115.03 8.37 115 14.5 115 14.5 L 112 14.5 Z M 125.1 14.8 C 123.9 14.8 123 14.5 122.2 14.1 C 121.4 13.6 120.7 13 120.3 12.1 C 119.9 11.3 119.7 10.3 119.7 9.1 C 119.7 8 119.9 7 120.3 6.2 C 120.7 5.3 121.4 4.7 122.2 4.2 C 122.9 3.7 123.9 3.5 124.9 3.5 C 125.7 3.5 126.3 3.6 127 3.8 C 127.6 4.1 128.1 4.4 128.6 4.9 C 129.1 5.3 129.4 5.9 129.7 6.6 C 129.9 7.3 130.1 8.1 130.1 9 C 130.07 9.03 130.1 9.9 130.1 9.9 L 120.9 9.9 L 120.9 8 C 120.9 8 127.23 7.99 127.2 8 C 127.2 7.6 127.1 7.2 126.9 6.8 C 126.8 6.5 126.5 6.2 126.2 6 C 125.8 5.8 125.4 5.8 125 5.8 C 124.5 5.8 124.1 5.9 123.8 6.1 C 123.4 6.3 123.1 6.6 122.9 6.9 C 122.8 7.3 122.6 7.7 122.6 8.1 C 122.6 8.1 122.6 9.9 122.6 9.9 C 122.6 10.4 122.7 10.9 122.9 11.3 C 123.1 11.7 123.4 12 123.8 12.2 C 124.2 12.4 124.6 12.5 125.1 12.5 C 125.5 12.5 125.8 12.5 126 12.4 C 126.3 12.3 126.6 12.1 126.8 11.9 C 127 11.7 127.1 11.5 127.2 11.2 C 127.2 11.2 130 11.4 130 11.4 C 129.9 12.1 129.6 12.7 129.1 13.2 C 128.7 13.7 128.1 14.1 127.4 14.3 C 126.8 14.6 126 14.8 125.1 14.8 Z M 135.1 14.8 C 134.4 14.8 133.8 14.6 133.3 14.4 C 132.7 14.1 132.3 13.8 132 13.3 C 131.7 12.8 131.5 12.2 131.5 11.5 C 131.5 10.9 131.6 10.4 131.8 10 C 132.1 9.6 132.4 9.2 132.7 9 C 133.1 8.7 133.6 8.5 134 8.4 C 134.5 8.3 135.1 8.2 135.6 8.1 C 136.2 8.1 136.7 8 137.1 8 C 137.5 7.9 137.8 7.8 138 7.7 C 138.1 7.6 138.2 7.4 138.2 7.2 C 138.2 7.2 138.2 7.1 138.2 7.1 C 138.2 6.7 138.1 6.3 137.8 6.1 C 137.5 5.8 137.1 5.7 136.6 5.7 C 136.1 5.7 135.6 5.8 135.3 6.1 C 135 6.3 134.8 6.6 134.7 7 C 134.7 7 131.9 6.7 131.9 6.7 C 132 6.1 132.3 5.5 132.7 5 C 133.1 4.5 133.7 4.2 134.3 3.9 C 135 3.6 135.8 3.5 136.6 3.5 C 137.2 3.5 137.8 3.6 138.4 3.7 C 138.9 3.8 139.4 4.1 139.9 4.4 C 140.3 4.7 140.6 5 140.9 5.5 C 141.1 6 141.3 6.5 141.3 7.2 C 141.26 7.19 141.3 14.5 141.3 14.5 L 138.4 14.5 L 138.4 13 C 138.4 13 138.31 13.03 138.3 13 C 138.1 13.4 137.9 13.7 137.6 13.9 C 137.3 14.2 137 14.4 136.5 14.5 C 136.1 14.7 135.7 14.8 135.1 14.8 Z M 136 12.7 C 136.4 12.7 136.8 12.6 137.2 12.4 C 137.5 12.2 137.8 12 138 11.7 C 138.2 11.4 138.3 11 138.3 10.6 C 138.3 10.6 138.3 9.5 138.3 9.5 C 138.2 9.6 138 9.6 137.9 9.7 C 137.7 9.7 137.5 9.8 137.3 9.8 C 137.1 9.8 136.9 9.9 136.7 9.9 C 136.5 9.9 136.3 10 136.2 10 C 135.8 10 135.5 10.1 135.2 10.2 C 135 10.3 134.8 10.5 134.6 10.7 C 134.5 10.9 134.4 11.1 134.4 11.4 C 134.4 11.8 134.5 12.1 134.8 12.3 C 135.1 12.6 135.5 12.7 136 12.7 Z M 146.7 0 L 146.7 14.5 L 143.7 14.5 L 143.7 0 L 146.7 0 Z M 164 3.6 L 160.2 14.5 L 156.7 14.5 L 152.9 3.6 L 156.1 3.6 L 158.4 11.4 L 158.5 11.4 L 160.8 3.6 L 164 3.6 Z M 168.2 14.8 C 167.5 14.8 166.9 14.6 166.3 14.4 C 165.8 14.1 165.3 13.8 165 13.3 C 164.7 12.8 164.6 12.2 164.6 11.5 C 164.6 10.9 164.7 10.4 164.9 10 C 165.1 9.6 165.4 9.2 165.8 9 C 166.2 8.7 166.6 8.5 167.1 8.4 C 167.6 8.3 168.1 8.2 168.6 8.1 C 169.3 8.1 169.8 8 170.2 8 C 170.6 7.9 170.9 7.8 171 7.7 C 171.2 7.6 171.3 7.4 171.3 7.2 C 171.3 7.2 171.3 7.1 171.3 7.1 C 171.3 6.7 171.2 6.3 170.9 6.1 C 170.6 5.8 170.2 5.7 169.7 5.7 C 169.1 5.7 168.7 5.8 168.4 6.1 C 168.1 6.3 167.8 6.6 167.7 7 C 167.7 7 164.9 6.7 164.9 6.7 C 165.1 6.1 165.4 5.5 165.8 5 C 166.2 4.5 166.7 4.2 167.4 3.9 C 168 3.6 168.8 3.5 169.7 3.5 C 170.3 3.5 170.9 3.6 171.4 3.7 C 172 3.8 172.5 4.1 172.9 4.4 C 173.3 4.7 173.7 5 173.9 5.5 C 174.2 6 174.3 6.5 174.3 7.2 C 174.32 7.19 174.3 14.5 174.3 14.5 L 171.4 14.5 L 171.4 13 C 171.4 13 171.36 13.03 171.4 13 C 171.2 13.4 171 13.7 170.7 13.9 C 170.4 14.2 170 14.4 169.6 14.5 C 169.2 14.7 168.7 14.8 168.2 14.8 Z M 169 12.7 C 169.5 12.7 169.9 12.6 170.2 12.4 C 170.6 12.2 170.8 12 171 11.7 C 171.2 11.4 171.3 11 171.3 10.6 C 171.3 10.6 171.3 9.5 171.3 9.5 C 171.2 9.6 171.1 9.6 170.9 9.7 C 170.8 9.7 170.6 9.8 170.4 9.8 C 170.2 9.8 170 9.9 169.8 9.9 C 169.6 9.9 169.4 10 169.2 10 C 168.9 10 168.5 10.1 168.3 10.2 C 168 10.3 167.8 10.5 167.7 10.7 C 167.5 10.9 167.4 11.1 167.4 11.4 C 167.4 11.8 167.6 12.1 167.9 12.3 C 168.2 12.6 168.6 12.7 169 12.7 Z M 179.8 0 L 179.8 14.5 L 176.8 14.5 L 176.8 0 L 179.8 0 Z M 189.3 9.9 C 189.28 9.9 189.3 3.6 189.3 3.6 L 192.3 3.6 L 192.3 14.5 L 189.4 14.5 L 189.4 12.6 C 189.4 12.6 189.28 12.56 189.3 12.6 C 189 13.2 188.6 13.7 188.1 14.1 C 187.5 14.5 186.8 14.7 186 14.7 C 185.2 14.7 184.6 14.5 184.1 14.2 C 183.5 13.9 183.1 13.4 182.8 12.8 C 182.4 12.2 182.3 11.4 182.3 10.6 C 182.28 10.58 182.3 3.6 182.3 3.6 L 185.3 3.6 C 185.3 3.6 185.31 10.04 185.3 10 C 185.3 10.7 185.5 11.2 185.8 11.6 C 186.2 11.9 186.6 12.1 187.2 12.1 C 187.6 12.1 187.9 12 188.2 11.9 C 188.5 11.7 188.8 11.5 189 11.1 C 189.2 10.8 189.3 10.4 189.3 9.9 Z M 199.7 14.8 C 198.6 14.8 197.7 14.5 196.8 14.1 C 196 13.6 195.4 13 195 12.1 C 194.5 11.3 194.3 10.3 194.3 9.1 C 194.3 8 194.5 7 195 6.2 C 195.4 5.3 196 4.7 196.8 4.2 C 197.6 3.7 198.5 3.5 199.6 3.5 C 200.3 3.5 201 3.6 201.6 3.8 C 202.3 4.1 202.8 4.4 203.3 4.9 C 203.7 5.3 204.1 5.9 204.4 6.6 C 204.6 7.3 204.7 8.1 204.7 9 C 204.74 9.03 204.7 9.9 204.7 9.9 L 195.5 9.9 L 195.5 8 C 195.5 8 201.9 7.99 201.9 8 C 201.9 7.6 201.8 7.2 201.6 6.8 C 201.4 6.5 201.2 6.2 200.8 6 C 200.5 5.8 200.1 5.8 199.7 5.8 C 199.2 5.8 198.8 5.9 198.4 6.1 C 198.1 6.3 197.8 6.6 197.6 6.9 C 197.4 7.3 197.3 7.7 197.3 8.1 C 197.3 8.1 197.3 9.9 197.3 9.9 C 197.3 10.4 197.4 10.9 197.6 11.3 C 197.8 11.7 198.1 12 198.5 12.2 C 198.8 12.4 199.3 12.5 199.8 12.5 C 200.1 12.5 200.4 12.5 200.7 12.4 C 201 12.3 201.2 12.1 201.4 11.9 C 201.6 11.7 201.8 11.5 201.9 11.2 C 201.9 11.2 204.7 11.4 204.7 11.4 C 204.5 12.1 204.2 12.7 203.8 13.2 C 203.4 13.7 202.8 14.1 202.1 14.3 C 201.4 14.6 200.6 14.8 199.7 14.8 Z " stroke="none" fill="#ffffff"/>  </g></svg>