<?xml version="1.0" standalone="no"?><!DOCTYPE svg PUBLIC "-//W3C//DTD SVG 1.1//EN" "http://www.w3.org/Graphics/SVG/1.1/DTD/svg11.dtd"><svg xmlns="http://www.w3.org/2000/svg" version="1.1" width="300px" height="205.7px" viewBox="0 -16 300 205.7" style="top:-16px">  <desc>Why does so much AI fail to live up to the hype?</desc>  <defs/>  <g id="Polygon114607">    <path d="M 8.5 154.5 C 8.47 154.48 8.5 167.1 8.5 167.1 L 2.4 167.1 L 2.4 138 L 8.3 138 L 8.3 149.1 C 8.3 149.1 8.55 149.12 8.6 149.1 C 9 147.8 9.8 146.8 10.9 146.1 C 12 145.4 13.4 145 15.1 145 C 16.6 145 17.9 145.3 19 146 C 20.2 146.6 21.1 147.6 21.7 148.8 C 22.3 150 22.6 151.5 22.6 153.2 C 22.61 153.2 22.6 167.1 22.6 167.1 L 16.6 167.1 C 16.6 167.1 16.56 154.28 16.6 154.3 C 16.6 152.9 16.2 151.9 15.5 151.1 C 14.9 150.4 13.9 150 12.7 150 C 11.8 150 11.1 150.2 10.5 150.5 C 9.9 150.9 9.4 151.4 9 152.1 C 8.7 152.7 8.5 153.5 8.5 154.5 Z M 30 175.3 C 29.2 175.3 28.5 175.2 27.8 175.1 C 27.2 175 26.6 174.8 26.2 174.6 C 26.2 174.6 27.5 170.1 27.5 170.1 C 28.2 170.3 28.9 170.5 29.5 170.5 C 30 170.5 30.5 170.4 31 170.1 C 31.4 169.8 31.7 169.3 32 168.6 C 31.98 168.64 32.3 167.7 32.3 167.7 L 24.5 145.3 L 30.9 145.3 L 35.4 161.3 L 35.6 161.3 L 40.2 145.3 L 46.6 145.3 C 46.6 145.3 38.1 169.45 38.1 169.4 C 37.7 170.6 37.1 171.6 36.4 172.5 C 35.8 173.4 34.9 174.1 33.8 174.6 C 32.8 175 31.5 175.3 30 175.3 Z M 49.3 175.3 L 49.3 145.3 L 55.3 145.3 L 55.3 148.9 C 55.3 148.9 55.54 148.94 55.5 148.9 C 55.8 148.4 56.2 147.8 56.7 147.1 C 57.2 146.5 57.9 146 58.7 145.6 C 59.5 145.2 60.5 145 61.8 145 C 63.3 145 64.8 145.4 66.2 146.2 C 67.5 147.1 68.6 148.3 69.4 150 C 70.2 151.6 70.6 153.7 70.6 156.2 C 70.6 158.6 70.2 160.7 69.4 162.4 C 68.6 164 67.6 165.3 66.2 166.2 C 64.9 167 63.4 167.4 61.7 167.4 C 60.6 167.4 59.6 167.3 58.7 166.9 C 57.9 166.5 57.3 166 56.7 165.4 C 56.2 164.8 55.8 164.2 55.5 163.6 C 55.54 163.6 55.4 163.6 55.4 163.6 L 55.4 175.3 L 49.3 175.3 Z M 55.2 156.2 C 55.2 157.5 55.4 158.6 55.8 159.6 C 56.1 160.5 56.7 161.3 57.3 161.8 C 58 162.4 58.8 162.6 59.8 162.6 C 60.8 162.6 61.6 162.4 62.3 161.8 C 63 161.3 63.5 160.5 63.9 159.5 C 64.2 158.6 64.4 157.5 64.4 156.2 C 64.4 154.9 64.2 153.8 63.9 152.9 C 63.5 151.9 63 151.2 62.3 150.6 C 61.7 150.1 60.8 149.8 59.8 149.8 C 58.8 149.8 58 150.1 57.3 150.6 C 56.6 151.1 56.1 151.8 55.8 152.8 C 55.4 153.8 55.2 154.9 55.2 156.2 Z M 84.3 167.5 C 82 167.5 80.1 167.1 78.5 166.1 C 76.9 165.2 75.6 163.9 74.7 162.3 C 73.9 160.6 73.4 158.6 73.4 156.3 C 73.4 154 73.9 152.1 74.7 150.4 C 75.6 148.7 76.8 147.4 78.4 146.4 C 80 145.5 81.9 145 84 145 C 85.5 145 86.8 145.2 88.1 145.7 C 89.3 146.1 90.4 146.8 91.3 147.7 C 92.2 148.7 93 149.8 93.5 151.2 C 94 152.6 94.3 154.2 94.3 156.1 C 94.28 156.07 94.3 157.7 94.3 157.7 L 75.9 157.7 L 75.9 154 C 75.9 154 88.58 153.98 88.6 154 C 88.6 153.1 88.4 152.3 88 151.7 C 87.6 151 87.1 150.5 86.4 150.1 C 85.8 149.7 85 149.5 84.1 149.5 C 83.2 149.5 82.4 149.7 81.7 150.1 C 81 150.6 80.4 151.1 80 151.8 C 79.6 152.5 79.4 153.3 79.4 154.2 C 79.4 154.2 79.4 157.7 79.4 157.7 C 79.4 158.8 79.6 159.8 80 160.5 C 80.4 161.3 81 161.9 81.7 162.4 C 82.5 162.8 83.4 163 84.4 163 C 85 163 85.7 162.9 86.2 162.7 C 86.8 162.5 87.2 162.2 87.6 161.9 C 88 161.5 88.3 161 88.6 160.5 C 88.6 160.5 94.2 160.8 94.2 160.8 C 93.9 162.2 93.3 163.4 92.4 164.4 C 91.5 165.4 90.4 166.1 89 166.7 C 87.7 167.2 86.1 167.5 84.3 167.5 Z M 101.5 158.4 C 101.5 158.4 101.46 157.89 101.5 157.9 C 101.5 156.2 101.6 154.9 101.9 153.9 C 102.2 152.9 102.6 152.1 103.2 151.5 C 103.7 150.9 104.4 150.4 105.2 149.9 C 105.8 149.5 106.3 149.1 106.8 148.7 C 107.2 148.3 107.6 147.9 107.9 147.4 C 108.2 146.9 108.3 146.3 108.3 145.7 C 108.3 145 108.1 144.5 107.8 144 C 107.5 143.5 107.1 143.1 106.6 142.8 C 106 142.6 105.5 142.4 104.8 142.4 C 104.2 142.4 103.6 142.6 103.1 142.8 C 102.5 143.1 102.1 143.5 101.7 144 C 101.4 144.6 101.2 145.2 101.2 146 C 101.2 146 95.4 146 95.4 146 C 95.4 144.1 95.9 142.5 96.7 141.3 C 97.6 140.1 98.7 139.1 100.2 138.5 C 101.6 137.9 103.1 137.6 104.9 137.6 C 106.7 137.6 108.4 137.9 109.9 138.5 C 111.3 139.2 112.4 140.1 113.3 141.2 C 114.1 142.4 114.5 143.8 114.5 145.5 C 114.5 146.6 114.3 147.6 114 148.4 C 113.6 149.3 113.1 150 112.4 150.7 C 111.8 151.4 111 151.9 110.1 152.5 C 109.4 152.9 108.7 153.4 108.3 153.9 C 107.8 154.3 107.4 154.9 107.2 155.5 C 107 156.2 106.9 157 106.8 157.9 C 106.84 157.89 106.8 158.4 106.8 158.4 L 101.5 158.4 Z M 104.3 167.5 C 103.3 167.5 102.5 167.1 101.8 166.5 C 101.2 165.8 100.9 165 100.9 164.1 C 100.9 163.1 101.2 162.3 101.8 161.7 C 102.5 161 103.3 160.7 104.3 160.7 C 105.2 160.7 106 161 106.6 161.7 C 107.3 162.3 107.7 163.1 107.7 164.1 C 107.7 164.7 107.5 165.2 107.2 165.8 C 106.9 166.3 106.5 166.7 105.9 167 C 105.4 167.3 104.9 167.5 104.3 167.5 Z " stroke="none" fill="#10283d"/>  </g>  <g id="Polygon114606">    <path d="M 8.5 92 L 8.5 121.1 L 2.4 121.1 L 2.4 92 L 8.5 92 Z M 13.2 121.1 L 13.2 99.3 L 19.3 99.3 L 19.3 121.1 L 13.2 121.1 Z M 16.3 96.5 C 15.4 96.5 14.6 96.2 14 95.6 C 13.3 95 13 94.2 13 93.4 C 13 92.6 13.3 91.8 14 91.2 C 14.6 90.6 15.4 90.3 16.3 90.3 C 17.2 90.3 17.9 90.6 18.6 91.2 C 19.2 91.8 19.5 92.5 19.5 93.4 C 19.5 94.2 19.2 95 18.6 95.6 C 17.9 96.2 17.2 96.5 16.3 96.5 Z M 44.1 99.3 L 36.4 121.1 L 29.6 121.1 L 22 99.3 L 28.4 99.3 L 32.9 114.9 L 33.1 114.9 L 37.7 99.3 L 44.1 99.3 Z M 55.8 121.5 C 53.6 121.5 51.7 121.1 50.1 120.1 C 48.4 119.2 47.2 117.9 46.3 116.3 C 45.5 114.6 45 112.6 45 110.3 C 45 108 45.5 106.1 46.3 104.4 C 47.2 102.7 48.4 101.4 50 100.4 C 51.6 99.5 53.5 99 55.6 99 C 57 99 58.4 99.2 59.6 99.7 C 60.9 100.1 62 100.8 62.9 101.7 C 63.8 102.7 64.6 103.8 65.1 105.2 C 65.6 106.6 65.9 108.2 65.9 110.1 C 65.85 110.07 65.9 111.7 65.9 111.7 L 47.4 111.7 L 47.4 108 C 47.4 108 60.16 107.98 60.2 108 C 60.2 107.1 60 106.3 59.6 105.7 C 59.2 105 58.7 104.5 58 104.1 C 57.4 103.7 56.6 103.5 55.7 103.5 C 54.8 103.5 54 103.7 53.3 104.1 C 52.6 104.6 52 105.1 51.6 105.8 C 51.2 106.5 51 107.3 51 108.2 C 51 108.2 51 111.7 51 111.7 C 51 112.8 51.2 113.8 51.6 114.5 C 52 115.3 52.6 115.9 53.3 116.4 C 54 116.8 54.9 117 55.9 117 C 56.6 117 57.2 116.9 57.8 116.7 C 58.3 116.5 58.8 116.2 59.2 115.9 C 59.6 115.5 59.9 115 60.1 114.5 C 60.1 114.5 65.7 114.8 65.7 114.8 C 65.4 116.2 64.9 117.4 64 118.4 C 63.1 119.4 62 120.1 60.6 120.7 C 59.2 121.2 57.6 121.5 55.8 121.5 Z M 93.1 111.8 C 93.07 111.8 93.1 99.3 93.1 99.3 L 99.1 99.3 L 99.1 121.1 L 93.3 121.1 L 93.3 117.1 C 93.3 117.1 93.08 117.13 93.1 117.1 C 92.6 118.4 91.8 119.4 90.6 120.2 C 89.5 121 88.1 121.4 86.5 121.4 C 85 121.4 83.7 121 82.6 120.4 C 81.5 119.7 80.6 118.8 80 117.6 C 79.4 116.3 79.1 114.9 79.1 113.2 C 79.08 113.16 79.1 99.3 79.1 99.3 L 85.1 99.3 C 85.1 99.3 85.13 112.09 85.1 112.1 C 85.1 113.4 85.5 114.4 86.2 115.1 C 86.8 115.9 87.8 116.3 88.9 116.3 C 89.6 116.3 90.3 116.1 91 115.8 C 91.6 115.4 92.1 114.9 92.5 114.3 C 92.9 113.6 93.1 112.8 93.1 111.8 Z M 103.9 129.3 L 103.9 99.3 L 109.9 99.3 L 109.9 102.9 C 109.9 102.9 110.12 102.94 110.1 102.9 C 110.4 102.4 110.8 101.8 111.3 101.1 C 111.8 100.5 112.4 100 113.3 99.6 C 114.1 99.2 115.1 99 116.3 99 C 117.9 99 119.4 99.4 120.7 100.2 C 122.1 101.1 123.2 102.3 124 104 C 124.8 105.6 125.2 107.7 125.2 110.2 C 125.2 112.6 124.8 114.7 124 116.4 C 123.2 118 122.2 119.3 120.8 120.2 C 119.5 121 118 121.4 116.3 121.4 C 115.1 121.4 114.1 121.3 113.3 120.9 C 112.5 120.5 111.8 120 111.3 119.4 C 110.8 118.8 110.4 118.2 110.1 117.6 C 110.12 117.6 109.9 117.6 109.9 117.6 L 109.9 129.3 L 103.9 129.3 Z M 109.8 110.2 C 109.8 111.5 110 112.6 110.3 113.6 C 110.7 114.5 111.2 115.3 111.9 115.8 C 112.6 116.4 113.4 116.6 114.4 116.6 C 115.4 116.6 116.2 116.4 116.9 115.8 C 117.6 115.3 118.1 114.5 118.5 113.5 C 118.8 112.6 119 111.5 119 110.2 C 119 108.9 118.8 107.8 118.5 106.9 C 118.1 105.9 117.6 105.2 116.9 104.6 C 116.2 104.1 115.4 103.8 114.4 103.8 C 113.4 103.8 112.6 104.1 111.9 104.6 C 111.2 105.1 110.7 105.8 110.3 106.8 C 110 107.8 109.8 108.9 109.8 110.2 Z M 150.1 99.3 L 150.1 103.8 L 136.9 103.8 L 136.9 99.3 L 150.1 99.3 Z M 139.9 94 L 146 94 C 146 94 145.96 114.39 146 114.4 C 146 114.9 146 115.4 146.2 115.7 C 146.4 116 146.6 116.2 146.9 116.3 C 147.2 116.5 147.6 116.5 148 116.5 C 148.3 116.5 148.6 116.5 148.9 116.4 C 149.1 116.4 149.4 116.3 149.5 116.3 C 149.5 116.3 150.5 120.8 150.5 120.8 C 150.2 120.9 149.7 121 149.2 121.2 C 148.6 121.3 148 121.4 147.2 121.4 C 145.7 121.4 144.4 121.3 143.4 120.8 C 142.3 120.4 141.4 119.7 140.8 118.7 C 140.2 117.8 139.9 116.6 139.9 115.2 C 139.91 115.18 139.9 94 139.9 94 Z M 162.9 121.5 C 160.7 121.5 158.8 121 157.2 120.1 C 155.6 119.2 154.4 117.8 153.5 116.2 C 152.6 114.5 152.2 112.5 152.2 110.3 C 152.2 108 152.6 106 153.5 104.4 C 154.4 102.7 155.6 101.3 157.2 100.4 C 158.8 99.5 160.7 99 162.9 99 C 165.1 99 167 99.5 168.6 100.4 C 170.2 101.3 171.5 102.7 172.3 104.4 C 173.2 106 173.7 108 173.7 110.3 C 173.7 112.5 173.2 114.5 172.3 116.2 C 171.5 117.8 170.2 119.2 168.6 120.1 C 167 121 165.1 121.5 162.9 121.5 Z M 162.9 116.8 C 163.9 116.8 164.8 116.5 165.5 116 C 166.1 115.4 166.6 114.6 167 113.6 C 167.3 112.6 167.5 111.5 167.5 110.2 C 167.5 109 167.3 107.8 167 106.8 C 166.6 105.8 166.1 105 165.5 104.5 C 164.8 103.9 163.9 103.6 162.9 103.6 C 161.9 103.6 161.1 103.9 160.4 104.5 C 159.7 105 159.2 105.8 158.8 106.8 C 158.5 107.8 158.3 109 158.3 110.2 C 158.3 111.5 158.5 112.6 158.8 113.6 C 159.2 114.6 159.7 115.4 160.4 116 C 161.1 116.5 161.9 116.8 162.9 116.8 Z M 198.5 99.3 L 198.5 103.8 L 185.3 103.8 L 185.3 99.3 L 198.5 99.3 Z M 188.3 94 L 194.4 94 C 194.4 94 194.38 114.39 194.4 114.4 C 194.4 114.9 194.5 115.4 194.6 115.7 C 194.8 116 195 116.2 195.4 116.3 C 195.7 116.5 196 116.5 196.4 116.5 C 196.7 116.5 197 116.5 197.3 116.4 C 197.6 116.4 197.8 116.3 197.9 116.3 C 197.9 116.3 198.9 120.8 198.9 120.8 C 198.6 120.9 198.2 121 197.6 121.2 C 197.1 121.3 196.4 121.4 195.6 121.4 C 194.1 121.4 192.9 121.3 191.8 120.8 C 190.7 120.4 189.8 119.7 189.2 118.7 C 188.6 117.8 188.3 116.6 188.3 115.2 C 188.33 115.18 188.3 94 188.3 94 Z M 208.2 108.5 C 208.16 108.48 208.2 121.1 208.2 121.1 L 202.1 121.1 L 202.1 92 L 208 92 L 208 103.1 C 208 103.1 208.25 103.12 208.2 103.1 C 208.7 101.8 209.5 100.8 210.6 100.1 C 211.7 99.4 213.1 99 214.8 99 C 216.3 99 217.6 99.3 218.7 100 C 219.9 100.6 220.7 101.6 221.4 102.8 C 222 104 222.3 105.5 222.3 107.2 C 222.31 107.2 222.3 121.1 222.3 121.1 L 216.3 121.1 C 216.3 121.1 216.26 108.28 216.3 108.3 C 216.3 106.9 215.9 105.9 215.2 105.1 C 214.6 104.4 213.6 104 212.4 104 C 211.5 104 210.8 104.2 210.2 104.5 C 209.6 104.9 209.1 105.4 208.7 106.1 C 208.4 106.7 208.2 107.5 208.2 108.5 Z M 236.8 121.5 C 234.5 121.5 232.6 121.1 231 120.1 C 229.4 119.2 228.1 117.9 227.3 116.3 C 226.4 114.6 226 112.6 226 110.3 C 226 108 226.4 106.1 227.3 104.4 C 228.1 102.7 229.4 101.4 230.9 100.4 C 232.5 99.5 234.4 99 236.5 99 C 238 99 239.3 99.2 240.6 99.7 C 241.8 100.1 242.9 100.8 243.8 101.7 C 244.8 102.7 245.5 103.8 246 105.2 C 246.5 106.6 246.8 108.2 246.8 110.1 C 246.79 110.07 246.8 111.7 246.8 111.7 L 228.4 111.7 L 228.4 108 C 228.4 108 241.1 107.98 241.1 108 C 241.1 107.1 240.9 106.3 240.5 105.7 C 240.1 105 239.6 104.5 239 104.1 C 238.3 103.7 237.5 103.5 236.6 103.5 C 235.7 103.5 234.9 103.7 234.2 104.1 C 233.5 104.6 232.9 105.1 232.5 105.8 C 232.1 106.5 231.9 107.3 231.9 108.2 C 231.9 108.2 231.9 111.7 231.9 111.7 C 231.9 112.8 232.1 113.8 232.5 114.5 C 232.9 115.3 233.5 115.9 234.2 116.4 C 235 116.8 235.9 117 236.9 117 C 237.5 117 238.2 116.9 238.7 116.7 C 239.3 116.5 239.8 116.2 240.2 115.9 C 240.6 115.5 240.9 115 241.1 114.5 C 241.1 114.5 246.7 114.8 246.7 114.8 C 246.4 116.2 245.8 117.4 244.9 118.4 C 244 119.4 242.9 120.1 241.5 120.7 C 240.2 121.2 238.6 121.5 236.8 121.5 Z " stroke="none" fill="#10283d"/>  </g>  <g id="Polygon114605">    <path d="M 2.4 75.1 L 2.4 53.3 L 8.2 53.3 L 8.2 57.1 C 8.2 57.1 8.44 57.12 8.4 57.1 C 8.9 55.8 9.6 54.8 10.7 54.1 C 11.8 53.4 13 53 14.5 53 C 16 53 17.3 53.4 18.3 54.1 C 19.4 54.8 20.1 55.9 20.4 57.1 C 20.4 57.1 20.7 57.1 20.7 57.1 C 21.1 55.9 21.9 54.9 23.1 54.1 C 24.3 53.4 25.6 53 27.2 53 C 29.3 53 30.9 53.6 32.2 54.9 C 33.5 56.2 34.1 58.1 34.1 60.4 C 34.12 60.42 34.1 75.1 34.1 75.1 L 28.1 75.1 C 28.1 75.1 28.08 61.61 28.1 61.6 C 28.1 60.4 27.8 59.5 27.1 58.9 C 26.5 58.3 25.7 58 24.7 58 C 23.6 58 22.7 58.3 22.1 59 C 21.5 59.7 21.2 60.6 21.2 61.8 C 21.21 61.77 21.2 75.1 21.2 75.1 L 15.3 75.1 C 15.3 75.1 15.34 61.48 15.3 61.5 C 15.3 60.4 15 59.6 14.4 58.9 C 13.8 58.3 13 58 12 58 C 11.3 58 10.7 58.1 10.2 58.5 C 9.7 58.8 9.2 59.3 8.9 59.9 C 8.6 60.5 8.5 61.2 8.5 62 C 8.47 61.99 8.5 75.1 8.5 75.1 L 2.4 75.1 Z M 52.7 65.8 C 52.67 65.8 52.7 53.3 52.7 53.3 L 58.7 53.3 L 58.7 75.1 L 52.9 75.1 L 52.9 71.1 C 52.9 71.1 52.68 71.13 52.7 71.1 C 52.2 72.4 51.4 73.4 50.2 74.2 C 49.1 75 47.7 75.4 46.1 75.4 C 44.6 75.4 43.3 75 42.2 74.4 C 41.1 73.7 40.2 72.8 39.6 71.6 C 39 70.3 38.7 68.9 38.7 67.2 C 38.68 67.16 38.7 53.3 38.7 53.3 L 44.7 53.3 C 44.7 53.3 44.73 66.09 44.7 66.1 C 44.7 67.4 45.1 68.4 45.8 69.1 C 46.4 69.9 47.4 70.3 48.5 70.3 C 49.2 70.3 49.9 70.1 50.6 69.8 C 51.2 69.4 51.7 68.9 52.1 68.3 C 52.5 67.6 52.7 66.8 52.7 65.8 Z M 73.2 75.5 C 71 75.5 69 75 67.4 74.1 C 65.8 73.1 64.6 71.8 63.7 70.1 C 62.9 68.4 62.5 66.5 62.5 64.3 C 62.5 62 62.9 60.1 63.8 58.4 C 64.6 56.7 65.9 55.4 67.5 54.4 C 69.1 53.5 71 53 73.2 53 C 75.1 53 76.7 53.3 78.2 54 C 79.6 54.7 80.7 55.7 81.6 56.9 C 82.4 58.2 82.9 59.7 82.9 61.3 C 82.9 61.3 77.2 61.3 77.2 61.3 C 77.1 60.3 76.6 59.4 76 58.7 C 75.3 58 74.4 57.7 73.3 57.7 C 72.3 57.7 71.5 58 70.8 58.5 C 70.1 59 69.6 59.7 69.2 60.7 C 68.8 61.6 68.6 62.8 68.6 64.2 C 68.6 65.6 68.8 66.8 69.2 67.7 C 69.6 68.7 70.1 69.5 70.8 70 C 71.5 70.5 72.3 70.7 73.3 70.7 C 74 70.7 74.6 70.6 75.1 70.3 C 75.7 70 76.1 69.6 76.5 69.1 C 76.9 68.5 77.1 67.9 77.2 67.1 C 77.2 67.1 82.9 67.1 82.9 67.1 C 82.8 68.8 82.4 70.2 81.6 71.5 C 80.8 72.8 79.7 73.7 78.2 74.5 C 76.8 75.2 75.1 75.5 73.2 75.5 Z M 92.7 62.5 C 92.71 62.48 92.7 75.1 92.7 75.1 L 86.7 75.1 L 86.7 46 L 92.5 46 L 92.5 57.1 C 92.5 57.1 92.79 57.12 92.8 57.1 C 93.3 55.8 94.1 54.8 95.2 54.1 C 96.3 53.4 97.7 53 99.3 53 C 100.8 53 102.1 53.3 103.3 54 C 104.4 54.6 105.3 55.6 105.9 56.8 C 106.6 58 106.9 59.5 106.9 61.2 C 106.85 61.2 106.9 75.1 106.9 75.1 L 100.8 75.1 C 100.8 75.1 100.8 62.28 100.8 62.3 C 100.8 60.9 100.5 59.9 99.8 59.1 C 99.1 58.4 98.1 58 96.9 58 C 96.1 58 95.4 58.2 94.7 58.5 C 94.1 58.9 93.6 59.4 93.3 60.1 C 92.9 60.7 92.7 61.5 92.7 62.5 Z M 126 75.1 L 119.4 75.1 L 129.5 46 L 137.4 46 L 147.4 75.1 L 140.8 75.1 L 133.6 52.6 L 133.3 52.6 L 126 75.1 Z M 125.6 63.7 L 141.2 63.7 L 141.2 68.5 L 125.6 68.5 L 125.6 63.7 Z M 157 46 L 157 75.1 L 150.8 75.1 L 150.8 46 L 157 46 Z M 182.9 53.3 L 182.9 57.8 L 169.5 57.8 L 169.5 53.3 L 182.9 53.3 Z M 172.5 75.1 C 172.5 75.1 172.55 51.7 172.5 51.7 C 172.5 50.1 172.9 48.8 173.5 47.8 C 174.1 46.7 174.9 45.9 176 45.4 C 177.1 44.9 178.3 44.6 179.7 44.6 C 180.6 44.6 181.5 44.7 182.3 44.8 C 183 45 183.6 45.1 184 45.2 C 184 45.2 182.9 49.8 182.9 49.8 C 182.7 49.7 182.4 49.6 182 49.6 C 181.7 49.5 181.3 49.5 181 49.5 C 180.1 49.5 179.5 49.7 179.1 50.1 C 178.8 50.5 178.6 51.1 178.6 51.8 C 178.58 51.81 178.6 75.1 178.6 75.1 L 172.5 75.1 Z M 192.1 75.5 C 190.7 75.5 189.5 75.3 188.4 74.8 C 187.3 74.3 186.4 73.6 185.8 72.6 C 185.2 71.6 184.9 70.4 184.9 69 C 184.9 67.8 185.1 66.8 185.5 65.9 C 186 65.1 186.6 64.5 187.4 64 C 188.1 63.5 189 63.1 190 62.8 C 191 62.6 192 62.4 193.1 62.3 C 194.3 62.1 195.4 62 196.1 61.9 C 196.9 61.8 197.5 61.6 197.8 61.4 C 198.2 61.1 198.4 60.8 198.4 60.3 C 198.4 60.3 198.4 60.2 198.4 60.2 C 198.4 59.3 198.1 58.6 197.5 58.1 C 196.9 57.7 196.1 57.4 195.1 57.4 C 194 57.4 193.2 57.6 192.5 58.1 C 191.9 58.6 191.4 59.2 191.2 59.9 C 191.2 59.9 185.6 59.5 185.6 59.5 C 185.9 58.1 186.5 57 187.3 56 C 188.2 55.1 189.2 54.3 190.6 53.8 C 191.9 53.3 193.4 53 195.1 53 C 196.4 53 197.5 53.1 198.6 53.4 C 199.7 53.7 200.7 54.1 201.6 54.7 C 202.5 55.3 203.2 56.1 203.7 57 C 204.2 58 204.4 59.1 204.4 60.4 C 204.41 60.38 204.4 75.1 204.4 75.1 L 198.7 75.1 L 198.7 72.1 C 198.7 72.1 198.5 72.07 198.5 72.1 C 198.1 72.7 197.7 73.3 197.1 73.9 C 196.5 74.4 195.8 74.8 195 75.1 C 194.2 75.4 193.2 75.5 192.1 75.5 Z M 193.9 71.3 C 194.7 71.3 195.5 71.1 196.2 70.8 C 196.9 70.4 197.4 70 197.8 69.4 C 198.2 68.7 198.4 68.1 198.4 67.3 C 198.4 67.3 198.4 65 198.4 65 C 198.2 65.1 198 65.2 197.6 65.3 C 197.3 65.4 196.9 65.5 196.5 65.6 C 196.1 65.7 195.7 65.7 195.3 65.8 C 194.9 65.9 194.5 65.9 194.2 66 C 193.5 66.1 192.9 66.2 192.3 66.5 C 191.8 66.7 191.4 67 191.1 67.4 C 190.8 67.8 190.7 68.2 190.7 68.8 C 190.7 69.6 191 70.2 191.6 70.7 C 192.2 71.1 192.9 71.3 193.9 71.3 Z M 209 75.1 L 209 53.3 L 215.1 53.3 L 215.1 75.1 L 209 75.1 Z M 212.1 50.5 C 211.2 50.5 210.4 50.2 209.8 49.6 C 209.1 49 208.8 48.2 208.8 47.4 C 208.8 46.6 209.1 45.8 209.8 45.2 C 210.4 44.6 211.2 44.3 212.1 44.3 C 213 44.3 213.7 44.6 214.4 45.2 C 215 45.8 215.3 46.5 215.3 47.4 C 215.3 48.2 215 49 214.4 49.6 C 213.7 50.2 213 50.5 212.1 50.5 Z M 225.9 46 L 225.9 75.1 L 219.9 75.1 L 219.9 46 L 225.9 46 Z M 251.6 53.3 L 251.6 57.8 L 238.5 57.8 L 238.5 53.3 L 251.6 53.3 Z M 241.5 48 L 247.5 48 C 247.5 48 247.53 68.39 247.5 68.4 C 247.5 68.9 247.6 69.4 247.8 69.7 C 248 70 248.2 70.2 248.5 70.3 C 248.8 70.5 249.2 70.5 249.6 70.5 C 249.9 70.5 250.1 70.5 250.4 70.4 C 250.7 70.4 250.9 70.3 251.1 70.3 C 251.1 70.3 252 74.8 252 74.8 C 251.7 74.9 251.3 75 250.8 75.2 C 250.2 75.3 249.5 75.4 248.7 75.4 C 247.3 75.4 246 75.3 244.9 74.8 C 243.8 74.4 243 73.7 242.4 72.7 C 241.8 71.8 241.5 70.6 241.5 69.2 C 241.48 69.18 241.5 48 241.5 48 Z M 264.5 75.5 C 262.3 75.5 260.4 75 258.8 74.1 C 257.2 73.2 255.9 71.8 255.1 70.2 C 254.2 68.5 253.7 66.5 253.7 64.3 C 253.7 62 254.2 60 255.1 58.4 C 255.9 56.7 257.2 55.3 258.8 54.4 C 260.4 53.5 262.3 53 264.5 53 C 266.7 53 268.6 53.5 270.2 54.4 C 271.8 55.3 273 56.7 273.9 58.4 C 274.8 60 275.2 62 275.2 64.3 C 275.2 66.5 274.8 68.5 273.9 70.2 C 273 71.8 271.8 73.2 270.2 74.1 C 268.6 75 266.7 75.5 264.5 75.5 Z M 264.5 70.8 C 265.5 70.8 266.4 70.5 267 70 C 267.7 69.4 268.2 68.6 268.6 67.6 C 268.9 66.6 269.1 65.5 269.1 64.2 C 269.1 63 268.9 61.8 268.6 60.8 C 268.2 59.8 267.7 59 267 58.5 C 266.4 57.9 265.5 57.6 264.5 57.6 C 263.5 57.6 262.7 57.9 262 58.5 C 261.3 59 260.8 59.8 260.4 60.8 C 260.1 61.8 259.9 63 259.9 64.2 C 259.9 65.5 260.1 66.6 260.4 67.6 C 260.8 68.6 261.3 69.4 262 70 C 262.7 70.5 263.5 70.8 264.5 70.8 Z " stroke="none" fill="#10283d"/>  </g>  <g id="Polygon114604">    <path d="M 9.1 29.1 L 0.8 0 L 7.5 0 L 12.3 20.2 L 12.5 20.2 L 17.8 0 L 23.6 0 L 28.9 20.3 L 29.1 20.3 L 34 0 L 40.7 0 L 32.4 29.1 L 26.4 29.1 L 20.8 10.1 L 20.6 10.1 L 15.1 29.1 L 9.1 29.1 Z M 49.7 16.5 C 49.74 16.48 49.7 29.1 49.7 29.1 L 43.7 29.1 L 43.7 0 L 49.6 0 L 49.6 11.1 C 49.6 11.1 49.83 11.12 49.8 11.1 C 50.3 9.8 51.1 8.8 52.2 8.1 C 53.3 7.4 54.7 7 56.3 7 C 57.9 7 59.2 7.3 60.3 8 C 61.4 8.6 62.3 9.6 63 10.8 C 63.6 12 63.9 13.5 63.9 15.2 C 63.89 15.2 63.9 29.1 63.9 29.1 L 57.8 29.1 C 57.8 29.1 57.84 16.28 57.8 16.3 C 57.8 14.9 57.5 13.9 56.8 13.1 C 56.1 12.4 55.2 12 53.9 12 C 53.1 12 52.4 12.2 51.8 12.5 C 51.1 12.9 50.6 13.4 50.3 14.1 C 49.9 14.7 49.7 15.5 49.7 16.5 Z M 71.3 37.3 C 70.5 37.3 69.8 37.2 69.1 37.1 C 68.4 37 67.9 36.8 67.4 36.6 C 67.4 36.6 68.8 32.1 68.8 32.1 C 69.5 32.3 70.2 32.5 70.7 32.5 C 71.3 32.5 71.8 32.4 72.2 32.1 C 72.6 31.8 73 31.3 73.3 30.6 C 73.26 30.64 73.6 29.7 73.6 29.7 L 65.8 7.3 L 72.1 7.3 L 76.7 23.3 L 76.9 23.3 L 81.5 7.3 L 87.9 7.3 C 87.9 7.3 79.38 31.45 79.4 31.4 C 79 32.6 78.4 33.6 77.7 34.5 C 77 35.4 76.1 36.1 75.1 36.6 C 74 37 72.7 37.3 71.3 37.3 Z M 108.3 29.4 C 106.6 29.4 105.1 29 103.8 28.2 C 102.4 27.3 101.4 26 100.6 24.4 C 99.8 22.7 99.4 20.6 99.4 18.2 C 99.4 15.7 99.8 13.6 100.6 12 C 101.4 10.3 102.5 9.1 103.8 8.2 C 105.2 7.4 106.7 7 108.3 7 C 109.5 7 110.5 7.2 111.3 7.6 C 112.1 8 112.8 8.5 113.3 9.1 C 113.8 9.8 114.2 10.4 114.5 10.9 C 114.46 10.94 114.6 10.9 114.6 10.9 L 114.6 0 L 120.7 0 L 120.7 29.1 L 114.7 29.1 L 114.7 25.6 C 114.7 25.6 114.46 25.6 114.5 25.6 C 114.2 26.2 113.8 26.8 113.3 27.4 C 112.7 28 112.1 28.5 111.3 28.9 C 110.4 29.3 109.4 29.4 108.3 29.4 Z M 110.2 24.6 C 111.2 24.6 112 24.4 112.7 23.8 C 113.3 23.3 113.9 22.5 114.2 21.6 C 114.6 20.6 114.8 19.5 114.8 18.2 C 114.8 16.9 114.6 15.8 114.2 14.8 C 113.9 13.8 113.4 13.1 112.7 12.6 C 112 12.1 111.2 11.8 110.2 11.8 C 109.2 11.8 108.4 12.1 107.7 12.6 C 107 13.2 106.5 13.9 106.1 14.9 C 105.8 15.8 105.6 16.9 105.6 18.2 C 105.6 19.5 105.8 20.6 106.1 21.5 C 106.5 22.5 107 23.3 107.7 23.8 C 108.4 24.4 109.2 24.6 110.2 24.6 Z M 135.2 29.5 C 133 29.5 131.1 29 129.5 28.1 C 127.9 27.2 126.7 25.8 125.8 24.2 C 124.9 22.5 124.5 20.5 124.5 18.3 C 124.5 16 124.9 14 125.8 12.4 C 126.7 10.7 127.9 9.3 129.5 8.4 C 131.1 7.5 133 7 135.2 7 C 137.4 7 139.3 7.5 140.9 8.4 C 142.5 9.3 143.8 10.7 144.7 12.4 C 145.5 14 146 16 146 18.3 C 146 20.5 145.5 22.5 144.7 24.2 C 143.8 25.8 142.5 27.2 140.9 28.1 C 139.3 29 137.4 29.5 135.2 29.5 Z M 135.2 24.8 C 136.3 24.8 137.1 24.5 137.8 24 C 138.4 23.4 138.9 22.6 139.3 21.6 C 139.6 20.6 139.8 19.5 139.8 18.2 C 139.8 17 139.6 15.8 139.3 14.8 C 138.9 13.8 138.4 13 137.8 12.5 C 137.1 11.9 136.3 11.6 135.2 11.6 C 134.2 11.6 133.4 11.9 132.7 12.5 C 132 13 131.5 13.8 131.1 14.8 C 130.8 15.8 130.6 17 130.6 18.2 C 130.6 19.5 130.8 20.6 131.1 21.6 C 131.5 22.6 132 23.4 132.7 24 C 133.4 24.5 134.2 24.8 135.2 24.8 Z M 159.5 29.5 C 157.3 29.5 155.3 29.1 153.7 28.1 C 152.1 27.2 150.9 25.9 150 24.3 C 149.1 22.6 148.7 20.6 148.7 18.3 C 148.7 16 149.1 14.1 150 12.4 C 150.9 10.7 152.1 9.4 153.7 8.4 C 155.3 7.5 157.1 7 159.3 7 C 160.7 7 162 7.2 163.3 7.7 C 164.5 8.1 165.6 8.8 166.6 9.7 C 167.5 10.7 168.2 11.8 168.7 13.2 C 169.3 14.6 169.5 16.2 169.5 18.1 C 169.52 18.07 169.5 19.7 169.5 19.7 L 151.1 19.7 L 151.1 16 C 151.1 16 163.82 15.98 163.8 16 C 163.8 15.1 163.6 14.3 163.3 13.7 C 162.9 13 162.4 12.5 161.7 12.1 C 161 11.7 160.2 11.5 159.4 11.5 C 158.4 11.5 157.6 11.7 156.9 12.1 C 156.2 12.6 155.7 13.1 155.3 13.8 C 154.9 14.5 154.7 15.3 154.7 16.2 C 154.7 16.2 154.7 19.7 154.7 19.7 C 154.7 20.8 154.9 21.8 155.3 22.5 C 155.7 23.3 156.2 23.9 157 24.4 C 157.7 24.8 158.6 25 159.6 25 C 160.3 25 160.9 24.9 161.5 24.7 C 162 24.5 162.5 24.2 162.9 23.9 C 163.3 23.5 163.6 23 163.8 22.5 C 163.8 22.5 169.4 22.8 169.4 22.8 C 169.1 24.2 168.5 25.4 167.7 26.4 C 166.8 27.4 165.6 28.1 164.3 28.7 C 162.9 29.2 161.3 29.5 159.5 29.5 Z M 191.3 13.5 C 191.3 13.5 185.7 13.8 185.7 13.8 C 185.6 13.4 185.4 12.9 185.1 12.5 C 184.8 12.2 184.4 11.9 183.9 11.6 C 183.4 11.4 182.8 11.3 182.1 11.3 C 181.1 11.3 180.3 11.5 179.7 11.9 C 179 12.3 178.7 12.8 178.7 13.4 C 178.7 14 178.9 14.4 179.4 14.8 C 179.8 15.1 180.5 15.4 181.5 15.6 C 181.5 15.6 185.4 16.4 185.4 16.4 C 187.6 16.9 189.1 17.6 190.2 18.5 C 191.2 19.5 191.8 20.8 191.8 22.3 C 191.8 23.8 191.3 25 190.5 26.1 C 189.7 27.2 188.5 28 187.1 28.6 C 185.6 29.2 183.9 29.5 182 29.5 C 179.1 29.5 176.8 28.9 175.1 27.7 C 173.4 26.5 172.4 24.9 172.1 22.8 C 172.1 22.8 178.1 22.5 178.1 22.5 C 178.3 23.3 178.7 24 179.4 24.5 C 180.1 24.9 181 25.2 182 25.2 C 183.1 25.2 184 25 184.6 24.5 C 185.3 24.1 185.6 23.6 185.6 22.9 C 185.6 22.4 185.4 21.9 184.9 21.6 C 184.4 21.2 183.7 21 182.8 20.8 C 182.8 20.8 179 20 179 20 C 176.9 19.6 175.3 18.8 174.3 17.8 C 173.2 16.7 172.7 15.4 172.7 13.8 C 172.7 12.4 173.1 11.2 173.9 10.2 C 174.6 9.1 175.7 8.4 177.1 7.8 C 178.5 7.3 180.1 7 182 7 C 184.7 7 186.9 7.6 188.5 8.7 C 190.1 9.9 191 11.5 191.3 13.5 Z M 223 13.5 C 223 13.5 217.5 13.8 217.5 13.8 C 217.4 13.4 217.2 12.9 216.9 12.5 C 216.5 12.2 216.1 11.9 215.6 11.6 C 215.1 11.4 214.5 11.3 213.8 11.3 C 212.9 11.3 212.1 11.5 211.4 11.9 C 210.8 12.3 210.5 12.8 210.5 13.4 C 210.5 14 210.7 14.4 211.1 14.8 C 211.5 15.1 212.2 15.4 213.2 15.6 C 213.2 15.6 217.2 16.4 217.2 16.4 C 219.3 16.9 220.9 17.6 221.9 18.5 C 223 19.5 223.5 20.8 223.5 22.3 C 223.5 23.8 223.1 25 222.2 26.1 C 221.4 27.2 220.3 28 218.8 28.6 C 217.3 29.2 215.7 29.5 213.8 29.5 C 210.9 29.5 208.6 28.9 206.9 27.7 C 205.2 26.5 204.2 24.9 203.9 22.8 C 203.9 22.8 209.8 22.5 209.8 22.5 C 210 23.3 210.4 24 211.1 24.5 C 211.8 24.9 212.7 25.2 213.8 25.2 C 214.9 25.2 215.7 25 216.4 24.5 C 217 24.1 217.3 23.6 217.3 22.9 C 217.3 22.4 217.1 21.9 216.7 21.6 C 216.2 21.2 215.5 21 214.5 20.8 C 214.5 20.8 210.8 20 210.8 20 C 208.6 19.6 207.1 18.8 206 17.8 C 205 16.7 204.5 15.4 204.5 13.8 C 204.5 12.4 204.8 11.2 205.6 10.2 C 206.4 9.1 207.4 8.4 208.8 7.8 C 210.2 7.3 211.8 7 213.7 7 C 216.5 7 218.6 7.6 220.2 8.7 C 221.8 9.9 222.7 11.5 223 13.5 Z M 236.8 29.5 C 234.6 29.5 232.7 29 231.1 28.1 C 229.5 27.2 228.2 25.8 227.4 24.2 C 226.5 22.5 226 20.5 226 18.3 C 226 16 226.5 14 227.4 12.4 C 228.2 10.7 229.5 9.3 231.1 8.4 C 232.7 7.5 234.6 7 236.8 7 C 239 7 240.9 7.5 242.5 8.4 C 244.1 9.3 245.3 10.7 246.2 12.4 C 247.1 14 247.5 16 247.5 18.3 C 247.5 20.5 247.1 22.5 246.2 24.2 C 245.3 25.8 244.1 27.2 242.5 28.1 C 240.9 29 239 29.5 236.8 29.5 Z M 236.8 24.8 C 237.8 24.8 238.7 24.5 239.3 24 C 240 23.4 240.5 22.6 240.9 21.6 C 241.2 20.6 241.4 19.5 241.4 18.2 C 241.4 17 241.2 15.8 240.9 14.8 C 240.5 13.8 240 13 239.3 12.5 C 238.7 11.9 237.8 11.6 236.8 11.6 C 235.8 11.6 235 11.9 234.3 12.5 C 233.6 13 233.1 13.8 232.7 14.8 C 232.4 15.8 232.2 17 232.2 18.2 C 232.2 19.5 232.4 20.6 232.7 21.6 C 233.1 22.6 233.6 23.4 234.3 24 C 235 24.5 235.8 24.8 236.8 24.8 Z " stroke="none" fill="#10283d"/>  </g></svg>