<?xml version="1.0" standalone="no"?><!DOCTYPE svg PUBLIC "-//W3C//DTD SVG 1.1//EN" "http://www.w3.org/Graphics/SVG/1.1/DTD/svg11.dtd"><svg xmlns="http://www.w3.org/2000/svg" version="1.1" width="121px" height="25.4px" viewBox="0 -3 121 25.4" style="top:-3px">  <desc>8 / 19</desc>  <defs/>  <g id="Polygon117843">    <path d="M 46.5 13.7 C 45.9 13.7 45.2 13.6 44.7 13.3 C 44.2 13.1 43.8 12.8 43.5 12.3 C 43.2 11.9 43.1 11.4 43.1 10.9 C 43.1 10.4 43.2 10 43.3 9.7 C 43.5 9.3 43.7 9 44 8.7 C 44.3 8.5 44.7 8.3 45 8.3 C 45 8.3 45 8.2 45 8.2 C 44.6 8.1 44.2 7.8 43.9 7.4 C 43.6 7 43.4 6.5 43.5 5.9 C 43.4 5.4 43.6 5 43.8 4.6 C 44.1 4.2 44.5 3.8 44.9 3.6 C 45.4 3.4 45.9 3.2 46.5 3.2 C 47.1 3.2 47.7 3.4 48.1 3.6 C 48.6 3.8 48.9 4.2 49.2 4.6 C 49.5 5 49.6 5.4 49.6 5.9 C 49.6 6.5 49.5 7 49.2 7.4 C 48.9 7.8 48.5 8.1 48 8.2 C 48 8.2 48 8.3 48 8.3 C 48.4 8.3 48.7 8.5 49 8.7 C 49.3 9 49.6 9.3 49.7 9.7 C 49.9 10 50 10.4 50 10.9 C 50 11.4 49.8 11.9 49.5 12.3 C 49.3 12.8 48.8 13.1 48.3 13.3 C 47.8 13.6 47.2 13.7 46.5 13.7 Z M 46.5 12.6 C 47 12.6 47.4 12.5 47.7 12.4 C 48.1 12.2 48.3 12 48.5 11.8 C 48.7 11.5 48.8 11.2 48.8 10.8 C 48.8 10.4 48.7 10.1 48.5 9.8 C 48.3 9.5 48 9.3 47.7 9.1 C 47.3 8.9 47 8.8 46.5 8.8 C 46.1 8.8 45.7 8.9 45.4 9.1 C 45 9.3 44.8 9.5 44.6 9.8 C 44.4 10.1 44.3 10.4 44.3 10.8 C 44.3 11.2 44.4 11.5 44.6 11.8 C 44.7 12 45 12.2 45.3 12.4 C 45.7 12.5 46.1 12.6 46.5 12.6 Z M 46.5 7.8 C 46.9 7.8 47.2 7.7 47.5 7.6 C 47.8 7.4 48 7.2 48.2 6.9 C 48.3 6.7 48.4 6.4 48.4 6 C 48.4 5.7 48.3 5.4 48.2 5.1 C 48 4.9 47.8 4.7 47.5 4.5 C 47.2 4.4 46.9 4.3 46.5 4.3 C 46.2 4.3 45.8 4.4 45.5 4.5 C 45.2 4.7 45 4.9 44.9 5.1 C 44.7 5.4 44.6 5.7 44.6 6 C 44.6 6.4 44.7 6.7 44.9 6.9 C 45 7.2 45.3 7.4 45.5 7.6 C 45.8 7.7 46.2 7.8 46.5 7.8 Z M 59.5 2.9 L 56.2 15.1 L 55.1 15.1 L 58.4 2.9 L 59.5 2.9 Z M 68.3 3.4 L 68.3 13.6 L 67.1 13.6 L 67.1 4.7 L 67.1 4.7 L 64.6 6.3 L 64.6 5.1 L 67.1 3.4 L 68.3 3.4 Z M 74.2 3.2 C 74.6 3.2 75.1 3.3 75.5 3.5 C 75.9 3.6 76.3 3.9 76.6 4.3 C 77 4.6 77.2 5.1 77.5 5.7 C 77.7 6.3 77.8 7.1 77.8 8.1 C 77.8 9 77.7 9.8 77.5 10.5 C 77.3 11.2 77.1 11.8 76.8 12.2 C 76.5 12.7 76.1 13.1 75.6 13.3 C 75.2 13.6 74.6 13.7 74.1 13.7 C 73.5 13.7 73 13.6 72.5 13.4 C 72.1 13.1 71.7 12.8 71.4 12.4 C 71.2 12 71 11.5 70.9 11 C 70.9 11 72.1 11 72.1 11 C 72.2 11.5 72.4 11.8 72.8 12.2 C 73.1 12.5 73.5 12.6 74.1 12.6 C 74.9 12.6 75.5 12.3 75.9 11.6 C 76.4 10.9 76.6 9.9 76.6 8.7 C 76.6 8.7 76.5 8.7 76.5 8.7 C 76.3 8.9 76.1 9.2 75.9 9.4 C 75.6 9.6 75.3 9.7 75 9.9 C 74.7 10 74.4 10 74 10 C 73.4 10 72.9 9.9 72.4 9.6 C 71.9 9.3 71.5 8.9 71.3 8.4 C 71 7.9 70.8 7.3 70.8 6.6 C 70.8 6 71 5.4 71.2 4.9 C 71.5 4.4 71.9 4 72.4 3.7 C 72.9 3.4 73.5 3.2 74.2 3.2 Z M 74.2 4.3 C 73.8 4.3 73.4 4.4 73.1 4.6 C 72.8 4.9 72.5 5.1 72.3 5.5 C 72.1 5.8 72 6.2 72 6.6 C 72 7.1 72.1 7.5 72.3 7.8 C 72.5 8.1 72.7 8.4 73.1 8.6 C 73.4 8.8 73.8 8.9 74.2 8.9 C 74.5 8.9 74.8 8.9 75.1 8.7 C 75.3 8.6 75.6 8.4 75.8 8.2 C 76 8 76.1 7.8 76.3 7.5 C 76.4 7.2 76.4 6.9 76.4 6.6 C 76.4 6.2 76.3 5.9 76.1 5.5 C 76 5.2 75.7 4.9 75.4 4.7 C 75 4.4 74.6 4.3 74.2 4.3 Z " stroke="none" fill="#ffffff"/>  </g></svg>