<?xml version="1.0" standalone="no"?><!DOCTYPE svg PUBLIC "-//W3C//DTD SVG 1.1//EN" "http://www.w3.org/Graphics/SVG/1.1/DTD/svg11.dtd"><svg xmlns="http://www.w3.org/2000/svg" version="1.1" width="73px" height="54.7px" viewBox="0 -13 73 54.7" style="top:-13px">  <desc>Next</desc>  <defs/>  <g id="Polygon124147">    <path d="M 21.5 0 L 21.5 23.3 L 17.2 23.3 L 7.1 8.6 L 6.9 8.6 L 6.9 23.3 L 2 23.3 L 2 0 L 6.3 0 L 16.4 14.6 L 16.6 14.6 L 16.6 0 L 21.5 0 Z M 33.6 23.6 C 31.8 23.6 30.2 23.2 29 22.5 C 27.7 21.8 26.7 20.7 26 19.4 C 25.3 18.1 24.9 16.5 24.9 14.6 C 24.9 12.8 25.3 11.3 26 9.9 C 26.7 8.5 27.7 7.5 28.9 6.7 C 30.2 6 31.7 5.6 33.4 5.6 C 34.5 5.6 35.6 5.8 36.6 6.1 C 37.6 6.5 38.5 7.1 39.2 7.8 C 40 8.5 40.6 9.5 41 10.6 C 41.4 11.7 41.6 13 41.6 14.5 C 41.6 14.45 41.6 15.8 41.6 15.8 L 26.9 15.8 L 26.9 12.8 C 26.9 12.8 37.04 12.78 37 12.8 C 37 12.1 36.9 11.5 36.6 10.9 C 36.3 10.4 35.9 10 35.3 9.7 C 34.8 9.4 34.2 9.2 33.5 9.2 C 32.7 9.2 32.1 9.4 31.5 9.7 C 31 10 30.5 10.5 30.2 11.1 C 29.9 11.6 29.7 12.3 29.7 12.9 C 29.7 12.9 29.7 15.8 29.7 15.8 C 29.7 16.7 29.9 17.4 30.2 18 C 30.5 18.7 31 19.1 31.6 19.5 C 32.2 19.8 32.9 20 33.7 20 C 34.2 20 34.7 19.9 35.1 19.8 C 35.6 19.6 36 19.4 36.3 19.1 C 36.6 18.8 36.9 18.4 37 18 C 37 18 41.5 18.3 41.5 18.3 C 41.3 19.3 40.8 20.3 40.1 21.1 C 39.4 21.9 38.5 22.5 37.4 22.9 C 36.3 23.4 35 23.6 33.6 23.6 Z M 48 5.8 L 51.2 11.9 L 54.5 5.8 L 59.4 5.8 L 54.4 14.5 L 59.6 23.3 L 54.6 23.3 L 51.2 17.2 L 47.8 23.3 L 42.8 23.3 L 48 14.5 L 43 5.8 L 48 5.8 Z M 71.8 5.8 L 71.8 9.5 L 61.3 9.5 L 61.3 5.8 L 71.8 5.8 Z M 63.7 1.6 L 68.5 1.6 C 68.5 1.6 68.52 17.91 68.5 17.9 C 68.5 18.4 68.6 18.7 68.7 18.9 C 68.9 19.2 69.1 19.4 69.3 19.5 C 69.5 19.6 69.8 19.6 70.2 19.6 C 70.4 19.6 70.6 19.6 70.8 19.6 C 71.1 19.5 71.2 19.5 71.4 19.5 C 71.4 19.5 72.1 23.1 72.1 23.1 C 71.9 23.1 71.5 23.2 71.1 23.3 C 70.7 23.4 70.1 23.5 69.5 23.5 C 68.3 23.6 67.3 23.4 66.4 23 C 65.6 22.7 64.9 22.1 64.4 21.4 C 63.9 20.6 63.7 19.7 63.7 18.5 C 63.68 18.55 63.7 1.6 63.7 1.6 Z " stroke="none" fill="#10283d"/>  </g></svg>