<?xml version="1.0" standalone="no"?><!DOCTYPE svg PUBLIC "-//W3C//DTD SVG 1.1//EN" "http://www.w3.org/Graphics/SVG/1.1/DTD/svg11.dtd"><svg xmlns="http://www.w3.org/2000/svg" version="1.1" width="121px" height="25.4px" viewBox="0 -3 121 25.4" style="top:-3px">  <desc>7 / 19</desc>  <defs/>  <g id="Polygon116982">    <path d="M 43.9 13.6 L 48.5 4.6 L 48.5 4.5 L 43.2 4.5 L 43.2 3.4 L 49.7 3.4 L 49.7 4.5 L 45.2 13.6 L 43.9 13.6 Z M 59.1 2.9 L 55.9 15.1 L 54.8 15.1 L 58.1 2.9 L 59.1 2.9 Z M 68 3.4 L 68 13.6 L 66.8 13.6 L 66.8 4.7 L 66.7 4.7 L 64.3 6.3 L 64.3 5.1 L 66.8 3.4 L 68 3.4 Z M 73.9 3.2 C 74.3 3.2 74.7 3.3 75.2 3.5 C 75.6 3.6 76 3.9 76.3 4.3 C 76.6 4.6 76.9 5.1 77.1 5.7 C 77.3 6.3 77.4 7.1 77.4 8.1 C 77.4 9 77.4 9.8 77.2 10.5 C 77 11.2 76.8 11.8 76.5 12.2 C 76.1 12.7 75.7 13.1 75.3 13.3 C 74.8 13.6 74.3 13.7 73.7 13.7 C 73.2 13.7 72.7 13.6 72.2 13.4 C 71.8 13.1 71.4 12.8 71.1 12.4 C 70.8 12 70.7 11.5 70.6 11 C 70.6 11 71.8 11 71.8 11 C 71.9 11.5 72.1 11.8 72.5 12.2 C 72.8 12.5 73.2 12.6 73.7 12.6 C 74.5 12.6 75.2 12.3 75.6 11.6 C 76.1 10.9 76.3 9.9 76.3 8.7 C 76.3 8.7 76.2 8.7 76.2 8.7 C 76 8.9 75.8 9.2 75.6 9.4 C 75.3 9.6 75 9.7 74.7 9.9 C 74.4 10 74.1 10 73.7 10 C 73.1 10 72.6 9.9 72.1 9.6 C 71.6 9.3 71.2 8.9 70.9 8.4 C 70.7 7.9 70.5 7.3 70.5 6.6 C 70.5 6 70.6 5.4 70.9 4.9 C 71.2 4.4 71.6 4 72.1 3.7 C 72.6 3.4 73.2 3.2 73.9 3.2 Z M 73.9 4.3 C 73.5 4.3 73.1 4.4 72.8 4.6 C 72.4 4.9 72.2 5.1 72 5.5 C 71.8 5.8 71.7 6.2 71.7 6.6 C 71.7 7.1 71.8 7.5 72 7.8 C 72.2 8.1 72.4 8.4 72.8 8.6 C 73.1 8.8 73.4 8.9 73.9 8.9 C 74.2 8.9 74.5 8.9 74.7 8.7 C 75 8.6 75.3 8.4 75.5 8.2 C 75.7 8 75.8 7.8 75.9 7.5 C 76.1 7.2 76.1 6.9 76.1 6.6 C 76.1 6.2 76 5.9 75.8 5.5 C 75.6 5.2 75.4 4.9 75 4.7 C 74.7 4.4 74.3 4.3 73.9 4.3 Z " stroke="none" fill="#ffffff"/>  </g></svg>