<?xml version="1.0" standalone="no"?><!DOCTYPE svg PUBLIC "-//W3C//DTD SVG 1.1//EN" "http://www.w3.org/Graphics/SVG/1.1/DTD/svg11.dtd"><svg xmlns="http://www.w3.org/2000/svg" version="1.1" width="261px" height="184px" viewBox="0 -5 261 184" style="top:-5px">  <desc>“ AI is simple to deploy and use.”</desc>  <defs/>  <g id="Polygon120309">    <path d="M 17.4 64.2 C 16.1 64.2 14.9 63.9 13.9 63.2 C 12.9 62.6 12.1 61.6 11.6 60.4 C 11 59.2 10.7 57.8 10.7 56.1 C 10.7 54.4 11 53 11.6 51.8 C 12.1 50.6 12.9 49.6 13.9 49 C 14.9 48.3 16.1 48 17.4 48 C 18.4 48 19.3 48.2 19.9 48.5 C 20.4 48.8 20.9 49.2 21.2 49.6 C 21.5 50.1 21.8 50.4 22 50.7 C 21.96 50.69 22.2 50.7 22.2 50.7 L 22.2 43 L 24.6 43 L 24.6 63.9 L 22.3 63.9 L 22.3 61.5 C 22.3 61.5 21.96 61.49 22 61.5 C 21.8 61.8 21.5 62.1 21.2 62.6 C 20.9 63 20.4 63.4 19.8 63.7 C 19.2 64.1 18.4 64.2 17.4 64.2 Z M 17.7 62.1 C 18.7 62.1 19.5 61.8 20.2 61.3 C 20.8 60.8 21.3 60.1 21.7 59.2 C 22 58.3 22.2 57.2 22.2 56 C 22.2 54.9 22 53.8 21.7 53 C 21.4 52.1 20.9 51.4 20.2 50.9 C 19.5 50.4 18.7 50.2 17.7 50.2 C 16.7 50.2 15.8 50.4 15.2 50.9 C 14.5 51.5 14 52.2 13.6 53.1 C 13.3 53.9 13.1 54.9 13.1 56 C 13.1 57.2 13.3 58.2 13.6 59.1 C 14 60 14.5 60.7 15.2 61.3 C 15.9 61.8 16.7 62.1 17.7 62.1 Z M 35.6 64.2 C 34.1 64.2 32.8 63.9 31.7 63.2 C 30.6 62.5 29.7 61.6 29.2 60.4 C 28.6 59.2 28.3 57.8 28.3 56.2 C 28.3 54.6 28.6 53.1 29.2 51.9 C 29.7 50.7 30.6 49.7 31.6 49 C 32.7 48.3 33.9 48 35.3 48 C 36.2 48 37 48.1 37.8 48.4 C 38.6 48.7 39.3 49.1 39.9 49.7 C 40.6 50.3 41.1 51.1 41.5 52.1 C 41.9 53.1 42.1 54.4 42.1 55.8 C 42.1 55.84 42.1 56.9 42.1 56.9 L 30 56.9 L 30 54.8 C 30 54.8 39.64 54.78 39.6 54.8 C 39.6 53.9 39.5 53.1 39.1 52.4 C 38.8 51.7 38.3 51.2 37.6 50.8 C 37 50.4 36.2 50.2 35.3 50.2 C 34.4 50.2 33.6 50.4 32.9 50.9 C 32.2 51.3 31.6 52 31.2 52.7 C 30.9 53.5 30.7 54.3 30.7 55.1 C 30.7 55.1 30.7 56.5 30.7 56.5 C 30.7 57.7 30.9 58.7 31.3 59.5 C 31.7 60.4 32.3 61 33 61.4 C 33.8 61.8 34.6 62.1 35.6 62.1 C 36.2 62.1 36.8 62 37.3 61.8 C 37.8 61.6 38.3 61.3 38.6 61 C 39 60.6 39.3 60.2 39.5 59.6 C 39.5 59.6 41.9 60.3 41.9 60.3 C 41.6 61.1 41.2 61.7 40.6 62.3 C 40 62.9 39.3 63.4 38.5 63.7 C 37.6 64.1 36.7 64.2 35.6 64.2 Z M 45.6 69.8 L 45.6 48.2 L 48 48.2 L 48 50.7 C 48 50.7 48.26 50.69 48.3 50.7 C 48.4 50.4 48.7 50.1 49 49.6 C 49.3 49.2 49.8 48.8 50.4 48.5 C 51 48.2 51.8 48 52.8 48 C 54.1 48 55.3 48.3 56.3 49 C 57.3 49.6 58.1 50.6 58.7 51.8 C 59.2 53 59.5 54.4 59.5 56.1 C 59.5 57.8 59.2 59.2 58.7 60.4 C 58.1 61.6 57.3 62.6 56.3 63.2 C 55.3 63.9 54.1 64.2 52.8 64.2 C 51.8 64.2 51 64.1 50.4 63.7 C 49.8 63.4 49.3 63 49 62.6 C 48.7 62.1 48.4 61.8 48.3 61.5 C 48.26 61.49 48.1 61.5 48.1 61.5 L 48.1 69.8 L 45.6 69.8 Z M 48 56 C 48 57.2 48.2 58.3 48.5 59.2 C 48.9 60.1 49.4 60.8 50.1 61.3 C 50.7 61.8 51.5 62.1 52.5 62.1 C 53.5 62.1 54.4 61.8 55 61.3 C 55.7 60.7 56.2 60 56.6 59.1 C 56.9 58.2 57.1 57.2 57.1 56 C 57.1 54.9 56.9 53.9 56.6 53.1 C 56.2 52.2 55.7 51.5 55.1 50.9 C 54.4 50.4 53.5 50.2 52.5 50.2 C 51.5 50.2 50.7 50.4 50 50.9 C 49.4 51.4 48.9 52.1 48.5 53 C 48.2 53.8 48 54.9 48 56 Z M 65.5 43 L 65.5 63.9 L 63.1 63.9 L 63.1 43 L 65.5 43 Z M 76.2 64.2 C 74.8 64.2 73.5 63.9 72.4 63.2 C 71.4 62.5 70.5 61.6 70 60.4 C 69.4 59.2 69.1 57.8 69.1 56.1 C 69.1 54.5 69.4 53.1 70 51.8 C 70.5 50.6 71.4 49.7 72.4 49 C 73.5 48.3 74.8 48 76.2 48 C 77.6 48 78.8 48.3 79.9 49 C 81 49.7 81.8 50.6 82.4 51.8 C 83 53.1 83.3 54.5 83.3 56.1 C 83.3 57.8 83 59.2 82.4 60.4 C 81.8 61.6 81 62.5 79.9 63.2 C 78.8 63.9 77.6 64.2 76.2 64.2 Z M 76.2 62.1 C 77.3 62.1 78.1 61.8 78.8 61.2 C 79.5 60.7 80 60 80.4 59.1 C 80.7 58.2 80.9 57.2 80.9 56.1 C 80.9 55.1 80.7 54.1 80.4 53.2 C 80 52.3 79.5 51.6 78.8 51 C 78.1 50.4 77.3 50.2 76.2 50.2 C 75.1 50.2 74.2 50.4 73.5 51 C 72.8 51.6 72.3 52.3 72 53.2 C 71.6 54.1 71.5 55.1 71.5 56.1 C 71.5 57.2 71.6 58.2 72 59.1 C 72.3 60 72.8 60.7 73.5 61.2 C 74.2 61.8 75.1 62.1 76.2 62.1 Z M 87.6 69.8 C 87.2 69.8 86.8 69.8 86.5 69.7 C 86.2 69.6 86 69.6 85.8 69.5 C 85.8 69.5 86.5 67.4 86.5 67.4 C 87 67.5 87.6 67.6 88 67.5 C 88.5 67.5 88.9 67.3 89.2 66.9 C 89.6 66.6 89.9 66 90.2 65.2 C 90.18 65.21 90.6 64 90.6 64 L 84.8 48.2 L 87.4 48.2 L 91.8 60.7 L 91.9 60.7 L 96.3 48.2 L 98.9 48.2 C 98.9 48.2 92.22 66.19 92.2 66.2 C 91.9 67 91.6 67.7 91.1 68.2 C 90.7 68.7 90.2 69.1 89.6 69.4 C 89 69.7 88.3 69.8 87.6 69.8 Z M 114.8 64.3 C 113.8 64.3 112.9 64.1 112.1 63.7 C 111.3 63.3 110.6 62.8 110.2 62.1 C 109.7 61.3 109.4 60.5 109.4 59.4 C 109.4 58.5 109.6 57.8 110 57.2 C 110.3 56.7 110.8 56.2 111.4 55.9 C 112 55.6 112.6 55.4 113.4 55.2 C 114.1 55 114.8 54.9 115.5 54.8 C 116.5 54.7 117.3 54.6 117.9 54.5 C 118.5 54.5 118.9 54.4 119.2 54.2 C 119.5 54 119.6 53.8 119.6 53.4 C 119.6 53.4 119.6 53.3 119.6 53.3 C 119.6 52.3 119.3 51.5 118.8 51 C 118.2 50.4 117.4 50.1 116.3 50.1 C 115.1 50.1 114.2 50.4 113.6 50.9 C 112.9 51.4 112.5 51.9 112.2 52.5 C 112.2 52.5 109.9 51.7 109.9 51.7 C 110.3 50.7 110.9 50 111.5 49.4 C 112.2 48.9 113 48.5 113.8 48.3 C 114.6 48.1 115.4 48 116.2 48 C 116.7 48 117.3 48 117.9 48.2 C 118.6 48.3 119.2 48.5 119.9 48.9 C 120.5 49.3 121 49.8 121.4 50.6 C 121.8 51.3 122 52.3 122 53.6 C 122 53.55 122 63.9 122 63.9 L 119.6 63.9 L 119.6 61.8 C 119.6 61.8 119.47 61.77 119.5 61.8 C 119.3 62.1 119 62.5 118.6 62.9 C 118.3 63.3 117.8 63.6 117.1 63.9 C 116.5 64.1 115.7 64.3 114.8 64.3 Z M 115.2 62.1 C 116.1 62.1 116.9 61.9 117.6 61.5 C 118.2 61.2 118.7 60.7 119.1 60.1 C 119.4 59.5 119.6 58.9 119.6 58.2 C 119.6 58.2 119.6 56 119.6 56 C 119.5 56.1 119.3 56.2 118.9 56.3 C 118.6 56.4 118.2 56.5 117.7 56.6 C 117.3 56.7 116.9 56.7 116.4 56.8 C 116 56.8 115.7 56.9 115.4 56.9 C 114.8 57 114.2 57.1 113.7 57.3 C 113.1 57.5 112.7 57.7 112.4 58.1 C 112 58.5 111.9 59 111.9 59.6 C 111.9 60.4 112.2 61 112.8 61.5 C 113.4 61.9 114.2 62.1 115.2 62.1 Z M 128.7 54.5 C 128.67 54.45 128.7 63.9 128.7 63.9 L 126.3 63.9 L 126.3 48.2 L 128.6 48.2 L 128.6 50.6 C 128.6 50.6 128.8 50.65 128.8 50.6 C 129.2 49.8 129.7 49.2 130.5 48.7 C 131.2 48.2 132.2 48 133.4 48 C 134.4 48 135.4 48.2 136.2 48.6 C 137 49.1 137.6 49.7 138 50.6 C 138.5 51.5 138.7 52.6 138.7 53.9 C 138.7 53.92 138.7 63.9 138.7 63.9 L 136.3 63.9 C 136.3 63.9 136.28 54.08 136.3 54.1 C 136.3 52.8 136 51.9 135.3 51.2 C 134.7 50.5 133.8 50.2 132.7 50.2 C 131.9 50.2 131.2 50.3 130.6 50.7 C 130 51 129.5 51.5 129.2 52.1 C 128.8 52.8 128.7 53.5 128.7 54.5 Z M 148.8 64.2 C 147.5 64.2 146.4 63.9 145.4 63.2 C 144.4 62.6 143.6 61.6 143 60.4 C 142.5 59.2 142.2 57.8 142.2 56.1 C 142.2 54.4 142.5 53 143 51.8 C 143.6 50.6 144.4 49.6 145.4 49 C 146.4 48.3 147.6 48 148.9 48 C 149.9 48 150.7 48.2 151.3 48.5 C 151.9 48.8 152.4 49.2 152.7 49.6 C 153 50.1 153.2 50.4 153.4 50.7 C 153.43 50.69 153.6 50.7 153.6 50.7 L 153.6 43 L 156 43 L 156 63.9 L 153.7 63.9 L 153.7 61.5 C 153.7 61.5 153.43 61.49 153.4 61.5 C 153.2 61.8 153 62.1 152.7 62.6 C 152.3 63 151.9 63.4 151.3 63.7 C 150.7 64.1 149.9 64.2 148.8 64.2 Z M 149.2 62.1 C 150.1 62.1 151 61.8 151.6 61.3 C 152.3 60.8 152.8 60.1 153.2 59.2 C 153.5 58.3 153.7 57.2 153.7 56 C 153.7 54.9 153.5 53.8 153.2 53 C 152.8 52.1 152.3 51.4 151.6 50.9 C 151 50.4 150.2 50.2 149.2 50.2 C 148.1 50.2 147.3 50.4 146.6 50.9 C 145.9 51.5 145.4 52.2 145.1 53.1 C 144.8 53.9 144.6 54.9 144.6 56 C 144.6 57.2 144.8 58.2 145.1 59.1 C 145.5 60 146 60.7 146.6 61.3 C 147.3 61.8 148.2 62.1 149.2 62.1 Z M 178.8 57.5 C 178.79 57.48 178.8 48.2 178.8 48.2 L 181.2 48.2 L 181.2 63.9 L 178.8 63.9 L 178.8 61.2 C 178.8 61.2 178.63 61.24 178.6 61.2 C 178.3 62 177.7 62.7 176.9 63.3 C 176.1 63.8 175.1 64.1 174 64.1 C 173 64.1 172.1 63.9 171.3 63.5 C 170.6 63 170 62.4 169.5 61.5 C 169.1 60.6 168.9 59.5 168.9 58.2 C 168.89 58.17 168.9 48.2 168.9 48.2 L 171.3 48.2 C 171.3 48.2 171.3 58.01 171.3 58 C 171.3 59.2 171.6 60.1 172.3 60.8 C 172.9 61.4 173.7 61.8 174.7 61.8 C 175.3 61.8 176 61.6 176.6 61.3 C 177.2 61 177.7 60.5 178.2 59.9 C 178.6 59.3 178.8 58.5 178.8 57.5 Z M 196.4 51.7 C 196.4 51.7 194.3 52.3 194.3 52.3 C 194.1 52 193.9 51.6 193.7 51.3 C 193.4 50.9 193 50.6 192.6 50.4 C 192.1 50.2 191.6 50.1 190.9 50.1 C 189.9 50.1 189.1 50.3 188.5 50.7 C 187.8 51.2 187.5 51.7 187.5 52.4 C 187.5 53 187.7 53.5 188.2 53.8 C 188.6 54.2 189.3 54.5 190.2 54.7 C 190.2 54.7 192.5 55.3 192.5 55.3 C 194 55.6 195 56.1 195.7 56.8 C 196.4 57.5 196.7 58.4 196.7 59.5 C 196.7 60.4 196.5 61.2 195.9 61.9 C 195.4 62.6 194.7 63.2 193.8 63.6 C 192.9 64 191.8 64.2 190.6 64.2 C 189 64.2 187.7 63.9 186.6 63.2 C 185.6 62.5 184.9 61.5 184.6 60.1 C 184.6 60.1 186.9 59.6 186.9 59.6 C 187.1 60.4 187.5 61 188.1 61.5 C 188.8 61.9 189.6 62.1 190.5 62.1 C 191.7 62.1 192.6 61.9 193.2 61.4 C 193.9 60.9 194.2 60.3 194.2 59.6 C 194.2 59.1 194 58.6 193.7 58.3 C 193.3 57.9 192.7 57.6 191.9 57.4 C 191.9 57.4 189.3 56.8 189.3 56.8 C 187.8 56.5 186.8 56 186.1 55.2 C 185.4 54.5 185.1 53.6 185.1 52.5 C 185.1 51.6 185.4 50.9 185.9 50.2 C 186.4 49.5 187 49 187.9 48.6 C 188.8 48.2 189.8 48 190.9 48 C 192.4 48 193.6 48.3 194.5 49 C 195.4 49.7 196.1 50.6 196.4 51.7 Z M 206.7 64.2 C 205.2 64.2 203.9 63.9 202.8 63.2 C 201.7 62.5 200.8 61.6 200.2 60.4 C 199.7 59.2 199.4 57.8 199.4 56.2 C 199.4 54.6 199.7 53.1 200.2 51.9 C 200.8 50.7 201.7 49.7 202.7 49 C 203.8 48.3 205 48 206.4 48 C 207.3 48 208.1 48.1 208.9 48.4 C 209.7 48.7 210.4 49.1 211 49.7 C 211.7 50.3 212.2 51.1 212.6 52.1 C 213 53.1 213.2 54.4 213.2 55.8 C 213.19 55.84 213.2 56.9 213.2 56.9 L 201.1 56.9 L 201.1 54.8 C 201.1 54.8 210.73 54.78 210.7 54.8 C 210.7 53.9 210.6 53.1 210.2 52.4 C 209.9 51.7 209.4 51.2 208.7 50.8 C 208.1 50.4 207.3 50.2 206.4 50.2 C 205.5 50.2 204.6 50.4 203.9 50.9 C 203.2 51.3 202.7 52 202.3 52.7 C 202 53.5 201.8 54.3 201.8 55.1 C 201.8 55.1 201.8 56.5 201.8 56.5 C 201.8 57.7 202 58.7 202.4 59.5 C 202.8 60.4 203.4 61 204.1 61.4 C 204.9 61.8 205.7 62.1 206.7 62.1 C 207.3 62.1 207.9 62 208.4 61.8 C 208.9 61.6 209.4 61.3 209.7 61 C 210.1 60.6 210.4 60.2 210.6 59.6 C 210.6 59.6 212.9 60.3 212.9 60.3 C 212.7 61.1 212.3 61.7 211.7 62.3 C 211.1 62.9 210.4 63.4 209.6 63.7 C 208.7 64.1 207.7 64.2 206.7 64.2 Z M 218.2 64.1 C 217.7 64.1 217.2 63.9 216.9 63.5 C 216.5 63.2 216.3 62.7 216.3 62.2 C 216.3 61.7 216.5 61.3 216.9 60.9 C 217.2 60.6 217.7 60.4 218.2 60.4 C 218.7 60.4 219.1 60.6 219.5 60.9 C 219.8 61.3 220 61.7 220 62.2 C 220 62.6 219.9 62.9 219.8 63.1 C 219.6 63.4 219.4 63.6 219.1 63.8 C 218.8 64 218.5 64.1 218.2 64.1 Z M 224.9 43 C 224.9 43 224.9 44.8 224.9 44.8 C 224.9 45.4 224.8 45.9 224.6 46.6 C 224.4 47.2 224.1 47.8 223.7 48.4 C 223.3 49 222.9 49.5 222.3 50 C 222.3 50 221 48.9 221 48.9 C 221.4 48.3 221.8 47.6 222.1 47 C 222.5 46.3 222.6 45.6 222.6 44.8 C 222.61 44.84 222.6 43 222.6 43 L 224.9 43 Z M 230.1 43 C 230.1 43 230.14 44.8 230.1 44.8 C 230.1 45.4 230 45.9 229.8 46.6 C 229.6 47.2 229.3 47.8 229 48.4 C 228.6 49 228.1 49.5 227.6 50 C 227.6 50 226.3 48.9 226.3 48.9 C 226.7 48.3 227.1 47.6 227.4 47 C 227.7 46.3 227.8 45.6 227.8 44.8 C 227.85 44.84 227.8 43 227.8 43 L 230.1 43 Z " stroke="none" fill="#ffffff"/>  </g>  <g id="Polygon120308">    <path d="M 1.4 13.5 C 1.4 13.5 1.39 11.66 1.4 11.7 C 1.4 11.1 1.5 10.5 1.7 9.9 C 1.9 9.2 2.2 8.6 2.6 8 C 3 7.5 3.4 6.9 4 6.5 C 4 6.5 5.3 7.6 5.3 7.6 C 4.8 8.2 4.5 8.8 4.2 9.5 C 3.8 10.2 3.7 10.9 3.7 11.6 C 3.68 11.62 3.7 13.5 3.7 13.5 L 1.4 13.5 Z M 6.6 13.5 C 6.6 13.5 6.63 11.66 6.6 11.7 C 6.6 11.1 6.7 10.5 6.9 9.9 C 7.1 9.2 7.4 8.6 7.8 8 C 8.2 7.5 8.7 6.9 9.2 6.5 C 9.2 6.5 10.5 7.6 10.5 7.6 C 10.1 8.2 9.7 8.8 9.4 9.5 C 9.1 10.2 8.9 10.9 8.9 11.6 C 8.92 11.62 8.9 13.5 8.9 13.5 L 6.6 13.5 Z M 12.6 27.9 L 10 27.9 L 17.7 7 L 20.3 7 L 28 27.9 L 25.3 27.9 L 19.1 10.3 L 18.9 10.3 L 12.6 27.9 Z M 13.6 19.7 L 24.3 19.7 L 24.3 22 L 13.6 22 L 13.6 19.7 Z M 33.7 7 L 33.7 27.9 L 31.1 27.9 L 31.1 7 L 33.7 7 Z M 46.5 27.9 L 46.5 12.2 L 48.9 12.2 L 48.9 27.9 L 46.5 27.9 Z M 47.7 9.6 C 47.3 9.6 46.9 9.4 46.5 9.1 C 46.2 8.8 46 8.4 46 7.9 C 46 7.5 46.2 7.1 46.5 6.8 C 46.9 6.5 47.3 6.3 47.7 6.3 C 48.2 6.3 48.6 6.5 49 6.8 C 49.3 7.1 49.5 7.5 49.5 7.9 C 49.5 8.4 49.3 8.8 49 9.1 C 48.6 9.4 48.2 9.6 47.7 9.6 Z M 64.2 15.7 C 64.2 15.7 62 16.3 62 16.3 C 61.9 16 61.7 15.6 61.4 15.3 C 61.1 14.9 60.8 14.6 60.3 14.4 C 59.9 14.2 59.3 14.1 58.6 14.1 C 57.7 14.1 56.9 14.3 56.2 14.7 C 55.6 15.2 55.3 15.7 55.3 16.4 C 55.3 17 55.5 17.5 55.9 17.8 C 56.4 18.2 57 18.5 58 18.7 C 58 18.7 60.3 19.3 60.3 19.3 C 61.7 19.6 62.7 20.1 63.4 20.8 C 64.1 21.5 64.5 22.4 64.5 23.5 C 64.5 24.4 64.2 25.2 63.7 25.9 C 63.2 26.6 62.5 27.2 61.5 27.6 C 60.6 28 59.5 28.2 58.3 28.2 C 56.7 28.2 55.4 27.9 54.4 27.2 C 53.3 26.5 52.6 25.5 52.4 24.1 C 52.4 24.1 54.6 23.6 54.6 23.6 C 54.9 24.4 55.3 25 55.9 25.5 C 56.5 25.9 57.3 26.1 58.3 26.1 C 59.4 26.1 60.3 25.9 61 25.4 C 61.6 24.9 62 24.3 62 23.6 C 62 23.1 61.8 22.6 61.4 22.3 C 61 21.9 60.4 21.6 59.6 21.4 C 59.6 21.4 57 20.8 57 20.8 C 55.6 20.5 54.5 20 53.9 19.2 C 53.2 18.5 52.8 17.6 52.8 16.5 C 52.8 15.6 53.1 14.9 53.6 14.2 C 54.1 13.5 54.8 13 55.7 12.6 C 56.5 12.2 57.5 12 58.6 12 C 60.2 12 61.4 12.3 62.3 13 C 63.2 13.7 63.8 14.6 64.2 15.7 Z M 87.3 15.7 C 87.3 15.7 85.2 16.3 85.2 16.3 C 85 16 84.8 15.6 84.6 15.3 C 84.3 14.9 83.9 14.6 83.5 14.4 C 83 14.2 82.5 14.1 81.8 14.1 C 80.8 14.1 80 14.3 79.4 14.7 C 78.7 15.2 78.4 15.7 78.4 16.4 C 78.4 17 78.6 17.5 79.1 17.8 C 79.5 18.2 80.2 18.5 81.1 18.7 C 81.1 18.7 83.4 19.3 83.4 19.3 C 84.9 19.6 85.9 20.1 86.6 20.8 C 87.3 21.5 87.6 22.4 87.6 23.5 C 87.6 24.4 87.4 25.2 86.8 25.9 C 86.3 26.6 85.6 27.2 84.7 27.6 C 83.8 28 82.7 28.2 81.5 28.2 C 79.9 28.2 78.6 27.9 77.5 27.2 C 76.5 26.5 75.8 25.5 75.5 24.1 C 75.5 24.1 77.8 23.6 77.8 23.6 C 78 24.4 78.4 25 79 25.5 C 79.7 25.9 80.5 26.1 81.4 26.1 C 82.6 26.1 83.5 25.9 84.1 25.4 C 84.8 24.9 85.1 24.3 85.1 23.6 C 85.1 23.1 84.9 22.6 84.6 22.3 C 84.2 21.9 83.6 21.6 82.8 21.4 C 82.8 21.4 80.2 20.8 80.2 20.8 C 78.7 20.5 77.7 20 77 19.2 C 76.3 18.5 76 17.6 76 16.5 C 76 15.6 76.3 14.9 76.8 14.2 C 77.3 13.5 77.9 13 78.8 12.6 C 79.7 12.2 80.7 12 81.8 12 C 83.3 12 84.5 12.3 85.4 13 C 86.3 13.7 87 14.6 87.3 15.7 Z M 91 27.9 L 91 12.2 L 93.4 12.2 L 93.4 27.9 L 91 27.9 Z M 92.2 9.6 C 91.8 9.6 91.3 9.4 91 9.1 C 90.7 8.8 90.5 8.4 90.5 7.9 C 90.5 7.5 90.7 7.1 91 6.8 C 91.3 6.5 91.8 6.3 92.2 6.3 C 92.7 6.3 93.1 6.5 93.4 6.8 C 93.8 7.1 93.9 7.5 93.9 7.9 C 93.9 8.4 93.8 8.8 93.4 9.1 C 93.1 9.4 92.7 9.6 92.2 9.6 Z M 97.7 27.9 L 97.7 12.2 L 100 12.2 L 100 14.6 C 100 14.6 100.24 14.65 100.2 14.6 C 100.6 13.8 101.1 13.2 101.8 12.7 C 102.6 12.2 103.4 12 104.5 12 C 105.5 12 106.4 12.2 107 12.7 C 107.7 13.2 108.3 13.8 108.7 14.6 C 108.7 14.6 108.8 14.6 108.8 14.6 C 109.2 13.8 109.8 13.2 110.6 12.7 C 111.4 12.2 112.4 12 113.5 12 C 114.9 12 116.1 12.4 117 13.3 C 117.9 14.2 118.3 15.5 118.3 17.4 C 118.32 17.39 118.3 27.9 118.3 27.9 L 115.9 27.9 C 115.9 27.9 115.9 17.39 115.9 17.4 C 115.9 16.2 115.6 15.4 115 14.9 C 114.3 14.4 113.6 14.2 112.7 14.2 C 111.6 14.2 110.8 14.5 110.1 15.2 C 109.5 15.8 109.2 16.7 109.2 17.7 C 109.24 17.67 109.2 27.9 109.2 27.9 L 106.8 27.9 C 106.8 27.9 106.78 17.14 106.8 17.1 C 106.8 16.2 106.5 15.5 105.9 15 C 105.3 14.4 104.6 14.2 103.7 14.2 C 103 14.2 102.5 14.3 101.9 14.7 C 101.4 15 100.9 15.5 100.6 16 C 100.3 16.6 100.1 17.3 100.1 18.1 C 100.11 18.08 100.1 27.9 100.1 27.9 L 97.7 27.9 Z M 122.6 33.8 L 122.6 12.2 L 124.9 12.2 L 124.9 14.7 C 124.9 14.7 125.19 14.69 125.2 14.7 C 125.4 14.4 125.6 14.1 125.9 13.6 C 126.2 13.2 126.7 12.8 127.3 12.5 C 127.9 12.2 128.7 12 129.7 12 C 131.1 12 132.2 12.3 133.2 13 C 134.2 13.6 135 14.6 135.6 15.8 C 136.2 17 136.4 18.4 136.4 20.1 C 136.4 21.8 136.2 23.2 135.6 24.4 C 135 25.6 134.2 26.6 133.2 27.2 C 132.2 27.9 131.1 28.2 129.8 28.2 C 128.8 28.2 128 28.1 127.3 27.7 C 126.7 27.4 126.3 27 125.9 26.6 C 125.6 26.1 125.4 25.8 125.2 25.5 C 125.19 25.49 125 25.5 125 25.5 L 125 33.8 L 122.6 33.8 Z M 124.9 20 C 124.9 21.2 125.1 22.3 125.5 23.2 C 125.8 24.1 126.3 24.8 127 25.3 C 127.7 25.8 128.5 26.1 129.4 26.1 C 130.5 26.1 131.3 25.8 132 25.3 C 132.7 24.7 133.2 24 133.5 23.1 C 133.9 22.2 134 21.2 134 20 C 134 18.9 133.9 17.9 133.5 17.1 C 133.2 16.2 132.7 15.5 132 14.9 C 131.3 14.4 130.5 14.2 129.4 14.2 C 128.5 14.2 127.6 14.4 127 14.9 C 126.3 15.4 125.8 16.1 125.5 17 C 125.1 17.8 124.9 18.9 124.9 20 Z M 142.4 7 L 142.4 27.9 L 140 27.9 L 140 7 L 142.4 7 Z M 153.3 28.2 C 151.8 28.2 150.5 27.9 149.4 27.2 C 148.3 26.5 147.5 25.6 146.9 24.4 C 146.3 23.2 146 21.8 146 20.2 C 146 18.6 146.3 17.1 146.9 15.9 C 147.5 14.7 148.3 13.7 149.3 13 C 150.4 12.3 151.6 12 153.1 12 C 153.9 12 154.7 12.1 155.5 12.4 C 156.3 12.7 157 13.1 157.7 13.7 C 158.3 14.3 158.8 15.1 159.2 16.1 C 159.6 17.1 159.8 18.4 159.8 19.8 C 159.81 19.84 159.8 20.9 159.8 20.9 L 147.7 20.9 L 147.7 18.8 C 147.7 18.8 157.36 18.78 157.4 18.8 C 157.4 17.9 157.2 17.1 156.8 16.4 C 156.5 15.7 156 15.2 155.3 14.8 C 154.7 14.4 153.9 14.2 153.1 14.2 C 152.1 14.2 151.3 14.4 150.6 14.9 C 149.9 15.3 149.3 16 149 16.7 C 148.6 17.5 148.4 18.3 148.4 19.1 C 148.4 19.1 148.4 20.5 148.4 20.5 C 148.4 21.7 148.6 22.7 149 23.5 C 149.4 24.4 150 25 150.7 25.4 C 151.5 25.8 152.3 26.1 153.3 26.1 C 153.9 26.1 154.5 26 155 25.8 C 155.5 25.6 156 25.3 156.4 25 C 156.7 24.6 157 24.2 157.2 23.6 C 157.2 23.6 159.6 24.3 159.6 24.3 C 159.3 25.1 158.9 25.7 158.3 26.3 C 157.8 26.9 157 27.4 156.2 27.7 C 155.3 28.1 154.4 28.2 153.3 28.2 Z M 178.4 12.2 L 178.4 14.2 L 170.3 14.2 L 170.3 12.2 L 178.4 12.2 Z M 172.7 8.4 L 175.1 8.4 C 175.1 8.4 175.07 23.4 175.1 23.4 C 175.1 24.1 175.2 24.6 175.4 24.9 C 175.6 25.3 175.8 25.5 176.2 25.6 C 176.5 25.7 176.8 25.8 177.2 25.8 C 177.4 25.8 177.6 25.8 177.8 25.7 C 178 25.7 178.1 25.7 178.2 25.7 C 178.2 25.7 178.7 27.8 178.7 27.8 C 178.6 27.9 178.3 27.9 178 28 C 177.7 28.1 177.4 28.1 176.9 28.1 C 176.2 28.1 175.6 28 174.9 27.7 C 174.3 27.4 173.7 26.9 173.3 26.3 C 172.9 25.7 172.7 25 172.7 24.1 C 172.66 24.05 172.7 8.4 172.7 8.4 Z M 187.5 28.2 C 186.1 28.2 184.8 27.9 183.8 27.2 C 182.7 26.5 181.9 25.6 181.3 24.4 C 180.7 23.2 180.4 21.8 180.4 20.1 C 180.4 18.5 180.7 17.1 181.3 15.8 C 181.9 14.6 182.7 13.7 183.8 13 C 184.8 12.3 186.1 12 187.5 12 C 188.9 12 190.1 12.3 191.2 13 C 192.3 13.7 193.1 14.6 193.7 15.8 C 194.3 17.1 194.6 18.5 194.6 20.1 C 194.6 21.8 194.3 23.2 193.7 24.4 C 193.1 25.6 192.3 26.5 191.2 27.2 C 190.1 27.9 188.9 28.2 187.5 28.2 Z M 187.5 26.1 C 188.6 26.1 189.5 25.8 190.1 25.2 C 190.8 24.7 191.4 24 191.7 23.1 C 192 22.2 192.2 21.2 192.2 20.1 C 192.2 19.1 192 18.1 191.7 17.2 C 191.4 16.3 190.8 15.6 190.1 15 C 189.5 14.4 188.6 14.2 187.5 14.2 C 186.4 14.2 185.5 14.4 184.8 15 C 184.1 15.6 183.6 16.3 183.3 17.2 C 183 18.1 182.8 19.1 182.8 20.1 C 182.8 21.2 183 22.2 183.3 23.1 C 183.6 24 184.1 24.7 184.8 25.2 C 185.5 25.8 186.4 26.1 187.5 26.1 Z " stroke="none" fill="#ffffff"/>  </g></svg>