<?xml version="1.0" standalone="no"?><!DOCTYPE svg PUBLIC "-//W3C//DTD SVG 1.1//EN" "http://www.w3.org/Graphics/SVG/1.1/DTD/svg11.dtd"><svg xmlns="http://www.w3.org/2000/svg" version="1.1" width="121px" height="25.4px" viewBox="0 -3 121 25.4" style="top:-3px">  <desc>10 / 19</desc>  <defs/>  <g id="Polygon119296">    <path d="M 43.6 3.4 L 43.6 13.6 L 42.4 13.6 L 42.4 4.7 L 42.4 4.7 L 39.9 6.3 L 39.9 5.1 L 42.4 3.4 L 43.6 3.4 Z M 49.7 13.7 C 48.9 13.7 48.3 13.5 47.8 13.1 C 47.2 12.7 46.8 12.1 46.6 11.3 C 46.3 10.5 46.1 9.6 46.1 8.5 C 46.1 7.4 46.3 6.4 46.6 5.7 C 46.8 4.9 47.2 4.3 47.8 3.9 C 48.3 3.4 48.9 3.2 49.7 3.2 C 50.4 3.2 51.1 3.4 51.6 3.9 C 52.1 4.3 52.5 4.9 52.8 5.7 C 53.1 6.4 53.2 7.4 53.2 8.5 C 53.2 9.6 53.1 10.5 52.8 11.3 C 52.5 12.1 52.1 12.7 51.6 13.1 C 51.1 13.5 50.4 13.7 49.7 13.7 Z M 49.7 12.6 C 50.4 12.6 51 12.3 51.4 11.5 C 51.8 10.8 52 9.8 52 8.5 C 52 7.6 51.9 6.8 51.7 6.2 C 51.6 5.6 51.3 5.1 50.9 4.8 C 50.6 4.5 50.2 4.3 49.7 4.3 C 48.9 4.3 48.4 4.7 48 5.4 C 47.5 6.1 47.3 7.1 47.3 8.5 C 47.3 9.4 47.4 10.1 47.6 10.7 C 47.8 11.3 48.1 11.8 48.4 12.1 C 48.8 12.4 49.2 12.6 49.7 12.6 Z M 62.7 2.9 L 59.4 15.1 L 58.3 15.1 L 61.6 2.9 L 62.7 2.9 Z M 71.6 3.4 L 71.6 13.6 L 70.3 13.6 L 70.3 4.7 L 70.3 4.7 L 67.8 6.3 L 67.8 5.1 L 70.3 3.4 L 71.6 3.4 Z M 77.4 3.2 C 77.8 3.2 78.3 3.3 78.7 3.5 C 79.1 3.6 79.5 3.9 79.8 4.3 C 80.2 4.6 80.4 5.1 80.7 5.7 C 80.9 6.3 81 7.1 81 8.1 C 81 9 80.9 9.8 80.7 10.5 C 80.5 11.2 80.3 11.8 80 12.2 C 79.7 12.7 79.3 13.1 78.8 13.3 C 78.4 13.6 77.8 13.7 77.3 13.7 C 76.7 13.7 76.2 13.6 75.7 13.4 C 75.3 13.1 74.9 12.8 74.7 12.4 C 74.4 12 74.2 11.5 74.1 11 C 74.1 11 75.3 11 75.3 11 C 75.4 11.5 75.6 11.8 76 12.2 C 76.3 12.5 76.7 12.6 77.3 12.6 C 78.1 12.6 78.7 12.3 79.1 11.6 C 79.6 10.9 79.8 9.9 79.8 8.7 C 79.8 8.7 79.7 8.7 79.7 8.7 C 79.5 8.9 79.3 9.2 79.1 9.4 C 78.8 9.6 78.5 9.7 78.2 9.9 C 77.9 10 77.6 10 77.2 10 C 76.6 10 76.1 9.9 75.6 9.6 C 75.1 9.3 74.8 8.9 74.5 8.4 C 74.2 7.9 74 7.3 74 6.6 C 74 6 74.2 5.4 74.4 4.9 C 74.7 4.4 75.1 4 75.6 3.7 C 76.1 3.4 76.7 3.2 77.4 3.2 Z M 77.4 4.3 C 77 4.3 76.6 4.4 76.3 4.6 C 76 4.9 75.7 5.1 75.5 5.5 C 75.3 5.8 75.2 6.2 75.2 6.6 C 75.2 7.1 75.3 7.5 75.5 7.8 C 75.7 8.1 75.9 8.4 76.3 8.6 C 76.6 8.8 77 8.9 77.4 8.9 C 77.7 8.9 78 8.9 78.3 8.7 C 78.5 8.6 78.8 8.4 79 8.2 C 79.2 8 79.3 7.8 79.5 7.5 C 79.6 7.2 79.6 6.9 79.6 6.6 C 79.6 6.2 79.5 5.9 79.4 5.5 C 79.2 5.2 78.9 4.9 78.6 4.7 C 78.2 4.4 77.9 4.3 77.4 4.3 Z " stroke="none" fill="#ffffff"/>  </g></svg>