<?xml version="1.0" standalone="no"?><!DOCTYPE svg PUBLIC "-//W3C//DTD SVG 1.1//EN" "http://www.w3.org/Graphics/SVG/1.1/DTD/svg11.dtd"><svg xmlns="http://www.w3.org/2000/svg" version="1.1" width="298px" height="98.8px" viewBox="0 -4 298 98.8" style="top:-4px">  <desc>Your guide to optimizing right fit AI across your organization</desc>  <defs/>  <g id="Polygon107234">    <path d="M 87.1 81.1 C 85.9 81.1 84.9 80.8 84 80.3 C 83.1 79.7 82.4 78.9 81.9 77.9 C 81.4 76.9 81.1 75.7 81.1 74.4 C 81.1 73 81.4 71.8 81.9 70.8 C 82.4 69.8 83.1 69 84 68.4 C 84.9 67.9 85.9 67.6 87.1 67.6 C 88.2 67.6 89.3 67.9 90.2 68.4 C 91.1 69 91.8 69.8 92.3 70.8 C 92.8 71.8 93 73 93 74.4 C 93 75.7 92.8 76.9 92.3 77.9 C 91.8 78.9 91.1 79.7 90.2 80.3 C 89.3 80.8 88.2 81.1 87.1 81.1 Z M 87.1 79.3 C 88 79.3 88.7 79.1 89.3 78.6 C 89.9 78.2 90.3 77.6 90.6 76.8 C 90.8 76.1 91 75.2 91 74.4 C 91 73.5 90.8 72.7 90.6 71.9 C 90.3 71.2 89.9 70.6 89.3 70.1 C 88.7 69.6 88 69.4 87.1 69.4 C 86.2 69.4 85.4 69.6 84.9 70.1 C 84.3 70.6 83.8 71.2 83.6 71.9 C 83.3 72.7 83.1 73.5 83.1 74.4 C 83.1 75.2 83.3 76.1 83.6 76.8 C 83.8 77.6 84.3 78.2 84.9 78.6 C 85.4 79.1 86.2 79.3 87.1 79.3 Z M 96 80.9 L 96 67.8 L 97.9 67.8 L 97.9 69.7 C 97.9 69.7 98.07 69.74 98.1 69.7 C 98.3 69.1 98.7 68.6 99.4 68.2 C 100 67.8 100.7 67.6 101.5 67.6 C 101.6 67.6 101.8 67.6 102 67.6 C 102.3 67.6 102.4 67.6 102.5 67.6 C 102.5 67.6 102.5 69.6 102.5 69.6 C 102.5 69.6 102.3 69.6 102.1 69.6 C 101.8 69.5 101.6 69.5 101.3 69.5 C 100.7 69.5 100.1 69.6 99.6 69.9 C 99.1 70.2 98.7 70.5 98.4 71 C 98.1 71.4 98 72 98 72.6 C 98 72.57 98 80.9 98 80.9 L 96 80.9 Z M 109.9 86 C 108.9 86 108.1 85.9 107.4 85.7 C 106.7 85.4 106.1 85.1 105.7 84.7 C 105.2 84.3 104.8 83.9 104.6 83.4 C 104.6 83.4 106.2 82.3 106.2 82.3 C 106.3 82.5 106.6 82.8 106.8 83.1 C 107.1 83.4 107.5 83.7 108 83.9 C 108.5 84.1 109.1 84.3 109.9 84.3 C 111 84.3 111.8 84 112.5 83.5 C 113.2 83 113.6 82.2 113.6 81.1 C 113.55 81.09 113.6 78.4 113.6 78.4 C 113.6 78.4 113.38 78.43 113.4 78.4 C 113.2 78.7 113 79 112.8 79.3 C 112.5 79.7 112.1 80 111.6 80.2 C 111.1 80.5 110.4 80.6 109.6 80.6 C 108.5 80.6 107.6 80.4 106.7 79.9 C 105.9 79.4 105.2 78.7 104.7 77.7 C 104.2 76.8 104 75.6 104 74.2 C 104 72.9 104.2 71.7 104.7 70.7 C 105.2 69.7 105.8 69 106.7 68.4 C 107.5 67.9 108.5 67.6 109.6 67.6 C 110.4 67.6 111.1 67.7 111.6 68 C 112.1 68.3 112.5 68.6 112.8 69 C 113.1 69.3 113.3 69.6 113.4 69.8 C 113.42 69.84 113.6 69.8 113.6 69.8 L 113.6 67.8 L 115.6 67.8 C 115.6 67.8 115.56 81.23 115.6 81.2 C 115.6 82.4 115.3 83.3 114.8 84 C 114.3 84.7 113.6 85.2 112.8 85.5 C 111.9 85.9 110.9 86 109.9 86 Z M 109.8 78.8 C 110.6 78.8 111.3 78.7 111.9 78.3 C 112.4 77.9 112.9 77.4 113.2 76.7 C 113.4 76 113.6 75.2 113.6 74.2 C 113.6 73.3 113.4 72.4 113.2 71.7 C 112.9 71 112.5 70.4 111.9 70 C 111.3 69.6 110.7 69.4 109.8 69.4 C 109 69.4 108.3 69.6 107.7 70 C 107.1 70.5 106.7 71.1 106.4 71.8 C 106.2 72.5 106 73.3 106 74.2 C 106 75.1 106.2 75.9 106.4 76.6 C 106.7 77.3 107.2 77.9 107.7 78.2 C 108.3 78.6 109 78.8 109.8 78.8 Z M 123 81.2 C 122.1 81.2 121.4 81 120.7 80.7 C 120 80.4 119.5 79.9 119.1 79.3 C 118.7 78.7 118.5 78 118.5 77.1 C 118.5 76.4 118.7 75.8 118.9 75.3 C 119.2 74.8 119.6 74.5 120.1 74.2 C 120.6 73.9 121.2 73.7 121.8 73.6 C 122.4 73.5 123 73.4 123.6 73.3 C 124.4 73.2 125 73.1 125.5 73 C 126 73 126.4 72.9 126.6 72.8 C 126.8 72.6 127 72.4 127 72.1 C 127 72.1 127 72 127 72 C 127 71.2 126.7 70.5 126.3 70.1 C 125.8 69.6 125.1 69.4 124.2 69.4 C 123.2 69.4 122.5 69.6 121.9 70 C 121.4 70.4 121 70.9 120.8 71.3 C 120.8 71.3 118.9 70.7 118.9 70.7 C 119.2 69.9 119.7 69.2 120.2 68.8 C 120.8 68.3 121.4 68 122.1 67.9 C 122.8 67.7 123.5 67.6 124.1 67.6 C 124.6 67.6 125 67.6 125.6 67.7 C 126.1 67.8 126.7 68 127.2 68.3 C 127.7 68.7 128.1 69.1 128.5 69.7 C 128.8 70.4 129 71.2 129 72.2 C 128.97 72.23 129 80.9 129 80.9 L 127 80.9 L 127 79.1 C 127 79.1 126.86 79.08 126.9 79.1 C 126.7 79.4 126.5 79.7 126.2 80 C 125.9 80.3 125.4 80.6 124.9 80.8 C 124.4 81 123.7 81.2 123 81.2 Z M 123.3 79.4 C 124.1 79.4 124.7 79.2 125.3 78.9 C 125.8 78.6 126.3 78.2 126.5 77.7 C 126.8 77.2 127 76.7 127 76.1 C 127 76.1 127 74.3 127 74.3 C 126.9 74.4 126.7 74.5 126.4 74.5 C 126.1 74.6 125.8 74.7 125.4 74.8 C 125 74.8 124.7 74.9 124.3 74.9 C 124 75 123.7 75 123.5 75 C 123 75.1 122.5 75.2 122 75.3 C 121.6 75.5 121.2 75.7 120.9 76 C 120.7 76.3 120.5 76.7 120.5 77.2 C 120.5 77.9 120.8 78.5 121.3 78.8 C 121.8 79.2 122.5 79.4 123.3 79.4 Z M 134.6 73 C 134.57 72.98 134.6 80.9 134.6 80.9 L 132.6 80.9 L 132.6 67.8 L 134.5 67.8 L 134.5 69.8 C 134.5 69.8 134.68 69.8 134.7 69.8 C 135 69.1 135.4 68.6 136.1 68.2 C 136.7 67.8 137.5 67.6 138.5 67.6 C 139.4 67.6 140.2 67.8 140.8 68.1 C 141.5 68.5 142 69 142.4 69.8 C 142.7 70.5 142.9 71.4 142.9 72.5 C 142.93 72.53 142.9 80.9 142.9 80.9 L 140.9 80.9 C 140.9 80.9 140.92 72.67 140.9 72.7 C 140.9 71.6 140.6 70.8 140.1 70.3 C 139.6 69.7 138.8 69.4 137.9 69.4 C 137.3 69.4 136.7 69.5 136.2 69.8 C 135.7 70.1 135.3 70.5 135 71 C 134.7 71.6 134.6 72.2 134.6 73 Z M 146.5 80.9 L 146.5 67.8 L 148.5 67.8 L 148.5 80.9 L 146.5 80.9 Z M 147.5 65.6 C 147.1 65.6 146.8 65.4 146.5 65.2 C 146.2 64.9 146.1 64.6 146.1 64.2 C 146.1 63.8 146.2 63.5 146.5 63.3 C 146.8 63 147.1 62.9 147.5 62.9 C 147.9 62.9 148.2 63 148.5 63.3 C 148.8 63.5 148.9 63.8 148.9 64.2 C 148.9 64.6 148.8 64.9 148.5 65.2 C 148.2 65.4 147.9 65.6 147.5 65.6 Z M 151.2 80.9 L 151.2 79.3 L 158.7 69.8 L 158.7 69.6 L 151.5 69.6 L 151.5 67.8 L 161.3 67.8 L 161.3 69.4 L 154 78.8 L 154 79 L 161.5 79 L 161.5 80.9 L 151.2 80.9 Z M 168.2 81.2 C 167.4 81.2 166.6 81 165.9 80.7 C 165.3 80.4 164.7 79.9 164.3 79.3 C 163.9 78.7 163.7 78 163.7 77.1 C 163.7 76.4 163.9 75.8 164.2 75.3 C 164.5 74.8 164.9 74.5 165.4 74.2 C 165.9 73.9 166.4 73.7 167 73.6 C 167.6 73.5 168.2 73.4 168.8 73.3 C 169.6 73.2 170.3 73.1 170.8 73 C 171.3 73 171.6 72.9 171.8 72.8 C 172.1 72.6 172.2 72.4 172.2 72.1 C 172.2 72.1 172.2 72 172.2 72 C 172.2 71.2 172 70.5 171.5 70.1 C 171 69.6 170.4 69.4 169.4 69.4 C 168.5 69.4 167.7 69.6 167.2 70 C 166.6 70.4 166.2 70.9 166 71.3 C 166 71.3 164.1 70.7 164.1 70.7 C 164.5 69.9 164.9 69.2 165.5 68.8 C 166.1 68.3 166.7 68 167.4 67.9 C 168 67.7 168.7 67.6 169.4 67.6 C 169.8 67.6 170.3 67.6 170.8 67.7 C 171.4 67.8 171.9 68 172.4 68.3 C 172.9 68.7 173.4 69.1 173.7 69.7 C 174 70.4 174.2 71.2 174.2 72.2 C 174.2 72.23 174.2 80.9 174.2 80.9 L 172.2 80.9 L 172.2 79.1 C 172.2 79.1 172.09 79.08 172.1 79.1 C 172 79.4 171.7 79.7 171.4 80 C 171.1 80.3 170.7 80.6 170.1 80.8 C 169.6 81 169 81.2 168.2 81.2 Z M 168.5 79.4 C 169.3 79.4 170 79.2 170.5 78.9 C 171.1 78.6 171.5 78.2 171.8 77.7 C 172.1 77.2 172.2 76.7 172.2 76.1 C 172.2 76.1 172.2 74.3 172.2 74.3 C 172.1 74.4 171.9 74.5 171.6 74.5 C 171.3 74.6 171 74.7 170.6 74.8 C 170.3 74.8 169.9 74.9 169.6 74.9 C 169.2 75 168.9 75 168.7 75 C 168.2 75.1 167.7 75.2 167.3 75.3 C 166.8 75.5 166.4 75.7 166.2 76 C 165.9 76.3 165.7 76.7 165.7 77.2 C 165.7 77.9 166 78.5 166.5 78.8 C 167 79.2 167.7 79.4 168.5 79.4 Z M 183.2 67.8 L 183.2 69.5 L 176.4 69.5 L 176.4 67.8 L 183.2 67.8 Z M 178.4 64.6 L 180.4 64.6 C 180.4 64.6 180.37 77.1 180.4 77.1 C 180.4 77.7 180.5 78.1 180.6 78.4 C 180.8 78.7 181 78.8 181.3 78.9 C 181.5 79 181.8 79.1 182.1 79.1 C 182.3 79.1 182.5 79.1 182.7 79 C 182.8 79 182.9 79 183 79 C 183 79 183.4 80.8 183.4 80.8 C 183.3 80.8 183.1 80.9 182.8 80.9 C 182.6 81 182.3 81 181.9 81 C 181.3 81 180.8 80.9 180.2 80.7 C 179.7 80.4 179.2 80 178.9 79.5 C 178.5 79 178.4 78.4 178.4 77.6 C 178.36 77.65 178.4 64.6 178.4 64.6 Z M 185.9 80.9 L 185.9 67.8 L 187.9 67.8 L 187.9 80.9 L 185.9 80.9 Z M 186.9 65.6 C 186.6 65.6 186.2 65.4 185.9 65.2 C 185.7 64.9 185.5 64.6 185.5 64.2 C 185.5 63.8 185.7 63.5 185.9 63.3 C 186.2 63 186.6 62.9 186.9 62.9 C 187.3 62.9 187.7 63 188 63.3 C 188.2 63.5 188.4 63.8 188.4 64.2 C 188.4 64.6 188.2 64.9 188 65.2 C 187.7 65.4 187.3 65.6 186.9 65.6 Z M 196.8 81.1 C 195.6 81.1 194.6 80.8 193.7 80.3 C 192.8 79.7 192.1 78.9 191.6 77.9 C 191.1 76.9 190.9 75.7 190.9 74.4 C 190.9 73 191.1 71.8 191.6 70.8 C 192.1 69.8 192.8 69 193.7 68.4 C 194.6 67.9 195.6 67.6 196.8 67.6 C 198 67.6 199 67.9 199.9 68.4 C 200.8 69 201.5 69.8 202 70.8 C 202.5 71.8 202.7 73 202.7 74.4 C 202.7 75.7 202.5 76.9 202 77.9 C 201.5 78.9 200.8 79.7 199.9 80.3 C 199 80.8 198 81.1 196.8 81.1 Z M 196.8 79.3 C 197.7 79.3 198.4 79.1 199 78.6 C 199.6 78.2 200 77.6 200.3 76.8 C 200.6 76.1 200.7 75.2 200.7 74.4 C 200.7 73.5 200.6 72.7 200.3 71.9 C 200 71.2 199.6 70.6 199 70.1 C 198.4 69.6 197.7 69.4 196.8 69.4 C 195.9 69.4 195.2 69.6 194.6 70.1 C 194 70.6 193.6 71.2 193.3 71.9 C 193 72.7 192.9 73.5 192.9 74.4 C 192.9 75.2 193 76.1 193.3 76.8 C 193.6 77.6 194 78.2 194.6 78.6 C 195.2 79.1 195.9 79.3 196.8 79.3 Z M 207.7 73 C 207.73 72.98 207.7 80.9 207.7 80.9 L 205.7 80.9 L 205.7 67.8 L 207.7 67.8 L 207.7 69.8 C 207.7 69.8 207.83 69.8 207.8 69.8 C 208.1 69.1 208.6 68.6 209.2 68.2 C 209.9 67.8 210.7 67.6 211.7 67.6 C 212.5 67.6 213.3 67.8 214 68.1 C 214.6 68.5 215.2 69 215.5 69.8 C 215.9 70.5 216.1 71.4 216.1 72.5 C 216.08 72.53 216.1 80.9 216.1 80.9 L 214.1 80.9 C 214.1 80.9 214.07 72.67 214.1 72.7 C 214.1 71.6 213.8 70.8 213.3 70.3 C 212.7 69.7 212 69.4 211.1 69.4 C 210.4 69.4 209.9 69.5 209.4 69.8 C 208.9 70.1 208.5 70.5 208.2 71 C 207.9 71.6 207.7 72.2 207.7 73 Z " stroke="none" fill="#ffffff"/>  </g>  <g id="Polygon107233">    <path d="M 25.9 52.1 L 25.9 39 L 27.8 39 L 27.8 40.9 C 27.8 40.9 27.97 40.94 28 40.9 C 28.2 40.3 28.6 39.8 29.3 39.4 C 29.9 39 30.6 38.8 31.4 38.8 C 31.5 38.8 31.7 38.8 31.9 38.8 C 32.2 38.8 32.3 38.8 32.4 38.8 C 32.4 38.8 32.4 40.8 32.4 40.8 C 32.4 40.8 32.2 40.8 32 40.8 C 31.7 40.7 31.5 40.7 31.2 40.7 C 30.6 40.7 30 40.8 29.5 41.1 C 29 41.4 28.6 41.7 28.3 42.2 C 28 42.6 27.9 43.2 27.9 43.8 C 27.9 43.77 27.9 52.1 27.9 52.1 L 25.9 52.1 Z M 34.8 52.1 L 34.8 39 L 36.8 39 L 36.8 52.1 L 34.8 52.1 Z M 35.8 36.8 C 35.4 36.8 35.1 36.6 34.8 36.4 C 34.5 36.1 34.3 35.8 34.3 35.4 C 34.3 35 34.5 34.7 34.8 34.5 C 35.1 34.2 35.4 34.1 35.8 34.1 C 36.2 34.1 36.5 34.2 36.8 34.5 C 37.1 34.7 37.2 35 37.2 35.4 C 37.2 35.8 37.1 36.1 36.8 36.4 C 36.5 36.6 36.2 36.8 35.8 36.8 Z M 45.6 57.2 C 44.6 57.2 43.8 57.1 43.1 56.9 C 42.4 56.6 41.8 56.3 41.3 55.9 C 40.9 55.5 40.5 55.1 40.2 54.6 C 40.2 54.6 41.8 53.5 41.8 53.5 C 42 53.7 42.3 54 42.5 54.3 C 42.8 54.6 43.2 54.9 43.7 55.1 C 44.2 55.3 44.8 55.5 45.6 55.5 C 46.7 55.5 47.5 55.2 48.2 54.7 C 48.9 54.2 49.2 53.4 49.2 52.3 C 49.24 52.29 49.2 49.6 49.2 49.6 C 49.2 49.6 49.07 49.63 49.1 49.6 C 48.9 49.9 48.7 50.2 48.4 50.5 C 48.2 50.9 47.8 51.2 47.3 51.4 C 46.8 51.7 46.1 51.8 45.3 51.8 C 44.2 51.8 43.2 51.6 42.4 51.1 C 41.6 50.6 40.9 49.9 40.4 48.9 C 39.9 48 39.7 46.8 39.7 45.4 C 39.7 44.1 39.9 42.9 40.4 41.9 C 40.9 40.9 41.5 40.2 42.4 39.6 C 43.2 39.1 44.2 38.8 45.3 38.8 C 46.1 38.8 46.8 38.9 47.3 39.2 C 47.8 39.5 48.2 39.8 48.5 40.2 C 48.7 40.5 49 40.8 49.1 41 C 49.11 41.04 49.3 41 49.3 41 L 49.3 39 L 51.3 39 C 51.3 39 51.25 52.43 51.3 52.4 C 51.3 53.6 51 54.5 50.5 55.2 C 50 55.9 49.3 56.4 48.4 56.7 C 47.6 57.1 46.6 57.2 45.6 57.2 Z M 45.5 50 C 46.3 50 47 49.9 47.6 49.5 C 48.1 49.1 48.6 48.6 48.8 47.9 C 49.1 47.2 49.3 46.4 49.3 45.4 C 49.3 44.5 49.1 43.6 48.8 42.9 C 48.6 42.2 48.1 41.6 47.6 41.2 C 47 40.8 46.3 40.6 45.5 40.6 C 44.7 40.6 44 40.8 43.4 41.2 C 42.8 41.7 42.4 42.3 42.1 43 C 41.8 43.7 41.7 44.5 41.7 45.4 C 41.7 46.3 41.9 47.1 42.1 47.8 C 42.4 48.5 42.9 49.1 43.4 49.4 C 44 49.8 44.7 50 45.5 50 Z M 56.9 44.2 C 56.87 44.18 56.9 52.1 56.9 52.1 L 54.9 52.1 L 54.9 34.6 L 56.9 34.6 L 56.9 41 C 56.9 41 57.04 41 57 41 C 57.3 40.3 57.8 39.8 58.4 39.4 C 59 39 59.9 38.8 60.9 38.8 C 61.8 38.8 62.6 39 63.2 39.3 C 63.9 39.7 64.4 40.2 64.8 40.9 C 65.2 41.7 65.4 42.6 65.4 43.7 C 65.36 43.73 65.4 52.1 65.4 52.1 L 63.3 52.1 C 63.3 52.1 63.35 43.87 63.3 43.9 C 63.3 42.8 63.1 42 62.5 41.5 C 62 40.9 61.3 40.6 60.3 40.6 C 59.7 40.6 59.1 40.7 58.5 41 C 58 41.3 57.6 41.7 57.3 42.2 C 57 42.8 56.9 43.4 56.9 44.2 Z M 74.3 39 L 74.3 40.7 L 67.5 40.7 L 67.5 39 L 74.3 39 Z M 69.5 35.8 L 71.5 35.8 C 71.5 35.8 71.5 48.3 71.5 48.3 C 71.5 48.9 71.6 49.3 71.8 49.6 C 71.9 49.9 72.1 50 72.4 50.1 C 72.7 50.2 72.9 50.3 73.2 50.3 C 73.5 50.3 73.6 50.3 73.8 50.2 C 73.9 50.2 74 50.2 74.1 50.2 C 74.1 50.2 74.5 52 74.5 52 C 74.4 52 74.2 52.1 74 52.1 C 73.7 52.2 73.4 52.2 73 52.2 C 72.5 52.2 71.9 52.1 71.4 51.9 C 70.8 51.6 70.4 51.2 70 50.7 C 69.7 50.2 69.5 49.6 69.5 48.8 C 69.49 48.85 69.5 35.8 69.5 35.8 Z M 83.3 43.6 L 83.3 45.5 L 75.7 45.5 L 75.7 43.6 L 83.3 43.6 Z M 91.8 39 L 91.8 40.7 L 84.7 40.7 L 84.7 39 L 91.8 39 Z M 86.8 52.1 C 86.8 52.1 86.84 37.15 86.8 37.2 C 86.8 36.4 87 35.8 87.4 35.3 C 87.7 34.8 88.2 34.4 88.7 34.2 C 89.3 33.9 89.9 33.8 90.5 33.8 C 91 33.8 91.4 33.8 91.7 33.9 C 92 34 92.3 34.1 92.4 34.1 C 92.4 34.1 91.9 35.9 91.9 35.9 C 91.8 35.8 91.6 35.8 91.4 35.7 C 91.3 35.7 91 35.7 90.7 35.7 C 90.1 35.7 89.6 35.8 89.3 36.2 C 89 36.5 88.9 37 88.9 37.6 C 88.85 37.63 88.9 52.1 88.9 52.1 L 86.8 52.1 Z M 94.8 52.1 L 94.8 39 L 96.8 39 L 96.8 52.1 L 94.8 52.1 Z M 95.8 36.8 C 95.4 36.8 95 36.6 94.8 36.4 C 94.5 36.1 94.3 35.8 94.3 35.4 C 94.3 35 94.5 34.7 94.8 34.5 C 95 34.2 95.4 34.1 95.8 34.1 C 96.2 34.1 96.5 34.2 96.8 34.5 C 97.1 34.7 97.2 35 97.2 35.4 C 97.2 35.8 97.1 36.1 96.8 36.4 C 96.5 36.6 96.2 36.8 95.8 36.8 Z M 106 39 L 106 40.7 L 99.2 40.7 L 99.2 39 L 106 39 Z M 101.2 35.8 L 103.2 35.8 C 103.2 35.8 103.17 48.3 103.2 48.3 C 103.2 48.9 103.3 49.3 103.4 49.6 C 103.6 49.9 103.8 50 104.1 50.1 C 104.3 50.2 104.6 50.3 104.9 50.3 C 105.1 50.3 105.3 50.3 105.5 50.2 C 105.6 50.2 105.7 50.2 105.8 50.2 C 105.8 50.2 106.2 52 106.2 52 C 106.1 52 105.9 52.1 105.6 52.1 C 105.4 52.2 105.1 52.2 104.7 52.2 C 104.1 52.2 103.6 52.1 103 51.9 C 102.5 51.6 102 51.2 101.7 50.7 C 101.3 50.2 101.2 49.6 101.2 48.8 C 101.16 48.85 101.2 35.8 101.2 35.8 Z M 116.7 52.1 L 114.5 52.1 L 120.9 34.6 L 123.1 34.6 L 129.5 52.1 L 127.3 52.1 L 122.1 37.4 L 122 37.4 L 116.7 52.1 Z M 117.6 45.2 L 126.5 45.2 L 126.5 47.1 L 117.6 47.1 L 117.6 45.2 Z M 134.3 34.6 L 134.3 52.1 L 132.2 52.1 L 132.2 34.6 L 134.3 34.6 Z M 148.9 52.4 C 148 52.4 147.3 52.2 146.6 51.9 C 145.9 51.6 145.4 51.1 145 50.5 C 144.6 49.9 144.4 49.2 144.4 48.3 C 144.4 47.6 144.6 47 144.9 46.5 C 145.1 46 145.5 45.7 146 45.4 C 146.5 45.1 147.1 44.9 147.7 44.8 C 148.3 44.7 148.9 44.6 149.5 44.5 C 150.3 44.4 150.9 44.3 151.4 44.2 C 151.9 44.2 152.3 44.1 152.5 44 C 152.7 43.8 152.9 43.6 152.9 43.3 C 152.9 43.3 152.9 43.2 152.9 43.2 C 152.9 42.4 152.6 41.7 152.2 41.3 C 151.7 40.8 151 40.6 150.1 40.6 C 149.1 40.6 148.4 40.8 147.8 41.2 C 147.3 41.6 146.9 42.1 146.7 42.5 C 146.7 42.5 144.8 41.9 144.8 41.9 C 145.1 41.1 145.6 40.4 146.2 40 C 146.7 39.5 147.3 39.2 148 39.1 C 148.7 38.9 149.4 38.8 150 38.8 C 150.5 38.8 150.9 38.8 151.5 38.9 C 152 39 152.6 39.2 153.1 39.5 C 153.6 39.9 154 40.3 154.4 40.9 C 154.7 41.6 154.9 42.4 154.9 43.4 C 154.87 43.43 154.9 52.1 154.9 52.1 L 152.9 52.1 L 152.9 50.3 C 152.9 50.3 152.76 50.28 152.8 50.3 C 152.6 50.6 152.4 50.9 152.1 51.2 C 151.8 51.5 151.3 51.8 150.8 52 C 150.3 52.2 149.6 52.4 148.9 52.4 Z M 149.2 50.6 C 150 50.6 150.6 50.4 151.2 50.1 C 151.7 49.8 152.2 49.4 152.4 48.9 C 152.7 48.4 152.9 47.9 152.9 47.3 C 152.9 47.3 152.9 45.5 152.9 45.5 C 152.8 45.6 152.6 45.7 152.3 45.7 C 152 45.8 151.7 45.9 151.3 46 C 150.9 46 150.6 46.1 150.2 46.1 C 149.9 46.2 149.6 46.2 149.4 46.2 C 148.9 46.3 148.4 46.4 147.9 46.5 C 147.5 46.7 147.1 46.9 146.8 47.2 C 146.6 47.5 146.4 47.9 146.4 48.4 C 146.4 49.1 146.7 49.7 147.2 50 C 147.7 50.4 148.4 50.6 149.2 50.6 Z M 163.8 52.3 C 162.5 52.3 161.5 52 160.6 51.5 C 159.7 50.9 159 50.1 158.5 49.1 C 158.1 48 157.8 46.9 157.8 45.6 C 157.8 44.2 158.1 43.1 158.6 42 C 159.1 41 159.7 40.2 160.6 39.7 C 161.5 39.1 162.5 38.8 163.7 38.8 C 164.6 38.8 165.5 39 166.2 39.3 C 166.9 39.6 167.6 40.1 168 40.7 C 168.5 41.3 168.8 42.1 168.9 42.9 C 168.9 42.9 166.9 42.9 166.9 42.9 C 166.7 42.3 166.4 41.8 165.9 41.3 C 165.3 40.8 164.6 40.6 163.8 40.6 C 163 40.6 162.3 40.8 161.7 41.2 C 161.1 41.6 160.7 42.2 160.3 42.9 C 160 43.7 159.8 44.5 159.8 45.5 C 159.8 46.5 160 47.4 160.3 48.1 C 160.6 48.9 161.1 49.5 161.7 49.9 C 162.3 50.3 163 50.5 163.8 50.5 C 164.3 50.5 164.8 50.4 165.2 50.2 C 165.6 50.1 166 49.8 166.3 49.5 C 166.6 49.1 166.8 48.7 166.9 48.2 C 166.9 48.2 168.9 48.2 168.9 48.2 C 168.8 49 168.5 49.7 168.1 50.3 C 167.6 50.9 167 51.4 166.3 51.8 C 165.6 52.1 164.7 52.3 163.8 52.3 Z M 171.7 52.1 L 171.7 39 L 173.7 39 L 173.7 40.9 C 173.7 40.9 173.82 40.94 173.8 40.9 C 174.1 40.3 174.5 39.8 175.1 39.4 C 175.7 39 176.4 38.8 177.2 38.8 C 177.4 38.8 177.6 38.8 177.8 38.8 C 178 38.8 178.2 38.8 178.3 38.8 C 178.3 38.8 178.3 40.8 178.3 40.8 C 178.2 40.8 178.1 40.8 177.8 40.8 C 177.6 40.7 177.3 40.7 177.1 40.7 C 176.4 40.7 175.9 40.8 175.4 41.1 C 174.9 41.4 174.5 41.7 174.2 42.2 C 173.9 42.6 173.8 43.2 173.8 43.8 C 173.75 43.77 173.8 52.1 173.8 52.1 L 171.7 52.1 Z M 185.6 52.3 C 184.5 52.3 183.4 52 182.5 51.5 C 181.6 50.9 180.9 50.1 180.5 49.1 C 180 48.1 179.7 46.9 179.7 45.6 C 179.7 44.2 180 43 180.5 42 C 180.9 41 181.6 40.2 182.5 39.6 C 183.4 39.1 184.5 38.8 185.6 38.8 C 186.8 38.8 187.9 39.1 188.7 39.6 C 189.6 40.2 190.3 41 190.8 42 C 191.3 43 191.6 44.2 191.6 45.6 C 191.6 46.9 191.3 48.1 190.8 49.1 C 190.3 50.1 189.6 50.9 188.7 51.5 C 187.9 52 186.8 52.3 185.6 52.3 Z M 185.6 50.5 C 186.5 50.5 187.3 50.3 187.9 49.8 C 188.4 49.4 188.9 48.8 189.1 48 C 189.4 47.3 189.6 46.4 189.6 45.6 C 189.6 44.7 189.4 43.9 189.1 43.1 C 188.9 42.4 188.4 41.8 187.9 41.3 C 187.3 40.8 186.5 40.6 185.6 40.6 C 184.7 40.6 184 40.8 183.4 41.3 C 182.8 41.8 182.4 42.4 182.1 43.1 C 181.9 43.9 181.7 44.7 181.7 45.6 C 181.7 46.4 181.9 47.3 182.1 48 C 182.4 48.8 182.8 49.4 183.4 49.8 C 184 50.3 184.7 50.5 185.6 50.5 Z M 203.6 41.9 C 203.6 41.9 201.8 42.4 201.8 42.4 C 201.6 42.1 201.5 41.8 201.3 41.5 C 201 41.2 200.7 41 200.4 40.8 C 200 40.6 199.5 40.5 198.9 40.5 C 198.1 40.5 197.5 40.7 196.9 41.1 C 196.4 41.4 196.1 41.9 196.1 42.5 C 196.1 43 196.3 43.4 196.7 43.7 C 197 43.9 197.6 44.2 198.4 44.4 C 198.4 44.4 200.3 44.9 200.3 44.9 C 201.5 45.1 202.4 45.6 202.9 46.2 C 203.5 46.7 203.8 47.5 203.8 48.4 C 203.8 49.2 203.6 49.8 203.2 50.4 C 202.7 51 202.1 51.5 201.4 51.8 C 200.6 52.2 199.7 52.3 198.7 52.3 C 197.4 52.3 196.2 52 195.4 51.5 C 194.5 50.9 193.9 50 193.7 48.9 C 193.7 48.9 195.6 48.4 195.6 48.4 C 195.8 49.1 196.1 49.7 196.7 50 C 197.2 50.4 197.8 50.6 198.7 50.6 C 199.6 50.6 200.3 50.3 200.9 49.9 C 201.4 49.5 201.7 49.1 201.7 48.5 C 201.7 48.1 201.6 47.7 201.2 47.4 C 200.9 47 200.4 46.8 199.8 46.7 C 199.8 46.7 197.6 46.2 197.6 46.2 C 196.4 45.9 195.5 45.4 195 44.8 C 194.4 44.2 194.1 43.5 194.1 42.6 C 194.1 41.8 194.3 41.2 194.7 40.6 C 195.2 40 195.7 39.6 196.5 39.3 C 197.2 39 198 38.8 198.9 38.8 C 200.2 38.8 201.2 39.1 202 39.6 C 202.7 40.2 203.2 41 203.6 41.9 Z M 216 41.9 C 216 41.9 214.2 42.4 214.2 42.4 C 214.1 42.1 213.9 41.8 213.7 41.5 C 213.5 41.2 213.2 41 212.8 40.8 C 212.4 40.6 212 40.5 211.4 40.5 C 210.6 40.5 209.9 40.7 209.4 41.1 C 208.8 41.4 208.6 41.9 208.6 42.5 C 208.6 43 208.8 43.4 209.1 43.7 C 209.5 43.9 210 44.2 210.8 44.4 C 210.8 44.4 212.8 44.9 212.8 44.9 C 213.9 45.1 214.8 45.6 215.4 46.2 C 216 46.7 216.2 47.5 216.2 48.4 C 216.2 49.2 216 49.8 215.6 50.4 C 215.2 51 214.6 51.5 213.8 51.8 C 213 52.2 212.1 52.3 211.1 52.3 C 209.8 52.3 208.7 52 207.8 51.5 C 206.9 50.9 206.4 50 206.2 48.9 C 206.2 48.9 208.1 48.4 208.1 48.4 C 208.2 49.1 208.6 49.7 209.1 50 C 209.6 50.4 210.3 50.6 211.1 50.6 C 212 50.6 212.8 50.3 213.3 49.9 C 213.9 49.5 214.2 49.1 214.2 48.5 C 214.2 48.1 214 47.7 213.7 47.4 C 213.4 47 212.9 46.8 212.2 46.7 C 212.2 46.7 210 46.2 210 46.2 C 208.8 45.9 208 45.4 207.4 44.8 C 206.8 44.2 206.6 43.5 206.6 42.6 C 206.6 41.8 206.8 41.2 207.2 40.6 C 207.6 40 208.2 39.6 208.9 39.3 C 209.6 39 210.4 38.8 211.4 38.8 C 212.7 38.8 213.7 39.1 214.4 39.6 C 215.2 40.2 215.7 41 216 41.9 Z M 227.3 57 C 227 57 226.7 56.9 226.4 56.9 C 226.1 56.8 226 56.8 225.9 56.7 C 225.9 56.7 226.4 54.9 226.4 54.9 C 226.9 55.1 227.3 55.1 227.7 55.1 C 228 55.1 228.4 54.9 228.7 54.6 C 229 54.3 229.2 53.8 229.5 53.1 C 229.47 53.14 229.8 52.1 229.8 52.1 L 225 39 L 227.2 39 L 230.8 49.4 L 230.9 49.4 L 234.5 39 L 236.7 39 C 236.7 39 231.17 53.96 231.2 54 C 230.9 54.6 230.6 55.2 230.2 55.6 C 229.9 56.1 229.4 56.4 229 56.6 C 228.5 56.9 227.9 57 227.3 57 Z M 244 52.3 C 242.8 52.3 241.8 52 240.9 51.5 C 240 50.9 239.3 50.1 238.8 49.1 C 238.3 48.1 238 46.9 238 45.6 C 238 44.2 238.3 43 238.8 42 C 239.3 41 240 40.2 240.9 39.6 C 241.8 39.1 242.8 38.8 244 38.8 C 245.2 38.8 246.2 39.1 247.1 39.6 C 248 40.2 248.7 41 249.2 42 C 249.7 43 249.9 44.2 249.9 45.6 C 249.9 46.9 249.7 48.1 249.2 49.1 C 248.7 50.1 248 50.9 247.1 51.5 C 246.2 52 245.2 52.3 244 52.3 Z M 244 50.5 C 244.9 50.5 245.6 50.3 246.2 49.8 C 246.8 49.4 247.2 48.8 247.5 48 C 247.8 47.3 247.9 46.4 247.9 45.6 C 247.9 44.7 247.8 43.9 247.5 43.1 C 247.2 42.4 246.8 41.8 246.2 41.3 C 245.6 40.8 244.9 40.6 244 40.6 C 243.1 40.6 242.3 40.8 241.8 41.3 C 241.2 41.8 240.8 42.4 240.5 43.1 C 240.2 43.9 240.1 44.7 240.1 45.6 C 240.1 46.4 240.2 47.3 240.5 48 C 240.8 48.8 241.2 49.4 241.8 49.8 C 242.3 50.3 243.1 50.5 244 50.5 Z M 261.1 46.7 C 261.07 46.7 261.1 39 261.1 39 L 263.1 39 L 263.1 52.1 L 261.1 52.1 L 261.1 49.8 C 261.1 49.8 260.94 49.83 260.9 49.8 C 260.6 50.5 260.2 51.1 259.5 51.5 C 258.9 52 258 52.2 257 52.2 C 256.2 52.2 255.5 52 254.9 51.7 C 254.2 51.3 253.7 50.8 253.4 50 C 253 49.3 252.8 48.4 252.8 47.3 C 252.82 47.28 252.8 39 252.8 39 L 254.8 39 C 254.8 39 254.83 47.14 254.8 47.1 C 254.8 48.1 255.1 48.9 255.6 49.4 C 256.2 50 256.9 50.3 257.7 50.3 C 258.2 50.3 258.7 50.1 259.2 49.9 C 259.7 49.6 260.2 49.2 260.5 48.7 C 260.9 48.2 261.1 47.5 261.1 46.7 Z M 266.7 52.1 L 266.7 39 L 268.6 39 L 268.6 40.9 C 268.6 40.9 268.77 40.94 268.8 40.9 C 269 40.3 269.4 39.8 270.1 39.4 C 270.7 39 271.4 38.8 272.2 38.8 C 272.3 38.8 272.5 38.8 272.7 38.8 C 273 38.8 273.1 38.8 273.2 38.8 C 273.2 38.8 273.2 40.8 273.2 40.8 C 273.2 40.8 273 40.8 272.8 40.8 C 272.5 40.7 272.3 40.7 272 40.7 C 271.4 40.7 270.8 40.8 270.3 41.1 C 269.8 41.4 269.4 41.7 269.1 42.2 C 268.8 42.6 268.7 43.2 268.7 43.8 C 268.7 43.77 268.7 52.1 268.7 52.1 L 266.7 52.1 Z " stroke="none" fill="#ffffff"/>  </g>  <g id="Polygon107232">    <path d="M 14.1 5.8 L 16.5 5.8 L 21.3 13.9 L 21.5 13.9 L 26.4 5.8 L 28.8 5.8 L 22.5 16.1 L 22.5 23.3 L 20.4 23.3 L 20.4 16.1 L 14.1 5.8 Z M 34.4 23.5 C 33.2 23.5 32.2 23.2 31.3 22.7 C 30.4 22.1 29.7 21.3 29.2 20.3 C 28.7 19.3 28.5 18.1 28.5 16.8 C 28.5 15.4 28.7 14.2 29.2 13.2 C 29.7 12.2 30.4 11.4 31.3 10.8 C 32.2 10.3 33.2 10 34.4 10 C 35.6 10 36.6 10.3 37.5 10.8 C 38.4 11.4 39.1 12.2 39.6 13.2 C 40.1 14.2 40.3 15.4 40.3 16.8 C 40.3 18.1 40.1 19.3 39.6 20.3 C 39.1 21.3 38.4 22.1 37.5 22.7 C 36.6 23.2 35.6 23.5 34.4 23.5 Z M 34.4 21.7 C 35.3 21.7 36.1 21.5 36.6 21 C 37.2 20.6 37.6 20 37.9 19.2 C 38.2 18.5 38.3 17.6 38.3 16.8 C 38.3 15.9 38.2 15.1 37.9 14.3 C 37.6 13.6 37.2 13 36.6 12.5 C 36.1 12 35.3 11.8 34.4 11.8 C 33.5 11.8 32.8 12 32.2 12.5 C 31.6 13 31.2 13.6 30.9 14.3 C 30.6 15.1 30.5 15.9 30.5 16.8 C 30.5 17.6 30.6 18.5 30.9 19.2 C 31.2 20 31.6 20.6 32.2 21 C 32.8 21.5 33.5 21.7 34.4 21.7 Z M 51.5 17.9 C 51.51 17.9 51.5 10.2 51.5 10.2 L 53.5 10.2 L 53.5 23.3 L 51.5 23.3 L 51.5 21 C 51.5 21 51.38 21.03 51.4 21 C 51.1 21.7 50.6 22.3 49.9 22.7 C 49.3 23.2 48.5 23.4 47.5 23.4 C 46.7 23.4 45.9 23.2 45.3 22.9 C 44.7 22.5 44.2 22 43.8 21.2 C 43.4 20.5 43.3 19.6 43.3 18.5 C 43.26 18.48 43.3 10.2 43.3 10.2 L 45.3 10.2 C 45.3 10.2 45.27 18.34 45.3 18.3 C 45.3 19.3 45.5 20.1 46.1 20.6 C 46.6 21.2 47.3 21.5 48.1 21.5 C 48.6 21.5 49.1 21.3 49.7 21.1 C 50.2 20.8 50.6 20.4 51 19.9 C 51.3 19.4 51.5 18.7 51.5 17.9 Z M 57.1 23.3 L 57.1 10.2 L 59.1 10.2 L 59.1 12.1 C 59.1 12.1 59.21 12.14 59.2 12.1 C 59.5 11.5 59.9 11 60.5 10.6 C 61.1 10.2 61.8 10 62.6 10 C 62.8 10 63 10 63.2 10 C 63.4 10 63.6 10 63.7 10 C 63.7 10 63.7 12 63.7 12 C 63.6 12 63.5 12 63.2 12 C 63 11.9 62.7 11.9 62.5 11.9 C 61.8 11.9 61.2 12 60.8 12.3 C 60.3 12.6 59.9 12.9 59.6 13.4 C 59.3 13.8 59.1 14.4 59.1 15 C 59.14 14.97 59.1 23.3 59.1 23.3 L 57.1 23.3 Z M 78.1 28.4 C 77.1 28.4 76.3 28.3 75.6 28.1 C 74.9 27.8 74.3 27.5 73.9 27.1 C 73.4 26.7 73 26.3 72.7 25.8 C 72.7 25.8 74.3 24.7 74.3 24.7 C 74.5 24.9 74.8 25.2 75 25.5 C 75.3 25.8 75.7 26.1 76.2 26.3 C 76.7 26.5 77.3 26.7 78.1 26.7 C 79.2 26.7 80 26.4 80.7 25.9 C 81.4 25.4 81.7 24.6 81.7 23.5 C 81.75 23.49 81.7 20.8 81.7 20.8 C 81.7 20.8 81.58 20.83 81.6 20.8 C 81.4 21.1 81.2 21.4 80.9 21.7 C 80.7 22.1 80.3 22.4 79.8 22.6 C 79.3 22.9 78.6 23 77.8 23 C 76.7 23 75.8 22.8 74.9 22.3 C 74.1 21.8 73.4 21.1 72.9 20.1 C 72.4 19.2 72.2 18 72.2 16.6 C 72.2 15.3 72.4 14.1 72.9 13.1 C 73.4 12.1 74 11.4 74.9 10.8 C 75.7 10.3 76.7 10 77.8 10 C 78.6 10 79.3 10.1 79.8 10.4 C 80.3 10.7 80.7 11 81 11.4 C 81.3 11.7 81.5 12 81.6 12.2 C 81.61 12.24 81.8 12.2 81.8 12.2 L 81.8 10.2 L 83.8 10.2 C 83.8 10.2 83.76 23.63 83.8 23.6 C 83.8 24.8 83.5 25.7 83 26.4 C 82.5 27.1 81.8 27.6 80.9 27.9 C 80.1 28.3 79.1 28.4 78.1 28.4 Z M 78 21.2 C 78.8 21.2 79.5 21.1 80.1 20.7 C 80.6 20.3 81.1 19.8 81.3 19.1 C 81.6 18.4 81.8 17.6 81.8 16.6 C 81.8 15.7 81.6 14.8 81.4 14.1 C 81.1 13.4 80.6 12.8 80.1 12.4 C 79.5 12 78.8 11.8 78 11.8 C 77.2 11.8 76.5 12 75.9 12.4 C 75.3 12.9 74.9 13.5 74.6 14.2 C 74.4 14.9 74.2 15.7 74.2 16.6 C 74.2 17.5 74.4 18.3 74.6 19 C 74.9 19.7 75.4 20.3 75.9 20.6 C 76.5 21 77.2 21.2 78 21.2 Z M 95.6 17.9 C 95.58 17.9 95.6 10.2 95.6 10.2 L 97.6 10.2 L 97.6 23.3 L 95.6 23.3 L 95.6 21 C 95.6 21 95.45 21.03 95.4 21 C 95.1 21.7 94.7 22.3 94 22.7 C 93.4 23.2 92.5 23.4 91.6 23.4 C 90.7 23.4 90 23.2 89.4 22.9 C 88.7 22.5 88.2 22 87.9 21.2 C 87.5 20.5 87.3 19.6 87.3 18.5 C 87.33 18.48 87.3 10.2 87.3 10.2 L 89.3 10.2 C 89.3 10.2 89.34 18.34 89.3 18.3 C 89.3 19.3 89.6 20.1 90.1 20.6 C 90.7 21.2 91.4 21.5 92.2 21.5 C 92.7 21.5 93.2 21.3 93.7 21.1 C 94.3 20.8 94.7 20.4 95 19.9 C 95.4 19.4 95.6 18.7 95.6 17.9 Z M 101.2 23.3 L 101.2 10.2 L 103.2 10.2 L 103.2 23.3 L 101.2 23.3 Z M 102.2 8 C 101.8 8 101.5 7.8 101.2 7.6 C 100.9 7.3 100.8 7 100.8 6.6 C 100.8 6.2 100.9 5.9 101.2 5.7 C 101.5 5.4 101.8 5.3 102.2 5.3 C 102.6 5.3 103 5.4 103.2 5.7 C 103.5 5.9 103.7 6.2 103.7 6.6 C 103.7 7 103.5 7.3 103.2 7.6 C 103 7.8 102.6 8 102.2 8 Z M 111.7 23.5 C 110.6 23.5 109.6 23.2 108.8 22.7 C 108 22.1 107.3 21.4 106.9 20.3 C 106.4 19.3 106.1 18.1 106.1 16.7 C 106.1 15.4 106.4 14.2 106.9 13.2 C 107.3 12.1 108 11.4 108.8 10.8 C 109.7 10.3 110.6 10 111.7 10 C 112.6 10 113.3 10.1 113.8 10.4 C 114.3 10.7 114.6 11 114.9 11.4 C 115.2 11.7 115.4 12 115.5 12.2 C 115.52 12.24 115.7 12.2 115.7 12.2 L 115.7 5.8 L 117.7 5.8 L 117.7 23.3 L 115.8 23.3 L 115.8 21.2 C 115.8 21.2 115.52 21.24 115.5 21.2 C 115.4 21.5 115.2 21.8 114.9 22.1 C 114.6 22.5 114.2 22.8 113.7 23.1 C 113.2 23.4 112.5 23.5 111.7 23.5 Z M 112 21.7 C 112.8 21.7 113.5 21.5 114 21.1 C 114.6 20.7 115 20.1 115.3 19.3 C 115.6 18.6 115.7 17.7 115.7 16.7 C 115.7 15.7 115.6 14.9 115.3 14.1 C 115 13.4 114.6 12.8 114 12.4 C 113.5 12 112.8 11.8 112 11.8 C 111.1 11.8 110.4 12 109.8 12.4 C 109.3 12.9 108.9 13.5 108.6 14.2 C 108.3 15 108.2 15.8 108.2 16.7 C 108.2 17.6 108.3 18.5 108.6 19.2 C 108.9 20 109.3 20.6 109.9 21 C 110.4 21.5 111.1 21.7 112 21.7 Z M 126.9 23.5 C 125.7 23.5 124.6 23.2 123.7 22.7 C 122.7 22.1 122 21.3 121.6 20.3 C 121.1 19.3 120.8 18.1 120.8 16.8 C 120.8 15.5 121.1 14.3 121.6 13.3 C 122 12.2 122.7 11.4 123.6 10.9 C 124.5 10.3 125.5 10 126.7 10 C 127.4 10 128.1 10.1 128.7 10.3 C 129.4 10.6 130 10.9 130.6 11.4 C 131.1 11.9 131.5 12.6 131.9 13.4 C 132.2 14.3 132.3 15.3 132.3 16.5 C 132.34 16.53 132.3 17.4 132.3 17.4 L 122.2 17.4 L 122.2 15.6 C 122.2 15.6 130.29 15.65 130.3 15.6 C 130.3 14.9 130.1 14.3 129.9 13.7 C 129.6 13.1 129.1 12.6 128.6 12.3 C 128.1 12 127.4 11.8 126.7 11.8 C 125.9 11.8 125.2 12 124.6 12.4 C 124.1 12.8 123.6 13.3 123.3 13.9 C 123 14.6 122.8 15.2 122.8 16 C 122.8 16 122.8 17.1 122.8 17.1 C 122.8 18.1 123 18.9 123.3 19.6 C 123.7 20.3 124.2 20.8 124.8 21.2 C 125.4 21.5 126.1 21.7 126.9 21.7 C 127.4 21.7 127.9 21.6 128.4 21.5 C 128.8 21.3 129.2 21.1 129.5 20.8 C 129.8 20.5 130 20.1 130.2 19.7 C 130.2 19.7 132.1 20.2 132.1 20.2 C 131.9 20.9 131.6 21.5 131.1 22 C 130.6 22.4 130 22.8 129.3 23.1 C 128.6 23.4 127.8 23.5 126.9 23.5 Z M 147.9 10.2 L 147.9 11.9 L 141.1 11.9 L 141.1 10.2 L 147.9 10.2 Z M 143 7 L 145.1 7 C 145.1 7 145.06 19.5 145.1 19.5 C 145.1 20.1 145.1 20.5 145.3 20.8 C 145.5 21.1 145.7 21.2 146 21.3 C 146.2 21.4 146.5 21.5 146.8 21.5 C 147 21.5 147.2 21.5 147.3 21.4 C 147.5 21.4 147.6 21.4 147.7 21.4 C 147.7 21.4 148.1 23.2 148.1 23.2 C 148 23.2 147.8 23.3 147.5 23.3 C 147.3 23.4 147 23.4 146.6 23.4 C 146 23.4 145.5 23.3 144.9 23.1 C 144.4 22.8 143.9 22.4 143.6 21.9 C 143.2 21.4 143 20.8 143 20 C 143.04 20.05 143 7 143 7 Z M 155.5 23.5 C 154.3 23.5 153.2 23.2 152.3 22.7 C 151.5 22.1 150.8 21.3 150.3 20.3 C 149.8 19.3 149.5 18.1 149.5 16.8 C 149.5 15.4 149.8 14.2 150.3 13.2 C 150.8 12.2 151.5 11.4 152.3 10.8 C 153.2 10.3 154.3 10 155.5 10 C 156.6 10 157.7 10.3 158.6 10.8 C 159.4 11.4 160.1 12.2 160.6 13.2 C 161.1 14.2 161.4 15.4 161.4 16.8 C 161.4 18.1 161.1 19.3 160.6 20.3 C 160.1 21.3 159.4 22.1 158.6 22.7 C 157.7 23.2 156.6 23.5 155.5 23.5 Z M 155.5 21.7 C 156.3 21.7 157.1 21.5 157.7 21 C 158.2 20.6 158.7 20 159 19.2 C 159.2 18.5 159.4 17.6 159.4 16.8 C 159.4 15.9 159.2 15.1 159 14.3 C 158.7 13.6 158.2 13 157.7 12.5 C 157.1 12 156.3 11.8 155.5 11.8 C 154.6 11.8 153.8 12 153.2 12.5 C 152.7 13 152.2 13.6 151.9 14.3 C 151.7 15.1 151.5 15.9 151.5 16.8 C 151.5 17.6 151.7 18.5 151.9 19.2 C 152.2 20 152.7 20.6 153.2 21 C 153.8 21.5 154.6 21.7 155.5 21.7 Z M 176.5 23.5 C 175.3 23.5 174.3 23.2 173.4 22.7 C 172.5 22.1 171.8 21.3 171.3 20.3 C 170.8 19.3 170.6 18.1 170.6 16.8 C 170.6 15.4 170.8 14.2 171.3 13.2 C 171.8 12.2 172.5 11.4 173.4 10.8 C 174.3 10.3 175.3 10 176.5 10 C 177.7 10 178.7 10.3 179.6 10.8 C 180.5 11.4 181.2 12.2 181.7 13.2 C 182.2 14.2 182.5 15.4 182.5 16.8 C 182.5 18.1 182.2 19.3 181.7 20.3 C 181.2 21.3 180.5 22.1 179.6 22.7 C 178.7 23.2 177.7 23.5 176.5 23.5 Z M 176.5 21.7 C 177.4 21.7 178.2 21.5 178.7 21 C 179.3 20.6 179.7 20 180 19.2 C 180.3 18.5 180.4 17.6 180.4 16.8 C 180.4 15.9 180.3 15.1 180 14.3 C 179.7 13.6 179.3 13 178.7 12.5 C 178.2 12 177.4 11.8 176.5 11.8 C 175.6 11.8 174.9 12 174.3 12.5 C 173.7 13 173.3 13.6 173 14.3 C 172.7 15.1 172.6 15.9 172.6 16.8 C 172.6 17.6 172.7 18.5 173 19.2 C 173.3 20 173.7 20.6 174.3 21 C 174.9 21.5 175.6 21.7 176.5 21.7 Z M 185.4 28.2 L 185.4 10.2 L 187.4 10.2 L 187.4 12.2 C 187.4 12.2 187.63 12.24 187.6 12.2 C 187.8 12 188 11.7 188.2 11.4 C 188.5 11 188.9 10.7 189.4 10.4 C 189.9 10.1 190.6 10 191.4 10 C 192.5 10 193.5 10.3 194.3 10.8 C 195.2 11.4 195.8 12.1 196.3 13.2 C 196.8 14.2 197 15.4 197 16.7 C 197 18.1 196.8 19.3 196.3 20.3 C 195.8 21.4 195.2 22.1 194.3 22.7 C 193.5 23.2 192.5 23.5 191.4 23.5 C 190.6 23.5 189.9 23.4 189.4 23.1 C 188.9 22.8 188.5 22.5 188.3 22.1 C 188 21.8 187.8 21.5 187.6 21.2 C 187.63 21.24 187.5 21.2 187.5 21.2 L 187.5 28.2 L 185.4 28.2 Z M 187.4 16.7 C 187.4 17.7 187.6 18.6 187.9 19.3 C 188.1 20.1 188.6 20.7 189.1 21.1 C 189.7 21.5 190.4 21.7 191.2 21.7 C 192 21.7 192.7 21.5 193.3 21 C 193.8 20.6 194.3 20 194.6 19.2 C 194.8 18.5 195 17.6 195 16.7 C 195 15.8 194.9 15 194.6 14.2 C 194.3 13.5 193.9 12.9 193.3 12.4 C 192.7 12 192 11.8 191.2 11.8 C 190.4 11.8 189.7 12 189.1 12.4 C 188.6 12.8 188.1 13.4 187.8 14.1 C 187.6 14.9 187.4 15.7 187.4 16.7 Z M 205.3 10.2 L 205.3 11.9 L 198.5 11.9 L 198.5 10.2 L 205.3 10.2 Z M 200.5 7 L 202.5 7 C 202.5 7 202.48 19.5 202.5 19.5 C 202.5 20.1 202.6 20.5 202.7 20.8 C 202.9 21.1 203.1 21.2 203.4 21.3 C 203.6 21.4 203.9 21.5 204.2 21.5 C 204.4 21.5 204.6 21.5 204.8 21.4 C 204.9 21.4 205 21.4 205.1 21.4 C 205.1 21.4 205.5 23.2 205.5 23.2 C 205.4 23.2 205.2 23.3 204.9 23.3 C 204.7 23.4 204.4 23.4 204 23.4 C 203.4 23.4 202.9 23.3 202.3 23.1 C 201.8 22.8 201.4 22.4 201 21.9 C 200.6 21.4 200.5 20.8 200.5 20 C 200.47 20.05 200.5 7 200.5 7 Z M 208 23.3 L 208 10.2 L 210 10.2 L 210 23.3 L 208 23.3 Z M 209.1 8 C 208.7 8 208.3 7.8 208 7.6 C 207.8 7.3 207.6 7 207.6 6.6 C 207.6 6.2 207.8 5.9 208 5.7 C 208.3 5.4 208.7 5.3 209.1 5.3 C 209.4 5.3 209.8 5.4 210.1 5.7 C 210.3 5.9 210.5 6.2 210.5 6.6 C 210.5 7 210.3 7.3 210.1 7.6 C 209.8 7.8 209.4 8 209.1 8 Z M 213.7 23.3 L 213.7 10.2 L 215.6 10.2 L 215.6 12.2 C 215.6 12.2 215.78 12.2 215.8 12.2 C 216 11.5 216.5 11 217.1 10.6 C 217.7 10.2 218.4 10 219.3 10 C 220.2 10 220.9 10.2 221.4 10.6 C 222 11 222.5 11.5 222.8 12.2 C 222.8 12.2 222.9 12.2 222.9 12.2 C 223.3 11.5 223.8 11 224.4 10.6 C 225.1 10.2 225.9 10 226.9 10 C 228 10 229 10.4 229.7 11.1 C 230.5 11.8 230.8 12.9 230.8 14.5 C 230.84 14.49 230.8 23.3 230.8 23.3 L 228.8 23.3 C 228.8 23.3 228.83 14.49 228.8 14.5 C 228.8 13.5 228.6 12.8 228 12.4 C 227.5 12 226.9 11.8 226.2 11.8 C 225.3 11.8 224.5 12.1 224 12.6 C 223.5 13.2 223.3 13.9 223.3 14.7 C 223.28 14.73 223.3 23.3 223.3 23.3 L 221.2 23.3 C 221.2 23.3 221.23 14.28 221.2 14.3 C 221.2 13.5 221 12.9 220.5 12.5 C 220 12 219.4 11.8 218.6 11.8 C 218.1 11.8 217.6 11.9 217.2 12.2 C 216.7 12.5 216.4 12.9 216.1 13.4 C 215.8 13.9 215.7 14.4 215.7 15.1 C 215.67 15.07 215.7 23.3 215.7 23.3 L 213.7 23.3 Z M 234.4 23.3 L 234.4 10.2 L 236.4 10.2 L 236.4 23.3 L 234.4 23.3 Z M 235.4 8 C 235 8 234.7 7.8 234.4 7.6 C 234.1 7.3 234 7 234 6.6 C 234 6.2 234.1 5.9 234.4 5.7 C 234.7 5.4 235 5.3 235.4 5.3 C 235.8 5.3 236.1 5.4 236.4 5.7 C 236.7 5.9 236.8 6.2 236.8 6.6 C 236.8 7 236.7 7.3 236.4 7.6 C 236.1 7.8 235.8 8 235.4 8 Z M 239.2 23.3 L 239.2 21.7 L 246.6 12.2 L 246.6 12 L 239.4 12 L 239.4 10.2 L 249.2 10.2 L 249.2 11.8 L 242 21.2 L 242 21.4 L 249.4 21.4 L 249.4 23.3 L 239.2 23.3 Z M 252.1 23.3 L 252.1 10.2 L 254.1 10.2 L 254.1 23.3 L 252.1 23.3 Z M 253.1 8 C 252.7 8 252.4 7.8 252.1 7.6 C 251.8 7.3 251.7 7 251.7 6.6 C 251.7 6.2 251.8 5.9 252.1 5.7 C 252.4 5.4 252.7 5.3 253.1 5.3 C 253.5 5.3 253.8 5.4 254.1 5.7 C 254.4 5.9 254.5 6.2 254.5 6.6 C 254.5 7 254.4 7.3 254.1 7.6 C 253.8 7.8 253.5 8 253.1 8 Z M 259.7 15.4 C 259.74 15.38 259.7 23.3 259.7 23.3 L 257.7 23.3 L 257.7 10.2 L 259.7 10.2 L 259.7 12.2 C 259.7 12.2 259.84 12.2 259.8 12.2 C 260.1 11.5 260.6 11 261.2 10.6 C 261.9 10.2 262.7 10 263.7 10 C 264.5 10 265.3 10.2 266 10.5 C 266.7 10.9 267.2 11.4 267.5 12.2 C 267.9 12.9 268.1 13.8 268.1 14.9 C 268.09 14.93 268.1 23.3 268.1 23.3 L 266.1 23.3 C 266.1 23.3 266.08 15.07 266.1 15.1 C 266.1 14 265.8 13.2 265.3 12.7 C 264.7 12.1 264 11.8 263.1 11.8 C 262.4 11.8 261.9 11.9 261.4 12.2 C 260.9 12.5 260.5 12.9 260.2 13.4 C 259.9 14 259.7 14.6 259.7 15.4 Z M 276.9 28.4 C 275.9 28.4 275.1 28.3 274.4 28.1 C 273.7 27.8 273.1 27.5 272.6 27.1 C 272.2 26.7 271.8 26.3 271.5 25.8 C 271.5 25.8 273.1 24.7 273.1 24.7 C 273.3 24.9 273.6 25.2 273.8 25.5 C 274.1 25.8 274.5 26.1 275 26.3 C 275.5 26.5 276.1 26.7 276.9 26.7 C 277.9 26.7 278.8 26.4 279.5 25.9 C 280.2 25.4 280.5 24.6 280.5 23.5 C 280.54 23.49 280.5 20.8 280.5 20.8 C 280.5 20.8 280.37 20.83 280.4 20.8 C 280.2 21.1 280 21.4 279.7 21.7 C 279.5 22.1 279.1 22.4 278.6 22.6 C 278.1 22.9 277.4 23 276.6 23 C 275.5 23 274.5 22.8 273.7 22.3 C 272.9 21.8 272.2 21.1 271.7 20.1 C 271.2 19.2 271 18 271 16.6 C 271 15.3 271.2 14.1 271.7 13.1 C 272.2 12.1 272.8 11.4 273.7 10.8 C 274.5 10.3 275.5 10 276.6 10 C 277.4 10 278.1 10.1 278.6 10.4 C 279.1 10.7 279.5 11 279.8 11.4 C 280 11.7 280.3 12 280.4 12.2 C 280.4 12.24 280.6 12.2 280.6 12.2 L 280.6 10.2 L 282.6 10.2 C 282.6 10.2 282.55 23.63 282.6 23.6 C 282.6 24.8 282.3 25.7 281.8 26.4 C 281.3 27.1 280.6 27.6 279.7 27.9 C 278.9 28.3 277.9 28.4 276.9 28.4 Z M 276.8 21.2 C 277.6 21.2 278.3 21.1 278.9 20.7 C 279.4 20.3 279.8 19.8 280.1 19.1 C 280.4 18.4 280.6 17.6 280.6 16.6 C 280.6 15.7 280.4 14.8 280.1 14.1 C 279.9 13.4 279.4 12.8 278.9 12.4 C 278.3 12 277.6 11.8 276.8 11.8 C 276 11.8 275.3 12 274.7 12.4 C 274.1 12.9 273.7 13.5 273.4 14.2 C 273.1 14.9 273 15.7 273 16.6 C 273 17.5 273.1 18.3 273.4 19 C 273.7 19.7 274.1 20.3 274.7 20.6 C 275.3 21 276 21.2 276.8 21.2 Z " stroke="none" fill="#ffffff"/>  </g></svg>