<?xml version="1.0" standalone="no"?><!DOCTYPE svg PUBLIC "-//W3C//DTD SVG 1.1//EN" "http://www.w3.org/Graphics/SVG/1.1/DTD/svg11.dtd"><svg xmlns="http://www.w3.org/2000/svg" version="1.1" width="275px" height="34.8px" viewBox="0 -8 275 34.8" style="top:-8px">  <desc>Download as PDF</desc>  <defs/>  <g id="Polygon106216">    <path d="M 6.4 14.5 C 6.42 14.55 1.3 14.5 1.3 14.5 L 1.3 0 C 1.3 0 6.46 0 6.5 0 C 7.9 0 9.2 0.3 10.2 0.9 C 11.3 1.5 12.1 2.3 12.7 3.4 C 13.3 4.5 13.5 5.7 13.5 7.3 C 13.5 8.8 13.3 10.1 12.7 11.2 C 12.1 12.3 11.3 13.1 10.2 13.7 C 9.2 14.3 7.9 14.5 6.4 14.5 Z M 4.3 11.9 C 4.3 11.9 6.29 11.91 6.3 11.9 C 7.2 11.9 8 11.7 8.6 11.4 C 9.2 11.1 9.7 10.6 10 9.9 C 10.3 9.2 10.5 8.3 10.5 7.3 C 10.5 6.2 10.3 5.3 10 4.6 C 9.7 3.9 9.2 3.4 8.6 3.1 C 8 2.8 7.2 2.6 6.3 2.6 C 6.3 2.63 4.3 2.6 4.3 2.6 L 4.3 11.9 Z M 20.7 14.8 C 19.6 14.8 18.6 14.5 17.8 14.1 C 17 13.6 16.4 12.9 16 12.1 C 15.5 11.2 15.3 10.3 15.3 9.1 C 15.3 8 15.5 7 16 6.2 C 16.4 5.3 17 4.7 17.8 4.2 C 18.6 3.7 19.6 3.5 20.7 3.5 C 21.8 3.5 22.7 3.7 23.5 4.2 C 24.3 4.7 25 5.3 25.4 6.2 C 25.8 7 26 8 26 9.1 C 26 10.3 25.8 11.2 25.4 12.1 C 25 12.9 24.3 13.6 23.5 14.1 C 22.7 14.5 21.8 14.8 20.7 14.8 Z M 20.7 12.4 C 21.2 12.4 21.6 12.3 21.9 12 C 22.3 11.7 22.5 11.3 22.7 10.8 C 22.9 10.3 23 9.7 23 9.1 C 23 8.5 22.9 7.9 22.7 7.4 C 22.5 6.9 22.3 6.5 21.9 6.2 C 21.6 5.9 21.2 5.8 20.7 5.8 C 20.2 5.8 19.8 5.9 19.4 6.2 C 19.1 6.5 18.8 6.9 18.6 7.4 C 18.5 7.9 18.4 8.5 18.4 9.1 C 18.4 9.7 18.5 10.3 18.6 10.8 C 18.8 11.3 19.1 11.7 19.4 12 C 19.8 12.3 20.2 12.4 20.7 12.4 Z M 29.8 14.5 L 26.8 3.6 L 29.9 3.6 L 31.6 11 L 31.7 11 L 33.4 3.6 L 36.4 3.6 L 38.2 10.9 L 38.3 10.9 L 40 3.6 L 43 3.6 L 40.1 14.5 L 36.9 14.5 L 35 7.7 L 34.9 7.7 L 33 14.5 L 29.8 14.5 Z M 47.6 8.2 C 47.58 8.24 47.6 14.5 47.6 14.5 L 44.5 14.5 L 44.5 3.6 L 47.4 3.6 L 47.4 5.6 C 47.4 5.6 47.56 5.56 47.6 5.6 C 47.8 4.9 48.2 4.4 48.8 4.1 C 49.3 3.7 50 3.5 50.8 3.5 C 51.6 3.5 52.3 3.7 52.8 4 C 53.4 4.3 53.8 4.8 54.1 5.4 C 54.5 6 54.6 6.8 54.6 7.6 C 54.61 7.6 54.6 14.5 54.6 14.5 L 51.6 14.5 C 51.6 14.5 51.58 8.14 51.6 8.1 C 51.6 7.5 51.4 6.9 51.1 6.6 C 50.7 6.2 50.2 6 49.6 6 C 49.2 6 48.9 6.1 48.6 6.3 C 48.3 6.4 48 6.7 47.8 7 C 47.7 7.4 47.6 7.8 47.6 8.2 Z M 60.1 0 L 60.1 14.5 L 57.1 14.5 L 57.1 0 L 60.1 0 Z M 67.5 14.8 C 66.4 14.8 65.4 14.5 64.6 14.1 C 63.8 13.6 63.2 12.9 62.8 12.1 C 62.3 11.2 62.1 10.3 62.1 9.1 C 62.1 8 62.3 7 62.8 6.2 C 63.2 5.3 63.8 4.7 64.6 4.2 C 65.4 3.7 66.4 3.5 67.5 3.5 C 68.6 3.5 69.5 3.7 70.3 4.2 C 71.1 4.7 71.8 5.3 72.2 6.2 C 72.6 7 72.9 8 72.9 9.1 C 72.9 10.3 72.6 11.2 72.2 12.1 C 71.8 12.9 71.1 13.6 70.3 14.1 C 69.5 14.5 68.6 14.8 67.5 14.8 Z M 67.5 12.4 C 68 12.4 68.4 12.3 68.8 12 C 69.1 11.7 69.3 11.3 69.5 10.8 C 69.7 10.3 69.8 9.7 69.8 9.1 C 69.8 8.5 69.7 7.9 69.5 7.4 C 69.3 6.9 69.1 6.5 68.8 6.2 C 68.4 5.9 68 5.8 67.5 5.8 C 67 5.8 66.6 5.9 66.2 6.2 C 65.9 6.5 65.6 6.9 65.4 7.4 C 65.3 7.9 65.2 8.5 65.2 9.1 C 65.2 9.7 65.3 10.3 65.4 10.8 C 65.6 11.3 65.9 11.7 66.2 12 C 66.6 12.3 67 12.4 67.5 12.4 Z M 77.8 14.8 C 77.1 14.8 76.5 14.6 76 14.4 C 75.4 14.1 75 13.8 74.7 13.3 C 74.4 12.8 74.2 12.2 74.2 11.5 C 74.2 10.9 74.3 10.4 74.5 10 C 74.8 9.6 75.1 9.2 75.5 9 C 75.8 8.7 76.3 8.5 76.8 8.4 C 77.3 8.3 77.8 8.2 78.3 8.1 C 78.9 8.1 79.5 8 79.8 8 C 80.2 7.9 80.5 7.8 80.7 7.7 C 80.9 7.6 80.9 7.4 80.9 7.2 C 80.9 7.2 80.9 7.1 80.9 7.1 C 80.9 6.7 80.8 6.3 80.5 6.1 C 80.2 5.8 79.8 5.7 79.3 5.7 C 78.8 5.7 78.4 5.8 78 6.1 C 77.7 6.3 77.5 6.6 77.4 7 C 77.4 7 74.6 6.7 74.6 6.7 C 74.7 6.1 75 5.5 75.4 5 C 75.8 4.5 76.4 4.2 77 3.9 C 77.7 3.6 78.5 3.5 79.3 3.5 C 80 3.5 80.5 3.6 81.1 3.7 C 81.6 3.8 82.1 4.1 82.6 4.4 C 83 4.7 83.3 5 83.6 5.5 C 83.8 6 84 6.5 84 7.2 C 83.97 7.19 84 14.5 84 14.5 L 81.1 14.5 L 81.1 13 C 81.1 13 81.02 13.03 81 13 C 80.8 13.4 80.6 13.7 80.3 13.9 C 80 14.2 79.7 14.4 79.3 14.5 C 78.8 14.7 78.4 14.8 77.8 14.8 Z M 78.7 12.7 C 79.1 12.7 79.5 12.6 79.9 12.4 C 80.2 12.2 80.5 12 80.7 11.7 C 80.9 11.4 81 11 81 10.6 C 81 10.6 81 9.5 81 9.5 C 80.9 9.6 80.7 9.6 80.6 9.7 C 80.4 9.7 80.2 9.8 80 9.8 C 79.8 9.8 79.6 9.9 79.4 9.9 C 79.2 9.9 79 10 78.9 10 C 78.5 10 78.2 10.1 77.9 10.2 C 77.7 10.3 77.5 10.5 77.3 10.7 C 77.2 10.9 77.1 11.1 77.1 11.4 C 77.1 11.8 77.3 12.1 77.6 12.3 C 77.9 12.6 78.2 12.7 78.7 12.7 Z M 90.4 14.7 C 89.5 14.7 88.8 14.5 88.1 14.1 C 87.5 13.7 86.9 13 86.5 12.2 C 86.1 11.3 86 10.3 86 9.1 C 86 7.9 86.2 6.8 86.6 6 C 87 5.2 87.5 4.5 88.2 4.1 C 88.8 3.7 89.6 3.5 90.4 3.5 C 91 3.5 91.5 3.6 91.9 3.8 C 92.3 4 92.6 4.3 92.9 4.6 C 93.1 4.9 93.3 5.2 93.5 5.5 C 93.47 5.47 93.6 5.5 93.6 5.5 L 93.6 0 L 96.6 0 L 96.6 14.5 L 93.6 14.5 L 93.6 12.8 C 93.6 12.8 93.47 12.8 93.5 12.8 C 93.3 13.1 93.1 13.4 92.9 13.7 C 92.6 14 92.3 14.2 91.9 14.4 C 91.5 14.6 91 14.7 90.4 14.7 Z M 91.3 12.3 C 91.8 12.3 92.2 12.2 92.6 11.9 C 92.9 11.6 93.2 11.3 93.4 10.8 C 93.5 10.3 93.6 9.7 93.6 9.1 C 93.6 8.4 93.5 7.9 93.4 7.4 C 93.2 6.9 92.9 6.6 92.6 6.3 C 92.2 6 91.8 5.9 91.3 5.9 C 90.8 5.9 90.4 6 90.1 6.3 C 89.7 6.6 89.5 7 89.3 7.4 C 89.1 7.9 89 8.5 89 9.1 C 89 9.7 89.1 10.3 89.3 10.8 C 89.5 11.3 89.7 11.6 90.1 11.9 C 90.4 12.2 90.8 12.3 91.3 12.3 Z M 106.8 14.8 C 106.1 14.8 105.5 14.6 104.9 14.4 C 104.4 14.1 104 13.8 103.7 13.3 C 103.3 12.8 103.2 12.2 103.2 11.5 C 103.2 10.9 103.3 10.4 103.5 10 C 103.7 9.6 104 9.2 104.4 9 C 104.8 8.7 105.3 8.5 105.7 8.4 C 106.2 8.3 106.7 8.2 107.3 8.1 C 107.9 8.1 108.4 8 108.8 8 C 109.2 7.9 109.5 7.8 109.7 7.7 C 109.8 7.6 109.9 7.4 109.9 7.2 C 109.9 7.2 109.9 7.1 109.9 7.1 C 109.9 6.7 109.8 6.3 109.5 6.1 C 109.2 5.8 108.8 5.7 108.3 5.7 C 107.8 5.7 107.3 5.8 107 6.1 C 106.7 6.3 106.5 6.6 106.4 7 C 106.4 7 103.6 6.7 103.6 6.7 C 103.7 6.1 104 5.5 104.4 5 C 104.8 4.5 105.4 4.2 106 3.9 C 106.7 3.6 107.5 3.5 108.3 3.5 C 108.9 3.5 109.5 3.6 110.1 3.7 C 110.6 3.8 111.1 4.1 111.6 4.4 C 112 4.7 112.3 5 112.6 5.5 C 112.8 6 113 6.5 113 7.2 C 112.95 7.19 113 14.5 113 14.5 L 110.1 14.5 L 110.1 13 C 110.1 13 110 13.03 110 13 C 109.8 13.4 109.6 13.7 109.3 13.9 C 109 14.2 108.6 14.4 108.2 14.5 C 107.8 14.7 107.3 14.8 106.8 14.8 Z M 107.7 12.7 C 108.1 12.7 108.5 12.6 108.9 12.4 C 109.2 12.2 109.5 12 109.7 11.7 C 109.9 11.4 109.9 11 109.9 10.6 C 109.9 10.6 109.9 9.5 109.9 9.5 C 109.9 9.6 109.7 9.6 109.6 9.7 C 109.4 9.7 109.2 9.8 109 9.8 C 108.8 9.8 108.6 9.9 108.4 9.9 C 108.2 9.9 108 10 107.8 10 C 107.5 10 107.2 10.1 106.9 10.2 C 106.7 10.3 106.4 10.5 106.3 10.7 C 106.2 10.9 106.1 11.1 106.1 11.4 C 106.1 11.8 106.2 12.1 106.5 12.3 C 106.8 12.6 107.2 12.7 107.7 12.7 Z M 124.3 6.7 C 124.3 6.7 121.6 6.9 121.6 6.9 C 121.5 6.7 121.4 6.5 121.3 6.3 C 121.1 6.1 120.9 5.9 120.6 5.8 C 120.4 5.7 120.1 5.6 119.7 5.6 C 119.3 5.6 118.9 5.7 118.6 5.9 C 118.2 6.1 118.1 6.4 118.1 6.7 C 118.1 7 118.2 7.2 118.4 7.4 C 118.6 7.6 119 7.7 119.5 7.8 C 119.5 7.8 121.4 8.2 121.4 8.2 C 122.5 8.4 123.3 8.8 123.8 9.3 C 124.3 9.7 124.6 10.4 124.6 11.2 C 124.6 11.9 124.4 12.5 124 13 C 123.5 13.6 123 14 122.2 14.3 C 121.5 14.6 120.7 14.8 119.7 14.8 C 118.3 14.8 117.1 14.5 116.3 13.9 C 115.4 13.2 114.9 12.4 114.8 11.4 C 114.8 11.4 117.8 11.2 117.8 11.2 C 117.8 11.7 118.1 12 118.4 12.2 C 118.8 12.5 119.2 12.6 119.7 12.6 C 120.3 12.6 120.7 12.5 121 12.3 C 121.3 12.1 121.5 11.8 121.5 11.5 C 121.5 11.2 121.4 11 121.2 10.8 C 120.9 10.6 120.6 10.5 120.1 10.4 C 120.1 10.4 118.2 10 118.2 10 C 117.2 9.8 116.4 9.4 115.8 8.9 C 115.3 8.4 115.1 7.7 115.1 6.9 C 115.1 6.2 115.3 5.6 115.6 5.1 C 116 4.6 116.6 4.2 117.3 3.9 C 117.9 3.6 118.8 3.5 119.7 3.5 C 121.1 3.5 122.2 3.8 122.9 4.4 C 123.7 5 124.2 5.7 124.3 6.7 Z M 131.2 14.5 L 131.2 0 C 131.2 0 136.93 0 136.9 0 C 138 0 139 0.2 139.8 0.6 C 140.5 1 141.1 1.6 141.5 2.4 C 141.9 3.1 142.1 4 142.1 4.9 C 142.1 5.9 141.9 6.7 141.5 7.5 C 141.1 8.2 140.5 8.8 139.7 9.2 C 138.9 9.6 138 9.8 136.9 9.8 C 136.85 9.83 133.2 9.8 133.2 9.8 L 133.2 7.4 C 133.2 7.4 136.36 7.37 136.4 7.4 C 136.9 7.4 137.4 7.3 137.8 7.1 C 138.2 6.9 138.5 6.6 138.7 6.2 C 138.9 5.8 139 5.4 139 4.9 C 139 4.4 138.9 4 138.7 3.7 C 138.5 3.3 138.2 3 137.8 2.8 C 137.4 2.6 136.9 2.5 136.3 2.5 C 136.34 2.51 134.3 2.5 134.3 2.5 L 134.3 14.5 L 131.2 14.5 Z M 149.2 14.5 C 149.25 14.55 144.1 14.5 144.1 14.5 L 144.1 0 C 144.1 0 149.29 0 149.3 0 C 150.8 0 152 0.3 153.1 0.9 C 154.1 1.5 154.9 2.3 155.5 3.4 C 156.1 4.5 156.4 5.7 156.4 7.3 C 156.4 8.8 156.1 10.1 155.5 11.2 C 154.9 12.3 154.1 13.1 153.1 13.7 C 152 14.3 150.7 14.5 149.2 14.5 Z M 147.2 11.9 C 147.2 11.9 149.12 11.91 149.1 11.9 C 150 11.9 150.8 11.7 151.4 11.4 C 152 11.1 152.5 10.6 152.8 9.9 C 153.1 9.2 153.3 8.3 153.3 7.3 C 153.3 6.2 153.1 5.3 152.8 4.6 C 152.5 3.9 152 3.4 151.4 3.1 C 150.8 2.8 150 2.6 149.1 2.6 C 149.13 2.63 147.2 2.6 147.2 2.6 L 147.2 11.9 Z M 158.8 14.5 L 158.8 0 L 168.4 0 L 168.4 2.5 L 161.8 2.5 L 161.8 6 L 167.8 6 L 167.8 8.5 L 161.8 8.5 L 161.8 14.5 L 158.8 14.5 Z " stroke="none" fill="#ffffff"/>  </g></svg>