<?xml version="1.0" standalone="no"?><!DOCTYPE svg PUBLIC "-//W3C//DTD SVG 1.1//EN" "http://www.w3.org/Graphics/SVG/1.1/DTD/svg11.dtd"><svg xmlns="http://www.w3.org/2000/svg" version="1.1" width="61px" height="18.4px" viewBox="0 -5 61 18.4" style="top:-5px">  <desc>2 / 19</desc>  <defs/>  <g id="Polygon108539">    <path d="M 18.1 7.3 L 18.1 6.6 C 18.1 6.6 20.53 4.01 20.5 4 C 20.8 3.7 21 3.4 21.2 3.2 C 21.4 3 21.5 2.8 21.6 2.6 C 21.7 2.4 21.8 2.1 21.8 1.9 C 21.8 1.7 21.7 1.4 21.6 1.3 C 21.5 1.1 21.3 0.9 21.1 0.8 C 20.9 0.7 20.6 0.7 20.4 0.7 C 20.1 0.7 19.8 0.7 19.6 0.8 C 19.4 1 19.3 1.1 19.2 1.3 C 19 1.5 19 1.8 19 2 C 19 2 18.2 2 18.2 2 C 18.2 1.6 18.3 1.2 18.4 0.9 C 18.6 0.6 18.9 0.4 19.3 0.2 C 19.6 0 20 -0.1 20.4 -0.1 C 20.8 -0.1 21.2 0 21.5 0.2 C 21.9 0.4 22.1 0.6 22.3 0.9 C 22.5 1.2 22.6 1.5 22.6 1.9 C 22.6 2.2 22.5 2.4 22.4 2.7 C 22.3 3 22.2 3.2 21.9 3.5 C 21.7 3.9 21.4 4.2 21 4.7 C 20.97 4.69 19.3 6.4 19.3 6.4 L 19.3 6.5 L 22.7 6.5 L 22.7 7.3 L 18.1 7.3 Z M 29.6 -0.3 L 27.2 8.4 L 26.5 8.4 L 28.8 -0.3 L 29.6 -0.3 Z M 35.9 0 L 35.9 7.3 L 35 7.3 L 35 0.9 L 35 0.9 L 33.2 2.1 L 33.2 1.2 L 35 0 L 35.9 0 Z M 40.2 -0.1 C 40.5 -0.1 40.8 0 41.1 0.1 C 41.4 0.2 41.7 0.4 41.9 0.6 C 42.2 0.9 42.4 1.2 42.5 1.7 C 42.7 2.1 42.8 2.7 42.8 3.3 C 42.8 4 42.7 4.6 42.6 5.1 C 42.5 5.6 42.3 6 42.1 6.3 C 41.8 6.7 41.5 6.9 41.2 7.1 C 40.9 7.3 40.5 7.4 40.1 7.4 C 39.7 7.4 39.4 7.3 39 7.1 C 38.7 7 38.5 6.7 38.3 6.5 C 38 6.2 37.9 5.8 37.9 5.4 C 37.9 5.4 38.7 5.4 38.7 5.4 C 38.8 5.8 39 6 39.2 6.3 C 39.4 6.5 39.7 6.6 40.1 6.6 C 40.7 6.6 41.1 6.3 41.5 5.9 C 41.8 5.4 41.9 4.7 41.9 3.8 C 41.9 3.8 41.9 3.8 41.9 3.8 C 41.7 4 41.6 4.1 41.4 4.3 C 41.2 4.4 41 4.5 40.8 4.6 C 40.6 4.7 40.3 4.7 40.1 4.7 C 39.7 4.7 39.3 4.6 38.9 4.4 C 38.6 4.2 38.3 3.9 38.1 3.6 C 37.9 3.2 37.8 2.8 37.8 2.3 C 37.8 1.9 37.9 1.5 38.1 1.1 C 38.3 0.7 38.6 0.4 39 0.2 C 39.3 0 39.7 -0.1 40.2 -0.1 Z M 40.2 0.7 C 39.9 0.7 39.7 0.8 39.4 0.9 C 39.2 1.1 39 1.3 38.9 1.5 C 38.7 1.8 38.7 2 38.7 2.3 C 38.7 2.6 38.7 2.9 38.9 3.2 C 39 3.4 39.2 3.6 39.4 3.7 C 39.6 3.9 39.9 4 40.2 4 C 40.4 4 40.6 3.9 40.8 3.8 C 41 3.7 41.2 3.6 41.3 3.5 C 41.5 3.3 41.6 3.1 41.7 2.9 C 41.8 2.7 41.8 2.5 41.8 2.3 C 41.8 2 41.7 1.8 41.6 1.5 C 41.5 1.3 41.3 1.1 41 0.9 C 40.8 0.8 40.5 0.7 40.2 0.7 Z " stroke="none" fill="#ffffff"/>  </g></svg>