<?xml version="1.0" standalone="no"?><!DOCTYPE svg PUBLIC "-//W3C//DTD SVG 1.1//EN" "http://www.w3.org/Graphics/SVG/1.1/DTD/svg11.dtd"><svg xmlns="http://www.w3.org/2000/svg" version="1.1" width="1117px" height="134.3px" viewBox="0 -11 1117 134.3" style="top:-11px">  <desc>But is anyone telling you how?</desc>  <defs/>  <g id="Polygon107806">    <path d="M 7 77.5 L 7 19.3 C 7 19.3 27.39 19.32 27.4 19.3 C 31.4 19.3 34.8 20 37.4 21.4 C 40 22.8 42 24.7 43.3 27 C 44.6 29.3 45.2 31.9 45.2 34.8 C 45.2 37.3 44.8 39.3 43.9 41 C 43 42.6 41.9 43.9 40.4 44.8 C 39 45.8 37.5 46.5 35.8 46.9 C 35.8 46.9 35.8 47.5 35.8 47.5 C 37.6 47.6 39.4 48.2 41.2 49.4 C 43 50.5 44.5 52.1 45.7 54.3 C 46.9 56.4 47.5 59 47.5 62 C 47.5 65 46.8 67.6 45.5 69.9 C 44.2 72.2 42.1 74.1 39.2 75.5 C 36.4 76.8 32.7 77.5 28.1 77.5 C 28.07 77.5 7 77.5 7 77.5 Z M 14.1 71.3 C 14.1 71.3 28.07 71.25 28.1 71.3 C 32.7 71.3 35.9 70.4 37.9 68.6 C 39.8 66.8 40.8 64.6 40.8 62 C 40.8 60.1 40.3 58.3 39.3 56.6 C 38.3 54.9 36.9 53.6 35 52.5 C 33.1 51.5 30.9 51 28.4 51 C 28.41 51.02 14.1 51 14.1 51 L 14.1 71.3 Z M 14.1 44.9 C 14.1 44.9 27.16 44.89 27.2 44.9 C 29.3 44.9 31.2 44.5 32.9 43.6 C 34.6 42.8 36 41.6 37 40.1 C 38 38.6 38.5 36.8 38.5 34.8 C 38.5 32.2 37.6 30 35.9 28.3 C 34.1 26.5 31.3 25.6 27.4 25.6 C 27.39 25.57 14.1 25.6 14.1 25.6 L 14.1 44.9 Z M 84.2 59.7 C 84.22 59.66 84.2 33.9 84.2 33.9 L 90.9 33.9 L 90.9 77.5 L 84.2 77.5 L 84.2 70.1 C 84.2 70.1 83.76 70.11 83.8 70.1 C 82.7 72.3 81.1 74.2 79 75.8 C 76.8 77.3 74.1 78.1 70.8 78.1 C 68.1 78.1 65.7 77.5 63.5 76.3 C 61.4 75.1 59.7 73.2 58.5 70.8 C 57.3 68.4 56.7 65.3 56.7 61.6 C 56.72 61.59 56.7 33.9 56.7 33.9 L 63.4 33.9 C 63.4 33.9 63.42 61.14 63.4 61.1 C 63.4 64.3 64.3 66.9 66.1 68.8 C 67.9 70.6 70.2 71.6 73 71.6 C 74.6 71.6 76.3 71.2 78.1 70.3 C 79.8 69.5 81.3 68.2 82.4 66.4 C 83.6 64.6 84.2 62.4 84.2 59.7 Z M 120.3 33.9 L 120.3 39.5 L 97.7 39.5 L 97.7 33.9 L 120.3 33.9 Z M 104.3 23.4 L 111 23.4 C 111 23.4 111 65 111 65 C 111 66.9 111.3 68.3 111.8 69.2 C 112.4 70.2 113.1 70.8 114 71.1 C 114.9 71.4 115.8 71.6 116.8 71.6 C 117.5 71.6 118.1 71.5 118.6 71.5 C 119.1 71.4 119.5 71.3 119.7 71.3 C 119.7 71.3 121.1 77.3 121.1 77.3 C 120.7 77.4 120 77.6 119.2 77.8 C 118.4 78 117.4 78.1 116.1 78.1 C 114.2 78.1 112.4 77.7 110.6 76.8 C 108.7 76 107.3 74.8 106.1 73.1 C 104.9 71.5 104.3 69.4 104.3 66.8 C 104.29 66.82 104.3 23.4 104.3 23.4 Z M 152.9 77.5 L 152.9 33.9 L 159.6 33.9 L 159.6 77.5 L 152.9 77.5 Z M 156.3 26.6 C 155 26.6 153.9 26.1 153 25.3 C 152 24.4 151.6 23.3 151.6 22 C 151.6 20.8 152 19.7 153 18.8 C 153.9 17.9 155 17.5 156.3 17.5 C 157.6 17.5 158.8 17.9 159.7 18.8 C 160.6 19.7 161.1 20.8 161.1 22 C 161.1 23.3 160.6 24.4 159.7 25.3 C 158.8 26.1 157.6 26.6 156.3 26.6 Z M 200.8 43.6 C 200.8 43.6 194.8 45.3 194.8 45.3 C 194.4 44.3 193.9 43.4 193.1 42.4 C 192.4 41.4 191.4 40.7 190.2 40 C 188.9 39.4 187.3 39.1 185.4 39.1 C 182.7 39.1 180.5 39.7 178.7 40.9 C 176.9 42.1 176 43.7 176 45.6 C 176 47.2 176.6 48.6 177.9 49.5 C 179.1 50.5 181 51.3 183.5 51.9 C 183.5 51.9 190 53.5 190 53.5 C 193.9 54.5 196.8 55.9 198.7 57.9 C 200.6 59.8 201.6 62.3 201.6 65.3 C 201.6 67.8 200.9 70.1 199.5 72 C 198 74 196 75.6 193.5 76.7 C 190.9 77.8 187.9 78.4 184.6 78.4 C 180.1 78.4 176.4 77.4 173.5 75.5 C 170.6 73.6 168.7 70.8 168 67 C 168 67 174.3 65.5 174.3 65.5 C 174.9 67.8 176.1 69.6 177.8 70.7 C 179.5 71.9 181.7 72.5 184.4 72.5 C 187.6 72.5 190.1 71.8 191.9 70.5 C 193.7 69.2 194.7 67.6 194.7 65.7 C 194.7 64.2 194.1 62.9 193.1 61.9 C 192 60.8 190.4 60.1 188.2 59.5 C 188.2 59.5 180.9 57.8 180.9 57.8 C 176.9 56.9 174 55.4 172.1 53.4 C 170.3 51.4 169.3 48.9 169.3 45.9 C 169.3 43.4 170 41.3 171.4 39.4 C 172.8 37.5 174.7 36 177.1 34.9 C 179.5 33.8 182.3 33.3 185.4 33.3 C 189.7 33.3 193.1 34.2 195.5 36.1 C 198 38 199.8 40.5 200.8 43.6 Z M 247.1 78.5 C 244.3 78.5 241.8 78 239.5 76.9 C 237.3 75.9 235.5 74.4 234.2 72.4 C 232.8 70.4 232.2 68 232.2 65.1 C 232.2 62.6 232.7 60.6 233.6 59 C 234.6 57.5 235.9 56.2 237.6 55.3 C 239.2 54.5 241.1 53.8 243.1 53.3 C 245.1 52.9 247.1 52.5 249.1 52.3 C 251.8 51.9 253.9 51.7 255.6 51.5 C 257.2 51.3 258.4 51 259.2 50.6 C 260 50.1 260.4 49.4 260.4 48.3 C 260.4 48.3 260.4 48.1 260.4 48.1 C 260.4 45.3 259.6 43.1 258.1 41.5 C 256.5 40 254.2 39.2 251.1 39.2 C 247.9 39.2 245.4 39.9 243.6 41.3 C 241.8 42.7 240.5 44.2 239.8 45.8 C 239.8 45.8 233.4 43.5 233.4 43.5 C 234.6 40.9 236.1 38.8 238 37.3 C 239.9 35.8 242 34.8 244.2 34.2 C 246.5 33.6 248.7 33.3 250.9 33.3 C 252.3 33.3 253.9 33.5 255.8 33.8 C 257.6 34.1 259.4 34.8 261.1 35.8 C 262.8 36.8 264.2 38.4 265.4 40.5 C 266.5 42.5 267.1 45.3 267.1 48.8 C 267.06 48.75 267.1 77.5 267.1 77.5 L 260.4 77.5 L 260.4 71.6 C 260.4 71.6 260.01 71.59 260 71.6 C 259.6 72.5 258.8 73.6 257.7 74.6 C 256.7 75.7 255.3 76.6 253.5 77.4 C 251.7 78.1 249.6 78.5 247.1 78.5 Z M 248.1 72.5 C 250.7 72.5 253 72 254.8 70.9 C 256.6 69.9 258 68.6 258.9 66.9 C 259.9 65.3 260.4 63.5 260.4 61.7 C 260.4 61.7 260.4 55.6 260.4 55.6 C 260.1 55.9 259.4 56.2 258.5 56.5 C 257.5 56.8 256.4 57 255.2 57.2 C 254 57.4 252.8 57.6 251.6 57.7 C 250.4 57.9 249.5 58 248.8 58.1 C 247 58.3 245.4 58.7 243.9 59.2 C 242.4 59.7 241.2 60.4 240.3 61.4 C 239.3 62.4 238.9 63.8 238.9 65.5 C 238.9 67.8 239.7 69.5 241.5 70.7 C 243.2 71.9 245.4 72.5 248.1 72.5 Z M 284.4 51.3 C 284.45 51.25 284.4 77.5 284.4 77.5 L 277.7 77.5 L 277.7 33.9 L 284.2 33.9 L 284.2 40.7 C 284.2 40.7 284.79 40.68 284.8 40.7 C 285.8 38.5 287.4 36.7 289.4 35.3 C 291.5 34 294.2 33.3 297.5 33.3 C 300.5 33.3 303.1 33.9 305.3 35.1 C 307.5 36.3 309.2 38.1 310.4 40.6 C 311.7 43 312.3 46.1 312.3 49.8 C 312.29 49.77 312.3 77.5 312.3 77.5 L 305.6 77.5 C 305.6 77.5 305.59 50.23 305.6 50.2 C 305.6 46.8 304.7 44.1 302.9 42.2 C 301.1 40.3 298.7 39.3 295.6 39.3 C 293.4 39.3 291.5 39.8 289.9 40.7 C 288.2 41.6 286.9 43 285.9 44.8 C 284.9 46.6 284.4 48.7 284.4 51.3 Z M 324.9 93.9 C 323.8 93.9 322.7 93.8 321.9 93.6 C 321 93.4 320.4 93.2 320 93.1 C 320 93.1 321.7 87.2 321.7 87.2 C 323.3 87.6 324.8 87.7 326 87.6 C 327.3 87.5 328.4 86.9 329.4 86 C 330.3 85 331.2 83.4 332.1 81.1 C 332.06 81.14 333.3 77.7 333.3 77.7 L 317.2 33.9 L 324.4 33.9 L 336.5 68.6 L 336.9 68.6 L 349 33.9 L 356.3 33.9 C 356.3 33.9 337.74 83.86 337.7 83.9 C 336.9 86.1 335.9 88 334.6 89.5 C 333.4 91 332 92.1 330.4 92.8 C 328.7 93.5 326.9 93.9 324.9 93.9 Z M 379 78.4 C 375 78.4 371.6 77.5 368.6 75.6 C 365.7 73.7 363.3 71.1 361.7 67.7 C 360 64.4 359.2 60.4 359.2 55.9 C 359.2 51.4 360 47.4 361.7 44 C 363.3 40.6 365.7 38 368.6 36.1 C 371.6 34.2 375 33.3 379 33.3 C 382.9 33.3 386.4 34.2 389.3 36.1 C 392.3 38 394.6 40.6 396.3 44 C 397.9 47.4 398.7 51.4 398.7 55.9 C 398.7 60.4 397.9 64.4 396.3 67.7 C 394.6 71.1 392.3 73.7 389.3 75.6 C 386.4 77.5 382.9 78.4 379 78.4 Z M 379 72.4 C 382 72.4 384.4 71.6 386.4 70.1 C 388.3 68.6 389.7 66.5 390.6 64 C 391.6 61.5 392 58.8 392 55.9 C 392 53 391.6 50.3 390.6 47.8 C 389.7 45.2 388.3 43.2 386.4 41.6 C 384.4 40.1 382 39.3 379 39.3 C 376 39.3 373.5 40.1 371.6 41.6 C 369.7 43.2 368.2 45.2 367.3 47.8 C 366.4 50.3 365.9 53 365.9 55.9 C 365.9 58.8 366.4 61.5 367.3 64 C 368.2 66.5 369.7 68.6 371.6 70.1 C 373.5 71.6 376 72.4 379 72.4 Z M 414.2 51.3 C 414.15 51.25 414.2 77.5 414.2 77.5 L 407.5 77.5 L 407.5 33.9 L 413.9 33.9 L 413.9 40.7 C 413.9 40.7 414.5 40.68 414.5 40.7 C 415.5 38.5 417.1 36.7 419.2 35.3 C 421.2 34 423.9 33.3 427.2 33.3 C 430.2 33.3 432.8 33.9 435 35.1 C 437.2 36.3 438.9 38.1 440.1 40.6 C 441.4 43 442 46.1 442 49.8 C 442 49.77 442 77.5 442 77.5 L 435.3 77.5 C 435.3 77.5 435.29 50.23 435.3 50.2 C 435.3 46.8 434.4 44.1 432.6 42.2 C 430.8 40.3 428.4 39.3 425.3 39.3 C 423.2 39.3 421.2 39.8 419.6 40.7 C 417.9 41.6 416.6 43 415.6 44.8 C 414.6 46.6 414.2 48.7 414.2 51.3 Z M 470.9 78.4 C 466.7 78.4 463 77.5 460 75.6 C 457 73.7 454.6 71.1 453 67.8 C 451.3 64.4 450.5 60.5 450.5 56 C 450.5 51.6 451.3 47.6 453 44.2 C 454.6 40.8 456.9 38.1 459.9 36.2 C 462.8 34.3 466.2 33.3 470.2 33.3 C 472.5 33.3 474.7 33.7 476.9 34.4 C 479.1 35.2 481.2 36.4 483 38.1 C 484.8 39.8 486.2 42 487.3 44.8 C 488.4 47.6 488.9 51 488.9 55.1 C 488.94 55.11 488.9 58 488.9 58 L 455.3 58 L 455.3 52.2 C 455.3 52.2 482.12 52.16 482.1 52.2 C 482.1 49.7 481.6 47.5 480.7 45.6 C 479.7 43.6 478.3 42.1 476.5 41 C 474.7 39.9 472.6 39.3 470.2 39.3 C 467.5 39.3 465.2 40 463.3 41.3 C 461.3 42.6 459.8 44.3 458.8 46.4 C 457.8 48.5 457.2 50.8 457.2 53.2 C 457.2 53.2 457.2 57 457.2 57 C 457.2 60.3 457.8 63.1 458.9 65.4 C 460.1 67.7 461.7 69.4 463.7 70.6 C 465.8 71.8 468.2 72.4 470.9 72.4 C 472.6 72.4 474.2 72.1 475.7 71.6 C 477.1 71.1 478.3 70.4 479.4 69.4 C 480.4 68.3 481.2 67.1 481.8 65.6 C 481.8 65.6 488.3 67.4 488.3 67.4 C 487.6 69.6 486.4 71.5 484.8 73.2 C 483.2 74.8 481.2 76.1 478.9 77 C 476.5 77.9 473.8 78.4 470.9 78.4 Z M 540.6 33.9 L 540.6 39.5 L 518 39.5 L 518 33.9 L 540.6 33.9 Z M 524.6 23.4 L 531.3 23.4 C 531.3 23.4 531.32 65 531.3 65 C 531.3 66.9 531.6 68.3 532.2 69.2 C 532.7 70.2 533.4 70.8 534.3 71.1 C 535.2 71.4 536.1 71.6 537.1 71.6 C 537.9 71.6 538.5 71.5 538.9 71.5 C 539.4 71.4 539.8 71.3 540.1 71.3 C 540.1 71.3 541.4 77.3 541.4 77.3 C 541 77.4 540.3 77.6 539.5 77.8 C 538.7 78 537.7 78.1 536.4 78.1 C 534.5 78.1 532.7 77.7 530.9 76.8 C 529.1 76 527.6 74.8 526.4 73.1 C 525.2 71.5 524.6 69.4 524.6 66.8 C 524.62 66.82 524.6 23.4 524.6 23.4 Z M 565.1 78.4 C 560.9 78.4 557.3 77.5 554.2 75.6 C 551.2 73.7 548.8 71.1 547.2 67.8 C 545.6 64.4 544.7 60.5 544.7 56 C 544.7 51.6 545.6 47.6 547.2 44.2 C 548.8 40.8 551.1 38.1 554.1 36.2 C 557 34.3 560.5 33.3 564.4 33.3 C 566.7 33.3 568.9 33.7 571.1 34.4 C 573.4 35.2 575.4 36.4 577.2 38.1 C 579 39.8 580.5 42 581.5 44.8 C 582.6 47.6 583.2 51 583.2 55.1 C 583.16 55.11 583.2 58 583.2 58 L 549.5 58 L 549.5 52.2 C 549.5 52.2 576.34 52.16 576.3 52.2 C 576.3 49.7 575.9 47.5 574.9 45.6 C 573.9 43.6 572.5 42.1 570.7 41 C 568.9 39.9 566.8 39.3 564.4 39.3 C 561.7 39.3 559.4 40 557.5 41.3 C 555.5 42.6 554.1 44.3 553 46.4 C 552 48.5 551.5 50.8 551.5 53.2 C 551.5 53.2 551.5 57 551.5 57 C 551.5 60.3 552 63.1 553.2 65.4 C 554.3 67.7 555.9 69.4 558 70.6 C 560 71.8 562.4 72.4 565.1 72.4 C 566.8 72.4 568.4 72.1 569.9 71.6 C 571.3 71.1 572.5 70.4 573.6 69.4 C 574.6 68.3 575.4 67.1 576 65.6 C 576 65.6 582.5 67.4 582.5 67.4 C 581.8 69.6 580.6 71.5 579 73.2 C 577.4 74.8 575.4 76.1 573.1 77 C 570.7 77.9 568 78.4 565.1 78.4 Z M 598.7 19.3 L 598.7 77.5 L 592 77.5 L 592 19.3 L 598.7 19.3 Z M 616.1 19.3 L 616.1 77.5 L 609.4 77.5 L 609.4 19.3 L 616.1 19.3 Z M 626.9 77.5 L 626.9 33.9 L 633.6 33.9 L 633.6 77.5 L 626.9 77.5 Z M 630.3 26.6 C 629 26.6 627.9 26.1 627 25.3 C 626 24.4 625.6 23.3 625.6 22 C 625.6 20.8 626 19.7 627 18.8 C 627.9 17.9 629 17.5 630.3 17.5 C 631.6 17.5 632.8 17.9 633.7 18.8 C 634.6 19.7 635.1 20.8 635.1 22 C 635.1 23.3 634.6 24.4 633.7 25.3 C 632.8 26.1 631.6 26.6 630.3 26.6 Z M 651.1 51.3 C 651.12 51.25 651.1 77.5 651.1 77.5 L 644.4 77.5 L 644.4 33.9 L 650.9 33.9 L 650.9 40.7 C 650.9 40.7 651.46 40.68 651.5 40.7 C 652.5 38.5 654 36.7 656.1 35.3 C 658.2 34 660.9 33.3 664.2 33.3 C 667.1 33.3 669.7 33.9 671.9 35.1 C 674.2 36.3 675.9 38.1 677.1 40.6 C 678.3 43 679 46.1 679 49.8 C 678.96 49.77 679 77.5 679 77.5 L 672.3 77.5 C 672.3 77.5 672.25 50.23 672.3 50.2 C 672.3 46.8 671.4 44.1 669.6 42.2 C 667.8 40.3 665.4 39.3 662.3 39.3 C 660.1 39.3 658.2 39.8 656.5 40.7 C 654.9 41.6 653.5 43 652.6 44.8 C 651.6 46.6 651.1 48.7 651.1 51.3 Z M 707 94.8 C 703.8 94.8 701 94.4 698.6 93.5 C 696.3 92.7 694.4 91.6 692.8 90.3 C 691.3 89 690.1 87.5 689.2 86 C 689.2 86 694.5 82.3 694.5 82.3 C 695.1 83.1 695.9 84 696.8 85 C 697.7 86 699 86.9 700.6 87.7 C 702.2 88.5 704.4 88.9 707 88.9 C 710.5 88.9 713.4 88 715.7 86.3 C 718 84.6 719.2 81.9 719.2 78.3 C 719.15 78.3 719.2 69.4 719.2 69.4 C 719.2 69.4 718.58 69.43 718.6 69.4 C 718.1 70.2 717.4 71.2 716.5 72.4 C 715.6 73.5 714.3 74.6 712.6 75.5 C 711 76.4 708.7 76.8 705.9 76.8 C 702.3 76.8 699.2 76 696.4 74.3 C 693.6 72.7 691.4 70.2 689.8 67 C 688.1 63.9 687.3 60 687.3 55.5 C 687.3 51 688.1 47.1 689.7 43.8 C 691.3 40.4 693.5 37.9 696.3 36 C 699.1 34.2 702.3 33.3 706 33.3 C 708.8 33.3 711.1 33.8 712.7 34.7 C 714.4 35.6 715.7 36.7 716.6 37.9 C 717.5 39.1 718.2 40 718.7 40.8 C 718.7 40.8 719.4 40.8 719.4 40.8 L 719.4 33.9 L 725.9 33.9 C 725.9 33.9 725.86 78.75 725.9 78.8 C 725.9 82.5 725 85.6 723.3 87.9 C 721.6 90.3 719.3 92 716.5 93.1 C 713.6 94.2 710.5 94.8 707 94.8 Z M 706.8 70.8 C 709.5 70.8 711.7 70.2 713.6 68.9 C 715.4 67.7 716.9 65.9 717.8 63.6 C 718.8 61.3 719.3 58.6 719.3 55.3 C 719.3 52.2 718.8 49.4 717.8 47 C 716.9 44.6 715.5 42.7 713.6 41.4 C 711.8 40 709.5 39.3 706.8 39.3 C 703.9 39.3 701.6 40 699.7 41.5 C 697.8 42.9 696.4 44.8 695.4 47.3 C 694.5 49.7 694 52.4 694 55.3 C 694 58.4 694.5 61 695.5 63.4 C 696.4 65.7 697.9 67.5 699.7 68.8 C 701.6 70.1 704 70.8 706.8 70.8 Z M 764.9 93.9 C 763.8 93.9 762.8 93.8 761.9 93.6 C 761 93.4 760.4 93.2 760.1 93.1 C 760.1 93.1 761.8 87.2 761.8 87.2 C 763.4 87.6 764.8 87.7 766.1 87.6 C 767.3 87.5 768.4 86.9 769.4 86 C 770.4 85 771.3 83.4 772.1 81.1 C 772.11 81.14 773.4 77.7 773.4 77.7 L 757.2 33.9 L 764.5 33.9 L 776.5 68.6 L 777 68.6 L 789 33.9 L 796.3 33.9 C 796.3 33.9 777.79 83.86 777.8 83.9 C 777 86.1 775.9 88 774.7 89.5 C 773.5 91 772 92.1 770.4 92.8 C 768.8 93.5 767 93.9 764.9 93.9 Z M 819 78.4 C 815.1 78.4 811.6 77.5 808.7 75.6 C 805.7 73.7 803.4 71.1 801.7 67.7 C 800.1 64.4 799.2 60.4 799.2 55.9 C 799.2 51.4 800.1 47.4 801.7 44 C 803.4 40.6 805.7 38 808.7 36.1 C 811.6 34.2 815.1 33.3 819 33.3 C 823 33.3 826.4 34.2 829.4 36.1 C 832.3 38 834.7 40.6 836.3 44 C 838 47.4 838.8 51.4 838.8 55.9 C 838.8 60.4 838 64.4 836.3 67.7 C 834.7 71.1 832.3 73.7 829.4 75.6 C 826.4 77.5 823 78.4 819 78.4 Z M 819 72.4 C 822 72.4 824.5 71.6 826.4 70.1 C 828.3 68.6 829.8 66.5 830.7 64 C 831.6 61.5 832.1 58.8 832.1 55.9 C 832.1 53 831.6 50.3 830.7 47.8 C 829.8 45.2 828.3 43.2 826.4 41.6 C 824.5 40.1 822 39.3 819 39.3 C 816 39.3 813.6 40.1 811.6 41.6 C 809.7 43.2 808.3 45.2 807.3 47.8 C 806.4 50.3 806 53 806 55.9 C 806 58.8 806.4 61.5 807.3 64 C 808.3 66.5 809.7 68.6 811.6 70.1 C 813.6 71.6 816 72.4 819 72.4 Z M 874.7 59.7 C 874.71 59.66 874.7 33.9 874.7 33.9 L 881.4 33.9 L 881.4 77.5 L 874.7 77.5 L 874.7 70.1 C 874.7 70.1 874.25 70.11 874.3 70.1 C 873.2 72.3 871.6 74.2 869.5 75.8 C 867.3 77.3 864.6 78.1 861.3 78.1 C 858.6 78.1 856.1 77.5 854 76.3 C 851.9 75.1 850.2 73.2 849 70.8 C 847.8 68.4 847.2 65.3 847.2 61.6 C 847.21 61.59 847.2 33.9 847.2 33.9 L 853.9 33.9 C 853.9 33.9 853.91 61.14 853.9 61.1 C 853.9 64.3 854.8 66.9 856.6 68.8 C 858.4 70.6 860.7 71.6 863.5 71.6 C 865.1 71.6 866.8 71.2 868.6 70.3 C 870.3 69.5 871.7 68.2 872.9 66.4 C 874.1 64.6 874.7 62.4 874.7 59.7 Z M 927 52.3 C 926.98 52.27 927 77.5 927 77.5 L 914.9 77.5 L 914.9 19.3 L 926.6 19.3 L 926.6 41.6 C 926.6 41.6 927.15 41.56 927.1 41.6 C 928.1 39 929.7 37 931.9 35.5 C 934.1 34 936.9 33.3 940.2 33.3 C 943.2 33.3 945.9 34 948.1 35.3 C 950.4 36.6 952.2 38.5 953.4 40.9 C 954.7 43.4 955.3 46.3 955.3 49.7 C 955.27 49.72 955.3 77.5 955.3 77.5 L 943.2 77.5 C 943.2 77.5 943.17 51.88 943.2 51.9 C 943.2 49.2 942.5 47.1 941.1 45.6 C 939.8 44.1 937.8 43.4 935.4 43.4 C 933.7 43.4 932.3 43.7 931 44.4 C 929.8 45.1 928.8 46.1 928.1 47.5 C 927.4 48.8 927 50.4 927 52.3 Z M 982.9 78.4 C 978.4 78.4 974.6 77.4 971.4 75.5 C 968.2 73.6 965.7 71 964 67.6 C 962.2 64.2 961.4 60.3 961.4 55.9 C 961.4 51.3 962.2 47.4 964 44 C 965.7 40.6 968.2 38 971.4 36.1 C 974.6 34.2 978.4 33.3 982.9 33.3 C 987.3 33.3 991.1 34.2 994.3 36.1 C 997.5 38 1000 40.6 1001.7 44 C 1003.5 47.4 1004.3 51.3 1004.3 55.9 C 1004.3 60.3 1003.5 64.2 1001.7 67.6 C 1000 71 997.5 73.6 994.3 75.5 C 991.1 77.4 987.3 78.4 982.9 78.4 Z M 982.9 69 C 984.9 69 986.6 68.4 987.9 67.3 C 989.3 66.1 990.3 64.5 991 62.6 C 991.7 60.6 992 58.3 992 55.8 C 992 53.2 991.7 51 991 49 C 990.3 47 989.3 45.4 987.9 44.3 C 986.6 43.1 984.9 42.5 982.9 42.5 C 980.9 42.5 979.2 43.1 977.8 44.3 C 976.4 45.4 975.4 47 974.7 49 C 974 51 973.7 53.2 973.7 55.8 C 973.7 58.3 974 60.6 974.7 62.6 C 975.4 64.5 976.4 66.1 977.8 67.3 C 979.2 68.4 980.9 69 982.9 69 Z M 1017.5 77.5 L 1005.6 33.9 L 1017.9 33.9 L 1024.6 63.2 L 1025 63.2 L 1032.1 33.9 L 1044.1 33.9 L 1051.2 63 L 1051.6 63 L 1058.3 33.9 L 1070.5 33.9 L 1058.6 77.5 L 1045.8 77.5 L 1038.3 50.1 L 1037.8 50.1 L 1030.3 77.5 L 1017.5 77.5 Z M 1087.2 60.1 C 1087.2 60.1 1087.25 59.09 1087.2 59.1 C 1087.3 55.8 1087.6 53.1 1088.1 51.2 C 1088.7 49.2 1089.6 47.6 1090.7 46.4 C 1091.8 45.2 1093.1 44.1 1094.7 43.1 C 1095.9 42.3 1096.9 41.6 1097.9 40.7 C 1098.8 39.9 1099.5 39 1100.1 38 C 1100.6 37 1100.9 35.9 1100.9 34.7 C 1100.9 33.4 1100.6 32.2 1100 31.3 C 1099.3 30.3 1098.5 29.5 1097.5 29 C 1096.4 28.4 1095.2 28.2 1094 28.2 C 1092.7 28.2 1091.6 28.5 1090.5 29 C 1089.4 29.5 1088.5 30.3 1087.8 31.4 C 1087.1 32.4 1086.7 33.7 1086.6 35.3 C 1086.6 35.3 1075.1 35.3 1075.1 35.3 C 1075.2 31.5 1076.1 28.4 1077.8 25.9 C 1079.5 23.4 1081.8 21.6 1084.6 20.4 C 1087.5 19.1 1090.6 18.5 1094 18.5 C 1097.8 18.5 1101.1 19.1 1104 20.4 C 1106.9 21.6 1109.2 23.4 1110.9 25.8 C 1112.5 28.1 1113.3 30.9 1113.3 34.3 C 1113.3 36.5 1113 38.4 1112.2 40.2 C 1111.5 41.9 1110.5 43.4 1109.2 44.7 C 1107.9 46 1106.3 47.2 1104.5 48.3 C 1103.1 49.2 1101.8 50.1 1100.9 51.1 C 1099.9 52 1099.2 53.1 1098.7 54.4 C 1098.3 55.7 1098 57.2 1098 59.1 C 1098.01 59.09 1098 60.1 1098 60.1 L 1087.2 60.1 Z M 1092.9 78.2 C 1091 78.2 1089.4 77.6 1088 76.2 C 1086.7 74.9 1086 73.3 1086.1 71.4 C 1086 69.6 1086.7 68 1088 66.6 C 1089.4 65.3 1091 64.7 1092.9 64.7 C 1094.7 64.7 1096.3 65.3 1097.6 66.6 C 1099 68 1099.7 69.6 1099.7 71.4 C 1099.7 72.7 1099.3 73.8 1098.7 74.8 C 1098.1 75.9 1097.2 76.7 1096.2 77.3 C 1095.2 77.9 1094.1 78.2 1092.9 78.2 Z " stroke="none" fill="#ffffff"/>  </g></svg>