<?xml version="1.0" standalone="no"?><!DOCTYPE svg PUBLIC "-//W3C//DTD SVG 1.1//EN" "http://www.w3.org/Graphics/SVG/1.1/DTD/svg11.dtd"><svg xmlns="http://www.w3.org/2000/svg" version="1.1" width="121px" height="25.4px" viewBox="0 -3 121 25.4" style="top:-3px">  <desc>1 / 19</desc>  <defs/>  <g id="Polygon105655">    <path d="M 47.9 3.4 L 47.9 13.6 L 46.7 13.6 L 46.7 4.7 L 46.6 4.7 L 44.1 6.3 L 44.1 5.1 L 46.7 3.4 L 47.9 3.4 Z M 58.4 2.9 L 55.1 15.1 L 54 15.1 L 57.3 2.9 L 58.4 2.9 Z M 67.3 3.4 L 67.3 13.6 L 66.1 13.6 L 66.1 4.7 L 66 4.7 L 63.5 6.3 L 63.5 5.1 L 66.1 3.4 L 67.3 3.4 Z M 73.2 3.2 C 73.6 3.2 74 3.3 74.4 3.5 C 74.8 3.6 75.2 3.9 75.6 4.3 C 75.9 4.6 76.2 5.1 76.4 5.7 C 76.6 6.3 76.7 7.1 76.7 8.1 C 76.7 9 76.6 9.8 76.4 10.5 C 76.3 11.2 76 11.8 75.7 12.2 C 75.4 12.7 75 13.1 74.5 13.3 C 74.1 13.6 73.6 13.7 73 13.7 C 72.4 13.7 71.9 13.6 71.5 13.4 C 71 13.1 70.7 12.8 70.4 12.4 C 70.1 12 69.9 11.5 69.8 11 C 69.8 11 71.1 11 71.1 11 C 71.2 11.5 71.4 11.8 71.7 12.2 C 72 12.5 72.5 12.6 73 12.6 C 73.8 12.6 74.4 12.3 74.9 11.6 C 75.3 10.9 75.5 9.9 75.5 8.7 C 75.5 8.7 75.5 8.7 75.5 8.7 C 75.3 8.9 75.1 9.2 74.8 9.4 C 74.6 9.6 74.3 9.7 74 9.9 C 73.6 10 73.3 10 73 10 C 72.4 10 71.8 9.9 71.4 9.6 C 70.9 9.3 70.5 8.9 70.2 8.4 C 69.9 7.9 69.8 7.3 69.8 6.6 C 69.8 6 69.9 5.4 70.2 4.9 C 70.5 4.4 70.9 4 71.4 3.7 C 71.9 3.4 72.5 3.2 73.2 3.2 Z M 73.2 4.3 C 72.7 4.3 72.4 4.4 72 4.6 C 71.7 4.9 71.4 5.1 71.2 5.5 C 71.1 5.8 71 6.2 71 6.6 C 71 7.1 71 7.5 71.2 7.8 C 71.4 8.1 71.7 8.4 72 8.6 C 72.3 8.8 72.7 8.9 73.1 8.9 C 73.4 8.9 73.7 8.9 74 8.7 C 74.3 8.6 74.5 8.4 74.7 8.2 C 74.9 8 75.1 7.8 75.2 7.5 C 75.3 7.2 75.4 6.9 75.4 6.6 C 75.4 6.2 75.3 5.9 75.1 5.5 C 74.9 5.2 74.6 4.9 74.3 4.7 C 74 4.4 73.6 4.3 73.2 4.3 Z " stroke="none" fill="#ffffff"/>  </g></svg>