<?xml version="1.0" standalone="no"?><!DOCTYPE svg PUBLIC "-//W3C//DTD SVG 1.1//EN" "http://www.w3.org/Graphics/SVG/1.1/DTD/svg11.dtd"><svg xmlns="http://www.w3.org/2000/svg" version="1.1" width="275px" height="31.3px" viewBox="0 -8 275 31.3" style="top:-8px">  <desc>Disconnected intelligence</desc>  <defs/>  <g id="Polygon106374">    <path d="M 31.5 13.1 C 31.49 13.09 27.5 13.1 27.5 13.1 L 27.5 0 C 27.5 0 31.67 0 31.7 0 C 32.9 0 34 0.3 34.9 0.8 C 35.8 1.3 36.5 2.1 37 3 C 37.5 4 37.7 5.2 37.7 6.5 C 37.7 7.9 37.5 9.1 37 10 C 36.5 11 35.8 11.8 34.9 12.3 C 33.9 12.8 32.8 13.1 31.5 13.1 Z M 29 11.7 C 29 11.7 31.39 11.68 31.4 11.7 C 32.5 11.7 33.4 11.5 34.1 11.1 C 34.8 10.6 35.3 10 35.7 9.3 C 36 8.5 36.2 7.6 36.2 6.5 C 36.2 5.5 36 4.6 35.7 3.8 C 35.3 3 34.8 2.4 34.1 2 C 33.4 1.6 32.6 1.4 31.6 1.4 C 31.57 1.41 29 1.4 29 1.4 L 29 11.7 Z M 40.2 13.1 L 40.2 3.3 L 41.7 3.3 L 41.7 13.1 L 40.2 13.1 Z M 40.9 1.6 C 40.7 1.6 40.4 1.5 40.2 1.3 C 40 1.1 39.9 0.9 39.9 0.6 C 39.9 0.3 40 0.1 40.2 -0.1 C 40.4 -0.3 40.7 -0.4 40.9 -0.4 C 41.2 -0.4 41.5 -0.3 41.7 -0.1 C 41.9 0.1 42 0.3 42 0.6 C 42 0.9 41.9 1.1 41.7 1.3 C 41.5 1.5 41.2 1.6 40.9 1.6 Z M 51.3 5.5 C 51.3 5.5 49.9 5.9 49.9 5.9 C 49.8 5.6 49.7 5.4 49.6 5.2 C 49.4 5 49.2 4.8 48.9 4.7 C 48.6 4.5 48.3 4.4 47.8 4.4 C 47.2 4.4 46.7 4.6 46.3 4.9 C 45.9 5.1 45.7 5.5 45.7 5.9 C 45.7 6.3 45.9 6.6 46.1 6.8 C 46.4 7 46.8 7.2 47.4 7.3 C 47.4 7.3 48.9 7.7 48.9 7.7 C 49.7 7.9 50.4 8.2 50.8 8.7 C 51.3 9.1 51.5 9.7 51.5 10.4 C 51.5 10.9 51.3 11.4 51 11.9 C 50.7 12.3 50.2 12.7 49.6 12.9 C 49.1 13.2 48.4 13.3 47.6 13.3 C 46.6 13.3 45.8 13.1 45.1 12.6 C 44.5 12.2 44.1 11.6 43.9 10.7 C 43.9 10.7 45.3 10.4 45.3 10.4 C 45.5 10.9 45.7 11.3 46.1 11.6 C 46.5 11.8 47 12 47.6 12 C 48.3 12 48.9 11.8 49.3 11.5 C 49.7 11.2 49.9 10.9 49.9 10.4 C 49.9 10.1 49.8 9.8 49.6 9.6 C 49.3 9.3 48.9 9.2 48.5 9.1 C 48.5 9.1 46.8 8.7 46.8 8.7 C 45.9 8.5 45.3 8.1 44.8 7.7 C 44.4 7.2 44.2 6.7 44.2 6 C 44.2 5.4 44.4 4.9 44.7 4.5 C 45 4.1 45.4 3.8 46 3.5 C 46.5 3.3 47.1 3.1 47.8 3.1 C 48.8 3.1 49.5 3.4 50.1 3.8 C 50.7 4.2 51.1 4.8 51.3 5.5 Z M 57.6 13.3 C 56.7 13.3 55.9 13.1 55.3 12.6 C 54.6 12.2 54.1 11.6 53.7 10.8 C 53.4 10.1 53.2 9.2 53.2 8.2 C 53.2 7.2 53.4 6.4 53.7 5.6 C 54.1 4.8 54.6 4.2 55.3 3.8 C 55.9 3.4 56.7 3.1 57.6 3.1 C 58.3 3.1 58.9 3.3 59.5 3.5 C 60 3.8 60.5 4.1 60.8 4.6 C 61.2 5.1 61.4 5.6 61.5 6.2 C 61.5 6.2 60 6.2 60 6.2 C 59.9 5.8 59.6 5.4 59.2 5 C 58.8 4.7 58.3 4.5 57.6 4.5 C 57 4.5 56.5 4.7 56.1 5 C 55.6 5.3 55.3 5.7 55.1 6.2 C 54.8 6.8 54.7 7.4 54.7 8.2 C 54.7 8.9 54.8 9.6 55.1 10.2 C 55.3 10.7 55.6 11.2 56.1 11.5 C 56.5 11.8 57 11.9 57.6 11.9 C 58 11.9 58.4 11.9 58.7 11.7 C 59 11.6 59.3 11.4 59.5 11.1 C 59.7 10.9 59.9 10.6 60 10.2 C 60 10.2 61.5 10.2 61.5 10.2 C 61.4 10.8 61.2 11.3 60.9 11.8 C 60.5 12.3 60.1 12.6 59.5 12.9 C 59 13.2 58.4 13.3 57.6 13.3 Z M 67.6 13.3 C 66.7 13.3 65.9 13.1 65.2 12.7 C 64.6 12.2 64.1 11.7 63.7 10.9 C 63.3 10.1 63.1 9.2 63.1 8.2 C 63.1 7.2 63.3 6.3 63.7 5.6 C 64.1 4.8 64.6 4.2 65.2 3.8 C 65.9 3.4 66.7 3.1 67.6 3.1 C 68.5 3.1 69.2 3.4 69.9 3.8 C 70.6 4.2 71.1 4.8 71.5 5.6 C 71.8 6.3 72 7.2 72 8.2 C 72 9.2 71.8 10.1 71.5 10.9 C 71.1 11.7 70.6 12.2 69.9 12.7 C 69.2 13.1 68.5 13.3 67.6 13.3 Z M 67.6 11.9 C 68.2 11.9 68.8 11.8 69.2 11.4 C 69.7 11.1 70 10.6 70.2 10.1 C 70.4 9.5 70.5 8.9 70.5 8.2 C 70.5 7.6 70.4 7 70.2 6.4 C 70 5.8 69.7 5.4 69.2 5 C 68.8 4.7 68.2 4.5 67.6 4.5 C 66.9 4.5 66.3 4.7 65.9 5 C 65.5 5.4 65.2 5.8 64.9 6.4 C 64.7 7 64.6 7.6 64.6 8.2 C 64.6 8.9 64.7 9.5 64.9 10.1 C 65.2 10.6 65.5 11.1 65.9 11.4 C 66.3 11.8 66.9 11.9 67.6 11.9 Z M 75.8 7.2 C 75.82 7.18 75.8 13.1 75.8 13.1 L 74.3 13.1 L 74.3 3.3 L 75.8 3.3 L 75.8 4.8 C 75.8 4.8 75.89 4.81 75.9 4.8 C 76.1 4.3 76.5 3.9 76.9 3.6 C 77.4 3.3 78 3.1 78.8 3.1 C 79.4 3.1 80 3.3 80.5 3.6 C 81 3.8 81.4 4.2 81.7 4.8 C 81.9 5.3 82.1 6 82.1 6.9 C 82.08 6.85 82.1 13.1 82.1 13.1 L 80.6 13.1 C 80.6 13.1 80.57 6.95 80.6 7 C 80.6 6.2 80.4 5.6 80 5.1 C 79.6 4.7 79 4.5 78.3 4.5 C 77.8 4.5 77.4 4.6 77 4.8 C 76.7 5 76.4 5.3 76.1 5.7 C 75.9 6.1 75.8 6.6 75.8 7.2 Z M 86.3 7.2 C 86.32 7.18 86.3 13.1 86.3 13.1 L 84.8 13.1 L 84.8 3.3 L 86.3 3.3 L 86.3 4.8 C 86.3 4.8 86.39 4.81 86.4 4.8 C 86.6 4.3 87 3.9 87.4 3.6 C 87.9 3.3 88.5 3.1 89.3 3.1 C 89.9 3.1 90.5 3.3 91 3.6 C 91.5 3.8 91.9 4.2 92.2 4.8 C 92.4 5.3 92.6 6 92.6 6.9 C 92.58 6.85 92.6 13.1 92.6 13.1 L 91.1 13.1 C 91.1 13.1 91.07 6.95 91.1 7 C 91.1 6.2 90.9 5.6 90.5 5.1 C 90.1 4.7 89.5 4.5 88.8 4.5 C 88.3 4.5 87.9 4.6 87.5 4.8 C 87.2 5 86.9 5.3 86.6 5.7 C 86.4 6.1 86.3 6.6 86.3 7.2 Z M 99.4 13.3 C 98.5 13.3 97.6 13.1 97 12.7 C 96.3 12.2 95.7 11.7 95.4 10.9 C 95 10.1 94.8 9.3 94.8 8.3 C 94.8 7.3 95 6.4 95.4 5.6 C 95.7 4.8 96.3 4.2 96.9 3.8 C 97.6 3.4 98.4 3.1 99.3 3.1 C 99.8 3.1 100.3 3.2 100.8 3.4 C 101.3 3.6 101.7 3.8 102.1 4.2 C 102.5 4.6 102.9 5.1 103.1 5.7 C 103.3 6.4 103.5 7.1 103.5 8.1 C 103.47 8.05 103.5 8.7 103.5 8.7 L 95.9 8.7 L 95.9 7.4 C 95.9 7.4 101.94 7.39 101.9 7.4 C 101.9 6.8 101.8 6.3 101.6 5.9 C 101.4 5.5 101.1 5.1 100.7 4.9 C 100.3 4.6 99.8 4.5 99.3 4.5 C 98.7 4.5 98.1 4.6 97.7 4.9 C 97.3 5.2 96.9 5.6 96.7 6.1 C 96.5 6.6 96.3 7.1 96.3 7.6 C 96.3 7.6 96.3 8.5 96.3 8.5 C 96.3 9.2 96.5 9.9 96.7 10.4 C 97 10.9 97.3 11.3 97.8 11.5 C 98.3 11.8 98.8 11.9 99.4 11.9 C 99.8 11.9 100.2 11.9 100.5 11.8 C 100.8 11.7 101.1 11.5 101.3 11.3 C 101.6 11 101.7 10.7 101.9 10.4 C 101.9 10.4 103.3 10.8 103.3 10.8 C 103.2 11.3 102.9 11.7 102.5 12.1 C 102.2 12.5 101.7 12.8 101.2 13 C 100.7 13.2 100.1 13.3 99.4 13.3 Z M 109.7 13.3 C 108.8 13.3 108 13.1 107.3 12.6 C 106.7 12.2 106.2 11.6 105.8 10.8 C 105.5 10.1 105.3 9.2 105.3 8.2 C 105.3 7.2 105.5 6.4 105.8 5.6 C 106.2 4.8 106.7 4.2 107.4 3.8 C 108 3.4 108.8 3.1 109.7 3.1 C 110.4 3.1 111 3.3 111.6 3.5 C 112.1 3.8 112.6 4.1 112.9 4.6 C 113.3 5.1 113.5 5.6 113.6 6.2 C 113.6 6.2 112.1 6.2 112.1 6.2 C 112 5.8 111.7 5.4 111.3 5 C 110.9 4.7 110.4 4.5 109.7 4.5 C 109.1 4.5 108.6 4.7 108.2 5 C 107.7 5.3 107.4 5.7 107.1 6.2 C 106.9 6.8 106.8 7.4 106.8 8.2 C 106.8 8.9 106.9 9.6 107.1 10.2 C 107.4 10.7 107.7 11.2 108.2 11.5 C 108.6 11.8 109.1 11.9 109.7 11.9 C 110.1 11.9 110.5 11.9 110.8 11.7 C 111.1 11.6 111.4 11.4 111.6 11.1 C 111.8 10.9 112 10.6 112.1 10.2 C 112.1 10.2 113.6 10.2 113.6 10.2 C 113.5 10.8 113.3 11.3 113 11.8 C 112.6 12.3 112.2 12.6 111.6 12.9 C 111.1 13.2 110.4 13.3 109.7 13.3 Z M 120 3.3 L 120 4.6 L 114.9 4.6 L 114.9 3.3 L 120 3.3 Z M 116.4 0.9 L 117.9 0.9 C 117.9 0.9 117.89 10.28 117.9 10.3 C 117.9 10.7 118 11 118.1 11.2 C 118.2 11.4 118.4 11.6 118.6 11.7 C 118.8 11.7 119 11.8 119.2 11.8 C 119.4 11.8 119.5 11.8 119.6 11.7 C 119.7 11.7 119.8 11.7 119.9 11.7 C 119.9 11.7 120.2 13 120.2 13 C 120.1 13.1 119.9 13.1 119.7 13.2 C 119.6 13.2 119.3 13.2 119 13.2 C 118.6 13.2 118.2 13.1 117.8 12.9 C 117.4 12.8 117 12.5 116.8 12.1 C 116.5 11.7 116.4 11.3 116.4 10.7 C 116.38 10.69 116.4 0.9 116.4 0.9 Z M 125.9 13.3 C 124.9 13.3 124.1 13.1 123.4 12.7 C 122.7 12.2 122.2 11.7 121.8 10.9 C 121.5 10.1 121.3 9.3 121.3 8.3 C 121.3 7.3 121.5 6.4 121.8 5.6 C 122.2 4.8 122.7 4.2 123.4 3.8 C 124 3.4 124.8 3.1 125.7 3.1 C 126.2 3.1 126.7 3.2 127.2 3.4 C 127.7 3.6 128.2 3.8 128.6 4.2 C 129 4.6 129.3 5.1 129.6 5.7 C 129.8 6.4 129.9 7.1 129.9 8.1 C 129.93 8.05 129.9 8.7 129.9 8.7 L 122.4 8.7 L 122.4 7.4 C 122.4 7.4 128.39 7.39 128.4 7.4 C 128.4 6.8 128.3 6.3 128.1 5.9 C 127.8 5.5 127.5 5.1 127.1 4.9 C 126.7 4.6 126.3 4.5 125.7 4.5 C 125.1 4.5 124.6 4.6 124.2 4.9 C 123.7 5.2 123.4 5.6 123.1 6.1 C 122.9 6.6 122.8 7.1 122.8 7.6 C 122.8 7.6 122.8 8.5 122.8 8.5 C 122.8 9.2 122.9 9.9 123.2 10.4 C 123.4 10.9 123.8 11.3 124.3 11.5 C 124.7 11.8 125.3 11.9 125.9 11.9 C 126.3 11.9 126.6 11.9 126.9 11.8 C 127.3 11.7 127.5 11.5 127.8 11.3 C 128 11 128.2 10.7 128.3 10.4 C 128.3 10.4 129.8 10.8 129.8 10.8 C 129.6 11.3 129.4 11.7 129 12.1 C 128.6 12.5 128.2 12.8 127.7 13 C 127.1 13.2 126.5 13.3 125.9 13.3 Z M 135.9 13.3 C 135.1 13.3 134.4 13.1 133.7 12.7 C 133.1 12.3 132.6 11.7 132.3 10.9 C 131.9 10.1 131.7 9.2 131.7 8.2 C 131.7 7.2 131.9 6.3 132.3 5.5 C 132.6 4.8 133.1 4.2 133.7 3.8 C 134.4 3.4 135.1 3.1 135.9 3.1 C 136.6 3.1 137.1 3.3 137.4 3.5 C 137.8 3.7 138.1 3.9 138.3 4.2 C 138.5 4.4 138.6 4.7 138.8 4.8 C 138.76 4.83 138.9 4.8 138.9 4.8 L 138.9 0 L 140.4 0 L 140.4 13.1 L 138.9 13.1 L 138.9 11.6 C 138.9 11.6 138.76 11.58 138.8 11.6 C 138.6 11.8 138.5 12 138.3 12.3 C 138.1 12.5 137.8 12.8 137.4 13 C 137 13.2 136.5 13.3 135.9 13.3 Z M 136.1 11.9 C 136.7 11.9 137.2 11.8 137.6 11.5 C 138.1 11.1 138.4 10.7 138.6 10.1 C 138.8 9.6 138.9 8.9 138.9 8.2 C 138.9 7.4 138.8 6.8 138.6 6.3 C 138.4 5.7 138.1 5.3 137.6 5 C 137.2 4.7 136.7 4.5 136.1 4.5 C 135.5 4.5 134.9 4.7 134.5 5 C 134.1 5.3 133.8 5.8 133.6 6.3 C 133.3 6.9 133.2 7.5 133.2 8.2 C 133.2 8.9 133.3 9.5 133.6 10.1 C 133.8 10.7 134.1 11.1 134.5 11.4 C 134.9 11.8 135.5 11.9 136.1 11.9 Z M 148.4 13.1 L 148.4 3.3 L 149.9 3.3 L 149.9 13.1 L 148.4 13.1 Z M 149.2 1.6 C 148.9 1.6 148.6 1.5 148.4 1.3 C 148.2 1.1 148.1 0.9 148.1 0.6 C 148.1 0.3 148.2 0.1 148.4 -0.1 C 148.6 -0.3 148.9 -0.4 149.2 -0.4 C 149.5 -0.4 149.7 -0.3 149.9 -0.1 C 150.2 0.1 150.3 0.3 150.3 0.6 C 150.3 0.9 150.2 1.1 149.9 1.3 C 149.7 1.5 149.5 1.6 149.2 1.6 Z M 154.2 7.2 C 154.19 7.18 154.2 13.1 154.2 13.1 L 152.7 13.1 L 152.7 3.3 L 154.1 3.3 L 154.1 4.8 C 154.1 4.8 154.27 4.81 154.3 4.8 C 154.5 4.3 154.8 3.9 155.3 3.6 C 155.8 3.3 156.4 3.1 157.1 3.1 C 157.8 3.1 158.4 3.3 158.9 3.6 C 159.4 3.8 159.8 4.2 160 4.8 C 160.3 5.3 160.5 6 160.5 6.9 C 160.46 6.85 160.5 13.1 160.5 13.1 L 158.9 13.1 C 158.9 13.1 158.95 6.95 158.9 7 C 158.9 6.2 158.7 5.6 158.3 5.1 C 157.9 4.7 157.4 4.5 156.7 4.5 C 156.2 4.5 155.8 4.6 155.4 4.8 C 155 5 154.7 5.3 154.5 5.7 C 154.3 6.1 154.2 6.6 154.2 7.2 Z M 167.2 3.3 L 167.2 4.6 L 162.1 4.6 L 162.1 3.3 L 167.2 3.3 Z M 163.6 0.9 L 165.1 0.9 C 165.1 0.9 165.1 10.28 165.1 10.3 C 165.1 10.7 165.2 11 165.3 11.2 C 165.4 11.4 165.6 11.6 165.8 11.7 C 166 11.7 166.2 11.8 166.4 11.8 C 166.6 11.8 166.7 11.8 166.8 11.7 C 166.9 11.7 167 11.7 167.1 11.7 C 167.1 11.7 167.4 13 167.4 13 C 167.3 13.1 167.1 13.1 166.9 13.2 C 166.8 13.2 166.5 13.2 166.3 13.2 C 165.8 13.2 165.4 13.1 165 12.9 C 164.6 12.8 164.3 12.5 164 12.1 C 163.7 11.7 163.6 11.3 163.6 10.7 C 163.59 10.69 163.6 0.9 163.6 0.9 Z M 173.1 13.3 C 172.1 13.3 171.3 13.1 170.6 12.7 C 169.9 12.2 169.4 11.7 169 10.9 C 168.7 10.1 168.5 9.3 168.5 8.3 C 168.5 7.3 168.7 6.4 169 5.6 C 169.4 4.8 169.9 4.2 170.6 3.8 C 171.3 3.4 172 3.1 172.9 3.1 C 173.4 3.1 173.9 3.2 174.4 3.4 C 174.9 3.6 175.4 3.8 175.8 4.2 C 176.2 4.6 176.5 5.1 176.8 5.7 C 177 6.4 177.1 7.1 177.1 8.1 C 177.14 8.05 177.1 8.7 177.1 8.7 L 169.6 8.7 L 169.6 7.4 C 169.6 7.4 175.6 7.39 175.6 7.4 C 175.6 6.8 175.5 6.3 175.3 5.9 C 175.1 5.5 174.7 5.1 174.3 4.9 C 173.9 4.6 173.5 4.5 172.9 4.5 C 172.3 4.5 171.8 4.6 171.4 4.9 C 170.9 5.2 170.6 5.6 170.4 6.1 C 170.1 6.6 170 7.1 170 7.6 C 170 7.6 170 8.5 170 8.5 C 170 9.2 170.1 9.9 170.4 10.4 C 170.6 10.9 171 11.3 171.5 11.5 C 171.9 11.8 172.5 11.9 173.1 11.9 C 173.5 11.9 173.8 11.9 174.1 11.8 C 174.5 11.7 174.7 11.5 175 11.3 C 175.2 11 175.4 10.7 175.5 10.4 C 175.5 10.4 177 10.8 177 10.8 C 176.8 11.3 176.6 11.7 176.2 12.1 C 175.8 12.5 175.4 12.8 174.9 13 C 174.3 13.2 173.7 13.3 173.1 13.3 Z M 180.9 0 L 180.9 13.1 L 179.4 13.1 L 179.4 0 L 180.9 0 Z M 185.2 0 L 185.2 13.1 L 183.7 13.1 L 183.7 0 L 185.2 0 Z M 188 13.1 L 188 3.3 L 189.5 3.3 L 189.5 13.1 L 188 13.1 Z M 188.7 1.6 C 188.4 1.6 188.2 1.5 188 1.3 C 187.8 1.1 187.6 0.9 187.6 0.6 C 187.6 0.3 187.8 0.1 188 -0.1 C 188.2 -0.3 188.4 -0.4 188.7 -0.4 C 189 -0.4 189.3 -0.3 189.5 -0.1 C 189.7 0.1 189.8 0.3 189.8 0.6 C 189.8 0.9 189.7 1.1 189.5 1.3 C 189.3 1.5 189 1.6 188.7 1.6 Z M 196.1 17 C 195.4 17 194.8 16.9 194.2 16.7 C 193.7 16.5 193.3 16.3 192.9 16 C 192.6 15.7 192.3 15.3 192.1 15 C 192.1 15 193.3 14.2 193.3 14.2 C 193.4 14.3 193.6 14.5 193.8 14.8 C 194 15 194.3 15.2 194.7 15.4 C 195 15.6 195.5 15.6 196.1 15.6 C 196.9 15.6 197.6 15.5 198.1 15.1 C 198.6 14.7 198.9 14.1 198.9 13.3 C 198.85 13.27 198.9 11.3 198.9 11.3 C 198.9 11.3 198.73 11.28 198.7 11.3 C 198.6 11.5 198.5 11.7 198.3 11.9 C 198.1 12.2 197.8 12.4 197.4 12.6 C 197 12.8 196.5 12.9 195.9 12.9 C 195.1 12.9 194.4 12.8 193.7 12.4 C 193.1 12 192.6 11.5 192.2 10.7 C 191.9 10 191.7 9.2 191.7 8.1 C 191.7 7.1 191.9 6.2 192.2 5.5 C 192.6 4.8 193.1 4.2 193.7 3.8 C 194.3 3.4 195.1 3.1 195.9 3.1 C 196.5 3.1 197 3.3 197.4 3.5 C 197.8 3.7 198.1 3.9 198.3 4.2 C 198.5 4.4 198.6 4.7 198.8 4.8 C 198.75 4.83 198.9 4.8 198.9 4.8 L 198.9 3.3 L 200.4 3.3 C 200.4 3.3 200.36 13.37 200.4 13.4 C 200.4 14.2 200.2 14.9 199.8 15.4 C 199.4 16 198.9 16.4 198.3 16.6 C 197.6 16.9 196.9 17 196.1 17 Z M 196.1 11.6 C 196.7 11.6 197.2 11.4 197.6 11.2 C 198 10.9 198.3 10.5 198.6 10 C 198.8 9.5 198.9 8.8 198.9 8.1 C 198.9 7.4 198.8 6.8 198.6 6.2 C 198.3 5.7 198 5.3 197.6 5 C 197.2 4.7 196.7 4.5 196.1 4.5 C 195.4 4.5 194.9 4.7 194.5 5 C 194 5.3 193.7 5.7 193.5 6.3 C 193.3 6.8 193.2 7.4 193.2 8.1 C 193.2 8.8 193.3 9.4 193.5 9.9 C 193.7 10.4 194.1 10.8 194.5 11.1 C 194.9 11.4 195.4 11.6 196.1 11.6 Z M 207.2 13.3 C 206.3 13.3 205.5 13.1 204.8 12.7 C 204.1 12.2 203.6 11.7 203.2 10.9 C 202.8 10.1 202.6 9.3 202.6 8.3 C 202.6 7.3 202.8 6.4 203.2 5.6 C 203.6 4.8 204.1 4.2 204.7 3.8 C 205.4 3.4 206.2 3.1 207.1 3.1 C 207.6 3.1 208.1 3.2 208.6 3.4 C 209.1 3.6 209.5 3.8 209.9 4.2 C 210.3 4.6 210.7 5.1 210.9 5.7 C 211.2 6.4 211.3 7.1 211.3 8.1 C 211.28 8.05 211.3 8.7 211.3 8.7 L 203.7 8.7 L 203.7 7.4 C 203.7 7.4 209.75 7.39 209.7 7.4 C 209.7 6.8 209.6 6.3 209.4 5.9 C 209.2 5.5 208.9 5.1 208.5 4.9 C 208.1 4.6 207.6 4.5 207.1 4.5 C 206.5 4.5 205.9 4.6 205.5 4.9 C 205.1 5.2 204.7 5.6 204.5 6.1 C 204.3 6.6 204.1 7.1 204.1 7.6 C 204.1 7.6 204.1 8.5 204.1 8.5 C 204.1 9.2 204.3 9.9 204.5 10.4 C 204.8 10.9 205.2 11.3 205.6 11.5 C 206.1 11.8 206.6 11.9 207.2 11.9 C 207.6 11.9 208 11.9 208.3 11.8 C 208.6 11.7 208.9 11.5 209.1 11.3 C 209.4 11 209.5 10.7 209.7 10.4 C 209.7 10.4 211.1 10.8 211.1 10.8 C 211 11.3 210.7 11.7 210.4 12.1 C 210 12.5 209.5 12.8 209 13 C 208.5 13.2 207.9 13.3 207.2 13.3 Z M 215.1 7.2 C 215.07 7.18 215.1 13.1 215.1 13.1 L 213.6 13.1 L 213.6 3.3 L 215 3.3 L 215 4.8 C 215 4.8 215.15 4.81 215.2 4.8 C 215.4 4.3 215.7 3.9 216.2 3.6 C 216.7 3.3 217.3 3.1 218 3.1 C 218.7 3.1 219.3 3.3 219.8 3.6 C 220.3 3.8 220.6 4.2 220.9 4.8 C 221.2 5.3 221.3 6 221.3 6.9 C 221.34 6.85 221.3 13.1 221.3 13.1 L 219.8 13.1 C 219.8 13.1 219.83 6.95 219.8 7 C 219.8 6.2 219.6 5.6 219.2 5.1 C 218.8 4.7 218.3 4.5 217.6 4.5 C 217.1 4.5 216.7 4.6 216.3 4.8 C 215.9 5 215.6 5.3 215.4 5.7 C 215.2 6.1 215.1 6.6 215.1 7.2 Z M 228 13.3 C 227.1 13.3 226.3 13.1 225.6 12.6 C 225 12.2 224.4 11.6 224.1 10.8 C 223.7 10.1 223.6 9.2 223.6 8.2 C 223.6 7.2 223.7 6.4 224.1 5.6 C 224.5 4.8 225 4.2 225.7 3.8 C 226.3 3.4 227.1 3.1 228 3.1 C 228.7 3.1 229.3 3.3 229.8 3.5 C 230.4 3.8 230.9 4.1 231.2 4.6 C 231.6 5.1 231.8 5.6 231.9 6.2 C 231.9 6.2 230.4 6.2 230.4 6.2 C 230.2 5.8 230 5.4 229.6 5 C 229.2 4.7 228.7 4.5 228 4.5 C 227.4 4.5 226.9 4.7 226.5 5 C 226 5.3 225.7 5.7 225.4 6.2 C 225.2 6.8 225.1 7.4 225.1 8.2 C 225.1 8.9 225.2 9.6 225.4 10.2 C 225.7 10.7 226 11.2 226.4 11.5 C 226.9 11.8 227.4 11.9 228 11.9 C 228.4 11.9 228.8 11.9 229.1 11.7 C 229.4 11.6 229.7 11.4 229.9 11.1 C 230.1 10.9 230.3 10.6 230.4 10.2 C 230.4 10.2 231.9 10.2 231.9 10.2 C 231.8 10.8 231.6 11.3 231.2 11.8 C 230.9 12.3 230.5 12.6 229.9 12.9 C 229.4 13.2 228.7 13.3 228 13.3 Z M 238.1 13.3 C 237.1 13.3 236.3 13.1 235.6 12.7 C 234.9 12.2 234.4 11.7 234.1 10.9 C 233.7 10.1 233.5 9.3 233.5 8.3 C 233.5 7.3 233.7 6.4 234.1 5.6 C 234.4 4.8 234.9 4.2 235.6 3.8 C 236.3 3.4 237 3.1 237.9 3.1 C 238.4 3.1 238.9 3.2 239.4 3.4 C 239.9 3.6 240.4 3.8 240.8 4.2 C 241.2 4.6 241.5 5.1 241.8 5.7 C 242 6.4 242.1 7.1 242.1 8.1 C 242.14 8.05 242.1 8.7 242.1 8.7 L 234.6 8.7 L 234.6 7.4 C 234.6 7.4 240.61 7.39 240.6 7.4 C 240.6 6.8 240.5 6.3 240.3 5.9 C 240.1 5.5 239.8 5.1 239.3 4.9 C 238.9 4.6 238.5 4.5 237.9 4.5 C 237.3 4.5 236.8 4.6 236.4 4.9 C 235.9 5.2 235.6 5.6 235.4 6.1 C 235.1 6.6 235 7.1 235 7.6 C 235 7.6 235 8.5 235 8.5 C 235 9.2 235.1 9.9 235.4 10.4 C 235.7 10.9 236 11.3 236.5 11.5 C 236.9 11.8 237.5 11.9 238.1 11.9 C 238.5 11.9 238.8 11.9 239.2 11.8 C 239.5 11.7 239.8 11.5 240 11.3 C 240.2 11 240.4 10.7 240.5 10.4 C 240.5 10.4 242 10.8 242 10.8 C 241.8 11.3 241.6 11.7 241.2 12.1 C 240.9 12.5 240.4 12.8 239.9 13 C 239.3 13.2 238.7 13.3 238.1 13.3 Z " stroke="none" fill="#ffffff"/>  </g></svg>