<?xml version="1.0" standalone="no"?><!DOCTYPE svg PUBLIC "-//W3C//DTD SVG 1.1//EN" "http://www.w3.org/Graphics/SVG/1.1/DTD/svg11.dtd"><svg xmlns="http://www.w3.org/2000/svg" version="1.1" width="121px" height="25.4px" viewBox="0 -3 121 25.4" style="top:-3px">  <desc>9 / 19</desc>  <defs/>  <g id="Polygon118463">    <path d="M 46.5 3.2 C 46.9 3.2 47.3 3.3 47.7 3.5 C 48.1 3.6 48.5 3.9 48.9 4.3 C 49.2 4.6 49.5 5.1 49.7 5.7 C 49.9 6.3 50 7.1 50 8.1 C 50 9 49.9 9.8 49.7 10.5 C 49.6 11.2 49.3 11.8 49 12.2 C 48.7 12.7 48.3 13.1 47.8 13.3 C 47.4 13.6 46.9 13.7 46.3 13.7 C 45.7 13.7 45.2 13.6 44.8 13.4 C 44.3 13.1 44 12.8 43.7 12.4 C 43.4 12 43.2 11.5 43.1 11 C 43.1 11 44.4 11 44.4 11 C 44.5 11.5 44.7 11.8 45 12.2 C 45.3 12.5 45.8 12.6 46.3 12.6 C 47.1 12.6 47.7 12.3 48.2 11.6 C 48.6 10.9 48.9 9.9 48.9 8.7 C 48.9 8.7 48.8 8.7 48.8 8.7 C 48.6 8.9 48.4 9.2 48.1 9.4 C 47.9 9.6 47.6 9.7 47.3 9.9 C 46.9 10 46.6 10 46.3 10 C 45.7 10 45.1 9.9 44.7 9.6 C 44.2 9.3 43.8 8.9 43.5 8.4 C 43.2 7.9 43.1 7.3 43.1 6.6 C 43.1 6 43.2 5.4 43.5 4.9 C 43.8 4.4 44.2 4 44.7 3.7 C 45.2 3.4 45.8 3.2 46.5 3.2 Z M 46.5 4.3 C 46 4.3 45.7 4.4 45.3 4.6 C 45 4.9 44.7 5.1 44.5 5.5 C 44.4 5.8 44.3 6.2 44.3 6.6 C 44.3 7.1 44.4 7.5 44.5 7.8 C 44.7 8.1 45 8.4 45.3 8.6 C 45.6 8.8 46 8.9 46.4 8.9 C 46.7 8.9 47 8.9 47.3 8.7 C 47.6 8.6 47.8 8.4 48 8.2 C 48.2 8 48.4 7.8 48.5 7.5 C 48.6 7.2 48.7 6.9 48.7 6.6 C 48.7 6.2 48.6 5.9 48.4 5.5 C 48.2 5.2 47.9 4.9 47.6 4.7 C 47.3 4.4 46.9 4.3 46.5 4.3 Z M 59.5 2.9 L 56.2 15.1 L 55.2 15.1 L 58.4 2.9 L 59.5 2.9 Z M 68.4 3.4 L 68.4 13.6 L 67.2 13.6 L 67.2 4.7 L 67.1 4.7 L 64.6 6.3 L 64.6 5.1 L 67.2 3.4 L 68.4 3.4 Z M 74.3 3.2 C 74.7 3.2 75.1 3.3 75.5 3.5 C 75.9 3.6 76.3 3.9 76.7 4.3 C 77 4.6 77.3 5.1 77.5 5.7 C 77.7 6.3 77.8 7.1 77.8 8.1 C 77.8 9 77.7 9.8 77.6 10.5 C 77.4 11.2 77.1 11.8 76.8 12.2 C 76.5 12.7 76.1 13.1 75.7 13.3 C 75.2 13.6 74.7 13.7 74.1 13.7 C 73.5 13.7 73 13.6 72.6 13.4 C 72.1 13.1 71.8 12.8 71.5 12.4 C 71.2 12 71 11.5 71 11 C 71 11 72.2 11 72.2 11 C 72.3 11.5 72.5 11.8 72.8 12.2 C 73.1 12.5 73.6 12.6 74.1 12.6 C 74.9 12.6 75.5 12.3 76 11.6 C 76.4 10.9 76.7 9.9 76.7 8.7 C 76.7 8.7 76.6 8.7 76.6 8.7 C 76.4 8.9 76.2 9.2 75.9 9.4 C 75.7 9.6 75.4 9.7 75.1 9.9 C 74.8 10 74.4 10 74.1 10 C 73.5 10 73 9.9 72.5 9.6 C 72 9.3 71.6 8.9 71.3 8.4 C 71 7.9 70.9 7.3 70.9 6.6 C 70.9 6 71 5.4 71.3 4.9 C 71.6 4.4 72 4 72.5 3.7 C 73 3.4 73.6 3.2 74.3 3.2 Z M 74.3 4.3 C 73.9 4.3 73.5 4.4 73.1 4.6 C 72.8 4.9 72.6 5.1 72.4 5.5 C 72.2 5.8 72.1 6.2 72.1 6.6 C 72.1 7.1 72.2 7.5 72.3 7.8 C 72.5 8.1 72.8 8.4 73.1 8.6 C 73.4 8.8 73.8 8.9 74.2 8.9 C 74.6 8.9 74.8 8.9 75.1 8.7 C 75.4 8.6 75.6 8.4 75.8 8.2 C 76 8 76.2 7.8 76.3 7.5 C 76.4 7.2 76.5 6.9 76.5 6.6 C 76.5 6.2 76.4 5.9 76.2 5.5 C 76 5.2 75.7 4.9 75.4 4.7 C 75.1 4.4 74.7 4.3 74.3 4.3 Z " stroke="none" fill="#ffffff"/>  </g></svg>