<?xml version="1.0" standalone="no"?><!DOCTYPE svg PUBLIC "-//W3C//DTD SVG 1.1//EN" "http://www.w3.org/Graphics/SVG/1.1/DTD/svg11.dtd"><svg xmlns="http://www.w3.org/2000/svg" version="1.1" width="61px" height="18.4px" viewBox="0 -5 61 18.4" style="top:-5px">  <desc>3 / 19</desc>  <defs/>  <g id="Polygon110646">    <path d="M 20.4 7.4 C 20 7.4 19.5 7.3 19.2 7.1 C 18.8 7 18.5 6.7 18.3 6.5 C 18.1 6.2 18 5.8 18 5.5 C 18 5.5 18.9 5.5 18.9 5.5 C 18.9 5.7 19 5.9 19.1 6.1 C 19.2 6.2 19.4 6.4 19.6 6.5 C 19.9 6.5 20.1 6.6 20.4 6.6 C 20.7 6.6 21 6.5 21.2 6.4 C 21.5 6.3 21.7 6.2 21.8 6 C 21.9 5.8 22 5.6 22 5.3 C 22 5 22 4.8 21.8 4.6 C 21.7 4.4 21.5 4.2 21.2 4.1 C 21 4 20.7 3.9 20.3 3.9 C 20.3 3.93 19.7 3.9 19.7 3.9 L 19.7 3.2 C 19.7 3.2 20.3 3.15 20.3 3.2 C 20.6 3.2 20.8 3.1 21.1 3 C 21.3 2.9 21.5 2.7 21.6 2.6 C 21.7 2.4 21.8 2.1 21.8 1.9 C 21.8 1.6 21.7 1.4 21.6 1.2 C 21.5 1.1 21.3 0.9 21.1 0.8 C 20.9 0.7 20.7 0.7 20.4 0.7 C 20.2 0.7 20 0.7 19.7 0.8 C 19.5 0.9 19.3 1 19.2 1.2 C 19.1 1.4 19 1.6 19 1.8 C 19 1.8 18.1 1.8 18.1 1.8 C 18.1 1.4 18.2 1.1 18.5 0.8 C 18.7 0.5 19 0.3 19.3 0.1 C 19.7 0 20 -0.1 20.5 -0.1 C 20.9 -0.1 21.3 0 21.6 0.2 C 21.9 0.4 22.2 0.6 22.4 0.9 C 22.5 1.2 22.6 1.5 22.6 1.8 C 22.6 2.3 22.5 2.6 22.3 2.9 C 22.1 3.2 21.8 3.4 21.4 3.5 C 21.4 3.5 21.4 3.6 21.4 3.6 C 21.9 3.6 22.2 3.8 22.5 4.1 C 22.8 4.4 22.9 4.8 22.9 5.3 C 22.9 5.7 22.8 6 22.6 6.4 C 22.3 6.7 22.1 6.9 21.7 7.1 C 21.3 7.3 20.9 7.4 20.4 7.4 Z M 29.7 -0.3 L 27.4 8.4 L 26.6 8.4 L 29 -0.3 L 29.7 -0.3 Z M 36.1 0 L 36.1 7.3 L 35.2 7.3 L 35.2 0.9 L 35.2 0.9 L 33.4 2.1 L 33.4 1.2 L 35.2 0 L 36.1 0 Z M 40.4 -0.1 C 40.7 -0.1 41 0 41.3 0.1 C 41.6 0.2 41.9 0.4 42.1 0.6 C 42.3 0.9 42.5 1.2 42.7 1.7 C 42.8 2.1 42.9 2.7 42.9 3.3 C 42.9 4 42.9 4.6 42.7 5.1 C 42.6 5.6 42.4 6 42.2 6.3 C 42 6.7 41.7 6.9 41.4 7.1 C 41.1 7.3 40.7 7.4 40.3 7.4 C 39.9 7.4 39.5 7.3 39.2 7.1 C 38.9 7 38.6 6.7 38.4 6.5 C 38.2 6.2 38.1 5.8 38 5.4 C 38 5.4 38.9 5.4 38.9 5.4 C 39 5.8 39.1 6 39.4 6.3 C 39.6 6.5 39.9 6.6 40.3 6.6 C 40.8 6.6 41.3 6.3 41.6 5.9 C 41.9 5.4 42.1 4.7 42.1 3.8 C 42.1 3.8 42 3.8 42 3.8 C 41.9 4 41.7 4.1 41.6 4.3 C 41.4 4.4 41.2 4.5 41 4.6 C 40.7 4.7 40.5 4.7 40.2 4.7 C 39.8 4.7 39.5 4.6 39.1 4.4 C 38.8 4.2 38.5 3.9 38.3 3.6 C 38.1 3.2 38 2.8 38 2.3 C 38 1.9 38.1 1.5 38.3 1.1 C 38.5 0.7 38.7 0.4 39.1 0.2 C 39.5 0 39.9 -0.1 40.4 -0.1 Z M 40.4 0.7 C 40.1 0.7 39.8 0.8 39.6 0.9 C 39.3 1.1 39.2 1.3 39 1.5 C 38.9 1.8 38.8 2 38.8 2.3 C 38.8 2.6 38.9 2.9 39 3.2 C 39.1 3.4 39.3 3.6 39.6 3.7 C 39.8 3.9 40.1 4 40.4 4 C 40.6 4 40.8 3.9 41 3.8 C 41.2 3.7 41.4 3.6 41.5 3.5 C 41.6 3.3 41.8 3.1 41.8 2.9 C 41.9 2.7 42 2.5 42 2.3 C 42 2 41.9 1.8 41.8 1.5 C 41.6 1.3 41.4 1.1 41.2 0.9 C 41 0.8 40.7 0.7 40.4 0.7 Z " stroke="none" fill="#10283d"/>  </g></svg>