<?xml version="1.0" standalone="no"?><!DOCTYPE svg PUBLIC "-//W3C//DTD SVG 1.1//EN" "http://www.w3.org/Graphics/SVG/1.1/DTD/svg11.dtd"><svg xmlns="http://www.w3.org/2000/svg" version="1.1" width="563px" height="245.6px" viewBox="0 -7 563 245.6" style="top:-7px">  <desc>“ Our AI can solve your business problem.”</desc>  <defs/>  <g id="Polygon119057">    <path d="M 22.1 106.5 L 22.1 71.6 L 26.1 71.6 L 26.1 84.5 C 26.1 84.5 26.46 84.48 26.5 84.5 C 26.8 84 27.2 83.4 27.7 82.7 C 28.2 82 29 81.4 30 80.8 C 31 80.3 32.3 80 34 80 C 36.2 80 38.2 80.5 39.9 81.6 C 41.5 82.7 42.9 84.3 43.8 86.3 C 44.7 88.3 45.2 90.7 45.2 93.5 C 45.2 96.3 44.7 98.7 43.8 100.7 C 42.9 102.7 41.5 104.3 39.9 105.4 C 38.2 106.5 36.3 107 34.1 107 C 32.4 107 31.1 106.8 30.1 106.2 C 29 105.6 28.3 105 27.7 104.3 C 27.2 103.6 26.8 103 26.5 102.5 C 26.46 102.48 26 102.5 26 102.5 L 26 106.5 L 22.1 106.5 Z M 26.1 93.4 C 26.1 95.4 26.3 97.1 26.9 98.6 C 27.5 100.1 28.3 101.3 29.5 102.2 C 30.6 103 31.9 103.4 33.6 103.4 C 35.2 103.4 36.6 103 37.8 102.1 C 38.9 101.2 39.8 100 40.3 98.5 C 40.9 97 41.2 95.3 41.2 93.4 C 41.2 91.6 40.9 89.9 40.3 88.4 C 39.8 86.9 38.9 85.8 37.8 84.9 C 36.7 84 35.3 83.6 33.6 83.6 C 31.9 83.6 30.5 84 29.4 84.8 C 28.3 85.7 27.5 86.8 26.9 88.3 C 26.3 89.7 26.1 91.5 26.1 93.4 Z M 67.2 95.8 C 67.22 95.8 67.2 80.3 67.2 80.3 L 71.2 80.3 L 71.2 106.5 L 67.2 106.5 L 67.2 102.1 C 67.2 102.1 66.94 102.07 66.9 102.1 C 66.3 103.4 65.4 104.5 64.1 105.5 C 62.8 106.4 61.1 106.8 59.2 106.8 C 57.5 106.8 56.1 106.5 54.8 105.8 C 53.5 105 52.5 103.9 51.8 102.5 C 51.1 101 50.7 99.2 50.7 97 C 50.72 96.95 50.7 80.3 50.7 80.3 L 54.7 80.3 C 54.7 80.3 54.74 96.68 54.7 96.7 C 54.7 98.6 55.3 100.1 56.4 101.3 C 57.4 102.4 58.8 103 60.5 103 C 61.5 103 62.5 102.7 63.5 102.2 C 64.6 101.7 65.4 100.9 66.2 99.8 C 66.9 98.8 67.2 97.4 67.2 95.8 Z M 96.3 86.2 C 96.3 86.2 92.7 87.2 92.7 87.2 C 92.5 86.6 92.1 86 91.7 85.4 C 91.3 84.9 90.7 84.4 89.9 84 C 89.2 83.6 88.2 83.5 87 83.5 C 85.4 83.5 84.1 83.8 83 84.6 C 82 85.3 81.4 86.2 81.4 87.3 C 81.4 88.3 81.8 89.1 82.5 89.7 C 83.3 90.3 84.4 90.8 85.9 91.2 C 85.9 91.2 89.8 92.1 89.8 92.1 C 92.2 92.7 93.9 93.5 95.1 94.7 C 96.2 95.9 96.8 97.4 96.8 99.2 C 96.8 100.7 96.4 102 95.5 103.2 C 94.6 104.4 93.4 105.3 91.9 106 C 90.4 106.7 88.6 107 86.6 107 C 83.9 107 81.7 106.5 79.9 105.3 C 78.2 104.1 77.1 102.5 76.6 100.2 C 76.6 100.2 80.4 99.3 80.4 99.3 C 80.8 100.7 81.5 101.7 82.5 102.4 C 83.5 103.1 84.8 103.5 86.5 103.5 C 88.4 103.5 89.9 103.1 91 102.3 C 92.1 101.5 92.6 100.5 92.6 99.4 C 92.6 98.5 92.3 97.7 91.7 97.1 C 91 96.5 90.1 96 88.7 95.7 C 88.7 95.7 84.4 94.7 84.4 94.7 C 82 94.1 80.2 93.3 79.1 92.1 C 78 90.9 77.4 89.4 77.4 87.5 C 77.4 86.1 77.8 84.8 78.7 83.6 C 79.5 82.5 80.6 81.6 82.1 80.9 C 83.5 80.3 85.2 80 87 80 C 89.6 80 91.7 80.5 93.1 81.7 C 94.6 82.8 95.7 84.3 96.3 86.2 Z M 102.1 106.5 L 102.1 80.3 L 106.1 80.3 L 106.1 106.5 L 102.1 106.5 Z M 104.1 76 C 103.4 76 102.7 75.7 102.1 75.2 C 101.6 74.6 101.3 74 101.3 73.2 C 101.3 72.5 101.6 71.8 102.1 71.3 C 102.7 70.8 103.4 70.5 104.1 70.5 C 104.9 70.5 105.6 70.8 106.2 71.3 C 106.7 71.8 107 72.5 107 73.2 C 107 74 106.7 74.6 106.2 75.2 C 105.6 75.7 104.9 76 104.1 76 Z M 117 90.8 C 116.99 90.75 117 106.5 117 106.5 L 113 106.5 L 113 80.3 L 116.8 80.3 L 116.8 84.4 C 116.8 84.4 117.19 84.41 117.2 84.4 C 117.8 83.1 118.7 82 120 81.2 C 121.2 80.4 122.8 80 124.8 80 C 126.6 80 128.2 80.3 129.5 81.1 C 130.8 81.8 131.8 82.9 132.6 84.3 C 133.3 85.8 133.7 87.6 133.7 89.9 C 133.69 89.86 133.7 106.5 133.7 106.5 L 129.7 106.5 C 129.7 106.5 129.67 90.14 129.7 90.1 C 129.7 88.1 129.1 86.5 128.1 85.3 C 127 84.2 125.5 83.6 123.7 83.6 C 122.4 83.6 121.2 83.9 120.2 84.4 C 119.2 85 118.4 85.8 117.9 86.9 C 117.3 87.9 117 89.2 117 90.8 Z M 151.4 107 C 148.9 107 146.7 106.5 144.9 105.4 C 143 104.2 141.6 102.7 140.7 100.7 C 139.7 98.6 139.2 96.3 139.2 93.6 C 139.2 90.9 139.7 88.6 140.7 86.5 C 141.6 84.5 143 82.9 144.8 81.7 C 146.5 80.6 148.6 80 151 80 C 152.3 80 153.7 80.2 155 80.7 C 156.3 81.1 157.6 81.8 158.6 82.9 C 159.7 83.9 160.6 85.2 161.3 86.9 C 161.9 88.6 162.2 90.6 162.2 93.1 C 162.23 93.07 162.2 94.8 162.2 94.8 L 142 94.8 L 142 91.3 C 142 91.3 158.14 91.3 158.1 91.3 C 158.1 89.8 157.8 88.5 157.3 87.3 C 156.7 86.2 155.8 85.3 154.8 84.6 C 153.7 83.9 152.4 83.6 151 83.6 C 149.4 83.6 148 84 146.8 84.8 C 145.7 85.6 144.8 86.6 144.1 87.9 C 143.5 89.1 143.2 90.5 143.2 91.9 C 143.2 91.9 143.2 94.2 143.2 94.2 C 143.2 96.2 143.5 97.9 144.2 99.2 C 144.9 100.6 145.9 101.7 147.1 102.4 C 148.3 103.1 149.8 103.4 151.4 103.4 C 152.4 103.4 153.4 103.3 154.3 103 C 155.1 102.7 155.9 102.2 156.5 101.6 C 157.1 101 157.6 100.3 157.9 99.3 C 157.9 99.3 161.8 100.4 161.8 100.4 C 161.4 101.8 160.7 102.9 159.8 103.9 C 158.8 104.9 157.6 105.7 156.2 106.2 C 154.8 106.8 153.2 107 151.4 107 Z M 186.1 86.2 C 186.1 86.2 182.4 87.2 182.4 87.2 C 182.2 86.6 181.9 86 181.5 85.4 C 181 84.9 180.4 84.4 179.7 84 C 178.9 83.6 178 83.5 176.8 83.5 C 175.2 83.5 173.9 83.8 172.8 84.6 C 171.7 85.3 171.2 86.2 171.2 87.3 C 171.2 88.3 171.6 89.1 172.3 89.7 C 173 90.3 174.2 90.8 175.7 91.2 C 175.7 91.2 179.6 92.1 179.6 92.1 C 181.9 92.7 183.7 93.5 184.8 94.7 C 186 95.9 186.5 97.4 186.5 99.2 C 186.5 100.7 186.1 102 185.3 103.2 C 184.4 104.4 183.2 105.3 181.7 106 C 180.1 106.7 178.3 107 176.3 107 C 173.6 107 171.4 106.5 169.7 105.3 C 167.9 104.1 166.8 102.5 166.4 100.2 C 166.4 100.2 170.2 99.3 170.2 99.3 C 170.5 100.7 171.2 101.7 172.2 102.4 C 173.3 103.1 174.6 103.5 176.2 103.5 C 178.1 103.5 179.6 103.1 180.7 102.3 C 181.8 101.5 182.4 100.5 182.4 99.4 C 182.4 98.5 182.1 97.7 181.4 97.1 C 180.8 96.5 179.8 96 178.5 95.7 C 178.5 95.7 174.1 94.7 174.1 94.7 C 171.7 94.1 170 93.3 168.9 92.1 C 167.7 90.9 167.2 89.4 167.2 87.5 C 167.2 86.1 167.6 84.8 168.4 83.6 C 169.3 82.5 170.4 81.6 171.9 80.9 C 173.3 80.3 174.9 80 176.8 80 C 179.4 80 181.4 80.5 182.9 81.7 C 184.4 82.8 185.4 84.3 186.1 86.2 Z M 210.6 86.2 C 210.6 86.2 206.9 87.2 206.9 87.2 C 206.7 86.6 206.4 86 205.9 85.4 C 205.5 84.9 204.9 84.4 204.2 84 C 203.4 83.6 202.4 83.5 201.3 83.5 C 199.7 83.5 198.3 83.8 197.3 84.6 C 196.2 85.3 195.7 86.2 195.7 87.3 C 195.7 88.3 196.1 89.1 196.8 89.7 C 197.5 90.3 198.6 90.8 200.2 91.2 C 200.2 91.2 204.1 92.1 204.1 92.1 C 206.4 92.7 208.2 93.5 209.3 94.7 C 210.5 95.9 211 97.4 211 99.2 C 211 100.7 210.6 102 209.7 103.2 C 208.9 104.4 207.7 105.3 206.2 106 C 204.6 106.7 202.8 107 200.8 107 C 198.1 107 195.9 106.5 194.2 105.3 C 192.4 104.1 191.3 102.5 190.8 100.2 C 190.8 100.2 194.7 99.3 194.7 99.3 C 195 100.7 195.7 101.7 196.7 102.4 C 197.8 103.1 199.1 103.5 200.7 103.5 C 202.6 103.5 204.1 103.1 205.2 102.3 C 206.3 101.5 206.9 100.5 206.9 99.4 C 206.9 98.5 206.6 97.7 205.9 97.1 C 205.3 96.5 204.3 96 203 95.7 C 203 95.7 198.6 94.7 198.6 94.7 C 196.2 94.1 194.5 93.3 193.3 92.1 C 192.2 90.9 191.7 89.4 191.7 87.5 C 191.7 86.1 192.1 84.8 192.9 83.6 C 193.8 82.5 194.9 81.6 196.3 80.9 C 197.8 80.3 199.4 80 201.3 80 C 203.9 80 205.9 80.5 207.4 81.7 C 208.9 82.8 209.9 84.3 210.6 86.2 Z M 230.6 116.3 L 230.6 80.3 L 234.5 80.3 L 234.5 84.5 C 234.5 84.5 234.96 84.48 235 84.5 C 235.3 84 235.7 83.4 236.2 82.7 C 236.7 82 237.5 81.4 238.5 80.8 C 239.5 80.3 240.8 80 242.5 80 C 244.7 80 246.7 80.5 248.4 81.6 C 250 82.7 251.4 84.3 252.3 86.3 C 253.2 88.3 253.7 90.7 253.7 93.5 C 253.7 96.3 253.2 98.7 252.3 100.7 C 251.4 102.7 250 104.3 248.4 105.4 C 246.7 106.5 244.8 107 242.6 107 C 240.9 107 239.6 106.8 238.6 106.2 C 237.5 105.6 236.8 105 236.2 104.3 C 235.7 103.6 235.3 103 235 102.5 C 234.96 102.48 234.6 102.5 234.6 102.5 L 234.6 116.3 L 230.6 116.3 Z M 234.6 93.4 C 234.6 95.4 234.8 97.1 235.4 98.6 C 236 100.1 236.8 101.3 238 102.2 C 239.1 103 240.4 103.4 242.1 103.4 C 243.7 103.4 245.1 103 246.3 102.1 C 247.4 101.2 248.3 100 248.8 98.5 C 249.4 97 249.7 95.3 249.7 93.4 C 249.7 91.6 249.4 89.9 248.8 88.4 C 248.3 86.9 247.4 85.8 246.3 84.9 C 245.2 84 243.8 83.6 242.1 83.6 C 240.4 83.6 239 84 237.9 84.8 C 236.8 85.7 236 86.8 235.4 88.3 C 234.8 89.7 234.6 91.5 234.6 93.4 Z M 259.3 106.5 L 259.3 80.3 L 263.2 80.3 L 263.2 84.3 C 263.2 84.3 263.47 84.27 263.5 84.3 C 264 83 264.8 81.9 266.1 81.1 C 267.3 80.3 268.7 79.9 270.3 79.9 C 270.6 79.9 271 79.9 271.4 79.9 C 271.8 79.9 272.2 80 272.4 80 C 272.4 80 272.4 84.1 272.4 84.1 C 272.3 84 272 84 271.5 83.9 C 271 83.8 270.5 83.8 270 83.8 C 268.7 83.8 267.5 84.1 266.5 84.6 C 265.6 85.1 264.8 85.8 264.2 86.8 C 263.6 87.7 263.3 88.8 263.3 89.9 C 263.34 89.93 263.3 106.5 263.3 106.5 L 259.3 106.5 Z M 286.7 107 C 284.3 107 282.3 106.5 280.5 105.4 C 278.7 104.2 277.3 102.7 276.3 100.6 C 275.3 98.6 274.8 96.3 274.8 93.5 C 274.8 90.8 275.3 88.4 276.3 86.4 C 277.3 84.4 278.7 82.8 280.5 81.7 C 282.3 80.5 284.3 80 286.7 80 C 289.1 80 291.1 80.5 292.9 81.7 C 294.7 82.8 296.1 84.4 297.1 86.4 C 298.1 88.4 298.6 90.8 298.6 93.5 C 298.6 96.3 298.1 98.6 297.1 100.6 C 296.1 102.7 294.7 104.2 292.9 105.4 C 291.1 106.5 289.1 107 286.7 107 Z M 286.7 103.4 C 288.5 103.4 290 103 291.1 102.1 C 292.3 101.1 293.1 99.9 293.7 98.4 C 294.3 96.9 294.5 95.3 294.5 93.5 C 294.5 91.8 294.3 90.2 293.7 88.7 C 293.1 87.1 292.3 85.9 291.1 85 C 290 84.1 288.5 83.6 286.7 83.6 C 284.9 83.6 283.4 84.1 282.3 85 C 281.1 85.9 280.2 87.1 279.7 88.7 C 279.1 90.2 278.8 91.8 278.8 93.5 C 278.8 95.3 279.1 96.9 279.7 98.4 C 280.2 99.9 281.1 101.1 282.3 102.1 C 283.4 103 284.9 103.4 286.7 103.4 Z M 304.4 106.5 L 304.4 71.6 L 308.4 71.6 L 308.4 84.5 C 308.4 84.5 308.75 84.48 308.8 84.5 C 309 84 309.5 83.4 310 82.7 C 310.5 82 311.3 81.4 312.3 80.8 C 313.3 80.3 314.6 80 316.3 80 C 318.5 80 320.5 80.5 322.2 81.6 C 323.8 82.7 325.1 84.3 326.1 86.3 C 327 88.3 327.5 90.7 327.5 93.5 C 327.5 96.3 327 98.7 326.1 100.7 C 325.1 102.7 323.8 104.3 322.2 105.4 C 320.5 106.5 318.6 107 316.4 107 C 314.7 107 313.4 106.8 312.4 106.2 C 311.3 105.6 310.6 105 310 104.3 C 309.5 103.6 309 103 308.8 102.5 C 308.75 102.48 308.3 102.5 308.3 102.5 L 308.3 106.5 L 304.4 106.5 Z M 308.3 93.4 C 308.3 95.4 308.6 97.1 309.2 98.6 C 309.8 100.1 310.6 101.3 311.8 102.2 C 312.9 103 314.2 103.4 315.8 103.4 C 317.5 103.4 318.9 103 320.1 102.1 C 321.2 101.2 322 100 322.6 98.5 C 323.2 97 323.5 95.3 323.5 93.4 C 323.5 91.6 323.2 89.9 322.6 88.4 C 322.1 86.9 321.2 85.8 320.1 84.9 C 319 84 317.5 83.6 315.8 83.6 C 314.2 83.6 312.8 84 311.7 84.8 C 310.6 85.7 309.8 86.8 309.2 88.3 C 308.6 89.7 308.3 91.5 308.3 93.4 Z M 337.2 71.6 L 337.2 106.5 L 333.1 106.5 L 333.1 71.6 L 337.2 71.6 Z M 355 107 C 352.5 107 350.3 106.5 348.5 105.4 C 346.7 104.2 345.3 102.7 344.3 100.7 C 343.3 98.6 342.8 96.3 342.8 93.6 C 342.8 90.9 343.3 88.6 344.3 86.5 C 345.3 84.5 346.6 82.9 348.4 81.7 C 350.2 80.6 352.2 80 354.6 80 C 356 80 357.3 80.2 358.6 80.7 C 360 81.1 361.2 81.8 362.3 82.9 C 363.4 83.9 364.2 85.2 364.9 86.9 C 365.5 88.6 365.8 90.6 365.8 93.1 C 365.85 93.07 365.8 94.8 365.8 94.8 L 345.7 94.8 L 345.7 91.3 C 345.7 91.3 361.76 91.3 361.8 91.3 C 361.8 89.8 361.5 88.5 360.9 87.3 C 360.3 86.2 359.5 85.3 358.4 84.6 C 357.3 83.9 356.1 83.6 354.6 83.6 C 353 83.6 351.6 84 350.4 84.8 C 349.3 85.6 348.4 86.6 347.8 87.9 C 347.1 89.1 346.8 90.5 346.8 91.9 C 346.8 91.9 346.8 94.2 346.8 94.2 C 346.8 96.2 347.2 97.9 347.9 99.2 C 348.5 100.6 349.5 101.7 350.7 102.4 C 352 103.1 353.4 103.4 355 103.4 C 356.1 103.4 357 103.3 357.9 103 C 358.7 102.7 359.5 102.2 360.1 101.6 C 360.7 101 361.2 100.3 361.6 99.3 C 361.6 99.3 365.4 100.4 365.4 100.4 C 365 101.8 364.3 102.9 363.4 103.9 C 362.4 104.9 361.2 105.7 359.8 106.2 C 358.4 106.8 356.8 107 355 107 Z M 371.4 106.5 L 371.4 80.3 L 375.3 80.3 L 375.3 84.4 C 375.3 84.4 375.68 84.41 375.7 84.4 C 376.2 83 377.1 81.9 378.3 81.1 C 379.5 80.4 381 80 382.7 80 C 384.4 80 385.9 80.4 387 81.1 C 388.2 81.9 389.1 83 389.7 84.4 C 389.7 84.4 390 84.4 390 84.4 C 390.7 83.1 391.7 82 393 81.2 C 394.4 80.4 396 80 397.8 80 C 400.2 80 402.1 80.7 403.6 82.2 C 405.1 83.6 405.8 85.9 405.8 89 C 405.81 88.98 405.8 106.5 405.8 106.5 L 401.8 106.5 C 401.8 106.5 401.79 88.98 401.8 89 C 401.8 87 401.3 85.7 400.2 84.8 C 399.1 84 397.9 83.6 396.5 83.6 C 394.6 83.6 393.2 84.1 392.2 85.3 C 391.2 86.4 390.7 87.8 390.7 89.5 C 390.68 89.45 390.7 106.5 390.7 106.5 L 386.6 106.5 C 386.6 106.5 386.59 88.57 386.6 88.6 C 386.6 87.1 386.1 85.9 385.1 85 C 384.2 84 382.9 83.6 381.4 83.6 C 380.4 83.6 379.4 83.9 378.5 84.4 C 377.6 85 376.8 85.8 376.3 86.7 C 375.7 87.7 375.5 88.9 375.5 90.1 C 375.47 90.14 375.5 106.5 375.5 106.5 L 371.4 106.5 Z M 415.5 106.8 C 414.6 106.8 413.9 106.5 413.3 105.9 C 412.7 105.3 412.4 104.5 412.4 103.7 C 412.4 102.9 412.7 102.1 413.3 101.5 C 413.9 100.9 414.6 100.6 415.5 100.6 C 416.3 100.6 417 100.9 417.6 101.5 C 418.2 102.1 418.5 102.9 418.5 103.7 C 418.5 104.3 418.4 104.8 418.1 105.2 C 417.8 105.7 417.5 106.1 417 106.4 C 416.5 106.6 416 106.8 415.5 106.8 Z M 426.3 71.6 C 426.3 71.6 426.26 74.66 426.3 74.7 C 426.3 75.6 426.1 76.6 425.8 77.6 C 425.4 78.7 424.9 79.7 424.3 80.7 C 423.7 81.7 422.9 82.5 422 83.3 C 422 83.3 419.8 81.5 419.8 81.5 C 420.5 80.5 421.1 79.4 421.7 78.3 C 422.2 77.2 422.4 76 422.4 74.7 C 422.44 74.73 422.4 71.6 422.4 71.6 L 426.3 71.6 Z M 435 71.6 C 435 71.6 434.99 74.66 435 74.7 C 435 75.6 434.8 76.6 434.5 77.6 C 434.2 78.7 433.7 79.7 433 80.7 C 432.4 81.7 431.6 82.5 430.7 83.3 C 430.7 83.3 428.5 81.5 428.5 81.5 C 429.2 80.5 429.9 79.4 430.4 78.3 C 430.9 77.2 431.2 76 431.2 74.7 C 431.17 74.73 431.2 71.6 431.2 71.6 L 435 71.6 Z " stroke="none" fill="#ffffff"/>  </g>  <g id="Polygon119056">    <path d="M 2.3 22.5 C 2.3 22.5 2.32 19.43 2.3 19.4 C 2.3 18.5 2.5 17.5 2.8 16.5 C 3.2 15.4 3.6 14.4 4.3 13.4 C 4.9 12.4 5.7 11.6 6.6 10.8 C 6.6 10.8 8.8 12.6 8.8 12.6 C 8.1 13.6 7.5 14.7 6.9 15.8 C 6.4 16.9 6.1 18.1 6.1 19.4 C 6.14 19.36 6.1 22.5 6.1 22.5 L 2.3 22.5 Z M 11 22.5 C 11 22.5 11.05 19.43 11 19.4 C 11 18.5 11.2 17.5 11.5 16.5 C 11.9 15.4 12.4 14.4 13 13.4 C 13.7 12.4 14.4 11.6 15.3 10.8 C 15.3 10.8 17.5 12.6 17.5 12.6 C 16.8 13.6 16.2 14.7 15.7 15.8 C 15.1 16.9 14.9 18.1 14.9 19.4 C 14.86 19.36 14.9 22.5 14.9 22.5 L 11 22.5 Z M 51.6 29 C 51.6 32.7 50.9 35.9 49.6 38.6 C 48.2 41.3 46.4 43.3 44.1 44.8 C 41.8 46.3 39.1 47 36.1 47 C 33.2 47 30.5 46.3 28.2 44.8 C 25.9 43.3 24.1 41.3 22.7 38.6 C 21.4 35.9 20.7 32.7 20.7 29 C 20.7 25.4 21.4 22.2 22.7 19.5 C 24.1 16.8 25.9 14.8 28.2 13.3 C 30.5 11.8 33.2 11.1 36.1 11.1 C 39.1 11.1 41.8 11.8 44.1 13.3 C 46.4 14.8 48.2 16.8 49.6 19.5 C 50.9 22.2 51.6 25.4 51.6 29 Z M 47.5 29 C 47.5 26 47 23.5 46 21.4 C 44.9 19.3 43.6 17.7 41.9 16.7 C 40.2 15.6 38.3 15.1 36.1 15.1 C 34 15.1 32.1 15.6 30.4 16.7 C 28.7 17.7 27.3 19.3 26.3 21.4 C 25.3 23.5 24.8 26 24.8 29 C 24.8 32.1 25.3 34.6 26.3 36.7 C 27.3 38.8 28.7 40.4 30.4 41.4 C 32.1 42.5 34 43 36.1 43 C 38.3 43 40.2 42.5 41.9 41.4 C 43.6 40.4 44.9 38.8 46 36.7 C 47 34.6 47.5 32.1 47.5 29 Z M 74.2 35.8 C 74.2 35.8 74.2 20.3 74.2 20.3 L 78.2 20.3 L 78.2 46.5 L 74.2 46.5 L 74.2 42.1 C 74.2 42.1 73.93 42.07 73.9 42.1 C 73.3 43.4 72.4 44.5 71.1 45.5 C 69.8 46.4 68.1 46.8 66.2 46.8 C 64.5 46.8 63.1 46.5 61.8 45.8 C 60.5 45 59.5 43.9 58.8 42.5 C 58.1 41 57.7 39.2 57.7 37 C 57.7 36.95 57.7 20.3 57.7 20.3 L 61.7 20.3 C 61.7 20.3 61.73 36.68 61.7 36.7 C 61.7 38.6 62.3 40.1 63.3 41.3 C 64.4 42.4 65.8 43 67.5 43 C 68.5 43 69.5 42.7 70.5 42.2 C 71.6 41.7 72.4 40.9 73.1 39.8 C 73.8 38.8 74.2 37.4 74.2 35.8 Z M 85.1 46.5 L 85.1 20.3 L 88.9 20.3 L 88.9 24.3 C 88.9 24.3 89.21 24.27 89.2 24.3 C 89.7 23 90.6 21.9 91.8 21.1 C 93.1 20.3 94.5 19.9 96 19.9 C 96.3 19.9 96.7 19.9 97.1 19.9 C 97.6 19.9 97.9 20 98.1 20 C 98.1 20 98.1 24.1 98.1 24.1 C 98 24 97.7 24 97.2 23.9 C 96.7 23.8 96.2 23.8 95.7 23.8 C 94.4 23.8 93.3 24.1 92.3 24.6 C 91.3 25.1 90.5 25.8 89.9 26.8 C 89.4 27.7 89.1 28.8 89.1 29.9 C 89.07 29.93 89.1 46.5 89.1 46.5 L 85.1 46.5 Z M 118.4 46.5 L 114 46.5 L 126.8 11.6 L 131.1 11.6 L 144 46.5 L 139.5 46.5 L 129.1 17.1 L 128.8 17.1 L 118.4 46.5 Z M 120 32.9 L 137.9 32.9 L 137.9 36.6 L 120 36.6 L 120 32.9 Z M 153.1 11.6 L 153.1 46.5 L 148.9 46.5 L 148.9 11.6 L 153.1 11.6 Z M 185.2 47 C 182.7 47 180.6 46.5 178.8 45.3 C 177.1 44.1 175.7 42.6 174.7 40.5 C 173.8 38.5 173.3 36.2 173.3 33.5 C 173.3 30.9 173.8 28.5 174.8 26.5 C 175.8 24.5 177.1 22.9 178.9 21.7 C 180.7 20.6 182.7 20 185.1 20 C 186.9 20 188.6 20.3 190.1 21 C 191.6 21.7 192.8 22.6 193.7 23.9 C 194.7 25.1 195.2 26.5 195.5 28.2 C 195.5 28.2 191.4 28.2 191.4 28.2 C 191.1 27 190.5 25.9 189.4 25 C 188.4 24.1 186.9 23.6 185.2 23.6 C 183.6 23.6 182.2 24 181.1 24.8 C 179.9 25.6 179 26.8 178.3 28.2 C 177.7 29.7 177.3 31.4 177.3 33.4 C 177.3 35.4 177.6 37.2 178.3 38.7 C 178.9 40.2 179.8 41.4 181 42.2 C 182.2 43 183.6 43.4 185.2 43.4 C 186.2 43.4 187.2 43.3 188 42.9 C 188.9 42.5 189.6 42 190.2 41.3 C 190.8 40.6 191.2 39.8 191.4 38.9 C 191.4 38.9 195.5 38.9 195.5 38.9 C 195.2 40.4 194.7 41.8 193.8 43 C 192.9 44.3 191.7 45.2 190.3 46 C 188.8 46.7 187.1 47 185.2 47 Z M 208.6 47.1 C 206.9 47.1 205.4 46.8 204 46.2 C 202.7 45.5 201.6 44.6 200.8 43.4 C 200 42.2 199.6 40.8 199.6 39.1 C 199.6 37.6 199.9 36.3 200.5 35.4 C 201.1 34.5 201.9 33.7 202.9 33.2 C 203.9 32.7 205 32.3 206.2 32 C 207.4 31.7 208.6 31.5 209.8 31.4 C 211.4 31.2 212.7 31 213.7 30.9 C 214.7 30.8 215.4 30.6 215.9 30.3 C 216.3 30.1 216.5 29.6 216.5 29 C 216.5 29 216.5 28.8 216.5 28.8 C 216.5 27.2 216.1 25.9 215.2 24.9 C 214.3 24 212.9 23.5 211 23.5 C 209.1 23.5 207.6 23.9 206.5 24.8 C 205.4 25.6 204.6 26.5 204.2 27.5 C 204.2 27.5 200.4 26.1 200.4 26.1 C 201.1 24.5 202 23.3 203.1 22.4 C 204.3 21.5 205.5 20.9 206.9 20.5 C 208.2 20.2 209.6 20 210.9 20 C 211.7 20 212.7 20.1 213.8 20.3 C 214.9 20.5 215.9 20.9 217 21.5 C 218 22.1 218.9 23 219.5 24.3 C 220.2 25.5 220.6 27.2 220.6 29.3 C 220.57 29.25 220.6 46.5 220.6 46.5 L 216.5 46.5 L 216.5 43 C 216.5 43 216.34 42.95 216.3 43 C 216.1 43.5 215.6 44.1 215 44.8 C 214.3 45.4 213.5 46 212.4 46.4 C 211.4 46.9 210.1 47.1 208.6 47.1 Z M 209.2 43.5 C 210.8 43.5 212.1 43.2 213.2 42.6 C 214.3 41.9 215.1 41.1 215.7 40.1 C 216.3 39.2 216.5 38.1 216.5 37 C 216.5 37 216.5 33.3 216.5 33.3 C 216.4 33.5 216 33.7 215.4 33.9 C 214.9 34.1 214.2 34.2 213.4 34.3 C 212.7 34.4 212 34.5 211.3 34.6 C 210.6 34.7 210 34.8 209.6 34.8 C 208.5 35 207.6 35.2 206.7 35.5 C 205.8 35.8 205 36.2 204.5 36.8 C 203.9 37.4 203.7 38.3 203.7 39.3 C 203.7 40.7 204.2 41.7 205.2 42.4 C 206.3 43.1 207.6 43.5 209.2 43.5 Z M 231.4 30.8 C 231.38 30.75 231.4 46.5 231.4 46.5 L 227.4 46.5 L 227.4 20.3 L 231.2 20.3 L 231.2 24.4 C 231.2 24.4 231.58 24.41 231.6 24.4 C 232.2 23.1 233.1 22 234.4 21.2 C 235.6 20.4 237.2 20 239.2 20 C 241 20 242.5 20.3 243.9 21.1 C 245.2 21.8 246.2 22.9 247 24.3 C 247.7 25.8 248.1 27.6 248.1 29.9 C 248.08 29.86 248.1 46.5 248.1 46.5 L 244.1 46.5 C 244.1 46.5 244.06 30.14 244.1 30.1 C 244.1 28.1 243.5 26.5 242.5 25.3 C 241.4 24.2 239.9 23.6 238.1 23.6 C 236.8 23.6 235.6 23.9 234.6 24.4 C 233.6 25 232.8 25.8 232.2 26.9 C 231.7 27.9 231.4 29.2 231.4 30.8 Z M 287.5 26.2 C 287.5 26.2 283.9 27.2 283.9 27.2 C 283.6 26.6 283.3 26 282.9 25.4 C 282.4 24.9 281.8 24.4 281.1 24 C 280.3 23.6 279.4 23.5 278.2 23.5 C 276.6 23.5 275.3 23.8 274.2 24.6 C 273.2 25.3 272.6 26.2 272.6 27.3 C 272.6 28.3 273 29.1 273.7 29.7 C 274.4 30.3 275.6 30.8 277.1 31.2 C 277.1 31.2 281 32.1 281 32.1 C 283.4 32.7 285.1 33.5 286.2 34.7 C 287.4 35.9 288 37.4 288 39.2 C 288 40.7 287.5 42 286.7 43.2 C 285.8 44.4 284.6 45.3 283.1 46 C 281.6 46.7 279.8 47 277.7 47 C 275.1 47 272.9 46.5 271.1 45.3 C 269.4 44.1 268.2 42.5 267.8 40.2 C 267.8 40.2 271.6 39.3 271.6 39.3 C 272 40.7 272.7 41.7 273.7 42.4 C 274.7 43.1 276 43.5 277.7 43.5 C 279.5 43.5 281 43.1 282.1 42.3 C 283.3 41.5 283.8 40.5 283.8 39.4 C 283.8 38.5 283.5 37.7 282.9 37.1 C 282.2 36.5 281.2 36 279.9 35.7 C 279.9 35.7 275.6 34.7 275.6 34.7 C 273.2 34.1 271.4 33.3 270.3 32.1 C 269.2 30.9 268.6 29.4 268.6 27.5 C 268.6 26.1 269 24.8 269.9 23.6 C 270.7 22.5 271.8 21.6 273.3 20.9 C 274.7 20.3 276.4 20 278.2 20 C 280.8 20 282.8 20.5 284.3 21.7 C 285.8 22.8 286.9 24.3 287.5 26.2 Z M 303.9 47 C 301.5 47 299.5 46.5 297.7 45.4 C 295.9 44.2 294.5 42.7 293.5 40.6 C 292.5 38.6 292 36.3 292 33.5 C 292 30.8 292.5 28.4 293.5 26.4 C 294.5 24.4 295.9 22.8 297.7 21.7 C 299.5 20.5 301.5 20 303.9 20 C 306.3 20 308.3 20.5 310.1 21.7 C 311.9 22.8 313.3 24.4 314.3 26.4 C 315.3 28.4 315.8 30.8 315.8 33.5 C 315.8 36.3 315.3 38.6 314.3 40.6 C 313.3 42.7 311.9 44.2 310.1 45.4 C 308.3 46.5 306.3 47 303.9 47 Z M 303.9 43.4 C 305.7 43.4 307.2 43 308.3 42.1 C 309.5 41.1 310.3 39.9 310.9 38.4 C 311.5 36.9 311.7 35.3 311.7 33.5 C 311.7 31.8 311.5 30.2 310.9 28.7 C 310.3 27.1 309.5 25.9 308.3 25 C 307.2 24.1 305.7 23.6 303.9 23.6 C 302.1 23.6 300.6 24.1 299.5 25 C 298.3 25.9 297.4 27.1 296.9 28.7 C 296.3 30.2 296 31.8 296 33.5 C 296 35.3 296.3 36.9 296.9 38.4 C 297.4 39.9 298.3 41.1 299.5 42.1 C 300.6 43 302.1 43.4 303.9 43.4 Z M 325.4 11.6 L 325.4 46.5 L 321.4 46.5 L 321.4 11.6 L 325.4 11.6 Z M 353.4 20.3 L 343.7 46.5 L 339.6 46.5 L 329.9 20.3 L 334.3 20.3 L 341.5 41.2 L 341.8 41.2 L 349 20.3 L 353.4 20.3 Z M 367.7 47 C 365.2 47 363 46.5 361.2 45.4 C 359.4 44.2 358 42.7 357 40.7 C 356 38.6 355.5 36.3 355.5 33.6 C 355.5 30.9 356 28.6 357 26.5 C 358 24.5 359.4 22.9 361.1 21.7 C 362.9 20.6 365 20 367.3 20 C 368.7 20 370 20.2 371.4 20.7 C 372.7 21.1 373.9 21.8 375 22.9 C 376.1 23.9 377 25.2 377.6 26.9 C 378.3 28.6 378.6 30.6 378.6 33.1 C 378.58 33.07 378.6 34.8 378.6 34.8 L 358.4 34.8 L 358.4 31.3 C 358.4 31.3 374.49 31.3 374.5 31.3 C 374.5 29.8 374.2 28.5 373.6 27.3 C 373 26.2 372.2 25.3 371.1 24.6 C 370.1 23.9 368.8 23.6 367.3 23.6 C 365.7 23.6 364.3 24 363.2 24.8 C 362 25.6 361.1 26.6 360.5 27.9 C 359.9 29.1 359.6 30.5 359.6 31.9 C 359.6 31.9 359.6 34.2 359.6 34.2 C 359.6 36.2 359.9 37.9 360.6 39.2 C 361.3 40.6 362.2 41.7 363.5 42.4 C 364.7 43.1 366.1 43.4 367.7 43.4 C 368.8 43.4 369.8 43.3 370.6 43 C 371.5 42.7 372.2 42.2 372.8 41.6 C 373.5 41 373.9 40.3 374.3 39.3 C 374.3 39.3 378.2 40.4 378.2 40.4 C 377.8 41.8 377.1 42.9 376.1 43.9 C 375.1 44.9 374 45.7 372.5 46.2 C 371.1 46.8 369.5 47 367.7 47 Z M 400.8 56.3 C 400.1 56.3 399.5 56.3 399 56.2 C 398.5 56 398.1 55.9 397.9 55.8 C 397.9 55.8 398.9 52.3 398.9 52.3 C 399.9 52.5 400.7 52.6 401.5 52.6 C 402.2 52.5 402.9 52.2 403.5 51.6 C 404.1 51 404.6 50 405.1 48.7 C 405.11 48.68 405.9 46.6 405.9 46.6 L 396.2 20.3 L 400.5 20.3 L 407.8 41.2 L 408 41.2 L 415.3 20.3 L 419.6 20.3 C 419.6 20.3 408.52 50.32 408.5 50.3 C 408 51.7 407.4 52.8 406.7 53.7 C 405.9 54.6 405.1 55.2 404.1 55.7 C 403.1 56.1 402 56.3 400.8 56.3 Z M 433.7 47 C 431.3 47 429.2 46.5 427.5 45.4 C 425.7 44.2 424.3 42.7 423.3 40.6 C 422.3 38.6 421.8 36.3 421.8 33.5 C 421.8 30.8 422.3 28.4 423.3 26.4 C 424.3 24.4 425.7 22.8 427.5 21.7 C 429.2 20.5 431.3 20 433.7 20 C 436 20 438.1 20.5 439.9 21.7 C 441.7 22.8 443.1 24.4 444.1 26.4 C 445 28.4 445.5 30.8 445.5 33.5 C 445.5 36.3 445 38.6 444.1 40.6 C 443.1 42.7 441.7 44.2 439.9 45.4 C 438.1 46.5 436 47 433.7 47 Z M 433.7 43.4 C 435.5 43.4 437 43 438.1 42.1 C 439.3 41.1 440.1 39.9 440.7 38.4 C 441.2 36.9 441.5 35.3 441.5 33.5 C 441.5 31.8 441.2 30.2 440.7 28.7 C 440.1 27.1 439.3 25.9 438.1 25 C 437 24.1 435.5 23.6 433.7 23.6 C 431.9 23.6 430.4 24.1 429.3 25 C 428.1 25.9 427.2 27.1 426.7 28.7 C 426.1 30.2 425.8 31.8 425.8 33.5 C 425.8 35.3 426.1 36.9 426.7 38.4 C 427.2 39.9 428.1 41.1 429.3 42.1 C 430.4 43 431.9 43.4 433.7 43.4 Z M 467.5 35.8 C 467.47 35.8 467.5 20.3 467.5 20.3 L 471.5 20.3 L 471.5 46.5 L 467.5 46.5 L 467.5 42.1 C 467.5 42.1 467.2 42.07 467.2 42.1 C 466.6 43.4 465.6 44.5 464.3 45.5 C 463 46.4 461.4 46.8 459.4 46.8 C 457.8 46.8 456.3 46.5 455.1 45.8 C 453.8 45 452.8 43.9 452.1 42.5 C 451.3 41 451 39.2 451 37 C 450.97 36.95 451 20.3 451 20.3 L 455 20.3 C 455 20.3 454.99 36.68 455 36.7 C 455 38.6 455.5 40.1 456.6 41.3 C 457.7 42.4 459.1 43 460.7 43 C 461.7 43 462.7 42.7 463.8 42.2 C 464.8 41.7 465.7 40.9 466.4 39.8 C 467.1 38.8 467.5 37.4 467.5 35.8 Z M 478.3 46.5 L 478.3 20.3 L 482.2 20.3 L 482.2 24.3 C 482.2 24.3 482.48 24.27 482.5 24.3 C 483 23 483.8 21.9 485.1 21.1 C 486.3 20.3 487.7 19.9 489.3 19.9 C 489.6 19.9 490 19.9 490.4 19.9 C 490.8 19.9 491.2 20 491.4 20 C 491.4 20 491.4 24.1 491.4 24.1 C 491.3 24 491 24 490.5 23.9 C 490 23.8 489.5 23.8 489 23.8 C 487.7 23.8 486.6 24.1 485.6 24.6 C 484.6 25.1 483.8 25.8 483.2 26.8 C 482.6 27.7 482.3 28.8 482.3 29.9 C 482.34 29.93 482.3 46.5 482.3 46.5 L 478.3 46.5 Z " stroke="none" fill="#ffffff"/>  </g></svg>