<?xml version="1.0" standalone="no"?><!DOCTYPE svg PUBLIC "-//W3C//DTD SVG 1.1//EN" "http://www.w3.org/Graphics/SVG/1.1/DTD/svg11.dtd"><svg xmlns="http://www.w3.org/2000/svg" version="1.1" width="163.3px" height="54.7px" viewBox="0 -13 163.3 54.7" style="top:-13px">  <desc>Continue</desc>  <defs/>  <g id="Polygon111264">    <path d="M 22.6 8.1 C 22.6 8.1 17.6 8.1 17.6 8.1 C 17.5 7.5 17.3 6.9 17 6.4 C 16.7 5.9 16.4 5.5 15.9 5.1 C 15.5 4.8 15 4.5 14.4 4.3 C 13.9 4.1 13.2 4 12.6 4 C 11.4 4 10.3 4.3 9.4 4.9 C 8.5 5.5 7.8 6.4 7.3 7.5 C 6.8 8.6 6.6 10 6.6 11.6 C 6.6 13.3 6.9 14.7 7.3 15.8 C 7.8 16.9 8.5 17.8 9.4 18.4 C 10.3 19 11.4 19.2 12.5 19.2 C 13.2 19.2 13.8 19.2 14.4 19 C 14.9 18.8 15.4 18.5 15.9 18.2 C 16.3 17.9 16.7 17.5 17 17 C 17.3 16.5 17.5 15.9 17.6 15.3 C 17.6 15.3 22.6 15.3 22.6 15.3 C 22.4 16.4 22.1 17.4 21.6 18.4 C 21.1 19.4 20.4 20.3 19.5 21.1 C 18.7 21.9 17.7 22.5 16.5 22.9 C 15.3 23.4 13.9 23.6 12.5 23.6 C 10.4 23.6 8.5 23.1 6.9 22.2 C 5.3 21.2 4 19.9 3 18.1 C 2.1 16.3 1.6 14.2 1.6 11.6 C 1.6 9.1 2.1 6.9 3 5.2 C 4 3.4 5.3 2 6.9 1.1 C 8.6 0.1 10.4 -0.3 12.5 -0.3 C 13.8 -0.3 15.1 -0.1 16.2 0.3 C 17.4 0.6 18.4 1.2 19.3 1.9 C 20.2 2.6 20.9 3.5 21.5 4.6 C 22 5.6 22.4 6.8 22.6 8.1 Z M 33.7 23.6 C 32 23.6 30.4 23.2 29.1 22.5 C 27.9 21.7 26.9 20.7 26.2 19.3 C 25.5 18 25.1 16.4 25.1 14.6 C 25.1 12.8 25.5 11.2 26.2 9.9 C 26.9 8.5 27.9 7.5 29.1 6.7 C 30.4 6 32 5.6 33.7 5.6 C 35.5 5.6 37 6 38.3 6.7 C 39.6 7.5 40.6 8.5 41.3 9.9 C 42 11.2 42.3 12.8 42.3 14.6 C 42.3 16.4 42 18 41.3 19.3 C 40.6 20.7 39.6 21.7 38.3 22.5 C 37 23.2 35.5 23.6 33.7 23.6 Z M 33.7 19.9 C 34.5 19.9 35.2 19.6 35.8 19.2 C 36.3 18.7 36.7 18.1 37 17.3 C 37.2 16.5 37.4 15.6 37.4 14.6 C 37.4 13.6 37.2 12.7 37 11.9 C 36.7 11.1 36.3 10.4 35.8 10 C 35.2 9.5 34.5 9.3 33.7 9.3 C 32.9 9.3 32.2 9.5 31.7 10 C 31.2 10.4 30.7 11.1 30.5 11.9 C 30.2 12.7 30 13.6 30 14.6 C 30 15.6 30.2 16.5 30.5 17.3 C 30.7 18.1 31.2 18.7 31.7 19.2 C 32.2 19.6 32.9 19.9 33.7 19.9 Z M 50.2 13.2 C 50.22 13.18 50.2 23.3 50.2 23.3 L 45.4 23.3 L 45.4 5.8 L 50 5.8 L 50 8.9 C 50 8.9 50.2 8.9 50.2 8.9 C 50.6 7.9 51.2 7.1 52.1 6.5 C 53.1 5.9 54.2 5.6 55.4 5.6 C 56.7 5.6 57.7 5.9 58.6 6.4 C 59.5 6.9 60.2 7.7 60.7 8.7 C 61.2 9.6 61.5 10.8 61.5 12.2 C 61.47 12.16 61.5 23.3 61.5 23.3 L 56.6 23.3 C 56.6 23.3 56.63 13.02 56.6 13 C 56.6 12 56.4 11.1 55.8 10.5 C 55.3 9.9 54.5 9.6 53.5 9.6 C 52.9 9.6 52.3 9.8 51.8 10 C 51.3 10.3 50.9 10.7 50.6 11.3 C 50.4 11.8 50.2 12.4 50.2 13.2 Z M 74.1 5.8 L 74.1 9.5 L 63.6 9.5 L 63.6 5.8 L 74.1 5.8 Z M 66 1.6 L 70.9 1.6 C 70.9 1.6 70.86 17.91 70.9 17.9 C 70.9 18.4 70.9 18.7 71.1 18.9 C 71.2 19.2 71.4 19.4 71.6 19.5 C 71.9 19.6 72.2 19.6 72.5 19.6 C 72.7 19.6 73 19.6 73.2 19.6 C 73.4 19.5 73.6 19.5 73.7 19.5 C 73.7 19.5 74.5 23.1 74.5 23.1 C 74.2 23.1 73.9 23.2 73.4 23.3 C 73 23.4 72.5 23.5 71.8 23.5 C 70.7 23.6 69.7 23.4 68.8 23 C 67.9 22.7 67.2 22.1 66.7 21.4 C 66.3 20.6 66 19.7 66 18.5 C 66.02 18.55 66 1.6 66 1.6 Z M 77.2 23.3 L 77.2 5.8 L 82 5.8 L 82 23.3 L 77.2 23.3 Z M 79.6 3.6 C 78.9 3.6 78.3 3.3 77.7 2.9 C 77.2 2.4 77 1.8 77 1.1 C 77 0.5 77.2 -0.1 77.7 -0.6 C 78.3 -1.1 78.9 -1.3 79.6 -1.3 C 80.3 -1.3 80.9 -1.1 81.4 -0.6 C 81.9 -0.1 82.2 0.4 82.2 1.1 C 82.2 1.8 81.9 2.4 81.4 2.8 C 80.9 3.3 80.3 3.6 79.6 3.6 Z M 90.7 13.2 C 90.74 13.18 90.7 23.3 90.7 23.3 L 85.9 23.3 L 85.9 5.8 L 90.5 5.8 L 90.5 8.9 C 90.5 8.9 90.71 8.9 90.7 8.9 C 91.1 7.9 91.7 7.1 92.7 6.5 C 93.6 5.9 94.7 5.6 96 5.6 C 97.2 5.6 98.2 5.9 99.1 6.4 C 100 6.9 100.7 7.7 101.2 8.7 C 101.7 9.6 102 10.8 102 12.2 C 101.99 12.16 102 23.3 102 23.3 L 97.1 23.3 C 97.1 23.3 97.14 13.02 97.1 13 C 97.2 12 96.9 11.1 96.3 10.5 C 95.8 9.9 95 9.6 94 9.6 C 93.4 9.6 92.8 9.8 92.3 10 C 91.8 10.3 91.4 10.7 91.2 11.3 C 90.9 11.8 90.7 12.4 90.7 13.2 Z M 116.9 15.8 C 116.88 15.84 116.9 5.8 116.9 5.8 L 121.7 5.8 L 121.7 23.3 L 117.1 23.3 L 117.1 20.1 C 117.1 20.1 116.89 20.1 116.9 20.1 C 116.5 21.1 115.8 21.9 114.9 22.6 C 114 23.2 112.9 23.5 111.6 23.5 C 110.4 23.5 109.4 23.2 108.5 22.7 C 107.6 22.2 106.9 21.4 106.4 20.4 C 105.9 19.5 105.7 18.3 105.7 16.9 C 105.69 16.93 105.7 5.8 105.7 5.8 L 110.5 5.8 C 110.5 5.8 110.53 16.07 110.5 16.1 C 110.5 17.1 110.8 17.9 111.4 18.5 C 111.9 19.1 112.6 19.4 113.6 19.4 C 114.1 19.4 114.7 19.3 115.2 19 C 115.7 18.7 116.1 18.3 116.4 17.8 C 116.7 17.3 116.9 16.6 116.9 15.8 Z M 133.5 23.6 C 131.7 23.6 130.2 23.2 128.9 22.5 C 127.6 21.8 126.6 20.7 125.9 19.4 C 125.2 18.1 124.8 16.5 124.8 14.6 C 124.8 12.8 125.2 11.3 125.9 9.9 C 126.6 8.5 127.6 7.5 128.8 6.7 C 130.1 6 131.6 5.6 133.3 5.6 C 134.5 5.6 135.5 5.8 136.5 6.1 C 137.5 6.5 138.4 7.1 139.1 7.8 C 139.9 8.5 140.5 9.5 140.9 10.6 C 141.3 11.7 141.5 13 141.5 14.5 C 141.51 14.45 141.5 15.8 141.5 15.8 L 126.8 15.8 L 126.8 12.8 C 126.8 12.8 136.96 12.78 137 12.8 C 137 12.1 136.8 11.5 136.5 10.9 C 136.2 10.4 135.8 10 135.2 9.7 C 134.7 9.4 134.1 9.2 133.4 9.2 C 132.7 9.2 132 9.4 131.4 9.7 C 130.9 10 130.4 10.5 130.1 11.1 C 129.8 11.6 129.6 12.3 129.6 12.9 C 129.6 12.9 129.6 15.8 129.6 15.8 C 129.6 16.7 129.8 17.4 130.1 18 C 130.4 18.7 130.9 19.1 131.5 19.5 C 132.1 19.8 132.8 20 133.6 20 C 134.1 20 134.6 19.9 135.1 19.8 C 135.5 19.6 135.9 19.4 136.2 19.1 C 136.5 18.8 136.8 18.4 136.9 18 C 136.9 18 141.4 18.3 141.4 18.3 C 141.2 19.3 140.7 20.3 140 21.1 C 139.3 21.9 138.4 22.5 137.3 22.9 C 136.2 23.4 134.9 23.6 133.5 23.6 Z " stroke="none" fill="#ffffff"/>  </g></svg>