<?xml version="1.0" standalone="no"?><!DOCTYPE svg PUBLIC "-//W3C//DTD SVG 1.1//EN" "http://www.w3.org/Graphics/SVG/1.1/DTD/svg11.dtd"><svg xmlns="http://www.w3.org/2000/svg" version="1.1" width="61px" height="18.4px" viewBox="0 -5 61 18.4" style="top:-5px">  <desc>16 / 19</desc>  <defs/>  <g id="Polygon124927">    <path d="M 18.3 0 L 18.3 7.3 L 17.4 7.3 L 17.4 0.9 L 17.4 0.9 L 15.6 2.1 L 15.6 1.2 L 17.4 0 L 18.3 0 Z M 22.7 7.4 C 22.4 7.4 22.1 7.3 21.8 7.2 C 21.5 7.1 21.3 6.9 21 6.6 C 20.8 6.4 20.6 6 20.4 5.6 C 20.3 5.2 20.2 4.6 20.2 3.9 C 20.2 3.3 20.3 2.7 20.4 2.2 C 20.5 1.7 20.7 1.3 20.9 0.9 C 21.1 0.6 21.4 0.3 21.7 0.2 C 22.1 0 22.4 -0.1 22.8 -0.1 C 23.3 -0.1 23.6 0 23.9 0.1 C 24.3 0.3 24.5 0.5 24.7 0.8 C 24.9 1.1 25 1.4 25.1 1.8 C 25.1 1.8 24.2 1.8 24.2 1.8 C 24.2 1.5 24 1.2 23.8 1 C 23.5 0.8 23.2 0.7 22.8 0.7 C 22.3 0.7 21.8 0.9 21.5 1.4 C 21.2 1.9 21 2.6 21 3.5 C 21 3.5 21.1 3.5 21.1 3.5 C 21.2 3.3 21.4 3.1 21.6 3 C 21.7 2.8 21.9 2.7 22.2 2.6 C 22.4 2.6 22.6 2.5 22.9 2.5 C 23.3 2.5 23.7 2.6 24 2.8 C 24.4 3 24.6 3.3 24.8 3.7 C 25.1 4 25.2 4.5 25.2 4.9 C 25.2 5.4 25.1 5.8 24.9 6.2 C 24.7 6.5 24.4 6.8 24 7.1 C 23.6 7.3 23.2 7.4 22.7 7.4 Z M 22.7 6.6 C 23 6.6 23.3 6.5 23.5 6.4 C 23.8 6.2 24 6 24.1 5.8 C 24.2 5.5 24.3 5.2 24.3 4.9 C 24.3 4.6 24.2 4.4 24.1 4.1 C 24 3.9 23.8 3.7 23.6 3.5 C 23.3 3.4 23.1 3.3 22.8 3.3 C 22.5 3.3 22.3 3.3 22.1 3.4 C 21.9 3.5 21.8 3.6 21.6 3.8 C 21.5 3.9 21.4 4.1 21.3 4.3 C 21.2 4.5 21.2 4.7 21.2 4.9 C 21.2 5.2 21.2 5.5 21.4 5.8 C 21.5 6 21.7 6.2 21.9 6.4 C 22.2 6.5 22.4 6.6 22.7 6.6 Z M 32 -0.3 L 29.6 8.4 L 28.8 8.4 L 31.2 -0.3 L 32 -0.3 Z M 38.3 0 L 38.3 7.3 L 37.4 7.3 L 37.4 0.9 L 37.4 0.9 L 35.6 2.1 L 35.6 1.2 L 37.4 0 L 38.3 0 Z M 42.6 -0.1 C 42.9 -0.1 43.2 0 43.5 0.1 C 43.8 0.2 44.1 0.4 44.3 0.6 C 44.6 0.9 44.8 1.2 44.9 1.7 C 45.1 2.1 45.1 2.7 45.1 3.3 C 45.1 4 45.1 4.6 45 5.1 C 44.8 5.6 44.7 6 44.4 6.3 C 44.2 6.7 43.9 6.9 43.6 7.1 C 43.3 7.3 42.9 7.4 42.5 7.4 C 42.1 7.4 41.7 7.3 41.4 7.1 C 41.1 7 40.8 6.7 40.6 6.5 C 40.4 6.2 40.3 5.8 40.2 5.4 C 40.2 5.4 41.1 5.4 41.1 5.4 C 41.2 5.8 41.3 6 41.6 6.3 C 41.8 6.5 42.1 6.6 42.5 6.6 C 43.1 6.6 43.5 6.3 43.8 5.9 C 44.2 5.4 44.3 4.7 44.3 3.8 C 44.3 3.8 44.3 3.8 44.3 3.8 C 44.1 4 44 4.1 43.8 4.3 C 43.6 4.4 43.4 4.5 43.2 4.6 C 43 4.7 42.7 4.7 42.5 4.7 C 42.1 4.7 41.7 4.6 41.3 4.4 C 41 4.2 40.7 3.9 40.5 3.6 C 40.3 3.2 40.2 2.8 40.2 2.3 C 40.2 1.9 40.3 1.5 40.5 1.1 C 40.7 0.7 41 0.4 41.3 0.2 C 41.7 0 42.1 -0.1 42.6 -0.1 Z M 42.6 0.7 C 42.3 0.7 42 0.8 41.8 0.9 C 41.6 1.1 41.4 1.3 41.2 1.5 C 41.1 1.8 41 2 41 2.3 C 41 2.6 41.1 2.9 41.2 3.2 C 41.4 3.4 41.6 3.6 41.8 3.7 C 42 3.9 42.3 4 42.6 4 C 42.8 4 43 3.9 43.2 3.8 C 43.4 3.7 43.6 3.6 43.7 3.5 C 43.9 3.3 44 3.1 44.1 2.9 C 44.1 2.7 44.2 2.5 44.2 2.3 C 44.2 2 44.1 1.8 44 1.5 C 43.8 1.3 43.7 1.1 43.4 0.9 C 43.2 0.8 42.9 0.7 42.6 0.7 Z " stroke="none" fill="#ffffff"/>  </g></svg>