<?xml version="1.0" standalone="no"?><!DOCTYPE svg PUBLIC "-//W3C//DTD SVG 1.1//EN" "http://www.w3.org/Graphics/SVG/1.1/DTD/svg11.dtd"><svg xmlns="http://www.w3.org/2000/svg" version="1.1" width="275px" height="58.8px" viewBox="0 -8 275 58.8" style="top:-8px">  <desc>Be the next. With Anaplan Intelligence.</desc>  <defs/>  <g id="Polygon106295">    <path d="M 4.5 38.5 L 0.4 24 L 3.7 24 L 6.1 34.1 L 6.3 34.1 L 8.9 24 L 11.8 24 L 14.4 34.1 L 14.6 34.1 L 17 24 L 20.3 24 L 16.2 38.5 L 13.2 38.5 L 10.4 29 L 10.3 29 L 7.5 38.5 L 4.5 38.5 Z M 22 38.5 L 22 27.6 L 25 27.6 L 25 38.5 L 22 38.5 Z M 23.5 26.2 C 23.1 26.2 22.7 26.1 22.4 25.8 C 22.1 25.5 21.9 25.1 21.9 24.7 C 21.9 24.3 22.1 23.9 22.4 23.6 C 22.7 23.3 23.1 23.2 23.5 23.2 C 24 23.2 24.4 23.3 24.7 23.6 C 25 23.9 25.2 24.3 25.2 24.7 C 25.2 25.1 25 25.5 24.7 25.8 C 24.4 26.1 24 26.2 23.5 26.2 Z M 33.2 27.6 L 33.2 29.9 L 26.6 29.9 L 26.6 27.6 L 33.2 27.6 Z M 28.1 25 L 31.1 25 C 31.1 25 31.1 35.19 31.1 35.2 C 31.1 35.5 31.1 35.7 31.2 35.8 C 31.3 36 31.4 36.1 31.6 36.2 C 31.7 36.2 31.9 36.3 32.1 36.3 C 32.3 36.3 32.4 36.2 32.6 36.2 C 32.7 36.2 32.8 36.2 32.9 36.2 C 32.9 36.2 33.4 38.4 33.4 38.4 C 33.2 38.5 33 38.5 32.7 38.6 C 32.4 38.6 32.1 38.7 31.7 38.7 C 31 38.7 30.3 38.6 29.8 38.4 C 29.3 38.2 28.8 37.8 28.5 37.4 C 28.2 36.9 28.1 36.3 28.1 35.6 C 28.08 35.59 28.1 25 28.1 25 Z M 38.1 32.2 C 38.11 32.24 38.1 38.5 38.1 38.5 L 35.1 38.5 L 35.1 24 L 38 24 L 38 29.6 C 38 29.6 38.16 29.56 38.2 29.6 C 38.4 28.9 38.8 28.4 39.3 28 C 39.9 27.7 40.6 27.5 41.4 27.5 C 42.2 27.5 42.8 27.7 43.4 28 C 44 28.3 44.4 28.8 44.7 29.4 C 45 30 45.2 30.7 45.2 31.6 C 45.19 31.6 45.2 38.5 45.2 38.5 L 42.2 38.5 C 42.2 38.5 42.16 32.14 42.2 32.1 C 42.2 31.5 42 30.9 41.7 30.6 C 41.3 30.2 40.8 30 40.2 30 C 39.8 30 39.4 30.1 39.1 30.3 C 38.8 30.4 38.6 30.7 38.4 31 C 38.2 31.4 38.1 31.8 38.1 32.2 Z M 54.8 38.5 L 51.5 38.5 L 56.5 24 L 60.5 24 L 65.5 38.5 L 62.2 38.5 L 58.5 27.3 L 58.4 27.3 L 54.8 38.5 Z M 54.6 32.8 L 62.4 32.8 L 62.4 35.2 L 54.6 35.2 L 54.6 32.8 Z M 70.2 32.2 C 70.18 32.24 70.2 38.5 70.2 38.5 L 67.2 38.5 L 67.2 27.6 L 70 27.6 L 70 29.6 C 70 29.6 70.16 29.56 70.2 29.6 C 70.4 28.9 70.8 28.4 71.4 28.1 C 71.9 27.7 72.6 27.5 73.4 27.5 C 74.2 27.5 74.9 27.7 75.4 28 C 76 28.3 76.4 28.8 76.7 29.4 C 77.1 30 77.2 30.8 77.2 31.6 C 77.21 31.6 77.2 38.5 77.2 38.5 L 74.2 38.5 C 74.2 38.5 74.18 32.14 74.2 32.1 C 74.2 31.5 74 30.9 73.7 30.6 C 73.3 30.2 72.9 30 72.2 30 C 71.8 30 71.5 30.1 71.2 30.3 C 70.9 30.4 70.6 30.7 70.4 31 C 70.3 31.4 70.2 31.8 70.2 32.2 Z M 82.7 38.8 C 82 38.8 81.4 38.6 80.8 38.4 C 80.3 38.1 79.9 37.8 79.6 37.3 C 79.2 36.8 79.1 36.2 79.1 35.5 C 79.1 34.9 79.2 34.4 79.4 34 C 79.6 33.6 79.9 33.2 80.3 33 C 80.7 32.7 81.1 32.5 81.6 32.4 C 82.1 32.3 82.6 32.2 83.2 32.1 C 83.8 32.1 84.3 32 84.7 32 C 85.1 31.9 85.4 31.8 85.6 31.7 C 85.7 31.6 85.8 31.4 85.8 31.2 C 85.8 31.2 85.8 31.1 85.8 31.1 C 85.8 30.7 85.7 30.3 85.4 30.1 C 85.1 29.8 84.7 29.7 84.2 29.7 C 83.7 29.7 83.2 29.8 82.9 30.1 C 82.6 30.3 82.4 30.6 82.3 31 C 82.3 31 79.5 30.7 79.5 30.7 C 79.6 30.1 79.9 29.5 80.3 29 C 80.7 28.5 81.3 28.2 81.9 27.9 C 82.6 27.6 83.3 27.5 84.2 27.5 C 84.8 27.5 85.4 27.6 86 27.7 C 86.5 27.8 87 28.1 87.4 28.4 C 87.9 28.7 88.2 29 88.5 29.5 C 88.7 30 88.8 30.5 88.8 31.2 C 88.85 31.19 88.8 38.5 88.8 38.5 L 86 38.5 L 86 37 C 86 37 85.89 37.03 85.9 37 C 85.7 37.4 85.5 37.7 85.2 37.9 C 84.9 38.2 84.5 38.4 84.1 38.5 C 83.7 38.7 83.2 38.8 82.7 38.8 Z M 83.6 36.7 C 84 36.7 84.4 36.6 84.7 36.4 C 85.1 36.2 85.4 36 85.5 35.7 C 85.7 35.4 85.8 35 85.8 34.6 C 85.8 34.6 85.8 33.5 85.8 33.5 C 85.7 33.6 85.6 33.6 85.5 33.7 C 85.3 33.7 85.1 33.8 84.9 33.8 C 84.7 33.8 84.5 33.9 84.3 33.9 C 84.1 33.9 83.9 34 83.7 34 C 83.4 34 83.1 34.1 82.8 34.2 C 82.5 34.3 82.3 34.5 82.2 34.7 C 82 34.9 82 35.1 82 35.4 C 82 35.8 82.1 36.1 82.4 36.3 C 82.7 36.6 83.1 36.7 83.6 36.7 Z M 91.3 42.6 L 91.3 27.6 L 94.3 27.6 L 94.3 29.5 C 94.3 29.5 94.42 29.47 94.4 29.5 C 94.6 29.2 94.7 28.9 95 28.6 C 95.2 28.3 95.6 28 96 27.8 C 96.4 27.6 96.9 27.5 97.5 27.5 C 98.3 27.5 99.1 27.7 99.7 28.1 C 100.4 28.5 100.9 29.2 101.3 30 C 101.7 30.8 101.9 31.9 101.9 33.1 C 101.9 34.3 101.7 35.3 101.4 36.2 C 101 37 100.4 37.7 99.8 38.1 C 99.1 38.5 98.3 38.7 97.5 38.7 C 96.9 38.7 96.4 38.6 96 38.4 C 95.6 38.2 95.3 38 95 37.7 C 94.8 37.4 94.6 37.1 94.4 36.8 C 94.42 36.8 94.3 36.8 94.3 36.8 L 94.3 42.6 L 91.3 42.6 Z M 94.3 33.1 C 94.3 33.7 94.4 34.3 94.5 34.8 C 94.7 35.3 95 35.6 95.3 35.9 C 95.7 36.2 96.1 36.3 96.6 36.3 C 97 36.3 97.5 36.2 97.8 35.9 C 98.1 35.6 98.4 35.3 98.6 34.8 C 98.8 34.3 98.8 33.7 98.8 33.1 C 98.8 32.5 98.8 31.9 98.6 31.4 C 98.4 31 98.2 30.6 97.8 30.3 C 97.5 30 97.1 29.9 96.6 29.9 C 96.1 29.9 95.6 30 95.3 30.3 C 95 30.6 94.7 30.9 94.5 31.4 C 94.4 31.9 94.3 32.4 94.3 33.1 Z M 107.1 24 L 107.1 38.5 L 104 38.5 L 104 24 L 107.1 24 Z M 112.6 38.8 C 111.9 38.8 111.3 38.6 110.8 38.4 C 110.2 38.1 109.8 37.8 109.5 37.3 C 109.2 36.8 109 36.2 109 35.5 C 109 34.9 109.1 34.4 109.3 34 C 109.6 33.6 109.9 33.2 110.2 33 C 110.6 32.7 111.1 32.5 111.6 32.4 C 112 32.3 112.6 32.2 113.1 32.1 C 113.7 32.1 114.2 32 114.6 32 C 115 31.9 115.3 31.8 115.5 31.7 C 115.7 31.6 115.7 31.4 115.7 31.2 C 115.7 31.2 115.7 31.1 115.7 31.1 C 115.7 30.7 115.6 30.3 115.3 30.1 C 115 29.8 114.6 29.7 114.1 29.7 C 113.6 29.7 113.1 29.8 112.8 30.1 C 112.5 30.3 112.3 30.6 112.2 31 C 112.2 31 109.4 30.7 109.4 30.7 C 109.5 30.1 109.8 29.5 110.2 29 C 110.6 28.5 111.2 28.2 111.8 27.9 C 112.5 27.6 113.3 27.5 114.1 27.5 C 114.7 27.5 115.3 27.6 115.9 27.7 C 116.4 27.8 116.9 28.1 117.4 28.4 C 117.8 28.7 118.1 29 118.4 29.5 C 118.6 30 118.8 30.5 118.8 31.2 C 118.77 31.19 118.8 38.5 118.8 38.5 L 115.9 38.5 L 115.9 37 C 115.9 37 115.81 37.03 115.8 37 C 115.6 37.4 115.4 37.7 115.1 37.9 C 114.8 38.2 114.5 38.4 114.1 38.5 C 113.6 38.7 113.2 38.8 112.6 38.8 Z M 113.5 36.7 C 113.9 36.7 114.3 36.6 114.7 36.4 C 115 36.2 115.3 36 115.5 35.7 C 115.7 35.4 115.8 35 115.8 34.6 C 115.8 34.6 115.8 33.5 115.8 33.5 C 115.7 33.6 115.5 33.6 115.4 33.7 C 115.2 33.7 115 33.8 114.8 33.8 C 114.6 33.8 114.4 33.9 114.2 33.9 C 114 33.9 113.8 34 113.7 34 C 113.3 34 113 34.1 112.7 34.2 C 112.5 34.3 112.3 34.5 112.1 34.7 C 112 34.9 111.9 35.1 111.9 35.4 C 111.9 35.8 112 36.1 112.3 36.3 C 112.6 36.6 113 36.7 113.5 36.7 Z M 124.2 32.2 C 124.25 32.24 124.2 38.5 124.2 38.5 L 121.2 38.5 L 121.2 27.6 L 124.1 27.6 L 124.1 29.6 C 124.1 29.6 124.23 29.56 124.2 29.6 C 124.5 28.9 124.9 28.4 125.4 28.1 C 126 27.7 126.7 27.5 127.5 27.5 C 128.3 27.5 128.9 27.7 129.5 28 C 130.1 28.3 130.5 28.8 130.8 29.4 C 131.1 30 131.3 30.8 131.3 31.6 C 131.28 31.6 131.3 38.5 131.3 38.5 L 128.3 38.5 C 128.3 38.5 128.25 32.14 128.3 32.1 C 128.3 31.5 128.1 30.9 127.7 30.6 C 127.4 30.2 126.9 30 126.3 30 C 125.9 30 125.5 30.1 125.2 30.3 C 124.9 30.4 124.7 30.7 124.5 31 C 124.3 31.4 124.3 31.8 124.2 32.2 Z M 141.4 24 L 141.4 38.5 L 138.4 38.5 L 138.4 24 L 141.4 24 Z M 147.1 32.2 C 147.15 32.24 147.1 38.5 147.1 38.5 L 144.1 38.5 L 144.1 27.6 L 147 27.6 L 147 29.6 C 147 29.6 147.13 29.56 147.1 29.6 C 147.4 28.9 147.8 28.4 148.3 28.1 C 148.9 27.7 149.6 27.5 150.4 27.5 C 151.2 27.5 151.8 27.7 152.4 28 C 153 28.3 153.4 28.8 153.7 29.4 C 154 30 154.2 30.8 154.2 31.6 C 154.18 31.6 154.2 38.5 154.2 38.5 L 151.2 38.5 C 151.2 38.5 151.15 32.14 151.2 32.1 C 151.2 31.5 151 30.9 150.6 30.6 C 150.3 30.2 149.8 30 149.2 30 C 148.8 30 148.4 30.1 148.1 30.3 C 147.8 30.4 147.6 30.7 147.4 31 C 147.2 31.4 147.2 31.8 147.1 32.2 Z M 162.2 27.6 L 162.2 29.9 L 155.6 29.9 L 155.6 27.6 L 162.2 27.6 Z M 157.1 25 L 160.1 25 C 160.1 25 160.12 35.19 160.1 35.2 C 160.1 35.5 160.2 35.7 160.2 35.8 C 160.3 36 160.5 36.1 160.6 36.2 C 160.8 36.2 160.9 36.3 161.1 36.3 C 161.3 36.3 161.4 36.2 161.6 36.2 C 161.7 36.2 161.8 36.2 161.9 36.2 C 161.9 36.2 162.4 38.4 162.4 38.4 C 162.2 38.5 162 38.5 161.7 38.6 C 161.5 38.6 161.1 38.7 160.7 38.7 C 160 38.7 159.4 38.6 158.8 38.4 C 158.3 38.2 157.8 37.8 157.5 37.4 C 157.2 36.9 157.1 36.3 157.1 35.6 C 157.1 35.59 157.1 25 157.1 25 Z M 168.8 38.8 C 167.7 38.8 166.7 38.5 165.9 38.1 C 165.1 37.6 164.5 37 164 36.1 C 163.6 35.3 163.4 34.3 163.4 33.1 C 163.4 32 163.6 31 164 30.2 C 164.5 29.3 165.1 28.7 165.9 28.2 C 166.7 27.7 167.6 27.5 168.7 27.5 C 169.4 27.5 170 27.6 170.7 27.8 C 171.3 28.1 171.8 28.4 172.3 28.9 C 172.8 29.3 173.1 29.9 173.4 30.6 C 173.7 31.3 173.8 32.1 173.8 33 C 173.78 33.03 173.8 33.9 173.8 33.9 L 164.6 33.9 L 164.6 32 C 164.6 32 170.93 31.99 170.9 32 C 170.9 31.6 170.8 31.2 170.6 30.8 C 170.5 30.5 170.2 30.2 169.9 30 C 169.5 29.8 169.1 29.8 168.7 29.8 C 168.2 29.8 167.8 29.9 167.5 30.1 C 167.1 30.3 166.9 30.6 166.7 30.9 C 166.5 31.3 166.4 31.7 166.4 32.1 C 166.4 32.1 166.4 33.9 166.4 33.9 C 166.4 34.4 166.5 34.9 166.7 35.3 C 166.9 35.7 167.1 36 167.5 36.2 C 167.9 36.4 168.3 36.5 168.8 36.5 C 169.2 36.5 169.5 36.5 169.7 36.4 C 170 36.3 170.3 36.1 170.5 35.9 C 170.7 35.7 170.8 35.5 170.9 35.2 C 170.9 35.2 173.7 35.4 173.7 35.4 C 173.6 36.1 173.3 36.7 172.8 37.2 C 172.4 37.7 171.8 38.1 171.2 38.3 C 170.5 38.6 169.7 38.8 168.8 38.8 Z M 178.9 24 L 178.9 38.5 L 175.9 38.5 L 175.9 24 L 178.9 24 Z M 184.4 24 L 184.4 38.5 L 181.4 38.5 L 181.4 24 L 184.4 24 Z M 186.9 38.5 L 186.9 27.6 L 189.9 27.6 L 189.9 38.5 L 186.9 38.5 Z M 188.4 26.2 C 188 26.2 187.6 26.1 187.3 25.8 C 186.9 25.5 186.8 25.1 186.8 24.7 C 186.8 24.3 186.9 23.9 187.3 23.6 C 187.6 23.3 188 23.2 188.4 23.2 C 188.9 23.2 189.2 23.3 189.6 23.6 C 189.9 23.9 190 24.3 190 24.7 C 190 25.1 189.9 25.5 189.6 25.8 C 189.2 26.1 188.9 26.2 188.4 26.2 Z M 197.2 42.9 C 196.3 42.9 195.4 42.7 194.7 42.5 C 194 42.2 193.5 41.8 193.1 41.4 C 192.6 40.9 192.4 40.4 192.3 39.8 C 192.3 39.8 195.1 39.4 195.1 39.4 C 195.1 39.7 195.3 39.9 195.5 40.1 C 195.6 40.2 195.9 40.4 196.2 40.5 C 196.5 40.6 196.9 40.7 197.3 40.7 C 198 40.7 198.5 40.5 198.9 40.2 C 199.4 39.9 199.6 39.4 199.6 38.6 C 199.58 38.61 199.6 36.6 199.6 36.6 C 199.6 36.6 199.46 36.61 199.5 36.6 C 199.3 36.9 199.1 37.2 198.9 37.5 C 198.6 37.7 198.3 38 197.8 38.1 C 197.4 38.3 196.9 38.4 196.3 38.4 C 195.5 38.4 194.8 38.2 194.1 37.8 C 193.4 37.4 192.9 36.9 192.5 36.1 C 192.1 35.3 191.9 34.3 191.9 33.1 C 191.9 31.8 192.1 30.8 192.5 30 C 192.9 29.1 193.5 28.5 194.1 28.1 C 194.8 27.7 195.5 27.5 196.3 27.5 C 196.9 27.5 197.5 27.6 197.9 27.8 C 198.3 28 198.6 28.3 198.9 28.6 C 199.1 28.9 199.3 29.2 199.5 29.5 C 199.46 29.47 199.6 29.5 199.6 29.5 L 199.6 27.6 L 202.6 27.6 C 202.6 27.6 202.57 38.65 202.6 38.7 C 202.6 39.6 202.3 40.4 201.9 41 C 201.4 41.6 200.8 42.1 200 42.4 C 199.2 42.7 198.3 42.9 197.2 42.9 Z M 197.3 36.1 C 197.8 36.1 198.2 36 198.5 35.8 C 198.9 35.5 199.1 35.2 199.3 34.7 C 199.5 34.2 199.6 33.7 199.6 33.1 C 199.6 32.4 199.5 31.9 199.3 31.4 C 199.1 30.9 198.9 30.6 198.5 30.3 C 198.2 30 197.8 29.9 197.3 29.9 C 196.8 29.9 196.4 30 196 30.3 C 195.7 30.6 195.4 30.9 195.3 31.4 C 195.1 31.9 195 32.4 195 33.1 C 195 33.7 195.1 34.2 195.3 34.7 C 195.5 35.1 195.7 35.5 196.1 35.7 C 196.4 36 196.8 36.1 197.3 36.1 Z M 210 38.8 C 208.9 38.8 207.9 38.5 207.1 38.1 C 206.3 37.6 205.7 37 205.2 36.1 C 204.8 35.3 204.6 34.3 204.6 33.1 C 204.6 32 204.8 31 205.2 30.2 C 205.7 29.3 206.3 28.7 207.1 28.2 C 207.9 27.7 208.8 27.5 209.9 27.5 C 210.6 27.5 211.3 27.6 211.9 27.8 C 212.5 28.1 213.1 28.4 213.5 28.9 C 214 29.3 214.4 29.9 214.6 30.6 C 214.9 31.3 215 32.1 215 33 C 215.01 33.03 215 33.9 215 33.9 L 205.8 33.9 L 205.8 32 C 205.8 32 212.16 31.99 212.2 32 C 212.2 31.6 212.1 31.2 211.9 30.8 C 211.7 30.5 211.4 30.2 211.1 30 C 210.8 29.8 210.4 29.8 209.9 29.8 C 209.5 29.8 209.1 29.9 208.7 30.1 C 208.4 30.3 208.1 30.6 207.9 30.9 C 207.7 31.3 207.6 31.7 207.6 32.1 C 207.6 32.1 207.6 33.9 207.6 33.9 C 207.6 34.4 207.7 34.9 207.9 35.3 C 208.1 35.7 208.4 36 208.7 36.2 C 209.1 36.4 209.5 36.5 210.1 36.5 C 210.4 36.5 210.7 36.5 211 36.4 C 211.3 36.3 211.5 36.1 211.7 35.9 C 211.9 35.7 212 35.5 212.1 35.2 C 212.1 35.2 214.9 35.4 214.9 35.4 C 214.8 36.1 214.5 36.7 214.1 37.2 C 213.6 37.7 213.1 38.1 212.4 38.3 C 211.7 38.6 210.9 38.8 210 38.8 Z M 220.1 32.2 C 220.09 32.24 220.1 38.5 220.1 38.5 L 217.1 38.5 L 217.1 27.6 L 220 27.6 L 220 29.6 C 220 29.6 220.08 29.56 220.1 29.6 C 220.3 28.9 220.7 28.4 221.3 28.1 C 221.9 27.7 222.6 27.5 223.4 27.5 C 224.1 27.5 224.8 27.7 225.3 28 C 225.9 28.3 226.3 28.8 226.7 29.4 C 227 30 227.1 30.8 227.1 31.6 C 227.12 31.6 227.1 38.5 227.1 38.5 L 224.1 38.5 C 224.1 38.5 224.1 32.14 224.1 32.1 C 224.1 31.5 223.9 30.9 223.6 30.6 C 223.2 30.2 222.8 30 222.2 30 C 221.8 30 221.4 30.1 221.1 30.3 C 220.8 30.4 220.5 30.7 220.4 31 C 220.2 31.4 220.1 31.8 220.1 32.2 Z M 234.4 38.8 C 233.3 38.8 232.4 38.5 231.6 38 C 230.7 37.6 230.1 36.9 229.7 36.1 C 229.3 35.2 229.1 34.2 229.1 33.1 C 229.1 32 229.3 31 229.7 30.2 C 230.1 29.3 230.8 28.7 231.6 28.2 C 232.4 27.7 233.3 27.5 234.4 27.5 C 235.4 27.5 236.2 27.7 236.9 28 C 237.6 28.4 238.2 28.8 238.6 29.5 C 239 30.1 239.3 30.8 239.3 31.7 C 239.3 31.7 236.4 31.7 236.4 31.7 C 236.4 31.1 236.2 30.7 235.8 30.4 C 235.5 30 235 29.9 234.5 29.9 C 234 29.9 233.6 30 233.2 30.2 C 232.9 30.5 232.6 30.9 232.4 31.3 C 232.2 31.8 232.1 32.4 232.1 33.1 C 232.1 33.8 232.2 34.4 232.4 34.9 C 232.6 35.4 232.9 35.7 233.2 36 C 233.6 36.2 234 36.4 234.5 36.4 C 234.8 36.4 235.1 36.3 235.4 36.2 C 235.7 36 235.9 35.8 236.1 35.5 C 236.3 35.3 236.4 34.9 236.4 34.5 C 236.4 34.5 239.3 34.5 239.3 34.5 C 239.3 35.4 239 36.1 238.6 36.7 C 238.2 37.4 237.7 37.9 237 38.2 C 236.2 38.6 235.4 38.8 234.4 38.8 Z M 246.1 38.8 C 245 38.8 244.1 38.5 243.3 38.1 C 242.4 37.6 241.8 37 241.4 36.1 C 240.9 35.3 240.7 34.3 240.7 33.1 C 240.7 32 240.9 31 241.4 30.2 C 241.8 29.3 242.4 28.7 243.2 28.2 C 244 27.7 245 27.5 246 27.5 C 246.7 27.5 247.4 27.6 248 27.8 C 248.7 28.1 249.2 28.4 249.7 28.9 C 250.1 29.3 250.5 29.9 250.8 30.6 C 251 31.3 251.2 32.1 251.2 33 C 251.15 33.03 251.2 33.9 251.2 33.9 L 241.9 33.9 L 241.9 32 C 241.9 32 248.3 31.99 248.3 32 C 248.3 31.6 248.2 31.2 248 30.8 C 247.8 30.5 247.6 30.2 247.2 30 C 246.9 29.8 246.5 29.8 246.1 29.8 C 245.6 29.8 245.2 29.9 244.9 30.1 C 244.5 30.3 244.2 30.6 244 30.9 C 243.8 31.3 243.7 31.7 243.7 32.1 C 243.7 32.1 243.7 33.9 243.7 33.9 C 243.7 34.4 243.8 34.9 244 35.3 C 244.2 35.7 244.5 36 244.9 36.2 C 245.2 36.4 245.7 36.5 246.2 36.5 C 246.5 36.5 246.8 36.5 247.1 36.4 C 247.4 36.3 247.6 36.1 247.8 35.9 C 248 35.7 248.2 35.5 248.3 35.2 C 248.3 35.2 251.1 35.4 251.1 35.4 C 250.9 36.1 250.7 36.7 250.2 37.2 C 249.8 37.7 249.2 38.1 248.5 38.3 C 247.8 38.6 247 38.8 246.1 38.8 Z M 254.8 38.7 C 254.3 38.7 253.9 38.6 253.6 38.2 C 253.2 37.9 253.1 37.5 253.1 37 C 253.1 36.6 253.2 36.2 253.6 35.8 C 253.9 35.5 254.3 35.3 254.8 35.3 C 255.2 35.3 255.6 35.5 255.9 35.8 C 256.3 36.2 256.5 36.6 256.5 37 C 256.5 37.3 256.4 37.6 256.2 37.9 C 256.1 38.1 255.9 38.3 255.6 38.5 C 255.3 38.7 255.1 38.7 254.8 38.7 Z " stroke="none" fill="#ffffff"/>  </g>  <g id="Polygon106294">    <path d="M 1.3 14.5 L 1.3 0 C 1.3 0 7.09 0 7.1 0 C 8.2 0 9.1 0.2 9.8 0.5 C 10.5 0.8 11 1.2 11.4 1.8 C 11.7 2.4 11.9 3 11.9 3.7 C 11.9 4.3 11.8 4.8 11.6 5.2 C 11.3 5.7 11 6 10.6 6.3 C 10.2 6.5 9.8 6.7 9.3 6.9 C 9.3 6.9 9.3 7 9.3 7 C 9.8 7 10.4 7.2 10.8 7.5 C 11.3 7.8 11.7 8.2 12 8.7 C 12.3 9.2 12.5 9.8 12.5 10.5 C 12.5 11.3 12.3 12 11.9 12.6 C 11.5 13.2 11 13.7 10.2 14 C 9.5 14.4 8.6 14.5 7.5 14.5 C 7.48 14.55 1.3 14.5 1.3 14.5 Z M 4.3 12 C 4.3 12 6.85 12.03 6.8 12 C 7.7 12 8.3 11.9 8.7 11.5 C 9.1 11.2 9.3 10.8 9.3 10.2 C 9.3 9.8 9.2 9.5 9 9.2 C 8.8 8.8 8.5 8.6 8.2 8.4 C 7.8 8.3 7.4 8.2 6.9 8.2 C 6.92 8.17 4.3 8.2 4.3 8.2 L 4.3 12 Z M 4.3 6.1 C 4.3 6.1 6.62 6.09 6.6 6.1 C 7 6.1 7.4 6 7.7 5.9 C 8.1 5.7 8.3 5.5 8.5 5.2 C 8.7 5 8.8 4.6 8.8 4.2 C 8.8 3.7 8.6 3.3 8.3 3 C 7.9 2.6 7.4 2.5 6.7 2.5 C 6.68 2.49 4.3 2.5 4.3 2.5 L 4.3 6.1 Z M 19.5 14.8 C 18.4 14.8 17.4 14.5 16.6 14.1 C 15.8 13.6 15.2 13 14.7 12.1 C 14.3 11.3 14.1 10.3 14.1 9.1 C 14.1 8 14.3 7 14.7 6.2 C 15.2 5.3 15.8 4.7 16.6 4.2 C 17.4 3.7 18.3 3.5 19.4 3.5 C 20.1 3.5 20.8 3.6 21.4 3.8 C 22 4.1 22.5 4.4 23 4.9 C 23.5 5.3 23.8 5.9 24.1 6.6 C 24.4 7.3 24.5 8.1 24.5 9 C 24.49 9.03 24.5 9.9 24.5 9.9 L 15.3 9.9 L 15.3 8 C 15.3 8 21.64 7.99 21.6 8 C 21.6 7.6 21.5 7.2 21.4 6.8 C 21.2 6.5 20.9 6.2 20.6 6 C 20.2 5.8 19.9 5.8 19.4 5.8 C 19 5.8 18.5 5.9 18.2 6.1 C 17.8 6.3 17.6 6.6 17.4 6.9 C 17.2 7.3 17.1 7.7 17.1 8.1 C 17.1 8.1 17.1 9.9 17.1 9.9 C 17.1 10.4 17.2 10.9 17.4 11.3 C 17.6 11.7 17.9 12 18.2 12.2 C 18.6 12.4 19 12.5 19.5 12.5 C 19.9 12.5 20.2 12.5 20.5 12.4 C 20.7 12.3 21 12.1 21.2 11.9 C 21.4 11.7 21.5 11.5 21.6 11.2 C 21.6 11.2 24.4 11.4 24.4 11.4 C 24.3 12.1 24 12.7 23.6 13.2 C 23.1 13.7 22.6 14.1 21.9 14.3 C 21.2 14.6 20.4 14.8 19.5 14.8 Z M 36.9 3.6 L 36.9 5.9 L 30.3 5.9 L 30.3 3.6 L 36.9 3.6 Z M 31.8 1 L 34.9 1 C 34.9 1 34.85 11.19 34.9 11.2 C 34.9 11.5 34.9 11.7 35 11.8 C 35.1 12 35.2 12.1 35.3 12.2 C 35.5 12.2 35.7 12.3 35.9 12.3 C 36 12.3 36.2 12.2 36.3 12.2 C 36.4 12.2 36.6 12.2 36.6 12.2 C 36.6 12.2 37.1 14.4 37.1 14.4 C 37 14.5 36.7 14.5 36.5 14.6 C 36.2 14.6 35.9 14.7 35.5 14.7 C 34.7 14.7 34.1 14.6 33.6 14.4 C 33 14.2 32.6 13.8 32.3 13.4 C 32 12.9 31.8 12.3 31.8 11.6 C 31.83 11.59 31.8 1 31.8 1 Z M 41.9 8.2 C 41.86 8.24 41.9 14.5 41.9 14.5 L 38.8 14.5 L 38.8 0 L 41.8 0 L 41.8 5.6 C 41.8 5.6 41.91 5.56 41.9 5.6 C 42.2 4.9 42.5 4.4 43.1 4 C 43.6 3.7 44.3 3.5 45.2 3.5 C 45.9 3.5 46.6 3.7 47.2 4 C 47.7 4.3 48.2 4.8 48.5 5.4 C 48.8 6 48.9 6.7 48.9 7.6 C 48.94 7.6 48.9 14.5 48.9 14.5 L 45.9 14.5 C 45.9 14.5 45.91 8.14 45.9 8.1 C 45.9 7.5 45.7 6.9 45.4 6.6 C 45.1 6.2 44.6 6 44 6 C 43.6 6 43.2 6.1 42.9 6.3 C 42.6 6.4 42.3 6.7 42.1 7 C 42 7.4 41.9 7.8 41.9 8.2 Z M 56.3 14.8 C 55.2 14.8 54.2 14.5 53.4 14.1 C 52.6 13.6 52 13 51.5 12.1 C 51.1 11.3 50.9 10.3 50.9 9.1 C 50.9 8 51.1 7 51.5 6.2 C 52 5.3 52.6 4.7 53.4 4.2 C 54.2 3.7 55.1 3.5 56.2 3.5 C 56.9 3.5 57.6 3.6 58.2 3.8 C 58.8 4.1 59.4 4.4 59.8 4.9 C 60.3 5.3 60.6 5.9 60.9 6.6 C 61.2 7.3 61.3 8.1 61.3 9 C 61.3 9.03 61.3 9.9 61.3 9.9 L 52.1 9.9 L 52.1 8 C 52.1 8 58.45 7.99 58.4 8 C 58.4 7.6 58.4 7.2 58.2 6.8 C 58 6.5 57.7 6.2 57.4 6 C 57 5.8 56.7 5.8 56.2 5.8 C 55.8 5.8 55.4 5.9 55 6.1 C 54.6 6.3 54.4 6.6 54.2 6.9 C 54 7.3 53.9 7.7 53.9 8.1 C 53.9 8.1 53.9 9.9 53.9 9.9 C 53.9 10.4 54 10.9 54.2 11.3 C 54.4 11.7 54.7 12 55 12.2 C 55.4 12.4 55.8 12.5 56.3 12.5 C 56.7 12.5 57 12.5 57.3 12.4 C 57.5 12.3 57.8 12.1 58 11.9 C 58.2 11.7 58.3 11.5 58.4 11.2 C 58.4 11.2 61.2 11.4 61.2 11.4 C 61.1 12.1 60.8 12.7 60.4 13.2 C 59.9 13.7 59.4 14.1 58.7 14.3 C 58 14.6 57.2 14.8 56.3 14.8 Z M 70.9 8.2 C 70.94 8.24 70.9 14.5 70.9 14.5 L 67.9 14.5 L 67.9 3.6 L 70.8 3.6 L 70.8 5.6 C 70.8 5.6 70.92 5.56 70.9 5.6 C 71.2 4.9 71.6 4.4 72.1 4.1 C 72.7 3.7 73.4 3.5 74.2 3.5 C 75 3.5 75.6 3.7 76.2 4 C 76.7 4.3 77.2 4.8 77.5 5.4 C 77.8 6 78 6.8 78 7.6 C 77.97 7.6 78 14.5 78 14.5 L 74.9 14.5 C 74.9 14.5 74.94 8.14 74.9 8.1 C 74.9 7.5 74.8 6.9 74.4 6.6 C 74.1 6.2 73.6 6 73 6 C 72.6 6 72.2 6.1 71.9 6.3 C 71.6 6.4 71.4 6.7 71.2 7 C 71 7.4 70.9 7.8 70.9 8.2 Z M 85.3 14.8 C 84.2 14.8 83.2 14.5 82.4 14.1 C 81.6 13.6 81 13 80.6 12.1 C 80.1 11.3 79.9 10.3 79.9 9.1 C 79.9 8 80.1 7 80.6 6.2 C 81 5.3 81.6 4.7 82.4 4.2 C 83.2 3.7 84.1 3.5 85.2 3.5 C 85.9 3.5 86.6 3.6 87.2 3.8 C 87.8 4.1 88.4 4.4 88.8 4.9 C 89.3 5.3 89.7 5.9 89.9 6.6 C 90.2 7.3 90.3 8.1 90.3 9 C 90.32 9.03 90.3 9.9 90.3 9.9 L 81.1 9.9 L 81.1 8 C 81.1 8 87.48 7.99 87.5 8 C 87.5 7.6 87.4 7.2 87.2 6.8 C 87 6.5 86.7 6.2 86.4 6 C 86.1 5.8 85.7 5.8 85.2 5.8 C 84.8 5.8 84.4 5.9 84 6.1 C 83.7 6.3 83.4 6.6 83.2 6.9 C 83 7.3 82.9 7.7 82.9 8.1 C 82.9 8.1 82.9 9.9 82.9 9.9 C 82.9 10.4 83 10.9 83.2 11.3 C 83.4 11.7 83.7 12 84.1 12.2 C 84.4 12.4 84.9 12.5 85.4 12.5 C 85.7 12.5 86 12.5 86.3 12.4 C 86.6 12.3 86.8 12.1 87 11.9 C 87.2 11.7 87.4 11.5 87.5 11.2 C 87.5 11.2 90.3 11.4 90.3 11.4 C 90.1 12.1 89.8 12.7 89.4 13.2 C 89 13.7 88.4 14.1 87.7 14.3 C 87 14.6 86.2 14.8 85.3 14.8 Z M 94.4 3.6 L 96.4 7.5 L 98.5 3.6 L 101.6 3.6 L 98.4 9.1 L 101.6 14.5 L 98.6 14.5 L 96.4 10.8 L 94.3 14.5 L 91.2 14.5 L 94.4 9.1 L 91.3 3.6 L 94.4 3.6 Z M 109.3 3.6 L 109.3 5.9 L 102.8 5.9 L 102.8 3.6 L 109.3 3.6 Z M 104.3 1 L 107.3 1 C 107.3 1 107.3 11.19 107.3 11.2 C 107.3 11.5 107.3 11.7 107.4 11.8 C 107.5 12 107.6 12.1 107.8 12.2 C 107.9 12.2 108.1 12.3 108.3 12.3 C 108.5 12.3 108.6 12.2 108.7 12.2 C 108.9 12.2 109 12.2 109.1 12.2 C 109.1 12.2 109.5 14.4 109.5 14.4 C 109.4 14.5 109.2 14.5 108.9 14.6 C 108.6 14.6 108.3 14.7 107.9 14.7 C 107.2 14.7 106.5 14.6 106 14.4 C 105.4 14.2 105 13.8 104.7 13.4 C 104.4 12.9 104.3 12.3 104.3 11.6 C 104.27 11.59 104.3 1 104.3 1 Z M 113.3 14.7 C 112.8 14.7 112.4 14.6 112.1 14.2 C 111.8 13.9 111.6 13.5 111.6 13 C 111.6 12.6 111.8 12.2 112.1 11.8 C 112.4 11.5 112.8 11.3 113.3 11.3 C 113.7 11.3 114.1 11.5 114.5 11.8 C 114.8 12.2 115 12.6 115 13 C 115 13.3 114.9 13.6 114.8 13.9 C 114.6 14.1 114.4 14.3 114.1 14.5 C 113.9 14.7 113.6 14.7 113.3 14.7 Z " stroke="none" fill="#ffffff"/>  </g></svg>