<?xml version="1.0" standalone="no"?><!DOCTYPE svg PUBLIC "-//W3C//DTD SVG 1.1//EN" "http://www.w3.org/Graphics/SVG/1.1/DTD/svg11.dtd"><svg xmlns="http://www.w3.org/2000/svg" version="1.1" width="300px" height="129.8px" viewBox="0 -10 300 129.8" style="top:-10px">  <desc>Most AI fails to generate real business value. So, what’s behind today’s generic AI promises?</desc>  <defs/>  <g id="Polygon111857">    <path d="M 7.1 109 C 6.2 109 5.3 108.9 4.6 108.7 C 3.9 108.4 3.3 108.1 2.9 107.7 C 2.4 107.3 2 106.9 1.8 106.4 C 1.8 106.4 3.4 105.3 3.4 105.3 C 3.6 105.5 3.8 105.8 4.1 106.1 C 4.3 106.4 4.7 106.7 5.2 106.9 C 5.7 107.1 6.3 107.3 7.1 107.3 C 8.2 107.3 9.1 107 9.7 106.5 C 10.4 106 10.8 105.2 10.8 104.1 C 10.77 104.09 10.8 101.4 10.8 101.4 C 10.8 101.4 10.6 101.43 10.6 101.4 C 10.5 101.7 10.2 102 10 102.3 C 9.7 102.7 9.3 103 8.8 103.2 C 8.3 103.5 7.6 103.7 6.8 103.7 C 5.7 103.7 4.8 103.4 3.9 102.9 C 3.1 102.4 2.4 101.7 2 100.7 C 1.5 99.8 1.2 98.6 1.2 97.2 C 1.2 95.9 1.5 94.7 1.9 93.7 C 2.4 92.7 3.1 92 3.9 91.4 C 4.7 90.9 5.7 90.6 6.8 90.6 C 7.7 90.6 8.3 90.7 8.9 91 C 9.4 91.3 9.7 91.6 10 92 C 10.3 92.3 10.5 92.6 10.6 92.8 C 10.64 92.84 10.8 92.8 10.8 92.8 L 10.8 90.8 L 12.8 90.8 C 12.8 90.8 12.78 104.23 12.8 104.2 C 12.8 105.4 12.5 106.3 12 107 C 11.5 107.7 10.8 108.2 10 108.5 C 9.1 108.9 8.2 109 7.1 109 Z M 7.1 101.8 C 7.9 101.8 8.5 101.7 9.1 101.3 C 9.7 100.9 10.1 100.4 10.4 99.7 C 10.7 99 10.8 98.2 10.8 97.2 C 10.8 96.3 10.7 95.4 10.4 94.7 C 10.1 94 9.7 93.4 9.1 93 C 8.6 92.6 7.9 92.4 7.1 92.4 C 6.2 92.4 5.5 92.6 4.9 93 C 4.4 93.5 3.9 94.1 3.7 94.8 C 3.4 95.5 3.2 96.3 3.2 97.2 C 3.2 98.1 3.4 98.9 3.7 99.6 C 4 100.3 4.4 100.9 4.9 101.3 C 5.5 101.6 6.2 101.8 7.1 101.8 Z M 21.9 104.1 C 20.6 104.1 19.5 103.8 18.6 103.3 C 17.7 102.7 17 101.9 16.5 100.9 C 16 99.9 15.8 98.8 15.8 97.4 C 15.8 96.1 16 94.9 16.5 93.9 C 17 92.8 17.7 92 18.6 91.5 C 19.5 90.9 20.5 90.6 21.7 90.6 C 22.3 90.6 23 90.7 23.7 90.9 C 24.4 91.2 25 91.5 25.5 92 C 26 92.5 26.5 93.2 26.8 94.1 C 27.1 94.9 27.3 95.9 27.3 97.1 C 27.29 97.14 27.3 98 27.3 98 L 17.2 98 L 17.2 96.3 C 17.2 96.3 25.25 96.25 25.2 96.3 C 25.2 95.5 25.1 94.9 24.8 94.3 C 24.5 93.7 24.1 93.2 23.6 92.9 C 23 92.6 22.4 92.4 21.7 92.4 C 20.9 92.4 20.2 92.6 19.6 93 C 19 93.4 18.6 93.9 18.2 94.5 C 17.9 95.2 17.8 95.8 17.8 96.6 C 17.8 96.6 17.8 97.7 17.8 97.7 C 17.8 98.7 18 99.5 18.3 100.2 C 18.6 100.9 19.1 101.4 19.7 101.8 C 20.3 102.1 21.1 102.3 21.9 102.3 C 22.4 102.3 22.9 102.2 23.3 102.1 C 23.7 101.9 24.1 101.7 24.4 101.4 C 24.7 101.1 25 100.7 25.1 100.3 C 25.1 100.3 27.1 100.8 27.1 100.8 C 26.9 101.5 26.5 102.1 26.1 102.6 C 25.6 103.1 25 103.4 24.3 103.7 C 23.6 104 22.8 104.1 21.9 104.1 Z M 32.3 96 C 32.3 95.98 32.3 103.9 32.3 103.9 L 30.3 103.9 L 30.3 90.8 L 32.2 90.8 L 32.2 92.8 C 32.2 92.8 32.4 92.81 32.4 92.8 C 32.7 92.1 33.2 91.6 33.8 91.2 C 34.4 90.8 35.2 90.6 36.2 90.6 C 37.1 90.6 37.9 90.8 38.5 91.1 C 39.2 91.5 39.7 92 40.1 92.8 C 40.5 93.5 40.7 94.4 40.7 95.5 C 40.65 95.54 40.7 103.9 40.7 103.9 L 38.6 103.9 C 38.6 103.9 38.64 95.67 38.6 95.7 C 38.6 94.6 38.4 93.8 37.8 93.3 C 37.3 92.7 36.6 92.4 35.6 92.4 C 35 92.4 34.4 92.5 33.9 92.8 C 33.4 93.1 33 93.5 32.7 94 C 32.4 94.6 32.3 95.2 32.3 96 Z M 49.7 104.1 C 48.4 104.1 47.3 103.8 46.4 103.3 C 45.5 102.7 44.8 101.9 44.3 100.9 C 43.8 99.9 43.6 98.8 43.6 97.4 C 43.6 96.1 43.8 94.9 44.3 93.9 C 44.8 92.8 45.5 92 46.4 91.5 C 47.3 90.9 48.3 90.6 49.5 90.6 C 50.2 90.6 50.8 90.7 51.5 90.9 C 52.2 91.2 52.8 91.5 53.3 92 C 53.9 92.5 54.3 93.2 54.6 94.1 C 55 94.9 55.1 95.9 55.1 97.1 C 55.12 97.14 55.1 98 55.1 98 L 45 98 L 45 96.3 C 45 96.3 53.07 96.25 53.1 96.3 C 53.1 95.5 52.9 94.9 52.6 94.3 C 52.3 93.7 51.9 93.2 51.4 92.9 C 50.9 92.6 50.2 92.4 49.5 92.4 C 48.7 92.4 48 92.6 47.4 93 C 46.8 93.4 46.4 93.9 46.1 94.5 C 45.8 95.2 45.6 95.8 45.6 96.6 C 45.6 96.6 45.6 97.7 45.6 97.7 C 45.6 98.7 45.8 99.5 46.1 100.2 C 46.5 100.9 46.9 101.4 47.6 101.8 C 48.2 102.1 48.9 102.3 49.7 102.3 C 50.2 102.3 50.7 102.2 51.1 102.1 C 51.6 101.9 51.9 101.7 52.2 101.4 C 52.6 101.1 52.8 100.7 53 100.3 C 53 100.3 54.9 100.8 54.9 100.8 C 54.7 101.5 54.4 102.1 53.9 102.6 C 53.4 103.1 52.8 103.4 52.1 103.7 C 51.4 104 50.6 104.1 49.7 104.1 Z M 58.1 103.9 L 58.1 90.8 L 60.1 90.8 L 60.1 92.7 C 60.1 92.7 60.19 92.74 60.2 92.7 C 60.4 92.1 60.9 91.6 61.5 91.2 C 62.1 90.8 62.8 90.6 63.6 90.6 C 63.7 90.6 63.9 90.6 64.2 90.6 C 64.4 90.6 64.5 90.6 64.7 90.6 C 64.7 90.6 64.7 92.6 64.7 92.6 C 64.6 92.6 64.4 92.6 64.2 92.6 C 64 92.5 63.7 92.5 63.4 92.5 C 62.8 92.5 62.2 92.6 61.7 92.9 C 61.2 93.2 60.8 93.5 60.6 94 C 60.3 94.5 60.1 95 60.1 95.6 C 60.12 95.57 60.1 103.9 60.1 103.9 L 58.1 103.9 Z M 67 103.9 L 67 90.8 L 69 90.8 L 69 103.9 L 67 103.9 Z M 68 88.6 C 67.6 88.6 67.3 88.4 67 88.2 C 66.7 87.9 66.6 87.6 66.6 87.2 C 66.6 86.8 66.7 86.5 67 86.3 C 67.3 86 67.6 85.9 68 85.9 C 68.4 85.9 68.7 86 69 86.3 C 69.3 86.5 69.4 86.8 69.4 87.2 C 69.4 87.6 69.3 87.9 69 88.2 C 68.7 88.4 68.4 88.6 68 88.6 Z M 77.9 104.1 C 76.6 104.1 75.6 103.8 74.7 103.3 C 73.8 102.7 73.1 101.9 72.6 100.9 C 72.2 99.8 71.9 98.7 71.9 97.4 C 71.9 96 72.2 94.9 72.7 93.9 C 73.1 92.8 73.8 92 74.7 91.5 C 75.6 90.9 76.6 90.6 77.8 90.6 C 78.7 90.6 79.6 90.8 80.3 91.1 C 81 91.4 81.6 91.9 82.1 92.5 C 82.6 93.1 82.9 93.9 83 94.7 C 83 94.7 81 94.7 81 94.7 C 80.8 94.1 80.5 93.6 80 93.1 C 79.4 92.6 78.7 92.4 77.9 92.4 C 77.1 92.4 76.4 92.6 75.8 93 C 75.2 93.4 74.7 94 74.4 94.7 C 74.1 95.5 73.9 96.3 73.9 97.3 C 73.9 98.3 74.1 99.2 74.4 100 C 74.7 100.7 75.2 101.3 75.8 101.7 C 76.4 102.1 77.1 102.3 77.9 102.3 C 78.4 102.3 78.8 102.2 79.3 102 C 79.7 101.9 80.1 101.6 80.4 101.3 C 80.7 100.9 80.9 100.5 81 100 C 81 100 83 100 83 100 C 82.9 100.8 82.6 101.5 82.2 102.1 C 81.7 102.7 81.1 103.2 80.4 103.6 C 79.7 103.9 78.8 104.1 77.9 104.1 Z M 93.7 103.9 L 91.5 103.9 L 97.9 86.4 L 100 86.4 L 106.5 103.9 L 104.2 103.9 L 99 89.2 L 98.9 89.2 L 93.7 103.9 Z M 94.5 97 L 103.4 97 L 103.4 98.9 L 94.5 98.9 L 94.5 97 Z M 111.2 86.4 L 111.2 103.9 L 109.1 103.9 L 109.1 86.4 L 111.2 86.4 Z M 122 108.8 L 122 90.8 L 123.9 90.8 L 123.9 92.8 C 123.9 92.8 124.13 92.84 124.1 92.8 C 124.3 92.6 124.5 92.3 124.8 92 C 125 91.6 125.4 91.3 125.9 91 C 126.4 90.7 127.1 90.6 127.9 90.6 C 129 90.6 130 90.9 130.8 91.4 C 131.7 92 132.3 92.8 132.8 93.8 C 133.3 94.8 133.5 96 133.5 97.3 C 133.5 98.7 133.3 99.9 132.8 100.9 C 132.3 102 131.7 102.7 130.8 103.3 C 130 103.9 129 104.1 128 104.1 C 127.1 104.1 126.4 104 125.9 103.7 C 125.4 103.4 125 103.1 124.8 102.7 C 124.5 102.4 124.3 102.1 124.1 101.8 C 124.13 101.84 124 101.8 124 101.8 L 124 108.8 L 122 108.8 Z M 123.9 97.3 C 123.9 98.3 124.1 99.2 124.4 99.9 C 124.7 100.7 125.1 101.3 125.6 101.7 C 126.2 102.1 126.9 102.3 127.7 102.3 C 128.5 102.3 129.2 102.1 129.8 101.7 C 130.4 101.2 130.8 100.6 131.1 99.8 C 131.4 99.1 131.5 98.2 131.5 97.3 C 131.5 96.4 131.4 95.6 131.1 94.8 C 130.8 94.1 130.4 93.5 129.8 93.1 C 129.2 92.6 128.5 92.4 127.7 92.4 C 126.9 92.4 126.2 92.6 125.6 93 C 125.1 93.4 124.6 94 124.4 94.7 C 124.1 95.5 123.9 96.3 123.9 97.3 Z M 136.5 103.9 L 136.5 90.8 L 138.4 90.8 L 138.4 92.7 C 138.4 92.7 138.58 92.74 138.6 92.7 C 138.8 92.1 139.3 91.6 139.9 91.2 C 140.5 90.8 141.2 90.6 142 90.6 C 142.1 90.6 142.3 90.6 142.5 90.6 C 142.8 90.6 142.9 90.6 143 90.6 C 143 90.6 143 92.6 143 92.6 C 143 92.6 142.8 92.6 142.6 92.6 C 142.3 92.5 142.1 92.5 141.8 92.5 C 141.2 92.5 140.6 92.6 140.1 92.9 C 139.6 93.2 139.2 93.5 138.9 94 C 138.7 94.5 138.5 95 138.5 95.6 C 138.51 95.57 138.5 103.9 138.5 103.9 L 136.5 103.9 Z M 150.4 104.1 C 149.2 104.1 148.2 103.8 147.3 103.3 C 146.4 102.7 145.7 101.9 145.2 100.9 C 144.7 99.9 144.5 98.7 144.5 97.4 C 144.5 96 144.7 94.8 145.2 93.8 C 145.7 92.8 146.4 92 147.3 91.4 C 148.2 90.9 149.2 90.6 150.4 90.6 C 151.6 90.6 152.6 90.9 153.5 91.4 C 154.4 92 155.1 92.8 155.6 93.8 C 156.1 94.8 156.3 96 156.3 97.4 C 156.3 98.7 156.1 99.9 155.6 100.9 C 155.1 101.9 154.4 102.7 153.5 103.3 C 152.6 103.8 151.6 104.1 150.4 104.1 Z M 150.4 102.3 C 151.3 102.3 152 102.1 152.6 101.6 C 153.2 101.2 153.6 100.6 153.9 99.8 C 154.2 99.1 154.3 98.3 154.3 97.4 C 154.3 96.5 154.2 95.7 153.9 94.9 C 153.6 94.2 153.2 93.6 152.6 93.1 C 152 92.6 151.3 92.4 150.4 92.4 C 149.5 92.4 148.8 92.6 148.2 93.1 C 147.6 93.6 147.2 94.2 146.9 94.9 C 146.6 95.7 146.5 96.5 146.5 97.4 C 146.5 98.3 146.6 99.1 146.9 99.8 C 147.2 100.6 147.6 101.2 148.2 101.6 C 148.8 102.1 149.5 102.3 150.4 102.3 Z M 159.3 103.9 L 159.3 90.8 L 161.3 90.8 L 161.3 92.8 C 161.3 92.8 161.44 92.81 161.4 92.8 C 161.7 92.1 162.2 91.6 162.8 91.2 C 163.4 90.8 164.1 90.6 164.9 90.6 C 165.8 90.6 166.5 90.8 167.1 91.2 C 167.7 91.6 168.1 92.1 168.5 92.8 C 168.5 92.8 168.6 92.8 168.6 92.8 C 168.9 92.1 169.4 91.6 170.1 91.2 C 170.8 90.8 171.6 90.6 172.5 90.6 C 173.7 90.6 174.6 91 175.4 91.7 C 176.1 92.4 176.5 93.6 176.5 95.1 C 176.51 95.09 176.5 103.9 176.5 103.9 L 174.5 103.9 C 174.5 103.9 174.49 95.09 174.5 95.1 C 174.5 94.1 174.2 93.4 173.7 93 C 173.2 92.6 172.6 92.4 171.8 92.4 C 170.9 92.4 170.2 92.7 169.7 93.2 C 169.2 93.8 168.9 94.5 168.9 95.3 C 168.94 95.33 168.9 103.9 168.9 103.9 L 166.9 103.9 C 166.9 103.9 166.89 94.89 166.9 94.9 C 166.9 94.1 166.7 93.5 166.2 93.1 C 165.7 92.6 165.1 92.4 164.3 92.4 C 163.8 92.4 163.3 92.5 162.8 92.8 C 162.4 93.1 162 93.5 161.7 94 C 161.5 94.5 161.3 95 161.3 95.7 C 161.33 95.67 161.3 103.9 161.3 103.9 L 159.3 103.9 Z M 180 103.9 L 180 90.8 L 182.1 90.8 L 182.1 103.9 L 180 103.9 Z M 181.1 88.6 C 180.7 88.6 180.3 88.4 180.1 88.2 C 179.8 87.9 179.6 87.6 179.6 87.2 C 179.6 86.8 179.8 86.5 180.1 86.3 C 180.3 86 180.7 85.9 181.1 85.9 C 181.5 85.9 181.8 86 182.1 86.3 C 182.4 86.5 182.5 86.8 182.5 87.2 C 182.5 87.6 182.4 87.9 182.1 88.2 C 181.8 88.4 181.5 88.6 181.1 88.6 Z M 194.8 93.7 C 194.8 93.7 193 94.2 193 94.2 C 192.9 93.9 192.7 93.6 192.5 93.3 C 192.3 93 192 92.8 191.6 92.6 C 191.2 92.4 190.7 92.3 190.2 92.3 C 189.4 92.3 188.7 92.5 188.2 92.9 C 187.6 93.2 187.4 93.7 187.4 94.3 C 187.4 94.8 187.6 95.2 187.9 95.5 C 188.3 95.7 188.8 96 189.6 96.2 C 189.6 96.2 191.6 96.7 191.6 96.7 C 192.7 96.9 193.6 97.4 194.2 98 C 194.8 98.5 195 99.3 195 100.2 C 195 101 194.8 101.6 194.4 102.2 C 194 102.8 193.4 103.3 192.6 103.6 C 191.8 104 190.9 104.1 189.9 104.1 C 188.6 104.1 187.5 103.8 186.6 103.3 C 185.7 102.7 185.2 101.8 184.9 100.7 C 184.9 100.7 186.9 100.2 186.9 100.2 C 187 100.9 187.4 101.5 187.9 101.8 C 188.4 102.2 189.1 102.4 189.9 102.4 C 190.8 102.4 191.6 102.2 192.1 101.8 C 192.7 101.4 193 100.9 193 100.3 C 193 99.9 192.8 99.5 192.5 99.2 C 192.2 98.9 191.7 98.6 191 98.5 C 191 98.5 188.8 98 188.8 98 C 187.6 97.7 186.8 97.2 186.2 96.6 C 185.6 96 185.4 95.3 185.4 94.4 C 185.4 93.6 185.6 93 186 92.4 C 186.4 91.8 187 91.4 187.7 91.1 C 188.4 90.8 189.2 90.6 190.2 90.6 C 191.5 90.6 192.5 90.9 193.2 91.4 C 194 92 194.5 92.8 194.8 93.7 Z M 203.4 104.1 C 202.1 104.1 201 103.8 200.1 103.3 C 199.2 102.7 198.5 101.9 198 100.9 C 197.5 99.9 197.3 98.8 197.3 97.4 C 197.3 96.1 197.5 94.9 198 93.9 C 198.5 92.8 199.2 92 200.1 91.5 C 201 90.9 202 90.6 203.2 90.6 C 203.9 90.6 204.5 90.7 205.2 90.9 C 205.9 91.2 206.5 91.5 207 92 C 207.6 92.5 208 93.2 208.3 94.1 C 208.6 94.9 208.8 95.9 208.8 97.1 C 208.8 97.14 208.8 98 208.8 98 L 198.7 98 L 198.7 96.3 C 198.7 96.3 206.76 96.25 206.8 96.3 C 206.8 95.5 206.6 94.9 206.3 94.3 C 206 93.7 205.6 93.2 205.1 92.9 C 204.5 92.6 203.9 92.4 203.2 92.4 C 202.4 92.4 201.7 92.6 201.1 93 C 200.5 93.4 200.1 93.9 199.8 94.5 C 199.4 95.2 199.3 95.8 199.3 96.6 C 199.3 96.6 199.3 97.7 199.3 97.7 C 199.3 98.7 199.5 99.5 199.8 100.2 C 200.2 100.9 200.6 101.4 201.2 101.8 C 201.9 102.1 202.6 102.3 203.4 102.3 C 203.9 102.3 204.4 102.2 204.8 102.1 C 205.2 101.9 205.6 101.7 205.9 101.4 C 206.2 101.1 206.5 100.7 206.7 100.3 C 206.7 100.3 208.6 100.8 208.6 100.8 C 208.4 101.5 208.1 102.1 207.6 102.6 C 207.1 103.1 206.5 103.4 205.8 103.7 C 205.1 104 204.3 104.1 203.4 104.1 Z M 220.9 93.7 C 220.9 93.7 219.1 94.2 219.1 94.2 C 219 93.9 218.8 93.6 218.6 93.3 C 218.4 93 218.1 92.8 217.7 92.6 C 217.4 92.4 216.9 92.3 216.3 92.3 C 215.5 92.3 214.8 92.5 214.3 92.9 C 213.8 93.2 213.5 93.7 213.5 94.3 C 213.5 94.8 213.7 95.2 214 95.5 C 214.4 95.7 215 96 215.7 96.2 C 215.7 96.2 217.7 96.7 217.7 96.7 C 218.9 96.9 219.7 97.4 220.3 98 C 220.9 98.5 221.2 99.3 221.2 100.2 C 221.2 101 220.9 101.6 220.5 102.2 C 220.1 102.8 219.5 103.3 218.7 103.6 C 218 104 217.1 104.1 216 104.1 C 214.7 104.1 213.6 103.8 212.7 103.3 C 211.9 102.7 211.3 101.8 211.1 100.7 C 211.1 100.7 213 100.2 213 100.2 C 213.2 100.9 213.5 101.5 214 101.8 C 214.5 102.2 215.2 102.4 216 102.4 C 217 102.4 217.7 102.2 218.2 101.8 C 218.8 101.4 219.1 100.9 219.1 100.3 C 219.1 99.9 218.9 99.5 218.6 99.2 C 218.3 98.9 217.8 98.6 217.1 98.5 C 217.1 98.5 215 98 215 98 C 213.8 97.7 212.9 97.2 212.3 96.6 C 211.8 96 211.5 95.3 211.5 94.4 C 211.5 93.6 211.7 93 212.1 92.4 C 212.5 91.8 213.1 91.4 213.8 91.1 C 214.5 90.8 215.4 90.6 216.3 90.6 C 217.6 90.6 218.6 90.9 219.3 91.4 C 220.1 92 220.6 92.8 220.9 93.7 Z M 226 98.9 C 226 98.9 225.96 98.84 226 98.8 C 226 97.8 226.1 96.9 226.3 96.3 C 226.5 95.6 226.8 95.1 227.2 94.7 C 227.6 94.3 228.1 93.9 228.7 93.6 C 229 93.4 229.3 93.1 229.6 92.9 C 229.8 92.6 230 92.3 230.2 91.9 C 230.3 91.5 230.4 91.1 230.4 90.7 C 230.4 90.1 230.3 89.6 230 89.2 C 229.8 88.8 229.4 88.5 229 88.3 C 228.5 88 228.1 87.9 227.5 87.9 C 227.1 87.9 226.6 88 226.2 88.2 C 225.7 88.4 225.4 88.7 225.1 89.1 C 224.8 89.6 224.6 90.1 224.6 90.8 C 224.6 90.8 222.4 90.8 222.4 90.8 C 222.5 89.8 222.7 89 223.2 88.3 C 223.7 87.6 224.3 87.1 225 86.7 C 225.8 86.3 226.6 86.2 227.5 86.2 C 228.5 86.2 229.4 86.4 230.1 86.8 C 230.9 87.2 231.5 87.7 231.9 88.4 C 232.3 89.1 232.5 89.9 232.5 90.8 C 232.5 91.4 232.4 92 232.2 92.5 C 232 93 231.7 93.4 231.4 93.8 C 231 94.2 230.6 94.6 230.1 94.9 C 229.6 95.2 229.2 95.5 228.9 95.9 C 228.6 96.2 228.4 96.6 228.2 97.1 C 228.1 97.6 228 98.1 228 98.8 C 228 98.84 228 98.9 228 98.9 L 226 98.9 Z M 227 104 C 226.6 104 226.3 103.8 226 103.5 C 225.7 103.2 225.5 102.9 225.5 102.5 C 225.5 102 225.7 101.7 226 101.4 C 226.3 101.1 226.6 100.9 227 100.9 C 227.5 100.9 227.8 101.1 228.1 101.4 C 228.4 101.7 228.6 102 228.6 102.5 C 228.6 102.7 228.5 103 228.4 103.2 C 228.2 103.5 228.1 103.6 227.8 103.8 C 227.6 103.9 227.3 104 227 104 Z " stroke="none" fill="#10283d"/>  </g>  <g id="Polygon111856">    <path d="M 4.8 75.1 L 0.8 62 L 2.9 62 L 5.8 72 L 5.9 72 L 8.7 62 L 10.8 62 L 13.6 72 L 13.7 72 L 16.6 62 L 18.7 62 L 14.7 75.1 L 12.7 75.1 L 9.9 65 L 9.6 65 L 6.8 75.1 L 4.8 75.1 Z M 23.2 67.2 C 23.15 67.18 23.2 75.1 23.2 75.1 L 21.1 75.1 L 21.1 57.6 L 23.2 57.6 L 23.2 64 C 23.2 64 23.32 64.01 23.3 64 C 23.6 63.3 24.1 62.8 24.7 62.4 C 25.3 62 26.1 61.8 27.2 61.8 C 28.1 61.8 28.8 62 29.5 62.3 C 30.2 62.7 30.7 63.2 31.1 64 C 31.5 64.7 31.6 65.6 31.6 66.7 C 31.64 66.74 31.6 75.1 31.6 75.1 L 29.6 75.1 C 29.6 75.1 29.63 66.87 29.6 66.9 C 29.6 65.8 29.4 65 28.8 64.5 C 28.3 63.9 27.5 63.6 26.6 63.6 C 25.9 63.6 25.3 63.7 24.8 64 C 24.3 64.3 23.9 64.7 23.6 65.2 C 23.3 65.8 23.2 66.4 23.2 67.2 Z M 39 75.4 C 38.1 75.4 37.4 75.2 36.7 74.9 C 36 74.6 35.5 74.1 35.1 73.5 C 34.7 72.9 34.5 72.2 34.5 71.3 C 34.5 70.6 34.7 70 34.9 69.5 C 35.2 69 35.6 68.7 36.1 68.4 C 36.6 68.1 37.2 67.9 37.8 67.8 C 38.4 67.7 39 67.6 39.6 67.5 C 40.4 67.4 41 67.3 41.5 67.3 C 42 67.2 42.4 67.1 42.6 67 C 42.8 66.8 43 66.6 43 66.3 C 43 66.3 43 66.2 43 66.2 C 43 65.4 42.7 64.7 42.3 64.3 C 41.8 63.8 41.1 63.6 40.2 63.6 C 39.2 63.6 38.5 63.8 37.9 64.2 C 37.4 64.6 37 65.1 36.8 65.5 C 36.8 65.5 34.9 64.9 34.9 64.9 C 35.2 64.1 35.7 63.4 36.2 63 C 36.8 62.6 37.4 62.2 38.1 62.1 C 38.8 61.9 39.5 61.8 40.1 61.8 C 40.5 61.8 41 61.8 41.6 61.9 C 42.1 62 42.7 62.2 43.2 62.6 C 43.7 62.9 44.1 63.3 44.5 63.9 C 44.8 64.6 45 65.4 45 66.4 C 44.97 66.43 45 75.1 45 75.1 L 43 75.1 L 43 73.3 C 43 73.3 42.86 73.28 42.9 73.3 C 42.7 73.6 42.5 73.9 42.2 74.2 C 41.9 74.5 41.4 74.8 40.9 75 C 40.4 75.2 39.7 75.4 39 75.4 Z M 39.3 73.6 C 40.1 73.6 40.7 73.4 41.3 73.1 C 41.8 72.8 42.3 72.4 42.5 71.9 C 42.8 71.4 43 70.9 43 70.3 C 43 70.3 43 68.5 43 68.5 C 42.9 68.6 42.7 68.7 42.4 68.8 C 42.1 68.8 41.8 68.9 41.4 69 C 41 69 40.7 69.1 40.3 69.1 C 40 69.2 39.7 69.2 39.5 69.2 C 39 69.3 38.5 69.4 38 69.6 C 37.6 69.7 37.2 69.9 36.9 70.2 C 36.7 70.5 36.5 70.9 36.5 71.4 C 36.5 72.1 36.8 72.7 37.3 73 C 37.8 73.4 38.5 73.6 39.3 73.6 Z M 53.9 62 L 53.9 63.7 L 47.1 63.7 L 47.1 62 L 53.9 62 Z M 49.1 58.8 L 51.1 58.8 C 51.1 58.8 51.14 71.3 51.1 71.3 C 51.1 71.9 51.2 72.3 51.4 72.6 C 51.6 72.9 51.8 73 52 73.1 C 52.3 73.2 52.6 73.3 52.9 73.3 C 53.1 73.3 53.3 73.3 53.4 73.2 C 53.6 73.2 53.7 73.2 53.8 73.2 C 53.8 73.2 54.2 75 54.2 75 C 54 75 53.8 75.1 53.6 75.1 C 53.4 75.2 53 75.2 52.7 75.2 C 52.1 75.2 51.5 75.1 51 74.9 C 50.5 74.6 50 74.2 49.7 73.7 C 49.3 73.2 49.1 72.6 49.1 71.9 C 49.12 71.85 49.1 58.8 49.1 58.8 Z M 59.6 57.6 C 59.6 57.6 59.64 59.13 59.6 59.1 C 59.6 59.6 59.6 60.1 59.4 60.6 C 59.2 61.1 59 61.7 58.7 62.1 C 58.3 62.6 57.9 63.1 57.5 63.4 C 57.5 63.4 56.4 62.5 56.4 62.5 C 56.8 62 57.1 61.5 57.3 60.9 C 57.6 60.4 57.7 59.8 57.7 59.2 C 57.73 59.17 57.7 57.6 57.7 57.6 L 59.6 57.6 Z M 70.8 64.9 C 70.8 64.9 69 65.4 69 65.4 C 68.9 65.1 68.7 64.8 68.5 64.5 C 68.3 64.2 68 64 67.6 63.8 C 67.3 63.6 66.8 63.5 66.2 63.5 C 65.4 63.5 64.7 63.7 64.2 64.1 C 63.7 64.4 63.4 64.9 63.4 65.5 C 63.4 66 63.6 66.4 63.9 66.7 C 64.3 66.9 64.9 67.2 65.6 67.4 C 65.6 67.4 67.6 67.9 67.6 67.9 C 68.8 68.1 69.6 68.6 70.2 69.2 C 70.8 69.7 71.1 70.5 71.1 71.4 C 71.1 72.2 70.8 72.8 70.4 73.4 C 70 74 69.4 74.5 68.6 74.8 C 67.9 75.2 67 75.3 66 75.3 C 64.6 75.3 63.5 75 62.6 74.5 C 61.8 73.9 61.2 73 61 71.9 C 61 71.9 62.9 71.4 62.9 71.4 C 63.1 72.1 63.4 72.7 63.9 73 C 64.4 73.4 65.1 73.6 65.9 73.6 C 66.9 73.6 67.6 73.4 68.2 73 C 68.7 72.6 69 72.1 69 71.5 C 69 71.1 68.8 70.7 68.5 70.4 C 68.2 70.1 67.7 69.8 67 69.7 C 67 69.7 64.9 69.2 64.9 69.2 C 63.7 68.9 62.8 68.4 62.2 67.8 C 61.7 67.2 61.4 66.5 61.4 65.6 C 61.4 64.8 61.6 64.2 62 63.6 C 62.4 63 63 62.6 63.7 62.3 C 64.4 62 65.3 61.8 66.2 61.8 C 67.5 61.8 68.5 62.1 69.2 62.6 C 70 63.2 70.5 64 70.8 64.9 Z M 81.1 75.1 L 81.1 57.6 L 83.1 57.6 L 83.1 64 C 83.1 64 83.3 64.04 83.3 64 C 83.5 63.8 83.7 63.5 83.9 63.2 C 84.2 62.8 84.6 62.5 85.1 62.2 C 85.6 61.9 86.2 61.8 87.1 61.8 C 88.2 61.8 89.2 62.1 90 62.6 C 90.8 63.2 91.5 64 92 65 C 92.4 66 92.7 67.2 92.7 68.5 C 92.7 69.9 92.4 71.1 92 72.1 C 91.5 73.2 90.8 73.9 90 74.5 C 89.2 75.1 88.2 75.3 87.1 75.3 C 86.3 75.3 85.6 75.2 85.1 74.9 C 84.6 74.6 84.2 74.3 83.9 73.9 C 83.7 73.6 83.5 73.3 83.3 73 C 83.3 73.04 83.1 73 83.1 73 L 83.1 75.1 L 81.1 75.1 Z M 83.1 68.5 C 83.1 69.5 83.2 70.4 83.5 71.1 C 83.8 71.9 84.2 72.5 84.8 72.9 C 85.4 73.3 86 73.5 86.8 73.5 C 87.7 73.5 88.4 73.3 89 72.9 C 89.5 72.4 89.9 71.8 90.2 71 C 90.5 70.3 90.7 69.4 90.7 68.5 C 90.7 67.6 90.5 66.8 90.2 66 C 90 65.3 89.5 64.7 89 64.3 C 88.4 63.8 87.7 63.6 86.8 63.6 C 86 63.6 85.3 63.8 84.8 64.2 C 84.2 64.6 83.8 65.2 83.5 65.9 C 83.2 66.7 83.1 67.5 83.1 68.5 Z M 101.1 75.3 C 99.9 75.3 98.8 75 97.9 74.5 C 97 73.9 96.3 73.1 95.8 72.1 C 95.3 71.1 95 70 95 68.6 C 95 67.3 95.3 66.1 95.8 65.1 C 96.3 64 96.9 63.2 97.8 62.7 C 98.7 62.1 99.7 61.8 100.9 61.8 C 101.6 61.8 102.3 61.9 102.9 62.1 C 103.6 62.4 104.2 62.7 104.8 63.2 C 105.3 63.7 105.7 64.4 106.1 65.3 C 106.4 66.1 106.5 67.1 106.5 68.3 C 106.55 68.34 106.5 69.2 106.5 69.2 L 96.5 69.2 L 96.5 67.5 C 96.5 67.5 104.5 67.45 104.5 67.5 C 104.5 66.7 104.4 66.1 104.1 65.5 C 103.8 64.9 103.4 64.4 102.8 64.1 C 102.3 63.8 101.7 63.6 100.9 63.6 C 100.1 63.6 99.4 63.8 98.8 64.2 C 98.3 64.6 97.8 65.1 97.5 65.7 C 97.2 66.4 97 67 97 67.8 C 97 67.8 97 68.9 97 68.9 C 97 69.9 97.2 70.7 97.6 71.4 C 97.9 72.1 98.4 72.6 99 73 C 99.6 73.3 100.3 73.5 101.1 73.5 C 101.7 73.5 102.1 73.4 102.6 73.3 C 103 73.1 103.4 72.9 103.7 72.6 C 104 72.3 104.2 71.9 104.4 71.5 C 104.4 71.5 106.3 72 106.3 72 C 106.1 72.7 105.8 73.3 105.3 73.8 C 104.8 74.3 104.2 74.6 103.5 74.9 C 102.8 75.2 102 75.3 101.1 75.3 Z M 111.6 67.2 C 111.56 67.18 111.6 75.1 111.6 75.1 L 109.5 75.1 L 109.5 57.6 L 111.6 57.6 L 111.6 64 C 111.6 64 111.73 64.01 111.7 64 C 112 63.3 112.5 62.8 113.1 62.4 C 113.7 62 114.6 61.8 115.6 61.8 C 116.5 61.8 117.3 62 117.9 62.3 C 118.6 62.7 119.1 63.2 119.5 64 C 119.9 64.7 120 65.6 120 66.7 C 120.05 66.74 120 75.1 120 75.1 L 118 75.1 C 118 75.1 118.03 66.87 118 66.9 C 118 65.8 117.8 65 117.2 64.5 C 116.7 63.9 115.9 63.6 115 63.6 C 114.3 63.6 113.8 63.7 113.2 64 C 112.7 64.3 112.3 64.7 112 65.2 C 111.7 65.8 111.6 66.4 111.6 67.2 Z M 123.6 75.1 L 123.6 62 L 125.6 62 L 125.6 75.1 L 123.6 75.1 Z M 124.6 59.8 C 124.2 59.8 123.9 59.6 123.6 59.4 C 123.3 59.1 123.2 58.8 123.2 58.4 C 123.2 58 123.3 57.7 123.6 57.5 C 123.9 57.2 124.2 57.1 124.6 57.1 C 125 57.1 125.3 57.2 125.6 57.5 C 125.9 57.7 126 58 126 58.4 C 126 58.8 125.9 59.1 125.6 59.4 C 125.3 59.6 125 59.8 124.6 59.8 Z M 131.2 67.2 C 131.23 67.18 131.2 75.1 131.2 75.1 L 129.2 75.1 L 129.2 62 L 131.2 62 L 131.2 64 C 131.2 64 131.34 64.01 131.3 64 C 131.6 63.3 132.1 62.8 132.7 62.4 C 133.4 62 134.2 61.8 135.2 61.8 C 136 61.8 136.8 62 137.5 62.3 C 138.1 62.7 138.7 63.2 139 64 C 139.4 64.7 139.6 65.6 139.6 66.7 C 139.59 66.74 139.6 75.1 139.6 75.1 L 137.6 75.1 C 137.6 75.1 137.58 66.87 137.6 66.9 C 137.6 65.8 137.3 65 136.8 64.5 C 136.2 63.9 135.5 63.6 134.6 63.6 C 133.9 63.6 133.4 63.7 132.9 64 C 132.4 64.3 132 64.7 131.7 65.2 C 131.4 65.8 131.2 66.4 131.2 67.2 Z M 148.1 75.3 C 147 75.3 146 75.1 145.2 74.5 C 144.4 73.9 143.7 73.2 143.2 72.1 C 142.8 71.1 142.5 69.9 142.5 68.5 C 142.5 67.2 142.8 66 143.2 65 C 143.7 64 144.4 63.2 145.2 62.6 C 146 62.1 147 61.8 148.1 61.8 C 149 61.8 149.6 61.9 150.1 62.2 C 150.6 62.5 151 62.8 151.3 63.2 C 151.6 63.5 151.8 63.8 151.9 64 C 151.9 64.04 152.1 64 152.1 64 L 152.1 57.6 L 154.1 57.6 L 154.1 75.1 L 152.1 75.1 L 152.1 73 C 152.1 73 151.9 73.04 151.9 73 C 151.8 73.3 151.5 73.6 151.3 73.9 C 151 74.3 150.6 74.6 150.1 74.9 C 149.6 75.2 148.9 75.3 148.1 75.3 Z M 148.4 73.5 C 149.2 73.5 149.8 73.3 150.4 72.9 C 151 72.5 151.4 71.9 151.7 71.1 C 152 70.4 152.1 69.5 152.1 68.5 C 152.1 67.5 152 66.7 151.7 65.9 C 151.4 65.2 151 64.6 150.4 64.2 C 149.9 63.8 149.2 63.6 148.4 63.6 C 147.5 63.6 146.8 63.8 146.2 64.3 C 145.7 64.7 145.2 65.3 145 66 C 144.7 66.8 144.5 67.6 144.5 68.5 C 144.5 69.4 144.7 70.3 145 71 C 145.3 71.8 145.7 72.4 146.2 72.9 C 146.8 73.3 147.5 73.5 148.4 73.5 Z M 170.5 62 L 170.5 63.7 L 163.7 63.7 L 163.7 62 L 170.5 62 Z M 165.7 58.8 L 167.7 58.8 C 167.7 58.8 167.69 71.3 167.7 71.3 C 167.7 71.9 167.8 72.3 167.9 72.6 C 168.1 72.9 168.3 73 168.6 73.1 C 168.9 73.2 169.1 73.3 169.4 73.3 C 169.6 73.3 169.8 73.3 170 73.2 C 170.1 73.2 170.2 73.2 170.3 73.2 C 170.3 73.2 170.7 75 170.7 75 C 170.6 75 170.4 75.1 170.2 75.1 C 169.9 75.2 169.6 75.2 169.2 75.2 C 168.7 75.2 168.1 75.1 167.6 74.9 C 167 74.6 166.6 74.2 166.2 73.7 C 165.9 73.2 165.7 72.6 165.7 71.9 C 165.68 71.85 165.7 58.8 165.7 58.8 Z M 178.1 75.3 C 176.9 75.3 175.9 75 175 74.5 C 174.1 73.9 173.4 73.1 172.9 72.1 C 172.4 71.1 172.2 69.9 172.2 68.6 C 172.2 67.2 172.4 66 172.9 65 C 173.4 64 174.1 63.2 175 62.6 C 175.9 62.1 176.9 61.8 178.1 61.8 C 179.3 61.8 180.3 62.1 181.2 62.6 C 182.1 63.2 182.8 64 183.3 65 C 183.8 66 184 67.2 184 68.6 C 184 69.9 183.8 71.1 183.3 72.1 C 182.8 73.1 182.1 73.9 181.2 74.5 C 180.3 75 179.3 75.3 178.1 75.3 Z M 178.1 73.5 C 179 73.5 179.7 73.3 180.3 72.8 C 180.9 72.4 181.3 71.8 181.6 71 C 181.9 70.3 182 69.5 182 68.6 C 182 67.7 181.9 66.9 181.6 66.1 C 181.3 65.4 180.9 64.8 180.3 64.3 C 179.7 63.8 179 63.6 178.1 63.6 C 177.2 63.6 176.4 63.8 175.9 64.3 C 175.3 64.8 174.9 65.4 174.6 66.1 C 174.3 66.9 174.2 67.7 174.2 68.6 C 174.2 69.5 174.3 70.3 174.6 71 C 174.9 71.8 175.3 72.4 175.9 72.8 C 176.4 73.3 177.2 73.5 178.1 73.5 Z M 191.9 75.3 C 190.8 75.3 189.9 75.1 189 74.5 C 188.2 73.9 187.5 73.2 187.1 72.1 C 186.6 71.1 186.4 69.9 186.4 68.5 C 186.4 67.2 186.6 66 187.1 65 C 187.5 64 188.2 63.2 189 62.6 C 189.9 62.1 190.9 61.8 192 61.8 C 192.8 61.8 193.5 61.9 194 62.2 C 194.5 62.5 194.9 62.8 195.1 63.2 C 195.4 63.5 195.6 63.8 195.7 64 C 195.74 64.04 195.9 64 195.9 64 L 195.9 57.6 L 197.9 57.6 L 197.9 75.1 L 196 75.1 L 196 73 C 196 73 195.74 73.04 195.7 73 C 195.6 73.3 195.4 73.6 195.1 73.9 C 194.8 74.3 194.5 74.6 193.9 74.9 C 193.4 75.2 192.8 75.3 191.9 75.3 Z M 192.2 73.5 C 193 73.5 193.7 73.3 194.2 72.9 C 194.8 72.5 195.2 71.9 195.5 71.1 C 195.8 70.4 195.9 69.5 195.9 68.5 C 195.9 67.5 195.8 66.7 195.5 65.9 C 195.2 65.2 194.8 64.6 194.3 64.2 C 193.7 63.8 193 63.6 192.2 63.6 C 191.3 63.6 190.6 63.8 190.1 64.3 C 189.5 64.7 189.1 65.3 188.8 66 C 188.5 66.8 188.4 67.6 188.4 68.5 C 188.4 69.4 188.5 70.3 188.8 71 C 189.1 71.8 189.5 72.4 190.1 72.9 C 190.7 73.3 191.4 73.5 192.2 73.5 Z M 205.5 75.4 C 204.6 75.4 203.9 75.2 203.2 74.9 C 202.5 74.6 202 74.1 201.6 73.5 C 201.2 72.9 201 72.2 201 71.3 C 201 70.6 201.1 70 201.4 69.5 C 201.7 69 202.1 68.7 202.6 68.4 C 203.1 68.1 203.7 67.9 204.3 67.8 C 204.9 67.7 205.5 67.6 206.1 67.5 C 206.9 67.4 207.5 67.3 208 67.3 C 208.5 67.2 208.9 67.1 209.1 67 C 209.3 66.8 209.5 66.6 209.5 66.3 C 209.5 66.3 209.5 66.2 209.5 66.2 C 209.5 65.4 209.2 64.7 208.8 64.3 C 208.3 63.8 207.6 63.6 206.7 63.6 C 205.7 63.6 205 63.8 204.4 64.2 C 203.9 64.6 203.5 65.1 203.3 65.5 C 203.3 65.5 201.4 64.9 201.4 64.9 C 201.7 64.1 202.2 63.4 202.7 63 C 203.3 62.6 203.9 62.2 204.6 62.1 C 205.3 61.9 206 61.8 206.6 61.8 C 207 61.8 207.5 61.8 208.1 61.9 C 208.6 62 209.2 62.2 209.7 62.6 C 210.2 62.9 210.6 63.3 211 63.9 C 211.3 64.6 211.5 65.4 211.5 66.4 C 211.47 66.43 211.5 75.1 211.5 75.1 L 209.5 75.1 L 209.5 73.3 C 209.5 73.3 209.35 73.28 209.4 73.3 C 209.2 73.6 209 73.9 208.7 74.2 C 208.4 74.5 207.9 74.8 207.4 75 C 206.9 75.2 206.2 75.4 205.5 75.4 Z M 205.8 73.6 C 206.6 73.6 207.2 73.4 207.8 73.1 C 208.3 72.8 208.8 72.4 209 71.9 C 209.3 71.4 209.5 70.9 209.5 70.3 C 209.5 70.3 209.5 68.5 209.5 68.5 C 209.4 68.6 209.2 68.7 208.9 68.8 C 208.6 68.8 208.3 68.9 207.9 69 C 207.5 69 207.2 69.1 206.8 69.1 C 206.5 69.2 206.2 69.2 206 69.2 C 205.5 69.3 205 69.4 204.5 69.6 C 204.1 69.7 203.7 69.9 203.4 70.2 C 203.2 70.5 203 70.9 203 71.4 C 203 72.1 203.3 72.7 203.8 73 C 204.3 73.4 205 73.6 205.8 73.6 Z M 215.7 80 C 215.4 80 215.1 79.9 214.8 79.9 C 214.5 79.8 214.4 79.8 214.3 79.7 C 214.3 79.7 214.8 78 214.8 78 C 215.3 78.1 215.7 78.1 216.1 78.1 C 216.4 78.1 216.8 77.9 217.1 77.6 C 217.4 77.3 217.6 76.8 217.9 76.1 C 217.87 76.15 218.2 75.1 218.2 75.1 L 213.4 62 L 215.6 62 L 219.2 72.4 L 219.3 72.4 L 223 62 L 225.1 62 C 225.1 62 219.58 76.96 219.6 77 C 219.3 77.6 219 78.2 218.7 78.6 C 218.3 79.1 217.9 79.4 217.4 79.6 C 216.9 79.9 216.3 80 215.7 80 Z M 230.2 57.6 C 230.2 57.6 230.18 59.13 230.2 59.1 C 230.2 59.6 230.1 60.1 229.9 60.6 C 229.8 61.1 229.5 61.7 229.2 62.1 C 228.9 62.6 228.5 63.1 228 63.4 C 228 63.4 226.9 62.5 226.9 62.5 C 227.3 62 227.6 61.5 227.9 60.9 C 228.1 60.4 228.3 59.8 228.3 59.2 C 228.28 59.17 228.3 57.6 228.3 57.6 L 230.2 57.6 Z M 241.4 64.9 C 241.4 64.9 239.6 65.4 239.6 65.4 C 239.4 65.1 239.3 64.8 239.1 64.5 C 238.8 64.2 238.5 64 238.2 63.8 C 237.8 63.6 237.3 63.5 236.7 63.5 C 235.9 63.5 235.3 63.7 234.7 64.1 C 234.2 64.4 233.9 64.9 233.9 65.5 C 233.9 66 234.1 66.4 234.5 66.7 C 234.8 66.9 235.4 67.2 236.2 67.4 C 236.2 67.4 238.1 67.9 238.1 67.9 C 239.3 68.1 240.2 68.6 240.7 69.2 C 241.3 69.7 241.6 70.5 241.6 71.4 C 241.6 72.2 241.4 72.8 241 73.4 C 240.5 74 239.9 74.5 239.2 74.8 C 238.4 75.2 237.5 75.3 236.5 75.3 C 235.2 75.3 234.1 75 233.2 74.5 C 232.3 73.9 231.7 73 231.5 71.9 C 231.5 71.9 233.4 71.4 233.4 71.4 C 233.6 72.1 234 72.7 234.5 73 C 235 73.4 235.6 73.6 236.5 73.6 C 237.4 73.6 238.1 73.4 238.7 73 C 239.2 72.6 239.5 72.1 239.5 71.5 C 239.5 71.1 239.4 70.7 239 70.4 C 238.7 70.1 238.2 69.8 237.6 69.7 C 237.6 69.7 235.4 69.2 235.4 69.2 C 234.2 68.9 233.3 68.4 232.8 67.8 C 232.2 67.2 231.9 66.5 231.9 65.6 C 231.9 64.8 232.1 64.2 232.6 63.6 C 233 63 233.5 62.6 234.3 62.3 C 235 62 235.8 61.8 236.7 61.8 C 238 61.8 239 62.1 239.8 62.6 C 240.5 63.2 241.1 64 241.4 64.9 Z " stroke="none" fill="#10283d"/>  </g>  <g id="Polygon111855">    <path d="M 1.8 46.3 L 1.8 33.2 L 3.8 33.2 L 3.8 35.1 C 3.8 35.1 3.92 35.14 3.9 35.1 C 4.2 34.5 4.6 34 5.2 33.6 C 5.8 33.2 6.5 33 7.3 33 C 7.5 33 7.7 33 7.9 33 C 8.1 33 8.3 33 8.4 33 C 8.4 33 8.4 35 8.4 35 C 8.3 35 8.2 35 7.9 35 C 7.7 34.9 7.4 34.9 7.2 34.9 C 6.5 34.9 6 35 5.5 35.3 C 5 35.6 4.6 35.9 4.3 36.4 C 4 36.9 3.9 37.4 3.9 38 C 3.85 37.97 3.9 46.3 3.9 46.3 L 1.8 46.3 Z M 15.9 46.5 C 14.6 46.5 13.6 46.2 12.6 45.7 C 11.7 45.1 11 44.3 10.5 43.3 C 10 42.3 9.8 41.2 9.8 39.8 C 9.8 38.5 10 37.3 10.5 36.3 C 11 35.2 11.7 34.4 12.6 33.9 C 13.5 33.3 14.5 33 15.7 33 C 16.4 33 17.1 33.1 17.7 33.3 C 18.4 33.6 19 33.9 19.5 34.4 C 20.1 34.9 20.5 35.6 20.8 36.5 C 21.2 37.3 21.3 38.3 21.3 39.5 C 21.33 39.54 21.3 40.4 21.3 40.4 L 11.2 40.4 L 11.2 38.7 C 11.2 38.7 19.28 38.65 19.3 38.7 C 19.3 37.9 19.1 37.3 18.8 36.7 C 18.5 36.1 18.1 35.6 17.6 35.3 C 17.1 35 16.4 34.8 15.7 34.8 C 14.9 34.8 14.2 35 13.6 35.4 C 13 35.8 12.6 36.3 12.3 36.9 C 12 37.6 11.8 38.2 11.8 39 C 11.8 39 11.8 40.1 11.8 40.1 C 11.8 41.1 12 41.9 12.3 42.6 C 12.7 43.3 13.2 43.8 13.8 44.2 C 14.4 44.5 15.1 44.7 15.9 44.7 C 16.4 44.7 16.9 44.6 17.3 44.5 C 17.8 44.3 18.1 44.1 18.5 43.8 C 18.8 43.5 19 43.1 19.2 42.7 C 19.2 42.7 21.1 43.2 21.1 43.2 C 20.9 43.9 20.6 44.5 20.1 45 C 19.6 45.5 19 45.8 18.3 46.1 C 17.6 46.4 16.8 46.5 15.9 46.5 Z M 28 46.6 C 27.2 46.6 26.5 46.4 25.8 46.1 C 25.1 45.8 24.6 45.3 24.2 44.7 C 23.8 44.1 23.6 43.4 23.6 42.5 C 23.6 41.8 23.7 41.2 24 40.7 C 24.3 40.2 24.7 39.9 25.2 39.6 C 25.7 39.3 26.2 39.1 26.8 39 C 27.4 38.9 28 38.8 28.6 38.7 C 29.4 38.6 30.1 38.5 30.6 38.5 C 31.1 38.4 31.4 38.3 31.7 38.2 C 31.9 38 32 37.8 32 37.5 C 32 37.5 32 37.4 32 37.4 C 32 36.6 31.8 35.9 31.3 35.5 C 30.9 35 30.2 34.8 29.3 34.8 C 28.3 34.8 27.5 35 27 35.4 C 26.5 35.8 26.1 36.3 25.9 36.7 C 25.9 36.7 23.9 36.1 23.9 36.1 C 24.3 35.3 24.7 34.6 25.3 34.2 C 25.9 33.8 26.5 33.4 27.2 33.3 C 27.9 33.1 28.5 33 29.2 33 C 29.6 33 30.1 33 30.6 33.1 C 31.2 33.2 31.7 33.4 32.2 33.8 C 32.8 34.1 33.2 34.5 33.5 35.1 C 33.9 35.8 34 36.6 34 37.6 C 34.04 37.63 34 46.3 34 46.3 L 32 46.3 L 32 44.5 C 32 44.5 31.92 44.48 31.9 44.5 C 31.8 44.8 31.6 45.1 31.2 45.4 C 30.9 45.7 30.5 46 30 46.2 C 29.4 46.4 28.8 46.6 28 46.6 Z M 28.3 44.8 C 29.1 44.8 29.8 44.6 30.4 44.3 C 30.9 44 31.3 43.6 31.6 43.1 C 31.9 42.6 32 42.1 32 41.5 C 32 41.5 32 39.7 32 39.7 C 31.9 39.8 31.8 39.9 31.5 40 C 31.2 40 30.8 40.1 30.5 40.2 C 30.1 40.2 29.7 40.3 29.4 40.3 C 29 40.4 28.8 40.4 28.5 40.4 C 28 40.5 27.5 40.6 27.1 40.8 C 26.6 40.9 26.3 41.1 26 41.4 C 25.7 41.7 25.6 42.1 25.6 42.6 C 25.6 43.3 25.8 43.9 26.4 44.2 C 26.9 44.6 27.5 44.8 28.3 44.8 Z M 39.6 28.8 L 39.6 46.3 L 37.6 46.3 L 37.6 28.8 L 39.6 28.8 Z M 50.3 46.3 L 50.3 28.8 L 52.4 28.8 L 52.4 35.2 C 52.4 35.2 52.53 35.24 52.5 35.2 C 52.7 35 52.9 34.7 53.1 34.4 C 53.4 34 53.8 33.7 54.3 33.4 C 54.8 33.1 55.5 33 56.3 33 C 57.4 33 58.4 33.3 59.2 33.8 C 60.1 34.4 60.7 35.2 61.2 36.2 C 61.7 37.2 61.9 38.4 61.9 39.7 C 61.9 41.1 61.7 42.3 61.2 43.3 C 60.7 44.4 60.1 45.1 59.2 45.7 C 58.4 46.3 57.4 46.5 56.3 46.5 C 55.5 46.5 54.8 46.4 54.3 46.1 C 53.8 45.8 53.4 45.5 53.2 45.1 C 52.9 44.8 52.7 44.5 52.5 44.2 C 52.53 44.24 52.3 44.2 52.3 44.2 L 52.3 46.3 L 50.3 46.3 Z M 52.3 39.7 C 52.3 40.7 52.5 41.6 52.8 42.3 C 53 43.1 53.5 43.7 54 44.1 C 54.6 44.5 55.3 44.7 56.1 44.7 C 56.9 44.7 57.6 44.5 58.2 44.1 C 58.7 43.6 59.2 43 59.5 42.2 C 59.7 41.5 59.9 40.6 59.9 39.7 C 59.9 38.8 59.7 38 59.5 37.2 C 59.2 36.5 58.8 35.9 58.2 35.5 C 57.6 35 56.9 34.8 56.1 34.8 C 55.3 34.8 54.6 35 54 35.4 C 53.5 35.8 53 36.4 52.7 37.1 C 52.5 37.9 52.3 38.7 52.3 39.7 Z M 73.1 40.9 C 73.1 40.9 73.1 33.2 73.1 33.2 L 75.1 33.2 L 75.1 46.3 L 73.1 46.3 L 73.1 44 C 73.1 44 72.97 44.04 73 44 C 72.7 44.7 72.2 45.3 71.5 45.7 C 70.9 46.2 70.1 46.4 69.1 46.4 C 68.3 46.4 67.5 46.2 66.9 45.9 C 66.3 45.5 65.8 45 65.4 44.2 C 65 43.5 64.9 42.6 64.9 41.5 C 64.85 41.48 64.9 33.2 64.9 33.2 L 66.9 33.2 C 66.9 33.2 66.86 41.35 66.9 41.3 C 66.9 42.3 67.1 43.1 67.7 43.6 C 68.2 44.2 68.9 44.5 69.7 44.5 C 70.2 44.5 70.7 44.4 71.3 44.1 C 71.8 43.8 72.2 43.5 72.6 42.9 C 72.9 42.4 73.1 41.7 73.1 40.9 Z M 87.8 36.1 C 87.8 36.1 86 36.6 86 36.6 C 85.9 36.3 85.8 36 85.5 35.7 C 85.3 35.4 85 35.2 84.7 35 C 84.3 34.8 83.8 34.7 83.2 34.7 C 82.4 34.7 81.7 34.9 81.2 35.3 C 80.7 35.6 80.4 36.1 80.4 36.7 C 80.4 37.2 80.6 37.6 81 37.9 C 81.3 38.1 81.9 38.4 82.7 38.6 C 82.7 38.6 84.6 39.1 84.6 39.1 C 85.8 39.3 86.7 39.8 87.2 40.4 C 87.8 40.9 88.1 41.7 88.1 42.6 C 88.1 43.4 87.9 44 87.4 44.6 C 87 45.2 86.4 45.7 85.7 46 C 84.9 46.4 84 46.5 83 46.5 C 81.6 46.5 80.5 46.2 79.7 45.7 C 78.8 45.1 78.2 44.2 78 43.1 C 78 43.1 79.9 42.6 79.9 42.6 C 80.1 43.3 80.4 43.9 80.9 44.2 C 81.4 44.6 82.1 44.8 82.9 44.8 C 83.9 44.8 84.6 44.6 85.2 44.2 C 85.7 43.8 86 43.3 86 42.7 C 86 42.3 85.8 41.9 85.5 41.6 C 85.2 41.3 84.7 41 84.1 40.9 C 84.1 40.9 81.9 40.4 81.9 40.4 C 80.7 40.1 79.8 39.6 79.2 39 C 78.7 38.4 78.4 37.7 78.4 36.8 C 78.4 36 78.6 35.4 79 34.8 C 79.4 34.2 80 33.8 80.7 33.5 C 81.5 33.2 82.3 33 83.2 33 C 84.5 33 85.5 33.3 86.3 33.8 C 87 34.4 87.5 35.2 87.8 36.1 Z M 90.9 46.3 L 90.9 33.2 L 93 33.2 L 93 46.3 L 90.9 46.3 Z M 92 31 C 91.6 31 91.2 30.8 91 30.6 C 90.7 30.3 90.5 30 90.5 29.6 C 90.5 29.2 90.7 28.9 91 28.7 C 91.2 28.4 91.6 28.3 92 28.3 C 92.4 28.3 92.7 28.4 93 28.7 C 93.3 28.9 93.4 29.2 93.4 29.6 C 93.4 30 93.3 30.3 93 30.6 C 92.7 30.8 92.4 31 92 31 Z M 98.6 38.4 C 98.59 38.38 98.6 46.3 98.6 46.3 L 96.6 46.3 L 96.6 33.2 L 98.5 33.2 L 98.5 35.2 C 98.5 35.2 98.69 35.21 98.7 35.2 C 99 34.5 99.5 34 100.1 33.6 C 100.7 33.2 101.5 33 102.5 33 C 103.4 33 104.2 33.2 104.8 33.5 C 105.5 33.9 106 34.4 106.4 35.2 C 106.8 35.9 106.9 36.8 106.9 37.9 C 106.94 37.94 106.9 46.3 106.9 46.3 L 104.9 46.3 C 104.9 46.3 104.93 38.07 104.9 38.1 C 104.9 37 104.7 36.2 104.1 35.7 C 103.6 35.1 102.9 34.8 101.9 34.8 C 101.3 34.8 100.7 34.9 100.2 35.2 C 99.7 35.5 99.3 35.9 99 36.4 C 98.7 37 98.6 37.6 98.6 38.4 Z M 116 46.5 C 114.7 46.5 113.6 46.2 112.7 45.7 C 111.8 45.1 111.1 44.3 110.6 43.3 C 110.1 42.3 109.9 41.2 109.9 39.8 C 109.9 38.5 110.1 37.3 110.6 36.3 C 111.1 35.2 111.8 34.4 112.7 33.9 C 113.6 33.3 114.6 33 115.8 33 C 116.5 33 117.1 33.1 117.8 33.3 C 118.5 33.6 119.1 33.9 119.6 34.4 C 120.2 34.9 120.6 35.6 120.9 36.5 C 121.2 37.3 121.4 38.3 121.4 39.5 C 121.41 39.54 121.4 40.4 121.4 40.4 L 111.3 40.4 L 111.3 38.7 C 111.3 38.7 119.36 38.65 119.4 38.7 C 119.4 37.9 119.2 37.3 118.9 36.7 C 118.6 36.1 118.2 35.6 117.7 35.3 C 117.1 35 116.5 34.8 115.8 34.8 C 115 34.8 114.3 35 113.7 35.4 C 113.1 35.8 112.7 36.3 112.4 36.9 C 112.1 37.6 111.9 38.2 111.9 39 C 111.9 39 111.9 40.1 111.9 40.1 C 111.9 41.1 112.1 41.9 112.4 42.6 C 112.8 43.3 113.2 43.8 113.8 44.2 C 114.5 44.5 115.2 44.7 116 44.7 C 116.5 44.7 117 44.6 117.4 44.5 C 117.9 44.3 118.2 44.1 118.5 43.8 C 118.8 43.5 119.1 43.1 119.3 42.7 C 119.3 42.7 121.2 43.2 121.2 43.2 C 121 43.9 120.7 44.5 120.2 45 C 119.7 45.5 119.1 45.8 118.4 46.1 C 117.7 46.4 116.9 46.5 116 46.5 Z M 133.5 36.1 C 133.5 36.1 131.7 36.6 131.7 36.6 C 131.6 36.3 131.4 36 131.2 35.7 C 131 35.4 130.7 35.2 130.3 35 C 130 34.8 129.5 34.7 128.9 34.7 C 128.1 34.7 127.4 34.9 126.9 35.3 C 126.4 35.6 126.1 36.1 126.1 36.7 C 126.1 37.2 126.3 37.6 126.6 37.9 C 127 38.1 127.6 38.4 128.3 38.6 C 128.3 38.6 130.3 39.1 130.3 39.1 C 131.5 39.3 132.3 39.8 132.9 40.4 C 133.5 40.9 133.8 41.7 133.8 42.6 C 133.8 43.4 133.5 44 133.1 44.6 C 132.7 45.2 132.1 45.7 131.3 46 C 130.6 46.4 129.7 46.5 128.6 46.5 C 127.3 46.5 126.2 46.2 125.3 45.7 C 124.5 45.1 123.9 44.2 123.7 43.1 C 123.7 43.1 125.6 42.6 125.6 42.6 C 125.8 43.3 126.1 43.9 126.6 44.2 C 127.1 44.6 127.8 44.8 128.6 44.8 C 129.6 44.8 130.3 44.6 130.9 44.2 C 131.4 43.8 131.7 43.3 131.7 42.7 C 131.7 42.3 131.5 41.9 131.2 41.6 C 130.9 41.3 130.4 41 129.7 40.9 C 129.7 40.9 127.6 40.4 127.6 40.4 C 126.4 40.1 125.5 39.6 124.9 39 C 124.4 38.4 124.1 37.7 124.1 36.8 C 124.1 36 124.3 35.4 124.7 34.8 C 125.1 34.2 125.7 33.8 126.4 33.5 C 127.1 33.2 128 33 128.9 33 C 130.2 33 131.2 33.3 131.9 33.8 C 132.7 34.4 133.2 35.2 133.5 36.1 Z M 146 36.1 C 146 36.1 144.2 36.6 144.2 36.6 C 144 36.3 143.9 36 143.7 35.7 C 143.4 35.4 143.1 35.2 142.8 35 C 142.4 34.8 141.9 34.7 141.3 34.7 C 140.5 34.7 139.9 34.9 139.3 35.3 C 138.8 35.6 138.5 36.1 138.5 36.7 C 138.5 37.2 138.7 37.6 139.1 37.9 C 139.4 38.1 140 38.4 140.8 38.6 C 140.8 38.6 142.7 39.1 142.7 39.1 C 143.9 39.3 144.8 39.8 145.3 40.4 C 145.9 40.9 146.2 41.7 146.2 42.6 C 146.2 43.4 146 44 145.6 44.6 C 145.1 45.2 144.5 45.7 143.8 46 C 143 46.4 142.1 46.5 141.1 46.5 C 139.8 46.5 138.7 46.2 137.8 45.7 C 136.9 45.1 136.3 44.2 136.1 43.1 C 136.1 43.1 138 42.6 138 42.6 C 138.2 43.3 138.6 43.9 139.1 44.2 C 139.6 44.6 140.2 44.8 141.1 44.8 C 142 44.8 142.7 44.6 143.3 44.2 C 143.8 43.8 144.1 43.3 144.1 42.7 C 144.1 42.3 144 41.9 143.6 41.6 C 143.3 41.3 142.8 41 142.2 40.9 C 142.2 40.9 140 40.4 140 40.4 C 138.8 40.1 137.9 39.6 137.4 39 C 136.8 38.4 136.5 37.7 136.5 36.8 C 136.5 36 136.7 35.4 137.1 34.8 C 137.6 34.2 138.1 33.8 138.9 33.5 C 139.6 33.2 140.4 33 141.3 33 C 142.6 33 143.6 33.3 144.4 33.8 C 145.1 34.4 145.7 35.2 146 36.1 Z M 166.7 33.2 L 161.9 46.3 L 159.8 46.3 L 155 33.2 L 157.1 33.2 L 160.8 43.6 L 160.9 43.6 L 164.5 33.2 L 166.7 33.2 Z M 172.7 46.6 C 171.8 46.6 171.1 46.4 170.4 46.1 C 169.7 45.8 169.2 45.3 168.8 44.7 C 168.4 44.1 168.2 43.4 168.2 42.5 C 168.2 41.8 168.3 41.2 168.6 40.7 C 168.9 40.2 169.3 39.9 169.8 39.6 C 170.3 39.3 170.9 39.1 171.5 39 C 172.1 38.9 172.7 38.8 173.3 38.7 C 174.1 38.6 174.7 38.5 175.2 38.5 C 175.7 38.4 176.1 38.3 176.3 38.2 C 176.5 38 176.6 37.8 176.6 37.5 C 176.6 37.5 176.6 37.4 176.6 37.4 C 176.6 36.6 176.4 35.9 176 35.5 C 175.5 35 174.8 34.8 173.9 34.8 C 172.9 34.8 172.2 35 171.6 35.4 C 171.1 35.8 170.7 36.3 170.5 36.7 C 170.5 36.7 168.6 36.1 168.6 36.1 C 168.9 35.3 169.4 34.6 169.9 34.2 C 170.5 33.8 171.1 33.4 171.8 33.3 C 172.5 33.1 173.2 33 173.8 33 C 174.2 33 174.7 33 175.3 33.1 C 175.8 33.2 176.4 33.4 176.9 33.8 C 177.4 34.1 177.8 34.5 178.1 35.1 C 178.5 35.8 178.7 36.6 178.7 37.6 C 178.66 37.63 178.7 46.3 178.7 46.3 L 176.6 46.3 L 176.6 44.5 C 176.6 44.5 176.55 44.48 176.5 44.5 C 176.4 44.8 176.2 45.1 175.9 45.4 C 175.5 45.7 175.1 46 174.6 46.2 C 174.1 46.4 173.4 46.6 172.7 46.6 Z M 173 44.8 C 173.8 44.8 174.4 44.6 175 44.3 C 175.5 44 175.9 43.6 176.2 43.1 C 176.5 42.6 176.6 42.1 176.6 41.5 C 176.6 41.5 176.6 39.7 176.6 39.7 C 176.6 39.8 176.4 39.9 176.1 40 C 175.8 40 175.5 40.1 175.1 40.2 C 174.7 40.2 174.4 40.3 174 40.3 C 173.7 40.4 173.4 40.4 173.2 40.4 C 172.6 40.5 172.2 40.6 171.7 40.8 C 171.3 40.9 170.9 41.1 170.6 41.4 C 170.3 41.7 170.2 42.1 170.2 42.6 C 170.2 43.3 170.5 43.9 171 44.2 C 171.5 44.6 172.2 44.8 173 44.8 Z M 184.3 28.8 L 184.3 46.3 L 182.3 46.3 L 182.3 28.8 L 184.3 28.8 Z M 196.1 40.9 C 196.1 40.9 196.1 33.2 196.1 33.2 L 198.1 33.2 L 198.1 46.3 L 196.1 46.3 L 196.1 44 C 196.1 44 195.97 44.04 196 44 C 195.7 44.7 195.2 45.3 194.5 45.7 C 193.9 46.2 193.1 46.4 192.1 46.4 C 191.3 46.4 190.5 46.2 189.9 45.9 C 189.3 45.5 188.8 45 188.4 44.2 C 188 43.5 187.9 42.6 187.9 41.5 C 187.85 41.48 187.9 33.2 187.9 33.2 L 189.9 33.2 C 189.9 33.2 189.87 41.35 189.9 41.3 C 189.9 42.3 190.1 43.1 190.7 43.6 C 191.2 44.2 191.9 44.5 192.7 44.5 C 193.2 44.5 193.7 44.4 194.3 44.1 C 194.8 43.8 195.2 43.5 195.6 42.9 C 195.9 42.4 196.1 41.7 196.1 40.9 Z M 207.2 46.5 C 205.9 46.5 204.9 46.2 203.9 45.7 C 203 45.1 202.3 44.3 201.8 43.3 C 201.4 42.3 201.1 41.2 201.1 39.8 C 201.1 38.5 201.4 37.3 201.8 36.3 C 202.3 35.2 203 34.4 203.9 33.9 C 204.8 33.3 205.8 33 207 33 C 207.7 33 208.4 33.1 209 33.3 C 209.7 33.6 210.3 33.9 210.8 34.4 C 211.4 34.9 211.8 35.6 212.1 36.5 C 212.5 37.3 212.6 38.3 212.6 39.5 C 212.63 39.54 212.6 40.4 212.6 40.4 L 202.5 40.4 L 202.5 38.7 C 202.5 38.7 210.58 38.65 210.6 38.7 C 210.6 37.9 210.4 37.3 210.1 36.7 C 209.9 36.1 209.4 35.6 208.9 35.3 C 208.4 35 207.7 34.8 207 34.8 C 206.2 34.8 205.5 35 204.9 35.4 C 204.3 35.8 203.9 36.3 203.6 36.9 C 203.3 37.6 203.1 38.2 203.1 39 C 203.1 39 203.1 40.1 203.1 40.1 C 203.1 41.1 203.3 41.9 203.6 42.6 C 204 43.3 204.5 43.8 205.1 44.2 C 205.7 44.5 206.4 44.7 207.2 44.7 C 207.7 44.7 208.2 44.6 208.6 44.5 C 209.1 44.3 209.4 44.1 209.8 43.8 C 210.1 43.5 210.3 43.1 210.5 42.7 C 210.5 42.7 212.4 43.2 212.4 43.2 C 212.2 43.9 211.9 44.5 211.4 45 C 210.9 45.5 210.3 45.8 209.6 46.1 C 208.9 46.4 208.1 46.5 207.2 46.5 Z M 216.8 46.4 C 216.4 46.4 216.1 46.2 215.8 45.9 C 215.4 45.6 215.3 45.3 215.3 44.9 C 215.3 44.4 215.4 44.1 215.8 43.8 C 216.1 43.5 216.4 43.3 216.8 43.3 C 217.3 43.3 217.6 43.5 217.9 43.8 C 218.2 44.1 218.4 44.4 218.4 44.9 C 218.4 45.1 218.3 45.4 218.2 45.6 C 218 45.9 217.8 46 217.6 46.2 C 217.4 46.3 217.1 46.4 216.8 46.4 Z M 238.5 33.2 C 238.4 32.3 238 31.6 237.3 31.2 C 236.6 30.7 235.7 30.4 234.6 30.4 C 233.9 30.4 233.2 30.6 232.6 30.8 C 232 31.1 231.6 31.4 231.3 31.8 C 230.9 32.3 230.8 32.8 230.8 33.3 C 230.8 33.8 230.9 34.2 231.1 34.5 C 231.3 34.9 231.6 35.1 232 35.4 C 232.3 35.6 232.7 35.8 233.1 35.9 C 233.5 36 233.8 36.1 234.2 36.2 C 234.2 36.2 235.9 36.7 235.9 36.7 C 236.4 36.8 236.9 37 237.4 37.2 C 238 37.4 238.5 37.7 239.1 38.1 C 239.6 38.4 240 38.9 240.3 39.4 C 240.7 40 240.8 40.7 240.8 41.5 C 240.8 42.5 240.6 43.3 240.1 44.1 C 239.6 44.8 238.9 45.4 237.9 45.9 C 237 46.3 235.9 46.6 234.5 46.6 C 233.3 46.6 232.2 46.4 231.3 46 C 230.4 45.6 229.7 45 229.1 44.3 C 228.6 43.5 228.3 42.7 228.3 41.8 C 228.3 41.8 230.4 41.8 230.4 41.8 C 230.5 42.4 230.7 43 231.1 43.4 C 231.5 43.8 232 44.1 232.6 44.3 C 233.2 44.5 233.8 44.7 234.5 44.7 C 235.3 44.7 236.1 44.5 236.7 44.3 C 237.3 44 237.8 43.6 238.2 43.1 C 238.6 42.7 238.8 42.1 238.8 41.5 C 238.8 40.9 238.6 40.4 238.3 40.1 C 238 39.7 237.6 39.4 237 39.2 C 236.5 39 235.9 38.8 235.3 38.6 C 235.3 38.6 233.2 38 233.2 38 C 231.8 37.6 230.7 37 229.9 36.3 C 229.1 35.6 228.7 34.6 228.7 33.4 C 228.7 32.5 229 31.6 229.5 30.9 C 230.1 30.1 230.8 29.6 231.7 29.2 C 232.6 28.8 233.6 28.6 234.7 28.6 C 235.8 28.6 236.8 28.8 237.7 29.2 C 238.6 29.6 239.3 30.1 239.8 30.8 C 240.3 31.5 240.6 32.3 240.6 33.2 C 240.6 33.2 238.5 33.2 238.5 33.2 Z M 249.3 46.5 C 248.1 46.5 247 46.2 246.2 45.7 C 245.3 45.1 244.6 44.3 244.1 43.3 C 243.6 42.3 243.3 41.1 243.3 39.8 C 243.3 38.4 243.6 37.2 244.1 36.2 C 244.6 35.2 245.3 34.4 246.2 33.8 C 247 33.3 248.1 33 249.3 33 C 250.4 33 251.5 33.3 252.4 33.8 C 253.3 34.4 254 35.2 254.4 36.2 C 254.9 37.2 255.2 38.4 255.2 39.8 C 255.2 41.1 254.9 42.3 254.4 43.3 C 254 44.3 253.3 45.1 252.4 45.7 C 251.5 46.2 250.4 46.5 249.3 46.5 Z M 249.3 44.7 C 250.2 44.7 250.9 44.5 251.5 44 C 252.1 43.6 252.5 43 252.8 42.2 C 253 41.5 253.2 40.7 253.2 39.8 C 253.2 38.9 253 38.1 252.8 37.3 C 252.5 36.6 252.1 36 251.5 35.5 C 250.9 35 250.2 34.8 249.3 34.8 C 248.4 34.8 247.6 35 247 35.5 C 246.5 36 246 36.6 245.8 37.3 C 245.5 38.1 245.3 38.9 245.3 39.8 C 245.3 40.7 245.5 41.5 245.8 42.2 C 246 43 246.5 43.6 247 44 C 247.6 44.5 248.4 44.7 249.3 44.7 Z M 260.5 43.9 C 260.5 43.9 260.33 44.79 260.3 44.8 C 260.2 45.4 260.1 46.1 259.9 46.9 C 259.7 47.6 259.5 48.3 259.3 49 C 259.1 49.6 258.9 50.1 258.8 50.5 C 258.8 50.5 257.2 50.5 257.2 50.5 C 257.3 50.2 257.4 49.7 257.5 49.1 C 257.6 48.5 257.8 47.8 257.9 47.1 C 258 46.3 258.1 45.6 258.2 44.8 C 258.19 44.82 258.3 43.9 258.3 43.9 L 260.5 43.9 Z " stroke="none" fill="#10283d"/>  </g>  <g id="Polygon111854">    <path d="M 2.1 0 L 4.6 0 L 10.6 14.5 L 10.8 14.5 L 16.7 0 L 19.2 0 L 19.2 17.5 L 17.3 17.5 L 17.3 4.2 L 17.1 4.2 L 11.6 17.5 L 9.7 17.5 L 4.3 4.2 L 4.1 4.2 L 4.1 17.5 L 2.1 17.5 L 2.1 0 Z M 28.5 17.7 C 27.3 17.7 26.3 17.4 25.4 16.9 C 24.5 16.3 23.8 15.5 23.3 14.5 C 22.8 13.5 22.5 12.3 22.5 11 C 22.5 9.6 22.8 8.4 23.3 7.4 C 23.8 6.4 24.5 5.6 25.4 5 C 26.3 4.5 27.3 4.2 28.5 4.2 C 29.7 4.2 30.7 4.5 31.6 5 C 32.5 5.6 33.2 6.4 33.7 7.4 C 34.2 8.4 34.4 9.6 34.4 11 C 34.4 12.3 34.2 13.5 33.7 14.5 C 33.2 15.5 32.5 16.3 31.6 16.9 C 30.7 17.4 29.7 17.7 28.5 17.7 Z M 28.5 15.9 C 29.4 15.9 30.1 15.7 30.7 15.2 C 31.3 14.8 31.7 14.2 32 13.4 C 32.3 12.7 32.4 11.9 32.4 11 C 32.4 10.1 32.3 9.3 32 8.5 C 31.7 7.8 31.3 7.2 30.7 6.7 C 30.1 6.2 29.4 6 28.5 6 C 27.6 6 26.8 6.2 26.3 6.7 C 25.7 7.2 25.2 7.8 25 8.5 C 24.7 9.3 24.6 10.1 24.6 11 C 24.6 11.9 24.7 12.7 25 13.4 C 25.2 14.2 25.7 14.8 26.3 15.2 C 26.8 15.7 27.6 15.9 28.5 15.9 Z M 46.4 7.3 C 46.4 7.3 44.6 7.8 44.6 7.8 C 44.5 7.5 44.3 7.2 44.1 6.9 C 43.9 6.6 43.6 6.4 43.2 6.2 C 42.8 6 42.3 5.9 41.8 5.9 C 41 5.9 40.3 6.1 39.8 6.5 C 39.2 6.8 39 7.3 39 7.9 C 39 8.4 39.1 8.8 39.5 9.1 C 39.9 9.3 40.4 9.6 41.2 9.8 C 41.2 9.8 43.2 10.3 43.2 10.3 C 44.3 10.5 45.2 11 45.8 11.6 C 46.3 12.1 46.6 12.9 46.6 13.8 C 46.6 14.6 46.4 15.2 46 15.8 C 45.6 16.4 45 16.9 44.2 17.2 C 43.4 17.6 42.5 17.7 41.5 17.7 C 40.2 17.7 39.1 17.4 38.2 16.9 C 37.3 16.3 36.8 15.4 36.5 14.3 C 36.5 14.3 38.5 13.8 38.5 13.8 C 38.6 14.5 39 15.1 39.5 15.4 C 40 15.8 40.7 16 41.5 16 C 42.4 16 43.2 15.8 43.7 15.4 C 44.3 15 44.6 14.5 44.6 13.9 C 44.6 13.5 44.4 13.1 44.1 12.8 C 43.8 12.5 43.3 12.2 42.6 12.1 C 42.6 12.1 40.4 11.6 40.4 11.6 C 39.2 11.3 38.4 10.8 37.8 10.2 C 37.2 9.6 37 8.9 37 8 C 37 7.2 37.2 6.6 37.6 6 C 38 5.4 38.6 5 39.3 4.7 C 40 4.4 40.8 4.2 41.8 4.2 C 43.1 4.2 44.1 4.5 44.8 5 C 45.6 5.6 46.1 6.4 46.4 7.3 Z M 55.2 4.4 L 55.2 6.1 L 48.4 6.1 L 48.4 4.4 L 55.2 4.4 Z M 50.4 1.2 L 52.4 1.2 C 52.4 1.2 52.4 13.7 52.4 13.7 C 52.4 14.3 52.5 14.7 52.7 15 C 52.8 15.3 53 15.4 53.3 15.5 C 53.6 15.6 53.8 15.7 54.1 15.7 C 54.4 15.7 54.5 15.7 54.7 15.6 C 54.8 15.6 54.9 15.6 55 15.6 C 55 15.6 55.4 17.4 55.4 17.4 C 55.3 17.4 55.1 17.5 54.9 17.5 C 54.6 17.6 54.3 17.6 53.9 17.6 C 53.4 17.6 52.8 17.5 52.3 17.3 C 51.7 17 51.3 16.6 50.9 16.1 C 50.6 15.6 50.4 15 50.4 14.3 C 50.39 14.25 50.4 1.2 50.4 1.2 Z M 66 17.5 L 63.8 17.5 L 70.2 0 L 72.3 0 L 78.8 17.5 L 76.5 17.5 L 71.3 2.8 L 71.2 2.8 L 66 17.5 Z M 66.8 10.6 L 75.7 10.6 L 75.7 12.5 L 66.8 12.5 L 66.8 10.6 Z M 83.5 0 L 83.5 17.5 L 81.4 17.5 L 81.4 0 L 83.5 0 Z M 100.1 4.4 L 100.1 6.1 L 93 6.1 L 93 4.4 L 100.1 4.4 Z M 95.1 17.5 C 95.1 17.5 95.14 2.56 95.1 2.6 C 95.1 1.8 95.3 1.2 95.7 0.7 C 96 0.2 96.5 -0.2 97 -0.4 C 97.6 -0.7 98.2 -0.8 98.8 -0.8 C 99.3 -0.8 99.7 -0.8 100 -0.7 C 100.3 -0.6 100.6 -0.5 100.7 -0.5 C 100.7 -0.5 100.1 1.3 100.1 1.3 C 100 1.2 99.9 1.2 99.7 1.1 C 99.5 1.1 99.3 1.1 99 1.1 C 98.4 1.1 97.9 1.2 97.6 1.6 C 97.3 1.9 97.1 2.4 97.1 3 C 97.15 3.03 97.1 17.5 97.1 17.5 L 95.1 17.5 Z M 106.4 17.8 C 105.5 17.8 104.8 17.6 104.1 17.3 C 103.4 17 102.9 16.5 102.5 15.9 C 102.1 15.3 101.9 14.6 101.9 13.7 C 101.9 13 102 12.4 102.3 11.9 C 102.6 11.4 103 11.1 103.5 10.8 C 104 10.5 104.6 10.3 105.2 10.2 C 105.8 10.1 106.4 10 107 9.9 C 107.8 9.8 108.4 9.7 108.9 9.7 C 109.4 9.6 109.8 9.5 110 9.4 C 110.2 9.2 110.4 9 110.4 8.7 C 110.4 8.7 110.4 8.6 110.4 8.6 C 110.4 7.8 110.1 7.1 109.7 6.7 C 109.2 6.2 108.5 6 107.6 6 C 106.6 6 105.9 6.2 105.3 6.6 C 104.8 7 104.4 7.5 104.2 7.9 C 104.2 7.9 102.3 7.3 102.3 7.3 C 102.6 6.5 103.1 5.8 103.6 5.4 C 104.2 5 104.8 4.6 105.5 4.5 C 106.2 4.3 106.9 4.2 107.5 4.2 C 107.9 4.2 108.4 4.2 109 4.3 C 109.5 4.4 110.1 4.6 110.6 5 C 111.1 5.3 111.5 5.7 111.9 6.3 C 112.2 7 112.4 7.8 112.4 8.8 C 112.36 8.83 112.4 17.5 112.4 17.5 L 110.4 17.5 L 110.4 15.7 C 110.4 15.7 110.25 15.68 110.2 15.7 C 110.1 16 109.9 16.3 109.6 16.6 C 109.2 16.9 108.8 17.2 108.3 17.4 C 107.8 17.6 107.1 17.8 106.4 17.8 Z M 106.7 16 C 107.5 16 108.1 15.8 108.7 15.5 C 109.2 15.2 109.6 14.8 109.9 14.3 C 110.2 13.8 110.4 13.3 110.4 12.7 C 110.4 12.7 110.4 10.9 110.4 10.9 C 110.3 11 110.1 11.1 109.8 11.2 C 109.5 11.2 109.2 11.3 108.8 11.4 C 108.4 11.4 108.1 11.5 107.7 11.5 C 107.4 11.6 107.1 11.6 106.9 11.6 C 106.4 11.7 105.9 11.8 105.4 12 C 105 12.1 104.6 12.3 104.3 12.6 C 104 12.9 103.9 13.3 103.9 13.8 C 103.9 14.5 104.2 15.1 104.7 15.4 C 105.2 15.8 105.9 16 106.7 16 Z M 115.9 17.5 L 115.9 4.4 L 117.9 4.4 L 117.9 17.5 L 115.9 17.5 Z M 116.9 2.2 C 116.5 2.2 116.2 2 115.9 1.8 C 115.6 1.5 115.5 1.2 115.5 0.8 C 115.5 0.4 115.6 0.1 115.9 -0.1 C 116.2 -0.4 116.5 -0.5 116.9 -0.5 C 117.3 -0.5 117.7 -0.4 117.9 -0.1 C 118.2 0.1 118.4 0.4 118.4 0.8 C 118.4 1.2 118.2 1.5 117.9 1.8 C 117.7 2 117.3 2.2 116.9 2.2 Z M 123.5 0 L 123.5 17.5 L 121.5 17.5 L 121.5 0 L 123.5 0 Z M 136.3 7.3 C 136.3 7.3 134.5 7.8 134.5 7.8 C 134.4 7.5 134.2 7.2 134 6.9 C 133.8 6.6 133.5 6.4 133.1 6.2 C 132.7 6 132.3 5.9 131.7 5.9 C 130.9 5.9 130.2 6.1 129.7 6.5 C 129.1 6.8 128.9 7.3 128.9 7.9 C 128.9 8.4 129.1 8.8 129.4 9.1 C 129.8 9.3 130.3 9.6 131.1 9.8 C 131.1 9.8 133.1 10.3 133.1 10.3 C 134.2 10.5 135.1 11 135.7 11.6 C 136.3 12.1 136.5 12.9 136.5 13.8 C 136.5 14.6 136.3 15.2 135.9 15.8 C 135.5 16.4 134.9 16.9 134.1 17.2 C 133.3 17.6 132.4 17.7 131.4 17.7 C 130.1 17.7 129 17.4 128.1 16.9 C 127.2 16.3 126.7 15.4 126.5 14.3 C 126.5 14.3 128.4 13.8 128.4 13.8 C 128.5 14.5 128.9 15.1 129.4 15.4 C 129.9 15.8 130.6 16 131.4 16 C 132.3 16 133.1 15.8 133.6 15.4 C 134.2 15 134.5 14.5 134.5 13.9 C 134.5 13.5 134.3 13.1 134 12.8 C 133.7 12.5 133.2 12.2 132.5 12.1 C 132.5 12.1 130.3 11.6 130.3 11.6 C 129.1 11.3 128.3 10.8 127.7 10.2 C 127.1 9.6 126.9 8.9 126.9 8 C 126.9 7.2 127.1 6.6 127.5 6 C 127.9 5.4 128.5 5 129.2 4.7 C 129.9 4.4 130.7 4.2 131.7 4.2 C 133 4.2 134 4.5 134.7 5 C 135.5 5.6 136 6.4 136.3 7.3 Z M 152 4.4 L 152 6.1 L 145.2 6.1 L 145.2 4.4 L 152 4.4 Z M 147.2 1.2 L 149.2 1.2 C 149.2 1.2 149.22 13.7 149.2 13.7 C 149.2 14.3 149.3 14.7 149.5 15 C 149.6 15.3 149.9 15.4 150.1 15.5 C 150.4 15.6 150.7 15.7 151 15.7 C 151.2 15.7 151.4 15.7 151.5 15.6 C 151.6 15.6 151.8 15.6 151.8 15.6 C 151.8 15.6 152.3 17.4 152.3 17.4 C 152.1 17.4 151.9 17.5 151.7 17.5 C 151.4 17.6 151.1 17.6 150.8 17.6 C 150.2 17.6 149.6 17.5 149.1 17.3 C 148.5 17 148.1 16.6 147.7 16.1 C 147.4 15.6 147.2 15 147.2 14.3 C 147.21 14.25 147.2 1.2 147.2 1.2 Z M 159.6 17.7 C 158.4 17.7 157.4 17.4 156.5 16.9 C 155.6 16.3 154.9 15.5 154.4 14.5 C 153.9 13.5 153.7 12.3 153.7 11 C 153.7 9.6 153.9 8.4 154.4 7.4 C 154.9 6.4 155.6 5.6 156.5 5 C 157.4 4.5 158.4 4.2 159.6 4.2 C 160.8 4.2 161.8 4.5 162.7 5 C 163.6 5.6 164.3 6.4 164.8 7.4 C 165.3 8.4 165.6 9.6 165.6 11 C 165.6 12.3 165.3 13.5 164.8 14.5 C 164.3 15.5 163.6 16.3 162.7 16.9 C 161.8 17.4 160.8 17.7 159.6 17.7 Z M 159.6 15.9 C 160.5 15.9 161.3 15.7 161.8 15.2 C 162.4 14.8 162.8 14.2 163.1 13.4 C 163.4 12.7 163.5 11.9 163.5 11 C 163.5 10.1 163.4 9.3 163.1 8.5 C 162.8 7.8 162.4 7.2 161.8 6.7 C 161.3 6.2 160.5 6 159.6 6 C 158.7 6 158 6.2 157.4 6.7 C 156.8 7.2 156.4 7.8 156.1 8.5 C 155.8 9.3 155.7 10.1 155.7 11 C 155.7 11.9 155.8 12.7 156.1 13.4 C 156.4 14.2 156.8 14.8 157.4 15.2 C 158 15.7 158.7 15.9 159.6 15.9 Z M 180.7 22.6 C 179.7 22.6 178.8 22.5 178.1 22.3 C 177.4 22 176.9 21.7 176.4 21.3 C 175.9 20.9 175.6 20.5 175.3 20 C 175.3 20 176.9 18.9 176.9 18.9 C 177.1 19.1 177.3 19.4 177.6 19.7 C 177.9 20 178.3 20.3 178.7 20.5 C 179.2 20.7 179.9 20.9 180.7 20.9 C 181.7 20.9 182.6 20.6 183.3 20.1 C 184 19.6 184.3 18.8 184.3 17.7 C 184.3 17.69 184.3 15 184.3 15 C 184.3 15 184.13 15.03 184.1 15 C 184 15.3 183.8 15.6 183.5 15.9 C 183.2 16.3 182.8 16.6 182.3 16.8 C 181.8 17.1 181.2 17.3 180.3 17.3 C 179.3 17.3 178.3 17 177.5 16.5 C 176.6 16 176 15.3 175.5 14.3 C 175 13.4 174.8 12.2 174.8 10.8 C 174.8 9.5 175 8.3 175.5 7.3 C 175.9 6.3 176.6 5.6 177.4 5 C 178.3 4.5 179.2 4.2 180.3 4.2 C 181.2 4.2 181.9 4.3 182.4 4.6 C 182.9 4.9 183.3 5.2 183.5 5.6 C 183.8 5.9 184 6.2 184.2 6.4 C 184.16 6.44 184.4 6.4 184.4 6.4 L 184.4 4.4 L 186.3 4.4 C 186.3 4.4 186.31 17.83 186.3 17.8 C 186.3 19 186.1 19.9 185.5 20.6 C 185 21.3 184.4 21.8 183.5 22.1 C 182.6 22.5 181.7 22.6 180.7 22.6 Z M 180.6 15.4 C 181.4 15.4 182.1 15.3 182.6 14.9 C 183.2 14.5 183.6 14 183.9 13.3 C 184.2 12.6 184.3 11.8 184.3 10.8 C 184.3 9.9 184.2 9 183.9 8.3 C 183.6 7.6 183.2 7 182.6 6.6 C 182.1 6.2 181.4 6 180.6 6 C 179.7 6 179 6.2 178.5 6.6 C 177.9 7.1 177.5 7.7 177.2 8.4 C 176.9 9.1 176.8 9.9 176.8 10.8 C 176.8 11.7 176.9 12.5 177.2 13.2 C 177.5 13.9 177.9 14.5 178.5 14.9 C 179 15.2 179.7 15.4 180.6 15.4 Z M 195.4 17.7 C 194.1 17.7 193.1 17.4 192.1 16.9 C 191.2 16.3 190.5 15.5 190 14.5 C 189.5 13.5 189.3 12.4 189.3 11 C 189.3 9.7 189.5 8.5 190 7.5 C 190.5 6.4 191.2 5.6 192.1 5.1 C 193 4.5 194 4.2 195.2 4.2 C 195.9 4.2 196.5 4.3 197.2 4.5 C 197.9 4.8 198.5 5.1 199 5.6 C 199.6 6.1 200 6.8 200.3 7.7 C 200.7 8.5 200.8 9.5 200.8 10.7 C 200.82 10.74 200.8 11.6 200.8 11.6 L 190.7 11.6 L 190.7 9.9 C 190.7 9.9 198.77 9.85 198.8 9.9 C 198.8 9.1 198.6 8.5 198.3 7.9 C 198 7.3 197.6 6.8 197.1 6.5 C 196.6 6.2 195.9 6 195.2 6 C 194.4 6 193.7 6.2 193.1 6.6 C 192.5 7 192.1 7.5 191.8 8.1 C 191.5 8.8 191.3 9.4 191.3 10.2 C 191.3 10.2 191.3 11.3 191.3 11.3 C 191.3 12.3 191.5 13.1 191.8 13.8 C 192.2 14.5 192.6 15 193.3 15.4 C 193.9 15.7 194.6 15.9 195.4 15.9 C 195.9 15.9 196.4 15.8 196.8 15.7 C 197.3 15.5 197.6 15.3 197.9 15 C 198.3 14.7 198.5 14.3 198.7 13.9 C 198.7 13.9 200.6 14.4 200.6 14.4 C 200.4 15.1 200.1 15.7 199.6 16.2 C 199.1 16.7 198.5 17 197.8 17.3 C 197.1 17.6 196.3 17.7 195.4 17.7 Z M 205.8 9.6 C 205.83 9.58 205.8 17.5 205.8 17.5 L 203.8 17.5 L 203.8 4.4 L 205.8 4.4 L 205.8 6.4 C 205.8 6.4 205.93 6.41 205.9 6.4 C 206.2 5.7 206.7 5.2 207.3 4.8 C 208 4.4 208.8 4.2 209.7 4.2 C 210.6 4.2 211.4 4.4 212.1 4.7 C 212.7 5.1 213.3 5.6 213.6 6.4 C 214 7.1 214.2 8 214.2 9.1 C 214.18 9.14 214.2 17.5 214.2 17.5 L 212.2 17.5 C 212.2 17.5 212.17 9.27 212.2 9.3 C 212.2 8.2 211.9 7.4 211.4 6.9 C 210.8 6.3 210.1 6 209.2 6 C 208.5 6 208 6.1 207.5 6.4 C 206.9 6.7 206.6 7.1 206.3 7.6 C 206 8.2 205.8 8.8 205.8 9.6 Z M 223.2 17.7 C 222 17.7 220.9 17.4 220 16.9 C 219.1 16.3 218.4 15.5 217.9 14.5 C 217.4 13.5 217.1 12.4 217.1 11 C 217.1 9.7 217.4 8.5 217.9 7.5 C 218.4 6.4 219 5.6 219.9 5.1 C 220.8 4.5 221.8 4.2 223 4.2 C 223.7 4.2 224.4 4.3 225 4.5 C 225.7 4.8 226.3 5.1 226.9 5.6 C 227.4 6.1 227.8 6.8 228.2 7.7 C 228.5 8.5 228.6 9.5 228.6 10.7 C 228.64 10.74 228.6 11.6 228.6 11.6 L 218.6 11.6 L 218.6 9.9 C 218.6 9.9 226.6 9.85 226.6 9.9 C 226.6 9.1 226.5 8.5 226.2 7.9 C 225.9 7.3 225.5 6.8 224.9 6.5 C 224.4 6.2 223.7 6 223 6 C 222.2 6 221.5 6.2 220.9 6.6 C 220.4 7 219.9 7.5 219.6 8.1 C 219.3 8.8 219.1 9.4 219.1 10.2 C 219.1 10.2 219.1 11.3 219.1 11.3 C 219.1 12.3 219.3 13.1 219.6 13.8 C 220 14.5 220.5 15 221.1 15.4 C 221.7 15.7 222.4 15.9 223.2 15.9 C 223.8 15.9 224.2 15.8 224.7 15.7 C 225.1 15.5 225.5 15.3 225.8 15 C 226.1 14.7 226.3 14.3 226.5 13.9 C 226.5 13.9 228.4 14.4 228.4 14.4 C 228.2 15.1 227.9 15.7 227.4 16.2 C 226.9 16.7 226.3 17 225.6 17.3 C 224.9 17.6 224.1 17.7 223.2 17.7 Z M 231.6 17.5 L 231.6 4.4 L 233.6 4.4 L 233.6 6.3 C 233.6 6.3 233.72 6.34 233.7 6.3 C 234 5.7 234.4 5.2 235 4.8 C 235.6 4.4 236.3 4.2 237.1 4.2 C 237.3 4.2 237.5 4.2 237.7 4.2 C 237.9 4.2 238.1 4.2 238.2 4.2 C 238.2 4.2 238.2 6.2 238.2 6.2 C 238.1 6.2 238 6.2 237.7 6.2 C 237.5 6.1 237.2 6.1 237 6.1 C 236.3 6.1 235.8 6.2 235.3 6.5 C 234.8 6.8 234.4 7.1 234.1 7.6 C 233.8 8.1 233.7 8.6 233.7 9.2 C 233.65 9.17 233.7 17.5 233.7 17.5 L 231.6 17.5 Z M 244.3 17.8 C 243.5 17.8 242.7 17.6 242.1 17.3 C 241.4 17 240.9 16.5 240.5 15.9 C 240.1 15.3 239.9 14.6 239.9 13.7 C 239.9 13 240 12.4 240.3 11.9 C 240.6 11.4 241 11.1 241.5 10.8 C 242 10.5 242.5 10.3 243.1 10.2 C 243.7 10.1 244.3 10 244.9 9.9 C 245.7 9.8 246.4 9.7 246.9 9.7 C 247.4 9.6 247.7 9.5 248 9.4 C 248.2 9.2 248.3 9 248.3 8.7 C 248.3 8.7 248.3 8.6 248.3 8.6 C 248.3 7.8 248.1 7.1 247.6 6.7 C 247.2 6.2 246.5 6 245.6 6 C 244.6 6 243.8 6.2 243.3 6.6 C 242.7 7 242.4 7.5 242.1 7.9 C 242.1 7.9 240.2 7.3 240.2 7.3 C 240.6 6.5 241 5.8 241.6 5.4 C 242.2 5 242.8 4.6 243.5 4.5 C 244.2 4.3 244.8 4.2 245.5 4.2 C 245.9 4.2 246.4 4.2 246.9 4.3 C 247.5 4.4 248 4.6 248.5 5 C 249 5.3 249.5 5.7 249.8 6.3 C 250.2 7 250.3 7.8 250.3 8.8 C 250.33 8.83 250.3 17.5 250.3 17.5 L 248.3 17.5 L 248.3 15.7 C 248.3 15.7 248.21 15.68 248.2 15.7 C 248.1 16 247.8 16.3 247.5 16.6 C 247.2 16.9 246.8 17.2 246.3 17.4 C 245.7 17.6 245.1 17.8 244.3 17.8 Z M 244.6 16 C 245.4 16 246.1 15.8 246.6 15.5 C 247.2 15.2 247.6 14.8 247.9 14.3 C 248.2 13.8 248.3 13.3 248.3 12.7 C 248.3 12.7 248.3 10.9 248.3 10.9 C 248.2 11 248 11.1 247.8 11.2 C 247.5 11.2 247.1 11.3 246.8 11.4 C 246.4 11.4 246 11.5 245.7 11.5 C 245.3 11.6 245.1 11.6 244.8 11.6 C 244.3 11.7 243.8 11.8 243.4 12 C 242.9 12.1 242.6 12.3 242.3 12.6 C 242 12.9 241.9 13.3 241.9 13.8 C 241.9 14.5 242.1 15.1 242.7 15.4 C 243.2 15.8 243.8 16 244.6 16 Z M 259.3 4.4 L 259.3 6.1 L 252.5 6.1 L 252.5 4.4 L 259.3 4.4 Z M 254.5 1.2 L 256.5 1.2 C 256.5 1.2 256.49 13.7 256.5 13.7 C 256.5 14.3 256.6 14.7 256.7 15 C 256.9 15.3 257.1 15.4 257.4 15.5 C 257.7 15.6 257.9 15.7 258.2 15.7 C 258.5 15.7 258.6 15.7 258.8 15.6 C 258.9 15.6 259 15.6 259.1 15.6 C 259.1 15.6 259.5 17.4 259.5 17.4 C 259.4 17.4 259.2 17.5 259 17.5 C 258.7 17.6 258.4 17.6 258 17.6 C 257.5 17.6 256.9 17.5 256.4 17.3 C 255.8 17 255.4 16.6 255 16.1 C 254.7 15.6 254.5 15 254.5 14.3 C 254.48 14.25 254.5 1.2 254.5 1.2 Z M 267.1 17.7 C 265.8 17.7 264.7 17.4 263.8 16.9 C 262.9 16.3 262.2 15.5 261.7 14.5 C 261.2 13.5 261 12.4 261 11 C 261 9.7 261.2 8.5 261.7 7.5 C 262.2 6.4 262.9 5.6 263.8 5.1 C 264.6 4.5 265.7 4.2 266.9 4.2 C 267.5 4.2 268.2 4.3 268.9 4.5 C 269.5 4.8 270.1 5.1 270.7 5.6 C 271.2 6.1 271.7 6.8 272 7.7 C 272.3 8.5 272.5 9.5 272.5 10.7 C 272.48 10.74 272.5 11.6 272.5 11.6 L 262.4 11.6 L 262.4 9.9 C 262.4 9.9 270.43 9.85 270.4 9.9 C 270.4 9.1 270.3 8.5 270 7.9 C 269.7 7.3 269.3 6.8 268.8 6.5 C 268.2 6.2 267.6 6 266.9 6 C 266.1 6 265.4 6.2 264.8 6.6 C 264.2 7 263.8 7.5 263.4 8.1 C 263.1 8.8 263 9.4 263 10.2 C 263 10.2 263 11.3 263 11.3 C 263 12.3 263.1 13.1 263.5 13.8 C 263.8 14.5 264.3 15 264.9 15.4 C 265.5 15.7 266.2 15.9 267.1 15.9 C 267.6 15.9 268.1 15.8 268.5 15.7 C 268.9 15.5 269.3 15.3 269.6 15 C 269.9 14.7 270.2 14.3 270.3 13.9 C 270.3 13.9 272.3 14.4 272.3 14.4 C 272.1 15.1 271.7 15.7 271.2 16.2 C 270.8 16.7 270.2 17 269.5 17.3 C 268.7 17.6 267.9 17.7 267.1 17.7 Z " stroke="none" fill="#10283d"/>  </g></svg>