<?xml version="1.0" standalone="no"?><!DOCTYPE svg PUBLIC "-//W3C//DTD SVG 1.1//EN" "http://www.w3.org/Graphics/SVG/1.1/DTD/svg11.dtd"><svg xmlns="http://www.w3.org/2000/svg" version="1.1" width="275px" height="34.8px" viewBox="0 -8 275 34.8" style="top:-8px">  <desc>Introduction</desc>  <defs/>  <g id="Polygon105982">    <path d="M 4.3 0 L 4.3 14.5 L 1.3 14.5 L 1.3 0 L 4.3 0 Z M 10.1 8.2 C 10.06 8.24 10.1 14.5 10.1 14.5 L 7 14.5 L 7 3.6 L 9.9 3.6 L 9.9 5.6 C 9.9 5.6 10.05 5.56 10 5.6 C 10.3 4.9 10.7 4.4 11.3 4.1 C 11.8 3.7 12.5 3.5 13.3 3.5 C 14.1 3.5 14.7 3.7 15.3 4 C 15.9 4.3 16.3 4.8 16.6 5.4 C 16.9 6 17.1 6.8 17.1 7.6 C 17.09 7.6 17.1 14.5 17.1 14.5 L 14.1 14.5 C 14.1 14.5 14.07 8.14 14.1 8.1 C 14.1 7.5 13.9 6.9 13.6 6.6 C 13.2 6.2 12.7 6 12.1 6 C 11.7 6 11.4 6.1 11.1 6.3 C 10.7 6.4 10.5 6.7 10.3 7 C 10.2 7.4 10.1 7.8 10.1 8.2 Z M 25.1 3.6 L 25.1 5.9 L 18.5 5.9 L 18.5 3.6 L 25.1 3.6 Z M 20 1 L 23 1 C 23 1 23.03 11.19 23 11.2 C 23 11.5 23.1 11.7 23.2 11.8 C 23.2 12 23.4 12.1 23.5 12.2 C 23.7 12.2 23.9 12.3 24.1 12.3 C 24.2 12.3 24.3 12.2 24.5 12.2 C 24.6 12.2 24.7 12.2 24.8 12.2 C 24.8 12.2 25.3 14.4 25.3 14.4 C 25.1 14.5 24.9 14.5 24.6 14.6 C 24.4 14.6 24 14.7 23.6 14.7 C 22.9 14.7 22.3 14.6 21.7 14.4 C 21.2 14.2 20.8 13.8 20.5 13.4 C 20.2 12.9 20 12.3 20 11.6 C 20.01 11.59 20 1 20 1 Z M 27 14.5 L 27 3.6 L 30 3.6 L 30 5.5 C 30 5.5 30.06 5.54 30.1 5.5 C 30.3 4.9 30.6 4.4 31.1 4 C 31.5 3.7 32.1 3.5 32.7 3.5 C 32.8 3.5 33 3.5 33.2 3.5 C 33.4 3.5 33.5 3.6 33.6 3.6 C 33.6 3.6 33.6 6.3 33.6 6.3 C 33.5 6.2 33.3 6.2 33 6.2 C 32.8 6.1 32.6 6.1 32.4 6.1 C 31.9 6.1 31.5 6.2 31.2 6.4 C 30.8 6.6 30.5 6.9 30.3 7.2 C 30.1 7.5 30 7.9 30 8.4 C 30.04 8.37 30 14.5 30 14.5 L 27 14.5 Z M 40 14.8 C 38.9 14.8 38 14.5 37.2 14.1 C 36.4 13.6 35.8 12.9 35.3 12.1 C 34.9 11.2 34.7 10.3 34.7 9.1 C 34.7 8 34.9 7 35.3 6.2 C 35.8 5.3 36.4 4.7 37.2 4.2 C 38 3.7 38.9 3.5 40 3.5 C 41.1 3.5 42.1 3.7 42.9 4.2 C 43.7 4.7 44.3 5.3 44.8 6.2 C 45.2 7 45.4 8 45.4 9.1 C 45.4 10.3 45.2 11.2 44.8 12.1 C 44.3 12.9 43.7 13.6 42.9 14.1 C 42.1 14.5 41.1 14.8 40 14.8 Z M 40.1 12.4 C 40.6 12.4 41 12.3 41.3 12 C 41.6 11.7 41.9 11.3 42.1 10.8 C 42.2 10.3 42.3 9.7 42.3 9.1 C 42.3 8.5 42.2 7.9 42.1 7.4 C 41.9 6.9 41.6 6.5 41.3 6.2 C 41 5.9 40.6 5.8 40.1 5.8 C 39.5 5.8 39.1 5.9 38.8 6.2 C 38.4 6.5 38.2 6.9 38 7.4 C 37.8 7.9 37.7 8.5 37.7 9.1 C 37.7 9.7 37.8 10.3 38 10.8 C 38.2 11.3 38.4 11.7 38.8 12 C 39.1 12.3 39.5 12.4 40.1 12.4 Z M 51.4 14.7 C 50.5 14.7 49.8 14.5 49.1 14.1 C 48.5 13.7 47.9 13 47.5 12.2 C 47.1 11.3 47 10.3 47 9.1 C 47 7.9 47.2 6.8 47.6 6 C 48 5.2 48.5 4.5 49.2 4.1 C 49.8 3.7 50.6 3.5 51.4 3.5 C 52 3.5 52.5 3.6 52.9 3.8 C 53.3 4 53.6 4.3 53.9 4.6 C 54.1 4.9 54.3 5.2 54.5 5.5 C 54.47 5.47 54.6 5.5 54.6 5.5 L 54.6 0 L 57.6 0 L 57.6 14.5 L 54.6 14.5 L 54.6 12.8 C 54.6 12.8 54.47 12.8 54.5 12.8 C 54.3 13.1 54.1 13.4 53.9 13.7 C 53.6 14 53.3 14.2 52.9 14.4 C 52.5 14.6 52 14.7 51.4 14.7 Z M 52.3 12.3 C 52.8 12.3 53.2 12.2 53.6 11.9 C 53.9 11.6 54.2 11.3 54.4 10.8 C 54.5 10.3 54.6 9.7 54.6 9.1 C 54.6 8.4 54.5 7.9 54.4 7.4 C 54.2 6.9 53.9 6.6 53.6 6.3 C 53.2 6 52.8 5.9 52.3 5.9 C 51.8 5.9 51.4 6 51.1 6.3 C 50.7 6.6 50.5 7 50.3 7.4 C 50.1 7.9 50 8.5 50 9.1 C 50 9.7 50.1 10.3 50.3 10.8 C 50.5 11.3 50.7 11.6 51.1 11.9 C 51.4 12.2 51.8 12.3 52.3 12.3 Z M 67.1 9.9 C 67.08 9.9 67.1 3.6 67.1 3.6 L 70.1 3.6 L 70.1 14.5 L 67.2 14.5 L 67.2 12.6 C 67.2 12.6 67.09 12.56 67.1 12.6 C 66.8 13.2 66.4 13.7 65.9 14.1 C 65.3 14.5 64.6 14.7 63.8 14.7 C 63.1 14.7 62.4 14.5 61.9 14.2 C 61.3 13.9 60.9 13.4 60.6 12.8 C 60.2 12.2 60.1 11.4 60.1 10.6 C 60.09 10.58 60.1 3.6 60.1 3.6 L 63.1 3.6 C 63.1 3.6 63.11 10.04 63.1 10 C 63.1 10.7 63.3 11.2 63.6 11.6 C 64 11.9 64.4 12.1 65 12.1 C 65.4 12.1 65.7 12 66 11.9 C 66.3 11.7 66.6 11.5 66.8 11.1 C 67 10.8 67.1 10.4 67.1 9.9 Z M 77.5 14.8 C 76.3 14.8 75.4 14.5 74.6 14 C 73.8 13.6 73.2 12.9 72.7 12.1 C 72.3 11.2 72.1 10.2 72.1 9.1 C 72.1 8 72.3 7 72.7 6.2 C 73.2 5.3 73.8 4.7 74.6 4.2 C 75.4 3.7 76.3 3.5 77.5 3.5 C 78.4 3.5 79.2 3.7 80 4 C 80.7 4.4 81.2 4.8 81.6 5.5 C 82.1 6.1 82.3 6.8 82.3 7.7 C 82.3 7.7 79.5 7.7 79.5 7.7 C 79.4 7.1 79.2 6.7 78.8 6.4 C 78.5 6 78.1 5.9 77.5 5.9 C 77 5.9 76.6 6 76.3 6.2 C 75.9 6.5 75.7 6.9 75.5 7.3 C 75.3 7.8 75.2 8.4 75.2 9.1 C 75.2 9.8 75.3 10.4 75.5 10.9 C 75.7 11.4 75.9 11.7 76.3 12 C 76.6 12.2 77 12.4 77.5 12.4 C 77.8 12.4 78.2 12.3 78.4 12.2 C 78.7 12 78.9 11.8 79.1 11.5 C 79.3 11.3 79.4 10.9 79.5 10.5 C 79.5 10.5 82.3 10.5 82.3 10.5 C 82.3 11.4 82.1 12.1 81.7 12.7 C 81.3 13.4 80.7 13.9 80 14.2 C 79.3 14.6 78.4 14.8 77.5 14.8 Z M 90 3.6 L 90 5.9 L 83.5 5.9 L 83.5 3.6 L 90 3.6 Z M 85 1 L 88 1 C 88 1 88 11.19 88 11.2 C 88 11.5 88 11.7 88.1 11.8 C 88.2 12 88.3 12.1 88.5 12.2 C 88.6 12.2 88.8 12.3 89 12.3 C 89.2 12.3 89.3 12.2 89.4 12.2 C 89.6 12.2 89.7 12.2 89.8 12.2 C 89.8 12.2 90.2 14.4 90.2 14.4 C 90.1 14.5 89.9 14.5 89.6 14.6 C 89.3 14.6 89 14.7 88.6 14.7 C 87.9 14.7 87.2 14.6 86.7 14.4 C 86.1 14.2 85.7 13.8 85.4 13.4 C 85.1 12.9 85 12.3 85 11.6 C 84.97 11.59 85 1 85 1 Z M 92 14.5 L 92 3.6 L 95 3.6 L 95 14.5 L 92 14.5 Z M 93.5 2.2 C 93.1 2.2 92.7 2.1 92.4 1.8 C 92 1.5 91.9 1.1 91.9 0.7 C 91.9 0.3 92 -0.1 92.4 -0.4 C 92.7 -0.7 93.1 -0.8 93.5 -0.8 C 94 -0.8 94.4 -0.7 94.7 -0.4 C 95 -0.1 95.2 0.3 95.2 0.7 C 95.2 1.1 95 1.5 94.7 1.8 C 94.4 2.1 94 2.2 93.5 2.2 Z M 102.4 14.8 C 101.3 14.8 100.3 14.5 99.5 14.1 C 98.7 13.6 98.1 12.9 97.7 12.1 C 97.2 11.2 97 10.3 97 9.1 C 97 8 97.2 7 97.7 6.2 C 98.1 5.3 98.7 4.7 99.5 4.2 C 100.3 3.7 101.3 3.5 102.4 3.5 C 103.5 3.5 104.4 3.7 105.2 4.2 C 106 4.7 106.7 5.3 107.1 6.2 C 107.5 7 107.7 8 107.7 9.1 C 107.7 10.3 107.5 11.2 107.1 12.1 C 106.7 12.9 106 13.6 105.2 14.1 C 104.4 14.5 103.5 14.8 102.4 14.8 Z M 102.4 12.4 C 102.9 12.4 103.3 12.3 103.6 12 C 104 11.7 104.2 11.3 104.4 10.8 C 104.6 10.3 104.7 9.7 104.7 9.1 C 104.7 8.5 104.6 7.9 104.4 7.4 C 104.2 6.9 104 6.5 103.6 6.2 C 103.3 5.9 102.9 5.8 102.4 5.8 C 101.9 5.8 101.5 5.9 101.1 6.2 C 100.8 6.5 100.5 6.9 100.3 7.4 C 100.2 7.9 100.1 8.5 100.1 9.1 C 100.1 9.7 100.2 10.3 100.3 10.8 C 100.5 11.3 100.8 11.7 101.1 12 C 101.5 12.3 101.9 12.4 102.4 12.4 Z M 112.8 8.2 C 112.76 8.24 112.8 14.5 112.8 14.5 L 109.7 14.5 L 109.7 3.6 L 112.6 3.6 L 112.6 5.6 C 112.6 5.6 112.75 5.56 112.7 5.6 C 113 4.9 113.4 4.4 114 4.1 C 114.5 3.7 115.2 3.5 116 3.5 C 116.8 3.5 117.4 3.7 118 4 C 118.6 4.3 119 4.8 119.3 5.4 C 119.6 6 119.8 6.8 119.8 7.6 C 119.79 7.6 119.8 14.5 119.8 14.5 L 116.8 14.5 C 116.8 14.5 116.77 8.14 116.8 8.1 C 116.8 7.5 116.6 6.9 116.3 6.6 C 115.9 6.2 115.4 6 114.8 6 C 114.4 6 114.1 6.1 113.8 6.3 C 113.4 6.4 113.2 6.7 113 7 C 112.9 7.4 112.8 7.8 112.8 8.2 Z " stroke="none" fill="#ffffff"/>  </g></svg>