<?xml version="1.0" standalone="no"?><!DOCTYPE svg PUBLIC "-//W3C//DTD SVG 1.1//EN" "http://www.w3.org/Graphics/SVG/1.1/DTD/svg11.dtd"><svg xmlns="http://www.w3.org/2000/svg" version="1.1" width="61px" height="18.4px" viewBox="0 -5 61 18.4" style="top:-5px">  <desc>1 / 19</desc>  <defs/>  <g id="Polygon107477">    <path d="M 21.4 0 L 21.4 7.3 L 20.5 7.3 L 20.5 0.9 L 20.5 0.9 L 18.7 2.1 L 18.7 1.2 L 20.5 0 L 21.4 0 Z M 28.9 -0.3 L 26.5 8.4 L 25.8 8.4 L 28.1 -0.3 L 28.9 -0.3 Z M 35.2 0 L 35.2 7.3 L 34.3 7.3 L 34.3 0.9 L 34.3 0.9 L 32.5 2.1 L 32.5 1.2 L 34.3 0 L 35.2 0 Z M 39.5 -0.1 C 39.8 -0.1 40.1 0 40.4 0.1 C 40.7 0.2 41 0.4 41.2 0.6 C 41.5 0.9 41.7 1.2 41.8 1.7 C 42 2.1 42.1 2.7 42.1 3.3 C 42.1 4 42 4.6 41.9 5.1 C 41.8 5.6 41.6 6 41.4 6.3 C 41.1 6.7 40.8 6.9 40.5 7.1 C 40.2 7.3 39.8 7.4 39.4 7.4 C 39 7.4 38.6 7.3 38.3 7.1 C 38 7 37.8 6.7 37.5 6.5 C 37.3 6.2 37.2 5.8 37.2 5.4 C 37.2 5.4 38 5.4 38 5.4 C 38.1 5.8 38.3 6 38.5 6.3 C 38.7 6.5 39 6.6 39.4 6.6 C 40 6.6 40.4 6.3 40.7 5.9 C 41.1 5.4 41.2 4.7 41.2 3.8 C 41.2 3.8 41.2 3.8 41.2 3.8 C 41 4 40.9 4.1 40.7 4.3 C 40.5 4.4 40.3 4.5 40.1 4.6 C 39.9 4.7 39.6 4.7 39.4 4.7 C 39 4.7 38.6 4.6 38.2 4.4 C 37.9 4.2 37.6 3.9 37.4 3.6 C 37.2 3.2 37.1 2.8 37.1 2.3 C 37.1 1.9 37.2 1.5 37.4 1.1 C 37.6 0.7 37.9 0.4 38.2 0.2 C 38.6 0 39 -0.1 39.5 -0.1 Z M 39.5 0.7 C 39.2 0.7 39 0.8 38.7 0.9 C 38.5 1.1 38.3 1.3 38.2 1.5 C 38 1.8 38 2 38 2.3 C 38 2.6 38 2.9 38.2 3.2 C 38.3 3.4 38.5 3.6 38.7 3.7 C 38.9 3.9 39.2 4 39.5 4 C 39.7 4 39.9 3.9 40.1 3.8 C 40.3 3.7 40.5 3.6 40.6 3.5 C 40.8 3.3 40.9 3.1 41 2.9 C 41.1 2.7 41.1 2.5 41.1 2.3 C 41.1 2 41 1.8 40.9 1.5 C 40.8 1.3 40.6 1.1 40.3 0.9 C 40.1 0.8 39.8 0.7 39.5 0.7 Z " stroke="none" fill="#ffffff"/>  </g></svg>