<?xml version="1.0" standalone="no"?><!DOCTYPE svg PUBLIC "-//W3C//DTD SVG 1.1//EN" "http://www.w3.org/Graphics/SVG/1.1/DTD/svg11.dtd"><svg xmlns="http://www.w3.org/2000/svg" version="1.1" width="260px" height="113.7px" viewBox="0 -6 260 113.7" style="top:-6px">  <desc>Recognizing AI hype</desc>  <defs/>  <g id="Polygon111344">    <path d="M 64.5 84.8 L 57.9 84.8 L 67.9 55.7 L 75.9 55.7 L 85.9 84.8 L 79.3 84.8 L 72 62.3 L 71.8 62.3 L 64.5 84.8 Z M 64.1 73.3 L 79.6 73.3 L 79.6 78.1 L 64.1 78.1 L 64.1 73.3 Z M 95.4 55.7 L 95.4 84.8 L 89.3 84.8 L 89.3 55.7 L 95.4 55.7 Z M 115.7 72.1 C 115.71 72.14 115.7 84.8 115.7 84.8 L 109.7 84.8 L 109.7 55.7 L 115.5 55.7 L 115.5 66.8 C 115.5 66.8 115.79 66.78 115.8 66.8 C 116.3 65.5 117.1 64.5 118.2 63.7 C 119.3 63 120.7 62.6 122.3 62.6 C 123.8 62.6 125.2 63 126.3 63.6 C 127.4 64.3 128.3 65.2 128.9 66.5 C 129.6 67.7 129.9 69.2 129.9 70.9 C 129.85 70.86 129.9 84.8 129.9 84.8 L 123.8 84.8 C 123.8 84.8 123.8 71.94 123.8 71.9 C 123.8 70.6 123.5 69.5 122.8 68.8 C 122.1 68.1 121.1 67.7 119.9 67.7 C 119.1 67.7 118.4 67.9 117.7 68.2 C 117.1 68.6 116.6 69.1 116.3 69.7 C 115.9 70.4 115.7 71.2 115.7 72.1 Z M 137.2 92.9 C 136.5 92.9 135.7 92.9 135.1 92.8 C 134.4 92.6 133.8 92.5 133.4 92.3 C 133.4 92.3 134.8 87.8 134.8 87.8 C 135.5 88 136.1 88.1 136.7 88.1 C 137.3 88.2 137.8 88 138.2 87.7 C 138.6 87.5 139 87 139.2 86.3 C 139.22 86.3 139.6 85.4 139.6 85.4 L 131.8 62.9 L 138.1 62.9 L 142.6 79 L 142.9 79 L 147.4 62.9 L 153.8 62.9 C 153.8 62.9 145.34 87.11 145.3 87.1 C 144.9 88.3 144.4 89.3 143.7 90.2 C 143 91.1 142.1 91.7 141.1 92.2 C 140 92.7 138.7 92.9 137.2 92.9 Z M 156.5 92.9 L 156.5 62.9 L 162.5 62.9 L 162.5 66.6 C 162.5 66.6 162.78 66.6 162.8 66.6 C 163 66 163.4 65.4 163.9 64.8 C 164.4 64.2 165.1 63.7 165.9 63.3 C 166.7 62.9 167.8 62.6 169 62.6 C 170.6 62.6 172.1 63.1 173.4 63.9 C 174.7 64.7 175.8 66 176.6 67.6 C 177.4 69.3 177.8 71.4 177.8 73.9 C 177.8 76.3 177.4 78.4 176.7 80 C 175.9 81.7 174.8 83 173.5 83.8 C 172.1 84.7 170.6 85.1 169 85.1 C 167.8 85.1 166.8 84.9 166 84.5 C 165.2 84.1 164.5 83.6 164 83.1 C 163.5 82.5 163.1 81.9 162.8 81.3 C 162.78 81.26 162.6 81.3 162.6 81.3 L 162.6 92.9 L 156.5 92.9 Z M 162.5 73.8 C 162.5 75.1 162.7 76.3 163 77.2 C 163.4 78.2 163.9 79 164.6 79.5 C 165.3 80 166.1 80.3 167.1 80.3 C 168 80.3 168.9 80 169.6 79.5 C 170.2 78.9 170.8 78.2 171.1 77.2 C 171.5 76.2 171.6 75.1 171.6 73.8 C 171.6 72.6 171.5 71.5 171.1 70.5 C 170.8 69.6 170.3 68.8 169.6 68.3 C 168.9 67.7 168.1 67.5 167.1 67.5 C 166.1 67.5 165.2 67.7 164.6 68.2 C 163.9 68.8 163.4 69.5 163 70.5 C 162.7 71.4 162.5 72.5 162.5 73.8 Z M 191.5 85.2 C 189.3 85.2 187.3 84.7 185.7 83.8 C 184.1 82.9 182.9 81.6 182 79.9 C 181.1 78.2 180.7 76.2 180.7 73.9 C 180.7 71.7 181.1 69.7 182 68 C 182.9 66.3 184.1 65 185.7 64.1 C 187.3 63.1 189.1 62.6 191.3 62.6 C 192.7 62.6 194 62.9 195.3 63.3 C 196.5 63.8 197.6 64.5 198.6 65.4 C 199.5 66.3 200.2 67.5 200.7 68.9 C 201.3 70.2 201.5 71.9 201.5 73.7 C 201.52 73.73 201.5 75.4 201.5 75.4 L 183.1 75.4 L 183.1 71.6 C 183.1 71.6 195.82 71.64 195.8 71.6 C 195.8 70.8 195.6 70 195.3 69.3 C 194.9 68.7 194.4 68.1 193.7 67.7 C 193 67.4 192.2 67.2 191.4 67.2 C 190.4 67.2 189.6 67.4 188.9 67.8 C 188.2 68.2 187.7 68.8 187.3 69.5 C 186.9 70.2 186.7 71 186.7 71.8 C 186.7 71.8 186.7 75.4 186.7 75.4 C 186.7 76.5 186.9 77.4 187.3 78.2 C 187.7 79 188.2 79.6 189 80 C 189.7 80.4 190.6 80.7 191.6 80.7 C 192.3 80.7 192.9 80.6 193.5 80.4 C 194 80.2 194.5 79.9 194.9 79.5 C 195.3 79.1 195.6 78.7 195.8 78.1 C 195.8 78.1 201.4 78.5 201.4 78.5 C 201.1 79.8 200.5 81 199.7 82 C 198.8 83 197.6 83.8 196.3 84.3 C 194.9 84.9 193.3 85.2 191.5 85.2 Z " stroke="none" fill="#10283d"/>  </g>  <g id="Polygon111343">    <path d="M 12.5 38.8 L 12.5 9.7 C 12.5 9.7 23.97 9.66 24 9.7 C 26.2 9.7 28 10 29.6 10.8 C 31.2 11.6 32.4 12.7 33.2 14.1 C 34 15.6 34.4 17.2 34.4 19.2 C 34.4 21.1 34 22.8 33.1 24.1 C 32.3 25.5 31.1 26.6 29.5 27.3 C 28 28.1 26.1 28.4 23.8 28.4 C 23.82 28.44 16.1 28.4 16.1 28.4 L 16.1 23.5 C 16.1 23.5 22.82 23.49 22.8 23.5 C 24 23.5 25 23.3 25.7 23 C 26.5 22.7 27.1 22.2 27.5 21.6 C 27.9 20.9 28.1 20.1 28.1 19.2 C 28.1 18.2 27.9 17.4 27.5 16.7 C 27.1 16.1 26.5 15.6 25.7 15.2 C 25 14.9 24 14.7 22.8 14.7 C 22.79 14.69 18.6 14.7 18.6 14.7 L 18.6 38.8 L 12.5 38.8 Z M 28.2 25.5 L 35.4 38.8 L 28.6 38.8 L 21.6 25.5 L 28.2 25.5 Z M 48.1 39.2 C 45.9 39.2 44 38.7 42.4 37.8 C 40.7 36.9 39.5 35.6 38.6 33.9 C 37.8 32.2 37.3 30.2 37.3 27.9 C 37.3 25.7 37.8 23.7 38.6 22 C 39.5 20.3 40.7 19 42.3 18.1 C 43.9 17.1 45.8 16.6 47.9 16.6 C 49.3 16.6 50.7 16.9 51.9 17.3 C 53.2 17.8 54.3 18.5 55.2 19.4 C 56.1 20.3 56.9 21.5 57.4 22.9 C 57.9 24.2 58.2 25.9 58.2 27.7 C 58.16 27.73 58.2 29.4 58.2 29.4 L 39.7 29.4 L 39.7 25.6 C 39.7 25.6 52.46 25.64 52.5 25.6 C 52.5 24.8 52.3 24 51.9 23.3 C 51.5 22.7 51 22.1 50.3 21.7 C 49.7 21.4 48.9 21.2 48 21.2 C 47.1 21.2 46.3 21.4 45.6 21.8 C 44.9 22.2 44.3 22.8 43.9 23.5 C 43.5 24.2 43.3 25 43.3 25.8 C 43.3 25.8 43.3 29.4 43.3 29.4 C 43.3 30.5 43.5 31.4 43.9 32.2 C 44.3 33 44.9 33.6 45.6 34 C 46.4 34.4 47.2 34.7 48.2 34.7 C 48.9 34.7 49.5 34.6 50.1 34.4 C 50.6 34.2 51.1 33.9 51.5 33.5 C 51.9 33.1 52.2 32.7 52.4 32.1 C 52.4 32.1 58 32.5 58 32.5 C 57.7 33.8 57.2 35 56.3 36 C 55.4 37 54.3 37.8 52.9 38.3 C 51.5 38.9 49.9 39.2 48.1 39.2 Z M 71.7 39.2 C 69.5 39.2 67.6 38.7 66 37.7 C 64.4 36.8 63.1 35.5 62.3 33.8 C 61.4 32.1 61 30.1 61 27.9 C 61 25.7 61.4 23.7 62.3 22 C 63.1 20.3 64.4 19 66 18.1 C 67.6 17.1 69.5 16.6 71.7 16.6 C 73.6 16.6 75.3 17 76.7 17.7 C 78.1 18.4 79.3 19.3 80.1 20.6 C 80.9 21.8 81.4 23.3 81.5 25 C 81.5 25 75.8 25 75.8 25 C 75.6 23.9 75.2 23 74.5 22.4 C 73.8 21.7 72.9 21.4 71.8 21.4 C 70.9 21.4 70 21.6 69.3 22.1 C 68.6 22.6 68.1 23.4 67.7 24.3 C 67.3 25.3 67.1 26.5 67.1 27.8 C 67.1 29.2 67.3 30.4 67.7 31.4 C 68.1 32.4 68.6 33.1 69.3 33.6 C 70 34.1 70.9 34.4 71.8 34.4 C 72.5 34.4 73.1 34.2 73.7 34 C 74.2 33.7 74.7 33.3 75 32.7 C 75.4 32.2 75.6 31.5 75.8 30.8 C 75.8 30.8 81.5 30.8 81.5 30.8 C 81.4 32.4 80.9 33.9 80.1 35.1 C 79.3 36.4 78.2 37.4 76.8 38.1 C 75.3 38.8 73.7 39.2 71.7 39.2 Z M 94.8 39.2 C 92.6 39.2 90.7 38.7 89.1 37.8 C 87.5 36.8 86.2 35.5 85.4 33.8 C 84.5 32.1 84.1 30.2 84.1 27.9 C 84.1 25.7 84.5 23.7 85.4 22 C 86.2 20.3 87.5 19 89.1 18.1 C 90.7 17.1 92.6 16.6 94.8 16.6 C 97 16.6 98.9 17.1 100.5 18.1 C 102.1 19 103.4 20.3 104.2 22 C 105.1 23.7 105.5 25.7 105.5 27.9 C 105.5 30.2 105.1 32.1 104.2 33.8 C 103.4 35.5 102.1 36.8 100.5 37.8 C 98.9 38.7 97 39.2 94.8 39.2 Z M 94.8 34.5 C 95.8 34.5 96.7 34.2 97.4 33.6 C 98 33.1 98.5 32.3 98.9 31.3 C 99.2 30.3 99.4 29.2 99.4 27.9 C 99.4 26.6 99.2 25.5 98.9 24.5 C 98.5 23.5 98 22.7 97.4 22.1 C 96.7 21.6 95.8 21.3 94.8 21.3 C 93.8 21.3 93 21.6 92.3 22.1 C 91.6 22.7 91.1 23.5 90.7 24.5 C 90.4 25.5 90.2 26.6 90.2 27.9 C 90.2 29.2 90.4 30.3 90.7 31.3 C 91.1 32.3 91.6 33.1 92.3 33.6 C 93 34.2 93.8 34.5 94.8 34.5 Z M 119 47.4 C 117.1 47.4 115.4 47.1 114 46.6 C 112.6 46 111.5 45.3 110.7 44.4 C 109.8 43.5 109.3 42.5 109.1 41.3 C 109.1 41.3 114.7 40.6 114.7 40.6 C 114.8 41 115.1 41.4 115.5 41.8 C 115.8 42.2 116.3 42.5 116.9 42.7 C 117.6 42.9 118.3 43 119.2 43 C 120.5 43 121.6 42.7 122.4 42.1 C 123.3 41.4 123.7 40.4 123.7 38.9 C 123.73 38.88 123.7 34.9 123.7 34.9 C 123.7 34.9 123.47 34.89 123.5 34.9 C 123.2 35.5 122.8 36.1 122.3 36.6 C 121.7 37.1 121.1 37.6 120.2 37.9 C 119.4 38.3 118.4 38.4 117.2 38.4 C 115.6 38.4 114.1 38.1 112.8 37.3 C 111.4 36.5 110.4 35.4 109.6 33.8 C 108.8 32.2 108.4 30.2 108.4 27.8 C 108.4 25.3 108.8 23.3 109.6 21.6 C 110.4 19.9 111.5 18.7 112.8 17.9 C 114.2 17.1 115.6 16.6 117.2 16.6 C 118.5 16.6 119.5 16.9 120.3 17.3 C 121.1 17.7 121.8 18.2 122.3 18.8 C 122.8 19.4 123.2 20 123.5 20.6 C 123.47 20.6 123.7 20.6 123.7 20.6 L 123.7 16.9 L 129.7 16.9 C 129.7 16.9 129.71 38.96 129.7 39 C 129.7 40.8 129.3 42.4 128.3 43.6 C 127.4 44.9 126.2 45.8 124.6 46.4 C 123 47.1 121.1 47.4 119 47.4 Z M 119.2 33.9 C 120.1 33.9 121 33.6 121.6 33.2 C 122.3 32.7 122.8 32 123.2 31.1 C 123.6 30.1 123.8 29 123.8 27.8 C 123.8 26.5 123.6 25.4 123.2 24.4 C 122.9 23.5 122.3 22.8 121.7 22.2 C 121 21.7 120.1 21.5 119.2 21.5 C 118.2 21.5 117.3 21.7 116.7 22.3 C 116 22.8 115.5 23.5 115.1 24.5 C 114.8 25.4 114.6 26.5 114.6 27.8 C 114.6 29 114.8 30.1 115.1 31 C 115.5 31.9 116 32.6 116.7 33.1 C 117.3 33.6 118.2 33.9 119.2 33.9 Z M 140.5 26.1 C 140.52 26.14 140.5 38.8 140.5 38.8 L 134.5 38.8 L 134.5 16.9 L 140.2 16.9 L 140.2 20.8 C 140.2 20.8 140.49 20.78 140.5 20.8 C 141 19.5 141.8 18.5 142.9 17.8 C 144.1 17 145.4 16.6 147 16.6 C 148.6 16.6 149.9 17 151 17.6 C 152.1 18.3 153 19.2 153.6 20.5 C 154.3 21.7 154.6 23.2 154.6 24.9 C 154.58 24.86 154.6 38.8 154.6 38.8 L 148.5 38.8 C 148.5 38.8 148.53 25.94 148.5 25.9 C 148.5 24.6 148.2 23.6 147.5 22.8 C 146.8 22.1 145.9 21.7 144.6 21.7 C 143.8 21.7 143.1 21.9 142.5 22.2 C 141.9 22.6 141.4 23.1 141 23.7 C 140.7 24.4 140.5 25.2 140.5 26.1 Z M 159.2 38.8 L 159.2 16.9 L 165.2 16.9 L 165.2 38.8 L 159.2 38.8 Z M 162.2 14.1 C 161.3 14.1 160.6 13.8 159.9 13.2 C 159.3 12.6 159 11.9 159 11.1 C 159 10.2 159.3 9.5 159.9 8.9 C 160.6 8.3 161.3 8 162.2 8 C 163.1 8 163.9 8.3 164.5 8.9 C 165.2 9.5 165.5 10.2 165.5 11.1 C 165.5 11.9 165.2 12.6 164.5 13.2 C 163.9 13.8 163.1 14.1 162.2 14.1 Z M 169.3 38.8 L 169.3 35.1 L 179.9 21.9 L 179.9 21.8 L 169.6 21.8 L 169.6 16.9 L 187.2 16.9 L 187.2 20.9 L 177.2 33.8 L 177.2 33.9 L 187.6 33.9 L 187.6 38.8 L 169.3 38.8 Z M 191.6 38.8 L 191.6 16.9 L 197.7 16.9 L 197.7 38.8 L 191.6 38.8 Z M 194.7 14.1 C 193.8 14.1 193 13.8 192.4 13.2 C 191.7 12.6 191.4 11.9 191.4 11.1 C 191.4 10.2 191.7 9.5 192.4 8.9 C 193 8.3 193.8 8 194.7 8 C 195.6 8 196.3 8.3 197 8.9 C 197.6 9.5 197.9 10.2 197.9 11.1 C 197.9 11.9 197.6 12.6 197 13.2 C 196.3 13.8 195.6 14.1 194.7 14.1 Z M 208.5 26.1 C 208.51 26.14 208.5 38.8 208.5 38.8 L 202.5 38.8 L 202.5 16.9 L 208.2 16.9 L 208.2 20.8 C 208.2 20.8 208.48 20.78 208.5 20.8 C 209 19.5 209.8 18.5 210.9 17.8 C 212 17 213.4 16.6 215 16.6 C 216.6 16.6 217.9 17 219 17.6 C 220.1 18.3 221 19.2 221.6 20.5 C 222.3 21.7 222.6 23.2 222.6 24.9 C 222.57 24.86 222.6 38.8 222.6 38.8 L 216.5 38.8 C 216.5 38.8 216.52 25.94 216.5 25.9 C 216.5 24.6 216.2 23.6 215.5 22.8 C 214.8 22.1 213.9 21.7 212.6 21.7 C 211.8 21.7 211.1 21.9 210.5 22.2 C 209.9 22.6 209.4 23.1 209 23.7 C 208.7 24.4 208.5 25.2 208.5 26.1 Z M 237 47.4 C 235 47.4 233.3 47.1 231.9 46.6 C 230.5 46 229.4 45.3 228.6 44.4 C 227.8 43.5 227.2 42.5 227 41.3 C 227 41.3 232.6 40.6 232.6 40.6 C 232.7 41 233 41.4 233.4 41.8 C 233.8 42.2 234.2 42.5 234.9 42.7 C 235.5 42.9 236.2 43 237.1 43 C 238.4 43 239.5 42.7 240.4 42.1 C 241.2 41.4 241.6 40.4 241.6 38.9 C 241.64 38.88 241.6 34.9 241.6 34.9 C 241.6 34.9 241.38 34.89 241.4 34.9 C 241.1 35.5 240.7 36.1 240.2 36.6 C 239.7 37.1 239 37.6 238.1 37.9 C 237.3 38.3 236.3 38.4 235.2 38.4 C 233.5 38.4 232 38.1 230.7 37.3 C 229.4 36.5 228.3 35.4 227.5 33.8 C 226.7 32.2 226.3 30.2 226.3 27.8 C 226.3 25.3 226.7 23.3 227.5 21.6 C 228.3 19.9 229.4 18.7 230.7 17.9 C 232.1 17.1 233.5 16.6 235.1 16.6 C 236.4 16.6 237.4 16.9 238.2 17.3 C 239 17.7 239.7 18.2 240.2 18.8 C 240.7 19.4 241.1 20 241.4 20.6 C 241.38 20.6 241.6 20.6 241.6 20.6 L 241.6 16.9 L 247.6 16.9 C 247.6 16.9 247.62 38.96 247.6 39 C 247.6 40.8 247.2 42.4 246.3 43.6 C 245.3 44.9 244.1 45.8 242.5 46.4 C 240.9 47.1 239 47.4 237 47.4 Z M 237.1 33.9 C 238.1 33.9 238.9 33.6 239.6 33.2 C 240.2 32.7 240.8 32 241.1 31.1 C 241.5 30.1 241.7 29 241.7 27.8 C 241.7 26.5 241.5 25.4 241.1 24.4 C 240.8 23.5 240.2 22.8 239.6 22.2 C 238.9 21.7 238.1 21.5 237.1 21.5 C 236.1 21.5 235.2 21.7 234.6 22.3 C 233.9 22.8 233.4 23.5 233 24.5 C 232.7 25.4 232.5 26.5 232.5 27.8 C 232.5 29 232.7 30.1 233 31 C 233.4 31.9 233.9 32.6 234.6 33.1 C 235.2 33.6 236.1 33.9 237.1 33.9 Z " stroke="none" fill="#10283d"/>  </g></svg>