<?xml version="1.0" standalone="no"?><!DOCTYPE svg PUBLIC "-//W3C//DTD SVG 1.1//EN" "http://www.w3.org/Graphics/SVG/1.1/DTD/svg11.dtd"><svg xmlns="http://www.w3.org/2000/svg" version="1.1" width="428px" height="73.4px" viewBox="0 -17 428 73.4" style="top:-17px">  <desc>Unclear application ￼</desc>  <defs/>  <g id="Polygon113191">    <path d="M 22 0 L 28.6 0 C 28.6 0 28.65 20.31 28.6 20.3 C 28.6 22.6 28.1 24.6 27 26.3 C 25.9 28 24.4 29.3 22.5 30.3 C 20.5 31.2 18.3 31.7 15.7 31.7 C 13.1 31.7 10.8 31.2 8.9 30.3 C 6.9 29.3 5.4 28 4.3 26.3 C 3.3 24.6 2.7 22.6 2.7 20.3 C 2.72 20.31 2.7 0 2.7 0 L 9.3 0 C 9.3 0 9.33 19.74 9.3 19.7 C 9.3 20.9 9.6 22 10.1 22.9 C 10.6 23.8 11.4 24.6 12.3 25.1 C 13.3 25.6 14.4 25.9 15.7 25.9 C 17 25.9 18.1 25.6 19 25.1 C 20 24.6 20.7 23.8 21.2 22.9 C 21.8 22 22 20.9 22 19.7 C 22.03 19.74 22 0 22 0 Z M 40.5 17.7 C 40.52 17.71 40.5 31.3 40.5 31.3 L 34 31.3 L 34 7.8 L 40.2 7.8 L 40.2 12 C 40.2 12 40.49 11.96 40.5 12 C 41 10.6 41.9 9.5 43.1 8.7 C 44.3 7.9 45.8 7.5 47.5 7.5 C 49.2 7.5 50.6 7.9 51.8 8.6 C 53 9.3 54 10.3 54.6 11.6 C 55.3 12.9 55.6 14.5 55.6 16.3 C 55.64 16.34 55.6 31.3 55.6 31.3 L 49.1 31.3 C 49.1 31.3 49.13 17.5 49.1 17.5 C 49.1 16.1 48.8 14.9 48 14.1 C 47.3 13.3 46.3 12.9 45 12.9 C 44.1 12.9 43.3 13.1 42.7 13.5 C 42 13.9 41.5 14.4 41.1 15.1 C 40.7 15.8 40.5 16.7 40.5 17.7 Z M 71.1 31.7 C 68.7 31.7 66.6 31.2 64.9 30.2 C 63.1 29.2 61.8 27.8 60.9 25.9 C 60 24.1 59.5 22 59.5 19.6 C 59.5 17.2 60 15.1 60.9 13.3 C 61.8 11.5 63.2 10.1 64.9 9 C 66.6 8 68.7 7.5 71 7.5 C 73.1 7.5 74.9 7.9 76.4 8.6 C 77.9 9.4 79.2 10.4 80.1 11.8 C 81 13.1 81.4 14.7 81.5 16.5 C 81.5 16.5 75.4 16.5 75.4 16.5 C 75.2 15.3 74.8 14.4 74 13.7 C 73.3 12.9 72.3 12.6 71.1 12.6 C 70.1 12.6 69.3 12.9 68.5 13.4 C 67.8 13.9 67.2 14.7 66.8 15.8 C 66.3 16.8 66.1 18.1 66.1 19.5 C 66.1 21 66.3 22.3 66.7 23.4 C 67.2 24.4 67.7 25.2 68.5 25.8 C 69.3 26.3 70.1 26.6 71.1 26.6 C 71.9 26.6 72.6 26.4 73.1 26.1 C 73.7 25.8 74.2 25.4 74.6 24.8 C 75 24.2 75.3 23.5 75.4 22.7 C 75.4 22.7 81.5 22.7 81.5 22.7 C 81.4 24.5 80.9 26 80.1 27.4 C 79.2 28.8 78 29.8 76.5 30.6 C 75 31.3 73.1 31.7 71.1 31.7 Z M 92.1 0 L 92.1 31.3 L 85.5 31.3 L 85.5 0 L 92.1 0 Z M 107.7 31.7 C 105.3 31.7 103.2 31.2 101.5 30.3 C 99.8 29.3 98.4 27.9 97.5 26.1 C 96.6 24.3 96.1 22.1 96.1 19.7 C 96.1 17.2 96.6 15.1 97.5 13.3 C 98.4 11.5 99.8 10.1 101.5 9 C 103.2 8 105.2 7.5 107.5 7.5 C 109 7.5 110.5 7.8 111.8 8.3 C 113.1 8.7 114.3 9.5 115.3 10.5 C 116.3 11.5 117.1 12.7 117.6 14.2 C 118.2 15.7 118.5 17.4 118.5 19.4 C 118.49 19.42 118.5 21.2 118.5 21.2 L 98.7 21.2 L 98.7 17.2 C 98.7 17.2 112.37 17.18 112.4 17.2 C 112.4 16.2 112.2 15.4 111.8 14.7 C 111.3 14 110.8 13.4 110.1 13 C 109.4 12.6 108.5 12.4 107.6 12.4 C 106.6 12.4 105.7 12.6 105 13 C 104.2 13.5 103.6 14.1 103.2 14.9 C 102.7 15.6 102.5 16.5 102.5 17.4 C 102.5 17.4 102.5 21.2 102.5 21.2 C 102.5 22.4 102.7 23.4 103.2 24.2 C 103.6 25.1 104.2 25.7 105 26.2 C 105.8 26.6 106.7 26.9 107.8 26.9 C 108.6 26.9 109.2 26.8 109.8 26.6 C 110.4 26.4 110.9 26.1 111.4 25.7 C 111.8 25.2 112.1 24.7 112.3 24.2 C 112.3 24.2 118.4 24.6 118.4 24.6 C 118 26 117.4 27.3 116.5 28.3 C 115.5 29.4 114.3 30.2 112.8 30.8 C 111.4 31.4 109.7 31.7 107.7 31.7 Z M 129 31.7 C 127.5 31.7 126.2 31.5 125 30.9 C 123.9 30.4 122.9 29.6 122.3 28.6 C 121.6 27.6 121.3 26.3 121.3 24.7 C 121.3 23.4 121.5 22.3 122 21.4 C 122.4 20.6 123.1 19.8 123.9 19.3 C 124.7 18.8 125.7 18.4 126.7 18.1 C 127.8 17.8 128.9 17.6 130.1 17.5 C 131.4 17.4 132.5 17.2 133.4 17.1 C 134.2 17 134.8 16.8 135.2 16.5 C 135.6 16.3 135.7 15.9 135.7 15.4 C 135.7 15.4 135.7 15.3 135.7 15.3 C 135.7 14.3 135.4 13.6 134.8 13.1 C 134.2 12.5 133.4 12.3 132.3 12.3 C 131.1 12.3 130.2 12.5 129.5 13 C 128.8 13.5 128.3 14.2 128.1 15 C 128.1 15 122.1 14.5 122.1 14.5 C 122.4 13.1 123 11.8 123.9 10.8 C 124.8 9.7 125.9 8.9 127.4 8.4 C 128.8 7.8 130.4 7.5 132.3 7.5 C 133.6 7.5 134.8 7.7 136 8 C 137.2 8.3 138.3 8.7 139.2 9.4 C 140.2 10 140.9 10.9 141.4 11.9 C 142 12.9 142.2 14.1 142.2 15.5 C 142.25 15.45 142.2 31.3 142.2 31.3 L 136.1 31.3 L 136.1 28 C 136.1 28 135.9 28.02 135.9 28 C 135.5 28.8 135 29.4 134.4 30 C 133.8 30.5 133 30.9 132.1 31.2 C 131.2 31.6 130.2 31.7 129 31.7 Z M 130.9 27.2 C 131.9 27.2 132.7 27 133.4 26.7 C 134.2 26.3 134.7 25.8 135.2 25.1 C 135.6 24.5 135.8 23.7 135.8 22.9 C 135.8 22.9 135.8 20.4 135.8 20.4 C 135.6 20.5 135.3 20.7 135 20.8 C 134.6 20.9 134.2 21 133.8 21 C 133.3 21.1 132.9 21.2 132.5 21.3 C 132 21.3 131.6 21.4 131.3 21.5 C 130.5 21.6 129.8 21.7 129.3 22 C 128.7 22.2 128.3 22.6 127.9 23 C 127.6 23.4 127.5 23.9 127.5 24.5 C 127.5 25.4 127.8 26.1 128.4 26.5 C 129.1 27 129.9 27.2 130.9 27.2 Z M 147.2 31.3 L 147.2 7.8 L 153.5 7.8 L 153.5 11.9 C 153.5 11.9 153.79 11.91 153.8 11.9 C 154.2 10.5 154.9 9.4 155.9 8.6 C 157 7.9 158.1 7.5 159.4 7.5 C 159.8 7.5 160.1 7.5 160.5 7.5 C 160.9 7.6 161.2 7.6 161.5 7.7 C 161.5 7.7 161.5 13.5 161.5 13.5 C 161.2 13.4 160.7 13.3 160.2 13.2 C 159.7 13.2 159.2 13.1 158.7 13.1 C 157.8 13.1 156.9 13.3 156.2 13.8 C 155.4 14.2 154.8 14.7 154.4 15.5 C 154 16.2 153.7 17 153.7 18 C 153.75 18 153.7 31.3 153.7 31.3 L 147.2 31.3 Z M 181.5 31.7 C 180 31.7 178.6 31.5 177.5 30.9 C 176.3 30.4 175.4 29.6 174.7 28.6 C 174 27.6 173.7 26.3 173.7 24.7 C 173.7 23.4 173.9 22.3 174.4 21.4 C 174.9 20.6 175.5 19.8 176.4 19.3 C 177.2 18.8 178.1 18.4 179.2 18.1 C 180.2 17.8 181.3 17.6 182.5 17.5 C 183.9 17.4 185 17.2 185.8 17.1 C 186.6 17 187.2 16.8 187.6 16.5 C 188 16.3 188.2 15.9 188.2 15.4 C 188.2 15.4 188.2 15.3 188.2 15.3 C 188.2 14.3 187.9 13.6 187.3 13.1 C 186.7 12.5 185.8 12.3 184.7 12.3 C 183.5 12.3 182.6 12.5 181.9 13 C 181.2 13.5 180.8 14.2 180.5 15 C 180.5 15 174.5 14.5 174.5 14.5 C 174.8 13.1 175.4 11.8 176.3 10.8 C 177.2 9.7 178.4 8.9 179.8 8.4 C 181.2 7.8 182.9 7.5 184.7 7.5 C 186 7.5 187.3 7.7 188.5 8 C 189.7 8.3 190.7 8.7 191.7 9.4 C 192.6 10 193.3 10.9 193.9 11.9 C 194.4 12.9 194.7 14.1 194.7 15.5 C 194.68 15.45 194.7 31.3 194.7 31.3 L 188.5 31.3 L 188.5 28 C 188.5 28 188.33 28.02 188.3 28 C 188 28.8 187.5 29.4 186.8 30 C 186.2 30.5 185.4 30.9 184.5 31.2 C 183.7 31.6 182.6 31.7 181.5 31.7 Z M 183.3 27.2 C 184.3 27.2 185.1 27 185.9 26.7 C 186.6 26.3 187.2 25.8 187.6 25.1 C 188 24.5 188.2 23.7 188.2 22.9 C 188.2 22.9 188.2 20.4 188.2 20.4 C 188 20.5 187.7 20.7 187.4 20.8 C 187 20.9 186.6 21 186.2 21 C 185.8 21.1 185.3 21.2 184.9 21.3 C 184.5 21.3 184.1 21.4 183.7 21.5 C 182.9 21.6 182.3 21.7 181.7 22 C 181.1 22.2 180.7 22.6 180.4 23 C 180.1 23.4 179.9 23.9 179.9 24.5 C 179.9 25.4 180.2 26.1 180.9 26.5 C 181.5 27 182.3 27.2 183.3 27.2 Z M 199.7 40.1 L 199.7 7.8 L 206.1 7.8 L 206.1 11.8 C 206.1 11.8 206.38 11.76 206.4 11.8 C 206.7 11.1 207.1 10.5 207.6 9.8 C 208.2 9.2 208.9 8.6 209.8 8.2 C 210.6 7.7 211.7 7.5 213.1 7.5 C 214.8 7.5 216.3 8 217.8 8.8 C 219.2 9.7 220.4 11.1 221.3 12.9 C 222.1 14.7 222.6 16.9 222.6 19.6 C 222.6 22.2 222.1 24.4 221.3 26.2 C 220.5 28 219.3 29.4 217.9 30.3 C 216.4 31.2 214.8 31.7 213 31.7 C 211.8 31.7 210.7 31.4 209.8 31 C 208.9 30.6 208.2 30.1 207.7 29.4 C 207.1 28.8 206.7 28.2 206.4 27.5 C 206.38 27.52 206.2 27.5 206.2 27.5 L 206.2 40.1 L 199.7 40.1 Z M 206 19.5 C 206 20.9 206.2 22.2 206.6 23.2 C 207 24.2 207.6 25 208.3 25.6 C 209 26.2 209.9 26.5 211 26.5 C 212 26.5 212.9 26.2 213.7 25.6 C 214.4 25 215 24.2 215.3 23.2 C 215.7 22.1 215.9 20.9 215.9 19.5 C 215.9 18.2 215.7 17 215.3 16 C 215 14.9 214.4 14.1 213.7 13.6 C 212.9 13 212 12.7 211 12.7 C 209.9 12.7 209 13 208.3 13.5 C 207.6 14.1 207 14.9 206.6 15.9 C 206.2 16.9 206 18.2 206 19.5 Z M 226.7 40.1 L 226.7 7.8 L 233.1 7.8 L 233.1 11.8 C 233.1 11.8 233.43 11.76 233.4 11.8 C 233.7 11.1 234.1 10.5 234.7 9.8 C 235.2 9.2 235.9 8.6 236.8 8.2 C 237.7 7.7 238.8 7.5 240.1 7.5 C 241.8 7.5 243.4 8 244.8 8.8 C 246.3 9.7 247.4 11.1 248.3 12.9 C 249.2 14.7 249.6 16.9 249.6 19.6 C 249.6 22.2 249.2 24.4 248.3 26.2 C 247.5 28 246.4 29.4 244.9 30.3 C 243.5 31.2 241.9 31.7 240.1 31.7 C 238.8 31.7 237.8 31.4 236.9 31 C 236 30.6 235.3 30.1 234.7 29.4 C 234.2 28.8 233.7 28.2 233.4 27.5 C 233.43 27.52 233.2 27.5 233.2 27.5 L 233.2 40.1 L 226.7 40.1 Z M 233.1 19.5 C 233.1 20.9 233.3 22.2 233.7 23.2 C 234.1 24.2 234.6 25 235.4 25.6 C 236.1 26.2 237 26.5 238 26.5 C 239.1 26.5 240 26.2 240.7 25.6 C 241.4 25 242 24.2 242.4 23.2 C 242.8 22.1 243 20.9 243 19.5 C 243 18.2 242.8 17 242.4 16 C 242 14.9 241.5 14.1 240.7 13.6 C 240 13 239.1 12.7 238 12.7 C 237 12.7 236.1 13 235.3 13.5 C 234.6 14.1 234.1 14.9 233.7 15.9 C 233.3 16.9 233.1 18.2 233.1 19.5 Z M 260.3 0 L 260.3 31.3 L 253.8 31.3 L 253.8 0 L 260.3 0 Z M 265.4 31.3 L 265.4 7.8 L 271.9 7.8 L 271.9 31.3 L 265.4 31.3 Z M 268.7 4.8 C 267.7 4.8 266.9 4.5 266.2 3.8 C 265.5 3.2 265.2 2.4 265.2 1.5 C 265.2 0.6 265.5 -0.2 266.2 -0.8 C 266.9 -1.5 267.7 -1.8 268.7 -1.8 C 269.6 -1.8 270.5 -1.5 271.2 -0.8 C 271.8 -0.2 272.2 0.6 272.2 1.5 C 272.2 2.4 271.8 3.2 271.2 3.8 C 270.5 4.5 269.6 4.8 268.7 4.8 Z M 287.4 31.7 C 285 31.7 283 31.2 281.2 30.2 C 279.5 29.2 278.2 27.8 277.3 25.9 C 276.4 24.1 275.9 22 275.9 19.6 C 275.9 17.2 276.4 15.1 277.3 13.3 C 278.2 11.5 279.5 10.1 281.3 9 C 283 8 285 7.5 287.4 7.5 C 289.5 7.5 291.2 7.9 292.8 8.6 C 294.3 9.4 295.5 10.4 296.4 11.8 C 297.3 13.1 297.8 14.7 297.9 16.5 C 297.9 16.5 291.8 16.5 291.8 16.5 C 291.6 15.3 291.1 14.4 290.4 13.7 C 289.7 12.9 288.7 12.6 287.5 12.6 C 286.5 12.6 285.6 12.9 284.9 13.4 C 284.1 13.9 283.5 14.7 283.1 15.8 C 282.7 16.8 282.5 18.1 282.5 19.5 C 282.5 21 282.7 22.3 283.1 23.4 C 283.5 24.4 284.1 25.2 284.9 25.8 C 285.6 26.3 286.5 26.6 287.5 26.6 C 288.3 26.6 288.9 26.4 289.5 26.1 C 290.1 25.8 290.6 25.4 291 24.8 C 291.4 24.2 291.6 23.5 291.8 22.7 C 291.8 22.7 297.9 22.7 297.9 22.7 C 297.8 24.5 297.3 26 296.5 27.4 C 295.6 28.8 294.4 29.8 292.9 30.6 C 291.3 31.3 289.5 31.7 287.4 31.7 Z M 308.5 31.7 C 307 31.7 305.6 31.5 304.5 30.9 C 303.3 30.4 302.4 29.6 301.7 28.6 C 301 27.6 300.7 26.3 300.7 24.7 C 300.7 23.4 300.9 22.3 301.4 21.4 C 301.9 20.6 302.5 19.8 303.3 19.3 C 304.2 18.8 305.1 18.4 306.2 18.1 C 307.2 17.8 308.3 17.6 309.5 17.5 C 310.8 17.4 311.9 17.2 312.8 17.1 C 313.6 17 314.2 16.8 314.6 16.5 C 315 16.3 315.2 15.9 315.2 15.4 C 315.2 15.4 315.2 15.3 315.2 15.3 C 315.2 14.3 314.9 13.6 314.2 13.1 C 313.6 12.5 312.8 12.3 311.7 12.3 C 310.5 12.3 309.6 12.5 308.9 13 C 308.2 13.5 307.7 14.2 307.5 15 C 307.5 15 301.5 14.5 301.5 14.5 C 301.8 13.1 302.4 11.8 303.3 10.8 C 304.2 9.7 305.3 8.9 306.8 8.4 C 308.2 7.8 309.8 7.5 311.7 7.5 C 313 7.5 314.3 7.7 315.5 8 C 316.6 8.3 317.7 8.7 318.6 9.4 C 319.6 10 320.3 10.9 320.9 11.9 C 321.4 12.9 321.7 14.1 321.7 15.5 C 321.66 15.45 321.7 31.3 321.7 31.3 L 315.5 31.3 L 315.5 28 C 315.5 28 315.31 28.02 315.3 28 C 314.9 28.8 314.4 29.4 313.8 30 C 313.2 30.5 312.4 30.9 311.5 31.2 C 310.6 31.6 309.6 31.7 308.5 31.7 Z M 310.3 27.2 C 311.3 27.2 312.1 27 312.8 26.7 C 313.6 26.3 314.2 25.8 314.6 25.1 C 315 24.5 315.2 23.7 315.2 22.9 C 315.2 22.9 315.2 20.4 315.2 20.4 C 315 20.5 314.7 20.7 314.4 20.8 C 314 20.9 313.6 21 313.2 21 C 312.7 21.1 312.3 21.2 311.9 21.3 C 311.4 21.3 311 21.4 310.7 21.5 C 309.9 21.6 309.3 21.7 308.7 22 C 308.1 22.2 307.7 22.6 307.4 23 C 307 23.4 306.9 23.9 306.9 24.5 C 306.9 25.4 307.2 26.1 307.8 26.5 C 308.5 27 309.3 27.2 310.3 27.2 Z M 338.6 7.8 L 338.6 12.7 L 324.4 12.7 L 324.4 7.8 L 338.6 7.8 Z M 327.6 2.2 L 334.2 2.2 C 334.2 2.2 334.15 24.07 334.2 24.1 C 334.2 24.7 334.2 25.1 334.4 25.5 C 334.6 25.8 334.9 26 335.2 26.2 C 335.5 26.3 335.9 26.4 336.4 26.4 C 336.7 26.4 337 26.3 337.3 26.3 C 337.6 26.2 337.8 26.2 338 26.1 C 338 26.1 339 31 339 31 C 338.7 31.1 338.2 31.2 337.6 31.3 C 337 31.5 336.3 31.6 335.5 31.6 C 333.9 31.7 332.5 31.4 331.4 31 C 330.2 30.5 329.3 29.7 328.6 28.7 C 328 27.7 327.6 26.5 327.6 24.9 C 327.65 24.92 327.6 2.2 327.6 2.2 Z M 342.5 31.3 L 342.5 7.8 L 349 7.8 L 349 31.3 L 342.5 31.3 Z M 345.7 4.8 C 344.8 4.8 343.9 4.5 343.3 3.8 C 342.6 3.2 342.2 2.4 342.2 1.5 C 342.2 0.6 342.6 -0.2 343.3 -0.8 C 343.9 -1.5 344.8 -1.8 345.7 -1.8 C 346.7 -1.8 347.5 -1.5 348.2 -0.8 C 348.9 -0.2 349.2 0.6 349.2 1.5 C 349.2 2.4 348.9 3.2 348.2 3.8 C 347.5 4.5 346.7 4.8 345.7 4.8 Z M 364.5 31.7 C 362.1 31.7 360.1 31.2 358.3 30.2 C 356.6 29.2 355.3 27.8 354.4 26 C 353.4 24.1 352.9 22 352.9 19.6 C 352.9 17.2 353.4 15.1 354.4 13.3 C 355.3 11.5 356.6 10 358.3 9 C 360.1 8 362.1 7.5 364.5 7.5 C 366.9 7.5 368.9 8 370.6 9 C 372.4 10 373.7 11.5 374.6 13.3 C 375.6 15.1 376 17.2 376 19.6 C 376 22 375.6 24.1 374.6 26 C 373.7 27.8 372.4 29.2 370.6 30.2 C 368.9 31.2 366.9 31.7 364.5 31.7 Z M 364.5 26.7 C 365.6 26.7 366.5 26.4 367.2 25.8 C 367.9 25.2 368.5 24.3 368.9 23.2 C 369.2 22.2 369.4 21 369.4 19.6 C 369.4 18.2 369.2 17 368.9 15.9 C 368.5 14.9 367.9 14 367.2 13.4 C 366.5 12.8 365.6 12.5 364.5 12.5 C 363.4 12.5 362.5 12.8 361.8 13.4 C 361 14 360.5 14.9 360.1 15.9 C 359.7 17 359.6 18.2 359.6 19.6 C 359.6 21 359.7 22.2 360.1 23.2 C 360.5 24.3 361 25.2 361.8 25.8 C 362.5 26.4 363.4 26.7 364.5 26.7 Z M 386.5 17.7 C 386.53 17.71 386.5 31.3 386.5 31.3 L 380 31.3 L 380 7.8 L 386.2 7.8 L 386.2 12 C 386.2 12 386.5 11.96 386.5 12 C 387 10.6 387.9 9.5 389.1 8.7 C 390.3 7.9 391.8 7.5 393.6 7.5 C 395.2 7.5 396.6 7.9 397.8 8.6 C 399 9.3 400 10.3 400.6 11.6 C 401.3 12.9 401.6 14.5 401.6 16.3 C 401.65 16.34 401.6 31.3 401.6 31.3 L 395.1 31.3 C 395.1 31.3 395.14 17.5 395.1 17.5 C 395.2 16.1 394.8 14.9 394 14.1 C 393.3 13.3 392.3 12.9 391 12.9 C 390.1 12.9 389.3 13.1 388.7 13.5 C 388 13.9 387.5 14.4 387.1 15.1 C 386.7 15.8 386.5 16.7 386.5 17.7 Z " stroke="none" fill="#10283d"/>  </g>  <g id="Polygon113192">    <path d="M 415.6 29.8 L 426.4 18.8 L 415.6 7.8 " style="stroke-width:3pt; stroke:#ff4f00;" fill="none"/>  </g></svg>