<?xml version="1.0" standalone="no"?><!DOCTYPE svg PUBLIC "-//W3C//DTD SVG 1.1//EN" "http://www.w3.org/Graphics/SVG/1.1/DTD/svg11.dtd"><svg xmlns="http://www.w3.org/2000/svg" version="1.1" width="99px" height="73px" viewBox="0 -10 99 73" style="top:-10px">  <desc>Difficult to use ￼</desc>  <defs/>  <g id="Polygon116435">    <path d="M 8.8 34.5 L 8.8 37.4 L 0.6 37.4 L 0.6 34.5 L 8.8 34.5 Z M 2.4 31.3 L 6.2 31.3 C 6.2 31.3 6.2 43.99 6.2 44 C 6.2 44.3 6.3 44.6 6.4 44.8 C 6.5 45 6.6 45.1 6.8 45.2 C 7 45.3 7.2 45.3 7.5 45.3 C 7.7 45.3 7.8 45.3 8 45.3 C 8.2 45.2 8.3 45.2 8.4 45.2 C 8.4 45.2 9 48 9 48 C 8.8 48.1 8.6 48.1 8.2 48.2 C 7.9 48.3 7.5 48.4 7 48.4 C 6 48.4 5.3 48.3 4.6 48 C 3.9 47.7 3.4 47.3 3 46.7 C 2.6 46.1 2.4 45.4 2.4 44.5 C 2.41 44.49 2.4 31.3 2.4 31.3 Z M 16.6 48.4 C 15.2 48.4 14 48.2 13 47.6 C 12 47 11.2 46.2 10.7 45.1 C 10.1 44 9.9 42.8 9.9 41.4 C 9.9 40 10.1 38.8 10.7 37.7 C 11.2 36.7 12 35.8 13 35.3 C 14 34.7 15.2 34.4 16.6 34.4 C 18 34.4 19.2 34.7 20.2 35.3 C 21.2 35.8 21.9 36.7 22.5 37.7 C 23 38.8 23.3 40 23.3 41.4 C 23.3 42.8 23 44 22.5 45.1 C 21.9 46.2 21.2 47 20.2 47.6 C 19.2 48.2 18 48.4 16.6 48.4 Z M 16.6 45.5 C 17.2 45.5 17.8 45.3 18.2 45 C 18.6 44.6 18.9 44.1 19.1 43.5 C 19.3 42.9 19.5 42.2 19.5 41.4 C 19.5 40.6 19.3 39.9 19.1 39.3 C 18.9 38.6 18.6 38.2 18.2 37.8 C 17.8 37.4 17.2 37.3 16.6 37.3 C 16 37.3 15.4 37.4 15 37.8 C 14.6 38.2 14.3 38.6 14 39.3 C 13.8 39.9 13.7 40.6 13.7 41.4 C 13.7 42.2 13.8 42.9 14 43.5 C 14.3 44.1 14.6 44.6 15 45 C 15.4 45.3 16 45.5 16.6 45.5 Z M 40.3 42.4 C 40.31 42.38 40.3 34.5 40.3 34.5 L 44.1 34.5 L 44.1 48.2 L 40.5 48.2 L 40.5 45.7 C 40.5 45.7 40.32 45.7 40.3 45.7 C 40 46.5 39.5 47.1 38.8 47.6 C 38.1 48.1 37.2 48.4 36.2 48.4 C 35.3 48.4 34.5 48.2 33.8 47.7 C 33.1 47.3 32.5 46.7 32.2 46 C 31.8 45.2 31.6 44.3 31.6 43.2 C 31.56 43.23 31.6 34.5 31.6 34.5 L 35.3 34.5 C 35.3 34.5 35.34 42.55 35.3 42.6 C 35.3 43.4 35.6 44 36 44.5 C 36.4 44.9 37 45.2 37.7 45.2 C 38.2 45.2 38.6 45.1 39 44.8 C 39.4 44.6 39.7 44.3 39.9 43.9 C 40.2 43.5 40.3 43 40.3 42.4 Z M 58.2 38.4 C 58.2 38.4 54.8 38.6 54.8 38.6 C 54.7 38.4 54.6 38.1 54.4 37.8 C 54.2 37.6 53.9 37.4 53.6 37.3 C 53.3 37.1 52.9 37 52.5 37 C 51.9 37 51.4 37.2 51 37.4 C 50.6 37.7 50.4 38 50.4 38.4 C 50.4 38.7 50.5 39 50.8 39.2 C 51 39.4 51.5 39.6 52.1 39.8 C 52.1 39.8 54.6 40.3 54.6 40.3 C 55.9 40.5 56.9 41 57.5 41.6 C 58.2 42.2 58.5 43 58.5 44 C 58.5 44.8 58.3 45.6 57.7 46.3 C 57.2 47 56.5 47.5 55.6 47.9 C 54.7 48.3 53.6 48.4 52.5 48.4 C 50.6 48.4 49.2 48.1 48.1 47.3 C 47.1 46.6 46.4 45.5 46.3 44.2 C 46.3 44.2 50 44 50 44 C 50.1 44.6 50.4 45 50.8 45.3 C 51.2 45.6 51.8 45.7 52.5 45.7 C 53.1 45.7 53.7 45.6 54.1 45.3 C 54.5 45.1 54.7 44.7 54.7 44.3 C 54.7 44 54.5 43.7 54.2 43.5 C 54 43.3 53.5 43.1 52.9 43 C 52.9 43 50.6 42.5 50.6 42.5 C 49.2 42.2 48.2 41.8 47.6 41.1 C 47 40.5 46.6 39.6 46.6 38.6 C 46.6 37.7 46.9 37 47.3 36.3 C 47.8 35.7 48.5 35.2 49.4 34.9 C 50.2 34.5 51.2 34.4 52.4 34.4 C 54.1 34.4 55.5 34.7 56.5 35.5 C 57.5 36.2 58 37.2 58.2 38.4 Z M 66.9 48.4 C 65.5 48.4 64.3 48.2 63.3 47.6 C 62.3 47 61.5 46.2 61 45.2 C 60.4 44.1 60.2 42.9 60.2 41.4 C 60.2 40 60.4 38.8 61 37.7 C 61.5 36.7 62.3 35.8 63.3 35.3 C 64.3 34.7 65.4 34.4 66.8 34.4 C 67.7 34.4 68.5 34.5 69.3 34.8 C 70.1 35.1 70.8 35.5 71.3 36.1 C 71.9 36.7 72.4 37.4 72.7 38.3 C 73 39.1 73.2 40.1 73.2 41.3 C 73.19 41.29 73.2 42.3 73.2 42.3 L 61.7 42.3 L 61.7 40 C 61.7 40 69.63 39.99 69.6 40 C 69.6 39.4 69.5 39 69.3 38.5 C 69 38.1 68.7 37.8 68.3 37.6 C 67.9 37.3 67.4 37.2 66.8 37.2 C 66.3 37.2 65.8 37.3 65.3 37.6 C 64.9 37.8 64.5 38.2 64.3 38.6 C 64 39.1 63.9 39.6 63.9 40.1 C 63.9 40.1 63.9 42.3 63.9 42.3 C 63.9 43 64 43.6 64.3 44.1 C 64.5 44.6 64.9 45 65.3 45.2 C 65.8 45.5 66.4 45.6 67 45.6 C 67.4 45.6 67.8 45.6 68.1 45.4 C 68.5 45.3 68.8 45.2 69 44.9 C 69.3 44.7 69.5 44.4 69.6 44 C 69.6 44 73.1 44.3 73.1 44.3 C 72.9 45.1 72.6 45.8 72 46.5 C 71.5 47.1 70.8 47.6 69.9 47.9 C 69 48.3 68.1 48.4 66.9 48.4 Z " stroke="none" fill="#10283d"/>  </g>  <g id="Polygon116434">    <path d="M 8 18.2 C 8.03 18.18 1.6 18.2 1.6 18.2 L 1.6 0 C 1.6 0 8.08 0 8.1 0 C 9.9 0 11.5 0.4 12.8 1.1 C 14.1 1.8 15.1 2.9 15.9 4.2 C 16.6 5.6 16.9 7.2 16.9 9.1 C 16.9 11 16.6 12.6 15.9 14 C 15.1 15.3 14.1 16.4 12.8 17.1 C 11.5 17.8 9.9 18.2 8 18.2 Z M 5.4 14.9 C 5.4 14.9 7.87 14.89 7.9 14.9 C 9 14.9 10 14.7 10.7 14.3 C 11.5 13.9 12.1 13.2 12.5 12.4 C 12.9 11.5 13.1 10.4 13.1 9.1 C 13.1 7.7 12.9 6.6 12.5 5.8 C 12.1 4.9 11.5 4.3 10.7 3.9 C 10 3.5 9 3.3 7.9 3.3 C 7.87 3.29 5.4 3.3 5.4 3.3 L 5.4 14.9 Z M 19.6 18.2 L 19.6 4.5 L 23.4 4.5 L 23.4 18.2 L 19.6 18.2 Z M 21.5 2.8 C 21 2.8 20.5 2.6 20.1 2.2 C 19.7 1.9 19.5 1.4 19.5 0.9 C 19.5 0.4 19.7 -0.1 20.1 -0.5 C 20.5 -0.9 21 -1 21.5 -1 C 22.1 -1 22.6 -0.9 23 -0.5 C 23.4 -0.1 23.6 0.3 23.6 0.9 C 23.6 1.4 23.4 1.8 23 2.2 C 22.6 2.6 22.1 2.8 21.5 2.8 Z M 33.6 4.5 L 33.6 7.4 L 25.2 7.4 L 25.2 4.5 L 33.6 4.5 Z M 27.1 18.2 C 27.1 18.2 27.15 3.56 27.1 3.6 C 27.1 2.6 27.3 1.8 27.7 1.1 C 28.1 0.4 28.6 0 29.3 -0.4 C 30 -0.7 30.8 -0.9 31.6 -0.9 C 32.2 -0.9 32.7 -0.8 33.2 -0.7 C 33.7 -0.6 34.1 -0.6 34.3 -0.5 C 34.3 -0.5 33.6 2.4 33.6 2.4 C 33.5 2.3 33.3 2.3 33.1 2.2 C 32.9 2.2 32.6 2.2 32.4 2.2 C 31.9 2.2 31.5 2.3 31.2 2.6 C 31 2.8 30.9 3.2 30.9 3.6 C 30.92 3.63 30.9 18.2 30.9 18.2 L 27.1 18.2 Z M 43.6 4.5 L 43.6 7.4 L 35.2 7.4 L 35.2 4.5 L 43.6 4.5 Z M 37.1 18.2 C 37.1 18.2 37.13 3.56 37.1 3.6 C 37.1 2.6 37.3 1.8 37.7 1.1 C 38.1 0.4 38.6 0 39.3 -0.4 C 40 -0.7 40.7 -0.9 41.6 -0.9 C 42.2 -0.9 42.7 -0.8 43.2 -0.7 C 43.7 -0.6 44 -0.6 44.3 -0.5 C 44.3 -0.5 43.6 2.4 43.6 2.4 C 43.4 2.3 43.3 2.3 43.1 2.2 C 42.8 2.2 42.6 2.2 42.4 2.2 C 41.8 2.2 41.4 2.3 41.2 2.6 C 41 2.8 40.9 3.2 40.9 3.6 C 40.9 3.63 40.9 18.2 40.9 18.2 L 37.1 18.2 Z M 46.1 18.2 L 46.1 4.5 L 49.8 4.5 L 49.8 18.2 L 46.1 18.2 Z M 48 2.8 C 47.4 2.8 46.9 2.6 46.5 2.2 C 46.1 1.9 45.9 1.4 45.9 0.9 C 45.9 0.4 46.1 -0.1 46.5 -0.5 C 46.9 -0.9 47.4 -1 48 -1 C 48.5 -1 49 -0.9 49.4 -0.5 C 49.8 -0.1 50 0.3 50 0.9 C 50 1.4 49.8 1.8 49.4 2.2 C 49 2.6 48.5 2.8 48 2.8 Z M 58.9 18.4 C 57.5 18.4 56.3 18.2 55.3 17.6 C 54.3 17 53.5 16.1 53 15.1 C 52.4 14 52.1 12.8 52.1 11.4 C 52.1 10 52.4 8.8 53 7.7 C 53.5 6.7 54.3 5.9 55.3 5.3 C 56.3 4.7 57.5 4.4 58.8 4.4 C 60 4.4 61.1 4.6 62 5 C 62.9 5.4 63.6 6.1 64.1 6.8 C 64.6 7.6 64.9 8.5 64.9 9.6 C 64.9 9.6 61.4 9.6 61.4 9.6 C 61.3 8.9 61 8.4 60.6 7.9 C 60.2 7.5 59.6 7.3 58.9 7.3 C 58.3 7.3 57.8 7.5 57.4 7.8 C 56.9 8.1 56.6 8.6 56.4 9.2 C 56.1 9.8 56 10.5 56 11.4 C 56 12.2 56.1 13 56.4 13.6 C 56.6 14.2 56.9 14.7 57.4 15 C 57.8 15.3 58.3 15.5 58.9 15.5 C 59.3 15.5 59.7 15.4 60.1 15.2 C 60.4 15 60.7 14.8 60.9 14.4 C 61.2 14.1 61.3 13.7 61.4 13.2 C 61.4 13.2 64.9 13.2 64.9 13.2 C 64.9 14.2 64.6 15.1 64.1 15.9 C 63.6 16.7 62.9 17.3 62 17.8 C 61.1 18.2 60.1 18.4 58.9 18.4 Z M 75.9 12.4 C 75.92 12.38 75.9 4.5 75.9 4.5 L 79.7 4.5 L 79.7 18.2 L 76.1 18.2 L 76.1 15.7 C 76.1 15.7 75.93 15.7 75.9 15.7 C 75.6 16.5 75.1 17.1 74.4 17.6 C 73.7 18.1 72.8 18.4 71.8 18.4 C 70.9 18.4 70.1 18.2 69.4 17.7 C 68.7 17.3 68.2 16.7 67.8 16 C 67.4 15.2 67.2 14.3 67.2 13.2 C 67.18 13.23 67.2 4.5 67.2 4.5 L 71 4.5 C 71 4.5 70.96 12.55 71 12.6 C 71 13.4 71.2 14 71.6 14.5 C 72 14.9 72.6 15.2 73.3 15.2 C 73.8 15.2 74.2 15.1 74.6 14.8 C 75 14.6 75.3 14.3 75.6 13.9 C 75.8 13.5 75.9 13 75.9 12.4 Z M 86.4 0 L 86.4 18.2 L 82.6 18.2 L 82.6 0 L 86.4 0 Z M 96.5 4.5 L 96.5 7.4 L 88.3 7.4 L 88.3 4.5 L 96.5 4.5 Z M 90.1 1.3 L 93.9 1.3 C 93.9 1.3 93.93 13.99 93.9 14 C 93.9 14.3 94 14.6 94.1 14.8 C 94.2 15 94.3 15.1 94.5 15.2 C 94.7 15.3 95 15.3 95.2 15.3 C 95.4 15.3 95.6 15.3 95.7 15.3 C 95.9 15.2 96.1 15.2 96.1 15.2 C 96.1 15.2 96.7 18 96.7 18 C 96.6 18.1 96.3 18.1 95.9 18.2 C 95.6 18.3 95.2 18.4 94.7 18.4 C 93.8 18.4 93 18.3 92.3 18 C 91.6 17.7 91.1 17.3 90.7 16.7 C 90.3 16.1 90.1 15.4 90.1 14.5 C 90.15 14.49 90.1 1.3 90.1 1.3 Z " stroke="none" fill="#10283d"/>  </g>  <g id="Polygon116436">    <path d="M 80.8 47.3 L 87.3 40.7 L 80.8 34.1 " style="stroke-width:1.8pt; stroke:#ff4f00;" fill="none"/>  </g></svg>