<?xml version="1.0" standalone="no"?><!DOCTYPE svg PUBLIC "-//W3C//DTD SVG 1.1//EN" "http://www.w3.org/Graphics/SVG/1.1/DTD/svg11.dtd"><svg xmlns="http://www.w3.org/2000/svg" version="1.1" width="260px" height="182.7px" viewBox="0 -5 260 182.7" style="top:-5px">  <desc>Provide trusted, actionable insights</desc>  <defs/>  <g id="Polygon125040">    <path d="M 69.6 115 L 69.6 97.5 L 74.4 97.5 L 74.4 115 L 69.6 115 Z M 72 95.3 C 71.3 95.3 70.7 95.1 70.2 94.6 C 69.6 94.1 69.4 93.5 69.4 92.9 C 69.4 92.2 69.6 91.6 70.2 91.1 C 70.7 90.6 71.3 90.4 72 90.4 C 72.7 90.4 73.3 90.6 73.9 91.1 C 74.4 91.6 74.6 92.2 74.6 92.8 C 74.6 93.5 74.4 94.1 73.9 94.6 C 73.3 95.1 72.7 95.3 72 95.3 Z M 83.2 104.9 C 83.15 104.91 83.2 115 83.2 115 L 78.3 115 L 78.3 97.5 L 82.9 97.5 L 82.9 100.6 C 82.9 100.6 83.13 100.63 83.1 100.6 C 83.5 99.6 84.2 98.8 85.1 98.2 C 86 97.6 87.1 97.3 88.4 97.3 C 89.6 97.3 90.6 97.6 91.5 98.1 C 92.4 98.6 93.2 99.4 93.7 100.4 C 94.2 101.4 94.4 102.5 94.4 103.9 C 94.4 103.89 94.4 115 94.4 115 L 89.6 115 C 89.6 115 89.56 104.75 89.6 104.8 C 89.6 103.7 89.3 102.8 88.7 102.2 C 88.2 101.6 87.4 101.3 86.5 101.3 C 85.8 101.3 85.2 101.5 84.7 101.8 C 84.2 102 83.9 102.4 83.6 103 C 83.3 103.5 83.2 104.2 83.2 104.9 Z M 112.5 102.5 C 112.5 102.5 108.1 102.8 108.1 102.8 C 108 102.4 107.9 102.1 107.6 101.8 C 107.4 101.5 107 101.2 106.6 101 C 106.2 100.8 105.7 100.8 105.2 100.8 C 104.4 100.8 103.8 100.9 103.3 101.2 C 102.8 101.5 102.5 102 102.5 102.5 C 102.5 102.9 102.7 103.2 103 103.5 C 103.3 103.8 103.9 104.1 104.7 104.2 C 104.7 104.2 107.9 104.9 107.9 104.9 C 109.6 105.2 110.8 105.8 111.7 106.5 C 112.5 107.3 112.9 108.3 112.9 109.6 C 112.9 110.7 112.6 111.7 111.9 112.6 C 111.2 113.5 110.3 114.1 109.2 114.6 C 108 115.1 106.7 115.3 105.1 115.3 C 102.8 115.3 101 114.9 99.6 113.9 C 98.3 112.9 97.5 111.6 97.2 109.9 C 97.2 109.9 102 109.7 102 109.7 C 102.1 110.4 102.5 110.9 103 111.3 C 103.6 111.7 104.3 111.9 105.2 111.9 C 106 111.9 106.7 111.7 107.2 111.4 C 107.7 111 108 110.6 108 110.1 C 108 109.6 107.8 109.3 107.4 109 C 107.1 108.7 106.5 108.5 105.8 108.3 C 105.8 108.3 102.7 107.7 102.7 107.7 C 101 107.4 99.8 106.8 98.9 106 C 98.1 105.1 97.7 104.1 97.7 102.8 C 97.7 101.6 98 100.7 98.6 99.9 C 99.2 99 100.1 98.4 101.2 98 C 102.3 97.5 103.6 97.3 105.1 97.3 C 107.3 97.3 109 97.8 110.3 98.7 C 111.6 99.6 112.3 100.9 112.5 102.5 Z M 115.9 115 L 115.9 97.5 L 120.8 97.5 L 120.8 115 L 115.9 115 Z M 118.4 95.3 C 117.6 95.3 117 95.1 116.5 94.6 C 116 94.1 115.7 93.5 115.7 92.9 C 115.7 92.2 116 91.6 116.5 91.1 C 117 90.6 117.6 90.4 118.4 90.4 C 119.1 90.4 119.7 90.6 120.2 91.1 C 120.7 91.6 121 92.2 121 92.8 C 121 93.5 120.7 94.1 120.2 94.6 C 119.7 95.1 119.1 95.3 118.4 95.3 Z M 132.4 121.9 C 130.8 121.9 129.5 121.7 128.3 121.3 C 127.2 120.8 126.3 120.3 125.7 119.5 C 125 118.8 124.6 118 124.4 117 C 124.4 117 128.9 116.4 128.9 116.4 C 129 116.8 129.2 117.1 129.5 117.4 C 129.8 117.7 130.2 118 130.7 118.2 C 131.2 118.3 131.8 118.4 132.5 118.4 C 133.5 118.4 134.4 118.2 135.1 117.7 C 135.8 117.2 136.1 116.3 136.1 115.1 C 136.11 115.1 136.1 111.9 136.1 111.9 C 136.1 111.9 135.91 111.91 135.9 111.9 C 135.7 112.4 135.4 112.9 135 113.3 C 134.5 113.7 134 114.1 133.3 114.3 C 132.6 114.6 131.9 114.8 130.9 114.8 C 129.6 114.8 128.4 114.4 127.4 113.8 C 126.3 113.2 125.4 112.3 124.8 111 C 124.2 109.8 123.8 108.2 123.8 106.2 C 123.8 104.3 124.2 102.6 124.8 101.3 C 125.5 100 126.3 99 127.4 98.3 C 128.5 97.6 129.6 97.3 130.9 97.3 C 131.9 97.3 132.7 97.5 133.4 97.8 C 134 98.1 134.6 98.6 135 99 C 135.4 99.5 135.7 100 135.9 100.5 C 135.91 100.48 136.1 100.5 136.1 100.5 L 136.1 97.5 L 140.9 97.5 C 140.9 97.5 140.9 115.17 140.9 115.2 C 140.9 116.7 140.5 117.9 139.8 118.9 C 139.1 119.9 138.1 120.6 136.8 121.2 C 135.5 121.7 134 121.9 132.4 121.9 Z M 132.5 111.1 C 133.2 111.1 133.9 110.9 134.4 110.5 C 135 110.1 135.4 109.6 135.7 108.8 C 136 108.1 136.1 107.2 136.1 106.2 C 136.1 105.2 136 104.3 135.7 103.6 C 135.4 102.8 135 102.2 134.5 101.8 C 133.9 101.4 133.2 101.2 132.5 101.2 C 131.7 101.2 131 101.4 130.5 101.8 C 129.9 102.2 129.5 102.8 129.2 103.6 C 128.9 104.3 128.8 105.2 128.8 106.2 C 128.8 107.2 128.9 108.1 129.2 108.8 C 129.5 109.6 129.9 110.1 130.5 110.5 C 131 110.9 131.7 111.1 132.5 111.1 Z M 149.6 104.9 C 149.62 104.91 149.6 115 149.6 115 L 144.8 115 L 144.8 91.7 L 149.5 91.7 L 149.5 100.6 C 149.5 100.6 149.69 100.63 149.7 100.6 C 150.1 99.6 150.7 98.8 151.6 98.2 C 152.5 97.6 153.6 97.3 154.9 97.3 C 156.1 97.3 157.2 97.6 158.1 98.1 C 159 98.6 159.7 99.4 160.2 100.4 C 160.7 101.4 160.9 102.5 160.9 103.9 C 160.94 103.89 160.9 115 160.9 115 L 156.1 115 C 156.1 115 156.1 104.75 156.1 104.8 C 156.1 103.7 155.8 102.8 155.3 102.2 C 154.7 101.6 154 101.3 153 101.3 C 152.3 101.3 151.7 101.5 151.2 101.8 C 150.7 102 150.3 102.4 150.1 103 C 149.8 103.5 149.6 104.2 149.6 104.9 Z M 173.6 97.5 L 173.6 101.2 L 163.1 101.2 L 163.1 97.5 L 173.6 97.5 Z M 165.5 93.4 L 170.3 93.4 C 170.3 93.4 170.34 109.64 170.3 109.6 C 170.3 110.1 170.4 110.4 170.5 110.7 C 170.7 110.9 170.9 111.1 171.1 111.2 C 171.4 111.3 171.6 111.3 172 111.3 C 172.2 111.3 172.4 111.3 172.7 111.3 C 172.9 111.2 173.1 111.2 173.2 111.2 C 173.2 111.2 173.9 114.8 173.9 114.8 C 173.7 114.9 173.4 114.9 172.9 115.1 C 172.5 115.2 171.9 115.2 171.3 115.2 C 170.1 115.3 169.1 115.1 168.3 114.8 C 167.4 114.4 166.7 113.9 166.2 113.1 C 165.7 112.4 165.5 111.4 165.5 110.3 C 165.5 110.27 165.5 93.4 165.5 93.4 Z M 190.8 102.5 C 190.8 102.5 186.4 102.8 186.4 102.8 C 186.3 102.4 186.2 102.1 185.9 101.8 C 185.7 101.5 185.3 101.2 184.9 101 C 184.5 100.8 184 100.8 183.5 100.8 C 182.7 100.8 182.1 100.9 181.6 101.2 C 181.1 101.5 180.8 102 180.8 102.5 C 180.8 102.9 181 103.2 181.3 103.5 C 181.6 103.8 182.2 104.1 183 104.2 C 183 104.2 186.2 104.9 186.2 104.9 C 187.9 105.2 189.2 105.8 190 106.5 C 190.8 107.3 191.2 108.3 191.2 109.6 C 191.2 110.7 190.9 111.7 190.2 112.6 C 189.6 113.5 188.6 114.1 187.5 114.6 C 186.3 115.1 185 115.3 183.5 115.3 C 181.2 115.3 179.3 114.9 177.9 113.9 C 176.6 112.9 175.8 111.6 175.5 109.9 C 175.5 109.9 180.3 109.7 180.3 109.7 C 180.4 110.4 180.8 110.9 181.3 111.3 C 181.9 111.7 182.6 111.9 183.5 111.9 C 184.3 111.9 185 111.7 185.5 111.4 C 186 111 186.3 110.6 186.3 110.1 C 186.3 109.6 186.1 109.3 185.8 109 C 185.4 108.7 184.8 108.5 184.1 108.3 C 184.1 108.3 181.1 107.7 181.1 107.7 C 179.3 107.4 178.1 106.8 177.3 106 C 176.4 105.1 176 104.1 176 102.8 C 176 101.6 176.3 100.7 176.9 99.9 C 177.5 99 178.4 98.4 179.5 98 C 180.6 97.5 181.9 97.3 183.4 97.3 C 185.6 97.3 187.3 97.8 188.6 98.7 C 189.9 99.6 190.6 100.9 190.8 102.5 Z " stroke="none" fill="#10283d"/>  </g>  <g id="Polygon125039">    <path d="M 54.9 73.3 C 53.8 73.3 52.8 73.1 51.9 72.7 C 51.1 72.4 50.4 71.8 49.9 71 C 49.4 70.2 49.1 69.3 49.1 68.1 C 49.1 67.2 49.3 66.3 49.7 65.7 C 50 65 50.5 64.5 51.1 64.1 C 51.7 63.7 52.4 63.4 53.2 63.2 C 54 63 54.8 62.8 55.7 62.8 C 56.7 62.6 57.5 62.5 58.1 62.4 C 58.8 62.4 59.2 62.2 59.5 62 C 59.8 61.8 59.9 61.6 59.9 61.2 C 59.9 61.2 59.9 61.1 59.9 61.1 C 59.9 60.4 59.7 59.8 59.2 59.4 C 58.8 59 58.1 58.9 57.3 58.9 C 56.4 58.9 55.7 59 55.2 59.4 C 54.7 59.8 54.4 60.3 54.2 60.9 C 54.2 60.9 49.7 60.5 49.7 60.5 C 50 59.4 50.4 58.5 51.1 57.7 C 51.7 57 52.6 56.4 53.7 55.9 C 54.7 55.5 55.9 55.3 57.3 55.3 C 58.3 55.3 59.2 55.4 60.1 55.7 C 61 55.9 61.8 56.2 62.5 56.7 C 63.2 57.2 63.7 57.8 64.1 58.6 C 64.5 59.3 64.7 60.2 64.7 61.2 C 64.74 61.23 64.7 73 64.7 73 L 60.2 73 L 60.2 70.6 C 60.2 70.6 60.02 70.58 60 70.6 C 59.7 71.1 59.4 71.6 58.9 72 C 58.4 72.4 57.9 72.8 57.2 73 C 56.5 73.2 55.8 73.3 54.9 73.3 Z M 56.3 70 C 57 70 57.6 69.8 58.2 69.6 C 58.7 69.3 59.2 68.9 59.5 68.4 C 59.8 67.9 59.9 67.4 59.9 66.8 C 59.9 66.8 59.9 64.9 59.9 64.9 C 59.8 65 59.6 65.1 59.3 65.2 C 59.1 65.3 58.8 65.3 58.4 65.4 C 58.1 65.5 57.8 65.5 57.5 65.6 C 57.1 65.6 56.8 65.7 56.6 65.7 C 56 65.8 55.5 65.9 55.1 66.1 C 54.7 66.3 54.3 66.5 54.1 66.8 C 53.9 67.1 53.7 67.5 53.7 68 C 53.7 68.6 54 69.1 54.5 69.5 C 54.9 69.8 55.6 70 56.3 70 Z M 76.3 73.3 C 74.5 73.3 73 73 71.7 72.2 C 70.4 71.4 69.4 70.4 68.7 69 C 68.1 67.7 67.7 66.1 67.7 64.3 C 67.7 62.6 68.1 61 68.7 59.6 C 69.4 58.3 70.4 57.2 71.7 56.5 C 73 55.7 74.5 55.3 76.3 55.3 C 77.8 55.3 79.1 55.6 80.3 56.1 C 81.4 56.7 82.3 57.5 83 58.5 C 83.7 59.5 84 60.7 84.1 62 C 84.1 62 79.5 62 79.5 62 C 79.4 61.1 79.1 60.4 78.5 59.9 C 78 59.4 77.2 59.1 76.4 59.1 C 75.6 59.1 75 59.3 74.4 59.7 C 73.8 60.1 73.4 60.7 73.1 61.5 C 72.8 62.2 72.6 63.2 72.6 64.3 C 72.6 65.4 72.8 66.3 73.1 67.1 C 73.4 67.9 73.8 68.5 74.4 68.9 C 75 69.3 75.6 69.5 76.4 69.5 C 76.9 69.5 77.4 69.4 77.9 69.2 C 78.3 68.9 78.7 68.6 79 68.2 C 79.2 67.7 79.4 67.2 79.5 66.6 C 79.5 66.6 84.1 66.6 84.1 66.6 C 84 67.9 83.7 69.1 83 70.1 C 82.4 71.1 81.5 71.9 80.3 72.5 C 79.2 73.1 77.9 73.3 76.3 73.3 Z M 96.3 55.5 L 96.3 59.2 L 85.8 59.2 L 85.8 55.5 L 96.3 55.5 Z M 88.2 51.4 L 93 51.4 C 93 51.4 93.03 67.64 93 67.6 C 93 68.1 93.1 68.4 93.2 68.7 C 93.4 68.9 93.6 69.1 93.8 69.2 C 94.1 69.3 94.3 69.3 94.7 69.3 C 94.9 69.3 95.1 69.3 95.4 69.3 C 95.6 69.2 95.8 69.2 95.9 69.2 C 95.9 69.2 96.6 72.8 96.6 72.8 C 96.4 72.9 96.1 72.9 95.6 73.1 C 95.2 73.2 94.6 73.2 94 73.2 C 92.8 73.3 91.8 73.1 90.9 72.8 C 90.1 72.4 89.4 71.9 88.9 71.1 C 88.4 70.4 88.2 69.4 88.2 68.3 C 88.19 68.27 88.2 51.4 88.2 51.4 Z M 99.3 73 L 99.3 55.5 L 104.2 55.5 L 104.2 73 L 99.3 73 Z M 101.8 53.3 C 101 53.3 100.4 53.1 99.9 52.6 C 99.4 52.1 99.1 51.5 99.1 50.9 C 99.1 50.2 99.4 49.6 99.9 49.1 C 100.4 48.6 101 48.4 101.8 48.4 C 102.5 48.4 103.1 48.6 103.6 49.1 C 104.1 49.6 104.4 50.2 104.4 50.8 C 104.4 51.5 104.1 52.1 103.6 52.6 C 103.1 53.1 102.5 53.3 101.8 53.3 Z M 115.8 73.3 C 114.1 73.3 112.5 73 111.2 72.2 C 110 71.5 109 70.4 108.3 69.1 C 107.6 67.7 107.2 66.1 107.2 64.3 C 107.2 62.5 107.6 61 108.3 59.6 C 109 58.3 110 57.2 111.2 56.4 C 112.5 55.7 114.1 55.3 115.8 55.3 C 117.6 55.3 119.1 55.7 120.4 56.4 C 121.7 57.2 122.7 58.3 123.4 59.6 C 124.1 61 124.4 62.5 124.4 64.3 C 124.4 66.1 124.1 67.7 123.4 69.1 C 122.7 70.4 121.7 71.5 120.4 72.2 C 119.1 73 117.6 73.3 115.8 73.3 Z M 115.8 69.6 C 116.6 69.6 117.3 69.4 117.9 68.9 C 118.4 68.4 118.8 67.8 119.1 67 C 119.4 66.2 119.5 65.3 119.5 64.3 C 119.5 63.3 119.4 62.4 119.1 61.6 C 118.8 60.8 118.4 60.2 117.9 59.7 C 117.3 59.2 116.6 59 115.8 59 C 115 59 114.4 59.2 113.8 59.7 C 113.3 60.2 112.8 60.8 112.6 61.6 C 112.3 62.4 112.2 63.3 112.2 64.3 C 112.2 65.3 112.3 66.2 112.6 67 C 112.8 67.8 113.3 68.4 113.8 68.9 C 114.4 69.4 115 69.6 115.8 69.6 Z M 132.3 62.9 C 132.33 62.91 132.3 73 132.3 73 L 127.5 73 L 127.5 55.5 L 132.1 55.5 L 132.1 58.6 C 132.1 58.6 132.3 58.63 132.3 58.6 C 132.7 57.6 133.3 56.8 134.2 56.2 C 135.2 55.6 136.3 55.3 137.6 55.3 C 138.8 55.3 139.8 55.6 140.7 56.1 C 141.6 56.6 142.3 57.4 142.8 58.4 C 143.3 59.4 143.6 60.5 143.6 61.9 C 143.58 61.89 143.6 73 143.6 73 L 138.7 73 C 138.7 73 138.74 62.75 138.7 62.8 C 138.7 61.7 138.5 60.8 137.9 60.2 C 137.4 59.6 136.6 59.3 135.6 59.3 C 135 59.3 134.4 59.5 133.9 59.8 C 133.4 60 133 60.4 132.8 61 C 132.5 61.5 132.3 62.2 132.3 62.9 Z M 152.3 73.3 C 151.1 73.3 150.1 73.1 149.3 72.7 C 148.4 72.4 147.7 71.8 147.2 71 C 146.7 70.2 146.5 69.3 146.5 68.1 C 146.5 67.2 146.6 66.3 147 65.7 C 147.3 65 147.8 64.5 148.4 64.1 C 149.1 63.7 149.8 63.4 150.5 63.2 C 151.3 63 152.1 62.8 153 62.8 C 154 62.6 154.8 62.5 155.5 62.4 C 156.1 62.4 156.5 62.2 156.8 62 C 157.1 61.8 157.2 61.6 157.2 61.2 C 157.2 61.2 157.2 61.1 157.2 61.1 C 157.2 60.4 157 59.8 156.6 59.4 C 156.1 59 155.5 58.9 154.6 58.9 C 153.8 58.9 153.1 59 152.6 59.4 C 152.1 59.8 151.7 60.3 151.5 60.9 C 151.5 60.9 147.1 60.5 147.1 60.5 C 147.3 59.4 147.7 58.5 148.4 57.7 C 149.1 57 149.9 56.4 151 55.9 C 152.1 55.5 153.3 55.3 154.7 55.3 C 155.6 55.3 156.6 55.4 157.5 55.7 C 158.4 55.9 159.1 56.2 159.8 56.7 C 160.5 57.2 161.1 57.8 161.5 58.6 C 161.9 59.3 162.1 60.2 162.1 61.2 C 162.08 61.23 162.1 73 162.1 73 L 157.5 73 L 157.5 70.6 C 157.5 70.6 157.35 70.58 157.4 70.6 C 157.1 71.1 156.7 71.6 156.2 72 C 155.8 72.4 155.2 72.8 154.5 73 C 153.9 73.2 153.1 73.3 152.3 73.3 Z M 153.6 70 C 154.4 70 155 69.8 155.5 69.6 C 156.1 69.3 156.5 68.9 156.8 68.4 C 157.1 67.9 157.3 67.4 157.3 66.8 C 157.3 66.8 157.3 64.9 157.3 64.9 C 157.1 65 156.9 65.1 156.7 65.2 C 156.4 65.3 156.1 65.3 155.8 65.4 C 155.4 65.5 155.1 65.5 154.8 65.6 C 154.5 65.6 154.2 65.7 153.9 65.7 C 153.3 65.8 152.8 65.9 152.4 66.1 C 152 66.3 151.7 66.5 151.4 66.8 C 151.2 67.1 151.1 67.5 151.1 68 C 151.1 68.6 151.3 69.1 151.8 69.5 C 152.3 69.8 152.9 70 153.6 70 Z M 165.9 73 L 165.9 49.7 L 170.8 49.7 L 170.8 58.5 C 170.8 58.5 170.93 58.48 170.9 58.5 C 171.1 58 171.4 57.5 171.9 57 C 172.3 56.6 172.8 56.1 173.4 55.8 C 174.1 55.5 174.9 55.3 175.9 55.3 C 177.2 55.3 178.3 55.6 179.4 56.3 C 180.5 57 181.4 58 182 59.3 C 182.6 60.6 183 62.3 183 64.3 C 183 66.2 182.7 67.9 182 69.2 C 181.4 70.6 180.6 71.6 179.5 72.3 C 178.4 72.9 177.2 73.3 175.9 73.3 C 174.9 73.3 174.1 73.1 173.5 72.8 C 172.8 72.5 172.3 72.1 171.9 71.6 C 171.5 71.2 171.1 70.7 170.9 70.2 C 170.93 70.2 170.7 70.2 170.7 70.2 L 170.7 73 L 165.9 73 Z M 170.7 64.3 C 170.7 65.3 170.8 66.2 171.1 67 C 171.4 67.8 171.8 68.4 172.4 68.8 C 172.9 69.2 173.6 69.4 174.3 69.4 C 175.1 69.4 175.8 69.2 176.3 68.8 C 176.9 68.3 177.3 67.7 177.6 67 C 177.9 66.2 178 65.3 178 64.3 C 178 63.3 177.9 62.4 177.6 61.6 C 177.3 60.8 176.9 60.3 176.4 59.8 C 175.8 59.4 175.1 59.2 174.3 59.2 C 173.6 59.2 172.9 59.4 172.4 59.8 C 171.8 60.2 171.4 60.8 171.1 61.6 C 170.8 62.3 170.7 63.2 170.7 64.3 Z M 191 49.7 L 191 73 L 186.2 73 L 186.2 49.7 L 191 49.7 Z M 202.8 73.3 C 201 73.3 199.4 73 198.1 72.2 C 196.8 71.5 195.8 70.5 195.1 69.1 C 194.4 67.8 194.1 66.2 194.1 64.4 C 194.1 62.6 194.4 61 195.1 59.6 C 195.8 58.3 196.8 57.2 198.1 56.5 C 199.4 55.7 200.9 55.3 202.6 55.3 C 203.7 55.3 204.8 55.5 205.8 55.9 C 206.8 56.2 207.7 56.8 208.4 57.5 C 209.1 58.3 209.7 59.2 210.1 60.3 C 210.6 61.4 210.8 62.7 210.8 64.2 C 210.77 64.18 210.8 65.5 210.8 65.5 L 196 65.5 L 196 62.5 C 196 62.5 206.21 62.51 206.2 62.5 C 206.2 61.8 206.1 61.2 205.8 60.7 C 205.5 60.1 205 59.7 204.5 59.4 C 204 59.1 203.3 58.9 202.6 58.9 C 201.9 58.9 201.3 59.1 200.7 59.4 C 200.1 59.8 199.7 60.2 199.4 60.8 C 199.1 61.4 198.9 62 198.9 62.7 C 198.9 62.7 198.9 65.5 198.9 65.5 C 198.9 66.4 199 67.1 199.4 67.8 C 199.7 68.4 200.1 68.9 200.7 69.2 C 201.3 69.6 202 69.7 202.8 69.7 C 203.4 69.7 203.9 69.7 204.3 69.5 C 204.8 69.3 205.1 69.1 205.5 68.8 C 205.8 68.5 206 68.1 206.2 67.7 C 206.2 67.7 210.7 68 210.7 68 C 210.4 69.1 210 70 209.3 70.8 C 208.6 71.6 207.7 72.2 206.6 72.7 C 205.5 73.1 204.2 73.3 202.8 73.3 Z " stroke="none" fill="#10283d"/>  </g>  <g id="Polygon125038">    <path d="M 7.6 31 L 7.6 7.7 C 7.6 7.7 16.75 7.73 16.8 7.7 C 18.5 7.7 20 8.1 21.3 8.7 C 22.5 9.4 23.5 10.3 24.1 11.5 C 24.8 12.7 25.1 14.1 25.1 15.6 C 25.1 17.2 24.8 18.5 24.1 19.7 C 23.4 20.9 22.5 21.8 21.2 22.5 C 19.9 23.1 18.4 23.5 16.6 23.5 C 16.63 23.45 10.8 23.5 10.8 23.5 L 10.8 19.5 C 10.8 19.5 15.83 19.51 15.8 19.5 C 16.8 19.5 17.6 19.3 18.2 19 C 18.8 18.7 19.3 18.2 19.6 17.6 C 19.9 17.1 20 16.4 20 15.6 C 20 14.8 19.9 14.2 19.6 13.6 C 19.3 13 18.8 12.6 18.2 12.2 C 17.6 11.9 16.8 11.8 15.8 11.8 C 15.81 11.75 12.5 11.8 12.5 11.8 L 12.5 31 L 7.6 31 Z M 27.8 31 L 27.8 13.5 L 32.5 13.5 L 32.5 16.6 C 32.5 16.6 32.72 16.59 32.7 16.6 C 33 15.5 33.6 14.7 34.3 14.1 C 35.1 13.6 35.9 13.3 36.9 13.3 C 37.2 13.3 37.4 13.3 37.7 13.3 C 38 13.4 38.2 13.4 38.4 13.5 C 38.4 13.5 38.4 17.8 38.4 17.8 C 38.2 17.7 37.9 17.6 37.5 17.6 C 37.1 17.5 36.7 17.5 36.4 17.5 C 35.7 17.5 35 17.7 34.5 18 C 33.9 18.3 33.5 18.7 33.2 19.2 C 32.9 19.8 32.7 20.4 32.7 21.1 C 32.69 21.13 32.7 31 32.7 31 L 27.8 31 Z M 48.6 31.3 C 46.8 31.3 45.3 31 44 30.2 C 42.7 29.5 41.7 28.4 41 27.1 C 40.3 25.7 40 24.1 40 22.3 C 40 20.5 40.3 19 41 17.6 C 41.7 16.3 42.7 15.2 44 14.4 C 45.3 13.7 46.8 13.3 48.6 13.3 C 50.3 13.3 51.9 13.7 53.1 14.4 C 54.4 15.2 55.4 16.3 56.1 17.6 C 56.8 19 57.2 20.5 57.2 22.3 C 57.2 24.1 56.8 25.7 56.1 27.1 C 55.4 28.4 54.4 29.5 53.1 30.2 C 51.9 31 50.3 31.3 48.6 31.3 Z M 48.6 27.6 C 49.4 27.6 50.1 27.4 50.6 26.9 C 51.1 26.4 51.5 25.8 51.8 25 C 52.1 24.2 52.2 23.3 52.2 22.3 C 52.2 21.3 52.1 20.4 51.8 19.6 C 51.5 18.8 51.1 18.2 50.6 17.7 C 50.1 17.2 49.4 17 48.6 17 C 47.8 17 47.1 17.2 46.6 17.7 C 46 18.2 45.6 18.8 45.3 19.6 C 45 20.4 44.9 21.3 44.9 22.3 C 44.9 23.3 45 24.2 45.3 25 C 45.6 25.8 46 26.4 46.6 26.9 C 47.1 27.4 47.8 27.6 48.6 27.6 Z M 75.7 13.5 L 69.6 31 L 64.1 31 L 58 13.5 L 63.1 13.5 L 66.7 26 L 66.9 26 L 70.5 13.5 L 75.7 13.5 Z M 77.9 31 L 77.9 13.5 L 82.8 13.5 L 82.8 31 L 77.9 31 Z M 80.4 11.3 C 79.6 11.3 79 11.1 78.5 10.6 C 78 10.1 77.7 9.5 77.7 8.9 C 77.7 8.2 78 7.6 78.5 7.1 C 79 6.6 79.6 6.4 80.4 6.4 C 81.1 6.4 81.7 6.6 82.2 7.1 C 82.7 7.6 83 8.2 83 8.8 C 83 9.5 82.7 10.1 82.2 10.6 C 81.7 11.1 81.1 11.3 80.4 11.3 Z M 93 31.3 C 91.7 31.3 90.5 30.9 89.4 30.3 C 88.3 29.6 87.5 28.6 86.9 27.2 C 86.2 25.9 85.9 24.2 85.9 22.3 C 85.9 20.3 86.2 18.6 86.9 17.3 C 87.5 16 88.4 15 89.5 14.3 C 90.5 13.6 91.7 13.3 93 13.3 C 94 13.3 94.8 13.5 95.4 13.8 C 96.1 14.1 96.6 14.6 97 15 C 97.4 15.5 97.7 16 97.9 16.5 C 97.95 16.48 98.1 16.5 98.1 16.5 L 98.1 7.7 L 102.9 7.7 L 102.9 31 L 98.2 31 L 98.2 28.2 C 98.2 28.2 97.95 28.2 97.9 28.2 C 97.7 28.7 97.4 29.2 97 29.6 C 96.6 30.1 96 30.5 95.4 30.8 C 94.7 31.1 93.9 31.3 93 31.3 Z M 94.5 27.4 C 95.3 27.4 96 27.2 96.5 26.8 C 97.1 26.4 97.5 25.8 97.8 25 C 98.1 24.2 98.2 23.3 98.2 22.3 C 98.2 21.2 98.1 20.3 97.8 19.6 C 97.5 18.8 97.1 18.2 96.5 17.8 C 96 17.4 95.3 17.2 94.5 17.2 C 93.7 17.2 93.1 17.4 92.5 17.8 C 92 18.3 91.6 18.8 91.3 19.6 C 91 20.4 90.9 21.3 90.9 22.3 C 90.9 23.3 91 24.2 91.3 25 C 91.6 25.7 92 26.3 92.5 26.8 C 93.1 27.2 93.7 27.4 94.5 27.4 Z M 114.8 31.3 C 113 31.3 111.4 31 110.1 30.2 C 108.8 29.5 107.8 28.5 107.1 27.1 C 106.4 25.8 106.1 24.2 106.1 22.4 C 106.1 20.6 106.4 19 107.1 17.6 C 107.8 16.3 108.8 15.2 110.1 14.5 C 111.4 13.7 112.8 13.3 114.6 13.3 C 115.7 13.3 116.8 13.5 117.8 13.9 C 118.8 14.2 119.6 14.8 120.4 15.5 C 121.1 16.3 121.7 17.2 122.1 18.3 C 122.6 19.4 122.8 20.7 122.8 22.2 C 122.77 22.18 122.8 23.5 122.8 23.5 L 108 23.5 L 108 20.5 C 108 20.5 118.21 20.51 118.2 20.5 C 118.2 19.8 118.1 19.2 117.8 18.7 C 117.5 18.1 117 17.7 116.5 17.4 C 116 17.1 115.3 16.9 114.6 16.9 C 113.9 16.9 113.3 17.1 112.7 17.4 C 112.1 17.8 111.7 18.2 111.4 18.8 C 111 19.4 110.9 20 110.9 20.7 C 110.9 20.7 110.9 23.5 110.9 23.5 C 110.9 24.4 111 25.1 111.4 25.8 C 111.7 26.4 112.1 26.9 112.7 27.2 C 113.3 27.6 114 27.7 114.8 27.7 C 115.4 27.7 115.9 27.7 116.3 27.5 C 116.8 27.3 117.1 27.1 117.5 26.8 C 117.8 26.5 118 26.1 118.2 25.7 C 118.2 25.7 122.7 26 122.7 26 C 122.4 27.1 122 28 121.3 28.8 C 120.6 29.6 119.7 30.2 118.6 30.7 C 117.5 31.1 116.2 31.3 114.8 31.3 Z M 142.6 13.5 L 142.6 17.2 L 132.1 17.2 L 132.1 13.5 L 142.6 13.5 Z M 134.5 9.4 L 139.3 9.4 C 139.3 9.4 139.34 25.64 139.3 25.6 C 139.3 26.1 139.4 26.4 139.5 26.7 C 139.7 26.9 139.9 27.1 140.1 27.2 C 140.4 27.3 140.7 27.3 141 27.3 C 141.2 27.3 141.4 27.3 141.7 27.3 C 141.9 27.2 142.1 27.2 142.2 27.2 C 142.2 27.2 142.9 30.8 142.9 30.8 C 142.7 30.9 142.4 30.9 141.9 31.1 C 141.5 31.2 141 31.2 140.3 31.2 C 139.2 31.3 138.1 31.1 137.3 30.8 C 136.4 30.4 135.7 29.9 135.2 29.1 C 134.7 28.4 134.5 27.4 134.5 26.3 C 134.5 26.27 134.5 9.4 134.5 9.4 Z M 145.6 31 L 145.6 13.5 L 150.3 13.5 L 150.3 16.6 C 150.3 16.6 150.49 16.59 150.5 16.6 C 150.8 15.5 151.3 14.7 152.1 14.1 C 152.8 13.6 153.7 13.3 154.7 13.3 C 154.9 13.3 155.2 13.3 155.5 13.3 C 155.7 13.4 156 13.4 156.2 13.5 C 156.2 13.5 156.2 17.8 156.2 17.8 C 156 17.7 155.7 17.6 155.3 17.6 C 154.9 17.5 154.5 17.5 154.2 17.5 C 153.4 17.5 152.8 17.7 152.3 18 C 151.7 18.3 151.3 18.7 150.9 19.2 C 150.6 19.8 150.5 20.4 150.5 21.1 C 150.45 21.13 150.5 31 150.5 31 L 145.6 31 Z M 169.7 23.6 C 169.67 23.57 169.7 13.5 169.7 13.5 L 174.5 13.5 L 174.5 31 L 169.9 31 L 169.9 27.8 C 169.9 27.8 169.68 27.83 169.7 27.8 C 169.3 28.9 168.6 29.7 167.7 30.3 C 166.8 30.9 165.7 31.2 164.4 31.2 C 163.2 31.2 162.2 31 161.3 30.4 C 160.4 29.9 159.7 29.1 159.2 28.2 C 158.7 27.2 158.5 26 158.5 24.7 C 158.47 24.66 158.5 13.5 158.5 13.5 L 163.3 13.5 C 163.3 13.5 163.32 23.8 163.3 23.8 C 163.3 24.8 163.6 25.6 164.1 26.2 C 164.7 26.8 165.4 27.1 166.3 27.1 C 166.9 27.1 167.5 27 168 26.7 C 168.5 26.5 168.9 26.1 169.2 25.5 C 169.5 25 169.7 24.3 169.7 23.6 Z M 192.8 18.5 C 192.8 18.5 188.4 18.8 188.4 18.8 C 188.3 18.4 188.1 18.1 187.9 17.8 C 187.6 17.5 187.3 17.2 186.9 17 C 186.5 16.8 186 16.8 185.4 16.8 C 184.7 16.8 184 16.9 183.5 17.2 C 183 17.5 182.8 18 182.8 18.5 C 182.8 18.9 182.9 19.2 183.3 19.5 C 183.6 19.8 184.2 20.1 185 20.2 C 185 20.2 188.1 20.9 188.1 20.9 C 189.8 21.2 191.1 21.8 191.9 22.5 C 192.8 23.3 193.2 24.3 193.2 25.6 C 193.2 26.7 192.8 27.7 192.2 28.6 C 191.5 29.5 190.6 30.1 189.4 30.6 C 188.3 31.1 186.9 31.3 185.4 31.3 C 183.1 31.3 181.3 30.9 179.9 29.9 C 178.5 28.9 177.7 27.6 177.5 25.9 C 177.5 25.9 182.2 25.7 182.2 25.7 C 182.4 26.4 182.7 26.9 183.3 27.3 C 183.8 27.7 184.6 27.9 185.4 27.9 C 186.3 27.9 187 27.7 187.5 27.4 C 188 27 188.3 26.6 188.3 26.1 C 188.3 25.6 188.1 25.3 187.7 25 C 187.3 24.7 186.8 24.5 186 24.3 C 186 24.3 183 23.7 183 23.7 C 181.3 23.4 180 22.8 179.2 22 C 178.4 21.1 178 20.1 178 18.8 C 178 17.6 178.3 16.7 178.9 15.9 C 179.5 15 180.3 14.4 181.4 14 C 182.6 13.5 183.9 13.3 185.4 13.3 C 187.6 13.3 189.3 13.8 190.6 14.7 C 191.8 15.6 192.6 16.9 192.8 18.5 Z M 205.3 13.5 L 205.3 17.2 L 194.8 17.2 L 194.8 13.5 L 205.3 13.5 Z M 197.2 9.4 L 202 9.4 C 202 9.4 202.04 25.64 202 25.6 C 202 26.1 202.1 26.4 202.2 26.7 C 202.4 26.9 202.6 27.1 202.8 27.2 C 203.1 27.3 203.3 27.3 203.7 27.3 C 203.9 27.3 204.1 27.3 204.4 27.3 C 204.6 27.2 204.8 27.2 204.9 27.2 C 204.9 27.2 205.6 30.8 205.6 30.8 C 205.4 30.9 205.1 30.9 204.6 31.1 C 204.2 31.2 203.6 31.2 203 31.2 C 201.8 31.3 200.8 31.1 200 30.8 C 199.1 30.4 198.4 29.9 197.9 29.1 C 197.4 28.4 197.2 27.4 197.2 26.3 C 197.2 26.27 197.2 9.4 197.2 9.4 Z M 215.8 31.3 C 214 31.3 212.4 31 211.1 30.2 C 209.8 29.5 208.8 28.5 208.1 27.1 C 207.4 25.8 207.1 24.2 207.1 22.4 C 207.1 20.6 207.4 19 208.1 17.6 C 208.8 16.3 209.8 15.2 211.1 14.5 C 212.4 13.7 213.9 13.3 215.6 13.3 C 216.7 13.3 217.8 13.5 218.8 13.9 C 219.8 14.2 220.7 14.8 221.4 15.5 C 222.1 16.3 222.7 17.2 223.1 18.3 C 223.6 19.4 223.8 20.7 223.8 22.2 C 223.77 22.18 223.8 23.5 223.8 23.5 L 209 23.5 L 209 20.5 C 209 20.5 219.21 20.51 219.2 20.5 C 219.2 19.8 219.1 19.2 218.8 18.7 C 218.5 18.1 218 17.7 217.5 17.4 C 217 17.1 216.4 16.9 215.6 16.9 C 214.9 16.9 214.3 17.1 213.7 17.4 C 213.1 17.8 212.7 18.2 212.4 18.8 C 212.1 19.4 211.9 20 211.9 20.7 C 211.9 20.7 211.9 23.5 211.9 23.5 C 211.9 24.4 212 25.1 212.4 25.8 C 212.7 26.4 213.1 26.9 213.7 27.2 C 214.3 27.6 215 27.7 215.8 27.7 C 216.4 27.7 216.9 27.7 217.3 27.5 C 217.8 27.3 218.1 27.1 218.5 26.8 C 218.8 26.5 219 26.1 219.2 25.7 C 219.2 25.7 223.7 26 223.7 26 C 223.4 27.1 223 28 222.3 28.8 C 221.6 29.6 220.7 30.2 219.6 30.7 C 218.5 31.1 217.2 31.3 215.8 31.3 Z M 233.3 31.3 C 232 31.3 230.8 30.9 229.7 30.3 C 228.6 29.6 227.8 28.6 227.1 27.2 C 226.5 25.9 226.2 24.2 226.2 22.3 C 226.2 20.3 226.5 18.6 227.2 17.3 C 227.8 16 228.7 15 229.7 14.3 C 230.8 13.6 232 13.3 233.3 13.3 C 234.3 13.3 235.1 13.5 235.7 13.8 C 236.4 14.1 236.9 14.6 237.3 15 C 237.7 15.5 238 16 238.2 16.5 C 238.24 16.48 238.4 16.5 238.4 16.5 L 238.4 7.7 L 243.2 7.7 L 243.2 31 L 238.4 31 L 238.4 28.2 C 238.4 28.2 238.24 28.2 238.2 28.2 C 238 28.7 237.7 29.2 237.3 29.6 C 236.9 30.1 236.3 30.5 235.7 30.8 C 235 31.1 234.2 31.3 233.3 31.3 Z M 234.8 27.4 C 235.6 27.4 236.3 27.2 236.8 26.8 C 237.3 26.4 237.8 25.8 238.1 25 C 238.3 24.2 238.5 23.3 238.5 22.3 C 238.5 21.2 238.3 20.3 238.1 19.6 C 237.8 18.8 237.4 18.2 236.8 17.8 C 236.3 17.4 235.6 17.2 234.8 17.2 C 234 17.2 233.4 17.4 232.8 17.8 C 232.3 18.3 231.8 18.8 231.6 19.6 C 231.3 20.4 231.1 21.3 231.1 22.3 C 231.1 23.3 231.3 24.2 231.6 25 C 231.9 25.7 232.3 26.3 232.8 26.8 C 233.4 27.2 234 27.4 234.8 27.4 Z M 252 27.8 C 252 27.8 251.83 29.07 251.8 29.1 C 251.7 30.1 251.5 31.1 251.3 32.1 C 251 33.1 250.7 34 250.4 34.8 C 250.1 35.6 249.9 36.2 249.7 36.7 C 249.7 36.7 246.5 36.7 246.5 36.7 C 246.7 36.2 246.8 35.6 247 34.8 C 247.2 34 247.4 33.1 247.6 32.1 C 247.7 31.1 247.8 30.1 247.9 29.1 C 247.89 29.09 248 27.8 248 27.8 L 252 27.8 Z " stroke="none" fill="#10283d"/>  </g></svg>