<?xml version="1.0" standalone="no"?><!DOCTYPE svg PUBLIC "-//W3C//DTD SVG 1.1//EN" "http://www.w3.org/Graphics/SVG/1.1/DTD/svg11.dtd"><svg xmlns="http://www.w3.org/2000/svg" version="1.1" width="413.5px" height="51.2px" viewBox="0 -12 413.5 51.2" style="top:-12px">  <desc>Discerning real value</desc>  <defs/>  <g id="Polygon108804">    <path d="M 9.6 21.8 C 9.63 21.82 1.9 21.8 1.9 21.8 L 1.9 0 C 1.9 0 9.69 0 9.7 0 C 11.9 0 13.8 0.4 15.4 1.3 C 16.9 2.2 18.2 3.4 19 5 C 19.9 6.7 20.3 8.6 20.3 10.9 C 20.3 13.2 19.9 15.1 19 16.7 C 18.2 18.4 16.9 19.6 15.3 20.5 C 13.8 21.4 11.8 21.8 9.6 21.8 Z M 6.5 17.9 C 6.5 17.9 9.44 17.87 9.4 17.9 C 10.8 17.9 12 17.6 12.9 17.1 C 13.8 16.6 14.5 15.9 15 14.9 C 15.5 13.8 15.7 12.5 15.7 10.9 C 15.7 9.3 15.5 8 15 6.9 C 14.5 5.9 13.8 5.2 12.9 4.7 C 12 4.2 10.8 4 9.4 4 C 9.45 3.95 6.5 4 6.5 4 L 6.5 17.9 Z M 23.7 21.8 L 23.7 5.5 L 28.2 5.5 L 28.2 21.8 L 23.7 21.8 Z M 25.9 3.3 C 25.3 3.3 24.7 3.1 24.2 2.7 C 23.7 2.2 23.5 1.7 23.5 1.1 C 23.5 0.4 23.7 -0.1 24.2 -0.6 C 24.7 -1 25.3 -1.2 25.9 -1.2 C 26.6 -1.2 27.2 -1 27.7 -0.6 C 28.2 -0.1 28.4 0.4 28.4 1 C 28.4 1.7 28.2 2.2 27.7 2.7 C 27.2 3.1 26.6 3.3 25.9 3.3 Z M 45.3 10.1 C 45.3 10.1 41.2 10.4 41.2 10.4 C 41.1 10 41 9.7 40.7 9.4 C 40.5 9.1 40.2 8.9 39.8 8.7 C 39.4 8.5 39 8.5 38.4 8.5 C 37.7 8.5 37.1 8.6 36.7 8.9 C 36.2 9.2 35.9 9.6 35.9 10.1 C 35.9 10.5 36.1 10.8 36.4 11.1 C 36.7 11.3 37.3 11.6 38 11.7 C 38 11.7 41 12.3 41 12.3 C 42.6 12.6 43.8 13.2 44.5 13.9 C 45.3 14.6 45.7 15.6 45.7 16.7 C 45.7 17.8 45.4 18.8 44.8 19.6 C 44.1 20.4 43.3 21 42.2 21.5 C 41.1 21.9 39.8 22.1 38.4 22.1 C 36.3 22.1 34.5 21.7 33.3 20.8 C 32 19.9 31.2 18.6 31 17.1 C 31 17.1 35.5 16.8 35.5 16.8 C 35.6 17.5 35.9 18 36.4 18.4 C 37 18.7 37.6 18.9 38.4 18.9 C 39.2 18.9 39.9 18.7 40.4 18.4 C 40.8 18.1 41.1 17.7 41.1 17.2 C 41.1 16.8 40.9 16.5 40.6 16.2 C 40.2 15.9 39.7 15.7 39 15.6 C 39 15.6 36.2 15 36.2 15 C 34.6 14.7 33.4 14.1 32.6 13.3 C 31.8 12.6 31.4 11.6 31.4 10.3 C 31.4 9.3 31.7 8.4 32.3 7.6 C 32.9 6.9 33.7 6.3 34.7 5.9 C 35.8 5.4 37 5.2 38.4 5.2 C 40.4 5.2 42.1 5.7 43.3 6.6 C 44.4 7.4 45.1 8.6 45.3 10.1 Z M 55.8 22.1 C 54.1 22.1 52.7 21.8 51.4 21.1 C 50.2 20.4 49.3 19.4 48.7 18.1 C 48 16.8 47.7 15.4 47.7 13.7 C 47.7 12 48 10.6 48.7 9.3 C 49.3 8 50.3 7 51.5 6.3 C 52.7 5.6 54.1 5.2 55.7 5.2 C 57.2 5.2 58.4 5.5 59.5 6 C 60.6 6.5 61.4 7.3 62 8.2 C 62.7 9.1 63 10.2 63.1 11.5 C 63.1 11.5 58.8 11.5 58.8 11.5 C 58.7 10.7 58.4 10 57.8 9.5 C 57.3 9 56.7 8.8 55.8 8.8 C 55.1 8.8 54.5 9 54 9.3 C 53.5 9.7 53.1 10.3 52.8 11 C 52.5 11.7 52.3 12.6 52.3 13.6 C 52.3 14.7 52.5 15.6 52.8 16.3 C 53 17 53.5 17.6 54 18 C 54.5 18.4 55.1 18.5 55.8 18.5 C 56.3 18.5 56.8 18.4 57.2 18.2 C 57.6 18 58 17.7 58.3 17.3 C 58.5 16.9 58.7 16.4 58.8 15.8 C 58.8 15.8 63.1 15.8 63.1 15.8 C 63 17.1 62.7 18.2 62.1 19.1 C 61.5 20.1 60.6 20.8 59.6 21.3 C 58.5 21.9 57.2 22.1 55.8 22.1 Z M 73.2 22.1 C 71.6 22.1 70.1 21.8 68.9 21.1 C 67.7 20.4 66.8 19.5 66.1 18.2 C 65.5 16.9 65.1 15.4 65.1 13.7 C 65.1 12 65.5 10.6 66.1 9.3 C 66.8 8 67.7 7 68.9 6.3 C 70.1 5.6 71.5 5.2 73.1 5.2 C 74.1 5.2 75.1 5.4 76.1 5.8 C 77 6.1 77.8 6.6 78.5 7.3 C 79.2 8 79.8 8.9 80.2 9.9 C 80.6 10.9 80.8 12.2 80.8 13.6 C 80.75 13.55 80.8 14.8 80.8 14.8 L 66.9 14.8 L 66.9 12 C 66.9 12 76.48 11.99 76.5 12 C 76.5 11.3 76.3 10.8 76.1 10.2 C 75.8 9.7 75.4 9.3 74.9 9.1 C 74.4 8.8 73.8 8.6 73.1 8.6 C 72.4 8.6 71.8 8.8 71.3 9.1 C 70.8 9.4 70.4 9.8 70.1 10.4 C 69.8 10.9 69.6 11.5 69.6 12.1 C 69.6 12.1 69.6 14.8 69.6 14.8 C 69.6 15.6 69.8 16.3 70.1 16.9 C 70.4 17.5 70.8 18 71.3 18.3 C 71.9 18.6 72.6 18.8 73.3 18.8 C 73.8 18.8 74.3 18.7 74.7 18.5 C 75.1 18.4 75.5 18.2 75.8 17.9 C 76.1 17.6 76.3 17.3 76.5 16.9 C 76.5 16.9 80.7 17.1 80.7 17.1 C 80.4 18.1 80 19 79.4 19.8 C 78.7 20.5 77.9 21.1 76.8 21.5 C 75.8 21.9 74.6 22.1 73.2 22.1 Z M 83.8 21.8 L 83.8 5.5 L 88.2 5.5 L 88.2 8.3 C 88.2 8.3 88.32 8.31 88.3 8.3 C 88.6 7.3 89.1 6.5 89.8 6 C 90.5 5.5 91.3 5.2 92.3 5.2 C 92.5 5.2 92.7 5.2 93 5.3 C 93.3 5.3 93.5 5.3 93.7 5.4 C 93.7 5.4 93.7 9.4 93.7 9.4 C 93.5 9.3 93.2 9.3 92.8 9.2 C 92.4 9.2 92.1 9.2 91.8 9.2 C 91.1 9.2 90.5 9.3 90 9.6 C 89.5 9.9 89 10.3 88.7 10.8 C 88.4 11.3 88.3 11.9 88.3 12.6 C 88.29 12.56 88.3 21.8 88.3 21.8 L 83.8 21.8 Z M 100.4 12.4 C 100.37 12.36 100.4 21.8 100.4 21.8 L 95.8 21.8 L 95.8 5.5 L 100.2 5.5 L 100.2 8.3 C 100.2 8.3 100.34 8.34 100.3 8.3 C 100.7 7.4 101.3 6.6 102.2 6.1 C 103 5.5 104.1 5.2 105.3 5.2 C 106.4 5.2 107.4 5.5 108.2 6 C 109.1 6.5 109.7 7.2 110.2 8.1 C 110.7 9 110.9 10.1 110.9 11.4 C 110.91 11.4 110.9 21.8 110.9 21.8 L 106.4 21.8 C 106.4 21.8 106.37 12.21 106.4 12.2 C 106.4 11.2 106.1 10.4 105.6 9.9 C 105.1 9.3 104.4 9 103.5 9 C 102.9 9 102.3 9.1 101.9 9.4 C 101.4 9.7 101 10.1 100.8 10.6 C 100.5 11.1 100.4 11.7 100.4 12.4 Z M 114.5 21.8 L 114.5 5.5 L 119 5.5 L 119 21.8 L 114.5 21.8 Z M 116.7 3.3 C 116.1 3.3 115.5 3.1 115 2.7 C 114.5 2.2 114.3 1.7 114.3 1.1 C 114.3 0.4 114.5 -0.1 115 -0.6 C 115.5 -1 116.1 -1.2 116.7 -1.2 C 117.4 -1.2 118 -1 118.5 -0.6 C 118.9 -0.1 119.2 0.4 119.2 1 C 119.2 1.7 118.9 2.2 118.5 2.7 C 118 3.1 117.4 3.3 116.7 3.3 Z M 127.2 12.4 C 127.2 12.36 127.2 21.8 127.2 21.8 L 122.7 21.8 L 122.7 5.5 L 127 5.5 L 127 8.3 C 127 8.3 127.18 8.34 127.2 8.3 C 127.5 7.4 128.1 6.6 129 6.1 C 129.9 5.5 130.9 5.2 132.1 5.2 C 133.2 5.2 134.2 5.5 135.1 6 C 135.9 6.5 136.6 7.2 137 8.1 C 137.5 9 137.7 10.1 137.7 11.4 C 137.75 11.4 137.7 21.8 137.7 21.8 L 133.2 21.8 C 133.2 21.8 133.21 12.21 133.2 12.2 C 133.2 11.2 133 10.4 132.4 9.9 C 131.9 9.3 131.2 9 130.3 9 C 129.7 9 129.2 9.1 128.7 9.4 C 128.2 9.7 127.9 10.1 127.6 10.6 C 127.3 11.1 127.2 11.7 127.2 12.4 Z M 148.6 28.3 C 147.2 28.3 145.9 28.1 144.8 27.7 C 143.8 27.3 143 26.7 142.3 26.1 C 141.7 25.4 141.3 24.6 141.1 23.7 C 141.1 23.7 145.3 23.2 145.3 23.2 C 145.5 23.5 145.7 23.8 145.9 24.1 C 146.2 24.4 146.6 24.6 147.1 24.8 C 147.5 24.9 148.1 25 148.7 25 C 149.7 25 150.5 24.8 151.2 24.3 C 151.8 23.8 152.1 23 152.1 21.9 C 152.14 21.91 152.1 18.9 152.1 18.9 C 152.1 18.9 151.95 18.92 151.9 18.9 C 151.7 19.4 151.4 19.8 151.1 20.2 C 150.7 20.6 150.1 20.9 149.5 21.2 C 148.9 21.5 148.1 21.6 147.3 21.6 C 146.1 21.6 144.9 21.3 143.9 20.7 C 142.9 20.2 142.1 19.3 141.5 18.1 C 140.9 16.9 140.6 15.4 140.6 13.6 C 140.6 11.8 140.9 10.2 141.5 9 C 142.2 7.7 143 6.8 144 6.2 C 145 5.6 146.1 5.2 147.3 5.2 C 148.2 5.2 149 5.4 149.6 5.7 C 150.2 6 150.7 6.4 151.1 6.9 C 151.4 7.3 151.7 7.8 151.9 8.2 C 151.95 8.2 152.1 8.2 152.1 8.2 L 152.1 5.5 L 156.6 5.5 C 156.6 5.5 156.62 21.98 156.6 22 C 156.6 23.4 156.3 24.5 155.6 25.5 C 154.9 26.4 154 27.1 152.8 27.6 C 151.6 28.1 150.2 28.3 148.6 28.3 Z M 148.7 18.2 C 149.4 18.2 150.1 18 150.6 17.6 C 151.1 17.3 151.5 16.7 151.7 16 C 152 15.4 152.2 14.5 152.2 13.6 C 152.2 12.6 152 11.8 151.8 11.1 C 151.5 10.4 151.1 9.8 150.6 9.4 C 150.1 9 149.4 8.9 148.7 8.9 C 148 8.9 147.3 9.1 146.8 9.5 C 146.3 9.9 145.9 10.4 145.7 11.1 C 145.4 11.8 145.3 12.7 145.3 13.6 C 145.3 14.5 145.4 15.3 145.7 16 C 145.9 16.7 146.3 17.2 146.8 17.6 C 147.3 18 148 18.2 148.7 18.2 Z M 167.2 21.8 L 167.2 5.5 L 171.6 5.5 L 171.6 8.3 C 171.6 8.3 171.77 8.31 171.8 8.3 C 172.1 7.3 172.6 6.5 173.3 6 C 174 5.5 174.8 5.2 175.7 5.2 C 175.9 5.2 176.2 5.2 176.4 5.3 C 176.7 5.3 176.9 5.3 177.1 5.4 C 177.1 5.4 177.1 9.4 177.1 9.4 C 176.9 9.3 176.6 9.3 176.2 9.2 C 175.9 9.2 175.5 9.2 175.2 9.2 C 174.5 9.2 174 9.3 173.4 9.6 C 172.9 9.9 172.5 10.3 172.2 10.8 C 171.9 11.3 171.7 11.9 171.7 12.6 C 171.74 12.56 171.7 21.8 171.7 21.8 L 167.2 21.8 Z M 186.7 22.1 C 185 22.1 183.6 21.8 182.4 21.1 C 181.1 20.4 180.2 19.5 179.6 18.2 C 178.9 16.9 178.6 15.4 178.6 13.7 C 178.6 12 178.9 10.6 179.6 9.3 C 180.2 8 181.1 7 182.3 6.3 C 183.5 5.6 184.9 5.2 186.5 5.2 C 187.6 5.2 188.6 5.4 189.5 5.8 C 190.5 6.1 191.3 6.6 192 7.3 C 192.7 8 193.2 8.9 193.6 9.9 C 194 10.9 194.2 12.2 194.2 13.6 C 194.21 13.55 194.2 14.8 194.2 14.8 L 180.4 14.8 L 180.4 12 C 180.4 12 189.94 11.99 189.9 12 C 189.9 11.3 189.8 10.8 189.5 10.2 C 189.2 9.7 188.8 9.3 188.3 9.1 C 187.8 8.8 187.3 8.6 186.6 8.6 C 185.9 8.6 185.3 8.8 184.8 9.1 C 184.2 9.4 183.8 9.8 183.5 10.4 C 183.2 10.9 183.1 11.5 183.1 12.1 C 183.1 12.1 183.1 14.8 183.1 14.8 C 183.1 15.6 183.2 16.3 183.5 16.9 C 183.8 17.5 184.3 18 184.8 18.3 C 185.4 18.6 186 18.8 186.8 18.8 C 187.3 18.8 187.7 18.7 188.2 18.5 C 188.6 18.4 188.9 18.2 189.2 17.9 C 189.5 17.6 189.8 17.3 189.9 16.9 C 189.9 16.9 194.1 17.1 194.1 17.1 C 193.9 18.1 193.5 19 192.8 19.8 C 192.2 20.5 191.3 21.1 190.3 21.5 C 189.2 21.9 188.1 22.1 186.7 22.1 Z M 201.7 22.1 C 200.6 22.1 199.7 21.9 198.9 21.6 C 198.1 21.2 197.4 20.7 197 19.9 C 196.5 19.2 196.3 18.3 196.3 17.2 C 196.3 16.3 196.4 15.6 196.8 15 C 197.1 14.3 197.5 13.8 198.1 13.5 C 198.7 13.1 199.3 12.8 200.1 12.6 C 200.8 12.4 201.6 12.3 202.4 12.2 C 203.4 12.1 204.1 12 204.7 11.9 C 205.3 11.8 205.7 11.7 206 11.5 C 206.2 11.3 206.4 11.1 206.4 10.7 C 206.4 10.7 206.4 10.7 206.4 10.7 C 206.4 10 206.2 9.5 205.7 9.1 C 205.3 8.7 204.7 8.6 203.9 8.6 C 203.1 8.6 202.5 8.7 202 9.1 C 201.5 9.5 201.2 9.9 201 10.4 C 201 10.4 196.8 10.1 196.8 10.1 C 197 9.1 197.5 8.2 198.1 7.5 C 198.7 6.8 199.5 6.2 200.5 5.8 C 201.5 5.4 202.6 5.2 204 5.2 C 204.9 5.2 205.7 5.3 206.6 5.6 C 207.4 5.8 208.1 6.1 208.8 6.6 C 209.4 7 210 7.6 210.3 8.3 C 210.7 9 210.9 9.8 210.9 10.8 C 210.9 10.78 210.9 21.8 210.9 21.8 L 206.6 21.8 L 206.6 19.5 C 206.6 19.5 206.47 19.55 206.5 19.5 C 206.2 20.1 205.9 20.5 205.4 20.9 C 205 21.3 204.4 21.6 203.8 21.8 C 203.2 22 202.5 22.1 201.7 22.1 Z M 203 19 C 203.7 19 204.2 18.9 204.8 18.6 C 205.3 18.3 205.7 18 206 17.5 C 206.3 17.1 206.4 16.5 206.4 16 C 206.4 16 206.4 14.2 206.4 14.2 C 206.3 14.3 206.1 14.4 205.8 14.5 C 205.6 14.6 205.3 14.6 205 14.7 C 204.7 14.7 204.4 14.8 204.1 14.8 C 203.8 14.9 203.5 14.9 203.2 15 C 202.7 15 202.2 15.2 201.8 15.3 C 201.4 15.5 201.1 15.7 200.9 16 C 200.7 16.3 200.6 16.7 200.6 17.1 C 200.6 17.7 200.8 18.2 201.3 18.5 C 201.7 18.8 202.3 19 203 19 Z M 219 0 L 219 21.8 L 214.5 21.8 L 214.5 0 L 219 0 Z M 244.9 5.5 L 239.2 21.8 L 234 21.8 L 228.3 5.5 L 233.1 5.5 L 236.5 17.2 L 236.7 17.2 L 240.1 5.5 L 244.9 5.5 Z M 251.1 22.1 C 250 22.1 249.1 21.9 248.3 21.6 C 247.5 21.2 246.8 20.7 246.4 19.9 C 245.9 19.2 245.7 18.3 245.7 17.2 C 245.7 16.3 245.8 15.6 246.2 15 C 246.5 14.3 246.9 13.8 247.5 13.5 C 248.1 13.1 248.7 12.8 249.5 12.6 C 250.2 12.4 251 12.3 251.8 12.2 C 252.8 12.1 253.5 12 254.1 11.9 C 254.7 11.8 255.1 11.7 255.4 11.5 C 255.6 11.3 255.8 11.1 255.8 10.7 C 255.8 10.7 255.8 10.7 255.8 10.7 C 255.8 10 255.6 9.5 255.1 9.1 C 254.7 8.7 254.1 8.6 253.3 8.6 C 252.5 8.6 251.9 8.7 251.4 9.1 C 250.9 9.5 250.6 9.9 250.4 10.4 C 250.4 10.4 246.2 10.1 246.2 10.1 C 246.4 9.1 246.9 8.2 247.5 7.5 C 248.1 6.8 248.9 6.2 249.9 5.8 C 250.9 5.4 252.1 5.2 253.4 5.2 C 254.3 5.2 255.1 5.3 256 5.6 C 256.8 5.8 257.5 6.1 258.2 6.6 C 258.8 7 259.4 7.6 259.7 8.3 C 260.1 9 260.3 9.8 260.3 10.8 C 260.3 10.78 260.3 21.8 260.3 21.8 L 256 21.8 L 256 19.5 C 256 19.5 255.87 19.55 255.9 19.5 C 255.6 20.1 255.3 20.5 254.8 20.9 C 254.4 21.3 253.8 21.6 253.2 21.8 C 252.6 22 251.9 22.1 251.1 22.1 Z M 252.4 19 C 253.1 19 253.6 18.9 254.2 18.6 C 254.7 18.3 255.1 18 255.4 17.5 C 255.7 17.1 255.8 16.5 255.8 16 C 255.8 16 255.8 14.2 255.8 14.2 C 255.7 14.3 255.5 14.4 255.2 14.5 C 255 14.6 254.7 14.6 254.4 14.7 C 254.1 14.7 253.8 14.8 253.5 14.8 C 253.2 14.9 252.9 14.9 252.6 15 C 252.1 15 251.6 15.2 251.2 15.3 C 250.8 15.5 250.5 15.7 250.3 16 C 250.1 16.3 250 16.7 250 17.1 C 250 17.7 250.2 18.2 250.7 18.5 C 251.1 18.8 251.7 19 252.4 19 Z M 268.4 0 L 268.4 21.8 L 263.9 21.8 L 263.9 0 L 268.4 0 Z M 282.6 14.9 C 282.57 14.85 282.6 5.5 282.6 5.5 L 287.1 5.5 L 287.1 21.8 L 282.8 21.8 L 282.8 18.8 C 282.8 18.8 282.58 18.85 282.6 18.8 C 282.2 19.8 281.6 20.6 280.7 21.2 C 279.9 21.7 278.8 22 277.6 22 C 276.5 22 275.6 21.8 274.7 21.3 C 273.9 20.8 273.3 20.1 272.8 19.2 C 272.3 18.2 272.1 17.2 272.1 15.9 C 272.08 15.87 272.1 5.5 272.1 5.5 L 276.6 5.5 C 276.6 5.5 276.62 15.06 276.6 15.1 C 276.6 16 276.9 16.8 277.4 17.4 C 277.9 17.9 278.6 18.2 279.5 18.2 C 280 18.2 280.5 18.1 281 17.8 C 281.5 17.6 281.8 17.2 282.1 16.7 C 282.4 16.2 282.6 15.6 282.6 14.9 Z M 298.2 22.1 C 296.5 22.1 295 21.8 293.8 21.1 C 292.6 20.4 291.7 19.5 291 18.2 C 290.4 16.9 290.1 15.4 290.1 13.7 C 290.1 12 290.4 10.6 291 9.3 C 291.7 8 292.6 7 293.8 6.3 C 295 5.6 296.4 5.2 298 5.2 C 299.1 5.2 300.1 5.4 301 5.8 C 301.9 6.1 302.8 6.6 303.5 7.3 C 304.2 8 304.7 8.9 305.1 9.9 C 305.5 10.9 305.7 12.2 305.7 13.6 C 305.69 13.55 305.7 14.8 305.7 14.8 L 291.9 14.8 L 291.9 12 C 291.9 12 301.41 11.99 301.4 12 C 301.4 11.3 301.3 10.8 301 10.2 C 300.7 9.7 300.3 9.3 299.8 9.1 C 299.3 8.8 298.7 8.6 298.1 8.6 C 297.4 8.6 296.8 8.8 296.2 9.1 C 295.7 9.4 295.3 9.8 295 10.4 C 294.7 10.9 294.5 11.5 294.5 12.1 C 294.5 12.1 294.5 14.8 294.5 14.8 C 294.5 15.6 294.7 16.3 295 16.9 C 295.3 17.5 295.7 18 296.3 18.3 C 296.8 18.6 297.5 18.8 298.2 18.8 C 298.8 18.8 299.2 18.7 299.6 18.5 C 300.1 18.4 300.4 18.2 300.7 17.9 C 301 17.6 301.2 17.3 301.4 16.9 C 301.4 16.9 305.6 17.1 305.6 17.1 C 305.4 18.1 304.9 19 304.3 19.8 C 303.6 20.5 302.8 21.1 301.7 21.5 C 300.7 21.9 299.5 22.1 298.2 22.1 Z " stroke="none" fill="#ffffff"/>  </g></svg>