<?xml version="1.0" standalone="no"?><!DOCTYPE svg PUBLIC "-//W3C//DTD SVG 1.1//EN" "http://www.w3.org/Graphics/SVG/1.1/DTD/svg11.dtd"><svg xmlns="http://www.w3.org/2000/svg" version="1.1" width="228px" height="93.7px" viewBox="0 -13 228 93.7" style="top:-13px">  <desc>Unclear application</desc>  <defs/>  <g id="Polygon118753">    <path d="M 6.9 62 C 5.8 62 4.8 61.8 3.9 61.4 C 3.1 61 2.4 60.4 1.9 59.7 C 1.4 58.9 1.1 57.9 1.1 56.8 C 1.1 55.8 1.3 55 1.6 54.4 C 2 53.7 2.5 53.2 3.1 52.8 C 3.7 52.4 4.4 52.1 5.2 51.9 C 6 51.7 6.8 51.5 7.7 51.4 C 8.7 51.3 9.5 51.2 10.1 51.1 C 10.7 51 11.2 50.9 11.5 50.7 C 11.8 50.5 11.9 50.2 11.9 49.9 C 11.9 49.9 11.9 49.8 11.9 49.8 C 11.9 49.1 11.7 48.5 11.2 48.1 C 10.8 47.7 10.1 47.5 9.3 47.5 C 8.4 47.5 7.7 47.7 7.2 48.1 C 6.7 48.5 6.4 49 6.2 49.5 C 6.2 49.5 1.7 49.2 1.7 49.2 C 2 48.1 2.4 47.2 3.1 46.4 C 3.7 45.6 4.6 45 5.7 44.6 C 6.7 44.2 7.9 44 9.3 44 C 10.3 44 11.2 44.1 12.1 44.3 C 13 44.6 13.8 44.9 14.5 45.4 C 15.2 45.9 15.7 46.5 16.1 47.2 C 16.5 48 16.7 48.9 16.7 49.9 C 16.74 49.9 16.7 61.7 16.7 61.7 L 12.1 61.7 L 12.1 59.3 C 12.1 59.3 12.01 59.25 12 59.3 C 11.7 59.8 11.4 60.3 10.9 60.7 C 10.4 61.1 9.9 61.4 9.2 61.7 C 8.5 61.9 7.8 62 6.9 62 Z M 8.3 58.7 C 9 58.7 9.6 58.5 10.2 58.2 C 10.7 58 11.2 57.6 11.5 57.1 C 11.8 56.6 11.9 56 11.9 55.4 C 11.9 55.4 11.9 53.6 11.9 53.6 C 11.8 53.7 11.6 53.8 11.3 53.8 C 11.1 53.9 10.8 54 10.4 54.1 C 10.1 54.1 9.8 54.2 9.5 54.2 C 9.1 54.3 8.8 54.3 8.6 54.4 C 8 54.4 7.5 54.6 7.1 54.8 C 6.7 54.9 6.3 55.2 6.1 55.5 C 5.9 55.8 5.7 56.2 5.7 56.6 C 5.7 57.3 6 57.8 6.5 58.1 C 6.9 58.5 7.6 58.7 8.3 58.7 Z M 20.6 68.2 L 20.6 44.2 L 25.3 44.2 L 25.3 47.2 C 25.3 47.2 25.55 47.15 25.5 47.2 C 25.8 46.7 26.1 46.2 26.5 45.7 C 26.9 45.2 27.4 44.8 28.1 44.5 C 28.7 44.2 29.5 44 30.5 44 C 31.8 44 33 44.3 34 45 C 35.1 45.6 36 46.6 36.6 48 C 37.3 49.3 37.6 51 37.6 53 C 37.6 54.9 37.3 56.6 36.6 57.9 C 36 59.2 35.2 60.2 34.1 60.9 C 33 61.6 31.8 62 30.5 62 C 29.6 62 28.8 61.8 28.1 61.5 C 27.5 61.2 26.9 60.8 26.5 60.3 C 26.1 59.8 25.8 59.4 25.5 58.9 C 25.55 58.88 25.4 58.9 25.4 58.9 L 25.4 68.2 L 20.6 68.2 Z M 25.3 52.9 C 25.3 54 25.4 54.9 25.7 55.7 C 26 56.4 26.4 57 27 57.5 C 27.5 57.9 28.2 58.1 29 58.1 C 29.8 58.1 30.4 57.9 31 57.5 C 31.5 57 31.9 56.4 32.2 55.6 C 32.5 54.9 32.6 54 32.6 52.9 C 32.6 51.9 32.5 51.1 32.2 50.3 C 31.9 49.5 31.5 48.9 31 48.5 C 30.4 48.1 29.8 47.8 29 47.8 C 28.2 47.8 27.5 48.1 27 48.5 C 26.4 48.9 26 49.5 25.7 50.2 C 25.4 51 25.3 51.9 25.3 52.9 Z M 40.8 68.2 L 40.8 44.2 L 45.6 44.2 L 45.6 47.2 C 45.6 47.2 45.77 47.15 45.8 47.2 C 46 46.7 46.3 46.2 46.7 45.7 C 47.1 45.2 47.6 44.8 48.3 44.5 C 48.9 44.2 49.8 44 50.7 44 C 52 44 53.2 44.3 54.3 45 C 55.3 45.6 56.2 46.6 56.8 48 C 57.5 49.3 57.8 51 57.8 53 C 57.8 54.9 57.5 56.6 56.9 57.9 C 56.2 59.2 55.4 60.2 54.3 60.9 C 53.3 61.6 52.1 62 50.7 62 C 49.8 62 49 61.8 48.3 61.5 C 47.7 61.2 47.1 60.8 46.7 60.3 C 46.3 59.8 46 59.4 45.8 58.9 C 45.77 58.88 45.6 58.9 45.6 58.9 L 45.6 68.2 L 40.8 68.2 Z M 45.5 52.9 C 45.5 54 45.7 54.9 46 55.7 C 46.2 56.4 46.7 57 47.2 57.5 C 47.8 57.9 48.4 58.1 49.2 58.1 C 50 58.1 50.6 57.9 51.2 57.5 C 51.7 57 52.2 56.4 52.4 55.6 C 52.7 54.9 52.9 54 52.9 52.9 C 52.9 51.9 52.7 51.1 52.4 50.3 C 52.2 49.5 51.8 48.9 51.2 48.5 C 50.7 48.1 50 47.8 49.2 47.8 C 48.4 47.8 47.7 48.1 47.2 48.5 C 46.7 48.9 46.2 49.5 46 50.2 C 45.7 51 45.5 51.9 45.5 52.9 Z M 65.9 38.4 L 65.9 61.7 L 61 61.7 L 61 38.4 L 65.9 38.4 Z M 69.8 61.7 L 69.8 44.2 L 74.6 44.2 L 74.6 61.7 L 69.8 61.7 Z M 72.2 42 C 71.5 42 70.9 41.7 70.4 41.3 C 69.8 40.8 69.6 40.2 69.6 39.5 C 69.6 38.9 69.8 38.3 70.4 37.8 C 70.9 37.3 71.5 37.1 72.2 37.1 C 72.9 37.1 73.5 37.3 74 37.8 C 74.6 38.3 74.8 38.8 74.8 39.5 C 74.8 40.2 74.6 40.8 74 41.2 C 73.5 41.7 72.9 42 72.2 42 Z M 86.3 62 C 84.5 62 82.9 61.6 81.7 60.9 C 80.4 60.1 79.4 59.1 78.7 57.7 C 78 56.3 77.7 54.8 77.7 53 C 77.7 51.2 78 49.7 78.7 48.3 C 79.4 47 80.4 45.9 81.7 45.1 C 83 44.4 84.5 44 86.2 44 C 87.8 44 89.1 44.3 90.2 44.8 C 91.4 45.4 92.3 46.2 93 47.2 C 93.6 48.2 94 49.3 94.1 50.7 C 94.1 50.7 89.5 50.7 89.5 50.7 C 89.4 49.8 89 49.1 88.5 48.6 C 87.9 48 87.2 47.8 86.3 47.8 C 85.6 47.8 84.9 48 84.4 48.4 C 83.8 48.8 83.4 49.4 83.1 50.1 C 82.7 50.9 82.6 51.8 82.6 52.9 C 82.6 54.1 82.7 55 83.1 55.8 C 83.4 56.6 83.8 57.2 84.4 57.6 C 84.9 58 85.6 58.2 86.3 58.2 C 86.9 58.2 87.4 58.1 87.8 57.8 C 88.3 57.6 88.6 57.3 88.9 56.8 C 89.2 56.4 89.4 55.9 89.5 55.3 C 89.5 55.3 94.1 55.3 94.1 55.3 C 94 56.6 93.6 57.8 93 58.8 C 92.3 59.8 91.4 60.6 90.3 61.2 C 89.2 61.7 87.8 62 86.3 62 Z M 102 62 C 100.9 62 99.9 61.8 99 61.4 C 98.2 61 97.5 60.4 97 59.7 C 96.5 58.9 96.2 57.9 96.2 56.8 C 96.2 55.8 96.4 55 96.7 54.4 C 97.1 53.7 97.6 53.2 98.2 52.8 C 98.8 52.4 99.5 52.1 100.3 51.9 C 101.1 51.7 101.9 51.5 102.8 51.4 C 103.8 51.3 104.6 51.2 105.2 51.1 C 105.8 51 106.3 50.9 106.6 50.7 C 106.9 50.5 107 50.2 107 49.9 C 107 49.9 107 49.8 107 49.8 C 107 49.1 106.8 48.5 106.3 48.1 C 105.9 47.7 105.2 47.5 104.4 47.5 C 103.5 47.5 102.8 47.7 102.3 48.1 C 101.8 48.5 101.5 49 101.3 49.5 C 101.3 49.5 96.8 49.2 96.8 49.2 C 97.1 48.1 97.5 47.2 98.2 46.4 C 98.8 45.6 99.7 45 100.8 44.6 C 101.8 44.2 103 44 104.4 44 C 105.4 44 106.3 44.1 107.2 44.3 C 108.1 44.6 108.9 44.9 109.6 45.4 C 110.3 45.9 110.8 46.5 111.2 47.2 C 111.6 48 111.8 48.9 111.8 49.9 C 111.84 49.9 111.8 61.7 111.8 61.7 L 107.2 61.7 L 107.2 59.3 C 107.2 59.3 107.11 59.25 107.1 59.3 C 106.8 59.8 106.5 60.3 106 60.7 C 105.5 61.1 105 61.4 104.3 61.7 C 103.6 61.9 102.9 62 102 62 Z M 103.4 58.7 C 104.1 58.7 104.7 58.5 105.3 58.2 C 105.8 58 106.3 57.6 106.6 57.1 C 106.9 56.6 107 56 107 55.4 C 107 55.4 107 53.6 107 53.6 C 106.9 53.7 106.7 53.8 106.4 53.8 C 106.2 53.9 105.9 54 105.5 54.1 C 105.2 54.1 104.9 54.2 104.6 54.2 C 104.2 54.3 103.9 54.3 103.7 54.4 C 103.1 54.4 102.6 54.6 102.2 54.8 C 101.8 54.9 101.4 55.2 101.2 55.5 C 101 55.8 100.8 56.2 100.8 56.6 C 100.8 57.3 101.1 57.8 101.6 58.1 C 102 58.5 102.7 58.7 103.4 58.7 Z M 124.5 44.2 L 124.5 47.9 L 114 47.9 L 114 44.2 L 124.5 44.2 Z M 116.4 40 L 121.2 40 C 121.2 40 121.25 56.31 121.2 56.3 C 121.2 56.8 121.3 57.1 121.4 57.3 C 121.6 57.6 121.8 57.8 122 57.9 C 122.3 58 122.6 58 122.9 58 C 123.1 58 123.3 58 123.6 58 C 123.8 57.9 124 57.9 124.1 57.9 C 124.1 57.9 124.8 61.5 124.8 61.5 C 124.6 61.5 124.3 61.6 123.8 61.7 C 123.4 61.8 122.9 61.9 122.2 61.9 C 121.1 62 120 61.8 119.2 61.4 C 118.3 61.1 117.6 60.5 117.1 59.8 C 116.6 59 116.4 58.1 116.4 56.9 C 116.4 56.95 116.4 40 116.4 40 Z M 127.5 61.7 L 127.5 44.2 L 132.4 44.2 L 132.4 61.7 L 127.5 61.7 Z M 130 42 C 129.3 42 128.6 41.7 128.1 41.3 C 127.6 40.8 127.4 40.2 127.4 39.5 C 127.4 38.9 127.6 38.3 128.1 37.8 C 128.6 37.3 129.3 37.1 130 37.1 C 130.7 37.1 131.3 37.3 131.8 37.8 C 132.3 38.3 132.6 38.8 132.6 39.5 C 132.6 40.2 132.3 40.8 131.8 41.2 C 131.3 41.7 130.7 42 130 42 Z M 144 62 C 142.3 62 140.7 61.6 139.5 60.9 C 138.2 60.1 137.2 59.1 136.5 57.7 C 135.8 56.4 135.4 54.8 135.4 53 C 135.4 51.2 135.8 49.6 136.5 48.3 C 137.2 46.9 138.2 45.9 139.5 45.1 C 140.7 44.4 142.3 44 144 44 C 145.8 44 147.3 44.4 148.6 45.1 C 149.9 45.9 150.9 46.9 151.6 48.3 C 152.3 49.6 152.6 51.2 152.6 53 C 152.6 54.8 152.3 56.4 151.6 57.7 C 150.9 59.1 149.9 60.1 148.6 60.9 C 147.3 61.6 145.8 62 144 62 Z M 144.1 58.3 C 144.9 58.3 145.5 58 146.1 57.6 C 146.6 57.1 147 56.5 147.3 55.7 C 147.6 54.9 147.7 54 147.7 53 C 147.7 52 147.6 51.1 147.3 50.3 C 147 49.5 146.6 48.8 146.1 48.4 C 145.5 47.9 144.9 47.7 144.1 47.7 C 143.2 47.7 142.6 47.9 142 48.4 C 141.5 48.8 141.1 49.5 140.8 50.3 C 140.5 51.1 140.4 52 140.4 53 C 140.4 54 140.5 54.9 140.8 55.7 C 141.1 56.5 141.5 57.1 142 57.6 C 142.6 58 143.2 58.3 144.1 58.3 Z M 160.5 51.6 C 160.54 51.58 160.5 61.7 160.5 61.7 L 155.7 61.7 L 155.7 44.2 L 160.3 44.2 L 160.3 47.3 C 160.3 47.3 160.52 47.3 160.5 47.3 C 160.9 46.3 161.5 45.5 162.5 44.9 C 163.4 44.3 164.5 44 165.8 44 C 167 44 168 44.3 168.9 44.8 C 169.8 45.3 170.5 46.1 171 47.1 C 171.5 48 171.8 49.2 171.8 50.6 C 171.79 50.56 171.8 61.7 171.8 61.7 L 166.9 61.7 C 166.9 61.7 166.95 51.42 166.9 51.4 C 167 50.4 166.7 49.5 166.1 48.9 C 165.6 48.3 164.8 48 163.8 48 C 163.2 48 162.6 48.2 162.1 48.4 C 161.6 48.7 161.2 49.1 161 49.7 C 160.7 50.2 160.5 50.8 160.5 51.6 Z " stroke="none" fill="#ffffff"/>  </g>  <g id="Polygon118752">    <path d="M 16.4 0 L 21.3 0 C 21.3 0 21.32 15.11 21.3 15.1 C 21.3 16.8 20.9 18.3 20.1 19.6 C 19.3 20.8 18.2 21.8 16.7 22.5 C 15.3 23.2 13.6 23.6 11.7 23.6 C 9.7 23.6 8 23.2 6.6 22.5 C 5.2 21.8 4 20.8 3.2 19.6 C 2.4 18.3 2 16.8 2 15.1 C 2.02 15.11 2 0 2 0 L 6.9 0 C 6.9 0 6.94 14.69 6.9 14.7 C 6.9 15.6 7.1 16.4 7.5 17.1 C 7.9 17.7 8.5 18.3 9.2 18.7 C 9.9 19.1 10.7 19.3 11.7 19.3 C 12.6 19.3 13.5 19.1 14.2 18.7 C 14.9 18.3 15.4 17.7 15.8 17.1 C 16.2 16.4 16.4 15.6 16.4 14.7 C 16.4 14.69 16.4 0 16.4 0 Z M 30.3 13.2 C 30.26 13.18 30.3 23.3 30.3 23.3 L 25.4 23.3 L 25.4 5.8 L 30 5.8 L 30 8.9 C 30 8.9 30.23 8.9 30.2 8.9 C 30.6 7.9 31.3 7.1 32.2 6.5 C 33.1 5.9 34.2 5.6 35.5 5.6 C 36.7 5.6 37.8 5.9 38.7 6.4 C 39.6 6.9 40.3 7.7 40.8 8.7 C 41.3 9.6 41.5 10.8 41.5 12.2 C 41.51 12.16 41.5 23.3 41.5 23.3 L 36.7 23.3 C 36.7 23.3 36.67 13.02 36.7 13 C 36.7 12 36.4 11.1 35.8 10.5 C 35.3 9.9 34.5 9.6 33.6 9.6 C 32.9 9.6 32.3 9.8 31.8 10 C 31.3 10.3 31 10.7 30.7 11.3 C 30.4 11.8 30.3 12.4 30.3 13.2 Z M 53.1 23.6 C 51.3 23.6 49.8 23.2 48.5 22.5 C 47.2 21.7 46.2 20.7 45.5 19.3 C 44.8 17.9 44.5 16.4 44.5 14.6 C 44.5 12.8 44.8 11.3 45.5 9.9 C 46.2 8.6 47.2 7.5 48.5 6.7 C 49.8 6 51.3 5.6 53.1 5.6 C 54.6 5.6 55.9 5.9 57.1 6.4 C 58.2 7 59.1 7.8 59.8 8.8 C 60.4 9.8 60.8 10.9 60.9 12.3 C 60.9 12.3 56.3 12.3 56.3 12.3 C 56.2 11.4 55.8 10.7 55.3 10.2 C 54.7 9.6 54 9.4 53.1 9.4 C 52.4 9.4 51.7 9.6 51.2 10 C 50.6 10.4 50.2 11 49.9 11.7 C 49.6 12.5 49.4 13.4 49.4 14.5 C 49.4 15.7 49.6 16.6 49.9 17.4 C 50.2 18.2 50.6 18.8 51.2 19.2 C 51.7 19.6 52.4 19.8 53.1 19.8 C 53.7 19.8 54.2 19.7 54.6 19.4 C 55.1 19.2 55.5 18.9 55.7 18.4 C 56 18 56.2 17.5 56.3 16.9 C 56.3 16.9 60.9 16.9 60.9 16.9 C 60.8 18.2 60.4 19.4 59.8 20.4 C 59.2 21.4 58.3 22.2 57.1 22.8 C 56 23.3 54.6 23.6 53.1 23.6 Z M 68.8 0 L 68.8 23.3 L 64 23.3 L 64 0 L 68.8 0 Z M 80.6 23.6 C 78.8 23.6 77.2 23.2 75.9 22.5 C 74.7 21.8 73.7 20.7 73 19.4 C 72.3 18.1 71.9 16.5 71.9 14.6 C 71.9 12.8 72.3 11.3 73 9.9 C 73.7 8.5 74.6 7.5 75.9 6.7 C 77.2 6 78.7 5.6 80.4 5.6 C 81.5 5.6 82.6 5.8 83.6 6.1 C 84.6 6.5 85.5 7.1 86.2 7.8 C 87 8.5 87.5 9.5 88 10.6 C 88.4 11.7 88.6 13 88.6 14.5 C 88.58 14.45 88.6 15.8 88.6 15.8 L 73.8 15.8 L 73.8 12.8 C 73.8 12.8 84.03 12.78 84 12.8 C 84 12.1 83.9 11.5 83.6 10.9 C 83.3 10.4 82.9 10 82.3 9.7 C 81.8 9.4 81.2 9.2 80.5 9.2 C 79.7 9.2 79.1 9.4 78.5 9.7 C 77.9 10 77.5 10.5 77.2 11.1 C 76.9 11.6 76.7 12.3 76.7 12.9 C 76.7 12.9 76.7 15.8 76.7 15.8 C 76.7 16.7 76.9 17.4 77.2 18 C 77.5 18.7 78 19.1 78.6 19.5 C 79.1 19.8 79.8 20 80.7 20 C 81.2 20 81.7 19.9 82.1 19.8 C 82.6 19.6 83 19.4 83.3 19.1 C 83.6 18.8 83.8 18.4 84 18 C 84 18 88.5 18.3 88.5 18.3 C 88.3 19.3 87.8 20.3 87.1 21.1 C 86.4 21.9 85.5 22.5 84.4 22.9 C 83.3 23.4 82 23.6 80.6 23.6 Z M 96.5 23.6 C 95.4 23.6 94.4 23.4 93.6 23 C 92.7 22.6 92 22 91.5 21.3 C 91 20.5 90.7 19.5 90.7 18.4 C 90.7 17.4 90.9 16.6 91.3 16 C 91.6 15.3 92.1 14.8 92.7 14.4 C 93.3 14 94 13.7 94.8 13.5 C 95.6 13.3 96.4 13.1 97.3 13 C 98.3 12.9 99.1 12.8 99.8 12.7 C 100.4 12.6 100.8 12.5 101.1 12.3 C 101.4 12.1 101.5 11.8 101.5 11.5 C 101.5 11.5 101.5 11.4 101.5 11.4 C 101.5 10.7 101.3 10.1 100.9 9.7 C 100.4 9.3 99.8 9.1 98.9 9.1 C 98.1 9.1 97.4 9.3 96.9 9.7 C 96.3 10.1 96 10.6 95.8 11.1 C 95.8 11.1 91.4 10.8 91.4 10.8 C 91.6 9.7 92 8.8 92.7 8 C 93.4 7.2 94.2 6.6 95.3 6.2 C 96.3 5.8 97.6 5.6 99 5.6 C 99.9 5.6 100.9 5.7 101.8 5.9 C 102.6 6.2 103.4 6.5 104.1 7 C 104.8 7.5 105.4 8.1 105.8 8.8 C 106.2 9.6 106.4 10.5 106.4 11.5 C 106.37 11.5 106.4 23.3 106.4 23.3 L 101.8 23.3 L 101.8 20.9 C 101.8 20.9 101.64 20.85 101.6 20.9 C 101.4 21.4 101 21.9 100.5 22.3 C 100 22.7 99.5 23 98.8 23.3 C 98.2 23.5 97.4 23.6 96.5 23.6 Z M 97.9 20.3 C 98.6 20.3 99.3 20.1 99.8 19.8 C 100.4 19.6 100.8 19.2 101.1 18.7 C 101.4 18.2 101.6 17.6 101.6 17 C 101.6 17 101.6 15.2 101.6 15.2 C 101.4 15.3 101.2 15.4 100.9 15.4 C 100.7 15.5 100.4 15.6 100.1 15.7 C 99.7 15.7 99.4 15.8 99.1 15.8 C 98.8 15.9 98.5 15.9 98.2 16 C 97.6 16 97.1 16.2 96.7 16.4 C 96.3 16.5 96 16.8 95.7 17.1 C 95.5 17.4 95.4 17.8 95.4 18.2 C 95.4 18.9 95.6 19.4 96.1 19.7 C 96.6 20.1 97.2 20.3 97.9 20.3 Z M 110.2 23.3 L 110.2 5.8 L 114.9 5.8 L 114.9 8.9 C 114.9 8.9 115.06 8.86 115.1 8.9 C 115.4 7.8 115.9 7 116.7 6.4 C 117.4 5.8 118.3 5.6 119.3 5.6 C 119.5 5.6 119.8 5.6 120 5.6 C 120.3 5.6 120.6 5.7 120.8 5.7 C 120.8 5.7 120.8 10 120.8 10 C 120.6 10 120.2 9.9 119.8 9.9 C 119.4 9.8 119.1 9.8 118.7 9.8 C 118 9.8 117.4 9.9 116.8 10.2 C 116.3 10.5 115.8 11 115.5 11.5 C 115.2 12.1 115 12.7 115 13.4 C 115.03 13.4 115 23.3 115 23.3 L 110.2 23.3 Z " stroke="none" fill="#ffffff"/>  </g></svg>