<?xml version="1.0" standalone="no"?><!DOCTYPE svg PUBLIC "-//W3C//DTD SVG 1.1//EN" "http://www.w3.org/Graphics/SVG/1.1/DTD/svg11.dtd"><svg xmlns="http://www.w3.org/2000/svg" version="1.1" width="300px" height="115.7px" viewBox="0 -16 300 115.7" style="top:-16px">  <desc>Everyone’s talking about it.</desc>  <defs/>  <g id="Polygon108142">    <path d="M 19.2 55.3 L 19.2 58.1 L 7.9 58.1 L 7.9 55.3 L 19.2 55.3 Z M 11.2 50 L 14.6 50 C 14.6 50 14.56 70.84 14.6 70.8 C 14.6 71.8 14.7 72.5 15 73 C 15.3 73.4 15.6 73.7 16.1 73.9 C 16.5 74.1 17 74.1 17.5 74.1 C 17.8 74.1 18.1 74.1 18.4 74.1 C 18.6 74 18.8 74 18.9 74 C 18.9 74 19.6 77 19.6 77 C 19.4 77.1 19.1 77.1 18.7 77.2 C 18.3 77.3 17.7 77.4 17.1 77.4 C 16.2 77.4 15.2 77.2 14.3 76.8 C 13.4 76.4 12.7 75.7 12.1 74.9 C 11.5 74.1 11.2 73 11.2 71.8 C 11.21 71.75 11.2 50 11.2 50 Z M 30 77.6 C 28.6 77.6 27.4 77.3 26.2 76.8 C 25.1 76.3 24.2 75.5 23.5 74.5 C 22.9 73.5 22.5 72.3 22.5 70.9 C 22.5 69.6 22.8 68.6 23.3 67.9 C 23.8 67.1 24.4 66.5 25.3 66 C 26.1 65.6 27 65.2 28 65 C 29 64.8 30 64.6 31 64.5 C 32.3 64.3 33.4 64.2 34.2 64.1 C 35.1 64 35.7 63.8 36.1 63.6 C 36.4 63.4 36.6 63 36.6 62.5 C 36.6 62.5 36.6 62.4 36.6 62.4 C 36.6 61 36.3 59.9 35.5 59.1 C 34.7 58.3 33.6 57.9 32 57.9 C 30.4 57.9 29.2 58.3 28.3 59 C 27.4 59.7 26.7 60.4 26.4 61.2 C 26.4 61.2 23.2 60.1 23.2 60.1 C 23.7 58.8 24.5 57.7 25.5 57 C 26.4 56.3 27.4 55.7 28.6 55.4 C 29.7 55.1 30.8 55 31.9 55 C 32.6 55 33.4 55.1 34.3 55.2 C 35.3 55.4 36.1 55.7 37 56.3 C 37.9 56.8 38.6 57.5 39.1 58.6 C 39.7 59.6 40 61 40 62.7 C 39.99 62.72 40 77.1 40 77.1 L 36.6 77.1 L 36.6 74.1 C 36.6 74.1 36.47 74.14 36.5 74.1 C 36.2 74.6 35.9 75.1 35.3 75.7 C 34.8 76.2 34.1 76.7 33.2 77 C 32.3 77.4 31.3 77.6 30 77.6 Z M 30.5 74.6 C 31.8 74.6 32.9 74.3 33.9 73.8 C 34.8 73.3 35.5 72.6 35.9 71.8 C 36.4 71 36.6 70.1 36.6 69.2 C 36.6 69.2 36.6 66.1 36.6 66.1 C 36.5 66.3 36.2 66.4 35.7 66.6 C 35.2 66.7 34.7 66.8 34.1 66.9 C 33.4 67 32.8 67.1 32.3 67.2 C 31.7 67.3 31.2 67.3 30.8 67.4 C 30 67.5 29.2 67.7 28.4 67.9 C 27.7 68.2 27 68.5 26.6 69 C 26.1 69.5 25.9 70.2 25.9 71.1 C 25.9 72.2 26.3 73.1 27.2 73.7 C 28.1 74.3 29.2 74.6 30.5 74.6 Z M 49.1 48 L 49.1 77.1 L 45.8 77.1 L 45.8 48 L 49.1 48 Z M 58 69.1 L 58 65 L 58.6 65 L 68.2 55.3 L 72.3 55.3 L 62.2 65.6 L 61.9 65.6 L 58 69.1 Z M 54.9 77.1 L 54.9 48 L 58.3 48 L 58.3 77.1 L 54.9 77.1 Z M 68.8 77.1 L 60.2 66.3 L 62.6 64 L 73 77.1 L 68.8 77.1 Z M 76.5 77.1 L 76.5 55.3 L 79.9 55.3 L 79.9 77.1 L 76.5 77.1 Z M 78.2 51.6 C 77.6 51.6 77 51.4 76.5 51 C 76.1 50.5 75.8 50 75.8 49.4 C 75.8 48.7 76.1 48.2 76.5 47.8 C 77 47.3 77.6 47.1 78.2 47.1 C 78.9 47.1 79.4 47.3 79.9 47.8 C 80.4 48.2 80.6 48.7 80.6 49.4 C 80.6 50 80.4 50.5 79.9 51 C 79.4 51.4 78.9 51.6 78.2 51.6 Z M 89 64 C 89.02 63.97 89 77.1 89 77.1 L 85.7 77.1 L 85.7 55.3 L 88.9 55.3 L 88.9 58.7 C 88.9 58.7 89.19 58.68 89.2 58.7 C 89.7 57.6 90.5 56.7 91.5 56 C 92.6 55.3 93.9 55 95.6 55 C 97 55 98.3 55.3 99.4 55.9 C 100.5 56.5 101.4 57.4 102 58.6 C 102.6 59.8 102.9 61.4 102.9 63.2 C 102.94 63.23 102.9 77.1 102.9 77.1 L 99.6 77.1 C 99.6 77.1 99.59 63.45 99.6 63.5 C 99.6 61.7 99.1 60.4 98.3 59.4 C 97.4 58.5 96.1 58 94.6 58 C 93.5 58 92.6 58.2 91.7 58.7 C 90.9 59.2 90.2 59.8 89.7 60.7 C 89.3 61.6 89 62.7 89 64 Z M 117.4 85.7 C 115.8 85.7 114.4 85.5 113.2 85.1 C 112 84.7 111.1 84.2 110.3 83.5 C 109.5 82.8 108.9 82.1 108.5 81.4 C 108.5 81.4 111.1 79.5 111.1 79.5 C 111.4 79.9 111.8 80.3 112.3 80.8 C 112.8 81.4 113.4 81.8 114.2 82.2 C 115 82.6 116.1 82.8 117.4 82.8 C 119.1 82.8 120.6 82.3 121.7 81.5 C 122.9 80.6 123.5 79.3 123.5 77.5 C 123.47 77.49 123.5 73.1 123.5 73.1 C 123.5 73.1 123.18 73.06 123.2 73.1 C 122.9 73.5 122.6 73.9 122.1 74.5 C 121.7 75.1 121 75.6 120.2 76.1 C 119.4 76.5 118.2 76.8 116.8 76.8 C 115.1 76.8 113.5 76.3 112.1 75.5 C 110.7 74.7 109.6 73.5 108.8 71.9 C 108 70.3 107.6 68.3 107.6 66.1 C 107.6 63.8 108 61.9 108.7 60.2 C 109.5 58.6 110.6 57.3 112 56.4 C 113.4 55.4 115 55 116.9 55 C 118.3 55 119.4 55.2 120.3 55.7 C 121.1 56.2 121.7 56.7 122.2 57.3 C 122.6 57.9 123 58.4 123.2 58.7 C 123.24 58.74 123.6 58.7 123.6 58.7 L 123.6 55.3 L 126.8 55.3 C 126.8 55.3 126.82 77.72 126.8 77.7 C 126.8 79.6 126.4 81.1 125.5 82.3 C 124.7 83.5 123.6 84.3 122.1 84.9 C 120.7 85.5 119.1 85.7 117.4 85.7 Z M 117.3 73.7 C 118.6 73.7 119.8 73.4 120.7 72.8 C 121.6 72.2 122.3 71.3 122.8 70.2 C 123.3 69 123.5 67.6 123.5 66 C 123.5 64.4 123.3 63.1 122.8 61.8 C 122.3 60.6 121.6 59.7 120.7 59 C 119.8 58.3 118.6 58 117.3 58 C 115.9 58 114.7 58.4 113.7 59.1 C 112.8 59.8 112.1 60.8 111.6 62 C 111.1 63.2 110.9 64.5 110.9 66 C 110.9 67.5 111.1 68.9 111.6 70 C 112.1 71.2 112.8 72.1 113.8 72.8 C 114.7 73.4 115.9 73.7 117.3 73.7 Z M 150.6 77.6 C 149.2 77.6 148 77.3 146.9 76.8 C 145.7 76.3 144.8 75.5 144.2 74.5 C 143.5 73.5 143.2 72.3 143.2 70.9 C 143.2 69.6 143.4 68.6 143.9 67.9 C 144.4 67.1 145.1 66.5 145.9 66 C 146.7 65.6 147.6 65.2 148.6 65 C 149.6 64.8 150.6 64.6 151.6 64.5 C 153 64.3 154.1 64.2 154.9 64.1 C 155.7 64 156.3 63.8 156.7 63.6 C 157.1 63.4 157.3 63 157.3 62.5 C 157.3 62.5 157.3 62.4 157.3 62.4 C 157.3 61 156.9 59.9 156.1 59.1 C 155.4 58.3 154.2 57.9 152.7 57.9 C 151.1 57.9 149.8 58.3 148.9 59 C 148 59.7 147.4 60.4 147 61.2 C 147 61.2 143.8 60.1 143.8 60.1 C 144.4 58.8 145.1 57.7 146.1 57 C 147 56.3 148.1 55.7 149.2 55.4 C 150.3 55.1 151.5 55 152.6 55 C 153.3 55 154.1 55.1 155 55.2 C 155.9 55.4 156.8 55.7 157.6 56.3 C 158.5 56.8 159.2 57.5 159.8 58.6 C 160.3 59.6 160.6 61 160.6 62.7 C 160.63 62.72 160.6 77.1 160.6 77.1 L 157.3 77.1 L 157.3 74.1 C 157.3 74.1 157.1 74.14 157.1 74.1 C 156.9 74.6 156.5 75.1 156 75.7 C 155.4 76.2 154.7 76.7 153.9 77 C 153 77.4 151.9 77.6 150.6 77.6 Z M 151.1 74.6 C 152.5 74.6 153.6 74.3 154.5 73.8 C 155.4 73.3 156.1 72.6 156.6 71.8 C 157 71 157.3 70.1 157.3 69.2 C 157.3 69.2 157.3 66.1 157.3 66.1 C 157.1 66.3 156.8 66.4 156.3 66.6 C 155.9 66.7 155.3 66.8 154.7 66.9 C 154.1 67 153.5 67.1 152.9 67.2 C 152.3 67.3 151.8 67.3 151.5 67.4 C 150.6 67.5 149.8 67.7 149 67.9 C 148.3 68.2 147.7 68.5 147.2 69 C 146.8 69.5 146.5 70.2 146.5 71.1 C 146.5 72.2 147 73.1 147.8 73.7 C 148.7 74.3 149.8 74.6 151.1 74.6 Z M 166.6 77.1 L 166.6 48 L 169.9 48 L 169.9 58.7 C 169.9 58.7 170.23 58.74 170.2 58.7 C 170.5 58.4 170.8 57.9 171.3 57.3 C 171.7 56.7 172.3 56.2 173.2 55.7 C 174 55.2 175.1 55 176.5 55 C 178.4 55 180 55.4 181.4 56.4 C 182.8 57.3 183.9 58.6 184.7 60.3 C 185.5 62 185.9 63.9 185.9 66.2 C 185.9 68.5 185.5 70.5 184.7 72.2 C 183.9 73.9 182.8 75.2 181.4 76.2 C 180 77.1 178.4 77.5 176.6 77.5 C 175.2 77.5 174.1 77.3 173.2 76.8 C 172.4 76.4 171.7 75.8 171.3 75.2 C 170.8 74.6 170.5 74.1 170.2 73.7 C 170.23 73.74 169.8 73.7 169.8 73.7 L 169.8 77.1 L 166.6 77.1 Z M 169.9 66.2 C 169.9 67.8 170.1 69.3 170.6 70.5 C 171.1 71.8 171.8 72.8 172.7 73.5 C 173.7 74.2 174.8 74.5 176.1 74.5 C 177.5 74.5 178.7 74.2 179.6 73.4 C 180.6 72.7 181.3 71.7 181.8 70.4 C 182.3 69.1 182.5 67.7 182.5 66.2 C 182.5 64.6 182.3 63.3 181.8 62 C 181.3 60.8 180.6 59.8 179.7 59.1 C 178.7 58.4 177.6 58 176.1 58 C 174.8 58 173.6 58.3 172.7 59 C 171.8 59.7 171.1 60.7 170.6 61.9 C 170.1 63.1 169.9 64.6 169.9 66.2 Z M 199.4 77.5 C 197.5 77.5 195.7 77.1 194.3 76.1 C 192.8 75.2 191.6 73.9 190.8 72.2 C 190 70.5 189.5 68.5 189.5 66.3 C 189.5 64 190 62 190.8 60.3 C 191.6 58.6 192.8 57.3 194.3 56.4 C 195.7 55.5 197.5 55 199.4 55 C 201.4 55 203.1 55.5 204.6 56.4 C 206.1 57.3 207.2 58.6 208.1 60.3 C 208.9 62 209.3 64 209.3 66.3 C 209.3 68.5 208.9 70.5 208.1 72.2 C 207.2 73.9 206.1 75.2 204.6 76.1 C 203.1 77.1 201.4 77.5 199.4 77.5 Z M 199.4 74.5 C 200.9 74.5 202.2 74.2 203.1 73.4 C 204.1 72.6 204.8 71.6 205.3 70.4 C 205.7 69.1 206 67.8 206 66.3 C 206 64.8 205.7 63.5 205.3 62.2 C 204.8 61 204.1 59.9 203.1 59.2 C 202.2 58.4 200.9 58 199.4 58 C 197.9 58 196.7 58.4 195.7 59.2 C 194.8 59.9 194.1 61 193.6 62.2 C 193.1 63.5 192.9 64.8 192.9 66.3 C 192.9 67.8 193.1 69.1 193.6 70.4 C 194.1 71.6 194.8 72.6 195.7 73.4 C 196.7 74.2 197.9 74.5 199.4 74.5 Z M 227.7 68.2 C 227.69 68.17 227.7 55.3 227.7 55.3 L 231 55.3 L 231 77.1 L 227.7 77.1 L 227.7 73.4 C 227.7 73.4 227.47 73.4 227.5 73.4 C 227 74.5 226.2 75.4 225.1 76.2 C 224 77 222.6 77.4 221 77.4 C 219.6 77.4 218.4 77.1 217.4 76.5 C 216.3 75.9 215.5 75 214.9 73.7 C 214.2 72.5 213.9 71 213.9 69.1 C 213.94 69.14 213.9 55.3 213.9 55.3 L 217.3 55.3 C 217.3 55.3 217.3 68.91 217.3 68.9 C 217.3 70.5 217.7 71.8 218.6 72.7 C 219.5 73.7 220.7 74.1 222.1 74.1 C 222.9 74.1 223.8 73.9 224.6 73.5 C 225.5 73.1 226.2 72.4 226.8 71.5 C 227.4 70.7 227.7 69.5 227.7 68.2 Z M 246.2 55.3 L 246.2 58.1 L 234.9 58.1 L 234.9 55.3 L 246.2 55.3 Z M 238.2 50 L 241.5 50 C 241.5 50 241.51 70.84 241.5 70.8 C 241.5 71.8 241.6 72.5 241.9 73 C 242.2 73.4 242.6 73.7 243 73.9 C 243.4 74.1 243.9 74.1 244.4 74.1 C 244.8 74.1 245.1 74.1 245.3 74.1 C 245.6 74 245.7 74 245.9 74 C 245.9 74 246.6 77 246.6 77 C 246.3 77.1 246 77.1 245.6 77.2 C 245.2 77.3 244.7 77.4 244.1 77.4 C 243.1 77.4 242.2 77.2 241.3 76.8 C 240.4 76.4 239.6 75.7 239 74.9 C 238.5 74.1 238.2 73 238.2 71.8 C 238.15 71.75 238.2 50 238.2 50 Z M 262.5 77.1 L 262.5 55.3 L 265.8 55.3 L 265.8 77.1 L 262.5 77.1 Z M 264.2 51.6 C 263.5 51.6 263 51.4 262.5 51 C 262 50.5 261.8 50 261.8 49.4 C 261.8 48.7 262 48.2 262.5 47.8 C 263 47.3 263.5 47.1 264.2 47.1 C 264.8 47.1 265.4 47.3 265.9 47.8 C 266.3 48.2 266.6 48.7 266.6 49.4 C 266.6 50 266.3 50.5 265.9 51 C 265.4 51.4 264.8 51.6 264.2 51.6 Z M 280.9 55.3 L 280.9 58.1 L 269.6 58.1 L 269.6 55.3 L 280.9 55.3 Z M 272.9 50 L 276.3 50 C 276.3 50 276.28 70.84 276.3 70.8 C 276.3 71.8 276.4 72.5 276.7 73 C 277 73.4 277.3 73.7 277.8 73.9 C 278.2 74.1 278.7 74.1 279.2 74.1 C 279.5 74.1 279.8 74.1 280.1 74.1 C 280.3 74 280.5 74 280.7 74 C 280.7 74 281.3 77 281.3 77 C 281.1 77.1 280.8 77.1 280.4 77.2 C 280 77.3 279.5 77.4 278.8 77.4 C 277.9 77.4 277 77.2 276.1 76.8 C 275.2 76.4 274.4 75.7 273.8 74.9 C 273.2 74.1 272.9 73 272.9 71.8 C 272.93 71.75 272.9 50 272.9 50 Z M 287.8 77.3 C 287.1 77.3 286.5 77.1 286 76.6 C 285.5 76.1 285.3 75.5 285.3 74.8 C 285.3 74.1 285.5 73.5 286 73 C 286.5 72.5 287.1 72.2 287.8 72.2 C 288.5 72.2 289.1 72.5 289.6 73 C 290.1 73.5 290.4 74.1 290.4 74.8 C 290.4 75.2 290.3 75.7 290 76 C 289.8 76.4 289.5 76.7 289.1 77 C 288.7 77.2 288.3 77.3 287.8 77.3 Z " stroke="none" fill="#ffffff"/>  </g>  <g id="Polygon108141">    <path d="M 54.4 29.1 L 54.4 0 L 72 0 L 72 3.1 L 57.9 3.1 L 57.9 13 L 71 13 L 71 16.1 L 57.9 16.1 L 57.9 26 L 72.2 26 L 72.2 29.1 L 54.4 29.1 Z M 94 7.3 L 85.9 29.1 L 82.5 29.1 L 74.4 7.3 L 78.1 7.3 L 84.1 24.7 L 84.3 24.7 L 90.3 7.3 L 94 7.3 Z M 106.1 29.5 C 104 29.5 102.2 29.1 100.6 28.1 C 99.1 27.2 97.9 25.9 97.1 24.2 C 96.3 22.5 95.9 20.6 95.9 18.4 C 95.9 16.1 96.3 14.1 97.1 12.4 C 97.9 10.7 99.1 9.4 100.6 8.4 C 102 7.5 103.8 7 105.7 7 C 106.9 7 108 7.2 109.1 7.6 C 110.2 7.9 111.2 8.5 112.1 9.4 C 113 10.2 113.8 11.4 114.3 12.8 C 114.8 14.1 115.1 15.9 115.1 17.9 C 115.1 17.9 115.1 19.3 115.1 19.3 L 98.3 19.3 L 98.3 16.4 C 98.3 16.4 111.69 16.42 111.7 16.4 C 111.7 15.2 111.4 14.1 111 13.1 C 110.5 12.2 109.8 11.4 108.9 10.8 C 108 10.3 106.9 10 105.7 10 C 104.4 10 103.2 10.3 102.3 11 C 101.3 11.6 100.6 12.5 100 13.6 C 99.5 14.6 99.2 15.7 99.2 16.9 C 99.2 16.9 99.2 18.9 99.2 18.9 C 99.2 20.5 99.5 21.9 100.1 23 C 100.7 24.2 101.5 25.1 102.5 25.6 C 103.5 26.2 104.7 26.5 106.1 26.5 C 106.9 26.5 107.7 26.4 108.5 26.2 C 109.2 25.9 109.8 25.5 110.3 25 C 110.8 24.5 111.2 23.9 111.5 23.1 C 111.5 23.1 114.8 24 114.8 24 C 114.4 25.1 113.8 26.1 113 26.9 C 112.2 27.8 111.2 28.4 110.1 28.9 C 108.9 29.3 107.5 29.5 106.1 29.5 Z M 119.9 29.1 L 119.9 7.3 L 123.1 7.3 L 123.1 10.6 C 123.1 10.6 123.34 10.57 123.3 10.6 C 123.7 9.5 124.5 8.6 125.5 7.9 C 126.5 7.3 127.7 6.9 129 6.9 C 129.3 6.9 129.6 6.9 129.9 6.9 C 130.3 7 130.6 7 130.8 7 C 130.8 7 130.8 10.4 130.8 10.4 C 130.7 10.4 130.4 10.3 130 10.3 C 129.6 10.2 129.2 10.2 128.7 10.2 C 127.7 10.2 126.7 10.4 125.9 10.8 C 125.1 11.3 124.4 11.9 123.9 12.6 C 123.5 13.4 123.2 14.3 123.2 15.3 C 123.23 15.28 123.2 29.1 123.2 29.1 L 119.9 29.1 Z M 137.5 37.3 C 136.9 37.3 136.4 37.2 136 37.1 C 135.5 37 135.2 37 135 36.9 C 135 36.9 135.9 33.9 135.9 33.9 C 136.7 34.1 137.4 34.2 138 34.1 C 138.7 34.1 139.2 33.8 139.7 33.3 C 140.2 32.8 140.7 32 141.1 30.9 C 141.06 30.91 141.7 29.2 141.7 29.2 L 133.6 7.3 L 137.3 7.3 L 143.3 24.7 L 143.5 24.7 L 149.5 7.3 L 153.2 7.3 C 153.2 7.3 143.9 32.27 143.9 32.3 C 143.5 33.4 143 34.3 142.4 35.1 C 141.7 35.8 141 36.4 140.2 36.7 C 139.4 37.1 138.5 37.3 137.5 37.3 Z M 165 29.5 C 163 29.5 161.3 29.1 159.8 28.1 C 158.3 27.2 157.2 25.9 156.3 24.2 C 155.5 22.5 155.1 20.5 155.1 18.3 C 155.1 16 155.5 14 156.3 12.3 C 157.2 10.6 158.3 9.3 159.8 8.4 C 161.3 7.5 163 7 165 7 C 167 7 168.7 7.5 170.2 8.4 C 171.6 9.3 172.8 10.6 173.6 12.3 C 174.5 14 174.9 16 174.9 18.3 C 174.9 20.5 174.5 22.5 173.6 24.2 C 172.8 25.9 171.6 27.2 170.2 28.1 C 168.7 29.1 167 29.5 165 29.5 Z M 165 26.5 C 166.5 26.5 167.7 26.2 168.7 25.4 C 169.6 24.6 170.4 23.6 170.8 22.4 C 171.3 21.1 171.5 19.8 171.5 18.3 C 171.5 16.8 171.3 15.5 170.8 14.2 C 170.4 13 169.6 11.9 168.7 11.2 C 167.7 10.4 166.5 10 165 10 C 163.5 10 162.3 10.4 161.3 11.2 C 160.3 11.9 159.6 13 159.1 14.2 C 158.7 15.5 158.5 16.8 158.5 18.3 C 158.5 19.8 158.7 21.1 159.1 22.4 C 159.6 23.6 160.3 24.6 161.3 25.4 C 162.3 26.2 163.5 26.5 165 26.5 Z M 183 16 C 183 15.97 183 29.1 183 29.1 L 179.6 29.1 L 179.6 7.3 L 182.9 7.3 L 182.9 10.7 C 182.9 10.7 183.17 10.68 183.2 10.7 C 183.7 9.6 184.5 8.7 185.5 8 C 186.5 7.3 187.9 7 189.5 7 C 191 7 192.3 7.3 193.4 7.9 C 194.5 8.5 195.4 9.4 196 10.6 C 196.6 11.8 196.9 13.4 196.9 15.2 C 196.92 15.23 196.9 29.1 196.9 29.1 L 193.6 29.1 C 193.6 29.1 193.56 15.45 193.6 15.5 C 193.6 13.7 193.1 12.4 192.2 11.4 C 191.3 10.5 190.1 10 188.6 10 C 187.5 10 186.5 10.2 185.7 10.7 C 184.9 11.2 184.2 11.8 183.7 12.7 C 183.2 13.6 183 14.7 183 16 Z M 211.8 29.5 C 209.7 29.5 207.9 29.1 206.3 28.1 C 204.8 27.2 203.7 25.9 202.8 24.2 C 202 22.5 201.6 20.6 201.6 18.4 C 201.6 16.1 202 14.1 202.8 12.4 C 203.7 10.7 204.8 9.4 206.3 8.4 C 207.7 7.5 209.5 7 211.4 7 C 212.6 7 213.7 7.2 214.8 7.6 C 215.9 7.9 216.9 8.5 217.8 9.4 C 218.7 10.2 219.5 11.4 220 12.8 C 220.5 14.1 220.8 15.9 220.8 17.9 C 220.81 17.9 220.8 19.3 220.8 19.3 L 204 19.3 L 204 16.4 C 204 16.4 217.4 16.42 217.4 16.4 C 217.4 15.2 217.2 14.1 216.7 13.1 C 216.2 12.2 215.5 11.4 214.6 10.8 C 213.7 10.3 212.6 10 211.4 10 C 210.1 10 208.9 10.3 208 11 C 207 11.6 206.3 12.5 205.7 13.6 C 205.2 14.6 205 15.7 205 16.9 C 205 16.9 205 18.9 205 18.9 C 205 20.5 205.2 21.9 205.8 23 C 206.4 24.2 207.2 25.1 208.2 25.6 C 209.2 26.2 210.4 26.5 211.8 26.5 C 212.7 26.5 213.5 26.4 214.2 26.2 C 214.9 25.9 215.5 25.5 216 25 C 216.5 24.5 216.9 23.9 217.2 23.1 C 217.2 23.1 220.5 24 220.5 24 C 220.1 25.1 219.6 26.1 218.8 26.9 C 217.9 27.8 217 28.4 215.8 28.9 C 214.6 29.3 213.3 29.5 211.8 29.5 Z M 228.4 0 C 228.4 0 228.36 2.56 228.4 2.6 C 228.4 3.3 228.2 4.2 227.9 5 C 227.7 5.9 227.3 6.8 226.7 7.6 C 226.2 8.4 225.5 9.1 224.8 9.7 C 224.8 9.7 223 8.2 223 8.2 C 223.6 7.4 224.1 6.5 224.5 5.6 C 225 4.7 225.2 3.7 225.2 2.6 C 225.18 2.61 225.2 0 225.2 0 L 228.4 0 Z M 246.7 12.2 C 246.7 12.2 243.7 13 243.7 13 C 243.5 12.5 243.3 12 242.9 11.5 C 242.5 11.1 242 10.7 241.4 10.4 C 240.8 10 240 9.9 239 9.9 C 237.7 9.9 236.6 10.2 235.7 10.8 C 234.8 11.4 234.4 12.2 234.4 13.1 C 234.4 14 234.7 14.6 235.3 15.1 C 235.9 15.6 236.8 16 238.1 16.3 C 238.1 16.3 241.3 17.1 241.3 17.1 C 243.3 17.6 244.7 18.3 245.7 19.3 C 246.7 20.2 247.1 21.5 247.1 23 C 247.1 24.3 246.8 25.4 246.1 26.4 C 245.4 27.3 244.4 28.1 243.1 28.7 C 241.8 29.3 240.3 29.5 238.6 29.5 C 236.4 29.5 234.5 29.1 233.1 28.1 C 231.6 27.1 230.7 25.7 230.3 23.9 C 230.3 23.9 233.5 23.1 233.5 23.1 C 233.8 24.2 234.4 25.1 235.2 25.7 C 236.1 26.3 237.2 26.6 238.6 26.6 C 240.1 26.6 241.4 26.3 242.3 25.6 C 243.2 24.9 243.7 24.1 243.7 23.2 C 243.7 22.4 243.4 21.8 242.9 21.3 C 242.3 20.8 241.5 20.4 240.4 20.1 C 240.4 20.1 236.8 19.3 236.8 19.3 C 234.8 18.8 233.3 18.1 232.4 17.1 C 231.5 16.1 231 14.8 231 13.3 C 231 12.1 231.3 11 232 10 C 232.7 9.1 233.7 8.3 234.9 7.8 C 236.1 7.3 237.5 7 239 7 C 241.2 7 242.9 7.5 244.1 8.4 C 245.3 9.4 246.2 10.6 246.7 12.2 Z " stroke="none" fill="#ffffff"/>  </g></svg>