<?xml version="1.0" standalone="no"?><!DOCTYPE svg PUBLIC "-//W3C//DTD SVG 1.1//EN" "http://www.w3.org/Graphics/SVG/1.1/DTD/svg11.dtd"><svg xmlns="http://www.w3.org/2000/svg" version="1.1" width="121px" height="25.4px" viewBox="0 -3 121 25.4" style="top:-3px">  <desc>12 / 19</desc>  <defs/>  <g id="Polygon120736">    <path d="M 44 3.4 L 44 13.6 L 42.7 13.6 L 42.7 4.7 L 42.7 4.7 L 40.2 6.3 L 40.2 5.1 L 42.7 3.4 L 44 3.4 Z M 46.3 13.6 L 46.3 12.7 C 46.3 12.7 49.69 8.99 49.7 9 C 50.1 8.6 50.4 8.2 50.7 7.9 C 50.9 7.5 51.1 7.2 51.2 7 C 51.4 6.7 51.4 6.4 51.4 6.1 C 51.4 5.7 51.3 5.4 51.2 5.1 C 51 4.9 50.8 4.7 50.5 4.5 C 50.2 4.4 49.8 4.3 49.5 4.3 C 49.1 4.3 48.7 4.4 48.5 4.6 C 48.2 4.7 47.9 4.9 47.8 5.2 C 47.6 5.5 47.5 5.9 47.5 6.2 C 47.5 6.2 46.4 6.2 46.4 6.2 C 46.4 5.6 46.5 5.1 46.8 4.7 C 47.1 4.2 47.4 3.9 47.9 3.6 C 48.4 3.4 48.9 3.2 49.5 3.2 C 50.1 3.2 50.6 3.4 51.1 3.6 C 51.6 3.9 51.9 4.2 52.2 4.6 C 52.4 5.1 52.6 5.5 52.6 6.1 C 52.6 6.4 52.5 6.8 52.4 7.2 C 52.2 7.5 52 7.9 51.7 8.3 C 51.4 8.8 50.9 9.3 50.3 9.9 C 50.31 9.94 48 12.4 48 12.4 L 48 12.5 L 52.8 12.5 L 52.8 13.6 L 46.3 13.6 Z M 62.4 2.9 L 59.1 15.1 L 58 15.1 L 61.3 2.9 L 62.4 2.9 Z M 71.3 3.4 L 71.3 13.6 L 70 13.6 L 70 4.7 L 70 4.7 L 67.5 6.3 L 67.5 5.1 L 70 3.4 L 71.3 3.4 Z M 77.1 3.2 C 77.5 3.2 78 3.3 78.4 3.5 C 78.8 3.6 79.2 3.9 79.5 4.3 C 79.9 4.6 80.1 5.1 80.4 5.7 C 80.6 6.3 80.7 7.1 80.7 8.1 C 80.7 9 80.6 9.8 80.4 10.5 C 80.2 11.2 80 11.8 79.7 12.2 C 79.4 12.7 79 13.1 78.5 13.3 C 78.1 13.6 77.5 13.7 77 13.7 C 76.4 13.7 75.9 13.6 75.4 13.4 C 75 13.1 74.6 12.8 74.4 12.4 C 74.1 12 73.9 11.5 73.8 11 C 73.8 11 75 11 75 11 C 75.1 11.5 75.3 11.8 75.7 12.2 C 76 12.5 76.4 12.6 77 12.6 C 77.8 12.6 78.4 12.3 78.8 11.6 C 79.3 10.9 79.5 9.9 79.5 8.7 C 79.5 8.7 79.4 8.7 79.4 8.7 C 79.2 8.9 79 9.2 78.8 9.4 C 78.5 9.6 78.2 9.7 77.9 9.9 C 77.6 10 77.3 10 76.9 10 C 76.3 10 75.8 9.9 75.3 9.6 C 74.8 9.3 74.5 8.9 74.2 8.4 C 73.9 7.9 73.7 7.3 73.7 6.6 C 73.7 6 73.9 5.4 74.1 4.9 C 74.4 4.4 74.8 4 75.3 3.7 C 75.8 3.4 76.4 3.2 77.1 3.2 Z M 77.1 4.3 C 76.7 4.3 76.3 4.4 76 4.6 C 75.7 4.9 75.4 5.1 75.2 5.5 C 75 5.8 74.9 6.2 74.9 6.6 C 74.9 7.1 75 7.5 75.2 7.8 C 75.4 8.1 75.6 8.4 76 8.6 C 76.3 8.8 76.7 8.9 77.1 8.9 C 77.4 8.9 77.7 8.9 78 8.7 C 78.2 8.6 78.5 8.4 78.7 8.2 C 78.9 8 79 7.8 79.2 7.5 C 79.3 7.2 79.3 6.9 79.3 6.6 C 79.3 6.2 79.2 5.9 79 5.5 C 78.9 5.2 78.6 4.9 78.3 4.7 C 77.9 4.4 77.6 4.3 77.1 4.3 Z " stroke="none" fill="#ffffff"/>  </g></svg>