<?xml version="1.0" standalone="no"?><!DOCTYPE svg PUBLIC "-//W3C//DTD SVG 1.1//EN" "http://www.w3.org/Graphics/SVG/1.1/DTD/svg11.dtd"><svg xmlns="http://www.w3.org/2000/svg" version="1.1" width="121px" height="25.4px" viewBox="0 -3 121 25.4" style="top:-3px">  <desc>3 / 19</desc>  <defs/>  <g id="Polygon109527">    <path d="M 46.6 13.7 C 45.9 13.7 45.3 13.6 44.8 13.4 C 44.3 13.1 43.9 12.8 43.6 12.4 C 43.3 12 43.1 11.6 43.1 11 C 43.1 11 44.4 11 44.4 11 C 44.4 11.3 44.5 11.6 44.7 11.9 C 44.9 12.1 45.2 12.3 45.5 12.4 C 45.8 12.5 46.2 12.6 46.6 12.6 C 47 12.6 47.4 12.5 47.7 12.4 C 48.1 12.2 48.3 12 48.5 11.7 C 48.7 11.5 48.8 11.2 48.8 10.8 C 48.8 10.4 48.7 10.1 48.5 9.8 C 48.3 9.5 48.1 9.3 47.7 9.1 C 47.3 9 46.9 8.9 46.4 8.9 C 46.39 8.89 45.6 8.9 45.6 8.9 L 45.6 7.8 C 45.6 7.8 46.39 7.8 46.4 7.8 C 46.8 7.8 47.2 7.7 47.5 7.6 C 47.8 7.4 48 7.2 48.2 7 C 48.4 6.7 48.4 6.4 48.4 6 C 48.4 5.7 48.4 5.4 48.2 5.1 C 48.1 4.9 47.8 4.7 47.6 4.5 C 47.3 4.4 47 4.3 46.6 4.3 C 46.2 4.3 45.9 4.4 45.6 4.5 C 45.3 4.6 45 4.8 44.8 5.1 C 44.6 5.3 44.5 5.6 44.5 5.9 C 44.5 5.9 43.3 5.9 43.3 5.9 C 43.4 5.4 43.5 4.9 43.8 4.5 C 44.1 4.1 44.5 3.8 45 3.6 C 45.5 3.4 46 3.2 46.6 3.2 C 47.2 3.2 47.8 3.4 48.2 3.6 C 48.7 3.9 49 4.2 49.3 4.6 C 49.5 5 49.6 5.5 49.6 6 C 49.6 6.5 49.5 7 49.2 7.4 C 48.9 7.8 48.5 8.1 48 8.3 C 48 8.3 48 8.4 48 8.4 C 48.6 8.5 49.1 8.7 49.5 9.2 C 49.8 9.6 50 10.2 50 10.8 C 50 11.4 49.9 11.8 49.6 12.3 C 49.3 12.7 48.9 13.1 48.3 13.3 C 47.8 13.6 47.2 13.7 46.6 13.7 Z M 59.6 2.9 L 56.3 15.1 L 55.2 15.1 L 58.5 2.9 L 59.6 2.9 Z M 68.5 3.4 L 68.5 13.6 L 67.3 13.6 L 67.3 4.7 L 67.2 4.7 L 64.7 6.3 L 64.7 5.1 L 67.3 3.4 L 68.5 3.4 Z M 74.4 3.2 C 74.8 3.2 75.2 3.3 75.6 3.5 C 76 3.6 76.4 3.9 76.8 4.3 C 77.1 4.6 77.4 5.1 77.6 5.7 C 77.8 6.3 77.9 7.1 77.9 8.1 C 77.9 9 77.8 9.8 77.6 10.5 C 77.5 11.2 77.2 11.8 76.9 12.2 C 76.6 12.7 76.2 13.1 75.7 13.3 C 75.3 13.6 74.8 13.7 74.2 13.7 C 73.6 13.7 73.1 13.6 72.7 13.4 C 72.2 13.1 71.9 12.8 71.6 12.4 C 71.3 12 71.1 11.5 71 11 C 71 11 72.3 11 72.3 11 C 72.4 11.5 72.6 11.8 72.9 12.2 C 73.2 12.5 73.7 12.6 74.2 12.6 C 75 12.6 75.6 12.3 76.1 11.6 C 76.5 10.9 76.8 9.9 76.8 8.7 C 76.8 8.7 76.7 8.7 76.7 8.7 C 76.5 8.9 76.3 9.2 76 9.4 C 75.8 9.6 75.5 9.7 75.2 9.9 C 74.8 10 74.5 10 74.2 10 C 73.6 10 73 9.9 72.6 9.6 C 72.1 9.3 71.7 8.9 71.4 8.4 C 71.1 7.9 71 7.3 71 6.6 C 71 6 71.1 5.4 71.4 4.9 C 71.7 4.4 72.1 4 72.6 3.7 C 73.1 3.4 73.7 3.2 74.4 3.2 Z M 74.4 4.3 C 73.9 4.3 73.6 4.4 73.2 4.6 C 72.9 4.9 72.6 5.1 72.4 5.5 C 72.3 5.8 72.2 6.2 72.2 6.6 C 72.2 7.1 72.3 7.5 72.4 7.8 C 72.6 8.1 72.9 8.4 73.2 8.6 C 73.5 8.8 73.9 8.9 74.3 8.9 C 74.6 8.9 74.9 8.9 75.2 8.7 C 75.5 8.6 75.7 8.4 75.9 8.2 C 76.1 8 76.3 7.8 76.4 7.5 C 76.5 7.2 76.6 6.9 76.6 6.6 C 76.6 6.2 76.5 5.9 76.3 5.5 C 76.1 5.2 75.8 4.9 75.5 4.7 C 75.2 4.4 74.8 4.3 74.4 4.3 Z " stroke="none" fill="#10283d"/>  </g></svg>