<?xml version="1.0" standalone="no"?><!DOCTYPE svg PUBLIC "-//W3C//DTD SVG 1.1//EN" "http://www.w3.org/Graphics/SVG/1.1/DTD/svg11.dtd"><svg xmlns="http://www.w3.org/2000/svg" version="1.1" width="1110px" height="67.7px" viewBox="0 -6 1110 67.7" style="top:-6px">  <desc>Your guide to optimizing right fit AI across your organization</desc>  <defs/>  <g id="Polygon105765">    <path d="M 1 9.7 L 5.1 9.7 L 13.1 23.2 L 13.5 23.2 L 21.5 9.7 L 25.6 9.7 L 15.1 26.8 L 15.1 38.8 L 11.5 38.8 L 11.5 26.8 L 1 9.7 Z M 34.6 39.2 C 32.7 39.2 30.9 38.7 29.5 37.8 C 28 36.9 26.8 35.5 26 33.9 C 25.2 32.2 24.8 30.2 24.8 28 C 24.8 25.7 25.2 23.7 26 22 C 26.8 20.3 28 19 29.5 18.1 C 30.9 17.1 32.7 16.6 34.6 16.6 C 36.6 16.6 38.3 17.1 39.8 18.1 C 41.3 19 42.5 20.3 43.3 22 C 44.1 23.7 44.5 25.7 44.5 28 C 44.5 30.2 44.1 32.2 43.3 33.9 C 42.5 35.5 41.3 36.9 39.8 37.8 C 38.3 38.7 36.6 39.2 34.6 39.2 Z M 34.6 36.2 C 36.1 36.2 37.4 35.8 38.3 35 C 39.3 34.3 40 33.3 40.5 32 C 40.9 30.8 41.2 29.4 41.2 28 C 41.2 26.5 40.9 25.1 40.5 23.9 C 40 22.6 39.3 21.6 38.3 20.8 C 37.4 20 36.1 19.7 34.6 19.7 C 33.1 19.7 31.9 20 30.9 20.8 C 30 21.6 29.3 22.6 28.8 23.9 C 28.3 25.1 28.1 26.5 28.1 28 C 28.1 29.4 28.3 30.8 28.8 32 C 29.3 33.3 30 34.3 30.9 35 C 31.9 35.8 33.1 36.2 34.6 36.2 Z M 62.9 29.8 C 62.9 29.83 62.9 16.9 62.9 16.9 L 66.3 16.9 L 66.3 38.8 L 62.9 38.8 L 62.9 35.1 C 62.9 35.1 62.68 35.06 62.7 35.1 C 62.2 36.2 61.4 37.1 60.3 37.9 C 59.2 38.6 57.8 39 56.2 39 C 54.8 39 53.6 38.7 52.6 38.1 C 51.5 37.5 50.7 36.6 50.1 35.4 C 49.5 34.2 49.2 32.7 49.2 30.8 C 49.15 30.8 49.2 16.9 49.2 16.9 L 52.5 16.9 C 52.5 16.9 52.51 30.57 52.5 30.6 C 52.5 32.2 53 33.4 53.8 34.4 C 54.7 35.3 55.9 35.8 57.3 35.8 C 58.1 35.8 59 35.6 59.8 35.2 C 60.7 34.7 61.4 34.1 62 33.2 C 62.6 32.3 62.9 31.2 62.9 29.8 Z M 72.1 38.8 L 72.1 16.9 L 75.3 16.9 L 75.3 20.2 C 75.3 20.2 75.52 20.23 75.5 20.2 C 75.9 19.1 76.6 18.3 77.7 17.6 C 78.7 16.9 79.9 16.6 81.2 16.6 C 81.4 16.6 81.8 16.6 82.1 16.6 C 82.5 16.6 82.8 16.6 83 16.6 C 83 16.6 83 20.1 83 20.1 C 82.8 20 82.6 20 82.2 19.9 C 81.8 19.9 81.4 19.8 80.9 19.8 C 79.9 19.8 78.9 20 78.1 20.5 C 77.3 20.9 76.6 21.5 76.1 22.3 C 75.6 23.1 75.4 24 75.4 24.9 C 75.41 24.94 75.4 38.8 75.4 38.8 L 72.1 38.8 Z M 107 47.4 C 105.4 47.4 104 47.2 102.8 46.8 C 101.7 46.4 100.7 45.8 99.9 45.1 C 99.1 44.5 98.5 43.8 98.1 43 C 98.1 43 100.7 41.1 100.7 41.1 C 101 41.5 101.4 42 101.9 42.5 C 102.4 43 103 43.5 103.8 43.9 C 104.6 44.2 105.7 44.4 107 44.4 C 108.8 44.4 110.2 44 111.4 43.2 C 112.5 42.3 113.1 41 113.1 39.1 C 113.08 39.15 113.1 34.7 113.1 34.7 C 113.1 34.7 112.79 34.72 112.8 34.7 C 112.5 35.1 112.2 35.6 111.7 36.2 C 111.3 36.8 110.7 37.3 109.8 37.7 C 109 38.2 107.8 38.4 106.4 38.4 C 104.7 38.4 103.1 38 101.7 37.2 C 100.3 36.3 99.2 35.1 98.4 33.5 C 97.6 31.9 97.2 30 97.2 27.7 C 97.2 25.5 97.6 23.5 98.3 21.9 C 99.1 20.2 100.2 18.9 101.6 18 C 103 17.1 104.6 16.6 106.5 16.6 C 107.9 16.6 109 16.9 109.9 17.4 C 110.7 17.8 111.4 18.4 111.8 18.9 C 112.3 19.5 112.6 20 112.8 20.4 C 112.85 20.4 113.2 20.4 113.2 20.4 L 113.2 16.9 L 116.4 16.9 C 116.4 16.9 116.43 39.38 116.4 39.4 C 116.4 41.3 116 42.8 115.2 44 C 114.3 45.1 113.2 46 111.7 46.6 C 110.3 47.1 108.7 47.4 107 47.4 Z M 106.9 35.4 C 108.2 35.4 109.4 35.1 110.3 34.5 C 111.2 33.9 111.9 33 112.4 31.8 C 112.9 30.7 113.1 29.3 113.1 27.7 C 113.1 26.1 112.9 24.7 112.4 23.5 C 111.9 22.3 111.2 21.4 110.3 20.7 C 109.4 20 108.2 19.7 106.9 19.7 C 105.5 19.7 104.3 20 103.3 20.7 C 102.4 21.5 101.7 22.4 101.2 23.6 C 100.8 24.8 100.5 26.2 100.5 27.7 C 100.5 29.2 100.8 30.5 101.2 31.7 C 101.7 32.8 102.4 33.8 103.4 34.4 C 104.3 35.1 105.5 35.4 106.9 35.4 Z M 135.9 29.8 C 135.91 29.83 135.9 16.9 135.9 16.9 L 139.3 16.9 L 139.3 38.8 L 135.9 38.8 L 135.9 35.1 C 135.9 35.1 135.69 35.06 135.7 35.1 C 135.2 36.2 134.4 37.1 133.3 37.9 C 132.2 38.6 130.9 39 129.2 39 C 127.8 39 126.6 38.7 125.6 38.1 C 124.5 37.5 123.7 36.6 123.1 35.4 C 122.5 34.2 122.2 32.7 122.2 30.8 C 122.16 30.8 122.2 16.9 122.2 16.9 L 125.5 16.9 C 125.5 16.9 125.52 30.57 125.5 30.6 C 125.5 32.2 126 33.4 126.9 34.4 C 127.8 35.3 128.9 35.8 130.3 35.8 C 131.1 35.8 132 35.6 132.8 35.2 C 133.7 34.7 134.4 34.1 135 33.2 C 135.6 32.3 135.9 31.2 135.9 29.8 Z M 145.1 38.8 L 145.1 16.9 L 148.4 16.9 L 148.4 38.8 L 145.1 38.8 Z M 146.8 13.3 C 146.1 13.3 145.6 13.1 145.1 12.6 C 144.6 12.2 144.4 11.6 144.4 11 C 144.4 10.4 144.6 9.9 145.1 9.4 C 145.6 9 146.1 8.8 146.8 8.8 C 147.4 8.8 148 9 148.4 9.4 C 148.9 9.9 149.2 10.4 149.2 11 C 149.2 11.6 148.9 12.2 148.4 12.6 C 148 13.1 147.4 13.3 146.8 13.3 Z M 162.3 39.2 C 160.5 39.2 158.9 38.7 157.5 37.8 C 156.1 36.9 155 35.6 154.3 33.9 C 153.5 32.2 153.1 30.2 153.1 27.9 C 153.1 25.6 153.5 23.6 154.3 21.9 C 155 20.2 156.1 18.9 157.5 18 C 158.9 17.1 160.6 16.6 162.4 16.6 C 163.8 16.6 164.9 16.9 165.8 17.4 C 166.6 17.8 167.2 18.4 167.7 18.9 C 168.1 19.5 168.5 20 168.7 20.4 C 168.7 20.4 169 20.4 169 20.4 L 169 9.7 L 172.3 9.7 L 172.3 38.8 L 169.1 38.8 L 169.1 35.4 C 169.1 35.4 168.7 35.4 168.7 35.4 C 168.5 35.8 168.1 36.3 167.6 36.9 C 167.2 37.5 166.5 38 165.7 38.5 C 164.9 39 163.7 39.2 162.3 39.2 Z M 162.8 36.2 C 164.1 36.2 165.3 35.8 166.2 35.1 C 167.1 34.4 167.8 33.4 168.3 32.2 C 168.8 30.9 169 29.5 169 27.8 C 169 26.2 168.8 24.8 168.3 23.6 C 167.9 22.3 167.2 21.4 166.2 20.7 C 165.3 20 164.2 19.7 162.8 19.7 C 161.4 19.7 160.2 20 159.2 20.7 C 158.3 21.5 157.6 22.5 157.1 23.7 C 156.7 24.9 156.4 26.3 156.4 27.8 C 156.4 29.4 156.7 30.8 157.1 32.1 C 157.6 33.3 158.3 34.3 159.3 35.1 C 160.2 35.8 161.4 36.2 162.8 36.2 Z M 187.5 39.2 C 185.4 39.2 183.6 38.7 182 37.8 C 180.5 36.9 179.3 35.6 178.5 33.9 C 177.7 32.2 177.3 30.2 177.3 28 C 177.3 25.8 177.7 23.8 178.5 22.1 C 179.3 20.4 180.5 19.1 182 18.1 C 183.4 17.1 185.2 16.6 187.1 16.6 C 188.3 16.6 189.4 16.8 190.5 17.2 C 191.6 17.6 192.6 18.2 193.5 19.1 C 194.4 19.9 195.2 21 195.7 22.4 C 196.2 23.8 196.5 25.5 196.5 27.6 C 196.51 27.56 196.5 29 196.5 29 L 179.7 29 L 179.7 26.1 C 179.7 26.1 193.1 26.08 193.1 26.1 C 193.1 24.8 192.9 23.8 192.4 22.8 C 191.9 21.8 191.2 21.1 190.3 20.5 C 189.4 19.9 188.3 19.7 187.1 19.7 C 185.8 19.7 184.6 20 183.7 20.6 C 182.7 21.3 182 22.2 181.4 23.2 C 180.9 24.3 180.7 25.4 180.7 26.6 C 180.7 26.6 180.7 28.5 180.7 28.5 C 180.7 30.2 180.9 31.6 181.5 32.7 C 182.1 33.8 182.9 34.7 183.9 35.3 C 184.9 35.9 186.1 36.2 187.5 36.2 C 188.4 36.2 189.1 36.1 189.9 35.8 C 190.6 35.6 191.2 35.2 191.7 34.7 C 192.2 34.2 192.6 33.5 192.9 32.8 C 192.9 32.8 196.2 33.7 196.2 33.7 C 195.8 34.8 195.3 35.8 194.4 36.6 C 193.6 37.4 192.6 38.1 191.5 38.5 C 190.3 39 188.9 39.2 187.5 39.2 Z M 222.4 16.9 L 222.4 19.8 L 211.1 19.8 L 211.1 16.9 L 222.4 16.9 Z M 214.3 11.7 L 217.7 11.7 C 217.7 11.7 217.7 32.5 217.7 32.5 C 217.7 33.4 217.8 34.2 218.1 34.6 C 218.4 35.1 218.8 35.4 219.2 35.6 C 219.6 35.7 220.1 35.8 220.6 35.8 C 221 35.8 221.3 35.8 221.5 35.7 C 221.7 35.7 221.9 35.7 222.1 35.6 C 222.1 35.6 222.8 38.6 222.8 38.6 C 222.5 38.7 222.2 38.8 221.8 38.9 C 221.4 39 220.9 39 220.3 39 C 219.3 39 218.4 38.8 217.5 38.4 C 216.6 38 215.8 37.4 215.2 36.6 C 214.6 35.7 214.3 34.7 214.3 33.4 C 214.35 33.41 214.3 11.7 214.3 11.7 Z M 234.8 39.2 C 232.8 39.2 231.1 38.7 229.6 37.8 C 228.1 36.9 227 35.5 226.1 33.9 C 225.3 32.2 224.9 30.2 224.9 28 C 224.9 25.7 225.3 23.7 226.1 22 C 227 20.3 228.1 19 229.6 18.1 C 231.1 17.1 232.8 16.6 234.8 16.6 C 236.7 16.6 238.5 17.1 240 18.1 C 241.4 19 242.6 20.3 243.4 22 C 244.2 23.7 244.7 25.7 244.7 28 C 244.7 30.2 244.2 32.2 243.4 33.9 C 242.6 35.5 241.4 36.9 240 37.8 C 238.5 38.7 236.7 39.2 234.8 39.2 Z M 234.8 36.2 C 236.3 36.2 237.5 35.8 238.5 35 C 239.4 34.3 240.1 33.3 240.6 32 C 241.1 30.8 241.3 29.4 241.3 28 C 241.3 26.5 241.1 25.1 240.6 23.9 C 240.1 22.6 239.4 21.6 238.5 20.8 C 237.5 20 236.3 19.7 234.8 19.7 C 233.3 19.7 232 20 231.1 20.8 C 230.1 21.6 229.4 22.6 228.9 23.9 C 228.5 25.1 228.2 26.5 228.2 28 C 228.2 29.4 228.5 30.8 228.9 32 C 229.4 33.3 230.1 34.3 231.1 35 C 232 35.8 233.3 36.2 234.8 36.2 Z M 269.9 39.2 C 267.9 39.2 266.2 38.7 264.7 37.8 C 263.2 36.9 262.1 35.5 261.2 33.9 C 260.4 32.2 260 30.2 260 28 C 260 25.7 260.4 23.7 261.2 22 C 262.1 20.3 263.2 19 264.7 18.1 C 266.2 17.1 267.9 16.6 269.9 16.6 C 271.9 16.6 273.6 17.1 275.1 18.1 C 276.5 19 277.7 20.3 278.5 22 C 279.4 23.7 279.8 25.7 279.8 28 C 279.8 30.2 279.4 32.2 278.5 33.9 C 277.7 35.5 276.5 36.9 275.1 37.8 C 273.6 38.7 271.9 39.2 269.9 39.2 Z M 269.9 36.2 C 271.4 36.2 272.6 35.8 273.6 35 C 274.5 34.3 275.3 33.3 275.7 32 C 276.2 30.8 276.4 29.4 276.4 28 C 276.4 26.5 276.2 25.1 275.7 23.9 C 275.3 22.6 274.5 21.6 273.6 20.8 C 272.6 20 271.4 19.7 269.9 19.7 C 268.4 19.7 267.2 20 266.2 20.8 C 265.2 21.6 264.5 22.6 264 23.9 C 263.6 25.1 263.4 26.5 263.4 28 C 263.4 29.4 263.6 30.8 264 32 C 264.5 33.3 265.2 34.3 266.2 35 C 267.2 35.8 268.4 36.2 269.9 36.2 Z M 284.5 46.9 L 284.5 16.9 L 287.8 16.9 L 287.8 20.4 C 287.8 20.4 288.18 20.4 288.2 20.4 C 288.4 20 288.8 19.5 289.2 18.9 C 289.6 18.4 290.3 17.8 291.1 17.4 C 291.9 16.9 293.1 16.6 294.5 16.6 C 296.3 16.6 297.9 17.1 299.3 18 C 300.7 18.9 301.8 20.2 302.6 21.9 C 303.4 23.6 303.8 25.6 303.8 27.9 C 303.8 30.2 303.4 32.2 302.6 33.9 C 301.8 35.6 300.8 36.9 299.4 37.8 C 298 38.7 296.4 39.2 294.5 39.2 C 293.1 39.2 292 39 291.2 38.5 C 290.3 38 289.7 37.5 289.2 36.9 C 288.8 36.3 288.4 35.8 288.2 35.4 C 288.18 35.4 287.9 35.4 287.9 35.4 L 287.9 46.9 L 284.5 46.9 Z M 287.8 27.8 C 287.8 29.5 288.1 30.9 288.6 32.2 C 289 33.4 289.8 34.4 290.7 35.1 C 291.6 35.8 292.7 36.2 294.1 36.2 C 295.5 36.2 296.7 35.8 297.6 35.1 C 298.5 34.3 299.3 33.3 299.7 32.1 C 300.2 30.8 300.5 29.4 300.5 27.8 C 300.5 26.3 300.2 24.9 299.7 23.7 C 299.3 22.5 298.6 21.5 297.6 20.7 C 296.7 20 295.5 19.7 294.1 19.7 C 292.7 19.7 291.6 20 290.7 20.7 C 289.7 21.4 289 22.3 288.5 23.6 C 288.1 24.8 287.8 26.2 287.8 27.8 Z M 317.4 16.9 L 317.4 19.8 L 306 19.8 L 306 16.9 L 317.4 16.9 Z M 309.3 11.7 L 312.7 11.7 C 312.7 11.7 312.69 32.5 312.7 32.5 C 312.7 33.4 312.8 34.2 313.1 34.6 C 313.4 35.1 313.8 35.4 314.2 35.6 C 314.6 35.7 315.1 35.8 315.6 35.8 C 316 35.8 316.3 35.8 316.5 35.7 C 316.7 35.7 316.9 35.7 317.1 35.6 C 317.1 35.6 317.7 38.6 317.7 38.6 C 317.5 38.7 317.2 38.8 316.8 38.9 C 316.4 39 315.9 39 315.2 39 C 314.3 39 313.4 38.8 312.5 38.4 C 311.6 38 310.8 37.4 310.2 36.6 C 309.6 35.7 309.3 34.7 309.3 33.4 C 309.34 33.41 309.3 11.7 309.3 11.7 Z M 321.7 38.8 L 321.7 16.9 L 325.1 16.9 L 325.1 38.8 L 321.7 38.8 Z M 323.4 13.3 C 322.8 13.3 322.2 13.1 321.7 12.6 C 321.3 12.2 321 11.6 321 11 C 321 10.4 321.3 9.9 321.7 9.4 C 322.2 9 322.8 8.8 323.4 8.8 C 324.1 8.8 324.6 9 325.1 9.4 C 325.6 9.9 325.8 10.4 325.8 11 C 325.8 11.6 325.6 12.2 325.1 12.6 C 324.6 13.1 324.1 13.3 323.4 13.3 Z M 330.9 38.8 L 330.9 16.9 L 334.1 16.9 L 334.1 20.3 C 334.1 20.3 334.41 20.34 334.4 20.3 C 334.9 19.2 335.6 18.3 336.6 17.6 C 337.6 17 338.8 16.6 340.3 16.6 C 341.7 16.6 342.9 17 343.9 17.6 C 344.8 18.3 345.6 19.2 346.1 20.3 C 346.1 20.3 346.3 20.3 346.3 20.3 C 346.9 19.2 347.7 18.3 348.9 17.6 C 350 17 351.3 16.6 352.9 16.6 C 354.8 16.6 356.4 17.3 357.7 18.5 C 358.9 19.7 359.5 21.6 359.5 24.1 C 359.52 24.15 359.5 38.8 359.5 38.8 L 356.2 38.8 C 356.2 38.8 356.17 24.15 356.2 24.1 C 356.2 22.5 355.7 21.4 354.8 20.7 C 354 20 352.9 19.7 351.7 19.7 C 350.2 19.7 349 20.1 348.2 21 C 347.3 22 346.9 23.1 346.9 24.5 C 346.91 24.55 346.9 38.8 346.9 38.8 L 343.5 38.8 C 343.5 38.8 343.5 23.81 343.5 23.8 C 343.5 22.6 343.1 21.6 342.3 20.8 C 341.5 20 340.4 19.7 339.2 19.7 C 338.3 19.7 337.5 19.9 336.7 20.4 C 336 20.8 335.4 21.5 334.9 22.3 C 334.5 23.1 334.2 24 334.2 25.1 C 334.24 25.11 334.2 38.8 334.2 38.8 L 330.9 38.8 Z M 365.2 38.8 L 365.2 16.9 L 368.5 16.9 L 368.5 38.8 L 365.2 38.8 Z M 366.9 13.3 C 366.2 13.3 365.7 13.1 365.2 12.6 C 364.7 12.2 364.5 11.6 364.5 11 C 364.5 10.4 364.7 9.9 365.2 9.4 C 365.7 9 366.2 8.8 366.9 8.8 C 367.6 8.8 368.1 9 368.6 9.4 C 369 9.9 369.3 10.4 369.3 11 C 369.3 11.6 369 12.2 368.6 12.6 C 368.1 13.1 367.6 13.3 366.9 13.3 Z M 372.9 38.8 L 372.9 36.2 L 385.3 20.3 L 385.3 20.1 L 373.3 20.1 L 373.3 16.9 L 389.6 16.9 L 389.6 19.6 L 377.6 35.4 L 377.6 35.6 L 390 35.6 L 390 38.8 L 372.9 38.8 Z M 394.2 38.8 L 394.2 16.9 L 397.6 16.9 L 397.6 38.8 L 394.2 38.8 Z M 395.9 13.3 C 395.3 13.3 394.7 13.1 394.3 12.6 C 393.8 12.2 393.6 11.6 393.6 11 C 393.6 10.4 393.8 9.9 394.3 9.4 C 394.7 9 395.3 8.8 395.9 8.8 C 396.6 8.8 397.2 9 397.6 9.4 C 398.1 9.9 398.3 10.4 398.3 11 C 398.3 11.6 398.1 12.2 397.6 12.6 C 397.2 13.1 396.6 13.3 395.9 13.3 Z M 406.8 25.6 C 406.76 25.63 406.8 38.8 406.8 38.8 L 403.4 38.8 L 403.4 16.9 L 406.6 16.9 L 406.6 20.3 C 406.6 20.3 406.93 20.34 406.9 20.3 C 407.4 19.2 408.2 18.3 409.3 17.7 C 410.3 17 411.6 16.6 413.3 16.6 C 414.8 16.6 416.1 16.9 417.2 17.5 C 418.3 18.2 419.1 19.1 419.8 20.3 C 420.4 21.5 420.7 23 420.7 24.9 C 420.68 24.89 420.7 38.8 420.7 38.8 L 417.3 38.8 C 417.3 38.8 417.33 25.11 417.3 25.1 C 417.3 23.4 416.9 22.1 416 21.1 C 415.1 20.1 413.9 19.7 412.3 19.7 C 411.3 19.7 410.3 19.9 409.5 20.4 C 408.6 20.8 408 21.5 407.5 22.4 C 407 23.3 406.8 24.4 406.8 25.6 Z M 435.1 47.4 C 433.5 47.4 432.1 47.2 430.9 46.8 C 429.8 46.4 428.8 45.8 428 45.1 C 427.3 44.5 426.7 43.8 426.2 43 C 426.2 43 428.9 41.1 428.9 41.1 C 429.2 41.5 429.6 42 430 42.5 C 430.5 43 431.1 43.5 431.9 43.9 C 432.7 44.2 433.8 44.4 435.1 44.4 C 436.9 44.4 438.3 44 439.5 43.2 C 440.6 42.3 441.2 41 441.2 39.1 C 441.2 39.15 441.2 34.7 441.2 34.7 C 441.2 34.7 440.92 34.72 440.9 34.7 C 440.7 35.1 440.3 35.6 439.9 36.2 C 439.4 36.8 438.8 37.3 437.9 37.7 C 437.1 38.2 436 38.4 434.6 38.4 C 432.8 38.4 431.2 38 429.8 37.2 C 428.4 36.3 427.3 35.1 426.5 33.5 C 425.7 31.9 425.3 30 425.3 27.7 C 425.3 25.5 425.7 23.5 426.5 21.9 C 427.3 20.2 428.3 18.9 429.8 18 C 431.2 17.1 432.8 16.6 434.6 16.6 C 436 16.6 437.2 16.9 438 17.4 C 438.8 17.8 439.5 18.4 439.9 18.9 C 440.4 19.5 440.7 20 441 20.4 C 440.97 20.4 441.3 20.4 441.3 20.4 L 441.3 16.9 L 444.6 16.9 C 444.6 16.9 444.55 39.38 444.6 39.4 C 444.6 41.3 444.1 42.8 443.3 44 C 442.4 45.1 441.3 46 439.9 46.6 C 438.4 47.1 436.9 47.4 435.1 47.4 Z M 435 35.4 C 436.4 35.4 437.5 35.1 438.4 34.5 C 439.3 33.9 440 33 440.5 31.8 C 441 30.7 441.3 29.3 441.3 27.7 C 441.3 26.1 441 24.7 440.5 23.5 C 440.1 22.3 439.4 21.4 438.4 20.7 C 437.5 20 436.4 19.7 435 19.7 C 433.6 19.7 432.4 20 431.5 20.7 C 430.5 21.5 429.8 22.4 429.3 23.6 C 428.9 24.8 428.6 26.2 428.6 27.7 C 428.6 29.2 428.9 30.5 429.4 31.7 C 429.8 32.8 430.5 33.8 431.5 34.4 C 432.4 35.1 433.6 35.4 435 35.4 Z M 461.9 38.8 L 461.9 16.9 L 465.2 16.9 L 465.2 20.2 C 465.2 20.2 465.4 20.23 465.4 20.2 C 465.8 19.1 466.5 18.3 467.6 17.6 C 468.6 16.9 469.8 16.6 471.1 16.6 C 471.3 16.6 471.6 16.6 472 16.6 C 472.4 16.6 472.7 16.6 472.8 16.6 C 472.8 16.6 472.8 20.1 472.8 20.1 C 472.7 20 472.5 20 472.1 19.9 C 471.7 19.9 471.2 19.8 470.8 19.8 C 469.7 19.8 468.8 20 468 20.5 C 467.1 20.9 466.5 21.5 466 22.3 C 465.5 23.1 465.3 24 465.3 24.9 C 465.29 24.94 465.3 38.8 465.3 38.8 L 461.9 38.8 Z M 476.5 38.8 L 476.5 16.9 L 479.9 16.9 L 479.9 38.8 L 476.5 38.8 Z M 478.2 13.3 C 477.6 13.3 477 13.1 476.5 12.6 C 476.1 12.2 475.8 11.6 475.8 11 C 475.8 10.4 476.1 9.9 476.5 9.4 C 477 9 477.6 8.8 478.2 8.8 C 478.9 8.8 479.4 9 479.9 9.4 C 480.4 9.9 480.6 10.4 480.6 11 C 480.6 11.6 480.4 12.2 479.9 12.6 C 479.4 13.1 478.9 13.3 478.2 13.3 Z M 494.3 47.4 C 492.7 47.4 491.3 47.2 490.2 46.8 C 489 46.4 488 45.8 487.3 45.1 C 486.5 44.5 485.9 43.8 485.4 43 C 485.4 43 488.1 41.1 488.1 41.1 C 488.4 41.5 488.8 42 489.2 42.5 C 489.7 43 490.3 43.5 491.2 43.9 C 492 44.2 493 44.4 494.3 44.4 C 496.1 44.4 497.6 44 498.7 43.2 C 499.9 42.3 500.4 41 500.4 39.1 C 500.42 39.15 500.4 34.7 500.4 34.7 C 500.4 34.7 500.14 34.72 500.1 34.7 C 499.9 35.1 499.5 35.6 499.1 36.2 C 498.6 36.8 498 37.3 497.2 37.7 C 496.3 38.2 495.2 38.4 493.8 38.4 C 492 38.4 490.4 38 489 37.2 C 487.6 36.3 486.5 35.1 485.7 33.5 C 484.9 31.9 484.5 30 484.5 27.7 C 484.5 25.5 484.9 23.5 485.7 21.9 C 486.5 20.2 487.6 18.9 489 18 C 490.4 17.1 492 16.6 493.8 16.6 C 495.3 16.6 496.4 16.9 497.2 17.4 C 498.1 17.8 498.7 18.4 499.2 18.9 C 499.6 19.5 499.9 20 500.2 20.4 C 500.2 20.4 500.5 20.4 500.5 20.4 L 500.5 16.9 L 503.8 16.9 C 503.8 16.9 503.78 39.38 503.8 39.4 C 503.8 41.3 503.4 42.8 502.5 44 C 501.7 45.1 500.5 46 499.1 46.6 C 497.7 47.1 496.1 47.4 494.3 47.4 Z M 494.2 35.4 C 495.6 35.4 496.7 35.1 497.6 34.5 C 498.6 33.9 499.3 33 499.8 31.8 C 500.2 30.7 500.5 29.3 500.5 27.7 C 500.5 26.1 500.2 24.7 499.8 23.5 C 499.3 22.3 498.6 21.4 497.7 20.7 C 496.7 20 495.6 19.7 494.2 19.7 C 492.8 19.7 491.6 20 490.7 20.7 C 489.7 21.5 489 22.4 488.6 23.6 C 488.1 24.8 487.9 26.2 487.9 27.7 C 487.9 29.2 488.1 30.5 488.6 31.7 C 489.1 32.8 489.8 33.8 490.7 34.4 C 491.7 35.1 492.8 35.4 494.2 35.4 Z M 512.9 25.6 C 512.92 25.63 512.9 38.8 512.9 38.8 L 509.6 38.8 L 509.6 9.7 L 512.9 9.7 L 512.9 20.3 C 512.9 20.3 513.2 20.34 513.2 20.3 C 513.7 19.2 514.5 18.3 515.5 17.6 C 516.5 17 517.9 16.6 519.6 16.6 C 521.1 16.6 522.4 16.9 523.5 17.5 C 524.6 18.1 525.5 19 526.1 20.2 C 526.8 21.5 527.1 23 527.1 24.9 C 527.06 24.89 527.1 38.8 527.1 38.8 L 523.7 38.8 C 523.7 38.8 523.71 25.11 523.7 25.1 C 523.7 23.4 523.3 22 522.4 21.1 C 521.5 20.1 520.2 19.7 518.7 19.7 C 517.6 19.7 516.6 19.9 515.7 20.4 C 514.8 20.8 514.2 21.5 513.7 22.4 C 513.2 23.3 512.9 24.4 512.9 25.6 Z M 541.7 16.9 L 541.7 19.8 L 530.4 19.8 L 530.4 16.9 L 541.7 16.9 Z M 533.7 11.7 L 537.1 11.7 C 537.1 11.7 537.07 32.5 537.1 32.5 C 537.1 33.4 537.2 34.2 537.5 34.6 C 537.8 35.1 538.1 35.4 538.6 35.6 C 539 35.7 539.5 35.8 540 35.8 C 540.3 35.8 540.6 35.8 540.9 35.7 C 541.1 35.7 541.3 35.7 541.4 35.6 C 541.4 35.6 542.1 38.6 542.1 38.6 C 541.9 38.7 541.6 38.8 541.2 38.9 C 540.8 39 540.2 39 539.6 39 C 538.7 39 537.7 38.8 536.8 38.4 C 535.9 38 535.2 37.4 534.6 36.6 C 534 35.7 533.7 34.7 533.7 33.4 C 533.71 33.41 533.7 11.7 533.7 11.7 Z M 556.4 24.7 L 556.4 27.8 L 543.7 27.8 L 543.7 24.7 L 556.4 24.7 Z M 570.3 16.9 L 570.3 19.8 L 558.6 19.8 L 558.6 16.9 L 570.3 16.9 Z M 562.1 38.8 C 562.1 38.8 562.08 13.92 562.1 13.9 C 562.1 12.7 562.4 11.6 563 10.8 C 563.6 10 564.3 9.3 565.3 8.9 C 566.2 8.5 567.2 8.3 568.2 8.3 C 569 8.3 569.7 8.4 570.2 8.5 C 570.8 8.6 571.1 8.8 571.4 8.9 C 571.4 8.9 570.4 11.8 570.4 11.8 C 570.3 11.7 570 11.6 569.7 11.5 C 569.4 11.5 569 11.4 568.6 11.4 C 567.5 11.4 566.7 11.7 566.2 12.3 C 565.7 12.8 565.4 13.6 565.4 14.7 C 565.44 14.72 565.4 38.8 565.4 38.8 L 562.1 38.8 Z M 575.1 38.8 L 575.1 16.9 L 578.4 16.9 L 578.4 38.8 L 575.1 38.8 Z M 576.8 13.3 C 576.1 13.3 575.6 13.1 575.1 12.6 C 574.6 12.2 574.4 11.6 574.4 11 C 574.4 10.4 574.6 9.9 575.1 9.4 C 575.6 9 576.1 8.8 576.8 8.8 C 577.4 8.8 578 9 578.4 9.4 C 578.9 9.9 579.2 10.4 579.2 11 C 579.2 11.6 578.9 12.2 578.4 12.6 C 578 13.1 577.4 13.3 576.8 13.3 Z M 593.5 16.9 L 593.5 19.8 L 582.2 19.8 L 582.2 16.9 L 593.5 16.9 Z M 585.5 11.7 L 588.9 11.7 C 588.9 11.7 588.87 32.5 588.9 32.5 C 588.9 33.4 589 34.2 589.3 34.6 C 589.6 35.1 589.9 35.4 590.4 35.6 C 590.8 35.7 591.3 35.8 591.8 35.8 C 592.1 35.8 592.4 35.8 592.7 35.7 C 592.9 35.7 593.1 35.7 593.2 35.6 C 593.2 35.6 593.9 38.6 593.9 38.6 C 593.7 38.7 593.4 38.8 593 38.9 C 592.6 39 592 39 591.4 39 C 590.5 39 589.6 38.8 588.6 38.4 C 587.7 38 587 37.4 586.4 36.6 C 585.8 35.7 585.5 34.7 585.5 33.4 C 585.52 33.41 585.5 11.7 585.5 11.7 Z M 611.5 38.8 L 607.8 38.8 L 618.5 9.7 L 622.1 9.7 L 632.8 38.8 L 629.1 38.8 L 620.4 14.3 L 620.2 14.3 L 611.5 38.8 Z M 612.8 27.4 L 627.7 27.4 L 627.7 30.5 L 612.8 30.5 L 612.8 27.4 Z M 640.5 9.7 L 640.5 38.8 L 637 38.8 L 637 9.7 L 640.5 9.7 Z M 664.8 39.3 C 663.4 39.3 662.2 39 661 38.5 C 659.9 37.9 659 37.2 658.4 36.2 C 657.7 35.2 657.4 34 657.4 32.6 C 657.4 31.3 657.6 30.3 658.1 29.5 C 658.6 28.7 659.2 28.1 660.1 27.7 C 660.9 27.2 661.8 26.9 662.8 26.7 C 663.8 26.4 664.8 26.3 665.8 26.1 C 667.1 26 668.2 25.8 669.1 25.7 C 669.9 25.7 670.5 25.5 670.9 25.3 C 671.3 25.1 671.4 24.7 671.4 24.1 C 671.4 24.1 671.4 24 671.4 24 C 671.4 22.6 671.1 21.5 670.3 20.8 C 669.5 20 668.4 19.6 666.8 19.6 C 665.2 19.6 664 20 663.1 20.7 C 662.2 21.4 661.5 22.1 661.2 22.9 C 661.2 22.9 658 21.8 658 21.8 C 658.6 20.4 659.3 19.4 660.3 18.7 C 661.2 17.9 662.3 17.4 663.4 17.1 C 664.5 16.8 665.6 16.6 666.7 16.6 C 667.4 16.6 668.2 16.7 669.2 16.9 C 670.1 17.1 671 17.4 671.8 17.9 C 672.7 18.4 673.4 19.2 673.9 20.2 C 674.5 21.3 674.8 22.6 674.8 24.4 C 674.8 24.38 674.8 38.8 674.8 38.8 L 671.4 38.8 L 671.4 35.8 C 671.4 35.8 671.28 35.8 671.3 35.8 C 671.1 36.3 670.7 36.8 670.1 37.3 C 669.6 37.9 668.9 38.3 668 38.7 C 667.1 39.1 666.1 39.3 664.8 39.3 Z M 665.3 36.3 C 666.6 36.3 667.8 36 668.7 35.5 C 669.6 34.9 670.3 34.3 670.7 33.5 C 671.2 32.6 671.4 31.8 671.4 30.9 C 671.4 30.9 671.4 27.8 671.4 27.8 C 671.3 28 671 28.1 670.5 28.2 C 670 28.4 669.5 28.5 668.9 28.6 C 668.3 28.7 667.6 28.8 667.1 28.9 C 666.5 28.9 666 29 665.7 29 C 664.8 29.1 664 29.3 663.2 29.6 C 662.5 29.8 661.9 30.2 661.4 30.7 C 660.9 31.2 660.7 31.9 660.7 32.7 C 660.7 33.9 661.1 34.8 662 35.4 C 662.9 36 664 36.3 665.3 36.3 Z M 689.4 39.2 C 687.3 39.2 685.6 38.7 684.1 37.8 C 682.6 36.8 681.5 35.5 680.7 33.8 C 679.9 32.1 679.5 30.1 679.5 28 C 679.5 25.7 679.9 23.8 680.7 22.1 C 681.5 20.4 682.7 19.1 684.2 18.1 C 685.6 17.1 687.4 16.6 689.3 16.6 C 690.9 16.6 692.2 16.9 693.5 17.5 C 694.7 18.1 695.7 18.9 696.5 19.9 C 697.3 20.9 697.8 22.1 698 23.5 C 698 23.5 694.6 23.5 694.6 23.5 C 694.4 22.5 693.8 21.6 692.9 20.8 C 692 20 690.9 19.7 689.4 19.7 C 688.1 19.7 686.9 20 686 20.7 C 685 21.4 684.2 22.3 683.7 23.5 C 683.1 24.8 682.8 26.2 682.8 27.8 C 682.8 29.5 683.1 31 683.6 32.2 C 684.2 33.5 684.9 34.5 685.9 35.2 C 686.9 35.8 688.1 36.2 689.4 36.2 C 690.3 36.2 691 36 691.8 35.7 C 692.5 35.4 693.1 35 693.6 34.4 C 694 33.9 694.4 33.2 694.6 32.4 C 694.6 32.4 698 32.4 698 32.4 C 697.8 33.7 697.3 34.8 696.6 35.9 C 695.8 36.9 694.8 37.7 693.6 38.3 C 692.4 38.9 691 39.2 689.4 39.2 Z M 702.5 38.8 L 702.5 16.9 L 705.7 16.9 L 705.7 20.2 C 705.7 20.2 705.94 20.23 705.9 20.2 C 706.3 19.1 707.1 18.3 708.1 17.6 C 709.1 16.9 710.3 16.6 711.6 16.6 C 711.9 16.6 712.2 16.6 712.5 16.6 C 712.9 16.6 713.2 16.6 713.4 16.6 C 713.4 16.6 713.4 20.1 713.4 20.1 C 713.3 20 713 20 712.6 19.9 C 712.2 19.9 711.8 19.8 711.3 19.8 C 710.3 19.8 709.3 20 708.5 20.5 C 707.7 20.9 707 21.5 706.5 22.3 C 706.1 23.1 705.8 24 705.8 24.9 C 705.82 24.94 705.8 38.8 705.8 38.8 L 702.5 38.8 Z M 725.4 39.2 C 723.4 39.2 721.7 38.7 720.2 37.8 C 718.7 36.9 717.6 35.5 716.8 33.9 C 715.9 32.2 715.5 30.2 715.5 28 C 715.5 25.7 715.9 23.7 716.8 22 C 717.6 20.3 718.7 19 720.2 18.1 C 721.7 17.1 723.4 16.6 725.4 16.6 C 727.4 16.6 729.1 17.1 730.6 18.1 C 732.1 19 733.2 20.3 734 22 C 734.9 23.7 735.3 25.7 735.3 28 C 735.3 30.2 734.9 32.2 734 33.9 C 733.2 35.5 732.1 36.9 730.6 37.8 C 729.1 38.7 727.4 39.2 725.4 39.2 Z M 725.4 36.2 C 726.9 36.2 728.1 35.8 729.1 35 C 730.1 34.3 730.8 33.3 731.2 32 C 731.7 30.8 731.9 29.4 731.9 28 C 731.9 26.5 731.7 25.1 731.2 23.9 C 730.8 22.6 730.1 21.6 729.1 20.8 C 728.1 20 726.9 19.7 725.4 19.7 C 723.9 19.7 722.7 20 721.7 20.8 C 720.7 21.6 720 22.6 719.6 23.9 C 719.1 25.1 718.9 26.5 718.9 28 C 718.9 29.4 719.1 30.8 719.6 32 C 720 33.3 720.7 34.3 721.7 35 C 722.7 35.8 723.9 36.2 725.4 36.2 Z M 755 21.8 C 755 21.8 752 22.7 752 22.7 C 751.8 22.2 751.6 21.7 751.2 21.2 C 750.8 20.7 750.3 20.3 749.7 20 C 749.1 19.7 748.3 19.5 747.3 19.5 C 746 19.5 744.9 19.9 744 20.5 C 743.1 21.1 742.7 21.8 742.7 22.8 C 742.7 23.6 743 24.3 743.6 24.8 C 744.2 25.2 745.1 25.6 746.4 26 C 746.4 26 749.6 26.8 749.6 26.8 C 751.6 27.2 753.1 28 754 28.9 C 755 29.9 755.4 31.1 755.4 32.7 C 755.4 33.9 755.1 35 754.4 36 C 753.7 37 752.7 37.8 751.4 38.4 C 750.1 38.9 748.6 39.2 746.9 39.2 C 744.7 39.2 742.9 38.7 741.4 37.8 C 739.9 36.8 739 35.4 738.6 33.5 C 738.6 33.5 741.8 32.7 741.8 32.7 C 742.1 33.9 742.7 34.8 743.5 35.4 C 744.4 36 745.5 36.3 746.9 36.3 C 748.4 36.3 749.7 35.9 750.6 35.2 C 751.5 34.6 752 33.8 752 32.8 C 752 32.1 751.7 31.4 751.2 30.9 C 750.7 30.4 749.8 30 748.7 29.8 C 748.7 29.8 745.1 28.9 745.1 28.9 C 743.1 28.4 741.6 27.7 740.7 26.7 C 739.8 25.7 739.3 24.5 739.3 23 C 739.3 21.7 739.7 20.6 740.4 19.7 C 741 18.7 742 18 743.2 17.5 C 744.4 16.9 745.8 16.6 747.3 16.6 C 749.5 16.6 751.2 17.1 752.4 18.1 C 753.6 19 754.5 20.3 755 21.8 Z M 775.6 21.8 C 775.6 21.8 772.5 22.7 772.5 22.7 C 772.4 22.2 772.1 21.7 771.7 21.2 C 771.4 20.7 770.9 20.3 770.2 20 C 769.6 19.7 768.8 19.5 767.8 19.5 C 766.5 19.5 765.4 19.9 764.5 20.5 C 763.6 21.1 763.2 21.8 763.2 22.8 C 763.2 23.6 763.5 24.3 764.1 24.8 C 764.7 25.2 765.6 25.6 766.9 26 C 766.9 26 770.2 26.8 770.2 26.8 C 772.1 27.2 773.6 28 774.5 28.9 C 775.5 29.9 776 31.1 776 32.7 C 776 33.9 775.6 35 774.9 36 C 774.2 37 773.2 37.8 771.9 38.4 C 770.6 38.9 769.1 39.2 767.4 39.2 C 765.2 39.2 763.4 38.7 761.9 37.8 C 760.5 36.8 759.5 35.4 759.1 33.5 C 759.1 33.5 762.3 32.7 762.3 32.7 C 762.6 33.9 763.2 34.8 764 35.4 C 764.9 36 766 36.3 767.4 36.3 C 768.9 36.3 770.2 35.9 771.1 35.2 C 772 34.6 772.5 33.8 772.5 32.8 C 772.5 32.1 772.2 31.4 771.7 30.9 C 771.2 30.4 770.4 30 769.3 29.8 C 769.3 29.8 765.6 28.9 765.6 28.9 C 763.6 28.4 762.2 27.7 761.2 26.7 C 760.3 25.7 759.8 24.5 759.8 23 C 759.8 21.7 760.2 20.6 760.9 19.7 C 761.6 18.7 762.5 18 763.7 17.5 C 764.9 16.9 766.3 16.6 767.8 16.6 C 770 16.6 771.7 17.1 772.9 18.1 C 774.2 19 775 20.3 775.6 21.8 Z M 794.4 46.9 C 793.9 46.9 793.3 46.9 792.9 46.8 C 792.5 46.7 792.1 46.6 792 46.5 C 792 46.5 792.8 43.6 792.8 43.6 C 793.6 43.8 794.4 43.9 795 43.8 C 795.6 43.8 796.2 43.5 796.7 43 C 797.1 42.5 797.6 41.7 798 40.6 C 798 40.57 798.6 38.9 798.6 38.9 L 790.6 16.9 L 794.2 16.9 L 800.2 34.3 L 800.4 34.3 L 806.5 16.9 L 810.1 16.9 C 810.1 16.9 800.84 41.93 800.8 41.9 C 800.4 43.1 799.9 44 799.3 44.7 C 798.7 45.5 798 46 797.2 46.4 C 796.3 46.8 795.4 46.9 794.4 46.9 Z M 821.9 39.2 C 820 39.2 818.2 38.7 816.8 37.8 C 815.3 36.9 814.1 35.5 813.3 33.9 C 812.5 32.2 812 30.2 812 28 C 812 25.7 812.5 23.7 813.3 22 C 814.1 20.3 815.3 19 816.8 18.1 C 818.2 17.1 820 16.6 821.9 16.6 C 823.9 16.6 825.6 17.1 827.1 18.1 C 828.6 19 829.7 20.3 830.6 22 C 831.4 23.7 831.8 25.7 831.8 28 C 831.8 30.2 831.4 32.2 830.6 33.9 C 829.7 35.5 828.6 36.9 827.1 37.8 C 825.6 38.7 823.9 39.2 821.9 39.2 Z M 821.9 36.2 C 823.4 36.2 824.7 35.8 825.6 35 C 826.6 34.3 827.3 33.3 827.8 32 C 828.2 30.8 828.5 29.4 828.5 28 C 828.5 26.5 828.2 25.1 827.8 23.9 C 827.3 22.6 826.6 21.6 825.6 20.8 C 824.7 20 823.4 19.7 821.9 19.7 C 820.4 19.7 819.2 20 818.2 20.8 C 817.3 21.6 816.6 22.6 816.1 23.9 C 815.6 25.1 815.4 26.5 815.4 28 C 815.4 29.4 815.6 30.8 816.1 32 C 816.6 33.3 817.3 34.3 818.2 35 C 819.2 35.8 820.4 36.2 821.9 36.2 Z M 850.2 29.8 C 850.19 29.83 850.2 16.9 850.2 16.9 L 853.5 16.9 L 853.5 38.8 L 850.2 38.8 L 850.2 35.1 C 850.2 35.1 849.97 35.06 850 35.1 C 849.5 36.2 848.7 37.1 847.6 37.9 C 846.5 38.6 845.1 39 843.5 39 C 842.1 39 840.9 38.7 839.9 38.1 C 838.8 37.5 838 36.6 837.4 35.4 C 836.7 34.2 836.4 32.7 836.4 30.8 C 836.44 30.8 836.4 16.9 836.4 16.9 L 839.8 16.9 C 839.8 16.9 839.8 30.57 839.8 30.6 C 839.8 32.2 840.2 33.4 841.1 34.4 C 842 35.3 843.2 35.8 844.6 35.8 C 845.4 35.8 846.3 35.6 847.1 35.2 C 848 34.7 848.7 34.1 849.3 33.2 C 849.9 32.3 850.2 31.2 850.2 29.8 Z M 859.3 38.8 L 859.3 16.9 L 862.6 16.9 L 862.6 20.2 C 862.6 20.2 862.81 20.23 862.8 20.2 C 863.2 19.1 863.9 18.3 865 17.6 C 866 16.9 867.2 16.6 868.5 16.6 C 868.7 16.6 869 16.6 869.4 16.6 C 869.8 16.6 870.1 16.6 870.3 16.6 C 870.3 16.6 870.3 20.1 870.3 20.1 C 870.1 20 869.9 20 869.5 19.9 C 869.1 19.9 868.7 19.8 868.2 19.8 C 867.1 19.8 866.2 20 865.4 20.5 C 864.5 20.9 863.9 21.5 863.4 22.3 C 862.9 23.1 862.7 24 862.7 24.9 C 862.69 24.94 862.7 38.8 862.7 38.8 L 859.3 38.8 Z M 894.3 39.2 C 892.4 39.2 890.6 38.7 889.2 37.8 C 887.7 36.9 886.5 35.5 885.7 33.9 C 884.9 32.2 884.5 30.2 884.5 28 C 884.5 25.7 884.9 23.7 885.7 22 C 886.5 20.3 887.7 19 889.2 18.1 C 890.6 17.1 892.4 16.6 894.3 16.6 C 896.3 16.6 898 17.1 899.5 18.1 C 901 19 902.2 20.3 903 22 C 903.8 23.7 904.2 25.7 904.2 28 C 904.2 30.2 903.8 32.2 903 33.9 C 902.2 35.5 901 36.9 899.5 37.8 C 898 38.7 896.3 39.2 894.3 39.2 Z M 894.3 36.2 C 895.8 36.2 897.1 35.8 898 35 C 899 34.3 899.7 33.3 900.2 32 C 900.6 30.8 900.9 29.4 900.9 28 C 900.9 26.5 900.6 25.1 900.2 23.9 C 899.7 22.6 899 21.6 898 20.8 C 897.1 20 895.8 19.7 894.3 19.7 C 892.8 19.7 891.6 20 890.6 20.8 C 889.7 21.6 889 22.6 888.5 23.9 C 888 25.1 887.8 26.5 887.8 28 C 887.8 29.4 888 30.8 888.5 32 C 889 33.3 889.7 34.3 890.6 35 C 891.6 35.8 892.8 36.2 894.3 36.2 Z M 909 38.8 L 909 16.9 L 912.2 16.9 L 912.2 20.2 C 912.2 20.2 912.46 20.23 912.5 20.2 C 912.9 19.1 913.6 18.3 914.6 17.6 C 915.7 16.9 916.8 16.6 918.1 16.6 C 918.4 16.6 918.7 16.6 919.1 16.6 C 919.4 16.6 919.7 16.6 919.9 16.6 C 919.9 16.6 919.9 20.1 919.9 20.1 C 919.8 20 919.5 20 919.1 19.9 C 918.7 19.9 918.3 19.8 917.9 19.8 C 916.8 19.8 915.9 20 915 20.5 C 914.2 20.9 913.5 21.5 913.1 22.3 C 912.6 23.1 912.3 24 912.3 24.9 C 912.35 24.94 912.3 38.8 912.3 38.8 L 909 38.8 Z M 932 47.4 C 930.3 47.4 928.9 47.2 927.8 46.8 C 926.6 46.4 925.6 45.8 924.9 45.1 C 924.1 44.5 923.5 43.8 923 43 C 923 43 925.7 41.1 925.7 41.1 C 926 41.5 926.4 42 926.9 42.5 C 927.3 43 928 43.5 928.8 43.9 C 929.6 44.2 930.6 44.4 932 44.4 C 933.7 44.4 935.2 44 936.3 43.2 C 937.5 42.3 938 41 938 39.1 C 938.03 39.15 938 34.7 938 34.7 C 938 34.7 937.75 34.72 937.7 34.7 C 937.5 35.1 937.2 35.6 936.7 36.2 C 936.3 36.8 935.6 37.3 934.8 37.7 C 933.9 38.2 932.8 38.4 931.4 38.4 C 929.6 38.4 928 38 926.6 37.2 C 925.3 36.3 924.1 35.1 923.3 33.5 C 922.5 31.9 922.1 30 922.1 27.7 C 922.1 25.5 922.5 23.5 923.3 21.9 C 924.1 20.2 925.2 18.9 926.6 18 C 928 17.1 929.6 16.6 931.4 16.6 C 932.9 16.6 934 16.9 934.8 17.4 C 935.7 17.8 936.3 18.4 936.8 18.9 C 937.2 19.5 937.6 20 937.8 20.4 C 937.81 20.4 938.1 20.4 938.1 20.4 L 938.1 16.9 L 941.4 16.9 C 941.4 16.9 941.39 39.38 941.4 39.4 C 941.4 41.3 941 42.8 940.1 44 C 939.3 45.1 938.1 46 936.7 46.6 C 935.3 47.1 933.7 47.4 932 47.4 Z M 931.8 35.4 C 933.2 35.4 934.3 35.1 935.2 34.5 C 936.2 33.9 936.9 33 937.4 31.8 C 937.8 30.7 938.1 29.3 938.1 27.7 C 938.1 26.1 937.9 24.7 937.4 23.5 C 936.9 22.3 936.2 21.4 935.3 20.7 C 934.3 20 933.2 19.7 931.8 19.7 C 930.4 19.7 929.2 20 928.3 20.7 C 927.4 21.5 926.6 22.4 926.2 23.6 C 925.7 24.8 925.5 26.2 925.5 27.7 C 925.5 29.2 925.7 30.5 926.2 31.7 C 926.7 32.8 927.4 33.8 928.3 34.4 C 929.3 35.1 930.4 35.4 931.8 35.4 Z M 953.5 39.3 C 952.1 39.3 950.9 39 949.8 38.5 C 948.6 37.9 947.7 37.2 947.1 36.2 C 946.4 35.2 946.1 34 946.1 32.6 C 946.1 31.3 946.3 30.3 946.8 29.5 C 947.3 28.7 948 28.1 948.8 27.7 C 949.6 27.2 950.5 26.9 951.5 26.7 C 952.5 26.4 953.5 26.3 954.5 26.1 C 955.9 26 956.9 25.8 957.8 25.7 C 958.6 25.7 959.2 25.5 959.6 25.3 C 960 25.1 960.2 24.7 960.2 24.1 C 960.2 24.1 960.2 24 960.2 24 C 960.2 22.6 959.8 21.5 959 20.8 C 958.3 20 957.1 19.6 955.6 19.6 C 954 19.6 952.7 20 951.8 20.7 C 950.9 21.4 950.2 22.1 949.9 22.9 C 949.9 22.9 946.7 21.8 946.7 21.8 C 947.3 20.4 948 19.4 949 18.7 C 949.9 17.9 951 17.4 952.1 17.1 C 953.2 16.8 954.3 16.6 955.4 16.6 C 956.1 16.6 957 16.7 957.9 16.9 C 958.8 17.1 959.7 17.4 960.5 17.9 C 961.4 18.4 962.1 19.2 962.7 20.2 C 963.2 21.3 963.5 22.6 963.5 24.4 C 963.51 24.38 963.5 38.8 963.5 38.8 L 960.2 38.8 L 960.2 35.8 C 960.2 35.8 959.99 35.8 960 35.8 C 959.8 36.3 959.4 36.8 958.9 37.3 C 958.3 37.9 957.6 38.3 956.7 38.7 C 955.9 39.1 954.8 39.3 953.5 39.3 Z M 954 36.3 C 955.4 36.3 956.5 36 957.4 35.5 C 958.3 34.9 959 34.3 959.5 33.5 C 959.9 32.6 960.2 31.8 960.2 30.9 C 960.2 30.9 960.2 27.8 960.2 27.8 C 960 28 959.7 28.1 959.2 28.2 C 958.8 28.4 958.2 28.5 957.6 28.6 C 957 28.7 956.4 28.8 955.8 28.9 C 955.2 28.9 954.7 29 954.4 29 C 953.5 29.1 952.7 29.3 951.9 29.6 C 951.2 29.8 950.6 30.2 950.1 30.7 C 949.7 31.2 949.4 31.9 949.4 32.7 C 949.4 33.9 949.9 34.8 950.7 35.4 C 951.6 36 952.7 36.3 954 36.3 Z M 972.6 25.6 C 972.63 25.63 972.6 38.8 972.6 38.8 L 969.3 38.8 L 969.3 16.9 L 972.5 16.9 L 972.5 20.3 C 972.5 20.3 972.8 20.34 972.8 20.3 C 973.3 19.2 974.1 18.3 975.1 17.7 C 976.2 17 977.5 16.6 979.2 16.6 C 980.6 16.6 981.9 16.9 983 17.5 C 984.1 18.2 985 19.1 985.6 20.3 C 986.2 21.5 986.5 23 986.5 24.9 C 986.55 24.89 986.5 38.8 986.5 38.8 L 983.2 38.8 C 983.2 38.8 983.2 25.11 983.2 25.1 C 983.2 23.4 982.8 22.1 981.9 21.1 C 981 20.1 979.7 19.7 978.2 19.7 C 977.1 19.7 976.2 19.9 975.3 20.4 C 974.5 20.8 973.8 21.5 973.4 22.4 C 972.9 23.3 972.6 24.4 972.6 25.6 Z M 992.2 38.8 L 992.2 16.9 L 995.6 16.9 L 995.6 38.8 L 992.2 38.8 Z M 993.9 13.3 C 993.3 13.3 992.7 13.1 992.2 12.6 C 991.8 12.2 991.5 11.6 991.5 11 C 991.5 10.4 991.8 9.9 992.2 9.4 C 992.7 9 993.3 8.8 993.9 8.8 C 994.6 8.8 995.1 9 995.6 9.4 C 996.1 9.9 996.3 10.4 996.3 11 C 996.3 11.6 996.1 12.2 995.6 12.6 C 995.1 13.1 994.6 13.3 993.9 13.3 Z M 999.9 38.8 L 999.9 36.2 L 1012.3 20.3 L 1012.3 20.1 L 1000.3 20.1 L 1000.3 16.9 L 1016.7 16.9 L 1016.7 19.6 L 1004.6 35.4 L 1004.6 35.6 L 1017 35.6 L 1017 38.8 L 999.9 38.8 Z M 1028 39.3 C 1026.6 39.3 1025.3 39 1024.2 38.5 C 1023.1 37.9 1022.2 37.2 1021.5 36.2 C 1020.9 35.2 1020.5 34 1020.5 32.6 C 1020.5 31.3 1020.8 30.3 1021.3 29.5 C 1021.8 28.7 1022.4 28.1 1023.3 27.7 C 1024.1 27.2 1025 26.9 1026 26.7 C 1027 26.4 1028 26.3 1029 26.1 C 1030.3 26 1031.4 25.8 1032.2 25.7 C 1033.1 25.7 1033.7 25.5 1034.1 25.3 C 1034.4 25.1 1034.6 24.7 1034.6 24.1 C 1034.6 24.1 1034.6 24 1034.6 24 C 1034.6 22.6 1034.3 21.5 1033.5 20.8 C 1032.7 20 1031.6 19.6 1030 19.6 C 1028.4 19.6 1027.2 20 1026.3 20.7 C 1025.4 21.4 1024.7 22.1 1024.3 22.9 C 1024.3 22.9 1021.2 21.8 1021.2 21.8 C 1021.7 20.4 1022.5 19.4 1023.4 18.7 C 1024.4 17.9 1025.4 17.4 1026.6 17.1 C 1027.7 16.8 1028.8 16.6 1029.9 16.6 C 1030.6 16.6 1031.4 16.7 1032.3 16.9 C 1033.3 17.1 1034.1 17.4 1035 17.9 C 1035.9 18.4 1036.6 19.2 1037.1 20.2 C 1037.7 21.3 1038 22.6 1038 24.4 C 1037.98 24.38 1038 38.8 1038 38.8 L 1034.6 38.8 L 1034.6 35.8 C 1034.6 35.8 1034.46 35.8 1034.5 35.8 C 1034.2 36.3 1033.9 36.8 1033.3 37.3 C 1032.8 37.9 1032.1 38.3 1031.2 38.7 C 1030.3 39.1 1029.3 39.3 1028 39.3 Z M 1028.5 36.3 C 1029.8 36.3 1030.9 36 1031.9 35.5 C 1032.8 34.9 1033.5 34.3 1033.9 33.5 C 1034.4 32.6 1034.6 31.8 1034.6 30.9 C 1034.6 30.9 1034.6 27.8 1034.6 27.8 C 1034.5 28 1034.2 28.1 1033.7 28.2 C 1033.2 28.4 1032.7 28.5 1032.1 28.6 C 1031.4 28.7 1030.8 28.8 1030.2 28.9 C 1029.7 28.9 1029.2 29 1028.8 29 C 1028 29.1 1027.2 29.3 1026.4 29.6 C 1025.6 29.8 1025 30.2 1024.6 30.7 C 1024.1 31.2 1023.9 31.9 1023.9 32.7 C 1023.9 33.9 1024.3 34.8 1025.2 35.4 C 1026.1 36 1027.2 36.3 1028.5 36.3 Z M 1052.7 16.9 L 1052.7 19.8 L 1041.4 19.8 L 1041.4 16.9 L 1052.7 16.9 Z M 1044.7 11.7 L 1048 11.7 C 1048 11.7 1048.03 32.5 1048 32.5 C 1048 33.4 1048.2 34.2 1048.4 34.6 C 1048.7 35.1 1049.1 35.4 1049.5 35.6 C 1050 35.7 1050.4 35.8 1050.9 35.8 C 1051.3 35.8 1051.6 35.8 1051.8 35.7 C 1052.1 35.7 1052.3 35.7 1052.4 35.6 C 1052.4 35.6 1053.1 38.6 1053.1 38.6 C 1052.9 38.7 1052.5 38.8 1052.1 38.9 C 1051.7 39 1051.2 39 1050.6 39 C 1049.6 39 1048.7 38.8 1047.8 38.4 C 1046.9 38 1046.2 37.4 1045.6 36.6 C 1045 35.7 1044.7 34.7 1044.7 33.4 C 1044.67 33.41 1044.7 11.7 1044.7 11.7 Z M 1057.1 38.8 L 1057.1 16.9 L 1060.4 16.9 L 1060.4 38.8 L 1057.1 38.8 Z M 1058.8 13.3 C 1058.1 13.3 1057.5 13.1 1057.1 12.6 C 1056.6 12.2 1056.4 11.6 1056.4 11 C 1056.4 10.4 1056.6 9.9 1057.1 9.4 C 1057.5 9 1058.1 8.8 1058.8 8.8 C 1059.4 8.8 1060 9 1060.4 9.4 C 1060.9 9.9 1061.1 10.4 1061.1 11 C 1061.1 11.6 1060.9 12.2 1060.4 12.6 C 1060 13.1 1059.4 13.3 1058.8 13.3 Z M 1074.9 39.2 C 1073 39.2 1071.3 38.7 1069.8 37.8 C 1068.3 36.9 1067.1 35.5 1066.3 33.9 C 1065.5 32.2 1065.1 30.2 1065.1 28 C 1065.1 25.7 1065.5 23.7 1066.3 22 C 1067.1 20.3 1068.3 19 1069.8 18.1 C 1071.3 17.1 1073 16.6 1074.9 16.6 C 1076.9 16.6 1078.6 17.1 1080.1 18.1 C 1081.6 19 1082.8 20.3 1083.6 22 C 1084.4 23.7 1084.8 25.7 1084.8 28 C 1084.8 30.2 1084.4 32.2 1083.6 33.9 C 1082.8 35.5 1081.6 36.9 1080.1 37.8 C 1078.6 38.7 1076.9 39.2 1074.9 39.2 Z M 1074.9 36.2 C 1076.4 36.2 1077.7 35.8 1078.6 35 C 1079.6 34.3 1080.3 33.3 1080.8 32 C 1081.3 30.8 1081.5 29.4 1081.5 28 C 1081.5 26.5 1081.3 25.1 1080.8 23.9 C 1080.3 22.6 1079.6 21.6 1078.6 20.8 C 1077.7 20 1076.4 19.7 1074.9 19.7 C 1073.5 19.7 1072.2 20 1071.3 20.8 C 1070.3 21.6 1069.6 22.6 1069.1 23.9 C 1068.6 25.1 1068.4 26.5 1068.4 28 C 1068.4 29.4 1068.6 30.8 1069.1 32 C 1069.6 33.3 1070.3 34.3 1071.3 35 C 1072.2 35.8 1073.5 36.2 1074.9 36.2 Z M 1093 25.6 C 1092.96 25.63 1093 38.8 1093 38.8 L 1089.6 38.8 L 1089.6 16.9 L 1092.8 16.9 L 1092.8 20.3 C 1092.8 20.3 1093.13 20.34 1093.1 20.3 C 1093.6 19.2 1094.4 18.3 1095.5 17.7 C 1096.5 17 1097.8 16.6 1099.5 16.6 C 1101 16.6 1102.3 16.9 1103.4 17.5 C 1104.5 18.2 1105.3 19.1 1106 20.3 C 1106.6 21.5 1106.9 23 1106.9 24.9 C 1106.88 24.89 1106.9 38.8 1106.9 38.8 L 1103.5 38.8 C 1103.5 38.8 1103.53 25.11 1103.5 25.1 C 1103.5 23.4 1103.1 22.1 1102.2 21.1 C 1101.3 20.1 1100.1 19.7 1098.5 19.7 C 1097.5 19.7 1096.5 19.9 1095.7 20.4 C 1094.8 20.8 1094.2 21.5 1093.7 22.4 C 1093.2 23.3 1093 24.4 1093 25.6 Z " stroke="none" fill="#ffffff"/>  </g></svg>