<?xml version="1.0" standalone="no"?><!DOCTYPE svg PUBLIC "-//W3C//DTD SVG 1.1//EN" "http://www.w3.org/Graphics/SVG/1.1/DTD/svg11.dtd"><svg xmlns="http://www.w3.org/2000/svg" version="1.1" width="794.1px" height="134.3px" viewBox="0 -11 794.1 134.3" style="top:-11px">  <desc>Everyone’s selling it.</desc>  <defs/>  <g id="Polygon107589">    <path d="M 38.7 77.5 L 38.7 19.3 L 73.8 19.3 L 73.8 25.6 L 45.7 25.6 L 45.7 45.2 L 72 45.2 L 72 51.5 L 45.7 51.5 L 45.7 71.3 L 74.3 71.3 L 74.3 77.5 L 38.7 77.5 Z M 116.8 33.9 L 100.7 77.5 L 93.9 77.5 L 77.7 33.9 L 85 33.9 L 97.1 68.6 L 97.5 68.6 L 109.6 33.9 L 116.8 33.9 Z M 140.1 78.4 C 135.9 78.4 132.2 77.5 129.2 75.6 C 126.2 73.7 123.8 71.1 122.2 67.8 C 120.5 64.4 119.7 60.5 119.7 56 C 119.7 51.6 120.5 47.6 122.2 44.2 C 123.8 40.8 126.1 38.1 129.1 36.2 C 132 34.3 135.4 33.3 139.4 33.3 C 141.7 33.3 143.9 33.7 146.1 34.4 C 148.3 35.2 150.4 36.4 152.2 38.1 C 154 39.8 155.4 42 156.5 44.8 C 157.6 47.6 158.1 51 158.1 55.1 C 158.14 55.11 158.1 58 158.1 58 L 124.5 58 L 124.5 52.2 C 124.5 52.2 151.32 52.16 151.3 52.2 C 151.3 49.7 150.8 47.5 149.9 45.6 C 148.9 43.6 147.5 42.1 145.7 41 C 143.9 39.9 141.8 39.3 139.4 39.3 C 136.7 39.3 134.4 40 132.5 41.3 C 130.5 42.6 129 44.3 128 46.4 C 127 48.5 126.4 50.8 126.4 53.2 C 126.4 53.2 126.4 57 126.4 57 C 126.4 60.3 127 63.1 128.2 65.4 C 129.3 67.7 130.9 69.4 132.9 70.6 C 135 71.8 137.4 72.4 140.1 72.4 C 141.8 72.4 143.4 72.1 144.9 71.6 C 146.3 71.1 147.5 70.4 148.6 69.4 C 149.6 68.3 150.4 67.1 151 65.6 C 151 65.6 157.5 67.4 157.5 67.4 C 156.8 69.6 155.6 71.5 154 73.2 C 152.4 74.8 150.4 76.1 148.1 77 C 145.7 77.9 143 78.4 140.1 78.4 Z M 166.9 77.5 L 166.9 33.9 L 173.3 33.9 L 173.3 40.5 C 173.3 40.5 173.78 40.45 173.8 40.5 C 174.6 38.3 176 36.5 178.1 35.2 C 180.2 33.9 182.5 33.2 185.1 33.2 C 185.6 33.2 186.3 33.2 187 33.2 C 187.7 33.2 188.3 33.3 188.7 33.3 C 188.7 33.3 188.7 40.1 188.7 40.1 C 188.4 40.1 187.9 40 187.1 39.8 C 186.3 39.7 185.5 39.7 184.6 39.7 C 182.5 39.7 180.6 40.1 178.9 41 C 177.3 41.9 175.9 43.1 175 44.6 C 174 46.2 173.6 47.9 173.6 49.9 C 173.56 49.89 173.6 77.5 173.6 77.5 L 166.9 77.5 Z M 201.3 93.9 C 200.2 93.9 199.2 93.8 198.3 93.6 C 197.4 93.4 196.8 93.2 196.4 93.1 C 196.4 93.1 198.1 87.2 198.1 87.2 C 199.8 87.6 201.2 87.7 202.5 87.6 C 203.7 87.5 204.8 86.9 205.8 86 C 206.8 85 207.7 83.4 208.5 81.1 C 208.48 81.14 209.7 77.7 209.7 77.7 L 193.6 33.9 L 200.9 33.9 L 212.9 68.6 L 213.4 68.6 L 225.4 33.9 L 232.7 33.9 C 232.7 33.9 214.16 83.86 214.2 83.9 C 213.3 86.1 212.3 88 211.1 89.5 C 209.8 91 208.4 92.1 206.8 92.8 C 205.2 93.5 203.3 93.9 201.3 93.9 Z M 255.4 78.4 C 251.5 78.4 248 77.5 245 75.6 C 242.1 73.7 239.8 71.1 238.1 67.7 C 236.4 64.4 235.6 60.4 235.6 55.9 C 235.6 51.4 236.4 47.4 238.1 44 C 239.8 40.6 242.1 38 245 36.1 C 248 34.2 251.5 33.3 255.4 33.3 C 259.3 33.3 262.8 34.2 265.7 36.1 C 268.7 38 271 40.6 272.7 44 C 274.3 47.4 275.2 51.4 275.2 55.9 C 275.2 60.4 274.3 64.4 272.7 67.7 C 271 71.1 268.7 73.7 265.7 75.6 C 262.8 77.5 259.3 78.4 255.4 78.4 Z M 255.4 72.4 C 258.4 72.4 260.8 71.6 262.8 70.1 C 264.7 68.6 266.1 66.5 267.1 64 C 268 61.5 268.5 58.8 268.5 55.9 C 268.5 53 268 50.3 267.1 47.8 C 266.1 45.2 264.7 43.2 262.8 41.6 C 260.8 40.1 258.4 39.3 255.4 39.3 C 252.4 39.3 249.9 40.1 248 41.6 C 246.1 43.2 244.6 45.2 243.7 47.8 C 242.8 50.3 242.3 53 242.3 55.9 C 242.3 58.8 242.8 61.5 243.7 64 C 244.6 66.5 246.1 68.6 248 70.1 C 249.9 71.6 252.4 72.4 255.4 72.4 Z M 290.6 51.3 C 290.58 51.25 290.6 77.5 290.6 77.5 L 283.9 77.5 L 283.9 33.9 L 290.3 33.9 L 290.3 40.7 C 290.3 40.7 290.92 40.68 290.9 40.7 C 291.9 38.5 293.5 36.7 295.6 35.3 C 297.7 34 300.3 33.3 303.6 33.3 C 306.6 33.3 309.2 33.9 311.4 35.1 C 313.6 36.3 315.3 38.1 316.6 40.6 C 317.8 43 318.4 46.1 318.4 49.8 C 318.42 49.77 318.4 77.5 318.4 77.5 L 311.7 77.5 C 311.7 77.5 311.71 50.23 311.7 50.2 C 311.7 46.8 310.8 44.1 309 42.2 C 307.3 40.3 304.8 39.3 301.7 39.3 C 299.6 39.3 297.7 39.8 296 40.7 C 294.3 41.6 293 43 292 44.8 C 291.1 46.6 290.6 48.7 290.6 51.3 Z M 347.3 78.4 C 343.1 78.4 339.5 77.5 336.4 75.6 C 333.4 73.7 331 71.1 329.4 67.8 C 327.8 64.4 326.9 60.5 326.9 56 C 326.9 51.6 327.8 47.6 329.4 44.2 C 331 40.8 333.3 38.1 336.3 36.2 C 339.2 34.3 342.7 33.3 346.6 33.3 C 348.9 33.3 351.1 33.7 353.3 34.4 C 355.6 35.2 357.6 36.4 359.4 38.1 C 361.2 39.8 362.7 42 363.7 44.8 C 364.8 47.6 365.4 51 365.4 55.1 C 365.36 55.11 365.4 58 365.4 58 L 331.7 58 L 331.7 52.2 C 331.7 52.2 358.54 52.16 358.5 52.2 C 358.5 49.7 358.1 47.5 357.1 45.6 C 356.1 43.6 354.7 42.1 352.9 41 C 351.1 39.9 349 39.3 346.6 39.3 C 343.9 39.3 341.6 40 339.7 41.3 C 337.7 42.6 336.3 44.3 335.2 46.4 C 334.2 48.5 333.7 50.8 333.7 53.2 C 333.7 53.2 333.7 57 333.7 57 C 333.7 60.3 334.2 63.1 335.4 65.4 C 336.5 67.7 338.1 69.4 340.2 70.6 C 342.2 71.8 344.6 72.4 347.3 72.4 C 349.1 72.4 350.6 72.1 352.1 71.6 C 353.5 71.1 354.7 70.4 355.8 69.4 C 356.8 68.3 357.6 67.1 358.2 65.6 C 358.2 65.6 364.7 67.4 364.7 67.4 C 364 69.6 362.8 71.5 361.2 73.2 C 359.6 74.8 357.6 76.1 355.3 77 C 352.9 77.9 350.2 78.4 347.3 78.4 Z M 379.6 19.3 C 379.6 19.3 379.57 24.43 379.6 24.4 C 379.6 26 379.3 27.6 378.7 29.4 C 378.2 31.1 377.4 32.8 376.3 34.5 C 375.2 36.1 373.9 37.5 372.4 38.8 C 372.4 38.8 368.8 35.8 368.8 35.8 C 370 34.1 371 32.3 371.9 30.5 C 372.8 28.6 373.2 26.6 373.2 24.5 C 373.21 24.55 373.2 19.3 373.2 19.3 L 379.6 19.3 Z M 415.3 43.6 C 415.3 43.6 409.3 45.3 409.3 45.3 C 408.9 44.3 408.4 43.4 407.7 42.4 C 406.9 41.4 405.9 40.7 404.7 40 C 403.4 39.4 401.8 39.1 399.9 39.1 C 397.2 39.1 395 39.7 393.2 40.9 C 391.5 42.1 390.6 43.7 390.6 45.6 C 390.6 47.2 391.2 48.6 392.4 49.5 C 393.6 50.5 395.5 51.3 398.1 51.9 C 398.1 51.9 404.5 53.5 404.5 53.5 C 408.5 54.5 411.4 55.9 413.3 57.9 C 415.2 59.8 416.1 62.3 416.1 65.3 C 416.1 67.8 415.4 70.1 414 72 C 412.6 74 410.6 75.6 408 76.7 C 405.5 77.8 402.5 78.4 399.1 78.4 C 394.6 78.4 391 77.4 388 75.5 C 385.1 73.6 383.3 70.8 382.5 67 C 382.5 67 388.9 65.5 388.9 65.5 C 389.5 67.8 390.6 69.6 392.3 70.7 C 394 71.9 396.2 72.5 399 72.5 C 402.1 72.5 404.6 71.8 406.4 70.5 C 408.3 69.2 409.2 67.6 409.2 65.7 C 409.2 64.2 408.7 62.9 407.6 61.9 C 406.6 60.8 404.9 60.1 402.7 59.5 C 402.7 59.5 395.5 57.8 395.5 57.8 C 391.5 56.9 388.5 55.4 386.7 53.4 C 384.8 51.4 383.9 48.9 383.9 45.9 C 383.9 43.4 384.6 41.3 386 39.4 C 387.3 37.5 389.3 36 391.7 34.9 C 394.1 33.8 396.8 33.3 399.9 33.3 C 404.2 33.3 407.6 34.2 410.1 36.1 C 412.5 38 414.3 40.5 415.3 43.6 Z M 479.7 43.6 C 479.7 43.6 473.6 45.3 473.6 45.3 C 473.3 44.3 472.7 43.4 472 42.4 C 471.2 41.4 470.3 40.7 469 40 C 467.8 39.4 466.2 39.1 464.2 39.1 C 461.5 39.1 459.3 39.7 457.5 40.9 C 455.8 42.1 454.9 43.7 454.9 45.6 C 454.9 47.2 455.5 48.6 456.7 49.5 C 457.9 50.5 459.8 51.3 462.4 51.9 C 462.4 51.9 468.9 53.5 468.9 53.5 C 472.8 54.5 475.7 55.9 477.6 57.9 C 479.5 59.8 480.5 62.3 480.5 65.3 C 480.5 67.8 479.7 70.1 478.3 72 C 476.9 74 474.9 75.6 472.3 76.7 C 469.8 77.8 466.8 78.4 463.4 78.4 C 459 78.4 455.3 77.4 452.4 75.5 C 449.4 73.6 447.6 70.8 446.8 67 C 446.8 67 453.2 65.5 453.2 65.5 C 453.8 67.8 454.9 69.6 456.6 70.7 C 458.3 71.9 460.6 72.5 463.3 72.5 C 466.4 72.5 468.9 71.8 470.8 70.5 C 472.6 69.2 473.5 67.6 473.5 65.7 C 473.5 64.2 473 62.9 471.9 61.9 C 470.9 60.8 469.2 60.1 467 59.5 C 467 59.5 459.8 57.8 459.8 57.8 C 455.8 56.9 452.8 55.4 451 53.4 C 449.1 51.4 448.2 48.9 448.2 45.9 C 448.2 43.4 448.9 41.3 450.3 39.4 C 451.7 37.5 453.6 36 456 34.9 C 458.4 33.8 461.1 33.3 464.2 33.3 C 468.5 33.3 471.9 34.2 474.4 36.1 C 476.9 38 478.6 40.5 479.7 43.6 Z M 507 78.4 C 502.8 78.4 499.1 77.5 496.1 75.6 C 493.1 73.7 490.7 71.1 489.1 67.8 C 487.4 64.4 486.6 60.5 486.6 56 C 486.6 51.6 487.4 47.6 489.1 44.2 C 490.7 40.8 493 38.1 496 36.2 C 498.9 34.3 502.3 33.3 506.3 33.3 C 508.6 33.3 510.8 33.7 513 34.4 C 515.2 35.2 517.3 36.4 519.1 38.1 C 520.9 39.8 522.3 42 523.4 44.8 C 524.5 47.6 525 51 525 55.1 C 525.04 55.11 525 58 525 58 L 491.4 58 L 491.4 52.2 C 491.4 52.2 518.22 52.16 518.2 52.2 C 518.2 49.7 517.7 47.5 516.8 45.6 C 515.8 43.6 514.4 42.1 512.6 41 C 510.8 39.9 508.7 39.3 506.3 39.3 C 503.6 39.3 501.3 40 499.4 41.3 C 497.4 42.6 495.9 44.3 494.9 46.4 C 493.9 48.5 493.3 50.8 493.3 53.2 C 493.3 53.2 493.3 57 493.3 57 C 493.3 60.3 493.9 63.1 495.1 65.4 C 496.2 67.7 497.8 69.4 499.8 70.6 C 501.9 71.8 504.3 72.4 507 72.4 C 508.7 72.4 510.3 72.1 511.8 71.6 C 513.2 71.1 514.4 70.4 515.5 69.4 C 516.5 68.3 517.3 67.1 517.9 65.6 C 517.9 65.6 524.4 67.4 524.4 67.4 C 523.7 69.6 522.5 71.5 520.9 73.2 C 519.3 74.8 517.3 76.1 515 77 C 512.6 77.9 509.9 78.4 507 78.4 Z M 540.5 19.3 L 540.5 77.5 L 533.8 77.5 L 533.8 19.3 L 540.5 19.3 Z M 558 19.3 L 558 77.5 L 551.3 77.5 L 551.3 19.3 L 558 19.3 Z M 568.8 77.5 L 568.8 33.9 L 575.5 33.9 L 575.5 77.5 L 568.8 77.5 Z M 572.2 26.6 C 570.9 26.6 569.8 26.1 568.8 25.3 C 567.9 24.4 567.4 23.3 567.4 22 C 567.4 20.8 567.9 19.7 568.8 18.8 C 569.8 17.9 570.9 17.5 572.2 17.5 C 573.5 17.5 574.6 17.9 575.6 18.8 C 576.5 19.7 577 20.8 577 22 C 577 23.3 576.5 24.4 575.6 25.3 C 574.6 26.1 573.5 26.6 572.2 26.6 Z M 593 51.3 C 593 51.25 593 77.5 593 77.5 L 586.3 77.5 L 586.3 33.9 L 592.8 33.9 L 592.8 40.7 C 592.8 40.7 593.34 40.68 593.3 40.7 C 594.4 38.5 595.9 36.7 598 35.3 C 600.1 34 602.8 33.3 606.1 33.3 C 609 33.3 611.6 33.9 613.8 35.1 C 616 36.3 617.8 38.1 619 40.6 C 620.2 43 620.8 46.1 620.8 49.8 C 620.84 49.77 620.8 77.5 620.8 77.5 L 614.1 77.5 C 614.1 77.5 614.13 50.23 614.1 50.2 C 614.1 46.8 613.2 44.1 611.5 42.2 C 609.7 40.3 607.2 39.3 604.1 39.3 C 602 39.3 600.1 39.8 598.4 40.7 C 596.7 41.6 595.4 43 594.4 44.8 C 593.5 46.6 593 48.7 593 51.3 Z M 648.9 94.8 C 645.6 94.8 642.9 94.4 640.5 93.5 C 638.2 92.7 636.3 91.6 634.7 90.3 C 633.2 89 631.9 87.5 631 86 C 631 86 636.4 82.3 636.4 82.3 C 637 83.1 637.7 84 638.7 85 C 639.6 86 640.9 86.9 642.5 87.7 C 644.1 88.5 646.2 88.9 648.9 88.9 C 652.4 88.9 655.3 88 657.6 86.3 C 659.9 84.6 661 81.9 661 78.3 C 661.04 78.3 661 69.4 661 69.4 C 661 69.4 660.47 69.43 660.5 69.4 C 660 70.2 659.3 71.2 658.4 72.4 C 657.5 73.5 656.2 74.6 654.5 75.5 C 652.8 76.4 650.6 76.8 647.7 76.8 C 644.2 76.8 641.1 76 638.3 74.3 C 635.5 72.7 633.3 70.2 631.6 67 C 630 63.9 629.2 60 629.2 55.5 C 629.2 51 630 47.1 631.6 43.8 C 633.1 40.4 635.3 37.9 638.1 36 C 640.9 34.2 644.2 33.3 647.9 33.3 C 650.7 33.3 653 33.8 654.6 34.7 C 656.3 35.6 657.6 36.7 658.5 37.9 C 659.4 39.1 660.1 40 660.6 40.8 C 660.58 40.8 661.3 40.8 661.3 40.8 L 661.3 33.9 L 667.7 33.9 C 667.7 33.9 667.74 78.75 667.7 78.8 C 667.7 82.5 666.9 85.6 665.2 87.9 C 663.5 90.3 661.2 92 658.4 93.1 C 655.5 94.2 652.4 94.8 648.9 94.8 Z M 648.6 70.8 C 651.3 70.8 653.6 70.2 655.5 68.9 C 657.3 67.7 658.7 65.9 659.7 63.6 C 660.7 61.3 661.1 58.6 661.1 55.3 C 661.1 52.2 660.7 49.4 659.7 47 C 658.8 44.6 657.4 42.7 655.5 41.4 C 653.7 40 651.4 39.3 648.6 39.3 C 645.8 39.3 643.4 40 641.6 41.5 C 639.7 42.9 638.3 44.8 637.3 47.3 C 636.4 49.7 635.9 52.4 635.9 55.3 C 635.9 58.4 636.4 61 637.4 63.4 C 638.3 65.7 639.7 67.5 641.6 68.8 C 643.5 70.1 645.8 70.8 648.6 70.8 Z M 702.5 77.5 L 702.5 33.9 L 709.2 33.9 L 709.2 77.5 L 702.5 77.5 Z M 705.9 26.6 C 704.6 26.6 703.5 26.1 702.6 25.3 C 701.6 24.4 701.1 23.3 701.1 22 C 701.1 20.8 701.6 19.7 702.6 18.8 C 703.5 17.9 704.6 17.5 705.9 17.5 C 707.2 17.5 708.4 17.9 709.3 18.8 C 710.2 19.7 710.7 20.8 710.7 22 C 710.7 23.3 710.2 24.4 709.3 25.3 C 708.4 26.1 707.2 26.6 705.9 26.6 Z M 738.6 33.9 L 738.6 39.5 L 716 39.5 L 716 33.9 L 738.6 33.9 Z M 722.6 23.4 L 729.3 23.4 C 729.3 23.4 729.28 65 729.3 65 C 729.3 66.9 729.6 68.3 730.1 69.2 C 730.7 70.2 731.4 70.8 732.3 71.1 C 733.2 71.4 734.1 71.6 735.1 71.6 C 735.8 71.6 736.4 71.5 736.9 71.5 C 737.4 71.4 737.7 71.3 738 71.3 C 738 71.3 739.4 77.3 739.4 77.3 C 738.9 77.4 738.3 77.6 737.5 77.8 C 736.7 78 735.6 78.1 734.4 78.1 C 732.5 78.1 730.6 77.7 728.8 76.8 C 727 76 725.5 74.8 724.3 73.1 C 723.2 71.5 722.6 69.4 722.6 66.8 C 722.57 66.82 722.6 23.4 722.6 23.4 Z M 751.5 78 C 750.1 78 748.9 77.5 747.9 76.4 C 746.9 75.4 746.4 74.2 746.4 72.8 C 746.4 71.4 746.9 70.2 747.9 69.2 C 748.9 68.2 750.1 67.7 751.5 67.7 C 752.9 67.7 754.1 68.2 755.1 69.2 C 756.1 70.2 756.6 71.4 756.6 72.8 C 756.6 73.8 756.4 74.6 755.9 75.4 C 755.4 76.2 754.8 76.8 754 77.3 C 753.3 77.7 752.4 78 751.5 78 Z " stroke="none" fill="#ffffff"/>  </g></svg>