<?xml version="1.0" standalone="no"?><!DOCTYPE svg PUBLIC "-//W3C//DTD SVG 1.1//EN" "http://www.w3.org/Graphics/SVG/1.1/DTD/svg11.dtd"><svg xmlns="http://www.w3.org/2000/svg" version="1.1" width="900px" height="252.2px" viewBox="0 -25 900 252.2" style="top:-25px">  <desc>Anaplan Intelligence is easy to use and understand</desc>  <defs/>  <g id="Polygon120790">    <path d="M 20.7 129.8 C 16.9 129.8 13.7 129.1 11 127.5 C 8.3 126 6.2 123.8 4.8 121 C 3.3 118.2 2.6 114.9 2.6 111 C 2.6 107.3 3.3 104 4.8 101.1 C 6.2 98.3 8.3 96.1 10.9 94.5 C 13.6 92.9 16.7 92.1 20.3 92.1 C 22.7 92.1 25 92.5 27 93.3 C 29.1 94 31 95.2 32.5 96.7 C 34.1 98.3 35.3 100.2 36.2 102.5 C 37 104.8 37.5 107.6 37.5 110.7 C 37.47 110.66 37.5 113.4 37.5 113.4 L 6.6 113.4 L 6.6 107.2 C 6.6 107.2 27.93 107.17 27.9 107.2 C 27.9 105.7 27.6 104.4 27 103.3 C 26.3 102.2 25.5 101.3 24.4 100.6 C 23.2 100 21.9 99.7 20.5 99.7 C 18.9 99.7 17.6 100 16.4 100.7 C 15.2 101.4 14.3 102.4 13.6 103.6 C 12.9 104.7 12.6 106.1 12.6 107.5 C 12.6 107.5 12.6 113.5 12.6 113.5 C 12.6 115.3 12.9 116.8 13.6 118.2 C 14.3 119.5 15.2 120.5 16.5 121.2 C 17.7 121.9 19.2 122.3 20.9 122.3 C 22 122.3 23 122.1 24 121.8 C 24.9 121.5 25.7 121 26.4 120.4 C 27 119.7 27.5 119 27.9 118 C 27.9 118 37.3 118.7 37.3 118.7 C 36.8 120.9 35.8 122.9 34.3 124.5 C 32.9 126.2 31 127.5 28.7 128.4 C 26.4 129.4 23.7 129.8 20.7 129.8 Z M 53.4 129.8 C 51.1 129.8 49 129.4 47.2 128.6 C 45.4 127.8 43.9 126.6 42.9 125 C 41.8 123.3 41.3 121.3 41.3 118.9 C 41.3 116.9 41.7 115.2 42.4 113.8 C 43.2 112.4 44.2 111.3 45.5 110.5 C 46.8 109.6 48.2 109 49.9 108.6 C 51.5 108.1 53.2 107.8 55 107.7 C 57.2 107.4 58.9 107.2 60.2 107 C 61.5 106.8 62.4 106.5 63 106.1 C 63.6 105.7 63.9 105.2 63.9 104.4 C 63.9 104.4 63.9 104.2 63.9 104.2 C 63.9 102.7 63.4 101.6 62.5 100.7 C 61.5 99.9 60.2 99.5 58.5 99.5 C 56.6 99.5 55.2 99.9 54.1 100.7 C 53 101.5 52.3 102.5 52 103.7 C 52 103.7 42.6 103 42.6 103 C 43.1 100.7 44 98.8 45.4 97.2 C 46.8 95.6 48.6 94.3 50.8 93.4 C 53 92.5 55.6 92.1 58.5 92.1 C 60.5 92.1 62.5 92.3 64.4 92.8 C 66.2 93.3 67.9 94 69.3 95 C 70.8 96 71.9 97.3 72.8 98.9 C 73.6 100.4 74 102.3 74 104.5 C 74.02 104.48 74 129.1 74 129.1 L 64.4 129.1 L 64.4 124.1 C 64.4 124.1 64.13 124.06 64.1 124.1 C 63.5 125.2 62.8 126.2 61.8 127.1 C 60.8 127.9 59.6 128.6 58.2 129.1 C 56.8 129.6 55.3 129.8 53.4 129.8 Z M 56.3 122.8 C 57.8 122.8 59.2 122.5 60.3 121.9 C 61.4 121.3 62.3 120.5 63 119.5 C 63.6 118.5 64 117.3 64 116.1 C 64 116.1 64 112.2 64 112.2 C 63.6 112.4 63.2 112.6 62.7 112.7 C 62.1 112.9 61.5 113.1 60.8 113.2 C 60.1 113.3 59.5 113.5 58.8 113.6 C 58.1 113.7 57.5 113.7 56.9 113.8 C 55.7 114 54.7 114.3 53.8 114.7 C 52.9 115 52.2 115.6 51.7 116.2 C 51.2 116.8 51 117.6 51 118.6 C 51 120 51.5 121 52.5 121.7 C 53.5 122.5 54.8 122.8 56.3 122.8 Z M 111.2 103 C 111.2 103 102 103.6 102 103.6 C 101.8 102.8 101.5 102.1 100.9 101.4 C 100.4 100.8 99.7 100.3 98.9 99.9 C 98 99.5 97 99.3 95.8 99.3 C 94.3 99.3 92.9 99.6 91.9 100.3 C 90.8 100.9 90.2 101.8 90.2 102.9 C 90.2 103.8 90.6 104.5 91.3 105.1 C 92 105.7 93.2 106.2 94.9 106.6 C 94.9 106.6 101.5 107.9 101.5 107.9 C 105.1 108.6 107.7 109.8 109.4 111.4 C 111.2 113 112.1 115.2 112.1 117.8 C 112.1 120.2 111.4 122.3 110 124.1 C 108.6 125.9 106.6 127.3 104.2 128.3 C 101.8 129.3 99 129.8 95.8 129.8 C 91 129.8 87.1 128.8 84.2 126.8 C 81.4 124.8 79.7 122 79.2 118.5 C 79.2 118.5 89.2 118 89.2 118 C 89.5 119.5 90.2 120.6 91.4 121.4 C 92.5 122.2 94 122.5 95.8 122.5 C 97.6 122.5 99 122.2 100.1 121.5 C 101.2 120.8 101.7 119.9 101.8 118.8 C 101.7 117.9 101.4 117.1 100.6 116.6 C 99.8 116 98.7 115.5 97.1 115.2 C 97.1 115.2 90.7 113.9 90.7 113.9 C 87.2 113.2 84.5 112 82.8 110.2 C 81.1 108.5 80.2 106.2 80.2 103.5 C 80.2 101.1 80.8 99.1 82.1 97.4 C 83.4 95.7 85.2 94.4 87.5 93.5 C 89.8 92.6 92.5 92.1 95.7 92.1 C 100.3 92.1 103.9 93.1 106.6 95 C 109.2 97 110.8 99.6 111.2 103 Z M 122.5 142.8 C 121.2 142.8 120 142.7 118.9 142.5 C 117.8 142.3 116.8 142.1 116.1 141.8 C 116.1 141.8 118.4 134.2 118.4 134.2 C 119.6 134.6 120.7 134.8 121.6 134.8 C 122.6 134.8 123.4 134.6 124.1 134.1 C 124.8 133.7 125.4 132.9 125.8 131.7 C 125.83 131.72 126.4 130.2 126.4 130.2 L 113.3 92.6 L 124 92.6 L 131.5 119.4 L 131.9 119.4 L 139.6 92.6 L 150.3 92.6 C 150.3 92.6 136.09 133.08 136.1 133.1 C 135.4 135 134.5 136.8 133.3 138.2 C 132.2 139.7 130.7 140.8 128.9 141.6 C 127.1 142.4 125 142.8 122.5 142.8 Z M 190.5 92.6 L 190.5 100.2 L 168.4 100.2 L 168.4 92.6 L 190.5 92.6 Z M 173.4 83.8 L 183.6 83.8 C 183.6 83.8 183.58 117.9 183.6 117.9 C 183.6 118.8 183.7 119.6 184 120.1 C 184.3 120.6 184.7 121 185.2 121.2 C 185.7 121.4 186.3 121.5 187 121.5 C 187.5 121.5 188 121.4 188.4 121.3 C 188.9 121.2 189.3 121.2 189.5 121.1 C 189.5 121.1 191.1 128.7 191.1 128.7 C 190.6 128.8 189.9 129 189 129.2 C 188.1 129.4 186.9 129.6 185.6 129.6 C 183.2 129.7 181 129.4 179.2 128.7 C 177.4 127.9 176 126.7 174.9 125.2 C 173.9 123.6 173.4 121.6 173.4 119.2 C 173.44 119.23 173.4 83.8 173.4 83.8 Z M 211.4 129.8 C 207.7 129.8 204.5 129.1 201.8 127.5 C 199.1 125.9 197.1 123.7 195.6 120.9 C 194.1 118 193.4 114.7 193.4 111 C 193.4 107.2 194.1 103.9 195.6 101.1 C 197.1 98.3 199.1 96.1 201.8 94.5 C 204.5 92.9 207.7 92.1 211.4 92.1 C 215.1 92.1 218.3 92.9 221 94.5 C 223.7 96.1 225.7 98.3 227.2 101.1 C 228.7 103.9 229.4 107.2 229.4 111 C 229.4 114.7 228.7 118 227.2 120.9 C 225.7 123.7 223.7 125.9 221 127.5 C 218.3 129.1 215.1 129.8 211.4 129.8 Z M 211.5 122 C 213.1 122 214.5 121.5 215.7 120.6 C 216.8 119.6 217.6 118.3 218.2 116.6 C 218.8 114.9 219.1 113.1 219.1 110.9 C 219.1 108.8 218.8 106.9 218.2 105.2 C 217.6 103.6 216.8 102.3 215.7 101.3 C 214.5 100.3 213.1 99.8 211.5 99.8 C 209.8 99.8 208.3 100.3 207.2 101.3 C 206 102.3 205.2 103.6 204.6 105.2 C 204 106.9 203.7 108.8 203.7 110.9 C 203.7 113.1 204 114.9 204.6 116.6 C 205.2 118.3 206 119.6 207.2 120.6 C 208.3 121.5 209.8 122 211.5 122 Z M 275 113.6 C 274.98 113.57 275 92.6 275 92.6 L 285.1 92.6 L 285.1 129.1 L 275.4 129.1 L 275.4 122.5 C 275.4 122.5 275 122.49 275 122.5 C 274.2 124.6 272.8 126.4 270.9 127.7 C 269 129 266.7 129.6 263.9 129.6 C 261.5 129.6 259.3 129 257.5 127.9 C 255.6 126.8 254.2 125.2 253.1 123.2 C 252.1 121.2 251.6 118.7 251.5 115.9 C 251.54 115.85 251.5 92.6 251.5 92.6 L 261.7 92.6 C 261.7 92.6 261.68 114.04 261.7 114 C 261.7 116.2 262.3 117.9 263.4 119.2 C 264.6 120.4 266.1 121 268 121 C 269.2 121 270.4 120.8 271.4 120.2 C 272.5 119.6 273.4 118.8 274 117.7 C 274.7 116.6 275 115.2 275 113.6 Z M 322.7 103 C 322.7 103 313.4 103.6 313.4 103.6 C 313.3 102.8 312.9 102.1 312.4 101.4 C 311.9 100.8 311.2 100.3 310.3 99.9 C 309.5 99.5 308.5 99.3 307.3 99.3 C 305.7 99.3 304.4 99.6 303.3 100.3 C 302.2 100.9 301.7 101.8 301.7 102.9 C 301.7 103.8 302.1 104.5 302.8 105.1 C 303.5 105.7 304.7 106.2 306.3 106.6 C 306.3 106.6 313 107.9 313 107.9 C 316.5 108.6 319.2 109.8 320.9 111.4 C 322.7 113 323.5 115.2 323.5 117.8 C 323.5 120.2 322.8 122.3 321.4 124.1 C 320 125.9 318.1 127.3 315.7 128.3 C 313.2 129.3 310.4 129.8 307.3 129.8 C 302.4 129.8 298.6 128.8 295.7 126.8 C 292.8 124.8 291.2 122 290.7 118.5 C 290.7 118.5 300.6 118 300.6 118 C 300.9 119.5 301.7 120.6 302.8 121.4 C 304 122.2 305.5 122.5 307.3 122.5 C 309.1 122.5 310.5 122.2 311.6 121.5 C 312.7 120.8 313.2 119.9 313.2 118.8 C 313.2 117.9 312.8 117.1 312.1 116.6 C 311.3 116 310.1 115.5 308.5 115.2 C 308.5 115.2 302.2 113.9 302.2 113.9 C 298.6 113.2 296 112 294.2 110.2 C 292.5 108.5 291.6 106.2 291.6 103.5 C 291.6 101.1 292.3 99.1 293.6 97.4 C 294.8 95.7 296.6 94.4 299 93.5 C 301.3 92.6 304 92.1 307.1 92.1 C 311.7 92.1 315.4 93.1 318 95 C 320.7 97 322.2 99.6 322.7 103 Z M 345.4 129.8 C 341.6 129.8 338.4 129.1 335.7 127.5 C 333 126 330.9 123.8 329.5 121 C 328 118.2 327.3 114.9 327.3 111 C 327.3 107.3 328 104 329.5 101.1 C 330.9 98.3 333 96.1 335.6 94.5 C 338.3 92.9 341.4 92.1 345 92.1 C 347.4 92.1 349.7 92.5 351.7 93.3 C 353.8 94 355.7 95.2 357.2 96.7 C 358.8 98.3 360 100.2 360.9 102.5 C 361.7 104.8 362.2 107.6 362.2 110.7 C 362.18 110.66 362.2 113.4 362.2 113.4 L 331.3 113.4 L 331.3 107.2 C 331.3 107.2 352.63 107.17 352.6 107.2 C 352.6 105.7 352.3 104.4 351.7 103.3 C 351 102.2 350.2 101.3 349.1 100.6 C 347.9 100 346.6 99.7 345.2 99.7 C 343.6 99.7 342.3 100 341.1 100.7 C 339.9 101.4 339 102.4 338.3 103.6 C 337.6 104.7 337.3 106.1 337.3 107.5 C 337.3 107.5 337.3 113.5 337.3 113.5 C 337.3 115.3 337.6 116.8 338.3 118.2 C 339 119.5 339.9 120.5 341.2 121.2 C 342.4 121.9 343.9 122.3 345.6 122.3 C 346.7 122.3 347.7 122.1 348.7 121.8 C 349.6 121.5 350.4 121 351.1 120.4 C 351.7 119.7 352.2 119 352.6 118 C 352.6 118 362 118.7 362 118.7 C 361.5 120.9 360.5 122.9 359 124.5 C 357.6 126.2 355.7 127.5 353.4 128.4 C 351.1 129.4 348.4 129.8 345.4 129.8 Z M 394.7 129.8 C 392.4 129.8 390.3 129.4 388.5 128.6 C 386.7 127.8 385.2 126.6 384.2 125 C 383.1 123.3 382.6 121.3 382.6 118.9 C 382.6 116.9 383 115.2 383.7 113.8 C 384.5 112.4 385.5 111.3 386.8 110.5 C 388.1 109.6 389.5 109 391.2 108.6 C 392.8 108.1 394.5 107.8 396.3 107.7 C 398.5 107.4 400.2 107.2 401.5 107 C 402.8 106.8 403.7 106.5 404.3 106.1 C 404.9 105.7 405.2 105.2 405.2 104.4 C 405.2 104.4 405.2 104.2 405.2 104.2 C 405.2 102.7 404.7 101.6 403.8 100.7 C 402.8 99.9 401.5 99.5 399.8 99.5 C 397.9 99.5 396.5 99.9 395.4 100.7 C 394.3 101.5 393.6 102.5 393.3 103.7 C 393.3 103.7 383.9 103 383.9 103 C 384.4 100.7 385.3 98.8 386.7 97.2 C 388.1 95.6 389.9 94.3 392.1 93.4 C 394.3 92.5 396.9 92.1 399.8 92.1 C 401.8 92.1 403.8 92.3 405.7 92.8 C 407.5 93.3 409.2 94 410.6 95 C 412.1 96 413.2 97.3 414.1 98.9 C 414.9 100.4 415.3 102.3 415.3 104.5 C 415.33 104.48 415.3 129.1 415.3 129.1 L 405.7 129.1 L 405.7 124.1 C 405.7 124.1 405.43 124.06 405.4 124.1 C 404.8 125.2 404.1 126.2 403.1 127.1 C 402.1 127.9 400.9 128.6 399.5 129.1 C 398.1 129.6 396.6 129.8 394.7 129.8 Z M 397.7 122.8 C 399.1 122.8 400.5 122.5 401.6 121.9 C 402.7 121.3 403.6 120.5 404.3 119.5 C 404.9 118.5 405.3 117.3 405.3 116.1 C 405.3 116.1 405.3 112.2 405.3 112.2 C 404.9 112.4 404.5 112.6 404 112.7 C 403.4 112.9 402.8 113.1 402.1 113.2 C 401.4 113.3 400.8 113.5 400.1 113.6 C 399.4 113.7 398.8 113.7 398.2 113.8 C 397 114 396 114.3 395.1 114.7 C 394.2 115 393.5 115.6 393 116.2 C 392.5 116.8 392.3 117.6 392.3 118.6 C 392.3 120 392.8 121 393.8 121.7 C 394.8 122.5 396.1 122.8 397.7 122.8 Z M 432.8 108 C 432.8 108 432.8 129.1 432.8 129.1 L 422.7 129.1 L 422.7 92.6 L 432.3 92.6 L 432.3 99 C 432.3 99 432.75 99.03 432.7 99 C 433.6 96.9 434.9 95.2 436.8 94 C 438.7 92.7 441 92.1 443.7 92.1 C 446.3 92.1 448.5 92.7 450.4 93.8 C 452.3 94.9 453.7 96.5 454.8 98.5 C 455.8 100.6 456.4 103 456.4 105.9 C 456.35 105.86 456.4 129.1 456.4 129.1 L 446.2 129.1 C 446.2 129.1 446.21 107.67 446.2 107.7 C 446.2 105.4 445.7 103.7 444.5 102.4 C 443.3 101.2 441.7 100.5 439.7 100.5 C 438.4 100.5 437.2 100.8 436.1 101.4 C 435.1 102 434.3 102.8 433.7 104 C 433.1 105.1 432.8 106.4 432.8 108 Z M 476.9 129.7 C 474.1 129.7 471.6 129 469.4 127.6 C 467.1 126.1 465.4 124 464.1 121.2 C 462.8 118.4 462.1 115 462.1 110.9 C 462.1 106.7 462.8 103.2 464.1 100.4 C 465.5 97.7 467.3 95.6 469.5 94.2 C 471.8 92.8 474.2 92.1 476.9 92.1 C 478.9 92.1 480.7 92.5 482 93.1 C 483.4 93.8 484.5 94.7 485.4 95.7 C 486.2 96.7 486.9 97.7 487.3 98.7 C 487.3 98.72 487.6 98.7 487.6 98.7 L 487.6 80.4 L 497.7 80.4 L 497.7 129.1 L 487.7 129.1 L 487.7 123.3 C 487.7 123.3 487.3 123.27 487.3 123.3 C 486.8 124.3 486.1 125.3 485.3 126.3 C 484.4 127.3 483.3 128.1 481.9 128.7 C 480.6 129.4 478.9 129.7 476.9 129.7 Z M 480.1 121.7 C 481.8 121.7 483.2 121.2 484.3 120.3 C 485.4 119.4 486.3 118.2 486.9 116.5 C 487.5 114.9 487.8 113 487.8 110.9 C 487.8 108.7 487.5 106.8 486.9 105.2 C 486.3 103.6 485.4 102.4 484.3 101.5 C 483.2 100.6 481.8 100.2 480.1 100.2 C 478.5 100.2 477.1 100.6 475.9 101.5 C 474.8 102.4 473.9 103.7 473.3 105.3 C 472.7 106.9 472.4 108.7 472.4 110.9 C 472.4 113 472.7 114.9 473.3 116.5 C 473.9 118.1 474.8 119.4 475.9 120.3 C 477.1 121.2 478.5 121.7 480.1 121.7 Z M 545 113.6 C 544.99 113.57 545 92.6 545 92.6 L 555.1 92.6 L 555.1 129.1 L 545.4 129.1 L 545.4 122.5 C 545.4 122.5 545.02 122.49 545 122.5 C 544.2 124.6 542.8 126.4 540.9 127.7 C 539 129 536.7 129.6 533.9 129.6 C 531.5 129.6 529.3 129 527.5 127.9 C 525.6 126.8 524.2 125.2 523.1 123.2 C 522.1 121.2 521.6 118.7 521.6 115.9 C 521.56 115.85 521.6 92.6 521.6 92.6 L 531.7 92.6 C 531.7 92.6 531.69 114.04 531.7 114 C 531.7 116.2 532.3 117.9 533.4 119.2 C 534.6 120.4 536.1 121 538 121 C 539.2 121 540.4 120.8 541.4 120.2 C 542.5 119.6 543.4 118.8 544 117.7 C 544.7 116.6 545 115.2 545 113.6 Z M 572.7 108 C 572.74 108 572.7 129.1 572.7 129.1 L 562.6 129.1 L 562.6 92.6 L 572.3 92.6 L 572.3 99 C 572.3 99 572.69 99.03 572.7 99 C 573.5 96.9 574.9 95.2 576.8 94 C 578.7 92.7 581 92.1 583.7 92.1 C 586.2 92.1 588.4 92.7 590.3 93.8 C 592.2 94.9 593.7 96.5 594.7 98.5 C 595.8 100.6 596.3 103 596.3 105.9 C 596.29 105.86 596.3 129.1 596.3 129.1 L 586.2 129.1 C 586.2 129.1 586.16 107.67 586.2 107.7 C 586.2 105.4 585.6 103.7 584.4 102.4 C 583.3 101.2 581.7 100.5 579.7 100.5 C 578.3 100.5 577.1 100.8 576.1 101.4 C 575 102 574.2 102.8 573.6 104 C 573 105.1 572.8 106.4 572.7 108 Z M 616.9 129.7 C 614.1 129.7 611.6 129 609.3 127.6 C 607.1 126.1 605.3 124 604 121.2 C 602.7 118.4 602 115 602 110.9 C 602 106.7 602.7 103.2 604.1 100.4 C 605.4 97.7 607.2 95.6 609.5 94.2 C 611.7 92.8 614.2 92.1 616.8 92.1 C 618.9 92.1 620.6 92.5 622 93.1 C 623.3 93.8 624.4 94.7 625.3 95.7 C 626.1 96.7 626.8 97.7 627.2 98.7 C 627.24 98.72 627.5 98.7 627.5 98.7 L 627.5 80.4 L 637.7 80.4 L 637.7 129.1 L 627.7 129.1 L 627.7 123.3 C 627.7 123.3 627.24 123.27 627.2 123.3 C 626.8 124.3 626.1 125.3 625.2 126.3 C 624.4 127.3 623.2 128.1 621.9 128.7 C 620.5 129.4 618.8 129.7 616.9 129.7 Z M 620.1 121.7 C 621.7 121.7 623.1 121.2 624.2 120.3 C 625.4 119.4 626.2 118.2 626.8 116.5 C 627.5 114.9 627.8 113 627.8 110.9 C 627.8 108.7 627.5 106.8 626.9 105.2 C 626.3 103.6 625.4 102.4 624.2 101.5 C 623.1 100.6 621.7 100.2 620.1 100.2 C 618.4 100.2 617 100.6 615.9 101.5 C 614.7 102.4 613.9 103.7 613.3 105.3 C 612.7 106.9 612.4 108.7 612.4 110.9 C 612.4 113 612.7 114.9 613.3 116.5 C 613.9 118.1 614.7 119.4 615.9 120.3 C 617 121.2 618.4 121.7 620.1 121.7 Z M 661.7 129.8 C 658 129.8 654.8 129.1 652 127.5 C 649.3 126 647.3 123.8 645.8 121 C 644.3 118.2 643.6 114.9 643.6 111 C 643.6 107.3 644.3 104 645.8 101.1 C 647.3 98.3 649.3 96.1 652 94.5 C 654.6 92.9 657.8 92.1 661.3 92.1 C 663.8 92.1 666 92.5 668.1 93.3 C 670.2 94 672 95.2 673.6 96.7 C 675.1 98.3 676.3 100.2 677.2 102.5 C 678.1 104.8 678.5 107.6 678.5 110.7 C 678.52 110.66 678.5 113.4 678.5 113.4 L 647.7 113.4 L 647.7 107.2 C 647.7 107.2 668.98 107.17 669 107.2 C 669 105.7 668.7 104.4 668 103.3 C 667.4 102.2 666.5 101.3 665.4 100.6 C 664.3 100 663 99.7 661.5 99.7 C 660 99.7 658.6 100 657.4 100.7 C 656.2 101.4 655.3 102.4 654.7 103.6 C 654 104.7 653.6 106.1 653.6 107.5 C 653.6 107.5 653.6 113.5 653.6 113.5 C 653.6 115.3 654 116.8 654.6 118.2 C 655.3 119.5 656.3 120.5 657.5 121.2 C 658.7 121.9 660.2 122.3 661.9 122.3 C 663 122.3 664.1 122.1 665 121.8 C 665.9 121.5 666.7 121 667.4 120.4 C 668.1 119.7 668.6 119 668.9 118 C 668.9 118 678.3 118.7 678.3 118.7 C 677.8 120.9 676.9 122.9 675.4 124.5 C 673.9 126.2 672 127.5 669.7 128.4 C 667.4 129.4 664.8 129.8 661.7 129.8 Z M 684.5 129.1 L 684.5 92.6 L 694.3 92.6 L 694.3 99 C 694.3 99 694.72 98.96 694.7 99 C 695.4 96.7 696.5 95 698.1 93.8 C 699.6 92.6 701.4 92.1 703.5 92.1 C 704 92.1 704.6 92.1 705.1 92.2 C 705.7 92.2 706.2 92.3 706.7 92.4 C 706.7 92.4 706.7 101.4 706.7 101.4 C 706.2 101.3 705.5 101.1 704.7 101 C 703.9 100.9 703.1 100.9 702.4 100.9 C 700.9 100.9 699.6 101.2 698.4 101.8 C 697.3 102.5 696.3 103.4 695.7 104.5 C 695 105.6 694.6 107 694.6 108.5 C 694.64 108.45 694.6 129.1 694.6 129.1 L 684.5 129.1 Z M 741.5 103 C 741.5 103 732.2 103.6 732.2 103.6 C 732 102.8 731.7 102.1 731.2 101.4 C 730.7 100.8 730 100.3 729.1 99.9 C 728.3 99.5 727.3 99.3 726.1 99.3 C 724.5 99.3 723.2 99.6 722.1 100.3 C 721 100.9 720.5 101.8 720.5 102.9 C 720.5 103.8 720.8 104.5 721.5 105.1 C 722.2 105.7 723.4 106.2 725.1 106.6 C 725.1 106.6 731.8 107.9 731.8 107.9 C 735.3 108.6 738 109.8 739.7 111.4 C 741.4 113 742.3 115.2 742.3 117.8 C 742.3 120.2 741.6 122.3 740.2 124.1 C 738.8 125.9 736.9 127.3 734.5 128.3 C 732 129.3 729.2 129.8 726 129.8 C 721.2 129.8 717.4 128.8 714.5 126.8 C 711.6 124.8 709.9 122 709.5 118.5 C 709.5 118.5 719.4 118 719.4 118 C 719.7 119.5 720.5 120.6 721.6 121.4 C 722.8 122.2 724.3 122.5 726.1 122.5 C 727.8 122.5 729.3 122.2 730.4 121.5 C 731.4 120.8 732 119.9 732 118.8 C 732 117.9 731.6 117.1 730.8 116.6 C 730.1 116 728.9 115.5 727.3 115.2 C 727.3 115.2 721 113.9 721 113.9 C 717.4 113.2 714.8 112 713 110.2 C 711.3 108.5 710.4 106.2 710.4 103.5 C 710.4 101.1 711.1 99.1 712.3 97.4 C 713.6 95.7 715.4 94.4 717.8 93.5 C 720.1 92.6 722.8 92.1 725.9 92.1 C 730.5 92.1 734.2 93.1 736.8 95 C 739.5 97 741 99.6 741.5 103 Z M 767 92.6 L 767 100.2 L 745 100.2 L 745 92.6 L 767 92.6 Z M 750 83.8 L 760.2 83.8 C 760.2 83.8 760.17 117.9 760.2 117.9 C 760.2 118.8 760.3 119.6 760.6 120.1 C 760.9 120.6 761.3 121 761.8 121.2 C 762.3 121.4 762.9 121.5 763.6 121.5 C 764.1 121.5 764.5 121.4 765 121.3 C 765.5 121.2 765.9 121.2 766.1 121.1 C 766.1 121.1 767.7 128.7 767.7 128.7 C 767.2 128.8 766.5 129 765.6 129.2 C 764.6 129.4 763.5 129.6 762.2 129.6 C 759.8 129.7 757.6 129.4 755.8 128.7 C 754 127.9 752.5 126.7 751.5 125.2 C 750.5 123.6 750 121.6 750 119.2 C 750.03 119.23 750 83.8 750 83.8 Z M 782.6 129.8 C 780.3 129.8 778.2 129.4 776.4 128.6 C 774.6 127.8 773.1 126.6 772.1 125 C 771 123.3 770.5 121.3 770.5 118.9 C 770.5 116.9 770.9 115.2 771.6 113.8 C 772.3 112.4 773.4 111.3 774.6 110.5 C 775.9 109.6 777.4 109 779 108.6 C 780.7 108.1 782.4 107.8 784.2 107.7 C 786.3 107.4 788.1 107.2 789.4 107 C 790.7 106.8 791.6 106.5 792.2 106.1 C 792.8 105.7 793.1 105.2 793.1 104.4 C 793.1 104.4 793.1 104.2 793.1 104.2 C 793.1 102.7 792.6 101.6 791.6 100.7 C 790.7 99.9 789.4 99.5 787.6 99.5 C 785.8 99.5 784.4 99.9 783.3 100.7 C 782.2 101.5 781.5 102.5 781.1 103.7 C 781.1 103.7 771.8 103 771.8 103 C 772.2 100.7 773.2 98.8 774.6 97.2 C 776 95.6 777.8 94.3 780 93.4 C 782.2 92.5 784.8 92.1 787.7 92.1 C 789.7 92.1 791.7 92.3 793.5 92.8 C 795.4 93.3 797 94 798.5 95 C 800 96 801.1 97.3 801.9 98.9 C 802.8 100.4 803.2 102.3 803.2 104.5 C 803.2 104.48 803.2 129.1 803.2 129.1 L 793.6 129.1 L 793.6 124.1 C 793.6 124.1 793.3 124.06 793.3 124.1 C 792.7 125.2 791.9 126.2 790.9 127.1 C 790 127.9 788.8 128.6 787.4 129.1 C 786 129.6 784.4 129.8 782.6 129.8 Z M 785.5 122.8 C 787 122.8 788.3 122.5 789.5 121.9 C 790.6 121.3 791.5 120.5 792.2 119.5 C 792.8 118.5 793.1 117.3 793.1 116.1 C 793.1 116.1 793.1 112.2 793.1 112.2 C 792.8 112.4 792.4 112.6 791.8 112.7 C 791.3 112.9 790.7 113.1 790 113.2 C 789.3 113.3 788.6 113.5 787.9 113.6 C 787.3 113.7 786.6 113.7 786.1 113.8 C 784.9 114 783.9 114.3 783 114.7 C 782.1 115 781.4 115.6 780.9 116.2 C 780.4 116.8 780.2 117.6 780.2 118.6 C 780.2 120 780.7 121 781.7 121.7 C 782.7 122.5 784 122.8 785.5 122.8 Z M 820.7 108 C 820.67 108 820.7 129.1 820.7 129.1 L 810.5 129.1 L 810.5 92.6 L 820.2 92.6 L 820.2 99 C 820.2 99 820.62 99.03 820.6 99 C 821.4 96.9 822.8 95.2 824.7 94 C 826.6 92.7 828.9 92.1 831.6 92.1 C 834.2 92.1 836.4 92.7 838.3 93.8 C 840.1 94.9 841.6 96.5 842.7 98.5 C 843.7 100.6 844.2 103 844.2 105.9 C 844.22 105.86 844.2 129.1 844.2 129.1 L 834.1 129.1 C 834.1 129.1 834.09 107.67 834.1 107.7 C 834.1 105.4 833.5 103.7 832.4 102.4 C 831.2 101.2 829.6 100.5 827.6 100.5 C 826.2 100.5 825 100.8 824 101.4 C 822.9 102 822.1 102.8 821.6 104 C 821 105.1 820.7 106.4 820.7 108 Z M 864.8 129.7 C 862 129.7 859.5 129 857.3 127.6 C 855 126.1 853.2 124 851.9 121.2 C 850.6 118.4 850 115 850 110.9 C 850 106.7 850.6 103.2 852 100.4 C 853.3 97.7 855.1 95.6 857.4 94.2 C 859.6 92.8 862.1 92.1 864.8 92.1 C 866.8 92.1 868.5 92.5 869.9 93.1 C 871.3 93.8 872.4 94.7 873.2 95.7 C 874.1 96.7 874.7 97.7 875.2 98.7 C 875.17 98.72 875.5 98.7 875.5 98.7 L 875.5 80.4 L 885.6 80.4 L 885.6 129.1 L 875.6 129.1 L 875.6 123.3 C 875.6 123.3 875.17 123.27 875.2 123.3 C 874.7 124.3 874 125.3 873.2 126.3 C 872.3 127.3 871.2 128.1 869.8 128.7 C 868.4 129.4 866.8 129.7 864.8 129.7 Z M 868 121.7 C 869.6 121.7 871 121.2 872.2 120.3 C 873.3 119.4 874.2 118.2 874.8 116.5 C 875.4 114.9 875.7 113 875.7 110.9 C 875.7 108.7 875.4 106.8 874.8 105.2 C 874.2 103.6 873.3 102.4 872.2 101.5 C 871 100.6 869.6 100.2 868 100.2 C 866.3 100.2 864.9 100.6 863.8 101.5 C 862.7 102.4 861.8 103.7 861.2 105.3 C 860.6 106.9 860.3 108.7 860.3 110.9 C 860.3 113 860.6 114.9 861.2 116.5 C 861.8 118.1 862.7 119.4 863.8 120.3 C 864.9 121.2 866.3 121.7 868 121.7 Z " stroke="none" fill="#ffffff"/>  </g>  <g id="Polygon120789">    <path d="M 12.6 48.7 L 1.6 48.7 L 18.4 0 L 31.7 0 L 48.5 48.7 L 37.4 48.7 L 25.2 11.1 L 24.9 11.1 L 12.6 48.7 Z M 11.9 29.6 L 38 29.6 L 38 37.6 L 11.9 37.6 L 11.9 29.6 Z M 63.3 27.6 C 63.26 27.6 63.3 48.7 63.3 48.7 L 53.1 48.7 L 53.1 12.2 L 62.8 12.2 L 62.8 18.6 C 62.8 18.6 63.21 18.63 63.2 18.6 C 64 16.5 65.4 14.8 67.3 13.6 C 69.2 12.3 71.5 11.7 74.2 11.7 C 76.7 11.7 79 12.3 80.8 13.4 C 82.7 14.5 84.2 16.1 85.2 18.1 C 86.3 20.2 86.8 22.6 86.8 25.5 C 86.81 25.46 86.8 48.7 86.8 48.7 L 76.7 48.7 C 76.7 48.7 76.67 27.27 76.7 27.3 C 76.7 25 76.1 23.3 75 22 C 73.8 20.8 72.2 20.1 70.2 20.1 C 68.8 20.1 67.6 20.4 66.6 21 C 65.5 21.6 64.7 22.4 64.1 23.6 C 63.6 24.7 63.3 26 63.3 27.6 Z M 104.3 49.4 C 102 49.4 99.9 49 98.1 48.2 C 96.2 47.4 94.8 46.2 93.7 44.6 C 92.7 42.9 92.2 40.9 92.2 38.5 C 92.2 36.5 92.5 34.8 93.3 33.4 C 94 32 95 30.9 96.3 30.1 C 97.6 29.2 99.1 28.6 100.7 28.2 C 102.4 27.7 104.1 27.4 105.9 27.3 C 108 27 109.7 26.8 111 26.6 C 112.3 26.4 113.3 26.1 113.9 25.7 C 114.4 25.3 114.7 24.8 114.7 24 C 114.7 24 114.7 23.8 114.7 23.8 C 114.7 22.3 114.3 21.2 113.3 20.3 C 112.4 19.5 111 19.1 109.3 19.1 C 107.5 19.1 106 19.5 105 20.3 C 103.9 21.1 103.2 22.1 102.8 23.3 C 102.8 23.3 93.4 22.6 93.4 22.6 C 93.9 20.3 94.9 18.4 96.2 16.8 C 97.6 15.2 99.4 13.9 101.7 13 C 103.9 12.1 106.4 11.7 109.4 11.7 C 111.4 11.7 113.3 11.9 115.2 12.4 C 117.1 12.9 118.7 13.6 120.2 14.6 C 121.6 15.6 122.8 16.9 123.6 18.5 C 124.5 20 124.9 21.9 124.9 24.1 C 124.87 24.08 124.9 48.7 124.9 48.7 L 115.3 48.7 L 115.3 43.7 C 115.3 43.7 114.97 43.66 115 43.7 C 114.4 44.8 113.6 45.8 112.6 46.7 C 111.6 47.5 110.5 48.2 109.1 48.7 C 107.7 49.2 106.1 49.4 104.3 49.4 Z M 107.2 42.4 C 108.7 42.4 110 42.1 111.1 41.5 C 112.3 40.9 113.2 40.1 113.8 39.1 C 114.5 38.1 114.8 36.9 114.8 35.7 C 114.8 35.7 114.8 31.8 114.8 31.8 C 114.5 32 114.1 32.2 113.5 32.3 C 113 32.5 112.3 32.7 111.7 32.8 C 111 32.9 110.3 33.1 109.6 33.2 C 108.9 33.3 108.3 33.3 107.8 33.4 C 106.6 33.6 105.5 33.9 104.6 34.3 C 103.8 34.6 103.1 35.2 102.6 35.8 C 102.1 36.4 101.8 37.2 101.8 38.2 C 101.8 39.6 102.3 40.6 103.4 41.3 C 104.4 42.1 105.6 42.4 107.2 42.4 Z M 132.2 62.4 L 132.2 12.2 L 142.2 12.2 L 142.2 18.3 C 142.2 18.3 142.65 18.32 142.6 18.3 C 143.1 17.3 143.7 16.3 144.6 15.3 C 145.4 14.3 146.5 13.4 147.9 12.7 C 149.3 12.1 151 11.7 153 11.7 C 155.7 11.7 158.2 12.4 160.4 13.8 C 162.7 15.2 164.5 17.3 165.8 20 C 167.2 22.8 167.8 26.3 167.8 30.5 C 167.8 34.6 167.2 38 165.9 40.8 C 164.6 43.6 162.8 45.7 160.6 47.2 C 158.3 48.6 155.8 49.3 153 49.3 C 151.1 49.3 149.4 49 148 48.3 C 146.6 47.7 145.5 46.9 144.6 45.9 C 143.8 44.9 143.1 43.9 142.6 42.9 C 142.65 42.87 142.3 42.9 142.3 42.9 L 142.3 62.4 L 132.2 62.4 Z M 142.1 30.5 C 142.1 32.6 142.4 34.5 143 36.1 C 143.6 37.8 144.5 39 145.6 39.9 C 146.8 40.8 148.2 41.3 149.8 41.3 C 151.5 41.3 152.9 40.8 154 39.9 C 155.1 39 156 37.7 156.6 36.1 C 157.2 34.5 157.5 32.6 157.5 30.5 C 157.5 28.3 157.2 26.5 156.6 24.9 C 156 23.3 155.2 22 154 21.1 C 152.9 20.2 151.5 19.8 149.8 19.8 C 148.2 19.8 146.8 20.2 145.6 21.1 C 144.5 22 143.6 23.2 143 24.8 C 142.4 26.4 142.1 28.3 142.1 30.5 Z M 184.1 0 L 184.1 48.7 L 173.9 48.7 L 173.9 0 L 184.1 0 Z M 201.8 49.4 C 199.5 49.4 197.4 49 195.6 48.2 C 193.8 47.4 192.3 46.2 191.3 44.6 C 190.2 42.9 189.7 40.9 189.7 38.5 C 189.7 36.5 190.1 34.8 190.8 33.4 C 191.6 32 192.6 30.9 193.9 30.1 C 195.1 29.2 196.6 28.6 198.2 28.2 C 199.9 27.7 201.6 27.4 203.4 27.3 C 205.5 27 207.3 26.8 208.6 26.6 C 209.9 26.4 210.8 26.1 211.4 25.7 C 212 25.3 212.3 24.8 212.3 24 C 212.3 24 212.3 23.8 212.3 23.8 C 212.3 22.3 211.8 21.2 210.9 20.3 C 209.9 19.5 208.6 19.1 206.8 19.1 C 205 19.1 203.6 19.5 202.5 20.3 C 201.4 21.1 200.7 22.1 200.4 23.3 C 200.4 23.3 191 22.6 191 22.6 C 191.5 20.3 192.4 18.4 193.8 16.8 C 195.2 15.2 197 13.9 199.2 13 C 201.4 12.1 204 11.7 206.9 11.7 C 208.9 11.7 210.9 11.9 212.7 12.4 C 214.6 12.9 216.3 13.6 217.7 14.6 C 219.2 15.6 220.3 16.9 221.1 18.5 C 222 20 222.4 21.9 222.4 24.1 C 222.41 24.08 222.4 48.7 222.4 48.7 L 212.8 48.7 L 212.8 43.7 C 212.8 43.7 212.51 43.66 212.5 43.7 C 211.9 44.8 211.1 45.8 210.2 46.7 C 209.2 47.5 208 48.2 206.6 48.7 C 205.2 49.2 203.6 49.4 201.8 49.4 Z M 204.7 42.4 C 206.2 42.4 207.5 42.1 208.7 41.5 C 209.8 40.9 210.7 40.1 211.4 39.1 C 212 38.1 212.3 36.9 212.3 35.7 C 212.3 35.7 212.3 31.8 212.3 31.8 C 212 32 211.6 32.2 211 32.3 C 210.5 32.5 209.9 32.7 209.2 32.8 C 208.5 32.9 207.8 33.1 207.2 33.2 C 206.5 33.3 205.9 33.3 205.3 33.4 C 204.1 33.6 203.1 33.9 202.2 34.3 C 201.3 34.6 200.6 35.2 200.1 35.8 C 199.6 36.4 199.4 37.2 199.4 38.2 C 199.4 39.6 199.9 40.6 200.9 41.3 C 201.9 42.1 203.2 42.4 204.7 42.4 Z M 239.9 27.6 C 239.88 27.6 239.9 48.7 239.9 48.7 L 229.7 48.7 L 229.7 12.2 L 239.4 12.2 L 239.4 18.6 C 239.4 18.6 239.83 18.63 239.8 18.6 C 240.6 16.5 242 14.8 243.9 13.6 C 245.8 12.3 248.1 11.7 250.8 11.7 C 253.4 11.7 255.6 12.3 257.5 13.4 C 259.3 14.5 260.8 16.1 261.9 18.1 C 262.9 20.2 263.4 22.6 263.4 25.5 C 263.43 25.46 263.4 48.7 263.4 48.7 L 253.3 48.7 C 253.3 48.7 253.3 27.27 253.3 27.3 C 253.3 25 252.7 23.3 251.6 22 C 250.4 20.8 248.8 20.1 246.8 20.1 C 245.4 20.1 244.2 20.4 243.2 21 C 242.2 21.6 241.3 22.4 240.8 23.6 C 240.2 24.7 239.9 26 239.9 27.6 Z M 297.4 0 L 297.4 48.7 L 287.1 48.7 L 287.1 0 L 297.4 0 Z M 315.7 27.6 C 315.67 27.6 315.7 48.7 315.7 48.7 L 305.5 48.7 L 305.5 12.2 L 315.2 12.2 L 315.2 18.6 C 315.2 18.6 315.63 18.63 315.6 18.6 C 316.4 16.5 317.8 14.8 319.7 13.6 C 321.6 12.3 323.9 11.7 326.6 11.7 C 329.2 11.7 331.4 12.3 333.3 13.4 C 335.1 14.5 336.6 16.1 337.7 18.1 C 338.7 20.2 339.2 22.6 339.2 25.5 C 339.23 25.46 339.2 48.7 339.2 48.7 L 329.1 48.7 C 329.1 48.7 329.09 27.27 329.1 27.3 C 329.1 25 328.5 23.3 327.4 22 C 326.2 20.8 324.6 20.1 322.6 20.1 C 321.2 20.1 320 20.4 319 21 C 318 21.6 317.1 22.4 316.6 23.6 C 316 24.7 315.7 26 315.7 27.6 Z M 365.1 12.2 L 365.1 19.8 L 343 19.8 L 343 12.2 L 365.1 12.2 Z M 348 3.4 L 358.2 3.4 C 358.2 3.4 358.17 37.5 358.2 37.5 C 358.2 38.4 358.3 39.2 358.6 39.7 C 358.9 40.2 359.3 40.6 359.8 40.8 C 360.3 41 360.9 41.1 361.6 41.1 C 362.1 41.1 362.6 41 363 40.9 C 363.5 40.8 363.9 40.8 364.1 40.7 C 364.1 40.7 365.7 48.3 365.7 48.3 C 365.2 48.4 364.5 48.6 363.6 48.8 C 362.7 49 361.5 49.2 360.2 49.2 C 357.8 49.3 355.6 49 353.8 48.3 C 352 47.5 350.6 46.3 349.5 44.8 C 348.5 43.2 348 41.2 348 38.8 C 348.04 38.83 348 3.4 348 3.4 Z M 386.1 49.4 C 382.4 49.4 379.2 48.7 376.4 47.1 C 373.7 45.6 371.7 43.4 370.2 40.6 C 368.7 37.8 368 34.5 368 30.6 C 368 26.9 368.7 23.6 370.2 20.7 C 371.7 17.9 373.7 15.7 376.4 14.1 C 379 12.5 382.2 11.7 385.7 11.7 C 388.2 11.7 390.4 12.1 392.5 12.9 C 394.6 13.6 396.4 14.8 398 16.3 C 399.5 17.9 400.7 19.8 401.6 22.1 C 402.5 24.4 402.9 27.2 402.9 30.3 C 402.92 30.26 402.9 33 402.9 33 L 372.1 33 L 372.1 26.8 C 372.1 26.8 393.38 26.77 393.4 26.8 C 393.4 25.3 393.1 24 392.4 22.9 C 391.8 21.8 390.9 20.9 389.8 20.2 C 388.7 19.6 387.4 19.3 385.9 19.3 C 384.4 19.3 383 19.6 381.8 20.3 C 380.6 21 379.7 22 379.1 23.2 C 378.4 24.3 378 25.7 378 27.1 C 378 27.1 378 33.1 378 33.1 C 378 34.9 378.4 36.4 379 37.8 C 379.7 39.1 380.7 40.1 381.9 40.8 C 383.1 41.5 384.6 41.9 386.3 41.9 C 387.4 41.9 388.5 41.7 389.4 41.4 C 390.3 41.1 391.1 40.6 391.8 40 C 392.5 39.3 393 38.6 393.3 37.6 C 393.3 37.6 402.7 38.3 402.7 38.3 C 402.2 40.5 401.3 42.5 399.8 44.1 C 398.3 45.8 396.4 47.1 394.1 48 C 391.8 49 389.2 49.4 386.1 49.4 Z M 419.1 0 L 419.1 48.7 L 409 48.7 L 409 0 L 419.1 0 Z M 436.7 0 L 436.7 48.7 L 426.6 48.7 L 426.6 0 L 436.7 0 Z M 444.2 48.7 L 444.2 12.2 L 454.3 12.2 L 454.3 48.7 L 444.2 48.7 Z M 449.3 7.5 C 447.7 7.5 446.5 7 445.4 6 C 444.3 5 443.8 3.8 443.8 2.4 C 443.8 0.9 444.3 -0.3 445.4 -1.3 C 446.5 -2.3 447.8 -2.8 449.3 -2.8 C 450.8 -2.8 452.1 -2.3 453.1 -1.3 C 454.2 -0.3 454.7 0.9 454.7 2.3 C 454.7 3.7 454.2 5 453.1 6 C 452.1 7 450.8 7.5 449.3 7.5 Z M 477.9 63.2 C 474.6 63.2 471.8 62.7 469.5 61.8 C 467.1 61 465.3 59.7 463.9 58.2 C 462.5 56.7 461.6 54.9 461.2 53 C 461.2 53 470.6 51.7 470.6 51.7 C 470.9 52.5 471.3 53.2 471.9 53.8 C 472.5 54.4 473.4 54.9 474.4 55.3 C 475.4 55.7 476.7 55.9 478.1 55.9 C 480.3 55.9 482.2 55.4 483.6 54.3 C 485 53.2 485.7 51.4 485.7 48.9 C 485.75 48.94 485.7 42.3 485.7 42.3 C 485.7 42.3 485.32 42.26 485.3 42.3 C 484.9 43.3 484.2 44.2 483.3 45.1 C 482.4 46 481.3 46.8 479.9 47.3 C 478.5 47.9 476.8 48.2 474.9 48.2 C 472.2 48.2 469.7 47.6 467.4 46.3 C 465.2 45 463.4 43.1 462.1 40.4 C 460.7 37.8 460.1 34.4 460.1 30.4 C 460.1 26.2 460.7 22.8 462.1 20 C 463.4 17.2 465.2 15.2 467.5 13.8 C 469.7 12.4 472.2 11.7 474.9 11.7 C 476.9 11.7 478.6 12.1 480 12.7 C 481.4 13.4 482.5 14.3 483.4 15.3 C 484.2 16.3 484.9 17.3 485.3 18.3 C 485.32 18.32 485.7 18.3 485.7 18.3 L 485.7 12.2 L 495.8 12.2 C 495.8 12.2 495.76 49.08 495.8 49.1 C 495.8 52.2 495 54.8 493.5 56.9 C 492 59 489.9 60.6 487.2 61.6 C 484.5 62.7 481.4 63.2 477.9 63.2 Z M 478.1 40.6 C 479.7 40.6 481.1 40.2 482.3 39.4 C 483.4 38.5 484.3 37.4 484.9 35.8 C 485.5 34.3 485.8 32.5 485.8 30.3 C 485.8 28.2 485.5 26.3 484.9 24.8 C 484.3 23.2 483.4 22 482.3 21.1 C 481.1 20.2 479.7 19.8 478.1 19.8 C 476.4 19.8 475 20.2 473.9 21.1 C 472.8 22 471.9 23.3 471.3 24.8 C 470.7 26.4 470.4 28.3 470.4 30.3 C 470.4 32.4 470.7 34.3 471.3 35.8 C 471.9 37.3 472.8 38.5 473.9 39.3 C 475 40.2 476.4 40.6 478.1 40.6 Z M 519.8 49.4 C 516 49.4 512.8 48.7 510.1 47.1 C 507.4 45.6 505.3 43.4 503.8 40.6 C 502.4 37.8 501.6 34.5 501.6 30.6 C 501.6 26.9 502.4 23.6 503.8 20.7 C 505.3 17.9 507.3 15.7 510 14.1 C 512.6 12.5 515.8 11.7 519.3 11.7 C 521.8 11.7 524 12.1 526.1 12.9 C 528.2 13.6 530 14.8 531.6 16.3 C 533.1 17.9 534.3 19.8 535.2 22.1 C 536.1 24.4 536.5 27.2 536.5 30.3 C 536.52 30.26 536.5 33 536.5 33 L 505.7 33 L 505.7 26.8 C 505.7 26.8 526.98 26.77 527 26.8 C 527 25.3 526.7 24 526 22.9 C 525.4 21.8 524.5 20.9 523.4 20.2 C 522.3 19.6 521 19.3 519.5 19.3 C 518 19.3 516.6 19.6 515.4 20.3 C 514.3 21 513.3 22 512.7 23.2 C 512 24.3 511.7 25.7 511.6 27.1 C 511.6 27.1 511.6 33.1 511.6 33.1 C 511.6 34.9 512 36.4 512.6 37.8 C 513.3 39.1 514.3 40.1 515.5 40.8 C 516.8 41.5 518.2 41.9 519.9 41.9 C 521 41.9 522.1 41.7 523 41.4 C 523.9 41.1 524.7 40.6 525.4 40 C 526.1 39.3 526.6 38.6 526.9 37.6 C 526.9 37.6 536.3 38.3 536.3 38.3 C 535.8 40.5 534.9 42.5 533.4 44.1 C 531.9 45.8 530 47.1 527.7 48 C 525.4 49 522.8 49.4 519.8 49.4 Z M 552.7 27.6 C 552.65 27.6 552.7 48.7 552.7 48.7 L 542.5 48.7 L 542.5 12.2 L 552.2 12.2 L 552.2 18.6 C 552.2 18.6 552.6 18.63 552.6 18.6 C 553.4 16.5 554.8 14.8 556.7 13.6 C 558.6 12.3 560.9 11.7 563.6 11.7 C 566.1 11.7 568.3 12.3 570.2 13.4 C 572.1 14.5 573.6 16.1 574.6 18.1 C 575.7 20.2 576.2 22.6 576.2 25.5 C 576.21 25.46 576.2 48.7 576.2 48.7 L 566.1 48.7 C 566.1 48.7 566.07 27.27 566.1 27.3 C 566.1 25 565.5 23.3 564.4 22 C 563.2 20.8 561.6 20.1 559.6 20.1 C 558.2 20.1 557 20.4 556 21 C 554.9 21.6 554.1 22.4 553.5 23.6 C 553 24.7 552.7 26 552.7 27.6 Z M 599.8 49.4 C 596 49.4 592.8 48.6 590.1 47 C 587.4 45.5 585.4 43.2 583.9 40.4 C 582.5 37.6 581.8 34.3 581.8 30.6 C 581.8 26.9 582.5 23.6 584 20.7 C 585.4 17.9 587.5 15.7 590.2 14.1 C 592.8 12.5 596 11.7 599.7 11.7 C 602.9 11.7 605.7 12.3 608.1 13.4 C 610.5 14.6 612.4 16.2 613.8 18.3 C 615.2 20.4 615.9 22.9 616.1 25.7 C 616.1 25.7 606.5 25.7 606.5 25.7 C 606.3 23.9 605.5 22.4 604.4 21.3 C 603.2 20.2 601.7 19.6 599.9 19.6 C 598.3 19.6 597 20 595.8 20.9 C 594.6 21.7 593.7 23 593.1 24.6 C 592.4 26.2 592.1 28.2 592.1 30.5 C 592.1 32.8 592.4 34.8 593 36.4 C 593.7 38 594.6 39.3 595.8 40.1 C 596.9 41 598.3 41.4 599.9 41.4 C 601 41.4 602.1 41.2 603 40.7 C 603.9 40.2 604.7 39.5 605.3 38.6 C 605.9 37.7 606.3 36.6 606.5 35.3 C 606.5 35.3 616.1 35.3 616.1 35.3 C 615.9 38.1 615.2 40.6 613.8 42.7 C 612.5 44.8 610.6 46.5 608.2 47.7 C 605.8 48.8 603 49.4 599.8 49.4 Z M 638.1 49.4 C 634.3 49.4 631.1 48.7 628.4 47.1 C 625.7 45.6 623.6 43.4 622.1 40.6 C 620.7 37.8 619.9 34.5 619.9 30.6 C 619.9 26.9 620.7 23.6 622.1 20.7 C 623.6 17.9 625.6 15.7 628.3 14.1 C 631 12.5 634.1 11.7 637.7 11.7 C 640.1 11.7 642.3 12.1 644.4 12.9 C 646.5 13.6 648.3 14.8 649.9 16.3 C 651.4 17.9 652.7 19.8 653.5 22.1 C 654.4 24.4 654.8 27.2 654.8 30.3 C 654.83 30.26 654.8 33 654.8 33 L 624 33 L 624 26.8 C 624 26.8 645.29 26.77 645.3 26.8 C 645.3 25.3 645 24 644.3 22.9 C 643.7 21.8 642.8 20.9 641.7 20.2 C 640.6 19.6 639.3 19.3 637.8 19.3 C 636.3 19.3 634.9 19.6 633.7 20.3 C 632.6 21 631.6 22 631 23.2 C 630.3 24.3 630 25.7 629.9 27.1 C 629.9 27.1 629.9 33.1 629.9 33.1 C 629.9 34.9 630.3 36.4 631 37.8 C 631.6 39.1 632.6 40.1 633.8 40.8 C 635.1 41.5 636.5 41.9 638.2 41.9 C 639.4 41.9 640.4 41.7 641.3 41.4 C 642.3 41.1 643.1 40.6 643.7 40 C 644.4 39.3 644.9 38.6 645.2 37.6 C 645.2 37.6 654.6 38.3 654.6 38.3 C 654.1 40.5 653.2 42.5 651.7 44.1 C 650.2 45.8 648.4 47.1 646 48 C 643.7 49 641.1 49.4 638.1 49.4 Z M 677 48.7 L 677 12.2 L 687.1 12.2 L 687.1 48.7 L 677 48.7 Z M 682.1 7.5 C 680.6 7.5 679.3 7 678.2 6 C 677.1 5 676.6 3.8 676.6 2.4 C 676.6 0.9 677.1 -0.3 678.2 -1.3 C 679.3 -2.3 680.6 -2.8 682.1 -2.8 C 683.6 -2.8 684.9 -2.3 685.9 -1.3 C 687 -0.3 687.5 0.9 687.5 2.3 C 687.5 3.7 687 5 685.9 6 C 684.9 7 683.6 7.5 682.1 7.5 Z M 724.7 22.6 C 724.7 22.6 715.4 23.2 715.4 23.2 C 715.2 22.4 714.9 21.7 714.4 21 C 713.8 20.4 713.2 19.9 712.3 19.5 C 711.5 19.1 710.4 18.9 709.3 18.9 C 707.7 18.9 706.4 19.2 705.3 19.9 C 704.2 20.5 703.7 21.4 703.7 22.5 C 703.7 23.4 704 24.1 704.7 24.7 C 705.4 25.3 706.6 25.8 708.3 26.2 C 708.3 26.2 714.9 27.5 714.9 27.5 C 718.5 28.2 721.1 29.4 722.9 31 C 724.6 32.6 725.5 34.8 725.5 37.4 C 725.5 39.8 724.8 41.9 723.4 43.7 C 722 45.5 720.1 46.9 717.6 47.9 C 715.2 48.9 712.4 49.4 709.2 49.4 C 704.4 49.4 700.5 48.4 697.7 46.4 C 694.8 44.4 693.1 41.6 692.6 38.1 C 692.6 38.1 702.6 37.6 702.6 37.6 C 702.9 39.1 703.6 40.2 704.8 41 C 706 41.8 707.4 42.1 709.2 42.1 C 711 42.1 712.5 41.8 713.5 41.1 C 714.6 40.4 715.2 39.5 715.2 38.4 C 715.2 37.5 714.8 36.7 714 36.2 C 713.3 35.6 712.1 35.1 710.5 34.8 C 710.5 34.8 704.2 33.5 704.2 33.5 C 700.6 32.8 698 31.6 696.2 29.8 C 694.5 28.1 693.6 25.8 693.6 23.1 C 693.6 20.7 694.3 18.7 695.5 17 C 696.8 15.3 698.6 14 700.9 13.1 C 703.3 12.2 706 11.7 709.1 11.7 C 713.7 11.7 717.4 12.7 720 14.6 C 722.7 16.6 724.2 19.2 724.7 22.6 Z " stroke="none" fill="#ffffff"/>  </g></svg>