<?xml version="1.0" standalone="no"?><!DOCTYPE svg PUBLIC "-//W3C//DTD SVG 1.1//EN" "http://www.w3.org/Graphics/SVG/1.1/DTD/svg11.dtd"><svg xmlns="http://www.w3.org/2000/svg" version="1.1" width="413.5px" height="87.2px" viewBox="0 -12 413.5 87.2" style="top:-12px">  <desc>The problem with overhyped AI</desc>  <defs/>  <g id="Polygon109351">    <path d="M 9.2 58.1 C 7.5 58.1 6.1 57.8 4.9 57.1 C 3.7 56.4 2.8 55.4 2.1 54.1 C 1.5 52.8 1.2 51.4 1.2 49.7 C 1.2 48 1.5 46.5 2.1 45.3 C 2.8 44 3.7 43 4.9 42.3 C 6.1 41.6 7.5 41.2 9.2 41.2 C 10.9 41.2 12.3 41.6 13.5 42.3 C 14.7 43 15.6 44 16.3 45.3 C 16.9 46.5 17.3 48 17.3 49.7 C 17.3 51.4 16.9 52.8 16.3 54.1 C 15.6 55.4 14.7 56.4 13.5 57.1 C 12.3 57.8 10.9 58.1 9.2 58.1 Z M 9.2 54.6 C 10 54.6 10.6 54.4 11.1 54 C 11.6 53.5 12 53 12.3 52.2 C 12.5 51.5 12.6 50.6 12.6 49.7 C 12.6 48.7 12.5 47.9 12.3 47.1 C 12 46.4 11.6 45.8 11.1 45.4 C 10.6 44.9 10 44.7 9.2 44.7 C 8.5 44.7 7.8 44.9 7.3 45.4 C 6.8 45.8 6.4 46.4 6.2 47.1 C 5.9 47.9 5.8 48.7 5.8 49.7 C 5.8 50.6 5.9 51.5 6.2 52.2 C 6.4 53 6.8 53.5 7.3 54 C 7.8 54.4 8.5 54.6 9.2 54.6 Z M 34.6 41.5 L 28.9 57.8 L 23.8 57.8 L 18.1 41.5 L 22.9 41.5 L 26.3 53.2 L 26.4 53.2 L 29.8 41.5 L 34.6 41.5 Z M 43.6 58.1 C 41.9 58.1 40.4 57.8 39.2 57.1 C 38 56.4 37.1 55.5 36.4 54.2 C 35.8 52.9 35.4 51.4 35.4 49.7 C 35.4 48 35.8 46.6 36.4 45.3 C 37.1 44 38 43 39.2 42.3 C 40.4 41.6 41.8 41.2 43.4 41.2 C 44.4 41.2 45.5 41.4 46.4 41.8 C 47.3 42.1 48.1 42.6 48.8 43.3 C 49.5 44 50.1 44.9 50.5 45.9 C 50.9 46.9 51.1 48.2 51.1 49.6 C 51.06 49.55 51.1 50.8 51.1 50.8 L 37.2 50.8 L 37.2 48 C 37.2 48 46.79 47.99 46.8 48 C 46.8 47.3 46.6 46.8 46.4 46.2 C 46.1 45.7 45.7 45.3 45.2 45.1 C 44.7 44.8 44.1 44.6 43.4 44.6 C 42.8 44.6 42.1 44.8 41.6 45.1 C 41.1 45.4 40.7 45.8 40.4 46.4 C 40.1 46.9 39.9 47.5 39.9 48.1 C 39.9 48.1 39.9 50.8 39.9 50.8 C 39.9 51.6 40.1 52.3 40.4 52.9 C 40.7 53.5 41.1 54 41.7 54.3 C 42.2 54.6 42.9 54.8 43.6 54.8 C 44.1 54.8 44.6 54.7 45 54.5 C 45.4 54.4 45.8 54.2 46.1 53.9 C 46.4 53.6 46.6 53.3 46.8 52.9 C 46.8 52.9 51 53.1 51 53.1 C 50.8 54.1 50.3 55 49.7 55.8 C 49 56.5 48.2 57.1 47.1 57.5 C 46.1 57.9 44.9 58.1 43.6 58.1 Z M 54.1 57.8 L 54.1 41.5 L 58.5 41.5 L 58.5 44.3 C 58.5 44.3 58.63 44.31 58.6 44.3 C 58.9 43.3 59.4 42.5 60.1 42 C 60.8 41.5 61.6 41.2 62.6 41.2 C 62.8 41.2 63 41.2 63.3 41.3 C 63.6 41.3 63.8 41.3 64 41.4 C 64 41.4 64 45.4 64 45.4 C 63.8 45.3 63.5 45.3 63.1 45.2 C 62.7 45.2 62.4 45.2 62.1 45.2 C 61.4 45.2 60.8 45.3 60.3 45.6 C 59.8 45.9 59.4 46.3 59.1 46.8 C 58.7 47.3 58.6 47.9 58.6 48.6 C 58.6 48.56 58.6 57.8 58.6 57.8 L 54.1 57.8 Z M 70.7 48.4 C 70.67 48.36 70.7 57.8 70.7 57.8 L 66.1 57.8 L 66.1 36 L 70.5 36 L 70.5 44.3 C 70.5 44.3 70.74 44.34 70.7 44.3 C 71.1 43.4 71.7 42.6 72.5 42.1 C 73.4 41.5 74.4 41.2 75.6 41.2 C 76.8 41.2 77.8 41.5 78.6 42 C 79.5 42.5 80.1 43.2 80.6 44.1 C 81.1 45 81.3 46.1 81.3 47.4 C 81.28 47.4 81.3 57.8 81.3 57.8 L 76.7 57.8 C 76.7 57.8 76.75 48.21 76.7 48.2 C 76.8 47.2 76.5 46.4 76 45.9 C 75.5 45.3 74.8 45 73.8 45 C 73.2 45 72.7 45.1 72.2 45.4 C 71.7 45.7 71.4 46.1 71.1 46.6 C 70.8 47.1 70.7 47.7 70.7 48.4 Z M 86.9 64 C 86.3 64 85.8 63.9 85.3 63.8 C 84.8 63.7 84.4 63.6 84.1 63.5 C 84.1 63.5 85.1 60.1 85.1 60.1 C 85.6 60.3 86.1 60.4 86.5 60.4 C 86.9 60.4 87.3 60.3 87.6 60.1 C 88 59.9 88.2 59.5 88.4 59 C 88.41 58.98 88.7 58.3 88.7 58.3 L 82.8 41.5 L 87.6 41.5 L 91 53.5 L 91.1 53.5 L 94.6 41.5 L 99.4 41.5 C 99.4 41.5 93 59.59 93 59.6 C 92.7 60.5 92.3 61.2 91.8 61.9 C 91.2 62.5 90.6 63.1 89.8 63.4 C 89 63.8 88 64 86.9 64 Z M 101.5 64 L 101.5 41.5 L 106 41.5 L 106 44.2 C 106 44.2 106.17 44.2 106.2 44.2 C 106.4 43.8 106.7 43.3 107 42.9 C 107.4 42.4 107.9 42 108.5 41.7 C 109.1 41.4 109.9 41.2 110.8 41.2 C 112 41.2 113.1 41.6 114.1 42.2 C 115.1 42.8 115.9 43.7 116.5 45 C 117.2 46.2 117.5 47.8 117.5 49.7 C 117.5 51.5 117.2 53 116.6 54.3 C 116 55.5 115.2 56.5 114.2 57.1 C 113.2 57.8 112.1 58.1 110.8 58.1 C 109.9 58.1 109.2 57.9 108.6 57.6 C 108 57.4 107.5 57 107.1 56.5 C 106.7 56.1 106.4 55.7 106.2 55.2 C 106.17 55.2 106 55.2 106 55.2 L 106 64 L 101.5 64 Z M 105.9 49.6 C 105.9 50.6 106.1 51.5 106.3 52.2 C 106.6 52.9 107 53.5 107.5 53.9 C 108 54.3 108.6 54.5 109.4 54.5 C 110.1 54.5 110.7 54.3 111.3 53.9 C 111.8 53.5 112.2 52.9 112.4 52.2 C 112.7 51.4 112.8 50.6 112.8 49.6 C 112.8 48.7 112.7 47.9 112.4 47.1 C 112.2 46.4 111.8 45.9 111.3 45.5 C 110.8 45.1 110.1 44.9 109.4 44.9 C 108.6 44.9 108 45 107.5 45.4 C 107 45.8 106.6 46.4 106.3 47.1 C 106.1 47.8 105.9 48.7 105.9 49.6 Z M 127.8 58.1 C 126.1 58.1 124.7 57.8 123.5 57.1 C 122.2 56.4 121.3 55.5 120.7 54.2 C 120 52.9 119.7 51.4 119.7 49.7 C 119.7 48 120 46.6 120.7 45.3 C 121.3 44 122.2 43 123.4 42.3 C 124.6 41.6 126 41.2 127.6 41.2 C 128.7 41.2 129.7 41.4 130.6 41.8 C 131.6 42.1 132.4 42.6 133.1 43.3 C 133.8 44 134.3 44.9 134.7 45.9 C 135.1 46.9 135.3 48.2 135.3 49.6 C 135.31 49.55 135.3 50.8 135.3 50.8 L 121.5 50.8 L 121.5 48 C 121.5 48 131.04 47.99 131 48 C 131 47.3 130.9 46.8 130.6 46.2 C 130.3 45.7 129.9 45.3 129.4 45.1 C 128.9 44.8 128.4 44.6 127.7 44.6 C 127 44.6 126.4 44.8 125.9 45.1 C 125.3 45.4 124.9 45.8 124.6 46.4 C 124.3 46.9 124.2 47.5 124.2 48.1 C 124.2 48.1 124.2 50.8 124.2 50.8 C 124.2 51.6 124.3 52.3 124.6 52.9 C 124.9 53.5 125.4 54 125.9 54.3 C 126.5 54.6 127.1 54.8 127.9 54.8 C 128.4 54.8 128.8 54.7 129.3 54.5 C 129.7 54.4 130 54.2 130.3 53.9 C 130.6 53.6 130.9 53.3 131 52.9 C 131 52.9 135.2 53.1 135.2 53.1 C 135 54.1 134.6 55 133.9 55.8 C 133.3 56.5 132.4 57.1 131.4 57.5 C 130.3 57.9 129.2 58.1 127.8 58.1 Z M 144.2 58.1 C 143 58.1 141.9 57.8 140.9 57.1 C 139.9 56.5 139.1 55.5 138.5 54.3 C 137.9 53 137.6 51.5 137.6 49.7 C 137.6 47.8 137.9 46.2 138.5 45 C 139.1 43.7 139.9 42.8 140.9 42.2 C 141.9 41.6 143 41.2 144.2 41.2 C 145.2 41.2 145.9 41.4 146.5 41.7 C 147.1 42 147.6 42.4 148 42.9 C 148.4 43.3 148.7 43.8 148.9 44.2 C 148.89 44.2 149 44.2 149 44.2 L 149 36 L 153.6 36 L 153.6 57.8 L 149.1 57.8 L 149.1 55.2 C 149.1 55.2 148.89 55.2 148.9 55.2 C 148.7 55.7 148.4 56.1 148 56.5 C 147.6 57 147.1 57.4 146.5 57.6 C 145.9 57.9 145.1 58.1 144.2 58.1 Z M 145.7 54.5 C 146.4 54.5 147 54.3 147.5 53.9 C 148.1 53.5 148.4 52.9 148.7 52.2 C 149 51.5 149.1 50.6 149.1 49.6 C 149.1 48.7 149 47.8 148.7 47.1 C 148.5 46.4 148.1 45.8 147.5 45.4 C 147 45 146.4 44.9 145.7 44.9 C 144.9 44.9 144.3 45.1 143.8 45.5 C 143.3 45.9 142.9 46.4 142.6 47.1 C 142.4 47.9 142.2 48.7 142.2 49.6 C 142.2 50.6 142.4 51.4 142.6 52.2 C 142.9 52.9 143.3 53.5 143.8 53.9 C 144.3 54.3 144.9 54.5 145.7 54.5 Z M 168.1 57.8 L 163.1 57.8 L 170.7 36 L 176.6 36 L 184.1 57.8 L 179.2 57.8 L 173.7 41 L 173.6 41 L 168.1 57.8 Z M 167.8 49.2 L 179.4 49.2 L 179.4 52.8 L 167.8 52.8 L 167.8 49.2 Z M 191.4 36 L 191.4 57.8 L 186.8 57.8 L 186.8 36 L 191.4 36 Z " stroke="none" fill="#ffffff"/>  </g>  <g id="Polygon109350">    <path d="M 1.1 3.8 L 1.1 0 L 19 0 L 19 3.8 L 12.3 3.8 L 12.3 21.8 L 7.7 21.8 L 7.7 3.8 L 1.1 3.8 Z M 26.1 12.4 C 26.1 12.36 26.1 21.8 26.1 21.8 L 21.6 21.8 L 21.6 0 L 26 0 L 26 8.3 C 26 8.3 26.17 8.34 26.2 8.3 C 26.5 7.4 27.1 6.6 28 6.1 C 28.8 5.5 29.8 5.2 31.1 5.2 C 32.2 5.2 33.2 5.5 34 6 C 34.9 6.5 35.5 7.2 36 8.1 C 36.5 9 36.7 10.1 36.7 11.4 C 36.71 11.4 36.7 21.8 36.7 21.8 L 32.2 21.8 C 32.2 21.8 32.17 12.21 32.2 12.2 C 32.2 11.2 31.9 10.4 31.4 9.9 C 30.9 9.3 30.2 9 29.3 9 C 28.6 9 28.1 9.1 27.6 9.4 C 27.1 9.7 26.8 10.1 26.5 10.6 C 26.2 11.1 26.1 11.7 26.1 12.4 Z M 47.7 22.1 C 46 22.1 44.5 21.8 43.3 21.1 C 42.1 20.4 41.2 19.5 40.5 18.2 C 39.9 16.9 39.5 15.4 39.5 13.7 C 39.5 12 39.9 10.6 40.5 9.3 C 41.2 8 42.1 7 43.3 6.3 C 44.5 5.6 45.9 5.2 47.5 5.2 C 48.6 5.2 49.6 5.4 50.5 5.8 C 51.4 6.1 52.2 6.6 52.9 7.3 C 53.6 8 54.2 8.9 54.6 9.9 C 55 10.9 55.2 12.2 55.2 13.6 C 55.16 13.55 55.2 14.8 55.2 14.8 L 41.3 14.8 L 41.3 12 C 41.3 12 50.89 11.99 50.9 12 C 50.9 11.3 50.8 10.8 50.5 10.2 C 50.2 9.7 49.8 9.3 49.3 9.1 C 48.8 8.8 48.2 8.6 47.5 8.6 C 46.9 8.6 46.2 8.8 45.7 9.1 C 45.2 9.4 44.8 9.8 44.5 10.4 C 44.2 10.9 44 11.5 44 12.1 C 44 12.1 44 14.8 44 14.8 C 44 15.6 44.2 16.3 44.5 16.9 C 44.8 17.5 45.2 18 45.8 18.3 C 46.3 18.6 47 18.8 47.7 18.8 C 48.2 18.8 48.7 18.7 49.1 18.5 C 49.5 18.4 49.9 18.2 50.2 17.9 C 50.5 17.6 50.7 17.3 50.9 16.9 C 50.9 16.9 55.1 17.1 55.1 17.1 C 54.9 18.1 54.4 19 53.8 19.8 C 53.1 20.5 52.3 21.1 51.2 21.5 C 50.2 21.9 49 22.1 47.7 22.1 Z M 65.1 28 L 65.1 5.5 L 69.6 5.5 L 69.6 8.2 C 69.6 8.2 69.76 8.2 69.8 8.2 C 70 7.8 70.2 7.3 70.6 6.9 C 71 6.4 71.5 6 72.1 5.7 C 72.7 5.4 73.5 5.2 74.4 5.2 C 75.6 5.2 76.7 5.6 77.7 6.2 C 78.7 6.8 79.5 7.7 80.1 9 C 80.7 10.2 81 11.8 81 13.7 C 81 15.5 80.7 17 80.2 18.3 C 79.6 19.5 78.8 20.5 77.8 21.1 C 76.8 21.8 75.6 22.1 74.4 22.1 C 73.5 22.1 72.8 21.9 72.2 21.6 C 71.5 21.4 71 21 70.7 20.5 C 70.3 20.1 70 19.7 69.8 19.2 C 69.76 19.2 69.6 19.2 69.6 19.2 L 69.6 28 L 65.1 28 Z M 69.5 13.6 C 69.5 14.6 69.7 15.5 69.9 16.2 C 70.2 16.9 70.6 17.5 71.1 17.9 C 71.6 18.3 72.2 18.5 73 18.5 C 73.7 18.5 74.3 18.3 74.8 17.9 C 75.4 17.5 75.7 16.9 76 16.2 C 76.3 15.4 76.4 14.6 76.4 13.6 C 76.4 12.7 76.3 11.9 76 11.1 C 75.8 10.4 75.4 9.9 74.9 9.5 C 74.3 9.1 73.7 8.9 73 8.9 C 72.2 8.9 71.6 9 71.1 9.4 C 70.6 9.8 70.2 10.4 69.9 11.1 C 69.7 11.8 69.5 12.7 69.5 13.6 Z M 84.1 21.8 L 84.1 5.5 L 88.5 5.5 L 88.5 8.3 C 88.5 8.3 88.63 8.31 88.6 8.3 C 88.9 7.3 89.4 6.5 90.1 6 C 90.8 5.5 91.6 5.2 92.6 5.2 C 92.8 5.2 93 5.2 93.3 5.3 C 93.6 5.3 93.8 5.3 94 5.4 C 94 5.4 94 9.4 94 9.4 C 93.8 9.3 93.5 9.3 93.1 9.2 C 92.7 9.2 92.4 9.2 92.1 9.2 C 91.4 9.2 90.8 9.3 90.3 9.6 C 89.8 9.9 89.4 10.3 89.1 10.8 C 88.8 11.3 88.6 11.9 88.6 12.6 C 88.6 12.56 88.6 21.8 88.6 21.8 L 84.1 21.8 Z M 103.5 22.1 C 101.8 22.1 100.4 21.8 99.2 21.1 C 98 20.4 97.1 19.4 96.4 18.1 C 95.8 16.8 95.4 15.4 95.4 13.7 C 95.4 12 95.8 10.5 96.4 9.3 C 97.1 8 98 7 99.2 6.3 C 100.4 5.6 101.8 5.2 103.5 5.2 C 105.2 5.2 106.6 5.6 107.8 6.3 C 109 7 109.9 8 110.6 9.3 C 111.2 10.5 111.6 12 111.6 13.7 C 111.6 15.4 111.2 16.8 110.6 18.1 C 109.9 19.4 109 20.4 107.8 21.1 C 106.6 21.8 105.2 22.1 103.5 22.1 Z M 103.5 18.6 C 104.3 18.6 104.9 18.4 105.4 18 C 105.9 17.5 106.3 17 106.6 16.2 C 106.8 15.5 106.9 14.6 106.9 13.7 C 106.9 12.7 106.8 11.9 106.6 11.1 C 106.3 10.4 105.9 9.8 105.4 9.4 C 104.9 8.9 104.3 8.7 103.5 8.7 C 102.8 8.7 102.1 8.9 101.6 9.4 C 101.1 9.8 100.7 10.4 100.4 11.1 C 100.2 11.9 100.1 12.7 100.1 13.7 C 100.1 14.6 100.2 15.5 100.4 16.2 C 100.7 17 101.1 17.5 101.6 18 C 102.1 18.4 102.8 18.6 103.5 18.6 Z M 114.5 21.8 L 114.5 0 L 119 0 L 119 8.2 C 119 8.2 119.16 8.2 119.2 8.2 C 119.4 7.8 119.7 7.3 120 6.9 C 120.4 6.4 120.9 6 121.5 5.7 C 122.1 5.4 122.9 5.2 123.8 5.2 C 125 5.2 126.1 5.6 127.1 6.2 C 128.1 6.8 128.9 7.7 129.5 9 C 130.1 10.2 130.4 11.8 130.4 13.7 C 130.4 15.5 130.2 17 129.6 18.3 C 129 19.5 128.2 20.5 127.2 21.1 C 126.2 21.8 125.1 22.1 123.8 22.1 C 122.9 22.1 122.2 21.9 121.6 21.6 C 121 21.4 120.4 21 120.1 20.5 C 119.7 20.1 119.4 19.7 119.2 19.2 C 119.16 19.2 119 19.2 119 19.2 L 119 21.8 L 114.5 21.8 Z M 118.9 13.6 C 118.9 14.6 119.1 15.5 119.3 16.2 C 119.6 16.9 120 17.5 120.5 17.9 C 121 18.3 121.6 18.5 122.4 18.5 C 123.1 18.5 123.7 18.3 124.2 17.9 C 124.8 17.5 125.1 16.9 125.4 16.2 C 125.7 15.4 125.8 14.6 125.8 13.6 C 125.8 12.7 125.7 11.9 125.4 11.1 C 125.2 10.4 124.8 9.9 124.3 9.5 C 123.7 9.1 123.1 8.9 122.4 8.9 C 121.6 8.9 121 9 120.5 9.4 C 120 9.8 119.6 10.4 119.3 11.1 C 119.1 11.8 118.9 12.7 118.9 13.6 Z M 138 0 L 138 21.8 L 133.5 21.8 L 133.5 0 L 138 0 Z M 149 22.1 C 147.4 22.1 145.9 21.8 144.7 21.1 C 143.5 20.4 142.6 19.5 141.9 18.2 C 141.2 16.9 140.9 15.4 140.9 13.7 C 140.9 12 141.2 10.6 141.9 9.3 C 142.6 8 143.5 7 144.7 6.3 C 145.9 5.6 147.3 5.2 148.9 5.2 C 149.9 5.2 150.9 5.4 151.9 5.8 C 152.8 6.1 153.6 6.6 154.3 7.3 C 155 8 155.6 8.9 156 9.9 C 156.4 10.9 156.5 12.2 156.5 13.6 C 156.55 13.55 156.5 14.8 156.5 14.8 L 142.7 14.8 L 142.7 12 C 142.7 12 152.28 11.99 152.3 12 C 152.3 11.3 152.1 10.8 151.8 10.2 C 151.6 9.7 151.2 9.3 150.7 9.1 C 150.2 8.8 149.6 8.6 148.9 8.6 C 148.2 8.6 147.6 8.8 147.1 9.1 C 146.6 9.4 146.2 9.8 145.9 10.4 C 145.6 10.9 145.4 11.5 145.4 12.1 C 145.4 12.1 145.4 14.8 145.4 14.8 C 145.4 15.6 145.6 16.3 145.9 16.9 C 146.2 17.5 146.6 18 147.1 18.3 C 147.7 18.6 148.4 18.8 149.1 18.8 C 149.6 18.8 150.1 18.7 150.5 18.5 C 150.9 18.4 151.3 18.2 151.6 17.9 C 151.9 17.6 152.1 17.3 152.3 16.9 C 152.3 16.9 156.5 17.1 156.5 17.1 C 156.2 18.1 155.8 19 155.1 19.8 C 154.5 20.5 153.6 21.1 152.6 21.5 C 151.6 21.9 150.4 22.1 149 22.1 Z M 159.5 21.8 L 159.5 5.5 L 163.9 5.5 L 163.9 8.3 C 163.9 8.3 164.06 8.34 164.1 8.3 C 164.4 7.4 165 6.6 165.8 6.1 C 166.6 5.5 167.5 5.2 168.6 5.2 C 169.7 5.2 170.7 5.5 171.5 6.1 C 172.3 6.6 172.8 7.4 173.1 8.3 C 173.1 8.3 173.2 8.3 173.2 8.3 C 173.6 7.4 174.2 6.7 175.1 6.1 C 175.9 5.5 177 5.2 178.2 5.2 C 179.7 5.2 180.9 5.7 181.9 6.7 C 182.8 7.7 183.3 9 183.3 10.8 C 183.32 10.81 183.3 21.8 183.3 21.8 L 178.8 21.8 C 178.8 21.8 178.8 11.71 178.8 11.7 C 178.8 10.8 178.6 10.1 178.1 9.7 C 177.6 9.2 177 9 176.3 9 C 175.4 9 174.8 9.2 174.3 9.8 C 173.9 10.3 173.6 11 173.6 11.8 C 173.64 11.83 173.6 21.8 173.6 21.8 L 169.2 21.8 C 169.2 21.8 169.24 11.61 169.2 11.6 C 169.2 10.8 169 10.2 168.6 9.7 C 168.1 9.2 167.5 9 166.7 9 C 166.2 9 165.8 9.1 165.4 9.4 C 165 9.6 164.7 10 164.4 10.4 C 164.2 10.9 164.1 11.4 164.1 12 C 164.08 12 164.1 21.8 164.1 21.8 L 159.5 21.8 Z M 197.1 21.8 L 192.6 5.5 L 197.2 5.5 L 199.8 16.4 L 199.9 16.4 L 202.6 5.5 L 207.1 5.5 L 209.7 16.4 L 209.9 16.4 L 212.4 5.5 L 217 5.5 L 212.5 21.8 L 207.7 21.8 L 204.9 11.5 L 204.7 11.5 L 201.9 21.8 L 197.1 21.8 Z M 219.1 21.8 L 219.1 5.5 L 223.7 5.5 L 223.7 21.8 L 219.1 21.8 Z M 221.4 3.3 C 220.7 3.3 220.2 3.1 219.7 2.7 C 219.2 2.2 219 1.7 219 1.1 C 219 0.4 219.2 -0.1 219.7 -0.6 C 220.2 -1 220.8 -1.2 221.4 -1.2 C 222.1 -1.2 222.7 -1 223.2 -0.6 C 223.6 -0.1 223.9 0.4 223.9 1 C 223.9 1.7 223.6 2.2 223.2 2.7 C 222.7 3.1 222.1 3.3 221.4 3.3 Z M 235.8 5.5 L 235.8 8.9 L 225.9 8.9 L 225.9 5.5 L 235.8 5.5 Z M 228.2 1.5 L 232.7 1.5 C 232.7 1.5 232.69 16.79 232.7 16.8 C 232.7 17.2 232.8 17.5 232.9 17.8 C 233 18 233.2 18.2 233.4 18.2 C 233.6 18.3 233.9 18.4 234.2 18.4 C 234.4 18.4 234.6 18.4 234.9 18.3 C 235.1 18.3 235.2 18.3 235.4 18.2 C 235.4 18.2 236.1 21.6 236.1 21.6 C 235.8 21.7 235.5 21.8 235.1 21.9 C 234.7 22 234.2 22 233.6 22 C 232.5 22.1 231.6 21.9 230.7 21.6 C 229.9 21.3 229.3 20.8 228.8 20 C 228.4 19.3 228.1 18.5 228.2 17.4 C 228.15 17.39 228.2 1.5 228.2 1.5 Z M 243.1 12.4 C 243.12 12.36 243.1 21.8 243.1 21.8 L 238.6 21.8 L 238.6 0 L 243 0 L 243 8.3 C 243 8.3 243.18 8.34 243.2 8.3 C 243.5 7.4 244.1 6.6 245 6.1 C 245.8 5.5 246.8 5.2 248.1 5.2 C 249.2 5.2 250.2 5.5 251 6 C 251.9 6.5 252.6 7.2 253 8.1 C 253.5 9 253.7 10.1 253.7 11.4 C 253.73 11.4 253.7 21.8 253.7 21.8 L 249.2 21.8 C 249.2 21.8 249.19 12.21 249.2 12.2 C 249.2 11.2 248.9 10.4 248.4 9.9 C 247.9 9.3 247.2 9 246.3 9 C 245.7 9 245.1 9.1 244.6 9.4 C 244.2 9.7 243.8 10.1 243.5 10.6 C 243.3 11.1 243.1 11.7 243.1 12.4 Z " stroke="none" fill="#ffffff"/>  </g></svg>