<?xml version="1.0" standalone="no"?><!DOCTYPE svg PUBLIC "-//W3C//DTD SVG 1.1//EN" "http://www.w3.org/Graphics/SVG/1.1/DTD/svg11.dtd"><svg xmlns="http://www.w3.org/2000/svg" version="1.1" width="646px" height="184px" viewBox="0 -17 646 184" style="top:-17px">  <desc>Incomplete data access ￼ Without access to all available data, AI driven insights can’t be trusted. More about this ￼</desc>  <defs/>  <g id="Polygon112576">    <path d="M 1.6 133.1 L 6.3 133.1 L 11.3 145.3 L 11.5 145.3 L 16.5 133.1 L 21.3 133.1 L 21.3 151.3 L 17.6 151.3 L 17.6 139.4 L 17.4 139.4 L 12.7 151.2 L 10.2 151.2 L 5.5 139.4 L 5.3 139.4 L 5.3 151.3 L 1.6 151.3 L 1.6 133.1 Z M 30.5 151.5 C 29.1 151.5 27.9 151.2 26.9 150.7 C 25.9 150.1 25.1 149.2 24.6 148.2 C 24.1 147.1 23.8 145.9 23.8 144.5 C 23.8 143.1 24.1 141.9 24.6 140.8 C 25.1 139.8 25.9 138.9 26.9 138.3 C 27.9 137.8 29.1 137.5 30.5 137.5 C 31.9 137.5 33.1 137.8 34.1 138.3 C 35.1 138.9 35.8 139.8 36.4 140.8 C 36.9 141.9 37.2 143.1 37.2 144.5 C 37.2 145.9 36.9 147.1 36.4 148.2 C 35.8 149.2 35.1 150.1 34.1 150.7 C 33.1 151.2 31.9 151.5 30.5 151.5 Z M 30.5 148.6 C 31.1 148.6 31.7 148.4 32.1 148.1 C 32.5 147.7 32.8 147.2 33 146.6 C 33.3 146 33.4 145.3 33.4 144.5 C 33.4 143.7 33.3 143 33 142.4 C 32.8 141.7 32.5 141.2 32.1 140.9 C 31.7 140.5 31.1 140.3 30.5 140.3 C 29.9 140.3 29.4 140.5 28.9 140.9 C 28.5 141.2 28.2 141.7 28 142.4 C 27.7 143 27.6 143.7 27.6 144.5 C 27.6 145.3 27.7 146 28 146.6 C 28.2 147.2 28.5 147.7 28.9 148.1 C 29.4 148.4 29.9 148.6 30.5 148.6 Z M 39.6 151.3 L 39.6 137.6 L 43.3 137.6 L 43.3 140 C 43.3 140 43.4 140.02 43.4 140 C 43.6 139.2 44.1 138.5 44.6 138.1 C 45.2 137.7 45.9 137.4 46.7 137.4 C 46.9 137.4 47.1 137.5 47.3 137.5 C 47.5 137.5 47.7 137.5 47.9 137.6 C 47.9 137.6 47.9 140.9 47.9 140.9 C 47.7 140.9 47.4 140.8 47.1 140.8 C 46.8 140.7 46.5 140.7 46.3 140.7 C 45.7 140.7 45.2 140.8 44.8 141.1 C 44.3 141.3 44 141.7 43.7 142.1 C 43.5 142.5 43.4 143 43.4 143.6 C 43.37 143.56 43.4 151.3 43.4 151.3 L 39.6 151.3 Z M 55.6 151.5 C 54.2 151.5 53 151.3 52 150.7 C 51 150.1 50.2 149.3 49.7 148.2 C 49.1 147.2 48.9 146 48.9 144.5 C 48.9 143.1 49.1 141.9 49.7 140.8 C 50.2 139.8 51 138.9 52 138.3 C 53 137.8 54.2 137.5 55.5 137.5 C 56.4 137.5 57.2 137.6 58 137.9 C 58.8 138.2 59.5 138.6 60 139.2 C 60.6 139.8 61.1 140.5 61.4 141.3 C 61.7 142.2 61.9 143.2 61.9 144.4 C 61.9 144.38 61.9 145.4 61.9 145.4 L 50.4 145.4 L 50.4 143.1 C 50.4 143.1 58.34 143.08 58.3 143.1 C 58.3 142.5 58.2 142.1 58 141.6 C 57.7 141.2 57.4 140.9 57 140.6 C 56.6 140.4 56.1 140.3 55.6 140.3 C 55 140.3 54.5 140.4 54 140.7 C 53.6 140.9 53.2 141.3 53 141.7 C 52.7 142.2 52.6 142.7 52.6 143.2 C 52.6 143.2 52.6 145.4 52.6 145.4 C 52.6 146.1 52.7 146.7 53 147.2 C 53.2 147.7 53.6 148.1 54.1 148.3 C 54.5 148.6 55.1 148.7 55.7 148.7 C 56.1 148.7 56.5 148.7 56.9 148.5 C 57.2 148.4 57.5 148.2 57.8 148 C 58 147.8 58.2 147.5 58.3 147.1 C 58.3 147.1 61.8 147.4 61.8 147.4 C 61.6 148.2 61.3 148.9 60.7 149.6 C 60.2 150.2 59.5 150.7 58.6 151 C 57.8 151.4 56.8 151.5 55.6 151.5 Z M 74.1 151.5 C 73.2 151.5 72.4 151.4 71.7 151.1 C 71 150.8 70.5 150.3 70.1 149.7 C 69.7 149.1 69.5 148.4 69.5 147.5 C 69.5 146.7 69.7 146.1 69.9 145.6 C 70.2 145 70.6 144.6 71.1 144.3 C 71.6 144 72.1 143.8 72.7 143.6 C 73.3 143.4 74 143.3 74.6 143.3 C 75.4 143.2 76.1 143.1 76.6 143 C 77.1 143 77.4 142.8 77.6 142.7 C 77.8 142.5 78 142.3 78 142 C 78 142 78 142 78 142 C 78 141.4 77.8 141 77.4 140.7 C 77.1 140.4 76.6 140.2 75.9 140.2 C 75.2 140.2 74.7 140.4 74.3 140.7 C 73.9 141 73.6 141.3 73.5 141.8 C 73.5 141.8 70 141.5 70 141.5 C 70.2 140.7 70.5 140 71.1 139.4 C 71.6 138.7 72.2 138.3 73.1 138 C 73.9 137.6 74.9 137.5 75.9 137.5 C 76.7 137.5 77.4 137.5 78.1 137.7 C 78.8 137.9 79.4 138.2 80 138.6 C 80.5 138.9 80.9 139.4 81.3 140 C 81.6 140.6 81.7 141.3 81.7 142.1 C 81.73 142.08 81.7 151.3 81.7 151.3 L 78.1 151.3 L 78.1 149.4 C 78.1 149.4 78.04 149.38 78 149.4 C 77.8 149.8 77.5 150.2 77.2 150.5 C 76.8 150.8 76.4 151.1 75.8 151.3 C 75.3 151.4 74.7 151.5 74.1 151.5 Z M 75.1 148.9 C 75.7 148.9 76.2 148.8 76.6 148.6 C 77 148.4 77.4 148.1 77.6 147.7 C 77.9 147.3 78 146.9 78 146.4 C 78 146.4 78 145 78 145 C 77.9 145 77.7 145.1 77.5 145.2 C 77.3 145.2 77.1 145.3 76.8 145.3 C 76.6 145.4 76.3 145.4 76 145.5 C 75.8 145.5 75.6 145.5 75.4 145.6 C 74.9 145.6 74.5 145.7 74.2 145.9 C 73.9 146 73.6 146.2 73.4 146.4 C 73.2 146.7 73.1 147 73.1 147.3 C 73.1 147.9 73.3 148.2 73.7 148.5 C 74.1 148.8 74.6 148.9 75.1 148.9 Z M 84.5 151.3 L 84.5 133.1 L 88.3 133.1 L 88.3 139.9 C 88.3 139.9 88.38 139.93 88.4 139.9 C 88.5 139.6 88.8 139.2 89.1 138.8 C 89.4 138.4 89.8 138.1 90.3 137.8 C 90.9 137.6 91.5 137.5 92.3 137.5 C 93.3 137.5 94.2 137.7 95 138.2 C 95.9 138.8 96.5 139.5 97 140.6 C 97.5 141.6 97.8 142.9 97.8 144.5 C 97.8 146 97.5 147.3 97 148.3 C 96.6 149.4 95.9 150.2 95.1 150.7 C 94.2 151.2 93.3 151.5 92.3 151.5 C 91.5 151.5 90.9 151.4 90.4 151.1 C 89.9 150.9 89.5 150.6 89.1 150.2 C 88.8 149.8 88.6 149.5 88.4 149.1 C 88.38 149.09 88.2 149.1 88.2 149.1 L 88.2 151.3 L 84.5 151.3 Z M 88.2 144.5 C 88.2 145.3 88.3 146 88.5 146.6 C 88.7 147.2 89.1 147.6 89.5 148 C 89.9 148.3 90.4 148.5 91.1 148.5 C 91.7 148.5 92.2 148.3 92.6 148 C 93 147.6 93.4 147.2 93.6 146.6 C 93.8 145.9 93.9 145.2 93.9 144.5 C 93.9 143.7 93.8 143 93.6 142.4 C 93.4 141.8 93.1 141.3 92.6 141 C 92.2 140.6 91.7 140.5 91.1 140.5 C 90.4 140.5 89.9 140.6 89.5 141 C 89.1 141.3 88.7 141.7 88.5 142.3 C 88.3 142.9 88.2 143.6 88.2 144.5 Z M 106.3 151.5 C 105 151.5 103.8 151.2 102.8 150.7 C 101.8 150.1 101 149.2 100.4 148.2 C 99.9 147.1 99.6 145.9 99.6 144.5 C 99.6 143.1 99.9 141.9 100.4 140.8 C 101 139.8 101.8 138.9 102.8 138.3 C 103.8 137.8 105 137.5 106.3 137.5 C 107.7 137.5 108.9 137.8 109.9 138.3 C 110.9 138.9 111.7 139.8 112.2 140.8 C 112.8 141.9 113 143.1 113 144.5 C 113 145.9 112.8 147.1 112.2 148.2 C 111.7 149.2 110.9 150.1 109.9 150.7 C 108.9 151.2 107.7 151.5 106.3 151.5 Z M 106.4 148.6 C 107 148.6 107.5 148.4 107.9 148.1 C 108.3 147.7 108.7 147.2 108.9 146.6 C 109.1 146 109.2 145.3 109.2 144.5 C 109.2 143.7 109.1 143 108.9 142.4 C 108.7 141.7 108.3 141.2 107.9 140.9 C 107.5 140.5 107 140.3 106.4 140.3 C 105.7 140.3 105.2 140.5 104.8 140.9 C 104.3 141.2 104 141.7 103.8 142.4 C 103.6 143 103.5 143.7 103.5 144.5 C 103.5 145.3 103.6 146 103.8 146.6 C 104 147.2 104.3 147.7 104.8 148.1 C 105.2 148.4 105.7 148.6 106.4 148.6 Z M 124.1 145.5 C 124.08 145.47 124.1 137.6 124.1 137.6 L 127.9 137.6 L 127.9 151.3 L 124.2 151.3 L 124.2 148.8 C 124.2 148.8 124.09 148.8 124.1 148.8 C 123.8 149.6 123.3 150.2 122.6 150.7 C 121.8 151.2 121 151.5 120 151.5 C 119 151.5 118.2 151.2 117.6 150.8 C 116.9 150.4 116.3 149.8 115.9 149.1 C 115.5 148.3 115.3 147.4 115.3 146.3 C 115.34 146.32 115.3 137.6 115.3 137.6 L 119.1 137.6 C 119.1 137.6 119.12 145.64 119.1 145.6 C 119.1 146.4 119.3 147.1 119.8 147.6 C 120.2 148 120.8 148.3 121.5 148.3 C 121.9 148.3 122.4 148.1 122.8 147.9 C 123.2 147.7 123.5 147.4 123.7 147 C 124 146.6 124.1 146.1 124.1 145.5 Z M 138 137.6 L 138 140.5 L 129.7 140.5 L 129.7 137.6 L 138 137.6 Z M 131.6 134.4 L 135.4 134.4 C 135.4 134.4 135.38 147.08 135.4 147.1 C 135.4 147.4 135.4 147.7 135.5 147.9 C 135.7 148.1 135.8 148.2 136 148.3 C 136.2 148.4 136.4 148.4 136.7 148.4 C 136.8 148.4 137 148.4 137.2 148.4 C 137.4 148.3 137.5 148.3 137.6 148.3 C 137.6 148.3 138.2 151.1 138.2 151.1 C 138 151.2 137.7 151.2 137.4 151.3 C 137.1 151.4 136.6 151.4 136.1 151.5 C 135.2 151.5 134.4 151.4 133.8 151.1 C 133.1 150.8 132.5 150.4 132.2 149.8 C 131.8 149.2 131.6 148.5 131.6 147.6 C 131.6 147.58 131.6 134.4 131.6 134.4 Z M 153.5 137.6 L 153.5 140.5 L 145.2 140.5 L 145.2 137.6 L 153.5 137.6 Z M 147.1 134.4 L 150.9 134.4 C 150.9 134.4 150.89 147.08 150.9 147.1 C 150.9 147.4 150.9 147.7 151.1 147.9 C 151.2 148.1 151.3 148.2 151.5 148.3 C 151.7 148.4 151.9 148.4 152.2 148.4 C 152.4 148.4 152.5 148.4 152.7 148.4 C 152.9 148.3 153 148.3 153.1 148.3 C 153.1 148.3 153.7 151.1 153.7 151.1 C 153.5 151.2 153.3 151.2 152.9 151.3 C 152.6 151.4 152.1 151.4 151.7 151.5 C 150.7 151.5 149.9 151.4 149.3 151.1 C 148.6 150.8 148.1 150.4 147.7 149.8 C 147.3 149.2 147.1 148.5 147.1 147.6 C 147.11 147.58 147.1 134.4 147.1 134.4 Z M 159.4 143.4 C 159.4 143.39 159.4 151.3 159.4 151.3 L 155.6 151.3 L 155.6 133.1 L 159.3 133.1 L 159.3 140 C 159.3 140 159.46 140.04 159.5 140 C 159.8 139.2 160.3 138.6 160.9 138.1 C 161.6 137.7 162.5 137.5 163.5 137.5 C 164.5 137.5 165.3 137.7 166 138.1 C 166.7 138.5 167.3 139.1 167.7 139.8 C 168.1 140.6 168.3 141.5 168.2 142.6 C 168.25 142.59 168.2 151.3 168.2 151.3 L 164.5 151.3 C 164.5 151.3 164.46 143.26 164.5 143.3 C 164.5 142.4 164.3 141.8 163.8 141.3 C 163.4 140.8 162.8 140.6 162 140.6 C 161.5 140.6 161.1 140.7 160.7 140.9 C 160.3 141.1 160 141.5 159.7 141.9 C 159.5 142.3 159.4 142.8 159.4 143.4 Z M 171.1 151.3 L 171.1 137.6 L 174.9 137.6 L 174.9 151.3 L 171.1 151.3 Z M 173 135.9 C 172.4 135.9 171.9 135.7 171.5 135.3 C 171.1 134.9 170.9 134.5 170.9 134 C 170.9 133.4 171.1 133 171.5 132.6 C 171.9 132.2 172.4 132.1 173 132.1 C 173.5 132.1 174 132.2 174.4 132.6 C 174.8 133 175 133.4 175 134 C 175 134.5 174.8 134.9 174.4 135.3 C 174 135.7 173.5 135.9 173 135.9 Z M 189 141.5 C 189 141.5 185.5 141.7 185.5 141.7 C 185.5 141.4 185.3 141.2 185.1 140.9 C 184.9 140.7 184.7 140.5 184.4 140.4 C 184.1 140.2 183.7 140.1 183.2 140.1 C 182.7 140.1 182.2 140.3 181.8 140.5 C 181.4 140.8 181.2 141.1 181.2 141.5 C 181.2 141.8 181.3 142.1 181.5 142.3 C 181.8 142.5 182.3 142.7 182.9 142.9 C 182.9 142.9 185.4 143.4 185.4 143.4 C 186.7 143.6 187.7 144.1 188.3 144.7 C 189 145.3 189.3 146.1 189.3 147 C 189.3 147.9 189 148.7 188.5 149.4 C 188 150.1 187.3 150.6 186.4 151 C 185.5 151.4 184.4 151.5 183.2 151.5 C 181.4 151.5 180 151.2 178.9 150.4 C 177.8 149.7 177.2 148.6 177 147.3 C 177 147.3 180.8 147.1 180.8 147.1 C 180.9 147.7 181.1 148.1 181.6 148.4 C 182 148.7 182.6 148.8 183.2 148.8 C 183.9 148.8 184.4 148.7 184.8 148.4 C 185.2 148.2 185.5 147.8 185.5 147.4 C 185.5 147.1 185.3 146.8 185 146.6 C 184.7 146.4 184.3 146.2 183.7 146.1 C 183.7 146.1 181.3 145.6 181.3 145.6 C 180 145.3 179 144.9 178.4 144.2 C 177.7 143.6 177.4 142.7 177.4 141.7 C 177.4 140.8 177.6 140.1 178.1 139.4 C 178.6 138.8 179.3 138.3 180.1 138 C 181 137.6 182 137.5 183.2 137.5 C 184.9 137.5 186.3 137.8 187.3 138.6 C 188.2 139.3 188.8 140.3 189 141.5 Z " stroke="none" fill="#10283d"/>  </g>  <g id="Polygon112575">    <path d="M 2.9 105.3 L 0.6 105.3 L 7.3 87.1 L 9.6 87.1 L 16.3 105.3 L 14 105.3 L 8.5 90 L 8.4 90 L 2.9 105.3 Z M 3.8 98.2 L 13.1 98.2 L 13.1 100.1 L 3.8 100.1 L 3.8 98.2 Z M 21.2 87.1 L 21.2 105.3 L 19 105.3 L 19 87.1 L 21.2 87.1 Z M 33.1 96.5 L 33.1 98.5 L 25.1 98.5 L 25.1 96.5 L 33.1 96.5 Z M 41.9 105.6 C 40.8 105.6 39.8 105.3 38.9 104.7 C 38 104.1 37.4 103.3 36.9 102.2 C 36.4 101.2 36.1 99.9 36.1 98.5 C 36.1 97.1 36.4 95.8 36.9 94.8 C 37.4 93.7 38 92.9 38.9 92.3 C 39.8 91.7 40.8 91.5 41.9 91.5 C 42.8 91.5 43.5 91.6 44.1 91.9 C 44.6 92.2 45 92.5 45.2 92.9 C 45.5 93.3 45.7 93.6 45.9 93.8 C 45.89 93.8 46.1 93.8 46.1 93.8 L 46.1 87.1 L 48.2 87.1 L 48.2 105.3 L 46.1 105.3 L 46.1 103.2 C 46.1 103.2 45.89 103.18 45.9 103.2 C 45.7 103.4 45.5 103.7 45.2 104.1 C 44.9 104.5 44.5 104.8 44 105.1 C 43.5 105.4 42.8 105.6 41.9 105.6 Z M 42.2 103.7 C 43 103.7 43.7 103.5 44.3 103 C 44.9 102.6 45.3 102 45.7 101.2 C 46 100.4 46.1 99.5 46.1 98.5 C 46.1 97.4 46 96.5 45.7 95.8 C 45.4 95 44.9 94.4 44.3 94 C 43.8 93.6 43 93.3 42.2 93.3 C 41.3 93.3 40.6 93.6 40 94 C 39.4 94.5 39 95.1 38.7 95.9 C 38.4 96.6 38.2 97.5 38.2 98.5 C 38.2 99.4 38.4 100.3 38.7 101.1 C 39 101.9 39.4 102.5 40 103 C 40.6 103.4 41.3 103.7 42.2 103.7 Z M 52 105.3 L 52 91.6 L 54.1 91.6 L 54.1 93.7 C 54.1 93.7 54.21 93.7 54.2 93.7 C 54.5 93 54.9 92.5 55.6 92.1 C 56.2 91.6 56.9 91.4 57.8 91.4 C 57.9 91.4 58.1 91.4 58.3 91.4 C 58.6 91.4 58.7 91.4 58.9 91.5 C 58.9 91.5 58.9 93.6 58.9 93.6 C 58.8 93.6 58.6 93.5 58.4 93.5 C 58.1 93.5 57.9 93.4 57.6 93.4 C 56.9 93.4 56.3 93.6 55.8 93.9 C 55.3 94.1 54.9 94.5 54.6 95 C 54.3 95.5 54.1 96 54.1 96.6 C 54.14 96.64 54.1 105.3 54.1 105.3 L 52 105.3 Z M 61.3 105.3 L 61.3 91.6 L 63.4 91.6 L 63.4 105.3 L 61.3 105.3 Z M 62.3 89.4 C 61.9 89.4 61.6 89.2 61.3 88.9 C 61 88.7 60.8 88.3 60.8 87.9 C 60.8 87.6 61 87.2 61.3 86.9 C 61.6 86.7 61.9 86.5 62.3 86.5 C 62.7 86.5 63.1 86.7 63.4 86.9 C 63.7 87.2 63.8 87.6 63.8 87.9 C 63.8 88.3 63.7 88.7 63.4 88.9 C 63.1 89.2 62.7 89.4 62.3 89.4 Z M 78.1 91.6 L 73.1 105.3 L 71 105.3 L 65.9 91.6 L 68.2 91.6 L 71.9 102.5 L 72.1 102.5 L 75.9 91.6 L 78.1 91.6 Z M 85.8 105.6 C 84.5 105.6 83.4 105.3 82.4 104.7 C 81.5 104.1 80.7 103.3 80.2 102.2 C 79.7 101.2 79.5 100 79.5 98.6 C 79.5 97.2 79.7 95.9 80.2 94.9 C 80.7 93.8 81.5 93 82.4 92.4 C 83.3 91.8 84.4 91.5 85.6 91.5 C 86.3 91.5 87 91.6 87.7 91.8 C 88.4 92.1 89 92.4 89.6 93 C 90.2 93.5 90.6 94.2 91 95.1 C 91.3 95.9 91.5 97 91.5 98.3 C 91.47 98.28 91.5 99.2 91.5 99.2 L 81 99.2 L 81 97.4 C 81 97.4 89.34 97.35 89.3 97.4 C 89.3 96.6 89.2 95.9 88.9 95.3 C 88.6 94.7 88.1 94.2 87.6 93.9 C 87 93.5 86.4 93.3 85.6 93.3 C 84.8 93.3 84.1 93.5 83.5 94 C 82.8 94.4 82.4 94.9 82.1 95.6 C 81.7 96.2 81.6 96.9 81.6 97.7 C 81.6 97.7 81.6 98.9 81.6 98.9 C 81.6 99.9 81.7 100.8 82.1 101.5 C 82.5 102.2 83 102.8 83.6 103.1 C 84.2 103.5 85 103.7 85.8 103.7 C 86.4 103.7 86.9 103.6 87.3 103.4 C 87.8 103.3 88.2 103 88.5 102.7 C 88.8 102.4 89.1 102 89.2 101.5 C 89.2 101.5 91.3 102.1 91.3 102.1 C 91 102.8 90.7 103.4 90.2 103.9 C 89.7 104.4 89.1 104.8 88.3 105.1 C 87.6 105.4 86.7 105.6 85.8 105.6 Z M 96.7 97.1 C 96.68 97.07 96.7 105.3 96.7 105.3 L 94.6 105.3 L 94.6 91.6 L 96.6 91.6 L 96.6 93.8 C 96.6 93.8 96.78 93.77 96.8 93.8 C 97.1 93.1 97.6 92.5 98.2 92.1 C 98.9 91.7 99.7 91.5 100.8 91.5 C 101.7 91.5 102.5 91.6 103.2 92 C 103.9 92.4 104.4 93 104.8 93.7 C 105.2 94.5 105.4 95.4 105.4 96.6 C 105.38 96.61 105.4 105.3 105.4 105.3 L 103.3 105.3 C 103.3 105.3 103.28 96.75 103.3 96.8 C 103.3 95.7 103 94.8 102.4 94.2 C 101.9 93.6 101.1 93.3 100.2 93.3 C 99.5 93.3 98.9 93.5 98.4 93.8 C 97.8 94.1 97.4 94.5 97.1 95 C 96.8 95.6 96.7 96.3 96.7 97.1 Z M 116.2 105.3 L 116.2 91.6 L 118.3 91.6 L 118.3 105.3 L 116.2 105.3 Z M 117.3 89.4 C 116.9 89.4 116.5 89.2 116.3 88.9 C 116 88.7 115.8 88.3 115.8 87.9 C 115.8 87.6 116 87.2 116.3 86.9 C 116.5 86.7 116.9 86.5 117.3 86.5 C 117.7 86.5 118.1 86.7 118.4 86.9 C 118.7 87.2 118.8 87.6 118.8 87.9 C 118.8 88.3 118.7 88.7 118.4 88.9 C 118.1 89.2 117.7 89.4 117.3 89.4 Z M 124.2 97.1 C 124.19 97.07 124.2 105.3 124.2 105.3 L 122.1 105.3 L 122.1 91.6 L 124.1 91.6 L 124.1 93.8 C 124.1 93.8 124.3 93.77 124.3 93.8 C 124.6 93.1 125.1 92.5 125.8 92.1 C 126.4 91.7 127.2 91.5 128.3 91.5 C 129.2 91.5 130 91.6 130.7 92 C 131.4 92.4 131.9 93 132.3 93.7 C 132.7 94.5 132.9 95.4 132.9 96.6 C 132.89 96.61 132.9 105.3 132.9 105.3 L 130.8 105.3 C 130.8 105.3 130.8 96.75 130.8 96.8 C 130.8 95.7 130.5 94.8 130 94.2 C 129.4 93.6 128.6 93.3 127.7 93.3 C 127 93.3 126.4 93.5 125.9 93.8 C 125.4 94.1 124.9 94.5 124.6 95 C 124.3 95.6 124.2 96.3 124.2 97.1 Z M 146.1 94.7 C 146.1 94.7 144.2 95.2 144.2 95.2 C 144.1 94.9 143.9 94.6 143.7 94.3 C 143.5 94 143.2 93.8 142.8 93.6 C 142.4 93.4 141.9 93.3 141.3 93.3 C 140.4 93.3 139.7 93.5 139.2 93.8 C 138.6 94.2 138.4 94.7 138.4 95.3 C 138.4 95.8 138.5 96.2 138.9 96.5 C 139.3 96.8 139.9 97.1 140.7 97.3 C 140.7 97.3 142.7 97.8 142.7 97.8 C 143.9 98.1 144.8 98.5 145.4 99.1 C 146 99.7 146.3 100.5 146.3 101.5 C 146.3 102.3 146.1 103 145.7 103.6 C 145.2 104.2 144.6 104.7 143.8 105 C 143 105.4 142.1 105.6 141 105.6 C 139.6 105.6 138.5 105.3 137.6 104.7 C 136.6 104 136.1 103.2 135.8 102 C 135.8 102 137.8 101.5 137.8 101.5 C 138 102.2 138.4 102.8 138.9 103.2 C 139.4 103.5 140.1 103.7 141 103.7 C 142 103.7 142.7 103.5 143.3 103.1 C 143.9 102.7 144.2 102.2 144.2 101.6 C 144.2 101.1 144 100.7 143.7 100.4 C 143.3 100.1 142.8 99.8 142.2 99.7 C 142.2 99.7 139.9 99.1 139.9 99.1 C 138.6 98.8 137.7 98.4 137.1 97.7 C 136.5 97.1 136.3 96.3 136.3 95.4 C 136.3 94.6 136.5 94 136.9 93.4 C 137.3 92.8 137.9 92.3 138.7 92 C 139.4 91.6 140.3 91.5 141.3 91.5 C 142.6 91.5 143.7 91.8 144.4 92.3 C 145.2 92.9 145.8 93.7 146.1 94.7 Z M 149.3 105.3 L 149.3 91.6 L 151.4 91.6 L 151.4 105.3 L 149.3 105.3 Z M 150.4 89.4 C 150 89.4 149.6 89.2 149.3 88.9 C 149 88.7 148.9 88.3 148.9 87.9 C 148.9 87.6 149 87.2 149.3 86.9 C 149.6 86.7 150 86.5 150.4 86.5 C 150.8 86.5 151.1 86.7 151.4 86.9 C 151.7 87.2 151.9 87.6 151.9 87.9 C 151.9 88.3 151.7 88.7 151.4 88.9 C 151.1 89.2 150.8 89.4 150.4 89.4 Z M 160.6 110.7 C 159.6 110.7 158.7 110.5 158 110.3 C 157.2 110 156.6 109.7 156.2 109.3 C 155.7 108.9 155.3 108.4 155 107.9 C 155 107.9 156.7 106.8 156.7 106.8 C 156.9 107 157.1 107.3 157.4 107.6 C 157.7 107.9 158.1 108.2 158.6 108.5 C 159.1 108.7 159.8 108.8 160.6 108.8 C 161.7 108.8 162.6 108.6 163.3 108 C 164 107.5 164.4 106.7 164.4 105.5 C 164.38 105.52 164.4 102.8 164.4 102.8 C 164.4 102.8 164.2 102.75 164.2 102.8 C 164 103 163.8 103.3 163.5 103.7 C 163.3 104 162.9 104.4 162.3 104.6 C 161.8 104.9 161.1 105.1 160.2 105.1 C 159.1 105.1 158.1 104.8 157.3 104.3 C 156.4 103.8 155.7 103 155.2 102 C 154.7 101 154.4 99.8 154.4 98.4 C 154.4 97 154.7 95.8 155.2 94.7 C 155.7 93.7 156.3 92.9 157.2 92.3 C 158.1 91.7 159.1 91.5 160.3 91.5 C 161.1 91.5 161.9 91.6 162.4 91.9 C 162.9 92.2 163.3 92.5 163.6 92.9 C 163.9 93.3 164.1 93.6 164.2 93.8 C 164.24 93.8 164.4 93.8 164.4 93.8 L 164.4 91.6 L 166.5 91.6 C 166.5 91.6 166.47 105.66 166.5 105.7 C 166.5 106.8 166.2 107.8 165.7 108.5 C 165.1 109.3 164.4 109.8 163.5 110.2 C 162.7 110.5 161.7 110.7 160.6 110.7 Z M 160.5 103.2 C 161.3 103.2 162.1 103 162.6 102.6 C 163.2 102.2 163.7 101.7 164 100.9 C 164.3 100.2 164.4 99.4 164.4 98.3 C 164.4 97.4 164.3 96.5 164 95.7 C 163.7 95 163.2 94.4 162.7 94 C 162.1 93.6 161.4 93.3 160.5 93.3 C 159.6 93.3 158.9 93.6 158.3 94 C 157.7 94.5 157.3 95.1 157 95.8 C 156.7 96.6 156.5 97.4 156.5 98.3 C 156.5 99.3 156.7 100.1 157 100.9 C 157.3 101.6 157.7 102.1 158.3 102.6 C 158.9 103 159.6 103.2 160.5 103.2 Z M 172.3 97.1 C 172.31 97.07 172.3 105.3 172.3 105.3 L 170.2 105.3 L 170.2 87.1 L 172.3 87.1 L 172.3 93.8 C 172.3 93.8 172.49 93.77 172.5 93.8 C 172.8 93.1 173.3 92.5 173.9 92.1 C 174.6 91.7 175.4 91.5 176.5 91.5 C 177.4 91.5 178.2 91.6 178.9 92 C 179.6 92.4 180.2 92.9 180.6 93.7 C 181 94.5 181.2 95.4 181.2 96.6 C 181.15 96.61 181.2 105.3 181.2 105.3 L 179.1 105.3 C 179.1 105.3 179.06 96.75 179.1 96.8 C 179.1 95.7 178.8 94.8 178.2 94.2 C 177.7 93.6 176.9 93.3 175.9 93.3 C 175.2 93.3 174.6 93.5 174.1 93.8 C 173.5 94.1 173.1 94.5 172.8 95 C 172.5 95.6 172.3 96.3 172.3 97.1 Z M 190.5 91.6 L 190.5 93.4 L 183.4 93.4 L 183.4 91.6 L 190.5 91.6 Z M 185.4 88.4 L 187.5 88.4 C 187.5 88.4 187.54 101.37 187.5 101.4 C 187.5 102 187.6 102.4 187.8 102.7 C 188 103 188.2 103.2 188.5 103.3 C 188.8 103.4 189 103.4 189.4 103.4 C 189.6 103.4 189.8 103.4 189.9 103.4 C 190.1 103.4 190.2 103.3 190.3 103.3 C 190.3 103.3 190.7 105.2 190.7 105.2 C 190.6 105.3 190.4 105.3 190.1 105.4 C 189.9 105.4 189.5 105.5 189.1 105.5 C 188.5 105.5 188 105.3 187.4 105.1 C 186.8 104.8 186.4 104.4 186 103.9 C 185.6 103.4 185.4 102.7 185.4 101.9 C 185.45 101.93 185.4 88.4 185.4 88.4 Z M 202.9 94.7 C 202.9 94.7 201 95.2 201 95.2 C 200.9 94.9 200.7 94.6 200.5 94.3 C 200.3 94 200 93.8 199.6 93.6 C 199.2 93.4 198.7 93.3 198.1 93.3 C 197.3 93.3 196.6 93.5 196 93.8 C 195.5 94.2 195.2 94.7 195.2 95.3 C 195.2 95.8 195.4 96.2 195.7 96.5 C 196.1 96.8 196.7 97.1 197.5 97.3 C 197.5 97.3 199.5 97.8 199.5 97.8 C 200.8 98.1 201.7 98.5 202.3 99.1 C 202.9 99.7 203.2 100.5 203.2 101.5 C 203.2 102.3 202.9 103 202.5 103.6 C 202.1 104.2 201.4 104.7 200.6 105 C 199.8 105.4 198.9 105.6 197.8 105.6 C 196.5 105.6 195.3 105.3 194.4 104.7 C 193.5 104 192.9 103.2 192.7 102 C 192.7 102 194.6 101.5 194.6 101.5 C 194.8 102.2 195.2 102.8 195.7 103.2 C 196.3 103.5 197 103.7 197.8 103.7 C 198.8 103.7 199.6 103.5 200.1 103.1 C 200.7 102.7 201 102.2 201 101.6 C 201 101.1 200.8 100.7 200.5 100.4 C 200.2 100.1 199.7 99.8 199 99.7 C 199 99.7 196.7 99.1 196.7 99.1 C 195.5 98.8 194.5 98.4 194 97.7 C 193.4 97.1 193.1 96.3 193.1 95.4 C 193.1 94.6 193.3 94 193.7 93.4 C 194.2 92.8 194.8 92.3 195.5 92 C 196.3 91.6 197.1 91.5 198.1 91.5 C 199.4 91.5 200.5 91.8 201.3 92.3 C 202 92.9 202.6 93.7 202.9 94.7 Z M 218.9 105.6 C 217.6 105.6 216.5 105.3 215.6 104.7 C 214.7 104 214 103.2 213.5 102.2 C 213 101.1 212.7 99.9 212.7 98.5 C 212.7 97.1 213 95.9 213.5 94.9 C 214 93.8 214.7 93 215.6 92.4 C 216.6 91.8 217.6 91.5 218.9 91.5 C 219.8 91.5 220.7 91.6 221.5 92 C 222.2 92.3 222.9 92.8 223.4 93.5 C 223.8 94.1 224.1 94.9 224.3 95.7 C 224.3 95.7 222.2 95.7 222.2 95.7 C 222 95.1 221.7 94.5 221.1 94.1 C 220.6 93.6 219.8 93.3 218.9 93.3 C 218.1 93.3 217.4 93.6 216.8 94 C 216.1 94.4 215.7 95 215.3 95.8 C 215 96.5 214.8 97.4 214.8 98.5 C 214.8 99.5 215 100.4 215.3 101.2 C 215.7 102 216.1 102.6 216.7 103 C 217.4 103.5 218.1 103.7 218.9 103.7 C 219.4 103.7 219.9 103.6 220.4 103.4 C 220.8 103.2 221.2 102.9 221.5 102.6 C 221.8 102.2 222 101.8 222.2 101.3 C 222.2 101.3 224.3 101.3 224.3 101.3 C 224.1 102.1 223.9 102.8 223.4 103.5 C 222.9 104.1 222.3 104.6 221.6 105 C 220.8 105.4 219.9 105.6 218.9 105.6 Z M 231.3 105.6 C 230.4 105.6 229.6 105.4 228.9 105.1 C 228.2 104.8 227.7 104.3 227.3 103.7 C 226.8 103 226.6 102.3 226.6 101.4 C 226.6 100.6 226.8 100 227.1 99.5 C 227.4 99 227.8 98.6 228.3 98.3 C 228.8 98.1 229.4 97.9 230 97.7 C 230.7 97.6 231.3 97.5 231.9 97.4 C 232.7 97.3 233.4 97.2 233.9 97.1 C 234.5 97.1 234.8 97 235.1 96.9 C 235.3 96.7 235.4 96.5 235.4 96.1 C 235.4 96.1 235.4 96.1 235.4 96.1 C 235.4 95.2 235.2 94.5 234.7 94 C 234.2 93.5 233.5 93.3 232.6 93.3 C 231.6 93.3 230.8 93.5 230.2 94 C 229.6 94.4 229.2 94.9 229 95.4 C 229 95.4 227 94.7 227 94.7 C 227.4 93.8 227.9 93.2 228.4 92.7 C 229 92.3 229.7 91.9 230.4 91.7 C 231.1 91.6 231.8 91.5 232.5 91.5 C 232.9 91.5 233.4 91.5 234 91.6 C 234.6 91.7 235.1 91.9 235.7 92.2 C 236.2 92.6 236.6 93.1 237 93.7 C 237.4 94.3 237.5 95.2 237.5 96.3 C 237.53 96.29 237.5 105.3 237.5 105.3 L 235.4 105.3 L 235.4 103.4 C 235.4 103.4 235.33 103.43 235.3 103.4 C 235.2 103.7 235 104 234.6 104.4 C 234.3 104.7 233.8 105 233.3 105.2 C 232.7 105.5 232.1 105.6 231.3 105.6 Z M 231.6 103.7 C 232.4 103.7 233.1 103.5 233.7 103.2 C 234.3 102.9 234.7 102.5 235 102 C 235.3 101.4 235.4 100.9 235.4 100.3 C 235.4 100.3 235.4 98.4 235.4 98.4 C 235.3 98.5 235.2 98.6 234.9 98.7 C 234.6 98.8 234.2 98.9 233.8 98.9 C 233.4 99 233.1 99 232.7 99.1 C 232.3 99.1 232 99.2 231.8 99.2 C 231.3 99.3 230.8 99.4 230.3 99.5 C 229.8 99.7 229.4 99.9 229.2 100.2 C 228.9 100.6 228.7 101 228.7 101.5 C 228.7 102.2 229 102.8 229.5 103.2 C 230.1 103.5 230.8 103.7 231.6 103.7 Z M 243.4 97.1 C 243.35 97.07 243.4 105.3 243.4 105.3 L 241.3 105.3 L 241.3 91.6 L 243.3 91.6 L 243.3 93.8 C 243.3 93.8 243.46 93.77 243.5 93.8 C 243.8 93.1 244.3 92.5 244.9 92.1 C 245.6 91.7 246.4 91.5 247.4 91.5 C 248.4 91.5 249.2 91.6 249.9 92 C 250.6 92.4 251.1 93 251.5 93.7 C 251.9 94.5 252.1 95.4 252.1 96.6 C 252.06 96.61 252.1 105.3 252.1 105.3 L 250 105.3 C 250 105.3 249.96 96.75 250 96.8 C 250 95.7 249.7 94.8 249.1 94.2 C 248.6 93.6 247.8 93.3 246.8 93.3 C 246.2 93.3 245.6 93.5 245 93.8 C 244.5 94.1 244.1 94.5 243.8 95 C 243.5 95.6 243.4 96.3 243.4 97.1 Z M 257.5 87.1 C 257.5 87.1 257.52 88.69 257.5 88.7 C 257.5 89.2 257.4 89.7 257.3 90.2 C 257.1 90.8 256.8 91.3 256.5 91.8 C 256.2 92.3 255.8 92.8 255.3 93.2 C 255.3 93.2 254.2 92.2 254.2 92.2 C 254.5 91.7 254.8 91.2 255.1 90.6 C 255.4 90 255.5 89.4 255.5 88.7 C 255.54 88.72 255.5 87.1 255.5 87.1 L 257.5 87.1 Z M 266.6 91.6 L 266.6 93.4 L 259.5 93.4 L 259.5 91.6 L 266.6 91.6 Z M 261.6 88.4 L 263.7 88.4 C 263.7 88.4 263.7 101.37 263.7 101.4 C 263.7 102 263.8 102.4 264 102.7 C 264.1 103 264.4 103.2 264.6 103.3 C 264.9 103.4 265.2 103.4 265.5 103.4 C 265.7 103.4 265.9 103.4 266.1 103.4 C 266.2 103.4 266.4 103.3 266.4 103.3 C 266.4 103.3 266.9 105.2 266.9 105.2 C 266.7 105.3 266.5 105.3 266.3 105.4 C 266 105.4 265.7 105.5 265.3 105.5 C 264.7 105.5 264.1 105.3 263.6 105.1 C 263 104.8 262.5 104.4 262.2 103.9 C 261.8 103.4 261.6 102.7 261.6 101.9 C 261.61 101.93 261.6 88.4 261.6 88.4 Z M 277.1 105.3 L 277.1 87.1 L 279.2 87.1 L 279.2 93.8 C 279.2 93.8 279.37 93.8 279.4 93.8 C 279.5 93.6 279.7 93.3 280 92.9 C 280.3 92.5 280.7 92.2 281.2 91.9 C 281.7 91.6 282.4 91.5 283.3 91.5 C 284.5 91.5 285.5 91.7 286.3 92.3 C 287.2 92.9 287.9 93.7 288.4 94.8 C 288.9 95.8 289.1 97.1 289.1 98.5 C 289.1 99.9 288.9 101.2 288.4 102.2 C 287.9 103.3 287.2 104.1 286.4 104.7 C 285.5 105.3 284.5 105.6 283.3 105.6 C 282.5 105.6 281.8 105.4 281.2 105.1 C 280.7 104.8 280.3 104.5 280 104.1 C 279.7 103.7 279.5 103.4 279.4 103.2 C 279.37 103.18 279.1 103.2 279.1 103.2 L 279.1 105.3 L 277.1 105.3 Z M 279.2 98.5 C 279.2 99.5 279.3 100.4 279.6 101.2 C 279.9 102 280.3 102.6 280.9 103 C 281.5 103.5 282.2 103.7 283.1 103.7 C 283.9 103.7 284.7 103.4 285.3 103 C 285.8 102.5 286.3 101.9 286.6 101.1 C 286.9 100.3 287 99.4 287 98.5 C 287 97.5 286.9 96.6 286.6 95.9 C 286.3 95.1 285.9 94.5 285.3 94 C 284.7 93.6 283.9 93.3 283.1 93.3 C 282.2 93.3 281.5 93.6 280.9 94 C 280.3 94.4 279.9 95 279.6 95.8 C 279.3 96.5 279.2 97.4 279.2 98.5 Z M 297.9 105.6 C 296.6 105.6 295.5 105.3 294.5 104.7 C 293.6 104.1 292.8 103.3 292.3 102.2 C 291.8 101.2 291.6 100 291.6 98.6 C 291.6 97.2 291.8 95.9 292.3 94.9 C 292.8 93.8 293.6 93 294.5 92.4 C 295.4 91.8 296.5 91.5 297.7 91.5 C 298.4 91.5 299.1 91.6 299.8 91.8 C 300.5 92.1 301.1 92.4 301.7 93 C 302.3 93.5 302.7 94.2 303.1 95.1 C 303.4 95.9 303.6 97 303.6 98.3 C 303.57 98.28 303.6 99.2 303.6 99.2 L 293.1 99.2 L 293.1 97.4 C 293.1 97.4 301.44 97.35 301.4 97.4 C 301.4 96.6 301.3 95.9 301 95.3 C 300.7 94.7 300.2 94.2 299.7 93.9 C 299.1 93.5 298.5 93.3 297.7 93.3 C 296.9 93.3 296.2 93.5 295.5 94 C 294.9 94.4 294.5 94.9 294.2 95.6 C 293.8 96.2 293.7 96.9 293.7 97.7 C 293.7 97.7 293.7 98.9 293.7 98.9 C 293.7 99.9 293.8 100.8 294.2 101.5 C 294.6 102.2 295.1 102.8 295.7 103.1 C 296.3 103.5 297.1 103.7 297.9 103.7 C 298.5 103.7 299 103.6 299.4 103.4 C 299.9 103.3 300.3 103 300.6 102.7 C 300.9 102.4 301.2 102 301.3 101.5 C 301.3 101.5 303.4 102.1 303.4 102.1 C 303.1 102.8 302.8 103.4 302.3 103.9 C 301.8 104.4 301.2 104.8 300.4 105.1 C 299.7 105.4 298.8 105.6 297.9 105.6 Z M 319.7 91.6 L 319.7 93.4 L 312.7 93.4 L 312.7 91.6 L 319.7 91.6 Z M 314.7 88.4 L 316.8 88.4 C 316.8 88.4 316.82 101.37 316.8 101.4 C 316.8 102 316.9 102.4 317.1 102.7 C 317.3 103 317.5 103.2 317.8 103.3 C 318 103.4 318.3 103.4 318.6 103.4 C 318.9 103.4 319 103.4 319.2 103.4 C 319.3 103.4 319.5 103.3 319.6 103.3 C 319.6 103.3 320 105.2 320 105.2 C 319.8 105.3 319.6 105.3 319.4 105.4 C 319.1 105.4 318.8 105.5 318.4 105.5 C 317.8 105.5 317.2 105.3 316.7 105.1 C 316.1 104.8 315.6 104.4 315.3 103.9 C 314.9 103.4 314.7 102.7 314.7 101.9 C 314.72 101.93 314.7 88.4 314.7 88.4 Z M 322.6 105.3 L 322.6 91.6 L 324.6 91.6 L 324.6 93.7 C 324.6 93.7 324.76 93.7 324.8 93.7 C 325 93 325.5 92.5 326.1 92.1 C 326.8 91.6 327.5 91.4 328.3 91.4 C 328.5 91.4 328.7 91.4 328.9 91.4 C 329.1 91.4 329.3 91.4 329.4 91.5 C 329.4 91.5 329.4 93.6 329.4 93.6 C 329.3 93.6 329.2 93.5 328.9 93.5 C 328.7 93.5 328.4 93.4 328.1 93.4 C 327.5 93.4 326.9 93.6 326.4 93.9 C 325.8 94.1 325.4 94.5 325.1 95 C 324.8 95.5 324.7 96 324.7 96.6 C 324.69 96.64 324.7 105.3 324.7 105.3 L 322.6 105.3 Z M 340.4 99.7 C 340.41 99.7 340.4 91.6 340.4 91.6 L 342.5 91.6 L 342.5 105.3 L 340.4 105.3 L 340.4 103 C 340.4 103 340.27 102.96 340.3 103 C 340 103.7 339.5 104.2 338.8 104.7 C 338.1 105.2 337.3 105.5 336.2 105.5 C 335.4 105.5 334.6 105.3 333.9 104.9 C 333.3 104.5 332.8 103.9 332.4 103.2 C 332 102.4 331.8 101.5 331.8 100.3 C 331.82 100.3 331.8 91.6 331.8 91.6 L 333.9 91.6 C 333.9 91.6 333.91 100.16 333.9 100.2 C 333.9 101.2 334.2 101.9 334.8 102.5 C 335.3 103.1 336 103.4 336.9 103.4 C 337.4 103.4 337.9 103.3 338.5 103 C 339 102.8 339.5 102.4 339.9 101.8 C 340.2 101.3 340.4 100.5 340.4 99.7 Z M 355.8 94.7 C 355.8 94.7 353.9 95.2 353.9 95.2 C 353.8 94.9 353.6 94.6 353.4 94.3 C 353.1 94 352.8 93.8 352.4 93.6 C 352 93.4 351.5 93.3 350.9 93.3 C 350.1 93.3 349.4 93.5 348.9 93.8 C 348.3 94.2 348 94.7 348 95.3 C 348 95.8 348.2 96.2 348.6 96.5 C 349 96.8 349.6 97.1 350.4 97.3 C 350.4 97.3 352.4 97.8 352.4 97.8 C 353.6 98.1 354.5 98.5 355.1 99.1 C 355.7 99.7 356 100.5 356 101.5 C 356 102.3 355.8 103 355.3 103.6 C 354.9 104.2 354.3 104.7 353.5 105 C 352.7 105.4 351.7 105.6 350.7 105.6 C 349.3 105.6 348.1 105.3 347.2 104.7 C 346.3 104 345.7 103.2 345.5 102 C 345.5 102 347.5 101.5 347.5 101.5 C 347.7 102.2 348 102.8 348.6 103.2 C 349.1 103.5 349.8 103.7 350.6 103.7 C 351.6 103.7 352.4 103.5 353 103.1 C 353.6 102.7 353.8 102.2 353.8 101.6 C 353.8 101.1 353.7 100.7 353.3 100.4 C 353 100.1 352.5 99.8 351.8 99.7 C 351.8 99.7 349.5 99.1 349.5 99.1 C 348.3 98.8 347.4 98.4 346.8 97.7 C 346.2 97.1 345.9 96.3 345.9 95.4 C 345.9 94.6 346.1 94 346.6 93.4 C 347 92.8 347.6 92.3 348.4 92 C 349.1 91.6 350 91.5 350.9 91.5 C 352.3 91.5 353.3 91.8 354.1 92.3 C 354.9 92.9 355.4 93.7 355.8 94.7 Z M 364.9 91.6 L 364.9 93.4 L 357.9 93.4 L 357.9 91.6 L 364.9 91.6 Z M 359.9 88.4 L 362 88.4 C 362 88.4 362 101.37 362 101.4 C 362 102 362.1 102.4 362.3 102.7 C 362.4 103 362.7 103.2 362.9 103.3 C 363.2 103.4 363.5 103.4 363.8 103.4 C 364 103.4 364.2 103.4 364.4 103.4 C 364.5 103.4 364.7 103.3 364.7 103.3 C 364.7 103.3 365.2 105.2 365.2 105.2 C 365 105.3 364.8 105.3 364.6 105.4 C 364.3 105.4 364 105.5 363.6 105.5 C 363 105.5 362.4 105.3 361.9 105.1 C 361.3 104.8 360.8 104.4 360.5 103.9 C 360.1 103.4 359.9 102.7 359.9 101.9 C 359.91 101.93 359.9 88.4 359.9 88.4 Z M 373 105.6 C 371.7 105.6 370.6 105.3 369.6 104.7 C 368.7 104.1 367.9 103.3 367.4 102.2 C 366.9 101.2 366.6 100 366.6 98.6 C 366.6 97.2 366.9 95.9 367.4 94.9 C 367.9 93.8 368.6 93 369.6 92.4 C 370.5 91.8 371.6 91.5 372.8 91.5 C 373.5 91.5 374.2 91.6 374.9 91.8 C 375.6 92.1 376.2 92.4 376.8 93 C 377.3 93.5 377.8 94.2 378.1 95.1 C 378.5 95.9 378.6 97 378.6 98.3 C 378.64 98.28 378.6 99.2 378.6 99.2 L 368.1 99.2 L 368.1 97.4 C 368.1 97.4 376.51 97.35 376.5 97.4 C 376.5 96.6 376.4 95.9 376.1 95.3 C 375.8 94.7 375.3 94.2 374.8 93.9 C 374.2 93.5 373.5 93.3 372.8 93.3 C 371.9 93.3 371.2 93.5 370.6 94 C 370 94.4 369.5 94.9 369.2 95.6 C 368.9 96.2 368.7 96.9 368.7 97.7 C 368.7 97.7 368.7 98.9 368.7 98.9 C 368.7 99.9 368.9 100.8 369.3 101.5 C 369.6 102.2 370.1 102.8 370.8 103.1 C 371.4 103.5 372.2 103.7 373 103.7 C 373.5 103.7 374 103.6 374.5 103.4 C 374.9 103.3 375.3 103 375.7 102.7 C 376 102.4 376.2 102 376.4 101.5 C 376.4 101.5 378.4 102.1 378.4 102.1 C 378.2 102.8 377.9 103.4 377.4 103.9 C 376.9 104.4 376.2 104.8 375.5 105.1 C 374.8 105.4 373.9 105.6 373 105.6 Z M 386.9 105.6 C 385.7 105.6 384.7 105.3 383.9 104.7 C 383 104.1 382.3 103.3 381.8 102.2 C 381.3 101.2 381.1 99.9 381.1 98.5 C 381.1 97.1 381.3 95.8 381.8 94.8 C 382.3 93.7 383 92.9 383.9 92.3 C 384.7 91.7 385.8 91.5 386.9 91.5 C 387.8 91.5 388.5 91.6 389 91.9 C 389.5 92.2 389.9 92.5 390.2 92.9 C 390.5 93.3 390.7 93.6 390.9 93.8 C 390.85 93.8 391 93.8 391 93.8 L 391 87.1 L 393.1 87.1 L 393.1 105.3 L 391.1 105.3 L 391.1 103.2 C 391.1 103.2 390.85 103.18 390.9 103.2 C 390.7 103.4 390.5 103.7 390.2 104.1 C 389.9 104.5 389.5 104.8 389 105.1 C 388.5 105.4 387.7 105.6 386.9 105.6 Z M 387.2 103.7 C 388 103.7 388.7 103.5 389.3 103 C 389.9 102.6 390.3 102 390.6 101.2 C 390.9 100.4 391.1 99.5 391.1 98.5 C 391.1 97.4 390.9 96.5 390.6 95.8 C 390.3 95 389.9 94.4 389.3 94 C 388.7 93.6 388 93.3 387.2 93.3 C 386.3 93.3 385.5 93.6 384.9 94 C 384.4 94.5 383.9 95.1 383.6 95.9 C 383.3 96.6 383.2 97.5 383.2 98.5 C 383.2 99.4 383.3 100.3 383.6 101.1 C 383.9 101.9 384.4 102.5 385 103 C 385.5 103.4 386.3 103.7 387.2 103.7 Z M 398.5 105.4 C 398.1 105.4 397.7 105.3 397.4 104.9 C 397 104.6 396.9 104.3 396.9 103.8 C 396.9 103.4 397 103 397.4 102.7 C 397.7 102.4 398.1 102.2 398.5 102.2 C 398.9 102.2 399.3 102.4 399.6 102.7 C 399.9 103 400.1 103.4 400.1 103.8 C 400.1 104.1 400 104.4 399.9 104.6 C 399.7 104.9 399.5 105.1 399.3 105.2 C 399.1 105.3 398.8 105.4 398.5 105.4 Z " stroke="none" fill="#000"/>  </g>  <g id="Polygon112574">    <path d="M 5.5 73.3 L 0.5 55.1 L 2.8 55.1 L 6.6 69.9 L 6.7 69.9 L 10.6 55.1 L 13.1 55.1 L 17 69.9 L 17.2 69.9 L 21 55.1 L 23.2 55.1 L 18.2 73.3 L 15.9 73.3 L 11.9 58.8 L 11.8 58.8 L 7.8 73.3 L 5.5 73.3 Z M 25.9 73.3 L 25.9 59.6 L 28 59.6 L 28 73.3 L 25.9 73.3 Z M 26.9 57.4 C 26.5 57.4 26.2 57.2 25.9 56.9 C 25.6 56.7 25.4 56.3 25.4 55.9 C 25.4 55.6 25.6 55.2 25.9 54.9 C 26.2 54.7 26.5 54.5 26.9 54.5 C 27.3 54.5 27.7 54.7 28 54.9 C 28.3 55.2 28.4 55.6 28.4 55.9 C 28.4 56.3 28.3 56.7 28 56.9 C 27.7 57.2 27.3 57.4 26.9 57.4 Z M 37.5 59.6 L 37.5 61.4 L 30.5 61.4 L 30.5 59.6 L 37.5 59.6 Z M 32.5 56.4 L 34.6 56.4 C 34.6 56.4 34.62 69.37 34.6 69.4 C 34.6 70 34.7 70.4 34.9 70.7 C 35.1 71 35.3 71.2 35.6 71.3 C 35.8 71.4 36.1 71.4 36.4 71.4 C 36.7 71.4 36.8 71.4 37 71.4 C 37.1 71.4 37.3 71.3 37.4 71.3 C 37.4 71.3 37.8 73.2 37.8 73.2 C 37.6 73.3 37.4 73.3 37.2 73.4 C 36.9 73.4 36.6 73.5 36.2 73.5 C 35.6 73.5 35 73.3 34.5 73.1 C 33.9 72.8 33.4 72.4 33.1 71.9 C 32.7 71.4 32.5 70.7 32.5 69.9 C 32.52 69.93 32.5 56.4 32.5 56.4 Z M 42.5 65.1 C 42.49 65.07 42.5 73.3 42.5 73.3 L 40.4 73.3 L 40.4 55.1 L 42.5 55.1 L 42.5 61.8 C 42.5 61.8 42.67 61.77 42.7 61.8 C 43 61.1 43.5 60.5 44.1 60.1 C 44.8 59.7 45.6 59.5 46.7 59.5 C 47.6 59.5 48.4 59.6 49.1 60 C 49.8 60.4 50.4 60.9 50.7 61.7 C 51.1 62.5 51.3 63.4 51.3 64.6 C 51.33 64.61 51.3 73.3 51.3 73.3 L 49.2 73.3 C 49.2 73.3 49.23 64.75 49.2 64.8 C 49.2 63.7 49 62.8 48.4 62.2 C 47.8 61.6 47.1 61.3 46.1 61.3 C 45.4 61.3 44.8 61.5 44.2 61.8 C 43.7 62.1 43.3 62.5 43 63 C 42.6 63.6 42.5 64.3 42.5 65.1 Z M 60.6 73.6 C 59.3 73.6 58.3 73.3 57.3 72.7 C 56.4 72.1 55.7 71.3 55.2 70.2 C 54.6 69.2 54.4 67.9 54.4 66.5 C 54.4 65.1 54.6 63.9 55.2 62.8 C 55.7 61.7 56.4 60.9 57.3 60.3 C 58.3 59.8 59.3 59.5 60.6 59.5 C 61.8 59.5 62.9 59.8 63.8 60.3 C 64.7 60.9 65.5 61.7 66 62.8 C 66.5 63.9 66.7 65.1 66.7 66.5 C 66.7 67.9 66.5 69.2 66 70.2 C 65.5 71.3 64.7 72.1 63.8 72.7 C 62.9 73.3 61.8 73.6 60.6 73.6 Z M 60.6 71.7 C 61.5 71.7 62.3 71.4 62.9 71 C 63.5 70.5 63.9 69.8 64.2 69.1 C 64.5 68.3 64.7 67.4 64.7 66.5 C 64.7 65.6 64.5 64.8 64.2 64 C 63.9 63.2 63.5 62.6 62.9 62.1 C 62.3 61.6 61.5 61.3 60.6 61.3 C 59.6 61.3 58.9 61.6 58.3 62.1 C 57.7 62.6 57.2 63.2 56.9 64 C 56.6 64.8 56.5 65.6 56.5 66.5 C 56.5 67.4 56.6 68.3 56.9 69.1 C 57.2 69.8 57.7 70.5 58.3 71 C 58.9 71.4 59.6 71.7 60.6 71.7 Z M 78.4 67.7 C 78.36 67.7 78.4 59.6 78.4 59.6 L 80.5 59.6 L 80.5 73.3 L 78.4 73.3 L 78.4 71 C 78.4 71 78.22 70.96 78.2 71 C 77.9 71.7 77.4 72.2 76.7 72.7 C 76.1 73.2 75.2 73.5 74.2 73.5 C 73.3 73.5 72.6 73.3 71.9 72.9 C 71.2 72.5 70.7 71.9 70.3 71.2 C 70 70.4 69.8 69.5 69.8 68.3 C 69.77 68.3 69.8 59.6 69.8 59.6 L 71.9 59.6 C 71.9 59.6 71.86 68.16 71.9 68.2 C 71.9 69.2 72.1 69.9 72.7 70.5 C 73.3 71.1 74 71.4 74.8 71.4 C 75.4 71.4 75.9 71.3 76.4 71 C 77 70.8 77.4 70.4 77.8 69.8 C 78.2 69.3 78.4 68.5 78.4 67.7 Z M 90 59.6 L 90 61.4 L 83 61.4 L 83 59.6 L 90 59.6 Z M 85 56.4 L 87.1 56.4 C 87.1 56.4 87.12 69.37 87.1 69.4 C 87.1 70 87.2 70.4 87.4 70.7 C 87.6 71 87.8 71.2 88.1 71.3 C 88.3 71.4 88.6 71.4 88.9 71.4 C 89.2 71.4 89.4 71.4 89.5 71.4 C 89.7 71.4 89.8 71.3 89.9 71.3 C 89.9 71.3 90.3 73.2 90.3 73.2 C 90.1 73.3 89.9 73.3 89.7 73.4 C 89.4 73.4 89.1 73.5 88.7 73.5 C 88.1 73.5 87.6 73.3 87 73.1 C 86.4 72.8 86 72.4 85.6 71.9 C 85.2 71.4 85 70.7 85 69.9 C 85.03 69.93 85 56.4 85 56.4 Z M 104.2 73.6 C 103.4 73.6 102.6 73.4 101.9 73.1 C 101.2 72.8 100.6 72.3 100.2 71.7 C 99.8 71 99.6 70.3 99.6 69.4 C 99.6 68.6 99.7 68 100.1 67.5 C 100.4 67 100.8 66.6 101.3 66.3 C 101.8 66.1 102.4 65.9 103 65.7 C 103.6 65.6 104.2 65.5 104.9 65.4 C 105.7 65.3 106.4 65.2 106.9 65.1 C 107.4 65.1 107.8 65 108 64.9 C 108.3 64.7 108.4 64.5 108.4 64.1 C 108.4 64.1 108.4 64.1 108.4 64.1 C 108.4 63.2 108.2 62.5 107.7 62 C 107.2 61.5 106.5 61.3 105.5 61.3 C 104.5 61.3 103.7 61.5 103.2 62 C 102.6 62.4 102.2 62.9 102 63.4 C 102 63.4 100 62.7 100 62.7 C 100.3 61.8 100.8 61.2 101.4 60.7 C 102 60.3 102.7 59.9 103.4 59.7 C 104.1 59.6 104.8 59.5 105.4 59.5 C 105.9 59.5 106.4 59.5 107 59.6 C 107.5 59.7 108.1 59.9 108.6 60.2 C 109.2 60.6 109.6 61.1 110 61.7 C 110.3 62.3 110.5 63.2 110.5 64.3 C 110.49 64.29 110.5 73.3 110.5 73.3 L 108.4 73.3 L 108.4 71.4 C 108.4 71.4 108.29 71.43 108.3 71.4 C 108.1 71.7 107.9 72 107.6 72.4 C 107.2 72.7 106.8 73 106.3 73.2 C 105.7 73.5 105 73.6 104.2 73.6 Z M 104.6 71.7 C 105.4 71.7 106.1 71.5 106.7 71.2 C 107.2 70.9 107.7 70.5 108 70 C 108.2 69.4 108.4 68.9 108.4 68.3 C 108.4 68.3 108.4 66.4 108.4 66.4 C 108.3 66.5 108.1 66.6 107.8 66.7 C 107.5 66.8 107.2 66.9 106.8 66.9 C 106.4 67 106 67 105.7 67.1 C 105.3 67.1 105 67.2 104.8 67.2 C 104.2 67.3 103.7 67.4 103.3 67.5 C 102.8 67.7 102.4 67.9 102.1 68.2 C 101.8 68.6 101.7 69 101.7 69.5 C 101.7 70.2 102 70.8 102.5 71.2 C 103 71.5 103.7 71.7 104.6 71.7 Z M 119.7 73.6 C 118.5 73.6 117.4 73.3 116.4 72.7 C 115.5 72 114.8 71.2 114.3 70.2 C 113.8 69.1 113.6 67.9 113.6 66.5 C 113.6 65.1 113.8 63.9 114.3 62.9 C 114.8 61.8 115.5 61 116.5 60.4 C 117.4 59.8 118.5 59.5 119.7 59.5 C 120.7 59.5 121.5 59.6 122.3 60 C 123.1 60.3 123.7 60.8 124.2 61.5 C 124.7 62.1 125 62.9 125.1 63.7 C 125.1 63.7 123 63.7 123 63.7 C 122.8 63.1 122.5 62.5 121.9 62.1 C 121.4 61.6 120.7 61.3 119.7 61.3 C 118.9 61.3 118.2 61.6 117.6 62 C 117 62.4 116.5 63 116.2 63.8 C 115.8 64.5 115.6 65.4 115.6 66.5 C 115.6 67.5 115.8 68.4 116.1 69.2 C 116.5 70 117 70.6 117.6 71 C 118.2 71.5 118.9 71.7 119.7 71.7 C 120.3 71.7 120.8 71.6 121.2 71.4 C 121.7 71.2 122 70.9 122.3 70.6 C 122.6 70.2 122.9 69.8 123 69.3 C 123 69.3 125.1 69.3 125.1 69.3 C 125 70.1 124.7 70.8 124.2 71.5 C 123.8 72.1 123.1 72.6 122.4 73 C 121.6 73.4 120.7 73.6 119.7 73.6 Z M 133.5 73.6 C 132.2 73.6 131.1 73.3 130.2 72.7 C 129.2 72 128.5 71.2 128 70.2 C 127.5 69.1 127.3 67.9 127.3 66.5 C 127.3 65.1 127.5 63.9 128.1 62.9 C 128.6 61.8 129.3 61 130.2 60.4 C 131.1 59.8 132.2 59.5 133.4 59.5 C 134.4 59.5 135.3 59.6 136 60 C 136.8 60.3 137.4 60.8 137.9 61.5 C 138.4 62.1 138.7 62.9 138.8 63.7 C 138.8 63.7 136.7 63.7 136.7 63.7 C 136.6 63.1 136.2 62.5 135.7 62.1 C 135.1 61.6 134.4 61.3 133.5 61.3 C 132.7 61.3 131.9 61.6 131.3 62 C 130.7 62.4 130.2 63 129.9 63.8 C 129.6 64.5 129.4 65.4 129.4 66.5 C 129.4 67.5 129.6 68.4 129.9 69.2 C 130.2 70 130.7 70.6 131.3 71 C 131.9 71.5 132.6 71.7 133.5 71.7 C 134 71.7 134.5 71.6 135 71.4 C 135.4 71.2 135.8 70.9 136.1 70.6 C 136.4 70.2 136.6 69.8 136.7 69.3 C 136.7 69.3 138.8 69.3 138.8 69.3 C 138.7 70.1 138.4 70.8 138 71.5 C 137.5 72.1 136.9 72.6 136.1 73 C 135.4 73.4 134.5 73.6 133.5 73.6 Z M 147.4 73.6 C 146.1 73.6 145 73.3 144 72.7 C 143.1 72.1 142.3 71.3 141.8 70.2 C 141.3 69.2 141 68 141 66.6 C 141 65.2 141.3 63.9 141.8 62.9 C 142.3 61.8 143 61 144 60.4 C 144.9 59.8 146 59.5 147.2 59.5 C 147.9 59.5 148.6 59.6 149.3 59.8 C 150 60.1 150.6 60.4 151.2 61 C 151.8 61.5 152.2 62.2 152.5 63.1 C 152.9 63.9 153 65 153 66.3 C 153.05 66.28 153 67.2 153 67.2 L 142.5 67.2 L 142.5 65.4 C 142.5 65.4 150.92 65.35 150.9 65.4 C 150.9 64.6 150.8 63.9 150.5 63.3 C 150.2 62.7 149.7 62.2 149.2 61.9 C 148.6 61.5 147.9 61.3 147.2 61.3 C 146.4 61.3 145.6 61.5 145 62 C 144.4 62.4 144 62.9 143.6 63.6 C 143.3 64.2 143.1 64.9 143.1 65.7 C 143.1 65.7 143.1 66.9 143.1 66.9 C 143.1 67.9 143.3 68.8 143.7 69.5 C 144 70.2 144.5 70.8 145.2 71.1 C 145.8 71.5 146.6 71.7 147.4 71.7 C 148 71.7 148.5 71.6 148.9 71.4 C 149.3 71.3 149.7 71 150.1 70.7 C 150.4 70.4 150.6 70 150.8 69.5 C 150.8 69.5 152.8 70.1 152.8 70.1 C 152.6 70.8 152.3 71.4 151.8 71.9 C 151.3 72.4 150.6 72.8 149.9 73.1 C 149.2 73.4 148.3 73.6 147.4 73.6 Z M 165.7 62.7 C 165.7 62.7 163.8 63.2 163.8 63.2 C 163.7 62.9 163.5 62.6 163.3 62.3 C 163 62 162.7 61.8 162.3 61.6 C 161.9 61.4 161.4 61.3 160.8 61.3 C 160 61.3 159.3 61.5 158.7 61.8 C 158.2 62.2 157.9 62.7 157.9 63.3 C 157.9 63.8 158.1 64.2 158.5 64.5 C 158.9 64.8 159.5 65.1 160.3 65.3 C 160.3 65.3 162.3 65.8 162.3 65.8 C 163.5 66.1 164.4 66.5 165 67.1 C 165.6 67.7 165.9 68.5 165.9 69.5 C 165.9 70.3 165.7 71 165.2 71.6 C 164.8 72.2 164.2 72.7 163.4 73 C 162.6 73.4 161.6 73.6 160.6 73.6 C 159.2 73.6 158 73.3 157.1 72.7 C 156.2 72 155.6 71.2 155.4 70 C 155.4 70 157.4 69.5 157.4 69.5 C 157.6 70.2 157.9 70.8 158.5 71.2 C 159 71.5 159.7 71.7 160.5 71.7 C 161.5 71.7 162.3 71.5 162.9 71.1 C 163.5 70.7 163.7 70.2 163.7 69.6 C 163.7 69.1 163.6 68.7 163.2 68.4 C 162.9 68.1 162.4 67.8 161.7 67.7 C 161.7 67.7 159.4 67.1 159.4 67.1 C 158.2 66.8 157.3 66.4 156.7 65.7 C 156.1 65.1 155.8 64.3 155.8 63.4 C 155.8 62.6 156 62 156.5 61.4 C 156.9 60.8 157.5 60.3 158.3 60 C 159 59.6 159.9 59.5 160.8 59.5 C 162.2 59.5 163.2 59.8 164 60.3 C 164.8 60.9 165.3 61.7 165.7 62.7 Z M 178.6 62.7 C 178.6 62.7 176.7 63.2 176.7 63.2 C 176.6 62.9 176.4 62.6 176.2 62.3 C 176 62 175.7 61.8 175.3 61.6 C 174.9 61.4 174.4 61.3 173.8 61.3 C 172.9 61.3 172.3 61.5 171.7 61.8 C 171.1 62.2 170.9 62.7 170.9 63.3 C 170.9 63.8 171.1 64.2 171.4 64.5 C 171.8 64.8 172.4 65.1 173.2 65.3 C 173.2 65.3 175.2 65.8 175.2 65.8 C 176.5 66.1 177.4 66.5 178 67.1 C 178.6 67.7 178.9 68.5 178.9 69.5 C 178.9 70.3 178.6 71 178.2 71.6 C 177.7 72.2 177.1 72.7 176.3 73 C 175.5 73.4 174.6 73.6 173.5 73.6 C 172.1 73.6 171 73.3 170.1 72.7 C 169.2 72 168.6 71.2 168.3 70 C 168.3 70 170.3 69.5 170.3 69.5 C 170.5 70.2 170.9 70.8 171.4 71.2 C 171.9 71.5 172.6 71.7 173.5 71.7 C 174.5 71.7 175.2 71.5 175.8 71.1 C 176.4 70.7 176.7 70.2 176.7 69.6 C 176.7 69.1 176.5 68.7 176.2 68.4 C 175.9 68.1 175.4 67.8 174.7 67.7 C 174.7 67.7 172.4 67.1 172.4 67.1 C 171.1 66.8 170.2 66.4 169.6 65.7 C 169.1 65.1 168.8 64.3 168.8 63.4 C 168.8 62.6 169 62 169.4 61.4 C 169.9 60.8 170.5 60.3 171.2 60 C 172 59.6 172.8 59.5 173.8 59.5 C 175.1 59.5 176.2 59.8 177 60.3 C 177.7 60.9 178.3 61.7 178.6 62.7 Z M 195 59.6 L 195 61.4 L 187.9 61.4 L 187.9 59.6 L 195 59.6 Z M 190 56.4 L 192.1 56.4 C 192.1 56.4 192.07 69.37 192.1 69.4 C 192.1 70 192.2 70.4 192.3 70.7 C 192.5 71 192.7 71.2 193 71.3 C 193.3 71.4 193.6 71.4 193.9 71.4 C 194.1 71.4 194.3 71.4 194.4 71.4 C 194.6 71.4 194.7 71.3 194.8 71.3 C 194.8 71.3 195.2 73.2 195.2 73.2 C 195.1 73.3 194.9 73.3 194.6 73.4 C 194.4 73.4 194.1 73.5 193.7 73.5 C 193.1 73.5 192.5 73.3 191.9 73.1 C 191.4 72.8 190.9 72.4 190.5 71.9 C 190.2 71.4 190 70.7 190 69.9 C 189.97 69.93 190 56.4 190 56.4 Z M 202.9 73.6 C 201.7 73.6 200.6 73.3 199.6 72.7 C 198.7 72.1 198 71.3 197.5 70.2 C 197 69.2 196.7 67.9 196.7 66.5 C 196.7 65.1 197 63.9 197.5 62.8 C 198 61.7 198.7 60.9 199.6 60.3 C 200.6 59.8 201.7 59.5 202.9 59.5 C 204.1 59.5 205.2 59.8 206.1 60.3 C 207 60.9 207.8 61.7 208.3 62.8 C 208.8 63.9 209.1 65.1 209.1 66.5 C 209.1 67.9 208.8 69.2 208.3 70.2 C 207.8 71.3 207 72.1 206.1 72.7 C 205.2 73.3 204.1 73.6 202.9 73.6 Z M 202.9 71.7 C 203.8 71.7 204.6 71.4 205.2 71 C 205.8 70.5 206.2 69.8 206.5 69.1 C 206.8 68.3 207 67.4 207 66.5 C 207 65.6 206.8 64.8 206.5 64 C 206.2 63.2 205.8 62.6 205.2 62.1 C 204.6 61.6 203.8 61.3 202.9 61.3 C 201.9 61.3 201.2 61.6 200.6 62.1 C 200 62.6 199.5 63.2 199.2 64 C 198.9 64.8 198.8 65.6 198.8 66.5 C 198.8 67.4 198.9 68.3 199.2 69.1 C 199.5 69.8 200 70.5 200.6 71 C 201.2 71.4 201.9 71.7 202.9 71.7 Z M 223.3 73.6 C 222.4 73.6 221.7 73.4 220.9 73.1 C 220.2 72.8 219.7 72.3 219.3 71.7 C 218.9 71 218.6 70.3 218.6 69.4 C 218.6 68.6 218.8 68 219.1 67.5 C 219.4 67 219.8 66.6 220.3 66.3 C 220.9 66.1 221.4 65.9 222.1 65.7 C 222.7 65.6 223.3 65.5 223.9 65.4 C 224.8 65.3 225.4 65.2 226 65.1 C 226.5 65.1 226.9 65 227.1 64.9 C 227.3 64.7 227.5 64.5 227.5 64.1 C 227.5 64.1 227.5 64.1 227.5 64.1 C 227.5 63.2 227.2 62.5 226.7 62 C 226.3 61.5 225.5 61.3 224.6 61.3 C 223.6 61.3 222.8 61.5 222.2 62 C 221.7 62.4 221.3 62.9 221 63.4 C 221 63.4 219 62.7 219 62.7 C 219.4 61.8 219.9 61.2 220.5 60.7 C 221.1 60.3 221.7 59.9 222.4 59.7 C 223.1 59.6 223.8 59.5 224.5 59.5 C 224.9 59.5 225.5 59.5 226 59.6 C 226.6 59.7 227.1 59.9 227.7 60.2 C 228.2 60.6 228.7 61.1 229 61.7 C 229.4 62.3 229.6 63.2 229.6 64.3 C 229.55 64.29 229.6 73.3 229.6 73.3 L 227.5 73.3 L 227.5 71.4 C 227.5 71.4 227.35 71.43 227.3 71.4 C 227.2 71.7 227 72 226.6 72.4 C 226.3 72.7 225.9 73 225.3 73.2 C 224.8 73.5 224.1 73.6 223.3 73.6 Z M 223.6 71.7 C 224.4 71.7 225.1 71.5 225.7 71.2 C 226.3 70.9 226.7 70.5 227 70 C 227.3 69.4 227.5 68.9 227.5 68.3 C 227.5 68.3 227.5 66.4 227.5 66.4 C 227.4 66.5 227.2 66.6 226.9 66.7 C 226.6 66.8 226.2 66.9 225.8 66.9 C 225.5 67 225.1 67 224.7 67.1 C 224.4 67.1 224.1 67.2 223.8 67.2 C 223.3 67.3 222.8 67.4 222.3 67.5 C 221.8 67.7 221.5 67.9 221.2 68.2 C 220.9 68.6 220.7 69 220.7 69.5 C 220.7 70.2 221 70.8 221.6 71.2 C 222.1 71.5 222.8 71.7 223.6 71.7 Z M 235.4 55.1 L 235.4 73.3 L 233.3 73.3 L 233.3 55.1 L 235.4 55.1 Z M 241.2 55.1 L 241.2 73.3 L 239.1 73.3 L 239.1 55.1 L 241.2 55.1 Z M 256.1 73.6 C 255.2 73.6 254.4 73.4 253.7 73.1 C 253 72.8 252.5 72.3 252.1 71.7 C 251.6 71 251.4 70.3 251.4 69.4 C 251.4 68.6 251.6 68 251.9 67.5 C 252.2 67 252.6 66.6 253.1 66.3 C 253.6 66.1 254.2 65.9 254.8 65.7 C 255.5 65.6 256.1 65.5 256.7 65.4 C 257.6 65.3 258.2 65.2 258.7 65.1 C 259.3 65.1 259.6 65 259.9 64.9 C 260.1 64.7 260.2 64.5 260.2 64.1 C 260.2 64.1 260.2 64.1 260.2 64.1 C 260.2 63.2 260 62.5 259.5 62 C 259.1 61.5 258.3 61.3 257.4 61.3 C 256.4 61.3 255.6 61.5 255 62 C 254.4 62.4 254 62.9 253.8 63.4 C 253.8 63.4 251.8 62.7 251.8 62.7 C 252.2 61.8 252.7 61.2 253.3 60.7 C 253.8 60.3 254.5 59.9 255.2 59.7 C 255.9 59.6 256.6 59.5 257.3 59.5 C 257.7 59.5 258.2 59.5 258.8 59.6 C 259.4 59.7 259.9 59.9 260.5 60.2 C 261 60.6 261.5 61.1 261.8 61.7 C 262.2 62.3 262.3 63.2 262.3 64.3 C 262.34 64.29 262.3 73.3 262.3 73.3 L 260.2 73.3 L 260.2 71.4 C 260.2 71.4 260.14 71.43 260.1 71.4 C 260 71.7 259.8 72 259.4 72.4 C 259.1 72.7 258.7 73 258.1 73.2 C 257.6 73.5 256.9 73.6 256.1 73.6 Z M 256.4 71.7 C 257.2 71.7 257.9 71.5 258.5 71.2 C 259.1 70.9 259.5 70.5 259.8 70 C 260.1 69.4 260.2 68.9 260.2 68.3 C 260.2 68.3 260.2 66.4 260.2 66.4 C 260.2 66.5 260 66.6 259.7 66.7 C 259.4 66.8 259 66.9 258.6 66.9 C 258.2 67 257.9 67 257.5 67.1 C 257.1 67.1 256.8 67.2 256.6 67.2 C 256.1 67.3 255.6 67.4 255.1 67.5 C 254.6 67.7 254.2 67.9 254 68.2 C 253.7 68.6 253.5 69 253.5 69.5 C 253.5 70.2 253.8 70.8 254.3 71.2 C 254.9 71.5 255.6 71.7 256.4 71.7 Z M 276.6 59.6 L 271.5 73.3 L 269.4 73.3 L 264.3 59.6 L 266.6 59.6 L 270.4 70.5 L 270.5 70.5 L 274.3 59.6 L 276.6 59.6 Z M 282.8 73.6 C 281.9 73.6 281.1 73.4 280.4 73.1 C 279.7 72.8 279.1 72.3 278.7 71.7 C 278.3 71 278.1 70.3 278.1 69.4 C 278.1 68.6 278.3 68 278.6 67.5 C 278.9 67 279.3 66.6 279.8 66.3 C 280.3 66.1 280.9 65.9 281.5 65.7 C 282.1 65.6 282.8 65.5 283.4 65.4 C 284.2 65.3 284.9 65.2 285.4 65.1 C 285.9 65.1 286.3 65 286.6 64.9 C 286.8 64.7 286.9 64.5 286.9 64.1 C 286.9 64.1 286.9 64.1 286.9 64.1 C 286.9 63.2 286.7 62.5 286.2 62 C 285.7 61.5 285 61.3 284 61.3 C 283 61.3 282.3 61.5 281.7 62 C 281.1 62.4 280.7 62.9 280.5 63.4 C 280.5 63.4 278.5 62.7 278.5 62.7 C 278.9 61.8 279.3 61.2 279.9 60.7 C 280.5 60.3 281.2 59.9 281.9 59.7 C 282.6 59.6 283.3 59.5 284 59.5 C 284.4 59.5 284.9 59.5 285.5 59.6 C 286.1 59.7 286.6 59.9 287.1 60.2 C 287.7 60.6 288.1 61.1 288.5 61.7 C 288.8 62.3 289 63.2 289 64.3 C 289.01 64.29 289 73.3 289 73.3 L 286.9 73.3 L 286.9 71.4 C 286.9 71.4 286.81 71.43 286.8 71.4 C 286.7 71.7 286.4 72 286.1 72.4 C 285.8 72.7 285.3 73 284.8 73.2 C 284.2 73.5 283.6 73.6 282.8 73.6 Z M 283.1 71.7 C 283.9 71.7 284.6 71.5 285.2 71.2 C 285.8 70.9 286.2 70.5 286.5 70 C 286.8 69.4 286.9 68.9 286.9 68.3 C 286.9 68.3 286.9 66.4 286.9 66.4 C 286.8 66.5 286.6 66.6 286.3 66.7 C 286 66.8 285.7 66.9 285.3 66.9 C 284.9 67 284.5 67 284.2 67.1 C 283.8 67.1 283.5 67.2 283.3 67.2 C 282.8 67.3 282.2 67.4 281.8 67.5 C 281.3 67.7 280.9 67.9 280.6 68.2 C 280.3 68.6 280.2 69 280.2 69.5 C 280.2 70.2 280.5 70.8 281 71.2 C 281.6 71.5 282.2 71.7 283.1 71.7 Z M 292.7 73.3 L 292.7 59.6 L 294.8 59.6 L 294.8 73.3 L 292.7 73.3 Z M 293.8 57.4 C 293.3 57.4 293 57.2 292.7 56.9 C 292.4 56.7 292.3 56.3 292.3 55.9 C 292.3 55.6 292.4 55.2 292.7 54.9 C 293 54.7 293.3 54.5 293.8 54.5 C 294.2 54.5 294.5 54.7 294.8 54.9 C 295.1 55.2 295.2 55.6 295.2 55.9 C 295.2 56.3 295.1 56.7 294.8 56.9 C 294.5 57.2 294.2 57.4 293.8 57.4 Z M 300.6 55.1 L 300.6 73.3 L 298.5 73.3 L 298.5 55.1 L 300.6 55.1 Z M 308.4 73.6 C 307.5 73.6 306.7 73.4 306 73.1 C 305.3 72.8 304.7 72.3 304.3 71.7 C 303.9 71 303.7 70.3 303.7 69.4 C 303.7 68.6 303.9 68 304.2 67.5 C 304.5 67 304.9 66.6 305.4 66.3 C 305.9 66.1 306.5 65.9 307.1 65.7 C 307.7 65.6 308.4 65.5 309 65.4 C 309.8 65.3 310.5 65.2 311 65.1 C 311.5 65.1 311.9 65 312.2 64.9 C 312.4 64.7 312.5 64.5 312.5 64.1 C 312.5 64.1 312.5 64.1 312.5 64.1 C 312.5 63.2 312.3 62.5 311.8 62 C 311.3 61.5 310.6 61.3 309.6 61.3 C 308.6 61.3 307.9 61.5 307.3 62 C 306.7 62.4 306.3 62.9 306.1 63.4 C 306.1 63.4 304.1 62.7 304.1 62.7 C 304.5 61.8 304.9 61.2 305.5 60.7 C 306.1 60.3 306.8 59.9 307.5 59.7 C 308.2 59.6 308.9 59.5 309.6 59.5 C 310 59.5 310.5 59.5 311.1 59.6 C 311.7 59.7 312.2 59.9 312.7 60.2 C 313.3 60.6 313.7 61.1 314.1 61.7 C 314.4 62.3 314.6 63.2 314.6 64.3 C 314.61 64.29 314.6 73.3 314.6 73.3 L 312.5 73.3 L 312.5 71.4 C 312.5 71.4 312.41 71.43 312.4 71.4 C 312.3 71.7 312 72 311.7 72.4 C 311.4 72.7 310.9 73 310.4 73.2 C 309.8 73.5 309.2 73.6 308.4 73.6 Z M 308.7 71.7 C 309.5 71.7 310.2 71.5 310.8 71.2 C 311.4 70.9 311.8 70.5 312.1 70 C 312.4 69.4 312.5 68.9 312.5 68.3 C 312.5 68.3 312.5 66.4 312.5 66.4 C 312.4 66.5 312.2 66.6 311.9 66.7 C 311.6 66.8 311.3 66.9 310.9 66.9 C 310.5 67 310.1 67 309.8 67.1 C 309.4 67.1 309.1 67.2 308.9 67.2 C 308.3 67.3 307.8 67.4 307.4 67.5 C 306.9 67.7 306.5 67.9 306.2 68.2 C 305.9 68.6 305.8 69 305.8 69.5 C 305.8 70.2 306.1 70.8 306.6 71.2 C 307.2 71.5 307.8 71.7 308.7 71.7 Z M 318.5 73.3 L 318.5 55.1 L 320.6 55.1 L 320.6 61.8 C 320.6 61.8 320.74 61.8 320.7 61.8 C 320.9 61.6 321.1 61.3 321.4 60.9 C 321.7 60.5 322.1 60.2 322.6 59.9 C 323.1 59.6 323.8 59.5 324.7 59.5 C 325.8 59.5 326.8 59.7 327.7 60.3 C 328.6 60.9 329.3 61.7 329.8 62.8 C 330.3 63.8 330.5 65.1 330.5 66.5 C 330.5 67.9 330.3 69.2 329.8 70.2 C 329.3 71.3 328.6 72.1 327.7 72.7 C 326.9 73.3 325.9 73.6 324.7 73.6 C 323.8 73.6 323.1 73.4 322.6 73.1 C 322.1 72.8 321.7 72.5 321.4 72.1 C 321.1 71.7 320.9 71.4 320.7 71.2 C 320.74 71.18 320.5 71.2 320.5 71.2 L 320.5 73.3 L 318.5 73.3 Z M 320.5 66.5 C 320.5 67.5 320.7 68.4 321 69.2 C 321.3 70 321.7 70.6 322.3 71 C 322.9 71.5 323.6 71.7 324.4 71.7 C 325.3 71.7 326 71.4 326.6 71 C 327.2 70.5 327.7 69.9 328 69.1 C 328.3 68.3 328.4 67.4 328.4 66.5 C 328.4 65.5 328.3 64.6 328 63.9 C 327.7 63.1 327.2 62.5 326.7 62 C 326.1 61.6 325.3 61.3 324.4 61.3 C 323.6 61.3 322.9 61.6 322.3 62 C 321.7 62.4 321.3 63 321 63.8 C 320.7 64.5 320.5 65.4 320.5 66.5 Z M 335.7 55.1 L 335.7 73.3 L 333.6 73.3 L 333.6 55.1 L 335.7 55.1 Z M 345.2 73.6 C 343.9 73.6 342.8 73.3 341.8 72.7 C 340.9 72.1 340.1 71.3 339.6 70.2 C 339.1 69.2 338.9 68 338.9 66.6 C 338.9 65.2 339.1 63.9 339.6 62.9 C 340.1 61.8 340.9 61 341.8 60.4 C 342.7 59.8 343.8 59.5 345 59.5 C 345.7 59.5 346.4 59.6 347.1 59.8 C 347.8 60.1 348.4 60.4 349 61 C 349.6 61.5 350 62.2 350.4 63.1 C 350.7 63.9 350.9 65 350.9 66.3 C 350.86 66.28 350.9 67.2 350.9 67.2 L 340.3 67.2 L 340.3 65.4 C 340.3 65.4 348.73 65.35 348.7 65.4 C 348.7 64.6 348.6 63.9 348.3 63.3 C 348 62.7 347.5 62.2 347 61.9 C 346.4 61.5 345.8 61.3 345 61.3 C 344.2 61.3 343.4 61.5 342.8 62 C 342.2 62.4 341.8 62.9 341.4 63.6 C 341.1 64.2 341 64.9 341 65.7 C 341 65.7 341 66.9 341 66.9 C 341 67.9 341.1 68.8 341.5 69.5 C 341.8 70.2 342.3 70.8 343 71.1 C 343.6 71.5 344.4 71.7 345.2 71.7 C 345.8 71.7 346.3 71.6 346.7 71.4 C 347.2 71.3 347.5 71 347.9 70.7 C 348.2 70.4 348.4 70 348.6 69.5 C 348.6 69.5 350.6 70.1 350.6 70.1 C 350.4 70.8 350.1 71.4 349.6 71.9 C 349.1 72.4 348.4 72.8 347.7 73.1 C 347 73.4 346.1 73.6 345.2 73.6 Z M 366.2 73.6 C 365.1 73.6 364.1 73.3 363.2 72.7 C 362.4 72.1 361.7 71.3 361.2 70.2 C 360.7 69.2 360.4 67.9 360.4 66.5 C 360.4 65.1 360.7 63.8 361.2 62.8 C 361.7 61.7 362.4 60.9 363.2 60.3 C 364.1 59.7 365.1 59.5 366.3 59.5 C 367.2 59.5 367.9 59.6 368.4 59.9 C 368.9 60.2 369.3 60.5 369.6 60.9 C 369.8 61.3 370.1 61.6 370.2 61.8 C 370.21 61.8 370.4 61.8 370.4 61.8 L 370.4 55.1 L 372.5 55.1 L 372.5 73.3 L 370.5 73.3 L 370.5 71.2 C 370.5 71.2 370.21 71.18 370.2 71.2 C 370.1 71.4 369.8 71.7 369.6 72.1 C 369.3 72.5 368.9 72.8 368.3 73.1 C 367.8 73.4 367.1 73.6 366.2 73.6 Z M 366.5 71.7 C 367.4 71.7 368.1 71.5 368.7 71 C 369.2 70.6 369.7 70 370 69.2 C 370.3 68.4 370.4 67.5 370.4 66.5 C 370.4 65.4 370.3 64.5 370 63.8 C 369.7 63 369.2 62.4 368.7 62 C 368.1 61.6 367.4 61.3 366.5 61.3 C 365.6 61.3 364.9 61.6 364.3 62 C 363.7 62.5 363.3 63.1 363 63.9 C 362.7 64.6 362.5 65.5 362.5 66.5 C 362.5 67.4 362.7 68.3 363 69.1 C 363.3 69.9 363.7 70.5 364.3 71 C 364.9 71.4 365.6 71.7 366.5 71.7 Z M 380.3 73.6 C 379.5 73.6 378.7 73.4 378 73.1 C 377.3 72.8 376.7 72.3 376.3 71.7 C 375.9 71 375.7 70.3 375.7 69.4 C 375.7 68.6 375.8 68 376.1 67.5 C 376.5 67 376.9 66.6 377.4 66.3 C 377.9 66.1 378.5 65.9 379.1 65.7 C 379.7 65.6 380.3 65.5 381 65.4 C 381.8 65.3 382.5 65.2 383 65.1 C 383.5 65.1 383.9 65 384.1 64.9 C 384.4 64.7 384.5 64.5 384.5 64.1 C 384.5 64.1 384.5 64.1 384.5 64.1 C 384.5 63.2 384.3 62.5 383.8 62 C 383.3 61.5 382.6 61.3 381.6 61.3 C 380.6 61.3 379.8 61.5 379.3 62 C 378.7 62.4 378.3 62.9 378.1 63.4 C 378.1 63.4 376.1 62.7 376.1 62.7 C 376.4 61.8 376.9 61.2 377.5 60.7 C 378.1 60.3 378.7 59.9 379.5 59.7 C 380.2 59.6 380.9 59.5 381.5 59.5 C 382 59.5 382.5 59.5 383.1 59.6 C 383.6 59.7 384.2 59.9 384.7 60.2 C 385.3 60.6 385.7 61.1 386.1 61.7 C 386.4 62.3 386.6 63.2 386.6 64.3 C 386.58 64.29 386.6 73.3 386.6 73.3 L 384.5 73.3 L 384.5 71.4 C 384.5 71.4 384.38 71.43 384.4 71.4 C 384.2 71.7 384 72 383.7 72.4 C 383.3 72.7 382.9 73 382.3 73.2 C 381.8 73.5 381.1 73.6 380.3 73.6 Z M 380.7 71.7 C 381.5 71.7 382.2 71.5 382.8 71.2 C 383.3 70.9 383.8 70.5 384 70 C 384.3 69.4 384.5 68.9 384.5 68.3 C 384.5 68.3 384.5 66.4 384.5 66.4 C 384.4 66.5 384.2 66.6 383.9 66.7 C 383.6 66.8 383.3 66.9 382.9 66.9 C 382.5 67 382.1 67 381.7 67.1 C 381.4 67.1 381.1 67.2 380.9 67.2 C 380.3 67.3 379.8 67.4 379.3 67.5 C 378.9 67.7 378.5 67.9 378.2 68.2 C 377.9 68.6 377.8 69 377.8 69.5 C 377.8 70.2 378 70.8 378.6 71.2 C 379.1 71.5 379.8 71.7 380.7 71.7 Z M 395.9 59.6 L 395.9 61.4 L 388.8 61.4 L 388.8 59.6 L 395.9 59.6 Z M 390.9 56.4 L 393 56.4 C 393 56.4 392.99 69.37 393 69.4 C 393 70 393.1 70.4 393.3 70.7 C 393.4 71 393.7 71.2 393.9 71.3 C 394.2 71.4 394.5 71.4 394.8 71.4 C 395 71.4 395.2 71.4 395.4 71.4 C 395.5 71.4 395.6 71.3 395.7 71.3 C 395.7 71.3 396.2 73.2 396.2 73.2 C 396 73.3 395.8 73.3 395.6 73.4 C 395.3 73.4 395 73.5 394.6 73.5 C 394 73.5 393.4 73.3 392.9 73.1 C 392.3 72.8 391.8 72.4 391.5 71.9 C 391.1 71.4 390.9 70.7 390.9 69.9 C 390.9 69.93 390.9 56.4 390.9 56.4 Z M 402.8 73.6 C 401.9 73.6 401.1 73.4 400.4 73.1 C 399.7 72.8 399.2 72.3 398.7 71.7 C 398.3 71 398.1 70.3 398.1 69.4 C 398.1 68.6 398.3 68 398.6 67.5 C 398.9 67 399.3 66.6 399.8 66.3 C 400.3 66.1 400.9 65.9 401.5 65.7 C 402.1 65.6 402.8 65.5 403.4 65.4 C 404.2 65.3 404.9 65.2 405.4 65.1 C 405.9 65.1 406.3 65 406.6 64.9 C 406.8 64.7 406.9 64.5 406.9 64.1 C 406.9 64.1 406.9 64.1 406.9 64.1 C 406.9 63.2 406.7 62.5 406.2 62 C 405.7 61.5 405 61.3 404 61.3 C 403 61.3 402.3 61.5 401.7 62 C 401.1 62.4 400.7 62.9 400.5 63.4 C 400.5 63.4 398.5 62.7 398.5 62.7 C 398.9 61.8 399.3 61.2 399.9 60.7 C 400.5 60.3 401.2 59.9 401.9 59.7 C 402.6 59.6 403.3 59.5 404 59.5 C 404.4 59.5 404.9 59.5 405.5 59.6 C 406.1 59.7 406.6 59.9 407.1 60.2 C 407.7 60.6 408.1 61.1 408.5 61.7 C 408.8 62.3 409 63.2 409 64.3 C 409.02 64.29 409 73.3 409 73.3 L 406.9 73.3 L 406.9 71.4 C 406.9 71.4 406.82 71.43 406.8 71.4 C 406.7 71.7 406.4 72 406.1 72.4 C 405.8 72.7 405.3 73 404.8 73.2 C 404.2 73.5 403.6 73.6 402.8 73.6 Z M 403.1 71.7 C 403.9 71.7 404.6 71.5 405.2 71.2 C 405.8 70.9 406.2 70.5 406.5 70 C 406.8 69.4 406.9 68.9 406.9 68.3 C 406.9 68.3 406.9 66.4 406.9 66.4 C 406.8 66.5 406.6 66.6 406.3 66.7 C 406 66.8 405.7 66.9 405.3 66.9 C 404.9 67 404.5 67 404.2 67.1 C 403.8 67.1 403.5 67.2 403.3 67.2 C 402.8 67.3 402.2 67.4 401.8 67.5 C 401.3 67.7 400.9 67.9 400.6 68.2 C 400.4 68.6 400.2 69 400.2 69.5 C 400.2 70.2 400.5 70.8 401 71.2 C 401.6 71.5 402.3 71.7 403.1 71.7 Z M 415.6 70.8 C 415.6 70.8 415.47 71.75 415.5 71.7 C 415.4 72.4 415.2 73.1 415 73.9 C 414.8 74.7 414.6 75.4 414.4 76.1 C 414.2 76.8 414 77.3 413.8 77.7 C 413.8 77.7 412.2 77.7 412.2 77.7 C 412.3 77.3 412.4 76.8 412.5 76.2 C 412.7 75.6 412.8 74.9 412.9 74.1 C 413 73.4 413.1 72.6 413.2 71.8 C 413.23 71.78 413.3 70.8 413.3 70.8 L 415.6 70.8 Z " stroke="none" fill="#000"/>  </g>  <g id="Polygon112572">    <path d="M 9.3 0 L 9.3 31.3 L 2.7 31.3 L 2.7 0 L 9.3 0 Z M 21.3 17.7 C 21.34 17.71 21.3 31.3 21.3 31.3 L 14.8 31.3 L 14.8 7.8 L 21 7.8 L 21 12 C 21 12 21.31 11.96 21.3 12 C 21.8 10.6 22.7 9.5 23.9 8.7 C 25.1 7.9 26.6 7.5 28.4 7.5 C 30 7.5 31.4 7.9 32.6 8.6 C 33.8 9.3 34.8 10.3 35.4 11.6 C 36.1 12.9 36.5 14.5 36.5 16.3 C 36.45 16.34 36.5 31.3 36.5 31.3 L 29.9 31.3 C 29.9 31.3 29.95 17.5 29.9 17.5 C 30 16.1 29.6 14.9 28.8 14.1 C 28.1 13.3 27.1 12.9 25.8 12.9 C 24.9 12.9 24.1 13.1 23.5 13.5 C 22.8 13.9 22.3 14.4 21.9 15.1 C 21.5 15.8 21.3 16.7 21.3 17.7 Z M 51.9 31.7 C 49.5 31.7 47.4 31.2 45.7 30.2 C 44 29.2 42.6 27.8 41.7 25.9 C 40.8 24.1 40.3 22 40.3 19.6 C 40.3 17.2 40.8 15.1 41.7 13.3 C 42.7 11.5 44 10.1 45.7 9 C 47.4 8 49.5 7.5 51.8 7.5 C 53.9 7.5 55.7 7.9 57.2 8.6 C 58.8 9.4 60 10.4 60.9 11.8 C 61.8 13.1 62.3 14.7 62.4 16.5 C 62.4 16.5 56.2 16.5 56.2 16.5 C 56 15.3 55.6 14.4 54.8 13.7 C 54.1 12.9 53.1 12.6 52 12.6 C 50.9 12.6 50.1 12.9 49.3 13.4 C 48.6 13.9 48 14.7 47.6 15.8 C 47.2 16.8 46.9 18.1 46.9 19.5 C 46.9 21 47.2 22.3 47.6 23.4 C 48 24.4 48.6 25.2 49.3 25.8 C 50.1 26.3 50.9 26.6 52 26.6 C 52.7 26.6 53.4 26.4 54 26.1 C 54.6 25.8 55.1 25.4 55.4 24.8 C 55.8 24.2 56.1 23.5 56.2 22.7 C 56.2 22.7 62.4 22.7 62.4 22.7 C 62.3 24.5 61.8 26 60.9 27.4 C 60 28.8 58.8 29.8 57.3 30.6 C 55.8 31.3 54 31.7 51.9 31.7 Z M 76.7 31.7 C 74.3 31.7 72.2 31.2 70.5 30.2 C 68.8 29.2 67.5 27.8 66.5 26 C 65.6 24.1 65.1 22 65.1 19.6 C 65.1 17.2 65.6 15.1 66.5 13.3 C 67.5 11.5 68.8 10 70.5 9 C 72.2 8 74.3 7.5 76.7 7.5 C 79 7.5 81.1 8 82.8 9 C 84.5 10 85.9 11.5 86.8 13.3 C 87.7 15.1 88.2 17.2 88.2 19.6 C 88.2 22 87.7 24.1 86.8 26 C 85.9 27.8 84.5 29.2 82.8 30.2 C 81.1 31.2 79 31.7 76.7 31.7 Z M 76.7 26.7 C 77.8 26.7 78.7 26.4 79.4 25.8 C 80.1 25.2 80.7 24.3 81 23.2 C 81.4 22.2 81.6 21 81.6 19.6 C 81.6 18.2 81.4 17 81 15.9 C 80.7 14.9 80.1 14 79.4 13.4 C 78.7 12.8 77.8 12.5 76.7 12.5 C 75.6 12.5 74.7 12.8 74 13.4 C 73.2 14 72.7 14.9 72.3 15.9 C 71.9 17 71.7 18.2 71.7 19.6 C 71.7 21 71.9 22.2 72.3 23.2 C 72.7 24.3 73.2 25.2 74 25.8 C 74.7 26.4 75.6 26.7 76.7 26.7 Z M 92.2 31.3 L 92.2 7.8 L 98.4 7.8 L 98.4 12 C 98.4 12 98.68 11.96 98.7 12 C 99.2 10.6 100 9.5 101.1 8.7 C 102.3 7.9 103.6 7.5 105.2 7.5 C 106.8 7.5 108.2 7.9 109.3 8.7 C 110.5 9.5 111.2 10.6 111.6 12 C 111.6 12 111.8 12 111.8 12 C 112.3 10.6 113.2 9.5 114.4 8.7 C 115.7 7.9 117.2 7.5 118.9 7.5 C 121.1 7.5 122.9 8.2 124.2 9.6 C 125.6 11 126.3 13 126.3 15.5 C 126.29 15.5 126.3 31.3 126.3 31.3 L 119.8 31.3 C 119.8 31.3 119.8 16.78 119.8 16.8 C 119.8 15.5 119.5 14.5 118.8 13.8 C 118.1 13.2 117.2 12.9 116.2 12.9 C 115 12.9 114.1 13.2 113.4 14 C 112.7 14.7 112.4 15.7 112.4 16.9 C 112.41 16.95 112.4 31.3 112.4 31.3 L 106.1 31.3 C 106.1 31.3 106.1 16.64 106.1 16.6 C 106.1 15.5 105.8 14.6 105.1 13.9 C 104.5 13.2 103.6 12.9 102.5 12.9 C 101.8 12.9 101.2 13.1 100.6 13.4 C 100 13.8 99.5 14.3 99.2 14.9 C 98.9 15.6 98.7 16.3 98.7 17.2 C 98.71 17.19 98.7 31.3 98.7 31.3 L 92.2 31.3 Z M 131.3 40.1 L 131.3 7.8 L 137.7 7.8 L 137.7 11.8 C 137.7 11.8 138 11.76 138 11.8 C 138.3 11.1 138.7 10.5 139.2 9.8 C 139.8 9.2 140.5 8.6 141.4 8.2 C 142.3 7.7 143.4 7.5 144.7 7.5 C 146.4 7.5 148 8 149.4 8.8 C 150.9 9.7 152 11.1 152.9 12.9 C 153.7 14.7 154.2 16.9 154.2 19.6 C 154.2 22.2 153.8 24.4 152.9 26.2 C 152.1 28 150.9 29.4 149.5 30.3 C 148.1 31.2 146.4 31.7 144.7 31.7 C 143.4 31.7 142.3 31.4 141.4 31 C 140.6 30.6 139.8 30.1 139.3 29.4 C 138.7 28.8 138.3 28.2 138 27.5 C 138 27.52 137.8 27.5 137.8 27.5 L 137.8 40.1 L 131.3 40.1 Z M 137.7 19.5 C 137.7 20.9 137.9 22.2 138.2 23.2 C 138.6 24.2 139.2 25 139.9 25.6 C 140.7 26.2 141.5 26.5 142.6 26.5 C 143.7 26.5 144.6 26.2 145.3 25.6 C 146 25 146.6 24.2 147 23.2 C 147.3 22.1 147.5 20.9 147.5 19.5 C 147.5 18.2 147.3 17 147 16 C 146.6 14.9 146 14.1 145.3 13.6 C 144.6 13 143.7 12.7 142.6 12.7 C 141.5 12.7 140.6 13 139.9 13.5 C 139.2 14.1 138.6 14.9 138.2 15.9 C 137.9 16.9 137.7 18.2 137.7 19.5 Z M 164.9 0 L 164.9 31.3 L 158.4 31.3 L 158.4 0 L 164.9 0 Z M 180.6 31.7 C 178.1 31.7 176.1 31.2 174.3 30.3 C 172.6 29.3 171.3 27.9 170.3 26.1 C 169.4 24.3 168.9 22.1 168.9 19.7 C 168.9 17.2 169.4 15.1 170.3 13.3 C 171.3 11.5 172.6 10.1 174.3 9 C 176 8 178 7.5 180.3 7.5 C 181.8 7.5 183.3 7.8 184.6 8.3 C 186 8.7 187.1 9.5 188.1 10.5 C 189.1 11.5 189.9 12.7 190.5 14.2 C 191 15.7 191.3 17.4 191.3 19.4 C 191.32 19.42 191.3 21.2 191.3 21.2 L 171.5 21.2 L 171.5 17.2 C 171.5 17.2 185.2 17.18 185.2 17.2 C 185.2 16.2 185 15.4 184.6 14.7 C 184.2 14 183.6 13.4 182.9 13 C 182.2 12.6 181.4 12.4 180.4 12.4 C 179.4 12.4 178.5 12.6 177.8 13 C 177 13.5 176.4 14.1 176 14.9 C 175.6 15.6 175.4 16.5 175.4 17.4 C 175.4 17.4 175.4 21.2 175.4 21.2 C 175.4 22.4 175.6 23.4 176 24.2 C 176.4 25.1 177 25.7 177.8 26.2 C 178.6 26.6 179.6 26.9 180.7 26.9 C 181.4 26.9 182.1 26.8 182.7 26.6 C 183.3 26.4 183.8 26.1 184.2 25.7 C 184.6 25.2 184.9 24.7 185.2 24.2 C 185.2 24.2 191.2 24.6 191.2 24.6 C 190.9 26 190.3 27.3 189.3 28.3 C 188.4 29.4 187.2 30.2 185.7 30.8 C 184.2 31.4 182.5 31.7 180.6 31.7 Z M 207.3 7.8 L 207.3 12.7 L 193.2 12.7 L 193.2 7.8 L 207.3 7.8 Z M 196.4 2.2 L 202.9 2.2 C 202.9 2.2 202.93 24.07 202.9 24.1 C 202.9 24.7 203 25.1 203.2 25.5 C 203.4 25.8 203.7 26 204 26.2 C 204.3 26.3 204.7 26.4 205.1 26.4 C 205.4 26.4 205.7 26.3 206.1 26.3 C 206.4 26.2 206.6 26.2 206.8 26.1 C 206.8 26.1 207.8 31 207.8 31 C 207.4 31.1 207 31.2 206.4 31.3 C 205.8 31.5 205.1 31.6 204.2 31.6 C 202.7 31.7 201.3 31.4 200.1 31 C 199 30.5 198 29.7 197.4 28.7 C 196.7 27.7 196.4 26.5 196.4 24.9 C 196.43 24.92 196.4 2.2 196.4 2.2 Z M 221.2 31.7 C 218.8 31.7 216.7 31.2 215 30.3 C 213.3 29.3 211.9 27.9 211 26.1 C 210 24.3 209.6 22.1 209.6 19.7 C 209.6 17.2 210 15.1 211 13.3 C 211.9 11.5 213.2 10.1 214.9 9 C 216.7 8 218.7 7.5 221 7.5 C 222.5 7.5 223.9 7.8 225.3 8.3 C 226.6 8.7 227.8 9.5 228.8 10.5 C 229.8 11.5 230.6 12.7 231.1 14.2 C 231.7 15.7 232 17.4 232 19.4 C 231.98 19.42 232 21.2 232 21.2 L 212.2 21.2 L 212.2 17.2 C 212.2 17.2 225.86 17.18 225.9 17.2 C 225.9 16.2 225.7 15.4 225.2 14.7 C 224.8 14 224.3 13.4 223.6 13 C 222.8 12.6 222 12.4 221.1 12.4 C 220.1 12.4 219.2 12.6 218.4 13 C 217.7 13.5 217.1 14.1 216.7 14.9 C 216.2 15.6 216 16.5 216 17.4 C 216 17.4 216 21.2 216 21.2 C 216 22.4 216.2 23.4 216.7 24.2 C 217.1 25.1 217.7 25.7 218.5 26.2 C 219.3 26.6 220.2 26.9 221.3 26.9 C 222 26.9 222.7 26.8 223.3 26.6 C 223.9 26.4 224.4 26.1 224.9 25.7 C 225.3 25.2 225.6 24.7 225.8 24.2 C 225.8 24.2 231.8 24.6 231.8 24.6 C 231.5 26 230.9 27.3 230 28.3 C 229 29.4 227.8 30.2 226.3 30.8 C 224.9 31.4 223.2 31.7 221.2 31.7 Z M 254.8 31.7 C 253.1 31.7 251.4 31.2 250 30.3 C 248.6 29.4 247.4 28 246.6 26.2 C 245.7 24.4 245.3 22.2 245.3 19.6 C 245.3 16.9 245.8 14.7 246.6 12.9 C 247.5 11.1 248.6 9.7 250.1 8.8 C 251.5 8 253.1 7.5 254.8 7.5 C 256.1 7.5 257.2 7.7 258.1 8.2 C 259 8.6 259.7 9.2 260.3 9.8 C 260.8 10.5 261.2 11.1 261.5 11.8 C 261.5 11.76 261.7 11.8 261.7 11.8 L 261.7 0 L 268.2 0 L 268.2 31.3 L 261.8 31.3 L 261.8 27.5 C 261.8 27.5 261.5 27.52 261.5 27.5 C 261.2 28.2 260.8 28.8 260.2 29.4 C 259.7 30.1 258.9 30.6 258.1 31 C 257.2 31.4 256.1 31.7 254.8 31.7 Z M 256.9 26.5 C 258 26.5 258.8 26.2 259.6 25.6 C 260.3 25 260.9 24.2 261.2 23.2 C 261.6 22.2 261.8 20.9 261.8 19.5 C 261.8 18.2 261.6 16.9 261.3 15.9 C 260.9 14.9 260.3 14.1 259.6 13.5 C 258.8 13 258 12.7 256.9 12.7 C 255.8 12.7 254.9 13 254.2 13.6 C 253.5 14.1 252.9 14.9 252.5 16 C 252.2 17 252 18.2 252 19.5 C 252 20.9 252.2 22.1 252.5 23.2 C 252.9 24.2 253.5 25 254.2 25.6 C 254.9 26.2 255.8 26.5 256.9 26.5 Z M 280 31.7 C 278.5 31.7 277.1 31.5 276 30.9 C 274.8 30.4 273.9 29.6 273.2 28.6 C 272.5 27.6 272.2 26.3 272.2 24.7 C 272.2 23.4 272.4 22.3 272.9 21.4 C 273.4 20.6 274 19.8 274.8 19.3 C 275.7 18.8 276.6 18.4 277.7 18.1 C 278.7 17.8 279.8 17.6 281 17.5 C 282.3 17.4 283.4 17.2 284.3 17.1 C 285.1 17 285.7 16.8 286.1 16.5 C 286.5 16.3 286.7 15.9 286.7 15.4 C 286.7 15.4 286.7 15.3 286.7 15.3 C 286.7 14.3 286.4 13.6 285.8 13.1 C 285.1 12.5 284.3 12.3 283.2 12.3 C 282 12.3 281.1 12.5 280.4 13 C 279.7 13.5 279.2 14.2 279 15 C 279 15 273 14.5 273 14.5 C 273.3 13.1 273.9 11.8 274.8 10.8 C 275.7 9.7 276.9 8.9 278.3 8.4 C 279.7 7.8 281.3 7.5 283.2 7.5 C 284.5 7.5 285.8 7.7 287 8 C 288.2 8.3 289.2 8.7 290.2 9.4 C 291.1 10 291.8 10.9 292.4 11.9 C 292.9 12.9 293.2 14.1 293.2 15.5 C 293.17 15.45 293.2 31.3 293.2 31.3 L 287 31.3 L 287 28 C 287 28 286.82 28.02 286.8 28 C 286.4 28.8 285.9 29.4 285.3 30 C 284.7 30.5 283.9 30.9 283 31.2 C 282.1 31.6 281.1 31.7 280 31.7 Z M 281.8 27.2 C 282.8 27.2 283.6 27 284.4 26.7 C 285.1 26.3 285.7 25.8 286.1 25.1 C 286.5 24.5 286.7 23.7 286.7 22.9 C 286.7 22.9 286.7 20.4 286.7 20.4 C 286.5 20.5 286.2 20.7 285.9 20.8 C 285.5 20.9 285.1 21 284.7 21 C 284.3 21.1 283.8 21.2 283.4 21.3 C 282.9 21.3 282.5 21.4 282.2 21.5 C 281.4 21.6 280.8 21.7 280.2 22 C 279.6 22.2 279.2 22.6 278.9 23 C 278.5 23.4 278.4 23.9 278.4 24.5 C 278.4 25.4 278.7 26.1 279.4 26.5 C 280 27 280.8 27.2 281.8 27.2 Z M 310.1 7.8 L 310.1 12.7 L 295.9 12.7 L 295.9 7.8 L 310.1 7.8 Z M 299.2 2.2 L 305.7 2.2 C 305.7 2.2 305.66 24.07 305.7 24.1 C 305.7 24.7 305.8 25.1 305.9 25.5 C 306.1 25.8 306.4 26 306.7 26.2 C 307 26.3 307.4 26.4 307.9 26.4 C 308.2 26.4 308.5 26.3 308.8 26.3 C 309.1 26.2 309.3 26.2 309.5 26.1 C 309.5 26.1 310.5 31 310.5 31 C 310.2 31.1 309.7 31.2 309.1 31.3 C 308.5 31.5 307.8 31.6 307 31.6 C 305.4 31.7 304 31.4 302.9 31 C 301.7 30.5 300.8 29.7 300.1 28.7 C 299.5 27.7 299.1 26.5 299.2 24.9 C 299.16 24.92 299.2 2.2 299.2 2.2 Z M 320.4 31.7 C 318.9 31.7 317.6 31.5 316.4 30.9 C 315.2 30.4 314.3 29.6 313.6 28.6 C 312.9 27.6 312.6 26.3 312.6 24.7 C 312.6 23.4 312.8 22.3 313.3 21.4 C 313.8 20.6 314.4 19.8 315.3 19.3 C 316.1 18.8 317 18.4 318.1 18.1 C 319.1 17.8 320.2 17.6 321.4 17.5 C 322.8 17.4 323.9 17.2 324.7 17.1 C 325.5 17 326.1 16.8 326.5 16.5 C 326.9 16.3 327.1 15.9 327.1 15.4 C 327.1 15.4 327.1 15.3 327.1 15.3 C 327.1 14.3 326.8 13.6 326.2 13.1 C 325.6 12.5 324.7 12.3 323.6 12.3 C 322.4 12.3 321.5 12.5 320.8 13 C 320.1 13.5 319.7 14.2 319.4 15 C 319.4 15 313.4 14.5 313.4 14.5 C 313.7 13.1 314.3 11.8 315.2 10.8 C 316.1 9.7 317.3 8.9 318.7 8.4 C 320.1 7.8 321.8 7.5 323.6 7.5 C 324.9 7.5 326.2 7.7 327.4 8 C 328.6 8.3 329.6 8.7 330.6 9.4 C 331.5 10 332.2 10.9 332.8 11.9 C 333.3 12.9 333.6 14.1 333.6 15.5 C 333.59 15.45 333.6 31.3 333.6 31.3 L 327.4 31.3 L 327.4 28 C 327.4 28 327.24 28.02 327.2 28 C 326.9 28.8 326.4 29.4 325.7 30 C 325.1 30.5 324.3 30.9 323.5 31.2 C 322.6 31.6 321.5 31.7 320.4 31.7 Z M 322.2 27.2 C 323.2 27.2 324 27 324.8 26.7 C 325.5 26.3 326.1 25.8 326.5 25.1 C 326.9 24.5 327.1 23.7 327.1 22.9 C 327.1 22.9 327.1 20.4 327.1 20.4 C 326.9 20.5 326.7 20.7 326.3 20.8 C 326 20.9 325.6 21 325.1 21 C 324.7 21.1 324.2 21.2 323.8 21.3 C 323.4 21.3 323 21.4 322.6 21.5 C 321.9 21.6 321.2 21.7 320.6 22 C 320 22.2 319.6 22.6 319.3 23 C 319 23.4 318.8 23.9 318.8 24.5 C 318.8 25.4 319.1 26.1 319.8 26.5 C 320.4 27 321.2 27.2 322.2 27.2 Z M 355.3 31.7 C 353.8 31.7 352.5 31.5 351.3 30.9 C 350.1 30.4 349.2 29.6 348.5 28.6 C 347.9 27.6 347.5 26.3 347.5 24.7 C 347.5 23.4 347.8 22.3 348.2 21.4 C 348.7 20.6 349.4 19.8 350.2 19.3 C 351 18.8 352 18.4 353 18.1 C 354.1 17.8 355.2 17.6 356.3 17.5 C 357.7 17.4 358.8 17.2 359.6 17.1 C 360.5 17 361.1 16.8 361.4 16.5 C 361.8 16.3 362 15.9 362 15.4 C 362 15.4 362 15.3 362 15.3 C 362 14.3 361.7 13.6 361.1 13.1 C 360.5 12.5 359.6 12.3 358.5 12.3 C 357.4 12.3 356.4 12.5 355.7 13 C 355 13.5 354.6 14.2 354.4 15 C 354.4 15 348.3 14.5 348.3 14.5 C 348.6 13.1 349.2 11.8 350.1 10.8 C 351 9.7 352.2 8.9 353.6 8.4 C 355 7.8 356.7 7.5 358.6 7.5 C 359.9 7.5 361.1 7.7 362.3 8 C 363.5 8.3 364.6 8.7 365.5 9.4 C 366.4 10 367.2 10.9 367.7 11.9 C 368.2 12.9 368.5 14.1 368.5 15.5 C 368.52 15.45 368.5 31.3 368.5 31.3 L 362.3 31.3 L 362.3 28 C 362.3 28 362.16 28.02 362.2 28 C 361.8 28.8 361.3 29.4 360.7 30 C 360 30.5 359.3 30.9 358.4 31.2 C 357.5 31.6 356.5 31.7 355.3 31.7 Z M 357.2 27.2 C 358.1 27.2 359 27 359.7 26.7 C 360.4 26.3 361 25.8 361.4 25.1 C 361.8 24.5 362.1 23.7 362.1 22.9 C 362.1 22.9 362.1 20.4 362.1 20.4 C 361.9 20.5 361.6 20.7 361.2 20.8 C 360.9 20.9 360.5 21 360 21 C 359.6 21.1 359.2 21.2 358.7 21.3 C 358.3 21.3 357.9 21.4 357.5 21.5 C 356.8 21.6 356.1 21.7 355.5 22 C 355 22.2 354.5 22.6 354.2 23 C 353.9 23.4 353.7 23.9 353.7 24.5 C 353.7 25.4 354.1 26.1 354.7 26.5 C 355.3 27 356.2 27.2 357.2 27.2 Z M 383.9 31.7 C 381.5 31.7 379.4 31.2 377.7 30.2 C 376 29.2 374.7 27.8 373.8 25.9 C 372.8 24.1 372.4 22 372.4 19.6 C 372.4 17.2 372.8 15.1 373.8 13.3 C 374.7 11.5 376 10.1 377.7 9 C 379.5 8 381.5 7.5 383.9 7.5 C 385.9 7.5 387.7 7.9 389.3 8.6 C 390.8 9.4 392 10.4 392.9 11.8 C 393.8 13.1 394.3 14.7 394.4 16.5 C 394.4 16.5 388.2 16.5 388.2 16.5 C 388.1 15.3 387.6 14.4 386.9 13.7 C 386.1 12.9 385.2 12.6 384 12.6 C 383 12.6 382.1 12.9 381.4 13.4 C 380.6 13.9 380 14.7 379.6 15.8 C 379.2 16.8 379 18.1 379 19.5 C 379 21 379.2 22.3 379.6 23.4 C 380 24.4 380.6 25.2 381.3 25.8 C 382.1 26.3 383 26.6 384 26.6 C 384.7 26.6 385.4 26.4 386 26.1 C 386.6 25.8 387.1 25.4 387.5 24.8 C 387.9 24.2 388.1 23.5 388.2 22.7 C 388.2 22.7 394.4 22.7 394.4 22.7 C 394.3 24.5 393.8 26 392.9 27.4 C 392.1 28.8 390.9 29.8 389.3 30.6 C 387.8 31.3 386 31.7 383.9 31.7 Z M 408.7 31.7 C 406.3 31.7 404.2 31.2 402.5 30.2 C 400.8 29.2 399.5 27.8 398.5 25.9 C 397.6 24.1 397.2 22 397.2 19.6 C 397.2 17.2 397.6 15.1 398.6 13.3 C 399.5 11.5 400.8 10.1 402.5 9 C 404.3 8 406.3 7.5 408.7 7.5 C 410.7 7.5 412.5 7.9 414 8.6 C 415.6 9.4 416.8 10.4 417.7 11.8 C 418.6 13.1 419.1 14.7 419.2 16.5 C 419.2 16.5 413 16.5 413 16.5 C 412.9 15.3 412.4 14.4 411.7 13.7 C 410.9 12.9 410 12.6 408.8 12.6 C 407.8 12.6 406.9 12.9 406.1 13.4 C 405.4 13.9 404.8 14.7 404.4 15.8 C 404 16.8 403.8 18.1 403.8 19.5 C 403.8 21 404 22.3 404.4 23.4 C 404.8 24.4 405.4 25.2 406.1 25.8 C 406.9 26.3 407.8 26.6 408.8 26.6 C 409.5 26.6 410.2 26.4 410.8 26.1 C 411.4 25.8 411.9 25.4 412.3 24.8 C 412.7 24.2 412.9 23.5 413 22.7 C 413 22.7 419.2 22.7 419.2 22.7 C 419.1 24.5 418.6 26 417.7 27.4 C 416.9 28.8 415.7 29.8 414.1 30.6 C 412.6 31.3 410.8 31.7 408.7 31.7 Z M 433.6 31.7 C 431.2 31.7 429.1 31.2 427.4 30.3 C 425.6 29.3 424.3 27.9 423.4 26.1 C 422.4 24.3 422 22.1 422 19.7 C 422 17.2 422.4 15.1 423.4 13.3 C 424.3 11.5 425.6 10.1 427.3 9 C 429 8 431 7.5 433.3 7.5 C 434.9 7.5 436.3 7.8 437.7 8.3 C 439 8.7 440.2 9.5 441.2 10.5 C 442.2 11.5 443 12.7 443.5 14.2 C 444.1 15.7 444.4 17.4 444.4 19.4 C 444.35 19.42 444.4 21.2 444.4 21.2 L 424.5 21.2 L 424.5 17.2 C 424.5 17.2 438.23 17.18 438.2 17.2 C 438.2 16.2 438 15.4 437.6 14.7 C 437.2 14 436.6 13.4 435.9 13 C 435.2 12.6 434.4 12.4 433.4 12.4 C 432.4 12.4 431.6 12.6 430.8 13 C 430.1 13.5 429.5 14.1 429 14.9 C 428.6 15.6 428.4 16.5 428.4 17.4 C 428.4 17.4 428.4 21.2 428.4 21.2 C 428.4 22.4 428.6 23.4 429 24.2 C 429.5 25.1 430.1 25.7 430.9 26.2 C 431.7 26.6 432.6 26.9 433.7 26.9 C 434.4 26.9 435.1 26.8 435.7 26.6 C 436.3 26.4 436.8 26.1 437.2 25.7 C 437.6 25.2 438 24.7 438.2 24.2 C 438.2 24.2 444.2 24.6 444.2 24.6 C 443.9 26 443.3 27.3 442.3 28.3 C 441.4 29.4 440.2 30.2 438.7 30.8 C 437.2 31.4 435.5 31.7 433.6 31.7 Z M 467.7 14.5 C 467.7 14.5 461.7 14.9 461.7 14.9 C 461.6 14.4 461.4 13.9 461.1 13.5 C 460.7 13.1 460.3 12.7 459.8 12.5 C 459.2 12.2 458.6 12.1 457.8 12.1 C 456.8 12.1 455.9 12.3 455.3 12.8 C 454.6 13.2 454.2 13.7 454.2 14.4 C 454.2 15 454.4 15.5 454.9 15.9 C 455.3 16.3 456.1 16.6 457.2 16.8 C 457.2 16.8 461.4 17.7 461.4 17.7 C 463.7 18.1 465.4 18.9 466.5 19.9 C 467.7 21 468.2 22.3 468.2 24 C 468.2 25.5 467.8 26.9 466.9 28.1 C 466 29.2 464.7 30.1 463.2 30.8 C 461.6 31.4 459.8 31.7 457.8 31.7 C 454.7 31.7 452.2 31.1 450.4 29.8 C 448.5 28.5 447.4 26.7 447.1 24.5 C 447.1 24.5 453.5 24.1 453.5 24.1 C 453.7 25.1 454.2 25.8 454.9 26.3 C 455.7 26.8 456.6 27 457.8 27 C 458.9 27 459.8 26.8 460.5 26.4 C 461.2 25.9 461.6 25.4 461.6 24.7 C 461.6 24.1 461.3 23.6 460.9 23.2 C 460.4 22.8 459.6 22.5 458.6 22.3 C 458.6 22.3 454.5 21.5 454.5 21.5 C 452.2 21.1 450.5 20.3 449.4 19.1 C 448.3 18 447.8 16.6 447.8 14.8 C 447.8 13.3 448.2 12 449 10.9 C 449.8 9.8 451 9 452.5 8.4 C 453.9 7.8 455.7 7.5 457.7 7.5 C 460.7 7.5 463 8.1 464.7 9.4 C 466.4 10.6 467.4 12.3 467.7 14.5 Z M 491.5 14.5 C 491.5 14.5 485.6 14.9 485.6 14.9 C 485.5 14.4 485.3 13.9 484.9 13.5 C 484.6 13.1 484.2 12.7 483.6 12.5 C 483.1 12.2 482.4 12.1 481.7 12.1 C 480.7 12.1 479.8 12.3 479.1 12.8 C 478.4 13.2 478.1 13.7 478.1 14.4 C 478.1 15 478.3 15.5 478.7 15.9 C 479.2 16.3 480 16.6 481.1 16.8 C 481.1 16.8 485.3 17.7 485.3 17.7 C 487.6 18.1 489.3 18.9 490.4 19.9 C 491.5 21 492.1 22.3 492.1 24 C 492.1 25.5 491.6 26.9 490.7 28.1 C 489.8 29.2 488.6 30.1 487 30.8 C 485.5 31.4 483.7 31.7 481.6 31.7 C 478.5 31.7 476.1 31.1 474.2 29.8 C 472.4 28.5 471.3 26.7 471 24.5 C 471 24.5 477.4 24.1 477.4 24.1 C 477.6 25.1 478 25.8 478.8 26.3 C 479.5 26.8 480.5 27 481.6 27 C 482.8 27 483.7 26.8 484.4 26.4 C 485.1 25.9 485.5 25.4 485.5 24.7 C 485.5 24.1 485.2 23.6 484.7 23.2 C 484.2 22.8 483.5 22.5 482.5 22.3 C 482.5 22.3 478.4 21.5 478.4 21.5 C 476.1 21.1 474.4 20.3 473.3 19.1 C 472.2 18 471.6 16.6 471.6 14.8 C 471.6 13.3 472 12 472.8 10.9 C 473.7 9.8 474.8 9 476.3 8.4 C 477.8 7.8 479.6 7.5 481.6 7.5 C 484.5 7.5 486.9 8.1 488.6 9.4 C 490.3 10.6 491.3 12.3 491.5 14.5 Z " stroke="none" fill="#10283d"/>  </g>  <g id="Polygon112573">    <path d="M 505.1 19 L 516.1 29.8 L 527.1 19 " style="stroke-width:3pt; stroke:#838f98;" fill="none"/>  </g>  <g id="Polygon112577">    <path d="M 248.5 139.8 L 203.3 139.8 M 237.6 150.9 L 248.6 139.9 L 237.6 129 " style="stroke-width:3pt; stroke:#ff4f00;" fill="none"/>  </g></svg>