<?xml version="1.0" standalone="no"?><!DOCTYPE svg PUBLIC "-//W3C//DTD SVG 1.1//EN" "http://www.w3.org/Graphics/SVG/1.1/DTD/svg11.dtd"><svg xmlns="http://www.w3.org/2000/svg" version="1.1" width="19px" height="6.7px" viewBox="0 -1 19 6.7" style="top:-1px">  <desc>Q1 FY24</desc>  <defs/>  <g id="Polygon124708">    <path d="M 4.9 2 L 5.1 2 L 5.4 2.3 L 5.4 2.4 L 5.7 2.8 L 5.5 2.8 L 5.3 2.5 L 5.2 2.5 L 4.9 2 Z M 5.8 1.6 C 5.8 1.9 5.8 2 5.7 2.2 C 5.6 2.3 5.5 2.5 5.4 2.5 C 5.3 2.6 5.1 2.7 4.9 2.7 C 4.8 2.7 4.6 2.6 4.5 2.5 C 4.4 2.5 4.3 2.3 4.2 2.2 C 4.1 2 4.1 1.9 4.1 1.6 C 4.1 1.4 4.1 1.3 4.2 1.1 C 4.3 1 4.4 0.8 4.5 0.8 C 4.6 0.7 4.8 0.6 4.9 0.6 C 5.1 0.6 5.3 0.7 5.4 0.8 C 5.5 0.8 5.6 1 5.7 1.1 C 5.8 1.3 5.8 1.4 5.8 1.6 Z M 5.6 1.6 C 5.6 1.5 5.6 1.3 5.5 1.2 C 5.4 1.1 5.4 1 5.3 0.9 C 5.2 0.9 5.1 0.9 4.9 0.9 C 4.8 0.9 4.7 0.9 4.6 0.9 C 4.5 1 4.4 1.1 4.4 1.2 C 4.3 1.3 4.3 1.5 4.3 1.6 C 4.3 1.8 4.3 2 4.4 2.1 C 4.4 2.2 4.5 2.3 4.6 2.4 C 4.7 2.4 4.8 2.4 4.9 2.4 C 5.1 2.4 5.2 2.4 5.3 2.4 C 5.4 2.3 5.4 2.2 5.5 2.1 C 5.6 2 5.6 1.8 5.6 1.6 Z M 6.9 0.7 L 6.9 2.6 L 6.6 2.6 L 6.6 0.9 L 6.6 0.9 L 6.2 1.2 L 6.2 1 L 6.6 0.7 L 6.9 0.7 Z M 8.3 2.6 L 8.3 0.7 L 9.4 0.7 L 9.4 0.9 L 8.5 0.9 L 8.5 1.5 L 9.4 1.5 L 9.4 1.8 L 8.5 1.8 L 8.5 2.6 L 8.3 2.6 Z M 9.7 0.7 L 10 0.7 L 10.5 1.6 L 10.5 1.6 L 11.1 0.7 L 11.4 0.7 L 10.6 1.8 L 10.6 2.6 L 10.4 2.6 L 10.4 1.8 L 9.7 0.7 Z M 11.6 2.6 L 11.6 2.5 C 11.6 2.5 12.29 1.75 12.3 1.7 C 12.4 1.7 12.4 1.6 12.5 1.5 C 12.5 1.5 12.6 1.4 12.6 1.4 C 12.6 1.3 12.6 1.2 12.6 1.2 C 12.6 1.1 12.6 1.1 12.6 1 C 12.5 0.9 12.5 0.9 12.4 0.9 C 12.4 0.9 12.3 0.8 12.2 0.8 C 12.2 0.8 12.1 0.9 12 0.9 C 12 0.9 11.9 1 11.9 1 C 11.9 1.1 11.9 1.1 11.9 1.2 C 11.9 1.2 11.6 1.2 11.6 1.2 C 11.6 1.1 11.7 1 11.7 0.9 C 11.8 0.8 11.8 0.8 11.9 0.7 C 12 0.7 12.1 0.6 12.3 0.6 C 12.4 0.6 12.5 0.7 12.6 0.7 C 12.7 0.8 12.7 0.8 12.8 0.9 C 12.8 1 12.8 1.1 12.8 1.2 C 12.8 1.3 12.8 1.3 12.8 1.4 C 12.8 1.5 12.7 1.5 12.7 1.6 C 12.6 1.7 12.5 1.8 12.4 1.9 C 12.41 1.94 12 2.4 12 2.4 L 12 2.4 L 12.9 2.4 L 12.9 2.6 L 11.6 2.6 Z M 13.2 2.2 L 13.2 2 L 14.1 0.7 L 14.3 0.7 L 14.3 1 L 14.2 1 L 13.5 2 L 13.5 2 L 14.7 2 L 14.7 2.2 L 13.2 2.2 Z M 14.2 2.6 L 14.2 2.2 L 14.2 2.1 L 14.2 0.7 L 14.4 0.7 L 14.4 2.6 L 14.2 2.6 Z " stroke="none" fill="#000"/>  </g></svg>