<?xml version="1.0" standalone="no"?><!DOCTYPE svg PUBLIC "-//W3C//DTD SVG 1.1//EN" "http://www.w3.org/Graphics/SVG/1.1/DTD/svg11.dtd"><svg xmlns="http://www.w3.org/2000/svg" version="1.1" width="500px" height="52.8px" viewBox="0 -3 500 52.8" style="top:-3px">  <desc>© 2024 Anaplan, Inc. All rights reserved.</desc>  <defs/>  <g id="Polygon126651">    <path d="M 5 12.1 C 5 11.3 5.2 10.6 5.6 10 C 5.9 9.3 6.5 8.8 7.1 8.5 C 7.7 8.1 8.4 7.9 9.2 7.9 C 9.9 7.9 10.5 8 11.1 8.3 C 11.7 8.6 12.1 9 12.5 9.5 C 12.9 10 13.1 10.6 13.2 11.2 C 13.2 11.2 11.5 11.2 11.5 11.2 C 11.4 10.7 11.1 10.3 10.7 10 C 10.3 9.7 9.8 9.5 9.2 9.5 C 8.7 9.5 8.3 9.6 7.9 9.9 C 7.5 10.1 7.2 10.4 7 10.8 C 6.8 11.2 6.6 11.6 6.6 12.1 C 6.6 12.6 6.8 13 7 13.4 C 7.2 13.8 7.5 14.1 7.9 14.3 C 8.3 14.6 8.7 14.7 9.2 14.7 C 9.8 14.7 10.2 14.5 10.6 14.2 C 11 13.9 11.2 13.5 11.3 13 C 11.3 13 13.1 13 13.1 13 C 13 13.6 12.7 14.2 12.4 14.7 C 12 15.2 11.6 15.6 11 15.9 C 10.5 16.2 9.9 16.3 9.2 16.3 C 8.4 16.3 7.7 16.1 7.1 15.8 C 6.5 15.4 5.9 14.9 5.6 14.2 C 5.2 13.6 5 12.9 5 12.1 Z M 9.1 19.6 C 8.1 19.6 7.1 19.4 6.2 19 C 5.3 18.6 4.5 18.1 3.8 17.4 C 3.2 16.7 2.6 15.9 2.2 15 C 1.8 14.1 1.6 13.1 1.6 12.1 C 1.7 11.1 1.9 10.1 2.2 9.2 C 2.6 8.3 3.2 7.5 3.9 6.8 C 4.5 6.1 5.3 5.6 6.2 5.2 C 7.1 4.8 8.1 4.6 9.1 4.6 C 10.2 4.6 11.2 4.8 12.1 5.2 C 13 5.6 13.8 6.1 14.4 6.8 C 15.1 7.5 15.7 8.3 16.1 9.2 C 16.4 10.1 16.6 11.1 16.6 12.1 C 16.7 13.1 16.5 14.1 16.1 15 C 15.7 15.9 15.1 16.7 14.5 17.4 C 13.8 18.1 13 18.6 12.1 19 C 11.2 19.4 10.2 19.6 9.1 19.6 Z M 9.1 18 C 10 18 10.7 17.8 11.4 17.5 C 12.1 17.2 12.8 16.8 13.3 16.2 C 13.8 15.7 14.2 15.1 14.6 14.4 C 14.9 13.7 15 12.9 15 12.1 C 15 11.3 14.8 10.5 14.5 9.8 C 14.2 9.1 13.8 8.5 13.3 8 C 12.7 7.4 12.1 7 11.4 6.7 C 10.7 6.4 10 6.3 9.1 6.3 C 8.3 6.3 7.6 6.4 6.9 6.7 C 6.2 7 5.6 7.4 5 8 C 4.5 8.5 4.1 9.1 3.8 9.8 C 3.5 10.5 3.3 11.3 3.3 12.1 C 3.3 12.9 3.4 13.7 3.7 14.4 C 4 15.1 4.5 15.7 5 16.2 C 5.5 16.8 6.2 17.2 6.9 17.5 C 7.6 17.8 8.3 18 9.1 18 Z M 25.4 19.4 L 25.4 18.1 C 25.4 18.1 30.23 12.84 30.2 12.8 C 30.8 12.2 31.3 11.7 31.6 11.2 C 32 10.8 32.3 10.3 32.4 9.9 C 32.6 9.5 32.7 9.1 32.7 8.7 C 32.7 8.2 32.6 7.7 32.3 7.3 C 32.1 7 31.8 6.7 31.3 6.5 C 30.9 6.3 30.4 6.2 29.9 6.2 C 29.4 6.2 28.9 6.3 28.5 6.5 C 28 6.7 27.7 7.1 27.5 7.5 C 27.3 7.9 27.2 8.4 27.2 8.9 C 27.2 8.9 25.5 8.9 25.5 8.9 C 25.5 8.1 25.7 7.3 26.1 6.7 C 26.5 6 27 5.5 27.7 5.2 C 28.4 4.8 29.1 4.6 30 4.6 C 30.8 4.6 31.6 4.8 32.2 5.2 C 32.9 5.5 33.4 6 33.8 6.6 C 34.2 7.2 34.3 7.9 34.3 8.7 C 34.3 9.2 34.3 9.7 34.1 10.2 C 33.9 10.7 33.5 11.3 33.1 11.9 C 32.6 12.6 31.9 13.3 31.1 14.2 C 31.11 14.2 27.8 17.7 27.8 17.7 L 27.8 17.8 L 34.6 17.8 L 34.6 19.4 L 25.4 19.4 Z M 41.8 19.6 C 40.8 19.6 39.9 19.3 39.1 18.7 C 38.4 18.1 37.8 17.3 37.4 16.1 C 37 15 36.8 13.7 36.8 12.1 C 36.8 10.5 37 9.2 37.4 8.1 C 37.8 7 38.4 6.1 39.1 5.5 C 39.9 4.9 40.8 4.6 41.8 4.6 C 42.9 4.6 43.8 4.9 44.6 5.5 C 45.3 6.1 45.9 7 46.3 8.1 C 46.7 9.2 46.9 10.5 46.9 12.1 C 46.9 13.7 46.7 15 46.3 16.1 C 45.9 17.3 45.3 18.1 44.6 18.7 C 43.8 19.3 42.9 19.6 41.8 19.6 Z M 41.8 18 C 42.9 18 43.7 17.5 44.3 16.5 C 44.9 15.5 45.2 14 45.2 12.1 C 45.2 10.8 45.1 9.8 44.8 8.9 C 44.5 8 44.1 7.3 43.6 6.9 C 43.1 6.4 42.5 6.2 41.8 6.2 C 40.8 6.2 40 6.7 39.4 7.7 C 38.8 8.8 38.5 10.2 38.5 12.1 C 38.5 13.4 38.6 14.4 38.9 15.3 C 39.2 16.2 39.5 16.9 40 17.3 C 40.5 17.8 41.1 18 41.8 18 Z M 49.2 19.4 L 49.2 18.1 C 49.2 18.1 54.01 12.84 54 12.8 C 54.6 12.2 55 11.7 55.4 11.2 C 55.8 10.8 56 10.3 56.2 9.9 C 56.4 9.5 56.5 9.1 56.5 8.7 C 56.5 8.2 56.4 7.7 56.1 7.3 C 55.9 7 55.5 6.7 55.1 6.5 C 54.7 6.3 54.2 6.2 53.7 6.2 C 53.1 6.2 52.7 6.3 52.2 6.5 C 51.8 6.7 51.5 7.1 51.3 7.5 C 51.1 7.9 50.9 8.4 50.9 8.9 C 50.9 8.9 49.3 8.9 49.3 8.9 C 49.3 8.1 49.5 7.3 49.9 6.7 C 50.3 6 50.8 5.5 51.5 5.2 C 52.1 4.8 52.9 4.6 53.8 4.6 C 54.6 4.6 55.4 4.8 56 5.2 C 56.7 5.5 57.2 6 57.6 6.6 C 57.9 7.2 58.1 7.9 58.1 8.7 C 58.1 9.2 58 9.7 57.8 10.2 C 57.7 10.7 57.3 11.3 56.9 11.9 C 56.4 12.6 55.7 13.3 54.9 14.2 C 54.89 14.2 51.6 17.7 51.6 17.7 L 51.6 17.8 L 58.4 17.8 L 58.4 19.4 L 49.2 19.4 Z M 60.3 16.4 L 60.3 14.9 L 66.7 4.8 L 67.7 4.8 L 67.7 7.1 L 67 7.1 L 62.2 14.7 L 62.2 14.8 L 70.8 14.8 L 70.8 16.4 L 60.3 16.4 Z M 67.1 19.4 L 67.1 16 L 67.1 15.3 L 67.1 4.8 L 68.8 4.8 L 68.8 19.4 L 67.1 19.4 Z M 79.9 19.4 L 78.1 19.4 L 83.4 4.8 L 85.2 4.8 L 90.6 19.4 L 88.7 19.4 L 84.4 7.1 L 84.3 7.1 L 79.9 19.4 Z M 80.6 13.7 L 88 13.7 L 88 15.3 L 80.6 15.3 L 80.6 13.7 Z M 94.3 12.8 C 94.33 12.81 94.3 19.4 94.3 19.4 L 92.7 19.4 L 92.7 8.5 L 94.3 8.5 L 94.3 10.2 C 94.3 10.2 94.41 10.17 94.4 10.2 C 94.7 9.6 95.1 9.2 95.6 8.8 C 96.1 8.5 96.8 8.3 97.6 8.3 C 98.3 8.3 99 8.5 99.5 8.8 C 100.1 9.1 100.5 9.5 100.8 10.1 C 101.1 10.7 101.3 11.5 101.3 12.4 C 101.29 12.44 101.3 19.4 101.3 19.4 L 99.6 19.4 C 99.6 19.4 99.61 12.56 99.6 12.6 C 99.6 11.7 99.4 11 98.9 10.6 C 98.5 10.1 97.9 9.8 97.1 9.8 C 96.6 9.8 96.1 9.9 95.7 10.2 C 95.3 10.4 94.9 10.7 94.7 11.2 C 94.4 11.6 94.3 12.2 94.3 12.8 Z M 107.4 19.6 C 106.7 19.6 106.1 19.5 105.5 19.2 C 105 19 104.5 18.6 104.2 18.1 C 103.9 17.6 103.7 17 103.7 16.3 C 103.7 15.7 103.8 15.1 104.1 14.8 C 104.3 14.4 104.6 14.1 105.1 13.8 C 105.5 13.6 105.9 13.4 106.4 13.3 C 106.9 13.2 107.4 13.1 107.9 13.1 C 108.6 13 109.1 12.9 109.5 12.9 C 110 12.8 110.3 12.8 110.5 12.6 C 110.6 12.5 110.7 12.3 110.7 12.1 C 110.7 12.1 110.7 12 110.7 12 C 110.7 11.3 110.6 10.8 110.2 10.4 C 109.8 10 109.2 9.8 108.4 9.8 C 107.6 9.8 107 10 106.6 10.3 C 106.1 10.7 105.8 11.1 105.6 11.4 C 105.6 11.4 104 10.9 104 10.9 C 104.3 10.2 104.7 9.7 105.2 9.3 C 105.6 9 106.1 8.7 106.7 8.5 C 107.3 8.4 107.8 8.3 108.4 8.3 C 108.7 8.3 109.1 8.4 109.6 8.4 C 110.1 8.5 110.5 8.7 110.9 9 C 111.4 9.2 111.7 9.6 112 10.1 C 112.3 10.6 112.4 11.3 112.4 12.2 C 112.42 12.19 112.4 19.4 112.4 19.4 L 110.7 19.4 L 110.7 17.9 C 110.7 17.9 110.66 17.9 110.7 17.9 C 110.5 18.1 110.4 18.4 110.1 18.7 C 109.8 18.9 109.5 19.2 109 19.3 C 108.6 19.5 108.1 19.6 107.4 19.6 Z M 107.7 18.1 C 108.3 18.1 108.9 18 109.4 17.7 C 109.8 17.5 110.2 17.1 110.4 16.7 C 110.6 16.3 110.7 15.9 110.7 15.4 C 110.7 15.4 110.7 13.9 110.7 13.9 C 110.7 14 110.5 14.1 110.3 14.1 C 110 14.2 109.8 14.3 109.5 14.3 C 109.1 14.4 108.8 14.4 108.6 14.4 C 108.3 14.5 108 14.5 107.8 14.5 C 107.4 14.6 107 14.7 106.6 14.8 C 106.3 14.9 105.9 15.1 105.7 15.4 C 105.5 15.6 105.4 15.9 105.4 16.4 C 105.4 16.9 105.6 17.4 106 17.7 C 106.5 18 107 18.1 107.7 18.1 Z M 115.4 23.5 L 115.4 8.5 L 117.1 8.5 L 117.1 10.2 C 117.1 10.2 117.26 10.2 117.3 10.2 C 117.4 10 117.6 9.8 117.8 9.5 C 118 9.2 118.3 8.9 118.7 8.7 C 119.1 8.4 119.7 8.3 120.4 8.3 C 121.3 8.3 122.1 8.6 122.8 9 C 123.5 9.5 124.1 10.1 124.5 11 C 124.9 11.8 125.1 12.8 125.1 13.9 C 125.1 15.1 124.9 16.1 124.5 16.9 C 124.1 17.8 123.5 18.4 122.8 18.9 C 122.1 19.4 121.3 19.6 120.4 19.6 C 119.7 19.6 119.2 19.5 118.8 19.3 C 118.3 19 118 18.7 117.8 18.4 C 117.6 18.1 117.4 17.9 117.3 17.7 C 117.26 17.7 117.1 17.7 117.1 17.7 L 117.1 23.5 L 115.4 23.5 Z M 117.1 13.9 C 117.1 14.7 117.2 15.5 117.4 16.1 C 117.7 16.7 118 17.2 118.5 17.6 C 119 17.9 119.5 18.1 120.2 18.1 C 120.9 18.1 121.5 17.9 122 17.5 C 122.4 17.2 122.8 16.7 123 16 C 123.3 15.4 123.4 14.7 123.4 13.9 C 123.4 13.2 123.3 12.5 123 11.8 C 122.8 11.2 122.5 10.7 122 10.4 C 121.5 10 120.9 9.8 120.2 9.8 C 119.5 9.8 119 10 118.5 10.3 C 118 10.7 117.7 11.2 117.4 11.8 C 117.2 12.4 117.1 13.1 117.1 13.9 Z M 129.3 4.8 L 129.3 19.4 L 127.6 19.4 L 127.6 4.8 L 129.3 4.8 Z M 135.5 19.6 C 134.8 19.6 134.2 19.5 133.6 19.2 C 133.1 19 132.6 18.6 132.3 18.1 C 132 17.6 131.8 17 131.8 16.3 C 131.8 15.7 131.9 15.1 132.2 14.8 C 132.4 14.4 132.7 14.1 133.2 13.8 C 133.6 13.6 134 13.4 134.5 13.3 C 135 13.2 135.5 13.1 136 13.1 C 136.7 13 137.2 12.9 137.6 12.9 C 138.1 12.8 138.4 12.8 138.6 12.6 C 138.7 12.5 138.8 12.3 138.8 12.1 C 138.8 12.1 138.8 12 138.8 12 C 138.8 11.3 138.6 10.8 138.3 10.4 C 137.9 10 137.3 9.8 136.5 9.8 C 135.7 9.8 135.1 10 134.7 10.3 C 134.2 10.7 133.9 11.1 133.7 11.4 C 133.7 11.4 132.1 10.9 132.1 10.9 C 132.4 10.2 132.8 9.7 133.2 9.3 C 133.7 9 134.2 8.7 134.8 8.5 C 135.4 8.4 135.9 8.3 136.5 8.3 C 136.8 8.3 137.2 8.4 137.7 8.4 C 138.1 8.5 138.6 8.7 139 9 C 139.4 9.2 139.8 9.6 140.1 10.1 C 140.4 10.6 140.5 11.3 140.5 12.2 C 140.52 12.19 140.5 19.4 140.5 19.4 L 138.8 19.4 L 138.8 17.9 C 138.8 17.9 138.75 17.9 138.8 17.9 C 138.6 18.1 138.5 18.4 138.2 18.7 C 137.9 18.9 137.6 19.2 137.1 19.3 C 136.7 19.5 136.2 19.6 135.5 19.6 Z M 135.8 18.1 C 136.4 18.1 137 18 137.5 17.7 C 137.9 17.5 138.3 17.1 138.5 16.7 C 138.7 16.3 138.8 15.9 138.8 15.4 C 138.8 15.4 138.8 13.9 138.8 13.9 C 138.8 14 138.6 14.1 138.4 14.1 C 138.1 14.2 137.9 14.3 137.6 14.3 C 137.2 14.4 136.9 14.4 136.6 14.4 C 136.4 14.5 136.1 14.5 135.9 14.5 C 135.5 14.6 135.1 14.7 134.7 14.8 C 134.3 14.9 134 15.1 133.8 15.4 C 133.6 15.6 133.5 15.9 133.5 16.4 C 133.5 16.9 133.7 17.4 134.1 17.7 C 134.6 18 135.1 18.1 135.8 18.1 Z M 145.2 12.8 C 145.21 12.81 145.2 19.4 145.2 19.4 L 143.5 19.4 L 143.5 8.5 L 145.2 8.5 L 145.2 10.2 C 145.2 10.2 145.3 10.17 145.3 10.2 C 145.6 9.6 145.9 9.2 146.5 8.8 C 147 8.5 147.7 8.3 148.5 8.3 C 149.2 8.3 149.9 8.5 150.4 8.8 C 151 9.1 151.4 9.5 151.7 10.1 C 152 10.7 152.2 11.5 152.2 12.4 C 152.17 12.44 152.2 19.4 152.2 19.4 L 150.5 19.4 C 150.5 19.4 150.49 12.56 150.5 12.6 C 150.5 11.7 150.3 11 149.8 10.6 C 149.4 10.1 148.8 9.8 148 9.8 C 147.5 9.8 147 9.9 146.6 10.2 C 146.1 10.4 145.8 10.7 145.6 11.2 C 145.3 11.6 145.2 12.2 145.2 12.8 Z M 157.5 17.4 C 157.5 17.4 157.37 18.15 157.4 18.2 C 157.3 18.7 157.2 19.3 157 19.9 C 156.8 20.5 156.7 21.1 156.5 21.6 C 156.3 22.2 156.2 22.6 156.1 22.9 C 156.1 22.9 154.8 22.9 154.8 22.9 C 154.8 22.6 154.9 22.2 155 21.7 C 155.1 21.2 155.2 20.7 155.3 20.1 C 155.4 19.4 155.5 18.8 155.6 18.2 C 155.58 18.18 155.7 17.4 155.7 17.4 L 157.5 17.4 Z M 168.2 4.8 L 168.2 19.4 L 166.4 19.4 L 166.4 4.8 L 168.2 4.8 Z M 173.2 12.8 C 173.18 12.81 173.2 19.4 173.2 19.4 L 171.5 19.4 L 171.5 8.5 L 173.1 8.5 L 173.1 10.2 C 173.1 10.2 173.26 10.17 173.3 10.2 C 173.5 9.6 173.9 9.2 174.4 8.8 C 174.9 8.5 175.6 8.3 176.4 8.3 C 177.2 8.3 177.8 8.5 178.4 8.8 C 178.9 9.1 179.4 9.5 179.7 10.1 C 180 10.7 180.1 11.5 180.1 12.4 C 180.14 12.44 180.1 19.4 180.1 19.4 L 178.5 19.4 C 178.5 19.4 178.46 12.56 178.5 12.6 C 178.5 11.7 178.2 11 177.8 10.6 C 177.3 10.1 176.7 9.8 176 9.8 C 175.4 9.8 174.9 9.9 174.5 10.2 C 174.1 10.4 173.8 10.7 173.5 11.2 C 173.3 11.6 173.2 12.2 173.2 12.8 Z M 187.5 19.6 C 186.5 19.6 185.6 19.4 184.9 18.9 C 184.1 18.4 183.6 17.7 183.2 16.9 C 182.8 16 182.6 15.1 182.6 14 C 182.6 12.9 182.8 11.9 183.2 11 C 183.6 10.2 184.2 9.5 184.9 9 C 185.7 8.6 186.5 8.3 187.5 8.3 C 188.3 8.3 189 8.5 189.6 8.8 C 190.2 9 190.7 9.4 191.1 9.9 C 191.5 10.5 191.7 11.1 191.8 11.7 C 191.8 11.7 190.1 11.7 190.1 11.7 C 190 11.2 189.7 10.8 189.3 10.4 C 188.9 10 188.3 9.8 187.5 9.8 C 186.9 9.8 186.3 10 185.8 10.3 C 185.3 10.7 184.9 11.2 184.7 11.8 C 184.4 12.4 184.3 13.1 184.3 13.9 C 184.3 14.8 184.4 15.5 184.7 16.1 C 184.9 16.7 185.3 17.2 185.8 17.6 C 186.3 17.9 186.9 18.1 187.5 18.1 C 188 18.1 188.4 18 188.7 17.9 C 189.1 17.7 189.4 17.5 189.6 17.2 C 189.9 16.9 190 16.6 190.1 16.2 C 190.1 16.2 191.8 16.2 191.8 16.2 C 191.7 16.8 191.5 17.4 191.1 17.9 C 190.7 18.4 190.3 18.9 189.6 19.2 C 189 19.5 188.3 19.6 187.5 19.6 Z M 195.3 19.5 C 195 19.5 194.7 19.4 194.4 19.1 C 194.2 18.9 194.1 18.6 194.1 18.2 C 194.1 17.9 194.2 17.6 194.4 17.3 C 194.7 17.1 195 16.9 195.3 16.9 C 195.7 16.9 196 17.1 196.2 17.3 C 196.5 17.6 196.6 17.9 196.6 18.2 C 196.6 18.4 196.6 18.7 196.4 18.8 C 196.3 19 196.2 19.2 196 19.3 C 195.8 19.4 195.6 19.5 195.3 19.5 Z M 206.1 19.4 L 204.2 19.4 L 209.6 4.8 L 211.4 4.8 L 216.7 19.4 L 214.9 19.4 L 210.5 7.1 L 210.4 7.1 L 206.1 19.4 Z M 206.8 13.7 L 214.2 13.7 L 214.2 15.3 L 206.8 15.3 L 206.8 13.7 Z M 220.5 4.8 L 220.5 19.4 L 218.8 19.4 L 218.8 4.8 L 220.5 4.8 Z M 225.2 4.8 L 225.2 19.4 L 223.5 19.4 L 223.5 4.8 L 225.2 4.8 Z M 233.9 19.4 L 233.9 8.5 L 235.5 8.5 L 235.5 10.1 C 235.5 10.1 235.61 10.11 235.6 10.1 C 235.8 9.6 236.2 9.1 236.7 8.8 C 237.2 8.5 237.8 8.3 238.5 8.3 C 238.6 8.3 238.7 8.3 238.9 8.3 C 239.1 8.3 239.2 8.3 239.3 8.3 C 239.3 8.3 239.3 10 239.3 10 C 239.3 10 239.1 10 238.9 10 C 238.7 9.9 238.5 9.9 238.3 9.9 C 237.8 9.9 237.3 10 236.9 10.2 C 236.5 10.5 236.2 10.8 235.9 11.2 C 235.7 11.5 235.6 12 235.6 12.5 C 235.55 12.47 235.6 19.4 235.6 19.4 L 233.9 19.4 Z M 241.3 19.4 L 241.3 8.5 L 243 8.5 L 243 19.4 L 241.3 19.4 Z M 242.1 6.6 C 241.8 6.6 241.5 6.5 241.3 6.3 C 241.1 6.1 241 5.8 241 5.5 C 241 5.2 241.1 4.9 241.3 4.7 C 241.5 4.5 241.8 4.4 242.1 4.4 C 242.5 4.4 242.8 4.5 243 4.7 C 243.2 4.9 243.3 5.2 243.3 5.5 C 243.3 5.8 243.2 6.1 243 6.3 C 242.8 6.5 242.5 6.6 242.1 6.6 Z M 250.4 23.7 C 249.5 23.7 248.8 23.6 248.3 23.4 C 247.7 23.2 247.2 22.9 246.8 22.6 C 246.4 22.2 246.1 21.9 245.9 21.5 C 245.9 21.5 247.2 20.6 247.2 20.6 C 247.4 20.8 247.6 21 247.8 21.3 C 248 21.5 248.4 21.7 248.8 21.9 C 249.2 22.1 249.7 22.2 250.4 22.2 C 251.2 22.2 252 22 252.5 21.6 C 253.1 21.2 253.4 20.5 253.4 19.6 C 253.39 19.57 253.4 17.4 253.4 17.4 C 253.4 17.4 253.25 17.36 253.3 17.4 C 253.1 17.6 253 17.8 252.7 18.1 C 252.5 18.4 252.2 18.6 251.8 18.9 C 251.3 19.1 250.8 19.2 250.1 19.2 C 249.2 19.2 248.4 19 247.7 18.6 C 247 18.2 246.5 17.6 246 16.8 C 245.6 16 245.4 15 245.4 13.9 C 245.4 12.7 245.6 11.8 246 10.9 C 246.4 10.1 247 9.5 247.7 9 C 248.4 8.6 249.2 8.3 250.1 8.3 C 250.8 8.3 251.4 8.4 251.8 8.7 C 252.2 8.9 252.5 9.2 252.8 9.5 C 253 9.8 253.2 10 253.3 10.2 C 253.28 10.2 253.4 10.2 253.4 10.2 L 253.4 8.5 L 255.1 8.5 C 255.1 8.5 255.07 19.69 255.1 19.7 C 255.1 20.6 254.9 21.4 254.4 22 C 254 22.6 253.4 23 252.7 23.3 C 252 23.6 251.2 23.7 250.4 23.7 Z M 250.3 17.7 C 251 17.7 251.5 17.5 252 17.2 C 252.5 16.9 252.8 16.5 253.1 15.9 C 253.3 15.3 253.4 14.6 253.4 13.8 C 253.4 13 253.3 12.4 253.1 11.8 C 252.8 11.2 252.5 10.7 252 10.3 C 251.6 10 251 9.8 250.3 9.8 C 249.6 9.8 249 10 248.5 10.4 C 248.1 10.7 247.7 11.2 247.5 11.8 C 247.2 12.4 247.1 13.1 247.1 13.8 C 247.1 14.6 247.2 15.3 247.5 15.8 C 247.7 16.4 248.1 16.9 248.5 17.2 C 249 17.5 249.6 17.7 250.3 17.7 Z M 259.8 12.8 C 259.78 12.81 259.8 19.4 259.8 19.4 L 258.1 19.4 L 258.1 4.8 L 259.8 4.8 L 259.8 10.2 C 259.8 10.2 259.92 10.17 259.9 10.2 C 260.2 9.6 260.6 9.2 261.1 8.8 C 261.6 8.5 262.3 8.3 263.1 8.3 C 263.9 8.3 264.5 8.5 265.1 8.8 C 265.6 9.1 266.1 9.5 266.4 10.1 C 266.7 10.7 266.8 11.5 266.8 12.4 C 266.85 12.44 266.8 19.4 266.8 19.4 L 265.2 19.4 C 265.2 19.4 265.17 12.56 265.2 12.6 C 265.2 11.7 264.9 11 264.5 10.5 C 264.1 10.1 263.4 9.8 262.6 9.8 C 262.1 9.8 261.6 9.9 261.2 10.2 C 260.7 10.4 260.4 10.7 260.1 11.2 C 259.9 11.6 259.8 12.2 259.8 12.8 Z M 274.3 8.5 L 274.3 9.9 L 268.7 9.9 L 268.7 8.5 L 274.3 8.5 Z M 270.3 5.9 L 272 5.9 C 272 5.9 272 16.25 272 16.3 C 272 16.7 272.1 17.1 272.2 17.3 C 272.3 17.5 272.5 17.7 272.7 17.8 C 273 17.9 273.2 17.9 273.4 17.9 C 273.6 17.9 273.8 17.9 273.9 17.9 C 274 17.8 274.1 17.8 274.2 17.8 C 274.2 17.8 274.5 19.3 274.5 19.3 C 274.4 19.4 274.3 19.4 274.1 19.4 C 273.8 19.5 273.6 19.5 273.3 19.5 C 272.8 19.5 272.3 19.4 271.9 19.2 C 271.4 19 271.1 18.7 270.8 18.3 C 270.5 17.9 270.3 17.3 270.3 16.7 C 270.32 16.7 270.3 5.9 270.3 5.9 Z M 284.3 10.9 C 284.3 10.9 282.8 11.3 282.8 11.3 C 282.7 11.1 282.6 10.8 282.4 10.6 C 282.2 10.4 282 10.2 281.7 10 C 281.4 9.9 281 9.8 280.5 9.8 C 279.8 9.8 279.3 9.9 278.8 10.2 C 278.4 10.5 278.1 10.9 278.1 11.4 C 278.1 11.8 278.3 12.1 278.6 12.4 C 278.9 12.6 279.4 12.8 280 13 C 280 13 281.6 13.4 281.6 13.4 C 282.6 13.6 283.3 14 283.8 14.5 C 284.3 14.9 284.5 15.6 284.5 16.3 C 284.5 17 284.4 17.5 284 18 C 283.6 18.5 283.1 18.9 282.5 19.2 C 281.9 19.5 281.1 19.6 280.3 19.6 C 279.2 19.6 278.2 19.4 277.5 18.9 C 276.8 18.4 276.3 17.7 276.1 16.8 C 276.1 16.8 277.7 16.4 277.7 16.4 C 277.9 17 278.2 17.4 278.6 17.7 C 279 18 279.6 18.1 280.3 18.1 C 281 18.1 281.7 18 282.1 17.6 C 282.6 17.3 282.8 16.9 282.8 16.4 C 282.8 16 282.7 15.7 282.4 15.5 C 282.1 15.2 281.7 15 281.2 14.9 C 281.2 14.9 279.4 14.5 279.4 14.5 C 278.4 14.2 277.6 13.9 277.2 13.4 C 276.7 12.9 276.5 12.2 276.5 11.5 C 276.5 10.9 276.6 10.3 277 9.8 C 277.3 9.4 277.8 9 278.4 8.7 C 279 8.5 279.7 8.3 280.5 8.3 C 281.6 8.3 282.4 8.6 283 9 C 283.6 9.5 284.1 10.1 284.3 10.9 Z M 292.7 19.4 L 292.7 8.5 L 294.3 8.5 L 294.3 10.1 C 294.3 10.1 294.43 10.11 294.4 10.1 C 294.6 9.6 295 9.1 295.5 8.8 C 296 8.5 296.6 8.3 297.3 8.3 C 297.4 8.3 297.5 8.3 297.7 8.3 C 297.9 8.3 298.1 8.3 298.1 8.3 C 298.1 8.3 298.1 10 298.1 10 C 298.1 10 298 10 297.8 10 C 297.6 9.9 297.3 9.9 297.1 9.9 C 296.6 9.9 296.1 10 295.7 10.2 C 295.3 10.5 295 10.8 294.7 11.2 C 294.5 11.5 294.4 12 294.4 12.5 C 294.37 12.47 294.4 19.4 294.4 19.4 L 292.7 19.4 Z M 304.4 19.6 C 303.4 19.6 302.5 19.4 301.7 18.9 C 301 18.4 300.4 17.8 300 16.9 C 299.6 16.1 299.4 15.1 299.4 14 C 299.4 12.9 299.6 11.9 300 11 C 300.4 10.2 301 9.5 301.7 9 C 302.4 8.6 303.3 8.3 304.3 8.3 C 304.8 8.3 305.4 8.4 306 8.6 C 306.5 8.8 307 9.1 307.5 9.5 C 307.9 10 308.3 10.5 308.6 11.2 C 308.8 11.9 309 12.8 309 13.8 C 308.96 13.78 309 14.5 309 14.5 L 300.6 14.5 L 300.6 13 C 300.6 13 307.26 13.04 307.3 13 C 307.3 12.4 307.1 11.9 306.9 11.4 C 306.6 10.9 306.3 10.5 305.9 10.2 C 305.4 10 304.9 9.8 304.3 9.8 C 303.6 9.8 303 10 302.5 10.3 C 302.1 10.7 301.7 11.1 301.4 11.6 C 301.2 12.1 301 12.7 301 13.3 C 301 13.3 301 14.3 301 14.3 C 301 15.1 301.2 15.8 301.5 16.4 C 301.8 16.9 302.2 17.4 302.7 17.7 C 303.2 17.9 303.8 18.1 304.4 18.1 C 304.9 18.1 305.3 18 305.6 17.9 C 306 17.8 306.3 17.6 306.6 17.3 C 306.8 17.1 307 16.8 307.2 16.4 C 307.2 16.4 308.8 16.8 308.8 16.8 C 308.6 17.4 308.3 17.9 307.9 18.3 C 307.5 18.7 307 19 306.4 19.3 C 305.8 19.5 305.2 19.6 304.4 19.6 Z M 319.1 10.9 C 319.1 10.9 317.6 11.3 317.6 11.3 C 317.5 11.1 317.3 10.8 317.2 10.6 C 317 10.4 316.7 10.2 316.4 10 C 316.1 9.9 315.7 9.8 315.2 9.8 C 314.6 9.8 314 9.9 313.6 10.2 C 313.1 10.5 312.9 10.9 312.9 11.4 C 312.9 11.8 313 12.1 313.3 12.4 C 313.7 12.6 314.1 12.8 314.8 13 C 314.8 13 316.4 13.4 316.4 13.4 C 317.4 13.6 318.1 14 318.6 14.5 C 319 14.9 319.3 15.6 319.3 16.3 C 319.3 17 319.1 17.5 318.7 18 C 318.4 18.5 317.9 18.9 317.3 19.2 C 316.6 19.5 315.9 19.6 315 19.6 C 313.9 19.6 313 19.4 312.3 18.9 C 311.5 18.4 311.1 17.7 310.9 16.8 C 310.9 16.8 312.5 16.4 312.5 16.4 C 312.6 17 312.9 17.4 313.3 17.7 C 313.8 18 314.3 18.1 315 18.1 C 315.8 18.1 316.4 18 316.9 17.6 C 317.3 17.3 317.6 16.9 317.6 16.4 C 317.6 16 317.4 15.7 317.2 15.5 C 316.9 15.2 316.5 15 315.9 14.9 C 315.9 14.9 314.1 14.5 314.1 14.5 C 313.1 14.2 312.4 13.9 311.9 13.4 C 311.5 12.9 311.2 12.2 311.2 11.5 C 311.2 10.9 311.4 10.3 311.7 9.8 C 312.1 9.4 312.6 9 313.2 8.7 C 313.8 8.5 314.5 8.3 315.2 8.3 C 316.3 8.3 317.2 8.6 317.8 9 C 318.4 9.5 318.8 10.1 319.1 10.9 Z M 326.3 19.6 C 325.2 19.6 324.3 19.4 323.5 18.9 C 322.8 18.4 322.2 17.8 321.8 16.9 C 321.4 16.1 321.2 15.1 321.2 14 C 321.2 12.9 321.4 11.9 321.8 11 C 322.2 10.2 322.8 9.5 323.5 9 C 324.3 8.6 325.1 8.3 326.1 8.3 C 326.7 8.3 327.2 8.4 327.8 8.6 C 328.3 8.8 328.8 9.1 329.3 9.5 C 329.7 10 330.1 10.5 330.4 11.2 C 330.6 11.9 330.8 12.8 330.8 13.8 C 330.78 13.78 330.8 14.5 330.8 14.5 L 322.4 14.5 L 322.4 13 C 322.4 13 329.08 13.04 329.1 13 C 329.1 12.4 329 11.9 328.7 11.4 C 328.5 10.9 328.1 10.5 327.7 10.2 C 327.2 10 326.7 9.8 326.1 9.8 C 325.4 9.8 324.9 10 324.4 10.3 C 323.9 10.7 323.5 11.1 323.2 11.6 C 323 12.1 322.9 12.7 322.9 13.3 C 322.9 13.3 322.9 14.3 322.9 14.3 C 322.9 15.1 323 15.8 323.3 16.4 C 323.6 16.9 324 17.4 324.5 17.7 C 325 17.9 325.6 18.1 326.3 18.1 C 326.7 18.1 327.1 18 327.5 17.9 C 327.8 17.8 328.1 17.6 328.4 17.3 C 328.7 17.1 328.9 16.8 329 16.4 C 329 16.4 330.6 16.8 330.6 16.8 C 330.4 17.4 330.2 17.9 329.8 18.3 C 329.4 18.7 328.9 19 328.3 19.3 C 327.7 19.5 327 19.6 326.3 19.6 Z M 333.3 19.4 L 333.3 8.5 L 334.9 8.5 L 334.9 10.1 C 334.9 10.1 335.04 10.11 335 10.1 C 335.2 9.6 335.6 9.1 336.1 8.8 C 336.6 8.5 337.2 8.3 337.9 8.3 C 338 8.3 338.2 8.3 338.3 8.3 C 338.5 8.3 338.7 8.3 338.8 8.3 C 338.8 8.3 338.8 10 338.8 10 C 338.7 10 338.6 10 338.4 10 C 338.2 9.9 338 9.9 337.7 9.9 C 337.2 9.9 336.7 10 336.3 10.2 C 335.9 10.5 335.6 10.8 335.3 11.2 C 335.1 11.5 335 12 335 12.5 C 334.98 12.47 335 19.4 335 19.4 L 333.3 19.4 Z M 350.1 8.5 L 346 19.4 L 344.3 19.4 L 340.3 8.5 L 342.1 8.5 L 345.1 17.2 L 345.2 17.2 L 348.3 8.5 L 350.1 8.5 Z M 356.3 19.6 C 355.2 19.6 354.3 19.4 353.6 18.9 C 352.8 18.4 352.2 17.8 351.8 16.9 C 351.4 16.1 351.2 15.1 351.2 14 C 351.2 12.9 351.4 11.9 351.8 11 C 352.2 10.2 352.8 9.5 353.5 9 C 354.3 8.6 355.1 8.3 356.1 8.3 C 356.7 8.3 357.2 8.4 357.8 8.6 C 358.3 8.8 358.8 9.1 359.3 9.5 C 359.8 10 360.1 10.5 360.4 11.2 C 360.7 11.9 360.8 12.8 360.8 13.8 C 360.79 13.78 360.8 14.5 360.8 14.5 L 352.4 14.5 L 352.4 13 C 352.4 13 359.08 13.04 359.1 13 C 359.1 12.4 359 11.9 358.7 11.4 C 358.5 10.9 358.1 10.5 357.7 10.2 C 357.2 10 356.7 9.8 356.1 9.8 C 355.4 9.8 354.9 10 354.4 10.3 C 353.9 10.7 353.5 11.1 353.3 11.6 C 353 12.1 352.9 12.7 352.9 13.3 C 352.9 13.3 352.9 14.3 352.9 14.3 C 352.9 15.1 353 15.8 353.3 16.4 C 353.6 16.9 354 17.4 354.5 17.7 C 355 17.9 355.6 18.1 356.3 18.1 C 356.7 18.1 357.1 18 357.5 17.9 C 357.8 17.8 358.1 17.6 358.4 17.3 C 358.7 17.1 358.9 16.8 359 16.4 C 359 16.4 360.6 16.8 360.6 16.8 C 360.4 17.4 360.2 17.9 359.8 18.3 C 359.4 18.7 358.9 19 358.3 19.3 C 357.7 19.5 357 19.6 356.3 19.6 Z M 367.4 19.6 C 366.5 19.6 365.7 19.4 365 18.9 C 364.3 18.4 363.8 17.8 363.4 16.9 C 363 16.1 362.8 15.1 362.8 13.9 C 362.8 12.8 363 11.8 363.4 11 C 363.8 10.1 364.3 9.5 365 9 C 365.7 8.6 366.5 8.3 367.4 8.3 C 368.1 8.3 368.7 8.4 369.1 8.7 C 369.5 8.9 369.9 9.2 370.1 9.5 C 370.3 9.8 370.5 10 370.6 10.2 C 370.59 10.2 370.7 10.2 370.7 10.2 L 370.7 4.8 L 372.4 4.8 L 372.4 19.4 L 370.8 19.4 L 370.8 17.7 C 370.8 17.7 370.59 17.7 370.6 17.7 C 370.5 17.9 370.3 18.1 370.1 18.4 C 369.8 18.7 369.5 19 369.1 19.3 C 368.7 19.5 368.1 19.6 367.4 19.6 Z M 367.6 18.1 C 368.3 18.1 368.9 17.9 369.3 17.6 C 369.8 17.2 370.2 16.7 370.4 16.1 C 370.6 15.5 370.8 14.7 370.8 13.9 C 370.8 13.1 370.6 12.4 370.4 11.8 C 370.2 11.2 369.8 10.7 369.4 10.3 C 368.9 10 368.3 9.8 367.6 9.8 C 366.9 9.8 366.3 10 365.9 10.4 C 365.4 10.7 365 11.2 364.8 11.8 C 364.6 12.5 364.5 13.2 364.5 13.9 C 364.5 14.7 364.6 15.4 364.8 16 C 365.1 16.7 365.4 17.2 365.9 17.5 C 366.3 17.9 366.9 18.1 367.6 18.1 Z M 376.7 19.5 C 376.4 19.5 376.1 19.4 375.8 19.1 C 375.6 18.9 375.5 18.6 375.5 18.2 C 375.5 17.9 375.6 17.6 375.8 17.3 C 376.1 17.1 376.4 16.9 376.7 16.9 C 377.1 16.9 377.4 17.1 377.6 17.3 C 377.9 17.6 378 17.9 378 18.2 C 378 18.4 378 18.7 377.8 18.8 C 377.7 19 377.6 19.2 377.4 19.3 C 377.2 19.4 377 19.5 376.7 19.5 Z " stroke="none" fill="#ffffff"/>  </g></svg>