<?xml version="1.0" standalone="no"?><!DOCTYPE svg PUBLIC "-//W3C//DTD SVG 1.1//EN" "http://www.w3.org/Graphics/SVG/1.1/DTD/svg11.dtd"><svg xmlns="http://www.w3.org/2000/svg" version="1.1" width="228px" height="93.7px" viewBox="0 -13 228 93.7" style="top:-13px">  <desc>Promise vs. functionality</desc>  <defs/>  <g id="Polygon123099">    <path d="M 11.3 44.2 L 11.3 47.9 L 0.5 47.9 L 0.5 44.2 L 11.3 44.2 Z M 3 61.7 C 3 61.7 3.01 42.96 3 43 C 3 41.7 3.3 40.6 3.8 39.8 C 4.3 39 4.9 38.4 5.8 37.9 C 6.7 37.5 7.6 37.3 8.7 37.3 C 9.5 37.3 10.2 37.4 10.8 37.5 C 11.4 37.6 11.9 37.7 12.2 37.8 C 12.2 37.8 11.3 41.4 11.3 41.4 C 11.1 41.4 10.9 41.3 10.6 41.3 C 10.3 41.2 10 41.2 9.7 41.2 C 9 41.2 8.5 41.3 8.3 41.7 C 8 42 7.8 42.5 7.8 43 C 7.84 43.05 7.8 61.7 7.8 61.7 L 3 61.7 Z M 25 54.2 C 25.01 54.24 25 44.2 25 44.2 L 29.8 44.2 L 29.8 61.7 L 25.2 61.7 L 25.2 58.5 C 25.2 58.5 25.02 58.5 25 58.5 C 24.6 59.5 24 60.3 23.1 61 C 22.1 61.6 21 61.9 19.7 61.9 C 18.6 61.9 17.5 61.6 16.6 61.1 C 15.8 60.6 15.1 59.8 14.6 58.8 C 14.1 57.9 13.8 56.7 13.8 55.3 C 13.81 55.33 13.8 44.2 13.8 44.2 L 18.7 44.2 C 18.7 44.2 18.65 54.47 18.7 54.5 C 18.7 55.5 18.9 56.3 19.5 56.9 C 20 57.5 20.8 57.8 21.7 57.8 C 22.3 57.8 22.8 57.7 23.3 57.4 C 23.8 57.1 24.2 56.7 24.5 56.2 C 24.9 55.7 25 55 25 54.2 Z M 38.6 51.6 C 38.58 51.58 38.6 61.7 38.6 61.7 L 33.7 61.7 L 33.7 44.2 L 38.4 44.2 L 38.4 47.3 C 38.4 47.3 38.56 47.3 38.6 47.3 C 38.9 46.3 39.6 45.5 40.5 44.9 C 41.4 44.3 42.5 44 43.8 44 C 45 44 46.1 44.3 47 44.8 C 47.9 45.3 48.6 46.1 49.1 47.1 C 49.6 48 49.8 49.2 49.8 50.6 C 49.83 50.56 49.8 61.7 49.8 61.7 L 45 61.7 C 45 61.7 44.99 51.42 45 51.4 C 45 50.4 44.7 49.5 44.2 48.9 C 43.6 48.3 42.9 48 41.9 48 C 41.2 48 40.7 48.2 40.2 48.4 C 39.7 48.7 39.3 49.1 39 49.7 C 38.7 50.2 38.6 50.8 38.6 51.6 Z M 61.4 62 C 59.6 62 58.1 61.6 56.8 60.9 C 55.5 60.1 54.5 59.1 53.8 57.7 C 53.2 56.3 52.8 54.8 52.8 53 C 52.8 51.2 53.2 49.7 53.9 48.3 C 54.6 47 55.5 45.9 56.8 45.1 C 58.1 44.4 59.6 44 61.4 44 C 62.9 44 64.2 44.3 65.4 44.8 C 66.5 45.4 67.4 46.2 68.1 47.2 C 68.8 48.2 69.1 49.3 69.2 50.7 C 69.2 50.7 64.6 50.7 64.6 50.7 C 64.5 49.8 64.2 49.1 63.6 48.6 C 63.1 48 62.4 47.8 61.5 47.8 C 60.7 47.8 60.1 48 59.5 48.4 C 58.9 48.8 58.5 49.4 58.2 50.1 C 57.9 50.9 57.7 51.8 57.7 52.9 C 57.7 54.1 57.9 55 58.2 55.8 C 58.5 56.6 58.9 57.2 59.5 57.6 C 60.1 58 60.7 58.2 61.5 58.2 C 62 58.2 62.5 58.1 63 57.8 C 63.4 57.6 63.8 57.3 64.1 56.8 C 64.4 56.4 64.5 55.9 64.6 55.3 C 64.6 55.3 69.2 55.3 69.2 55.3 C 69.1 56.6 68.8 57.8 68.1 58.8 C 67.5 59.8 66.6 60.6 65.4 61.2 C 64.3 61.7 63 62 61.4 62 Z M 81.4 44.2 L 81.4 47.9 L 70.9 47.9 L 70.9 44.2 L 81.4 44.2 Z M 73.3 40 L 78.1 40 C 78.1 40 78.14 56.31 78.1 56.3 C 78.1 56.8 78.2 57.1 78.3 57.3 C 78.5 57.6 78.7 57.8 78.9 57.9 C 79.2 58 79.5 58 79.8 58 C 80 58 80.2 58 80.5 58 C 80.7 57.9 80.9 57.9 81 57.9 C 81 57.9 81.7 61.5 81.7 61.5 C 81.5 61.5 81.2 61.6 80.7 61.7 C 80.3 61.8 79.7 61.9 79.1 61.9 C 78 62 76.9 61.8 76.1 61.4 C 75.2 61.1 74.5 60.5 74 59.8 C 73.5 59 73.3 58.1 73.3 56.9 C 73.3 56.95 73.3 40 73.3 40 Z M 84.4 61.7 L 84.4 44.2 L 89.3 44.2 L 89.3 61.7 L 84.4 61.7 Z M 86.9 42 C 86.1 42 85.5 41.7 85 41.3 C 84.5 40.8 84.3 40.2 84.3 39.5 C 84.3 38.9 84.5 38.3 85 37.8 C 85.5 37.3 86.2 37.1 86.9 37.1 C 87.6 37.1 88.2 37.3 88.7 37.8 C 89.2 38.3 89.5 38.8 89.5 39.5 C 89.5 40.2 89.2 40.8 88.7 41.2 C 88.2 41.7 87.6 42 86.9 42 Z M 100.9 62 C 99.2 62 97.6 61.6 96.4 60.9 C 95.1 60.1 94.1 59.1 93.4 57.7 C 92.7 56.4 92.3 54.8 92.3 53 C 92.3 51.2 92.7 49.6 93.4 48.3 C 94.1 46.9 95.1 45.9 96.4 45.1 C 97.6 44.4 99.2 44 100.9 44 C 102.7 44 104.2 44.4 105.5 45.1 C 106.8 45.9 107.8 46.9 108.5 48.3 C 109.2 49.6 109.5 51.2 109.5 53 C 109.5 54.8 109.2 56.4 108.5 57.7 C 107.8 59.1 106.8 60.1 105.5 60.9 C 104.2 61.6 102.7 62 100.9 62 Z M 101 58.3 C 101.8 58.3 102.4 58 103 57.6 C 103.5 57.1 103.9 56.5 104.2 55.7 C 104.5 54.9 104.6 54 104.6 53 C 104.6 52 104.5 51.1 104.2 50.3 C 103.9 49.5 103.5 48.8 103 48.4 C 102.4 47.9 101.8 47.7 101 47.7 C 100.1 47.7 99.5 47.9 98.9 48.4 C 98.4 48.8 98 49.5 97.7 50.3 C 97.4 51.1 97.3 52 97.3 53 C 97.3 54 97.4 54.9 97.7 55.7 C 98 56.5 98.4 57.1 98.9 57.6 C 99.5 58 100.1 58.3 101 58.3 Z M 117.4 51.6 C 117.44 51.58 117.4 61.7 117.4 61.7 L 112.6 61.7 L 112.6 44.2 L 117.2 44.2 L 117.2 47.3 C 117.2 47.3 117.41 47.3 117.4 47.3 C 117.8 46.3 118.4 45.5 119.4 44.9 C 120.3 44.3 121.4 44 122.7 44 C 123.9 44 124.9 44.3 125.8 44.8 C 126.7 45.3 127.4 46.1 127.9 47.1 C 128.4 48 128.7 49.2 128.7 50.6 C 128.69 50.56 128.7 61.7 128.7 61.7 L 123.8 61.7 C 123.8 61.7 123.84 51.42 123.8 51.4 C 123.9 50.4 123.6 49.5 123 48.9 C 122.5 48.3 121.7 48 120.7 48 C 120.1 48 119.5 48.2 119 48.4 C 118.5 48.7 118.1 49.1 117.9 49.7 C 117.6 50.2 117.4 50.8 117.4 51.6 Z M 137.4 62 C 136.2 62 135.3 61.8 134.4 61.4 C 133.5 61 132.8 60.4 132.3 59.7 C 131.8 58.9 131.6 57.9 131.6 56.8 C 131.6 55.8 131.7 55 132.1 54.4 C 132.5 53.7 132.9 53.2 133.6 52.8 C 134.2 52.4 134.9 52.1 135.7 51.9 C 136.4 51.7 137.3 51.5 138.1 51.4 C 139.1 51.3 140 51.2 140.6 51.1 C 141.2 51 141.6 50.9 141.9 50.7 C 142.2 50.5 142.3 50.2 142.3 49.9 C 142.3 49.9 142.3 49.8 142.3 49.8 C 142.3 49.1 142.1 48.5 141.7 48.1 C 141.2 47.7 140.6 47.5 139.8 47.5 C 138.9 47.5 138.2 47.7 137.7 48.1 C 137.2 48.5 136.8 49 136.7 49.5 C 136.7 49.5 132.2 49.2 132.2 49.2 C 132.4 48.1 132.9 47.2 133.5 46.4 C 134.2 45.6 135 45 136.1 44.6 C 137.2 44.2 138.4 44 139.8 44 C 140.8 44 141.7 44.1 142.6 44.3 C 143.5 44.6 144.3 44.9 144.9 45.4 C 145.6 45.9 146.2 46.5 146.6 47.2 C 147 48 147.2 48.9 147.2 49.9 C 147.19 49.9 147.2 61.7 147.2 61.7 L 142.6 61.7 L 142.6 59.3 C 142.6 59.3 142.46 59.25 142.5 59.3 C 142.2 59.8 141.8 60.3 141.3 60.7 C 140.9 61.1 140.3 61.4 139.6 61.7 C 139 61.9 138.2 62 137.4 62 Z M 138.7 58.7 C 139.5 58.7 140.1 58.5 140.6 58.2 C 141.2 58 141.6 57.6 141.9 57.1 C 142.2 56.6 142.4 56 142.4 55.4 C 142.4 55.4 142.4 53.6 142.4 53.6 C 142.2 53.7 142 53.8 141.8 53.8 C 141.5 53.9 141.2 54 140.9 54.1 C 140.6 54.1 140.2 54.2 139.9 54.2 C 139.6 54.3 139.3 54.3 139 54.4 C 138.5 54.4 138 54.6 137.5 54.8 C 137.1 54.9 136.8 55.2 136.5 55.5 C 136.3 55.8 136.2 56.2 136.2 56.6 C 136.2 57.3 136.4 57.8 136.9 58.1 C 137.4 58.5 138 58.7 138.7 58.7 Z M 155.9 38.4 L 155.9 61.7 L 151 61.7 L 151 38.4 L 155.9 38.4 Z M 159.7 61.7 L 159.7 44.2 L 164.6 44.2 L 164.6 61.7 L 159.7 61.7 Z M 162.2 42 C 161.5 42 160.8 41.7 160.3 41.3 C 159.8 40.8 159.6 40.2 159.6 39.5 C 159.6 38.9 159.8 38.3 160.3 37.8 C 160.8 37.3 161.5 37.1 162.2 37.1 C 162.9 37.1 163.5 37.3 164 37.8 C 164.5 38.3 164.8 38.8 164.8 39.5 C 164.8 40.2 164.5 40.8 164 41.2 C 163.5 41.7 162.9 42 162.2 42 Z M 177.5 44.2 L 177.5 47.9 L 166.9 47.9 L 166.9 44.2 L 177.5 44.2 Z M 169.3 40 L 174.2 40 C 174.2 40 174.18 56.31 174.2 56.3 C 174.2 56.8 174.2 57.1 174.4 57.3 C 174.5 57.6 174.7 57.8 175 57.9 C 175.2 58 175.5 58 175.8 58 C 176 58 176.3 58 176.5 58 C 176.7 57.9 176.9 57.9 177 57.9 C 177 57.9 177.8 61.5 177.8 61.5 C 177.5 61.5 177.2 61.6 176.8 61.7 C 176.3 61.8 175.8 61.9 175.2 61.9 C 174 62 173 61.8 172.1 61.4 C 171.2 61.1 170.5 60.5 170.1 59.8 C 169.6 59 169.3 58.1 169.3 56.9 C 169.34 56.95 169.3 40 169.3 40 Z M 183.8 68.2 C 183.1 68.2 182.6 68.2 182 68.1 C 181.5 68 181.1 67.9 180.7 67.7 C 180.7 67.7 181.8 64.1 181.8 64.1 C 182.4 64.3 182.9 64.4 183.3 64.4 C 183.8 64.4 184.2 64.3 184.5 64.1 C 184.9 63.8 185.1 63.5 185.4 62.9 C 185.35 62.91 185.6 62.2 185.6 62.2 L 179.4 44.2 L 184.5 44.2 L 188.1 57 L 188.3 57 L 191.9 44.2 L 197 44.2 C 197 44.2 190.25 63.56 190.3 63.6 C 189.9 64.5 189.5 65.3 188.9 66 C 188.4 66.7 187.7 67.3 186.8 67.6 C 186 68 184.9 68.2 183.8 68.2 Z " stroke="none" fill="#10283d"/>  </g>  <g id="Polygon123098">    <path d="M 2 23.3 L 2 0 C 2 0 11.2 0 11.2 0 C 13 0 14.5 0.3 15.7 1 C 17 1.7 17.9 2.6 18.6 3.8 C 19.2 5 19.5 6.3 19.5 7.9 C 19.5 9.4 19.2 10.8 18.5 12 C 17.9 13.2 16.9 14.1 15.7 14.7 C 14.4 15.4 12.9 15.7 11.1 15.7 C 11.08 15.73 5.2 15.7 5.2 15.7 L 5.2 11.8 C 5.2 11.8 10.28 11.78 10.3 11.8 C 11.2 11.8 12 11.6 12.6 11.3 C 13.2 11 13.7 10.5 14 9.9 C 14.3 9.3 14.5 8.7 14.5 7.9 C 14.5 7.1 14.3 6.4 14 5.9 C 13.7 5.3 13.2 4.8 12.6 4.5 C 12 4.2 11.2 4 10.3 4 C 10.26 4.02 6.9 4 6.9 4 L 6.9 23.3 L 2 23.3 Z M 22.3 23.3 L 22.3 5.8 L 27 5.8 L 27 8.9 C 27 8.9 27.18 8.86 27.2 8.9 C 27.5 7.8 28 7 28.8 6.4 C 29.5 5.8 30.4 5.6 31.4 5.6 C 31.6 5.6 31.9 5.6 32.2 5.6 C 32.4 5.6 32.7 5.7 32.9 5.7 C 32.9 5.7 32.9 10 32.9 10 C 32.7 10 32.3 9.9 31.9 9.9 C 31.5 9.8 31.2 9.8 30.8 9.8 C 30.1 9.8 29.5 9.9 28.9 10.2 C 28.4 10.5 27.9 11 27.6 11.5 C 27.3 12.1 27.1 12.7 27.1 13.4 C 27.14 13.4 27.1 23.3 27.1 23.3 L 22.3 23.3 Z M 43 23.6 C 41.3 23.6 39.7 23.2 38.4 22.5 C 37.2 21.7 36.2 20.7 35.5 19.3 C 34.8 18 34.4 16.4 34.4 14.6 C 34.4 12.8 34.8 11.2 35.5 9.9 C 36.2 8.5 37.2 7.5 38.4 6.7 C 39.7 6 41.3 5.6 43 5.6 C 44.8 5.6 46.3 6 47.6 6.7 C 48.9 7.5 49.9 8.5 50.6 9.9 C 51.3 11.2 51.6 12.8 51.6 14.6 C 51.6 16.4 51.3 18 50.6 19.3 C 49.9 20.7 48.9 21.7 47.6 22.5 C 46.3 23.2 44.8 23.6 43 23.6 Z M 43 19.9 C 43.8 19.9 44.5 19.6 45.1 19.2 C 45.6 18.7 46 18.1 46.3 17.3 C 46.6 16.5 46.7 15.6 46.7 14.6 C 46.7 13.6 46.6 12.7 46.3 11.9 C 46 11.1 45.6 10.4 45.1 10 C 44.5 9.5 43.8 9.3 43 9.3 C 42.2 9.3 41.6 9.5 41 10 C 40.5 10.4 40 11.1 39.8 11.9 C 39.5 12.7 39.3 13.6 39.3 14.6 C 39.3 15.6 39.5 16.5 39.8 17.3 C 40 18.1 40.5 18.7 41 19.2 C 41.6 19.6 42.2 19.9 43 19.9 Z M 54.7 23.3 L 54.7 5.8 L 59.3 5.8 L 59.3 8.9 C 59.3 8.9 59.5 8.9 59.5 8.9 C 59.9 7.9 60.5 7.1 61.3 6.5 C 62.2 5.9 63.2 5.6 64.4 5.6 C 65.6 5.6 66.6 5.9 67.4 6.5 C 68.3 7.1 68.8 7.9 69.1 8.9 C 69.1 8.9 69.3 8.9 69.3 8.9 C 69.6 7.9 70.3 7.1 71.2 6.5 C 72.2 5.9 73.3 5.6 74.5 5.6 C 76.2 5.6 77.5 6.1 78.5 7.1 C 79.5 8.2 80 9.6 80 11.5 C 80.05 11.53 80 23.3 80 23.3 L 75.2 23.3 C 75.2 23.3 75.22 12.49 75.2 12.5 C 75.2 11.5 75 10.8 74.4 10.3 C 73.9 9.8 73.3 9.6 72.5 9.6 C 71.6 9.6 70.9 9.9 70.5 10.4 C 70 11 69.7 11.7 69.7 12.6 C 69.72 12.61 69.7 23.3 69.7 23.3 L 65 23.3 C 65 23.3 65.02 12.39 65 12.4 C 65 11.5 64.8 10.8 64.3 10.3 C 63.8 9.8 63.2 9.6 62.4 9.6 C 61.8 9.6 61.3 9.7 60.9 10 C 60.5 10.3 60.1 10.6 59.9 11.1 C 59.6 11.6 59.5 12.2 59.5 12.8 C 59.52 12.8 59.5 23.3 59.5 23.3 L 54.7 23.3 Z M 83.8 23.3 L 83.8 5.8 L 88.7 5.8 L 88.7 23.3 L 83.8 23.3 Z M 86.3 3.6 C 85.6 3.6 84.9 3.3 84.4 2.9 C 83.9 2.4 83.7 1.8 83.7 1.1 C 83.7 0.5 83.9 -0.1 84.4 -0.6 C 84.9 -1.1 85.6 -1.3 86.3 -1.3 C 87 -1.3 87.6 -1.1 88.1 -0.6 C 88.6 -0.1 88.9 0.4 88.9 1.1 C 88.9 1.8 88.6 2.4 88.1 2.8 C 87.6 3.3 87 3.6 86.3 3.6 Z M 106.9 10.8 C 106.9 10.8 102.5 11.1 102.5 11.1 C 102.4 10.7 102.3 10.3 102 10 C 101.8 9.7 101.4 9.5 101 9.3 C 100.6 9.1 100.1 9 99.6 9 C 98.8 9 98.2 9.2 97.7 9.5 C 97.2 9.8 96.9 10.2 96.9 10.8 C 96.9 11.2 97.1 11.5 97.4 11.8 C 97.7 12.1 98.3 12.3 99.1 12.5 C 99.1 12.5 102.3 13.1 102.3 13.1 C 104 13.5 105.3 14 106.1 14.8 C 106.9 15.6 107.3 16.6 107.3 17.9 C 107.3 19 107 20 106.3 20.9 C 105.7 21.7 104.7 22.4 103.6 22.9 C 102.4 23.4 101.1 23.6 99.6 23.6 C 97.3 23.6 95.4 23.1 94 22.2 C 92.7 21.2 91.9 19.9 91.6 18.2 C 91.6 18.2 96.4 18 96.4 18 C 96.5 18.7 96.9 19.2 97.4 19.6 C 98 19.9 98.7 20.1 99.6 20.1 C 100.4 20.1 101.1 20 101.6 19.6 C 102.1 19.3 102.4 18.9 102.4 18.4 C 102.4 17.9 102.2 17.6 101.9 17.3 C 101.5 17 100.9 16.8 100.2 16.6 C 100.2 16.6 97.2 16 97.2 16 C 95.4 15.7 94.2 15.1 93.4 14.2 C 92.5 13.4 92.1 12.3 92.1 11 C 92.1 9.9 92.4 8.9 93 8.1 C 93.6 7.3 94.5 6.7 95.6 6.3 C 96.7 5.8 98 5.6 99.5 5.6 C 101.7 5.6 103.4 6.1 104.7 7 C 106 7.9 106.7 9.2 106.9 10.8 Z M 118.1 23.6 C 116.3 23.6 114.8 23.2 113.5 22.5 C 112.2 21.8 111.2 20.7 110.5 19.4 C 109.8 18.1 109.5 16.5 109.5 14.6 C 109.5 12.8 109.8 11.3 110.5 9.9 C 111.2 8.5 112.2 7.5 113.5 6.7 C 114.7 6 116.2 5.6 117.9 5.6 C 119.1 5.6 120.1 5.8 121.1 6.1 C 122.1 6.5 123 7.1 123.8 7.8 C 124.5 8.5 125.1 9.5 125.5 10.6 C 125.9 11.7 126.1 13 126.1 14.5 C 126.13 14.45 126.1 15.8 126.1 15.8 L 111.4 15.8 L 111.4 12.8 C 111.4 12.8 121.57 12.78 121.6 12.8 C 121.6 12.1 121.4 11.5 121.1 10.9 C 120.8 10.4 120.4 10 119.9 9.7 C 119.3 9.4 118.7 9.2 118 9.2 C 117.3 9.2 116.6 9.4 116.1 9.7 C 115.5 10 115 10.5 114.7 11.1 C 114.4 11.6 114.2 12.3 114.2 12.9 C 114.2 12.9 114.2 15.8 114.2 15.8 C 114.2 16.7 114.4 17.4 114.7 18 C 115 18.7 115.5 19.1 116.1 19.5 C 116.7 19.8 117.4 20 118.2 20 C 118.7 20 119.2 19.9 119.7 19.8 C 120.1 19.6 120.5 19.4 120.8 19.1 C 121.1 18.8 121.4 18.4 121.5 18 C 121.5 18 126 18.3 126 18.3 C 125.8 19.3 125.3 20.3 124.6 21.1 C 123.9 21.9 123 22.5 121.9 22.9 C 120.8 23.4 119.6 23.6 118.1 23.6 Z M 153 5.8 L 146.9 23.3 L 141.4 23.3 L 135.3 5.8 L 140.4 5.8 L 144.1 18.3 L 144.2 18.3 L 147.9 5.8 L 153 5.8 Z M 169.3 10.8 C 169.3 10.8 164.9 11.1 164.9 11.1 C 164.8 10.7 164.6 10.3 164.4 10 C 164.1 9.7 163.8 9.5 163.4 9.3 C 163 9.1 162.5 9 161.9 9 C 161.2 9 160.5 9.2 160 9.5 C 159.5 9.8 159.3 10.2 159.3 10.8 C 159.3 11.2 159.4 11.5 159.8 11.8 C 160.1 12.1 160.7 12.3 161.5 12.5 C 161.5 12.5 164.6 13.1 164.6 13.1 C 166.3 13.5 167.6 14 168.4 14.8 C 169.3 15.6 169.7 16.6 169.7 17.9 C 169.7 19 169.3 20 168.7 20.9 C 168 21.7 167.1 22.4 165.9 22.9 C 164.8 23.4 163.4 23.6 161.9 23.6 C 159.6 23.6 157.8 23.1 156.4 22.2 C 155 21.2 154.2 19.9 154 18.2 C 154 18.2 158.7 18 158.7 18 C 158.9 18.7 159.2 19.2 159.8 19.6 C 160.3 19.9 161.1 20.1 161.9 20.1 C 162.8 20.1 163.5 20 164 19.6 C 164.5 19.3 164.8 18.9 164.8 18.4 C 164.8 17.9 164.6 17.6 164.2 17.3 C 163.8 17 163.3 16.8 162.5 16.6 C 162.5 16.6 159.5 16 159.5 16 C 157.8 15.7 156.5 15.1 155.7 14.2 C 154.9 13.4 154.5 12.3 154.5 11 C 154.5 9.9 154.8 8.9 155.4 8.1 C 156 7.3 156.8 6.7 157.9 6.3 C 159.1 5.8 160.4 5.6 161.9 5.6 C 164.1 5.6 165.8 6.1 167.1 7 C 168.3 7.9 169.1 9.2 169.3 10.8 Z M 175.4 23.6 C 174.7 23.6 174 23.3 173.5 22.8 C 173 22.2 172.7 21.6 172.7 20.8 C 172.7 20.1 173 19.5 173.5 18.9 C 174 18.4 174.7 18.1 175.4 18.1 C 176.1 18.1 176.8 18.4 177.3 18.9 C 177.9 19.5 178.1 20.1 178.1 20.8 C 178.1 21.3 178 21.8 177.8 22.2 C 177.5 22.6 177.2 23 176.8 23.2 C 176.4 23.4 175.9 23.6 175.4 23.6 Z " stroke="none" fill="#10283d"/>  </g></svg>