<?xml version="1.0" standalone="no"?><!DOCTYPE svg PUBLIC "-//W3C//DTD SVG 1.1//EN" "http://www.w3.org/Graphics/SVG/1.1/DTD/svg11.dtd"><svg xmlns="http://www.w3.org/2000/svg" version="1.1" width="61px" height="18.4px" viewBox="0 -5 61 18.4" style="top:-5px">  <desc>7 / 19</desc>  <defs/>  <g id="Polygon117526">    <path d="M 18.5 7.3 L 21.8 0.8 L 21.8 0.8 L 18 0.8 L 18 0 L 22.7 0 L 22.7 0.8 L 19.4 7.3 L 18.5 7.3 Z M 29.4 -0.3 L 27.1 8.4 L 26.3 8.4 L 28.6 -0.3 L 29.4 -0.3 Z M 35.8 0 L 35.8 7.3 L 34.9 7.3 L 34.9 0.9 L 34.8 0.9 L 33.1 2.1 L 33.1 1.2 L 34.9 0 L 35.8 0 Z M 40.1 -0.1 C 40.4 -0.1 40.7 0 41 0.1 C 41.3 0.2 41.5 0.4 41.8 0.6 C 42 0.9 42.2 1.2 42.4 1.7 C 42.5 2.1 42.6 2.7 42.6 3.3 C 42.6 4 42.5 4.6 42.4 5.1 C 42.3 5.6 42.1 6 41.9 6.3 C 41.7 6.7 41.4 6.9 41.1 7.1 C 40.7 7.3 40.4 7.4 40 7.4 C 39.5 7.4 39.2 7.3 38.9 7.1 C 38.5 7 38.3 6.7 38.1 6.5 C 37.9 6.2 37.7 5.8 37.7 5.4 C 37.7 5.4 38.6 5.4 38.6 5.4 C 38.6 5.8 38.8 6 39 6.3 C 39.3 6.5 39.6 6.6 40 6.6 C 40.5 6.6 41 6.3 41.3 5.9 C 41.6 5.4 41.8 4.7 41.8 3.8 C 41.8 3.8 41.7 3.8 41.7 3.8 C 41.6 4 41.4 4.1 41.2 4.3 C 41.1 4.4 40.9 4.5 40.6 4.6 C 40.4 4.7 40.2 4.7 39.9 4.7 C 39.5 4.7 39.1 4.6 38.8 4.4 C 38.4 4.2 38.2 3.9 37.9 3.6 C 37.7 3.2 37.6 2.8 37.6 2.3 C 37.6 1.9 37.7 1.5 37.9 1.1 C 38.1 0.7 38.4 0.4 38.8 0.2 C 39.1 0 39.6 -0.1 40.1 -0.1 Z M 40.1 0.7 C 39.8 0.7 39.5 0.8 39.3 0.9 C 39 1.1 38.8 1.3 38.7 1.5 C 38.6 1.8 38.5 2 38.5 2.3 C 38.5 2.6 38.6 2.9 38.7 3.2 C 38.8 3.4 39 3.6 39.2 3.7 C 39.5 3.9 39.7 4 40 4 C 40.3 4 40.5 3.9 40.7 3.8 C 40.9 3.7 41 3.6 41.2 3.5 C 41.3 3.3 41.4 3.1 41.5 2.9 C 41.6 2.7 41.6 2.5 41.6 2.3 C 41.6 2 41.6 1.8 41.4 1.5 C 41.3 1.3 41.1 1.1 40.9 0.9 C 40.6 0.8 40.4 0.7 40.1 0.7 Z " stroke="none" fill="#10283d"/>  </g></svg>