<?xml version="1.0" standalone="no"?><!DOCTYPE svg PUBLIC "-//W3C//DTD SVG 1.1//EN" "http://www.w3.org/Graphics/SVG/1.1/DTD/svg11.dtd"><svg xmlns="http://www.w3.org/2000/svg" version="1.1" width="196px" height="54.7px" viewBox="0 -13 196 54.7" style="top:-13px">  <desc>Choose next</desc>  <defs/>  <g id="Polygon120989">    <path d="M 22.6 8.1 C 22.6 8.1 17.6 8.1 17.6 8.1 C 17.5 7.5 17.3 6.9 17 6.4 C 16.7 5.9 16.4 5.5 15.9 5.1 C 15.5 4.8 15 4.5 14.4 4.3 C 13.9 4.1 13.2 4 12.6 4 C 11.4 4 10.3 4.3 9.4 4.9 C 8.5 5.5 7.8 6.4 7.3 7.5 C 6.8 8.6 6.6 10 6.6 11.6 C 6.6 13.3 6.9 14.7 7.3 15.8 C 7.8 16.9 8.5 17.8 9.4 18.4 C 10.3 19 11.4 19.2 12.5 19.2 C 13.2 19.2 13.8 19.2 14.4 19 C 14.9 18.8 15.4 18.5 15.9 18.2 C 16.3 17.9 16.7 17.5 17 17 C 17.3 16.5 17.5 15.9 17.6 15.3 C 17.6 15.3 22.6 15.3 22.6 15.3 C 22.4 16.4 22.1 17.4 21.6 18.4 C 21.1 19.4 20.4 20.3 19.5 21.1 C 18.7 21.9 17.7 22.5 16.5 22.9 C 15.3 23.4 13.9 23.6 12.5 23.6 C 10.4 23.6 8.5 23.1 6.9 22.2 C 5.3 21.2 4 19.9 3 18.1 C 2.1 16.3 1.6 14.2 1.6 11.6 C 1.6 9.1 2.1 6.9 3 5.2 C 4 3.4 5.3 2 6.9 1.1 C 8.6 0.1 10.4 -0.3 12.5 -0.3 C 13.8 -0.3 15.1 -0.1 16.2 0.3 C 17.4 0.6 18.4 1.2 19.3 1.9 C 20.2 2.6 20.9 3.5 21.5 4.6 C 22 5.6 22.4 6.8 22.6 8.1 Z M 30.7 13.2 C 30.75 13.18 30.7 23.3 30.7 23.3 L 25.9 23.3 L 25.9 0 L 30.6 0 L 30.6 8.9 C 30.6 8.9 30.82 8.9 30.8 8.9 C 31.2 7.9 31.8 7.1 32.7 6.5 C 33.6 5.9 34.7 5.6 36 5.6 C 37.2 5.6 38.3 5.9 39.2 6.4 C 40.1 6.9 40.8 7.7 41.3 8.6 C 41.8 9.6 42.1 10.8 42.1 12.2 C 42.07 12.16 42.1 23.3 42.1 23.3 L 37.2 23.3 C 37.2 23.3 37.23 13.02 37.2 13 C 37.2 11.9 37 11.1 36.4 10.5 C 35.9 9.9 35.1 9.6 34.1 9.6 C 33.5 9.6 32.9 9.8 32.4 10 C 31.9 10.3 31.5 10.7 31.2 11.3 C 30.9 11.8 30.8 12.4 30.7 13.2 Z M 53.6 23.6 C 51.9 23.6 50.4 23.2 49.1 22.5 C 47.8 21.7 46.8 20.7 46.1 19.3 C 45.4 18 45.1 16.4 45.1 14.6 C 45.1 12.8 45.4 11.2 46.1 9.9 C 46.8 8.5 47.8 7.5 49.1 6.7 C 50.4 6 51.9 5.6 53.6 5.6 C 55.4 5.6 56.9 6 58.2 6.7 C 59.5 7.5 60.5 8.5 61.2 9.9 C 61.9 11.2 62.2 12.8 62.2 14.6 C 62.2 16.4 61.9 18 61.2 19.3 C 60.5 20.7 59.5 21.7 58.2 22.5 C 56.9 23.2 55.4 23.6 53.6 23.6 Z M 53.7 19.9 C 54.5 19.9 55.1 19.6 55.7 19.2 C 56.2 18.7 56.6 18.1 56.9 17.3 C 57.2 16.5 57.3 15.6 57.3 14.6 C 57.3 13.6 57.2 12.7 56.9 11.9 C 56.6 11.1 56.2 10.4 55.7 10 C 55.1 9.5 54.5 9.3 53.7 9.3 C 52.9 9.3 52.2 9.5 51.6 10 C 51.1 10.4 50.7 11.1 50.4 11.9 C 50.1 12.7 50 13.6 50 14.6 C 50 15.6 50.1 16.5 50.4 17.3 C 50.7 18.1 51.1 18.7 51.6 19.2 C 52.2 19.6 52.9 19.9 53.7 19.9 Z M 73.1 23.6 C 71.3 23.6 69.8 23.2 68.5 22.5 C 67.2 21.7 66.2 20.7 65.5 19.3 C 64.8 18 64.5 16.4 64.5 14.6 C 64.5 12.8 64.8 11.2 65.5 9.9 C 66.2 8.5 67.2 7.5 68.5 6.7 C 69.8 6 71.3 5.6 73.1 5.6 C 74.9 5.6 76.4 6 77.7 6.7 C 78.9 7.5 79.9 8.5 80.6 9.9 C 81.3 11.2 81.7 12.8 81.7 14.6 C 81.7 16.4 81.3 18 80.6 19.3 C 79.9 20.7 78.9 21.7 77.7 22.5 C 76.4 23.2 74.9 23.6 73.1 23.6 Z M 73.1 19.9 C 73.9 19.9 74.6 19.6 75.1 19.2 C 75.7 18.7 76.1 18.1 76.3 17.3 C 76.6 16.5 76.8 15.6 76.8 14.6 C 76.8 13.6 76.6 12.7 76.3 11.9 C 76.1 11.1 75.7 10.4 75.1 10 C 74.6 9.5 73.9 9.3 73.1 9.3 C 72.3 9.3 71.6 9.5 71.1 10 C 70.5 10.4 70.1 11.1 69.8 11.9 C 69.6 12.7 69.4 13.6 69.4 14.6 C 69.4 15.6 69.6 16.5 69.8 17.3 C 70.1 18.1 70.5 18.7 71.1 19.2 C 71.6 19.6 72.3 19.9 73.1 19.9 Z M 99 10.8 C 99 10.8 94.6 11.1 94.6 11.1 C 94.5 10.7 94.4 10.3 94.1 10 C 93.9 9.7 93.5 9.5 93.1 9.3 C 92.7 9.1 92.2 9 91.7 9 C 90.9 9 90.3 9.2 89.8 9.5 C 89.3 9.8 89 10.2 89 10.8 C 89 11.2 89.2 11.5 89.5 11.8 C 89.8 12.1 90.4 12.3 91.2 12.5 C 91.2 12.5 94.4 13.1 94.4 13.1 C 96.1 13.5 97.3 14 98.2 14.8 C 99 15.6 99.4 16.6 99.4 17.9 C 99.4 19 99.1 20 98.4 20.9 C 97.8 21.7 96.8 22.4 95.7 22.9 C 94.5 23.4 93.2 23.6 91.7 23.6 C 89.3 23.6 87.5 23.1 86.1 22.2 C 84.8 21.2 84 19.9 83.7 18.2 C 83.7 18.2 88.5 18 88.5 18 C 88.6 18.7 89 19.2 89.5 19.6 C 90.1 19.9 90.8 20.1 91.7 20.1 C 92.5 20.1 93.2 20 93.7 19.6 C 94.2 19.3 94.5 18.9 94.5 18.4 C 94.5 17.9 94.3 17.6 94 17.3 C 93.6 17 93 16.8 92.3 16.6 C 92.3 16.6 89.2 16 89.2 16 C 87.5 15.7 86.3 15.1 85.4 14.2 C 84.6 13.4 84.2 12.3 84.2 11 C 84.2 9.9 84.5 8.9 85.1 8.1 C 85.7 7.3 86.6 6.7 87.7 6.3 C 88.8 5.8 90.1 5.6 91.6 5.6 C 93.8 5.6 95.5 6.1 96.8 7 C 98.1 7.9 98.8 9.2 99 10.8 Z M 110.2 23.6 C 108.4 23.6 106.9 23.2 105.6 22.5 C 104.3 21.8 103.3 20.7 102.6 19.4 C 101.9 18.1 101.6 16.5 101.6 14.6 C 101.6 12.8 101.9 11.3 102.6 9.9 C 103.3 8.5 104.3 7.5 105.5 6.7 C 106.8 6 108.3 5.6 110 5.6 C 111.2 5.6 112.2 5.8 113.2 6.1 C 114.2 6.5 115.1 7.1 115.9 7.8 C 116.6 8.5 117.2 9.5 117.6 10.6 C 118 11.7 118.2 13 118.2 14.5 C 118.22 14.45 118.2 15.8 118.2 15.8 L 103.5 15.8 L 103.5 12.8 C 103.5 12.8 113.67 12.78 113.7 12.8 C 113.7 12.1 113.5 11.5 113.2 10.9 C 112.9 10.4 112.5 10 112 9.7 C 111.4 9.4 110.8 9.2 110.1 9.2 C 109.4 9.2 108.7 9.4 108.1 9.7 C 107.6 10 107.1 10.5 106.8 11.1 C 106.5 11.6 106.3 12.3 106.3 12.9 C 106.3 12.9 106.3 15.8 106.3 15.8 C 106.3 16.7 106.5 17.4 106.8 18 C 107.1 18.7 107.6 19.1 108.2 19.5 C 108.8 19.8 109.5 20 110.3 20 C 110.8 20 111.3 19.9 111.8 19.8 C 112.2 19.6 112.6 19.4 112.9 19.1 C 113.2 18.8 113.5 18.4 113.6 18 C 113.6 18 118.1 18.3 118.1 18.3 C 117.9 19.3 117.4 20.3 116.7 21.1 C 116 21.9 115.1 22.5 114 22.9 C 112.9 23.4 111.7 23.6 110.2 23.6 Z M 133.6 13.2 C 133.64 13.18 133.6 23.3 133.6 23.3 L 128.8 23.3 L 128.8 5.8 L 133.4 5.8 L 133.4 8.9 C 133.4 8.9 133.62 8.9 133.6 8.9 C 134 7.9 134.7 7.1 135.6 6.5 C 136.5 5.9 137.6 5.6 138.9 5.6 C 140.1 5.6 141.1 5.9 142 6.4 C 142.9 6.9 143.6 7.7 144.1 8.7 C 144.6 9.6 144.9 10.8 144.9 12.2 C 144.89 12.16 144.9 23.3 144.9 23.3 L 140.1 23.3 C 140.1 23.3 140.05 13.02 140.1 13 C 140.1 12 139.8 11.1 139.2 10.5 C 138.7 9.9 137.9 9.6 136.9 9.6 C 136.3 9.6 135.7 9.8 135.2 10 C 134.7 10.3 134.3 10.7 134.1 11.3 C 133.8 11.8 133.7 12.4 133.6 13.2 Z M 156.5 23.6 C 154.7 23.6 153.2 23.2 151.9 22.5 C 150.6 21.8 149.6 20.7 148.9 19.4 C 148.2 18.1 147.9 16.5 147.9 14.6 C 147.9 12.8 148.2 11.3 148.9 9.9 C 149.6 8.5 150.6 7.5 151.9 6.7 C 153.1 6 154.6 5.6 156.3 5.6 C 157.5 5.6 158.6 5.8 159.6 6.1 C 160.6 6.5 161.4 7.1 162.2 7.8 C 162.9 8.5 163.5 9.5 163.9 10.6 C 164.3 11.7 164.6 13 164.6 14.5 C 164.55 14.45 164.6 15.8 164.6 15.8 L 149.8 15.8 L 149.8 12.8 C 149.8 12.8 160 12.78 160 12.8 C 160 12.1 159.8 11.5 159.5 10.9 C 159.2 10.4 158.8 10 158.3 9.7 C 157.8 9.4 157.1 9.2 156.4 9.2 C 155.7 9.2 155 9.4 154.5 9.7 C 153.9 10 153.5 10.5 153.2 11.1 C 152.8 11.6 152.7 12.3 152.7 12.9 C 152.7 12.9 152.7 15.8 152.7 15.8 C 152.7 16.7 152.8 17.4 153.2 18 C 153.5 18.7 153.9 19.1 154.5 19.5 C 155.1 19.8 155.8 20 156.6 20 C 157.2 20 157.7 19.9 158.1 19.8 C 158.5 19.6 158.9 19.4 159.2 19.1 C 159.6 18.8 159.8 18.4 160 18 C 160 18 164.5 18.3 164.5 18.3 C 164.2 19.3 163.8 20.3 163.1 21.1 C 162.4 21.9 161.5 22.5 160.4 22.9 C 159.3 23.4 158 23.6 156.5 23.6 Z M 170.9 5.8 L 174.1 11.9 L 177.4 5.8 L 182.4 5.8 L 177.3 14.5 L 182.5 23.3 L 177.6 23.3 L 174.1 17.2 L 170.8 23.3 L 165.8 23.3 L 170.9 14.5 L 165.9 5.8 L 170.9 5.8 Z M 194.8 5.8 L 194.8 9.5 L 184.2 9.5 L 184.2 5.8 L 194.8 5.8 Z M 186.6 1.6 L 191.5 1.6 C 191.5 1.6 191.47 17.91 191.5 17.9 C 191.5 18.4 191.5 18.7 191.7 18.9 C 191.8 19.2 192 19.4 192.3 19.5 C 192.5 19.6 192.8 19.6 193.1 19.6 C 193.3 19.6 193.6 19.6 193.8 19.6 C 194 19.5 194.2 19.5 194.3 19.5 C 194.3 19.5 195.1 23.1 195.1 23.1 C 194.8 23.1 194.5 23.2 194.1 23.3 C 193.6 23.4 193.1 23.5 192.5 23.5 C 191.3 23.6 190.3 23.4 189.4 23 C 188.5 22.7 187.8 22.1 187.3 21.4 C 186.9 20.6 186.6 19.7 186.6 18.5 C 186.63 18.55 186.6 1.6 186.6 1.6 Z " stroke="none" fill="#ffffff"/>  </g></svg>