<?xml version="1.0" standalone="no"?><!DOCTYPE svg PUBLIC "-//W3C//DTD SVG 1.1//EN" "http://www.w3.org/Graphics/SVG/1.1/DTD/svg11.dtd"><svg xmlns="http://www.w3.org/2000/svg" version="1.1" width="261px" height="194px" viewBox="0 -5 261 194" style="top:-5px">  <desc>“ AI automatically incorporates data and information from across the company.”</desc>  <defs/>  <g id="Polygon117464">    <path d="M 17.8 172.2 C 16.4 172.2 15.1 171.9 14 171.2 C 13 170.5 12.1 169.5 11.6 168.3 C 11 167.1 10.7 165.7 10.7 164.1 C 10.7 162.5 11 161.1 11.6 159.9 C 12.2 158.7 13 157.7 14.1 157 C 15.1 156.3 16.4 156 17.8 156 C 18.9 156 19.9 156.2 20.8 156.6 C 21.7 157 22.4 157.6 23 158.3 C 23.5 159.1 23.9 159.9 24 160.9 C 24 160.9 21.6 160.9 21.6 160.9 C 21.4 160.2 21 159.5 20.4 159 C 19.7 158.4 18.9 158.2 17.8 158.2 C 16.9 158.2 16.1 158.4 15.4 158.9 C 14.7 159.4 14.1 160.1 13.7 160.9 C 13.3 161.8 13.1 162.9 13.1 164 C 13.1 165.3 13.3 166.3 13.7 167.2 C 14.1 168.1 14.6 168.8 15.3 169.3 C 16 169.8 16.9 170.1 17.8 170.1 C 18.5 170.1 19 170 19.5 169.7 C 20.1 169.5 20.5 169.2 20.8 168.8 C 21.2 168.4 21.4 167.9 21.6 167.3 C 21.6 167.3 24 167.3 24 167.3 C 23.9 168.2 23.5 169.1 23 169.8 C 22.5 170.6 21.8 171.1 20.9 171.6 C 20 172 19 172.2 17.8 172.2 Z M 33.6 172.2 C 32.2 172.2 31 171.9 29.9 171.2 C 28.8 170.5 28 169.6 27.4 168.4 C 26.8 167.2 26.5 165.8 26.5 164.1 C 26.5 162.5 26.8 161.1 27.4 159.8 C 28 158.6 28.8 157.7 29.9 157 C 31 156.3 32.2 156 33.6 156 C 35.1 156 36.3 156.3 37.4 157 C 38.4 157.7 39.3 158.6 39.9 159.8 C 40.5 161.1 40.8 162.5 40.8 164.1 C 40.8 165.8 40.5 167.2 39.9 168.4 C 39.3 169.6 38.4 170.5 37.4 171.2 C 36.3 171.9 35.1 172.2 33.6 172.2 Z M 33.6 170.1 C 34.7 170.1 35.6 169.8 36.3 169.2 C 37 168.7 37.5 168 37.8 167.1 C 38.2 166.2 38.3 165.2 38.3 164.1 C 38.3 163.1 38.2 162.1 37.8 161.2 C 37.5 160.3 37 159.6 36.3 159 C 35.6 158.4 34.7 158.2 33.6 158.2 C 32.6 158.2 31.7 158.4 31 159 C 30.3 159.6 29.8 160.3 29.4 161.2 C 29.1 162.1 28.9 163.1 28.9 164.1 C 28.9 165.2 29.1 166.2 29.4 167.1 C 29.8 168 30.3 168.7 31 169.2 C 31.7 169.8 32.6 170.1 33.6 170.1 Z M 44.3 171.9 L 44.3 156.2 L 46.6 156.2 L 46.6 158.6 C 46.6 158.6 46.83 158.65 46.8 158.6 C 47.2 157.8 47.7 157.2 48.4 156.7 C 49.1 156.2 50 156 51 156 C 52.1 156 52.9 156.2 53.6 156.7 C 54.3 157.2 54.9 157.8 55.3 158.6 C 55.3 158.6 55.4 158.6 55.4 158.6 C 55.8 157.8 56.4 157.2 57.2 156.7 C 58 156.2 59 156 60.1 156 C 61.5 156 62.7 156.4 63.6 157.3 C 64.5 158.2 64.9 159.5 64.9 161.4 C 64.91 161.39 64.9 171.9 64.9 171.9 L 62.5 171.9 C 62.5 171.9 62.5 161.39 62.5 161.4 C 62.5 160.2 62.2 159.4 61.5 158.9 C 60.9 158.4 60.2 158.2 59.3 158.2 C 58.2 158.2 57.3 158.5 56.7 159.2 C 56.1 159.8 55.8 160.7 55.8 161.7 C 55.83 161.67 55.8 171.9 55.8 171.9 L 53.4 171.9 C 53.4 171.9 53.38 161.14 53.4 161.1 C 53.4 160.2 53.1 159.5 52.5 159 C 51.9 158.4 51.2 158.2 50.3 158.2 C 49.6 158.2 49.1 158.3 48.5 158.7 C 48 159 47.5 159.5 47.2 160 C 46.9 160.6 46.7 161.3 46.7 162.1 C 46.71 162.08 46.7 171.9 46.7 171.9 L 44.3 171.9 Z M 69.2 177.8 L 69.2 156.2 L 71.5 156.2 L 71.5 158.7 C 71.5 158.7 71.78 158.69 71.8 158.7 C 72 158.4 72.2 158.1 72.5 157.6 C 72.8 157.2 73.3 156.8 73.9 156.5 C 74.5 156.2 75.3 156 76.3 156 C 77.6 156 78.8 156.3 79.8 157 C 80.8 157.6 81.6 158.6 82.2 159.8 C 82.7 161 83 162.4 83 164.1 C 83 165.8 82.7 167.2 82.2 168.4 C 81.6 169.6 80.8 170.6 79.8 171.2 C 78.8 171.9 77.7 172.2 76.4 172.2 C 75.4 172.2 74.5 172.1 73.9 171.7 C 73.3 171.4 72.9 171 72.5 170.6 C 72.2 170.1 72 169.8 71.8 169.5 C 71.78 169.49 71.6 169.5 71.6 169.5 L 71.6 177.8 L 69.2 177.8 Z M 71.5 164 C 71.5 165.2 71.7 166.3 72.1 167.2 C 72.4 168.1 72.9 168.8 73.6 169.3 C 74.2 169.8 75.1 170.1 76 170.1 C 77 170.1 77.9 169.8 78.6 169.3 C 79.2 168.7 79.8 168 80.1 167.1 C 80.4 166.2 80.6 165.2 80.6 164 C 80.6 162.9 80.4 161.9 80.1 161.1 C 79.8 160.2 79.3 159.5 78.6 158.9 C 77.9 158.4 77.1 158.2 76 158.2 C 75.1 158.2 74.2 158.4 73.6 158.9 C 72.9 159.4 72.4 160.1 72 161 C 71.7 161.8 71.5 162.9 71.5 164 Z M 91.1 172.3 C 90.1 172.3 89.2 172.1 88.3 171.7 C 87.5 171.3 86.9 170.8 86.4 170.1 C 85.9 169.3 85.7 168.5 85.7 167.4 C 85.7 166.5 85.9 165.8 86.2 165.2 C 86.6 164.7 87.1 164.2 87.7 163.9 C 88.2 163.6 88.9 163.4 89.6 163.2 C 90.3 163 91.1 162.9 91.8 162.8 C 92.8 162.7 93.5 162.6 94.1 162.5 C 94.7 162.5 95.2 162.4 95.4 162.2 C 95.7 162 95.8 161.8 95.8 161.4 C 95.8 161.4 95.8 161.3 95.8 161.3 C 95.8 160.3 95.6 159.5 95 159 C 94.5 158.4 93.6 158.1 92.5 158.1 C 91.4 158.1 90.5 158.4 89.8 158.9 C 89.2 159.4 88.7 159.9 88.4 160.5 C 88.4 160.5 86.2 159.7 86.2 159.7 C 86.6 158.7 87.1 158 87.8 157.4 C 88.5 156.9 89.2 156.5 90 156.3 C 90.9 156.1 91.7 156 92.5 156 C 93 156 93.5 156 94.2 156.2 C 94.9 156.3 95.5 156.5 96.1 156.9 C 96.7 157.3 97.2 157.8 97.6 158.6 C 98.1 159.3 98.3 160.3 98.3 161.6 C 98.26 161.55 98.3 171.9 98.3 171.9 L 95.8 171.9 L 95.8 169.8 C 95.8 169.8 95.72 169.77 95.7 169.8 C 95.6 170.1 95.3 170.5 94.9 170.9 C 94.5 171.3 94 171.6 93.4 171.9 C 92.7 172.1 92 172.3 91.1 172.3 Z M 91.4 170.1 C 92.4 170.1 93.2 169.9 93.8 169.5 C 94.5 169.2 95 168.7 95.3 168.1 C 95.7 167.5 95.8 166.9 95.8 166.2 C 95.8 166.2 95.8 164 95.8 164 C 95.7 164.1 95.5 164.2 95.2 164.3 C 94.8 164.4 94.4 164.5 94 164.6 C 93.5 164.7 93.1 164.7 92.7 164.8 C 92.3 164.8 91.9 164.9 91.7 164.9 C 91 165 90.5 165.1 89.9 165.3 C 89.4 165.5 88.9 165.7 88.6 166.1 C 88.3 166.5 88.1 167 88.1 167.6 C 88.1 168.4 88.4 169 89 169.5 C 89.7 169.9 90.5 170.1 91.4 170.1 Z M 104.9 162.5 C 104.93 162.45 104.9 171.9 104.9 171.9 L 102.5 171.9 L 102.5 156.2 L 104.8 156.2 L 104.8 158.6 C 104.8 158.6 105.05 158.65 105.1 158.6 C 105.4 157.8 106 157.2 106.7 156.7 C 107.5 156.2 108.4 156 109.6 156 C 110.7 156 111.6 156.2 112.4 156.6 C 113.2 157.1 113.8 157.7 114.3 158.6 C 114.7 159.5 115 160.6 115 161.9 C 114.95 161.92 115 171.9 115 171.9 L 112.5 171.9 C 112.5 171.9 112.54 162.08 112.5 162.1 C 112.5 160.8 112.2 159.9 111.6 159.2 C 110.9 158.5 110.1 158.2 108.9 158.2 C 108.2 158.2 107.5 158.3 106.9 158.7 C 106.3 159 105.8 159.5 105.5 160.1 C 105.1 160.8 104.9 161.5 104.9 162.5 Z M 120 177.8 C 119.5 177.8 119.2 177.8 118.9 177.7 C 118.5 177.6 118.3 177.6 118.2 177.5 C 118.2 177.5 118.8 175.4 118.8 175.4 C 119.4 175.5 119.9 175.6 120.4 175.5 C 120.8 175.5 121.2 175.3 121.6 174.9 C 121.9 174.6 122.2 174 122.5 173.2 C 122.53 173.21 123 172 123 172 L 117.2 156.2 L 119.8 156.2 L 124.1 168.7 L 124.3 168.7 L 128.6 156.2 L 131.2 156.2 C 131.2 156.2 124.58 174.19 124.6 174.2 C 124.3 175 123.9 175.7 123.5 176.2 C 123 176.7 122.5 177.1 121.9 177.4 C 121.3 177.7 120.7 177.8 120 177.8 Z M 134.1 172.1 C 133.6 172.1 133.2 171.9 132.8 171.5 C 132.4 171.2 132.3 170.7 132.3 170.2 C 132.3 169.7 132.4 169.3 132.8 168.9 C 133.2 168.6 133.6 168.4 134.1 168.4 C 134.6 168.4 135 168.6 135.4 168.9 C 135.8 169.3 135.9 169.7 135.9 170.2 C 135.9 170.6 135.9 170.9 135.7 171.1 C 135.5 171.4 135.3 171.6 135 171.8 C 134.8 172 134.4 172.1 134.1 172.1 Z M 140.8 151 C 140.8 151 140.84 152.8 140.8 152.8 C 140.8 153.4 140.7 153.9 140.5 154.6 C 140.3 155.2 140 155.8 139.7 156.4 C 139.3 157 138.8 157.5 138.3 158 C 138.3 158 136.9 156.9 136.9 156.9 C 137.4 156.3 137.8 155.6 138.1 155 C 138.4 154.3 138.5 153.6 138.5 152.8 C 138.55 152.84 138.5 151 138.5 151 L 140.8 151 Z M 146.1 151 C 146.1 151 146.07 152.8 146.1 152.8 C 146.1 153.4 146 153.9 145.8 154.6 C 145.6 155.2 145.3 155.8 144.9 156.4 C 144.5 157 144 157.5 143.5 158 C 143.5 158 142.2 156.9 142.2 156.9 C 142.6 156.3 143 155.6 143.3 155 C 143.6 154.3 143.8 153.6 143.8 152.8 C 143.78 152.84 143.8 151 143.8 151 L 146.1 151 Z " stroke="none" fill="#ffffff"/>  </g>  <g id="Polygon117463">    <path d="M 18.4 120.2 L 18.4 122.2 L 10 122.2 L 10 120.2 L 18.4 120.2 Z M 12.5 135.9 C 12.5 135.9 12.51 118.02 12.5 118 C 12.5 117.1 12.7 116.4 13.1 115.8 C 13.6 115.2 14.1 114.7 14.8 114.4 C 15.5 114.1 16.2 114 16.9 114 C 17.5 114 18 114 18.4 114.1 C 18.8 114.2 19 114.3 19.2 114.4 C 19.2 114.4 18.5 116.5 18.5 116.5 C 18.4 116.4 18.2 116.4 18 116.3 C 17.8 116.3 17.5 116.2 17.2 116.2 C 16.4 116.2 15.8 116.4 15.5 116.8 C 15.1 117.2 14.9 117.8 14.9 118.6 C 14.93 118.6 14.9 135.9 14.9 135.9 L 12.5 135.9 Z M 21.4 135.9 L 21.4 120.2 L 23.8 120.2 L 23.8 122.6 C 23.8 122.6 23.94 122.56 23.9 122.6 C 24.2 121.8 24.7 121.2 25.5 120.7 C 26.2 120.2 27.1 119.9 28 119.9 C 28.2 119.9 28.4 119.9 28.7 120 C 29 120 29.2 120 29.3 120 C 29.3 120 29.3 122.4 29.3 122.4 C 29.2 122.4 29 122.4 28.7 122.3 C 28.4 122.3 28.1 122.3 27.8 122.3 C 27.1 122.3 26.4 122.4 25.8 122.8 C 25.2 123.1 24.7 123.5 24.4 124.1 C 24 124.6 23.9 125.3 23.9 126 C 23.85 125.96 23.9 135.9 23.9 135.9 L 21.4 135.9 Z M 38.1 136.2 C 36.6 136.2 35.4 135.9 34.3 135.2 C 33.3 134.5 32.4 133.6 31.8 132.4 C 31.2 131.2 30.9 129.8 30.9 128.1 C 30.9 126.5 31.2 125.1 31.8 123.8 C 32.4 122.6 33.3 121.7 34.3 121 C 35.4 120.3 36.6 120 38.1 120 C 39.5 120 40.7 120.3 41.8 121 C 42.9 121.7 43.7 122.6 44.3 123.8 C 44.9 125.1 45.2 126.5 45.2 128.1 C 45.2 129.8 44.9 131.2 44.3 132.4 C 43.7 133.6 42.9 134.5 41.8 135.2 C 40.7 135.9 39.5 136.2 38.1 136.2 Z M 38.1 134.1 C 39.1 134.1 40 133.8 40.7 133.2 C 41.4 132.7 41.9 132 42.3 131.1 C 42.6 130.2 42.8 129.2 42.8 128.1 C 42.8 127.1 42.6 126.1 42.3 125.2 C 41.9 124.3 41.4 123.6 40.7 123 C 40 122.4 39.1 122.2 38.1 122.2 C 37 122.2 36.1 122.4 35.4 123 C 34.7 123.6 34.2 124.3 33.9 125.2 C 33.5 126.1 33.4 127.1 33.4 128.1 C 33.4 129.2 33.5 130.2 33.9 131.1 C 34.2 132 34.7 132.7 35.4 133.2 C 36.1 133.8 37 134.1 38.1 134.1 Z M 48.7 135.9 L 48.7 120.2 L 51.1 120.2 L 51.1 122.6 C 51.1 122.6 51.25 122.65 51.3 122.6 C 51.6 121.8 52.1 121.2 52.8 120.7 C 53.6 120.2 54.4 120 55.5 120 C 56.5 120 57.4 120.2 58.1 120.7 C 58.8 121.2 59.3 121.8 59.7 122.6 C 59.7 122.6 59.8 122.6 59.8 122.6 C 60.2 121.8 60.9 121.2 61.7 120.7 C 62.5 120.2 63.4 120 64.6 120 C 66 120 67.1 120.4 68 121.3 C 68.9 122.2 69.3 123.5 69.3 125.4 C 69.34 125.39 69.3 135.9 69.3 135.9 L 66.9 135.9 C 66.9 135.9 66.92 125.39 66.9 125.4 C 66.9 124.2 66.6 123.4 66 122.9 C 65.3 122.4 64.6 122.2 63.7 122.2 C 62.6 122.2 61.8 122.5 61.2 123.2 C 60.6 123.8 60.3 124.7 60.3 125.7 C 60.25 125.67 60.3 135.9 60.3 135.9 L 57.8 135.9 C 57.8 135.9 57.8 125.14 57.8 125.1 C 57.8 124.2 57.5 123.5 56.9 123 C 56.4 122.4 55.6 122.2 54.7 122.2 C 54.1 122.2 53.5 122.3 52.9 122.7 C 52.4 123 52 123.5 51.6 124 C 51.3 124.6 51.1 125.3 51.1 126.1 C 51.13 126.08 51.1 135.9 51.1 135.9 L 48.7 135.9 Z M 86.5 136.3 C 85.5 136.3 84.6 136.1 83.8 135.7 C 83 135.3 82.3 134.8 81.8 134.1 C 81.4 133.3 81.1 132.5 81.1 131.4 C 81.1 130.5 81.3 129.8 81.6 129.2 C 82 128.7 82.5 128.2 83.1 127.9 C 83.7 127.6 84.3 127.4 85 127.2 C 85.8 127 86.5 126.9 87.2 126.8 C 88.2 126.7 88.9 126.6 89.5 126.5 C 90.1 126.5 90.6 126.4 90.8 126.2 C 91.1 126 91.3 125.8 91.3 125.4 C 91.3 125.4 91.3 125.3 91.3 125.3 C 91.3 124.3 91 123.5 90.4 123 C 89.9 122.4 89.1 122.1 87.9 122.1 C 86.8 122.1 85.9 122.4 85.2 122.9 C 84.6 123.4 84.1 123.9 83.9 124.5 C 83.9 124.5 81.6 123.7 81.6 123.7 C 82 122.7 82.5 122 83.2 121.4 C 83.9 120.9 84.6 120.5 85.5 120.3 C 86.3 120.1 87.1 120 87.9 120 C 88.4 120 89 120 89.6 120.2 C 90.3 120.3 90.9 120.5 91.5 120.9 C 92.1 121.3 92.7 121.8 93.1 122.6 C 93.5 123.3 93.7 124.3 93.7 125.6 C 93.68 125.55 93.7 135.9 93.7 135.9 L 91.3 135.9 L 91.3 133.8 C 91.3 133.8 91.14 133.77 91.1 133.8 C 91 134.1 90.7 134.5 90.3 134.9 C 89.9 135.3 89.4 135.6 88.8 135.9 C 88.2 136.1 87.4 136.3 86.5 136.3 Z M 86.8 134.1 C 87.8 134.1 88.6 133.9 89.3 133.5 C 89.9 133.2 90.4 132.7 90.8 132.1 C 91.1 131.5 91.3 130.9 91.3 130.2 C 91.3 130.2 91.3 128 91.3 128 C 91.2 128.1 90.9 128.2 90.6 128.3 C 90.2 128.4 89.9 128.5 89.4 128.6 C 89 128.7 88.5 128.7 88.1 128.8 C 87.7 128.8 87.3 128.9 87.1 128.9 C 86.5 129 85.9 129.1 85.3 129.3 C 84.8 129.5 84.4 129.7 84 130.1 C 83.7 130.5 83.5 131 83.5 131.6 C 83.5 132.4 83.8 133 84.5 133.5 C 85.1 133.9 85.9 134.1 86.8 134.1 Z M 104.3 136.2 C 102.8 136.2 101.5 135.9 100.5 135.2 C 99.4 134.5 98.6 133.5 98 132.3 C 97.4 131.1 97.2 129.7 97.2 128.1 C 97.2 126.5 97.5 125.1 98 123.9 C 98.6 122.7 99.5 121.7 100.5 121 C 101.6 120.3 102.8 120 104.2 120 C 105.3 120 106.3 120.2 107.2 120.6 C 108.1 121 108.8 121.6 109.4 122.3 C 110 123.1 110.3 123.9 110.5 124.9 C 110.5 124.9 108 124.9 108 124.9 C 107.9 124.2 107.5 123.5 106.8 123 C 106.2 122.4 105.3 122.2 104.3 122.2 C 103.3 122.2 102.5 122.4 101.8 122.9 C 101.1 123.4 100.6 124.1 100.2 124.9 C 99.8 125.8 99.6 126.9 99.6 128 C 99.6 129.3 99.8 130.3 100.2 131.2 C 100.5 132.1 101.1 132.8 101.8 133.3 C 102.5 133.8 103.3 134.1 104.3 134.1 C 104.9 134.1 105.5 134 106 133.7 C 106.5 133.5 106.9 133.2 107.3 132.8 C 107.6 132.4 107.9 131.9 108 131.3 C 108 131.3 110.5 131.3 110.5 131.3 C 110.3 132.2 110 133.1 109.5 133.8 C 108.9 134.6 108.2 135.1 107.3 135.6 C 106.5 136 105.4 136.2 104.3 136.2 Z M 113.8 135.9 L 113.8 120.2 L 116.1 120.2 L 116.1 122.6 C 116.1 122.6 116.31 122.56 116.3 122.6 C 116.6 121.8 117.1 121.2 117.9 120.7 C 118.6 120.2 119.5 119.9 120.4 119.9 C 120.6 119.9 120.8 119.9 121.1 120 C 121.3 120 121.5 120 121.7 120 C 121.7 120 121.7 122.4 121.7 122.4 C 121.6 122.4 121.4 122.4 121.1 122.3 C 120.8 122.3 120.5 122.3 120.2 122.3 C 119.4 122.3 118.8 122.4 118.2 122.8 C 117.6 123.1 117.1 123.5 116.7 124.1 C 116.4 124.6 116.2 125.3 116.2 126 C 116.23 125.96 116.2 135.9 116.2 135.9 L 113.8 135.9 Z M 130.4 136.2 C 129 136.2 127.8 135.9 126.7 135.2 C 125.6 134.5 124.8 133.6 124.2 132.4 C 123.6 131.2 123.3 129.8 123.3 128.1 C 123.3 126.5 123.6 125.1 124.2 123.8 C 124.8 122.6 125.6 121.7 126.7 121 C 127.8 120.3 129 120 130.4 120 C 131.8 120 133.1 120.3 134.2 121 C 135.2 121.7 136.1 122.6 136.7 123.8 C 137.3 125.1 137.5 126.5 137.5 128.1 C 137.5 129.8 137.3 131.2 136.7 132.4 C 136.1 133.6 135.2 134.5 134.2 135.2 C 133.1 135.9 131.8 136.2 130.4 136.2 Z M 130.4 134.1 C 131.5 134.1 132.4 133.8 133.1 133.2 C 133.8 132.7 134.3 132 134.6 131.1 C 135 130.2 135.1 129.2 135.1 128.1 C 135.1 127.1 135 126.1 134.6 125.2 C 134.3 124.3 133.8 123.6 133.1 123 C 132.4 122.4 131.5 122.2 130.4 122.2 C 129.4 122.2 128.5 122.4 127.8 123 C 127.1 123.6 126.6 124.3 126.2 125.2 C 125.9 126.1 125.7 127.1 125.7 128.1 C 125.7 129.2 125.9 130.2 126.2 131.1 C 126.6 132 127.1 132.7 127.8 133.2 C 128.5 133.8 129.4 134.1 130.4 134.1 Z M 151.9 123.7 C 151.9 123.7 149.7 124.3 149.7 124.3 C 149.6 124 149.4 123.6 149.1 123.3 C 148.9 122.9 148.5 122.6 148.1 122.4 C 147.6 122.2 147 122.1 146.3 122.1 C 145.4 122.1 144.6 122.3 143.9 122.7 C 143.3 123.2 143 123.7 143 124.4 C 143 125 143.2 125.5 143.6 125.8 C 144.1 126.2 144.7 126.5 145.7 126.7 C 145.7 126.7 148 127.3 148 127.3 C 149.4 127.6 150.5 128.1 151.1 128.8 C 151.8 129.5 152.2 130.4 152.2 131.5 C 152.2 132.4 151.9 133.2 151.4 133.9 C 150.9 134.6 150.2 135.2 149.2 135.6 C 148.3 136 147.3 136.2 146 136.2 C 144.4 136.2 143.1 135.9 142.1 135.2 C 141 134.5 140.3 133.5 140.1 132.1 C 140.1 132.1 142.4 131.6 142.4 131.6 C 142.6 132.4 143 133 143.6 133.5 C 144.2 133.9 145 134.1 146 134.1 C 147.1 134.1 148 133.9 148.7 133.4 C 149.3 132.9 149.7 132.3 149.7 131.6 C 149.7 131.1 149.5 130.6 149.1 130.3 C 148.7 129.9 148.1 129.6 147.3 129.4 C 147.3 129.4 144.7 128.8 144.7 128.8 C 143.3 128.5 142.2 128 141.6 127.2 C 140.9 126.5 140.6 125.6 140.6 124.5 C 140.6 123.6 140.8 122.9 141.3 122.2 C 141.8 121.5 142.5 121 143.4 120.6 C 144.2 120.2 145.2 120 146.3 120 C 147.9 120 149.1 120.3 150 121 C 150.9 121.7 151.5 122.6 151.9 123.7 Z M 166.8 123.7 C 166.8 123.7 164.6 124.3 164.6 124.3 C 164.5 124 164.3 123.6 164 123.3 C 163.7 122.9 163.4 122.6 162.9 122.4 C 162.5 122.2 161.9 122.1 161.2 122.1 C 160.2 122.1 159.4 122.3 158.8 122.7 C 158.2 123.2 157.8 123.7 157.8 124.4 C 157.8 125 158.1 125.5 158.5 125.8 C 158.9 126.2 159.6 126.5 160.5 126.7 C 160.5 126.7 162.9 127.3 162.9 127.3 C 164.3 127.6 165.3 128.1 166 128.8 C 166.7 129.5 167.1 130.4 167.1 131.5 C 167.1 132.4 166.8 133.2 166.3 133.9 C 165.8 134.6 165 135.2 164.1 135.6 C 163.2 136 162.1 136.2 160.9 136.2 C 159.3 136.2 158 135.9 156.9 135.2 C 155.9 134.5 155.2 133.5 154.9 132.1 C 154.9 132.1 157.2 131.6 157.2 131.6 C 157.5 132.4 157.9 133 158.5 133.5 C 159.1 133.9 159.9 134.1 160.9 134.1 C 162 134.1 162.9 133.9 163.6 133.4 C 164.2 132.9 164.6 132.3 164.6 131.6 C 164.6 131.1 164.4 130.6 164 130.3 C 163.6 129.9 163 129.6 162.2 129.4 C 162.2 129.4 159.6 128.8 159.6 128.8 C 158.2 128.5 157.1 128 156.4 127.2 C 155.8 126.5 155.4 125.6 155.4 124.5 C 155.4 123.6 155.7 122.9 156.2 122.2 C 156.7 121.5 157.4 121 158.2 120.6 C 159.1 120.2 160.1 120 161.2 120 C 162.8 120 164 120.3 164.9 121 C 165.8 121.7 166.4 122.6 166.8 123.7 Z M 185.6 120.2 L 185.6 122.2 L 177.5 122.2 L 177.5 120.2 L 185.6 120.2 Z M 179.9 116.4 L 182.3 116.4 C 182.3 116.4 182.27 131.4 182.3 131.4 C 182.3 132.1 182.4 132.6 182.6 132.9 C 182.8 133.3 183 133.5 183.3 133.6 C 183.7 133.7 184 133.8 184.4 133.8 C 184.6 133.8 184.8 133.8 185 133.7 C 185.2 133.7 185.3 133.7 185.4 133.7 C 185.4 133.7 185.9 135.8 185.9 135.8 C 185.7 135.9 185.5 135.9 185.2 136 C 184.9 136.1 184.6 136.1 184.1 136.1 C 183.4 136.1 182.8 136 182.1 135.7 C 181.5 135.4 180.9 134.9 180.5 134.3 C 180.1 133.7 179.9 133 179.9 132.1 C 179.86 132.05 179.9 116.4 179.9 116.4 Z M 191.3 126.5 C 191.29 126.45 191.3 135.9 191.3 135.9 L 188.9 135.9 L 188.9 115 L 191.3 115 L 191.3 122.6 C 191.3 122.6 191.5 122.65 191.5 122.6 C 191.9 121.8 192.4 121.2 193.2 120.7 C 193.9 120.2 194.9 120 196.1 120 C 197.2 120 198.1 120.2 198.9 120.6 C 199.7 121.1 200.4 121.7 200.8 122.6 C 201.3 123.5 201.5 124.6 201.5 125.9 C 201.48 125.92 201.5 135.9 201.5 135.9 L 199.1 135.9 C 199.1 135.9 199.07 126.08 199.1 126.1 C 199.1 124.8 198.7 123.9 198.1 123.2 C 197.5 122.5 196.6 122.2 195.4 122.2 C 194.6 122.2 193.9 122.3 193.3 122.7 C 192.7 123 192.2 123.5 191.8 124.1 C 191.5 124.8 191.3 125.5 191.3 126.5 Z M 212.3 136.2 C 210.8 136.2 209.5 135.9 208.4 135.2 C 207.3 134.5 206.4 133.6 205.9 132.4 C 205.3 131.2 205 129.8 205 128.2 C 205 126.6 205.3 125.1 205.9 123.9 C 206.4 122.7 207.3 121.7 208.3 121 C 209.4 120.3 210.6 120 212 120 C 212.9 120 213.7 120.1 214.5 120.4 C 215.3 120.7 216 121.1 216.6 121.7 C 217.3 122.3 217.8 123.1 218.2 124.1 C 218.6 125.1 218.8 126.4 218.8 127.8 C 218.79 127.84 218.8 128.9 218.8 128.9 L 206.7 128.9 L 206.7 126.8 C 206.7 126.8 216.34 126.78 216.3 126.8 C 216.3 125.9 216.2 125.1 215.8 124.4 C 215.5 123.7 215 123.2 214.3 122.8 C 213.7 122.4 212.9 122.2 212 122.2 C 211.1 122.2 210.3 122.4 209.6 122.9 C 208.9 123.3 208.3 124 207.9 124.7 C 207.6 125.5 207.4 126.3 207.4 127.1 C 207.4 127.1 207.4 128.5 207.4 128.5 C 207.4 129.7 207.6 130.7 208 131.5 C 208.4 132.4 209 133 209.7 133.4 C 210.5 133.8 211.3 134.1 212.3 134.1 C 212.9 134.1 213.5 134 214 133.8 C 214.5 133.6 215 133.3 215.3 133 C 215.7 132.6 216 132.2 216.2 131.6 C 216.2 131.6 218.5 132.3 218.5 132.3 C 218.3 133.1 217.9 133.7 217.3 134.3 C 216.7 134.9 216 135.4 215.2 135.7 C 214.3 136.1 213.4 136.2 212.3 136.2 Z " stroke="none" fill="#ffffff"/>  </g>  <g id="Polygon117462">    <path d="M 16.1 100.3 C 15.1 100.3 14.2 100.1 13.4 99.7 C 12.6 99.3 11.9 98.8 11.4 98.1 C 11 97.3 10.7 96.5 10.7 95.4 C 10.7 94.5 10.9 93.8 11.2 93.2 C 11.6 92.7 12.1 92.2 12.7 91.9 C 13.3 91.6 13.9 91.4 14.6 91.2 C 15.4 91 16.1 90.9 16.8 90.8 C 17.8 90.7 18.5 90.6 19.1 90.5 C 19.7 90.5 20.2 90.4 20.4 90.2 C 20.7 90 20.9 89.8 20.9 89.4 C 20.9 89.4 20.9 89.3 20.9 89.3 C 20.9 88.3 20.6 87.5 20 87 C 19.5 86.4 18.7 86.1 17.5 86.1 C 16.4 86.1 15.5 86.4 14.8 86.9 C 14.2 87.4 13.7 87.9 13.5 88.5 C 13.5 88.5 11.2 87.7 11.2 87.7 C 11.6 86.7 12.1 86 12.8 85.4 C 13.5 84.9 14.2 84.5 15.1 84.3 C 15.9 84.1 16.7 84 17.5 84 C 18 84 18.5 84 19.2 84.2 C 19.9 84.3 20.5 84.5 21.1 84.9 C 21.7 85.3 22.3 85.8 22.7 86.6 C 23.1 87.3 23.3 88.3 23.3 89.6 C 23.27 89.55 23.3 99.9 23.3 99.9 L 20.9 99.9 L 20.9 97.8 C 20.9 97.8 20.74 97.77 20.7 97.8 C 20.6 98.1 20.3 98.5 19.9 98.9 C 19.5 99.3 19 99.6 18.4 99.9 C 17.8 100.1 17 100.3 16.1 100.3 Z M 16.4 98.1 C 17.4 98.1 18.2 97.9 18.9 97.5 C 19.5 97.2 20 96.7 20.4 96.1 C 20.7 95.5 20.9 94.9 20.9 94.2 C 20.9 94.2 20.9 92 20.9 92 C 20.8 92.1 20.5 92.2 20.2 92.3 C 19.8 92.4 19.4 92.5 19 92.6 C 18.6 92.7 18.1 92.7 17.7 92.8 C 17.3 92.8 16.9 92.9 16.7 92.9 C 16.1 93 15.5 93.1 14.9 93.3 C 14.4 93.5 14 93.7 13.6 94.1 C 13.3 94.5 13.1 95 13.1 95.6 C 13.1 96.4 13.4 97 14.1 97.5 C 14.7 97.9 15.5 98.1 16.4 98.1 Z M 29.9 90.5 C 29.94 90.45 29.9 99.9 29.9 99.9 L 27.5 99.9 L 27.5 84.2 L 29.9 84.2 L 29.9 86.6 C 29.9 86.6 30.07 86.65 30.1 86.6 C 30.4 85.8 31 85.2 31.7 84.7 C 32.5 84.2 33.5 84 34.6 84 C 35.7 84 36.6 84.2 37.4 84.6 C 38.2 85.1 38.9 85.7 39.3 86.6 C 39.7 87.5 40 88.6 40 89.9 C 39.97 89.92 40 99.9 40 99.9 L 37.6 99.9 C 37.6 99.9 37.55 90.08 37.6 90.1 C 37.6 88.8 37.2 87.9 36.6 87.2 C 36 86.5 35.1 86.2 34 86.2 C 33.2 86.2 32.5 86.3 31.9 86.7 C 31.3 87 30.8 87.5 30.5 88.1 C 30.1 88.8 29.9 89.5 29.9 90.5 Z M 50.1 100.2 C 48.8 100.2 47.6 99.9 46.6 99.2 C 45.6 98.6 44.9 97.6 44.3 96.4 C 43.7 95.2 43.4 93.8 43.4 92.1 C 43.4 90.4 43.7 89 44.3 87.8 C 44.9 86.6 45.6 85.6 46.7 85 C 47.7 84.3 48.8 84 50.2 84 C 51.2 84 52 84.2 52.6 84.5 C 53.2 84.8 53.6 85.2 54 85.6 C 54.3 86.1 54.5 86.4 54.7 86.7 C 54.7 86.69 54.9 86.7 54.9 86.7 L 54.9 79 L 57.3 79 L 57.3 99.9 L 55 99.9 L 55 97.5 C 55 97.5 54.7 97.49 54.7 97.5 C 54.5 97.8 54.3 98.1 53.9 98.6 C 53.6 99 53.1 99.4 52.5 99.7 C 51.9 100.1 51.1 100.2 50.1 100.2 Z M 50.4 98.1 C 51.4 98.1 52.2 97.8 52.9 97.3 C 53.6 96.8 54.1 96.1 54.4 95.2 C 54.8 94.3 54.9 93.2 54.9 92 C 54.9 90.9 54.8 89.8 54.4 89 C 54.1 88.1 53.6 87.4 52.9 86.9 C 52.2 86.4 51.4 86.2 50.4 86.2 C 49.4 86.2 48.6 86.4 47.9 86.9 C 47.2 87.5 46.7 88.2 46.4 89.1 C 46 89.9 45.9 90.9 45.9 92 C 45.9 93.2 46 94.2 46.4 95.1 C 46.7 96 47.2 96.7 47.9 97.3 C 48.6 97.8 49.4 98.1 50.4 98.1 Z M 70.2 99.9 L 70.2 84.2 L 72.6 84.2 L 72.6 99.9 L 70.2 99.9 Z M 71.4 81.6 C 70.9 81.6 70.5 81.4 70.2 81.1 C 69.8 80.8 69.7 80.4 69.7 79.9 C 69.7 79.5 69.8 79.1 70.2 78.8 C 70.5 78.5 70.9 78.3 71.4 78.3 C 71.9 78.3 72.3 78.5 72.6 78.8 C 72.9 79.1 73.1 79.5 73.1 79.9 C 73.1 80.4 72.9 80.8 72.6 81.1 C 72.3 81.4 71.9 81.6 71.4 81.6 Z M 79.3 90.5 C 79.28 90.45 79.3 99.9 79.3 99.9 L 76.9 99.9 L 76.9 84.2 L 79.2 84.2 L 79.2 86.6 C 79.2 86.6 79.4 86.65 79.4 86.6 C 79.8 85.8 80.3 85.2 81.1 84.7 C 81.8 84.2 82.8 84 84 84 C 85 84 86 84.2 86.8 84.6 C 87.6 85.1 88.2 85.7 88.6 86.6 C 89.1 87.5 89.3 88.6 89.3 89.9 C 89.3 89.92 89.3 99.9 89.3 99.9 L 86.9 99.9 C 86.9 99.9 86.89 90.08 86.9 90.1 C 86.9 88.8 86.6 87.9 85.9 87.2 C 85.3 86.5 84.4 86.2 83.3 86.2 C 82.5 86.2 81.8 86.3 81.2 86.7 C 80.6 87 80.1 87.5 79.8 88.1 C 79.5 88.8 79.3 89.5 79.3 90.5 Z M 100.2 84.2 L 100.2 86.2 L 91.8 86.2 L 91.8 84.2 L 100.2 84.2 Z M 94.3 99.9 C 94.3 99.9 94.29 82.02 94.3 82 C 94.3 81.1 94.5 80.4 94.9 79.8 C 95.3 79.2 95.9 78.7 96.6 78.4 C 97.2 78.1 98 78 98.7 78 C 99.3 78 99.8 78 100.2 78.1 C 100.5 78.2 100.8 78.3 101 78.4 C 101 78.4 100.3 80.5 100.3 80.5 C 100.2 80.4 100 80.4 99.8 80.3 C 99.6 80.3 99.3 80.2 99 80.2 C 98.2 80.2 97.6 80.4 97.2 80.8 C 96.9 81.2 96.7 81.8 96.7 82.6 C 96.7 82.6 96.7 99.9 96.7 99.9 L 94.3 99.9 Z M 109.1 100.2 C 107.7 100.2 106.5 99.9 105.4 99.2 C 104.3 98.5 103.5 97.6 102.9 96.4 C 102.3 95.2 102 93.8 102 92.1 C 102 90.5 102.3 89.1 102.9 87.8 C 103.5 86.6 104.3 85.7 105.4 85 C 106.5 84.3 107.7 84 109.1 84 C 110.6 84 111.8 84.3 112.9 85 C 113.9 85.7 114.8 86.6 115.4 87.8 C 116 89.1 116.3 90.5 116.3 92.1 C 116.3 93.8 116 95.2 115.4 96.4 C 114.8 97.6 113.9 98.5 112.9 99.2 C 111.8 99.9 110.6 100.2 109.1 100.2 Z M 109.1 98.1 C 110.2 98.1 111.1 97.8 111.8 97.2 C 112.5 96.7 113 96 113.3 95.1 C 113.7 94.2 113.8 93.2 113.8 92.1 C 113.8 91.1 113.7 90.1 113.3 89.2 C 113 88.3 112.5 87.6 111.8 87 C 111.1 86.4 110.2 86.2 109.1 86.2 C 108.1 86.2 107.2 86.4 106.5 87 C 105.8 87.6 105.3 88.3 104.9 89.2 C 104.6 90.1 104.4 91.1 104.4 92.1 C 104.4 93.2 104.6 94.2 104.9 95.1 C 105.3 96 105.8 96.7 106.5 97.2 C 107.2 97.8 108.1 98.1 109.1 98.1 Z M 119.8 99.9 L 119.8 84.2 L 122.1 84.2 L 122.1 86.6 C 122.1 86.6 122.29 86.56 122.3 86.6 C 122.6 85.8 123.1 85.2 123.8 84.7 C 124.6 84.2 125.4 83.9 126.4 83.9 C 126.6 83.9 126.8 83.9 127 84 C 127.3 84 127.5 84 127.7 84 C 127.7 84 127.7 86.4 127.7 86.4 C 127.6 86.4 127.4 86.4 127.1 86.3 C 126.8 86.3 126.5 86.3 126.2 86.3 C 125.4 86.3 124.7 86.4 124.1 86.8 C 123.5 87.1 123.1 87.5 122.7 88.1 C 122.4 88.6 122.2 89.3 122.2 90 C 122.21 89.96 122.2 99.9 122.2 99.9 L 119.8 99.9 Z M 130.4 99.9 L 130.4 84.2 L 132.7 84.2 L 132.7 86.6 C 132.7 86.6 132.93 86.65 132.9 86.6 C 133.3 85.8 133.8 85.2 134.5 84.7 C 135.2 84.2 136.1 84 137.1 84 C 138.2 84 139 84.2 139.7 84.7 C 140.4 85.2 141 85.8 141.4 86.6 C 141.4 86.6 141.5 86.6 141.5 86.6 C 141.9 85.8 142.5 85.2 143.3 84.7 C 144.1 84.2 145.1 84 146.2 84 C 147.6 84 148.8 84.4 149.7 85.3 C 150.6 86.2 151 87.5 151 89.4 C 151.01 89.39 151 99.9 151 99.9 L 148.6 99.9 C 148.6 99.9 148.6 89.39 148.6 89.4 C 148.6 88.2 148.3 87.4 147.6 86.9 C 147 86.4 146.3 86.2 145.4 86.2 C 144.3 86.2 143.4 86.5 142.8 87.2 C 142.2 87.8 141.9 88.7 141.9 89.7 C 141.93 89.67 141.9 99.9 141.9 99.9 L 139.5 99.9 C 139.5 99.9 139.47 89.14 139.5 89.1 C 139.5 88.2 139.2 87.5 138.6 87 C 138 86.4 137.3 86.2 136.4 86.2 C 135.7 86.2 135.2 86.3 134.6 86.7 C 134.1 87 133.6 87.5 133.3 88 C 133 88.6 132.8 89.3 132.8 90.1 C 132.8 90.08 132.8 99.9 132.8 99.9 L 130.4 99.9 Z M 159.8 100.3 C 158.8 100.3 157.9 100.1 157.1 99.7 C 156.3 99.3 155.6 98.8 155.2 98.1 C 154.7 97.3 154.4 96.5 154.4 95.4 C 154.4 94.5 154.6 93.8 155 93.2 C 155.3 92.7 155.8 92.2 156.4 91.9 C 157 91.6 157.6 91.4 158.4 91.2 C 159.1 91 159.8 90.9 160.5 90.8 C 161.5 90.7 162.3 90.6 162.9 90.5 C 163.5 90.5 163.9 90.4 164.2 90.2 C 164.4 90 164.6 89.8 164.6 89.4 C 164.6 89.4 164.6 89.3 164.6 89.3 C 164.6 88.3 164.3 87.5 163.8 87 C 163.2 86.4 162.4 86.1 161.3 86.1 C 160.1 86.1 159.2 86.4 158.6 86.9 C 157.9 87.4 157.4 87.9 157.2 88.5 C 157.2 88.5 154.9 87.7 154.9 87.7 C 155.3 86.7 155.8 86 156.5 85.4 C 157.2 84.9 158 84.5 158.8 84.3 C 159.6 84.1 160.4 84 161.2 84 C 161.7 84 162.3 84 162.9 84.2 C 163.6 84.3 164.2 84.5 164.8 84.9 C 165.5 85.3 166 85.8 166.4 86.6 C 166.8 87.3 167 88.3 167 89.6 C 167 89.55 167 99.9 167 99.9 L 164.6 99.9 L 164.6 97.8 C 164.6 97.8 164.46 97.77 164.5 97.8 C 164.3 98.1 164 98.5 163.6 98.9 C 163.3 99.3 162.8 99.6 162.1 99.9 C 161.5 100.1 160.7 100.3 159.8 100.3 Z M 160.2 98.1 C 161.1 98.1 161.9 97.9 162.6 97.5 C 163.2 97.2 163.7 96.7 164.1 96.1 C 164.4 95.5 164.6 94.9 164.6 94.2 C 164.6 94.2 164.6 92 164.6 92 C 164.5 92.1 164.3 92.2 163.9 92.3 C 163.6 92.4 163.2 92.5 162.7 92.6 C 162.3 92.7 161.8 92.7 161.4 92.8 C 161 92.8 160.7 92.9 160.4 92.9 C 159.8 93 159.2 93.1 158.7 93.3 C 158.1 93.5 157.7 93.7 157.3 94.1 C 157 94.5 156.9 95 156.9 95.6 C 156.9 96.4 157.2 97 157.8 97.5 C 158.4 97.9 159.2 98.1 160.2 98.1 Z M 177.7 84.2 L 177.7 86.2 L 169.6 86.2 L 169.6 84.2 L 177.7 84.2 Z M 171.9 80.4 L 174.3 80.4 C 174.3 80.4 174.34 95.4 174.3 95.4 C 174.3 96.1 174.4 96.6 174.6 96.9 C 174.8 97.3 175.1 97.5 175.4 97.6 C 175.7 97.7 176.1 97.8 176.4 97.8 C 176.7 97.8 176.9 97.8 177.1 97.7 C 177.3 97.7 177.4 97.7 177.5 97.7 C 177.5 97.7 178 99.8 178 99.8 C 177.8 99.9 177.6 99.9 177.3 100 C 177 100.1 176.6 100.1 176.2 100.1 C 175.5 100.1 174.8 100 174.2 99.7 C 173.5 99.4 173 98.9 172.6 98.3 C 172.1 97.7 171.9 97 171.9 96.1 C 171.93 96.05 171.9 80.4 171.9 80.4 Z M 181 99.9 L 181 84.2 L 183.4 84.2 L 183.4 99.9 L 181 99.9 Z M 182.2 81.6 C 181.7 81.6 181.3 81.4 181 81.1 C 180.6 80.8 180.5 80.4 180.5 79.9 C 180.5 79.5 180.6 79.1 181 78.8 C 181.3 78.5 181.7 78.3 182.2 78.3 C 182.7 78.3 183.1 78.5 183.4 78.8 C 183.7 79.1 183.9 79.5 183.9 79.9 C 183.9 80.4 183.7 80.8 183.4 81.1 C 183.1 81.4 182.7 81.6 182.2 81.6 Z M 193.9 100.2 C 192.5 100.2 191.3 99.9 190.2 99.2 C 189.2 98.5 188.3 97.6 187.7 96.4 C 187.1 95.2 186.8 93.8 186.8 92.1 C 186.8 90.5 187.1 89.1 187.7 87.8 C 188.3 86.6 189.2 85.7 190.2 85 C 191.3 84.3 192.5 84 193.9 84 C 195.4 84 196.6 84.3 197.7 85 C 198.7 85.7 199.6 86.6 200.2 87.8 C 200.8 89.1 201.1 90.5 201.1 92.1 C 201.1 93.8 200.8 95.2 200.2 96.4 C 199.6 97.6 198.7 98.5 197.7 99.2 C 196.6 99.9 195.4 100.2 193.9 100.2 Z M 193.9 98.1 C 195 98.1 195.9 97.8 196.6 97.2 C 197.3 96.7 197.8 96 198.1 95.1 C 198.5 94.2 198.7 93.2 198.7 92.1 C 198.7 91.1 198.5 90.1 198.1 89.2 C 197.8 88.3 197.3 87.6 196.6 87 C 195.9 86.4 195 86.2 193.9 86.2 C 192.9 86.2 192 86.4 191.3 87 C 190.6 87.6 190.1 88.3 189.7 89.2 C 189.4 90.1 189.2 91.1 189.2 92.1 C 189.2 93.2 189.4 94.2 189.7 95.1 C 190.1 96 190.6 96.7 191.3 97.2 C 192 97.8 192.9 98.1 193.9 98.1 Z M 207 90.5 C 207.02 90.45 207 99.9 207 99.9 L 204.6 99.9 L 204.6 84.2 L 206.9 84.2 L 206.9 86.6 C 206.9 86.6 207.14 86.65 207.1 86.6 C 207.5 85.8 208.1 85.2 208.8 84.7 C 209.6 84.2 210.5 84 211.7 84 C 212.8 84 213.7 84.2 214.5 84.6 C 215.3 85.1 215.9 85.7 216.4 86.6 C 216.8 87.5 217 88.6 217 89.9 C 217.04 89.92 217 99.9 217 99.9 L 214.6 99.9 C 214.6 99.9 214.63 90.08 214.6 90.1 C 214.6 88.8 214.3 87.9 213.7 87.2 C 213 86.5 212.1 86.2 211 86.2 C 210.3 86.2 209.6 86.3 209 86.7 C 208.4 87 207.9 87.5 207.5 88.1 C 207.2 88.8 207 89.5 207 90.5 Z " stroke="none" fill="#ffffff"/>  </g>  <g id="Polygon117461">    <path d="M 11.5 63.9 L 11.5 48.2 L 13.9 48.2 L 13.9 63.9 L 11.5 63.9 Z M 12.7 45.6 C 12.2 45.6 11.8 45.4 11.5 45.1 C 11.1 44.8 11 44.4 11 43.9 C 11 43.5 11.1 43.1 11.5 42.8 C 11.8 42.5 12.2 42.3 12.7 42.3 C 13.1 42.3 13.6 42.5 13.9 42.8 C 14.2 43.1 14.4 43.5 14.4 43.9 C 14.4 44.4 14.2 44.8 13.9 45.1 C 13.6 45.4 13.1 45.6 12.7 45.6 Z M 20.6 54.5 C 20.57 54.45 20.6 63.9 20.6 63.9 L 18.2 63.9 L 18.2 48.2 L 20.5 48.2 L 20.5 50.6 C 20.5 50.6 20.69 50.65 20.7 50.6 C 21.1 49.8 21.6 49.2 22.4 48.7 C 23.1 48.2 24.1 48 25.3 48 C 26.3 48 27.3 48.2 28.1 48.6 C 28.9 49.1 29.5 49.7 29.9 50.6 C 30.4 51.5 30.6 52.6 30.6 53.9 C 30.59 53.92 30.6 63.9 30.6 63.9 L 28.2 63.9 C 28.2 63.9 28.18 54.08 28.2 54.1 C 28.2 52.8 27.9 51.9 27.2 51.2 C 26.6 50.5 25.7 50.2 24.6 50.2 C 23.8 50.2 23.1 50.3 22.5 50.7 C 21.9 51 21.4 51.5 21.1 52.1 C 20.7 52.8 20.6 53.5 20.6 54.5 Z M 41.1 64.2 C 39.7 64.2 38.4 63.9 37.3 63.2 C 36.3 62.5 35.5 61.5 34.9 60.3 C 34.3 59.1 34 57.7 34 56.1 C 34 54.5 34.3 53.1 34.9 51.9 C 35.5 50.7 36.3 49.7 37.4 49 C 38.4 48.3 39.7 48 41.1 48 C 42.2 48 43.2 48.2 44.1 48.6 C 45 49 45.7 49.6 46.3 50.3 C 46.8 51.1 47.2 51.9 47.3 52.9 C 47.3 52.9 44.9 52.9 44.9 52.9 C 44.7 52.2 44.3 51.5 43.7 51 C 43 50.4 42.2 50.2 41.1 50.2 C 40.2 50.2 39.4 50.4 38.7 50.9 C 38 51.4 37.4 52.1 37 52.9 C 36.6 53.8 36.4 54.9 36.4 56 C 36.4 57.3 36.6 58.3 37 59.2 C 37.4 60.1 37.9 60.8 38.6 61.3 C 39.4 61.8 40.2 62.1 41.1 62.1 C 41.8 62.1 42.3 62 42.8 61.7 C 43.4 61.5 43.8 61.2 44.1 60.8 C 44.5 60.4 44.8 59.9 44.9 59.3 C 44.9 59.3 47.3 59.3 47.3 59.3 C 47.2 60.2 46.8 61.1 46.3 61.8 C 45.8 62.6 45.1 63.1 44.2 63.6 C 43.3 64 42.3 64.2 41.1 64.2 Z M 56.9 64.2 C 55.5 64.2 54.3 63.9 53.2 63.2 C 52.1 62.5 51.3 61.6 50.7 60.4 C 50.1 59.2 49.8 57.8 49.8 56.1 C 49.8 54.5 50.1 53.1 50.7 51.8 C 51.3 50.6 52.1 49.7 53.2 49 C 54.3 48.3 55.5 48 56.9 48 C 58.4 48 59.6 48.3 60.7 49 C 61.7 49.7 62.6 50.6 63.2 51.8 C 63.8 53.1 64.1 54.5 64.1 56.1 C 64.1 57.8 63.8 59.2 63.2 60.4 C 62.6 61.6 61.7 62.5 60.7 63.2 C 59.6 63.9 58.4 64.2 56.9 64.2 Z M 56.9 62.1 C 58 62.1 58.9 61.8 59.6 61.2 C 60.3 60.7 60.8 60 61.1 59.1 C 61.5 58.2 61.6 57.2 61.6 56.1 C 61.6 55.1 61.5 54.1 61.1 53.2 C 60.8 52.3 60.3 51.6 59.6 51 C 58.9 50.4 58 50.2 56.9 50.2 C 55.9 50.2 55 50.4 54.3 51 C 53.6 51.6 53.1 52.3 52.7 53.2 C 52.4 54.1 52.2 55.1 52.2 56.1 C 52.2 57.2 52.4 58.2 52.7 59.1 C 53.1 60 53.6 60.7 54.3 61.2 C 55 61.8 55.9 62.1 56.9 62.1 Z M 67.6 63.9 L 67.6 48.2 L 69.9 48.2 L 69.9 50.6 C 69.9 50.6 70.1 50.56 70.1 50.6 C 70.4 49.8 70.9 49.2 71.7 48.7 C 72.4 48.2 73.2 47.9 74.2 47.9 C 74.4 47.9 74.6 47.9 74.9 48 C 75.1 48 75.3 48 75.5 48 C 75.5 48 75.5 50.4 75.5 50.4 C 75.4 50.4 75.2 50.4 74.9 50.3 C 74.6 50.3 74.3 50.3 74 50.3 C 73.2 50.3 72.5 50.4 71.9 50.8 C 71.3 51.1 70.9 51.5 70.5 52.1 C 70.2 52.6 70 53.3 70 54 C 70.01 53.96 70 63.9 70 63.9 L 67.6 63.9 Z M 78.2 69.8 L 78.2 48.2 L 80.5 48.2 L 80.5 50.7 C 80.5 50.7 80.81 50.69 80.8 50.7 C 81 50.4 81.2 50.1 81.6 49.6 C 81.9 49.2 82.3 48.8 82.9 48.5 C 83.5 48.2 84.3 48 85.4 48 C 86.7 48 87.8 48.3 88.9 49 C 89.9 49.6 90.6 50.6 91.2 51.8 C 91.8 53 92.1 54.4 92.1 56.1 C 92.1 57.8 91.8 59.2 91.2 60.4 C 90.6 61.6 89.9 62.6 88.9 63.2 C 87.9 63.9 86.7 64.2 85.4 64.2 C 84.4 64.2 83.6 64.1 83 63.7 C 82.4 63.4 81.9 63 81.6 62.6 C 81.2 62.1 81 61.8 80.8 61.5 C 80.81 61.49 80.6 61.5 80.6 61.5 L 80.6 69.8 L 78.2 69.8 Z M 80.6 56 C 80.6 57.2 80.7 58.3 81.1 59.2 C 81.4 60.1 81.9 60.8 82.6 61.3 C 83.3 61.8 84.1 62.1 85.1 62.1 C 86.1 62.1 86.9 61.8 87.6 61.3 C 88.3 60.7 88.8 60 89.1 59.1 C 89.5 58.2 89.6 57.2 89.6 56 C 89.6 54.9 89.5 53.9 89.1 53.1 C 88.8 52.2 88.3 51.5 87.6 50.9 C 86.9 50.4 86.1 50.2 85.1 50.2 C 84.1 50.2 83.3 50.4 82.6 50.9 C 81.9 51.4 81.4 52.1 81.1 53 C 80.7 53.8 80.6 54.9 80.6 56 Z M 102 64.2 C 100.5 64.2 99.3 63.9 98.2 63.2 C 97.2 62.5 96.3 61.6 95.7 60.4 C 95.1 59.2 94.8 57.8 94.8 56.1 C 94.8 54.5 95.1 53.1 95.7 51.8 C 96.3 50.6 97.2 49.7 98.2 49 C 99.3 48.3 100.5 48 102 48 C 103.4 48 104.6 48.3 105.7 49 C 106.7 49.7 107.6 50.6 108.2 51.8 C 108.8 53.1 109.1 54.5 109.1 56.1 C 109.1 57.8 108.8 59.2 108.2 60.4 C 107.6 61.6 106.7 62.5 105.7 63.2 C 104.6 63.9 103.4 64.2 102 64.2 Z M 102 62.1 C 103 62.1 103.9 61.8 104.6 61.2 C 105.3 60.7 105.8 60 106.2 59.1 C 106.5 58.2 106.7 57.2 106.7 56.1 C 106.7 55.1 106.5 54.1 106.2 53.2 C 105.8 52.3 105.3 51.6 104.6 51 C 103.9 50.4 103 50.2 102 50.2 C 100.9 50.2 100 50.4 99.3 51 C 98.6 51.6 98.1 52.3 97.7 53.2 C 97.4 54.1 97.2 55.1 97.2 56.1 C 97.2 57.2 97.4 58.2 97.7 59.1 C 98.1 60 98.6 60.7 99.3 61.2 C 100 61.8 100.9 62.1 102 62.1 Z M 112.6 63.9 L 112.6 48.2 L 114.9 48.2 L 114.9 50.6 C 114.9 50.6 115.11 50.56 115.1 50.6 C 115.4 49.8 115.9 49.2 116.7 48.7 C 117.4 48.2 118.3 47.9 119.2 47.9 C 119.4 47.9 119.6 47.9 119.9 48 C 120.1 48 120.3 48 120.5 48 C 120.5 48 120.5 50.4 120.5 50.4 C 120.4 50.4 120.2 50.4 119.9 50.3 C 119.6 50.3 119.3 50.3 119 50.3 C 118.2 50.3 117.5 50.4 117 50.8 C 116.4 51.1 115.9 51.5 115.5 52.1 C 115.2 52.6 115 53.3 115 54 C 115.03 53.96 115 63.9 115 63.9 L 112.6 63.9 Z M 127.8 64.3 C 126.8 64.3 125.9 64.1 125.1 63.7 C 124.3 63.3 123.6 62.8 123.1 62.1 C 122.7 61.3 122.4 60.5 122.4 59.4 C 122.4 58.5 122.6 57.8 123 57.2 C 123.3 56.7 123.8 56.2 124.4 55.9 C 125 55.6 125.6 55.4 126.3 55.2 C 127.1 55 127.8 54.9 128.5 54.8 C 129.5 54.7 130.2 54.6 130.8 54.5 C 131.4 54.5 131.9 54.4 132.2 54.2 C 132.4 54 132.6 53.8 132.6 53.4 C 132.6 53.4 132.6 53.3 132.6 53.3 C 132.6 52.3 132.3 51.5 131.7 51 C 131.2 50.4 130.4 50.1 129.3 50.1 C 128.1 50.1 127.2 50.4 126.5 50.9 C 125.9 51.4 125.4 51.9 125.2 52.5 C 125.2 52.5 122.9 51.7 122.9 51.7 C 123.3 50.7 123.8 50 124.5 49.4 C 125.2 48.9 126 48.5 126.8 48.3 C 127.6 48.1 128.4 48 129.2 48 C 129.7 48 130.3 48 130.9 48.2 C 131.6 48.3 132.2 48.5 132.8 48.9 C 133.4 49.3 134 49.8 134.4 50.6 C 134.8 51.3 135 52.3 135 53.6 C 134.98 53.55 135 63.9 135 63.9 L 132.6 63.9 L 132.6 61.8 C 132.6 61.8 132.45 61.77 132.4 61.8 C 132.3 62.1 132 62.5 131.6 62.9 C 131.2 63.3 130.7 63.6 130.1 63.9 C 129.5 64.1 128.7 64.3 127.8 64.3 Z M 128.2 62.1 C 129.1 62.1 129.9 61.9 130.6 61.5 C 131.2 61.2 131.7 60.7 132.1 60.1 C 132.4 59.5 132.6 58.9 132.6 58.2 C 132.6 58.2 132.6 56 132.6 56 C 132.5 56.1 132.2 56.2 131.9 56.3 C 131.6 56.4 131.2 56.5 130.7 56.6 C 130.3 56.7 129.8 56.7 129.4 56.8 C 129 56.8 128.7 56.9 128.4 56.9 C 127.8 57 127.2 57.1 126.6 57.3 C 126.1 57.5 125.7 57.7 125.3 58.1 C 125 58.5 124.8 59 124.8 59.6 C 124.8 60.4 125.1 61 125.8 61.5 C 126.4 61.9 127.2 62.1 128.2 62.1 Z M 145.7 48.2 L 145.7 50.2 L 137.5 50.2 L 137.5 48.2 L 145.7 48.2 Z M 139.9 44.4 L 142.3 44.4 C 142.3 44.4 142.33 59.4 142.3 59.4 C 142.3 60.1 142.4 60.6 142.6 60.9 C 142.8 61.3 143.1 61.5 143.4 61.6 C 143.7 61.7 144.1 61.8 144.4 61.8 C 144.7 61.8 144.9 61.8 145.1 61.7 C 145.2 61.7 145.4 61.7 145.5 61.7 C 145.5 61.7 146 63.8 146 63.8 C 145.8 63.9 145.6 63.9 145.3 64 C 145 64.1 144.6 64.1 144.2 64.1 C 143.5 64.1 142.8 64 142.2 63.7 C 141.5 63.4 141 62.9 140.6 62.3 C 140.1 61.7 139.9 61 139.9 60.1 C 139.91 60.05 139.9 44.4 139.9 44.4 Z M 154.9 64.2 C 153.4 64.2 152.1 63.9 151 63.2 C 149.9 62.5 149.1 61.6 148.5 60.4 C 147.9 59.2 147.6 57.8 147.6 56.2 C 147.6 54.6 147.9 53.1 148.5 51.9 C 149.1 50.7 149.9 49.7 151 49 C 152 48.3 153.3 48 154.7 48 C 155.5 48 156.3 48.1 157.1 48.4 C 157.9 48.7 158.6 49.1 159.3 49.7 C 160 50.3 160.5 51.1 160.9 52.1 C 161.3 53.1 161.5 54.4 161.5 55.8 C 161.45 55.84 161.5 56.9 161.5 56.9 L 149.3 56.9 L 149.3 54.8 C 149.3 54.8 159 54.78 159 54.8 C 159 53.9 158.8 53.1 158.5 52.4 C 158.1 51.7 157.6 51.2 157 50.8 C 156.3 50.4 155.6 50.2 154.7 50.2 C 153.7 50.2 152.9 50.4 152.2 50.9 C 151.5 51.3 151 52 150.6 52.7 C 150.2 53.5 150 54.3 150 55.1 C 150 55.1 150 56.5 150 56.5 C 150 57.7 150.2 58.7 150.7 59.5 C 151.1 60.4 151.6 61 152.4 61.4 C 153.1 61.8 154 62.1 154.9 62.1 C 155.6 62.1 156.2 62 156.7 61.8 C 157.2 61.6 157.6 61.3 158 61 C 158.4 60.6 158.7 60.2 158.9 59.6 C 158.9 59.6 161.2 60.3 161.2 60.3 C 161 61.1 160.5 61.7 160 62.3 C 159.4 62.9 158.7 63.4 157.8 63.7 C 157 64.1 156 64.2 154.9 64.2 Z M 175.9 51.7 C 175.9 51.7 173.8 52.3 173.8 52.3 C 173.6 52 173.4 51.6 173.2 51.3 C 172.9 50.9 172.6 50.6 172.1 50.4 C 171.7 50.2 171.1 50.1 170.4 50.1 C 169.4 50.1 168.6 50.3 168 50.7 C 167.3 51.2 167 51.7 167 52.4 C 167 53 167.2 53.5 167.7 53.8 C 168.1 54.2 168.8 54.5 169.7 54.7 C 169.7 54.7 172.1 55.3 172.1 55.3 C 173.5 55.6 174.5 56.1 175.2 56.8 C 175.9 57.5 176.2 58.4 176.2 59.5 C 176.2 60.4 176 61.2 175.5 61.9 C 174.9 62.6 174.2 63.2 173.3 63.6 C 172.4 64 171.3 64.2 170.1 64.2 C 168.5 64.2 167.2 63.9 166.1 63.2 C 165.1 62.5 164.4 61.5 164.1 60.1 C 164.1 60.1 166.4 59.6 166.4 59.6 C 166.6 60.4 167 61 167.7 61.5 C 168.3 61.9 169.1 62.1 170.1 62.1 C 171.2 62.1 172.1 61.9 172.7 61.4 C 173.4 60.9 173.7 60.3 173.7 59.6 C 173.7 59.1 173.5 58.6 173.2 58.3 C 172.8 57.9 172.2 57.6 171.4 57.4 C 171.4 57.4 168.8 56.8 168.8 56.8 C 167.3 56.5 166.3 56 165.6 55.2 C 164.9 54.5 164.6 53.6 164.6 52.5 C 164.6 51.6 164.9 50.9 165.4 50.2 C 165.9 49.5 166.5 49 167.4 48.6 C 168.3 48.2 169.3 48 170.4 48 C 171.9 48 173.2 48.3 174 49 C 174.9 49.7 175.6 50.6 175.9 51.7 Z M 193.9 64.2 C 192.6 64.2 191.4 63.9 190.4 63.2 C 189.4 62.6 188.6 61.6 188.1 60.4 C 187.5 59.2 187.2 57.8 187.2 56.1 C 187.2 54.4 187.5 53 188.1 51.8 C 188.6 50.6 189.4 49.6 190.4 49 C 191.5 48.3 192.6 48 193.9 48 C 195 48 195.8 48.2 196.4 48.5 C 197 48.8 197.4 49.2 197.7 49.6 C 198.1 50.1 198.3 50.4 198.5 50.7 C 198.48 50.69 198.7 50.7 198.7 50.7 L 198.7 43 L 201.1 43 L 201.1 63.9 L 198.8 63.9 L 198.8 61.5 C 198.8 61.5 198.48 61.49 198.5 61.5 C 198.3 61.8 198.1 62.1 197.7 62.6 C 197.4 63 196.9 63.4 196.3 63.7 C 195.7 64.1 194.9 64.2 193.9 64.2 Z M 194.2 62.1 C 195.2 62.1 196 61.8 196.7 61.3 C 197.4 60.8 197.9 60.1 198.2 59.2 C 198.6 58.3 198.7 57.2 198.7 56 C 198.7 54.9 198.6 53.8 198.2 53 C 197.9 52.1 197.4 51.4 196.7 50.9 C 196 50.4 195.2 50.2 194.2 50.2 C 193.2 50.2 192.4 50.4 191.7 50.9 C 191 51.5 190.5 52.2 190.2 53.1 C 189.8 53.9 189.6 54.9 189.6 56 C 189.6 57.2 189.8 58.2 190.2 59.1 C 190.5 60 191 60.7 191.7 61.3 C 192.4 61.8 193.2 62.1 194.2 62.1 Z M 210.1 64.3 C 209.1 64.3 208.2 64.1 207.4 63.7 C 206.6 63.3 205.9 62.8 205.5 62.1 C 205 61.3 204.7 60.5 204.7 59.4 C 204.7 58.5 204.9 57.8 205.3 57.2 C 205.6 56.7 206.1 56.2 206.7 55.9 C 207.3 55.6 207.9 55.4 208.7 55.2 C 209.4 55 210.1 54.9 210.8 54.8 C 211.8 54.7 212.6 54.6 213.2 54.5 C 213.8 54.5 214.2 54.4 214.5 54.2 C 214.7 54 214.9 53.8 214.9 53.4 C 214.9 53.4 214.9 53.3 214.9 53.3 C 214.9 52.3 214.6 51.5 214.1 51 C 213.5 50.4 212.7 50.1 211.6 50.1 C 210.4 50.1 209.5 50.4 208.9 50.9 C 208.2 51.4 207.7 51.9 207.5 52.5 C 207.5 52.5 205.2 51.7 205.2 51.7 C 205.6 50.7 206.1 50 206.8 49.4 C 207.5 48.9 208.3 48.5 209.1 48.3 C 209.9 48.1 210.7 48 211.5 48 C 212 48 212.6 48 213.2 48.2 C 213.9 48.3 214.5 48.5 215.1 48.9 C 215.8 49.3 216.3 49.8 216.7 50.6 C 217.1 51.3 217.3 52.3 217.3 53.6 C 217.3 53.55 217.3 63.9 217.3 63.9 L 214.9 63.9 L 214.9 61.8 C 214.9 61.8 214.76 61.77 214.8 61.8 C 214.6 62.1 214.3 62.5 213.9 62.9 C 213.6 63.3 213.1 63.6 212.4 63.9 C 211.8 64.1 211 64.3 210.1 64.3 Z M 210.5 62.1 C 211.4 62.1 212.2 61.9 212.9 61.5 C 213.5 61.2 214 60.7 214.4 60.1 C 214.7 59.5 214.9 58.9 214.9 58.2 C 214.9 58.2 214.9 56 214.9 56 C 214.8 56.1 214.6 56.2 214.2 56.3 C 213.9 56.4 213.5 56.5 213 56.6 C 212.6 56.7 212.1 56.7 211.7 56.8 C 211.3 56.8 211 56.9 210.7 56.9 C 210.1 57 209.5 57.1 209 57.3 C 208.4 57.5 208 57.7 207.6 58.1 C 207.3 58.5 207.2 59 207.2 59.6 C 207.2 60.4 207.5 61 208.1 61.5 C 208.7 61.9 209.5 62.1 210.5 62.1 Z M 228 48.2 L 228 50.2 L 219.9 50.2 L 219.9 48.2 L 228 48.2 Z M 222.2 44.4 L 224.6 44.4 C 224.6 44.4 224.64 59.4 224.6 59.4 C 224.6 60.1 224.7 60.6 224.9 60.9 C 225.1 61.3 225.4 61.5 225.7 61.6 C 226 61.7 226.4 61.8 226.7 61.8 C 227 61.8 227.2 61.8 227.4 61.7 C 227.6 61.7 227.7 61.7 227.8 61.7 C 227.8 61.7 228.3 63.8 228.3 63.8 C 228.1 63.9 227.9 63.9 227.6 64 C 227.3 64.1 226.9 64.1 226.5 64.1 C 225.8 64.1 225.1 64 224.5 63.7 C 223.8 63.4 223.3 62.9 222.9 62.3 C 222.4 61.7 222.2 61 222.2 60.1 C 222.23 60.05 222.2 44.4 222.2 44.4 Z M 235.9 64.3 C 234.9 64.3 234 64.1 233.1 63.7 C 232.3 63.3 231.7 62.8 231.2 62.1 C 230.7 61.3 230.5 60.5 230.5 59.4 C 230.5 58.5 230.7 57.8 231 57.2 C 231.4 56.7 231.9 56.2 232.5 55.9 C 233 55.6 233.7 55.4 234.4 55.2 C 235.1 55 235.9 54.9 236.6 54.8 C 237.6 54.7 238.3 54.6 238.9 54.5 C 239.5 54.5 240 54.4 240.2 54.2 C 240.5 54 240.6 53.8 240.6 53.4 C 240.6 53.4 240.6 53.3 240.6 53.3 C 240.6 52.3 240.4 51.5 239.8 51 C 239.3 50.4 238.4 50.1 237.3 50.1 C 236.2 50.1 235.3 50.4 234.6 50.9 C 234 51.4 233.5 51.9 233.2 52.5 C 233.2 52.5 231 51.7 231 51.7 C 231.4 50.7 231.9 50 232.6 49.4 C 233.3 48.9 234 48.5 234.8 48.3 C 235.7 48.1 236.5 48 237.3 48 C 237.8 48 238.3 48 239 48.2 C 239.7 48.3 240.3 48.5 240.9 48.9 C 241.5 49.3 242 49.8 242.4 50.6 C 242.9 51.3 243.1 52.3 243.1 53.6 C 243.06 53.55 243.1 63.9 243.1 63.9 L 240.6 63.9 L 240.6 61.8 C 240.6 61.8 240.52 61.77 240.5 61.8 C 240.4 62.1 240.1 62.5 239.7 62.9 C 239.3 63.3 238.8 63.6 238.2 63.9 C 237.5 64.1 236.8 64.3 235.9 64.3 Z M 236.2 62.1 C 237.2 62.1 238 61.9 238.6 61.5 C 239.3 61.2 239.8 60.7 240.1 60.1 C 240.5 59.5 240.6 58.9 240.6 58.2 C 240.6 58.2 240.6 56 240.6 56 C 240.5 56.1 240.3 56.2 240 56.3 C 239.6 56.4 239.2 56.5 238.8 56.6 C 238.3 56.7 237.9 56.7 237.5 56.8 C 237.1 56.8 236.7 56.9 236.5 56.9 C 235.8 57 235.3 57.1 234.7 57.3 C 234.2 57.5 233.7 57.7 233.4 58.1 C 233.1 58.5 232.9 59 232.9 59.6 C 232.9 60.4 233.2 61 233.9 61.5 C 234.5 61.9 235.3 62.1 236.2 62.1 Z " stroke="none" fill="#ffffff"/>  </g>  <g id="Polygon117460">    <path d="M 1.4 13.5 C 1.4 13.5 1.39 11.66 1.4 11.7 C 1.4 11.1 1.5 10.5 1.7 9.9 C 1.9 9.2 2.2 8.6 2.6 8 C 3 7.5 3.4 6.9 4 6.5 C 4 6.5 5.3 7.6 5.3 7.6 C 4.8 8.2 4.5 8.8 4.2 9.5 C 3.8 10.2 3.7 10.9 3.7 11.6 C 3.68 11.62 3.7 13.5 3.7 13.5 L 1.4 13.5 Z M 6.6 13.5 C 6.6 13.5 6.63 11.66 6.6 11.7 C 6.6 11.1 6.7 10.5 6.9 9.9 C 7.1 9.2 7.4 8.6 7.8 8 C 8.2 7.5 8.7 6.9 9.2 6.5 C 9.2 6.5 10.5 7.6 10.5 7.6 C 10.1 8.2 9.7 8.8 9.4 9.5 C 9.1 10.2 8.9 10.9 8.9 11.6 C 8.92 11.62 8.9 13.5 8.9 13.5 L 6.6 13.5 Z M 12.6 27.9 L 10 27.9 L 17.7 7 L 20.3 7 L 28 27.9 L 25.3 27.9 L 19.1 10.3 L 18.9 10.3 L 12.6 27.9 Z M 13.6 19.7 L 24.3 19.7 L 24.3 22 L 13.6 22 L 13.6 19.7 Z M 33.7 7 L 33.7 27.9 L 31.1 27.9 L 31.1 7 L 33.7 7 Z M 51.1 28.3 C 50.1 28.3 49.2 28.1 48.4 27.7 C 47.6 27.3 47 26.8 46.5 26.1 C 46 25.3 45.8 24.5 45.8 23.4 C 45.8 22.5 46 21.8 46.3 21.2 C 46.7 20.7 47.1 20.2 47.7 19.9 C 48.3 19.6 49 19.4 49.7 19.2 C 50.4 19 51.2 18.9 51.9 18.8 C 52.8 18.7 53.6 18.6 54.2 18.5 C 54.8 18.5 55.2 18.4 55.5 18.2 C 55.8 18 55.9 17.8 55.9 17.4 C 55.9 17.4 55.9 17.3 55.9 17.3 C 55.9 16.3 55.7 15.5 55.1 15 C 54.6 14.4 53.7 14.1 52.6 14.1 C 51.5 14.1 50.6 14.4 49.9 14.9 C 49.3 15.4 48.8 15.9 48.5 16.5 C 48.5 16.5 46.2 15.7 46.2 15.7 C 46.6 14.7 47.2 14 47.9 13.4 C 48.6 12.9 49.3 12.5 50.1 12.3 C 50.9 12.1 51.7 12 52.5 12 C 53 12 53.6 12 54.3 12.2 C 54.9 12.3 55.6 12.5 56.2 12.9 C 56.8 13.3 57.3 13.8 57.7 14.6 C 58.1 15.3 58.3 16.3 58.3 17.6 C 58.34 17.55 58.3 27.9 58.3 27.9 L 55.9 27.9 L 55.9 25.8 C 55.9 25.8 55.81 25.77 55.8 25.8 C 55.6 26.1 55.4 26.5 55 26.9 C 54.6 27.3 54.1 27.6 53.5 27.9 C 52.8 28.1 52.1 28.3 51.1 28.3 Z M 51.5 26.1 C 52.5 26.1 53.3 25.9 53.9 25.5 C 54.6 25.2 55.1 24.7 55.4 24.1 C 55.8 23.5 55.9 22.9 55.9 22.2 C 55.9 22.2 55.9 20 55.9 20 C 55.8 20.1 55.6 20.2 55.3 20.3 C 54.9 20.4 54.5 20.5 54.1 20.6 C 53.6 20.7 53.2 20.7 52.8 20.8 C 52.4 20.8 52 20.9 51.8 20.9 C 51.1 21 50.5 21.1 50 21.3 C 49.5 21.5 49 21.7 48.7 22.1 C 48.4 22.5 48.2 23 48.2 23.6 C 48.2 24.4 48.5 25 49.1 25.5 C 49.8 25.9 50.6 26.1 51.5 26.1 Z M 72.4 21.5 C 72.4 21.48 72.4 12.2 72.4 12.2 L 74.8 12.2 L 74.8 27.9 L 72.4 27.9 L 72.4 25.2 C 72.4 25.2 72.24 25.24 72.2 25.2 C 71.9 26 71.3 26.7 70.5 27.3 C 69.7 27.8 68.8 28.1 67.6 28.1 C 66.6 28.1 65.7 27.9 65 27.5 C 64.2 27 63.6 26.4 63.2 25.5 C 62.7 24.6 62.5 23.5 62.5 22.2 C 62.5 22.17 62.5 12.2 62.5 12.2 L 64.9 12.2 C 64.9 12.2 64.92 22.01 64.9 22 C 64.9 23.2 65.2 24.1 65.9 24.8 C 66.5 25.4 67.4 25.8 68.4 25.8 C 69 25.8 69.6 25.6 70.2 25.3 C 70.8 25 71.3 24.5 71.8 23.9 C 72.2 23.3 72.4 22.5 72.4 21.5 Z M 85.8 12.2 L 85.8 14.2 L 77.7 14.2 L 77.7 12.2 L 85.8 12.2 Z M 80 8.4 L 82.5 8.4 C 82.5 8.4 82.46 23.4 82.5 23.4 C 82.5 24.1 82.6 24.6 82.8 24.9 C 83 25.3 83.2 25.5 83.5 25.6 C 83.9 25.7 84.2 25.8 84.5 25.8 C 84.8 25.8 85 25.8 85.2 25.7 C 85.4 25.7 85.5 25.7 85.6 25.7 C 85.6 25.7 86.1 27.8 86.1 27.8 C 85.9 27.9 85.7 27.9 85.4 28 C 85.1 28.1 84.8 28.1 84.3 28.1 C 83.6 28.1 83 28 82.3 27.7 C 81.6 27.4 81.1 26.9 80.7 26.3 C 80.3 25.7 80 25 80 24.1 C 80.05 24.05 80 8.4 80 8.4 Z M 94.9 28.2 C 93.5 28.2 92.2 27.9 91.1 27.2 C 90.1 26.5 89.2 25.6 88.7 24.4 C 88.1 23.2 87.8 21.8 87.8 20.1 C 87.8 18.5 88.1 17.1 88.7 15.8 C 89.2 14.6 90.1 13.7 91.1 13 C 92.2 12.3 93.5 12 94.9 12 C 96.3 12 97.5 12.3 98.6 13 C 99.7 13.7 100.5 14.6 101.1 15.8 C 101.7 17.1 102 18.5 102 20.1 C 102 21.8 101.7 23.2 101.1 24.4 C 100.5 25.6 99.7 26.5 98.6 27.2 C 97.5 27.9 96.3 28.2 94.9 28.2 Z M 94.9 26.1 C 96 26.1 96.8 25.8 97.5 25.2 C 98.2 24.7 98.7 24 99.1 23.1 C 99.4 22.2 99.6 21.2 99.6 20.1 C 99.6 19.1 99.4 18.1 99.1 17.2 C 98.7 16.3 98.2 15.6 97.5 15 C 96.8 14.4 96 14.2 94.9 14.2 C 93.8 14.2 92.9 14.4 92.2 15 C 91.5 15.6 91 16.3 90.7 17.2 C 90.3 18.1 90.2 19.1 90.2 20.1 C 90.2 21.2 90.3 22.2 90.7 23.1 C 91 24 91.5 24.7 92.2 25.2 C 92.9 25.8 93.8 26.1 94.9 26.1 Z M 105.5 27.9 L 105.5 12.2 L 107.9 12.2 L 107.9 14.6 C 107.9 14.6 108.07 14.65 108.1 14.6 C 108.4 13.8 108.9 13.2 109.7 12.7 C 110.4 12.2 111.3 12 112.3 12 C 113.3 12 114.2 12.2 114.9 12.7 C 115.6 13.2 116.1 13.8 116.5 14.6 C 116.5 14.6 116.7 14.6 116.7 14.6 C 117.1 13.8 117.7 13.2 118.5 12.7 C 119.3 12.2 120.2 12 121.4 12 C 122.8 12 123.9 12.4 124.8 13.3 C 125.7 14.2 126.2 15.5 126.2 17.4 C 126.15 17.39 126.2 27.9 126.2 27.9 L 123.7 27.9 C 123.7 27.9 123.74 17.39 123.7 17.4 C 123.7 16.2 123.4 15.4 122.8 14.9 C 122.2 14.4 121.4 14.2 120.5 14.2 C 119.4 14.2 118.6 14.5 118 15.2 C 117.4 15.8 117.1 16.7 117.1 17.7 C 117.07 17.67 117.1 27.9 117.1 27.9 L 114.6 27.9 C 114.6 27.9 114.62 17.14 114.6 17.1 C 114.6 16.2 114.3 15.5 113.7 15 C 113.2 14.4 112.4 14.2 111.5 14.2 C 110.9 14.2 110.3 14.3 109.8 14.7 C 109.2 15 108.8 15.5 108.4 16 C 108.1 16.6 107.9 17.3 107.9 18.1 C 107.95 18.08 107.9 27.9 107.9 27.9 L 105.5 27.9 Z M 134.9 28.3 C 133.9 28.3 133 28.1 132.2 27.7 C 131.4 27.3 130.8 26.8 130.3 26.1 C 129.8 25.3 129.6 24.5 129.6 23.4 C 129.6 22.5 129.8 21.8 130.1 21.2 C 130.5 20.7 130.9 20.2 131.5 19.9 C 132.1 19.6 132.8 19.4 133.5 19.2 C 134.2 19 134.9 18.9 135.7 18.8 C 136.6 18.7 137.4 18.6 138 18.5 C 138.6 18.5 139 18.4 139.3 18.2 C 139.6 18 139.7 17.8 139.7 17.4 C 139.7 17.4 139.7 17.3 139.7 17.3 C 139.7 16.3 139.5 15.5 138.9 15 C 138.4 14.4 137.5 14.1 136.4 14.1 C 135.3 14.1 134.4 14.4 133.7 14.9 C 133 15.4 132.6 15.9 132.3 16.5 C 132.3 16.5 130 15.7 130 15.7 C 130.4 14.7 131 14 131.7 13.4 C 132.4 12.9 133.1 12.5 133.9 12.3 C 134.7 12.1 135.5 12 136.3 12 C 136.8 12 137.4 12 138.1 12.2 C 138.7 12.3 139.4 12.5 140 12.9 C 140.6 13.3 141.1 13.8 141.5 14.6 C 141.9 15.3 142.1 16.3 142.1 17.6 C 142.14 17.55 142.1 27.9 142.1 27.9 L 139.7 27.9 L 139.7 25.8 C 139.7 25.8 139.6 25.77 139.6 25.8 C 139.4 26.1 139.2 26.5 138.8 26.9 C 138.4 27.3 137.9 27.6 137.3 27.9 C 136.6 28.1 135.9 28.3 134.9 28.3 Z M 135.3 26.1 C 136.3 26.1 137.1 25.9 137.7 25.5 C 138.4 25.2 138.9 24.7 139.2 24.1 C 139.6 23.5 139.7 22.9 139.7 22.2 C 139.7 22.2 139.7 20 139.7 20 C 139.6 20.1 139.4 20.2 139.1 20.3 C 138.7 20.4 138.3 20.5 137.9 20.6 C 137.4 20.7 137 20.7 136.6 20.8 C 136.2 20.8 135.8 20.9 135.6 20.9 C 134.9 21 134.3 21.1 133.8 21.3 C 133.3 21.5 132.8 21.7 132.5 22.1 C 132.2 22.5 132 23 132 23.6 C 132 24.4 132.3 25 132.9 25.5 C 133.6 25.9 134.3 26.1 135.3 26.1 Z M 152.8 12.2 L 152.8 14.2 L 144.7 14.2 L 144.7 12.2 L 152.8 12.2 Z M 147.1 8.4 L 149.5 8.4 C 149.5 8.4 149.48 23.4 149.5 23.4 C 149.5 24.1 149.6 24.6 149.8 24.9 C 150 25.3 150.2 25.5 150.6 25.6 C 150.9 25.7 151.2 25.8 151.6 25.8 C 151.8 25.8 152.1 25.8 152.2 25.7 C 152.4 25.7 152.5 25.7 152.6 25.7 C 152.6 25.7 153.1 27.8 153.1 27.8 C 153 27.9 152.7 27.9 152.4 28 C 152.1 28.1 151.8 28.1 151.3 28.1 C 150.6 28.1 150 28 149.3 27.7 C 148.7 27.4 148.1 26.9 147.7 26.3 C 147.3 25.7 147.1 25 147.1 24.1 C 147.07 24.05 147.1 8.4 147.1 8.4 Z M 156.1 27.9 L 156.1 12.2 L 158.5 12.2 L 158.5 27.9 L 156.1 27.9 Z M 157.3 9.6 C 156.9 9.6 156.4 9.4 156.1 9.1 C 155.8 8.8 155.6 8.4 155.6 7.9 C 155.6 7.5 155.8 7.1 156.1 6.8 C 156.4 6.5 156.9 6.3 157.3 6.3 C 157.8 6.3 158.2 6.5 158.5 6.8 C 158.9 7.1 159 7.5 159 7.9 C 159 8.4 158.9 8.8 158.5 9.1 C 158.2 9.4 157.8 9.6 157.3 9.6 Z M 169.1 28.2 C 167.6 28.2 166.3 27.9 165.3 27.2 C 164.2 26.5 163.4 25.5 162.8 24.3 C 162.3 23.1 162 21.7 162 20.1 C 162 18.5 162.3 17.1 162.9 15.9 C 163.4 14.7 164.3 13.7 165.3 13 C 166.4 12.3 167.6 12 169 12 C 170.2 12 171.1 12.2 172 12.6 C 172.9 13 173.6 13.6 174.2 14.3 C 174.8 15.1 175.1 15.9 175.3 16.9 C 175.3 16.9 172.9 16.9 172.9 16.9 C 172.7 16.2 172.3 15.5 171.6 15 C 171 14.4 170.2 14.2 169.1 14.2 C 168.1 14.2 167.3 14.4 166.6 14.9 C 165.9 15.4 165.4 16.1 165 16.9 C 164.6 17.8 164.4 18.9 164.4 20 C 164.4 21.3 164.6 22.3 165 23.2 C 165.3 24.1 165.9 24.8 166.6 25.3 C 167.3 25.8 168.1 26.1 169.1 26.1 C 169.7 26.1 170.3 26 170.8 25.7 C 171.3 25.5 171.7 25.2 172.1 24.8 C 172.4 24.4 172.7 23.9 172.9 23.3 C 172.9 23.3 175.3 23.3 175.3 23.3 C 175.1 24.2 174.8 25.1 174.3 25.8 C 173.7 26.6 173 27.1 172.1 27.6 C 171.3 28 170.2 28.2 169.1 28.2 Z M 183.3 28.3 C 182.3 28.3 181.4 28.1 180.6 27.7 C 179.8 27.3 179.1 26.8 178.7 26.1 C 178.2 25.3 178 24.5 178 23.4 C 178 22.5 178.1 21.8 178.5 21.2 C 178.8 20.7 179.3 20.2 179.9 19.9 C 180.5 19.6 181.2 19.4 181.9 19.2 C 182.6 19 183.3 18.9 184 18.8 C 185 18.7 185.8 18.6 186.4 18.5 C 187 18.5 187.4 18.4 187.7 18.2 C 188 18 188.1 17.8 188.1 17.4 C 188.1 17.4 188.1 17.3 188.1 17.3 C 188.1 16.3 187.8 15.5 187.3 15 C 186.7 14.4 185.9 14.1 184.8 14.1 C 183.6 14.1 182.7 14.4 182.1 14.9 C 181.4 15.4 181 15.9 180.7 16.5 C 180.7 16.5 178.4 15.7 178.4 15.7 C 178.8 14.7 179.4 14 180 13.4 C 180.7 12.9 181.5 12.5 182.3 12.3 C 183.1 12.1 183.9 12 184.7 12 C 185.2 12 185.8 12 186.4 12.2 C 187.1 12.3 187.7 12.5 188.4 12.9 C 189 13.3 189.5 13.8 189.9 14.6 C 190.3 15.3 190.5 16.3 190.5 17.6 C 190.51 17.55 190.5 27.9 190.5 27.9 L 188.1 27.9 L 188.1 25.8 C 188.1 25.8 187.97 25.77 188 25.8 C 187.8 26.1 187.5 26.5 187.2 26.9 C 186.8 27.3 186.3 27.6 185.6 27.9 C 185 28.1 184.2 28.3 183.3 28.3 Z M 183.7 26.1 C 184.6 26.1 185.4 25.9 186.1 25.5 C 186.8 25.2 187.3 24.7 187.6 24.1 C 187.9 23.5 188.1 22.9 188.1 22.2 C 188.1 22.2 188.1 20 188.1 20 C 188 20.1 187.8 20.2 187.4 20.3 C 187.1 20.4 186.7 20.5 186.2 20.6 C 185.8 20.7 185.4 20.7 184.9 20.8 C 184.5 20.8 184.2 20.9 183.9 20.9 C 183.3 21 182.7 21.1 182.2 21.3 C 181.6 21.5 181.2 21.7 180.9 22.1 C 180.5 22.5 180.4 23 180.4 23.6 C 180.4 24.4 180.7 25 181.3 25.5 C 181.9 25.9 182.7 26.1 183.7 26.1 Z M 197.2 7 L 197.2 27.9 L 194.8 27.9 L 194.8 7 L 197.2 7 Z M 203.9 7 L 203.9 27.9 L 201.5 27.9 L 201.5 7 L 203.9 7 Z M 209.5 33.8 C 209.1 33.8 208.8 33.8 208.4 33.7 C 208.1 33.6 207.9 33.6 207.8 33.5 C 207.8 33.5 208.4 31.4 208.4 31.4 C 209 31.5 209.5 31.6 209.9 31.5 C 210.4 31.5 210.8 31.3 211.2 30.9 C 211.5 30.6 211.8 30 212.1 29.2 C 212.12 29.21 212.6 28 212.6 28 L 206.8 12.2 L 209.4 12.2 L 213.7 24.7 L 213.9 24.7 L 218.2 12.2 L 220.8 12.2 C 220.8 12.2 214.16 30.19 214.2 30.2 C 213.9 31 213.5 31.7 213 32.2 C 212.6 32.7 212.1 33.1 211.5 33.4 C 210.9 33.7 210.3 33.8 209.5 33.8 Z " stroke="none" fill="#ffffff"/>  </g></svg>