<?xml version="1.0" standalone="no"?><!DOCTYPE svg PUBLIC "-//W3C//DTD SVG 1.1//EN" "http://www.w3.org/Graphics/SVG/1.1/DTD/svg11.dtd"><svg xmlns="http://www.w3.org/2000/svg" version="1.1" width="225px" height="143.6px" viewBox="0 -10 225 143.6" style="top:-10px">  <desc>Unclear application ￼ There’s a lack of clarity — what AI for what problem? More about this ￼</desc>  <defs/>  <g id="Polygon116061">    <path d="M 0.9 109.3 L 3.8 109.3 L 6.8 116.6 L 6.9 116.6 L 9.9 109.3 L 12.8 109.3 L 12.8 120.2 L 10.5 120.2 L 10.5 113.1 L 10.4 113.1 L 7.6 120.1 L 6.1 120.1 L 3.3 113.1 L 3.2 113.1 L 3.2 120.2 L 0.9 120.2 L 0.9 109.3 Z M 18.4 120.3 C 17.5 120.3 16.8 120.2 16.2 119.8 C 15.6 119.5 15.1 119 14.8 118.3 C 14.5 117.7 14.3 117 14.3 116.1 C 14.3 115.3 14.5 114.5 14.8 113.9 C 15.1 113.3 15.6 112.8 16.2 112.4 C 16.8 112.1 17.5 111.9 18.4 111.9 C 19.2 111.9 19.9 112.1 20.5 112.4 C 21.1 112.8 21.6 113.3 21.9 113.9 C 22.2 114.5 22.4 115.3 22.4 116.1 C 22.4 117 22.2 117.7 21.9 118.3 C 21.6 119 21.1 119.5 20.5 119.8 C 19.9 120.2 19.2 120.3 18.4 120.3 Z M 18.4 118.6 C 18.7 118.6 19.1 118.5 19.3 118.3 C 19.6 118 19.8 117.8 19.9 117.4 C 20 117 20.1 116.6 20.1 116.1 C 20.1 115.6 20 115.2 19.9 114.8 C 19.8 114.5 19.6 114.2 19.3 113.9 C 19.1 113.7 18.7 113.6 18.4 113.6 C 18 113.6 17.7 113.7 17.4 113.9 C 17.2 114.2 17 114.5 16.8 114.8 C 16.7 115.2 16.6 115.6 16.6 116.1 C 16.6 116.6 16.7 117 16.8 117.4 C 17 117.8 17.2 118 17.4 118.3 C 17.7 118.5 18 118.6 18.4 118.6 Z M 23.9 120.2 L 23.9 112 L 26.1 112 L 26.1 113.4 C 26.1 113.4 26.15 113.43 26.1 113.4 C 26.3 112.9 26.5 112.5 26.9 112.3 C 27.3 112 27.7 111.9 28.1 111.9 C 28.2 111.9 28.3 111.9 28.5 111.9 C 28.6 111.9 28.7 111.9 28.8 112 C 28.8 112 28.8 114 28.8 114 C 28.7 113.9 28.6 113.9 28.4 113.9 C 28.2 113.9 28 113.9 27.9 113.9 C 27.5 113.9 27.2 113.9 27 114.1 C 26.7 114.2 26.5 114.4 26.4 114.7 C 26.2 114.9 26.1 115.2 26.1 115.6 C 26.13 115.55 26.1 120.2 26.1 120.2 L 23.9 120.2 Z M 33.6 120.3 C 32.7 120.3 32 120.2 31.4 119.8 C 30.8 119.5 30.3 119 30 118.4 C 29.7 117.7 29.5 117 29.5 116.1 C 29.5 115.3 29.7 114.5 30 113.9 C 30.3 113.3 30.8 112.8 31.4 112.4 C 32 112.1 32.7 111.9 33.5 111.9 C 34 111.9 34.5 112 35 112.2 C 35.4 112.3 35.8 112.6 36.2 112.9 C 36.5 113.3 36.8 113.7 37 114.2 C 37.2 114.7 37.3 115.4 37.3 116 C 37.31 116.05 37.3 116.7 37.3 116.7 L 30.4 116.7 L 30.4 115.3 C 30.4 115.3 35.17 115.27 35.2 115.3 C 35.2 114.9 35.1 114.6 35 114.4 C 34.8 114.1 34.6 113.9 34.4 113.8 C 34.1 113.7 33.8 113.6 33.5 113.6 C 33.2 113.6 32.8 113.7 32.6 113.8 C 32.3 114 32.1 114.2 32 114.5 C 31.8 114.7 31.7 115 31.7 115.3 C 31.7 115.3 31.7 116.7 31.7 116.7 C 31.7 117.1 31.8 117.4 32 117.7 C 32.1 118 32.3 118.2 32.6 118.4 C 32.9 118.6 33.2 118.6 33.6 118.6 C 33.8 118.6 34.1 118.6 34.3 118.5 C 34.5 118.5 34.7 118.4 34.8 118.2 C 35 118.1 35.1 117.9 35.2 117.7 C 35.2 117.7 37.3 117.8 37.3 117.8 C 37.2 118.3 36.9 118.8 36.6 119.2 C 36.3 119.5 35.9 119.8 35.3 120 C 34.8 120.2 34.2 120.3 33.6 120.3 Z M 44.6 120.3 C 44.1 120.3 43.6 120.2 43.2 120.1 C 42.8 119.9 42.5 119.6 42.2 119.2 C 42 118.9 41.9 118.4 41.9 117.9 C 41.9 117.4 42 117.1 42.1 116.8 C 42.3 116.4 42.5 116.2 42.8 116 C 43.1 115.8 43.4 115.7 43.8 115.6 C 44.2 115.5 44.6 115.4 45 115.4 C 45.4 115.3 45.8 115.3 46.1 115.2 C 46.4 115.2 46.6 115.1 46.7 115 C 46.9 114.9 46.9 114.8 46.9 114.6 C 46.9 114.6 46.9 114.6 46.9 114.6 C 46.9 114.3 46.8 114 46.6 113.8 C 46.4 113.6 46.1 113.6 45.7 113.6 C 45.3 113.6 45 113.6 44.7 113.8 C 44.5 114 44.3 114.2 44.3 114.5 C 44.3 114.5 42.2 114.3 42.2 114.3 C 42.3 113.8 42.5 113.4 42.8 113 C 43.1 112.7 43.5 112.4 44 112.2 C 44.5 112 45.1 111.9 45.7 111.9 C 46.2 111.9 46.6 111.9 47 112.1 C 47.5 112.2 47.8 112.3 48.2 112.5 C 48.5 112.8 48.7 113.1 48.9 113.4 C 49.1 113.8 49.2 114.2 49.2 114.7 C 49.21 114.66 49.2 120.2 49.2 120.2 L 47.1 120.2 L 47.1 119 C 47.1 119 46.99 119.05 47 119 C 46.9 119.3 46.7 119.5 46.5 119.7 C 46.2 119.9 46 120.1 45.7 120.2 C 45.4 120.3 45 120.3 44.6 120.3 Z M 45.2 118.8 C 45.6 118.8 45.9 118.7 46.1 118.6 C 46.4 118.4 46.6 118.3 46.7 118 C 46.9 117.8 47 117.5 47 117.3 C 47 117.3 47 116.4 47 116.4 C 46.9 116.4 46.8 116.5 46.7 116.5 C 46.5 116.6 46.4 116.6 46.3 116.6 C 46.1 116.6 45.9 116.7 45.8 116.7 C 45.6 116.7 45.5 116.7 45.4 116.8 C 45.1 116.8 44.9 116.9 44.7 116.9 C 44.5 117 44.3 117.1 44.2 117.3 C 44.1 117.4 44.1 117.6 44.1 117.8 C 44.1 118.1 44.2 118.4 44.4 118.5 C 44.6 118.7 44.9 118.8 45.2 118.8 Z M 50.9 120.2 L 50.9 109.3 L 53.2 109.3 L 53.2 113.4 C 53.2 113.4 53.25 113.37 53.3 113.4 C 53.3 113.2 53.5 112.9 53.7 112.7 C 53.9 112.5 54.1 112.3 54.4 112.1 C 54.7 112 55.1 111.9 55.6 111.9 C 56.2 111.9 56.7 112 57.2 112.4 C 57.7 112.7 58.1 113.1 58.4 113.8 C 58.7 114.4 58.9 115.2 58.9 116.1 C 58.9 117 58.7 117.8 58.5 118.4 C 58.2 119 57.8 119.5 57.3 119.8 C 56.8 120.2 56.2 120.3 55.6 120.3 C 55.1 120.3 54.8 120.2 54.5 120.1 C 54.1 120 53.9 119.8 53.7 119.5 C 53.5 119.3 53.4 119.1 53.3 118.9 C 53.25 118.87 53.1 118.9 53.1 118.9 L 53.1 120.2 L 50.9 120.2 Z M 53.1 116.1 C 53.1 116.6 53.2 117 53.3 117.4 C 53.5 117.7 53.7 118 53.9 118.2 C 54.2 118.4 54.5 118.5 54.9 118.5 C 55.2 118.5 55.5 118.4 55.8 118.2 C 56 118 56.2 117.7 56.4 117.4 C 56.5 117 56.6 116.6 56.6 116.1 C 56.6 115.6 56.5 115.2 56.4 114.8 C 56.2 114.5 56.1 114.2 55.8 114 C 55.5 113.8 55.2 113.7 54.9 113.7 C 54.5 113.7 54.2 113.8 53.9 114 C 53.7 114.2 53.5 114.5 53.3 114.8 C 53.2 115.2 53.1 115.6 53.1 116.1 Z M 64.1 120.3 C 63.2 120.3 62.5 120.2 61.9 119.8 C 61.3 119.5 60.9 119 60.5 118.3 C 60.2 117.7 60.1 117 60.1 116.1 C 60.1 115.3 60.2 114.5 60.5 113.9 C 60.9 113.3 61.3 112.8 61.9 112.4 C 62.5 112.1 63.2 111.9 64.1 111.9 C 64.9 111.9 65.6 112.1 66.2 112.4 C 66.8 112.8 67.3 113.3 67.6 113.9 C 67.9 114.5 68.1 115.3 68.1 116.1 C 68.1 117 67.9 117.7 67.6 118.3 C 67.3 119 66.8 119.5 66.2 119.8 C 65.6 120.2 64.9 120.3 64.1 120.3 Z M 64.1 118.6 C 64.5 118.6 64.8 118.5 65 118.3 C 65.3 118 65.5 117.8 65.6 117.4 C 65.7 117 65.8 116.6 65.8 116.1 C 65.8 115.6 65.7 115.2 65.6 114.8 C 65.5 114.5 65.3 114.2 65 113.9 C 64.8 113.7 64.5 113.6 64.1 113.6 C 63.7 113.6 63.4 113.7 63.1 113.9 C 62.9 114.2 62.7 114.5 62.6 114.8 C 62.4 115.2 62.4 115.6 62.4 116.1 C 62.4 116.6 62.4 117 62.6 117.4 C 62.7 117.8 62.9 118 63.1 118.3 C 63.4 118.5 63.7 118.6 64.1 118.6 Z M 74.8 116.7 C 74.78 116.7 74.8 112 74.8 112 L 77 112 L 77 120.2 L 74.9 120.2 L 74.9 118.7 C 74.9 118.7 74.79 118.7 74.8 118.7 C 74.6 119.2 74.3 119.6 73.9 119.9 C 73.4 120.1 72.9 120.3 72.3 120.3 C 71.8 120.3 71.3 120.2 70.9 119.9 C 70.4 119.7 70.1 119.3 69.9 118.9 C 69.7 118.4 69.5 117.8 69.5 117.2 C 69.53 117.21 69.5 112 69.5 112 L 71.8 112 C 71.8 112 71.8 116.8 71.8 116.8 C 71.8 117.3 71.9 117.7 72.2 117.9 C 72.4 118.2 72.8 118.4 73.2 118.4 C 73.5 118.4 73.7 118.3 74 118.2 C 74.2 118.1 74.4 117.9 74.6 117.6 C 74.7 117.4 74.8 117.1 74.8 116.7 Z M 83.2 112 L 83.2 113.7 L 78.2 113.7 L 78.2 112 L 83.2 112 Z M 79.3 110 L 81.6 110 C 81.6 110 81.62 117.67 81.6 117.7 C 81.6 117.9 81.6 118 81.7 118.2 C 81.8 118.3 81.9 118.4 82 118.4 C 82.1 118.4 82.2 118.5 82.4 118.5 C 82.5 118.5 82.6 118.5 82.7 118.4 C 82.8 118.4 82.9 118.4 82.9 118.4 C 82.9 118.4 83.3 120.1 83.3 120.1 C 83.2 120.1 83 120.2 82.8 120.2 C 82.6 120.3 82.4 120.3 82.1 120.3 C 81.5 120.3 81 120.2 80.6 120.1 C 80.2 119.9 79.9 119.6 79.7 119.3 C 79.5 118.9 79.3 118.5 79.3 118 C 79.35 117.97 79.3 110 79.3 110 Z M 92.5 112 L 92.5 113.7 L 87.5 113.7 L 87.5 112 L 92.5 112 Z M 88.7 110 L 90.9 110 C 90.9 110 90.92 117.67 90.9 117.7 C 90.9 117.9 91 118 91 118.2 C 91.1 118.3 91.2 118.4 91.3 118.4 C 91.4 118.4 91.5 118.5 91.7 118.5 C 91.8 118.5 91.9 118.5 92 118.4 C 92.1 118.4 92.2 118.4 92.3 118.4 C 92.3 118.4 92.6 120.1 92.6 120.1 C 92.5 120.1 92.3 120.2 92.1 120.2 C 91.9 120.3 91.7 120.3 91.4 120.3 C 90.8 120.3 90.4 120.2 89.9 120.1 C 89.5 119.9 89.2 119.6 89 119.3 C 88.8 118.9 88.6 118.5 88.7 118 C 88.65 117.97 88.7 110 88.7 110 Z M 96.1 115.5 C 96.08 115.45 96.1 120.2 96.1 120.2 L 93.8 120.2 L 93.8 109.3 L 96 109.3 L 96 113.4 C 96 113.4 96.11 113.44 96.1 113.4 C 96.3 113 96.6 112.6 97 112.3 C 97.4 112 97.9 111.9 98.6 111.9 C 99.1 111.9 99.6 112 100 112.3 C 100.5 112.5 100.8 112.9 101 113.3 C 101.3 113.8 101.4 114.3 101.4 115 C 101.39 114.97 101.4 120.2 101.4 120.2 L 99.1 120.2 C 99.1 120.2 99.12 115.38 99.1 115.4 C 99.1 114.9 99 114.5 98.7 114.2 C 98.5 113.9 98.1 113.8 97.7 113.8 C 97.4 113.8 97.1 113.8 96.8 114 C 96.6 114.1 96.4 114.3 96.3 114.5 C 96.2 114.8 96.1 115.1 96.1 115.5 Z M 103.1 120.2 L 103.1 112 L 105.4 112 L 105.4 120.2 L 103.1 120.2 Z M 104.3 110.9 C 103.9 110.9 103.7 110.8 103.4 110.6 C 103.2 110.4 103.1 110.1 103.1 109.8 C 103.1 109.5 103.2 109.2 103.4 109 C 103.7 108.8 103.9 108.6 104.3 108.6 C 104.6 108.6 104.9 108.8 105.1 109 C 105.4 109.2 105.5 109.5 105.5 109.8 C 105.5 110.1 105.4 110.4 105.1 110.6 C 104.9 110.8 104.6 110.9 104.3 110.9 Z M 113.9 114.3 C 113.9 114.3 111.9 114.5 111.9 114.5 C 111.8 114.3 111.8 114.1 111.6 114 C 111.5 113.8 111.4 113.7 111.2 113.6 C 111 113.5 110.8 113.5 110.5 113.5 C 110.1 113.5 109.9 113.6 109.6 113.7 C 109.4 113.9 109.2 114.1 109.2 114.3 C 109.2 114.5 109.3 114.7 109.5 114.8 C 109.6 114.9 109.9 115.1 110.3 115.1 C 110.3 115.1 111.8 115.4 111.8 115.4 C 112.6 115.6 113.2 115.9 113.5 116.2 C 113.9 116.6 114.1 117.1 114.1 117.6 C 114.1 118.2 114 118.7 113.7 119.1 C 113.3 119.5 112.9 119.8 112.4 120 C 111.8 120.2 111.2 120.3 110.5 120.3 C 109.4 120.3 108.5 120.1 107.9 119.7 C 107.3 119.2 106.9 118.6 106.8 117.8 C 106.8 117.8 109 117.7 109 117.7 C 109.1 118 109.2 118.3 109.5 118.4 C 109.8 118.6 110.1 118.7 110.5 118.7 C 110.9 118.7 111.2 118.6 111.5 118.5 C 111.7 118.3 111.8 118.1 111.8 117.9 C 111.8 117.7 111.7 117.5 111.6 117.4 C 111.4 117.2 111.1 117.1 110.8 117.1 C 110.8 117.1 109.4 116.8 109.4 116.8 C 108.6 116.6 108 116.3 107.6 115.9 C 107.2 115.6 107 115.1 107 114.4 C 107 113.9 107.1 113.5 107.4 113.1 C 107.7 112.7 108.1 112.4 108.6 112.2 C 109.2 112 109.8 111.9 110.5 111.9 C 111.5 111.9 112.3 112.1 112.9 112.5 C 113.5 113 113.8 113.6 113.9 114.3 Z " stroke="none" fill="#10283d"/>  </g>  <g id="Polygon116060">    <path d="M 3 92.6 L 0.5 84.4 L 1.8 84.4 L 3.6 90.7 L 3.7 90.7 L 5.4 84.4 L 6.8 84.4 L 8.5 90.6 L 8.6 90.6 L 10.4 84.4 L 11.7 84.4 L 9.2 92.6 L 7.9 92.6 L 6.2 86.3 L 6 86.3 L 4.2 92.6 L 3 92.6 Z M 14.5 87.7 C 14.52 87.66 14.5 92.6 14.5 92.6 L 13.3 92.6 L 13.3 81.7 L 14.5 81.7 L 14.5 85.7 C 14.5 85.7 14.63 85.68 14.6 85.7 C 14.8 85.3 15.1 84.9 15.5 84.7 C 15.9 84.4 16.4 84.3 17 84.3 C 17.6 84.3 18.1 84.4 18.5 84.6 C 18.9 84.8 19.2 85.2 19.5 85.6 C 19.7 86.1 19.8 86.7 19.8 87.4 C 19.82 87.38 19.8 92.6 19.8 92.6 L 18.6 92.6 C 18.6 92.6 18.57 87.47 18.6 87.5 C 18.6 86.8 18.4 86.3 18.1 86 C 17.7 85.6 17.3 85.4 16.7 85.4 C 16.3 85.4 15.9 85.5 15.6 85.7 C 15.2 85.9 15 86.1 14.8 86.4 C 14.6 86.8 14.5 87.2 14.5 87.7 Z M 24.5 92.8 C 23.9 92.8 23.5 92.7 23 92.5 C 22.6 92.3 22.3 92 22 91.6 C 21.8 91.2 21.7 90.8 21.7 90.3 C 21.7 89.8 21.8 89.4 21.9 89.1 C 22.1 88.8 22.4 88.6 22.7 88.4 C 23 88.3 23.3 88.1 23.7 88.1 C 24.1 88 24.5 87.9 24.8 87.9 C 25.3 87.8 25.7 87.7 26 87.7 C 26.4 87.7 26.6 87.6 26.7 87.5 C 26.9 87.5 26.9 87.3 26.9 87.1 C 26.9 87.1 26.9 87.1 26.9 87.1 C 26.9 86.5 26.8 86.1 26.5 85.8 C 26.2 85.5 25.8 85.4 25.2 85.4 C 24.6 85.4 24.1 85.5 23.8 85.8 C 23.5 86.1 23.2 86.3 23.1 86.6 C 23.1 86.6 21.9 86.2 21.9 86.2 C 22.1 85.7 22.4 85.3 22.7 85 C 23.1 84.8 23.5 84.6 23.9 84.5 C 24.3 84.3 24.8 84.3 25.2 84.3 C 25.4 84.3 25.7 84.3 26.1 84.4 C 26.4 84.4 26.8 84.6 27.1 84.8 C 27.4 85 27.7 85.2 27.9 85.6 C 28.1 86 28.2 86.5 28.2 87.2 C 28.2 87.19 28.2 92.6 28.2 92.6 L 26.9 92.6 L 26.9 91.5 C 26.9 91.5 26.88 91.47 26.9 91.5 C 26.8 91.7 26.7 91.8 26.5 92 C 26.3 92.2 26 92.4 25.7 92.6 C 25.3 92.7 24.9 92.8 24.5 92.8 Z M 24.6 91.6 C 25.1 91.6 25.6 91.5 25.9 91.4 C 26.2 91.2 26.5 90.9 26.7 90.6 C 26.9 90.3 26.9 90 26.9 89.6 C 26.9 89.6 26.9 88.5 26.9 88.5 C 26.9 88.5 26.8 88.6 26.6 88.6 C 26.4 88.7 26.2 88.7 26 88.8 C 25.7 88.8 25.5 88.8 25.3 88.9 C 25.1 88.9 24.9 88.9 24.8 88.9 C 24.4 89 24.1 89 23.9 89.1 C 23.6 89.2 23.3 89.4 23.2 89.6 C 23 89.8 22.9 90 22.9 90.3 C 22.9 90.8 23.1 91.1 23.4 91.3 C 23.7 91.5 24.1 91.6 24.6 91.6 Z M 33.9 84.4 L 33.9 85.5 L 29.6 85.5 L 29.6 84.4 L 33.9 84.4 Z M 30.8 82.4 L 32.1 82.4 C 32.1 82.4 32.11 90.24 32.1 90.2 C 32.1 90.6 32.2 90.9 32.3 91 C 32.4 91.2 32.5 91.3 32.7 91.4 C 32.8 91.4 33 91.5 33.2 91.5 C 33.3 91.5 33.4 91.5 33.5 91.4 C 33.6 91.4 33.7 91.4 33.7 91.4 C 33.7 91.4 34 92.5 34 92.5 C 33.9 92.6 33.8 92.6 33.6 92.6 C 33.5 92.7 33.3 92.7 33.1 92.7 C 32.7 92.7 32.4 92.6 32 92.5 C 31.7 92.3 31.4 92.1 31.2 91.8 C 31 91.4 30.8 91.1 30.8 90.6 C 30.85 90.58 30.8 82.4 30.8 82.4 Z M 40.6 92.6 L 39.2 92.6 L 43.2 81.7 L 44.6 81.7 L 48.6 92.6 L 47.2 92.6 L 43.9 83.4 L 43.8 83.4 L 40.6 92.6 Z M 41.1 88.3 L 46.7 88.3 L 46.7 89.5 L 41.1 89.5 L 41.1 88.3 Z M 51.6 81.7 L 51.6 92.6 L 50.3 92.6 L 50.3 81.7 L 51.6 81.7 Z M 62 84.4 L 62 85.5 L 57.5 85.5 L 57.5 84.4 L 62 84.4 Z M 58.9 92.6 C 58.9 92.6 58.87 83.27 58.9 83.3 C 58.9 82.8 59 82.4 59.2 82.1 C 59.4 81.8 59.7 81.6 60.1 81.4 C 60.4 81.2 60.8 81.2 61.2 81.2 C 61.5 81.2 61.7 81.2 61.9 81.2 C 62.1 81.3 62.3 81.3 62.4 81.4 C 62.4 81.4 62 82.5 62 82.5 C 61.9 82.4 61.8 82.4 61.7 82.4 C 61.6 82.3 61.5 82.3 61.3 82.3 C 60.9 82.3 60.6 82.4 60.4 82.6 C 60.2 82.9 60.1 83.2 60.1 83.6 C 60.12 83.57 60.1 92.6 60.1 92.6 L 58.9 92.6 Z M 66.7 92.8 C 65.9 92.8 65.3 92.6 64.7 92.2 C 64.2 91.9 63.8 91.4 63.4 90.7 C 63.1 90.1 63 89.4 63 88.5 C 63 87.7 63.1 86.9 63.4 86.3 C 63.8 85.7 64.2 85.2 64.7 84.8 C 65.3 84.5 65.9 84.3 66.7 84.3 C 67.4 84.3 68.1 84.5 68.6 84.8 C 69.2 85.2 69.6 85.7 69.9 86.3 C 70.2 86.9 70.4 87.7 70.4 88.5 C 70.4 89.4 70.2 90.1 69.9 90.7 C 69.6 91.4 69.2 91.9 68.6 92.2 C 68.1 92.6 67.4 92.8 66.7 92.8 Z M 66.7 91.6 C 67.2 91.6 67.7 91.5 68.1 91.2 C 68.4 90.9 68.7 90.5 68.9 90.1 C 69 89.6 69.1 89.1 69.1 88.5 C 69.1 88 69 87.5 68.9 87 C 68.7 86.5 68.4 86.2 68.1 85.9 C 67.7 85.6 67.2 85.4 66.7 85.4 C 66.1 85.4 65.7 85.6 65.3 85.9 C 64.9 86.2 64.7 86.5 64.5 87 C 64.3 87.5 64.2 88 64.2 88.5 C 64.2 89.1 64.3 89.6 64.5 90.1 C 64.7 90.5 64.9 90.9 65.3 91.2 C 65.7 91.5 66.1 91.6 66.7 91.6 Z M 72.3 92.6 L 72.3 84.4 L 73.5 84.4 L 73.5 85.6 C 73.5 85.6 73.61 85.64 73.6 85.6 C 73.8 85.2 74 84.9 74.4 84.7 C 74.8 84.4 75.3 84.3 75.7 84.3 C 75.8 84.3 75.9 84.3 76.1 84.3 C 76.2 84.3 76.3 84.3 76.4 84.3 C 76.4 84.3 76.4 85.6 76.4 85.6 C 76.4 85.6 76.3 85.5 76.1 85.5 C 76 85.5 75.8 85.5 75.6 85.5 C 75.2 85.5 74.9 85.6 74.6 85.7 C 74.3 85.9 74 86.1 73.8 86.4 C 73.7 86.7 73.6 87 73.6 87.4 C 73.57 87.4 73.6 92.6 73.6 92.6 L 72.3 92.6 Z M 84 92.6 L 81.5 84.4 L 82.8 84.4 L 84.6 90.7 L 84.6 90.7 L 86.4 84.4 L 87.7 84.4 L 89.5 90.6 L 89.5 90.6 L 91.3 84.4 L 92.6 84.4 L 90.1 92.6 L 88.9 92.6 L 87.1 86.3 L 87 86.3 L 85.2 92.6 L 84 92.6 Z M 95.5 87.7 C 95.48 87.66 95.5 92.6 95.5 92.6 L 94.2 92.6 L 94.2 81.7 L 95.5 81.7 L 95.5 85.7 C 95.5 85.7 95.59 85.68 95.6 85.7 C 95.8 85.3 96.1 84.9 96.5 84.7 C 96.8 84.4 97.4 84.3 98 84.3 C 98.6 84.3 99 84.4 99.5 84.6 C 99.9 84.8 100.2 85.2 100.4 85.6 C 100.7 86.1 100.8 86.7 100.8 87.4 C 100.78 87.38 100.8 92.6 100.8 92.6 L 99.5 92.6 C 99.5 92.6 99.53 87.47 99.5 87.5 C 99.5 86.8 99.4 86.3 99 86 C 98.7 85.6 98.2 85.4 97.6 85.4 C 97.2 85.4 96.9 85.5 96.5 85.7 C 96.2 85.9 95.9 86.1 95.8 86.4 C 95.6 86.8 95.5 87.2 95.5 87.7 Z M 105.4 92.8 C 104.9 92.8 104.4 92.7 104 92.5 C 103.6 92.3 103.2 92 103 91.6 C 102.7 91.2 102.6 90.8 102.6 90.3 C 102.6 89.8 102.7 89.4 102.9 89.1 C 103.1 88.8 103.3 88.6 103.6 88.4 C 103.9 88.3 104.3 88.1 104.7 88.1 C 105 88 105.4 87.9 105.8 87.9 C 106.3 87.8 106.7 87.7 107 87.7 C 107.3 87.7 107.5 87.6 107.7 87.5 C 107.8 87.5 107.9 87.3 107.9 87.1 C 107.9 87.1 107.9 87.1 107.9 87.1 C 107.9 86.5 107.8 86.1 107.5 85.8 C 107.2 85.5 106.8 85.4 106.2 85.4 C 105.6 85.4 105.1 85.5 104.8 85.8 C 104.4 86.1 104.2 86.3 104 86.6 C 104 86.6 102.9 86.2 102.9 86.2 C 103.1 85.7 103.4 85.3 103.7 85 C 104.1 84.8 104.5 84.6 104.9 84.5 C 105.3 84.3 105.7 84.3 106.1 84.3 C 106.4 84.3 106.7 84.3 107 84.4 C 107.4 84.4 107.7 84.6 108 84.8 C 108.4 85 108.6 85.2 108.8 85.6 C 109.1 86 109.2 86.5 109.2 87.2 C 109.16 87.19 109.2 92.6 109.2 92.6 L 107.9 92.6 L 107.9 91.5 C 107.9 91.5 107.84 91.47 107.8 91.5 C 107.8 91.7 107.6 91.8 107.4 92 C 107.2 92.2 107 92.4 106.6 92.6 C 106.3 92.7 105.9 92.8 105.4 92.8 Z M 105.6 91.6 C 106.1 91.6 106.5 91.5 106.9 91.4 C 107.2 91.2 107.5 90.9 107.6 90.6 C 107.8 90.3 107.9 90 107.9 89.6 C 107.9 89.6 107.9 88.5 107.9 88.5 C 107.9 88.5 107.7 88.6 107.6 88.6 C 107.4 88.7 107.2 88.7 106.9 88.8 C 106.7 88.8 106.5 88.8 106.3 88.9 C 106 88.9 105.9 88.9 105.7 88.9 C 105.4 89 105.1 89 104.8 89.1 C 104.5 89.2 104.3 89.4 104.1 89.6 C 104 89.8 103.9 90 103.9 90.3 C 103.9 90.8 104 91.1 104.4 91.3 C 104.7 91.5 105.1 91.6 105.6 91.6 Z M 114.8 84.4 L 114.8 85.5 L 110.6 85.5 L 110.6 84.4 L 114.8 84.4 Z M 111.8 82.4 L 113.1 82.4 C 113.1 82.4 113.07 90.24 113.1 90.2 C 113.1 90.6 113.1 90.9 113.2 91 C 113.3 91.2 113.5 91.3 113.6 91.4 C 113.8 91.4 114 91.5 114.2 91.5 C 114.3 91.5 114.4 91.5 114.5 91.4 C 114.6 91.4 114.7 91.4 114.7 91.4 C 114.7 91.4 115 92.5 115 92.5 C 114.9 92.6 114.8 92.6 114.6 92.6 C 114.5 92.7 114.3 92.7 114 92.7 C 113.7 92.7 113.3 92.6 113 92.5 C 112.6 92.3 112.4 92.1 112.1 91.8 C 111.9 91.4 111.8 91.1 111.8 90.6 C 111.81 90.58 111.8 82.4 111.8 82.4 Z M 120.9 95.7 L 120.9 84.4 L 122.1 84.4 L 122.1 85.7 C 122.1 85.7 122.29 85.7 122.3 85.7 C 122.4 85.6 122.5 85.4 122.7 85.2 C 122.8 84.9 123.1 84.7 123.4 84.6 C 123.7 84.4 124.1 84.3 124.7 84.3 C 125.3 84.3 126 84.5 126.5 84.8 C 127 85.2 127.4 85.6 127.7 86.3 C 128 86.9 128.2 87.7 128.2 88.5 C 128.2 89.4 128 90.1 127.7 90.8 C 127.4 91.4 127 91.9 126.5 92.2 C 126 92.6 125.4 92.8 124.7 92.8 C 124.2 92.8 123.7 92.7 123.4 92.5 C 123.1 92.3 122.9 92.1 122.7 91.9 C 122.5 91.7 122.4 91.5 122.3 91.3 C 122.29 91.32 122.2 91.3 122.2 91.3 L 122.2 95.7 L 120.9 95.7 Z M 122.2 88.5 C 122.2 89.1 122.3 89.7 122.4 90.1 C 122.6 90.6 122.9 91 123.2 91.2 C 123.6 91.5 124 91.6 124.5 91.6 C 125 91.6 125.5 91.5 125.8 91.2 C 126.2 90.9 126.4 90.5 126.6 90.1 C 126.8 89.6 126.9 89.1 126.9 88.5 C 126.9 87.9 126.8 87.4 126.6 86.9 C 126.5 86.5 126.2 86.1 125.8 85.8 C 125.5 85.6 125 85.4 124.5 85.4 C 124 85.4 123.6 85.6 123.2 85.8 C 122.9 86.1 122.6 86.4 122.4 86.9 C 122.3 87.3 122.2 87.9 122.2 88.5 Z M 130.1 92.6 L 130.1 84.4 L 131.3 84.4 L 131.3 85.6 C 131.3 85.6 131.37 85.64 131.4 85.6 C 131.5 85.2 131.8 84.9 132.2 84.7 C 132.6 84.4 133 84.3 133.5 84.3 C 133.6 84.3 133.7 84.3 133.8 84.3 C 134 84.3 134.1 84.3 134.2 84.3 C 134.2 84.3 134.2 85.6 134.2 85.6 C 134.1 85.6 134 85.5 133.9 85.5 C 133.7 85.5 133.6 85.5 133.4 85.5 C 133 85.5 132.6 85.6 132.3 85.7 C 132 85.9 131.8 86.1 131.6 86.4 C 131.4 86.7 131.3 87 131.3 87.4 C 131.33 87.4 131.3 92.6 131.3 92.6 L 130.1 92.6 Z M 138.8 92.8 C 138.1 92.8 137.4 92.6 136.9 92.2 C 136.3 91.9 135.9 91.4 135.6 90.7 C 135.3 90.1 135.1 89.4 135.1 88.5 C 135.1 87.7 135.3 86.9 135.6 86.3 C 135.9 85.7 136.3 85.2 136.9 84.8 C 137.4 84.5 138.1 84.3 138.8 84.3 C 139.5 84.3 140.2 84.5 140.7 84.8 C 141.3 85.2 141.7 85.7 142 86.3 C 142.4 86.9 142.5 87.7 142.5 88.5 C 142.5 89.4 142.4 90.1 142 90.7 C 141.7 91.4 141.3 91.9 140.7 92.2 C 140.2 92.6 139.5 92.8 138.8 92.8 Z M 138.8 91.6 C 139.4 91.6 139.8 91.5 140.2 91.2 C 140.6 90.9 140.8 90.5 141 90.1 C 141.2 89.6 141.3 89.1 141.3 88.5 C 141.3 88 141.2 87.5 141 87 C 140.8 86.5 140.6 86.2 140.2 85.9 C 139.8 85.6 139.4 85.4 138.8 85.4 C 138.2 85.4 137.8 85.6 137.4 85.9 C 137.1 86.2 136.8 86.5 136.6 87 C 136.4 87.5 136.4 88 136.4 88.5 C 136.4 89.1 136.4 89.6 136.6 90.1 C 136.8 90.5 137.1 90.9 137.4 91.2 C 137.8 91.5 138.2 91.6 138.8 91.6 Z M 144.5 92.6 L 144.5 81.7 L 145.8 81.7 L 145.8 85.7 C 145.8 85.7 145.87 85.7 145.9 85.7 C 146 85.6 146.1 85.4 146.3 85.2 C 146.4 84.9 146.7 84.7 147 84.6 C 147.3 84.4 147.7 84.3 148.2 84.3 C 148.9 84.3 149.5 84.5 150.1 84.8 C 150.6 85.2 151 85.6 151.3 86.3 C 151.6 86.9 151.7 87.7 151.7 88.5 C 151.7 89.4 151.6 90.1 151.3 90.8 C 151 91.4 150.6 91.9 150.1 92.2 C 149.5 92.6 148.9 92.8 148.3 92.8 C 147.7 92.8 147.3 92.7 147 92.5 C 146.7 92.3 146.4 92.1 146.3 91.9 C 146.1 91.7 146 91.5 145.9 91.3 C 145.87 91.32 145.7 91.3 145.7 91.3 L 145.7 92.6 L 144.5 92.6 Z M 145.7 88.5 C 145.7 89.1 145.8 89.7 146 90.1 C 146.2 90.6 146.5 91 146.8 91.2 C 147.2 91.5 147.6 91.6 148.1 91.6 C 148.6 91.6 149.1 91.5 149.4 91.2 C 149.8 90.9 150 90.5 150.2 90.1 C 150.4 89.6 150.5 89.1 150.5 88.5 C 150.5 87.9 150.4 87.4 150.2 86.9 C 150 86.5 149.8 86.1 149.4 85.8 C 149.1 85.6 148.6 85.4 148.1 85.4 C 147.6 85.4 147.1 85.6 146.8 85.8 C 146.5 86.1 146.2 86.4 146 86.9 C 145.8 87.3 145.7 87.9 145.7 88.5 Z M 154.9 81.7 L 154.9 92.6 L 153.7 92.6 L 153.7 81.7 L 154.9 81.7 Z M 160.7 92.8 C 159.9 92.8 159.2 92.6 158.6 92.2 C 158.1 91.9 157.6 91.4 157.3 90.8 C 157 90.1 156.9 89.4 156.9 88.6 C 156.9 87.7 157 87 157.3 86.3 C 157.6 85.7 158.1 85.2 158.6 84.8 C 159.2 84.5 159.8 84.3 160.5 84.3 C 161 84.3 161.4 84.4 161.8 84.5 C 162.2 84.6 162.6 84.9 162.9 85.2 C 163.3 85.5 163.5 85.9 163.8 86.5 C 164 87 164.1 87.6 164.1 88.4 C 164.05 88.38 164.1 88.9 164.1 88.9 L 157.7 88.9 L 157.7 87.8 C 157.7 87.8 162.78 87.83 162.8 87.8 C 162.8 87.4 162.7 87 162.5 86.6 C 162.3 86.2 162.1 85.9 161.7 85.7 C 161.4 85.5 161 85.4 160.5 85.4 C 160 85.4 159.6 85.5 159.2 85.8 C 158.9 86 158.6 86.4 158.4 86.8 C 158.2 87.1 158.1 87.6 158.1 88 C 158.1 88 158.1 88.7 158.1 88.7 C 158.1 89.4 158.2 89.9 158.4 90.3 C 158.6 90.7 158.9 91.1 159.3 91.3 C 159.7 91.5 160.2 91.6 160.7 91.6 C 161 91.6 161.3 91.6 161.6 91.5 C 161.8 91.4 162.1 91.2 162.3 91.1 C 162.5 90.9 162.6 90.6 162.7 90.3 C 162.7 90.3 163.9 90.7 163.9 90.7 C 163.8 91.1 163.6 91.5 163.3 91.8 C 163 92.1 162.6 92.3 162.2 92.5 C 161.7 92.7 161.2 92.8 160.7 92.8 Z M 166 92.6 L 166 84.4 L 167.2 84.4 L 167.2 85.7 C 167.2 85.7 167.29 85.68 167.3 85.7 C 167.5 85.2 167.7 84.9 168.1 84.7 C 168.5 84.4 169 84.3 169.5 84.3 C 170 84.3 170.5 84.4 170.8 84.7 C 171.2 84.9 171.5 85.2 171.7 85.7 C 171.7 85.7 171.8 85.7 171.8 85.7 C 172 85.3 172.3 84.9 172.7 84.7 C 173.1 84.4 173.6 84.3 174.2 84.3 C 175 84.3 175.5 84.5 176 85 C 176.5 85.4 176.7 86.1 176.7 87.1 C 176.71 87.11 176.7 92.6 176.7 92.6 L 175.5 92.6 C 175.5 92.6 175.45 87.11 175.5 87.1 C 175.5 86.5 175.3 86.1 175 85.8 C 174.6 85.6 174.2 85.4 173.8 85.4 C 173.2 85.4 172.8 85.6 172.5 85.9 C 172.1 86.3 172 86.7 172 87.3 C 171.98 87.26 172 92.6 172 92.6 L 170.7 92.6 C 170.7 92.6 170.7 86.98 170.7 87 C 170.7 86.5 170.6 86.1 170.3 85.9 C 169.9 85.6 169.6 85.4 169.1 85.4 C 168.8 85.4 168.5 85.5 168.2 85.7 C 167.9 85.9 167.7 86.1 167.5 86.4 C 167.3 86.7 167.2 87.1 167.2 87.5 C 167.23 87.47 167.2 92.6 167.2 92.6 L 166 92.6 Z M 180.1 89.5 C 180.1 89.5 180.09 89.45 180.1 89.4 C 180.1 88.8 180.2 88.2 180.3 87.8 C 180.4 87.4 180.6 87.1 180.9 86.9 C 181.1 86.6 181.4 86.4 181.8 86.2 C 182 86 182.2 85.9 182.3 85.7 C 182.5 85.5 182.6 85.3 182.7 85.1 C 182.8 84.9 182.9 84.6 182.9 84.3 C 182.9 84 182.8 83.7 182.6 83.4 C 182.5 83.2 182.3 83 182 82.8 C 181.7 82.7 181.4 82.6 181.1 82.6 C 180.8 82.6 180.5 82.7 180.2 82.8 C 180 82.9 179.7 83.1 179.6 83.4 C 179.4 83.6 179.3 84 179.2 84.4 C 179.2 84.4 177.9 84.4 177.9 84.4 C 177.9 83.8 178.1 83.3 178.4 82.8 C 178.7 82.4 179 82.1 179.5 81.9 C 180 81.6 180.5 81.5 181.1 81.5 C 181.7 81.5 182.2 81.6 182.7 81.9 C 183.2 82.1 183.5 82.5 183.8 82.9 C 184 83.4 184.2 83.8 184.2 84.4 C 184.2 84.8 184.1 85.1 184 85.5 C 183.9 85.8 183.7 86.1 183.5 86.3 C 183.2 86.6 183 86.8 182.7 87 C 182.4 87.2 182.1 87.4 181.9 87.6 C 181.7 87.8 181.6 88.1 181.5 88.3 C 181.4 88.6 181.4 89 181.4 89.4 C 181.37 89.45 181.4 89.5 181.4 89.5 L 180.1 89.5 Z M 180.8 92.7 C 180.5 92.7 180.3 92.6 180.1 92.4 C 179.9 92.2 179.8 92 179.8 91.7 C 179.8 91.4 179.9 91.2 180.1 91 C 180.3 90.8 180.5 90.7 180.8 90.7 C 181 90.7 181.3 90.8 181.4 91 C 181.6 91.2 181.7 91.4 181.7 91.7 C 181.7 91.9 181.7 92 181.6 92.2 C 181.5 92.3 181.4 92.4 181.3 92.5 C 181.1 92.6 181 92.7 180.8 92.7 Z " stroke="none" fill="#000"/>  </g>  <g id="Polygon116059">    <path d="M 0.7 63.6 L 0.7 62.5 L 8.9 62.5 L 8.9 63.6 L 5.5 63.6 L 5.5 73.4 L 4.2 73.4 L 4.2 63.6 L 0.7 63.6 Z M 11.9 68.5 C 11.92 68.46 11.9 73.4 11.9 73.4 L 10.7 73.4 L 10.7 62.5 L 11.9 62.5 L 11.9 66.5 C 11.9 66.5 12.02 66.48 12 66.5 C 12.2 66.1 12.5 65.7 12.9 65.5 C 13.3 65.2 13.8 65.1 14.4 65.1 C 15 65.1 15.5 65.2 15.9 65.4 C 16.3 65.6 16.6 66 16.9 66.4 C 17.1 66.9 17.2 67.5 17.2 68.2 C 17.22 68.18 17.2 73.4 17.2 73.4 L 16 73.4 C 16 73.4 15.96 68.27 16 68.3 C 16 67.6 15.8 67.1 15.5 66.8 C 15.1 66.4 14.7 66.2 14.1 66.2 C 13.7 66.2 13.3 66.3 13 66.5 C 12.6 66.7 12.4 66.9 12.2 67.2 C 12 67.6 11.9 68 11.9 68.5 Z M 22.9 73.6 C 22.1 73.6 21.5 73.4 20.9 73 C 20.3 72.7 19.9 72.2 19.6 71.6 C 19.3 70.9 19.1 70.2 19.1 69.4 C 19.1 68.5 19.3 67.8 19.6 67.1 C 19.9 66.5 20.3 66 20.9 65.6 C 21.4 65.3 22.1 65.1 22.8 65.1 C 23.2 65.1 23.6 65.2 24.1 65.3 C 24.5 65.4 24.9 65.7 25.2 66 C 25.5 66.3 25.8 66.7 26 67.3 C 26.2 67.8 26.3 68.4 26.3 69.2 C 26.31 69.18 26.3 69.7 26.3 69.7 L 20 69.7 L 20 68.6 C 20 68.6 25.04 68.63 25 68.6 C 25 68.2 24.9 67.8 24.8 67.4 C 24.6 67 24.3 66.7 24 66.5 C 23.6 66.3 23.3 66.2 22.8 66.2 C 22.3 66.2 21.9 66.3 21.5 66.6 C 21.1 66.8 20.9 67.2 20.7 67.6 C 20.5 67.9 20.4 68.4 20.4 68.8 C 20.4 68.8 20.4 69.5 20.4 69.5 C 20.4 70.2 20.5 70.7 20.7 71.1 C 20.9 71.5 21.2 71.9 21.6 72.1 C 22 72.3 22.4 72.4 22.9 72.4 C 23.3 72.4 23.6 72.4 23.8 72.3 C 24.1 72.2 24.3 72 24.5 71.9 C 24.7 71.7 24.9 71.4 25 71.1 C 25 71.1 26.2 71.5 26.2 71.5 C 26.1 71.9 25.8 72.3 25.5 72.6 C 25.2 72.9 24.9 73.1 24.4 73.3 C 24 73.5 23.5 73.6 22.9 73.6 Z M 28.2 73.4 L 28.2 65.2 L 29.4 65.2 L 29.4 66.4 C 29.4 66.4 29.53 66.44 29.5 66.4 C 29.7 66 30 65.7 30.3 65.5 C 30.7 65.2 31.2 65.1 31.7 65.1 C 31.8 65.1 31.9 65.1 32 65.1 C 32.1 65.1 32.3 65.1 32.3 65.1 C 32.3 65.1 32.3 66.4 32.3 66.4 C 32.3 66.4 32.2 66.3 32 66.3 C 31.9 66.3 31.7 66.3 31.6 66.3 C 31.2 66.3 30.8 66.4 30.5 66.5 C 30.2 66.7 29.9 66.9 29.8 67.2 C 29.6 67.5 29.5 67.8 29.5 68.2 C 29.49 68.2 29.5 73.4 29.5 73.4 L 28.2 73.4 Z M 37.1 73.6 C 36.3 73.6 35.6 73.4 35 73 C 34.5 72.7 34 72.2 33.7 71.6 C 33.4 70.9 33.3 70.2 33.3 69.4 C 33.3 68.5 33.4 67.8 33.7 67.1 C 34 66.5 34.5 66 35 65.6 C 35.6 65.3 36.2 65.1 36.9 65.1 C 37.4 65.1 37.8 65.2 38.2 65.3 C 38.6 65.4 39 65.7 39.3 66 C 39.7 66.3 40 66.7 40.2 67.3 C 40.4 67.8 40.5 68.4 40.5 69.2 C 40.46 69.18 40.5 69.7 40.5 69.7 L 34.2 69.7 L 34.2 68.6 C 34.2 68.6 39.18 68.63 39.2 68.6 C 39.2 68.2 39.1 67.8 38.9 67.4 C 38.7 67 38.5 66.7 38.1 66.5 C 37.8 66.3 37.4 66.2 36.9 66.2 C 36.4 66.2 36 66.3 35.7 66.6 C 35.3 66.8 35 67.2 34.8 67.6 C 34.6 67.9 34.5 68.4 34.5 68.8 C 34.5 68.8 34.5 69.5 34.5 69.5 C 34.5 70.2 34.6 70.7 34.8 71.1 C 35.1 71.5 35.4 71.9 35.7 72.1 C 36.1 72.3 36.6 72.4 37.1 72.4 C 37.4 72.4 37.7 72.4 38 72.3 C 38.2 72.2 38.5 72 38.7 71.9 C 38.9 71.7 39 71.4 39.1 71.1 C 39.1 71.1 40.3 71.5 40.3 71.5 C 40.2 71.9 40 72.3 39.7 72.6 C 39.4 72.9 39 73.1 38.6 73.3 C 38.1 73.5 37.6 73.6 37.1 73.6 Z M 43.4 62.5 C 43.4 62.5 43.43 63.43 43.4 63.4 C 43.4 63.7 43.4 64 43.3 64.4 C 43.2 64.7 43 65 42.8 65.3 C 42.6 65.6 42.4 65.9 42.1 66.1 C 42.1 66.1 41.4 65.6 41.4 65.6 C 41.6 65.2 41.8 64.9 42 64.6 C 42.2 64.2 42.2 63.8 42.2 63.5 C 42.24 63.45 42.2 62.5 42.2 62.5 L 43.4 62.5 Z M 50.5 67 C 50.5 67 49.3 67.4 49.3 67.4 C 49.3 67.2 49.2 67 49 66.8 C 48.9 66.6 48.7 66.5 48.5 66.4 C 48.2 66.2 47.9 66.2 47.6 66.2 C 47.1 66.2 46.7 66.3 46.3 66.5 C 46 66.8 45.8 67 45.8 67.4 C 45.8 67.7 45.9 68 46.2 68.1 C 46.4 68.3 46.8 68.5 47.2 68.6 C 47.2 68.6 48.5 68.9 48.5 68.9 C 49.2 69.1 49.7 69.3 50.1 69.7 C 50.4 70.1 50.6 70.5 50.6 71.1 C 50.6 71.6 50.5 72 50.2 72.4 C 50 72.7 49.6 73 49.1 73.2 C 48.6 73.4 48.1 73.6 47.4 73.6 C 46.6 73.6 45.9 73.4 45.4 73 C 44.8 72.6 44.5 72.1 44.3 71.4 C 44.3 71.4 45.5 71.1 45.5 71.1 C 45.6 71.6 45.8 71.9 46.2 72.1 C 46.5 72.3 46.9 72.4 47.4 72.4 C 48 72.4 48.5 72.3 48.8 72.1 C 49.2 71.8 49.3 71.5 49.3 71.2 C 49.3 70.9 49.2 70.6 49 70.4 C 48.8 70.3 48.5 70.1 48.1 70 C 48.1 70 46.8 69.7 46.8 69.7 C 46 69.5 45.5 69.2 45.1 68.9 C 44.8 68.5 44.6 68 44.6 67.5 C 44.6 67 44.7 66.6 45 66.2 C 45.2 65.9 45.6 65.6 46 65.4 C 46.5 65.2 47 65.1 47.6 65.1 C 48.4 65.1 49 65.3 49.5 65.6 C 50 66 50.3 66.5 50.5 67 Z M 59.2 73.6 C 58.6 73.6 58.2 73.5 57.7 73.3 C 57.3 73.1 57 72.8 56.7 72.4 C 56.5 72 56.4 71.6 56.4 71.1 C 56.4 70.6 56.5 70.2 56.6 69.9 C 56.8 69.6 57.1 69.4 57.4 69.2 C 57.7 69.1 58 68.9 58.4 68.9 C 58.8 68.8 59.2 68.7 59.5 68.7 C 60 68.6 60.4 68.5 60.7 68.5 C 61.1 68.5 61.3 68.4 61.4 68.3 C 61.6 68.3 61.6 68.1 61.6 67.9 C 61.6 67.9 61.6 67.9 61.6 67.9 C 61.6 67.3 61.5 66.9 61.2 66.6 C 60.9 66.3 60.5 66.2 59.9 66.2 C 59.3 66.2 58.8 66.3 58.5 66.6 C 58.2 66.9 57.9 67.1 57.8 67.4 C 57.8 67.4 56.6 67 56.6 67 C 56.8 66.5 57.1 66.1 57.4 65.8 C 57.8 65.6 58.2 65.4 58.6 65.3 C 59 65.1 59.5 65.1 59.9 65.1 C 60.1 65.1 60.4 65.1 60.8 65.2 C 61.1 65.2 61.5 65.4 61.8 65.6 C 62.1 65.8 62.4 66 62.6 66.4 C 62.8 66.8 62.9 67.3 62.9 68 C 62.9 67.99 62.9 73.4 62.9 73.4 L 61.6 73.4 L 61.6 72.3 C 61.6 72.3 61.58 72.27 61.6 72.3 C 61.5 72.5 61.4 72.6 61.2 72.8 C 61 73 60.7 73.2 60.4 73.4 C 60 73.5 59.6 73.6 59.2 73.6 Z M 59.3 72.4 C 59.8 72.4 60.3 72.3 60.6 72.2 C 60.9 72 61.2 71.7 61.4 71.4 C 61.6 71.1 61.6 70.8 61.6 70.4 C 61.6 70.4 61.6 69.3 61.6 69.3 C 61.6 69.3 61.5 69.4 61.3 69.4 C 61.1 69.5 60.9 69.5 60.7 69.6 C 60.4 69.6 60.2 69.6 60 69.7 C 59.8 69.7 59.6 69.7 59.5 69.7 C 59.1 69.8 58.8 69.8 58.6 69.9 C 58.3 70 58 70.2 57.9 70.4 C 57.7 70.6 57.6 70.8 57.6 71.1 C 57.6 71.6 57.8 71.9 58.1 72.1 C 58.4 72.3 58.8 72.4 59.3 72.4 Z M 70.7 62.5 L 70.7 73.4 L 69.4 73.4 L 69.4 62.5 L 70.7 62.5 Z M 75.4 73.6 C 74.9 73.6 74.4 73.5 74 73.3 C 73.5 73.1 73.2 72.8 73 72.4 C 72.7 72 72.6 71.6 72.6 71.1 C 72.6 70.6 72.7 70.2 72.9 69.9 C 73 69.6 73.3 69.4 73.6 69.2 C 73.9 69.1 74.3 68.9 74.6 68.9 C 75 68.8 75.4 68.7 75.8 68.7 C 76.3 68.6 76.7 68.5 77 68.5 C 77.3 68.5 77.5 68.4 77.7 68.3 C 77.8 68.3 77.9 68.1 77.9 67.9 C 77.9 67.9 77.9 67.9 77.9 67.9 C 77.9 67.3 77.7 66.9 77.4 66.6 C 77.2 66.3 76.7 66.2 76.1 66.2 C 75.5 66.2 75.1 66.3 74.7 66.6 C 74.4 66.9 74.1 67.1 74 67.4 C 74 67.4 72.8 67 72.8 67 C 73 66.5 73.3 66.1 73.7 65.8 C 74 65.6 74.4 65.4 74.8 65.3 C 75.3 65.1 75.7 65.1 76.1 65.1 C 76.4 65.1 76.7 65.1 77 65.2 C 77.3 65.2 77.7 65.4 78 65.6 C 78.3 65.8 78.6 66 78.8 66.4 C 79 66.8 79.1 67.3 79.1 68 C 79.12 67.99 79.1 73.4 79.1 73.4 L 77.9 73.4 L 77.9 72.3 C 77.9 72.3 77.8 72.27 77.8 72.3 C 77.7 72.5 77.6 72.6 77.4 72.8 C 77.2 73 76.9 73.2 76.6 73.4 C 76.3 73.5 75.9 73.6 75.4 73.6 Z M 75.6 72.4 C 76.1 72.4 76.5 72.3 76.8 72.2 C 77.2 72 77.4 71.7 77.6 71.4 C 77.8 71.1 77.9 70.8 77.9 70.4 C 77.9 70.4 77.9 69.3 77.9 69.3 C 77.8 69.3 77.7 69.4 77.5 69.4 C 77.3 69.5 77.1 69.5 76.9 69.6 C 76.7 69.6 76.4 69.6 76.2 69.7 C 76 69.7 75.8 69.7 75.7 69.7 C 75.4 69.8 75.1 69.8 74.8 69.9 C 74.5 70 74.3 70.2 74.1 70.4 C 73.9 70.6 73.8 70.8 73.8 71.1 C 73.8 71.6 74 71.9 74.3 72.1 C 74.7 72.3 75.1 72.4 75.6 72.4 Z M 84.7 73.6 C 84 73.6 83.3 73.4 82.7 73 C 82.2 72.6 81.8 72.1 81.5 71.5 C 81.2 70.9 81 70.2 81 69.3 C 81 68.5 81.2 67.8 81.5 67.1 C 81.8 66.5 82.2 66 82.8 65.6 C 83.3 65.3 84 65.1 84.7 65.1 C 85.3 65.1 85.8 65.2 86.3 65.4 C 86.7 65.6 87.1 65.9 87.4 66.3 C 87.7 66.7 87.9 67.1 87.9 67.7 C 87.9 67.7 86.7 67.7 86.7 67.7 C 86.6 67.3 86.4 66.9 86 66.7 C 85.7 66.4 85.3 66.2 84.7 66.2 C 84.2 66.2 83.8 66.3 83.4 66.6 C 83.1 66.9 82.8 67.2 82.6 67.7 C 82.4 68.1 82.3 68.7 82.3 69.3 C 82.3 69.9 82.4 70.5 82.6 70.9 C 82.8 71.4 83.1 71.8 83.4 72 C 83.8 72.3 84.2 72.4 84.7 72.4 C 85 72.4 85.3 72.4 85.6 72.3 C 85.9 72.1 86.1 72 86.3 71.8 C 86.5 71.5 86.6 71.3 86.7 71 C 86.7 71 87.9 71 87.9 71 C 87.9 71.5 87.7 71.9 87.4 72.3 C 87.1 72.7 86.8 73 86.3 73.2 C 85.9 73.4 85.3 73.6 84.7 73.6 Z M 90.9 70.4 L 90.9 68.8 L 91.2 68.8 L 94.7 65.2 L 96.3 65.2 L 92.5 69.1 L 92.4 69.1 L 90.9 70.4 Z M 89.8 73.4 L 89.8 62.5 L 91 62.5 L 91 73.4 L 89.8 73.4 Z M 95 73.4 L 91.8 69.3 L 92.7 68.5 L 96.6 73.4 L 95 73.4 Z M 105.5 73.6 C 104.7 73.6 104.1 73.4 103.5 73 C 103 72.7 102.5 72.2 102.2 71.5 C 101.9 70.9 101.8 70.2 101.8 69.3 C 101.8 68.5 101.9 67.7 102.2 67.1 C 102.5 66.5 103 66 103.5 65.6 C 104.1 65.3 104.7 65.1 105.5 65.1 C 106.2 65.1 106.9 65.3 107.4 65.6 C 108 66 108.4 66.5 108.7 67.1 C 109 67.7 109.2 68.5 109.2 69.3 C 109.2 70.2 109 70.9 108.7 71.5 C 108.4 72.2 108 72.7 107.4 73 C 106.9 73.4 106.2 73.6 105.5 73.6 Z M 105.5 72.4 C 106 72.4 106.5 72.3 106.8 72 C 107.2 71.7 107.5 71.3 107.7 70.9 C 107.8 70.4 107.9 69.9 107.9 69.3 C 107.9 68.8 107.8 68.3 107.7 67.8 C 107.5 67.3 107.2 67 106.8 66.7 C 106.5 66.4 106 66.2 105.5 66.2 C 104.9 66.2 104.4 66.4 104.1 66.7 C 103.7 67 103.4 67.3 103.3 67.8 C 103.1 68.3 103 68.8 103 69.3 C 103 69.9 103.1 70.4 103.3 70.9 C 103.4 71.3 103.7 71.7 104.1 72 C 104.4 72.3 104.9 72.4 105.5 72.4 Z M 114.5 65.2 L 114.5 66.3 L 110.1 66.3 L 110.1 65.2 L 114.5 65.2 Z M 111.4 73.4 C 111.4 73.4 111.4 64.07 111.4 64.1 C 111.4 63.6 111.5 63.2 111.7 62.9 C 112 62.6 112.2 62.4 112.6 62.2 C 112.9 62 113.3 62 113.7 62 C 114 62 114.3 62 114.5 62 C 114.7 62.1 114.8 62.1 114.9 62.2 C 114.9 62.2 114.5 63.3 114.5 63.3 C 114.5 63.2 114.4 63.2 114.3 63.2 C 114.2 63.1 114 63.1 113.8 63.1 C 113.4 63.1 113.1 63.2 112.9 63.4 C 112.8 63.7 112.7 64 112.7 64.4 C 112.66 64.37 112.7 73.4 112.7 73.4 L 111.4 73.4 Z M 123.8 73.6 C 123 73.6 122.4 73.4 121.8 73 C 121.3 72.6 120.8 72.1 120.5 71.5 C 120.2 70.9 120.1 70.2 120.1 69.3 C 120.1 68.5 120.2 67.8 120.6 67.1 C 120.9 66.5 121.3 66 121.8 65.6 C 122.4 65.3 123 65.1 123.8 65.1 C 124.4 65.1 124.9 65.2 125.3 65.4 C 125.8 65.6 126.2 65.9 126.5 66.3 C 126.8 66.7 126.9 67.1 127 67.7 C 127 67.7 125.8 67.7 125.8 67.7 C 125.7 67.3 125.5 66.9 125.1 66.7 C 124.8 66.4 124.4 66.2 123.8 66.2 C 123.3 66.2 122.9 66.3 122.5 66.6 C 122.1 66.9 121.9 67.2 121.7 67.7 C 121.5 68.1 121.4 68.7 121.4 69.3 C 121.4 69.9 121.5 70.5 121.7 70.9 C 121.9 71.4 122.1 71.8 122.5 72 C 122.9 72.3 123.3 72.4 123.8 72.4 C 124.1 72.4 124.4 72.4 124.7 72.3 C 125 72.1 125.2 72 125.4 71.8 C 125.6 71.5 125.7 71.3 125.8 71 C 125.8 71 127 71 127 71 C 126.9 71.5 126.8 71.9 126.5 72.3 C 126.2 72.7 125.8 73 125.4 73.2 C 124.9 73.4 124.4 73.6 123.8 73.6 Z M 130.1 62.5 L 130.1 73.4 L 128.8 73.4 L 128.8 62.5 L 130.1 62.5 Z M 134.8 73.6 C 134.3 73.6 133.8 73.5 133.4 73.3 C 133 73.1 132.6 72.8 132.4 72.4 C 132.1 72 132 71.6 132 71.1 C 132 70.6 132.1 70.2 132.3 69.9 C 132.5 69.6 132.7 69.4 133 69.2 C 133.3 69.1 133.7 68.9 134 68.9 C 134.4 68.8 134.8 68.7 135.2 68.7 C 135.7 68.6 136.1 68.5 136.4 68.5 C 136.7 68.5 136.9 68.4 137.1 68.3 C 137.2 68.3 137.3 68.1 137.3 67.9 C 137.3 67.9 137.3 67.9 137.3 67.9 C 137.3 67.3 137.1 66.9 136.9 66.6 C 136.6 66.3 136.1 66.2 135.6 66.2 C 135 66.2 134.5 66.3 134.1 66.6 C 133.8 66.9 133.6 67.1 133.4 67.4 C 133.4 67.4 132.2 67 132.2 67 C 132.4 66.5 132.7 66.1 133.1 65.8 C 133.4 65.6 133.8 65.4 134.3 65.3 C 134.7 65.1 135.1 65.1 135.5 65.1 C 135.8 65.1 136.1 65.1 136.4 65.2 C 136.8 65.2 137.1 65.4 137.4 65.6 C 137.7 65.8 138 66 138.2 66.4 C 138.4 66.8 138.5 67.3 138.5 68 C 138.54 67.99 138.5 73.4 138.5 73.4 L 137.3 73.4 L 137.3 72.3 C 137.3 72.3 137.22 72.27 137.2 72.3 C 137.1 72.5 137 72.6 136.8 72.8 C 136.6 73 136.3 73.2 136 73.4 C 135.7 73.5 135.3 73.6 134.8 73.6 Z M 135 72.4 C 135.5 72.4 135.9 72.3 136.2 72.2 C 136.6 72 136.8 71.7 137 71.4 C 137.2 71.1 137.3 70.8 137.3 70.4 C 137.3 70.4 137.3 69.3 137.3 69.3 C 137.2 69.3 137.1 69.4 136.9 69.4 C 136.8 69.5 136.5 69.5 136.3 69.6 C 136.1 69.6 135.9 69.6 135.6 69.7 C 135.4 69.7 135.2 69.7 135.1 69.7 C 134.8 69.8 134.5 69.8 134.2 69.9 C 133.9 70 133.7 70.2 133.5 70.4 C 133.3 70.6 133.3 70.8 133.3 71.1 C 133.3 71.6 133.4 71.9 133.7 72.1 C 134.1 72.3 134.5 72.4 135 72.4 Z M 140.8 73.4 L 140.8 65.2 L 142 65.2 L 142 66.4 C 142 66.4 142.13 66.44 142.1 66.4 C 142.3 66 142.5 65.7 142.9 65.5 C 143.3 65.2 143.8 65.1 144.3 65.1 C 144.4 65.1 144.5 65.1 144.6 65.1 C 144.7 65.1 144.8 65.1 144.9 65.1 C 144.9 65.1 144.9 66.4 144.9 66.4 C 144.9 66.4 144.8 66.3 144.6 66.3 C 144.5 66.3 144.3 66.3 144.2 66.3 C 143.8 66.3 143.4 66.4 143.1 66.5 C 142.8 66.7 142.5 66.9 142.4 67.2 C 142.2 67.5 142.1 67.8 142.1 68.2 C 142.09 68.2 142.1 73.4 142.1 73.4 L 140.8 73.4 Z M 146.4 73.4 L 146.4 65.2 L 147.7 65.2 L 147.7 73.4 L 146.4 73.4 Z M 147.1 63.8 C 146.8 63.8 146.6 63.8 146.4 63.6 C 146.3 63.4 146.2 63.2 146.2 63 C 146.2 62.7 146.3 62.5 146.4 62.4 C 146.6 62.2 146.8 62.1 147.1 62.1 C 147.3 62.1 147.5 62.2 147.7 62.4 C 147.9 62.5 148 62.7 148 63 C 148 63.2 147.9 63.4 147.7 63.6 C 147.5 63.8 147.3 63.8 147.1 63.8 Z M 153.5 65.2 L 153.5 66.3 L 149.2 66.3 L 149.2 65.2 L 153.5 65.2 Z M 150.5 63.2 L 151.7 63.2 C 151.7 63.2 151.73 71.04 151.7 71 C 151.7 71.4 151.8 71.7 151.9 71.8 C 152 72 152.1 72.1 152.3 72.2 C 152.5 72.2 152.6 72.3 152.8 72.3 C 153 72.3 153.1 72.3 153.2 72.2 C 153.2 72.2 153.3 72.2 153.4 72.2 C 153.4 72.2 153.6 73.3 153.6 73.3 C 153.5 73.4 153.4 73.4 153.3 73.4 C 153.1 73.5 152.9 73.5 152.7 73.5 C 152.3 73.5 152 73.4 151.6 73.3 C 151.3 73.1 151 72.9 150.8 72.6 C 150.6 72.2 150.5 71.9 150.5 71.4 C 150.47 71.38 150.5 63.2 150.5 63.2 Z M 156.3 76.5 C 156.1 76.5 155.9 76.4 155.7 76.4 C 155.6 76.4 155.5 76.3 155.4 76.3 C 155.4 76.3 155.7 75.2 155.7 75.2 C 156 75.3 156.3 75.3 156.5 75.3 C 156.8 75.3 157 75.2 157.1 75 C 157.3 74.8 157.5 74.5 157.6 74.1 C 157.65 74.06 157.9 73.4 157.9 73.4 L 154.9 65.2 L 156.2 65.2 L 158.5 71.7 L 158.6 71.7 L 160.8 65.2 L 162.2 65.2 C 162.2 65.2 158.71 74.58 158.7 74.6 C 158.6 75 158.4 75.3 158.1 75.6 C 157.9 75.9 157.6 76.1 157.3 76.2 C 157 76.4 156.7 76.5 156.3 76.5 Z M 181.9 68.1 L 181.9 69.3 L 166.9 69.3 L 166.9 68.1 L 181.9 68.1 Z " stroke="none" fill="#000"/>  </g>  <g id="Polygon116057">    <path d="M 5.4 48.4 C 4.5 48.4 3.8 48.3 3.1 48 C 2.4 47.7 1.9 47.2 1.5 46.6 C 1.1 46 0.9 45.3 0.9 44.4 C 0.9 43.6 1 43 1.3 42.5 C 1.6 41.9 1.9 41.5 2.4 41.2 C 2.9 40.9 3.4 40.7 4.1 40.5 C 4.7 40.4 5.3 40.2 6 40.2 C 6.8 40.1 7.4 40 7.9 39.9 C 8.4 39.9 8.7 39.8 9 39.6 C 9.2 39.5 9.3 39.2 9.3 38.9 C 9.3 38.9 9.3 38.9 9.3 38.9 C 9.3 38.3 9.1 37.9 8.8 37.6 C 8.4 37.3 7.9 37.1 7.3 37.1 C 6.6 37.1 6 37.3 5.6 37.6 C 5.2 37.9 5 38.3 4.8 38.7 C 4.8 38.7 1.3 38.4 1.3 38.4 C 1.5 37.6 1.9 36.9 2.4 36.3 C 2.9 35.7 3.6 35.2 4.4 34.9 C 5.2 34.5 6.2 34.4 7.3 34.4 C 8 34.4 8.8 34.5 9.5 34.6 C 10.2 34.8 10.8 35.1 11.3 35.5 C 11.9 35.8 12.3 36.3 12.6 36.9 C 12.9 37.5 13.1 38.2 13.1 39 C 13.08 38.98 13.1 48.2 13.1 48.2 L 9.5 48.2 L 9.5 46.3 C 9.5 46.3 9.38 46.29 9.4 46.3 C 9.2 46.7 8.9 47.1 8.5 47.4 C 8.1 47.7 7.7 48 7.2 48.2 C 6.7 48.3 6.1 48.4 5.4 48.4 Z M 6.5 45.8 C 7 45.8 7.5 45.7 8 45.5 C 8.4 45.3 8.7 45 9 44.6 C 9.2 44.2 9.3 43.8 9.3 43.3 C 9.3 43.3 9.3 41.9 9.3 41.9 C 9.2 41.9 9 42 8.8 42.1 C 8.6 42.1 8.4 42.2 8.1 42.2 C 7.9 42.3 7.6 42.3 7.4 42.4 C 7.1 42.4 6.9 42.4 6.7 42.5 C 6.3 42.5 5.9 42.6 5.5 42.8 C 5.2 42.9 4.9 43.1 4.8 43.4 C 4.6 43.6 4.5 43.9 4.5 44.2 C 4.5 44.8 4.7 45.2 5 45.4 C 5.4 45.7 5.9 45.8 6.5 45.8 Z M 15.9 53.3 L 15.9 34.5 L 19.6 34.5 L 19.6 36.8 C 19.6 36.8 19.81 36.84 19.8 36.8 C 20 36.5 20.2 36.1 20.5 35.7 C 20.8 35.3 21.3 35 21.8 34.8 C 22.3 34.5 22.9 34.4 23.7 34.4 C 24.7 34.4 25.6 34.6 26.4 35.1 C 27.3 35.7 27.9 36.4 28.5 37.5 C 29 38.5 29.2 39.8 29.2 41.4 C 29.2 42.9 29 44.2 28.5 45.2 C 28 46.3 27.3 47.1 26.5 47.6 C 25.6 48.1 24.7 48.4 23.7 48.4 C 22.9 48.4 22.3 48.3 21.8 48 C 21.3 47.8 20.9 47.5 20.6 47.1 C 20.2 46.8 20 46.4 19.8 46 C 19.81 46 19.7 46 19.7 46 L 19.7 53.3 L 15.9 53.3 Z M 19.6 41.4 C 19.6 42.2 19.7 42.9 19.9 43.5 C 20.2 44.1 20.5 44.6 20.9 44.9 C 21.3 45.2 21.9 45.4 22.5 45.4 C 23.1 45.4 23.6 45.2 24 44.9 C 24.5 44.5 24.8 44.1 25 43.5 C 25.2 42.9 25.3 42.2 25.3 41.4 C 25.3 40.6 25.2 39.9 25 39.3 C 24.8 38.7 24.5 38.2 24 37.9 C 23.6 37.5 23.1 37.4 22.5 37.4 C 21.9 37.4 21.3 37.5 20.9 37.9 C 20.5 38.2 20.2 38.7 19.9 39.3 C 19.7 39.8 19.6 40.6 19.6 41.4 Z M 31.6 53.3 L 31.6 34.5 L 35.4 34.5 L 35.4 36.8 C 35.4 36.8 35.53 36.84 35.5 36.8 C 35.7 36.5 35.9 36.1 36.3 35.7 C 36.6 35.3 37 35 37.5 34.8 C 38 34.5 38.6 34.4 39.4 34.4 C 40.4 34.4 41.3 34.6 42.2 35.1 C 43 35.7 43.7 36.4 44.2 37.5 C 44.7 38.5 44.9 39.8 44.9 41.4 C 44.9 42.9 44.7 44.2 44.2 45.2 C 43.7 46.3 43 47.1 42.2 47.6 C 41.4 48.1 40.4 48.4 39.4 48.4 C 38.7 48.4 38 48.3 37.5 48 C 37 47.8 36.6 47.5 36.3 47.1 C 35.9 46.8 35.7 46.4 35.5 46 C 35.53 46 35.4 46 35.4 46 L 35.4 53.3 L 31.6 53.3 Z M 35.3 41.4 C 35.3 42.2 35.4 42.9 35.7 43.5 C 35.9 44.1 36.2 44.6 36.6 44.9 C 37.1 45.2 37.6 45.4 38.2 45.4 C 38.8 45.4 39.3 45.2 39.8 44.9 C 40.2 44.5 40.5 44.1 40.7 43.5 C 41 42.9 41.1 42.2 41.1 41.4 C 41.1 40.6 41 39.9 40.7 39.3 C 40.5 38.7 40.2 38.2 39.8 37.9 C 39.3 37.5 38.8 37.4 38.2 37.4 C 37.6 37.4 37.1 37.5 36.6 37.9 C 36.2 38.2 35.9 38.7 35.7 39.3 C 35.4 39.8 35.3 40.6 35.3 41.4 Z M 51.2 30 L 51.2 48.2 L 47.4 48.2 L 47.4 30 L 51.2 30 Z M 54.1 48.2 L 54.1 34.5 L 57.9 34.5 L 57.9 48.2 L 54.1 48.2 Z M 56 32.8 C 55.5 32.8 55 32.6 54.6 32.2 C 54.2 31.9 54 31.4 54 30.9 C 54 30.4 54.2 29.9 54.6 29.5 C 55 29.1 55.5 29 56 29 C 56.6 29 57.1 29.1 57.5 29.5 C 57.9 29.9 58.1 30.3 58.1 30.9 C 58.1 31.4 57.9 31.8 57.5 32.2 C 57.1 32.6 56.6 32.8 56 32.8 Z M 66.9 48.4 C 65.5 48.4 64.3 48.2 63.3 47.6 C 62.3 47 61.5 46.1 61 45.1 C 60.5 44 60.2 42.8 60.2 41.4 C 60.2 40 60.5 38.8 61 37.7 C 61.6 36.7 62.3 35.9 63.3 35.3 C 64.3 34.7 65.5 34.4 66.9 34.4 C 68.1 34.4 69.1 34.6 70 35 C 70.9 35.4 71.6 36.1 72.1 36.8 C 72.7 37.6 73 38.5 73 39.6 C 73 39.6 69.4 39.6 69.4 39.6 C 69.3 38.9 69.1 38.4 68.6 37.9 C 68.2 37.5 67.7 37.3 67 37.3 C 66.4 37.3 65.9 37.5 65.4 37.8 C 65 38.1 64.7 38.6 64.4 39.2 C 64.2 39.8 64 40.5 64 41.4 C 64 42.2 64.2 43 64.4 43.6 C 64.6 44.2 65 44.7 65.4 45 C 65.9 45.3 66.4 45.5 67 45.5 C 67.4 45.5 67.8 45.4 68.1 45.2 C 68.5 45 68.8 44.8 69 44.4 C 69.2 44.1 69.4 43.7 69.4 43.2 C 69.4 43.2 73 43.2 73 43.2 C 72.9 44.2 72.7 45.1 72.2 45.9 C 71.7 46.7 71 47.3 70.1 47.8 C 69.2 48.2 68.1 48.4 66.9 48.4 Z M 79.3 48.4 C 78.4 48.4 77.6 48.3 76.9 48 C 76.3 47.7 75.7 47.2 75.3 46.6 C 74.9 46 74.7 45.3 74.7 44.4 C 74.7 43.6 74.9 43 75.2 42.5 C 75.4 41.9 75.8 41.5 76.3 41.2 C 76.8 40.9 77.3 40.7 77.9 40.5 C 78.6 40.4 79.2 40.2 79.9 40.2 C 80.7 40.1 81.3 40 81.8 39.9 C 82.3 39.9 82.6 39.8 82.8 39.6 C 83.1 39.5 83.2 39.2 83.2 38.9 C 83.2 38.9 83.2 38.9 83.2 38.9 C 83.2 38.3 83 37.9 82.6 37.6 C 82.3 37.3 81.8 37.1 81.1 37.1 C 80.5 37.1 79.9 37.3 79.5 37.6 C 79.1 37.9 78.9 38.3 78.7 38.7 C 78.7 38.7 75.2 38.4 75.2 38.4 C 75.4 37.6 75.8 36.9 76.3 36.3 C 76.8 35.7 77.5 35.2 78.3 34.9 C 79.1 34.5 80.1 34.4 81.2 34.4 C 81.9 34.4 82.7 34.5 83.3 34.6 C 84 34.8 84.7 35.1 85.2 35.5 C 85.7 35.8 86.2 36.3 86.5 36.9 C 86.8 37.5 87 38.2 87 39 C 86.95 38.98 87 48.2 87 48.2 L 83.4 48.2 L 83.4 46.3 C 83.4 46.3 83.26 46.29 83.3 46.3 C 83 46.7 82.7 47.1 82.4 47.4 C 82 47.7 81.6 48 81.1 48.2 C 80.5 48.3 79.9 48.4 79.3 48.4 Z M 80.4 45.8 C 80.9 45.8 81.4 45.7 81.8 45.5 C 82.3 45.3 82.6 45 82.8 44.6 C 83.1 44.2 83.2 43.8 83.2 43.3 C 83.2 43.3 83.2 41.9 83.2 41.9 C 83.1 41.9 82.9 42 82.7 42.1 C 82.5 42.1 82.3 42.2 82 42.2 C 81.8 42.3 81.5 42.3 81.3 42.4 C 81 42.4 80.8 42.4 80.6 42.5 C 80.1 42.5 79.7 42.6 79.4 42.8 C 79.1 42.9 78.8 43.1 78.6 43.4 C 78.5 43.6 78.4 43.9 78.4 44.2 C 78.4 44.8 78.5 45.2 78.9 45.4 C 79.3 45.7 79.8 45.8 80.4 45.8 Z M 96.7 34.5 L 96.7 37.4 L 88.5 37.4 L 88.5 34.5 L 96.7 34.5 Z M 90.4 31.3 L 94.1 31.3 C 94.1 31.3 94.14 43.99 94.1 44 C 94.1 44.3 94.2 44.6 94.3 44.8 C 94.4 45 94.6 45.1 94.7 45.2 C 94.9 45.3 95.2 45.3 95.4 45.3 C 95.6 45.3 95.8 45.3 95.9 45.3 C 96.1 45.2 96.3 45.2 96.4 45.2 C 96.4 45.2 97 48 97 48 C 96.8 48.1 96.5 48.1 96.2 48.2 C 95.8 48.3 95.4 48.4 94.9 48.4 C 94 48.4 93.2 48.3 92.5 48 C 91.8 47.7 91.3 47.3 90.9 46.7 C 90.5 46.1 90.3 45.4 90.4 44.5 C 90.36 44.49 90.4 31.3 90.4 31.3 Z M 98.9 48.2 L 98.9 34.5 L 102.6 34.5 L 102.6 48.2 L 98.9 48.2 Z M 100.8 32.8 C 100.2 32.8 99.7 32.6 99.3 32.2 C 98.9 31.9 98.7 31.4 98.7 30.9 C 98.7 30.4 98.9 29.9 99.3 29.5 C 99.7 29.1 100.2 29 100.8 29 C 101.3 29 101.8 29.1 102.2 29.5 C 102.6 29.9 102.8 30.3 102.8 30.9 C 102.8 31.4 102.6 31.8 102.2 32.2 C 101.8 32.6 101.3 32.8 100.8 32.8 Z M 111.7 48.4 C 110.3 48.4 109.1 48.2 108.1 47.6 C 107.1 47 106.3 46.2 105.8 45.1 C 105.2 44 105 42.8 105 41.4 C 105 40 105.2 38.8 105.8 37.7 C 106.3 36.7 107.1 35.8 108.1 35.3 C 109.1 34.7 110.3 34.4 111.7 34.4 C 113 34.4 114.2 34.7 115.2 35.3 C 116.2 35.8 117 36.7 117.6 37.7 C 118.1 38.8 118.4 40 118.4 41.4 C 118.4 42.8 118.1 44 117.6 45.1 C 117 46.2 116.2 47 115.2 47.6 C 114.2 48.2 113 48.4 111.7 48.4 Z M 111.7 45.5 C 112.3 45.5 112.8 45.3 113.3 45 C 113.7 44.6 114 44.1 114.2 43.5 C 114.4 42.9 114.5 42.2 114.5 41.4 C 114.5 40.6 114.4 39.9 114.2 39.3 C 114 38.6 113.7 38.2 113.3 37.8 C 112.8 37.4 112.3 37.3 111.7 37.3 C 111 37.3 110.5 37.4 110.1 37.8 C 109.7 38.2 109.3 38.6 109.1 39.3 C 108.9 39.9 108.8 40.6 108.8 41.4 C 108.8 42.2 108.9 42.9 109.1 43.5 C 109.3 44.1 109.7 44.6 110.1 45 C 110.5 45.3 111 45.5 111.7 45.5 Z M 124.5 40.3 C 124.54 40.3 124.5 48.2 124.5 48.2 L 120.8 48.2 L 120.8 34.5 L 124.4 34.5 L 124.4 37 C 124.4 37 124.52 36.95 124.5 37 C 124.8 36.2 125.3 35.5 126 35.1 C 126.7 34.6 127.6 34.4 128.6 34.4 C 129.6 34.4 130.4 34.6 131.1 35 C 131.8 35.4 132.3 36 132.7 36.8 C 133.1 37.5 133.3 38.4 133.3 39.5 C 133.32 39.5 133.3 48.2 133.3 48.2 L 129.5 48.2 C 129.5 48.2 129.54 40.17 129.5 40.2 C 129.5 39.3 129.3 38.7 128.9 38.2 C 128.5 37.7 127.9 37.5 127.1 37.5 C 126.6 37.5 126.2 37.6 125.8 37.8 C 125.4 38.1 125.1 38.4 124.9 38.8 C 124.7 39.2 124.5 39.7 124.5 40.3 Z " stroke="none" fill="#10283d"/>  </g>  <g id="Polygon116056">    <path d="M 12.8 0 L 16.7 0 C 16.7 0 16.65 11.81 16.7 11.8 C 16.7 13.1 16.3 14.3 15.7 15.3 C 15.1 16.3 14.2 17.1 13.1 17.6 C 11.9 18.2 10.6 18.4 9.1 18.4 C 7.6 18.4 6.3 18.2 5.2 17.6 C 4 17.1 3.1 16.3 2.5 15.3 C 1.9 14.3 1.6 13.1 1.6 11.8 C 1.58 11.81 1.6 0 1.6 0 L 5.4 0 C 5.4 0 5.42 11.48 5.4 11.5 C 5.4 12.2 5.6 12.8 5.9 13.3 C 6.2 13.9 6.6 14.3 7.2 14.6 C 7.7 14.9 8.4 15.1 9.1 15.1 C 9.9 15.1 10.5 14.9 11.1 14.6 C 11.6 14.3 12 13.9 12.4 13.3 C 12.7 12.8 12.8 12.2 12.8 11.5 C 12.81 11.48 12.8 0 12.8 0 Z M 23.4 10.3 C 23.41 10.3 23.4 18.2 23.4 18.2 L 19.6 18.2 L 19.6 4.5 L 23.2 4.5 L 23.2 7 C 23.2 7 23.39 6.95 23.4 7 C 23.7 6.2 24.2 5.5 24.9 5.1 C 25.6 4.6 26.5 4.4 27.5 4.4 C 28.4 4.4 29.3 4.6 30 5 C 30.7 5.4 31.2 6 31.6 6.8 C 32 7.5 32.2 8.4 32.2 9.5 C 32.2 9.5 32.2 18.2 32.2 18.2 L 28.4 18.2 C 28.4 18.2 28.41 10.17 28.4 10.2 C 28.4 9.3 28.2 8.7 27.8 8.2 C 27.3 7.7 26.7 7.5 26 7.5 C 25.5 7.5 25 7.6 24.6 7.8 C 24.3 8.1 24 8.4 23.7 8.8 C 23.5 9.2 23.4 9.7 23.4 10.3 Z M 41.1 18.4 C 39.7 18.4 38.5 18.2 37.5 17.6 C 36.5 17 35.8 16.1 35.2 15.1 C 34.7 14 34.4 12.8 34.4 11.4 C 34.4 10 34.7 8.8 35.2 7.7 C 35.8 6.7 36.6 5.9 37.6 5.3 C 38.6 4.7 39.7 4.4 41.1 4.4 C 42.3 4.4 43.4 4.6 44.3 5 C 45.1 5.4 45.9 6.1 46.4 6.8 C 46.9 7.6 47.2 8.5 47.2 9.6 C 47.2 9.6 43.7 9.6 43.7 9.6 C 43.6 8.9 43.3 8.4 42.9 7.9 C 42.4 7.5 41.9 7.3 41.2 7.3 C 40.6 7.3 40.1 7.5 39.7 7.8 C 39.2 8.1 38.9 8.6 38.6 9.2 C 38.4 9.8 38.3 10.5 38.3 11.4 C 38.3 12.2 38.4 13 38.6 13.6 C 38.9 14.2 39.2 14.7 39.7 15 C 40.1 15.3 40.6 15.5 41.2 15.5 C 41.6 15.5 42 15.4 42.4 15.2 C 42.7 15 43 14.8 43.2 14.4 C 43.4 14.1 43.6 13.7 43.7 13.2 C 43.7 13.2 47.2 13.2 47.2 13.2 C 47.2 14.2 46.9 15.1 46.4 15.9 C 45.9 16.7 45.2 17.3 44.3 17.8 C 43.4 18.2 42.4 18.4 41.1 18.4 Z M 53.3 0 L 53.3 18.2 L 49.5 18.2 L 49.5 0 L 53.3 0 Z M 62.5 18.4 C 61.1 18.4 59.9 18.2 58.9 17.6 C 57.9 17 57.1 16.2 56.5 15.2 C 56 14.1 55.7 12.9 55.7 11.4 C 55.7 10 56 8.8 56.5 7.7 C 57.1 6.7 57.9 5.8 58.8 5.3 C 59.8 4.7 61 4.4 62.3 4.4 C 63.2 4.4 64.1 4.5 64.9 4.8 C 65.6 5.1 66.3 5.5 66.9 6.1 C 67.5 6.7 67.9 7.4 68.3 8.3 C 68.6 9.1 68.7 10.1 68.7 11.3 C 68.75 11.29 68.7 12.3 68.7 12.3 L 57.2 12.3 L 57.2 10 C 57.2 10 65.19 9.99 65.2 10 C 65.2 9.4 65.1 9 64.8 8.5 C 64.6 8.1 64.3 7.8 63.9 7.6 C 63.4 7.3 63 7.2 62.4 7.2 C 61.8 7.2 61.3 7.3 60.9 7.6 C 60.4 7.8 60.1 8.2 59.8 8.6 C 59.6 9.1 59.5 9.6 59.5 10.1 C 59.5 10.1 59.5 12.3 59.5 12.3 C 59.5 13 59.6 13.6 59.8 14.1 C 60.1 14.6 60.4 15 60.9 15.2 C 61.4 15.5 61.9 15.6 62.6 15.6 C 63 15.6 63.4 15.6 63.7 15.4 C 64.1 15.3 64.4 15.2 64.6 14.9 C 64.9 14.7 65 14.4 65.2 14 C 65.2 14 68.7 14.3 68.7 14.3 C 68.5 15.1 68.1 15.8 67.6 16.5 C 67 17.1 66.3 17.6 65.5 17.9 C 64.6 18.3 63.6 18.4 62.5 18.4 Z M 74.9 18.4 C 74 18.4 73.2 18.3 72.5 18 C 71.9 17.7 71.3 17.2 70.9 16.6 C 70.5 16 70.3 15.3 70.3 14.4 C 70.3 13.6 70.5 13 70.8 12.5 C 71 11.9 71.4 11.5 71.9 11.2 C 72.4 10.9 72.9 10.7 73.5 10.5 C 74.2 10.4 74.8 10.2 75.5 10.2 C 76.3 10.1 76.9 10 77.4 9.9 C 77.9 9.9 78.2 9.8 78.4 9.6 C 78.7 9.5 78.8 9.2 78.8 8.9 C 78.8 8.9 78.8 8.9 78.8 8.9 C 78.8 8.3 78.6 7.9 78.2 7.6 C 77.9 7.3 77.4 7.1 76.7 7.1 C 76.1 7.1 75.5 7.3 75.1 7.6 C 74.7 7.9 74.5 8.3 74.3 8.7 C 74.3 8.7 70.8 8.4 70.8 8.4 C 71 7.6 71.4 6.9 71.9 6.3 C 72.4 5.7 73.1 5.2 73.9 4.9 C 74.7 4.5 75.7 4.4 76.8 4.4 C 77.5 4.4 78.3 4.5 78.9 4.6 C 79.6 4.8 80.3 5.1 80.8 5.5 C 81.3 5.8 81.8 6.3 82.1 6.9 C 82.4 7.5 82.6 8.2 82.6 9 C 82.55 8.98 82.6 18.2 82.6 18.2 L 79 18.2 L 79 16.3 C 79 16.3 78.86 16.29 78.9 16.3 C 78.6 16.7 78.3 17.1 78 17.4 C 77.6 17.7 77.2 18 76.7 18.2 C 76.1 18.3 75.6 18.4 74.9 18.4 Z M 76 15.8 C 76.5 15.8 77 15.7 77.4 15.5 C 77.9 15.3 78.2 15 78.4 14.6 C 78.7 14.2 78.8 13.8 78.8 13.3 C 78.8 13.3 78.8 11.9 78.8 11.9 C 78.7 11.9 78.5 12 78.3 12.1 C 78.1 12.1 77.9 12.2 77.6 12.2 C 77.4 12.3 77.1 12.3 76.9 12.4 C 76.6 12.4 76.4 12.4 76.2 12.5 C 75.7 12.5 75.3 12.6 75 12.8 C 74.7 12.9 74.4 13.1 74.2 13.4 C 74.1 13.6 74 13.9 74 14.2 C 74 14.8 74.1 15.2 74.5 15.4 C 74.9 15.7 75.4 15.8 76 15.8 Z M 85.4 18.2 L 85.4 4.5 L 89.1 4.5 L 89.1 6.9 C 89.1 6.9 89.19 6.92 89.2 6.9 C 89.4 6.1 89.9 5.4 90.4 5 C 91 4.6 91.7 4.4 92.5 4.4 C 92.7 4.4 92.9 4.4 93.1 4.4 C 93.3 4.4 93.5 4.4 93.7 4.5 C 93.7 4.5 93.7 7.8 93.7 7.8 C 93.5 7.8 93.2 7.7 92.9 7.7 C 92.6 7.7 92.3 7.6 92.1 7.6 C 91.5 7.6 91 7.8 90.6 8 C 90.1 8.2 89.8 8.6 89.5 9 C 89.3 9.4 89.2 9.9 89.2 10.5 C 89.17 10.47 89.2 18.2 89.2 18.2 L 85.4 18.2 Z " stroke="none" fill="#10283d"/>  </g>  <g id="Polygon116058">    <path d="M 141.5 40.8 L 148.1 47.3 L 154.7 40.8 " style="stroke-width:1.8pt; stroke:#838f98;" fill="none"/>  </g>  <g id="Polygon116062">    <path d="M 149.6 113.7 L 122.5 113.7 M 143.1 120.4 L 149.7 113.8 L 143.1 107.2 " style="stroke-width:1.8pt; stroke:#ff4f00;" fill="none"/>  </g></svg>