<?xml version="1.0" standalone="no"?><!DOCTYPE svg PUBLIC "-//W3C//DTD SVG 1.1//EN" "http://www.w3.org/Graphics/SVG/1.1/DTD/svg11.dtd"><svg xmlns="http://www.w3.org/2000/svg" version="1.1" width="121px" height="25.4px" viewBox="0 -3 121 25.4" style="top:-3px">  <desc>6 / 19</desc>  <defs/>  <g id="Polygon112026">    <path d="M 46.6 13.7 C 46.2 13.7 45.8 13.6 45.4 13.5 C 44.9 13.3 44.6 13.1 44.2 12.7 C 43.9 12.3 43.6 11.8 43.4 11.2 C 43.2 10.6 43.1 9.8 43.1 8.9 C 43.1 8 43.1 7.2 43.3 6.5 C 43.5 5.8 43.7 5.2 44.1 4.7 C 44.4 4.2 44.8 3.9 45.2 3.6 C 45.7 3.4 46.2 3.2 46.8 3.2 C 47.3 3.2 47.8 3.4 48.3 3.6 C 48.7 3.8 49.1 4.1 49.4 4.5 C 49.7 4.9 49.8 5.4 49.9 5.9 C 49.9 5.9 48.7 5.9 48.7 5.9 C 48.6 5.5 48.4 5.1 48.1 4.8 C 47.7 4.5 47.3 4.3 46.8 4.3 C 46 4.3 45.4 4.7 44.9 5.4 C 44.4 6.1 44.2 7 44.2 8.3 C 44.2 8.3 44.3 8.3 44.3 8.3 C 44.5 8 44.7 7.7 45 7.5 C 45.2 7.3 45.5 7.2 45.8 7.1 C 46.1 7 46.5 6.9 46.8 6.9 C 47.4 6.9 47.9 7 48.4 7.3 C 48.9 7.6 49.3 8 49.6 8.5 C 49.9 9 50 9.6 50 10.3 C 50 10.9 49.9 11.5 49.6 12 C 49.3 12.5 48.9 12.9 48.4 13.3 C 47.9 13.6 47.3 13.7 46.6 13.7 Z M 46.6 12.6 C 47 12.6 47.4 12.5 47.7 12.3 C 48.1 12.1 48.3 11.8 48.5 11.5 C 48.7 11.1 48.8 10.7 48.8 10.3 C 48.8 9.9 48.7 9.5 48.5 9.1 C 48.3 8.8 48.1 8.5 47.8 8.3 C 47.4 8.1 47.1 8 46.6 8 C 46.3 8 46 8.1 45.8 8.2 C 45.5 8.3 45.3 8.5 45.1 8.7 C 44.8 8.9 44.7 9.2 44.6 9.4 C 44.5 9.7 44.4 10 44.4 10.3 C 44.4 10.7 44.5 11.1 44.7 11.4 C 44.9 11.8 45.1 12.1 45.5 12.3 C 45.8 12.5 46.2 12.6 46.6 12.6 Z M 59.5 2.9 L 56.2 15.1 L 55.2 15.1 L 58.4 2.9 L 59.5 2.9 Z M 68.4 3.4 L 68.4 13.6 L 67.2 13.6 L 67.2 4.7 L 67.1 4.7 L 64.6 6.3 L 64.6 5.1 L 67.2 3.4 L 68.4 3.4 Z M 74.3 3.2 C 74.7 3.2 75.1 3.3 75.5 3.5 C 75.9 3.6 76.3 3.9 76.7 4.3 C 77 4.6 77.3 5.1 77.5 5.7 C 77.7 6.3 77.8 7.1 77.8 8.1 C 77.8 9 77.7 9.8 77.6 10.5 C 77.4 11.2 77.1 11.8 76.8 12.2 C 76.5 12.7 76.1 13.1 75.7 13.3 C 75.2 13.6 74.7 13.7 74.1 13.7 C 73.5 13.7 73 13.6 72.6 13.4 C 72.1 13.1 71.8 12.8 71.5 12.4 C 71.2 12 71 11.5 71 11 C 71 11 72.2 11 72.2 11 C 72.3 11.5 72.5 11.8 72.8 12.2 C 73.1 12.5 73.6 12.6 74.1 12.6 C 74.9 12.6 75.5 12.3 76 11.6 C 76.4 10.9 76.7 9.9 76.7 8.7 C 76.7 8.7 76.6 8.7 76.6 8.7 C 76.4 8.9 76.2 9.2 75.9 9.4 C 75.7 9.6 75.4 9.7 75.1 9.9 C 74.8 10 74.4 10 74.1 10 C 73.5 10 73 9.9 72.5 9.6 C 72 9.3 71.6 8.9 71.3 8.4 C 71 7.9 70.9 7.3 70.9 6.6 C 70.9 6 71 5.4 71.3 4.9 C 71.6 4.4 72 4 72.5 3.7 C 73 3.4 73.6 3.2 74.3 3.2 Z M 74.3 4.3 C 73.9 4.3 73.5 4.4 73.1 4.6 C 72.8 4.9 72.6 5.1 72.4 5.5 C 72.2 5.8 72.1 6.2 72.1 6.6 C 72.1 7.1 72.2 7.5 72.3 7.8 C 72.5 8.1 72.8 8.4 73.1 8.6 C 73.4 8.8 73.8 8.9 74.2 8.9 C 74.6 8.9 74.8 8.9 75.1 8.7 C 75.4 8.6 75.6 8.4 75.8 8.2 C 76 8 76.2 7.8 76.3 7.5 C 76.4 7.2 76.5 6.9 76.5 6.6 C 76.5 6.2 76.4 5.9 76.2 5.5 C 76 5.2 75.7 4.9 75.4 4.7 C 75.1 4.4 74.7 4.3 74.3 4.3 Z " stroke="none" fill="#10283d"/>  </g></svg>