<?xml version="1.0" standalone="no"?><!DOCTYPE svg PUBLIC "-//W3C//DTD SVG 1.1//EN" "http://www.w3.org/Graphics/SVG/1.1/DTD/svg11.dtd"><svg xmlns="http://www.w3.org/2000/svg" version="1.1" width="150px" height="73px" viewBox="0 -10 150 73" style="top:-10px">  <desc>Unclear application ￼</desc>  <defs/>  <g id="Polygon116375">    <path d="M 5.4 48.4 C 4.5 48.4 3.8 48.3 3.1 48 C 2.4 47.7 1.9 47.2 1.5 46.6 C 1.1 46 0.9 45.3 0.9 44.4 C 0.9 43.6 1 43 1.3 42.5 C 1.6 41.9 1.9 41.5 2.4 41.2 C 2.9 40.9 3.4 40.7 4.1 40.5 C 4.7 40.4 5.3 40.2 6 40.2 C 6.8 40.1 7.4 40 7.9 39.9 C 8.4 39.9 8.7 39.8 9 39.6 C 9.2 39.5 9.3 39.2 9.3 38.9 C 9.3 38.9 9.3 38.9 9.3 38.9 C 9.3 38.3 9.1 37.9 8.8 37.6 C 8.4 37.3 7.9 37.1 7.3 37.1 C 6.6 37.1 6 37.3 5.6 37.6 C 5.2 37.9 5 38.3 4.8 38.7 C 4.8 38.7 1.3 38.4 1.3 38.4 C 1.5 37.6 1.9 36.9 2.4 36.3 C 2.9 35.7 3.6 35.2 4.4 34.9 C 5.2 34.5 6.2 34.4 7.3 34.4 C 8 34.4 8.8 34.5 9.5 34.6 C 10.2 34.8 10.8 35.1 11.3 35.5 C 11.9 35.8 12.3 36.3 12.6 36.9 C 12.9 37.5 13.1 38.2 13.1 39 C 13.08 38.98 13.1 48.2 13.1 48.2 L 9.5 48.2 L 9.5 46.3 C 9.5 46.3 9.38 46.29 9.4 46.3 C 9.2 46.7 8.9 47.1 8.5 47.4 C 8.1 47.7 7.7 48 7.2 48.2 C 6.7 48.3 6.1 48.4 5.4 48.4 Z M 6.5 45.8 C 7 45.8 7.5 45.7 8 45.5 C 8.4 45.3 8.7 45 9 44.6 C 9.2 44.2 9.3 43.8 9.3 43.3 C 9.3 43.3 9.3 41.9 9.3 41.9 C 9.2 41.9 9 42 8.8 42.1 C 8.6 42.1 8.4 42.2 8.1 42.2 C 7.9 42.3 7.6 42.3 7.4 42.4 C 7.1 42.4 6.9 42.4 6.7 42.5 C 6.3 42.5 5.9 42.6 5.5 42.8 C 5.2 42.9 4.9 43.1 4.8 43.4 C 4.6 43.6 4.5 43.9 4.5 44.2 C 4.5 44.8 4.7 45.2 5 45.4 C 5.4 45.7 5.9 45.8 6.5 45.8 Z M 15.9 53.3 L 15.9 34.5 L 19.6 34.5 L 19.6 36.8 C 19.6 36.8 19.81 36.84 19.8 36.8 C 20 36.5 20.2 36.1 20.5 35.7 C 20.8 35.3 21.3 35 21.8 34.8 C 22.3 34.5 22.9 34.4 23.7 34.4 C 24.7 34.4 25.6 34.6 26.4 35.1 C 27.3 35.7 27.9 36.4 28.5 37.5 C 29 38.5 29.2 39.8 29.2 41.4 C 29.2 42.9 29 44.2 28.5 45.2 C 28 46.3 27.3 47.1 26.5 47.6 C 25.6 48.1 24.7 48.4 23.7 48.4 C 22.9 48.4 22.3 48.3 21.8 48 C 21.3 47.8 20.9 47.5 20.6 47.1 C 20.2 46.8 20 46.4 19.8 46 C 19.81 46 19.7 46 19.7 46 L 19.7 53.3 L 15.9 53.3 Z M 19.6 41.4 C 19.6 42.2 19.7 42.9 19.9 43.5 C 20.2 44.1 20.5 44.6 20.9 44.9 C 21.3 45.2 21.9 45.4 22.5 45.4 C 23.1 45.4 23.6 45.2 24 44.9 C 24.5 44.5 24.8 44.1 25 43.5 C 25.2 42.9 25.3 42.2 25.3 41.4 C 25.3 40.6 25.2 39.9 25 39.3 C 24.8 38.7 24.5 38.2 24 37.9 C 23.6 37.5 23.1 37.4 22.5 37.4 C 21.9 37.4 21.3 37.5 20.9 37.9 C 20.5 38.2 20.2 38.7 19.9 39.3 C 19.7 39.8 19.6 40.6 19.6 41.4 Z M 31.6 53.3 L 31.6 34.5 L 35.4 34.5 L 35.4 36.8 C 35.4 36.8 35.53 36.84 35.5 36.8 C 35.7 36.5 35.9 36.1 36.3 35.7 C 36.6 35.3 37 35 37.5 34.8 C 38 34.5 38.6 34.4 39.4 34.4 C 40.4 34.4 41.3 34.6 42.2 35.1 C 43 35.7 43.7 36.4 44.2 37.5 C 44.7 38.5 44.9 39.8 44.9 41.4 C 44.9 42.9 44.7 44.2 44.2 45.2 C 43.7 46.3 43 47.1 42.2 47.6 C 41.4 48.1 40.4 48.4 39.4 48.4 C 38.7 48.4 38 48.3 37.5 48 C 37 47.8 36.6 47.5 36.3 47.1 C 35.9 46.8 35.7 46.4 35.5 46 C 35.53 46 35.4 46 35.4 46 L 35.4 53.3 L 31.6 53.3 Z M 35.3 41.4 C 35.3 42.2 35.4 42.9 35.7 43.5 C 35.9 44.1 36.2 44.6 36.6 44.9 C 37.1 45.2 37.6 45.4 38.2 45.4 C 38.8 45.4 39.3 45.2 39.8 44.9 C 40.2 44.5 40.5 44.1 40.7 43.5 C 41 42.9 41.1 42.2 41.1 41.4 C 41.1 40.6 41 39.9 40.7 39.3 C 40.5 38.7 40.2 38.2 39.8 37.9 C 39.3 37.5 38.8 37.4 38.2 37.4 C 37.6 37.4 37.1 37.5 36.6 37.9 C 36.2 38.2 35.9 38.7 35.7 39.3 C 35.4 39.8 35.3 40.6 35.3 41.4 Z M 51.2 30 L 51.2 48.2 L 47.4 48.2 L 47.4 30 L 51.2 30 Z M 54.1 48.2 L 54.1 34.5 L 57.9 34.5 L 57.9 48.2 L 54.1 48.2 Z M 56 32.8 C 55.5 32.8 55 32.6 54.6 32.2 C 54.2 31.9 54 31.4 54 30.9 C 54 30.4 54.2 29.9 54.6 29.5 C 55 29.1 55.5 29 56 29 C 56.6 29 57.1 29.1 57.5 29.5 C 57.9 29.9 58.1 30.3 58.1 30.9 C 58.1 31.4 57.9 31.8 57.5 32.2 C 57.1 32.6 56.6 32.8 56 32.8 Z M 66.9 48.4 C 65.5 48.4 64.3 48.2 63.3 47.6 C 62.3 47 61.5 46.1 61 45.1 C 60.5 44 60.2 42.8 60.2 41.4 C 60.2 40 60.5 38.8 61 37.7 C 61.6 36.7 62.3 35.9 63.3 35.3 C 64.3 34.7 65.5 34.4 66.9 34.4 C 68.1 34.4 69.1 34.6 70 35 C 70.9 35.4 71.6 36.1 72.1 36.8 C 72.7 37.6 73 38.5 73 39.6 C 73 39.6 69.4 39.6 69.4 39.6 C 69.3 38.9 69.1 38.4 68.6 37.9 C 68.2 37.5 67.7 37.3 67 37.3 C 66.4 37.3 65.9 37.5 65.4 37.8 C 65 38.1 64.7 38.6 64.4 39.2 C 64.2 39.8 64 40.5 64 41.4 C 64 42.2 64.2 43 64.4 43.6 C 64.6 44.2 65 44.7 65.4 45 C 65.9 45.3 66.4 45.5 67 45.5 C 67.4 45.5 67.8 45.4 68.1 45.2 C 68.5 45 68.8 44.8 69 44.4 C 69.2 44.1 69.4 43.7 69.4 43.2 C 69.4 43.2 73 43.2 73 43.2 C 72.9 44.2 72.7 45.1 72.2 45.9 C 71.7 46.7 71 47.3 70.1 47.8 C 69.2 48.2 68.1 48.4 66.9 48.4 Z M 79.3 48.4 C 78.4 48.4 77.6 48.3 76.9 48 C 76.3 47.7 75.7 47.2 75.3 46.6 C 74.9 46 74.7 45.3 74.7 44.4 C 74.7 43.6 74.9 43 75.2 42.5 C 75.4 41.9 75.8 41.5 76.3 41.2 C 76.8 40.9 77.3 40.7 77.9 40.5 C 78.6 40.4 79.2 40.2 79.9 40.2 C 80.7 40.1 81.3 40 81.8 39.9 C 82.3 39.9 82.6 39.8 82.8 39.6 C 83.1 39.5 83.2 39.2 83.2 38.9 C 83.2 38.9 83.2 38.9 83.2 38.9 C 83.2 38.3 83 37.9 82.6 37.6 C 82.3 37.3 81.8 37.1 81.1 37.1 C 80.5 37.1 79.9 37.3 79.5 37.6 C 79.1 37.9 78.9 38.3 78.7 38.7 C 78.7 38.7 75.2 38.4 75.2 38.4 C 75.4 37.6 75.8 36.9 76.3 36.3 C 76.8 35.7 77.5 35.2 78.3 34.9 C 79.1 34.5 80.1 34.4 81.2 34.4 C 81.9 34.4 82.7 34.5 83.3 34.6 C 84 34.8 84.7 35.1 85.2 35.5 C 85.7 35.8 86.2 36.3 86.5 36.9 C 86.8 37.5 87 38.2 87 39 C 86.95 38.98 87 48.2 87 48.2 L 83.4 48.2 L 83.4 46.3 C 83.4 46.3 83.26 46.29 83.3 46.3 C 83 46.7 82.7 47.1 82.4 47.4 C 82 47.7 81.6 48 81.1 48.2 C 80.5 48.3 79.9 48.4 79.3 48.4 Z M 80.4 45.8 C 80.9 45.8 81.4 45.7 81.8 45.5 C 82.3 45.3 82.6 45 82.8 44.6 C 83.1 44.2 83.2 43.8 83.2 43.3 C 83.2 43.3 83.2 41.9 83.2 41.9 C 83.1 41.9 82.9 42 82.7 42.1 C 82.5 42.1 82.3 42.2 82 42.2 C 81.8 42.3 81.5 42.3 81.3 42.4 C 81 42.4 80.8 42.4 80.6 42.5 C 80.1 42.5 79.7 42.6 79.4 42.8 C 79.1 42.9 78.8 43.1 78.6 43.4 C 78.5 43.6 78.4 43.9 78.4 44.2 C 78.4 44.8 78.5 45.2 78.9 45.4 C 79.3 45.7 79.8 45.8 80.4 45.8 Z M 96.7 34.5 L 96.7 37.4 L 88.5 37.4 L 88.5 34.5 L 96.7 34.5 Z M 90.4 31.3 L 94.1 31.3 C 94.1 31.3 94.14 43.99 94.1 44 C 94.1 44.3 94.2 44.6 94.3 44.8 C 94.4 45 94.6 45.1 94.7 45.2 C 94.9 45.3 95.2 45.3 95.4 45.3 C 95.6 45.3 95.8 45.3 95.9 45.3 C 96.1 45.2 96.3 45.2 96.4 45.2 C 96.4 45.2 97 48 97 48 C 96.8 48.1 96.5 48.1 96.2 48.2 C 95.8 48.3 95.4 48.4 94.9 48.4 C 94 48.4 93.2 48.3 92.5 48 C 91.8 47.7 91.3 47.3 90.9 46.7 C 90.5 46.1 90.3 45.4 90.4 44.5 C 90.36 44.49 90.4 31.3 90.4 31.3 Z M 98.9 48.2 L 98.9 34.5 L 102.6 34.5 L 102.6 48.2 L 98.9 48.2 Z M 100.8 32.8 C 100.2 32.8 99.7 32.6 99.3 32.2 C 98.9 31.9 98.7 31.4 98.7 30.9 C 98.7 30.4 98.9 29.9 99.3 29.5 C 99.7 29.1 100.2 29 100.8 29 C 101.3 29 101.8 29.1 102.2 29.5 C 102.6 29.9 102.8 30.3 102.8 30.9 C 102.8 31.4 102.6 31.8 102.2 32.2 C 101.8 32.6 101.3 32.8 100.8 32.8 Z M 111.7 48.4 C 110.3 48.4 109.1 48.2 108.1 47.6 C 107.1 47 106.3 46.2 105.8 45.1 C 105.2 44 105 42.8 105 41.4 C 105 40 105.2 38.8 105.8 37.7 C 106.3 36.7 107.1 35.8 108.1 35.3 C 109.1 34.7 110.3 34.4 111.7 34.4 C 113 34.4 114.2 34.7 115.2 35.3 C 116.2 35.8 117 36.7 117.6 37.7 C 118.1 38.8 118.4 40 118.4 41.4 C 118.4 42.8 118.1 44 117.6 45.1 C 117 46.2 116.2 47 115.2 47.6 C 114.2 48.2 113 48.4 111.7 48.4 Z M 111.7 45.5 C 112.3 45.5 112.8 45.3 113.3 45 C 113.7 44.6 114 44.1 114.2 43.5 C 114.4 42.9 114.5 42.2 114.5 41.4 C 114.5 40.6 114.4 39.9 114.2 39.3 C 114 38.6 113.7 38.2 113.3 37.8 C 112.8 37.4 112.3 37.3 111.7 37.3 C 111 37.3 110.5 37.4 110.1 37.8 C 109.7 38.2 109.3 38.6 109.1 39.3 C 108.9 39.9 108.8 40.6 108.8 41.4 C 108.8 42.2 108.9 42.9 109.1 43.5 C 109.3 44.1 109.7 44.6 110.1 45 C 110.5 45.3 111 45.5 111.7 45.5 Z M 124.5 40.3 C 124.54 40.3 124.5 48.2 124.5 48.2 L 120.8 48.2 L 120.8 34.5 L 124.4 34.5 L 124.4 37 C 124.4 37 124.52 36.95 124.5 37 C 124.8 36.2 125.3 35.5 126 35.1 C 126.7 34.6 127.6 34.4 128.6 34.4 C 129.6 34.4 130.4 34.6 131.1 35 C 131.8 35.4 132.3 36 132.7 36.8 C 133.1 37.5 133.3 38.4 133.3 39.5 C 133.32 39.5 133.3 48.2 133.3 48.2 L 129.5 48.2 C 129.5 48.2 129.54 40.17 129.5 40.2 C 129.5 39.3 129.3 38.7 128.9 38.2 C 128.5 37.7 127.9 37.5 127.1 37.5 C 126.6 37.5 126.2 37.6 125.8 37.8 C 125.4 38.1 125.1 38.4 124.9 38.8 C 124.7 39.2 124.5 39.7 124.5 40.3 Z " stroke="none" fill="#10283d"/>  </g>  <g id="Polygon116374">    <path d="M 12.8 0 L 16.7 0 C 16.7 0 16.65 11.81 16.7 11.8 C 16.7 13.1 16.3 14.3 15.7 15.3 C 15.1 16.3 14.2 17.1 13.1 17.6 C 11.9 18.2 10.6 18.4 9.1 18.4 C 7.6 18.4 6.3 18.2 5.2 17.6 C 4 17.1 3.1 16.3 2.5 15.3 C 1.9 14.3 1.6 13.1 1.6 11.8 C 1.58 11.81 1.6 0 1.6 0 L 5.4 0 C 5.4 0 5.42 11.48 5.4 11.5 C 5.4 12.2 5.6 12.8 5.9 13.3 C 6.2 13.9 6.6 14.3 7.2 14.6 C 7.7 14.9 8.4 15.1 9.1 15.1 C 9.9 15.1 10.5 14.9 11.1 14.6 C 11.6 14.3 12 13.9 12.4 13.3 C 12.7 12.8 12.8 12.2 12.8 11.5 C 12.81 11.48 12.8 0 12.8 0 Z M 23.4 10.3 C 23.41 10.3 23.4 18.2 23.4 18.2 L 19.6 18.2 L 19.6 4.5 L 23.2 4.5 L 23.2 7 C 23.2 7 23.39 6.95 23.4 7 C 23.7 6.2 24.2 5.5 24.9 5.1 C 25.6 4.6 26.5 4.4 27.5 4.4 C 28.4 4.4 29.3 4.6 30 5 C 30.7 5.4 31.2 6 31.6 6.8 C 32 7.5 32.2 8.4 32.2 9.5 C 32.2 9.5 32.2 18.2 32.2 18.2 L 28.4 18.2 C 28.4 18.2 28.41 10.17 28.4 10.2 C 28.4 9.3 28.2 8.7 27.8 8.2 C 27.3 7.7 26.7 7.5 26 7.5 C 25.5 7.5 25 7.6 24.6 7.8 C 24.3 8.1 24 8.4 23.7 8.8 C 23.5 9.2 23.4 9.7 23.4 10.3 Z M 41.1 18.4 C 39.7 18.4 38.5 18.2 37.5 17.6 C 36.5 17 35.8 16.1 35.2 15.1 C 34.7 14 34.4 12.8 34.4 11.4 C 34.4 10 34.7 8.8 35.2 7.7 C 35.8 6.7 36.6 5.9 37.6 5.3 C 38.6 4.7 39.7 4.4 41.1 4.4 C 42.3 4.4 43.4 4.6 44.3 5 C 45.1 5.4 45.9 6.1 46.4 6.8 C 46.9 7.6 47.2 8.5 47.2 9.6 C 47.2 9.6 43.7 9.6 43.7 9.6 C 43.6 8.9 43.3 8.4 42.9 7.9 C 42.4 7.5 41.9 7.3 41.2 7.3 C 40.6 7.3 40.1 7.5 39.7 7.8 C 39.2 8.1 38.9 8.6 38.6 9.2 C 38.4 9.8 38.3 10.5 38.3 11.4 C 38.3 12.2 38.4 13 38.6 13.6 C 38.9 14.2 39.2 14.7 39.7 15 C 40.1 15.3 40.6 15.5 41.2 15.5 C 41.6 15.5 42 15.4 42.4 15.2 C 42.7 15 43 14.8 43.2 14.4 C 43.4 14.1 43.6 13.7 43.7 13.2 C 43.7 13.2 47.2 13.2 47.2 13.2 C 47.2 14.2 46.9 15.1 46.4 15.9 C 45.9 16.7 45.2 17.3 44.3 17.8 C 43.4 18.2 42.4 18.4 41.1 18.4 Z M 53.3 0 L 53.3 18.2 L 49.5 18.2 L 49.5 0 L 53.3 0 Z M 62.5 18.4 C 61.1 18.4 59.9 18.2 58.9 17.6 C 57.9 17 57.1 16.2 56.5 15.2 C 56 14.1 55.7 12.9 55.7 11.4 C 55.7 10 56 8.8 56.5 7.7 C 57.1 6.7 57.9 5.8 58.8 5.3 C 59.8 4.7 61 4.4 62.3 4.4 C 63.2 4.4 64.1 4.5 64.9 4.8 C 65.6 5.1 66.3 5.5 66.9 6.1 C 67.5 6.7 67.9 7.4 68.3 8.3 C 68.6 9.1 68.7 10.1 68.7 11.3 C 68.75 11.29 68.7 12.3 68.7 12.3 L 57.2 12.3 L 57.2 10 C 57.2 10 65.19 9.99 65.2 10 C 65.2 9.4 65.1 9 64.8 8.5 C 64.6 8.1 64.3 7.8 63.9 7.6 C 63.4 7.3 63 7.2 62.4 7.2 C 61.8 7.2 61.3 7.3 60.9 7.6 C 60.4 7.8 60.1 8.2 59.8 8.6 C 59.6 9.1 59.5 9.6 59.5 10.1 C 59.5 10.1 59.5 12.3 59.5 12.3 C 59.5 13 59.6 13.6 59.8 14.1 C 60.1 14.6 60.4 15 60.9 15.2 C 61.4 15.5 61.9 15.6 62.6 15.6 C 63 15.6 63.4 15.6 63.7 15.4 C 64.1 15.3 64.4 15.2 64.6 14.9 C 64.9 14.7 65 14.4 65.2 14 C 65.2 14 68.7 14.3 68.7 14.3 C 68.5 15.1 68.1 15.8 67.6 16.5 C 67 17.1 66.3 17.6 65.5 17.9 C 64.6 18.3 63.6 18.4 62.5 18.4 Z M 74.9 18.4 C 74 18.4 73.2 18.3 72.5 18 C 71.9 17.7 71.3 17.2 70.9 16.6 C 70.5 16 70.3 15.3 70.3 14.4 C 70.3 13.6 70.5 13 70.8 12.5 C 71 11.9 71.4 11.5 71.9 11.2 C 72.4 10.9 72.9 10.7 73.5 10.5 C 74.2 10.4 74.8 10.2 75.5 10.2 C 76.3 10.1 76.9 10 77.4 9.9 C 77.9 9.9 78.2 9.8 78.4 9.6 C 78.7 9.5 78.8 9.2 78.8 8.9 C 78.8 8.9 78.8 8.9 78.8 8.9 C 78.8 8.3 78.6 7.9 78.2 7.6 C 77.9 7.3 77.4 7.1 76.7 7.1 C 76.1 7.1 75.5 7.3 75.1 7.6 C 74.7 7.9 74.5 8.3 74.3 8.7 C 74.3 8.7 70.8 8.4 70.8 8.4 C 71 7.6 71.4 6.9 71.9 6.3 C 72.4 5.7 73.1 5.2 73.9 4.9 C 74.7 4.5 75.7 4.4 76.8 4.4 C 77.5 4.4 78.3 4.5 78.9 4.6 C 79.6 4.8 80.3 5.1 80.8 5.5 C 81.3 5.8 81.8 6.3 82.1 6.9 C 82.4 7.5 82.6 8.2 82.6 9 C 82.55 8.98 82.6 18.2 82.6 18.2 L 79 18.2 L 79 16.3 C 79 16.3 78.86 16.29 78.9 16.3 C 78.6 16.7 78.3 17.1 78 17.4 C 77.6 17.7 77.2 18 76.7 18.2 C 76.1 18.3 75.6 18.4 74.9 18.4 Z M 76 15.8 C 76.5 15.8 77 15.7 77.4 15.5 C 77.9 15.3 78.2 15 78.4 14.6 C 78.7 14.2 78.8 13.8 78.8 13.3 C 78.8 13.3 78.8 11.9 78.8 11.9 C 78.7 11.9 78.5 12 78.3 12.1 C 78.1 12.1 77.9 12.2 77.6 12.2 C 77.4 12.3 77.1 12.3 76.9 12.4 C 76.6 12.4 76.4 12.4 76.2 12.5 C 75.7 12.5 75.3 12.6 75 12.8 C 74.7 12.9 74.4 13.1 74.2 13.4 C 74.1 13.6 74 13.9 74 14.2 C 74 14.8 74.1 15.2 74.5 15.4 C 74.9 15.7 75.4 15.8 76 15.8 Z M 85.4 18.2 L 85.4 4.5 L 89.1 4.5 L 89.1 6.9 C 89.1 6.9 89.19 6.92 89.2 6.9 C 89.4 6.1 89.9 5.4 90.4 5 C 91 4.6 91.7 4.4 92.5 4.4 C 92.7 4.4 92.9 4.4 93.1 4.4 C 93.3 4.4 93.5 4.4 93.7 4.5 C 93.7 4.5 93.7 7.8 93.7 7.8 C 93.5 7.8 93.2 7.7 92.9 7.7 C 92.6 7.7 92.3 7.6 92.1 7.6 C 91.5 7.6 91 7.8 90.6 8 C 90.1 8.2 89.8 8.6 89.5 9 C 89.3 9.4 89.2 9.9 89.2 10.5 C 89.17 10.47 89.2 18.2 89.2 18.2 L 85.4 18.2 Z " stroke="none" fill="#10283d"/>  </g>  <g id="Polygon116376">    <path d="M 141.5 47.3 L 147.9 40.7 L 141.5 34.1 " style="stroke-width:1.8pt; stroke:#ff4f00;" fill="none"/>  </g></svg>