<?xml version="1.0" standalone="no"?><!DOCTYPE svg PUBLIC "-//W3C//DTD SVG 1.1//EN" "http://www.w3.org/Graphics/SVG/1.1/DTD/svg11.dtd"><svg xmlns="http://www.w3.org/2000/svg" version="1.1" width="118px" height="35.7px" viewBox="0 -8 118 35.7" style="top:-8px">  <desc>Choose next</desc>  <defs/>  <g id="Polygon118316">    <path d="M 13.5 4.9 C 13.5 4.9 10.5 4.9 10.5 4.9 C 10.5 4.5 10.4 4.2 10.2 3.9 C 10 3.6 9.8 3.3 9.6 3.1 C 9.3 2.9 9 2.7 8.7 2.6 C 8.3 2.5 7.9 2.4 7.5 2.4 C 6.8 2.4 6.2 2.6 5.7 3 C 5.1 3.3 4.7 3.8 4.4 4.5 C 4.1 5.2 4 6 4 7 C 4 8 4.1 8.8 4.4 9.5 C 4.7 10.2 5.1 10.7 5.7 11 C 6.2 11.4 6.8 11.5 7.5 11.5 C 7.9 11.5 8.3 11.5 8.6 11.4 C 9 11.3 9.3 11.1 9.5 10.9 C 9.8 10.7 10 10.5 10.2 10.2 C 10.4 9.9 10.5 9.6 10.5 9.2 C 10.5 9.2 13.5 9.2 13.5 9.2 C 13.5 9.8 13.3 10.5 13 11.1 C 12.7 11.6 12.2 12.2 11.7 12.6 C 11.2 13.1 10.6 13.5 9.9 13.7 C 9.2 14 8.4 14.2 7.5 14.2 C 6.2 14.2 5.1 13.9 4.1 13.3 C 3.2 12.7 2.4 11.9 1.8 10.9 C 1.3 9.8 1 8.5 1 7 C 1 5.5 1.3 4.2 1.8 3.1 C 2.4 2 3.2 1.2 4.2 0.7 C 5.1 0.1 6.2 -0.2 7.5 -0.2 C 8.3 -0.2 9 -0.1 9.7 0.2 C 10.4 0.4 11 0.7 11.6 1.1 C 12.1 1.6 12.5 2.1 12.9 2.7 C 13.2 3.4 13.4 4.1 13.5 4.9 Z M 18.4 7.9 C 18.45 7.91 18.4 14 18.4 14 L 15.5 14 L 15.5 0 L 18.4 0 L 18.4 5.3 C 18.4 5.3 18.49 5.34 18.5 5.3 C 18.7 4.7 19.1 4.2 19.6 3.9 C 20.2 3.5 20.8 3.4 21.6 3.4 C 22.3 3.4 23 3.5 23.5 3.8 C 24.1 4.1 24.5 4.6 24.8 5.2 C 25.1 5.8 25.2 6.5 25.2 7.3 C 25.24 7.3 25.2 14 25.2 14 L 22.3 14 C 22.3 14 22.34 7.81 22.3 7.8 C 22.3 7.2 22.2 6.7 21.8 6.3 C 21.5 5.9 21.1 5.8 20.5 5.8 C 20.1 5.8 19.7 5.9 19.4 6 C 19.1 6.2 18.9 6.4 18.7 6.8 C 18.5 7.1 18.5 7.5 18.4 7.9 Z M 32.2 14.2 C 31.1 14.2 30.2 13.9 29.4 13.5 C 28.7 13 28.1 12.4 27.7 11.6 C 27.2 10.8 27 9.8 27 8.8 C 27 7.7 27.2 6.7 27.7 5.9 C 28.1 5.1 28.7 4.5 29.4 4 C 30.2 3.6 31.1 3.4 32.2 3.4 C 33.2 3.4 34.2 3.6 34.9 4 C 35.7 4.5 36.3 5.1 36.7 5.9 C 37.1 6.7 37.3 7.7 37.3 8.8 C 37.3 9.8 37.1 10.8 36.7 11.6 C 36.3 12.4 35.7 13 34.9 13.5 C 34.2 13.9 33.2 14.2 32.2 14.2 Z M 32.2 11.9 C 32.7 11.9 33.1 11.8 33.4 11.5 C 33.7 11.2 34 10.9 34.1 10.4 C 34.3 9.9 34.4 9.4 34.4 8.7 C 34.4 8.1 34.3 7.6 34.1 7.1 C 34 6.6 33.7 6.3 33.4 6 C 33.1 5.7 32.7 5.6 32.2 5.6 C 31.7 5.6 31.3 5.7 31 6 C 30.6 6.3 30.4 6.6 30.2 7.1 C 30.1 7.6 30 8.1 30 8.7 C 30 9.4 30.1 9.9 30.2 10.4 C 30.4 10.9 30.6 11.2 31 11.5 C 31.3 11.8 31.7 11.9 32.2 11.9 Z M 43.9 14.2 C 42.8 14.2 41.9 13.9 41.1 13.5 C 40.3 13 39.7 12.4 39.3 11.6 C 38.9 10.8 38.7 9.8 38.7 8.8 C 38.7 7.7 38.9 6.7 39.3 5.9 C 39.7 5.1 40.3 4.5 41.1 4 C 41.9 3.6 42.8 3.4 43.9 3.4 C 44.9 3.4 45.8 3.6 46.6 4 C 47.4 4.5 48 5.1 48.4 5.9 C 48.8 6.7 49 7.7 49 8.8 C 49 9.8 48.8 10.8 48.4 11.6 C 48 12.4 47.4 13 46.6 13.5 C 45.8 13.9 44.9 14.2 43.9 14.2 Z M 43.9 11.9 C 44.3 11.9 44.8 11.8 45.1 11.5 C 45.4 11.2 45.6 10.9 45.8 10.4 C 46 9.9 46.1 9.4 46.1 8.7 C 46.1 8.1 46 7.6 45.8 7.1 C 45.6 6.6 45.4 6.3 45.1 6 C 44.8 5.7 44.3 5.6 43.9 5.6 C 43.4 5.6 43 5.7 42.6 6 C 42.3 6.3 42.1 6.6 41.9 7.1 C 41.7 7.6 41.7 8.1 41.7 8.7 C 41.7 9.4 41.7 9.9 41.9 10.4 C 42.1 10.9 42.3 11.2 42.6 11.5 C 43 11.8 43.4 11.9 43.9 11.9 Z M 59.4 6.5 C 59.4 6.5 56.8 6.6 56.8 6.6 C 56.7 6.4 56.6 6.2 56.5 6 C 56.3 5.8 56.1 5.7 55.9 5.6 C 55.6 5.5 55.3 5.4 55 5.4 C 54.6 5.4 54.2 5.5 53.9 5.7 C 53.6 5.9 53.4 6.1 53.4 6.5 C 53.4 6.7 53.5 6.9 53.7 7.1 C 53.9 7.3 54.2 7.4 54.7 7.5 C 54.7 7.5 56.6 7.9 56.6 7.9 C 57.6 8.1 58.4 8.4 58.9 8.9 C 59.4 9.4 59.7 10 59.7 10.7 C 59.7 11.4 59.5 12 59.1 12.5 C 58.7 13 58.1 13.4 57.4 13.7 C 56.7 14 55.9 14.2 55 14.2 C 53.6 14.2 52.5 13.9 51.7 13.3 C 50.9 12.7 50.4 11.9 50.2 10.9 C 50.2 10.9 53.1 10.8 53.1 10.8 C 53.2 11.2 53.4 11.5 53.7 11.7 C 54.1 12 54.5 12.1 55 12.1 C 55.5 12.1 55.9 12 56.2 11.8 C 56.5 11.6 56.7 11.3 56.7 11 C 56.7 10.7 56.6 10.5 56.4 10.4 C 56.2 10.2 55.8 10.1 55.4 10 C 55.4 10 53.5 9.6 53.5 9.6 C 52.5 9.4 51.8 9 51.3 8.5 C 50.8 8 50.5 7.4 50.5 6.6 C 50.5 5.9 50.7 5.4 51.1 4.9 C 51.4 4.4 52 4 52.6 3.8 C 53.3 3.5 54.1 3.4 55 3.4 C 56.3 3.4 57.3 3.6 58.1 4.2 C 58.8 4.8 59.3 5.5 59.4 6.5 Z M 66.1 14.2 C 65 14.2 64.1 13.9 63.3 13.5 C 62.6 13.1 62 12.4 61.6 11.6 C 61.1 10.8 60.9 9.9 60.9 8.8 C 60.9 7.7 61.1 6.8 61.6 5.9 C 62 5.1 62.6 4.5 63.3 4 C 64.1 3.6 65 3.4 66 3.4 C 66.7 3.4 67.3 3.5 67.9 3.7 C 68.5 3.9 69.1 4.2 69.5 4.7 C 70 5.1 70.3 5.7 70.6 6.3 C 70.8 7 70.9 7.8 70.9 8.7 C 70.93 8.67 70.9 9.5 70.9 9.5 L 62.1 9.5 L 62.1 7.7 C 62.1 7.7 68.2 7.67 68.2 7.7 C 68.2 7.3 68.1 6.9 67.9 6.6 C 67.7 6.2 67.5 6 67.2 5.8 C 66.9 5.6 66.5 5.5 66.1 5.5 C 65.6 5.5 65.2 5.6 64.9 5.8 C 64.6 6 64.3 6.3 64.1 6.6 C 63.9 7 63.8 7.4 63.8 7.8 C 63.8 7.8 63.8 9.5 63.8 9.5 C 63.8 10 63.9 10.4 64.1 10.8 C 64.3 11.2 64.6 11.5 64.9 11.7 C 65.3 11.9 65.7 12 66.2 12 C 66.5 12 66.8 12 67.1 11.9 C 67.3 11.8 67.6 11.6 67.7 11.5 C 67.9 11.3 68.1 11.1 68.2 10.8 C 68.2 10.8 70.9 11 70.9 11 C 70.7 11.6 70.5 12.2 70 12.7 C 69.6 13.1 69.1 13.5 68.4 13.8 C 67.8 14 67 14.2 66.1 14.2 Z M 80.2 7.9 C 80.19 7.91 80.2 14 80.2 14 L 77.3 14 L 77.3 3.5 L 80 3.5 L 80 5.3 C 80 5.3 80.17 5.34 80.2 5.3 C 80.4 4.7 80.8 4.2 81.3 3.9 C 81.9 3.5 82.5 3.4 83.3 3.4 C 84 3.4 84.7 3.5 85.2 3.8 C 85.8 4.2 86.2 4.6 86.5 5.2 C 86.8 5.8 86.9 6.5 86.9 7.3 C 86.94 7.3 86.9 14 86.9 14 L 84 14 C 84 14 84.03 7.81 84 7.8 C 84 7.2 83.9 6.7 83.5 6.3 C 83.2 5.9 82.8 5.8 82.2 5.8 C 81.8 5.8 81.4 5.9 81.1 6 C 80.8 6.2 80.6 6.4 80.4 6.8 C 80.3 7.1 80.2 7.5 80.2 7.9 Z M 93.9 14.2 C 92.8 14.2 91.9 13.9 91.1 13.5 C 90.4 13.1 89.8 12.4 89.4 11.6 C 88.9 10.8 88.7 9.9 88.7 8.8 C 88.7 7.7 88.9 6.8 89.4 5.9 C 89.8 5.1 90.4 4.5 91.1 4 C 91.9 3.6 92.8 3.4 93.8 3.4 C 94.5 3.4 95.1 3.5 95.7 3.7 C 96.3 3.9 96.9 4.2 97.3 4.7 C 97.8 5.1 98.1 5.7 98.4 6.3 C 98.6 7 98.7 7.8 98.7 8.7 C 98.73 8.67 98.7 9.5 98.7 9.5 L 89.9 9.5 L 89.9 7.7 C 89.9 7.7 96 7.67 96 7.7 C 96 7.3 95.9 6.9 95.7 6.6 C 95.5 6.2 95.3 6 95 5.8 C 94.7 5.6 94.3 5.5 93.9 5.5 C 93.4 5.5 93 5.6 92.7 5.8 C 92.3 6 92.1 6.3 91.9 6.6 C 91.7 7 91.6 7.4 91.6 7.8 C 91.6 7.8 91.6 9.5 91.6 9.5 C 91.6 10 91.7 10.4 91.9 10.8 C 92.1 11.2 92.4 11.5 92.7 11.7 C 93.1 11.9 93.5 12 94 12 C 94.3 12 94.6 12 94.9 11.9 C 95.1 11.8 95.4 11.6 95.5 11.5 C 95.7 11.3 95.9 11.1 96 10.8 C 96 10.8 98.7 11 98.7 11 C 98.5 11.6 98.3 12.2 97.8 12.7 C 97.4 13.1 96.9 13.5 96.2 13.8 C 95.6 14 94.8 14.2 93.9 14.2 Z M 102.6 3.5 L 104.5 7.2 L 106.5 3.5 L 109.4 3.5 L 106.4 8.7 L 109.5 14 L 106.6 14 L 104.5 10.3 L 102.5 14 L 99.5 14 L 102.6 8.7 L 99.6 3.5 L 102.6 3.5 Z M 116.9 3.5 L 116.9 5.7 L 110.5 5.7 L 110.5 3.5 L 116.9 3.5 Z M 112 1 L 114.9 1 C 114.9 1 114.88 10.75 114.9 10.7 C 114.9 11 114.9 11.2 115 11.4 C 115.1 11.5 115.2 11.6 115.4 11.7 C 115.5 11.7 115.7 11.8 115.9 11.8 C 116 11.8 116.1 11.8 116.3 11.7 C 116.4 11.7 116.5 11.7 116.6 11.7 C 116.6 11.7 117 13.8 117 13.8 C 116.9 13.9 116.7 13.9 116.4 14 C 116.2 14.1 115.8 14.1 115.5 14.1 C 114.8 14.1 114.2 14 113.6 13.8 C 113.1 13.6 112.7 13.3 112.4 12.8 C 112.1 12.4 112 11.8 112 11.1 C 111.98 11.13 112 1 112 1 Z " stroke="none" fill="#ffffff"/>  </g></svg>