<?xml version="1.0" standalone="no"?><!DOCTYPE svg PUBLIC "-//W3C//DTD SVG 1.1//EN" "http://www.w3.org/Graphics/SVG/1.1/DTD/svg11.dtd"><svg xmlns="http://www.w3.org/2000/svg" version="1.1" width="413.5px" height="51.2px" viewBox="0 -12 413.5 51.2" style="top:-12px">  <desc>Recognizing AI hype</desc>  <defs/>  <g id="Polygon104859">    <path d="M 1.9 21.8 L 1.9 0 C 1.9 0 10.5 0 10.5 0 C 12.2 0 13.6 0.3 14.7 0.9 C 15.9 1.5 16.8 2.3 17.4 3.4 C 18 4.4 18.3 5.7 18.3 7.1 C 18.3 8.6 18 9.8 17.4 10.9 C 16.8 11.9 15.9 12.7 14.7 13.3 C 13.5 13.8 12.1 14.1 10.4 14.1 C 10.39 14.08 4.6 14.1 4.6 14.1 L 4.6 10.4 C 4.6 10.4 9.64 10.38 9.6 10.4 C 10.5 10.4 11.3 10.3 11.8 10 C 12.4 9.8 12.9 9.4 13.1 8.9 C 13.4 8.4 13.6 7.8 13.6 7.1 C 13.6 6.4 13.4 5.8 13.1 5.3 C 12.9 4.8 12.4 4.4 11.8 4.2 C 11.2 3.9 10.5 3.8 9.6 3.8 C 9.62 3.77 6.5 3.8 6.5 3.8 L 6.5 21.8 L 1.9 21.8 Z M 13.7 11.9 L 19.1 21.8 L 14 21.8 L 8.7 11.9 L 13.7 11.9 Z M 28.7 22.1 C 27 22.1 25.6 21.8 24.4 21.1 C 23.2 20.4 22.2 19.5 21.6 18.2 C 20.9 16.9 20.6 15.4 20.6 13.7 C 20.6 12 20.9 10.6 21.6 9.3 C 22.2 8 23.2 7 24.4 6.3 C 25.5 5.6 26.9 5.2 28.5 5.2 C 29.6 5.2 30.6 5.4 31.6 5.8 C 32.5 6.1 33.3 6.6 34 7.3 C 34.7 8 35.3 8.9 35.7 9.9 C 36 10.9 36.2 12.2 36.2 13.6 C 36.24 13.55 36.2 14.8 36.2 14.8 L 22.4 14.8 L 22.4 12 C 22.4 12 31.97 11.99 32 12 C 32 11.3 31.8 10.8 31.5 10.2 C 31.3 9.7 30.9 9.3 30.4 9.1 C 29.9 8.8 29.3 8.6 28.6 8.6 C 27.9 8.6 27.3 8.8 26.8 9.1 C 26.3 9.4 25.9 9.8 25.6 10.4 C 25.3 10.9 25.1 11.5 25.1 12.1 C 25.1 12.1 25.1 14.8 25.1 14.8 C 25.1 15.6 25.2 16.3 25.6 16.9 C 25.9 17.5 26.3 18 26.8 18.3 C 27.4 18.6 28 18.8 28.8 18.8 C 29.3 18.8 29.8 18.7 30.2 18.5 C 30.6 18.4 31 18.2 31.3 17.9 C 31.6 17.6 31.8 17.3 31.9 16.9 C 31.9 16.9 36.1 17.1 36.1 17.1 C 35.9 18.1 35.5 19 34.8 19.8 C 34.2 20.5 33.3 21.1 32.3 21.5 C 31.3 21.9 30.1 22.1 28.7 22.1 Z M 46.5 22.1 C 44.8 22.1 43.4 21.8 42.2 21.1 C 41 20.4 40.1 19.4 39.4 18.1 C 38.8 16.8 38.4 15.4 38.4 13.7 C 38.4 12 38.8 10.6 39.4 9.3 C 40.1 8 41 7 42.2 6.3 C 43.4 5.6 44.8 5.2 46.5 5.2 C 47.9 5.2 49.2 5.5 50.2 6 C 51.3 6.5 52.2 7.3 52.8 8.2 C 53.4 9.1 53.7 10.2 53.8 11.5 C 53.8 11.5 49.5 11.5 49.5 11.5 C 49.4 10.7 49.1 10 48.6 9.5 C 48.1 9 47.4 8.8 46.6 8.8 C 45.9 8.8 45.2 9 44.7 9.3 C 44.2 9.7 43.8 10.3 43.5 11 C 43.2 11.7 43.1 12.6 43.1 13.6 C 43.1 14.7 43.2 15.6 43.5 16.3 C 43.8 17 44.2 17.6 44.7 18 C 45.2 18.4 45.9 18.5 46.6 18.5 C 47.1 18.5 47.5 18.4 48 18.2 C 48.4 18 48.7 17.7 49 17.3 C 49.3 16.9 49.4 16.4 49.5 15.8 C 49.5 15.8 53.8 15.8 53.8 15.8 C 53.7 17.1 53.4 18.2 52.8 19.1 C 52.2 20.1 51.3 20.8 50.3 21.3 C 49.2 21.9 48 22.1 46.5 22.1 Z M 63.9 22.1 C 62.3 22.1 60.8 21.8 59.6 21.1 C 58.4 20.4 57.5 19.4 56.8 18.1 C 56.2 16.8 55.9 15.4 55.9 13.7 C 55.9 12 56.2 10.5 56.8 9.3 C 57.5 8 58.4 7 59.6 6.3 C 60.8 5.6 62.3 5.2 63.9 5.2 C 65.6 5.2 67 5.6 68.2 6.3 C 69.4 7 70.3 8 71 9.3 C 71.6 10.5 72 12 72 13.7 C 72 15.4 71.6 16.8 71 18.1 C 70.3 19.4 69.4 20.4 68.2 21.1 C 67 21.8 65.6 22.1 63.9 22.1 Z M 63.9 18.6 C 64.7 18.6 65.3 18.4 65.8 18 C 66.3 17.5 66.7 17 67 16.2 C 67.2 15.5 67.4 14.6 67.4 13.7 C 67.4 12.7 67.2 11.9 67 11.1 C 66.7 10.4 66.3 9.8 65.8 9.4 C 65.3 8.9 64.7 8.7 63.9 8.7 C 63.2 8.7 62.5 8.9 62 9.4 C 61.5 9.8 61.1 10.4 60.9 11.1 C 60.6 11.9 60.5 12.7 60.5 13.7 C 60.5 14.6 60.6 15.5 60.9 16.2 C 61.1 17 61.5 17.5 62 18 C 62.5 18.4 63.2 18.6 63.9 18.6 Z M 82.2 28.3 C 80.7 28.3 79.4 28.1 78.4 27.7 C 77.3 27.3 76.5 26.7 75.9 26.1 C 75.3 25.4 74.9 24.6 74.7 23.7 C 74.7 23.7 78.9 23.2 78.9 23.2 C 79 23.5 79.2 23.8 79.5 24.1 C 79.8 24.4 80.1 24.6 80.6 24.8 C 81.1 24.9 81.6 25 82.3 25 C 83.3 25 84.1 24.8 84.7 24.3 C 85.4 23.8 85.7 23 85.7 21.9 C 85.69 21.91 85.7 18.9 85.7 18.9 C 85.7 18.9 85.5 18.92 85.5 18.9 C 85.3 19.4 85 19.8 84.6 20.2 C 84.2 20.6 83.7 20.9 83.1 21.2 C 82.4 21.5 81.7 21.6 80.8 21.6 C 79.6 21.6 78.5 21.3 77.5 20.7 C 76.5 20.2 75.7 19.3 75.1 18.1 C 74.5 16.9 74.2 15.4 74.2 13.6 C 74.2 11.8 74.5 10.2 75.1 9 C 75.7 7.7 76.5 6.8 77.5 6.2 C 78.5 5.6 79.6 5.2 80.8 5.2 C 81.7 5.2 82.5 5.4 83.1 5.7 C 83.7 6 84.2 6.4 84.6 6.9 C 85 7.3 85.3 7.8 85.5 8.2 C 85.5 8.2 85.7 8.2 85.7 8.2 L 85.7 5.5 L 90.2 5.5 C 90.2 5.5 90.17 21.98 90.2 22 C 90.2 23.4 89.8 24.5 89.2 25.5 C 88.5 26.4 87.5 27.1 86.3 27.6 C 85.1 28.1 83.7 28.3 82.2 28.3 Z M 82.3 18.2 C 83 18.2 83.6 18 84.1 17.6 C 84.6 17.3 85 16.7 85.3 16 C 85.6 15.4 85.7 14.5 85.7 13.6 C 85.7 12.6 85.6 11.8 85.3 11.1 C 85 10.4 84.6 9.8 84.1 9.4 C 83.6 9 83 8.9 82.3 8.9 C 81.5 8.9 80.9 9.1 80.4 9.5 C 79.9 9.9 79.5 10.4 79.2 11.1 C 79 11.8 78.8 12.7 78.8 13.6 C 78.8 14.5 79 15.3 79.2 16 C 79.5 16.7 79.9 17.2 80.4 17.6 C 80.9 18 81.5 18.2 82.3 18.2 Z M 98.4 12.4 C 98.37 12.36 98.4 21.8 98.4 21.8 L 93.8 21.8 L 93.8 5.5 L 98.2 5.5 L 98.2 8.3 C 98.2 8.3 98.35 8.34 98.3 8.3 C 98.7 7.4 99.3 6.6 100.2 6.1 C 101 5.5 102.1 5.2 103.3 5.2 C 104.4 5.2 105.4 5.5 106.2 6 C 107.1 6.5 107.7 7.2 108.2 8.1 C 108.7 9 108.9 10.1 108.9 11.4 C 108.92 11.4 108.9 21.8 108.9 21.8 L 104.4 21.8 C 104.4 21.8 104.38 12.21 104.4 12.2 C 104.4 11.2 104.1 10.4 103.6 9.9 C 103.1 9.3 102.4 9 101.5 9 C 100.9 9 100.3 9.1 99.9 9.4 C 99.4 9.7 99 10.1 98.8 10.6 C 98.5 11.1 98.4 11.7 98.4 12.4 Z M 112.5 21.8 L 112.5 5.5 L 117 5.5 L 117 21.8 L 112.5 21.8 Z M 114.7 3.3 C 114.1 3.3 113.5 3.1 113 2.7 C 112.5 2.2 112.3 1.7 112.3 1.1 C 112.3 0.4 112.5 -0.1 113 -0.6 C 113.5 -1 114.1 -1.2 114.7 -1.2 C 115.4 -1.2 116 -1 116.5 -0.6 C 117 -0.1 117.2 0.4 117.2 1 C 117.2 1.7 117 2.2 116.5 2.7 C 116 3.1 115.4 3.3 114.7 3.3 Z M 120.1 21.8 L 120.1 19.1 L 128.1 9.2 L 128.1 9.1 L 120.4 9.1 L 120.4 5.5 L 133.6 5.5 L 133.6 8.4 L 126.1 18.1 L 126.1 18.2 L 133.9 18.2 L 133.9 21.8 L 120.1 21.8 Z M 137 21.8 L 137 5.5 L 141.5 5.5 L 141.5 21.8 L 137 21.8 Z M 139.3 3.3 C 138.6 3.3 138 3.1 137.5 2.7 C 137.1 2.2 136.8 1.7 136.8 1.1 C 136.8 0.4 137.1 -0.1 137.5 -0.6 C 138 -1 138.6 -1.2 139.3 -1.2 C 139.9 -1.2 140.5 -1 141 -0.6 C 141.5 -0.1 141.7 0.4 141.7 1 C 141.7 1.7 141.5 2.2 141 2.7 C 140.5 3.1 139.9 3.3 139.3 3.3 Z M 149.7 12.4 C 149.73 12.36 149.7 21.8 149.7 21.8 L 145.2 21.8 L 145.2 5.5 L 149.5 5.5 L 149.5 8.3 C 149.5 8.3 149.71 8.34 149.7 8.3 C 150.1 7.4 150.7 6.6 151.5 6.1 C 152.4 5.5 153.4 5.2 154.6 5.2 C 155.8 5.2 156.8 5.5 157.6 6 C 158.4 6.5 159.1 7.2 159.6 8.1 C 160 9 160.3 10.1 160.3 11.4 C 160.28 11.4 160.3 21.8 160.3 21.8 L 155.7 21.8 C 155.7 21.8 155.74 12.21 155.7 12.2 C 155.7 11.2 155.5 10.4 155 9.9 C 154.5 9.3 153.7 9 152.8 9 C 152.2 9 151.7 9.1 151.2 9.4 C 150.7 9.7 150.4 10.1 150.1 10.6 C 149.9 11.1 149.7 11.7 149.7 12.4 Z M 171.1 28.3 C 169.7 28.3 168.4 28.1 167.4 27.7 C 166.3 27.3 165.5 26.7 164.9 26.1 C 164.3 25.4 163.9 24.6 163.7 23.7 C 163.7 23.7 167.9 23.2 167.9 23.2 C 168 23.5 168.2 23.8 168.5 24.1 C 168.8 24.4 169.1 24.6 169.6 24.8 C 170 24.9 170.6 25 171.3 25 C 172.2 25 173.1 24.8 173.7 24.3 C 174.3 23.8 174.7 23 174.7 21.9 C 174.67 21.91 174.7 18.9 174.7 18.9 C 174.7 18.9 174.47 18.92 174.5 18.9 C 174.3 19.4 174 19.8 173.6 20.2 C 173.2 20.6 172.7 20.9 172 21.2 C 171.4 21.5 170.7 21.6 169.8 21.6 C 168.6 21.6 167.5 21.3 166.5 20.7 C 165.5 20.2 164.7 19.3 164.1 18.1 C 163.5 16.9 163.2 15.4 163.2 13.6 C 163.2 11.8 163.5 10.2 164.1 9 C 164.7 7.7 165.5 6.8 166.5 6.2 C 167.5 5.6 168.6 5.2 169.8 5.2 C 170.7 5.2 171.5 5.4 172.1 5.7 C 172.7 6 173.2 6.4 173.6 6.9 C 174 7.3 174.3 7.8 174.5 8.2 C 174.47 8.2 174.6 8.2 174.6 8.2 L 174.6 5.5 L 179.2 5.5 C 179.2 5.5 179.15 21.98 179.2 22 C 179.2 23.4 178.8 24.5 178.1 25.5 C 177.4 26.4 176.5 27.1 175.3 27.6 C 174.1 28.1 172.7 28.3 171.1 28.3 Z M 171.2 18.2 C 172 18.2 172.6 18 173.1 17.6 C 173.6 17.3 174 16.7 174.3 16 C 174.5 15.4 174.7 14.5 174.7 13.6 C 174.7 12.6 174.6 11.8 174.3 11.1 C 174 10.4 173.6 9.8 173.1 9.4 C 172.6 9 172 8.9 171.2 8.9 C 170.5 8.9 169.9 9.1 169.4 9.5 C 168.8 9.9 168.5 10.4 168.2 11.1 C 167.9 11.8 167.8 12.7 167.8 13.6 C 167.8 14.5 167.9 15.3 168.2 16 C 168.5 16.7 168.9 17.2 169.4 17.6 C 169.9 18 170.5 18.2 171.2 18.2 Z M 193.6 21.8 L 188.6 21.8 L 196.2 0 L 202.1 0 L 209.6 21.8 L 204.7 21.8 L 199.2 5 L 199.1 5 L 193.6 21.8 Z M 193.3 13.2 L 204.9 13.2 L 204.9 16.8 L 193.3 16.8 L 193.3 13.2 Z M 216.9 0 L 216.9 21.8 L 212.3 21.8 L 212.3 0 L 216.9 0 Z M 232.1 12.4 C 232.09 12.36 232.1 21.8 232.1 21.8 L 227.5 21.8 L 227.5 0 L 232 0 L 232 8.3 C 232 8.3 232.15 8.34 232.2 8.3 C 232.5 7.4 233.1 6.6 233.9 6.1 C 234.8 5.5 235.8 5.2 237 5.2 C 238.2 5.2 239.2 5.5 240 6 C 240.9 6.5 241.5 7.2 242 8.1 C 242.5 9 242.7 10.1 242.7 11.4 C 242.7 11.4 242.7 21.8 242.7 21.8 L 238.2 21.8 C 238.2 21.8 238.16 12.21 238.2 12.2 C 238.2 11.2 237.9 10.4 237.4 9.9 C 236.9 9.3 236.2 9 235.2 9 C 234.6 9 234.1 9.1 233.6 9.4 C 233.1 9.7 232.8 10.1 232.5 10.6 C 232.2 11.1 232.1 11.7 232.1 12.4 Z M 248.3 28 C 247.7 28 247.2 27.9 246.7 27.8 C 246.2 27.7 245.8 27.6 245.5 27.5 C 245.5 27.5 246.5 24.1 246.5 24.1 C 247 24.3 247.5 24.4 247.9 24.4 C 248.4 24.4 248.7 24.3 249.1 24.1 C 249.4 23.9 249.6 23.5 249.8 23 C 249.82 22.98 250.1 22.3 250.1 22.3 L 244.2 5.5 L 249 5.5 L 252.4 17.5 L 252.6 17.5 L 256 5.5 L 260.8 5.5 C 260.8 5.5 254.41 23.59 254.4 23.6 C 254.1 24.5 253.7 25.2 253.2 25.9 C 252.7 26.5 252 27.1 251.2 27.4 C 250.4 27.8 249.4 28 248.3 28 Z M 262.9 28 L 262.9 5.5 L 267.4 5.5 L 267.4 8.2 C 267.4 8.2 267.59 8.2 267.6 8.2 C 267.8 7.8 268.1 7.3 268.5 6.9 C 268.8 6.4 269.3 6 269.9 5.7 C 270.6 5.4 271.3 5.2 272.2 5.2 C 273.4 5.2 274.5 5.6 275.5 6.2 C 276.6 6.8 277.4 7.7 278 9 C 278.6 10.2 278.9 11.8 278.9 13.7 C 278.9 15.5 278.6 17 278 18.3 C 277.4 19.5 276.6 20.5 275.6 21.1 C 274.6 21.8 273.5 22.1 272.2 22.1 C 271.3 22.1 270.6 21.9 270 21.6 C 269.4 21.4 268.9 21 268.5 20.5 C 268.1 20.1 267.8 19.7 267.6 19.2 C 267.59 19.2 267.4 19.2 267.4 19.2 L 267.4 28 L 262.9 28 Z M 267.4 13.6 C 267.4 14.6 267.5 15.5 267.8 16.2 C 268 16.9 268.4 17.5 268.9 17.9 C 269.4 18.3 270.1 18.5 270.8 18.5 C 271.5 18.5 272.2 18.3 272.7 17.9 C 273.2 17.5 273.6 16.9 273.8 16.2 C 274.1 15.4 274.2 14.6 274.2 13.6 C 274.2 12.7 274.1 11.9 273.8 11.1 C 273.6 10.4 273.2 9.9 272.7 9.5 C 272.2 9.1 271.5 8.9 270.8 8.9 C 270.1 8.9 269.4 9 268.9 9.4 C 268.4 9.8 268 10.4 267.8 11.1 C 267.5 11.8 267.4 12.7 267.4 13.6 Z M 289.2 22.1 C 287.5 22.1 286.1 21.8 284.9 21.1 C 283.7 20.4 282.7 19.5 282.1 18.2 C 281.4 16.9 281.1 15.4 281.1 13.7 C 281.1 12 281.4 10.6 282.1 9.3 C 282.7 8 283.7 7 284.8 6.3 C 286 5.6 287.4 5.2 289 5.2 C 290.1 5.2 291.1 5.4 292.1 5.8 C 293 6.1 293.8 6.6 294.5 7.3 C 295.2 8 295.8 8.9 296.1 9.9 C 296.5 10.9 296.7 12.2 296.7 13.6 C 296.73 13.55 296.7 14.8 296.7 14.8 L 282.9 14.8 L 282.9 12 C 282.9 12 292.45 11.99 292.5 12 C 292.5 11.3 292.3 10.8 292 10.2 C 291.7 9.7 291.4 9.3 290.9 9.1 C 290.4 8.8 289.8 8.6 289.1 8.6 C 288.4 8.6 287.8 8.8 287.3 9.1 C 286.8 9.4 286.3 9.8 286 10.4 C 285.7 10.9 285.6 11.5 285.6 12.1 C 285.6 12.1 285.6 14.8 285.6 14.8 C 285.6 15.6 285.7 16.3 286 16.9 C 286.3 17.5 286.8 18 287.3 18.3 C 287.9 18.6 288.5 18.8 289.3 18.8 C 289.8 18.8 290.3 18.7 290.7 18.5 C 291.1 18.4 291.5 18.2 291.8 17.9 C 292 17.6 292.3 17.3 292.4 16.9 C 292.4 16.9 296.6 17.1 296.6 17.1 C 296.4 18.1 296 19 295.3 19.8 C 294.7 20.5 293.8 21.1 292.8 21.5 C 291.8 21.9 290.6 22.1 289.2 22.1 Z " stroke="none" fill="#ffffff"/>  </g></svg>