<?xml version="1.0" standalone="no"?><!DOCTYPE svg PUBLIC "-//W3C//DTD SVG 1.1//EN" "http://www.w3.org/Graphics/SVG/1.1/DTD/svg11.dtd"><svg xmlns="http://www.w3.org/2000/svg" version="1.1" width="157px" height="14.9px" viewBox="0 -2 157 14.9" style="top:-2px">  <desc>© 2024 Anaplan, Inc. All rights reserved.</desc>  <defs/>  <g id="Polygon126777">    <path d="M 2 4.8 C 2 4.5 2.1 4.2 2.2 4 C 2.4 3.7 2.6 3.5 2.8 3.4 C 3.1 3.2 3.4 3.2 3.7 3.2 C 4 3.2 4.2 3.2 4.4 3.3 C 4.7 3.4 4.9 3.6 5 3.8 C 5.1 4 5.2 4.2 5.3 4.5 C 5.3 4.5 4.6 4.5 4.6 4.5 C 4.6 4.3 4.4 4.1 4.3 4 C 4.1 3.9 3.9 3.8 3.7 3.8 C 3.5 3.8 3.3 3.9 3.2 4 C 3 4 2.9 4.2 2.8 4.3 C 2.7 4.5 2.7 4.7 2.7 4.8 C 2.7 5 2.7 5.2 2.8 5.4 C 2.9 5.5 3 5.6 3.2 5.7 C 3.3 5.8 3.5 5.9 3.7 5.9 C 3.9 5.9 4.1 5.8 4.2 5.7 C 4.4 5.6 4.5 5.4 4.5 5.2 C 4.5 5.2 5.2 5.2 5.2 5.2 C 5.2 5.5 5.1 5.7 5 5.9 C 4.8 6.1 4.6 6.2 4.4 6.4 C 4.2 6.5 4 6.5 3.7 6.5 C 3.4 6.5 3.1 6.5 2.8 6.3 C 2.6 6.1 2.4 5.9 2.2 5.7 C 2.1 5.4 2 5.2 2 4.8 Z M 3.7 7.8 C 3.2 7.8 2.9 7.8 2.5 7.6 C 2.1 7.5 1.8 7.2 1.5 7 C 1.3 6.7 1 6.4 0.9 6 C 0.7 5.6 0.7 5.3 0.7 4.8 C 0.7 4.4 0.7 4 0.9 3.7 C 1.1 3.3 1.3 3 1.5 2.7 C 1.8 2.4 2.1 2.2 2.5 2.1 C 2.9 1.9 3.2 1.8 3.7 1.8 C 4.1 1.8 4.5 1.9 4.8 2.1 C 5.2 2.2 5.5 2.4 5.8 2.7 C 6.1 3 6.3 3.3 6.4 3.7 C 6.6 4 6.7 4.4 6.7 4.8 C 6.7 5.3 6.6 5.6 6.4 6 C 6.3 6.4 6.1 6.7 5.8 7 C 5.5 7.2 5.2 7.5 4.8 7.6 C 4.5 7.8 4.1 7.8 3.7 7.8 Z M 3.7 7.2 C 4 7.2 4.3 7.1 4.6 7 C 4.9 6.9 5.1 6.7 5.3 6.5 C 5.5 6.3 5.7 6 5.8 5.8 C 5.9 5.5 6 5.2 6 4.8 C 6 4.5 5.9 4.2 5.8 3.9 C 5.7 3.6 5.5 3.4 5.3 3.2 C 5.1 3 4.9 2.8 4.6 2.7 C 4.3 2.6 4 2.5 3.7 2.5 C 3.3 2.5 3 2.6 2.8 2.7 C 2.5 2.8 2.2 3 2 3.2 C 1.8 3.4 1.6 3.7 1.5 3.9 C 1.4 4.2 1.3 4.5 1.3 4.8 C 1.3 5.2 1.4 5.5 1.5 5.7 C 1.6 6 1.8 6.3 2 6.5 C 2.2 6.7 2.5 6.9 2.7 7 C 3 7.1 3.3 7.2 3.7 7.2 Z M 10.2 7.8 L 10.2 7.2 C 10.2 7.2 12.09 5.14 12.1 5.1 C 12.3 4.9 12.5 4.7 12.6 4.5 C 12.8 4.3 12.9 4.1 13 4 C 13 3.8 13.1 3.6 13.1 3.5 C 13.1 3.3 13 3.1 12.9 2.9 C 12.8 2.8 12.7 2.7 12.5 2.6 C 12.4 2.5 12.2 2.5 12 2.5 C 11.7 2.5 11.5 2.5 11.4 2.6 C 11.2 2.7 11.1 2.8 11 3 C 10.9 3.2 10.9 3.3 10.9 3.6 C 10.9 3.6 10.2 3.6 10.2 3.6 C 10.2 3.2 10.3 2.9 10.4 2.7 C 10.6 2.4 10.8 2.2 11.1 2.1 C 11.3 1.9 11.6 1.9 12 1.9 C 12.3 1.9 12.6 1.9 12.9 2.1 C 13.2 2.2 13.4 2.4 13.5 2.7 C 13.7 2.9 13.7 3.2 13.7 3.5 C 13.7 3.7 13.7 3.9 13.6 4.1 C 13.5 4.3 13.4 4.5 13.2 4.8 C 13 5 12.8 5.3 12.4 5.7 C 12.44 5.68 11.1 7.1 11.1 7.1 L 11.1 7.1 L 13.8 7.1 L 13.8 7.8 L 10.2 7.8 Z M 16.9 7.8 C 16.5 7.8 16.1 7.7 15.8 7.5 C 15.5 7.2 15.3 6.9 15.1 6.5 C 15 6 14.9 5.5 14.9 4.8 C 14.9 4.2 15 3.7 15.2 3.2 C 15.3 2.8 15.5 2.4 15.8 2.2 C 16.1 2 16.5 1.9 16.9 1.9 C 17.4 1.9 17.7 2 18 2.2 C 18.3 2.4 18.6 2.8 18.7 3.2 C 18.9 3.7 19 4.2 19 4.8 C 19 5.5 18.9 6 18.7 6.5 C 18.6 6.9 18.3 7.2 18 7.5 C 17.7 7.7 17.4 7.8 16.9 7.8 Z M 16.9 7.2 C 17.4 7.2 17.7 7 17.9 6.6 C 18.2 6.2 18.3 5.6 18.3 4.8 C 18.3 4.3 18.2 3.9 18.1 3.6 C 18 3.2 17.9 2.9 17.7 2.7 C 17.5 2.6 17.2 2.5 16.9 2.5 C 16.5 2.5 16.2 2.7 15.9 3.1 C 15.7 3.5 15.6 4.1 15.6 4.8 C 15.6 5.3 15.6 5.8 15.8 6.1 C 15.9 6.5 16 6.7 16.2 6.9 C 16.4 7.1 16.7 7.2 16.9 7.2 Z M 20.1 7.8 L 20.1 7.2 C 20.1 7.2 21.99 5.14 22 5.1 C 22.2 4.9 22.4 4.7 22.6 4.5 C 22.7 4.3 22.8 4.1 22.9 4 C 22.9 3.8 23 3.6 23 3.5 C 23 3.3 22.9 3.1 22.8 2.9 C 22.7 2.8 22.6 2.7 22.4 2.6 C 22.3 2.5 22.1 2.5 21.9 2.5 C 21.6 2.5 21.5 2.5 21.3 2.6 C 21.1 2.7 21 2.8 20.9 3 C 20.8 3.2 20.8 3.3 20.8 3.6 C 20.8 3.6 20.1 3.6 20.1 3.6 C 20.1 3.2 20.2 2.9 20.3 2.7 C 20.5 2.4 20.7 2.2 21 2.1 C 21.2 1.9 21.6 1.9 21.9 1.9 C 22.2 1.9 22.5 1.9 22.8 2.1 C 23.1 2.2 23.3 2.4 23.4 2.7 C 23.6 2.9 23.6 3.2 23.6 3.5 C 23.6 3.7 23.6 3.9 23.5 4.1 C 23.4 4.3 23.3 4.5 23.1 4.8 C 22.9 5 22.7 5.3 22.3 5.7 C 22.35 5.68 21 7.1 21 7.1 L 21 7.1 L 23.7 7.1 L 23.7 7.8 L 20.1 7.8 Z M 24.7 6.6 L 24.7 6 L 27.3 1.9 L 27.7 1.9 L 27.7 2.8 L 27.4 2.8 L 25.5 5.9 L 25.5 5.9 L 28.9 5.9 L 28.9 6.6 L 24.7 6.6 Z M 27.4 7.8 L 27.4 6.4 L 27.4 6.1 L 27.4 1.9 L 28.1 1.9 L 28.1 7.8 L 27.4 7.8 Z M 32.6 7.8 L 31.8 7.8 L 34 1.9 L 34.7 1.9 L 36.8 7.8 L 36.1 7.8 L 34.3 2.9 L 34.3 2.9 L 32.6 7.8 Z M 32.8 5.5 L 35.8 5.5 L 35.8 6.1 L 32.8 6.1 L 32.8 5.5 Z M 38.5 5.1 C 38.5 5.13 38.5 7.8 38.5 7.8 L 37.8 7.8 L 37.8 3.4 L 38.5 3.4 L 38.5 4.1 C 38.5 4.1 38.53 4.07 38.5 4.1 C 38.6 3.8 38.8 3.7 39 3.5 C 39.2 3.4 39.5 3.3 39.8 3.3 C 40.1 3.3 40.4 3.4 40.6 3.5 C 40.8 3.6 41 3.8 41.1 4.1 C 41.2 4.3 41.3 4.6 41.3 5 C 41.28 4.98 41.3 7.8 41.3 7.8 L 40.6 7.8 C 40.6 7.8 40.61 5.02 40.6 5 C 40.6 4.7 40.5 4.4 40.3 4.2 C 40.2 4 39.9 3.9 39.6 3.9 C 39.4 3.9 39.2 4 39 4.1 C 38.9 4.2 38.7 4.3 38.6 4.5 C 38.5 4.7 38.5 4.9 38.5 5.1 Z M 43.9 7.9 C 43.6 7.9 43.4 7.8 43.2 7.7 C 42.9 7.6 42.8 7.4 42.6 7.2 C 42.5 7 42.4 6.8 42.4 6.5 C 42.4 6.3 42.5 6.1 42.6 5.9 C 42.7 5.7 42.8 5.6 43 5.5 C 43.1 5.4 43.3 5.4 43.5 5.3 C 43.7 5.3 43.9 5.3 44.1 5.2 C 44.4 5.2 44.6 5.2 44.8 5.1 C 44.9 5.1 45 5.1 45.1 5.1 C 45.2 5 45.2 4.9 45.2 4.8 C 45.2 4.8 45.2 4.8 45.2 4.8 C 45.2 4.5 45.2 4.3 45 4.2 C 44.9 4 44.6 3.9 44.3 3.9 C 44 3.9 43.7 4 43.6 4.1 C 43.4 4.3 43.3 4.4 43.2 4.6 C 43.2 4.6 42.5 4.4 42.5 4.4 C 42.7 4.1 42.8 3.9 43 3.7 C 43.2 3.6 43.4 3.5 43.6 3.4 C 43.9 3.4 44.1 3.3 44.3 3.3 C 44.4 3.3 44.6 3.3 44.8 3.4 C 45 3.4 45.1 3.5 45.3 3.6 C 45.5 3.7 45.6 3.8 45.7 4 C 45.9 4.3 45.9 4.5 45.9 4.9 C 45.91 4.88 45.9 7.8 45.9 7.8 L 45.2 7.8 L 45.2 7.2 C 45.2 7.2 45.21 7.16 45.2 7.2 C 45.2 7.3 45.1 7.4 45 7.5 C 44.9 7.6 44.7 7.7 44.6 7.7 C 44.4 7.8 44.2 7.9 43.9 7.9 Z M 44 7.3 C 44.3 7.3 44.5 7.2 44.7 7.1 C 44.9 7 45 6.9 45.1 6.7 C 45.2 6.5 45.2 6.4 45.2 6.2 C 45.2 6.2 45.2 5.6 45.2 5.6 C 45.2 5.6 45.1 5.6 45.1 5.6 C 45 5.7 44.8 5.7 44.7 5.7 C 44.6 5.7 44.5 5.8 44.4 5.8 C 44.2 5.8 44.2 5.8 44.1 5.8 C 43.9 5.8 43.7 5.9 43.6 5.9 C 43.4 6 43.3 6 43.2 6.1 C 43.1 6.2 43.1 6.4 43.1 6.5 C 43.1 6.8 43.2 7 43.4 7.1 C 43.5 7.2 43.7 7.3 44 7.3 Z M 47.3 9.4 L 47.3 3.4 L 47.9 3.4 L 47.9 4.1 C 47.9 4.1 48.02 4.08 48 4.1 C 48.1 4 48.1 3.9 48.2 3.8 C 48.3 3.7 48.4 3.6 48.6 3.5 C 48.8 3.4 49 3.3 49.3 3.3 C 49.6 3.3 50 3.4 50.3 3.6 C 50.5 3.8 50.7 4 50.9 4.4 C 51.1 4.7 51.1 5.1 51.1 5.6 C 51.1 6 51.1 6.4 50.9 6.8 C 50.7 7.1 50.5 7.4 50.3 7.6 C 50 7.7 49.7 7.8 49.3 7.8 C 49 7.8 48.8 7.8 48.6 7.7 C 48.4 7.6 48.3 7.5 48.2 7.4 C 48.1 7.3 48.1 7.2 48 7.1 C 48.02 7.08 48 7.1 48 7.1 L 48 9.4 L 47.3 9.4 Z M 47.9 5.6 C 47.9 5.9 48 6.2 48.1 6.4 C 48.2 6.7 48.3 6.9 48.5 7 C 48.7 7.2 48.9 7.2 49.2 7.2 C 49.5 7.2 49.7 7.2 49.9 7 C 50.1 6.9 50.2 6.7 50.3 6.4 C 50.4 6.2 50.5 5.9 50.5 5.6 C 50.5 5.3 50.4 5 50.3 4.7 C 50.2 4.5 50.1 4.3 49.9 4.1 C 49.7 4 49.5 3.9 49.2 3.9 C 48.9 3.9 48.7 4 48.5 4.1 C 48.3 4.3 48.2 4.5 48.1 4.7 C 48 5 47.9 5.2 47.9 5.6 Z M 53 1.9 L 53 7.8 L 52.3 7.8 L 52.3 1.9 L 53 1.9 Z M 55.7 7.9 C 55.4 7.9 55.1 7.8 54.9 7.7 C 54.7 7.6 54.5 7.4 54.4 7.2 C 54.2 7 54.2 6.8 54.2 6.5 C 54.2 6.3 54.2 6.1 54.3 5.9 C 54.4 5.7 54.6 5.6 54.7 5.5 C 54.9 5.4 55.1 5.4 55.3 5.3 C 55.5 5.3 55.7 5.3 55.9 5.2 C 56.1 5.2 56.4 5.2 56.5 5.1 C 56.7 5.1 56.8 5.1 56.9 5.1 C 57 5 57 4.9 57 4.8 C 57 4.8 57 4.8 57 4.8 C 57 4.5 56.9 4.3 56.8 4.2 C 56.6 4 56.4 3.9 56.1 3.9 C 55.8 3.9 55.5 4 55.3 4.1 C 55.1 4.3 55 4.4 54.9 4.6 C 54.9 4.6 54.3 4.4 54.3 4.4 C 54.4 4.1 54.6 3.9 54.8 3.7 C 54.9 3.6 55.2 3.5 55.4 3.4 C 55.6 3.4 55.8 3.3 56.1 3.3 C 56.2 3.3 56.4 3.3 56.5 3.4 C 56.7 3.4 56.9 3.5 57.1 3.6 C 57.2 3.7 57.4 3.8 57.5 4 C 57.6 4.3 57.7 4.5 57.7 4.9 C 57.67 4.88 57.7 7.8 57.7 7.8 L 57 7.8 L 57 7.2 C 57 7.2 56.96 7.16 57 7.2 C 56.9 7.3 56.8 7.4 56.7 7.5 C 56.6 7.6 56.5 7.7 56.3 7.7 C 56.1 7.8 55.9 7.9 55.7 7.9 Z M 55.8 7.3 C 56 7.3 56.3 7.2 56.4 7.1 C 56.6 7 56.8 6.9 56.9 6.7 C 56.9 6.5 57 6.4 57 6.2 C 57 6.2 57 5.6 57 5.6 C 57 5.6 56.9 5.6 56.8 5.6 C 56.7 5.7 56.6 5.7 56.5 5.7 C 56.4 5.7 56.2 5.8 56.1 5.8 C 56 5.8 55.9 5.8 55.8 5.8 C 55.7 5.8 55.5 5.9 55.3 5.9 C 55.2 6 55.1 6 55 6.1 C 54.9 6.2 54.8 6.4 54.8 6.5 C 54.8 6.8 54.9 7 55.1 7.1 C 55.3 7.2 55.5 7.3 55.8 7.3 Z M 59.7 5.1 C 59.72 5.13 59.7 7.8 59.7 7.8 L 59 7.8 L 59 3.4 L 59.7 3.4 L 59.7 4.1 C 59.7 4.1 59.75 4.07 59.8 4.1 C 59.9 3.8 60 3.7 60.2 3.5 C 60.4 3.4 60.7 3.3 61 3.3 C 61.3 3.3 61.6 3.4 61.8 3.5 C 62 3.6 62.2 3.8 62.3 4.1 C 62.4 4.3 62.5 4.6 62.5 5 C 62.5 4.98 62.5 7.8 62.5 7.8 L 61.8 7.8 C 61.8 7.8 61.83 5.02 61.8 5 C 61.8 4.7 61.7 4.4 61.6 4.2 C 61.4 4 61.1 3.9 60.8 3.9 C 60.6 3.9 60.4 4 60.3 4.1 C 60.1 4.2 60 4.3 59.9 4.5 C 59.8 4.7 59.7 4.9 59.7 5.1 Z M 64.8 7 C 64.8 7 64.76 7.26 64.8 7.3 C 64.7 7.5 64.7 7.7 64.6 8 C 64.6 8.2 64.5 8.4 64.4 8.7 C 64.3 8.9 64.3 9 64.2 9.2 C 64.2 9.2 63.7 9.2 63.7 9.2 C 63.8 9 63.8 8.9 63.8 8.7 C 63.9 8.5 63.9 8.3 63.9 8 C 64 7.8 64 7.5 64 7.3 C 64.05 7.27 64.1 7 64.1 7 L 64.8 7 Z M 69.1 1.9 L 69.1 7.8 L 68.4 7.8 L 68.4 1.9 L 69.1 1.9 Z M 71.3 5.1 C 71.26 5.13 71.3 7.8 71.3 7.8 L 70.6 7.8 L 70.6 3.4 L 71.2 3.4 L 71.2 4.1 C 71.2 4.1 71.3 4.07 71.3 4.1 C 71.4 3.8 71.6 3.7 71.8 3.5 C 72 3.4 72.2 3.3 72.6 3.3 C 72.9 3.3 73.1 3.4 73.3 3.5 C 73.6 3.6 73.7 3.8 73.9 4.1 C 74 4.3 74 4.6 74 5 C 74.05 4.98 74 7.8 74 7.8 L 73.4 7.8 C 73.4 7.8 73.38 5.02 73.4 5 C 73.4 4.7 73.3 4.4 73.1 4.2 C 72.9 4 72.7 3.9 72.4 3.9 C 72.2 3.9 72 4 71.8 4.1 C 71.6 4.2 71.5 4.3 71.4 4.5 C 71.3 4.7 71.3 4.9 71.3 5.1 Z M 77.2 7.8 C 76.8 7.8 76.4 7.7 76.1 7.6 C 75.8 7.4 75.6 7.1 75.4 6.8 C 75.3 6.4 75.2 6 75.2 5.6 C 75.2 5.1 75.3 4.8 75.4 4.4 C 75.6 4.1 75.8 3.8 76.1 3.6 C 76.4 3.4 76.8 3.3 77.2 3.3 C 77.5 3.3 77.7 3.4 78 3.5 C 78.2 3.6 78.4 3.8 78.6 4 C 78.8 4.2 78.9 4.4 78.9 4.7 C 78.9 4.7 78.2 4.7 78.2 4.7 C 78.2 4.5 78.1 4.3 77.9 4.2 C 77.7 4 77.5 3.9 77.2 3.9 C 76.9 3.9 76.7 4 76.5 4.1 C 76.3 4.3 76.1 4.5 76 4.7 C 75.9 5 75.9 5.2 75.9 5.6 C 75.9 5.9 75.9 6.2 76 6.4 C 76.1 6.7 76.3 6.9 76.5 7 C 76.7 7.2 76.9 7.2 77.2 7.2 C 77.4 7.2 77.5 7.2 77.7 7.1 C 77.8 7.1 77.9 7 78 6.9 C 78.1 6.8 78.2 6.6 78.2 6.5 C 78.2 6.5 78.9 6.5 78.9 6.5 C 78.9 6.7 78.8 7 78.6 7.2 C 78.5 7.4 78.3 7.5 78 7.7 C 77.8 7.8 77.5 7.8 77.2 7.8 Z M 80.5 7.8 C 80.3 7.8 80.2 7.7 80.1 7.6 C 80 7.5 80 7.4 80 7.3 C 80 7.1 80 7 80.1 6.9 C 80.2 6.8 80.3 6.8 80.5 6.8 C 80.6 6.8 80.7 6.8 80.8 6.9 C 80.9 7 81 7.1 81 7.3 C 81 7.4 81 7.5 80.9 7.5 C 80.9 7.6 80.8 7.7 80.7 7.7 C 80.7 7.8 80.6 7.8 80.5 7.8 Z M 84.8 7.8 L 84 7.8 L 86.2 1.9 L 86.9 1.9 L 89 7.8 L 88.3 7.8 L 86.6 2.9 L 86.5 2.9 L 84.8 7.8 Z M 85 5.5 L 88 5.5 L 88 6.1 L 85 6.1 L 85 5.5 Z M 90.7 1.9 L 90.7 7.8 L 90 7.8 L 90 1.9 L 90.7 1.9 Z M 92.8 1.9 L 92.8 7.8 L 92.1 7.8 L 92.1 1.9 L 92.8 1.9 Z M 96.2 7.8 L 96.2 3.4 L 96.9 3.4 L 96.9 4 C 96.9 4 96.94 4.05 96.9 4 C 97 3.8 97.2 3.7 97.4 3.5 C 97.6 3.4 97.8 3.3 98.1 3.3 C 98.1 3.3 98.2 3.3 98.3 3.3 C 98.3 3.3 98.4 3.3 98.4 3.3 C 98.4 3.3 98.4 4 98.4 4 C 98.4 4 98.4 4 98.3 4 C 98.2 4 98.1 4 98 4 C 97.8 4 97.6 4 97.5 4.1 C 97.3 4.2 97.2 4.3 97.1 4.5 C 97 4.6 96.9 4.8 96.9 5 C 96.91 4.99 96.9 7.8 96.9 7.8 L 96.2 7.8 Z M 99.4 7.8 L 99.4 3.4 L 100.1 3.4 L 100.1 7.8 L 99.4 7.8 Z M 99.7 2.7 C 99.6 2.7 99.5 2.6 99.4 2.5 C 99.3 2.4 99.2 2.3 99.2 2.2 C 99.2 2.1 99.3 2 99.4 1.9 C 99.5 1.8 99.6 1.8 99.7 1.8 C 99.9 1.8 100 1.8 100.1 1.9 C 100.2 2 100.2 2.1 100.2 2.2 C 100.2 2.3 100.2 2.4 100.1 2.5 C 100 2.6 99.9 2.7 99.7 2.7 Z M 103.2 9.5 C 102.9 9.5 102.6 9.4 102.3 9.4 C 102.1 9.3 101.9 9.2 101.8 9 C 101.6 8.9 101.5 8.8 101.4 8.6 C 101.4 8.6 101.9 8.2 101.9 8.2 C 102 8.3 102.1 8.4 102.2 8.5 C 102.3 8.6 102.4 8.7 102.5 8.8 C 102.7 8.8 102.9 8.9 103.2 8.9 C 103.5 8.9 103.8 8.8 104.1 8.6 C 104.3 8.5 104.4 8.2 104.4 7.8 C 104.4 7.83 104.4 6.9 104.4 6.9 C 104.4 6.9 104.34 6.94 104.3 6.9 C 104.3 7 104.2 7.1 104.1 7.2 C 104 7.4 103.9 7.5 103.7 7.5 C 103.6 7.6 103.4 7.7 103.1 7.7 C 102.7 7.7 102.4 7.6 102.1 7.4 C 101.8 7.3 101.6 7 101.5 6.7 C 101.3 6.4 101.2 6 101.2 5.5 C 101.2 5.1 101.3 4.7 101.5 4.4 C 101.6 4 101.8 3.8 102.1 3.6 C 102.4 3.4 102.7 3.3 103.1 3.3 C 103.4 3.3 103.6 3.4 103.8 3.5 C 103.9 3.6 104.1 3.7 104.1 3.8 C 104.2 3.9 104.3 4 104.4 4.1 C 104.35 4.08 104.4 4.1 104.4 4.1 L 104.4 3.4 L 105.1 3.4 C 105.1 3.4 105.07 7.88 105.1 7.9 C 105.1 8.3 105 8.6 104.8 8.8 C 104.6 9 104.4 9.2 104.1 9.3 C 103.8 9.4 103.5 9.5 103.2 9.5 Z M 103.2 7.1 C 103.4 7.1 103.7 7 103.8 6.9 C 104 6.8 104.2 6.6 104.3 6.4 C 104.4 6.1 104.4 5.9 104.4 5.5 C 104.4 5.2 104.4 4.9 104.3 4.7 C 104.2 4.5 104 4.3 103.8 4.1 C 103.7 4 103.4 3.9 103.2 3.9 C 102.9 3.9 102.6 4 102.4 4.1 C 102.3 4.3 102.1 4.5 102 4.7 C 101.9 5 101.9 5.2 101.9 5.5 C 101.9 5.8 101.9 6.1 102 6.3 C 102.1 6.6 102.3 6.8 102.5 6.9 C 102.6 7 102.9 7.1 103.2 7.1 Z M 107.1 5.1 C 107.12 5.13 107.1 7.8 107.1 7.8 L 106.5 7.8 L 106.5 1.9 L 107.1 1.9 L 107.1 4.1 C 107.1 4.1 107.18 4.07 107.2 4.1 C 107.3 3.8 107.4 3.7 107.6 3.5 C 107.8 3.4 108.1 3.3 108.5 3.3 C 108.8 3.3 109 3.4 109.2 3.5 C 109.5 3.6 109.6 3.8 109.8 4 C 109.9 4.3 110 4.6 110 5 C 109.95 4.98 110 7.8 110 7.8 L 109.3 7.8 C 109.3 7.8 109.28 5.02 109.3 5 C 109.3 4.7 109.2 4.4 109 4.2 C 108.8 4 108.6 3.9 108.3 3.9 C 108.1 3.9 107.9 4 107.7 4.1 C 107.5 4.2 107.4 4.3 107.3 4.5 C 107.2 4.7 107.1 4.9 107.1 5.1 Z M 113.1 3.4 L 113.1 4 L 110.9 4 L 110.9 3.4 L 113.1 3.4 Z M 111.5 2.3 L 112.2 2.3 C 112.2 2.3 112.19 6.5 112.2 6.5 C 112.2 6.7 112.2 6.8 112.3 6.9 C 112.3 7 112.4 7.1 112.5 7.1 C 112.6 7.1 112.7 7.2 112.8 7.2 C 112.8 7.2 112.9 7.2 113 7.1 C 113 7.1 113 7.1 113.1 7.1 C 113.1 7.1 113.2 7.7 113.2 7.7 C 113.2 7.7 113.1 7.8 113 7.8 C 112.9 7.8 112.8 7.8 112.7 7.8 C 112.5 7.8 112.3 7.8 112.1 7.7 C 112 7.6 111.8 7.5 111.7 7.3 C 111.6 7.1 111.5 6.9 111.5 6.7 C 111.52 6.68 111.5 2.3 111.5 2.3 Z M 117.3 4.4 C 117.3 4.4 116.7 4.5 116.7 4.5 C 116.7 4.4 116.6 4.3 116.5 4.2 C 116.5 4.1 116.4 4.1 116.2 4 C 116.1 3.9 116 3.9 115.8 3.9 C 115.5 3.9 115.3 4 115.1 4.1 C 114.9 4.2 114.8 4.4 114.8 4.6 C 114.8 4.7 114.9 4.9 115 5 C 115.1 5 115.3 5.1 115.6 5.2 C 115.6 5.2 116.2 5.4 116.2 5.4 C 116.6 5.4 116.9 5.6 117.1 5.8 C 117.3 6 117.4 6.2 117.4 6.5 C 117.4 6.8 117.3 7 117.2 7.2 C 117 7.4 116.8 7.6 116.6 7.7 C 116.3 7.8 116 7.8 115.7 7.8 C 115.2 7.8 114.9 7.7 114.6 7.6 C 114.3 7.4 114.1 7.1 114 6.7 C 114 6.7 114.7 6.5 114.7 6.5 C 114.7 6.8 114.8 7 115 7.1 C 115.2 7.2 115.4 7.3 115.7 7.3 C 116 7.3 116.2 7.2 116.4 7 C 116.6 6.9 116.7 6.8 116.7 6.6 C 116.7 6.4 116.6 6.3 116.5 6.2 C 116.4 6.1 116.3 6 116 6 C 116 6 115.3 5.8 115.3 5.8 C 114.9 5.7 114.6 5.5 114.4 5.3 C 114.3 5.1 114.2 4.9 114.2 4.6 C 114.2 4.3 114.2 4.1 114.4 3.9 C 114.5 3.7 114.7 3.6 114.9 3.5 C 115.2 3.4 115.5 3.3 115.8 3.3 C 116.2 3.3 116.5 3.4 116.8 3.6 C 117 3.8 117.2 4.1 117.3 4.4 Z M 120.6 7.8 L 120.6 3.4 L 121.3 3.4 L 121.3 4 C 121.3 4 121.34 4.05 121.3 4 C 121.4 3.8 121.6 3.7 121.8 3.5 C 122 3.4 122.2 3.3 122.5 3.3 C 122.5 3.3 122.6 3.3 122.7 3.3 C 122.7 3.3 122.8 3.3 122.8 3.3 C 122.8 3.3 122.8 4 122.8 4 C 122.8 4 122.8 4 122.7 4 C 122.6 4 122.5 4 122.4 4 C 122.2 4 122 4 121.9 4.1 C 121.7 4.2 121.6 4.3 121.5 4.5 C 121.4 4.6 121.3 4.8 121.3 5 C 121.32 4.99 121.3 7.8 121.3 7.8 L 120.6 7.8 Z M 125.5 7.8 C 125.1 7.8 124.7 7.7 124.4 7.6 C 124.1 7.4 123.9 7.1 123.7 6.8 C 123.6 6.4 123.5 6 123.5 5.6 C 123.5 5.2 123.6 4.8 123.7 4.4 C 123.9 4.1 124.1 3.8 124.4 3.6 C 124.7 3.4 125.1 3.3 125.5 3.3 C 125.7 3.3 125.9 3.4 126.1 3.4 C 126.4 3.5 126.6 3.6 126.7 3.8 C 126.9 4 127.1 4.2 127.2 4.5 C 127.3 4.8 127.3 5.1 127.3 5.5 C 127.33 5.51 127.3 5.8 127.3 5.8 L 124 5.8 L 124 5.2 C 124 5.2 126.65 5.22 126.7 5.2 C 126.7 5 126.6 4.8 126.5 4.6 C 126.4 4.4 126.3 4.2 126.1 4.1 C 125.9 4 125.7 3.9 125.5 3.9 C 125.2 3.9 125 4 124.8 4.1 C 124.6 4.3 124.4 4.4 124.3 4.6 C 124.2 4.9 124.2 5.1 124.2 5.3 C 124.2 5.3 124.2 5.7 124.2 5.7 C 124.2 6 124.2 6.3 124.3 6.5 C 124.5 6.8 124.6 6.9 124.8 7.1 C 125 7.2 125.3 7.2 125.5 7.2 C 125.7 7.2 125.9 7.2 126 7.2 C 126.1 7.1 126.3 7 126.4 6.9 C 126.5 6.8 126.6 6.7 126.6 6.6 C 126.6 6.6 127.3 6.7 127.3 6.7 C 127.2 7 127.1 7.2 126.9 7.3 C 126.8 7.5 126.6 7.6 126.3 7.7 C 126.1 7.8 125.8 7.8 125.5 7.8 Z M 131.6 4.4 C 131.6 4.4 131 4.5 131 4.5 C 130.9 4.4 130.9 4.3 130.8 4.2 C 130.7 4.1 130.6 4.1 130.5 4 C 130.4 3.9 130.2 3.9 130 3.9 C 129.7 3.9 129.5 4 129.3 4.1 C 129.2 4.2 129.1 4.4 129.1 4.6 C 129.1 4.7 129.1 4.9 129.3 5 C 129.4 5 129.6 5.1 129.8 5.2 C 129.8 5.2 130.5 5.4 130.5 5.4 C 130.9 5.4 131.2 5.6 131.4 5.8 C 131.5 6 131.6 6.2 131.6 6.5 C 131.6 6.8 131.6 7 131.4 7.2 C 131.3 7.4 131.1 7.6 130.8 7.7 C 130.6 7.8 130.3 7.8 129.9 7.8 C 129.5 7.8 129.1 7.7 128.8 7.6 C 128.5 7.4 128.4 7.1 128.3 6.7 C 128.3 6.7 128.9 6.5 128.9 6.5 C 129 6.8 129.1 7 129.3 7.1 C 129.4 7.2 129.7 7.3 129.9 7.3 C 130.2 7.3 130.5 7.2 130.7 7 C 130.9 6.9 130.9 6.8 130.9 6.6 C 130.9 6.4 130.9 6.3 130.8 6.2 C 130.7 6.1 130.5 6 130.3 6 C 130.3 6 129.6 5.8 129.6 5.8 C 129.2 5.7 128.9 5.5 128.7 5.3 C 128.5 5.1 128.4 4.9 128.4 4.6 C 128.4 4.3 128.5 4.1 128.6 3.9 C 128.8 3.7 129 3.6 129.2 3.5 C 129.4 3.4 129.7 3.3 130 3.3 C 130.4 3.3 130.8 3.4 131 3.6 C 131.3 3.8 131.5 4.1 131.6 4.4 Z M 134.6 7.8 C 134.2 7.8 133.8 7.7 133.5 7.6 C 133.2 7.4 133 7.1 132.8 6.8 C 132.7 6.4 132.6 6 132.6 5.6 C 132.6 5.2 132.7 4.8 132.8 4.4 C 133 4.1 133.2 3.8 133.5 3.6 C 133.8 3.4 134.1 3.3 134.5 3.3 C 134.8 3.3 135 3.4 135.2 3.4 C 135.4 3.5 135.6 3.6 135.8 3.8 C 136 4 136.1 4.2 136.3 4.5 C 136.4 4.8 136.4 5.1 136.4 5.5 C 136.41 5.51 136.4 5.8 136.4 5.8 L 133.1 5.8 L 133.1 5.2 C 133.1 5.2 135.73 5.22 135.7 5.2 C 135.7 5 135.7 4.8 135.6 4.6 C 135.5 4.4 135.4 4.2 135.2 4.1 C 135 4 134.8 3.9 134.5 3.9 C 134.3 3.9 134 4 133.8 4.1 C 133.7 4.3 133.5 4.4 133.4 4.6 C 133.3 4.9 133.2 5.1 133.2 5.3 C 133.2 5.3 133.2 5.7 133.2 5.7 C 133.2 6 133.3 6.3 133.4 6.5 C 133.5 6.8 133.7 6.9 133.9 7.1 C 134.1 7.2 134.3 7.2 134.6 7.2 C 134.8 7.2 134.9 7.2 135.1 7.2 C 135.2 7.1 135.4 7 135.5 6.9 C 135.6 6.8 135.6 6.7 135.7 6.6 C 135.7 6.6 136.3 6.7 136.3 6.7 C 136.3 7 136.2 7.2 136 7.3 C 135.8 7.5 135.6 7.6 135.4 7.7 C 135.2 7.8 134.9 7.8 134.6 7.8 Z M 137.6 7.8 L 137.6 3.4 L 138.2 3.4 L 138.2 4 C 138.2 4 138.29 4.05 138.3 4 C 138.4 3.8 138.5 3.7 138.7 3.5 C 138.9 3.4 139.2 3.3 139.4 3.3 C 139.5 3.3 139.5 3.3 139.6 3.3 C 139.7 3.3 139.7 3.3 139.8 3.3 C 139.8 3.3 139.8 4 139.8 4 C 139.8 4 139.7 4 139.6 4 C 139.5 4 139.5 4 139.4 4 C 139.2 4 139 4 138.8 4.1 C 138.6 4.2 138.5 4.3 138.4 4.5 C 138.3 4.6 138.3 4.8 138.3 5 C 138.27 4.99 138.3 7.8 138.3 7.8 L 137.6 7.8 Z M 144.5 3.4 L 142.8 7.8 L 142.2 7.8 L 140.6 3.4 L 141.3 3.4 L 142.5 6.9 L 142.5 6.9 L 143.7 3.4 L 144.5 3.4 Z M 147.1 7.8 C 146.7 7.8 146.3 7.7 146 7.6 C 145.7 7.4 145.5 7.1 145.3 6.8 C 145.2 6.4 145.1 6 145.1 5.6 C 145.1 5.2 145.2 4.8 145.3 4.4 C 145.5 4.1 145.7 3.8 146 3.6 C 146.3 3.4 146.7 3.3 147.1 3.3 C 147.3 3.3 147.5 3.4 147.7 3.4 C 148 3.5 148.2 3.6 148.3 3.8 C 148.5 4 148.7 4.2 148.8 4.5 C 148.9 4.8 148.9 5.1 148.9 5.5 C 148.94 5.51 148.9 5.8 148.9 5.8 L 145.6 5.8 L 145.6 5.2 C 145.6 5.2 148.26 5.22 148.3 5.2 C 148.3 5 148.2 4.8 148.1 4.6 C 148 4.4 147.9 4.2 147.7 4.1 C 147.5 4 147.3 3.9 147.1 3.9 C 146.8 3.9 146.6 4 146.4 4.1 C 146.2 4.3 146 4.4 145.9 4.6 C 145.8 4.9 145.8 5.1 145.8 5.3 C 145.8 5.3 145.8 5.7 145.8 5.7 C 145.8 6 145.8 6.3 145.9 6.5 C 146.1 6.8 146.2 6.9 146.4 7.1 C 146.6 7.2 146.9 7.2 147.1 7.2 C 147.3 7.2 147.5 7.2 147.6 7.2 C 147.8 7.1 147.9 7 148 6.9 C 148.1 6.8 148.2 6.7 148.2 6.6 C 148.2 6.6 148.9 6.7 148.9 6.7 C 148.8 7 148.7 7.2 148.5 7.3 C 148.4 7.5 148.2 7.6 147.9 7.7 C 147.7 7.8 147.4 7.8 147.1 7.8 Z M 151.8 7.8 C 151.4 7.8 151.1 7.7 150.8 7.6 C 150.5 7.4 150.3 7.1 150.1 6.8 C 150 6.4 149.9 6 149.9 5.6 C 149.9 5.1 150 4.7 150.1 4.4 C 150.3 4 150.5 3.8 150.8 3.6 C 151.1 3.4 151.4 3.3 151.8 3.3 C 152.1 3.3 152.3 3.4 152.4 3.5 C 152.6 3.6 152.7 3.7 152.8 3.8 C 152.9 3.9 153 4 153 4.1 C 153.03 4.08 153.1 4.1 153.1 4.1 L 153.1 1.9 L 153.8 1.9 L 153.8 7.8 L 153.1 7.8 L 153.1 7.1 C 153.1 7.1 153.03 7.08 153 7.1 C 153 7.2 152.9 7.3 152.8 7.4 C 152.7 7.5 152.6 7.6 152.4 7.7 C 152.3 7.8 152 7.8 151.8 7.8 Z M 151.8 7.2 C 152.1 7.2 152.3 7.2 152.5 7 C 152.7 6.9 152.9 6.7 153 6.4 C 153.1 6.2 153.1 5.9 153.1 5.6 C 153.1 5.2 153.1 5 153 4.7 C 152.9 4.5 152.7 4.3 152.5 4.1 C 152.4 4 152.1 3.9 151.8 3.9 C 151.6 3.9 151.3 4 151.1 4.1 C 151 4.3 150.8 4.5 150.7 4.7 C 150.6 5 150.6 5.3 150.6 5.6 C 150.6 5.9 150.6 6.2 150.7 6.4 C 150.8 6.7 151 6.9 151.1 7 C 151.3 7.2 151.6 7.2 151.8 7.2 Z M 155.7 7.8 C 155.5 7.8 155.4 7.7 155.3 7.6 C 155.2 7.5 155.2 7.4 155.2 7.3 C 155.2 7.1 155.2 7 155.3 6.9 C 155.4 6.8 155.5 6.8 155.7 6.8 C 155.8 6.8 155.9 6.8 156 6.9 C 156.1 7 156.2 7.1 156.2 7.3 C 156.2 7.4 156.2 7.5 156.1 7.5 C 156.1 7.6 156 7.7 155.9 7.7 C 155.9 7.8 155.8 7.8 155.7 7.8 Z " stroke="none" fill="#ffffff"/>  </g></svg>