<?xml version="1.0" standalone="no"?><!DOCTYPE svg PUBLIC "-//W3C//DTD SVG 1.1//EN" "http://www.w3.org/Graphics/SVG/1.1/DTD/svg11.dtd"><svg xmlns="http://www.w3.org/2000/svg" version="1.1" width="121px" height="25.4px" viewBox="0 -3 121 25.4" style="top:-3px">  <desc>15 / 19</desc>  <defs/>  <g id="Polygon122807">    <path d="M 43.9 3.4 L 43.9 13.6 L 42.6 13.6 L 42.6 4.7 L 42.6 4.7 L 40.1 6.3 L 40.1 5.1 L 42.6 3.4 L 43.9 3.4 Z M 49.6 13.7 C 49 13.7 48.5 13.6 48 13.4 C 47.5 13.1 47.2 12.8 46.9 12.4 C 46.6 12 46.4 11.5 46.4 11 C 46.4 11 47.6 11 47.6 11 C 47.7 11.5 47.9 11.9 48.2 12.2 C 48.6 12.5 49.1 12.6 49.6 12.6 C 50 12.6 50.4 12.5 50.7 12.3 C 51 12.1 51.3 11.8 51.5 11.5 C 51.6 11.2 51.7 10.8 51.7 10.3 C 51.7 9.9 51.6 9.5 51.5 9.2 C 51.3 8.8 51 8.5 50.7 8.3 C 50.3 8.1 49.9 8 49.5 8 C 49.2 8 48.9 8.1 48.5 8.2 C 48.2 8.3 47.9 8.4 47.7 8.5 C 47.73 8.53 46.6 8.4 46.6 8.4 L 47.2 3.4 L 52.5 3.4 L 52.5 4.5 L 48.2 4.5 L 47.9 7.5 C 47.9 7.5 47.93 7.48 47.9 7.5 C 48.1 7.3 48.4 7.2 48.7 7.1 C 49 7 49.4 6.9 49.7 6.9 C 50.3 6.9 50.9 7 51.4 7.3 C 51.9 7.6 52.2 8 52.5 8.6 C 52.8 9.1 52.9 9.7 52.9 10.3 C 52.9 11 52.8 11.5 52.5 12.1 C 52.2 12.6 51.8 13 51.3 13.3 C 50.8 13.6 50.2 13.7 49.6 13.7 Z M 62.5 2.9 L 59.2 15.1 L 58.1 15.1 L 61.4 2.9 L 62.5 2.9 Z M 71.4 3.4 L 71.4 13.6 L 70.1 13.6 L 70.1 4.7 L 70.1 4.7 L 67.6 6.3 L 67.6 5.1 L 70.1 3.4 L 71.4 3.4 Z M 77.2 3.2 C 77.6 3.2 78.1 3.3 78.5 3.5 C 78.9 3.6 79.3 3.9 79.6 4.3 C 80 4.6 80.2 5.1 80.5 5.7 C 80.7 6.3 80.8 7.1 80.8 8.1 C 80.8 9 80.7 9.8 80.5 10.5 C 80.3 11.2 80.1 11.8 79.8 12.2 C 79.5 12.7 79.1 13.1 78.6 13.3 C 78.2 13.6 77.6 13.7 77.1 13.7 C 76.5 13.7 76 13.6 75.5 13.4 C 75.1 13.1 74.7 12.8 74.5 12.4 C 74.2 12 74 11.5 73.9 11 C 73.9 11 75.1 11 75.1 11 C 75.2 11.5 75.4 11.8 75.8 12.2 C 76.1 12.5 76.5 12.6 77.1 12.6 C 77.9 12.6 78.5 12.3 78.9 11.6 C 79.4 10.9 79.6 9.9 79.6 8.7 C 79.6 8.7 79.5 8.7 79.5 8.7 C 79.3 8.9 79.1 9.2 78.9 9.4 C 78.6 9.6 78.3 9.7 78 9.9 C 77.7 10 77.4 10 77 10 C 76.4 10 75.9 9.9 75.4 9.6 C 74.9 9.3 74.6 8.9 74.3 8.4 C 74 7.9 73.8 7.3 73.8 6.6 C 73.8 6 74 5.4 74.2 4.9 C 74.5 4.4 74.9 4 75.4 3.7 C 75.9 3.4 76.5 3.2 77.2 3.2 Z M 77.2 4.3 C 76.8 4.3 76.4 4.4 76.1 4.6 C 75.8 4.9 75.5 5.1 75.3 5.5 C 75.1 5.8 75 6.2 75 6.6 C 75 7.1 75.1 7.5 75.3 7.8 C 75.5 8.1 75.7 8.4 76.1 8.6 C 76.4 8.8 76.8 8.9 77.2 8.9 C 77.5 8.9 77.8 8.9 78.1 8.7 C 78.3 8.6 78.6 8.4 78.8 8.2 C 79 8 79.1 7.8 79.3 7.5 C 79.4 7.2 79.4 6.9 79.4 6.6 C 79.4 6.2 79.3 5.9 79.1 5.5 C 79 5.2 78.7 4.9 78.4 4.7 C 78 4.4 77.7 4.3 77.2 4.3 Z " stroke="none" fill="#ffffff"/>  </g></svg>