<?xml version="1.0" standalone="no"?><!DOCTYPE svg PUBLIC "-//W3C//DTD SVG 1.1//EN" "http://www.w3.org/Graphics/SVG/1.1/DTD/svg11.dtd"><svg xmlns="http://www.w3.org/2000/svg" version="1.1" width="61px" height="18.4px" viewBox="0 -5 61 18.4" style="top:-5px">  <desc>5 / 19</desc>  <defs/>  <g id="Polygon111973">    <path d="M 20.4 7.4 C 20 7.4 19.6 7.3 19.3 7.1 C 18.9 7 18.7 6.7 18.5 6.4 C 18.3 6.2 18.1 5.8 18.1 5.5 C 18.1 5.5 19 5.5 19 5.5 C 19 5.8 19.2 6.1 19.4 6.3 C 19.7 6.5 20 6.6 20.4 6.6 C 20.7 6.6 20.9 6.5 21.2 6.4 C 21.4 6.2 21.6 6 21.7 5.8 C 21.9 5.6 21.9 5.3 21.9 5 C 21.9 4.7 21.9 4.4 21.7 4.1 C 21.6 3.9 21.4 3.7 21.2 3.5 C 20.9 3.4 20.6 3.3 20.3 3.3 C 20.1 3.3 19.9 3.3 19.6 3.4 C 19.4 3.5 19.2 3.6 19.1 3.7 C 19.06 3.68 18.2 3.6 18.2 3.6 L 18.7 0 L 22.5 0 L 22.5 0.8 L 19.4 0.8 L 19.2 2.9 C 19.2 2.9 19.21 2.93 19.2 2.9 C 19.4 2.8 19.5 2.7 19.8 2.6 C 20 2.6 20.2 2.5 20.5 2.5 C 20.9 2.5 21.3 2.6 21.7 2.8 C 22 3 22.3 3.3 22.5 3.7 C 22.7 4.1 22.8 4.5 22.8 5 C 22.8 5.4 22.7 5.8 22.5 6.2 C 22.3 6.6 22 6.8 21.6 7.1 C 21.3 7.3 20.8 7.4 20.4 7.4 Z M 29.6 -0.3 L 27.2 8.4 L 26.5 8.4 L 28.8 -0.3 L 29.6 -0.3 Z M 35.9 0 L 35.9 7.3 L 35.1 7.3 L 35.1 0.9 L 35 0.9 L 33.2 2.1 L 33.2 1.2 L 35.1 0 L 35.9 0 Z M 40.2 -0.1 C 40.5 -0.1 40.8 0 41.1 0.1 C 41.4 0.2 41.7 0.4 42 0.6 C 42.2 0.9 42.4 1.2 42.6 1.7 C 42.7 2.1 42.8 2.7 42.8 3.3 C 42.8 4 42.7 4.6 42.6 5.1 C 42.5 5.6 42.3 6 42.1 6.3 C 41.8 6.7 41.6 6.9 41.2 7.1 C 40.9 7.3 40.5 7.4 40.1 7.4 C 39.7 7.4 39.4 7.3 39 7.1 C 38.7 7 38.5 6.7 38.3 6.5 C 38.1 6.2 37.9 5.8 37.9 5.4 C 37.9 5.4 38.7 5.4 38.7 5.4 C 38.8 5.8 39 6 39.2 6.3 C 39.4 6.5 39.8 6.6 40.1 6.6 C 40.7 6.6 41.1 6.3 41.5 5.9 C 41.8 5.4 42 4.7 42 3.8 C 42 3.8 41.9 3.8 41.9 3.8 C 41.8 4 41.6 4.1 41.4 4.3 C 41.2 4.4 41 4.5 40.8 4.6 C 40.6 4.7 40.4 4.7 40.1 4.7 C 39.7 4.7 39.3 4.6 39 4.4 C 38.6 4.2 38.3 3.9 38.1 3.6 C 37.9 3.2 37.8 2.8 37.8 2.3 C 37.8 1.9 37.9 1.5 38.1 1.1 C 38.3 0.7 38.6 0.4 39 0.2 C 39.3 0 39.8 -0.1 40.2 -0.1 Z M 40.2 0.7 C 40 0.7 39.7 0.8 39.4 0.9 C 39.2 1.1 39 1.3 38.9 1.5 C 38.7 1.8 38.7 2 38.7 2.3 C 38.7 2.6 38.7 2.9 38.9 3.2 C 39 3.4 39.2 3.6 39.4 3.7 C 39.7 3.9 39.9 4 40.2 4 C 40.4 4 40.7 3.9 40.8 3.8 C 41 3.7 41.2 3.6 41.4 3.5 C 41.5 3.3 41.6 3.1 41.7 2.9 C 41.8 2.7 41.8 2.5 41.8 2.3 C 41.8 2 41.8 1.8 41.6 1.5 C 41.5 1.3 41.3 1.1 41.1 0.9 C 40.8 0.8 40.6 0.7 40.2 0.7 Z " stroke="none" fill="#10283d"/>  </g></svg>