<?xml version="1.0" standalone="no"?><!DOCTYPE svg PUBLIC "-//W3C//DTD SVG 1.1//EN" "http://www.w3.org/Graphics/SVG/1.1/DTD/svg11.dtd"><svg xmlns="http://www.w3.org/2000/svg" version="1.1" width="61px" height="18.4px" viewBox="0 -5 61 18.4" style="top:-5px">  <desc>9 / 19</desc>  <defs/>  <g id="Polygon118995">    <path d="M 20.3 -0.1 C 20.6 -0.1 20.9 0 21.2 0.1 C 21.5 0.2 21.8 0.4 22.1 0.6 C 22.3 0.9 22.5 1.2 22.7 1.7 C 22.8 2.1 22.9 2.7 22.9 3.3 C 22.9 4 22.8 4.6 22.7 5.1 C 22.6 5.6 22.4 6 22.2 6.3 C 21.9 6.7 21.7 6.9 21.3 7.1 C 21 7.3 20.6 7.4 20.2 7.4 C 19.8 7.4 19.5 7.3 19.1 7.1 C 18.8 7 18.6 6.7 18.4 6.5 C 18.2 6.2 18 5.8 18 5.4 C 18 5.4 18.8 5.4 18.8 5.4 C 18.9 5.8 19.1 6 19.3 6.3 C 19.5 6.5 19.9 6.6 20.2 6.6 C 20.8 6.6 21.2 6.3 21.6 5.9 C 21.9 5.4 22.1 4.7 22.1 3.8 C 22.1 3.8 22 3.8 22 3.8 C 21.9 4 21.7 4.1 21.5 4.3 C 21.3 4.4 21.1 4.5 20.9 4.6 C 20.7 4.7 20.5 4.7 20.2 4.7 C 19.8 4.7 19.4 4.6 19.1 4.4 C 18.7 4.2 18.4 3.9 18.2 3.6 C 18 3.2 17.9 2.8 17.9 2.3 C 17.9 1.9 18 1.5 18.2 1.1 C 18.4 0.7 18.7 0.4 19.1 0.2 C 19.4 0 19.9 -0.1 20.3 -0.1 Z M 20.3 0.7 C 20.1 0.7 19.8 0.8 19.5 0.9 C 19.3 1.1 19.1 1.3 19 1.5 C 18.8 1.8 18.8 2 18.8 2.3 C 18.8 2.6 18.8 2.9 19 3.2 C 19.1 3.4 19.3 3.6 19.5 3.7 C 19.8 3.9 20 4 20.3 4 C 20.5 4 20.8 3.9 20.9 3.8 C 21.1 3.7 21.3 3.6 21.5 3.5 C 21.6 3.3 21.7 3.1 21.8 2.9 C 21.9 2.7 21.9 2.5 21.9 2.3 C 21.9 2 21.9 1.8 21.7 1.5 C 21.6 1.3 21.4 1.1 21.2 0.9 C 20.9 0.8 20.7 0.7 20.3 0.7 Z M 29.7 -0.3 L 27.3 8.4 L 26.6 8.4 L 28.9 -0.3 L 29.7 -0.3 Z M 36 0 L 36 7.3 L 35.1 7.3 L 35.1 0.9 L 35.1 0.9 L 33.3 2.1 L 33.3 1.2 L 35.1 0 L 36 0 Z M 40.3 -0.1 C 40.6 -0.1 40.9 0 41.2 0.1 C 41.5 0.2 41.8 0.4 42 0.6 C 42.3 0.9 42.5 1.2 42.6 1.7 C 42.8 2.1 42.9 2.7 42.9 3.3 C 42.9 4 42.8 4.6 42.7 5.1 C 42.6 5.6 42.4 6 42.1 6.3 C 41.9 6.7 41.6 6.9 41.3 7.1 C 41 7.3 40.6 7.4 40.2 7.4 C 39.8 7.4 39.4 7.3 39.1 7.1 C 38.8 7 38.5 6.7 38.3 6.5 C 38.1 6.2 38 5.8 38 5.4 C 38 5.4 38.8 5.4 38.8 5.4 C 38.9 5.8 39.1 6 39.3 6.3 C 39.5 6.5 39.8 6.6 40.2 6.6 C 40.8 6.6 41.2 6.3 41.5 5.9 C 41.9 5.4 42 4.7 42 3.8 C 42 3.8 42 3.8 42 3.8 C 41.8 4 41.7 4.1 41.5 4.3 C 41.3 4.4 41.1 4.5 40.9 4.6 C 40.7 4.7 40.4 4.7 40.2 4.7 C 39.8 4.7 39.4 4.6 39 4.4 C 38.7 4.2 38.4 3.9 38.2 3.6 C 38 3.2 37.9 2.8 37.9 2.3 C 37.9 1.9 38 1.5 38.2 1.1 C 38.4 0.7 38.7 0.4 39 0.2 C 39.4 0 39.8 -0.1 40.3 -0.1 Z M 40.3 0.7 C 40 0.7 39.8 0.8 39.5 0.9 C 39.3 1.1 39.1 1.3 39 1.5 C 38.8 1.8 38.8 2 38.8 2.3 C 38.8 2.6 38.8 2.9 39 3.2 C 39.1 3.4 39.3 3.6 39.5 3.7 C 39.7 3.9 40 4 40.3 4 C 40.5 4 40.7 3.9 40.9 3.8 C 41.1 3.7 41.3 3.6 41.4 3.5 C 41.6 3.3 41.7 3.1 41.8 2.9 C 41.9 2.7 41.9 2.5 41.9 2.3 C 41.9 2 41.8 1.8 41.7 1.5 C 41.6 1.3 41.4 1.1 41.1 0.9 C 40.9 0.8 40.6 0.7 40.3 0.7 Z " stroke="none" fill="#10283d"/>  </g></svg>