<?xml version="1.0" standalone="no"?><!DOCTYPE svg PUBLIC "-//W3C//DTD SVG 1.1//EN" "http://www.w3.org/Graphics/SVG/1.1/DTD/svg11.dtd"><svg xmlns="http://www.w3.org/2000/svg" version="1.1" width="55px" height="15.9px" viewBox="0 -2 55 15.9" style="top:-2px">  <desc>Q1 FY24</desc>  <defs/>  <g id="Polygon123615">    <path d="M 14.3 5.9 L 15.1 5.9 L 15.7 6.8 L 15.9 7 L 16.9 8.3 L 16.1 8.3 L 15.4 7.4 L 15.3 7.2 L 14.3 5.9 Z M 17.1 4.8 C 17.1 5.5 17 6 16.8 6.4 C 16.5 6.9 16.2 7.2 15.8 7.5 C 15.5 7.7 15 7.8 14.5 7.8 C 14 7.8 13.6 7.7 13.2 7.5 C 12.8 7.2 12.5 6.9 12.3 6.4 C 12.1 6 12 5.5 12 4.8 C 12 4.2 12.1 3.7 12.3 3.3 C 12.5 2.8 12.8 2.5 13.2 2.2 C 13.6 2 14 1.9 14.5 1.9 C 15 1.9 15.5 2 15.8 2.2 C 16.2 2.5 16.5 2.8 16.8 3.3 C 17 3.7 17.1 4.2 17.1 4.8 Z M 16.4 4.8 C 16.4 4.3 16.3 3.9 16.2 3.6 C 16 3.2 15.8 3 15.5 2.8 C 15.2 2.6 14.9 2.5 14.5 2.5 C 14.2 2.5 13.9 2.6 13.6 2.8 C 13.3 3 13.1 3.2 12.9 3.6 C 12.7 3.9 12.6 4.3 12.6 4.8 C 12.6 5.3 12.7 5.8 12.9 6.1 C 13.1 6.5 13.3 6.7 13.6 6.9 C 13.9 7.1 14.2 7.2 14.5 7.2 C 14.9 7.2 15.2 7.1 15.5 6.9 C 15.8 6.7 16 6.5 16.2 6.1 C 16.3 5.8 16.4 5.3 16.4 4.8 Z M 20.2 1.9 L 20.2 7.8 L 19.5 7.8 L 19.5 2.7 L 19.5 2.7 L 18.1 3.6 L 18.1 2.9 L 19.5 1.9 L 20.2 1.9 Z M 24.2 7.8 L 24.2 1.9 L 27.7 1.9 L 27.7 2.6 L 24.9 2.6 L 24.9 4.5 L 27.5 4.5 L 27.5 5.1 L 24.9 5.1 L 24.9 7.8 L 24.2 7.8 Z M 28.4 1.9 L 29.2 1.9 L 30.9 4.6 L 30.9 4.6 L 32.5 1.9 L 33.3 1.9 L 31.2 5.4 L 31.2 7.8 L 30.5 7.8 L 30.5 5.4 L 28.4 1.9 Z M 34.1 7.8 L 34.1 7.2 C 34.1 7.2 36.07 5.14 36.1 5.1 C 36.3 4.9 36.5 4.7 36.6 4.5 C 36.8 4.3 36.9 4.1 37 4 C 37 3.8 37.1 3.6 37.1 3.5 C 37.1 3.3 37 3.1 36.9 2.9 C 36.8 2.8 36.7 2.7 36.5 2.6 C 36.3 2.5 36.2 2.5 35.9 2.5 C 35.7 2.5 35.5 2.5 35.4 2.6 C 35.2 2.7 35.1 2.8 35 3 C 34.9 3.2 34.8 3.3 34.8 3.6 C 34.8 3.6 34.2 3.6 34.2 3.6 C 34.2 3.2 34.2 2.9 34.4 2.7 C 34.6 2.4 34.8 2.2 35 2.1 C 35.3 1.9 35.6 1.9 36 1.9 C 36.3 1.9 36.6 1.9 36.9 2.1 C 37.1 2.2 37.3 2.4 37.5 2.7 C 37.6 2.9 37.7 3.2 37.7 3.5 C 37.7 3.7 37.7 3.9 37.6 4.1 C 37.5 4.3 37.4 4.5 37.2 4.8 C 37 5 36.8 5.3 36.4 5.7 C 36.42 5.68 35.1 7.1 35.1 7.1 L 35.1 7.1 L 37.8 7.1 L 37.8 7.8 L 34.1 7.8 Z M 38.9 6.6 L 38.9 6 L 41.4 1.9 L 41.8 1.9 L 41.8 2.8 L 41.5 2.8 L 39.6 5.9 L 39.6 5.9 L 43.1 5.9 L 43.1 6.6 L 38.9 6.6 Z M 41.6 7.8 L 41.6 6.4 L 41.6 6.1 L 41.6 1.9 L 42.3 1.9 L 42.3 7.8 L 41.6 7.8 Z " stroke="none" fill="#000"/>  </g></svg>