<?xml version="1.0" standalone="no"?><!DOCTYPE svg PUBLIC "-//W3C//DTD SVG 1.1//EN" "http://www.w3.org/Graphics/SVG/1.1/DTD/svg11.dtd"><svg xmlns="http://www.w3.org/2000/svg" version="1.1" width="121px" height="25.4px" viewBox="0 -3 121 25.4" style="top:-3px">  <desc>13 / 19</desc>  <defs/>  <g id="Polygon121336">    <path d="M 43.7 3.4 L 43.7 13.6 L 42.5 13.6 L 42.5 4.7 L 42.4 4.7 L 39.9 6.3 L 39.9 5.1 L 42.5 3.4 L 43.7 3.4 Z M 49.6 13.7 C 48.9 13.7 48.3 13.6 47.8 13.4 C 47.3 13.1 46.9 12.8 46.6 12.4 C 46.3 12 46.1 11.6 46.1 11 C 46.1 11 47.4 11 47.4 11 C 47.4 11.3 47.5 11.6 47.7 11.9 C 47.9 12.1 48.2 12.3 48.5 12.4 C 48.8 12.5 49.2 12.6 49.5 12.6 C 50 12.6 50.4 12.5 50.7 12.4 C 51 12.2 51.3 12 51.5 11.7 C 51.7 11.5 51.8 11.2 51.8 10.8 C 51.8 10.4 51.7 10.1 51.5 9.8 C 51.3 9.5 51.1 9.3 50.7 9.1 C 50.3 9 49.9 8.9 49.4 8.9 C 49.38 8.89 48.6 8.9 48.6 8.9 L 48.6 7.8 C 48.6 7.8 49.38 7.8 49.4 7.8 C 49.8 7.8 50.1 7.7 50.4 7.6 C 50.8 7.4 51 7.2 51.2 7 C 51.3 6.7 51.4 6.4 51.4 6 C 51.4 5.7 51.4 5.4 51.2 5.1 C 51.1 4.9 50.8 4.7 50.6 4.5 C 50.3 4.4 50 4.3 49.6 4.3 C 49.2 4.3 48.9 4.4 48.6 4.5 C 48.3 4.6 48 4.8 47.8 5.1 C 47.6 5.3 47.5 5.6 47.5 5.9 C 47.5 5.9 46.3 5.9 46.3 5.9 C 46.3 5.4 46.5 4.9 46.8 4.5 C 47.1 4.1 47.5 3.8 48 3.6 C 48.5 3.4 49 3.2 49.6 3.2 C 50.2 3.2 50.8 3.4 51.2 3.6 C 51.7 3.9 52 4.2 52.3 4.6 C 52.5 5 52.6 5.5 52.6 6 C 52.6 6.5 52.5 7 52.2 7.4 C 51.9 7.8 51.5 8.1 51 8.3 C 51 8.3 51 8.4 51 8.4 C 51.6 8.5 52.1 8.7 52.5 9.2 C 52.8 9.6 53 10.2 53 10.8 C 53 11.4 52.9 11.8 52.6 12.3 C 52.3 12.7 51.8 13.1 51.3 13.3 C 50.8 13.6 50.2 13.7 49.6 13.7 Z M 62.6 2.9 L 59.3 15.1 L 58.2 15.1 L 61.5 2.9 L 62.6 2.9 Z M 71.5 3.4 L 71.5 13.6 L 70.2 13.6 L 70.2 4.7 L 70.2 4.7 L 67.7 6.3 L 67.7 5.1 L 70.2 3.4 L 71.5 3.4 Z M 77.4 3.2 C 77.8 3.2 78.2 3.3 78.6 3.5 C 79 3.6 79.4 3.9 79.7 4.3 C 80.1 4.6 80.4 5.1 80.6 5.7 C 80.8 6.3 80.9 7.1 80.9 8.1 C 80.9 9 80.8 9.8 80.6 10.5 C 80.5 11.2 80.2 11.8 79.9 12.2 C 79.6 12.7 79.2 13.1 78.7 13.3 C 78.3 13.6 77.8 13.7 77.2 13.7 C 76.6 13.7 76.1 13.6 75.7 13.4 C 75.2 13.1 74.9 12.8 74.6 12.4 C 74.3 12 74.1 11.5 74 11 C 74 11 75.2 11 75.2 11 C 75.4 11.5 75.6 11.8 75.9 12.2 C 76.2 12.5 76.7 12.6 77.2 12.6 C 78 12.6 78.6 12.3 79.1 11.6 C 79.5 10.9 79.7 9.9 79.7 8.7 C 79.7 8.7 79.7 8.7 79.7 8.7 C 79.5 8.9 79.3 9.2 79 9.4 C 78.7 9.6 78.5 9.7 78.1 9.9 C 77.8 10 77.5 10 77.2 10 C 76.6 10 76 9.9 75.6 9.6 C 75.1 9.3 74.7 8.9 74.4 8.4 C 74.1 7.9 74 7.3 74 6.6 C 74 6 74.1 5.4 74.4 4.9 C 74.7 4.4 75 4 75.6 3.7 C 76.1 3.4 76.7 3.2 77.4 3.2 Z M 77.4 4.3 C 76.9 4.3 76.6 4.4 76.2 4.6 C 75.9 4.9 75.6 5.1 75.4 5.5 C 75.2 5.8 75.1 6.2 75.1 6.6 C 75.1 7.1 75.2 7.5 75.4 7.8 C 75.6 8.1 75.9 8.4 76.2 8.6 C 76.5 8.8 76.9 8.9 77.3 8.9 C 77.6 8.9 77.9 8.9 78.2 8.7 C 78.5 8.6 78.7 8.4 78.9 8.2 C 79.1 8 79.3 7.8 79.4 7.5 C 79.5 7.2 79.6 6.9 79.6 6.6 C 79.6 6.2 79.5 5.9 79.3 5.5 C 79.1 5.2 78.8 4.9 78.5 4.7 C 78.2 4.4 77.8 4.3 77.4 4.3 Z " stroke="none" fill="#ffffff"/>  </g></svg>