<?xml version="1.0" standalone="no"?><!DOCTYPE svg PUBLIC "-//W3C//DTD SVG 1.1//EN" "http://www.w3.org/Graphics/SVG/1.1/DTD/svg11.dtd"><svg xmlns="http://www.w3.org/2000/svg" version="1.1" width="275px" height="31.3px" viewBox="0 -8 275 31.3" style="top:-8px">  <desc>Difficult to use</desc>  <defs/>  <g id="Polygon106530">    <path d="M 31.5 13.1 C 31.49 13.09 27.5 13.1 27.5 13.1 L 27.5 0 C 27.5 0 31.67 0 31.7 0 C 32.9 0 34 0.3 34.9 0.8 C 35.8 1.3 36.5 2.1 37 3 C 37.5 4 37.7 5.2 37.7 6.5 C 37.7 7.9 37.5 9.1 37 10 C 36.5 11 35.8 11.8 34.9 12.3 C 33.9 12.8 32.8 13.1 31.5 13.1 Z M 29 11.7 C 29 11.7 31.39 11.68 31.4 11.7 C 32.5 11.7 33.4 11.5 34.1 11.1 C 34.8 10.6 35.3 10 35.7 9.3 C 36 8.5 36.2 7.6 36.2 6.5 C 36.2 5.5 36 4.6 35.7 3.8 C 35.3 3 34.8 2.4 34.1 2 C 33.4 1.6 32.6 1.4 31.6 1.4 C 31.57 1.41 29 1.4 29 1.4 L 29 11.7 Z M 40.2 13.1 L 40.2 3.3 L 41.7 3.3 L 41.7 13.1 L 40.2 13.1 Z M 40.9 1.6 C 40.7 1.6 40.4 1.5 40.2 1.3 C 40 1.1 39.9 0.9 39.9 0.6 C 39.9 0.3 40 0.1 40.2 -0.1 C 40.4 -0.3 40.7 -0.4 40.9 -0.4 C 41.2 -0.4 41.5 -0.3 41.7 -0.1 C 41.9 0.1 42 0.3 42 0.6 C 42 0.9 41.9 1.1 41.7 1.3 C 41.5 1.5 41.2 1.6 40.9 1.6 Z M 48.8 3.3 L 48.8 4.6 L 43.5 4.6 L 43.5 3.3 L 48.8 3.3 Z M 45.1 13.1 C 45.1 13.1 45.08 1.92 45.1 1.9 C 45.1 1.4 45.2 0.9 45.5 0.5 C 45.7 0.1 46.1 -0.1 46.5 -0.3 C 46.9 -0.5 47.4 -0.6 47.8 -0.6 C 48.2 -0.6 48.5 -0.6 48.7 -0.5 C 49 -0.5 49.2 -0.4 49.3 -0.4 C 49.3 -0.4 48.8 0.9 48.8 0.9 C 48.8 0.9 48.7 0.9 48.5 0.9 C 48.4 0.8 48.2 0.8 48 0.8 C 47.5 0.8 47.1 0.9 46.9 1.2 C 46.7 1.4 46.6 1.8 46.6 2.3 C 46.59 2.28 46.6 13.1 46.6 13.1 L 45.1 13.1 Z M 55.6 3.3 L 55.6 4.6 L 50.3 4.6 L 50.3 3.3 L 55.6 3.3 Z M 51.9 13.1 C 51.9 13.1 51.86 1.92 51.9 1.9 C 51.9 1.4 52 0.9 52.3 0.5 C 52.5 0.1 52.9 -0.1 53.3 -0.3 C 53.7 -0.5 54.2 -0.6 54.6 -0.6 C 55 -0.6 55.3 -0.6 55.5 -0.5 C 55.8 -0.5 55.9 -0.4 56.1 -0.4 C 56.1 -0.4 55.6 0.9 55.6 0.9 C 55.5 0.9 55.4 0.9 55.3 0.9 C 55.2 0.8 55 0.8 54.8 0.8 C 54.3 0.8 53.9 0.9 53.7 1.2 C 53.5 1.4 53.4 1.8 53.4 2.3 C 53.37 2.28 53.4 13.1 53.4 13.1 L 51.9 13.1 Z M 57.8 13.1 L 57.8 3.3 L 59.3 3.3 L 59.3 13.1 L 57.8 13.1 Z M 58.6 1.6 C 58.3 1.6 58.1 1.5 57.8 1.3 C 57.6 1.1 57.5 0.9 57.5 0.6 C 57.5 0.3 57.6 0.1 57.8 -0.1 C 58.1 -0.3 58.3 -0.4 58.6 -0.4 C 58.9 -0.4 59.1 -0.3 59.4 -0.1 C 59.6 0.1 59.7 0.3 59.7 0.6 C 59.7 0.9 59.6 1.1 59.4 1.3 C 59.1 1.5 58.9 1.6 58.6 1.6 Z M 66 13.3 C 65.1 13.3 64.3 13.1 63.6 12.6 C 63 12.2 62.5 11.6 62.1 10.8 C 61.8 10.1 61.6 9.2 61.6 8.2 C 61.6 7.2 61.8 6.4 62.1 5.6 C 62.5 4.8 63 4.2 63.7 3.8 C 64.3 3.4 65.1 3.1 66 3.1 C 66.7 3.1 67.3 3.3 67.9 3.5 C 68.4 3.8 68.9 4.1 69.2 4.6 C 69.6 5.1 69.8 5.6 69.9 6.2 C 69.9 6.2 68.4 6.2 68.4 6.2 C 68.3 5.8 68 5.4 67.6 5 C 67.2 4.7 66.7 4.5 66 4.5 C 65.4 4.5 64.9 4.7 64.5 5 C 64 5.3 63.7 5.7 63.5 6.2 C 63.2 6.8 63.1 7.4 63.1 8.2 C 63.1 8.9 63.2 9.6 63.4 10.2 C 63.7 10.7 64 11.2 64.5 11.5 C 64.9 11.8 65.4 11.9 66 11.9 C 66.4 11.9 66.8 11.9 67.1 11.7 C 67.4 11.6 67.7 11.4 67.9 11.1 C 68.1 10.9 68.3 10.6 68.4 10.2 C 68.4 10.2 69.9 10.2 69.9 10.2 C 69.8 10.8 69.6 11.3 69.3 11.8 C 68.9 12.3 68.5 12.6 67.9 12.9 C 67.4 13.2 66.8 13.3 66 13.3 Z M 78.2 9.1 C 78.17 9.08 78.2 3.3 78.2 3.3 L 79.7 3.3 L 79.7 13.1 L 78.2 13.1 L 78.2 11.4 C 78.2 11.4 78.07 11.43 78.1 11.4 C 77.8 11.9 77.5 12.4 77 12.7 C 76.5 13 75.9 13.2 75.2 13.2 C 74.5 13.2 74 13.1 73.5 12.8 C 73 12.5 72.7 12.1 72.4 11.6 C 72.1 11 72 10.3 72 9.5 C 71.98 9.51 72 3.3 72 3.3 L 73.5 3.3 C 73.5 3.3 73.49 9.41 73.5 9.4 C 73.5 10.1 73.7 10.7 74.1 11.1 C 74.5 11.5 75 11.8 75.6 11.8 C 76 11.8 76.4 11.7 76.8 11.5 C 77.2 11.3 77.5 11 77.8 10.6 C 78 10.2 78.2 9.7 78.2 9.1 Z M 83.9 0 L 83.9 13.1 L 82.4 13.1 L 82.4 0 L 83.9 0 Z M 90.9 3.3 L 90.9 4.6 L 85.8 4.6 L 85.8 3.3 L 90.9 3.3 Z M 87.3 0.9 L 88.8 0.9 C 88.8 0.9 88.78 10.28 88.8 10.3 C 88.8 10.7 88.8 11 89 11.2 C 89.1 11.4 89.3 11.6 89.5 11.7 C 89.7 11.7 89.9 11.8 90.1 11.8 C 90.2 11.8 90.4 11.8 90.5 11.7 C 90.6 11.7 90.7 11.7 90.7 11.7 C 90.7 11.7 91.1 13 91.1 13 C 91 13.1 90.8 13.1 90.6 13.2 C 90.4 13.2 90.2 13.2 89.9 13.2 C 89.5 13.2 89.1 13.1 88.7 12.9 C 88.3 12.8 87.9 12.5 87.7 12.1 C 87.4 11.7 87.3 11.3 87.3 10.7 C 87.27 10.69 87.3 0.9 87.3 0.9 Z M 102.5 3.3 L 102.5 4.6 L 97.4 4.6 L 97.4 3.3 L 102.5 3.3 Z M 98.9 0.9 L 100.4 0.9 C 100.4 0.9 100.39 10.28 100.4 10.3 C 100.4 10.7 100.4 11 100.6 11.2 C 100.7 11.4 100.9 11.6 101.1 11.7 C 101.3 11.7 101.5 11.8 101.7 11.8 C 101.9 11.8 102 11.8 102.1 11.7 C 102.2 11.7 102.3 11.7 102.4 11.7 C 102.4 11.7 102.7 13 102.7 13 C 102.6 13.1 102.4 13.1 102.2 13.2 C 102.1 13.2 101.8 13.2 101.5 13.2 C 101.1 13.2 100.7 13.1 100.3 12.9 C 99.9 12.8 99.5 12.5 99.3 12.1 C 99 11.7 98.9 11.3 98.9 10.7 C 98.88 10.69 98.9 0.9 98.9 0.9 Z M 108.2 13.3 C 107.3 13.3 106.6 13.1 105.9 12.7 C 105.2 12.2 104.7 11.7 104.3 10.9 C 104 10.1 103.8 9.2 103.8 8.2 C 103.8 7.2 104 6.3 104.3 5.6 C 104.7 4.8 105.2 4.2 105.9 3.8 C 106.6 3.4 107.3 3.1 108.2 3.1 C 109.1 3.1 109.9 3.4 110.6 3.8 C 111.2 4.2 111.7 4.8 112.1 5.6 C 112.5 6.3 112.7 7.2 112.7 8.2 C 112.7 9.2 112.5 10.1 112.1 10.9 C 111.7 11.7 111.2 12.2 110.6 12.7 C 109.9 13.1 109.1 13.3 108.2 13.3 Z M 108.2 11.9 C 108.9 11.9 109.5 11.8 109.9 11.4 C 110.3 11.1 110.6 10.6 110.9 10.1 C 111.1 9.5 111.2 8.9 111.2 8.2 C 111.2 7.6 111.1 7 110.9 6.4 C 110.6 5.8 110.3 5.4 109.9 5 C 109.5 4.7 108.9 4.5 108.2 4.5 C 107.6 4.5 107 4.7 106.6 5 C 106.1 5.4 105.8 5.8 105.6 6.4 C 105.4 7 105.3 7.6 105.3 8.2 C 105.3 8.9 105.4 9.5 105.6 10.1 C 105.8 10.6 106.1 11.1 106.6 11.4 C 107 11.8 107.6 11.9 108.2 11.9 Z M 126.2 9.1 C 126.23 9.08 126.2 3.3 126.2 3.3 L 127.7 3.3 L 127.7 13.1 L 126.2 13.1 L 126.2 11.4 C 126.2 11.4 126.13 11.43 126.1 11.4 C 125.9 11.9 125.5 12.4 125.1 12.7 C 124.6 13 124 13.2 123.2 13.2 C 122.6 13.2 122.1 13.1 121.6 12.8 C 121.1 12.5 120.7 12.1 120.4 11.6 C 120.2 11 120 10.3 120 9.5 C 120.04 9.51 120 3.3 120 3.3 L 121.5 3.3 C 121.5 3.3 121.55 9.41 121.5 9.4 C 121.5 10.1 121.7 10.7 122.2 11.1 C 122.6 11.5 123.1 11.8 123.7 11.8 C 124.1 11.8 124.5 11.7 124.8 11.5 C 125.2 11.3 125.6 11 125.8 10.6 C 126.1 10.2 126.2 9.7 126.2 9.1 Z M 137.3 5.5 C 137.3 5.5 136 5.9 136 5.9 C 135.9 5.6 135.8 5.4 135.6 5.2 C 135.4 5 135.2 4.8 134.9 4.7 C 134.6 4.5 134.3 4.4 133.8 4.4 C 133.2 4.4 132.7 4.6 132.3 4.9 C 132 5.1 131.8 5.5 131.8 5.9 C 131.8 6.3 131.9 6.6 132.2 6.8 C 132.4 7 132.9 7.2 133.4 7.3 C 133.4 7.3 134.9 7.7 134.9 7.7 C 135.8 7.9 136.4 8.2 136.9 8.7 C 137.3 9.1 137.5 9.7 137.5 10.4 C 137.5 10.9 137.3 11.4 137 11.9 C 136.7 12.3 136.3 12.7 135.7 12.9 C 135.1 13.2 134.4 13.3 133.7 13.3 C 132.7 13.3 131.8 13.1 131.2 12.6 C 130.5 12.2 130.1 11.6 129.9 10.7 C 129.9 10.7 131.4 10.4 131.4 10.4 C 131.5 10.9 131.8 11.3 132.1 11.6 C 132.5 11.8 133 12 133.6 12 C 134.3 12 134.9 11.8 135.3 11.5 C 135.7 11.2 135.9 10.9 135.9 10.4 C 135.9 10.1 135.8 9.8 135.6 9.6 C 135.3 9.3 135 9.2 134.5 9.1 C 134.5 9.1 132.9 8.7 132.9 8.7 C 132 8.5 131.3 8.1 130.9 7.7 C 130.5 7.2 130.2 6.7 130.2 6 C 130.2 5.4 130.4 4.9 130.7 4.5 C 131 4.1 131.5 3.8 132 3.5 C 132.5 3.3 133.2 3.1 133.8 3.1 C 134.8 3.1 135.6 3.4 136.1 3.8 C 136.7 4.2 137.1 4.8 137.3 5.5 Z M 143.8 13.3 C 142.9 13.3 142 13.1 141.4 12.7 C 140.7 12.2 140.1 11.7 139.8 10.9 C 139.4 10.1 139.2 9.3 139.2 8.3 C 139.2 7.3 139.4 6.4 139.8 5.6 C 140.1 4.8 140.7 4.2 141.3 3.8 C 142 3.4 142.8 3.1 143.6 3.1 C 144.2 3.1 144.7 3.2 145.2 3.4 C 145.7 3.6 146.1 3.8 146.5 4.2 C 146.9 4.6 147.3 5.1 147.5 5.7 C 147.7 6.4 147.9 7.1 147.9 8.1 C 147.87 8.05 147.9 8.7 147.9 8.7 L 140.3 8.7 L 140.3 7.4 C 140.3 7.4 146.33 7.39 146.3 7.4 C 146.3 6.8 146.2 6.3 146 5.9 C 145.8 5.5 145.5 5.1 145.1 4.9 C 144.7 4.6 144.2 4.5 143.6 4.5 C 143 4.5 142.5 4.6 142.1 4.9 C 141.7 5.2 141.3 5.6 141.1 6.1 C 140.9 6.6 140.7 7.1 140.7 7.6 C 140.7 7.6 140.7 8.5 140.7 8.5 C 140.7 9.2 140.9 9.9 141.1 10.4 C 141.4 10.9 141.7 11.3 142.2 11.5 C 142.7 11.8 143.2 11.9 143.8 11.9 C 144.2 11.9 144.6 11.9 144.9 11.8 C 145.2 11.7 145.5 11.5 145.7 11.3 C 145.9 11 146.1 10.7 146.3 10.4 C 146.3 10.4 147.7 10.8 147.7 10.8 C 147.6 11.3 147.3 11.7 146.9 12.1 C 146.6 12.5 146.1 12.8 145.6 13 C 145.1 13.2 144.5 13.3 143.8 13.3 Z " stroke="none" fill="#ffffff"/>  </g></svg>