<?xml version="1.0" standalone="no"?><!DOCTYPE svg PUBLIC "-//W3C//DTD SVG 1.1//EN" "http://www.w3.org/Graphics/SVG/1.1/DTD/svg11.dtd"><svg xmlns="http://www.w3.org/2000/svg" version="1.1" width="253px" height="214.8px" viewBox="0 -10 253 214.8" style="top:-10px">  <desc>What you need is a practical way to activate your data and leverage its value with AI. Making sure you have the right...</desc>  <defs/>  <g id="Polygon111566">    <path d="M 49.9 190.5 C 48.6 190.5 47.6 190.2 46.6 189.7 C 45.7 189.1 45 188.3 44.5 187.3 C 44 186.3 43.8 185.2 43.8 183.8 C 43.8 182.5 44 181.3 44.5 180.3 C 45 179.2 45.7 178.4 46.6 177.9 C 47.5 177.3 48.5 177 49.7 177 C 50.4 177 51 177.1 51.7 177.3 C 52.4 177.6 53 177.9 53.5 178.4 C 54.1 178.9 54.5 179.6 54.8 180.5 C 55.2 181.3 55.3 182.3 55.3 183.5 C 55.32 183.54 55.3 184.4 55.3 184.4 L 45.2 184.4 L 45.2 182.7 C 45.2 182.7 53.27 182.65 53.3 182.7 C 53.3 181.9 53.1 181.3 52.8 180.7 C 52.5 180.1 52.1 179.6 51.6 179.3 C 51.1 179 50.4 178.8 49.7 178.8 C 48.9 178.8 48.2 179 47.6 179.4 C 47 179.8 46.6 180.3 46.3 180.9 C 46 181.6 45.8 182.2 45.8 183 C 45.8 183 45.8 184.1 45.8 184.1 C 45.8 185.1 46 185.9 46.3 186.6 C 46.7 187.3 47.1 187.8 47.8 188.2 C 48.4 188.5 49.1 188.7 49.9 188.7 C 50.4 188.7 50.9 188.6 51.3 188.5 C 51.8 188.3 52.1 188.1 52.4 187.8 C 52.8 187.5 53 187.1 53.2 186.7 C 53.2 186.7 55.1 187.2 55.1 187.2 C 54.9 187.9 54.6 188.5 54.1 189 C 53.6 189.5 53 189.8 52.3 190.1 C 51.6 190.4 50.8 190.5 49.9 190.5 Z M 68.4 177.2 L 63.5 190.3 L 61.5 190.3 L 56.7 177.2 L 58.8 177.2 L 62.5 187.6 L 62.6 187.6 L 66.2 177.2 L 68.4 177.2 Z M 75.8 190.5 C 74.5 190.5 73.4 190.2 72.5 189.7 C 71.6 189.1 70.9 188.3 70.4 187.3 C 69.9 186.3 69.7 185.2 69.7 183.8 C 69.7 182.5 69.9 181.3 70.4 180.3 C 70.9 179.2 71.6 178.4 72.5 177.9 C 73.4 177.3 74.4 177 75.6 177 C 76.3 177 76.9 177.1 77.6 177.3 C 78.3 177.6 78.9 177.9 79.4 178.4 C 80 178.9 80.4 179.6 80.7 180.5 C 81 181.3 81.2 182.3 81.2 183.5 C 81.2 183.54 81.2 184.4 81.2 184.4 L 71.1 184.4 L 71.1 182.7 C 71.1 182.7 79.16 182.65 79.2 182.7 C 79.2 181.9 79 181.3 78.7 180.7 C 78.4 180.1 78 179.6 77.5 179.3 C 76.9 179 76.3 178.8 75.6 178.8 C 74.8 178.8 74.1 179 73.5 179.4 C 72.9 179.8 72.5 180.3 72.2 180.9 C 71.8 181.6 71.7 182.2 71.7 183 C 71.7 183 71.7 184.1 71.7 184.1 C 71.7 185.1 71.9 185.9 72.2 186.6 C 72.6 187.3 73 187.8 73.6 188.2 C 74.3 188.5 75 188.7 75.8 188.7 C 76.3 188.7 76.8 188.6 77.2 188.5 C 77.6 188.3 78 188.1 78.3 187.8 C 78.6 187.5 78.9 187.1 79.1 186.7 C 79.1 186.7 81 187.2 81 187.2 C 80.8 187.9 80.5 188.5 80 189 C 79.5 189.5 78.9 189.8 78.2 190.1 C 77.5 190.4 76.7 190.5 75.8 190.5 Z M 84.2 190.3 L 84.2 177.2 L 86.2 177.2 L 86.2 179.1 C 86.2 179.1 86.31 179.14 86.3 179.1 C 86.5 178.5 87 178 87.6 177.6 C 88.2 177.2 88.9 177 89.7 177 C 89.9 177 90 177 90.3 177 C 90.5 177 90.7 177 90.8 177 C 90.8 177 90.8 179 90.8 179 C 90.7 179 90.5 179 90.3 179 C 90.1 178.9 89.8 178.9 89.5 178.9 C 88.9 178.9 88.3 179 87.8 179.3 C 87.3 179.6 87 179.9 86.7 180.4 C 86.4 180.9 86.2 181.4 86.2 182 C 86.24 181.97 86.2 190.3 86.2 190.3 L 84.2 190.3 Z M 94.7 195.2 C 94.4 195.2 94.1 195.1 93.8 195.1 C 93.5 195 93.3 195 93.2 194.9 C 93.2 194.9 93.8 193.2 93.8 193.2 C 94.2 193.3 94.7 193.3 95.1 193.3 C 95.4 193.3 95.8 193.1 96.1 192.8 C 96.3 192.5 96.6 192 96.9 191.3 C 96.86 191.35 97.2 190.3 97.2 190.3 L 92.4 177.2 L 94.6 177.2 L 98.2 187.6 L 98.3 187.6 L 101.9 177.2 L 104.1 177.2 C 104.1 177.2 98.56 192.16 98.6 192.2 C 98.3 192.8 98 193.4 97.6 193.8 C 97.3 194.3 96.8 194.6 96.4 194.8 C 95.9 195.1 95.3 195.2 94.7 195.2 Z M 113.5 195.2 L 113.5 177.2 L 115.5 177.2 L 115.5 179.2 C 115.5 179.2 115.71 179.24 115.7 179.2 C 115.9 179 116.1 178.7 116.3 178.4 C 116.6 178 117 177.7 117.5 177.4 C 118 177.1 118.6 177 119.5 177 C 120.6 177 121.6 177.3 122.4 177.8 C 123.2 178.4 123.9 179.2 124.4 180.2 C 124.8 181.2 125.1 182.4 125.1 183.7 C 125.1 185.1 124.8 186.3 124.4 187.3 C 123.9 188.4 123.3 189.1 122.4 189.7 C 121.6 190.3 120.6 190.5 119.5 190.5 C 118.7 190.5 118 190.4 117.5 190.1 C 117 189.8 116.6 189.5 116.3 189.1 C 116.1 188.8 115.9 188.5 115.7 188.2 C 115.71 188.24 115.5 188.2 115.5 188.2 L 115.5 195.2 L 113.5 195.2 Z M 115.5 183.7 C 115.5 184.7 115.7 185.6 115.9 186.3 C 116.2 187.1 116.7 187.7 117.2 188.1 C 117.8 188.5 118.4 188.7 119.3 188.7 C 120.1 188.7 120.8 188.5 121.4 188.1 C 121.9 187.6 122.4 187 122.6 186.2 C 122.9 185.5 123.1 184.6 123.1 183.7 C 123.1 182.8 122.9 182 122.7 181.2 C 122.4 180.5 121.9 179.9 121.4 179.5 C 120.8 179 120.1 178.8 119.3 178.8 C 118.4 178.8 117.7 179 117.2 179.4 C 116.6 179.8 116.2 180.4 115.9 181.1 C 115.6 181.9 115.5 182.7 115.5 183.7 Z M 128.1 190.3 L 128.1 177.2 L 130.1 177.2 L 130.1 179.1 C 130.1 179.1 130.19 179.14 130.2 179.1 C 130.4 178.5 130.9 178 131.5 177.6 C 132.1 177.2 132.8 177 133.6 177 C 133.7 177 133.9 177 134.1 177 C 134.4 177 134.5 177 134.7 177 C 134.7 177 134.7 179 134.7 179 C 134.6 179 134.4 179 134.2 179 C 133.9 178.9 133.7 178.9 133.4 178.9 C 132.8 178.9 132.2 179 131.7 179.3 C 131.2 179.6 130.8 179.9 130.5 180.4 C 130.3 180.9 130.1 181.4 130.1 182 C 130.12 181.97 130.1 190.3 130.1 190.3 L 128.1 190.3 Z M 141.7 190.5 C 140.5 190.5 139.5 190.2 138.6 189.7 C 137.7 189.1 137 188.3 136.5 187.3 C 136 186.3 135.8 185.1 135.8 183.8 C 135.8 182.4 136 181.2 136.5 180.2 C 137 179.2 137.7 178.4 138.6 177.8 C 139.5 177.3 140.5 177 141.7 177 C 142.9 177 143.9 177.3 144.8 177.8 C 145.7 178.4 146.4 179.2 146.9 180.2 C 147.4 181.2 147.7 182.4 147.7 183.8 C 147.7 185.1 147.4 186.3 146.9 187.3 C 146.4 188.3 145.7 189.1 144.8 189.7 C 143.9 190.2 142.9 190.5 141.7 190.5 Z M 141.7 188.7 C 142.6 188.7 143.4 188.5 143.9 188 C 144.5 187.6 144.9 187 145.2 186.2 C 145.5 185.5 145.6 184.7 145.6 183.8 C 145.6 182.9 145.5 182.1 145.2 181.3 C 144.9 180.6 144.5 180 143.9 179.5 C 143.4 179 142.6 178.8 141.7 178.8 C 140.8 178.8 140.1 179 139.5 179.5 C 138.9 180 138.5 180.6 138.2 181.3 C 137.9 182.1 137.8 182.9 137.8 183.8 C 137.8 184.7 137.9 185.5 138.2 186.2 C 138.5 187 138.9 187.6 139.5 188 C 140.1 188.5 140.8 188.7 141.7 188.7 Z M 150.8 190.3 L 150.8 172.8 L 152.8 172.8 L 152.8 179.2 C 152.8 179.2 152.94 179.24 152.9 179.2 C 153.1 179 153.3 178.7 153.6 178.4 C 153.8 178 154.2 177.7 154.7 177.4 C 155.2 177.1 155.9 177 156.7 177 C 157.8 177 158.8 177.3 159.6 177.8 C 160.5 178.4 161.1 179.2 161.6 180.2 C 162.1 181.2 162.3 182.4 162.3 183.7 C 162.3 185.1 162.1 186.3 161.6 187.3 C 161.1 188.4 160.5 189.1 159.6 189.7 C 158.8 190.3 157.8 190.5 156.8 190.5 C 155.9 190.5 155.2 190.4 154.7 190.1 C 154.2 189.8 153.8 189.5 153.6 189.1 C 153.3 188.8 153.1 188.5 152.9 188.2 C 152.94 188.24 152.7 188.2 152.7 188.2 L 152.7 190.3 L 150.8 190.3 Z M 152.7 183.7 C 152.7 184.7 152.9 185.6 153.2 186.3 C 153.5 187.1 153.9 187.7 154.4 188.1 C 155 188.5 155.7 188.7 156.5 188.7 C 157.3 188.7 158 188.5 158.6 188.1 C 159.2 187.6 159.6 187 159.9 186.2 C 160.2 185.5 160.3 184.6 160.3 183.7 C 160.3 182.8 160.2 182 159.9 181.2 C 159.6 180.5 159.2 179.9 158.6 179.5 C 158 179 157.3 178.8 156.5 178.8 C 155.7 178.8 155 179 154.4 179.4 C 153.9 179.8 153.4 180.4 153.2 181.1 C 152.9 181.9 152.7 182.7 152.7 183.7 Z M 167.4 172.8 L 167.4 190.3 L 165.3 190.3 L 165.3 172.8 L 167.4 172.8 Z M 176.4 190.5 C 175.2 190.5 174.1 190.2 173.2 189.7 C 172.3 189.1 171.6 188.3 171.1 187.3 C 170.6 186.3 170.3 185.2 170.3 183.8 C 170.3 182.5 170.6 181.3 171.1 180.3 C 171.6 179.2 172.3 178.4 173.1 177.9 C 174 177.3 175.1 177 176.2 177 C 176.9 177 177.6 177.1 178.3 177.3 C 178.9 177.6 179.5 177.9 180.1 178.4 C 180.6 178.9 181 179.6 181.4 180.5 C 181.7 181.3 181.9 182.3 181.9 183.5 C 181.86 183.54 181.9 184.4 181.9 184.4 L 171.8 184.4 L 171.8 182.7 C 171.8 182.7 179.81 182.65 179.8 182.7 C 179.8 181.9 179.7 181.3 179.4 180.7 C 179.1 180.1 178.7 179.6 178.1 179.3 C 177.6 179 177 178.8 176.2 178.8 C 175.4 178.8 174.7 179 174.2 179.4 C 173.6 179.8 173.1 180.3 172.8 180.9 C 172.5 181.6 172.3 182.2 172.3 183 C 172.3 183 172.3 184.1 172.3 184.1 C 172.3 185.1 172.5 185.9 172.9 186.6 C 173.2 187.3 173.7 187.8 174.3 188.2 C 174.9 188.5 175.6 188.7 176.4 188.7 C 177 188.7 177.4 188.6 177.9 188.5 C 178.3 188.3 178.7 188.1 179 187.8 C 179.3 187.5 179.5 187.1 179.7 186.7 C 179.7 186.7 181.7 187.2 181.7 187.2 C 181.4 187.9 181.1 188.5 180.6 189 C 180.1 189.5 179.5 189.8 178.8 190.1 C 178.1 190.4 177.3 190.5 176.4 190.5 Z M 184.9 190.3 L 184.9 177.2 L 186.8 177.2 L 186.8 179.2 C 186.8 179.2 186.99 179.21 187 179.2 C 187.3 178.5 187.7 178 188.3 177.6 C 188.9 177.2 189.7 177 190.5 177 C 191.4 177 192.1 177.2 192.7 177.6 C 193.2 178 193.7 178.5 194 179.2 C 194 179.2 194.2 179.2 194.2 179.2 C 194.5 178.5 195 178 195.7 177.6 C 196.3 177.2 197.1 177 198.1 177 C 199.2 177 200.2 177.4 200.9 178.1 C 201.7 178.8 202.1 180 202.1 181.5 C 202.06 181.49 202.1 190.3 202.1 190.3 L 200.1 190.3 C 200.1 190.3 200.05 181.49 200.1 181.5 C 200.1 180.5 199.8 179.8 199.3 179.4 C 198.7 179 198.1 178.8 197.4 178.8 C 196.5 178.8 195.8 179.1 195.3 179.6 C 194.7 180.2 194.5 180.9 194.5 181.7 C 194.49 181.73 194.5 190.3 194.5 190.3 L 192.4 190.3 C 192.4 190.3 192.45 181.29 192.4 181.3 C 192.4 180.5 192.2 179.9 191.7 179.5 C 191.2 179 190.6 178.8 189.9 178.8 C 189.3 178.8 188.8 178.9 188.4 179.2 C 187.9 179.5 187.6 179.9 187.3 180.4 C 187 180.9 186.9 181.4 186.9 182.1 C 186.89 182.07 186.9 190.3 186.9 190.3 L 184.9 190.3 Z M 207.1 190.4 C 206.7 190.4 206.3 190.2 206 189.9 C 205.7 189.6 205.6 189.3 205.6 188.9 C 205.6 188.4 205.7 188.1 206 187.8 C 206.3 187.5 206.7 187.3 207.1 187.3 C 207.5 187.3 207.9 187.5 208.2 187.8 C 208.5 188.1 208.7 188.4 208.7 188.9 C 208.7 189.1 208.6 189.4 208.4 189.6 C 208.3 189.9 208.1 190 207.9 190.2 C 207.7 190.3 207.4 190.4 207.1 190.4 Z " stroke="none" fill="#10283d"/>  </g>  <g id="Polygon111565">    <path d="M 19.8 153.6 C 19.78 153.58 19.8 161.5 19.8 161.5 L 17.8 161.5 L 17.8 144 L 19.8 144 L 19.8 150.4 C 19.8 150.4 19.95 150.41 20 150.4 C 20.3 149.7 20.7 149.2 21.3 148.8 C 22 148.4 22.8 148.2 23.8 148.2 C 24.7 148.2 25.5 148.4 26.2 148.7 C 26.8 149.1 27.3 149.6 27.7 150.4 C 28.1 151.1 28.3 152 28.3 153.1 C 28.27 153.14 28.3 161.5 28.3 161.5 L 26.3 161.5 C 26.3 161.5 26.26 153.27 26.3 153.3 C 26.3 152.2 26 151.4 25.5 150.9 C 24.9 150.3 24.2 150 23.2 150 C 22.6 150 22 150.1 21.5 150.4 C 20.9 150.7 20.5 151.1 20.2 151.6 C 19.9 152.2 19.8 152.8 19.8 153.6 Z M 35.6 161.8 C 34.7 161.8 34 161.6 33.3 161.3 C 32.6 161 32.1 160.5 31.7 159.9 C 31.3 159.3 31.1 158.6 31.1 157.7 C 31.1 157 31.2 156.4 31.5 155.9 C 31.8 155.4 32.2 155.1 32.7 154.8 C 33.2 154.5 33.8 154.3 34.4 154.2 C 35 154.1 35.6 154 36.2 153.9 C 37 153.8 37.6 153.7 38.1 153.7 C 38.6 153.6 39 153.5 39.2 153.4 C 39.4 153.2 39.6 153 39.6 152.7 C 39.6 152.7 39.6 152.6 39.6 152.6 C 39.6 151.8 39.3 151.1 38.9 150.7 C 38.4 150.2 37.7 150 36.8 150 C 35.8 150 35.1 150.2 34.5 150.6 C 34 151 33.6 151.5 33.4 151.9 C 33.4 151.9 31.5 151.3 31.5 151.3 C 31.8 150.5 32.3 149.8 32.8 149.4 C 33.4 149 34 148.6 34.7 148.5 C 35.4 148.3 36.1 148.2 36.7 148.2 C 37.1 148.2 37.6 148.2 38.2 148.3 C 38.7 148.4 39.3 148.6 39.8 149 C 40.3 149.3 40.7 149.7 41.1 150.3 C 41.4 151 41.6 151.8 41.6 152.8 C 41.57 152.83 41.6 161.5 41.6 161.5 L 39.6 161.5 L 39.6 159.7 C 39.6 159.7 39.45 159.68 39.5 159.7 C 39.3 160 39.1 160.3 38.8 160.6 C 38.5 160.9 38 161.2 37.5 161.4 C 37 161.6 36.3 161.8 35.6 161.8 Z M 35.9 160 C 36.7 160 37.3 159.8 37.9 159.5 C 38.4 159.2 38.9 158.8 39.1 158.3 C 39.4 157.8 39.6 157.3 39.6 156.7 C 39.6 156.7 39.6 154.9 39.6 154.9 C 39.5 155 39.3 155.1 39 155.2 C 38.7 155.2 38.4 155.3 38 155.4 C 37.6 155.4 37.3 155.5 36.9 155.5 C 36.6 155.6 36.3 155.6 36.1 155.6 C 35.6 155.7 35.1 155.8 34.6 156 C 34.2 156.1 33.8 156.3 33.5 156.6 C 33.2 156.9 33.1 157.3 33.1 157.8 C 33.1 158.5 33.4 159.1 33.9 159.4 C 34.4 159.8 35.1 160 35.9 160 Z M 55.3 148.4 L 50.4 161.5 L 48.4 161.5 L 43.5 148.4 L 45.7 148.4 L 49.3 158.8 L 49.5 158.8 L 53.1 148.4 L 55.3 148.4 Z M 62.7 161.7 C 61.4 161.7 60.3 161.4 59.4 160.9 C 58.5 160.3 57.8 159.5 57.3 158.5 C 56.8 157.5 56.6 156.4 56.6 155 C 56.6 153.7 56.8 152.5 57.3 151.5 C 57.8 150.4 58.5 149.6 59.4 149.1 C 60.2 148.5 61.3 148.2 62.5 148.2 C 63.1 148.2 63.8 148.3 64.5 148.5 C 65.1 148.8 65.7 149.1 66.3 149.6 C 66.8 150.1 67.3 150.8 67.6 151.7 C 67.9 152.5 68.1 153.5 68.1 154.7 C 68.08 154.74 68.1 155.6 68.1 155.6 L 58 155.6 L 58 153.9 C 58 153.9 66.03 153.85 66 153.9 C 66 153.1 65.9 152.5 65.6 151.9 C 65.3 151.3 64.9 150.8 64.3 150.5 C 63.8 150.2 63.2 150 62.5 150 C 61.6 150 61 150.2 60.4 150.6 C 59.8 151 59.3 151.5 59 152.1 C 58.7 152.8 58.6 153.4 58.6 154.2 C 58.6 154.2 58.6 155.3 58.6 155.3 C 58.6 156.3 58.7 157.1 59.1 157.8 C 59.4 158.5 59.9 159 60.5 159.4 C 61.1 159.7 61.8 159.9 62.7 159.9 C 63.2 159.9 63.7 159.8 64.1 159.7 C 64.5 159.5 64.9 159.3 65.2 159 C 65.5 158.7 65.8 158.3 65.9 157.9 C 65.9 157.9 67.9 158.4 67.9 158.4 C 67.7 159.1 67.3 159.7 66.8 160.2 C 66.4 160.7 65.8 161 65.1 161.3 C 64.3 161.6 63.5 161.7 62.7 161.7 Z M 83.6 148.4 L 83.6 150.1 L 76.8 150.1 L 76.8 148.4 L 83.6 148.4 Z M 78.8 145.2 L 80.8 145.2 C 80.8 145.2 80.79 157.7 80.8 157.7 C 80.8 158.3 80.9 158.7 81 159 C 81.2 159.3 81.4 159.4 81.7 159.5 C 82 159.6 82.2 159.7 82.5 159.7 C 82.8 159.7 82.9 159.7 83.1 159.6 C 83.2 159.6 83.3 159.6 83.4 159.6 C 83.4 159.6 83.8 161.4 83.8 161.4 C 83.7 161.4 83.5 161.5 83.3 161.5 C 83 161.6 82.7 161.6 82.3 161.6 C 81.8 161.6 81.2 161.5 80.7 161.3 C 80.1 161 79.7 160.6 79.3 160.1 C 79 159.6 78.8 159 78.8 158.3 C 78.78 158.25 78.8 145.2 78.8 145.2 Z M 88.2 153.6 C 88.16 153.58 88.2 161.5 88.2 161.5 L 86.1 161.5 L 86.1 144 L 88.2 144 L 88.2 150.4 C 88.2 150.4 88.33 150.41 88.3 150.4 C 88.6 149.7 89.1 149.2 89.7 148.8 C 90.3 148.4 91.2 148.2 92.2 148.2 C 93.1 148.2 93.9 148.4 94.5 148.7 C 95.2 149.1 95.7 149.6 96.1 150.4 C 96.5 151.1 96.6 152 96.6 153.1 C 96.65 153.14 96.6 161.5 96.6 161.5 L 94.6 161.5 C 94.6 161.5 94.63 153.27 94.6 153.3 C 94.6 152.2 94.4 151.4 93.8 150.9 C 93.3 150.3 92.5 150 91.6 150 C 90.9 150 90.4 150.1 89.8 150.4 C 89.3 150.7 88.9 151.1 88.6 151.6 C 88.3 152.2 88.2 152.8 88.2 153.6 Z M 105.7 161.7 C 104.4 161.7 103.3 161.4 102.4 160.9 C 101.5 160.3 100.8 159.5 100.3 158.5 C 99.8 157.5 99.6 156.4 99.6 155 C 99.6 153.7 99.8 152.5 100.3 151.5 C 100.8 150.4 101.5 149.6 102.4 149.1 C 103.2 148.5 104.3 148.2 105.5 148.2 C 106.1 148.2 106.8 148.3 107.5 148.5 C 108.1 148.8 108.7 149.1 109.3 149.6 C 109.8 150.1 110.3 150.8 110.6 151.7 C 110.9 152.5 111.1 153.5 111.1 154.7 C 111.08 154.74 111.1 155.6 111.1 155.6 L 101 155.6 L 101 153.9 C 101 153.9 109.03 153.85 109 153.9 C 109 153.1 108.9 152.5 108.6 151.9 C 108.3 151.3 107.9 150.8 107.3 150.5 C 106.8 150.2 106.2 150 105.5 150 C 104.6 150 104 150.2 103.4 150.6 C 102.8 151 102.3 151.5 102 152.1 C 101.7 152.8 101.6 153.4 101.6 154.2 C 101.6 154.2 101.6 155.3 101.6 155.3 C 101.6 156.3 101.7 157.1 102.1 157.8 C 102.4 158.5 102.9 159 103.5 159.4 C 104.1 159.7 104.8 159.9 105.7 159.9 C 106.2 159.9 106.7 159.8 107.1 159.7 C 107.5 159.5 107.9 159.3 108.2 159 C 108.5 158.7 108.8 158.3 108.9 157.9 C 108.9 157.9 110.9 158.4 110.9 158.4 C 110.7 159.1 110.3 159.7 109.8 160.2 C 109.4 160.7 108.8 161 108.1 161.3 C 107.3 161.6 106.5 161.7 105.7 161.7 Z M 120.9 161.5 L 120.9 148.4 L 122.8 148.4 L 122.8 150.3 C 122.8 150.3 122.97 150.34 123 150.3 C 123.2 149.7 123.6 149.2 124.3 148.8 C 124.9 148.4 125.6 148.2 126.4 148.2 C 126.5 148.2 126.7 148.2 126.9 148.2 C 127.2 148.2 127.3 148.2 127.4 148.2 C 127.4 148.2 127.4 150.2 127.4 150.2 C 127.4 150.2 127.2 150.2 127 150.2 C 126.7 150.1 126.5 150.1 126.2 150.1 C 125.6 150.1 125 150.2 124.5 150.5 C 124 150.8 123.6 151.1 123.3 151.6 C 123 152.1 122.9 152.6 122.9 153.2 C 122.91 153.17 122.9 161.5 122.9 161.5 L 120.9 161.5 Z M 129.6 161.5 L 129.6 148.4 L 131.6 148.4 L 131.6 161.5 L 129.6 161.5 Z M 130.6 146.2 C 130.2 146.2 129.9 146 129.6 145.8 C 129.3 145.5 129.2 145.2 129.2 144.8 C 129.2 144.4 129.3 144.1 129.6 143.9 C 129.9 143.6 130.2 143.5 130.6 143.5 C 131 143.5 131.3 143.6 131.6 143.9 C 131.9 144.1 132 144.4 132 144.8 C 132 145.2 131.9 145.5 131.6 145.8 C 131.3 146 131 146.2 130.6 146.2 Z M 140.4 166.6 C 139.5 166.6 138.6 166.5 137.9 166.3 C 137.2 166 136.6 165.7 136.2 165.3 C 135.7 164.9 135.3 164.5 135.1 164 C 135.1 164 136.7 162.9 136.7 162.9 C 136.9 163.1 137.1 163.4 137.4 163.7 C 137.6 164 138 164.3 138.5 164.5 C 139 164.7 139.6 164.9 140.4 164.9 C 141.5 164.9 142.4 164.6 143 164.1 C 143.7 163.6 144.1 162.8 144.1 161.7 C 144.07 161.69 144.1 159 144.1 159 C 144.1 159 143.9 159.03 143.9 159 C 143.8 159.3 143.5 159.6 143.3 159.9 C 143 160.3 142.6 160.6 142.1 160.8 C 141.6 161.1 140.9 161.3 140.1 161.3 C 139 161.3 138.1 161 137.2 160.5 C 136.4 160 135.7 159.3 135.3 158.3 C 134.8 157.4 134.5 156.2 134.5 154.8 C 134.5 153.5 134.8 152.3 135.2 151.3 C 135.7 150.3 136.4 149.6 137.2 149 C 138 148.5 139 148.2 140.1 148.2 C 141 148.2 141.6 148.3 142.1 148.6 C 142.7 148.9 143 149.2 143.3 149.6 C 143.6 149.9 143.8 150.2 143.9 150.4 C 143.93 150.44 144.1 150.4 144.1 150.4 L 144.1 148.4 L 146.1 148.4 C 146.1 148.4 146.08 161.83 146.1 161.8 C 146.1 163 145.8 163.9 145.3 164.6 C 144.8 165.3 144.1 165.8 143.3 166.1 C 142.4 166.5 141.5 166.6 140.4 166.6 Z M 140.4 159.4 C 141.2 159.4 141.8 159.3 142.4 158.9 C 143 158.5 143.4 158 143.7 157.3 C 144 156.6 144.1 155.8 144.1 154.8 C 144.1 153.9 144 153 143.7 152.3 C 143.4 151.6 143 151 142.4 150.6 C 141.9 150.2 141.2 150 140.4 150 C 139.5 150 138.8 150.2 138.2 150.6 C 137.7 151.1 137.2 151.7 137 152.4 C 136.7 153.1 136.5 153.9 136.5 154.8 C 136.5 155.7 136.7 156.5 137 157.2 C 137.3 157.9 137.7 158.5 138.2 158.9 C 138.8 159.2 139.5 159.4 140.4 159.4 Z M 151.8 153.6 C 151.82 153.58 151.8 161.5 151.8 161.5 L 149.8 161.5 L 149.8 144 L 151.8 144 L 151.8 150.4 C 151.8 150.4 151.99 150.41 152 150.4 C 152.3 149.7 152.8 149.2 153.4 148.8 C 154 148.4 154.8 148.2 155.8 148.2 C 156.7 148.2 157.5 148.4 158.2 148.7 C 158.9 149.1 159.4 149.6 159.8 150.4 C 160.1 151.1 160.3 152 160.3 153.1 C 160.31 153.14 160.3 161.5 160.3 161.5 L 158.3 161.5 C 158.3 161.5 158.3 153.27 158.3 153.3 C 158.3 152.2 158 151.4 157.5 150.9 C 157 150.3 156.2 150 155.3 150 C 154.6 150 154 150.1 153.5 150.4 C 153 150.7 152.6 151.1 152.3 151.6 C 152 152.2 151.8 152.8 151.8 153.6 Z M 169.2 148.4 L 169.2 150.1 L 162.4 150.1 L 162.4 148.4 L 169.2 148.4 Z M 164.4 145.2 L 166.4 145.2 C 166.4 145.2 166.39 157.7 166.4 157.7 C 166.4 158.3 166.5 158.7 166.6 159 C 166.8 159.3 167 159.4 167.3 159.5 C 167.6 159.6 167.8 159.7 168.1 159.7 C 168.3 159.7 168.5 159.7 168.7 159.6 C 168.8 159.6 168.9 159.6 169 159.6 C 169 159.6 169.4 161.4 169.4 161.4 C 169.3 161.4 169.1 161.5 168.9 161.5 C 168.6 161.6 168.3 161.6 167.9 161.6 C 167.4 161.6 166.8 161.5 166.3 161.3 C 165.7 161 165.3 160.6 164.9 160.1 C 164.6 159.6 164.4 159 164.4 158.3 C 164.38 158.25 164.4 145.2 164.4 145.2 Z M 180 161.5 L 177.7 161.5 L 184.1 144 L 186.3 144 L 192.7 161.5 L 190.5 161.5 L 185.3 146.8 L 185.2 146.8 L 180 161.5 Z M 180.8 154.6 L 189.7 154.6 L 189.7 156.5 L 180.8 156.5 L 180.8 154.6 Z M 197.2 144 L 197.2 161.5 L 195.1 161.5 L 195.1 144 L 197.2 144 Z M 213.7 148.4 L 213.7 150.1 L 206.7 150.1 L 206.7 148.4 L 213.7 148.4 Z M 208.8 161.5 C 208.8 161.5 208.81 146.56 208.8 146.6 C 208.8 145.8 209 145.2 209.3 144.7 C 209.7 144.2 210.1 143.8 210.7 143.6 C 211.3 143.3 211.9 143.2 212.5 143.2 C 213 143.2 213.4 143.2 213.7 143.3 C 214 143.4 214.2 143.5 214.4 143.5 C 214.4 143.5 213.8 145.3 213.8 145.3 C 213.7 145.2 213.6 145.2 213.4 145.1 C 213.2 145.1 213 145.1 212.7 145.1 C 212 145.1 211.5 145.2 211.3 145.6 C 211 145.9 210.8 146.4 210.8 147 C 210.82 147.03 210.8 161.5 210.8 161.5 L 208.8 161.5 Z M 221 161.7 C 219.9 161.7 218.8 161.4 217.9 160.9 C 217 160.3 216.4 159.5 215.9 158.5 C 215.4 157.5 215.1 156.3 215.1 155 C 215.1 153.6 215.4 152.4 215.9 151.4 C 216.4 150.4 217 149.6 217.9 149 C 218.8 148.5 219.9 148.2 221 148.2 C 222.2 148.2 223.3 148.5 224.1 149 C 225 149.6 225.7 150.4 226.2 151.4 C 226.7 152.4 227 153.6 227 155 C 227 156.3 226.7 157.5 226.2 158.5 C 225.7 159.5 225 160.3 224.1 160.9 C 223.3 161.4 222.2 161.7 221 161.7 Z M 221 159.9 C 221.9 159.9 222.7 159.7 223.3 159.2 C 223.8 158.8 224.3 158.2 224.5 157.4 C 224.8 156.7 225 155.9 225 155 C 225 154.1 224.8 153.3 224.5 152.5 C 224.3 151.8 223.8 151.2 223.3 150.7 C 222.7 150.2 221.9 150 221 150 C 220.1 150 219.4 150.2 218.8 150.7 C 218.2 151.2 217.8 151.8 217.5 152.5 C 217.3 153.3 217.1 154.1 217.1 155 C 217.1 155.9 217.3 156.7 217.5 157.4 C 217.8 158.2 218.2 158.8 218.8 159.2 C 219.4 159.7 220.1 159.9 221 159.9 Z M 230 161.5 L 230 148.4 L 231.9 148.4 L 231.9 150.3 C 231.9 150.3 232.06 150.34 232.1 150.3 C 232.3 149.7 232.7 149.2 233.4 148.8 C 234 148.4 234.7 148.2 235.5 148.2 C 235.6 148.2 235.8 148.2 236 148.2 C 236.2 148.2 236.4 148.2 236.5 148.2 C 236.5 148.2 236.5 150.2 236.5 150.2 C 236.5 150.2 236.3 150.2 236.1 150.2 C 235.8 150.1 235.6 150.1 235.3 150.1 C 234.7 150.1 234.1 150.2 233.6 150.5 C 233.1 150.8 232.7 151.1 232.4 151.6 C 232.1 152.1 232 152.6 232 153.2 C 231.99 153.17 232 161.5 232 161.5 L 230 161.5 Z " stroke="none" fill="#10283d"/>  </g>  <g id="Polygon111564">    <path d="M 19.3 132.7 L 17.1 132.7 L 23.5 115.2 L 25.7 115.2 L 32.1 132.7 L 29.9 132.7 L 24.6 118 L 24.5 118 L 19.3 132.7 Z M 20.1 125.8 L 29 125.8 L 29 127.7 L 20.1 127.7 L 20.1 125.8 Z M 36.6 115.2 L 36.6 132.7 L 34.4 132.7 L 34.4 115.2 L 36.6 115.2 Z M 42 132.8 C 41.6 132.8 41.2 132.6 40.9 132.3 C 40.6 132 40.5 131.7 40.5 131.3 C 40.5 130.8 40.6 130.5 40.9 130.2 C 41.2 129.9 41.6 129.7 42 129.7 C 42.4 129.7 42.8 129.9 43.1 130.2 C 43.4 130.5 43.5 130.8 43.5 131.3 C 43.5 131.5 43.5 131.8 43.3 132 C 43.2 132.3 43 132.4 42.8 132.6 C 42.5 132.7 42.3 132.8 42 132.8 Z M 54.2 115.2 L 56.7 115.2 L 62.6 129.7 L 62.8 129.7 L 68.8 115.2 L 71.3 115.2 L 71.3 132.7 L 69.3 132.7 L 69.3 119.4 L 69.1 119.4 L 63.7 132.7 L 61.8 132.7 L 56.3 119.4 L 56.2 119.4 L 56.2 132.7 L 54.2 132.7 L 54.2 115.2 Z M 79 133 C 78.1 133 77.4 132.8 76.7 132.5 C 76 132.2 75.5 131.7 75.1 131.1 C 74.7 130.5 74.5 129.8 74.5 128.9 C 74.5 128.2 74.6 127.6 74.9 127.1 C 75.2 126.6 75.6 126.3 76.1 126 C 76.6 125.7 77.2 125.5 77.8 125.4 C 78.4 125.3 79 125.2 79.6 125.1 C 80.4 125 81 124.9 81.5 124.9 C 82 124.8 82.4 124.7 82.6 124.6 C 82.8 124.4 83 124.2 83 123.9 C 83 123.9 83 123.8 83 123.8 C 83 123 82.7 122.3 82.3 121.9 C 81.8 121.4 81.1 121.2 80.2 121.2 C 79.2 121.2 78.5 121.4 77.9 121.8 C 77.4 122.2 77 122.7 76.8 123.1 C 76.8 123.1 74.9 122.5 74.9 122.5 C 75.2 121.7 75.7 121 76.2 120.6 C 76.8 120.2 77.4 119.8 78.1 119.7 C 78.8 119.5 79.5 119.4 80.1 119.4 C 80.5 119.4 81 119.4 81.6 119.5 C 82.1 119.6 82.7 119.8 83.2 120.2 C 83.7 120.5 84.1 120.9 84.5 121.5 C 84.8 122.2 85 123 85 124 C 84.96 124.03 85 132.7 85 132.7 L 83 132.7 L 83 130.9 C 83 130.9 82.85 130.88 82.8 130.9 C 82.7 131.2 82.5 131.5 82.2 131.8 C 81.8 132.1 81.4 132.4 80.9 132.6 C 80.4 132.8 79.7 133 79 133 Z M 79.3 131.2 C 80.1 131.2 80.7 131 81.3 130.7 C 81.8 130.4 82.2 130 82.5 129.5 C 82.8 129 83 128.5 83 127.9 C 83 127.9 83 126.1 83 126.1 C 82.9 126.2 82.7 126.3 82.4 126.4 C 82.1 126.4 81.8 126.5 81.4 126.6 C 81 126.6 80.7 126.7 80.3 126.7 C 80 126.8 79.7 126.8 79.5 126.8 C 79 126.9 78.5 127 78 127.2 C 77.6 127.3 77.2 127.5 76.9 127.8 C 76.6 128.1 76.5 128.5 76.5 129 C 76.5 129.7 76.8 130.3 77.3 130.6 C 77.8 131 78.5 131.2 79.3 131.2 Z M 90.4 127.9 L 90.4 125.4 L 90.8 125.4 L 96.5 119.6 L 99 119.6 L 92.9 125.7 L 92.7 125.7 L 90.4 127.9 Z M 88.5 132.7 L 88.5 115.2 L 90.6 115.2 L 90.6 132.7 L 88.5 132.7 Z M 96.9 132.7 L 91.7 126.2 L 93.2 124.8 L 99.4 132.7 L 96.9 132.7 Z M 101.4 132.7 L 101.4 119.6 L 103.4 119.6 L 103.4 132.7 L 101.4 132.7 Z M 102.4 117.4 C 102 117.4 101.6 117.2 101.4 117 C 101.1 116.7 100.9 116.4 100.9 116 C 100.9 115.6 101.1 115.3 101.4 115.1 C 101.6 114.8 102 114.7 102.4 114.7 C 102.8 114.7 103.1 114.8 103.4 115.1 C 103.7 115.3 103.8 115.6 103.8 116 C 103.8 116.4 103.7 116.7 103.4 117 C 103.1 117.2 102.8 117.4 102.4 117.4 Z M 109.1 124.8 C 109.12 124.78 109.1 132.7 109.1 132.7 L 107.1 132.7 L 107.1 119.6 L 109 119.6 L 109 121.6 C 109 121.6 109.22 121.61 109.2 121.6 C 109.5 120.9 110 120.4 110.6 120 C 111.2 119.6 112 119.4 113 119.4 C 113.9 119.4 114.7 119.6 115.4 119.9 C 116 120.3 116.5 120.8 116.9 121.6 C 117.3 122.3 117.5 123.2 117.5 124.3 C 117.47 124.34 117.5 132.7 117.5 132.7 L 115.5 132.7 C 115.5 132.7 115.46 124.47 115.5 124.5 C 115.5 123.4 115.2 122.6 114.7 122.1 C 114.1 121.5 113.4 121.2 112.5 121.2 C 111.8 121.2 111.2 121.3 110.7 121.6 C 110.2 121.9 109.8 122.3 109.6 122.8 C 109.3 123.4 109.1 124 109.1 124.8 Z M 126.2 137.8 C 125.3 137.8 124.4 137.7 123.7 137.5 C 123 137.2 122.5 136.9 122 136.5 C 121.5 136.1 121.2 135.7 120.9 135.2 C 120.9 135.2 122.5 134.1 122.5 134.1 C 122.7 134.3 122.9 134.6 123.2 134.9 C 123.5 135.2 123.8 135.5 124.3 135.7 C 124.8 135.9 125.4 136.1 126.2 136.1 C 127.3 136.1 128.2 135.8 128.9 135.3 C 129.5 134.8 129.9 134 129.9 132.9 C 129.89 132.89 129.9 130.2 129.9 130.2 C 129.9 130.2 129.72 130.23 129.7 130.2 C 129.6 130.5 129.4 130.8 129.1 131.1 C 128.8 131.5 128.4 131.8 127.9 132 C 127.4 132.3 126.7 132.5 125.9 132.5 C 124.8 132.5 123.9 132.2 123.1 131.7 C 122.2 131.2 121.6 130.5 121.1 129.5 C 120.6 128.6 120.3 127.4 120.3 126 C 120.3 124.7 120.6 123.5 121 122.5 C 121.5 121.5 122.2 120.8 123 120.2 C 123.9 119.7 124.8 119.4 125.9 119.4 C 126.8 119.4 127.5 119.5 128 119.8 C 128.5 120.1 128.9 120.4 129.1 120.8 C 129.4 121.1 129.6 121.4 129.7 121.6 C 129.75 121.64 130 121.6 130 121.6 L 130 119.6 L 131.9 119.6 C 131.9 119.6 131.9 133.03 131.9 133 C 131.9 134.2 131.6 135.1 131.1 135.8 C 130.6 136.5 129.9 137 129.1 137.3 C 128.2 137.7 127.3 137.8 126.2 137.8 Z M 126.2 130.6 C 127 130.6 127.7 130.5 128.2 130.1 C 128.8 129.7 129.2 129.2 129.5 128.5 C 129.8 127.8 129.9 127 129.9 126 C 129.9 125.1 129.8 124.2 129.5 123.5 C 129.2 122.8 128.8 122.2 128.2 121.8 C 127.7 121.4 127 121.2 126.2 121.2 C 125.3 121.2 124.6 121.4 124 121.8 C 123.5 122.3 123.1 122.9 122.8 123.6 C 122.5 124.3 122.4 125.1 122.4 126 C 122.4 126.9 122.5 127.7 122.8 128.4 C 123.1 129.1 123.5 129.7 124.1 130.1 C 124.6 130.4 125.3 130.6 126.2 130.6 Z M 151.6 122.5 C 151.6 122.5 149.8 123 149.8 123 C 149.7 122.7 149.5 122.4 149.3 122.1 C 149.1 121.8 148.8 121.6 148.4 121.4 C 148 121.2 147.6 121.1 147 121.1 C 146.2 121.1 145.5 121.3 145 121.7 C 144.4 122 144.2 122.5 144.2 123.1 C 144.2 123.6 144.4 124 144.7 124.3 C 145.1 124.5 145.6 124.8 146.4 125 C 146.4 125 148.4 125.5 148.4 125.5 C 149.5 125.7 150.4 126.2 151 126.8 C 151.6 127.3 151.8 128.1 151.8 129 C 151.8 129.8 151.6 130.4 151.2 131 C 150.8 131.6 150.2 132.1 149.4 132.4 C 148.6 132.8 147.7 132.9 146.7 132.9 C 145.4 132.9 144.3 132.6 143.4 132.1 C 142.5 131.5 142 130.6 141.7 129.5 C 141.7 129.5 143.7 129 143.7 129 C 143.8 129.7 144.2 130.3 144.7 130.6 C 145.2 131 145.9 131.2 146.7 131.2 C 147.6 131.2 148.4 131 148.9 130.6 C 149.5 130.2 149.8 129.7 149.8 129.1 C 149.8 128.7 149.6 128.3 149.3 128 C 149 127.7 148.5 127.4 147.8 127.3 C 147.8 127.3 145.6 126.8 145.6 126.8 C 144.4 126.5 143.6 126 143 125.4 C 142.4 124.8 142.2 124.1 142.2 123.2 C 142.2 122.4 142.4 121.8 142.8 121.2 C 143.2 120.6 143.8 120.2 144.5 119.9 C 145.2 119.6 146 119.4 147 119.4 C 148.3 119.4 149.3 119.7 150 120.2 C 150.8 120.8 151.3 121.6 151.6 122.5 Z M 163 127.3 C 162.95 127.3 163 119.6 163 119.6 L 165 119.6 L 165 132.7 L 163 132.7 L 163 130.4 C 163 130.4 162.82 130.44 162.8 130.4 C 162.5 131.1 162 131.7 161.4 132.1 C 160.7 132.6 159.9 132.8 158.9 132.8 C 158.1 132.8 157.4 132.6 156.7 132.3 C 156.1 131.9 155.6 131.4 155.2 130.6 C 154.9 129.9 154.7 129 154.7 127.9 C 154.7 127.88 154.7 119.6 154.7 119.6 L 156.7 119.6 C 156.7 119.6 156.71 127.75 156.7 127.7 C 156.7 128.7 157 129.5 157.5 130 C 158.1 130.6 158.7 130.9 159.6 130.9 C 160.1 130.9 160.6 130.8 161.1 130.5 C 161.6 130.2 162.1 129.9 162.4 129.3 C 162.8 128.8 163 128.1 163 127.3 Z M 168.7 132.7 L 168.7 119.6 L 170.6 119.6 L 170.6 121.5 C 170.6 121.5 170.77 121.54 170.8 121.5 C 171 120.9 171.4 120.4 172.1 120 C 172.7 119.6 173.4 119.4 174.2 119.4 C 174.3 119.4 174.5 119.4 174.7 119.4 C 175 119.4 175.1 119.4 175.2 119.4 C 175.2 119.4 175.2 121.4 175.2 121.4 C 175.2 121.4 175 121.4 174.8 121.4 C 174.5 121.3 174.3 121.3 174 121.3 C 173.4 121.3 172.8 121.4 172.3 121.7 C 171.8 122 171.4 122.3 171.1 122.8 C 170.9 123.3 170.7 123.8 170.7 124.4 C 170.71 124.37 170.7 132.7 170.7 132.7 L 168.7 132.7 Z M 182.4 132.9 C 181.2 132.9 180.1 132.6 179.2 132.1 C 178.3 131.5 177.6 130.7 177.1 129.7 C 176.6 128.7 176.3 127.6 176.3 126.2 C 176.3 124.9 176.6 123.7 177.1 122.7 C 177.6 121.6 178.2 120.8 179.1 120.3 C 180 119.7 181 119.4 182.2 119.4 C 182.9 119.4 183.6 119.5 184.2 119.7 C 184.9 120 185.5 120.3 186.1 120.8 C 186.6 121.3 187 122 187.4 122.9 C 187.7 123.7 187.8 124.7 187.8 125.9 C 187.85 125.94 187.8 126.8 187.8 126.8 L 177.8 126.8 L 177.8 125.1 C 177.8 125.1 185.8 125.05 185.8 125.1 C 185.8 124.3 185.7 123.7 185.4 123.1 C 185.1 122.5 184.7 122 184.1 121.7 C 183.6 121.4 183 121.2 182.2 121.2 C 181.4 121.2 180.7 121.4 180.1 121.8 C 179.6 122.2 179.1 122.7 178.8 123.3 C 178.5 124 178.3 124.6 178.3 125.4 C 178.3 125.4 178.3 126.5 178.3 126.5 C 178.3 127.5 178.5 128.3 178.9 129 C 179.2 129.7 179.7 130.2 180.3 130.6 C 180.9 130.9 181.6 131.1 182.4 131.1 C 183 131.1 183.4 131 183.9 130.9 C 184.3 130.7 184.7 130.5 185 130.2 C 185.3 129.9 185.5 129.5 185.7 129.1 C 185.7 129.1 187.6 129.6 187.6 129.6 C 187.4 130.3 187.1 130.9 186.6 131.4 C 186.1 131.9 185.5 132.2 184.8 132.5 C 184.1 132.8 183.3 132.9 182.4 132.9 Z M 199 137.6 C 198.6 137.6 198.3 137.5 198.1 137.5 C 197.8 137.4 197.6 137.4 197.5 137.3 C 197.5 137.3 198 135.6 198 135.6 C 198.5 135.7 198.9 135.7 199.3 135.7 C 199.7 135.7 200 135.5 200.3 135.2 C 200.6 134.9 200.9 134.4 201.1 133.7 C 201.11 133.75 201.5 132.7 201.5 132.7 L 196.6 119.6 L 198.8 119.6 L 202.4 130 L 202.6 130 L 206.2 119.6 L 208.4 119.6 C 208.4 119.6 202.82 134.56 202.8 134.6 C 202.6 135.2 202.3 135.8 201.9 136.2 C 201.5 136.7 201.1 137 200.6 137.2 C 200.1 137.5 199.6 137.6 199 137.6 Z M 215.6 132.9 C 214.4 132.9 213.4 132.6 212.5 132.1 C 211.6 131.5 210.9 130.7 210.4 129.7 C 209.9 128.7 209.7 127.5 209.7 126.2 C 209.7 124.8 209.9 123.6 210.4 122.6 C 210.9 121.6 211.6 120.8 212.5 120.2 C 213.4 119.7 214.4 119.4 215.6 119.4 C 216.8 119.4 217.8 119.7 218.7 120.2 C 219.6 120.8 220.3 121.6 220.8 122.6 C 221.3 123.6 221.5 124.8 221.5 126.2 C 221.5 127.5 221.3 128.7 220.8 129.7 C 220.3 130.7 219.6 131.5 218.7 132.1 C 217.8 132.6 216.8 132.9 215.6 132.9 Z M 215.6 131.1 C 216.5 131.1 217.2 130.9 217.8 130.4 C 218.4 130 218.8 129.4 219.1 128.6 C 219.4 127.9 219.5 127.1 219.5 126.2 C 219.5 125.3 219.4 124.5 219.1 123.7 C 218.8 123 218.4 122.4 217.8 121.9 C 217.2 121.4 216.5 121.2 215.6 121.2 C 214.7 121.2 214 121.4 213.4 121.9 C 212.8 122.4 212.4 123 212.1 123.7 C 211.8 124.5 211.7 125.3 211.7 126.2 C 211.7 127.1 211.8 127.9 212.1 128.6 C 212.4 129.4 212.8 130 213.4 130.4 C 214 130.9 214.7 131.1 215.6 131.1 Z M 232.7 127.3 C 232.68 127.3 232.7 119.6 232.7 119.6 L 234.7 119.6 L 234.7 132.7 L 232.7 132.7 L 232.7 130.4 C 232.7 130.4 232.54 130.44 232.5 130.4 C 232.2 131.1 231.8 131.7 231.1 132.1 C 230.5 132.6 229.6 132.8 228.7 132.8 C 227.8 132.8 227.1 132.6 226.5 132.3 C 225.8 131.9 225.3 131.4 225 130.6 C 224.6 129.9 224.4 129 224.4 127.9 C 224.43 127.88 224.4 119.6 224.4 119.6 L 226.4 119.6 C 226.4 119.6 226.44 127.75 226.4 127.7 C 226.4 128.7 226.7 129.5 227.2 130 C 227.8 130.6 228.5 130.9 229.3 130.9 C 229.8 130.9 230.3 130.8 230.8 130.5 C 231.4 130.2 231.8 129.9 232.1 129.3 C 232.5 128.8 232.7 128.1 232.7 127.3 Z " stroke="none" fill="#10283d"/>  </g>  <g id="Polygon111563">    <path d="M 6 86.4 L 6 103.9 L 4 103.9 L 4 86.4 L 6 86.4 Z M 15.1 104.1 C 13.9 104.1 12.8 103.8 11.9 103.3 C 11 102.7 10.3 101.9 9.8 100.9 C 9.3 99.9 9 98.8 9 97.4 C 9 96.1 9.3 94.9 9.8 93.9 C 10.3 92.8 10.9 92 11.8 91.5 C 12.7 90.9 13.7 90.6 14.9 90.6 C 15.6 90.6 16.3 90.7 16.9 90.9 C 17.6 91.2 18.2 91.5 18.8 92 C 19.3 92.5 19.7 93.2 20.1 94.1 C 20.4 94.9 20.6 95.9 20.6 97.1 C 20.55 97.14 20.6 98 20.6 98 L 10.5 98 L 10.5 96.3 C 10.5 96.3 18.51 96.25 18.5 96.3 C 18.5 95.5 18.4 94.9 18.1 94.3 C 17.8 93.7 17.4 93.2 16.8 92.9 C 16.3 92.6 15.7 92.4 14.9 92.4 C 14.1 92.4 13.4 92.6 12.9 93 C 12.3 93.4 11.8 93.9 11.5 94.5 C 11.2 95.2 11 95.8 11 96.6 C 11 96.6 11 97.7 11 97.7 C 11 98.7 11.2 99.5 11.6 100.2 C 11.9 100.9 12.4 101.4 13 101.8 C 13.6 102.1 14.3 102.3 15.1 102.3 C 15.7 102.3 16.1 102.2 16.6 102.1 C 17 101.9 17.4 101.7 17.7 101.4 C 18 101.1 18.2 100.7 18.4 100.3 C 18.4 100.3 20.3 100.8 20.3 100.8 C 20.1 101.5 19.8 102.1 19.3 102.6 C 18.8 103.1 18.2 103.4 17.5 103.7 C 16.8 104 16 104.1 15.1 104.1 Z M 33.6 90.8 L 28.8 103.9 L 26.7 103.9 L 21.9 90.8 L 24.1 90.8 L 27.7 101.2 L 27.8 101.2 L 31.4 90.8 L 33.6 90.8 Z M 41 104.1 C 39.8 104.1 38.7 103.8 37.8 103.3 C 36.8 102.7 36.1 101.9 35.6 100.9 C 35.2 99.9 34.9 98.8 34.9 97.4 C 34.9 96.1 35.2 94.9 35.6 93.9 C 36.1 92.8 36.8 92 37.7 91.5 C 38.6 90.9 39.6 90.6 40.8 90.6 C 41.5 90.6 42.2 90.7 42.8 90.9 C 43.5 91.2 44.1 91.5 44.6 92 C 45.2 92.5 45.6 93.2 45.9 94.1 C 46.3 94.9 46.4 95.9 46.4 97.1 C 46.44 97.14 46.4 98 46.4 98 L 36.3 98 L 36.3 96.3 C 36.3 96.3 44.39 96.25 44.4 96.3 C 44.4 95.5 44.2 94.9 44 94.3 C 43.7 93.7 43.2 93.2 42.7 92.9 C 42.2 92.6 41.5 92.4 40.8 92.4 C 40 92.4 39.3 92.6 38.7 93 C 38.2 93.4 37.7 93.9 37.4 94.5 C 37.1 95.2 36.9 95.8 36.9 96.6 C 36.9 96.6 36.9 97.7 36.9 97.7 C 36.9 98.7 37.1 99.5 37.4 100.2 C 37.8 100.9 38.3 101.4 38.9 101.8 C 39.5 102.1 40.2 102.3 41 102.3 C 41.5 102.3 42 102.2 42.5 102.1 C 42.9 101.9 43.3 101.7 43.6 101.4 C 43.9 101.1 44.1 100.7 44.3 100.3 C 44.3 100.3 46.2 100.8 46.2 100.8 C 46 101.5 45.7 102.1 45.2 102.6 C 44.7 103.1 44.1 103.4 43.4 103.7 C 42.7 104 41.9 104.1 41 104.1 Z M 49.5 103.9 L 49.5 90.8 L 51.4 90.8 L 51.4 92.7 C 51.4 92.7 51.54 92.74 51.5 92.7 C 51.8 92.1 52.2 91.6 52.8 91.2 C 53.5 90.8 54.2 90.6 54.9 90.6 C 55.1 90.6 55.3 90.6 55.5 90.6 C 55.7 90.6 55.9 90.6 56 90.6 C 56 90.6 56 92.6 56 92.6 C 55.9 92.6 55.8 92.6 55.5 92.6 C 55.3 92.5 55 92.5 54.8 92.5 C 54.1 92.5 53.6 92.6 53.1 92.9 C 52.6 93.2 52.2 93.5 51.9 94 C 51.6 94.5 51.5 95 51.5 95.6 C 51.47 95.57 51.5 103.9 51.5 103.9 L 49.5 103.9 Z M 61.9 104.2 C 61 104.2 60.3 104 59.6 103.7 C 58.9 103.4 58.4 102.9 58 102.3 C 57.6 101.7 57.4 101 57.4 100.1 C 57.4 99.4 57.6 98.8 57.9 98.3 C 58.1 97.8 58.5 97.5 59 97.2 C 59.5 96.9 60.1 96.7 60.7 96.6 C 61.3 96.5 61.9 96.4 62.5 96.3 C 63.3 96.2 63.9 96.1 64.4 96.1 C 64.9 96 65.3 95.9 65.5 95.8 C 65.7 95.6 65.9 95.4 65.9 95.1 C 65.9 95.1 65.9 95 65.9 95 C 65.9 94.2 65.6 93.5 65.2 93.1 C 64.7 92.6 64 92.4 63.1 92.4 C 62.1 92.4 61.4 92.6 60.8 93 C 60.3 93.4 59.9 93.9 59.7 94.3 C 59.7 94.3 57.8 93.7 57.8 93.7 C 58.1 92.9 58.6 92.2 59.2 91.8 C 59.7 91.4 60.3 91 61 90.9 C 61.7 90.7 62.4 90.6 63 90.6 C 63.5 90.6 63.9 90.6 64.5 90.7 C 65 90.8 65.6 91 66.1 91.4 C 66.6 91.7 67 92.1 67.4 92.7 C 67.7 93.4 67.9 94.2 67.9 95.2 C 67.87 95.23 67.9 103.9 67.9 103.9 L 65.9 103.9 L 65.9 102.1 C 65.9 102.1 65.76 102.08 65.8 102.1 C 65.6 102.4 65.4 102.7 65.1 103 C 64.8 103.3 64.3 103.6 63.8 103.8 C 63.3 104 62.6 104.2 61.9 104.2 Z M 62.2 102.4 C 63 102.4 63.6 102.2 64.2 101.9 C 64.7 101.6 65.2 101.2 65.4 100.7 C 65.7 100.2 65.9 99.7 65.9 99.1 C 65.9 99.1 65.9 97.3 65.9 97.3 C 65.8 97.4 65.6 97.5 65.3 97.6 C 65 97.6 64.7 97.7 64.3 97.8 C 63.9 97.8 63.6 97.9 63.2 97.9 C 62.9 98 62.6 98 62.4 98 C 61.9 98.1 61.4 98.2 60.9 98.4 C 60.5 98.5 60.1 98.7 59.8 99 C 59.6 99.3 59.4 99.7 59.4 100.2 C 59.4 100.9 59.7 101.5 60.2 101.8 C 60.7 102.2 61.4 102.4 62.2 102.4 Z M 76.6 109 C 75.7 109 74.8 108.9 74.1 108.7 C 73.4 108.4 72.9 108.1 72.4 107.7 C 71.9 107.3 71.6 106.9 71.3 106.4 C 71.3 106.4 72.9 105.3 72.9 105.3 C 73.1 105.5 73.3 105.8 73.6 106.1 C 73.9 106.4 74.2 106.7 74.7 106.9 C 75.2 107.1 75.9 107.3 76.6 107.3 C 77.7 107.3 78.6 107 79.3 106.5 C 79.9 106 80.3 105.2 80.3 104.1 C 80.29 104.09 80.3 101.4 80.3 101.4 C 80.3 101.4 80.12 101.43 80.1 101.4 C 80 101.7 79.8 102 79.5 102.3 C 79.2 102.7 78.8 103 78.3 103.2 C 77.8 103.5 77.2 103.7 76.3 103.7 C 75.2 103.7 74.3 103.4 73.5 102.9 C 72.6 102.4 72 101.7 71.5 100.7 C 71 99.8 70.7 98.6 70.7 97.2 C 70.7 95.9 71 94.7 71.5 93.7 C 71.9 92.7 72.6 92 73.4 91.4 C 74.3 90.9 75.2 90.6 76.3 90.6 C 77.2 90.6 77.9 90.7 78.4 91 C 78.9 91.3 79.3 91.6 79.5 92 C 79.8 92.3 80 92.6 80.2 92.8 C 80.15 92.84 80.4 92.8 80.4 92.8 L 80.4 90.8 L 82.3 90.8 C 82.3 90.8 82.3 104.23 82.3 104.2 C 82.3 105.4 82 106.3 81.5 107 C 81 107.7 80.3 108.2 79.5 108.5 C 78.6 108.9 77.7 109 76.6 109 Z M 76.6 101.8 C 77.4 101.8 78.1 101.7 78.6 101.3 C 79.2 100.9 79.6 100.4 79.9 99.7 C 80.2 99 80.3 98.2 80.3 97.2 C 80.3 96.3 80.2 95.4 79.9 94.7 C 79.6 94 79.2 93.4 78.6 93 C 78.1 92.6 77.4 92.4 76.6 92.4 C 75.7 92.4 75 92.6 74.4 93 C 73.9 93.5 73.5 94.1 73.2 94.8 C 72.9 95.5 72.8 96.3 72.8 97.2 C 72.8 98.1 72.9 98.9 73.2 99.6 C 73.5 100.3 73.9 100.9 74.5 101.3 C 75 101.6 75.7 101.8 76.6 101.8 Z M 91.4 104.1 C 90.1 104.1 89.1 103.8 88.2 103.3 C 87.2 102.7 86.5 101.9 86 100.9 C 85.6 99.9 85.3 98.8 85.3 97.4 C 85.3 96.1 85.6 94.9 86 93.9 C 86.5 92.8 87.2 92 88.1 91.5 C 89 90.9 90 90.6 91.2 90.6 C 91.9 90.6 92.6 90.7 93.2 90.9 C 93.9 91.2 94.5 91.5 95 92 C 95.6 92.5 96 93.2 96.3 94.1 C 96.7 94.9 96.8 95.9 96.8 97.1 C 96.83 97.14 96.8 98 96.8 98 L 86.7 98 L 86.7 96.3 C 86.7 96.3 94.79 96.25 94.8 96.3 C 94.8 95.5 94.6 94.9 94.3 94.3 C 94.1 93.7 93.6 93.2 93.1 92.9 C 92.6 92.6 91.9 92.4 91.2 92.4 C 90.4 92.4 89.7 92.6 89.1 93 C 88.5 93.4 88.1 93.9 87.8 94.5 C 87.5 95.2 87.3 95.8 87.3 96.6 C 87.3 96.6 87.3 97.7 87.3 97.7 C 87.3 98.7 87.5 99.5 87.8 100.2 C 88.2 100.9 88.7 101.4 89.3 101.8 C 89.9 102.1 90.6 102.3 91.4 102.3 C 91.9 102.3 92.4 102.2 92.8 102.1 C 93.3 101.9 93.6 101.7 94 101.4 C 94.3 101.1 94.5 100.7 94.7 100.3 C 94.7 100.3 96.6 100.8 96.6 100.8 C 96.4 101.5 96.1 102.1 95.6 102.6 C 95.1 103.1 94.5 103.4 93.8 103.7 C 93.1 104 92.3 104.1 91.4 104.1 Z M 106.6 103.9 L 106.6 90.8 L 108.7 90.8 L 108.7 103.9 L 106.6 103.9 Z M 107.7 88.6 C 107.3 88.6 106.9 88.4 106.7 88.2 C 106.4 87.9 106.2 87.6 106.2 87.2 C 106.2 86.8 106.4 86.5 106.7 86.3 C 106.9 86 107.3 85.9 107.7 85.9 C 108.1 85.9 108.4 86 108.7 86.3 C 109 86.5 109.1 86.8 109.1 87.2 C 109.1 87.6 109 87.9 108.7 88.2 C 108.4 88.4 108.1 88.6 107.7 88.6 Z M 117.7 90.8 L 117.7 92.5 L 110.9 92.5 L 110.9 90.8 L 117.7 90.8 Z M 112.9 87.6 L 114.9 87.6 C 114.9 87.6 114.93 100.1 114.9 100.1 C 114.9 100.7 115 101.1 115.2 101.4 C 115.3 101.7 115.6 101.8 115.8 101.9 C 116.1 102 116.4 102.1 116.7 102.1 C 116.9 102.1 117.1 102.1 117.2 102 C 117.4 102 117.5 102 117.6 102 C 117.6 102 118 103.8 118 103.8 C 117.8 103.8 117.6 103.9 117.4 103.9 C 117.1 104 116.8 104 116.5 104 C 115.9 104 115.3 103.9 114.8 103.7 C 114.3 103.4 113.8 103 113.4 102.5 C 113.1 102 112.9 101.4 112.9 100.7 C 112.92 100.65 112.9 87.6 112.9 87.6 Z M 129.4 93.7 C 129.4 93.7 127.6 94.2 127.6 94.2 C 127.5 93.9 127.3 93.6 127.1 93.3 C 126.9 93 126.6 92.8 126.2 92.6 C 125.8 92.4 125.3 92.3 124.8 92.3 C 124 92.3 123.3 92.5 122.8 92.9 C 122.2 93.2 122 93.7 122 94.3 C 122 94.8 122.1 95.2 122.5 95.5 C 122.9 95.7 123.4 96 124.2 96.2 C 124.2 96.2 126.2 96.7 126.2 96.7 C 127.3 96.9 128.2 97.4 128.8 98 C 129.3 98.5 129.6 99.3 129.6 100.2 C 129.6 101 129.4 101.6 129 102.2 C 128.6 102.8 128 103.3 127.2 103.6 C 126.4 104 125.5 104.1 124.5 104.1 C 123.2 104.1 122.1 103.8 121.2 103.3 C 120.3 102.7 119.8 101.8 119.5 100.7 C 119.5 100.7 121.5 100.2 121.5 100.2 C 121.6 100.9 122 101.5 122.5 101.8 C 123 102.2 123.7 102.4 124.5 102.4 C 125.4 102.4 126.2 102.2 126.7 101.8 C 127.3 101.4 127.6 100.9 127.6 100.3 C 127.6 99.9 127.4 99.5 127.1 99.2 C 126.8 98.9 126.3 98.6 125.6 98.5 C 125.6 98.5 123.4 98 123.4 98 C 122.2 97.7 121.4 97.2 120.8 96.6 C 120.2 96 120 95.3 120 94.4 C 120 93.6 120.2 93 120.6 92.4 C 121 91.8 121.6 91.4 122.3 91.1 C 123 90.8 123.8 90.6 124.8 90.6 C 126.1 90.6 127.1 90.9 127.8 91.4 C 128.6 92 129.1 92.8 129.4 93.7 Z M 150.1 90.8 L 145.3 103.9 L 143.2 103.9 L 138.4 90.8 L 140.6 90.8 L 144.2 101.2 L 144.3 101.2 L 147.9 90.8 L 150.1 90.8 Z M 155.9 104.2 C 155.1 104.2 154.3 104 153.7 103.7 C 153 103.4 152.5 102.9 152.1 102.3 C 151.7 101.7 151.5 101 151.5 100.1 C 151.5 99.4 151.6 98.8 151.9 98.3 C 152.2 97.8 152.6 97.5 153.1 97.2 C 153.6 96.9 154.1 96.7 154.7 96.6 C 155.3 96.5 155.9 96.4 156.5 96.3 C 157.3 96.2 158 96.1 158.5 96.1 C 159 96 159.3 95.9 159.6 95.8 C 159.8 95.6 159.9 95.4 159.9 95.1 C 159.9 95.1 159.9 95 159.9 95 C 159.9 94.2 159.7 93.5 159.2 93.1 C 158.8 92.6 158.1 92.4 157.2 92.4 C 156.2 92.4 155.4 92.6 154.9 93 C 154.4 93.4 154 93.9 153.7 94.3 C 153.7 94.3 151.8 93.7 151.8 93.7 C 152.2 92.9 152.6 92.2 153.2 91.8 C 153.8 91.4 154.4 91 155.1 90.9 C 155.8 90.7 156.4 90.6 157.1 90.6 C 157.5 90.6 158 90.6 158.5 90.7 C 159.1 90.8 159.6 91 160.1 91.4 C 160.6 91.7 161.1 92.1 161.4 92.7 C 161.8 93.4 161.9 94.2 161.9 95.2 C 161.93 95.23 161.9 103.9 161.9 103.9 L 159.9 103.9 L 159.9 102.1 C 159.9 102.1 159.81 102.08 159.8 102.1 C 159.7 102.4 159.4 102.7 159.1 103 C 158.8 103.3 158.4 103.6 157.9 103.8 C 157.3 104 156.7 104.2 155.9 104.2 Z M 156.2 102.4 C 157 102.4 157.7 102.2 158.2 101.9 C 158.8 101.6 159.2 101.2 159.5 100.7 C 159.8 100.2 159.9 99.7 159.9 99.1 C 159.9 99.1 159.9 97.3 159.9 97.3 C 159.8 97.4 159.6 97.5 159.4 97.6 C 159.1 97.6 158.7 97.7 158.4 97.8 C 158 97.8 157.6 97.9 157.3 97.9 C 156.9 98 156.7 98 156.4 98 C 155.9 98.1 155.4 98.2 155 98.4 C 154.5 98.5 154.2 98.7 153.9 99 C 153.6 99.3 153.5 99.7 153.5 100.2 C 153.5 100.9 153.7 101.5 154.3 101.8 C 154.8 102.2 155.4 102.4 156.2 102.4 Z M 167.5 86.4 L 167.5 103.9 L 165.5 103.9 L 165.5 86.4 L 167.5 86.4 Z M 179.3 98.5 C 179.33 98.5 179.3 90.8 179.3 90.8 L 181.3 90.8 L 181.3 103.9 L 179.3 103.9 L 179.3 101.6 C 179.3 101.6 179.19 101.64 179.2 101.6 C 178.9 102.3 178.4 102.9 177.8 103.3 C 177.1 103.8 176.3 104 175.3 104 C 174.5 104 173.8 103.8 173.1 103.5 C 172.5 103.1 172 102.6 171.6 101.8 C 171.3 101.1 171.1 100.2 171.1 99.1 C 171.08 99.08 171.1 90.8 171.1 90.8 L 173.1 90.8 C 173.1 90.8 173.09 98.95 173.1 98.9 C 173.1 99.9 173.4 100.7 173.9 101.2 C 174.4 101.8 175.1 102.1 176 102.1 C 176.5 102.1 177 102 177.5 101.7 C 178 101.4 178.4 101.1 178.8 100.5 C 179.2 100 179.3 99.3 179.3 98.5 Z M 190.5 104.1 C 189.2 104.1 188.1 103.8 187.2 103.3 C 186.3 102.7 185.6 101.9 185.1 100.9 C 184.6 99.9 184.4 98.8 184.4 97.4 C 184.4 96.1 184.6 94.9 185.1 93.9 C 185.6 92.8 186.3 92 187.2 91.5 C 188 90.9 189.1 90.6 190.2 90.6 C 190.9 90.6 191.6 90.7 192.3 90.9 C 192.9 91.2 193.5 91.5 194.1 92 C 194.6 92.5 195.1 93.2 195.4 94.1 C 195.7 94.9 195.9 95.9 195.9 97.1 C 195.87 97.14 195.9 98 195.9 98 L 185.8 98 L 185.8 96.3 C 185.8 96.3 193.83 96.25 193.8 96.3 C 193.8 95.5 193.7 94.9 193.4 94.3 C 193.1 93.7 192.7 93.2 192.1 92.9 C 191.6 92.6 191 92.4 190.2 92.4 C 189.4 92.4 188.8 92.6 188.2 93 C 187.6 93.4 187.1 93.9 186.8 94.5 C 186.5 95.2 186.4 95.8 186.4 96.6 C 186.4 96.6 186.4 97.7 186.4 97.7 C 186.4 98.7 186.5 99.5 186.9 100.2 C 187.2 100.9 187.7 101.4 188.3 101.8 C 188.9 102.1 189.6 102.3 190.5 102.3 C 191 102.3 191.5 102.2 191.9 102.1 C 192.3 101.9 192.7 101.7 193 101.4 C 193.3 101.1 193.6 100.7 193.7 100.3 C 193.7 100.3 195.7 100.8 195.7 100.8 C 195.5 101.5 195.1 102.1 194.6 102.6 C 194.2 103.1 193.6 103.4 192.8 103.7 C 192.1 104 191.3 104.1 190.5 104.1 Z M 208.7 103.9 L 204.7 90.8 L 206.8 90.8 L 209.6 100.8 L 209.7 100.8 L 212.5 90.8 L 214.7 90.8 L 217.5 100.8 L 217.6 100.8 L 220.4 90.8 L 222.5 90.8 L 218.5 103.9 L 216.6 103.9 L 213.7 93.8 L 213.5 93.8 L 210.6 103.9 L 208.7 103.9 Z M 224.8 103.9 L 224.8 90.8 L 226.8 90.8 L 226.8 103.9 L 224.8 103.9 Z M 225.9 88.6 C 225.5 88.6 225.1 88.4 224.8 88.2 C 224.6 87.9 224.4 87.6 224.4 87.2 C 224.4 86.8 224.6 86.5 224.8 86.3 C 225.1 86 225.5 85.9 225.9 85.9 C 226.2 85.9 226.6 86 226.9 86.3 C 227.1 86.5 227.3 86.8 227.3 87.2 C 227.3 87.6 227.1 87.9 226.9 88.2 C 226.6 88.4 226.2 88.6 225.9 88.6 Z M 235.9 90.8 L 235.9 92.5 L 229.1 92.5 L 229.1 90.8 L 235.9 90.8 Z M 231.1 87.6 L 233.1 87.6 C 233.1 87.6 233.11 100.1 233.1 100.1 C 233.1 100.7 233.2 101.1 233.4 101.4 C 233.5 101.7 233.7 101.8 234 101.9 C 234.3 102 234.6 102.1 234.9 102.1 C 235.1 102.1 235.3 102.1 235.4 102 C 235.5 102 235.7 102 235.7 102 C 235.7 102 236.1 103.8 236.1 103.8 C 236 103.8 235.8 103.9 235.6 103.9 C 235.3 104 235 104 234.6 104 C 234.1 104 233.5 103.9 233 103.7 C 232.4 103.4 232 103 231.6 102.5 C 231.3 102 231.1 101.4 231.1 100.7 C 231.1 100.65 231.1 87.6 231.1 87.6 Z M 240.5 96 C 240.48 95.98 240.5 103.9 240.5 103.9 L 238.5 103.9 L 238.5 86.4 L 240.5 86.4 L 240.5 92.8 C 240.5 92.8 240.65 92.81 240.6 92.8 C 241 92.1 241.4 91.6 242 91.2 C 242.7 90.8 243.5 90.6 244.5 90.6 C 245.4 90.6 246.2 90.8 246.8 91.1 C 247.5 91.5 248 92 248.4 92.8 C 248.8 93.5 249 94.4 249 95.5 C 248.97 95.54 249 103.9 249 103.9 L 247 103.9 C 247 103.9 246.96 95.67 247 95.7 C 247 94.6 246.7 93.8 246.2 93.3 C 245.6 92.7 244.9 92.4 243.9 92.4 C 243.3 92.4 242.7 92.5 242.2 92.8 C 241.6 93.1 241.2 93.5 240.9 94 C 240.6 94.6 240.5 95.2 240.5 96 Z " stroke="none" fill="#10283d"/>  </g>  <g id="Polygon111562">    <path d="M 7.8 75.4 C 6.9 75.4 6.2 75.2 5.5 74.9 C 4.8 74.6 4.3 74.1 3.9 73.5 C 3.5 72.9 3.3 72.2 3.3 71.3 C 3.3 70.6 3.4 70 3.7 69.5 C 4 69 4.4 68.7 4.9 68.4 C 5.4 68.1 6 67.9 6.6 67.8 C 7.2 67.7 7.8 67.6 8.4 67.5 C 9.2 67.4 9.8 67.3 10.3 67.3 C 10.8 67.2 11.2 67.1 11.4 67 C 11.6 66.8 11.8 66.6 11.8 66.3 C 11.8 66.3 11.8 66.2 11.8 66.2 C 11.8 65.4 11.5 64.7 11.1 64.3 C 10.6 63.8 9.9 63.6 9 63.6 C 8 63.6 7.3 63.8 6.7 64.2 C 6.2 64.6 5.8 65.1 5.6 65.5 C 5.6 65.5 3.7 64.9 3.7 64.9 C 4 64.1 4.5 63.4 5 63 C 5.6 62.6 6.2 62.2 6.9 62.1 C 7.6 61.9 8.3 61.8 8.9 61.8 C 9.3 61.8 9.8 61.8 10.4 61.9 C 10.9 62 11.5 62.2 12 62.6 C 12.5 62.9 12.9 63.3 13.3 63.9 C 13.6 64.6 13.8 65.4 13.8 66.4 C 13.77 66.43 13.8 75.1 13.8 75.1 L 11.8 75.1 L 11.8 73.3 C 11.8 73.3 11.65 73.28 11.7 73.3 C 11.5 73.6 11.3 73.9 11 74.2 C 10.7 74.5 10.2 74.8 9.7 75 C 9.2 75.2 8.5 75.4 7.8 75.4 Z M 8.1 73.6 C 8.9 73.6 9.5 73.4 10.1 73.1 C 10.6 72.8 11.1 72.4 11.3 71.9 C 11.6 71.4 11.8 70.9 11.8 70.3 C 11.8 70.3 11.8 68.5 11.8 68.5 C 11.7 68.6 11.5 68.7 11.2 68.8 C 10.9 68.8 10.6 68.9 10.2 69 C 9.8 69 9.5 69.1 9.1 69.1 C 8.8 69.2 8.5 69.2 8.3 69.2 C 7.8 69.3 7.3 69.4 6.8 69.6 C 6.4 69.7 6 69.9 5.7 70.2 C 5.5 70.5 5.3 70.9 5.3 71.4 C 5.3 72.1 5.6 72.7 6.1 73 C 6.6 73.4 7.3 73.6 8.1 73.6 Z M 22.6 75.3 C 21.4 75.3 20.3 75 19.4 74.5 C 18.6 73.9 17.9 73.1 17.4 72.1 C 16.9 71 16.7 69.9 16.7 68.6 C 16.7 67.2 16.9 66.1 17.4 65.1 C 17.9 64 18.6 63.2 19.5 62.7 C 20.4 62.1 21.4 61.8 22.6 61.8 C 23.5 61.8 24.3 62 25.1 62.3 C 25.8 62.6 26.4 63.1 26.9 63.7 C 27.4 64.4 27.7 65.1 27.8 65.9 C 27.8 65.9 25.8 65.9 25.8 65.9 C 25.6 65.3 25.3 64.8 24.7 64.3 C 24.2 63.8 23.5 63.6 22.6 63.6 C 21.8 63.6 21.1 63.8 20.6 64.2 C 20 64.6 19.5 65.2 19.2 65.9 C 18.9 66.7 18.7 67.5 18.7 68.5 C 18.7 69.5 18.9 70.4 19.2 71.2 C 19.5 71.9 20 72.5 20.5 72.9 C 21.1 73.3 21.8 73.5 22.6 73.5 C 23.1 73.5 23.6 73.4 24 73.2 C 24.5 73.1 24.8 72.8 25.1 72.5 C 25.4 72.1 25.6 71.7 25.8 71.2 C 25.8 71.2 27.8 71.2 27.8 71.2 C 27.7 72 27.4 72.7 26.9 73.3 C 26.5 73.9 25.9 74.4 25.2 74.8 C 24.4 75.1 23.6 75.3 22.6 75.3 Z M 35.9 62 L 35.9 63.7 L 29.1 63.7 L 29.1 62 L 35.9 62 Z M 31.1 58.8 L 33.1 58.8 C 33.1 58.8 33.11 71.3 33.1 71.3 C 33.1 71.9 33.2 72.3 33.4 72.6 C 33.5 72.9 33.7 73 34 73.1 C 34.3 73.2 34.6 73.3 34.8 73.3 C 35.1 73.3 35.2 73.3 35.4 73.2 C 35.5 73.2 35.6 73.2 35.7 73.2 C 35.7 73.2 36.1 75 36.1 75 C 36 75 35.8 75.1 35.6 75.1 C 35.3 75.2 35 75.2 34.6 75.2 C 34.1 75.2 33.5 75.1 33 74.9 C 32.4 74.6 32 74.2 31.6 73.7 C 31.3 73.2 31.1 72.6 31.1 71.9 C 31.1 71.85 31.1 58.8 31.1 58.8 Z M 38.5 75.1 L 38.5 62 L 40.5 62 L 40.5 75.1 L 38.5 75.1 Z M 39.5 59.8 C 39.1 59.8 38.7 59.6 38.5 59.4 C 38.2 59.1 38 58.8 38 58.4 C 38 58 38.2 57.7 38.5 57.5 C 38.7 57.2 39.1 57.1 39.5 57.1 C 39.9 57.1 40.2 57.2 40.5 57.5 C 40.8 57.7 40.9 58 40.9 58.4 C 40.9 58.8 40.8 59.1 40.5 59.4 C 40.2 59.6 39.9 59.8 39.5 59.8 Z M 54.4 62 L 49.5 75.1 L 47.5 75.1 L 42.7 62 L 44.8 62 L 48.4 72.4 L 48.6 72.4 L 52.2 62 L 54.4 62 Z M 60.2 75.4 C 59.4 75.4 58.6 75.2 57.9 74.9 C 57.2 74.6 56.7 74.1 56.3 73.5 C 55.9 72.9 55.7 72.2 55.7 71.3 C 55.7 70.6 55.9 70 56.2 69.5 C 56.5 69 56.9 68.7 57.3 68.4 C 57.8 68.1 58.4 67.9 59 67.8 C 59.6 67.7 60.2 67.6 60.8 67.5 C 61.6 67.4 62.2 67.3 62.7 67.3 C 63.2 67.2 63.6 67.1 63.8 67 C 64.1 66.8 64.2 66.6 64.2 66.3 C 64.2 66.3 64.2 66.2 64.2 66.2 C 64.2 65.4 63.9 64.7 63.5 64.3 C 63 63.8 62.3 63.6 61.4 63.6 C 60.4 63.6 59.7 63.8 59.2 64.2 C 58.6 64.6 58.2 65.1 58 65.5 C 58 65.5 56.1 64.9 56.1 64.9 C 56.4 64.1 56.9 63.4 57.5 63 C 58 62.6 58.7 62.2 59.3 62.1 C 60 61.9 60.7 61.8 61.3 61.8 C 61.8 61.8 62.2 61.8 62.8 61.9 C 63.3 62 63.9 62.2 64.4 62.6 C 64.9 62.9 65.3 63.3 65.7 63.9 C 66 64.6 66.2 65.4 66.2 66.4 C 66.18 66.43 66.2 75.1 66.2 75.1 L 64.2 75.1 L 64.2 73.3 C 64.2 73.3 64.07 73.28 64.1 73.3 C 63.9 73.6 63.7 73.9 63.4 74.2 C 63.1 74.5 62.6 74.8 62.1 75 C 61.6 75.2 60.9 75.4 60.2 75.4 Z M 60.5 73.6 C 61.3 73.6 62 73.4 62.5 73.1 C 63.1 72.8 63.5 72.4 63.7 71.9 C 64 71.4 64.2 70.9 64.2 70.3 C 64.2 70.3 64.2 68.5 64.2 68.5 C 64.1 68.6 63.9 68.7 63.6 68.8 C 63.3 68.8 63 68.9 62.6 69 C 62.3 69 61.9 69.1 61.5 69.1 C 61.2 69.2 60.9 69.2 60.7 69.2 C 60.2 69.3 59.7 69.4 59.2 69.6 C 58.8 69.7 58.4 69.9 58.1 70.2 C 57.9 70.5 57.7 70.9 57.7 71.4 C 57.7 72.1 58 72.7 58.5 73 C 59 73.4 59.7 73.6 60.5 73.6 Z M 75.1 62 L 75.1 63.7 L 68.3 63.7 L 68.3 62 L 75.1 62 Z M 70.3 58.8 L 72.3 58.8 C 72.3 58.8 72.27 71.3 72.3 71.3 C 72.3 71.9 72.4 72.3 72.5 72.6 C 72.7 72.9 72.9 73 73.2 73.1 C 73.4 73.2 73.7 73.3 74 73.3 C 74.2 73.3 74.4 73.3 74.6 73.2 C 74.7 73.2 74.8 73.2 74.9 73.2 C 74.9 73.2 75.3 75 75.3 75 C 75.2 75 75 75.1 74.7 75.1 C 74.5 75.2 74.2 75.2 73.8 75.2 C 73.2 75.2 72.7 75.1 72.1 74.9 C 71.6 74.6 71.1 74.2 70.8 73.7 C 70.4 73.2 70.3 72.6 70.3 71.9 C 70.26 71.85 70.3 58.8 70.3 58.8 Z M 82.8 75.3 C 81.5 75.3 80.4 75 79.5 74.5 C 78.6 73.9 77.9 73.1 77.4 72.1 C 76.9 71.1 76.7 70 76.7 68.6 C 76.7 67.3 76.9 66.1 77.4 65.1 C 77.9 64 78.6 63.2 79.5 62.7 C 80.4 62.1 81.4 61.8 82.6 61.8 C 83.3 61.8 83.9 61.9 84.6 62.1 C 85.3 62.4 85.9 62.7 86.4 63.2 C 87 63.7 87.4 64.4 87.7 65.3 C 88 66.1 88.2 67.1 88.2 68.3 C 88.21 68.34 88.2 69.2 88.2 69.2 L 78.1 69.2 L 78.1 67.5 C 78.1 67.5 86.16 67.45 86.2 67.5 C 86.2 66.7 86 66.1 85.7 65.5 C 85.4 64.9 85 64.4 84.5 64.1 C 83.9 63.8 83.3 63.6 82.6 63.6 C 81.8 63.6 81.1 63.8 80.5 64.2 C 79.9 64.6 79.5 65.1 79.2 65.7 C 78.9 66.4 78.7 67 78.7 67.8 C 78.7 67.8 78.7 68.9 78.7 68.9 C 78.7 69.9 78.9 70.7 79.2 71.4 C 79.6 72.1 80 72.6 80.7 73 C 81.3 73.3 82 73.5 82.8 73.5 C 83.3 73.5 83.8 73.4 84.2 73.3 C 84.7 73.1 85 72.9 85.3 72.6 C 85.7 72.3 85.9 71.9 86.1 71.5 C 86.1 71.5 88 72 88 72 C 87.8 72.7 87.5 73.3 87 73.8 C 86.5 74.3 85.9 74.6 85.2 74.9 C 84.5 75.2 83.7 75.3 82.8 75.3 Z M 99.3 80 C 99 80 98.7 79.9 98.4 79.9 C 98.1 79.8 98 79.8 97.9 79.7 C 97.9 79.7 98.4 78 98.4 78 C 98.9 78.1 99.3 78.1 99.7 78.1 C 100 78.1 100.4 77.9 100.7 77.6 C 101 77.3 101.2 76.8 101.5 76.1 C 101.47 76.15 101.8 75.1 101.8 75.1 L 97 62 L 99.2 62 L 102.8 72.4 L 102.9 72.4 L 106.6 62 L 108.7 62 C 108.7 62 103.18 76.96 103.2 77 C 102.9 77.6 102.6 78.2 102.2 78.6 C 101.9 79.1 101.4 79.4 101 79.6 C 100.5 79.9 99.9 80 99.3 80 Z M 116 75.3 C 114.8 75.3 113.7 75 112.8 74.5 C 112 73.9 111.3 73.1 110.8 72.1 C 110.3 71.1 110 69.9 110 68.6 C 110 67.2 110.3 66 110.8 65 C 111.3 64 112 63.2 112.8 62.6 C 113.7 62.1 114.8 61.8 116 61.8 C 117.1 61.8 118.2 62.1 119.1 62.6 C 120 63.2 120.6 64 121.1 65 C 121.6 66 121.9 67.2 121.9 68.6 C 121.9 69.9 121.6 71.1 121.1 72.1 C 120.6 73.1 120 73.9 119.1 74.5 C 118.2 75 117.1 75.3 116 75.3 Z M 116 73.5 C 116.9 73.5 117.6 73.3 118.2 72.8 C 118.8 72.4 119.2 71.8 119.5 71 C 119.7 70.3 119.9 69.5 119.9 68.6 C 119.9 67.7 119.7 66.9 119.5 66.1 C 119.2 65.4 118.8 64.8 118.2 64.3 C 117.6 63.8 116.9 63.6 116 63.6 C 115.1 63.6 114.3 63.8 113.7 64.3 C 113.2 64.8 112.7 65.4 112.5 66.1 C 112.2 66.9 112 67.7 112 68.6 C 112 69.5 112.2 70.3 112.5 71 C 112.7 71.8 113.2 72.4 113.7 72.8 C 114.3 73.3 115.1 73.5 116 73.5 Z M 133 69.7 C 133.04 69.7 133 62 133 62 L 135.1 62 L 135.1 75.1 L 133 75.1 L 133 72.8 C 133 72.8 132.9 72.84 132.9 72.8 C 132.6 73.5 132.1 74.1 131.5 74.5 C 130.8 75 130 75.2 129 75.2 C 128.2 75.2 127.5 75 126.8 74.7 C 126.2 74.3 125.7 73.8 125.3 73 C 125 72.3 124.8 71.4 124.8 70.3 C 124.79 70.28 124.8 62 124.8 62 L 126.8 62 C 126.8 62 126.8 70.15 126.8 70.1 C 126.8 71.1 127.1 71.9 127.6 72.4 C 128.1 73 128.8 73.3 129.7 73.3 C 130.2 73.3 130.7 73.2 131.2 72.9 C 131.7 72.6 132.2 72.3 132.5 71.7 C 132.9 71.2 133 70.5 133 69.7 Z M 138.8 75.1 L 138.8 62 L 140.7 62 L 140.7 63.9 C 140.7 63.9 140.86 63.94 140.9 63.9 C 141.1 63.3 141.5 62.8 142.2 62.4 C 142.8 62 143.5 61.8 144.3 61.8 C 144.4 61.8 144.6 61.8 144.8 61.8 C 145 61.8 145.2 61.8 145.3 61.8 C 145.3 61.8 145.3 63.8 145.3 63.8 C 145.3 63.8 145.1 63.8 144.9 63.8 C 144.6 63.7 144.4 63.7 144.1 63.7 C 143.5 63.7 142.9 63.8 142.4 64.1 C 141.9 64.4 141.5 64.7 141.2 65.2 C 140.9 65.7 140.8 66.2 140.8 66.8 C 140.8 66.77 140.8 75.1 140.8 75.1 L 138.8 75.1 Z M 159.4 75.3 C 158.3 75.3 157.4 75.1 156.5 74.5 C 155.7 73.9 155 73.2 154.6 72.1 C 154.1 71.1 153.9 69.9 153.9 68.5 C 153.9 67.2 154.1 66 154.6 65 C 155 64 155.7 63.2 156.5 62.6 C 157.4 62.1 158.3 61.8 159.4 61.8 C 160.3 61.8 161 61.9 161.5 62.2 C 162 62.5 162.3 62.8 162.6 63.2 C 162.9 63.5 163.1 63.8 163.2 64 C 163.23 64.04 163.4 64 163.4 64 L 163.4 57.6 L 165.4 57.6 L 165.4 75.1 L 163.5 75.1 L 163.5 73 C 163.5 73 163.23 73.04 163.2 73 C 163.1 73.3 162.9 73.6 162.6 73.9 C 162.3 74.3 161.9 74.6 161.4 74.9 C 160.9 75.2 160.2 75.3 159.4 75.3 Z M 159.7 73.5 C 160.5 73.5 161.2 73.3 161.7 72.9 C 162.3 72.5 162.7 71.9 163 71.1 C 163.3 70.4 163.4 69.5 163.4 68.5 C 163.4 67.5 163.3 66.7 163 65.9 C 162.7 65.2 162.3 64.6 161.7 64.2 C 161.2 63.8 160.5 63.6 159.7 63.6 C 158.8 63.6 158.1 63.8 157.6 64.3 C 157 64.7 156.6 65.3 156.3 66 C 156 66.8 155.9 67.6 155.9 68.5 C 155.9 69.4 156 70.3 156.3 71 C 156.6 71.8 157 72.4 157.6 72.9 C 158.1 73.3 158.8 73.5 159.7 73.5 Z M 172.9 75.4 C 172.1 75.4 171.3 75.2 170.7 74.9 C 170 74.6 169.4 74.1 169 73.5 C 168.6 72.9 168.4 72.2 168.4 71.3 C 168.4 70.6 168.6 70 168.9 69.5 C 169.2 69 169.6 68.7 170.1 68.4 C 170.6 68.1 171.1 67.9 171.7 67.8 C 172.3 67.7 172.9 67.6 173.5 67.5 C 174.3 67.4 175 67.3 175.5 67.3 C 176 67.2 176.3 67.1 176.6 67 C 176.8 66.8 176.9 66.6 176.9 66.3 C 176.9 66.3 176.9 66.2 176.9 66.2 C 176.9 65.4 176.7 64.7 176.2 64.3 C 175.8 63.8 175.1 63.6 174.1 63.6 C 173.2 63.6 172.4 63.8 171.9 64.2 C 171.3 64.6 171 65.1 170.7 65.5 C 170.7 65.5 168.8 64.9 168.8 64.9 C 169.2 64.1 169.6 63.4 170.2 63 C 170.8 62.6 171.4 62.2 172.1 62.1 C 172.7 61.9 173.4 61.8 174.1 61.8 C 174.5 61.8 175 61.8 175.5 61.9 C 176.1 62 176.6 62.2 177.1 62.6 C 177.6 62.9 178.1 63.3 178.4 63.9 C 178.7 64.6 178.9 65.4 178.9 66.4 C 178.91 66.43 178.9 75.1 178.9 75.1 L 176.9 75.1 L 176.9 73.3 C 176.9 73.3 176.8 73.28 176.8 73.3 C 176.7 73.6 176.4 73.9 176.1 74.2 C 175.8 74.5 175.4 74.8 174.8 75 C 174.3 75.2 173.7 75.4 172.9 75.4 Z M 173.2 73.6 C 174 73.6 174.7 73.4 175.2 73.1 C 175.8 72.8 176.2 72.4 176.5 71.9 C 176.8 71.4 176.9 70.9 176.9 70.3 C 176.9 70.3 176.9 68.5 176.9 68.5 C 176.8 68.6 176.6 68.7 176.3 68.8 C 176.1 68.8 175.7 68.9 175.4 69 C 175 69 174.6 69.1 174.3 69.1 C 173.9 69.2 173.6 69.2 173.4 69.2 C 172.9 69.3 172.4 69.4 172 69.6 C 171.5 69.7 171.1 69.9 170.9 70.2 C 170.6 70.5 170.5 70.9 170.5 71.4 C 170.5 72.1 170.7 72.7 171.2 73 C 171.8 73.4 172.4 73.6 173.2 73.6 Z M 187.8 62 L 187.8 63.7 L 181 63.7 L 181 62 L 187.8 62 Z M 183 58.8 L 185 58.8 C 185 58.8 185 71.3 185 71.3 C 185 71.9 185.1 72.3 185.3 72.6 C 185.4 72.9 185.6 73 185.9 73.1 C 186.2 73.2 186.4 73.3 186.7 73.3 C 187 73.3 187.1 73.3 187.3 73.2 C 187.4 73.2 187.5 73.2 187.6 73.2 C 187.6 73.2 188 75 188 75 C 187.9 75 187.7 75.1 187.5 75.1 C 187.2 75.2 186.9 75.2 186.5 75.2 C 186 75.2 185.4 75.1 184.9 74.9 C 184.3 74.6 183.9 74.2 183.5 73.7 C 183.2 73.2 183 72.6 183 71.9 C 182.99 71.85 183 58.8 183 58.8 Z M 194.1 75.4 C 193.3 75.4 192.5 75.2 191.8 74.9 C 191.2 74.6 190.6 74.1 190.2 73.5 C 189.8 72.9 189.6 72.2 189.6 71.3 C 189.6 70.6 189.8 70 190.1 69.5 C 190.4 69 190.8 68.7 191.3 68.4 C 191.8 68.1 192.3 67.9 192.9 67.8 C 193.5 67.7 194.1 67.6 194.7 67.5 C 195.5 67.4 196.2 67.3 196.7 67.3 C 197.1 67.2 197.5 67.1 197.7 67 C 198 66.8 198.1 66.6 198.1 66.3 C 198.1 66.3 198.1 66.2 198.1 66.2 C 198.1 65.4 197.9 64.7 197.4 64.3 C 196.9 63.8 196.3 63.6 195.3 63.6 C 194.4 63.6 193.6 63.8 193.1 64.2 C 192.5 64.6 192.1 65.1 191.9 65.5 C 191.9 65.5 190 64.9 190 64.9 C 190.3 64.1 190.8 63.4 191.4 63 C 191.9 62.6 192.6 62.2 193.3 62.1 C 193.9 61.9 194.6 61.8 195.3 61.8 C 195.7 61.8 196.2 61.8 196.7 61.9 C 197.3 62 197.8 62.2 198.3 62.6 C 198.8 62.9 199.2 63.3 199.6 63.9 C 199.9 64.6 200.1 65.4 200.1 66.4 C 200.1 66.43 200.1 75.1 200.1 75.1 L 198.1 75.1 L 198.1 73.3 C 198.1 73.3 197.98 73.28 198 73.3 C 197.8 73.6 197.6 73.9 197.3 74.2 C 197 74.5 196.6 74.8 196 75 C 195.5 75.2 194.9 75.4 194.1 75.4 Z M 194.4 73.6 C 195.2 73.6 195.9 73.4 196.4 73.1 C 197 72.8 197.4 72.4 197.7 71.9 C 197.9 71.4 198.1 70.9 198.1 70.3 C 198.1 70.3 198.1 68.5 198.1 68.5 C 198 68.6 197.8 68.7 197.5 68.8 C 197.2 68.8 196.9 68.9 196.5 69 C 196.2 69 195.8 69.1 195.5 69.1 C 195.1 69.2 194.8 69.2 194.6 69.2 C 194.1 69.3 193.6 69.4 193.1 69.6 C 192.7 69.7 192.3 69.9 192.1 70.2 C 191.8 70.5 191.6 70.9 191.6 71.4 C 191.6 72.1 191.9 72.7 192.4 73 C 192.9 73.4 193.6 73.6 194.4 73.6 Z M 214.4 75.4 C 213.6 75.4 212.8 75.2 212.1 74.9 C 211.4 74.6 210.9 74.1 210.5 73.5 C 210.1 72.9 209.9 72.2 209.9 71.3 C 209.9 70.6 210.1 70 210.4 69.5 C 210.7 69 211.1 68.7 211.5 68.4 C 212 68.1 212.6 67.9 213.2 67.8 C 213.8 67.7 214.4 67.6 215 67.5 C 215.8 67.4 216.4 67.3 216.9 67.3 C 217.4 67.2 217.8 67.1 218 67 C 218.3 66.8 218.4 66.6 218.4 66.3 C 218.4 66.3 218.4 66.2 218.4 66.2 C 218.4 65.4 218.1 64.7 217.7 64.3 C 217.2 63.8 216.5 63.6 215.6 63.6 C 214.6 63.6 213.9 63.8 213.4 64.2 C 212.8 64.6 212.4 65.1 212.2 65.5 C 212.2 65.5 210.3 64.9 210.3 64.9 C 210.6 64.1 211.1 63.4 211.7 63 C 212.2 62.6 212.9 62.2 213.5 62.1 C 214.2 61.9 214.9 61.8 215.5 61.8 C 216 61.8 216.4 61.8 217 61.9 C 217.5 62 218.1 62.2 218.6 62.6 C 219.1 62.9 219.5 63.3 219.9 63.9 C 220.2 64.6 220.4 65.4 220.4 66.4 C 220.38 66.43 220.4 75.1 220.4 75.1 L 218.4 75.1 L 218.4 73.3 C 218.4 73.3 218.27 73.28 218.3 73.3 C 218.1 73.6 217.9 73.9 217.6 74.2 C 217.3 74.5 216.8 74.8 216.3 75 C 215.8 75.2 215.1 75.4 214.4 75.4 Z M 214.7 73.6 C 215.5 73.6 216.2 73.4 216.7 73.1 C 217.3 72.8 217.7 72.4 217.9 71.9 C 218.2 71.4 218.4 70.9 218.4 70.3 C 218.4 70.3 218.4 68.5 218.4 68.5 C 218.3 68.6 218.1 68.7 217.8 68.8 C 217.5 68.8 217.2 68.9 216.8 69 C 216.5 69 216.1 69.1 215.7 69.1 C 215.4 69.2 215.1 69.2 214.9 69.2 C 214.4 69.3 213.9 69.4 213.4 69.6 C 213 69.7 212.6 69.9 212.3 70.2 C 212.1 70.5 211.9 70.9 211.9 71.4 C 211.9 72.1 212.2 72.7 212.7 73 C 213.2 73.4 213.9 73.6 214.7 73.6 Z M 226 67.2 C 225.97 67.18 226 75.1 226 75.1 L 224 75.1 L 224 62 L 225.9 62 L 225.9 64 C 225.9 64 226.07 64.01 226.1 64 C 226.4 63.3 226.8 62.8 227.5 62.4 C 228.1 62 228.9 61.8 229.9 61.8 C 230.8 61.8 231.6 62 232.2 62.3 C 232.9 62.7 233.4 63.2 233.8 64 C 234.1 64.7 234.3 65.6 234.3 66.7 C 234.32 66.74 234.3 75.1 234.3 75.1 L 232.3 75.1 C 232.3 75.1 232.31 66.87 232.3 66.9 C 232.3 65.8 232 65 231.5 64.5 C 231 63.9 230.2 63.6 229.3 63.6 C 228.7 63.6 228.1 63.7 227.6 64 C 227.1 64.3 226.7 64.7 226.4 65.2 C 226.1 65.8 226 66.4 226 67.2 Z M 242.8 75.3 C 241.7 75.3 240.8 75.1 239.9 74.5 C 239.1 73.9 238.4 73.2 238 72.1 C 237.5 71.1 237.3 69.9 237.3 68.5 C 237.3 67.2 237.5 66 238 65 C 238.4 64 239.1 63.2 239.9 62.6 C 240.8 62.1 241.7 61.8 242.8 61.8 C 243.7 61.8 244.4 61.9 244.9 62.2 C 245.4 62.5 245.7 62.8 246 63.2 C 246.3 63.5 246.5 63.8 246.6 64 C 246.63 64.04 246.8 64 246.8 64 L 246.8 57.6 L 248.8 57.6 L 248.8 75.1 L 246.9 75.1 L 246.9 73 C 246.9 73 246.63 73.04 246.6 73 C 246.5 73.3 246.3 73.6 246 73.9 C 245.7 74.3 245.3 74.6 244.8 74.9 C 244.3 75.2 243.7 75.3 242.8 75.3 Z M 243.1 73.5 C 243.9 73.5 244.6 73.3 245.1 72.9 C 245.7 72.5 246.1 71.9 246.4 71.1 C 246.7 70.4 246.8 69.5 246.8 68.5 C 246.8 67.5 246.7 66.7 246.4 65.9 C 246.1 65.2 245.7 64.6 245.1 64.2 C 244.6 63.8 243.9 63.6 243.1 63.6 C 242.2 63.6 241.5 63.8 241 64.3 C 240.4 64.7 240 65.3 239.7 66 C 239.4 66.8 239.3 67.6 239.3 68.5 C 239.3 69.4 239.4 70.3 239.7 71 C 240 71.8 240.4 72.4 241 72.9 C 241.5 73.3 242.2 73.5 243.1 73.5 Z " stroke="none" fill="#10283d"/>  </g>  <g id="Polygon111561">    <path d="M 33.9 46.6 C 33 46.6 32.3 46.4 31.6 46.1 C 30.9 45.8 30.4 45.3 30 44.7 C 29.6 44.1 29.4 43.4 29.4 42.5 C 29.4 41.8 29.6 41.2 29.8 40.7 C 30.1 40.2 30.5 39.9 31 39.6 C 31.5 39.3 32.1 39.1 32.7 39 C 33.3 38.9 33.9 38.8 34.5 38.7 C 35.3 38.6 35.9 38.5 36.4 38.5 C 36.9 38.4 37.3 38.3 37.5 38.2 C 37.7 38 37.9 37.8 37.9 37.5 C 37.9 37.5 37.9 37.4 37.9 37.4 C 37.9 36.6 37.6 35.9 37.2 35.5 C 36.7 35 36 34.8 35.1 34.8 C 34.1 34.8 33.4 35 32.8 35.4 C 32.3 35.8 31.9 36.3 31.7 36.7 C 31.7 36.7 29.8 36.1 29.8 36.1 C 30.1 35.3 30.6 34.6 31.1 34.2 C 31.7 33.8 32.3 33.4 33 33.3 C 33.7 33.1 34.4 33 35 33 C 35.4 33 35.9 33 36.5 33.1 C 37 33.2 37.6 33.4 38.1 33.8 C 38.6 34.1 39 34.5 39.4 35.1 C 39.7 35.8 39.9 36.6 39.9 37.6 C 39.87 37.63 39.9 46.3 39.9 46.3 L 37.9 46.3 L 37.9 44.5 C 37.9 44.5 37.76 44.48 37.8 44.5 C 37.6 44.8 37.4 45.1 37.1 45.4 C 36.8 45.7 36.3 46 35.8 46.2 C 35.3 46.4 34.6 46.6 33.9 46.6 Z M 34.2 44.8 C 35 44.8 35.6 44.6 36.2 44.3 C 36.7 44 37.2 43.6 37.4 43.1 C 37.7 42.6 37.9 42.1 37.9 41.5 C 37.9 41.5 37.9 39.7 37.9 39.7 C 37.8 39.8 37.6 39.9 37.3 40 C 37 40 36.7 40.1 36.3 40.2 C 35.9 40.2 35.6 40.3 35.2 40.3 C 34.9 40.4 34.6 40.4 34.4 40.4 C 33.9 40.5 33.4 40.6 32.9 40.8 C 32.5 40.9 32.1 41.1 31.8 41.4 C 31.6 41.7 31.4 42.1 31.4 42.6 C 31.4 43.3 31.7 43.9 32.2 44.2 C 32.7 44.6 33.4 44.8 34.2 44.8 Z M 50.3 51.2 L 50.3 33.2 L 52.2 33.2 L 52.2 35.2 C 52.2 35.2 52.48 35.24 52.5 35.2 C 52.6 35 52.8 34.7 53.1 34.4 C 53.4 34 53.7 33.7 54.2 33.4 C 54.7 33.1 55.4 33 56.3 33 C 57.4 33 58.3 33.3 59.2 33.8 C 60 34.4 60.7 35.2 61.2 36.2 C 61.6 37.2 61.9 38.4 61.9 39.7 C 61.9 41.1 61.6 42.3 61.2 43.3 C 60.7 44.4 60 45.1 59.2 45.7 C 58.4 46.3 57.4 46.5 56.3 46.5 C 55.5 46.5 54.8 46.4 54.3 46.1 C 53.8 45.8 53.4 45.5 53.1 45.1 C 52.8 44.8 52.6 44.5 52.5 44.2 C 52.48 44.24 52.3 44.2 52.3 44.2 L 52.3 51.2 L 50.3 51.2 Z M 52.3 39.7 C 52.3 40.7 52.4 41.6 52.7 42.3 C 53 43.1 53.4 43.7 54 44.1 C 54.5 44.5 55.2 44.7 56 44.7 C 56.9 44.7 57.6 44.5 58.1 44.1 C 58.7 43.6 59.1 43 59.4 42.2 C 59.7 41.5 59.8 40.6 59.8 39.7 C 59.8 38.8 59.7 38 59.4 37.2 C 59.1 36.5 58.7 35.9 58.2 35.5 C 57.6 35 56.9 34.8 56 34.8 C 55.2 34.8 54.5 35 54 35.4 C 53.4 35.8 53 36.4 52.7 37.1 C 52.4 37.9 52.3 38.7 52.3 39.7 Z M 64.9 46.3 L 64.9 33.2 L 66.8 33.2 L 66.8 35.1 C 66.8 35.1 66.96 35.14 67 35.1 C 67.2 34.5 67.6 34 68.3 33.6 C 68.9 33.2 69.6 33 70.4 33 C 70.5 33 70.7 33 70.9 33 C 71.1 33 71.3 33 71.4 33 C 71.4 33 71.4 35 71.4 35 C 71.4 35 71.2 35 71 35 C 70.7 34.9 70.5 34.9 70.2 34.9 C 69.6 34.9 69 35 68.5 35.3 C 68 35.6 67.6 35.9 67.3 36.4 C 67 36.9 66.9 37.4 66.9 38 C 66.89 37.97 66.9 46.3 66.9 46.3 L 64.9 46.3 Z M 77.3 46.6 C 76.5 46.6 75.7 46.4 75 46.1 C 74.4 45.8 73.8 45.3 73.4 44.7 C 73 44.1 72.8 43.4 72.8 42.5 C 72.8 41.8 73 41.2 73.3 40.7 C 73.6 40.2 74 39.9 74.5 39.6 C 75 39.3 75.5 39.1 76.1 39 C 76.7 38.9 77.3 38.8 77.9 38.7 C 78.7 38.6 79.4 38.5 79.9 38.5 C 80.3 38.4 80.7 38.3 80.9 38.2 C 81.2 38 81.3 37.8 81.3 37.5 C 81.3 37.5 81.3 37.4 81.3 37.4 C 81.3 36.6 81.1 35.9 80.6 35.5 C 80.1 35 79.5 34.8 78.5 34.8 C 77.6 34.8 76.8 35 76.3 35.4 C 75.7 35.8 75.3 36.3 75.1 36.7 C 75.1 36.7 73.2 36.1 73.2 36.1 C 73.5 35.3 74 34.6 74.6 34.2 C 75.1 33.8 75.8 33.4 76.4 33.3 C 77.1 33.1 77.8 33 78.5 33 C 78.9 33 79.4 33 79.9 33.1 C 80.5 33.2 81 33.4 81.5 33.8 C 82 34.1 82.4 34.5 82.8 35.1 C 83.1 35.8 83.3 36.6 83.3 37.6 C 83.3 37.63 83.3 46.3 83.3 46.3 L 81.3 46.3 L 81.3 44.5 C 81.3 44.5 81.18 44.48 81.2 44.5 C 81 44.8 80.8 45.1 80.5 45.4 C 80.2 45.7 79.8 46 79.2 46.2 C 78.7 46.4 78.1 46.6 77.3 46.6 Z M 77.6 44.8 C 78.4 44.8 79.1 44.6 79.6 44.3 C 80.2 44 80.6 43.6 80.9 43.1 C 81.1 42.6 81.3 42.1 81.3 41.5 C 81.3 41.5 81.3 39.7 81.3 39.7 C 81.2 39.8 81 39.9 80.7 40 C 80.4 40 80.1 40.1 79.7 40.2 C 79.4 40.2 79 40.3 78.7 40.3 C 78.3 40.4 78 40.4 77.8 40.4 C 77.3 40.5 76.8 40.6 76.3 40.8 C 75.9 40.9 75.5 41.1 75.3 41.4 C 75 41.7 74.8 42.1 74.8 42.6 C 74.8 43.3 75.1 43.9 75.6 44.2 C 76.1 44.6 76.8 44.8 77.6 44.8 Z M 92.1 46.5 C 90.9 46.5 89.9 46.2 89 45.7 C 88.1 45.1 87.4 44.3 86.9 43.3 C 86.5 42.2 86.2 41.1 86.2 39.8 C 86.2 38.4 86.5 37.3 87 36.3 C 87.4 35.2 88.1 34.4 89 33.9 C 89.9 33.3 90.9 33 92.1 33 C 93 33 93.9 33.2 94.6 33.5 C 95.3 33.8 95.9 34.3 96.4 34.9 C 96.9 35.5 97.2 36.3 97.3 37.1 C 97.3 37.1 95.3 37.1 95.3 37.1 C 95.1 36.5 94.8 36 94.3 35.5 C 93.7 35 93 34.8 92.1 34.8 C 91.4 34.8 90.7 35 90.1 35.4 C 89.5 35.8 89 36.4 88.7 37.1 C 88.4 37.9 88.2 38.7 88.2 39.7 C 88.2 40.7 88.4 41.6 88.7 42.4 C 89 43.1 89.5 43.7 90.1 44.1 C 90.7 44.5 91.4 44.7 92.1 44.7 C 92.7 44.7 93.1 44.6 93.6 44.4 C 94 44.3 94.4 44 94.7 43.7 C 95 43.3 95.2 42.9 95.3 42.4 C 95.3 42.4 97.3 42.4 97.3 42.4 C 97.2 43.2 96.9 43.9 96.5 44.5 C 96 45.1 95.4 45.6 94.7 46 C 94 46.3 93.1 46.5 92.1 46.5 Z M 105.4 33.2 L 105.4 34.9 L 98.7 34.9 L 98.7 33.2 L 105.4 33.2 Z M 100.6 30 L 102.6 30 C 102.6 30 102.64 42.5 102.6 42.5 C 102.6 43.1 102.7 43.5 102.9 43.8 C 103.1 44.1 103.3 44.2 103.5 44.3 C 103.8 44.4 104.1 44.5 104.4 44.5 C 104.6 44.5 104.8 44.5 104.9 44.4 C 105.1 44.4 105.2 44.4 105.3 44.4 C 105.3 44.4 105.7 46.2 105.7 46.2 C 105.5 46.2 105.3 46.3 105.1 46.3 C 104.9 46.4 104.5 46.4 104.2 46.4 C 103.6 46.4 103 46.3 102.5 46.1 C 102 45.8 101.5 45.4 101.2 44.9 C 100.8 44.4 100.6 43.8 100.6 43.1 C 100.63 43.05 100.6 30 100.6 30 Z M 108 46.3 L 108 33.2 L 110 33.2 L 110 46.3 L 108 46.3 Z M 109 31 C 108.6 31 108.3 30.8 108 30.6 C 107.7 30.3 107.6 30 107.6 29.6 C 107.6 29.2 107.7 28.9 108 28.7 C 108.3 28.4 108.6 28.3 109 28.3 C 109.4 28.3 109.7 28.4 110 28.7 C 110.3 28.9 110.4 29.2 110.4 29.6 C 110.4 30 110.3 30.3 110 30.6 C 109.7 30.8 109.4 31 109 31 Z M 118.9 46.5 C 117.6 46.5 116.6 46.2 115.7 45.7 C 114.8 45.1 114.1 44.3 113.6 43.3 C 113.2 42.2 112.9 41.1 112.9 39.8 C 112.9 38.4 113.2 37.3 113.7 36.3 C 114.1 35.2 114.8 34.4 115.7 33.9 C 116.6 33.3 117.6 33 118.8 33 C 119.7 33 120.6 33.2 121.3 33.5 C 122 33.8 122.6 34.3 123.1 34.9 C 123.6 35.5 123.9 36.3 124 37.1 C 124 37.1 122 37.1 122 37.1 C 121.8 36.5 121.5 36 121 35.5 C 120.4 35 119.7 34.8 118.9 34.8 C 118.1 34.8 117.4 35 116.8 35.4 C 116.2 35.8 115.7 36.4 115.4 37.1 C 115.1 37.9 114.9 38.7 114.9 39.7 C 114.9 40.7 115.1 41.6 115.4 42.4 C 115.7 43.1 116.2 43.7 116.8 44.1 C 117.4 44.5 118.1 44.7 118.9 44.7 C 119.4 44.7 119.8 44.6 120.3 44.4 C 120.7 44.3 121.1 44 121.4 43.7 C 121.7 43.3 121.9 42.9 122 42.4 C 122 42.4 124 42.4 124 42.4 C 123.9 43.2 123.6 43.9 123.2 44.5 C 122.7 45.1 122.1 45.6 121.4 46 C 120.7 46.3 119.8 46.5 118.9 46.5 Z M 130.6 46.6 C 129.8 46.6 129 46.4 128.3 46.1 C 127.7 45.8 127.1 45.3 126.7 44.7 C 126.3 44.1 126.1 43.4 126.1 42.5 C 126.1 41.8 126.3 41.2 126.6 40.7 C 126.9 40.2 127.3 39.9 127.8 39.6 C 128.3 39.3 128.8 39.1 129.4 39 C 130 38.9 130.6 38.8 131.2 38.7 C 132 38.6 132.7 38.5 133.2 38.5 C 133.6 38.4 134 38.3 134.2 38.2 C 134.5 38 134.6 37.8 134.6 37.5 C 134.6 37.5 134.6 37.4 134.6 37.4 C 134.6 36.6 134.4 35.9 133.9 35.5 C 133.4 35 132.8 34.8 131.8 34.8 C 130.9 34.8 130.1 35 129.6 35.4 C 129 35.8 128.6 36.3 128.4 36.7 C 128.4 36.7 126.5 36.1 126.5 36.1 C 126.8 35.3 127.3 34.6 127.9 34.2 C 128.4 33.8 129.1 33.4 129.7 33.3 C 130.4 33.1 131.1 33 131.8 33 C 132.2 33 132.7 33 133.2 33.1 C 133.8 33.2 134.3 33.4 134.8 33.8 C 135.3 34.1 135.7 34.5 136.1 35.1 C 136.4 35.8 136.6 36.6 136.6 37.6 C 136.6 37.63 136.6 46.3 136.6 46.3 L 134.6 46.3 L 134.6 44.5 C 134.6 44.5 134.48 44.48 134.5 44.5 C 134.3 44.8 134.1 45.1 133.8 45.4 C 133.5 45.7 133.1 46 132.5 46.2 C 132 46.4 131.4 46.6 130.6 46.6 Z M 130.9 44.8 C 131.7 44.8 132.4 44.6 132.9 44.3 C 133.5 44 133.9 43.6 134.2 43.1 C 134.4 42.6 134.6 42.1 134.6 41.5 C 134.6 41.5 134.6 39.7 134.6 39.7 C 134.5 39.8 134.3 39.9 134 40 C 133.7 40 133.4 40.1 133 40.2 C 132.7 40.2 132.3 40.3 132 40.3 C 131.6 40.4 131.3 40.4 131.1 40.4 C 130.6 40.5 130.1 40.6 129.6 40.8 C 129.2 40.9 128.8 41.1 128.6 41.4 C 128.3 41.7 128.1 42.1 128.1 42.6 C 128.1 43.3 128.4 43.9 128.9 44.2 C 129.4 44.6 130.1 44.8 130.9 44.8 Z M 142.2 28.8 L 142.2 46.3 L 140.2 46.3 L 140.2 28.8 L 142.2 28.8 Z M 155.6 46.3 L 151.6 33.2 L 153.7 33.2 L 156.5 43.2 L 156.7 43.2 L 159.5 33.2 L 161.6 33.2 L 164.4 43.2 L 164.5 43.2 L 167.3 33.2 L 169.5 33.2 L 165.5 46.3 L 163.5 46.3 L 160.6 36.2 L 160.4 36.2 L 157.6 46.3 L 155.6 46.3 Z M 175.4 46.6 C 174.6 46.6 173.8 46.4 173.1 46.1 C 172.5 45.8 171.9 45.3 171.5 44.7 C 171.1 44.1 170.9 43.4 170.9 42.5 C 170.9 41.8 171.1 41.2 171.4 40.7 C 171.7 40.2 172.1 39.9 172.6 39.6 C 173.1 39.3 173.6 39.1 174.2 39 C 174.8 38.9 175.4 38.8 176 38.7 C 176.8 38.6 177.5 38.5 178 38.5 C 178.5 38.4 178.8 38.3 179.1 38.2 C 179.3 38 179.4 37.8 179.4 37.5 C 179.4 37.5 179.4 37.4 179.4 37.4 C 179.4 36.6 179.2 35.9 178.7 35.5 C 178.3 35 177.6 34.8 176.6 34.8 C 175.7 34.8 174.9 35 174.4 35.4 C 173.8 35.8 173.4 36.3 173.2 36.7 C 173.2 36.7 171.3 36.1 171.3 36.1 C 171.7 35.3 172.1 34.6 172.7 34.2 C 173.3 33.8 173.9 33.4 174.6 33.3 C 175.2 33.1 175.9 33 176.6 33 C 177 33 177.5 33 178 33.1 C 178.6 33.2 179.1 33.4 179.6 33.8 C 180.1 34.1 180.6 34.5 180.9 35.1 C 181.2 35.8 181.4 36.6 181.4 37.6 C 181.41 37.63 181.4 46.3 181.4 46.3 L 179.4 46.3 L 179.4 44.5 C 179.4 44.5 179.29 44.48 179.3 44.5 C 179.2 44.8 178.9 45.1 178.6 45.4 C 178.3 45.7 177.9 46 177.3 46.2 C 176.8 46.4 176.2 46.6 175.4 46.6 Z M 175.7 44.8 C 176.5 44.8 177.2 44.6 177.7 44.3 C 178.3 44 178.7 43.6 179 43.1 C 179.3 42.6 179.4 42.1 179.4 41.5 C 179.4 41.5 179.4 39.7 179.4 39.7 C 179.3 39.8 179.1 39.9 178.8 40 C 178.6 40 178.2 40.1 177.8 40.2 C 177.5 40.2 177.1 40.3 176.8 40.3 C 176.4 40.4 176.1 40.4 175.9 40.4 C 175.4 40.5 174.9 40.6 174.5 40.8 C 174 40.9 173.6 41.1 173.4 41.4 C 173.1 41.7 173 42.1 173 42.6 C 173 43.3 173.2 43.9 173.7 44.2 C 174.3 44.6 174.9 44.8 175.7 44.8 Z M 185.6 51.2 C 185.3 51.2 185 51.1 184.7 51.1 C 184.4 51 184.2 51 184.1 50.9 C 184.1 50.9 184.6 49.2 184.6 49.2 C 185.1 49.3 185.6 49.3 185.9 49.3 C 186.3 49.3 186.7 49.1 186.9 48.8 C 187.2 48.5 187.5 48 187.8 47.3 C 187.75 47.35 188.1 46.3 188.1 46.3 L 183.3 33.2 L 185.5 33.2 L 189.1 43.6 L 189.2 43.6 L 192.8 33.2 L 195 33.2 C 195 33.2 189.45 48.16 189.5 48.2 C 189.2 48.8 188.9 49.4 188.5 49.8 C 188.2 50.3 187.7 50.6 187.2 50.8 C 186.8 51.1 186.2 51.2 185.6 51.2 Z M 210.1 33.2 L 210.1 34.9 L 203.3 34.9 L 203.3 33.2 L 210.1 33.2 Z M 205.3 30 L 207.3 30 C 207.3 30 207.32 42.5 207.3 42.5 C 207.3 43.1 207.4 43.5 207.6 43.8 C 207.7 44.1 208 44.2 208.2 44.3 C 208.5 44.4 208.8 44.5 209.1 44.5 C 209.3 44.5 209.5 44.5 209.6 44.4 C 209.7 44.4 209.9 44.4 209.9 44.4 C 209.9 44.4 210.4 46.2 210.4 46.2 C 210.2 46.2 210 46.3 209.8 46.3 C 209.5 46.4 209.2 46.4 208.9 46.4 C 208.3 46.4 207.7 46.3 207.2 46.1 C 206.6 45.8 206.2 45.4 205.8 44.9 C 205.5 44.4 205.3 43.8 205.3 43.1 C 205.31 43.05 205.3 30 205.3 30 Z M 217.7 46.5 C 216.5 46.5 215.4 46.2 214.6 45.7 C 213.7 45.1 213 44.3 212.5 43.3 C 212 42.3 211.7 41.1 211.7 39.8 C 211.7 38.4 212 37.2 212.5 36.2 C 213 35.2 213.7 34.4 214.6 33.8 C 215.4 33.3 216.5 33 217.7 33 C 218.8 33 219.9 33.3 220.8 33.8 C 221.7 34.4 222.4 35.2 222.9 36.2 C 223.3 37.2 223.6 38.4 223.6 39.8 C 223.6 41.1 223.3 42.3 222.9 43.3 C 222.4 44.3 221.7 45.1 220.8 45.7 C 219.9 46.2 218.8 46.5 217.7 46.5 Z M 217.7 44.7 C 218.6 44.7 219.3 44.5 219.9 44 C 220.5 43.6 220.9 43 221.2 42.2 C 221.4 41.5 221.6 40.7 221.6 39.8 C 221.6 38.9 221.4 38.1 221.2 37.3 C 220.9 36.6 220.5 36 219.9 35.5 C 219.3 35 218.6 34.8 217.7 34.8 C 216.8 34.8 216 35 215.4 35.5 C 214.9 36 214.4 36.6 214.2 37.3 C 213.9 38.1 213.7 38.9 213.7 39.8 C 213.7 40.7 213.9 41.5 214.2 42.2 C 214.4 43 214.9 43.6 215.4 44 C 216 44.5 216.8 44.7 217.7 44.7 Z " stroke="none" fill="#10283d"/>  </g>  <g id="Polygon111560">    <path d="M 34.8 17.5 L 30 0 L 32.2 0 L 35.8 14.2 L 36 14.2 L 39.7 0 L 42.1 0 L 45.8 14.2 L 46 14.2 L 49.6 0 L 51.8 0 L 47 17.5 L 44.8 17.5 L 41 3.5 L 40.8 3.5 L 37 17.5 L 34.8 17.5 Z M 56 9.6 C 55.99 9.58 56 17.5 56 17.5 L 54 17.5 L 54 0 L 56 0 L 56 6.4 C 56 6.4 56.16 6.41 56.2 6.4 C 56.5 5.7 56.9 5.2 57.5 4.8 C 58.2 4.4 59 4.2 60 4.2 C 60.9 4.2 61.7 4.4 62.4 4.7 C 63 5.1 63.5 5.6 63.9 6.4 C 64.3 7.1 64.5 8 64.5 9.1 C 64.48 9.14 64.5 17.5 64.5 17.5 L 62.5 17.5 C 62.5 17.5 62.46 9.27 62.5 9.3 C 62.5 8.2 62.2 7.4 61.7 6.9 C 61.1 6.3 60.4 6 59.4 6 C 58.8 6 58.2 6.1 57.7 6.4 C 57.1 6.7 56.7 7.1 56.4 7.6 C 56.1 8.2 56 8.8 56 9.6 Z M 71.8 17.8 C 70.9 17.8 70.2 17.6 69.5 17.3 C 68.8 17 68.3 16.5 67.9 15.9 C 67.5 15.3 67.3 14.6 67.3 13.7 C 67.3 13 67.5 12.4 67.7 11.9 C 68 11.4 68.4 11.1 68.9 10.8 C 69.4 10.5 70 10.3 70.6 10.2 C 71.2 10.1 71.8 10 72.4 9.9 C 73.2 9.8 73.8 9.7 74.3 9.7 C 74.8 9.6 75.2 9.5 75.4 9.4 C 75.6 9.2 75.8 9 75.8 8.7 C 75.8 8.7 75.8 8.6 75.8 8.6 C 75.8 7.8 75.5 7.1 75.1 6.7 C 74.6 6.2 73.9 6 73 6 C 72 6 71.3 6.2 70.7 6.6 C 70.2 7 69.8 7.5 69.6 7.9 C 69.6 7.9 67.7 7.3 67.7 7.3 C 68 6.5 68.5 5.8 69 5.4 C 69.6 5 70.2 4.6 70.9 4.5 C 71.6 4.3 72.3 4.2 72.9 4.2 C 73.3 4.2 73.8 4.2 74.4 4.3 C 74.9 4.4 75.5 4.6 76 5 C 76.5 5.3 76.9 5.7 77.3 6.3 C 77.6 7 77.8 7.8 77.8 8.8 C 77.77 8.83 77.8 17.5 77.8 17.5 L 75.8 17.5 L 75.8 15.7 C 75.8 15.7 75.66 15.68 75.7 15.7 C 75.5 16 75.3 16.3 75 16.6 C 74.7 16.9 74.2 17.2 73.7 17.4 C 73.2 17.6 72.5 17.8 71.8 17.8 Z M 72.1 16 C 72.9 16 73.5 15.8 74.1 15.5 C 74.6 15.2 75.1 14.8 75.3 14.3 C 75.6 13.8 75.8 13.3 75.8 12.7 C 75.8 12.7 75.8 10.9 75.8 10.9 C 75.7 11 75.5 11.1 75.2 11.2 C 74.9 11.2 74.6 11.3 74.2 11.4 C 73.8 11.4 73.5 11.5 73.1 11.5 C 72.8 11.6 72.5 11.6 72.3 11.6 C 71.8 11.7 71.3 11.8 70.8 12 C 70.4 12.1 70 12.3 69.7 12.6 C 69.5 12.9 69.3 13.3 69.3 13.8 C 69.3 14.5 69.6 15.1 70.1 15.4 C 70.6 15.8 71.3 16 72.1 16 Z M 86.7 4.4 L 86.7 6.1 L 79.9 6.1 L 79.9 4.4 L 86.7 4.4 Z M 81.8 1.2 L 83.9 1.2 C 83.9 1.2 83.86 13.7 83.9 13.7 C 83.9 14.3 83.9 14.7 84.1 15 C 84.3 15.3 84.5 15.4 84.8 15.5 C 85 15.6 85.3 15.7 85.6 15.7 C 85.8 15.7 86 15.7 86.1 15.6 C 86.3 15.6 86.4 15.6 86.5 15.6 C 86.5 15.6 86.9 17.4 86.9 17.4 C 86.8 17.4 86.6 17.5 86.3 17.5 C 86.1 17.6 85.8 17.6 85.4 17.6 C 84.8 17.6 84.3 17.5 83.7 17.3 C 83.2 17 82.7 16.6 82.4 16.1 C 82 15.6 81.8 15 81.8 14.3 C 81.85 14.25 81.8 1.2 81.8 1.2 Z M 97.7 22.4 C 97.4 22.4 97.1 22.3 96.8 22.3 C 96.6 22.2 96.4 22.2 96.3 22.1 C 96.3 22.1 96.8 20.4 96.8 20.4 C 97.3 20.5 97.7 20.5 98.1 20.5 C 98.4 20.5 98.8 20.3 99.1 20 C 99.4 19.7 99.6 19.2 99.9 18.5 C 99.88 18.55 100.3 17.5 100.3 17.5 L 95.4 4.4 L 97.6 4.4 L 101.2 14.8 L 101.3 14.8 L 105 4.4 L 107.1 4.4 C 107.1 4.4 101.59 19.36 101.6 19.4 C 101.3 20 101 20.6 100.7 21 C 100.3 21.5 99.9 21.8 99.4 22 C 98.9 22.3 98.3 22.4 97.7 22.4 Z M 114.4 17.7 C 113.2 17.7 112.1 17.4 111.3 16.9 C 110.4 16.3 109.7 15.5 109.2 14.5 C 108.7 13.5 108.4 12.3 108.4 11 C 108.4 9.6 108.7 8.4 109.2 7.4 C 109.7 6.4 110.4 5.6 111.3 5 C 112.1 4.5 113.2 4.2 114.4 4.2 C 115.5 4.2 116.6 4.5 117.5 5 C 118.4 5.6 119.1 6.4 119.6 7.4 C 120 8.4 120.3 9.6 120.3 11 C 120.3 12.3 120 13.5 119.6 14.5 C 119.1 15.5 118.4 16.3 117.5 16.9 C 116.6 17.4 115.5 17.7 114.4 17.7 Z M 114.4 15.9 C 115.3 15.9 116 15.7 116.6 15.2 C 117.2 14.8 117.6 14.2 117.9 13.4 C 118.1 12.7 118.3 11.9 118.3 11 C 118.3 10.1 118.1 9.3 117.9 8.5 C 117.6 7.8 117.2 7.2 116.6 6.7 C 116 6.2 115.3 6 114.4 6 C 113.5 6 112.7 6.2 112.2 6.7 C 111.6 7.2 111.1 7.8 110.9 8.5 C 110.6 9.3 110.4 10.1 110.4 11 C 110.4 11.9 110.6 12.7 110.9 13.4 C 111.1 14.2 111.6 14.8 112.2 15.2 C 112.7 15.7 113.5 15.9 114.4 15.9 Z M 131.5 12.1 C 131.45 12.1 131.5 4.4 131.5 4.4 L 133.5 4.4 L 133.5 17.5 L 131.5 17.5 L 131.5 15.2 C 131.5 15.2 131.31 15.24 131.3 15.2 C 131 15.9 130.5 16.5 129.9 16.9 C 129.2 17.4 128.4 17.6 127.4 17.6 C 126.6 17.6 125.9 17.4 125.2 17.1 C 124.6 16.7 124.1 16.2 123.7 15.4 C 123.4 14.7 123.2 13.8 123.2 12.7 C 123.2 12.68 123.2 4.4 123.2 4.4 L 125.2 4.4 C 125.2 4.4 125.21 12.55 125.2 12.5 C 125.2 13.5 125.5 14.3 126 14.8 C 126.6 15.4 127.2 15.7 128.1 15.7 C 128.6 15.7 129.1 15.6 129.6 15.3 C 130.1 15 130.6 14.7 130.9 14.1 C 131.3 13.6 131.5 12.9 131.5 12.1 Z M 145.9 9.6 C 145.91 9.58 145.9 17.5 145.9 17.5 L 143.9 17.5 L 143.9 4.4 L 145.8 4.4 L 145.8 6.4 C 145.8 6.4 146.01 6.41 146 6.4 C 146.3 5.7 146.8 5.2 147.4 4.8 C 148 4.4 148.8 4.2 149.8 4.2 C 150.7 4.2 151.5 4.4 152.2 4.7 C 152.8 5.1 153.3 5.6 153.7 6.4 C 154.1 7.1 154.3 8 154.3 9.1 C 154.26 9.14 154.3 17.5 154.3 17.5 L 152.2 17.5 C 152.2 17.5 152.25 9.27 152.2 9.3 C 152.2 8.2 152 7.4 151.4 6.9 C 150.9 6.3 150.2 6 149.2 6 C 148.6 6 148 6.1 147.5 6.4 C 147 6.7 146.6 7.1 146.3 7.6 C 146 8.2 145.9 8.8 145.9 9.6 Z M 163.3 17.7 C 162 17.7 160.9 17.4 160 16.9 C 159.1 16.3 158.4 15.5 157.9 14.5 C 157.4 13.5 157.2 12.4 157.2 11 C 157.2 9.7 157.4 8.5 157.9 7.5 C 158.4 6.4 159.1 5.6 160 5.1 C 160.9 4.5 161.9 4.2 163.1 4.2 C 163.8 4.2 164.4 4.3 165.1 4.5 C 165.8 4.8 166.4 5.1 166.9 5.6 C 167.5 6.1 167.9 6.8 168.2 7.7 C 168.5 8.5 168.7 9.5 168.7 10.7 C 168.7 10.74 168.7 11.6 168.7 11.6 L 158.6 11.6 L 158.6 9.9 C 158.6 9.9 166.65 9.85 166.7 9.9 C 166.7 9.1 166.5 8.5 166.2 7.9 C 165.9 7.3 165.5 6.8 165 6.5 C 164.4 6.2 163.8 6 163.1 6 C 162.3 6 161.6 6.2 161 6.6 C 160.4 7 160 7.5 159.7 8.1 C 159.3 8.8 159.2 9.4 159.2 10.2 C 159.2 10.2 159.2 11.3 159.2 11.3 C 159.2 12.3 159.4 13.1 159.7 13.8 C 160 14.5 160.5 15 161.1 15.4 C 161.8 15.7 162.5 15.9 163.3 15.9 C 163.8 15.9 164.3 15.8 164.7 15.7 C 165.1 15.5 165.5 15.3 165.8 15 C 166.1 14.7 166.4 14.3 166.6 13.9 C 166.6 13.9 168.5 14.4 168.5 14.4 C 168.3 15.1 167.9 15.7 167.5 16.2 C 167 16.7 166.4 17 165.7 17.3 C 165 17.6 164.2 17.7 163.3 17.7 Z M 177.2 17.7 C 175.9 17.7 174.8 17.4 173.9 16.9 C 173 16.3 172.3 15.5 171.8 14.5 C 171.3 13.5 171.1 12.4 171.1 11 C 171.1 9.7 171.3 8.5 171.8 7.5 C 172.3 6.4 173 5.6 173.9 5.1 C 174.8 4.5 175.8 4.2 177 4.2 C 177.6 4.2 178.3 4.3 179 4.5 C 179.7 4.8 180.3 5.1 180.8 5.6 C 181.3 6.1 181.8 6.8 182.1 7.7 C 182.4 8.5 182.6 9.5 182.6 10.7 C 182.59 10.74 182.6 11.6 182.6 11.6 L 172.5 11.6 L 172.5 9.9 C 172.5 9.9 180.55 9.85 180.5 9.9 C 180.5 9.1 180.4 8.5 180.1 7.9 C 179.8 7.3 179.4 6.8 178.9 6.5 C 178.3 6.2 177.7 6 177 6 C 176.2 6 175.5 6.2 174.9 6.6 C 174.3 7 173.9 7.5 173.5 8.1 C 173.2 8.8 173.1 9.4 173.1 10.2 C 173.1 10.2 173.1 11.3 173.1 11.3 C 173.1 12.3 173.3 13.1 173.6 13.8 C 173.9 14.5 174.4 15 175 15.4 C 175.6 15.7 176.4 15.9 177.2 15.9 C 177.7 15.9 178.2 15.8 178.6 15.7 C 179 15.5 179.4 15.3 179.7 15 C 180 14.7 180.3 14.3 180.4 13.9 C 180.4 13.9 182.4 14.4 182.4 14.4 C 182.2 15.1 181.8 15.7 181.4 16.2 C 180.9 16.7 180.3 17 179.6 17.3 C 178.9 17.6 178.1 17.7 177.2 17.7 Z M 190.5 17.7 C 189.4 17.7 188.5 17.5 187.6 16.9 C 186.8 16.3 186.2 15.6 185.7 14.5 C 185.2 13.5 185 12.3 185 10.9 C 185 9.6 185.2 8.4 185.7 7.4 C 186.2 6.4 186.8 5.6 187.7 5 C 188.5 4.5 189.5 4.2 190.6 4.2 C 191.4 4.2 192.1 4.3 192.6 4.6 C 193.1 4.9 193.5 5.2 193.7 5.6 C 194 5.9 194.2 6.2 194.4 6.4 C 194.35 6.44 194.5 6.4 194.5 6.4 L 194.5 0 L 196.5 0 L 196.5 17.5 L 194.6 17.5 L 194.6 15.4 C 194.6 15.4 194.35 15.44 194.4 15.4 C 194.2 15.7 194 16 193.7 16.3 C 193.4 16.7 193.1 17 192.6 17.3 C 192 17.6 191.4 17.7 190.5 17.7 Z M 190.8 15.9 C 191.6 15.9 192.3 15.7 192.9 15.3 C 193.4 14.9 193.8 14.3 194.1 13.5 C 194.4 12.8 194.6 11.9 194.6 10.9 C 194.6 9.9 194.4 9.1 194.1 8.3 C 193.8 7.6 193.4 7 192.9 6.6 C 192.3 6.2 191.6 6 190.8 6 C 190 6 189.2 6.2 188.7 6.7 C 188.1 7.1 187.7 7.7 187.4 8.4 C 187.1 9.2 187 10 187 10.9 C 187 11.8 187.1 12.7 187.4 13.4 C 187.7 14.2 188.1 14.8 188.7 15.3 C 189.3 15.7 190 15.9 190.8 15.9 Z M 207.2 17.5 L 207.2 4.4 L 209.2 4.4 L 209.2 17.5 L 207.2 17.5 Z M 208.3 2.2 C 207.9 2.2 207.5 2 207.3 1.8 C 207 1.5 206.8 1.2 206.8 0.8 C 206.8 0.4 207 0.1 207.3 -0.1 C 207.5 -0.4 207.9 -0.5 208.3 -0.5 C 208.7 -0.5 209 -0.4 209.3 -0.1 C 209.6 0.1 209.7 0.4 209.7 0.8 C 209.7 1.2 209.6 1.5 209.3 1.8 C 209 2 208.7 2.2 208.3 2.2 Z M 222 7.3 C 222 7.3 220.2 7.8 220.2 7.8 C 220.1 7.5 220 7.2 219.7 6.9 C 219.5 6.6 219.2 6.4 218.8 6.2 C 218.5 6 218 5.9 217.4 5.9 C 216.6 5.9 215.9 6.1 215.4 6.5 C 214.9 6.8 214.6 7.3 214.6 7.9 C 214.6 8.4 214.8 8.8 215.2 9.1 C 215.5 9.3 216.1 9.6 216.9 9.8 C 216.9 9.8 218.8 10.3 218.8 10.3 C 220 10.5 220.8 11 221.4 11.6 C 222 12.1 222.3 12.9 222.3 13.8 C 222.3 14.6 222.1 15.2 221.6 15.8 C 221.2 16.4 220.6 16.9 219.8 17.2 C 219.1 17.6 218.2 17.7 217.2 17.7 C 215.8 17.7 214.7 17.4 213.9 16.9 C 213 16.3 212.4 15.4 212.2 14.3 C 212.2 14.3 214.1 13.8 214.1 13.8 C 214.3 14.5 214.6 15.1 215.1 15.4 C 215.6 15.8 216.3 16 217.1 16 C 218.1 16 218.8 15.8 219.4 15.4 C 219.9 15 220.2 14.5 220.2 13.9 C 220.2 13.5 220 13.1 219.7 12.8 C 219.4 12.5 218.9 12.2 218.3 12.1 C 218.3 12.1 216.1 11.6 216.1 11.6 C 214.9 11.3 214 10.8 213.4 10.2 C 212.9 9.6 212.6 8.9 212.6 8 C 212.6 7.2 212.8 6.6 213.2 6 C 213.6 5.4 214.2 5 214.9 4.7 C 215.7 4.4 216.5 4.2 217.4 4.2 C 218.7 4.2 219.7 4.5 220.5 5 C 221.2 5.6 221.7 6.4 222 7.3 Z " stroke="none" fill="#10283d"/>  </g></svg>