<?xml version="1.0" standalone="no"?><!DOCTYPE svg PUBLIC "-//W3C//DTD SVG 1.1//EN" "http://www.w3.org/Graphics/SVG/1.1/DTD/svg11.dtd"><svg xmlns="http://www.w3.org/2000/svg" version="1.1" width="61px" height="18.4px" viewBox="0 -5 61 18.4" style="top:-5px">  <desc>15 / 19</desc>  <defs/>  <g id="Polygon123345">    <path d="M 18.4 0 L 18.4 7.3 L 17.5 7.3 L 17.5 0.9 L 17.5 0.9 L 15.7 2.1 L 15.7 1.2 L 17.5 0 L 18.4 0 Z M 22.6 7.4 C 22.2 7.4 21.8 7.3 21.5 7.1 C 21.2 7 20.9 6.7 20.7 6.4 C 20.5 6.2 20.4 5.8 20.4 5.5 C 20.4 5.5 21.2 5.5 21.2 5.5 C 21.3 5.8 21.4 6.1 21.7 6.3 C 21.9 6.5 22.3 6.6 22.6 6.6 C 22.9 6.6 23.2 6.5 23.4 6.4 C 23.7 6.2 23.8 6 24 5.8 C 24.1 5.6 24.2 5.3 24.2 5 C 24.2 4.7 24.1 4.4 24 4.1 C 23.8 3.9 23.6 3.7 23.4 3.5 C 23.2 3.4 22.9 3.3 22.6 3.3 C 22.3 3.3 22.1 3.3 21.9 3.4 C 21.7 3.5 21.5 3.6 21.3 3.7 C 21.31 3.68 20.5 3.6 20.5 3.6 L 20.9 0 L 24.7 0 L 24.7 0.8 L 21.7 0.8 L 21.4 2.9 C 21.4 2.9 21.45 2.93 21.5 2.9 C 21.6 2.8 21.8 2.7 22 2.6 C 22.2 2.6 22.5 2.5 22.7 2.5 C 23.2 2.5 23.6 2.6 23.9 2.8 C 24.3 3 24.5 3.3 24.7 3.7 C 24.9 4.1 25 4.5 25 5 C 25 5.4 24.9 5.8 24.7 6.2 C 24.5 6.6 24.2 6.8 23.9 7.1 C 23.5 7.3 23.1 7.4 22.6 7.4 Z M 31.8 -0.3 L 29.5 8.4 L 28.7 8.4 L 31.1 -0.3 L 31.8 -0.3 Z M 38.2 0 L 38.2 7.3 L 37.3 7.3 L 37.3 0.9 L 37.3 0.9 L 35.5 2.1 L 35.5 1.2 L 37.3 0 L 38.2 0 Z M 42.5 -0.1 C 42.8 -0.1 43.1 0 43.4 0.1 C 43.7 0.2 44 0.4 44.2 0.6 C 44.5 0.9 44.6 1.2 44.8 1.7 C 44.9 2.1 45 2.7 45 3.3 C 45 4 45 4.6 44.8 5.1 C 44.7 5.6 44.5 6 44.3 6.3 C 44.1 6.7 43.8 6.9 43.5 7.1 C 43.2 7.3 42.8 7.4 42.4 7.4 C 42 7.4 41.6 7.3 41.3 7.1 C 41 7 40.7 6.7 40.5 6.5 C 40.3 6.2 40.2 5.8 40.1 5.4 C 40.1 5.4 41 5.4 41 5.4 C 41.1 5.8 41.2 6 41.5 6.3 C 41.7 6.5 42 6.6 42.4 6.6 C 42.9 6.6 43.4 6.3 43.7 5.9 C 44 5.4 44.2 4.7 44.2 3.8 C 44.2 3.8 44.1 3.8 44.1 3.8 C 44 4 43.9 4.1 43.7 4.3 C 43.5 4.4 43.3 4.5 43.1 4.6 C 42.8 4.7 42.6 4.7 42.4 4.7 C 41.9 4.7 41.6 4.6 41.2 4.4 C 40.9 4.2 40.6 3.9 40.4 3.6 C 40.2 3.2 40.1 2.8 40.1 2.3 C 40.1 1.9 40.2 1.5 40.4 1.1 C 40.6 0.7 40.8 0.4 41.2 0.2 C 41.6 0 42 -0.1 42.5 -0.1 Z M 42.5 0.7 C 42.2 0.7 41.9 0.8 41.7 0.9 C 41.5 1.1 41.3 1.3 41.1 1.5 C 41 1.8 40.9 2 40.9 2.3 C 40.9 2.6 41 2.9 41.1 3.2 C 41.3 3.4 41.4 3.6 41.7 3.7 C 41.9 3.9 42.2 4 42.5 4 C 42.7 4 42.9 3.9 43.1 3.8 C 43.3 3.7 43.5 3.6 43.6 3.5 C 43.7 3.3 43.9 3.1 43.9 2.9 C 44 2.7 44.1 2.5 44.1 2.3 C 44.1 2 44 1.8 43.9 1.5 C 43.7 1.3 43.5 1.1 43.3 0.9 C 43.1 0.8 42.8 0.7 42.5 0.7 Z " stroke="none" fill="#10283d"/>  </g></svg>