<?xml version="1.0" standalone="no"?><!DOCTYPE svg PUBLIC "-//W3C//DTD SVG 1.1//EN" "http://www.w3.org/Graphics/SVG/1.1/DTD/svg11.dtd"><svg xmlns="http://www.w3.org/2000/svg" version="1.1" width="241.3px" height="182.7px" viewBox="0 -5 241.3 182.7" style="top:-5px">  <desc>Connect silos</desc>  <defs/>  <g id="Polygon125374">    <path d="M 100.8 60.5 C 100.8 60.5 96.4 60.8 96.4 60.8 C 96.3 60.4 96.1 60.1 95.9 59.8 C 95.6 59.5 95.3 59.2 94.9 59 C 94.5 58.8 94 58.8 93.4 58.8 C 92.7 58.8 92.1 58.9 91.5 59.2 C 91 59.5 90.8 60 90.8 60.5 C 90.8 60.9 90.9 61.2 91.3 61.5 C 91.6 61.8 92.2 62.1 93 62.2 C 93 62.2 96.1 62.9 96.1 62.9 C 97.8 63.2 99.1 63.8 99.9 64.5 C 100.8 65.3 101.2 66.3 101.2 67.6 C 101.2 68.7 100.8 69.7 100.2 70.6 C 99.5 71.5 98.6 72.1 97.4 72.6 C 96.3 73.1 94.9 73.3 93.4 73.3 C 91.1 73.3 89.3 72.9 87.9 71.9 C 86.5 70.9 85.7 69.6 85.5 67.9 C 85.5 67.9 90.3 67.7 90.3 67.7 C 90.4 68.4 90.7 68.9 91.3 69.3 C 91.9 69.7 92.6 69.9 93.4 69.9 C 94.3 69.9 95 69.7 95.5 69.4 C 96 69 96.3 68.6 96.3 68.1 C 96.3 67.6 96.1 67.3 95.7 67 C 95.3 66.7 94.8 66.5 94 66.3 C 94 66.3 91 65.7 91 65.7 C 89.3 65.4 88 64.8 87.2 64 C 86.4 63.1 86 62.1 86 60.8 C 86 59.6 86.3 58.7 86.9 57.9 C 87.5 57 88.3 56.4 89.5 56 C 90.6 55.5 91.9 55.3 93.4 55.3 C 95.6 55.3 97.3 55.8 98.6 56.7 C 99.8 57.6 100.6 58.9 100.8 60.5 Z M 104.2 73 L 104.2 55.5 L 109 55.5 L 109 73 L 104.2 73 Z M 106.6 53.3 C 105.9 53.3 105.3 53.1 104.8 52.6 C 104.3 52.1 104 51.5 104 50.9 C 104 50.2 104.3 49.6 104.8 49.1 C 105.3 48.6 105.9 48.4 106.6 48.4 C 107.3 48.4 108 48.6 108.5 49.1 C 109 49.6 109.2 50.2 109.2 50.8 C 109.2 51.5 109 52.1 108.5 52.6 C 108 53.1 107.3 53.3 106.6 53.3 Z M 117.8 49.7 L 117.8 73 L 112.9 73 L 112.9 49.7 L 117.8 49.7 Z M 129.5 73.3 C 127.7 73.3 126.2 73 124.9 72.2 C 123.6 71.5 122.6 70.4 121.9 69.1 C 121.2 67.7 120.9 66.1 120.9 64.3 C 120.9 62.5 121.2 61 121.9 59.6 C 122.6 58.3 123.6 57.2 124.9 56.4 C 126.2 55.7 127.7 55.3 129.5 55.3 C 131.2 55.3 132.8 55.7 134 56.4 C 135.3 57.2 136.3 58.3 137 59.6 C 137.7 61 138.1 62.5 138.1 64.3 C 138.1 66.1 137.7 67.7 137 69.1 C 136.3 70.4 135.3 71.5 134 72.2 C 132.8 73 131.2 73.3 129.5 73.3 Z M 129.5 69.6 C 130.3 69.6 131 69.4 131.5 68.9 C 132 68.4 132.4 67.8 132.7 67 C 133 66.2 133.1 65.3 133.1 64.3 C 133.1 63.3 133 62.4 132.7 61.6 C 132.4 60.8 132 60.2 131.5 59.7 C 131 59.2 130.3 59 129.5 59 C 128.7 59 128 59.2 127.4 59.7 C 126.9 60.2 126.5 60.8 126.2 61.6 C 125.9 62.4 125.8 63.3 125.8 64.3 C 125.8 65.3 125.9 66.2 126.2 67 C 126.5 67.8 126.9 68.4 127.4 68.9 C 128 69.4 128.7 69.6 129.5 69.6 Z M 155.4 60.5 C 155.4 60.5 151 60.8 151 60.8 C 150.9 60.4 150.7 60.1 150.5 59.8 C 150.2 59.5 149.9 59.2 149.5 59 C 149.1 58.8 148.6 58.8 148.1 58.8 C 147.3 58.8 146.7 58.9 146.2 59.2 C 145.6 59.5 145.4 60 145.4 60.5 C 145.4 60.9 145.5 61.2 145.9 61.5 C 146.2 61.8 146.8 62.1 147.6 62.2 C 147.6 62.2 150.8 62.9 150.8 62.9 C 152.5 63.2 153.7 63.8 154.6 64.5 C 155.4 65.3 155.8 66.3 155.8 67.6 C 155.8 68.7 155.5 69.7 154.8 70.6 C 154.1 71.5 153.2 72.1 152 72.6 C 150.9 73.1 149.5 73.3 148 73.3 C 145.7 73.3 143.9 72.9 142.5 71.9 C 141.1 70.9 140.3 69.6 140.1 67.9 C 140.1 67.9 144.9 67.7 144.9 67.7 C 145 68.4 145.4 68.9 145.9 69.3 C 146.5 69.7 147.2 69.9 148 69.9 C 148.9 69.9 149.6 69.7 150.1 69.4 C 150.6 69 150.9 68.6 150.9 68.1 C 150.9 67.6 150.7 67.3 150.3 67 C 150 66.7 149.4 66.5 148.6 66.3 C 148.6 66.3 145.6 65.7 145.6 65.7 C 143.9 65.4 142.6 64.8 141.8 64 C 141 63.1 140.6 62.1 140.6 60.8 C 140.6 59.6 140.9 58.7 141.5 57.9 C 142.1 57 143 56.4 144.1 56 C 145.2 55.5 146.5 55.3 148 55.3 C 150.2 55.3 151.9 55.8 153.2 56.7 C 154.5 57.6 155.2 58.9 155.4 60.5 Z " stroke="none" fill="#10283d"/>  </g>  <g id="Polygon125373">    <path d="M 76.6 15.9 C 76.6 15.9 71.6 15.9 71.6 15.9 C 71.5 15.2 71.3 14.7 71 14.2 C 70.8 13.6 70.4 13.2 70 12.9 C 69.5 12.5 69 12.2 68.5 12 C 67.9 11.9 67.3 11.8 66.6 11.8 C 65.4 11.8 64.3 12.1 63.4 12.7 C 62.6 13.2 61.9 14.1 61.4 15.2 C 60.9 16.4 60.6 17.8 60.6 19.4 C 60.6 21 60.9 22.4 61.4 23.5 C 61.9 24.7 62.6 25.5 63.5 26.1 C 64.4 26.7 65.4 27 66.6 27 C 67.2 27 67.8 26.9 68.4 26.7 C 69 26.5 69.5 26.3 69.9 25.9 C 70.3 25.6 70.7 25.2 71 24.7 C 71.3 24.2 71.5 23.7 71.6 23 C 71.6 23 76.6 23.1 76.6 23.1 C 76.5 24.1 76.1 25.2 75.6 26.2 C 75.1 27.1 74.4 28 73.6 28.8 C 72.7 29.6 71.7 30.2 70.5 30.6 C 69.3 31.1 68 31.3 66.5 31.3 C 64.4 31.3 62.6 30.8 60.9 29.9 C 59.3 29 58 27.6 57.1 25.8 C 56.1 24 55.6 21.9 55.6 19.4 C 55.6 16.8 56.1 14.7 57.1 12.9 C 58 11.1 59.3 9.7 61 8.8 C 62.6 7.9 64.4 7.4 66.5 7.4 C 67.8 7.4 69.1 7.6 70.2 8 C 71.4 8.4 72.4 8.9 73.3 9.6 C 74.2 10.4 74.9 11.2 75.5 12.3 C 76.1 13.3 76.4 14.5 76.6 15.9 Z M 87.7 31.3 C 86 31.3 84.5 31 83.2 30.2 C 81.9 29.5 80.9 28.4 80.2 27.1 C 79.5 25.7 79.2 24.1 79.2 22.3 C 79.2 20.5 79.5 19 80.2 17.6 C 80.9 16.3 81.9 15.2 83.2 14.4 C 84.5 13.7 86 13.3 87.7 13.3 C 89.5 13.3 91 13.7 92.3 14.4 C 93.6 15.2 94.6 16.3 95.3 17.6 C 96 19 96.3 20.5 96.3 22.3 C 96.3 24.1 96 25.7 95.3 27.1 C 94.6 28.4 93.6 29.5 92.3 30.2 C 91 31 89.5 31.3 87.7 31.3 Z M 87.8 27.6 C 88.6 27.6 89.2 27.4 89.8 26.9 C 90.3 26.4 90.7 25.8 91 25 C 91.3 24.2 91.4 23.3 91.4 22.3 C 91.4 21.3 91.3 20.4 91 19.6 C 90.7 18.8 90.3 18.2 89.8 17.7 C 89.2 17.2 88.6 17 87.8 17 C 87 17 86.3 17.2 85.7 17.7 C 85.2 18.2 84.8 18.8 84.5 19.6 C 84.2 20.4 84.1 21.3 84.1 22.3 C 84.1 23.3 84.2 24.2 84.5 25 C 84.8 25.8 85.2 26.4 85.7 26.9 C 86.3 27.4 87 27.6 87.8 27.6 Z M 104.2 20.9 C 104.25 20.91 104.2 31 104.2 31 L 99.4 31 L 99.4 13.5 L 104 13.5 L 104 16.6 C 104 16.6 104.22 16.63 104.2 16.6 C 104.6 15.6 105.3 14.8 106.2 14.2 C 107.1 13.6 108.2 13.3 109.5 13.3 C 110.7 13.3 111.7 13.6 112.6 14.1 C 113.5 14.6 114.2 15.4 114.7 16.4 C 115.2 17.4 115.5 18.5 115.5 19.9 C 115.5 19.89 115.5 31 115.5 31 L 110.7 31 C 110.7 31 110.66 20.75 110.7 20.8 C 110.7 19.7 110.4 18.8 109.8 18.2 C 109.3 17.6 108.5 17.3 107.6 17.3 C 106.9 17.3 106.3 17.5 105.8 17.8 C 105.3 18 104.9 18.4 104.7 19 C 104.4 19.5 104.3 20.2 104.2 20.9 Z M 124.2 20.9 C 124.16 20.91 124.2 31 124.2 31 L 119.3 31 L 119.3 13.5 L 123.9 13.5 L 123.9 16.6 C 123.9 16.6 124.14 16.63 124.1 16.6 C 124.5 15.6 125.2 14.8 126.1 14.2 C 127 13.6 128.1 13.3 129.4 13.3 C 130.6 13.3 131.7 13.6 132.6 14.1 C 133.5 14.6 134.2 15.4 134.7 16.4 C 135.2 17.4 135.4 18.5 135.4 19.9 C 135.41 19.89 135.4 31 135.4 31 L 130.6 31 C 130.6 31 130.57 20.75 130.6 20.8 C 130.6 19.7 130.3 18.8 129.8 18.2 C 129.2 17.6 128.4 17.3 127.5 17.3 C 126.8 17.3 126.2 17.5 125.7 17.8 C 125.3 18 124.9 18.4 124.6 19 C 124.3 19.5 124.2 20.2 124.2 20.9 Z M 147.1 31.3 C 145.3 31.3 143.7 31 142.4 30.2 C 141.1 29.5 140.1 28.5 139.4 27.1 C 138.8 25.8 138.4 24.2 138.4 22.4 C 138.4 20.6 138.8 19 139.4 17.6 C 140.1 16.3 141.1 15.2 142.4 14.5 C 143.7 13.7 145.2 13.3 146.9 13.3 C 148 13.3 149.1 13.5 150.1 13.9 C 151.1 14.2 152 14.8 152.7 15.5 C 153.5 16.3 154 17.2 154.4 18.3 C 154.9 19.4 155.1 20.7 155.1 22.2 C 155.07 22.18 155.1 23.5 155.1 23.5 L 140.3 23.5 L 140.3 20.5 C 140.3 20.5 150.52 20.51 150.5 20.5 C 150.5 19.8 150.4 19.2 150.1 18.7 C 149.8 18.1 149.3 17.7 148.8 17.4 C 148.3 17.1 147.7 16.9 146.9 16.9 C 146.2 16.9 145.6 17.1 145 17.4 C 144.4 17.8 144 18.2 143.7 18.8 C 143.4 19.4 143.2 20 143.2 20.7 C 143.2 20.7 143.2 23.5 143.2 23.5 C 143.2 24.4 143.3 25.1 143.7 25.8 C 144 26.4 144.4 26.9 145 27.2 C 145.6 27.6 146.3 27.7 147.1 27.7 C 147.7 27.7 148.2 27.7 148.6 27.5 C 149.1 27.3 149.4 27.1 149.8 26.8 C 150.1 26.5 150.3 26.1 150.5 25.7 C 150.5 25.7 155 26 155 26 C 154.7 27.1 154.3 28 153.6 28.8 C 152.9 29.6 152 30.2 150.9 30.7 C 149.8 31.1 148.5 31.3 147.1 31.3 Z M 166 31.3 C 164.2 31.3 162.7 31 161.4 30.2 C 160.1 29.4 159.1 28.4 158.4 27 C 157.8 25.7 157.4 24.1 157.4 22.3 C 157.4 20.6 157.8 19 158.4 17.6 C 159.1 16.3 160.1 15.2 161.4 14.5 C 162.7 13.7 164.2 13.3 166 13.3 C 167.5 13.3 168.8 13.6 170 14.1 C 171.1 14.7 172 15.5 172.7 16.5 C 173.4 17.5 173.7 18.7 173.8 20 C 173.8 20 169.2 20 169.2 20 C 169.1 19.1 168.8 18.4 168.2 17.9 C 167.7 17.4 166.9 17.1 166.1 17.1 C 165.3 17.1 164.7 17.3 164.1 17.7 C 163.5 18.1 163.1 18.7 162.8 19.5 C 162.5 20.2 162.3 21.2 162.3 22.3 C 162.3 23.4 162.5 24.3 162.8 25.1 C 163.1 25.9 163.5 26.5 164.1 26.9 C 164.7 27.3 165.3 27.5 166.1 27.5 C 166.6 27.5 167.1 27.4 167.6 27.2 C 168 26.9 168.4 26.6 168.7 26.2 C 168.9 25.7 169.1 25.2 169.2 24.6 C 169.2 24.6 173.8 24.6 173.8 24.6 C 173.7 25.9 173.4 27.1 172.7 28.1 C 172.1 29.1 171.2 29.9 170 30.5 C 168.9 31.1 167.6 31.3 166 31.3 Z M 186 13.5 L 186 17.2 L 175.5 17.2 L 175.5 13.5 L 186 13.5 Z M 177.9 9.4 L 182.7 9.4 C 182.7 9.4 182.73 25.64 182.7 25.6 C 182.7 26.1 182.8 26.4 182.9 26.7 C 183.1 26.9 183.3 27.1 183.5 27.2 C 183.8 27.3 184 27.3 184.4 27.3 C 184.6 27.3 184.8 27.3 185.1 27.3 C 185.3 27.2 185.5 27.2 185.6 27.2 C 185.6 27.2 186.3 30.8 186.3 30.8 C 186.1 30.9 185.8 30.9 185.3 31.1 C 184.9 31.2 184.3 31.2 183.7 31.2 C 182.5 31.3 181.5 31.1 180.6 30.8 C 179.8 30.4 179.1 29.9 178.6 29.1 C 178.1 28.4 177.9 27.4 177.9 26.3 C 177.89 26.27 177.9 9.4 177.9 9.4 Z " stroke="none" fill="#10283d"/>  </g></svg>