<?xml version="1.0" standalone="no"?><!DOCTYPE svg PUBLIC "-//W3C//DTD SVG 1.1//EN" "http://www.w3.org/Graphics/SVG/1.1/DTD/svg11.dtd"><svg xmlns="http://www.w3.org/2000/svg" version="1.1" width="225px" height="163.6px" viewBox="0 -10 225 163.6" style="top:-10px">  <desc>Disconnected intelligence ￼ Siloed data leads to siloed insights that can’t be trusted. More about this ￼</desc>  <defs/>  <g id="Polygon116315">    <path d="M 0.9 128.5 L 3.8 128.5 L 6.8 135.8 L 6.9 135.8 L 9.9 128.5 L 12.8 128.5 L 12.8 139.4 L 10.5 139.4 L 10.5 132.3 L 10.4 132.3 L 7.6 139.3 L 6.1 139.3 L 3.3 132.3 L 3.2 132.3 L 3.2 139.4 L 0.9 139.4 L 0.9 128.5 Z M 18.4 139.5 C 17.5 139.5 16.8 139.4 16.2 139 C 15.6 138.7 15.1 138.2 14.8 137.5 C 14.5 136.9 14.3 136.2 14.3 135.3 C 14.3 134.5 14.5 133.7 14.8 133.1 C 15.1 132.5 15.6 132 16.2 131.6 C 16.8 131.3 17.5 131.1 18.4 131.1 C 19.2 131.1 19.9 131.3 20.5 131.6 C 21.1 132 21.6 132.5 21.9 133.1 C 22.2 133.7 22.4 134.5 22.4 135.3 C 22.4 136.2 22.2 136.9 21.9 137.5 C 21.6 138.2 21.1 138.7 20.5 139 C 19.9 139.4 19.2 139.5 18.4 139.5 Z M 18.4 137.8 C 18.7 137.8 19.1 137.7 19.3 137.5 C 19.6 137.2 19.8 137 19.9 136.6 C 20 136.2 20.1 135.8 20.1 135.3 C 20.1 134.8 20 134.4 19.9 134 C 19.8 133.7 19.6 133.4 19.3 133.1 C 19.1 132.9 18.7 132.8 18.4 132.8 C 18 132.8 17.7 132.9 17.4 133.1 C 17.2 133.4 17 133.7 16.8 134 C 16.7 134.4 16.6 134.8 16.6 135.3 C 16.6 135.8 16.7 136.2 16.8 136.6 C 17 137 17.2 137.2 17.4 137.5 C 17.7 137.7 18 137.8 18.4 137.8 Z M 23.9 139.4 L 23.9 131.2 L 26.1 131.2 L 26.1 132.6 C 26.1 132.6 26.15 132.63 26.1 132.6 C 26.3 132.1 26.5 131.7 26.9 131.5 C 27.3 131.2 27.7 131.1 28.1 131.1 C 28.2 131.1 28.3 131.1 28.5 131.1 C 28.6 131.1 28.7 131.1 28.8 131.2 C 28.8 131.2 28.8 133.2 28.8 133.2 C 28.7 133.1 28.6 133.1 28.4 133.1 C 28.2 133.1 28 133.1 27.9 133.1 C 27.5 133.1 27.2 133.1 27 133.3 C 26.7 133.4 26.5 133.6 26.4 133.9 C 26.2 134.1 26.1 134.4 26.1 134.8 C 26.13 134.75 26.1 139.4 26.1 139.4 L 23.9 139.4 Z M 33.6 139.5 C 32.7 139.5 32 139.4 31.4 139 C 30.8 138.7 30.3 138.2 30 137.6 C 29.7 136.9 29.5 136.2 29.5 135.3 C 29.5 134.5 29.7 133.7 30 133.1 C 30.3 132.5 30.8 132 31.4 131.6 C 32 131.3 32.7 131.1 33.5 131.1 C 34 131.1 34.5 131.2 35 131.4 C 35.4 131.5 35.8 131.8 36.2 132.1 C 36.5 132.5 36.8 132.9 37 133.4 C 37.2 133.9 37.3 134.6 37.3 135.2 C 37.31 135.25 37.3 135.9 37.3 135.9 L 30.4 135.9 L 30.4 134.5 C 30.4 134.5 35.17 134.47 35.2 134.5 C 35.2 134.1 35.1 133.8 35 133.6 C 34.8 133.3 34.6 133.1 34.4 133 C 34.1 132.9 33.8 132.8 33.5 132.8 C 33.2 132.8 32.8 132.9 32.6 133 C 32.3 133.2 32.1 133.4 32 133.7 C 31.8 133.9 31.7 134.2 31.7 134.5 C 31.7 134.5 31.7 135.9 31.7 135.9 C 31.7 136.3 31.8 136.6 32 136.9 C 32.1 137.2 32.3 137.4 32.6 137.6 C 32.9 137.8 33.2 137.8 33.6 137.8 C 33.8 137.8 34.1 137.8 34.3 137.7 C 34.5 137.7 34.7 137.6 34.8 137.4 C 35 137.3 35.1 137.1 35.2 136.9 C 35.2 136.9 37.3 137 37.3 137 C 37.2 137.5 36.9 138 36.6 138.4 C 36.3 138.7 35.9 139 35.3 139.2 C 34.8 139.4 34.2 139.5 33.6 139.5 Z M 44.6 139.5 C 44.1 139.5 43.6 139.4 43.2 139.3 C 42.8 139.1 42.5 138.8 42.2 138.4 C 42 138.1 41.9 137.6 41.9 137.1 C 41.9 136.6 42 136.3 42.1 136 C 42.3 135.6 42.5 135.4 42.8 135.2 C 43.1 135 43.4 134.9 43.8 134.8 C 44.2 134.7 44.6 134.6 45 134.6 C 45.4 134.5 45.8 134.5 46.1 134.4 C 46.4 134.4 46.6 134.3 46.7 134.2 C 46.9 134.1 46.9 134 46.9 133.8 C 46.9 133.8 46.9 133.8 46.9 133.8 C 46.9 133.5 46.8 133.2 46.6 133 C 46.4 132.8 46.1 132.8 45.7 132.8 C 45.3 132.8 45 132.8 44.7 133 C 44.5 133.2 44.3 133.4 44.3 133.7 C 44.3 133.7 42.2 133.5 42.2 133.5 C 42.3 133 42.5 132.6 42.8 132.2 C 43.1 131.9 43.5 131.6 44 131.4 C 44.5 131.2 45.1 131.1 45.7 131.1 C 46.2 131.1 46.6 131.1 47 131.3 C 47.5 131.4 47.8 131.5 48.2 131.7 C 48.5 132 48.7 132.3 48.9 132.6 C 49.1 133 49.2 133.4 49.2 133.9 C 49.21 133.86 49.2 139.4 49.2 139.4 L 47.1 139.4 L 47.1 138.2 C 47.1 138.2 46.99 138.25 47 138.2 C 46.9 138.5 46.7 138.7 46.5 138.9 C 46.2 139.1 46 139.3 45.7 139.4 C 45.4 139.5 45 139.5 44.6 139.5 Z M 45.2 138 C 45.6 138 45.9 137.9 46.1 137.8 C 46.4 137.6 46.6 137.5 46.7 137.2 C 46.9 137 47 136.7 47 136.5 C 47 136.5 47 135.6 47 135.6 C 46.9 135.6 46.8 135.7 46.7 135.7 C 46.5 135.8 46.4 135.8 46.3 135.8 C 46.1 135.8 45.9 135.9 45.8 135.9 C 45.6 135.9 45.5 135.9 45.4 136 C 45.1 136 44.9 136.1 44.7 136.1 C 44.5 136.2 44.3 136.3 44.2 136.5 C 44.1 136.6 44.1 136.8 44.1 137 C 44.1 137.3 44.2 137.6 44.4 137.7 C 44.6 137.9 44.9 138 45.2 138 Z M 50.9 139.4 L 50.9 128.5 L 53.2 128.5 L 53.2 132.6 C 53.2 132.6 53.25 132.57 53.3 132.6 C 53.3 132.4 53.5 132.1 53.7 131.9 C 53.9 131.7 54.1 131.5 54.4 131.3 C 54.7 131.2 55.1 131.1 55.6 131.1 C 56.2 131.1 56.7 131.2 57.2 131.6 C 57.7 131.9 58.1 132.3 58.4 133 C 58.7 133.6 58.9 134.4 58.9 135.3 C 58.9 136.2 58.7 137 58.5 137.6 C 58.2 138.2 57.8 138.7 57.3 139 C 56.8 139.4 56.2 139.5 55.6 139.5 C 55.1 139.5 54.8 139.4 54.5 139.3 C 54.1 139.2 53.9 139 53.7 138.7 C 53.5 138.5 53.4 138.3 53.3 138.1 C 53.25 138.07 53.1 138.1 53.1 138.1 L 53.1 139.4 L 50.9 139.4 Z M 53.1 135.3 C 53.1 135.8 53.2 136.2 53.3 136.6 C 53.5 136.9 53.7 137.2 53.9 137.4 C 54.2 137.6 54.5 137.7 54.9 137.7 C 55.2 137.7 55.5 137.6 55.8 137.4 C 56 137.2 56.2 136.9 56.4 136.6 C 56.5 136.2 56.6 135.8 56.6 135.3 C 56.6 134.8 56.5 134.4 56.4 134 C 56.2 133.7 56.1 133.4 55.8 133.2 C 55.5 133 55.2 132.9 54.9 132.9 C 54.5 132.9 54.2 133 53.9 133.2 C 53.7 133.4 53.5 133.7 53.3 134 C 53.2 134.4 53.1 134.8 53.1 135.3 Z M 64.1 139.5 C 63.2 139.5 62.5 139.4 61.9 139 C 61.3 138.7 60.9 138.2 60.5 137.5 C 60.2 136.9 60.1 136.2 60.1 135.3 C 60.1 134.5 60.2 133.7 60.5 133.1 C 60.9 132.5 61.3 132 61.9 131.6 C 62.5 131.3 63.2 131.1 64.1 131.1 C 64.9 131.1 65.6 131.3 66.2 131.6 C 66.8 132 67.3 132.5 67.6 133.1 C 67.9 133.7 68.1 134.5 68.1 135.3 C 68.1 136.2 67.9 136.9 67.6 137.5 C 67.3 138.2 66.8 138.7 66.2 139 C 65.6 139.4 64.9 139.5 64.1 139.5 Z M 64.1 137.8 C 64.5 137.8 64.8 137.7 65 137.5 C 65.3 137.2 65.5 137 65.6 136.6 C 65.7 136.2 65.8 135.8 65.8 135.3 C 65.8 134.8 65.7 134.4 65.6 134 C 65.5 133.7 65.3 133.4 65 133.1 C 64.8 132.9 64.5 132.8 64.1 132.8 C 63.7 132.8 63.4 132.9 63.1 133.1 C 62.9 133.4 62.7 133.7 62.6 134 C 62.4 134.4 62.4 134.8 62.4 135.3 C 62.4 135.8 62.4 136.2 62.6 136.6 C 62.7 137 62.9 137.2 63.1 137.5 C 63.4 137.7 63.7 137.8 64.1 137.8 Z M 74.8 135.9 C 74.78 135.9 74.8 131.2 74.8 131.2 L 77 131.2 L 77 139.4 L 74.9 139.4 L 74.9 137.9 C 74.9 137.9 74.79 137.9 74.8 137.9 C 74.6 138.4 74.3 138.8 73.9 139.1 C 73.4 139.3 72.9 139.5 72.3 139.5 C 71.8 139.5 71.3 139.4 70.9 139.1 C 70.4 138.9 70.1 138.5 69.9 138.1 C 69.7 137.6 69.5 137 69.5 136.4 C 69.53 136.41 69.5 131.2 69.5 131.2 L 71.8 131.2 C 71.8 131.2 71.8 136 71.8 136 C 71.8 136.5 71.9 136.9 72.2 137.1 C 72.4 137.4 72.8 137.6 73.2 137.6 C 73.5 137.6 73.7 137.5 74 137.4 C 74.2 137.3 74.4 137.1 74.6 136.8 C 74.7 136.6 74.8 136.3 74.8 135.9 Z M 83.2 131.2 L 83.2 132.9 L 78.2 132.9 L 78.2 131.2 L 83.2 131.2 Z M 79.3 129.2 L 81.6 129.2 C 81.6 129.2 81.62 136.87 81.6 136.9 C 81.6 137.1 81.6 137.2 81.7 137.4 C 81.8 137.5 81.9 137.6 82 137.6 C 82.1 137.6 82.2 137.7 82.4 137.7 C 82.5 137.7 82.6 137.7 82.7 137.6 C 82.8 137.6 82.9 137.6 82.9 137.6 C 82.9 137.6 83.3 139.3 83.3 139.3 C 83.2 139.3 83 139.4 82.8 139.4 C 82.6 139.5 82.4 139.5 82.1 139.5 C 81.5 139.5 81 139.4 80.6 139.3 C 80.2 139.1 79.9 138.8 79.7 138.5 C 79.5 138.1 79.3 137.7 79.3 137.2 C 79.35 137.17 79.3 129.2 79.3 129.2 Z M 92.5 131.2 L 92.5 132.9 L 87.5 132.9 L 87.5 131.2 L 92.5 131.2 Z M 88.7 129.2 L 90.9 129.2 C 90.9 129.2 90.92 136.87 90.9 136.9 C 90.9 137.1 91 137.2 91 137.4 C 91.1 137.5 91.2 137.6 91.3 137.6 C 91.4 137.6 91.5 137.7 91.7 137.7 C 91.8 137.7 91.9 137.7 92 137.6 C 92.1 137.6 92.2 137.6 92.3 137.6 C 92.3 137.6 92.6 139.3 92.6 139.3 C 92.5 139.3 92.3 139.4 92.1 139.4 C 91.9 139.5 91.7 139.5 91.4 139.5 C 90.8 139.5 90.4 139.4 89.9 139.3 C 89.5 139.1 89.2 138.8 89 138.5 C 88.8 138.1 88.6 137.7 88.7 137.2 C 88.65 137.17 88.7 129.2 88.7 129.2 Z M 96.1 134.7 C 96.08 134.65 96.1 139.4 96.1 139.4 L 93.8 139.4 L 93.8 128.5 L 96 128.5 L 96 132.6 C 96 132.6 96.11 132.64 96.1 132.6 C 96.3 132.2 96.6 131.8 97 131.5 C 97.4 131.2 97.9 131.1 98.6 131.1 C 99.1 131.1 99.6 131.2 100 131.5 C 100.5 131.7 100.8 132.1 101 132.5 C 101.3 133 101.4 133.5 101.4 134.2 C 101.39 134.17 101.4 139.4 101.4 139.4 L 99.1 139.4 C 99.1 139.4 99.12 134.58 99.1 134.6 C 99.1 134.1 99 133.7 98.7 133.4 C 98.5 133.1 98.1 133 97.7 133 C 97.4 133 97.1 133 96.8 133.2 C 96.6 133.3 96.4 133.5 96.3 133.7 C 96.2 134 96.1 134.3 96.1 134.7 Z M 103.1 139.4 L 103.1 131.2 L 105.4 131.2 L 105.4 139.4 L 103.1 139.4 Z M 104.3 130.1 C 103.9 130.1 103.7 130 103.4 129.8 C 103.2 129.6 103.1 129.3 103.1 129 C 103.1 128.7 103.2 128.4 103.4 128.2 C 103.7 128 103.9 127.8 104.3 127.8 C 104.6 127.8 104.9 128 105.1 128.2 C 105.4 128.4 105.5 128.7 105.5 129 C 105.5 129.3 105.4 129.6 105.1 129.8 C 104.9 130 104.6 130.1 104.3 130.1 Z M 113.9 133.5 C 113.9 133.5 111.9 133.7 111.9 133.7 C 111.8 133.5 111.8 133.3 111.6 133.2 C 111.5 133 111.4 132.9 111.2 132.8 C 111 132.7 110.8 132.7 110.5 132.7 C 110.1 132.7 109.9 132.8 109.6 132.9 C 109.4 133.1 109.2 133.3 109.2 133.5 C 109.2 133.7 109.3 133.9 109.5 134 C 109.6 134.1 109.9 134.3 110.3 134.3 C 110.3 134.3 111.8 134.6 111.8 134.6 C 112.6 134.8 113.2 135.1 113.5 135.4 C 113.9 135.8 114.1 136.3 114.1 136.8 C 114.1 137.4 114 137.9 113.7 138.3 C 113.3 138.7 112.9 139 112.4 139.2 C 111.8 139.4 111.2 139.5 110.5 139.5 C 109.4 139.5 108.5 139.3 107.9 138.9 C 107.3 138.4 106.9 137.8 106.8 137 C 106.8 137 109 136.9 109 136.9 C 109.1 137.2 109.2 137.5 109.5 137.6 C 109.8 137.8 110.1 137.9 110.5 137.9 C 110.9 137.9 111.2 137.8 111.5 137.7 C 111.7 137.5 111.8 137.3 111.8 137.1 C 111.8 136.9 111.7 136.7 111.6 136.6 C 111.4 136.4 111.1 136.3 110.8 136.3 C 110.8 136.3 109.4 136 109.4 136 C 108.6 135.8 108 135.5 107.6 135.1 C 107.2 134.8 107 134.3 107 133.6 C 107 133.1 107.1 132.7 107.4 132.3 C 107.7 131.9 108.1 131.6 108.6 131.4 C 109.2 131.2 109.8 131.1 110.5 131.1 C 111.5 131.1 112.3 131.3 112.9 131.7 C 113.5 132.2 113.8 132.8 113.9 133.5 Z " stroke="none" fill="#10283d"/>  </g>  <g id="Polygon116314">    <path d="M 4.5 112 C 3.7 112 3 111.8 2.5 111.4 C 1.9 111 1.5 110.5 1.2 109.9 C 0.9 109.3 0.8 108.6 0.8 107.7 C 0.8 106.9 0.9 106.2 1.2 105.5 C 1.5 104.9 2 104.4 2.5 104 C 3.1 103.7 3.7 103.5 4.5 103.5 C 5 103.5 5.5 103.6 6 103.8 C 6.5 104 6.8 104.3 7.1 104.7 C 7.4 105.1 7.6 105.5 7.7 106.1 C 7.7 106.1 6.4 106.1 6.4 106.1 C 6.3 105.7 6.1 105.3 5.8 105.1 C 5.5 104.8 5 104.6 4.5 104.6 C 4 104.6 3.6 104.7 3.2 105 C 2.8 105.3 2.5 105.6 2.3 106.1 C 2.1 106.5 2 107.1 2 107.7 C 2 108.3 2.1 108.9 2.3 109.3 C 2.5 109.8 2.8 110.2 3.2 110.4 C 3.5 110.7 4 110.8 4.5 110.8 C 4.8 110.8 5.1 110.8 5.4 110.7 C 5.6 110.5 5.9 110.4 6 110.2 C 6.2 109.9 6.4 109.7 6.4 109.4 C 6.4 109.4 7.7 109.4 7.7 109.4 C 7.6 109.9 7.4 110.3 7.2 110.7 C 6.9 111.1 6.5 111.4 6.1 111.6 C 5.6 111.8 5.1 112 4.5 112 Z M 12 112 C 11.4 112 11 111.9 10.5 111.7 C 10.1 111.5 9.8 111.2 9.5 110.8 C 9.3 110.4 9.2 110 9.2 109.5 C 9.2 109 9.3 108.6 9.4 108.3 C 9.6 108 9.9 107.8 10.2 107.6 C 10.5 107.5 10.8 107.3 11.2 107.3 C 11.6 107.2 12 107.1 12.3 107.1 C 12.8 107 13.2 106.9 13.6 106.9 C 13.9 106.9 14.1 106.8 14.2 106.7 C 14.4 106.7 14.4 106.5 14.4 106.3 C 14.4 106.3 14.4 106.3 14.4 106.3 C 14.4 105.7 14.3 105.3 14 105 C 13.7 104.7 13.3 104.6 12.7 104.6 C 12.1 104.6 11.7 104.7 11.3 105 C 11 105.3 10.7 105.5 10.6 105.8 C 10.6 105.8 9.4 105.4 9.4 105.4 C 9.6 104.9 9.9 104.5 10.3 104.2 C 10.6 104 11 103.8 11.4 103.7 C 11.8 103.5 12.3 103.5 12.7 103.5 C 12.9 103.5 13.2 103.5 13.6 103.6 C 13.9 103.6 14.3 103.8 14.6 104 C 14.9 104.2 15.2 104.4 15.4 104.8 C 15.6 105.2 15.7 105.7 15.7 106.4 C 15.71 106.39 15.7 111.8 15.7 111.8 L 14.4 111.8 L 14.4 110.7 C 14.4 110.7 14.38 110.67 14.4 110.7 C 14.3 110.9 14.2 111 14 111.2 C 13.8 111.4 13.5 111.6 13.2 111.8 C 12.8 111.9 12.4 112 12 112 Z M 12.1 110.8 C 12.6 110.8 13.1 110.7 13.4 110.6 C 13.7 110.4 14 110.1 14.2 109.8 C 14.4 109.5 14.4 109.2 14.4 108.8 C 14.4 108.8 14.4 107.7 14.4 107.7 C 14.4 107.7 14.3 107.8 14.1 107.8 C 13.9 107.9 13.7 107.9 13.5 108 C 13.2 108 13 108 12.8 108.1 C 12.6 108.1 12.4 108.1 12.3 108.1 C 11.9 108.2 11.6 108.2 11.4 108.3 C 11.1 108.4 10.9 108.6 10.7 108.8 C 10.5 109 10.4 109.2 10.4 109.5 C 10.4 110 10.6 110.3 10.9 110.5 C 11.2 110.7 11.6 110.8 12.1 110.8 Z M 19.3 106.9 C 19.25 106.86 19.3 111.8 19.3 111.8 L 18 111.8 L 18 103.6 L 19.2 103.6 L 19.2 104.9 C 19.2 104.9 19.32 104.88 19.3 104.9 C 19.5 104.5 19.8 104.1 20.2 103.9 C 20.6 103.6 21.1 103.5 21.7 103.5 C 22.3 103.5 22.7 103.6 23.2 103.8 C 23.6 104.1 23.9 104.4 24.1 104.9 C 24.4 105.3 24.5 105.9 24.5 106.6 C 24.48 106.58 24.5 111.8 24.5 111.8 L 23.2 111.8 C 23.2 111.8 23.22 106.67 23.2 106.7 C 23.2 106 23.1 105.5 22.7 105.2 C 22.4 104.8 21.9 104.6 21.3 104.6 C 20.9 104.6 20.6 104.7 20.3 104.9 C 20 105.1 19.7 105.3 19.5 105.6 C 19.3 106 19.3 106.4 19.3 106.9 Z M 27.8 100.9 C 27.8 100.9 27.82 101.83 27.8 101.8 C 27.8 102.1 27.8 102.4 27.7 102.8 C 27.6 103.1 27.4 103.4 27.2 103.7 C 27 104 26.8 104.3 26.5 104.5 C 26.5 104.5 25.8 104 25.8 104 C 26 103.6 26.2 103.3 26.4 103 C 26.5 102.6 26.6 102.2 26.6 101.9 C 26.62 101.85 26.6 100.9 26.6 100.9 L 27.8 100.9 Z M 33.3 103.6 L 33.3 104.7 L 29.1 104.7 L 29.1 103.6 L 33.3 103.6 Z M 30.3 101.6 L 31.6 101.6 C 31.6 101.6 31.58 109.44 31.6 109.4 C 31.6 109.8 31.6 110.1 31.7 110.2 C 31.8 110.4 32 110.5 32.1 110.6 C 32.3 110.6 32.5 110.7 32.7 110.7 C 32.8 110.7 32.9 110.7 33 110.6 C 33.1 110.6 33.2 110.6 33.2 110.6 C 33.2 110.6 33.5 111.7 33.5 111.7 C 33.4 111.8 33.3 111.8 33.1 111.8 C 33 111.9 32.8 111.9 32.5 111.9 C 32.2 111.9 31.8 111.8 31.5 111.7 C 31.2 111.5 30.9 111.3 30.7 111 C 30.4 110.6 30.3 110.3 30.3 109.8 C 30.32 109.78 30.3 101.6 30.3 101.6 Z M 39.6 111.8 L 39.6 100.9 L 40.9 100.9 L 40.9 104.9 C 40.9 104.9 40.97 104.9 41 104.9 C 41.1 104.8 41.2 104.6 41.4 104.4 C 41.5 104.1 41.8 103.9 42.1 103.8 C 42.4 103.6 42.8 103.5 43.3 103.5 C 44 103.5 44.6 103.7 45.2 104 C 45.7 104.4 46.1 104.8 46.4 105.5 C 46.7 106.1 46.8 106.9 46.8 107.7 C 46.8 108.6 46.7 109.3 46.4 110 C 46.1 110.6 45.7 111.1 45.2 111.4 C 44.6 111.8 44 112 43.4 112 C 42.8 112 42.4 111.9 42.1 111.7 C 41.8 111.5 41.5 111.3 41.4 111.1 C 41.2 110.9 41.1 110.7 41 110.5 C 40.97 110.52 40.8 110.5 40.8 110.5 L 40.8 111.8 L 39.6 111.8 Z M 40.8 107.7 C 40.8 108.3 40.9 108.9 41.1 109.3 C 41.3 109.8 41.6 110.2 41.9 110.4 C 42.3 110.7 42.7 110.8 43.2 110.8 C 43.7 110.8 44.2 110.7 44.5 110.4 C 44.9 110.1 45.1 109.7 45.3 109.3 C 45.5 108.8 45.6 108.3 45.6 107.7 C 45.6 107.1 45.5 106.6 45.3 106.1 C 45.1 105.7 44.9 105.3 44.5 105 C 44.2 104.8 43.7 104.6 43.2 104.6 C 42.7 104.6 42.2 104.8 41.9 105 C 41.6 105.3 41.3 105.6 41.1 106.1 C 40.9 106.5 40.8 107.1 40.8 107.7 Z M 52.2 112 C 51.4 112 50.7 111.8 50.1 111.4 C 49.6 111.1 49.1 110.6 48.8 110 C 48.5 109.3 48.3 108.6 48.3 107.8 C 48.3 106.9 48.5 106.2 48.8 105.5 C 49.1 104.9 49.5 104.4 50.1 104 C 50.6 103.7 51.3 103.5 52 103.5 C 52.5 103.5 52.9 103.6 53.3 103.7 C 53.7 103.8 54.1 104.1 54.4 104.4 C 54.8 104.7 55 105.1 55.2 105.7 C 55.4 106.2 55.5 106.8 55.5 107.6 C 55.55 107.58 55.5 108.1 55.5 108.1 L 49.2 108.1 L 49.2 107 C 49.2 107 54.27 107.03 54.3 107 C 54.3 106.6 54.2 106.2 54 105.8 C 53.8 105.4 53.6 105.1 53.2 104.9 C 52.9 104.7 52.5 104.6 52 104.6 C 51.5 104.6 51.1 104.7 50.7 105 C 50.4 105.2 50.1 105.6 49.9 106 C 49.7 106.3 49.6 106.8 49.6 107.2 C 49.6 107.2 49.6 107.9 49.6 107.9 C 49.6 108.6 49.7 109.1 49.9 109.5 C 50.1 109.9 50.4 110.3 50.8 110.5 C 51.2 110.7 51.7 110.8 52.2 110.8 C 52.5 110.8 52.8 110.8 53.1 110.7 C 53.3 110.6 53.6 110.4 53.8 110.3 C 53.9 110.1 54.1 109.8 54.2 109.5 C 54.2 109.5 55.4 109.9 55.4 109.9 C 55.3 110.3 55.1 110.7 54.8 111 C 54.5 111.3 54.1 111.5 53.7 111.7 C 53.2 111.9 52.7 112 52.2 112 Z M 65.2 103.6 L 65.2 104.7 L 61 104.7 L 61 103.6 L 65.2 103.6 Z M 62.2 101.6 L 63.5 101.6 C 63.5 101.6 63.5 109.44 63.5 109.4 C 63.5 109.8 63.5 110.1 63.7 110.2 C 63.8 110.4 63.9 110.5 64.1 110.6 C 64.2 110.6 64.4 110.7 64.6 110.7 C 64.7 110.7 64.8 110.7 64.9 110.6 C 65 110.6 65.1 110.6 65.1 110.6 C 65.1 110.6 65.4 111.7 65.4 111.7 C 65.3 111.8 65.2 111.8 65 111.8 C 64.9 111.9 64.7 111.9 64.5 111.9 C 64.1 111.9 63.8 111.8 63.4 111.7 C 63.1 111.5 62.8 111.3 62.6 111 C 62.4 110.6 62.2 110.3 62.2 109.8 C 62.24 109.78 62.2 101.6 62.2 101.6 Z M 67 111.8 L 67 103.6 L 68.2 103.6 L 68.2 104.8 C 68.2 104.8 68.32 104.84 68.3 104.8 C 68.5 104.4 68.7 104.1 69.1 103.9 C 69.5 103.6 70 103.5 70.4 103.5 C 70.5 103.5 70.7 103.5 70.8 103.5 C 70.9 103.5 71 103.5 71.1 103.5 C 71.1 103.5 71.1 104.8 71.1 104.8 C 71.1 104.8 71 104.7 70.8 104.7 C 70.7 104.7 70.5 104.7 70.3 104.7 C 69.9 104.7 69.6 104.8 69.3 104.9 C 69 105.1 68.7 105.3 68.5 105.6 C 68.4 105.9 68.3 106.2 68.3 106.6 C 68.27 106.6 68.3 111.8 68.3 111.8 L 67 111.8 Z M 77.8 108.4 C 77.76 108.44 77.8 103.6 77.8 103.6 L 79 103.6 L 79 111.8 L 77.8 111.8 L 77.8 110.4 C 77.8 110.4 77.68 110.4 77.7 110.4 C 77.5 110.8 77.2 111.2 76.8 111.5 C 76.4 111.7 75.9 111.9 75.3 111.9 C 74.7 111.9 74.3 111.8 73.9 111.6 C 73.5 111.3 73.2 111 72.9 110.5 C 72.7 110.1 72.6 109.5 72.6 108.8 C 72.61 108.8 72.6 103.6 72.6 103.6 L 73.9 103.6 C 73.9 103.6 73.87 108.71 73.9 108.7 C 73.9 109.3 74 109.8 74.4 110.1 C 74.7 110.5 75.1 110.7 75.7 110.7 C 76 110.7 76.3 110.6 76.6 110.4 C 76.9 110.3 77.2 110 77.4 109.7 C 77.7 109.4 77.8 108.9 77.8 108.4 Z M 87 105.4 C 87 105.4 85.9 105.8 85.9 105.8 C 85.8 105.6 85.7 105.4 85.6 105.2 C 85.5 105 85.3 104.9 85 104.8 C 84.8 104.6 84.5 104.6 84.1 104.6 C 83.6 104.6 83.2 104.7 82.9 104.9 C 82.5 105.2 82.4 105.4 82.4 105.8 C 82.4 106.1 82.5 106.4 82.7 106.5 C 83 106.7 83.3 106.9 83.8 107 C 83.8 107 85 107.3 85 107.3 C 85.7 107.5 86.3 107.7 86.6 108.1 C 87 108.5 87.2 108.9 87.2 109.5 C 87.2 110 87 110.4 86.8 110.8 C 86.5 111.1 86.1 111.4 85.7 111.6 C 85.2 111.8 84.6 112 84 112 C 83.1 112 82.5 111.8 81.9 111.4 C 81.4 111 81 110.5 80.9 109.8 C 80.9 109.8 82.1 109.5 82.1 109.5 C 82.2 110 82.4 110.3 82.7 110.5 C 83 110.7 83.4 110.8 84 110.8 C 84.5 110.8 85 110.7 85.4 110.5 C 85.7 110.2 85.9 109.9 85.9 109.6 C 85.9 109.3 85.8 109 85.6 108.8 C 85.4 108.7 85.1 108.5 84.7 108.4 C 84.7 108.4 83.3 108.1 83.3 108.1 C 82.5 107.9 82 107.6 81.7 107.3 C 81.3 106.9 81.1 106.4 81.1 105.9 C 81.1 105.4 81.3 105 81.5 104.6 C 81.8 104.3 82.1 104 82.6 103.8 C 83 103.6 83.6 103.5 84.1 103.5 C 84.9 103.5 85.6 103.7 86 104 C 86.5 104.4 86.8 104.9 87 105.4 Z M 92.6 103.6 L 92.6 104.7 L 88.3 104.7 L 88.3 103.6 L 92.6 103.6 Z M 89.6 101.6 L 90.8 101.6 C 90.8 101.6 90.83 109.44 90.8 109.4 C 90.8 109.8 90.9 110.1 91 110.2 C 91.1 110.4 91.2 110.5 91.4 110.6 C 91.6 110.6 91.7 110.7 91.9 110.7 C 92.1 110.7 92.2 110.7 92.3 110.6 C 92.3 110.6 92.4 110.6 92.5 110.6 C 92.5 110.6 92.7 111.7 92.7 111.7 C 92.6 111.8 92.5 111.8 92.4 111.8 C 92.2 111.9 92 111.9 91.8 111.9 C 91.4 111.9 91.1 111.8 90.7 111.7 C 90.4 111.5 90.1 111.3 89.9 111 C 89.7 110.6 89.6 110.3 89.6 109.8 C 89.57 109.78 89.6 101.6 89.6 101.6 Z M 97.5 112 C 96.7 112 96 111.8 95.4 111.4 C 94.9 111.1 94.4 110.6 94.1 110 C 93.8 109.3 93.7 108.6 93.7 107.8 C 93.7 106.9 93.8 106.2 94.1 105.5 C 94.4 104.9 94.9 104.4 95.4 104 C 96 103.7 96.6 103.5 97.4 103.5 C 97.8 103.5 98.2 103.6 98.6 103.7 C 99 103.8 99.4 104.1 99.8 104.4 C 100.1 104.7 100.4 105.1 100.6 105.7 C 100.8 106.2 100.9 106.8 100.9 107.6 C 100.87 107.58 100.9 108.1 100.9 108.1 L 94.6 108.1 L 94.6 107 C 94.6 107 99.6 107.03 99.6 107 C 99.6 106.6 99.5 106.2 99.3 105.8 C 99.1 105.4 98.9 105.1 98.5 104.9 C 98.2 104.7 97.8 104.6 97.4 104.6 C 96.9 104.6 96.4 104.7 96.1 105 C 95.7 105.2 95.4 105.6 95.2 106 C 95 106.3 94.9 106.8 94.9 107.2 C 94.9 107.2 94.9 107.9 94.9 107.9 C 94.9 108.6 95 109.1 95.3 109.5 C 95.5 109.9 95.8 110.3 96.1 110.5 C 96.5 110.7 97 110.8 97.5 110.8 C 97.8 110.8 98.1 110.8 98.4 110.7 C 98.7 110.6 98.9 110.4 99.1 110.3 C 99.3 110.1 99.4 109.8 99.5 109.5 C 99.5 109.5 100.7 109.9 100.7 109.9 C 100.6 110.3 100.4 110.7 100.1 111 C 99.8 111.3 99.4 111.5 99 111.7 C 98.5 111.9 98 112 97.5 112 Z M 105.9 112 C 105.2 112 104.6 111.8 104.1 111.4 C 103.5 111.1 103.1 110.6 102.8 110 C 102.5 109.3 102.4 108.6 102.4 107.7 C 102.4 106.9 102.5 106.1 102.8 105.5 C 103.1 104.8 103.5 104.4 104.1 104 C 104.6 103.7 105.2 103.5 105.9 103.5 C 106.4 103.5 106.8 103.6 107.2 103.8 C 107.5 103.9 107.7 104.1 107.9 104.4 C 108 104.6 108.2 104.8 108.3 104.9 C 108.25 104.9 108.4 104.9 108.4 104.9 L 108.4 100.9 L 109.6 100.9 L 109.6 111.8 L 108.4 111.8 L 108.4 110.5 C 108.4 110.5 108.25 110.52 108.3 110.5 C 108.2 110.7 108 110.9 107.9 111.1 C 107.7 111.3 107.4 111.5 107.1 111.7 C 106.8 111.9 106.4 112 105.9 112 Z M 106 110.8 C 106.5 110.8 107 110.7 107.3 110.4 C 107.7 110.2 107.9 109.8 108.1 109.3 C 108.3 108.9 108.4 108.3 108.4 107.7 C 108.4 107.1 108.3 106.5 108.1 106.1 C 107.9 105.6 107.7 105.3 107.3 105 C 107 104.8 106.5 104.6 106 104.6 C 105.5 104.6 105.1 104.8 104.7 105 C 104.4 105.3 104.1 105.7 103.9 106.1 C 103.7 106.6 103.6 107.1 103.6 107.7 C 103.6 108.3 103.7 108.8 103.9 109.3 C 104.1 109.7 104.4 110.1 104.7 110.4 C 105.1 110.7 105.5 110.8 106 110.8 Z M 112.9 111.9 C 112.6 111.9 112.4 111.8 112.2 111.6 C 112 111.4 111.9 111.2 111.9 110.9 C 111.9 110.6 112 110.4 112.2 110.2 C 112.4 110 112.6 109.9 112.9 109.9 C 113.2 109.9 113.4 110 113.6 110.2 C 113.8 110.4 113.9 110.6 113.9 110.9 C 113.9 111.1 113.8 111.2 113.7 111.4 C 113.6 111.5 113.5 111.6 113.4 111.7 C 113.2 111.8 113.1 111.9 112.9 111.9 Z " stroke="none" fill="#000"/>  </g>  <g id="Polygon116313">    <path d="M 6.9 86.2 C 6.9 86.2 5.8 86.6 5.8 86.6 C 5.7 86.4 5.6 86.2 5.5 86 C 5.4 85.8 5.2 85.7 4.9 85.6 C 4.7 85.4 4.4 85.4 4 85.4 C 3.5 85.4 3.1 85.5 2.8 85.7 C 2.5 86 2.3 86.2 2.3 86.6 C 2.3 86.9 2.4 87.2 2.6 87.3 C 2.9 87.5 3.2 87.7 3.7 87.8 C 3.7 87.8 4.9 88.1 4.9 88.1 C 5.7 88.3 6.2 88.5 6.6 88.9 C 6.9 89.3 7.1 89.7 7.1 90.3 C 7.1 90.8 7 91.2 6.7 91.6 C 6.4 91.9 6.1 92.2 5.6 92.4 C 5.1 92.6 4.5 92.8 3.9 92.8 C 3.1 92.8 2.4 92.6 1.8 92.2 C 1.3 91.8 0.9 91.3 0.8 90.6 C 0.8 90.6 2 90.3 2 90.3 C 2.1 90.8 2.3 91.1 2.6 91.3 C 2.9 91.5 3.4 91.6 3.9 91.6 C 4.5 91.6 4.9 91.5 5.3 91.3 C 5.6 91 5.8 90.7 5.8 90.4 C 5.8 90.1 5.7 89.8 5.5 89.6 C 5.3 89.5 5 89.3 4.6 89.2 C 4.6 89.2 3.2 88.9 3.2 88.9 C 2.5 88.7 1.9 88.4 1.6 88.1 C 1.2 87.7 1 87.2 1 86.7 C 1 86.2 1.2 85.8 1.4 85.4 C 1.7 85.1 2.1 84.8 2.5 84.6 C 3 84.4 3.5 84.3 4 84.3 C 4.9 84.3 5.5 84.5 6 84.8 C 6.4 85.2 6.8 85.7 6.9 86.2 Z M 8.9 92.6 L 8.9 84.4 L 10.2 84.4 L 10.2 92.6 L 8.9 92.6 Z M 9.6 83 C 9.3 83 9.1 83 8.9 82.8 C 8.8 82.6 8.7 82.4 8.7 82.2 C 8.7 81.9 8.8 81.7 8.9 81.6 C 9.1 81.4 9.3 81.3 9.6 81.3 C 9.8 81.3 10 81.4 10.2 81.6 C 10.4 81.7 10.5 81.9 10.5 82.2 C 10.5 82.4 10.4 82.6 10.2 82.8 C 10 83 9.8 83 9.6 83 Z M 13.7 81.7 L 13.7 92.6 L 12.5 92.6 L 12.5 81.7 L 13.7 81.7 Z M 19.4 92.8 C 18.6 92.8 18 92.6 17.4 92.2 C 16.9 91.9 16.5 91.4 16.1 90.7 C 15.8 90.1 15.7 89.4 15.7 88.5 C 15.7 87.7 15.8 86.9 16.1 86.3 C 16.5 85.7 16.9 85.2 17.4 84.8 C 18 84.5 18.6 84.3 19.4 84.3 C 20.1 84.3 20.8 84.5 21.3 84.8 C 21.9 85.2 22.3 85.7 22.6 86.3 C 22.9 86.9 23.1 87.7 23.1 88.5 C 23.1 89.4 22.9 90.1 22.6 90.7 C 22.3 91.4 21.9 91.9 21.3 92.2 C 20.8 92.6 20.1 92.8 19.4 92.8 Z M 19.4 91.6 C 19.9 91.6 20.4 91.5 20.8 91.2 C 21.1 90.9 21.4 90.5 21.6 90.1 C 21.7 89.6 21.8 89.1 21.8 88.5 C 21.8 88 21.7 87.5 21.6 87 C 21.4 86.5 21.1 86.2 20.8 85.9 C 20.4 85.6 19.9 85.4 19.4 85.4 C 18.8 85.4 18.4 85.6 18 85.9 C 17.6 86.2 17.4 86.5 17.2 87 C 17 87.5 16.9 88 16.9 88.5 C 16.9 89.1 17 89.6 17.2 90.1 C 17.4 90.5 17.6 90.9 18 91.2 C 18.4 91.5 18.8 91.6 19.4 91.6 Z M 28.4 92.8 C 27.6 92.8 27 92.6 26.4 92.2 C 25.8 91.9 25.4 91.4 25.1 90.8 C 24.8 90.1 24.6 89.4 24.6 88.6 C 24.6 87.7 24.8 87 25.1 86.3 C 25.4 85.7 25.8 85.2 26.4 84.8 C 26.9 84.5 27.6 84.3 28.3 84.3 C 28.7 84.3 29.1 84.4 29.6 84.5 C 30 84.6 30.3 84.9 30.7 85.2 C 31 85.5 31.3 85.9 31.5 86.5 C 31.7 87 31.8 87.6 31.8 88.4 C 31.81 88.38 31.8 88.9 31.8 88.9 L 25.5 88.9 L 25.5 87.8 C 25.5 87.8 30.53 87.83 30.5 87.8 C 30.5 87.4 30.4 87 30.3 86.6 C 30.1 86.2 29.8 85.9 29.5 85.7 C 29.1 85.5 28.7 85.4 28.3 85.4 C 27.8 85.4 27.4 85.5 27 85.8 C 26.6 86 26.4 86.4 26.2 86.8 C 26 87.1 25.9 87.6 25.9 88 C 25.9 88 25.9 88.7 25.9 88.7 C 25.9 89.4 26 89.9 26.2 90.3 C 26.4 90.7 26.7 91.1 27.1 91.3 C 27.5 91.5 27.9 91.6 28.4 91.6 C 28.8 91.6 29.1 91.6 29.3 91.5 C 29.6 91.4 29.8 91.2 30 91.1 C 30.2 90.9 30.4 90.6 30.5 90.3 C 30.5 90.3 31.7 90.7 31.7 90.7 C 31.6 91.1 31.3 91.5 31 91.8 C 30.7 92.1 30.4 92.3 29.9 92.5 C 29.5 92.7 29 92.8 28.4 92.8 Z M 36.8 92.8 C 36.1 92.8 35.5 92.6 35 92.2 C 34.5 91.9 34.1 91.4 33.8 90.8 C 33.5 90.1 33.3 89.4 33.3 88.5 C 33.3 87.7 33.5 86.9 33.8 86.3 C 34.1 85.6 34.5 85.2 35 84.8 C 35.5 84.5 36.1 84.3 36.8 84.3 C 37.4 84.3 37.8 84.4 38.1 84.6 C 38.4 84.7 38.6 84.9 38.8 85.2 C 39 85.4 39.1 85.6 39.2 85.7 C 39.19 85.7 39.3 85.7 39.3 85.7 L 39.3 81.7 L 40.6 81.7 L 40.6 92.6 L 39.3 92.6 L 39.3 91.3 C 39.3 91.3 39.19 91.32 39.2 91.3 C 39.1 91.5 39 91.7 38.8 91.9 C 38.6 92.1 38.4 92.3 38.1 92.5 C 37.7 92.7 37.3 92.8 36.8 92.8 Z M 37 91.6 C 37.5 91.6 37.9 91.5 38.2 91.2 C 38.6 91 38.9 90.6 39 90.1 C 39.2 89.7 39.3 89.1 39.3 88.5 C 39.3 87.9 39.2 87.3 39 86.9 C 38.9 86.4 38.6 86.1 38.3 85.8 C 37.9 85.6 37.5 85.4 37 85.4 C 36.4 85.4 36 85.6 35.6 85.8 C 35.3 86.1 35 86.5 34.8 86.9 C 34.7 87.4 34.6 87.9 34.6 88.5 C 34.6 89.1 34.7 89.6 34.9 90.1 C 35 90.5 35.3 90.9 35.7 91.2 C 36 91.5 36.4 91.6 37 91.6 Z M 47.2 92.6 L 47.2 84.4 L 48.5 84.4 L 48.5 92.6 L 47.2 92.6 Z M 47.9 83 C 47.6 83 47.4 83 47.2 82.8 C 47.1 82.6 47 82.4 47 82.2 C 47 81.9 47.1 81.7 47.2 81.6 C 47.4 81.4 47.6 81.3 47.9 81.3 C 48.1 81.3 48.3 81.4 48.5 81.6 C 48.7 81.7 48.8 81.9 48.8 82.2 C 48.8 82.4 48.7 82.6 48.5 82.8 C 48.3 83 48.1 83 47.9 83 Z M 52.1 87.7 C 52.07 87.66 52.1 92.6 52.1 92.6 L 50.8 92.6 L 50.8 84.4 L 52 84.4 L 52 85.7 C 52 85.7 52.13 85.68 52.1 85.7 C 52.3 85.3 52.6 84.9 53 84.7 C 53.4 84.4 53.9 84.3 54.5 84.3 C 55.1 84.3 55.6 84.4 56 84.6 C 56.4 84.9 56.7 85.2 56.9 85.7 C 57.2 86.1 57.3 86.7 57.3 87.4 C 57.29 87.38 57.3 92.6 57.3 92.6 L 56 92.6 C 56 92.6 56.03 87.47 56 87.5 C 56 86.8 55.9 86.3 55.5 86 C 55.2 85.6 54.7 85.4 54.2 85.4 C 53.8 85.4 53.4 85.5 53.1 85.7 C 52.8 85.9 52.5 86.1 52.3 86.4 C 52.2 86.8 52.1 87.2 52.1 87.7 Z M 65.3 86.2 C 65.3 86.2 64.1 86.6 64.1 86.6 C 64.1 86.4 64 86.2 63.8 86 C 63.7 85.8 63.5 85.7 63.3 85.6 C 63 85.4 62.7 85.4 62.4 85.4 C 61.9 85.4 61.4 85.5 61.1 85.7 C 60.8 86 60.6 86.2 60.6 86.6 C 60.6 86.9 60.7 87.2 61 87.3 C 61.2 87.5 61.5 87.7 62 87.8 C 62 87.8 63.2 88.1 63.2 88.1 C 64 88.3 64.5 88.5 64.9 88.9 C 65.2 89.3 65.4 89.7 65.4 90.3 C 65.4 90.8 65.3 91.2 65 91.6 C 64.7 91.9 64.4 92.2 63.9 92.4 C 63.4 92.6 62.9 92.8 62.2 92.8 C 61.4 92.8 60.7 92.6 60.1 92.2 C 59.6 91.8 59.2 91.3 59.1 90.6 C 59.1 90.6 60.3 90.3 60.3 90.3 C 60.4 90.8 60.6 91.1 60.9 91.3 C 61.3 91.5 61.7 91.6 62.2 91.6 C 62.8 91.6 63.2 91.5 63.6 91.3 C 63.9 91 64.1 90.7 64.1 90.4 C 64.1 90.1 64 89.8 63.8 89.6 C 63.6 89.5 63.3 89.3 62.9 89.2 C 62.9 89.2 61.5 88.9 61.5 88.9 C 60.8 88.7 60.2 88.4 59.9 88.1 C 59.5 87.7 59.4 87.2 59.4 86.7 C 59.4 86.2 59.5 85.8 59.8 85.4 C 60 85.1 60.4 84.8 60.8 84.6 C 61.3 84.4 61.8 84.3 62.4 84.3 C 63.2 84.3 63.8 84.5 64.3 84.8 C 64.7 85.2 65.1 85.7 65.3 86.2 Z M 67.2 92.6 L 67.2 84.4 L 68.5 84.4 L 68.5 92.6 L 67.2 92.6 Z M 67.9 83 C 67.6 83 67.4 83 67.3 82.8 C 67.1 82.6 67 82.4 67 82.2 C 67 81.9 67.1 81.7 67.3 81.6 C 67.4 81.4 67.6 81.3 67.9 81.3 C 68.1 81.3 68.3 81.4 68.5 81.6 C 68.7 81.7 68.8 81.9 68.8 82.2 C 68.8 82.4 68.7 82.6 68.5 82.8 C 68.3 83 68.1 83 67.9 83 Z M 74.1 95.8 C 73.5 95.8 72.9 95.7 72.5 95.6 C 72.1 95.4 71.7 95.2 71.4 95 C 71.1 94.7 70.9 94.5 70.7 94.2 C 70.7 94.2 71.7 93.5 71.7 93.5 C 71.8 93.6 72 93.8 72.2 94 C 72.3 94.2 72.6 94.4 72.9 94.5 C 73.2 94.6 73.6 94.7 74.1 94.7 C 74.7 94.7 75.3 94.6 75.7 94.2 C 76.1 93.9 76.3 93.4 76.3 92.7 C 76.34 92.73 76.3 91.1 76.3 91.1 C 76.3 91.1 76.24 91.07 76.2 91.1 C 76.1 91.2 76 91.4 75.8 91.6 C 75.7 91.8 75.4 92 75.1 92.2 C 74.8 92.4 74.4 92.5 73.9 92.5 C 73.2 92.5 72.6 92.3 72.1 92 C 71.6 91.7 71.1 91.2 70.8 90.6 C 70.5 90 70.4 89.3 70.4 88.4 C 70.4 87.6 70.5 86.9 70.8 86.3 C 71.1 85.6 71.5 85.2 72.1 84.8 C 72.6 84.5 73.2 84.3 73.9 84.3 C 74.4 84.3 74.8 84.4 75.1 84.6 C 75.5 84.7 75.7 84.9 75.9 85.2 C 76 85.4 76.2 85.6 76.3 85.7 C 76.26 85.7 76.4 85.7 76.4 85.7 L 76.4 84.4 L 77.6 84.4 C 77.6 84.4 77.6 92.82 77.6 92.8 C 77.6 93.5 77.4 94.1 77.1 94.5 C 76.8 95 76.4 95.3 75.8 95.5 C 75.3 95.7 74.7 95.8 74.1 95.8 Z M 74 91.3 C 74.5 91.3 75 91.2 75.3 91 C 75.6 90.7 75.9 90.4 76.1 90 C 76.3 89.5 76.4 89 76.4 88.4 C 76.4 87.8 76.3 87.3 76.1 86.9 C 75.9 86.4 75.7 86.1 75.3 85.8 C 75 85.6 74.5 85.4 74 85.4 C 73.5 85.4 73 85.6 72.7 85.8 C 72.3 86.1 72.1 86.5 71.9 86.9 C 71.7 87.4 71.6 87.9 71.6 88.4 C 71.6 89 71.7 89.5 71.9 89.9 C 72.1 90.4 72.4 90.7 72.7 91 C 73.1 91.2 73.5 91.3 74 91.3 Z M 81.2 87.7 C 81.16 87.66 81.2 92.6 81.2 92.6 L 79.9 92.6 L 79.9 81.7 L 81.2 81.7 L 81.2 85.7 C 81.2 85.7 81.27 85.68 81.3 85.7 C 81.5 85.3 81.7 84.9 82.1 84.7 C 82.5 84.4 83 84.3 83.7 84.3 C 84.2 84.3 84.7 84.4 85.1 84.6 C 85.6 84.8 85.9 85.2 86.1 85.6 C 86.3 86.1 86.5 86.7 86.5 87.4 C 86.47 87.38 86.5 92.6 86.5 92.6 L 85.2 92.6 C 85.2 92.6 85.21 87.47 85.2 87.5 C 85.2 86.8 85 86.3 84.7 86 C 84.4 85.6 83.9 85.4 83.3 85.4 C 82.9 85.4 82.5 85.5 82.2 85.7 C 81.9 85.9 81.6 86.1 81.4 86.4 C 81.3 86.8 81.2 87.2 81.2 87.7 Z M 92.1 84.4 L 92.1 85.5 L 87.9 85.5 L 87.9 84.4 L 92.1 84.4 Z M 89.1 82.4 L 90.4 82.4 C 90.4 82.4 90.35 90.24 90.4 90.2 C 90.4 90.6 90.4 90.9 90.5 91 C 90.6 91.2 90.8 91.3 90.9 91.4 C 91.1 91.4 91.3 91.5 91.4 91.5 C 91.6 91.5 91.7 91.5 91.8 91.4 C 91.9 91.4 91.9 91.4 92 91.4 C 92 91.4 92.2 92.5 92.2 92.5 C 92.2 92.6 92 92.6 91.9 92.6 C 91.7 92.7 91.5 92.7 91.3 92.7 C 91 92.7 90.6 92.6 90.3 92.5 C 89.9 92.3 89.7 92.1 89.4 91.8 C 89.2 91.4 89.1 91.1 89.1 90.6 C 89.1 90.58 89.1 82.4 89.1 82.4 Z M 99.6 86.2 C 99.6 86.2 98.5 86.6 98.5 86.6 C 98.4 86.4 98.3 86.2 98.2 86 C 98.1 85.8 97.9 85.7 97.6 85.6 C 97.4 85.4 97.1 85.4 96.7 85.4 C 96.2 85.4 95.8 85.5 95.5 85.7 C 95.2 86 95 86.2 95 86.6 C 95 86.9 95.1 87.2 95.3 87.3 C 95.6 87.5 95.9 87.7 96.4 87.8 C 96.4 87.8 97.6 88.1 97.6 88.1 C 98.3 88.3 98.9 88.5 99.3 88.9 C 99.6 89.3 99.8 89.7 99.8 90.3 C 99.8 90.8 99.7 91.2 99.4 91.6 C 99.1 91.9 98.7 92.2 98.3 92.4 C 97.8 92.6 97.2 92.8 96.6 92.8 C 95.8 92.8 95.1 92.6 94.5 92.2 C 94 91.8 93.6 91.3 93.5 90.6 C 93.5 90.6 94.7 90.3 94.7 90.3 C 94.8 90.8 95 91.1 95.3 91.3 C 95.6 91.5 96.1 91.6 96.6 91.6 C 97.2 91.6 97.6 91.5 98 91.3 C 98.3 91 98.5 90.7 98.5 90.4 C 98.5 90.1 98.4 89.8 98.2 89.6 C 98 89.5 97.7 89.3 97.3 89.2 C 97.3 89.2 95.9 88.9 95.9 88.9 C 95.2 88.7 94.6 88.4 94.3 88.1 C 93.9 87.7 93.7 87.2 93.7 86.7 C 93.7 86.2 93.9 85.8 94.1 85.4 C 94.4 85.1 94.7 84.8 95.2 84.6 C 95.7 84.4 96.2 84.3 96.7 84.3 C 97.6 84.3 98.2 84.5 98.7 84.8 C 99.1 85.2 99.4 85.7 99.6 86.2 Z M 109.5 84.4 L 109.5 85.5 L 105.2 85.5 L 105.2 84.4 L 109.5 84.4 Z M 106.5 82.4 L 107.7 82.4 C 107.7 82.4 107.71 90.24 107.7 90.2 C 107.7 90.6 107.8 90.9 107.9 91 C 108 91.2 108.1 91.3 108.3 91.4 C 108.4 91.4 108.6 91.5 108.8 91.5 C 108.9 91.5 109.1 91.5 109.1 91.4 C 109.2 91.4 109.3 91.4 109.4 91.4 C 109.4 91.4 109.6 92.5 109.6 92.5 C 109.5 92.6 109.4 92.6 109.3 92.6 C 109.1 92.7 108.9 92.7 108.7 92.7 C 108.3 92.7 108 92.6 107.6 92.5 C 107.3 92.3 107 92.1 106.8 91.8 C 106.6 91.4 106.5 91.1 106.5 90.6 C 106.46 90.58 106.5 82.4 106.5 82.4 Z M 112.5 87.7 C 112.49 87.66 112.5 92.6 112.5 92.6 L 111.2 92.6 L 111.2 81.7 L 112.5 81.7 L 112.5 85.7 C 112.5 85.7 112.6 85.68 112.6 85.7 C 112.8 85.3 113.1 84.9 113.5 84.7 C 113.8 84.4 114.4 84.3 115 84.3 C 115.6 84.3 116.1 84.4 116.5 84.6 C 116.9 84.8 117.2 85.2 117.4 85.6 C 117.7 86.1 117.8 86.7 117.8 87.4 C 117.8 87.38 117.8 92.6 117.8 92.6 L 116.5 92.6 C 116.5 92.6 116.54 87.47 116.5 87.5 C 116.5 86.8 116.4 86.3 116 86 C 115.7 85.6 115.2 85.4 114.6 85.4 C 114.2 85.4 113.9 85.5 113.5 85.7 C 113.2 85.9 113 86.1 112.8 86.4 C 112.6 86.8 112.5 87.2 112.5 87.7 Z M 122.4 92.8 C 121.9 92.8 121.4 92.7 121 92.5 C 120.6 92.3 120.3 92 120 91.6 C 119.8 91.2 119.6 90.8 119.6 90.3 C 119.6 89.8 119.7 89.4 119.9 89.1 C 120.1 88.8 120.3 88.6 120.7 88.4 C 121 88.3 121.3 88.1 121.7 88.1 C 122.1 88 122.4 87.9 122.8 87.9 C 123.3 87.8 123.7 87.7 124 87.7 C 124.3 87.7 124.6 87.6 124.7 87.5 C 124.8 87.5 124.9 87.3 124.9 87.1 C 124.9 87.1 124.9 87.1 124.9 87.1 C 124.9 86.5 124.8 86.1 124.5 85.8 C 124.2 85.5 123.8 85.4 123.2 85.4 C 122.6 85.4 122.1 85.5 121.8 85.8 C 121.4 86.1 121.2 86.3 121.1 86.6 C 121.1 86.6 119.9 86.2 119.9 86.2 C 120.1 85.7 120.4 85.3 120.7 85 C 121.1 84.8 121.5 84.6 121.9 84.5 C 122.3 84.3 122.7 84.3 123.1 84.3 C 123.4 84.3 123.7 84.3 124.1 84.4 C 124.4 84.4 124.7 84.6 125.1 84.8 C 125.4 85 125.6 85.2 125.9 85.6 C 126.1 86 126.2 86.5 126.2 87.2 C 126.18 87.19 126.2 92.6 126.2 92.6 L 124.9 92.6 L 124.9 91.5 C 124.9 91.5 124.85 91.47 124.9 91.5 C 124.8 91.7 124.6 91.8 124.4 92 C 124.2 92.2 124 92.4 123.6 92.6 C 123.3 92.7 122.9 92.8 122.4 92.8 Z M 122.6 91.6 C 123.1 91.6 123.5 91.5 123.9 91.4 C 124.2 91.2 124.5 90.9 124.7 90.6 C 124.8 90.3 124.9 90 124.9 89.6 C 124.9 89.6 124.9 88.5 124.9 88.5 C 124.9 88.5 124.7 88.6 124.6 88.6 C 124.4 88.7 124.2 88.7 124 88.8 C 123.7 88.8 123.5 88.8 123.3 88.9 C 123.1 88.9 122.9 88.9 122.7 88.9 C 122.4 89 122.1 89 121.8 89.1 C 121.5 89.2 121.3 89.4 121.1 89.6 C 121 89.8 120.9 90 120.9 90.3 C 120.9 90.8 121.1 91.1 121.4 91.3 C 121.7 91.5 122.1 91.6 122.6 91.6 Z M 131.8 84.4 L 131.8 85.5 L 127.6 85.5 L 127.6 84.4 L 131.8 84.4 Z M 128.8 82.4 L 130.1 82.4 C 130.1 82.4 130.08 90.24 130.1 90.2 C 130.1 90.6 130.1 90.9 130.2 91 C 130.3 91.2 130.5 91.3 130.6 91.4 C 130.8 91.4 131 91.5 131.2 91.5 C 131.3 91.5 131.4 91.5 131.5 91.4 C 131.6 91.4 131.7 91.4 131.7 91.4 C 131.7 91.4 132 92.5 132 92.5 C 131.9 92.6 131.8 92.6 131.6 92.6 C 131.5 92.7 131.3 92.7 131 92.7 C 130.7 92.7 130.3 92.6 130 92.5 C 129.7 92.3 129.4 92.1 129.2 91.8 C 128.9 91.4 128.8 91.1 128.8 90.6 C 128.82 90.58 128.8 82.4 128.8 82.4 Z " stroke="none" fill="#000"/>  </g>  <g id="Polygon116312">    <path d="M 7.3 65.2 C 7.2 64.7 7 64.2 6.5 63.9 C 6.1 63.6 5.5 63.5 4.8 63.5 C 4.4 63.5 3.9 63.6 3.6 63.7 C 3.2 63.9 2.9 64.1 2.7 64.4 C 2.5 64.6 2.4 65 2.4 65.3 C 2.4 65.6 2.5 65.8 2.6 66.1 C 2.8 66.3 3 66.4 3.2 66.6 C 3.4 66.7 3.6 66.8 3.9 66.9 C 4.1 67 4.3 67.1 4.5 67.1 C 4.5 67.1 5.6 67.4 5.6 67.4 C 5.9 67.5 6.2 67.6 6.6 67.7 C 6.9 67.9 7.3 68 7.6 68.3 C 7.9 68.5 8.2 68.8 8.4 69.1 C 8.6 69.5 8.7 69.9 8.7 70.4 C 8.7 71 8.6 71.5 8.3 72 C 7.9 72.5 7.5 72.9 6.9 73.2 C 6.3 73.4 5.6 73.6 4.8 73.6 C 4 73.6 3.3 73.4 2.7 73.2 C 2.2 72.9 1.7 72.6 1.4 72.1 C 1.1 71.7 0.9 71.2 0.9 70.6 C 0.9 70.6 2.2 70.6 2.2 70.6 C 2.3 71 2.4 71.3 2.6 71.6 C 2.9 71.9 3.2 72.1 3.6 72.2 C 3.9 72.3 4.3 72.4 4.8 72.4 C 5.3 72.4 5.7 72.3 6.1 72.1 C 6.5 72 6.9 71.7 7.1 71.4 C 7.3 71.1 7.4 70.8 7.4 70.4 C 7.4 70 7.3 69.7 7.1 69.5 C 6.9 69.3 6.7 69.1 6.3 69 C 6 68.8 5.6 68.7 5.3 68.6 C 5.3 68.6 3.9 68.2 3.9 68.2 C 3.1 68 2.4 67.6 1.9 67.2 C 1.4 66.7 1.2 66.1 1.2 65.4 C 1.2 64.8 1.3 64.2 1.6 63.8 C 2 63.3 2.4 63 3 62.7 C 3.6 62.5 4.2 62.3 4.9 62.3 C 5.6 62.3 6.2 62.4 6.8 62.7 C 7.3 62.9 7.7 63.3 8.1 63.7 C 8.4 64.2 8.5 64.6 8.6 65.2 C 8.6 65.2 7.3 65.2 7.3 65.2 Z M 10.7 73.4 L 10.7 65.2 L 12 65.2 L 12 73.4 L 10.7 73.4 Z M 11.4 63.8 C 11.1 63.8 10.9 63.8 10.7 63.6 C 10.5 63.4 10.5 63.2 10.5 63 C 10.5 62.7 10.5 62.5 10.7 62.4 C 10.9 62.2 11.1 62.1 11.4 62.1 C 11.6 62.1 11.8 62.2 12 62.4 C 12.2 62.5 12.2 62.7 12.2 63 C 12.2 63.2 12.2 63.4 12 63.6 C 11.8 63.8 11.6 63.8 11.4 63.8 Z M 15.5 62.5 L 15.5 73.4 L 14.3 73.4 L 14.3 62.5 L 15.5 62.5 Z M 21.2 73.6 C 20.4 73.6 19.8 73.4 19.2 73 C 18.7 72.7 18.2 72.2 17.9 71.5 C 17.6 70.9 17.5 70.2 17.5 69.3 C 17.5 68.5 17.6 67.7 17.9 67.1 C 18.2 66.5 18.7 66 19.2 65.6 C 19.8 65.3 20.4 65.1 21.2 65.1 C 21.9 65.1 22.6 65.3 23.1 65.6 C 23.7 66 24.1 66.5 24.4 67.1 C 24.7 67.7 24.9 68.5 24.9 69.3 C 24.9 70.2 24.7 70.9 24.4 71.5 C 24.1 72.2 23.7 72.7 23.1 73 C 22.6 73.4 21.9 73.6 21.2 73.6 Z M 21.2 72.4 C 21.7 72.4 22.2 72.3 22.6 72 C 22.9 71.7 23.2 71.3 23.4 70.9 C 23.5 70.4 23.6 69.9 23.6 69.3 C 23.6 68.8 23.5 68.3 23.4 67.8 C 23.2 67.3 22.9 67 22.6 66.7 C 22.2 66.4 21.7 66.2 21.2 66.2 C 20.6 66.2 20.1 66.4 19.8 66.7 C 19.4 67 19.2 67.3 19 67.8 C 18.8 68.3 18.7 68.8 18.7 69.3 C 18.7 69.9 18.8 70.4 19 70.9 C 19.2 71.3 19.4 71.7 19.8 72 C 20.1 72.3 20.6 72.4 21.2 72.4 Z M 30.2 73.6 C 29.4 73.6 28.7 73.4 28.2 73 C 27.6 72.7 27.2 72.2 26.9 71.6 C 26.5 70.9 26.4 70.2 26.4 69.4 C 26.4 68.5 26.5 67.8 26.9 67.1 C 27.2 66.5 27.6 66 28.1 65.6 C 28.7 65.3 29.3 65.1 30.1 65.1 C 30.5 65.1 30.9 65.2 31.3 65.3 C 31.8 65.4 32.1 65.7 32.5 66 C 32.8 66.3 33.1 66.7 33.3 67.3 C 33.5 67.8 33.6 68.4 33.6 69.2 C 33.59 69.18 33.6 69.7 33.6 69.7 L 27.3 69.7 L 27.3 68.6 C 27.3 68.6 32.31 68.63 32.3 68.6 C 32.3 68.2 32.2 67.8 32 67.4 C 31.9 67 31.6 66.7 31.3 66.5 C 30.9 66.3 30.5 66.2 30.1 66.2 C 29.6 66.2 29.1 66.3 28.8 66.6 C 28.4 66.8 28.1 67.2 27.9 67.6 C 27.7 67.9 27.6 68.4 27.6 68.8 C 27.6 68.8 27.6 69.5 27.6 69.5 C 27.6 70.2 27.8 70.7 28 71.1 C 28.2 71.5 28.5 71.9 28.9 72.1 C 29.3 72.3 29.7 72.4 30.2 72.4 C 30.5 72.4 30.8 72.4 31.1 72.3 C 31.4 72.2 31.6 72 31.8 71.9 C 32 71.7 32.1 71.4 32.3 71.1 C 32.3 71.1 33.5 71.5 33.5 71.5 C 33.3 71.9 33.1 72.3 32.8 72.6 C 32.5 72.9 32.1 73.1 31.7 73.3 C 31.3 73.5 30.8 73.6 30.2 73.6 Z M 38.6 73.6 C 37.9 73.6 37.3 73.4 36.8 73 C 36.3 72.7 35.8 72.2 35.6 71.6 C 35.3 70.9 35.1 70.2 35.1 69.3 C 35.1 68.5 35.3 67.7 35.6 67.1 C 35.8 66.4 36.3 66 36.8 65.6 C 37.3 65.3 37.9 65.1 38.6 65.1 C 39.1 65.1 39.6 65.2 39.9 65.4 C 40.2 65.5 40.4 65.7 40.6 66 C 40.8 66.2 40.9 66.4 41 66.5 C 40.97 66.5 41.1 66.5 41.1 66.5 L 41.1 62.5 L 42.3 62.5 L 42.3 73.4 L 41.1 73.4 L 41.1 72.1 C 41.1 72.1 40.97 72.12 41 72.1 C 40.9 72.3 40.7 72.5 40.6 72.7 C 40.4 72.9 40.2 73.1 39.8 73.3 C 39.5 73.5 39.1 73.6 38.6 73.6 Z M 38.8 72.4 C 39.3 72.4 39.7 72.3 40 72 C 40.4 71.8 40.6 71.4 40.8 70.9 C 41 70.5 41.1 69.9 41.1 69.3 C 41.1 68.7 41 68.1 40.8 67.7 C 40.7 67.2 40.4 66.9 40 66.6 C 39.7 66.4 39.3 66.2 38.8 66.2 C 38.2 66.2 37.8 66.4 37.4 66.6 C 37.1 66.9 36.8 67.3 36.6 67.7 C 36.5 68.2 36.4 68.7 36.4 69.3 C 36.4 69.9 36.5 70.4 36.6 70.9 C 36.8 71.3 37.1 71.7 37.4 72 C 37.8 72.3 38.2 72.4 38.8 72.4 Z M 52.1 73.6 C 51.4 73.6 50.8 73.4 50.3 73 C 49.8 72.7 49.4 72.2 49.1 71.6 C 48.8 70.9 48.6 70.2 48.6 69.3 C 48.6 68.5 48.8 67.7 49.1 67.1 C 49.4 66.4 49.8 66 50.3 65.6 C 50.8 65.3 51.4 65.1 52.1 65.1 C 52.7 65.1 53.1 65.2 53.4 65.4 C 53.7 65.5 53.9 65.7 54.1 66 C 54.3 66.2 54.4 66.4 54.5 66.5 C 54.5 66.5 54.6 66.5 54.6 66.5 L 54.6 62.5 L 55.9 62.5 L 55.9 73.4 L 54.7 73.4 L 54.7 72.1 C 54.7 72.1 54.5 72.12 54.5 72.1 C 54.4 72.3 54.3 72.5 54.1 72.7 C 53.9 72.9 53.7 73.1 53.4 73.3 C 53.1 73.5 52.6 73.6 52.1 73.6 Z M 52.3 72.4 C 52.8 72.4 53.2 72.3 53.6 72 C 53.9 71.8 54.2 71.4 54.4 70.9 C 54.5 70.5 54.6 69.9 54.6 69.3 C 54.6 68.7 54.5 68.1 54.4 67.7 C 54.2 67.2 53.9 66.9 53.6 66.6 C 53.2 66.4 52.8 66.2 52.3 66.2 C 51.8 66.2 51.3 66.4 51 66.6 C 50.6 66.9 50.3 67.3 50.2 67.7 C 50 68.2 49.9 68.7 49.9 69.3 C 49.9 69.9 50 70.4 50.2 70.9 C 50.3 71.3 50.6 71.7 51 72 C 51.3 72.3 51.8 72.4 52.3 72.4 Z M 60.6 73.6 C 60.1 73.6 59.6 73.5 59.2 73.3 C 58.8 73.1 58.5 72.8 58.2 72.4 C 58 72 57.8 71.6 57.8 71.1 C 57.8 70.6 57.9 70.2 58.1 69.9 C 58.3 69.6 58.5 69.4 58.9 69.2 C 59.2 69.1 59.5 68.9 59.9 68.9 C 60.3 68.8 60.6 68.7 61 68.7 C 61.5 68.6 61.9 68.5 62.2 68.5 C 62.5 68.5 62.8 68.4 62.9 68.3 C 63 68.3 63.1 68.1 63.1 67.9 C 63.1 67.9 63.1 67.9 63.1 67.9 C 63.1 67.3 63 66.9 62.7 66.6 C 62.4 66.3 62 66.2 61.4 66.2 C 60.8 66.2 60.3 66.3 60 66.6 C 59.6 66.9 59.4 67.1 59.3 67.4 C 59.3 67.4 58.1 67 58.1 67 C 58.3 66.5 58.6 66.1 58.9 65.8 C 59.3 65.6 59.7 65.4 60.1 65.3 C 60.5 65.1 60.9 65.1 61.4 65.1 C 61.6 65.1 61.9 65.1 62.3 65.2 C 62.6 65.2 62.9 65.4 63.3 65.6 C 63.6 65.8 63.8 66 64.1 66.4 C 64.3 66.8 64.4 67.3 64.4 68 C 64.38 67.99 64.4 73.4 64.4 73.4 L 63.1 73.4 L 63.1 72.3 C 63.1 72.3 63.06 72.27 63.1 72.3 C 63 72.5 62.8 72.6 62.6 72.8 C 62.4 73 62.2 73.2 61.8 73.4 C 61.5 73.5 61.1 73.6 60.6 73.6 Z M 60.8 72.4 C 61.3 72.4 61.7 72.3 62.1 72.2 C 62.4 72 62.7 71.7 62.9 71.4 C 63 71.1 63.1 70.8 63.1 70.4 C 63.1 70.4 63.1 69.3 63.1 69.3 C 63.1 69.3 63 69.4 62.8 69.4 C 62.6 69.5 62.4 69.5 62.2 69.6 C 61.9 69.6 61.7 69.6 61.5 69.7 C 61.3 69.7 61.1 69.7 60.9 69.7 C 60.6 69.8 60.3 69.8 60 69.9 C 59.8 70 59.5 70.2 59.4 70.4 C 59.2 70.6 59.1 70.8 59.1 71.1 C 59.1 71.6 59.3 71.9 59.6 72.1 C 59.9 72.3 60.3 72.4 60.8 72.4 Z M 70 65.2 L 70 66.3 L 65.8 66.3 L 65.8 65.2 L 70 65.2 Z M 67 63.2 L 68.3 63.2 C 68.3 63.2 68.28 71.04 68.3 71 C 68.3 71.4 68.3 71.7 68.4 71.8 C 68.5 72 68.7 72.1 68.8 72.2 C 69 72.2 69.2 72.3 69.4 72.3 C 69.5 72.3 69.6 72.3 69.7 72.2 C 69.8 72.2 69.9 72.2 69.9 72.2 C 69.9 72.2 70.2 73.3 70.2 73.3 C 70.1 73.4 70 73.4 69.8 73.4 C 69.7 73.5 69.5 73.5 69.2 73.5 C 68.9 73.5 68.5 73.4 68.2 73.3 C 67.9 73.1 67.6 72.9 67.4 72.6 C 67.1 72.2 67 71.9 67 71.4 C 67.02 71.38 67 63.2 67 63.2 Z M 74.2 73.6 C 73.7 73.6 73.2 73.5 72.8 73.3 C 72.4 73.1 72 72.8 71.8 72.4 C 71.5 72 71.4 71.6 71.4 71.1 C 71.4 70.6 71.5 70.2 71.7 69.9 C 71.9 69.6 72.1 69.4 72.4 69.2 C 72.7 69.1 73.1 68.9 73.5 68.9 C 73.8 68.8 74.2 68.7 74.6 68.7 C 75.1 68.6 75.5 68.5 75.8 68.5 C 76.1 68.5 76.3 68.4 76.5 68.3 C 76.6 68.3 76.7 68.1 76.7 67.9 C 76.7 67.9 76.7 67.9 76.7 67.9 C 76.7 67.3 76.6 66.9 76.3 66.6 C 76 66.3 75.5 66.2 75 66.2 C 74.4 66.2 73.9 66.3 73.6 66.6 C 73.2 66.9 73 67.1 72.8 67.4 C 72.8 67.4 71.6 67 71.6 67 C 71.9 66.5 72.1 66.1 72.5 65.8 C 72.9 65.6 73.2 65.4 73.7 65.3 C 74.1 65.1 74.5 65.1 74.9 65.1 C 75.2 65.1 75.5 65.1 75.8 65.2 C 76.2 65.2 76.5 65.4 76.8 65.6 C 77.2 65.8 77.4 66 77.6 66.4 C 77.8 66.8 78 67.3 78 68 C 77.95 67.99 78 73.4 78 73.4 L 76.7 73.4 L 76.7 72.3 C 76.7 72.3 76.63 72.27 76.6 72.3 C 76.5 72.5 76.4 72.6 76.2 72.8 C 76 73 75.7 73.2 75.4 73.4 C 75.1 73.5 74.7 73.6 74.2 73.6 Z M 74.4 72.4 C 74.9 72.4 75.3 72.3 75.7 72.2 C 76 72 76.3 71.7 76.4 71.4 C 76.6 71.1 76.7 70.8 76.7 70.4 C 76.7 70.4 76.7 69.3 76.7 69.3 C 76.6 69.3 76.5 69.4 76.3 69.4 C 76.2 69.5 76 69.5 75.7 69.6 C 75.5 69.6 75.3 69.6 75.1 69.7 C 74.8 69.7 74.7 69.7 74.5 69.7 C 74.2 69.8 73.9 69.8 73.6 69.9 C 73.3 70 73.1 70.2 72.9 70.4 C 72.8 70.6 72.7 70.8 72.7 71.1 C 72.7 71.6 72.8 71.9 73.2 72.1 C 73.5 72.3 73.9 72.4 74.4 72.4 Z M 85.7 62.5 L 85.7 73.4 L 84.5 73.4 L 84.5 62.5 L 85.7 62.5 Z M 91.5 73.6 C 90.7 73.6 90 73.4 89.4 73 C 88.9 72.7 88.4 72.2 88.1 71.6 C 87.8 70.9 87.7 70.2 87.7 69.4 C 87.7 68.5 87.8 67.8 88.1 67.1 C 88.4 66.5 88.9 66 89.4 65.6 C 90 65.3 90.6 65.1 91.3 65.1 C 91.8 65.1 92.2 65.2 92.6 65.3 C 93 65.4 93.4 65.7 93.7 66 C 94.1 66.3 94.4 66.7 94.6 67.3 C 94.8 67.8 94.9 68.4 94.9 69.2 C 94.86 69.18 94.9 69.7 94.9 69.7 L 88.6 69.7 L 88.6 68.6 C 88.6 68.6 93.58 68.63 93.6 68.6 C 93.6 68.2 93.5 67.8 93.3 67.4 C 93.1 67 92.9 66.7 92.5 66.5 C 92.2 66.3 91.8 66.2 91.3 66.2 C 90.8 66.2 90.4 66.3 90 66.6 C 89.7 66.8 89.4 67.2 89.2 67.6 C 89 67.9 88.9 68.4 88.9 68.8 C 88.9 68.8 88.9 69.5 88.9 69.5 C 88.9 70.2 89 70.7 89.2 71.1 C 89.5 71.5 89.8 71.9 90.1 72.1 C 90.5 72.3 91 72.4 91.5 72.4 C 91.8 72.4 92.1 72.4 92.4 72.3 C 92.6 72.2 92.9 72 93.1 71.9 C 93.3 71.7 93.4 71.4 93.5 71.1 C 93.5 71.1 94.7 71.5 94.7 71.5 C 94.6 71.9 94.4 72.3 94.1 72.6 C 93.8 72.9 93.4 73.1 93 73.3 C 92.5 73.5 92 73.6 91.5 73.6 Z M 99.1 73.6 C 98.6 73.6 98.1 73.5 97.7 73.3 C 97.3 73.1 96.9 72.8 96.7 72.4 C 96.4 72 96.3 71.6 96.3 71.1 C 96.3 70.6 96.4 70.2 96.6 69.9 C 96.8 69.6 97 69.4 97.3 69.2 C 97.6 69.1 98 68.9 98.4 68.9 C 98.7 68.8 99.1 68.7 99.5 68.7 C 100 68.6 100.4 68.5 100.7 68.5 C 101 68.5 101.2 68.4 101.4 68.3 C 101.5 68.3 101.6 68.1 101.6 67.9 C 101.6 67.9 101.6 67.9 101.6 67.9 C 101.6 67.3 101.5 66.9 101.2 66.6 C 100.9 66.3 100.4 66.2 99.9 66.2 C 99.3 66.2 98.8 66.3 98.5 66.6 C 98.1 66.9 97.9 67.1 97.7 67.4 C 97.7 67.4 96.5 67 96.5 67 C 96.8 66.5 97 66.1 97.4 65.8 C 97.8 65.6 98.1 65.4 98.6 65.3 C 99 65.1 99.4 65.1 99.8 65.1 C 100.1 65.1 100.4 65.1 100.7 65.2 C 101.1 65.2 101.4 65.4 101.7 65.6 C 102.1 65.8 102.3 66 102.5 66.4 C 102.7 66.8 102.9 67.3 102.9 68 C 102.85 67.99 102.9 73.4 102.9 73.4 L 101.6 73.4 L 101.6 72.3 C 101.6 72.3 101.53 72.27 101.5 72.3 C 101.4 72.5 101.3 72.6 101.1 72.8 C 100.9 73 100.6 73.2 100.3 73.4 C 100 73.5 99.6 73.6 99.1 73.6 Z M 99.3 72.4 C 99.8 72.4 100.2 72.3 100.6 72.2 C 100.9 72 101.2 71.7 101.3 71.4 C 101.5 71.1 101.6 70.8 101.6 70.4 C 101.6 70.4 101.6 69.3 101.6 69.3 C 101.5 69.3 101.4 69.4 101.2 69.4 C 101.1 69.5 100.9 69.5 100.6 69.6 C 100.4 69.6 100.2 69.6 100 69.7 C 99.7 69.7 99.6 69.7 99.4 69.7 C 99.1 69.8 98.8 69.8 98.5 69.9 C 98.2 70 98 70.2 97.8 70.4 C 97.7 70.6 97.6 70.8 97.6 71.1 C 97.6 71.6 97.7 71.9 98.1 72.1 C 98.4 72.3 98.8 72.4 99.3 72.4 Z M 108.2 73.6 C 107.5 73.6 106.9 73.4 106.4 73 C 105.9 72.7 105.5 72.2 105.2 71.6 C 104.9 70.9 104.7 70.2 104.7 69.3 C 104.7 68.5 104.9 67.7 105.2 67.1 C 105.5 66.4 105.9 66 106.4 65.6 C 106.9 65.3 107.5 65.1 108.2 65.1 C 108.8 65.1 109.2 65.2 109.5 65.4 C 109.8 65.5 110.1 65.7 110.2 66 C 110.4 66.2 110.5 66.4 110.6 66.5 C 110.6 66.5 110.7 66.5 110.7 66.5 L 110.7 62.5 L 112 62.5 L 112 73.4 L 110.8 73.4 L 110.8 72.1 C 110.8 72.1 110.6 72.12 110.6 72.1 C 110.5 72.3 110.4 72.5 110.2 72.7 C 110 72.9 109.8 73.1 109.5 73.3 C 109.2 73.5 108.7 73.6 108.2 73.6 Z M 108.4 72.4 C 108.9 72.4 109.3 72.3 109.7 72 C 110 71.8 110.3 71.4 110.5 70.9 C 110.6 70.5 110.7 69.9 110.7 69.3 C 110.7 68.7 110.6 68.1 110.5 67.7 C 110.3 67.2 110 66.9 109.7 66.6 C 109.3 66.4 108.9 66.2 108.4 66.2 C 107.9 66.2 107.4 66.4 107.1 66.6 C 106.7 66.9 106.4 67.3 106.3 67.7 C 106.1 68.2 106 68.7 106 69.3 C 106 69.9 106.1 70.4 106.3 70.9 C 106.4 71.3 106.7 71.7 107.1 72 C 107.4 72.3 107.9 72.4 108.4 72.4 Z M 120.1 67 C 120.1 67 118.9 67.4 118.9 67.4 C 118.9 67.2 118.8 67 118.6 66.8 C 118.5 66.6 118.3 66.5 118.1 66.4 C 117.8 66.2 117.5 66.2 117.2 66.2 C 116.7 66.2 116.2 66.3 115.9 66.5 C 115.6 66.8 115.4 67 115.4 67.4 C 115.4 67.7 115.5 68 115.8 68.1 C 116 68.3 116.3 68.5 116.8 68.6 C 116.8 68.6 118 68.9 118 68.9 C 118.8 69.1 119.3 69.3 119.7 69.7 C 120 70.1 120.2 70.5 120.2 71.1 C 120.2 71.6 120.1 72 119.8 72.4 C 119.5 72.7 119.2 73 118.7 73.2 C 118.2 73.4 117.6 73.6 117 73.6 C 116.2 73.6 115.5 73.4 114.9 73 C 114.4 72.6 114 72.1 113.9 71.4 C 113.9 71.4 115.1 71.1 115.1 71.1 C 115.2 71.6 115.4 71.9 115.7 72.1 C 116.1 72.3 116.5 72.4 117 72.4 C 117.6 72.4 118 72.3 118.4 72.1 C 118.7 71.8 118.9 71.5 118.9 71.2 C 118.9 70.9 118.8 70.6 118.6 70.4 C 118.4 70.3 118.1 70.1 117.7 70 C 117.7 70 116.3 69.7 116.3 69.7 C 115.6 69.5 115 69.2 114.7 68.9 C 114.3 68.5 114.2 68 114.2 67.5 C 114.2 67 114.3 66.6 114.5 66.2 C 114.8 65.9 115.2 65.6 115.6 65.4 C 116.1 65.2 116.6 65.1 117.2 65.1 C 118 65.1 118.6 65.3 119.1 65.6 C 119.5 66 119.9 66.5 120.1 67 Z M 129.9 65.2 L 129.9 66.3 L 125.6 66.3 L 125.6 65.2 L 129.9 65.2 Z M 126.9 63.2 L 128.1 63.2 C 128.1 63.2 128.13 71.04 128.1 71 C 128.1 71.4 128.2 71.7 128.3 71.8 C 128.4 72 128.5 72.1 128.7 72.2 C 128.9 72.2 129 72.3 129.2 72.3 C 129.4 72.3 129.5 72.3 129.6 72.2 C 129.6 72.2 129.7 72.2 129.8 72.2 C 129.8 72.2 130 73.3 130 73.3 C 129.9 73.4 129.8 73.4 129.7 73.4 C 129.5 73.5 129.3 73.5 129.1 73.5 C 128.7 73.5 128.4 73.4 128 73.3 C 127.7 73.1 127.4 72.9 127.2 72.6 C 127 72.2 126.9 71.9 126.9 71.4 C 126.87 71.38 126.9 63.2 126.9 63.2 Z M 134.7 73.6 C 133.9 73.6 133.3 73.4 132.7 73 C 132.2 72.7 131.8 72.2 131.4 71.5 C 131.1 70.9 131 70.2 131 69.3 C 131 68.5 131.1 67.7 131.4 67.1 C 131.8 66.5 132.2 66 132.7 65.6 C 133.3 65.3 133.9 65.1 134.7 65.1 C 135.4 65.1 136.1 65.3 136.6 65.6 C 137.2 66 137.6 66.5 137.9 67.1 C 138.2 67.7 138.4 68.5 138.4 69.3 C 138.4 70.2 138.2 70.9 137.9 71.5 C 137.6 72.2 137.2 72.7 136.6 73 C 136.1 73.4 135.4 73.6 134.7 73.6 Z M 134.7 72.4 C 135.2 72.4 135.7 72.3 136.1 72 C 136.4 71.7 136.7 71.3 136.9 70.9 C 137 70.4 137.1 69.9 137.1 69.3 C 137.1 68.8 137 68.3 136.9 67.8 C 136.7 67.3 136.4 67 136.1 66.7 C 135.7 66.4 135.2 66.2 134.7 66.2 C 134.1 66.2 133.7 66.4 133.3 66.7 C 132.9 67 132.7 67.3 132.5 67.8 C 132.3 68.3 132.2 68.8 132.2 69.3 C 132.2 69.9 132.3 70.4 132.5 70.9 C 132.7 71.3 132.9 71.7 133.3 72 C 133.7 72.3 134.1 72.4 134.7 72.4 Z " stroke="none" fill="#000"/>  </g>  <g id="Polygon116310">    <path d="M 1.5 48.2 L 1.5 34.5 L 5.3 34.5 L 5.3 48.2 L 1.5 48.2 Z M 3.4 32.8 C 2.8 32.8 2.4 32.6 2 32.2 C 1.6 31.9 1.4 31.4 1.4 30.9 C 1.4 30.4 1.6 29.9 2 29.5 C 2.4 29.1 2.9 29 3.4 29 C 4 29 4.5 29.1 4.9 29.5 C 5.3 29.9 5.5 30.3 5.5 30.9 C 5.5 31.4 5.3 31.8 4.9 32.2 C 4.5 32.6 4 32.8 3.4 32.8 Z M 12 40.3 C 12.02 40.3 12 48.2 12 48.2 L 8.2 48.2 L 8.2 34.5 L 11.8 34.5 L 11.8 37 C 11.8 37 12 36.95 12 37 C 12.3 36.2 12.8 35.5 13.5 35.1 C 14.2 34.6 15.1 34.4 16.1 34.4 C 17 34.4 17.9 34.6 18.6 35 C 19.3 35.4 19.8 36 20.2 36.8 C 20.6 37.5 20.8 38.4 20.8 39.5 C 20.81 39.5 20.8 48.2 20.8 48.2 L 17 48.2 C 17 48.2 17.02 40.17 17 40.2 C 17 39.3 16.8 38.7 16.4 38.2 C 16 37.7 15.4 37.5 14.6 37.5 C 14.1 37.5 13.6 37.6 13.3 37.8 C 12.9 38.1 12.6 38.4 12.3 38.8 C 12.1 39.2 12 39.7 12 40.3 Z M 30.6 34.5 L 30.6 37.4 L 22.3 37.4 L 22.3 34.5 L 30.6 34.5 Z M 24.2 31.3 L 28 31.3 C 28 31.3 27.99 43.99 28 44 C 28 44.3 28 44.6 28.2 44.8 C 28.3 45 28.4 45.1 28.6 45.2 C 28.8 45.3 29 45.3 29.3 45.3 C 29.5 45.3 29.6 45.3 29.8 45.3 C 30 45.2 30.1 45.2 30.2 45.2 C 30.2 45.2 30.8 48 30.8 48 C 30.6 48.1 30.4 48.1 30 48.2 C 29.7 48.3 29.2 48.4 28.8 48.4 C 27.8 48.4 27 48.3 26.4 48 C 25.7 47.7 25.2 47.3 24.8 46.7 C 24.4 46.1 24.2 45.4 24.2 44.5 C 24.21 44.49 24.2 31.3 24.2 31.3 Z M 38.4 48.4 C 37 48.4 35.8 48.2 34.8 47.6 C 33.8 47 33 46.2 32.5 45.2 C 31.9 44.1 31.7 42.9 31.7 41.4 C 31.7 40 31.9 38.8 32.5 37.7 C 33 36.7 33.8 35.8 34.8 35.3 C 35.8 34.7 36.9 34.4 38.3 34.4 C 39.2 34.4 40 34.5 40.8 34.8 C 41.6 35.1 42.3 35.5 42.8 36.1 C 43.4 36.7 43.9 37.4 44.2 38.3 C 44.5 39.1 44.7 40.1 44.7 41.3 C 44.69 41.29 44.7 42.3 44.7 42.3 L 33.2 42.3 L 33.2 40 C 33.2 40 41.13 39.99 41.1 40 C 41.1 39.4 41 39 40.8 38.5 C 40.5 38.1 40.2 37.8 39.8 37.6 C 39.4 37.3 38.9 37.2 38.3 37.2 C 37.8 37.2 37.3 37.3 36.8 37.6 C 36.4 37.8 36 38.2 35.8 38.6 C 35.5 39.1 35.4 39.6 35.4 40.1 C 35.4 40.1 35.4 42.3 35.4 42.3 C 35.4 43 35.5 43.6 35.8 44.1 C 36 44.6 36.4 45 36.9 45.2 C 37.3 45.5 37.9 45.6 38.5 45.6 C 38.9 45.6 39.3 45.6 39.7 45.4 C 40 45.3 40.3 45.2 40.5 44.9 C 40.8 44.7 41 44.4 41.1 44 C 41.1 44 44.6 44.3 44.6 44.3 C 44.4 45.1 44.1 45.8 43.5 46.5 C 43 47.1 42.3 47.6 41.4 47.9 C 40.6 48.3 39.6 48.4 38.4 48.4 Z M 50.9 30 L 50.9 48.2 L 47.1 48.2 L 47.1 30 L 50.9 30 Z M 57.6 30 L 57.6 48.2 L 53.8 48.2 L 53.8 30 L 57.6 30 Z M 60.5 48.2 L 60.5 34.5 L 64.3 34.5 L 64.3 48.2 L 60.5 48.2 Z M 62.4 32.8 C 61.9 32.8 61.4 32.6 61 32.2 C 60.6 31.9 60.4 31.4 60.4 30.9 C 60.4 30.4 60.6 29.9 61 29.5 C 61.4 29.1 61.9 29 62.4 29 C 63 29 63.5 29.1 63.9 29.5 C 64.3 29.9 64.5 30.3 64.5 30.9 C 64.5 31.4 64.3 31.8 63.9 32.2 C 63.5 32.6 63 32.8 62.4 32.8 Z M 73.3 53.6 C 72.1 53.6 71 53.4 70.2 53.1 C 69.3 52.7 68.6 52.3 68.1 51.7 C 67.6 51.1 67.2 50.5 67.1 49.8 C 67.1 49.8 70.6 49.3 70.6 49.3 C 70.7 49.6 70.9 49.8 71.1 50.1 C 71.3 50.3 71.6 50.5 72 50.6 C 72.4 50.8 72.9 50.9 73.4 50.9 C 74.2 50.9 74.9 50.7 75.4 50.3 C 76 49.9 76.2 49.2 76.2 48.3 C 76.25 48.26 76.2 45.8 76.2 45.8 C 76.2 45.8 76.09 45.77 76.1 45.8 C 75.9 46.1 75.7 46.5 75.3 46.8 C 75 47.2 74.6 47.5 74.1 47.7 C 73.5 47.9 72.9 48 72.2 48 C 71.2 48 70.2 47.7 69.4 47.3 C 68.6 46.8 67.9 46.1 67.4 45.1 C 66.9 44.1 66.7 42.8 66.7 41.3 C 66.7 39.8 66.9 38.5 67.4 37.5 C 67.9 36.4 68.6 35.7 69.4 35.1 C 70.3 34.6 71.2 34.4 72.2 34.4 C 73 34.4 73.6 34.5 74.1 34.8 C 74.6 35 75 35.3 75.4 35.7 C 75.7 36.1 75.9 36.5 76.1 36.8 C 76.09 36.84 76.2 36.8 76.2 36.8 L 76.2 34.5 L 80 34.5 C 80 34.5 79.99 48.31 80 48.3 C 80 49.5 79.7 50.4 79.1 51.2 C 78.6 52 77.8 52.6 76.8 53 C 75.8 53.4 74.6 53.6 73.3 53.6 Z M 73.4 45.1 C 74 45.1 74.5 45 74.9 44.7 C 75.4 44.4 75.7 43.9 75.9 43.4 C 76.2 42.8 76.3 42.1 76.3 41.3 C 76.3 40.5 76.2 39.8 75.9 39.2 C 75.7 38.6 75.4 38.2 75 37.9 C 74.5 37.5 74 37.4 73.4 37.4 C 72.8 37.4 72.3 37.5 71.8 37.9 C 71.4 38.2 71.1 38.7 70.9 39.3 C 70.6 39.9 70.5 40.5 70.5 41.3 C 70.5 42.1 70.6 42.8 70.9 43.4 C 71.1 43.9 71.4 44.4 71.8 44.7 C 72.3 45 72.8 45.1 73.4 45.1 Z M 89.1 48.4 C 87.7 48.4 86.5 48.2 85.5 47.6 C 84.5 47 83.7 46.2 83.2 45.2 C 82.6 44.1 82.4 42.9 82.4 41.4 C 82.4 40 82.6 38.8 83.2 37.7 C 83.7 36.7 84.5 35.8 85.5 35.3 C 86.5 34.7 87.6 34.4 89 34.4 C 89.9 34.4 90.7 34.5 91.5 34.8 C 92.3 35.1 92.9 35.5 93.5 36.1 C 94.1 36.7 94.6 37.4 94.9 38.3 C 95.2 39.1 95.4 40.1 95.4 41.3 C 95.38 41.29 95.4 42.3 95.4 42.3 L 83.9 42.3 L 83.9 40 C 83.9 40 91.82 39.99 91.8 40 C 91.8 39.4 91.7 39 91.5 38.5 C 91.2 38.1 90.9 37.8 90.5 37.6 C 90.1 37.3 89.6 37.2 89 37.2 C 88.5 37.2 87.9 37.3 87.5 37.6 C 87.1 37.8 86.7 38.2 86.5 38.6 C 86.2 39.1 86.1 39.6 86.1 40.1 C 86.1 40.1 86.1 42.3 86.1 42.3 C 86.1 43 86.2 43.6 86.5 44.1 C 86.7 44.6 87.1 45 87.5 45.2 C 88 45.5 88.5 45.6 89.2 45.6 C 89.6 45.6 90 45.6 90.3 45.4 C 90.7 45.3 91 45.2 91.2 44.9 C 91.5 44.7 91.7 44.4 91.8 44 C 91.8 44 95.3 44.3 95.3 44.3 C 95.1 45.1 94.8 45.8 94.2 46.5 C 93.7 47.1 93 47.6 92.1 47.9 C 91.2 48.3 90.2 48.4 89.1 48.4 Z M 101.5 40.3 C 101.54 40.3 101.5 48.2 101.5 48.2 L 97.8 48.2 L 97.8 34.5 L 101.4 34.5 L 101.4 37 C 101.4 37 101.52 36.95 101.5 37 C 101.8 36.2 102.3 35.5 103 35.1 C 103.8 34.6 104.6 34.4 105.6 34.4 C 106.6 34.4 107.4 34.6 108.1 35 C 108.8 35.4 109.4 36 109.7 36.8 C 110.1 37.5 110.3 38.4 110.3 39.5 C 110.33 39.5 110.3 48.2 110.3 48.2 L 106.5 48.2 C 106.5 48.2 106.55 40.17 106.5 40.2 C 106.6 39.3 106.3 38.7 105.9 38.2 C 105.5 37.7 104.9 37.5 104.1 37.5 C 103.6 37.5 103.2 37.6 102.8 37.8 C 102.4 38.1 102.1 38.4 101.9 38.8 C 101.7 39.2 101.5 39.7 101.5 40.3 Z M 119.3 48.4 C 117.9 48.4 116.7 48.2 115.7 47.6 C 114.7 47 113.9 46.1 113.4 45.1 C 112.8 44 112.6 42.8 112.6 41.4 C 112.6 40 112.8 38.8 113.4 37.7 C 113.9 36.7 114.7 35.9 115.7 35.3 C 116.7 34.7 117.9 34.4 119.3 34.4 C 120.5 34.4 121.5 34.6 122.4 35 C 123.3 35.4 124 36.1 124.5 36.8 C 125 37.6 125.3 38.5 125.4 39.6 C 125.4 39.6 121.8 39.6 121.8 39.6 C 121.7 38.9 121.4 38.4 121 37.9 C 120.6 37.5 120 37.3 119.3 37.3 C 118.7 37.3 118.2 37.5 117.8 37.8 C 117.4 38.1 117 38.6 116.8 39.2 C 116.5 39.8 116.4 40.5 116.4 41.4 C 116.4 42.2 116.5 43 116.8 43.6 C 117 44.2 117.4 44.7 117.8 45 C 118.2 45.3 118.7 45.5 119.3 45.5 C 119.8 45.5 120.1 45.4 120.5 45.2 C 120.8 45 121.1 44.8 121.4 44.4 C 121.6 44.1 121.7 43.7 121.8 43.2 C 121.8 43.2 125.4 43.2 125.4 43.2 C 125.3 44.2 125 45.1 124.5 45.9 C 124 46.7 123.3 47.3 122.4 47.8 C 121.5 48.2 120.5 48.4 119.3 48.4 Z M 133.8 48.4 C 132.4 48.4 131.2 48.2 130.2 47.6 C 129.2 47 128.4 46.2 127.9 45.2 C 127.3 44.1 127 42.9 127 41.4 C 127 40 127.3 38.8 127.9 37.7 C 128.4 36.7 129.2 35.8 130.2 35.3 C 131.2 34.7 132.3 34.4 133.7 34.4 C 134.6 34.4 135.4 34.5 136.2 34.8 C 137 35.1 137.6 35.5 138.2 36.1 C 138.8 36.7 139.3 37.4 139.6 38.3 C 139.9 39.1 140.1 40.1 140.1 41.3 C 140.07 41.29 140.1 42.3 140.1 42.3 L 128.6 42.3 L 128.6 40 C 128.6 40 136.51 39.99 136.5 40 C 136.5 39.4 136.4 39 136.2 38.5 C 135.9 38.1 135.6 37.8 135.2 37.6 C 134.8 37.3 134.3 37.2 133.7 37.2 C 133.2 37.2 132.6 37.3 132.2 37.6 C 131.8 37.8 131.4 38.2 131.2 38.6 C 130.9 39.1 130.8 39.6 130.8 40.1 C 130.8 40.1 130.8 42.3 130.8 42.3 C 130.8 43 130.9 43.6 131.2 44.1 C 131.4 44.6 131.8 45 132.2 45.2 C 132.7 45.5 133.2 45.6 133.9 45.6 C 134.3 45.6 134.7 45.6 135 45.4 C 135.4 45.3 135.7 45.2 135.9 44.9 C 136.2 44.7 136.4 44.4 136.5 44 C 136.5 44 140 44.3 140 44.3 C 139.8 45.1 139.5 45.8 138.9 46.5 C 138.4 47.1 137.7 47.6 136.8 47.9 C 135.9 48.3 134.9 48.4 133.8 48.4 Z " stroke="none" fill="#10283d"/>  </g>  <g id="Polygon116309">    <path d="M 8 18.2 C 8.03 18.18 1.6 18.2 1.6 18.2 L 1.6 0 C 1.6 0 8.08 0 8.1 0 C 9.9 0 11.5 0.4 12.8 1.1 C 14.1 1.8 15.1 2.9 15.9 4.2 C 16.6 5.6 16.9 7.2 16.9 9.1 C 16.9 11 16.6 12.6 15.9 14 C 15.1 15.3 14.1 16.4 12.8 17.1 C 11.5 17.8 9.9 18.2 8 18.2 Z M 5.4 14.9 C 5.4 14.9 7.87 14.89 7.9 14.9 C 9 14.9 10 14.7 10.7 14.3 C 11.5 13.9 12.1 13.2 12.5 12.4 C 12.9 11.5 13.1 10.4 13.1 9.1 C 13.1 7.7 12.9 6.6 12.5 5.8 C 12.1 4.9 11.5 4.3 10.7 3.9 C 10 3.5 9 3.3 7.9 3.3 C 7.87 3.29 5.4 3.3 5.4 3.3 L 5.4 14.9 Z M 19.6 18.2 L 19.6 4.5 L 23.4 4.5 L 23.4 18.2 L 19.6 18.2 Z M 21.5 2.8 C 21 2.8 20.5 2.6 20.1 2.2 C 19.7 1.9 19.5 1.4 19.5 0.9 C 19.5 0.4 19.7 -0.1 20.1 -0.5 C 20.5 -0.9 21 -1 21.5 -1 C 22.1 -1 22.6 -0.9 23 -0.5 C 23.4 -0.1 23.6 0.3 23.6 0.9 C 23.6 1.4 23.4 1.8 23 2.2 C 22.6 2.6 22.1 2.8 21.5 2.8 Z M 37.5 8.4 C 37.5 8.4 34.1 8.6 34.1 8.6 C 34 8.4 33.9 8.1 33.7 7.8 C 33.5 7.6 33.2 7.4 32.9 7.3 C 32.6 7.1 32.2 7 31.8 7 C 31.2 7 30.7 7.2 30.3 7.4 C 29.9 7.7 29.7 8 29.7 8.4 C 29.7 8.7 29.8 9 30.1 9.2 C 30.4 9.4 30.8 9.6 31.4 9.8 C 31.4 9.8 33.9 10.3 33.9 10.3 C 35.2 10.5 36.2 11 36.9 11.6 C 37.5 12.2 37.8 13 37.8 14 C 37.8 14.8 37.6 15.6 37.1 16.3 C 36.5 17 35.8 17.5 34.9 17.9 C 34 18.3 33 18.4 31.8 18.4 C 30 18.4 28.5 18.1 27.5 17.3 C 26.4 16.6 25.8 15.5 25.6 14.2 C 25.6 14.2 29.3 14 29.3 14 C 29.4 14.6 29.7 15 30.1 15.3 C 30.6 15.6 31.1 15.7 31.8 15.7 C 32.4 15.7 33 15.6 33.4 15.3 C 33.8 15.1 34 14.7 34 14.3 C 34 14 33.8 13.7 33.6 13.5 C 33.3 13.3 32.8 13.1 32.3 13 C 32.3 13 29.9 12.5 29.9 12.5 C 28.6 12.2 27.6 11.8 26.9 11.1 C 26.3 10.5 25.9 9.6 25.9 8.6 C 25.9 7.7 26.2 7 26.7 6.3 C 27.1 5.7 27.8 5.2 28.7 4.9 C 29.5 4.5 30.6 4.4 31.7 4.4 C 33.5 4.4 34.8 4.7 35.8 5.5 C 36.8 6.2 37.4 7.2 37.5 8.4 Z M 46.2 18.4 C 44.8 18.4 43.6 18.2 42.6 17.6 C 41.6 17 40.8 16.1 40.3 15.1 C 39.7 14 39.5 12.8 39.5 11.4 C 39.5 10 39.7 8.8 40.3 7.7 C 40.8 6.7 41.6 5.9 42.6 5.3 C 43.6 4.7 44.8 4.4 46.2 4.4 C 47.4 4.4 48.4 4.6 49.3 5 C 50.2 5.4 50.9 6.1 51.4 6.8 C 51.9 7.6 52.2 8.5 52.3 9.6 C 52.3 9.6 48.7 9.6 48.7 9.6 C 48.6 8.9 48.3 8.4 47.9 7.9 C 47.5 7.5 46.9 7.3 46.2 7.3 C 45.6 7.3 45.1 7.5 44.7 7.8 C 44.3 8.1 43.9 8.6 43.7 9.2 C 43.4 9.8 43.3 10.5 43.3 11.4 C 43.3 12.2 43.4 13 43.7 13.6 C 43.9 14.2 44.3 14.7 44.7 15 C 45.1 15.3 45.6 15.5 46.2 15.5 C 46.7 15.5 47 15.4 47.4 15.2 C 47.7 15 48 14.8 48.3 14.4 C 48.5 14.1 48.6 13.7 48.7 13.2 C 48.7 13.2 52.3 13.2 52.3 13.2 C 52.2 14.2 51.9 15.1 51.4 15.9 C 50.9 16.7 50.2 17.3 49.3 17.8 C 48.4 18.2 47.4 18.4 46.2 18.4 Z M 60.7 18.4 C 59.3 18.4 58.1 18.2 57.1 17.6 C 56.1 17 55.3 16.2 54.8 15.1 C 54.2 14 54 12.8 54 11.4 C 54 10 54.2 8.8 54.8 7.7 C 55.3 6.7 56.1 5.8 57.1 5.3 C 58.1 4.7 59.3 4.4 60.7 4.4 C 62 4.4 63.2 4.7 64.2 5.3 C 65.2 5.8 66 6.7 66.6 7.7 C 67.1 8.8 67.4 10 67.4 11.4 C 67.4 12.8 67.1 14 66.6 15.1 C 66 16.2 65.2 17 64.2 17.6 C 63.2 18.2 62 18.4 60.7 18.4 Z M 60.7 15.5 C 61.3 15.5 61.8 15.3 62.3 15 C 62.7 14.6 63 14.1 63.2 13.5 C 63.4 12.9 63.5 12.2 63.5 11.4 C 63.5 10.6 63.4 9.9 63.2 9.3 C 63 8.6 62.7 8.2 62.3 7.8 C 61.8 7.4 61.3 7.3 60.7 7.3 C 60.1 7.3 59.5 7.4 59.1 7.8 C 58.7 8.2 58.3 8.6 58.1 9.3 C 57.9 9.9 57.8 10.6 57.8 11.4 C 57.8 12.2 57.9 12.9 58.1 13.5 C 58.3 14.1 58.7 14.6 59.1 15 C 59.5 15.3 60.1 15.5 60.7 15.5 Z M 73.5 10.3 C 73.54 10.3 73.5 18.2 73.5 18.2 L 69.8 18.2 L 69.8 4.5 L 73.4 4.5 L 73.4 7 C 73.4 7 73.52 6.95 73.5 7 C 73.8 6.2 74.3 5.5 75 5.1 C 75.7 4.6 76.6 4.4 77.6 4.4 C 78.6 4.4 79.4 4.6 80.1 5 C 80.8 5.4 81.3 6 81.7 6.8 C 82.1 7.5 82.3 8.4 82.3 9.5 C 82.33 9.5 82.3 18.2 82.3 18.2 L 78.5 18.2 C 78.5 18.2 78.54 10.17 78.5 10.2 C 78.6 9.3 78.3 8.7 77.9 8.2 C 77.5 7.7 76.9 7.5 76.1 7.5 C 75.6 7.5 75.2 7.6 74.8 7.8 C 74.4 8.1 74.1 8.4 73.9 8.8 C 73.7 9.2 73.5 9.7 73.5 10.3 Z M 89 10.3 C 88.97 10.3 89 18.2 89 18.2 L 85.2 18.2 L 85.2 4.5 L 88.8 4.5 L 88.8 7 C 88.8 7 88.95 6.95 89 7 C 89.3 6.2 89.8 5.5 90.5 5.1 C 91.2 4.6 92 4.4 93.1 4.4 C 94 4.4 94.8 4.6 95.5 5 C 96.2 5.4 96.8 6 97.2 6.8 C 97.6 7.5 97.8 8.4 97.8 9.5 C 97.76 9.5 97.8 18.2 97.8 18.2 L 94 18.2 C 94 18.2 93.98 10.17 94 10.2 C 94 9.3 93.8 8.7 93.3 8.2 C 92.9 7.7 92.3 7.5 91.6 7.5 C 91 7.5 90.6 7.6 90.2 7.8 C 89.8 8.1 89.5 8.4 89.3 8.8 C 89.1 9.2 89 9.7 89 10.3 Z M 106.8 18.4 C 105.4 18.4 104.2 18.2 103.2 17.6 C 102.2 17 101.4 16.2 100.9 15.2 C 100.3 14.1 100 12.9 100 11.4 C 100 10 100.3 8.8 100.9 7.7 C 101.4 6.7 102.2 5.8 103.2 5.3 C 104.2 4.7 105.3 4.4 106.7 4.4 C 107.6 4.4 108.4 4.5 109.2 4.8 C 110 5.1 110.6 5.5 111.2 6.1 C 111.8 6.7 112.3 7.4 112.6 8.3 C 112.9 9.1 113.1 10.1 113.1 11.3 C 113.07 11.29 113.1 12.3 113.1 12.3 L 101.6 12.3 L 101.6 10 C 101.6 10 109.51 9.99 109.5 10 C 109.5 9.4 109.4 9 109.2 8.5 C 108.9 8.1 108.6 7.8 108.2 7.6 C 107.8 7.3 107.3 7.2 106.7 7.2 C 106.1 7.2 105.6 7.3 105.2 7.6 C 104.8 7.8 104.4 8.2 104.2 8.6 C 103.9 9.1 103.8 9.6 103.8 10.1 C 103.8 10.1 103.8 12.3 103.8 12.3 C 103.8 13 103.9 13.6 104.2 14.1 C 104.4 14.6 104.8 15 105.2 15.2 C 105.7 15.5 106.2 15.6 106.9 15.6 C 107.3 15.6 107.7 15.6 108 15.4 C 108.4 15.3 108.7 15.2 108.9 14.9 C 109.2 14.7 109.4 14.4 109.5 14 C 109.5 14 113 14.3 113 14.3 C 112.8 15.1 112.4 15.8 111.9 16.5 C 111.4 17.1 110.6 17.6 109.8 17.9 C 108.9 18.3 107.9 18.4 106.8 18.4 Z M 121.6 18.4 C 120.2 18.4 119 18.2 118 17.6 C 117 17 116.2 16.1 115.7 15.1 C 115.1 14 114.9 12.8 114.9 11.4 C 114.9 10 115.1 8.8 115.7 7.7 C 116.2 6.7 117 5.9 118 5.3 C 119 4.7 120.2 4.4 121.6 4.4 C 122.8 4.4 123.8 4.6 124.7 5 C 125.6 5.4 126.3 6.1 126.8 6.8 C 127.3 7.6 127.6 8.5 127.7 9.6 C 127.7 9.6 124.1 9.6 124.1 9.6 C 124 8.9 123.7 8.4 123.3 7.9 C 122.9 7.5 122.3 7.3 121.6 7.3 C 121 7.3 120.5 7.5 120.1 7.8 C 119.7 8.1 119.3 8.6 119.1 9.2 C 118.8 9.8 118.7 10.5 118.7 11.4 C 118.7 12.2 118.8 13 119.1 13.6 C 119.3 14.2 119.7 14.7 120.1 15 C 120.5 15.3 121 15.5 121.6 15.5 C 122.1 15.5 122.4 15.4 122.8 15.2 C 123.1 15 123.4 14.8 123.7 14.4 C 123.9 14.1 124 13.7 124.1 13.2 C 124.1 13.2 127.7 13.2 127.7 13.2 C 127.6 14.2 127.3 15.1 126.8 15.9 C 126.3 16.7 125.6 17.3 124.7 17.8 C 123.8 18.2 122.8 18.4 121.6 18.4 Z M 137.2 4.5 L 137.2 7.4 L 129 7.4 L 129 4.5 L 137.2 4.5 Z M 130.9 1.3 L 134.6 1.3 C 134.6 1.3 134.64 13.99 134.6 14 C 134.6 14.3 134.7 14.6 134.8 14.8 C 134.9 15 135.1 15.1 135.2 15.2 C 135.4 15.3 135.7 15.3 135.9 15.3 C 136.1 15.3 136.3 15.3 136.5 15.3 C 136.6 15.2 136.8 15.2 136.9 15.2 C 136.9 15.2 137.5 18 137.5 18 C 137.3 18.1 137 18.1 136.7 18.2 C 136.3 18.3 135.9 18.4 135.4 18.4 C 134.5 18.4 133.7 18.3 133 18 C 132.3 17.7 131.8 17.3 131.4 16.7 C 131 16.1 130.9 15.4 130.9 14.5 C 130.86 14.49 130.9 1.3 130.9 1.3 Z M 145.1 18.4 C 143.7 18.4 142.5 18.2 141.5 17.6 C 140.5 17 139.7 16.2 139.1 15.2 C 138.6 14.1 138.3 12.9 138.3 11.4 C 138.3 10 138.6 8.8 139.1 7.7 C 139.7 6.7 140.4 5.8 141.4 5.3 C 142.4 4.7 143.6 4.4 144.9 4.4 C 145.8 4.4 146.7 4.5 147.4 4.8 C 148.2 5.1 148.9 5.5 149.5 6.1 C 150.1 6.7 150.5 7.4 150.9 8.3 C 151.2 9.1 151.3 10.1 151.3 11.3 C 151.34 11.29 151.3 12.3 151.3 12.3 L 139.8 12.3 L 139.8 10 C 139.8 10 147.78 9.99 147.8 10 C 147.8 9.4 147.7 9 147.4 8.5 C 147.2 8.1 146.9 7.8 146.4 7.6 C 146 7.3 145.5 7.2 145 7.2 C 144.4 7.2 143.9 7.3 143.5 7.6 C 143 7.8 142.7 8.2 142.4 8.6 C 142.2 9.1 142.1 9.6 142.1 10.1 C 142.1 10.1 142.1 12.3 142.1 12.3 C 142.1 13 142.2 13.6 142.4 14.1 C 142.7 14.6 143 15 143.5 15.2 C 144 15.5 144.5 15.6 145.1 15.6 C 145.6 15.6 145.9 15.6 146.3 15.4 C 146.6 15.3 146.9 15.2 147.2 14.9 C 147.4 14.7 147.6 14.4 147.8 14 C 147.8 14 151.3 14.3 151.3 14.3 C 151.1 15.1 150.7 15.8 150.2 16.5 C 149.6 17.1 148.9 17.6 148.1 17.9 C 147.2 18.3 146.2 18.4 145.1 18.4 Z M 158.7 18.4 C 157.7 18.4 156.7 18.1 155.9 17.6 C 155.1 17.1 154.4 16.3 153.9 15.2 C 153.4 14.2 153.2 12.9 153.2 11.4 C 153.2 9.8 153.4 8.5 153.9 7.5 C 154.4 6.4 155.1 5.7 156 5.1 C 156.8 4.6 157.7 4.4 158.7 4.4 C 159.5 4.4 160.1 4.5 160.6 4.8 C 161.1 5 161.5 5.3 161.9 5.7 C 162.2 6.1 162.4 6.5 162.6 6.8 C 162.59 6.84 162.7 6.8 162.7 6.8 L 162.7 0 L 166.5 0 L 166.5 18.2 L 162.7 18.2 L 162.7 16 C 162.7 16 162.59 16 162.6 16 C 162.4 16.4 162.2 16.8 161.8 17.1 C 161.5 17.5 161.1 17.8 160.6 18 C 160.1 18.3 159.5 18.4 158.7 18.4 Z M 159.9 15.4 C 160.5 15.4 161 15.2 161.5 14.9 C 161.9 14.6 162.2 14.1 162.4 13.5 C 162.7 12.9 162.8 12.2 162.8 11.4 C 162.8 10.6 162.7 9.8 162.4 9.3 C 162.2 8.7 161.9 8.2 161.5 7.9 C 161 7.5 160.5 7.4 159.9 7.4 C 159.3 7.4 158.8 7.5 158.3 7.9 C 157.9 8.2 157.6 8.7 157.4 9.3 C 157.2 9.9 157 10.6 157 11.4 C 157 12.2 157.2 12.9 157.4 13.5 C 157.6 14.1 157.9 14.5 158.4 14.9 C 158.8 15.2 159.3 15.4 159.9 15.4 Z " stroke="none" fill="#10283d"/>  </g>  <g id="Polygon116311">    <path d="M 147.7 40.8 L 154.3 47.3 L 160.9 40.8 " style="stroke-width:1.8pt; stroke:#838f98;" fill="none"/>  </g>  <g id="Polygon116316">    <path d="M 149.6 132.9 L 122.5 132.9 M 143.1 139.6 L 149.7 133 L 143.1 126.4 " style="stroke-width:1.8pt; stroke:#ff4f00;" fill="none"/>  </g></svg>