<?xml version="1.0" standalone="no"?><!DOCTYPE svg PUBLIC "-//W3C//DTD SVG 1.1//EN" "http://www.w3.org/Graphics/SVG/1.1/DTD/svg11.dtd"><svg xmlns="http://www.w3.org/2000/svg" version="1.1" width="44px" height="35.7px" viewBox="0 -8 44 35.7" style="top:-8px">  <desc>Next</desc>  <defs/>  <g id="Polygon124521">    <path d="M 12.9 0 L 12.9 14 L 10.3 14 L 4.3 5.2 L 4.2 5.2 L 4.2 14 L 1.2 14 L 1.2 0 L 3.8 0 L 9.8 8.8 L 10 8.8 L 10 0 L 12.9 0 Z M 20.2 14.2 C 19.1 14.2 18.1 13.9 17.4 13.5 C 16.6 13.1 16 12.4 15.6 11.6 C 15.2 10.8 15 9.9 15 8.8 C 15 7.7 15.2 6.8 15.6 5.9 C 16 5.1 16.6 4.5 17.4 4 C 18.1 3.6 19 3.4 20 3.4 C 20.7 3.4 21.4 3.5 22 3.7 C 22.6 3.9 23.1 4.2 23.5 4.7 C 24 5.1 24.3 5.7 24.6 6.3 C 24.8 7 25 7.8 25 8.7 C 24.96 8.67 25 9.5 25 9.5 L 16.1 9.5 L 16.1 7.7 C 16.1 7.7 22.23 7.67 22.2 7.7 C 22.2 7.3 22.1 6.9 22 6.6 C 21.8 6.2 21.5 6 21.2 5.8 C 20.9 5.6 20.5 5.5 20.1 5.5 C 19.6 5.5 19.3 5.6 18.9 5.8 C 18.6 6 18.3 6.3 18.1 6.6 C 17.9 7 17.8 7.4 17.8 7.8 C 17.8 7.8 17.8 9.5 17.8 9.5 C 17.8 10 17.9 10.4 18.1 10.8 C 18.3 11.2 18.6 11.5 18.9 11.7 C 19.3 11.9 19.7 12 20.2 12 C 20.5 12 20.8 12 21.1 11.9 C 21.4 11.8 21.6 11.6 21.8 11.5 C 22 11.3 22.1 11.1 22.2 10.8 C 22.2 10.8 24.9 11 24.9 11 C 24.8 11.6 24.5 12.2 24.1 12.7 C 23.6 13.1 23.1 13.5 22.4 13.8 C 21.8 14 21 14.2 20.2 14.2 Z M 28.8 3.5 L 30.7 7.2 L 32.7 3.5 L 35.7 3.5 L 32.6 8.7 L 35.7 14 L 32.8 14 L 30.7 10.3 L 28.7 14 L 25.7 14 L 28.8 8.7 L 25.8 3.5 L 28.8 3.5 Z M 43.1 3.5 L 43.1 5.7 L 36.8 5.7 L 36.8 3.5 L 43.1 3.5 Z M 38.2 1 L 41.1 1 C 41.1 1 41.11 10.75 41.1 10.7 C 41.1 11 41.2 11.2 41.2 11.4 C 41.3 11.5 41.4 11.6 41.6 11.7 C 41.7 11.7 41.9 11.8 42.1 11.8 C 42.2 11.8 42.4 11.8 42.5 11.7 C 42.6 11.7 42.7 11.7 42.8 11.7 C 42.8 11.7 43.3 13.8 43.3 13.8 C 43.1 13.9 42.9 13.9 42.7 14 C 42.4 14.1 42.1 14.1 41.7 14.1 C 41 14.1 40.4 14 39.9 13.8 C 39.3 13.6 38.9 13.3 38.6 12.8 C 38.3 12.4 38.2 11.8 38.2 11.1 C 38.21 11.13 38.2 1 38.2 1 Z " stroke="none" fill="#ffffff"/>  </g></svg>