<?xml version="1.0" standalone="no"?><!DOCTYPE svg PUBLIC "-//W3C//DTD SVG 1.1//EN" "http://www.w3.org/Graphics/SVG/1.1/DTD/svg11.dtd"><svg xmlns="http://www.w3.org/2000/svg" version="1.1" width="413.5px" height="46.5px" viewBox="0 -11 413.5 46.5" style="top:-11px">  <desc>Incomplete data access</desc>  <defs/>  <g id="Polygon105405">    <path d="M 42.8 0 L 42.8 19.6 L 40.4 19.6 L 40.4 0 L 42.8 0 Z M 49.4 10.8 C 49.41 10.78 49.4 19.6 49.4 19.6 L 47.2 19.6 L 47.2 4.9 L 49.3 4.9 L 49.3 7.2 C 49.3 7.2 49.53 7.21 49.5 7.2 C 49.9 6.5 50.4 5.9 51.1 5.4 C 51.8 4.9 52.7 4.7 53.8 4.7 C 54.8 4.7 55.7 4.9 56.4 5.3 C 57.2 5.7 57.8 6.3 58.2 7.2 C 58.6 8 58.8 9 58.8 10.3 C 58.81 10.28 58.8 19.6 58.8 19.6 L 56.5 19.6 C 56.5 19.6 56.55 10.43 56.5 10.4 C 56.5 9.3 56.2 8.4 55.6 7.7 C 55 7.1 54.2 6.8 53.2 6.8 C 52.4 6.8 51.8 6.9 51.2 7.2 C 50.7 7.5 50.2 8 49.9 8.6 C 49.6 9.2 49.4 9.9 49.4 10.8 Z M 68.7 19.9 C 67.3 19.9 66.1 19.6 65.2 19 C 64.2 18.3 63.4 17.4 62.9 16.3 C 62.3 15.1 62 13.8 62 12.3 C 62 10.9 62.3 9.5 62.9 8.4 C 63.4 7.2 64.2 6.3 65.2 5.7 C 66.2 5 67.4 4.7 68.7 4.7 C 69.7 4.7 70.6 4.9 71.5 5.3 C 72.3 5.7 73 6.2 73.5 6.9 C 74.1 7.6 74.4 8.4 74.5 9.3 C 74.5 9.3 72.2 9.3 72.2 9.3 C 72.1 8.6 71.7 8.1 71.1 7.5 C 70.5 7 69.7 6.8 68.7 6.8 C 67.8 6.8 67.1 7 66.4 7.4 C 65.7 7.9 65.2 8.5 64.9 9.4 C 64.5 10.2 64.3 11.2 64.3 12.3 C 64.3 13.4 64.5 14.4 64.8 15.2 C 65.2 16.1 65.7 16.7 66.4 17.2 C 67 17.7 67.8 17.9 68.7 17.9 C 69.3 17.9 69.8 17.8 70.3 17.6 C 70.8 17.4 71.2 17.1 71.5 16.7 C 71.9 16.3 72.1 15.9 72.2 15.3 C 72.2 15.3 74.5 15.3 74.5 15.3 C 74.4 16.2 74.1 17 73.6 17.7 C 73.1 18.4 72.4 18.9 71.6 19.3 C 70.8 19.7 69.8 19.9 68.7 19.9 Z M 83.6 19.9 C 82.2 19.9 81.1 19.6 80.1 19 C 79.1 18.4 78.3 17.5 77.7 16.3 C 77.2 15.2 76.9 13.9 76.9 12.3 C 76.9 10.8 77.2 9.5 77.7 8.3 C 78.3 7.2 79.1 6.3 80.1 5.7 C 81.1 5 82.2 4.7 83.6 4.7 C 84.9 4.7 86 5 87.1 5.7 C 88.1 6.3 88.8 7.2 89.4 8.3 C 89.9 9.5 90.2 10.8 90.2 12.3 C 90.2 13.9 89.9 15.2 89.4 16.3 C 88.8 17.5 88.1 18.4 87.1 19 C 86 19.6 84.9 19.9 83.6 19.9 Z M 83.6 17.9 C 84.6 17.9 85.4 17.7 86 17.1 C 86.7 16.6 87.2 15.9 87.5 15.1 C 87.8 14.2 88 13.3 88 12.3 C 88 11.4 87.8 10.4 87.5 9.6 C 87.2 8.7 86.7 8.1 86 7.5 C 85.4 7 84.6 6.8 83.6 6.8 C 82.5 6.8 81.7 7 81.1 7.5 C 80.4 8.1 79.9 8.7 79.6 9.6 C 79.3 10.4 79.1 11.4 79.1 12.3 C 79.1 13.3 79.3 14.2 79.6 15.1 C 79.9 15.9 80.4 16.6 81.1 17.1 C 81.7 17.7 82.5 17.9 83.6 17.9 Z M 93.6 19.6 L 93.6 4.9 L 95.8 4.9 L 95.8 7.2 C 95.8 7.2 95.95 7.21 95.9 7.2 C 96.3 6.4 96.7 5.8 97.4 5.4 C 98.1 4.9 98.9 4.7 99.9 4.7 C 100.9 4.7 101.7 4.9 102.3 5.4 C 103 5.8 103.5 6.4 103.8 7.2 C 103.8 7.2 104 7.2 104 7.2 C 104.4 6.4 104.9 5.8 105.7 5.4 C 106.5 4.9 107.4 4.7 108.4 4.7 C 109.7 4.7 110.8 5.1 111.6 5.9 C 112.5 6.8 112.9 8 112.9 9.8 C 112.9 9.78 112.9 19.6 112.9 19.6 L 110.6 19.6 C 110.6 19.6 110.64 9.78 110.6 9.8 C 110.6 8.7 110.3 7.9 109.7 7.4 C 109.2 7 108.5 6.8 107.6 6.8 C 106.6 6.8 105.8 7.1 105.2 7.7 C 104.7 8.3 104.4 9.1 104.4 10 C 104.38 10.05 104.4 19.6 104.4 19.6 L 102.1 19.6 C 102.1 19.6 102.08 9.55 102.1 9.5 C 102.1 8.7 101.8 8 101.3 7.5 C 100.7 7 100 6.8 99.2 6.8 C 98.6 6.8 98 6.9 97.5 7.2 C 97 7.5 96.6 8 96.3 8.5 C 96 9.1 95.8 9.7 95.8 10.4 C 95.83 10.43 95.8 19.6 95.8 19.6 L 93.6 19.6 Z M 116.9 25.2 L 116.9 4.9 L 119.1 4.9 L 119.1 7.2 C 119.1 7.2 119.36 7.25 119.4 7.2 C 119.5 7 119.8 6.7 120.1 6.3 C 120.4 5.9 120.8 5.5 121.3 5.2 C 121.9 4.9 122.7 4.7 123.6 4.7 C 124.9 4.7 126 5 126.9 5.6 C 127.8 6.3 128.6 7.1 129.1 8.3 C 129.6 9.4 129.9 10.8 129.9 12.3 C 129.9 13.9 129.6 15.2 129.1 16.4 C 128.6 17.5 127.8 18.4 126.9 19 C 126 19.6 124.9 19.9 123.7 19.9 C 122.7 19.9 122 19.8 121.4 19.5 C 120.8 19.2 120.4 18.8 120.1 18.4 C 119.8 18 119.5 17.6 119.4 17.4 C 119.36 17.37 119.2 17.4 119.2 17.4 L 119.2 25.2 L 116.9 25.2 Z M 119.1 12.3 C 119.1 13.4 119.3 14.4 119.6 15.2 C 119.9 16.1 120.4 16.7 121 17.2 C 121.7 17.7 122.4 17.9 123.3 17.9 C 124.3 17.9 125.1 17.7 125.7 17.2 C 126.4 16.7 126.8 16 127.2 15.1 C 127.5 14.3 127.6 13.3 127.6 12.3 C 127.6 11.2 127.5 10.3 127.2 9.5 C 126.9 8.6 126.4 8 125.7 7.5 C 125.1 7 124.3 6.8 123.3 6.8 C 122.4 6.8 121.7 7 121 7.4 C 120.4 7.9 119.9 8.6 119.6 9.4 C 119.3 10.2 119.1 11.2 119.1 12.3 Z M 135.5 0 L 135.5 19.6 L 133.3 19.6 L 133.3 0 L 135.5 0 Z M 145.8 19.9 C 144.3 19.9 143.1 19.6 142.1 19 C 141.1 18.4 140.3 17.5 139.7 16.4 C 139.2 15.2 138.9 13.9 138.9 12.4 C 138.9 10.9 139.2 9.5 139.7 8.4 C 140.3 7.2 141.1 6.3 142.1 5.7 C 143 5 144.2 4.7 145.5 4.7 C 146.3 4.7 147.1 4.8 147.8 5.1 C 148.6 5.4 149.2 5.8 149.9 6.3 C 150.5 6.9 151 7.7 151.3 8.6 C 151.7 9.5 151.9 10.7 151.9 12.1 C 151.87 12.08 151.9 13 151.9 13 L 140.5 13 L 140.5 11.1 C 140.5 11.1 149.57 11.08 149.6 11.1 C 149.6 10.3 149.4 9.5 149.1 8.9 C 148.7 8.2 148.3 7.7 147.7 7.3 C 147.1 6.9 146.4 6.8 145.5 6.8 C 144.6 6.8 143.9 7 143.2 7.4 C 142.5 7.9 142 8.4 141.7 9.1 C 141.3 9.9 141.2 10.6 141.2 11.4 C 141.2 11.4 141.2 12.7 141.2 12.7 C 141.2 13.8 141.4 14.8 141.7 15.6 C 142.1 16.3 142.7 16.9 143.4 17.3 C 144.1 17.7 144.9 17.9 145.8 17.9 C 146.4 17.9 146.9 17.8 147.4 17.7 C 147.9 17.5 148.3 17.2 148.6 16.9 C 149 16.5 149.3 16.1 149.5 15.6 C 149.5 15.6 151.6 16.2 151.6 16.2 C 151.4 17 151 17.6 150.5 18.2 C 149.9 18.7 149.3 19.2 148.5 19.5 C 147.7 19.8 146.8 19.9 145.8 19.9 Z M 161.2 4.9 L 161.2 6.8 L 153.6 6.8 L 153.6 4.9 L 161.2 4.9 Z M 155.8 1.4 L 158.1 1.4 C 158.1 1.4 158.06 15.42 158.1 15.4 C 158.1 16.1 158.2 16.5 158.3 16.9 C 158.5 17.2 158.8 17.4 159.1 17.5 C 159.4 17.6 159.7 17.6 160 17.6 C 160.3 17.6 160.5 17.6 160.6 17.6 C 160.8 17.6 160.9 17.5 161 17.5 C 161 17.5 161.5 19.6 161.5 19.6 C 161.3 19.6 161.1 19.7 160.8 19.7 C 160.6 19.8 160.2 19.8 159.8 19.8 C 159.1 19.8 158.5 19.7 157.9 19.4 C 157.3 19.1 156.8 18.7 156.4 18.2 C 156 17.6 155.8 16.9 155.8 16 C 155.8 16.03 155.8 1.4 155.8 1.4 Z M 169.9 19.9 C 168.5 19.9 167.3 19.6 166.3 19 C 165.2 18.4 164.4 17.5 163.9 16.4 C 163.3 15.2 163.1 13.9 163.1 12.4 C 163.1 10.9 163.3 9.5 163.9 8.4 C 164.4 7.2 165.2 6.3 166.2 5.7 C 167.2 5 168.4 4.7 169.7 4.7 C 170.5 4.7 171.2 4.8 172 5.1 C 172.7 5.4 173.4 5.8 174 6.3 C 174.6 6.9 175.1 7.7 175.5 8.6 C 175.8 9.5 176 10.7 176 12.1 C 176.02 12.08 176 13 176 13 L 164.7 13 L 164.7 11.1 C 164.7 11.1 173.71 11.08 173.7 11.1 C 173.7 10.3 173.5 9.5 173.2 8.9 C 172.9 8.2 172.4 7.7 171.8 7.3 C 171.2 6.9 170.5 6.8 169.7 6.8 C 168.8 6.8 168 7 167.4 7.4 C 166.7 7.9 166.2 8.4 165.8 9.1 C 165.5 9.9 165.3 10.6 165.3 11.4 C 165.3 11.4 165.3 12.7 165.3 12.7 C 165.3 13.8 165.5 14.8 165.9 15.6 C 166.3 16.3 166.8 16.9 167.5 17.3 C 168.2 17.7 169 17.9 169.9 17.9 C 170.5 17.9 171.1 17.8 171.5 17.7 C 172 17.5 172.4 17.2 172.8 16.9 C 173.1 16.5 173.4 16.1 173.6 15.6 C 173.6 15.6 175.8 16.2 175.8 16.2 C 175.6 17 175.2 17.6 174.6 18.2 C 174.1 18.7 173.4 19.2 172.6 19.5 C 171.8 19.8 170.9 19.9 169.9 19.9 Z M 192.6 19.9 C 191.4 19.9 190.3 19.6 189.4 19 C 188.4 18.4 187.7 17.5 187.2 16.4 C 186.6 15.2 186.4 13.9 186.4 12.3 C 186.4 10.8 186.6 9.4 187.2 8.3 C 187.7 7.1 188.4 6.3 189.4 5.6 C 190.3 5 191.4 4.7 192.7 4.7 C 193.6 4.7 194.4 4.9 194.9 5.2 C 195.5 5.5 195.9 5.9 196.2 6.3 C 196.5 6.7 196.8 7 196.9 7.2 C 196.92 7.25 197.1 7.2 197.1 7.2 L 197.1 0 L 199.4 0 L 199.4 19.6 L 197.2 19.6 L 197.2 17.4 C 197.2 17.4 196.92 17.37 196.9 17.4 C 196.8 17.6 196.5 18 196.2 18.4 C 195.9 18.8 195.5 19.2 194.9 19.5 C 194.3 19.8 193.6 19.9 192.6 19.9 Z M 192.9 17.9 C 193.8 17.9 194.6 17.7 195.2 17.2 C 195.9 16.7 196.3 16.1 196.7 15.2 C 197 14.4 197.1 13.4 197.1 12.3 C 197.1 11.2 197 10.2 196.7 9.4 C 196.3 8.6 195.9 7.9 195.2 7.4 C 194.6 7 193.8 6.8 192.9 6.8 C 192 6.8 191.2 7 190.5 7.5 C 189.9 8 189.4 8.6 189.1 9.5 C 188.8 10.3 188.6 11.2 188.6 12.3 C 188.6 13.3 188.8 14.3 189.1 15.1 C 189.4 16 189.9 16.7 190.6 17.2 C 191.2 17.7 192 17.9 192.9 17.9 Z M 207.8 20 C 206.9 20 206 19.8 205.3 19.4 C 204.5 19.1 203.9 18.6 203.5 17.9 C 203 17.2 202.8 16.4 202.8 15.5 C 202.8 14.6 203 13.9 203.3 13.4 C 203.6 12.9 204.1 12.5 204.6 12.2 C 205.2 11.9 205.8 11.6 206.5 11.5 C 207.2 11.3 207.8 11.2 208.5 11.1 C 209.4 11 210.1 10.9 210.7 10.9 C 211.3 10.8 211.7 10.7 211.9 10.5 C 212.2 10.4 212.3 10.1 212.3 9.8 C 212.3 9.8 212.3 9.7 212.3 9.7 C 212.3 8.8 212.1 8 211.5 7.5 C 211 7 210.3 6.7 209.2 6.7 C 208.1 6.7 207.3 6.9 206.7 7.4 C 206.1 7.9 205.6 8.4 205.4 8.9 C 205.4 8.9 203.2 8.2 203.2 8.2 C 203.6 7.3 204.1 6.6 204.8 6.1 C 205.4 5.6 206.1 5.2 206.9 5 C 207.6 4.8 208.4 4.7 209.1 4.7 C 209.6 4.7 210.1 4.8 210.8 4.9 C 211.4 5 212 5.2 212.6 5.6 C 213.1 5.9 213.6 6.4 214 7.1 C 214.4 7.8 214.6 8.8 214.6 9.9 C 214.58 9.93 214.6 19.6 214.6 19.6 L 212.3 19.6 L 212.3 17.6 C 212.3 17.6 212.2 17.64 212.2 17.6 C 212 18 211.8 18.3 211.4 18.7 C 211.1 19 210.6 19.3 210 19.6 C 209.4 19.9 208.7 20 207.8 20 Z M 208.2 17.9 C 209.1 17.9 209.8 17.8 210.4 17.4 C 211.1 17.1 211.5 16.6 211.8 16.1 C 212.2 15.5 212.3 14.9 212.3 14.3 C 212.3 14.3 212.3 12.2 212.3 12.2 C 212.2 12.3 212 12.5 211.7 12.5 C 211.4 12.6 211 12.7 210.6 12.8 C 210.2 12.9 209.8 12.9 209.4 13 C 209 13 208.6 13 208.4 13.1 C 207.8 13.2 207.3 13.3 206.8 13.4 C 206.3 13.6 205.8 13.9 205.5 14.2 C 205.2 14.5 205.1 15 205.1 15.6 C 205.1 16.4 205.4 17 205.9 17.3 C 206.5 17.7 207.3 17.9 208.2 17.9 Z M 224.6 4.9 L 224.6 6.8 L 217 6.8 L 217 4.9 L 224.6 4.9 Z M 219.2 1.4 L 221.5 1.4 C 221.5 1.4 221.49 15.42 221.5 15.4 C 221.5 16.1 221.6 16.5 221.8 16.9 C 222 17.2 222.2 17.4 222.5 17.5 C 222.8 17.6 223.1 17.6 223.4 17.6 C 223.7 17.6 223.9 17.6 224.1 17.6 C 224.2 17.6 224.3 17.5 224.4 17.5 C 224.4 17.5 224.9 19.6 224.9 19.6 C 224.7 19.6 224.5 19.7 224.3 19.7 C 224 19.8 223.6 19.8 223.2 19.8 C 222.6 19.8 221.9 19.7 221.3 19.4 C 220.7 19.1 220.2 18.7 219.8 18.2 C 219.4 17.6 219.2 16.9 219.2 16 C 219.22 16.03 219.2 1.4 219.2 1.4 Z M 232 20 C 231.1 20 230.2 19.8 229.5 19.4 C 228.7 19.1 228.1 18.6 227.7 17.9 C 227.2 17.2 227 16.4 227 15.5 C 227 14.6 227.2 13.9 227.5 13.4 C 227.8 12.9 228.3 12.5 228.8 12.2 C 229.4 11.9 230 11.6 230.7 11.5 C 231.4 11.3 232 11.2 232.7 11.1 C 233.6 11 234.3 10.9 234.9 10.9 C 235.5 10.8 235.9 10.7 236.1 10.5 C 236.4 10.4 236.5 10.1 236.5 9.8 C 236.5 9.8 236.5 9.7 236.5 9.7 C 236.5 8.8 236.3 8 235.7 7.5 C 235.2 7 234.4 6.7 233.4 6.7 C 232.3 6.7 231.5 6.9 230.9 7.4 C 230.3 7.9 229.8 8.4 229.6 8.9 C 229.6 8.9 227.4 8.2 227.4 8.2 C 227.8 7.3 228.3 6.6 229 6.1 C 229.6 5.6 230.3 5.2 231.1 5 C 231.8 4.8 232.6 4.7 233.3 4.7 C 233.8 4.7 234.3 4.8 235 4.9 C 235.6 5 236.2 5.2 236.8 5.6 C 237.3 5.9 237.8 6.4 238.2 7.1 C 238.6 7.8 238.8 8.8 238.8 9.9 C 238.78 9.93 238.8 19.6 238.8 19.6 L 236.5 19.6 L 236.5 17.6 C 236.5 17.6 236.4 17.64 236.4 17.6 C 236.2 18 236 18.3 235.6 18.7 C 235.3 19 234.8 19.3 234.2 19.6 C 233.6 19.9 232.9 20 232 20 Z M 232.4 17.9 C 233.3 17.9 234 17.8 234.6 17.4 C 235.3 17.1 235.7 16.6 236 16.1 C 236.4 15.5 236.5 14.9 236.5 14.3 C 236.5 14.3 236.5 12.2 236.5 12.2 C 236.4 12.3 236.2 12.5 235.9 12.5 C 235.6 12.6 235.2 12.7 234.8 12.8 C 234.4 12.9 233.9 12.9 233.6 13 C 233.2 13 232.8 13 232.6 13.1 C 232 13.2 231.5 13.3 231 13.4 C 230.4 13.6 230 13.9 229.7 14.2 C 229.4 14.5 229.3 15 229.3 15.6 C 229.3 16.4 229.6 17 230.1 17.3 C 230.7 17.7 231.5 17.9 232.4 17.9 Z M 254.8 20 C 253.9 20 253.1 19.8 252.3 19.4 C 251.5 19.1 250.9 18.6 250.5 17.9 C 250 17.2 249.8 16.4 249.8 15.5 C 249.8 14.6 250 13.9 250.3 13.4 C 250.7 12.9 251.1 12.5 251.7 12.2 C 252.2 11.9 252.8 11.6 253.5 11.5 C 254.2 11.3 254.9 11.2 255.5 11.1 C 256.4 11 257.2 10.9 257.7 10.9 C 258.3 10.8 258.7 10.7 258.9 10.5 C 259.2 10.4 259.3 10.1 259.3 9.8 C 259.3 9.8 259.3 9.7 259.3 9.7 C 259.3 8.8 259.1 8 258.6 7.5 C 258 7 257.3 6.7 256.2 6.7 C 255.1 6.7 254.3 6.9 253.7 7.4 C 253.1 7.9 252.6 8.4 252.4 8.9 C 252.4 8.9 250.2 8.2 250.2 8.2 C 250.6 7.3 251.1 6.6 251.8 6.1 C 252.4 5.6 253.1 5.2 253.9 5 C 254.7 4.8 255.4 4.7 256.1 4.7 C 256.6 4.7 257.2 4.8 257.8 4.9 C 258.4 5 259 5.2 259.6 5.6 C 260.2 5.9 260.6 6.4 261 7.1 C 261.4 7.8 261.6 8.8 261.6 9.9 C 261.6 9.93 261.6 19.6 261.6 19.6 L 259.3 19.6 L 259.3 17.6 C 259.3 17.6 259.22 17.64 259.2 17.6 C 259.1 18 258.8 18.3 258.5 18.7 C 258.1 19 257.6 19.3 257 19.6 C 256.4 19.9 255.7 20 254.8 20 Z M 255.2 17.9 C 256.1 17.9 256.8 17.8 257.5 17.4 C 258.1 17.1 258.5 16.6 258.9 16.1 C 259.2 15.5 259.3 14.9 259.3 14.3 C 259.3 14.3 259.3 12.2 259.3 12.2 C 259.2 12.3 259 12.5 258.7 12.5 C 258.4 12.6 258 12.7 257.6 12.8 C 257.2 12.9 256.8 12.9 256.4 13 C 256 13 255.7 13 255.4 13.1 C 254.8 13.2 254.3 13.3 253.8 13.4 C 253.3 13.6 252.9 13.9 252.5 14.2 C 252.2 14.5 252.1 15 252.1 15.6 C 252.1 16.4 252.4 17 253 17.3 C 253.5 17.7 254.3 17.9 255.2 17.9 Z M 271.6 19.9 C 270.2 19.9 269 19.6 268 19 C 267 18.3 266.2 17.4 265.7 16.3 C 265.2 15.1 264.9 13.8 264.9 12.3 C 264.9 10.9 265.2 9.5 265.7 8.4 C 266.3 7.2 267 6.3 268 5.7 C 269 5 270.2 4.7 271.5 4.7 C 272.6 4.7 273.5 4.9 274.3 5.3 C 275.2 5.7 275.8 6.2 276.4 6.9 C 276.9 7.6 277.2 8.4 277.4 9.3 C 277.4 9.3 275.1 9.3 275.1 9.3 C 274.9 8.6 274.5 8.1 273.9 7.5 C 273.4 7 272.6 6.8 271.6 6.8 C 270.7 6.8 269.9 7 269.2 7.4 C 268.6 7.9 268.1 8.5 267.7 9.4 C 267.3 10.2 267.1 11.2 267.1 12.3 C 267.1 13.4 267.3 14.4 267.7 15.2 C 268.1 16.1 268.6 16.7 269.2 17.2 C 269.9 17.7 270.7 17.9 271.6 17.9 C 272.1 17.9 272.7 17.8 273.2 17.6 C 273.6 17.4 274 17.1 274.4 16.7 C 274.7 16.3 274.9 15.9 275.1 15.3 C 275.1 15.3 277.4 15.3 277.4 15.3 C 277.2 16.2 276.9 17 276.4 17.7 C 275.9 18.4 275.2 18.9 274.4 19.3 C 273.6 19.7 272.6 19.9 271.6 19.9 Z M 286.4 19.9 C 285 19.9 283.8 19.6 282.8 19 C 281.8 18.3 281 17.4 280.5 16.3 C 280 15.1 279.7 13.8 279.7 12.3 C 279.7 10.9 280 9.5 280.5 8.4 C 281.1 7.2 281.9 6.3 282.9 5.7 C 283.9 5 285 4.7 286.3 4.7 C 287.4 4.7 288.3 4.9 289.1 5.3 C 290 5.7 290.7 6.2 291.2 6.9 C 291.7 7.6 292 8.4 292.2 9.3 C 292.2 9.3 289.9 9.3 289.9 9.3 C 289.7 8.6 289.4 8.1 288.8 7.5 C 288.2 7 287.4 6.8 286.4 6.8 C 285.5 6.8 284.7 7 284.1 7.4 C 283.4 7.9 282.9 8.5 282.5 9.4 C 282.2 10.2 282 11.2 282 12.3 C 282 13.4 282.2 14.4 282.5 15.2 C 282.9 16.1 283.4 16.7 284 17.2 C 284.7 17.7 285.5 17.9 286.4 17.9 C 287 17.9 287.5 17.8 288 17.6 C 288.5 17.4 288.9 17.1 289.2 16.7 C 289.5 16.3 289.8 15.9 289.9 15.3 C 289.9 15.3 292.2 15.3 292.2 15.3 C 292 16.2 291.7 17 291.2 17.7 C 290.7 18.4 290.1 18.9 289.2 19.3 C 288.4 19.7 287.5 19.9 286.4 19.9 Z M 301.4 19.9 C 300 19.9 298.8 19.6 297.7 19 C 296.7 18.4 295.9 17.5 295.4 16.4 C 294.8 15.2 294.5 13.9 294.5 12.4 C 294.5 10.9 294.8 9.5 295.4 8.4 C 295.9 7.2 296.7 6.3 297.7 5.7 C 298.7 5 299.8 4.7 301.2 4.7 C 301.9 4.7 302.7 4.8 303.5 5.1 C 304.2 5.4 304.9 5.8 305.5 6.3 C 306.1 6.9 306.6 7.7 307 8.6 C 307.3 9.5 307.5 10.7 307.5 12.1 C 307.51 12.08 307.5 13 307.5 13 L 296.2 13 L 296.2 11.1 C 296.2 11.1 305.21 11.08 305.2 11.1 C 305.2 10.3 305 9.5 304.7 8.9 C 304.4 8.2 303.9 7.7 303.3 7.3 C 302.7 6.9 302 6.8 301.2 6.8 C 300.3 6.8 299.5 7 298.8 7.4 C 298.2 7.9 297.7 8.4 297.3 9.1 C 297 9.9 296.8 10.6 296.8 11.4 C 296.8 11.4 296.8 12.7 296.8 12.7 C 296.8 13.8 297 14.8 297.4 15.6 C 297.8 16.3 298.3 16.9 299 17.3 C 299.7 17.7 300.5 17.9 301.4 17.9 C 302 17.9 302.5 17.8 303 17.7 C 303.5 17.5 303.9 17.2 304.3 16.9 C 304.6 16.5 304.9 16.1 305.1 15.6 C 305.1 15.6 307.3 16.2 307.3 16.2 C 307 17 306.7 17.6 306.1 18.2 C 305.6 18.7 304.9 19.2 304.1 19.5 C 303.3 19.8 302.4 19.9 301.4 19.9 Z M 321.1 8.2 C 321.1 8.2 319.1 8.8 319.1 8.8 C 319 8.4 318.8 8.1 318.5 7.8 C 318.3 7.5 317.9 7.2 317.5 7 C 317.1 6.8 316.6 6.7 315.9 6.7 C 315 6.7 314.2 6.9 313.6 7.3 C 313.1 7.7 312.8 8.2 312.8 8.9 C 312.8 9.4 313 9.9 313.4 10.2 C 313.8 10.5 314.4 10.8 315.3 11 C 315.3 11 317.5 11.5 317.5 11.5 C 318.8 11.9 319.8 12.4 320.4 13 C 321.1 13.7 321.4 14.5 321.4 15.5 C 321.4 16.4 321.1 17.1 320.7 17.8 C 320.2 18.5 319.5 19 318.6 19.4 C 317.8 19.8 316.8 19.9 315.6 19.9 C 314.1 19.9 312.9 19.6 311.9 19 C 310.9 18.3 310.3 17.4 310 16.1 C 310 16.1 312.2 15.6 312.2 15.6 C 312.4 16.4 312.8 17 313.3 17.4 C 313.9 17.8 314.7 17.9 315.6 17.9 C 316.6 17.9 317.5 17.7 318.1 17.3 C 318.7 16.8 319 16.3 319 15.6 C 319 15.1 318.9 14.7 318.5 14.4 C 318.1 14 317.6 13.7 316.9 13.6 C 316.9 13.6 314.4 13 314.4 13 C 313.1 12.7 312.1 12.2 311.4 11.5 C 310.8 10.8 310.5 10 310.5 9 C 310.5 8.1 310.7 7.4 311.2 6.8 C 311.7 6.1 312.3 5.6 313.1 5.3 C 313.9 4.9 314.9 4.7 315.9 4.7 C 317.4 4.7 318.5 5 319.3 5.7 C 320.2 6.3 320.8 7.2 321.1 8.2 Z M 335.1 8.2 C 335.1 8.2 333 8.8 333 8.8 C 332.9 8.4 332.7 8.1 332.5 7.8 C 332.2 7.5 331.9 7.2 331.5 7 C 331.1 6.8 330.5 6.7 329.9 6.7 C 329 6.7 328.2 6.9 327.6 7.3 C 327 7.7 326.7 8.2 326.7 8.9 C 326.7 9.4 326.9 9.9 327.3 10.2 C 327.7 10.5 328.4 10.8 329.3 11 C 329.3 11 331.4 11.5 331.4 11.5 C 332.8 11.9 333.7 12.4 334.4 13 C 335 13.7 335.3 14.5 335.3 15.5 C 335.3 16.4 335.1 17.1 334.6 17.8 C 334.1 18.5 333.5 19 332.6 19.4 C 331.7 19.8 330.7 19.9 329.6 19.9 C 328.1 19.9 326.9 19.6 325.9 19 C 324.9 18.3 324.3 17.4 324 16.1 C 324 16.1 326.1 15.6 326.1 15.6 C 326.3 16.4 326.7 17 327.3 17.4 C 327.9 17.8 328.6 17.9 329.6 17.9 C 330.6 17.9 331.5 17.7 332.1 17.3 C 332.7 16.8 333 16.3 333 15.6 C 333 15.1 332.8 14.7 332.5 14.4 C 332.1 14 331.6 13.7 330.8 13.6 C 330.8 13.6 328.4 13 328.4 13 C 327 12.7 326 12.2 325.4 11.5 C 324.8 10.8 324.5 10 324.5 9 C 324.5 8.1 324.7 7.4 325.2 6.8 C 325.6 6.1 326.3 5.6 327.1 5.3 C 327.9 4.9 328.8 4.7 329.9 4.7 C 331.3 4.7 332.5 5 333.3 5.7 C 334.1 6.3 334.7 7.2 335.1 8.2 Z " stroke="none" fill="#ffffff"/>  </g></svg>