<?xml version="1.0" standalone="no"?><!DOCTYPE svg PUBLIC "-//W3C//DTD SVG 1.1//EN" "http://www.w3.org/Graphics/SVG/1.1/DTD/svg11.dtd"><svg xmlns="http://www.w3.org/2000/svg" version="1.1" width="305px" height="216.5px" viewBox="0 -14 305 216.5" style="top:-14px">  <desc>Anaplan provides the right AI for scenario planning challenges</desc>  <defs/>  <g id="Polygon119635">    <path d="M 10.7 151.8 C 8.8 151.8 7.1 151.4 5.7 150.6 C 4.3 149.7 3.2 148.6 2.5 147.1 C 1.7 145.6 1.3 143.9 1.3 142 C 1.3 140 1.7 138.3 2.5 136.8 C 3.2 135.4 4.3 134.2 5.7 133.4 C 7.1 132.5 8.8 132.1 10.7 132.1 C 12.4 132.1 13.8 132.4 15.1 133 C 16.3 133.6 17.3 134.5 18.1 135.6 C 18.8 136.7 19.2 137.9 19.3 139.4 C 19.3 139.4 14.3 139.4 14.3 139.4 C 14.1 138.5 13.8 137.7 13.2 137.1 C 12.6 136.5 11.8 136.2 10.8 136.2 C 10 136.2 9.3 136.5 8.7 136.9 C 8 137.3 7.6 138 7.2 138.8 C 6.9 139.7 6.7 140.7 6.7 141.9 C 6.7 143.1 6.9 144.2 7.2 145 C 7.6 145.9 8 146.5 8.7 147 C 9.3 147.4 10 147.6 10.8 147.6 C 11.4 147.6 12 147.5 12.4 147.3 C 12.9 147 13.3 146.7 13.6 146.2 C 14 145.7 14.2 145.1 14.3 144.5 C 14.3 144.5 19.3 144.5 19.3 144.5 C 19.2 145.9 18.8 147.2 18.1 148.3 C 17.4 149.4 16.4 150.3 15.2 150.9 C 13.9 151.5 12.4 151.8 10.7 151.8 Z M 27.4 140.4 C 27.44 140.42 27.4 151.5 27.4 151.5 L 22.1 151.5 L 22.1 126 L 27.3 126 L 27.3 135.7 C 27.3 135.7 27.51 135.73 27.5 135.7 C 27.9 134.6 28.6 133.7 29.6 133.1 C 30.6 132.4 31.8 132.1 33.2 132.1 C 34.5 132.1 35.7 132.4 36.7 133 C 37.7 133.6 38.5 134.4 39 135.5 C 39.6 136.5 39.8 137.8 39.8 139.3 C 39.82 139.3 39.8 151.5 39.8 151.5 L 34.5 151.5 C 34.5 151.5 34.52 140.24 34.5 140.2 C 34.5 139.1 34.2 138.2 33.6 137.5 C 33 136.8 32.2 136.5 31.1 136.5 C 30.4 136.5 29.8 136.7 29.2 137 C 28.7 137.3 28.2 137.7 27.9 138.3 C 27.6 138.9 27.4 139.6 27.4 140.4 Z M 48.9 151.8 C 47.6 151.8 46.6 151.6 45.6 151.2 C 44.7 150.7 43.9 150.1 43.3 149.3 C 42.8 148.4 42.5 147.4 42.5 146.1 C 42.5 145.1 42.7 144.2 43.1 143.5 C 43.5 142.7 44 142.1 44.7 141.7 C 45.4 141.3 46.1 140.9 47 140.7 C 47.8 140.5 48.7 140.3 49.7 140.2 C 50.8 140.1 51.7 140 52.4 139.9 C 53.1 139.8 53.6 139.7 53.9 139.4 C 54.2 139.2 54.3 138.9 54.3 138.5 C 54.3 138.5 54.3 138.5 54.3 138.5 C 54.3 137.7 54.1 137.1 53.6 136.6 C 53.1 136.2 52.4 136 51.5 136 C 50.5 136 49.8 136.2 49.2 136.6 C 48.6 137 48.3 137.6 48.1 138.2 C 48.1 138.2 43.2 137.8 43.2 137.8 C 43.4 136.6 43.9 135.6 44.7 134.8 C 45.4 133.9 46.3 133.3 47.5 132.8 C 48.6 132.3 50 132.1 51.5 132.1 C 52.6 132.1 53.6 132.2 54.6 132.5 C 55.5 132.7 56.4 133.1 57.2 133.6 C 57.9 134.2 58.5 134.8 59 135.7 C 59.4 136.5 59.6 137.4 59.6 138.6 C 59.61 138.58 59.6 151.5 59.6 151.5 L 54.6 151.5 L 54.6 148.8 C 54.6 148.8 54.44 148.81 54.4 148.8 C 54.1 149.4 53.7 149.9 53.2 150.4 C 52.7 150.8 52.1 151.2 51.4 151.4 C 50.6 151.7 49.8 151.8 48.9 151.8 Z M 50.4 148.2 C 51.2 148.2 51.8 148 52.4 147.7 C 53 147.4 53.5 147 53.8 146.4 C 54.2 145.9 54.4 145.3 54.4 144.6 C 54.4 144.6 54.4 142.6 54.4 142.6 C 54.2 142.7 54 142.8 53.7 142.9 C 53.4 143 53.1 143.1 52.7 143.1 C 52.4 143.2 52 143.3 51.6 143.3 C 51.3 143.4 51 143.4 50.7 143.5 C 50.1 143.6 49.5 143.7 49 143.9 C 48.6 144.1 48.2 144.4 48 144.7 C 47.7 145 47.6 145.5 47.6 145.9 C 47.6 146.7 47.8 147.2 48.4 147.6 C 48.9 148 49.6 148.2 50.4 148.2 Z M 68.6 126 L 68.6 151.5 L 63.3 151.5 L 63.3 126 L 68.6 126 Z M 77.7 126 L 77.7 151.5 L 72.4 151.5 L 72.4 126 L 77.7 126 Z M 90.1 151.8 C 88.2 151.8 86.5 151.4 85.1 150.6 C 83.7 149.8 82.6 148.7 81.8 147.2 C 81 145.8 80.7 144 80.7 142 C 80.7 140 81 138.3 81.8 136.8 C 82.6 135.3 83.6 134.2 85 133.4 C 86.4 132.5 88 132.1 89.9 132.1 C 91.2 132.1 92.4 132.3 93.4 132.7 C 94.5 133.1 95.5 133.7 96.3 134.5 C 97.1 135.3 97.8 136.3 98.2 137.6 C 98.7 138.8 98.9 140.2 98.9 141.8 C 98.89 141.81 98.9 143.3 98.9 143.3 L 82.8 143.3 L 82.8 140 C 82.8 140 93.91 139.98 93.9 140 C 93.9 139.2 93.7 138.5 93.4 138 C 93.1 137.4 92.6 136.9 92 136.6 C 91.5 136.2 90.8 136.1 90 136.1 C 89.2 136.1 88.5 136.3 87.9 136.6 C 87.3 137 86.8 137.5 86.4 138.1 C 86.1 138.7 85.9 139.4 85.9 140.2 C 85.9 140.2 85.9 143.3 85.9 143.3 C 85.9 144.2 86.1 145 86.4 145.7 C 86.8 146.4 87.3 146.9 87.9 147.3 C 88.6 147.7 89.3 147.9 90.2 147.9 C 90.8 147.9 91.3 147.8 91.8 147.6 C 92.3 147.5 92.7 147.2 93.1 146.9 C 93.4 146.5 93.7 146.1 93.9 145.7 C 93.9 145.7 98.8 146 98.8 146 C 98.5 147.2 98 148.2 97.3 149.1 C 96.5 149.9 95.5 150.6 94.3 151.1 C 93.1 151.6 91.7 151.8 90.1 151.8 Z M 107.2 140.4 C 107.21 140.42 107.2 151.5 107.2 151.5 L 101.9 151.5 L 101.9 132.4 L 107 132.4 L 107 135.7 C 107 135.7 107.18 135.73 107.2 135.7 C 107.6 134.6 108.3 133.7 109.3 133.1 C 110.3 132.4 111.5 132.1 112.9 132.1 C 114.3 132.1 115.4 132.4 116.4 133 C 117.4 133.6 118.1 134.4 118.7 135.5 C 119.2 136.5 119.5 137.8 119.5 139.3 C 119.51 139.3 119.5 151.5 119.5 151.5 L 114.2 151.5 C 114.2 151.5 114.22 140.24 114.2 140.2 C 114.2 139.1 113.9 138.2 113.3 137.5 C 112.7 136.8 111.9 136.5 110.8 136.5 C 110.1 136.5 109.5 136.7 108.9 137 C 108.4 137.3 108 137.7 107.7 138.3 C 107.4 138.9 107.2 139.6 107.2 140.4 Z M 131.7 159 C 130 159 128.5 158.8 127.3 158.3 C 126.1 157.8 125.1 157.2 124.4 156.4 C 123.7 155.6 123.2 154.7 123 153.7 C 123 153.7 127.9 153 127.9 153 C 128 153.4 128.3 153.8 128.6 154.1 C 128.9 154.4 129.4 154.7 129.9 154.9 C 130.4 155.1 131.1 155.2 131.9 155.2 C 133 155.2 134 154.9 134.7 154.4 C 135.5 153.8 135.8 152.9 135.8 151.6 C 135.83 151.57 135.8 148.1 135.8 148.1 C 135.8 148.1 135.61 148.07 135.6 148.1 C 135.4 148.6 135 149.1 134.6 149.6 C 134.1 150.1 133.5 150.4 132.8 150.7 C 132 151 131.2 151.2 130.2 151.2 C 128.7 151.2 127.4 150.8 126.3 150.2 C 125.1 149.5 124.1 148.5 123.5 147.1 C 122.8 145.7 122.4 144 122.4 141.9 C 122.4 139.7 122.8 137.9 123.5 136.5 C 124.2 135 125.1 133.9 126.3 133.2 C 127.5 132.5 128.7 132.1 130.1 132.1 C 131.2 132.1 132.1 132.3 132.8 132.7 C 133.6 133 134.1 133.5 134.6 134 C 135 134.5 135.4 135.1 135.6 135.6 C 135.61 135.57 135.8 135.6 135.8 135.6 L 135.8 132.4 L 141.1 132.4 C 141.1 132.4 141.06 151.64 141.1 151.6 C 141.1 153.3 140.7 154.6 139.9 155.7 C 139.1 156.8 138 157.6 136.6 158.2 C 135.2 158.7 133.6 159 131.7 159 Z M 131.8 147.2 C 132.7 147.2 133.4 147 134 146.6 C 134.6 146.1 135.1 145.5 135.4 144.7 C 135.7 143.9 135.9 143 135.9 141.8 C 135.9 140.7 135.7 139.8 135.4 138.9 C 135.1 138.1 134.6 137.5 134 137 C 133.4 136.6 132.7 136.3 131.8 136.3 C 131 136.3 130.2 136.6 129.6 137 C 129 137.5 128.6 138.1 128.3 139 C 128 139.8 127.8 140.8 127.8 141.8 C 127.8 142.9 128 143.9 128.3 144.7 C 128.6 145.5 129.1 146.1 129.6 146.6 C 130.2 147 131 147.2 131.8 147.2 Z M 153.5 151.8 C 151.5 151.8 149.8 151.4 148.4 150.6 C 147 149.8 145.9 148.7 145.2 147.2 C 144.4 145.8 144 144 144 142 C 144 140 144.4 138.3 145.2 136.8 C 145.9 135.3 147 134.2 148.4 133.4 C 149.8 132.5 151.4 132.1 153.3 132.1 C 154.5 132.1 155.7 132.3 156.8 132.7 C 157.9 133.1 158.8 133.7 159.7 134.5 C 160.5 135.3 161.1 136.3 161.6 137.6 C 162 138.8 162.3 140.2 162.3 141.8 C 162.25 141.81 162.3 143.3 162.3 143.3 L 146.1 143.3 L 146.1 140 C 146.1 140 157.27 139.98 157.3 140 C 157.3 139.2 157.1 138.5 156.8 138 C 156.4 137.4 156 136.9 155.4 136.6 C 154.8 136.2 154.1 136.1 153.4 136.1 C 152.6 136.1 151.9 136.3 151.2 136.6 C 150.6 137 150.1 137.5 149.8 138.1 C 149.4 138.7 149.3 139.4 149.3 140.2 C 149.3 140.2 149.3 143.3 149.3 143.3 C 149.3 144.2 149.4 145 149.8 145.7 C 150.1 146.4 150.6 146.9 151.3 147.3 C 151.9 147.7 152.7 147.9 153.6 147.9 C 154.2 147.9 154.7 147.8 155.2 147.6 C 155.7 147.5 156.1 147.2 156.4 146.9 C 156.8 146.5 157.1 146.1 157.2 145.7 C 157.2 145.7 162.1 146 162.1 146 C 161.9 147.2 161.4 148.2 160.6 149.1 C 159.9 149.9 158.9 150.6 157.7 151.1 C 156.5 151.6 155.1 151.8 153.5 151.8 Z M 180.9 137.8 C 180.9 137.8 176.1 138.1 176.1 138.1 C 176 137.7 175.8 137.3 175.5 137 C 175.2 136.6 174.9 136.4 174.4 136.2 C 174 136 173.5 135.9 172.9 135.9 C 172 135.9 171.3 136 170.8 136.4 C 170.2 136.7 169.9 137.2 169.9 137.8 C 169.9 138.2 170.1 138.6 170.5 138.9 C 170.9 139.2 171.5 139.5 172.4 139.7 C 172.4 139.7 175.8 140.4 175.8 140.4 C 177.7 140.7 179.1 141.4 180 142.2 C 180.9 143.1 181.3 144.2 181.3 145.5 C 181.3 146.8 181 147.9 180.2 148.8 C 179.5 149.8 178.5 150.5 177.2 151 C 176 151.6 174.5 151.8 172.8 151.8 C 170.3 151.8 168.3 151.3 166.8 150.2 C 165.3 149.2 164.4 147.7 164.2 145.9 C 164.2 145.9 169.4 145.7 169.4 145.7 C 169.5 146.4 169.9 147 170.5 147.4 C 171.1 147.8 171.9 148 172.8 148 C 173.8 148 174.5 147.8 175.1 147.5 C 175.7 147.1 175.9 146.6 176 146.1 C 175.9 145.6 175.7 145.2 175.3 144.9 C 174.9 144.6 174.3 144.3 173.5 144.2 C 173.5 144.2 170.2 143.5 170.2 143.5 C 168.3 143.1 167 142.5 166 141.6 C 165.1 140.7 164.7 139.5 164.7 138.1 C 164.7 136.8 165 135.8 165.7 134.9 C 166.4 134 167.3 133.3 168.5 132.8 C 169.7 132.4 171.1 132.1 172.8 132.1 C 175.2 132.1 177.1 132.6 178.5 133.6 C 179.9 134.7 180.7 136.1 180.9 137.8 Z " stroke="none" fill="#ffffff"/>  </g>  <g id="Polygon119634">    <path d="M 18 95.8 C 18 95.8 13.1 96.1 13.1 96.1 C 13.1 95.7 12.9 95.3 12.6 95 C 12.3 94.6 12 94.4 11.5 94.2 C 11.1 94 10.6 93.9 10 93.9 C 9.1 93.9 8.4 94 7.9 94.4 C 7.3 94.7 7 95.2 7 95.8 C 7 96.2 7.2 96.6 7.6 96.9 C 7.9 97.2 8.6 97.5 9.5 97.7 C 9.5 97.7 12.9 98.4 12.9 98.4 C 14.8 98.7 16.2 99.4 17.1 100.2 C 18 101.1 18.4 102.2 18.4 103.5 C 18.4 104.8 18.1 105.9 17.3 106.8 C 16.6 107.8 15.6 108.5 14.3 109 C 13.1 109.6 11.6 109.8 9.9 109.8 C 7.4 109.8 5.4 109.3 3.9 108.2 C 2.4 107.2 1.5 105.7 1.3 103.9 C 1.3 103.9 6.5 103.7 6.5 103.7 C 6.6 104.4 7 105 7.6 105.4 C 8.2 105.8 9 106 9.9 106 C 10.9 106 11.6 105.8 12.2 105.5 C 12.8 105.1 13 104.6 13.1 104.1 C 13 103.6 12.8 103.2 12.4 102.9 C 12 102.6 11.4 102.3 10.6 102.2 C 10.6 102.2 7.3 101.5 7.3 101.5 C 5.4 101.1 4 100.5 3.1 99.6 C 2.2 98.7 1.8 97.5 1.8 96.1 C 1.8 94.8 2.1 93.8 2.8 92.9 C 3.4 92 4.4 91.3 5.6 90.8 C 6.8 90.4 8.2 90.1 9.9 90.1 C 12.3 90.1 14.2 90.6 15.6 91.6 C 17 92.7 17.8 94.1 18 95.8 Z M 29.7 109.8 C 27.7 109.8 26.1 109.4 24.7 108.6 C 23.2 107.7 22.2 106.6 21.4 105.1 C 20.7 103.6 20.3 101.9 20.3 100 C 20.3 98 20.7 96.3 21.4 94.8 C 22.2 93.4 23.3 92.2 24.7 91.4 C 26.1 90.5 27.7 90.1 29.7 90.1 C 31.3 90.1 32.8 90.4 34 91 C 35.3 91.6 36.3 92.5 37 93.6 C 37.7 94.7 38.1 95.9 38.2 97.4 C 38.2 97.4 33.2 97.4 33.2 97.4 C 33.1 96.5 32.7 95.7 32.1 95.1 C 31.5 94.5 30.7 94.2 29.8 94.2 C 28.9 94.2 28.2 94.5 27.6 94.9 C 27 95.3 26.5 96 26.2 96.8 C 25.8 97.7 25.7 98.7 25.7 99.9 C 25.7 101.1 25.8 102.2 26.2 103 C 26.5 103.9 27 104.5 27.6 105 C 28.2 105.4 28.9 105.6 29.8 105.6 C 30.4 105.6 30.9 105.5 31.4 105.3 C 31.9 105 32.3 104.7 32.6 104.2 C 32.9 103.7 33.1 103.1 33.2 102.5 C 33.2 102.5 38.2 102.5 38.2 102.5 C 38.1 103.9 37.7 105.2 37 106.3 C 36.3 107.4 35.3 108.3 34.1 108.9 C 32.9 109.5 31.4 109.8 29.7 109.8 Z M 49.6 109.8 C 47.6 109.8 46 109.4 44.5 108.6 C 43.1 107.8 42 106.7 41.3 105.2 C 40.5 103.8 40.1 102 40.1 100 C 40.1 98 40.5 96.3 41.3 94.8 C 42 93.3 43.1 92.2 44.5 91.4 C 45.9 90.5 47.5 90.1 49.4 90.1 C 50.7 90.1 51.8 90.3 52.9 90.7 C 54 91.1 55 91.7 55.8 92.5 C 56.6 93.3 57.2 94.3 57.7 95.6 C 58.1 96.8 58.4 98.2 58.4 99.8 C 58.37 99.81 58.4 101.3 58.4 101.3 L 42.2 101.3 L 42.2 98 C 42.2 98 53.38 97.98 53.4 98 C 53.4 97.2 53.2 96.5 52.9 96 C 52.6 95.4 52.1 94.9 51.5 94.6 C 50.9 94.2 50.3 94.1 49.5 94.1 C 48.7 94.1 48 94.3 47.3 94.6 C 46.7 95 46.2 95.5 45.9 96.1 C 45.6 96.7 45.4 97.4 45.4 98.2 C 45.4 98.2 45.4 101.3 45.4 101.3 C 45.4 102.2 45.5 103 45.9 103.7 C 46.2 104.4 46.7 104.9 47.4 105.3 C 48 105.7 48.8 105.9 49.7 105.9 C 50.3 105.9 50.8 105.8 51.3 105.6 C 51.8 105.5 52.2 105.2 52.6 104.9 C 52.9 104.5 53.2 104.1 53.4 103.7 C 53.4 103.7 58.3 104 58.3 104 C 58 105.2 57.5 106.2 56.7 107.1 C 56 107.9 55 108.6 53.8 109.1 C 52.6 109.6 51.2 109.8 49.6 109.8 Z M 66.7 98.4 C 66.68 98.42 66.7 109.5 66.7 109.5 L 61.4 109.5 L 61.4 90.4 L 66.4 90.4 L 66.4 93.7 C 66.4 93.7 66.66 93.73 66.7 93.7 C 67.1 92.6 67.8 91.7 68.8 91.1 C 69.8 90.4 71 90.1 72.4 90.1 C 73.7 90.1 74.9 90.4 75.9 91 C 76.9 91.6 77.6 92.4 78.2 93.5 C 78.7 94.5 79 95.8 79 97.3 C 78.99 97.3 79 109.5 79 109.5 L 73.7 109.5 C 73.7 109.5 73.69 98.24 73.7 98.2 C 73.7 97.1 73.4 96.2 72.8 95.5 C 72.2 94.8 71.4 94.5 70.3 94.5 C 69.6 94.5 69 94.7 68.4 95 C 67.9 95.3 67.5 95.7 67.1 96.3 C 66.8 96.9 66.7 97.6 66.7 98.4 Z M 88 109.8 C 86.8 109.8 85.7 109.6 84.8 109.2 C 83.8 108.7 83.1 108.1 82.5 107.3 C 82 106.4 81.7 105.4 81.7 104.1 C 81.7 103.1 81.9 102.2 82.3 101.5 C 82.7 100.7 83.2 100.1 83.9 99.7 C 84.5 99.3 85.3 98.9 86.2 98.7 C 87 98.5 87.9 98.3 88.9 98.2 C 90 98.1 90.9 98 91.5 97.9 C 92.2 97.8 92.7 97.7 93 97.4 C 93.3 97.2 93.5 96.9 93.5 96.5 C 93.5 96.5 93.5 96.5 93.5 96.5 C 93.5 95.7 93.2 95.1 92.7 94.6 C 92.2 94.2 91.6 94 90.6 94 C 89.7 94 88.9 94.2 88.4 94.6 C 87.8 95 87.4 95.6 87.3 96.2 C 87.3 96.2 82.4 95.8 82.4 95.8 C 82.6 94.6 83.1 93.6 83.8 92.8 C 84.6 91.9 85.5 91.3 86.7 90.8 C 87.8 90.3 89.1 90.1 90.7 90.1 C 91.7 90.1 92.7 90.2 93.7 90.5 C 94.7 90.7 95.6 91.1 96.3 91.6 C 97.1 92.2 97.7 92.8 98.1 93.7 C 98.6 94.5 98.8 95.4 98.8 96.6 C 98.78 96.58 98.8 109.5 98.8 109.5 L 93.8 109.5 L 93.8 106.8 C 93.8 106.8 93.61 106.81 93.6 106.8 C 93.3 107.4 92.9 107.9 92.4 108.4 C 91.9 108.8 91.2 109.2 90.5 109.4 C 89.8 109.7 89 109.8 88 109.8 Z M 89.5 106.2 C 90.3 106.2 91 106 91.6 105.7 C 92.2 105.4 92.7 105 93 104.4 C 93.3 103.9 93.5 103.3 93.5 102.6 C 93.5 102.6 93.5 100.6 93.5 100.6 C 93.4 100.7 93.1 100.8 92.8 100.9 C 92.6 101 92.2 101.1 91.9 101.1 C 91.5 101.2 91.2 101.3 90.8 101.3 C 90.5 101.4 90.1 101.4 89.8 101.5 C 89.2 101.6 88.7 101.7 88.2 101.9 C 87.7 102.1 87.4 102.4 87.1 102.7 C 86.9 103 86.7 103.5 86.7 103.9 C 86.7 104.7 87 105.2 87.5 105.6 C 88.1 106 88.7 106.2 89.5 106.2 Z M 102.5 109.5 L 102.5 90.4 L 107.6 90.4 L 107.6 93.7 C 107.6 93.7 107.83 93.69 107.8 93.7 C 108.2 92.5 108.8 91.6 109.6 91 C 110.4 90.4 111.4 90.1 112.4 90.1 C 112.7 90.1 113 90.1 113.3 90.1 C 113.6 90.2 113.9 90.2 114.1 90.3 C 114.1 90.3 114.1 95 114.1 95 C 113.8 94.9 113.5 94.8 113.1 94.8 C 112.6 94.7 112.2 94.7 111.8 94.7 C 111.1 94.7 110.4 94.9 109.8 95.2 C 109.2 95.5 108.7 96 108.3 96.6 C 108 97.2 107.8 97.9 107.8 98.7 C 107.8 98.65 107.8 109.5 107.8 109.5 L 102.5 109.5 Z M 116.1 109.5 L 116.1 90.4 L 121.4 90.4 L 121.4 109.5 L 116.1 109.5 Z M 118.8 87.9 C 118 87.9 117.3 87.6 116.8 87.1 C 116.2 86.6 115.9 86 115.9 85.2 C 115.9 84.5 116.2 83.9 116.8 83.3 C 117.3 82.8 118 82.5 118.8 82.5 C 119.6 82.5 120.2 82.8 120.8 83.3 C 121.4 83.9 121.6 84.5 121.6 85.2 C 121.6 86 121.4 86.6 120.8 87.1 C 120.2 87.6 119.6 87.9 118.8 87.9 Z M 133.7 109.8 C 131.8 109.8 130.1 109.4 128.7 108.6 C 127.3 107.8 126.2 106.6 125.5 105.1 C 124.7 103.7 124.3 101.9 124.3 100 C 124.3 98 124.7 96.3 125.5 94.8 C 126.2 93.3 127.3 92.2 128.7 91.4 C 130.1 90.5 131.8 90.1 133.7 90.1 C 135.6 90.1 137.3 90.5 138.7 91.4 C 140.1 92.2 141.2 93.3 142 94.8 C 142.7 96.3 143.1 98 143.1 100 C 143.1 101.9 142.7 103.7 142 105.1 C 141.2 106.6 140.1 107.8 138.7 108.6 C 137.3 109.4 135.6 109.8 133.7 109.8 Z M 133.7 105.7 C 134.6 105.7 135.3 105.5 135.9 105 C 136.5 104.5 137 103.8 137.3 102.9 C 137.6 102 137.7 101.1 137.7 99.9 C 137.7 98.8 137.6 97.8 137.3 97 C 137 96.1 136.5 95.4 135.9 94.9 C 135.3 94.4 134.6 94.2 133.7 94.2 C 132.8 94.2 132.1 94.4 131.5 94.9 C 130.9 95.4 130.4 96.1 130.1 97 C 129.8 97.8 129.7 98.8 129.7 99.9 C 129.7 101.1 129.8 102 130.1 102.9 C 130.4 103.8 130.9 104.5 131.5 105 C 132.1 105.5 132.8 105.7 133.7 105.7 Z M 153.8 116.6 L 153.8 90.4 L 159.1 90.4 L 159.1 93.6 C 159.1 93.6 159.29 93.57 159.3 93.6 C 159.5 93.1 159.9 92.5 160.3 92 C 160.7 91.5 161.3 91 162 90.7 C 162.8 90.3 163.7 90.1 164.7 90.1 C 166.1 90.1 167.4 90.5 168.6 91.2 C 169.8 91.9 170.7 93 171.4 94.5 C 172.1 95.9 172.5 97.7 172.5 99.9 C 172.5 102.1 172.1 103.9 171.4 105.3 C 170.7 106.8 169.8 107.9 168.6 108.6 C 167.5 109.4 166.2 109.8 164.7 109.8 C 163.7 109.8 162.8 109.6 162.1 109.3 C 161.4 108.9 160.8 108.5 160.3 108 C 159.9 107.5 159.5 106.9 159.3 106.4 C 159.29 106.4 159.1 106.4 159.1 106.4 L 159.1 116.6 L 153.8 116.6 Z M 159 99.9 C 159 101 159.2 102 159.5 102.9 C 159.8 103.7 160.3 104.4 160.9 104.8 C 161.5 105.3 162.2 105.6 163 105.6 C 163.9 105.6 164.6 105.3 165.2 104.8 C 165.8 104.4 166.3 103.7 166.6 102.8 C 166.9 102 167 101 167 99.9 C 167 98.8 166.9 97.8 166.6 97 C 166.3 96.2 165.8 95.5 165.2 95 C 164.6 94.6 163.9 94.3 163 94.3 C 162.2 94.3 161.4 94.6 160.8 95 C 160.3 95.5 159.8 96.1 159.5 97 C 159.2 97.8 159 98.8 159 99.9 Z M 180.8 84 L 180.8 109.5 L 175.5 109.5 L 175.5 84 L 180.8 84 Z M 190 109.8 C 188.8 109.8 187.7 109.6 186.7 109.2 C 185.8 108.7 185 108.1 184.5 107.3 C 183.9 106.4 183.7 105.4 183.7 104.1 C 183.7 103.1 183.9 102.2 184.2 101.5 C 184.6 100.7 185.2 100.1 185.8 99.7 C 186.5 99.3 187.3 98.9 188.1 98.7 C 189 98.5 189.9 98.3 190.8 98.2 C 191.9 98.1 192.8 98 193.5 97.9 C 194.2 97.8 194.7 97.7 195 97.4 C 195.3 97.2 195.5 96.9 195.5 96.5 C 195.5 96.5 195.5 96.5 195.5 96.5 C 195.5 95.7 195.2 95.1 194.7 94.6 C 194.2 94.2 193.5 94 192.6 94 C 191.7 94 190.9 94.2 190.4 94.6 C 189.8 95 189.4 95.6 189.2 96.2 C 189.2 96.2 184.3 95.8 184.3 95.8 C 184.6 94.6 185.1 93.6 185.8 92.8 C 186.5 91.9 187.5 91.3 188.6 90.8 C 189.8 90.3 191.1 90.1 192.6 90.1 C 193.7 90.1 194.7 90.2 195.7 90.5 C 196.7 90.7 197.5 91.1 198.3 91.6 C 199.1 92.2 199.7 92.8 200.1 93.7 C 200.5 94.5 200.8 95.4 200.8 96.6 C 200.75 96.58 200.8 109.5 200.8 109.5 L 195.7 109.5 L 195.7 106.8 C 195.7 106.8 195.58 106.81 195.6 106.8 C 195.3 107.4 194.9 107.9 194.4 108.4 C 193.8 108.8 193.2 109.2 192.5 109.4 C 191.8 109.7 190.9 109.8 190 109.8 Z M 191.5 106.2 C 192.3 106.2 193 106 193.6 105.7 C 194.2 105.4 194.6 105 195 104.4 C 195.3 103.9 195.5 103.3 195.5 102.6 C 195.5 102.6 195.5 100.6 195.5 100.6 C 195.3 100.7 195.1 100.8 194.8 100.9 C 194.5 101 194.2 101.1 193.9 101.1 C 193.5 101.2 193.1 101.3 192.8 101.3 C 192.4 101.4 192.1 101.4 191.8 101.5 C 191.2 101.6 190.7 101.7 190.2 101.9 C 189.7 102.1 189.4 102.4 189.1 102.7 C 188.9 103 188.7 103.5 188.7 103.9 C 188.7 104.7 189 105.2 189.5 105.6 C 190 106 190.7 106.2 191.5 106.2 Z M 209.8 98.4 C 209.77 98.42 209.8 109.5 209.8 109.5 L 204.5 109.5 L 204.5 90.4 L 209.5 90.4 L 209.5 93.7 C 209.5 93.7 209.75 93.73 209.7 93.7 C 210.2 92.6 210.9 91.7 211.9 91.1 C 212.9 90.4 214.1 90.1 215.5 90.1 C 216.8 90.1 218 90.4 219 91 C 219.9 91.6 220.7 92.4 221.3 93.5 C 221.8 94.5 222.1 95.8 222.1 97.3 C 222.08 97.3 222.1 109.5 222.1 109.5 L 216.8 109.5 C 216.8 109.5 216.78 98.24 216.8 98.2 C 216.8 97.1 216.5 96.2 215.9 95.5 C 215.3 94.8 214.5 94.5 213.4 94.5 C 212.7 94.5 212 94.7 211.5 95 C 211 95.3 210.5 95.7 210.2 96.3 C 209.9 96.9 209.8 97.6 209.8 98.4 Z M 231.1 98.4 C 231.1 98.42 231.1 109.5 231.1 109.5 L 225.8 109.5 L 225.8 90.4 L 230.9 90.4 L 230.9 93.7 C 230.9 93.7 231.08 93.73 231.1 93.7 C 231.5 92.6 232.2 91.7 233.2 91.1 C 234.2 90.4 235.4 90.1 236.8 90.1 C 238.1 90.1 239.3 90.4 240.3 91 C 241.3 91.6 242 92.4 242.6 93.5 C 243.1 94.5 243.4 95.8 243.4 97.3 C 243.41 97.3 243.4 109.5 243.4 109.5 L 238.1 109.5 C 238.1 109.5 238.11 98.24 238.1 98.2 C 238.1 97.1 237.8 96.2 237.2 95.5 C 236.6 94.8 235.8 94.5 234.7 94.5 C 234 94.5 233.4 94.7 232.8 95 C 232.3 95.3 231.9 95.7 231.6 96.3 C 231.3 96.9 231.1 97.6 231.1 98.4 Z M 247.1 109.5 L 247.1 90.4 L 252.4 90.4 L 252.4 109.5 L 247.1 109.5 Z M 249.7 87.9 C 248.9 87.9 248.3 87.6 247.7 87.1 C 247.2 86.6 246.9 86 246.9 85.2 C 246.9 84.5 247.2 83.9 247.7 83.3 C 248.3 82.8 249 82.5 249.7 82.5 C 250.5 82.5 251.2 82.8 251.7 83.3 C 252.3 83.9 252.6 84.5 252.6 85.2 C 252.6 86 252.3 86.6 251.7 87.1 C 251.2 87.6 250.5 87.9 249.7 87.9 Z M 261.5 98.4 C 261.47 98.42 261.5 109.5 261.5 109.5 L 256.2 109.5 L 256.2 90.4 L 261.2 90.4 L 261.2 93.7 C 261.2 93.7 261.44 93.73 261.4 93.7 C 261.9 92.6 262.6 91.7 263.6 91.1 C 264.6 90.4 265.8 90.1 267.2 90.1 C 268.5 90.1 269.7 90.4 270.7 91 C 271.6 91.6 272.4 92.4 273 93.5 C 273.5 94.5 273.8 95.8 273.8 97.3 C 273.77 97.3 273.8 109.5 273.8 109.5 L 268.5 109.5 C 268.5 109.5 268.48 98.24 268.5 98.2 C 268.5 97.1 268.2 96.2 267.6 95.5 C 267 94.8 266.1 94.5 265.1 94.5 C 264.4 94.5 263.7 94.7 263.2 95 C 262.7 95.3 262.2 95.7 261.9 96.3 C 261.6 96.9 261.5 97.6 261.5 98.4 Z M 286 117 C 284.3 117 282.8 116.8 281.6 116.3 C 280.4 115.8 279.4 115.2 278.7 114.4 C 277.9 113.6 277.5 112.7 277.3 111.7 C 277.3 111.7 282.2 111 282.2 111 C 282.3 111.4 282.5 111.8 282.9 112.1 C 283.2 112.4 283.6 112.7 284.2 112.9 C 284.7 113.1 285.3 113.2 286.1 113.2 C 287.3 113.2 288.2 112.9 289 112.4 C 289.7 111.8 290.1 110.9 290.1 109.6 C 290.09 109.57 290.1 106.1 290.1 106.1 C 290.1 106.1 289.87 106.07 289.9 106.1 C 289.6 106.6 289.3 107.1 288.8 107.6 C 288.4 108.1 287.8 108.4 287 108.7 C 286.3 109 285.4 109.2 284.4 109.2 C 283 109.2 281.7 108.8 280.5 108.2 C 279.3 107.5 278.4 106.5 277.7 105.1 C 277 103.7 276.7 102 276.7 99.9 C 276.7 97.7 277 95.9 277.7 94.5 C 278.4 93 279.4 91.9 280.5 91.2 C 281.7 90.5 283 90.1 284.4 90.1 C 285.5 90.1 286.4 90.3 287.1 90.7 C 287.8 91 288.4 91.5 288.8 92 C 289.3 92.5 289.6 93.1 289.9 93.6 C 289.87 93.57 290.1 93.6 290.1 93.6 L 290.1 90.4 L 295.3 90.4 C 295.3 90.4 295.32 109.64 295.3 109.6 C 295.3 111.3 294.9 112.6 294.1 113.7 C 293.3 114.8 292.2 115.6 290.8 116.2 C 289.4 116.7 287.8 117 286 117 Z M 286.1 105.2 C 287 105.2 287.7 105 288.3 104.6 C 288.9 104.1 289.3 103.5 289.6 102.7 C 290 101.9 290.1 101 290.1 99.8 C 290.1 98.7 290 97.8 289.6 96.9 C 289.3 96.1 288.9 95.5 288.3 95 C 287.7 94.6 287 94.3 286.1 94.3 C 285.2 94.3 284.5 94.6 283.9 95 C 283.3 95.5 282.9 96.1 282.5 97 C 282.2 97.8 282.1 98.8 282.1 99.8 C 282.1 100.9 282.2 101.9 282.6 102.7 C 282.9 103.5 283.3 104.1 283.9 104.6 C 284.5 105 285.2 105.2 286.1 105.2 Z " stroke="none" fill="#ffffff"/>  </g>  <g id="Polygon119633">    <path d="M 12.3 48.4 L 12.3 52.3 L 0.8 52.3 L 0.8 48.4 L 12.3 48.4 Z M 3.4 43.8 L 8.7 43.8 C 8.7 43.8 8.68 61.59 8.7 61.6 C 8.7 62.1 8.8 62.5 8.9 62.7 C 9 63 9.3 63.2 9.5 63.3 C 9.8 63.4 10.1 63.5 10.5 63.5 C 10.7 63.5 11 63.4 11.2 63.4 C 11.5 63.3 11.7 63.3 11.8 63.3 C 11.8 63.3 12.6 67.2 12.6 67.2 C 12.4 67.3 12 67.4 11.5 67.5 C 11 67.6 10.4 67.7 9.7 67.7 C 8.5 67.8 7.4 67.6 6.4 67.2 C 5.4 66.8 4.7 66.2 4.2 65.4 C 3.6 64.6 3.4 63.5 3.4 62.3 C 3.38 62.28 3.4 43.8 3.4 43.8 Z M 20.4 56.4 C 20.36 56.42 20.4 67.5 20.4 67.5 L 15.1 67.5 L 15.1 42 L 20.2 42 L 20.2 51.7 C 20.2 51.7 20.44 51.73 20.4 51.7 C 20.9 50.6 21.6 49.7 22.5 49.1 C 23.5 48.4 24.7 48.1 26.1 48.1 C 27.5 48.1 28.6 48.4 29.6 49 C 30.6 49.6 31.4 50.4 31.9 51.5 C 32.5 52.5 32.8 53.8 32.7 55.3 C 32.74 55.3 32.7 67.5 32.7 67.5 L 27.4 67.5 C 27.4 67.5 27.45 56.24 27.4 56.2 C 27.5 55.1 27.2 54.2 26.6 53.5 C 26 52.8 25.1 52.5 24 52.5 C 23.3 52.5 22.7 52.7 22.1 53 C 21.6 53.3 21.2 53.7 20.8 54.3 C 20.5 54.9 20.4 55.6 20.4 56.4 Z M 45 67.8 C 43.1 67.8 41.4 67.4 40 66.6 C 38.6 65.8 37.5 64.7 36.7 63.2 C 35.9 61.8 35.6 60 35.6 58 C 35.6 56 35.9 54.3 36.7 52.8 C 37.5 51.3 38.5 50.2 39.9 49.4 C 41.3 48.5 43 48.1 44.8 48.1 C 46.1 48.1 47.3 48.3 48.3 48.7 C 49.4 49.1 50.4 49.7 51.2 50.5 C 52 51.3 52.7 52.3 53.1 53.6 C 53.6 54.8 53.8 56.2 53.8 57.8 C 53.8 57.81 53.8 59.3 53.8 59.3 L 37.7 59.3 L 37.7 56 C 37.7 56 48.81 55.98 48.8 56 C 48.8 55.2 48.6 54.5 48.3 54 C 48 53.4 47.5 52.9 46.9 52.6 C 46.4 52.2 45.7 52.1 44.9 52.1 C 44.1 52.1 43.4 52.3 42.8 52.6 C 42.2 53 41.7 53.5 41.3 54.1 C 41 54.7 40.8 55.4 40.8 56.2 C 40.8 56.2 40.8 59.3 40.8 59.3 C 40.8 60.2 41 61 41.3 61.7 C 41.7 62.4 42.2 62.9 42.8 63.3 C 43.5 63.7 44.2 63.9 45.1 63.9 C 45.7 63.9 46.2 63.8 46.7 63.6 C 47.2 63.5 47.6 63.2 48 62.9 C 48.3 62.5 48.6 62.1 48.8 61.7 C 48.8 61.7 53.7 62 53.7 62 C 53.4 63.2 52.9 64.2 52.2 65.1 C 51.4 65.9 50.4 66.6 49.2 67.1 C 48 67.6 46.6 67.8 45 67.8 Z M 64.5 67.5 L 64.5 48.4 L 69.7 48.4 L 69.7 51.7 C 69.7 51.7 69.86 51.69 69.9 51.7 C 70.2 50.5 70.8 49.6 71.6 49 C 72.4 48.4 73.4 48.1 74.4 48.1 C 74.7 48.1 75 48.1 75.3 48.1 C 75.6 48.2 75.9 48.2 76.1 48.3 C 76.1 48.3 76.1 53 76.1 53 C 75.9 52.9 75.5 52.8 75.1 52.8 C 74.6 52.7 74.2 52.7 73.9 52.7 C 73.1 52.7 72.4 52.9 71.8 53.2 C 71.2 53.5 70.7 54 70.4 54.6 C 70 55.2 69.8 55.9 69.8 56.7 C 69.82 56.65 69.8 67.5 69.8 67.5 L 64.5 67.5 Z M 78.1 67.5 L 78.1 48.4 L 83.4 48.4 L 83.4 67.5 L 78.1 67.5 Z M 80.8 45.9 C 80 45.9 79.3 45.6 78.8 45.1 C 78.2 44.6 77.9 44 77.9 43.2 C 77.9 42.5 78.2 41.9 78.8 41.3 C 79.4 40.8 80 40.5 80.8 40.5 C 81.6 40.5 82.3 40.8 82.8 41.3 C 83.4 41.9 83.7 42.5 83.7 43.2 C 83.7 44 83.4 44.6 82.8 45.1 C 82.3 45.6 81.6 45.9 80.8 45.9 Z M 95.7 75 C 94 75 92.5 74.8 91.3 74.3 C 90 73.8 89.1 73.2 88.4 72.4 C 87.6 71.6 87.2 70.7 86.9 69.7 C 86.9 69.7 91.8 69 91.8 69 C 92 69.4 92.2 69.8 92.6 70.1 C 92.9 70.4 93.3 70.7 93.8 70.9 C 94.4 71.1 95 71.2 95.8 71.2 C 96.9 71.2 97.9 70.9 98.6 70.4 C 99.4 69.8 99.8 68.9 99.8 67.6 C 99.77 67.57 99.8 64.1 99.8 64.1 C 99.8 64.1 99.55 64.07 99.5 64.1 C 99.3 64.6 99 65.1 98.5 65.6 C 98 66.1 97.4 66.4 96.7 66.7 C 96 67 95.1 67.2 94.1 67.2 C 92.7 67.2 91.4 66.8 90.2 66.2 C 89 65.5 88.1 64.5 87.4 63.1 C 86.7 61.7 86.4 60 86.4 57.9 C 86.4 55.7 86.7 53.9 87.4 52.5 C 88.1 51 89.1 49.9 90.2 49.2 C 91.4 48.5 92.7 48.1 94.1 48.1 C 95.2 48.1 96.1 48.3 96.8 48.7 C 97.5 49 98.1 49.5 98.5 50 C 99 50.5 99.3 51.1 99.5 51.6 C 99.55 51.57 99.7 51.6 99.7 51.6 L 99.7 48.4 L 105 48.4 C 105 48.4 105 67.64 105 67.6 C 105 69.3 104.6 70.6 103.8 71.7 C 103 72.8 101.9 73.6 100.5 74.2 C 99.1 74.7 97.5 75 95.7 75 Z M 95.8 63.2 C 96.6 63.2 97.4 63 98 62.6 C 98.5 62.1 99 61.5 99.3 60.7 C 99.6 59.9 99.8 59 99.8 57.8 C 99.8 56.7 99.6 55.8 99.3 54.9 C 99 54.1 98.6 53.5 98 53 C 97.4 52.6 96.6 52.3 95.8 52.3 C 94.9 52.3 94.2 52.6 93.6 53 C 93 53.5 92.5 54.1 92.2 55 C 91.9 55.8 91.8 56.8 91.8 57.8 C 91.8 58.9 91.9 59.9 92.2 60.7 C 92.5 61.5 93 62.1 93.6 62.6 C 94.2 63 94.9 63.2 95.8 63.2 Z M 114.1 56.4 C 114.09 56.42 114.1 67.5 114.1 67.5 L 108.8 67.5 L 108.8 42 L 113.9 42 L 113.9 51.7 C 113.9 51.7 114.17 51.73 114.2 51.7 C 114.6 50.6 115.3 49.7 116.3 49.1 C 117.2 48.4 118.4 48.1 119.9 48.1 C 121.2 48.1 122.4 48.4 123.3 49 C 124.3 49.6 125.1 50.4 125.7 51.5 C 126.2 52.5 126.5 53.8 126.5 55.3 C 126.47 55.3 126.5 67.5 126.5 67.5 L 121.2 67.5 C 121.2 67.5 121.18 56.24 121.2 56.2 C 121.2 55.1 120.9 54.2 120.3 53.5 C 119.7 52.8 118.9 52.5 117.8 52.5 C 117.1 52.5 116.4 52.7 115.9 53 C 115.3 53.3 114.9 53.7 114.6 54.3 C 114.3 54.9 114.1 55.6 114.1 56.4 Z M 139.9 48.4 L 139.9 52.3 L 128.4 52.3 L 128.4 48.4 L 139.9 48.4 Z M 131 43.8 L 136.3 43.8 C 136.3 43.8 136.3 61.59 136.3 61.6 C 136.3 62.1 136.4 62.5 136.5 62.7 C 136.7 63 136.9 63.2 137.1 63.3 C 137.4 63.4 137.7 63.5 138.1 63.5 C 138.3 63.5 138.6 63.4 138.8 63.4 C 139.1 63.3 139.3 63.3 139.4 63.3 C 139.4 63.3 140.2 67.2 140.2 67.2 C 140 67.3 139.6 67.4 139.1 67.5 C 138.6 67.6 138.1 67.7 137.4 67.7 C 136.1 67.8 135 67.6 134 67.2 C 133.1 66.8 132.3 66.2 131.8 65.4 C 131.3 64.6 131 63.5 131 62.3 C 131 62.28 131 43.8 131 43.8 Z M 155.1 67.5 L 149.3 67.5 L 158.1 42 L 165 42 L 173.8 67.5 L 168.1 67.5 L 161.7 47.8 L 161.5 47.8 L 155.1 67.5 Z M 154.7 57.4 L 168.4 57.4 L 168.4 61.7 L 154.7 61.7 L 154.7 57.4 Z M 181.8 42 L 181.8 67.5 L 176.4 67.5 L 176.4 42 L 181.8 42 Z M 203.7 48.4 L 203.7 52.3 L 191.9 52.3 L 191.9 48.4 L 203.7 48.4 Z M 194.6 67.5 C 194.6 67.5 194.59 46.98 194.6 47 C 194.6 45.6 194.9 44.5 195.4 43.5 C 195.9 42.6 196.7 41.9 197.6 41.5 C 198.6 41 199.7 40.8 200.9 40.8 C 201.7 40.8 202.4 40.9 203.1 41 C 203.8 41.1 204.3 41.2 204.6 41.3 C 204.6 41.3 203.6 45.3 203.6 45.3 C 203.4 45.2 203.2 45.2 202.9 45.1 C 202.6 45.1 202.3 45 202 45 C 201.2 45 200.6 45.2 200.3 45.6 C 200 45.9 199.9 46.4 199.9 47.1 C 199.87 47.08 199.9 67.5 199.9 67.5 L 194.6 67.5 Z M 214.4 67.8 C 212.4 67.8 210.8 67.4 209.4 66.6 C 208 65.8 206.9 64.6 206.1 63.1 C 205.4 61.7 205 59.9 205 58 C 205 56 205.4 54.3 206.1 52.8 C 206.9 51.3 208 50.2 209.4 49.4 C 210.8 48.5 212.4 48.1 214.4 48.1 C 216.3 48.1 218 48.5 219.4 49.4 C 220.8 50.2 221.9 51.3 222.6 52.8 C 223.4 54.3 223.8 56 223.8 58 C 223.8 59.9 223.4 61.7 222.6 63.1 C 221.9 64.6 220.8 65.8 219.4 66.6 C 218 67.4 216.3 67.8 214.4 67.8 Z M 214.4 63.7 C 215.3 63.7 216 63.5 216.6 63 C 217.2 62.5 217.6 61.8 217.9 60.9 C 218.2 60 218.4 59.1 218.4 57.9 C 218.4 56.8 218.2 55.8 217.9 55 C 217.6 54.1 217.2 53.4 216.6 52.9 C 216 52.4 215.3 52.2 214.4 52.2 C 213.5 52.2 212.8 52.4 212.2 52.9 C 211.6 53.4 211.1 54.1 210.8 55 C 210.5 55.8 210.4 56.8 210.4 57.9 C 210.4 59.1 210.5 60 210.8 60.9 C 211.1 61.8 211.6 62.5 212.2 63 C 212.8 63.5 213.5 63.7 214.4 63.7 Z M 226.7 67.5 L 226.7 48.4 L 231.8 48.4 L 231.8 51.7 C 231.8 51.7 232.01 51.69 232 51.7 C 232.4 50.5 232.9 49.6 233.8 49 C 234.6 48.4 235.5 48.1 236.6 48.1 C 236.9 48.1 237.1 48.1 237.4 48.1 C 237.8 48.2 238 48.2 238.3 48.3 C 238.3 48.3 238.3 53 238.3 53 C 238 52.9 237.7 52.8 237.2 52.8 C 236.8 52.7 236.4 52.7 236 52.7 C 235.2 52.7 234.5 52.9 233.9 53.2 C 233.3 53.5 232.8 54 232.5 54.6 C 232.1 55.2 232 55.9 232 56.7 C 231.97 56.65 232 67.5 232 67.5 L 226.7 67.5 Z " stroke="none" fill="#ffffff"/>  </g>  <g id="Polygon119632">    <path d="M 6.6 25.5 L 0.8 25.5 L 9.6 0 L 16.6 0 L 25.3 25.5 L 19.6 25.5 L 13.2 5.8 L 13 5.8 L 6.6 25.5 Z M 6.2 15.4 L 19.9 15.4 L 19.9 19.7 L 6.2 19.7 L 6.2 15.4 Z M 33 14.4 C 32.97 14.42 33 25.5 33 25.5 L 27.7 25.5 L 27.7 6.4 L 32.7 6.4 L 32.7 9.7 C 32.7 9.7 32.94 9.73 32.9 9.7 C 33.4 8.6 34.1 7.7 35.1 7.1 C 36.1 6.4 37.3 6.1 38.7 6.1 C 40 6.1 41.2 6.4 42.2 7 C 43.1 7.6 43.9 8.4 44.5 9.5 C 45 10.5 45.3 11.8 45.3 13.3 C 45.27 13.3 45.3 25.5 45.3 25.5 L 40 25.5 C 40 25.5 39.98 14.24 40 14.2 C 40 13.1 39.7 12.2 39.1 11.5 C 38.5 10.8 37.6 10.5 36.6 10.5 C 35.9 10.5 35.2 10.7 34.7 11 C 34.2 11.3 33.7 11.7 33.4 12.3 C 33.1 12.9 33 13.6 33 14.4 Z M 54.3 25.8 C 53.1 25.8 52 25.6 51.1 25.2 C 50.1 24.7 49.3 24.1 48.8 23.3 C 48.2 22.4 48 21.4 48 20.1 C 48 19.1 48.2 18.2 48.6 17.5 C 48.9 16.7 49.5 16.1 50.1 15.7 C 50.8 15.3 51.6 14.9 52.4 14.7 C 53.3 14.5 54.2 14.3 55.1 14.2 C 56.3 14.1 57.1 14 57.8 13.9 C 58.5 13.8 59 13.7 59.3 13.4 C 59.6 13.2 59.8 12.9 59.8 12.5 C 59.8 12.5 59.8 12.5 59.8 12.5 C 59.8 11.7 59.5 11.1 59 10.6 C 58.5 10.2 57.8 10 56.9 10 C 56 10 55.2 10.2 54.7 10.6 C 54.1 11 53.7 11.6 53.5 12.2 C 53.5 12.2 48.6 11.8 48.6 11.8 C 48.9 10.6 49.4 9.6 50.1 8.8 C 50.8 7.9 51.8 7.3 52.9 6.8 C 54.1 6.3 55.4 6.1 57 6.1 C 58 6.1 59 6.2 60 6.5 C 61 6.7 61.8 7.1 62.6 7.6 C 63.4 8.2 64 8.8 64.4 9.7 C 64.8 10.5 65.1 11.4 65.1 12.6 C 65.06 12.58 65.1 25.5 65.1 25.5 L 60 25.5 L 60 22.8 C 60 22.8 59.89 22.81 59.9 22.8 C 59.6 23.4 59.2 23.9 58.7 24.4 C 58.1 24.8 57.5 25.2 56.8 25.4 C 56.1 25.7 55.3 25.8 54.3 25.8 Z M 55.8 22.2 C 56.6 22.2 57.3 22 57.9 21.7 C 58.5 21.4 59 21 59.3 20.4 C 59.6 19.9 59.8 19.3 59.8 18.6 C 59.8 18.6 59.8 16.6 59.8 16.6 C 59.6 16.7 59.4 16.8 59.1 16.9 C 58.8 17 58.5 17.1 58.2 17.1 C 57.8 17.2 57.4 17.3 57.1 17.3 C 56.7 17.4 56.4 17.4 56.1 17.5 C 55.5 17.6 55 17.7 54.5 17.9 C 54 18.1 53.7 18.4 53.4 18.7 C 53.2 19 53 19.5 53 19.9 C 53 20.7 53.3 21.2 53.8 21.6 C 54.3 22 55 22.2 55.8 22.2 Z M 68.8 32.6 L 68.8 6.4 L 74 6.4 L 74 9.6 C 74 9.6 74.24 9.57 74.2 9.6 C 74.5 9.1 74.8 8.5 75.3 8 C 75.7 7.5 76.3 7 77 6.7 C 77.7 6.3 78.6 6.1 79.7 6.1 C 81.1 6.1 82.3 6.5 83.5 7.2 C 84.7 7.9 85.6 9 86.3 10.5 C 87.1 11.9 87.4 13.7 87.4 15.9 C 87.4 18.1 87.1 19.9 86.4 21.3 C 85.7 22.8 84.8 23.9 83.6 24.6 C 82.4 25.4 81.1 25.8 79.7 25.8 C 78.6 25.8 77.8 25.6 77 25.3 C 76.3 24.9 75.7 24.5 75.3 24 C 74.8 23.5 74.5 22.9 74.2 22.4 C 74.24 22.4 74.1 22.4 74.1 22.4 L 74.1 32.6 L 68.8 32.6 Z M 74 15.9 C 74 17 74.1 18 74.4 18.9 C 74.8 19.7 75.2 20.4 75.8 20.8 C 76.4 21.3 77.1 21.6 78 21.6 C 78.8 21.6 79.6 21.3 80.2 20.8 C 80.8 20.4 81.2 19.7 81.5 18.8 C 81.8 18 82 17 82 15.9 C 82 14.8 81.8 13.8 81.5 13 C 81.2 12.2 80.8 11.5 80.2 11 C 79.6 10.6 78.9 10.3 78 10.3 C 77.1 10.3 76.4 10.6 75.8 11 C 75.2 11.5 74.8 12.1 74.4 13 C 74.1 13.8 74 14.8 74 15.9 Z M 95.8 0 L 95.8 25.5 L 90.5 25.5 L 90.5 0 L 95.8 0 Z M 105 25.8 C 103.7 25.8 102.6 25.6 101.7 25.2 C 100.7 24.7 100 24.1 99.4 23.3 C 98.9 22.4 98.6 21.4 98.6 20.1 C 98.6 19.1 98.8 18.2 99.2 17.5 C 99.6 16.7 100.1 16.1 100.8 15.7 C 101.5 15.3 102.2 14.9 103.1 14.7 C 103.9 14.5 104.8 14.3 105.8 14.2 C 106.9 14.1 107.8 14 108.5 13.9 C 109.1 13.8 109.6 13.7 109.9 13.4 C 110.3 13.2 110.4 12.9 110.4 12.5 C 110.4 12.5 110.4 12.5 110.4 12.5 C 110.4 11.7 110.2 11.1 109.7 10.6 C 109.2 10.2 108.5 10 107.6 10 C 106.6 10 105.9 10.2 105.3 10.6 C 104.7 11 104.4 11.6 104.2 12.2 C 104.2 12.2 99.3 11.8 99.3 11.8 C 99.5 10.6 100 9.6 100.8 8.8 C 101.5 7.9 102.4 7.3 103.6 6.8 C 104.7 6.3 106.1 6.1 107.6 6.1 C 108.7 6.1 109.7 6.2 110.7 6.5 C 111.6 6.7 112.5 7.1 113.2 7.6 C 114 8.2 114.6 8.8 115 9.7 C 115.5 10.5 115.7 11.4 115.7 12.6 C 115.7 12.58 115.7 25.5 115.7 25.5 L 110.7 25.5 L 110.7 22.8 C 110.7 22.8 110.53 22.81 110.5 22.8 C 110.2 23.4 109.8 23.9 109.3 24.4 C 108.8 24.8 108.2 25.2 107.5 25.4 C 106.7 25.7 105.9 25.8 105 25.8 Z M 106.5 22.2 C 107.2 22.2 107.9 22 108.5 21.7 C 109.1 21.4 109.6 21 109.9 20.4 C 110.3 19.9 110.4 19.3 110.4 18.6 C 110.4 18.6 110.4 16.6 110.4 16.6 C 110.3 16.7 110.1 16.8 109.8 16.9 C 109.5 17 109.2 17.1 108.8 17.1 C 108.4 17.2 108.1 17.3 107.7 17.3 C 107.4 17.4 107.1 17.4 106.8 17.5 C 106.1 17.6 105.6 17.7 105.1 17.9 C 104.7 18.1 104.3 18.4 104.1 18.7 C 103.8 19 103.7 19.5 103.7 19.9 C 103.7 20.7 103.9 21.2 104.5 21.6 C 105 22 105.7 22.2 106.5 22.2 Z M 124.7 14.4 C 124.72 14.42 124.7 25.5 124.7 25.5 L 119.4 25.5 L 119.4 6.4 L 124.5 6.4 L 124.5 9.7 C 124.5 9.7 124.7 9.73 124.7 9.7 C 125.1 8.6 125.8 7.7 126.8 7.1 C 127.8 6.4 129 6.1 130.4 6.1 C 131.8 6.1 132.9 6.4 133.9 7 C 134.9 7.6 135.7 8.4 136.2 9.5 C 136.8 10.5 137 11.8 137 13.3 C 137.03 13.3 137 25.5 137 25.5 L 131.7 25.5 C 131.7 25.5 131.73 14.24 131.7 14.2 C 131.7 13.1 131.4 12.2 130.8 11.5 C 130.2 10.8 129.4 10.5 128.3 10.5 C 127.6 10.5 127 10.7 126.5 11 C 125.9 11.3 125.5 11.7 125.2 12.3 C 124.9 12.9 124.7 13.6 124.7 14.4 Z M 148.5 32.6 L 148.5 6.4 L 153.7 6.4 L 153.7 9.6 C 153.7 9.6 153.92 9.57 153.9 9.6 C 154.2 9.1 154.5 8.5 154.9 8 C 155.4 7.5 156 7 156.7 6.7 C 157.4 6.3 158.3 6.1 159.4 6.1 C 160.7 6.1 162 6.5 163.2 7.2 C 164.4 7.9 165.3 9 166 10.5 C 166.7 11.9 167.1 13.7 167.1 15.9 C 167.1 18.1 166.7 19.9 166.1 21.3 C 165.4 22.8 164.4 23.9 163.3 24.6 C 162.1 25.4 160.8 25.8 159.3 25.8 C 158.3 25.8 157.4 25.6 156.7 25.3 C 156 24.9 155.4 24.5 155 24 C 154.5 23.5 154.2 22.9 153.9 22.4 C 153.92 22.4 153.8 22.4 153.8 22.4 L 153.8 32.6 L 148.5 32.6 Z M 153.7 15.9 C 153.7 17 153.8 18 154.1 18.9 C 154.4 19.7 154.9 20.4 155.5 20.8 C 156.1 21.3 156.8 21.6 157.7 21.6 C 158.5 21.6 159.3 21.3 159.9 20.8 C 160.4 20.4 160.9 19.7 161.2 18.8 C 161.5 18 161.7 17 161.7 15.9 C 161.7 14.8 161.5 13.8 161.2 13 C 160.9 12.2 160.5 11.5 159.9 11 C 159.3 10.6 158.5 10.3 157.7 10.3 C 156.8 10.3 156.1 10.6 155.5 11 C 154.9 11.5 154.4 12.1 154.1 13 C 153.8 13.8 153.7 14.8 153.7 15.9 Z M 170.1 25.5 L 170.1 6.4 L 175.3 6.4 L 175.3 9.7 C 175.3 9.7 175.47 9.69 175.5 9.7 C 175.8 8.5 176.4 7.6 177.2 7 C 178 6.4 179 6.1 180.1 6.1 C 180.3 6.1 180.6 6.1 180.9 6.1 C 181.2 6.2 181.5 6.2 181.7 6.3 C 181.7 6.3 181.7 11 181.7 11 C 181.5 10.9 181.1 10.8 180.7 10.8 C 180.3 10.7 179.8 10.7 179.5 10.7 C 178.7 10.7 178 10.9 177.4 11.2 C 176.8 11.5 176.3 12 176 12.6 C 175.6 13.2 175.4 13.9 175.4 14.7 C 175.43 14.65 175.4 25.5 175.4 25.5 L 170.1 25.5 Z M 192.3 25.8 C 190.4 25.8 188.7 25.4 187.3 24.6 C 185.9 23.8 184.9 22.6 184.1 21.1 C 183.3 19.7 182.9 17.9 182.9 16 C 182.9 14 183.3 12.3 184.1 10.8 C 184.9 9.3 185.9 8.2 187.3 7.4 C 188.7 6.5 190.4 6.1 192.3 6.1 C 194.3 6.1 195.9 6.5 197.3 7.4 C 198.7 8.2 199.8 9.3 200.6 10.8 C 201.4 12.3 201.7 14 201.7 16 C 201.7 17.9 201.4 19.7 200.6 21.1 C 199.8 22.6 198.7 23.8 197.3 24.6 C 195.9 25.4 194.3 25.8 192.3 25.8 Z M 192.4 21.7 C 193.2 21.7 194 21.5 194.6 21 C 195.2 20.5 195.6 19.8 195.9 18.9 C 196.2 18 196.4 17.1 196.4 15.9 C 196.4 14.8 196.2 13.8 195.9 13 C 195.6 12.1 195.2 11.4 194.6 10.9 C 194 10.4 193.2 10.2 192.4 10.2 C 191.5 10.2 190.7 10.4 190.1 10.9 C 189.5 11.4 189.1 12.1 188.8 13 C 188.5 13.8 188.3 14.8 188.3 15.9 C 188.3 17.1 188.5 18 188.8 18.9 C 189.1 19.8 189.5 20.5 190.1 21 C 190.7 21.5 191.5 21.7 192.4 21.7 Z M 221.5 6.4 L 214.9 25.5 L 208.9 25.5 L 202.2 6.4 L 207.8 6.4 L 211.8 20 L 212 20 L 215.9 6.4 L 221.5 6.4 Z M 223.5 25.5 L 223.5 6.4 L 228.8 6.4 L 228.8 25.5 L 223.5 25.5 Z M 226.2 3.9 C 225.4 3.9 224.7 3.6 224.2 3.1 C 223.6 2.6 223.3 2 223.3 1.2 C 223.3 0.5 223.6 -0.1 224.2 -0.7 C 224.8 -1.2 225.4 -1.5 226.2 -1.5 C 227 -1.5 227.7 -1.2 228.2 -0.7 C 228.8 -0.1 229.1 0.5 229.1 1.2 C 229.1 2 228.8 2.6 228.2 3.1 C 227.7 3.6 227 3.9 226.2 3.9 Z M 239.6 25.8 C 238.1 25.8 236.8 25.4 235.6 24.6 C 234.5 23.9 233.5 22.8 232.8 21.3 C 232.2 19.9 231.8 18.1 231.8 15.9 C 231.8 13.7 232.2 11.9 232.9 10.5 C 233.6 9 234.5 7.9 235.7 7.2 C 236.9 6.5 238.2 6.1 239.6 6.1 C 240.6 6.1 241.5 6.3 242.2 6.7 C 243 7 243.5 7.5 244 8 C 244.4 8.5 244.8 9.1 245 9.6 C 244.99 9.57 245.1 9.6 245.1 9.6 L 245.1 0 L 250.4 0 L 250.4 25.5 L 245.2 25.5 L 245.2 22.4 C 245.2 22.4 244.99 22.4 245 22.4 C 244.7 22.9 244.4 23.5 243.9 24 C 243.5 24.5 242.9 24.9 242.2 25.3 C 241.5 25.6 240.6 25.8 239.6 25.8 Z M 241.2 21.6 C 242.1 21.6 242.8 21.3 243.4 20.8 C 244 20.4 244.5 19.7 244.8 18.9 C 245.1 18 245.3 17 245.3 15.9 C 245.3 14.8 245.1 13.8 244.8 13 C 244.5 12.1 244 11.5 243.4 11 C 242.8 10.6 242.1 10.3 241.2 10.3 C 240.4 10.3 239.6 10.6 239 11 C 238.4 11.5 238 12.2 237.7 13 C 237.4 13.8 237.2 14.8 237.2 15.9 C 237.2 17 237.4 18 237.7 18.8 C 238 19.7 238.5 20.4 239.1 20.8 C 239.6 21.3 240.4 21.6 241.2 21.6 Z M 262.9 25.8 C 261 25.8 259.3 25.4 257.9 24.6 C 256.4 23.8 255.3 22.7 254.6 21.2 C 253.8 19.8 253.4 18 253.4 16 C 253.4 14 253.8 12.3 254.6 10.8 C 255.3 9.3 256.4 8.2 257.8 7.4 C 259.2 6.5 260.8 6.1 262.7 6.1 C 264 6.1 265.1 6.3 266.2 6.7 C 267.3 7.1 268.3 7.7 269.1 8.5 C 269.9 9.3 270.5 10.3 271 11.6 C 271.4 12.8 271.7 14.2 271.7 15.8 C 271.68 15.81 271.7 17.3 271.7 17.3 L 255.6 17.3 L 255.6 14 C 255.6 14 266.69 13.98 266.7 14 C 266.7 13.2 266.5 12.5 266.2 12 C 265.9 11.4 265.4 10.9 264.8 10.6 C 264.2 10.2 263.6 10.1 262.8 10.1 C 262 10.1 261.3 10.3 260.7 10.6 C 260 11 259.6 11.5 259.2 12.1 C 258.9 12.7 258.7 13.4 258.7 14.2 C 258.7 14.2 258.7 17.3 258.7 17.3 C 258.7 18.2 258.9 19 259.2 19.7 C 259.6 20.4 260.1 20.9 260.7 21.3 C 261.3 21.7 262.1 21.9 263 21.9 C 263.6 21.9 264.1 21.8 264.6 21.6 C 265.1 21.5 265.5 21.2 265.9 20.9 C 266.2 20.5 266.5 20.1 266.7 19.7 C 266.7 19.7 271.6 20 271.6 20 C 271.3 21.2 270.8 22.2 270 23.1 C 269.3 23.9 268.3 24.6 267.1 25.1 C 265.9 25.6 264.5 25.8 262.9 25.8 Z M 290.3 11.8 C 290.3 11.8 285.5 12.1 285.5 12.1 C 285.4 11.7 285.2 11.3 284.9 11 C 284.7 10.6 284.3 10.4 283.9 10.2 C 283.4 10 282.9 9.9 282.3 9.9 C 281.5 9.9 280.8 10 280.2 10.4 C 279.6 10.7 279.4 11.2 279.4 11.8 C 279.4 12.2 279.5 12.6 279.9 12.9 C 280.3 13.2 280.9 13.5 281.8 13.7 C 281.8 13.7 285.2 14.4 285.2 14.4 C 287.1 14.7 288.5 15.4 289.4 16.2 C 290.3 17.1 290.8 18.2 290.8 19.5 C 290.8 20.8 290.4 21.9 289.7 22.8 C 288.9 23.8 287.9 24.5 286.7 25 C 285.4 25.6 283.9 25.8 282.3 25.8 C 279.7 25.8 277.7 25.3 276.2 24.2 C 274.7 23.2 273.9 21.7 273.6 19.9 C 273.6 19.9 278.8 19.7 278.8 19.7 C 279 20.4 279.3 21 279.9 21.4 C 280.6 21.8 281.3 22 282.3 22 C 283.2 22 283.9 21.8 284.5 21.5 C 285.1 21.1 285.4 20.6 285.4 20.1 C 285.4 19.6 285.2 19.2 284.8 18.9 C 284.4 18.6 283.8 18.3 282.9 18.2 C 282.9 18.2 279.6 17.5 279.6 17.5 C 277.8 17.1 276.4 16.5 275.5 15.6 C 274.6 14.7 274.1 13.5 274.1 12.1 C 274.1 10.8 274.4 9.8 275.1 8.9 C 275.8 8 276.7 7.3 277.9 6.8 C 279.1 6.4 280.6 6.1 282.2 6.1 C 284.6 6.1 286.5 6.6 287.9 7.6 C 289.3 8.7 290.1 10.1 290.3 11.8 Z " stroke="none" fill="#ffffff"/>  </g></svg>