<?xml version="1.0" standalone="no"?><!DOCTYPE svg PUBLIC "-//W3C//DTD SVG 1.1//EN" "http://www.w3.org/Graphics/SVG/1.1/DTD/svg11.dtd"><svg xmlns="http://www.w3.org/2000/svg" version="1.1" width="1212px" height="232px" viewBox="0 -11 1212 232" style="top:-11px">  <desc>Be the next. With Anaplan Intelligence.</desc>  <defs/>  <g id="Polygon126006">    <path d="M 18.8 173.4 L 1.6 113 L 15.5 113 L 25.5 155 L 26 155 L 37 113 L 49 113 L 60 155.1 L 60.5 155.1 L 70.5 113 L 84.4 113 L 67.1 173.4 L 54.7 173.4 L 43.2 133.9 L 42.7 133.9 L 31.3 173.4 L 18.8 173.4 Z M 90 173.4 L 90 128.1 L 102.6 128.1 L 102.6 173.4 L 90 173.4 Z M 96.4 122.3 C 94.5 122.3 92.9 121.7 91.6 120.4 C 90.2 119.2 89.6 117.7 89.6 116 C 89.6 114.2 90.2 112.7 91.6 111.5 C 92.9 110.2 94.5 109.6 96.4 109.6 C 98.2 109.6 99.8 110.2 101.1 111.5 C 102.5 112.7 103.1 114.2 103.1 115.9 C 103.1 117.7 102.5 119.2 101.1 120.4 C 99.8 121.7 98.2 122.3 96.4 122.3 Z M 135 128.1 L 135 137.6 L 107.8 137.6 L 107.8 128.1 L 135 128.1 Z M 114 117.3 L 126.5 117.3 C 126.5 117.3 126.51 159.49 126.5 159.5 C 126.5 160.7 126.7 161.6 127 162.2 C 127.4 162.8 127.9 163.3 128.5 163.5 C 129.2 163.8 129.9 163.9 130.8 163.9 C 131.3 163.9 131.9 163.9 132.5 163.8 C 133.1 163.6 133.6 163.6 133.9 163.5 C 133.9 163.5 135.9 172.8 135.9 172.8 C 135.2 173 134.3 173.3 133.2 173.5 C 132.1 173.8 130.7 174 129 174 C 126 174.1 123.4 173.7 121.1 172.8 C 118.8 171.9 117.1 170.5 115.8 168.5 C 114.6 166.6 113.9 164.1 114 161.1 C 113.96 161.14 114 117.3 114 117.3 Z M 154.3 147.2 C 154.35 147.23 154.3 173.4 154.3 173.4 L 141.8 173.4 L 141.8 113 L 154 113 L 154 136.1 C 154 136.1 154.52 136.12 154.5 136.1 C 155.5 133.4 157.2 131.4 159.5 129.8 C 161.8 128.3 164.6 127.5 168.1 127.5 C 171.2 127.5 173.9 128.2 176.3 129.6 C 178.6 131 180.5 132.9 181.8 135.5 C 183.1 138 183.7 141 183.7 144.6 C 183.7 144.58 183.7 173.4 183.7 173.4 L 171.1 173.4 C 171.1 173.4 171.15 146.82 171.1 146.8 C 171.2 144 170.5 141.9 169 140.3 C 167.6 138.8 165.6 138 163.1 138 C 161.4 138 159.9 138.3 158.5 139.1 C 157.2 139.8 156.2 140.9 155.5 142.2 C 154.7 143.6 154.4 145.3 154.3 147.2 Z M 223.5 173.4 L 209.8 173.4 L 230.7 113 L 247.1 113 L 267.9 173.4 L 254.2 173.4 L 239.1 126.8 L 238.6 126.8 L 223.5 173.4 Z M 222.6 149.7 L 254.9 149.7 L 254.9 159.6 L 222.6 159.6 L 222.6 149.7 Z M 286.1 147.2 C 286.09 147.23 286.1 173.4 286.1 173.4 L 273.5 173.4 L 273.5 128.1 L 285.5 128.1 L 285.5 136.1 C 285.5 136.1 286.03 136.12 286 136.1 C 287 133.5 288.7 131.4 291.1 129.9 C 293.4 128.3 296.3 127.5 299.6 127.5 C 302.8 127.5 305.5 128.2 307.9 129.6 C 310.2 131 312 132.9 313.3 135.5 C 314.6 138 315.3 141.1 315.3 144.6 C 315.27 144.58 315.3 173.4 315.3 173.4 L 302.7 173.4 C 302.7 173.4 302.71 146.82 302.7 146.8 C 302.7 144 302 141.9 300.6 140.3 C 299.2 138.8 297.2 138 294.7 138 C 293 138 291.5 138.3 290.2 139.1 C 288.9 139.8 287.9 140.9 287.2 142.2 C 286.5 143.6 286.1 145.3 286.1 147.2 Z M 336.8 174.3 C 333.9 174.3 331.4 173.8 329.1 172.7 C 326.8 171.7 325 170.2 323.7 168.2 C 322.4 166.2 321.8 163.7 321.8 160.8 C 321.8 158.2 322.2 156.1 323.2 154.4 C 324.1 152.7 325.3 151.3 326.9 150.3 C 328.5 149.3 330.3 148.5 332.4 147.9 C 334.4 147.4 336.5 147 338.8 146.8 C 341.4 146.5 343.5 146.3 345.2 146 C 346.8 145.8 347.9 145.4 348.7 144.9 C 349.4 144.4 349.8 143.7 349.8 142.8 C 349.8 142.8 349.8 142.6 349.8 142.6 C 349.8 140.7 349.2 139.3 348 138.2 C 346.8 137.2 345.2 136.7 343 136.7 C 340.8 136.7 339 137.2 337.6 138.2 C 336.3 139.2 335.4 140.4 335 141.9 C 335 141.9 323.4 141 323.4 141 C 324 138.2 325.1 135.9 326.9 133.8 C 328.6 131.8 330.8 130.3 333.6 129.2 C 336.3 128.1 339.5 127.5 343.1 127.5 C 345.6 127.5 348 127.8 350.3 128.4 C 352.6 129 354.7 129.9 356.5 131.2 C 358.3 132.4 359.7 134 360.7 135.9 C 361.8 137.9 362.3 140.2 362.3 142.9 C 362.31 142.87 362.3 173.4 362.3 173.4 L 350.4 173.4 L 350.4 167.1 C 350.4 167.1 350.05 167.13 350 167.1 C 349.3 168.5 348.3 169.8 347.1 170.9 C 345.9 171.9 344.4 172.8 342.7 173.4 C 341 174 339.1 174.3 336.8 174.3 Z M 340.4 165.6 C 342.3 165.6 343.9 165.2 345.3 164.5 C 346.7 163.8 347.8 162.8 348.6 161.5 C 349.4 160.2 349.8 158.8 349.8 157.2 C 349.8 157.2 349.8 152.4 349.8 152.4 C 349.4 152.7 348.9 152.9 348.2 153.1 C 347.6 153.3 346.8 153.5 346 153.7 C 345.1 153.8 344.3 154 343.4 154.1 C 342.6 154.2 341.8 154.4 341.1 154.5 C 339.6 154.7 338.4 155 337.3 155.5 C 336.2 156 335.3 156.6 334.7 157.4 C 334.1 158.2 333.8 159.2 333.8 160.3 C 333.8 162.1 334.4 163.4 335.6 164.3 C 336.9 165.1 338.5 165.6 340.4 165.6 Z M 371.3 190.4 L 371.3 128.1 L 383.7 128.1 L 383.7 135.7 C 383.7 135.7 384.22 135.74 384.2 135.7 C 384.8 134.5 385.6 133.3 386.6 132 C 387.7 130.7 389.1 129.7 390.8 128.8 C 392.5 128 394.6 127.5 397.1 127.5 C 400.4 127.5 403.4 128.4 406.2 130.1 C 409 131.8 411.3 134.4 412.9 137.9 C 414.6 141.3 415.4 145.6 415.4 150.8 C 415.4 155.9 414.6 160.1 413 163.6 C 411.4 167.1 409.2 169.7 406.4 171.5 C 403.6 173.3 400.5 174.1 397.1 174.1 C 394.6 174.1 392.6 173.7 390.9 172.9 C 389.2 172.1 387.8 171.1 386.7 169.9 C 385.6 168.7 384.8 167.4 384.2 166.2 C 384.22 166.16 383.8 166.2 383.8 166.2 L 383.8 190.4 L 371.3 190.4 Z M 383.6 150.8 C 383.6 153.5 383.9 155.8 384.7 157.8 C 385.4 159.8 386.5 161.4 387.9 162.5 C 389.4 163.6 391.1 164.2 393.1 164.2 C 395.1 164.2 396.9 163.6 398.3 162.5 C 399.7 161.3 400.8 159.8 401.5 157.7 C 402.2 155.7 402.6 153.4 402.6 150.8 C 402.6 148.2 402.3 145.9 401.5 143.9 C 400.8 141.9 399.7 140.3 398.3 139.2 C 396.9 138.1 395.2 137.5 393.1 137.5 C 391.1 137.5 389.3 138.1 387.9 139.2 C 386.5 140.2 385.4 141.8 384.7 143.8 C 383.9 145.7 383.6 148.1 383.6 150.8 Z M 435.5 113 L 435.5 173.4 L 422.9 173.4 L 422.9 113 L 435.5 113 Z M 457.3 174.3 C 454.4 174.3 451.9 173.8 449.6 172.7 C 447.3 171.7 445.6 170.2 444.3 168.2 C 442.9 166.2 442.3 163.7 442.3 160.8 C 442.3 158.2 442.8 156.1 443.7 154.4 C 444.6 152.7 445.9 151.3 447.5 150.3 C 449 149.3 450.9 148.5 452.9 147.9 C 454.9 147.4 457.1 147 459.3 146.8 C 461.9 146.5 464.1 146.3 465.7 146 C 467.3 145.8 468.5 145.4 469.2 144.9 C 469.9 144.4 470.3 143.7 470.3 142.8 C 470.3 142.8 470.3 142.6 470.3 142.6 C 470.3 140.7 469.7 139.3 468.5 138.2 C 467.3 137.2 465.7 136.7 463.5 136.7 C 461.3 136.7 459.5 137.2 458.2 138.2 C 456.8 139.2 455.9 140.4 455.5 141.9 C 455.5 141.9 443.9 141 443.9 141 C 444.5 138.2 445.6 135.9 447.4 133.8 C 449.1 131.8 451.3 130.3 454.1 129.2 C 456.8 128.1 460 127.5 463.6 127.5 C 466.1 127.5 468.5 127.8 470.8 128.4 C 473.2 129 475.2 129.9 477 131.2 C 478.8 132.4 480.2 134 481.3 135.9 C 482.3 137.9 482.8 140.2 482.8 142.9 C 482.82 142.87 482.8 173.4 482.8 173.4 L 470.9 173.4 L 470.9 167.1 C 470.9 167.1 470.56 167.13 470.6 167.1 C 469.8 168.5 468.9 169.8 467.6 170.9 C 466.4 171.9 465 172.8 463.3 173.4 C 461.5 174 459.6 174.3 457.3 174.3 Z M 460.9 165.6 C 462.8 165.6 464.4 165.2 465.8 164.5 C 467.2 163.8 468.3 162.8 469.1 161.5 C 470 160.2 470.4 158.8 470.4 157.2 C 470.4 157.2 470.4 152.4 470.4 152.4 C 470 152.7 469.4 152.9 468.8 153.1 C 468.1 153.3 467.3 153.5 466.5 153.7 C 465.6 153.8 464.8 154 463.9 154.1 C 463.1 154.2 462.3 154.4 461.6 154.5 C 460.2 154.7 458.9 155 457.8 155.5 C 456.7 156 455.8 156.6 455.2 157.4 C 454.6 158.2 454.3 159.2 454.3 160.3 C 454.3 162.1 454.9 163.4 456.2 164.3 C 457.4 165.1 459 165.6 460.9 165.6 Z M 504.4 147.2 C 504.36 147.23 504.4 173.4 504.4 173.4 L 491.8 173.4 L 491.8 128.1 L 503.8 128.1 L 503.8 136.1 C 503.8 136.1 504.3 136.12 504.3 136.1 C 505.3 133.5 507 131.4 509.3 129.9 C 511.7 128.3 514.6 127.5 517.9 127.5 C 521.1 127.5 523.8 128.2 526.1 129.6 C 528.5 131 530.3 132.9 531.6 135.5 C 532.9 138 533.5 141.1 533.5 144.6 C 533.53 144.58 533.5 173.4 533.5 173.4 L 521 173.4 C 521 173.4 520.98 146.82 521 146.8 C 521 144 520.3 141.9 518.9 140.3 C 517.4 138.8 515.4 138 512.9 138 C 511.2 138 509.8 138.3 508.5 139.1 C 507.2 139.8 506.2 140.9 505.5 142.2 C 504.7 143.6 504.4 145.3 504.4 147.2 Z M 575.7 113 L 575.7 173.4 L 562.9 173.4 L 562.9 113 L 575.7 113 Z M 598.1 147.2 C 598.14 147.23 598.1 173.4 598.1 173.4 L 585.6 173.4 L 585.6 128.1 L 597.5 128.1 L 597.5 136.1 C 597.5 136.1 598.08 136.12 598.1 136.1 C 599.1 133.5 600.8 131.4 603.1 129.9 C 605.5 128.3 608.3 127.5 611.7 127.5 C 614.8 127.5 617.6 128.2 619.9 129.6 C 622.3 131 624.1 132.9 625.4 135.5 C 626.7 138 627.3 141.1 627.3 144.6 C 627.32 144.58 627.3 173.4 627.3 173.4 L 614.8 173.4 C 614.8 173.4 614.76 146.82 614.8 146.8 C 614.8 144 614.1 141.9 612.6 140.3 C 611.2 138.8 609.2 138 606.7 138 C 605 138 603.5 138.3 602.3 139.1 C 601 139.8 600 140.9 599.2 142.2 C 598.5 143.6 598.2 145.3 598.1 147.2 Z M 659.2 128.1 L 659.2 137.6 L 631.9 137.6 L 631.9 128.1 L 659.2 128.1 Z M 638.1 117.3 L 650.7 117.3 C 650.7 117.3 650.68 159.49 650.7 159.5 C 650.7 160.7 650.9 161.6 651.2 162.2 C 651.6 162.8 652.1 163.3 652.7 163.5 C 653.3 163.8 654.1 163.9 654.9 163.9 C 655.5 163.9 656.1 163.9 656.7 163.8 C 657.3 163.6 657.7 163.6 658 163.5 C 658 163.5 660 172.8 660 172.8 C 659.4 173 658.5 173.3 657.4 173.5 C 656.2 173.8 654.8 174 653.2 174 C 650.2 174.1 647.5 173.7 645.3 172.8 C 643 171.9 641.2 170.5 640 168.5 C 638.7 166.6 638.1 164.1 638.1 161.1 C 638.12 161.14 638.1 117.3 638.1 117.3 Z M 685.2 174.3 C 680.6 174.3 676.6 173.3 673.2 171.4 C 669.9 169.6 667.3 166.9 665.5 163.4 C 663.7 159.9 662.8 155.8 662.8 151 C 662.8 146.3 663.7 142.2 665.5 138.7 C 667.3 135.2 669.8 132.5 673.1 130.5 C 676.4 128.5 680.3 127.5 684.7 127.5 C 687.7 127.5 690.5 128 693.1 129 C 695.7 129.9 697.9 131.4 699.9 133.3 C 701.8 135.2 703.3 137.6 704.4 140.4 C 705.5 143.3 706 146.7 706 150.5 C 706 150.53 706 154 706 154 L 667.8 154 L 667.8 146.2 C 667.8 146.2 694.18 146.2 694.2 146.2 C 694.2 144.4 693.8 142.8 693 141.4 C 692.2 140 691.1 138.9 689.7 138.1 C 688.4 137.3 686.8 136.9 684.9 136.9 C 683 136.9 681.3 137.4 679.9 138.2 C 678.4 139.1 677.3 140.3 676.4 141.7 C 675.6 143.2 675.2 144.8 675.2 146.6 C 675.2 146.6 675.2 154 675.2 154 C 675.2 156.3 675.6 158.2 676.4 159.8 C 677.3 161.4 678.4 162.7 680 163.6 C 681.5 164.5 683.3 164.9 685.4 164.9 C 686.8 164.9 688.1 164.7 689.3 164.3 C 690.4 163.9 691.4 163.3 692.2 162.6 C 693.1 161.8 693.7 160.8 694.1 159.7 C 694.1 159.7 705.7 160.4 705.7 160.4 C 705.1 163.2 703.9 165.7 702.1 167.7 C 700.3 169.8 698 171.4 695.1 172.6 C 692.3 173.7 689 174.3 685.2 174.3 Z M 726 113 L 726 173.4 L 713.4 173.4 L 713.4 113 L 726 113 Z M 747.6 113 L 747.6 173.4 L 735.1 173.4 L 735.1 113 L 747.6 113 Z M 756.8 173.4 L 756.8 128.1 L 769.3 128.1 L 769.3 173.4 L 756.8 173.4 Z M 763.1 122.3 C 761.2 122.3 759.6 121.7 758.3 120.4 C 757 119.2 756.3 117.7 756.3 116 C 756.3 114.2 757 112.7 758.3 111.5 C 759.7 110.2 761.3 109.6 763.1 109.6 C 765 109.6 766.6 110.2 767.9 111.5 C 769.2 112.7 769.9 114.2 769.9 115.9 C 769.9 117.7 769.2 119.2 767.9 120.4 C 766.6 121.7 765 122.3 763.1 122.3 Z M 798.5 191.3 C 794.4 191.3 790.9 190.8 788 189.7 C 785.1 188.6 782.8 187 781.1 185.1 C 779.4 183.2 778.3 181.1 777.8 178.7 C 777.8 178.7 789.4 177.1 789.4 177.1 C 789.7 178.1 790.3 178.9 791.1 179.7 C 791.8 180.5 792.9 181.1 794.1 181.6 C 795.4 182.1 796.9 182.3 798.8 182.3 C 801.5 182.3 803.7 181.6 805.5 180.3 C 807.3 179 808.2 176.8 808.2 173.7 C 808.19 173.67 808.2 165.4 808.2 165.4 C 808.2 165.4 807.66 165.39 807.7 165.4 C 807.1 166.6 806.3 167.8 805.2 169 C 804.1 170.1 802.7 171 800.9 171.7 C 799.2 172.4 797.2 172.8 794.8 172.8 C 791.4 172.8 788.3 172 785.5 170.4 C 782.7 168.8 780.5 166.4 778.9 163.1 C 777.2 159.8 776.4 155.7 776.4 150.7 C 776.4 145.6 777.2 141.3 778.9 137.8 C 780.6 134.4 782.8 131.8 785.6 130.1 C 788.4 128.4 791.4 127.5 794.7 127.5 C 797.3 127.5 799.4 128 801.1 128.8 C 802.8 129.7 804.2 130.7 805.2 132 C 806.3 133.3 807.1 134.5 807.7 135.7 C 807.66 135.74 808.1 135.7 808.1 135.7 L 808.1 128.1 L 820.6 128.1 C 820.6 128.1 820.6 173.85 820.6 173.8 C 820.6 177.7 819.7 180.9 817.8 183.5 C 815.9 186.1 813.3 188.1 809.9 189.4 C 806.6 190.7 802.8 191.3 798.5 191.3 Z M 798.7 163.3 C 800.8 163.3 802.5 162.8 803.9 161.8 C 805.3 160.8 806.4 159.3 807.1 157.4 C 807.9 155.5 808.3 153.3 808.3 150.6 C 808.3 148 807.9 145.7 807.1 143.7 C 806.4 141.8 805.3 140.2 803.9 139.2 C 802.5 138.1 800.8 137.5 798.7 137.5 C 796.7 137.5 794.9 138.1 793.5 139.2 C 792.1 140.3 791 141.8 790.3 143.8 C 789.6 145.8 789.2 148 789.2 150.6 C 789.2 153.2 789.6 155.5 790.3 157.4 C 791.1 159.3 792.1 160.7 793.5 161.8 C 794.9 162.8 796.7 163.3 798.7 163.3 Z M 850.2 174.3 C 845.6 174.3 841.5 173.3 838.2 171.4 C 834.8 169.6 832.3 166.9 830.5 163.4 C 828.7 159.9 827.8 155.8 827.8 151 C 827.8 146.3 828.7 142.2 830.5 138.7 C 832.3 135.2 834.8 132.5 838.1 130.5 C 841.4 128.5 845.3 127.5 849.7 127.5 C 852.7 127.5 855.5 128 858.1 129 C 860.6 129.9 862.9 131.4 864.8 133.3 C 866.8 135.2 868.3 137.6 869.4 140.4 C 870.4 143.3 871 146.7 871 150.5 C 870.99 150.53 871 154 871 154 L 832.8 154 L 832.8 146.2 C 832.8 146.2 859.17 146.2 859.2 146.2 C 859.2 144.4 858.8 142.8 858 141.4 C 857.2 140 856.1 138.9 854.7 138.1 C 853.3 137.3 851.7 136.9 849.9 136.9 C 848 136.9 846.3 137.4 844.9 138.2 C 843.4 139.1 842.3 140.3 841.4 141.7 C 840.6 143.2 840.2 144.8 840.2 146.6 C 840.2 146.6 840.2 154 840.2 154 C 840.2 156.3 840.6 158.2 841.4 159.8 C 842.2 161.4 843.4 162.7 845 163.6 C 846.5 164.5 848.3 164.9 850.4 164.9 C 851.8 164.9 853.1 164.7 854.2 164.3 C 855.4 163.9 856.4 163.3 857.2 162.6 C 858.1 161.8 858.7 160.8 859.1 159.7 C 859.1 159.7 870.7 160.4 870.7 160.4 C 870.1 163.2 868.9 165.7 867.1 167.7 C 865.3 169.8 863 171.4 860.1 172.6 C 857.2 173.7 853.9 174.3 850.2 174.3 Z M 890.9 147.2 C 890.86 147.23 890.9 173.4 890.9 173.4 L 878.3 173.4 L 878.3 128.1 L 890.3 128.1 L 890.3 136.1 C 890.3 136.1 890.8 136.12 890.8 136.1 C 891.8 133.5 893.5 131.4 895.8 129.9 C 898.2 128.3 901.1 127.5 904.4 127.5 C 907.6 127.5 910.3 128.2 912.6 129.6 C 915 131 916.8 132.9 918.1 135.5 C 919.4 138 920 141.1 920 144.6 C 920.04 144.58 920 173.4 920 173.4 L 907.5 173.4 C 907.5 173.4 907.48 146.82 907.5 146.8 C 907.5 144 906.8 141.9 905.4 140.3 C 903.9 138.8 902 138 899.4 138 C 897.7 138 896.3 138.3 895 139.1 C 893.7 139.8 892.7 140.9 892 142.2 C 891.2 143.6 890.9 145.3 890.9 147.2 Z M 949.1 174.3 C 944.5 174.3 940.5 173.3 937.2 171.3 C 933.8 169.4 931.3 166.6 929.5 163.1 C 927.7 159.6 926.8 155.5 926.8 150.9 C 926.8 146.3 927.7 142.2 929.5 138.7 C 931.3 135.2 933.9 132.5 937.2 130.5 C 940.5 128.5 944.5 127.5 949.1 127.5 C 953 127.5 956.5 128.3 959.4 129.7 C 962.4 131.1 964.8 133.1 966.5 135.7 C 968.2 138.3 969.2 141.4 969.3 144.9 C 969.3 144.9 957.5 144.9 957.5 144.9 C 957.2 142.6 956.3 140.8 954.9 139.4 C 953.4 138 951.6 137.3 949.3 137.3 C 947.3 137.3 945.6 137.9 944.2 138.9 C 942.7 140 941.6 141.5 940.8 143.5 C 940 145.5 939.6 147.9 939.6 150.8 C 939.6 153.7 940 156.1 940.8 158.1 C 941.6 160.2 942.7 161.7 944.2 162.8 C 945.6 163.8 947.3 164.4 949.3 164.4 C 950.7 164.4 952 164.1 953.1 163.5 C 954.3 162.9 955.2 162 956 160.9 C 956.8 159.8 957.3 158.4 957.5 156.8 C 957.5 156.8 969.3 156.8 969.3 156.8 C 969.1 160.3 968.2 163.3 966.5 165.9 C 964.8 168.6 962.5 170.6 959.6 172.1 C 956.6 173.6 953.2 174.3 949.1 174.3 Z M 996.4 174.3 C 991.8 174.3 987.8 173.3 984.4 171.4 C 981.1 169.6 978.5 166.9 976.7 163.4 C 974.9 159.9 974 155.8 974 151 C 974 146.3 974.9 142.2 976.7 138.7 C 978.5 135.2 981.1 132.5 984.3 130.5 C 987.6 128.5 991.5 127.5 995.9 127.5 C 998.9 127.5 1001.7 128 1004.3 129 C 1006.9 129.9 1009.1 131.4 1011.1 133.3 C 1013 135.2 1014.5 137.6 1015.6 140.4 C 1016.7 143.3 1017.2 146.7 1017.2 150.5 C 1017.23 150.53 1017.2 154 1017.2 154 L 979 154 L 979 146.2 C 979 146.2 1005.41 146.2 1005.4 146.2 C 1005.4 144.4 1005 142.8 1004.2 141.4 C 1003.4 140 1002.4 138.9 1001 138.1 C 999.6 137.3 998 136.9 996.2 136.9 C 994.2 136.9 992.6 137.4 991.1 138.2 C 989.6 139.1 988.5 140.3 987.7 141.7 C 986.8 143.2 986.4 144.8 986.4 146.6 C 986.4 146.6 986.4 154 986.4 154 C 986.4 156.3 986.8 158.2 987.7 159.8 C 988.5 161.4 989.7 162.7 991.2 163.6 C 992.7 164.5 994.6 164.9 996.7 164.9 C 998.1 164.9 999.3 164.7 1000.5 164.3 C 1001.6 163.9 1002.6 163.3 1003.5 162.6 C 1004.3 161.8 1004.9 160.8 1005.4 159.7 C 1005.4 159.7 1017 160.4 1017 160.4 C 1016.4 163.2 1015.2 165.7 1013.4 167.7 C 1011.5 169.8 1009.2 171.4 1006.3 172.6 C 1003.5 173.7 1000.2 174.3 996.4 174.3 Z M 1030.8 174.2 C 1028.9 174.2 1027.2 173.5 1025.8 172.1 C 1024.4 170.7 1023.7 169 1023.7 167.1 C 1023.7 165.2 1024.4 163.5 1025.8 162.1 C 1027.2 160.8 1028.9 160.1 1030.8 160.1 C 1032.7 160.1 1034.3 160.8 1035.8 162.1 C 1037.2 163.5 1037.9 165.2 1037.9 167.1 C 1037.9 168.4 1037.6 169.6 1036.9 170.7 C 1036.2 171.7 1035.4 172.6 1034.3 173.2 C 1033.3 173.9 1032.1 174.2 1030.8 174.2 Z " stroke="none" fill="#10283d"/>  </g>  <g id="Polygon126005">    <path d="M 5.2 80.4 L 5.2 20 C 5.2 20 29.42 20.04 29.4 20 C 33.9 20 37.6 20.7 40.5 22 C 43.5 23.3 45.7 25.2 47.2 27.5 C 48.7 29.8 49.5 32.5 49.5 35.5 C 49.5 37.9 49 39.9 48 41.7 C 47.1 43.5 45.8 45 44.2 46.1 C 42.5 47.2 40.7 48 38.6 48.5 C 38.6 48.5 38.6 49.1 38.6 49.1 C 40.9 49.2 43 49.8 45 51 C 47 52.2 48.7 53.9 49.9 56 C 51.2 58.2 51.8 60.8 51.8 63.7 C 51.8 66.9 51 69.8 49.4 72.3 C 47.9 74.8 45.5 76.8 42.4 78.2 C 39.4 79.7 35.6 80.4 31 80.4 C 31.04 80.41 5.2 80.4 5.2 80.4 Z M 18 70 C 18 70 28.41 69.97 28.4 70 C 32 70 34.6 69.3 36.2 67.9 C 37.8 66.6 38.6 64.7 38.6 62.5 C 38.6 60.8 38.2 59.3 37.4 58 C 36.6 56.8 35.5 55.8 34 55 C 32.5 54.3 30.8 53.9 28.7 53.9 C 28.71 53.94 18 53.9 18 53.9 L 18 70 Z M 18 45.3 C 18 45.3 27.47 45.3 27.5 45.3 C 29.2 45.3 30.8 45 32.1 44.4 C 33.5 43.8 34.6 42.9 35.4 41.7 C 36.2 40.6 36.6 39.2 36.6 37.6 C 36.6 35.5 35.8 33.7 34.3 32.4 C 32.7 31 30.5 30.4 27.7 30.4 C 27.71 30.36 18 30.4 18 30.4 L 18 45.3 Z M 79.6 81.3 C 74.9 81.3 70.9 80.3 67.6 78.4 C 64.2 76.6 61.6 73.9 59.8 70.4 C 58 66.9 57.1 62.8 57.1 58 C 57.1 53.3 58 49.2 59.8 45.7 C 61.6 42.2 64.2 39.5 67.5 37.5 C 70.8 35.5 74.6 34.5 79.1 34.5 C 82 34.5 84.8 35 87.4 36 C 90 36.9 92.3 38.4 94.2 40.3 C 96.1 42.2 97.6 44.6 98.7 47.4 C 99.8 50.3 100.3 53.7 100.3 57.5 C 100.34 57.53 100.3 61 100.3 61 L 62.1 61 L 62.1 53.2 C 62.1 53.2 88.52 53.2 88.5 53.2 C 88.5 51.4 88.1 49.8 87.3 48.4 C 86.6 47 85.5 45.9 84.1 45.1 C 82.7 44.3 81.1 43.9 79.3 43.9 C 77.4 43.9 75.7 44.4 74.2 45.2 C 72.8 46.1 71.6 47.3 70.8 48.7 C 70 50.2 69.5 51.8 69.5 53.6 C 69.5 53.6 69.5 61 69.5 61 C 69.5 63.3 69.9 65.2 70.8 66.8 C 71.6 68.4 72.8 69.7 74.3 70.6 C 75.9 71.5 77.7 71.9 79.8 71.9 C 81.2 71.9 82.4 71.7 83.6 71.3 C 84.8 70.9 85.8 70.3 86.6 69.6 C 87.4 68.8 88 67.8 88.5 66.7 C 88.5 66.7 100.1 67.4 100.1 67.4 C 99.5 70.2 98.3 72.7 96.5 74.7 C 94.7 76.8 92.3 78.4 89.5 79.6 C 86.6 80.7 83.3 81.3 79.6 81.3 Z M 151.9 35.1 L 151.9 44.6 L 124.6 44.6 L 124.6 35.1 L 151.9 35.1 Z M 130.8 24.3 L 143.3 24.3 C 143.3 24.3 143.35 66.49 143.3 66.5 C 143.3 67.7 143.5 68.6 143.9 69.2 C 144.2 69.8 144.7 70.3 145.4 70.5 C 146 70.8 146.7 70.9 147.6 70.9 C 148.2 70.9 148.8 70.9 149.4 70.8 C 149.9 70.6 150.4 70.6 150.7 70.5 C 150.7 70.5 152.7 79.8 152.7 79.8 C 152.1 80 151.2 80.3 150 80.5 C 148.9 80.8 147.5 81 145.9 81 C 142.9 81.1 140.2 80.7 137.9 79.8 C 135.7 78.9 133.9 77.5 132.6 75.5 C 131.4 73.6 130.8 71.1 130.8 68.1 C 130.79 68.14 130.8 24.3 130.8 24.3 Z M 171.2 54.2 C 171.18 54.23 171.2 80.4 171.2 80.4 L 158.6 80.4 L 158.6 20 L 170.8 20 L 170.8 43.1 C 170.8 43.1 171.36 43.12 171.4 43.1 C 172.4 40.4 174 38.4 176.3 36.8 C 178.6 35.3 181.4 34.5 184.9 34.5 C 188 34.5 190.8 35.2 193.1 36.6 C 195.5 38 197.3 39.9 198.6 42.5 C 199.9 45 200.6 48 200.5 51.6 C 200.54 51.58 200.5 80.4 200.5 80.4 L 188 80.4 C 188 80.4 187.98 53.82 188 53.8 C 188 51 187.3 48.9 185.9 47.3 C 184.5 45.8 182.5 45 179.9 45 C 178.2 45 176.7 45.3 175.4 46.1 C 174.1 46.8 173.1 47.9 172.3 49.2 C 171.6 50.6 171.2 52.3 171.2 54.2 Z M 229.8 81.3 C 225.1 81.3 221.1 80.3 217.8 78.4 C 214.4 76.6 211.9 73.9 210.1 70.4 C 208.2 66.9 207.3 62.8 207.3 58 C 207.3 53.3 208.2 49.2 210.1 45.7 C 211.9 42.2 214.4 39.5 217.7 37.5 C 221 35.5 224.9 34.5 229.3 34.5 C 232.3 34.5 235.1 35 237.7 36 C 240.2 36.9 242.5 38.4 244.4 40.3 C 246.4 42.2 247.9 44.6 249 47.4 C 250 50.3 250.6 53.7 250.6 57.5 C 250.58 57.53 250.6 61 250.6 61 L 212.4 61 L 212.4 53.2 C 212.4 53.2 238.76 53.2 238.8 53.2 C 238.8 51.4 238.4 49.8 237.6 48.4 C 236.8 47 235.7 45.9 234.3 45.1 C 232.9 44.3 231.3 43.9 229.5 43.9 C 227.6 43.9 225.9 44.4 224.5 45.2 C 223 46.1 221.8 47.3 221 48.7 C 220.2 50.2 219.8 51.8 219.8 53.6 C 219.8 53.6 219.8 61 219.8 61 C 219.8 63.3 220.2 65.2 221 66.8 C 221.8 68.4 223 69.7 224.6 70.6 C 226.1 71.5 227.9 71.9 230 71.9 C 231.4 71.9 232.7 71.7 233.8 71.3 C 235 70.9 236 70.3 236.8 69.6 C 237.6 68.8 238.3 67.8 238.7 66.7 C 238.7 66.7 250.3 67.4 250.3 67.4 C 249.7 70.2 248.5 72.7 246.7 74.7 C 244.9 76.8 242.6 78.4 239.7 79.6 C 236.8 80.7 233.5 81.3 229.8 81.3 Z M 290.6 54.2 C 290.58 54.23 290.6 80.4 290.6 80.4 L 278 80.4 L 278 35.1 L 290 35.1 L 290 43.1 C 290 43.1 290.52 43.12 290.5 43.1 C 291.5 40.5 293.2 38.4 295.6 36.9 C 297.9 35.3 300.8 34.5 304.1 34.5 C 307.3 34.5 310 35.2 312.4 36.6 C 314.7 38 316.5 39.9 317.8 42.5 C 319.1 45 319.8 48.1 319.8 51.6 C 319.76 51.58 319.8 80.4 319.8 80.4 L 307.2 80.4 C 307.2 80.4 307.2 53.82 307.2 53.8 C 307.2 51 306.5 48.9 305.1 47.3 C 303.6 45.8 301.7 45 299.2 45 C 297.5 45 296 45.3 294.7 46.1 C 293.4 46.8 292.4 47.9 291.7 49.2 C 291 50.6 290.6 52.3 290.6 54.2 Z M 349 81.3 C 344.4 81.3 340.4 80.3 337 78.4 C 333.7 76.6 331.1 73.9 329.3 70.4 C 327.5 66.9 326.6 62.8 326.6 58 C 326.6 53.3 327.5 49.2 329.3 45.7 C 331.1 42.2 333.6 39.5 336.9 37.5 C 340.2 35.5 344.1 34.5 348.5 34.5 C 351.5 34.5 354.3 35 356.9 36 C 359.5 36.9 361.7 38.4 363.7 40.3 C 365.6 42.2 367.1 44.6 368.2 47.4 C 369.3 50.3 369.8 53.7 369.8 57.5 C 369.8 57.53 369.8 61 369.8 61 L 331.6 61 L 331.6 53.2 C 331.6 53.2 357.98 53.2 358 53.2 C 358 51.4 357.6 49.8 356.8 48.4 C 356 47 354.9 45.9 353.5 45.1 C 352.2 44.3 350.6 43.9 348.7 43.9 C 346.8 43.9 345.1 44.4 343.7 45.2 C 342.2 46.1 341.1 47.3 340.2 48.7 C 339.4 50.2 339 51.8 339 53.6 C 339 53.6 339 61 339 61 C 339 63.3 339.4 65.2 340.2 66.8 C 341.1 68.4 342.2 69.7 343.8 70.6 C 345.3 71.5 347.1 71.9 349.2 71.9 C 350.6 71.9 351.9 71.7 353.1 71.3 C 354.2 70.9 355.2 70.3 356 69.6 C 356.9 68.8 357.5 67.8 357.9 66.7 C 357.9 66.7 369.5 67.4 369.5 67.4 C 368.9 70.2 367.7 72.7 365.9 74.7 C 364.1 76.8 361.8 78.4 358.9 79.6 C 356 80.7 352.8 81.3 349 81.3 Z M 385.3 35.1 L 393.6 51 L 402.1 35.1 L 415 35.1 L 401.9 57.8 L 415.4 80.4 L 402.5 80.4 L 393.6 64.8 L 384.8 80.4 L 371.9 80.4 L 385.3 57.8 L 372.3 35.1 L 385.3 35.1 Z M 446.2 35.1 L 446.2 44.6 L 418.9 44.6 L 418.9 35.1 L 446.2 35.1 Z M 425.1 24.3 L 437.7 24.3 C 437.7 24.3 437.66 66.49 437.7 66.5 C 437.7 67.7 437.8 68.6 438.2 69.2 C 438.5 69.8 439 70.3 439.7 70.5 C 440.3 70.8 441.1 70.9 441.9 70.9 C 442.5 70.9 443.1 70.9 443.7 70.8 C 444.3 70.6 444.7 70.6 445 70.5 C 445 70.5 447 79.8 447 79.8 C 446.4 80 445.5 80.3 444.3 80.5 C 443.2 80.8 441.8 81 440.2 81 C 437.2 81.1 434.5 80.7 432.2 79.8 C 430 78.9 428.2 77.5 427 75.5 C 425.7 73.6 425.1 71.1 425.1 68.1 C 425.1 68.14 425.1 24.3 425.1 24.3 Z M 461.3 81.2 C 459.3 81.2 457.7 80.5 456.3 79.1 C 454.9 77.7 454.2 76 454.2 74.1 C 454.2 72.2 454.9 70.5 456.3 69.1 C 457.7 67.8 459.3 67.1 461.3 67.1 C 463.2 67.1 464.8 67.8 466.2 69.1 C 467.7 70.5 468.4 72.2 468.4 74.1 C 468.4 75.4 468 76.6 467.4 77.7 C 466.7 78.7 465.9 79.6 464.8 80.2 C 463.7 80.9 462.6 81.2 461.3 81.2 Z " stroke="none" fill="#10283d"/>  </g></svg>