<?xml version="1.0" standalone="no"?><!DOCTYPE svg PUBLIC "-//W3C//DTD SVG 1.1//EN" "http://www.w3.org/Graphics/SVG/1.1/DTD/svg11.dtd"><svg xmlns="http://www.w3.org/2000/svg" version="1.1" width="300px" height="185.5px" viewBox="0 -14 300 185.5" style="top:-14px">  <desc>Anaplan connects the impact of every decision</desc>  <defs/>  <g id="Polygon118187">    <path d="M 9.1 151.8 C 7.7 151.8 6.4 151.4 5.2 150.6 C 4 149.9 3.1 148.8 2.4 147.3 C 1.7 145.9 1.4 144.1 1.4 141.9 C 1.4 139.7 1.8 137.9 2.5 136.5 C 3.2 135 4.1 133.9 5.3 133.2 C 6.4 132.5 7.7 132.1 9.1 132.1 C 10.2 132.1 11.1 132.3 11.8 132.7 C 12.5 133 13.1 133.5 13.6 134 C 14 134.5 14.3 135.1 14.6 135.6 C 14.57 135.57 14.7 135.6 14.7 135.6 L 14.7 126 L 20 126 L 20 151.5 L 14.8 151.5 L 14.8 148.4 C 14.8 148.4 14.57 148.4 14.6 148.4 C 14.3 148.9 14 149.5 13.5 150 C 13.1 150.5 12.5 150.9 11.8 151.3 C 11 151.6 10.2 151.8 9.1 151.8 Z M 10.8 147.6 C 11.7 147.6 12.4 147.3 13 146.8 C 13.6 146.4 14 145.7 14.4 144.9 C 14.7 144 14.8 143 14.8 141.9 C 14.8 140.8 14.7 139.8 14.4 139 C 14.1 138.1 13.6 137.5 13 137 C 12.4 136.6 11.7 136.3 10.8 136.3 C 10 136.3 9.2 136.6 8.6 137 C 8 137.5 7.6 138.2 7.3 139 C 7 139.8 6.8 140.8 6.8 141.9 C 6.8 143 7 144 7.3 144.8 C 7.6 145.7 8 146.4 8.6 146.8 C 9.2 147.3 10 147.6 10.8 147.6 Z M 32.9 151.8 C 31 151.8 29.3 151.4 27.9 150.6 C 26.4 149.8 25.3 148.7 24.6 147.2 C 23.8 145.8 23.4 144 23.4 142 C 23.4 140 23.8 138.3 24.6 136.8 C 25.3 135.3 26.4 134.2 27.8 133.4 C 29.2 132.5 30.8 132.1 32.7 132.1 C 34 132.1 35.1 132.3 36.2 132.7 C 37.3 133.1 38.3 133.7 39.1 134.5 C 39.9 135.3 40.5 136.3 41 137.6 C 41.4 138.8 41.7 140.2 41.7 141.8 C 41.68 141.81 41.7 143.3 41.7 143.3 L 25.6 143.3 L 25.6 140 C 25.6 140 36.69 139.98 36.7 140 C 36.7 139.2 36.5 138.5 36.2 138 C 35.9 137.4 35.4 136.9 34.8 136.6 C 34.2 136.2 33.6 136.1 32.8 136.1 C 32 136.1 31.3 136.3 30.7 136.6 C 30 137 29.6 137.5 29.2 138.1 C 28.9 138.7 28.7 139.4 28.7 140.2 C 28.7 140.2 28.7 143.3 28.7 143.3 C 28.7 144.2 28.9 145 29.2 145.7 C 29.6 146.4 30.1 146.9 30.7 147.3 C 31.3 147.7 32.1 147.9 33 147.9 C 33.6 147.9 34.1 147.8 34.6 147.6 C 35.1 147.5 35.5 147.2 35.9 146.9 C 36.2 146.5 36.5 146.1 36.7 145.7 C 36.7 145.7 41.6 146 41.6 146 C 41.3 147.2 40.8 148.2 40 149.1 C 39.3 149.9 38.3 150.6 37.1 151.1 C 35.9 151.6 34.5 151.8 32.9 151.8 Z M 53.6 151.8 C 51.6 151.8 50 151.4 48.6 150.6 C 47.1 149.7 46.1 148.6 45.3 147.1 C 44.6 145.6 44.2 143.9 44.2 142 C 44.2 140 44.6 138.3 45.3 136.8 C 46.1 135.4 47.2 134.2 48.6 133.4 C 50 132.5 51.6 132.1 53.6 132.1 C 55.2 132.1 56.7 132.4 57.9 133 C 59.2 133.6 60.2 134.5 60.9 135.6 C 61.6 136.7 62 137.9 62.1 139.4 C 62.1 139.4 57.1 139.4 57.1 139.4 C 57 138.5 56.6 137.7 56 137.1 C 55.4 136.5 54.6 136.2 53.7 136.2 C 52.8 136.2 52.1 136.5 51.5 136.9 C 50.9 137.3 50.4 138 50.1 138.8 C 49.7 139.7 49.6 140.7 49.6 141.9 C 49.6 143.1 49.7 144.2 50.1 145 C 50.4 145.9 50.9 146.5 51.5 147 C 52.1 147.4 52.8 147.6 53.7 147.6 C 54.3 147.6 54.8 147.5 55.3 147.3 C 55.8 147 56.2 146.7 56.5 146.2 C 56.8 145.7 57 145.1 57.1 144.5 C 57.1 144.5 62.1 144.5 62.1 144.5 C 62 145.9 61.6 147.2 60.9 148.3 C 60.2 149.4 59.2 150.3 58 150.9 C 56.8 151.5 55.3 151.8 53.6 151.8 Z M 65.4 151.5 L 65.4 132.4 L 70.7 132.4 L 70.7 151.5 L 65.4 151.5 Z M 68.1 129.9 C 67.3 129.9 66.6 129.6 66 129.1 C 65.5 128.6 65.2 128 65.2 127.2 C 65.2 126.5 65.5 125.9 66 125.3 C 66.6 124.8 67.3 124.5 68.1 124.5 C 68.8 124.5 69.5 124.8 70.1 125.3 C 70.6 125.9 70.9 126.5 70.9 127.2 C 70.9 128 70.6 128.6 70.1 129.1 C 69.5 129.6 68.8 129.9 68.1 129.9 Z M 90.6 137.8 C 90.6 137.8 85.8 138.1 85.8 138.1 C 85.7 137.7 85.5 137.3 85.2 137 C 85 136.6 84.6 136.4 84.2 136.2 C 83.7 136 83.2 135.9 82.6 135.9 C 81.8 135.9 81.1 136 80.5 136.4 C 79.9 136.7 79.7 137.2 79.7 137.8 C 79.7 138.2 79.8 138.6 80.2 138.9 C 80.6 139.2 81.2 139.5 82.1 139.7 C 82.1 139.7 85.5 140.4 85.5 140.4 C 87.4 140.7 88.8 141.4 89.7 142.2 C 90.6 143.1 91.1 144.2 91.1 145.5 C 91.1 146.8 90.7 147.9 90 148.8 C 89.2 149.8 88.2 150.5 87 151 C 85.7 151.6 84.2 151.8 82.6 151.8 C 80 151.8 78 151.3 76.5 150.2 C 75 149.2 74.2 147.7 73.9 145.9 C 73.9 145.9 79.1 145.7 79.1 145.7 C 79.3 146.4 79.6 147 80.3 147.4 C 80.9 147.8 81.6 148 82.6 148 C 83.5 148 84.3 147.8 84.8 147.5 C 85.4 147.1 85.7 146.6 85.7 146.1 C 85.7 145.6 85.5 145.2 85.1 144.9 C 84.7 144.6 84.1 144.3 83.2 144.2 C 83.2 144.2 79.9 143.5 79.9 143.5 C 78.1 143.1 76.7 142.5 75.8 141.6 C 74.9 140.7 74.4 139.5 74.4 138.1 C 74.4 136.8 74.7 135.8 75.4 134.9 C 76.1 134 77 133.3 78.2 132.8 C 79.4 132.4 80.9 132.1 82.5 132.1 C 84.9 132.1 86.8 132.6 88.2 133.6 C 89.6 134.7 90.4 136.1 90.6 137.8 Z M 94.3 151.5 L 94.3 132.4 L 99.6 132.4 L 99.6 151.5 L 94.3 151.5 Z M 97 129.9 C 96.2 129.9 95.5 129.6 95 129.1 C 94.4 128.6 94.1 128 94.1 127.2 C 94.1 126.5 94.4 125.9 95 125.3 C 95.5 124.8 96.2 124.5 97 124.5 C 97.8 124.5 98.4 124.8 99 125.3 C 99.6 125.9 99.8 126.5 99.8 127.2 C 99.8 128 99.6 128.6 99 129.1 C 98.4 129.6 97.8 129.9 97 129.9 Z M 112.3 151.8 C 110.4 151.8 108.7 151.4 107.3 150.6 C 105.9 149.8 104.8 148.6 104.1 147.1 C 103.3 145.7 102.9 143.9 102.9 142 C 102.9 140 103.3 138.3 104.1 136.8 C 104.8 135.3 105.9 134.2 107.3 133.4 C 108.7 132.5 110.4 132.1 112.3 132.1 C 114.3 132.1 115.9 132.5 117.3 133.4 C 118.7 134.2 119.8 135.3 120.6 136.8 C 121.3 138.3 121.7 140 121.7 142 C 121.7 143.9 121.3 145.7 120.6 147.1 C 119.8 148.6 118.7 149.8 117.3 150.6 C 115.9 151.4 114.3 151.8 112.3 151.8 Z M 112.3 147.7 C 113.2 147.7 114 147.5 114.5 147 C 115.1 146.5 115.6 145.8 115.9 144.9 C 116.2 144 116.3 143.1 116.3 141.9 C 116.3 140.8 116.2 139.8 115.9 139 C 115.6 138.1 115.1 137.4 114.5 136.9 C 114 136.4 113.2 136.2 112.3 136.2 C 111.5 136.2 110.7 136.4 110.1 136.9 C 109.5 137.4 109.1 138.1 108.8 139 C 108.5 139.8 108.3 140.8 108.3 141.9 C 108.3 143.1 108.5 144 108.8 144.9 C 109.1 145.8 109.5 146.5 110.1 147 C 110.7 147.5 111.5 147.7 112.3 147.7 Z M 130.3 140.4 C 130.34 140.42 130.3 151.5 130.3 151.5 L 125 151.5 L 125 132.4 L 130.1 132.4 L 130.1 135.7 C 130.1 135.7 130.31 135.73 130.3 135.7 C 130.7 134.6 131.4 133.7 132.4 133.1 C 133.4 132.4 134.6 132.1 136.1 132.1 C 137.4 132.1 138.5 132.4 139.5 133 C 140.5 133.6 141.3 134.4 141.8 135.5 C 142.4 136.5 142.6 137.8 142.6 139.3 C 142.64 139.3 142.6 151.5 142.6 151.5 L 137.3 151.5 C 137.3 151.5 137.35 140.24 137.3 140.2 C 137.4 139.1 137.1 138.2 136.5 137.5 C 135.8 136.8 135 136.5 134 136.5 C 133.2 136.5 132.6 136.7 132.1 137 C 131.5 137.3 131.1 137.7 130.8 138.3 C 130.5 138.9 130.3 139.6 130.3 140.4 Z " stroke="none" fill="#ffffff"/>  </g>  <g id="Polygon118186">    <path d="M 2.1 109.5 L 2.1 90.4 L 7.4 90.4 L 7.4 109.5 L 2.1 109.5 Z M 4.8 87.9 C 4 87.9 3.3 87.6 2.8 87.1 C 2.2 86.6 1.9 86 1.9 85.2 C 1.9 84.5 2.2 83.9 2.8 83.3 C 3.3 82.8 4 82.5 4.8 82.5 C 5.6 82.5 6.2 82.8 6.8 83.3 C 7.4 83.9 7.6 84.5 7.6 85.2 C 7.6 86 7.4 86.6 6.8 87.1 C 6.2 87.6 5.6 87.9 4.8 87.9 Z M 11.6 109.5 L 11.6 90.4 L 16.7 90.4 L 16.7 93.7 C 16.7 93.7 16.91 93.73 16.9 93.7 C 17.3 92.6 18 91.7 18.9 91.1 C 19.8 90.4 20.9 90.1 22.2 90.1 C 23.5 90.1 24.6 90.4 25.6 91.1 C 26.5 91.7 27.1 92.6 27.4 93.7 C 27.4 93.7 27.6 93.7 27.6 93.7 C 28 92.6 28.7 91.8 29.7 91.1 C 30.8 90.4 32 90.1 33.4 90.1 C 35.1 90.1 36.6 90.7 37.7 91.8 C 38.8 92.9 39.4 94.5 39.4 96.6 C 39.38 96.62 39.4 109.5 39.4 109.5 L 34.1 109.5 C 34.1 109.5 34.1 97.66 34.1 97.7 C 34.1 96.6 33.8 95.8 33.3 95.3 C 32.7 94.7 32 94.5 31.1 94.5 C 30.2 94.5 29.4 94.8 28.9 95.4 C 28.3 96 28.1 96.8 28.1 97.8 C 28.08 97.8 28.1 109.5 28.1 109.5 L 22.9 109.5 C 22.9 109.5 22.95 97.55 22.9 97.5 C 22.9 96.6 22.7 95.9 22.1 95.3 C 21.6 94.8 20.9 94.5 20 94.5 C 19.5 94.5 18.9 94.6 18.5 94.9 C 18 95.2 17.6 95.6 17.3 96.1 C 17.1 96.7 16.9 97.3 16.9 98 C 16.93 98 16.9 109.5 16.9 109.5 L 11.6 109.5 Z M 43.5 116.6 L 43.5 90.4 L 48.8 90.4 L 48.8 93.6 C 48.8 93.6 48.99 93.57 49 93.6 C 49.2 93.1 49.6 92.5 50 92 C 50.4 91.5 51 91 51.7 90.7 C 52.5 90.3 53.4 90.1 54.4 90.1 C 55.8 90.1 57.1 90.5 58.3 91.2 C 59.5 91.9 60.4 93 61.1 94.5 C 61.8 95.9 62.2 97.7 62.2 99.9 C 62.2 102.1 61.8 103.9 61.1 105.3 C 60.4 106.8 59.5 107.9 58.3 108.6 C 57.2 109.4 55.9 109.8 54.4 109.8 C 53.4 109.8 52.5 109.6 51.8 109.3 C 51.1 108.9 50.5 108.5 50 108 C 49.6 107.5 49.2 106.9 49 106.4 C 48.99 106.4 48.8 106.4 48.8 106.4 L 48.8 116.6 L 43.5 116.6 Z M 48.7 99.9 C 48.7 101 48.9 102 49.2 102.9 C 49.5 103.7 50 104.4 50.6 104.8 C 51.2 105.3 51.9 105.6 52.7 105.6 C 53.6 105.6 54.3 105.3 54.9 104.8 C 55.5 104.4 56 103.7 56.3 102.8 C 56.6 102 56.7 101 56.7 99.9 C 56.7 98.8 56.6 97.8 56.3 97 C 56 96.2 55.5 95.5 54.9 95 C 54.3 94.6 53.6 94.3 52.7 94.3 C 51.9 94.3 51.1 94.6 50.6 95 C 50 95.5 49.5 96.1 49.2 97 C 48.9 97.8 48.7 98.8 48.7 99.9 Z M 70.8 109.8 C 69.6 109.8 68.5 109.6 67.6 109.2 C 66.6 108.7 65.9 108.1 65.3 107.3 C 64.8 106.4 64.5 105.4 64.5 104.1 C 64.5 103.1 64.7 102.2 65.1 101.5 C 65.4 100.7 66 100.1 66.7 99.7 C 67.3 99.3 68.1 98.9 68.9 98.7 C 69.8 98.5 70.7 98.3 71.6 98.2 C 72.8 98.1 73.7 98 74.3 97.9 C 75 97.8 75.5 97.7 75.8 97.4 C 76.1 97.2 76.3 96.9 76.3 96.5 C 76.3 96.5 76.3 96.5 76.3 96.5 C 76.3 95.7 76 95.1 75.5 94.6 C 75 94.2 74.3 94 73.4 94 C 72.5 94 71.7 94.2 71.2 94.6 C 70.6 95 70.2 95.6 70 96.2 C 70 96.2 65.1 95.8 65.1 95.8 C 65.4 94.6 65.9 93.6 66.6 92.8 C 67.3 91.9 68.3 91.3 69.4 90.8 C 70.6 90.3 71.9 90.1 73.5 90.1 C 74.5 90.1 75.5 90.2 76.5 90.5 C 77.5 90.7 78.4 91.1 79.1 91.6 C 79.9 92.2 80.5 92.8 80.9 93.7 C 81.3 94.5 81.6 95.4 81.6 96.6 C 81.57 96.58 81.6 109.5 81.6 109.5 L 76.5 109.5 L 76.5 106.8 C 76.5 106.8 76.4 106.81 76.4 106.8 C 76.1 107.4 75.7 107.9 75.2 108.4 C 74.7 108.8 74 109.2 73.3 109.4 C 72.6 109.7 71.8 109.8 70.8 109.8 Z M 72.3 106.2 C 73.1 106.2 73.8 106 74.4 105.7 C 75 105.4 75.5 105 75.8 104.4 C 76.1 103.9 76.3 103.3 76.3 102.6 C 76.3 102.6 76.3 100.6 76.3 100.6 C 76.1 100.7 75.9 100.8 75.6 100.9 C 75.3 101 75 101.1 74.7 101.1 C 74.3 101.2 74 101.3 73.6 101.3 C 73.2 101.4 72.9 101.4 72.6 101.5 C 72 101.6 71.5 101.7 71 101.9 C 70.5 102.1 70.2 102.4 69.9 102.7 C 69.7 103 69.5 103.5 69.5 103.9 C 69.5 104.7 69.8 105.2 70.3 105.6 C 70.9 106 71.5 106.2 72.3 106.2 Z M 94.2 109.8 C 92.2 109.8 90.5 109.4 89.1 108.6 C 87.7 107.7 86.7 106.6 85.9 105.1 C 85.2 103.6 84.8 101.9 84.8 100 C 84.8 98 85.2 96.3 85.9 94.8 C 86.7 93.4 87.8 92.2 89.2 91.4 C 90.6 90.5 92.2 90.1 94.2 90.1 C 95.8 90.1 97.3 90.4 98.5 91 C 99.8 91.6 100.8 92.5 101.5 93.6 C 102.2 94.7 102.6 95.9 102.7 97.4 C 102.7 97.4 97.7 97.4 97.7 97.4 C 97.6 96.5 97.2 95.7 96.6 95.1 C 96 94.5 95.2 94.2 94.2 94.2 C 93.4 94.2 92.7 94.5 92.1 94.9 C 91.5 95.3 91 96 90.7 96.8 C 90.3 97.7 90.2 98.7 90.2 99.9 C 90.2 101.1 90.3 102.2 90.7 103 C 91 103.9 91.5 104.5 92.1 105 C 92.7 105.4 93.4 105.6 94.2 105.6 C 94.8 105.6 95.4 105.5 95.9 105.3 C 96.4 105 96.8 104.7 97.1 104.2 C 97.4 103.7 97.6 103.1 97.7 102.5 C 97.7 102.5 102.7 102.5 102.7 102.5 C 102.6 103.9 102.2 105.2 101.5 106.3 C 100.8 107.4 99.8 108.3 98.6 108.9 C 97.3 109.5 95.9 109.8 94.2 109.8 Z M 116 90.4 L 116 94.3 L 104.5 94.3 L 104.5 90.4 L 116 90.4 Z M 107.2 85.8 L 112.4 85.8 C 112.4 85.8 112.45 103.59 112.4 103.6 C 112.4 104.1 112.5 104.5 112.7 104.7 C 112.8 105 113 105.2 113.3 105.3 C 113.6 105.4 113.9 105.5 114.2 105.5 C 114.5 105.5 114.7 105.4 115 105.4 C 115.2 105.3 115.4 105.3 115.6 105.3 C 115.6 105.3 116.4 109.2 116.4 109.2 C 116.1 109.3 115.7 109.4 115.3 109.5 C 114.8 109.6 114.2 109.7 113.5 109.7 C 112.2 109.8 111.1 109.6 110.2 109.2 C 109.2 108.8 108.5 108.2 107.9 107.4 C 107.4 106.6 107.1 105.5 107.2 104.3 C 107.15 104.28 107.2 85.8 107.2 85.8 Z M 136.2 109.8 C 134.3 109.8 132.6 109.4 131.2 108.6 C 129.8 107.8 128.7 106.6 128 105.1 C 127.2 103.7 126.8 101.9 126.8 100 C 126.8 98 127.2 96.3 128 94.8 C 128.7 93.3 129.8 92.2 131.2 91.4 C 132.6 90.5 134.3 90.1 136.2 90.1 C 138.2 90.1 139.8 90.5 141.2 91.4 C 142.6 92.2 143.7 93.3 144.5 94.8 C 145.2 96.3 145.6 98 145.6 100 C 145.6 101.9 145.2 103.7 144.5 105.1 C 143.7 106.6 142.6 107.8 141.2 108.6 C 139.8 109.4 138.2 109.8 136.2 109.8 Z M 136.2 105.7 C 137.1 105.7 137.9 105.5 138.4 105 C 139 104.5 139.5 103.8 139.8 102.9 C 140.1 102 140.2 101.1 140.2 99.9 C 140.2 98.8 140.1 97.8 139.8 97 C 139.5 96.1 139 95.4 138.4 94.9 C 137.9 94.4 137.1 94.2 136.2 94.2 C 135.4 94.2 134.6 94.4 134 94.9 C 133.4 95.4 133 96.1 132.7 97 C 132.4 97.8 132.2 98.8 132.2 99.9 C 132.2 101.1 132.4 102 132.7 102.9 C 133 103.8 133.4 104.5 134 105 C 134.6 105.5 135.4 105.7 136.2 105.7 Z M 158.9 90.4 L 158.9 94.3 L 147.1 94.3 L 147.1 90.4 L 158.9 90.4 Z M 149.8 109.5 C 149.8 109.5 149.77 88.98 149.8 89 C 149.8 87.6 150 86.5 150.6 85.5 C 151.1 84.6 151.9 83.9 152.8 83.5 C 153.8 83 154.8 82.8 156 82.8 C 156.8 82.8 157.6 82.9 158.3 83 C 158.9 83.1 159.4 83.2 159.8 83.3 C 159.8 83.3 158.8 87.3 158.8 87.3 C 158.6 87.2 158.4 87.2 158.1 87.1 C 157.8 87.1 157.5 87 157.1 87 C 156.4 87 155.8 87.2 155.5 87.6 C 155.2 87.9 155.1 88.4 155.1 89.1 C 155.05 89.08 155.1 109.5 155.1 109.5 L 149.8 109.5 Z M 178.9 109.8 C 176.9 109.8 175.2 109.4 173.8 108.6 C 172.4 107.8 171.3 106.7 170.6 105.2 C 169.8 103.8 169.4 102 169.4 100 C 169.4 98 169.8 96.3 170.6 94.8 C 171.3 93.3 172.4 92.2 173.8 91.4 C 175.2 90.5 176.8 90.1 178.7 90.1 C 179.9 90.1 181.1 90.3 182.2 90.7 C 183.3 91.1 184.3 91.7 185.1 92.5 C 185.9 93.3 186.5 94.3 187 95.6 C 187.4 96.8 187.7 98.2 187.7 99.8 C 187.66 99.81 187.7 101.3 187.7 101.3 L 171.5 101.3 L 171.5 98 C 171.5 98 182.68 97.98 182.7 98 C 182.7 97.2 182.5 96.5 182.2 96 C 181.9 95.4 181.4 94.9 180.8 94.6 C 180.2 94.2 179.5 94.1 178.8 94.1 C 178 94.1 177.3 94.3 176.6 94.6 C 176 95 175.5 95.5 175.2 96.1 C 174.8 96.7 174.7 97.4 174.7 98.2 C 174.7 98.2 174.7 101.3 174.7 101.3 C 174.7 102.2 174.8 103 175.2 103.7 C 175.5 104.4 176 104.9 176.7 105.3 C 177.3 105.7 178.1 105.9 179 105.9 C 179.6 105.9 180.1 105.8 180.6 105.6 C 181.1 105.5 181.5 105.2 181.9 104.9 C 182.2 104.5 182.5 104.1 182.7 103.7 C 182.7 103.7 187.6 104 187.6 104 C 187.3 105.2 186.8 106.2 186 107.1 C 185.3 107.9 184.3 108.6 183.1 109.1 C 181.9 109.6 180.5 109.8 178.9 109.8 Z M 207.9 90.4 L 201.2 109.5 L 195.2 109.5 L 188.6 90.4 L 194.2 90.4 L 198.1 104 L 198.3 104 L 202.3 90.4 L 207.9 90.4 Z M 218.2 109.8 C 216.3 109.8 214.6 109.4 213.2 108.6 C 211.8 107.8 210.7 106.7 209.9 105.2 C 209.2 103.8 208.8 102 208.8 100 C 208.8 98 209.2 96.3 209.9 94.8 C 210.7 93.3 211.8 92.2 213.1 91.4 C 214.5 90.5 216.2 90.1 218 90.1 C 219.3 90.1 220.5 90.3 221.6 90.7 C 222.6 91.1 223.6 91.7 224.4 92.5 C 225.2 93.3 225.9 94.3 226.3 95.6 C 226.8 96.8 227 98.2 227 99.8 C 227.01 99.81 227 101.3 227 101.3 L 210.9 101.3 L 210.9 98 C 210.9 98 222.02 97.98 222 98 C 222 97.2 221.9 96.5 221.5 96 C 221.2 95.4 220.7 94.9 220.2 94.6 C 219.6 94.2 218.9 94.1 218.1 94.1 C 217.3 94.1 216.6 94.3 216 94.6 C 215.4 95 214.9 95.5 214.5 96.1 C 214.2 96.7 214 97.4 214 98.2 C 214 98.2 214 101.3 214 101.3 C 214 102.2 214.2 103 214.5 103.7 C 214.9 104.4 215.4 104.9 216 105.3 C 216.7 105.7 217.4 105.9 218.3 105.9 C 218.9 105.9 219.5 105.8 219.9 105.6 C 220.4 105.5 220.9 105.2 221.2 104.9 C 221.6 104.5 221.8 104.1 222 103.7 C 222 103.7 226.9 104 226.9 104 C 226.6 105.2 226.1 106.2 225.4 107.1 C 224.6 107.9 223.6 108.6 222.4 109.1 C 221.2 109.6 219.8 109.8 218.2 109.8 Z M 230.4 109.5 L 230.4 90.4 L 235.6 90.4 L 235.6 93.7 C 235.6 93.7 235.78 93.69 235.8 93.7 C 236.1 92.5 236.7 91.6 237.5 91 C 238.4 90.4 239.3 90.1 240.4 90.1 C 240.6 90.1 240.9 90.1 241.2 90.1 C 241.5 90.2 241.8 90.2 242 90.3 C 242 90.3 242 95 242 95 C 241.8 94.9 241.4 94.8 241 94.8 C 240.6 94.7 240.2 94.7 239.8 94.7 C 239 94.7 238.3 94.9 237.7 95.2 C 237.1 95.5 236.6 96 236.3 96.6 C 235.9 97.2 235.7 97.9 235.7 98.7 C 235.74 98.65 235.7 109.5 235.7 109.5 L 230.4 109.5 Z M 248.5 116.6 C 247.9 116.6 247.2 116.6 246.7 116.5 C 246.1 116.4 245.6 116.2 245.2 116.1 C 245.2 116.1 246.4 112.1 246.4 112.1 C 247 112.3 247.6 112.4 248.1 112.4 C 248.6 112.4 249 112.3 249.4 112.1 C 249.8 111.8 250.1 111.4 250.3 110.8 C 250.29 110.81 250.6 110 250.6 110 L 243.7 90.4 L 249.3 90.4 L 253.3 104.4 L 253.5 104.4 L 257.5 90.4 L 263.1 90.4 C 263.1 90.4 255.64 111.52 255.6 111.5 C 255.3 112.5 254.8 113.4 254.2 114.2 C 253.6 115 252.8 115.6 251.9 116 C 251 116.4 249.8 116.6 248.5 116.6 Z " stroke="none" fill="#ffffff"/>  </g>  <g id="Polygon118185">    <path d="M 10.7 67.8 C 8.8 67.8 7.1 67.4 5.7 66.6 C 4.3 65.7 3.2 64.6 2.5 63.1 C 1.7 61.6 1.3 59.9 1.3 58 C 1.3 56 1.7 54.3 2.5 52.8 C 3.2 51.4 4.3 50.2 5.7 49.4 C 7.1 48.5 8.8 48.1 10.7 48.1 C 12.4 48.1 13.8 48.4 15.1 49 C 16.3 49.6 17.3 50.5 18.1 51.6 C 18.8 52.7 19.2 53.9 19.3 55.4 C 19.3 55.4 14.3 55.4 14.3 55.4 C 14.1 54.5 13.8 53.7 13.2 53.1 C 12.6 52.5 11.8 52.2 10.8 52.2 C 10 52.2 9.3 52.5 8.7 52.9 C 8 53.3 7.6 54 7.2 54.8 C 6.9 55.7 6.7 56.7 6.7 57.9 C 6.7 59.1 6.9 60.2 7.2 61 C 7.6 61.9 8 62.5 8.7 63 C 9.3 63.4 10 63.6 10.8 63.6 C 11.4 63.6 12 63.5 12.4 63.3 C 12.9 63 13.3 62.7 13.6 62.2 C 14 61.7 14.2 61.1 14.3 60.5 C 14.3 60.5 19.3 60.5 19.3 60.5 C 19.2 61.9 18.8 63.2 18.1 64.3 C 17.4 65.4 16.4 66.3 15.2 66.9 C 13.9 67.5 12.4 67.8 10.7 67.8 Z M 31 67.8 C 29.1 67.8 27.4 67.4 26 66.6 C 24.6 65.8 23.5 64.6 22.7 63.1 C 22 61.7 21.6 59.9 21.6 58 C 21.6 56 22 54.3 22.7 52.8 C 23.5 51.3 24.6 50.2 26 49.4 C 27.4 48.5 29.1 48.1 31 48.1 C 32.9 48.1 34.6 48.5 36 49.4 C 37.4 50.2 38.5 51.3 39.2 52.8 C 40 54.3 40.4 56 40.4 58 C 40.4 59.9 40 61.7 39.2 63.1 C 38.5 64.6 37.4 65.8 36 66.6 C 34.6 67.4 32.9 67.8 31 67.8 Z M 31 63.7 C 31.9 63.7 32.6 63.5 33.2 63 C 33.8 62.5 34.3 61.8 34.6 60.9 C 34.9 60 35 59.1 35 57.9 C 35 56.8 34.9 55.8 34.6 55 C 34.3 54.1 33.8 53.4 33.2 52.9 C 32.6 52.4 31.9 52.2 31 52.2 C 30.1 52.2 29.4 52.4 28.8 52.9 C 28.2 53.4 27.7 54.1 27.4 55 C 27.1 55.8 27 56.8 27 57.9 C 27 59.1 27.1 60 27.4 60.9 C 27.7 61.8 28.2 62.5 28.8 63 C 29.4 63.5 30.1 63.7 31 63.7 Z M 49 56.4 C 49.01 56.42 49 67.5 49 67.5 L 43.7 67.5 L 43.7 48.4 L 48.8 48.4 L 48.8 51.7 C 48.8 51.7 48.99 51.73 49 51.7 C 49.4 50.6 50.1 49.7 51.1 49.1 C 52.1 48.4 53.3 48.1 54.7 48.1 C 56.1 48.1 57.2 48.4 58.2 49 C 59.2 49.6 59.9 50.4 60.5 51.5 C 61 52.5 61.3 53.8 61.3 55.3 C 61.32 55.3 61.3 67.5 61.3 67.5 L 56 67.5 C 56 67.5 56.02 56.24 56 56.2 C 56 55.1 55.7 54.2 55.1 53.5 C 54.5 52.8 53.7 52.5 52.6 52.5 C 51.9 52.5 51.3 52.7 50.7 53 C 50.2 53.3 49.8 53.7 49.5 54.3 C 49.2 54.9 49 55.6 49 56.4 Z M 70.8 56.4 C 70.76 56.42 70.8 67.5 70.8 67.5 L 65.5 67.5 L 65.5 48.4 L 70.5 48.4 L 70.5 51.7 C 70.5 51.7 70.74 51.73 70.7 51.7 C 71.2 50.6 71.9 49.7 72.9 49.1 C 73.9 48.4 75.1 48.1 76.5 48.1 C 77.8 48.1 79 48.4 79.9 49 C 80.9 49.6 81.7 50.4 82.2 51.5 C 82.8 52.5 83.1 53.8 83.1 55.3 C 83.07 55.3 83.1 67.5 83.1 67.5 L 77.8 67.5 C 77.8 67.5 77.77 56.24 77.8 56.2 C 77.8 55.1 77.5 54.2 76.9 53.5 C 76.3 52.8 75.4 52.5 74.4 52.5 C 73.7 52.5 73 52.7 72.5 53 C 72 53.3 71.5 53.7 71.2 54.3 C 70.9 54.9 70.8 55.6 70.8 56.4 Z M 95.8 67.8 C 93.8 67.8 92.1 67.4 90.7 66.6 C 89.3 65.8 88.2 64.7 87.4 63.2 C 86.7 61.8 86.3 60 86.3 58 C 86.3 56 86.7 54.3 87.4 52.8 C 88.2 51.3 89.3 50.2 90.7 49.4 C 92.1 48.5 93.7 48.1 95.6 48.1 C 96.8 48.1 98 48.3 99.1 48.7 C 100.2 49.1 101.1 49.7 101.9 50.5 C 102.8 51.3 103.4 52.3 103.9 53.6 C 104.3 54.8 104.5 56.2 104.5 57.8 C 104.53 57.81 104.5 59.3 104.5 59.3 L 88.4 59.3 L 88.4 56 C 88.4 56 99.55 55.98 99.5 56 C 99.5 55.2 99.4 54.5 99.1 54 C 98.7 53.4 98.3 52.9 97.7 52.6 C 97.1 52.2 96.4 52.1 95.6 52.1 C 94.8 52.1 94.1 52.3 93.5 52.6 C 92.9 53 92.4 53.5 92.1 54.1 C 91.7 54.7 91.5 55.4 91.5 56.2 C 91.5 56.2 91.5 59.3 91.5 59.3 C 91.5 60.2 91.7 61 92.1 61.7 C 92.4 62.4 92.9 62.9 93.6 63.3 C 94.2 63.7 95 63.9 95.9 63.9 C 96.4 63.9 97 63.8 97.5 63.6 C 98 63.5 98.4 63.2 98.7 62.9 C 99.1 62.5 99.3 62.1 99.5 61.7 C 99.5 61.7 104.4 62 104.4 62 C 104.2 63.2 103.7 64.2 102.9 65.1 C 102.1 65.9 101.1 66.6 99.9 67.1 C 98.7 67.6 97.3 67.8 95.8 67.8 Z M 116.5 67.8 C 114.5 67.8 112.8 67.4 111.4 66.6 C 110 65.7 108.9 64.6 108.2 63.1 C 107.4 61.6 107.1 59.9 107.1 58 C 107.1 56 107.4 54.3 108.2 52.8 C 108.9 51.4 110 50.2 111.4 49.4 C 112.8 48.5 114.5 48.1 116.4 48.1 C 118.1 48.1 119.5 48.4 120.8 49 C 122.1 49.6 123 50.5 123.8 51.6 C 124.5 52.7 124.9 53.9 125 55.4 C 125 55.4 120 55.4 120 55.4 C 119.8 54.5 119.5 53.7 118.9 53.1 C 118.3 52.5 117.5 52.2 116.5 52.2 C 115.7 52.2 115 52.5 114.4 52.9 C 113.8 53.3 113.3 54 112.9 54.8 C 112.6 55.7 112.4 56.7 112.4 57.9 C 112.4 59.1 112.6 60.2 112.9 61 C 113.3 61.9 113.7 62.5 114.4 63 C 115 63.4 115.7 63.6 116.5 63.6 C 117.1 63.6 117.7 63.5 118.1 63.3 C 118.6 63 119 62.7 119.4 62.2 C 119.7 61.7 119.9 61.1 120 60.5 C 120 60.5 125 60.5 125 60.5 C 124.9 61.9 124.5 63.2 123.8 64.3 C 123.1 65.4 122.1 66.3 120.9 66.9 C 119.6 67.5 118.1 67.8 116.5 67.8 Z M 138.3 48.4 L 138.3 52.3 L 126.8 52.3 L 126.8 48.4 L 138.3 48.4 Z M 129.4 43.8 L 134.7 43.8 C 134.7 43.8 134.72 61.59 134.7 61.6 C 134.7 62.1 134.8 62.5 134.9 62.7 C 135.1 63 135.3 63.2 135.6 63.3 C 135.8 63.4 136.2 63.5 136.5 63.5 C 136.8 63.5 137 63.4 137.3 63.4 C 137.5 63.3 137.7 63.3 137.8 63.3 C 137.8 63.3 138.7 67.2 138.7 67.2 C 138.4 67.3 138 67.4 137.5 67.5 C 137.1 67.6 136.5 67.7 135.8 67.7 C 134.5 67.8 133.4 67.6 132.4 67.2 C 131.5 66.8 130.7 66.2 130.2 65.4 C 129.7 64.6 129.4 63.5 129.4 62.3 C 129.43 62.28 129.4 43.8 129.4 43.8 Z M 157.1 53.8 C 157.1 53.8 152.3 54.1 152.3 54.1 C 152.2 53.7 152 53.3 151.7 53 C 151.4 52.6 151.1 52.4 150.6 52.2 C 150.2 52 149.7 51.9 149.1 51.9 C 148.2 51.9 147.6 52 147 52.4 C 146.4 52.7 146.1 53.2 146.1 53.8 C 146.1 54.2 146.3 54.6 146.7 54.9 C 147.1 55.2 147.7 55.5 148.6 55.7 C 148.6 55.7 152 56.4 152 56.4 C 153.9 56.7 155.3 57.4 156.2 58.2 C 157.1 59.1 157.5 60.2 157.5 61.5 C 157.5 62.8 157.2 63.9 156.4 64.8 C 155.7 65.8 154.7 66.5 153.4 67 C 152.2 67.6 150.7 67.8 149 67.8 C 146.5 67.8 144.5 67.3 143 66.2 C 141.5 65.2 140.6 63.7 140.4 61.9 C 140.4 61.9 145.6 61.7 145.6 61.7 C 145.7 62.4 146.1 63 146.7 63.4 C 147.3 63.8 148.1 64 149.1 64 C 150 64 150.7 63.8 151.3 63.5 C 151.9 63.1 152.1 62.6 152.2 62.1 C 152.1 61.6 151.9 61.2 151.5 60.9 C 151.2 60.6 150.5 60.3 149.7 60.2 C 149.7 60.2 146.4 59.5 146.4 59.5 C 144.5 59.1 143.2 58.5 142.2 57.6 C 141.3 56.7 140.9 55.5 140.9 54.1 C 140.9 52.8 141.2 51.8 141.9 50.9 C 142.6 50 143.5 49.3 144.7 48.8 C 145.9 48.4 147.3 48.1 149 48.1 C 151.4 48.1 153.3 48.6 154.7 49.6 C 156.1 50.7 156.9 52.1 157.1 53.8 Z M 179.2 48.4 L 179.2 52.3 L 167.7 52.3 L 167.7 48.4 L 179.2 48.4 Z M 170.3 43.8 L 175.6 43.8 C 175.6 43.8 175.56 61.59 175.6 61.6 C 175.6 62.1 175.6 62.5 175.8 62.7 C 175.9 63 176.1 63.2 176.4 63.3 C 176.7 63.4 177 63.5 177.4 63.5 C 177.6 63.5 177.8 63.4 178.1 63.4 C 178.3 63.3 178.5 63.3 178.7 63.3 C 178.7 63.3 179.5 67.2 179.5 67.2 C 179.2 67.3 178.9 67.4 178.4 67.5 C 177.9 67.6 177.3 67.7 176.6 67.7 C 175.4 67.8 174.2 67.6 173.3 67.2 C 172.3 66.8 171.6 66.2 171 65.4 C 170.5 64.6 170.3 63.5 170.3 62.3 C 170.27 62.28 170.3 43.8 170.3 43.8 Z M 187.7 56.4 C 187.67 56.42 187.7 67.5 187.7 67.5 L 182.4 67.5 L 182.4 42 L 187.5 42 L 187.5 51.7 C 187.5 51.7 187.74 51.73 187.7 51.7 C 188.2 50.6 188.9 49.7 189.8 49.1 C 190.8 48.4 192 48.1 193.4 48.1 C 194.8 48.1 195.9 48.4 196.9 49 C 197.9 49.6 198.7 50.4 199.2 51.5 C 199.8 52.5 200.1 53.8 200 55.3 C 200.05 55.3 200 67.5 200 67.5 L 194.8 67.5 C 194.8 67.5 194.75 56.24 194.8 56.2 C 194.8 55.1 194.5 54.2 193.9 53.5 C 193.3 52.8 192.4 52.5 191.3 52.5 C 190.6 52.5 190 52.7 189.4 53 C 188.9 53.3 188.5 53.7 188.1 54.3 C 187.8 54.9 187.7 55.6 187.7 56.4 Z M 212.8 67.8 C 210.8 67.8 209.1 67.4 207.7 66.6 C 206.3 65.8 205.2 64.7 204.4 63.2 C 203.7 61.8 203.3 60 203.3 58 C 203.3 56 203.7 54.3 204.4 52.8 C 205.2 51.3 206.3 50.2 207.7 49.4 C 209 48.5 210.7 48.1 212.5 48.1 C 213.8 48.1 215 48.3 216.1 48.7 C 217.2 49.1 218.1 49.7 218.9 50.5 C 219.7 51.3 220.4 52.3 220.8 53.6 C 221.3 54.8 221.5 56.2 221.5 57.8 C 221.52 57.81 221.5 59.3 221.5 59.3 L 205.4 59.3 L 205.4 56 C 205.4 56 216.54 55.98 216.5 56 C 216.5 55.2 216.4 54.5 216 54 C 215.7 53.4 215.3 52.9 214.7 52.6 C 214.1 52.2 213.4 52.1 212.6 52.1 C 211.8 52.1 211.1 52.3 210.5 52.6 C 209.9 53 209.4 53.5 209.1 54.1 C 208.7 54.7 208.5 55.4 208.5 56.2 C 208.5 56.2 208.5 59.3 208.5 59.3 C 208.5 60.2 208.7 61 209.1 61.7 C 209.4 62.4 209.9 62.9 210.5 63.3 C 211.2 63.7 212 63.9 212.8 63.9 C 213.4 63.9 214 63.8 214.5 63.6 C 215 63.5 215.4 63.2 215.7 62.9 C 216.1 62.5 216.3 62.1 216.5 61.7 C 216.5 61.7 221.4 62 221.4 62 C 221.2 63.2 220.7 64.2 219.9 65.1 C 219.1 65.9 218.1 66.6 216.9 67.1 C 215.7 67.6 214.3 67.8 212.8 67.8 Z " stroke="none" fill="#ffffff"/>  </g>  <g id="Polygon118184">    <path d="M 6.6 25.5 L 0.8 25.5 L 9.6 0 L 16.6 0 L 25.3 25.5 L 19.6 25.5 L 13.2 5.8 L 13 5.8 L 6.6 25.5 Z M 6.2 15.4 L 19.9 15.4 L 19.9 19.7 L 6.2 19.7 L 6.2 15.4 Z M 33.4 14.4 C 33.39 14.42 33.4 25.5 33.4 25.5 L 28.1 25.5 L 28.1 6.4 L 33.1 6.4 L 33.1 9.7 C 33.1 9.7 33.36 9.73 33.4 9.7 C 33.8 8.6 34.5 7.7 35.5 7.1 C 36.5 6.4 37.7 6.1 39.1 6.1 C 40.4 6.1 41.6 6.4 42.6 7 C 43.6 7.6 44.3 8.4 44.9 9.5 C 45.4 10.5 45.7 11.8 45.7 13.3 C 45.69 13.3 45.7 25.5 45.7 25.5 L 40.4 25.5 C 40.4 25.5 40.4 14.24 40.4 14.2 C 40.4 13.1 40.1 12.2 39.5 11.5 C 38.9 10.8 38.1 10.5 37 10.5 C 36.3 10.5 35.7 10.7 35.1 11 C 34.6 11.3 34.2 11.7 33.9 12.3 C 33.6 12.9 33.4 13.6 33.4 14.4 Z M 55.1 25.8 C 53.9 25.8 52.8 25.6 51.9 25.2 C 50.9 24.7 50.2 24.1 49.6 23.3 C 49.1 22.4 48.8 21.4 48.8 20.1 C 48.8 19.1 49 18.2 49.4 17.5 C 49.8 16.7 50.3 16.1 51 15.7 C 51.7 15.3 52.4 14.9 53.3 14.7 C 54.1 14.5 55 14.3 56 14.2 C 57.1 14.1 58 14 58.7 13.9 C 59.3 13.8 59.8 13.7 60.1 13.4 C 60.5 13.2 60.6 12.9 60.6 12.5 C 60.6 12.5 60.6 12.5 60.6 12.5 C 60.6 11.7 60.4 11.1 59.9 10.6 C 59.4 10.2 58.7 10 57.8 10 C 56.8 10 56.1 10.2 55.5 10.6 C 54.9 11 54.6 11.6 54.4 12.2 C 54.4 12.2 49.5 11.8 49.5 11.8 C 49.7 10.6 50.2 9.6 50.9 8.8 C 51.7 7.9 52.6 7.3 53.8 6.8 C 54.9 6.3 56.3 6.1 57.8 6.1 C 58.9 6.1 59.9 6.2 60.8 6.5 C 61.8 6.7 62.7 7.1 63.4 7.6 C 64.2 8.2 64.8 8.8 65.2 9.7 C 65.7 10.5 65.9 11.4 65.9 12.6 C 65.9 12.58 65.9 25.5 65.9 25.5 L 60.9 25.5 L 60.9 22.8 C 60.9 22.8 60.73 22.81 60.7 22.8 C 60.4 23.4 60 23.9 59.5 24.4 C 59 24.8 58.4 25.2 57.6 25.4 C 56.9 25.7 56.1 25.8 55.1 25.8 Z M 56.7 22.2 C 57.4 22.2 58.1 22 58.7 21.7 C 59.3 21.4 59.8 21 60.1 20.4 C 60.5 19.9 60.6 19.3 60.6 18.6 C 60.6 18.6 60.6 16.6 60.6 16.6 C 60.5 16.7 60.3 16.8 60 16.9 C 59.7 17 59.4 17.1 59 17.1 C 58.6 17.2 58.3 17.3 57.9 17.3 C 57.6 17.4 57.3 17.4 57 17.5 C 56.3 17.6 55.8 17.7 55.3 17.9 C 54.9 18.1 54.5 18.4 54.3 18.7 C 54 19 53.9 19.5 53.9 19.9 C 53.9 20.7 54.1 21.2 54.7 21.6 C 55.2 22 55.9 22.2 56.7 22.2 Z M 70 32.6 L 70 6.4 L 75.3 6.4 L 75.3 9.6 C 75.3 9.6 75.5 9.57 75.5 9.6 C 75.7 9.1 76.1 8.5 76.5 8 C 77 7.5 77.5 7 78.3 6.7 C 79 6.3 79.9 6.1 80.9 6.1 C 82.3 6.1 83.6 6.5 84.8 7.2 C 86 7.9 86.9 9 87.6 10.5 C 88.3 11.9 88.7 13.7 88.7 15.9 C 88.7 18.1 88.3 19.9 87.6 21.3 C 87 22.8 86 23.9 84.9 24.6 C 83.7 25.4 82.4 25.8 80.9 25.8 C 79.9 25.8 79 25.6 78.3 25.3 C 77.6 24.9 77 24.5 76.5 24 C 76.1 23.5 75.7 22.9 75.5 22.4 C 75.5 22.4 75.3 22.4 75.3 22.4 L 75.3 32.6 L 70 32.6 Z M 75.2 15.9 C 75.2 17 75.4 18 75.7 18.9 C 76 19.7 76.5 20.4 77.1 20.8 C 77.7 21.3 78.4 21.6 79.2 21.6 C 80.1 21.6 80.8 21.3 81.4 20.8 C 82 20.4 82.5 19.7 82.8 18.8 C 83.1 18 83.3 17 83.3 15.9 C 83.3 14.8 83.1 13.8 82.8 13 C 82.5 12.2 82 11.5 81.4 11 C 80.8 10.6 80.1 10.3 79.2 10.3 C 78.4 10.3 77.7 10.6 77.1 11 C 76.5 11.5 76 12.1 75.7 13 C 75.4 13.8 75.2 14.8 75.2 15.9 Z M 97.5 0 L 97.5 25.5 L 92.2 25.5 L 92.2 0 L 97.5 0 Z M 107.1 25.8 C 105.8 25.8 104.7 25.6 103.8 25.2 C 102.8 24.7 102.1 24.1 101.5 23.3 C 101 22.4 100.7 21.4 100.7 20.1 C 100.7 19.1 100.9 18.2 101.3 17.5 C 101.7 16.7 102.2 16.1 102.9 15.7 C 103.6 15.3 104.3 14.9 105.2 14.7 C 106 14.5 106.9 14.3 107.9 14.2 C 109 14.1 109.9 14 110.6 13.9 C 111.2 13.8 111.7 13.7 112 13.4 C 112.4 13.2 112.5 12.9 112.5 12.5 C 112.5 12.5 112.5 12.5 112.5 12.5 C 112.5 11.7 112.3 11.1 111.8 10.6 C 111.3 10.2 110.6 10 109.7 10 C 108.7 10 108 10.2 107.4 10.6 C 106.8 11 106.5 11.6 106.3 12.2 C 106.3 12.2 101.4 11.8 101.4 11.8 C 101.6 10.6 102.1 9.6 102.9 8.8 C 103.6 7.9 104.5 7.3 105.7 6.8 C 106.8 6.3 108.2 6.1 109.7 6.1 C 110.8 6.1 111.8 6.2 112.8 6.5 C 113.7 6.7 114.6 7.1 115.3 7.6 C 116.1 8.2 116.7 8.8 117.1 9.7 C 117.6 10.5 117.8 11.4 117.8 12.6 C 117.8 12.58 117.8 25.5 117.8 25.5 L 112.8 25.5 L 112.8 22.8 C 112.8 22.8 112.63 22.81 112.6 22.8 C 112.3 23.4 111.9 23.9 111.4 24.4 C 110.9 24.8 110.3 25.2 109.6 25.4 C 108.8 25.7 108 25.8 107.1 25.8 Z M 108.6 22.2 C 109.3 22.2 110 22 110.6 21.7 C 111.2 21.4 111.7 21 112 20.4 C 112.4 19.9 112.5 19.3 112.5 18.6 C 112.5 18.6 112.5 16.6 112.5 16.6 C 112.4 16.7 112.2 16.8 111.9 16.9 C 111.6 17 111.3 17.1 110.9 17.1 C 110.5 17.2 110.2 17.3 109.8 17.3 C 109.5 17.4 109.2 17.4 108.9 17.5 C 108.2 17.6 107.7 17.7 107.2 17.9 C 106.8 18.1 106.4 18.4 106.2 18.7 C 105.9 19 105.8 19.5 105.8 19.9 C 105.8 20.7 106 21.2 106.6 21.6 C 107.1 22 107.8 22.2 108.6 22.2 Z M 127.2 14.4 C 127.24 14.42 127.2 25.5 127.2 25.5 L 121.9 25.5 L 121.9 6.4 L 127 6.4 L 127 9.7 C 127 9.7 127.22 9.73 127.2 9.7 C 127.6 8.6 128.4 7.7 129.3 7.1 C 130.3 6.4 131.5 6.1 133 6.1 C 134.3 6.1 135.4 6.4 136.4 7 C 137.4 7.6 138.2 8.4 138.7 9.5 C 139.3 10.5 139.5 11.8 139.5 13.3 C 139.55 13.3 139.5 25.5 139.5 25.5 L 134.3 25.5 C 134.3 25.5 134.25 14.24 134.3 14.2 C 134.3 13.1 134 12.2 133.4 11.5 C 132.8 10.8 131.9 10.5 130.9 10.5 C 130.1 10.5 129.5 10.7 129 11 C 128.4 11.3 128 11.7 127.7 12.3 C 127.4 12.9 127.3 13.6 127.2 14.4 Z " stroke="none" fill="#ffffff"/>  </g></svg>