<?xml version="1.0" standalone="no"?><!DOCTYPE svg PUBLIC "-//W3C//DTD SVG 1.1//EN" "http://www.w3.org/Graphics/SVG/1.1/DTD/svg11.dtd"><svg xmlns="http://www.w3.org/2000/svg" version="1.1" width="1234px" height="193.2px" viewBox="0 -25 1234 193.2" style="top:-25px">  <desc>Anaplan simplifies data management for trusted, actionable insights</desc>  <defs/>  <g id="Polygon122241">    <path d="M 23.7 92.6 L 23.7 100.2 L 1.1 100.2 L 1.1 92.6 L 23.7 92.6 Z M 6.3 129.1 C 6.3 129.1 6.31 89.94 6.3 89.9 C 6.3 87.3 6.8 85.1 7.9 83.4 C 8.9 81.6 10.3 80.3 12.1 79.4 C 13.9 78.6 16 78.1 18.3 78.1 C 19.9 78.1 21.3 78.2 22.6 78.5 C 23.9 78.7 24.8 78.9 25.5 79.1 C 25.5 79.1 23.6 86.7 23.6 86.7 C 23.3 86.6 22.8 86.5 22.2 86.4 C 21.6 86.3 21 86.2 20.4 86.2 C 18.9 86.2 17.9 86.6 17.3 87.2 C 16.7 87.9 16.4 88.9 16.4 90.1 C 16.42 90.13 16.4 129.1 16.4 129.1 L 6.3 129.1 Z M 44.3 129.8 C 40.6 129.8 37.4 129.1 34.7 127.5 C 32 125.9 30 123.7 28.5 120.9 C 27 118 26.3 114.7 26.3 111 C 26.3 107.2 27 103.9 28.5 101.1 C 30 98.3 32 96.1 34.7 94.5 C 37.4 92.9 40.6 92.1 44.3 92.1 C 48 92.1 51.2 92.9 53.9 94.5 C 56.6 96.1 58.6 98.3 60.1 101.1 C 61.6 103.9 62.3 107.2 62.3 111 C 62.3 114.7 61.6 118 60.1 120.9 C 58.6 123.7 56.6 125.9 53.9 127.5 C 51.2 129.1 48 129.8 44.3 129.8 Z M 44.3 122 C 46 122 47.4 121.5 48.6 120.6 C 49.7 119.6 50.5 118.3 51.1 116.6 C 51.7 114.9 52 113.1 52 110.9 C 52 108.8 51.7 106.9 51.1 105.2 C 50.5 103.6 49.7 102.3 48.6 101.3 C 47.4 100.3 46 99.8 44.3 99.8 C 42.6 99.8 41.2 100.3 40.1 101.3 C 38.9 102.3 38.1 103.6 37.5 105.2 C 36.9 106.9 36.6 108.8 36.6 110.9 C 36.6 113.1 36.9 114.9 37.5 116.6 C 38.1 118.3 38.9 119.6 40.1 120.6 C 41.2 121.5 42.6 122 44.3 122 Z M 68 129.1 L 68 92.6 L 77.9 92.6 L 77.9 99 C 77.9 99 78.25 98.96 78.2 99 C 78.9 96.7 80 95 81.6 93.8 C 83.2 92.6 85 92.1 87 92.1 C 87.5 92.1 88.1 92.1 88.7 92.2 C 89.3 92.2 89.8 92.3 90.2 92.4 C 90.2 92.4 90.2 101.4 90.2 101.4 C 89.7 101.3 89.1 101.1 88.2 101 C 87.4 100.9 86.6 100.9 85.9 100.9 C 84.4 100.9 83.1 101.2 81.9 101.8 C 80.8 102.5 79.9 103.4 79.2 104.5 C 78.5 105.6 78.2 107 78.2 108.5 C 78.18 108.45 78.2 129.1 78.2 129.1 L 68 129.1 Z M 130.4 92.6 L 130.4 100.2 L 108.4 100.2 L 108.4 92.6 L 130.4 92.6 Z M 113.4 83.8 L 123.5 83.8 C 123.5 83.8 123.53 117.9 123.5 117.9 C 123.5 118.8 123.7 119.6 124 120.1 C 124.2 120.6 124.6 121 125.2 121.2 C 125.7 121.4 126.3 121.5 127 121.5 C 127.4 121.5 127.9 121.4 128.4 121.3 C 128.9 121.2 129.2 121.2 129.5 121.1 C 129.5 121.1 131.1 128.7 131.1 128.7 C 130.6 128.8 129.8 129 128.9 129.2 C 128 129.4 126.9 129.6 125.6 129.6 C 123.1 129.7 121 129.4 119.2 128.7 C 117.3 127.9 115.9 126.7 114.9 125.2 C 113.9 123.6 113.4 121.6 113.4 119.2 C 113.39 119.23 113.4 83.8 113.4 83.8 Z M 135.9 129.1 L 135.9 92.6 L 145.8 92.6 L 145.8 99 C 145.8 99 146.15 98.96 146.2 99 C 146.8 96.7 147.9 95 149.5 93.8 C 151.1 92.6 152.9 92.1 154.9 92.1 C 155.4 92.1 156 92.1 156.6 92.2 C 157.2 92.2 157.7 92.3 158.1 92.4 C 158.1 92.4 158.1 101.4 158.1 101.4 C 157.6 101.3 157 101.1 156.1 101 C 155.3 100.9 154.5 100.9 153.8 100.9 C 152.3 100.9 151 101.2 149.9 101.8 C 148.7 102.5 147.8 103.4 147.1 104.5 C 146.4 105.6 146.1 107 146.1 108.5 C 146.08 108.45 146.1 129.1 146.1 129.1 L 135.9 129.1 Z M 185.6 113.6 C 185.62 113.57 185.6 92.6 185.6 92.6 L 195.8 92.6 L 195.8 129.1 L 186 129.1 L 186 122.5 C 186 122.5 185.64 122.49 185.6 122.5 C 184.8 124.6 183.5 126.4 181.5 127.7 C 179.6 129 177.3 129.6 174.6 129.6 C 172.1 129.6 170 129 168.1 127.9 C 166.3 126.8 164.8 125.2 163.8 123.2 C 162.7 121.2 162.2 118.7 162.2 115.9 C 162.19 115.85 162.2 92.6 162.2 92.6 L 172.3 92.6 C 172.3 92.6 172.32 114.04 172.3 114 C 172.3 116.2 172.9 117.9 174.1 119.2 C 175.2 120.4 176.7 121 178.6 121 C 179.9 121 181 120.8 182.1 120.2 C 183.1 119.6 184 118.8 184.7 117.7 C 185.3 116.6 185.6 115.2 185.6 113.6 Z M 233.3 103 C 233.3 103 224.1 103.6 224.1 103.6 C 223.9 102.8 223.6 102.1 223 101.4 C 222.5 100.8 221.8 100.3 221 99.9 C 220.1 99.5 219.1 99.3 217.9 99.3 C 216.4 99.3 215 99.6 214 100.3 C 212.9 100.9 212.3 101.8 212.3 102.9 C 212.3 103.8 212.7 104.5 213.4 105.1 C 214.1 105.7 215.3 106.2 217 106.6 C 217 106.6 223.6 107.9 223.6 107.9 C 227.2 108.6 229.8 109.8 231.5 111.4 C 233.3 113 234.2 115.2 234.2 117.8 C 234.2 120.2 233.5 122.3 232.1 124.1 C 230.7 125.9 228.7 127.3 226.3 128.3 C 223.9 129.3 221.1 129.8 217.9 129.8 C 213.1 129.8 209.2 128.8 206.3 126.8 C 203.5 124.8 201.8 122 201.3 118.5 C 201.3 118.5 211.3 118 211.3 118 C 211.6 119.5 212.3 120.6 213.5 121.4 C 214.6 122.2 216.1 122.5 217.9 122.5 C 219.7 122.5 221.1 122.2 222.2 121.5 C 223.3 120.8 223.8 119.9 223.9 118.8 C 223.8 117.9 223.5 117.1 222.7 116.6 C 221.9 116 220.8 115.5 219.2 115.2 C 219.2 115.2 212.8 113.9 212.8 113.9 C 209.3 113.2 206.6 112 204.9 110.2 C 203.2 108.5 202.3 106.2 202.3 103.5 C 202.3 101.1 202.9 99.1 204.2 97.4 C 205.5 95.7 207.3 94.4 209.6 93.5 C 211.9 92.6 214.6 92.1 217.8 92.1 C 222.4 92.1 226 93.1 228.7 95 C 231.3 97 232.9 99.6 233.3 103 Z M 258.9 92.6 L 258.9 100.2 L 236.9 100.2 L 236.9 92.6 L 258.9 92.6 Z M 241.9 83.8 L 252 83.8 C 252 83.8 252.02 117.9 252 117.9 C 252 118.8 252.2 119.6 252.4 120.1 C 252.7 120.6 253.1 121 253.6 121.2 C 254.2 121.4 254.8 121.5 255.4 121.5 C 255.9 121.5 256.4 121.4 256.9 121.3 C 257.3 121.2 257.7 121.2 258 121.1 C 258 121.1 259.6 128.7 259.6 128.7 C 259.1 128.8 258.3 129 257.4 129.2 C 256.5 129.4 255.4 129.6 254.1 129.6 C 251.6 129.7 249.5 129.4 247.7 128.7 C 245.8 127.9 244.4 126.7 243.4 125.2 C 242.4 123.6 241.9 121.6 241.9 119.2 C 241.88 119.23 241.9 83.8 241.9 83.8 Z M 280 129.8 C 276.2 129.8 273 129.1 270.3 127.5 C 267.6 126 265.5 123.8 264 121 C 262.6 118.2 261.9 114.9 261.9 111 C 261.9 107.3 262.6 104 264 101.1 C 265.5 98.3 267.6 96.1 270.2 94.5 C 272.9 92.9 276 92.1 279.6 92.1 C 282 92.1 284.2 92.5 286.3 93.3 C 288.4 94 290.2 95.2 291.8 96.7 C 293.4 98.3 294.6 100.2 295.5 102.5 C 296.3 104.8 296.8 107.6 296.8 110.7 C 296.76 110.66 296.8 113.4 296.8 113.4 L 265.9 113.4 L 265.9 107.2 C 265.9 107.2 287.22 107.17 287.2 107.2 C 287.2 105.7 286.9 104.4 286.3 103.3 C 285.6 102.2 284.8 101.3 283.6 100.6 C 282.5 100 281.2 99.7 279.7 99.7 C 278.2 99.7 276.9 100 275.7 100.7 C 274.5 101.4 273.6 102.4 272.9 103.6 C 272.2 104.7 271.9 106.1 271.9 107.5 C 271.9 107.5 271.9 113.5 271.9 113.5 C 271.9 115.3 272.2 116.8 272.9 118.2 C 273.6 119.5 274.5 120.5 275.8 121.2 C 277 121.9 278.5 122.3 280.2 122.3 C 281.3 122.3 282.3 122.1 283.2 121.8 C 284.2 121.5 285 121 285.7 120.4 C 286.3 119.7 286.8 119 287.2 118 C 287.2 118 296.5 118.7 296.5 118.7 C 296.1 120.9 295.1 122.9 293.6 124.5 C 292.2 126.2 290.3 127.5 288 128.4 C 285.7 129.4 283 129.8 280 129.8 Z M 316 129.7 C 313.2 129.7 310.7 129 308.5 127.6 C 306.2 126.1 304.4 124 303.1 121.2 C 301.8 118.4 301.2 115 301.2 110.9 C 301.2 106.7 301.8 103.2 303.2 100.4 C 304.5 97.7 306.3 95.6 308.6 94.2 C 310.8 92.8 313.3 92.1 316 92.1 C 318 92.1 319.7 92.5 321.1 93.1 C 322.5 93.8 323.6 94.7 324.4 95.7 C 325.3 96.7 325.9 97.7 326.4 98.7 C 326.37 98.72 326.7 98.7 326.7 98.7 L 326.7 80.4 L 336.8 80.4 L 336.8 129.1 L 326.8 129.1 L 326.8 123.3 C 326.8 123.3 326.37 123.27 326.4 123.3 C 325.9 124.3 325.2 125.3 324.4 126.3 C 323.5 127.3 322.4 128.1 321 128.7 C 319.6 129.4 318 129.7 316 129.7 Z M 319.2 121.7 C 320.8 121.7 322.2 121.2 323.4 120.3 C 324.5 119.4 325.4 118.2 326 116.5 C 326.6 114.9 326.9 113 326.9 110.9 C 326.9 108.7 326.6 106.8 326 105.2 C 325.4 103.6 324.5 102.4 323.4 101.5 C 322.2 100.6 320.8 100.2 319.2 100.2 C 317.5 100.2 316.1 100.6 315 101.5 C 313.9 102.4 313 103.7 312.4 105.3 C 311.8 106.9 311.5 108.7 311.5 110.9 C 311.5 113 311.8 114.9 312.4 116.5 C 313 118.1 313.9 119.4 315 120.3 C 316.1 121.2 317.5 121.7 319.2 121.7 Z M 354.3 122.5 C 354.3 122.5 354.05 125.08 354.1 125.1 C 353.8 127.2 353.5 129.3 352.9 131.4 C 352.3 133.4 351.7 135.3 351.1 137 C 350.4 138.7 349.9 140.1 349.6 141 C 349.6 141 343 141 343 141 C 343.2 140.1 343.6 138.8 344 137.1 C 344.4 135.4 344.8 133.6 345.1 131.5 C 345.5 129.4 345.7 127.3 345.8 125.1 C 345.82 125.13 345.9 122.5 345.9 122.5 L 354.3 122.5 Z M 389.6 129.8 C 387.2 129.8 385.1 129.4 383.3 128.6 C 381.5 127.8 380.1 126.6 379 125 C 377.9 123.3 377.4 121.3 377.4 118.9 C 377.4 116.9 377.8 115.2 378.5 113.8 C 379.3 112.4 380.3 111.3 381.6 110.5 C 382.9 109.6 384.3 109 386 108.6 C 387.6 108.1 389.3 107.8 391.1 107.7 C 393.3 107.4 395 107.2 396.3 107 C 397.6 106.8 398.5 106.5 399.1 106.1 C 399.7 105.7 400 105.2 400 104.4 C 400 104.4 400 104.2 400 104.2 C 400 102.7 399.5 101.6 398.6 100.7 C 397.6 99.9 396.3 99.5 394.6 99.5 C 392.7 99.5 391.3 99.9 390.2 100.7 C 389.1 101.5 388.4 102.5 388.1 103.7 C 388.1 103.7 378.7 103 378.7 103 C 379.2 100.7 380.1 98.8 381.5 97.2 C 382.9 95.6 384.7 94.3 386.9 93.4 C 389.1 92.5 391.7 92.1 394.6 92.1 C 396.7 92.1 398.6 92.3 400.5 92.8 C 402.3 93.3 404 94 405.4 95 C 406.9 96 408 97.3 408.9 98.9 C 409.7 100.4 410.1 102.3 410.1 104.5 C 410.13 104.48 410.1 129.1 410.1 129.1 L 400.5 129.1 L 400.5 124.1 C 400.5 124.1 400.23 124.06 400.2 124.1 C 399.6 125.2 398.9 126.2 397.9 127.1 C 396.9 127.9 395.7 128.6 394.3 129.1 C 393 129.6 391.4 129.8 389.6 129.8 Z M 392.5 122.8 C 393.9 122.8 395.3 122.5 396.4 121.9 C 397.5 121.3 398.4 120.5 399.1 119.5 C 399.7 118.5 400.1 117.3 400.1 116.1 C 400.1 116.1 400.1 112.2 400.1 112.2 C 399.8 112.4 399.3 112.6 398.8 112.7 C 398.2 112.9 397.6 113.1 396.9 113.2 C 396.2 113.3 395.6 113.5 394.9 113.6 C 394.2 113.7 393.6 113.7 393 113.8 C 391.8 114 390.8 114.3 389.9 114.7 C 389 115 388.3 115.6 387.8 116.2 C 387.3 116.8 387.1 117.6 387.1 118.6 C 387.1 120 387.6 121 388.6 121.7 C 389.6 122.5 390.9 122.8 392.5 122.8 Z M 433.7 129.8 C 429.9 129.8 426.7 129 424 127.4 C 421.3 125.9 419.3 123.6 417.8 120.8 C 416.4 118 415.7 114.7 415.7 111 C 415.7 107.3 416.4 104 417.8 101.1 C 419.3 98.3 421.4 96.1 424 94.5 C 426.7 92.9 429.9 92.1 433.6 92.1 C 436.8 92.1 439.6 92.7 442 93.8 C 444.4 95 446.3 96.6 447.7 98.7 C 449.1 100.8 449.8 103.3 450 106.1 C 450 106.1 440.4 106.1 440.4 106.1 C 440.1 104.3 439.4 102.8 438.3 101.7 C 437.1 100.6 435.6 100 433.8 100 C 432.2 100 430.8 100.4 429.7 101.3 C 428.5 102.1 427.6 103.4 426.9 105 C 426.3 106.6 426 108.6 426 110.9 C 426 113.2 426.3 115.2 426.9 116.8 C 427.6 118.4 428.5 119.7 429.7 120.5 C 430.8 121.4 432.2 121.8 433.8 121.8 C 434.9 121.8 436 121.6 436.9 121.1 C 437.8 120.6 438.6 119.9 439.2 119 C 439.8 118.1 440.2 117 440.4 115.7 C 440.4 115.7 450 115.7 450 115.7 C 449.8 118.5 449.1 121 447.7 123.1 C 446.3 125.2 444.5 126.9 442.1 128.1 C 439.7 129.2 436.9 129.8 433.7 129.8 Z M 474.9 92.6 L 474.9 100.2 L 452.9 100.2 L 452.9 92.6 L 474.9 92.6 Z M 457.9 83.8 L 468 83.8 C 468 83.8 468 117.9 468 117.9 C 468 118.8 468.1 119.6 468.4 120.1 C 468.7 120.6 469.1 121 469.6 121.2 C 470.1 121.4 470.7 121.5 471.4 121.5 C 471.9 121.5 472.4 121.4 472.9 121.3 C 473.3 121.2 473.7 121.2 473.9 121.1 C 473.9 121.1 475.5 128.7 475.5 128.7 C 475 128.8 474.3 129 473.4 129.2 C 472.5 129.4 471.4 129.6 470 129.6 C 467.6 129.7 465.5 129.4 463.6 128.7 C 461.8 127.9 460.4 126.7 459.4 125.2 C 458.3 123.6 457.8 121.6 457.9 119.2 C 457.86 119.23 457.9 83.8 457.9 83.8 Z M 480.5 129.1 L 480.5 92.6 L 490.6 92.6 L 490.6 129.1 L 480.5 129.1 Z M 485.6 87.9 C 484.1 87.9 482.8 87.4 481.7 86.4 C 480.6 85.4 480.1 84.2 480.1 82.8 C 480.1 81.3 480.6 80.1 481.7 79.1 C 482.8 78.1 484.1 77.6 485.6 77.6 C 487.1 77.6 488.4 78.1 489.4 79.1 C 490.5 80.1 491 81.3 491 82.7 C 491 84.1 490.5 85.4 489.4 86.4 C 488.4 87.4 487.1 87.9 485.6 87.9 Z M 514.3 129.8 C 510.6 129.8 507.4 129.1 504.8 127.5 C 502.1 125.9 500 123.7 498.5 120.9 C 497.1 118 496.3 114.7 496.3 111 C 496.3 107.2 497.1 103.9 498.5 101.1 C 500 98.3 502.1 96.1 504.8 94.5 C 507.4 92.9 510.6 92.1 514.3 92.1 C 518 92.1 521.2 92.9 523.9 94.5 C 526.6 96.1 528.7 98.3 530.1 101.1 C 531.6 103.9 532.3 107.2 532.3 111 C 532.3 114.7 531.6 118 530.1 120.9 C 528.7 123.7 526.6 125.9 523.9 127.5 C 521.2 129.1 518 129.8 514.3 129.8 Z M 514.4 122 C 516.1 122 517.5 121.5 518.6 120.6 C 519.7 119.6 520.6 118.3 521.1 116.6 C 521.7 114.9 522 113.1 522 110.9 C 522 108.8 521.7 106.9 521.1 105.2 C 520.6 103.6 519.7 102.3 518.6 101.3 C 517.5 100.3 516.1 99.8 514.4 99.8 C 512.7 99.8 511.3 100.3 510.1 101.3 C 509 102.3 508.1 103.6 507.5 105.2 C 506.9 106.9 506.6 108.8 506.6 110.9 C 506.6 113.1 506.9 114.9 507.5 116.6 C 508.1 118.3 509 119.6 510.1 120.6 C 511.3 121.5 512.7 122 514.4 122 Z M 548.2 108 C 548.21 108 548.2 129.1 548.2 129.1 L 538.1 129.1 L 538.1 92.6 L 547.7 92.6 L 547.7 99 C 547.7 99 548.16 99.03 548.2 99 C 549 96.9 550.3 95.2 552.2 94 C 554.1 92.7 556.4 92.1 559.2 92.1 C 561.7 92.1 563.9 92.7 565.8 93.8 C 567.7 94.9 569.1 96.5 570.2 98.5 C 571.2 100.6 571.8 103 571.8 105.9 C 571.77 105.86 571.8 129.1 571.8 129.1 L 561.6 129.1 C 561.6 129.1 561.63 107.67 561.6 107.7 C 561.6 105.4 561.1 103.7 559.9 102.4 C 558.8 101.2 557.2 100.5 555.1 100.5 C 553.8 100.5 552.6 100.8 551.5 101.4 C 550.5 102 549.7 102.8 549.1 104 C 548.5 105.1 548.2 106.4 548.2 108 Z M 589.2 129.8 C 586.9 129.8 584.8 129.4 583 128.6 C 581.2 127.8 579.7 126.6 578.7 125 C 577.6 123.3 577.1 121.3 577.1 118.9 C 577.1 116.9 577.5 115.2 578.2 113.8 C 579 112.4 580 111.3 581.3 110.5 C 582.6 109.6 584 109 585.7 108.6 C 587.3 108.1 589 107.8 590.8 107.7 C 593 107.4 594.7 107.2 596 107 C 597.3 106.8 598.2 106.5 598.8 106.1 C 599.4 105.7 599.7 105.2 599.7 104.4 C 599.7 104.4 599.7 104.2 599.7 104.2 C 599.7 102.7 599.2 101.6 598.3 100.7 C 597.3 99.9 596 99.5 594.3 99.5 C 592.4 99.5 591 99.9 589.9 100.7 C 588.8 101.5 588.1 102.5 587.8 103.7 C 587.8 103.7 578.4 103 578.4 103 C 578.9 100.7 579.8 98.8 581.2 97.2 C 582.6 95.6 584.4 94.3 586.6 93.4 C 588.8 92.5 591.4 92.1 594.3 92.1 C 596.3 92.1 598.3 92.3 600.2 92.8 C 602 93.3 603.7 94 605.1 95 C 606.6 96 607.7 97.3 608.6 98.9 C 609.4 100.4 609.8 102.3 609.8 104.5 C 609.83 104.48 609.8 129.1 609.8 129.1 L 600.2 129.1 L 600.2 124.1 C 600.2 124.1 599.93 124.06 599.9 124.1 C 599.3 125.2 598.6 126.2 597.6 127.1 C 596.6 127.9 595.4 128.6 594 129.1 C 592.6 129.6 591.1 129.8 589.2 129.8 Z M 592.1 122.8 C 593.6 122.8 595 122.5 596.1 121.9 C 597.2 121.3 598.1 120.5 598.8 119.5 C 599.4 118.5 599.8 117.3 599.8 116.1 C 599.8 116.1 599.8 112.2 599.8 112.2 C 599.4 112.4 599 112.6 598.5 112.7 C 597.9 112.9 597.3 113.1 596.6 113.2 C 595.9 113.3 595.3 113.5 594.6 113.6 C 593.9 113.7 593.3 113.7 592.7 113.8 C 591.5 114 590.5 114.3 589.6 114.7 C 588.7 115 588 115.6 587.5 116.2 C 587 116.8 586.8 117.6 586.8 118.6 C 586.8 120 587.3 121 588.3 121.7 C 589.3 122.5 590.6 122.8 592.1 122.8 Z M 617.2 129.1 L 617.2 80.4 L 627.4 80.4 L 627.4 98.7 C 627.4 98.7 627.69 98.72 627.7 98.7 C 628.1 97.7 628.8 96.7 629.6 95.7 C 630.5 94.7 631.6 93.8 633 93.1 C 634.3 92.5 636 92.1 638.1 92.1 C 640.7 92.1 643.2 92.8 645.5 94.2 C 647.7 95.6 649.5 97.7 650.9 100.4 C 652.2 103.2 652.9 106.7 652.9 110.9 C 652.9 115 652.2 118.4 650.9 121.2 C 649.6 124 647.8 126.1 645.6 127.6 C 643.3 129 640.8 129.7 638.1 129.7 C 636.1 129.7 634.4 129.4 633.1 128.7 C 631.7 128.1 630.6 127.3 629.7 126.3 C 628.8 125.3 628.1 124.3 627.7 123.3 C 627.69 123.27 627.2 123.3 627.2 123.3 L 627.2 129.1 L 617.2 129.1 Z M 627.2 110.9 C 627.2 113 627.5 114.9 628.1 116.5 C 628.7 118.2 629.5 119.4 630.7 120.3 C 631.8 121.2 633.2 121.7 634.8 121.7 C 636.5 121.7 637.9 121.2 639 120.3 C 640.2 119.4 641 118.1 641.6 116.5 C 642.2 114.9 642.5 113 642.5 110.9 C 642.5 108.7 642.2 106.9 641.7 105.3 C 641.1 103.7 640.2 102.4 639.1 101.5 C 637.9 100.6 636.5 100.2 634.8 100.2 C 633.2 100.2 631.8 100.6 630.7 101.5 C 629.5 102.4 628.7 103.6 628.1 105.2 C 627.5 106.8 627.2 108.7 627.2 110.9 Z M 669 80.4 L 669 129.1 L 658.9 129.1 L 658.9 80.4 L 669 80.4 Z M 693 129.8 C 689.2 129.8 686 129.1 683.3 127.5 C 680.6 126 678.5 123.8 677 121 C 675.6 118.2 674.9 114.9 674.9 111 C 674.9 107.3 675.6 104 677 101.1 C 678.5 98.3 680.6 96.1 683.2 94.5 C 685.9 92.9 689 92.1 692.6 92.1 C 695 92.1 697.2 92.5 699.3 93.3 C 701.4 94 703.2 95.2 704.8 96.7 C 706.4 98.3 707.6 100.2 708.5 102.5 C 709.3 104.8 709.8 107.6 709.8 110.7 C 709.76 110.66 709.8 113.4 709.8 113.4 L 678.9 113.4 L 678.9 107.2 C 678.9 107.2 700.22 107.17 700.2 107.2 C 700.2 105.7 699.9 104.4 699.3 103.3 C 698.6 102.2 697.8 101.3 696.6 100.6 C 695.5 100 694.2 99.7 692.8 99.7 C 691.2 99.7 689.9 100 688.7 100.7 C 687.5 101.4 686.6 102.4 685.9 103.6 C 685.2 104.7 684.9 106.1 684.9 107.5 C 684.9 107.5 684.9 113.5 684.9 113.5 C 684.9 115.3 685.2 116.8 685.9 118.2 C 686.6 119.5 687.5 120.5 688.8 121.2 C 690 121.9 691.5 122.3 693.2 122.3 C 694.3 122.3 695.3 122.1 696.2 121.8 C 697.2 121.5 698 121 698.7 120.4 C 699.3 119.7 699.8 119 700.2 118 C 700.2 118 709.5 118.7 709.5 118.7 C 709.1 120.9 708.1 122.9 706.6 124.5 C 705.2 126.2 703.3 127.5 701 128.4 C 698.7 129.4 696 129.8 693 129.8 Z M 731.9 129.1 L 731.9 92.6 L 742 92.6 L 742 129.1 L 731.9 129.1 Z M 737 87.9 C 735.5 87.9 734.2 87.4 733.1 86.4 C 732.1 85.4 731.5 84.2 731.5 82.8 C 731.5 81.3 732.1 80.1 733.2 79.1 C 734.2 78.1 735.5 77.6 737 77.6 C 738.5 77.6 739.8 78.1 740.9 79.1 C 741.9 80.1 742.5 81.3 742.5 82.7 C 742.5 84.1 741.9 85.4 740.9 86.4 C 739.8 87.4 738.5 87.9 737 87.9 Z M 759.7 108 C 759.67 108 759.7 129.1 759.7 129.1 L 749.5 129.1 L 749.5 92.6 L 759.2 92.6 L 759.2 99 C 759.2 99 759.62 99.03 759.6 99 C 760.4 96.9 761.8 95.2 763.7 94 C 765.6 92.7 767.9 92.1 770.6 92.1 C 773.2 92.1 775.4 92.7 777.3 93.8 C 779.1 94.9 780.6 96.5 781.7 98.5 C 782.7 100.6 783.2 103 783.2 105.9 C 783.22 105.86 783.2 129.1 783.2 129.1 L 773.1 129.1 C 773.1 129.1 773.09 107.67 773.1 107.7 C 773.1 105.4 772.5 103.7 771.4 102.4 C 770.2 101.2 768.6 100.5 766.6 100.5 C 765.2 100.5 764 100.8 763 101.4 C 761.9 102 761.1 102.8 760.6 104 C 760 105.1 759.7 106.4 759.7 108 Z M 820.5 103 C 820.5 103 811.2 103.6 811.2 103.6 C 811 102.8 810.7 102.1 810.2 101.4 C 809.6 100.8 809 100.3 808.1 99.9 C 807.3 99.5 806.3 99.3 805.1 99.3 C 803.5 99.3 802.2 99.6 801.1 100.3 C 800 100.9 799.5 101.8 799.5 102.9 C 799.5 103.8 799.8 104.5 800.5 105.1 C 801.2 105.7 802.4 106.2 804.1 106.6 C 804.1 106.6 810.7 107.9 810.7 107.9 C 814.3 108.6 816.9 109.8 818.7 111.4 C 820.4 113 821.3 115.2 821.3 117.8 C 821.3 120.2 820.6 122.3 819.2 124.1 C 817.8 125.9 815.9 127.3 813.4 128.3 C 811 129.3 808.2 129.8 805 129.8 C 800.2 129.8 796.3 128.8 793.5 126.8 C 790.6 124.8 788.9 122 788.5 118.5 C 788.5 118.5 798.4 118 798.4 118 C 798.7 119.5 799.5 120.6 800.6 121.4 C 801.8 122.2 803.2 122.5 805.1 122.5 C 806.8 122.5 808.3 122.2 809.4 121.5 C 810.4 120.8 811 119.9 811 118.8 C 811 117.9 810.6 117.1 809.8 116.6 C 809.1 116 807.9 115.5 806.3 115.2 C 806.3 115.2 800 113.9 800 113.9 C 796.4 113.2 793.8 112 792 110.2 C 790.3 108.5 789.4 106.2 789.4 103.5 C 789.4 101.1 790.1 99.1 791.3 97.4 C 792.6 95.7 794.4 94.4 796.7 93.5 C 799.1 92.6 801.8 92.1 804.9 92.1 C 809.5 92.1 813.2 93.1 815.8 95 C 818.5 97 820 99.6 820.5 103 Z M 826.9 129.1 L 826.9 92.6 L 837 92.6 L 837 129.1 L 826.9 129.1 Z M 832 87.9 C 830.5 87.9 829.2 87.4 828.1 86.4 C 827.1 85.4 826.5 84.2 826.5 82.8 C 826.5 81.3 827.1 80.1 828.1 79.1 C 829.2 78.1 830.5 77.6 832 77.6 C 833.5 77.6 834.8 78.1 835.9 79.1 C 836.9 80.1 837.5 81.3 837.5 82.7 C 837.5 84.1 836.9 85.4 835.9 86.4 C 834.8 87.4 833.5 87.9 832 87.9 Z M 860.6 143.6 C 857.4 143.6 854.5 143.1 852.2 142.2 C 849.9 141.4 848 140.1 846.6 138.6 C 845.2 137.1 844.3 135.3 843.9 133.4 C 843.9 133.4 853.3 132.1 853.3 132.1 C 853.6 132.9 854 133.6 854.7 134.2 C 855.3 134.8 856.1 135.3 857.1 135.7 C 858.1 136.1 859.4 136.3 860.9 136.3 C 863.1 136.3 864.9 135.8 866.3 134.7 C 867.8 133.6 868.5 131.8 868.5 129.3 C 868.49 129.34 868.5 122.7 868.5 122.7 C 868.5 122.7 868.06 122.66 868.1 122.7 C 867.6 123.7 866.9 124.6 866.1 125.5 C 865.2 126.4 864 127.2 862.6 127.7 C 861.2 128.3 859.6 128.6 857.6 128.6 C 854.9 128.6 852.4 128 850.2 126.7 C 847.9 125.4 846.1 123.5 844.8 120.8 C 843.5 118.2 842.8 114.8 842.8 110.8 C 842.8 106.6 843.5 103.2 844.8 100.4 C 846.2 97.6 848 95.6 850.2 94.2 C 852.5 92.8 854.9 92.1 857.6 92.1 C 859.7 92.1 861.4 92.5 862.8 93.1 C 864.1 93.8 865.2 94.7 866.1 95.7 C 866.9 96.7 867.6 97.7 868.1 98.7 C 868.06 98.72 868.4 98.7 868.4 98.7 L 868.4 92.6 L 878.5 92.6 C 878.5 92.6 878.5 129.48 878.5 129.5 C 878.5 132.6 877.7 135.2 876.2 137.3 C 874.7 139.4 872.6 141 869.9 142 C 867.2 143.1 864.1 143.6 860.6 143.6 Z M 860.8 121 C 862.5 121 863.9 120.6 865 119.8 C 866.1 118.9 867 117.8 867.6 116.2 C 868.2 114.7 868.5 112.9 868.5 110.7 C 868.5 108.6 868.2 106.7 867.6 105.2 C 867 103.6 866.2 102.4 865 101.5 C 863.9 100.6 862.5 100.2 860.8 100.2 C 859.2 100.2 857.8 100.6 856.6 101.5 C 855.5 102.4 854.6 103.7 854 105.2 C 853.5 106.8 853.2 108.7 853.2 110.7 C 853.2 112.8 853.5 114.7 854.1 116.2 C 854.7 117.7 855.5 118.9 856.6 119.7 C 857.8 120.6 859.2 121 860.8 121 Z M 896.1 108 C 896.1 108 896.1 129.1 896.1 129.1 L 886 129.1 L 886 80.4 L 895.8 80.4 L 895.8 99 C 895.8 99 896.24 99.03 896.2 99 C 897.1 96.9 898.4 95.2 900.2 93.9 C 902.1 92.7 904.4 92.1 907.2 92.1 C 909.7 92.1 911.9 92.7 913.8 93.8 C 915.7 94.9 917.2 96.4 918.2 98.5 C 919.3 100.5 919.8 103 919.8 105.9 C 919.8 105.86 919.8 129.1 919.8 129.1 L 909.7 129.1 C 909.7 129.1 909.66 107.67 909.7 107.7 C 909.7 105.4 909.1 103.7 908 102.4 C 906.8 101.2 905.2 100.5 903.1 100.5 C 901.8 100.5 900.5 100.8 899.5 101.4 C 898.4 102 897.6 102.8 897 104 C 896.4 105.1 896.1 106.4 896.1 108 Z M 945.6 92.6 L 945.6 100.2 L 923.6 100.2 L 923.6 92.6 L 945.6 92.6 Z M 928.6 83.8 L 938.8 83.8 C 938.8 83.8 938.75 117.9 938.8 117.9 C 938.8 118.8 938.9 119.6 939.2 120.1 C 939.5 120.6 939.9 121 940.4 121.2 C 940.9 121.4 941.5 121.5 942.2 121.5 C 942.7 121.5 943.1 121.4 943.6 121.3 C 944.1 121.2 944.4 121.2 944.7 121.1 C 944.7 121.1 946.3 128.7 946.3 128.7 C 945.8 128.8 945.1 129 944.2 129.2 C 943.2 129.4 942.1 129.6 940.8 129.6 C 938.4 129.7 936.2 129.4 934.4 128.7 C 932.6 127.9 931.1 126.7 930.1 125.2 C 929.1 123.6 928.6 121.6 928.6 119.2 C 928.61 119.23 928.6 83.8 928.6 83.8 Z M 980.9 103 C 980.9 103 971.7 103.6 971.7 103.6 C 971.5 102.8 971.2 102.1 970.6 101.4 C 970.1 100.8 969.4 100.3 968.6 99.9 C 967.7 99.5 966.7 99.3 965.5 99.3 C 964 99.3 962.6 99.6 961.6 100.3 C 960.5 100.9 960 101.8 960 102.9 C 960 103.8 960.3 104.5 961 105.1 C 961.7 105.7 962.9 106.2 964.6 106.6 C 964.6 106.6 971.2 107.9 971.2 107.9 C 974.8 108.6 977.4 109.8 979.2 111.4 C 980.9 113 981.8 115.2 981.8 117.8 C 981.8 120.2 981.1 122.3 979.7 124.1 C 978.3 125.9 976.3 127.3 973.9 128.3 C 971.5 129.3 968.7 129.8 965.5 129.8 C 960.7 129.8 956.8 128.8 953.9 126.8 C 951.1 124.8 949.4 122 948.9 118.5 C 948.9 118.5 958.9 118 958.9 118 C 959.2 119.5 959.9 120.6 961.1 121.4 C 962.2 122.2 963.7 122.5 965.5 122.5 C 967.3 122.5 968.7 122.2 969.8 121.5 C 970.9 120.8 971.4 119.9 971.5 118.8 C 971.4 117.9 971.1 117.1 970.3 116.6 C 969.5 116 968.4 115.5 966.8 115.2 C 966.8 115.2 960.4 113.9 960.4 113.9 C 956.9 113.2 954.2 112 952.5 110.2 C 950.8 108.5 949.9 106.2 949.9 103.5 C 949.9 101.1 950.5 99.1 951.8 97.4 C 953.1 95.7 954.9 94.4 957.2 93.5 C 959.5 92.6 962.2 92.1 965.4 92.1 C 970 92.1 973.6 93.1 976.3 95 C 978.9 97 980.5 99.6 980.9 103 Z " stroke="none" fill="#ffffff"/>  </g>  <g id="Polygon122240">    <path d="M 12.6 48.7 L 1.6 48.7 L 18.4 0 L 31.7 0 L 48.5 48.7 L 37.4 48.7 L 25.2 11.1 L 24.9 11.1 L 12.6 48.7 Z M 11.9 29.6 L 38 29.6 L 38 37.6 L 11.9 37.6 L 11.9 29.6 Z M 63.3 27.6 C 63.26 27.6 63.3 48.7 63.3 48.7 L 53.1 48.7 L 53.1 12.2 L 62.8 12.2 L 62.8 18.6 C 62.8 18.6 63.21 18.63 63.2 18.6 C 64 16.5 65.4 14.8 67.3 13.6 C 69.2 12.3 71.5 11.7 74.2 11.7 C 76.7 11.7 79 12.3 80.8 13.4 C 82.7 14.5 84.2 16.1 85.2 18.1 C 86.3 20.2 86.8 22.6 86.8 25.5 C 86.81 25.46 86.8 48.7 86.8 48.7 L 76.7 48.7 C 76.7 48.7 76.67 27.27 76.7 27.3 C 76.7 25 76.1 23.3 75 22 C 73.8 20.8 72.2 20.1 70.2 20.1 C 68.8 20.1 67.6 20.4 66.6 21 C 65.5 21.6 64.7 22.4 64.1 23.6 C 63.6 24.7 63.3 26 63.3 27.6 Z M 104.3 49.4 C 102 49.4 99.9 49 98.1 48.2 C 96.2 47.4 94.8 46.2 93.7 44.6 C 92.7 42.9 92.2 40.9 92.2 38.5 C 92.2 36.5 92.5 34.8 93.3 33.4 C 94 32 95 30.9 96.3 30.1 C 97.6 29.2 99.1 28.6 100.7 28.2 C 102.4 27.7 104.1 27.4 105.9 27.3 C 108 27 109.7 26.8 111 26.6 C 112.3 26.4 113.3 26.1 113.9 25.7 C 114.4 25.3 114.7 24.8 114.7 24 C 114.7 24 114.7 23.8 114.7 23.8 C 114.7 22.3 114.3 21.2 113.3 20.3 C 112.4 19.5 111 19.1 109.3 19.1 C 107.5 19.1 106 19.5 105 20.3 C 103.9 21.1 103.2 22.1 102.8 23.3 C 102.8 23.3 93.4 22.6 93.4 22.6 C 93.9 20.3 94.9 18.4 96.2 16.8 C 97.6 15.2 99.4 13.9 101.7 13 C 103.9 12.1 106.4 11.7 109.4 11.7 C 111.4 11.7 113.3 11.9 115.2 12.4 C 117.1 12.9 118.7 13.6 120.2 14.6 C 121.6 15.6 122.8 16.9 123.6 18.5 C 124.5 20 124.9 21.9 124.9 24.1 C 124.87 24.08 124.9 48.7 124.9 48.7 L 115.3 48.7 L 115.3 43.7 C 115.3 43.7 114.97 43.66 115 43.7 C 114.4 44.8 113.6 45.8 112.6 46.7 C 111.6 47.5 110.5 48.2 109.1 48.7 C 107.7 49.2 106.1 49.4 104.3 49.4 Z M 107.2 42.4 C 108.7 42.4 110 42.1 111.1 41.5 C 112.3 40.9 113.2 40.1 113.8 39.1 C 114.5 38.1 114.8 36.9 114.8 35.7 C 114.8 35.7 114.8 31.8 114.8 31.8 C 114.5 32 114.1 32.2 113.5 32.3 C 113 32.5 112.3 32.7 111.7 32.8 C 111 32.9 110.3 33.1 109.6 33.2 C 108.9 33.3 108.3 33.3 107.8 33.4 C 106.6 33.6 105.5 33.9 104.6 34.3 C 103.8 34.6 103.1 35.2 102.6 35.8 C 102.1 36.4 101.8 37.2 101.8 38.2 C 101.8 39.6 102.3 40.6 103.4 41.3 C 104.4 42.1 105.6 42.4 107.2 42.4 Z M 132.2 62.4 L 132.2 12.2 L 142.2 12.2 L 142.2 18.3 C 142.2 18.3 142.65 18.32 142.6 18.3 C 143.1 17.3 143.7 16.3 144.6 15.3 C 145.4 14.3 146.5 13.4 147.9 12.7 C 149.3 12.1 151 11.7 153 11.7 C 155.7 11.7 158.2 12.4 160.4 13.8 C 162.7 15.2 164.5 17.3 165.8 20 C 167.2 22.8 167.8 26.3 167.8 30.5 C 167.8 34.6 167.2 38 165.9 40.8 C 164.6 43.6 162.8 45.7 160.6 47.2 C 158.3 48.6 155.8 49.3 153 49.3 C 151.1 49.3 149.4 49 148 48.3 C 146.6 47.7 145.5 46.9 144.6 45.9 C 143.8 44.9 143.1 43.9 142.6 42.9 C 142.65 42.87 142.3 42.9 142.3 42.9 L 142.3 62.4 L 132.2 62.4 Z M 142.1 30.5 C 142.1 32.6 142.4 34.5 143 36.1 C 143.6 37.8 144.5 39 145.6 39.9 C 146.8 40.8 148.2 41.3 149.8 41.3 C 151.5 41.3 152.9 40.8 154 39.9 C 155.1 39 156 37.7 156.6 36.1 C 157.2 34.5 157.5 32.6 157.5 30.5 C 157.5 28.3 157.2 26.5 156.6 24.9 C 156 23.3 155.2 22 154 21.1 C 152.9 20.2 151.5 19.8 149.8 19.8 C 148.2 19.8 146.8 20.2 145.6 21.1 C 144.5 22 143.6 23.2 143 24.8 C 142.4 26.4 142.1 28.3 142.1 30.5 Z M 184.1 0 L 184.1 48.7 L 173.9 48.7 L 173.9 0 L 184.1 0 Z M 201.8 49.4 C 199.5 49.4 197.4 49 195.6 48.2 C 193.8 47.4 192.3 46.2 191.3 44.6 C 190.2 42.9 189.7 40.9 189.7 38.5 C 189.7 36.5 190.1 34.8 190.8 33.4 C 191.6 32 192.6 30.9 193.9 30.1 C 195.1 29.2 196.6 28.6 198.2 28.2 C 199.9 27.7 201.6 27.4 203.4 27.3 C 205.5 27 207.3 26.8 208.6 26.6 C 209.9 26.4 210.8 26.1 211.4 25.7 C 212 25.3 212.3 24.8 212.3 24 C 212.3 24 212.3 23.8 212.3 23.8 C 212.3 22.3 211.8 21.2 210.9 20.3 C 209.9 19.5 208.6 19.1 206.8 19.1 C 205 19.1 203.6 19.5 202.5 20.3 C 201.4 21.1 200.7 22.1 200.4 23.3 C 200.4 23.3 191 22.6 191 22.6 C 191.5 20.3 192.4 18.4 193.8 16.8 C 195.2 15.2 197 13.9 199.2 13 C 201.4 12.1 204 11.7 206.9 11.7 C 208.9 11.7 210.9 11.9 212.7 12.4 C 214.6 12.9 216.3 13.6 217.7 14.6 C 219.2 15.6 220.3 16.9 221.1 18.5 C 222 20 222.4 21.9 222.4 24.1 C 222.41 24.08 222.4 48.7 222.4 48.7 L 212.8 48.7 L 212.8 43.7 C 212.8 43.7 212.51 43.66 212.5 43.7 C 211.9 44.8 211.1 45.8 210.2 46.7 C 209.2 47.5 208 48.2 206.6 48.7 C 205.2 49.2 203.6 49.4 201.8 49.4 Z M 204.7 42.4 C 206.2 42.4 207.5 42.1 208.7 41.5 C 209.8 40.9 210.7 40.1 211.4 39.1 C 212 38.1 212.3 36.9 212.3 35.7 C 212.3 35.7 212.3 31.8 212.3 31.8 C 212 32 211.6 32.2 211 32.3 C 210.5 32.5 209.9 32.7 209.2 32.8 C 208.5 32.9 207.8 33.1 207.2 33.2 C 206.5 33.3 205.9 33.3 205.3 33.4 C 204.1 33.6 203.1 33.9 202.2 34.3 C 201.3 34.6 200.6 35.2 200.1 35.8 C 199.6 36.4 199.4 37.2 199.4 38.2 C 199.4 39.6 199.9 40.6 200.9 41.3 C 201.9 42.1 203.2 42.4 204.7 42.4 Z M 239.9 27.6 C 239.88 27.6 239.9 48.7 239.9 48.7 L 229.7 48.7 L 229.7 12.2 L 239.4 12.2 L 239.4 18.6 C 239.4 18.6 239.83 18.63 239.8 18.6 C 240.6 16.5 242 14.8 243.9 13.6 C 245.8 12.3 248.1 11.7 250.8 11.7 C 253.4 11.7 255.6 12.3 257.5 13.4 C 259.3 14.5 260.8 16.1 261.9 18.1 C 262.9 20.2 263.4 22.6 263.4 25.5 C 263.43 25.46 263.4 48.7 263.4 48.7 L 253.3 48.7 C 253.3 48.7 253.3 27.27 253.3 27.3 C 253.3 25 252.7 23.3 251.6 22 C 250.4 20.8 248.8 20.1 246.8 20.1 C 245.4 20.1 244.2 20.4 243.2 21 C 242.2 21.6 241.3 22.4 240.8 23.6 C 240.2 24.7 239.9 26 239.9 27.6 Z M 317.3 22.6 C 317.3 22.6 308.1 23.2 308.1 23.2 C 307.9 22.4 307.6 21.7 307 21 C 306.5 20.4 305.8 19.9 305 19.5 C 304.1 19.1 303.1 18.9 302 18.9 C 300.4 18.9 299.1 19.2 298 19.9 C 296.9 20.5 296.4 21.4 296.4 22.5 C 296.4 23.4 296.7 24.1 297.4 24.7 C 298.1 25.3 299.3 25.8 301 26.2 C 301 26.2 307.6 27.5 307.6 27.5 C 311.2 28.2 313.8 29.4 315.6 31 C 317.3 32.6 318.2 34.8 318.2 37.4 C 318.2 39.8 317.5 41.9 316.1 43.7 C 314.7 45.5 312.7 46.9 310.3 47.9 C 307.9 48.9 305.1 49.4 301.9 49.4 C 297.1 49.4 293.2 48.4 290.4 46.4 C 287.5 44.4 285.8 41.6 285.3 38.1 C 285.3 38.1 295.3 37.6 295.3 37.6 C 295.6 39.1 296.3 40.2 297.5 41 C 298.6 41.8 300.1 42.1 301.9 42.1 C 303.7 42.1 305.1 41.8 306.2 41.1 C 307.3 40.4 307.9 39.5 307.9 38.4 C 307.9 37.5 307.5 36.7 306.7 36.2 C 305.9 35.6 304.8 35.1 303.2 34.8 C 303.2 34.8 296.9 33.5 296.9 33.5 C 293.3 32.8 290.6 31.6 288.9 29.8 C 287.2 28.1 286.3 25.8 286.3 23.1 C 286.3 20.7 286.9 18.7 288.2 17 C 289.5 15.3 291.3 14 293.6 13.1 C 295.9 12.2 298.7 11.7 301.8 11.7 C 306.4 11.7 310 12.7 312.7 14.6 C 315.3 16.6 316.9 19.2 317.3 22.6 Z M 323.8 48.7 L 323.8 12.2 L 333.9 12.2 L 333.9 48.7 L 323.8 48.7 Z M 328.9 7.5 C 327.4 7.5 326.1 7 325 6 C 323.9 5 323.4 3.8 323.4 2.4 C 323.4 0.9 323.9 -0.3 325 -1.3 C 326.1 -2.3 327.4 -2.8 328.9 -2.8 C 330.4 -2.8 331.7 -2.3 332.7 -1.3 C 333.8 -0.3 334.3 0.9 334.3 2.3 C 334.3 3.7 333.8 5 332.7 6 C 331.7 7 330.4 7.5 328.9 7.5 Z M 341.4 48.7 L 341.4 12.2 L 351.1 12.2 L 351.1 18.6 C 351.1 18.6 351.48 18.63 351.5 18.6 C 352.2 16.5 353.5 14.8 355.3 13.6 C 357.1 12.3 359.2 11.7 361.7 11.7 C 364.2 11.7 366.3 12.3 368.1 13.6 C 369.8 14.8 371 16.5 371.6 18.6 C 371.6 18.6 372 18.6 372 18.6 C 372.7 16.5 374.1 14.9 376 13.6 C 378 12.3 380.3 11.7 383 11.7 C 386.4 11.7 389.2 12.8 391.3 15 C 393.4 17.1 394.5 20.2 394.5 24.1 C 394.5 24.15 394.5 48.7 394.5 48.7 L 384.4 48.7 C 384.4 48.7 384.39 26.15 384.4 26.1 C 384.4 24.1 383.8 22.6 382.8 21.6 C 381.7 20.6 380.3 20.1 378.7 20.1 C 376.9 20.1 375.4 20.6 374.4 21.8 C 373.4 23 372.9 24.5 372.9 26.4 C 372.87 26.41 372.9 48.7 372.9 48.7 L 363 48.7 C 363 48.7 363.05 25.93 363 25.9 C 363 24.1 362.5 22.7 361.5 21.7 C 360.5 20.6 359.1 20.1 357.5 20.1 C 356.4 20.1 355.3 20.3 354.4 20.9 C 353.5 21.5 352.8 22.3 352.3 23.3 C 351.8 24.3 351.5 25.4 351.5 26.8 C 351.53 26.79 351.5 48.7 351.5 48.7 L 341.4 48.7 Z M 401.9 62.4 L 401.9 12.2 L 411.8 12.2 L 411.8 18.3 C 411.8 18.3 412.3 18.32 412.3 18.3 C 412.7 17.3 413.4 16.3 414.2 15.3 C 415.1 14.3 416.2 13.4 417.6 12.7 C 418.9 12.1 420.6 11.7 422.7 11.7 C 425.4 11.7 427.8 12.4 430.1 13.8 C 432.3 15.2 434.1 17.3 435.5 20 C 436.8 22.8 437.5 26.3 437.5 30.5 C 437.5 34.6 436.8 38 435.5 40.8 C 434.2 43.6 432.4 45.7 430.2 47.2 C 428 48.6 425.4 49.3 422.7 49.3 C 420.7 49.3 419 49 417.7 48.3 C 416.3 47.7 415.2 46.9 414.3 45.9 C 413.4 44.9 412.8 43.9 412.3 42.9 C 412.3 42.87 412 42.9 412 42.9 L 412 62.4 L 401.9 62.4 Z M 411.8 30.5 C 411.8 32.6 412.1 34.5 412.7 36.1 C 413.3 37.8 414.2 39 415.3 39.9 C 416.4 40.8 417.8 41.3 419.5 41.3 C 421.1 41.3 422.5 40.8 423.6 39.9 C 424.8 39 425.7 37.7 426.2 36.1 C 426.8 34.5 427.1 32.6 427.1 30.5 C 427.1 28.3 426.8 26.5 426.3 24.9 C 425.7 23.3 424.8 22 423.7 21.1 C 422.5 20.2 421.1 19.8 419.5 19.8 C 417.8 19.8 416.4 20.2 415.3 21.1 C 414.1 22 413.3 23.2 412.7 24.8 C 412.1 26.4 411.8 28.3 411.8 30.5 Z M 453.7 0 L 453.7 48.7 L 443.6 48.7 L 443.6 0 L 453.7 0 Z M 461.2 48.7 L 461.2 12.2 L 471.3 12.2 L 471.3 48.7 L 461.2 48.7 Z M 466.3 7.5 C 464.8 7.5 463.5 7 462.4 6 C 461.4 5 460.8 3.8 460.8 2.4 C 460.8 0.9 461.4 -0.3 462.4 -1.3 C 463.5 -2.3 464.8 -2.8 466.3 -2.8 C 467.8 -2.8 469.1 -2.3 470.2 -1.3 C 471.2 -0.3 471.8 0.9 471.8 2.3 C 471.8 3.7 471.2 5 470.2 6 C 469.1 7 467.8 7.5 466.3 7.5 Z M 498.2 12.2 L 498.2 19.8 L 475.6 19.8 L 475.6 12.2 L 498.2 12.2 Z M 480.8 48.7 C 480.8 48.7 480.78 9.54 480.8 9.5 C 480.8 6.9 481.3 4.7 482.3 3 C 483.4 1.2 484.8 -0.1 486.6 -1 C 488.4 -1.8 490.5 -2.3 492.8 -2.3 C 494.3 -2.3 495.8 -2.2 497 -1.9 C 498.3 -1.7 499.3 -1.5 499.9 -1.3 C 499.9 -1.3 498.1 6.3 498.1 6.3 C 497.7 6.2 497.2 6.1 496.7 6 C 496.1 5.9 495.5 5.8 494.9 5.8 C 493.4 5.8 492.4 6.2 491.8 6.8 C 491.2 7.5 490.9 8.5 490.9 9.7 C 490.89 9.73 490.9 48.7 490.9 48.7 L 480.8 48.7 Z M 503.7 48.7 L 503.7 12.2 L 513.8 12.2 L 513.8 48.7 L 503.7 48.7 Z M 508.7 7.5 C 507.2 7.5 506 7 504.9 6 C 503.8 5 503.3 3.8 503.3 2.4 C 503.3 0.9 503.8 -0.3 504.9 -1.3 C 506 -2.3 507.3 -2.8 508.7 -2.8 C 510.3 -2.8 511.5 -2.3 512.6 -1.3 C 513.7 -0.3 514.2 0.9 514.2 2.3 C 514.2 3.7 513.7 5 512.6 6 C 511.5 7 510.3 7.5 508.7 7.5 Z M 537.7 49.4 C 533.9 49.4 530.7 48.7 528 47.1 C 525.3 45.6 523.2 43.4 521.7 40.6 C 520.3 37.8 519.5 34.5 519.5 30.6 C 519.5 26.9 520.3 23.6 521.7 20.7 C 523.2 17.9 525.2 15.7 527.9 14.1 C 530.5 12.5 533.7 11.7 537.2 11.7 C 539.7 11.7 541.9 12.1 544 12.9 C 546.1 13.6 547.9 14.8 549.5 16.3 C 551 17.9 552.2 19.8 553.1 22.1 C 554 24.4 554.4 27.2 554.4 30.3 C 554.43 30.26 554.4 33 554.4 33 L 523.6 33 L 523.6 26.8 C 523.6 26.8 544.88 26.77 544.9 26.8 C 544.9 25.3 544.6 24 543.9 22.9 C 543.3 21.8 542.4 20.9 541.3 20.2 C 540.2 19.6 538.9 19.3 537.4 19.3 C 535.9 19.3 534.5 19.6 533.3 20.3 C 532.2 21 531.2 22 530.6 23.2 C 529.9 24.3 529.6 25.7 529.5 27.1 C 529.5 27.1 529.5 33.1 529.5 33.1 C 529.5 34.9 529.9 36.4 530.5 37.8 C 531.2 39.1 532.2 40.1 533.4 40.8 C 534.7 41.5 536.1 41.9 537.8 41.9 C 538.9 41.9 540 41.7 540.9 41.4 C 541.8 41.1 542.6 40.6 543.3 40 C 544 39.3 544.5 38.6 544.8 37.6 C 544.8 37.6 554.2 38.3 554.2 38.3 C 553.7 40.5 552.8 42.5 551.3 44.1 C 549.8 45.8 547.9 47.1 545.6 48 C 543.3 49 540.7 49.4 537.7 49.4 Z M 590.3 22.6 C 590.3 22.6 581 23.2 581 23.2 C 580.9 22.4 580.5 21.7 580 21 C 579.5 20.4 578.8 19.9 577.9 19.5 C 577.1 19.1 576.1 18.9 574.9 18.9 C 573.3 18.9 572 19.2 570.9 19.9 C 569.9 20.5 569.3 21.4 569.3 22.5 C 569.3 23.4 569.7 24.1 570.4 24.7 C 571.1 25.3 572.3 25.8 574 26.2 C 574 26.2 580.6 27.5 580.6 27.5 C 584.1 28.2 586.8 29.4 588.5 31 C 590.3 32.6 591.1 34.8 591.1 37.4 C 591.1 39.8 590.4 41.9 589 43.7 C 587.6 45.5 585.7 46.9 583.3 47.9 C 580.8 48.9 578 49.4 574.9 49.4 C 570 49.4 566.2 48.4 563.3 46.4 C 560.5 44.4 558.8 41.6 558.3 38.1 C 558.3 38.1 568.3 37.6 568.3 37.6 C 568.6 39.1 569.3 40.2 570.4 41 C 571.6 41.8 573.1 42.1 574.9 42.1 C 576.7 42.1 578.1 41.8 579.2 41.1 C 580.3 40.4 580.8 39.5 580.8 38.4 C 580.8 37.5 580.4 36.7 579.7 36.2 C 578.9 35.6 577.7 35.1 576.2 34.8 C 576.2 34.8 569.8 33.5 569.8 33.5 C 566.3 32.8 563.6 31.6 561.9 29.8 C 560.1 28.1 559.3 25.8 559.3 23.1 C 559.3 20.7 559.9 18.7 561.2 17 C 562.5 15.3 564.3 14 566.6 13.1 C 568.9 12.2 571.6 11.7 574.7 11.7 C 579.4 11.7 583 12.7 585.7 14.6 C 588.3 16.6 589.9 19.2 590.3 22.6 Z M 626.5 49.3 C 623.8 49.3 621.3 48.6 619 47.2 C 616.8 45.7 615 43.6 613.7 40.8 C 612.4 38 611.7 34.6 611.7 30.5 C 611.7 26.3 612.4 22.8 613.7 20 C 615.1 17.3 616.9 15.2 619.1 13.8 C 621.4 12.4 623.8 11.7 626.5 11.7 C 628.6 11.7 630.3 12.1 631.6 12.7 C 633 13.4 634.1 14.3 635 15.3 C 635.8 16.3 636.5 17.3 636.9 18.3 C 636.92 18.32 637.2 18.3 637.2 18.3 L 637.2 0 L 647.3 0 L 647.3 48.7 L 637.3 48.7 L 637.3 42.9 C 637.3 42.9 636.92 42.87 636.9 42.9 C 636.4 43.9 635.8 44.9 634.9 45.9 C 634 46.9 632.9 47.7 631.6 48.3 C 630.2 49 628.5 49.3 626.5 49.3 Z M 629.8 41.3 C 631.4 41.3 632.8 40.8 633.9 39.9 C 635 39 635.9 37.8 636.5 36.1 C 637.1 34.5 637.4 32.6 637.4 30.5 C 637.4 28.3 637.1 26.4 636.5 24.8 C 635.9 23.2 635.1 22 633.9 21.1 C 632.8 20.2 631.4 19.8 629.8 19.8 C 628.1 19.8 626.7 20.2 625.5 21.1 C 624.4 22 623.5 23.3 623 24.9 C 622.4 26.5 622.1 28.3 622.1 30.5 C 622.1 32.6 622.4 34.5 623 36.1 C 623.6 37.7 624.4 39 625.6 39.9 C 626.7 40.8 628.1 41.3 629.8 41.3 Z M 665.2 49.4 C 662.9 49.4 660.8 49 659 48.2 C 657.2 47.4 655.7 46.2 654.7 44.6 C 653.6 42.9 653.1 40.9 653.1 38.5 C 653.1 36.5 653.5 34.8 654.2 33.4 C 654.9 32 656 30.9 657.2 30.1 C 658.5 29.2 660 28.6 661.6 28.2 C 663.3 27.7 665 27.4 666.8 27.3 C 668.9 27 670.7 26.8 672 26.6 C 673.3 26.4 674.2 26.1 674.8 25.7 C 675.4 25.3 675.7 24.8 675.7 24 C 675.7 24 675.7 23.8 675.7 23.8 C 675.7 22.3 675.2 21.2 674.2 20.3 C 673.3 19.5 672 19.1 670.2 19.1 C 668.4 19.1 667 19.5 665.9 20.3 C 664.8 21.1 664.1 22.1 663.7 23.3 C 663.7 23.3 654.4 22.6 654.4 22.6 C 654.8 20.3 655.8 18.4 657.2 16.8 C 658.6 15.2 660.4 13.9 662.6 13 C 664.8 12.1 667.4 11.7 670.3 11.7 C 672.3 11.7 674.3 11.9 676.1 12.4 C 678 12.9 679.6 13.6 681.1 14.6 C 682.6 15.6 683.7 16.9 684.5 18.5 C 685.4 20 685.8 21.9 685.8 24.1 C 685.8 24.08 685.8 48.7 685.8 48.7 L 676.2 48.7 L 676.2 43.7 C 676.2 43.7 675.9 43.66 675.9 43.7 C 675.3 44.8 674.5 45.8 673.5 46.7 C 672.6 47.5 671.4 48.2 670 48.7 C 668.6 49.2 667 49.4 665.2 49.4 Z M 668.1 42.4 C 669.6 42.4 670.9 42.1 672.1 41.5 C 673.2 40.9 674.1 40.1 674.8 39.1 C 675.4 38.1 675.7 36.9 675.7 35.7 C 675.7 35.7 675.7 31.8 675.7 31.8 C 675.4 32 675 32.2 674.4 32.3 C 673.9 32.5 673.3 32.7 672.6 32.8 C 671.9 32.9 671.2 33.1 670.5 33.2 C 669.9 33.3 669.2 33.3 668.7 33.4 C 667.5 33.6 666.5 33.9 665.6 34.3 C 664.7 34.6 664 35.2 663.5 35.8 C 663 36.4 662.8 37.2 662.8 38.2 C 662.8 39.6 663.3 40.6 664.3 41.3 C 665.3 42.1 666.6 42.4 668.1 42.4 Z M 711.7 12.2 L 711.7 19.8 L 689.6 19.8 L 689.6 12.2 L 711.7 12.2 Z M 694.6 3.4 L 704.8 3.4 C 704.8 3.4 704.78 37.5 704.8 37.5 C 704.8 38.4 704.9 39.2 705.2 39.7 C 705.5 40.2 705.9 40.6 706.4 40.8 C 706.9 41 707.5 41.1 708.2 41.1 C 708.7 41.1 709.2 41 709.6 40.9 C 710.1 40.8 710.5 40.8 710.7 40.7 C 710.7 40.7 712.3 48.3 712.3 48.3 C 711.8 48.4 711.1 48.6 710.2 48.8 C 709.3 49 708.1 49.2 706.8 49.2 C 704.4 49.3 702.2 49 700.4 48.3 C 698.6 47.5 697.2 46.3 696.1 44.8 C 695.1 43.2 694.6 41.2 694.6 38.8 C 694.65 38.83 694.6 3.4 694.6 3.4 Z M 727.2 49.4 C 724.9 49.4 722.8 49 721 48.2 C 719.2 47.4 717.7 46.2 716.7 44.6 C 715.6 42.9 715.1 40.9 715.1 38.5 C 715.1 36.5 715.5 34.8 716.2 33.4 C 717 32 718 30.9 719.3 30.1 C 720.5 29.2 722 28.6 723.7 28.2 C 725.3 27.7 727 27.4 728.8 27.3 C 731 27 732.7 26.8 734 26.6 C 735.3 26.4 736.2 26.1 736.8 25.7 C 737.4 25.3 737.7 24.8 737.7 24 C 737.7 24 737.7 23.8 737.7 23.8 C 737.7 22.3 737.2 21.2 736.3 20.3 C 735.3 19.5 734 19.1 732.3 19.1 C 730.4 19.1 729 19.5 727.9 20.3 C 726.8 21.1 726.1 22.1 725.8 23.3 C 725.8 23.3 716.4 22.6 716.4 22.6 C 716.9 20.3 717.8 18.4 719.2 16.8 C 720.6 15.2 722.4 13.9 724.6 13 C 726.8 12.1 729.4 11.7 732.3 11.7 C 734.3 11.7 736.3 11.9 738.1 12.4 C 740 12.9 741.7 13.6 743.1 14.6 C 744.6 15.6 745.7 16.9 746.6 18.5 C 747.4 20 747.8 21.9 747.8 24.1 C 747.82 24.08 747.8 48.7 747.8 48.7 L 738.2 48.7 L 738.2 43.7 C 738.2 43.7 737.92 43.66 737.9 43.7 C 737.3 44.8 736.5 45.8 735.6 46.7 C 734.6 47.5 733.4 48.2 732 48.7 C 730.6 49.2 729 49.4 727.2 49.4 Z M 730.1 42.4 C 731.6 42.4 732.9 42.1 734.1 41.5 C 735.2 40.9 736.1 40.1 736.8 39.1 C 737.4 38.1 737.8 36.9 737.8 35.7 C 737.8 35.7 737.8 31.8 737.8 31.8 C 737.4 32 737 32.2 736.5 32.3 C 735.9 32.5 735.3 32.7 734.6 32.8 C 733.9 32.9 733.2 33.1 732.6 33.2 C 731.9 33.3 731.3 33.3 730.7 33.4 C 729.5 33.6 728.5 33.9 727.6 34.3 C 726.7 34.6 726 35.2 725.5 35.8 C 725 36.4 724.8 37.2 724.8 38.2 C 724.8 39.6 725.3 40.6 726.3 41.3 C 727.3 42.1 728.6 42.4 730.1 42.4 Z M 771.2 48.7 L 771.2 12.2 L 780.9 12.2 L 780.9 18.6 C 780.9 18.6 781.32 18.63 781.3 18.6 C 782.1 16.5 783.3 14.8 785.1 13.6 C 786.9 12.3 789 11.7 791.5 11.7 C 794 11.7 796.1 12.3 797.9 13.6 C 799.7 14.8 800.8 16.5 801.4 18.6 C 801.4 18.6 801.8 18.6 801.8 18.6 C 802.5 16.5 803.9 14.9 805.9 13.6 C 807.8 12.3 810.1 11.7 812.8 11.7 C 816.2 11.7 819 12.8 821.1 15 C 823.3 17.1 824.3 20.2 824.3 24.1 C 824.33 24.15 824.3 48.7 824.3 48.7 L 814.2 48.7 C 814.2 48.7 814.22 26.15 814.2 26.1 C 814.2 24.1 813.7 22.6 812.6 21.6 C 811.5 20.6 810.2 20.1 808.6 20.1 C 806.7 20.1 805.3 20.6 804.3 21.8 C 803.2 23 802.7 24.5 802.7 26.4 C 802.7 26.41 802.7 48.7 802.7 48.7 L 792.9 48.7 C 792.9 48.7 792.88 25.93 792.9 25.9 C 792.9 24.1 792.4 22.7 791.3 21.7 C 790.3 20.6 789 20.1 787.3 20.1 C 786.2 20.1 785.2 20.3 784.3 20.9 C 783.4 21.5 782.7 22.3 782.1 23.3 C 781.6 24.3 781.4 25.4 781.4 26.8 C 781.36 26.79 781.4 48.7 781.4 48.7 L 771.2 48.7 Z M 841.9 49.4 C 839.6 49.4 837.5 49 835.7 48.2 C 833.9 47.4 832.4 46.2 831.4 44.6 C 830.3 42.9 829.8 40.9 829.8 38.5 C 829.8 36.5 830.2 34.8 830.9 33.4 C 831.7 32 832.7 30.9 834 30.1 C 835.2 29.2 836.7 28.6 838.3 28.2 C 840 27.7 841.7 27.4 843.5 27.3 C 845.6 27 847.4 26.8 848.7 26.6 C 850 26.4 850.9 26.1 851.5 25.7 C 852.1 25.3 852.4 24.8 852.4 24 C 852.4 24 852.4 23.8 852.4 23.8 C 852.4 22.3 851.9 21.2 851 20.3 C 850 19.5 848.7 19.1 847 19.1 C 845.1 19.1 843.7 19.5 842.6 20.3 C 841.5 21.1 840.8 22.1 840.5 23.3 C 840.5 23.3 831.1 22.6 831.1 22.6 C 831.6 20.3 832.5 18.4 833.9 16.8 C 835.3 15.2 837.1 13.9 839.3 13 C 841.5 12.1 844.1 11.7 847 11.7 C 849 11.7 851 11.9 852.8 12.4 C 854.7 12.9 856.4 13.6 857.8 14.6 C 859.3 15.6 860.4 16.9 861.2 18.5 C 862.1 20 862.5 21.9 862.5 24.1 C 862.51 24.08 862.5 48.7 862.5 48.7 L 852.9 48.7 L 852.9 43.7 C 852.9 43.7 852.61 43.66 852.6 43.7 C 852 44.8 851.2 45.8 850.3 46.7 C 849.3 47.5 848.1 48.2 846.7 48.7 C 845.3 49.2 843.7 49.4 841.9 49.4 Z M 844.8 42.4 C 846.3 42.4 847.6 42.1 848.8 41.5 C 849.9 40.9 850.8 40.1 851.5 39.1 C 852.1 38.1 852.4 36.9 852.4 35.7 C 852.4 35.7 852.4 31.8 852.4 31.8 C 852.1 32 851.7 32.2 851.1 32.3 C 850.6 32.5 850 32.7 849.3 32.8 C 848.6 32.9 847.9 33.1 847.3 33.2 C 846.6 33.3 846 33.3 845.4 33.4 C 844.2 33.6 843.2 33.9 842.3 34.3 C 841.4 34.6 840.7 35.2 840.2 35.8 C 839.7 36.4 839.5 37.2 839.5 38.2 C 839.5 39.6 840 40.6 841 41.3 C 842 42.1 843.3 42.4 844.8 42.4 Z M 880 27.6 C 879.98 27.6 880 48.7 880 48.7 L 869.8 48.7 L 869.8 12.2 L 879.5 12.2 L 879.5 18.6 C 879.5 18.6 879.93 18.63 879.9 18.6 C 880.7 16.5 882.1 14.8 884 13.6 C 885.9 12.3 888.2 11.7 890.9 11.7 C 893.5 11.7 895.7 12.3 897.6 13.4 C 899.4 14.5 900.9 16.1 902 18.1 C 903 20.2 903.5 22.6 903.5 25.5 C 903.53 25.46 903.5 48.7 903.5 48.7 L 893.4 48.7 C 893.4 48.7 893.4 27.27 893.4 27.3 C 893.4 25 892.8 23.3 891.7 22 C 890.5 20.8 888.9 20.1 886.9 20.1 C 885.5 20.1 884.3 20.4 883.3 21 C 882.3 21.6 881.4 22.4 880.9 23.6 C 880.3 24.7 880 26 880 27.6 Z M 921 49.4 C 918.7 49.4 916.6 49 914.8 48.2 C 913 47.4 911.5 46.2 910.5 44.6 C 909.4 42.9 908.9 40.9 908.9 38.5 C 908.9 36.5 909.3 34.8 910 33.4 C 910.7 32 911.8 30.9 913 30.1 C 914.3 29.2 915.8 28.6 917.4 28.2 C 919.1 27.7 920.8 27.4 922.6 27.3 C 924.7 27 926.4 26.8 927.7 26.6 C 929 26.4 930 26.1 930.6 25.7 C 931.2 25.3 931.5 24.8 931.5 24 C 931.5 24 931.5 23.8 931.5 23.8 C 931.5 22.3 931 21.2 930 20.3 C 929.1 19.5 927.8 19.1 926 19.1 C 924.2 19.1 922.8 19.5 921.7 20.3 C 920.6 21.1 919.9 22.1 919.5 23.3 C 919.5 23.3 910.2 22.6 910.2 22.6 C 910.6 20.3 911.6 18.4 913 16.8 C 914.4 15.2 916.2 13.9 918.4 13 C 920.6 12.1 923.2 11.7 926.1 11.7 C 928.1 11.7 930.1 11.9 931.9 12.4 C 933.8 12.9 935.4 13.6 936.9 14.6 C 938.3 15.6 939.5 16.9 940.3 18.5 C 941.2 20 941.6 21.9 941.6 24.1 C 941.59 24.08 941.6 48.7 941.6 48.7 L 932 48.7 L 932 43.7 C 932 43.7 931.7 43.66 931.7 43.7 C 931.1 44.8 930.3 45.8 929.3 46.7 C 928.4 47.5 927.2 48.2 925.8 48.7 C 924.4 49.2 922.8 49.4 921 49.4 Z M 923.9 42.4 C 925.4 42.4 926.7 42.1 927.9 41.5 C 929 40.9 929.9 40.1 930.6 39.1 C 931.2 38.1 931.5 36.9 931.5 35.7 C 931.5 35.7 931.5 31.8 931.5 31.8 C 931.2 32 930.8 32.2 930.2 32.3 C 929.7 32.5 929.1 32.7 928.4 32.8 C 927.7 32.9 927 33.1 926.3 33.2 C 925.7 33.3 925 33.3 924.5 33.4 C 923.3 33.6 922.3 33.9 921.4 34.3 C 920.5 34.6 919.8 35.2 919.3 35.8 C 918.8 36.4 918.6 37.2 918.6 38.2 C 918.6 39.6 919.1 40.6 920.1 41.3 C 921.1 42.1 922.4 42.4 923.9 42.4 Z M 965.1 63.2 C 961.8 63.2 959 62.7 956.7 61.8 C 954.3 61 952.5 59.7 951.1 58.2 C 949.7 56.7 948.8 54.9 948.4 53 C 948.4 53 957.8 51.7 957.8 51.7 C 958.1 52.5 958.5 53.2 959.1 53.8 C 959.8 54.4 960.6 54.9 961.6 55.3 C 962.6 55.7 963.9 55.9 965.4 55.9 C 967.6 55.9 969.4 55.4 970.8 54.3 C 972.3 53.2 973 51.4 973 48.9 C 972.97 48.94 973 42.3 973 42.3 C 973 42.3 972.55 42.26 972.5 42.3 C 972.1 43.3 971.4 44.2 970.5 45.1 C 969.7 46 968.5 46.8 967.1 47.3 C 965.7 47.9 964.1 48.2 962.1 48.2 C 959.4 48.2 956.9 47.6 954.6 46.3 C 952.4 45 950.6 43.1 949.3 40.4 C 948 37.8 947.3 34.4 947.3 30.4 C 947.3 26.2 948 22.8 949.3 20 C 950.7 17.2 952.5 15.2 954.7 13.8 C 957 12.4 959.4 11.7 962.1 11.7 C 964.1 11.7 965.9 12.1 967.2 12.7 C 968.6 13.4 969.7 14.3 970.6 15.3 C 971.4 16.3 972.1 17.3 972.5 18.3 C 972.55 18.32 972.9 18.3 972.9 18.3 L 972.9 12.2 L 983 12.2 C 983 12.2 982.99 49.08 983 49.1 C 983 52.2 982.2 54.8 980.7 56.9 C 979.2 59 977.1 60.6 974.4 61.6 C 971.7 62.7 968.6 63.2 965.1 63.2 Z M 965.3 40.6 C 967 40.6 968.4 40.2 969.5 39.4 C 970.6 38.5 971.5 37.4 972.1 35.8 C 972.7 34.3 973 32.5 973 30.3 C 973 28.2 972.7 26.3 972.1 24.8 C 971.5 23.2 970.6 22 969.5 21.1 C 968.4 20.2 967 19.8 965.3 19.8 C 963.7 19.8 962.3 20.2 961.1 21.1 C 960 22 959.1 23.3 958.5 24.8 C 957.9 26.4 957.7 28.3 957.7 30.3 C 957.7 32.4 957.9 34.3 958.5 35.8 C 959.1 37.3 960 38.5 961.1 39.3 C 962.3 40.2 963.7 40.6 965.3 40.6 Z M 1007 49.4 C 1003.2 49.4 1000 48.7 997.3 47.1 C 994.6 45.6 992.5 43.4 991 40.6 C 989.6 37.8 988.8 34.5 988.8 30.6 C 988.8 26.9 989.6 23.6 991 20.7 C 992.5 17.9 994.6 15.7 997.2 14.1 C 999.9 12.5 1003 11.7 1006.6 11.7 C 1009 11.7 1011.2 12.1 1013.3 12.9 C 1015.4 13.6 1017.2 14.8 1018.8 16.3 C 1020.4 17.9 1021.6 19.8 1022.4 22.1 C 1023.3 24.4 1023.8 27.2 1023.8 30.3 C 1023.75 30.26 1023.8 33 1023.8 33 L 992.9 33 L 992.9 26.8 C 992.9 26.8 1014.21 26.77 1014.2 26.8 C 1014.2 25.3 1013.9 24 1013.3 22.9 C 1012.6 21.8 1011.7 20.9 1010.6 20.2 C 1009.5 19.6 1008.2 19.3 1006.7 19.3 C 1005.2 19.3 1003.8 19.6 1002.7 20.3 C 1001.5 21 1000.6 22 999.9 23.2 C 999.2 24.3 998.9 25.7 998.9 27.1 C 998.9 27.1 998.9 33.1 998.9 33.1 C 998.9 34.9 999.2 36.4 999.9 37.8 C 1000.5 39.1 1001.5 40.1 1002.7 40.8 C 1004 41.5 1005.4 41.9 1007.1 41.9 C 1008.3 41.9 1009.3 41.7 1010.2 41.4 C 1011.2 41.1 1012 40.6 1012.6 40 C 1013.3 39.3 1013.8 38.6 1014.2 37.6 C 1014.2 37.6 1023.5 38.3 1023.5 38.3 C 1023.1 40.5 1022.1 42.5 1020.6 44.1 C 1019.2 45.8 1017.3 47.1 1015 48 C 1012.7 49 1010 49.4 1007 49.4 Z M 1029.7 48.7 L 1029.7 12.2 L 1039.4 12.2 L 1039.4 18.6 C 1039.4 18.6 1039.83 18.63 1039.8 18.6 C 1040.6 16.5 1041.9 14.8 1043.6 13.6 C 1045.4 12.3 1047.5 11.7 1050 11.7 C 1052.5 11.7 1054.7 12.3 1056.4 13.6 C 1058.2 14.8 1059.3 16.5 1059.9 18.6 C 1059.9 18.6 1060.3 18.6 1060.3 18.6 C 1061.1 16.5 1062.4 14.9 1064.4 13.6 C 1066.3 12.3 1068.7 11.7 1071.3 11.7 C 1074.7 11.7 1077.5 12.8 1079.6 15 C 1081.8 17.1 1082.8 20.2 1082.8 24.1 C 1082.85 24.15 1082.8 48.7 1082.8 48.7 L 1072.7 48.7 C 1072.7 48.7 1072.74 26.15 1072.7 26.1 C 1072.7 24.1 1072.2 22.6 1071.1 21.6 C 1070 20.6 1068.7 20.1 1067.1 20.1 C 1065.2 20.1 1063.8 20.6 1062.8 21.8 C 1061.7 23 1061.2 24.5 1061.2 26.4 C 1061.22 26.41 1061.2 48.7 1061.2 48.7 L 1051.4 48.7 C 1051.4 48.7 1051.39 25.93 1051.4 25.9 C 1051.4 24.1 1050.9 22.7 1049.9 21.7 C 1048.8 20.6 1047.5 20.1 1045.8 20.1 C 1044.7 20.1 1043.7 20.3 1042.8 20.9 C 1041.9 21.5 1041.2 22.3 1040.7 23.3 C 1040.1 24.3 1039.9 25.4 1039.9 26.8 C 1039.88 26.79 1039.9 48.7 1039.9 48.7 L 1029.7 48.7 Z M 1106.5 49.4 C 1102.8 49.4 1099.5 48.7 1096.8 47.1 C 1094.1 45.6 1092.1 43.4 1090.6 40.6 C 1089.1 37.8 1088.4 34.5 1088.4 30.6 C 1088.4 26.9 1089.1 23.6 1090.6 20.7 C 1092.1 17.9 1094.1 15.7 1096.8 14.1 C 1099.4 12.5 1102.5 11.7 1106.1 11.7 C 1108.5 11.7 1110.8 12.1 1112.9 12.9 C 1115 13.6 1116.8 14.8 1118.4 16.3 C 1119.9 17.9 1121.1 19.8 1122 22.1 C 1122.9 24.4 1123.3 27.2 1123.3 30.3 C 1123.31 30.26 1123.3 33 1123.3 33 L 1092.5 33 L 1092.5 26.8 C 1092.5 26.8 1113.77 26.77 1113.8 26.8 C 1113.8 25.3 1113.5 24 1112.8 22.9 C 1112.2 21.8 1111.3 20.9 1110.2 20.2 C 1109.1 19.6 1107.8 19.3 1106.3 19.3 C 1104.8 19.3 1103.4 19.6 1102.2 20.3 C 1101 21 1100.1 22 1099.4 23.2 C 1098.8 24.3 1098.4 25.7 1098.4 27.1 C 1098.4 27.1 1098.4 33.1 1098.4 33.1 C 1098.4 34.9 1098.8 36.4 1099.4 37.8 C 1100.1 39.1 1101.1 40.1 1102.3 40.8 C 1103.5 41.5 1105 41.9 1106.7 41.9 C 1107.8 41.9 1108.9 41.7 1109.8 41.4 C 1110.7 41.1 1111.5 40.6 1112.2 40 C 1112.9 39.3 1113.4 38.6 1113.7 37.6 C 1113.7 37.6 1123.1 38.3 1123.1 38.3 C 1122.6 40.5 1121.7 42.5 1120.2 44.1 C 1118.7 45.8 1116.8 47.1 1114.5 48 C 1112.2 49 1109.6 49.4 1106.5 49.4 Z M 1139.4 27.6 C 1139.44 27.6 1139.4 48.7 1139.4 48.7 L 1129.3 48.7 L 1129.3 12.2 L 1139 12.2 L 1139 18.6 C 1139 18.6 1139.39 18.63 1139.4 18.6 C 1140.2 16.5 1141.6 14.8 1143.5 13.6 C 1145.4 12.3 1147.7 11.7 1150.4 11.7 C 1152.9 11.7 1155.1 12.3 1157 13.4 C 1158.9 14.5 1160.4 16.1 1161.4 18.1 C 1162.5 20.2 1163 22.6 1163 25.5 C 1162.99 25.46 1163 48.7 1163 48.7 L 1152.9 48.7 C 1152.9 48.7 1152.86 27.27 1152.9 27.3 C 1152.9 25 1152.3 23.3 1151.1 22 C 1150 20.8 1148.4 20.1 1146.4 20.1 C 1145 20.1 1143.8 20.4 1142.8 21 C 1141.7 21.6 1140.9 22.4 1140.3 23.6 C 1139.8 24.7 1139.5 26 1139.4 27.6 Z M 1188.8 12.2 L 1188.8 19.8 L 1166.8 19.8 L 1166.8 12.2 L 1188.8 12.2 Z M 1171.8 3.4 L 1181.9 3.4 C 1181.9 3.4 1181.94 37.5 1181.9 37.5 C 1181.9 38.4 1182.1 39.2 1182.4 39.7 C 1182.7 40.2 1183.1 40.6 1183.6 40.8 C 1184.1 41 1184.7 41.1 1185.4 41.1 C 1185.8 41.1 1186.3 41 1186.8 40.9 C 1187.3 40.8 1187.6 40.8 1187.9 40.7 C 1187.9 40.7 1189.5 48.3 1189.5 48.3 C 1189 48.4 1188.3 48.6 1187.3 48.8 C 1186.4 49 1185.3 49.2 1184 49.2 C 1181.5 49.3 1179.4 49 1177.6 48.3 C 1175.7 47.5 1174.3 46.3 1173.3 44.8 C 1172.3 43.2 1171.8 41.2 1171.8 38.8 C 1171.8 38.83 1171.8 3.4 1171.8 3.4 Z " stroke="none" fill="#ffffff"/>  </g></svg>