<?xml version="1.0" standalone="no"?><!DOCTYPE svg PUBLIC "-//W3C//DTD SVG 1.1//EN" "http://www.w3.org/Graphics/SVG/1.1/DTD/svg11.dtd"><svg xmlns="http://www.w3.org/2000/svg" version="1.1" width="325px" height="185.5px" viewBox="0 -14 325 185.5" style="top:-14px">  <desc>Anaplan Intelligence is easy to use and understand</desc>  <defs/>  <g id="Polygon121073">    <path d="M 7.6 151.8 C 6.3 151.8 5.3 151.6 4.3 151.2 C 3.3 150.7 2.6 150.1 2 149.3 C 1.5 148.4 1.2 147.4 1.2 146.1 C 1.2 145.1 1.4 144.2 1.8 143.5 C 2.2 142.7 2.7 142.1 3.4 141.7 C 4.1 141.3 4.8 140.9 5.7 140.7 C 6.5 140.5 7.4 140.3 8.4 140.2 C 9.5 140.1 10.4 140 11.1 139.9 C 11.8 139.8 12.2 139.7 12.6 139.4 C 12.9 139.2 13 138.9 13 138.5 C 13 138.5 13 138.5 13 138.5 C 13 137.7 12.8 137.1 12.3 136.6 C 11.8 136.2 11.1 136 10.2 136 C 9.2 136 8.5 136.2 7.9 136.6 C 7.3 137 7 137.6 6.8 138.2 C 6.8 138.2 1.9 137.8 1.9 137.8 C 2.1 136.6 2.6 135.6 3.4 134.8 C 4.1 133.9 5 133.3 6.2 132.8 C 7.3 132.3 8.7 132.1 10.2 132.1 C 11.3 132.1 12.3 132.2 13.3 132.5 C 14.2 132.7 15.1 133.1 15.9 133.6 C 16.6 134.2 17.2 134.8 17.6 135.7 C 18.1 136.5 18.3 137.4 18.3 138.6 C 18.31 138.58 18.3 151.5 18.3 151.5 L 13.3 151.5 L 13.3 148.8 C 13.3 148.8 13.14 148.81 13.1 148.8 C 12.8 149.4 12.4 149.9 11.9 150.4 C 11.4 150.8 10.8 151.2 10.1 151.4 C 9.3 151.7 8.5 151.8 7.6 151.8 Z M 9.1 148.2 C 9.9 148.2 10.5 148 11.1 147.7 C 11.7 147.4 12.2 147 12.5 146.4 C 12.9 145.9 13.1 145.3 13.1 144.6 C 13.1 144.6 13.1 142.6 13.1 142.6 C 12.9 142.7 12.7 142.8 12.4 142.9 C 12.1 143 11.8 143.1 11.4 143.1 C 11.1 143.2 10.7 143.3 10.3 143.3 C 10 143.4 9.7 143.4 9.4 143.5 C 8.8 143.6 8.2 143.7 7.7 143.9 C 7.3 144.1 6.9 144.4 6.7 144.7 C 6.4 145 6.3 145.5 6.3 145.9 C 6.3 146.7 6.5 147.2 7.1 147.6 C 7.6 148 8.3 148.2 9.1 148.2 Z M 27.7 140.4 C 27.75 140.42 27.7 151.5 27.7 151.5 L 22.5 151.5 L 22.5 132.4 L 27.5 132.4 L 27.5 135.7 C 27.5 135.7 27.72 135.73 27.7 135.7 C 28.1 134.6 28.9 133.7 29.8 133.1 C 30.8 132.4 32 132.1 33.5 132.1 C 34.8 132.1 35.9 132.4 36.9 133 C 37.9 133.6 38.7 134.4 39.2 135.5 C 39.8 136.5 40.1 137.8 40.1 139.3 C 40.05 139.3 40.1 151.5 40.1 151.5 L 34.8 151.5 C 34.8 151.5 34.76 140.24 34.8 140.2 C 34.8 139.1 34.5 138.2 33.9 137.5 C 33.3 136.8 32.4 136.5 31.4 136.5 C 30.7 136.5 30 136.7 29.5 137 C 28.9 137.3 28.5 137.7 28.2 138.3 C 27.9 138.9 27.8 139.6 27.7 140.4 Z M 51.1 151.8 C 49.7 151.8 48.4 151.4 47.2 150.6 C 46 149.9 45.1 148.8 44.4 147.3 C 43.7 145.9 43.4 144.1 43.4 141.9 C 43.4 139.7 43.7 137.9 44.4 136.5 C 45.1 135 46.1 133.9 47.2 133.2 C 48.4 132.5 49.7 132.1 51.1 132.1 C 52.2 132.1 53.1 132.3 53.8 132.7 C 54.5 133 55.1 133.5 55.5 134 C 56 134.5 56.3 135.1 56.5 135.6 C 56.54 135.57 56.7 135.6 56.7 135.6 L 56.7 126 L 62 126 L 62 151.5 L 56.8 151.5 L 56.8 148.4 C 56.8 148.4 56.54 148.4 56.5 148.4 C 56.3 148.9 55.9 149.5 55.5 150 C 55 150.5 54.5 150.9 53.7 151.3 C 53 151.6 52.1 151.8 51.1 151.8 Z M 52.8 147.6 C 53.7 147.6 54.4 147.3 55 146.8 C 55.6 146.4 56 145.7 56.3 144.9 C 56.7 144 56.8 143 56.8 141.9 C 56.8 140.8 56.7 139.8 56.3 139 C 56 138.1 55.6 137.5 55 137 C 54.4 136.6 53.7 136.3 52.8 136.3 C 51.9 136.3 51.2 136.6 50.6 137 C 50 137.5 49.6 138.2 49.2 139 C 48.9 139.8 48.8 140.8 48.8 141.9 C 48.8 143 48.9 144 49.3 144.8 C 49.6 145.7 50 146.4 50.6 146.8 C 51.2 147.3 51.9 147.6 52.8 147.6 Z M 86.7 143.3 C 86.68 143.33 86.7 132.4 86.7 132.4 L 92 132.4 L 92 151.5 L 86.9 151.5 L 86.9 148 C 86.9 148 86.69 147.99 86.7 148 C 86.3 149.1 85.5 150 84.5 150.7 C 83.5 151.4 82.3 151.7 80.9 151.7 C 79.6 151.7 78.5 151.4 77.5 150.8 C 76.6 150.3 75.8 149.4 75.3 148.4 C 74.7 147.3 74.4 146 74.4 144.5 C 74.44 144.52 74.4 132.4 74.4 132.4 L 79.7 132.4 C 79.7 132.4 79.73 143.57 79.7 143.6 C 79.7 144.7 80 145.6 80.6 146.2 C 81.2 146.9 82 147.2 83 147.2 C 83.7 147.2 84.3 147.1 84.8 146.8 C 85.4 146.5 85.8 146.1 86.2 145.5 C 86.5 144.9 86.7 144.2 86.7 143.3 Z M 101.5 140.4 C 101.49 140.42 101.5 151.5 101.5 151.5 L 96.2 151.5 L 96.2 132.4 L 101.2 132.4 L 101.2 135.7 C 101.2 135.7 101.47 135.73 101.5 135.7 C 101.9 134.6 102.6 133.7 103.6 133.1 C 104.6 132.4 105.8 132.1 107.2 132.1 C 108.5 132.1 109.7 132.4 110.7 133 C 111.7 133.6 112.4 134.4 113 135.5 C 113.5 136.5 113.8 137.8 113.8 139.3 C 113.8 139.3 113.8 151.5 113.8 151.5 L 108.5 151.5 C 108.5 151.5 108.5 140.24 108.5 140.2 C 108.5 139.1 108.2 138.2 107.6 137.5 C 107 136.8 106.2 136.5 105.1 136.5 C 104.4 136.5 103.8 136.7 103.2 137 C 102.7 137.3 102.3 137.7 102 138.3 C 101.7 138.9 101.5 139.6 101.5 140.4 Z M 124.9 151.8 C 123.4 151.8 122.1 151.4 120.9 150.6 C 119.8 149.9 118.8 148.8 118.1 147.3 C 117.5 145.9 117.1 144.1 117.1 141.9 C 117.1 139.7 117.5 137.9 118.2 136.5 C 118.9 135 119.8 133.9 121 133.2 C 122.2 132.5 123.5 132.1 124.9 132.1 C 125.9 132.1 126.8 132.3 127.5 132.7 C 128.2 133 128.8 133.5 129.3 134 C 129.7 134.5 130.1 135.1 130.3 135.6 C 130.28 135.57 130.4 135.6 130.4 135.6 L 130.4 126 L 135.7 126 L 135.7 151.5 L 130.5 151.5 L 130.5 148.4 C 130.5 148.4 130.28 148.4 130.3 148.4 C 130 148.9 129.7 149.5 129.2 150 C 128.8 150.5 128.2 150.9 127.5 151.3 C 126.8 151.6 125.9 151.8 124.9 151.8 Z M 126.5 147.6 C 127.4 147.6 128.1 147.3 128.7 146.8 C 129.3 146.4 129.8 145.7 130.1 144.9 C 130.4 144 130.6 143 130.6 141.9 C 130.6 140.8 130.4 139.8 130.1 139 C 129.8 138.1 129.3 137.5 128.7 137 C 128.1 136.6 127.4 136.3 126.5 136.3 C 125.7 136.3 124.9 136.6 124.3 137 C 123.7 137.5 123.3 138.2 123 139 C 122.7 139.8 122.5 140.8 122.5 141.9 C 122.5 143 122.7 144 123 144.8 C 123.3 145.7 123.8 146.4 124.3 146.8 C 124.9 147.3 125.7 147.6 126.5 147.6 Z M 148.6 151.8 C 146.7 151.8 145 151.4 143.6 150.6 C 142.2 149.8 141.1 148.7 140.3 147.2 C 139.5 145.8 139.2 144 139.2 142 C 139.2 140 139.5 138.3 140.3 136.8 C 141.1 135.3 142.1 134.2 143.5 133.4 C 144.9 132.5 146.5 132.1 148.4 132.1 C 149.7 132.1 150.9 132.3 151.9 132.7 C 153 133.1 154 133.7 154.8 134.5 C 155.6 135.3 156.3 136.3 156.7 137.6 C 157.2 138.8 157.4 140.2 157.4 141.8 C 157.39 141.81 157.4 143.3 157.4 143.3 L 141.3 143.3 L 141.3 140 C 141.3 140 152.41 139.98 152.4 140 C 152.4 139.2 152.2 138.5 151.9 138 C 151.6 137.4 151.1 136.9 150.5 136.6 C 150 136.2 149.3 136.1 148.5 136.1 C 147.7 136.1 147 136.3 146.4 136.6 C 145.8 137 145.3 137.5 144.9 138.1 C 144.6 138.7 144.4 139.4 144.4 140.2 C 144.4 140.2 144.4 143.3 144.4 143.3 C 144.4 144.2 144.6 145 144.9 145.7 C 145.3 146.4 145.8 146.9 146.4 147.3 C 147.1 147.7 147.8 147.9 148.7 147.9 C 149.3 147.9 149.8 147.8 150.3 147.6 C 150.8 147.5 151.2 147.2 151.6 146.9 C 151.9 146.5 152.2 146.1 152.4 145.7 C 152.4 145.7 157.3 146 157.3 146 C 157 147.2 156.5 148.2 155.8 149.1 C 155 149.9 154 150.6 152.8 151.1 C 151.6 151.6 150.2 151.8 148.6 151.8 Z M 160.8 151.5 L 160.8 132.4 L 166 132.4 L 166 135.7 C 166 135.7 166.17 135.69 166.2 135.7 C 166.5 134.5 167.1 133.6 167.9 133 C 168.7 132.4 169.7 132.1 170.8 132.1 C 171 132.1 171.3 132.1 171.6 132.1 C 171.9 132.2 172.2 132.2 172.4 132.3 C 172.4 132.3 172.4 137 172.4 137 C 172.2 136.9 171.8 136.8 171.4 136.8 C 170.9 136.7 170.5 136.7 170.2 136.7 C 169.4 136.7 168.7 136.9 168.1 137.2 C 167.5 137.5 167 138 166.7 138.6 C 166.3 139.2 166.1 139.9 166.1 140.7 C 166.13 140.65 166.1 151.5 166.1 151.5 L 160.8 151.5 Z M 190.9 137.8 C 190.9 137.8 186.1 138.1 186.1 138.1 C 186 137.7 185.8 137.3 185.5 137 C 185.3 136.6 184.9 136.4 184.5 136.2 C 184 136 183.5 135.9 182.9 135.9 C 182.1 135.9 181.4 136 180.8 136.4 C 180.2 136.7 180 137.2 180 137.8 C 180 138.2 180.1 138.6 180.5 138.9 C 180.9 139.2 181.5 139.5 182.4 139.7 C 182.4 139.7 185.8 140.4 185.8 140.4 C 187.7 140.7 189.1 141.4 190 142.2 C 190.9 143.1 191.4 144.2 191.4 145.5 C 191.4 146.8 191 147.9 190.3 148.8 C 189.5 149.8 188.5 150.5 187.2 151 C 186 151.6 184.5 151.8 182.9 151.8 C 180.3 151.8 178.3 151.3 176.8 150.2 C 175.3 149.2 174.4 147.7 174.2 145.9 C 174.2 145.9 179.4 145.7 179.4 145.7 C 179.6 146.4 179.9 147 180.5 147.4 C 181.1 147.8 181.9 148 182.9 148 C 183.8 148 184.5 147.8 185.1 147.5 C 185.7 147.1 186 146.6 186 146.1 C 186 145.6 185.8 145.2 185.4 144.9 C 185 144.6 184.4 144.3 183.5 144.2 C 183.5 144.2 180.2 143.5 180.2 143.5 C 178.4 143.1 177 142.5 176.1 141.6 C 175.2 140.7 174.7 139.5 174.7 138.1 C 174.7 136.8 175 135.8 175.7 134.9 C 176.4 134 177.3 133.3 178.5 132.8 C 179.7 132.4 181.2 132.1 182.8 132.1 C 185.2 132.1 187.1 132.6 188.5 133.6 C 189.9 134.7 190.7 136.1 190.9 137.8 Z M 204.6 132.4 L 204.6 136.3 L 193.1 136.3 L 193.1 132.4 L 204.6 132.4 Z M 195.7 127.8 L 201 127.8 C 201 127.8 201.01 145.59 201 145.6 C 201 146.1 201.1 146.5 201.2 146.7 C 201.4 147 201.6 147.2 201.9 147.3 C 202.1 147.4 202.4 147.5 202.8 147.5 C 203 147.5 203.3 147.4 203.5 147.4 C 203.8 147.3 204 147.3 204.1 147.3 C 204.1 147.3 204.9 151.2 204.9 151.2 C 204.7 151.3 204.3 151.4 203.8 151.5 C 203.3 151.6 202.8 151.7 202.1 151.7 C 200.8 151.8 199.7 151.6 198.7 151.2 C 197.8 150.8 197 150.2 196.5 149.4 C 196 148.6 195.7 147.5 195.7 146.3 C 195.71 146.28 195.7 127.8 195.7 127.8 Z M 213.1 151.8 C 211.9 151.8 210.8 151.6 209.8 151.2 C 208.9 150.7 208.1 150.1 207.6 149.3 C 207 148.4 206.7 147.4 206.7 146.1 C 206.7 145.1 206.9 144.2 207.3 143.5 C 207.7 142.7 208.2 142.1 208.9 141.7 C 209.6 141.3 210.4 140.9 211.2 140.7 C 212.1 140.5 213 140.3 213.9 140.2 C 215 140.1 215.9 140 216.6 139.9 C 217.3 139.8 217.8 139.7 218.1 139.4 C 218.4 139.2 218.5 138.9 218.5 138.5 C 218.5 138.5 218.5 138.5 218.5 138.5 C 218.5 137.7 218.3 137.1 217.8 136.6 C 217.3 136.2 216.6 136 215.7 136 C 214.7 136 214 136.2 213.4 136.6 C 212.9 137 212.5 137.6 212.3 138.2 C 212.3 138.2 207.4 137.8 207.4 137.8 C 207.7 136.6 208.1 135.6 208.9 134.8 C 209.6 133.9 210.5 133.3 211.7 132.8 C 212.9 132.3 214.2 132.1 215.7 132.1 C 216.8 132.1 217.8 132.2 218.8 132.5 C 219.8 132.7 220.6 133.1 221.4 133.6 C 222.1 134.2 222.7 134.8 223.2 135.7 C 223.6 136.5 223.8 137.4 223.8 138.6 C 223.83 138.58 223.8 151.5 223.8 151.5 L 218.8 151.5 L 218.8 148.8 C 218.8 148.8 218.66 148.81 218.7 148.8 C 218.4 149.4 217.9 149.9 217.4 150.4 C 216.9 150.8 216.3 151.2 215.6 151.4 C 214.9 151.7 214 151.8 213.1 151.8 Z M 214.6 148.2 C 215.4 148.2 216.1 148 216.7 147.7 C 217.3 147.4 217.7 147 218.1 146.4 C 218.4 145.9 218.6 145.3 218.6 144.6 C 218.6 144.6 218.6 142.6 218.6 142.6 C 218.4 142.7 218.2 142.8 217.9 142.9 C 217.6 143 217.3 143.1 216.9 143.1 C 216.6 143.2 216.2 143.3 215.9 143.3 C 215.5 143.4 215.2 143.4 214.9 143.5 C 214.3 143.6 213.7 143.7 213.3 143.9 C 212.8 144.1 212.4 144.4 212.2 144.7 C 211.9 145 211.8 145.5 211.8 145.9 C 211.8 146.7 212.1 147.2 212.6 147.6 C 213.1 148 213.8 148.2 214.6 148.2 Z M 233.3 140.4 C 233.27 140.42 233.3 151.5 233.3 151.5 L 228 151.5 L 228 132.4 L 233 132.4 L 233 135.7 C 233 135.7 233.24 135.73 233.2 135.7 C 233.7 134.6 234.4 133.7 235.4 133.1 C 236.4 132.4 237.6 132.1 239 132.1 C 240.3 132.1 241.5 132.4 242.5 133 C 243.4 133.6 244.2 134.4 244.8 135.5 C 245.3 136.5 245.6 137.8 245.6 139.3 C 245.57 139.3 245.6 151.5 245.6 151.5 L 240.3 151.5 C 240.3 151.5 240.28 140.24 240.3 140.2 C 240.3 139.1 240 138.2 239.4 137.5 C 238.8 136.8 237.9 136.5 236.9 136.5 C 236.2 136.5 235.5 136.7 235 137 C 234.5 137.3 234 137.7 233.7 138.3 C 233.4 138.9 233.3 139.6 233.3 140.4 Z M 256.6 151.8 C 255.2 151.8 253.9 151.4 252.7 150.6 C 251.5 149.9 250.6 148.8 249.9 147.3 C 249.2 145.9 248.9 144.1 248.9 141.9 C 248.9 139.7 249.3 137.9 250 136.5 C 250.7 135 251.6 133.9 252.8 133.2 C 253.9 132.5 255.2 132.1 256.6 132.1 C 257.7 132.1 258.6 132.3 259.3 132.7 C 260 133 260.6 133.5 261 134 C 261.5 134.5 261.8 135.1 262.1 135.6 C 262.06 135.57 262.2 135.6 262.2 135.6 L 262.2 126 L 267.5 126 L 267.5 151.5 L 262.3 151.5 L 262.3 148.4 C 262.3 148.4 262.06 148.4 262.1 148.4 C 261.8 148.9 261.5 149.5 261 150 C 260.6 150.5 260 150.9 259.3 151.3 C 258.5 151.6 257.7 151.8 256.6 151.8 Z M 258.3 147.6 C 259.2 147.6 259.9 147.3 260.5 146.8 C 261.1 146.4 261.5 145.7 261.9 144.9 C 262.2 144 262.3 143 262.3 141.9 C 262.3 140.8 262.2 139.8 261.9 139 C 261.5 138.1 261.1 137.5 260.5 137 C 259.9 136.6 259.2 136.3 258.3 136.3 C 257.5 136.3 256.7 136.6 256.1 137 C 255.5 137.5 255.1 138.2 254.8 139 C 254.5 139.8 254.3 140.8 254.3 141.9 C 254.3 143 254.5 144 254.8 144.8 C 255.1 145.7 255.5 146.4 256.1 146.8 C 256.7 147.3 257.5 147.6 258.3 147.6 Z " stroke="none" fill="#ffffff"/>  </g>  <g id="Polygon121072">    <path d="M 2.1 109.5 L 2.1 90.4 L 7.4 90.4 L 7.4 109.5 L 2.1 109.5 Z M 4.8 87.9 C 4 87.9 3.3 87.6 2.8 87.1 C 2.2 86.6 1.9 86 1.9 85.2 C 1.9 84.5 2.2 83.9 2.8 83.3 C 3.3 82.8 4 82.5 4.8 82.5 C 5.6 82.5 6.2 82.8 6.8 83.3 C 7.4 83.9 7.6 84.5 7.6 85.2 C 7.6 86 7.4 86.6 6.8 87.1 C 6.2 87.6 5.6 87.9 4.8 87.9 Z M 27.3 95.8 C 27.3 95.8 22.5 96.1 22.5 96.1 C 22.4 95.7 22.2 95.3 22 95 C 21.7 94.6 21.3 94.4 20.9 94.2 C 20.4 94 19.9 93.9 19.3 93.9 C 18.5 93.9 17.8 94 17.2 94.4 C 16.7 94.7 16.4 95.2 16.4 95.8 C 16.4 96.2 16.6 96.6 16.9 96.9 C 17.3 97.2 17.9 97.5 18.8 97.7 C 18.8 97.7 22.3 98.4 22.3 98.4 C 24.1 98.7 25.5 99.4 26.4 100.2 C 27.3 101.1 27.8 102.2 27.8 103.5 C 27.8 104.8 27.4 105.9 26.7 106.8 C 25.9 107.8 24.9 108.5 23.7 109 C 22.4 109.6 20.9 109.8 19.3 109.8 C 16.7 109.8 14.7 109.3 13.2 108.2 C 11.7 107.2 10.9 105.7 10.6 103.9 C 10.6 103.9 15.8 103.7 15.8 103.7 C 16 104.4 16.4 105 17 105.4 C 17.6 105.8 18.3 106 19.3 106 C 20.2 106 21 105.8 21.5 105.5 C 22.1 105.1 22.4 104.6 22.4 104.1 C 22.4 103.6 22.2 103.2 21.8 102.9 C 21.4 102.6 20.8 102.3 19.9 102.2 C 19.9 102.2 16.6 101.5 16.6 101.5 C 14.8 101.1 13.4 100.5 12.5 99.6 C 11.6 98.7 11.1 97.5 11.1 96.1 C 11.1 94.8 11.5 93.8 12.1 92.9 C 12.8 92 13.7 91.3 14.9 90.8 C 16.2 90.4 17.6 90.1 19.2 90.1 C 21.6 90.1 23.5 90.6 24.9 91.6 C 26.3 92.7 27.1 94.1 27.3 95.8 Z M 47.9 109.8 C 46 109.8 44.3 109.4 42.9 108.6 C 41.5 107.8 40.4 106.7 39.6 105.2 C 38.8 103.8 38.5 102 38.5 100 C 38.5 98 38.8 96.3 39.6 94.8 C 40.4 93.3 41.4 92.2 42.8 91.4 C 44.2 90.5 45.9 90.1 47.7 90.1 C 49 90.1 50.2 90.3 51.2 90.7 C 52.3 91.1 53.3 91.7 54.1 92.5 C 54.9 93.3 55.6 94.3 56 95.6 C 56.5 96.8 56.7 98.2 56.7 99.8 C 56.7 99.81 56.7 101.3 56.7 101.3 L 40.6 101.3 L 40.6 98 C 40.6 98 51.72 97.98 51.7 98 C 51.7 97.2 51.5 96.5 51.2 96 C 50.9 95.4 50.4 94.9 49.8 94.6 C 49.3 94.2 48.6 94.1 47.8 94.1 C 47 94.1 46.3 94.3 45.7 94.6 C 45.1 95 44.6 95.5 44.2 96.1 C 43.9 96.7 43.7 97.4 43.7 98.2 C 43.7 98.2 43.7 101.3 43.7 101.3 C 43.7 102.2 43.9 103 44.2 103.7 C 44.6 104.4 45.1 104.9 45.7 105.3 C 46.4 105.7 47.1 105.9 48 105.9 C 48.6 105.9 49.2 105.8 49.6 105.6 C 50.1 105.5 50.5 105.2 50.9 104.9 C 51.2 104.5 51.5 104.1 51.7 103.7 C 51.7 103.7 56.6 104 56.6 104 C 56.3 105.2 55.8 106.2 55.1 107.1 C 54.3 107.9 53.3 108.6 52.1 109.1 C 50.9 109.6 49.5 109.8 47.9 109.8 Z M 65.4 109.8 C 64.1 109.8 63.1 109.6 62.1 109.2 C 61.2 108.7 60.4 108.1 59.9 107.3 C 59.3 106.4 59 105.4 59 104.1 C 59 103.1 59.2 102.2 59.6 101.5 C 60 100.7 60.5 100.1 61.2 99.7 C 61.9 99.3 62.6 98.9 63.5 98.7 C 64.4 98.5 65.3 98.3 66.2 98.2 C 67.3 98.1 68.2 98 68.9 97.9 C 69.6 97.8 70.1 97.7 70.4 97.4 C 70.7 97.2 70.8 96.9 70.8 96.5 C 70.8 96.5 70.8 96.5 70.8 96.5 C 70.8 95.7 70.6 95.1 70.1 94.6 C 69.6 94.2 68.9 94 68 94 C 67 94 66.3 94.2 65.7 94.6 C 65.1 95 64.8 95.6 64.6 96.2 C 64.6 96.2 59.7 95.8 59.7 95.8 C 59.9 94.6 60.4 93.6 61.2 92.8 C 61.9 91.9 62.8 91.3 64 90.8 C 65.1 90.3 66.5 90.1 68 90.1 C 69.1 90.1 70.1 90.2 71.1 90.5 C 72 90.7 72.9 91.1 73.7 91.6 C 74.4 92.2 75 92.8 75.5 93.7 C 75.9 94.5 76.1 95.4 76.1 96.6 C 76.11 96.58 76.1 109.5 76.1 109.5 L 71.1 109.5 L 71.1 106.8 C 71.1 106.8 70.94 106.81 70.9 106.8 C 70.6 107.4 70.2 107.9 69.7 108.4 C 69.2 108.8 68.6 109.2 67.9 109.4 C 67.1 109.7 66.3 109.8 65.4 109.8 Z M 66.9 106.2 C 67.7 106.2 68.3 106 68.9 105.7 C 69.5 105.4 70 105 70.3 104.4 C 70.7 103.9 70.9 103.3 70.9 102.6 C 70.9 102.6 70.9 100.6 70.9 100.6 C 70.7 100.7 70.5 100.8 70.2 100.9 C 69.9 101 69.6 101.1 69.2 101.1 C 68.9 101.2 68.5 101.3 68.1 101.3 C 67.8 101.4 67.5 101.4 67.2 101.5 C 66.6 101.6 66 101.7 65.6 101.9 C 65.1 102.1 64.7 102.4 64.5 102.7 C 64.2 103 64.1 103.5 64.1 103.9 C 64.1 104.7 64.3 105.2 64.9 105.6 C 65.4 106 66.1 106.2 66.9 106.2 Z M 95.9 95.8 C 95.9 95.8 91 96.1 91 96.1 C 91 95.7 90.8 95.3 90.5 95 C 90.2 94.6 89.9 94.4 89.4 94.2 C 89 94 88.5 93.9 87.8 93.9 C 87 93.9 86.3 94 85.8 94.4 C 85.2 94.7 84.9 95.2 84.9 95.8 C 84.9 96.2 85.1 96.6 85.5 96.9 C 85.8 97.2 86.5 97.5 87.3 97.7 C 87.3 97.7 90.8 98.4 90.8 98.4 C 92.7 98.7 94 99.4 94.9 100.2 C 95.9 101.1 96.3 102.2 96.3 103.5 C 96.3 104.8 96 105.9 95.2 106.8 C 94.5 107.8 93.5 108.5 92.2 109 C 90.9 109.6 89.5 109.8 87.8 109.8 C 85.3 109.8 83.3 109.3 81.8 108.2 C 80.3 107.2 79.4 105.7 79.2 103.9 C 79.2 103.9 84.4 103.7 84.4 103.7 C 84.5 104.4 84.9 105 85.5 105.4 C 86.1 105.8 86.9 106 87.8 106 C 88.8 106 89.5 105.8 90.1 105.5 C 90.6 105.1 90.9 104.6 90.9 104.1 C 90.9 103.6 90.7 103.2 90.3 102.9 C 89.9 102.6 89.3 102.3 88.5 102.2 C 88.5 102.2 85.2 101.5 85.2 101.5 C 83.3 101.1 81.9 100.5 81 99.6 C 80.1 98.7 79.7 97.5 79.7 96.1 C 79.7 94.8 80 93.8 80.7 92.9 C 81.3 92 82.3 91.3 83.5 90.8 C 84.7 90.4 86.1 90.1 87.8 90.1 C 90.2 90.1 92.1 90.6 93.5 91.6 C 94.8 92.7 95.6 94.1 95.9 95.8 Z M 102.1 116.6 C 101.4 116.6 100.8 116.6 100.2 116.5 C 99.6 116.4 99.2 116.2 98.8 116.1 C 98.8 116.1 100 112.1 100 112.1 C 100.6 112.3 101.2 112.4 101.7 112.4 C 102.2 112.4 102.6 112.3 103 112.1 C 103.3 111.8 103.6 111.4 103.9 110.8 C 103.87 110.81 104.2 110 104.2 110 L 97.3 90.4 L 102.9 90.4 L 106.8 104.4 L 107 104.4 L 111 90.4 L 116.6 90.4 C 116.6 90.4 109.22 111.52 109.2 111.5 C 108.9 112.5 108.4 113.4 107.8 114.2 C 107.2 115 106.4 115.6 105.5 116 C 104.5 116.4 103.4 116.6 102.1 116.6 Z M 137.6 90.4 L 137.6 94.3 L 126.1 94.3 L 126.1 90.4 L 137.6 90.4 Z M 128.7 85.8 L 134 85.8 C 134 85.8 134.03 103.59 134 103.6 C 134 104.1 134.1 104.5 134.3 104.7 C 134.4 105 134.6 105.2 134.9 105.3 C 135.2 105.4 135.5 105.5 135.8 105.5 C 136.1 105.5 136.3 105.4 136.6 105.4 C 136.8 105.3 137 105.3 137.1 105.3 C 137.1 105.3 138 109.2 138 109.2 C 137.7 109.3 137.3 109.4 136.9 109.5 C 136.4 109.6 135.8 109.7 135.1 109.7 C 133.8 109.8 132.7 109.6 131.8 109.2 C 130.8 108.8 130 108.2 129.5 107.4 C 129 106.6 128.7 105.5 128.7 104.3 C 128.74 104.28 128.7 85.8 128.7 85.8 Z M 148.9 109.8 C 147 109.8 145.3 109.4 143.9 108.6 C 142.5 107.8 141.4 106.6 140.7 105.1 C 139.9 103.7 139.5 101.9 139.5 100 C 139.5 98 139.9 96.3 140.7 94.8 C 141.4 93.3 142.5 92.2 143.9 91.4 C 145.3 90.5 147 90.1 148.9 90.1 C 150.9 90.1 152.5 90.5 153.9 91.4 C 155.3 92.2 156.4 93.3 157.2 94.8 C 157.9 96.3 158.3 98 158.3 100 C 158.3 101.9 157.9 103.7 157.2 105.1 C 156.4 106.6 155.3 107.8 153.9 108.6 C 152.5 109.4 150.9 109.8 148.9 109.8 Z M 149 105.7 C 149.8 105.7 150.6 105.5 151.2 105 C 151.7 104.5 152.2 103.8 152.5 102.9 C 152.8 102 152.9 101.1 152.9 99.9 C 152.9 98.8 152.8 97.8 152.5 97 C 152.2 96.1 151.7 95.4 151.2 94.9 C 150.6 94.4 149.8 94.2 149 94.2 C 148.1 94.2 147.3 94.4 146.7 94.9 C 146.1 95.4 145.7 96.1 145.4 97 C 145.1 97.8 144.9 98.8 144.9 99.9 C 144.9 101.1 145.1 102 145.4 102.9 C 145.7 103.8 146.1 104.5 146.7 105 C 147.3 105.5 148.1 105.7 149 105.7 Z M 182.1 101.3 C 182.14 101.33 182.1 90.4 182.1 90.4 L 187.4 90.4 L 187.4 109.5 L 182.3 109.5 L 182.3 106 C 182.3 106 182.15 105.99 182.2 106 C 181.7 107.1 181 108 180 108.7 C 179 109.4 177.8 109.7 176.4 109.7 C 175.1 109.7 174 109.4 173 108.8 C 172 108.3 171.3 107.4 170.7 106.4 C 170.2 105.3 169.9 104 169.9 102.5 C 169.9 102.52 169.9 90.4 169.9 90.4 L 175.2 90.4 C 175.2 90.4 175.19 101.57 175.2 101.6 C 175.2 102.7 175.5 103.6 176.1 104.2 C 176.7 104.9 177.5 105.2 178.5 105.2 C 179.1 105.2 179.7 105.1 180.3 104.8 C 180.8 104.5 181.3 104.1 181.6 103.5 C 182 102.9 182.1 102.2 182.1 101.3 Z M 207.4 95.8 C 207.4 95.8 202.5 96.1 202.5 96.1 C 202.5 95.7 202.3 95.3 202 95 C 201.7 94.6 201.4 94.4 200.9 94.2 C 200.5 94 200 93.9 199.3 93.9 C 198.5 93.9 197.8 94 197.3 94.4 C 196.7 94.7 196.4 95.2 196.4 95.8 C 196.4 96.2 196.6 96.6 197 96.9 C 197.3 97.2 198 97.5 198.8 97.7 C 198.8 97.7 202.3 98.4 202.3 98.4 C 204.2 98.7 205.5 99.4 206.5 100.2 C 207.4 101.1 207.8 102.2 207.8 103.5 C 207.8 104.8 207.5 105.9 206.7 106.8 C 206 107.8 205 108.5 203.7 109 C 202.4 109.6 201 109.8 199.3 109.8 C 196.8 109.8 194.8 109.3 193.3 108.2 C 191.8 107.2 190.9 105.7 190.7 103.9 C 190.7 103.9 195.9 103.7 195.9 103.7 C 196 104.4 196.4 105 197 105.4 C 197.6 105.8 198.4 106 199.3 106 C 200.3 106 201 105.8 201.6 105.5 C 202.1 105.1 202.4 104.6 202.4 104.1 C 202.4 103.6 202.2 103.2 201.8 102.9 C 201.4 102.6 200.8 102.3 200 102.2 C 200 102.2 196.7 101.5 196.7 101.5 C 194.8 101.1 193.4 100.5 192.5 99.6 C 191.6 98.7 191.2 97.5 191.2 96.1 C 191.2 94.8 191.5 93.8 192.2 92.9 C 192.8 92 193.8 91.3 195 90.8 C 196.2 90.4 197.6 90.1 199.3 90.1 C 201.7 90.1 203.6 90.6 205 91.6 C 206.3 92.7 207.2 94.1 207.4 95.8 Z M 219.6 109.8 C 217.6 109.8 215.9 109.4 214.5 108.6 C 213.1 107.8 212 106.7 211.2 105.2 C 210.5 103.8 210.1 102 210.1 100 C 210.1 98 210.5 96.3 211.2 94.8 C 212 93.3 213.1 92.2 214.5 91.4 C 215.9 90.5 217.5 90.1 219.4 90.1 C 220.6 90.1 221.8 90.3 222.9 90.7 C 224 91.1 224.9 91.7 225.7 92.5 C 226.6 93.3 227.2 94.3 227.7 95.6 C 228.1 96.8 228.3 98.2 228.3 99.8 C 228.34 99.81 228.3 101.3 228.3 101.3 L 212.2 101.3 L 212.2 98 C 212.2 98 223.36 97.98 223.4 98 C 223.4 97.2 223.2 96.5 222.9 96 C 222.5 95.4 222.1 94.9 221.5 94.6 C 220.9 94.2 220.2 94.1 219.5 94.1 C 218.6 94.1 217.9 94.3 217.3 94.6 C 216.7 95 216.2 95.5 215.9 96.1 C 215.5 96.7 215.3 97.4 215.3 98.2 C 215.3 98.2 215.3 101.3 215.3 101.3 C 215.3 102.2 215.5 103 215.9 103.7 C 216.2 104.4 216.7 104.9 217.4 105.3 C 218 105.7 218.8 105.9 219.7 105.9 C 220.3 105.9 220.8 105.8 221.3 105.6 C 221.8 105.5 222.2 105.2 222.5 104.9 C 222.9 104.5 223.1 104.1 223.3 103.7 C 223.3 103.7 228.2 104 228.2 104 C 228 105.2 227.5 106.2 226.7 107.1 C 225.9 107.9 225 108.6 223.7 109.1 C 222.5 109.6 221.2 109.8 219.6 109.8 Z " stroke="none" fill="#ffffff"/>  </g>  <g id="Polygon121071">    <path d="M 7.6 42 L 7.6 67.5 L 2.2 67.5 L 2.2 42 L 7.6 42 Z M 17.4 56.4 C 17.45 56.42 17.4 67.5 17.4 67.5 L 12.2 67.5 L 12.2 48.4 L 17.2 48.4 L 17.2 51.7 C 17.2 51.7 17.42 51.73 17.4 51.7 C 17.8 50.6 18.6 49.7 19.5 49.1 C 20.5 48.4 21.7 48.1 23.2 48.1 C 24.5 48.1 25.6 48.4 26.6 49 C 27.6 49.6 28.4 50.4 28.9 51.5 C 29.5 52.5 29.8 53.8 29.8 55.3 C 29.75 55.3 29.8 67.5 29.8 67.5 L 24.5 67.5 C 24.5 67.5 24.46 56.24 24.5 56.2 C 24.5 55.1 24.2 54.2 23.6 53.5 C 23 52.8 22.1 52.5 21.1 52.5 C 20.4 52.5 19.7 52.7 19.2 53 C 18.6 53.3 18.2 53.7 17.9 54.3 C 17.6 54.9 17.5 55.6 17.4 56.4 Z M 43.6 48.4 L 43.6 52.3 L 32.1 52.3 L 32.1 48.4 L 43.6 48.4 Z M 34.7 43.8 L 40 43.8 C 40 43.8 39.99 61.59 40 61.6 C 40 62.1 40.1 62.5 40.2 62.7 C 40.4 63 40.6 63.2 40.8 63.3 C 41.1 63.4 41.4 63.5 41.8 63.5 C 42 63.5 42.3 63.4 42.5 63.4 C 42.8 63.3 43 63.3 43.1 63.3 C 43.1 63.3 43.9 67.2 43.9 67.2 C 43.7 67.3 43.3 67.4 42.8 67.5 C 42.3 67.6 41.7 67.7 41.1 67.7 C 39.8 67.8 38.7 67.6 37.7 67.2 C 36.7 66.8 36 66.2 35.5 65.4 C 34.9 64.6 34.7 63.5 34.7 62.3 C 34.69 62.28 34.7 43.8 34.7 43.8 Z M 55 67.8 C 53 67.8 51.3 67.4 49.9 66.6 C 48.5 65.8 47.4 64.7 46.6 63.2 C 45.9 61.8 45.5 60 45.5 58 C 45.5 56 45.9 54.3 46.6 52.8 C 47.4 51.3 48.5 50.2 49.9 49.4 C 51.2 48.5 52.9 48.1 54.7 48.1 C 56 48.1 57.2 48.3 58.3 48.7 C 59.4 49.1 60.3 49.7 61.1 50.5 C 61.9 51.3 62.6 52.3 63 53.6 C 63.5 54.8 63.7 56.2 63.7 57.8 C 63.72 57.81 63.7 59.3 63.7 59.3 L 47.6 59.3 L 47.6 56 C 47.6 56 58.74 55.98 58.7 56 C 58.7 55.2 58.6 54.5 58.2 54 C 57.9 53.4 57.5 52.9 56.9 52.6 C 56.3 52.2 55.6 52.1 54.8 52.1 C 54 52.1 53.3 52.3 52.7 52.6 C 52.1 53 51.6 53.5 51.3 54.1 C 50.9 54.7 50.7 55.4 50.7 56.2 C 50.7 56.2 50.7 59.3 50.7 59.3 C 50.7 60.2 50.9 61 51.2 61.7 C 51.6 62.4 52.1 62.9 52.7 63.3 C 53.4 63.7 54.2 63.9 55 63.9 C 55.6 63.9 56.2 63.8 56.7 63.6 C 57.2 63.5 57.6 63.2 57.9 62.9 C 58.3 62.5 58.5 62.1 58.7 61.7 C 58.7 61.7 63.6 62 63.6 62 C 63.4 63.2 62.9 64.2 62.1 65.1 C 61.3 65.9 60.3 66.6 59.1 67.1 C 57.9 67.6 56.5 67.8 55 67.8 Z M 72.5 42 L 72.5 67.5 L 67.2 67.5 L 67.2 42 L 72.5 42 Z M 82 42 L 82 67.5 L 76.7 67.5 L 76.7 42 L 82 42 Z M 86.2 67.5 L 86.2 48.4 L 91.5 48.4 L 91.5 67.5 L 86.2 67.5 Z M 88.9 45.9 C 88.1 45.9 87.4 45.6 86.9 45.1 C 86.3 44.6 86 44 86 43.2 C 86 42.5 86.3 41.9 86.9 41.3 C 87.4 40.8 88.1 40.5 88.9 40.5 C 89.7 40.5 90.3 40.8 90.9 41.3 C 91.5 41.9 91.7 42.5 91.7 43.2 C 91.7 44 91.5 44.6 90.9 45.1 C 90.3 45.6 89.7 45.9 88.9 45.9 Z M 104.2 75 C 102.4 75 101 74.8 99.8 74.3 C 98.5 73.8 97.6 73.2 96.8 72.4 C 96.1 71.6 95.6 70.7 95.4 69.7 C 95.4 69.7 100.3 69 100.3 69 C 100.5 69.4 100.7 69.8 101 70.1 C 101.4 70.4 101.8 70.7 102.3 70.9 C 102.9 71.1 103.5 71.2 104.3 71.2 C 105.4 71.2 106.4 70.9 107.1 70.4 C 107.9 69.8 108.3 68.9 108.3 67.6 C 108.26 67.57 108.3 64.1 108.3 64.1 C 108.3 64.1 108.04 64.07 108 64.1 C 107.8 64.6 107.5 65.1 107 65.6 C 106.5 66.1 105.9 66.4 105.2 66.7 C 104.5 67 103.6 67.2 102.6 67.2 C 101.2 67.2 99.9 66.8 98.7 66.2 C 97.5 65.5 96.6 64.5 95.9 63.1 C 95.2 61.7 94.9 60 94.9 57.9 C 94.9 55.7 95.2 53.9 95.9 52.5 C 96.6 51 97.5 49.9 98.7 49.2 C 99.9 48.5 101.2 48.1 102.6 48.1 C 103.7 48.1 104.5 48.3 105.3 48.7 C 106 49 106.6 49.5 107 50 C 107.5 50.5 107.8 51.1 108 51.6 C 108.04 51.57 108.2 51.6 108.2 51.6 L 108.2 48.4 L 113.5 48.4 C 113.5 48.4 113.49 67.64 113.5 67.6 C 113.5 69.3 113.1 70.6 112.3 71.7 C 111.5 72.8 110.4 73.6 109 74.2 C 107.6 74.7 106 75 104.2 75 Z M 104.3 63.2 C 105.1 63.2 105.8 63 106.4 62.6 C 107 62.1 107.5 61.5 107.8 60.7 C 108.1 59.9 108.3 59 108.3 57.8 C 108.3 56.7 108.1 55.8 107.8 54.9 C 107.5 54.1 107 53.5 106.4 53 C 105.9 52.6 105.1 52.3 104.3 52.3 C 103.4 52.3 102.7 52.6 102.1 53 C 101.5 53.5 101 54.1 100.7 55 C 100.4 55.8 100.3 56.8 100.3 57.8 C 100.3 58.9 100.4 59.9 100.7 60.7 C 101 61.5 101.5 62.1 102.1 62.6 C 102.7 63 103.4 63.2 104.3 63.2 Z M 126.3 67.8 C 124.4 67.8 122.7 67.4 121.3 66.6 C 119.9 65.8 118.8 64.7 118 63.2 C 117.3 61.8 116.9 60 116.9 58 C 116.9 56 117.3 54.3 118 52.8 C 118.8 51.3 119.9 50.2 121.2 49.4 C 122.6 48.5 124.3 48.1 126.1 48.1 C 127.4 48.1 128.6 48.3 129.7 48.7 C 130.7 49.1 131.7 49.7 132.5 50.5 C 133.3 51.3 134 52.3 134.4 53.6 C 134.9 54.8 135.1 56.2 135.1 57.8 C 135.11 57.81 135.1 59.3 135.1 59.3 L 119 59.3 L 119 56 C 119 56 130.12 55.98 130.1 56 C 130.1 55.2 130 54.5 129.6 54 C 129.3 53.4 128.8 52.9 128.3 52.6 C 127.7 52.2 127 52.1 126.2 52.1 C 125.4 52.1 124.7 52.3 124.1 52.6 C 123.5 53 123 53.5 122.6 54.1 C 122.3 54.7 122.1 55.4 122.1 56.2 C 122.1 56.2 122.1 59.3 122.1 59.3 C 122.1 60.2 122.3 61 122.6 61.7 C 123 62.4 123.5 62.9 124.1 63.3 C 124.8 63.7 125.5 63.9 126.4 63.9 C 127 63.9 127.6 63.8 128 63.6 C 128.5 63.5 129 63.2 129.3 62.9 C 129.6 62.5 129.9 62.1 130.1 61.7 C 130.1 61.7 135 62 135 62 C 134.7 63.2 134.2 64.2 133.5 65.1 C 132.7 65.9 131.7 66.6 130.5 67.1 C 129.3 67.6 127.9 67.8 126.3 67.8 Z M 143.8 56.4 C 143.84 56.42 143.8 67.5 143.8 67.5 L 138.5 67.5 L 138.5 48.4 L 143.6 48.4 L 143.6 51.7 C 143.6 51.7 143.82 51.73 143.8 51.7 C 144.2 50.6 144.9 49.7 145.9 49.1 C 146.9 48.4 148.1 48.1 149.6 48.1 C 150.9 48.1 152 48.4 153 49 C 154 49.6 154.8 50.4 155.3 51.5 C 155.9 52.5 156.1 53.8 156.1 55.3 C 156.15 55.3 156.1 67.5 156.1 67.5 L 150.9 67.5 C 150.9 67.5 150.85 56.24 150.9 56.2 C 150.9 55.1 150.6 54.2 150 53.5 C 149.4 52.8 148.5 52.5 147.5 52.5 C 146.7 52.5 146.1 52.7 145.6 53 C 145 53.3 144.6 53.7 144.3 54.3 C 144 54.9 143.8 55.6 143.8 56.4 Z M 168.8 67.8 C 166.8 67.8 165.1 67.4 163.7 66.6 C 162.3 65.7 161.3 64.6 160.5 63.1 C 159.8 61.6 159.4 59.9 159.4 58 C 159.4 56 159.8 54.3 160.5 52.8 C 161.3 51.4 162.4 50.2 163.8 49.4 C 165.2 48.5 166.8 48.1 168.8 48.1 C 170.4 48.1 171.9 48.4 173.1 49 C 174.4 49.6 175.4 50.5 176.1 51.6 C 176.8 52.7 177.2 53.9 177.3 55.4 C 177.3 55.4 172.3 55.4 172.3 55.4 C 172.2 54.5 171.8 53.7 171.2 53.1 C 170.6 52.5 169.8 52.2 168.8 52.2 C 168 52.2 167.3 52.5 166.7 52.9 C 166.1 53.3 165.6 54 165.3 54.8 C 164.9 55.7 164.8 56.7 164.8 57.9 C 164.8 59.1 164.9 60.2 165.3 61 C 165.6 61.9 166.1 62.5 166.7 63 C 167.3 63.4 168 63.6 168.8 63.6 C 169.4 63.6 170 63.5 170.5 63.3 C 171 63 171.4 62.7 171.7 62.2 C 172 61.7 172.2 61.1 172.3 60.5 C 172.3 60.5 177.3 60.5 177.3 60.5 C 177.2 61.9 176.8 63.2 176.1 64.3 C 175.4 65.4 174.4 66.3 173.2 66.9 C 171.9 67.5 170.5 67.8 168.8 67.8 Z M 189.1 67.8 C 187.1 67.8 185.5 67.4 184 66.6 C 182.6 65.8 181.5 64.7 180.8 63.2 C 180 61.8 179.6 60 179.6 58 C 179.6 56 180 54.3 180.8 52.8 C 181.5 51.3 182.6 50.2 184 49.4 C 185.4 48.5 187 48.1 188.9 48.1 C 190.2 48.1 191.3 48.3 192.4 48.7 C 193.5 49.1 194.5 49.7 195.3 50.5 C 196.1 51.3 196.7 52.3 197.2 53.6 C 197.6 54.8 197.9 56.2 197.9 57.8 C 197.87 57.81 197.9 59.3 197.9 59.3 L 181.8 59.3 L 181.8 56 C 181.8 56 192.89 55.98 192.9 56 C 192.9 55.2 192.7 54.5 192.4 54 C 192.1 53.4 191.6 52.9 191 52.6 C 190.4 52.2 189.8 52.1 189 52.1 C 188.2 52.1 187.5 52.3 186.9 52.6 C 186.2 53 185.8 53.5 185.4 54.1 C 185.1 54.7 184.9 55.4 184.9 56.2 C 184.9 56.2 184.9 59.3 184.9 59.3 C 184.9 60.2 185 61 185.4 61.7 C 185.8 62.4 186.2 62.9 186.9 63.3 C 187.5 63.7 188.3 63.9 189.2 63.9 C 189.8 63.9 190.3 63.8 190.8 63.6 C 191.3 63.5 191.7 63.2 192.1 62.9 C 192.4 62.5 192.7 62.1 192.9 61.7 C 192.9 61.7 197.8 62 197.8 62 C 197.5 63.2 197 64.2 196.2 65.1 C 195.5 65.9 194.5 66.6 193.3 67.1 C 192.1 67.6 190.7 67.8 189.1 67.8 Z " stroke="none" fill="#ffffff"/>  </g>  <g id="Polygon121070">    <path d="M 6.6 25.5 L 0.8 25.5 L 9.6 0 L 16.6 0 L 25.3 25.5 L 19.6 25.5 L 13.2 5.8 L 13 5.8 L 6.6 25.5 Z M 6.2 15.4 L 19.9 15.4 L 19.9 19.7 L 6.2 19.7 L 6.2 15.4 Z M 33.4 14.4 C 33.39 14.42 33.4 25.5 33.4 25.5 L 28.1 25.5 L 28.1 6.4 L 33.1 6.4 L 33.1 9.7 C 33.1 9.7 33.36 9.73 33.4 9.7 C 33.8 8.6 34.5 7.7 35.5 7.1 C 36.5 6.4 37.7 6.1 39.1 6.1 C 40.4 6.1 41.6 6.4 42.6 7 C 43.6 7.6 44.3 8.4 44.9 9.5 C 45.4 10.5 45.7 11.8 45.7 13.3 C 45.69 13.3 45.7 25.5 45.7 25.5 L 40.4 25.5 C 40.4 25.5 40.4 14.24 40.4 14.2 C 40.4 13.1 40.1 12.2 39.5 11.5 C 38.9 10.8 38.1 10.5 37 10.5 C 36.3 10.5 35.7 10.7 35.1 11 C 34.6 11.3 34.2 11.7 33.9 12.3 C 33.6 12.9 33.4 13.6 33.4 14.4 Z M 55.1 25.8 C 53.9 25.8 52.8 25.6 51.9 25.2 C 50.9 24.7 50.2 24.1 49.6 23.3 C 49.1 22.4 48.8 21.4 48.8 20.1 C 48.8 19.1 49 18.2 49.4 17.5 C 49.8 16.7 50.3 16.1 51 15.7 C 51.7 15.3 52.4 14.9 53.3 14.7 C 54.1 14.5 55 14.3 56 14.2 C 57.1 14.1 58 14 58.7 13.9 C 59.3 13.8 59.8 13.7 60.1 13.4 C 60.5 13.2 60.6 12.9 60.6 12.5 C 60.6 12.5 60.6 12.5 60.6 12.5 C 60.6 11.7 60.4 11.1 59.9 10.6 C 59.4 10.2 58.7 10 57.8 10 C 56.8 10 56.1 10.2 55.5 10.6 C 54.9 11 54.6 11.6 54.4 12.2 C 54.4 12.2 49.5 11.8 49.5 11.8 C 49.7 10.6 50.2 9.6 50.9 8.8 C 51.7 7.9 52.6 7.3 53.8 6.8 C 54.9 6.3 56.3 6.1 57.8 6.1 C 58.9 6.1 59.9 6.2 60.8 6.5 C 61.8 6.7 62.7 7.1 63.4 7.6 C 64.2 8.2 64.8 8.8 65.2 9.7 C 65.7 10.5 65.9 11.4 65.9 12.6 C 65.9 12.58 65.9 25.5 65.9 25.5 L 60.9 25.5 L 60.9 22.8 C 60.9 22.8 60.73 22.81 60.7 22.8 C 60.4 23.4 60 23.9 59.5 24.4 C 59 24.8 58.4 25.2 57.6 25.4 C 56.9 25.7 56.1 25.8 55.1 25.8 Z M 56.7 22.2 C 57.4 22.2 58.1 22 58.7 21.7 C 59.3 21.4 59.8 21 60.1 20.4 C 60.5 19.9 60.6 19.3 60.6 18.6 C 60.6 18.6 60.6 16.6 60.6 16.6 C 60.5 16.7 60.3 16.8 60 16.9 C 59.7 17 59.4 17.1 59 17.1 C 58.6 17.2 58.3 17.3 57.9 17.3 C 57.6 17.4 57.3 17.4 57 17.5 C 56.3 17.6 55.8 17.7 55.3 17.9 C 54.9 18.1 54.5 18.4 54.3 18.7 C 54 19 53.9 19.5 53.9 19.9 C 53.9 20.7 54.1 21.2 54.7 21.6 C 55.2 22 55.9 22.2 56.7 22.2 Z M 70 32.6 L 70 6.4 L 75.3 6.4 L 75.3 9.6 C 75.3 9.6 75.5 9.57 75.5 9.6 C 75.7 9.1 76.1 8.5 76.5 8 C 77 7.5 77.5 7 78.3 6.7 C 79 6.3 79.9 6.1 80.9 6.1 C 82.3 6.1 83.6 6.5 84.8 7.2 C 86 7.9 86.9 9 87.6 10.5 C 88.3 11.9 88.7 13.7 88.7 15.9 C 88.7 18.1 88.3 19.9 87.6 21.3 C 87 22.8 86 23.9 84.9 24.6 C 83.7 25.4 82.4 25.8 80.9 25.8 C 79.9 25.8 79 25.6 78.3 25.3 C 77.6 24.9 77 24.5 76.5 24 C 76.1 23.5 75.7 22.9 75.5 22.4 C 75.5 22.4 75.3 22.4 75.3 22.4 L 75.3 32.6 L 70 32.6 Z M 75.2 15.9 C 75.2 17 75.4 18 75.7 18.9 C 76 19.7 76.5 20.4 77.1 20.8 C 77.7 21.3 78.4 21.6 79.2 21.6 C 80.1 21.6 80.8 21.3 81.4 20.8 C 82 20.4 82.5 19.7 82.8 18.8 C 83.1 18 83.3 17 83.3 15.9 C 83.3 14.8 83.1 13.8 82.8 13 C 82.5 12.2 82 11.5 81.4 11 C 80.8 10.6 80.1 10.3 79.2 10.3 C 78.4 10.3 77.7 10.6 77.1 11 C 76.5 11.5 76 12.1 75.7 13 C 75.4 13.8 75.2 14.8 75.2 15.9 Z M 97.5 0 L 97.5 25.5 L 92.2 25.5 L 92.2 0 L 97.5 0 Z M 107.1 25.8 C 105.8 25.8 104.7 25.6 103.8 25.2 C 102.8 24.7 102.1 24.1 101.5 23.3 C 101 22.4 100.7 21.4 100.7 20.1 C 100.7 19.1 100.9 18.2 101.3 17.5 C 101.7 16.7 102.2 16.1 102.9 15.7 C 103.6 15.3 104.3 14.9 105.2 14.7 C 106 14.5 106.9 14.3 107.9 14.2 C 109 14.1 109.9 14 110.6 13.9 C 111.2 13.8 111.7 13.7 112 13.4 C 112.4 13.2 112.5 12.9 112.5 12.5 C 112.5 12.5 112.5 12.5 112.5 12.5 C 112.5 11.7 112.3 11.1 111.8 10.6 C 111.3 10.2 110.6 10 109.7 10 C 108.7 10 108 10.2 107.4 10.6 C 106.8 11 106.5 11.6 106.3 12.2 C 106.3 12.2 101.4 11.8 101.4 11.8 C 101.6 10.6 102.1 9.6 102.9 8.8 C 103.6 7.9 104.5 7.3 105.7 6.8 C 106.8 6.3 108.2 6.1 109.7 6.1 C 110.8 6.1 111.8 6.2 112.8 6.5 C 113.7 6.7 114.6 7.1 115.3 7.6 C 116.1 8.2 116.7 8.8 117.1 9.7 C 117.6 10.5 117.8 11.4 117.8 12.6 C 117.8 12.58 117.8 25.5 117.8 25.5 L 112.8 25.5 L 112.8 22.8 C 112.8 22.8 112.63 22.81 112.6 22.8 C 112.3 23.4 111.9 23.9 111.4 24.4 C 110.9 24.8 110.3 25.2 109.6 25.4 C 108.8 25.7 108 25.8 107.1 25.8 Z M 108.6 22.2 C 109.3 22.2 110 22 110.6 21.7 C 111.2 21.4 111.7 21 112 20.4 C 112.4 19.9 112.5 19.3 112.5 18.6 C 112.5 18.6 112.5 16.6 112.5 16.6 C 112.4 16.7 112.2 16.8 111.9 16.9 C 111.6 17 111.3 17.1 110.9 17.1 C 110.5 17.2 110.2 17.3 109.8 17.3 C 109.5 17.4 109.2 17.4 108.9 17.5 C 108.2 17.6 107.7 17.7 107.2 17.9 C 106.8 18.1 106.4 18.4 106.2 18.7 C 105.9 19 105.8 19.5 105.8 19.9 C 105.8 20.7 106 21.2 106.6 21.6 C 107.1 22 107.8 22.2 108.6 22.2 Z M 127.2 14.4 C 127.24 14.42 127.2 25.5 127.2 25.5 L 121.9 25.5 L 121.9 6.4 L 127 6.4 L 127 9.7 C 127 9.7 127.22 9.73 127.2 9.7 C 127.6 8.6 128.4 7.7 129.3 7.1 C 130.3 6.4 131.5 6.1 133 6.1 C 134.3 6.1 135.4 6.4 136.4 7 C 137.4 7.6 138.2 8.4 138.7 9.5 C 139.3 10.5 139.5 11.8 139.5 13.3 C 139.55 13.3 139.5 25.5 139.5 25.5 L 134.3 25.5 C 134.3 25.5 134.25 14.24 134.3 14.2 C 134.3 13.1 134 12.2 133.4 11.5 C 132.8 10.8 131.9 10.5 130.9 10.5 C 130.1 10.5 129.5 10.7 129 11 C 128.4 11.3 128 11.7 127.7 12.3 C 127.4 12.9 127.3 13.6 127.2 14.4 Z " stroke="none" fill="#ffffff"/>  </g></svg>