<?xml version="1.0" standalone="no"?><!DOCTYPE svg PUBLIC "-//W3C//DTD SVG 1.1//EN" "http://www.w3.org/Graphics/SVG/1.1/DTD/svg11.dtd"><svg xmlns="http://www.w3.org/2000/svg" version="1.1" width="328.4px" height="73.4px" viewBox="0 -17 328.4 73.4" style="top:-17px">  <desc>Difficult to use ￼</desc>  <defs/>  <g id="Polygon113368">    <path d="M 13.8 31.3 C 13.8 31.27 2.7 31.3 2.7 31.3 L 2.7 0 C 2.7 0 13.9 0 13.9 0 C 17 0 19.7 0.6 22 1.9 C 24.3 3.1 26 4.9 27.3 7.2 C 28.5 9.6 29.1 12.4 29.1 15.6 C 29.1 18.9 28.5 21.7 27.3 24 C 26 26.3 24.3 28.1 22 29.4 C 19.7 30.6 17 31.3 13.8 31.3 Z M 9.3 25.6 C 9.3 25.6 13.53 25.61 13.5 25.6 C 15.5 25.6 17.1 25.3 18.5 24.6 C 19.8 23.9 20.8 22.8 21.5 21.3 C 22.2 19.8 22.5 17.9 22.5 15.6 C 22.5 13.3 22.2 11.4 21.5 9.9 C 20.8 8.5 19.8 7.4 18.5 6.7 C 17.1 6 15.5 5.7 13.5 5.7 C 13.54 5.67 9.3 5.7 9.3 5.7 L 9.3 25.6 Z M 33.7 31.3 L 33.7 7.8 L 40.2 7.8 L 40.2 31.3 L 33.7 31.3 Z M 37 4.8 C 36 4.8 35.2 4.5 34.5 3.8 C 33.8 3.2 33.5 2.4 33.5 1.5 C 33.5 0.6 33.8 -0.2 34.5 -0.8 C 35.2 -1.5 36.1 -1.8 37 -1.8 C 38 -1.8 38.8 -1.5 39.5 -0.8 C 40.2 -0.2 40.5 0.6 40.5 1.5 C 40.5 2.4 40.2 3.2 39.5 3.8 C 38.8 4.5 38 4.8 37 4.8 Z M 57.8 7.8 L 57.8 12.7 L 43.3 12.7 L 43.3 7.8 L 57.8 7.8 Z M 46.6 31.3 C 46.6 31.3 46.61 6.12 46.6 6.1 C 46.6 4.4 46.9 3 47.6 1.9 C 48.3 0.8 49.2 -0.1 50.4 -0.6 C 51.5 -1.2 52.8 -1.5 54.3 -1.5 C 55.3 -1.5 56.2 -1.4 57 -1.2 C 57.9 -1.1 58.5 -0.9 58.9 -0.8 C 58.9 -0.8 57.7 4.1 57.7 4.1 C 57.5 4 57.2 3.9 56.8 3.8 C 56.4 3.8 56.1 3.7 55.7 3.7 C 54.7 3.7 54 3.9 53.7 4.4 C 53.3 4.8 53.1 5.5 53.1 6.2 C 53.1 6.25 53.1 31.3 53.1 31.3 L 46.6 31.3 Z M 74.6 7.8 L 74.6 12.7 L 60.1 12.7 L 60.1 7.8 L 74.6 7.8 Z M 63.4 31.3 C 63.4 31.3 63.4 6.12 63.4 6.1 C 63.4 4.4 63.7 3 64.4 1.9 C 65.1 0.8 66 -0.1 67.1 -0.6 C 68.3 -1.2 69.6 -1.5 71.1 -1.5 C 72.1 -1.5 73 -1.4 73.8 -1.2 C 74.7 -1.1 75.3 -0.9 75.7 -0.8 C 75.7 -0.8 74.5 4.1 74.5 4.1 C 74.3 4 74 3.9 73.6 3.8 C 73.2 3.8 72.8 3.7 72.5 3.7 C 71.5 3.7 70.8 3.9 70.5 4.4 C 70.1 4.8 69.9 5.5 69.9 6.2 C 69.89 6.25 69.9 31.3 69.9 31.3 L 63.4 31.3 Z M 78.4 31.3 L 78.4 7.8 L 84.9 7.8 L 84.9 31.3 L 78.4 31.3 Z M 81.6 4.8 C 80.7 4.8 79.8 4.5 79.2 3.8 C 78.5 3.2 78.1 2.4 78.1 1.5 C 78.1 0.6 78.5 -0.2 79.2 -0.8 C 79.9 -1.5 80.7 -1.8 81.6 -1.8 C 82.6 -1.8 83.4 -1.5 84.1 -0.8 C 84.8 -0.2 85.2 0.6 85.2 1.5 C 85.2 2.4 84.8 3.2 84.1 3.8 C 83.4 4.5 82.6 4.8 81.6 4.8 Z M 100.4 31.7 C 98 31.7 95.9 31.2 94.2 30.2 C 92.5 29.2 91.2 27.8 90.2 25.9 C 89.3 24.1 88.9 22 88.9 19.6 C 88.9 17.2 89.3 15.1 90.3 13.3 C 91.2 11.5 92.5 10.1 94.2 9 C 96 8 98 7.5 100.4 7.5 C 102.4 7.5 104.2 7.9 105.7 8.6 C 107.3 9.4 108.5 10.4 109.4 11.8 C 110.3 13.1 110.8 14.7 110.9 16.5 C 110.9 16.5 104.7 16.5 104.7 16.5 C 104.6 15.3 104.1 14.4 103.4 13.7 C 102.6 12.9 101.7 12.6 100.5 12.6 C 99.5 12.6 98.6 12.9 97.8 13.4 C 97.1 13.9 96.5 14.7 96.1 15.8 C 95.7 16.8 95.5 18.1 95.5 19.5 C 95.5 21 95.7 22.3 96.1 23.4 C 96.5 24.4 97.1 25.2 97.8 25.8 C 98.6 26.3 99.5 26.6 100.5 26.6 C 101.2 26.6 101.9 26.4 102.5 26.1 C 103.1 25.8 103.6 25.4 104 24.8 C 104.4 24.2 104.6 23.5 104.7 22.7 C 104.7 22.7 110.9 22.7 110.9 22.7 C 110.8 24.5 110.3 26 109.4 27.4 C 108.5 28.8 107.3 29.8 105.8 30.6 C 104.3 31.3 102.5 31.7 100.4 31.7 Z M 129.7 21.3 C 129.71 21.29 129.7 7.8 129.7 7.8 L 136.2 7.8 L 136.2 31.3 L 130 31.3 L 130 27 C 130 27 129.73 27.01 129.7 27 C 129.2 28.4 128.3 29.5 127.1 30.3 C 125.9 31.2 124.4 31.6 122.6 31.6 C 121 31.6 119.7 31.2 118.5 30.5 C 117.3 29.8 116.4 28.8 115.7 27.5 C 115 26.2 114.7 24.6 114.7 22.8 C 114.67 22.75 114.7 7.8 114.7 7.8 L 121.2 7.8 C 121.2 7.8 121.18 21.59 121.2 21.6 C 121.2 23 121.6 24.1 122.3 24.9 C 123 25.7 124 26.1 125.2 26.1 C 126 26.1 126.8 25.9 127.4 25.5 C 128.1 25.2 128.7 24.6 129.1 23.9 C 129.5 23.2 129.7 22.3 129.7 21.3 Z M 147.8 0 L 147.8 31.3 L 141.3 31.3 L 141.3 0 L 147.8 0 Z M 165.2 7.8 L 165.2 12.7 L 151.1 12.7 L 151.1 7.8 L 165.2 7.8 Z M 154.3 2.2 L 160.8 2.2 C 160.8 2.2 160.8 24.07 160.8 24.1 C 160.8 24.7 160.9 25.1 161.1 25.5 C 161.3 25.8 161.5 26 161.8 26.2 C 162.2 26.3 162.6 26.4 163 26.4 C 163.3 26.4 163.6 26.3 163.9 26.3 C 164.2 26.2 164.5 26.2 164.6 26.1 C 164.6 26.1 165.6 31 165.6 31 C 165.3 31.1 164.9 31.2 164.3 31.3 C 163.7 31.5 163 31.6 162.1 31.6 C 160.5 31.7 159.2 31.4 158 31 C 156.8 30.5 155.9 29.7 155.3 28.7 C 154.6 27.7 154.3 26.5 154.3 24.9 C 154.3 24.92 154.3 2.2 154.3 2.2 Z M 191.9 7.8 L 191.9 12.7 L 177.8 12.7 L 177.8 7.8 L 191.9 7.8 Z M 181 2.2 L 187.5 2.2 C 187.5 2.2 187.48 24.07 187.5 24.1 C 187.5 24.7 187.6 25.1 187.8 25.5 C 187.9 25.8 188.2 26 188.5 26.2 C 188.9 26.3 189.2 26.4 189.7 26.4 C 190 26.4 190.3 26.3 190.6 26.3 C 190.9 26.2 191.1 26.2 191.3 26.1 C 191.3 26.1 192.3 31 192.3 31 C 192 31.1 191.5 31.2 190.9 31.3 C 190.4 31.5 189.6 31.6 188.8 31.6 C 187.2 31.7 185.9 31.4 184.7 31 C 183.5 30.5 182.6 29.7 181.9 28.7 C 181.3 27.7 181 26.5 181 24.9 C 180.97 24.92 181 2.2 181 2.2 Z M 205.7 31.7 C 203.3 31.7 201.2 31.2 199.5 30.2 C 197.8 29.2 196.5 27.8 195.5 26 C 194.6 24.1 194.1 22 194.1 19.6 C 194.1 17.2 194.6 15.1 195.5 13.3 C 196.5 11.5 197.8 10 199.5 9 C 201.2 8 203.3 7.5 205.7 7.5 C 208 7.5 210.1 8 211.8 9 C 213.5 10 214.9 11.5 215.8 13.3 C 216.7 15.1 217.2 17.2 217.2 19.6 C 217.2 22 216.7 24.1 215.8 26 C 214.9 27.8 213.5 29.2 211.8 30.2 C 210.1 31.2 208 31.7 205.7 31.7 Z M 205.7 26.7 C 206.8 26.7 207.7 26.4 208.4 25.8 C 209.1 25.2 209.7 24.3 210 23.2 C 210.4 22.2 210.6 21 210.6 19.6 C 210.6 18.2 210.4 17 210 15.9 C 209.7 14.9 209.1 14 208.4 13.4 C 207.7 12.8 206.8 12.5 205.7 12.5 C 204.6 12.5 203.7 12.8 203 13.4 C 202.2 14 201.7 14.9 201.3 15.9 C 200.9 17 200.7 18.2 200.7 19.6 C 200.7 21 200.9 22.2 201.3 23.2 C 201.7 24.3 202.2 25.2 203 25.8 C 203.7 26.4 204.6 26.7 205.7 26.7 Z M 246.5 21.3 C 246.47 21.29 246.5 7.8 246.5 7.8 L 253 7.8 L 253 31.3 L 246.7 31.3 L 246.7 27 C 246.7 27 246.49 27.01 246.5 27 C 246 28.4 245.1 29.5 243.9 30.3 C 242.6 31.2 241.1 31.6 239.4 31.6 C 237.8 31.6 236.4 31.2 235.2 30.5 C 234 29.8 233.1 28.8 232.4 27.5 C 231.8 26.2 231.4 24.6 231.4 22.8 C 231.43 22.75 231.4 7.8 231.4 7.8 L 237.9 7.8 C 237.9 7.8 237.93 21.59 237.9 21.6 C 237.9 23 238.3 24.1 239 24.9 C 239.8 25.7 240.8 26.1 242 26.1 C 242.8 26.1 243.5 25.9 244.2 25.5 C 244.9 25.2 245.4 24.6 245.9 23.9 C 246.3 23.2 246.5 22.3 246.5 21.3 Z M 277.4 14.5 C 277.4 14.5 271.4 14.9 271.4 14.9 C 271.3 14.4 271.1 13.9 270.8 13.5 C 270.4 13.1 270 12.7 269.5 12.5 C 268.9 12.2 268.3 12.1 267.5 12.1 C 266.5 12.1 265.7 12.3 265 12.8 C 264.3 13.2 263.9 13.7 263.9 14.4 C 263.9 15 264.1 15.5 264.6 15.9 C 265 16.3 265.8 16.6 266.9 16.8 C 266.9 16.8 271.1 17.7 271.1 17.7 C 273.4 18.1 275.1 18.9 276.2 19.9 C 277.4 21 277.9 22.3 277.9 24 C 277.9 25.5 277.5 26.9 276.6 28.1 C 275.7 29.2 274.4 30.1 272.9 30.8 C 271.3 31.4 269.5 31.7 267.5 31.7 C 264.4 31.7 261.9 31.1 260.1 29.8 C 258.2 28.5 257.2 26.7 256.8 24.5 C 256.8 24.5 263.2 24.1 263.2 24.1 C 263.4 25.1 263.9 25.8 264.6 26.3 C 265.4 26.8 266.3 27 267.5 27 C 268.6 27 269.6 26.8 270.3 26.4 C 271 25.9 271.3 25.4 271.3 24.7 C 271.3 24.1 271.1 23.6 270.6 23.2 C 270.1 22.8 269.3 22.5 268.3 22.3 C 268.3 22.3 264.2 21.5 264.2 21.5 C 262 21.1 260.3 20.3 259.1 19.1 C 258 18 257.5 16.6 257.5 14.8 C 257.5 13.3 257.9 12 258.7 10.9 C 259.5 9.8 260.7 9 262.2 8.4 C 263.7 7.8 265.4 7.5 267.4 7.5 C 270.4 7.5 272.7 8.1 274.4 9.4 C 276.1 10.6 277.1 12.3 277.4 14.5 Z M 292.3 31.7 C 289.9 31.7 287.8 31.2 286.1 30.3 C 284.3 29.3 283 27.9 282 26.1 C 281.1 24.3 280.6 22.1 280.6 19.7 C 280.6 17.2 281.1 15.1 282 13.3 C 283 11.5 284.3 10.1 286 9 C 287.7 8 289.7 7.5 292 7.5 C 293.6 7.5 295 7.8 296.3 8.3 C 297.7 8.7 298.9 9.5 299.9 10.5 C 300.9 11.5 301.6 12.7 302.2 14.2 C 302.8 15.7 303 17.4 303 19.4 C 303.04 19.42 303 21.2 303 21.2 L 283.2 21.2 L 283.2 17.2 C 283.2 17.2 296.91 17.18 296.9 17.2 C 296.9 16.2 296.7 15.4 296.3 14.7 C 295.9 14 295.3 13.4 294.6 13 C 293.9 12.6 293.1 12.4 292.1 12.4 C 291.1 12.4 290.3 12.6 289.5 13 C 288.7 13.5 288.1 14.1 287.7 14.9 C 287.3 15.6 287.1 16.5 287.1 17.4 C 287.1 17.4 287.1 21.2 287.1 21.2 C 287.1 22.4 287.3 23.4 287.7 24.2 C 288.1 25.1 288.8 25.7 289.6 26.2 C 290.3 26.6 291.3 26.9 292.4 26.9 C 293.1 26.9 293.8 26.8 294.4 26.6 C 295 26.4 295.5 26.1 295.9 25.7 C 296.3 25.2 296.7 24.7 296.9 24.2 C 296.9 24.2 302.9 24.6 302.9 24.6 C 302.6 26 302 27.3 301 28.3 C 300.1 29.4 298.9 30.2 297.4 30.8 C 295.9 31.4 294.2 31.7 292.3 31.7 Z " stroke="none" fill="#10283d"/>  </g>  <g id="Polygon113369">    <path d="M 316.2 29.8 L 326.9 18.8 L 316.2 7.8 " style="stroke-width:3pt; stroke:#ff4f00;" fill="none"/>  </g></svg>