<?xml version="1.0" standalone="no"?><!DOCTYPE svg PUBLIC "-//W3C//DTD SVG 1.1//EN" "http://www.w3.org/Graphics/SVG/1.1/DTD/svg11.dtd"><svg xmlns="http://www.w3.org/2000/svg" version="1.1" width="300px" height="113.7px" viewBox="0 -16 300 113.7" style="top:-16px">  <desc>Discerning real value</desc>  <defs/>  <g id="Polygon125660">    <path d="M 59.5 75.1 L 59.5 53.3 L 65.3 53.3 L 65.3 57.1 C 65.3 57.1 65.55 57.08 65.6 57.1 C 65.9 55.7 66.6 54.7 67.6 54 C 68.5 53.3 69.6 53 70.8 53 C 71.1 53 71.4 53 71.8 53 C 72.1 53.1 72.4 53.1 72.7 53.2 C 72.7 53.2 72.7 58.5 72.7 58.5 C 72.4 58.5 72 58.4 71.5 58.3 C 71 58.2 70.6 58.2 70.1 58.2 C 69.2 58.2 68.5 58.4 67.8 58.8 C 67.1 59.2 66.5 59.7 66.1 60.4 C 65.7 61.1 65.5 61.9 65.5 62.7 C 65.51 62.75 65.5 75.1 65.5 75.1 L 59.5 75.1 Z M 84.9 75.5 C 82.7 75.5 80.8 75.1 79.1 74.1 C 77.5 73.2 76.3 71.9 75.4 70.3 C 74.5 68.6 74.1 66.6 74.1 64.3 C 74.1 62 74.5 60.1 75.4 58.4 C 76.3 56.7 77.5 55.4 79.1 54.4 C 80.7 53.5 82.5 53 84.7 53 C 86.1 53 87.5 53.2 88.7 53.7 C 90 54.1 91 54.8 92 55.7 C 92.9 56.7 93.6 57.8 94.2 59.2 C 94.7 60.6 94.9 62.2 94.9 64.1 C 94.94 64.07 94.9 65.7 94.9 65.7 L 76.5 65.7 L 76.5 62 C 76.5 62 89.25 61.98 89.2 62 C 89.2 61.1 89.1 60.3 88.7 59.7 C 88.3 59 87.8 58.5 87.1 58.1 C 86.4 57.7 85.7 57.5 84.8 57.5 C 83.9 57.5 83.1 57.7 82.4 58.1 C 81.6 58.6 81.1 59.1 80.7 59.8 C 80.3 60.5 80.1 61.3 80.1 62.2 C 80.1 62.2 80.1 65.7 80.1 65.7 C 80.1 66.8 80.3 67.8 80.7 68.5 C 81.1 69.3 81.7 69.9 82.4 70.4 C 83.1 70.8 84 71 85 71 C 85.7 71 86.3 70.9 86.9 70.7 C 87.4 70.5 87.9 70.2 88.3 69.9 C 88.7 69.5 89 69 89.2 68.5 C 89.2 68.5 94.8 68.8 94.8 68.8 C 94.5 70.2 94 71.4 93.1 72.4 C 92.2 73.4 91.1 74.1 89.7 74.7 C 88.3 75.2 86.7 75.5 84.9 75.5 Z M 104.5 75.5 C 103.1 75.5 101.9 75.3 100.8 74.8 C 99.7 74.3 98.9 73.6 98.2 72.6 C 97.6 71.6 97.3 70.4 97.3 69 C 97.3 67.8 97.5 66.8 98 65.9 C 98.4 65.1 99 64.5 99.8 64 C 100.5 63.5 101.4 63.1 102.4 62.8 C 103.4 62.6 104.4 62.4 105.5 62.3 C 106.8 62.1 107.8 62 108.6 61.9 C 109.3 61.8 109.9 61.6 110.2 61.4 C 110.6 61.1 110.8 60.8 110.8 60.3 C 110.8 60.3 110.8 60.2 110.8 60.2 C 110.8 59.3 110.5 58.6 109.9 58.1 C 109.4 57.7 108.6 57.4 107.5 57.4 C 106.4 57.4 105.6 57.6 104.9 58.1 C 104.3 58.6 103.9 59.2 103.7 59.9 C 103.7 59.9 98.1 59.5 98.1 59.5 C 98.3 58.1 98.9 57 99.7 56 C 100.6 55.1 101.6 54.3 103 53.8 C 104.3 53.3 105.8 53 107.6 53 C 108.8 53 109.9 53.1 111.1 53.4 C 112.2 53.7 113.2 54.1 114 54.7 C 114.9 55.3 115.6 56.1 116.1 57 C 116.6 58 116.8 59.1 116.8 60.4 C 116.83 60.38 116.8 75.1 116.8 75.1 L 111.1 75.1 L 111.1 72.1 C 111.1 72.1 110.92 72.07 110.9 72.1 C 110.6 72.7 110.1 73.3 109.5 73.9 C 108.9 74.4 108.2 74.8 107.4 75.1 C 106.6 75.4 105.6 75.5 104.5 75.5 Z M 106.3 71.3 C 107.2 71.3 107.9 71.1 108.6 70.8 C 109.3 70.4 109.8 70 110.2 69.4 C 110.6 68.7 110.8 68.1 110.8 67.3 C 110.8 67.3 110.8 65 110.8 65 C 110.6 65.1 110.4 65.2 110 65.3 C 109.7 65.4 109.3 65.5 108.9 65.6 C 108.5 65.7 108.1 65.7 107.7 65.8 C 107.3 65.9 106.9 65.9 106.6 66 C 105.9 66.1 105.3 66.2 104.8 66.5 C 104.2 66.7 103.8 67 103.5 67.4 C 103.2 67.8 103.1 68.2 103.1 68.8 C 103.1 69.6 103.4 70.2 104 70.7 C 104.6 71.1 105.3 71.3 106.3 71.3 Z M 127.2 46 L 127.2 75.1 L 121.2 75.1 L 121.2 46 L 127.2 46 Z M 161.7 53.3 L 154 75.1 L 147.2 75.1 L 139.6 53.3 L 146 53.3 L 150.5 68.9 L 150.7 68.9 L 155.2 53.3 L 161.7 53.3 Z M 169.8 75.5 C 168.4 75.5 167.2 75.3 166.1 74.8 C 165 74.3 164.2 73.6 163.5 72.6 C 162.9 71.6 162.6 70.4 162.6 69 C 162.6 67.8 162.8 66.8 163.2 65.9 C 163.7 65.1 164.3 64.5 165.1 64 C 165.8 63.5 166.7 63.1 167.7 62.8 C 168.7 62.6 169.7 62.4 170.8 62.3 C 172 62.1 173.1 62 173.8 61.9 C 174.6 61.8 175.2 61.6 175.5 61.4 C 175.9 61.1 176.1 60.8 176.1 60.3 C 176.1 60.3 176.1 60.2 176.1 60.2 C 176.1 59.3 175.8 58.6 175.2 58.1 C 174.6 57.7 173.9 57.4 172.8 57.4 C 171.7 57.4 170.9 57.6 170.2 58.1 C 169.6 58.6 169.1 59.2 168.9 59.9 C 168.9 59.9 163.3 59.5 163.3 59.5 C 163.6 58.1 164.2 57 165 56 C 165.9 55.1 166.9 54.3 168.3 53.8 C 169.6 53.3 171.1 53 172.8 53 C 174.1 53 175.2 53.1 176.3 53.4 C 177.4 53.7 178.4 54.1 179.3 54.7 C 180.2 55.3 180.9 56.1 181.4 57 C 181.9 58 182.1 59.1 182.1 60.4 C 182.11 60.38 182.1 75.1 182.1 75.1 L 176.4 75.1 L 176.4 72.1 C 176.4 72.1 176.2 72.07 176.2 72.1 C 175.8 72.7 175.4 73.3 174.8 73.9 C 174.2 74.4 173.5 74.8 172.7 75.1 C 171.9 75.4 170.9 75.5 169.8 75.5 Z M 171.6 71.3 C 172.4 71.3 173.2 71.1 173.9 70.8 C 174.6 70.4 175.1 70 175.5 69.4 C 175.9 68.7 176.1 68.1 176.1 67.3 C 176.1 67.3 176.1 65 176.1 65 C 175.9 65.1 175.7 65.2 175.3 65.3 C 175 65.4 174.6 65.5 174.2 65.6 C 173.8 65.7 173.4 65.7 173 65.8 C 172.6 65.9 172.2 65.9 171.9 66 C 171.2 66.1 170.6 66.2 170 66.5 C 169.5 66.7 169.1 67 168.8 67.4 C 168.5 67.8 168.4 68.2 168.4 68.8 C 168.4 69.6 168.7 70.2 169.3 70.7 C 169.9 71.1 170.6 71.3 171.6 71.3 Z M 192.5 46 L 192.5 75.1 L 186.4 75.1 L 186.4 46 L 192.5 46 Z M 210.9 65.8 C 210.94 65.8 210.9 53.3 210.9 53.3 L 217 53.3 L 217 75.1 L 211.2 75.1 L 211.2 71.1 C 211.2 71.1 210.95 71.13 211 71.1 C 210.5 72.4 209.6 73.4 208.5 74.2 C 207.4 75 206 75.4 204.3 75.4 C 202.9 75.4 201.6 75 200.5 74.4 C 199.4 73.7 198.5 72.8 197.9 71.6 C 197.3 70.3 197 68.9 196.9 67.2 C 196.95 67.16 196.9 53.3 196.9 53.3 L 203 53.3 C 203 53.3 203 66.09 203 66.1 C 203 67.4 203.4 68.4 204 69.1 C 204.7 69.9 205.6 70.3 206.8 70.3 C 207.5 70.3 208.2 70.1 208.8 69.8 C 209.5 69.4 210 68.9 210.4 68.3 C 210.8 67.6 210.9 66.8 210.9 65.8 Z M 231.4 75.5 C 229.2 75.5 227.2 75.1 225.6 74.1 C 224 73.2 222.8 71.9 221.9 70.3 C 221 68.6 220.6 66.6 220.6 64.3 C 220.6 62 221 60.1 221.9 58.4 C 222.8 56.7 224 55.4 225.6 54.4 C 227.2 53.5 229 53 231.2 53 C 232.6 53 233.9 53.2 235.2 53.7 C 236.4 54.1 237.5 54.8 238.5 55.7 C 239.4 56.7 240.1 57.8 240.6 59.2 C 241.2 60.6 241.4 62.2 241.4 64.1 C 241.42 64.07 241.4 65.7 241.4 65.7 L 223 65.7 L 223 62 C 223 62 235.73 61.98 235.7 62 C 235.7 61.1 235.5 60.3 235.2 59.7 C 234.8 59 234.3 58.5 233.6 58.1 C 232.9 57.7 232.1 57.5 231.3 57.5 C 230.3 57.5 229.5 57.7 228.8 58.1 C 228.1 58.6 227.6 59.1 227.2 59.8 C 226.8 60.5 226.6 61.3 226.6 62.2 C 226.6 62.2 226.6 65.7 226.6 65.7 C 226.6 66.8 226.8 67.8 227.2 68.5 C 227.6 69.3 228.1 69.9 228.9 70.4 C 229.6 70.8 230.5 71 231.5 71 C 232.2 71 232.8 70.9 233.4 70.7 C 233.9 70.5 234.4 70.2 234.8 69.9 C 235.2 69.5 235.5 69 235.7 68.5 C 235.7 68.5 241.3 68.8 241.3 68.8 C 241 70.2 240.4 71.4 239.6 72.4 C 238.7 73.4 237.6 74.1 236.2 74.7 C 234.8 75.2 233.2 75.5 231.4 75.5 Z " stroke="none" fill="#10283d"/>  </g>  <g id="Polygon125659">    <path d="M 58.7 29.1 C 58.73 29.09 48.4 29.1 48.4 29.1 L 48.4 0 C 48.4 0 58.81 0 58.8 0 C 61.7 0 64.3 0.6 66.4 1.7 C 68.5 2.9 70.1 4.6 71.2 6.7 C 72.4 8.9 73 11.5 73 14.5 C 73 17.5 72.4 20.2 71.2 22.3 C 70.1 24.5 68.5 26.2 66.3 27.3 C 64.2 28.5 61.7 29.1 58.7 29.1 Z M 54.6 23.8 C 54.6 23.8 58.47 23.82 58.5 23.8 C 60.3 23.8 61.8 23.5 63.1 22.8 C 64.3 22.2 65.3 21.2 65.9 19.8 C 66.5 18.5 66.8 16.7 66.8 14.5 C 66.8 12.4 66.5 10.6 65.9 9.2 C 65.3 7.9 64.3 6.9 63.1 6.2 C 61.8 5.6 60.3 5.3 58.5 5.3 C 58.49 5.27 54.6 5.3 54.6 5.3 L 54.6 23.8 Z M 77.1 29.1 L 77.1 7.3 L 83.1 7.3 L 83.1 29.1 L 77.1 29.1 Z M 80.1 4.5 C 79.2 4.5 78.4 4.2 77.8 3.6 C 77.2 3 76.8 2.2 76.8 1.4 C 76.8 0.6 77.2 -0.2 77.8 -0.8 C 78.5 -1.4 79.2 -1.7 80.1 -1.7 C 81 -1.7 81.8 -1.4 82.4 -0.8 C 83.1 -0.2 83.4 0.5 83.4 1.4 C 83.4 2.2 83.1 3 82.4 3.6 C 81.8 4.2 81 4.5 80.1 4.5 Z M 105.5 13.5 C 105.5 13.5 100 13.8 100 13.8 C 99.9 13.4 99.7 12.9 99.4 12.5 C 99.1 12.2 98.7 11.9 98.2 11.6 C 97.6 11.4 97 11.3 96.3 11.3 C 95.4 11.3 94.6 11.5 94 11.9 C 93.3 12.3 93 12.8 93 13.4 C 93 14 93.2 14.4 93.6 14.8 C 94 15.1 94.8 15.4 95.8 15.6 C 95.8 15.6 99.7 16.4 99.7 16.4 C 101.8 16.9 103.4 17.6 104.5 18.5 C 105.5 19.5 106 20.8 106 22.3 C 106 23.8 105.6 25 104.8 26.1 C 103.9 27.2 102.8 28 101.3 28.6 C 99.9 29.2 98.2 29.5 96.3 29.5 C 93.4 29.5 91.1 28.9 89.4 27.7 C 87.7 26.5 86.7 24.9 86.4 22.8 C 86.4 22.8 92.4 22.5 92.4 22.5 C 92.5 23.3 93 24 93.7 24.5 C 94.4 24.9 95.2 25.2 96.3 25.2 C 97.4 25.2 98.2 25 98.9 24.5 C 99.5 24.1 99.9 23.6 99.9 22.9 C 99.9 22.4 99.6 21.9 99.2 21.6 C 98.7 21.2 98 21 97.1 20.8 C 97.1 20.8 93.3 20 93.3 20 C 91.2 19.6 89.6 18.8 88.5 17.8 C 87.5 16.7 87 15.4 87 13.8 C 87 12.4 87.4 11.2 88.1 10.2 C 88.9 9.1 90 8.4 91.4 7.8 C 92.7 7.3 94.4 7 96.2 7 C 99 7 101.2 7.6 102.8 8.7 C 104.3 9.9 105.3 11.5 105.5 13.5 Z M 119.2 29.5 C 116.9 29.5 115 29 113.4 28.1 C 111.8 27.1 110.6 25.8 109.7 24.1 C 108.9 22.4 108.4 20.5 108.4 18.3 C 108.4 16 108.9 14.1 109.7 12.4 C 110.6 10.7 111.8 9.4 113.4 8.4 C 115 7.5 116.9 7 119.1 7 C 121 7 122.7 7.3 124.1 8 C 125.6 8.7 126.7 9.7 127.5 10.9 C 128.4 12.2 128.8 13.7 128.9 15.3 C 128.9 15.3 123.2 15.3 123.2 15.3 C 123 14.3 122.6 13.4 121.9 12.7 C 121.2 12 120.3 11.7 119.2 11.7 C 118.3 11.7 117.5 12 116.8 12.5 C 116.1 13 115.5 13.7 115.2 14.7 C 114.8 15.6 114.6 16.8 114.6 18.2 C 114.6 19.6 114.8 20.8 115.1 21.7 C 115.5 22.7 116.1 23.5 116.8 24 C 117.5 24.5 118.3 24.7 119.2 24.7 C 119.9 24.7 120.5 24.6 121.1 24.3 C 121.7 24 122.1 23.6 122.5 23.1 C 122.8 22.5 123.1 21.9 123.2 21.1 C 123.2 21.1 128.9 21.1 128.9 21.1 C 128.8 22.8 128.4 24.2 127.5 25.5 C 126.7 26.8 125.6 27.7 124.2 28.5 C 122.8 29.2 121.1 29.5 119.2 29.5 Z M 142.2 29.5 C 140 29.5 138 29.1 136.4 28.1 C 134.8 27.2 133.6 25.9 132.7 24.3 C 131.8 22.6 131.4 20.6 131.4 18.3 C 131.4 16 131.8 14.1 132.7 12.4 C 133.6 10.7 134.8 9.4 136.4 8.4 C 138 7.5 139.8 7 142 7 C 143.4 7 144.7 7.2 146 7.7 C 147.2 8.1 148.3 8.8 149.3 9.7 C 150.2 10.7 150.9 11.8 151.4 13.2 C 152 14.6 152.2 16.2 152.2 18.1 C 152.22 18.07 152.2 19.7 152.2 19.7 L 133.8 19.7 L 133.8 16 C 133.8 16 146.53 15.98 146.5 16 C 146.5 15.1 146.3 14.3 146 13.7 C 145.6 13 145.1 12.5 144.4 12.1 C 143.7 11.7 142.9 11.5 142.1 11.5 C 141.1 11.5 140.3 11.7 139.6 12.1 C 138.9 12.6 138.4 13.1 138 13.8 C 137.6 14.5 137.4 15.3 137.4 16.2 C 137.4 16.2 137.4 19.7 137.4 19.7 C 137.4 20.8 137.6 21.8 138 22.5 C 138.4 23.3 138.9 23.9 139.7 24.4 C 140.4 24.8 141.3 25 142.3 25 C 143 25 143.6 24.9 144.2 24.7 C 144.7 24.5 145.2 24.2 145.6 23.9 C 146 23.5 146.3 23 146.5 22.5 C 146.5 22.5 152.1 22.8 152.1 22.8 C 151.8 24.2 151.2 25.4 150.4 26.4 C 149.5 27.4 148.4 28.1 147 28.7 C 145.6 29.2 144 29.5 142.2 29.5 Z M 155.8 29.1 L 155.8 7.3 L 161.7 7.3 L 161.7 11.1 C 161.7 11.1 161.93 11.08 161.9 11.1 C 162.3 9.7 163 8.7 163.9 8 C 164.9 7.3 165.9 7 167.2 7 C 167.5 7 167.8 7 168.1 7 C 168.5 7.1 168.8 7.1 169.1 7.2 C 169.1 7.2 169.1 12.5 169.1 12.5 C 168.8 12.5 168.4 12.4 167.9 12.3 C 167.4 12.2 166.9 12.2 166.5 12.2 C 165.6 12.2 164.8 12.4 164.1 12.8 C 163.4 13.2 162.9 13.7 162.5 14.4 C 162.1 15.1 161.9 15.9 161.9 16.7 C 161.88 16.75 161.9 29.1 161.9 29.1 L 155.8 29.1 Z M 177.9 16.5 C 177.91 16.48 177.9 29.1 177.9 29.1 L 171.9 29.1 L 171.9 7.3 L 177.6 7.3 L 177.6 11.1 C 177.6 11.1 177.88 11.12 177.9 11.1 C 178.4 9.9 179.2 8.8 180.3 8.1 C 181.4 7.4 182.8 7 184.4 7 C 186 7 187.3 7.3 188.4 8 C 189.5 8.6 190.4 9.6 191 10.8 C 191.7 12 192 13.5 192 15.2 C 191.97 15.2 192 29.1 192 29.1 L 185.9 29.1 C 185.9 29.1 185.92 16.28 185.9 16.3 C 185.9 14.9 185.6 13.9 184.9 13.1 C 184.2 12.4 183.3 12 182 12 C 181.2 12 180.5 12.2 179.9 12.5 C 179.3 12.9 178.8 13.4 178.4 14.1 C 178.1 14.7 177.9 15.5 177.9 16.5 Z M 196.3 29.1 L 196.3 7.3 L 202.3 7.3 L 202.3 29.1 L 196.3 29.1 Z M 199.3 4.5 C 198.4 4.5 197.6 4.2 197 3.6 C 196.4 3 196 2.2 196 1.4 C 196 0.6 196.4 -0.2 197 -0.8 C 197.7 -1.4 198.4 -1.7 199.3 -1.7 C 200.2 -1.7 201 -1.4 201.6 -0.8 C 202.3 -0.2 202.6 0.5 202.6 1.4 C 202.6 2.2 202.3 3 201.6 3.6 C 201 4.2 200.2 4.5 199.3 4.5 Z M 212.9 16.5 C 212.88 16.48 212.9 29.1 212.9 29.1 L 206.8 29.1 L 206.8 7.3 L 212.6 7.3 L 212.6 11.1 C 212.6 11.1 212.85 11.12 212.9 11.1 C 213.3 9.9 214.1 8.8 215.3 8.1 C 216.4 7.4 217.8 7 219.4 7 C 220.9 7 222.3 7.3 223.4 8 C 224.5 8.6 225.4 9.6 226 10.8 C 226.6 12 226.9 13.5 226.9 15.2 C 226.94 15.2 226.9 29.1 226.9 29.1 L 220.9 29.1 C 220.9 29.1 220.89 16.28 220.9 16.3 C 220.9 14.9 220.6 13.9 219.9 13.1 C 219.2 12.4 218.2 12 217 12 C 216.2 12 215.5 12.2 214.9 12.5 C 214.2 12.9 213.8 13.4 213.4 14.1 C 213.1 14.7 212.9 15.5 212.9 16.5 Z M 241 37.7 C 239.1 37.7 237.4 37.5 236 36.9 C 234.6 36.4 233.5 35.7 232.7 34.7 C 231.8 33.8 231.3 32.8 231.1 31.6 C 231.1 31.6 236.7 30.9 236.7 30.9 C 236.8 31.3 237.1 31.7 237.5 32.1 C 237.8 32.5 238.3 32.8 238.9 33 C 239.5 33.3 240.3 33.4 241.2 33.4 C 242.5 33.4 243.6 33.1 244.4 32.4 C 245.3 31.8 245.7 30.7 245.7 29.2 C 245.72 29.22 245.7 25.2 245.7 25.2 C 245.7 25.2 245.46 25.23 245.5 25.2 C 245.2 25.8 244.8 26.4 244.3 26.9 C 243.7 27.5 243.1 27.9 242.2 28.3 C 241.4 28.6 240.4 28.8 239.2 28.8 C 237.6 28.8 236.1 28.4 234.8 27.6 C 233.4 26.9 232.4 25.7 231.6 24.1 C 230.8 22.5 230.4 20.6 230.4 18.1 C 230.4 15.7 230.8 13.6 231.6 11.9 C 232.4 10.3 233.5 9 234.8 8.2 C 236.2 7.4 237.6 7 239.2 7 C 240.4 7 241.5 7.2 242.3 7.6 C 243.1 8 243.8 8.5 244.3 9.1 C 244.8 9.8 245.2 10.4 245.5 10.9 C 245.46 10.94 245.7 10.9 245.7 10.9 L 245.7 7.3 L 251.7 7.3 C 251.7 7.3 251.7 29.3 251.7 29.3 C 251.7 31.2 251.2 32.7 250.3 34 C 249.4 35.2 248.2 36.2 246.6 36.8 C 245 37.4 243.1 37.7 241 37.7 Z M 241.2 24.2 C 242.1 24.2 243 24 243.6 23.5 C 244.3 23 244.8 22.3 245.2 21.4 C 245.6 20.5 245.7 19.4 245.7 18.1 C 245.7 16.8 245.6 15.7 245.2 14.8 C 244.8 13.8 244.3 13.1 243.6 12.6 C 243 12.1 242.1 11.8 241.2 11.8 C 240.2 11.8 239.3 12.1 238.6 12.6 C 238 13.1 237.4 13.9 237.1 14.8 C 236.7 15.8 236.6 16.9 236.6 18.1 C 236.6 19.4 236.7 20.5 237.1 21.4 C 237.5 22.3 238 23 238.7 23.5 C 239.3 24 240.2 24.2 241.2 24.2 Z " stroke="none" fill="#10283d"/>  </g></svg>