<?xml version="1.0" standalone="no"?><!DOCTYPE svg PUBLIC "-//W3C//DTD SVG 1.1//EN" "http://www.w3.org/Graphics/SVG/1.1/DTD/svg11.dtd"><svg xmlns="http://www.w3.org/2000/svg" version="1.1" width="261px" height="184px" viewBox="0 -5 261 184" style="top:-5px">  <desc>“ AI will provide immediate business value.”</desc>  <defs/>  <g id="Polygon123224">    <path d="M 11.8 99.9 L 11.8 79 L 14.2 79 L 14.2 86.7 C 14.2 86.7 14.4 86.69 14.4 86.7 C 14.6 86.4 14.8 86.1 15.1 85.6 C 15.5 85.2 15.9 84.8 16.5 84.5 C 17.1 84.2 17.9 84 18.9 84 C 20.3 84 21.4 84.3 22.4 85 C 23.4 85.6 24.2 86.6 24.8 87.8 C 25.4 89 25.6 90.4 25.6 92.1 C 25.6 93.8 25.4 95.2 24.8 96.4 C 24.2 97.6 23.4 98.6 22.4 99.2 C 21.4 99.9 20.3 100.2 19 100.2 C 18 100.2 17.2 100.1 16.6 99.7 C 15.9 99.4 15.5 99 15.2 98.6 C 14.8 98.1 14.6 97.8 14.4 97.5 C 14.4 97.49 14.1 97.5 14.1 97.5 L 14.1 99.9 L 11.8 99.9 Z M 14.2 92 C 14.2 93.2 14.3 94.3 14.7 95.2 C 15 96.1 15.5 96.8 16.2 97.3 C 16.9 97.8 17.7 98.1 18.7 98.1 C 19.7 98.1 20.5 97.8 21.2 97.3 C 21.9 96.7 22.4 96 22.7 95.1 C 23.1 94.2 23.2 93.2 23.2 92 C 23.2 90.9 23.1 89.9 22.7 89.1 C 22.4 88.2 21.9 87.5 21.2 86.9 C 20.5 86.4 19.7 86.2 18.7 86.2 C 17.7 86.2 16.8 86.4 16.2 86.9 C 15.5 87.4 15 88.1 14.7 89 C 14.3 89.8 14.2 90.9 14.2 92 Z M 39 93.5 C 39.03 93.48 39 84.2 39 84.2 L 41.4 84.2 L 41.4 99.9 L 39 99.9 L 39 97.2 C 39 97.2 38.87 97.24 38.9 97.2 C 38.5 98 37.9 98.7 37.2 99.3 C 36.4 99.8 35.4 100.1 34.2 100.1 C 33.2 100.1 32.4 99.9 31.6 99.5 C 30.8 99 30.2 98.4 29.8 97.5 C 29.4 96.6 29.1 95.5 29.1 94.2 C 29.13 94.17 29.1 84.2 29.1 84.2 L 31.5 84.2 C 31.5 84.2 31.55 94.01 31.5 94 C 31.5 95.2 31.9 96.1 32.5 96.8 C 33.2 97.4 34 97.8 35 97.8 C 35.6 97.8 36.2 97.6 36.8 97.3 C 37.4 97 38 96.5 38.4 95.9 C 38.8 95.3 39 94.5 39 93.5 Z M 56.7 87.7 C 56.7 87.7 54.5 88.3 54.5 88.3 C 54.4 88 54.2 87.6 53.9 87.3 C 53.6 86.9 53.3 86.6 52.8 86.4 C 52.4 86.2 51.8 86.1 51.1 86.1 C 50.2 86.1 49.4 86.3 48.7 86.7 C 48.1 87.2 47.8 87.7 47.8 88.4 C 47.8 89 48 89.5 48.4 89.8 C 48.8 90.2 49.5 90.5 50.5 90.7 C 50.5 90.7 52.8 91.3 52.8 91.3 C 54.2 91.6 55.2 92.1 55.9 92.8 C 56.6 93.5 57 94.4 57 95.5 C 57 96.4 56.7 97.2 56.2 97.9 C 55.7 98.6 55 99.2 54 99.6 C 53.1 100 52 100.2 50.8 100.2 C 49.2 100.2 47.9 99.9 46.8 99.2 C 45.8 98.5 45.1 97.5 44.9 96.1 C 44.9 96.1 47.1 95.6 47.1 95.6 C 47.4 96.4 47.8 97 48.4 97.5 C 49 97.9 49.8 98.1 50.8 98.1 C 51.9 98.1 52.8 97.9 53.5 97.4 C 54.1 96.9 54.5 96.3 54.5 95.6 C 54.5 95.1 54.3 94.6 53.9 94.3 C 53.5 93.9 52.9 93.6 52.1 93.4 C 52.1 93.4 49.5 92.8 49.5 92.8 C 48.1 92.5 47 92 46.4 91.2 C 45.7 90.5 45.3 89.6 45.3 88.5 C 45.3 87.6 45.6 86.9 46.1 86.2 C 46.6 85.5 47.3 85 48.2 84.6 C 49 84.2 50 84 51.1 84 C 52.7 84 53.9 84.3 54.8 85 C 55.7 85.7 56.3 86.6 56.7 87.7 Z M 60.3 99.9 L 60.3 84.2 L 62.8 84.2 L 62.8 99.9 L 60.3 99.9 Z M 61.6 81.6 C 61.1 81.6 60.7 81.4 60.4 81.1 C 60 80.8 59.8 80.4 59.8 79.9 C 59.8 79.5 60 79.1 60.4 78.8 C 60.7 78.5 61.1 78.3 61.6 78.3 C 62 78.3 62.4 78.5 62.8 78.8 C 63.1 79.1 63.3 79.5 63.3 79.9 C 63.3 80.4 63.1 80.8 62.8 81.1 C 62.4 81.4 62 81.6 61.6 81.6 Z M 69.5 90.5 C 69.46 90.45 69.5 99.9 69.5 99.9 L 67 99.9 L 67 84.2 L 69.4 84.2 L 69.4 86.6 C 69.4 86.6 69.58 86.65 69.6 86.6 C 69.9 85.8 70.5 85.2 71.3 84.7 C 72 84.2 73 84 74.2 84 C 75.2 84 76.2 84.2 77 84.6 C 77.8 85.1 78.4 85.7 78.8 86.6 C 79.3 87.5 79.5 88.6 79.5 89.9 C 79.48 89.92 79.5 99.9 79.5 99.9 L 77.1 99.9 C 77.1 99.9 77.07 90.08 77.1 90.1 C 77.1 88.8 76.7 87.9 76.1 87.2 C 75.5 86.5 74.6 86.2 73.5 86.2 C 72.7 86.2 72 86.3 71.4 86.7 C 70.8 87 70.3 87.5 70 88.1 C 69.6 88.8 69.5 89.5 69.5 90.5 Z M 90.3 100.2 C 88.8 100.2 87.5 99.9 86.4 99.2 C 85.3 98.5 84.4 97.6 83.8 96.4 C 83.3 95.2 83 93.8 83 92.2 C 83 90.6 83.3 89.1 83.8 87.9 C 84.4 86.7 85.3 85.7 86.3 85 C 87.4 84.3 88.6 84 90 84 C 90.9 84 91.7 84.1 92.5 84.4 C 93.3 84.7 94 85.1 94.6 85.7 C 95.3 86.3 95.8 87.1 96.2 88.1 C 96.6 89.1 96.8 90.4 96.8 91.8 C 96.79 91.84 96.8 92.9 96.8 92.9 L 84.7 92.9 L 84.7 90.8 C 84.7 90.8 94.33 90.78 94.3 90.8 C 94.3 89.9 94.2 89.1 93.8 88.4 C 93.5 87.7 93 87.2 92.3 86.8 C 91.7 86.4 90.9 86.2 90 86.2 C 89.1 86.2 88.2 86.4 87.5 86.9 C 86.8 87.3 86.3 88 85.9 88.7 C 85.6 89.5 85.4 90.3 85.4 91.1 C 85.4 91.1 85.4 92.5 85.4 92.5 C 85.4 93.7 85.6 94.7 86 95.5 C 86.4 96.4 87 97 87.7 97.4 C 88.5 97.8 89.3 98.1 90.3 98.1 C 90.9 98.1 91.5 98 92 97.8 C 92.5 97.6 93 97.3 93.3 97 C 93.7 96.6 94 96.2 94.2 95.6 C 94.2 95.6 96.5 96.3 96.5 96.3 C 96.3 97.1 95.9 97.7 95.3 98.3 C 94.7 98.9 94 99.4 93.2 99.7 C 92.3 100.1 91.3 100.2 90.3 100.2 Z M 111.3 87.7 C 111.3 87.7 109.1 88.3 109.1 88.3 C 109 88 108.8 87.6 108.5 87.3 C 108.2 86.9 107.9 86.6 107.4 86.4 C 107 86.2 106.4 86.1 105.7 86.1 C 104.8 86.1 104 86.3 103.3 86.7 C 102.7 87.2 102.4 87.7 102.4 88.4 C 102.4 89 102.6 89.5 103 89.8 C 103.4 90.2 104.1 90.5 105.1 90.7 C 105.1 90.7 107.4 91.3 107.4 91.3 C 108.8 91.6 109.8 92.1 110.5 92.8 C 111.2 93.5 111.6 94.4 111.6 95.5 C 111.6 96.4 111.3 97.2 110.8 97.9 C 110.3 98.6 109.6 99.2 108.6 99.6 C 107.7 100 106.6 100.2 105.4 100.2 C 103.8 100.2 102.5 99.9 101.4 99.2 C 100.4 98.5 99.7 97.5 99.5 96.1 C 99.5 96.1 101.7 95.6 101.7 95.6 C 102 96.4 102.4 97 103 97.5 C 103.6 97.9 104.4 98.1 105.4 98.1 C 106.5 98.1 107.4 97.9 108.1 97.4 C 108.7 96.9 109.1 96.3 109.1 95.6 C 109.1 95.1 108.9 94.6 108.5 94.3 C 108.1 93.9 107.5 93.6 106.7 93.4 C 106.7 93.4 104.1 92.8 104.1 92.8 C 102.7 92.5 101.6 92 101 91.2 C 100.3 90.5 99.9 89.6 99.9 88.5 C 99.9 87.6 100.2 86.9 100.7 86.2 C 101.2 85.5 101.9 85 102.8 84.6 C 103.6 84.2 104.6 84 105.7 84 C 107.3 84 108.5 84.3 109.4 85 C 110.3 85.7 110.9 86.6 111.3 87.7 Z M 126.2 87.7 C 126.2 87.7 124 88.3 124 88.3 C 123.9 88 123.7 87.6 123.4 87.3 C 123.1 86.9 122.8 86.6 122.3 86.4 C 121.9 86.2 121.3 86.1 120.6 86.1 C 119.6 86.1 118.8 86.3 118.2 86.7 C 117.6 87.2 117.2 87.7 117.2 88.4 C 117.2 89 117.5 89.5 117.9 89.8 C 118.3 90.2 119 90.5 119.9 90.7 C 119.9 90.7 122.3 91.3 122.3 91.3 C 123.7 91.6 124.7 92.1 125.4 92.8 C 126.1 93.5 126.4 94.4 126.4 95.5 C 126.4 96.4 126.2 97.2 125.7 97.9 C 125.2 98.6 124.4 99.2 123.5 99.6 C 122.6 100 121.5 100.2 120.3 100.2 C 118.7 100.2 117.4 99.9 116.3 99.2 C 115.3 98.5 114.6 97.5 114.3 96.1 C 114.3 96.1 116.6 95.6 116.6 95.6 C 116.8 96.4 117.3 97 117.9 97.5 C 118.5 97.9 119.3 98.1 120.3 98.1 C 121.4 98.1 122.3 97.9 122.9 97.4 C 123.6 96.9 123.9 96.3 123.9 95.6 C 123.9 95.1 123.8 94.6 123.4 94.3 C 123 93.9 122.4 93.6 121.6 93.4 C 121.6 93.4 119 92.8 119 92.8 C 117.6 92.5 116.5 92 115.8 91.2 C 115.2 90.5 114.8 89.6 114.8 88.5 C 114.8 87.6 115.1 86.9 115.6 86.2 C 116.1 85.5 116.8 85 117.6 84.6 C 118.5 84.2 119.5 84 120.6 84 C 122.1 84 123.4 84.3 124.3 85 C 125.1 85.7 125.8 86.6 126.2 87.7 Z M 151 84.2 L 145.2 99.9 L 142.8 99.9 L 137 84.2 L 139.6 84.2 L 143.9 96.7 L 144.1 96.7 L 148.4 84.2 L 151 84.2 Z M 158.1 100.3 C 157.1 100.3 156.2 100.1 155.4 99.7 C 154.6 99.3 154 98.8 153.5 98.1 C 153 97.3 152.8 96.5 152.8 95.4 C 152.8 94.5 152.9 93.8 153.3 93.2 C 153.7 92.7 154.1 92.2 154.7 91.9 C 155.3 91.6 156 91.4 156.7 91.2 C 157.4 91 158.1 90.9 158.9 90.8 C 159.8 90.7 160.6 90.6 161.2 90.5 C 161.8 90.5 162.2 90.4 162.5 90.2 C 162.8 90 162.9 89.8 162.9 89.4 C 162.9 89.4 162.9 89.3 162.9 89.3 C 162.9 88.3 162.6 87.5 162.1 87 C 161.5 86.4 160.7 86.1 159.6 86.1 C 158.5 86.1 157.5 86.4 156.9 86.9 C 156.2 87.4 155.8 87.9 155.5 88.5 C 155.5 88.5 153.2 87.7 153.2 87.7 C 153.6 86.7 154.2 86 154.9 85.4 C 155.5 84.9 156.3 84.5 157.1 84.3 C 157.9 84.1 158.7 84 159.5 84 C 160 84 160.6 84 161.3 84.2 C 161.9 84.3 162.6 84.5 163.2 84.9 C 163.8 85.3 164.3 85.8 164.7 86.6 C 165.1 87.3 165.3 88.3 165.3 89.6 C 165.33 89.55 165.3 99.9 165.3 99.9 L 162.9 99.9 L 162.9 97.8 C 162.9 97.8 162.79 97.77 162.8 97.8 C 162.6 98.1 162.4 98.5 162 98.9 C 161.6 99.3 161.1 99.6 160.5 99.9 C 159.8 100.1 159 100.3 158.1 100.3 Z M 158.5 98.1 C 159.5 98.1 160.3 97.9 160.9 97.5 C 161.6 97.2 162.1 96.7 162.4 96.1 C 162.7 95.5 162.9 94.9 162.9 94.2 C 162.9 94.2 162.9 92 162.9 92 C 162.8 92.1 162.6 92.2 162.2 92.3 C 161.9 92.4 161.5 92.5 161.1 92.6 C 160.6 92.7 160.2 92.7 159.8 92.8 C 159.3 92.8 159 92.9 158.7 92.9 C 158.1 93 157.5 93.1 157 93.3 C 156.4 93.5 156 93.7 155.7 94.1 C 155.3 94.5 155.2 95 155.2 95.6 C 155.2 96.4 155.5 97 156.1 97.5 C 156.7 97.9 157.5 98.1 158.5 98.1 Z M 172 79 L 172 99.9 L 169.6 99.9 L 169.6 79 L 172 79 Z M 186.2 93.5 C 186.16 93.48 186.2 84.2 186.2 84.2 L 188.6 84.2 L 188.6 99.9 L 186.2 99.9 L 186.2 97.2 C 186.2 97.2 186 97.24 186 97.2 C 185.6 98 185.1 98.7 184.3 99.3 C 183.5 99.8 182.5 100.1 181.3 100.1 C 180.4 100.1 179.5 99.9 178.7 99.5 C 178 99 177.4 98.4 176.9 97.5 C 176.5 96.6 176.3 95.5 176.3 94.2 C 176.26 94.17 176.3 84.2 176.3 84.2 L 178.7 84.2 C 178.7 84.2 178.67 94.01 178.7 94 C 178.7 95.2 179 96.1 179.6 96.8 C 180.3 97.4 181.1 97.8 182.1 97.8 C 182.7 97.8 183.3 97.6 183.9 97.3 C 184.6 97 185.1 96.5 185.5 95.9 C 185.9 95.3 186.2 94.5 186.2 93.5 Z M 199.4 100.2 C 197.9 100.2 196.6 99.9 195.5 99.2 C 194.4 98.5 193.6 97.6 193 96.4 C 192.4 95.2 192.1 93.8 192.1 92.2 C 192.1 90.6 192.4 89.1 193 87.9 C 193.6 86.7 194.4 85.7 195.5 85 C 196.5 84.3 197.8 84 199.2 84 C 200 84 200.8 84.1 201.6 84.4 C 202.4 84.7 203.1 85.1 203.8 85.7 C 204.4 86.3 205 87.1 205.4 88.1 C 205.7 89.1 205.9 90.4 205.9 91.8 C 205.94 91.84 205.9 92.9 205.9 92.9 L 193.8 92.9 L 193.8 90.8 C 193.8 90.8 203.48 90.78 203.5 90.8 C 203.5 89.9 203.3 89.1 203 88.4 C 202.6 87.7 202.1 87.2 201.5 86.8 C 200.8 86.4 200.1 86.2 199.2 86.2 C 198.2 86.2 197.4 86.4 196.7 86.9 C 196 87.3 195.5 88 195.1 88.7 C 194.7 89.5 194.5 90.3 194.5 91.1 C 194.5 91.1 194.5 92.5 194.5 92.5 C 194.5 93.7 194.7 94.7 195.1 95.5 C 195.6 96.4 196.1 97 196.9 97.4 C 197.6 97.8 198.5 98.1 199.4 98.1 C 200.1 98.1 200.6 98 201.2 97.8 C 201.7 97.6 202.1 97.3 202.5 97 C 202.9 96.6 203.2 96.2 203.4 95.6 C 203.4 95.6 205.7 96.3 205.7 96.3 C 205.4 97.1 205 97.7 204.5 98.3 C 203.9 98.9 203.2 99.4 202.3 99.7 C 201.5 100.1 200.5 100.2 199.4 100.2 Z M 210.9 100.1 C 210.4 100.1 210 99.9 209.6 99.5 C 209.3 99.2 209.1 98.7 209.1 98.2 C 209.1 97.7 209.3 97.3 209.6 96.9 C 210 96.6 210.4 96.4 210.9 96.4 C 211.4 96.4 211.9 96.6 212.2 96.9 C 212.6 97.3 212.8 97.7 212.8 98.2 C 212.8 98.6 212.7 98.9 212.5 99.1 C 212.3 99.4 212.1 99.6 211.8 99.8 C 211.6 100 211.3 100.1 210.9 100.1 Z M 217.7 79 C 217.7 79 217.65 80.8 217.7 80.8 C 217.7 81.4 217.6 81.9 217.4 82.6 C 217.2 83.2 216.9 83.8 216.5 84.4 C 216.1 85 215.6 85.5 215.1 86 C 215.1 86 213.8 84.9 213.8 84.9 C 214.2 84.3 214.6 83.6 214.9 83 C 215.2 82.3 215.4 81.6 215.4 80.8 C 215.36 80.84 215.4 79 215.4 79 L 217.7 79 Z M 222.9 79 C 222.9 79 222.89 80.8 222.9 80.8 C 222.9 81.4 222.8 81.9 222.6 82.6 C 222.4 83.2 222.1 83.8 221.7 84.4 C 221.3 85 220.9 85.5 220.3 86 C 220.3 86 219 84.9 219 84.9 C 219.4 84.3 219.8 83.6 220.1 83 C 220.4 82.3 220.6 81.6 220.6 80.8 C 220.6 80.84 220.6 79 220.6 79 L 222.9 79 Z " stroke="none" fill="#ffffff"/>  </g>  <g id="Polygon123223">    <path d="M 11.5 63.9 L 11.5 48.2 L 13.9 48.2 L 13.9 63.9 L 11.5 63.9 Z M 12.7 45.6 C 12.2 45.6 11.8 45.4 11.5 45.1 C 11.1 44.8 11 44.4 11 43.9 C 11 43.5 11.1 43.1 11.5 42.8 C 11.8 42.5 12.2 42.3 12.7 42.3 C 13.1 42.3 13.6 42.5 13.9 42.8 C 14.2 43.1 14.4 43.5 14.4 43.9 C 14.4 44.4 14.2 44.8 13.9 45.1 C 13.6 45.4 13.1 45.6 12.7 45.6 Z M 18.2 63.9 L 18.2 48.2 L 20.5 48.2 L 20.5 50.6 C 20.5 50.6 20.69 50.65 20.7 50.6 C 21 49.8 21.5 49.2 22.3 48.7 C 23 48.2 23.9 48 24.9 48 C 25.9 48 26.8 48.2 27.5 48.7 C 28.2 49.2 28.7 49.8 29.1 50.6 C 29.1 50.6 29.3 50.6 29.3 50.6 C 29.7 49.8 30.3 49.2 31.1 48.7 C 31.9 48.2 32.9 48 34 48 C 35.4 48 36.5 48.4 37.4 49.3 C 38.3 50.2 38.8 51.5 38.8 53.4 C 38.77 53.39 38.8 63.9 38.8 63.9 L 36.4 63.9 C 36.4 63.9 36.36 53.39 36.4 53.4 C 36.4 52.2 36 51.4 35.4 50.9 C 34.8 50.4 34 50.2 33.2 50.2 C 32.1 50.2 31.2 50.5 30.6 51.2 C 30 51.8 29.7 52.7 29.7 53.7 C 29.69 53.67 29.7 63.9 29.7 63.9 L 27.2 63.9 C 27.2 63.9 27.24 53.14 27.2 53.1 C 27.2 52.2 26.9 51.5 26.4 51 C 25.8 50.4 25 50.2 24.1 50.2 C 23.5 50.2 22.9 50.3 22.4 50.7 C 21.8 51 21.4 51.5 21.1 52 C 20.7 52.6 20.6 53.3 20.6 54.1 C 20.57 54.08 20.6 63.9 20.6 63.9 L 18.2 63.9 Z M 43 63.9 L 43 48.2 L 45.4 48.2 L 45.4 50.6 C 45.4 50.6 45.56 50.65 45.6 50.6 C 45.9 49.8 46.4 49.2 47.1 48.7 C 47.9 48.2 48.8 48 49.8 48 C 50.8 48 51.7 48.2 52.4 48.7 C 53.1 49.2 53.6 49.8 54 50.6 C 54 50.6 54.2 50.6 54.2 50.6 C 54.6 49.8 55.2 49.2 56 48.7 C 56.8 48.2 57.7 48 58.9 48 C 60.3 48 61.4 48.4 62.3 49.3 C 63.2 50.2 63.6 51.5 63.6 53.4 C 63.64 53.39 63.6 63.9 63.6 63.9 L 61.2 63.9 C 61.2 63.9 61.23 53.39 61.2 53.4 C 61.2 52.2 60.9 51.4 60.3 50.9 C 59.6 50.4 58.9 50.2 58 50.2 C 56.9 50.2 56.1 50.5 55.5 51.2 C 54.9 51.8 54.6 52.7 54.6 53.7 C 54.56 53.67 54.6 63.9 54.6 63.9 L 52.1 63.9 C 52.1 63.9 52.11 53.14 52.1 53.1 C 52.1 52.2 51.8 51.5 51.2 51 C 50.7 50.4 49.9 50.2 49 50.2 C 48.4 50.2 47.8 50.3 47.2 50.7 C 46.7 51 46.3 51.5 45.9 52 C 45.6 52.6 45.4 53.3 45.4 54.1 C 45.44 54.08 45.4 63.9 45.4 63.9 L 43 63.9 Z M 74.4 64.2 C 72.9 64.2 71.6 63.9 70.5 63.2 C 69.4 62.5 68.6 61.6 68 60.4 C 67.4 59.2 67.1 57.8 67.1 56.2 C 67.1 54.6 67.4 53.1 68 51.9 C 68.6 50.7 69.4 49.7 70.5 49 C 71.5 48.3 72.8 48 74.2 48 C 75 48 75.8 48.1 76.6 48.4 C 77.4 48.7 78.1 49.1 78.8 49.7 C 79.5 50.3 80 51.1 80.4 52.1 C 80.8 53.1 80.9 54.4 80.9 55.8 C 80.95 55.84 80.9 56.9 80.9 56.9 L 68.8 56.9 L 68.8 54.8 C 68.8 54.8 78.5 54.78 78.5 54.8 C 78.5 53.9 78.3 53.1 78 52.4 C 77.6 51.7 77.1 51.2 76.5 50.8 C 75.8 50.4 75.1 50.2 74.2 50.2 C 73.2 50.2 72.4 50.4 71.7 50.9 C 71 51.3 70.5 52 70.1 52.7 C 69.7 53.5 69.5 54.3 69.5 55.1 C 69.5 55.1 69.5 56.5 69.5 56.5 C 69.5 57.7 69.7 58.7 70.2 59.5 C 70.6 60.4 71.1 61 71.9 61.4 C 72.6 61.8 73.5 62.1 74.4 62.1 C 75.1 62.1 75.7 62 76.2 61.8 C 76.7 61.6 77.1 61.3 77.5 61 C 77.9 60.6 78.2 60.2 78.4 59.6 C 78.4 59.6 80.7 60.3 80.7 60.3 C 80.5 61.1 80 61.7 79.5 62.3 C 78.9 62.9 78.2 63.4 77.3 63.7 C 76.5 64.1 75.5 64.2 74.4 64.2 Z M 90.4 64.2 C 89.1 64.2 87.9 63.9 86.9 63.2 C 85.9 62.6 85.1 61.6 84.6 60.4 C 84 59.2 83.7 57.8 83.7 56.1 C 83.7 54.4 84 53 84.6 51.8 C 85.1 50.6 85.9 49.6 86.9 49 C 87.9 48.3 89.1 48 90.4 48 C 91.5 48 92.3 48.2 92.9 48.5 C 93.5 48.8 93.9 49.2 94.2 49.6 C 94.5 50.1 94.8 50.4 95 50.7 C 94.97 50.69 95.2 50.7 95.2 50.7 L 95.2 43 L 97.6 43 L 97.6 63.9 L 95.3 63.9 L 95.3 61.5 C 95.3 61.5 94.97 61.49 95 61.5 C 94.8 61.8 94.5 62.1 94.2 62.6 C 93.9 63 93.4 63.4 92.8 63.7 C 92.2 64.1 91.4 64.2 90.4 64.2 Z M 90.7 62.1 C 91.7 62.1 92.5 61.8 93.2 61.3 C 93.8 60.8 94.3 60.1 94.7 59.2 C 95 58.3 95.2 57.2 95.2 56 C 95.2 54.9 95 53.8 94.7 53 C 94.4 52.1 93.9 51.4 93.2 50.9 C 92.5 50.4 91.7 50.2 90.7 50.2 C 89.7 50.2 88.8 50.4 88.2 50.9 C 87.5 51.5 87 52.2 86.6 53.1 C 86.3 53.9 86.1 54.9 86.1 56 C 86.1 57.2 86.3 58.2 86.7 59.1 C 87 60 87.5 60.7 88.2 61.3 C 88.9 61.8 89.7 62.1 90.7 62.1 Z M 102 63.9 L 102 48.2 L 104.4 48.2 L 104.4 63.9 L 102 63.9 Z M 103.3 45.6 C 102.8 45.6 102.4 45.4 102 45.1 C 101.7 44.8 101.5 44.4 101.5 43.9 C 101.5 43.5 101.7 43.1 102 42.8 C 102.4 42.5 102.8 42.3 103.3 42.3 C 103.7 42.3 104.1 42.5 104.5 42.8 C 104.8 43.1 105 43.5 105 43.9 C 105 44.4 104.8 44.8 104.5 45.1 C 104.1 45.4 103.7 45.6 103.3 45.6 Z M 113.2 64.3 C 112.2 64.3 111.3 64.1 110.5 63.7 C 109.7 63.3 109 62.8 108.5 62.1 C 108.1 61.3 107.8 60.5 107.8 59.4 C 107.8 58.5 108 57.8 108.4 57.2 C 108.7 56.7 109.2 56.2 109.8 55.9 C 110.4 55.6 111 55.4 111.8 55.2 C 112.5 55 113.2 54.9 113.9 54.8 C 114.9 54.7 115.7 54.6 116.3 54.5 C 116.9 54.5 117.3 54.4 117.6 54.2 C 117.8 54 118 53.8 118 53.4 C 118 53.4 118 53.3 118 53.3 C 118 52.3 117.7 51.5 117.2 51 C 116.6 50.4 115.8 50.1 114.7 50.1 C 113.5 50.1 112.6 50.4 112 50.9 C 111.3 51.4 110.8 51.9 110.6 52.5 C 110.6 52.5 108.3 51.7 108.3 51.7 C 108.7 50.7 109.2 50 109.9 49.4 C 110.6 48.9 111.4 48.5 112.2 48.3 C 113 48.1 113.8 48 114.6 48 C 115.1 48 115.7 48 116.3 48.2 C 117 48.3 117.6 48.5 118.2 48.9 C 118.9 49.3 119.4 49.8 119.8 50.6 C 120.2 51.3 120.4 52.3 120.4 53.6 C 120.39 53.55 120.4 63.9 120.4 63.9 L 118 63.9 L 118 61.8 C 118 61.8 117.85 61.77 117.9 61.8 C 117.7 62.1 117.4 62.5 117 62.9 C 116.7 63.3 116.1 63.6 115.5 63.9 C 114.9 64.1 114.1 64.3 113.2 64.3 Z M 113.6 62.1 C 114.5 62.1 115.3 61.9 116 61.5 C 116.6 61.2 117.1 60.7 117.5 60.1 C 117.8 59.5 118 58.9 118 58.2 C 118 58.2 118 56 118 56 C 117.9 56.1 117.7 56.2 117.3 56.3 C 117 56.4 116.6 56.5 116.1 56.6 C 115.7 56.7 115.2 56.7 114.8 56.8 C 114.4 56.8 114.1 56.9 113.8 56.9 C 113.2 57 112.6 57.1 112.1 57.3 C 111.5 57.5 111.1 57.7 110.7 58.1 C 110.4 58.5 110.2 59 110.2 59.6 C 110.2 60.4 110.6 61 111.2 61.5 C 111.8 61.9 112.6 62.1 113.6 62.1 Z M 131.1 48.2 L 131.1 50.2 L 122.9 50.2 L 122.9 48.2 L 131.1 48.2 Z M 125.3 44.4 L 127.7 44.4 C 127.7 44.4 127.74 59.4 127.7 59.4 C 127.7 60.1 127.8 60.6 128 60.9 C 128.2 61.3 128.5 61.5 128.8 61.6 C 129.1 61.7 129.5 61.8 129.8 61.8 C 130.1 61.8 130.3 61.8 130.5 61.7 C 130.6 61.7 130.8 61.7 130.9 61.7 C 130.9 61.7 131.4 63.8 131.4 63.8 C 131.2 63.9 131 63.9 130.7 64 C 130.4 64.1 130 64.1 129.6 64.1 C 128.9 64.1 128.2 64 127.6 63.7 C 126.9 63.4 126.4 62.9 126 62.3 C 125.5 61.7 125.3 61 125.3 60.1 C 125.32 60.05 125.3 44.4 125.3 44.4 Z M 140.4 64.2 C 138.8 64.2 137.5 63.9 136.4 63.2 C 135.3 62.5 134.5 61.6 133.9 60.4 C 133.3 59.2 133 57.8 133 56.2 C 133 54.6 133.3 53.1 133.9 51.9 C 134.5 50.7 135.3 49.7 136.4 49 C 137.5 48.3 138.7 48 140.1 48 C 140.9 48 141.7 48.1 142.5 48.4 C 143.3 48.7 144.1 49.1 144.7 49.7 C 145.4 50.3 145.9 51.1 146.3 52.1 C 146.7 53.1 146.9 54.4 146.9 55.8 C 146.86 55.84 146.9 56.9 146.9 56.9 L 134.8 56.9 L 134.8 54.8 C 134.8 54.8 144.41 54.78 144.4 54.8 C 144.4 53.9 144.2 53.1 143.9 52.4 C 143.5 51.7 143 51.2 142.4 50.8 C 141.7 50.4 141 50.2 140.1 50.2 C 139.1 50.2 138.3 50.4 137.6 50.9 C 136.9 51.3 136.4 52 136 52.7 C 135.6 53.5 135.4 54.3 135.4 55.1 C 135.4 55.1 135.4 56.5 135.4 56.5 C 135.4 57.7 135.7 58.7 136.1 59.5 C 136.5 60.4 137.1 61 137.8 61.4 C 138.5 61.8 139.4 62.1 140.4 62.1 C 141 62.1 141.6 62 142.1 61.8 C 142.6 61.6 143 61.3 143.4 61 C 143.8 60.6 144.1 60.2 144.3 59.6 C 144.3 59.6 146.6 60.3 146.6 60.3 C 146.4 61.1 146 61.7 145.4 62.3 C 144.8 62.9 144.1 63.4 143.2 63.7 C 142.4 64.1 141.4 64.2 140.4 64.2 Z " stroke="none" fill="#ffffff"/>  </g>  <g id="Polygon123222">    <path d="M 1.4 13.5 C 1.4 13.5 1.39 11.66 1.4 11.7 C 1.4 11.1 1.5 10.5 1.7 9.9 C 1.9 9.2 2.2 8.6 2.6 8 C 3 7.5 3.4 6.9 4 6.5 C 4 6.5 5.3 7.6 5.3 7.6 C 4.8 8.2 4.5 8.8 4.2 9.5 C 3.8 10.2 3.7 10.9 3.7 11.6 C 3.68 11.62 3.7 13.5 3.7 13.5 L 1.4 13.5 Z M 6.6 13.5 C 6.6 13.5 6.63 11.66 6.6 11.7 C 6.6 11.1 6.7 10.5 6.9 9.9 C 7.1 9.2 7.4 8.6 7.8 8 C 8.2 7.5 8.7 6.9 9.2 6.5 C 9.2 6.5 10.5 7.6 10.5 7.6 C 10.1 8.2 9.7 8.8 9.4 9.5 C 9.1 10.2 8.9 10.9 8.9 11.6 C 8.92 11.62 8.9 13.5 8.9 13.5 L 6.6 13.5 Z M 12.6 27.9 L 10 27.9 L 17.7 7 L 20.3 7 L 28 27.9 L 25.3 27.9 L 19.1 10.3 L 18.9 10.3 L 12.6 27.9 Z M 13.6 19.7 L 24.3 19.7 L 24.3 22 L 13.6 22 L 13.6 19.7 Z M 33.7 7 L 33.7 27.9 L 31.1 27.9 L 31.1 7 L 33.7 7 Z M 50.1 27.9 L 45.3 12.2 L 47.8 12.2 L 51.2 24.2 L 51.4 24.2 L 54.7 12.2 L 57.3 12.2 L 60.6 24.2 L 60.8 24.2 L 64.2 12.2 L 66.7 12.2 L 61.9 27.9 L 59.6 27.9 L 56.1 15.8 L 55.9 15.8 L 52.5 27.9 L 50.1 27.9 Z M 69.6 27.9 L 69.6 12.2 L 72 12.2 L 72 27.9 L 69.6 27.9 Z M 70.9 9.6 C 70.4 9.6 70 9.4 69.6 9.1 C 69.3 8.8 69.1 8.4 69.1 7.9 C 69.1 7.5 69.3 7.1 69.6 6.8 C 70 6.5 70.4 6.3 70.9 6.3 C 71.3 6.3 71.7 6.5 72.1 6.8 C 72.4 7.1 72.6 7.5 72.6 7.9 C 72.6 8.4 72.4 8.8 72.1 9.1 C 71.7 9.4 71.3 9.6 70.9 9.6 Z M 78.7 7 L 78.7 27.9 L 76.3 27.9 L 76.3 7 L 78.7 7 Z M 85.4 7 L 85.4 27.9 L 83 27.9 L 83 7 L 85.4 7 Z M 97.9 33.8 L 97.9 12.2 L 100.3 12.2 L 100.3 14.7 C 100.3 14.7 100.56 14.69 100.6 14.7 C 100.7 14.4 101 14.1 101.3 13.6 C 101.6 13.2 102.1 12.8 102.7 12.5 C 103.3 12.2 104.1 12 105.1 12 C 106.4 12 107.6 12.3 108.6 13 C 109.6 13.6 110.4 14.6 111 15.8 C 111.5 17 111.8 18.4 111.8 20.1 C 111.8 21.8 111.5 23.2 111 24.4 C 110.4 25.6 109.6 26.6 108.6 27.2 C 107.6 27.9 106.4 28.2 105.1 28.2 C 104.1 28.2 103.3 28.1 102.7 27.7 C 102.1 27.4 101.6 27 101.3 26.6 C 101 26.1 100.7 25.8 100.6 25.5 C 100.56 25.49 100.4 25.5 100.4 25.5 L 100.4 33.8 L 97.9 33.8 Z M 100.3 20 C 100.3 21.2 100.5 22.3 100.8 23.2 C 101.2 24.1 101.7 24.8 102.4 25.3 C 103 25.8 103.8 26.1 104.8 26.1 C 105.8 26.1 106.7 25.8 107.3 25.3 C 108 24.7 108.5 24 108.9 23.1 C 109.2 22.2 109.4 21.2 109.4 20 C 109.4 18.9 109.2 17.9 108.9 17.1 C 108.5 16.2 108 15.5 107.4 14.9 C 106.7 14.4 105.8 14.2 104.8 14.2 C 103.8 14.2 103 14.4 102.3 14.9 C 101.7 15.4 101.2 16.1 100.8 17 C 100.5 17.8 100.3 18.9 100.3 20 Z M 115.4 27.9 L 115.4 12.2 L 117.7 12.2 L 117.7 14.6 C 117.7 14.6 117.85 14.56 117.8 14.6 C 118.1 13.8 118.7 13.2 119.4 12.7 C 120.2 12.2 121 11.9 121.9 11.9 C 122.1 11.9 122.3 11.9 122.6 12 C 122.9 12 123.1 12 123.2 12 C 123.2 12 123.2 14.4 123.2 14.4 C 123.1 14.4 122.9 14.4 122.6 14.3 C 122.4 14.3 122.1 14.3 121.7 14.3 C 121 14.3 120.3 14.4 119.7 14.8 C 119.1 15.1 118.6 15.5 118.3 16.1 C 117.9 16.6 117.8 17.3 117.8 18 C 117.76 17.96 117.8 27.9 117.8 27.9 L 115.4 27.9 Z M 132 28.2 C 130.6 28.2 129.3 27.9 128.2 27.2 C 127.2 26.5 126.3 25.6 125.7 24.4 C 125.1 23.2 124.9 21.8 124.9 20.1 C 124.9 18.5 125.1 17.1 125.7 15.8 C 126.3 14.6 127.2 13.7 128.2 13 C 129.3 12.3 130.6 12 132 12 C 133.4 12 134.6 12.3 135.7 13 C 136.8 13.7 137.6 14.6 138.2 15.8 C 138.8 17.1 139.1 18.5 139.1 20.1 C 139.1 21.8 138.8 23.2 138.2 24.4 C 137.6 25.6 136.8 26.5 135.7 27.2 C 134.6 27.9 133.4 28.2 132 28.2 Z M 132 26.1 C 133 26.1 133.9 25.8 134.6 25.2 C 135.3 24.7 135.8 24 136.2 23.1 C 136.5 22.2 136.7 21.2 136.7 20.1 C 136.7 19.1 136.5 18.1 136.2 17.2 C 135.8 16.3 135.3 15.6 134.6 15 C 133.9 14.4 133 14.2 132 14.2 C 130.9 14.2 130 14.4 129.3 15 C 128.6 15.6 128.1 16.3 127.8 17.2 C 127.4 18.1 127.3 19.1 127.3 20.1 C 127.3 21.2 127.4 22.2 127.8 23.1 C 128.1 24 128.6 24.7 129.3 25.2 C 130 25.8 130.9 26.1 132 26.1 Z M 154.7 12.2 L 148.9 27.9 L 146.4 27.9 L 140.6 12.2 L 143.2 12.2 L 147.6 24.7 L 147.7 24.7 L 152.1 12.2 L 154.7 12.2 Z M 157.6 27.9 L 157.6 12.2 L 160 12.2 L 160 27.9 L 157.6 27.9 Z M 158.8 9.6 C 158.3 9.6 157.9 9.4 157.6 9.1 C 157.2 8.8 157.1 8.4 157.1 7.9 C 157.1 7.5 157.2 7.1 157.6 6.8 C 157.9 6.5 158.3 6.3 158.8 6.3 C 159.3 6.3 159.7 6.5 160 6.8 C 160.3 7.1 160.5 7.5 160.5 7.9 C 160.5 8.4 160.3 8.8 160 9.1 C 159.7 9.4 159.3 9.6 158.8 9.6 Z M 170.1 28.2 C 168.8 28.2 167.6 27.9 166.6 27.2 C 165.6 26.6 164.9 25.6 164.3 24.4 C 163.7 23.2 163.4 21.8 163.4 20.1 C 163.4 18.4 163.7 17 164.3 15.8 C 164.9 14.6 165.6 13.6 166.6 13 C 167.7 12.3 168.8 12 170.1 12 C 171.2 12 172 12.2 172.6 12.5 C 173.2 12.8 173.6 13.2 173.9 13.6 C 174.3 14.1 174.5 14.4 174.7 14.7 C 174.69 14.69 174.9 14.7 174.9 14.7 L 174.9 7 L 177.3 7 L 177.3 27.9 L 175 27.9 L 175 25.5 C 175 25.5 174.69 25.49 174.7 25.5 C 174.5 25.8 174.3 26.1 173.9 26.6 C 173.6 27 173.1 27.4 172.5 27.7 C 171.9 28.1 171.1 28.2 170.1 28.2 Z M 170.4 26.1 C 171.4 26.1 172.2 25.8 172.9 25.3 C 173.6 24.8 174.1 24.1 174.4 23.2 C 174.8 22.3 174.9 21.2 174.9 20 C 174.9 18.9 174.8 17.8 174.4 17 C 174.1 16.1 173.6 15.4 172.9 14.9 C 172.2 14.4 171.4 14.2 170.4 14.2 C 169.4 14.2 168.6 14.4 167.9 14.9 C 167.2 15.5 166.7 16.2 166.4 17.1 C 166 17.9 165.9 18.9 165.9 20 C 165.9 21.2 166 22.2 166.4 23.1 C 166.7 24 167.2 24.7 167.9 25.3 C 168.6 25.8 169.4 26.1 170.4 26.1 Z M 188.3 28.2 C 186.8 28.2 185.5 27.9 184.4 27.2 C 183.3 26.5 182.5 25.6 181.9 24.4 C 181.3 23.2 181 21.8 181 20.2 C 181 18.6 181.3 17.1 181.9 15.9 C 182.5 14.7 183.3 13.7 184.4 13 C 185.4 12.3 186.7 12 188.1 12 C 188.9 12 189.7 12.1 190.5 12.4 C 191.3 12.7 192 13.1 192.7 13.7 C 193.3 14.3 193.8 15.1 194.2 16.1 C 194.6 17.1 194.8 18.4 194.8 19.8 C 194.82 19.84 194.8 20.9 194.8 20.9 L 182.7 20.9 L 182.7 18.8 C 182.7 18.8 192.36 18.78 192.4 18.8 C 192.4 17.9 192.2 17.1 191.8 16.4 C 191.5 15.7 191 15.2 190.3 14.8 C 189.7 14.4 188.9 14.2 188.1 14.2 C 187.1 14.2 186.3 14.4 185.6 14.9 C 184.9 15.3 184.3 16 184 16.7 C 183.6 17.5 183.4 18.3 183.4 19.1 C 183.4 19.1 183.4 20.5 183.4 20.5 C 183.4 21.7 183.6 22.7 184 23.5 C 184.4 24.4 185 25 185.7 25.4 C 186.5 25.8 187.3 26.1 188.3 26.1 C 188.9 26.1 189.5 26 190 25.8 C 190.6 25.6 191 25.3 191.4 25 C 191.7 24.6 192 24.2 192.2 23.6 C 192.2 23.6 194.6 24.3 194.6 24.3 C 194.3 25.1 193.9 25.7 193.3 26.3 C 192.8 26.9 192 27.4 191.2 27.7 C 190.3 28.1 189.4 28.2 188.3 28.2 Z " stroke="none" fill="#ffffff"/>  </g></svg>