<?xml version="1.0" standalone="no"?><!DOCTYPE svg PUBLIC "-//W3C//DTD SVG 1.1//EN" "http://www.w3.org/Graphics/SVG/1.1/DTD/svg11.dtd"><svg xmlns="http://www.w3.org/2000/svg" version="1.1" width="413.5px" height="87.2px" viewBox="0 -12 413.5 87.2" style="top:-12px">  <desc>Be the next. With Anaplan Intelligence.</desc>  <defs/>  <g id="Polygon105564">    <path d="M 6.8 57.8 L 0.6 36 L 5.6 36 L 9.2 51.2 L 9.4 51.2 L 13.4 36 L 17.7 36 L 21.7 51.2 L 21.9 51.2 L 25.5 36 L 30.5 36 L 24.3 57.8 L 19.8 57.8 L 15.6 43.6 L 15.4 43.6 L 11.3 57.8 L 6.8 57.8 Z M 32.9 57.8 L 32.9 41.5 L 37.5 41.5 L 37.5 57.8 L 32.9 57.8 Z M 35.2 39.3 C 34.5 39.3 34 39.1 33.5 38.7 C 33 38.2 32.8 37.7 32.8 37.1 C 32.8 36.4 33 35.9 33.5 35.4 C 34 35 34.5 34.8 35.2 34.8 C 35.9 34.8 36.5 35 36.9 35.4 C 37.4 35.9 37.7 36.4 37.7 37 C 37.7 37.7 37.4 38.2 36.9 38.7 C 36.5 39.1 35.9 39.3 35.2 39.3 Z M 49.5 41.5 L 49.5 44.9 L 39.7 44.9 L 39.7 41.5 L 49.5 41.5 Z M 41.9 37.5 L 46.5 37.5 C 46.5 37.5 46.47 52.79 46.5 52.8 C 46.5 53.2 46.5 53.5 46.7 53.8 C 46.8 54 47 54.2 47.2 54.2 C 47.4 54.3 47.7 54.4 48 54.4 C 48.2 54.4 48.4 54.4 48.6 54.3 C 48.9 54.3 49 54.3 49.1 54.2 C 49.1 54.2 49.8 57.6 49.8 57.6 C 49.6 57.7 49.3 57.8 48.9 57.9 C 48.5 58 48 58 47.4 58 C 46.3 58.1 45.3 57.9 44.5 57.6 C 43.7 57.3 43.1 56.8 42.6 56 C 42.1 55.3 41.9 54.5 41.9 53.4 C 41.93 53.39 41.9 37.5 41.9 37.5 Z M 56.9 48.4 C 56.9 48.36 56.9 57.8 56.9 57.8 L 52.4 57.8 L 52.4 36 L 56.8 36 L 56.8 44.3 C 56.8 44.3 56.96 44.34 57 44.3 C 57.3 43.4 57.9 42.6 58.8 42.1 C 59.6 41.5 60.6 41.2 61.9 41.2 C 63 41.2 64 41.5 64.8 42 C 65.7 42.5 66.3 43.2 66.8 44.1 C 67.3 45 67.5 46.1 67.5 47.4 C 67.51 47.4 67.5 57.8 67.5 57.8 L 63 57.8 C 63 57.8 62.97 48.21 63 48.2 C 63 47.2 62.7 46.4 62.2 45.9 C 61.7 45.3 61 45 60.1 45 C 59.4 45 58.9 45.1 58.4 45.4 C 57.9 45.7 57.6 46.1 57.3 46.6 C 57 47.1 56.9 47.7 56.9 48.4 Z M 81.9 57.8 L 76.9 57.8 L 84.5 36 L 90.4 36 L 97.9 57.8 L 93 57.8 L 87.5 41 L 87.4 41 L 81.9 57.8 Z M 81.6 49.2 L 93.3 49.2 L 93.3 52.8 L 81.6 52.8 L 81.6 49.2 Z M 104.9 48.4 C 104.9 48.36 104.9 57.8 104.9 57.8 L 100.4 57.8 L 100.4 41.5 L 104.7 41.5 L 104.7 44.3 C 104.7 44.3 104.88 44.34 104.9 44.3 C 105.2 43.4 105.9 42.6 106.7 42.1 C 107.6 41.5 108.6 41.2 109.8 41.2 C 110.9 41.2 111.9 41.5 112.8 42 C 113.6 42.5 114.3 43.2 114.7 44.1 C 115.2 45 115.4 46.1 115.4 47.4 C 115.45 47.4 115.4 57.8 115.4 57.8 L 110.9 57.8 C 110.9 57.8 110.91 48.21 110.9 48.2 C 110.9 47.2 110.7 46.4 110.1 45.9 C 109.6 45.3 108.9 45 108 45 C 107.4 45 106.9 45.1 106.4 45.4 C 105.9 45.7 105.6 46.1 105.3 46.6 C 105 47.1 104.9 47.7 104.9 48.4 Z M 123.6 58.1 C 122.6 58.1 121.6 57.9 120.8 57.6 C 120 57.2 119.3 56.7 118.9 55.9 C 118.4 55.2 118.2 54.3 118.2 53.2 C 118.2 52.3 118.3 51.6 118.7 51 C 119 50.3 119.5 49.8 120 49.5 C 120.6 49.1 121.3 48.8 122 48.6 C 122.7 48.4 123.5 48.3 124.3 48.2 C 125.3 48.1 126 48 126.6 47.9 C 127.2 47.8 127.6 47.7 127.9 47.5 C 128.1 47.3 128.3 47.1 128.3 46.7 C 128.3 46.7 128.3 46.7 128.3 46.7 C 128.3 46 128.1 45.5 127.6 45.1 C 127.2 44.7 126.6 44.6 125.8 44.6 C 125 44.6 124.4 44.7 123.9 45.1 C 123.4 45.5 123.1 45.9 122.9 46.4 C 122.9 46.4 118.7 46.1 118.7 46.1 C 119 45.1 119.4 44.2 120 43.5 C 120.6 42.8 121.4 42.2 122.4 41.8 C 123.4 41.4 124.6 41.2 125.9 41.2 C 126.8 41.2 127.6 41.3 128.5 41.6 C 129.3 41.8 130.1 42.1 130.7 42.6 C 131.4 43 131.9 43.6 132.3 44.3 C 132.6 45 132.8 45.8 132.8 46.8 C 132.81 46.78 132.8 57.8 132.8 57.8 L 128.5 57.8 L 128.5 55.5 C 128.5 55.5 128.38 55.55 128.4 55.5 C 128.1 56.1 127.8 56.5 127.3 56.9 C 126.9 57.3 126.4 57.6 125.7 57.8 C 125.1 58 124.4 58.1 123.6 58.1 Z M 124.9 55 C 125.6 55 126.2 54.9 126.7 54.6 C 127.2 54.3 127.6 54 127.9 53.5 C 128.2 53.1 128.3 52.5 128.3 52 C 128.3 52 128.3 50.2 128.3 50.2 C 128.2 50.3 128 50.4 127.7 50.5 C 127.5 50.6 127.2 50.6 126.9 50.7 C 126.6 50.7 126.3 50.8 126 50.8 C 125.7 50.9 125.4 50.9 125.2 51 C 124.6 51 124.2 51.2 123.8 51.3 C 123.4 51.5 123.1 51.7 122.8 52 C 122.6 52.3 122.5 52.7 122.5 53.1 C 122.5 53.7 122.7 54.2 123.2 54.5 C 123.6 54.8 124.2 55 124.9 55 Z M 136.4 64 L 136.4 41.5 L 140.9 41.5 L 140.9 44.2 C 140.9 44.2 141.09 44.2 141.1 44.2 C 141.3 43.8 141.6 43.3 142 42.9 C 142.3 42.4 142.8 42 143.4 41.7 C 144.1 41.4 144.8 41.2 145.7 41.2 C 146.9 41.2 148 41.6 149 42.2 C 150.1 42.8 150.9 43.7 151.5 45 C 152.1 46.2 152.4 47.8 152.4 49.7 C 152.4 51.5 152.1 53 151.5 54.3 C 150.9 55.5 150.1 56.5 149.1 57.1 C 148.1 57.8 147 58.1 145.7 58.1 C 144.9 58.1 144.1 57.9 143.5 57.6 C 142.9 57.4 142.4 57 142 56.5 C 141.6 56.1 141.3 55.7 141.1 55.2 C 141.09 55.2 140.9 55.2 140.9 55.2 L 140.9 64 L 136.4 64 Z M 140.9 49.6 C 140.9 50.6 141 51.5 141.3 52.2 C 141.5 52.9 141.9 53.5 142.4 53.9 C 142.9 54.3 143.6 54.5 144.3 54.5 C 145 54.5 145.7 54.3 146.2 53.9 C 146.7 53.5 147.1 52.9 147.3 52.2 C 147.6 51.4 147.7 50.6 147.7 49.6 C 147.7 48.7 147.6 47.9 147.3 47.1 C 147.1 46.4 146.7 45.9 146.2 45.5 C 145.7 45.1 145 44.9 144.3 44.9 C 143.6 44.9 142.9 45 142.4 45.4 C 141.9 45.8 141.5 46.4 141.3 47.1 C 141 47.8 140.9 48.7 140.9 49.6 Z M 160 36 L 160 57.8 L 155.4 57.8 L 155.4 36 L 160 36 Z M 168.2 58.1 C 167.2 58.1 166.2 57.9 165.4 57.6 C 164.6 57.2 164 56.7 163.5 55.9 C 163 55.2 162.8 54.3 162.8 53.2 C 162.8 52.3 163 51.6 163.3 51 C 163.6 50.3 164.1 49.8 164.7 49.5 C 165.2 49.1 165.9 48.8 166.6 48.6 C 167.4 48.4 168.1 48.3 168.9 48.2 C 169.9 48.1 170.7 48 171.2 47.9 C 171.8 47.8 172.2 47.7 172.5 47.5 C 172.8 47.3 172.9 47.1 172.9 46.7 C 172.9 46.7 172.9 46.7 172.9 46.7 C 172.9 46 172.7 45.5 172.3 45.1 C 171.8 44.7 171.2 44.6 170.5 44.6 C 169.7 44.6 169 44.7 168.5 45.1 C 168 45.5 167.7 45.9 167.6 46.4 C 167.6 46.4 163.4 46.1 163.4 46.1 C 163.6 45.1 164 44.2 164.6 43.5 C 165.2 42.8 166.1 42.2 167 41.8 C 168 41.4 169.2 41.2 170.5 41.2 C 171.4 41.2 172.3 41.3 173.1 41.6 C 173.9 41.8 174.7 42.1 175.3 42.6 C 176 43 176.5 43.6 176.9 44.3 C 177.2 45 177.4 45.8 177.4 46.8 C 177.44 46.78 177.4 57.8 177.4 57.8 L 173.1 57.8 L 173.1 55.5 C 173.1 55.5 173 55.55 173 55.5 C 172.7 56.1 172.4 56.5 172 56.9 C 171.5 57.3 171 57.6 170.4 57.8 C 169.7 58 169 58.1 168.2 58.1 Z M 169.5 55 C 170.2 55 170.8 54.9 171.3 54.6 C 171.8 54.3 172.2 54 172.5 53.5 C 172.8 53.1 172.9 52.5 172.9 52 C 172.9 52 172.9 50.2 172.9 50.2 C 172.8 50.3 172.6 50.4 172.3 50.5 C 172.1 50.6 171.8 50.6 171.5 50.7 C 171.2 50.7 170.9 50.8 170.6 50.8 C 170.3 50.9 170 50.9 169.8 51 C 169.2 51 168.8 51.2 168.4 51.3 C 168 51.5 167.7 51.7 167.5 52 C 167.2 52.3 167.1 52.7 167.1 53.1 C 167.1 53.7 167.3 54.2 167.8 54.5 C 168.3 54.8 168.8 55 169.5 55 Z M 185.6 48.4 C 185.57 48.36 185.6 57.8 185.6 57.8 L 181 57.8 L 181 41.5 L 185.4 41.5 L 185.4 44.3 C 185.4 44.3 185.55 44.34 185.5 44.3 C 185.9 43.4 186.5 42.6 187.4 42.1 C 188.2 41.5 189.3 41.2 190.5 41.2 C 191.6 41.2 192.6 41.5 193.4 42 C 194.3 42.5 194.9 43.2 195.4 44.1 C 195.9 45 196.1 46.1 196.1 47.4 C 196.12 47.4 196.1 57.8 196.1 57.8 L 191.6 57.8 C 191.6 57.8 191.58 48.21 191.6 48.2 C 191.6 47.2 191.3 46.4 190.8 45.9 C 190.3 45.3 189.6 45 188.7 45 C 188.1 45 187.5 45.1 187.1 45.4 C 186.6 45.7 186.2 46.1 186 46.6 C 185.7 47.1 185.6 47.7 185.6 48.4 Z M 211.3 36 L 211.3 57.8 L 206.7 57.8 L 206.7 36 L 211.3 36 Z M 219.8 48.4 C 219.83 48.36 219.8 57.8 219.8 57.8 L 215.3 57.8 L 215.3 41.5 L 219.6 41.5 L 219.6 44.3 C 219.6 44.3 219.81 44.34 219.8 44.3 C 220.2 43.4 220.8 42.6 221.6 42.1 C 222.5 41.5 223.5 41.2 224.7 41.2 C 225.9 41.2 226.9 41.5 227.7 42 C 228.5 42.5 229.2 43.2 229.7 44.1 C 230.1 45 230.4 46.1 230.4 47.4 C 230.38 47.4 230.4 57.8 230.4 57.8 L 225.8 57.8 C 225.8 57.8 225.84 48.21 225.8 48.2 C 225.8 47.2 225.6 46.4 225.1 45.9 C 224.6 45.3 223.8 45 222.9 45 C 222.3 45 221.8 45.1 221.3 45.4 C 220.9 45.7 220.5 46.1 220.2 46.6 C 220 47.1 219.8 47.7 219.8 48.4 Z M 242.3 41.5 L 242.3 44.9 L 232.4 44.9 L 232.4 41.5 L 242.3 41.5 Z M 234.7 37.5 L 239.2 37.5 C 239.2 37.5 239.2 52.79 239.2 52.8 C 239.2 53.2 239.3 53.5 239.4 53.8 C 239.5 54 239.7 54.2 239.9 54.2 C 240.2 54.3 240.4 54.4 240.7 54.4 C 240.9 54.4 241.2 54.4 241.4 54.3 C 241.6 54.3 241.8 54.3 241.9 54.2 C 241.9 54.2 242.6 57.6 242.6 57.6 C 242.4 57.7 242 57.8 241.6 57.9 C 241.2 58 240.7 58 240.1 58 C 239 58.1 238.1 57.9 237.2 57.6 C 236.4 57.3 235.8 56.8 235.3 56 C 234.9 55.3 234.7 54.5 234.7 53.4 C 234.66 53.39 234.7 37.5 234.7 37.5 Z M 252.1 58.1 C 250.4 58.1 248.9 57.8 247.7 57.1 C 246.5 56.4 245.6 55.5 244.9 54.2 C 244.3 52.9 244 51.4 244 49.7 C 244 48 244.3 46.6 244.9 45.3 C 245.6 44 246.5 43 247.7 42.3 C 248.9 41.6 250.3 41.2 251.9 41.2 C 253 41.2 254 41.4 254.9 41.8 C 255.9 42.1 256.7 42.6 257.4 43.3 C 258.1 44 258.6 44.9 259 45.9 C 259.4 46.9 259.6 48.2 259.6 49.6 C 259.59 49.55 259.6 50.8 259.6 50.8 L 245.8 50.8 L 245.8 48 C 245.8 48 255.32 47.99 255.3 48 C 255.3 47.3 255.2 46.8 254.9 46.2 C 254.6 45.7 254.2 45.3 253.7 45.1 C 253.2 44.8 252.6 44.6 252 44.6 C 251.3 44.6 250.7 44.8 250.1 45.1 C 249.6 45.4 249.2 45.8 248.9 46.4 C 248.6 46.9 248.5 47.5 248.4 48.1 C 248.4 48.1 248.4 50.8 248.4 50.8 C 248.4 51.6 248.6 52.3 248.9 52.9 C 249.2 53.5 249.6 54 250.2 54.3 C 250.7 54.6 251.4 54.8 252.2 54.8 C 252.7 54.8 253.1 54.7 253.5 54.5 C 254 54.4 254.3 54.2 254.6 53.9 C 254.9 53.6 255.1 53.3 255.3 52.9 C 255.3 52.9 259.5 53.1 259.5 53.1 C 259.3 54.1 258.8 55 258.2 55.8 C 257.5 56.5 256.7 57.1 255.7 57.5 C 254.6 57.9 253.4 58.1 252.1 58.1 Z M 267.2 36 L 267.2 57.8 L 262.6 57.8 L 262.6 36 L 267.2 36 Z M 275.3 36 L 275.3 57.8 L 270.8 57.8 L 270.8 36 L 275.3 36 Z M 279 57.8 L 279 41.5 L 283.5 41.5 L 283.5 57.8 L 279 57.8 Z M 281.3 39.3 C 280.6 39.3 280 39.1 279.6 38.7 C 279.1 38.2 278.8 37.7 278.8 37.1 C 278.8 36.4 279.1 35.9 279.6 35.4 C 280 35 280.6 34.8 281.3 34.8 C 282 34.8 282.5 35 283 35.4 C 283.5 35.9 283.7 36.4 283.7 37 C 283.7 37.7 283.5 38.2 283 38.7 C 282.5 39.1 282 39.3 281.3 39.3 Z M 294.4 64.3 C 293 64.3 291.7 64.1 290.7 63.7 C 289.6 63.3 288.8 62.7 288.2 62.1 C 287.5 61.4 287.1 60.6 287 59.7 C 287 59.7 291.1 59.2 291.1 59.2 C 291.3 59.5 291.5 59.8 291.8 60.1 C 292 60.4 292.4 60.6 292.9 60.8 C 293.3 60.9 293.9 61 294.5 61 C 295.5 61 296.3 60.8 297 60.3 C 297.6 59.8 297.9 59 297.9 57.9 C 297.94 57.91 297.9 54.9 297.9 54.9 C 297.9 54.9 297.75 54.92 297.8 54.9 C 297.6 55.4 297.3 55.8 296.9 56.2 C 296.5 56.6 295.9 56.9 295.3 57.2 C 294.7 57.5 294 57.6 293.1 57.6 C 291.9 57.6 290.7 57.3 289.7 56.7 C 288.7 56.2 287.9 55.3 287.3 54.1 C 286.7 52.9 286.4 51.4 286.4 49.6 C 286.4 47.8 286.8 46.2 287.4 45 C 288 43.7 288.8 42.8 289.8 42.2 C 290.8 41.6 291.9 41.2 293.1 41.2 C 294 41.2 294.8 41.4 295.4 41.7 C 296 42 296.5 42.4 296.9 42.9 C 297.3 43.3 297.5 43.8 297.8 44.2 C 297.75 44.2 297.9 44.2 297.9 44.2 L 297.9 41.5 L 302.4 41.5 C 302.4 41.5 302.43 57.98 302.4 58 C 302.4 59.4 302.1 60.5 301.4 61.5 C 300.7 62.4 299.8 63.1 298.6 63.6 C 297.4 64.1 296 64.3 294.4 64.3 Z M 294.5 54.2 C 295.3 54.2 295.9 54 296.4 53.6 C 296.9 53.3 297.3 52.7 297.6 52 C 297.8 51.4 298 50.5 298 49.6 C 298 48.6 297.8 47.8 297.6 47.1 C 297.3 46.4 296.9 45.8 296.4 45.4 C 295.9 45 295.3 44.9 294.5 44.9 C 293.8 44.9 293.2 45.1 292.6 45.5 C 292.1 45.9 291.7 46.4 291.5 47.1 C 291.2 47.8 291.1 48.7 291.1 49.6 C 291.1 50.5 291.2 51.3 291.5 52 C 291.7 52.7 292.1 53.2 292.6 53.6 C 293.2 54 293.8 54.2 294.5 54.2 Z M 313.5 58.1 C 311.8 58.1 310.4 57.8 309.1 57.1 C 307.9 56.4 307 55.5 306.4 54.2 C 305.7 52.9 305.4 51.4 305.4 49.7 C 305.4 48 305.7 46.6 306.4 45.3 C 307 44 307.9 43 309.1 42.3 C 310.3 41.6 311.7 41.2 313.3 41.2 C 314.4 41.2 315.4 41.4 316.3 41.8 C 317.3 42.1 318.1 42.6 318.8 43.3 C 319.5 44 320 44.9 320.4 45.9 C 320.8 46.9 321 48.2 321 49.6 C 321 49.55 321 50.8 321 50.8 L 307.2 50.8 L 307.2 48 C 307.2 48 316.73 47.99 316.7 48 C 316.7 47.3 316.6 46.8 316.3 46.2 C 316 45.7 315.6 45.3 315.1 45.1 C 314.6 44.8 314 44.6 313.4 44.6 C 312.7 44.6 312.1 44.8 311.6 45.1 C 311 45.4 310.6 45.8 310.3 46.4 C 310 46.9 309.9 47.5 309.9 48.1 C 309.9 48.1 309.9 50.8 309.9 50.8 C 309.9 51.6 310 52.3 310.3 52.9 C 310.6 53.5 311 54 311.6 54.3 C 312.1 54.6 312.8 54.8 313.6 54.8 C 314.1 54.8 314.5 54.7 314.9 54.5 C 315.4 54.4 315.7 54.2 316 53.9 C 316.3 53.6 316.5 53.3 316.7 52.9 C 316.7 52.9 320.9 53.1 320.9 53.1 C 320.7 54.1 320.3 55 319.6 55.8 C 318.9 56.5 318.1 57.1 317.1 57.5 C 316 57.9 314.8 58.1 313.5 58.1 Z M 328.5 48.4 C 328.53 48.36 328.5 57.8 328.5 57.8 L 324 57.8 L 324 41.5 L 328.3 41.5 L 328.3 44.3 C 328.3 44.3 328.51 44.34 328.5 44.3 C 328.9 43.4 329.5 42.6 330.3 42.1 C 331.2 41.5 332.2 41.2 333.4 41.2 C 334.6 41.2 335.6 41.5 336.4 42 C 337.3 42.5 337.9 43.2 338.4 44.1 C 338.8 45 339.1 46.1 339.1 47.4 C 339.08 47.4 339.1 57.8 339.1 57.8 L 334.5 57.8 C 334.5 57.8 334.54 48.21 334.5 48.2 C 334.6 47.2 334.3 46.4 333.8 45.9 C 333.3 45.3 332.5 45 331.6 45 C 331 45 330.5 45.1 330 45.4 C 329.6 45.7 329.2 46.1 328.9 46.6 C 328.7 47.1 328.5 47.7 328.5 48.4 Z M 350 58.1 C 348.3 58.1 346.8 57.8 345.6 57.1 C 344.4 56.4 343.5 55.4 342.9 54.1 C 342.2 52.8 341.9 51.4 341.9 49.7 C 341.9 48 342.2 46.6 342.9 45.3 C 343.5 44 344.4 43 345.6 42.3 C 346.8 41.6 348.3 41.2 349.9 41.2 C 351.4 41.2 352.6 41.5 353.7 42 C 354.8 42.5 355.6 43.3 356.2 44.2 C 356.9 45.1 357.2 46.2 357.3 47.5 C 357.3 47.5 353 47.5 353 47.5 C 352.9 46.7 352.5 46 352 45.5 C 351.5 45 350.8 44.8 350 44.8 C 349.3 44.8 348.7 45 348.2 45.3 C 347.6 45.7 347.2 46.3 346.9 47 C 346.7 47.7 346.5 48.6 346.5 49.6 C 346.5 50.7 346.7 51.6 346.9 52.3 C 347.2 53 347.6 53.6 348.2 54 C 348.7 54.4 349.3 54.5 350 54.5 C 350.5 54.5 351 54.4 351.4 54.2 C 351.8 54 352.2 53.7 352.4 53.3 C 352.7 52.9 352.9 52.4 353 51.8 C 353 51.8 357.3 51.8 357.3 51.8 C 357.2 53.1 356.9 54.2 356.2 55.1 C 355.6 56.1 354.8 56.8 353.7 57.3 C 352.7 57.9 351.4 58.1 350 58.1 Z M 367.4 58.1 C 365.7 58.1 364.3 57.8 363.1 57.1 C 361.9 56.4 360.9 55.5 360.3 54.2 C 359.6 52.9 359.3 51.4 359.3 49.7 C 359.3 48 359.6 46.6 360.3 45.3 C 360.9 44 361.9 43 363.1 42.3 C 364.2 41.6 365.6 41.2 367.2 41.2 C 368.3 41.2 369.3 41.4 370.3 41.8 C 371.2 42.1 372 42.6 372.7 43.3 C 373.4 44 374 44.9 374.4 45.9 C 374.7 46.9 374.9 48.2 374.9 49.6 C 374.94 49.55 374.9 50.8 374.9 50.8 L 361.1 50.8 L 361.1 48 C 361.1 48 370.67 47.99 370.7 48 C 370.7 47.3 370.5 46.8 370.2 46.2 C 370 45.7 369.6 45.3 369.1 45.1 C 368.6 44.8 368 44.6 367.3 44.6 C 366.6 44.6 366 44.8 365.5 45.1 C 365 45.4 364.6 45.8 364.3 46.4 C 364 46.9 363.8 47.5 363.8 48.1 C 363.8 48.1 363.8 50.8 363.8 50.8 C 363.8 51.6 363.9 52.3 364.2 52.9 C 364.6 53.5 365 54 365.5 54.3 C 366.1 54.6 366.7 54.8 367.5 54.8 C 368 54.8 368.5 54.7 368.9 54.5 C 369.3 54.4 369.7 54.2 370 53.9 C 370.3 53.6 370.5 53.3 370.6 52.9 C 370.6 52.9 374.8 53.1 374.8 53.1 C 374.6 54.1 374.2 55 373.5 55.8 C 372.9 56.5 372 57.1 371 57.5 C 370 57.9 368.8 58.1 367.4 58.1 Z M 380.2 58.1 C 379.5 58.1 378.9 57.8 378.4 57.3 C 377.9 56.8 377.7 56.2 377.7 55.5 C 377.7 54.8 377.9 54.2 378.4 53.7 C 378.9 53.3 379.5 53 380.2 53 C 380.9 53 381.5 53.3 382 53.7 C 382.5 54.2 382.8 54.8 382.8 55.5 C 382.8 56 382.7 56.4 382.4 56.8 C 382.2 57.2 381.9 57.5 381.5 57.7 C 381.1 58 380.7 58.1 380.2 58.1 Z " stroke="none" fill="#ffffff"/>  </g>  <g id="Polygon105563">    <path d="M 1.9 21.8 L 1.9 0 C 1.9 0 10.63 0 10.6 0 C 12.2 0 13.6 0.2 14.6 0.7 C 15.7 1.2 16.5 1.8 17.1 2.7 C 17.6 3.5 17.9 4.5 17.9 5.6 C 17.9 6.4 17.7 7.2 17.4 7.8 C 17 8.5 16.6 9 16 9.4 C 15.4 9.8 14.7 10.1 13.9 10.3 C 13.9 10.3 13.9 10.5 13.9 10.5 C 14.8 10.5 15.5 10.8 16.3 11.2 C 17 11.6 17.6 12.2 18 13 C 18.5 13.8 18.7 14.7 18.7 15.8 C 18.7 16.9 18.4 18 17.9 18.9 C 17.3 19.8 16.5 20.5 15.3 21 C 14.2 21.6 12.9 21.8 11.2 21.8 C 11.22 21.82 1.9 21.8 1.9 21.8 Z M 6.5 18 C 6.5 18 10.27 18.05 10.3 18 C 11.6 18 12.5 17.8 13.1 17.3 C 13.7 16.8 14 16.2 14 15.3 C 14 14.7 13.8 14.2 13.5 13.7 C 13.2 13.3 12.8 12.9 12.3 12.6 C 11.8 12.4 11.1 12.3 10.4 12.3 C 10.38 12.25 6.5 12.3 6.5 12.3 L 6.5 18 Z M 6.5 9.1 C 6.5 9.1 9.93 9.13 9.9 9.1 C 10.6 9.1 11.1 9 11.6 8.8 C 12.1 8.6 12.5 8.3 12.8 7.8 C 13.1 7.4 13.2 6.9 13.2 6.4 C 13.2 5.6 12.9 4.9 12.4 4.5 C 11.8 4 11 3.7 10 3.7 C 10.01 3.73 6.5 3.7 6.5 3.7 L 6.5 9.1 Z M 29.1 22.1 C 27.4 22.1 26 21.8 24.8 21.1 C 23.6 20.4 22.6 19.5 22 18.2 C 21.3 16.9 21 15.4 21 13.7 C 21 12 21.3 10.6 22 9.3 C 22.6 8 23.6 7 24.8 6.3 C 25.9 5.6 27.3 5.2 29 5.2 C 30 5.2 31 5.4 32 5.8 C 32.9 6.1 33.7 6.6 34.4 7.3 C 35.1 8 35.7 8.9 36.1 9.9 C 36.4 10.9 36.6 12.2 36.6 13.6 C 36.64 13.55 36.6 14.8 36.6 14.8 L 22.8 14.8 L 22.8 12 C 22.8 12 32.37 11.99 32.4 12 C 32.4 11.3 32.2 10.8 31.9 10.2 C 31.7 9.7 31.3 9.3 30.8 9.1 C 30.3 8.8 29.7 8.6 29 8.6 C 28.3 8.6 27.7 8.8 27.2 9.1 C 26.7 9.4 26.3 9.8 26 10.4 C 25.7 10.9 25.5 11.5 25.5 12.1 C 25.5 12.1 25.5 14.8 25.5 14.8 C 25.5 15.6 25.7 16.3 26 16.9 C 26.3 17.5 26.7 18 27.2 18.3 C 27.8 18.6 28.4 18.8 29.2 18.8 C 29.7 18.8 30.2 18.7 30.6 18.5 C 31 18.4 31.4 18.2 31.7 17.9 C 32 17.6 32.2 17.3 32.4 16.9 C 32.4 16.9 36.5 17.1 36.5 17.1 C 36.3 18.1 35.9 19 35.2 19.8 C 34.6 20.5 33.7 21.1 32.7 21.5 C 31.7 21.9 30.5 22.1 29.1 22.1 Z M 55.3 5.5 L 55.3 8.9 L 45.4 8.9 L 45.4 5.5 L 55.3 5.5 Z M 47.6 1.5 L 52.2 1.5 C 52.2 1.5 52.19 16.79 52.2 16.8 C 52.2 17.2 52.3 17.5 52.4 17.8 C 52.5 18 52.7 18.2 52.9 18.2 C 53.1 18.3 53.4 18.4 53.7 18.4 C 53.9 18.4 54.1 18.4 54.4 18.3 C 54.6 18.3 54.7 18.3 54.9 18.2 C 54.9 18.2 55.6 21.6 55.6 21.6 C 55.3 21.7 55 21.8 54.6 21.9 C 54.2 22 53.7 22 53.1 22 C 52 22.1 51.1 21.9 50.2 21.6 C 49.4 21.3 48.8 20.8 48.3 20 C 47.9 19.3 47.6 18.5 47.6 17.4 C 47.65 17.39 47.6 1.5 47.6 1.5 Z M 62.6 12.4 C 62.61 12.36 62.6 21.8 62.6 21.8 L 58.1 21.8 L 58.1 0 L 62.5 0 L 62.5 8.3 C 62.5 8.3 62.68 8.34 62.7 8.3 C 63 7.4 63.6 6.6 64.5 6.1 C 65.3 5.5 66.3 5.2 67.6 5.2 C 68.7 5.2 69.7 5.5 70.5 6 C 71.4 6.5 72.1 7.2 72.5 8.1 C 73 9 73.2 10.1 73.2 11.4 C 73.22 11.4 73.2 21.8 73.2 21.8 L 68.7 21.8 C 68.7 21.8 68.69 12.21 68.7 12.2 C 68.7 11.2 68.4 10.4 67.9 9.9 C 67.4 9.3 66.7 9 65.8 9 C 65.1 9 64.6 9.1 64.1 9.4 C 63.7 9.7 63.3 10.1 63 10.6 C 62.8 11.1 62.6 11.7 62.6 12.4 Z M 84.2 22.1 C 82.5 22.1 81 21.8 79.8 21.1 C 78.6 20.4 77.7 19.5 77 18.2 C 76.4 16.9 76 15.4 76 13.7 C 76 12 76.4 10.6 77 9.3 C 77.7 8 78.6 7 79.8 6.3 C 81 5.6 82.4 5.2 84 5.2 C 85.1 5.2 86.1 5.4 87 5.8 C 87.9 6.1 88.8 6.6 89.5 7.3 C 90.2 8 90.7 8.9 91.1 9.9 C 91.5 10.9 91.7 12.2 91.7 13.6 C 91.68 13.55 91.7 14.8 91.7 14.8 L 77.9 14.8 L 77.9 12 C 77.9 12 87.4 11.99 87.4 12 C 87.4 11.3 87.3 10.8 87 10.2 C 86.7 9.7 86.3 9.3 85.8 9.1 C 85.3 8.8 84.7 8.6 84.1 8.6 C 83.4 8.6 82.8 8.8 82.2 9.1 C 81.7 9.4 81.3 9.8 81 10.4 C 80.7 10.9 80.5 11.5 80.5 12.1 C 80.5 12.1 80.5 14.8 80.5 14.8 C 80.5 15.6 80.7 16.3 81 16.9 C 81.3 17.5 81.7 18 82.3 18.3 C 82.8 18.6 83.5 18.8 84.2 18.8 C 84.7 18.8 85.2 18.7 85.6 18.5 C 86 18.4 86.4 18.2 86.7 17.9 C 87 17.6 87.2 17.3 87.4 16.9 C 87.4 16.9 91.6 17.1 91.6 17.1 C 91.4 18.1 90.9 19 90.3 19.8 C 89.6 20.5 88.8 21.1 87.7 21.5 C 86.7 21.9 85.5 22.1 84.2 22.1 Z M 106.1 12.4 C 106.13 12.36 106.1 21.8 106.1 21.8 L 101.6 21.8 L 101.6 5.5 L 105.9 5.5 L 105.9 8.3 C 105.9 8.3 106.11 8.34 106.1 8.3 C 106.5 7.4 107.1 6.6 107.9 6.1 C 108.8 5.5 109.8 5.2 111 5.2 C 112.2 5.2 113.2 5.5 114 6 C 114.9 6.5 115.5 7.2 116 8.1 C 116.4 9 116.7 10.1 116.7 11.4 C 116.68 11.4 116.7 21.8 116.7 21.8 L 112.1 21.8 C 112.1 21.8 112.14 12.21 112.1 12.2 C 112.1 11.2 111.9 10.4 111.4 9.9 C 110.9 9.3 110.1 9 109.2 9 C 108.6 9 108.1 9.1 107.6 9.4 C 107.2 9.7 106.8 10.1 106.5 10.6 C 106.3 11.1 106.1 11.7 106.1 12.4 Z M 127.6 22.1 C 125.9 22.1 124.5 21.8 123.3 21.1 C 122.1 20.4 121.1 19.5 120.5 18.2 C 119.8 16.9 119.5 15.4 119.5 13.7 C 119.5 12 119.8 10.6 120.5 9.3 C 121.1 8 122.1 7 123.2 6.3 C 124.4 5.6 125.8 5.2 127.4 5.2 C 128.5 5.2 129.5 5.4 130.5 5.8 C 131.4 6.1 132.2 6.6 132.9 7.3 C 133.6 8 134.1 8.9 134.5 9.9 C 134.9 10.9 135.1 12.2 135.1 13.6 C 135.13 13.55 135.1 14.8 135.1 14.8 L 121.3 14.8 L 121.3 12 C 121.3 12 130.85 11.99 130.9 12 C 130.9 11.3 130.7 10.8 130.4 10.2 C 130.1 9.7 129.8 9.3 129.3 9.1 C 128.8 8.8 128.2 8.6 127.5 8.6 C 126.8 8.6 126.2 8.8 125.7 9.1 C 125.2 9.4 124.7 9.8 124.4 10.4 C 124.1 10.9 124 11.5 124 12.1 C 124 12.1 124 14.8 124 14.8 C 124 15.6 124.1 16.3 124.4 16.9 C 124.7 17.5 125.2 18 125.7 18.3 C 126.3 18.6 126.9 18.8 127.7 18.8 C 128.2 18.8 128.7 18.7 129.1 18.5 C 129.5 18.4 129.9 18.2 130.2 17.9 C 130.4 17.6 130.7 17.3 130.8 16.9 C 130.8 16.9 135 17.1 135 17.1 C 134.8 18.1 134.4 19 133.7 19.8 C 133.1 20.5 132.2 21.1 131.2 21.5 C 130.2 21.9 129 22.1 127.6 22.1 Z M 141.1 5.5 L 144.1 11.2 L 147.2 5.5 L 151.9 5.5 L 147.1 13.6 L 152 21.8 L 147.4 21.8 L 144.1 16.2 L 141 21.8 L 136.3 21.8 L 141.1 13.6 L 136.4 5.5 L 141.1 5.5 Z M 163.5 5.5 L 163.5 8.9 L 153.6 8.9 L 153.6 5.5 L 163.5 5.5 Z M 155.9 1.5 L 160.4 1.5 C 160.4 1.5 160.39 16.79 160.4 16.8 C 160.4 17.2 160.5 17.5 160.6 17.8 C 160.7 18 160.9 18.2 161.1 18.2 C 161.4 18.3 161.6 18.4 161.9 18.4 C 162.1 18.4 162.4 18.4 162.6 18.3 C 162.8 18.3 162.9 18.3 163.1 18.2 C 163.1 18.2 163.8 21.6 163.8 21.6 C 163.5 21.7 163.2 21.8 162.8 21.9 C 162.4 22 161.9 22 161.3 22 C 160.2 22.1 159.3 21.9 158.4 21.6 C 157.6 21.3 157 20.8 156.5 20 C 156.1 19.3 155.8 18.5 155.9 17.4 C 155.86 17.39 155.9 1.5 155.9 1.5 Z M 169.3 22.1 C 168.6 22.1 168 21.8 167.5 21.3 C 167 20.8 166.7 20.2 166.7 19.5 C 166.7 18.8 167 18.2 167.5 17.7 C 168 17.3 168.6 17 169.3 17 C 170 17 170.6 17.3 171.1 17.7 C 171.6 18.2 171.9 18.8 171.9 19.5 C 171.9 20 171.7 20.4 171.5 20.8 C 171.3 21.2 171 21.5 170.6 21.7 C 170.2 22 169.8 22.1 169.3 22.1 Z " stroke="none" fill="#ffffff"/>  </g></svg>