<?xml version="1.0" standalone="no"?><!DOCTYPE svg PUBLIC "-//W3C//DTD SVG 1.1//EN" "http://www.w3.org/Graphics/SVG/1.1/DTD/svg11.dtd"><svg xmlns="http://www.w3.org/2000/svg" version="1.1" width="1084px" height="134.3px" viewBox="0 -11 1084 134.3" style="top:-11px">  <desc>Everyone’s talking about it.</desc>  <defs/>  <g id="Polygon107644">    <path d="M 62 77.5 L 62 19.3 L 97.1 19.3 L 97.1 25.6 L 69 25.6 L 69 45.2 L 95.3 45.2 L 95.3 51.5 L 69 51.5 L 69 71.3 L 97.5 71.3 L 97.5 77.5 L 62 77.5 Z M 140.1 33.9 L 124 77.5 L 117.1 77.5 L 101 33.9 L 108.3 33.9 L 120.3 68.6 L 120.8 68.6 L 132.8 33.9 L 140.1 33.9 Z M 163.3 78.4 C 159.1 78.4 155.5 77.5 152.5 75.6 C 149.4 73.7 147.1 71.1 145.5 67.8 C 143.8 64.4 143 60.5 143 56 C 143 51.6 143.8 47.6 145.5 44.2 C 147.1 40.8 149.4 38.1 152.3 36.2 C 155.3 34.3 158.7 33.3 162.7 33.3 C 164.9 33.3 167.2 33.7 169.4 34.4 C 171.6 35.2 173.6 36.4 175.4 38.1 C 177.3 39.8 178.7 42 179.8 44.8 C 180.9 47.6 181.4 51 181.4 55.1 C 181.41 55.11 181.4 58 181.4 58 L 147.8 58 L 147.8 52.2 C 147.8 52.2 174.59 52.16 174.6 52.2 C 174.6 49.7 174.1 47.5 173.1 45.6 C 172.2 43.6 170.8 42.1 169 41 C 167.2 39.9 165.1 39.3 162.7 39.3 C 160 39.3 157.7 40 155.7 41.3 C 153.8 42.6 152.3 44.3 151.3 46.4 C 150.2 48.5 149.7 50.8 149.7 53.2 C 149.7 53.2 149.7 57 149.7 57 C 149.7 60.3 150.3 63.1 151.4 65.4 C 152.6 67.7 154.2 69.4 156.2 70.6 C 158.3 71.8 160.6 72.4 163.3 72.4 C 165.1 72.4 166.7 72.1 168.1 71.6 C 169.6 71.1 170.8 70.4 171.8 69.4 C 172.9 68.3 173.7 67.1 174.3 65.6 C 174.3 65.6 180.7 67.4 180.7 67.4 C 180 69.6 178.9 71.5 177.3 73.2 C 175.7 74.8 173.7 76.1 171.3 77 C 169 77.9 166.3 78.4 163.3 78.4 Z M 190.1 77.5 L 190.1 33.9 L 196.6 33.9 L 196.6 40.5 C 196.6 40.5 197.06 40.45 197.1 40.5 C 197.9 38.3 199.3 36.5 201.4 35.2 C 203.5 33.9 205.8 33.2 208.4 33.2 C 208.9 33.2 209.5 33.2 210.3 33.2 C 211 33.2 211.6 33.3 211.9 33.3 C 211.9 33.3 211.9 40.1 211.9 40.1 C 211.7 40.1 211.2 40 210.4 39.8 C 209.6 39.7 208.7 39.7 207.9 39.7 C 205.7 39.7 203.8 40.1 202.2 41 C 200.5 41.9 199.2 43.1 198.3 44.6 C 197.3 46.2 196.8 47.9 196.8 49.9 C 196.83 49.89 196.8 77.5 196.8 77.5 L 190.1 77.5 Z M 224.6 93.9 C 223.5 93.9 222.4 93.8 221.6 93.6 C 220.7 93.4 220 93.2 219.7 93.1 C 219.7 93.1 221.4 87.2 221.4 87.2 C 223 87.6 224.5 87.7 225.7 87.6 C 227 87.5 228.1 86.9 229.1 86 C 230 85 230.9 83.4 231.7 81.1 C 231.75 81.14 233 77.7 233 77.7 L 216.9 33.9 L 224.1 33.9 L 236.2 68.6 L 236.6 68.6 L 248.7 33.9 L 256 33.9 C 256 33.9 237.43 83.86 237.4 83.9 C 236.6 86.1 235.6 88 234.3 89.5 C 233.1 91 231.7 92.1 230.1 92.8 C 228.4 93.5 226.6 93.9 224.6 93.9 Z M 278.7 78.4 C 274.7 78.4 271.3 77.5 268.3 75.6 C 265.3 73.7 263 71.1 261.4 67.7 C 259.7 64.4 258.9 60.4 258.9 55.9 C 258.9 51.4 259.7 47.4 261.4 44 C 263 40.6 265.3 38 268.3 36.1 C 271.3 34.2 274.7 33.3 278.7 33.3 C 282.6 33.3 286.1 34.2 289 36.1 C 292 38 294.3 40.6 296 44 C 297.6 47.4 298.4 51.4 298.4 55.9 C 298.4 60.4 297.6 64.4 296 67.7 C 294.3 71.1 292 73.7 289 75.6 C 286.1 77.5 282.6 78.4 278.7 78.4 Z M 278.7 72.4 C 281.7 72.4 284.1 71.6 286.1 70.1 C 288 68.6 289.4 66.5 290.3 64 C 291.3 61.5 291.7 58.8 291.7 55.9 C 291.7 53 291.3 50.3 290.3 47.8 C 289.4 45.2 288 43.2 286.1 41.6 C 284.1 40.1 281.7 39.3 278.7 39.3 C 275.7 39.3 273.2 40.1 271.3 41.6 C 269.3 43.2 267.9 45.2 267 47.8 C 266.1 50.3 265.6 53 265.6 55.9 C 265.6 58.8 266.1 61.5 267 64 C 267.9 66.5 269.3 68.6 271.3 70.1 C 273.2 71.6 275.7 72.4 278.7 72.4 Z M 313.8 51.3 C 313.85 51.25 313.8 77.5 313.8 77.5 L 307.1 77.5 L 307.1 33.9 L 313.6 33.9 L 313.6 40.7 C 313.6 40.7 314.19 40.68 314.2 40.7 C 315.2 38.5 316.8 36.7 318.8 35.3 C 320.9 34 323.6 33.3 326.9 33.3 C 329.9 33.3 332.5 33.9 334.7 35.1 C 336.9 36.3 338.6 38.1 339.8 40.6 C 341.1 43 341.7 46.1 341.7 49.8 C 341.69 49.77 341.7 77.5 341.7 77.5 L 335 77.5 C 335 77.5 334.99 50.23 335 50.2 C 335 46.8 334.1 44.1 332.3 42.2 C 330.5 40.3 328.1 39.3 325 39.3 C 322.8 39.3 320.9 39.8 319.3 40.7 C 317.6 41.6 316.3 43 315.3 44.8 C 314.3 46.6 313.8 48.7 313.8 51.3 Z M 370.6 78.4 C 366.4 78.4 362.7 77.5 359.7 75.6 C 356.7 73.7 354.3 71.1 352.7 67.8 C 351 64.4 350.2 60.5 350.2 56 C 350.2 51.6 351 47.6 352.7 44.2 C 354.3 40.8 356.6 38.1 359.6 36.2 C 362.5 34.3 365.9 33.3 369.9 33.3 C 372.2 33.3 374.4 33.7 376.6 34.4 C 378.8 35.2 380.8 36.4 382.7 38.1 C 384.5 39.8 385.9 42 387 44.8 C 388.1 47.6 388.6 51 388.6 55.1 C 388.63 55.11 388.6 58 388.6 58 L 355 58 L 355 52.2 C 355 52.2 381.81 52.16 381.8 52.2 C 381.8 49.7 381.3 47.5 380.3 45.6 C 379.4 43.6 378 42.1 376.2 41 C 374.4 39.9 372.3 39.3 369.9 39.3 C 367.2 39.3 364.9 40 363 41.3 C 361 42.6 359.5 44.3 358.5 46.4 C 357.4 48.5 356.9 50.8 356.9 53.2 C 356.9 53.2 356.9 57 356.9 57 C 356.9 60.3 357.5 63.1 358.6 65.4 C 359.8 67.7 361.4 69.4 363.4 70.6 C 365.5 71.8 367.9 72.4 370.6 72.4 C 372.3 72.4 373.9 72.1 375.3 71.6 C 376.8 71.1 378 70.4 379.1 69.4 C 380.1 68.3 380.9 67.1 381.5 65.6 C 381.5 65.6 387.9 67.4 387.9 67.4 C 387.3 69.6 386.1 71.5 384.5 73.2 C 382.9 74.8 380.9 76.1 378.5 77 C 376.2 77.9 373.5 78.4 370.6 78.4 Z M 402.8 19.3 C 402.8 19.3 402.85 24.43 402.8 24.4 C 402.8 26 402.6 27.6 402 29.4 C 401.4 31.1 400.6 32.8 399.6 34.5 C 398.5 36.1 397.2 37.5 395.7 38.8 C 395.7 38.8 392 35.8 392 35.8 C 393.2 34.1 394.3 32.3 395.2 30.5 C 396 28.6 396.5 26.6 396.5 24.5 C 396.48 24.55 396.5 19.3 396.5 19.3 L 402.8 19.3 Z M 438.6 43.6 C 438.6 43.6 432.6 45.3 432.6 45.3 C 432.2 44.3 431.7 43.4 430.9 42.4 C 430.2 41.4 429.2 40.7 428 40 C 426.7 39.4 425.1 39.1 423.2 39.1 C 420.5 39.1 418.3 39.7 416.5 40.9 C 414.7 42.1 413.8 43.7 413.8 45.6 C 413.8 47.2 414.5 48.6 415.7 49.5 C 416.9 50.5 418.8 51.3 421.3 51.9 C 421.3 51.9 427.8 53.5 427.8 53.5 C 431.7 54.5 434.6 55.9 436.5 57.9 C 438.5 59.8 439.4 62.3 439.4 65.3 C 439.4 67.8 438.7 70.1 437.3 72 C 435.8 74 433.8 75.6 431.3 76.7 C 428.7 77.8 425.8 78.4 422.4 78.4 C 417.9 78.4 414.2 77.4 411.3 75.5 C 408.4 73.6 406.6 70.8 405.8 67 C 405.8 67 412.1 65.5 412.1 65.5 C 412.7 67.8 413.9 69.6 415.6 70.7 C 417.3 71.9 419.5 72.5 422.3 72.5 C 425.4 72.5 427.9 71.8 429.7 70.5 C 431.6 69.2 432.5 67.6 432.5 65.7 C 432.5 64.2 432 62.9 430.9 61.9 C 429.8 60.8 428.2 60.1 426 59.5 C 426 59.5 418.7 57.8 418.7 57.8 C 414.7 56.9 411.8 55.4 409.9 53.4 C 408.1 51.4 407.1 48.9 407.1 45.9 C 407.1 43.4 407.8 41.3 409.2 39.4 C 410.6 37.5 412.5 36 414.9 34.9 C 417.4 33.8 420.1 33.3 423.2 33.3 C 427.5 33.3 430.9 34.2 433.3 36.1 C 435.8 38 437.6 40.5 438.6 43.6 Z M 491 33.9 L 491 39.5 L 468.4 39.5 L 468.4 33.9 L 491 33.9 Z M 475 23.4 L 481.7 23.4 C 481.7 23.4 481.68 65 481.7 65 C 481.7 66.9 482 68.3 482.5 69.2 C 483.1 70.2 483.8 70.8 484.7 71.1 C 485.6 71.4 486.5 71.6 487.5 71.6 C 488.2 71.6 488.8 71.5 489.3 71.5 C 489.8 71.4 490.2 71.3 490.4 71.3 C 490.4 71.3 491.8 77.3 491.8 77.3 C 491.3 77.4 490.7 77.6 489.9 77.8 C 489.1 78 488 78.1 486.8 78.1 C 484.9 78.1 483.1 77.7 481.2 76.8 C 479.4 76 477.9 74.8 476.8 73.1 C 475.6 71.5 475 69.4 475 66.8 C 474.98 66.82 475 23.4 475 23.4 Z M 511.7 78.5 C 508.9 78.5 506.4 78 504.1 76.9 C 501.9 75.9 500.1 74.4 498.8 72.4 C 497.4 70.4 496.8 68 496.8 65.1 C 496.8 62.6 497.3 60.6 498.3 59 C 499.2 57.5 500.6 56.2 502.2 55.3 C 503.9 54.5 505.7 53.8 507.7 53.3 C 509.7 52.9 511.7 52.5 513.7 52.3 C 516.4 51.9 518.5 51.7 520.2 51.5 C 521.8 51.3 523 51 523.8 50.6 C 524.6 50.1 525 49.4 525 48.3 C 525 48.3 525 48.1 525 48.1 C 525 45.3 524.2 43.1 522.7 41.5 C 521.2 40 518.8 39.2 515.8 39.2 C 512.6 39.2 510 39.9 508.2 41.3 C 506.4 42.7 505.1 44.2 504.4 45.8 C 504.4 45.8 498 43.5 498 43.5 C 499.2 40.9 500.7 38.8 502.6 37.3 C 504.5 35.8 506.6 34.8 508.8 34.2 C 511.1 33.6 513.3 33.3 515.5 33.3 C 516.9 33.3 518.5 33.5 520.4 33.8 C 522.2 34.1 524 34.8 525.7 35.8 C 527.4 36.8 528.8 38.4 530 40.5 C 531.1 42.5 531.7 45.3 531.7 48.8 C 531.67 48.75 531.7 77.5 531.7 77.5 L 525 77.5 L 525 71.6 C 525 71.6 524.62 71.59 524.6 71.6 C 524.2 72.5 523.4 73.6 522.4 74.6 C 521.3 75.7 519.9 76.6 518.1 77.4 C 516.4 78.1 514.2 78.5 511.7 78.5 Z M 512.7 72.5 C 515.3 72.5 517.6 72 519.4 70.9 C 521.2 69.9 522.6 68.6 523.6 66.9 C 524.5 65.3 525 63.5 525 61.7 C 525 61.7 525 55.6 525 55.6 C 524.7 55.9 524.1 56.2 523.1 56.5 C 522.1 56.8 521 57 519.8 57.2 C 518.6 57.4 517.4 57.6 516.2 57.7 C 515 57.9 514.1 58 513.4 58.1 C 511.6 58.3 510 58.7 508.5 59.2 C 507 59.7 505.8 60.4 504.9 61.4 C 503.9 62.4 503.5 63.8 503.5 65.5 C 503.5 67.8 504.4 69.5 506.1 70.7 C 507.8 71.9 510 72.5 512.7 72.5 Z M 549.1 19.3 L 549.1 77.5 L 542.4 77.5 L 542.4 19.3 L 549.1 19.3 Z M 566.1 61.6 L 566 53.3 L 567.3 53.3 L 586.4 33.9 L 594.7 33.9 L 574.4 54.4 L 573.8 54.4 L 566.1 61.6 Z M 559.8 77.5 L 559.8 19.3 L 566.5 19.3 L 566.5 77.5 L 559.8 77.5 Z M 587.6 77.5 L 570.5 55.9 L 575.3 51.3 L 596.1 77.5 L 587.6 77.5 Z M 602.2 77.5 L 602.2 33.9 L 608.9 33.9 L 608.9 77.5 L 602.2 77.5 Z M 605.6 26.6 C 604.3 26.6 603.2 26.1 602.3 25.3 C 601.3 24.4 600.9 23.3 600.9 22 C 600.9 20.8 601.3 19.7 602.3 18.8 C 603.2 17.9 604.3 17.5 605.6 17.5 C 606.9 17.5 608.1 17.9 609 18.8 C 609.9 19.7 610.4 20.8 610.4 22 C 610.4 23.3 609.9 24.4 609 25.3 C 608.1 26.1 606.9 26.6 605.6 26.6 Z M 626.4 51.3 C 626.43 51.25 626.4 77.5 626.4 77.5 L 619.7 77.5 L 619.7 33.9 L 626.2 33.9 L 626.2 40.7 C 626.2 40.7 626.78 40.68 626.8 40.7 C 627.8 38.5 629.4 36.7 631.4 35.3 C 633.5 34 636.2 33.3 639.5 33.3 C 642.5 33.3 645 33.9 647.3 35.1 C 649.5 36.3 651.2 38.1 652.4 40.6 C 653.7 43 654.3 46.1 654.3 49.8 C 654.28 49.77 654.3 77.5 654.3 77.5 L 647.6 77.5 C 647.6 77.5 647.57 50.23 647.6 50.2 C 647.6 46.8 646.7 44.1 644.9 42.2 C 643.1 40.3 640.7 39.3 637.6 39.3 C 635.4 39.3 633.5 39.8 631.8 40.7 C 630.2 41.6 628.8 43 627.9 44.8 C 626.9 46.6 626.4 48.7 626.4 51.3 Z M 682.3 94.8 C 679.1 94.8 676.3 94.4 674 93.5 C 671.6 92.7 669.7 91.6 668.2 90.3 C 666.6 89 665.4 87.5 664.5 86 C 664.5 86 669.8 82.3 669.8 82.3 C 670.4 83.1 671.2 84 672.1 85 C 673 86 674.3 86.9 675.9 87.7 C 677.6 88.5 679.7 88.9 682.3 88.9 C 685.8 88.9 688.7 88 691 86.3 C 693.3 84.6 694.5 81.9 694.5 78.3 C 694.47 78.3 694.5 69.4 694.5 69.4 C 694.5 69.4 693.9 69.43 693.9 69.4 C 693.4 70.2 692.7 71.2 691.8 72.4 C 690.9 73.5 689.6 74.6 688 75.5 C 686.3 76.4 684 76.8 681.2 76.8 C 677.7 76.8 674.5 76 671.7 74.3 C 668.9 72.7 666.7 70.2 665.1 67 C 663.5 63.9 662.7 60 662.7 55.5 C 662.7 51 663.4 47.1 665 43.8 C 666.6 40.4 668.8 37.9 671.6 36 C 674.4 34.2 677.6 33.3 681.3 33.3 C 684.1 33.3 686.4 33.8 688.1 34.7 C 689.7 35.6 691 36.7 691.9 37.9 C 692.8 39.1 693.5 40 694 40.8 C 694.02 40.8 694.7 40.8 694.7 40.8 L 694.7 33.9 L 701.2 33.9 C 701.2 33.9 701.18 78.75 701.2 78.8 C 701.2 82.5 700.3 85.6 698.6 87.9 C 696.9 90.3 694.7 92 691.8 93.1 C 689 94.2 685.8 94.8 682.3 94.8 Z M 682.1 70.8 C 684.8 70.8 687 70.2 688.9 68.9 C 690.8 67.7 692.2 65.9 693.1 63.6 C 694.1 61.3 694.6 58.6 694.6 55.3 C 694.6 52.2 694.1 49.4 693.2 47 C 692.2 44.6 690.8 42.7 689 41.4 C 687.1 40 684.8 39.3 682.1 39.3 C 679.2 39.3 676.9 40 675 41.5 C 673.1 42.9 671.7 44.8 670.8 47.3 C 669.8 49.7 669.4 52.4 669.4 55.3 C 669.4 58.4 669.8 61 670.8 63.4 C 671.7 65.7 673.2 67.5 675.1 68.8 C 676.9 70.1 679.3 70.8 682.1 70.8 Z M 748.8 78.5 C 746 78.5 743.5 78 741.3 76.9 C 739 75.9 737.2 74.4 735.9 72.4 C 734.6 70.4 733.9 68 733.9 65.1 C 733.9 62.6 734.4 60.6 735.4 59 C 736.4 57.5 737.7 56.2 739.3 55.3 C 741 54.5 742.8 53.8 744.8 53.3 C 746.8 52.9 748.8 52.5 750.8 52.3 C 753.5 51.9 755.6 51.7 757.3 51.5 C 759 51.3 760.2 51 760.9 50.6 C 761.7 50.1 762.1 49.4 762.1 48.3 C 762.1 48.3 762.1 48.1 762.1 48.1 C 762.1 45.3 761.3 43.1 759.8 41.5 C 758.3 40 756 39.2 752.9 39.2 C 749.7 39.2 747.2 39.9 745.4 41.3 C 743.5 42.7 742.3 44.2 741.5 45.8 C 741.5 45.8 735.2 43.5 735.2 43.5 C 736.3 40.9 737.8 38.8 739.7 37.3 C 741.6 35.8 743.7 34.8 746 34.2 C 748.2 33.6 750.5 33.3 752.7 33.3 C 754.1 33.3 755.7 33.5 757.5 33.8 C 759.3 34.1 761.1 34.8 762.8 35.8 C 764.5 36.8 765.9 38.4 767.1 40.5 C 768.2 42.5 768.8 45.3 768.8 48.8 C 768.79 48.75 768.8 77.5 768.8 77.5 L 762.1 77.5 L 762.1 71.6 C 762.1 71.6 761.74 71.59 761.7 71.6 C 761.3 72.5 760.5 73.6 759.5 74.6 C 758.4 75.7 757 76.6 755.2 77.4 C 753.5 78.1 751.3 78.5 748.8 78.5 Z M 749.8 72.5 C 752.5 72.5 754.7 72 756.5 70.9 C 758.4 69.9 759.7 68.6 760.7 66.9 C 761.6 65.3 762.1 63.5 762.1 61.7 C 762.1 61.7 762.1 55.6 762.1 55.6 C 761.8 55.9 761.2 56.2 760.2 56.5 C 759.3 56.8 758.2 57 756.9 57.2 C 755.7 57.4 754.5 57.6 753.3 57.7 C 752.2 57.9 751.2 58 750.5 58.1 C 748.8 58.3 747.1 58.7 745.6 59.2 C 744.1 59.7 742.9 60.4 742 61.4 C 741.1 62.4 740.6 63.8 740.6 65.5 C 740.6 67.8 741.5 69.5 743.2 70.7 C 744.9 71.9 747.1 72.5 749.8 72.5 Z M 779.9 77.5 L 779.9 19.3 L 786.6 19.3 L 786.6 40.8 C 786.6 40.8 787.13 40.8 787.1 40.8 C 787.6 40 788.3 39.1 789.2 37.9 C 790.1 36.7 791.3 35.6 793 34.7 C 794.7 33.8 796.9 33.3 799.7 33.3 C 803.4 33.3 806.7 34.2 809.5 36.1 C 812.3 37.9 814.5 40.5 816 43.9 C 817.6 47.2 818.4 51.2 818.4 55.8 C 818.4 60.4 817.6 64.4 816 67.8 C 814.5 71.2 812.3 73.8 809.5 75.6 C 806.7 77.5 803.5 78.4 799.9 78.4 C 797.1 78.4 794.8 77.9 793.1 77 C 791.4 76.1 790.1 75 789.2 73.8 C 788.3 72.6 787.6 71.6 787.1 70.8 C 787.13 70.8 786.3 70.8 786.3 70.8 L 786.3 77.5 L 779.9 77.5 Z M 786.5 55.7 C 786.5 59 786.9 61.9 787.9 64.4 C 788.9 66.9 790.3 68.9 792.1 70.3 C 794 71.7 796.3 72.4 799 72.4 C 801.8 72.4 804.1 71.6 806 70.2 C 807.9 68.7 809.3 66.7 810.2 64.1 C 811.2 61.6 811.7 58.8 811.7 55.7 C 811.7 52.6 811.2 49.8 810.3 47.4 C 809.3 44.9 807.9 42.9 806 41.5 C 804.2 40 801.8 39.3 799 39.3 C 796.2 39.3 793.9 40 792.1 41.4 C 790.2 42.8 788.8 44.7 787.9 47.1 C 786.9 49.6 786.5 52.4 786.5 55.7 Z M 844.7 78.4 C 840.8 78.4 837.3 77.5 834.3 75.6 C 831.4 73.7 829.1 71.1 827.4 67.7 C 825.8 64.4 824.9 60.4 824.9 55.9 C 824.9 51.4 825.8 47.4 827.4 44 C 829.1 40.6 831.4 38 834.3 36.1 C 837.3 34.2 840.8 33.3 844.7 33.3 C 848.6 33.3 852.1 34.2 855.1 36.1 C 858 38 860.3 40.6 862 44 C 863.6 47.4 864.5 51.4 864.5 55.9 C 864.5 60.4 863.6 64.4 862 67.7 C 860.3 71.1 858 73.7 855.1 75.6 C 852.1 77.5 848.6 78.4 844.7 78.4 Z M 844.7 72.4 C 847.7 72.4 850.2 71.6 852.1 70.1 C 854 68.6 855.5 66.5 856.4 64 C 857.3 61.5 857.8 58.8 857.8 55.9 C 857.8 53 857.3 50.3 856.4 47.8 C 855.5 45.2 854 43.2 852.1 41.6 C 850.2 40.1 847.7 39.3 844.7 39.3 C 841.7 39.3 839.2 40.1 837.3 41.6 C 835.4 43.2 834 45.2 833 47.8 C 832.1 50.3 831.6 53 831.6 55.9 C 831.6 58.8 832.1 61.5 833 64 C 834 66.5 835.4 68.6 837.3 70.1 C 839.2 71.6 841.7 72.4 844.7 72.4 Z M 900.4 59.7 C 900.39 59.66 900.4 33.9 900.4 33.9 L 907.1 33.9 L 907.1 77.5 L 900.4 77.5 L 900.4 70.1 C 900.4 70.1 899.93 70.11 899.9 70.1 C 898.9 72.3 897.3 74.2 895.2 75.8 C 893 77.3 890.3 78.1 887 78.1 C 884.3 78.1 881.8 77.5 879.7 76.3 C 877.6 75.1 875.9 73.2 874.7 70.8 C 873.5 68.4 872.9 65.3 872.9 61.6 C 872.89 61.59 872.9 33.9 872.9 33.9 L 879.6 33.9 C 879.6 33.9 879.59 61.14 879.6 61.1 C 879.6 64.3 880.5 66.9 882.3 68.8 C 884.1 70.6 886.4 71.6 889.1 71.6 C 890.8 71.6 892.5 71.2 894.2 70.3 C 896 69.5 897.4 68.2 898.6 66.4 C 899.8 64.6 900.4 62.4 900.4 59.7 Z M 936.5 33.9 L 936.5 39.5 L 913.9 39.5 L 913.9 33.9 L 936.5 33.9 Z M 920.5 23.4 L 927.2 23.4 C 927.2 23.4 927.17 65 927.2 65 C 927.2 66.9 927.4 68.3 928 69.2 C 928.6 70.2 929.3 70.8 930.2 71.1 C 931 71.4 932 71.6 933 71.6 C 933.7 71.6 934.3 71.5 934.8 71.5 C 935.3 71.4 935.6 71.3 935.9 71.3 C 935.9 71.3 937.3 77.3 937.3 77.3 C 936.8 77.4 936.2 77.6 935.4 77.8 C 934.6 78 933.5 78.1 932.3 78.1 C 930.4 78.1 928.5 77.7 926.7 76.8 C 924.9 76 923.4 74.8 922.2 73.1 C 921.1 71.5 920.5 69.4 920.5 66.8 C 920.46 66.82 920.5 23.4 920.5 23.4 Z M 969.1 77.5 L 969.1 33.9 L 975.8 33.9 L 975.8 77.5 L 969.1 77.5 Z M 972.5 26.6 C 971.2 26.6 970.1 26.1 969.1 25.3 C 968.2 24.4 967.7 23.3 967.7 22 C 967.7 20.8 968.2 19.7 969.1 18.8 C 970.1 17.9 971.2 17.5 972.5 17.5 C 973.8 17.5 974.9 17.9 975.9 18.8 C 976.8 19.7 977.3 20.8 977.3 22 C 977.3 23.3 976.8 24.4 975.9 25.3 C 974.9 26.1 973.8 26.6 972.5 26.6 Z M 1005.2 33.9 L 1005.2 39.5 L 982.6 39.5 L 982.6 33.9 L 1005.2 33.9 Z M 989.2 23.4 L 995.9 23.4 C 995.9 23.4 995.86 65 995.9 65 C 995.9 66.9 996.1 68.3 996.7 69.2 C 997.3 70.2 998 70.8 998.9 71.1 C 999.7 71.4 1000.7 71.6 1001.7 71.6 C 1002.4 71.6 1003 71.5 1003.5 71.5 C 1004 71.4 1004.3 71.3 1004.6 71.3 C 1004.6 71.3 1006 77.3 1006 77.3 C 1005.5 77.4 1004.9 77.6 1004.1 77.8 C 1003.3 78 1002.2 78.1 1001 78.1 C 999.1 78.1 997.2 77.7 995.4 76.8 C 993.6 76 992.1 74.8 990.9 73.1 C 989.8 71.5 989.2 69.4 989.2 66.8 C 989.16 66.82 989.2 23.4 989.2 23.4 Z M 1018.1 78 C 1016.7 78 1015.5 77.5 1014.5 76.4 C 1013.4 75.4 1012.9 74.2 1012.9 72.8 C 1012.9 71.4 1013.4 70.2 1014.5 69.2 C 1015.5 68.2 1016.7 67.7 1018.1 67.7 C 1019.5 67.7 1020.7 68.2 1021.7 69.2 C 1022.7 70.2 1023.2 71.4 1023.2 72.8 C 1023.2 73.8 1022.9 74.6 1022.5 75.4 C 1022 76.2 1021.4 76.8 1020.6 77.3 C 1019.9 77.7 1019 78 1018.1 78 Z " stroke="none" fill="#ffffff"/>  </g></svg>