<?xml version="1.0" standalone="no"?><!DOCTYPE svg PUBLIC "-//W3C//DTD SVG 1.1//EN" "http://www.w3.org/Graphics/SVG/1.1/DTD/svg11.dtd"><svg xmlns="http://www.w3.org/2000/svg" version="1.1" width="563px" height="261.6px" viewBox="0 -7 563 261.6" style="top:-7px">  <desc>“ AI provides trusted insights, giving you confidence in your decisions.”</desc>  <defs/>  <g id="Polygon121997">    <path d="M 28.5 227 C 26.4 227 24.4 226.5 22.8 225.4 C 21.1 224.3 19.8 222.7 18.8 220.7 C 17.9 218.7 17.4 216.3 17.4 213.5 C 17.4 210.7 17.9 208.3 18.8 206.3 C 19.8 204.3 21.1 202.7 22.8 201.6 C 24.5 200.5 26.4 200 28.6 200 C 30.3 200 31.7 200.3 32.7 200.8 C 33.7 201.4 34.4 202 34.9 202.7 C 35.5 203.4 35.9 204 36.2 204.5 C 36.18 204.48 36.5 204.5 36.5 204.5 L 36.5 191.6 L 40.5 191.6 L 40.5 226.5 L 36.7 226.5 L 36.7 222.5 C 36.7 222.5 36.18 222.48 36.2 222.5 C 35.9 223 35.5 223.6 34.9 224.3 C 34.4 225 33.6 225.6 32.6 226.2 C 31.6 226.8 30.2 227 28.5 227 Z M 29.1 223.4 C 30.7 223.4 32.1 223 33.2 222.2 C 34.3 221.3 35.1 220.1 35.7 218.6 C 36.3 217.1 36.6 215.4 36.6 213.4 C 36.6 211.5 36.3 209.7 35.7 208.3 C 35.2 206.8 34.3 205.7 33.2 204.8 C 32.1 204 30.7 203.6 29.1 203.6 C 27.4 203.6 26 204 24.8 204.9 C 23.7 205.8 22.9 206.9 22.3 208.4 C 21.7 209.9 21.5 211.6 21.5 213.4 C 21.5 215.3 21.7 217 22.3 218.5 C 22.9 220 23.7 221.2 24.9 222.1 C 26 223 27.4 223.4 29.1 223.4 Z M 58.6 227 C 56.1 227 53.9 226.5 52.1 225.4 C 50.2 224.2 48.8 222.7 47.9 220.7 C 46.9 218.6 46.4 216.3 46.4 213.6 C 46.4 210.9 46.9 208.6 47.9 206.5 C 48.8 204.5 50.2 202.9 52 201.7 C 53.7 200.6 55.8 200 58.2 200 C 59.5 200 60.9 200.2 62.2 200.7 C 63.5 201.1 64.8 201.8 65.8 202.9 C 66.9 203.9 67.8 205.2 68.5 206.9 C 69.1 208.6 69.4 210.6 69.4 213.1 C 69.42 213.07 69.4 214.8 69.4 214.8 L 49.2 214.8 L 49.2 211.3 C 49.2 211.3 65.33 211.3 65.3 211.3 C 65.3 209.8 65 208.5 64.5 207.3 C 63.9 206.2 63 205.3 62 204.6 C 60.9 203.9 59.6 203.6 58.2 203.6 C 56.6 203.6 55.2 204 54 204.8 C 52.9 205.6 52 206.6 51.3 207.9 C 50.7 209.1 50.4 210.5 50.4 211.9 C 50.4 211.9 50.4 214.2 50.4 214.2 C 50.4 216.2 50.7 217.9 51.4 219.2 C 52.1 220.6 53.1 221.7 54.3 222.4 C 55.5 223.1 57 223.4 58.6 223.4 C 59.6 223.4 60.6 223.3 61.5 223 C 62.3 222.7 63.1 222.2 63.7 221.6 C 64.3 221 64.8 220.3 65.1 219.3 C 65.1 219.3 69 220.4 69 220.4 C 68.6 221.8 67.9 222.9 67 223.9 C 66 224.9 64.8 225.7 63.4 226.2 C 62 226.8 60.4 227 58.6 227 Z M 85.6 227 C 83.1 227 81 226.5 79.3 225.3 C 77.5 224.1 76.1 222.6 75.2 220.5 C 74.2 218.5 73.7 216.2 73.7 213.5 C 73.7 210.9 74.2 208.5 75.2 206.5 C 76.2 204.5 77.6 202.9 79.3 201.7 C 81.1 200.6 83.2 200 85.5 200 C 87.4 200 89 200.3 90.5 201 C 92 201.7 93.2 202.6 94.1 203.9 C 95.1 205.1 95.7 206.5 95.9 208.2 C 95.9 208.2 91.9 208.2 91.9 208.2 C 91.6 207 90.9 205.9 89.8 205 C 88.8 204.1 87.4 203.6 85.6 203.6 C 84 203.6 82.7 204 81.5 204.8 C 80.3 205.6 79.4 206.8 78.7 208.2 C 78.1 209.7 77.8 211.4 77.8 213.4 C 77.8 215.4 78.1 217.2 78.7 218.7 C 79.4 220.2 80.3 221.4 81.5 222.2 C 82.6 223 84 223.4 85.6 223.4 C 86.6 223.4 87.6 223.3 88.4 222.9 C 89.3 222.5 90 222 90.6 221.3 C 91.2 220.6 91.6 219.8 91.9 218.9 C 91.9 218.9 95.9 218.9 95.9 218.9 C 95.7 220.4 95.1 221.8 94.2 223 C 93.3 224.3 92.2 225.2 90.7 226 C 89.2 226.7 87.5 227 85.6 227 Z M 101.1 226.5 L 101.1 200.3 L 105.1 200.3 L 105.1 226.5 L 101.1 226.5 Z M 103.1 196 C 102.4 196 101.7 195.7 101.1 195.2 C 100.6 194.6 100.3 194 100.3 193.2 C 100.3 192.5 100.6 191.8 101.1 191.3 C 101.7 190.8 102.4 190.5 103.1 190.5 C 103.9 190.5 104.6 190.8 105.2 191.3 C 105.7 191.8 106 192.5 106 193.2 C 106 194 105.7 194.6 105.2 195.2 C 104.6 195.7 103.9 196 103.1 196 Z M 130.2 206.2 C 130.2 206.2 126.6 207.2 126.6 207.2 C 126.4 206.6 126 206 125.6 205.4 C 125.2 204.9 124.6 204.4 123.8 204 C 123.1 203.6 122.1 203.5 120.9 203.5 C 119.3 203.5 118 203.8 116.9 204.6 C 115.9 205.3 115.3 206.2 115.3 207.3 C 115.3 208.3 115.7 209.1 116.4 209.7 C 117.2 210.3 118.3 210.8 119.8 211.2 C 119.8 211.2 123.7 212.1 123.7 212.1 C 126.1 212.7 127.8 213.5 129 214.7 C 130.1 215.9 130.7 217.4 130.7 219.2 C 130.7 220.7 130.3 222 129.4 223.2 C 128.5 224.4 127.3 225.3 125.8 226 C 124.3 226.7 122.5 227 120.5 227 C 117.8 227 115.6 226.5 113.8 225.3 C 112.1 224.1 111 222.5 110.5 220.2 C 110.5 220.2 114.3 219.3 114.3 219.3 C 114.7 220.7 115.4 221.7 116.4 222.4 C 117.4 223.1 118.7 223.5 120.4 223.5 C 122.3 223.5 123.8 223.1 124.9 222.3 C 126 221.5 126.5 220.5 126.5 219.4 C 126.5 218.5 126.2 217.7 125.6 217.1 C 124.9 216.5 124 216 122.6 215.7 C 122.6 215.7 118.3 214.7 118.3 214.7 C 115.9 214.1 114.1 213.3 113 212.1 C 111.9 210.9 111.3 209.4 111.3 207.5 C 111.3 206.1 111.7 204.8 112.6 203.6 C 113.4 202.5 114.5 201.6 116 200.9 C 117.4 200.3 119.1 200 120.9 200 C 123.5 200 125.6 200.5 127 201.7 C 128.5 202.8 129.6 204.3 130.2 206.2 Z M 136 226.5 L 136 200.3 L 140 200.3 L 140 226.5 L 136 226.5 Z M 138 196 C 137.3 196 136.6 195.7 136 195.2 C 135.5 194.6 135.2 194 135.2 193.2 C 135.2 192.5 135.5 191.8 136 191.3 C 136.6 190.8 137.3 190.5 138 190.5 C 138.8 190.5 139.5 190.8 140.1 191.3 C 140.6 191.8 140.9 192.5 140.9 193.2 C 140.9 194 140.6 194.6 140.1 195.2 C 139.5 195.7 138.8 196 138 196 Z M 157.3 227 C 155 227 152.9 226.5 151.1 225.4 C 149.3 224.2 148 222.7 147 220.6 C 146 218.6 145.5 216.3 145.5 213.5 C 145.5 210.8 146 208.4 147 206.4 C 148 204.4 149.3 202.8 151.1 201.7 C 152.9 200.5 155 200 157.3 200 C 159.7 200 161.8 200.5 163.6 201.7 C 165.3 202.8 166.7 204.4 167.7 206.4 C 168.7 208.4 169.2 210.8 169.2 213.5 C 169.2 216.3 168.7 218.6 167.7 220.6 C 166.7 222.7 165.3 224.2 163.6 225.4 C 161.8 226.5 159.7 227 157.3 227 Z M 157.3 223.4 C 159.1 223.4 160.6 223 161.8 222.1 C 162.9 221.1 163.8 219.9 164.3 218.4 C 164.9 216.9 165.2 215.3 165.2 213.5 C 165.2 211.8 164.9 210.2 164.3 208.7 C 163.8 207.1 162.9 205.9 161.8 205 C 160.6 204.1 159.1 203.6 157.3 203.6 C 155.5 203.6 154.1 204.1 152.9 205 C 151.7 205.9 150.9 207.1 150.3 208.7 C 149.8 210.2 149.5 211.8 149.5 213.5 C 149.5 215.3 149.8 216.9 150.3 218.4 C 150.9 219.9 151.7 221.1 152.9 222.1 C 154.1 223 155.5 223.4 157.3 223.4 Z M 178.8 210.8 C 178.82 210.75 178.8 226.5 178.8 226.5 L 174.8 226.5 L 174.8 200.3 L 178.7 200.3 L 178.7 204.4 C 178.7 204.4 179.03 204.41 179 204.4 C 179.6 203.1 180.6 202 181.8 201.2 C 183.1 200.4 184.7 200 186.7 200 C 188.4 200 190 200.3 191.3 201.1 C 192.6 201.8 193.7 202.9 194.4 204.3 C 195.2 205.8 195.5 207.6 195.5 209.9 C 195.53 209.86 195.5 226.5 195.5 226.5 L 191.5 226.5 C 191.5 226.5 191.5 210.14 191.5 210.1 C 191.5 208.1 191 206.5 189.9 205.3 C 188.8 204.2 187.4 203.6 185.5 203.6 C 184.2 203.6 183.1 203.9 182.1 204.4 C 181.1 205 180.3 205.8 179.7 206.9 C 179.1 207.9 178.8 209.2 178.8 210.8 Z M 220.5 206.2 C 220.5 206.2 216.9 207.2 216.9 207.2 C 216.6 206.6 216.3 206 215.9 205.4 C 215.4 204.9 214.8 204.4 214.1 204 C 213.3 203.6 212.4 203.5 211.2 203.5 C 209.6 203.5 208.3 203.8 207.2 204.6 C 206.2 205.3 205.6 206.2 205.6 207.3 C 205.6 208.3 206 209.1 206.7 209.7 C 207.4 210.3 208.6 210.8 210.1 211.2 C 210.1 211.2 214 212.1 214 212.1 C 216.3 212.7 218.1 213.5 219.2 214.7 C 220.4 215.9 221 217.4 221 219.2 C 221 220.7 220.5 222 219.7 223.2 C 218.8 224.4 217.6 225.3 216.1 226 C 214.6 226.7 212.8 227 210.7 227 C 208.1 227 205.9 226.5 204.1 225.3 C 202.4 224.1 201.2 222.5 200.8 220.2 C 200.8 220.2 204.6 219.3 204.6 219.3 C 205 220.7 205.7 221.7 206.7 222.4 C 207.7 223.1 209 223.5 210.7 223.5 C 212.5 223.5 214 223.1 215.1 222.3 C 216.2 221.5 216.8 220.5 216.8 219.4 C 216.8 218.5 216.5 217.7 215.8 217.1 C 215.2 216.5 214.2 216 212.9 215.7 C 212.9 215.7 208.6 214.7 208.6 214.7 C 206.2 214.1 204.4 213.3 203.3 212.1 C 202.2 210.9 201.6 209.4 201.6 207.5 C 201.6 206.1 202 204.8 202.9 203.6 C 203.7 202.5 204.8 201.6 206.3 200.9 C 207.7 200.3 209.4 200 211.2 200 C 213.8 200 215.8 200.5 217.3 201.7 C 218.8 202.8 219.9 204.3 220.5 206.2 Z M 229.3 226.8 C 228.4 226.8 227.7 226.5 227.1 225.9 C 226.5 225.3 226.2 224.5 226.2 223.7 C 226.2 222.9 226.5 222.1 227.1 221.5 C 227.7 220.9 228.4 220.6 229.3 220.6 C 230.1 220.6 230.8 220.9 231.4 221.5 C 232 222.1 232.3 222.9 232.3 223.7 C 232.3 224.3 232.2 224.8 231.9 225.2 C 231.6 225.7 231.3 226.1 230.8 226.4 C 230.3 226.6 229.8 226.8 229.3 226.8 Z M 240.1 191.6 C 240.1 191.6 240.06 194.66 240.1 194.7 C 240.1 195.6 239.9 196.6 239.6 197.6 C 239.2 198.7 238.7 199.7 238.1 200.7 C 237.5 201.7 236.7 202.5 235.8 203.3 C 235.8 203.3 233.6 201.5 233.6 201.5 C 234.3 200.5 234.9 199.4 235.5 198.3 C 236 197.2 236.2 196 236.2 194.7 C 236.24 194.73 236.2 191.6 236.2 191.6 L 240.1 191.6 Z M 248.8 191.6 C 248.8 191.6 248.79 194.66 248.8 194.7 C 248.8 195.6 248.6 196.6 248.3 197.6 C 248 198.7 247.5 199.7 246.8 200.7 C 246.2 201.7 245.4 202.5 244.5 203.3 C 244.5 203.3 242.3 201.5 242.3 201.5 C 243 200.5 243.7 199.4 244.2 198.3 C 244.7 197.2 245 196 245 194.7 C 244.97 194.73 245 191.6 245 191.6 L 248.8 191.6 Z " stroke="none" fill="#ffffff"/>  </g>  <g id="Polygon121996">    <path d="M 29.3 167 C 26.8 167 24.7 166.5 23 165.3 C 21.2 164.1 19.8 162.6 18.9 160.5 C 17.9 158.5 17.4 156.2 17.4 153.5 C 17.4 150.9 17.9 148.5 18.9 146.5 C 19.9 144.5 21.3 142.9 23 141.7 C 24.8 140.6 26.9 140 29.2 140 C 31.1 140 32.7 140.3 34.2 141 C 35.7 141.7 36.9 142.6 37.8 143.9 C 38.8 145.1 39.4 146.5 39.6 148.2 C 39.6 148.2 35.6 148.2 35.6 148.2 C 35.3 147 34.6 145.9 33.5 145 C 32.5 144.1 31.1 143.6 29.3 143.6 C 27.7 143.6 26.4 144 25.2 144.8 C 24 145.6 23.1 146.8 22.4 148.2 C 21.8 149.7 21.5 151.4 21.5 153.4 C 21.5 155.4 21.8 157.2 22.4 158.7 C 23.1 160.2 24 161.4 25.1 162.2 C 26.3 163 27.7 163.4 29.3 163.4 C 30.3 163.4 31.3 163.3 32.1 162.9 C 33 162.5 33.7 162 34.3 161.3 C 34.9 160.6 35.3 159.8 35.6 158.9 C 35.6 158.9 39.6 158.9 39.6 158.9 C 39.4 160.4 38.8 161.8 37.9 163 C 37 164.3 35.8 165.2 34.4 166 C 32.9 166.7 31.2 167 29.3 167 Z M 55.3 167 C 53 167 50.9 166.5 49.1 165.4 C 47.3 164.2 45.9 162.7 44.9 160.6 C 44 158.6 43.5 156.3 43.5 153.5 C 43.5 150.8 44 148.4 44.9 146.4 C 45.9 144.4 47.3 142.8 49.1 141.7 C 50.9 140.5 53 140 55.3 140 C 57.7 140 59.8 140.5 61.5 141.7 C 63.3 142.8 64.7 144.4 65.7 146.4 C 66.7 148.4 67.2 150.8 67.2 153.5 C 67.2 156.3 66.7 158.6 65.7 160.6 C 64.7 162.7 63.3 164.2 61.5 165.4 C 59.8 166.5 57.7 167 55.3 167 Z M 55.3 163.4 C 57.1 163.4 58.6 163 59.8 162.1 C 60.9 161.1 61.8 159.9 62.3 158.4 C 62.9 156.9 63.2 155.3 63.2 153.5 C 63.2 151.8 62.9 150.2 62.3 148.7 C 61.8 147.1 60.9 145.9 59.8 145 C 58.6 144.1 57.1 143.6 55.3 143.6 C 53.5 143.6 52 144.1 50.9 145 C 49.7 145.9 48.9 147.1 48.3 148.7 C 47.8 150.2 47.5 151.8 47.5 153.5 C 47.5 155.3 47.8 156.9 48.3 158.4 C 48.9 159.9 49.7 161.1 50.9 162.1 C 52 163 53.5 163.4 55.3 163.4 Z M 76.8 150.8 C 76.8 150.75 76.8 166.5 76.8 166.5 L 72.8 166.5 L 72.8 140.3 L 76.7 140.3 L 76.7 144.4 C 76.7 144.4 77.01 144.41 77 144.4 C 77.6 143.1 78.6 142 79.8 141.2 C 81.1 140.4 82.7 140 84.6 140 C 86.4 140 88 140.3 89.3 141.1 C 90.6 141.8 91.7 142.9 92.4 144.3 C 93.1 145.8 93.5 147.6 93.5 149.9 C 93.51 149.86 93.5 166.5 93.5 166.5 L 89.5 166.5 C 89.5 166.5 89.49 150.14 89.5 150.1 C 89.5 148.1 89 146.5 87.9 145.3 C 86.8 144.2 85.4 143.6 83.5 143.6 C 82.2 143.6 81.1 143.9 80.1 144.4 C 79 145 78.3 145.8 77.7 146.9 C 77.1 147.9 76.8 149.2 76.8 150.8 Z M 111.4 140.3 L 111.4 143.7 L 97.3 143.7 L 97.3 140.3 L 111.4 140.3 Z M 101.5 166.5 C 101.5 166.5 101.49 136.7 101.5 136.7 C 101.5 135.2 101.8 134 102.6 133 C 103.3 132 104.2 131.2 105.3 130.7 C 106.4 130.2 107.6 130 108.9 130 C 109.8 130 110.7 130 111.3 130.2 C 111.9 130.4 112.4 130.5 112.7 130.6 C 112.7 130.6 111.5 134.1 111.5 134.1 C 111.3 134 111 134 110.7 133.9 C 110.3 133.8 109.8 133.7 109.3 133.7 C 107.9 133.7 107 134 106.4 134.7 C 105.8 135.4 105.5 136.4 105.5 137.7 C 105.52 137.66 105.5 166.5 105.5 166.5 L 101.5 166.5 Z M 116.9 166.5 L 116.9 140.3 L 121 140.3 L 121 166.5 L 116.9 166.5 Z M 119 136 C 118.2 136 117.5 135.7 117 135.2 C 116.4 134.6 116.1 134 116.1 133.2 C 116.1 132.5 116.4 131.8 117 131.3 C 117.5 130.8 118.2 130.5 119 130.5 C 119.8 130.5 120.4 130.8 121 131.3 C 121.6 131.8 121.9 132.5 121.9 133.2 C 121.9 134 121.6 134.6 121 135.2 C 120.4 135.7 119.8 136 119 136 Z M 137.5 167 C 135.4 167 133.4 166.5 131.8 165.4 C 130.1 164.3 128.8 162.7 127.8 160.7 C 126.9 158.7 126.4 156.3 126.4 153.5 C 126.4 150.7 126.9 148.3 127.8 146.3 C 128.8 144.3 130.1 142.7 131.8 141.6 C 133.5 140.5 135.4 140 137.6 140 C 139.3 140 140.7 140.3 141.7 140.8 C 142.6 141.4 143.4 142 143.9 142.7 C 144.5 143.4 144.9 144 145.2 144.5 C 145.18 144.48 145.5 144.5 145.5 144.5 L 145.5 131.6 L 149.5 131.6 L 149.5 166.5 L 145.7 166.5 L 145.7 162.5 C 145.7 162.5 145.18 162.48 145.2 162.5 C 144.9 163 144.5 163.6 143.9 164.3 C 143.4 165 142.6 165.6 141.6 166.2 C 140.6 166.8 139.2 167 137.5 167 Z M 138.1 163.4 C 139.7 163.4 141.1 163 142.2 162.2 C 143.3 161.3 144.1 160.1 144.7 158.6 C 145.3 157.1 145.6 155.4 145.6 153.4 C 145.6 151.5 145.3 149.7 144.7 148.3 C 144.2 146.8 143.3 145.7 142.2 144.8 C 141.1 144 139.7 143.6 138.1 143.6 C 136.4 143.6 135 144 133.8 144.9 C 132.7 145.8 131.9 146.9 131.3 148.4 C 130.7 149.9 130.4 151.6 130.4 153.4 C 130.4 155.3 130.7 157 131.3 158.5 C 131.9 160 132.7 161.2 133.9 162.1 C 135 163 136.4 163.4 138.1 163.4 Z M 167.6 167 C 165.1 167 162.9 166.5 161.1 165.4 C 159.2 164.2 157.8 162.7 156.8 160.7 C 155.9 158.6 155.4 156.3 155.4 153.6 C 155.4 150.9 155.9 148.6 156.8 146.5 C 157.8 144.5 159.2 142.9 161 141.7 C 162.7 140.6 164.8 140 167.2 140 C 168.5 140 169.9 140.2 171.2 140.7 C 172.5 141.1 173.7 141.8 174.8 142.9 C 175.9 143.9 176.8 145.2 177.4 146.9 C 178.1 148.6 178.4 150.6 178.4 153.1 C 178.42 153.07 178.4 154.8 178.4 154.8 L 158.2 154.8 L 158.2 151.3 C 158.2 151.3 174.32 151.3 174.3 151.3 C 174.3 149.8 174 148.5 173.4 147.3 C 172.9 146.2 172 145.3 171 144.6 C 169.9 143.9 168.6 143.6 167.2 143.6 C 165.6 143.6 164.2 144 163 144.8 C 161.9 145.6 161 146.6 160.3 147.9 C 159.7 149.1 159.4 150.5 159.4 151.9 C 159.4 151.9 159.4 154.2 159.4 154.2 C 159.4 156.2 159.7 157.9 160.4 159.2 C 161.1 160.6 162.1 161.7 163.3 162.4 C 164.5 163.1 165.9 163.4 167.6 163.4 C 168.6 163.4 169.6 163.3 170.4 163 C 171.3 162.7 172 162.2 172.7 161.6 C 173.3 161 173.8 160.3 174.1 159.3 C 174.1 159.3 178 160.4 178 160.4 C 177.6 161.8 176.9 162.9 175.9 163.9 C 175 164.9 173.8 165.7 172.4 166.2 C 170.9 166.8 169.3 167 167.6 167 Z M 188 150.8 C 188.04 150.75 188 166.5 188 166.5 L 184 166.5 L 184 140.3 L 187.9 140.3 L 187.9 144.4 C 187.9 144.4 188.25 144.41 188.2 144.4 C 188.9 143.1 189.8 142 191 141.2 C 192.3 140.4 193.9 140 195.9 140 C 197.7 140 199.2 140.3 200.5 141.1 C 201.9 141.8 202.9 142.9 203.6 144.3 C 204.4 145.8 204.7 147.6 204.7 149.9 C 204.75 149.86 204.7 166.5 204.7 166.5 L 200.7 166.5 C 200.7 166.5 200.72 150.14 200.7 150.1 C 200.7 148.1 200.2 146.5 199.1 145.3 C 198.1 144.2 196.6 143.6 194.7 143.6 C 193.4 143.6 192.3 143.9 191.3 144.4 C 190.3 145 189.5 145.8 188.9 146.9 C 188.3 147.9 188 149.2 188 150.8 Z M 222 167 C 219.6 167 217.4 166.5 215.7 165.3 C 213.9 164.1 212.5 162.6 211.6 160.5 C 210.6 158.5 210.2 156.2 210.2 153.5 C 210.2 150.9 210.6 148.5 211.6 146.5 C 212.6 144.5 214 142.9 215.8 141.7 C 217.5 140.6 219.6 140 221.9 140 C 223.8 140 225.4 140.3 226.9 141 C 228.4 141.7 229.6 142.6 230.6 143.9 C 231.5 145.1 232.1 146.5 232.3 148.2 C 232.3 148.2 228.3 148.2 228.3 148.2 C 228 147 227.3 145.9 226.3 145 C 225.2 144.1 223.8 143.6 222 143.6 C 220.4 143.6 219.1 144 217.9 144.8 C 216.7 145.6 215.8 146.8 215.2 148.2 C 214.5 149.7 214.2 151.4 214.2 153.4 C 214.2 155.4 214.5 157.2 215.1 158.7 C 215.8 160.2 216.7 161.4 217.9 162.2 C 219 163 220.4 163.4 222 163.4 C 223.1 163.4 224 163.3 224.9 162.9 C 225.7 162.5 226.4 162 227 161.3 C 227.6 160.6 228 159.8 228.3 158.9 C 228.3 158.9 232.3 158.9 232.3 158.9 C 232.1 160.4 231.5 161.8 230.6 163 C 229.7 164.3 228.6 165.2 227.1 166 C 225.6 166.7 223.9 167 222 167 Z M 248.4 167 C 245.9 167 243.7 166.5 241.9 165.4 C 240 164.2 238.6 162.7 237.6 160.7 C 236.7 158.6 236.2 156.3 236.2 153.6 C 236.2 150.9 236.7 148.6 237.6 146.5 C 238.6 144.5 240 142.9 241.8 141.7 C 243.5 140.6 245.6 140 248 140 C 249.3 140 250.7 140.2 252 140.7 C 253.3 141.1 254.6 141.8 255.6 142.9 C 256.7 143.9 257.6 145.2 258.2 146.9 C 258.9 148.6 259.2 150.6 259.2 153.1 C 259.22 153.07 259.2 154.8 259.2 154.8 L 239 154.8 L 239 151.3 C 239 151.3 255.13 151.3 255.1 151.3 C 255.1 149.8 254.8 148.5 254.3 147.3 C 253.7 146.2 252.8 145.3 251.8 144.6 C 250.7 143.9 249.4 143.6 248 143.6 C 246.4 143.6 245 144 243.8 144.8 C 242.7 145.6 241.8 146.6 241.1 147.9 C 240.5 149.1 240.2 150.5 240.2 151.9 C 240.2 151.9 240.2 154.2 240.2 154.2 C 240.2 156.2 240.5 157.9 241.2 159.2 C 241.9 160.6 242.9 161.7 244.1 162.4 C 245.3 163.1 246.8 163.4 248.4 163.4 C 249.4 163.4 250.4 163.3 251.3 163 C 252.1 162.7 252.9 162.2 253.5 161.6 C 254.1 161 254.6 160.3 254.9 159.3 C 254.9 159.3 258.8 160.4 258.8 160.4 C 258.4 161.8 257.7 162.9 256.7 163.9 C 255.8 164.9 254.6 165.7 253.2 166.2 C 251.7 166.8 250.2 167 248.4 167 Z M 278.9 166.5 L 278.9 140.3 L 282.9 140.3 L 282.9 166.5 L 278.9 166.5 Z M 280.9 136 C 280.1 136 279.4 135.7 278.9 135.2 C 278.3 134.6 278 134 278 133.2 C 278 132.5 278.3 131.8 278.9 131.3 C 279.4 130.8 280.1 130.5 280.9 130.5 C 281.7 130.5 282.4 130.8 282.9 131.3 C 283.5 131.8 283.8 132.5 283.8 133.2 C 283.8 134 283.5 134.6 282.9 135.2 C 282.4 135.7 281.7 136 280.9 136 Z M 293.8 150.8 C 293.75 150.75 293.8 166.5 293.8 166.5 L 289.7 166.5 L 289.7 140.3 L 293.6 140.3 L 293.6 144.4 C 293.6 144.4 293.96 144.41 294 144.4 C 294.6 143.1 295.5 142 296.8 141.2 C 298 140.4 299.6 140 301.6 140 C 303.4 140 304.9 140.3 306.2 141.1 C 307.6 141.8 308.6 142.9 309.3 144.3 C 310.1 145.8 310.5 147.6 310.5 149.9 C 310.46 149.86 310.5 166.5 310.5 166.5 L 306.4 166.5 C 306.4 166.5 306.43 150.14 306.4 150.1 C 306.4 148.1 305.9 146.5 304.8 145.3 C 303.8 144.2 302.3 143.6 300.4 143.6 C 299.1 143.6 298 143.9 297 144.4 C 296 145 295.2 145.8 294.6 146.9 C 294 147.9 293.8 149.2 293.8 150.8 Z M 333.9 176.3 C 333.2 176.3 332.6 176.3 332.1 176.2 C 331.6 176 331.2 175.9 331 175.8 C 331 175.8 332 172.3 332 172.3 C 333 172.5 333.8 172.6 334.6 172.6 C 335.3 172.5 336 172.2 336.6 171.6 C 337.2 171 337.7 170 338.2 168.7 C 338.21 168.68 339 166.6 339 166.6 L 329.3 140.3 L 333.6 140.3 L 340.9 161.2 L 341.1 161.2 L 348.4 140.3 L 352.7 140.3 C 352.7 140.3 341.62 170.32 341.6 170.3 C 341.1 171.7 340.5 172.8 339.8 173.7 C 339 174.6 338.2 175.2 337.2 175.7 C 336.2 176.1 335.1 176.3 333.9 176.3 Z M 366.8 167 C 364.4 167 362.3 166.5 360.6 165.4 C 358.8 164.2 357.4 162.7 356.4 160.6 C 355.4 158.6 354.9 156.3 354.9 153.5 C 354.9 150.8 355.4 148.4 356.4 146.4 C 357.4 144.4 358.8 142.8 360.6 141.7 C 362.3 140.5 364.4 140 366.8 140 C 369.1 140 371.2 140.5 373 141.7 C 374.8 142.8 376.2 144.4 377.2 146.4 C 378.1 148.4 378.6 150.8 378.6 153.5 C 378.6 156.3 378.1 158.6 377.2 160.6 C 376.2 162.7 374.8 164.2 373 165.4 C 371.2 166.5 369.1 167 366.8 167 Z M 366.8 163.4 C 368.6 163.4 370.1 163 371.2 162.1 C 372.4 161.1 373.2 159.9 373.8 158.4 C 374.3 156.9 374.6 155.3 374.6 153.5 C 374.6 151.8 374.3 150.2 373.8 148.7 C 373.2 147.1 372.4 145.9 371.2 145 C 370.1 144.1 368.6 143.6 366.8 143.6 C 365 143.6 363.5 144.1 362.4 145 C 361.2 145.9 360.3 147.1 359.8 148.7 C 359.2 150.2 358.9 151.8 358.9 153.5 C 358.9 155.3 359.2 156.9 359.8 158.4 C 360.3 159.9 361.2 161.1 362.4 162.1 C 363.5 163 365 163.4 366.8 163.4 Z M 400.6 155.8 C 400.57 155.8 400.6 140.3 400.6 140.3 L 404.6 140.3 L 404.6 166.5 L 400.6 166.5 L 400.6 162.1 C 400.6 162.1 400.3 162.07 400.3 162.1 C 399.7 163.4 398.7 164.5 397.4 165.5 C 396.1 166.4 394.5 166.8 392.5 166.8 C 390.9 166.8 389.4 166.5 388.2 165.8 C 386.9 165 385.9 163.9 385.2 162.5 C 384.4 161 384.1 159.2 384.1 157 C 384.07 156.95 384.1 140.3 384.1 140.3 L 388.1 140.3 C 388.1 140.3 388.09 156.68 388.1 156.7 C 388.1 158.6 388.6 160.1 389.7 161.3 C 390.8 162.4 392.2 163 393.8 163 C 394.8 163 395.8 162.7 396.9 162.2 C 397.9 161.7 398.8 160.9 399.5 159.8 C 400.2 158.8 400.6 157.4 400.6 155.8 Z M 411.4 166.5 L 411.4 140.3 L 415.3 140.3 L 415.3 144.3 C 415.3 144.3 415.58 144.27 415.6 144.3 C 416.1 143 416.9 141.9 418.2 141.1 C 419.4 140.3 420.8 139.9 422.4 139.9 C 422.7 139.9 423.1 139.9 423.5 139.9 C 423.9 139.9 424.3 140 424.5 140 C 424.5 140 424.5 144.1 424.5 144.1 C 424.4 144 424.1 144 423.6 143.9 C 423.1 143.8 422.6 143.8 422.1 143.8 C 420.8 143.8 419.7 144.1 418.7 144.6 C 417.7 145.1 416.9 145.8 416.3 146.8 C 415.7 147.7 415.4 148.8 415.4 149.9 C 415.44 149.93 415.4 166.5 415.4 166.5 L 411.4 166.5 Z " stroke="none" fill="#ffffff"/>  </g>  <g id="Polygon121995">    <path d="M 18.7 106.5 L 18.7 80.3 L 22.7 80.3 L 22.7 106.5 L 18.7 106.5 Z M 20.7 76 C 19.9 76 19.2 75.7 18.7 75.2 C 18.1 74.6 17.8 74 17.8 73.2 C 17.8 72.5 18.1 71.8 18.7 71.3 C 19.2 70.8 19.9 70.5 20.7 70.5 C 21.5 70.5 22.2 70.8 22.7 71.3 C 23.3 71.8 23.6 72.5 23.6 73.2 C 23.6 74 23.3 74.6 22.7 75.2 C 22.2 75.7 21.5 76 20.7 76 Z M 33.6 90.8 C 33.56 90.75 33.6 106.5 33.6 106.5 L 29.5 106.5 L 29.5 80.3 L 33.4 80.3 L 33.4 84.4 C 33.4 84.4 33.76 84.41 33.8 84.4 C 34.4 83.1 35.3 82 36.6 81.2 C 37.8 80.4 39.4 80 41.4 80 C 43.2 80 44.7 80.3 46.1 81.1 C 47.4 81.8 48.4 82.9 49.2 84.3 C 49.9 85.8 50.3 87.6 50.3 89.9 C 50.26 89.86 50.3 106.5 50.3 106.5 L 46.2 106.5 C 46.2 106.5 46.24 90.14 46.2 90.1 C 46.2 88.1 45.7 86.5 44.6 85.3 C 43.6 84.2 42.1 83.6 40.2 83.6 C 39 83.6 37.8 83.9 36.8 84.4 C 35.8 85 35 85.8 34.4 86.9 C 33.8 87.9 33.6 89.2 33.6 90.8 Z M 75.2 86.2 C 75.2 86.2 71.6 87.2 71.6 87.2 C 71.4 86.6 71 86 70.6 85.4 C 70.2 84.9 69.6 84.4 68.8 84 C 68.1 83.6 67.1 83.5 65.9 83.5 C 64.3 83.5 63 83.8 61.9 84.6 C 60.9 85.3 60.4 86.2 60.4 87.3 C 60.4 88.3 60.7 89.1 61.4 89.7 C 62.2 90.3 63.3 90.8 64.9 91.2 C 64.9 91.2 68.7 92.1 68.7 92.1 C 71.1 92.7 72.8 93.5 74 94.7 C 75.1 95.9 75.7 97.4 75.7 99.2 C 75.7 100.7 75.3 102 74.4 103.2 C 73.6 104.4 72.4 105.3 70.8 106 C 69.3 106.7 67.5 107 65.5 107 C 62.8 107 60.6 106.5 58.8 105.3 C 57.1 104.1 56 102.5 55.5 100.2 C 55.5 100.2 59.3 99.3 59.3 99.3 C 59.7 100.7 60.4 101.7 61.4 102.4 C 62.4 103.1 63.8 103.5 65.4 103.5 C 67.3 103.5 68.8 103.1 69.9 102.3 C 71 101.5 71.5 100.5 71.5 99.4 C 71.5 98.5 71.2 97.7 70.6 97.1 C 69.9 96.5 69 96 67.7 95.7 C 67.7 95.7 63.3 94.7 63.3 94.7 C 60.9 94.1 59.1 93.3 58 92.1 C 56.9 90.9 56.3 89.4 56.3 87.5 C 56.3 86.1 56.8 84.8 57.6 83.6 C 58.4 82.5 59.6 81.6 61 80.9 C 62.5 80.3 64.1 80 65.9 80 C 68.5 80 70.6 80.5 72.1 81.7 C 73.5 82.8 74.6 84.3 75.2 86.2 Z M 81 106.5 L 81 80.3 L 85 80.3 L 85 106.5 L 81 106.5 Z M 83.1 76 C 82.3 76 81.6 75.7 81 75.2 C 80.5 74.6 80.2 74 80.2 73.2 C 80.2 72.5 80.5 71.8 81 71.3 C 81.6 70.8 82.3 70.5 83.1 70.5 C 83.8 70.5 84.5 70.8 85.1 71.3 C 85.6 71.8 85.9 72.5 85.9 73.2 C 85.9 74 85.6 74.6 85.1 75.2 C 84.5 75.7 83.8 76 83.1 76 Z M 102.3 116.9 C 100.3 116.9 98.7 116.6 97.3 116.1 C 95.9 115.6 94.7 115 93.8 114.2 C 92.9 113.4 92.1 112.5 91.6 111.6 C 91.6 111.6 94.8 109.4 94.8 109.4 C 95.1 109.8 95.6 110.4 96.2 111 C 96.7 111.6 97.5 112.2 98.5 112.6 C 99.4 113.1 100.7 113.3 102.3 113.3 C 104.4 113.3 106.1 112.8 107.5 111.8 C 108.9 110.8 109.6 109.2 109.6 107 C 109.58 106.98 109.6 101.7 109.6 101.7 C 109.6 101.7 109.24 101.66 109.2 101.7 C 108.9 102.1 108.5 102.7 108 103.4 C 107.4 104.1 106.7 104.7 105.7 105.3 C 104.7 105.8 103.3 106.1 101.6 106.1 C 99.5 106.1 97.6 105.6 95.9 104.6 C 94.2 103.6 92.9 102.1 91.9 100.2 C 91 98.3 90.5 96 90.5 93.3 C 90.5 90.6 91 88.3 91.9 86.3 C 92.8 84.3 94.2 82.7 95.8 81.6 C 97.5 80.5 99.5 80 101.7 80 C 103.4 80 104.7 80.3 105.7 80.8 C 106.7 81.4 107.5 82 108.1 82.7 C 108.6 83.4 109 84 109.3 84.5 C 109.31 84.48 109.7 84.5 109.7 84.5 L 109.7 80.3 L 113.6 80.3 C 113.6 80.3 113.6 107.25 113.6 107.3 C 113.6 109.5 113.1 111.3 112.1 112.7 C 111.1 114.2 109.7 115.2 108 115.9 C 106.3 116.5 104.4 116.9 102.3 116.9 Z M 102.1 102.5 C 103.8 102.5 105.1 102.1 106.2 101.4 C 107.4 100.6 108.2 99.6 108.8 98.2 C 109.4 96.8 109.6 95.1 109.6 93.2 C 109.6 91.3 109.4 89.7 108.8 88.2 C 108.2 86.8 107.4 85.6 106.3 84.8 C 105.2 84 103.8 83.6 102.1 83.6 C 100.4 83.6 99 84 97.9 84.9 C 96.8 85.8 95.9 86.9 95.4 88.4 C 94.8 89.8 94.5 91.4 94.5 93.2 C 94.5 95 94.8 96.6 95.4 98 C 95.9 99.4 96.8 100.5 97.9 101.3 C 99.1 102.1 100.5 102.5 102.1 102.5 Z M 124.4 90.8 C 124.44 90.75 124.4 106.5 124.4 106.5 L 120.4 106.5 L 120.4 71.6 L 124.4 71.6 L 124.4 84.4 C 124.4 84.4 124.78 84.41 124.8 84.4 C 125.4 83.1 126.3 82 127.6 81.2 C 128.8 80.4 130.4 80 132.5 80 C 134.3 80 135.8 80.3 137.2 81 C 138.5 81.8 139.6 82.8 140.3 84.3 C 141 85.8 141.4 87.6 141.4 89.9 C 141.42 89.86 141.4 106.5 141.4 106.5 L 137.4 106.5 C 137.4 106.5 137.4 90.14 137.4 90.1 C 137.4 88.1 136.9 86.4 135.8 85.3 C 134.7 84.2 133.2 83.6 131.3 83.6 C 130 83.6 128.8 83.9 127.8 84.4 C 126.8 85 125.9 85.8 125.3 86.9 C 124.7 87.9 124.4 89.2 124.4 90.8 Z M 158.9 80.3 L 158.9 83.7 L 145.3 83.7 L 145.3 80.3 L 158.9 80.3 Z M 149.3 74 L 153.3 74 C 153.3 74 153.28 99 153.3 99 C 153.3 100.1 153.4 101 153.8 101.5 C 154.1 102.1 154.6 102.5 155.1 102.7 C 155.6 102.9 156.2 103 156.8 103 C 157.2 103 157.6 102.9 157.8 102.9 C 158.1 102.8 158.4 102.8 158.5 102.8 C 158.5 102.8 159.3 106.4 159.3 106.4 C 159.1 106.5 158.7 106.6 158.2 106.7 C 157.7 106.8 157.1 106.8 156.3 106.8 C 155.2 106.8 154.1 106.6 153 106.1 C 151.9 105.6 151 104.9 150.3 103.9 C 149.6 102.9 149.3 101.6 149.3 100.1 C 149.26 100.09 149.3 74 149.3 74 Z M 182.4 86.2 C 182.4 86.2 178.8 87.2 178.8 87.2 C 178.6 86.6 178.3 86 177.8 85.4 C 177.4 84.9 176.8 84.4 176 84 C 175.3 83.6 174.3 83.5 173.2 83.5 C 171.6 83.5 170.2 83.8 169.2 84.6 C 168.1 85.3 167.6 86.2 167.6 87.3 C 167.6 88.3 167.9 89.1 168.7 89.7 C 169.4 90.3 170.5 90.8 172.1 91.2 C 172.1 91.2 176 92.1 176 92.1 C 178.3 92.7 180 93.5 181.2 94.7 C 182.3 95.9 182.9 97.4 182.9 99.2 C 182.9 100.7 182.5 102 181.6 103.2 C 180.8 104.4 179.6 105.3 178 106 C 176.5 106.7 174.7 107 172.7 107 C 170 107 167.8 106.5 166 105.3 C 164.3 104.1 163.2 102.5 162.7 100.2 C 162.7 100.2 166.5 99.3 166.5 99.3 C 166.9 100.7 167.6 101.7 168.6 102.4 C 169.6 103.1 171 103.5 172.6 103.5 C 174.5 103.5 176 103.1 177.1 102.3 C 178.2 101.5 178.7 100.5 178.7 99.4 C 178.7 98.5 178.4 97.7 177.8 97.1 C 177.2 96.5 176.2 96 174.9 95.7 C 174.9 95.7 170.5 94.7 170.5 94.7 C 168.1 94.1 166.3 93.3 165.2 92.1 C 164.1 90.9 163.5 89.4 163.5 87.5 C 163.5 86.1 164 84.8 164.8 83.6 C 165.6 82.5 166.8 81.6 168.2 80.9 C 169.7 80.3 171.3 80 173.2 80 C 175.7 80 177.8 80.5 179.3 81.7 C 180.8 82.8 181.8 84.3 182.4 86.2 Z M 193.9 101.7 C 193.9 101.7 193.58 103.57 193.6 103.6 C 193.4 104.9 193.1 106.3 192.7 107.7 C 192.3 109.2 191.9 110.6 191.5 111.9 C 191.1 113.2 190.7 114.2 190.4 115 C 190.4 115 187.4 115 187.4 115 C 187.5 114.3 187.7 113.3 188 112.1 C 188.2 110.9 188.4 109.6 188.7 108.1 C 188.9 106.7 189.1 105.2 189.3 103.6 C 189.28 103.64 189.5 101.7 189.5 101.7 L 193.9 101.7 Z M 225.4 116.9 C 223.4 116.9 221.7 116.6 220.3 116.1 C 218.9 115.6 217.8 115 216.9 114.2 C 215.9 113.4 215.2 112.5 214.6 111.6 C 214.6 111.6 217.9 109.4 217.9 109.4 C 218.2 109.8 218.7 110.4 219.2 111 C 219.8 111.6 220.6 112.2 221.5 112.6 C 222.5 113.1 223.8 113.3 225.4 113.3 C 227.5 113.3 229.2 112.8 230.6 111.8 C 232 110.8 232.6 109.2 232.6 107 C 232.65 106.98 232.6 101.7 232.6 101.7 C 232.6 101.7 232.31 101.66 232.3 101.7 C 232 102.1 231.6 102.7 231.1 103.4 C 230.5 104.1 229.7 104.7 228.7 105.3 C 227.7 105.8 226.4 106.1 224.7 106.1 C 222.6 106.1 220.7 105.6 219 104.6 C 217.3 103.6 216 102.1 215 100.2 C 214 98.3 213.6 96 213.6 93.3 C 213.6 90.6 214 88.3 215 86.3 C 215.9 84.3 217.2 82.7 218.9 81.6 C 220.6 80.5 222.5 80 224.7 80 C 226.4 80 227.8 80.3 228.8 80.8 C 229.8 81.4 230.6 82 231.1 82.7 C 231.7 83.4 232.1 84 232.4 84.5 C 232.37 84.48 232.8 84.5 232.8 84.5 L 232.8 80.3 L 236.7 80.3 C 236.7 80.3 236.67 107.25 236.7 107.3 C 236.7 109.5 236.2 111.3 235.1 112.7 C 234.1 114.2 232.8 115.2 231.1 115.9 C 229.3 116.5 227.4 116.9 225.4 116.9 Z M 225.2 102.5 C 226.8 102.5 228.2 102.1 229.3 101.4 C 230.4 100.6 231.3 99.6 231.8 98.2 C 232.4 96.8 232.7 95.1 232.7 93.2 C 232.7 91.3 232.4 89.7 231.9 88.2 C 231.3 86.8 230.5 85.6 229.3 84.8 C 228.2 84 226.9 83.6 225.2 83.6 C 223.5 83.6 222.1 84 221 84.9 C 219.8 85.8 219 86.9 218.4 88.4 C 217.9 89.8 217.6 91.4 217.6 93.2 C 217.6 95 217.9 96.6 218.4 98 C 219 99.4 219.9 100.5 221 101.3 C 222.1 102.1 223.5 102.5 225.2 102.5 Z M 243.5 106.5 L 243.5 80.3 L 247.5 80.3 L 247.5 106.5 L 243.5 106.5 Z M 245.5 76 C 244.8 76 244.1 75.7 243.5 75.2 C 243 74.6 242.7 74 242.7 73.2 C 242.7 72.5 243 71.8 243.5 71.3 C 244.1 70.8 244.8 70.5 245.5 70.5 C 246.3 70.5 247 70.8 247.6 71.3 C 248.1 71.8 248.4 72.5 248.4 73.2 C 248.4 74 248.1 74.6 247.6 75.2 C 247 75.7 246.3 76 245.5 76 Z M 275.5 80.3 L 265.8 106.5 L 261.7 106.5 L 252 80.3 L 256.4 80.3 L 263.6 101.2 L 263.9 101.2 L 271.1 80.3 L 275.5 80.3 Z M 280 106.5 L 280 80.3 L 284 80.3 L 284 106.5 L 280 106.5 Z M 282 76 C 281.2 76 280.6 75.7 280 75.2 C 279.4 74.6 279.2 74 279.2 73.2 C 279.2 72.5 279.4 71.8 280 71.3 C 280.6 70.8 281.2 70.5 282 70.5 C 282.8 70.5 283.5 70.8 284 71.3 C 284.6 71.8 284.9 72.5 284.9 73.2 C 284.9 74 284.6 74.6 284 75.2 C 283.5 75.7 282.8 76 282 76 Z M 294.9 90.8 C 294.87 90.75 294.9 106.5 294.9 106.5 L 290.8 106.5 L 290.8 80.3 L 294.7 80.3 L 294.7 84.4 C 294.7 84.4 295.08 84.41 295.1 84.4 C 295.7 83.1 296.6 82 297.9 81.2 C 299.1 80.4 300.7 80 302.7 80 C 304.5 80 306 80.3 307.4 81.1 C 308.7 81.8 309.7 82.9 310.5 84.3 C 311.2 85.8 311.6 87.6 311.6 89.9 C 311.58 89.86 311.6 106.5 311.6 106.5 L 307.6 106.5 C 307.6 106.5 307.55 90.14 307.6 90.1 C 307.6 88.1 307 86.5 306 85.3 C 304.9 84.2 303.4 83.6 301.6 83.6 C 300.3 83.6 299.1 83.9 298.1 84.4 C 297.1 85 296.3 85.8 295.7 86.9 C 295.2 87.9 294.9 89.2 294.9 90.8 Z M 328.8 116.9 C 326.8 116.9 325.2 116.6 323.8 116.1 C 322.4 115.6 321.2 115 320.3 114.2 C 319.4 113.4 318.6 112.5 318.1 111.6 C 318.1 111.6 321.3 109.4 321.3 109.4 C 321.6 109.8 322.1 110.4 322.7 111 C 323.2 111.6 324 112.2 325 112.6 C 325.9 113.1 327.2 113.3 328.8 113.3 C 330.9 113.3 332.6 112.8 334 111.8 C 335.4 110.8 336.1 109.2 336.1 107 C 336.07 106.98 336.1 101.7 336.1 101.7 C 336.1 101.7 335.73 101.66 335.7 101.7 C 335.4 102.1 335 102.7 334.5 103.4 C 333.9 104.1 333.2 104.7 332.2 105.3 C 331.2 105.8 329.8 106.1 328.1 106.1 C 326 106.1 324.1 105.6 322.4 104.6 C 320.7 103.6 319.4 102.1 318.4 100.2 C 317.5 98.3 317 96 317 93.3 C 317 90.6 317.5 88.3 318.4 86.3 C 319.3 84.3 320.7 82.7 322.3 81.6 C 324 80.5 326 80 328.2 80 C 329.9 80 331.2 80.3 332.2 80.8 C 333.2 81.4 334 82 334.5 82.7 C 335.1 83.4 335.5 84 335.8 84.5 C 335.8 84.48 336.2 84.5 336.2 84.5 L 336.2 80.3 L 340.1 80.3 C 340.1 80.3 340.1 107.25 340.1 107.3 C 340.1 109.5 339.6 111.3 338.6 112.7 C 337.6 114.2 336.2 115.2 334.5 115.9 C 332.8 116.5 330.9 116.9 328.8 116.9 Z M 328.6 102.5 C 330.3 102.5 331.6 102.1 332.7 101.4 C 333.8 100.6 334.7 99.6 335.3 98.2 C 335.9 96.8 336.1 95.1 336.1 93.2 C 336.1 91.3 335.9 89.7 335.3 88.2 C 334.7 86.8 333.9 85.6 332.8 84.8 C 331.7 84 330.3 83.6 328.6 83.6 C 326.9 83.6 325.5 84 324.4 84.9 C 323.3 85.8 322.4 86.9 321.8 88.4 C 321.3 89.8 321 91.4 321 93.2 C 321 95 321.3 96.6 321.9 98 C 322.4 99.4 323.3 100.5 324.4 101.3 C 325.6 102.1 327 102.5 328.6 102.5 Z M 363.6 116.3 C 362.9 116.3 362.3 116.3 361.7 116.2 C 361.2 116 360.8 115.9 360.6 115.8 C 360.6 115.8 361.6 112.3 361.6 112.3 C 362.6 112.5 363.5 112.6 364.2 112.6 C 365 112.5 365.6 112.2 366.2 111.6 C 366.8 111 367.4 110 367.8 108.7 C 367.85 108.68 368.6 106.6 368.6 106.6 L 358.9 80.3 L 363.3 80.3 L 370.5 101.2 L 370.8 101.2 L 378 80.3 L 382.4 80.3 C 382.4 80.3 371.26 110.32 371.3 110.3 C 370.8 111.7 370.1 112.8 369.4 113.7 C 368.7 114.6 367.8 115.2 366.8 115.7 C 365.9 116.1 364.8 116.3 363.6 116.3 Z M 396.4 107 C 394.1 107 392 106.5 390.2 105.4 C 388.4 104.2 387 102.7 386 100.6 C 385.1 98.6 384.6 96.3 384.6 93.5 C 384.6 90.8 385.1 88.4 386 86.4 C 387 84.4 388.4 82.8 390.2 81.7 C 392 80.5 394.1 80 396.4 80 C 398.8 80 400.9 80.5 402.6 81.7 C 404.4 82.8 405.8 84.4 406.8 86.4 C 407.8 88.4 408.3 90.8 408.3 93.5 C 408.3 96.3 407.8 98.6 406.8 100.6 C 405.8 102.7 404.4 104.2 402.6 105.4 C 400.9 106.5 398.8 107 396.4 107 Z M 396.4 103.4 C 398.2 103.4 399.7 103 400.9 102.1 C 402 101.1 402.9 99.9 403.4 98.4 C 404 96.9 404.3 95.3 404.3 93.5 C 404.3 91.8 404 90.2 403.4 88.7 C 402.9 87.1 402 85.9 400.9 85 C 399.7 84.1 398.2 83.6 396.4 83.6 C 394.6 83.6 393.1 84.1 392 85 C 390.8 85.9 390 87.1 389.4 88.7 C 388.9 90.2 388.6 91.8 388.6 93.5 C 388.6 95.3 388.9 96.9 389.4 98.4 C 390 99.9 390.8 101.1 392 102.1 C 393.1 103 394.6 103.4 396.4 103.4 Z M 430.2 95.8 C 430.21 95.8 430.2 80.3 430.2 80.3 L 434.2 80.3 L 434.2 106.5 L 430.2 106.5 L 430.2 102.1 C 430.2 102.1 429.94 102.07 429.9 102.1 C 429.3 103.4 428.4 104.5 427.1 105.5 C 425.8 106.4 424.1 106.8 422.2 106.8 C 420.5 106.8 419.1 106.5 417.8 105.8 C 416.5 105 415.5 103.9 414.8 102.5 C 414.1 101 413.7 99.2 413.7 97 C 413.71 96.95 413.7 80.3 413.7 80.3 L 417.7 80.3 C 417.7 80.3 417.73 96.68 417.7 96.7 C 417.7 98.6 418.3 100.1 419.3 101.3 C 420.4 102.4 421.8 103 423.5 103 C 424.5 103 425.5 102.7 426.5 102.2 C 427.6 101.7 428.4 100.9 429.1 99.8 C 429.9 98.8 430.2 97.4 430.2 95.8 Z " stroke="none" fill="#ffffff"/>  </g>  <g id="Polygon121994">    <path d="M 2.3 22.5 C 2.3 22.5 2.32 19.43 2.3 19.4 C 2.3 18.5 2.5 17.5 2.8 16.5 C 3.2 15.4 3.6 14.4 4.3 13.4 C 4.9 12.4 5.7 11.6 6.6 10.8 C 6.6 10.8 8.8 12.6 8.8 12.6 C 8.1 13.6 7.5 14.7 6.9 15.8 C 6.4 16.9 6.1 18.1 6.1 19.4 C 6.14 19.36 6.1 22.5 6.1 22.5 L 2.3 22.5 Z M 11 22.5 C 11 22.5 11.05 19.43 11 19.4 C 11 18.5 11.2 17.5 11.5 16.5 C 11.9 15.4 12.4 14.4 13 13.4 C 13.7 12.4 14.4 11.6 15.3 10.8 C 15.3 10.8 17.5 12.6 17.5 12.6 C 16.8 13.6 16.2 14.7 15.7 15.8 C 15.1 16.9 14.9 18.1 14.9 19.4 C 14.86 19.36 14.9 22.5 14.9 22.5 L 11 22.5 Z M 20.6 46.5 L 16.2 46.5 L 29 11.6 L 33.4 11.6 L 46.2 46.5 L 41.8 46.5 L 31.3 17.1 L 31.1 17.1 L 20.6 46.5 Z M 22.3 32.9 L 40.1 32.9 L 40.1 36.6 L 22.3 36.6 L 22.3 32.9 Z M 55.4 11.6 L 55.4 46.5 L 51.1 46.5 L 51.1 11.6 L 55.4 11.6 Z M 76.8 56.3 L 76.8 20.3 L 80.7 20.3 L 80.7 24.5 C 80.7 24.5 81.14 24.48 81.1 24.5 C 81.4 24 81.8 23.4 82.4 22.7 C 82.9 22 83.7 21.4 84.7 20.8 C 85.7 20.3 87 20 88.7 20 C 90.9 20 92.9 20.5 94.5 21.6 C 96.2 22.7 97.5 24.3 98.5 26.3 C 99.4 28.3 99.9 30.7 99.9 33.5 C 99.9 36.3 99.4 38.7 98.5 40.7 C 97.5 42.7 96.2 44.3 94.6 45.4 C 92.9 46.5 91 47 88.8 47 C 87.1 47 85.8 46.8 84.7 46.2 C 83.7 45.6 82.9 45 82.4 44.3 C 81.9 43.6 81.4 43 81.1 42.5 C 81.14 42.48 80.8 42.5 80.8 42.5 L 80.8 56.3 L 76.8 56.3 Z M 80.7 33.4 C 80.7 35.4 81 37.1 81.6 38.6 C 82.2 40.1 83 41.3 84.1 42.2 C 85.3 43 86.6 43.4 88.2 43.4 C 89.9 43.4 91.3 43 92.5 42.1 C 93.6 41.2 94.4 40 95 38.5 C 95.6 37 95.9 35.3 95.9 33.4 C 95.9 31.6 95.6 29.9 95 28.4 C 94.5 26.9 93.6 25.8 92.5 24.9 C 91.4 24 89.9 23.6 88.2 23.6 C 86.6 23.6 85.2 24 84.1 24.8 C 83 25.7 82.2 26.8 81.6 28.3 C 81 29.7 80.7 31.5 80.7 33.4 Z M 105.5 46.5 L 105.5 20.3 L 109.4 20.3 L 109.4 24.3 C 109.4 24.3 109.65 24.27 109.7 24.3 C 110.1 23 111 21.9 112.2 21.1 C 113.5 20.3 114.9 19.9 116.5 19.9 C 116.8 19.9 117.1 19.9 117.6 19.9 C 118 19.9 118.4 20 118.6 20 C 118.6 20 118.6 24.1 118.6 24.1 C 118.5 24 118.1 24 117.7 23.9 C 117.2 23.8 116.7 23.8 116.1 23.8 C 114.9 23.8 113.7 24.1 112.7 24.6 C 111.7 25.1 111 25.8 110.4 26.8 C 109.8 27.7 109.5 28.8 109.5 29.9 C 109.52 29.93 109.5 46.5 109.5 46.5 L 105.5 46.5 Z M 132.9 47 C 130.5 47 128.4 46.5 126.7 45.4 C 124.9 44.2 123.5 42.7 122.5 40.6 C 121.5 38.6 121 36.3 121 33.5 C 121 30.8 121.5 28.4 122.5 26.4 C 123.5 24.4 124.9 22.8 126.7 21.7 C 128.4 20.5 130.5 20 132.9 20 C 135.2 20 137.3 20.5 139.1 21.7 C 140.9 22.8 142.2 24.4 143.2 26.4 C 144.2 28.4 144.7 30.8 144.7 33.5 C 144.7 36.3 144.2 38.6 143.2 40.6 C 142.2 42.7 140.9 44.2 139.1 45.4 C 137.3 46.5 135.2 47 132.9 47 Z M 132.9 43.4 C 134.7 43.4 136.1 43 137.3 42.1 C 138.5 41.1 139.3 39.9 139.9 38.4 C 140.4 36.9 140.7 35.3 140.7 33.5 C 140.7 31.8 140.4 30.2 139.9 28.7 C 139.3 27.1 138.5 25.9 137.3 25 C 136.1 24.1 134.7 23.6 132.9 23.6 C 131.1 23.6 129.6 24.1 128.4 25 C 127.3 25.9 126.4 27.1 125.9 28.7 C 125.3 30.2 125 31.8 125 33.5 C 125 35.3 125.3 36.9 125.9 38.4 C 126.4 39.9 127.3 41.1 128.4 42.1 C 129.6 43 131.1 43.4 132.9 43.4 Z M 170.4 20.3 L 160.7 46.5 L 156.6 46.5 L 146.9 20.3 L 151.3 20.3 L 158.5 41.2 L 158.8 41.2 L 166 20.3 L 170.4 20.3 Z M 174.9 46.5 L 174.9 20.3 L 178.9 20.3 L 178.9 46.5 L 174.9 46.5 Z M 176.9 16 C 176.1 16 175.5 15.7 174.9 15.2 C 174.3 14.6 174 14 174 13.2 C 174 12.5 174.3 11.8 174.9 11.3 C 175.5 10.8 176.1 10.5 176.9 10.5 C 177.7 10.5 178.4 10.8 178.9 11.3 C 179.5 11.8 179.8 12.5 179.8 13.2 C 179.8 14 179.5 14.6 178.9 15.2 C 178.4 15.7 177.7 16 176.9 16 Z M 195.5 47 C 193.3 47 191.4 46.5 189.7 45.4 C 188 44.3 186.7 42.7 185.8 40.7 C 184.8 38.7 184.3 36.3 184.3 33.5 C 184.3 30.7 184.8 28.3 185.8 26.3 C 186.7 24.3 188 22.7 189.7 21.6 C 191.4 20.5 193.3 20 195.5 20 C 197.2 20 198.6 20.3 199.6 20.8 C 200.6 21.4 201.3 22 201.9 22.7 C 202.4 23.4 202.8 24 203.1 24.5 C 203.09 24.48 203.4 24.5 203.4 24.5 L 203.4 11.6 L 207.5 11.6 L 207.5 46.5 L 203.6 46.5 L 203.6 42.5 C 203.6 42.5 203.09 42.48 203.1 42.5 C 202.8 43 202.4 43.6 201.8 44.3 C 201.3 45 200.5 45.6 199.5 46.2 C 198.5 46.8 197.1 47 195.5 47 Z M 196 43.4 C 197.6 43.4 199 43 200.1 42.2 C 201.2 41.3 202.1 40.1 202.6 38.6 C 203.2 37.1 203.5 35.4 203.5 33.4 C 203.5 31.5 203.2 29.7 202.7 28.3 C 202.1 26.8 201.2 25.7 200.1 24.8 C 199 24 197.6 23.6 196 23.6 C 194.3 23.6 192.9 24 191.8 24.9 C 190.6 25.8 189.8 26.9 189.2 28.4 C 188.6 29.9 188.4 31.6 188.4 33.4 C 188.4 35.3 188.7 37 189.2 38.5 C 189.8 40 190.7 41.2 191.8 42.1 C 192.9 43 194.3 43.4 196 43.4 Z M 225.5 47 C 223 47 220.8 46.5 219 45.4 C 217.2 44.2 215.7 42.7 214.8 40.7 C 213.8 38.6 213.3 36.3 213.3 33.6 C 213.3 30.9 213.8 28.6 214.8 26.5 C 215.7 24.5 217.1 22.9 218.9 21.7 C 220.7 20.6 222.7 20 225.1 20 C 226.4 20 227.8 20.2 229.1 20.7 C 230.5 21.1 231.7 21.8 232.8 22.9 C 233.8 23.9 234.7 25.2 235.4 26.9 C 236 28.6 236.3 30.6 236.3 33.1 C 236.34 33.07 236.3 34.8 236.3 34.8 L 216.2 34.8 L 216.2 31.3 C 216.2 31.3 232.24 31.3 232.2 31.3 C 232.2 29.8 232 28.5 231.4 27.3 C 230.8 26.2 230 25.3 228.9 24.6 C 227.8 23.9 226.5 23.6 225.1 23.6 C 223.5 23.6 222.1 24 220.9 24.8 C 219.8 25.6 218.9 26.6 218.3 27.9 C 217.6 29.1 217.3 30.5 217.3 31.9 C 217.3 31.9 217.3 34.2 217.3 34.2 C 217.3 36.2 217.7 37.9 218.3 39.2 C 219 40.6 220 41.7 221.2 42.4 C 222.4 43.1 223.9 43.4 225.5 43.4 C 226.6 43.4 227.5 43.3 228.4 43 C 229.2 42.7 230 42.2 230.6 41.6 C 231.2 41 231.7 40.3 232 39.3 C 232 39.3 235.9 40.4 235.9 40.4 C 235.5 41.8 234.8 42.9 233.9 43.9 C 232.9 44.9 231.7 45.7 230.3 46.2 C 228.9 46.8 227.3 47 225.5 47 Z M 260.2 26.2 C 260.2 26.2 256.6 27.2 256.6 27.2 C 256.3 26.6 256 26 255.6 25.4 C 255.1 24.9 254.5 24.4 253.8 24 C 253 23.6 252.1 23.5 250.9 23.5 C 249.3 23.5 248 23.8 246.9 24.6 C 245.8 25.3 245.3 26.2 245.3 27.3 C 245.3 28.3 245.7 29.1 246.4 29.7 C 247.1 30.3 248.3 30.8 249.8 31.2 C 249.8 31.2 253.7 32.1 253.7 32.1 C 256 32.7 257.8 33.5 258.9 34.7 C 260.1 35.9 260.6 37.4 260.6 39.2 C 260.6 40.7 260.2 42 259.4 43.2 C 258.5 44.4 257.3 45.3 255.8 46 C 254.2 46.7 252.5 47 250.4 47 C 247.7 47 245.5 46.5 243.8 45.3 C 242 44.1 240.9 42.5 240.5 40.2 C 240.5 40.2 244.3 39.3 244.3 39.3 C 244.6 40.7 245.3 41.7 246.4 42.4 C 247.4 43.1 248.7 43.5 250.3 43.5 C 252.2 43.5 253.7 43.1 254.8 42.3 C 255.9 41.5 256.5 40.5 256.5 39.4 C 256.5 38.5 256.2 37.7 255.5 37.1 C 254.9 36.5 253.9 36 252.6 35.7 C 252.6 35.7 248.2 34.7 248.2 34.7 C 245.8 34.1 244.1 33.3 243 32.1 C 241.8 30.9 241.3 29.4 241.3 27.5 C 241.3 26.1 241.7 24.8 242.5 23.6 C 243.4 22.5 244.5 21.6 246 20.9 C 247.4 20.3 249.1 20 250.9 20 C 253.5 20 255.5 20.5 257 21.7 C 258.5 22.8 259.5 24.3 260.2 26.2 Z M 291.6 20.3 L 291.6 23.7 L 278 23.7 L 278 20.3 L 291.6 20.3 Z M 282 14 L 286 14 C 286 14 286.01 39 286 39 C 286 40.1 286.2 41 286.5 41.5 C 286.8 42.1 287.3 42.5 287.8 42.7 C 288.3 42.9 288.9 43 289.5 43 C 289.9 43 290.3 42.9 290.6 42.9 C 290.9 42.8 291.1 42.8 291.3 42.8 C 291.3 42.8 292.1 46.4 292.1 46.4 C 291.8 46.5 291.4 46.6 290.9 46.7 C 290.4 46.8 289.8 46.8 289.1 46.8 C 287.9 46.8 286.8 46.6 285.7 46.1 C 284.7 45.6 283.8 44.9 283.1 43.9 C 282.3 42.9 282 41.6 282 40.1 C 281.99 40.09 282 14 282 14 Z M 296.7 46.5 L 296.7 20.3 L 300.6 20.3 L 300.6 24.3 C 300.6 24.3 300.87 24.27 300.9 24.3 C 301.3 23 302.2 21.9 303.5 21.1 C 304.7 20.3 306.1 19.9 307.7 19.9 C 308 19.9 308.4 19.9 308.8 19.9 C 309.2 19.9 309.6 20 309.8 20 C 309.8 20 309.8 24.1 309.8 24.1 C 309.7 24 309.4 24 308.9 23.9 C 308.4 23.8 307.9 23.8 307.3 23.8 C 306.1 23.8 304.9 24.1 303.9 24.6 C 303 25.1 302.2 25.8 301.6 26.8 C 301 27.7 300.7 28.8 300.7 29.9 C 300.73 29.93 300.7 46.5 300.7 46.5 L 296.7 46.5 Z M 330.6 35.8 C 330.56 35.8 330.6 20.3 330.6 20.3 L 334.6 20.3 L 334.6 46.5 L 330.6 46.5 L 330.6 42.1 C 330.6 42.1 330.29 42.07 330.3 42.1 C 329.7 43.4 328.7 44.5 327.4 45.5 C 326.1 46.4 324.5 46.8 322.5 46.8 C 320.9 46.8 319.4 46.5 318.2 45.8 C 316.9 45 315.9 43.9 315.2 42.5 C 314.4 41 314.1 39.2 314.1 37 C 314.06 36.95 314.1 20.3 314.1 20.3 L 318.1 20.3 C 318.1 20.3 318.08 36.68 318.1 36.7 C 318.1 38.6 318.6 40.1 319.7 41.3 C 320.8 42.4 322.1 43 323.8 43 C 324.8 43 325.8 42.7 326.9 42.2 C 327.9 41.7 328.8 40.9 329.5 39.8 C 330.2 38.8 330.6 37.4 330.6 35.8 Z M 359.6 26.2 C 359.6 26.2 356 27.2 356 27.2 C 355.8 26.6 355.5 26 355 25.4 C 354.6 24.9 354 24.4 353.3 24 C 352.5 23.6 351.5 23.5 350.4 23.5 C 348.8 23.5 347.4 23.8 346.4 24.6 C 345.3 25.3 344.8 26.2 344.8 27.3 C 344.8 28.3 345.1 29.1 345.9 29.7 C 346.6 30.3 347.7 30.8 349.3 31.2 C 349.3 31.2 353.2 32.1 353.2 32.1 C 355.5 32.7 357.3 33.5 358.4 34.7 C 359.6 35.9 360.1 37.4 360.1 39.2 C 360.1 40.7 359.7 42 358.8 43.2 C 358 44.4 356.8 45.3 355.3 46 C 353.7 46.7 351.9 47 349.9 47 C 347.2 47 345 46.5 343.3 45.3 C 341.5 44.1 340.4 42.5 339.9 40.2 C 339.9 40.2 343.8 39.3 343.8 39.3 C 344.1 40.7 344.8 41.7 345.8 42.4 C 346.8 43.1 348.2 43.5 349.8 43.5 C 351.7 43.5 353.2 43.1 354.3 42.3 C 355.4 41.5 356 40.5 356 39.4 C 356 38.5 355.6 37.7 355 37.1 C 354.4 36.5 353.4 36 352.1 35.7 C 352.1 35.7 347.7 34.7 347.7 34.7 C 345.3 34.1 343.6 33.3 342.4 32.1 C 341.3 30.9 340.8 29.4 340.8 27.5 C 340.8 26.1 341.2 24.8 342 23.6 C 342.8 22.5 344 21.6 345.4 20.9 C 346.9 20.3 348.5 20 350.4 20 C 353 20 355 20.5 356.5 21.7 C 358 22.8 359 24.3 359.6 26.2 Z M 376.9 20.3 L 376.9 23.7 L 363.3 23.7 L 363.3 20.3 L 376.9 20.3 Z M 367.2 14 L 371.3 14 C 371.3 14 371.26 39 371.3 39 C 371.3 40.1 371.4 41 371.8 41.5 C 372.1 42.1 372.5 42.5 373.1 42.7 C 373.6 42.9 374.1 43 374.7 43 C 375.2 43 375.5 42.9 375.8 42.9 C 376.1 42.8 376.3 42.8 376.5 42.8 C 376.5 42.8 377.3 46.4 377.3 46.4 C 377.1 46.5 376.7 46.6 376.2 46.7 C 375.7 46.8 375.1 46.8 374.3 46.8 C 373.2 46.8 372.1 46.6 371 46.1 C 369.9 45.6 369 44.9 368.3 43.9 C 367.6 42.9 367.2 41.6 367.2 40.1 C 367.24 40.09 367.2 14 367.2 14 Z M 391.9 47 C 389.4 47 387.3 46.5 385.4 45.4 C 383.6 44.2 382.2 42.7 381.2 40.7 C 380.2 38.6 379.7 36.3 379.7 33.6 C 379.7 30.9 380.2 28.6 381.2 26.5 C 382.2 24.5 383.6 22.9 385.3 21.7 C 387.1 20.6 389.2 20 391.5 20 C 392.9 20 394.2 20.2 395.6 20.7 C 396.9 21.1 398.1 21.8 399.2 22.9 C 400.3 23.9 401.2 25.2 401.8 26.9 C 402.5 28.6 402.8 30.6 402.8 33.1 C 402.79 33.07 402.8 34.8 402.8 34.8 L 382.6 34.8 L 382.6 31.3 C 382.6 31.3 398.7 31.3 398.7 31.3 C 398.7 29.8 398.4 28.5 397.8 27.3 C 397.2 26.2 396.4 25.3 395.3 24.6 C 394.3 23.9 393 23.6 391.5 23.6 C 389.9 23.6 388.6 24 387.4 24.8 C 386.2 25.6 385.3 26.6 384.7 27.9 C 384.1 29.1 383.8 30.5 383.8 31.9 C 383.8 31.9 383.8 34.2 383.8 34.2 C 383.8 36.2 384.1 37.9 384.8 39.2 C 385.5 40.6 386.4 41.7 387.7 42.4 C 388.9 43.1 390.3 43.4 391.9 43.4 C 393 43.4 394 43.3 394.8 43 C 395.7 42.7 396.4 42.2 397 41.6 C 397.7 41 398.2 40.3 398.5 39.3 C 398.5 39.3 402.4 40.4 402.4 40.4 C 402 41.8 401.3 42.9 400.3 43.9 C 399.3 44.9 398.2 45.7 396.7 46.2 C 395.3 46.8 393.7 47 391.9 47 Z M 418.2 47 C 416 47 414.1 46.5 412.4 45.4 C 410.8 44.3 409.5 42.7 408.5 40.7 C 407.6 38.7 407.1 36.3 407.1 33.5 C 407.1 30.7 407.6 28.3 408.5 26.3 C 409.5 24.3 410.8 22.7 412.5 21.6 C 414.1 20.5 416.1 20 418.3 20 C 420 20 421.3 20.3 422.3 20.8 C 423.3 21.4 424.1 22 424.6 22.7 C 425.1 23.4 425.6 24 425.9 24.5 C 425.85 24.48 426.2 24.5 426.2 24.5 L 426.2 11.6 L 430.2 11.6 L 430.2 46.5 L 426.3 46.5 L 426.3 42.5 C 426.3 42.5 425.85 42.48 425.9 42.5 C 425.6 43 425.1 43.6 424.6 44.3 C 424 45 423.3 45.6 422.3 46.2 C 421.2 46.8 419.9 47 418.2 47 Z M 418.8 43.4 C 420.4 43.4 421.7 43 422.9 42.2 C 424 41.3 424.8 40.1 425.4 38.6 C 426 37.1 426.3 35.4 426.3 33.4 C 426.3 31.5 426 29.7 425.4 28.3 C 424.8 26.8 424 25.7 422.9 24.8 C 421.8 24 420.4 23.6 418.8 23.6 C 417.1 23.6 415.6 24 414.5 24.9 C 413.4 25.8 412.5 26.9 412 28.4 C 411.4 29.9 411.1 31.6 411.1 33.4 C 411.1 35.3 411.4 37 412 38.5 C 412.6 40 413.4 41.2 414.5 42.1 C 415.7 43 417.1 43.4 418.8 43.4 Z " stroke="none" fill="#ffffff"/>  </g></svg>