<?xml version="1.0" standalone="no"?><!DOCTYPE svg PUBLIC "-//W3C//DTD SVG 1.1//EN" "http://www.w3.org/Graphics/SVG/1.1/DTD/svg11.dtd"><svg xmlns="http://www.w3.org/2000/svg" version="1.1" width="228px" height="54.7px" viewBox="0 -13 228 54.7" style="top:-13px">  <desc>Difficult to use</desc>  <defs/>  <g id="Polygon120189">    <path d="M 10.3 23.3 C 10.27 23.27 2 23.3 2 23.3 L 2 0 C 2 0 10.34 0 10.3 0 C 12.7 0 14.7 0.5 16.4 1.4 C 18.1 2.3 19.4 3.7 20.3 5.4 C 21.2 7.1 21.7 9.2 21.7 11.6 C 21.7 14 21.2 16.1 20.3 17.9 C 19.4 19.6 18.1 20.9 16.4 21.9 C 14.7 22.8 12.6 23.3 10.3 23.3 Z M 6.9 19.1 C 6.9 19.1 10.07 19.06 10.1 19.1 C 11.5 19.1 12.7 18.8 13.7 18.3 C 14.7 17.8 15.5 17 16 15.9 C 16.5 14.8 16.7 13.3 16.7 11.6 C 16.7 9.9 16.5 8.5 16 7.4 C 15.5 6.3 14.7 5.5 13.7 5 C 12.8 4.5 11.5 4.2 10.1 4.2 C 10.08 4.22 6.9 4.2 6.9 4.2 L 6.9 19.1 Z M 25.2 23.3 L 25.2 5.8 L 30.1 5.8 L 30.1 23.3 L 25.2 23.3 Z M 27.7 3.6 C 26.9 3.6 26.3 3.3 25.8 2.9 C 25.3 2.4 25 1.8 25 1.1 C 25 0.5 25.3 -0.1 25.8 -0.6 C 26.3 -1.1 26.9 -1.3 27.7 -1.3 C 28.4 -1.3 29 -1.1 29.5 -0.6 C 30 -0.1 30.3 0.4 30.3 1.1 C 30.3 1.8 30 2.4 29.5 2.8 C 29 3.3 28.4 3.6 27.7 3.6 Z M 43.2 5.8 L 43.2 9.5 L 32.4 9.5 L 32.4 5.8 L 43.2 5.8 Z M 34.9 23.3 C 34.9 23.3 34.9 4.56 34.9 4.6 C 34.9 3.3 35.1 2.2 35.6 1.4 C 36.1 0.6 36.8 0 37.7 -0.5 C 38.5 -0.9 39.5 -1.1 40.6 -1.1 C 41.4 -1.1 42.1 -1 42.7 -0.9 C 43.3 -0.8 43.7 -0.7 44 -0.6 C 44 -0.6 43.2 3 43.2 3 C 43 3 42.8 2.9 42.5 2.9 C 42.2 2.8 41.9 2.8 41.6 2.8 C 40.9 2.8 40.4 2.9 40.2 3.3 C 39.9 3.6 39.7 4.1 39.7 4.6 C 39.73 4.65 39.7 23.3 39.7 23.3 L 34.9 23.3 Z M 55.8 5.8 L 55.8 9.5 L 45 9.5 L 45 5.8 L 55.8 5.8 Z M 47.5 23.3 C 47.5 23.3 47.49 4.56 47.5 4.6 C 47.5 3.3 47.7 2.2 48.2 1.4 C 48.7 0.6 49.4 0 50.3 -0.5 C 51.1 -0.9 52.1 -1.1 53.2 -1.1 C 54 -1.1 54.6 -1 55.3 -0.9 C 55.9 -0.8 56.3 -0.7 56.6 -0.6 C 56.6 -0.6 55.8 3 55.8 3 C 55.6 3 55.4 2.9 55.1 2.9 C 54.8 2.8 54.5 2.8 54.2 2.8 C 53.5 2.8 53 2.9 52.7 3.3 C 52.5 3.6 52.3 4.1 52.3 4.6 C 52.32 4.65 52.3 23.3 52.3 23.3 L 47.5 23.3 Z M 58.7 23.3 L 58.7 5.8 L 63.6 5.8 L 63.6 23.3 L 58.7 23.3 Z M 61.2 3.6 C 60.4 3.6 59.8 3.3 59.3 2.9 C 58.8 2.4 58.6 1.8 58.6 1.1 C 58.6 0.5 58.8 -0.1 59.3 -0.6 C 59.8 -1.1 60.5 -1.3 61.2 -1.3 C 61.9 -1.3 62.5 -1.1 63 -0.6 C 63.5 -0.1 63.8 0.4 63.8 1.1 C 63.8 1.8 63.5 2.4 63 2.8 C 62.5 3.3 61.9 3.6 61.2 3.6 Z M 75.2 23.6 C 73.4 23.6 71.9 23.2 70.6 22.5 C 69.3 21.7 68.4 20.7 67.7 19.3 C 67 17.9 66.6 16.4 66.6 14.6 C 66.6 12.8 67 11.3 67.7 9.9 C 68.4 8.6 69.4 7.5 70.6 6.7 C 71.9 6 73.4 5.6 75.2 5.6 C 76.7 5.6 78.1 5.9 79.2 6.4 C 80.4 7 81.3 7.8 81.9 8.8 C 82.6 9.8 83 10.9 83 12.3 C 83 12.3 78.5 12.3 78.5 12.3 C 78.3 11.4 78 10.7 77.4 10.2 C 76.9 9.6 76.2 9.4 75.3 9.4 C 74.5 9.4 73.9 9.6 73.3 10 C 72.8 10.4 72.3 11 72 11.7 C 71.7 12.5 71.6 13.4 71.6 14.5 C 71.6 15.7 71.7 16.6 72 17.4 C 72.3 18.2 72.8 18.8 73.3 19.2 C 73.9 19.6 74.5 19.8 75.3 19.8 C 75.8 19.8 76.3 19.7 76.8 19.4 C 77.2 19.2 77.6 18.9 77.9 18.4 C 78.2 18 78.4 17.5 78.5 16.9 C 78.5 16.9 83 16.9 83 16.9 C 83 18.2 82.6 19.4 81.9 20.4 C 81.3 21.4 80.4 22.2 79.3 22.8 C 78.1 23.3 76.8 23.6 75.2 23.6 Z M 97.2 15.8 C 97.15 15.84 97.2 5.8 97.2 5.8 L 102 5.8 L 102 23.3 L 97.3 23.3 L 97.3 20.1 C 97.3 20.1 97.16 20.1 97.2 20.1 C 96.8 21.1 96.1 21.9 95.2 22.6 C 94.3 23.2 93.2 23.5 91.9 23.5 C 90.7 23.5 89.7 23.2 88.8 22.7 C 87.9 22.2 87.2 21.4 86.7 20.4 C 86.2 19.5 86 18.3 86 16.9 C 85.96 16.93 86 5.8 86 5.8 L 90.8 5.8 C 90.8 5.8 90.8 16.07 90.8 16.1 C 90.8 17.1 91.1 17.9 91.6 18.5 C 92.2 19.1 92.9 19.4 93.8 19.4 C 94.4 19.4 95 19.3 95.5 19 C 96 18.7 96.4 18.3 96.7 17.8 C 97 17.3 97.2 16.6 97.2 15.8 Z M 110.7 0 L 110.7 23.3 L 105.9 23.3 L 105.9 0 L 110.7 0 Z M 123.8 5.8 L 123.8 9.5 L 113.3 9.5 L 113.3 5.8 L 123.8 5.8 Z M 115.6 1.6 L 120.5 1.6 C 120.5 1.6 120.49 17.91 120.5 17.9 C 120.5 18.4 120.6 18.7 120.7 18.9 C 120.8 19.2 121 19.4 121.3 19.5 C 121.5 19.6 121.8 19.6 122.1 19.6 C 122.4 19.6 122.6 19.6 122.8 19.6 C 123 19.5 123.2 19.5 123.3 19.5 C 123.3 19.5 124.1 23.1 124.1 23.1 C 123.8 23.1 123.5 23.2 123.1 23.3 C 122.6 23.4 122.1 23.5 121.5 23.5 C 120.3 23.6 119.3 23.4 118.4 23 C 117.5 22.7 116.8 22.1 116.4 21.4 C 115.9 20.6 115.6 19.7 115.6 18.5 C 115.65 18.55 115.6 1.6 115.6 1.6 Z M 143.6 5.8 L 143.6 9.5 L 133.1 9.5 L 133.1 5.8 L 143.6 5.8 Z M 135.5 1.6 L 140.3 1.6 C 140.3 1.6 140.34 17.91 140.3 17.9 C 140.3 18.4 140.4 18.7 140.5 18.9 C 140.7 19.2 140.9 19.4 141.1 19.5 C 141.4 19.6 141.7 19.6 142 19.6 C 142.2 19.6 142.4 19.6 142.7 19.6 C 142.9 19.5 143.1 19.5 143.2 19.5 C 143.2 19.5 143.9 23.1 143.9 23.1 C 143.7 23.1 143.4 23.2 142.9 23.3 C 142.5 23.4 141.9 23.5 141.3 23.5 C 140.2 23.6 139.1 23.4 138.3 23 C 137.4 22.7 136.7 22.1 136.2 21.4 C 135.7 20.6 135.5 19.7 135.5 18.5 C 135.5 18.55 135.5 1.6 135.5 1.6 Z M 154 23.6 C 152.2 23.6 150.7 23.2 149.4 22.5 C 148.1 21.7 147.1 20.7 146.4 19.3 C 145.8 18 145.4 16.4 145.4 14.6 C 145.4 12.8 145.8 11.2 146.4 9.9 C 147.1 8.5 148.1 7.5 149.4 6.7 C 150.7 6 152.2 5.6 154 5.6 C 155.8 5.6 157.3 6 158.6 6.7 C 159.9 7.5 160.8 8.5 161.5 9.9 C 162.2 11.2 162.6 12.8 162.6 14.6 C 162.6 16.4 162.2 18 161.5 19.3 C 160.8 20.7 159.9 21.7 158.6 22.5 C 157.3 23.2 155.8 23.6 154 23.6 Z M 154 19.9 C 154.8 19.9 155.5 19.6 156 19.2 C 156.6 18.7 157 18.1 157.2 17.3 C 157.5 16.5 157.7 15.6 157.7 14.6 C 157.7 13.6 157.5 12.7 157.2 11.9 C 157 11.1 156.6 10.4 156 10 C 155.5 9.5 154.8 9.3 154 9.3 C 153.2 9.3 152.5 9.5 152 10 C 151.4 10.4 151 11.1 150.7 11.9 C 150.5 12.7 150.3 13.6 150.3 14.6 C 150.3 15.6 150.5 16.5 150.7 17.3 C 151 18.1 151.4 18.7 152 19.2 C 152.5 19.6 153.2 19.9 154 19.9 Z M 184.4 15.8 C 184.36 15.84 184.4 5.8 184.4 5.8 L 189.2 5.8 L 189.2 23.3 L 184.6 23.3 L 184.6 20.1 C 184.6 20.1 184.37 20.1 184.4 20.1 C 184 21.1 183.3 21.9 182.4 22.6 C 181.5 23.2 180.4 23.5 179.1 23.5 C 177.9 23.5 176.9 23.2 176 22.7 C 175.1 22.2 174.4 21.4 173.9 20.4 C 173.4 19.5 173.2 18.3 173.2 16.9 C 173.16 16.93 173.2 5.8 173.2 5.8 L 178 5.8 C 178 5.8 178.01 16.07 178 16.1 C 178 17.1 178.3 17.9 178.8 18.5 C 179.4 19.1 180.1 19.4 181 19.4 C 181.6 19.4 182.2 19.3 182.7 19 C 183.2 18.7 183.6 18.3 183.9 17.8 C 184.2 17.3 184.4 16.6 184.4 15.8 Z M 207.5 10.8 C 207.5 10.8 203 11.1 203 11.1 C 203 10.7 202.8 10.3 202.6 10 C 202.3 9.7 202 9.5 201.6 9.3 C 201.2 9.1 200.7 9 200.1 9 C 199.4 9 198.7 9.2 198.2 9.5 C 197.7 9.8 197.4 10.2 197.4 10.8 C 197.4 11.2 197.6 11.5 197.9 11.8 C 198.3 12.1 198.9 12.3 199.7 12.5 C 199.7 12.5 202.8 13.1 202.8 13.1 C 204.5 13.5 205.8 14 206.6 14.8 C 207.5 15.6 207.9 16.6 207.9 17.9 C 207.9 19 207.5 20 206.9 20.9 C 206.2 21.7 205.3 22.4 204.1 22.9 C 203 23.4 201.6 23.6 200.1 23.6 C 197.8 23.6 195.9 23.1 194.6 22.2 C 193.2 21.2 192.4 19.9 192.2 18.2 C 192.2 18.2 196.9 18 196.9 18 C 197.1 18.7 197.4 19.2 198 19.6 C 198.5 19.9 199.2 20.1 200.1 20.1 C 201 20.1 201.6 20 202.2 19.6 C 202.7 19.3 202.9 18.9 202.9 18.4 C 202.9 17.9 202.8 17.6 202.4 17.3 C 202 17 201.5 16.8 200.7 16.6 C 200.7 16.6 197.7 16 197.7 16 C 196 15.7 194.7 15.1 193.9 14.2 C 193.1 13.4 192.6 12.3 192.6 11 C 192.6 9.9 192.9 8.9 193.6 8.1 C 194.2 7.3 195 6.7 196.1 6.3 C 197.2 5.8 198.5 5.6 200 5.6 C 202.2 5.6 204 6.1 205.3 7 C 206.5 7.9 207.3 9.2 207.5 10.8 Z M 218.7 23.6 C 216.9 23.6 215.3 23.2 214 22.5 C 212.7 21.8 211.7 20.7 211 19.4 C 210.3 18.1 210 16.5 210 14.6 C 210 12.8 210.3 11.3 211 9.9 C 211.7 8.5 212.7 7.5 214 6.7 C 215.3 6 216.7 5.6 218.5 5.6 C 219.6 5.6 220.7 5.8 221.7 6.1 C 222.7 6.5 223.5 7.1 224.3 7.8 C 225 8.5 225.6 9.5 226 10.6 C 226.5 11.7 226.7 13 226.7 14.5 C 226.66 14.45 226.7 15.8 226.7 15.8 L 211.9 15.8 L 211.9 12.8 C 211.9 12.8 222.11 12.78 222.1 12.8 C 222.1 12.1 222 11.5 221.7 10.9 C 221.3 10.4 220.9 10 220.4 9.7 C 219.9 9.4 219.2 9.2 218.5 9.2 C 217.8 9.2 217.2 9.4 216.6 9.7 C 216 10 215.6 10.5 215.3 11.1 C 214.9 11.6 214.8 12.3 214.8 12.9 C 214.8 12.9 214.8 15.8 214.8 15.8 C 214.8 16.7 214.9 17.4 215.3 18 C 215.6 18.7 216 19.1 216.6 19.5 C 217.2 19.8 217.9 20 218.7 20 C 219.3 20 219.8 19.9 220.2 19.8 C 220.7 19.6 221 19.4 221.4 19.1 C 221.7 18.8 221.9 18.4 222.1 18 C 222.1 18 226.6 18.3 226.6 18.3 C 226.3 19.3 225.9 20.3 225.2 21.1 C 224.5 21.9 223.6 22.5 222.5 22.9 C 221.4 23.4 220.1 23.6 218.7 23.6 Z " stroke="none" fill="#10283d"/>  </g></svg>