<?xml version="1.0" standalone="no"?><!DOCTYPE svg PUBLIC "-//W3C//DTD SVG 1.1//EN" "http://www.w3.org/Graphics/SVG/1.1/DTD/svg11.dtd"><svg xmlns="http://www.w3.org/2000/svg" version="1.1" width="61px" height="18.4px" viewBox="0 -5 61 18.4" style="top:-5px">  <desc>10 / 19</desc>  <defs/>  <g id="Polygon119846">    <path d="M 18.3 0 L 18.3 7.3 L 17.4 7.3 L 17.4 0.9 L 17.4 0.9 L 15.6 2.1 L 15.6 1.2 L 17.4 0 L 18.3 0 Z M 22.7 7.4 C 22.2 7.4 21.7 7.2 21.3 6.9 C 21 6.6 20.7 6.2 20.5 5.7 C 20.3 5.1 20.2 4.4 20.2 3.6 C 20.2 2.9 20.3 2.2 20.5 1.6 C 20.7 1.1 21 0.6 21.3 0.3 C 21.7 0 22.2 -0.1 22.7 -0.1 C 23.2 -0.1 23.7 0 24.1 0.3 C 24.4 0.6 24.7 1.1 24.9 1.6 C 25.1 2.2 25.2 2.9 25.2 3.6 C 25.2 4.4 25.1 5.1 24.9 5.7 C 24.7 6.2 24.4 6.6 24.1 6.9 C 23.7 7.2 23.2 7.4 22.7 7.4 Z M 22.7 6.6 C 23.2 6.6 23.6 6.3 23.9 5.8 C 24.2 5.3 24.4 4.6 24.4 3.6 C 24.4 3 24.3 2.5 24.2 2 C 24 1.6 23.8 1.2 23.6 1 C 23.4 0.8 23.1 0.7 22.7 0.7 C 22.2 0.7 21.8 0.9 21.5 1.4 C 21.2 2 21 2.7 21 3.6 C 21 4.3 21.1 4.8 21.2 5.2 C 21.4 5.7 21.5 6 21.8 6.2 C 22 6.5 22.3 6.6 22.7 6.6 Z M 32 -0.3 L 29.6 8.4 L 28.9 8.4 L 31.2 -0.3 L 32 -0.3 Z M 38.3 0 L 38.3 7.3 L 37.4 7.3 L 37.4 0.9 L 37.4 0.9 L 35.6 2.1 L 35.6 1.2 L 37.4 0 L 38.3 0 Z M 42.6 -0.1 C 42.9 -0.1 43.2 0 43.5 0.1 C 43.8 0.2 44.1 0.4 44.3 0.6 C 44.6 0.9 44.8 1.2 44.9 1.7 C 45.1 2.1 45.2 2.7 45.2 3.3 C 45.2 4 45.1 4.6 45 5.1 C 44.9 5.6 44.7 6 44.5 6.3 C 44.2 6.7 43.9 6.9 43.6 7.1 C 43.3 7.3 42.9 7.4 42.5 7.4 C 42.1 7.4 41.8 7.3 41.4 7.1 C 41.1 7 40.9 6.7 40.7 6.5 C 40.4 6.2 40.3 5.8 40.3 5.4 C 40.3 5.4 41.1 5.4 41.1 5.4 C 41.2 5.8 41.4 6 41.6 6.3 C 41.8 6.5 42.1 6.6 42.5 6.6 C 43.1 6.6 43.5 6.3 43.9 5.9 C 44.2 5.4 44.3 4.7 44.3 3.8 C 44.3 3.8 44.3 3.8 44.3 3.8 C 44.1 4 44 4.1 43.8 4.3 C 43.6 4.4 43.4 4.5 43.2 4.6 C 43 4.7 42.7 4.7 42.5 4.7 C 42.1 4.7 41.7 4.6 41.3 4.4 C 41 4.2 40.7 3.9 40.5 3.6 C 40.3 3.2 40.2 2.8 40.2 2.3 C 40.2 1.9 40.3 1.5 40.5 1.1 C 40.7 0.7 41 0.4 41.4 0.2 C 41.7 0 42.1 -0.1 42.6 -0.1 Z M 42.6 0.7 C 42.3 0.7 42.1 0.8 41.8 0.9 C 41.6 1.1 41.4 1.3 41.3 1.5 C 41.1 1.8 41.1 2 41.1 2.3 C 41.1 2.6 41.1 2.9 41.3 3.2 C 41.4 3.4 41.6 3.6 41.8 3.7 C 42 3.9 42.3 4 42.6 4 C 42.8 4 43 3.9 43.2 3.8 C 43.4 3.7 43.6 3.6 43.7 3.5 C 43.9 3.3 44 3.1 44.1 2.9 C 44.2 2.7 44.2 2.5 44.2 2.3 C 44.2 2 44.1 1.8 44 1.5 C 43.9 1.3 43.7 1.1 43.4 0.9 C 43.2 0.8 42.9 0.7 42.6 0.7 Z " stroke="none" fill="#ffffff"/>  </g></svg>