<?xml version="1.0" standalone="no"?><!DOCTYPE svg PUBLIC "-//W3C//DTD SVG 1.1//EN" "http://www.w3.org/Graphics/SVG/1.1/DTD/svg11.dtd"><svg xmlns="http://www.w3.org/2000/svg" version="1.1" width="786px" height="193.2px" viewBox="0 -25 786 193.2" style="top:-25px">  <desc>Anaplan connects the impact of every decision</desc>  <defs/>  <g id="Polygon117897">    <path d="M 4 129.1 L 4 92.6 L 14.2 92.6 L 14.2 129.1 L 4 129.1 Z M 9.1 87.9 C 7.6 87.9 6.3 87.4 5.3 86.4 C 4.2 85.4 3.7 84.2 3.7 82.8 C 3.7 81.3 4.2 80.1 5.3 79.1 C 6.4 78.1 7.6 77.6 9.1 77.6 C 10.6 77.6 11.9 78.1 13 79.1 C 14.1 80.1 14.6 81.3 14.6 82.7 C 14.6 84.1 14.1 85.4 13 86.4 C 11.9 87.4 10.6 87.9 9.1 87.9 Z M 21.7 129.1 L 21.7 92.6 L 31.3 92.6 L 31.3 99 C 31.3 99 31.75 99.03 31.8 99 C 32.5 96.9 33.8 95.2 35.6 94 C 37.3 92.7 39.5 92.1 41.9 92.1 C 44.4 92.1 46.6 92.7 48.3 94 C 50.1 95.2 51.3 96.9 51.9 99 C 51.9 99 52.2 99 52.2 99 C 53 96.9 54.3 95.3 56.3 94 C 58.3 92.7 60.6 92.1 63.3 92.1 C 66.7 92.1 69.4 93.2 71.6 95.4 C 73.7 97.5 74.8 100.6 74.8 104.5 C 74.77 104.55 74.8 129.1 74.8 129.1 L 64.7 129.1 C 64.7 129.1 64.66 106.55 64.7 106.5 C 64.7 104.5 64.1 103 63 102 C 62 101 60.6 100.5 59 100.5 C 57.2 100.5 55.7 101 54.7 102.2 C 53.7 103.4 53.1 104.9 53.1 106.8 C 53.14 106.81 53.1 129.1 53.1 129.1 L 43.3 129.1 C 43.3 129.1 43.32 106.33 43.3 106.3 C 43.3 104.5 42.8 103.1 41.8 102.1 C 40.8 101 39.4 100.5 37.7 100.5 C 36.6 100.5 35.6 100.7 34.7 101.3 C 33.8 101.9 33.1 102.7 32.6 103.7 C 32.1 104.7 31.8 105.8 31.8 107.2 C 31.8 107.19 31.8 129.1 31.8 129.1 L 21.7 129.1 Z M 82.1 142.8 L 82.1 92.6 L 92.1 92.6 L 92.1 98.7 C 92.1 98.7 92.57 98.72 92.6 98.7 C 93 97.7 93.7 96.7 94.5 95.7 C 95.4 94.7 96.5 93.8 97.8 93.1 C 99.2 92.5 100.9 92.1 103 92.1 C 105.6 92.1 108.1 92.8 110.3 94.2 C 112.6 95.6 114.4 97.7 115.7 100.4 C 117.1 103.2 117.8 106.7 117.8 110.9 C 117.8 115 117.1 118.4 115.8 121.2 C 114.5 124 112.7 126.1 110.5 127.6 C 108.2 129 105.7 129.7 102.9 129.7 C 101 129.7 99.3 129.4 97.9 128.7 C 96.6 128.1 95.4 127.3 94.6 126.3 C 93.7 125.3 93 124.3 92.6 123.3 C 92.57 123.27 92.3 123.3 92.3 123.3 L 92.3 142.8 L 82.1 142.8 Z M 92 110.9 C 92 113 92.3 114.9 92.9 116.5 C 93.6 118.2 94.4 119.4 95.6 120.3 C 96.7 121.2 98.1 121.7 99.7 121.7 C 101.4 121.7 102.8 121.2 103.9 120.3 C 105.1 119.4 105.9 118.1 106.5 116.5 C 107.1 114.9 107.4 113 107.4 110.9 C 107.4 108.7 107.1 106.9 106.5 105.3 C 105.9 103.7 105.1 102.4 103.9 101.5 C 102.8 100.6 101.4 100.2 99.7 100.2 C 98.1 100.2 96.7 100.6 95.6 101.5 C 94.4 102.4 93.6 103.6 92.9 105.2 C 92.3 106.8 92 108.7 92 110.9 Z M 133.7 129.8 C 131.4 129.8 129.3 129.4 127.5 128.6 C 125.7 127.8 124.2 126.6 123.2 125 C 122.1 123.3 121.6 121.3 121.6 118.9 C 121.6 116.9 121.9 115.2 122.7 113.8 C 123.4 112.4 124.5 111.3 125.7 110.5 C 127 109.6 128.5 109 130.1 108.6 C 131.8 108.1 133.5 107.8 135.3 107.7 C 137.4 107.4 139.1 107.2 140.4 107 C 141.7 106.8 142.7 106.5 143.3 106.1 C 143.9 105.7 144.2 105.2 144.2 104.4 C 144.2 104.4 144.2 104.2 144.2 104.2 C 144.2 102.7 143.7 101.6 142.7 100.7 C 141.8 99.9 140.5 99.5 138.7 99.5 C 136.9 99.5 135.5 99.9 134.4 100.7 C 133.3 101.5 132.6 102.5 132.2 103.7 C 132.2 103.7 122.9 103 122.9 103 C 123.3 100.7 124.3 98.8 125.7 97.2 C 127.1 95.6 128.9 94.3 131.1 93.4 C 133.3 92.5 135.9 92.1 138.8 92.1 C 140.8 92.1 142.8 92.3 144.6 92.8 C 146.5 93.3 148.1 94 149.6 95 C 151 96 152.2 97.3 153 98.9 C 153.9 100.4 154.3 102.3 154.3 104.5 C 154.29 104.48 154.3 129.1 154.3 129.1 L 144.7 129.1 L 144.7 124.1 C 144.7 124.1 144.39 124.06 144.4 124.1 C 143.8 125.2 143 126.2 142 127.1 C 141.1 127.9 139.9 128.6 138.5 129.1 C 137.1 129.6 135.5 129.8 133.7 129.8 Z M 136.6 122.8 C 138.1 122.8 139.4 122.5 140.6 121.9 C 141.7 121.3 142.6 120.5 143.3 119.5 C 143.9 118.5 144.2 117.3 144.2 116.1 C 144.2 116.1 144.2 112.2 144.2 112.2 C 143.9 112.4 143.5 112.6 142.9 112.7 C 142.4 112.9 141.8 113.1 141.1 113.2 C 140.4 113.3 139.7 113.5 139 113.6 C 138.4 113.7 137.7 113.7 137.2 113.8 C 136 114 135 114.3 134.1 114.7 C 133.2 115 132.5 115.6 132 116.2 C 131.5 116.8 131.3 117.6 131.3 118.6 C 131.3 120 131.8 121 132.8 121.7 C 133.8 122.5 135.1 122.8 136.6 122.8 Z M 177.8 129.8 C 174.1 129.8 170.9 129 168.2 127.4 C 165.5 125.9 163.4 123.6 162 120.8 C 160.5 118 159.8 114.7 159.8 111 C 159.8 107.3 160.6 104 162 101.1 C 163.5 98.3 165.5 96.1 168.2 94.5 C 170.9 92.9 174.1 92.1 177.8 92.1 C 181 92.1 183.7 92.7 186.1 93.8 C 188.5 95 190.4 96.6 191.8 98.7 C 193.2 100.8 194 103.3 194.1 106.1 C 194.1 106.1 184.6 106.1 184.6 106.1 C 184.3 104.3 183.6 102.8 182.4 101.7 C 181.3 100.6 179.8 100 177.9 100 C 176.4 100 175 100.4 173.8 101.3 C 172.7 102.1 171.8 103.4 171.1 105 C 170.5 106.6 170.1 108.6 170.1 110.9 C 170.1 113.2 170.5 115.2 171.1 116.8 C 171.7 118.4 172.6 119.7 173.8 120.5 C 175 121.4 176.4 121.8 177.9 121.8 C 179.1 121.8 180.1 121.6 181.1 121.1 C 182 120.6 182.8 119.9 183.4 119 C 184 118.1 184.4 117 184.6 115.7 C 184.6 115.7 194.1 115.7 194.1 115.7 C 194 118.5 193.2 121 191.9 123.1 C 190.5 125.2 188.6 126.9 186.3 128.1 C 183.9 129.2 181.1 129.8 177.8 129.8 Z M 219 92.6 L 219 100.2 L 197 100.2 L 197 92.6 L 219 92.6 Z M 202 83.8 L 212.2 83.8 C 212.2 83.8 212.16 117.9 212.2 117.9 C 212.2 118.8 212.3 119.6 212.6 120.1 C 212.9 120.6 213.3 121 213.8 121.2 C 214.3 121.4 214.9 121.5 215.6 121.5 C 216.1 121.5 216.5 121.4 217 121.3 C 217.5 121.2 217.9 121.2 218.1 121.1 C 218.1 121.1 219.7 128.7 219.7 128.7 C 219.2 128.8 218.5 129 217.6 129.2 C 216.6 129.4 215.5 129.6 214.2 129.6 C 211.8 129.7 209.6 129.4 207.8 128.7 C 206 127.9 204.5 126.7 203.5 125.2 C 202.5 123.6 202 121.6 202 119.2 C 202.02 119.23 202 83.8 202 83.8 Z M 257.5 129.8 C 253.8 129.8 250.6 129.1 247.9 127.5 C 245.2 125.9 243.1 123.7 241.7 120.9 C 240.2 118 239.5 114.7 239.5 111 C 239.5 107.2 240.2 103.9 241.7 101.1 C 243.1 98.3 245.2 96.1 247.9 94.5 C 250.6 92.9 253.8 92.1 257.5 92.1 C 261.2 92.1 264.4 92.9 267 94.5 C 269.7 96.1 271.8 98.3 273.3 101.1 C 274.7 103.9 275.5 107.2 275.5 111 C 275.5 114.7 274.7 118 273.3 120.9 C 271.8 123.7 269.7 125.9 267 127.5 C 264.4 129.1 261.2 129.8 257.5 129.8 Z M 257.5 122 C 259.2 122 260.6 121.5 261.7 120.6 C 262.9 119.6 263.7 118.3 264.3 116.6 C 264.9 114.9 265.2 113.1 265.2 110.9 C 265.2 108.8 264.9 106.9 264.3 105.2 C 263.7 103.6 262.9 102.3 261.7 101.3 C 260.6 100.3 259.2 99.8 257.5 99.8 C 255.8 99.8 254.4 100.3 253.2 101.3 C 252.1 102.3 251.2 103.6 250.7 105.2 C 250.1 106.9 249.8 108.8 249.8 110.9 C 249.8 113.1 250.1 114.9 250.7 116.6 C 251.2 118.3 252.1 119.6 253.2 120.6 C 254.4 121.5 255.8 122 257.5 122 Z M 300.1 92.6 L 300.1 100.2 L 277.6 100.2 L 277.6 92.6 L 300.1 92.6 Z M 282.7 129.1 C 282.7 129.1 282.75 89.94 282.7 89.9 C 282.7 87.3 283.3 85.1 284.3 83.4 C 285.3 81.6 286.8 80.3 288.6 79.4 C 290.4 78.6 292.4 78.1 294.7 78.1 C 296.3 78.1 297.7 78.2 299 78.5 C 300.3 78.7 301.3 78.9 301.9 79.1 C 301.9 79.1 300.1 86.7 300.1 86.7 C 299.7 86.6 299.2 86.5 298.6 86.4 C 298 86.3 297.5 86.2 296.9 86.2 C 295.4 86.2 294.3 86.6 293.7 87.2 C 293.2 87.9 292.9 88.9 292.9 90.1 C 292.86 90.13 292.9 129.1 292.9 129.1 L 282.7 129.1 Z M 338.3 129.8 C 334.6 129.8 331.3 129.1 328.6 127.5 C 325.9 126 323.8 123.8 322.4 121 C 320.9 118.2 320.2 114.9 320.2 111 C 320.2 107.3 320.9 104 322.4 101.1 C 323.8 98.3 325.9 96.1 328.5 94.5 C 331.2 92.9 334.3 92.1 337.9 92.1 C 340.3 92.1 342.6 92.5 344.7 93.3 C 346.7 94 348.6 95.2 350.1 96.7 C 351.7 98.3 352.9 100.2 353.8 102.5 C 354.7 104.8 355.1 107.6 355.1 110.7 C 355.09 110.66 355.1 113.4 355.1 113.4 L 324.2 113.4 L 324.2 107.2 C 324.2 107.2 345.55 107.17 345.5 107.2 C 345.5 105.7 345.2 104.4 344.6 103.3 C 344 102.2 343.1 101.3 342 100.6 C 340.8 100 339.6 99.7 338.1 99.7 C 336.5 99.7 335.2 100 334 100.7 C 332.8 101.4 331.9 102.4 331.2 103.6 C 330.6 104.7 330.2 106.1 330.2 107.5 C 330.2 107.5 330.2 113.5 330.2 113.5 C 330.2 115.3 330.5 116.8 331.2 118.2 C 331.9 119.5 332.8 120.5 334.1 121.2 C 335.3 121.9 336.8 122.3 338.5 122.3 C 339.6 122.3 340.6 122.1 341.6 121.8 C 342.5 121.5 343.3 121 344 120.4 C 344.6 119.7 345.2 119 345.5 118 C 345.5 118 354.9 118.7 354.9 118.7 C 354.4 120.9 353.4 122.9 352 124.5 C 350.5 126.2 348.6 127.5 346.3 128.4 C 344 129.4 341.3 129.8 338.3 129.8 Z M 393.1 92.6 L 380.3 129.1 L 368.9 129.1 L 356.1 92.6 L 366.8 92.6 L 374.4 118.7 L 374.8 118.7 L 382.4 92.6 L 393.1 92.6 Z M 412.2 129.8 C 408.4 129.8 405.2 129.1 402.5 127.5 C 399.8 126 397.7 123.8 396.3 121 C 394.8 118.2 394.1 114.9 394.1 111 C 394.1 107.3 394.8 104 396.3 101.1 C 397.7 98.3 399.8 96.1 402.4 94.5 C 405.1 92.9 408.2 92.1 411.8 92.1 C 414.2 92.1 416.5 92.5 418.5 93.3 C 420.6 94 422.5 95.2 424 96.7 C 425.6 98.3 426.8 100.2 427.7 102.5 C 428.5 104.8 429 107.6 429 110.7 C 428.98 110.66 429 113.4 429 113.4 L 398.1 113.4 L 398.1 107.2 C 398.1 107.2 419.44 107.17 419.4 107.2 C 419.4 105.7 419.1 104.4 418.5 103.3 C 417.9 102.2 417 101.3 415.9 100.6 C 414.7 100 413.4 99.7 412 99.7 C 410.4 99.7 409.1 100 407.9 100.7 C 406.7 101.4 405.8 102.4 405.1 103.6 C 404.5 104.7 404.1 106.1 404.1 107.5 C 404.1 107.5 404.1 113.5 404.1 113.5 C 404.1 115.3 404.4 116.8 405.1 118.2 C 405.8 119.5 406.7 120.5 408 121.2 C 409.2 121.9 410.7 122.3 412.4 122.3 C 413.5 122.3 414.5 122.1 415.5 121.8 C 416.4 121.5 417.2 121 417.9 120.4 C 418.5 119.7 419 119 419.4 118 C 419.4 118 428.8 118.7 428.8 118.7 C 428.3 120.9 427.3 122.9 425.9 124.5 C 424.4 126.2 422.5 127.5 420.2 128.4 C 417.9 129.4 415.2 129.8 412.2 129.8 Z M 435 129.1 L 435 92.6 L 444.8 92.6 L 444.8 99 C 444.8 99 445.18 98.96 445.2 99 C 445.8 96.7 447 95 448.5 93.8 C 450.1 92.6 451.9 92.1 454 92.1 C 454.5 92.1 455 92.1 455.6 92.2 C 456.2 92.2 456.7 92.3 457.1 92.4 C 457.1 92.4 457.1 101.4 457.1 101.4 C 456.7 101.3 456 101.1 455.2 101 C 454.3 100.9 453.6 100.9 452.9 100.9 C 451.4 100.9 450 101.2 448.9 101.8 C 447.7 102.5 446.8 103.4 446.1 104.5 C 445.4 105.6 445.1 107 445.1 108.5 C 445.11 108.45 445.1 129.1 445.1 129.1 L 435 129.1 Z M 469 142.8 C 467.8 142.8 466.6 142.7 465.4 142.5 C 464.3 142.3 463.4 142.1 462.7 141.8 C 462.7 141.8 465 134.2 465 134.2 C 466.1 134.6 467.2 134.8 468.2 134.8 C 469.1 134.8 470 134.6 470.7 134.1 C 471.4 133.7 472 132.9 472.4 131.7 C 472.4 131.72 473 130.2 473 130.2 L 459.9 92.6 L 470.5 92.6 L 478.1 119.4 L 478.5 119.4 L 486.1 92.6 L 496.9 92.6 C 496.9 92.6 482.65 133.08 482.7 133.1 C 482 135 481 136.8 479.9 138.2 C 478.7 139.7 477.2 140.8 475.5 141.6 C 473.7 142.4 471.6 142.8 469 142.8 Z M 530.8 129.7 C 528.1 129.7 525.6 129 523.3 127.6 C 521.1 126.1 519.3 124 518 121.2 C 516.7 118.4 516 115 516 110.9 C 516 106.7 516.7 103.2 518 100.4 C 519.4 97.7 521.2 95.6 523.4 94.2 C 525.7 92.8 528.1 92.1 530.8 92.1 C 532.9 92.1 534.6 92.5 536 93.1 C 537.3 93.8 538.4 94.7 539.3 95.7 C 540.1 96.7 540.8 97.7 541.2 98.7 C 541.22 98.72 541.5 98.7 541.5 98.7 L 541.5 80.4 L 551.6 80.4 L 551.6 129.1 L 541.6 129.1 L 541.6 123.3 C 541.6 123.3 541.22 123.27 541.2 123.3 C 540.7 124.3 540.1 125.3 539.2 126.3 C 538.3 127.3 537.2 128.1 535.9 128.7 C 534.5 129.4 532.8 129.7 530.8 129.7 Z M 534.1 121.7 C 535.7 121.7 537.1 121.2 538.2 120.3 C 539.3 119.4 540.2 118.2 540.8 116.5 C 541.4 114.9 541.7 113 541.7 110.9 C 541.7 108.7 541.4 106.8 540.8 105.2 C 540.2 103.6 539.4 102.4 538.2 101.5 C 537.1 100.6 535.7 100.2 534.1 100.2 C 532.4 100.2 531 100.6 529.8 101.5 C 528.7 102.4 527.8 103.7 527.3 105.3 C 526.7 106.9 526.4 108.7 526.4 110.9 C 526.4 113 526.7 114.9 527.3 116.5 C 527.9 118.1 528.7 119.4 529.9 120.3 C 531 121.2 532.4 121.7 534.1 121.7 Z M 575.7 129.8 C 572 129.8 568.7 129.1 566 127.5 C 563.3 126 561.2 123.8 559.8 121 C 558.3 118.2 557.6 114.9 557.6 111 C 557.6 107.3 558.3 104 559.8 101.1 C 561.2 98.3 563.3 96.1 566 94.5 C 568.6 92.9 571.7 92.1 575.3 92.1 C 577.7 92.1 580 92.5 582.1 93.3 C 584.2 94 586 95.2 587.5 96.7 C 589.1 98.3 590.3 100.2 591.2 102.5 C 592.1 104.8 592.5 107.6 592.5 110.7 C 592.5 110.66 592.5 113.4 592.5 113.4 L 561.6 113.4 L 561.6 107.2 C 561.6 107.2 582.96 107.17 583 107.2 C 583 105.7 582.6 104.4 582 103.3 C 581.4 102.2 580.5 101.3 579.4 100.6 C 578.3 100 577 99.7 575.5 99.7 C 574 99.7 572.6 100 571.4 100.7 C 570.2 101.4 569.3 102.4 568.6 103.6 C 568 104.7 567.6 106.1 567.6 107.5 C 567.6 107.5 567.6 113.5 567.6 113.5 C 567.6 115.3 568 116.8 568.6 118.2 C 569.3 119.5 570.3 120.5 571.5 121.2 C 572.7 121.9 574.2 122.3 575.9 122.3 C 577 122.3 578.1 122.1 579 121.8 C 579.9 121.5 580.7 121 581.4 120.4 C 582.1 119.7 582.6 119 582.9 118 C 582.9 118 592.3 118.7 592.3 118.7 C 591.8 120.9 590.8 122.9 589.4 124.5 C 587.9 126.2 586 127.5 583.7 128.4 C 581.4 129.4 578.7 129.8 575.7 129.8 Z M 614.7 129.8 C 611 129.8 607.7 129 605 127.4 C 602.4 125.9 600.3 123.6 598.9 120.8 C 597.4 118 596.7 114.7 596.7 111 C 596.7 107.3 597.4 104 598.9 101.1 C 600.3 98.3 602.4 96.1 605.1 94.5 C 607.8 92.9 611 92.1 614.6 92.1 C 617.8 92.1 620.6 92.7 623 93.8 C 625.4 95 627.3 96.6 628.7 98.7 C 630.1 100.8 630.9 103.3 631 106.1 C 631 106.1 621.5 106.1 621.5 106.1 C 621.2 104.3 620.5 102.8 619.3 101.7 C 618.2 100.6 616.7 100 614.8 100 C 613.2 100 611.9 100.4 610.7 101.3 C 609.5 102.1 608.6 103.4 608 105 C 607.3 106.6 607 108.6 607 110.9 C 607 113.2 607.3 115.2 608 116.8 C 608.6 118.4 609.5 119.7 610.7 120.5 C 611.9 121.4 613.2 121.8 614.8 121.8 C 616 121.8 617 121.6 617.9 121.1 C 618.9 120.6 619.6 119.9 620.3 119 C 620.9 118.1 621.3 117 621.5 115.7 C 621.5 115.7 631 115.7 631 115.7 C 630.9 118.5 630.1 121 628.7 123.1 C 627.4 125.2 625.5 126.9 623.1 128.1 C 620.8 129.2 617.9 129.8 614.7 129.8 Z M 636.7 129.1 L 636.7 92.6 L 646.8 92.6 L 646.8 129.1 L 636.7 129.1 Z M 641.8 87.9 C 640.3 87.9 639 87.4 637.9 86.4 C 636.8 85.4 636.3 84.2 636.3 82.8 C 636.3 81.3 636.8 80.1 637.9 79.1 C 639 78.1 640.3 77.6 641.8 77.6 C 643.3 77.6 644.6 78.1 645.6 79.1 C 646.7 80.1 647.2 81.3 647.2 82.7 C 647.2 84.1 646.7 85.4 645.6 86.4 C 644.6 87.4 643.3 87.9 641.8 87.9 Z M 684.4 103 C 684.4 103 675.1 103.6 675.1 103.6 C 674.9 102.8 674.6 102.1 674.1 101.4 C 673.5 100.8 672.8 100.3 672 99.9 C 671.2 99.5 670.1 99.3 669 99.3 C 667.4 99.3 666.1 99.6 665 100.3 C 663.9 100.9 663.4 101.8 663.4 102.9 C 663.4 103.8 663.7 104.5 664.4 105.1 C 665.1 105.7 666.3 106.2 668 106.6 C 668 106.6 674.6 107.9 674.6 107.9 C 678.2 108.6 680.8 109.8 682.6 111.4 C 684.3 113 685.2 115.2 685.2 117.8 C 685.2 120.2 684.5 122.3 683.1 124.1 C 681.7 125.9 679.8 127.3 677.3 128.3 C 674.9 129.3 672.1 129.8 668.9 129.8 C 664.1 129.8 660.2 128.8 657.4 126.8 C 654.5 124.8 652.8 122 652.3 118.5 C 652.3 118.5 662.3 118 662.3 118 C 662.6 119.5 663.3 120.6 664.5 121.4 C 665.7 122.2 667.1 122.5 668.9 122.5 C 670.7 122.5 672.2 122.2 673.2 121.5 C 674.3 120.8 674.9 119.9 674.9 118.8 C 674.9 117.9 674.5 117.1 673.7 116.6 C 673 116 671.8 115.5 670.2 115.2 C 670.2 115.2 663.9 113.9 663.9 113.9 C 660.3 113.2 657.7 112 655.9 110.2 C 654.2 108.5 653.3 106.2 653.3 103.5 C 653.3 101.1 653.9 99.1 655.2 97.4 C 656.5 95.7 658.3 94.4 660.6 93.5 C 663 92.6 665.7 92.1 668.8 92.1 C 673.4 92.1 677.1 93.1 679.7 95 C 682.4 97 683.9 99.6 684.4 103 Z M 690.8 129.1 L 690.8 92.6 L 700.9 92.6 L 700.9 129.1 L 690.8 129.1 Z M 695.9 87.9 C 694.4 87.9 693.1 87.4 692 86.4 C 690.9 85.4 690.4 84.2 690.4 82.8 C 690.4 81.3 690.9 80.1 692 79.1 C 693.1 78.1 694.4 77.6 695.9 77.6 C 697.4 77.6 698.7 78.1 699.7 79.1 C 700.8 80.1 701.4 81.3 701.4 82.7 C 701.4 84.1 700.8 85.4 699.7 86.4 C 698.7 87.4 697.4 87.9 695.9 87.9 Z M 724.6 129.8 C 720.9 129.8 717.8 129.1 715.1 127.5 C 712.4 125.9 710.3 123.7 708.8 120.9 C 707.4 118 706.7 114.7 706.7 111 C 706.7 107.2 707.4 103.9 708.8 101.1 C 710.3 98.3 712.4 96.1 715.1 94.5 C 717.8 92.9 720.9 92.1 724.6 92.1 C 728.3 92.1 731.5 92.9 734.2 94.5 C 736.9 96.1 739 98.3 740.4 101.1 C 741.9 103.9 742.6 107.2 742.6 111 C 742.6 114.7 741.9 118 740.4 120.9 C 739 123.7 736.9 125.9 734.2 127.5 C 731.5 129.1 728.3 129.8 724.6 129.8 Z M 724.7 122 C 726.4 122 727.8 121.5 728.9 120.6 C 730 119.6 730.9 118.3 731.5 116.6 C 732 114.9 732.3 113.1 732.3 110.9 C 732.3 108.8 732 106.9 731.5 105.2 C 730.9 103.6 730 102.3 728.9 101.3 C 727.8 100.3 726.4 99.8 724.7 99.8 C 723 99.8 721.6 100.3 720.4 101.3 C 719.3 102.3 718.4 103.6 717.8 105.2 C 717.2 106.9 717 108.8 717 110.9 C 717 113.1 717.2 114.9 717.8 116.6 C 718.4 118.3 719.3 119.6 720.4 120.6 C 721.6 121.5 723 122 724.7 122 Z M 758.5 108 C 758.52 108 758.5 129.1 758.5 129.1 L 748.4 129.1 L 748.4 92.6 L 758 92.6 L 758 99 C 758 99 758.47 99.03 758.5 99 C 759.3 96.9 760.6 95.2 762.5 94 C 764.4 92.7 766.8 92.1 769.5 92.1 C 772 92.1 774.2 92.7 776.1 93.8 C 778 94.9 779.5 96.5 780.5 98.5 C 781.6 100.6 782.1 103 782.1 105.9 C 782.07 105.86 782.1 129.1 782.1 129.1 L 771.9 129.1 C 771.9 129.1 771.94 107.67 771.9 107.7 C 772 105.4 771.4 103.7 770.2 102.4 C 769.1 101.2 767.5 100.5 765.4 100.5 C 764.1 100.5 762.9 100.8 761.8 101.4 C 760.8 102 760 102.8 759.4 104 C 758.8 105.1 758.5 106.4 758.5 108 Z " stroke="none" fill="#ffffff"/>  </g>  <g id="Polygon117896">    <path d="M 12.6 48.7 L 1.6 48.7 L 18.4 0 L 31.7 0 L 48.5 48.7 L 37.4 48.7 L 25.2 11.1 L 24.9 11.1 L 12.6 48.7 Z M 11.9 29.6 L 38 29.6 L 38 37.6 L 11.9 37.6 L 11.9 29.6 Z M 63.3 27.6 C 63.26 27.6 63.3 48.7 63.3 48.7 L 53.1 48.7 L 53.1 12.2 L 62.8 12.2 L 62.8 18.6 C 62.8 18.6 63.21 18.63 63.2 18.6 C 64 16.5 65.4 14.8 67.3 13.6 C 69.2 12.3 71.5 11.7 74.2 11.7 C 76.7 11.7 79 12.3 80.8 13.4 C 82.7 14.5 84.2 16.1 85.2 18.1 C 86.3 20.2 86.8 22.6 86.8 25.5 C 86.81 25.46 86.8 48.7 86.8 48.7 L 76.7 48.7 C 76.7 48.7 76.67 27.27 76.7 27.3 C 76.7 25 76.1 23.3 75 22 C 73.8 20.8 72.2 20.1 70.2 20.1 C 68.8 20.1 67.6 20.4 66.6 21 C 65.5 21.6 64.7 22.4 64.1 23.6 C 63.6 24.7 63.3 26 63.3 27.6 Z M 104.3 49.4 C 102 49.4 99.9 49 98.1 48.2 C 96.2 47.4 94.8 46.2 93.7 44.6 C 92.7 42.9 92.2 40.9 92.2 38.5 C 92.2 36.5 92.5 34.8 93.3 33.4 C 94 32 95 30.9 96.3 30.1 C 97.6 29.2 99.1 28.6 100.7 28.2 C 102.4 27.7 104.1 27.4 105.9 27.3 C 108 27 109.7 26.8 111 26.6 C 112.3 26.4 113.3 26.1 113.9 25.7 C 114.4 25.3 114.7 24.8 114.7 24 C 114.7 24 114.7 23.8 114.7 23.8 C 114.7 22.3 114.3 21.2 113.3 20.3 C 112.4 19.5 111 19.1 109.3 19.1 C 107.5 19.1 106 19.5 105 20.3 C 103.9 21.1 103.2 22.1 102.8 23.3 C 102.8 23.3 93.4 22.6 93.4 22.6 C 93.9 20.3 94.9 18.4 96.2 16.8 C 97.6 15.2 99.4 13.9 101.7 13 C 103.9 12.1 106.4 11.7 109.4 11.7 C 111.4 11.7 113.3 11.9 115.2 12.4 C 117.1 12.9 118.7 13.6 120.2 14.6 C 121.6 15.6 122.8 16.9 123.6 18.5 C 124.5 20 124.9 21.9 124.9 24.1 C 124.87 24.08 124.9 48.7 124.9 48.7 L 115.3 48.7 L 115.3 43.7 C 115.3 43.7 114.97 43.66 115 43.7 C 114.4 44.8 113.6 45.8 112.6 46.7 C 111.6 47.5 110.5 48.2 109.1 48.7 C 107.7 49.2 106.1 49.4 104.3 49.4 Z M 107.2 42.4 C 108.7 42.4 110 42.1 111.1 41.5 C 112.3 40.9 113.2 40.1 113.8 39.1 C 114.5 38.1 114.8 36.9 114.8 35.7 C 114.8 35.7 114.8 31.8 114.8 31.8 C 114.5 32 114.1 32.2 113.5 32.3 C 113 32.5 112.3 32.7 111.7 32.8 C 111 32.9 110.3 33.1 109.6 33.2 C 108.9 33.3 108.3 33.3 107.8 33.4 C 106.6 33.6 105.5 33.9 104.6 34.3 C 103.8 34.6 103.1 35.2 102.6 35.8 C 102.1 36.4 101.8 37.2 101.8 38.2 C 101.8 39.6 102.3 40.6 103.4 41.3 C 104.4 42.1 105.6 42.4 107.2 42.4 Z M 132.2 62.4 L 132.2 12.2 L 142.2 12.2 L 142.2 18.3 C 142.2 18.3 142.65 18.32 142.6 18.3 C 143.1 17.3 143.7 16.3 144.6 15.3 C 145.4 14.3 146.5 13.4 147.9 12.7 C 149.3 12.1 151 11.7 153 11.7 C 155.7 11.7 158.2 12.4 160.4 13.8 C 162.7 15.2 164.5 17.3 165.8 20 C 167.2 22.8 167.8 26.3 167.8 30.5 C 167.8 34.6 167.2 38 165.9 40.8 C 164.6 43.6 162.8 45.7 160.6 47.2 C 158.3 48.6 155.8 49.3 153 49.3 C 151.1 49.3 149.4 49 148 48.3 C 146.6 47.7 145.5 46.9 144.6 45.9 C 143.8 44.9 143.1 43.9 142.6 42.9 C 142.65 42.87 142.3 42.9 142.3 42.9 L 142.3 62.4 L 132.2 62.4 Z M 142.1 30.5 C 142.1 32.6 142.4 34.5 143 36.1 C 143.6 37.8 144.5 39 145.6 39.9 C 146.8 40.8 148.2 41.3 149.8 41.3 C 151.5 41.3 152.9 40.8 154 39.9 C 155.1 39 156 37.7 156.6 36.1 C 157.2 34.5 157.5 32.6 157.5 30.5 C 157.5 28.3 157.2 26.5 156.6 24.9 C 156 23.3 155.2 22 154 21.1 C 152.9 20.2 151.5 19.8 149.8 19.8 C 148.2 19.8 146.8 20.2 145.6 21.1 C 144.5 22 143.6 23.2 143 24.8 C 142.4 26.4 142.1 28.3 142.1 30.5 Z M 184.1 0 L 184.1 48.7 L 173.9 48.7 L 173.9 0 L 184.1 0 Z M 201.8 49.4 C 199.5 49.4 197.4 49 195.6 48.2 C 193.8 47.4 192.3 46.2 191.3 44.6 C 190.2 42.9 189.7 40.9 189.7 38.5 C 189.7 36.5 190.1 34.8 190.8 33.4 C 191.6 32 192.6 30.9 193.9 30.1 C 195.1 29.2 196.6 28.6 198.2 28.2 C 199.9 27.7 201.6 27.4 203.4 27.3 C 205.5 27 207.3 26.8 208.6 26.6 C 209.9 26.4 210.8 26.1 211.4 25.7 C 212 25.3 212.3 24.8 212.3 24 C 212.3 24 212.3 23.8 212.3 23.8 C 212.3 22.3 211.8 21.2 210.9 20.3 C 209.9 19.5 208.6 19.1 206.8 19.1 C 205 19.1 203.6 19.5 202.5 20.3 C 201.4 21.1 200.7 22.1 200.4 23.3 C 200.4 23.3 191 22.6 191 22.6 C 191.5 20.3 192.4 18.4 193.8 16.8 C 195.2 15.2 197 13.9 199.2 13 C 201.4 12.1 204 11.7 206.9 11.7 C 208.9 11.7 210.9 11.9 212.7 12.4 C 214.6 12.9 216.3 13.6 217.7 14.6 C 219.2 15.6 220.3 16.9 221.1 18.5 C 222 20 222.4 21.9 222.4 24.1 C 222.41 24.08 222.4 48.7 222.4 48.7 L 212.8 48.7 L 212.8 43.7 C 212.8 43.7 212.51 43.66 212.5 43.7 C 211.9 44.8 211.1 45.8 210.2 46.7 C 209.2 47.5 208 48.2 206.6 48.7 C 205.2 49.2 203.6 49.4 201.8 49.4 Z M 204.7 42.4 C 206.2 42.4 207.5 42.1 208.7 41.5 C 209.8 40.9 210.7 40.1 211.4 39.1 C 212 38.1 212.3 36.9 212.3 35.7 C 212.3 35.7 212.3 31.8 212.3 31.8 C 212 32 211.6 32.2 211 32.3 C 210.5 32.5 209.9 32.7 209.2 32.8 C 208.5 32.9 207.8 33.1 207.2 33.2 C 206.5 33.3 205.9 33.3 205.3 33.4 C 204.1 33.6 203.1 33.9 202.2 34.3 C 201.3 34.6 200.6 35.2 200.1 35.8 C 199.6 36.4 199.4 37.2 199.4 38.2 C 199.4 39.6 199.9 40.6 200.9 41.3 C 201.9 42.1 203.2 42.4 204.7 42.4 Z M 239.9 27.6 C 239.88 27.6 239.9 48.7 239.9 48.7 L 229.7 48.7 L 229.7 12.2 L 239.4 12.2 L 239.4 18.6 C 239.4 18.6 239.83 18.63 239.8 18.6 C 240.6 16.5 242 14.8 243.9 13.6 C 245.8 12.3 248.1 11.7 250.8 11.7 C 253.4 11.7 255.6 12.3 257.5 13.4 C 259.3 14.5 260.8 16.1 261.9 18.1 C 262.9 20.2 263.4 22.6 263.4 25.5 C 263.43 25.46 263.4 48.7 263.4 48.7 L 253.3 48.7 C 253.3 48.7 253.3 27.27 253.3 27.3 C 253.3 25 252.7 23.3 251.6 22 C 250.4 20.8 248.8 20.1 246.8 20.1 C 245.4 20.1 244.2 20.4 243.2 21 C 242.2 21.6 241.3 22.4 240.8 23.6 C 240.2 24.7 239.9 26 239.9 27.6 Z M 303.4 49.4 C 299.7 49.4 296.5 48.6 293.8 47 C 291.1 45.5 289.1 43.2 287.6 40.4 C 286.2 37.6 285.5 34.3 285.5 30.6 C 285.5 26.9 286.2 23.6 287.6 20.7 C 289.1 17.9 291.2 15.7 293.8 14.1 C 296.5 12.5 299.7 11.7 303.4 11.7 C 306.6 11.7 309.4 12.3 311.8 13.4 C 314.2 14.6 316.1 16.2 317.5 18.3 C 318.9 20.4 319.6 22.9 319.8 25.7 C 319.8 25.7 310.2 25.7 310.2 25.7 C 309.9 23.9 309.2 22.4 308.1 21.3 C 306.9 20.2 305.4 19.6 303.6 19.6 C 302 19.6 300.6 20 299.5 20.9 C 298.3 21.7 297.4 23 296.7 24.6 C 296.1 26.2 295.8 28.2 295.8 30.5 C 295.8 32.8 296.1 34.8 296.7 36.4 C 297.4 38 298.3 39.3 299.5 40.1 C 300.6 41 302 41.4 303.6 41.4 C 304.7 41.4 305.8 41.2 306.7 40.7 C 307.6 40.2 308.4 39.5 309 38.6 C 309.6 37.7 310 36.6 310.2 35.3 C 310.2 35.3 319.8 35.3 319.8 35.3 C 319.6 38.1 318.9 40.6 317.5 42.7 C 316.1 44.8 314.3 46.5 311.9 47.7 C 309.5 48.8 306.7 49.4 303.4 49.4 Z M 341.6 49.4 C 337.9 49.4 334.7 48.7 332 47.1 C 329.3 45.5 327.3 43.3 325.8 40.5 C 324.3 37.6 323.6 34.3 323.6 30.6 C 323.6 26.8 324.3 23.5 325.8 20.7 C 327.3 17.9 329.3 15.7 332 14.1 C 334.7 12.5 337.9 11.7 341.6 11.7 C 345.3 11.7 348.5 12.5 351.2 14.1 C 353.9 15.7 355.9 17.9 357.4 20.7 C 358.9 23.5 359.6 26.8 359.6 30.6 C 359.6 34.3 358.9 37.6 357.4 40.5 C 355.9 43.3 353.9 45.5 351.2 47.1 C 348.5 48.7 345.3 49.4 341.6 49.4 Z M 341.6 41.6 C 343.3 41.6 344.7 41.1 345.9 40.2 C 347 39.2 347.8 37.9 348.4 36.2 C 349 34.5 349.3 32.7 349.3 30.5 C 349.3 28.4 349 26.5 348.4 24.8 C 347.8 23.2 347 21.9 345.9 20.9 C 344.7 19.9 343.3 19.4 341.6 19.4 C 339.9 19.4 338.5 19.9 337.4 20.9 C 336.2 21.9 335.4 23.2 334.8 24.8 C 334.2 26.5 333.9 28.4 333.9 30.5 C 333.9 32.7 334.2 34.5 334.8 36.2 C 335.4 37.9 336.2 39.2 337.4 40.2 C 338.5 41.1 339.9 41.6 341.6 41.6 Z M 375.5 27.6 C 375.48 27.6 375.5 48.7 375.5 48.7 L 365.3 48.7 L 365.3 12.2 L 375 12.2 L 375 18.6 C 375 18.6 375.43 18.63 375.4 18.6 C 376.2 16.5 377.6 14.8 379.5 13.6 C 381.4 12.3 383.7 11.7 386.4 11.7 C 389 11.7 391.2 12.3 393.1 13.4 C 394.9 14.5 396.4 16.1 397.5 18.1 C 398.5 20.2 399 22.6 399 25.5 C 399.03 25.46 399 48.7 399 48.7 L 388.9 48.7 C 388.9 48.7 388.9 27.27 388.9 27.3 C 388.9 25 388.3 23.3 387.2 22 C 386 20.8 384.4 20.1 382.4 20.1 C 381 20.1 379.8 20.4 378.8 21 C 377.8 21.6 376.9 22.4 376.4 23.6 C 375.8 24.7 375.5 26 375.5 27.6 Z M 416.5 27.6 C 416.51 27.6 416.5 48.7 416.5 48.7 L 406.4 48.7 L 406.4 12.2 L 416 12.2 L 416 18.6 C 416 18.6 416.46 18.63 416.5 18.6 C 417.3 16.5 418.6 14.8 420.5 13.6 C 422.4 12.3 424.7 11.7 427.5 11.7 C 430 11.7 432.2 12.3 434.1 13.4 C 436 14.5 437.4 16.1 438.5 18.1 C 439.5 20.2 440.1 22.6 440.1 25.5 C 440.06 25.46 440.1 48.7 440.1 48.7 L 429.9 48.7 C 429.9 48.7 429.93 27.27 429.9 27.3 C 429.9 25 429.4 23.3 428.2 22 C 427.1 20.8 425.5 20.1 423.4 20.1 C 422.1 20.1 420.9 20.4 419.8 21 C 418.8 21.6 418 22.4 417.4 23.6 C 416.8 24.7 416.5 26 416.5 27.6 Z M 463.8 49.4 C 460 49.4 456.8 48.7 454.1 47.1 C 451.4 45.6 449.3 43.4 447.8 40.6 C 446.4 37.8 445.6 34.5 445.6 30.6 C 445.6 26.9 446.4 23.6 447.8 20.7 C 449.3 17.9 451.3 15.7 454 14.1 C 456.7 12.5 459.8 11.7 463.4 11.7 C 465.8 11.7 468 12.1 470.1 12.9 C 472.2 13.6 474 14.8 475.6 16.3 C 477.1 17.9 478.4 19.8 479.2 22.1 C 480.1 24.4 480.5 27.2 480.5 30.3 C 480.54 30.26 480.5 33 480.5 33 L 449.7 33 L 449.7 26.8 C 449.7 26.8 471 26.77 471 26.8 C 471 25.3 470.7 24 470 22.9 C 469.4 21.8 468.5 20.9 467.4 20.2 C 466.3 19.6 465 19.3 463.5 19.3 C 462 19.3 460.6 19.6 459.4 20.3 C 458.3 21 457.3 22 456.7 23.2 C 456 24.3 455.7 25.7 455.7 27.1 C 455.7 27.1 455.7 33.1 455.7 33.1 C 455.7 34.9 456 36.4 456.7 37.8 C 457.3 39.1 458.3 40.1 459.5 40.8 C 460.8 41.5 462.2 41.9 463.9 41.9 C 465.1 41.9 466.1 41.7 467 41.4 C 468 41.1 468.8 40.6 469.4 40 C 470.1 39.3 470.6 38.6 471 37.6 C 471 37.6 480.3 38.3 480.3 38.3 C 479.9 40.5 478.9 42.5 477.4 44.1 C 475.9 45.8 474.1 47.1 471.8 48 C 469.4 49 466.8 49.4 463.8 49.4 Z M 502.7 49.4 C 499 49.4 495.8 48.6 493.1 47 C 490.4 45.5 488.3 43.2 486.9 40.4 C 485.5 37.6 484.7 34.3 484.7 30.6 C 484.7 26.9 485.5 23.6 486.9 20.7 C 488.4 17.9 490.4 15.7 493.1 14.1 C 495.8 12.5 499 11.7 502.7 11.7 C 505.9 11.7 508.7 12.3 511.1 13.4 C 513.5 14.6 515.4 16.2 516.8 18.3 C 518.1 20.4 518.9 22.9 519.1 25.7 C 519.1 25.7 509.5 25.7 509.5 25.7 C 509.2 23.9 508.5 22.4 507.4 21.3 C 506.2 20.2 504.7 19.6 502.9 19.6 C 501.3 19.6 499.9 20 498.8 20.9 C 497.6 21.7 496.7 23 496 24.6 C 495.4 26.2 495.1 28.2 495.1 30.5 C 495.1 32.8 495.4 34.8 496 36.4 C 496.7 38 497.6 39.3 498.7 40.1 C 499.9 41 501.3 41.4 502.9 41.4 C 504 41.4 505.1 41.2 506 40.7 C 506.9 40.2 507.7 39.5 508.3 38.6 C 508.9 37.7 509.3 36.6 509.5 35.3 C 509.5 35.3 519.1 35.3 519.1 35.3 C 518.9 38.1 518.1 40.6 516.8 42.7 C 515.4 44.8 513.6 46.5 511.2 47.7 C 508.8 48.8 506 49.4 502.7 49.4 Z M 544 12.2 L 544 19.8 L 521.9 19.8 L 521.9 12.2 L 544 12.2 Z M 526.9 3.4 L 537.1 3.4 C 537.1 3.4 537.08 37.5 537.1 37.5 C 537.1 38.4 537.2 39.2 537.5 39.7 C 537.8 40.2 538.2 40.6 538.7 40.8 C 539.2 41 539.8 41.1 540.5 41.1 C 541 41.1 541.5 41 541.9 40.9 C 542.4 40.8 542.8 40.8 543 40.7 C 543 40.7 544.6 48.3 544.6 48.3 C 544.1 48.4 543.4 48.6 542.5 48.8 C 541.6 49 540.4 49.2 539.1 49.2 C 536.7 49.3 534.5 49 532.7 48.3 C 530.9 47.5 529.5 46.3 528.4 44.8 C 527.4 43.2 526.9 41.2 526.9 38.8 C 526.95 38.83 526.9 3.4 526.9 3.4 Z M 579.3 22.6 C 579.3 22.6 570 23.2 570 23.2 C 569.8 22.4 569.5 21.7 569 21 C 568.4 20.4 567.8 19.9 566.9 19.5 C 566.1 19.1 565 18.9 563.9 18.9 C 562.3 18.9 561 19.2 559.9 19.9 C 558.8 20.5 558.3 21.4 558.3 22.5 C 558.3 23.4 558.6 24.1 559.3 24.7 C 560 25.3 561.2 25.8 562.9 26.2 C 562.9 26.2 569.5 27.5 569.5 27.5 C 573.1 28.2 575.7 29.4 577.5 31 C 579.2 32.6 580.1 34.8 580.1 37.4 C 580.1 39.8 579.4 41.9 578 43.7 C 576.6 45.5 574.7 46.9 572.2 47.9 C 569.8 48.9 567 49.4 563.8 49.4 C 559 49.4 555.1 48.4 552.3 46.4 C 549.4 44.4 547.7 41.6 547.2 38.1 C 547.2 38.1 557.2 37.6 557.2 37.6 C 557.5 39.1 558.2 40.2 559.4 41 C 560.6 41.8 562 42.1 563.8 42.1 C 565.6 42.1 567.1 41.8 568.1 41.1 C 569.2 40.4 569.8 39.5 569.8 38.4 C 569.8 37.5 569.4 36.7 568.6 36.2 C 567.9 35.6 566.7 35.1 565.1 34.8 C 565.1 34.8 558.8 33.5 558.8 33.5 C 555.2 32.8 552.6 31.6 550.8 29.8 C 549.1 28.1 548.2 25.8 548.2 23.1 C 548.2 20.7 548.9 18.7 550.1 17 C 551.4 15.3 553.2 14 555.5 13.1 C 557.9 12.2 560.6 11.7 563.7 11.7 C 568.3 11.7 572 12.7 574.6 14.6 C 577.3 16.6 578.8 19.2 579.3 22.6 Z M 621.5 12.2 L 621.5 19.8 L 599.5 19.8 L 599.5 12.2 L 621.5 12.2 Z M 604.5 3.4 L 614.6 3.4 C 614.6 3.4 614.6 37.5 614.6 37.5 C 614.6 38.4 614.7 39.2 615 39.7 C 615.3 40.2 615.7 40.6 616.2 40.8 C 616.7 41 617.3 41.1 618 41.1 C 618.5 41.1 619 41 619.5 40.9 C 619.9 40.8 620.3 40.8 620.5 40.7 C 620.5 40.7 622.1 48.3 622.1 48.3 C 621.6 48.4 620.9 48.6 620 48.8 C 619.1 49 618 49.2 616.6 49.2 C 614.2 49.3 612.1 49 610.2 48.3 C 608.4 47.5 607 46.3 606 44.8 C 604.9 43.2 604.4 41.2 604.5 38.8 C 604.46 38.83 604.5 3.4 604.5 3.4 Z M 637.2 27.6 C 637.15 27.6 637.2 48.7 637.2 48.7 L 627 48.7 L 627 0 L 636.9 0 L 636.9 18.6 C 636.9 18.6 637.3 18.63 637.3 18.6 C 638.1 16.5 639.5 14.8 641.3 13.5 C 643.1 12.3 645.4 11.7 648.2 11.7 C 650.8 11.7 653 12.3 654.9 13.4 C 656.8 14.5 658.2 16 659.3 18.1 C 660.3 20.1 660.9 22.6 660.9 25.5 C 660.85 25.46 660.9 48.7 660.9 48.7 L 650.7 48.7 C 650.7 48.7 650.72 27.27 650.7 27.3 C 650.7 25 650.2 23.3 649 22 C 647.9 20.8 646.3 20.1 644.2 20.1 C 642.8 20.1 641.6 20.4 640.5 21 C 639.5 21.6 638.7 22.4 638.1 23.6 C 637.5 24.7 637.2 26 637.2 27.6 Z M 684.6 49.4 C 680.8 49.4 677.6 48.7 674.9 47.1 C 672.2 45.6 670.1 43.4 668.6 40.6 C 667.2 37.8 666.4 34.5 666.4 30.6 C 666.4 26.9 667.2 23.6 668.6 20.7 C 670.1 17.9 672.1 15.7 674.8 14.1 C 677.5 12.5 680.6 11.7 684.2 11.7 C 686.6 11.7 688.8 12.1 690.9 12.9 C 693 13.6 694.8 14.8 696.4 16.3 C 697.9 17.9 699.2 19.8 700 22.1 C 700.9 24.4 701.3 27.2 701.3 30.3 C 701.34 30.26 701.3 33 701.3 33 L 670.5 33 L 670.5 26.8 C 670.5 26.8 691.8 26.77 691.8 26.8 C 691.8 25.3 691.5 24 690.8 22.9 C 690.2 21.8 689.3 20.9 688.2 20.2 C 687.1 19.6 685.8 19.3 684.3 19.3 C 682.8 19.3 681.4 19.6 680.2 20.3 C 679.1 21 678.1 22 677.5 23.2 C 676.8 24.3 676.5 25.7 676.4 27.1 C 676.4 27.1 676.4 33.1 676.4 33.1 C 676.4 34.9 676.8 36.4 677.5 37.8 C 678.1 39.1 679.1 40.1 680.3 40.8 C 681.6 41.5 683 41.9 684.7 41.9 C 685.9 41.9 686.9 41.7 687.8 41.4 C 688.8 41.1 689.6 40.6 690.2 40 C 690.9 39.3 691.4 38.6 691.7 37.6 C 691.7 37.6 701.1 38.3 701.1 38.3 C 700.6 40.5 699.7 42.5 698.2 44.1 C 696.7 45.8 694.9 47.1 692.5 48 C 690.2 49 687.6 49.4 684.6 49.4 Z " stroke="none" fill="#ffffff"/>  </g></svg>