<?xml version="1.0" standalone="no"?><!DOCTYPE svg PUBLIC "-//W3C//DTD SVG 1.1//EN" "http://www.w3.org/Graphics/SVG/1.1/DTD/svg11.dtd"><svg xmlns="http://www.w3.org/2000/svg" version="1.1" width="61px" height="18.4px" viewBox="0 -5 61 18.4" style="top:-5px">  <desc>8 / 19</desc>  <defs/>  <g id="Polygon118410">    <path d="M 20.4 7.4 C 19.9 7.4 19.5 7.3 19.1 7.1 C 18.7 6.9 18.4 6.7 18.2 6.4 C 18 6.1 17.9 5.7 17.9 5.3 C 17.9 5 18 4.7 18.1 4.5 C 18.2 4.2 18.4 4 18.6 3.8 C 18.8 3.7 19.1 3.5 19.3 3.5 C 19.3 3.5 19.3 3.5 19.3 3.5 C 19 3.4 18.7 3.2 18.5 2.9 C 18.3 2.6 18.2 2.2 18.2 1.8 C 18.2 1.5 18.3 1.1 18.5 0.8 C 18.7 0.6 18.9 0.3 19.3 0.2 C 19.6 0 20 -0.1 20.4 -0.1 C 20.8 -0.1 21.2 0 21.5 0.2 C 21.9 0.3 22.1 0.6 22.3 0.8 C 22.5 1.1 22.6 1.5 22.6 1.8 C 22.6 2.2 22.5 2.6 22.3 2.9 C 22.1 3.2 21.8 3.4 21.5 3.5 C 21.5 3.5 21.5 3.5 21.5 3.5 C 21.7 3.5 22 3.7 22.2 3.8 C 22.4 4 22.6 4.2 22.7 4.5 C 22.8 4.7 22.9 5 22.9 5.3 C 22.9 5.7 22.8 6.1 22.6 6.4 C 22.3 6.7 22.1 6.9 21.7 7.1 C 21.3 7.3 20.9 7.4 20.4 7.4 Z M 20.4 6.6 C 20.7 6.6 21 6.5 21.3 6.4 C 21.5 6.3 21.7 6.2 21.8 6 C 21.9 5.8 22 5.6 22 5.3 C 22 5 21.9 4.8 21.8 4.6 C 21.7 4.4 21.5 4.2 21.2 4.1 C 21 4 20.7 3.9 20.4 3.9 C 20.1 3.9 19.8 4 19.6 4.1 C 19.3 4.2 19.1 4.4 19 4.6 C 18.9 4.8 18.8 5 18.8 5.3 C 18.8 5.6 18.9 5.8 19 6 C 19.1 6.2 19.3 6.3 19.5 6.4 C 19.8 6.5 20.1 6.6 20.4 6.6 Z M 20.4 3.1 C 20.7 3.1 20.9 3.1 21.1 3 C 21.3 2.9 21.5 2.7 21.6 2.5 C 21.7 2.4 21.7 2.1 21.7 1.9 C 21.7 1.6 21.7 1.4 21.6 1.2 C 21.5 1.1 21.3 0.9 21.1 0.8 C 20.9 0.7 20.7 0.7 20.4 0.7 C 20.1 0.7 19.9 0.7 19.7 0.8 C 19.5 0.9 19.3 1.1 19.2 1.2 C 19.1 1.4 19 1.6 19 1.9 C 19 2.1 19.1 2.4 19.2 2.5 C 19.3 2.7 19.5 2.9 19.7 3 C 19.9 3.1 20.1 3.1 20.4 3.1 Z M 29.6 -0.3 L 27.3 8.4 L 26.5 8.4 L 28.9 -0.3 L 29.6 -0.3 Z M 36 0 L 36 7.3 L 35.1 7.3 L 35.1 0.9 L 35.1 0.9 L 33.3 2.1 L 33.3 1.2 L 35.1 0 L 36 0 Z M 40.3 -0.1 C 40.6 -0.1 40.9 0 41.2 0.1 C 41.5 0.2 41.8 0.4 42 0.6 C 42.2 0.9 42.4 1.2 42.6 1.7 C 42.7 2.1 42.8 2.7 42.8 3.3 C 42.8 4 42.8 4.6 42.6 5.1 C 42.5 5.6 42.3 6 42.1 6.3 C 41.9 6.7 41.6 6.9 41.3 7.1 C 41 7.3 40.6 7.4 40.2 7.4 C 39.8 7.4 39.4 7.3 39.1 7.1 C 38.8 7 38.5 6.7 38.3 6.5 C 38.1 6.2 38 5.8 37.9 5.4 C 37.9 5.4 38.8 5.4 38.8 5.4 C 38.9 5.8 39 6 39.3 6.3 C 39.5 6.5 39.8 6.6 40.2 6.6 C 40.7 6.6 41.2 6.3 41.5 5.9 C 41.8 5.4 42 4.7 42 3.8 C 42 3.8 41.9 3.8 41.9 3.8 C 41.8 4 41.6 4.1 41.5 4.3 C 41.3 4.4 41.1 4.5 40.9 4.6 C 40.6 4.7 40.4 4.7 40.1 4.7 C 39.7 4.7 39.4 4.6 39 4.4 C 38.7 4.2 38.4 3.9 38.2 3.6 C 38 3.2 37.9 2.8 37.9 2.3 C 37.9 1.9 38 1.5 38.2 1.1 C 38.4 0.7 38.6 0.4 39 0.2 C 39.4 0 39.8 -0.1 40.3 -0.1 Z M 40.3 0.7 C 40 0.7 39.7 0.8 39.5 0.9 C 39.2 1.1 39.1 1.3 38.9 1.5 C 38.8 1.8 38.7 2 38.7 2.3 C 38.7 2.6 38.8 2.9 38.9 3.2 C 39 3.4 39.2 3.6 39.5 3.7 C 39.7 3.9 40 4 40.3 4 C 40.5 4 40.7 3.9 40.9 3.8 C 41.1 3.7 41.3 3.6 41.4 3.5 C 41.5 3.3 41.7 3.1 41.7 2.9 C 41.8 2.7 41.9 2.5 41.9 2.3 C 41.9 2 41.8 1.8 41.7 1.5 C 41.5 1.3 41.3 1.1 41.1 0.9 C 40.9 0.8 40.6 0.7 40.3 0.7 Z " stroke="none" fill="#ffffff"/>  </g></svg>