<?xml version="1.0" standalone="no"?><!DOCTYPE svg PUBLIC "-//W3C//DTD SVG 1.1//EN" "http://www.w3.org/Graphics/SVG/1.1/DTD/svg11.dtd"><svg xmlns="http://www.w3.org/2000/svg" version="1.1" width="238.1px" height="30.1px" viewBox="0 -7 238.1 30.1" style="top:-7px">  <desc>Explore Anaplan Intelligence</desc>  <defs/>  <g id="Polygon126344">    <path d="M 1.1 12.4 L 1.1 0 L 9.4 0 L 9.4 2.2 L 3.7 2.2 L 3.7 5.1 L 9 5.1 L 9 7.3 L 3.7 7.3 L 3.7 10.2 L 9.4 10.2 L 9.4 12.4 L 1.1 12.4 Z M 13.6 3.1 L 15.3 6.3 L 17.1 3.1 L 19.7 3.1 L 17 7.7 L 19.8 12.4 L 17.1 12.4 L 15.3 9.2 L 13.5 12.4 L 10.9 12.4 L 13.6 7.7 L 11 3.1 L 13.6 3.1 Z M 21.1 15.8 L 21.1 3.1 L 23.7 3.1 L 23.7 4.6 C 23.7 4.6 23.77 4.65 23.8 4.6 C 23.9 4.4 24 4.1 24.3 3.9 C 24.5 3.6 24.8 3.4 25.1 3.2 C 25.5 3.1 25.9 3 26.4 3 C 27.1 3 27.7 3.1 28.3 3.5 C 28.9 3.9 29.3 4.4 29.7 5.1 C 30 5.8 30.2 6.7 30.2 7.7 C 30.2 8.8 30 9.6 29.7 10.4 C 29.3 11.1 28.9 11.6 28.3 12 C 27.7 12.3 27.1 12.5 26.4 12.5 C 25.9 12.5 25.5 12.4 25.1 12.3 C 24.8 12.1 24.5 11.9 24.3 11.6 C 24.1 11.4 23.9 11.1 23.8 10.9 C 23.77 10.88 23.7 10.9 23.7 10.9 L 23.7 15.8 L 21.1 15.8 Z M 23.6 7.7 C 23.6 8.3 23.7 8.8 23.9 9.2 C 24 9.6 24.2 9.9 24.5 10.1 C 24.8 10.4 25.2 10.5 25.6 10.5 C 26 10.5 26.4 10.4 26.7 10.1 C 26.9 9.9 27.2 9.6 27.3 9.2 C 27.5 8.7 27.5 8.3 27.5 7.7 C 27.5 7.2 27.5 6.7 27.3 6.3 C 27.2 5.9 26.9 5.6 26.7 5.4 C 26.4 5.1 26 5 25.6 5 C 25.2 5 24.8 5.1 24.5 5.3 C 24.2 5.6 24 5.9 23.9 6.3 C 23.7 6.7 23.6 7.2 23.6 7.7 Z M 34.5 0 L 34.5 12.4 L 32 12.4 L 32 0 L 34.5 0 Z M 40.8 12.5 C 39.9 12.5 39.1 12.3 38.4 11.9 C 37.7 11.5 37.2 11 36.8 10.3 C 36.4 9.5 36.3 8.7 36.3 7.8 C 36.3 6.8 36.4 6 36.8 5.2 C 37.2 4.5 37.7 4 38.4 3.6 C 39.1 3.2 39.9 3 40.8 3 C 41.8 3 42.6 3.2 43.2 3.6 C 43.9 4 44.5 4.5 44.8 5.2 C 45.2 6 45.4 6.8 45.4 7.8 C 45.4 8.7 45.2 9.5 44.8 10.3 C 44.5 11 43.9 11.5 43.2 11.9 C 42.6 12.3 41.8 12.5 40.8 12.5 Z M 40.8 10.6 C 41.3 10.6 41.6 10.4 41.9 10.2 C 42.2 9.9 42.4 9.6 42.5 9.2 C 42.7 8.8 42.8 8.3 42.8 7.7 C 42.8 7.2 42.7 6.7 42.5 6.3 C 42.4 5.9 42.2 5.5 41.9 5.3 C 41.6 5.1 41.3 4.9 40.8 4.9 C 40.4 4.9 40 5.1 39.7 5.3 C 39.5 5.5 39.2 5.9 39.1 6.3 C 38.9 6.7 38.9 7.2 38.9 7.7 C 38.9 8.3 38.9 8.8 39.1 9.2 C 39.2 9.6 39.5 9.9 39.7 10.2 C 40 10.4 40.4 10.6 40.8 10.6 Z M 47.1 12.4 L 47.1 3.1 L 49.6 3.1 L 49.6 4.7 C 49.6 4.7 49.68 4.71 49.7 4.7 C 49.9 4.1 50.1 3.7 50.5 3.4 C 50.9 3.1 51.4 3 51.9 3 C 52 3 52.2 3 52.3 3 C 52.5 3 52.6 3 52.7 3 C 52.7 3 52.7 5.3 52.7 5.3 C 52.6 5.3 52.4 5.3 52.2 5.2 C 52 5.2 51.8 5.2 51.6 5.2 C 51.3 5.2 50.9 5.3 50.6 5.4 C 50.3 5.6 50.1 5.8 49.9 6.1 C 49.8 6.4 49.7 6.7 49.7 7.1 C 49.66 7.12 49.7 12.4 49.7 12.4 L 47.1 12.4 Z M 58.2 12.5 C 57.3 12.5 56.4 12.4 55.8 12 C 55.1 11.6 54.5 11 54.2 10.3 C 53.8 9.6 53.6 8.7 53.6 7.8 C 53.6 6.8 53.8 6 54.2 5.3 C 54.5 4.5 55.1 4 55.7 3.6 C 56.4 3.2 57.2 3 58.1 3 C 58.7 3 59.3 3.1 59.8 3.3 C 60.4 3.5 60.8 3.8 61.2 4.1 C 61.6 4.5 61.9 5 62.1 5.6 C 62.4 6.2 62.5 6.9 62.5 7.7 C 62.47 7.68 62.5 8.4 62.5 8.4 L 54.6 8.4 L 54.6 6.8 C 54.6 6.8 60.05 6.79 60 6.8 C 60 6.4 60 6.1 59.8 5.8 C 59.6 5.5 59.4 5.3 59.1 5.1 C 58.9 5 58.5 4.9 58.2 4.9 C 57.8 4.9 57.4 5 57.1 5.2 C 56.8 5.3 56.6 5.6 56.4 5.9 C 56.2 6.2 56.2 6.5 56.2 6.9 C 56.2 6.9 56.2 8.4 56.2 8.4 C 56.2 8.9 56.2 9.2 56.4 9.6 C 56.6 9.9 56.8 10.2 57.1 10.4 C 57.5 10.5 57.8 10.6 58.3 10.6 C 58.5 10.6 58.8 10.6 59 10.5 C 59.3 10.4 59.5 10.3 59.6 10.1 C 59.8 10 59.9 9.8 60 9.6 C 60 9.6 62.4 9.7 62.4 9.7 C 62.3 10.3 62 10.8 61.7 11.2 C 61.3 11.6 60.8 12 60.2 12.2 C 59.7 12.4 59 12.5 58.2 12.5 Z M 70.3 12.4 L 67.5 12.4 L 71.7 0 L 75.1 0 L 79.4 12.4 L 76.6 12.4 L 73.5 2.8 L 73.4 2.8 L 70.3 12.4 Z M 70.1 7.5 L 76.7 7.5 L 76.7 9.5 L 70.1 9.5 L 70.1 7.5 Z M 83.4 7 C 83.38 7 83.4 12.4 83.4 12.4 L 80.8 12.4 L 80.8 3.1 L 83.3 3.1 L 83.3 4.7 C 83.3 4.7 83.37 4.73 83.4 4.7 C 83.6 4.2 83.9 3.8 84.4 3.4 C 84.9 3.1 85.5 3 86.2 3 C 86.8 3 87.4 3.1 87.8 3.4 C 88.3 3.7 88.7 4.1 89 4.6 C 89.2 5.1 89.4 5.7 89.4 6.5 C 89.36 6.46 89.4 12.4 89.4 12.4 L 86.8 12.4 C 86.8 12.4 86.78 6.92 86.8 6.9 C 86.8 6.4 86.6 5.9 86.3 5.6 C 86.1 5.3 85.7 5.1 85.1 5.1 C 84.8 5.1 84.5 5.2 84.2 5.3 C 84 5.5 83.8 5.7 83.6 6 C 83.5 6.3 83.4 6.6 83.4 7 Z M 94 12.5 C 93.4 12.5 92.9 12.4 92.5 12.2 C 92 12 91.6 11.7 91.4 11.3 C 91.1 10.9 91 10.4 91 9.8 C 91 9.3 91.1 8.8 91.2 8.5 C 91.4 8.1 91.7 7.8 92 7.6 C 92.3 7.4 92.7 7.3 93.1 7.1 C 93.5 7 94 7 94.4 6.9 C 95 6.9 95.4 6.8 95.7 6.8 C 96.1 6.7 96.3 6.6 96.5 6.5 C 96.6 6.4 96.7 6.3 96.7 6.1 C 96.7 6.1 96.7 6 96.7 6 C 96.7 5.7 96.6 5.4 96.3 5.2 C 96.1 5 95.8 4.8 95.3 4.8 C 94.9 4.8 94.5 4.9 94.2 5.2 C 93.9 5.4 93.8 5.6 93.7 5.9 C 93.7 5.9 91.3 5.7 91.3 5.7 C 91.4 5.2 91.6 4.7 92 4.3 C 92.4 3.8 92.8 3.5 93.4 3.3 C 93.9 3.1 94.6 3 95.3 3 C 95.8 3 96.3 3 96.8 3.2 C 97.3 3.3 97.7 3.5 98.1 3.7 C 98.4 4 98.7 4.3 98.9 4.7 C 99.2 5.1 99.3 5.6 99.3 6.1 C 99.26 6.11 99.3 12.4 99.3 12.4 L 96.8 12.4 L 96.8 11.1 C 96.8 11.1 96.75 11.08 96.8 11.1 C 96.6 11.4 96.4 11.6 96.2 11.8 C 95.9 12.1 95.6 12.2 95.3 12.4 C 94.9 12.5 94.5 12.5 94 12.5 Z M 94.8 10.8 C 95.2 10.8 95.5 10.7 95.8 10.5 C 96.1 10.4 96.3 10.2 96.5 9.9 C 96.6 9.7 96.7 9.4 96.7 9 C 96.7 9 96.7 8.1 96.7 8.1 C 96.6 8.1 96.5 8.2 96.4 8.2 C 96.2 8.2 96.1 8.3 95.9 8.3 C 95.7 8.4 95.6 8.4 95.4 8.4 C 95.2 8.4 95.1 8.5 94.9 8.5 C 94.6 8.5 94.4 8.6 94.1 8.7 C 93.9 8.8 93.7 8.9 93.6 9.1 C 93.5 9.2 93.4 9.4 93.4 9.7 C 93.4 10 93.5 10.3 93.8 10.5 C 94.1 10.7 94.4 10.8 94.8 10.8 Z M 101.4 15.8 L 101.4 3.1 L 103.9 3.1 L 103.9 4.6 C 103.9 4.6 104.02 4.65 104 4.6 C 104.1 4.4 104.3 4.1 104.5 3.9 C 104.7 3.6 105 3.4 105.4 3.2 C 105.7 3.1 106.1 3 106.7 3 C 107.3 3 108 3.1 108.5 3.5 C 109.1 3.9 109.6 4.4 109.9 5.1 C 110.2 5.8 110.4 6.7 110.4 7.7 C 110.4 8.8 110.2 9.6 109.9 10.4 C 109.6 11.1 109.1 11.6 108.6 12 C 108 12.3 107.4 12.5 106.6 12.5 C 106.1 12.5 105.7 12.4 105.4 12.3 C 105 12.1 104.7 11.9 104.5 11.6 C 104.3 11.4 104.1 11.1 104 10.9 C 104.02 10.88 103.9 10.9 103.9 10.9 L 103.9 15.8 L 101.4 15.8 Z M 103.9 7.7 C 103.9 8.3 104 8.8 104.1 9.2 C 104.3 9.6 104.5 9.9 104.8 10.1 C 105.1 10.4 105.4 10.5 105.8 10.5 C 106.3 10.5 106.6 10.4 106.9 10.1 C 107.2 9.9 107.4 9.6 107.6 9.2 C 107.7 8.7 107.8 8.3 107.8 7.7 C 107.8 7.2 107.7 6.7 107.6 6.3 C 107.4 5.9 107.2 5.6 106.9 5.4 C 106.6 5.1 106.3 5 105.8 5 C 105.4 5 105.1 5.1 104.8 5.3 C 104.5 5.6 104.3 5.9 104.1 6.3 C 104 6.7 103.9 7.2 103.9 7.7 Z M 114.8 0 L 114.8 12.4 L 112.2 12.4 L 112.2 0 L 114.8 0 Z M 119.5 12.5 C 118.9 12.5 118.4 12.4 117.9 12.2 C 117.5 12 117.1 11.7 116.8 11.3 C 116.6 10.9 116.4 10.4 116.4 9.8 C 116.4 9.3 116.5 8.8 116.7 8.5 C 116.9 8.1 117.2 7.8 117.5 7.6 C 117.8 7.4 118.2 7.3 118.6 7.1 C 119 7 119.5 7 119.9 6.9 C 120.5 6.9 120.9 6.8 121.2 6.8 C 121.6 6.7 121.8 6.6 122 6.5 C 122.1 6.4 122.2 6.3 122.2 6.1 C 122.2 6.1 122.2 6 122.2 6 C 122.2 5.7 122.1 5.4 121.8 5.2 C 121.6 5 121.2 4.8 120.8 4.8 C 120.3 4.8 120 4.9 119.7 5.2 C 119.4 5.4 119.2 5.6 119.1 5.9 C 119.1 5.9 116.8 5.7 116.8 5.7 C 116.9 5.2 117.1 4.7 117.5 4.3 C 117.8 3.8 118.3 3.5 118.9 3.3 C 119.4 3.1 120.1 3 120.8 3 C 121.3 3 121.8 3 122.3 3.2 C 122.8 3.3 123.2 3.5 123.6 3.7 C 123.9 4 124.2 4.3 124.4 4.7 C 124.6 5.1 124.7 5.6 124.7 6.1 C 124.75 6.11 124.7 12.4 124.7 12.4 L 122.3 12.4 L 122.3 11.1 C 122.3 11.1 122.23 11.08 122.2 11.1 C 122.1 11.4 121.9 11.6 121.6 11.8 C 121.4 12.1 121.1 12.2 120.7 12.4 C 120.4 12.5 120 12.5 119.5 12.5 Z M 120.3 10.8 C 120.6 10.8 121 10.7 121.3 10.5 C 121.6 10.4 121.8 10.2 121.9 9.9 C 122.1 9.7 122.2 9.4 122.2 9 C 122.2 9 122.2 8.1 122.2 8.1 C 122.1 8.1 122 8.2 121.9 8.2 C 121.7 8.2 121.6 8.3 121.4 8.3 C 121.2 8.4 121 8.4 120.9 8.4 C 120.7 8.4 120.5 8.5 120.4 8.5 C 120.1 8.5 119.8 8.6 119.6 8.7 C 119.4 8.8 119.2 8.9 119.1 9.1 C 119 9.2 118.9 9.4 118.9 9.7 C 118.9 10 119 10.3 119.3 10.5 C 119.5 10.7 119.9 10.8 120.3 10.8 Z M 129.4 7 C 129.42 7 129.4 12.4 129.4 12.4 L 126.8 12.4 L 126.8 3.1 L 129.3 3.1 L 129.3 4.7 C 129.3 4.7 129.41 4.73 129.4 4.7 C 129.6 4.2 130 3.8 130.4 3.4 C 130.9 3.1 131.5 3 132.2 3 C 132.8 3 133.4 3.1 133.9 3.4 C 134.4 3.7 134.7 4.1 135 4.6 C 135.3 5.1 135.4 5.7 135.4 6.5 C 135.4 6.46 135.4 12.4 135.4 12.4 L 132.8 12.4 C 132.8 12.4 132.82 6.92 132.8 6.9 C 132.8 6.4 132.7 5.9 132.4 5.6 C 132.1 5.3 131.7 5.1 131.2 5.1 C 130.8 5.1 130.5 5.2 130.3 5.3 C 130 5.5 129.8 5.7 129.6 6 C 129.5 6.3 129.4 6.6 129.4 7 Z M 144 0 L 144 12.4 L 141.4 12.4 L 141.4 0 L 144 0 Z M 148.9 7 C 148.9 7 148.9 12.4 148.9 12.4 L 146.3 12.4 L 146.3 3.1 L 148.8 3.1 L 148.8 4.7 C 148.8 4.7 148.89 4.73 148.9 4.7 C 149.1 4.2 149.4 3.8 149.9 3.4 C 150.4 3.1 151 3 151.7 3 C 152.3 3 152.9 3.1 153.4 3.4 C 153.8 3.7 154.2 4.1 154.5 4.6 C 154.7 5.1 154.9 5.7 154.9 6.5 C 154.88 6.46 154.9 12.4 154.9 12.4 L 152.3 12.4 C 152.3 12.4 152.3 6.92 152.3 6.9 C 152.3 6.4 152.2 5.9 151.9 5.6 C 151.6 5.3 151.2 5.1 150.7 5.1 C 150.3 5.1 150 5.2 149.7 5.3 C 149.5 5.5 149.3 5.7 149.1 6 C 149 6.3 148.9 6.6 148.9 7 Z M 161.7 3.1 L 161.7 5 L 156.1 5 L 156.1 3.1 L 161.7 3.1 Z M 157.4 0.9 L 159.9 0.9 C 159.9 0.9 159.95 9.51 159.9 9.5 C 159.9 9.8 160 9.9 160.1 10.1 C 160.1 10.2 160.2 10.3 160.4 10.3 C 160.5 10.4 160.6 10.4 160.8 10.4 C 160.9 10.4 161.1 10.4 161.2 10.4 C 161.3 10.4 161.4 10.3 161.5 10.3 C 161.5 10.3 161.9 12.2 161.9 12.2 C 161.7 12.3 161.6 12.3 161.3 12.4 C 161.1 12.4 160.8 12.5 160.5 12.5 C 159.8 12.5 159.3 12.4 158.8 12.2 C 158.4 12.1 158 11.8 157.8 11.4 C 157.5 11 157.4 10.5 157.4 9.9 C 157.38 9.85 157.4 0.9 157.4 0.9 Z M 167.3 12.5 C 166.4 12.5 165.5 12.4 164.9 12 C 164.2 11.6 163.6 11 163.3 10.3 C 162.9 9.6 162.7 8.7 162.7 7.8 C 162.7 6.8 162.9 6 163.3 5.3 C 163.6 4.5 164.2 4 164.8 3.6 C 165.5 3.2 166.3 3 167.2 3 C 167.8 3 168.4 3.1 168.9 3.3 C 169.5 3.5 169.9 3.8 170.3 4.1 C 170.7 4.5 171 5 171.2 5.6 C 171.5 6.2 171.6 6.9 171.6 7.7 C 171.57 7.68 171.6 8.4 171.6 8.4 L 163.7 8.4 L 163.7 6.8 C 163.7 6.8 169.15 6.79 169.2 6.8 C 169.2 6.4 169.1 6.1 168.9 5.8 C 168.8 5.5 168.5 5.3 168.2 5.1 C 168 5 167.6 4.9 167.3 4.9 C 166.9 4.9 166.5 5 166.2 5.2 C 165.9 5.3 165.7 5.6 165.5 5.9 C 165.3 6.2 165.3 6.5 165.3 6.9 C 165.3 6.9 165.3 8.4 165.3 8.4 C 165.3 8.9 165.3 9.2 165.5 9.6 C 165.7 9.9 165.9 10.2 166.2 10.4 C 166.6 10.5 166.9 10.6 167.4 10.6 C 167.6 10.6 167.9 10.6 168.1 10.5 C 168.4 10.4 168.6 10.3 168.8 10.1 C 168.9 10 169.1 9.8 169.1 9.6 C 169.1 9.6 171.5 9.7 171.5 9.7 C 171.4 10.3 171.2 10.8 170.8 11.2 C 170.4 11.6 169.9 12 169.3 12.2 C 168.8 12.4 168.1 12.5 167.3 12.5 Z M 175.9 0 L 175.9 12.4 L 173.4 12.4 L 173.4 0 L 175.9 0 Z M 180.6 0 L 180.6 12.4 L 178.1 12.4 L 178.1 0 L 180.6 0 Z M 182.8 12.4 L 182.8 3.1 L 185.3 3.1 L 185.3 12.4 L 182.8 12.4 Z M 184.1 1.9 C 183.7 1.9 183.4 1.8 183.1 1.5 C 182.8 1.3 182.7 1 182.7 0.6 C 182.7 0.2 182.8 -0.1 183.1 -0.3 C 183.4 -0.6 183.7 -0.7 184.1 -0.7 C 184.4 -0.7 184.8 -0.6 185 -0.3 C 185.3 -0.1 185.5 0.2 185.5 0.6 C 185.5 0.9 185.3 1.3 185 1.5 C 184.8 1.8 184.4 1.9 184.1 1.9 Z M 191.6 16 C 190.7 16 190 15.9 189.4 15.7 C 188.8 15.5 188.4 15.2 188 14.8 C 187.7 14.4 187.4 13.9 187.3 13.5 C 187.3 13.5 189.7 13.1 189.7 13.1 C 189.8 13.3 189.9 13.5 190.1 13.6 C 190.2 13.8 190.4 13.9 190.7 14 C 190.9 14.1 191.3 14.2 191.6 14.2 C 192.2 14.2 192.7 14.1 193 13.8 C 193.4 13.5 193.6 13.1 193.6 12.4 C 193.57 12.42 193.6 10.7 193.6 10.7 C 193.6 10.7 193.46 10.72 193.5 10.7 C 193.3 11 193.2 11.2 193 11.5 C 192.7 11.7 192.4 11.9 192.1 12 C 191.7 12.2 191.3 12.2 190.8 12.2 C 190.1 12.2 189.5 12.1 188.9 11.7 C 188.3 11.4 187.9 10.9 187.6 10.3 C 187.2 9.6 187.1 8.7 187.1 7.7 C 187.1 6.7 187.2 5.8 187.6 5.1 C 187.9 4.4 188.4 3.8 188.9 3.5 C 189.5 3.1 190.1 3 190.8 3 C 191.3 3 191.8 3.1 192.1 3.2 C 192.5 3.4 192.7 3.6 193 3.9 C 193.2 4.1 193.3 4.4 193.5 4.6 C 193.46 4.65 193.6 4.6 193.6 4.6 L 193.6 3.1 L 196.1 3.1 C 196.1 3.1 196.11 12.45 196.1 12.5 C 196.1 13.2 195.9 13.9 195.5 14.4 C 195.1 15 194.6 15.4 193.9 15.6 C 193.2 15.9 192.5 16 191.6 16 Z M 191.6 10.3 C 192 10.3 192.4 10.2 192.7 10 C 193 9.8 193.2 9.5 193.4 9.1 C 193.5 8.7 193.6 8.2 193.6 7.7 C 193.6 7.2 193.5 6.7 193.4 6.3 C 193.2 5.9 193 5.6 192.7 5.3 C 192.4 5.1 192 5 191.6 5 C 191.2 5 190.9 5.1 190.6 5.4 C 190.3 5.6 190.1 5.9 189.9 6.3 C 189.8 6.7 189.7 7.2 189.7 7.7 C 189.7 8.2 189.8 8.7 189.9 9.1 C 190.1 9.5 190.3 9.8 190.6 10 C 190.9 10.2 191.2 10.3 191.6 10.3 Z M 202.4 12.5 C 201.5 12.5 200.7 12.4 200 12 C 199.3 11.6 198.8 11 198.4 10.3 C 198 9.6 197.8 8.7 197.8 7.8 C 197.8 6.8 198 6 198.4 5.3 C 198.8 4.5 199.3 4 200 3.6 C 200.6 3.2 201.4 3 202.3 3 C 203 3 203.5 3.1 204.1 3.3 C 204.6 3.5 205 3.8 205.4 4.1 C 205.8 4.5 206.1 5 206.4 5.6 C 206.6 6.2 206.7 6.9 206.7 7.7 C 206.7 7.68 206.7 8.4 206.7 8.4 L 198.9 8.4 L 198.9 6.8 C 198.9 6.8 204.28 6.79 204.3 6.8 C 204.3 6.4 204.2 6.1 204 5.8 C 203.9 5.5 203.7 5.3 203.4 5.1 C 203.1 5 202.8 4.9 202.4 4.9 C 202 4.9 201.6 5 201.3 5.2 C 201 5.3 200.8 5.6 200.6 5.9 C 200.5 6.2 200.4 6.5 200.4 6.9 C 200.4 6.9 200.4 8.4 200.4 8.4 C 200.4 8.9 200.5 9.2 200.6 9.6 C 200.8 9.9 201.1 10.2 201.4 10.4 C 201.7 10.5 202.1 10.6 202.5 10.6 C 202.8 10.6 203 10.6 203.3 10.5 C 203.5 10.4 203.7 10.3 203.9 10.1 C 204 10 204.2 9.8 204.3 9.6 C 204.3 9.6 206.6 9.7 206.6 9.7 C 206.5 10.3 206.3 10.8 205.9 11.2 C 205.5 11.6 205.1 12 204.5 12.2 C 203.9 12.4 203.2 12.5 202.4 12.5 Z M 211 7 C 211.03 7 211 12.4 211 12.4 L 208.5 12.4 L 208.5 3.1 L 210.9 3.1 L 210.9 4.7 C 210.9 4.7 211.02 4.73 211 4.7 C 211.2 4.2 211.6 3.8 212.1 3.4 C 212.5 3.1 213.1 3 213.8 3 C 214.5 3 215 3.1 215.5 3.4 C 216 3.7 216.3 4.1 216.6 4.6 C 216.9 5.1 217 5.7 217 6.5 C 217.01 6.46 217 12.4 217 12.4 L 214.4 12.4 C 214.4 12.4 214.44 6.92 214.4 6.9 C 214.4 6.4 214.3 5.9 214 5.6 C 213.7 5.3 213.3 5.1 212.8 5.1 C 212.4 5.1 212.1 5.2 211.9 5.3 C 211.6 5.5 211.4 5.7 211.3 6 C 211.1 6.3 211 6.6 211 7 Z M 223.2 12.5 C 222.3 12.5 221.5 12.3 220.8 11.9 C 220.1 11.5 219.6 11 219.2 10.3 C 218.9 9.5 218.7 8.7 218.7 7.8 C 218.7 6.8 218.9 6 219.2 5.3 C 219.6 4.5 220.1 4 220.8 3.6 C 221.5 3.2 222.3 3 223.2 3 C 224 3 224.7 3.1 225.4 3.4 C 226 3.7 226.4 4.1 226.8 4.6 C 227.1 5.2 227.3 5.8 227.4 6.5 C 227.4 6.5 225 6.5 225 6.5 C 224.9 6.1 224.7 5.7 224.4 5.4 C 224.1 5.1 223.7 5 223.3 5 C 222.9 5 222.5 5.1 222.2 5.3 C 221.9 5.5 221.7 5.8 221.5 6.2 C 221.4 6.6 221.3 7.1 221.3 7.7 C 221.3 8.3 221.4 8.8 221.5 9.2 C 221.7 9.7 221.9 10 222.2 10.2 C 222.5 10.4 222.9 10.5 223.3 10.5 C 223.6 10.5 223.8 10.4 224.1 10.3 C 224.3 10.2 224.5 10 224.6 9.8 C 224.8 9.6 224.9 9.3 225 9 C 225 9 227.4 9 227.4 9 C 227.3 9.7 227.1 10.3 226.8 10.8 C 226.5 11.4 226 11.8 225.4 12.1 C 224.8 12.4 224.1 12.5 223.2 12.5 Z M 233.2 12.5 C 232.3 12.5 231.4 12.4 230.8 12 C 230.1 11.6 229.5 11 229.2 10.3 C 228.8 9.6 228.6 8.7 228.6 7.8 C 228.6 6.8 228.8 6 229.2 5.3 C 229.5 4.5 230.1 4 230.7 3.6 C 231.4 3.2 232.2 3 233.1 3 C 233.7 3 234.3 3.1 234.8 3.3 C 235.3 3.5 235.8 3.8 236.2 4.1 C 236.6 4.5 236.9 5 237.1 5.6 C 237.4 6.2 237.5 6.9 237.5 7.7 C 237.47 7.68 237.5 8.4 237.5 8.4 L 229.6 8.4 L 229.6 6.8 C 229.6 6.8 235.05 6.79 235 6.8 C 235 6.4 235 6.1 234.8 5.8 C 234.6 5.5 234.4 5.3 234.1 5.1 C 233.9 5 233.5 4.9 233.1 4.9 C 232.8 4.9 232.4 5 232.1 5.2 C 231.8 5.3 231.6 5.6 231.4 5.9 C 231.2 6.2 231.2 6.5 231.2 6.9 C 231.2 6.9 231.2 8.4 231.2 8.4 C 231.2 8.9 231.2 9.2 231.4 9.6 C 231.6 9.9 231.8 10.2 232.1 10.4 C 232.4 10.5 232.8 10.6 233.3 10.6 C 233.5 10.6 233.8 10.6 234 10.5 C 234.3 10.4 234.5 10.3 234.6 10.1 C 234.8 10 234.9 9.8 235 9.6 C 235 9.6 237.4 9.7 237.4 9.7 C 237.3 10.3 237 10.8 236.7 11.2 C 236.3 11.6 235.8 12 235.2 12.2 C 234.7 12.4 234 12.5 233.2 12.5 Z " stroke="none" fill="#ffffff"/>  </g></svg>