<?xml version="1.0" standalone="no"?><!DOCTYPE svg PUBLIC "-//W3C//DTD SVG 1.1//EN" "http://www.w3.org/Graphics/SVG/1.1/DTD/svg11.dtd"><svg xmlns="http://www.w3.org/2000/svg" version="1.1" width="538.5px" height="73.4px" viewBox="0 -17 538.5 73.4" style="top:-17px">  <desc>Incomplete data access ￼</desc>  <defs/>  <g id="Polygon113019">    <path d="M 9.3 0 L 9.3 31.3 L 2.7 31.3 L 2.7 0 L 9.3 0 Z M 21.3 17.7 C 21.34 17.71 21.3 31.3 21.3 31.3 L 14.8 31.3 L 14.8 7.8 L 21 7.8 L 21 12 C 21 12 21.31 11.96 21.3 12 C 21.8 10.6 22.7 9.5 23.9 8.7 C 25.1 7.9 26.6 7.5 28.4 7.5 C 30 7.5 31.4 7.9 32.6 8.6 C 33.8 9.3 34.8 10.3 35.4 11.6 C 36.1 12.9 36.5 14.5 36.5 16.3 C 36.45 16.34 36.5 31.3 36.5 31.3 L 29.9 31.3 C 29.9 31.3 29.95 17.5 29.9 17.5 C 30 16.1 29.6 14.9 28.8 14.1 C 28.1 13.3 27.1 12.9 25.8 12.9 C 24.9 12.9 24.1 13.1 23.5 13.5 C 22.8 13.9 22.3 14.4 21.9 15.1 C 21.5 15.8 21.3 16.7 21.3 17.7 Z M 51.9 31.7 C 49.5 31.7 47.4 31.2 45.7 30.2 C 44 29.2 42.6 27.8 41.7 25.9 C 40.8 24.1 40.3 22 40.3 19.6 C 40.3 17.2 40.8 15.1 41.7 13.3 C 42.7 11.5 44 10.1 45.7 9 C 47.4 8 49.5 7.5 51.8 7.5 C 53.9 7.5 55.7 7.9 57.2 8.6 C 58.8 9.4 60 10.4 60.9 11.8 C 61.8 13.1 62.3 14.7 62.4 16.5 C 62.4 16.5 56.2 16.5 56.2 16.5 C 56 15.3 55.6 14.4 54.8 13.7 C 54.1 12.9 53.1 12.6 52 12.6 C 50.9 12.6 50.1 12.9 49.3 13.4 C 48.6 13.9 48 14.7 47.6 15.8 C 47.2 16.8 46.9 18.1 46.9 19.5 C 46.9 21 47.2 22.3 47.6 23.4 C 48 24.4 48.6 25.2 49.3 25.8 C 50.1 26.3 50.9 26.6 52 26.6 C 52.7 26.6 53.4 26.4 54 26.1 C 54.6 25.8 55.1 25.4 55.4 24.8 C 55.8 24.2 56.1 23.5 56.2 22.7 C 56.2 22.7 62.4 22.7 62.4 22.7 C 62.3 24.5 61.8 26 60.9 27.4 C 60 28.8 58.8 29.8 57.3 30.6 C 55.8 31.3 54 31.7 51.9 31.7 Z M 76.7 31.7 C 74.3 31.7 72.2 31.2 70.5 30.2 C 68.8 29.2 67.5 27.8 66.5 26 C 65.6 24.1 65.1 22 65.1 19.6 C 65.1 17.2 65.6 15.1 66.5 13.3 C 67.5 11.5 68.8 10 70.5 9 C 72.2 8 74.3 7.5 76.7 7.5 C 79 7.5 81.1 8 82.8 9 C 84.5 10 85.9 11.5 86.8 13.3 C 87.7 15.1 88.2 17.2 88.2 19.6 C 88.2 22 87.7 24.1 86.8 26 C 85.9 27.8 84.5 29.2 82.8 30.2 C 81.1 31.2 79 31.7 76.7 31.7 Z M 76.7 26.7 C 77.8 26.7 78.7 26.4 79.4 25.8 C 80.1 25.2 80.7 24.3 81 23.2 C 81.4 22.2 81.6 21 81.6 19.6 C 81.6 18.2 81.4 17 81 15.9 C 80.7 14.9 80.1 14 79.4 13.4 C 78.7 12.8 77.8 12.5 76.7 12.5 C 75.6 12.5 74.7 12.8 74 13.4 C 73.2 14 72.7 14.9 72.3 15.9 C 71.9 17 71.7 18.2 71.7 19.6 C 71.7 21 71.9 22.2 72.3 23.2 C 72.7 24.3 73.2 25.2 74 25.8 C 74.7 26.4 75.6 26.7 76.7 26.7 Z M 92.2 31.3 L 92.2 7.8 L 98.4 7.8 L 98.4 12 C 98.4 12 98.68 11.96 98.7 12 C 99.2 10.6 100 9.5 101.1 8.7 C 102.3 7.9 103.6 7.5 105.2 7.5 C 106.8 7.5 108.2 7.9 109.3 8.7 C 110.5 9.5 111.2 10.6 111.6 12 C 111.6 12 111.8 12 111.8 12 C 112.3 10.6 113.2 9.5 114.4 8.7 C 115.7 7.9 117.2 7.5 118.9 7.5 C 121.1 7.5 122.9 8.2 124.2 9.6 C 125.6 11 126.3 13 126.3 15.5 C 126.29 15.5 126.3 31.3 126.3 31.3 L 119.8 31.3 C 119.8 31.3 119.8 16.78 119.8 16.8 C 119.8 15.5 119.5 14.5 118.8 13.8 C 118.1 13.2 117.2 12.9 116.2 12.9 C 115 12.9 114.1 13.2 113.4 14 C 112.7 14.7 112.4 15.7 112.4 16.9 C 112.41 16.95 112.4 31.3 112.4 31.3 L 106.1 31.3 C 106.1 31.3 106.1 16.64 106.1 16.6 C 106.1 15.5 105.8 14.6 105.1 13.9 C 104.5 13.2 103.6 12.9 102.5 12.9 C 101.8 12.9 101.2 13.1 100.6 13.4 C 100 13.8 99.5 14.3 99.2 14.9 C 98.9 15.6 98.7 16.3 98.7 17.2 C 98.71 17.19 98.7 31.3 98.7 31.3 L 92.2 31.3 Z M 131.3 40.1 L 131.3 7.8 L 137.7 7.8 L 137.7 11.8 C 137.7 11.8 138 11.76 138 11.8 C 138.3 11.1 138.7 10.5 139.2 9.8 C 139.8 9.2 140.5 8.6 141.4 8.2 C 142.3 7.7 143.4 7.5 144.7 7.5 C 146.4 7.5 148 8 149.4 8.8 C 150.9 9.7 152 11.1 152.9 12.9 C 153.7 14.7 154.2 16.9 154.2 19.6 C 154.2 22.2 153.8 24.4 152.9 26.2 C 152.1 28 150.9 29.4 149.5 30.3 C 148.1 31.2 146.4 31.7 144.7 31.7 C 143.4 31.7 142.3 31.4 141.4 31 C 140.6 30.6 139.8 30.1 139.3 29.4 C 138.7 28.8 138.3 28.2 138 27.5 C 138 27.52 137.8 27.5 137.8 27.5 L 137.8 40.1 L 131.3 40.1 Z M 137.7 19.5 C 137.7 20.9 137.9 22.2 138.2 23.2 C 138.6 24.2 139.2 25 139.9 25.6 C 140.7 26.2 141.5 26.5 142.6 26.5 C 143.7 26.5 144.6 26.2 145.3 25.6 C 146 25 146.6 24.2 147 23.2 C 147.3 22.1 147.5 20.9 147.5 19.5 C 147.5 18.2 147.3 17 147 16 C 146.6 14.9 146 14.1 145.3 13.6 C 144.6 13 143.7 12.7 142.6 12.7 C 141.5 12.7 140.6 13 139.9 13.5 C 139.2 14.1 138.6 14.9 138.2 15.9 C 137.9 16.9 137.7 18.2 137.7 19.5 Z M 164.9 0 L 164.9 31.3 L 158.4 31.3 L 158.4 0 L 164.9 0 Z M 180.6 31.7 C 178.1 31.7 176.1 31.2 174.3 30.3 C 172.6 29.3 171.3 27.9 170.3 26.1 C 169.4 24.3 168.9 22.1 168.9 19.7 C 168.9 17.2 169.4 15.1 170.3 13.3 C 171.3 11.5 172.6 10.1 174.3 9 C 176 8 178 7.5 180.3 7.5 C 181.8 7.5 183.3 7.8 184.6 8.3 C 186 8.7 187.1 9.5 188.1 10.5 C 189.1 11.5 189.9 12.7 190.5 14.2 C 191 15.7 191.3 17.4 191.3 19.4 C 191.32 19.42 191.3 21.2 191.3 21.2 L 171.5 21.2 L 171.5 17.2 C 171.5 17.2 185.2 17.18 185.2 17.2 C 185.2 16.2 185 15.4 184.6 14.7 C 184.2 14 183.6 13.4 182.9 13 C 182.2 12.6 181.4 12.4 180.4 12.4 C 179.4 12.4 178.5 12.6 177.8 13 C 177 13.5 176.4 14.1 176 14.9 C 175.6 15.6 175.4 16.5 175.4 17.4 C 175.4 17.4 175.4 21.2 175.4 21.2 C 175.4 22.4 175.6 23.4 176 24.2 C 176.4 25.1 177 25.7 177.8 26.2 C 178.6 26.6 179.6 26.9 180.7 26.9 C 181.4 26.9 182.1 26.8 182.7 26.6 C 183.3 26.4 183.8 26.1 184.2 25.7 C 184.6 25.2 184.9 24.7 185.2 24.2 C 185.2 24.2 191.2 24.6 191.2 24.6 C 190.9 26 190.3 27.3 189.3 28.3 C 188.4 29.4 187.2 30.2 185.7 30.8 C 184.2 31.4 182.5 31.7 180.6 31.7 Z M 207.3 7.8 L 207.3 12.7 L 193.2 12.7 L 193.2 7.8 L 207.3 7.8 Z M 196.4 2.2 L 202.9 2.2 C 202.9 2.2 202.93 24.07 202.9 24.1 C 202.9 24.7 203 25.1 203.2 25.5 C 203.4 25.8 203.7 26 204 26.2 C 204.3 26.3 204.7 26.4 205.1 26.4 C 205.4 26.4 205.7 26.3 206.1 26.3 C 206.4 26.2 206.6 26.2 206.8 26.1 C 206.8 26.1 207.8 31 207.8 31 C 207.4 31.1 207 31.2 206.4 31.3 C 205.8 31.5 205.1 31.6 204.2 31.6 C 202.7 31.7 201.3 31.4 200.1 31 C 199 30.5 198 29.7 197.4 28.7 C 196.7 27.7 196.4 26.5 196.4 24.9 C 196.43 24.92 196.4 2.2 196.4 2.2 Z M 221.2 31.7 C 218.8 31.7 216.7 31.2 215 30.3 C 213.3 29.3 211.9 27.9 211 26.1 C 210 24.3 209.6 22.1 209.6 19.7 C 209.6 17.2 210 15.1 211 13.3 C 211.9 11.5 213.2 10.1 214.9 9 C 216.7 8 218.7 7.5 221 7.5 C 222.5 7.5 223.9 7.8 225.3 8.3 C 226.6 8.7 227.8 9.5 228.8 10.5 C 229.8 11.5 230.6 12.7 231.1 14.2 C 231.7 15.7 232 17.4 232 19.4 C 231.98 19.42 232 21.2 232 21.2 L 212.2 21.2 L 212.2 17.2 C 212.2 17.2 225.86 17.18 225.9 17.2 C 225.9 16.2 225.7 15.4 225.2 14.7 C 224.8 14 224.3 13.4 223.6 13 C 222.8 12.6 222 12.4 221.1 12.4 C 220.1 12.4 219.2 12.6 218.4 13 C 217.7 13.5 217.1 14.1 216.7 14.9 C 216.2 15.6 216 16.5 216 17.4 C 216 17.4 216 21.2 216 21.2 C 216 22.4 216.2 23.4 216.7 24.2 C 217.1 25.1 217.7 25.7 218.5 26.2 C 219.3 26.6 220.2 26.9 221.3 26.9 C 222 26.9 222.7 26.8 223.3 26.6 C 223.9 26.4 224.4 26.1 224.9 25.7 C 225.3 25.2 225.6 24.7 225.8 24.2 C 225.8 24.2 231.8 24.6 231.8 24.6 C 231.5 26 230.9 27.3 230 28.3 C 229 29.4 227.8 30.2 226.3 30.8 C 224.9 31.4 223.2 31.7 221.2 31.7 Z M 254.8 31.7 C 253.1 31.7 251.4 31.2 250 30.3 C 248.6 29.4 247.4 28 246.6 26.2 C 245.7 24.4 245.3 22.2 245.3 19.6 C 245.3 16.9 245.8 14.7 246.6 12.9 C 247.5 11.1 248.6 9.7 250.1 8.8 C 251.5 8 253.1 7.5 254.8 7.5 C 256.1 7.5 257.2 7.7 258.1 8.2 C 259 8.6 259.7 9.2 260.3 9.8 C 260.8 10.5 261.2 11.1 261.5 11.8 C 261.5 11.76 261.7 11.8 261.7 11.8 L 261.7 0 L 268.2 0 L 268.2 31.3 L 261.8 31.3 L 261.8 27.5 C 261.8 27.5 261.5 27.52 261.5 27.5 C 261.2 28.2 260.8 28.8 260.2 29.4 C 259.7 30.1 258.9 30.6 258.1 31 C 257.2 31.4 256.1 31.7 254.8 31.7 Z M 256.9 26.5 C 258 26.5 258.8 26.2 259.6 25.6 C 260.3 25 260.9 24.2 261.2 23.2 C 261.6 22.2 261.8 20.9 261.8 19.5 C 261.8 18.2 261.6 16.9 261.3 15.9 C 260.9 14.9 260.3 14.1 259.6 13.5 C 258.8 13 258 12.7 256.9 12.7 C 255.8 12.7 254.9 13 254.2 13.6 C 253.5 14.1 252.9 14.9 252.5 16 C 252.2 17 252 18.2 252 19.5 C 252 20.9 252.2 22.1 252.5 23.2 C 252.9 24.2 253.5 25 254.2 25.6 C 254.9 26.2 255.8 26.5 256.9 26.5 Z M 280 31.7 C 278.5 31.7 277.1 31.5 276 30.9 C 274.8 30.4 273.9 29.6 273.2 28.6 C 272.5 27.6 272.2 26.3 272.2 24.7 C 272.2 23.4 272.4 22.3 272.9 21.4 C 273.4 20.6 274 19.8 274.8 19.3 C 275.7 18.8 276.6 18.4 277.7 18.1 C 278.7 17.8 279.8 17.6 281 17.5 C 282.3 17.4 283.4 17.2 284.3 17.1 C 285.1 17 285.7 16.8 286.1 16.5 C 286.5 16.3 286.7 15.9 286.7 15.4 C 286.7 15.4 286.7 15.3 286.7 15.3 C 286.7 14.3 286.4 13.6 285.8 13.1 C 285.1 12.5 284.3 12.3 283.2 12.3 C 282 12.3 281.1 12.5 280.4 13 C 279.7 13.5 279.2 14.2 279 15 C 279 15 273 14.5 273 14.5 C 273.3 13.1 273.9 11.8 274.8 10.8 C 275.7 9.7 276.9 8.9 278.3 8.4 C 279.7 7.8 281.3 7.5 283.2 7.5 C 284.5 7.5 285.8 7.7 287 8 C 288.2 8.3 289.2 8.7 290.2 9.4 C 291.1 10 291.8 10.9 292.4 11.9 C 292.9 12.9 293.2 14.1 293.2 15.5 C 293.17 15.45 293.2 31.3 293.2 31.3 L 287 31.3 L 287 28 C 287 28 286.82 28.02 286.8 28 C 286.4 28.8 285.9 29.4 285.3 30 C 284.7 30.5 283.9 30.9 283 31.2 C 282.1 31.6 281.1 31.7 280 31.7 Z M 281.8 27.2 C 282.8 27.2 283.6 27 284.4 26.7 C 285.1 26.3 285.7 25.8 286.1 25.1 C 286.5 24.5 286.7 23.7 286.7 22.9 C 286.7 22.9 286.7 20.4 286.7 20.4 C 286.5 20.5 286.2 20.7 285.9 20.8 C 285.5 20.9 285.1 21 284.7 21 C 284.3 21.1 283.8 21.2 283.4 21.3 C 282.9 21.3 282.5 21.4 282.2 21.5 C 281.4 21.6 280.8 21.7 280.2 22 C 279.6 22.2 279.2 22.6 278.9 23 C 278.5 23.4 278.4 23.9 278.4 24.5 C 278.4 25.4 278.7 26.1 279.4 26.5 C 280 27 280.8 27.2 281.8 27.2 Z M 310.1 7.8 L 310.1 12.7 L 295.9 12.7 L 295.9 7.8 L 310.1 7.8 Z M 299.2 2.2 L 305.7 2.2 C 305.7 2.2 305.66 24.07 305.7 24.1 C 305.7 24.7 305.8 25.1 305.9 25.5 C 306.1 25.8 306.4 26 306.7 26.2 C 307 26.3 307.4 26.4 307.9 26.4 C 308.2 26.4 308.5 26.3 308.8 26.3 C 309.1 26.2 309.3 26.2 309.5 26.1 C 309.5 26.1 310.5 31 310.5 31 C 310.2 31.1 309.7 31.2 309.1 31.3 C 308.5 31.5 307.8 31.6 307 31.6 C 305.4 31.7 304 31.4 302.9 31 C 301.7 30.5 300.8 29.7 300.1 28.7 C 299.5 27.7 299.1 26.5 299.2 24.9 C 299.16 24.92 299.2 2.2 299.2 2.2 Z M 320.4 31.7 C 318.9 31.7 317.6 31.5 316.4 30.9 C 315.2 30.4 314.3 29.6 313.6 28.6 C 312.9 27.6 312.6 26.3 312.6 24.7 C 312.6 23.4 312.8 22.3 313.3 21.4 C 313.8 20.6 314.4 19.8 315.3 19.3 C 316.1 18.8 317 18.4 318.1 18.1 C 319.1 17.8 320.2 17.6 321.4 17.5 C 322.8 17.4 323.9 17.2 324.7 17.1 C 325.5 17 326.1 16.8 326.5 16.5 C 326.9 16.3 327.1 15.9 327.1 15.4 C 327.1 15.4 327.1 15.3 327.1 15.3 C 327.1 14.3 326.8 13.6 326.2 13.1 C 325.6 12.5 324.7 12.3 323.6 12.3 C 322.4 12.3 321.5 12.5 320.8 13 C 320.1 13.5 319.7 14.2 319.4 15 C 319.4 15 313.4 14.5 313.4 14.5 C 313.7 13.1 314.3 11.8 315.2 10.8 C 316.1 9.7 317.3 8.9 318.7 8.4 C 320.1 7.8 321.8 7.5 323.6 7.5 C 324.9 7.5 326.2 7.7 327.4 8 C 328.6 8.3 329.6 8.7 330.6 9.4 C 331.5 10 332.2 10.9 332.8 11.9 C 333.3 12.9 333.6 14.1 333.6 15.5 C 333.59 15.45 333.6 31.3 333.6 31.3 L 327.4 31.3 L 327.4 28 C 327.4 28 327.24 28.02 327.2 28 C 326.9 28.8 326.4 29.4 325.7 30 C 325.1 30.5 324.3 30.9 323.5 31.2 C 322.6 31.6 321.5 31.7 320.4 31.7 Z M 322.2 27.2 C 323.2 27.2 324 27 324.8 26.7 C 325.5 26.3 326.1 25.8 326.5 25.1 C 326.9 24.5 327.1 23.7 327.1 22.9 C 327.1 22.9 327.1 20.4 327.1 20.4 C 326.9 20.5 326.7 20.7 326.3 20.8 C 326 20.9 325.6 21 325.1 21 C 324.7 21.1 324.2 21.2 323.8 21.3 C 323.4 21.3 323 21.4 322.6 21.5 C 321.9 21.6 321.2 21.7 320.6 22 C 320 22.2 319.6 22.6 319.3 23 C 319 23.4 318.8 23.9 318.8 24.5 C 318.8 25.4 319.1 26.1 319.8 26.5 C 320.4 27 321.2 27.2 322.2 27.2 Z M 355.3 31.7 C 353.8 31.7 352.5 31.5 351.3 30.9 C 350.1 30.4 349.2 29.6 348.5 28.6 C 347.9 27.6 347.5 26.3 347.5 24.7 C 347.5 23.4 347.8 22.3 348.2 21.4 C 348.7 20.6 349.4 19.8 350.2 19.3 C 351 18.8 352 18.4 353 18.1 C 354.1 17.8 355.2 17.6 356.3 17.5 C 357.7 17.4 358.8 17.2 359.6 17.1 C 360.5 17 361.1 16.8 361.4 16.5 C 361.8 16.3 362 15.9 362 15.4 C 362 15.4 362 15.3 362 15.3 C 362 14.3 361.7 13.6 361.1 13.1 C 360.5 12.5 359.6 12.3 358.5 12.3 C 357.4 12.3 356.4 12.5 355.7 13 C 355 13.5 354.6 14.2 354.4 15 C 354.4 15 348.3 14.5 348.3 14.5 C 348.6 13.1 349.2 11.8 350.1 10.8 C 351 9.7 352.2 8.9 353.6 8.4 C 355 7.8 356.7 7.5 358.6 7.5 C 359.9 7.5 361.1 7.7 362.3 8 C 363.5 8.3 364.6 8.7 365.5 9.4 C 366.4 10 367.2 10.9 367.7 11.9 C 368.2 12.9 368.5 14.1 368.5 15.5 C 368.52 15.45 368.5 31.3 368.5 31.3 L 362.3 31.3 L 362.3 28 C 362.3 28 362.16 28.02 362.2 28 C 361.8 28.8 361.3 29.4 360.7 30 C 360 30.5 359.3 30.9 358.4 31.2 C 357.5 31.6 356.5 31.7 355.3 31.7 Z M 357.2 27.2 C 358.1 27.2 359 27 359.7 26.7 C 360.4 26.3 361 25.8 361.4 25.1 C 361.8 24.5 362.1 23.7 362.1 22.9 C 362.1 22.9 362.1 20.4 362.1 20.4 C 361.9 20.5 361.6 20.7 361.2 20.8 C 360.9 20.9 360.5 21 360 21 C 359.6 21.1 359.2 21.2 358.7 21.3 C 358.3 21.3 357.9 21.4 357.5 21.5 C 356.8 21.6 356.1 21.7 355.5 22 C 355 22.2 354.5 22.6 354.2 23 C 353.9 23.4 353.7 23.9 353.7 24.5 C 353.7 25.4 354.1 26.1 354.7 26.5 C 355.3 27 356.2 27.2 357.2 27.2 Z M 383.9 31.7 C 381.5 31.7 379.4 31.2 377.7 30.2 C 376 29.2 374.7 27.8 373.8 25.9 C 372.8 24.1 372.4 22 372.4 19.6 C 372.4 17.2 372.8 15.1 373.8 13.3 C 374.7 11.5 376 10.1 377.7 9 C 379.5 8 381.5 7.5 383.9 7.5 C 385.9 7.5 387.7 7.9 389.3 8.6 C 390.8 9.4 392 10.4 392.9 11.8 C 393.8 13.1 394.3 14.7 394.4 16.5 C 394.4 16.5 388.2 16.5 388.2 16.5 C 388.1 15.3 387.6 14.4 386.9 13.7 C 386.1 12.9 385.2 12.6 384 12.6 C 383 12.6 382.1 12.9 381.4 13.4 C 380.6 13.9 380 14.7 379.6 15.8 C 379.2 16.8 379 18.1 379 19.5 C 379 21 379.2 22.3 379.6 23.4 C 380 24.4 380.6 25.2 381.3 25.8 C 382.1 26.3 383 26.6 384 26.6 C 384.7 26.6 385.4 26.4 386 26.1 C 386.6 25.8 387.1 25.4 387.5 24.8 C 387.9 24.2 388.1 23.5 388.2 22.7 C 388.2 22.7 394.4 22.7 394.4 22.7 C 394.3 24.5 393.8 26 392.9 27.4 C 392.1 28.8 390.9 29.8 389.3 30.6 C 387.8 31.3 386 31.7 383.9 31.7 Z M 408.7 31.7 C 406.3 31.7 404.2 31.2 402.5 30.2 C 400.8 29.2 399.5 27.8 398.5 25.9 C 397.6 24.1 397.2 22 397.2 19.6 C 397.2 17.2 397.6 15.1 398.6 13.3 C 399.5 11.5 400.8 10.1 402.5 9 C 404.3 8 406.3 7.5 408.7 7.5 C 410.7 7.5 412.5 7.9 414 8.6 C 415.6 9.4 416.8 10.4 417.7 11.8 C 418.6 13.1 419.1 14.7 419.2 16.5 C 419.2 16.5 413 16.5 413 16.5 C 412.9 15.3 412.4 14.4 411.7 13.7 C 410.9 12.9 410 12.6 408.8 12.6 C 407.8 12.6 406.9 12.9 406.1 13.4 C 405.4 13.9 404.8 14.7 404.4 15.8 C 404 16.8 403.8 18.1 403.8 19.5 C 403.8 21 404 22.3 404.4 23.4 C 404.8 24.4 405.4 25.2 406.1 25.8 C 406.9 26.3 407.8 26.6 408.8 26.6 C 409.5 26.6 410.2 26.4 410.8 26.1 C 411.4 25.8 411.9 25.4 412.3 24.8 C 412.7 24.2 412.9 23.5 413 22.7 C 413 22.7 419.2 22.7 419.2 22.7 C 419.1 24.5 418.6 26 417.7 27.4 C 416.9 28.8 415.7 29.8 414.1 30.6 C 412.6 31.3 410.8 31.7 408.7 31.7 Z M 433.6 31.7 C 431.2 31.7 429.1 31.2 427.4 30.3 C 425.6 29.3 424.3 27.9 423.4 26.1 C 422.4 24.3 422 22.1 422 19.7 C 422 17.2 422.4 15.1 423.4 13.3 C 424.3 11.5 425.6 10.1 427.3 9 C 429 8 431 7.5 433.3 7.5 C 434.9 7.5 436.3 7.8 437.7 8.3 C 439 8.7 440.2 9.5 441.2 10.5 C 442.2 11.5 443 12.7 443.5 14.2 C 444.1 15.7 444.4 17.4 444.4 19.4 C 444.35 19.42 444.4 21.2 444.4 21.2 L 424.5 21.2 L 424.5 17.2 C 424.5 17.2 438.23 17.18 438.2 17.2 C 438.2 16.2 438 15.4 437.6 14.7 C 437.2 14 436.6 13.4 435.9 13 C 435.2 12.6 434.4 12.4 433.4 12.4 C 432.4 12.4 431.6 12.6 430.8 13 C 430.1 13.5 429.5 14.1 429 14.9 C 428.6 15.6 428.4 16.5 428.4 17.4 C 428.4 17.4 428.4 21.2 428.4 21.2 C 428.4 22.4 428.6 23.4 429 24.2 C 429.5 25.1 430.1 25.7 430.9 26.2 C 431.7 26.6 432.6 26.9 433.7 26.9 C 434.4 26.9 435.1 26.8 435.7 26.6 C 436.3 26.4 436.8 26.1 437.2 25.7 C 437.6 25.2 438 24.7 438.2 24.2 C 438.2 24.2 444.2 24.6 444.2 24.6 C 443.9 26 443.3 27.3 442.3 28.3 C 441.4 29.4 440.2 30.2 438.7 30.8 C 437.2 31.4 435.5 31.7 433.6 31.7 Z M 467.7 14.5 C 467.7 14.5 461.7 14.9 461.7 14.9 C 461.6 14.4 461.4 13.9 461.1 13.5 C 460.7 13.1 460.3 12.7 459.8 12.5 C 459.2 12.2 458.6 12.1 457.8 12.1 C 456.8 12.1 455.9 12.3 455.3 12.8 C 454.6 13.2 454.2 13.7 454.2 14.4 C 454.2 15 454.4 15.5 454.9 15.9 C 455.3 16.3 456.1 16.6 457.2 16.8 C 457.2 16.8 461.4 17.7 461.4 17.7 C 463.7 18.1 465.4 18.9 466.5 19.9 C 467.7 21 468.2 22.3 468.2 24 C 468.2 25.5 467.8 26.9 466.9 28.1 C 466 29.2 464.7 30.1 463.2 30.8 C 461.6 31.4 459.8 31.7 457.8 31.7 C 454.7 31.7 452.2 31.1 450.4 29.8 C 448.5 28.5 447.4 26.7 447.1 24.5 C 447.1 24.5 453.5 24.1 453.5 24.1 C 453.7 25.1 454.2 25.8 454.9 26.3 C 455.7 26.8 456.6 27 457.8 27 C 458.9 27 459.8 26.8 460.5 26.4 C 461.2 25.9 461.6 25.4 461.6 24.7 C 461.6 24.1 461.3 23.6 460.9 23.2 C 460.4 22.8 459.6 22.5 458.6 22.3 C 458.6 22.3 454.5 21.5 454.5 21.5 C 452.2 21.1 450.5 20.3 449.4 19.1 C 448.3 18 447.8 16.6 447.8 14.8 C 447.8 13.3 448.2 12 449 10.9 C 449.8 9.8 451 9 452.5 8.4 C 453.9 7.8 455.7 7.5 457.7 7.5 C 460.7 7.5 463 8.1 464.7 9.4 C 466.4 10.6 467.4 12.3 467.7 14.5 Z M 491.5 14.5 C 491.5 14.5 485.6 14.9 485.6 14.9 C 485.5 14.4 485.3 13.9 484.9 13.5 C 484.6 13.1 484.2 12.7 483.6 12.5 C 483.1 12.2 482.4 12.1 481.7 12.1 C 480.7 12.1 479.8 12.3 479.1 12.8 C 478.4 13.2 478.1 13.7 478.1 14.4 C 478.1 15 478.3 15.5 478.7 15.9 C 479.2 16.3 480 16.6 481.1 16.8 C 481.1 16.8 485.3 17.7 485.3 17.7 C 487.6 18.1 489.3 18.9 490.4 19.9 C 491.5 21 492.1 22.3 492.1 24 C 492.1 25.5 491.6 26.9 490.7 28.1 C 489.8 29.2 488.6 30.1 487 30.8 C 485.5 31.4 483.7 31.7 481.6 31.7 C 478.5 31.7 476.1 31.1 474.2 29.8 C 472.4 28.5 471.3 26.7 471 24.5 C 471 24.5 477.4 24.1 477.4 24.1 C 477.6 25.1 478 25.8 478.8 26.3 C 479.5 26.8 480.5 27 481.6 27 C 482.8 27 483.7 26.8 484.4 26.4 C 485.1 25.9 485.5 25.4 485.5 24.7 C 485.5 24.1 485.2 23.6 484.7 23.2 C 484.2 22.8 483.5 22.5 482.5 22.3 C 482.5 22.3 478.4 21.5 478.4 21.5 C 476.1 21.1 474.4 20.3 473.3 19.1 C 472.2 18 471.6 16.6 471.6 14.8 C 471.6 13.3 472 12 472.8 10.9 C 473.7 9.8 474.8 9 476.3 8.4 C 477.8 7.8 479.6 7.5 481.6 7.5 C 484.5 7.5 486.9 8.1 488.6 9.4 C 490.3 10.6 491.3 12.3 491.5 14.5 Z " stroke="none" fill="#10283d"/>  </g>  <g id="Polygon113020">    <path d="M 505.1 29.8 L 515.8 18.8 L 505.1 7.8 " style="stroke-width:3pt; stroke:#ff4f00;" fill="none"/>  </g></svg>