<?xml version="1.0" standalone="no"?><!DOCTYPE svg PUBLIC "-//W3C//DTD SVG 1.1//EN" "http://www.w3.org/Graphics/SVG/1.1/DTD/svg11.dtd"><svg xmlns="http://www.w3.org/2000/svg" version="1.1" width="1172px" height="193.2px" viewBox="0 -25 1172 193.2" style="top:-25px">  <desc>Anaplan’s AI delivers precision and reliability for better decision making</desc>  <defs/>  <g id="Polygon124024">    <path d="M 4 129.1 L 4 92.6 L 13.9 92.6 L 13.9 99 C 13.9 99 14.25 98.96 14.3 99 C 14.9 96.7 16 95 17.6 93.8 C 19.2 92.6 21 92.1 23 92.1 C 23.5 92.1 24.1 92.1 24.7 92.2 C 25.3 92.2 25.8 92.3 26.2 92.4 C 26.2 92.4 26.2 101.4 26.2 101.4 C 25.7 101.3 25.1 101.1 24.2 101 C 23.4 100.9 22.6 100.9 21.9 100.9 C 20.4 100.9 19.1 101.2 18 101.8 C 16.8 102.5 15.9 103.4 15.2 104.5 C 14.5 105.6 14.2 107 14.2 108.5 C 14.18 108.45 14.2 129.1 14.2 129.1 L 4 129.1 Z M 46.9 129.8 C 43.1 129.8 39.9 129.1 37.2 127.5 C 34.5 126 32.4 123.8 30.9 121 C 29.5 118.2 28.7 114.9 28.7 111 C 28.7 107.3 29.5 104 30.9 101.1 C 32.4 98.3 34.4 96.1 37.1 94.5 C 39.8 92.9 42.9 92.1 46.5 92.1 C 48.9 92.1 51.1 92.5 53.2 93.3 C 55.3 94 57.1 95.2 58.7 96.7 C 60.2 98.3 61.5 100.2 62.3 102.5 C 63.2 104.8 63.6 107.6 63.6 110.7 C 63.64 110.66 63.6 113.4 63.6 113.4 L 32.8 113.4 L 32.8 107.2 C 32.8 107.2 54.1 107.17 54.1 107.2 C 54.1 105.7 53.8 104.4 53.1 103.3 C 52.5 102.2 51.6 101.3 50.5 100.6 C 49.4 100 48.1 99.7 46.6 99.7 C 45.1 99.7 43.7 100 42.5 100.7 C 41.4 101.4 40.4 102.4 39.8 103.6 C 39.1 104.7 38.8 106.1 38.8 107.5 C 38.8 107.5 38.8 113.5 38.8 113.5 C 38.8 115.3 39.1 116.8 39.8 118.2 C 40.4 119.5 41.4 120.5 42.6 121.2 C 43.9 121.9 45.3 122.3 47 122.3 C 48.2 122.3 49.2 122.1 50.1 121.8 C 51.1 121.5 51.9 121 52.5 120.4 C 53.2 119.7 53.7 119 54 118 C 54 118 63.4 118.7 63.4 118.7 C 62.9 120.9 62 122.9 60.5 124.5 C 59 126.2 57.2 127.5 54.8 128.4 C 52.5 129.4 49.9 129.8 46.9 129.8 Z M 79.8 80.4 L 79.8 129.1 L 69.7 129.1 L 69.7 80.4 L 79.8 80.4 Z M 87.3 129.1 L 87.3 92.6 L 97.4 92.6 L 97.4 129.1 L 87.3 129.1 Z M 92.4 87.9 C 90.9 87.9 89.6 87.4 88.5 86.4 C 87.5 85.4 86.9 84.2 86.9 82.8 C 86.9 81.3 87.5 80.1 88.5 79.1 C 89.6 78.1 90.9 77.6 92.4 77.6 C 93.9 77.6 95.2 78.1 96.3 79.1 C 97.3 80.1 97.9 81.3 97.9 82.7 C 97.9 84.1 97.3 85.4 96.3 86.4 C 95.2 87.4 93.9 87.9 92.4 87.9 Z M 115.1 129.8 C 112.7 129.8 110.7 129.4 108.8 128.6 C 107 127.8 105.6 126.6 104.5 125 C 103.5 123.3 102.9 121.3 102.9 118.9 C 102.9 116.9 103.3 115.2 104 113.8 C 104.8 112.4 105.8 111.3 107.1 110.5 C 108.4 109.6 109.8 109 111.5 108.6 C 113.1 108.1 114.9 107.8 116.7 107.7 C 118.8 107.4 120.5 107.2 121.8 107 C 123.1 106.8 124 106.5 124.6 106.1 C 125.2 105.7 125.5 105.2 125.5 104.4 C 125.5 104.4 125.5 104.2 125.5 104.2 C 125.5 102.7 125 101.6 124.1 100.7 C 123.2 99.9 121.8 99.5 120.1 99.5 C 118.3 99.5 116.8 99.9 115.7 100.7 C 114.7 101.5 113.9 102.5 113.6 103.7 C 113.6 103.7 104.2 103 104.2 103 C 104.7 100.7 105.6 98.8 107 97.2 C 108.4 95.6 110.2 94.3 112.4 93.4 C 114.6 92.5 117.2 92.1 120.1 92.1 C 122.2 92.1 124.1 92.3 126 92.8 C 127.8 93.3 129.5 94 130.9 95 C 132.4 96 133.5 97.3 134.4 98.9 C 135.2 100.4 135.6 102.3 135.6 104.5 C 135.65 104.48 135.6 129.1 135.6 129.1 L 126 129.1 L 126 124.1 C 126 124.1 125.75 124.06 125.7 124.1 C 125.2 125.2 124.4 126.2 123.4 127.1 C 122.4 127.9 121.2 128.6 119.8 129.1 C 118.5 129.6 116.9 129.8 115.1 129.8 Z M 118 122.8 C 119.5 122.8 120.8 122.5 121.9 121.9 C 123.1 121.3 124 120.5 124.6 119.5 C 125.3 118.5 125.6 117.3 125.6 116.1 C 125.6 116.1 125.6 112.2 125.6 112.2 C 125.3 112.4 124.8 112.6 124.3 112.7 C 123.7 112.9 123.1 113.1 122.4 113.2 C 121.8 113.3 121.1 113.5 120.4 113.6 C 119.7 113.7 119.1 113.7 118.5 113.8 C 117.3 114 116.3 114.3 115.4 114.7 C 114.5 115 113.8 115.6 113.4 116.2 C 112.9 116.8 112.6 117.6 112.6 118.6 C 112.6 120 113.1 121 114.1 121.7 C 115.1 122.5 116.4 122.8 118 122.8 Z M 143.1 129.1 L 143.1 80.4 L 153.2 80.4 L 153.2 98.7 C 153.2 98.7 153.51 98.72 153.5 98.7 C 153.9 97.7 154.6 96.7 155.4 95.7 C 156.3 94.7 157.4 93.8 158.8 93.1 C 160.1 92.5 161.9 92.1 163.9 92.1 C 166.6 92.1 169 92.8 171.3 94.2 C 173.5 95.6 175.3 97.7 176.7 100.4 C 178 103.2 178.7 106.7 178.7 110.9 C 178.7 115 178 118.4 176.7 121.2 C 175.4 124 173.7 126.1 171.4 127.6 C 169.2 129 166.7 129.7 163.9 129.7 C 161.9 129.7 160.2 129.4 158.9 128.7 C 157.5 128.1 156.4 127.3 155.5 126.3 C 154.6 125.3 154 124.3 153.5 123.3 C 153.51 123.27 153.1 123.3 153.1 123.3 L 153.1 129.1 L 143.1 129.1 Z M 153 110.9 C 153 113 153.3 114.9 153.9 116.5 C 154.5 118.2 155.4 119.4 156.5 120.3 C 157.6 121.2 159 121.7 160.7 121.7 C 162.3 121.7 163.7 121.2 164.9 120.3 C 166 119.4 166.9 118.1 167.5 116.5 C 168.1 114.9 168.4 113 168.4 110.9 C 168.4 108.7 168.1 106.9 167.5 105.3 C 166.9 103.7 166 102.4 164.9 101.5 C 163.7 100.6 162.3 100.2 160.7 100.2 C 159 100.2 157.6 100.6 156.5 101.5 C 155.4 102.4 154.5 103.6 153.9 105.2 C 153.3 106.8 153 108.7 153 110.9 Z M 184.6 129.1 L 184.6 92.6 L 194.7 92.6 L 194.7 129.1 L 184.6 129.1 Z M 189.7 87.9 C 188.2 87.9 186.9 87.4 185.8 86.4 C 184.8 85.4 184.2 84.2 184.2 82.8 C 184.2 81.3 184.8 80.1 185.8 79.1 C 186.9 78.1 188.2 77.6 189.7 77.6 C 191.2 77.6 192.5 78.1 193.6 79.1 C 194.6 80.1 195.2 81.3 195.2 82.7 C 195.2 84.1 194.6 85.4 193.6 86.4 C 192.5 87.4 191.2 87.9 189.7 87.9 Z M 212.4 80.4 L 212.4 129.1 L 202.3 129.1 L 202.3 80.4 L 212.4 80.4 Z M 219.9 129.1 L 219.9 92.6 L 230 92.6 L 230 129.1 L 219.9 129.1 Z M 225 87.9 C 223.4 87.9 222.2 87.4 221.1 86.4 C 220 85.4 219.5 84.2 219.5 82.8 C 219.5 81.3 220 80.1 221.1 79.1 C 222.2 78.1 223.5 77.6 225 77.6 C 226.5 77.6 227.7 78.1 228.8 79.1 C 229.9 80.1 230.4 81.3 230.4 82.7 C 230.4 84.1 229.9 85.4 228.8 86.4 C 227.7 87.4 226.5 87.9 225 87.9 Z M 256.3 92.6 L 256.3 100.2 L 234.2 100.2 L 234.2 92.6 L 256.3 92.6 Z M 239.2 83.8 L 249.4 83.8 C 249.4 83.8 249.38 117.9 249.4 117.9 C 249.4 118.8 249.5 119.6 249.8 120.1 C 250.1 120.6 250.5 121 251 121.2 C 251.5 121.4 252.1 121.5 252.8 121.5 C 253.3 121.5 253.8 121.4 254.2 121.3 C 254.7 121.2 255.1 121.2 255.3 121.1 C 255.3 121.1 256.9 128.7 256.9 128.7 C 256.4 128.8 255.7 129 254.8 129.2 C 253.9 129.4 252.7 129.6 251.4 129.6 C 249 129.7 246.8 129.4 245 128.7 C 243.2 127.9 241.8 126.7 240.7 125.2 C 239.7 123.6 239.2 121.6 239.2 119.2 C 239.24 119.23 239.2 83.8 239.2 83.8 Z M 268.8 142.8 C 267.5 142.8 266.3 142.7 265.2 142.5 C 264 142.3 263.1 142.1 262.4 141.8 C 262.4 141.8 264.7 134.2 264.7 134.2 C 265.9 134.6 266.9 134.8 267.9 134.8 C 268.9 134.8 269.7 134.6 270.4 134.1 C 271.1 133.7 271.7 132.9 272.1 131.7 C 272.12 131.72 272.7 130.2 272.7 130.2 L 259.6 92.6 L 270.3 92.6 L 277.8 119.4 L 278.2 119.4 L 285.9 92.6 L 296.6 92.6 C 296.6 92.6 282.38 133.08 282.4 133.1 C 281.7 135 280.8 136.8 279.6 138.2 C 278.4 139.7 277 140.8 275.2 141.6 C 273.4 142.4 271.3 142.8 268.8 142.8 Z M 336.9 92.6 L 336.9 100.2 L 314.3 100.2 L 314.3 92.6 L 336.9 92.6 Z M 319.5 129.1 C 319.5 129.1 319.47 89.94 319.5 89.9 C 319.5 87.3 320 85.1 321 83.4 C 322.1 81.6 323.5 80.3 325.3 79.4 C 327.1 78.6 329.2 78.1 331.5 78.1 C 333 78.1 334.4 78.2 335.7 78.5 C 337 78.7 338 78.9 338.6 79.1 C 338.6 79.1 336.8 86.7 336.8 86.7 C 336.4 86.6 335.9 86.5 335.4 86.4 C 334.8 86.3 334.2 86.2 333.6 86.2 C 332.1 86.2 331.1 86.6 330.5 87.2 C 329.9 87.9 329.6 88.9 329.6 90.1 C 329.59 90.13 329.6 129.1 329.6 129.1 L 319.5 129.1 Z M 357.5 129.8 C 353.8 129.8 350.6 129.1 347.9 127.5 C 345.2 125.9 343.1 123.7 341.7 120.9 C 340.2 118 339.5 114.7 339.5 111 C 339.5 107.2 340.2 103.9 341.7 101.1 C 343.1 98.3 345.2 96.1 347.9 94.5 C 350.6 92.9 353.8 92.1 357.5 92.1 C 361.2 92.1 364.4 92.9 367 94.5 C 369.7 96.1 371.8 98.3 373.3 101.1 C 374.7 103.9 375.5 107.2 375.5 111 C 375.5 114.7 374.7 118 373.3 120.9 C 371.8 123.7 369.7 125.9 367 127.5 C 364.4 129.1 361.2 129.8 357.5 129.8 Z M 357.5 122 C 359.2 122 360.6 121.5 361.7 120.6 C 362.9 119.6 363.7 118.3 364.3 116.6 C 364.9 114.9 365.2 113.1 365.2 110.9 C 365.2 108.8 364.9 106.9 364.3 105.2 C 363.7 103.6 362.9 102.3 361.7 101.3 C 360.6 100.3 359.2 99.8 357.5 99.8 C 355.8 99.8 354.4 100.3 353.2 101.3 C 352.1 102.3 351.2 103.6 350.7 105.2 C 350.1 106.9 349.8 108.8 349.8 110.9 C 349.8 113.1 350.1 114.9 350.7 116.6 C 351.2 118.3 352.1 119.6 353.2 120.6 C 354.4 121.5 355.8 122 357.5 122 Z M 381.2 129.1 L 381.2 92.6 L 391 92.6 L 391 99 C 391 99 391.42 98.96 391.4 99 C 392.1 96.7 393.2 95 394.8 93.8 C 396.3 92.6 398.2 92.1 400.2 92.1 C 400.7 92.1 401.3 92.1 401.8 92.2 C 402.4 92.2 402.9 92.3 403.4 92.4 C 403.4 92.4 403.4 101.4 403.4 101.4 C 402.9 101.3 402.3 101.1 401.4 101 C 400.6 100.9 399.8 100.9 399.1 100.9 C 397.6 100.9 396.3 101.2 395.1 101.8 C 394 102.5 393 103.4 392.4 104.5 C 391.7 105.6 391.3 107 391.3 108.5 C 391.35 108.45 391.3 129.1 391.3 129.1 L 381.2 129.1 Z M 424.2 129.1 L 424.2 80.4 L 434.4 80.4 L 434.4 98.7 C 434.4 98.7 434.67 98.72 434.7 98.7 C 435.1 97.7 435.8 96.7 436.6 95.7 C 437.5 94.7 438.6 93.8 439.9 93.1 C 441.3 92.5 443 92.1 445.1 92.1 C 447.7 92.1 450.2 92.8 452.4 94.2 C 454.7 95.6 456.5 97.7 457.8 100.4 C 459.2 103.2 459.9 106.7 459.9 110.9 C 459.9 115 459.2 118.4 457.9 121.2 C 456.6 124 454.8 126.1 452.6 127.6 C 450.3 129 447.8 129.7 445 129.7 C 443.1 129.7 441.4 129.4 440 128.7 C 438.7 128.1 437.5 127.3 436.7 126.3 C 435.8 125.3 435.1 124.3 434.7 123.3 C 434.67 123.27 434.2 123.3 434.2 123.3 L 434.2 129.1 L 424.2 129.1 Z M 434.2 110.9 C 434.2 113 434.5 114.9 435.1 116.5 C 435.7 118.2 436.5 119.4 437.7 120.3 C 438.8 121.2 440.2 121.7 441.8 121.7 C 443.5 121.7 444.9 121.2 446 120.3 C 447.2 119.4 448 118.1 448.6 116.5 C 449.2 114.9 449.5 113 449.5 110.9 C 449.5 108.7 449.2 106.9 448.6 105.3 C 448.1 103.7 447.2 102.4 446 101.5 C 444.9 100.6 443.5 100.2 441.8 100.2 C 440.2 100.2 438.8 100.6 437.7 101.5 C 436.5 102.4 435.7 103.6 435.1 105.2 C 434.5 106.8 434.2 108.7 434.2 110.9 Z M 482.3 129.8 C 478.5 129.8 475.3 129.1 472.6 127.5 C 469.9 126 467.8 123.8 466.3 121 C 464.9 118.2 464.1 114.9 464.1 111 C 464.1 107.3 464.9 104 466.3 101.1 C 467.8 98.3 469.8 96.1 472.5 94.5 C 475.2 92.9 478.3 92.1 481.9 92.1 C 484.3 92.1 486.5 92.5 488.6 93.3 C 490.7 94 492.5 95.2 494.1 96.7 C 495.6 98.3 496.9 100.2 497.7 102.5 C 498.6 104.8 499 107.6 499 110.7 C 499.04 110.66 499 113.4 499 113.4 L 468.2 113.4 L 468.2 107.2 C 468.2 107.2 489.5 107.17 489.5 107.2 C 489.5 105.7 489.2 104.4 488.5 103.3 C 487.9 102.2 487 101.3 485.9 100.6 C 484.8 100 483.5 99.7 482 99.7 C 480.5 99.7 479.1 100 477.9 100.7 C 476.8 101.4 475.8 102.4 475.2 103.6 C 474.5 104.7 474.2 106.1 474.2 107.5 C 474.2 107.5 474.2 113.5 474.2 113.5 C 474.2 115.3 474.5 116.8 475.2 118.2 C 475.8 119.5 476.8 120.5 478 121.2 C 479.3 121.9 480.7 122.3 482.4 122.3 C 483.6 122.3 484.6 122.1 485.5 121.8 C 486.5 121.5 487.3 121 487.9 120.4 C 488.6 119.7 489.1 119 489.5 118 C 489.5 118 498.8 118.7 498.8 118.7 C 498.3 120.9 497.4 122.9 495.9 124.5 C 494.4 126.2 492.6 127.5 490.2 128.4 C 487.9 129.4 485.3 129.8 482.3 129.8 Z M 523.5 92.6 L 523.5 100.2 L 501.5 100.2 L 501.5 92.6 L 523.5 92.6 Z M 506.5 83.8 L 516.6 83.8 C 516.6 83.8 516.64 117.9 516.6 117.9 C 516.6 118.8 516.8 119.6 517.1 120.1 C 517.3 120.6 517.7 121 518.3 121.2 C 518.8 121.4 519.4 121.5 520.1 121.5 C 520.5 121.5 521 121.4 521.5 121.3 C 522 121.2 522.3 121.2 522.6 121.1 C 522.6 121.1 524.2 128.7 524.2 128.7 C 523.7 128.8 523 129 522 129.2 C 521.1 129.4 520 129.6 518.7 129.6 C 516.2 129.7 514.1 129.4 512.3 128.7 C 510.4 127.9 509 126.7 508 125.2 C 507 123.6 506.5 121.6 506.5 119.2 C 506.5 119.23 506.5 83.8 506.5 83.8 Z M 549 92.6 L 549 100.2 L 527 100.2 L 527 92.6 L 549 92.6 Z M 532 83.8 L 542.1 83.8 C 542.1 83.8 542.15 117.9 542.1 117.9 C 542.1 118.8 542.3 119.6 542.6 120.1 C 542.9 120.6 543.3 121 543.8 121.2 C 544.3 121.4 544.9 121.5 545.6 121.5 C 546.1 121.5 546.5 121.4 547 121.3 C 547.5 121.2 547.8 121.2 548.1 121.1 C 548.1 121.1 549.7 128.7 549.7 128.7 C 549.2 128.8 548.5 129 547.5 129.2 C 546.6 129.4 545.5 129.6 544.2 129.6 C 541.8 129.7 539.6 129.4 537.8 128.7 C 536 127.9 534.5 126.7 533.5 125.2 C 532.5 123.6 532 121.6 532 119.2 C 532.01 119.23 532 83.8 532 83.8 Z M 570.1 129.8 C 566.4 129.8 563.1 129.1 560.4 127.5 C 557.7 126 555.6 123.8 554.2 121 C 552.7 118.2 552 114.9 552 111 C 552 107.3 552.7 104 554.2 101.1 C 555.6 98.3 557.7 96.1 560.4 94.5 C 563 92.9 566.1 92.1 569.7 92.1 C 572.1 92.1 574.4 92.5 576.5 93.3 C 578.5 94 580.4 95.2 581.9 96.7 C 583.5 98.3 584.7 100.2 585.6 102.5 C 586.5 104.8 586.9 107.6 586.9 110.7 C 586.89 110.66 586.9 113.4 586.9 113.4 L 556 113.4 L 556 107.2 C 556 107.2 577.35 107.17 577.4 107.2 C 577.4 105.7 577 104.4 576.4 103.3 C 575.8 102.2 574.9 101.3 573.8 100.6 C 572.7 100 571.4 99.7 569.9 99.7 C 568.3 99.7 567 100 565.8 100.7 C 564.6 101.4 563.7 102.4 563 103.6 C 562.4 104.7 562 106.1 562 107.5 C 562 107.5 562 113.5 562 113.5 C 562 115.3 562.3 116.8 563 118.2 C 563.7 119.5 564.6 120.5 565.9 121.2 C 567.1 121.9 568.6 122.3 570.3 122.3 C 571.4 122.3 572.4 122.1 573.4 121.8 C 574.3 121.5 575.1 121 575.8 120.4 C 576.4 119.7 577 119 577.3 118 C 577.3 118 586.7 118.7 586.7 118.7 C 586.2 120.9 585.2 122.9 583.8 124.5 C 582.3 126.2 580.4 127.5 578.1 128.4 C 575.8 129.4 573.1 129.8 570.1 129.8 Z M 592.9 129.1 L 592.9 92.6 L 602.7 92.6 L 602.7 99 C 602.7 99 603.09 98.96 603.1 99 C 603.8 96.7 604.9 95 606.4 93.8 C 608 92.6 609.8 92.1 611.9 92.1 C 612.4 92.1 612.9 92.1 613.5 92.2 C 614.1 92.2 614.6 92.3 615.1 92.4 C 615.1 92.4 615.1 101.4 615.1 101.4 C 614.6 101.3 613.9 101.1 613.1 101 C 612.2 100.9 611.5 100.9 610.8 100.9 C 609.3 100.9 608 101.2 606.8 101.8 C 605.6 102.5 604.7 103.4 604 104.5 C 603.4 105.6 603 107 603 108.5 C 603.02 108.45 603 129.1 603 129.1 L 592.9 129.1 Z M 649.2 129.7 C 646.4 129.7 643.9 129 641.6 127.6 C 639.4 126.1 637.6 124 636.3 121.2 C 635 118.4 634.4 115 634.4 110.9 C 634.4 106.7 635 103.2 636.4 100.4 C 637.7 97.7 639.5 95.6 641.8 94.2 C 644 92.8 646.5 92.1 649.2 92.1 C 651.2 92.1 652.9 92.5 654.3 93.1 C 655.7 93.8 656.8 94.7 657.6 95.7 C 658.5 96.7 659.1 97.7 659.6 98.7 C 659.55 98.72 659.9 98.7 659.9 98.7 L 659.9 80.4 L 670 80.4 L 670 129.1 L 660 129.1 L 660 123.3 C 660 123.3 659.55 123.27 659.6 123.3 C 659.1 124.3 658.4 125.3 657.5 126.3 C 656.7 127.3 655.6 128.1 654.2 128.7 C 652.8 129.4 651.1 129.7 649.2 129.7 Z M 652.4 121.7 C 654 121.7 655.4 121.2 656.5 120.3 C 657.7 119.4 658.5 118.2 659.2 116.5 C 659.8 114.9 660.1 113 660.1 110.9 C 660.1 108.7 659.8 106.8 659.2 105.2 C 658.6 103.6 657.7 102.4 656.6 101.5 C 655.4 100.6 654 100.2 652.4 100.2 C 650.7 100.2 649.3 100.6 648.2 101.5 C 647 102.4 646.2 103.7 645.6 105.3 C 645 106.9 644.7 108.7 644.7 110.9 C 644.7 113 645 114.9 645.6 116.5 C 646.2 118.1 647.1 119.4 648.2 120.3 C 649.3 121.2 650.7 121.7 652.4 121.7 Z M 694.1 129.8 C 690.3 129.8 687.1 129.1 684.4 127.5 C 681.7 126 679.6 123.8 678.1 121 C 676.7 118.2 675.9 114.9 675.9 111 C 675.9 107.3 676.7 104 678.1 101.1 C 679.6 98.3 681.6 96.1 684.3 94.5 C 686.9 92.9 690.1 92.1 693.7 92.1 C 696.1 92.1 698.3 92.5 700.4 93.3 C 702.5 94 704.3 95.2 705.9 96.7 C 707.4 98.3 708.7 100.2 709.5 102.5 C 710.4 104.8 710.8 107.6 710.8 110.7 C 710.83 110.66 710.8 113.4 710.8 113.4 L 680 113.4 L 680 107.2 C 680 107.2 701.29 107.17 701.3 107.2 C 701.3 105.7 701 104.4 700.3 103.3 C 699.7 102.2 698.8 101.3 697.7 100.6 C 696.6 100 695.3 99.7 693.8 99.7 C 692.3 99.7 690.9 100 689.7 100.7 C 688.6 101.4 687.6 102.4 687 103.6 C 686.3 104.7 686 106.1 685.9 107.5 C 685.9 107.5 685.9 113.5 685.9 113.5 C 685.9 115.3 686.3 116.8 687 118.2 C 687.6 119.5 688.6 120.5 689.8 121.2 C 691.1 121.9 692.5 122.3 694.2 122.3 C 695.4 122.3 696.4 122.1 697.3 121.8 C 698.3 121.5 699.1 121 699.7 120.4 C 700.4 119.7 700.9 119 701.2 118 C 701.2 118 710.6 118.7 710.6 118.7 C 710.1 120.9 709.2 122.9 707.7 124.5 C 706.2 126.2 704.4 127.5 702 128.4 C 699.7 129.4 697.1 129.8 694.1 129.8 Z M 733 129.8 C 729.3 129.8 726.1 129 723.4 127.4 C 720.7 125.9 718.6 123.6 717.2 120.8 C 715.8 118 715 114.7 715 111 C 715 107.3 715.8 104 717.2 101.1 C 718.7 98.3 720.7 96.1 723.4 94.5 C 726.1 92.9 729.3 92.1 733 92.1 C 736.2 92.1 739 92.7 741.4 93.8 C 743.8 95 745.6 96.6 747 98.7 C 748.4 100.8 749.2 103.3 749.4 106.1 C 749.4 106.1 739.8 106.1 739.8 106.1 C 739.5 104.3 738.8 102.8 737.7 101.7 C 736.5 100.6 735 100 733.1 100 C 731.6 100 730.2 100.4 729 101.3 C 727.9 102.1 727 103.4 726.3 105 C 725.7 106.6 725.3 108.6 725.3 110.9 C 725.3 113.2 725.7 115.2 726.3 116.8 C 726.9 118.4 727.9 119.7 729 120.5 C 730.2 121.4 731.6 121.8 733.1 121.8 C 734.3 121.8 735.3 121.6 736.3 121.1 C 737.2 120.6 738 119.9 738.6 119 C 739.2 118.1 739.6 117 739.8 115.7 C 739.8 115.7 749.4 115.7 749.4 115.7 C 749.2 118.5 748.4 121 747.1 123.1 C 745.7 125.2 743.9 126.9 741.5 128.1 C 739.1 129.2 736.3 129.8 733 129.8 Z M 755 129.1 L 755 92.6 L 765.1 92.6 L 765.1 129.1 L 755 129.1 Z M 760.1 87.9 C 758.6 87.9 757.3 87.4 756.2 86.4 C 755.2 85.4 754.6 84.2 754.6 82.8 C 754.6 81.3 755.2 80.1 756.2 79.1 C 757.3 78.1 758.6 77.6 760.1 77.6 C 761.6 77.6 762.9 78.1 764 79.1 C 765 80.1 765.6 81.3 765.6 82.7 C 765.6 84.1 765 85.4 764 86.4 C 762.9 87.4 761.6 87.9 760.1 87.9 Z M 802.7 103 C 802.7 103 793.4 103.6 793.4 103.6 C 793.3 102.8 792.9 102.1 792.4 101.4 C 791.9 100.8 791.2 100.3 790.3 99.9 C 789.5 99.5 788.5 99.3 787.3 99.3 C 785.7 99.3 784.4 99.6 783.3 100.3 C 782.2 100.9 781.7 101.8 781.7 102.9 C 781.7 103.8 782.1 104.5 782.8 105.1 C 783.5 105.7 784.6 106.2 786.3 106.6 C 786.3 106.6 793 107.9 793 107.9 C 796.5 108.6 799.2 109.8 800.9 111.4 C 802.7 113 803.5 115.2 803.5 117.8 C 803.5 120.2 802.8 122.3 801.4 124.1 C 800 125.9 798.1 127.3 795.7 128.3 C 793.2 129.3 790.4 129.8 787.3 129.8 C 782.4 129.8 778.6 128.8 775.7 126.8 C 772.8 124.8 771.2 122 770.7 118.5 C 770.7 118.5 780.6 118 780.6 118 C 780.9 119.5 781.7 120.6 782.8 121.4 C 784 122.2 785.5 122.5 787.3 122.5 C 789.1 122.5 790.5 122.2 791.6 121.5 C 792.7 120.8 793.2 119.9 793.2 118.8 C 793.2 117.9 792.8 117.1 792.1 116.6 C 791.3 116 790.1 115.5 788.5 115.2 C 788.5 115.2 782.2 113.9 782.2 113.9 C 778.6 113.2 776 112 774.2 110.2 C 772.5 108.5 771.6 106.2 771.6 103.5 C 771.6 101.1 772.3 99.1 773.6 97.4 C 774.8 95.7 776.6 94.4 779 93.5 C 781.3 92.6 784 92.1 787.1 92.1 C 791.7 92.1 795.4 93.1 798 95 C 800.7 97 802.2 99.6 802.7 103 Z M 809.1 129.1 L 809.1 92.6 L 819.3 92.6 L 819.3 129.1 L 809.1 129.1 Z M 814.2 87.9 C 812.7 87.9 811.4 87.4 810.3 86.4 C 809.3 85.4 808.7 84.2 808.7 82.8 C 808.7 81.3 809.3 80.1 810.4 79.1 C 811.4 78.1 812.7 77.6 814.2 77.6 C 815.7 77.6 817 78.1 818.1 79.1 C 819.1 80.1 819.7 81.3 819.7 82.7 C 819.7 84.1 819.1 85.4 818.1 86.4 C 817 87.4 815.7 87.9 814.2 87.9 Z M 843 129.8 C 839.3 129.8 836.1 129.1 833.4 127.5 C 830.7 125.9 828.6 123.7 827.2 120.9 C 825.7 118 825 114.7 825 111 C 825 107.2 825.7 103.9 827.2 101.1 C 828.6 98.3 830.7 96.1 833.4 94.5 C 836.1 92.9 839.3 92.1 843 92.1 C 846.7 92.1 849.9 92.9 852.5 94.5 C 855.2 96.1 857.3 98.3 858.8 101.1 C 860.2 103.9 861 107.2 861 111 C 861 114.7 860.2 118 858.8 120.9 C 857.3 123.7 855.2 125.9 852.5 127.5 C 849.9 129.1 846.7 129.8 843 129.8 Z M 843 122 C 844.7 122 846.1 121.5 847.2 120.6 C 848.4 119.6 849.2 118.3 849.8 116.6 C 850.4 114.9 850.7 113.1 850.7 110.9 C 850.7 108.8 850.4 106.9 849.8 105.2 C 849.2 103.6 848.4 102.3 847.2 101.3 C 846.1 100.3 844.7 99.8 843 99.8 C 841.3 99.8 839.9 100.3 838.7 101.3 C 837.6 102.3 836.7 103.6 836.2 105.2 C 835.6 106.9 835.3 108.8 835.3 110.9 C 835.3 113.1 835.6 114.9 836.2 116.6 C 836.7 118.3 837.6 119.6 838.7 120.6 C 839.9 121.5 841.3 122 843 122 Z M 876.9 108 C 876.85 108 876.9 129.1 876.9 129.1 L 866.7 129.1 L 866.7 92.6 L 876.4 92.6 L 876.4 99 C 876.4 99 876.8 99.03 876.8 99 C 877.6 96.9 879 95.2 880.9 94 C 882.8 92.7 885.1 92.1 887.8 92.1 C 890.3 92.1 892.5 92.7 894.4 93.8 C 896.3 94.9 897.8 96.5 898.8 98.5 C 899.9 100.6 900.4 103 900.4 105.9 C 900.41 105.86 900.4 129.1 900.4 129.1 L 890.3 129.1 C 890.3 129.1 890.27 107.67 890.3 107.7 C 890.3 105.4 889.7 103.7 888.6 102.4 C 887.4 101.2 885.8 100.5 883.8 100.5 C 882.4 100.5 881.2 100.8 880.2 101.4 C 879.1 102 878.3 102.8 877.7 104 C 877.2 105.1 876.9 106.4 876.9 108 Z M 930.4 105.1 L 930.4 113.1 L 908.2 113.1 L 908.2 105.1 L 930.4 105.1 Z M 938.2 129.1 L 938.2 92.6 L 947.9 92.6 L 947.9 99 C 947.9 99 948.34 99.03 948.3 99 C 949.1 96.9 950.4 95.2 952.1 94 C 953.9 92.7 956 92.1 958.5 92.1 C 961 92.1 963.2 92.7 964.9 94 C 966.7 95.2 967.9 96.9 968.4 99 C 968.4 99 968.8 99 968.8 99 C 969.6 96.9 970.9 95.3 972.9 94 C 974.8 92.7 977.2 92.1 979.8 92.1 C 983.2 92.1 986 93.2 988.2 95.4 C 990.3 97.5 991.4 100.6 991.4 104.5 C 991.35 104.55 991.4 129.1 991.4 129.1 L 981.2 129.1 C 981.2 129.1 981.24 106.55 981.2 106.5 C 981.2 104.5 980.7 103 979.6 102 C 978.5 101 977.2 100.5 975.6 100.5 C 973.7 100.5 972.3 101 971.3 102.2 C 970.2 103.4 969.7 104.9 969.7 106.8 C 969.73 106.81 969.7 129.1 969.7 129.1 L 959.9 129.1 C 959.9 129.1 959.9 106.33 959.9 106.3 C 959.9 104.5 959.4 103.1 958.4 102.1 C 957.3 101 956 100.5 954.3 100.5 C 953.2 100.5 952.2 100.7 951.3 101.3 C 950.4 101.9 949.7 102.7 949.2 103.7 C 948.6 104.7 948.4 105.8 948.4 107.2 C 948.38 107.19 948.4 129.1 948.4 129.1 L 938.2 129.1 Z M 1009 129.8 C 1006.6 129.8 1004.5 129.4 1002.7 128.6 C 1000.9 127.8 999.5 126.6 998.4 125 C 997.3 123.3 996.8 121.3 996.8 118.9 C 996.8 116.9 997.2 115.2 997.9 113.8 C 998.7 112.4 999.7 111.3 1001 110.5 C 1002.3 109.6 1003.7 109 1005.4 108.6 C 1007 108.1 1008.7 107.8 1010.5 107.7 C 1012.7 107.4 1014.4 107.2 1015.7 107 C 1017 106.8 1017.9 106.5 1018.5 106.1 C 1019.1 105.7 1019.4 105.2 1019.4 104.4 C 1019.4 104.4 1019.4 104.2 1019.4 104.2 C 1019.4 102.7 1018.9 101.6 1018 100.7 C 1017 99.9 1015.7 99.5 1014 99.5 C 1012.1 99.5 1010.7 99.9 1009.6 100.7 C 1008.5 101.5 1007.8 102.5 1007.5 103.7 C 1007.5 103.7 998.1 103 998.1 103 C 998.6 100.7 999.5 98.8 1000.9 97.2 C 1002.3 95.6 1004.1 94.3 1006.3 93.4 C 1008.5 92.5 1011.1 92.1 1014 92.1 C 1016 92.1 1018 92.3 1019.9 92.8 C 1021.7 93.3 1023.4 94 1024.8 95 C 1026.3 96 1027.4 97.3 1028.3 98.9 C 1029.1 100.4 1029.5 102.3 1029.5 104.5 C 1029.53 104.48 1029.5 129.1 1029.5 129.1 L 1019.9 129.1 L 1019.9 124.1 C 1019.9 124.1 1019.63 124.06 1019.6 124.1 C 1019 125.2 1018.3 126.2 1017.3 127.1 C 1016.3 127.9 1015.1 128.6 1013.7 129.1 C 1012.4 129.6 1010.8 129.8 1009 129.8 Z M 1011.9 122.8 C 1013.3 122.8 1014.7 122.5 1015.8 121.9 C 1016.9 121.3 1017.8 120.5 1018.5 119.5 C 1019.1 118.5 1019.5 117.3 1019.5 116.1 C 1019.5 116.1 1019.5 112.2 1019.5 112.2 C 1019.1 112.4 1018.7 112.6 1018.2 112.7 C 1017.6 112.9 1017 113.1 1016.3 113.2 C 1015.6 113.3 1015 113.5 1014.3 113.6 C 1013.6 113.7 1013 113.7 1012.4 113.8 C 1011.2 114 1010.2 114.3 1009.3 114.7 C 1008.4 115 1007.7 115.6 1007.2 116.2 C 1006.7 116.8 1006.5 117.6 1006.5 118.6 C 1006.5 120 1007 121 1008 121.7 C 1009 122.5 1010.3 122.8 1011.9 122.8 Z M 1046 118.6 L 1046.1 106.5 L 1047.5 106.5 L 1059.3 92.6 L 1070.9 92.6 L 1055.2 110.9 L 1052.8 110.9 L 1046 118.6 Z M 1036.9 129.1 L 1036.9 80.4 L 1047 80.4 L 1047 129.1 L 1036.9 129.1 Z M 1059.7 129.1 L 1049 113.2 L 1055.7 106 L 1071.6 129.1 L 1059.7 129.1 Z M 1075.2 129.1 L 1075.2 92.6 L 1085.3 92.6 L 1085.3 129.1 L 1075.2 129.1 Z M 1080.3 87.9 C 1078.8 87.9 1077.5 87.4 1076.4 86.4 C 1075.4 85.4 1074.8 84.2 1074.8 82.8 C 1074.8 81.3 1075.4 80.1 1076.4 79.1 C 1077.5 78.1 1078.8 77.6 1080.3 77.6 C 1081.8 77.6 1083.1 78.1 1084.2 79.1 C 1085.2 80.1 1085.8 81.3 1085.8 82.7 C 1085.8 84.1 1085.2 85.4 1084.2 86.4 C 1083.1 87.4 1081.8 87.9 1080.3 87.9 Z M 1103 108 C 1102.96 108 1103 129.1 1103 129.1 L 1092.8 129.1 L 1092.8 92.6 L 1102.5 92.6 L 1102.5 99 C 1102.5 99 1102.91 99.03 1102.9 99 C 1103.7 96.9 1105.1 95.2 1107 94 C 1108.9 92.7 1111.2 92.1 1113.9 92.1 C 1116.4 92.1 1118.7 92.7 1120.5 93.8 C 1122.4 94.9 1123.9 96.5 1124.9 98.5 C 1126 100.6 1126.5 103 1126.5 105.9 C 1126.52 105.86 1126.5 129.1 1126.5 129.1 L 1116.4 129.1 C 1116.4 129.1 1116.38 107.67 1116.4 107.7 C 1116.4 105.4 1115.8 103.7 1114.7 102.4 C 1113.5 101.2 1111.9 100.5 1109.9 100.5 C 1108.5 100.5 1107.3 100.8 1106.3 101.4 C 1105.2 102 1104.4 102.8 1103.9 104 C 1103.3 105.1 1103 106.4 1103 108 Z M 1150.1 143.6 C 1146.8 143.6 1144 143.1 1141.7 142.2 C 1139.3 141.4 1137.5 140.1 1136.1 138.6 C 1134.7 137.1 1133.8 135.3 1133.4 133.4 C 1133.4 133.4 1142.8 132.1 1142.8 132.1 C 1143 132.9 1143.5 133.6 1144.1 134.2 C 1144.7 134.8 1145.6 135.3 1146.6 135.7 C 1147.6 136.1 1148.8 136.3 1150.3 136.3 C 1152.5 136.3 1154.3 135.8 1155.8 134.7 C 1157.2 133.6 1157.9 131.8 1157.9 129.3 C 1157.94 129.34 1157.9 122.7 1157.9 122.7 C 1157.9 122.7 1157.51 122.66 1157.5 122.7 C 1157.1 123.7 1156.4 124.6 1155.5 125.5 C 1154.6 126.4 1153.5 127.2 1152.1 127.7 C 1150.7 128.3 1149 128.6 1147.1 128.6 C 1144.3 128.6 1141.9 128 1139.6 126.7 C 1137.4 125.4 1135.6 123.5 1134.3 120.8 C 1132.9 118.2 1132.3 114.8 1132.3 110.8 C 1132.3 106.6 1132.9 103.2 1134.3 100.4 C 1135.6 97.6 1137.4 95.6 1139.7 94.2 C 1141.9 92.8 1144.4 92.1 1147.1 92.1 C 1149.1 92.1 1150.8 92.5 1152.2 93.1 C 1153.6 93.8 1154.7 94.7 1155.5 95.7 C 1156.4 96.7 1157.1 97.7 1157.5 98.7 C 1157.51 98.72 1157.9 98.7 1157.9 98.7 L 1157.9 92.6 L 1168 92.6 C 1168 92.6 1167.96 129.48 1168 129.5 C 1168 132.6 1167.2 135.2 1165.7 137.3 C 1164.1 139.4 1162 141 1159.4 142 C 1156.7 143.1 1153.6 143.6 1150.1 143.6 Z M 1150.3 121 C 1151.9 121 1153.3 120.6 1154.5 119.8 C 1155.6 118.9 1156.5 117.8 1157.1 116.2 C 1157.7 114.7 1158 112.9 1158 110.7 C 1158 108.6 1157.7 106.7 1157.1 105.2 C 1156.5 103.6 1155.6 102.4 1154.5 101.5 C 1153.3 100.6 1151.9 100.2 1150.3 100.2 C 1148.6 100.2 1147.2 100.6 1146.1 101.5 C 1144.9 102.4 1144.1 103.7 1143.5 105.2 C 1142.9 106.8 1142.6 108.7 1142.6 110.7 C 1142.6 112.8 1142.9 114.7 1143.5 116.2 C 1144.1 117.7 1145 118.9 1146.1 119.7 C 1147.2 120.6 1148.6 121 1150.3 121 Z " stroke="none" fill="#ffffff"/>  </g>  <g id="Polygon124023">    <path d="M 12.6 48.7 L 1.6 48.7 L 18.4 0 L 31.7 0 L 48.5 48.7 L 37.4 48.7 L 25.2 11.1 L 24.9 11.1 L 12.6 48.7 Z M 11.9 29.6 L 38 29.6 L 38 37.6 L 11.9 37.6 L 11.9 29.6 Z M 63.3 27.6 C 63.26 27.6 63.3 48.7 63.3 48.7 L 53.1 48.7 L 53.1 12.2 L 62.8 12.2 L 62.8 18.6 C 62.8 18.6 63.21 18.63 63.2 18.6 C 64 16.5 65.4 14.8 67.3 13.6 C 69.2 12.3 71.5 11.7 74.2 11.7 C 76.7 11.7 79 12.3 80.8 13.4 C 82.7 14.5 84.2 16.1 85.2 18.1 C 86.3 20.2 86.8 22.6 86.8 25.5 C 86.81 25.46 86.8 48.7 86.8 48.7 L 76.7 48.7 C 76.7 48.7 76.67 27.27 76.7 27.3 C 76.7 25 76.1 23.3 75 22 C 73.8 20.8 72.2 20.1 70.2 20.1 C 68.8 20.1 67.6 20.4 66.6 21 C 65.5 21.6 64.7 22.4 64.1 23.6 C 63.6 24.7 63.3 26 63.3 27.6 Z M 104.3 49.4 C 102 49.4 99.9 49 98.1 48.2 C 96.2 47.4 94.8 46.2 93.7 44.6 C 92.7 42.9 92.2 40.9 92.2 38.5 C 92.2 36.5 92.5 34.8 93.3 33.4 C 94 32 95 30.9 96.3 30.1 C 97.6 29.2 99.1 28.6 100.7 28.2 C 102.4 27.7 104.1 27.4 105.9 27.3 C 108 27 109.7 26.8 111 26.6 C 112.3 26.4 113.3 26.1 113.9 25.7 C 114.4 25.3 114.7 24.8 114.7 24 C 114.7 24 114.7 23.8 114.7 23.8 C 114.7 22.3 114.3 21.2 113.3 20.3 C 112.4 19.5 111 19.1 109.3 19.1 C 107.5 19.1 106 19.5 105 20.3 C 103.9 21.1 103.2 22.1 102.8 23.3 C 102.8 23.3 93.4 22.6 93.4 22.6 C 93.9 20.3 94.9 18.4 96.2 16.8 C 97.6 15.2 99.4 13.9 101.7 13 C 103.9 12.1 106.4 11.7 109.4 11.7 C 111.4 11.7 113.3 11.9 115.2 12.4 C 117.1 12.9 118.7 13.6 120.2 14.6 C 121.6 15.6 122.8 16.9 123.6 18.5 C 124.5 20 124.9 21.9 124.9 24.1 C 124.87 24.08 124.9 48.7 124.9 48.7 L 115.3 48.7 L 115.3 43.7 C 115.3 43.7 114.97 43.66 115 43.7 C 114.4 44.8 113.6 45.8 112.6 46.7 C 111.6 47.5 110.5 48.2 109.1 48.7 C 107.7 49.2 106.1 49.4 104.3 49.4 Z M 107.2 42.4 C 108.7 42.4 110 42.1 111.1 41.5 C 112.3 40.9 113.2 40.1 113.8 39.1 C 114.5 38.1 114.8 36.9 114.8 35.7 C 114.8 35.7 114.8 31.8 114.8 31.8 C 114.5 32 114.1 32.2 113.5 32.3 C 113 32.5 112.3 32.7 111.7 32.8 C 111 32.9 110.3 33.1 109.6 33.2 C 108.9 33.3 108.3 33.3 107.8 33.4 C 106.6 33.6 105.5 33.9 104.6 34.3 C 103.8 34.6 103.1 35.2 102.6 35.8 C 102.1 36.4 101.8 37.2 101.8 38.2 C 101.8 39.6 102.3 40.6 103.4 41.3 C 104.4 42.1 105.6 42.4 107.2 42.4 Z M 132.2 62.4 L 132.2 12.2 L 142.2 12.2 L 142.2 18.3 C 142.2 18.3 142.65 18.32 142.6 18.3 C 143.1 17.3 143.7 16.3 144.6 15.3 C 145.4 14.3 146.5 13.4 147.9 12.7 C 149.3 12.1 151 11.7 153 11.7 C 155.7 11.7 158.2 12.4 160.4 13.8 C 162.7 15.2 164.5 17.3 165.8 20 C 167.2 22.8 167.8 26.3 167.8 30.5 C 167.8 34.6 167.2 38 165.9 40.8 C 164.6 43.6 162.8 45.7 160.6 47.2 C 158.3 48.6 155.8 49.3 153 49.3 C 151.1 49.3 149.4 49 148 48.3 C 146.6 47.7 145.5 46.9 144.6 45.9 C 143.8 44.9 143.1 43.9 142.6 42.9 C 142.65 42.87 142.3 42.9 142.3 42.9 L 142.3 62.4 L 132.2 62.4 Z M 142.1 30.5 C 142.1 32.6 142.4 34.5 143 36.1 C 143.6 37.8 144.5 39 145.6 39.9 C 146.8 40.8 148.2 41.3 149.8 41.3 C 151.5 41.3 152.9 40.8 154 39.9 C 155.1 39 156 37.7 156.6 36.1 C 157.2 34.5 157.5 32.6 157.5 30.5 C 157.5 28.3 157.2 26.5 156.6 24.9 C 156 23.3 155.2 22 154 21.1 C 152.9 20.2 151.5 19.8 149.8 19.8 C 148.2 19.8 146.8 20.2 145.6 21.1 C 144.5 22 143.6 23.2 143 24.8 C 142.4 26.4 142.1 28.3 142.1 30.5 Z M 184.1 0 L 184.1 48.7 L 173.9 48.7 L 173.9 0 L 184.1 0 Z M 201.8 49.4 C 199.5 49.4 197.4 49 195.6 48.2 C 193.8 47.4 192.3 46.2 191.3 44.6 C 190.2 42.9 189.7 40.9 189.7 38.5 C 189.7 36.5 190.1 34.8 190.8 33.4 C 191.6 32 192.6 30.9 193.9 30.1 C 195.1 29.2 196.6 28.6 198.2 28.2 C 199.9 27.7 201.6 27.4 203.4 27.3 C 205.5 27 207.3 26.8 208.6 26.6 C 209.9 26.4 210.8 26.1 211.4 25.7 C 212 25.3 212.3 24.8 212.3 24 C 212.3 24 212.3 23.8 212.3 23.8 C 212.3 22.3 211.8 21.2 210.9 20.3 C 209.9 19.5 208.6 19.1 206.8 19.1 C 205 19.1 203.6 19.5 202.5 20.3 C 201.4 21.1 200.7 22.1 200.4 23.3 C 200.4 23.3 191 22.6 191 22.6 C 191.5 20.3 192.4 18.4 193.8 16.8 C 195.2 15.2 197 13.9 199.2 13 C 201.4 12.1 204 11.7 206.9 11.7 C 208.9 11.7 210.9 11.9 212.7 12.4 C 214.6 12.9 216.3 13.6 217.7 14.6 C 219.2 15.6 220.3 16.9 221.1 18.5 C 222 20 222.4 21.9 222.4 24.1 C 222.41 24.08 222.4 48.7 222.4 48.7 L 212.8 48.7 L 212.8 43.7 C 212.8 43.7 212.51 43.66 212.5 43.7 C 211.9 44.8 211.1 45.8 210.2 46.7 C 209.2 47.5 208 48.2 206.6 48.7 C 205.2 49.2 203.6 49.4 201.8 49.4 Z M 204.7 42.4 C 206.2 42.4 207.5 42.1 208.7 41.5 C 209.8 40.9 210.7 40.1 211.4 39.1 C 212 38.1 212.3 36.9 212.3 35.7 C 212.3 35.7 212.3 31.8 212.3 31.8 C 212 32 211.6 32.2 211 32.3 C 210.5 32.5 209.9 32.7 209.2 32.8 C 208.5 32.9 207.8 33.1 207.2 33.2 C 206.5 33.3 205.9 33.3 205.3 33.4 C 204.1 33.6 203.1 33.9 202.2 34.3 C 201.3 34.6 200.6 35.2 200.1 35.8 C 199.6 36.4 199.4 37.2 199.4 38.2 C 199.4 39.6 199.9 40.6 200.9 41.3 C 201.9 42.1 203.2 42.4 204.7 42.4 Z M 239.9 27.6 C 239.88 27.6 239.9 48.7 239.9 48.7 L 229.7 48.7 L 229.7 12.2 L 239.4 12.2 L 239.4 18.6 C 239.4 18.6 239.83 18.63 239.8 18.6 C 240.6 16.5 242 14.8 243.9 13.6 C 245.8 12.3 248.1 11.7 250.8 11.7 C 253.4 11.7 255.6 12.3 257.5 13.4 C 259.3 14.5 260.8 16.1 261.9 18.1 C 262.9 20.2 263.4 22.6 263.4 25.5 C 263.43 25.46 263.4 48.7 263.4 48.7 L 253.3 48.7 C 253.3 48.7 253.3 27.27 253.3 27.3 C 253.3 25 252.7 23.3 251.6 22 C 250.4 20.8 248.8 20.1 246.8 20.1 C 245.4 20.1 244.2 20.4 243.2 21 C 242.2 21.6 241.3 22.4 240.8 23.6 C 240.2 24.7 239.9 26 239.9 27.6 Z M 277.6 0 C 277.6 0 277.61 5.14 277.6 5.1 C 277.6 6.6 277.3 8.1 276.8 9.6 C 276.2 11.1 275.5 12.5 274.5 13.9 C 273.6 15.2 272.6 16.4 271.4 17.3 C 271.4 17.3 267 14.7 267 14.7 C 267.8 13.4 268.5 12 269.1 10.5 C 269.7 9 270 7.2 270 5.2 C 270 5.19 270 0 270 0 L 277.6 0 Z M 311.4 22.6 C 311.4 22.6 302.1 23.2 302.1 23.2 C 302 22.4 301.6 21.7 301.1 21 C 300.6 20.4 299.9 19.9 299.1 19.5 C 298.2 19.1 297.2 18.9 296 18.9 C 294.5 18.9 293.1 19.2 292 19.9 C 291 20.5 290.4 21.4 290.4 22.5 C 290.4 23.4 290.8 24.1 291.5 24.7 C 292.2 25.3 293.4 25.8 295.1 26.2 C 295.1 26.2 301.7 27.5 301.7 27.5 C 305.2 28.2 307.9 29.4 309.6 31 C 311.4 32.6 312.2 34.8 312.2 37.4 C 312.2 39.8 311.5 41.9 310.1 43.7 C 308.7 45.5 306.8 46.9 304.4 47.9 C 301.9 48.9 299.1 49.4 296 49.4 C 291.1 49.4 287.3 48.4 284.4 46.4 C 281.6 44.4 279.9 41.6 279.4 38.1 C 279.4 38.1 289.4 37.6 289.4 37.6 C 289.7 39.1 290.4 40.2 291.5 41 C 292.7 41.8 294.2 42.1 296 42.1 C 297.8 42.1 299.2 41.8 300.3 41.1 C 301.4 40.4 301.9 39.5 301.9 38.4 C 301.9 37.5 301.5 36.7 300.8 36.2 C 300 35.6 298.8 35.1 297.3 34.8 C 297.3 34.8 290.9 33.5 290.9 33.5 C 287.4 32.8 284.7 31.6 283 29.8 C 281.2 28.1 280.4 25.8 280.4 23.1 C 280.4 20.7 281 18.7 282.3 17 C 283.6 15.3 285.4 14 287.7 13.1 C 290 12.2 292.7 11.7 295.9 11.7 C 300.5 11.7 304.1 12.7 306.8 14.6 C 309.4 16.6 311 19.2 311.4 22.6 Z M 342.8 48.7 L 331.7 48.7 L 348.6 0 L 361.8 0 L 378.6 48.7 L 367.6 48.7 L 355.4 11.1 L 355 11.1 L 342.8 48.7 Z M 342.1 29.6 L 368.2 29.6 L 368.2 37.6 L 342.1 37.6 L 342.1 29.6 Z M 394 0 L 394 48.7 L 383.7 48.7 L 383.7 0 L 394 0 Z M 431.3 49.3 C 428.5 49.3 426 48.6 423.8 47.2 C 421.5 45.7 419.8 43.6 418.5 40.8 C 417.2 38 416.5 34.6 416.5 30.5 C 416.5 26.3 417.2 22.8 418.5 20 C 419.9 17.3 421.7 15.2 423.9 13.8 C 426.2 12.4 428.6 11.7 431.3 11.7 C 433.3 11.7 435.1 12.1 436.4 12.7 C 437.8 13.4 438.9 14.3 439.8 15.3 C 440.6 16.3 441.2 17.3 441.7 18.3 C 441.69 18.32 442 18.3 442 18.3 L 442 0 L 452.1 0 L 452.1 48.7 L 442.1 48.7 L 442.1 42.9 C 442.1 42.9 441.69 42.87 441.7 42.9 C 441.2 43.9 440.5 44.9 439.7 45.9 C 438.8 46.9 437.7 47.7 436.3 48.3 C 435 49 433.3 49.3 431.3 49.3 Z M 434.5 41.3 C 436.2 41.3 437.5 40.8 438.7 39.9 C 439.8 39 440.7 37.8 441.3 36.1 C 441.9 34.5 442.2 32.6 442.2 30.5 C 442.2 28.3 441.9 26.4 441.3 24.8 C 440.7 23.2 439.8 22 438.7 21.1 C 437.6 20.2 436.2 19.8 434.5 19.8 C 432.9 19.8 431.5 20.2 430.3 21.1 C 429.2 22 428.3 23.3 427.7 24.9 C 427.1 26.5 426.8 28.3 426.8 30.5 C 426.8 32.6 427.1 34.5 427.7 36.1 C 428.3 37.7 429.2 39 430.3 39.9 C 431.5 40.8 432.9 41.3 434.5 41.3 Z M 476.2 49.4 C 472.4 49.4 469.2 48.7 466.5 47.1 C 463.8 45.6 461.7 43.4 460.3 40.6 C 458.8 37.8 458.1 34.5 458.1 30.6 C 458.1 26.9 458.8 23.6 460.3 20.7 C 461.7 17.9 463.8 15.7 466.4 14.1 C 469.1 12.5 472.2 11.7 475.8 11.7 C 478.2 11.7 480.5 12.1 482.5 12.9 C 484.6 13.6 486.5 14.8 488 16.3 C 489.6 17.9 490.8 19.8 491.7 22.1 C 492.5 24.4 493 27.2 493 30.3 C 492.97 30.26 493 33 493 33 L 462.1 33 L 462.1 26.8 C 462.1 26.8 483.43 26.77 483.4 26.8 C 483.4 25.3 483.1 24 482.5 22.9 C 481.8 21.8 481 20.9 479.9 20.2 C 478.7 19.6 477.4 19.3 476 19.3 C 474.4 19.3 473.1 19.6 471.9 20.3 C 470.7 21 469.8 22 469.1 23.2 C 468.4 24.3 468.1 25.7 468.1 27.1 C 468.1 27.1 468.1 33.1 468.1 33.1 C 468.1 34.9 468.4 36.4 469.1 37.8 C 469.8 39.1 470.7 40.1 472 40.8 C 473.2 41.5 474.7 41.9 476.4 41.9 C 477.5 41.9 478.5 41.7 479.5 41.4 C 480.4 41.1 481.2 40.6 481.9 40 C 482.5 39.3 483 38.6 483.4 37.6 C 483.4 37.6 492.8 38.3 492.8 38.3 C 492.3 40.5 491.3 42.5 489.8 44.1 C 488.4 45.8 486.5 47.1 484.2 48 C 481.9 49 479.2 49.4 476.2 49.4 Z M 509.2 0 L 509.2 48.7 L 499 48.7 L 499 0 L 509.2 0 Z M 516.6 48.7 L 516.6 12.2 L 526.8 12.2 L 526.8 48.7 L 516.6 48.7 Z M 521.7 7.5 C 520.2 7.5 518.9 7 517.9 6 C 516.8 5 516.3 3.8 516.3 2.4 C 516.3 0.9 516.8 -0.3 517.9 -1.3 C 518.9 -2.3 520.2 -2.8 521.7 -2.8 C 523.2 -2.8 524.5 -2.3 525.6 -1.3 C 526.7 -0.3 527.2 0.9 527.2 2.3 C 527.2 3.7 526.7 5 525.6 6 C 524.5 7 523.2 7.5 521.7 7.5 Z M 567.8 12.2 L 555 48.7 L 543.6 48.7 L 530.8 12.2 L 541.5 12.2 L 549.1 38.3 L 549.5 38.3 L 557 12.2 L 567.8 12.2 Z M 586.9 49.4 C 583.1 49.4 579.9 48.7 577.2 47.1 C 574.5 45.6 572.4 43.4 570.9 40.6 C 569.5 37.8 568.8 34.5 568.8 30.6 C 568.8 26.9 569.5 23.6 570.9 20.7 C 572.4 17.9 574.5 15.7 577.1 14.1 C 579.8 12.5 582.9 11.7 586.5 11.7 C 588.9 11.7 591.1 12.1 593.2 12.9 C 595.3 13.6 597.1 14.8 598.7 16.3 C 600.3 17.9 601.5 19.8 602.3 22.1 C 603.2 24.4 603.7 27.2 603.7 30.3 C 603.66 30.26 603.7 33 603.7 33 L 572.8 33 L 572.8 26.8 C 572.8 26.8 594.12 26.77 594.1 26.8 C 594.1 25.3 593.8 24 593.2 22.9 C 592.5 21.8 591.7 20.9 590.5 20.2 C 589.4 19.6 588.1 19.3 586.6 19.3 C 585.1 19.3 583.7 19.6 582.6 20.3 C 581.4 21 580.5 22 579.8 23.2 C 579.1 24.3 578.8 25.7 578.8 27.1 C 578.8 27.1 578.8 33.1 578.8 33.1 C 578.8 34.9 579.1 36.4 579.8 37.8 C 580.5 39.1 581.4 40.1 582.6 40.8 C 583.9 41.5 585.4 41.9 587.1 41.9 C 588.2 41.9 589.2 41.7 590.1 41.4 C 591.1 41.1 591.9 40.6 592.5 40 C 593.2 39.3 593.7 38.6 594.1 37.6 C 594.1 37.6 603.4 38.3 603.4 38.3 C 603 40.5 602 42.5 600.5 44.1 C 599.1 45.8 597.2 47.1 594.9 48 C 592.6 49 589.9 49.4 586.9 49.4 Z M 609.6 48.7 L 609.6 12.2 L 619.5 12.2 L 619.5 18.6 C 619.5 18.6 619.86 18.56 619.9 18.6 C 620.5 16.3 621.6 14.6 623.2 13.4 C 624.8 12.2 626.6 11.7 628.6 11.7 C 629.1 11.7 629.7 11.7 630.3 11.8 C 630.9 11.8 631.4 11.9 631.8 12 C 631.8 12 631.8 21 631.8 21 C 631.3 20.9 630.7 20.7 629.8 20.6 C 629 20.5 628.2 20.5 627.5 20.5 C 626.1 20.5 624.7 20.8 623.6 21.4 C 622.4 22.1 621.5 23 620.8 24.1 C 620.1 25.2 619.8 26.6 619.8 28.1 C 619.78 28.05 619.8 48.7 619.8 48.7 L 609.6 48.7 Z M 666.6 22.6 C 666.6 22.6 657.3 23.2 657.3 23.2 C 657.2 22.4 656.8 21.7 656.3 21 C 655.8 20.4 655.1 19.9 654.3 19.5 C 653.4 19.1 652.4 18.9 651.2 18.9 C 649.7 18.9 648.3 19.2 647.3 19.9 C 646.2 20.5 645.6 21.4 645.6 22.5 C 645.6 23.4 646 24.1 646.7 24.7 C 647.4 25.3 648.6 25.8 650.3 26.2 C 650.3 26.2 656.9 27.5 656.9 27.5 C 660.4 28.2 663.1 29.4 664.8 31 C 666.6 32.6 667.5 34.8 667.5 37.4 C 667.5 39.8 666.8 41.9 665.4 43.7 C 663.9 45.5 662 46.9 659.6 47.9 C 657.2 48.9 654.4 49.4 651.2 49.4 C 646.3 49.4 642.5 48.4 639.6 46.4 C 636.8 44.4 635.1 41.6 634.6 38.1 C 634.6 38.1 644.6 37.6 644.6 37.6 C 644.9 39.1 645.6 40.2 646.8 41 C 647.9 41.8 649.4 42.1 651.2 42.1 C 653 42.1 654.4 41.8 655.5 41.1 C 656.6 40.4 657.1 39.5 657.2 38.4 C 657.1 37.5 656.7 36.7 656 36.2 C 655.2 35.6 654.1 35.1 652.5 34.8 C 652.5 34.8 646.1 33.5 646.1 33.5 C 642.6 32.8 639.9 31.6 638.2 29.8 C 636.4 28.1 635.6 25.8 635.6 23.1 C 635.6 20.7 636.2 18.7 637.5 17 C 638.8 15.3 640.6 14 642.9 13.1 C 645.2 12.2 647.9 11.7 651.1 11.7 C 655.7 11.7 659.3 12.7 662 14.6 C 664.6 16.6 666.2 19.2 666.6 22.6 Z M 689.4 62.4 L 689.4 12.2 L 699.4 12.2 L 699.4 18.3 C 699.4 18.3 699.84 18.32 699.8 18.3 C 700.3 17.3 700.9 16.3 701.8 15.3 C 702.6 14.3 703.7 13.4 705.1 12.7 C 706.5 12.1 708.2 11.7 710.2 11.7 C 712.9 11.7 715.4 12.4 717.6 13.8 C 719.9 15.2 721.7 17.3 723 20 C 724.4 22.8 725 26.3 725 30.5 C 725 34.6 724.4 38 723.1 40.8 C 721.8 43.6 720 45.7 717.7 47.2 C 715.5 48.6 713 49.3 710.2 49.3 C 708.2 49.3 706.6 49 705.2 48.3 C 703.8 47.7 702.7 46.9 701.8 45.9 C 701 44.9 700.3 43.9 699.8 42.9 C 699.84 42.87 699.5 42.9 699.5 42.9 L 699.5 62.4 L 689.4 62.4 Z M 699.3 30.5 C 699.3 32.6 699.6 34.5 700.2 36.1 C 700.8 37.8 701.7 39 702.8 39.9 C 704 40.8 705.4 41.3 707 41.3 C 708.6 41.3 710 40.8 711.2 39.9 C 712.3 39 713.2 37.7 713.8 36.1 C 714.4 34.5 714.7 32.6 714.7 30.5 C 714.7 28.3 714.4 26.5 713.8 24.9 C 713.2 23.3 712.4 22 711.2 21.1 C 710.1 20.2 708.7 19.8 707 19.8 C 705.3 19.8 704 20.2 702.8 21.1 C 701.7 22 700.8 23.2 700.2 24.8 C 699.6 26.4 699.3 28.3 699.3 30.5 Z M 731.1 48.7 L 731.1 12.2 L 740.9 12.2 L 740.9 18.6 C 740.9 18.6 741.28 18.56 741.3 18.6 C 741.9 16.3 743.1 14.6 744.6 13.4 C 746.2 12.2 748 11.7 750.1 11.7 C 750.6 11.7 751.1 11.7 751.7 11.8 C 752.3 11.8 752.8 11.9 753.3 12 C 753.3 12 753.3 21 753.3 21 C 752.8 20.9 752.1 20.7 751.3 20.6 C 750.4 20.5 749.7 20.5 749 20.5 C 747.5 20.5 746.1 20.8 745 21.4 C 743.8 22.1 742.9 23 742.2 24.1 C 741.5 25.2 741.2 26.6 741.2 28.1 C 741.21 28.05 741.2 48.7 741.2 48.7 L 731.1 48.7 Z M 773.9 49.4 C 770.1 49.4 766.9 48.7 764.2 47.1 C 761.5 45.6 759.4 43.4 758 40.6 C 756.5 37.8 755.8 34.5 755.8 30.6 C 755.8 26.9 756.5 23.6 758 20.7 C 759.4 17.9 761.5 15.7 764.1 14.1 C 766.8 12.5 769.9 11.7 773.5 11.7 C 775.9 11.7 778.2 12.1 780.2 12.9 C 782.3 13.6 784.1 14.8 785.7 16.3 C 787.3 17.9 788.5 19.8 789.4 22.1 C 790.2 24.4 790.7 27.2 790.7 30.3 C 790.67 30.26 790.7 33 790.7 33 L 759.8 33 L 759.8 26.8 C 759.8 26.8 781.13 26.77 781.1 26.8 C 781.1 25.3 780.8 24 780.2 22.9 C 779.5 21.8 778.7 20.9 777.5 20.2 C 776.4 19.6 775.1 19.3 773.7 19.3 C 772.1 19.3 770.8 19.6 769.6 20.3 C 768.4 21 767.5 22 766.8 23.2 C 766.1 24.3 765.8 25.7 765.8 27.1 C 765.8 27.1 765.8 33.1 765.8 33.1 C 765.8 34.9 766.1 36.4 766.8 37.8 C 767.5 39.1 768.4 40.1 769.7 40.8 C 770.9 41.5 772.4 41.9 774.1 41.9 C 775.2 41.9 776.2 41.7 777.2 41.4 C 778.1 41.1 778.9 40.6 779.6 40 C 780.2 39.3 780.7 38.6 781.1 37.6 C 781.1 37.6 790.5 38.3 790.5 38.3 C 790 40.5 789 42.5 787.5 44.1 C 786.1 45.8 784.2 47.1 781.9 48 C 779.6 49 776.9 49.4 773.9 49.4 Z M 812.9 49.4 C 809.1 49.4 805.9 48.6 803.2 47 C 800.5 45.5 798.5 43.2 797 40.4 C 795.6 37.6 794.9 34.3 794.9 30.6 C 794.9 26.9 795.6 23.6 797.1 20.7 C 798.5 17.9 800.6 15.7 803.3 14.1 C 805.9 12.5 809.1 11.7 812.8 11.7 C 816 11.7 818.8 12.3 821.2 13.4 C 823.6 14.6 825.5 16.2 826.9 18.3 C 828.3 20.4 829 22.9 829.2 25.7 C 829.2 25.7 819.6 25.7 819.6 25.7 C 819.4 23.9 818.6 22.4 817.5 21.3 C 816.3 20.2 814.8 19.6 813 19.6 C 811.4 19.6 810 20 808.9 20.9 C 807.7 21.7 806.8 23 806.2 24.6 C 805.5 26.2 805.2 28.2 805.2 30.5 C 805.2 32.8 805.5 34.8 806.1 36.4 C 806.8 38 807.7 39.3 808.9 40.1 C 810 41 811.4 41.4 813 41.4 C 814.1 41.4 815.2 41.2 816.1 40.7 C 817 40.2 817.8 39.5 818.4 38.6 C 819 37.7 819.4 36.6 819.6 35.3 C 819.6 35.3 829.2 35.3 829.2 35.3 C 829 38.1 828.3 40.6 826.9 42.7 C 825.6 44.8 823.7 46.5 821.3 47.7 C 818.9 48.8 816.1 49.4 812.9 49.4 Z M 834.8 48.7 L 834.8 12.2 L 845 12.2 L 845 48.7 L 834.8 48.7 Z M 839.9 7.5 C 838.4 7.5 837.1 7 836.1 6 C 835 5 834.5 3.8 834.5 2.4 C 834.5 0.9 835 -0.3 836.1 -1.3 C 837.2 -2.3 838.4 -2.8 839.9 -2.8 C 841.4 -2.8 842.7 -2.3 843.8 -1.3 C 844.9 -0.3 845.4 0.9 845.4 2.3 C 845.4 3.7 844.9 5 843.8 6 C 842.7 7 841.4 7.5 839.9 7.5 Z M 882.5 22.6 C 882.5 22.6 873.2 23.2 873.2 23.2 C 873.1 22.4 872.7 21.7 872.2 21 C 871.7 20.4 871 19.9 870.2 19.5 C 869.3 19.1 868.3 18.9 867.1 18.9 C 865.6 18.9 864.2 19.2 863.2 19.9 C 862.1 20.5 861.5 21.4 861.5 22.5 C 861.5 23.4 861.9 24.1 862.6 24.7 C 863.3 25.3 864.5 25.8 866.2 26.2 C 866.2 26.2 872.8 27.5 872.8 27.5 C 876.3 28.2 879 29.4 880.7 31 C 882.5 32.6 883.4 34.8 883.4 37.4 C 883.4 39.8 882.7 41.9 881.3 43.7 C 879.9 45.5 877.9 46.9 875.5 47.9 C 873.1 48.9 870.3 49.4 867.1 49.4 C 862.2 49.4 858.4 48.4 855.5 46.4 C 852.7 44.4 851 41.6 850.5 38.1 C 850.5 38.1 860.5 37.6 860.5 37.6 C 860.8 39.1 861.5 40.2 862.7 41 C 863.8 41.8 865.3 42.1 867.1 42.1 C 868.9 42.1 870.3 41.8 871.4 41.1 C 872.5 40.4 873 39.5 873.1 38.4 C 873 37.5 872.7 36.7 871.9 36.2 C 871.1 35.6 870 35.1 868.4 34.8 C 868.4 34.8 862 33.5 862 33.5 C 858.5 32.8 855.8 31.6 854.1 29.8 C 852.3 28.1 851.5 25.8 851.5 23.1 C 851.5 20.7 852.1 18.7 853.4 17 C 854.7 15.3 856.5 14 858.8 13.1 C 861.1 12.2 863.8 11.7 867 11.7 C 871.6 11.7 875.2 12.7 877.9 14.6 C 880.5 16.6 882.1 19.2 882.5 22.6 Z M 889 48.7 L 889 12.2 L 899.1 12.2 L 899.1 48.7 L 889 48.7 Z M 894 7.5 C 892.5 7.5 891.3 7 890.2 6 C 889.1 5 888.6 3.8 888.6 2.4 C 888.6 0.9 889.1 -0.3 890.2 -1.3 C 891.3 -2.3 892.6 -2.8 894 -2.8 C 895.6 -2.8 896.8 -2.3 897.9 -1.3 C 899 -0.3 899.5 0.9 899.5 2.3 C 899.5 3.7 899 5 897.9 6 C 896.8 7 895.6 7.5 894 7.5 Z M 922.8 49.4 C 919.1 49.4 915.9 48.7 913.2 47.1 C 910.5 45.5 908.5 43.3 907 40.5 C 905.6 37.6 904.8 34.3 904.8 30.6 C 904.8 26.8 905.6 23.5 907 20.7 C 908.5 17.9 910.5 15.7 913.2 14.1 C 915.9 12.5 919.1 11.7 922.8 11.7 C 926.5 11.7 929.7 12.5 932.4 14.1 C 935.1 15.7 937.1 17.9 938.6 20.7 C 940.1 23.5 940.8 26.8 940.8 30.6 C 940.8 34.3 940.1 37.6 938.6 40.5 C 937.1 43.3 935.1 45.5 932.4 47.1 C 929.7 48.7 926.5 49.4 922.8 49.4 Z M 922.9 41.6 C 924.5 41.6 925.9 41.1 927.1 40.2 C 928.2 39.2 929 37.9 929.6 36.2 C 930.2 34.5 930.5 32.7 930.5 30.5 C 930.5 28.4 930.2 26.5 929.6 24.8 C 929 23.2 928.2 21.9 927.1 20.9 C 925.9 19.9 924.5 19.4 922.9 19.4 C 921.2 19.4 919.7 19.9 918.6 20.9 C 917.4 21.9 916.6 23.2 916 24.8 C 915.4 26.5 915.1 28.4 915.1 30.5 C 915.1 32.7 915.4 34.5 916 36.2 C 916.6 37.9 917.4 39.2 918.6 40.2 C 919.7 41.1 921.2 41.6 922.9 41.6 Z M 956.7 27.6 C 956.69 27.6 956.7 48.7 956.7 48.7 L 946.6 48.7 L 946.6 12.2 L 956.2 12.2 L 956.2 18.6 C 956.2 18.6 956.64 18.63 956.6 18.6 C 957.4 16.5 958.8 14.8 960.7 13.6 C 962.6 12.3 964.9 11.7 967.6 11.7 C 970.2 11.7 972.4 12.3 974.3 13.4 C 976.2 14.5 977.6 16.1 978.7 18.1 C 979.7 20.2 980.2 22.6 980.2 25.5 C 980.24 25.46 980.2 48.7 980.2 48.7 L 970.1 48.7 C 970.1 48.7 970.11 27.27 970.1 27.3 C 970.1 25 969.6 23.3 968.4 22 C 967.2 20.8 965.6 20.1 963.6 20.1 C 962.2 20.1 961 20.4 960 21 C 959 21.6 958.2 22.4 957.6 23.6 C 957 24.7 956.7 26 956.7 27.6 Z M 1014.2 49.4 C 1011.8 49.4 1009.8 49 1007.9 48.2 C 1006.1 47.4 1004.7 46.2 1003.6 44.6 C 1002.6 42.9 1002 40.9 1002 38.5 C 1002 36.5 1002.4 34.8 1003.2 33.4 C 1003.9 32 1004.9 30.9 1006.2 30.1 C 1007.5 29.2 1008.9 28.6 1010.6 28.2 C 1012.2 27.7 1014 27.4 1015.8 27.3 C 1017.9 27 1019.6 26.8 1020.9 26.6 C 1022.2 26.4 1023.1 26.1 1023.7 25.7 C 1024.3 25.3 1024.6 24.8 1024.6 24 C 1024.6 24 1024.6 23.8 1024.6 23.8 C 1024.6 22.3 1024.1 21.2 1023.2 20.3 C 1022.3 19.5 1020.9 19.1 1019.2 19.1 C 1017.4 19.1 1015.9 19.5 1014.8 20.3 C 1013.8 21.1 1013 22.1 1012.7 23.3 C 1012.7 23.3 1003.3 22.6 1003.3 22.6 C 1003.8 20.3 1004.7 18.4 1006.1 16.8 C 1007.5 15.2 1009.3 13.9 1011.5 13 C 1013.8 12.1 1016.3 11.7 1019.2 11.7 C 1021.3 11.7 1023.2 11.9 1025.1 12.4 C 1026.9 12.9 1028.6 13.6 1030.1 14.6 C 1031.5 15.6 1032.6 16.9 1033.5 18.5 C 1034.3 20 1034.8 21.9 1034.8 24.1 C 1034.75 24.08 1034.8 48.7 1034.8 48.7 L 1025.1 48.7 L 1025.1 43.7 C 1025.1 43.7 1024.85 43.66 1024.9 43.7 C 1024.3 44.8 1023.5 45.8 1022.5 46.7 C 1021.5 47.5 1020.3 48.2 1019 48.7 C 1017.6 49.2 1016 49.4 1014.2 49.4 Z M 1017.1 42.4 C 1018.6 42.4 1019.9 42.1 1021 41.5 C 1022.2 40.9 1023.1 40.1 1023.7 39.1 C 1024.4 38.1 1024.7 36.9 1024.7 35.7 C 1024.7 35.7 1024.7 31.8 1024.7 31.8 C 1024.4 32 1023.9 32.2 1023.4 32.3 C 1022.8 32.5 1022.2 32.7 1021.5 32.8 C 1020.9 32.9 1020.2 33.1 1019.5 33.2 C 1018.8 33.3 1018.2 33.3 1017.6 33.4 C 1016.5 33.6 1015.4 33.9 1014.5 34.3 C 1013.6 34.6 1012.9 35.2 1012.5 35.8 C 1012 36.4 1011.7 37.2 1011.7 38.2 C 1011.7 39.6 1012.2 40.6 1013.2 41.3 C 1014.2 42.1 1015.5 42.4 1017.1 42.4 Z M 1052.2 27.6 C 1052.22 27.6 1052.2 48.7 1052.2 48.7 L 1042.1 48.7 L 1042.1 12.2 L 1051.7 12.2 L 1051.7 18.6 C 1051.7 18.6 1052.17 18.63 1052.2 18.6 C 1053 16.5 1054.3 14.8 1056.2 13.6 C 1058.1 12.3 1060.5 11.7 1063.2 11.7 C 1065.7 11.7 1067.9 12.3 1069.8 13.4 C 1071.7 14.5 1073.2 16.1 1074.2 18.1 C 1075.2 20.2 1075.8 22.6 1075.8 25.5 C 1075.77 25.46 1075.8 48.7 1075.8 48.7 L 1065.6 48.7 C 1065.6 48.7 1065.64 27.27 1065.6 27.3 C 1065.7 25 1065.1 23.3 1063.9 22 C 1062.8 20.8 1061.2 20.1 1059.1 20.1 C 1057.8 20.1 1056.6 20.4 1055.5 21 C 1054.5 21.6 1053.7 22.4 1053.1 23.6 C 1052.5 24.7 1052.2 26 1052.2 27.6 Z M 1096.3 49.3 C 1093.6 49.3 1091.1 48.6 1088.8 47.2 C 1086.6 45.7 1084.8 43.6 1083.5 40.8 C 1082.2 38 1081.5 34.6 1081.5 30.5 C 1081.5 26.3 1082.2 22.8 1083.5 20 C 1084.9 17.3 1086.7 15.2 1088.9 13.8 C 1091.2 12.4 1093.6 11.7 1096.3 11.7 C 1098.4 11.7 1100.1 12.1 1101.4 12.7 C 1102.8 13.4 1103.9 14.3 1104.8 15.3 C 1105.6 16.3 1106.3 17.3 1106.7 18.3 C 1106.72 18.32 1107 18.3 1107 18.3 L 1107 0 L 1117.1 0 L 1117.1 48.7 L 1107.1 48.7 L 1107.1 42.9 C 1107.1 42.9 1106.72 42.87 1106.7 42.9 C 1106.2 43.9 1105.6 44.9 1104.7 45.9 C 1103.8 46.9 1102.7 47.7 1101.4 48.3 C 1100 49 1098.3 49.3 1096.3 49.3 Z M 1099.6 41.3 C 1101.2 41.3 1102.6 40.8 1103.7 39.9 C 1104.8 39 1105.7 37.8 1106.3 36.1 C 1106.9 34.5 1107.2 32.6 1107.2 30.5 C 1107.2 28.3 1106.9 26.4 1106.3 24.8 C 1105.7 23.2 1104.9 22 1103.7 21.1 C 1102.6 20.2 1101.2 19.8 1099.6 19.8 C 1097.9 19.8 1096.5 20.2 1095.3 21.1 C 1094.2 22 1093.3 23.3 1092.8 24.9 C 1092.2 26.5 1091.9 28.3 1091.9 30.5 C 1091.9 32.6 1092.2 34.5 1092.8 36.1 C 1093.4 37.7 1094.2 39 1095.4 39.9 C 1096.5 40.8 1097.9 41.3 1099.6 41.3 Z " stroke="none" fill="#ffffff"/>  </g></svg>