<?xml version="1.0" standalone="no"?><!DOCTYPE svg PUBLIC "-//W3C//DTD SVG 1.1//EN" "http://www.w3.org/Graphics/SVG/1.1/DTD/svg11.dtd"><svg xmlns="http://www.w3.org/2000/svg" version="1.1" width="606px" height="184px" viewBox="0 -17 606 184" style="top:-17px">  <desc>Unclear application ￼ There’s a lack of clarity — what AI for what problem? More about this ￼</desc>  <defs/>  <g id="Polygon113634">    <path d="M 1.6 133.1 L 6.3 133.1 L 11.3 145.3 L 11.5 145.3 L 16.5 133.1 L 21.3 133.1 L 21.3 151.3 L 17.6 151.3 L 17.6 139.4 L 17.4 139.4 L 12.7 151.2 L 10.2 151.2 L 5.5 139.4 L 5.3 139.4 L 5.3 151.3 L 1.6 151.3 L 1.6 133.1 Z M 30.5 151.5 C 29.1 151.5 27.9 151.2 26.9 150.7 C 25.9 150.1 25.1 149.2 24.6 148.2 C 24.1 147.1 23.8 145.9 23.8 144.5 C 23.8 143.1 24.1 141.9 24.6 140.8 C 25.1 139.8 25.9 138.9 26.9 138.3 C 27.9 137.8 29.1 137.5 30.5 137.5 C 31.9 137.5 33.1 137.8 34.1 138.3 C 35.1 138.9 35.8 139.8 36.4 140.8 C 36.9 141.9 37.2 143.1 37.2 144.5 C 37.2 145.9 36.9 147.1 36.4 148.2 C 35.8 149.2 35.1 150.1 34.1 150.7 C 33.1 151.2 31.9 151.5 30.5 151.5 Z M 30.5 148.6 C 31.1 148.6 31.7 148.4 32.1 148.1 C 32.5 147.7 32.8 147.2 33 146.6 C 33.3 146 33.4 145.3 33.4 144.5 C 33.4 143.7 33.3 143 33 142.4 C 32.8 141.7 32.5 141.2 32.1 140.9 C 31.7 140.5 31.1 140.3 30.5 140.3 C 29.9 140.3 29.4 140.5 28.9 140.9 C 28.5 141.2 28.2 141.7 28 142.4 C 27.7 143 27.6 143.7 27.6 144.5 C 27.6 145.3 27.7 146 28 146.6 C 28.2 147.2 28.5 147.7 28.9 148.1 C 29.4 148.4 29.9 148.6 30.5 148.6 Z M 39.6 151.3 L 39.6 137.6 L 43.3 137.6 L 43.3 140 C 43.3 140 43.4 140.02 43.4 140 C 43.6 139.2 44.1 138.5 44.6 138.1 C 45.2 137.7 45.9 137.4 46.7 137.4 C 46.9 137.4 47.1 137.5 47.3 137.5 C 47.5 137.5 47.7 137.5 47.9 137.6 C 47.9 137.6 47.9 140.9 47.9 140.9 C 47.7 140.9 47.4 140.8 47.1 140.8 C 46.8 140.7 46.5 140.7 46.3 140.7 C 45.7 140.7 45.2 140.8 44.8 141.1 C 44.3 141.3 44 141.7 43.7 142.1 C 43.5 142.5 43.4 143 43.4 143.6 C 43.37 143.56 43.4 151.3 43.4 151.3 L 39.6 151.3 Z M 55.6 151.5 C 54.2 151.5 53 151.3 52 150.7 C 51 150.1 50.2 149.3 49.7 148.2 C 49.1 147.2 48.9 146 48.9 144.5 C 48.9 143.1 49.1 141.9 49.7 140.8 C 50.2 139.8 51 138.9 52 138.3 C 53 137.8 54.2 137.5 55.5 137.5 C 56.4 137.5 57.2 137.6 58 137.9 C 58.8 138.2 59.5 138.6 60 139.2 C 60.6 139.8 61.1 140.5 61.4 141.3 C 61.7 142.2 61.9 143.2 61.9 144.4 C 61.9 144.38 61.9 145.4 61.9 145.4 L 50.4 145.4 L 50.4 143.1 C 50.4 143.1 58.34 143.08 58.3 143.1 C 58.3 142.5 58.2 142.1 58 141.6 C 57.7 141.2 57.4 140.9 57 140.6 C 56.6 140.4 56.1 140.3 55.6 140.3 C 55 140.3 54.5 140.4 54 140.7 C 53.6 140.9 53.2 141.3 53 141.7 C 52.7 142.2 52.6 142.7 52.6 143.2 C 52.6 143.2 52.6 145.4 52.6 145.4 C 52.6 146.1 52.7 146.7 53 147.2 C 53.2 147.7 53.6 148.1 54.1 148.3 C 54.5 148.6 55.1 148.7 55.7 148.7 C 56.1 148.7 56.5 148.7 56.9 148.5 C 57.2 148.4 57.5 148.2 57.8 148 C 58 147.8 58.2 147.5 58.3 147.1 C 58.3 147.1 61.8 147.4 61.8 147.4 C 61.6 148.2 61.3 148.9 60.7 149.6 C 60.2 150.2 59.5 150.7 58.6 151 C 57.8 151.4 56.8 151.5 55.6 151.5 Z M 74.1 151.5 C 73.2 151.5 72.4 151.4 71.7 151.1 C 71 150.8 70.5 150.3 70.1 149.7 C 69.7 149.1 69.5 148.4 69.5 147.5 C 69.5 146.7 69.7 146.1 69.9 145.6 C 70.2 145 70.6 144.6 71.1 144.3 C 71.6 144 72.1 143.8 72.7 143.6 C 73.3 143.4 74 143.3 74.6 143.3 C 75.4 143.2 76.1 143.1 76.6 143 C 77.1 143 77.4 142.8 77.6 142.7 C 77.8 142.5 78 142.3 78 142 C 78 142 78 142 78 142 C 78 141.4 77.8 141 77.4 140.7 C 77.1 140.4 76.6 140.2 75.9 140.2 C 75.2 140.2 74.7 140.4 74.3 140.7 C 73.9 141 73.6 141.3 73.5 141.8 C 73.5 141.8 70 141.5 70 141.5 C 70.2 140.7 70.5 140 71.1 139.4 C 71.6 138.7 72.2 138.3 73.1 138 C 73.9 137.6 74.9 137.5 75.9 137.5 C 76.7 137.5 77.4 137.5 78.1 137.7 C 78.8 137.9 79.4 138.2 80 138.6 C 80.5 138.9 80.9 139.4 81.3 140 C 81.6 140.6 81.7 141.3 81.7 142.1 C 81.73 142.08 81.7 151.3 81.7 151.3 L 78.1 151.3 L 78.1 149.4 C 78.1 149.4 78.04 149.38 78 149.4 C 77.8 149.8 77.5 150.2 77.2 150.5 C 76.8 150.8 76.4 151.1 75.8 151.3 C 75.3 151.4 74.7 151.5 74.1 151.5 Z M 75.1 148.9 C 75.7 148.9 76.2 148.8 76.6 148.6 C 77 148.4 77.4 148.1 77.6 147.7 C 77.9 147.3 78 146.9 78 146.4 C 78 146.4 78 145 78 145 C 77.9 145 77.7 145.1 77.5 145.2 C 77.3 145.2 77.1 145.3 76.8 145.3 C 76.6 145.4 76.3 145.4 76 145.5 C 75.8 145.5 75.6 145.5 75.4 145.6 C 74.9 145.6 74.5 145.7 74.2 145.9 C 73.9 146 73.6 146.2 73.4 146.4 C 73.2 146.7 73.1 147 73.1 147.3 C 73.1 147.9 73.3 148.2 73.7 148.5 C 74.1 148.8 74.6 148.9 75.1 148.9 Z M 84.5 151.3 L 84.5 133.1 L 88.3 133.1 L 88.3 139.9 C 88.3 139.9 88.38 139.93 88.4 139.9 C 88.5 139.6 88.8 139.2 89.1 138.8 C 89.4 138.4 89.8 138.1 90.3 137.8 C 90.9 137.6 91.5 137.5 92.3 137.5 C 93.3 137.5 94.2 137.7 95 138.2 C 95.9 138.8 96.5 139.5 97 140.6 C 97.5 141.6 97.8 142.9 97.8 144.5 C 97.8 146 97.5 147.3 97 148.3 C 96.6 149.4 95.9 150.2 95.1 150.7 C 94.2 151.2 93.3 151.5 92.3 151.5 C 91.5 151.5 90.9 151.4 90.4 151.1 C 89.9 150.9 89.5 150.6 89.1 150.2 C 88.8 149.8 88.6 149.5 88.4 149.1 C 88.38 149.09 88.2 149.1 88.2 149.1 L 88.2 151.3 L 84.5 151.3 Z M 88.2 144.5 C 88.2 145.3 88.3 146 88.5 146.6 C 88.7 147.2 89.1 147.6 89.5 148 C 89.9 148.3 90.4 148.5 91.1 148.5 C 91.7 148.5 92.2 148.3 92.6 148 C 93 147.6 93.4 147.2 93.6 146.6 C 93.8 145.9 93.9 145.2 93.9 144.5 C 93.9 143.7 93.8 143 93.6 142.4 C 93.4 141.8 93.1 141.3 92.6 141 C 92.2 140.6 91.7 140.5 91.1 140.5 C 90.4 140.5 89.9 140.6 89.5 141 C 89.1 141.3 88.7 141.7 88.5 142.3 C 88.3 142.9 88.2 143.6 88.2 144.5 Z M 106.3 151.5 C 105 151.5 103.8 151.2 102.8 150.7 C 101.8 150.1 101 149.2 100.4 148.2 C 99.9 147.1 99.6 145.9 99.6 144.5 C 99.6 143.1 99.9 141.9 100.4 140.8 C 101 139.8 101.8 138.9 102.8 138.3 C 103.8 137.8 105 137.5 106.3 137.5 C 107.7 137.5 108.9 137.8 109.9 138.3 C 110.9 138.9 111.7 139.8 112.2 140.8 C 112.8 141.9 113 143.1 113 144.5 C 113 145.9 112.8 147.1 112.2 148.2 C 111.7 149.2 110.9 150.1 109.9 150.7 C 108.9 151.2 107.7 151.5 106.3 151.5 Z M 106.4 148.6 C 107 148.6 107.5 148.4 107.9 148.1 C 108.3 147.7 108.7 147.2 108.9 146.6 C 109.1 146 109.2 145.3 109.2 144.5 C 109.2 143.7 109.1 143 108.9 142.4 C 108.7 141.7 108.3 141.2 107.9 140.9 C 107.5 140.5 107 140.3 106.4 140.3 C 105.7 140.3 105.2 140.5 104.8 140.9 C 104.3 141.2 104 141.7 103.8 142.4 C 103.6 143 103.5 143.7 103.5 144.5 C 103.5 145.3 103.6 146 103.8 146.6 C 104 147.2 104.3 147.7 104.8 148.1 C 105.2 148.4 105.7 148.6 106.4 148.6 Z M 124.1 145.5 C 124.08 145.47 124.1 137.6 124.1 137.6 L 127.9 137.6 L 127.9 151.3 L 124.2 151.3 L 124.2 148.8 C 124.2 148.8 124.09 148.8 124.1 148.8 C 123.8 149.6 123.3 150.2 122.6 150.7 C 121.8 151.2 121 151.5 120 151.5 C 119 151.5 118.2 151.2 117.6 150.8 C 116.9 150.4 116.3 149.8 115.9 149.1 C 115.5 148.3 115.3 147.4 115.3 146.3 C 115.34 146.32 115.3 137.6 115.3 137.6 L 119.1 137.6 C 119.1 137.6 119.12 145.64 119.1 145.6 C 119.1 146.4 119.3 147.1 119.8 147.6 C 120.2 148 120.8 148.3 121.5 148.3 C 121.9 148.3 122.4 148.1 122.8 147.9 C 123.2 147.7 123.5 147.4 123.7 147 C 124 146.6 124.1 146.1 124.1 145.5 Z M 138 137.6 L 138 140.5 L 129.7 140.5 L 129.7 137.6 L 138 137.6 Z M 131.6 134.4 L 135.4 134.4 C 135.4 134.4 135.38 147.08 135.4 147.1 C 135.4 147.4 135.4 147.7 135.5 147.9 C 135.7 148.1 135.8 148.2 136 148.3 C 136.2 148.4 136.4 148.4 136.7 148.4 C 136.8 148.4 137 148.4 137.2 148.4 C 137.4 148.3 137.5 148.3 137.6 148.3 C 137.6 148.3 138.2 151.1 138.2 151.1 C 138 151.2 137.7 151.2 137.4 151.3 C 137.1 151.4 136.6 151.4 136.1 151.5 C 135.2 151.5 134.4 151.4 133.8 151.1 C 133.1 150.8 132.5 150.4 132.2 149.8 C 131.8 149.2 131.6 148.5 131.6 147.6 C 131.6 147.58 131.6 134.4 131.6 134.4 Z M 153.5 137.6 L 153.5 140.5 L 145.2 140.5 L 145.2 137.6 L 153.5 137.6 Z M 147.1 134.4 L 150.9 134.4 C 150.9 134.4 150.89 147.08 150.9 147.1 C 150.9 147.4 150.9 147.7 151.1 147.9 C 151.2 148.1 151.3 148.2 151.5 148.3 C 151.7 148.4 151.9 148.4 152.2 148.4 C 152.4 148.4 152.5 148.4 152.7 148.4 C 152.9 148.3 153 148.3 153.1 148.3 C 153.1 148.3 153.7 151.1 153.7 151.1 C 153.5 151.2 153.3 151.2 152.9 151.3 C 152.6 151.4 152.1 151.4 151.7 151.5 C 150.7 151.5 149.9 151.4 149.3 151.1 C 148.6 150.8 148.1 150.4 147.7 149.8 C 147.3 149.2 147.1 148.5 147.1 147.6 C 147.11 147.58 147.1 134.4 147.1 134.4 Z M 159.4 143.4 C 159.4 143.39 159.4 151.3 159.4 151.3 L 155.6 151.3 L 155.6 133.1 L 159.3 133.1 L 159.3 140 C 159.3 140 159.46 140.04 159.5 140 C 159.8 139.2 160.3 138.6 160.9 138.1 C 161.6 137.7 162.5 137.5 163.5 137.5 C 164.5 137.5 165.3 137.7 166 138.1 C 166.7 138.5 167.3 139.1 167.7 139.8 C 168.1 140.6 168.3 141.5 168.2 142.6 C 168.25 142.59 168.2 151.3 168.2 151.3 L 164.5 151.3 C 164.5 151.3 164.46 143.26 164.5 143.3 C 164.5 142.4 164.3 141.8 163.8 141.3 C 163.4 140.8 162.8 140.6 162 140.6 C 161.5 140.6 161.1 140.7 160.7 140.9 C 160.3 141.1 160 141.5 159.7 141.9 C 159.5 142.3 159.4 142.8 159.4 143.4 Z M 171.1 151.3 L 171.1 137.6 L 174.9 137.6 L 174.9 151.3 L 171.1 151.3 Z M 173 135.9 C 172.4 135.9 171.9 135.7 171.5 135.3 C 171.1 134.9 170.9 134.5 170.9 134 C 170.9 133.4 171.1 133 171.5 132.6 C 171.9 132.2 172.4 132.1 173 132.1 C 173.5 132.1 174 132.2 174.4 132.6 C 174.8 133 175 133.4 175 134 C 175 134.5 174.8 134.9 174.4 135.3 C 174 135.7 173.5 135.9 173 135.9 Z M 189 141.5 C 189 141.5 185.5 141.7 185.5 141.7 C 185.5 141.4 185.3 141.2 185.1 140.9 C 184.9 140.7 184.7 140.5 184.4 140.4 C 184.1 140.2 183.7 140.1 183.2 140.1 C 182.7 140.1 182.2 140.3 181.8 140.5 C 181.4 140.8 181.2 141.1 181.2 141.5 C 181.2 141.8 181.3 142.1 181.5 142.3 C 181.8 142.5 182.3 142.7 182.9 142.9 C 182.9 142.9 185.4 143.4 185.4 143.4 C 186.7 143.6 187.7 144.1 188.3 144.7 C 189 145.3 189.3 146.1 189.3 147 C 189.3 147.9 189 148.7 188.5 149.4 C 188 150.1 187.3 150.6 186.4 151 C 185.5 151.4 184.4 151.5 183.2 151.5 C 181.4 151.5 180 151.2 178.9 150.4 C 177.8 149.7 177.2 148.6 177 147.3 C 177 147.3 180.8 147.1 180.8 147.1 C 180.9 147.7 181.1 148.1 181.6 148.4 C 182 148.7 182.6 148.8 183.2 148.8 C 183.9 148.8 184.4 148.7 184.8 148.4 C 185.2 148.2 185.5 147.8 185.5 147.4 C 185.5 147.1 185.3 146.8 185 146.6 C 184.7 146.4 184.3 146.2 183.7 146.1 C 183.7 146.1 181.3 145.6 181.3 145.6 C 180 145.3 179 144.9 178.4 144.2 C 177.7 143.6 177.4 142.7 177.4 141.7 C 177.4 140.8 177.6 140.1 178.1 139.4 C 178.6 138.8 179.3 138.3 180.1 138 C 181 137.6 182 137.5 183.2 137.5 C 184.9 137.5 186.3 137.8 187.3 138.6 C 188.2 139.3 188.8 140.3 189 141.5 Z " stroke="none" fill="#10283d"/>  </g>  <g id="Polygon113633">    <path d="M 8 91.6 L 8 93.4 L 0.6 93.4 L 0.6 91.6 L 8 91.6 Z M 2.8 105.3 C 2.8 105.3 2.84 89.75 2.8 89.8 C 2.8 89 3 88.3 3.4 87.8 C 3.8 87.3 4.2 86.9 4.8 86.6 C 5.4 86.4 6 86.2 6.7 86.2 C 7.2 86.2 7.6 86.3 7.9 86.4 C 8.3 86.4 8.5 86.5 8.7 86.6 C 8.7 86.6 8.1 88.4 8.1 88.4 C 8 88.4 7.8 88.3 7.6 88.3 C 7.4 88.2 7.2 88.2 6.9 88.2 C 6.2 88.2 5.7 88.4 5.4 88.7 C 5.1 89.1 4.9 89.6 4.9 90.3 C 4.94 90.25 4.9 105.3 4.9 105.3 L 2.8 105.3 Z M 15.8 105.6 C 14.5 105.6 13.5 105.3 12.5 104.7 C 11.6 104.1 10.9 103.3 10.4 102.2 C 9.8 101.2 9.6 99.9 9.6 98.5 C 9.6 97.1 9.8 95.9 10.4 94.8 C 10.9 93.7 11.6 92.9 12.5 92.3 C 13.5 91.8 14.5 91.5 15.8 91.5 C 17 91.5 18.1 91.8 19 92.3 C 19.9 92.9 20.7 93.7 21.2 94.8 C 21.7 95.9 21.9 97.1 21.9 98.5 C 21.9 99.9 21.7 101.2 21.2 102.2 C 20.7 103.3 19.9 104.1 19 104.7 C 18.1 105.3 17 105.6 15.8 105.6 Z M 15.8 103.7 C 16.7 103.7 17.5 103.4 18.1 103 C 18.7 102.5 19.1 101.8 19.4 101.1 C 19.7 100.3 19.9 99.4 19.9 98.5 C 19.9 97.6 19.7 96.8 19.4 96 C 19.1 95.2 18.7 94.6 18.1 94.1 C 17.5 93.6 16.7 93.3 15.8 93.3 C 14.8 93.3 14.1 93.6 13.5 94.1 C 12.9 94.6 12.4 95.2 12.1 96 C 11.8 96.8 11.7 97.6 11.7 98.5 C 11.7 99.4 11.8 100.3 12.1 101.1 C 12.4 101.8 12.9 102.5 13.5 103 C 14.1 103.4 14.8 103.7 15.8 103.7 Z M 25.1 105.3 L 25.1 91.6 L 27.1 91.6 L 27.1 93.7 C 27.1 93.7 27.22 93.7 27.2 93.7 C 27.5 93 27.9 92.5 28.6 92.1 C 29.2 91.6 30 91.4 30.8 91.4 C 30.9 91.4 31.1 91.4 31.3 91.4 C 31.6 91.4 31.8 91.4 31.9 91.5 C 31.9 91.5 31.9 93.6 31.9 93.6 C 31.8 93.6 31.6 93.5 31.4 93.5 C 31.1 93.5 30.9 93.4 30.6 93.4 C 29.9 93.4 29.3 93.6 28.8 93.9 C 28.3 94.1 27.9 94.5 27.6 95 C 27.3 95.5 27.1 96 27.1 96.6 C 27.15 96.64 27.1 105.3 27.1 105.3 L 25.1 105.3 Z M 44.5 105.3 L 40.3 91.6 L 42.5 91.6 L 45.5 102.1 L 45.6 102.1 L 48.5 91.6 L 50.8 91.6 L 53.6 102 L 53.8 102 L 56.7 91.6 L 58.9 91.6 L 54.8 105.3 L 52.7 105.3 L 49.7 94.8 L 49.5 94.8 L 46.5 105.3 L 44.5 105.3 Z M 63.6 97.1 C 63.58 97.07 63.6 105.3 63.6 105.3 L 61.5 105.3 L 61.5 87.1 L 63.6 87.1 L 63.6 93.8 C 63.6 93.8 63.75 93.77 63.8 93.8 C 64.1 93.1 64.6 92.5 65.2 92.1 C 65.8 91.7 66.7 91.5 67.8 91.5 C 68.7 91.5 69.5 91.6 70.2 92 C 70.9 92.4 71.5 92.9 71.8 93.7 C 72.2 94.5 72.4 95.4 72.4 96.6 C 72.42 96.61 72.4 105.3 72.4 105.3 L 70.3 105.3 C 70.3 105.3 70.32 96.75 70.3 96.8 C 70.3 95.7 70 94.8 69.5 94.2 C 68.9 93.6 68.2 93.3 67.2 93.3 C 66.5 93.3 65.9 93.5 65.3 93.8 C 64.8 94.1 64.4 94.5 64 95 C 63.7 95.6 63.6 96.3 63.6 97.1 Z M 80 105.6 C 79.2 105.6 78.4 105.4 77.7 105.1 C 77 104.8 76.4 104.3 76 103.7 C 75.6 103 75.4 102.3 75.4 101.4 C 75.4 100.6 75.5 100 75.8 99.5 C 76.2 99 76.6 98.6 77.1 98.3 C 77.6 98.1 78.2 97.9 78.8 97.7 C 79.4 97.6 80 97.5 80.7 97.4 C 81.5 97.3 82.2 97.2 82.7 97.1 C 83.2 97.1 83.6 97 83.8 96.9 C 84.1 96.7 84.2 96.5 84.2 96.1 C 84.2 96.1 84.2 96.1 84.2 96.1 C 84.2 95.2 84 94.5 83.5 94 C 83 93.5 82.3 93.3 81.3 93.3 C 80.3 93.3 79.5 93.5 79 94 C 78.4 94.4 78 94.9 77.8 95.4 C 77.8 95.4 75.8 94.7 75.8 94.7 C 76.1 93.8 76.6 93.2 77.2 92.7 C 77.8 92.3 78.4 91.9 79.2 91.7 C 79.9 91.6 80.6 91.5 81.2 91.5 C 81.7 91.5 82.2 91.5 82.8 91.6 C 83.3 91.7 83.9 91.9 84.4 92.2 C 85 92.6 85.4 93.1 85.8 93.7 C 86.1 94.3 86.3 95.2 86.3 96.3 C 86.29 96.29 86.3 105.3 86.3 105.3 L 84.2 105.3 L 84.2 103.4 C 84.2 103.4 84.09 103.43 84.1 103.4 C 83.9 103.7 83.7 104 83.4 104.4 C 83 104.7 82.6 105 82.1 105.2 C 81.5 105.5 80.8 105.6 80 105.6 Z M 80.4 103.7 C 81.2 103.7 81.9 103.5 82.5 103.2 C 83 102.9 83.5 102.5 83.8 102 C 84 101.4 84.2 100.9 84.2 100.3 C 84.2 100.3 84.2 98.4 84.2 98.4 C 84.1 98.5 83.9 98.6 83.6 98.7 C 83.3 98.8 83 98.9 82.6 98.9 C 82.2 99 81.8 99 81.5 99.1 C 81.1 99.1 80.8 99.2 80.6 99.2 C 80 99.3 79.5 99.4 79 99.5 C 78.6 99.7 78.2 99.9 77.9 100.2 C 77.6 100.6 77.5 101 77.5 101.5 C 77.5 102.2 77.8 102.8 78.3 103.2 C 78.8 103.5 79.5 103.7 80.4 103.7 Z M 95.6 91.6 L 95.6 93.4 L 88.5 93.4 L 88.5 91.6 L 95.6 91.6 Z M 90.6 88.4 L 92.7 88.4 C 92.7 88.4 92.7 101.37 92.7 101.4 C 92.7 102 92.8 102.4 93 102.7 C 93.1 103 93.4 103.2 93.6 103.3 C 93.9 103.4 94.2 103.4 94.5 103.4 C 94.7 103.4 94.9 103.4 95.1 103.4 C 95.2 103.4 95.3 103.3 95.4 103.3 C 95.4 103.3 95.9 105.2 95.9 105.2 C 95.7 105.3 95.5 105.3 95.3 105.4 C 95 105.4 94.7 105.5 94.3 105.5 C 93.7 105.5 93.1 105.3 92.6 105.1 C 92 104.8 91.5 104.4 91.2 103.9 C 90.8 103.4 90.6 102.7 90.6 101.9 C 90.61 101.93 90.6 88.4 90.6 88.4 Z M 105.8 110.4 L 105.8 91.6 L 107.8 91.6 L 107.8 93.8 C 107.8 93.8 108.08 93.8 108.1 93.8 C 108.2 93.6 108.4 93.3 108.7 92.9 C 109 92.5 109.4 92.2 109.9 91.9 C 110.4 91.6 111.1 91.5 112 91.5 C 113.2 91.5 114.2 91.7 115.1 92.3 C 115.9 92.9 116.6 93.7 117.1 94.8 C 117.6 95.8 117.8 97.1 117.8 98.5 C 117.8 99.9 117.6 101.2 117.1 102.2 C 116.6 103.3 115.9 104.1 115.1 104.7 C 114.2 105.3 113.2 105.6 112.1 105.6 C 111.2 105.6 110.5 105.4 110 105.1 C 109.4 104.8 109 104.5 108.7 104.1 C 108.5 103.7 108.2 103.4 108.1 103.2 C 108.08 103.18 107.9 103.2 107.9 103.2 L 107.9 110.4 L 105.8 110.4 Z M 107.9 98.5 C 107.9 99.5 108 100.4 108.3 101.2 C 108.6 102 109.1 102.6 109.6 103 C 110.2 103.5 110.9 103.7 111.8 103.7 C 112.6 103.7 113.4 103.4 114 103 C 114.6 102.5 115 101.9 115.3 101.1 C 115.6 100.3 115.7 99.4 115.7 98.5 C 115.7 97.5 115.6 96.6 115.3 95.9 C 115 95.1 114.6 94.5 114 94 C 113.4 93.6 112.7 93.3 111.8 93.3 C 110.9 93.3 110.2 93.6 109.6 94 C 109 94.4 108.6 95 108.3 95.8 C 108 96.5 107.9 97.4 107.9 98.5 Z M 121 105.3 L 121 91.6 L 123 91.6 L 123 93.7 C 123 93.7 123.12 93.7 123.1 93.7 C 123.4 93 123.8 92.5 124.5 92.1 C 125.1 91.6 125.9 91.4 126.7 91.4 C 126.8 91.4 127 91.4 127.2 91.4 C 127.5 91.4 127.7 91.4 127.8 91.5 C 127.8 91.5 127.8 93.6 127.8 93.6 C 127.7 93.6 127.5 93.5 127.3 93.5 C 127 93.5 126.8 93.4 126.5 93.4 C 125.8 93.4 125.2 93.6 124.7 93.9 C 124.2 94.1 123.8 94.5 123.5 95 C 123.2 95.5 123 96 123 96.6 C 123.05 96.64 123 105.3 123 105.3 L 121 105.3 Z M 135.4 105.6 C 134.2 105.6 133.1 105.3 132.2 104.7 C 131.3 104.1 130.5 103.3 130 102.2 C 129.5 101.2 129.2 99.9 129.2 98.5 C 129.2 97.1 129.5 95.9 130 94.8 C 130.5 93.7 131.3 92.9 132.2 92.3 C 133.1 91.8 134.2 91.5 135.4 91.5 C 136.6 91.5 137.7 91.8 138.7 92.3 C 139.6 92.9 140.3 93.7 140.8 94.8 C 141.3 95.9 141.6 97.1 141.6 98.5 C 141.6 99.9 141.3 101.2 140.8 102.2 C 140.3 103.3 139.6 104.1 138.7 104.7 C 137.7 105.3 136.6 105.6 135.4 105.6 Z M 135.4 103.7 C 136.3 103.7 137.1 103.4 137.7 103 C 138.3 102.5 138.8 101.8 139.1 101.1 C 139.4 100.3 139.5 99.4 139.5 98.5 C 139.5 97.6 139.4 96.8 139.1 96 C 138.8 95.2 138.3 94.6 137.7 94.1 C 137.1 93.6 136.3 93.3 135.4 93.3 C 134.5 93.3 133.7 93.6 133.1 94.1 C 132.5 94.6 132.1 95.2 131.8 96 C 131.5 96.8 131.3 97.6 131.3 98.5 C 131.3 99.4 131.5 100.3 131.8 101.1 C 132.1 101.8 132.5 102.5 133.1 103 C 133.7 103.4 134.5 103.7 135.4 103.7 Z M 144.8 105.3 L 144.8 87.1 L 146.9 87.1 L 146.9 93.8 C 146.9 93.8 147.1 93.8 147.1 93.8 C 147.3 93.6 147.5 93.3 147.7 92.9 C 148 92.5 148.4 92.2 148.9 91.9 C 149.5 91.6 150.2 91.5 151 91.5 C 152.2 91.5 153.2 91.7 154.1 92.3 C 155 92.9 155.6 93.7 156.1 94.8 C 156.6 95.8 156.9 97.1 156.9 98.5 C 156.9 99.9 156.6 101.2 156.1 102.2 C 155.6 103.3 155 104.1 154.1 104.7 C 153.2 105.3 152.2 105.6 151.1 105.6 C 150.2 105.6 149.5 105.4 149 105.1 C 148.5 104.8 148 104.5 147.8 104.1 C 147.5 103.7 147.3 103.4 147.1 103.2 C 147.1 103.18 146.9 103.2 146.9 103.2 L 146.9 105.3 L 144.8 105.3 Z M 146.9 98.5 C 146.9 99.5 147 100.4 147.3 101.2 C 147.6 102 148.1 102.6 148.7 103 C 149.2 103.5 150 103.7 150.8 103.7 C 151.7 103.7 152.4 103.4 153 103 C 153.6 102.5 154 101.9 154.3 101.1 C 154.6 100.3 154.8 99.4 154.8 98.5 C 154.8 97.5 154.6 96.6 154.3 95.9 C 154 95.1 153.6 94.5 153 94 C 152.4 93.6 151.7 93.3 150.8 93.3 C 149.9 93.3 149.2 93.6 148.6 94 C 148.1 94.4 147.6 95 147.3 95.8 C 147 96.5 146.9 97.4 146.9 98.5 Z M 162.1 87.1 L 162.1 105.3 L 160 105.3 L 160 87.1 L 162.1 87.1 Z M 171.6 105.6 C 170.3 105.6 169.1 105.3 168.2 104.7 C 167.2 104.1 166.5 103.3 166 102.2 C 165.5 101.2 165.2 100 165.2 98.6 C 165.2 97.2 165.5 95.9 166 94.9 C 166.5 93.8 167.2 93 168.1 92.4 C 169.1 91.8 170.1 91.5 171.4 91.5 C 172.1 91.5 172.8 91.6 173.5 91.8 C 174.2 92.1 174.8 92.4 175.4 93 C 175.9 93.5 176.4 94.2 176.7 95.1 C 177.1 95.9 177.2 97 177.2 98.3 C 177.22 98.28 177.2 99.2 177.2 99.2 L 166.7 99.2 L 166.7 97.4 C 166.7 97.4 175.09 97.35 175.1 97.4 C 175.1 96.6 174.9 95.9 174.6 95.3 C 174.3 94.7 173.9 94.2 173.3 93.9 C 172.8 93.5 172.1 93.3 171.4 93.3 C 170.5 93.3 169.8 93.5 169.2 94 C 168.6 94.4 168.1 94.9 167.8 95.6 C 167.5 96.2 167.3 96.9 167.3 97.7 C 167.3 97.7 167.3 98.9 167.3 98.9 C 167.3 99.9 167.5 100.8 167.9 101.5 C 168.2 102.2 168.7 102.8 169.3 103.1 C 170 103.5 170.7 103.7 171.6 103.7 C 172.1 103.7 172.6 103.6 173.1 103.4 C 173.5 103.3 173.9 103 174.2 102.7 C 174.6 102.4 174.8 102 175 101.5 C 175 101.5 177 102.1 177 102.1 C 176.8 102.8 176.4 103.4 175.9 103.9 C 175.4 104.4 174.8 104.8 174.1 105.1 C 173.3 105.4 172.5 105.6 171.6 105.6 Z M 180.3 105.3 L 180.3 91.6 L 182.4 91.6 L 182.4 93.8 C 182.4 93.8 182.53 93.77 182.5 93.8 C 182.8 93 183.3 92.5 183.9 92.1 C 184.5 91.7 185.3 91.5 186.2 91.5 C 187.1 91.5 187.8 91.7 188.4 92.1 C 189 92.5 189.5 93 189.8 93.8 C 189.8 93.8 190 93.8 190 93.8 C 190.3 93.1 190.9 92.5 191.6 92.1 C 192.3 91.7 193.1 91.5 194.1 91.5 C 195.3 91.5 196.3 91.8 197.1 92.6 C 197.8 93.4 198.2 94.5 198.2 96.1 C 198.23 96.15 198.2 105.3 198.2 105.3 L 196.1 105.3 C 196.1 105.3 196.13 96.15 196.1 96.1 C 196.1 95.1 195.9 94.4 195.3 94 C 194.8 93.6 194.1 93.3 193.4 93.3 C 192.4 93.3 191.7 93.6 191.1 94.2 C 190.6 94.8 190.3 95.5 190.3 96.4 C 190.34 96.39 190.3 105.3 190.3 105.3 L 188.2 105.3 C 188.2 105.3 188.21 95.93 188.2 95.9 C 188.2 95.2 188 94.5 187.5 94.1 C 187 93.6 186.3 93.3 185.5 93.3 C 185 93.3 184.5 93.5 184 93.8 C 183.5 94.1 183.1 94.5 182.9 95 C 182.6 95.5 182.4 96.1 182.4 96.8 C 182.43 96.75 182.4 105.3 182.4 105.3 L 180.3 105.3 Z M 203.7 100.2 C 203.7 100.2 203.75 100.05 203.7 100.1 C 203.8 98.9 203.9 98 204.1 97.4 C 204.3 96.7 204.6 96.1 205.1 95.7 C 205.5 95.3 206 94.9 206.6 94.6 C 206.9 94.4 207.2 94.1 207.5 93.8 C 207.8 93.5 208 93.2 208.2 92.8 C 208.3 92.4 208.4 92 208.4 91.5 C 208.4 90.9 208.3 90.4 208 90 C 207.7 89.6 207.4 89.3 206.9 89 C 206.4 88.8 205.9 88.7 205.4 88.7 C 204.9 88.7 204.4 88.8 204 89 C 203.5 89.2 203.2 89.5 202.9 89.9 C 202.6 90.4 202.4 90.9 202.3 91.6 C 202.3 91.6 200.1 91.6 200.1 91.6 C 200.1 90.6 200.4 89.8 200.9 89.1 C 201.4 88.3 202 87.8 202.8 87.4 C 203.6 87 204.4 86.8 205.4 86.8 C 206.4 86.8 207.3 87 208.1 87.5 C 208.9 87.9 209.5 88.4 209.9 89.2 C 210.3 89.9 210.5 90.7 210.5 91.6 C 210.5 92.3 210.4 92.9 210.2 93.4 C 210 93.9 209.8 94.4 209.4 94.8 C 209 95.2 208.6 95.6 208 95.9 C 207.5 96.2 207.1 96.6 206.8 96.9 C 206.5 97.3 206.3 97.7 206.1 98.2 C 206 98.7 205.9 99.3 205.9 100.1 C 205.88 100.05 205.9 100.2 205.9 100.2 L 203.7 100.2 Z M 204.9 105.4 C 204.4 105.4 204.1 105.3 203.8 104.9 C 203.4 104.6 203.3 104.3 203.3 103.8 C 203.3 103.4 203.4 103 203.8 102.7 C 204.1 102.4 204.4 102.2 204.9 102.2 C 205.3 102.2 205.7 102.4 206 102.7 C 206.3 103 206.5 103.4 206.5 103.8 C 206.5 104.1 206.4 104.4 206.3 104.6 C 206.1 104.9 205.9 105.1 205.7 105.2 C 205.5 105.3 205.2 105.4 204.9 105.4 Z " stroke="none" fill="#000"/>  </g>  <g id="Polygon113632">    <path d="M 1.2 57 L 1.2 55.1 L 14.8 55.1 L 14.8 57 L 9.1 57 L 9.1 73.3 L 6.9 73.3 L 6.9 57 L 1.2 57 Z M 19.8 65.1 C 19.76 65.07 19.8 73.3 19.8 73.3 L 17.7 73.3 L 17.7 55.1 L 19.8 55.1 L 19.8 61.8 C 19.8 61.8 19.94 61.77 19.9 61.8 C 20.3 61.1 20.7 60.5 21.4 60.1 C 22 59.7 22.9 59.5 24 59.5 C 24.9 59.5 25.7 59.6 26.4 60 C 27.1 60.4 27.6 60.9 28 61.7 C 28.4 62.5 28.6 63.4 28.6 64.6 C 28.6 64.61 28.6 73.3 28.6 73.3 L 26.5 73.3 C 26.5 73.3 26.51 64.75 26.5 64.8 C 26.5 63.7 26.2 62.8 25.7 62.2 C 25.1 61.6 24.3 61.3 23.3 61.3 C 22.7 61.3 22 61.5 21.5 61.8 C 21 62.1 20.5 62.5 20.2 63 C 19.9 63.6 19.8 64.3 19.8 65.1 Z M 38 73.6 C 36.7 73.6 35.6 73.3 34.6 72.7 C 33.7 72.1 32.9 71.3 32.4 70.2 C 31.9 69.2 31.7 68 31.7 66.6 C 31.7 65.2 31.9 63.9 32.4 62.9 C 32.9 61.8 33.7 61 34.6 60.4 C 35.5 59.8 36.6 59.5 37.8 59.5 C 38.5 59.5 39.2 59.6 39.9 59.8 C 40.6 60.1 41.2 60.4 41.8 61 C 42.4 61.5 42.8 62.2 43.2 63.1 C 43.5 63.9 43.7 65 43.7 66.3 C 43.67 66.28 43.7 67.2 43.7 67.2 L 33.2 67.2 L 33.2 65.4 C 33.2 65.4 41.54 65.35 41.5 65.4 C 41.5 64.6 41.4 63.9 41.1 63.3 C 40.8 62.7 40.3 62.2 39.8 61.9 C 39.2 61.5 38.6 61.3 37.8 61.3 C 37 61.3 36.3 61.5 35.6 62 C 35 62.4 34.6 62.9 34.2 63.6 C 33.9 64.2 33.8 64.9 33.8 65.7 C 33.8 65.7 33.8 66.9 33.8 66.9 C 33.8 67.9 33.9 68.8 34.3 69.5 C 34.7 70.2 35.2 70.8 35.8 71.1 C 36.4 71.5 37.2 71.7 38 71.7 C 38.6 71.7 39.1 71.6 39.5 71.4 C 40 71.3 40.3 71 40.7 70.7 C 41 70.4 41.3 70 41.4 69.5 C 41.4 69.5 43.5 70.1 43.5 70.1 C 43.2 70.8 42.9 71.4 42.4 71.9 C 41.9 72.4 41.3 72.8 40.5 73.1 C 39.8 73.4 38.9 73.6 38 73.6 Z M 46.8 73.3 L 46.8 59.6 L 48.8 59.6 L 48.8 61.7 C 48.8 61.7 48.94 61.7 48.9 61.7 C 49.2 61 49.6 60.5 50.3 60.1 C 50.9 59.6 51.7 59.4 52.5 59.4 C 52.6 59.4 52.8 59.4 53.1 59.4 C 53.3 59.4 53.5 59.4 53.6 59.5 C 53.6 59.5 53.6 61.6 53.6 61.6 C 53.5 61.6 53.4 61.5 53.1 61.5 C 52.9 61.5 52.6 61.4 52.3 61.4 C 51.7 61.4 51.1 61.6 50.5 61.9 C 50 62.1 49.6 62.5 49.3 63 C 49 63.5 48.9 64 48.9 64.6 C 48.87 64.64 48.9 73.3 48.9 73.3 L 46.8 73.3 Z M 61.4 73.6 C 60.1 73.6 59 73.3 58 72.7 C 57.1 72.1 56.3 71.3 55.8 70.2 C 55.3 69.2 55.1 68 55.1 66.6 C 55.1 65.2 55.3 63.9 55.8 62.9 C 56.3 61.8 57.1 61 58 60.4 C 58.9 59.8 60 59.5 61.2 59.5 C 61.9 59.5 62.6 59.6 63.3 59.8 C 64 60.1 64.6 60.4 65.2 61 C 65.8 61.5 66.2 62.2 66.6 63.1 C 66.9 63.9 67.1 65 67.1 66.3 C 67.06 66.28 67.1 67.2 67.1 67.2 L 56.6 67.2 L 56.6 65.4 C 56.6 65.4 64.93 65.35 64.9 65.4 C 64.9 64.6 64.8 63.9 64.5 63.3 C 64.2 62.7 63.7 62.2 63.2 61.9 C 62.6 61.5 62 61.3 61.2 61.3 C 60.4 61.3 59.6 61.5 59 62 C 58.4 62.4 58 62.9 57.6 63.6 C 57.3 64.2 57.2 64.9 57.2 65.7 C 57.2 65.7 57.2 66.9 57.2 66.9 C 57.2 67.9 57.3 68.8 57.7 69.5 C 58.1 70.2 58.5 70.8 59.2 71.1 C 59.8 71.5 60.6 71.7 61.4 71.7 C 62 71.7 62.5 71.6 62.9 71.4 C 63.4 71.3 63.7 71 64.1 70.7 C 64.4 70.4 64.6 70 64.8 69.5 C 64.8 69.5 66.8 70.1 66.8 70.1 C 66.6 70.8 66.3 71.4 65.8 71.9 C 65.3 72.4 64.7 72.8 63.9 73.1 C 63.2 73.4 62.3 73.6 61.4 73.6 Z M 71.9 55.1 C 71.9 55.1 71.92 56.69 71.9 56.7 C 71.9 57.2 71.8 57.7 71.7 58.2 C 71.5 58.8 71.2 59.3 70.9 59.8 C 70.6 60.3 70.2 60.8 69.7 61.2 C 69.7 61.2 68.5 60.2 68.5 60.2 C 68.9 59.7 69.2 59.2 69.5 58.6 C 69.8 58 69.9 57.4 69.9 56.7 C 69.93 56.72 69.9 55.1 69.9 55.1 L 71.9 55.1 Z M 83.6 62.7 C 83.6 62.7 81.7 63.2 81.7 63.2 C 81.6 62.9 81.4 62.6 81.2 62.3 C 80.9 62 80.6 61.8 80.2 61.6 C 79.8 61.4 79.3 61.3 78.7 61.3 C 77.9 61.3 77.2 61.5 76.6 61.8 C 76.1 62.2 75.8 62.7 75.8 63.3 C 75.8 63.8 76 64.2 76.4 64.5 C 76.8 64.8 77.4 65.1 78.2 65.3 C 78.2 65.3 80.2 65.8 80.2 65.8 C 81.4 66.1 82.3 66.5 82.9 67.1 C 83.5 67.7 83.8 68.5 83.8 69.5 C 83.8 70.3 83.6 71 83.1 71.6 C 82.7 72.2 82.1 72.7 81.3 73 C 80.5 73.4 79.5 73.6 78.5 73.6 C 77.1 73.6 75.9 73.3 75 72.7 C 74.1 72 73.5 71.2 73.3 70 C 73.3 70 75.3 69.5 75.3 69.5 C 75.5 70.2 75.8 70.8 76.4 71.2 C 76.9 71.5 77.6 71.7 78.4 71.7 C 79.4 71.7 80.2 71.5 80.8 71.1 C 81.4 70.7 81.6 70.2 81.6 69.6 C 81.6 69.1 81.5 68.7 81.1 68.4 C 80.8 68.1 80.3 67.8 79.6 67.7 C 79.6 67.7 77.3 67.1 77.3 67.1 C 76.1 66.8 75.2 66.4 74.6 65.7 C 74 65.1 73.7 64.3 73.7 63.4 C 73.7 62.6 73.9 62 74.4 61.4 C 74.8 60.8 75.4 60.3 76.2 60 C 76.9 59.6 77.8 59.5 78.7 59.5 C 80.1 59.5 81.1 59.8 81.9 60.3 C 82.7 60.9 83.2 61.7 83.6 62.7 Z M 98 73.6 C 97.1 73.6 96.4 73.4 95.7 73.1 C 95 72.8 94.4 72.3 94 71.7 C 93.6 71 93.4 70.3 93.4 69.4 C 93.4 68.6 93.5 68 93.8 67.5 C 94.1 67 94.5 66.6 95.1 66.3 C 95.6 66.1 96.1 65.9 96.8 65.7 C 97.4 65.6 98 65.5 98.6 65.4 C 99.5 65.3 100.2 65.2 100.7 65.1 C 101.2 65.1 101.6 65 101.8 64.9 C 102 64.7 102.2 64.5 102.2 64.1 C 102.2 64.1 102.2 64.1 102.2 64.1 C 102.2 63.2 101.9 62.5 101.4 62 C 101 61.5 100.3 61.3 99.3 61.3 C 98.3 61.3 97.5 61.5 96.9 62 C 96.4 62.4 96 62.9 95.7 63.4 C 95.7 63.4 93.7 62.7 93.7 62.7 C 94.1 61.8 94.6 61.2 95.2 60.7 C 95.8 60.3 96.4 59.9 97.1 59.7 C 97.8 59.6 98.5 59.5 99.2 59.5 C 99.7 59.5 100.2 59.5 100.7 59.6 C 101.3 59.7 101.9 59.9 102.4 60.2 C 102.9 60.6 103.4 61.1 103.7 61.7 C 104.1 62.3 104.3 63.2 104.3 64.3 C 104.26 64.29 104.3 73.3 104.3 73.3 L 102.2 73.3 L 102.2 71.4 C 102.2 71.4 102.06 71.43 102.1 71.4 C 101.9 71.7 101.7 72 101.3 72.4 C 101 72.7 100.6 73 100 73.2 C 99.5 73.5 98.8 73.6 98 73.6 Z M 98.3 71.7 C 99.2 71.7 99.9 71.5 100.4 71.2 C 101 70.9 101.4 70.5 101.7 70 C 102 69.4 102.2 68.9 102.2 68.3 C 102.2 68.3 102.2 66.4 102.2 66.4 C 102.1 66.5 101.9 66.6 101.6 66.7 C 101.3 66.8 100.9 66.9 100.6 66.9 C 100.2 67 99.8 67 99.4 67.1 C 99.1 67.1 98.8 67.2 98.5 67.2 C 98 67.3 97.5 67.4 97 67.5 C 96.5 67.7 96.2 67.9 95.9 68.2 C 95.6 68.6 95.5 69 95.5 69.5 C 95.5 70.2 95.7 70.8 96.3 71.2 C 96.8 71.5 97.5 71.7 98.3 71.7 Z M 117.2 55.1 L 117.2 73.3 L 115.1 73.3 L 115.1 55.1 L 117.2 55.1 Z M 125 73.6 C 124.1 73.6 123.3 73.4 122.6 73.1 C 121.9 72.8 121.3 72.3 120.9 71.7 C 120.5 71 120.3 70.3 120.3 69.4 C 120.3 68.6 120.5 68 120.8 67.5 C 121.1 67 121.5 66.6 122 66.3 C 122.5 66.1 123.1 65.9 123.7 65.7 C 124.3 65.6 125 65.5 125.6 65.4 C 126.4 65.3 127.1 65.2 127.6 65.1 C 128.1 65.1 128.5 65 128.8 64.9 C 129 64.7 129.1 64.5 129.1 64.1 C 129.1 64.1 129.1 64.1 129.1 64.1 C 129.1 63.2 128.9 62.5 128.4 62 C 127.9 61.5 127.2 61.3 126.2 61.3 C 125.2 61.3 124.5 61.5 123.9 62 C 123.3 62.4 122.9 62.9 122.7 63.4 C 122.7 63.4 120.7 62.7 120.7 62.7 C 121.1 61.8 121.5 61.2 122.1 60.7 C 122.7 60.3 123.4 59.9 124.1 59.7 C 124.8 59.6 125.5 59.5 126.2 59.5 C 126.6 59.5 127.1 59.5 127.7 59.6 C 128.2 59.7 128.8 59.9 129.3 60.2 C 129.9 60.6 130.3 61.1 130.7 61.7 C 131 62.3 131.2 63.2 131.2 64.3 C 131.21 64.29 131.2 73.3 131.2 73.3 L 129.1 73.3 L 129.1 71.4 C 129.1 71.4 129 71.43 129 71.4 C 128.9 71.7 128.6 72 128.3 72.4 C 128 72.7 127.5 73 127 73.2 C 126.4 73.5 125.7 73.6 125 73.6 Z M 125.3 71.7 C 126.1 71.7 126.8 71.5 127.4 71.2 C 127.9 70.9 128.4 70.5 128.7 70 C 129 69.4 129.1 68.9 129.1 68.3 C 129.1 68.3 129.1 66.4 129.1 66.4 C 129 66.5 128.8 66.6 128.5 66.7 C 128.2 66.8 127.9 66.9 127.5 66.9 C 127.1 67 126.7 67 126.4 67.1 C 126 67.1 125.7 67.2 125.5 67.2 C 124.9 67.3 124.4 67.4 124 67.5 C 123.5 67.7 123.1 67.9 122.8 68.2 C 122.5 68.6 122.4 69 122.4 69.5 C 122.4 70.2 122.7 70.8 123.2 71.2 C 123.8 71.5 124.4 71.7 125.3 71.7 Z M 140.4 73.6 C 139.2 73.6 138.1 73.3 137.1 72.7 C 136.2 72 135.5 71.2 135 70.2 C 134.5 69.1 134.3 67.9 134.3 66.5 C 134.3 65.1 134.5 63.9 135 62.9 C 135.5 61.8 136.3 61 137.2 60.4 C 138.1 59.8 139.2 59.5 140.4 59.5 C 141.4 59.5 142.2 59.6 143 60 C 143.8 60.3 144.4 60.8 144.9 61.5 C 145.4 62.1 145.7 62.9 145.8 63.7 C 145.8 63.7 143.7 63.7 143.7 63.7 C 143.6 63.1 143.2 62.5 142.7 62.1 C 142.1 61.6 141.4 61.3 140.4 61.3 C 139.6 61.3 138.9 61.6 138.3 62 C 137.7 62.4 137.2 63 136.9 63.8 C 136.5 64.5 136.4 65.4 136.4 66.5 C 136.4 67.5 136.5 68.4 136.9 69.2 C 137.2 70 137.7 70.6 138.3 71 C 138.9 71.5 139.6 71.7 140.4 71.7 C 141 71.7 141.5 71.6 141.9 71.4 C 142.4 71.2 142.7 70.9 143.1 70.6 C 143.4 70.2 143.6 69.8 143.7 69.3 C 143.7 69.3 145.8 69.3 145.8 69.3 C 145.7 70.1 145.4 70.8 144.9 71.5 C 144.5 72.1 143.9 72.6 143.1 73 C 142.3 73.4 141.5 73.6 140.4 73.6 Z M 150.7 68.3 L 150.7 65.7 L 151.1 65.7 L 157.1 59.6 L 159.7 59.6 L 153.3 66.1 L 153.1 66.1 L 150.7 68.3 Z M 148.8 73.3 L 148.8 55.1 L 150.9 55.1 L 150.9 73.3 L 148.8 73.3 Z M 157.4 73.3 L 152.1 66.5 L 153.6 65.1 L 160.1 73.3 L 157.4 73.3 Z M 174.9 73.6 C 173.7 73.6 172.6 73.3 171.7 72.7 C 170.8 72.1 170 71.3 169.5 70.2 C 169 69.2 168.7 67.9 168.7 66.5 C 168.7 65.1 169 63.9 169.5 62.8 C 170 61.7 170.8 60.9 171.7 60.3 C 172.6 59.8 173.7 59.5 174.9 59.5 C 176.2 59.5 177.2 59.8 178.2 60.3 C 179.1 60.9 179.8 61.7 180.3 62.8 C 180.8 63.9 181.1 65.1 181.1 66.5 C 181.1 67.9 180.8 69.2 180.3 70.2 C 179.8 71.3 179.1 72.1 178.2 72.7 C 177.2 73.3 176.2 73.6 174.9 73.6 Z M 174.9 71.7 C 175.9 71.7 176.6 71.4 177.2 71 C 177.8 70.5 178.3 69.8 178.6 69.1 C 178.9 68.3 179 67.4 179 66.5 C 179 65.6 178.9 64.8 178.6 64 C 178.3 63.2 177.8 62.6 177.2 62.1 C 176.6 61.6 175.9 61.3 174.9 61.3 C 174 61.3 173.2 61.6 172.6 62.1 C 172 62.6 171.6 63.2 171.3 64 C 171 64.8 170.8 65.6 170.8 66.5 C 170.8 67.4 171 68.3 171.3 69.1 C 171.6 69.8 172 70.5 172.6 71 C 173.2 71.4 174 71.7 174.9 71.7 Z M 189.9 59.6 L 189.9 61.4 L 182.5 61.4 L 182.5 59.6 L 189.9 59.6 Z M 184.7 73.3 C 184.7 73.3 184.72 57.75 184.7 57.8 C 184.7 57 184.9 56.3 185.3 55.8 C 185.6 55.3 186.1 54.9 186.7 54.6 C 187.3 54.4 187.9 54.2 188.6 54.2 C 189.1 54.2 189.5 54.3 189.8 54.4 C 190.1 54.4 190.4 54.5 190.5 54.6 C 190.5 54.6 189.9 56.4 189.9 56.4 C 189.8 56.4 189.7 56.3 189.5 56.3 C 189.3 56.2 189.1 56.2 188.8 56.2 C 188.1 56.2 187.6 56.4 187.3 56.7 C 187 57.1 186.8 57.6 186.8 58.3 C 186.82 58.25 186.8 73.3 186.8 73.3 L 184.7 73.3 Z M 205.4 73.6 C 204.1 73.6 203 73.3 202.1 72.7 C 201.2 72 200.5 71.2 200 70.2 C 199.5 69.1 199.2 67.9 199.2 66.5 C 199.2 65.1 199.5 63.9 200 62.9 C 200.5 61.8 201.2 61 202.1 60.4 C 203 59.8 204.1 59.5 205.4 59.5 C 206.3 59.5 207.2 59.6 207.9 60 C 208.7 60.3 209.3 60.8 209.8 61.5 C 210.3 62.1 210.6 62.9 210.8 63.7 C 210.8 63.7 208.7 63.7 208.7 63.7 C 208.5 63.1 208.1 62.5 207.6 62.1 C 207 61.6 206.3 61.3 205.4 61.3 C 204.6 61.3 203.9 61.6 203.2 62 C 202.6 62.4 202.2 63 201.8 63.8 C 201.5 64.5 201.3 65.4 201.3 66.5 C 201.3 67.5 201.5 68.4 201.8 69.2 C 202.1 70 202.6 70.6 203.2 71 C 203.8 71.5 204.6 71.7 205.4 71.7 C 205.9 71.7 206.4 71.6 206.9 71.4 C 207.3 71.2 207.7 70.9 208 70.6 C 208.3 70.2 208.5 69.8 208.7 69.3 C 208.7 69.3 210.8 69.3 210.8 69.3 C 210.6 70.1 210.3 70.8 209.9 71.5 C 209.4 72.1 208.8 72.6 208 73 C 207.3 73.4 206.4 73.6 205.4 73.6 Z M 215.8 55.1 L 215.8 73.3 L 213.7 73.3 L 213.7 55.1 L 215.8 55.1 Z M 223.5 73.6 C 222.7 73.6 221.9 73.4 221.2 73.1 C 220.5 72.8 219.9 72.3 219.5 71.7 C 219.1 71 218.9 70.3 218.9 69.4 C 218.9 68.6 219 68 219.3 67.5 C 219.6 67 220 66.6 220.6 66.3 C 221.1 66.1 221.6 65.9 222.3 65.7 C 222.9 65.6 223.5 65.5 224.2 65.4 C 225 65.3 225.7 65.2 226.2 65.1 C 226.7 65.1 227.1 65 227.3 64.9 C 227.6 64.7 227.7 64.5 227.7 64.1 C 227.7 64.1 227.7 64.1 227.7 64.1 C 227.7 63.2 227.4 62.5 227 62 C 226.5 61.5 225.8 61.3 224.8 61.3 C 223.8 61.3 223 61.5 222.4 62 C 221.9 62.4 221.5 62.9 221.2 63.4 C 221.2 63.4 219.3 62.7 219.3 62.7 C 219.6 61.8 220.1 61.2 220.7 60.7 C 221.3 60.3 221.9 59.9 222.6 59.7 C 223.3 59.6 224 59.5 224.7 59.5 C 225.2 59.5 225.7 59.5 226.2 59.6 C 226.8 59.7 227.4 59.9 227.9 60.2 C 228.4 60.6 228.9 61.1 229.2 61.7 C 229.6 62.3 229.8 63.2 229.8 64.3 C 229.77 64.29 229.8 73.3 229.8 73.3 L 227.7 73.3 L 227.7 71.4 C 227.7 71.4 227.56 71.43 227.6 71.4 C 227.4 71.7 227.2 72 226.9 72.4 C 226.5 72.7 226.1 73 225.5 73.2 C 225 73.5 224.3 73.6 223.5 73.6 Z M 223.8 71.7 C 224.7 71.7 225.4 71.5 225.9 71.2 C 226.5 70.9 226.9 70.5 227.2 70 C 227.5 69.4 227.7 68.9 227.7 68.3 C 227.7 68.3 227.7 66.4 227.7 66.4 C 227.6 66.5 227.4 66.6 227.1 66.7 C 226.8 66.8 226.4 66.9 226.1 66.9 C 225.7 67 225.3 67 224.9 67.1 C 224.6 67.1 224.3 67.2 224 67.2 C 223.5 67.3 223 67.4 222.5 67.5 C 222.1 67.7 221.7 67.9 221.4 68.2 C 221.1 68.6 221 69 221 69.5 C 221 70.2 221.2 70.8 221.8 71.2 C 222.3 71.5 223 71.7 223.8 71.7 Z M 233.5 73.3 L 233.5 59.6 L 235.5 59.6 L 235.5 61.7 C 235.5 61.7 235.66 61.7 235.7 61.7 C 235.9 61 236.4 60.5 237 60.1 C 237.7 59.6 238.4 59.4 239.2 59.4 C 239.4 59.4 239.6 59.4 239.8 59.4 C 240 59.4 240.2 59.4 240.3 59.5 C 240.3 59.5 240.3 61.6 240.3 61.6 C 240.2 61.6 240.1 61.5 239.8 61.5 C 239.6 61.5 239.3 61.4 239 61.4 C 238.4 61.4 237.8 61.6 237.3 61.9 C 236.7 62.1 236.3 62.5 236 63 C 235.7 63.5 235.6 64 235.6 64.6 C 235.59 64.64 235.6 73.3 235.6 73.3 L 233.5 73.3 Z M 242.7 73.3 L 242.7 59.6 L 244.8 59.6 L 244.8 73.3 L 242.7 73.3 Z M 243.8 57.4 C 243.4 57.4 243 57.2 242.7 56.9 C 242.4 56.7 242.3 56.3 242.3 55.9 C 242.3 55.6 242.4 55.2 242.7 54.9 C 243 54.7 243.4 54.5 243.8 54.5 C 244.2 54.5 244.5 54.7 244.8 54.9 C 245.1 55.2 245.3 55.6 245.3 55.9 C 245.3 56.3 245.1 56.7 244.8 56.9 C 244.5 57.2 244.2 57.4 243.8 57.4 Z M 254.4 59.6 L 254.4 61.4 L 247.3 61.4 L 247.3 59.6 L 254.4 59.6 Z M 249.4 56.4 L 251.5 56.4 C 251.5 56.4 251.48 69.37 251.5 69.4 C 251.5 70 251.6 70.4 251.7 70.7 C 251.9 71 252.1 71.2 252.4 71.3 C 252.7 71.4 253 71.4 253.3 71.4 C 253.5 71.4 253.7 71.4 253.9 71.4 C 254 71.4 254.1 71.3 254.2 71.3 C 254.2 71.3 254.6 73.2 254.6 73.2 C 254.5 73.3 254.3 73.3 254 73.4 C 253.8 73.4 253.5 73.5 253.1 73.5 C 252.5 73.5 251.9 73.3 251.3 73.1 C 250.8 72.8 250.3 72.4 249.9 71.9 C 249.6 71.4 249.4 70.7 249.4 69.9 C 249.38 69.93 249.4 56.4 249.4 56.4 Z M 259 78.4 C 258.7 78.4 258.3 78.4 258.1 78.3 C 257.8 78.2 257.6 78.2 257.5 78.1 C 257.5 78.1 258 76.3 258 76.3 C 258.5 76.4 259 76.5 259.4 76.4 C 259.8 76.4 260.1 76.2 260.4 75.9 C 260.7 75.6 261 75.1 261.2 74.4 C 261.25 74.41 261.6 73.3 261.6 73.3 L 256.6 59.6 L 258.9 59.6 L 262.6 70.5 L 262.8 70.5 L 266.5 59.6 L 268.8 59.6 C 268.8 59.6 263.02 75.26 263 75.3 C 262.8 76 262.4 76.6 262.1 77 C 261.7 77.5 261.2 77.8 260.7 78 C 260.2 78.3 259.6 78.4 259 78.4 Z M 301.7 64.5 L 301.7 66.5 L 276.7 66.5 L 276.7 64.5 L 301.7 64.5 Z M 313.7 73.3 L 309.6 59.6 L 311.8 59.6 L 314.7 70.1 L 314.9 70.1 L 317.8 59.6 L 320 59.6 L 322.9 70 L 323 70 L 326 59.6 L 328.2 59.6 L 324 73.3 L 322 73.3 L 319 62.8 L 318.8 62.8 L 315.8 73.3 L 313.7 73.3 Z M 332.8 65.1 C 332.83 65.07 332.8 73.3 332.8 73.3 L 330.7 73.3 L 330.7 55.1 L 332.8 55.1 L 332.8 61.8 C 332.8 61.8 333.01 61.77 333 61.8 C 333.3 61.1 333.8 60.5 334.5 60.1 C 335.1 59.7 336 59.5 337 59.5 C 338 59.5 338.8 59.6 339.5 60 C 340.2 60.4 340.7 60.9 341.1 61.7 C 341.5 62.5 341.7 63.4 341.7 64.6 C 341.67 64.61 341.7 73.3 341.7 73.3 L 339.6 73.3 C 339.6 73.3 339.58 64.75 339.6 64.8 C 339.6 63.7 339.3 62.8 338.7 62.2 C 338.2 61.6 337.4 61.3 336.4 61.3 C 335.7 61.3 335.1 61.5 334.6 61.8 C 334 62.1 333.6 62.5 333.3 63 C 333 63.6 332.8 64.3 332.8 65.1 Z M 349.3 73.6 C 348.4 73.6 347.6 73.4 346.9 73.1 C 346.2 72.8 345.7 72.3 345.3 71.7 C 344.8 71 344.6 70.3 344.6 69.4 C 344.6 68.6 344.8 68 345.1 67.5 C 345.4 67 345.8 66.6 346.3 66.3 C 346.9 66.1 347.4 65.9 348 65.7 C 348.7 65.6 349.3 65.5 349.9 65.4 C 350.8 65.3 351.4 65.2 352 65.1 C 352.5 65.1 352.8 65 353.1 64.9 C 353.3 64.7 353.4 64.5 353.4 64.1 C 353.4 64.1 353.4 64.1 353.4 64.1 C 353.4 63.2 353.2 62.5 352.7 62 C 352.3 61.5 351.5 61.3 350.6 61.3 C 349.6 61.3 348.8 61.5 348.2 62 C 347.7 62.4 347.3 62.9 347 63.4 C 347 63.4 345 62.7 345 62.7 C 345.4 61.8 345.9 61.2 346.5 60.7 C 347.1 60.3 347.7 59.9 348.4 59.7 C 349.1 59.6 349.8 59.5 350.5 59.5 C 350.9 59.5 351.4 59.5 352 59.6 C 352.6 59.7 353.1 59.9 353.7 60.2 C 354.2 60.6 354.7 61.1 355 61.7 C 355.4 62.3 355.5 63.2 355.5 64.3 C 355.54 64.29 355.5 73.3 355.5 73.3 L 353.4 73.3 L 353.4 71.4 C 353.4 71.4 353.34 71.43 353.3 71.4 C 353.2 71.7 353 72 352.6 72.4 C 352.3 72.7 351.9 73 351.3 73.2 C 350.8 73.5 350.1 73.6 349.3 73.6 Z M 349.6 71.7 C 350.4 71.7 351.1 71.5 351.7 71.2 C 352.3 70.9 352.7 70.5 353 70 C 353.3 69.4 353.4 68.9 353.4 68.3 C 353.4 68.3 353.4 66.4 353.4 66.4 C 353.4 66.5 353.2 66.6 352.9 66.7 C 352.6 66.8 352.2 66.9 351.8 66.9 C 351.5 67 351.1 67 350.7 67.1 C 350.3 67.1 350.1 67.2 349.8 67.2 C 349.3 67.3 348.8 67.4 348.3 67.5 C 347.8 67.7 347.5 67.9 347.2 68.2 C 346.9 68.6 346.7 69 346.7 69.5 C 346.7 70.2 347 70.8 347.5 71.2 C 348.1 71.5 348.8 71.7 349.6 71.7 Z M 364.9 59.6 L 364.9 61.4 L 357.8 61.4 L 357.8 59.6 L 364.9 59.6 Z M 359.9 56.4 L 362 56.4 C 362 56.4 361.96 69.37 362 69.4 C 362 70 362 70.4 362.2 70.7 C 362.4 71 362.6 71.2 362.9 71.3 C 363.2 71.4 363.5 71.4 363.8 71.4 C 364 71.4 364.2 71.4 364.3 71.4 C 364.5 71.4 364.6 71.3 364.7 71.3 C 364.7 71.3 365.1 73.2 365.1 73.2 C 365 73.3 364.8 73.3 364.5 73.4 C 364.3 73.4 363.9 73.5 363.6 73.5 C 363 73.5 362.4 73.3 361.8 73.1 C 361.3 72.8 360.8 72.4 360.4 71.9 C 360 71.4 359.9 70.7 359.9 69.9 C 359.86 69.93 359.9 56.4 359.9 56.4 Z M 376.1 73.3 L 373.8 73.3 L 380.5 55.1 L 382.7 55.1 L 389.4 73.3 L 387.1 73.3 L 381.7 58 L 381.5 58 L 376.1 73.3 Z M 376.9 66.2 L 386.2 66.2 L 386.2 68.1 L 376.9 68.1 L 376.9 66.2 Z M 394.4 55.1 L 394.4 73.3 L 392.2 73.3 L 392.2 55.1 L 394.4 55.1 Z " stroke="none" fill="#000"/>  </g>  <g id="Polygon113630">    <path d="M 22 0 L 28.6 0 C 28.6 0 28.65 20.31 28.6 20.3 C 28.6 22.6 28.1 24.6 27 26.3 C 25.9 28 24.4 29.3 22.5 30.3 C 20.5 31.2 18.3 31.7 15.7 31.7 C 13.1 31.7 10.8 31.2 8.9 30.3 C 6.9 29.3 5.4 28 4.3 26.3 C 3.3 24.6 2.7 22.6 2.7 20.3 C 2.72 20.31 2.7 0 2.7 0 L 9.3 0 C 9.3 0 9.33 19.74 9.3 19.7 C 9.3 20.9 9.6 22 10.1 22.9 C 10.6 23.8 11.4 24.6 12.3 25.1 C 13.3 25.6 14.4 25.9 15.7 25.9 C 17 25.9 18.1 25.6 19 25.1 C 20 24.6 20.7 23.8 21.2 22.9 C 21.8 22 22 20.9 22 19.7 C 22.03 19.74 22 0 22 0 Z M 40.5 17.7 C 40.52 17.71 40.5 31.3 40.5 31.3 L 34 31.3 L 34 7.8 L 40.2 7.8 L 40.2 12 C 40.2 12 40.49 11.96 40.5 12 C 41 10.6 41.9 9.5 43.1 8.7 C 44.3 7.9 45.8 7.5 47.5 7.5 C 49.2 7.5 50.6 7.9 51.8 8.6 C 53 9.3 54 10.3 54.6 11.6 C 55.3 12.9 55.6 14.5 55.6 16.3 C 55.64 16.34 55.6 31.3 55.6 31.3 L 49.1 31.3 C 49.1 31.3 49.13 17.5 49.1 17.5 C 49.1 16.1 48.8 14.9 48 14.1 C 47.3 13.3 46.3 12.9 45 12.9 C 44.1 12.9 43.3 13.1 42.7 13.5 C 42 13.9 41.5 14.4 41.1 15.1 C 40.7 15.8 40.5 16.7 40.5 17.7 Z M 71.1 31.7 C 68.7 31.7 66.6 31.2 64.9 30.2 C 63.1 29.2 61.8 27.8 60.9 25.9 C 60 24.1 59.5 22 59.5 19.6 C 59.5 17.2 60 15.1 60.9 13.3 C 61.8 11.5 63.2 10.1 64.9 9 C 66.6 8 68.7 7.5 71 7.5 C 73.1 7.5 74.9 7.9 76.4 8.6 C 77.9 9.4 79.2 10.4 80.1 11.8 C 81 13.1 81.4 14.7 81.5 16.5 C 81.5 16.5 75.4 16.5 75.4 16.5 C 75.2 15.3 74.8 14.4 74 13.7 C 73.3 12.9 72.3 12.6 71.1 12.6 C 70.1 12.6 69.3 12.9 68.5 13.4 C 67.8 13.9 67.2 14.7 66.8 15.8 C 66.3 16.8 66.1 18.1 66.1 19.5 C 66.1 21 66.3 22.3 66.7 23.4 C 67.2 24.4 67.7 25.2 68.5 25.8 C 69.3 26.3 70.1 26.6 71.1 26.6 C 71.9 26.6 72.6 26.4 73.1 26.1 C 73.7 25.8 74.2 25.4 74.6 24.8 C 75 24.2 75.3 23.5 75.4 22.7 C 75.4 22.7 81.5 22.7 81.5 22.7 C 81.4 24.5 80.9 26 80.1 27.4 C 79.2 28.8 78 29.8 76.5 30.6 C 75 31.3 73.1 31.7 71.1 31.7 Z M 92.1 0 L 92.1 31.3 L 85.5 31.3 L 85.5 0 L 92.1 0 Z M 107.7 31.7 C 105.3 31.7 103.2 31.2 101.5 30.3 C 99.8 29.3 98.4 27.9 97.5 26.1 C 96.6 24.3 96.1 22.1 96.1 19.7 C 96.1 17.2 96.6 15.1 97.5 13.3 C 98.4 11.5 99.8 10.1 101.5 9 C 103.2 8 105.2 7.5 107.5 7.5 C 109 7.5 110.5 7.8 111.8 8.3 C 113.1 8.7 114.3 9.5 115.3 10.5 C 116.3 11.5 117.1 12.7 117.6 14.2 C 118.2 15.7 118.5 17.4 118.5 19.4 C 118.49 19.42 118.5 21.2 118.5 21.2 L 98.7 21.2 L 98.7 17.2 C 98.7 17.2 112.37 17.18 112.4 17.2 C 112.4 16.2 112.2 15.4 111.8 14.7 C 111.3 14 110.8 13.4 110.1 13 C 109.4 12.6 108.5 12.4 107.6 12.4 C 106.6 12.4 105.7 12.6 105 13 C 104.2 13.5 103.6 14.1 103.2 14.9 C 102.7 15.6 102.5 16.5 102.5 17.4 C 102.5 17.4 102.5 21.2 102.5 21.2 C 102.5 22.4 102.7 23.4 103.2 24.2 C 103.6 25.1 104.2 25.7 105 26.2 C 105.8 26.6 106.7 26.9 107.8 26.9 C 108.6 26.9 109.2 26.8 109.8 26.6 C 110.4 26.4 110.9 26.1 111.4 25.7 C 111.8 25.2 112.1 24.7 112.3 24.2 C 112.3 24.2 118.4 24.6 118.4 24.6 C 118 26 117.4 27.3 116.5 28.3 C 115.5 29.4 114.3 30.2 112.8 30.8 C 111.4 31.4 109.7 31.7 107.7 31.7 Z M 129 31.7 C 127.5 31.7 126.2 31.5 125 30.9 C 123.9 30.4 122.9 29.6 122.3 28.6 C 121.6 27.6 121.3 26.3 121.3 24.7 C 121.3 23.4 121.5 22.3 122 21.4 C 122.4 20.6 123.1 19.8 123.9 19.3 C 124.7 18.8 125.7 18.4 126.7 18.1 C 127.8 17.8 128.9 17.6 130.1 17.5 C 131.4 17.4 132.5 17.2 133.4 17.1 C 134.2 17 134.8 16.8 135.2 16.5 C 135.6 16.3 135.7 15.9 135.7 15.4 C 135.7 15.4 135.7 15.3 135.7 15.3 C 135.7 14.3 135.4 13.6 134.8 13.1 C 134.2 12.5 133.4 12.3 132.3 12.3 C 131.1 12.3 130.2 12.5 129.5 13 C 128.8 13.5 128.3 14.2 128.1 15 C 128.1 15 122.1 14.5 122.1 14.5 C 122.4 13.1 123 11.8 123.9 10.8 C 124.8 9.7 125.9 8.9 127.4 8.4 C 128.8 7.8 130.4 7.5 132.3 7.5 C 133.6 7.5 134.8 7.7 136 8 C 137.2 8.3 138.3 8.7 139.2 9.4 C 140.2 10 140.9 10.9 141.4 11.9 C 142 12.9 142.2 14.1 142.2 15.5 C 142.25 15.45 142.2 31.3 142.2 31.3 L 136.1 31.3 L 136.1 28 C 136.1 28 135.9 28.02 135.9 28 C 135.5 28.8 135 29.4 134.4 30 C 133.8 30.5 133 30.9 132.1 31.2 C 131.2 31.6 130.2 31.7 129 31.7 Z M 130.9 27.2 C 131.9 27.2 132.7 27 133.4 26.7 C 134.2 26.3 134.7 25.8 135.2 25.1 C 135.6 24.5 135.8 23.7 135.8 22.9 C 135.8 22.9 135.8 20.4 135.8 20.4 C 135.6 20.5 135.3 20.7 135 20.8 C 134.6 20.9 134.2 21 133.8 21 C 133.3 21.1 132.9 21.2 132.5 21.3 C 132 21.3 131.6 21.4 131.3 21.5 C 130.5 21.6 129.8 21.7 129.3 22 C 128.7 22.2 128.3 22.6 127.9 23 C 127.6 23.4 127.5 23.9 127.5 24.5 C 127.5 25.4 127.8 26.1 128.4 26.5 C 129.1 27 129.9 27.2 130.9 27.2 Z M 147.2 31.3 L 147.2 7.8 L 153.5 7.8 L 153.5 11.9 C 153.5 11.9 153.79 11.91 153.8 11.9 C 154.2 10.5 154.9 9.4 155.9 8.6 C 157 7.9 158.1 7.5 159.4 7.5 C 159.8 7.5 160.1 7.5 160.5 7.5 C 160.9 7.6 161.2 7.6 161.5 7.7 C 161.5 7.7 161.5 13.5 161.5 13.5 C 161.2 13.4 160.7 13.3 160.2 13.2 C 159.7 13.2 159.2 13.1 158.7 13.1 C 157.8 13.1 156.9 13.3 156.2 13.8 C 155.4 14.2 154.8 14.7 154.4 15.5 C 154 16.2 153.7 17 153.7 18 C 153.75 18 153.7 31.3 153.7 31.3 L 147.2 31.3 Z M 181.5 31.7 C 180 31.7 178.6 31.5 177.5 30.9 C 176.3 30.4 175.4 29.6 174.7 28.6 C 174 27.6 173.7 26.3 173.7 24.7 C 173.7 23.4 173.9 22.3 174.4 21.4 C 174.9 20.6 175.5 19.8 176.4 19.3 C 177.2 18.8 178.1 18.4 179.2 18.1 C 180.2 17.8 181.3 17.6 182.5 17.5 C 183.9 17.4 185 17.2 185.8 17.1 C 186.6 17 187.2 16.8 187.6 16.5 C 188 16.3 188.2 15.9 188.2 15.4 C 188.2 15.4 188.2 15.3 188.2 15.3 C 188.2 14.3 187.9 13.6 187.3 13.1 C 186.7 12.5 185.8 12.3 184.7 12.3 C 183.5 12.3 182.6 12.5 181.9 13 C 181.2 13.5 180.8 14.2 180.5 15 C 180.5 15 174.5 14.5 174.5 14.5 C 174.8 13.1 175.4 11.8 176.3 10.8 C 177.2 9.7 178.4 8.9 179.8 8.4 C 181.2 7.8 182.9 7.5 184.7 7.5 C 186 7.5 187.3 7.7 188.5 8 C 189.7 8.3 190.7 8.7 191.7 9.4 C 192.6 10 193.3 10.9 193.9 11.9 C 194.4 12.9 194.7 14.1 194.7 15.5 C 194.68 15.45 194.7 31.3 194.7 31.3 L 188.5 31.3 L 188.5 28 C 188.5 28 188.33 28.02 188.3 28 C 188 28.8 187.5 29.4 186.8 30 C 186.2 30.5 185.4 30.9 184.5 31.2 C 183.7 31.6 182.6 31.7 181.5 31.7 Z M 183.3 27.2 C 184.3 27.2 185.1 27 185.9 26.7 C 186.6 26.3 187.2 25.8 187.6 25.1 C 188 24.5 188.2 23.7 188.2 22.9 C 188.2 22.9 188.2 20.4 188.2 20.4 C 188 20.5 187.7 20.7 187.4 20.8 C 187 20.9 186.6 21 186.2 21 C 185.8 21.1 185.3 21.2 184.9 21.3 C 184.5 21.3 184.1 21.4 183.7 21.5 C 182.9 21.6 182.3 21.7 181.7 22 C 181.1 22.2 180.7 22.6 180.4 23 C 180.1 23.4 179.9 23.9 179.9 24.5 C 179.9 25.4 180.2 26.1 180.9 26.5 C 181.5 27 182.3 27.2 183.3 27.2 Z M 199.7 40.1 L 199.7 7.8 L 206.1 7.8 L 206.1 11.8 C 206.1 11.8 206.38 11.76 206.4 11.8 C 206.7 11.1 207.1 10.5 207.6 9.8 C 208.2 9.2 208.9 8.6 209.8 8.2 C 210.6 7.7 211.7 7.5 213.1 7.5 C 214.8 7.5 216.3 8 217.8 8.8 C 219.2 9.7 220.4 11.1 221.3 12.9 C 222.1 14.7 222.6 16.9 222.6 19.6 C 222.6 22.2 222.1 24.4 221.3 26.2 C 220.5 28 219.3 29.4 217.9 30.3 C 216.4 31.2 214.8 31.7 213 31.7 C 211.8 31.7 210.7 31.4 209.8 31 C 208.9 30.6 208.2 30.1 207.7 29.4 C 207.1 28.8 206.7 28.2 206.4 27.5 C 206.38 27.52 206.2 27.5 206.2 27.5 L 206.2 40.1 L 199.7 40.1 Z M 206 19.5 C 206 20.9 206.2 22.2 206.6 23.2 C 207 24.2 207.6 25 208.3 25.6 C 209 26.2 209.9 26.5 211 26.5 C 212 26.5 212.9 26.2 213.7 25.6 C 214.4 25 215 24.2 215.3 23.2 C 215.7 22.1 215.9 20.9 215.9 19.5 C 215.9 18.2 215.7 17 215.3 16 C 215 14.9 214.4 14.1 213.7 13.6 C 212.9 13 212 12.7 211 12.7 C 209.9 12.7 209 13 208.3 13.5 C 207.6 14.1 207 14.9 206.6 15.9 C 206.2 16.9 206 18.2 206 19.5 Z M 226.7 40.1 L 226.7 7.8 L 233.1 7.8 L 233.1 11.8 C 233.1 11.8 233.43 11.76 233.4 11.8 C 233.7 11.1 234.1 10.5 234.7 9.8 C 235.2 9.2 235.9 8.6 236.8 8.2 C 237.7 7.7 238.8 7.5 240.1 7.5 C 241.8 7.5 243.4 8 244.8 8.8 C 246.3 9.7 247.4 11.1 248.3 12.9 C 249.2 14.7 249.6 16.9 249.6 19.6 C 249.6 22.2 249.2 24.4 248.3 26.2 C 247.5 28 246.4 29.4 244.9 30.3 C 243.5 31.2 241.9 31.7 240.1 31.7 C 238.8 31.7 237.8 31.4 236.9 31 C 236 30.6 235.3 30.1 234.7 29.4 C 234.2 28.8 233.7 28.2 233.4 27.5 C 233.43 27.52 233.2 27.5 233.2 27.5 L 233.2 40.1 L 226.7 40.1 Z M 233.1 19.5 C 233.1 20.9 233.3 22.2 233.7 23.2 C 234.1 24.2 234.6 25 235.4 25.6 C 236.1 26.2 237 26.5 238 26.5 C 239.1 26.5 240 26.2 240.7 25.6 C 241.4 25 242 24.2 242.4 23.2 C 242.8 22.1 243 20.9 243 19.5 C 243 18.2 242.8 17 242.4 16 C 242 14.9 241.5 14.1 240.7 13.6 C 240 13 239.1 12.7 238 12.7 C 237 12.7 236.1 13 235.3 13.5 C 234.6 14.1 234.1 14.9 233.7 15.9 C 233.3 16.9 233.1 18.2 233.1 19.5 Z M 260.3 0 L 260.3 31.3 L 253.8 31.3 L 253.8 0 L 260.3 0 Z M 265.4 31.3 L 265.4 7.8 L 271.9 7.8 L 271.9 31.3 L 265.4 31.3 Z M 268.7 4.8 C 267.7 4.8 266.9 4.5 266.2 3.8 C 265.5 3.2 265.2 2.4 265.2 1.5 C 265.2 0.6 265.5 -0.2 266.2 -0.8 C 266.9 -1.5 267.7 -1.8 268.7 -1.8 C 269.6 -1.8 270.5 -1.5 271.2 -0.8 C 271.8 -0.2 272.2 0.6 272.2 1.5 C 272.2 2.4 271.8 3.2 271.2 3.8 C 270.5 4.5 269.6 4.8 268.7 4.8 Z M 287.4 31.7 C 285 31.7 283 31.2 281.2 30.2 C 279.5 29.2 278.2 27.8 277.3 25.9 C 276.4 24.1 275.9 22 275.9 19.6 C 275.9 17.2 276.4 15.1 277.3 13.3 C 278.2 11.5 279.5 10.1 281.3 9 C 283 8 285 7.5 287.4 7.5 C 289.5 7.5 291.2 7.9 292.8 8.6 C 294.3 9.4 295.5 10.4 296.4 11.8 C 297.3 13.1 297.8 14.7 297.9 16.5 C 297.9 16.5 291.8 16.5 291.8 16.5 C 291.6 15.3 291.1 14.4 290.4 13.7 C 289.7 12.9 288.7 12.6 287.5 12.6 C 286.5 12.6 285.6 12.9 284.9 13.4 C 284.1 13.9 283.5 14.7 283.1 15.8 C 282.7 16.8 282.5 18.1 282.5 19.5 C 282.5 21 282.7 22.3 283.1 23.4 C 283.5 24.4 284.1 25.2 284.9 25.8 C 285.6 26.3 286.5 26.6 287.5 26.6 C 288.3 26.6 288.9 26.4 289.5 26.1 C 290.1 25.8 290.6 25.4 291 24.8 C 291.4 24.2 291.6 23.5 291.8 22.7 C 291.8 22.7 297.9 22.7 297.9 22.7 C 297.8 24.5 297.3 26 296.5 27.4 C 295.6 28.8 294.4 29.8 292.9 30.6 C 291.3 31.3 289.5 31.7 287.4 31.7 Z M 308.5 31.7 C 307 31.7 305.6 31.5 304.5 30.9 C 303.3 30.4 302.4 29.6 301.7 28.6 C 301 27.6 300.7 26.3 300.7 24.7 C 300.7 23.4 300.9 22.3 301.4 21.4 C 301.9 20.6 302.5 19.8 303.3 19.3 C 304.2 18.8 305.1 18.4 306.2 18.1 C 307.2 17.8 308.3 17.6 309.5 17.5 C 310.8 17.4 311.9 17.2 312.8 17.1 C 313.6 17 314.2 16.8 314.6 16.5 C 315 16.3 315.2 15.9 315.2 15.4 C 315.2 15.4 315.2 15.3 315.2 15.3 C 315.2 14.3 314.9 13.6 314.2 13.1 C 313.6 12.5 312.8 12.3 311.7 12.3 C 310.5 12.3 309.6 12.5 308.9 13 C 308.2 13.5 307.7 14.2 307.5 15 C 307.5 15 301.5 14.5 301.5 14.5 C 301.8 13.1 302.4 11.8 303.3 10.8 C 304.2 9.7 305.3 8.9 306.8 8.4 C 308.2 7.8 309.8 7.5 311.7 7.5 C 313 7.5 314.3 7.7 315.5 8 C 316.6 8.3 317.7 8.7 318.6 9.4 C 319.6 10 320.3 10.9 320.9 11.9 C 321.4 12.9 321.7 14.1 321.7 15.5 C 321.66 15.45 321.7 31.3 321.7 31.3 L 315.5 31.3 L 315.5 28 C 315.5 28 315.31 28.02 315.3 28 C 314.9 28.8 314.4 29.4 313.8 30 C 313.2 30.5 312.4 30.9 311.5 31.2 C 310.6 31.6 309.6 31.7 308.5 31.7 Z M 310.3 27.2 C 311.3 27.2 312.1 27 312.8 26.7 C 313.6 26.3 314.2 25.8 314.6 25.1 C 315 24.5 315.2 23.7 315.2 22.9 C 315.2 22.9 315.2 20.4 315.2 20.4 C 315 20.5 314.7 20.7 314.4 20.8 C 314 20.9 313.6 21 313.2 21 C 312.7 21.1 312.3 21.2 311.9 21.3 C 311.4 21.3 311 21.4 310.7 21.5 C 309.9 21.6 309.3 21.7 308.7 22 C 308.1 22.2 307.7 22.6 307.4 23 C 307 23.4 306.9 23.9 306.9 24.5 C 306.9 25.4 307.2 26.1 307.8 26.5 C 308.5 27 309.3 27.2 310.3 27.2 Z M 338.6 7.8 L 338.6 12.7 L 324.4 12.7 L 324.4 7.8 L 338.6 7.8 Z M 327.6 2.2 L 334.2 2.2 C 334.2 2.2 334.15 24.07 334.2 24.1 C 334.2 24.7 334.2 25.1 334.4 25.5 C 334.6 25.8 334.9 26 335.2 26.2 C 335.5 26.3 335.9 26.4 336.4 26.4 C 336.7 26.4 337 26.3 337.3 26.3 C 337.6 26.2 337.8 26.2 338 26.1 C 338 26.1 339 31 339 31 C 338.7 31.1 338.2 31.2 337.6 31.3 C 337 31.5 336.3 31.6 335.5 31.6 C 333.9 31.7 332.5 31.4 331.4 31 C 330.2 30.5 329.3 29.7 328.6 28.7 C 328 27.7 327.6 26.5 327.6 24.9 C 327.65 24.92 327.6 2.2 327.6 2.2 Z M 342.5 31.3 L 342.5 7.8 L 349 7.8 L 349 31.3 L 342.5 31.3 Z M 345.7 4.8 C 344.8 4.8 343.9 4.5 343.3 3.8 C 342.6 3.2 342.2 2.4 342.2 1.5 C 342.2 0.6 342.6 -0.2 343.3 -0.8 C 343.9 -1.5 344.8 -1.8 345.7 -1.8 C 346.7 -1.8 347.5 -1.5 348.2 -0.8 C 348.9 -0.2 349.2 0.6 349.2 1.5 C 349.2 2.4 348.9 3.2 348.2 3.8 C 347.5 4.5 346.7 4.8 345.7 4.8 Z M 364.5 31.7 C 362.1 31.7 360.1 31.2 358.3 30.2 C 356.6 29.2 355.3 27.8 354.4 26 C 353.4 24.1 352.9 22 352.9 19.6 C 352.9 17.2 353.4 15.1 354.4 13.3 C 355.3 11.5 356.6 10 358.3 9 C 360.1 8 362.1 7.5 364.5 7.5 C 366.9 7.5 368.9 8 370.6 9 C 372.4 10 373.7 11.5 374.6 13.3 C 375.6 15.1 376 17.2 376 19.6 C 376 22 375.6 24.1 374.6 26 C 373.7 27.8 372.4 29.2 370.6 30.2 C 368.9 31.2 366.9 31.7 364.5 31.7 Z M 364.5 26.7 C 365.6 26.7 366.5 26.4 367.2 25.8 C 367.9 25.2 368.5 24.3 368.9 23.2 C 369.2 22.2 369.4 21 369.4 19.6 C 369.4 18.2 369.2 17 368.9 15.9 C 368.5 14.9 367.9 14 367.2 13.4 C 366.5 12.8 365.6 12.5 364.5 12.5 C 363.4 12.5 362.5 12.8 361.8 13.4 C 361 14 360.5 14.9 360.1 15.9 C 359.7 17 359.6 18.2 359.6 19.6 C 359.6 21 359.7 22.2 360.1 23.2 C 360.5 24.3 361 25.2 361.8 25.8 C 362.5 26.4 363.4 26.7 364.5 26.7 Z M 386.5 17.7 C 386.53 17.71 386.5 31.3 386.5 31.3 L 380 31.3 L 380 7.8 L 386.2 7.8 L 386.2 12 C 386.2 12 386.5 11.96 386.5 12 C 387 10.6 387.9 9.5 389.1 8.7 C 390.3 7.9 391.8 7.5 393.6 7.5 C 395.2 7.5 396.6 7.9 397.8 8.6 C 399 9.3 400 10.3 400.6 11.6 C 401.3 12.9 401.6 14.5 401.6 16.3 C 401.65 16.34 401.6 31.3 401.6 31.3 L 395.1 31.3 C 395.1 31.3 395.14 17.5 395.1 17.5 C 395.2 16.1 394.8 14.9 394 14.1 C 393.3 13.3 392.3 12.9 391 12.9 C 390.1 12.9 389.3 13.1 388.7 13.5 C 388 13.9 387.5 14.4 387.1 15.1 C 386.7 15.8 386.5 16.7 386.5 17.7 Z " stroke="none" fill="#10283d"/>  </g>  <g id="Polygon113631">    <path d="M 415.6 19 L 426.6 29.8 L 437.6 19 " style="stroke-width:3pt; stroke:#838f98;" fill="none"/>  </g>  <g id="Polygon113635">    <path d="M 248.5 139.8 L 203.3 139.8 M 237.6 150.9 L 248.6 139.9 L 237.6 129 " style="stroke-width:3pt; stroke:#ff4f00;" fill="none"/>  </g></svg>