<?xml version="1.0" standalone="no"?><!DOCTYPE svg PUBLIC "-//W3C//DTD SVG 1.1//EN" "http://www.w3.org/Graphics/SVG/1.1/DTD/svg11.dtd"><svg xmlns="http://www.w3.org/2000/svg" version="1.1" width="169px" height="73px" viewBox="0 -10 169 73" style="top:-10px">  <desc>Promise vs. functionality ￼</desc>  <defs/>  <g id="Polygon116241">    <path d="M 8.8 34.5 L 8.8 37.4 L 0.4 37.4 L 0.4 34.5 L 8.8 34.5 Z M 2.4 48.2 C 2.4 48.2 2.35 33.56 2.4 33.6 C 2.4 32.6 2.5 31.8 2.9 31.1 C 3.3 30.4 3.9 30 4.5 29.6 C 5.2 29.3 6 29.1 6.8 29.1 C 7.4 29.1 7.9 29.2 8.4 29.3 C 8.9 29.4 9.3 29.4 9.5 29.5 C 9.5 29.5 8.8 32.4 8.8 32.4 C 8.7 32.3 8.5 32.3 8.3 32.2 C 8.1 32.2 7.8 32.2 7.6 32.2 C 7.1 32.2 6.7 32.3 6.5 32.6 C 6.2 32.8 6.1 33.2 6.1 33.6 C 6.13 33.63 6.1 48.2 6.1 48.2 L 2.4 48.2 Z M 19.6 42.4 C 19.58 42.38 19.6 34.5 19.6 34.5 L 23.4 34.5 L 23.4 48.2 L 19.7 48.2 L 19.7 45.7 C 19.7 45.7 19.59 45.7 19.6 45.7 C 19.3 46.5 18.8 47.1 18.1 47.6 C 17.3 48.1 16.5 48.4 15.5 48.4 C 14.5 48.4 13.7 48.2 13 47.7 C 12.4 47.3 11.8 46.7 11.4 46 C 11 45.2 10.8 44.3 10.8 43.2 C 10.84 43.23 10.8 34.5 10.8 34.5 L 14.6 34.5 C 14.6 34.5 14.62 42.55 14.6 42.6 C 14.6 43.4 14.8 44 15.3 44.5 C 15.7 44.9 16.3 45.2 17 45.2 C 17.4 45.2 17.9 45.1 18.3 44.8 C 18.7 44.6 19 44.3 19.2 43.9 C 19.5 43.5 19.6 43 19.6 42.4 Z M 30.1 40.3 C 30.08 40.3 30.1 48.2 30.1 48.2 L 26.3 48.2 L 26.3 34.5 L 29.9 34.5 L 29.9 37 C 29.9 37 30.06 36.95 30.1 37 C 30.4 36.2 30.9 35.5 31.6 35.1 C 32.3 34.6 33.1 34.4 34.2 34.4 C 35.1 34.4 35.9 34.6 36.6 35 C 37.3 35.4 37.9 36 38.3 36.8 C 38.7 37.5 38.9 38.4 38.9 39.5 C 38.87 39.5 38.9 48.2 38.9 48.2 L 35.1 48.2 C 35.1 48.2 35.08 40.17 35.1 40.2 C 35.1 39.3 34.9 38.7 34.4 38.2 C 34 37.7 33.4 37.5 32.7 37.5 C 32.2 37.5 31.7 37.6 31.3 37.8 C 30.9 38.1 30.6 38.4 30.4 38.8 C 30.2 39.2 30.1 39.7 30.1 40.3 Z M 47.8 48.4 C 46.4 48.4 45.2 48.2 44.2 47.6 C 43.2 47 42.4 46.1 41.9 45.1 C 41.4 44 41.1 42.8 41.1 41.4 C 41.1 40 41.4 38.8 41.9 37.7 C 42.5 36.7 43.2 35.9 44.2 35.3 C 45.2 34.7 46.4 34.4 47.8 34.4 C 49 34.4 50 34.6 50.9 35 C 51.8 35.4 52.5 36.1 53 36.8 C 53.6 37.6 53.9 38.5 53.9 39.6 C 53.9 39.6 50.3 39.6 50.3 39.6 C 50.2 38.9 50 38.4 49.5 37.9 C 49.1 37.5 48.6 37.3 47.9 37.3 C 47.3 37.3 46.8 37.5 46.3 37.8 C 45.9 38.1 45.6 38.6 45.3 39.2 C 45.1 39.8 44.9 40.5 44.9 41.4 C 44.9 42.2 45.1 43 45.3 43.6 C 45.5 44.2 45.9 44.7 46.3 45 C 46.8 45.3 47.3 45.5 47.9 45.5 C 48.3 45.5 48.7 45.4 49 45.2 C 49.4 45 49.7 44.8 49.9 44.4 C 50.1 44.1 50.3 43.7 50.3 43.2 C 50.3 43.2 53.9 43.2 53.9 43.2 C 53.8 44.2 53.6 45.1 53.1 45.9 C 52.6 46.7 51.9 47.3 51 47.8 C 50.1 48.2 49 48.4 47.8 48.4 Z M 63.4 34.5 L 63.4 37.4 L 55.2 37.4 L 55.2 34.5 L 63.4 34.5 Z M 57.1 31.3 L 60.9 31.3 C 60.9 31.3 60.87 43.99 60.9 44 C 60.9 44.3 60.9 44.6 61 44.8 C 61.1 45 61.3 45.1 61.5 45.2 C 61.7 45.3 61.9 45.3 62.2 45.3 C 62.3 45.3 62.5 45.3 62.7 45.3 C 62.9 45.2 63 45.2 63.1 45.2 C 63.1 45.2 63.7 48 63.7 48 C 63.5 48.1 63.2 48.1 62.9 48.2 C 62.5 48.3 62.1 48.4 61.6 48.4 C 60.7 48.4 59.9 48.3 59.2 48 C 58.6 47.7 58 47.3 57.7 46.7 C 57.3 46.1 57.1 45.4 57.1 44.5 C 57.09 44.49 57.1 31.3 57.1 31.3 Z M 65.6 48.2 L 65.6 34.5 L 69.4 34.5 L 69.4 48.2 L 65.6 48.2 Z M 67.5 32.8 C 66.9 32.8 66.5 32.6 66.1 32.2 C 65.7 31.9 65.5 31.4 65.5 30.9 C 65.5 30.4 65.7 29.9 66.1 29.5 C 66.5 29.1 66.9 29 67.5 29 C 68.1 29 68.5 29.1 68.9 29.5 C 69.3 29.9 69.5 30.3 69.5 30.9 C 69.5 31.4 69.3 31.8 68.9 32.2 C 68.5 32.6 68.1 32.8 67.5 32.8 Z M 78.4 48.4 C 77 48.4 75.8 48.2 74.8 47.6 C 73.8 47 73 46.2 72.5 45.1 C 72 44 71.7 42.8 71.7 41.4 C 71.7 40 72 38.8 72.5 37.7 C 73 36.7 73.8 35.8 74.8 35.3 C 75.8 34.7 77 34.4 78.4 34.4 C 79.8 34.4 81 34.7 82 35.3 C 83 35.8 83.8 36.7 84.3 37.7 C 84.8 38.8 85.1 40 85.1 41.4 C 85.1 42.8 84.8 44 84.3 45.1 C 83.8 46.2 83 47 82 47.6 C 81 48.2 79.8 48.4 78.4 48.4 Z M 78.4 45.5 C 79 45.5 79.6 45.3 80 45 C 80.4 44.6 80.7 44.1 80.9 43.5 C 81.2 42.9 81.3 42.2 81.3 41.4 C 81.3 40.6 81.2 39.9 80.9 39.3 C 80.7 38.6 80.4 38.2 80 37.8 C 79.6 37.4 79 37.3 78.4 37.3 C 77.8 37.3 77.3 37.4 76.8 37.8 C 76.4 38.2 76.1 38.6 75.9 39.3 C 75.6 39.9 75.5 40.6 75.5 41.4 C 75.5 42.2 75.6 42.9 75.9 43.5 C 76.1 44.1 76.4 44.6 76.8 45 C 77.3 45.3 77.8 45.5 78.4 45.5 Z M 91.3 40.3 C 91.27 40.3 91.3 48.2 91.3 48.2 L 87.5 48.2 L 87.5 34.5 L 91.1 34.5 L 91.1 37 C 91.1 37 91.25 36.95 91.3 37 C 91.6 36.2 92.1 35.5 92.8 35.1 C 93.5 34.6 94.3 34.4 95.4 34.4 C 96.3 34.4 97.1 34.6 97.8 35 C 98.5 35.4 99.1 36 99.5 36.8 C 99.9 37.5 100.1 38.4 100.1 39.5 C 100.06 39.5 100.1 48.2 100.1 48.2 L 96.3 48.2 C 96.3 48.2 96.28 40.17 96.3 40.2 C 96.3 39.3 96.1 38.7 95.6 38.2 C 95.2 37.7 94.6 37.5 93.9 37.5 C 93.3 37.5 92.9 37.6 92.5 37.8 C 92.1 38.1 91.8 38.4 91.6 38.8 C 91.4 39.2 91.3 39.7 91.3 40.3 Z M 106.7 48.4 C 105.8 48.4 105 48.3 104.4 48 C 103.7 47.7 103.1 47.2 102.8 46.6 C 102.4 46 102.2 45.3 102.2 44.4 C 102.2 43.6 102.3 43 102.6 42.5 C 102.9 41.9 103.2 41.5 103.7 41.2 C 104.2 40.9 104.7 40.7 105.4 40.5 C 106 40.4 106.6 40.2 107.3 40.2 C 108.1 40.1 108.7 40 109.2 39.9 C 109.7 39.9 110 39.8 110.3 39.6 C 110.5 39.5 110.6 39.2 110.6 38.9 C 110.6 38.9 110.6 38.9 110.6 38.9 C 110.6 38.3 110.4 37.9 110.1 37.6 C 109.7 37.3 109.2 37.1 108.6 37.1 C 107.9 37.1 107.3 37.3 106.9 37.6 C 106.5 37.9 106.3 38.3 106.1 38.7 C 106.1 38.7 102.6 38.4 102.6 38.4 C 102.8 37.6 103.2 36.9 103.7 36.3 C 104.2 35.7 104.9 35.2 105.7 34.9 C 106.5 34.5 107.5 34.4 108.6 34.4 C 109.3 34.4 110.1 34.5 110.8 34.6 C 111.5 34.8 112.1 35.1 112.6 35.5 C 113.2 35.8 113.6 36.3 113.9 36.9 C 114.2 37.5 114.4 38.2 114.4 39 C 114.37 38.98 114.4 48.2 114.4 48.2 L 110.8 48.2 L 110.8 46.3 C 110.8 46.3 110.68 46.29 110.7 46.3 C 110.5 46.7 110.2 47.1 109.8 47.4 C 109.4 47.7 109 48 108.5 48.2 C 108 48.3 107.4 48.4 106.7 48.4 Z M 107.8 45.8 C 108.3 45.8 108.8 45.7 109.2 45.5 C 109.7 45.3 110 45 110.3 44.6 C 110.5 44.2 110.6 43.8 110.6 43.3 C 110.6 43.3 110.6 41.9 110.6 41.9 C 110.5 41.9 110.3 42 110.1 42.1 C 109.9 42.1 109.7 42.2 109.4 42.2 C 109.2 42.3 108.9 42.3 108.7 42.4 C 108.4 42.4 108.2 42.4 108 42.5 C 107.5 42.5 107.2 42.6 106.8 42.8 C 106.5 42.9 106.2 43.1 106.1 43.4 C 105.9 43.6 105.8 43.9 105.8 44.2 C 105.8 44.8 106 45.2 106.3 45.4 C 106.7 45.7 107.2 45.8 107.8 45.8 Z M 121 30 L 121 48.2 L 117.2 48.2 L 117.2 30 L 121 30 Z M 123.9 48.2 L 123.9 34.5 L 127.7 34.5 L 127.7 48.2 L 123.9 48.2 Z M 125.8 32.8 C 125.3 32.8 124.8 32.6 124.4 32.2 C 124 31.9 123.8 31.4 123.8 30.9 C 123.8 30.4 124 29.9 124.4 29.5 C 124.8 29.1 125.3 29 125.8 29 C 126.4 29 126.9 29.1 127.3 29.5 C 127.7 29.9 127.9 30.3 127.9 30.9 C 127.9 31.4 127.7 31.8 127.3 32.2 C 126.9 32.6 126.4 32.8 125.8 32.8 Z M 137.8 34.5 L 137.8 37.4 L 129.6 37.4 L 129.6 34.5 L 137.8 34.5 Z M 131.4 31.3 L 135.2 31.3 C 135.2 31.3 135.23 43.99 135.2 44 C 135.2 44.3 135.3 44.6 135.4 44.8 C 135.5 45 135.6 45.1 135.8 45.2 C 136 45.3 136.3 45.3 136.5 45.3 C 136.7 45.3 136.9 45.3 137 45.3 C 137.2 45.2 137.4 45.2 137.4 45.2 C 137.4 45.2 138 48 138 48 C 137.9 48.1 137.6 48.1 137.2 48.2 C 136.9 48.3 136.5 48.4 136 48.4 C 135.1 48.4 134.3 48.3 133.6 48 C 132.9 47.7 132.4 47.3 132 46.7 C 131.6 46.1 131.4 45.4 131.4 44.5 C 131.45 44.49 131.4 31.3 131.4 31.3 Z M 142.7 53.3 C 142.2 53.3 141.8 53.3 141.4 53.2 C 140.9 53.1 140.6 53 140.3 52.9 C 140.3 52.9 141.2 50.1 141.2 50.1 C 141.6 50.2 142 50.3 142.4 50.3 C 142.7 50.3 143 50.2 143.3 50.1 C 143.6 49.9 143.8 49.6 143.9 49.1 C 143.95 49.15 144.2 48.6 144.2 48.6 L 139.3 34.5 L 143.3 34.5 L 146.1 44.6 L 146.2 44.6 L 149.1 34.5 L 153.1 34.5 C 153.1 34.5 147.78 49.66 147.8 49.7 C 147.5 50.4 147.2 51 146.7 51.6 C 146.3 52.1 145.8 52.5 145.1 52.8 C 144.4 53.1 143.6 53.3 142.7 53.3 Z " stroke="none" fill="#10283d"/>  </g>  <g id="Polygon116240">    <path d="M 1.6 18.2 L 1.6 0 C 1.6 0 8.75 0 8.8 0 C 10.1 0 11.3 0.3 12.3 0.8 C 13.2 1.3 14 2 14.5 3 C 15 3.9 15.3 5 15.3 6.2 C 15.3 7.4 15 8.4 14.5 9.4 C 14 10.3 13.2 11 12.2 11.5 C 11.2 12 10.1 12.3 8.7 12.3 C 8.66 12.29 4.1 12.3 4.1 12.3 L 4.1 9.2 C 4.1 9.2 8.03 9.21 8 9.2 C 8.8 9.2 9.4 9.1 9.9 8.8 C 10.4 8.6 10.7 8.2 11 7.7 C 11.2 7.3 11.3 6.8 11.3 6.2 C 11.3 5.6 11.2 5 11 4.6 C 10.7 4.1 10.3 3.8 9.9 3.5 C 9.4 3.3 8.8 3.1 8 3.1 C 8.02 3.14 5.4 3.1 5.4 3.1 L 5.4 18.2 L 1.6 18.2 Z M 17.3 18.2 L 17.3 4.5 L 21 4.5 L 21 6.9 C 21 6.9 21.13 6.92 21.1 6.9 C 21.4 6.1 21.8 5.4 22.4 5 C 23 4.6 23.6 4.4 24.4 4.4 C 24.6 4.4 24.8 4.4 25 4.4 C 25.2 4.4 25.4 4.4 25.6 4.5 C 25.6 4.5 25.6 7.8 25.6 7.8 C 25.4 7.8 25.2 7.7 24.9 7.7 C 24.5 7.7 24.3 7.6 24 7.6 C 23.4 7.6 22.9 7.8 22.5 8 C 22.1 8.2 21.7 8.6 21.5 9 C 21.2 9.4 21.1 9.9 21.1 10.5 C 21.11 10.47 21.1 18.2 21.1 18.2 L 17.3 18.2 Z M 33.3 18.4 C 31.9 18.4 30.8 18.2 29.8 17.6 C 28.7 17 28 16.2 27.4 15.1 C 26.9 14 26.6 12.8 26.6 11.4 C 26.6 10 26.9 8.8 27.4 7.7 C 28 6.7 28.7 5.8 29.8 5.3 C 30.8 4.7 31.9 4.4 33.3 4.4 C 34.7 4.4 35.9 4.7 36.9 5.3 C 37.9 5.8 38.7 6.7 39.2 7.7 C 39.8 8.8 40 10 40 11.4 C 40 12.8 39.8 14 39.2 15.1 C 38.7 16.2 37.9 17 36.9 17.6 C 35.9 18.2 34.7 18.4 33.3 18.4 Z M 33.3 15.5 C 34 15.5 34.5 15.3 34.9 15 C 35.3 14.6 35.7 14.1 35.9 13.5 C 36.1 12.9 36.2 12.2 36.2 11.4 C 36.2 10.6 36.1 9.9 35.9 9.3 C 35.7 8.6 35.3 8.2 34.9 7.8 C 34.5 7.4 34 7.3 33.3 7.3 C 32.7 7.3 32.2 7.4 31.7 7.8 C 31.3 8.2 31 8.6 30.8 9.3 C 30.6 9.9 30.5 10.6 30.5 11.4 C 30.5 12.2 30.6 12.9 30.8 13.5 C 31 14.1 31.3 14.6 31.7 15 C 32.2 15.3 32.7 15.5 33.3 15.5 Z M 42.4 18.2 L 42.4 4.5 L 46 4.5 L 46 7 C 46 7 46.18 6.95 46.2 7 C 46.5 6.2 46.9 5.5 47.6 5.1 C 48.3 4.6 49.1 4.4 50 4.4 C 50.9 4.4 51.7 4.6 52.4 5.1 C 53 5.5 53.5 6.2 53.7 7 C 53.7 7 53.8 7 53.8 7 C 54.1 6.2 54.6 5.5 55.3 5.1 C 56.1 4.6 56.9 4.4 57.9 4.4 C 59.2 4.4 60.2 4.8 61 5.6 C 61.8 6.4 62.2 7.5 62.2 9 C 62.23 9.01 62.2 18.2 62.2 18.2 L 58.5 18.2 C 58.5 18.2 58.46 9.76 58.5 9.8 C 58.5 9 58.3 8.4 57.9 8.1 C 57.4 7.7 56.9 7.5 56.3 7.5 C 55.7 7.5 55.1 7.7 54.7 8.1 C 54.4 8.6 54.2 9.1 54.2 9.9 C 54.16 9.85 54.2 18.2 54.2 18.2 L 50.5 18.2 C 50.5 18.2 50.49 9.68 50.5 9.7 C 50.5 9 50.3 8.5 49.9 8.1 C 49.5 7.7 49 7.5 48.4 7.5 C 48 7.5 47.6 7.6 47.3 7.8 C 46.9 8 46.7 8.3 46.5 8.7 C 46.3 9.1 46.2 9.5 46.2 10 C 46.2 10 46.2 18.2 46.2 18.2 L 42.4 18.2 Z M 65 18.2 L 65 4.5 L 68.8 4.5 L 68.8 18.2 L 65 18.2 Z M 66.9 2.8 C 66.4 2.8 65.9 2.6 65.5 2.2 C 65.1 1.9 64.9 1.4 64.9 0.9 C 64.9 0.4 65.1 -0.1 65.5 -0.5 C 65.9 -0.9 66.4 -1 66.9 -1 C 67.5 -1 68 -0.9 68.4 -0.5 C 68.8 -0.1 69 0.3 69 0.9 C 69 1.4 68.8 1.8 68.4 2.2 C 68 2.6 67.5 2.8 66.9 2.8 Z M 83 8.4 C 83 8.4 79.5 8.6 79.5 8.6 C 79.4 8.4 79.3 8.1 79.1 7.8 C 78.9 7.6 78.7 7.4 78.4 7.3 C 78 7.1 77.7 7 77.2 7 C 76.6 7 76.1 7.2 75.7 7.4 C 75.3 7.7 75.1 8 75.1 8.4 C 75.1 8.7 75.3 9 75.5 9.2 C 75.8 9.4 76.2 9.6 76.9 9.8 C 76.9 9.8 79.3 10.3 79.3 10.3 C 80.7 10.5 81.6 11 82.3 11.6 C 83 12.2 83.3 13 83.3 14 C 83.3 14.8 83 15.6 82.5 16.3 C 82 17 81.3 17.5 80.3 17.9 C 79.4 18.3 78.4 18.4 77.2 18.4 C 75.4 18.4 74 18.1 72.9 17.3 C 71.8 16.6 71.2 15.5 71 14.2 C 71 14.2 74.7 14 74.7 14 C 74.8 14.6 75.1 15 75.6 15.3 C 76 15.6 76.5 15.7 77.2 15.7 C 77.9 15.7 78.4 15.6 78.8 15.3 C 79.2 15.1 79.4 14.7 79.4 14.3 C 79.4 14 79.3 13.7 79 13.5 C 78.7 13.3 78.3 13.1 77.7 13 C 77.7 13 75.3 12.5 75.3 12.5 C 74 12.2 73 11.8 72.4 11.1 C 71.7 10.5 71.4 9.6 71.4 8.6 C 71.4 7.7 71.6 7 72.1 6.3 C 72.6 5.7 73.2 5.2 74.1 4.9 C 75 4.5 76 4.4 77.2 4.4 C 78.9 4.4 80.2 4.7 81.2 5.5 C 82.2 6.2 82.8 7.2 83 8.4 Z M 91.7 18.4 C 90.3 18.4 89.1 18.2 88.1 17.6 C 87.1 17 86.3 16.2 85.7 15.2 C 85.2 14.1 84.9 12.9 84.9 11.4 C 84.9 10 85.2 8.8 85.7 7.7 C 86.3 6.7 87 5.8 88 5.3 C 89 4.7 90.2 4.4 91.5 4.4 C 92.4 4.4 93.3 4.5 94 4.8 C 94.8 5.1 95.5 5.5 96.1 6.1 C 96.7 6.7 97.1 7.4 97.5 8.3 C 97.8 9.1 97.9 10.1 97.9 11.3 C 97.94 11.29 97.9 12.3 97.9 12.3 L 86.4 12.3 L 86.4 10 C 86.4 10 94.38 9.99 94.4 10 C 94.4 9.4 94.3 9 94 8.5 C 93.8 8.1 93.5 7.8 93 7.6 C 92.6 7.3 92.1 7.2 91.6 7.2 C 91 7.2 90.5 7.3 90.1 7.6 C 89.6 7.8 89.3 8.2 89 8.6 C 88.8 9.1 88.7 9.6 88.7 10.1 C 88.7 10.1 88.7 12.3 88.7 12.3 C 88.7 13 88.8 13.6 89 14.1 C 89.3 14.6 89.6 15 90.1 15.2 C 90.6 15.5 91.1 15.6 91.7 15.6 C 92.2 15.6 92.5 15.6 92.9 15.4 C 93.2 15.3 93.5 15.2 93.8 14.9 C 94 14.7 94.2 14.4 94.4 14 C 94.4 14 97.9 14.3 97.9 14.3 C 97.7 15.1 97.3 15.8 96.8 16.5 C 96.2 17.1 95.5 17.6 94.7 17.9 C 93.8 18.3 92.8 18.4 91.7 18.4 Z M 118.9 4.5 L 114.2 18.2 L 109.9 18.2 L 105.1 4.5 L 109.1 4.5 L 111.9 14.3 L 112.1 14.3 L 114.9 4.5 L 118.9 4.5 Z M 131.6 8.4 C 131.6 8.4 128.1 8.6 128.1 8.6 C 128.1 8.4 127.9 8.1 127.7 7.8 C 127.5 7.6 127.3 7.4 127 7.3 C 126.7 7.1 126.3 7 125.8 7 C 125.2 7 124.8 7.2 124.4 7.4 C 124 7.7 123.7 8 123.7 8.4 C 123.7 8.7 123.9 9 124.1 9.2 C 124.4 9.4 124.8 9.6 125.5 9.8 C 125.5 9.8 127.9 10.3 127.9 10.3 C 129.3 10.5 130.3 11 130.9 11.6 C 131.6 12.2 131.9 13 131.9 14 C 131.9 14.8 131.6 15.6 131.1 16.3 C 130.6 17 129.9 17.5 129 17.9 C 128 18.3 127 18.4 125.8 18.4 C 124 18.4 122.6 18.1 121.5 17.3 C 120.4 16.6 119.8 15.5 119.6 14.2 C 119.6 14.2 123.3 14 123.3 14 C 123.5 14.6 123.7 15 124.2 15.3 C 124.6 15.6 125.2 15.7 125.8 15.7 C 126.5 15.7 127 15.6 127.4 15.3 C 127.8 15.1 128 14.7 128 14.3 C 128 14 127.9 13.7 127.6 13.5 C 127.3 13.3 126.9 13.1 126.3 13 C 126.3 13 123.9 12.5 123.9 12.5 C 122.6 12.2 121.6 11.8 121 11.1 C 120.3 10.5 120 9.6 120 8.6 C 120 7.7 120.2 7 120.7 6.3 C 121.2 5.7 121.9 5.2 122.7 4.9 C 123.6 4.5 124.6 4.4 125.8 4.4 C 127.5 4.4 128.9 4.7 129.8 5.5 C 130.8 6.2 131.4 7.2 131.6 8.4 Z M 136.3 18.4 C 135.7 18.4 135.2 18.2 134.8 17.8 C 134.4 17.4 134.2 16.9 134.2 16.3 C 134.2 15.7 134.4 15.2 134.8 14.8 C 135.2 14.4 135.7 14.2 136.3 14.2 C 136.9 14.2 137.4 14.4 137.8 14.8 C 138.2 15.2 138.5 15.7 138.5 16.3 C 138.5 16.7 138.4 17 138.2 17.4 C 138 17.7 137.7 17.9 137.4 18.1 C 137.1 18.3 136.7 18.4 136.3 18.4 Z " stroke="none" fill="#10283d"/>  </g>  <g id="Polygon116242">    <path d="M 160.2 47.3 L 166.7 40.7 L 160.2 34.1 " style="stroke-width:1.8pt; stroke:#ff4f00;" fill="none"/>  </g></svg>