<?xml version="1.0" standalone="no"?><!DOCTYPE svg PUBLIC "-//W3C//DTD SVG 1.1//EN" "http://www.w3.org/Graphics/SVG/1.1/DTD/svg11.dtd"><svg xmlns="http://www.w3.org/2000/svg" version="1.1" width="61px" height="18.4px" viewBox="0 -5 61 18.4" style="top:-5px">  <desc>12 / 19</desc>  <defs/>  <g id="Polygon121283">    <path d="M 18.5 0 L 18.5 7.3 L 17.6 7.3 L 17.6 0.9 L 17.6 0.9 L 15.8 2.1 L 15.8 1.2 L 17.6 0 L 18.5 0 Z M 20.3 7.3 L 20.3 6.6 C 20.3 6.6 22.72 4.01 22.7 4 C 23 3.7 23.2 3.4 23.4 3.2 C 23.6 3 23.7 2.8 23.8 2.6 C 23.9 2.4 24 2.1 24 1.9 C 24 1.7 23.9 1.4 23.8 1.3 C 23.6 1.1 23.5 0.9 23.3 0.8 C 23.1 0.7 22.8 0.7 22.6 0.7 C 22.3 0.7 22 0.7 21.8 0.8 C 21.6 1 21.5 1.1 21.4 1.3 C 21.2 1.5 21.2 1.8 21.2 2 C 21.2 2 20.3 2 20.3 2 C 20.3 1.6 20.4 1.2 20.6 0.9 C 20.8 0.6 21.1 0.4 21.4 0.2 C 21.8 0 22.2 -0.1 22.6 -0.1 C 23 -0.1 23.4 0 23.7 0.2 C 24 0.4 24.3 0.6 24.5 0.9 C 24.7 1.2 24.8 1.5 24.8 1.9 C 24.8 2.2 24.7 2.4 24.6 2.7 C 24.5 3 24.4 3.2 24.1 3.5 C 23.9 3.9 23.6 4.2 23.2 4.7 C 23.16 4.69 21.5 6.4 21.5 6.4 L 21.5 6.5 L 24.9 6.5 L 24.9 7.3 L 20.3 7.3 Z M 31.8 -0.3 L 29.4 8.4 L 28.7 8.4 L 31 -0.3 L 31.8 -0.3 Z M 38.1 0 L 38.1 7.3 L 37.2 7.3 L 37.2 0.9 L 37.2 0.9 L 35.4 2.1 L 35.4 1.2 L 37.2 0 L 38.1 0 Z M 42.4 -0.1 C 42.7 -0.1 43 0 43.3 0.1 C 43.6 0.2 43.9 0.4 44.1 0.6 C 44.4 0.9 44.6 1.2 44.7 1.7 C 44.9 2.1 45 2.7 45 3.3 C 45 4 44.9 4.6 44.8 5.1 C 44.6 5.6 44.5 6 44.2 6.3 C 44 6.7 43.7 6.9 43.4 7.1 C 43.1 7.3 42.7 7.4 42.3 7.4 C 41.9 7.4 41.5 7.3 41.2 7.1 C 40.9 7 40.6 6.7 40.4 6.5 C 40.2 6.2 40.1 5.8 40.1 5.4 C 40.1 5.4 40.9 5.4 40.9 5.4 C 41 5.8 41.2 6 41.4 6.3 C 41.6 6.5 41.9 6.6 42.3 6.6 C 42.9 6.6 43.3 6.3 43.6 5.9 C 44 5.4 44.1 4.7 44.1 3.8 C 44.1 3.8 44.1 3.8 44.1 3.8 C 43.9 4 43.8 4.1 43.6 4.3 C 43.4 4.4 43.2 4.5 43 4.6 C 42.8 4.7 42.5 4.7 42.3 4.7 C 41.9 4.7 41.5 4.6 41.1 4.4 C 40.8 4.2 40.5 3.9 40.3 3.6 C 40.1 3.2 40 2.8 40 2.3 C 40 1.9 40.1 1.5 40.3 1.1 C 40.5 0.7 40.8 0.4 41.1 0.2 C 41.5 0 41.9 -0.1 42.4 -0.1 Z M 42.4 0.7 C 42.1 0.7 41.9 0.8 41.6 0.9 C 41.4 1.1 41.2 1.3 41.1 1.5 C 40.9 1.8 40.8 2 40.8 2.3 C 40.8 2.6 40.9 2.9 41 3.2 C 41.2 3.4 41.4 3.6 41.6 3.7 C 41.8 3.9 42.1 4 42.4 4 C 42.6 4 42.8 3.9 43 3.8 C 43.2 3.7 43.4 3.6 43.5 3.5 C 43.7 3.3 43.8 3.1 43.9 2.9 C 44 2.7 44 2.5 44 2.3 C 44 2 43.9 1.8 43.8 1.5 C 43.7 1.3 43.5 1.1 43.2 0.9 C 43 0.8 42.7 0.7 42.4 0.7 Z " stroke="none" fill="#ffffff"/>  </g></svg>