<?xml version="1.0" standalone="no"?><!DOCTYPE svg PUBLIC "-//W3C//DTD SVG 1.1//EN" "http://www.w3.org/Graphics/SVG/1.1/DTD/svg11.dtd"><svg xmlns="http://www.w3.org/2000/svg" version="1.1" width="156px" height="54.7px" viewBox="0 -13 156 54.7" style="top:-13px">  <desc>Start now</desc>  <defs/>  <g id="Polygon105900">    <path d="M 14.6 6.7 C 14.6 5.8 14.2 5.1 13.5 4.6 C 12.8 4 11.9 3.8 10.7 3.8 C 9.9 3.8 9.2 3.9 8.6 4.1 C 8.1 4.4 7.7 4.7 7.4 5.1 C 7.1 5.5 6.9 5.9 6.9 6.4 C 6.9 6.8 7 7.2 7.2 7.5 C 7.4 7.8 7.7 8.1 8 8.3 C 8.3 8.5 8.7 8.7 9.2 8.9 C 9.6 9 10.1 9.2 10.6 9.3 C 10.6 9.3 12.7 9.8 12.7 9.8 C 13.7 10 14.7 10.3 15.5 10.7 C 16.3 11.1 17.1 11.5 17.7 12.1 C 18.3 12.6 18.8 13.3 19.2 14 C 19.5 14.8 19.7 15.7 19.7 16.6 C 19.7 18 19.3 19.3 18.6 20.3 C 17.9 21.4 16.9 22.2 15.5 22.7 C 14.2 23.3 12.5 23.6 10.6 23.6 C 8.8 23.6 7.1 23.3 5.7 22.7 C 4.4 22.2 3.3 21.3 2.5 20.2 C 1.7 19 1.3 17.6 1.3 16 C 1.3 16 6 16 6 16 C 6.1 16.7 6.3 17.4 6.7 17.9 C 7.1 18.4 7.6 18.8 8.3 19.1 C 9 19.3 9.7 19.5 10.6 19.5 C 11.4 19.5 12.1 19.4 12.8 19.1 C 13.4 18.9 13.9 18.5 14.2 18.1 C 14.5 17.7 14.7 17.2 14.7 16.6 C 14.7 16.1 14.6 15.7 14.3 15.3 C 13.9 14.9 13.5 14.6 12.9 14.4 C 12.3 14.1 11.6 13.9 10.8 13.7 C 10.8 13.7 8.2 13.1 8.2 13.1 C 6.3 12.6 4.7 11.8 3.6 10.8 C 2.4 9.8 1.9 8.4 1.9 6.7 C 1.9 5.3 2.3 4.1 3 3 C 3.8 2 4.8 1.2 6.2 0.6 C 7.5 0 9 -0.3 10.7 -0.3 C 12.4 -0.3 13.9 0 15.2 0.6 C 16.5 1.2 17.5 2 18.3 3 C 19 4.1 19.3 5.3 19.4 6.7 C 19.4 6.7 14.6 6.7 14.6 6.7 Z M 32.2 5.8 L 32.2 9.5 L 21.7 9.5 L 21.7 5.8 L 32.2 5.8 Z M 24.1 1.6 L 29 1.6 C 29 1.6 28.95 17.91 29 17.9 C 29 18.4 29 18.7 29.2 18.9 C 29.3 19.2 29.5 19.4 29.7 19.5 C 30 19.6 30.3 19.6 30.6 19.6 C 30.8 19.6 31 19.6 31.3 19.6 C 31.5 19.5 31.7 19.5 31.8 19.5 C 31.8 19.5 32.6 23.1 32.6 23.1 C 32.3 23.1 32 23.2 31.5 23.3 C 31.1 23.4 30.6 23.5 29.9 23.5 C 28.8 23.6 27.7 23.4 26.9 23 C 26 22.7 25.3 22.1 24.8 21.4 C 24.3 20.6 24.1 19.7 24.1 18.5 C 24.11 18.55 24.1 1.6 24.1 1.6 Z M 40 23.6 C 38.9 23.6 37.9 23.4 37 23 C 36.2 22.6 35.5 22 35 21.3 C 34.5 20.5 34.2 19.5 34.2 18.4 C 34.2 17.4 34.4 16.6 34.8 16 C 35.1 15.3 35.6 14.8 36.2 14.4 C 36.8 14 37.5 13.7 38.3 13.5 C 39.1 13.3 39.9 13.1 40.8 13 C 41.8 12.9 42.6 12.8 43.2 12.7 C 43.9 12.6 44.3 12.5 44.6 12.3 C 44.9 12.1 45 11.8 45 11.5 C 45 11.5 45 11.4 45 11.4 C 45 10.7 44.8 10.1 44.3 9.7 C 43.9 9.3 43.2 9.1 42.4 9.1 C 41.5 9.1 40.9 9.3 40.3 9.7 C 39.8 10.1 39.5 10.6 39.3 11.1 C 39.3 11.1 34.8 10.8 34.8 10.8 C 35.1 9.7 35.5 8.8 36.2 8 C 36.8 7.2 37.7 6.6 38.8 6.2 C 39.8 5.8 41 5.6 42.4 5.6 C 43.4 5.6 44.3 5.7 45.2 5.9 C 46.1 6.2 46.9 6.5 47.6 7 C 48.3 7.5 48.8 8.1 49.2 8.8 C 49.6 9.6 49.8 10.5 49.8 11.5 C 49.85 11.5 49.8 23.3 49.8 23.3 L 45.3 23.3 L 45.3 20.9 C 45.3 20.9 45.12 20.85 45.1 20.9 C 44.8 21.4 44.5 21.9 44 22.3 C 43.5 22.7 43 23 42.3 23.3 C 41.6 23.5 40.9 23.6 40 23.6 Z M 41.4 20.3 C 42.1 20.3 42.7 20.1 43.3 19.8 C 43.8 19.6 44.3 19.2 44.6 18.7 C 44.9 18.2 45 17.6 45 17 C 45 17 45 15.2 45 15.2 C 44.9 15.3 44.7 15.4 44.4 15.4 C 44.2 15.5 43.9 15.6 43.5 15.7 C 43.2 15.7 42.9 15.8 42.6 15.8 C 42.2 15.9 41.9 15.9 41.7 16 C 41.1 16 40.6 16.2 40.2 16.4 C 39.8 16.5 39.4 16.8 39.2 17.1 C 39 17.4 38.8 17.8 38.8 18.2 C 38.8 18.9 39.1 19.4 39.6 19.7 C 40.1 20.1 40.7 20.3 41.4 20.3 Z M 53.7 23.3 L 53.7 5.8 L 58.4 5.8 L 58.4 8.9 C 58.4 8.9 58.54 8.86 58.5 8.9 C 58.9 7.8 59.4 7 60.1 6.4 C 60.9 5.8 61.8 5.6 62.7 5.6 C 63 5.6 63.2 5.6 63.5 5.6 C 63.8 5.6 64 5.7 64.3 5.7 C 64.3 5.7 64.3 10 64.3 10 C 64 10 63.7 9.9 63.3 9.9 C 62.9 9.8 62.5 9.8 62.2 9.8 C 61.5 9.8 60.9 9.9 60.3 10.2 C 59.8 10.5 59.3 11 59 11.5 C 58.7 12.1 58.5 12.7 58.5 13.4 C 58.51 13.4 58.5 23.3 58.5 23.3 L 53.7 23.3 Z M 76.4 5.8 L 76.4 9.5 L 65.9 9.5 L 65.9 5.8 L 76.4 5.8 Z M 68.3 1.6 L 73.2 1.6 C 73.2 1.6 73.16 17.91 73.2 17.9 C 73.2 18.4 73.2 18.7 73.4 18.9 C 73.5 19.2 73.7 19.4 73.9 19.5 C 74.2 19.6 74.5 19.6 74.8 19.6 C 75 19.6 75.3 19.6 75.5 19.6 C 75.7 19.5 75.9 19.5 76 19.5 C 76 19.5 76.8 23.1 76.8 23.1 C 76.5 23.1 76.2 23.2 75.7 23.3 C 75.3 23.4 74.8 23.5 74.1 23.5 C 73 23.6 71.9 23.4 71.1 23 C 70.2 22.7 69.5 22.1 69 21.4 C 68.5 20.6 68.3 19.7 68.3 18.5 C 68.32 18.55 68.3 1.6 68.3 1.6 Z M 91.9 13.2 C 91.85 13.18 91.9 23.3 91.9 23.3 L 87 23.3 L 87 5.8 L 91.6 5.8 L 91.6 8.9 C 91.6 8.9 91.83 8.9 91.8 8.9 C 92.2 7.9 92.9 7.1 93.8 6.5 C 94.7 5.9 95.8 5.6 97.1 5.6 C 98.3 5.6 99.3 5.9 100.3 6.4 C 101.2 6.9 101.9 7.7 102.4 8.7 C 102.9 9.6 103.1 10.8 103.1 12.2 C 103.1 12.16 103.1 23.3 103.1 23.3 L 98.3 23.3 C 98.3 23.3 98.26 13.02 98.3 13 C 98.3 12 98 11.1 97.4 10.5 C 96.9 9.9 96.1 9.6 95.2 9.6 C 94.5 9.6 93.9 9.8 93.4 10 C 92.9 10.3 92.6 10.7 92.3 11.3 C 92 11.8 91.9 12.4 91.9 13.2 Z M 114.7 23.6 C 112.9 23.6 111.4 23.2 110.1 22.5 C 108.8 21.7 107.8 20.7 107.1 19.3 C 106.4 18 106.1 16.4 106.1 14.6 C 106.1 12.8 106.4 11.2 107.1 9.9 C 107.8 8.5 108.8 7.5 110.1 6.7 C 111.4 6 112.9 5.6 114.7 5.6 C 116.4 5.6 118 6 119.3 6.7 C 120.5 7.5 121.5 8.5 122.2 9.9 C 122.9 11.2 123.3 12.8 123.3 14.6 C 123.3 16.4 122.9 18 122.2 19.3 C 121.5 20.7 120.5 21.7 119.3 22.5 C 118 23.2 116.4 23.6 114.7 23.6 Z M 114.7 19.9 C 115.5 19.9 116.2 19.6 116.7 19.2 C 117.3 18.7 117.7 18.1 117.9 17.3 C 118.2 16.5 118.4 15.6 118.4 14.6 C 118.4 13.6 118.2 12.7 117.9 11.9 C 117.7 11.1 117.3 10.4 116.7 10 C 116.2 9.5 115.5 9.3 114.7 9.3 C 113.9 9.3 113.2 9.5 112.7 10 C 112.1 10.4 111.7 11.1 111.4 11.9 C 111.2 12.7 111 13.6 111 14.6 C 111 15.6 111.2 16.5 111.4 17.3 C 111.7 18.1 112.1 18.7 112.7 19.2 C 113.2 19.6 113.9 19.9 114.7 19.9 Z M 129.1 23.3 L 124.4 5.8 L 129.3 5.8 L 132 17.5 L 132.2 17.5 L 135 5.8 L 139.8 5.8 L 142.6 17.5 L 142.8 17.5 L 145.5 5.8 L 150.3 5.8 L 145.6 23.3 L 140.5 23.3 L 137.5 12.3 L 137.3 12.3 L 134.3 23.3 L 129.1 23.3 Z " stroke="none" fill="#ffffff"/>  </g></svg>